%TF.GenerationSoftware,KiCad,Pcbnew,6.0.11-2627ca5db0~126~ubuntu22.04.1*%
%TF.CreationDate,2023-03-03T14:52:31-05:00*%
%TF.ProjectId,lin-pump-control,6c696e2d-7075-46d7-902d-636f6e74726f,1.0*%
%TF.SameCoordinates,Original*%
%TF.FileFunction,Soldermask,Top*%
%TF.FilePolarity,Negative*%
%FSLAX46Y46*%
G04 Gerber Fmt 4.6, Leading zero omitted, Abs format (unit mm)*
G04 Created by KiCad (PCBNEW 6.0.11-2627ca5db0~126~ubuntu22.04.1) date 2023-03-03 14:52:31*
%MOMM*%
%LPD*%
G01*
G04 APERTURE LIST*
G04 Aperture macros list*
%AMRoundRect*
0 Rectangle with rounded corners*
0 $1 Rounding radius*
0 $2 $3 $4 $5 $6 $7 $8 $9 X,Y pos of 4 corners*
0 Add a 4 corners polygon primitive as box body*
4,1,4,$2,$3,$4,$5,$6,$7,$8,$9,$2,$3,0*
0 Add four circle primitives for the rounded corners*
1,1,$1+$1,$2,$3*
1,1,$1+$1,$4,$5*
1,1,$1+$1,$6,$7*
1,1,$1+$1,$8,$9*
0 Add four rect primitives between the rounded corners*
20,1,$1+$1,$2,$3,$4,$5,0*
20,1,$1+$1,$4,$5,$6,$7,0*
20,1,$1+$1,$6,$7,$8,$9,0*
20,1,$1+$1,$8,$9,$2,$3,0*%
G04 Aperture macros list end*
%ADD10RoundRect,0.250000X0.450000X-0.350000X0.450000X0.350000X-0.450000X0.350000X-0.450000X-0.350000X0*%
%ADD11R,1.700000X1.700000*%
%ADD12O,1.700000X1.700000*%
%ADD13RoundRect,0.150000X0.150000X-0.825000X0.150000X0.825000X-0.150000X0.825000X-0.150000X-0.825000X0*%
%ADD14RoundRect,0.150000X0.150000X-0.587500X0.150000X0.587500X-0.150000X0.587500X-0.150000X-0.587500X0*%
%ADD15RoundRect,0.100000X-0.637500X-0.100000X0.637500X-0.100000X0.637500X0.100000X-0.637500X0.100000X0*%
%ADD16RoundRect,0.250000X-0.350000X-0.450000X0.350000X-0.450000X0.350000X0.450000X-0.350000X0.450000X0*%
%ADD17RoundRect,0.250000X0.337500X0.475000X-0.337500X0.475000X-0.337500X-0.475000X0.337500X-0.475000X0*%
%ADD18RoundRect,0.150000X-0.150000X0.587500X-0.150000X-0.587500X0.150000X-0.587500X0.150000X0.587500X0*%
%ADD19RoundRect,0.250000X-1.100000X0.412500X-1.100000X-0.412500X1.100000X-0.412500X1.100000X0.412500X0*%
%ADD20RoundRect,0.250000X-0.475000X0.337500X-0.475000X-0.337500X0.475000X-0.337500X0.475000X0.337500X0*%
%ADD21R,2.100000X2.100000*%
%ADD22C,2.100000*%
%ADD23RoundRect,0.250000X0.400000X1.450000X-0.400000X1.450000X-0.400000X-1.450000X0.400000X-1.450000X0*%
%ADD24RoundRect,0.250000X0.450000X-0.325000X0.450000X0.325000X-0.450000X0.325000X-0.450000X-0.325000X0*%
%ADD25RoundRect,0.250000X0.537500X0.425000X-0.537500X0.425000X-0.537500X-0.425000X0.537500X-0.425000X0*%
%ADD26RoundRect,0.150000X-0.587500X-0.150000X0.587500X-0.150000X0.587500X0.150000X-0.587500X0.150000X0*%
%ADD27R,2.200000X1.200000*%
%ADD28R,6.400000X5.800000*%
%ADD29RoundRect,0.249999X-1.425001X0.450001X-1.425001X-0.450001X1.425001X-0.450001X1.425001X0.450001X0*%
%ADD30RoundRect,0.125000X0.537500X0.125000X-0.537500X0.125000X-0.537500X-0.125000X0.537500X-0.125000X0*%
%ADD31C,1.879600*%
%ADD32R,1.879600X1.879600*%
G04 APERTURE END LIST*
D10*
%TO.C,R13*%
X215710000Y-87920000D03*
X215710000Y-85920000D03*
%TD*%
D11*
%TO.C,J2*%
X180150000Y-82100000D03*
D12*
X182690000Y-82100000D03*
X185230000Y-82100000D03*
X187770000Y-82100000D03*
%TD*%
D13*
%TO.C,U1*%
X196670000Y-89800000D03*
X197940000Y-89800000D03*
X199210000Y-89800000D03*
X200480000Y-89800000D03*
X200480000Y-84850000D03*
X199210000Y-84850000D03*
X197940000Y-84850000D03*
X196670000Y-84850000D03*
%TD*%
D14*
%TO.C,Q1*%
X187400000Y-88475000D03*
X189300000Y-88475000D03*
X188350000Y-86600000D03*
%TD*%
D15*
%TO.C,U2*%
X203237500Y-91975000D03*
X203237500Y-92625000D03*
X203237500Y-93275000D03*
X203237500Y-93925000D03*
X203237500Y-94575000D03*
X203237500Y-95225000D03*
X203237500Y-95875000D03*
X208962500Y-95875000D03*
X208962500Y-95225000D03*
X208962500Y-94575000D03*
X208962500Y-93925000D03*
X208962500Y-93275000D03*
X208962500Y-92625000D03*
X208962500Y-91975000D03*
%TD*%
D16*
%TO.C,R1*%
X194660000Y-92780000D03*
X196660000Y-92780000D03*
%TD*%
D17*
%TO.C,C1*%
X205300000Y-89775000D03*
X203225000Y-89775000D03*
%TD*%
D10*
%TO.C,R5*%
X204025000Y-85350000D03*
X204025000Y-83350000D03*
%TD*%
D18*
%TO.C,U4*%
X186280000Y-73275000D03*
X184380000Y-73275000D03*
X185330000Y-75150000D03*
%TD*%
D19*
%TO.C,C3*%
X214160000Y-67450000D03*
X214160000Y-70575000D03*
%TD*%
D17*
%TO.C,C6*%
X181797500Y-73280000D03*
X179722500Y-73280000D03*
%TD*%
D16*
%TO.C,R11*%
X209400000Y-89675000D03*
X211400000Y-89675000D03*
%TD*%
D20*
%TO.C,C4*%
X185330000Y-77185000D03*
X185330000Y-79260000D03*
%TD*%
D17*
%TO.C,C7*%
X182605000Y-76430000D03*
X180530000Y-76430000D03*
%TD*%
D21*
%TO.C,J4*%
X224700000Y-75125000D03*
D22*
X224700000Y-77665000D03*
%TD*%
D11*
%TO.C,U3*%
X191600000Y-78950000D03*
D12*
X191600000Y-76410000D03*
X191600000Y-73870000D03*
X191600000Y-71330000D03*
%TD*%
D23*
%TO.C,F1*%
X218660000Y-63900000D03*
X214210000Y-63900000D03*
%TD*%
D24*
%TO.C,D1*%
X206450000Y-85350000D03*
X206450000Y-83300000D03*
%TD*%
D25*
%TO.C,C5*%
X182620000Y-78740000D03*
X179745000Y-78740000D03*
%TD*%
D26*
%TO.C,Q3*%
X213875000Y-82050000D03*
X213875000Y-83950000D03*
X215750000Y-83000000D03*
%TD*%
D27*
%TO.C,Q4*%
X218975000Y-82970000D03*
D28*
X225275000Y-85250000D03*
D27*
X218975000Y-87530000D03*
%TD*%
D21*
%TO.C,J3*%
X224700000Y-64000000D03*
D22*
X224700000Y-66540000D03*
X224700000Y-69080000D03*
%TD*%
D10*
%TO.C,R12*%
X211525000Y-84025000D03*
X211525000Y-82025000D03*
%TD*%
D14*
%TO.C,Q2*%
X183550000Y-88525000D03*
X185450000Y-88525000D03*
X184500000Y-86650000D03*
%TD*%
D16*
%TO.C,R2*%
X198675000Y-93775000D03*
X200675000Y-93775000D03*
%TD*%
D29*
%TO.C,R15*%
X217550000Y-74070000D03*
X217550000Y-80170000D03*
%TD*%
D30*
%TO.C,U5*%
X214330000Y-77750000D03*
X214330000Y-77100000D03*
X214330000Y-76450000D03*
X214330000Y-75800000D03*
X212055000Y-75800000D03*
X212055000Y-76450000D03*
X212055000Y-77100000D03*
X212055000Y-77750000D03*
%TD*%
D31*
%TO.C,J1*%
X213820000Y-91800000D03*
X216360000Y-91800000D03*
X218900000Y-91800000D03*
X221440000Y-91800000D03*
X223980000Y-91800000D03*
D32*
X226520000Y-91800000D03*
%TD*%
M02*
