%TF.GenerationSoftware,KiCad,Pcbnew,6.0.11-2627ca5db0~126~ubuntu22.04.1*%
%TF.CreationDate,2023-03-03T14:52:30-05:00*%
%TF.ProjectId,lin-pump-control,6c696e2d-7075-46d7-902d-636f6e74726f,1.0*%
%TF.SameCoordinates,Original*%
%TF.FileFunction,Copper,L2,Inr*%
%TF.FilePolarity,Positive*%
%FSLAX46Y46*%
G04 Gerber Fmt 4.6, Leading zero omitted, Abs format (unit mm)*
G04 Created by KiCad (PCBNEW 6.0.11-2627ca5db0~126~ubuntu22.04.1) date 2023-03-03 14:52:30*
%MOMM*%
%LPD*%
G01*
G04 APERTURE LIST*
%TA.AperFunction,ComponentPad*%
%ADD10R,1.700000X1.700000*%
%TD*%
%TA.AperFunction,ComponentPad*%
%ADD11O,1.700000X1.700000*%
%TD*%
%TA.AperFunction,ComponentPad*%
%ADD12R,2.100000X2.100000*%
%TD*%
%TA.AperFunction,ComponentPad*%
%ADD13C,2.100000*%
%TD*%
%TA.AperFunction,ComponentPad*%
%ADD14C,1.879600*%
%TD*%
%TA.AperFunction,ComponentPad*%
%ADD15R,1.879600X1.879600*%
%TD*%
%TA.AperFunction,ViaPad*%
%ADD16C,0.800000*%
%TD*%
%TA.AperFunction,Conductor*%
%ADD17C,0.250000*%
%TD*%
G04 APERTURE END LIST*
D10*
%TO.N,GND*%
%TO.C,J2*%
X180150000Y-82100000D03*
D11*
%TO.N,+5V*%
X182690000Y-82100000D03*
%TO.N,SDA5V*%
X185230000Y-82100000D03*
%TO.N,SCL5V*%
X187770000Y-82100000D03*
%TD*%
D12*
%TO.N,PUMP+*%
%TO.C,J4*%
X224700000Y-75125000D03*
D13*
%TO.N,GND*%
X224700000Y-77665000D03*
%TD*%
D10*
%TO.N,+5V*%
%TO.C,U3*%
X191600000Y-78950000D03*
D11*
%TO.N,GND*%
X191600000Y-76410000D03*
%TO.N,+12V*%
X191600000Y-73870000D03*
%TO.N,unconnected-(U3-Pad4)*%
X191600000Y-71330000D03*
%TD*%
D12*
%TO.N,+BATT*%
%TO.C,J3*%
X224700000Y-64000000D03*
D13*
%TO.N,GND*%
X224700000Y-66540000D03*
%TO.N,LIN*%
X224700000Y-69080000D03*
%TD*%
D14*
%TO.N,GND*%
%TO.C,J1*%
X213820000Y-91800000D03*
%TO.N,unconnected-(J1-Pad5)*%
X216360000Y-91800000D03*
%TO.N,Net-(JP1-Pad1)*%
X218900000Y-91800000D03*
%TO.N,Net-(R6-Pad2)*%
X221440000Y-91800000D03*
%TO.N,UPDI*%
X223980000Y-91800000D03*
D15*
%TO.N,unconnected-(J1-Pad1)*%
X226520000Y-91800000D03*
%TD*%
D16*
%TO.N,Net-(JP1-Pad1)*%
X219790000Y-96770000D03*
%TO.N,GND*%
X214160000Y-72140000D03*
X178470000Y-73260000D03*
X179120000Y-76470000D03*
X186910000Y-79700000D03*
X207550000Y-91950000D03*
X213850000Y-85300000D03*
X178220000Y-78760000D03*
X187690000Y-74000000D03*
X200500000Y-82850000D03*
X216240000Y-76130000D03*
X207600000Y-86525000D03*
X206500000Y-90050000D03*
%TO.N,+5V*%
X183875000Y-76965000D03*
%TO.N,LIN*%
X199200000Y-81575000D03*
%TO.N,TXD*%
X205303198Y-95127882D03*
X200550000Y-91800000D03*
%TO.N,~{LIN_SLP}*%
X197950000Y-91675000D03*
X205075000Y-92075000D03*
%TO.N,~{LIN_WAKE}*%
X204925000Y-93300000D03*
X199225000Y-91625000D03*
%TO.N,+12V*%
X215710000Y-81860000D03*
%TO.N,UPDI*%
X210540000Y-95090000D03*
%TO.N,+3V3*%
X214740000Y-74410000D03*
X183225000Y-73275000D03*
X194225000Y-89700000D03*
X197467049Y-94217451D03*
X208025000Y-89600000D03*
X202850000Y-88175000D03*
X193270000Y-92730000D03*
X225040000Y-94920000D03*
X181950000Y-90050000D03*
X190550000Y-89975000D03*
%TO.N,Net-(R5-Pad1)*%
X206080000Y-94340000D03*
X203700000Y-86825000D03*
%TO.N,SCL*%
X206290576Y-95852382D03*
X187450000Y-90425000D03*
X209120000Y-78040000D03*
X209090000Y-75830000D03*
%TO.N,SDA*%
X206675000Y-96775000D03*
X185425000Y-90325000D03*
X209850000Y-76800000D03*
%TO.N,Net-(D3-Pad3)*%
X220020000Y-78850000D03*
%TD*%
D17*
%TO.N,UPDI*%
X223980000Y-91800000D02*
X220690000Y-95090000D01*
X220690000Y-95090000D02*
X210540000Y-95090000D01*
%TO.N,LIN*%
X211640000Y-69080000D02*
X224700000Y-69080000D01*
X199200000Y-81575000D02*
X199200000Y-81520000D01*
X199200000Y-81520000D02*
X211640000Y-69080000D01*
%TO.N,~{LIN_SLP}*%
X200675305Y-90900000D02*
X201825305Y-92050000D01*
X205050000Y-92050000D02*
X205075000Y-92075000D01*
X201825305Y-92050000D02*
X205050000Y-92050000D01*
X198924695Y-90900000D02*
X200675305Y-90900000D01*
X197950000Y-91675000D02*
X198149695Y-91675000D01*
X198149695Y-91675000D02*
X198924695Y-90900000D01*
%TO.N,~{LIN_WAKE}*%
X200875000Y-93275000D02*
X204900000Y-93275000D01*
X199225000Y-91625000D02*
X200875000Y-93275000D01*
X204900000Y-93275000D02*
X204925000Y-93300000D01*
%TO.N,Net-(R5-Pad1)*%
X203700000Y-88675000D02*
X203700000Y-86825000D01*
X206080000Y-94340000D02*
X206080000Y-91055000D01*
X206080000Y-91055000D02*
X203700000Y-88675000D01*
%TO.N,SCL*%
X206290576Y-95852382D02*
X201102687Y-95852382D01*
X201102687Y-95852382D02*
X201100305Y-95850000D01*
X196510000Y-91980000D02*
X189005000Y-91980000D01*
X201100305Y-95850000D02*
X200380000Y-95850000D01*
X200380000Y-95850000D02*
X196510000Y-91980000D01*
X189005000Y-91980000D02*
X187450000Y-90425000D01*
%TO.N,SDA*%
X195814293Y-93590000D02*
X199014293Y-96790000D01*
X185425000Y-90565000D02*
X188450000Y-93590000D01*
X185425000Y-90325000D02*
X185425000Y-90565000D01*
X185425000Y-90575000D02*
X185425000Y-90325000D01*
X206660000Y-96790000D02*
X206675000Y-96775000D01*
X199014293Y-96790000D02*
X206660000Y-96790000D01*
X188450000Y-93590000D02*
X195814293Y-93590000D01*
%TD*%
%TA.AperFunction,Conductor*%
%TO.N,+5V*%
G36*
X190672970Y-75123800D02*
G01*
X190741044Y-75143953D01*
X190787418Y-75197712D01*
X190797365Y-75268008D01*
X190767729Y-75332523D01*
X190748341Y-75350559D01*
X190694965Y-75390635D01*
X190540629Y-75552138D01*
X190537715Y-75556410D01*
X190537714Y-75556411D01*
X190456002Y-75676197D01*
X190414743Y-75736680D01*
X190387187Y-75796045D01*
X190323589Y-75933056D01*
X190320688Y-75939305D01*
X190260989Y-76154570D01*
X190237251Y-76376695D01*
X190237548Y-76381848D01*
X190237548Y-76381851D01*
X190243009Y-76476565D01*
X190250110Y-76599715D01*
X190251247Y-76604761D01*
X190251248Y-76604767D01*
X190271119Y-76692939D01*
X190299222Y-76817639D01*
X190383266Y-77024616D01*
X190499987Y-77215088D01*
X190646250Y-77383938D01*
X190650225Y-77387238D01*
X190650231Y-77387244D01*
X190655425Y-77391556D01*
X190695059Y-77450460D01*
X190696555Y-77521441D01*
X190659439Y-77581962D01*
X190619168Y-77606480D01*
X190511946Y-77646676D01*
X190496351Y-77655214D01*
X190394276Y-77731715D01*
X190381715Y-77744276D01*
X190305214Y-77846351D01*
X190296676Y-77861946D01*
X190251522Y-77982394D01*
X190247895Y-77997649D01*
X190242369Y-78048514D01*
X190242000Y-78055328D01*
X190242000Y-78677885D01*
X190246475Y-78693124D01*
X190247865Y-78694329D01*
X190255548Y-78696000D01*
X192939884Y-78696000D01*
X192955123Y-78691525D01*
X192956328Y-78690135D01*
X192957999Y-78682452D01*
X192957999Y-78055331D01*
X192957629Y-78048510D01*
X192952105Y-77997648D01*
X192948479Y-77982396D01*
X192903324Y-77861946D01*
X192894786Y-77846351D01*
X192818285Y-77744276D01*
X192805724Y-77731715D01*
X192703649Y-77655214D01*
X192688054Y-77646676D01*
X192577813Y-77605348D01*
X192521049Y-77562706D01*
X192496349Y-77496145D01*
X192511557Y-77426796D01*
X192533104Y-77398115D01*
X192634430Y-77297144D01*
X192634440Y-77297132D01*
X192638096Y-77293489D01*
X192659428Y-77263803D01*
X192765435Y-77116277D01*
X192768453Y-77112077D01*
X192867430Y-76911811D01*
X192932370Y-76698069D01*
X192961529Y-76476590D01*
X192961690Y-76470000D01*
X192963074Y-76413365D01*
X192963074Y-76413361D01*
X192963156Y-76410000D01*
X192944852Y-76187361D01*
X192890431Y-75970702D01*
X192801354Y-75765840D01*
X192743361Y-75676197D01*
X192682822Y-75582617D01*
X192682820Y-75582614D01*
X192680014Y-75578277D01*
X192529670Y-75413051D01*
X192525619Y-75409852D01*
X192525615Y-75409848D01*
X192453401Y-75352817D01*
X192412338Y-75294900D01*
X192409106Y-75223976D01*
X192444732Y-75162565D01*
X192507903Y-75130163D01*
X192531773Y-75127935D01*
X193333559Y-75129719D01*
X193401635Y-75149873D01*
X193448009Y-75203632D01*
X193459277Y-75256439D01*
X193427336Y-80846209D01*
X193412549Y-83434025D01*
X193410716Y-83754720D01*
X193390325Y-83822725D01*
X193336405Y-83868911D01*
X193284718Y-83880000D01*
X175706842Y-83880000D01*
X175638721Y-83859998D01*
X175592228Y-83806342D01*
X175580842Y-83754068D01*
X175580437Y-82998134D01*
X178791500Y-82998134D01*
X178798255Y-83060316D01*
X178849385Y-83196705D01*
X178936739Y-83313261D01*
X179053295Y-83400615D01*
X179189684Y-83451745D01*
X179251866Y-83458500D01*
X181048134Y-83458500D01*
X181110316Y-83451745D01*
X181246705Y-83400615D01*
X181363261Y-83313261D01*
X181450615Y-83196705D01*
X181494798Y-83078848D01*
X181537440Y-83022084D01*
X181604001Y-82997384D01*
X181673350Y-83012592D01*
X181708017Y-83040580D01*
X181733218Y-83069673D01*
X181740580Y-83076883D01*
X181904434Y-83212916D01*
X181912881Y-83218831D01*
X182096756Y-83326279D01*
X182106042Y-83330729D01*
X182305001Y-83406703D01*
X182314899Y-83409579D01*
X182418250Y-83430606D01*
X182432299Y-83429410D01*
X182436000Y-83419065D01*
X182436000Y-83418517D01*
X182944000Y-83418517D01*
X182948064Y-83432359D01*
X182961478Y-83434393D01*
X182968184Y-83433534D01*
X182978262Y-83431392D01*
X183182255Y-83370191D01*
X183191842Y-83366433D01*
X183383095Y-83272739D01*
X183391945Y-83267464D01*
X183565328Y-83143792D01*
X183573200Y-83137139D01*
X183724052Y-82986812D01*
X183730730Y-82978965D01*
X183858022Y-82801819D01*
X183859279Y-82802722D01*
X183906373Y-82759362D01*
X183976311Y-82747145D01*
X184041751Y-82774678D01*
X184069579Y-82806511D01*
X184129987Y-82905088D01*
X184276250Y-83073938D01*
X184448126Y-83216632D01*
X184641000Y-83329338D01*
X184849692Y-83409030D01*
X184854760Y-83410061D01*
X184854763Y-83410062D01*
X184949862Y-83429410D01*
X185068597Y-83453567D01*
X185073772Y-83453757D01*
X185073774Y-83453757D01*
X185286673Y-83461564D01*
X185286677Y-83461564D01*
X185291837Y-83461753D01*
X185296957Y-83461097D01*
X185296959Y-83461097D01*
X185508288Y-83434025D01*
X185508289Y-83434025D01*
X185513416Y-83433368D01*
X185518366Y-83431883D01*
X185722429Y-83370661D01*
X185722434Y-83370659D01*
X185727384Y-83369174D01*
X185927994Y-83270896D01*
X186109860Y-83141173D01*
X186268096Y-82983489D01*
X186398453Y-82802077D01*
X186399776Y-82803028D01*
X186446645Y-82759857D01*
X186516580Y-82747625D01*
X186582026Y-82775144D01*
X186609875Y-82806994D01*
X186669987Y-82905088D01*
X186816250Y-83073938D01*
X186988126Y-83216632D01*
X187181000Y-83329338D01*
X187389692Y-83409030D01*
X187394760Y-83410061D01*
X187394763Y-83410062D01*
X187489862Y-83429410D01*
X187608597Y-83453567D01*
X187613772Y-83453757D01*
X187613774Y-83453757D01*
X187826673Y-83461564D01*
X187826677Y-83461564D01*
X187831837Y-83461753D01*
X187836957Y-83461097D01*
X187836959Y-83461097D01*
X188048288Y-83434025D01*
X188048289Y-83434025D01*
X188053416Y-83433368D01*
X188058366Y-83431883D01*
X188262429Y-83370661D01*
X188262434Y-83370659D01*
X188267384Y-83369174D01*
X188467994Y-83270896D01*
X188649860Y-83141173D01*
X188808096Y-82983489D01*
X188938453Y-82802077D01*
X188951995Y-82774678D01*
X189035136Y-82606453D01*
X189035137Y-82606451D01*
X189037430Y-82601811D01*
X189102370Y-82388069D01*
X189131529Y-82166590D01*
X189133156Y-82100000D01*
X189114852Y-81877361D01*
X189060431Y-81660702D01*
X188971354Y-81455840D01*
X188850014Y-81268277D01*
X188699670Y-81103051D01*
X188695619Y-81099852D01*
X188695615Y-81099848D01*
X188528414Y-80967800D01*
X188528410Y-80967798D01*
X188524359Y-80964598D01*
X188488028Y-80944542D01*
X188472136Y-80935769D01*
X188328789Y-80856638D01*
X188323920Y-80854914D01*
X188323916Y-80854912D01*
X188123087Y-80783795D01*
X188123083Y-80783794D01*
X188118212Y-80782069D01*
X188113119Y-80781162D01*
X188113116Y-80781161D01*
X187903373Y-80743800D01*
X187903367Y-80743799D01*
X187898284Y-80742894D01*
X187824452Y-80741992D01*
X187680081Y-80740228D01*
X187680079Y-80740228D01*
X187674911Y-80740165D01*
X187454091Y-80773955D01*
X187241756Y-80843357D01*
X187043607Y-80946507D01*
X187039474Y-80949610D01*
X187039471Y-80949612D01*
X186869100Y-81077530D01*
X186864965Y-81080635D01*
X186710629Y-81242138D01*
X186603201Y-81399621D01*
X186548293Y-81444621D01*
X186477768Y-81452792D01*
X186414021Y-81421538D01*
X186393324Y-81397054D01*
X186312822Y-81272617D01*
X186312820Y-81272614D01*
X186310014Y-81268277D01*
X186159670Y-81103051D01*
X186155619Y-81099852D01*
X186155615Y-81099848D01*
X185988414Y-80967800D01*
X185988410Y-80967798D01*
X185984359Y-80964598D01*
X185948028Y-80944542D01*
X185932136Y-80935769D01*
X185788789Y-80856638D01*
X185783920Y-80854914D01*
X185783916Y-80854912D01*
X185583087Y-80783795D01*
X185583083Y-80783794D01*
X185578212Y-80782069D01*
X185573119Y-80781162D01*
X185573116Y-80781161D01*
X185363373Y-80743800D01*
X185363367Y-80743799D01*
X185358284Y-80742894D01*
X185284452Y-80741992D01*
X185140081Y-80740228D01*
X185140079Y-80740228D01*
X185134911Y-80740165D01*
X184914091Y-80773955D01*
X184701756Y-80843357D01*
X184503607Y-80946507D01*
X184499474Y-80949610D01*
X184499471Y-80949612D01*
X184329100Y-81077530D01*
X184324965Y-81080635D01*
X184170629Y-81242138D01*
X184063204Y-81399618D01*
X184062898Y-81400066D01*
X184007987Y-81445069D01*
X183937462Y-81453240D01*
X183873715Y-81421986D01*
X183853018Y-81397502D01*
X183772426Y-81272926D01*
X183766136Y-81264757D01*
X183622806Y-81107240D01*
X183615273Y-81100215D01*
X183448139Y-80968222D01*
X183439552Y-80962517D01*
X183253117Y-80859599D01*
X183243705Y-80855369D01*
X183042959Y-80784280D01*
X183032988Y-80781646D01*
X182961837Y-80768972D01*
X182948540Y-80770432D01*
X182944000Y-80784989D01*
X182944000Y-83418517D01*
X182436000Y-83418517D01*
X182436000Y-80783102D01*
X182432082Y-80769758D01*
X182417806Y-80767771D01*
X182379324Y-80773660D01*
X182369288Y-80776051D01*
X182166868Y-80842212D01*
X182157359Y-80846209D01*
X181968463Y-80944542D01*
X181959738Y-80950036D01*
X181789433Y-81077905D01*
X181781726Y-81084748D01*
X181704478Y-81165584D01*
X181642954Y-81201014D01*
X181572042Y-81197557D01*
X181514255Y-81156311D01*
X181495402Y-81122763D01*
X181453767Y-81011703D01*
X181450615Y-81003295D01*
X181363261Y-80886739D01*
X181246705Y-80799385D01*
X181110316Y-80748255D01*
X181048134Y-80741500D01*
X179251866Y-80741500D01*
X179189684Y-80748255D01*
X179053295Y-80799385D01*
X178936739Y-80886739D01*
X178849385Y-81003295D01*
X178798255Y-81139684D01*
X178791500Y-81201866D01*
X178791500Y-82998134D01*
X175580437Y-82998134D01*
X175578669Y-79700000D01*
X185996496Y-79700000D01*
X185997186Y-79706565D01*
X186012418Y-79851486D01*
X186016458Y-79889928D01*
X186075473Y-80071556D01*
X186170960Y-80236944D01*
X186175378Y-80241851D01*
X186175379Y-80241852D01*
X186234605Y-80307629D01*
X186298747Y-80378866D01*
X186453248Y-80491118D01*
X186459276Y-80493802D01*
X186459278Y-80493803D01*
X186621681Y-80566109D01*
X186627712Y-80568794D01*
X186721113Y-80588647D01*
X186808056Y-80607128D01*
X186808061Y-80607128D01*
X186814513Y-80608500D01*
X187005487Y-80608500D01*
X187011939Y-80607128D01*
X187011944Y-80607128D01*
X187098888Y-80588647D01*
X187192288Y-80568794D01*
X187198319Y-80566109D01*
X187360722Y-80493803D01*
X187360724Y-80493802D01*
X187366752Y-80491118D01*
X187521253Y-80378866D01*
X187585395Y-80307629D01*
X187644621Y-80241852D01*
X187644622Y-80241851D01*
X187649040Y-80236944D01*
X187744527Y-80071556D01*
X187803542Y-79889928D01*
X187807583Y-79851486D01*
X187808299Y-79844669D01*
X190242001Y-79844669D01*
X190242371Y-79851490D01*
X190247895Y-79902352D01*
X190251521Y-79917604D01*
X190296676Y-80038054D01*
X190305214Y-80053649D01*
X190381715Y-80155724D01*
X190394276Y-80168285D01*
X190496351Y-80244786D01*
X190511946Y-80253324D01*
X190632394Y-80298478D01*
X190647649Y-80302105D01*
X190698514Y-80307631D01*
X190705328Y-80308000D01*
X191327885Y-80308000D01*
X191343124Y-80303525D01*
X191344329Y-80302135D01*
X191346000Y-80294452D01*
X191346000Y-80289884D01*
X191854000Y-80289884D01*
X191858475Y-80305123D01*
X191859865Y-80306328D01*
X191867548Y-80307999D01*
X192494669Y-80307999D01*
X192501490Y-80307629D01*
X192552352Y-80302105D01*
X192567604Y-80298479D01*
X192688054Y-80253324D01*
X192703649Y-80244786D01*
X192805724Y-80168285D01*
X192818285Y-80155724D01*
X192894786Y-80053649D01*
X192903324Y-80038054D01*
X192948478Y-79917606D01*
X192952105Y-79902351D01*
X192957631Y-79851486D01*
X192958000Y-79844672D01*
X192958000Y-79222115D01*
X192953525Y-79206876D01*
X192952135Y-79205671D01*
X192944452Y-79204000D01*
X191872115Y-79204000D01*
X191856876Y-79208475D01*
X191855671Y-79209865D01*
X191854000Y-79217548D01*
X191854000Y-80289884D01*
X191346000Y-80289884D01*
X191346000Y-79222115D01*
X191341525Y-79206876D01*
X191340135Y-79205671D01*
X191332452Y-79204000D01*
X190260116Y-79204000D01*
X190244877Y-79208475D01*
X190243672Y-79209865D01*
X190242001Y-79217548D01*
X190242001Y-79844669D01*
X187808299Y-79844669D01*
X187822814Y-79706565D01*
X187823504Y-79700000D01*
X187803542Y-79510072D01*
X187744527Y-79328444D01*
X187726341Y-79296944D01*
X187675263Y-79208475D01*
X187649040Y-79163056D01*
X187521253Y-79021134D01*
X187366752Y-78908882D01*
X187360724Y-78906198D01*
X187360722Y-78906197D01*
X187198319Y-78833891D01*
X187198318Y-78833891D01*
X187192288Y-78831206D01*
X187098888Y-78811353D01*
X187011944Y-78792872D01*
X187011939Y-78792872D01*
X187005487Y-78791500D01*
X186814513Y-78791500D01*
X186808061Y-78792872D01*
X186808056Y-78792872D01*
X186721113Y-78811353D01*
X186627712Y-78831206D01*
X186621682Y-78833891D01*
X186621681Y-78833891D01*
X186459278Y-78906197D01*
X186459276Y-78906198D01*
X186453248Y-78908882D01*
X186298747Y-79021134D01*
X186170960Y-79163056D01*
X186144737Y-79208475D01*
X186093660Y-79296944D01*
X186075473Y-79328444D01*
X186016458Y-79510072D01*
X185996496Y-79700000D01*
X175578669Y-79700000D01*
X175578165Y-78760000D01*
X177306496Y-78760000D01*
X177326458Y-78949928D01*
X177385473Y-79131556D01*
X177388776Y-79137278D01*
X177388777Y-79137279D01*
X177406961Y-79168774D01*
X177480960Y-79296944D01*
X177608747Y-79438866D01*
X177763248Y-79551118D01*
X177769276Y-79553802D01*
X177769278Y-79553803D01*
X177931681Y-79626109D01*
X177937712Y-79628794D01*
X178031113Y-79648647D01*
X178118056Y-79667128D01*
X178118061Y-79667128D01*
X178124513Y-79668500D01*
X178315487Y-79668500D01*
X178321939Y-79667128D01*
X178321944Y-79667128D01*
X178408888Y-79648647D01*
X178502288Y-79628794D01*
X178508319Y-79626109D01*
X178670722Y-79553803D01*
X178670724Y-79553802D01*
X178676752Y-79551118D01*
X178831253Y-79438866D01*
X178959040Y-79296944D01*
X179033039Y-79168774D01*
X179051223Y-79137279D01*
X179051224Y-79137278D01*
X179054527Y-79131556D01*
X179113542Y-78949928D01*
X179133504Y-78760000D01*
X179126161Y-78690135D01*
X179114232Y-78576635D01*
X179114232Y-78576633D01*
X179113542Y-78570072D01*
X179054527Y-78388444D01*
X178959040Y-78223056D01*
X178831253Y-78081134D01*
X178716345Y-77997648D01*
X178682094Y-77972763D01*
X178682093Y-77972762D01*
X178676752Y-77968882D01*
X178670724Y-77966198D01*
X178670722Y-77966197D01*
X178508319Y-77893891D01*
X178508318Y-77893891D01*
X178502288Y-77891206D01*
X178408888Y-77871353D01*
X178321944Y-77852872D01*
X178321939Y-77852872D01*
X178315487Y-77851500D01*
X178124513Y-77851500D01*
X178118061Y-77852872D01*
X178118056Y-77852872D01*
X178031112Y-77871353D01*
X177937712Y-77891206D01*
X177931682Y-77893891D01*
X177931681Y-77893891D01*
X177769278Y-77966197D01*
X177769276Y-77966198D01*
X177763248Y-77968882D01*
X177757907Y-77972762D01*
X177757906Y-77972763D01*
X177723655Y-77997648D01*
X177608747Y-78081134D01*
X177480960Y-78223056D01*
X177385473Y-78388444D01*
X177326458Y-78570072D01*
X177325768Y-78576633D01*
X177325768Y-78576635D01*
X177313839Y-78690135D01*
X177306496Y-78760000D01*
X175578165Y-78760000D01*
X175576938Y-76470000D01*
X178206496Y-76470000D01*
X178226458Y-76659928D01*
X178285473Y-76841556D01*
X178380960Y-77006944D01*
X178508747Y-77148866D01*
X178663248Y-77261118D01*
X178669276Y-77263802D01*
X178669278Y-77263803D01*
X178744164Y-77297144D01*
X178837712Y-77338794D01*
X178931112Y-77358647D01*
X179018056Y-77377128D01*
X179018061Y-77377128D01*
X179024513Y-77378500D01*
X179215487Y-77378500D01*
X179221939Y-77377128D01*
X179221944Y-77377128D01*
X179308888Y-77358647D01*
X179402288Y-77338794D01*
X179495836Y-77297144D01*
X179570722Y-77263803D01*
X179570724Y-77263802D01*
X179576752Y-77261118D01*
X179731253Y-77148866D01*
X179859040Y-77006944D01*
X179954527Y-76841556D01*
X180013542Y-76659928D01*
X180033504Y-76470000D01*
X180032814Y-76463435D01*
X180014232Y-76286635D01*
X180014232Y-76286633D01*
X180013542Y-76280072D01*
X179954527Y-76098444D01*
X179859040Y-75933056D01*
X179731253Y-75791134D01*
X179576752Y-75678882D01*
X179570724Y-75676198D01*
X179570722Y-75676197D01*
X179408319Y-75603891D01*
X179408318Y-75603891D01*
X179402288Y-75601206D01*
X179308888Y-75581353D01*
X179221944Y-75562872D01*
X179221939Y-75562872D01*
X179215487Y-75561500D01*
X179024513Y-75561500D01*
X179018061Y-75562872D01*
X179018056Y-75562872D01*
X178931112Y-75581353D01*
X178837712Y-75601206D01*
X178831682Y-75603891D01*
X178831681Y-75603891D01*
X178669278Y-75676197D01*
X178669276Y-75676198D01*
X178663248Y-75678882D01*
X178508747Y-75791134D01*
X178380960Y-75933056D01*
X178285473Y-76098444D01*
X178226458Y-76280072D01*
X178225768Y-76286633D01*
X178225768Y-76286635D01*
X178207186Y-76463435D01*
X178206496Y-76470000D01*
X175576938Y-76470000D01*
X175576266Y-75216563D01*
X175596232Y-75148431D01*
X175649862Y-75101909D01*
X175702546Y-75090495D01*
X190672970Y-75123800D01*
G37*
%TD.AperFunction*%
%TD*%
M02*
