%TF.GenerationSoftware,KiCad,Pcbnew,6.0.11-2627ca5db0~126~ubuntu22.04.1*%
%TF.CreationDate,2023-03-03T14:52:31-05:00*%
%TF.ProjectId,lin-pump-control,6c696e2d-7075-46d7-902d-636f6e74726f,1.0*%
%TF.SameCoordinates,Original*%
%TF.FileFunction,Legend,Bot*%
%TF.FilePolarity,Positive*%
%FSLAX46Y46*%
G04 Gerber Fmt 4.6, Leading zero omitted, Abs format (unit mm)*
G04 Created by KiCad (PCBNEW 6.0.11-2627ca5db0~126~ubuntu22.04.1) date 2023-03-03 14:52:31*
%MOMM*%
%LPD*%
G01*
G04 APERTURE LIST*
%ADD10C,0.150000*%
%ADD11C,0.120000*%
G04 APERTURE END LIST*
D10*
%TO.C,R6*%
X218236666Y-97382380D02*
X218570000Y-96906190D01*
X218808095Y-97382380D02*
X218808095Y-96382380D01*
X218427142Y-96382380D01*
X218331904Y-96430000D01*
X218284285Y-96477619D01*
X218236666Y-96572857D01*
X218236666Y-96715714D01*
X218284285Y-96810952D01*
X218331904Y-96858571D01*
X218427142Y-96906190D01*
X218808095Y-96906190D01*
X217379523Y-96382380D02*
X217570000Y-96382380D01*
X217665238Y-96430000D01*
X217712857Y-96477619D01*
X217808095Y-96620476D01*
X217855714Y-96810952D01*
X217855714Y-97191904D01*
X217808095Y-97287142D01*
X217760476Y-97334761D01*
X217665238Y-97382380D01*
X217474761Y-97382380D01*
X217379523Y-97334761D01*
X217331904Y-97287142D01*
X217284285Y-97191904D01*
X217284285Y-96953809D01*
X217331904Y-96858571D01*
X217379523Y-96810952D01*
X217474761Y-96763333D01*
X217665238Y-96763333D01*
X217760476Y-96810952D01*
X217808095Y-96858571D01*
X217855714Y-96953809D01*
%TO.C,R3*%
X196916666Y-88402380D02*
X197250000Y-87926190D01*
X197488095Y-88402380D02*
X197488095Y-87402380D01*
X197107142Y-87402380D01*
X197011904Y-87450000D01*
X196964285Y-87497619D01*
X196916666Y-87592857D01*
X196916666Y-87735714D01*
X196964285Y-87830952D01*
X197011904Y-87878571D01*
X197107142Y-87926190D01*
X197488095Y-87926190D01*
X196583333Y-87402380D02*
X195964285Y-87402380D01*
X196297619Y-87783333D01*
X196154761Y-87783333D01*
X196059523Y-87830952D01*
X196011904Y-87878571D01*
X195964285Y-87973809D01*
X195964285Y-88211904D01*
X196011904Y-88307142D01*
X196059523Y-88354761D01*
X196154761Y-88402380D01*
X196440476Y-88402380D01*
X196535714Y-88354761D01*
X196583333Y-88307142D01*
%TO.C,R7*%
X183566666Y-86827380D02*
X183900000Y-86351190D01*
X184138095Y-86827380D02*
X184138095Y-85827380D01*
X183757142Y-85827380D01*
X183661904Y-85875000D01*
X183614285Y-85922619D01*
X183566666Y-86017857D01*
X183566666Y-86160714D01*
X183614285Y-86255952D01*
X183661904Y-86303571D01*
X183757142Y-86351190D01*
X184138095Y-86351190D01*
X183233333Y-85827380D02*
X182566666Y-85827380D01*
X182995238Y-86827380D01*
%TO.C,R4*%
X200916666Y-88477380D02*
X201250000Y-88001190D01*
X201488095Y-88477380D02*
X201488095Y-87477380D01*
X201107142Y-87477380D01*
X201011904Y-87525000D01*
X200964285Y-87572619D01*
X200916666Y-87667857D01*
X200916666Y-87810714D01*
X200964285Y-87905952D01*
X201011904Y-87953571D01*
X201107142Y-88001190D01*
X201488095Y-88001190D01*
X200059523Y-87810714D02*
X200059523Y-88477380D01*
X200297619Y-87429761D02*
X200535714Y-88144047D01*
X199916666Y-88144047D01*
%TO.C,C2*%
X220332142Y-67008333D02*
X220379761Y-66960714D01*
X220427380Y-66817857D01*
X220427380Y-66722619D01*
X220379761Y-66579761D01*
X220284523Y-66484523D01*
X220189285Y-66436904D01*
X219998809Y-66389285D01*
X219855952Y-66389285D01*
X219665476Y-66436904D01*
X219570238Y-66484523D01*
X219475000Y-66579761D01*
X219427380Y-66722619D01*
X219427380Y-66817857D01*
X219475000Y-66960714D01*
X219522619Y-67008333D01*
X219522619Y-67389285D02*
X219475000Y-67436904D01*
X219427380Y-67532142D01*
X219427380Y-67770238D01*
X219475000Y-67865476D01*
X219522619Y-67913095D01*
X219617857Y-67960714D01*
X219713095Y-67960714D01*
X219855952Y-67913095D01*
X220427380Y-67341666D01*
X220427380Y-67960714D01*
%TO.C,R8*%
X187541666Y-86877380D02*
X187875000Y-86401190D01*
X188113095Y-86877380D02*
X188113095Y-85877380D01*
X187732142Y-85877380D01*
X187636904Y-85925000D01*
X187589285Y-85972619D01*
X187541666Y-86067857D01*
X187541666Y-86210714D01*
X187589285Y-86305952D01*
X187636904Y-86353571D01*
X187732142Y-86401190D01*
X188113095Y-86401190D01*
X186970238Y-86305952D02*
X187065476Y-86258333D01*
X187113095Y-86210714D01*
X187160714Y-86115476D01*
X187160714Y-86067857D01*
X187113095Y-85972619D01*
X187065476Y-85925000D01*
X186970238Y-85877380D01*
X186779761Y-85877380D01*
X186684523Y-85925000D01*
X186636904Y-85972619D01*
X186589285Y-86067857D01*
X186589285Y-86115476D01*
X186636904Y-86210714D01*
X186684523Y-86258333D01*
X186779761Y-86305952D01*
X186970238Y-86305952D01*
X187065476Y-86353571D01*
X187113095Y-86401190D01*
X187160714Y-86496428D01*
X187160714Y-86686904D01*
X187113095Y-86782142D01*
X187065476Y-86829761D01*
X186970238Y-86877380D01*
X186779761Y-86877380D01*
X186684523Y-86829761D01*
X186636904Y-86782142D01*
X186589285Y-86686904D01*
X186589285Y-86496428D01*
X186636904Y-86401190D01*
X186684523Y-86353571D01*
X186779761Y-86305952D01*
%TO.C,R9*%
X183466666Y-90552380D02*
X183800000Y-90076190D01*
X184038095Y-90552380D02*
X184038095Y-89552380D01*
X183657142Y-89552380D01*
X183561904Y-89600000D01*
X183514285Y-89647619D01*
X183466666Y-89742857D01*
X183466666Y-89885714D01*
X183514285Y-89980952D01*
X183561904Y-90028571D01*
X183657142Y-90076190D01*
X184038095Y-90076190D01*
X182990476Y-90552380D02*
X182800000Y-90552380D01*
X182704761Y-90504761D01*
X182657142Y-90457142D01*
X182561904Y-90314285D01*
X182514285Y-90123809D01*
X182514285Y-89742857D01*
X182561904Y-89647619D01*
X182609523Y-89600000D01*
X182704761Y-89552380D01*
X182895238Y-89552380D01*
X182990476Y-89600000D01*
X183038095Y-89647619D01*
X183085714Y-89742857D01*
X183085714Y-89980952D01*
X183038095Y-90076190D01*
X182990476Y-90123809D01*
X182895238Y-90171428D01*
X182704761Y-90171428D01*
X182609523Y-90123809D01*
X182561904Y-90076190D01*
X182514285Y-89980952D01*
%TO.C,D3*%
X215502380Y-79671904D02*
X214502380Y-79671904D01*
X214502380Y-79910000D01*
X214550000Y-80052857D01*
X214645238Y-80148095D01*
X214740476Y-80195714D01*
X214930952Y-80243333D01*
X215073809Y-80243333D01*
X215264285Y-80195714D01*
X215359523Y-80148095D01*
X215454761Y-80052857D01*
X215502380Y-79910000D01*
X215502380Y-79671904D01*
X214502380Y-80576666D02*
X214502380Y-81195714D01*
X214883333Y-80862380D01*
X214883333Y-81005238D01*
X214930952Y-81100476D01*
X214978571Y-81148095D01*
X215073809Y-81195714D01*
X215311904Y-81195714D01*
X215407142Y-81148095D01*
X215454761Y-81100476D01*
X215502380Y-81005238D01*
X215502380Y-80719523D01*
X215454761Y-80624285D01*
X215407142Y-80576666D01*
%TO.C,JP1*%
X222273333Y-96402380D02*
X222273333Y-97116666D01*
X222320952Y-97259523D01*
X222416190Y-97354761D01*
X222559047Y-97402380D01*
X222654285Y-97402380D01*
X221797142Y-97402380D02*
X221797142Y-96402380D01*
X221416190Y-96402380D01*
X221320952Y-96450000D01*
X221273333Y-96497619D01*
X221225714Y-96592857D01*
X221225714Y-96735714D01*
X221273333Y-96830952D01*
X221320952Y-96878571D01*
X221416190Y-96926190D01*
X221797142Y-96926190D01*
X220273333Y-97402380D02*
X220844761Y-97402380D01*
X220559047Y-97402380D02*
X220559047Y-96402380D01*
X220654285Y-96545238D01*
X220749523Y-96640476D01*
X220844761Y-96688095D01*
%TO.C,R10*%
X190167857Y-87227380D02*
X190501190Y-86751190D01*
X190739285Y-87227380D02*
X190739285Y-86227380D01*
X190358333Y-86227380D01*
X190263095Y-86275000D01*
X190215476Y-86322619D01*
X190167857Y-86417857D01*
X190167857Y-86560714D01*
X190215476Y-86655952D01*
X190263095Y-86703571D01*
X190358333Y-86751190D01*
X190739285Y-86751190D01*
X189215476Y-87227380D02*
X189786904Y-87227380D01*
X189501190Y-87227380D02*
X189501190Y-86227380D01*
X189596428Y-86370238D01*
X189691666Y-86465476D01*
X189786904Y-86513095D01*
X188596428Y-86227380D02*
X188501190Y-86227380D01*
X188405952Y-86275000D01*
X188358333Y-86322619D01*
X188310714Y-86417857D01*
X188263095Y-86608333D01*
X188263095Y-86846428D01*
X188310714Y-87036904D01*
X188358333Y-87132142D01*
X188405952Y-87179761D01*
X188501190Y-87227380D01*
X188596428Y-87227380D01*
X188691666Y-87179761D01*
X188739285Y-87132142D01*
X188786904Y-87036904D01*
X188834523Y-86846428D01*
X188834523Y-86608333D01*
X188786904Y-86417857D01*
X188739285Y-86322619D01*
X188691666Y-86275000D01*
X188596428Y-86227380D01*
%TO.C,D2*%
X214528095Y-97662380D02*
X214528095Y-96662380D01*
X214290000Y-96662380D01*
X214147142Y-96710000D01*
X214051904Y-96805238D01*
X214004285Y-96900476D01*
X213956666Y-97090952D01*
X213956666Y-97233809D01*
X214004285Y-97424285D01*
X214051904Y-97519523D01*
X214147142Y-97614761D01*
X214290000Y-97662380D01*
X214528095Y-97662380D01*
X213575714Y-96757619D02*
X213528095Y-96710000D01*
X213432857Y-96662380D01*
X213194761Y-96662380D01*
X213099523Y-96710000D01*
X213051904Y-96757619D01*
X213004285Y-96852857D01*
X213004285Y-96948095D01*
X213051904Y-97090952D01*
X213623333Y-97662380D01*
X213004285Y-97662380D01*
%TO.C,R14*%
X222672380Y-80707142D02*
X222196190Y-80373809D01*
X222672380Y-80135714D02*
X221672380Y-80135714D01*
X221672380Y-80516666D01*
X221720000Y-80611904D01*
X221767619Y-80659523D01*
X221862857Y-80707142D01*
X222005714Y-80707142D01*
X222100952Y-80659523D01*
X222148571Y-80611904D01*
X222196190Y-80516666D01*
X222196190Y-80135714D01*
X222672380Y-81659523D02*
X222672380Y-81088095D01*
X222672380Y-81373809D02*
X221672380Y-81373809D01*
X221815238Y-81278571D01*
X221910476Y-81183333D01*
X221958095Y-81088095D01*
X222005714Y-82516666D02*
X222672380Y-82516666D01*
X221624761Y-82278571D02*
X222339047Y-82040476D01*
X222339047Y-82659523D01*
D11*
%TO.C,R6*%
X217712936Y-94315000D02*
X218167064Y-94315000D01*
X217712936Y-95785000D02*
X218167064Y-95785000D01*
%TO.C,R3*%
X196422936Y-89015000D02*
X196877064Y-89015000D01*
X196422936Y-90485000D02*
X196877064Y-90485000D01*
%TO.C,R7*%
X183172936Y-83990000D02*
X183627064Y-83990000D01*
X183172936Y-85460000D02*
X183627064Y-85460000D01*
%TO.C,R4*%
X200652064Y-89015000D02*
X200197936Y-89015000D01*
X200652064Y-90485000D02*
X200197936Y-90485000D01*
%TO.C,C2*%
X222510000Y-67973752D02*
X222510000Y-67451248D01*
X221040000Y-67973752D02*
X221040000Y-67451248D01*
%TO.C,R8*%
X187147936Y-85510000D02*
X187602064Y-85510000D01*
X187147936Y-84040000D02*
X187602064Y-84040000D01*
%TO.C,R9*%
X183072936Y-87715000D02*
X183527064Y-87715000D01*
X183072936Y-89185000D02*
X183527064Y-89185000D01*
%TO.C,D3*%
X217160000Y-80510000D02*
X216500000Y-80510000D01*
X216500000Y-81920000D02*
X216500000Y-80510000D01*
X218820000Y-80510000D02*
X218160000Y-80510000D01*
X218820000Y-80510000D02*
X218820000Y-82540000D01*
%TO.C,JP1*%
X223575000Y-95900000D02*
X223575000Y-93900000D01*
X220775000Y-93900000D02*
X220775000Y-95900000D01*
X220775000Y-95900000D02*
X223575000Y-95900000D01*
X223575000Y-93900000D02*
X220775000Y-93900000D01*
%TO.C,R10*%
X189752064Y-89160000D02*
X189297936Y-89160000D01*
X189752064Y-87690000D02*
X189297936Y-87690000D01*
%TO.C,D2*%
X215570000Y-94110000D02*
X215570000Y-96110000D01*
X215570000Y-94110000D02*
X211670000Y-94110000D01*
X215570000Y-96110000D02*
X211670000Y-96110000D01*
%TO.C,R14*%
X219435000Y-81072936D02*
X219435000Y-81527064D01*
X220905000Y-81072936D02*
X220905000Y-81527064D01*
%TD*%
M02*
