%TF.GenerationSoftware,KiCad,Pcbnew,6.0.11-2627ca5db0~126~ubuntu22.04.1*%
%TF.CreationDate,2023-02-20T01:23:50-05:00*%
%TF.ProjectId,lin-pump-control,6c696e2d-7075-46d7-902d-636f6e74726f,1.0*%
%TF.SameCoordinates,Original*%
%TF.FileFunction,Copper,L4,Bot*%
%TF.FilePolarity,Positive*%
%FSLAX46Y46*%
G04 Gerber Fmt 4.6, Leading zero omitted, Abs format (unit mm)*
G04 Created by KiCad (PCBNEW 6.0.11-2627ca5db0~126~ubuntu22.04.1) date 2023-02-20 01:23:50*
%MOMM*%
%LPD*%
G01*
G04 APERTURE LIST*
G04 Aperture macros list*
%AMRoundRect*
0 Rectangle with rounded corners*
0 $1 Rounding radius*
0 $2 $3 $4 $5 $6 $7 $8 $9 X,Y pos of 4 corners*
0 Add a 4 corners polygon primitive as box body*
4,1,4,$2,$3,$4,$5,$6,$7,$8,$9,$2,$3,0*
0 Add four circle primitives for the rounded corners*
1,1,$1+$1,$2,$3*
1,1,$1+$1,$4,$5*
1,1,$1+$1,$6,$7*
1,1,$1+$1,$8,$9*
0 Add four rect primitives between the rounded corners*
20,1,$1+$1,$2,$3,$4,$5,0*
20,1,$1+$1,$4,$5,$6,$7,0*
20,1,$1+$1,$6,$7,$8,$9,0*
20,1,$1+$1,$8,$9,$2,$3,0*%
%AMFreePoly0*
4,1,6,1.000000,0.000000,0.500000,-0.750000,-0.500000,-0.750000,-0.500000,0.750000,0.500000,0.750000,1.000000,0.000000,1.000000,0.000000,$1*%
%AMFreePoly1*
4,1,6,0.500000,-0.750000,-0.650000,-0.750000,-0.150000,0.000000,-0.650000,0.750000,0.500000,0.750000,0.500000,-0.750000,0.500000,-0.750000,$1*%
G04 Aperture macros list end*
%TA.AperFunction,SMDPad,CuDef*%
%ADD10RoundRect,0.250000X-0.450000X0.350000X-0.450000X-0.350000X0.450000X-0.350000X0.450000X0.350000X0*%
%TD*%
%TA.AperFunction,ComponentPad*%
%ADD11C,0.500000*%
%TD*%
%TA.AperFunction,SMDPad,CuDef*%
%ADD12R,2.400000X3.200000*%
%TD*%
%TA.AperFunction,ComponentPad*%
%ADD13R,2.100000X2.100000*%
%TD*%
%TA.AperFunction,ComponentPad*%
%ADD14C,2.100000*%
%TD*%
%TA.AperFunction,ComponentPad*%
%ADD15R,1.700000X1.700000*%
%TD*%
%TA.AperFunction,ComponentPad*%
%ADD16O,1.700000X1.700000*%
%TD*%
%TA.AperFunction,ComponentPad*%
%ADD17R,1.879600X1.879600*%
%TD*%
%TA.AperFunction,ComponentPad*%
%ADD18C,1.879600*%
%TD*%
%TA.AperFunction,SMDPad,CuDef*%
%ADD19RoundRect,0.250000X-0.350000X-0.450000X0.350000X-0.450000X0.350000X0.450000X-0.350000X0.450000X0*%
%TD*%
%TA.AperFunction,SMDPad,CuDef*%
%ADD20FreePoly0,90.000000*%
%TD*%
%TA.AperFunction,SMDPad,CuDef*%
%ADD21FreePoly1,90.000000*%
%TD*%
%TA.AperFunction,SMDPad,CuDef*%
%ADD22RoundRect,0.250000X0.350000X0.450000X-0.350000X0.450000X-0.350000X-0.450000X0.350000X-0.450000X0*%
%TD*%
%TA.AperFunction,SMDPad,CuDef*%
%ADD23RoundRect,0.250000X0.475000X-0.337500X0.475000X0.337500X-0.475000X0.337500X-0.475000X-0.337500X0*%
%TD*%
%TA.AperFunction,SMDPad,CuDef*%
%ADD24RoundRect,0.250000X0.450000X-0.350000X0.450000X0.350000X-0.450000X0.350000X-0.450000X-0.350000X0*%
%TD*%
%TA.AperFunction,SMDPad,CuDef*%
%ADD25RoundRect,0.250000X0.337500X0.475000X-0.337500X0.475000X-0.337500X-0.475000X0.337500X-0.475000X0*%
%TD*%
%TA.AperFunction,SMDPad,CuDef*%
%ADD26RoundRect,0.250000X-0.337500X-0.475000X0.337500X-0.475000X0.337500X0.475000X-0.337500X0.475000X0*%
%TD*%
%TA.AperFunction,ViaPad*%
%ADD27C,0.800000*%
%TD*%
%TA.AperFunction,Conductor*%
%ADD28C,0.250000*%
%TD*%
G04 APERTURE END LIST*
D10*
%TO.P,R22,1*%
%TO.N,PUMP+*%
X222100000Y-75100000D03*
%TO.P,R22,2*%
%TO.N,GND*%
X222100000Y-77100000D03*
%TD*%
D11*
%TO.P,U5,9,GND*%
%TO.N,GND*%
X200150000Y-71850000D03*
X198250000Y-73200000D03*
X198250000Y-74550000D03*
X200150000Y-73200000D03*
X200150000Y-74550000D03*
D12*
X199200000Y-73200000D03*
D11*
X198250000Y-71850000D03*
%TD*%
D13*
%TO.P,J4,1,Pin_1*%
%TO.N,PUMP+*%
X224700000Y-75125000D03*
D14*
%TO.P,J4,2,Pin_2*%
%TO.N,GND*%
X224700000Y-77665000D03*
%TD*%
D15*
%TO.P,J2,1,Pin_1*%
%TO.N,GND*%
X180150000Y-82100000D03*
D16*
%TO.P,J2,2,Pin_2*%
%TO.N,+5V*%
X182690000Y-82100000D03*
%TO.P,J2,3,Pin_3*%
%TO.N,SDA5V*%
X185230000Y-82100000D03*
%TO.P,J2,4,Pin_4*%
%TO.N,SCL5V*%
X187770000Y-82100000D03*
%TD*%
D13*
%TO.P,J3,1,Pin_1*%
%TO.N,+BATT*%
X224700000Y-64000000D03*
D14*
%TO.P,J3,2,Pin_2*%
%TO.N,GND*%
X224700000Y-66540000D03*
%TO.P,J3,3,Pin_3*%
%TO.N,LIN*%
X224700000Y-69080000D03*
%TD*%
D17*
%TO.P,J1,1,GND*%
%TO.N,GND*%
X226520000Y-91800000D03*
D18*
%TO.P,J1,2,CTS*%
%TO.N,unconnected-(J1-Pad2)*%
X223980000Y-91800000D03*
%TO.P,J1,3,VCC*%
%TO.N,Net-(J1-Pad3)*%
X221440000Y-91800000D03*
%TO.P,J1,4,TXD*%
%TO.N,Net-(J1-Pad4)*%
X218900000Y-91800000D03*
%TO.P,J1,5,RXD*%
%TO.N,UPDI*%
X216360000Y-91800000D03*
%TO.P,J1,6,RTS*%
%TO.N,unconnected-(J1-Pad6)*%
X213820000Y-91800000D03*
%TD*%
D19*
%TO.P,R3,1*%
%TO.N,+3V3*%
X195650000Y-89750000D03*
%TO.P,R3,2*%
%TO.N,~{LIN_SLP}*%
X197650000Y-89750000D03*
%TD*%
D10*
%TO.P,R18,1*%
%TO.N,Net-(R17-Pad2)*%
X196550000Y-75350000D03*
%TO.P,R18,2*%
%TO.N,GND*%
X196550000Y-77350000D03*
%TD*%
D20*
%TO.P,JP2,1,A*%
%TO.N,GND*%
X194075000Y-97725000D03*
D21*
%TO.P,JP2,2,B*%
%TO.N,Net-(JP2-Pad2)*%
X194075000Y-96275000D03*
%TD*%
D19*
%TO.P,R7,1*%
%TO.N,+5V*%
X182400000Y-84725000D03*
%TO.P,R7,2*%
%TO.N,SDA5V*%
X184400000Y-84725000D03*
%TD*%
D20*
%TO.P,JP5,1,A*%
%TO.N,GND*%
X186350000Y-97875000D03*
D21*
%TO.P,JP5,2,B*%
%TO.N,Net-(JP5-Pad2)*%
X186350000Y-96425000D03*
%TD*%
D22*
%TO.P,R4,1*%
%TO.N,+3V3*%
X201425000Y-89750000D03*
%TO.P,R4,2*%
%TO.N,~{LIN_WAKE}*%
X199425000Y-89750000D03*
%TD*%
D23*
%TO.P,C2,1*%
%TO.N,LIN*%
X221775000Y-68750000D03*
%TO.P,C2,2*%
%TO.N,GND*%
X221775000Y-66675000D03*
%TD*%
D10*
%TO.P,R14,1*%
%TO.N,Net-(R13-Pad2)*%
X201900000Y-73900000D03*
%TO.P,R14,2*%
%TO.N,GND*%
X201900000Y-75900000D03*
%TD*%
D19*
%TO.P,R8,1*%
%TO.N,+5V*%
X186375000Y-84775000D03*
%TO.P,R8,2*%
%TO.N,SCL5V*%
X188375000Y-84775000D03*
%TD*%
%TO.P,R9,1*%
%TO.N,+3V3*%
X182300000Y-88450000D03*
%TO.P,R9,2*%
%TO.N,SDA3V*%
X184300000Y-88450000D03*
%TD*%
D24*
%TO.P,R12,1*%
%TO.N,GND*%
X188950000Y-78825000D03*
%TO.P,R12,2*%
%TO.N,Net-(R11-Pad2)*%
X188950000Y-76825000D03*
%TD*%
D10*
%TO.P,R16,1*%
%TO.N,Net-(C6-Pad2)*%
X191300000Y-73900000D03*
%TO.P,R16,2*%
%TO.N,GND*%
X191300000Y-75900000D03*
%TD*%
D22*
%TO.P,R10,1*%
%TO.N,+3V3*%
X190525000Y-88425000D03*
%TO.P,R10,2*%
%TO.N,SCL3V*%
X188525000Y-88425000D03*
%TD*%
D25*
%TO.P,C7,1*%
%TO.N,Net-(C7-Pad1)*%
X185750000Y-76575000D03*
%TO.P,C7,2*%
%TO.N,Net-(C7-Pad2)*%
X183675000Y-76575000D03*
%TD*%
D26*
%TO.P,C8,1*%
%TO.N,Net-(C8-Pad1)*%
X183600000Y-74325000D03*
%TO.P,C8,2*%
%TO.N,Net-(C8-Pad2)*%
X185675000Y-74325000D03*
%TD*%
D20*
%TO.P,JP4,1,A*%
%TO.N,GND*%
X188825000Y-97825000D03*
D21*
%TO.P,JP4,2,B*%
%TO.N,Net-(JP4-Pad2)*%
X188825000Y-96375000D03*
%TD*%
D20*
%TO.P,JP3,1,A*%
%TO.N,GND*%
X191425000Y-97775000D03*
D21*
%TO.P,JP3,2,B*%
%TO.N,Net-(JP3-Pad2)*%
X191425000Y-96325000D03*
%TD*%
D27*
%TO.N,GND*%
X216000000Y-73225000D03*
X213850000Y-85300000D03*
%TO.N,+3V3*%
X208025000Y-89600000D03*
%TO.N,GND*%
X211450000Y-63225000D03*
X184652903Y-75302969D03*
X203300000Y-61500000D03*
X177100000Y-71300000D03*
X205400000Y-77200000D03*
X176900000Y-62050000D03*
X177125000Y-76350000D03*
X207550000Y-91950000D03*
X183100000Y-94450000D03*
X200500000Y-82850000D03*
X187000000Y-79000000D03*
X207600000Y-86525000D03*
X206500000Y-90050000D03*
%TO.N,Net-(C5-Pad1)*%
X203435000Y-72565000D03*
X201800000Y-68900000D03*
%TO.N,LIN*%
X199200000Y-81575000D03*
%TO.N,TXD*%
X200800000Y-96575000D03*
X200550000Y-91800000D03*
%TO.N,~{LIN_SLP}*%
X197950000Y-91675000D03*
X205075000Y-92075000D03*
%TO.N,~{LIN_WAKE}*%
X204925000Y-93300000D03*
X199225000Y-91625000D03*
%TO.N,Net-(C6-Pad2)*%
X191325000Y-71800000D03*
%TO.N,Net-(C7-Pad1)*%
X187200000Y-77875000D03*
X187625000Y-73825500D03*
%TO.N,Net-(C7-Pad2)*%
X181812000Y-76162529D03*
%TO.N,Net-(C8-Pad1)*%
X182075000Y-73725000D03*
%TO.N,Net-(C8-Pad2)*%
X188425000Y-75100000D03*
%TO.N,SDA3V*%
X187300000Y-92450000D03*
X206675000Y-96775000D03*
X185425000Y-90325000D03*
%TO.N,SCL3V*%
X206290576Y-95852382D03*
X187450000Y-90425000D03*
X188918398Y-93779600D03*
%TO.N,+3V3*%
X194225000Y-89700000D03*
X197475000Y-93675000D03*
X192850000Y-77800000D03*
X184750000Y-65600000D03*
X190050000Y-90950000D03*
X202850000Y-88175000D03*
X187809929Y-75950089D03*
X192025000Y-93200000D03*
X224425000Y-94725000D03*
X181950000Y-90050000D03*
X190150000Y-80175000D03*
X190550000Y-89975000D03*
X182225000Y-77625000D03*
%TO.N,Net-(R5-Pad1)*%
X204875000Y-94975000D03*
X203700000Y-86825000D03*
%TO.N,Net-(R11-Pad2)*%
X187374999Y-76850001D03*
%TO.N,Net-(R13-Pad2)*%
X203735000Y-73835000D03*
%TO.N,Net-(R17-Pad2)*%
X195000000Y-75200000D03*
%TO.N,Net-(JP2-Pad2)*%
X191362756Y-93948624D03*
%TO.N,Net-(JP3-Pad2)*%
X187887299Y-93487701D03*
%TO.N,Net-(JP4-Pad2)*%
X184175000Y-92899500D03*
%TO.N,Net-(JP5-Pad2)*%
X184049695Y-96425000D03*
X183075000Y-92150000D03*
%TD*%
D28*
%TO.N,PUMP+*%
X222100000Y-75100000D02*
X222125000Y-75125000D01*
X222125000Y-75125000D02*
X224700000Y-75125000D01*
%TO.N,GND*%
X221775000Y-66675000D02*
X221910000Y-66540000D01*
X221910000Y-66540000D02*
X224700000Y-66540000D01*
%TO.N,+5V*%
X185900000Y-86150000D02*
X183000000Y-86150000D01*
X186375000Y-84775000D02*
X186375000Y-85675000D01*
X183000000Y-86150000D02*
X182400000Y-85550000D01*
X186375000Y-85675000D02*
X185900000Y-86150000D01*
X182400000Y-85550000D02*
X182400000Y-84725000D01*
X182400000Y-84725000D02*
X182690000Y-84435000D01*
X182690000Y-84435000D02*
X182690000Y-82100000D01*
%TO.N,LIN*%
X222105000Y-69080000D02*
X224700000Y-69080000D01*
X221775000Y-68750000D02*
X222105000Y-69080000D01*
%TO.N,TXD*%
X200550000Y-91800000D02*
X200800000Y-92050000D01*
X200800000Y-92050000D02*
X200800000Y-96575000D01*
%TO.N,~{LIN_SLP}*%
X197950000Y-90050000D02*
X197650000Y-89750000D01*
X197950000Y-91675000D02*
X197950000Y-90050000D01*
%TO.N,~{LIN_WAKE}*%
X199425000Y-91425000D02*
X199425000Y-89750000D01*
X199225000Y-91625000D02*
X199425000Y-91425000D01*
%TO.N,Net-(C6-Pad2)*%
X191325000Y-71800000D02*
X191325000Y-73875000D01*
X191325000Y-73875000D02*
X191300000Y-73900000D01*
%TO.N,Net-(C7-Pad1)*%
X187200000Y-77875000D02*
X187050000Y-77875000D01*
X187050000Y-77875000D02*
X185750000Y-76575000D01*
%TO.N,Net-(C7-Pad2)*%
X183262529Y-76162529D02*
X183675000Y-76575000D01*
X181812000Y-76162529D02*
X183262529Y-76162529D01*
%TO.N,Net-(C8-Pad1)*%
X182675000Y-74325000D02*
X183600000Y-74325000D01*
X182075000Y-73725000D02*
X182675000Y-74325000D01*
%TO.N,Net-(C8-Pad2)*%
X187875000Y-74550000D02*
X185900000Y-74550000D01*
X188425000Y-75100000D02*
X187875000Y-74550000D01*
X185900000Y-74550000D02*
X185675000Y-74325000D01*
%TO.N,SDA3V*%
X184300000Y-88450000D02*
X184300000Y-89200000D01*
X184300000Y-89200000D02*
X185425000Y-90325000D01*
%TO.N,SCL3V*%
X188525000Y-88425000D02*
X188525000Y-89350000D01*
X188525000Y-89350000D02*
X187450000Y-90425000D01*
%TO.N,+3V3*%
X182300000Y-89700000D02*
X181950000Y-90050000D01*
X201425000Y-89750000D02*
X201425000Y-89600000D01*
X190525000Y-88425000D02*
X190525000Y-89950000D01*
X201425000Y-89600000D02*
X202850000Y-88175000D01*
X194275000Y-89750000D02*
X194225000Y-89700000D01*
X195650000Y-89750000D02*
X194275000Y-89750000D01*
X182300000Y-88450000D02*
X182300000Y-89700000D01*
X190525000Y-89950000D02*
X190550000Y-89975000D01*
%TO.N,SCL5V*%
X188375000Y-84775000D02*
X188375000Y-82705000D01*
X188375000Y-82705000D02*
X187770000Y-82100000D01*
%TO.N,SDA5V*%
X184400000Y-84725000D02*
X184400000Y-82930000D01*
X184400000Y-82930000D02*
X185230000Y-82100000D01*
%TO.N,Net-(R11-Pad2)*%
X188950000Y-76825000D02*
X187400000Y-76825000D01*
X187400000Y-76825000D02*
X187374999Y-76850001D01*
%TO.N,Net-(R13-Pad2)*%
X201900000Y-73900000D02*
X203670000Y-73900000D01*
X203670000Y-73900000D02*
X203735000Y-73835000D01*
%TO.N,Net-(R17-Pad2)*%
X195000000Y-75200000D02*
X196400000Y-75200000D01*
X196400000Y-75200000D02*
X196550000Y-75350000D01*
%TO.N,Net-(JP2-Pad2)*%
X194075000Y-96275000D02*
X194075000Y-95275000D01*
X192748624Y-93948624D02*
X191362756Y-93948624D01*
X194075000Y-95275000D02*
X194025000Y-95225000D01*
X194025000Y-95225000D02*
X192748624Y-93948624D01*
%TO.N,Net-(JP3-Pad2)*%
X187887299Y-93787299D02*
X187887299Y-93487701D01*
X191425000Y-96325000D02*
X191425000Y-95275000D01*
X189850000Y-95225000D02*
X189325000Y-95225000D01*
X188875000Y-94775000D02*
X187887299Y-93787299D01*
X191425000Y-95275000D02*
X191375000Y-95225000D01*
X191375000Y-95225000D02*
X189850000Y-95225000D01*
X189325000Y-95225000D02*
X188875000Y-94775000D01*
%TO.N,Net-(JP4-Pad2)*%
X186775000Y-94850000D02*
X186125500Y-94850000D01*
X188050000Y-94850000D02*
X186775000Y-94850000D01*
X188825000Y-96375000D02*
X188825000Y-95625000D01*
X188825000Y-95625000D02*
X188150000Y-94950000D01*
X186125500Y-94850000D02*
X184175000Y-92899500D01*
X188150000Y-94950000D02*
X188050000Y-94850000D01*
%TO.N,Net-(JP5-Pad2)*%
X186350000Y-96425000D02*
X184049695Y-96425000D01*
%TD*%
%TA.AperFunction,Conductor*%
%TO.N,GND*%
G36*
X230065621Y-58948502D02*
G01*
X230112114Y-59002158D01*
X230123500Y-59054500D01*
X230123500Y-100966071D01*
X230103498Y-101034192D01*
X230049842Y-101080685D01*
X229997614Y-101092071D01*
X175783994Y-101140950D01*
X175715855Y-101121009D01*
X175669314Y-101067396D01*
X175657880Y-101015096D01*
X175645159Y-90050000D01*
X181036496Y-90050000D01*
X181037186Y-90056565D01*
X181055021Y-90226252D01*
X181056458Y-90239928D01*
X181115473Y-90421556D01*
X181118776Y-90427278D01*
X181118777Y-90427279D01*
X181139215Y-90462679D01*
X181210960Y-90586944D01*
X181215378Y-90591851D01*
X181215379Y-90591852D01*
X181303996Y-90690271D01*
X181338747Y-90728866D01*
X181493248Y-90841118D01*
X181499276Y-90843802D01*
X181499278Y-90843803D01*
X181661681Y-90916109D01*
X181667712Y-90918794D01*
X181726106Y-90931206D01*
X181848056Y-90957128D01*
X181848061Y-90957128D01*
X181854513Y-90958500D01*
X182045487Y-90958500D01*
X182051939Y-90957128D01*
X182051944Y-90957128D01*
X182173894Y-90931206D01*
X182232288Y-90918794D01*
X182238319Y-90916109D01*
X182400722Y-90843803D01*
X182400724Y-90843802D01*
X182406752Y-90841118D01*
X182561253Y-90728866D01*
X182596004Y-90690271D01*
X182684621Y-90591852D01*
X182684622Y-90591851D01*
X182689040Y-90586944D01*
X182760785Y-90462679D01*
X182781223Y-90427279D01*
X182781224Y-90427278D01*
X182784527Y-90421556D01*
X182843542Y-90239928D01*
X182844980Y-90226252D01*
X182862814Y-90056565D01*
X182863504Y-90050000D01*
X182862336Y-90038884D01*
X182877230Y-89965011D01*
X182893695Y-89935060D01*
X182898733Y-89915437D01*
X182905137Y-89896734D01*
X182910033Y-89885420D01*
X182910033Y-89885419D01*
X182913181Y-89878145D01*
X182914420Y-89870322D01*
X182914423Y-89870312D01*
X182920099Y-89834476D01*
X182922505Y-89822856D01*
X182931528Y-89787711D01*
X182931528Y-89787710D01*
X182933500Y-89780030D01*
X182933500Y-89759776D01*
X182935051Y-89740065D01*
X182936980Y-89727886D01*
X182938220Y-89720057D01*
X182936077Y-89697390D01*
X182949579Y-89627691D01*
X182995215Y-89578388D01*
X183010600Y-89568868D01*
X183124348Y-89498478D01*
X183210784Y-89411891D01*
X183273066Y-89377812D01*
X183343886Y-89382815D01*
X183388975Y-89411736D01*
X183430090Y-89452779D01*
X183476697Y-89499305D01*
X183482927Y-89503145D01*
X183482928Y-89503146D01*
X183605835Y-89578907D01*
X183627262Y-89592115D01*
X183795139Y-89647797D01*
X183801975Y-89648497D01*
X183801978Y-89648498D01*
X183813801Y-89649709D01*
X183879528Y-89676550D01*
X183890054Y-89685958D01*
X184477878Y-90273782D01*
X184511904Y-90336094D01*
X184514092Y-90349703D01*
X184518753Y-90394042D01*
X184528548Y-90487237D01*
X184531458Y-90514928D01*
X184590473Y-90696556D01*
X184593776Y-90702278D01*
X184593777Y-90702279D01*
X184606292Y-90723955D01*
X184685960Y-90861944D01*
X184690378Y-90866851D01*
X184690379Y-90866852D01*
X184761313Y-90945632D01*
X184813747Y-91003866D01*
X184912843Y-91075864D01*
X184951385Y-91103866D01*
X184968248Y-91116118D01*
X184974276Y-91118802D01*
X184974278Y-91118803D01*
X185136681Y-91191109D01*
X185142712Y-91193794D01*
X185229479Y-91212237D01*
X185323056Y-91232128D01*
X185323061Y-91232128D01*
X185329513Y-91233500D01*
X185520487Y-91233500D01*
X185526939Y-91232128D01*
X185526944Y-91232128D01*
X185620521Y-91212237D01*
X185707288Y-91193794D01*
X185713319Y-91191109D01*
X185875722Y-91118803D01*
X185875724Y-91118802D01*
X185881752Y-91116118D01*
X185898616Y-91103866D01*
X185937157Y-91075864D01*
X186036253Y-91003866D01*
X186088687Y-90945632D01*
X186159621Y-90866852D01*
X186159622Y-90866851D01*
X186164040Y-90861944D01*
X186243708Y-90723955D01*
X186256223Y-90702279D01*
X186256224Y-90702278D01*
X186259527Y-90696556D01*
X186307186Y-90549878D01*
X186347260Y-90491272D01*
X186412656Y-90463635D01*
X186482613Y-90475742D01*
X186534919Y-90523748D01*
X186552329Y-90575643D01*
X186555578Y-90606551D01*
X186556458Y-90614928D01*
X186615473Y-90796556D01*
X186618776Y-90802278D01*
X186618777Y-90802279D01*
X186701542Y-90945632D01*
X186710960Y-90961944D01*
X186715378Y-90966851D01*
X186715379Y-90966852D01*
X186815361Y-91077893D01*
X186838747Y-91103866D01*
X186993248Y-91216118D01*
X186999276Y-91218802D01*
X186999278Y-91218803D01*
X187145449Y-91283882D01*
X187167712Y-91293794D01*
X187188963Y-91298311D01*
X187251436Y-91332039D01*
X187285758Y-91394189D01*
X187281030Y-91465028D01*
X187238754Y-91522065D01*
X187188963Y-91544805D01*
X187129642Y-91557414D01*
X187017712Y-91581206D01*
X187011682Y-91583891D01*
X187011681Y-91583891D01*
X186849278Y-91656197D01*
X186849276Y-91656198D01*
X186843248Y-91658882D01*
X186837907Y-91662762D01*
X186837906Y-91662763D01*
X186812028Y-91681565D01*
X186688747Y-91771134D01*
X186684326Y-91776044D01*
X186684325Y-91776045D01*
X186580248Y-91891635D01*
X186560960Y-91913056D01*
X186537440Y-91953794D01*
X186476200Y-92059865D01*
X186465473Y-92078444D01*
X186406458Y-92260072D01*
X186405768Y-92266633D01*
X186405768Y-92266635D01*
X186398084Y-92339747D01*
X186386496Y-92450000D01*
X186387186Y-92456565D01*
X186404483Y-92621134D01*
X186406458Y-92639928D01*
X186465473Y-92821556D01*
X186468776Y-92827278D01*
X186468777Y-92827279D01*
X186482915Y-92851766D01*
X186560960Y-92986944D01*
X186565378Y-92991851D01*
X186565379Y-92991852D01*
X186670036Y-93108085D01*
X186688747Y-93128866D01*
X186733508Y-93161387D01*
X186827511Y-93229684D01*
X186843248Y-93241118D01*
X186849283Y-93243805D01*
X186909088Y-93270433D01*
X186963183Y-93316413D01*
X186983832Y-93384340D01*
X186983148Y-93398709D01*
X186981184Y-93417398D01*
X186973795Y-93487701D01*
X186974485Y-93494266D01*
X186992791Y-93668435D01*
X186993757Y-93677629D01*
X187052772Y-93859257D01*
X187056075Y-93864979D01*
X187056076Y-93864980D01*
X187148259Y-94024645D01*
X187146452Y-94025688D01*
X187167009Y-94083315D01*
X187150924Y-94152465D01*
X187100007Y-94201942D01*
X187041214Y-94216500D01*
X186440094Y-94216500D01*
X186371973Y-94196498D01*
X186350999Y-94179595D01*
X185122122Y-92950717D01*
X185088096Y-92888405D01*
X185085907Y-92874792D01*
X185082421Y-92841619D01*
X185076414Y-92784472D01*
X185069232Y-92716135D01*
X185069232Y-92716133D01*
X185068542Y-92709572D01*
X185009527Y-92527944D01*
X185003354Y-92517251D01*
X184964526Y-92450000D01*
X184914040Y-92362556D01*
X184906216Y-92353866D01*
X184790675Y-92225545D01*
X184790674Y-92225544D01*
X184786253Y-92220634D01*
X184659804Y-92128763D01*
X184637094Y-92112263D01*
X184637093Y-92112262D01*
X184631752Y-92108382D01*
X184625724Y-92105698D01*
X184625722Y-92105697D01*
X184463319Y-92033391D01*
X184463318Y-92033391D01*
X184457288Y-92030706D01*
X184347205Y-92007307D01*
X184276944Y-91992372D01*
X184276939Y-91992372D01*
X184270487Y-91991000D01*
X184079513Y-91991000D01*
X184079513Y-91990513D01*
X184013776Y-91978490D01*
X183961930Y-91929988D01*
X183950612Y-91904890D01*
X183939598Y-91870992D01*
X183909527Y-91778444D01*
X183898510Y-91759361D01*
X183840498Y-91658882D01*
X183814040Y-91613056D01*
X183805701Y-91603794D01*
X183690675Y-91476045D01*
X183690674Y-91476044D01*
X183686253Y-91471134D01*
X183531752Y-91358882D01*
X183525724Y-91356198D01*
X183525722Y-91356197D01*
X183363319Y-91283891D01*
X183363318Y-91283891D01*
X183357288Y-91281206D01*
X183263888Y-91261353D01*
X183176944Y-91242872D01*
X183176939Y-91242872D01*
X183170487Y-91241500D01*
X182979513Y-91241500D01*
X182973061Y-91242872D01*
X182973056Y-91242872D01*
X182886112Y-91261353D01*
X182792712Y-91281206D01*
X182786682Y-91283891D01*
X182786681Y-91283891D01*
X182624278Y-91356197D01*
X182624276Y-91356198D01*
X182618248Y-91358882D01*
X182463747Y-91471134D01*
X182459326Y-91476044D01*
X182459325Y-91476045D01*
X182344300Y-91603794D01*
X182335960Y-91613056D01*
X182309502Y-91658882D01*
X182251491Y-91759361D01*
X182240473Y-91778444D01*
X182181458Y-91960072D01*
X182180768Y-91966633D01*
X182180768Y-91966635D01*
X182170969Y-92059865D01*
X182161496Y-92150000D01*
X182162186Y-92156565D01*
X182177232Y-92299716D01*
X182181458Y-92339928D01*
X182240473Y-92521556D01*
X182335960Y-92686944D01*
X182340378Y-92691851D01*
X182340379Y-92691852D01*
X182442215Y-92804952D01*
X182463747Y-92828866D01*
X182545695Y-92888405D01*
X182579542Y-92912996D01*
X182618248Y-92941118D01*
X182624276Y-92943802D01*
X182624278Y-92943803D01*
X182773122Y-93010072D01*
X182792712Y-93018794D01*
X182874149Y-93036104D01*
X182973056Y-93057128D01*
X182973061Y-93057128D01*
X182979513Y-93058500D01*
X183170487Y-93058500D01*
X183170487Y-93058987D01*
X183236224Y-93071010D01*
X183288070Y-93119512D01*
X183299388Y-93144609D01*
X183340473Y-93271056D01*
X183343776Y-93276778D01*
X183343777Y-93276779D01*
X183355868Y-93297721D01*
X183435960Y-93436444D01*
X183440378Y-93441351D01*
X183440379Y-93441352D01*
X183543943Y-93556371D01*
X183563747Y-93578366D01*
X183662843Y-93650364D01*
X183705788Y-93681565D01*
X183718248Y-93690618D01*
X183724276Y-93693302D01*
X183724278Y-93693303D01*
X183871154Y-93758696D01*
X183892712Y-93768294D01*
X183976788Y-93786165D01*
X184073056Y-93806628D01*
X184073061Y-93806628D01*
X184079513Y-93808000D01*
X184135406Y-93808000D01*
X184203527Y-93828002D01*
X184224501Y-93844905D01*
X185585246Y-95205650D01*
X185619272Y-95267962D01*
X185614207Y-95338777D01*
X185571660Y-95395613D01*
X185526525Y-95415261D01*
X185526889Y-95416500D01*
X185395235Y-95455157D01*
X185395233Y-95455158D01*
X185386589Y-95457696D01*
X185379010Y-95462567D01*
X185271159Y-95531878D01*
X185271156Y-95531880D01*
X185263579Y-95536750D01*
X185257678Y-95543560D01*
X185173726Y-95640445D01*
X185173724Y-95640448D01*
X185167824Y-95647257D01*
X185164080Y-95655454D01*
X185164080Y-95655455D01*
X185135589Y-95717842D01*
X185089096Y-95771498D01*
X185020975Y-95791500D01*
X184757895Y-95791500D01*
X184689774Y-95771498D01*
X184670548Y-95755157D01*
X184670275Y-95755460D01*
X184665363Y-95751037D01*
X184660948Y-95746134D01*
X184506447Y-95633882D01*
X184500419Y-95631198D01*
X184500417Y-95631197D01*
X184338014Y-95558891D01*
X184338013Y-95558891D01*
X184331983Y-95556206D01*
X184238583Y-95536353D01*
X184151639Y-95517872D01*
X184151634Y-95517872D01*
X184145182Y-95516500D01*
X183954208Y-95516500D01*
X183947756Y-95517872D01*
X183947751Y-95517872D01*
X183860807Y-95536353D01*
X183767407Y-95556206D01*
X183761377Y-95558891D01*
X183761376Y-95558891D01*
X183598973Y-95631197D01*
X183598971Y-95631198D01*
X183592943Y-95633882D01*
X183438442Y-95746134D01*
X183434021Y-95751044D01*
X183434020Y-95751045D01*
X183315993Y-95882128D01*
X183310655Y-95888056D01*
X183215168Y-96053444D01*
X183156153Y-96235072D01*
X183136191Y-96425000D01*
X183156153Y-96614928D01*
X183215168Y-96796556D01*
X183310655Y-96961944D01*
X183315073Y-96966851D01*
X183315074Y-96966852D01*
X183428140Y-97092425D01*
X183438442Y-97103866D01*
X183486827Y-97139020D01*
X183560333Y-97192425D01*
X183592943Y-97216118D01*
X183598971Y-97218802D01*
X183598973Y-97218803D01*
X183753553Y-97287626D01*
X183767407Y-97293794D01*
X183852796Y-97311944D01*
X183947751Y-97332128D01*
X183947756Y-97332128D01*
X183954208Y-97333500D01*
X184145182Y-97333500D01*
X184151634Y-97332128D01*
X184151639Y-97332128D01*
X184246594Y-97311944D01*
X184331983Y-97293794D01*
X184345837Y-97287626D01*
X184500417Y-97218803D01*
X184500419Y-97218802D01*
X184506447Y-97216118D01*
X184539058Y-97192425D01*
X184649830Y-97111944D01*
X184660948Y-97103866D01*
X184665363Y-97098963D01*
X184670275Y-97094540D01*
X184671400Y-97095789D01*
X184724709Y-97062949D01*
X184757895Y-97058500D01*
X184970647Y-97058500D01*
X185038768Y-97078502D01*
X185085261Y-97132158D01*
X185092701Y-97155402D01*
X185092800Y-97156645D01*
X185136348Y-97296233D01*
X185141348Y-97303733D01*
X185141349Y-97303735D01*
X185217457Y-97417897D01*
X185329558Y-97511782D01*
X185337813Y-97515386D01*
X185337817Y-97515388D01*
X185454030Y-97566118D01*
X185463569Y-97570282D01*
X185472510Y-97571415D01*
X185472512Y-97571415D01*
X185599693Y-97587524D01*
X185599695Y-97587524D01*
X185608632Y-97588656D01*
X185752996Y-97565418D01*
X185857847Y-97515388D01*
X185880905Y-97504386D01*
X185880908Y-97504384D01*
X185884966Y-97502448D01*
X186280108Y-97239020D01*
X186347883Y-97217876D01*
X186419892Y-97239020D01*
X186812938Y-97501051D01*
X186812944Y-97501055D01*
X186815034Y-97502448D01*
X186817234Y-97503673D01*
X186817235Y-97503674D01*
X186880452Y-97538886D01*
X186880454Y-97538887D01*
X186886589Y-97542304D01*
X186893329Y-97544283D01*
X186970185Y-97566850D01*
X187026889Y-97583500D01*
X187173111Y-97583500D01*
X187214269Y-97571415D01*
X187304765Y-97544843D01*
X187304767Y-97544842D01*
X187313411Y-97542304D01*
X187369909Y-97505995D01*
X187428841Y-97468122D01*
X187428844Y-97468120D01*
X187436421Y-97463250D01*
X187511506Y-97376597D01*
X187571231Y-97338214D01*
X187642228Y-97338214D01*
X187691359Y-97369208D01*
X187692457Y-97367897D01*
X187777220Y-97438886D01*
X187804558Y-97461782D01*
X187812813Y-97465386D01*
X187812817Y-97465388D01*
X187930308Y-97516676D01*
X187938569Y-97520282D01*
X187947510Y-97521415D01*
X187947512Y-97521415D01*
X188074693Y-97537524D01*
X188074695Y-97537524D01*
X188083632Y-97538656D01*
X188227996Y-97515418D01*
X188337328Y-97463250D01*
X188355905Y-97454386D01*
X188355908Y-97454384D01*
X188359966Y-97452448D01*
X188755108Y-97189020D01*
X188822883Y-97167876D01*
X188894892Y-97189020D01*
X189287938Y-97451051D01*
X189287944Y-97451055D01*
X189290034Y-97452448D01*
X189292234Y-97453673D01*
X189292235Y-97453674D01*
X189355452Y-97488886D01*
X189355454Y-97488887D01*
X189361589Y-97492304D01*
X189402736Y-97504386D01*
X189445185Y-97516850D01*
X189501889Y-97533500D01*
X189648111Y-97533500D01*
X189689269Y-97521415D01*
X189779765Y-97494843D01*
X189779767Y-97494842D01*
X189788411Y-97492304D01*
X189836287Y-97461536D01*
X189903841Y-97418122D01*
X189903844Y-97418120D01*
X189911421Y-97413250D01*
X189952894Y-97365388D01*
X190001274Y-97309555D01*
X190001276Y-97309552D01*
X190007176Y-97302743D01*
X190025074Y-97263552D01*
X190071566Y-97209896D01*
X190139687Y-97189893D01*
X190207808Y-97209894D01*
X190244526Y-97246000D01*
X190292457Y-97317897D01*
X190404558Y-97411782D01*
X190412813Y-97415386D01*
X190412817Y-97415388D01*
X190530308Y-97466676D01*
X190538569Y-97470282D01*
X190547510Y-97471415D01*
X190547512Y-97471415D01*
X190674693Y-97487524D01*
X190674695Y-97487524D01*
X190683632Y-97488656D01*
X190827996Y-97465418D01*
X190937328Y-97413250D01*
X190955905Y-97404386D01*
X190955908Y-97404384D01*
X190959966Y-97402448D01*
X191355108Y-97139020D01*
X191422883Y-97117876D01*
X191494892Y-97139020D01*
X191887938Y-97401051D01*
X191887944Y-97401055D01*
X191890034Y-97402448D01*
X191892234Y-97403673D01*
X191892235Y-97403674D01*
X191955452Y-97438886D01*
X191955454Y-97438887D01*
X191961589Y-97442304D01*
X192000965Y-97453866D01*
X192049517Y-97468122D01*
X192101889Y-97483500D01*
X192248111Y-97483500D01*
X192289269Y-97471415D01*
X192379765Y-97444843D01*
X192379767Y-97444842D01*
X192388411Y-97442304D01*
X192444909Y-97405995D01*
X192503841Y-97368122D01*
X192503844Y-97368120D01*
X192511421Y-97363250D01*
X192537200Y-97333500D01*
X192601274Y-97259555D01*
X192601276Y-97259552D01*
X192607176Y-97252743D01*
X192645402Y-97169040D01*
X192691894Y-97115385D01*
X192760014Y-97095383D01*
X192828135Y-97115385D01*
X192864853Y-97151491D01*
X192893556Y-97194545D01*
X192942457Y-97267897D01*
X193054558Y-97361782D01*
X193062813Y-97365386D01*
X193062817Y-97365388D01*
X193180308Y-97416676D01*
X193188569Y-97420282D01*
X193197510Y-97421415D01*
X193197512Y-97421415D01*
X193324693Y-97437524D01*
X193324695Y-97437524D01*
X193333632Y-97438656D01*
X193477996Y-97415418D01*
X193589451Y-97362237D01*
X193605905Y-97354386D01*
X193605908Y-97354384D01*
X193609966Y-97352448D01*
X194005108Y-97089020D01*
X194072883Y-97067876D01*
X194144892Y-97089020D01*
X194537938Y-97351051D01*
X194537944Y-97351055D01*
X194540034Y-97352448D01*
X194542234Y-97353673D01*
X194542235Y-97353674D01*
X194605452Y-97388886D01*
X194605454Y-97388887D01*
X194611589Y-97392304D01*
X194652736Y-97404386D01*
X194718456Y-97423683D01*
X194751889Y-97433500D01*
X194898111Y-97433500D01*
X194906755Y-97430962D01*
X195029765Y-97394843D01*
X195029767Y-97394842D01*
X195038411Y-97392304D01*
X195094909Y-97355995D01*
X195153841Y-97318122D01*
X195153844Y-97318120D01*
X195161421Y-97313250D01*
X195180606Y-97291109D01*
X195251274Y-97209555D01*
X195251276Y-97209552D01*
X195257176Y-97202743D01*
X195317919Y-97069734D01*
X195338729Y-96925000D01*
X195338729Y-95775000D01*
X195333500Y-95701889D01*
X195306985Y-95611589D01*
X195294843Y-95570235D01*
X195294842Y-95570233D01*
X195292304Y-95561589D01*
X195263327Y-95516500D01*
X195218122Y-95446159D01*
X195218120Y-95446156D01*
X195213250Y-95438579D01*
X195181735Y-95411271D01*
X195109555Y-95348726D01*
X195109552Y-95348724D01*
X195102743Y-95342824D01*
X195093882Y-95338777D01*
X195025823Y-95307696D01*
X194969734Y-95282081D01*
X194960811Y-95280798D01*
X194829461Y-95261912D01*
X194829455Y-95261912D01*
X194825000Y-95261271D01*
X194820495Y-95261271D01*
X194816327Y-95260973D01*
X194749807Y-95236162D01*
X194707260Y-95179326D01*
X194704319Y-95170446D01*
X194700021Y-95155652D01*
X194696012Y-95136293D01*
X194695846Y-95134983D01*
X194693474Y-95116203D01*
X194690558Y-95108837D01*
X194690556Y-95108831D01*
X194677200Y-95075098D01*
X194673355Y-95063868D01*
X194663230Y-95029017D01*
X194663230Y-95029016D01*
X194661019Y-95021407D01*
X194655927Y-95012797D01*
X194650705Y-95003966D01*
X194642008Y-94986213D01*
X194637472Y-94974758D01*
X194634552Y-94967383D01*
X194608563Y-94931612D01*
X194602047Y-94921692D01*
X194598047Y-94914928D01*
X194579542Y-94883638D01*
X194565218Y-94869314D01*
X194552383Y-94854287D01*
X194540472Y-94837893D01*
X194517659Y-94819020D01*
X194506407Y-94809712D01*
X194497627Y-94801722D01*
X193252276Y-93556371D01*
X193244736Y-93548085D01*
X193240624Y-93541606D01*
X193190972Y-93494980D01*
X193188131Y-93492226D01*
X193168394Y-93472489D01*
X193165197Y-93470009D01*
X193156175Y-93462304D01*
X193129724Y-93437465D01*
X193123945Y-93432038D01*
X193116999Y-93428219D01*
X193116996Y-93428217D01*
X193106190Y-93422276D01*
X193089671Y-93411425D01*
X193083672Y-93406772D01*
X193073665Y-93399010D01*
X193066396Y-93395865D01*
X193066392Y-93395862D01*
X193033087Y-93381450D01*
X193022427Y-93376228D01*
X192998938Y-93363315D01*
X192948879Y-93312970D01*
X192934328Y-93239728D01*
X192934481Y-93238279D01*
X192938504Y-93200000D01*
X192933755Y-93154819D01*
X192919232Y-93016635D01*
X192919232Y-93016633D01*
X192918542Y-93010072D01*
X192859527Y-92828444D01*
X192764040Y-92663056D01*
X192755801Y-92653905D01*
X192640675Y-92526045D01*
X192640674Y-92526044D01*
X192636253Y-92521134D01*
X192495407Y-92418803D01*
X192487094Y-92412763D01*
X192487093Y-92412762D01*
X192481752Y-92408882D01*
X192475724Y-92406198D01*
X192475722Y-92406197D01*
X192313319Y-92333891D01*
X192313318Y-92333891D01*
X192307288Y-92331206D01*
X192213887Y-92311353D01*
X192126944Y-92292872D01*
X192126939Y-92292872D01*
X192120487Y-92291500D01*
X191929513Y-92291500D01*
X191923061Y-92292872D01*
X191923056Y-92292872D01*
X191836113Y-92311353D01*
X191742712Y-92331206D01*
X191736682Y-92333891D01*
X191736681Y-92333891D01*
X191574278Y-92406197D01*
X191574276Y-92406198D01*
X191568248Y-92408882D01*
X191562907Y-92412762D01*
X191562906Y-92412763D01*
X191554593Y-92418803D01*
X191413747Y-92521134D01*
X191409326Y-92526044D01*
X191409325Y-92526045D01*
X191294200Y-92653905D01*
X191285960Y-92663056D01*
X191190473Y-92828444D01*
X191131458Y-93010072D01*
X191128942Y-93009254D01*
X191100838Y-93061348D01*
X191062540Y-93087812D01*
X190912037Y-93154819D01*
X190912030Y-93154823D01*
X190906004Y-93157506D01*
X190751503Y-93269758D01*
X190747082Y-93274668D01*
X190747081Y-93274669D01*
X190637959Y-93395862D01*
X190623716Y-93411680D01*
X190528229Y-93577068D01*
X190469214Y-93758696D01*
X190468524Y-93765257D01*
X190468524Y-93765259D01*
X190462994Y-93817872D01*
X190449252Y-93948624D01*
X190449942Y-93955189D01*
X190468383Y-94130642D01*
X190469214Y-94138552D01*
X190528229Y-94320180D01*
X190575758Y-94402502D01*
X190592495Y-94471495D01*
X190569275Y-94538587D01*
X190513468Y-94582474D01*
X190466638Y-94591500D01*
X189692867Y-94591500D01*
X189624746Y-94571498D01*
X189578253Y-94517842D01*
X189568149Y-94447568D01*
X189599229Y-94381191D01*
X189657438Y-94316544D01*
X189726747Y-94196498D01*
X189749621Y-94156879D01*
X189749622Y-94156878D01*
X189752925Y-94151156D01*
X189811940Y-93969528D01*
X189823851Y-93856206D01*
X189831212Y-93786165D01*
X189831902Y-93779600D01*
X189811940Y-93589672D01*
X189752925Y-93408044D01*
X189747536Y-93398709D01*
X189673085Y-93269758D01*
X189657438Y-93242656D01*
X189638396Y-93221507D01*
X189534073Y-93105645D01*
X189534072Y-93105644D01*
X189529651Y-93100734D01*
X189396225Y-93003794D01*
X189380492Y-92992363D01*
X189380491Y-92992362D01*
X189375150Y-92988482D01*
X189369122Y-92985798D01*
X189369120Y-92985797D01*
X189206717Y-92913491D01*
X189206716Y-92913491D01*
X189200686Y-92910806D01*
X189092278Y-92887763D01*
X189020342Y-92872472D01*
X189020337Y-92872472D01*
X189013885Y-92871100D01*
X188822911Y-92871100D01*
X188816459Y-92872472D01*
X188816454Y-92872472D01*
X188668871Y-92903842D01*
X188598080Y-92898440D01*
X188549038Y-92864906D01*
X188537207Y-92851766D01*
X188498552Y-92808835D01*
X188360105Y-92708247D01*
X188349393Y-92700464D01*
X188349392Y-92700463D01*
X188344051Y-92696583D01*
X188333425Y-92691852D01*
X188278211Y-92667268D01*
X188224116Y-92621288D01*
X188203467Y-92553361D01*
X188204151Y-92538992D01*
X188212814Y-92456565D01*
X188213504Y-92450000D01*
X188201916Y-92339747D01*
X188194232Y-92266635D01*
X188194232Y-92266633D01*
X188193542Y-92260072D01*
X188134527Y-92078444D01*
X188123801Y-92059865D01*
X188062560Y-91953794D01*
X188039040Y-91913056D01*
X188019753Y-91891635D01*
X187915675Y-91776045D01*
X187915674Y-91776044D01*
X187911253Y-91771134D01*
X187787972Y-91681565D01*
X187762094Y-91662763D01*
X187762093Y-91662762D01*
X187756752Y-91658882D01*
X187750724Y-91656198D01*
X187750722Y-91656197D01*
X187588319Y-91583891D01*
X187588318Y-91583891D01*
X187582288Y-91581206D01*
X187561037Y-91576689D01*
X187498564Y-91542961D01*
X187464242Y-91480811D01*
X187468970Y-91409972D01*
X187511246Y-91352935D01*
X187561037Y-91330195D01*
X187631247Y-91315271D01*
X187732288Y-91293794D01*
X187754551Y-91283882D01*
X187900722Y-91218803D01*
X187900724Y-91218802D01*
X187906752Y-91216118D01*
X188061253Y-91103866D01*
X188084639Y-91077893D01*
X188184621Y-90966852D01*
X188184622Y-90966851D01*
X188189040Y-90961944D01*
X188198458Y-90945632D01*
X188281223Y-90802279D01*
X188281224Y-90802278D01*
X188284527Y-90796556D01*
X188343542Y-90614928D01*
X188344423Y-90606551D01*
X188355151Y-90504476D01*
X188360907Y-90449706D01*
X188387920Y-90384050D01*
X188397122Y-90373782D01*
X188917247Y-89853657D01*
X188925537Y-89846113D01*
X188932018Y-89842000D01*
X188939084Y-89834476D01*
X188978658Y-89792333D01*
X188981413Y-89789491D01*
X189001135Y-89769769D01*
X189003612Y-89766576D01*
X189011317Y-89757555D01*
X189036159Y-89731100D01*
X189041586Y-89725321D01*
X189045407Y-89718371D01*
X189051346Y-89707568D01*
X189062202Y-89691041D01*
X189069757Y-89681302D01*
X189069758Y-89681300D01*
X189074614Y-89675040D01*
X189084998Y-89651045D01*
X189086146Y-89648391D01*
X189131557Y-89593816D01*
X189161907Y-89578907D01*
X189191998Y-89568868D01*
X189198946Y-89566550D01*
X189349348Y-89473478D01*
X189435784Y-89386891D01*
X189498066Y-89352812D01*
X189568886Y-89357815D01*
X189613975Y-89386736D01*
X189690218Y-89462846D01*
X189724297Y-89525128D01*
X189719294Y-89595948D01*
X189718071Y-89598943D01*
X189715473Y-89603444D01*
X189656458Y-89785072D01*
X189655768Y-89791633D01*
X189655768Y-89791635D01*
X189642756Y-89915438D01*
X189636496Y-89975000D01*
X189637186Y-89981565D01*
X189643779Y-90044297D01*
X189631007Y-90114135D01*
X189592530Y-90159403D01*
X189536486Y-90200122D01*
X189438747Y-90271134D01*
X189434326Y-90276044D01*
X189434325Y-90276045D01*
X189325709Y-90396676D01*
X189310960Y-90413056D01*
X189265891Y-90491118D01*
X189222595Y-90566109D01*
X189215473Y-90578444D01*
X189156458Y-90760072D01*
X189155768Y-90766633D01*
X189155768Y-90766635D01*
X189142639Y-90891550D01*
X189136496Y-90950000D01*
X189137186Y-90956565D01*
X189154483Y-91121134D01*
X189156458Y-91139928D01*
X189215473Y-91321556D01*
X189310960Y-91486944D01*
X189315378Y-91491851D01*
X189315379Y-91491852D01*
X189391767Y-91576689D01*
X189438747Y-91628866D01*
X189593248Y-91741118D01*
X189599276Y-91743802D01*
X189599278Y-91743803D01*
X189740245Y-91806565D01*
X189767712Y-91818794D01*
X189861113Y-91838647D01*
X189948056Y-91857128D01*
X189948061Y-91857128D01*
X189954513Y-91858500D01*
X190145487Y-91858500D01*
X190151939Y-91857128D01*
X190151944Y-91857128D01*
X190238888Y-91838647D01*
X190332288Y-91818794D01*
X190359755Y-91806565D01*
X190500722Y-91743803D01*
X190500724Y-91743802D01*
X190506752Y-91741118D01*
X190661253Y-91628866D01*
X190708233Y-91576689D01*
X190784621Y-91491852D01*
X190784622Y-91491851D01*
X190789040Y-91486944D01*
X190884527Y-91321556D01*
X190943542Y-91139928D01*
X190945518Y-91121134D01*
X190962814Y-90956565D01*
X190963504Y-90950000D01*
X190958779Y-90905044D01*
X190956221Y-90880703D01*
X190968993Y-90810865D01*
X191007470Y-90765597D01*
X191125942Y-90679521D01*
X191161253Y-90653866D01*
X191219416Y-90589269D01*
X191284621Y-90516852D01*
X191284622Y-90516851D01*
X191289040Y-90511944D01*
X191324973Y-90449707D01*
X191381223Y-90352279D01*
X191381224Y-90352278D01*
X191384527Y-90346556D01*
X191443542Y-90164928D01*
X191445968Y-90141852D01*
X191462814Y-89981565D01*
X191463504Y-89975000D01*
X191457244Y-89915438D01*
X191444232Y-89791635D01*
X191444232Y-89791633D01*
X191443542Y-89785072D01*
X191415900Y-89700000D01*
X193311496Y-89700000D01*
X193312186Y-89706565D01*
X193330220Y-89878145D01*
X193331458Y-89889928D01*
X193390473Y-90071556D01*
X193485960Y-90236944D01*
X193490378Y-90241851D01*
X193490379Y-90241852D01*
X193609169Y-90373782D01*
X193613747Y-90378866D01*
X193672505Y-90421556D01*
X193742930Y-90472723D01*
X193768248Y-90491118D01*
X193774276Y-90493802D01*
X193774278Y-90493803D01*
X193932097Y-90564068D01*
X193942712Y-90568794D01*
X194017680Y-90584729D01*
X194123056Y-90607128D01*
X194123061Y-90607128D01*
X194129513Y-90608500D01*
X194320487Y-90608500D01*
X194326939Y-90607128D01*
X194326944Y-90607128D01*
X194432320Y-90584729D01*
X194507288Y-90568794D01*
X194513320Y-90566108D01*
X194519600Y-90564068D01*
X194520498Y-90566832D01*
X194578304Y-90559120D01*
X194642581Y-90589269D01*
X194666248Y-90617346D01*
X194701522Y-90674348D01*
X194826697Y-90799305D01*
X194832927Y-90803145D01*
X194832928Y-90803146D01*
X194970090Y-90887694D01*
X194977262Y-90892115D01*
X195016242Y-90905044D01*
X195138611Y-90945632D01*
X195138613Y-90945632D01*
X195145139Y-90947797D01*
X195151975Y-90948497D01*
X195151978Y-90948498D01*
X195195031Y-90952909D01*
X195249600Y-90958500D01*
X196050400Y-90958500D01*
X196053646Y-90958163D01*
X196053650Y-90958163D01*
X196149308Y-90948238D01*
X196149312Y-90948237D01*
X196156166Y-90947526D01*
X196162702Y-90945345D01*
X196162704Y-90945345D01*
X196294806Y-90901272D01*
X196323946Y-90891550D01*
X196474348Y-90798478D01*
X196560784Y-90711891D01*
X196623066Y-90677812D01*
X196693886Y-90682815D01*
X196738975Y-90711736D01*
X196792930Y-90765597D01*
X196826697Y-90799305D01*
X196832927Y-90803145D01*
X196832928Y-90803146D01*
X196970090Y-90887694D01*
X196977262Y-90892115D01*
X197105906Y-90934784D01*
X197145139Y-90947797D01*
X197144289Y-90950360D01*
X197195990Y-90978400D01*
X197230193Y-91040615D01*
X197225331Y-91111444D01*
X197211288Y-91137691D01*
X197210960Y-91138056D01*
X197207658Y-91143775D01*
X197207656Y-91143778D01*
X197121216Y-91293496D01*
X197115473Y-91303444D01*
X197056458Y-91485072D01*
X197055768Y-91491633D01*
X197055768Y-91491635D01*
X197041861Y-91623955D01*
X197036496Y-91675000D01*
X197037186Y-91681565D01*
X197048029Y-91784726D01*
X197056458Y-91864928D01*
X197115473Y-92046556D01*
X197118776Y-92052278D01*
X197118777Y-92052279D01*
X197135685Y-92081565D01*
X197210960Y-92211944D01*
X197215378Y-92216851D01*
X197215379Y-92216852D01*
X197318344Y-92331206D01*
X197338747Y-92353866D01*
X197424429Y-92416118D01*
X197471693Y-92450457D01*
X197493248Y-92466118D01*
X197499276Y-92468802D01*
X197499278Y-92468803D01*
X197558491Y-92495166D01*
X197621534Y-92523234D01*
X197627818Y-92526032D01*
X197681913Y-92572012D01*
X197702563Y-92639939D01*
X197683211Y-92708247D01*
X197630000Y-92755249D01*
X197570487Y-92765258D01*
X197570487Y-92766500D01*
X197379513Y-92766500D01*
X197373061Y-92767872D01*
X197373056Y-92767872D01*
X197302964Y-92782771D01*
X197192712Y-92806206D01*
X197186682Y-92808891D01*
X197186681Y-92808891D01*
X197024278Y-92881197D01*
X197024276Y-92881198D01*
X197018248Y-92883882D01*
X197012907Y-92887762D01*
X197012906Y-92887763D01*
X196987319Y-92906353D01*
X196863747Y-92996134D01*
X196859326Y-93001044D01*
X196859325Y-93001045D01*
X196748657Y-93123955D01*
X196735960Y-93138056D01*
X196703987Y-93193435D01*
X196662164Y-93265875D01*
X196640473Y-93303444D01*
X196581458Y-93485072D01*
X196580768Y-93491633D01*
X196580768Y-93491635D01*
X196571244Y-93582249D01*
X196561496Y-93675000D01*
X196562186Y-93681565D01*
X196579354Y-93844905D01*
X196581458Y-93864928D01*
X196640473Y-94046556D01*
X196643776Y-94052278D01*
X196643777Y-94052279D01*
X196661696Y-94083315D01*
X196735960Y-94211944D01*
X196740378Y-94216851D01*
X196740379Y-94216852D01*
X196858214Y-94347721D01*
X196863747Y-94353866D01*
X197018248Y-94466118D01*
X197024276Y-94468802D01*
X197024278Y-94468803D01*
X197186681Y-94541109D01*
X197192712Y-94543794D01*
X197286112Y-94563647D01*
X197373056Y-94582128D01*
X197373061Y-94582128D01*
X197379513Y-94583500D01*
X197570487Y-94583500D01*
X197576939Y-94582128D01*
X197576944Y-94582128D01*
X197663888Y-94563647D01*
X197757288Y-94543794D01*
X197763319Y-94541109D01*
X197925722Y-94468803D01*
X197925724Y-94468802D01*
X197931752Y-94466118D01*
X198086253Y-94353866D01*
X198091786Y-94347721D01*
X198209621Y-94216852D01*
X198209622Y-94216851D01*
X198214040Y-94211944D01*
X198288304Y-94083315D01*
X198306223Y-94052279D01*
X198306224Y-94052278D01*
X198309527Y-94046556D01*
X198368542Y-93864928D01*
X198370647Y-93844905D01*
X198387814Y-93681565D01*
X198388504Y-93675000D01*
X198378756Y-93582249D01*
X198369232Y-93491635D01*
X198369232Y-93491633D01*
X198368542Y-93485072D01*
X198309527Y-93303444D01*
X198287837Y-93265875D01*
X198246013Y-93193435D01*
X198214040Y-93138056D01*
X198201344Y-93123955D01*
X198090675Y-93001045D01*
X198090674Y-93001044D01*
X198086253Y-92996134D01*
X197962681Y-92906353D01*
X197937094Y-92887763D01*
X197937093Y-92887762D01*
X197931752Y-92883882D01*
X197925724Y-92881198D01*
X197925722Y-92881197D01*
X197821352Y-92834729D01*
X197797182Y-92823968D01*
X197743087Y-92777988D01*
X197722437Y-92710061D01*
X197741789Y-92641753D01*
X197795000Y-92594751D01*
X197854513Y-92584742D01*
X197854513Y-92583500D01*
X198045487Y-92583500D01*
X198051939Y-92582128D01*
X198051944Y-92582128D01*
X198138888Y-92563647D01*
X198232288Y-92543794D01*
X198243074Y-92538992D01*
X198400722Y-92468803D01*
X198400724Y-92468802D01*
X198406752Y-92466118D01*
X198428308Y-92450457D01*
X198475571Y-92416118D01*
X198547849Y-92363605D01*
X198614715Y-92339747D01*
X198683867Y-92355827D01*
X198695970Y-92363605D01*
X198762905Y-92412236D01*
X198768248Y-92416118D01*
X198774276Y-92418802D01*
X198774278Y-92418803D01*
X198909183Y-92478866D01*
X198942712Y-92493794D01*
X199036112Y-92513647D01*
X199123056Y-92532128D01*
X199123061Y-92532128D01*
X199129513Y-92533500D01*
X199320487Y-92533500D01*
X199326939Y-92532128D01*
X199326944Y-92532128D01*
X199413887Y-92513647D01*
X199507288Y-92493794D01*
X199540817Y-92478866D01*
X199675722Y-92418803D01*
X199675724Y-92418802D01*
X199681752Y-92416118D01*
X199711174Y-92394742D01*
X199778040Y-92370883D01*
X199847192Y-92386962D01*
X199878871Y-92412367D01*
X199882249Y-92416118D01*
X199938747Y-92478866D01*
X200093248Y-92591118D01*
X200099276Y-92593802D01*
X200103504Y-92596243D01*
X200152495Y-92647627D01*
X200166500Y-92705360D01*
X200166500Y-95872476D01*
X200146498Y-95940597D01*
X200134142Y-95956779D01*
X200060960Y-96038056D01*
X199965473Y-96203444D01*
X199906458Y-96385072D01*
X199905768Y-96391633D01*
X199905768Y-96391635D01*
X199904527Y-96403444D01*
X199886496Y-96575000D01*
X199906458Y-96764928D01*
X199965473Y-96946556D01*
X200060960Y-97111944D01*
X200065378Y-97116851D01*
X200065379Y-97116852D01*
X200180351Y-97244541D01*
X200188747Y-97253866D01*
X200284841Y-97323683D01*
X200304842Y-97338214D01*
X200343248Y-97366118D01*
X200349276Y-97368802D01*
X200349278Y-97368803D01*
X200506688Y-97438886D01*
X200517712Y-97443794D01*
X200609245Y-97463250D01*
X200698056Y-97482128D01*
X200698061Y-97482128D01*
X200704513Y-97483500D01*
X200895487Y-97483500D01*
X200901939Y-97482128D01*
X200901944Y-97482128D01*
X200990755Y-97463250D01*
X201082288Y-97443794D01*
X201093312Y-97438886D01*
X201250722Y-97368803D01*
X201250724Y-97368802D01*
X201256752Y-97366118D01*
X201295159Y-97338214D01*
X201315159Y-97323683D01*
X201411253Y-97253866D01*
X201419649Y-97244541D01*
X201534621Y-97116852D01*
X201534622Y-97116851D01*
X201539040Y-97111944D01*
X201634527Y-96946556D01*
X201693542Y-96764928D01*
X201713504Y-96575000D01*
X201695473Y-96403444D01*
X201694232Y-96391635D01*
X201694232Y-96391633D01*
X201693542Y-96385072D01*
X201634527Y-96203444D01*
X201539040Y-96038056D01*
X201465863Y-95956785D01*
X201435147Y-95892779D01*
X201433500Y-95872476D01*
X201433500Y-94975000D01*
X203961496Y-94975000D01*
X203962186Y-94981565D01*
X203979483Y-95146133D01*
X203981458Y-95164928D01*
X204040473Y-95346556D01*
X204135960Y-95511944D01*
X204140378Y-95516851D01*
X204140379Y-95516852D01*
X204225681Y-95611589D01*
X204263747Y-95653866D01*
X204320922Y-95695406D01*
X204403579Y-95755460D01*
X204418248Y-95766118D01*
X204424276Y-95768802D01*
X204424278Y-95768803D01*
X204586679Y-95841108D01*
X204592712Y-95843794D01*
X204664001Y-95858947D01*
X204773056Y-95882128D01*
X204773061Y-95882128D01*
X204779513Y-95883500D01*
X204970487Y-95883500D01*
X204976939Y-95882128D01*
X204976944Y-95882128D01*
X205085999Y-95858947D01*
X205157288Y-95843794D01*
X205163315Y-95841111D01*
X205163323Y-95841108D01*
X205207952Y-95821237D01*
X205278319Y-95811802D01*
X205342616Y-95841908D01*
X205380430Y-95901996D01*
X205384512Y-95923172D01*
X205396344Y-96035747D01*
X205397034Y-96042310D01*
X205456049Y-96223938D01*
X205551536Y-96389326D01*
X205679323Y-96531248D01*
X205684664Y-96535128D01*
X205684669Y-96535133D01*
X205720616Y-96561250D01*
X205763969Y-96617472D01*
X205771864Y-96676356D01*
X205761496Y-96775000D01*
X205762186Y-96781565D01*
X205780129Y-96952279D01*
X205781458Y-96964928D01*
X205840473Y-97146556D01*
X205843776Y-97152278D01*
X205843777Y-97152279D01*
X205869154Y-97196233D01*
X205935960Y-97311944D01*
X205940378Y-97316851D01*
X205940379Y-97316852D01*
X206054678Y-97443794D01*
X206063747Y-97453866D01*
X206148466Y-97515418D01*
X206188966Y-97544843D01*
X206218248Y-97566118D01*
X206224276Y-97568802D01*
X206224278Y-97568803D01*
X206268869Y-97588656D01*
X206392712Y-97643794D01*
X206486113Y-97663647D01*
X206573056Y-97682128D01*
X206573061Y-97682128D01*
X206579513Y-97683500D01*
X206770487Y-97683500D01*
X206776939Y-97682128D01*
X206776944Y-97682128D01*
X206863887Y-97663647D01*
X206957288Y-97643794D01*
X207081131Y-97588656D01*
X207125722Y-97568803D01*
X207125724Y-97568802D01*
X207131752Y-97566118D01*
X207161035Y-97544843D01*
X207201534Y-97515418D01*
X207286253Y-97453866D01*
X207295322Y-97443794D01*
X207409621Y-97316852D01*
X207409622Y-97316851D01*
X207414040Y-97311944D01*
X207480846Y-97196233D01*
X207506223Y-97152279D01*
X207506224Y-97152278D01*
X207509527Y-97146556D01*
X207568542Y-96964928D01*
X207569872Y-96952279D01*
X207587814Y-96781565D01*
X207588504Y-96775000D01*
X207572340Y-96621206D01*
X207569232Y-96591635D01*
X207569232Y-96591633D01*
X207568542Y-96585072D01*
X207509527Y-96403444D01*
X207414040Y-96238056D01*
X207405701Y-96228794D01*
X207290675Y-96101045D01*
X207290674Y-96101044D01*
X207286253Y-96096134D01*
X207280912Y-96092254D01*
X207280907Y-96092249D01*
X207244960Y-96066132D01*
X207201607Y-96009910D01*
X207193712Y-95951026D01*
X207199730Y-95893774D01*
X207204080Y-95852382D01*
X207195947Y-95775000D01*
X207184808Y-95669017D01*
X207184808Y-95669015D01*
X207184118Y-95662454D01*
X207125103Y-95480826D01*
X207029616Y-95315438D01*
X207002953Y-95285825D01*
X206906251Y-95178427D01*
X206906250Y-95178426D01*
X206901829Y-95173516D01*
X206747328Y-95061264D01*
X206741300Y-95058580D01*
X206741298Y-95058579D01*
X206578895Y-94986273D01*
X206578894Y-94986273D01*
X206572864Y-94983588D01*
X206466446Y-94960968D01*
X206392520Y-94945254D01*
X206392515Y-94945254D01*
X206386063Y-94943882D01*
X206195089Y-94943882D01*
X206188637Y-94945254D01*
X206188632Y-94945254D01*
X206114706Y-94960968D01*
X206008288Y-94983588D01*
X206002261Y-94986271D01*
X206002253Y-94986274D01*
X205957624Y-95006145D01*
X205887257Y-95015580D01*
X205822960Y-94985474D01*
X205785146Y-94925386D01*
X205781064Y-94904210D01*
X205769232Y-94791635D01*
X205769232Y-94791633D01*
X205768542Y-94785072D01*
X205749023Y-94725000D01*
X223511496Y-94725000D01*
X223512186Y-94731565D01*
X223530332Y-94904210D01*
X223531458Y-94914928D01*
X223590473Y-95096556D01*
X223685960Y-95261944D01*
X223690378Y-95266851D01*
X223690379Y-95266852D01*
X223780180Y-95366586D01*
X223813747Y-95403866D01*
X223853403Y-95432678D01*
X223953572Y-95505455D01*
X223968248Y-95516118D01*
X223974276Y-95518802D01*
X223974278Y-95518803D01*
X224136681Y-95591109D01*
X224142712Y-95593794D01*
X224236113Y-95613647D01*
X224323056Y-95632128D01*
X224323061Y-95632128D01*
X224329513Y-95633500D01*
X224520487Y-95633500D01*
X224526939Y-95632128D01*
X224526944Y-95632128D01*
X224613887Y-95613647D01*
X224707288Y-95593794D01*
X224713319Y-95591109D01*
X224875722Y-95518803D01*
X224875724Y-95518802D01*
X224881752Y-95516118D01*
X224896429Y-95505455D01*
X224996597Y-95432678D01*
X225036253Y-95403866D01*
X225069820Y-95366586D01*
X225159621Y-95266852D01*
X225159622Y-95266851D01*
X225164040Y-95261944D01*
X225259527Y-95096556D01*
X225318542Y-94914928D01*
X225319669Y-94904210D01*
X225337814Y-94731565D01*
X225338504Y-94725000D01*
X225328664Y-94631373D01*
X225319232Y-94541635D01*
X225319232Y-94541633D01*
X225318542Y-94535072D01*
X225259527Y-94353444D01*
X225234922Y-94310826D01*
X225167341Y-94193774D01*
X225164040Y-94188056D01*
X225119467Y-94138552D01*
X225040675Y-94051045D01*
X225040674Y-94051044D01*
X225036253Y-94046134D01*
X224921781Y-93962965D01*
X224887094Y-93937763D01*
X224887093Y-93937762D01*
X224881752Y-93933882D01*
X224875724Y-93931198D01*
X224875722Y-93931197D01*
X224713319Y-93858891D01*
X224713318Y-93858891D01*
X224707288Y-93856206D01*
X224613887Y-93836353D01*
X224526944Y-93817872D01*
X224526939Y-93817872D01*
X224520487Y-93816500D01*
X224329513Y-93816500D01*
X224323061Y-93817872D01*
X224323056Y-93817872D01*
X224236113Y-93836353D01*
X224142712Y-93856206D01*
X224136682Y-93858891D01*
X224136681Y-93858891D01*
X223974278Y-93931197D01*
X223974276Y-93931198D01*
X223968248Y-93933882D01*
X223962907Y-93937762D01*
X223962906Y-93937763D01*
X223928219Y-93962965D01*
X223813747Y-94046134D01*
X223809326Y-94051044D01*
X223809325Y-94051045D01*
X223730534Y-94138552D01*
X223685960Y-94188056D01*
X223682659Y-94193774D01*
X223615079Y-94310826D01*
X223590473Y-94353444D01*
X223531458Y-94535072D01*
X223530768Y-94541633D01*
X223530768Y-94541635D01*
X223521336Y-94631373D01*
X223511496Y-94725000D01*
X205749023Y-94725000D01*
X205709527Y-94603444D01*
X205614040Y-94438056D01*
X205582025Y-94402499D01*
X205490675Y-94301045D01*
X205490674Y-94301044D01*
X205486253Y-94296134D01*
X205480909Y-94292251D01*
X205480905Y-94292247D01*
X205433216Y-94257600D01*
X205389861Y-94201378D01*
X205383785Y-94130642D01*
X205416917Y-94067850D01*
X205433215Y-94053728D01*
X205483216Y-94017400D01*
X205536253Y-93978866D01*
X205579174Y-93931197D01*
X205659621Y-93841852D01*
X205659622Y-93841851D01*
X205664040Y-93836944D01*
X205759527Y-93671556D01*
X205818542Y-93489928D01*
X205821446Y-93462304D01*
X205837814Y-93306565D01*
X205838504Y-93300000D01*
X205835396Y-93270433D01*
X205819232Y-93116635D01*
X205819232Y-93116633D01*
X205818542Y-93110072D01*
X205759527Y-92928444D01*
X205715257Y-92851766D01*
X205698520Y-92782771D01*
X205721741Y-92715679D01*
X205730741Y-92704457D01*
X205809621Y-92616852D01*
X205809622Y-92616851D01*
X205814040Y-92611944D01*
X205909527Y-92446556D01*
X205968542Y-92264928D01*
X205973198Y-92220634D01*
X205987814Y-92081565D01*
X205988504Y-92075000D01*
X205971483Y-91913056D01*
X205969232Y-91891635D01*
X205969232Y-91891633D01*
X205968542Y-91885072D01*
X205929364Y-91764494D01*
X212367170Y-91764494D01*
X212367467Y-91769646D01*
X212367467Y-91769650D01*
X212373323Y-91871206D01*
X212380879Y-92002255D01*
X212382016Y-92007301D01*
X212382017Y-92007307D01*
X212396759Y-92072721D01*
X212433237Y-92234585D01*
X212435179Y-92239367D01*
X212435180Y-92239371D01*
X212520893Y-92450457D01*
X212522837Y-92455244D01*
X212647274Y-92658306D01*
X212803204Y-92838317D01*
X212986442Y-92990444D01*
X212990894Y-92993046D01*
X212990899Y-92993049D01*
X213155832Y-93089428D01*
X213192065Y-93110601D01*
X213414552Y-93195560D01*
X213419618Y-93196591D01*
X213419619Y-93196591D01*
X213436375Y-93200000D01*
X213647928Y-93243041D01*
X213777712Y-93247800D01*
X213880760Y-93251579D01*
X213880764Y-93251579D01*
X213885924Y-93251768D01*
X213891044Y-93251112D01*
X213891046Y-93251112D01*
X214117023Y-93222164D01*
X214117024Y-93222164D01*
X214122151Y-93221507D01*
X214205200Y-93196591D01*
X214345316Y-93154554D01*
X214345317Y-93154553D01*
X214350262Y-93153070D01*
X214564133Y-93048295D01*
X214568336Y-93045297D01*
X214568341Y-93045294D01*
X214753816Y-92912996D01*
X214753818Y-92912994D01*
X214758020Y-92909997D01*
X214926716Y-92741889D01*
X214984979Y-92660807D01*
X215040972Y-92617160D01*
X215111676Y-92610714D01*
X215174640Y-92643516D01*
X215186582Y-92657176D01*
X215187274Y-92658306D01*
X215343204Y-92838317D01*
X215526442Y-92990444D01*
X215530894Y-92993046D01*
X215530899Y-92993049D01*
X215695832Y-93089428D01*
X215732065Y-93110601D01*
X215954552Y-93195560D01*
X215959618Y-93196591D01*
X215959619Y-93196591D01*
X215976375Y-93200000D01*
X216187928Y-93243041D01*
X216317712Y-93247800D01*
X216420760Y-93251579D01*
X216420764Y-93251579D01*
X216425924Y-93251768D01*
X216431044Y-93251112D01*
X216431046Y-93251112D01*
X216657023Y-93222164D01*
X216657024Y-93222164D01*
X216662151Y-93221507D01*
X216745200Y-93196591D01*
X216885316Y-93154554D01*
X216885317Y-93154553D01*
X216890262Y-93153070D01*
X217104133Y-93048295D01*
X217108336Y-93045297D01*
X217108341Y-93045294D01*
X217293816Y-92912996D01*
X217293818Y-92912994D01*
X217298020Y-92909997D01*
X217466716Y-92741889D01*
X217524979Y-92660807D01*
X217580972Y-92617160D01*
X217651676Y-92610714D01*
X217714640Y-92643516D01*
X217726582Y-92657176D01*
X217727274Y-92658306D01*
X217883204Y-92838317D01*
X218066442Y-92990444D01*
X218070894Y-92993046D01*
X218070899Y-92993049D01*
X218235832Y-93089428D01*
X218272065Y-93110601D01*
X218494552Y-93195560D01*
X218499618Y-93196591D01*
X218499619Y-93196591D01*
X218516375Y-93200000D01*
X218727928Y-93243041D01*
X218857712Y-93247800D01*
X218960760Y-93251579D01*
X218960764Y-93251579D01*
X218965924Y-93251768D01*
X218971044Y-93251112D01*
X218971046Y-93251112D01*
X219197023Y-93222164D01*
X219197024Y-93222164D01*
X219202151Y-93221507D01*
X219285200Y-93196591D01*
X219425316Y-93154554D01*
X219425317Y-93154553D01*
X219430262Y-93153070D01*
X219644133Y-93048295D01*
X219648336Y-93045297D01*
X219648341Y-93045294D01*
X219833816Y-92912996D01*
X219833818Y-92912994D01*
X219838020Y-92909997D01*
X220006716Y-92741889D01*
X220064979Y-92660807D01*
X220120972Y-92617160D01*
X220191676Y-92610714D01*
X220254640Y-92643516D01*
X220266582Y-92657176D01*
X220267274Y-92658306D01*
X220423204Y-92838317D01*
X220606442Y-92990444D01*
X220610894Y-92993046D01*
X220610899Y-92993049D01*
X220775832Y-93089428D01*
X220812065Y-93110601D01*
X221034552Y-93195560D01*
X221039618Y-93196591D01*
X221039619Y-93196591D01*
X221056375Y-93200000D01*
X221267928Y-93243041D01*
X221397712Y-93247800D01*
X221500760Y-93251579D01*
X221500764Y-93251579D01*
X221505924Y-93251768D01*
X221511044Y-93251112D01*
X221511046Y-93251112D01*
X221737023Y-93222164D01*
X221737024Y-93222164D01*
X221742151Y-93221507D01*
X221825200Y-93196591D01*
X221965316Y-93154554D01*
X221965317Y-93154553D01*
X221970262Y-93153070D01*
X222184133Y-93048295D01*
X222188336Y-93045297D01*
X222188341Y-93045294D01*
X222373816Y-92912996D01*
X222373818Y-92912994D01*
X222378020Y-92909997D01*
X222546716Y-92741889D01*
X222604979Y-92660807D01*
X222660972Y-92617160D01*
X222731676Y-92610714D01*
X222794640Y-92643516D01*
X222806582Y-92657176D01*
X222807274Y-92658306D01*
X222963204Y-92838317D01*
X223146442Y-92990444D01*
X223150894Y-92993046D01*
X223150899Y-92993049D01*
X223315832Y-93089428D01*
X223352065Y-93110601D01*
X223574552Y-93195560D01*
X223579618Y-93196591D01*
X223579619Y-93196591D01*
X223596375Y-93200000D01*
X223807928Y-93243041D01*
X223937712Y-93247800D01*
X224040760Y-93251579D01*
X224040764Y-93251579D01*
X224045924Y-93251768D01*
X224051044Y-93251112D01*
X224051046Y-93251112D01*
X224277023Y-93222164D01*
X224277024Y-93222164D01*
X224282151Y-93221507D01*
X224365200Y-93196591D01*
X224505316Y-93154554D01*
X224505317Y-93154553D01*
X224510262Y-93153070D01*
X224724133Y-93048295D01*
X224728336Y-93045297D01*
X224728341Y-93045294D01*
X224913810Y-92913000D01*
X224918020Y-92909997D01*
X224920896Y-92907131D01*
X224985541Y-92878571D01*
X225055685Y-92889544D01*
X225108760Y-92936698D01*
X225119908Y-92959270D01*
X225126874Y-92977850D01*
X225135414Y-92993449D01*
X225211915Y-93095524D01*
X225224476Y-93108085D01*
X225326551Y-93184586D01*
X225342146Y-93193124D01*
X225462594Y-93238278D01*
X225477849Y-93241905D01*
X225528714Y-93247431D01*
X225535528Y-93247800D01*
X226247885Y-93247800D01*
X226263124Y-93243325D01*
X226264329Y-93241935D01*
X226266000Y-93234252D01*
X226266000Y-93229684D01*
X226774000Y-93229684D01*
X226778475Y-93244923D01*
X226779865Y-93246128D01*
X226787548Y-93247799D01*
X227504469Y-93247799D01*
X227511290Y-93247429D01*
X227562152Y-93241905D01*
X227577404Y-93238279D01*
X227697854Y-93193124D01*
X227713449Y-93184586D01*
X227815524Y-93108085D01*
X227828085Y-93095524D01*
X227904586Y-92993449D01*
X227913124Y-92977854D01*
X227958278Y-92857406D01*
X227961905Y-92842151D01*
X227967431Y-92791286D01*
X227967800Y-92784472D01*
X227967800Y-92072115D01*
X227963325Y-92056876D01*
X227961935Y-92055671D01*
X227954252Y-92054000D01*
X226792115Y-92054000D01*
X226776876Y-92058475D01*
X226775671Y-92059865D01*
X226774000Y-92067548D01*
X226774000Y-93229684D01*
X226266000Y-93229684D01*
X226266000Y-91527885D01*
X226774000Y-91527885D01*
X226778475Y-91543124D01*
X226779865Y-91544329D01*
X226787548Y-91546000D01*
X227949684Y-91546000D01*
X227964923Y-91541525D01*
X227966128Y-91540135D01*
X227967799Y-91532452D01*
X227967799Y-90815531D01*
X227967429Y-90808710D01*
X227961905Y-90757848D01*
X227958279Y-90742596D01*
X227913124Y-90622146D01*
X227904586Y-90606551D01*
X227828085Y-90504476D01*
X227815524Y-90491915D01*
X227713449Y-90415414D01*
X227697854Y-90406876D01*
X227577406Y-90361722D01*
X227562151Y-90358095D01*
X227511286Y-90352569D01*
X227504472Y-90352200D01*
X226792115Y-90352200D01*
X226776876Y-90356675D01*
X226775671Y-90358065D01*
X226774000Y-90365748D01*
X226774000Y-91527885D01*
X226266000Y-91527885D01*
X226266000Y-90370316D01*
X226261525Y-90355077D01*
X226260135Y-90353872D01*
X226252452Y-90352201D01*
X225535531Y-90352201D01*
X225528710Y-90352571D01*
X225477848Y-90358095D01*
X225462596Y-90361721D01*
X225342146Y-90406876D01*
X225326551Y-90415414D01*
X225224476Y-90491915D01*
X225211915Y-90504476D01*
X225135414Y-90606551D01*
X225126876Y-90622146D01*
X225118630Y-90644142D01*
X225075988Y-90700906D01*
X225009427Y-90725606D01*
X224940078Y-90710399D01*
X224922560Y-90698797D01*
X224824313Y-90621206D01*
X224788278Y-90592747D01*
X224788273Y-90592744D01*
X224784224Y-90589546D01*
X224779708Y-90587053D01*
X224779705Y-90587051D01*
X224580250Y-90476946D01*
X224580246Y-90476944D01*
X224575726Y-90474449D01*
X224570857Y-90472725D01*
X224570853Y-90472723D01*
X224356105Y-90396676D01*
X224356101Y-90396675D01*
X224351230Y-90394950D01*
X224346140Y-90394043D01*
X224346135Y-90394042D01*
X224212933Y-90370316D01*
X224116764Y-90353186D01*
X224027637Y-90352097D01*
X223883795Y-90350339D01*
X223883793Y-90350339D01*
X223878625Y-90350276D01*
X223643209Y-90386300D01*
X223416838Y-90460289D01*
X223357616Y-90491118D01*
X223244740Y-90549878D01*
X223205590Y-90570258D01*
X223201457Y-90573361D01*
X223201454Y-90573363D01*
X223019275Y-90710147D01*
X223015140Y-90713252D01*
X222850602Y-90885431D01*
X222816936Y-90934784D01*
X222815186Y-90937349D01*
X222760274Y-90982351D01*
X222689749Y-90990522D01*
X222626002Y-90959267D01*
X222605306Y-90934784D01*
X222594217Y-90917642D01*
X222594212Y-90917636D01*
X222591406Y-90913298D01*
X222583896Y-90905044D01*
X222539475Y-90856226D01*
X222431124Y-90737150D01*
X222427073Y-90733951D01*
X222427069Y-90733947D01*
X222248278Y-90592747D01*
X222248273Y-90592744D01*
X222244224Y-90589546D01*
X222239708Y-90587053D01*
X222239705Y-90587051D01*
X222040250Y-90476946D01*
X222040246Y-90476944D01*
X222035726Y-90474449D01*
X222030857Y-90472725D01*
X222030853Y-90472723D01*
X221816105Y-90396676D01*
X221816101Y-90396675D01*
X221811230Y-90394950D01*
X221806140Y-90394043D01*
X221806135Y-90394042D01*
X221672933Y-90370316D01*
X221576764Y-90353186D01*
X221487637Y-90352097D01*
X221343795Y-90350339D01*
X221343793Y-90350339D01*
X221338625Y-90350276D01*
X221103209Y-90386300D01*
X220876838Y-90460289D01*
X220817616Y-90491118D01*
X220704740Y-90549878D01*
X220665590Y-90570258D01*
X220661457Y-90573361D01*
X220661454Y-90573363D01*
X220479275Y-90710147D01*
X220475140Y-90713252D01*
X220310602Y-90885431D01*
X220276936Y-90934784D01*
X220275186Y-90937349D01*
X220220274Y-90982351D01*
X220149749Y-90990522D01*
X220086002Y-90959267D01*
X220065306Y-90934784D01*
X220054217Y-90917642D01*
X220054212Y-90917636D01*
X220051406Y-90913298D01*
X220043896Y-90905044D01*
X219999475Y-90856226D01*
X219891124Y-90737150D01*
X219887073Y-90733951D01*
X219887069Y-90733947D01*
X219708278Y-90592747D01*
X219708273Y-90592744D01*
X219704224Y-90589546D01*
X219699708Y-90587053D01*
X219699705Y-90587051D01*
X219500250Y-90476946D01*
X219500246Y-90476944D01*
X219495726Y-90474449D01*
X219490857Y-90472725D01*
X219490853Y-90472723D01*
X219276105Y-90396676D01*
X219276101Y-90396675D01*
X219271230Y-90394950D01*
X219266140Y-90394043D01*
X219266135Y-90394042D01*
X219132933Y-90370316D01*
X219036764Y-90353186D01*
X218947637Y-90352097D01*
X218803795Y-90350339D01*
X218803793Y-90350339D01*
X218798625Y-90350276D01*
X218563209Y-90386300D01*
X218336838Y-90460289D01*
X218277616Y-90491118D01*
X218164740Y-90549878D01*
X218125590Y-90570258D01*
X218121457Y-90573361D01*
X218121454Y-90573363D01*
X217939275Y-90710147D01*
X217935140Y-90713252D01*
X217770602Y-90885431D01*
X217736936Y-90934784D01*
X217735186Y-90937349D01*
X217680274Y-90982351D01*
X217609749Y-90990522D01*
X217546002Y-90959267D01*
X217525306Y-90934784D01*
X217514217Y-90917642D01*
X217514212Y-90917636D01*
X217511406Y-90913298D01*
X217503896Y-90905044D01*
X217459475Y-90856226D01*
X217351124Y-90737150D01*
X217347073Y-90733951D01*
X217347069Y-90733947D01*
X217168278Y-90592747D01*
X217168273Y-90592744D01*
X217164224Y-90589546D01*
X217159708Y-90587053D01*
X217159705Y-90587051D01*
X216960250Y-90476946D01*
X216960246Y-90476944D01*
X216955726Y-90474449D01*
X216950857Y-90472725D01*
X216950853Y-90472723D01*
X216736105Y-90396676D01*
X216736101Y-90396675D01*
X216731230Y-90394950D01*
X216726140Y-90394043D01*
X216726135Y-90394042D01*
X216592933Y-90370316D01*
X216496764Y-90353186D01*
X216407637Y-90352097D01*
X216263795Y-90350339D01*
X216263793Y-90350339D01*
X216258625Y-90350276D01*
X216023209Y-90386300D01*
X215796838Y-90460289D01*
X215737616Y-90491118D01*
X215624740Y-90549878D01*
X215585590Y-90570258D01*
X215581457Y-90573361D01*
X215581454Y-90573363D01*
X215399275Y-90710147D01*
X215395140Y-90713252D01*
X215230602Y-90885431D01*
X215196936Y-90934784D01*
X215195186Y-90937349D01*
X215140274Y-90982351D01*
X215069749Y-90990522D01*
X215006002Y-90959267D01*
X214985306Y-90934784D01*
X214974217Y-90917642D01*
X214974212Y-90917636D01*
X214971406Y-90913298D01*
X214963896Y-90905044D01*
X214919475Y-90856226D01*
X214811124Y-90737150D01*
X214807073Y-90733951D01*
X214807069Y-90733947D01*
X214628278Y-90592747D01*
X214628273Y-90592744D01*
X214624224Y-90589546D01*
X214619708Y-90587053D01*
X214619705Y-90587051D01*
X214420250Y-90476946D01*
X214420246Y-90476944D01*
X214415726Y-90474449D01*
X214410857Y-90472725D01*
X214410853Y-90472723D01*
X214196105Y-90396676D01*
X214196101Y-90396675D01*
X214191230Y-90394950D01*
X214186140Y-90394043D01*
X214186135Y-90394042D01*
X214052933Y-90370316D01*
X213956764Y-90353186D01*
X213867637Y-90352097D01*
X213723795Y-90350339D01*
X213723793Y-90350339D01*
X213718625Y-90350276D01*
X213483209Y-90386300D01*
X213256838Y-90460289D01*
X213197616Y-90491118D01*
X213084740Y-90549878D01*
X213045590Y-90570258D01*
X213041457Y-90573361D01*
X213041454Y-90573363D01*
X212859275Y-90710147D01*
X212855140Y-90713252D01*
X212690602Y-90885431D01*
X212687691Y-90889699D01*
X212687687Y-90889704D01*
X212640234Y-90959267D01*
X212556394Y-91082172D01*
X212541964Y-91113259D01*
X212462760Y-91283891D01*
X212456122Y-91298191D01*
X212392477Y-91527685D01*
X212391928Y-91532819D01*
X212391928Y-91532821D01*
X212390827Y-91543124D01*
X212367170Y-91764494D01*
X205929364Y-91764494D01*
X205909527Y-91703444D01*
X205814040Y-91538056D01*
X205809327Y-91532821D01*
X205690675Y-91401045D01*
X205690674Y-91401044D01*
X205686253Y-91396134D01*
X205558677Y-91303444D01*
X205537094Y-91287763D01*
X205537093Y-91287762D01*
X205531752Y-91283882D01*
X205525724Y-91281198D01*
X205525722Y-91281197D01*
X205363319Y-91208891D01*
X205363318Y-91208891D01*
X205357288Y-91206206D01*
X205263887Y-91186353D01*
X205176944Y-91167872D01*
X205176939Y-91167872D01*
X205170487Y-91166500D01*
X204979513Y-91166500D01*
X204973061Y-91167872D01*
X204973056Y-91167872D01*
X204886113Y-91186353D01*
X204792712Y-91206206D01*
X204786682Y-91208891D01*
X204786681Y-91208891D01*
X204624278Y-91281197D01*
X204624276Y-91281198D01*
X204618248Y-91283882D01*
X204612907Y-91287762D01*
X204612906Y-91287763D01*
X204591323Y-91303444D01*
X204463747Y-91396134D01*
X204459326Y-91401044D01*
X204459325Y-91401045D01*
X204340674Y-91532821D01*
X204335960Y-91538056D01*
X204240473Y-91703444D01*
X204181458Y-91885072D01*
X204180768Y-91891633D01*
X204180768Y-91891635D01*
X204178517Y-91913056D01*
X204161496Y-92075000D01*
X204162186Y-92081565D01*
X204176803Y-92220634D01*
X204181458Y-92264928D01*
X204240473Y-92446556D01*
X204261369Y-92482749D01*
X204284743Y-92523234D01*
X204301480Y-92592229D01*
X204278259Y-92659321D01*
X204269259Y-92670543D01*
X204185960Y-92763056D01*
X204142508Y-92838317D01*
X204097990Y-92915425D01*
X204090473Y-92928444D01*
X204031458Y-93110072D01*
X204030768Y-93116633D01*
X204030768Y-93116635D01*
X204014604Y-93270433D01*
X204011496Y-93300000D01*
X204012186Y-93306565D01*
X204028555Y-93462304D01*
X204031458Y-93489928D01*
X204090473Y-93671556D01*
X204185960Y-93836944D01*
X204190378Y-93841851D01*
X204190379Y-93841852D01*
X204270826Y-93931197D01*
X204313747Y-93978866D01*
X204319087Y-93982746D01*
X204319095Y-93982753D01*
X204366784Y-94017400D01*
X204410139Y-94073622D01*
X204416215Y-94144358D01*
X204383083Y-94207150D01*
X204366785Y-94221272D01*
X204263747Y-94296134D01*
X204259326Y-94301044D01*
X204259325Y-94301045D01*
X204167976Y-94402499D01*
X204135960Y-94438056D01*
X204040473Y-94603444D01*
X203981458Y-94785072D01*
X203980768Y-94791633D01*
X203980768Y-94791635D01*
X203967810Y-94914928D01*
X203961496Y-94975000D01*
X201433500Y-94975000D01*
X201433500Y-92128763D01*
X201434027Y-92117579D01*
X201435701Y-92110091D01*
X201434904Y-92084729D01*
X201433640Y-92044509D01*
X201439744Y-92001618D01*
X201441502Y-91996207D01*
X201441502Y-91996205D01*
X201443542Y-91989928D01*
X201451021Y-91918774D01*
X201462814Y-91806565D01*
X201463504Y-91800000D01*
X201448390Y-91656197D01*
X201444232Y-91616635D01*
X201444232Y-91616633D01*
X201443542Y-91610072D01*
X201384527Y-91428444D01*
X201289040Y-91263056D01*
X201262428Y-91233500D01*
X201204181Y-91168810D01*
X201173463Y-91104803D01*
X201182228Y-91034349D01*
X201227691Y-90979818D01*
X201297817Y-90958500D01*
X201825400Y-90958500D01*
X201828646Y-90958163D01*
X201828650Y-90958163D01*
X201924308Y-90948238D01*
X201924312Y-90948237D01*
X201931166Y-90947526D01*
X201937702Y-90945345D01*
X201937704Y-90945345D01*
X202069806Y-90901272D01*
X202098946Y-90891550D01*
X202249348Y-90798478D01*
X202374305Y-90673303D01*
X202386286Y-90653866D01*
X202463275Y-90528968D01*
X202463276Y-90528966D01*
X202467115Y-90522738D01*
X202503495Y-90413056D01*
X202520632Y-90361389D01*
X202520632Y-90361387D01*
X202522797Y-90354861D01*
X202533500Y-90250400D01*
X202533500Y-89600000D01*
X207111496Y-89600000D01*
X207112186Y-89606565D01*
X207130418Y-89780030D01*
X207131458Y-89789928D01*
X207190473Y-89971556D01*
X207285960Y-90136944D01*
X207290378Y-90141851D01*
X207290379Y-90141852D01*
X207395615Y-90258728D01*
X207413747Y-90278866D01*
X207455325Y-90309074D01*
X207561617Y-90386300D01*
X207568248Y-90391118D01*
X207574276Y-90393802D01*
X207574278Y-90393803D01*
X207736681Y-90466109D01*
X207742712Y-90468794D01*
X207829479Y-90487237D01*
X207923056Y-90507128D01*
X207923061Y-90507128D01*
X207929513Y-90508500D01*
X208120487Y-90508500D01*
X208126939Y-90507128D01*
X208126944Y-90507128D01*
X208220521Y-90487237D01*
X208307288Y-90468794D01*
X208313319Y-90466109D01*
X208475722Y-90393803D01*
X208475724Y-90393802D01*
X208481752Y-90391118D01*
X208488384Y-90386300D01*
X208594675Y-90309074D01*
X208636253Y-90278866D01*
X208654385Y-90258728D01*
X208759621Y-90141852D01*
X208759622Y-90141851D01*
X208764040Y-90136944D01*
X208859527Y-89971556D01*
X208918542Y-89789928D01*
X208919583Y-89780030D01*
X208937814Y-89606565D01*
X208938504Y-89600000D01*
X208928851Y-89508154D01*
X208919232Y-89416635D01*
X208919232Y-89416633D01*
X208918542Y-89410072D01*
X208859527Y-89228444D01*
X208764040Y-89063056D01*
X208750504Y-89048022D01*
X208640675Y-88926045D01*
X208640674Y-88926044D01*
X208636253Y-88921134D01*
X208481752Y-88808882D01*
X208475724Y-88806198D01*
X208475722Y-88806197D01*
X208313319Y-88733891D01*
X208313318Y-88733891D01*
X208307288Y-88731206D01*
X208192016Y-88706704D01*
X208126944Y-88692872D01*
X208126939Y-88692872D01*
X208120487Y-88691500D01*
X207929513Y-88691500D01*
X207923061Y-88692872D01*
X207923056Y-88692872D01*
X207857984Y-88706704D01*
X207742712Y-88731206D01*
X207736682Y-88733891D01*
X207736681Y-88733891D01*
X207574278Y-88806197D01*
X207574276Y-88806198D01*
X207568248Y-88808882D01*
X207413747Y-88921134D01*
X207409326Y-88926044D01*
X207409325Y-88926045D01*
X207299497Y-89048022D01*
X207285960Y-89063056D01*
X207190473Y-89228444D01*
X207131458Y-89410072D01*
X207130768Y-89416633D01*
X207130768Y-89416635D01*
X207121149Y-89508154D01*
X207111496Y-89600000D01*
X202533500Y-89600000D01*
X202533500Y-89439594D01*
X202553502Y-89371473D01*
X202570405Y-89350499D01*
X202800499Y-89120405D01*
X202862811Y-89086379D01*
X202889594Y-89083500D01*
X202945487Y-89083500D01*
X202951939Y-89082128D01*
X202951944Y-89082128D01*
X203049510Y-89061389D01*
X203132288Y-89043794D01*
X203138319Y-89041109D01*
X203300722Y-88968803D01*
X203300724Y-88968802D01*
X203306752Y-88966118D01*
X203461253Y-88853866D01*
X203481656Y-88831206D01*
X203584621Y-88716852D01*
X203584622Y-88716851D01*
X203589040Y-88711944D01*
X203684527Y-88546556D01*
X203743542Y-88364928D01*
X203763504Y-88175000D01*
X203743542Y-87985072D01*
X203730960Y-87946350D01*
X203713681Y-87893169D01*
X203711654Y-87822201D01*
X203748316Y-87761404D01*
X203807317Y-87730987D01*
X203975822Y-87695169D01*
X203975827Y-87695167D01*
X203982288Y-87693794D01*
X203988319Y-87691109D01*
X204150722Y-87618803D01*
X204150724Y-87618802D01*
X204156752Y-87616118D01*
X204166653Y-87608925D01*
X204212157Y-87575864D01*
X204311253Y-87503866D01*
X204398738Y-87406704D01*
X204434621Y-87366852D01*
X204434622Y-87366851D01*
X204439040Y-87361944D01*
X204515583Y-87229368D01*
X204531223Y-87202279D01*
X204531224Y-87202278D01*
X204534527Y-87196556D01*
X204593542Y-87014928D01*
X204613504Y-86825000D01*
X204609374Y-86785702D01*
X204594232Y-86641635D01*
X204594232Y-86641633D01*
X204593542Y-86635072D01*
X204534527Y-86453444D01*
X204439040Y-86288056D01*
X204333344Y-86170668D01*
X204315675Y-86151045D01*
X204315674Y-86151044D01*
X204311253Y-86146134D01*
X204156752Y-86033882D01*
X204150724Y-86031198D01*
X204150722Y-86031197D01*
X203988319Y-85958891D01*
X203988318Y-85958891D01*
X203982288Y-85956206D01*
X203874501Y-85933295D01*
X203801944Y-85917872D01*
X203801939Y-85917872D01*
X203795487Y-85916500D01*
X203604513Y-85916500D01*
X203598061Y-85917872D01*
X203598056Y-85917872D01*
X203525499Y-85933295D01*
X203417712Y-85956206D01*
X203411682Y-85958891D01*
X203411681Y-85958891D01*
X203249278Y-86031197D01*
X203249276Y-86031198D01*
X203243248Y-86033882D01*
X203088747Y-86146134D01*
X203084326Y-86151044D01*
X203084325Y-86151045D01*
X203066657Y-86170668D01*
X202960960Y-86288056D01*
X202865473Y-86453444D01*
X202806458Y-86635072D01*
X202805768Y-86641633D01*
X202805768Y-86641635D01*
X202790626Y-86785702D01*
X202786496Y-86825000D01*
X202806458Y-87014928D01*
X202808498Y-87021206D01*
X202836319Y-87106831D01*
X202838346Y-87177799D01*
X202801684Y-87238596D01*
X202742683Y-87269013D01*
X202574178Y-87304831D01*
X202574173Y-87304833D01*
X202567712Y-87306206D01*
X202561682Y-87308891D01*
X202561681Y-87308891D01*
X202399278Y-87381197D01*
X202399276Y-87381198D01*
X202393248Y-87383882D01*
X202387907Y-87387762D01*
X202387906Y-87387763D01*
X202374273Y-87397668D01*
X202238747Y-87496134D01*
X202234326Y-87501044D01*
X202234325Y-87501045D01*
X202134208Y-87612237D01*
X202110960Y-87638056D01*
X202015473Y-87803444D01*
X201956458Y-87985072D01*
X201955768Y-87991633D01*
X201955768Y-87991635D01*
X201939093Y-88150292D01*
X201912080Y-88215949D01*
X201902878Y-88226217D01*
X201624500Y-88504595D01*
X201562188Y-88538621D01*
X201535405Y-88541500D01*
X201024600Y-88541500D01*
X201021354Y-88541837D01*
X201021350Y-88541837D01*
X200925692Y-88551762D01*
X200925688Y-88551763D01*
X200918834Y-88552474D01*
X200912298Y-88554655D01*
X200912296Y-88554655D01*
X200780194Y-88598728D01*
X200751054Y-88608450D01*
X200600652Y-88701522D01*
X200595479Y-88706704D01*
X200514216Y-88788109D01*
X200451934Y-88822188D01*
X200381114Y-88817185D01*
X200336025Y-88788264D01*
X200253483Y-88705866D01*
X200248303Y-88700695D01*
X200233386Y-88691500D01*
X200103968Y-88611725D01*
X200103966Y-88611724D01*
X200097738Y-88607885D01*
X199937254Y-88554655D01*
X199936389Y-88554368D01*
X199936387Y-88554368D01*
X199929861Y-88552203D01*
X199923025Y-88551503D01*
X199923022Y-88551502D01*
X199874746Y-88546556D01*
X199825400Y-88541500D01*
X199024600Y-88541500D01*
X199021354Y-88541837D01*
X199021350Y-88541837D01*
X198925692Y-88551762D01*
X198925688Y-88551763D01*
X198918834Y-88552474D01*
X198912298Y-88554655D01*
X198912296Y-88554655D01*
X198780194Y-88598728D01*
X198751054Y-88608450D01*
X198744822Y-88612306D01*
X198744823Y-88612306D01*
X198603945Y-88699484D01*
X198535493Y-88718322D01*
X198471527Y-88699600D01*
X198386213Y-88647012D01*
X198328968Y-88611725D01*
X198328966Y-88611724D01*
X198322738Y-88607885D01*
X198162254Y-88554655D01*
X198161389Y-88554368D01*
X198161387Y-88554368D01*
X198154861Y-88552203D01*
X198148025Y-88551503D01*
X198148022Y-88551502D01*
X198099746Y-88546556D01*
X198050400Y-88541500D01*
X197249600Y-88541500D01*
X197246354Y-88541837D01*
X197246350Y-88541837D01*
X197150692Y-88551762D01*
X197150688Y-88551763D01*
X197143834Y-88552474D01*
X197137298Y-88554655D01*
X197137296Y-88554655D01*
X197005194Y-88598728D01*
X196976054Y-88608450D01*
X196825652Y-88701522D01*
X196820479Y-88706704D01*
X196739216Y-88788109D01*
X196676934Y-88822188D01*
X196606114Y-88817185D01*
X196561025Y-88788264D01*
X196478483Y-88705866D01*
X196473303Y-88700695D01*
X196458386Y-88691500D01*
X196328968Y-88611725D01*
X196328966Y-88611724D01*
X196322738Y-88607885D01*
X196162254Y-88554655D01*
X196161389Y-88554368D01*
X196161387Y-88554368D01*
X196154861Y-88552203D01*
X196148025Y-88551503D01*
X196148022Y-88551502D01*
X196099746Y-88546556D01*
X196050400Y-88541500D01*
X195249600Y-88541500D01*
X195246354Y-88541837D01*
X195246350Y-88541837D01*
X195150692Y-88551762D01*
X195150688Y-88551763D01*
X195143834Y-88552474D01*
X195137298Y-88554655D01*
X195137296Y-88554655D01*
X195005194Y-88598728D01*
X194976054Y-88608450D01*
X194825652Y-88701522D01*
X194700695Y-88826697D01*
X194698714Y-88824720D01*
X194651280Y-88858332D01*
X194580357Y-88861545D01*
X194559099Y-88854273D01*
X194513323Y-88833892D01*
X194513315Y-88833889D01*
X194507288Y-88831206D01*
X194413887Y-88811353D01*
X194326944Y-88792872D01*
X194326939Y-88792872D01*
X194320487Y-88791500D01*
X194129513Y-88791500D01*
X194123061Y-88792872D01*
X194123056Y-88792872D01*
X194036113Y-88811353D01*
X193942712Y-88831206D01*
X193936682Y-88833891D01*
X193936681Y-88833891D01*
X193774278Y-88906197D01*
X193774276Y-88906198D01*
X193768248Y-88908882D01*
X193762907Y-88912762D01*
X193762906Y-88912763D01*
X193750008Y-88922134D01*
X193613747Y-89021134D01*
X193609326Y-89026044D01*
X193609325Y-89026045D01*
X193592109Y-89045166D01*
X193485960Y-89163056D01*
X193444097Y-89235564D01*
X193416329Y-89283661D01*
X193390473Y-89328444D01*
X193331458Y-89510072D01*
X193330768Y-89516633D01*
X193330768Y-89516635D01*
X193326753Y-89554834D01*
X193311496Y-89700000D01*
X191415900Y-89700000D01*
X191384527Y-89603444D01*
X191379317Y-89594419D01*
X191372394Y-89582429D01*
X191355656Y-89513434D01*
X191378876Y-89446342D01*
X191392340Y-89430411D01*
X191451514Y-89371134D01*
X191474305Y-89348303D01*
X191490074Y-89322721D01*
X191563275Y-89203968D01*
X191563276Y-89203966D01*
X191567115Y-89197738D01*
X191622797Y-89029861D01*
X191633500Y-88925400D01*
X191633500Y-87924600D01*
X191625832Y-87850692D01*
X191623238Y-87825692D01*
X191623237Y-87825688D01*
X191622526Y-87818834D01*
X191619489Y-87809729D01*
X191568868Y-87658002D01*
X191566550Y-87651054D01*
X191473478Y-87500652D01*
X191348303Y-87375695D01*
X191316719Y-87356226D01*
X191203968Y-87286725D01*
X191203966Y-87286724D01*
X191197738Y-87282885D01*
X191103121Y-87251502D01*
X191036389Y-87229368D01*
X191036387Y-87229368D01*
X191029861Y-87227203D01*
X191023025Y-87226503D01*
X191023022Y-87226502D01*
X190979969Y-87222091D01*
X190925400Y-87216500D01*
X190124600Y-87216500D01*
X190121354Y-87216837D01*
X190121350Y-87216837D01*
X190025692Y-87226762D01*
X190025688Y-87226763D01*
X190018834Y-87227474D01*
X190012298Y-87229655D01*
X190012296Y-87229655D01*
X189946034Y-87251762D01*
X189851054Y-87283450D01*
X189700652Y-87376522D01*
X189695479Y-87381704D01*
X189614216Y-87463109D01*
X189551934Y-87497188D01*
X189481114Y-87492185D01*
X189436025Y-87463264D01*
X189353483Y-87380866D01*
X189348303Y-87375695D01*
X189316719Y-87356226D01*
X189203968Y-87286725D01*
X189203966Y-87286724D01*
X189197738Y-87282885D01*
X189103121Y-87251502D01*
X189036389Y-87229368D01*
X189036387Y-87229368D01*
X189029861Y-87227203D01*
X189023025Y-87226503D01*
X189023022Y-87226502D01*
X188979969Y-87222091D01*
X188925400Y-87216500D01*
X188124600Y-87216500D01*
X188121354Y-87216837D01*
X188121350Y-87216837D01*
X188025692Y-87226762D01*
X188025688Y-87226763D01*
X188018834Y-87227474D01*
X188012298Y-87229655D01*
X188012296Y-87229655D01*
X187946034Y-87251762D01*
X187851054Y-87283450D01*
X187700652Y-87376522D01*
X187575695Y-87501697D01*
X187571855Y-87507927D01*
X187571854Y-87507928D01*
X187503510Y-87618803D01*
X187482885Y-87652262D01*
X187456773Y-87730987D01*
X187434639Y-87797721D01*
X187427203Y-87820139D01*
X187426503Y-87826975D01*
X187426502Y-87826978D01*
X187423941Y-87851978D01*
X187416500Y-87924600D01*
X187416500Y-88925400D01*
X187416837Y-88928646D01*
X187416837Y-88928650D01*
X187420725Y-88966118D01*
X187427474Y-89031166D01*
X187429655Y-89037702D01*
X187429655Y-89037704D01*
X187469839Y-89158148D01*
X187483450Y-89198946D01*
X187487304Y-89205174D01*
X187487305Y-89205176D01*
X187500403Y-89226342D01*
X187540462Y-89291075D01*
X187544364Y-89297381D01*
X187563202Y-89365832D01*
X187542041Y-89433602D01*
X187526315Y-89452779D01*
X187499499Y-89479595D01*
X187437187Y-89513621D01*
X187410404Y-89516500D01*
X187354513Y-89516500D01*
X187348061Y-89517872D01*
X187348056Y-89517872D01*
X187261112Y-89536353D01*
X187167712Y-89556206D01*
X187161682Y-89558891D01*
X187161681Y-89558891D01*
X186999278Y-89631197D01*
X186999276Y-89631198D01*
X186993248Y-89633882D01*
X186987907Y-89637762D01*
X186987906Y-89637763D01*
X186974096Y-89647797D01*
X186838747Y-89746134D01*
X186834326Y-89751044D01*
X186834325Y-89751045D01*
X186730248Y-89866635D01*
X186710960Y-89888056D01*
X186615473Y-90053444D01*
X186595753Y-90114135D01*
X186567814Y-90200122D01*
X186527740Y-90258728D01*
X186462344Y-90286365D01*
X186392387Y-90274258D01*
X186340081Y-90226252D01*
X186322671Y-90174357D01*
X186319232Y-90141635D01*
X186319232Y-90141633D01*
X186318542Y-90135072D01*
X186259527Y-89953444D01*
X186252921Y-89942001D01*
X186219067Y-89883365D01*
X186164040Y-89788056D01*
X186156814Y-89780030D01*
X186040675Y-89651045D01*
X186040674Y-89651044D01*
X186036253Y-89646134D01*
X185929906Y-89568868D01*
X185887094Y-89537763D01*
X185887093Y-89537762D01*
X185881752Y-89533882D01*
X185875724Y-89531198D01*
X185875722Y-89531197D01*
X185713319Y-89458891D01*
X185713318Y-89458891D01*
X185707288Y-89456206D01*
X185585933Y-89430411D01*
X185526944Y-89417872D01*
X185526939Y-89417872D01*
X185520487Y-89416500D01*
X185464595Y-89416500D01*
X185396474Y-89396498D01*
X185375500Y-89379595D01*
X185364596Y-89368691D01*
X185330570Y-89306379D01*
X185335635Y-89235564D01*
X185338659Y-89228344D01*
X185342115Y-89222738D01*
X185397797Y-89054861D01*
X185398791Y-89045166D01*
X185406614Y-88968803D01*
X185408500Y-88950400D01*
X185408500Y-87949600D01*
X185405906Y-87924600D01*
X185398238Y-87850692D01*
X185398237Y-87850688D01*
X185397526Y-87843834D01*
X185391903Y-87826978D01*
X185343868Y-87683002D01*
X185341550Y-87676054D01*
X185248478Y-87525652D01*
X185123303Y-87400695D01*
X185102324Y-87387763D01*
X184978968Y-87311725D01*
X184978966Y-87311724D01*
X184972738Y-87307885D01*
X184855542Y-87269013D01*
X184811389Y-87254368D01*
X184811387Y-87254368D01*
X184804861Y-87252203D01*
X184798025Y-87251503D01*
X184798022Y-87251502D01*
X184754969Y-87247091D01*
X184700400Y-87241500D01*
X183899600Y-87241500D01*
X183896354Y-87241837D01*
X183896350Y-87241837D01*
X183800692Y-87251762D01*
X183800688Y-87251763D01*
X183793834Y-87252474D01*
X183787298Y-87254655D01*
X183787296Y-87254655D01*
X183689430Y-87287306D01*
X183626054Y-87308450D01*
X183475652Y-87401522D01*
X183470479Y-87406704D01*
X183389216Y-87488109D01*
X183326934Y-87522188D01*
X183256114Y-87517185D01*
X183211025Y-87488264D01*
X183128483Y-87405866D01*
X183123303Y-87400695D01*
X183102324Y-87387763D01*
X182978968Y-87311725D01*
X182978966Y-87311724D01*
X182972738Y-87307885D01*
X182855542Y-87269013D01*
X182811389Y-87254368D01*
X182811387Y-87254368D01*
X182804861Y-87252203D01*
X182798025Y-87251503D01*
X182798022Y-87251502D01*
X182754969Y-87247091D01*
X182700400Y-87241500D01*
X181899600Y-87241500D01*
X181896354Y-87241837D01*
X181896350Y-87241837D01*
X181800692Y-87251762D01*
X181800688Y-87251763D01*
X181793834Y-87252474D01*
X181787298Y-87254655D01*
X181787296Y-87254655D01*
X181689430Y-87287306D01*
X181626054Y-87308450D01*
X181475652Y-87401522D01*
X181350695Y-87526697D01*
X181346855Y-87532927D01*
X181346854Y-87532928D01*
X181277136Y-87646032D01*
X181257885Y-87677262D01*
X181255581Y-87684209D01*
X181216033Y-87803444D01*
X181202203Y-87845139D01*
X181191500Y-87949600D01*
X181191500Y-88950400D01*
X181191837Y-88953646D01*
X181191837Y-88953650D01*
X181201333Y-89045166D01*
X181202474Y-89056166D01*
X181204655Y-89062702D01*
X181204655Y-89062704D01*
X181211593Y-89083500D01*
X181258450Y-89223946D01*
X181294048Y-89281472D01*
X181295403Y-89283661D01*
X181314241Y-89352113D01*
X181293080Y-89419882D01*
X181281899Y-89434270D01*
X181210960Y-89513056D01*
X181115473Y-89678444D01*
X181056458Y-89860072D01*
X181055768Y-89866633D01*
X181055768Y-89866635D01*
X181047847Y-89942001D01*
X181036496Y-90050000D01*
X175645159Y-90050000D01*
X175641983Y-87312306D01*
X175636974Y-82994669D01*
X178792001Y-82994669D01*
X178792371Y-83001490D01*
X178797895Y-83052352D01*
X178801521Y-83067604D01*
X178846676Y-83188054D01*
X178855214Y-83203649D01*
X178931715Y-83305724D01*
X178944276Y-83318285D01*
X179046351Y-83394786D01*
X179061946Y-83403324D01*
X179182394Y-83448478D01*
X179197649Y-83452105D01*
X179248514Y-83457631D01*
X179255328Y-83458000D01*
X179877885Y-83458000D01*
X179893124Y-83453525D01*
X179894329Y-83452135D01*
X179896000Y-83444452D01*
X179896000Y-83439884D01*
X180404000Y-83439884D01*
X180408475Y-83455123D01*
X180409865Y-83456328D01*
X180417548Y-83457999D01*
X181044669Y-83457999D01*
X181051490Y-83457629D01*
X181102352Y-83452105D01*
X181117604Y-83448479D01*
X181238054Y-83403324D01*
X181253649Y-83394786D01*
X181355724Y-83318285D01*
X181368285Y-83305724D01*
X181444786Y-83203649D01*
X181453324Y-83188054D01*
X181494225Y-83078952D01*
X181536867Y-83022188D01*
X181603428Y-82997488D01*
X181672777Y-83012696D01*
X181707444Y-83040684D01*
X181732865Y-83070031D01*
X181732869Y-83070035D01*
X181736250Y-83073938D01*
X181908126Y-83216632D01*
X181994070Y-83266853D01*
X182042794Y-83318491D01*
X182056500Y-83375641D01*
X182056500Y-83396993D01*
X182036498Y-83465114D01*
X181982842Y-83511607D01*
X181943505Y-83522320D01*
X181927811Y-83523949D01*
X181893834Y-83527474D01*
X181887298Y-83529655D01*
X181887296Y-83529655D01*
X181849440Y-83542285D01*
X181726054Y-83583450D01*
X181575652Y-83676522D01*
X181450695Y-83801697D01*
X181446855Y-83807927D01*
X181446854Y-83807928D01*
X181416680Y-83856880D01*
X181357885Y-83952262D01*
X181302203Y-84120139D01*
X181291500Y-84224600D01*
X181291500Y-85225400D01*
X181291837Y-85228646D01*
X181291837Y-85228650D01*
X181297020Y-85278598D01*
X181302474Y-85331166D01*
X181358450Y-85498946D01*
X181451522Y-85649348D01*
X181576697Y-85774305D01*
X181582927Y-85778145D01*
X181582928Y-85778146D01*
X181657812Y-85824305D01*
X181727262Y-85867115D01*
X181841482Y-85905000D01*
X181894391Y-85942429D01*
X181895458Y-85941362D01*
X181909779Y-85955683D01*
X181922619Y-85970716D01*
X181934528Y-85987107D01*
X181957736Y-86006306D01*
X181968605Y-86015298D01*
X181977384Y-86023288D01*
X182496343Y-86542247D01*
X182503887Y-86550537D01*
X182508000Y-86557018D01*
X182513777Y-86562443D01*
X182557667Y-86603658D01*
X182560509Y-86606413D01*
X182580230Y-86626134D01*
X182583425Y-86628612D01*
X182592447Y-86636318D01*
X182624679Y-86666586D01*
X182631628Y-86670406D01*
X182642432Y-86676346D01*
X182658956Y-86687199D01*
X182674959Y-86699613D01*
X182715543Y-86717176D01*
X182726173Y-86722383D01*
X182764940Y-86743695D01*
X182772617Y-86745666D01*
X182772622Y-86745668D01*
X182784558Y-86748732D01*
X182803266Y-86755137D01*
X182821855Y-86763181D01*
X182829683Y-86764421D01*
X182829690Y-86764423D01*
X182865524Y-86770099D01*
X182877144Y-86772505D01*
X182908959Y-86780673D01*
X182919970Y-86783500D01*
X182940224Y-86783500D01*
X182959934Y-86785051D01*
X182979943Y-86788220D01*
X182987835Y-86787474D01*
X183006580Y-86785702D01*
X183023962Y-86784059D01*
X183035819Y-86783500D01*
X185821233Y-86783500D01*
X185832416Y-86784027D01*
X185839909Y-86785702D01*
X185847835Y-86785453D01*
X185847836Y-86785453D01*
X185907986Y-86783562D01*
X185911945Y-86783500D01*
X185939856Y-86783500D01*
X185943791Y-86783003D01*
X185943856Y-86782995D01*
X185955693Y-86782062D01*
X185987951Y-86781048D01*
X185991970Y-86780922D01*
X185999889Y-86780673D01*
X186019343Y-86775021D01*
X186038700Y-86771013D01*
X186050930Y-86769468D01*
X186050931Y-86769468D01*
X186058797Y-86768474D01*
X186066168Y-86765555D01*
X186066170Y-86765555D01*
X186099912Y-86752196D01*
X186111142Y-86748351D01*
X186145983Y-86738229D01*
X186145984Y-86738229D01*
X186153593Y-86736018D01*
X186160412Y-86731985D01*
X186160417Y-86731983D01*
X186171028Y-86725707D01*
X186188776Y-86717012D01*
X186207617Y-86709552D01*
X186227987Y-86694753D01*
X186243387Y-86683564D01*
X186253307Y-86677048D01*
X186284535Y-86658580D01*
X186284538Y-86658578D01*
X186291362Y-86654542D01*
X186305683Y-86640221D01*
X186320717Y-86627380D01*
X186322432Y-86626134D01*
X186337107Y-86615472D01*
X186365298Y-86581395D01*
X186373288Y-86572616D01*
X186767247Y-86178657D01*
X186775537Y-86171113D01*
X186782018Y-86167000D01*
X186828659Y-86117332D01*
X186831413Y-86114491D01*
X186851134Y-86094770D01*
X186853612Y-86091575D01*
X186861318Y-86082553D01*
X186886158Y-86056101D01*
X186891586Y-86050321D01*
X186898490Y-86037763D01*
X186901346Y-86032568D01*
X186912199Y-86016045D01*
X186919753Y-86006306D01*
X186924613Y-86000041D01*
X186927763Y-85992761D01*
X186930177Y-85988680D01*
X186982070Y-85940227D01*
X186998755Y-85933295D01*
X187048946Y-85916550D01*
X187199348Y-85823478D01*
X187285784Y-85736891D01*
X187348066Y-85702812D01*
X187418886Y-85707815D01*
X187463976Y-85736736D01*
X187551697Y-85824305D01*
X187557927Y-85828145D01*
X187557928Y-85828146D01*
X187695090Y-85912694D01*
X187702262Y-85917115D01*
X187771943Y-85940227D01*
X187863611Y-85970632D01*
X187863613Y-85970632D01*
X187870139Y-85972797D01*
X187876975Y-85973497D01*
X187876978Y-85973498D01*
X187920031Y-85977909D01*
X187974600Y-85983500D01*
X188775400Y-85983500D01*
X188778646Y-85983163D01*
X188778650Y-85983163D01*
X188874308Y-85973238D01*
X188874312Y-85973237D01*
X188881166Y-85972526D01*
X188887702Y-85970345D01*
X188887704Y-85970345D01*
X189019806Y-85926272D01*
X189048946Y-85916550D01*
X189199348Y-85823478D01*
X189324305Y-85698303D01*
X189351293Y-85654521D01*
X189413275Y-85553968D01*
X189413276Y-85553966D01*
X189417115Y-85547738D01*
X189472797Y-85379861D01*
X189483500Y-85275400D01*
X189483500Y-84274600D01*
X189478312Y-84224600D01*
X189473238Y-84175692D01*
X189473237Y-84175688D01*
X189472526Y-84168834D01*
X189416550Y-84001054D01*
X189323478Y-83850652D01*
X189198303Y-83725695D01*
X189123329Y-83679480D01*
X189068384Y-83645611D01*
X189020890Y-83592838D01*
X189008500Y-83538351D01*
X189008500Y-82783767D01*
X189009027Y-82772584D01*
X189010702Y-82765091D01*
X189008562Y-82697014D01*
X189008500Y-82693055D01*
X189008500Y-82689783D01*
X189021543Y-82633956D01*
X189035136Y-82606452D01*
X189037430Y-82601811D01*
X189102370Y-82388069D01*
X189131529Y-82166590D01*
X189133156Y-82100000D01*
X189114852Y-81877361D01*
X189060431Y-81660702D01*
X189023167Y-81575000D01*
X198286496Y-81575000D01*
X198287186Y-81581565D01*
X198295504Y-81660702D01*
X198306458Y-81764928D01*
X198365473Y-81946556D01*
X198460960Y-82111944D01*
X198588747Y-82253866D01*
X198638089Y-82289715D01*
X198734642Y-82359865D01*
X198743248Y-82366118D01*
X198749276Y-82368802D01*
X198749278Y-82368803D01*
X198911681Y-82441109D01*
X198917712Y-82443794D01*
X199011112Y-82463647D01*
X199098056Y-82482128D01*
X199098061Y-82482128D01*
X199104513Y-82483500D01*
X199295487Y-82483500D01*
X199301939Y-82482128D01*
X199301944Y-82482128D01*
X199388888Y-82463647D01*
X199482288Y-82443794D01*
X199488319Y-82441109D01*
X199650722Y-82368803D01*
X199650724Y-82368802D01*
X199656752Y-82366118D01*
X199665359Y-82359865D01*
X199761911Y-82289715D01*
X199811253Y-82253866D01*
X199939040Y-82111944D01*
X200034527Y-81946556D01*
X200093542Y-81764928D01*
X200104497Y-81660702D01*
X200112814Y-81581565D01*
X200113504Y-81575000D01*
X200095071Y-81399618D01*
X200094232Y-81391635D01*
X200094232Y-81391633D01*
X200093542Y-81385072D01*
X200034527Y-81203444D01*
X200031060Y-81197438D01*
X199942341Y-81043774D01*
X199939040Y-81038056D01*
X199915531Y-81011946D01*
X199815675Y-80901045D01*
X199815674Y-80901044D01*
X199811253Y-80896134D01*
X199686113Y-80805214D01*
X199662094Y-80787763D01*
X199662093Y-80787762D01*
X199656752Y-80783882D01*
X199650724Y-80781198D01*
X199650722Y-80781197D01*
X199488319Y-80708891D01*
X199488318Y-80708891D01*
X199482288Y-80706206D01*
X199388888Y-80686353D01*
X199301944Y-80667872D01*
X199301939Y-80667872D01*
X199295487Y-80666500D01*
X199104513Y-80666500D01*
X199098061Y-80667872D01*
X199098056Y-80667872D01*
X199011112Y-80686353D01*
X198917712Y-80706206D01*
X198911682Y-80708891D01*
X198911681Y-80708891D01*
X198749278Y-80781197D01*
X198749276Y-80781198D01*
X198743248Y-80783882D01*
X198737907Y-80787762D01*
X198737906Y-80787763D01*
X198713887Y-80805214D01*
X198588747Y-80896134D01*
X198584326Y-80901044D01*
X198584325Y-80901045D01*
X198484470Y-81011946D01*
X198460960Y-81038056D01*
X198457659Y-81043774D01*
X198368941Y-81197438D01*
X198365473Y-81203444D01*
X198306458Y-81385072D01*
X198305768Y-81391633D01*
X198305768Y-81391635D01*
X198304929Y-81399618D01*
X198286496Y-81575000D01*
X189023167Y-81575000D01*
X188971354Y-81455840D01*
X188850014Y-81268277D01*
X188699670Y-81103051D01*
X188695619Y-81099852D01*
X188695615Y-81099848D01*
X188528414Y-80967800D01*
X188528410Y-80967798D01*
X188524359Y-80964598D01*
X188328789Y-80856638D01*
X188323920Y-80854914D01*
X188323916Y-80854912D01*
X188123087Y-80783795D01*
X188123083Y-80783794D01*
X188118212Y-80782069D01*
X188113119Y-80781162D01*
X188113116Y-80781161D01*
X187903373Y-80743800D01*
X187903367Y-80743799D01*
X187898284Y-80742894D01*
X187824452Y-80741992D01*
X187680081Y-80740228D01*
X187680079Y-80740228D01*
X187674911Y-80740165D01*
X187454091Y-80773955D01*
X187241756Y-80843357D01*
X187214109Y-80857749D01*
X187130939Y-80901045D01*
X187043607Y-80946507D01*
X187039474Y-80949610D01*
X187039471Y-80949612D01*
X186912205Y-81045166D01*
X186864965Y-81080635D01*
X186710629Y-81242138D01*
X186603201Y-81399621D01*
X186548293Y-81444621D01*
X186477768Y-81452792D01*
X186414021Y-81421538D01*
X186393324Y-81397054D01*
X186312822Y-81272617D01*
X186312820Y-81272614D01*
X186310014Y-81268277D01*
X186159670Y-81103051D01*
X186155619Y-81099852D01*
X186155615Y-81099848D01*
X185988414Y-80967800D01*
X185988410Y-80967798D01*
X185984359Y-80964598D01*
X185788789Y-80856638D01*
X185783920Y-80854914D01*
X185783916Y-80854912D01*
X185583087Y-80783795D01*
X185583083Y-80783794D01*
X185578212Y-80782069D01*
X185573119Y-80781162D01*
X185573116Y-80781161D01*
X185363373Y-80743800D01*
X185363367Y-80743799D01*
X185358284Y-80742894D01*
X185284452Y-80741992D01*
X185140081Y-80740228D01*
X185140079Y-80740228D01*
X185134911Y-80740165D01*
X184914091Y-80773955D01*
X184701756Y-80843357D01*
X184674109Y-80857749D01*
X184590939Y-80901045D01*
X184503607Y-80946507D01*
X184499474Y-80949610D01*
X184499471Y-80949612D01*
X184372205Y-81045166D01*
X184324965Y-81080635D01*
X184170629Y-81242138D01*
X184063201Y-81399621D01*
X184008293Y-81444621D01*
X183937768Y-81452792D01*
X183874021Y-81421538D01*
X183853324Y-81397054D01*
X183772822Y-81272617D01*
X183772820Y-81272614D01*
X183770014Y-81268277D01*
X183619670Y-81103051D01*
X183615619Y-81099852D01*
X183615615Y-81099848D01*
X183448414Y-80967800D01*
X183448410Y-80967798D01*
X183444359Y-80964598D01*
X183248789Y-80856638D01*
X183243920Y-80854914D01*
X183243916Y-80854912D01*
X183043087Y-80783795D01*
X183043083Y-80783794D01*
X183038212Y-80782069D01*
X183033119Y-80781162D01*
X183033116Y-80781161D01*
X182823373Y-80743800D01*
X182823367Y-80743799D01*
X182818284Y-80742894D01*
X182744452Y-80741992D01*
X182600081Y-80740228D01*
X182600079Y-80740228D01*
X182594911Y-80740165D01*
X182374091Y-80773955D01*
X182161756Y-80843357D01*
X182134109Y-80857749D01*
X182050939Y-80901045D01*
X181963607Y-80946507D01*
X181959474Y-80949610D01*
X181959471Y-80949612D01*
X181832205Y-81045166D01*
X181784965Y-81080635D01*
X181781393Y-81084373D01*
X181703898Y-81165466D01*
X181642374Y-81200895D01*
X181571462Y-81197438D01*
X181513676Y-81156192D01*
X181494823Y-81122644D01*
X181453324Y-81011946D01*
X181444786Y-80996351D01*
X181368285Y-80894276D01*
X181355724Y-80881715D01*
X181253649Y-80805214D01*
X181238054Y-80796676D01*
X181117606Y-80751522D01*
X181102351Y-80747895D01*
X181051486Y-80742369D01*
X181044672Y-80742000D01*
X180422115Y-80742000D01*
X180406876Y-80746475D01*
X180405671Y-80747865D01*
X180404000Y-80755548D01*
X180404000Y-83439884D01*
X179896000Y-83439884D01*
X179896000Y-82372115D01*
X179891525Y-82356876D01*
X179890135Y-82355671D01*
X179882452Y-82354000D01*
X178810116Y-82354000D01*
X178794877Y-82358475D01*
X178793672Y-82359865D01*
X178792001Y-82367548D01*
X178792001Y-82994669D01*
X175636974Y-82994669D01*
X175635620Y-81827885D01*
X178792000Y-81827885D01*
X178796475Y-81843124D01*
X178797865Y-81844329D01*
X178805548Y-81846000D01*
X179877885Y-81846000D01*
X179893124Y-81841525D01*
X179894329Y-81840135D01*
X179896000Y-81832452D01*
X179896000Y-80760116D01*
X179891525Y-80744877D01*
X179890135Y-80743672D01*
X179882452Y-80742001D01*
X179255331Y-80742001D01*
X179248510Y-80742371D01*
X179197648Y-80747895D01*
X179182396Y-80751521D01*
X179061946Y-80796676D01*
X179046351Y-80805214D01*
X178944276Y-80881715D01*
X178931715Y-80894276D01*
X178855214Y-80996351D01*
X178846676Y-81011946D01*
X178801522Y-81132394D01*
X178797895Y-81147649D01*
X178792369Y-81198514D01*
X178792000Y-81205328D01*
X178792000Y-81827885D01*
X175635620Y-81827885D01*
X175632597Y-79222095D01*
X187742001Y-79222095D01*
X187742338Y-79228614D01*
X187752257Y-79324206D01*
X187755149Y-79337600D01*
X187806588Y-79491784D01*
X187812761Y-79504962D01*
X187898063Y-79642807D01*
X187907099Y-79654208D01*
X188021829Y-79768739D01*
X188033240Y-79777751D01*
X188171243Y-79862816D01*
X188184424Y-79868963D01*
X188338710Y-79920138D01*
X188352086Y-79923005D01*
X188446438Y-79932672D01*
X188452854Y-79933000D01*
X188677885Y-79933000D01*
X188693124Y-79928525D01*
X188694329Y-79927135D01*
X188696000Y-79919452D01*
X188696000Y-79914884D01*
X189204000Y-79914884D01*
X189208622Y-79930625D01*
X189246463Y-79989506D01*
X189250877Y-80038174D01*
X189236496Y-80175000D01*
X189256458Y-80364928D01*
X189315473Y-80546556D01*
X189410960Y-80711944D01*
X189415378Y-80716851D01*
X189415379Y-80716852D01*
X189527838Y-80841750D01*
X189538747Y-80853866D01*
X189596924Y-80896134D01*
X189670530Y-80949612D01*
X189693248Y-80966118D01*
X189699276Y-80968802D01*
X189699278Y-80968803D01*
X189854824Y-81038056D01*
X189867712Y-81043794D01*
X189961113Y-81063647D01*
X190048056Y-81082128D01*
X190048061Y-81082128D01*
X190054513Y-81083500D01*
X190245487Y-81083500D01*
X190251939Y-81082128D01*
X190251944Y-81082128D01*
X190338888Y-81063647D01*
X190432288Y-81043794D01*
X190445176Y-81038056D01*
X190600722Y-80968803D01*
X190600724Y-80968802D01*
X190606752Y-80966118D01*
X190629471Y-80949612D01*
X190703076Y-80896134D01*
X190761253Y-80853866D01*
X190772162Y-80841750D01*
X190884621Y-80716852D01*
X190884622Y-80716851D01*
X190889040Y-80711944D01*
X190984527Y-80546556D01*
X191043542Y-80364928D01*
X191063504Y-80175000D01*
X191062814Y-80168435D01*
X191044232Y-79991635D01*
X191044232Y-79991633D01*
X191043542Y-79985072D01*
X190984527Y-79803444D01*
X190889040Y-79638056D01*
X190761253Y-79496134D01*
X190606752Y-79383882D01*
X190600724Y-79381198D01*
X190600722Y-79381197D01*
X190438319Y-79308891D01*
X190438318Y-79308891D01*
X190432288Y-79306206D01*
X190257803Y-79269118D01*
X190195330Y-79235390D01*
X190161008Y-79173240D01*
X190158000Y-79145871D01*
X190158000Y-79097115D01*
X190153525Y-79081876D01*
X190152135Y-79080671D01*
X190144452Y-79079000D01*
X189222115Y-79079000D01*
X189206876Y-79083475D01*
X189205671Y-79084865D01*
X189204000Y-79092548D01*
X189204000Y-79914884D01*
X188696000Y-79914884D01*
X188696000Y-79097115D01*
X188691525Y-79081876D01*
X188690135Y-79080671D01*
X188682452Y-79079000D01*
X187760116Y-79079000D01*
X187744877Y-79083475D01*
X187743672Y-79084865D01*
X187742001Y-79092548D01*
X187742001Y-79222095D01*
X175632597Y-79222095D01*
X175632263Y-78934030D01*
X223795800Y-78934030D01*
X223801527Y-78941680D01*
X223986272Y-79054893D01*
X223995067Y-79059375D01*
X224212490Y-79149434D01*
X224221875Y-79152483D01*
X224450708Y-79207422D01*
X224460455Y-79208965D01*
X224695070Y-79227430D01*
X224704930Y-79227430D01*
X224939545Y-79208965D01*
X224949292Y-79207422D01*
X225178125Y-79152483D01*
X225187510Y-79149434D01*
X225404933Y-79059375D01*
X225413728Y-79054893D01*
X225594805Y-78943928D01*
X225604267Y-78933470D01*
X225600484Y-78924694D01*
X224712812Y-78037022D01*
X224698868Y-78029408D01*
X224697035Y-78029539D01*
X224690420Y-78033790D01*
X223802560Y-78921650D01*
X223795800Y-78934030D01*
X175632263Y-78934030D01*
X175629048Y-76162529D01*
X180898496Y-76162529D01*
X180899186Y-76169094D01*
X180912872Y-76299305D01*
X180918458Y-76352457D01*
X180977473Y-76534085D01*
X181072960Y-76699473D01*
X181077378Y-76704380D01*
X181077379Y-76704381D01*
X181196325Y-76836484D01*
X181200747Y-76841395D01*
X181271599Y-76892872D01*
X181345326Y-76946438D01*
X181355248Y-76953647D01*
X181361276Y-76956331D01*
X181361278Y-76956332D01*
X181393125Y-76970511D01*
X181447221Y-77016491D01*
X181467870Y-77084419D01*
X181450996Y-77148615D01*
X181390473Y-77253444D01*
X181331458Y-77435072D01*
X181330768Y-77441633D01*
X181330768Y-77441635D01*
X181324254Y-77503614D01*
X181311496Y-77625000D01*
X181312186Y-77631565D01*
X181330138Y-77802365D01*
X181331458Y-77814928D01*
X181390473Y-77996556D01*
X181393776Y-78002278D01*
X181393777Y-78002279D01*
X181409064Y-78028757D01*
X181485960Y-78161944D01*
X181490378Y-78166851D01*
X181490379Y-78166852D01*
X181609325Y-78298955D01*
X181613747Y-78303866D01*
X181768248Y-78416118D01*
X181774276Y-78418802D01*
X181774278Y-78418803D01*
X181909183Y-78478866D01*
X181942712Y-78493794D01*
X182036113Y-78513647D01*
X182123056Y-78532128D01*
X182123061Y-78532128D01*
X182129513Y-78533500D01*
X182320487Y-78533500D01*
X182326939Y-78532128D01*
X182326944Y-78532128D01*
X182413888Y-78513647D01*
X182507288Y-78493794D01*
X182540817Y-78478866D01*
X182675722Y-78418803D01*
X182675724Y-78418802D01*
X182681752Y-78416118D01*
X182836253Y-78303866D01*
X182840675Y-78298955D01*
X182959621Y-78166852D01*
X182959622Y-78166851D01*
X182964040Y-78161944D01*
X183040936Y-78028757D01*
X183056223Y-78002279D01*
X183056224Y-78002278D01*
X183059527Y-77996556D01*
X183094548Y-77888773D01*
X183134622Y-77830167D01*
X183200018Y-77802530D01*
X183227223Y-77802365D01*
X183287100Y-77808500D01*
X184062900Y-77808500D01*
X184066146Y-77808163D01*
X184066150Y-77808163D01*
X184161808Y-77798238D01*
X184161812Y-77798237D01*
X184168666Y-77797526D01*
X184175202Y-77795345D01*
X184175204Y-77795345D01*
X184319826Y-77747095D01*
X184336446Y-77741550D01*
X184486848Y-77648478D01*
X184611805Y-77523303D01*
X184614406Y-77519084D01*
X184671530Y-77478583D01*
X184742453Y-77475351D01*
X184803865Y-77510976D01*
X184810422Y-77518530D01*
X184814022Y-77524348D01*
X184939197Y-77649305D01*
X184945427Y-77653145D01*
X184945428Y-77653146D01*
X185082590Y-77737694D01*
X185089762Y-77742115D01*
X185124274Y-77753562D01*
X185251111Y-77795632D01*
X185251113Y-77795632D01*
X185257639Y-77797797D01*
X185264475Y-77798497D01*
X185264478Y-77798498D01*
X185303833Y-77802530D01*
X185362100Y-77808500D01*
X186035406Y-77808500D01*
X186103527Y-77828502D01*
X186124501Y-77845405D01*
X186270822Y-77991726D01*
X186304974Y-78054624D01*
X186305767Y-78058356D01*
X186306458Y-78064928D01*
X186365473Y-78246556D01*
X186460960Y-78411944D01*
X186465378Y-78416851D01*
X186465379Y-78416852D01*
X186502428Y-78457999D01*
X186588747Y-78553866D01*
X186743248Y-78666118D01*
X186749276Y-78668802D01*
X186749278Y-78668803D01*
X186835358Y-78707128D01*
X186917712Y-78743794D01*
X187011113Y-78763647D01*
X187098056Y-78782128D01*
X187098061Y-78782128D01*
X187104513Y-78783500D01*
X187295487Y-78783500D01*
X187301939Y-78782128D01*
X187301944Y-78782128D01*
X187388887Y-78763647D01*
X187482288Y-78743794D01*
X187564642Y-78707128D01*
X187650722Y-78668803D01*
X187650724Y-78668802D01*
X187656752Y-78666118D01*
X187754549Y-78595064D01*
X187821417Y-78571206D01*
X187828610Y-78571000D01*
X190139884Y-78571000D01*
X190155123Y-78566525D01*
X190156328Y-78565135D01*
X190157999Y-78557452D01*
X190157999Y-78427905D01*
X190157662Y-78421386D01*
X190147743Y-78325794D01*
X190144851Y-78312400D01*
X190093412Y-78158216D01*
X190087239Y-78145038D01*
X190001937Y-78007193D01*
X189992901Y-77995792D01*
X189911538Y-77914570D01*
X189877459Y-77852287D01*
X189882462Y-77781467D01*
X189911383Y-77736380D01*
X189994130Y-77653488D01*
X189994134Y-77653483D01*
X189999305Y-77648303D01*
X190003146Y-77642072D01*
X190088275Y-77503968D01*
X190088276Y-77503966D01*
X190092115Y-77497738D01*
X190133175Y-77373946D01*
X190145632Y-77336389D01*
X190145632Y-77336387D01*
X190147797Y-77329861D01*
X190158500Y-77225400D01*
X190158500Y-76934598D01*
X190178502Y-76866477D01*
X190232158Y-76819984D01*
X190302432Y-76809880D01*
X190367012Y-76839374D01*
X190371008Y-76843090D01*
X190383240Y-76852751D01*
X190521243Y-76937816D01*
X190534424Y-76943963D01*
X190688710Y-76995138D01*
X190702086Y-76998005D01*
X190796438Y-77007672D01*
X190802854Y-77008000D01*
X191027885Y-77008000D01*
X191043124Y-77003525D01*
X191044329Y-77002135D01*
X191046000Y-76994452D01*
X191046000Y-76989884D01*
X191554000Y-76989884D01*
X191558475Y-77005123D01*
X191559865Y-77006328D01*
X191567548Y-77007999D01*
X191797095Y-77007999D01*
X191803614Y-77007662D01*
X191899206Y-76997743D01*
X191912600Y-76994851D01*
X192066787Y-76943411D01*
X192077586Y-76938352D01*
X192147759Y-76927566D01*
X192212623Y-76956431D01*
X192251585Y-77015781D01*
X192252274Y-77086774D01*
X192224675Y-77136762D01*
X192115379Y-77258148D01*
X192110960Y-77263056D01*
X192015473Y-77428444D01*
X191956458Y-77610072D01*
X191955768Y-77616633D01*
X191955768Y-77616635D01*
X191942983Y-77738275D01*
X191936496Y-77800000D01*
X191937186Y-77806565D01*
X191941992Y-77852287D01*
X191956458Y-77989928D01*
X192015473Y-78171556D01*
X192110960Y-78336944D01*
X192115378Y-78341851D01*
X192115379Y-78341852D01*
X192208120Y-78444851D01*
X192238747Y-78478866D01*
X192255598Y-78491109D01*
X192365842Y-78571206D01*
X192393248Y-78591118D01*
X192399276Y-78593802D01*
X192399278Y-78593803D01*
X192561681Y-78666109D01*
X192567712Y-78668794D01*
X192661112Y-78688647D01*
X192748056Y-78707128D01*
X192748061Y-78707128D01*
X192754513Y-78708500D01*
X192945487Y-78708500D01*
X192951939Y-78707128D01*
X192951944Y-78707128D01*
X193038888Y-78688647D01*
X193132288Y-78668794D01*
X193138319Y-78666109D01*
X193300722Y-78593803D01*
X193300724Y-78593802D01*
X193306752Y-78591118D01*
X193334159Y-78571206D01*
X193444402Y-78491109D01*
X193461253Y-78478866D01*
X193491880Y-78444851D01*
X193584621Y-78341852D01*
X193584622Y-78341851D01*
X193589040Y-78336944D01*
X193684527Y-78171556D01*
X193743542Y-77989928D01*
X193758009Y-77852287D01*
X193762814Y-77806565D01*
X193763504Y-77800000D01*
X193757944Y-77747095D01*
X195342001Y-77747095D01*
X195342338Y-77753614D01*
X195352257Y-77849206D01*
X195355149Y-77862600D01*
X195406588Y-78016784D01*
X195412761Y-78029962D01*
X195498063Y-78167807D01*
X195507099Y-78179208D01*
X195621829Y-78293739D01*
X195633240Y-78302751D01*
X195771243Y-78387816D01*
X195784424Y-78393963D01*
X195938710Y-78445138D01*
X195952086Y-78448005D01*
X196046438Y-78457672D01*
X196052854Y-78458000D01*
X196277885Y-78458000D01*
X196293124Y-78453525D01*
X196294329Y-78452135D01*
X196296000Y-78444452D01*
X196296000Y-78439884D01*
X196804000Y-78439884D01*
X196808475Y-78455123D01*
X196809865Y-78456328D01*
X196817548Y-78457999D01*
X197047095Y-78457999D01*
X197053614Y-78457662D01*
X197149206Y-78447743D01*
X197162600Y-78444851D01*
X197316784Y-78393412D01*
X197329962Y-78387239D01*
X197467807Y-78301937D01*
X197479208Y-78292901D01*
X197593739Y-78178171D01*
X197602751Y-78166760D01*
X197687816Y-78028757D01*
X197693963Y-78015576D01*
X197745138Y-77861290D01*
X197748005Y-77847914D01*
X197757672Y-77753562D01*
X197758000Y-77747146D01*
X197758000Y-77622115D01*
X197753525Y-77606876D01*
X197752135Y-77605671D01*
X197744452Y-77604000D01*
X196822115Y-77604000D01*
X196806876Y-77608475D01*
X196805671Y-77609865D01*
X196804000Y-77617548D01*
X196804000Y-78439884D01*
X196296000Y-78439884D01*
X196296000Y-77622115D01*
X196291525Y-77606876D01*
X196290135Y-77605671D01*
X196282452Y-77604000D01*
X195360116Y-77604000D01*
X195344877Y-77608475D01*
X195343672Y-77609865D01*
X195342001Y-77617548D01*
X195342001Y-77747095D01*
X193757944Y-77747095D01*
X193757017Y-77738275D01*
X193744232Y-77616635D01*
X193744232Y-77616633D01*
X193743542Y-77610072D01*
X193706833Y-77497095D01*
X220892001Y-77497095D01*
X220892338Y-77503614D01*
X220902257Y-77599206D01*
X220905149Y-77612600D01*
X220956588Y-77766784D01*
X220962761Y-77779962D01*
X221048063Y-77917807D01*
X221057099Y-77929208D01*
X221171829Y-78043739D01*
X221183240Y-78052751D01*
X221321243Y-78137816D01*
X221334424Y-78143963D01*
X221488710Y-78195138D01*
X221502086Y-78198005D01*
X221596438Y-78207672D01*
X221602854Y-78208000D01*
X221827885Y-78208000D01*
X221843124Y-78203525D01*
X221844329Y-78202135D01*
X221846000Y-78194452D01*
X221846000Y-77372115D01*
X221841525Y-77356876D01*
X221840135Y-77355671D01*
X221832452Y-77354000D01*
X220910116Y-77354000D01*
X220894877Y-77358475D01*
X220893672Y-77359865D01*
X220892001Y-77367548D01*
X220892001Y-77497095D01*
X193706833Y-77497095D01*
X193684527Y-77428444D01*
X193589040Y-77263056D01*
X193580386Y-77253444D01*
X193465675Y-77126045D01*
X193465674Y-77126044D01*
X193461253Y-77121134D01*
X193306752Y-77008882D01*
X193300724Y-77006198D01*
X193300722Y-77006197D01*
X193138319Y-76933891D01*
X193138318Y-76933891D01*
X193132288Y-76931206D01*
X193038888Y-76911353D01*
X192951944Y-76892872D01*
X192951939Y-76892872D01*
X192945487Y-76891500D01*
X192754513Y-76891500D01*
X192748061Y-76892872D01*
X192748056Y-76892872D01*
X192661113Y-76911353D01*
X192567712Y-76931206D01*
X192561682Y-76933891D01*
X192561681Y-76933891D01*
X192540299Y-76943411D01*
X192419275Y-76997294D01*
X192348909Y-77006728D01*
X192284612Y-76976622D01*
X192246798Y-76916533D01*
X192247474Y-76845539D01*
X192278854Y-76793169D01*
X192343739Y-76728171D01*
X192352751Y-76716760D01*
X192437816Y-76578757D01*
X192443963Y-76565576D01*
X192495138Y-76411290D01*
X192498005Y-76397914D01*
X192507672Y-76303562D01*
X192508000Y-76297146D01*
X192508000Y-76172115D01*
X192503525Y-76156876D01*
X192502135Y-76155671D01*
X192494452Y-76154000D01*
X191572115Y-76154000D01*
X191556876Y-76158475D01*
X191555671Y-76159865D01*
X191554000Y-76167548D01*
X191554000Y-76989884D01*
X191046000Y-76989884D01*
X191046000Y-75772000D01*
X191066002Y-75703879D01*
X191119658Y-75657386D01*
X191172000Y-75646000D01*
X192489884Y-75646000D01*
X192505123Y-75641525D01*
X192506328Y-75640135D01*
X192507999Y-75632452D01*
X192507999Y-75502905D01*
X192507662Y-75496386D01*
X192497743Y-75400794D01*
X192494851Y-75387400D01*
X192443412Y-75233216D01*
X192437239Y-75220038D01*
X192424839Y-75200000D01*
X194086496Y-75200000D01*
X194087186Y-75206565D01*
X194105009Y-75376138D01*
X194106458Y-75389928D01*
X194165473Y-75571556D01*
X194260960Y-75736944D01*
X194265378Y-75741851D01*
X194265379Y-75741852D01*
X194294277Y-75773946D01*
X194388747Y-75878866D01*
X194460671Y-75931122D01*
X194517762Y-75972601D01*
X194543248Y-75991118D01*
X194549276Y-75993802D01*
X194549278Y-75993803D01*
X194711679Y-76066108D01*
X194717712Y-76068794D01*
X194811112Y-76088647D01*
X194898056Y-76107128D01*
X194898061Y-76107128D01*
X194904513Y-76108500D01*
X195095487Y-76108500D01*
X195101939Y-76107128D01*
X195101944Y-76107128D01*
X195240660Y-76077642D01*
X195282288Y-76068794D01*
X195302456Y-76059815D01*
X195372821Y-76050381D01*
X195437118Y-76080487D01*
X195460846Y-76108617D01*
X195501522Y-76174348D01*
X195506704Y-76179521D01*
X195588463Y-76261138D01*
X195622542Y-76323421D01*
X195617539Y-76394241D01*
X195588618Y-76439329D01*
X195506261Y-76521829D01*
X195497249Y-76533240D01*
X195412184Y-76671243D01*
X195406037Y-76684424D01*
X195354862Y-76838710D01*
X195351995Y-76852086D01*
X195342328Y-76946438D01*
X195342000Y-76952855D01*
X195342000Y-77077885D01*
X195346475Y-77093124D01*
X195347865Y-77094329D01*
X195355548Y-77096000D01*
X197739884Y-77096000D01*
X197755123Y-77091525D01*
X197756328Y-77090135D01*
X197757999Y-77082452D01*
X197757999Y-76952905D01*
X197757662Y-76946386D01*
X197747743Y-76850794D01*
X197744851Y-76837400D01*
X197693412Y-76683216D01*
X197687239Y-76670038D01*
X197601937Y-76532193D01*
X197592901Y-76520792D01*
X197511538Y-76439570D01*
X197477459Y-76377287D01*
X197482462Y-76306467D01*
X197488474Y-76297095D01*
X200692001Y-76297095D01*
X200692338Y-76303614D01*
X200702257Y-76399206D01*
X200705149Y-76412600D01*
X200756588Y-76566784D01*
X200762761Y-76579962D01*
X200848063Y-76717807D01*
X200857099Y-76729208D01*
X200971829Y-76843739D01*
X200983240Y-76852751D01*
X201121243Y-76937816D01*
X201134424Y-76943963D01*
X201288710Y-76995138D01*
X201302086Y-76998005D01*
X201396438Y-77007672D01*
X201402854Y-77008000D01*
X201627885Y-77008000D01*
X201643124Y-77003525D01*
X201644329Y-77002135D01*
X201646000Y-76994452D01*
X201646000Y-76989884D01*
X202154000Y-76989884D01*
X202158475Y-77005123D01*
X202159865Y-77006328D01*
X202167548Y-77007999D01*
X202397095Y-77007999D01*
X202403614Y-77007662D01*
X202499206Y-76997743D01*
X202512600Y-76994851D01*
X202666784Y-76943412D01*
X202679962Y-76937239D01*
X202817807Y-76851937D01*
X202829208Y-76842901D01*
X202943739Y-76728171D01*
X202952751Y-76716760D01*
X203037816Y-76578757D01*
X203043963Y-76565576D01*
X203095138Y-76411290D01*
X203098005Y-76397914D01*
X203107672Y-76303562D01*
X203108000Y-76297146D01*
X203108000Y-76172115D01*
X203103525Y-76156876D01*
X203102135Y-76155671D01*
X203094452Y-76154000D01*
X202172115Y-76154000D01*
X202156876Y-76158475D01*
X202155671Y-76159865D01*
X202154000Y-76167548D01*
X202154000Y-76989884D01*
X201646000Y-76989884D01*
X201646000Y-76172115D01*
X201641525Y-76156876D01*
X201640135Y-76155671D01*
X201632452Y-76154000D01*
X200710116Y-76154000D01*
X200694877Y-76158475D01*
X200693672Y-76159865D01*
X200692001Y-76167548D01*
X200692001Y-76297095D01*
X197488474Y-76297095D01*
X197511383Y-76261380D01*
X197594130Y-76178488D01*
X197594134Y-76178483D01*
X197599305Y-76173303D01*
X197656518Y-76080487D01*
X197688275Y-76028968D01*
X197688276Y-76028966D01*
X197692115Y-76022738D01*
X197718564Y-75942995D01*
X197745632Y-75861389D01*
X197745632Y-75861387D01*
X197747797Y-75854861D01*
X197758500Y-75750400D01*
X197758500Y-75427418D01*
X197778502Y-75359297D01*
X197832158Y-75312804D01*
X197898108Y-75302155D01*
X197948514Y-75307631D01*
X197955328Y-75308000D01*
X198190965Y-75308000D01*
X198207629Y-75309107D01*
X198227044Y-75311697D01*
X198241040Y-75311991D01*
X198279186Y-75308519D01*
X198290606Y-75308000D01*
X198927885Y-75308000D01*
X198943124Y-75303525D01*
X198944329Y-75302135D01*
X198946000Y-75294452D01*
X198946000Y-75289884D01*
X199454000Y-75289884D01*
X199458475Y-75305123D01*
X199459865Y-75306328D01*
X199467548Y-75307999D01*
X200090957Y-75307999D01*
X200107622Y-75309106D01*
X200127044Y-75311698D01*
X200141040Y-75311991D01*
X200179195Y-75308518D01*
X200190615Y-75307999D01*
X200444669Y-75307999D01*
X200451490Y-75307629D01*
X200502352Y-75302105D01*
X200517606Y-75298479D01*
X200530116Y-75293789D01*
X200600923Y-75288607D01*
X200663291Y-75322530D01*
X200697419Y-75384786D01*
X200699687Y-75424615D01*
X200692328Y-75496440D01*
X200692000Y-75502855D01*
X200692000Y-75627885D01*
X200696475Y-75643124D01*
X200697865Y-75644329D01*
X200705548Y-75646000D01*
X203089884Y-75646000D01*
X203105123Y-75641525D01*
X203106328Y-75640135D01*
X203107999Y-75632452D01*
X203107999Y-75502905D01*
X203107870Y-75500400D01*
X220891500Y-75500400D01*
X220891837Y-75503646D01*
X220891837Y-75503650D01*
X220899607Y-75578533D01*
X220902474Y-75606166D01*
X220904655Y-75612702D01*
X220904655Y-75612704D01*
X220925322Y-75674649D01*
X220958450Y-75773946D01*
X221051522Y-75924348D01*
X221056704Y-75929521D01*
X221138463Y-76011138D01*
X221172542Y-76073421D01*
X221167539Y-76144241D01*
X221138618Y-76189329D01*
X221056261Y-76271829D01*
X221047249Y-76283240D01*
X220962184Y-76421243D01*
X220956037Y-76434424D01*
X220904862Y-76588710D01*
X220901995Y-76602086D01*
X220892328Y-76696438D01*
X220892000Y-76702855D01*
X220892000Y-76827885D01*
X220896475Y-76843124D01*
X220897865Y-76844329D01*
X220905548Y-76846000D01*
X222228000Y-76846000D01*
X222296121Y-76866002D01*
X222342614Y-76919658D01*
X222354000Y-76972000D01*
X222354000Y-78189884D01*
X222358475Y-78205123D01*
X222359865Y-78206328D01*
X222367548Y-78207999D01*
X222597095Y-78207999D01*
X222603614Y-78207662D01*
X222699206Y-78197743D01*
X222712600Y-78194851D01*
X222866784Y-78143412D01*
X222879962Y-78137238D01*
X223020120Y-78050506D01*
X223088572Y-78031668D01*
X223156342Y-78052829D01*
X223201913Y-78107270D01*
X223208941Y-78128235D01*
X223212514Y-78143115D01*
X223215566Y-78152510D01*
X223305625Y-78369933D01*
X223310107Y-78378728D01*
X223421072Y-78559805D01*
X223431530Y-78569267D01*
X223440306Y-78565484D01*
X224610905Y-77394885D01*
X224673217Y-77360859D01*
X224744032Y-77365924D01*
X224789095Y-77394885D01*
X225956650Y-78562440D01*
X225969030Y-78569200D01*
X225976680Y-78563473D01*
X226089893Y-78378728D01*
X226094375Y-78369933D01*
X226184434Y-78152510D01*
X226187483Y-78143125D01*
X226242422Y-77914292D01*
X226243965Y-77904545D01*
X226262430Y-77669930D01*
X226262430Y-77660070D01*
X226243965Y-77425455D01*
X226242422Y-77415708D01*
X226187483Y-77186875D01*
X226184434Y-77177490D01*
X226094375Y-76960067D01*
X226089893Y-76951272D01*
X225983766Y-76778090D01*
X225965227Y-76709557D01*
X225986683Y-76641880D01*
X226015633Y-76611429D01*
X226028100Y-76602086D01*
X226113261Y-76538261D01*
X226200615Y-76421705D01*
X226251745Y-76285316D01*
X226258500Y-76223134D01*
X226258500Y-74026866D01*
X226251745Y-73964684D01*
X226200615Y-73828295D01*
X226113261Y-73711739D01*
X225996705Y-73624385D01*
X225860316Y-73573255D01*
X225798134Y-73566500D01*
X223601866Y-73566500D01*
X223539684Y-73573255D01*
X223403295Y-73624385D01*
X223286739Y-73711739D01*
X223199385Y-73828295D01*
X223148255Y-73964684D01*
X223147402Y-73972539D01*
X223143020Y-74012871D01*
X223115777Y-74078433D01*
X223057414Y-74118858D01*
X222986460Y-74121313D01*
X222951641Y-74106522D01*
X222935474Y-74096556D01*
X222906073Y-74078433D01*
X222878968Y-74061725D01*
X222878966Y-74061724D01*
X222872738Y-74057885D01*
X222773375Y-74024928D01*
X222711389Y-74004368D01*
X222711387Y-74004368D01*
X222704861Y-74002203D01*
X222698025Y-74001503D01*
X222698022Y-74001502D01*
X222654969Y-73997091D01*
X222600400Y-73991500D01*
X221599600Y-73991500D01*
X221596354Y-73991837D01*
X221596350Y-73991837D01*
X221500692Y-74001762D01*
X221500688Y-74001763D01*
X221493834Y-74002474D01*
X221487298Y-74004655D01*
X221487296Y-74004655D01*
X221407714Y-74031206D01*
X221326054Y-74058450D01*
X221175652Y-74151522D01*
X221050695Y-74276697D01*
X221046855Y-74282927D01*
X221046854Y-74282928D01*
X220966252Y-74413689D01*
X220957885Y-74427262D01*
X220955581Y-74434209D01*
X220907567Y-74578968D01*
X220902203Y-74595139D01*
X220901503Y-74601975D01*
X220901502Y-74601978D01*
X220897091Y-74645031D01*
X220891500Y-74699600D01*
X220891500Y-75500400D01*
X203107870Y-75500400D01*
X203107662Y-75496386D01*
X203097743Y-75400794D01*
X203094851Y-75387400D01*
X203043412Y-75233216D01*
X203037239Y-75220038D01*
X202951937Y-75082193D01*
X202942901Y-75070792D01*
X202861538Y-74989570D01*
X202827459Y-74927287D01*
X202832462Y-74856467D01*
X202861383Y-74811380D01*
X202944130Y-74728488D01*
X202944134Y-74728483D01*
X202949305Y-74723303D01*
X203021094Y-74606840D01*
X203073865Y-74559348D01*
X203143937Y-74547924D01*
X203202414Y-74571021D01*
X203251716Y-74606841D01*
X203278248Y-74626118D01*
X203284276Y-74628802D01*
X203284278Y-74628803D01*
X203436109Y-74696402D01*
X203452712Y-74703794D01*
X203541756Y-74722721D01*
X203633056Y-74742128D01*
X203633061Y-74742128D01*
X203639513Y-74743500D01*
X203830487Y-74743500D01*
X203836939Y-74742128D01*
X203836944Y-74742128D01*
X203928244Y-74722721D01*
X204017288Y-74703794D01*
X204033891Y-74696402D01*
X204185722Y-74628803D01*
X204185724Y-74628802D01*
X204191752Y-74626118D01*
X204218285Y-74606841D01*
X204278549Y-74563056D01*
X204346253Y-74513866D01*
X204415342Y-74437135D01*
X204469621Y-74376852D01*
X204469622Y-74376851D01*
X204474040Y-74371944D01*
X204543577Y-74251502D01*
X204566223Y-74212279D01*
X204566224Y-74212278D01*
X204569527Y-74206556D01*
X204628542Y-74024928D01*
X204629541Y-74015428D01*
X204647814Y-73841565D01*
X204648504Y-73835000D01*
X204628542Y-73645072D01*
X204569527Y-73463444D01*
X204564075Y-73454000D01*
X204529338Y-73393834D01*
X204474040Y-73298056D01*
X204428671Y-73247668D01*
X204350675Y-73161045D01*
X204350674Y-73161044D01*
X204346253Y-73156134D01*
X204294672Y-73118658D01*
X204251320Y-73062436D01*
X204245245Y-72991700D01*
X204259615Y-72953725D01*
X204266222Y-72942281D01*
X204266223Y-72942278D01*
X204269527Y-72936556D01*
X204328542Y-72754928D01*
X204331264Y-72729036D01*
X204347814Y-72571565D01*
X204348504Y-72565000D01*
X204328542Y-72375072D01*
X204269527Y-72193444D01*
X204174040Y-72028056D01*
X204139710Y-71989928D01*
X204050675Y-71891045D01*
X204050674Y-71891044D01*
X204046253Y-71886134D01*
X203891752Y-71773882D01*
X203885724Y-71771198D01*
X203885722Y-71771197D01*
X203723319Y-71698891D01*
X203723318Y-71698891D01*
X203717288Y-71696206D01*
X203623888Y-71676353D01*
X203536944Y-71657872D01*
X203536939Y-71657872D01*
X203530487Y-71656500D01*
X203339513Y-71656500D01*
X203333061Y-71657872D01*
X203333056Y-71657872D01*
X203246113Y-71676353D01*
X203152712Y-71696206D01*
X203146682Y-71698891D01*
X203146681Y-71698891D01*
X202984278Y-71771197D01*
X202984276Y-71771198D01*
X202978248Y-71773882D01*
X202823747Y-71886134D01*
X202819326Y-71891044D01*
X202819325Y-71891045D01*
X202730291Y-71989928D01*
X202695960Y-72028056D01*
X202600473Y-72193444D01*
X202541458Y-72375072D01*
X202521496Y-72565000D01*
X202522186Y-72571565D01*
X202530701Y-72652585D01*
X202517928Y-72722423D01*
X202469426Y-72774270D01*
X202400400Y-72791238D01*
X202400400Y-72791500D01*
X201399600Y-72791500D01*
X201396354Y-72791837D01*
X201396350Y-72791837D01*
X201300692Y-72801762D01*
X201300688Y-72801763D01*
X201293834Y-72802474D01*
X201287298Y-72804655D01*
X201287296Y-72804655D01*
X201241320Y-72819994D01*
X201126054Y-72858450D01*
X201119826Y-72862304D01*
X201119824Y-72862305D01*
X201100302Y-72874386D01*
X201031851Y-72893224D01*
X200964081Y-72872063D01*
X200918510Y-72817622D01*
X200907999Y-72767242D01*
X200907999Y-71912130D01*
X200909225Y-71894593D01*
X200911948Y-71875219D01*
X200912554Y-71867340D01*
X200912741Y-71853962D01*
X200912354Y-71846062D01*
X200908784Y-71814233D01*
X200907999Y-71800188D01*
X200907999Y-71555331D01*
X200907629Y-71548510D01*
X200902105Y-71497648D01*
X200898479Y-71482396D01*
X200853324Y-71361946D01*
X200844786Y-71346351D01*
X200768285Y-71244276D01*
X200755724Y-71231715D01*
X200653649Y-71155214D01*
X200638054Y-71146676D01*
X200517606Y-71101522D01*
X200502351Y-71097895D01*
X200451486Y-71092369D01*
X200444672Y-71092000D01*
X200202875Y-71092000D01*
X200187957Y-71091114D01*
X200162318Y-71088057D01*
X200148320Y-71087959D01*
X200116437Y-71091310D01*
X200103267Y-71092000D01*
X199472115Y-71092000D01*
X199456876Y-71096475D01*
X199455671Y-71097865D01*
X199454000Y-71105548D01*
X199454000Y-75289884D01*
X198946000Y-75289884D01*
X198946000Y-73472115D01*
X198941525Y-73456876D01*
X198940135Y-73455671D01*
X198932452Y-73454000D01*
X197510116Y-73454000D01*
X197494877Y-73458475D01*
X197493672Y-73459865D01*
X197492001Y-73467548D01*
X197492001Y-74189969D01*
X197471999Y-74258090D01*
X197418343Y-74304583D01*
X197348069Y-74314687D01*
X197322963Y-74307206D01*
X197322738Y-74307885D01*
X197161389Y-74254368D01*
X197161387Y-74254368D01*
X197154861Y-74252203D01*
X197148025Y-74251503D01*
X197148022Y-74251502D01*
X197104969Y-74247091D01*
X197050400Y-74241500D01*
X196049600Y-74241500D01*
X196046354Y-74241837D01*
X196046350Y-74241837D01*
X195950692Y-74251762D01*
X195950688Y-74251763D01*
X195943834Y-74252474D01*
X195937298Y-74254655D01*
X195937296Y-74254655D01*
X195826859Y-74291500D01*
X195776054Y-74308450D01*
X195625652Y-74401522D01*
X195620479Y-74406704D01*
X195615692Y-74410498D01*
X195549881Y-74437135D01*
X195480117Y-74423964D01*
X195463368Y-74413689D01*
X195456752Y-74408882D01*
X195450724Y-74406198D01*
X195450722Y-74406197D01*
X195288319Y-74333891D01*
X195288318Y-74333891D01*
X195282288Y-74331206D01*
X195188887Y-74311353D01*
X195101944Y-74292872D01*
X195101939Y-74292872D01*
X195095487Y-74291500D01*
X194904513Y-74291500D01*
X194898061Y-74292872D01*
X194898056Y-74292872D01*
X194811113Y-74311353D01*
X194717712Y-74331206D01*
X194711682Y-74333891D01*
X194711681Y-74333891D01*
X194549278Y-74406197D01*
X194549276Y-74406198D01*
X194543248Y-74408882D01*
X194537907Y-74412762D01*
X194537906Y-74412763D01*
X194504361Y-74437135D01*
X194388747Y-74521134D01*
X194384326Y-74526044D01*
X194384325Y-74526045D01*
X194288808Y-74632128D01*
X194260960Y-74663056D01*
X194218013Y-74737443D01*
X194175465Y-74811138D01*
X194165473Y-74828444D01*
X194106458Y-75010072D01*
X194105768Y-75016633D01*
X194105768Y-75016635D01*
X194093835Y-75130176D01*
X194086496Y-75200000D01*
X192424839Y-75200000D01*
X192351937Y-75082193D01*
X192342901Y-75070792D01*
X192261538Y-74989570D01*
X192227459Y-74927287D01*
X192232462Y-74856467D01*
X192261383Y-74811380D01*
X192344130Y-74728488D01*
X192344134Y-74728483D01*
X192349305Y-74723303D01*
X192404661Y-74633500D01*
X192438275Y-74578968D01*
X192438276Y-74578966D01*
X192442115Y-74572738D01*
X192492400Y-74421134D01*
X192495632Y-74411389D01*
X192495632Y-74411387D01*
X192497797Y-74404861D01*
X192508500Y-74300400D01*
X192508500Y-73499600D01*
X192505401Y-73469729D01*
X192498238Y-73400692D01*
X192498237Y-73400688D01*
X192497526Y-73393834D01*
X192493537Y-73381876D01*
X192443868Y-73233002D01*
X192441550Y-73226054D01*
X192348478Y-73075652D01*
X192223303Y-72950695D01*
X192217072Y-72946854D01*
X192078968Y-72861725D01*
X192078966Y-72861724D01*
X192072738Y-72857885D01*
X192044830Y-72848628D01*
X191986472Y-72808197D01*
X191959236Y-72742633D01*
X191958500Y-72729036D01*
X191958500Y-72502524D01*
X191978502Y-72434403D01*
X191990858Y-72418221D01*
X192064040Y-72336944D01*
X192159527Y-72171556D01*
X192218542Y-71989928D01*
X192228659Y-71893675D01*
X192233631Y-71846363D01*
X197487966Y-71846363D01*
X197491399Y-71881379D01*
X197492000Y-71893675D01*
X197492000Y-72927885D01*
X197496475Y-72943124D01*
X197497865Y-72944329D01*
X197505548Y-72946000D01*
X198927885Y-72946000D01*
X198943124Y-72941525D01*
X198944329Y-72940135D01*
X198946000Y-72932452D01*
X198946000Y-71110116D01*
X198941525Y-71094877D01*
X198940135Y-71093672D01*
X198932452Y-71092001D01*
X198302883Y-71092001D01*
X198287964Y-71091115D01*
X198262318Y-71088057D01*
X198248321Y-71087959D01*
X198216430Y-71091311D01*
X198203260Y-71092001D01*
X197955331Y-71092001D01*
X197948510Y-71092371D01*
X197897648Y-71097895D01*
X197882396Y-71101521D01*
X197761946Y-71146676D01*
X197746351Y-71155214D01*
X197644276Y-71231715D01*
X197631715Y-71244276D01*
X197555214Y-71346351D01*
X197546676Y-71361946D01*
X197501522Y-71482394D01*
X197497895Y-71497649D01*
X197492369Y-71548514D01*
X197492000Y-71555328D01*
X197492000Y-71794048D01*
X197491006Y-71809840D01*
X197488162Y-71832356D01*
X197487966Y-71846363D01*
X192233631Y-71846363D01*
X192237814Y-71806565D01*
X192238504Y-71800000D01*
X192218542Y-71610072D01*
X192159527Y-71428444D01*
X192064040Y-71263056D01*
X192047131Y-71244276D01*
X191940675Y-71126045D01*
X191940674Y-71126044D01*
X191936253Y-71121134D01*
X191781752Y-71008882D01*
X191775724Y-71006198D01*
X191775722Y-71006197D01*
X191613319Y-70933891D01*
X191613318Y-70933891D01*
X191607288Y-70931206D01*
X191513888Y-70911353D01*
X191426944Y-70892872D01*
X191426939Y-70892872D01*
X191420487Y-70891500D01*
X191229513Y-70891500D01*
X191223061Y-70892872D01*
X191223056Y-70892872D01*
X191136112Y-70911353D01*
X191042712Y-70931206D01*
X191036682Y-70933891D01*
X191036681Y-70933891D01*
X190874278Y-71006197D01*
X190874276Y-71006198D01*
X190868248Y-71008882D01*
X190713747Y-71121134D01*
X190709326Y-71126044D01*
X190709325Y-71126045D01*
X190602870Y-71244276D01*
X190585960Y-71263056D01*
X190490473Y-71428444D01*
X190431458Y-71610072D01*
X190411496Y-71800000D01*
X190412186Y-71806565D01*
X190421342Y-71893675D01*
X190431458Y-71989928D01*
X190490473Y-72171556D01*
X190585960Y-72336944D01*
X190659137Y-72418215D01*
X190689853Y-72482221D01*
X190691500Y-72502524D01*
X190691500Y-72712462D01*
X190671498Y-72780583D01*
X190617842Y-72827076D01*
X190605376Y-72831986D01*
X190526054Y-72858450D01*
X190375652Y-72951522D01*
X190250695Y-73076697D01*
X190246855Y-73082927D01*
X190246854Y-73082928D01*
X190197925Y-73162306D01*
X190157885Y-73227262D01*
X190148398Y-73255866D01*
X190106895Y-73380994D01*
X190102203Y-73395139D01*
X190101503Y-73401975D01*
X190101502Y-73401978D01*
X190099179Y-73424649D01*
X190091500Y-73499600D01*
X190091500Y-74300400D01*
X190091837Y-74303646D01*
X190091837Y-74303650D01*
X190101726Y-74398955D01*
X190102474Y-74406166D01*
X190104655Y-74412702D01*
X190104655Y-74412704D01*
X190108412Y-74423964D01*
X190158450Y-74573946D01*
X190251522Y-74724348D01*
X190256704Y-74729521D01*
X190338463Y-74811138D01*
X190372542Y-74873421D01*
X190367539Y-74944241D01*
X190338618Y-74989329D01*
X190256261Y-75071829D01*
X190247249Y-75083240D01*
X190162184Y-75221243D01*
X190156037Y-75234424D01*
X190104862Y-75388710D01*
X190101995Y-75402086D01*
X190092328Y-75496438D01*
X190092000Y-75502855D01*
X190092000Y-75790195D01*
X190071998Y-75858316D01*
X190018342Y-75904809D01*
X189948068Y-75914913D01*
X189883488Y-75885419D01*
X189879212Y-75881442D01*
X189878484Y-75880867D01*
X189873303Y-75875695D01*
X189867072Y-75871854D01*
X189728968Y-75786725D01*
X189728966Y-75786724D01*
X189722738Y-75782885D01*
X189599027Y-75741852D01*
X189561389Y-75729368D01*
X189561387Y-75729368D01*
X189554861Y-75727203D01*
X189548025Y-75726503D01*
X189548022Y-75726502D01*
X189504969Y-75722091D01*
X189450400Y-75716500D01*
X189336347Y-75716500D01*
X189268226Y-75696498D01*
X189221733Y-75642842D01*
X189211629Y-75572568D01*
X189227228Y-75527500D01*
X189256223Y-75477279D01*
X189256224Y-75477278D01*
X189259527Y-75471556D01*
X189318542Y-75289928D01*
X189320290Y-75273303D01*
X189337814Y-75106565D01*
X189338504Y-75100000D01*
X189328887Y-75008500D01*
X189319232Y-74916635D01*
X189319232Y-74916633D01*
X189318542Y-74910072D01*
X189259527Y-74728444D01*
X189253567Y-74718120D01*
X189221775Y-74663056D01*
X189164040Y-74563056D01*
X189124195Y-74518803D01*
X189040675Y-74426045D01*
X189040674Y-74426044D01*
X189036253Y-74421134D01*
X188881752Y-74308882D01*
X188875724Y-74306198D01*
X188875722Y-74306197D01*
X188713319Y-74233891D01*
X188713318Y-74233891D01*
X188707288Y-74231206D01*
X188634186Y-74215668D01*
X188602033Y-74208833D01*
X188539559Y-74175104D01*
X188505238Y-74112955D01*
X188508398Y-74046647D01*
X188516500Y-74021713D01*
X188516500Y-74021712D01*
X188518542Y-74015428D01*
X188519675Y-74004655D01*
X188537814Y-73832065D01*
X188538504Y-73825500D01*
X188527251Y-73718435D01*
X188519232Y-73642135D01*
X188519232Y-73642133D01*
X188518542Y-73635572D01*
X188459527Y-73453944D01*
X188445696Y-73429987D01*
X188367341Y-73294274D01*
X188364040Y-73288556D01*
X188335361Y-73256704D01*
X188240675Y-73151545D01*
X188240674Y-73151544D01*
X188236253Y-73146634D01*
X188081752Y-73034382D01*
X188075724Y-73031698D01*
X188075722Y-73031697D01*
X187913319Y-72959391D01*
X187913318Y-72959391D01*
X187907288Y-72956706D01*
X187793183Y-72932452D01*
X187726944Y-72918372D01*
X187726939Y-72918372D01*
X187720487Y-72917000D01*
X187529513Y-72917000D01*
X187523061Y-72918372D01*
X187523056Y-72918372D01*
X187456817Y-72932452D01*
X187342712Y-72956706D01*
X187336682Y-72959391D01*
X187336681Y-72959391D01*
X187174278Y-73031697D01*
X187174276Y-73031698D01*
X187168248Y-73034382D01*
X187013747Y-73146634D01*
X187009326Y-73151544D01*
X187009325Y-73151545D01*
X186914640Y-73256704D01*
X186885960Y-73288556D01*
X186832862Y-73380525D01*
X186832591Y-73380994D01*
X186781209Y-73429987D01*
X186711495Y-73443423D01*
X186645584Y-73417037D01*
X186616331Y-73384302D01*
X186610978Y-73375652D01*
X186485803Y-73250695D01*
X186435721Y-73219824D01*
X186341468Y-73161725D01*
X186341466Y-73161724D01*
X186335238Y-73157885D01*
X186174754Y-73104655D01*
X186173889Y-73104368D01*
X186173887Y-73104368D01*
X186167361Y-73102203D01*
X186160525Y-73101503D01*
X186160522Y-73101502D01*
X186117469Y-73097091D01*
X186062900Y-73091500D01*
X185287100Y-73091500D01*
X185283854Y-73091837D01*
X185283850Y-73091837D01*
X185188192Y-73101762D01*
X185188188Y-73101763D01*
X185181334Y-73102474D01*
X185174798Y-73104655D01*
X185174796Y-73104655D01*
X185067950Y-73140302D01*
X185013554Y-73158450D01*
X184863152Y-73251522D01*
X184738195Y-73376697D01*
X184735594Y-73380916D01*
X184678470Y-73421417D01*
X184607547Y-73424649D01*
X184546135Y-73389024D01*
X184539578Y-73381470D01*
X184535978Y-73375652D01*
X184410803Y-73250695D01*
X184360721Y-73219824D01*
X184266468Y-73161725D01*
X184266466Y-73161724D01*
X184260238Y-73157885D01*
X184099754Y-73104655D01*
X184098889Y-73104368D01*
X184098887Y-73104368D01*
X184092361Y-73102203D01*
X184085525Y-73101503D01*
X184085522Y-73101502D01*
X184042469Y-73097091D01*
X183987900Y-73091500D01*
X183212100Y-73091500D01*
X183208854Y-73091837D01*
X183208850Y-73091837D01*
X183113192Y-73101762D01*
X183113188Y-73101763D01*
X183106334Y-73102474D01*
X183099798Y-73104655D01*
X183099796Y-73104655D01*
X182992950Y-73140302D01*
X182938554Y-73158450D01*
X182932322Y-73162306D01*
X182932323Y-73162306D01*
X182930978Y-73163138D01*
X182929932Y-73163426D01*
X182925703Y-73165407D01*
X182925364Y-73164683D01*
X182862525Y-73181974D01*
X182794756Y-73160811D01*
X182771042Y-73140302D01*
X182736107Y-73101502D01*
X182686253Y-73046134D01*
X182566862Y-72959391D01*
X182537094Y-72937763D01*
X182537093Y-72937762D01*
X182531752Y-72933882D01*
X182525724Y-72931198D01*
X182525722Y-72931197D01*
X182363319Y-72858891D01*
X182363318Y-72858891D01*
X182357288Y-72856206D01*
X182263887Y-72836353D01*
X182176944Y-72817872D01*
X182176939Y-72817872D01*
X182170487Y-72816500D01*
X181979513Y-72816500D01*
X181973061Y-72817872D01*
X181973056Y-72817872D01*
X181886113Y-72836353D01*
X181792712Y-72856206D01*
X181786682Y-72858891D01*
X181786681Y-72858891D01*
X181624278Y-72931197D01*
X181624276Y-72931198D01*
X181618248Y-72933882D01*
X181612907Y-72937762D01*
X181612906Y-72937763D01*
X181583138Y-72959391D01*
X181463747Y-73046134D01*
X181459326Y-73051044D01*
X181459325Y-73051045D01*
X181359669Y-73161725D01*
X181335960Y-73188056D01*
X181240473Y-73353444D01*
X181181458Y-73535072D01*
X181180768Y-73541633D01*
X181180768Y-73541635D01*
X181170205Y-73642135D01*
X181161496Y-73725000D01*
X181162186Y-73731565D01*
X181172353Y-73828295D01*
X181181458Y-73914928D01*
X181240473Y-74096556D01*
X181335960Y-74261944D01*
X181340378Y-74266851D01*
X181340379Y-74266852D01*
X181458167Y-74397669D01*
X181463747Y-74403866D01*
X181618248Y-74516118D01*
X181624276Y-74518802D01*
X181624278Y-74518803D01*
X181786681Y-74591109D01*
X181792712Y-74593794D01*
X181886113Y-74613647D01*
X181973056Y-74632128D01*
X181973061Y-74632128D01*
X181979513Y-74633500D01*
X182035406Y-74633500D01*
X182103527Y-74653502D01*
X182124501Y-74670405D01*
X182171343Y-74717247D01*
X182178887Y-74725537D01*
X182183000Y-74732018D01*
X182188777Y-74737443D01*
X182232667Y-74778658D01*
X182235509Y-74781413D01*
X182255230Y-74801134D01*
X182258425Y-74803612D01*
X182267447Y-74811318D01*
X182299679Y-74841586D01*
X182306628Y-74845406D01*
X182317432Y-74851346D01*
X182333956Y-74862199D01*
X182349959Y-74874613D01*
X182390543Y-74892176D01*
X182401173Y-74897383D01*
X182439940Y-74918695D01*
X182447620Y-74920667D01*
X182454990Y-74923585D01*
X182453895Y-74926351D01*
X182502868Y-74955504D01*
X182530050Y-75001354D01*
X182570950Y-75123946D01*
X182664022Y-75274348D01*
X182691858Y-75302135D01*
X182703599Y-75313856D01*
X182737678Y-75376138D01*
X182732675Y-75446958D01*
X182690178Y-75503831D01*
X182623679Y-75528700D01*
X182614581Y-75529029D01*
X182520200Y-75529029D01*
X182452079Y-75509027D01*
X182432853Y-75492686D01*
X182432580Y-75492989D01*
X182427668Y-75488566D01*
X182423253Y-75483663D01*
X182326194Y-75413145D01*
X182274094Y-75375292D01*
X182274093Y-75375291D01*
X182268752Y-75371411D01*
X182262724Y-75368727D01*
X182262722Y-75368726D01*
X182100319Y-75296420D01*
X182100318Y-75296420D01*
X182094288Y-75293735D01*
X181980959Y-75269646D01*
X181913944Y-75255401D01*
X181913939Y-75255401D01*
X181907487Y-75254029D01*
X181716513Y-75254029D01*
X181710061Y-75255401D01*
X181710056Y-75255401D01*
X181643041Y-75269646D01*
X181529712Y-75293735D01*
X181523682Y-75296420D01*
X181523681Y-75296420D01*
X181361278Y-75368726D01*
X181361276Y-75368727D01*
X181355248Y-75371411D01*
X181349907Y-75375291D01*
X181349906Y-75375292D01*
X181321121Y-75396206D01*
X181200747Y-75483663D01*
X181196326Y-75488573D01*
X181196325Y-75488574D01*
X181160196Y-75528700D01*
X181072960Y-75625585D01*
X181054600Y-75657386D01*
X180982143Y-75782885D01*
X180977473Y-75790973D01*
X180918458Y-75972601D01*
X180917768Y-75979162D01*
X180917768Y-75979164D01*
X180900701Y-76141550D01*
X180898496Y-76162529D01*
X175629048Y-76162529D01*
X175620622Y-68900000D01*
X200886496Y-68900000D01*
X200887186Y-68906565D01*
X200905415Y-69080000D01*
X200906458Y-69089928D01*
X200965473Y-69271556D01*
X201060960Y-69436944D01*
X201065378Y-69441851D01*
X201065379Y-69441852D01*
X201184325Y-69573955D01*
X201188747Y-69578866D01*
X201287843Y-69650864D01*
X201337312Y-69686805D01*
X201343248Y-69691118D01*
X201349276Y-69693802D01*
X201349278Y-69693803D01*
X201438444Y-69733502D01*
X201517712Y-69768794D01*
X201611113Y-69788647D01*
X201698056Y-69807128D01*
X201698061Y-69807128D01*
X201704513Y-69808500D01*
X201895487Y-69808500D01*
X201901939Y-69807128D01*
X201901944Y-69807128D01*
X201988887Y-69788647D01*
X202082288Y-69768794D01*
X202161556Y-69733502D01*
X202250722Y-69693803D01*
X202250724Y-69693802D01*
X202256752Y-69691118D01*
X202262689Y-69686805D01*
X202312157Y-69650864D01*
X202411253Y-69578866D01*
X202415675Y-69573955D01*
X202534621Y-69441852D01*
X202534622Y-69441851D01*
X202539040Y-69436944D01*
X202634527Y-69271556D01*
X202677955Y-69137900D01*
X220541500Y-69137900D01*
X220552474Y-69243666D01*
X220608450Y-69411446D01*
X220701522Y-69561848D01*
X220826697Y-69686805D01*
X220977262Y-69779615D01*
X220993983Y-69785161D01*
X221138611Y-69833132D01*
X221138613Y-69833132D01*
X221145139Y-69835297D01*
X221151975Y-69835997D01*
X221151978Y-69835998D01*
X221195031Y-69840409D01*
X221249600Y-69846000D01*
X222300400Y-69846000D01*
X222303646Y-69845663D01*
X222303650Y-69845663D01*
X222399308Y-69835738D01*
X222399312Y-69835737D01*
X222406166Y-69835026D01*
X222412702Y-69832845D01*
X222412704Y-69832845D01*
X222555629Y-69785161D01*
X222573946Y-69779050D01*
X222588303Y-69770166D01*
X222649402Y-69732356D01*
X222715705Y-69713500D01*
X223191454Y-69713500D01*
X223259575Y-69733502D01*
X223303721Y-69782297D01*
X223305177Y-69785154D01*
X223307073Y-69789732D01*
X223309662Y-69793956D01*
X223309662Y-69793957D01*
X223333493Y-69832845D01*
X223435248Y-69998896D01*
X223594567Y-70185433D01*
X223781104Y-70344752D01*
X223785327Y-70347340D01*
X223785330Y-70347342D01*
X223854515Y-70389738D01*
X223990268Y-70472927D01*
X224134967Y-70532864D01*
X224212335Y-70564911D01*
X224212337Y-70564912D01*
X224216908Y-70566805D01*
X224299563Y-70586649D01*
X224450630Y-70622917D01*
X224450636Y-70622918D01*
X224455443Y-70624072D01*
X224700000Y-70643319D01*
X224944557Y-70624072D01*
X224949364Y-70622918D01*
X224949370Y-70622917D01*
X225100437Y-70586649D01*
X225183092Y-70566805D01*
X225187663Y-70564912D01*
X225187665Y-70564911D01*
X225265033Y-70532864D01*
X225409732Y-70472927D01*
X225545485Y-70389738D01*
X225614670Y-70347342D01*
X225614673Y-70347340D01*
X225618896Y-70344752D01*
X225805433Y-70185433D01*
X225964752Y-69998896D01*
X226092927Y-69789732D01*
X226180271Y-69578866D01*
X226184911Y-69567665D01*
X226184912Y-69567663D01*
X226186805Y-69563092D01*
X226244072Y-69324557D01*
X226263319Y-69080000D01*
X226244072Y-68835443D01*
X226186805Y-68596908D01*
X226092927Y-68370268D01*
X225964752Y-68161104D01*
X225805433Y-67974567D01*
X225618896Y-67815248D01*
X225616549Y-67813810D01*
X225603185Y-67802395D01*
X224712812Y-66912022D01*
X224698868Y-66904408D01*
X224697035Y-66904539D01*
X224690420Y-66908790D01*
X223796815Y-67802395D01*
X223783451Y-67813810D01*
X223781104Y-67815248D01*
X223594567Y-67974567D01*
X223435248Y-68161104D01*
X223432660Y-68165327D01*
X223432658Y-68165330D01*
X223372689Y-68263192D01*
X223307073Y-68370268D01*
X223305180Y-68374839D01*
X223303721Y-68377703D01*
X223254973Y-68429318D01*
X223191454Y-68446500D01*
X223130860Y-68446500D01*
X223062739Y-68426498D01*
X223016246Y-68372842D01*
X223005533Y-68333504D01*
X222998238Y-68263192D01*
X222998237Y-68263188D01*
X222997526Y-68256334D01*
X222985783Y-68221134D01*
X222943868Y-68095502D01*
X222941550Y-68088554D01*
X222848478Y-67938152D01*
X222723303Y-67813195D01*
X222718765Y-67810398D01*
X222678176Y-67753147D01*
X222674946Y-67682224D01*
X222710572Y-67620813D01*
X222719068Y-67613438D01*
X222729207Y-67605402D01*
X222843739Y-67490671D01*
X222852751Y-67479260D01*
X222937816Y-67341257D01*
X222943963Y-67328076D01*
X222995138Y-67173790D01*
X222998005Y-67160414D01*
X223001219Y-67129048D01*
X223028060Y-67063321D01*
X223086175Y-67022539D01*
X223157113Y-67019651D01*
X223218352Y-67055573D01*
X223242972Y-67093673D01*
X223305625Y-67244933D01*
X223310107Y-67253728D01*
X223421072Y-67434805D01*
X223431530Y-67444267D01*
X223440306Y-67440484D01*
X224610905Y-66269885D01*
X224673217Y-66235859D01*
X224744032Y-66240924D01*
X224789095Y-66269885D01*
X225956650Y-67437440D01*
X225969030Y-67444200D01*
X225976680Y-67438473D01*
X226089893Y-67253728D01*
X226094375Y-67244933D01*
X226184434Y-67027510D01*
X226187483Y-67018125D01*
X226242422Y-66789292D01*
X226243965Y-66779545D01*
X226262430Y-66544930D01*
X226262430Y-66535070D01*
X226243965Y-66300455D01*
X226242422Y-66290708D01*
X226187483Y-66061875D01*
X226184434Y-66052490D01*
X226094375Y-65835067D01*
X226089893Y-65826272D01*
X225983766Y-65653090D01*
X225965227Y-65584557D01*
X225986683Y-65516880D01*
X226015633Y-65486429D01*
X226106081Y-65418642D01*
X226113261Y-65413261D01*
X226200615Y-65296705D01*
X226251745Y-65160316D01*
X226258500Y-65098134D01*
X226258500Y-62901866D01*
X226251745Y-62839684D01*
X226200615Y-62703295D01*
X226113261Y-62586739D01*
X225996705Y-62499385D01*
X225860316Y-62448255D01*
X225798134Y-62441500D01*
X223601866Y-62441500D01*
X223539684Y-62448255D01*
X223403295Y-62499385D01*
X223286739Y-62586739D01*
X223199385Y-62703295D01*
X223148255Y-62839684D01*
X223141500Y-62901866D01*
X223141500Y-65098134D01*
X223148255Y-65160316D01*
X223199385Y-65296705D01*
X223286739Y-65413261D01*
X223293919Y-65418642D01*
X223384367Y-65486429D01*
X223426882Y-65543288D01*
X223431908Y-65614107D01*
X223416234Y-65653090D01*
X223310107Y-65826272D01*
X223305625Y-65835067D01*
X223215566Y-66052490D01*
X223212517Y-66061875D01*
X223208399Y-66079027D01*
X223173047Y-66140596D01*
X223110021Y-66173279D01*
X223039330Y-66166699D01*
X222983418Y-66122945D01*
X222966356Y-66089488D01*
X222943413Y-66020718D01*
X222937239Y-66007538D01*
X222851937Y-65869693D01*
X222842901Y-65858292D01*
X222728171Y-65743761D01*
X222716760Y-65734749D01*
X222578757Y-65649684D01*
X222565576Y-65643537D01*
X222411290Y-65592362D01*
X222397914Y-65589495D01*
X222303562Y-65579828D01*
X222297145Y-65579500D01*
X222047115Y-65579500D01*
X222031876Y-65583975D01*
X222030671Y-65585365D01*
X222029000Y-65593048D01*
X222029000Y-66803000D01*
X222008998Y-66871121D01*
X221955342Y-66917614D01*
X221903000Y-66929000D01*
X220560116Y-66929000D01*
X220544877Y-66933475D01*
X220543672Y-66934865D01*
X220542001Y-66942548D01*
X220542001Y-67059595D01*
X220542338Y-67066114D01*
X220552257Y-67161706D01*
X220555149Y-67175100D01*
X220606588Y-67329284D01*
X220612761Y-67342462D01*
X220698063Y-67480307D01*
X220707099Y-67491708D01*
X220821828Y-67606238D01*
X220830762Y-67613294D01*
X220871823Y-67671212D01*
X220875053Y-67742135D01*
X220839426Y-67803546D01*
X220831593Y-67810346D01*
X220825652Y-67814022D01*
X220700695Y-67939197D01*
X220696855Y-67945427D01*
X220696854Y-67945428D01*
X220642325Y-68033891D01*
X220607885Y-68089762D01*
X220552203Y-68257639D01*
X220541500Y-68362100D01*
X220541500Y-69137900D01*
X202677955Y-69137900D01*
X202693542Y-69089928D01*
X202694586Y-69080000D01*
X202712814Y-68906565D01*
X202713504Y-68900000D01*
X202712814Y-68893435D01*
X202694232Y-68716635D01*
X202694232Y-68716633D01*
X202693542Y-68710072D01*
X202634527Y-68528444D01*
X202539040Y-68363056D01*
X202438245Y-68251111D01*
X202415675Y-68226045D01*
X202415674Y-68226044D01*
X202411253Y-68221134D01*
X202256752Y-68108882D01*
X202250724Y-68106198D01*
X202250722Y-68106197D01*
X202088319Y-68033891D01*
X202088318Y-68033891D01*
X202082288Y-68031206D01*
X201988888Y-68011353D01*
X201901944Y-67992872D01*
X201901939Y-67992872D01*
X201895487Y-67991500D01*
X201704513Y-67991500D01*
X201698061Y-67992872D01*
X201698056Y-67992872D01*
X201611112Y-68011353D01*
X201517712Y-68031206D01*
X201511682Y-68033891D01*
X201511681Y-68033891D01*
X201349278Y-68106197D01*
X201349276Y-68106198D01*
X201343248Y-68108882D01*
X201188747Y-68221134D01*
X201184326Y-68226044D01*
X201184325Y-68226045D01*
X201161756Y-68251111D01*
X201060960Y-68363056D01*
X200965473Y-68528444D01*
X200906458Y-68710072D01*
X200905768Y-68716633D01*
X200905768Y-68716635D01*
X200887186Y-68893435D01*
X200886496Y-68900000D01*
X175620622Y-68900000D01*
X175616794Y-65600000D01*
X183836496Y-65600000D01*
X183837186Y-65606565D01*
X183850659Y-65734749D01*
X183856458Y-65789928D01*
X183915473Y-65971556D01*
X184010960Y-66136944D01*
X184138747Y-66278866D01*
X184293248Y-66391118D01*
X184299276Y-66393802D01*
X184299278Y-66393803D01*
X184356611Y-66419329D01*
X184467712Y-66468794D01*
X184561112Y-66488647D01*
X184648056Y-66507128D01*
X184648061Y-66507128D01*
X184654513Y-66508500D01*
X184845487Y-66508500D01*
X184851939Y-66507128D01*
X184851944Y-66507128D01*
X184938888Y-66488647D01*
X185032288Y-66468794D01*
X185143389Y-66419329D01*
X185180323Y-66402885D01*
X220542000Y-66402885D01*
X220546475Y-66418124D01*
X220547865Y-66419329D01*
X220555548Y-66421000D01*
X221502885Y-66421000D01*
X221518124Y-66416525D01*
X221519329Y-66415135D01*
X221521000Y-66407452D01*
X221521000Y-65597616D01*
X221516525Y-65582377D01*
X221515135Y-65581172D01*
X221507452Y-65579501D01*
X221252905Y-65579501D01*
X221246386Y-65579838D01*
X221150794Y-65589757D01*
X221137400Y-65592649D01*
X220983216Y-65644088D01*
X220970038Y-65650261D01*
X220832193Y-65735563D01*
X220820792Y-65744599D01*
X220706261Y-65859329D01*
X220697249Y-65870740D01*
X220612184Y-66008743D01*
X220606037Y-66021924D01*
X220554862Y-66176210D01*
X220551995Y-66189586D01*
X220542328Y-66283938D01*
X220542000Y-66290355D01*
X220542000Y-66402885D01*
X185180323Y-66402885D01*
X185200722Y-66393803D01*
X185200724Y-66393802D01*
X185206752Y-66391118D01*
X185361253Y-66278866D01*
X185489040Y-66136944D01*
X185584527Y-65971556D01*
X185643542Y-65789928D01*
X185649342Y-65734749D01*
X185662814Y-65606565D01*
X185663504Y-65600000D01*
X185661384Y-65579828D01*
X185644232Y-65416635D01*
X185644232Y-65416633D01*
X185643542Y-65410072D01*
X185584527Y-65228444D01*
X185489040Y-65063056D01*
X185361253Y-64921134D01*
X185206752Y-64808882D01*
X185200724Y-64806198D01*
X185200722Y-64806197D01*
X185038319Y-64733891D01*
X185038318Y-64733891D01*
X185032288Y-64731206D01*
X184938888Y-64711353D01*
X184851944Y-64692872D01*
X184851939Y-64692872D01*
X184845487Y-64691500D01*
X184654513Y-64691500D01*
X184648061Y-64692872D01*
X184648056Y-64692872D01*
X184561112Y-64711353D01*
X184467712Y-64731206D01*
X184461682Y-64733891D01*
X184461681Y-64733891D01*
X184299278Y-64806197D01*
X184299276Y-64806198D01*
X184293248Y-64808882D01*
X184138747Y-64921134D01*
X184010960Y-65063056D01*
X183915473Y-65228444D01*
X183856458Y-65410072D01*
X183855768Y-65416633D01*
X183855768Y-65416635D01*
X183838616Y-65579828D01*
X183836496Y-65600000D01*
X175616794Y-65600000D01*
X175609201Y-59054645D01*
X175629124Y-58986502D01*
X175682726Y-58939947D01*
X175735201Y-58928500D01*
X229997500Y-58928500D01*
X230065621Y-58948502D01*
G37*
%TD.AperFunction*%
%TA.AperFunction,Conductor*%
G36*
X184728865Y-75260976D02*
G01*
X184735422Y-75268530D01*
X184739022Y-75274348D01*
X184744204Y-75279521D01*
X184863174Y-75398284D01*
X184897253Y-75460567D01*
X184892250Y-75531387D01*
X184863330Y-75576474D01*
X184861275Y-75578533D01*
X184813195Y-75626697D01*
X184810594Y-75630916D01*
X184753470Y-75671417D01*
X184682547Y-75674649D01*
X184621135Y-75639024D01*
X184614578Y-75631470D01*
X184610978Y-75625652D01*
X184516549Y-75531387D01*
X184486826Y-75501716D01*
X184452747Y-75439433D01*
X184457750Y-75368613D01*
X184486670Y-75323526D01*
X184531633Y-75278484D01*
X184536805Y-75273303D01*
X184539406Y-75269084D01*
X184596530Y-75228583D01*
X184667453Y-75225351D01*
X184728865Y-75260976D01*
G37*
%TD.AperFunction*%
%TD*%
M02*
