M48
; DRILL file {KiCad 6.0.11-2627ca5db0~126~ubuntu22.04.1} date Fri 03 Mar 2023 03:37:01 PM EST
; FORMAT={-:-/ absolute / inch / decimal}
; #@! TF.CreationDate,2023-03-03T15:37:01-05:00
; #@! TF.GenerationSoftware,Kicad,Pcbnew,6.0.11-2627ca5db0~126~ubuntu22.04.1
; #@! TF.FileFunction,Plated,1,4,PTH
FMAT,2
INCH
; #@! TA.AperFunction,Plated,PTH,ViaDrill
T1C0.0157
; #@! TA.AperFunction,Plated,PTH,ComponentDrill
T2C0.0394
; #@! TA.AperFunction,Plated,PTH,ComponentDrill
T3C0.0400
; #@! TA.AperFunction,Plated,PTH,ComponentDrill
T4C0.0433
%
G90
G05
T1
X6.9689Y-3.0921
X7.1488Y-3.024
X7.1634Y-3.5453
X7.3002Y-3.5561
X7.3799Y-3.56
X7.3843Y-3.1213
X7.4622Y-3.1382
X7.502Y-3.5423
X7.5894Y-3.2244
X7.5913Y-3.4094
X7.6028Y-3.6319
X7.6146Y-3.0976
X7.6467Y-3.5315
X7.6835Y-3.2283
X7.7697Y-3.1565
X7.7746Y-3.688
X7.7815Y-3.1024
X7.7933Y-3.6093
X7.8425Y-3.2116
X7.8435Y-3.6073
X7.8937Y-3.2618
X7.8957Y-3.6142
X7.9626Y-3.1801
X7.9646Y-3.0965
X7.9724Y-3.2352
X7.9862Y-3.4715
X8.0035Y-3.8433
X8.0197Y-3.4183
X8.0531Y-2.8524
X8.0659Y-3.7392
X8.0679Y-3.6732
X8.0738Y-3.625
X8.0787Y-3.1693
X8.0787Y-3.2323
X8.1176Y-3.7278
X8.1217Y-3.7737
X8.1264Y-2.5343
X8.1289Y-2.7362
X8.1299Y-3.5453
X8.1368Y-3.81
X8.1555Y-2.9606
X8.1654Y-3.5197
X8.1667Y-3.3183
X8.1693Y-3.4547
X8.1713Y-3.6201
X8.1732Y-3.4065
X8.1921Y-2.4972
X8.2146Y-2.9035
X8.2746Y-2.8898
X8.2904Y-3.6122
X8.2972Y-3.814
X8.3061Y-3.0758
X8.3258Y-3.6585
X8.3445Y-3.4744
X8.3646Y-3.7398
X8.3711Y-3.1496
X8.3932Y-3.2716
X8.4281Y-3.1132
X8.4439Y-3.2628
X8.4488Y-3.498
X8.4626Y-2.8159
X8.4784Y-3.2384
X8.5148Y-3.5
X8.5177Y-2.6476
X8.5187Y-3.3602
X8.5217Y-3.2372
X8.5398Y-3.4696
X8.561Y-3.2372
X8.5787Y-3.4606
X8.5896Y-2.6378
X8.6043Y-3.2579
X8.6309Y-3.2274
X8.7268Y-3.8039
X8.8941Y-3.8063
X9.0226Y-3.3307
T2
X7.0925Y-3.2323
X7.1925Y-3.2323
X7.2925Y-3.2323
X7.3012Y-2.6665
X7.3012Y-2.7665
X7.3012Y-2.8665
X7.3012Y-2.9665
X7.3925Y-3.2323
T3
X8.4181Y-3.6142
X8.5181Y-3.6142
X8.6181Y-3.6142
X8.7181Y-3.6142
X8.8181Y-3.6142
X8.9181Y-3.6142
T4
X8.8455Y-2.8951
X8.8455Y-2.9951
X8.8455Y-3.0951
X8.8455Y-3.1951
X8.8455Y-3.3642
X8.8455Y-3.4642
X8.8465Y-2.5197
X8.8465Y-2.6197
X8.8465Y-2.7197
T0
M30
