%TF.GenerationSoftware,KiCad,Pcbnew,6.0.11-2627ca5db0~126~ubuntu22.04.1*%
%TF.CreationDate,2023-03-03T15:37:04-05:00*%
%TF.ProjectId,lin-fan-control,6c696e2d-6661-46e2-9d63-6f6e74726f6c,1.0*%
%TF.SameCoordinates,Original*%
%TF.FileFunction,Legend,Top*%
%TF.FilePolarity,Positive*%
%FSLAX46Y46*%
G04 Gerber Fmt 4.6, Leading zero omitted, Abs format (unit mm)*
G04 Created by KiCad (PCBNEW 6.0.11-2627ca5db0~126~ubuntu22.04.1) date 2023-03-03 15:37:04*
%MOMM*%
%LPD*%
G01*
G04 APERTURE LIST*
%ADD10C,0.150000*%
%ADD11C,0.127000*%
%ADD12C,0.101600*%
%ADD13C,0.120000*%
%ADD14C,0.066040*%
%ADD15C,0.010000*%
G04 APERTURE END LIST*
D10*
X177746190Y-91592380D02*
X178079523Y-92592380D01*
X178412857Y-91592380D01*
X179270000Y-92592380D02*
X178698571Y-92592380D01*
X178984285Y-92592380D02*
X178984285Y-91592380D01*
X178889047Y-91735238D01*
X178793809Y-91830476D01*
X178698571Y-91878095D01*
X179698571Y-92497142D02*
X179746190Y-92544761D01*
X179698571Y-92592380D01*
X179650952Y-92544761D01*
X179698571Y-92497142D01*
X179698571Y-92592380D01*
X180365238Y-91592380D02*
X180460476Y-91592380D01*
X180555714Y-91640000D01*
X180603333Y-91687619D01*
X180650952Y-91782857D01*
X180698571Y-91973333D01*
X180698571Y-92211428D01*
X180650952Y-92401904D01*
X180603333Y-92497142D01*
X180555714Y-92544761D01*
X180460476Y-92592380D01*
X180365238Y-92592380D01*
X180270000Y-92544761D01*
X180222380Y-92497142D01*
X180174761Y-92401904D01*
X180127142Y-92211428D01*
X180127142Y-91973333D01*
X180174761Y-91782857D01*
X180222380Y-91687619D01*
X180270000Y-91640000D01*
X180365238Y-91592380D01*
X177129047Y-96583333D02*
X177081428Y-96535714D01*
X176986190Y-96392857D01*
X176938571Y-96297619D01*
X176890952Y-96154761D01*
X176843333Y-95916666D01*
X176843333Y-95726190D01*
X176890952Y-95488095D01*
X176938571Y-95345238D01*
X176986190Y-95250000D01*
X177081428Y-95107142D01*
X177129047Y-95059523D01*
X177938571Y-96154761D02*
X177843333Y-96202380D01*
X177652857Y-96202380D01*
X177557619Y-96154761D01*
X177510000Y-96107142D01*
X177462380Y-96011904D01*
X177462380Y-95726190D01*
X177510000Y-95630952D01*
X177557619Y-95583333D01*
X177652857Y-95535714D01*
X177843333Y-95535714D01*
X177938571Y-95583333D01*
X178271904Y-96583333D02*
X178319523Y-96535714D01*
X178414761Y-96392857D01*
X178462380Y-96297619D01*
X178510000Y-96154761D01*
X178557619Y-95916666D01*
X178557619Y-95726190D01*
X178510000Y-95488095D01*
X178462380Y-95345238D01*
X178414761Y-95250000D01*
X178319523Y-95107142D01*
X178271904Y-95059523D01*
X179748095Y-95297619D02*
X179795714Y-95250000D01*
X179890952Y-95202380D01*
X180129047Y-95202380D01*
X180224285Y-95250000D01*
X180271904Y-95297619D01*
X180319523Y-95392857D01*
X180319523Y-95488095D01*
X180271904Y-95630952D01*
X179700476Y-96202380D01*
X180319523Y-96202380D01*
X180938571Y-95202380D02*
X181033809Y-95202380D01*
X181129047Y-95250000D01*
X181176666Y-95297619D01*
X181224285Y-95392857D01*
X181271904Y-95583333D01*
X181271904Y-95821428D01*
X181224285Y-96011904D01*
X181176666Y-96107142D01*
X181129047Y-96154761D01*
X181033809Y-96202380D01*
X180938571Y-96202380D01*
X180843333Y-96154761D01*
X180795714Y-96107142D01*
X180748095Y-96011904D01*
X180700476Y-95821428D01*
X180700476Y-95583333D01*
X180748095Y-95392857D01*
X180795714Y-95297619D01*
X180843333Y-95250000D01*
X180938571Y-95202380D01*
X181652857Y-95297619D02*
X181700476Y-95250000D01*
X181795714Y-95202380D01*
X182033809Y-95202380D01*
X182129047Y-95250000D01*
X182176666Y-95297619D01*
X182224285Y-95392857D01*
X182224285Y-95488095D01*
X182176666Y-95630952D01*
X181605238Y-96202380D01*
X182224285Y-96202380D01*
X182557619Y-95202380D02*
X183176666Y-95202380D01*
X182843333Y-95583333D01*
X182986190Y-95583333D01*
X183081428Y-95630952D01*
X183129047Y-95678571D01*
X183176666Y-95773809D01*
X183176666Y-96011904D01*
X183129047Y-96107142D01*
X183081428Y-96154761D01*
X182986190Y-96202380D01*
X182700476Y-96202380D01*
X182605238Y-96154761D01*
X182557619Y-96107142D01*
X184890952Y-95250000D02*
X184795714Y-95202380D01*
X184652857Y-95202380D01*
X184510000Y-95250000D01*
X184414761Y-95345238D01*
X184367142Y-95440476D01*
X184319523Y-95630952D01*
X184319523Y-95773809D01*
X184367142Y-95964285D01*
X184414761Y-96059523D01*
X184510000Y-96154761D01*
X184652857Y-96202380D01*
X184748095Y-96202380D01*
X184890952Y-96154761D01*
X184938571Y-96107142D01*
X184938571Y-95773809D01*
X184748095Y-95773809D01*
X185795714Y-96202380D02*
X185795714Y-95678571D01*
X185748095Y-95583333D01*
X185652857Y-95535714D01*
X185462380Y-95535714D01*
X185367142Y-95583333D01*
X185795714Y-96154761D02*
X185700476Y-96202380D01*
X185462380Y-96202380D01*
X185367142Y-96154761D01*
X185319523Y-96059523D01*
X185319523Y-95964285D01*
X185367142Y-95869047D01*
X185462380Y-95821428D01*
X185700476Y-95821428D01*
X185795714Y-95773809D01*
X186176666Y-95535714D02*
X186414761Y-96202380D01*
X186652857Y-95535714D01*
X187033809Y-96202380D02*
X187033809Y-95535714D01*
X187033809Y-95202380D02*
X186986190Y-95250000D01*
X187033809Y-95297619D01*
X187081428Y-95250000D01*
X187033809Y-95202380D01*
X187033809Y-95297619D01*
X187510000Y-95535714D02*
X187510000Y-96202380D01*
X187510000Y-95630952D02*
X187557619Y-95583333D01*
X187652857Y-95535714D01*
X187795714Y-95535714D01*
X187890952Y-95583333D01*
X187938571Y-95678571D01*
X187938571Y-96202380D01*
X189176666Y-96202380D02*
X189176666Y-95202380D01*
X189176666Y-95678571D02*
X189748095Y-95678571D01*
X189748095Y-96202380D02*
X189748095Y-95202380D01*
X190652857Y-95535714D02*
X190652857Y-96202380D01*
X190224285Y-95535714D02*
X190224285Y-96059523D01*
X190271904Y-96154761D01*
X190367142Y-96202380D01*
X190510000Y-96202380D01*
X190605238Y-96154761D01*
X190652857Y-96107142D01*
X191129047Y-96202380D02*
X191129047Y-95535714D01*
X191129047Y-95726190D02*
X191176666Y-95630952D01*
X191224285Y-95583333D01*
X191319523Y-95535714D01*
X191414761Y-95535714D01*
X191890952Y-96202380D02*
X191795714Y-96154761D01*
X191748095Y-96059523D01*
X191748095Y-95202380D01*
X192271904Y-96202380D02*
X192271904Y-95202380D01*
X192271904Y-95583333D02*
X192367142Y-95535714D01*
X192557619Y-95535714D01*
X192652857Y-95583333D01*
X192700476Y-95630952D01*
X192748095Y-95726190D01*
X192748095Y-96011904D01*
X192700476Y-96107142D01*
X192652857Y-96154761D01*
X192557619Y-96202380D01*
X192367142Y-96202380D01*
X192271904Y-96154761D01*
X193605238Y-95535714D02*
X193605238Y-96202380D01*
X193176666Y-95535714D02*
X193176666Y-96059523D01*
X193224285Y-96154761D01*
X193319523Y-96202380D01*
X193462380Y-96202380D01*
X193557619Y-96154761D01*
X193605238Y-96107142D01*
X193938571Y-95535714D02*
X194319523Y-95535714D01*
X194081428Y-95202380D02*
X194081428Y-96059523D01*
X194129047Y-96154761D01*
X194224285Y-96202380D01*
X194319523Y-96202380D01*
X177140952Y-94332380D02*
X176664761Y-94332380D01*
X176664761Y-93332380D01*
X177474285Y-94332380D02*
X177474285Y-93332380D01*
X177950476Y-94332380D02*
X177950476Y-93332380D01*
X178521904Y-94332380D01*
X178521904Y-93332380D01*
X179331428Y-93808571D02*
X179474285Y-93856190D01*
X179521904Y-93903809D01*
X179569523Y-93999047D01*
X179569523Y-94141904D01*
X179521904Y-94237142D01*
X179474285Y-94284761D01*
X179379047Y-94332380D01*
X178998095Y-94332380D01*
X178998095Y-93332380D01*
X179331428Y-93332380D01*
X179426666Y-93380000D01*
X179474285Y-93427619D01*
X179521904Y-93522857D01*
X179521904Y-93618095D01*
X179474285Y-93713333D01*
X179426666Y-93760952D01*
X179331428Y-93808571D01*
X178998095Y-93808571D01*
X180426666Y-93665714D02*
X180426666Y-94332380D01*
X179998095Y-93665714D02*
X179998095Y-94189523D01*
X180045714Y-94284761D01*
X180140952Y-94332380D01*
X180283809Y-94332380D01*
X180379047Y-94284761D01*
X180426666Y-94237142D01*
X180855238Y-94284761D02*
X180950476Y-94332380D01*
X181140952Y-94332380D01*
X181236190Y-94284761D01*
X181283809Y-94189523D01*
X181283809Y-94141904D01*
X181236190Y-94046666D01*
X181140952Y-93999047D01*
X180998095Y-93999047D01*
X180902857Y-93951428D01*
X180855238Y-93856190D01*
X180855238Y-93808571D01*
X180902857Y-93713333D01*
X180998095Y-93665714D01*
X181140952Y-93665714D01*
X181236190Y-93713333D01*
X182807619Y-93808571D02*
X182474285Y-93808571D01*
X182474285Y-94332380D02*
X182474285Y-93332380D01*
X182950476Y-93332380D01*
X183760000Y-94332380D02*
X183760000Y-93808571D01*
X183712380Y-93713333D01*
X183617142Y-93665714D01*
X183426666Y-93665714D01*
X183331428Y-93713333D01*
X183760000Y-94284761D02*
X183664761Y-94332380D01*
X183426666Y-94332380D01*
X183331428Y-94284761D01*
X183283809Y-94189523D01*
X183283809Y-94094285D01*
X183331428Y-93999047D01*
X183426666Y-93951428D01*
X183664761Y-93951428D01*
X183760000Y-93903809D01*
X184236190Y-93665714D02*
X184236190Y-94332380D01*
X184236190Y-93760952D02*
X184283809Y-93713333D01*
X184379047Y-93665714D01*
X184521904Y-93665714D01*
X184617142Y-93713333D01*
X184664761Y-93808571D01*
X184664761Y-94332380D01*
X186474285Y-94237142D02*
X186426666Y-94284761D01*
X186283809Y-94332380D01*
X186188571Y-94332380D01*
X186045714Y-94284761D01*
X185950476Y-94189523D01*
X185902857Y-94094285D01*
X185855238Y-93903809D01*
X185855238Y-93760952D01*
X185902857Y-93570476D01*
X185950476Y-93475238D01*
X186045714Y-93380000D01*
X186188571Y-93332380D01*
X186283809Y-93332380D01*
X186426666Y-93380000D01*
X186474285Y-93427619D01*
X187045714Y-94332380D02*
X186950476Y-94284761D01*
X186902857Y-94237142D01*
X186855238Y-94141904D01*
X186855238Y-93856190D01*
X186902857Y-93760952D01*
X186950476Y-93713333D01*
X187045714Y-93665714D01*
X187188571Y-93665714D01*
X187283809Y-93713333D01*
X187331428Y-93760952D01*
X187379047Y-93856190D01*
X187379047Y-94141904D01*
X187331428Y-94237142D01*
X187283809Y-94284761D01*
X187188571Y-94332380D01*
X187045714Y-94332380D01*
X187807619Y-93665714D02*
X187807619Y-94332380D01*
X187807619Y-93760952D02*
X187855238Y-93713333D01*
X187950476Y-93665714D01*
X188093333Y-93665714D01*
X188188571Y-93713333D01*
X188236190Y-93808571D01*
X188236190Y-94332380D01*
X188569523Y-93665714D02*
X188950476Y-93665714D01*
X188712380Y-93332380D02*
X188712380Y-94189523D01*
X188760000Y-94284761D01*
X188855238Y-94332380D01*
X188950476Y-94332380D01*
X189283809Y-94332380D02*
X189283809Y-93665714D01*
X189283809Y-93856190D02*
X189331428Y-93760952D01*
X189379047Y-93713333D01*
X189474285Y-93665714D01*
X189569523Y-93665714D01*
X190045714Y-94332380D02*
X189950476Y-94284761D01*
X189902857Y-94237142D01*
X189855238Y-94141904D01*
X189855238Y-93856190D01*
X189902857Y-93760952D01*
X189950476Y-93713333D01*
X190045714Y-93665714D01*
X190188571Y-93665714D01*
X190283809Y-93713333D01*
X190331428Y-93760952D01*
X190379047Y-93856190D01*
X190379047Y-94141904D01*
X190331428Y-94237142D01*
X190283809Y-94284761D01*
X190188571Y-94332380D01*
X190045714Y-94332380D01*
X190950476Y-94332380D02*
X190855238Y-94284761D01*
X190807619Y-94189523D01*
X190807619Y-93332380D01*
X191474285Y-94332380D02*
X191379047Y-94284761D01*
X191331428Y-94189523D01*
X191331428Y-93332380D01*
X192236190Y-94284761D02*
X192140952Y-94332380D01*
X191950476Y-94332380D01*
X191855238Y-94284761D01*
X191807619Y-94189523D01*
X191807619Y-93808571D01*
X191855238Y-93713333D01*
X191950476Y-93665714D01*
X192140952Y-93665714D01*
X192236190Y-93713333D01*
X192283809Y-93808571D01*
X192283809Y-93903809D01*
X191807619Y-93999047D01*
X192712380Y-94332380D02*
X192712380Y-93665714D01*
X192712380Y-93856190D02*
X192760000Y-93760952D01*
X192807619Y-93713333D01*
X192902857Y-93665714D01*
X192998095Y-93665714D01*
X220027380Y-70509523D02*
X220027380Y-70985714D01*
X219027380Y-70985714D01*
X220027380Y-70176190D02*
X219027380Y-70176190D01*
X220027380Y-69700000D02*
X219027380Y-69700000D01*
X220027380Y-69128571D01*
X219027380Y-69128571D01*
X219503571Y-68319047D02*
X219551190Y-68176190D01*
X219598809Y-68128571D01*
X219694047Y-68080952D01*
X219836904Y-68080952D01*
X219932142Y-68128571D01*
X219979761Y-68176190D01*
X220027380Y-68271428D01*
X220027380Y-68652380D01*
X219027380Y-68652380D01*
X219027380Y-68319047D01*
X219075000Y-68223809D01*
X219122619Y-68176190D01*
X219217857Y-68128571D01*
X219313095Y-68128571D01*
X219408333Y-68176190D01*
X219455952Y-68223809D01*
X219503571Y-68319047D01*
X219503571Y-68652380D01*
X219360714Y-67223809D02*
X220027380Y-67223809D01*
X219360714Y-67652380D02*
X219884523Y-67652380D01*
X219979761Y-67604761D01*
X220027380Y-67509523D01*
X220027380Y-67366666D01*
X219979761Y-67271428D01*
X219932142Y-67223809D01*
X219979761Y-66795238D02*
X220027380Y-66700000D01*
X220027380Y-66509523D01*
X219979761Y-66414285D01*
X219884523Y-66366666D01*
X219836904Y-66366666D01*
X219741666Y-66414285D01*
X219694047Y-66509523D01*
X219694047Y-66652380D01*
X219646428Y-66747619D01*
X219551190Y-66795238D01*
X219503571Y-66795238D01*
X219408333Y-66747619D01*
X219360714Y-66652380D01*
X219360714Y-66509523D01*
X219408333Y-66414285D01*
X181488095Y-85202380D02*
X181488095Y-84202380D01*
X181916666Y-84297619D02*
X181964285Y-84250000D01*
X182059523Y-84202380D01*
X182297619Y-84202380D01*
X182392857Y-84250000D01*
X182440476Y-84297619D01*
X182488095Y-84392857D01*
X182488095Y-84488095D01*
X182440476Y-84630952D01*
X181869047Y-85202380D01*
X182488095Y-85202380D01*
X183488095Y-85107142D02*
X183440476Y-85154761D01*
X183297619Y-85202380D01*
X183202380Y-85202380D01*
X183059523Y-85154761D01*
X182964285Y-85059523D01*
X182916666Y-84964285D01*
X182869047Y-84773809D01*
X182869047Y-84630952D01*
X182916666Y-84440476D01*
X182964285Y-84345238D01*
X183059523Y-84250000D01*
X183202380Y-84202380D01*
X183297619Y-84202380D01*
X183440476Y-84250000D01*
X183488095Y-84297619D01*
X185154761Y-85202380D02*
X184678571Y-85202380D01*
X184678571Y-84202380D01*
X186059523Y-85107142D02*
X186011904Y-85154761D01*
X185869047Y-85202380D01*
X185773809Y-85202380D01*
X185630952Y-85154761D01*
X185535714Y-85059523D01*
X185488095Y-84964285D01*
X185440476Y-84773809D01*
X185440476Y-84630952D01*
X185488095Y-84440476D01*
X185535714Y-84345238D01*
X185630952Y-84250000D01*
X185773809Y-84202380D01*
X185869047Y-84202380D01*
X186011904Y-84250000D01*
X186059523Y-84297619D01*
X186488095Y-85202380D02*
X186488095Y-84202380D01*
X186726190Y-84202380D01*
X186869047Y-84250000D01*
X186964285Y-84345238D01*
X187011904Y-84440476D01*
X187059523Y-84630952D01*
X187059523Y-84773809D01*
X187011904Y-84964285D01*
X186964285Y-85059523D01*
X186869047Y-85154761D01*
X186726190Y-85202380D01*
X186488095Y-85202380D01*
%TO.C,R25*%
X208562380Y-67712857D02*
X208086190Y-68046190D01*
X208562380Y-68284285D02*
X207562380Y-68284285D01*
X207562380Y-67903333D01*
X207610000Y-67808095D01*
X207657619Y-67760476D01*
X207752857Y-67712857D01*
X207895714Y-67712857D01*
X207990952Y-67760476D01*
X208038571Y-67808095D01*
X208086190Y-67903333D01*
X208086190Y-68284285D01*
X207657619Y-67331904D02*
X207610000Y-67284285D01*
X207562380Y-67189047D01*
X207562380Y-66950952D01*
X207610000Y-66855714D01*
X207657619Y-66808095D01*
X207752857Y-66760476D01*
X207848095Y-66760476D01*
X207990952Y-66808095D01*
X208562380Y-67379523D01*
X208562380Y-66760476D01*
X207562380Y-65855714D02*
X207562380Y-66331904D01*
X208038571Y-66379523D01*
X207990952Y-66331904D01*
X207943333Y-66236666D01*
X207943333Y-65998571D01*
X207990952Y-65903333D01*
X208038571Y-65855714D01*
X208133809Y-65808095D01*
X208371904Y-65808095D01*
X208467142Y-65855714D01*
X208514761Y-65903333D01*
X208562380Y-65998571D01*
X208562380Y-66236666D01*
X208514761Y-66331904D01*
X208467142Y-66379523D01*
%TO.C,U4*%
X189948095Y-81502380D02*
X189948095Y-82311904D01*
X189995714Y-82407142D01*
X190043333Y-82454761D01*
X190138571Y-82502380D01*
X190329047Y-82502380D01*
X190424285Y-82454761D01*
X190471904Y-82407142D01*
X190519523Y-82311904D01*
X190519523Y-81502380D01*
X191424285Y-81835714D02*
X191424285Y-82502380D01*
X191186190Y-81454761D02*
X190948095Y-82169047D01*
X191567142Y-82169047D01*
%TO.C,U3*%
X184338095Y-64522380D02*
X184338095Y-65331904D01*
X184385714Y-65427142D01*
X184433333Y-65474761D01*
X184528571Y-65522380D01*
X184719047Y-65522380D01*
X184814285Y-65474761D01*
X184861904Y-65427142D01*
X184909523Y-65331904D01*
X184909523Y-64522380D01*
X185290476Y-64522380D02*
X185909523Y-64522380D01*
X185576190Y-64903333D01*
X185719047Y-64903333D01*
X185814285Y-64950952D01*
X185861904Y-64998571D01*
X185909523Y-65093809D01*
X185909523Y-65331904D01*
X185861904Y-65427142D01*
X185814285Y-65474761D01*
X185719047Y-65522380D01*
X185433333Y-65522380D01*
X185338095Y-65474761D01*
X185290476Y-65427142D01*
X187394642Y-64257180D02*
X187727976Y-65257180D01*
X188061309Y-64257180D01*
X188537500Y-65257180D02*
X188442261Y-65209561D01*
X188394642Y-65161942D01*
X188347023Y-65066704D01*
X188347023Y-64780990D01*
X188394642Y-64685752D01*
X188442261Y-64638133D01*
X188537500Y-64590514D01*
X188680357Y-64590514D01*
X188775595Y-64638133D01*
X188823214Y-64685752D01*
X188870833Y-64780990D01*
X188870833Y-65066704D01*
X188823214Y-65161942D01*
X188775595Y-65209561D01*
X188680357Y-65257180D01*
X188537500Y-65257180D01*
X189442261Y-65257180D02*
X189347023Y-65209561D01*
X189299404Y-65114323D01*
X189299404Y-64257180D01*
X189680357Y-64590514D02*
X190061309Y-64590514D01*
X189823214Y-64257180D02*
X189823214Y-65114323D01*
X189870833Y-65209561D01*
X189966071Y-65257180D01*
X190061309Y-65257180D01*
X190823214Y-65257180D02*
X190823214Y-64733371D01*
X190775595Y-64638133D01*
X190680357Y-64590514D01*
X190489880Y-64590514D01*
X190394642Y-64638133D01*
X190823214Y-65209561D02*
X190727976Y-65257180D01*
X190489880Y-65257180D01*
X190394642Y-65209561D01*
X190347023Y-65114323D01*
X190347023Y-65019085D01*
X190394642Y-64923847D01*
X190489880Y-64876228D01*
X190727976Y-64876228D01*
X190823214Y-64828609D01*
X191727976Y-64590514D02*
X191727976Y-65400038D01*
X191680357Y-65495276D01*
X191632738Y-65542895D01*
X191537500Y-65590514D01*
X191394642Y-65590514D01*
X191299404Y-65542895D01*
X191727976Y-65209561D02*
X191632738Y-65257180D01*
X191442261Y-65257180D01*
X191347023Y-65209561D01*
X191299404Y-65161942D01*
X191251785Y-65066704D01*
X191251785Y-64780990D01*
X191299404Y-64685752D01*
X191347023Y-64638133D01*
X191442261Y-64590514D01*
X191632738Y-64590514D01*
X191727976Y-64638133D01*
X192585119Y-65209561D02*
X192489880Y-65257180D01*
X192299404Y-65257180D01*
X192204166Y-65209561D01*
X192156547Y-65114323D01*
X192156547Y-64733371D01*
X192204166Y-64638133D01*
X192299404Y-64590514D01*
X192489880Y-64590514D01*
X192585119Y-64638133D01*
X192632738Y-64733371D01*
X192632738Y-64828609D01*
X192156547Y-64923847D01*
X194394642Y-65257180D02*
X194061309Y-64780990D01*
X193823214Y-65257180D02*
X193823214Y-64257180D01*
X194204166Y-64257180D01*
X194299404Y-64304800D01*
X194347023Y-64352419D01*
X194394642Y-64447657D01*
X194394642Y-64590514D01*
X194347023Y-64685752D01*
X194299404Y-64733371D01*
X194204166Y-64780990D01*
X193823214Y-64780990D01*
X195204166Y-65209561D02*
X195108928Y-65257180D01*
X194918452Y-65257180D01*
X194823214Y-65209561D01*
X194775595Y-65114323D01*
X194775595Y-64733371D01*
X194823214Y-64638133D01*
X194918452Y-64590514D01*
X195108928Y-64590514D01*
X195204166Y-64638133D01*
X195251785Y-64733371D01*
X195251785Y-64828609D01*
X194775595Y-64923847D01*
X196108928Y-64590514D02*
X196108928Y-65400038D01*
X196061309Y-65495276D01*
X196013690Y-65542895D01*
X195918452Y-65590514D01*
X195775595Y-65590514D01*
X195680357Y-65542895D01*
X196108928Y-65209561D02*
X196013690Y-65257180D01*
X195823214Y-65257180D01*
X195727976Y-65209561D01*
X195680357Y-65161942D01*
X195632738Y-65066704D01*
X195632738Y-64780990D01*
X195680357Y-64685752D01*
X195727976Y-64638133D01*
X195823214Y-64590514D01*
X196013690Y-64590514D01*
X196108928Y-64638133D01*
X197013690Y-64590514D02*
X197013690Y-65257180D01*
X196585119Y-64590514D02*
X196585119Y-65114323D01*
X196632738Y-65209561D01*
X196727976Y-65257180D01*
X196870833Y-65257180D01*
X196966071Y-65209561D01*
X197013690Y-65161942D01*
X197632738Y-65257180D02*
X197537500Y-65209561D01*
X197489880Y-65114323D01*
X197489880Y-64257180D01*
X198442261Y-65257180D02*
X198442261Y-64733371D01*
X198394642Y-64638133D01*
X198299404Y-64590514D01*
X198108928Y-64590514D01*
X198013690Y-64638133D01*
X198442261Y-65209561D02*
X198347023Y-65257180D01*
X198108928Y-65257180D01*
X198013690Y-65209561D01*
X197966071Y-65114323D01*
X197966071Y-65019085D01*
X198013690Y-64923847D01*
X198108928Y-64876228D01*
X198347023Y-64876228D01*
X198442261Y-64828609D01*
X198775595Y-64590514D02*
X199156547Y-64590514D01*
X198918452Y-64257180D02*
X198918452Y-65114323D01*
X198966071Y-65209561D01*
X199061309Y-65257180D01*
X199156547Y-65257180D01*
X199632738Y-65257180D02*
X199537500Y-65209561D01*
X199489880Y-65161942D01*
X199442261Y-65066704D01*
X199442261Y-64780990D01*
X199489880Y-64685752D01*
X199537500Y-64638133D01*
X199632738Y-64590514D01*
X199775595Y-64590514D01*
X199870833Y-64638133D01*
X199918452Y-64685752D01*
X199966071Y-64780990D01*
X199966071Y-65066704D01*
X199918452Y-65161942D01*
X199870833Y-65209561D01*
X199775595Y-65257180D01*
X199632738Y-65257180D01*
X200394642Y-65257180D02*
X200394642Y-64590514D01*
X200394642Y-64780990D02*
X200442261Y-64685752D01*
X200489880Y-64638133D01*
X200585119Y-64590514D01*
X200680357Y-64590514D01*
X181826190Y-69477380D02*
X182159523Y-70477380D01*
X182492857Y-69477380D01*
X182826190Y-70477380D02*
X182826190Y-69810714D01*
X182826190Y-69477380D02*
X182778571Y-69525000D01*
X182826190Y-69572619D01*
X182873809Y-69525000D01*
X182826190Y-69477380D01*
X182826190Y-69572619D01*
X183302380Y-69810714D02*
X183302380Y-70477380D01*
X183302380Y-69905952D02*
X183350000Y-69858333D01*
X183445238Y-69810714D01*
X183588095Y-69810714D01*
X183683333Y-69858333D01*
X183730952Y-69953571D01*
X183730952Y-70477380D01*
X180926190Y-74727380D02*
X181259523Y-75727380D01*
X181592857Y-74727380D01*
X182069047Y-75727380D02*
X181973809Y-75679761D01*
X181926190Y-75632142D01*
X181878571Y-75536904D01*
X181878571Y-75251190D01*
X181926190Y-75155952D01*
X181973809Y-75108333D01*
X182069047Y-75060714D01*
X182211904Y-75060714D01*
X182307142Y-75108333D01*
X182354761Y-75155952D01*
X182402380Y-75251190D01*
X182402380Y-75536904D01*
X182354761Y-75632142D01*
X182307142Y-75679761D01*
X182211904Y-75727380D01*
X182069047Y-75727380D01*
X183259523Y-75060714D02*
X183259523Y-75727380D01*
X182830952Y-75060714D02*
X182830952Y-75584523D01*
X182878571Y-75679761D01*
X182973809Y-75727380D01*
X183116666Y-75727380D01*
X183211904Y-75679761D01*
X183259523Y-75632142D01*
X183592857Y-75060714D02*
X183973809Y-75060714D01*
X183735714Y-74727380D02*
X183735714Y-75584523D01*
X183783333Y-75679761D01*
X183878571Y-75727380D01*
X183973809Y-75727380D01*
X181794795Y-72280400D02*
X181699557Y-72232780D01*
X181556700Y-72232780D01*
X181413842Y-72280400D01*
X181318604Y-72375638D01*
X181270985Y-72470876D01*
X181223366Y-72661352D01*
X181223366Y-72804209D01*
X181270985Y-72994685D01*
X181318604Y-73089923D01*
X181413842Y-73185161D01*
X181556700Y-73232780D01*
X181651938Y-73232780D01*
X181794795Y-73185161D01*
X181842414Y-73137542D01*
X181842414Y-72804209D01*
X181651938Y-72804209D01*
X182270985Y-73232780D02*
X182270985Y-72232780D01*
X182842414Y-73232780D01*
X182842414Y-72232780D01*
X183318604Y-73232780D02*
X183318604Y-72232780D01*
X183556700Y-72232780D01*
X183699557Y-72280400D01*
X183794795Y-72375638D01*
X183842414Y-72470876D01*
X183890033Y-72661352D01*
X183890033Y-72804209D01*
X183842414Y-72994685D01*
X183794795Y-73089923D01*
X183699557Y-73185161D01*
X183556700Y-73232780D01*
X183318604Y-73232780D01*
X182275804Y-67451171D02*
X182609138Y-67451171D01*
X182751995Y-67974980D02*
X182275804Y-67974980D01*
X182275804Y-66974980D01*
X182751995Y-66974980D01*
X183180566Y-67974980D02*
X183180566Y-66974980D01*
X183751995Y-67974980D01*
X183751995Y-66974980D01*
D11*
%TO.C,J1*%
X227914523Y-95023333D02*
X228821666Y-95023333D01*
X229003095Y-95083809D01*
X229124047Y-95204761D01*
X229184523Y-95386190D01*
X229184523Y-95507142D01*
X229184523Y-93753333D02*
X229184523Y-94479047D01*
X229184523Y-94116190D02*
X227914523Y-94116190D01*
X228095952Y-94237142D01*
X228216904Y-94358095D01*
X228277380Y-94479047D01*
D12*
X218056961Y-88285123D02*
X218056961Y-89313219D01*
X218117438Y-89434171D01*
X218177914Y-89494647D01*
X218298866Y-89555123D01*
X218540771Y-89555123D01*
X218661723Y-89494647D01*
X218722200Y-89434171D01*
X218782676Y-89313219D01*
X218782676Y-88285123D01*
X219387438Y-89555123D02*
X219387438Y-88285123D01*
X219871247Y-88285123D01*
X219992200Y-88345600D01*
X220052676Y-88406076D01*
X220113152Y-88527028D01*
X220113152Y-88708457D01*
X220052676Y-88829409D01*
X219992200Y-88889885D01*
X219871247Y-88950361D01*
X219387438Y-88950361D01*
X220657438Y-89555123D02*
X220657438Y-88285123D01*
X220959819Y-88285123D01*
X221141247Y-88345600D01*
X221262200Y-88466552D01*
X221322676Y-88587504D01*
X221383152Y-88829409D01*
X221383152Y-89010838D01*
X221322676Y-89252742D01*
X221262200Y-89373695D01*
X221141247Y-89494647D01*
X220959819Y-89555123D01*
X220657438Y-89555123D01*
X221927438Y-89555123D02*
X221927438Y-88285123D01*
D10*
X213294600Y-95609904D02*
X213246980Y-95705142D01*
X213246980Y-95848000D01*
X213294600Y-95990857D01*
X213389838Y-96086095D01*
X213485076Y-96133714D01*
X213675552Y-96181333D01*
X213818409Y-96181333D01*
X214008885Y-96133714D01*
X214104123Y-96086095D01*
X214199361Y-95990857D01*
X214246980Y-95848000D01*
X214246980Y-95752761D01*
X214199361Y-95609904D01*
X214151742Y-95562285D01*
X213818409Y-95562285D01*
X213818409Y-95752761D01*
X214246980Y-95133714D02*
X213246980Y-95133714D01*
X214246980Y-94562285D01*
X213246980Y-94562285D01*
X214246980Y-94086095D02*
X213246980Y-94086095D01*
X213246980Y-93848000D01*
X213294600Y-93705142D01*
X213389838Y-93609904D01*
X213485076Y-93562285D01*
X213675552Y-93514666D01*
X213818409Y-93514666D01*
X214008885Y-93562285D01*
X214104123Y-93609904D01*
X214199361Y-93705142D01*
X214246980Y-93848000D01*
X214246980Y-94086095D01*
X220917780Y-96160704D02*
X220917780Y-95589276D01*
X221917780Y-95874990D02*
X220917780Y-95874990D01*
X220917780Y-95351180D02*
X221917780Y-94684514D01*
X220917780Y-94684514D02*
X221917780Y-95351180D01*
X221917780Y-94303561D02*
X220917780Y-94303561D01*
X220917780Y-94065466D01*
X220965400Y-93922609D01*
X221060638Y-93827371D01*
X221155876Y-93779752D01*
X221346352Y-93732133D01*
X221489209Y-93732133D01*
X221679685Y-93779752D01*
X221774923Y-93827371D01*
X221870161Y-93922609D01*
X221917780Y-94065466D01*
X221917780Y-94303561D01*
X224457780Y-95616266D02*
X223981590Y-95949600D01*
X224457780Y-96187695D02*
X223457780Y-96187695D01*
X223457780Y-95806742D01*
X223505400Y-95711504D01*
X223553019Y-95663885D01*
X223648257Y-95616266D01*
X223791114Y-95616266D01*
X223886352Y-95663885D01*
X223933971Y-95711504D01*
X223981590Y-95806742D01*
X223981590Y-96187695D01*
X223457780Y-95282933D02*
X224457780Y-94616266D01*
X223457780Y-94616266D02*
X224457780Y-95282933D01*
X224457780Y-94235314D02*
X223457780Y-94235314D01*
X223457780Y-93997219D01*
X223505400Y-93854361D01*
X223600638Y-93759123D01*
X223695876Y-93711504D01*
X223886352Y-93663885D01*
X224029209Y-93663885D01*
X224219685Y-93711504D01*
X224314923Y-93759123D01*
X224410161Y-93854361D01*
X224457780Y-93997219D01*
X224457780Y-94235314D01*
D12*
X228345000Y-92687619D02*
X228284523Y-92808571D01*
X228284523Y-92990000D01*
X228345000Y-93171428D01*
X228465952Y-93292380D01*
X228586904Y-93352857D01*
X228828809Y-93413333D01*
X229010238Y-93413333D01*
X229252142Y-93352857D01*
X229373095Y-93292380D01*
X229494047Y-93171428D01*
X229554523Y-92990000D01*
X229554523Y-92869047D01*
X229494047Y-92687619D01*
X229433571Y-92627142D01*
X229010238Y-92627142D01*
X229010238Y-92869047D01*
X229554523Y-91357142D02*
X228949761Y-91780476D01*
X229554523Y-92082857D02*
X228284523Y-92082857D01*
X228284523Y-91599047D01*
X228345000Y-91478095D01*
X228405476Y-91417619D01*
X228526428Y-91357142D01*
X228707857Y-91357142D01*
X228828809Y-91417619D01*
X228889285Y-91478095D01*
X228949761Y-91599047D01*
X228949761Y-92082857D01*
X229554523Y-90812857D02*
X228284523Y-90812857D01*
X229554523Y-90087142D01*
X228284523Y-90087142D01*
X211739285Y-92758333D02*
X211799761Y-92576904D01*
X211860238Y-92516428D01*
X211981190Y-92455952D01*
X212162619Y-92455952D01*
X212283571Y-92516428D01*
X212344047Y-92576904D01*
X212404523Y-92697857D01*
X212404523Y-93181666D01*
X211134523Y-93181666D01*
X211134523Y-92758333D01*
X211195000Y-92637380D01*
X211255476Y-92576904D01*
X211376428Y-92516428D01*
X211497380Y-92516428D01*
X211618333Y-92576904D01*
X211678809Y-92637380D01*
X211739285Y-92758333D01*
X211739285Y-93181666D01*
X212404523Y-91306904D02*
X212404523Y-91911666D01*
X211134523Y-91911666D01*
X212404523Y-90883571D02*
X211134523Y-90883571D01*
X212404523Y-90157857D02*
X211678809Y-90702142D01*
X211134523Y-90157857D02*
X211860238Y-90883571D01*
D10*
X218276180Y-96181333D02*
X219276180Y-95848000D01*
X218276180Y-95514666D01*
X219180942Y-94609904D02*
X219228561Y-94657523D01*
X219276180Y-94800380D01*
X219276180Y-94895619D01*
X219228561Y-95038476D01*
X219133323Y-95133714D01*
X219038085Y-95181333D01*
X218847609Y-95228952D01*
X218704752Y-95228952D01*
X218514276Y-95181333D01*
X218419038Y-95133714D01*
X218323800Y-95038476D01*
X218276180Y-94895619D01*
X218276180Y-94800380D01*
X218323800Y-94657523D01*
X218371419Y-94609904D01*
X219180942Y-93609904D02*
X219228561Y-93657523D01*
X219276180Y-93800380D01*
X219276180Y-93895619D01*
X219228561Y-94038476D01*
X219133323Y-94133714D01*
X219038085Y-94181333D01*
X218847609Y-94228952D01*
X218704752Y-94228952D01*
X218514276Y-94181333D01*
X218419038Y-94133714D01*
X218323800Y-94038476D01*
X218276180Y-93895619D01*
X218276180Y-93800380D01*
X218323800Y-93657523D01*
X218371419Y-93609904D01*
X216717142Y-95294019D02*
X216764761Y-95341638D01*
X216812380Y-95484495D01*
X216812380Y-95579733D01*
X216764761Y-95722590D01*
X216669523Y-95817828D01*
X216574285Y-95865447D01*
X216383809Y-95913066D01*
X216240952Y-95913066D01*
X216050476Y-95865447D01*
X215955238Y-95817828D01*
X215860000Y-95722590D01*
X215812380Y-95579733D01*
X215812380Y-95484495D01*
X215860000Y-95341638D01*
X215907619Y-95294019D01*
X215812380Y-95008304D02*
X215812380Y-94436876D01*
X216812380Y-94722590D02*
X215812380Y-94722590D01*
X216764761Y-94151161D02*
X216812380Y-94008304D01*
X216812380Y-93770209D01*
X216764761Y-93674971D01*
X216717142Y-93627352D01*
X216621904Y-93579733D01*
X216526666Y-93579733D01*
X216431428Y-93627352D01*
X216383809Y-93674971D01*
X216336190Y-93770209D01*
X216288571Y-93960685D01*
X216240952Y-94055923D01*
X216193333Y-94103542D01*
X216098095Y-94151161D01*
X216002857Y-94151161D01*
X215907619Y-94103542D01*
X215860000Y-94055923D01*
X215812380Y-93960685D01*
X215812380Y-93722590D01*
X215860000Y-93579733D01*
X226972380Y-96016257D02*
X225972380Y-96016257D01*
X225972380Y-95778161D01*
X226020000Y-95635304D01*
X226115238Y-95540066D01*
X226210476Y-95492447D01*
X226400952Y-95444828D01*
X226543809Y-95444828D01*
X226734285Y-95492447D01*
X226829523Y-95540066D01*
X226924761Y-95635304D01*
X226972380Y-95778161D01*
X226972380Y-96016257D01*
X225972380Y-95159114D02*
X225972380Y-94587685D01*
X226972380Y-94873400D02*
X225972380Y-94873400D01*
X226972380Y-93682923D02*
X226496190Y-94016257D01*
X226972380Y-94254352D02*
X225972380Y-94254352D01*
X225972380Y-93873400D01*
X226020000Y-93778161D01*
X226067619Y-93730542D01*
X226162857Y-93682923D01*
X226305714Y-93682923D01*
X226400952Y-93730542D01*
X226448571Y-93778161D01*
X226496190Y-93873400D01*
X226496190Y-94254352D01*
%TO.C,F1*%
X217241666Y-65948571D02*
X216908333Y-65948571D01*
X216908333Y-66472380D02*
X216908333Y-65472380D01*
X217384523Y-65472380D01*
X218289285Y-66472380D02*
X217717857Y-66472380D01*
X218003571Y-66472380D02*
X218003571Y-65472380D01*
X217908333Y-65615238D01*
X217813095Y-65710476D01*
X217717857Y-65758095D01*
%TO.C,C7*%
X197147142Y-79884166D02*
X197194761Y-79931785D01*
X197242380Y-80074642D01*
X197242380Y-80169880D01*
X197194761Y-80312738D01*
X197099523Y-80407976D01*
X197004285Y-80455595D01*
X196813809Y-80503214D01*
X196670952Y-80503214D01*
X196480476Y-80455595D01*
X196385238Y-80407976D01*
X196290000Y-80312738D01*
X196242380Y-80169880D01*
X196242380Y-80074642D01*
X196290000Y-79931785D01*
X196337619Y-79884166D01*
X196242380Y-79550833D02*
X196242380Y-78884166D01*
X197242380Y-79312738D01*
%TO.C,C6*%
X194807142Y-84374166D02*
X194854761Y-84421785D01*
X194902380Y-84564642D01*
X194902380Y-84659880D01*
X194854761Y-84802738D01*
X194759523Y-84897976D01*
X194664285Y-84945595D01*
X194473809Y-84993214D01*
X194330952Y-84993214D01*
X194140476Y-84945595D01*
X194045238Y-84897976D01*
X193950000Y-84802738D01*
X193902380Y-84659880D01*
X193902380Y-84564642D01*
X193950000Y-84421785D01*
X193997619Y-84374166D01*
X193902380Y-83517023D02*
X193902380Y-83707500D01*
X193950000Y-83802738D01*
X193997619Y-83850357D01*
X194140476Y-83945595D01*
X194330952Y-83993214D01*
X194711904Y-83993214D01*
X194807142Y-83945595D01*
X194854761Y-83897976D01*
X194902380Y-83802738D01*
X194902380Y-83612261D01*
X194854761Y-83517023D01*
X194807142Y-83469404D01*
X194711904Y-83421785D01*
X194473809Y-83421785D01*
X194378571Y-83469404D01*
X194330952Y-83517023D01*
X194283333Y-83612261D01*
X194283333Y-83802738D01*
X194330952Y-83897976D01*
X194378571Y-83945595D01*
X194473809Y-83993214D01*
%TO.C,C5*%
X178773333Y-76917142D02*
X178725714Y-76964761D01*
X178582857Y-77012380D01*
X178487619Y-77012380D01*
X178344761Y-76964761D01*
X178249523Y-76869523D01*
X178201904Y-76774285D01*
X178154285Y-76583809D01*
X178154285Y-76440952D01*
X178201904Y-76250476D01*
X178249523Y-76155238D01*
X178344761Y-76060000D01*
X178487619Y-76012380D01*
X178582857Y-76012380D01*
X178725714Y-76060000D01*
X178773333Y-76107619D01*
X179678095Y-76012380D02*
X179201904Y-76012380D01*
X179154285Y-76488571D01*
X179201904Y-76440952D01*
X179297142Y-76393333D01*
X179535238Y-76393333D01*
X179630476Y-76440952D01*
X179678095Y-76488571D01*
X179725714Y-76583809D01*
X179725714Y-76821904D01*
X179678095Y-76917142D01*
X179630476Y-76964761D01*
X179535238Y-77012380D01*
X179297142Y-77012380D01*
X179201904Y-76964761D01*
X179154285Y-76917142D01*
%TO.C,C4*%
X187693333Y-78497142D02*
X187645714Y-78544761D01*
X187502857Y-78592380D01*
X187407619Y-78592380D01*
X187264761Y-78544761D01*
X187169523Y-78449523D01*
X187121904Y-78354285D01*
X187074285Y-78163809D01*
X187074285Y-78020952D01*
X187121904Y-77830476D01*
X187169523Y-77735238D01*
X187264761Y-77640000D01*
X187407619Y-77592380D01*
X187502857Y-77592380D01*
X187645714Y-77640000D01*
X187693333Y-77687619D01*
X188550476Y-77925714D02*
X188550476Y-78592380D01*
X188312380Y-77544761D02*
X188074285Y-78259047D01*
X188693333Y-78259047D01*
%TO.C,C3*%
X211030833Y-66087142D02*
X210983214Y-66134761D01*
X210840357Y-66182380D01*
X210745119Y-66182380D01*
X210602261Y-66134761D01*
X210507023Y-66039523D01*
X210459404Y-65944285D01*
X210411785Y-65753809D01*
X210411785Y-65610952D01*
X210459404Y-65420476D01*
X210507023Y-65325238D01*
X210602261Y-65230000D01*
X210745119Y-65182380D01*
X210840357Y-65182380D01*
X210983214Y-65230000D01*
X211030833Y-65277619D01*
X211364166Y-65182380D02*
X211983214Y-65182380D01*
X211649880Y-65563333D01*
X211792738Y-65563333D01*
X211887976Y-65610952D01*
X211935595Y-65658571D01*
X211983214Y-65753809D01*
X211983214Y-65991904D01*
X211935595Y-66087142D01*
X211887976Y-66134761D01*
X211792738Y-66182380D01*
X211507023Y-66182380D01*
X211411785Y-66134761D01*
X211364166Y-66087142D01*
%TO.C,U8*%
X215827380Y-86111904D02*
X216636904Y-86111904D01*
X216732142Y-86064285D01*
X216779761Y-86016666D01*
X216827380Y-85921428D01*
X216827380Y-85730952D01*
X216779761Y-85635714D01*
X216732142Y-85588095D01*
X216636904Y-85540476D01*
X215827380Y-85540476D01*
X216255952Y-84921428D02*
X216208333Y-85016666D01*
X216160714Y-85064285D01*
X216065476Y-85111904D01*
X216017857Y-85111904D01*
X215922619Y-85064285D01*
X215875000Y-85016666D01*
X215827380Y-84921428D01*
X215827380Y-84730952D01*
X215875000Y-84635714D01*
X215922619Y-84588095D01*
X216017857Y-84540476D01*
X216065476Y-84540476D01*
X216160714Y-84588095D01*
X216208333Y-84635714D01*
X216255952Y-84730952D01*
X216255952Y-84921428D01*
X216303571Y-85016666D01*
X216351190Y-85064285D01*
X216446428Y-85111904D01*
X216636904Y-85111904D01*
X216732142Y-85064285D01*
X216779761Y-85016666D01*
X216827380Y-84921428D01*
X216827380Y-84730952D01*
X216779761Y-84635714D01*
X216732142Y-84588095D01*
X216636904Y-84540476D01*
X216446428Y-84540476D01*
X216351190Y-84588095D01*
X216303571Y-84635714D01*
X216255952Y-84730952D01*
X215827380Y-85350000D02*
X216065476Y-85350000D01*
X215970238Y-85588095D02*
X216065476Y-85350000D01*
X215970238Y-85111904D01*
X216255952Y-85492857D02*
X216065476Y-85350000D01*
X216255952Y-85207142D01*
%TO.C,J2*%
X176791666Y-81552380D02*
X176791666Y-82266666D01*
X176744047Y-82409523D01*
X176648809Y-82504761D01*
X176505952Y-82552380D01*
X176410714Y-82552380D01*
X177220238Y-81647619D02*
X177267857Y-81600000D01*
X177363095Y-81552380D01*
X177601190Y-81552380D01*
X177696428Y-81600000D01*
X177744047Y-81647619D01*
X177791666Y-81742857D01*
X177791666Y-81838095D01*
X177744047Y-81980952D01*
X177172619Y-82552380D01*
X177791666Y-82552380D01*
%TO.C,U1*%
X194627380Y-88086904D02*
X195436904Y-88086904D01*
X195532142Y-88039285D01*
X195579761Y-87991666D01*
X195627380Y-87896428D01*
X195627380Y-87705952D01*
X195579761Y-87610714D01*
X195532142Y-87563095D01*
X195436904Y-87515476D01*
X194627380Y-87515476D01*
X195627380Y-86515476D02*
X195627380Y-87086904D01*
X195627380Y-86801190D02*
X194627380Y-86801190D01*
X194770238Y-86896428D01*
X194865476Y-86991666D01*
X194913095Y-87086904D01*
X194822380Y-90450000D02*
X195060476Y-90450000D01*
X194965238Y-90688095D02*
X195060476Y-90450000D01*
X194965238Y-90211904D01*
X195250952Y-90592857D02*
X195060476Y-90450000D01*
X195250952Y-90307142D01*
%TO.C,Q1*%
X191572619Y-87395238D02*
X191525000Y-87490476D01*
X191429761Y-87585714D01*
X191286904Y-87728571D01*
X191239285Y-87823809D01*
X191239285Y-87919047D01*
X191477380Y-87871428D02*
X191429761Y-87966666D01*
X191334523Y-88061904D01*
X191144047Y-88109523D01*
X190810714Y-88109523D01*
X190620238Y-88061904D01*
X190525000Y-87966666D01*
X190477380Y-87871428D01*
X190477380Y-87680952D01*
X190525000Y-87585714D01*
X190620238Y-87490476D01*
X190810714Y-87442857D01*
X191144047Y-87442857D01*
X191334523Y-87490476D01*
X191429761Y-87585714D01*
X191477380Y-87680952D01*
X191477380Y-87871428D01*
X191477380Y-86490476D02*
X191477380Y-87061904D01*
X191477380Y-86776190D02*
X190477380Y-86776190D01*
X190620238Y-86871428D01*
X190715476Y-86966666D01*
X190763095Y-87061904D01*
%TO.C,J5*%
X228497380Y-87053333D02*
X229211666Y-87053333D01*
X229354523Y-87100952D01*
X229449761Y-87196190D01*
X229497380Y-87339047D01*
X229497380Y-87434285D01*
X228497380Y-86100952D02*
X228497380Y-86577142D01*
X228973571Y-86624761D01*
X228925952Y-86577142D01*
X228878333Y-86481904D01*
X228878333Y-86243809D01*
X228925952Y-86148571D01*
X228973571Y-86100952D01*
X229068809Y-86053333D01*
X229306904Y-86053333D01*
X229402142Y-86100952D01*
X229449761Y-86148571D01*
X229497380Y-86243809D01*
X229497380Y-86481904D01*
X229449761Y-86577142D01*
X229402142Y-86624761D01*
X219757380Y-88934285D02*
X219757380Y-88362857D01*
X220757380Y-88648571D02*
X219757380Y-88648571D01*
X220757380Y-87458095D02*
X220281190Y-87791428D01*
X220757380Y-88029523D02*
X219757380Y-88029523D01*
X219757380Y-87648571D01*
X219805000Y-87553333D01*
X219852619Y-87505714D01*
X219947857Y-87458095D01*
X220090714Y-87458095D01*
X220185952Y-87505714D01*
X220233571Y-87553333D01*
X220281190Y-87648571D01*
X220281190Y-88029523D01*
X220471666Y-87077142D02*
X220471666Y-86600952D01*
X220757380Y-87172380D02*
X219757380Y-86839047D01*
X220757380Y-86505714D01*
X220757380Y-86172380D02*
X219757380Y-86172380D01*
X220757380Y-85600952D01*
X219757380Y-85600952D01*
X220709761Y-85172380D02*
X220757380Y-85029523D01*
X220757380Y-84791428D01*
X220709761Y-84696190D01*
X220662142Y-84648571D01*
X220566904Y-84600952D01*
X220471666Y-84600952D01*
X220376428Y-84648571D01*
X220328809Y-84696190D01*
X220281190Y-84791428D01*
X220233571Y-84981904D01*
X220185952Y-85077142D01*
X220138333Y-85124761D01*
X220043095Y-85172380D01*
X219947857Y-85172380D01*
X219852619Y-85124761D01*
X219805000Y-85077142D01*
X219757380Y-84981904D01*
X219757380Y-84743809D01*
X219805000Y-84600952D01*
%TO.C,U2*%
X206813095Y-97302380D02*
X206813095Y-98111904D01*
X206860714Y-98207142D01*
X206908333Y-98254761D01*
X207003571Y-98302380D01*
X207194047Y-98302380D01*
X207289285Y-98254761D01*
X207336904Y-98207142D01*
X207384523Y-98111904D01*
X207384523Y-97302380D01*
X207813095Y-97397619D02*
X207860714Y-97350000D01*
X207955952Y-97302380D01*
X208194047Y-97302380D01*
X208289285Y-97350000D01*
X208336904Y-97397619D01*
X208384523Y-97492857D01*
X208384523Y-97588095D01*
X208336904Y-97730952D01*
X207765476Y-98302380D01*
X208384523Y-98302380D01*
X202025000Y-90877380D02*
X202025000Y-91115476D01*
X201786904Y-91020238D02*
X202025000Y-91115476D01*
X202263095Y-91020238D01*
X201882142Y-91305952D02*
X202025000Y-91115476D01*
X202167857Y-91305952D01*
%TO.C,R1*%
X195013333Y-94692380D02*
X194680000Y-94216190D01*
X194441904Y-94692380D02*
X194441904Y-93692380D01*
X194822857Y-93692380D01*
X194918095Y-93740000D01*
X194965714Y-93787619D01*
X195013333Y-93882857D01*
X195013333Y-94025714D01*
X194965714Y-94120952D01*
X194918095Y-94168571D01*
X194822857Y-94216190D01*
X194441904Y-94216190D01*
X195965714Y-94692380D02*
X195394285Y-94692380D01*
X195680000Y-94692380D02*
X195680000Y-93692380D01*
X195584761Y-93835238D01*
X195489523Y-93930476D01*
X195394285Y-93978095D01*
%TO.C,C12*%
X210132142Y-80432142D02*
X210084523Y-80479761D01*
X209941666Y-80527380D01*
X209846428Y-80527380D01*
X209703571Y-80479761D01*
X209608333Y-80384523D01*
X209560714Y-80289285D01*
X209513095Y-80098809D01*
X209513095Y-79955952D01*
X209560714Y-79765476D01*
X209608333Y-79670238D01*
X209703571Y-79575000D01*
X209846428Y-79527380D01*
X209941666Y-79527380D01*
X210084523Y-79575000D01*
X210132142Y-79622619D01*
X211084523Y-80527380D02*
X210513095Y-80527380D01*
X210798809Y-80527380D02*
X210798809Y-79527380D01*
X210703571Y-79670238D01*
X210608333Y-79765476D01*
X210513095Y-79813095D01*
X211465476Y-79622619D02*
X211513095Y-79575000D01*
X211608333Y-79527380D01*
X211846428Y-79527380D01*
X211941666Y-79575000D01*
X211989285Y-79622619D01*
X212036904Y-79717857D01*
X212036904Y-79813095D01*
X211989285Y-79955952D01*
X211417857Y-80527380D01*
X212036904Y-80527380D01*
%TO.C,C1*%
X204708333Y-88207142D02*
X204660714Y-88254761D01*
X204517857Y-88302380D01*
X204422619Y-88302380D01*
X204279761Y-88254761D01*
X204184523Y-88159523D01*
X204136904Y-88064285D01*
X204089285Y-87873809D01*
X204089285Y-87730952D01*
X204136904Y-87540476D01*
X204184523Y-87445238D01*
X204279761Y-87350000D01*
X204422619Y-87302380D01*
X204517857Y-87302380D01*
X204660714Y-87350000D01*
X204708333Y-87397619D01*
X205660714Y-88302380D02*
X205089285Y-88302380D01*
X205375000Y-88302380D02*
X205375000Y-87302380D01*
X205279761Y-87445238D01*
X205184523Y-87540476D01*
X205089285Y-87588095D01*
%TO.C,Q4*%
X211122619Y-71320238D02*
X211075000Y-71415476D01*
X210979761Y-71510714D01*
X210836904Y-71653571D01*
X210789285Y-71748809D01*
X210789285Y-71844047D01*
X211027380Y-71796428D02*
X210979761Y-71891666D01*
X210884523Y-71986904D01*
X210694047Y-72034523D01*
X210360714Y-72034523D01*
X210170238Y-71986904D01*
X210075000Y-71891666D01*
X210027380Y-71796428D01*
X210027380Y-71605952D01*
X210075000Y-71510714D01*
X210170238Y-71415476D01*
X210360714Y-71367857D01*
X210694047Y-71367857D01*
X210884523Y-71415476D01*
X210979761Y-71510714D01*
X211027380Y-71605952D01*
X211027380Y-71796428D01*
X210360714Y-70510714D02*
X211027380Y-70510714D01*
X209979761Y-70748809D02*
X210694047Y-70986904D01*
X210694047Y-70367857D01*
%TO.C,R5*%
X202927380Y-86316666D02*
X202451190Y-86650000D01*
X202927380Y-86888095D02*
X201927380Y-86888095D01*
X201927380Y-86507142D01*
X201975000Y-86411904D01*
X202022619Y-86364285D01*
X202117857Y-86316666D01*
X202260714Y-86316666D01*
X202355952Y-86364285D01*
X202403571Y-86411904D01*
X202451190Y-86507142D01*
X202451190Y-86888095D01*
X201927380Y-85411904D02*
X201927380Y-85888095D01*
X202403571Y-85935714D01*
X202355952Y-85888095D01*
X202308333Y-85792857D01*
X202308333Y-85554761D01*
X202355952Y-85459523D01*
X202403571Y-85411904D01*
X202498809Y-85364285D01*
X202736904Y-85364285D01*
X202832142Y-85411904D01*
X202879761Y-85459523D01*
X202927380Y-85554761D01*
X202927380Y-85792857D01*
X202879761Y-85888095D01*
X202832142Y-85935714D01*
%TO.C,R24*%
X212727380Y-85392857D02*
X212251190Y-85726190D01*
X212727380Y-85964285D02*
X211727380Y-85964285D01*
X211727380Y-85583333D01*
X211775000Y-85488095D01*
X211822619Y-85440476D01*
X211917857Y-85392857D01*
X212060714Y-85392857D01*
X212155952Y-85440476D01*
X212203571Y-85488095D01*
X212251190Y-85583333D01*
X212251190Y-85964285D01*
X211822619Y-85011904D02*
X211775000Y-84964285D01*
X211727380Y-84869047D01*
X211727380Y-84630952D01*
X211775000Y-84535714D01*
X211822619Y-84488095D01*
X211917857Y-84440476D01*
X212013095Y-84440476D01*
X212155952Y-84488095D01*
X212727380Y-85059523D01*
X212727380Y-84440476D01*
X212060714Y-83583333D02*
X212727380Y-83583333D01*
X211679761Y-83821428D02*
X212394047Y-84059523D01*
X212394047Y-83440476D01*
%TO.C,Q3*%
X218172619Y-80395238D02*
X218125000Y-80490476D01*
X218029761Y-80585714D01*
X217886904Y-80728571D01*
X217839285Y-80823809D01*
X217839285Y-80919047D01*
X218077380Y-80871428D02*
X218029761Y-80966666D01*
X217934523Y-81061904D01*
X217744047Y-81109523D01*
X217410714Y-81109523D01*
X217220238Y-81061904D01*
X217125000Y-80966666D01*
X217077380Y-80871428D01*
X217077380Y-80680952D01*
X217125000Y-80585714D01*
X217220238Y-80490476D01*
X217410714Y-80442857D01*
X217744047Y-80442857D01*
X217934523Y-80490476D01*
X218029761Y-80585714D01*
X218077380Y-80680952D01*
X218077380Y-80871428D01*
X217077380Y-80109523D02*
X217077380Y-79490476D01*
X217458333Y-79823809D01*
X217458333Y-79680952D01*
X217505952Y-79585714D01*
X217553571Y-79538095D01*
X217648809Y-79490476D01*
X217886904Y-79490476D01*
X217982142Y-79538095D01*
X218029761Y-79585714D01*
X218077380Y-79680952D01*
X218077380Y-79966666D01*
X218029761Y-80061904D01*
X217982142Y-80109523D01*
%TO.C,D1*%
X208927380Y-85738095D02*
X207927380Y-85738095D01*
X207927380Y-85500000D01*
X207975000Y-85357142D01*
X208070238Y-85261904D01*
X208165476Y-85214285D01*
X208355952Y-85166666D01*
X208498809Y-85166666D01*
X208689285Y-85214285D01*
X208784523Y-85261904D01*
X208879761Y-85357142D01*
X208927380Y-85500000D01*
X208927380Y-85738095D01*
X208927380Y-84214285D02*
X208927380Y-84785714D01*
X208927380Y-84500000D02*
X207927380Y-84500000D01*
X208070238Y-84595238D01*
X208165476Y-84690476D01*
X208213095Y-84785714D01*
%TO.C,R21*%
X221527380Y-79417857D02*
X221051190Y-79751190D01*
X221527380Y-79989285D02*
X220527380Y-79989285D01*
X220527380Y-79608333D01*
X220575000Y-79513095D01*
X220622619Y-79465476D01*
X220717857Y-79417857D01*
X220860714Y-79417857D01*
X220955952Y-79465476D01*
X221003571Y-79513095D01*
X221051190Y-79608333D01*
X221051190Y-79989285D01*
X220622619Y-79036904D02*
X220575000Y-78989285D01*
X220527380Y-78894047D01*
X220527380Y-78655952D01*
X220575000Y-78560714D01*
X220622619Y-78513095D01*
X220717857Y-78465476D01*
X220813095Y-78465476D01*
X220955952Y-78513095D01*
X221527380Y-79084523D01*
X221527380Y-78465476D01*
X221527380Y-77513095D02*
X221527380Y-78084523D01*
X221527380Y-77798809D02*
X220527380Y-77798809D01*
X220670238Y-77894047D01*
X220765476Y-77989285D01*
X220813095Y-78084523D01*
%TO.C,J4*%
X228497380Y-77678333D02*
X229211666Y-77678333D01*
X229354523Y-77725952D01*
X229449761Y-77821190D01*
X229497380Y-77964047D01*
X229497380Y-78059285D01*
X228830714Y-76773571D02*
X229497380Y-76773571D01*
X228449761Y-77011666D02*
X229164047Y-77249761D01*
X229164047Y-76630714D01*
X220233571Y-75284523D02*
X220233571Y-75617857D01*
X220757380Y-75617857D02*
X219757380Y-75617857D01*
X219757380Y-75141666D01*
X220471666Y-74808333D02*
X220471666Y-74332142D01*
X220757380Y-74903571D02*
X219757380Y-74570238D01*
X220757380Y-74236904D01*
X220757380Y-73903571D02*
X219757380Y-73903571D01*
X220757380Y-73332142D01*
X219757380Y-73332142D01*
%TO.C,C14*%
X205912142Y-81080357D02*
X205959761Y-81127976D01*
X206007380Y-81270833D01*
X206007380Y-81366071D01*
X205959761Y-81508928D01*
X205864523Y-81604166D01*
X205769285Y-81651785D01*
X205578809Y-81699404D01*
X205435952Y-81699404D01*
X205245476Y-81651785D01*
X205150238Y-81604166D01*
X205055000Y-81508928D01*
X205007380Y-81366071D01*
X205007380Y-81270833D01*
X205055000Y-81127976D01*
X205102619Y-81080357D01*
X206007380Y-80127976D02*
X206007380Y-80699404D01*
X206007380Y-80413690D02*
X205007380Y-80413690D01*
X205150238Y-80508928D01*
X205245476Y-80604166D01*
X205293095Y-80699404D01*
X205340714Y-79270833D02*
X206007380Y-79270833D01*
X204959761Y-79508928D02*
X205674047Y-79747023D01*
X205674047Y-79127976D01*
%TO.C,J3*%
X228522380Y-66873333D02*
X229236666Y-66873333D01*
X229379523Y-66920952D01*
X229474761Y-67016190D01*
X229522380Y-67159047D01*
X229522380Y-67254285D01*
X228522380Y-66492380D02*
X228522380Y-65873333D01*
X228903333Y-66206666D01*
X228903333Y-66063809D01*
X228950952Y-65968571D01*
X228998571Y-65920952D01*
X229093809Y-65873333D01*
X229331904Y-65873333D01*
X229427142Y-65920952D01*
X229474761Y-65968571D01*
X229522380Y-66063809D01*
X229522380Y-66349523D01*
X229474761Y-66444761D01*
X229427142Y-66492380D01*
%TO.C,Q2*%
X182647619Y-87682738D02*
X182600000Y-87777976D01*
X182504761Y-87873214D01*
X182361904Y-88016071D01*
X182314285Y-88111309D01*
X182314285Y-88206547D01*
X182552380Y-88158928D02*
X182504761Y-88254166D01*
X182409523Y-88349404D01*
X182219047Y-88397023D01*
X181885714Y-88397023D01*
X181695238Y-88349404D01*
X181600000Y-88254166D01*
X181552380Y-88158928D01*
X181552380Y-87968452D01*
X181600000Y-87873214D01*
X181695238Y-87777976D01*
X181885714Y-87730357D01*
X182219047Y-87730357D01*
X182409523Y-87777976D01*
X182504761Y-87873214D01*
X182552380Y-87968452D01*
X182552380Y-88158928D01*
X181647619Y-87349404D02*
X181600000Y-87301785D01*
X181552380Y-87206547D01*
X181552380Y-86968452D01*
X181600000Y-86873214D01*
X181647619Y-86825595D01*
X181742857Y-86777976D01*
X181838095Y-86777976D01*
X181980952Y-86825595D01*
X182552380Y-87397023D01*
X182552380Y-86777976D01*
%TO.C,U7*%
X212302380Y-89561904D02*
X213111904Y-89561904D01*
X213207142Y-89514285D01*
X213254761Y-89466666D01*
X213302380Y-89371428D01*
X213302380Y-89180952D01*
X213254761Y-89085714D01*
X213207142Y-89038095D01*
X213111904Y-88990476D01*
X212302380Y-88990476D01*
X212302380Y-88609523D02*
X212302380Y-87942857D01*
X213302380Y-88371428D01*
X207232380Y-90650000D02*
X207470476Y-90650000D01*
X207375238Y-90888095D02*
X207470476Y-90650000D01*
X207375238Y-90411904D01*
X207660952Y-90792857D02*
X207470476Y-90650000D01*
X207660952Y-90507142D01*
%TO.C,R2*%
X199033333Y-96177380D02*
X198700000Y-95701190D01*
X198461904Y-96177380D02*
X198461904Y-95177380D01*
X198842857Y-95177380D01*
X198938095Y-95225000D01*
X198985714Y-95272619D01*
X199033333Y-95367857D01*
X199033333Y-95510714D01*
X198985714Y-95605952D01*
X198938095Y-95653571D01*
X198842857Y-95701190D01*
X198461904Y-95701190D01*
X199414285Y-95272619D02*
X199461904Y-95225000D01*
X199557142Y-95177380D01*
X199795238Y-95177380D01*
X199890476Y-95225000D01*
X199938095Y-95272619D01*
X199985714Y-95367857D01*
X199985714Y-95463095D01*
X199938095Y-95605952D01*
X199366666Y-96177380D01*
X199985714Y-96177380D01*
%TO.C,R28*%
X199652380Y-79892857D02*
X199176190Y-80226190D01*
X199652380Y-80464285D02*
X198652380Y-80464285D01*
X198652380Y-80083333D01*
X198700000Y-79988095D01*
X198747619Y-79940476D01*
X198842857Y-79892857D01*
X198985714Y-79892857D01*
X199080952Y-79940476D01*
X199128571Y-79988095D01*
X199176190Y-80083333D01*
X199176190Y-80464285D01*
X198747619Y-79511904D02*
X198700000Y-79464285D01*
X198652380Y-79369047D01*
X198652380Y-79130952D01*
X198700000Y-79035714D01*
X198747619Y-78988095D01*
X198842857Y-78940476D01*
X198938095Y-78940476D01*
X199080952Y-78988095D01*
X199652380Y-79559523D01*
X199652380Y-78940476D01*
X199080952Y-78369047D02*
X199033333Y-78464285D01*
X198985714Y-78511904D01*
X198890476Y-78559523D01*
X198842857Y-78559523D01*
X198747619Y-78511904D01*
X198700000Y-78464285D01*
X198652380Y-78369047D01*
X198652380Y-78178571D01*
X198700000Y-78083333D01*
X198747619Y-78035714D01*
X198842857Y-77988095D01*
X198890476Y-77988095D01*
X198985714Y-78035714D01*
X199033333Y-78083333D01*
X199080952Y-78178571D01*
X199080952Y-78369047D01*
X199128571Y-78464285D01*
X199176190Y-78511904D01*
X199271428Y-78559523D01*
X199461904Y-78559523D01*
X199557142Y-78511904D01*
X199604761Y-78464285D01*
X199652380Y-78369047D01*
X199652380Y-78178571D01*
X199604761Y-78083333D01*
X199557142Y-78035714D01*
X199461904Y-77988095D01*
X199271428Y-77988095D01*
X199176190Y-78035714D01*
X199128571Y-78083333D01*
X199080952Y-78178571D01*
%TO.C,U11*%
X206977380Y-78463095D02*
X207786904Y-78463095D01*
X207882142Y-78415476D01*
X207929761Y-78367857D01*
X207977380Y-78272619D01*
X207977380Y-78082142D01*
X207929761Y-77986904D01*
X207882142Y-77939285D01*
X207786904Y-77891666D01*
X206977380Y-77891666D01*
X207977380Y-76891666D02*
X207977380Y-77463095D01*
X207977380Y-77177380D02*
X206977380Y-77177380D01*
X207120238Y-77272619D01*
X207215476Y-77367857D01*
X207263095Y-77463095D01*
X207977380Y-75939285D02*
X207977380Y-76510714D01*
X207977380Y-76225000D02*
X206977380Y-76225000D01*
X207120238Y-76320238D01*
X207215476Y-76415476D01*
X207263095Y-76510714D01*
%TO.C,D5*%
X207761904Y-83502380D02*
X207761904Y-82502380D01*
X208000000Y-82502380D01*
X208142857Y-82550000D01*
X208238095Y-82645238D01*
X208285714Y-82740476D01*
X208333333Y-82930952D01*
X208333333Y-83073809D01*
X208285714Y-83264285D01*
X208238095Y-83359523D01*
X208142857Y-83454761D01*
X208000000Y-83502380D01*
X207761904Y-83502380D01*
X209238095Y-82502380D02*
X208761904Y-82502380D01*
X208714285Y-82978571D01*
X208761904Y-82930952D01*
X208857142Y-82883333D01*
X209095238Y-82883333D01*
X209190476Y-82930952D01*
X209238095Y-82978571D01*
X209285714Y-83073809D01*
X209285714Y-83311904D01*
X209238095Y-83407142D01*
X209190476Y-83454761D01*
X209095238Y-83502380D01*
X208857142Y-83502380D01*
X208761904Y-83454761D01*
X208714285Y-83407142D01*
D13*
%TO.C,R25*%
X207195000Y-66842936D02*
X207195000Y-67297064D01*
X205725000Y-66842936D02*
X205725000Y-67297064D01*
%TO.C,U4*%
X190200000Y-79427500D02*
X190200000Y-78777500D01*
X193320000Y-79427500D02*
X193320000Y-78777500D01*
X190200000Y-79427500D02*
X190200000Y-81102500D01*
X193320000Y-79427500D02*
X193320000Y-80077500D01*
%TO.C,U3*%
X186780000Y-74080000D02*
X186780000Y-66400000D01*
X186780000Y-74080000D02*
X184120000Y-74080000D01*
X186780000Y-66400000D02*
X184120000Y-66400000D01*
X186780000Y-76680000D02*
X185450000Y-76680000D01*
X184120000Y-74080000D02*
X184120000Y-66400000D01*
X186780000Y-75350000D02*
X186780000Y-76680000D01*
D14*
%TO.C,J1*%
X226774000Y-91546000D02*
X226266000Y-91546000D01*
X219154000Y-91546000D02*
X219154000Y-92054000D01*
X224234000Y-91546000D02*
X223726000Y-91546000D01*
X221694000Y-91546000D02*
X221186000Y-91546000D01*
X216106000Y-91546000D02*
X216106000Y-92054000D01*
X216614000Y-91546000D02*
X216106000Y-91546000D01*
X221694000Y-92054000D02*
X221186000Y-92054000D01*
X213566000Y-91546000D02*
X213566000Y-92054000D01*
X224234000Y-92054000D02*
X223726000Y-92054000D01*
X223726000Y-91546000D02*
X223726000Y-92054000D01*
X214074000Y-91546000D02*
X213566000Y-91546000D01*
X226266000Y-91546000D02*
X226266000Y-92054000D01*
X214074000Y-91546000D02*
X214074000Y-92054000D01*
X224234000Y-91546000D02*
X224234000Y-92054000D01*
X226774000Y-91546000D02*
X226774000Y-92054000D01*
X216614000Y-91546000D02*
X216614000Y-92054000D01*
X221186000Y-91546000D02*
X221186000Y-92054000D01*
X214074000Y-92054000D02*
X213566000Y-92054000D01*
X226774000Y-92054000D02*
X226266000Y-92054000D01*
X216614000Y-92054000D02*
X216106000Y-92054000D01*
X221694000Y-91546000D02*
X221694000Y-92054000D01*
D13*
X227815400Y-93146200D02*
X212550000Y-93146200D01*
X212550000Y-93146200D02*
X212550000Y-90453800D01*
X212550000Y-90453800D02*
X227815400Y-90453800D01*
X227815400Y-90453800D02*
X227815400Y-93146200D01*
%TO.C,F1*%
X218961252Y-61660000D02*
X216188748Y-61660000D01*
X218961252Y-65080000D02*
X216188748Y-65080000D01*
%TO.C,C7*%
X195845000Y-79456248D02*
X195845000Y-79978752D01*
X194375000Y-79456248D02*
X194375000Y-79978752D01*
%TO.C,C6*%
X193505000Y-83946248D02*
X193505000Y-84468752D01*
X192035000Y-83946248D02*
X192035000Y-84468752D01*
%TO.C,C5*%
X182687500Y-77675000D02*
X178602500Y-77675000D01*
X178602500Y-79545000D02*
X182687500Y-79545000D01*
X182687500Y-79545000D02*
X182687500Y-77675000D01*
%TO.C,C4*%
X184651248Y-77855000D02*
X185173752Y-77855000D01*
X184651248Y-79325000D02*
X185173752Y-79325000D01*
%TO.C,C3*%
X211908752Y-64790000D02*
X210486248Y-64790000D01*
X211908752Y-62070000D02*
X210486248Y-62070000D01*
%TO.C,U8*%
X214571600Y-87153400D02*
X214931150Y-87153400D01*
X214571600Y-83546600D02*
X214571600Y-87153400D01*
X218178400Y-83546600D02*
X217818850Y-83546600D01*
X217818850Y-87153400D02*
X218178400Y-87153400D01*
X214931150Y-83546600D02*
X214571600Y-83546600D01*
X218178400Y-87153400D02*
X218178400Y-83546600D01*
X217448829Y-83315460D02*
G75*
G03*
X217301171Y-83315460I-73829J18860D01*
G01*
%TO.C,J2*%
X181420000Y-83430000D02*
X189100000Y-83430000D01*
X181420000Y-83430000D02*
X181420000Y-80770000D01*
X178820000Y-83430000D02*
X178820000Y-82100000D01*
X181420000Y-80770000D02*
X189100000Y-80770000D01*
X189100000Y-83430000D02*
X189100000Y-80770000D01*
X180150000Y-83430000D02*
X178820000Y-83430000D01*
%TO.C,U1*%
X196015000Y-87325000D02*
X196015000Y-85375000D01*
X201135000Y-87325000D02*
X201135000Y-85375000D01*
X196015000Y-87325000D02*
X196015000Y-90775000D01*
X201135000Y-87325000D02*
X201135000Y-89275000D01*
%TO.C,Q1*%
X189910000Y-87537500D02*
X189910000Y-88187500D01*
X189910000Y-87537500D02*
X189910000Y-86887500D01*
X186790000Y-87537500D02*
X186790000Y-89212500D01*
X186790000Y-87537500D02*
X186790000Y-86887500D01*
%TO.C,J5*%
X228045000Y-83830000D02*
X228045000Y-89610000D01*
X221305000Y-83830000D02*
X221305000Y-89610000D01*
X228045000Y-89610000D02*
X221305000Y-89610000D01*
X228045000Y-83830000D02*
X221305000Y-83830000D01*
X221705000Y-83590000D02*
X221065000Y-83590000D01*
X221825000Y-83830000D02*
X221825000Y-89610000D01*
X226925000Y-83830000D02*
X226925000Y-89610000D01*
X221065000Y-83590000D02*
X221065000Y-83990000D01*
%TO.C,U2*%
X206100000Y-91315000D02*
X208300000Y-91315000D01*
X206100000Y-96535000D02*
X208300000Y-96535000D01*
X206100000Y-91315000D02*
X202500000Y-91315000D01*
X206100000Y-96535000D02*
X203900000Y-96535000D01*
%TO.C,R1*%
X195402936Y-91595000D02*
X195857064Y-91595000D01*
X195402936Y-93065000D02*
X195857064Y-93065000D01*
%TO.C,C12*%
X211301248Y-82510000D02*
X211823752Y-82510000D01*
X211301248Y-81040000D02*
X211823752Y-81040000D01*
%TO.C,C1*%
X204523752Y-89040000D02*
X204001248Y-89040000D01*
X204523752Y-90510000D02*
X204001248Y-90510000D01*
%TO.C,Q4*%
X211770000Y-76095000D02*
X211770000Y-78925000D01*
X218400000Y-74595000D02*
X218400000Y-76095000D01*
X211500000Y-76095000D02*
X211770000Y-76095000D01*
X218130000Y-76095000D02*
X218130000Y-77195000D01*
X211500000Y-74595000D02*
X211500000Y-76095000D01*
X218400000Y-76095000D02*
X218130000Y-76095000D01*
%TO.C,R5*%
X204760000Y-84577064D02*
X204760000Y-84122936D01*
X203290000Y-84577064D02*
X203290000Y-84122936D01*
%TO.C,R24*%
X211285000Y-85027064D02*
X211285000Y-84572936D01*
X209815000Y-85027064D02*
X209815000Y-84572936D01*
%TO.C,Q3*%
X216585000Y-79762500D02*
X216585000Y-80412500D01*
X213465000Y-79762500D02*
X213465000Y-79112500D01*
X216585000Y-79762500D02*
X216585000Y-79112500D01*
X213465000Y-79762500D02*
X213465000Y-81437500D01*
%TO.C,D1*%
X205490000Y-83325000D02*
X205490000Y-86185000D01*
X205490000Y-86185000D02*
X207410000Y-86185000D01*
X207410000Y-86185000D02*
X207410000Y-83325000D01*
%TO.C,R21*%
X220160000Y-78547936D02*
X220160000Y-79002064D01*
X218690000Y-78547936D02*
X218690000Y-79002064D01*
%TO.C,J4*%
X226925000Y-71915000D02*
X226925000Y-82776000D01*
X228045000Y-71915000D02*
X221305000Y-71915000D01*
X221705000Y-71675000D02*
X221065000Y-71675000D01*
X221065000Y-71675000D02*
X221065000Y-72075000D01*
X228045000Y-71915000D02*
X228045000Y-82776000D01*
X221305000Y-71915000D02*
X221305000Y-82776000D01*
X221825000Y-71915000D02*
X221825000Y-82776000D01*
X228045000Y-82776000D02*
X221305000Y-82776000D01*
%TO.C,C14*%
X204610000Y-80176248D02*
X204610000Y-80698752D01*
X203140000Y-80176248D02*
X203140000Y-80698752D01*
%TO.C,J3*%
X221090000Y-62140000D02*
X221090000Y-62540000D01*
X221330000Y-62380000D02*
X221330000Y-70700000D01*
X228070000Y-62380000D02*
X221330000Y-62380000D01*
X226950000Y-62380000D02*
X226950000Y-70700000D01*
X221730000Y-62140000D02*
X221090000Y-62140000D01*
X228070000Y-62380000D02*
X228070000Y-70700000D01*
X228070000Y-70700000D02*
X221330000Y-70700000D01*
X221850000Y-62380000D02*
X221850000Y-70700000D01*
%TO.C,Q2*%
X186060000Y-87587500D02*
X186060000Y-88237500D01*
X182940000Y-87587500D02*
X182940000Y-89262500D01*
X186060000Y-87587500D02*
X186060000Y-86937500D01*
X182940000Y-87587500D02*
X182940000Y-86937500D01*
%TO.C,U7*%
X211260000Y-88887500D02*
X211260000Y-89687500D01*
X208140000Y-88887500D02*
X208140000Y-88087500D01*
X208140000Y-88887500D02*
X208140000Y-90687500D01*
X211260000Y-88887500D02*
X211260000Y-88087500D01*
%TO.C,R2*%
X199447936Y-93040000D02*
X199902064Y-93040000D01*
X199447936Y-94510000D02*
X199902064Y-94510000D01*
%TO.C,R28*%
X201435000Y-80577064D02*
X201435000Y-80122936D01*
X199965000Y-80577064D02*
X199965000Y-80122936D01*
%TO.C,REF\u002A\u002A*%
G36*
X176411475Y-67625932D02*
G01*
X176515149Y-67630479D01*
X176591892Y-67639999D01*
X176647754Y-67656081D01*
X176688788Y-67680313D01*
X176721046Y-67714286D01*
X176743560Y-67747833D01*
X176773524Y-67828499D01*
X176780282Y-67922381D01*
X176763218Y-68010807D01*
X176753012Y-68034161D01*
X176708866Y-68089902D01*
X176645033Y-68137569D01*
X176576913Y-68167048D01*
X176543330Y-68171846D01*
X176496444Y-68155760D01*
X176471635Y-68120475D01*
X176456613Y-68082644D01*
X176453845Y-68065321D01*
X176473934Y-68056886D01*
X176517649Y-68040230D01*
X176537402Y-68032923D01*
X176605729Y-67991948D01*
X176639809Y-67932622D01*
X176638761Y-67856552D01*
X176637419Y-67850918D01*
X176618164Y-67810305D01*
X176580625Y-67780448D01*
X176520191Y-67760055D01*
X176432249Y-67747836D01*
X176312187Y-67742500D01*
X176248302Y-67742000D01*
X176147597Y-67741752D01*
X176078946Y-67740126D01*
X176035327Y-67735801D01*
X176009718Y-67727454D01*
X175995097Y-67713765D01*
X175984442Y-67693411D01*
X175983905Y-67692234D01*
X175967333Y-67653038D01*
X175961231Y-67633619D01*
X175979681Y-67630635D01*
X176030677Y-67628081D01*
X176107692Y-67626140D01*
X176204195Y-67624997D01*
X176274816Y-67624769D01*
X176411475Y-67625932D01*
G37*
D15*
X176411475Y-67625932D02*
X176515149Y-67630479D01*
X176591892Y-67639999D01*
X176647754Y-67656081D01*
X176688788Y-67680313D01*
X176721046Y-67714286D01*
X176743560Y-67747833D01*
X176773524Y-67828499D01*
X176780282Y-67922381D01*
X176763218Y-68010807D01*
X176753012Y-68034161D01*
X176708866Y-68089902D01*
X176645033Y-68137569D01*
X176576913Y-68167048D01*
X176543330Y-68171846D01*
X176496444Y-68155760D01*
X176471635Y-68120475D01*
X176456613Y-68082644D01*
X176453845Y-68065321D01*
X176473934Y-68056886D01*
X176517649Y-68040230D01*
X176537402Y-68032923D01*
X176605729Y-67991948D01*
X176639809Y-67932622D01*
X176638761Y-67856552D01*
X176637419Y-67850918D01*
X176618164Y-67810305D01*
X176580625Y-67780448D01*
X176520191Y-67760055D01*
X176432249Y-67747836D01*
X176312187Y-67742500D01*
X176248302Y-67742000D01*
X176147597Y-67741752D01*
X176078946Y-67740126D01*
X176035327Y-67735801D01*
X176009718Y-67727454D01*
X175995097Y-67713765D01*
X175984442Y-67693411D01*
X175983905Y-67692234D01*
X175967333Y-67653038D01*
X175961231Y-67633619D01*
X175979681Y-67630635D01*
X176030677Y-67628081D01*
X176107692Y-67626140D01*
X176204195Y-67624997D01*
X176274816Y-67624769D01*
X176411475Y-67625932D01*
G36*
X176288515Y-62294421D02*
G01*
X176413532Y-62296884D01*
X176505918Y-62299767D01*
X176572119Y-62303898D01*
X176618580Y-62310107D01*
X176651744Y-62319226D01*
X176678056Y-62332083D01*
X176701271Y-62347584D01*
X176775431Y-62422371D01*
X176818316Y-62513628D01*
X176828588Y-62612883D01*
X176804911Y-62711664D01*
X176768642Y-62774367D01*
X176732642Y-62817961D01*
X176694925Y-62849845D01*
X176648801Y-62871810D01*
X176587579Y-62885649D01*
X176504569Y-62893153D01*
X176393081Y-62896117D01*
X176312938Y-62896461D01*
X176017935Y-62896461D01*
X175943485Y-62730385D01*
X176266598Y-62720615D01*
X176387271Y-62716579D01*
X176474859Y-62712344D01*
X176535350Y-62707097D01*
X176574732Y-62700025D01*
X176598993Y-62690311D01*
X176614120Y-62677144D01*
X176617394Y-62672919D01*
X176642966Y-62608909D01*
X176632847Y-62544208D01*
X176606000Y-62505692D01*
X176586976Y-62490025D01*
X176562012Y-62479180D01*
X176524166Y-62472288D01*
X176466498Y-62468479D01*
X176382065Y-62466883D01*
X176294072Y-62466615D01*
X176183677Y-62466563D01*
X176105537Y-62464672D01*
X176052835Y-62458345D01*
X176018758Y-62444983D01*
X175996489Y-62421985D01*
X175979213Y-62386754D01*
X175961262Y-62339697D01*
X175941722Y-62288303D01*
X176288515Y-62294421D01*
G37*
X176288515Y-62294421D02*
X176413532Y-62296884D01*
X176505918Y-62299767D01*
X176572119Y-62303898D01*
X176618580Y-62310107D01*
X176651744Y-62319226D01*
X176678056Y-62332083D01*
X176701271Y-62347584D01*
X176775431Y-62422371D01*
X176818316Y-62513628D01*
X176828588Y-62612883D01*
X176804911Y-62711664D01*
X176768642Y-62774367D01*
X176732642Y-62817961D01*
X176694925Y-62849845D01*
X176648801Y-62871810D01*
X176587579Y-62885649D01*
X176504569Y-62893153D01*
X176393081Y-62896117D01*
X176312938Y-62896461D01*
X176017935Y-62896461D01*
X175943485Y-62730385D01*
X176266598Y-62720615D01*
X176387271Y-62716579D01*
X176474859Y-62712344D01*
X176535350Y-62707097D01*
X176574732Y-62700025D01*
X176598993Y-62690311D01*
X176614120Y-62677144D01*
X176617394Y-62672919D01*
X176642966Y-62608909D01*
X176632847Y-62544208D01*
X176606000Y-62505692D01*
X176586976Y-62490025D01*
X176562012Y-62479180D01*
X176524166Y-62472288D01*
X176466498Y-62468479D01*
X176382065Y-62466883D01*
X176294072Y-62466615D01*
X176183677Y-62466563D01*
X176105537Y-62464672D01*
X176052835Y-62458345D01*
X176018758Y-62444983D01*
X175996489Y-62421985D01*
X175979213Y-62386754D01*
X175961262Y-62339697D01*
X175941722Y-62288303D01*
X176288515Y-62294421D01*
G36*
X176586423Y-65496362D02*
G01*
X176655731Y-65526528D01*
X176709789Y-65573629D01*
X176737495Y-65610312D01*
X176767428Y-65676990D01*
X176781322Y-65754272D01*
X176777603Y-65826110D01*
X176762600Y-65866308D01*
X176758330Y-65882082D01*
X176774250Y-65892550D01*
X176816911Y-65899856D01*
X176881894Y-65905385D01*
X176954268Y-65911437D01*
X176997813Y-65919844D01*
X177022713Y-65935141D01*
X177039155Y-65961864D01*
X177046436Y-65978654D01*
X177073037Y-66042154D01*
X176619711Y-66042081D01*
X176473680Y-66041833D01*
X176361345Y-66040872D01*
X176277322Y-66038794D01*
X176216231Y-66035193D01*
X176172691Y-66029665D01*
X176141321Y-66021804D01*
X176116738Y-66011207D01*
X176102706Y-66003182D01*
X176026612Y-65936728D01*
X175978916Y-65852470D01*
X175967656Y-65791137D01*
X176102705Y-65791137D01*
X176135975Y-65855179D01*
X176140483Y-65860164D01*
X176163933Y-65881439D01*
X176191834Y-65894779D01*
X176233359Y-65902001D01*
X176297684Y-65904923D01*
X176368800Y-65905385D01*
X176458142Y-65904383D01*
X176517742Y-65900238D01*
X176556911Y-65891236D01*
X176584960Y-65875667D01*
X176599856Y-65862902D01*
X176637425Y-65803600D01*
X176641943Y-65735301D01*
X176613247Y-65670110D01*
X176602594Y-65657528D01*
X176578937Y-65636111D01*
X176550749Y-65622744D01*
X176508755Y-65615566D01*
X176443681Y-65612719D01*
X176377014Y-65612308D01*
X176289645Y-65613141D01*
X176231808Y-65616961D01*
X176193971Y-65625746D01*
X176166602Y-65641474D01*
X176145958Y-65660266D01*
X176106110Y-65723375D01*
X176102705Y-65791137D01*
X175967656Y-65791137D01*
X175961801Y-65759249D01*
X175977454Y-65665900D01*
X176005582Y-65610312D01*
X176054240Y-65551957D01*
X176113667Y-65512186D01*
X176191493Y-65488190D01*
X176295348Y-65477161D01*
X176371538Y-65475599D01*
X176377014Y-65475809D01*
X176494235Y-65480322D01*
X176586423Y-65496362D01*
G37*
X176586423Y-65496362D02*
X176655731Y-65526528D01*
X176709789Y-65573629D01*
X176737495Y-65610312D01*
X176767428Y-65676990D01*
X176781322Y-65754272D01*
X176777603Y-65826110D01*
X176762600Y-65866308D01*
X176758330Y-65882082D01*
X176774250Y-65892550D01*
X176816911Y-65899856D01*
X176881894Y-65905385D01*
X176954268Y-65911437D01*
X176997813Y-65919844D01*
X177022713Y-65935141D01*
X177039155Y-65961864D01*
X177046436Y-65978654D01*
X177073037Y-66042154D01*
X176619711Y-66042081D01*
X176473680Y-66041833D01*
X176361345Y-66040872D01*
X176277322Y-66038794D01*
X176216231Y-66035193D01*
X176172691Y-66029665D01*
X176141321Y-66021804D01*
X176116738Y-66011207D01*
X176102706Y-66003182D01*
X176026612Y-65936728D01*
X175978916Y-65852470D01*
X175967656Y-65791137D01*
X176102705Y-65791137D01*
X176135975Y-65855179D01*
X176140483Y-65860164D01*
X176163933Y-65881439D01*
X176191834Y-65894779D01*
X176233359Y-65902001D01*
X176297684Y-65904923D01*
X176368800Y-65905385D01*
X176458142Y-65904383D01*
X176517742Y-65900238D01*
X176556911Y-65891236D01*
X176584960Y-65875667D01*
X176599856Y-65862902D01*
X176637425Y-65803600D01*
X176641943Y-65735301D01*
X176613247Y-65670110D01*
X176602594Y-65657528D01*
X176578937Y-65636111D01*
X176550749Y-65622744D01*
X176508755Y-65615566D01*
X176443681Y-65612719D01*
X176377014Y-65612308D01*
X176289645Y-65613141D01*
X176231808Y-65616961D01*
X176193971Y-65625746D01*
X176166602Y-65641474D01*
X176145958Y-65660266D01*
X176106110Y-65723375D01*
X176102705Y-65791137D01*
X175967656Y-65791137D01*
X175961801Y-65759249D01*
X175977454Y-65665900D01*
X176005582Y-65610312D01*
X176054240Y-65551957D01*
X176113667Y-65512186D01*
X176191493Y-65488190D01*
X176295348Y-65477161D01*
X176371538Y-65475599D01*
X176377014Y-65475809D01*
X176494235Y-65480322D01*
X176586423Y-65496362D01*
G36*
X176579290Y-68301032D02*
G01*
X176644833Y-68319460D01*
X176693088Y-68349360D01*
X176731233Y-68393080D01*
X176743560Y-68412141D01*
X176775664Y-68498726D01*
X176777684Y-68593522D01*
X176752162Y-68685224D01*
X176701639Y-68762528D01*
X176656410Y-68799814D01*
X176574337Y-68829353D01*
X176509393Y-68831699D01*
X176422555Y-68826385D01*
X176334897Y-68626115D01*
X176290113Y-68528739D01*
X176254087Y-68465113D01*
X176222883Y-68432029D01*
X176192564Y-68426280D01*
X176159195Y-68444658D01*
X176137077Y-68464923D01*
X176101607Y-68523889D01*
X176099121Y-68588024D01*
X176126765Y-68646926D01*
X176181680Y-68690197D01*
X176201072Y-68697936D01*
X176261636Y-68735006D01*
X176287448Y-68777654D01*
X176309529Y-68836154D01*
X176225816Y-68836154D01*
X176168850Y-68830982D01*
X176120811Y-68810723D01*
X176065654Y-68768262D01*
X176058486Y-68761951D01*
X176009415Y-68714720D01*
X175983080Y-68674121D01*
X175970965Y-68623328D01*
X175966997Y-68581220D01*
X175966009Y-68505902D01*
X175978534Y-68452286D01*
X175997131Y-68418838D01*
X176001479Y-68413249D01*
X176391077Y-68413249D01*
X176398528Y-68435753D01*
X176418247Y-68484182D01*
X176446282Y-68548908D01*
X176452308Y-68562443D01*
X176493904Y-68644244D01*
X176530462Y-68689312D01*
X176564704Y-68699217D01*
X176599352Y-68675526D01*
X176614661Y-68655960D01*
X176645279Y-68585360D01*
X176640220Y-68519280D01*
X176602849Y-68463959D01*
X176536527Y-68425636D01*
X176483884Y-68413349D01*
X176430052Y-68408471D01*
X176396562Y-68409839D01*
X176391077Y-68413249D01*
X176001479Y-68413249D01*
X176038025Y-68366268D01*
X176082252Y-68329879D01*
X176137874Y-68306850D01*
X176212953Y-68294359D01*
X176315551Y-68289587D01*
X176367624Y-68289206D01*
X176430052Y-68290501D01*
X176489280Y-68291730D01*
X176579290Y-68301032D01*
G37*
X176579290Y-68301032D02*
X176644833Y-68319460D01*
X176693088Y-68349360D01*
X176731233Y-68393080D01*
X176743560Y-68412141D01*
X176775664Y-68498726D01*
X176777684Y-68593522D01*
X176752162Y-68685224D01*
X176701639Y-68762528D01*
X176656410Y-68799814D01*
X176574337Y-68829353D01*
X176509393Y-68831699D01*
X176422555Y-68826385D01*
X176334897Y-68626115D01*
X176290113Y-68528739D01*
X176254087Y-68465113D01*
X176222883Y-68432029D01*
X176192564Y-68426280D01*
X176159195Y-68444658D01*
X176137077Y-68464923D01*
X176101607Y-68523889D01*
X176099121Y-68588024D01*
X176126765Y-68646926D01*
X176181680Y-68690197D01*
X176201072Y-68697936D01*
X176261636Y-68735006D01*
X176287448Y-68777654D01*
X176309529Y-68836154D01*
X176225816Y-68836154D01*
X176168850Y-68830982D01*
X176120811Y-68810723D01*
X176065654Y-68768262D01*
X176058486Y-68761951D01*
X176009415Y-68714720D01*
X175983080Y-68674121D01*
X175970965Y-68623328D01*
X175966997Y-68581220D01*
X175966009Y-68505902D01*
X175978534Y-68452286D01*
X175997131Y-68418838D01*
X176001479Y-68413249D01*
X176391077Y-68413249D01*
X176398528Y-68435753D01*
X176418247Y-68484182D01*
X176446282Y-68548908D01*
X176452308Y-68562443D01*
X176493904Y-68644244D01*
X176530462Y-68689312D01*
X176564704Y-68699217D01*
X176599352Y-68675526D01*
X176614661Y-68655960D01*
X176645279Y-68585360D01*
X176640220Y-68519280D01*
X176602849Y-68463959D01*
X176536527Y-68425636D01*
X176483884Y-68413349D01*
X176430052Y-68408471D01*
X176396562Y-68409839D01*
X176391077Y-68413249D01*
X176001479Y-68413249D01*
X176038025Y-68366268D01*
X176082252Y-68329879D01*
X176137874Y-68306850D01*
X176212953Y-68294359D01*
X176315551Y-68289587D01*
X176367624Y-68289206D01*
X176430052Y-68290501D01*
X176489280Y-68291730D01*
X176579290Y-68301032D01*
G36*
X176658945Y-61574778D02*
G01*
X176724785Y-61620421D01*
X176791319Y-61702802D01*
X176824324Y-61793546D01*
X176826427Y-61886185D01*
X176800255Y-61974254D01*
X176748433Y-62051286D01*
X176673588Y-62110816D01*
X176578346Y-62146378D01*
X176508244Y-62153571D01*
X176478991Y-62152754D01*
X176456593Y-62145914D01*
X176436526Y-62127112D01*
X176414267Y-62090408D01*
X176385291Y-62029862D01*
X176345073Y-61939534D01*
X176344871Y-61939077D01*
X176306790Y-61855933D01*
X176272975Y-61787753D01*
X176247067Y-61741505D01*
X176245750Y-61739914D01*
X176459874Y-61739914D01*
X176469281Y-61773132D01*
X176491517Y-61825494D01*
X176519390Y-61884024D01*
X176520128Y-61885479D01*
X176546223Y-61935089D01*
X176563637Y-61955000D01*
X176581893Y-61950090D01*
X176605880Y-61929416D01*
X176640594Y-61876819D01*
X176643144Y-61820177D01*
X176617881Y-61769369D01*
X176569153Y-61734276D01*
X176515532Y-61724154D01*
X176472448Y-61726590D01*
X176459874Y-61739914D01*
X176245750Y-61739914D01*
X176232705Y-61724158D01*
X176232589Y-61724154D01*
X176201315Y-61739443D01*
X176166843Y-61775196D01*
X176142010Y-61816242D01*
X176137077Y-61837037D01*
X176154138Y-61893770D01*
X176196867Y-61942627D01*
X176243845Y-61966465D01*
X176278478Y-61989397D01*
X176317919Y-62034318D01*
X176351991Y-62087123D01*
X176370520Y-62133710D01*
X176371538Y-62143452D01*
X176354785Y-62154418D01*
X176311961Y-62155079D01*
X176254219Y-62147020D01*
X176192711Y-62131827D01*
X176138591Y-62111086D01*
X176136490Y-62110038D01*
X176049340Y-62047621D01*
X175990061Y-61966726D01*
X175960966Y-61874856D01*
X175964366Y-61779513D01*
X176002572Y-61688198D01*
X176005259Y-61684138D01*
X176070358Y-61612306D01*
X176155295Y-61565073D01*
X176266979Y-61538934D01*
X176298357Y-61535426D01*
X176446464Y-61529213D01*
X176515532Y-61536661D01*
X176564964Y-61541992D01*
X176658945Y-61574778D01*
G37*
X176658945Y-61574778D02*
X176724785Y-61620421D01*
X176791319Y-61702802D01*
X176824324Y-61793546D01*
X176826427Y-61886185D01*
X176800255Y-61974254D01*
X176748433Y-62051286D01*
X176673588Y-62110816D01*
X176578346Y-62146378D01*
X176508244Y-62153571D01*
X176478991Y-62152754D01*
X176456593Y-62145914D01*
X176436526Y-62127112D01*
X176414267Y-62090408D01*
X176385291Y-62029862D01*
X176345073Y-61939534D01*
X176344871Y-61939077D01*
X176306790Y-61855933D01*
X176272975Y-61787753D01*
X176247067Y-61741505D01*
X176245750Y-61739914D01*
X176459874Y-61739914D01*
X176469281Y-61773132D01*
X176491517Y-61825494D01*
X176519390Y-61884024D01*
X176520128Y-61885479D01*
X176546223Y-61935089D01*
X176563637Y-61955000D01*
X176581893Y-61950090D01*
X176605880Y-61929416D01*
X176640594Y-61876819D01*
X176643144Y-61820177D01*
X176617881Y-61769369D01*
X176569153Y-61734276D01*
X176515532Y-61724154D01*
X176472448Y-61726590D01*
X176459874Y-61739914D01*
X176245750Y-61739914D01*
X176232705Y-61724158D01*
X176232589Y-61724154D01*
X176201315Y-61739443D01*
X176166843Y-61775196D01*
X176142010Y-61816242D01*
X176137077Y-61837037D01*
X176154138Y-61893770D01*
X176196867Y-61942627D01*
X176243845Y-61966465D01*
X176278478Y-61989397D01*
X176317919Y-62034318D01*
X176351991Y-62087123D01*
X176370520Y-62133710D01*
X176371538Y-62143452D01*
X176354785Y-62154418D01*
X176311961Y-62155079D01*
X176254219Y-62147020D01*
X176192711Y-62131827D01*
X176138591Y-62111086D01*
X176136490Y-62110038D01*
X176049340Y-62047621D01*
X175990061Y-61966726D01*
X175960966Y-61874856D01*
X175964366Y-61779513D01*
X176002572Y-61688198D01*
X176005259Y-61684138D01*
X176070358Y-61612306D01*
X176155295Y-61565073D01*
X176266979Y-61538934D01*
X176298357Y-61535426D01*
X176446464Y-61529213D01*
X176515532Y-61536661D01*
X176564964Y-61541992D01*
X176658945Y-61574778D01*
G36*
X177071764Y-63590077D02*
G01*
X176907880Y-63599846D01*
X176828020Y-63605572D01*
X176780961Y-63612149D01*
X176760434Y-63621262D01*
X176760171Y-63634598D01*
X176762622Y-63638923D01*
X176780364Y-63696444D01*
X176779328Y-63771268D01*
X176761090Y-63847339D01*
X176737495Y-63894918D01*
X176699802Y-63943702D01*
X176657145Y-63979364D01*
X176602943Y-64003845D01*
X176530616Y-64019087D01*
X176433581Y-64027030D01*
X176305258Y-64029616D01*
X176280642Y-64029662D01*
X176004130Y-64029692D01*
X175982680Y-63968161D01*
X175968088Y-63924459D01*
X175961294Y-63900482D01*
X175961231Y-63899777D01*
X175979655Y-63897415D01*
X176030474Y-63895406D01*
X176107007Y-63893901D01*
X176202570Y-63893053D01*
X176260671Y-63892923D01*
X176375229Y-63892651D01*
X176457333Y-63891252D01*
X176513607Y-63887849D01*
X176550674Y-63881567D01*
X176575156Y-63871529D01*
X176593675Y-63856861D01*
X176602594Y-63847702D01*
X176638534Y-63784789D01*
X176641225Y-63716136D01*
X176610830Y-63653848D01*
X176599856Y-63642329D01*
X176579221Y-63625433D01*
X176554744Y-63613714D01*
X176519353Y-63606233D01*
X176465974Y-63602054D01*
X176387534Y-63600237D01*
X176279383Y-63599846D01*
X176004130Y-63599846D01*
X175982680Y-63538315D01*
X175968088Y-63494613D01*
X175961294Y-63470636D01*
X175961231Y-63469930D01*
X175979931Y-63468126D01*
X176032678Y-63466500D01*
X176114443Y-63465117D01*
X176220195Y-63464042D01*
X176344906Y-63463340D01*
X176483545Y-63463077D01*
X177018194Y-63463077D01*
X177071764Y-63590077D01*
G37*
X177071764Y-63590077D02*
X176907880Y-63599846D01*
X176828020Y-63605572D01*
X176780961Y-63612149D01*
X176760434Y-63621262D01*
X176760171Y-63634598D01*
X176762622Y-63638923D01*
X176780364Y-63696444D01*
X176779328Y-63771268D01*
X176761090Y-63847339D01*
X176737495Y-63894918D01*
X176699802Y-63943702D01*
X176657145Y-63979364D01*
X176602943Y-64003845D01*
X176530616Y-64019087D01*
X176433581Y-64027030D01*
X176305258Y-64029616D01*
X176280642Y-64029662D01*
X176004130Y-64029692D01*
X175982680Y-63968161D01*
X175968088Y-63924459D01*
X175961294Y-63900482D01*
X175961231Y-63899777D01*
X175979655Y-63897415D01*
X176030474Y-63895406D01*
X176107007Y-63893901D01*
X176202570Y-63893053D01*
X176260671Y-63892923D01*
X176375229Y-63892651D01*
X176457333Y-63891252D01*
X176513607Y-63887849D01*
X176550674Y-63881567D01*
X176575156Y-63871529D01*
X176593675Y-63856861D01*
X176602594Y-63847702D01*
X176638534Y-63784789D01*
X176641225Y-63716136D01*
X176610830Y-63653848D01*
X176599856Y-63642329D01*
X176579221Y-63625433D01*
X176554744Y-63613714D01*
X176519353Y-63606233D01*
X176465974Y-63602054D01*
X176387534Y-63600237D01*
X176279383Y-63599846D01*
X176004130Y-63599846D01*
X175982680Y-63538315D01*
X175968088Y-63494613D01*
X175961294Y-63470636D01*
X175961231Y-63469930D01*
X175979931Y-63468126D01*
X176032678Y-63466500D01*
X176114443Y-63465117D01*
X176220195Y-63464042D01*
X176344906Y-63463340D01*
X176483545Y-63463077D01*
X177018194Y-63463077D01*
X177071764Y-63590077D01*
G36*
X180165754Y-61353153D02*
G01*
X180272021Y-61354099D01*
X180348987Y-61356141D01*
X180401540Y-61359662D01*
X180434567Y-61365043D01*
X180452955Y-61372666D01*
X180461592Y-61382912D01*
X180463193Y-61387115D01*
X180468873Y-61412470D01*
X180480205Y-61468484D01*
X180495821Y-61547964D01*
X180514353Y-61643712D01*
X180534431Y-61748533D01*
X180554688Y-61855232D01*
X180573754Y-61956613D01*
X180590261Y-62045479D01*
X180602841Y-62114637D01*
X180610125Y-62156889D01*
X180611384Y-62166290D01*
X180628237Y-62174807D01*
X180673130Y-62193660D01*
X180737570Y-62219324D01*
X180762808Y-62229123D01*
X180860314Y-62268648D01*
X180968041Y-62315192D01*
X181058828Y-62356877D01*
X181128247Y-62387550D01*
X181185290Y-62407956D01*
X181220223Y-62414768D01*
X181224905Y-62413682D01*
X181247009Y-62399285D01*
X181296169Y-62366412D01*
X181367152Y-62318590D01*
X181454722Y-62259348D01*
X181553643Y-62192215D01*
X181573170Y-62178941D01*
X181688860Y-62101046D01*
X181776956Y-62043787D01*
X181841514Y-62004881D01*
X181886589Y-61982044D01*
X181916237Y-61972994D01*
X181934515Y-61975448D01*
X181934631Y-61975511D01*
X181958639Y-61994827D01*
X182005053Y-62037551D01*
X182069063Y-62099051D01*
X182145855Y-62174698D01*
X182230618Y-62259861D01*
X182240078Y-62269465D01*
X182344011Y-62376790D01*
X182420325Y-62459615D01*
X182470429Y-62519605D01*
X182495730Y-62558423D01*
X182498996Y-62575520D01*
X182484750Y-62600473D01*
X182451844Y-62652255D01*
X182403792Y-62725520D01*
X182344110Y-62814920D01*
X182276312Y-62915111D01*
X182260361Y-62938501D01*
X182033580Y-63270593D01*
X182101647Y-63420565D01*
X182141315Y-63511770D01*
X182181209Y-63609669D01*
X182213017Y-63693831D01*
X182214326Y-63697538D01*
X182238424Y-63763369D01*
X182258800Y-63814116D01*
X182271064Y-63838842D01*
X182271099Y-63838884D01*
X182293266Y-63846729D01*
X182347783Y-63860066D01*
X182428520Y-63877570D01*
X182529350Y-63897917D01*
X182644144Y-63919782D01*
X182653822Y-63921571D01*
X182772096Y-63943504D01*
X182879458Y-63963640D01*
X182969083Y-63980680D01*
X183034149Y-63993328D01*
X183067832Y-64000284D01*
X183068346Y-64000406D01*
X183082675Y-64004639D01*
X183093493Y-64012871D01*
X183101294Y-64030033D01*
X183106571Y-64061058D01*
X183109818Y-64110878D01*
X183111528Y-64184424D01*
X183112193Y-64286629D01*
X183112307Y-64422425D01*
X183112308Y-64440000D01*
X183112224Y-64579878D01*
X183111645Y-64685612D01*
X183110078Y-64762132D01*
X183107028Y-64814372D01*
X183102004Y-64847263D01*
X183094511Y-64865737D01*
X183084056Y-64874727D01*
X183070147Y-64879163D01*
X183068346Y-64879594D01*
X183035855Y-64886333D01*
X182971748Y-64898808D01*
X182882849Y-64915719D01*
X182775981Y-64935771D01*
X182657967Y-64957664D01*
X182653822Y-64958429D01*
X182538169Y-64980359D01*
X182435986Y-65000877D01*
X182353402Y-65018659D01*
X182296544Y-65032381D01*
X182271542Y-65040718D01*
X182271099Y-65041116D01*
X182258890Y-65065677D01*
X182238544Y-65116315D01*
X182214455Y-65182095D01*
X182214326Y-65182461D01*
X182183182Y-65265317D01*
X182143509Y-65363000D01*
X182103619Y-65455077D01*
X182101647Y-65459434D01*
X182033580Y-65609407D01*
X182260361Y-65941498D01*
X182329496Y-66043374D01*
X182391303Y-66135657D01*
X182442267Y-66213003D01*
X182478873Y-66270064D01*
X182497606Y-66301495D01*
X182498996Y-66304479D01*
X182492810Y-66327321D01*
X182462965Y-66369982D01*
X182408053Y-66434128D01*
X182326666Y-66521421D01*
X182240078Y-66610535D01*
X182154753Y-66696441D01*
X182076892Y-66773327D01*
X182011303Y-66836564D01*
X181962795Y-66881523D01*
X181936175Y-66903576D01*
X181934805Y-66904396D01*
X181916537Y-66906834D01*
X181886705Y-66897650D01*
X181841279Y-66874574D01*
X181776230Y-66835337D01*
X181687530Y-66777670D01*
X181573343Y-66700795D01*
X181472838Y-66632570D01*
X181382697Y-66571582D01*
X181308151Y-66521356D01*
X181254435Y-66485416D01*
X181226782Y-66467287D01*
X181224905Y-66466146D01*
X181198410Y-66468359D01*
X181146914Y-66485138D01*
X181080149Y-66513142D01*
X181058828Y-66523122D01*
X180963841Y-66566672D01*
X180856063Y-66613134D01*
X180762808Y-66650877D01*
X180693594Y-66678073D01*
X180640994Y-66699675D01*
X180613503Y-66712158D01*
X180611384Y-66713709D01*
X180607876Y-66736668D01*
X180598262Y-66790786D01*
X180583911Y-66868868D01*
X180566193Y-66963719D01*
X180546475Y-67068143D01*
X180526126Y-67174944D01*
X180506514Y-67276926D01*
X180489009Y-67366894D01*
X180474978Y-67437653D01*
X180465791Y-67482006D01*
X180463193Y-67492885D01*
X180456782Y-67504122D01*
X180442303Y-67512605D01*
X180414867Y-67518714D01*
X180369589Y-67522832D01*
X180301580Y-67525341D01*
X180205953Y-67526621D01*
X180077820Y-67527054D01*
X180025299Y-67527077D01*
X179598155Y-67527077D01*
X179577909Y-67424500D01*
X179566930Y-67367431D01*
X179550905Y-67282269D01*
X179531767Y-67179372D01*
X179511449Y-67069096D01*
X179505868Y-67038615D01*
X179486083Y-66936855D01*
X179466627Y-66848205D01*
X179449303Y-66780108D01*
X179435912Y-66740004D01*
X179431921Y-66733323D01*
X179403658Y-66716919D01*
X179348891Y-66693399D01*
X179278412Y-66667316D01*
X179263231Y-66662142D01*
X179169104Y-66627956D01*
X179062899Y-66585523D01*
X178967527Y-66543997D01*
X178967084Y-66543792D01*
X178817475Y-66474640D01*
X178148383Y-66929512D01*
X177855884Y-66637500D01*
X177768830Y-66549180D01*
X177692091Y-66468625D01*
X177629763Y-66400360D01*
X177585944Y-66348908D01*
X177564730Y-66318794D01*
X177563384Y-66314474D01*
X177573984Y-66289111D01*
X177603453Y-66237358D01*
X177648295Y-66164868D01*
X177705016Y-66077294D01*
X177768538Y-65982612D01*
X177833332Y-65886516D01*
X177889713Y-65800837D01*
X177934212Y-65731016D01*
X177963361Y-65682494D01*
X177973692Y-65660782D01*
X177964950Y-65634293D01*
X177941913Y-65584062D01*
X177909369Y-65520451D01*
X177905751Y-65513708D01*
X177862790Y-65428046D01*
X177841721Y-65369306D01*
X177841497Y-65332772D01*
X177861072Y-65313731D01*
X177861346Y-65313620D01*
X177884528Y-65304102D01*
X177939559Y-65281403D01*
X178022178Y-65247282D01*
X178128128Y-65203500D01*
X178253148Y-65151816D01*
X178392980Y-65093992D01*
X178528363Y-65037991D01*
X178677766Y-64976447D01*
X178816168Y-64919939D01*
X178939327Y-64870161D01*
X179042998Y-64828806D01*
X179122941Y-64797568D01*
X179174912Y-64778141D01*
X179194308Y-64772154D01*
X179216557Y-64787168D01*
X179252018Y-64826439D01*
X179291113Y-64878807D01*
X179414755Y-65027941D01*
X179556478Y-65144511D01*
X179713296Y-65227118D01*
X179882225Y-65274366D01*
X180060278Y-65284857D01*
X180142461Y-65277231D01*
X180312969Y-65235682D01*
X180463541Y-65164123D01*
X180592691Y-65066995D01*
X180698936Y-64948734D01*
X180780790Y-64813780D01*
X180836768Y-64666571D01*
X180865385Y-64511544D01*
X180865156Y-64353139D01*
X180834595Y-64195794D01*
X180772218Y-64043946D01*
X180676540Y-63902035D01*
X180622428Y-63842803D01*
X180483480Y-63729203D01*
X180331639Y-63650106D01*
X180171333Y-63604986D01*
X180006988Y-63593316D01*
X179843029Y-63614569D01*
X179683882Y-63668220D01*
X179533975Y-63753740D01*
X179397733Y-63870605D01*
X179291113Y-64001193D01*
X179250358Y-64055588D01*
X179215282Y-64094014D01*
X179194274Y-64107846D01*
X179171365Y-64100603D01*
X179116635Y-64080005D01*
X179034328Y-64047746D01*
X178928685Y-64005521D01*
X178803950Y-63955023D01*
X178664364Y-63897948D01*
X178528330Y-63841854D01*
X178378799Y-63779967D01*
X178240233Y-63722644D01*
X178116893Y-63671644D01*
X178013036Y-63628727D01*
X177932920Y-63595653D01*
X177880805Y-63574181D01*
X177861346Y-63566225D01*
X177841577Y-63547429D01*
X177841635Y-63511074D01*
X177862559Y-63452479D01*
X177905387Y-63366968D01*
X177905751Y-63366292D01*
X177938988Y-63301907D01*
X177963198Y-63249861D01*
X177973596Y-63220512D01*
X177973692Y-63219217D01*
X177963145Y-63197124D01*
X177933816Y-63148348D01*
X177889173Y-63078331D01*
X177832686Y-62992514D01*
X177768538Y-62897388D01*
X177703589Y-62800540D01*
X177647104Y-62713253D01*
X177602579Y-62641181D01*
X177573510Y-62589977D01*
X177563384Y-62565526D01*
X177576693Y-62543010D01*
X177613888Y-62497742D01*
X177670872Y-62434244D01*
X177743551Y-62357039D01*
X177827829Y-62270651D01*
X177855984Y-62242399D01*
X178148584Y-61950287D01*
X178474896Y-62172631D01*
X178575103Y-62240202D01*
X178665037Y-62299507D01*
X178739490Y-62347217D01*
X178793249Y-62380007D01*
X178821106Y-62394548D01*
X178823088Y-62394974D01*
X178849345Y-62387308D01*
X178902163Y-62366689D01*
X178972690Y-62336685D01*
X179019907Y-62315625D01*
X179110306Y-62276248D01*
X179201634Y-62239165D01*
X179278800Y-62210415D01*
X179302308Y-62202605D01*
X179365084Y-62180417D01*
X179413589Y-62158727D01*
X179431921Y-62146813D01*
X179443141Y-62120523D01*
X179459046Y-62063142D01*
X179477833Y-61982118D01*
X179497701Y-61884895D01*
X179505868Y-61841385D01*
X179526171Y-61730896D01*
X179545830Y-61624916D01*
X179562912Y-61533801D01*
X179575482Y-61467908D01*
X179577909Y-61455500D01*
X179598155Y-61352923D01*
X180025299Y-61352923D01*
X180165754Y-61353153D01*
G37*
X180165754Y-61353153D02*
X180272021Y-61354099D01*
X180348987Y-61356141D01*
X180401540Y-61359662D01*
X180434567Y-61365043D01*
X180452955Y-61372666D01*
X180461592Y-61382912D01*
X180463193Y-61387115D01*
X180468873Y-61412470D01*
X180480205Y-61468484D01*
X180495821Y-61547964D01*
X180514353Y-61643712D01*
X180534431Y-61748533D01*
X180554688Y-61855232D01*
X180573754Y-61956613D01*
X180590261Y-62045479D01*
X180602841Y-62114637D01*
X180610125Y-62156889D01*
X180611384Y-62166290D01*
X180628237Y-62174807D01*
X180673130Y-62193660D01*
X180737570Y-62219324D01*
X180762808Y-62229123D01*
X180860314Y-62268648D01*
X180968041Y-62315192D01*
X181058828Y-62356877D01*
X181128247Y-62387550D01*
X181185290Y-62407956D01*
X181220223Y-62414768D01*
X181224905Y-62413682D01*
X181247009Y-62399285D01*
X181296169Y-62366412D01*
X181367152Y-62318590D01*
X181454722Y-62259348D01*
X181553643Y-62192215D01*
X181573170Y-62178941D01*
X181688860Y-62101046D01*
X181776956Y-62043787D01*
X181841514Y-62004881D01*
X181886589Y-61982044D01*
X181916237Y-61972994D01*
X181934515Y-61975448D01*
X181934631Y-61975511D01*
X181958639Y-61994827D01*
X182005053Y-62037551D01*
X182069063Y-62099051D01*
X182145855Y-62174698D01*
X182230618Y-62259861D01*
X182240078Y-62269465D01*
X182344011Y-62376790D01*
X182420325Y-62459615D01*
X182470429Y-62519605D01*
X182495730Y-62558423D01*
X182498996Y-62575520D01*
X182484750Y-62600473D01*
X182451844Y-62652255D01*
X182403792Y-62725520D01*
X182344110Y-62814920D01*
X182276312Y-62915111D01*
X182260361Y-62938501D01*
X182033580Y-63270593D01*
X182101647Y-63420565D01*
X182141315Y-63511770D01*
X182181209Y-63609669D01*
X182213017Y-63693831D01*
X182214326Y-63697538D01*
X182238424Y-63763369D01*
X182258800Y-63814116D01*
X182271064Y-63838842D01*
X182271099Y-63838884D01*
X182293266Y-63846729D01*
X182347783Y-63860066D01*
X182428520Y-63877570D01*
X182529350Y-63897917D01*
X182644144Y-63919782D01*
X182653822Y-63921571D01*
X182772096Y-63943504D01*
X182879458Y-63963640D01*
X182969083Y-63980680D01*
X183034149Y-63993328D01*
X183067832Y-64000284D01*
X183068346Y-64000406D01*
X183082675Y-64004639D01*
X183093493Y-64012871D01*
X183101294Y-64030033D01*
X183106571Y-64061058D01*
X183109818Y-64110878D01*
X183111528Y-64184424D01*
X183112193Y-64286629D01*
X183112307Y-64422425D01*
X183112308Y-64440000D01*
X183112224Y-64579878D01*
X183111645Y-64685612D01*
X183110078Y-64762132D01*
X183107028Y-64814372D01*
X183102004Y-64847263D01*
X183094511Y-64865737D01*
X183084056Y-64874727D01*
X183070147Y-64879163D01*
X183068346Y-64879594D01*
X183035855Y-64886333D01*
X182971748Y-64898808D01*
X182882849Y-64915719D01*
X182775981Y-64935771D01*
X182657967Y-64957664D01*
X182653822Y-64958429D01*
X182538169Y-64980359D01*
X182435986Y-65000877D01*
X182353402Y-65018659D01*
X182296544Y-65032381D01*
X182271542Y-65040718D01*
X182271099Y-65041116D01*
X182258890Y-65065677D01*
X182238544Y-65116315D01*
X182214455Y-65182095D01*
X182214326Y-65182461D01*
X182183182Y-65265317D01*
X182143509Y-65363000D01*
X182103619Y-65455077D01*
X182101647Y-65459434D01*
X182033580Y-65609407D01*
X182260361Y-65941498D01*
X182329496Y-66043374D01*
X182391303Y-66135657D01*
X182442267Y-66213003D01*
X182478873Y-66270064D01*
X182497606Y-66301495D01*
X182498996Y-66304479D01*
X182492810Y-66327321D01*
X182462965Y-66369982D01*
X182408053Y-66434128D01*
X182326666Y-66521421D01*
X182240078Y-66610535D01*
X182154753Y-66696441D01*
X182076892Y-66773327D01*
X182011303Y-66836564D01*
X181962795Y-66881523D01*
X181936175Y-66903576D01*
X181934805Y-66904396D01*
X181916537Y-66906834D01*
X181886705Y-66897650D01*
X181841279Y-66874574D01*
X181776230Y-66835337D01*
X181687530Y-66777670D01*
X181573343Y-66700795D01*
X181472838Y-66632570D01*
X181382697Y-66571582D01*
X181308151Y-66521356D01*
X181254435Y-66485416D01*
X181226782Y-66467287D01*
X181224905Y-66466146D01*
X181198410Y-66468359D01*
X181146914Y-66485138D01*
X181080149Y-66513142D01*
X181058828Y-66523122D01*
X180963841Y-66566672D01*
X180856063Y-66613134D01*
X180762808Y-66650877D01*
X180693594Y-66678073D01*
X180640994Y-66699675D01*
X180613503Y-66712158D01*
X180611384Y-66713709D01*
X180607876Y-66736668D01*
X180598262Y-66790786D01*
X180583911Y-66868868D01*
X180566193Y-66963719D01*
X180546475Y-67068143D01*
X180526126Y-67174944D01*
X180506514Y-67276926D01*
X180489009Y-67366894D01*
X180474978Y-67437653D01*
X180465791Y-67482006D01*
X180463193Y-67492885D01*
X180456782Y-67504122D01*
X180442303Y-67512605D01*
X180414867Y-67518714D01*
X180369589Y-67522832D01*
X180301580Y-67525341D01*
X180205953Y-67526621D01*
X180077820Y-67527054D01*
X180025299Y-67527077D01*
X179598155Y-67527077D01*
X179577909Y-67424500D01*
X179566930Y-67367431D01*
X179550905Y-67282269D01*
X179531767Y-67179372D01*
X179511449Y-67069096D01*
X179505868Y-67038615D01*
X179486083Y-66936855D01*
X179466627Y-66848205D01*
X179449303Y-66780108D01*
X179435912Y-66740004D01*
X179431921Y-66733323D01*
X179403658Y-66716919D01*
X179348891Y-66693399D01*
X179278412Y-66667316D01*
X179263231Y-66662142D01*
X179169104Y-66627956D01*
X179062899Y-66585523D01*
X178967527Y-66543997D01*
X178967084Y-66543792D01*
X178817475Y-66474640D01*
X178148383Y-66929512D01*
X177855884Y-66637500D01*
X177768830Y-66549180D01*
X177692091Y-66468625D01*
X177629763Y-66400360D01*
X177585944Y-66348908D01*
X177564730Y-66318794D01*
X177563384Y-66314474D01*
X177573984Y-66289111D01*
X177603453Y-66237358D01*
X177648295Y-66164868D01*
X177705016Y-66077294D01*
X177768538Y-65982612D01*
X177833332Y-65886516D01*
X177889713Y-65800837D01*
X177934212Y-65731016D01*
X177963361Y-65682494D01*
X177973692Y-65660782D01*
X177964950Y-65634293D01*
X177941913Y-65584062D01*
X177909369Y-65520451D01*
X177905751Y-65513708D01*
X177862790Y-65428046D01*
X177841721Y-65369306D01*
X177841497Y-65332772D01*
X177861072Y-65313731D01*
X177861346Y-65313620D01*
X177884528Y-65304102D01*
X177939559Y-65281403D01*
X178022178Y-65247282D01*
X178128128Y-65203500D01*
X178253148Y-65151816D01*
X178392980Y-65093992D01*
X178528363Y-65037991D01*
X178677766Y-64976447D01*
X178816168Y-64919939D01*
X178939327Y-64870161D01*
X179042998Y-64828806D01*
X179122941Y-64797568D01*
X179174912Y-64778141D01*
X179194308Y-64772154D01*
X179216557Y-64787168D01*
X179252018Y-64826439D01*
X179291113Y-64878807D01*
X179414755Y-65027941D01*
X179556478Y-65144511D01*
X179713296Y-65227118D01*
X179882225Y-65274366D01*
X180060278Y-65284857D01*
X180142461Y-65277231D01*
X180312969Y-65235682D01*
X180463541Y-65164123D01*
X180592691Y-65066995D01*
X180698936Y-64948734D01*
X180780790Y-64813780D01*
X180836768Y-64666571D01*
X180865385Y-64511544D01*
X180865156Y-64353139D01*
X180834595Y-64195794D01*
X180772218Y-64043946D01*
X180676540Y-63902035D01*
X180622428Y-63842803D01*
X180483480Y-63729203D01*
X180331639Y-63650106D01*
X180171333Y-63604986D01*
X180006988Y-63593316D01*
X179843029Y-63614569D01*
X179683882Y-63668220D01*
X179533975Y-63753740D01*
X179397733Y-63870605D01*
X179291113Y-64001193D01*
X179250358Y-64055588D01*
X179215282Y-64094014D01*
X179194274Y-64107846D01*
X179171365Y-64100603D01*
X179116635Y-64080005D01*
X179034328Y-64047746D01*
X178928685Y-64005521D01*
X178803950Y-63955023D01*
X178664364Y-63897948D01*
X178528330Y-63841854D01*
X178378799Y-63779967D01*
X178240233Y-63722644D01*
X178116893Y-63671644D01*
X178013036Y-63628727D01*
X177932920Y-63595653D01*
X177880805Y-63574181D01*
X177861346Y-63566225D01*
X177841577Y-63547429D01*
X177841635Y-63511074D01*
X177862559Y-63452479D01*
X177905387Y-63366968D01*
X177905751Y-63366292D01*
X177938988Y-63301907D01*
X177963198Y-63249861D01*
X177973596Y-63220512D01*
X177973692Y-63219217D01*
X177963145Y-63197124D01*
X177933816Y-63148348D01*
X177889173Y-63078331D01*
X177832686Y-62992514D01*
X177768538Y-62897388D01*
X177703589Y-62800540D01*
X177647104Y-62713253D01*
X177602579Y-62641181D01*
X177573510Y-62589977D01*
X177563384Y-62565526D01*
X177576693Y-62543010D01*
X177613888Y-62497742D01*
X177670872Y-62434244D01*
X177743551Y-62357039D01*
X177827829Y-62270651D01*
X177855984Y-62242399D01*
X178148584Y-61950287D01*
X178474896Y-62172631D01*
X178575103Y-62240202D01*
X178665037Y-62299507D01*
X178739490Y-62347217D01*
X178793249Y-62380007D01*
X178821106Y-62394548D01*
X178823088Y-62394974D01*
X178849345Y-62387308D01*
X178902163Y-62366689D01*
X178972690Y-62336685D01*
X179019907Y-62315625D01*
X179110306Y-62276248D01*
X179201634Y-62239165D01*
X179278800Y-62210415D01*
X179302308Y-62202605D01*
X179365084Y-62180417D01*
X179413589Y-62158727D01*
X179431921Y-62146813D01*
X179443141Y-62120523D01*
X179459046Y-62063142D01*
X179477833Y-61982118D01*
X179497701Y-61884895D01*
X179505868Y-61841385D01*
X179526171Y-61730896D01*
X179545830Y-61624916D01*
X179562912Y-61533801D01*
X179575482Y-61467908D01*
X179577909Y-61455500D01*
X179598155Y-61352923D01*
X180025299Y-61352923D01*
X180165754Y-61353153D01*
G36*
X176599890Y-64166052D02*
G01*
X176691098Y-64222831D01*
X176721611Y-64252378D01*
X176760772Y-64319542D01*
X176778500Y-64404956D01*
X176773697Y-64493501D01*
X176745267Y-64570060D01*
X176744721Y-64570936D01*
X176709873Y-64618285D01*
X176669148Y-64653241D01*
X176616075Y-64677825D01*
X176544186Y-64694062D01*
X176447008Y-64703975D01*
X176318072Y-64709586D01*
X176299702Y-64710077D01*
X176022713Y-64717141D01*
X175991972Y-64657695D01*
X175971198Y-64614681D01*
X175961354Y-64588710D01*
X175961231Y-64587509D01*
X175979394Y-64583014D01*
X176028388Y-64579444D01*
X176099969Y-64577248D01*
X176157932Y-64576769D01*
X176251830Y-64576758D01*
X176310797Y-64572466D01*
X176338921Y-64557503D01*
X176340294Y-64525482D01*
X176319002Y-64470014D01*
X176279864Y-64386269D01*
X176247357Y-64324689D01*
X176219155Y-64293017D01*
X176188418Y-64283706D01*
X176186896Y-64283692D01*
X176133946Y-64299057D01*
X176105340Y-64344547D01*
X176101197Y-64414166D01*
X176101916Y-64464313D01*
X176087473Y-64490754D01*
X176052782Y-64507243D01*
X176008584Y-64516733D01*
X175983507Y-64503057D01*
X175979918Y-64497907D01*
X175965504Y-64449425D01*
X175963463Y-64381531D01*
X175973017Y-64311612D01*
X175990478Y-64262068D01*
X176048636Y-64193570D01*
X176129592Y-64154634D01*
X176192840Y-64146923D01*
X176249889Y-64152807D01*
X176296458Y-64174101D01*
X176337819Y-64216265D01*
X176379245Y-64284759D01*
X176426007Y-64385044D01*
X176428650Y-64391154D01*
X176470383Y-64481490D01*
X176504609Y-64537235D01*
X176535365Y-64561129D01*
X176566689Y-64555913D01*
X176602617Y-64524328D01*
X176610884Y-64514883D01*
X176642942Y-64451617D01*
X176641593Y-64386064D01*
X176610162Y-64328972D01*
X176551976Y-64291093D01*
X176540554Y-64287574D01*
X176485163Y-64253300D01*
X176458482Y-64209809D01*
X176432040Y-64146923D01*
X176500452Y-64146923D01*
X176599890Y-64166052D01*
G37*
X176599890Y-64166052D02*
X176691098Y-64222831D01*
X176721611Y-64252378D01*
X176760772Y-64319542D01*
X176778500Y-64404956D01*
X176773697Y-64493501D01*
X176745267Y-64570060D01*
X176744721Y-64570936D01*
X176709873Y-64618285D01*
X176669148Y-64653241D01*
X176616075Y-64677825D01*
X176544186Y-64694062D01*
X176447008Y-64703975D01*
X176318072Y-64709586D01*
X176299702Y-64710077D01*
X176022713Y-64717141D01*
X175991972Y-64657695D01*
X175971198Y-64614681D01*
X175961354Y-64588710D01*
X175961231Y-64587509D01*
X175979394Y-64583014D01*
X176028388Y-64579444D01*
X176099969Y-64577248D01*
X176157932Y-64576769D01*
X176251830Y-64576758D01*
X176310797Y-64572466D01*
X176338921Y-64557503D01*
X176340294Y-64525482D01*
X176319002Y-64470014D01*
X176279864Y-64386269D01*
X176247357Y-64324689D01*
X176219155Y-64293017D01*
X176188418Y-64283706D01*
X176186896Y-64283692D01*
X176133946Y-64299057D01*
X176105340Y-64344547D01*
X176101197Y-64414166D01*
X176101916Y-64464313D01*
X176087473Y-64490754D01*
X176052782Y-64507243D01*
X176008584Y-64516733D01*
X175983507Y-64503057D01*
X175979918Y-64497907D01*
X175965504Y-64449425D01*
X175963463Y-64381531D01*
X175973017Y-64311612D01*
X175990478Y-64262068D01*
X176048636Y-64193570D01*
X176129592Y-64154634D01*
X176192840Y-64146923D01*
X176249889Y-64152807D01*
X176296458Y-64174101D01*
X176337819Y-64216265D01*
X176379245Y-64284759D01*
X176426007Y-64385044D01*
X176428650Y-64391154D01*
X176470383Y-64481490D01*
X176504609Y-64537235D01*
X176535365Y-64561129D01*
X176566689Y-64555913D01*
X176602617Y-64524328D01*
X176610884Y-64514883D01*
X176642942Y-64451617D01*
X176641593Y-64386064D01*
X176610162Y-64328972D01*
X176551976Y-64291093D01*
X176540554Y-64287574D01*
X176485163Y-64253300D01*
X176458482Y-64209809D01*
X176432040Y-64146923D01*
X176500452Y-64146923D01*
X176599890Y-64166052D01*
G36*
X176258522Y-64813689D02*
G01*
X176278731Y-64814107D01*
X176398267Y-64817058D01*
X176485551Y-64820548D01*
X176547409Y-64825514D01*
X176590664Y-64832893D01*
X176622140Y-64843624D01*
X176648661Y-64858645D01*
X176660025Y-64866502D01*
X176710308Y-64911553D01*
X176749419Y-64961940D01*
X176752833Y-64968108D01*
X176779788Y-65058458D01*
X176775330Y-65153362D01*
X176742579Y-65242117D01*
X176684650Y-65314022D01*
X176643872Y-65342144D01*
X176569046Y-65372802D01*
X176514942Y-65372165D01*
X176478554Y-65339987D01*
X176472367Y-65328081D01*
X176453075Y-65276675D01*
X176458018Y-65250422D01*
X176490413Y-65241530D01*
X176508308Y-65241077D01*
X176574141Y-65224797D01*
X176620193Y-65182365D01*
X176642436Y-65123388D01*
X176636839Y-65057475D01*
X176607771Y-65003895D01*
X176591190Y-64985798D01*
X176571075Y-64972971D01*
X176540668Y-64964306D01*
X176493212Y-64958696D01*
X176421950Y-64955035D01*
X176320125Y-64952215D01*
X176287885Y-64951484D01*
X176177590Y-64948820D01*
X176099964Y-64945792D01*
X176048604Y-64941250D01*
X176017110Y-64934046D01*
X175999080Y-64923033D01*
X175988112Y-64907060D01*
X175983267Y-64896834D01*
X175966699Y-64853406D01*
X175961231Y-64827842D01*
X175979493Y-64819395D01*
X176034704Y-64814239D01*
X176127501Y-64812346D01*
X176258522Y-64813689D01*
G37*
X176258522Y-64813689D02*
X176278731Y-64814107D01*
X176398267Y-64817058D01*
X176485551Y-64820548D01*
X176547409Y-64825514D01*
X176590664Y-64832893D01*
X176622140Y-64843624D01*
X176648661Y-64858645D01*
X176660025Y-64866502D01*
X176710308Y-64911553D01*
X176749419Y-64961940D01*
X176752833Y-64968108D01*
X176779788Y-65058458D01*
X176775330Y-65153362D01*
X176742579Y-65242117D01*
X176684650Y-65314022D01*
X176643872Y-65342144D01*
X176569046Y-65372802D01*
X176514942Y-65372165D01*
X176478554Y-65339987D01*
X176472367Y-65328081D01*
X176453075Y-65276675D01*
X176458018Y-65250422D01*
X176490413Y-65241530D01*
X176508308Y-65241077D01*
X176574141Y-65224797D01*
X176620193Y-65182365D01*
X176642436Y-65123388D01*
X176636839Y-65057475D01*
X176607771Y-65003895D01*
X176591190Y-64985798D01*
X176571075Y-64972971D01*
X176540668Y-64964306D01*
X176493212Y-64958696D01*
X176421950Y-64955035D01*
X176320125Y-64952215D01*
X176287885Y-64951484D01*
X176177590Y-64948820D01*
X176099964Y-64945792D01*
X176048604Y-64941250D01*
X176017110Y-64934046D01*
X175999080Y-64923033D01*
X175988112Y-64907060D01*
X175983267Y-64896834D01*
X175966699Y-64853406D01*
X175961231Y-64827842D01*
X175979493Y-64819395D01*
X176034704Y-64814239D01*
X176127501Y-64812346D01*
X176258522Y-64813689D01*
G36*
X176295833Y-66986424D02*
G01*
X176342231Y-67028047D01*
X176368207Y-67069604D01*
X176401093Y-67134922D01*
X176434443Y-67211038D01*
X176439539Y-67223726D01*
X176476435Y-67307333D01*
X176508954Y-67355530D01*
X176541282Y-67371030D01*
X176577606Y-67356550D01*
X176606000Y-67331692D01*
X176640961Y-67272939D01*
X176643583Y-67208293D01*
X176616642Y-67149008D01*
X176562912Y-67106339D01*
X176549050Y-67100739D01*
X176498064Y-67068133D01*
X176460213Y-67020530D01*
X176429150Y-66960461D01*
X176517232Y-66960461D01*
X176571049Y-66963997D01*
X176613466Y-66979156D01*
X176658721Y-67012768D01*
X176693580Y-67045035D01*
X176742938Y-67095209D01*
X176769453Y-67134193D01*
X176780089Y-67176064D01*
X176781846Y-67223460D01*
X176766472Y-67327333D01*
X176740883Y-67383590D01*
X176709876Y-67427747D01*
X176675205Y-67460101D01*
X176630480Y-67482438D01*
X176569308Y-67496546D01*
X176485299Y-67504211D01*
X176372060Y-67507220D01*
X176297491Y-67507538D01*
X176006580Y-67507538D01*
X175983905Y-67457773D01*
X175967333Y-67418576D01*
X175961231Y-67399157D01*
X175979390Y-67395442D01*
X176028352Y-67392495D01*
X176099847Y-67390691D01*
X176156615Y-67390308D01*
X176238629Y-67388661D01*
X176303691Y-67384222D01*
X176343533Y-67377740D01*
X176352000Y-67372590D01*
X176343354Y-67337977D01*
X176321177Y-67283640D01*
X176291114Y-67220722D01*
X176258808Y-67160368D01*
X176229902Y-67113721D01*
X176210039Y-67091926D01*
X176209825Y-67091839D01*
X176173065Y-67093714D01*
X176137974Y-67110525D01*
X176109472Y-67140039D01*
X176099939Y-67183116D01*
X176101050Y-67219932D01*
X176101867Y-67272074D01*
X176089651Y-67299444D01*
X176057376Y-67315882D01*
X176051290Y-67317955D01*
X176005261Y-67325081D01*
X175977313Y-67306024D01*
X175963993Y-67256353D01*
X175961530Y-67202697D01*
X175979790Y-67106142D01*
X176005869Y-67056159D01*
X176067132Y-66994429D01*
X176142330Y-66961690D01*
X176221789Y-66958753D01*
X176295833Y-66986424D01*
G37*
X176295833Y-66986424D02*
X176342231Y-67028047D01*
X176368207Y-67069604D01*
X176401093Y-67134922D01*
X176434443Y-67211038D01*
X176439539Y-67223726D01*
X176476435Y-67307333D01*
X176508954Y-67355530D01*
X176541282Y-67371030D01*
X176577606Y-67356550D01*
X176606000Y-67331692D01*
X176640961Y-67272939D01*
X176643583Y-67208293D01*
X176616642Y-67149008D01*
X176562912Y-67106339D01*
X176549050Y-67100739D01*
X176498064Y-67068133D01*
X176460213Y-67020530D01*
X176429150Y-66960461D01*
X176517232Y-66960461D01*
X176571049Y-66963997D01*
X176613466Y-66979156D01*
X176658721Y-67012768D01*
X176693580Y-67045035D01*
X176742938Y-67095209D01*
X176769453Y-67134193D01*
X176780089Y-67176064D01*
X176781846Y-67223460D01*
X176766472Y-67327333D01*
X176740883Y-67383590D01*
X176709876Y-67427747D01*
X176675205Y-67460101D01*
X176630480Y-67482438D01*
X176569308Y-67496546D01*
X176485299Y-67504211D01*
X176372060Y-67507220D01*
X176297491Y-67507538D01*
X176006580Y-67507538D01*
X175983905Y-67457773D01*
X175967333Y-67418576D01*
X175961231Y-67399157D01*
X175979390Y-67395442D01*
X176028352Y-67392495D01*
X176099847Y-67390691D01*
X176156615Y-67390308D01*
X176238629Y-67388661D01*
X176303691Y-67384222D01*
X176343533Y-67377740D01*
X176352000Y-67372590D01*
X176343354Y-67337977D01*
X176321177Y-67283640D01*
X176291114Y-67220722D01*
X176258808Y-67160368D01*
X176229902Y-67113721D01*
X176210039Y-67091926D01*
X176209825Y-67091839D01*
X176173065Y-67093714D01*
X176137974Y-67110525D01*
X176109472Y-67140039D01*
X176099939Y-67183116D01*
X176101050Y-67219932D01*
X176101867Y-67272074D01*
X176089651Y-67299444D01*
X176057376Y-67315882D01*
X176051290Y-67317955D01*
X176005261Y-67325081D01*
X175977313Y-67306024D01*
X175963993Y-67256353D01*
X175961530Y-67202697D01*
X175979790Y-67106142D01*
X176005869Y-67056159D01*
X176067132Y-66994429D01*
X176142330Y-66961690D01*
X176221789Y-66958753D01*
X176295833Y-66986424D01*
G36*
X176759171Y-66209150D02*
G01*
X176775966Y-66252002D01*
X176781846Y-66277073D01*
X176763264Y-66283501D01*
X176711345Y-66289509D01*
X176631828Y-66294697D01*
X176530454Y-66298664D01*
X176444808Y-66300577D01*
X176107769Y-66305923D01*
X176101175Y-66352560D01*
X176105786Y-66394976D01*
X176120713Y-66415760D01*
X176148623Y-66421570D01*
X176208075Y-66426530D01*
X176291534Y-66430246D01*
X176391468Y-66432324D01*
X176442896Y-66432624D01*
X176738946Y-66432923D01*
X176760396Y-66494454D01*
X176774980Y-66538004D01*
X176781781Y-66561694D01*
X176781846Y-66562377D01*
X176763358Y-66564754D01*
X176712094Y-66567366D01*
X176634351Y-66569995D01*
X176536426Y-66572421D01*
X176444808Y-66574115D01*
X176107769Y-66579461D01*
X176107769Y-66696692D01*
X176415254Y-66702072D01*
X176722739Y-66707451D01*
X176752293Y-66764601D01*
X176772587Y-66806797D01*
X176781796Y-66831770D01*
X176781846Y-66832491D01*
X176763338Y-66835929D01*
X176711932Y-66838911D01*
X176633808Y-66841247D01*
X176535143Y-66842749D01*
X176431657Y-66843231D01*
X176081467Y-66843231D01*
X176019637Y-66781401D01*
X175981538Y-66738793D01*
X175966105Y-66701390D01*
X175967082Y-66650270D01*
X175969567Y-66629978D01*
X175976800Y-66566554D01*
X175980945Y-66514095D01*
X175981328Y-66501308D01*
X175978824Y-66458199D01*
X175972538Y-66396544D01*
X175969567Y-66372638D01*
X175964972Y-66313922D01*
X175974954Y-66274464D01*
X176005772Y-66235338D01*
X176019637Y-66221215D01*
X176081467Y-66159385D01*
X176736497Y-66159385D01*
X176759171Y-66209150D01*
G37*
X176759171Y-66209150D02*
X176775966Y-66252002D01*
X176781846Y-66277073D01*
X176763264Y-66283501D01*
X176711345Y-66289509D01*
X176631828Y-66294697D01*
X176530454Y-66298664D01*
X176444808Y-66300577D01*
X176107769Y-66305923D01*
X176101175Y-66352560D01*
X176105786Y-66394976D01*
X176120713Y-66415760D01*
X176148623Y-66421570D01*
X176208075Y-66426530D01*
X176291534Y-66430246D01*
X176391468Y-66432324D01*
X176442896Y-66432624D01*
X176738946Y-66432923D01*
X176760396Y-66494454D01*
X176774980Y-66538004D01*
X176781781Y-66561694D01*
X176781846Y-66562377D01*
X176763358Y-66564754D01*
X176712094Y-66567366D01*
X176634351Y-66569995D01*
X176536426Y-66572421D01*
X176444808Y-66574115D01*
X176107769Y-66579461D01*
X176107769Y-66696692D01*
X176415254Y-66702072D01*
X176722739Y-66707451D01*
X176752293Y-66764601D01*
X176772587Y-66806797D01*
X176781796Y-66831770D01*
X176781846Y-66832491D01*
X176763338Y-66835929D01*
X176711932Y-66838911D01*
X176633808Y-66841247D01*
X176535143Y-66842749D01*
X176431657Y-66843231D01*
X176081467Y-66843231D01*
X176019637Y-66781401D01*
X175981538Y-66738793D01*
X175966105Y-66701390D01*
X175967082Y-66650270D01*
X175969567Y-66629978D01*
X175976800Y-66566554D01*
X175980945Y-66514095D01*
X175981328Y-66501308D01*
X175978824Y-66458199D01*
X175972538Y-66396544D01*
X175969567Y-66372638D01*
X175964972Y-66313922D01*
X175974954Y-66274464D01*
X176005772Y-66235338D01*
X176019637Y-66221215D01*
X176081467Y-66159385D01*
X176736497Y-66159385D01*
X176759171Y-66209150D01*
G36*
X176562094Y-60047629D02*
G01*
X176610837Y-60054322D01*
X176646712Y-60065960D01*
X176678452Y-60083853D01*
X176684352Y-60087808D01*
X176763896Y-60154267D01*
X176810071Y-60226685D01*
X176828401Y-60314849D01*
X176829297Y-60344787D01*
X176812744Y-60456886D01*
X176764591Y-60548464D01*
X176687095Y-60616049D01*
X176637273Y-60640057D01*
X176562467Y-60658738D01*
X176467948Y-60668301D01*
X176364790Y-60669208D01*
X176264065Y-60661921D01*
X176176847Y-60646903D01*
X176114209Y-60624615D01*
X176103421Y-60617765D01*
X176022895Y-60536632D01*
X175974664Y-60440266D01*
X175960550Y-60335701D01*
X175962746Y-60325058D01*
X176142739Y-60325058D01*
X176144263Y-60370447D01*
X176173248Y-60416340D01*
X176204191Y-60443712D01*
X176249357Y-60459923D01*
X176320580Y-60469026D01*
X176328886Y-60469651D01*
X176457963Y-60471204D01*
X176553828Y-60454965D01*
X176615893Y-60421152D01*
X176643568Y-60369984D01*
X176645077Y-60351720D01*
X176637487Y-60303760D01*
X176611192Y-60270953D01*
X176560905Y-60250895D01*
X176481336Y-60241178D01*
X176397818Y-60239231D01*
X176308651Y-60240368D01*
X176249480Y-60244841D01*
X176211259Y-60254246D01*
X176184947Y-60270176D01*
X176176154Y-60278308D01*
X176142739Y-60325058D01*
X175962746Y-60325058D01*
X175982371Y-60229968D01*
X175995453Y-60200543D01*
X176035769Y-60143241D01*
X176089225Y-60092950D01*
X176096005Y-60088197D01*
X176128679Y-60068878D01*
X176163606Y-60056108D01*
X176209586Y-60048564D01*
X176275416Y-60044924D01*
X176369895Y-60043865D01*
X176391077Y-60043846D01*
X176397818Y-60043894D01*
X176491751Y-60044574D01*
X176562094Y-60047629D01*
G37*
X176562094Y-60047629D02*
X176610837Y-60054322D01*
X176646712Y-60065960D01*
X176678452Y-60083853D01*
X176684352Y-60087808D01*
X176763896Y-60154267D01*
X176810071Y-60226685D01*
X176828401Y-60314849D01*
X176829297Y-60344787D01*
X176812744Y-60456886D01*
X176764591Y-60548464D01*
X176687095Y-60616049D01*
X176637273Y-60640057D01*
X176562467Y-60658738D01*
X176467948Y-60668301D01*
X176364790Y-60669208D01*
X176264065Y-60661921D01*
X176176847Y-60646903D01*
X176114209Y-60624615D01*
X176103421Y-60617765D01*
X176022895Y-60536632D01*
X175974664Y-60440266D01*
X175960550Y-60335701D01*
X175962746Y-60325058D01*
X176142739Y-60325058D01*
X176144263Y-60370447D01*
X176173248Y-60416340D01*
X176204191Y-60443712D01*
X176249357Y-60459923D01*
X176320580Y-60469026D01*
X176328886Y-60469651D01*
X176457963Y-60471204D01*
X176553828Y-60454965D01*
X176615893Y-60421152D01*
X176643568Y-60369984D01*
X176645077Y-60351720D01*
X176637487Y-60303760D01*
X176611192Y-60270953D01*
X176560905Y-60250895D01*
X176481336Y-60241178D01*
X176397818Y-60239231D01*
X176308651Y-60240368D01*
X176249480Y-60244841D01*
X176211259Y-60254246D01*
X176184947Y-60270176D01*
X176176154Y-60278308D01*
X176142739Y-60325058D01*
X175962746Y-60325058D01*
X175982371Y-60229968D01*
X175995453Y-60200543D01*
X176035769Y-60143241D01*
X176089225Y-60092950D01*
X176096005Y-60088197D01*
X176128679Y-60068878D01*
X176163606Y-60056108D01*
X176209586Y-60048564D01*
X176275416Y-60044924D01*
X176369895Y-60043865D01*
X176391077Y-60043846D01*
X176397818Y-60043894D01*
X176491751Y-60044574D01*
X176562094Y-60047629D01*
G36*
X176505321Y-60796873D02*
G01*
X176569095Y-60800606D01*
X176614418Y-60805907D01*
X176646445Y-60813258D01*
X176670332Y-60823143D01*
X176691236Y-60836046D01*
X176699102Y-60841579D01*
X176773405Y-60914969D01*
X176815533Y-61007760D01*
X176827278Y-61115096D01*
X176815495Y-61208886D01*
X176778273Y-61283539D01*
X176709739Y-61349431D01*
X176684352Y-61367577D01*
X176651134Y-61387345D01*
X176615055Y-61400172D01*
X176566902Y-61407510D01*
X176497464Y-61410813D01*
X176405794Y-61411538D01*
X176280170Y-61408263D01*
X176185846Y-61396877D01*
X176115477Y-61375041D01*
X176061714Y-61340419D01*
X176017212Y-61290670D01*
X176014577Y-61287014D01*
X175987623Y-61237985D01*
X175974288Y-61178945D01*
X175972063Y-61128142D01*
X176142372Y-61128142D01*
X176174951Y-61175867D01*
X176176154Y-61177077D01*
X176201332Y-61196494D01*
X176235553Y-61208307D01*
X176288252Y-61214265D01*
X176368869Y-61216120D01*
X176386729Y-61216154D01*
X176497825Y-61211670D01*
X176574839Y-61197074D01*
X176621853Y-61170650D01*
X176642950Y-61130683D01*
X176645077Y-61107584D01*
X176635100Y-61052762D01*
X176602248Y-61015158D01*
X176542143Y-60992523D01*
X176450402Y-60982606D01*
X176399958Y-60981692D01*
X176316636Y-60982748D01*
X176262120Y-60987438D01*
X176226163Y-60998051D01*
X176198518Y-61016872D01*
X176185035Y-61029650D01*
X176145583Y-61081890D01*
X176142372Y-61128142D01*
X175972063Y-61128142D01*
X175971000Y-61103859D01*
X175971000Y-60981795D01*
X175852503Y-60981744D01*
X175786508Y-60980608D01*
X175747798Y-60973686D01*
X175724581Y-60955598D01*
X175705067Y-60920962D01*
X175701080Y-60912645D01*
X175682397Y-60873720D01*
X175670597Y-60843583D01*
X175669578Y-60821174D01*
X175683239Y-60805433D01*
X175715478Y-60795302D01*
X175770196Y-60789723D01*
X175851289Y-60787635D01*
X175962656Y-60787981D01*
X176108198Y-60789700D01*
X176151731Y-60790237D01*
X176301795Y-60792172D01*
X176399958Y-60793904D01*
X176417940Y-60794222D01*
X176505321Y-60796873D01*
G37*
X176505321Y-60796873D02*
X176569095Y-60800606D01*
X176614418Y-60805907D01*
X176646445Y-60813258D01*
X176670332Y-60823143D01*
X176691236Y-60836046D01*
X176699102Y-60841579D01*
X176773405Y-60914969D01*
X176815533Y-61007760D01*
X176827278Y-61115096D01*
X176815495Y-61208886D01*
X176778273Y-61283539D01*
X176709739Y-61349431D01*
X176684352Y-61367577D01*
X176651134Y-61387345D01*
X176615055Y-61400172D01*
X176566902Y-61407510D01*
X176497464Y-61410813D01*
X176405794Y-61411538D01*
X176280170Y-61408263D01*
X176185846Y-61396877D01*
X176115477Y-61375041D01*
X176061714Y-61340419D01*
X176017212Y-61290670D01*
X176014577Y-61287014D01*
X175987623Y-61237985D01*
X175974288Y-61178945D01*
X175972063Y-61128142D01*
X176142372Y-61128142D01*
X176174951Y-61175867D01*
X176176154Y-61177077D01*
X176201332Y-61196494D01*
X176235553Y-61208307D01*
X176288252Y-61214265D01*
X176368869Y-61216120D01*
X176386729Y-61216154D01*
X176497825Y-61211670D01*
X176574839Y-61197074D01*
X176621853Y-61170650D01*
X176642950Y-61130683D01*
X176645077Y-61107584D01*
X176635100Y-61052762D01*
X176602248Y-61015158D01*
X176542143Y-60992523D01*
X176450402Y-60982606D01*
X176399958Y-60981692D01*
X176316636Y-60982748D01*
X176262120Y-60987438D01*
X176226163Y-60998051D01*
X176198518Y-61016872D01*
X176185035Y-61029650D01*
X176145583Y-61081890D01*
X176142372Y-61128142D01*
X175972063Y-61128142D01*
X175971000Y-61103859D01*
X175971000Y-60981795D01*
X175852503Y-60981744D01*
X175786508Y-60980608D01*
X175747798Y-60973686D01*
X175724581Y-60955598D01*
X175705067Y-60920962D01*
X175701080Y-60912645D01*
X175682397Y-60873720D01*
X175670597Y-60843583D01*
X175669578Y-60821174D01*
X175683239Y-60805433D01*
X175715478Y-60795302D01*
X175770196Y-60789723D01*
X175851289Y-60787635D01*
X175962656Y-60787981D01*
X176108198Y-60789700D01*
X176151731Y-60790237D01*
X176301795Y-60792172D01*
X176399958Y-60793904D01*
X176417940Y-60794222D01*
X176505321Y-60796873D01*
D13*
%TO.C,U11*%
X208415000Y-76055000D02*
X208415000Y-77955000D01*
X210735000Y-77455000D02*
X210735000Y-76055000D01*
%TO.C,D5*%
X207475000Y-82110000D02*
X206825000Y-82110000D01*
X207475000Y-82110000D02*
X208125000Y-82110000D01*
X207475000Y-78990000D02*
X205800000Y-78990000D01*
X207475000Y-78990000D02*
X208125000Y-78990000D01*
%TD*%
M02*
