%TF.GenerationSoftware,KiCad,Pcbnew,6.0.11-2627ca5db0~126~ubuntu22.04.1*%
%TF.CreationDate,2023-03-03T15:37:03-05:00*%
%TF.ProjectId,lin-fan-control,6c696e2d-6661-46e2-9d63-6f6e74726f6c,1.0*%
%TF.SameCoordinates,Original*%
%TF.FileFunction,Copper,L1,Top*%
%TF.FilePolarity,Positive*%
%FSLAX46Y46*%
G04 Gerber Fmt 4.6, Leading zero omitted, Abs format (unit mm)*
G04 Created by KiCad (PCBNEW 6.0.11-2627ca5db0~126~ubuntu22.04.1) date 2023-03-03 15:37:03*
%MOMM*%
%LPD*%
G01*
G04 APERTURE LIST*
G04 Aperture macros list*
%AMRoundRect*
0 Rectangle with rounded corners*
0 $1 Rounding radius*
0 $2 $3 $4 $5 $6 $7 $8 $9 X,Y pos of 4 corners*
0 Add a 4 corners polygon primitive as box body*
4,1,4,$2,$3,$4,$5,$6,$7,$8,$9,$2,$3,0*
0 Add four circle primitives for the rounded corners*
1,1,$1+$1,$2,$3*
1,1,$1+$1,$4,$5*
1,1,$1+$1,$6,$7*
1,1,$1+$1,$8,$9*
0 Add four rect primitives between the rounded corners*
20,1,$1+$1,$2,$3,$4,$5,0*
20,1,$1+$1,$4,$5,$6,$7,0*
20,1,$1+$1,$6,$7,$8,$9,0*
20,1,$1+$1,$8,$9,$2,$3,0*%
G04 Aperture macros list end*
%TA.AperFunction,SMDPad,CuDef*%
%ADD10RoundRect,0.250000X-0.450000X0.350000X-0.450000X-0.350000X0.450000X-0.350000X0.450000X0.350000X0*%
%TD*%
%TA.AperFunction,SMDPad,CuDef*%
%ADD11RoundRect,0.150000X0.150000X-0.587500X0.150000X0.587500X-0.150000X0.587500X-0.150000X-0.587500X0*%
%TD*%
%TA.AperFunction,ComponentPad*%
%ADD12O,1.700000X1.700000*%
%TD*%
%TA.AperFunction,ComponentPad*%
%ADD13R,1.700000X1.700000*%
%TD*%
%TA.AperFunction,ComponentPad*%
%ADD14R,1.879600X1.879600*%
%TD*%
%TA.AperFunction,ComponentPad*%
%ADD15C,1.879600*%
%TD*%
%TA.AperFunction,SMDPad,CuDef*%
%ADD16RoundRect,0.250000X0.400000X1.450000X-0.400000X1.450000X-0.400000X-1.450000X0.400000X-1.450000X0*%
%TD*%
%TA.AperFunction,SMDPad,CuDef*%
%ADD17RoundRect,0.250000X-0.475000X0.337500X-0.475000X-0.337500X0.475000X-0.337500X0.475000X0.337500X0*%
%TD*%
%TA.AperFunction,SMDPad,CuDef*%
%ADD18RoundRect,0.250000X0.537500X0.425000X-0.537500X0.425000X-0.537500X-0.425000X0.537500X-0.425000X0*%
%TD*%
%TA.AperFunction,SMDPad,CuDef*%
%ADD19RoundRect,0.250000X-0.337500X-0.475000X0.337500X-0.475000X0.337500X0.475000X-0.337500X0.475000X0*%
%TD*%
%TA.AperFunction,SMDPad,CuDef*%
%ADD20RoundRect,0.250000X0.412500X1.100000X-0.412500X1.100000X-0.412500X-1.100000X0.412500X-1.100000X0*%
%TD*%
%TA.AperFunction,SMDPad,CuDef*%
%ADD21R,0.254000X0.609600*%
%TD*%
%TA.AperFunction,SMDPad,CuDef*%
%ADD22R,2.006600X1.600200*%
%TD*%
%TA.AperFunction,SMDPad,CuDef*%
%ADD23RoundRect,0.150000X0.150000X-0.825000X0.150000X0.825000X-0.150000X0.825000X-0.150000X-0.825000X0*%
%TD*%
%TA.AperFunction,ComponentPad*%
%ADD24R,2.100000X2.100000*%
%TD*%
%TA.AperFunction,ComponentPad*%
%ADD25C,2.100000*%
%TD*%
%TA.AperFunction,SMDPad,CuDef*%
%ADD26RoundRect,0.100000X-0.637500X-0.100000X0.637500X-0.100000X0.637500X0.100000X-0.637500X0.100000X0*%
%TD*%
%TA.AperFunction,SMDPad,CuDef*%
%ADD27RoundRect,0.250000X-0.350000X-0.450000X0.350000X-0.450000X0.350000X0.450000X-0.350000X0.450000X0*%
%TD*%
%TA.AperFunction,SMDPad,CuDef*%
%ADD28RoundRect,0.250000X0.337500X0.475000X-0.337500X0.475000X-0.337500X-0.475000X0.337500X-0.475000X0*%
%TD*%
%TA.AperFunction,SMDPad,CuDef*%
%ADD29R,1.200000X2.200000*%
%TD*%
%TA.AperFunction,SMDPad,CuDef*%
%ADD30R,5.800000X6.400000*%
%TD*%
%TA.AperFunction,SMDPad,CuDef*%
%ADD31RoundRect,0.250000X0.450000X-0.350000X0.450000X0.350000X-0.450000X0.350000X-0.450000X-0.350000X0*%
%TD*%
%TA.AperFunction,SMDPad,CuDef*%
%ADD32RoundRect,0.250000X0.450000X-0.325000X0.450000X0.325000X-0.450000X0.325000X-0.450000X-0.325000X0*%
%TD*%
%TA.AperFunction,SMDPad,CuDef*%
%ADD33RoundRect,0.150000X0.150000X-0.512500X0.150000X0.512500X-0.150000X0.512500X-0.150000X-0.512500X0*%
%TD*%
%TA.AperFunction,SMDPad,CuDef*%
%ADD34R,0.400000X1.500000*%
%TD*%
%TA.AperFunction,SMDPad,CuDef*%
%ADD35RoundRect,0.150000X-0.587500X-0.150000X0.587500X-0.150000X0.587500X0.150000X-0.587500X0.150000X0*%
%TD*%
%TA.AperFunction,ViaPad*%
%ADD36C,0.800000*%
%TD*%
%TA.AperFunction,Conductor*%
%ADD37C,0.250000*%
%TD*%
%TA.AperFunction,Conductor*%
%ADD38C,1.200000*%
%TD*%
G04 APERTURE END LIST*
D10*
%TO.P,R25,1*%
%TO.N,+5V*%
X206460000Y-66070000D03*
%TO.P,R25,2*%
%TO.N,Net-(J4-Pad3)*%
X206460000Y-68070000D03*
%TD*%
D11*
%TO.P,U4,1,GND*%
%TO.N,GND*%
X190810000Y-80365000D03*
%TO.P,U4,2,VO*%
%TO.N,+3V3*%
X192710000Y-80365000D03*
%TO.P,U4,3,VI*%
%TO.N,+5V*%
X191760000Y-78490000D03*
%TD*%
D12*
%TO.P,U3,4,EN*%
%TO.N,unconnected-(U3-Pad4)*%
X185450000Y-67730000D03*
%TO.P,U3,3,Vin*%
%TO.N,+12V*%
X185450000Y-70270000D03*
%TO.P,U3,2,GND*%
%TO.N,GND*%
X185450000Y-72810000D03*
D13*
%TO.P,U3,1,Vout*%
%TO.N,+5V*%
X185450000Y-75350000D03*
%TD*%
D14*
%TO.P,J1,1,DTR*%
%TO.N,unconnected-(J1-Pad1)*%
X226520000Y-91800000D03*
D15*
%TO.P,J1,2,RXD*%
%TO.N,UPDI*%
X223980000Y-91800000D03*
%TO.P,J1,3,TXD*%
%TO.N,Net-(R6-Pad2)*%
X221440000Y-91800000D03*
%TO.P,J1,4,VCC*%
%TO.N,Net-(JP1-Pad1)*%
X218900000Y-91800000D03*
%TO.P,J1,5,CTS*%
%TO.N,unconnected-(J1-Pad5)*%
X216360000Y-91800000D03*
%TO.P,J1,6,GND*%
%TO.N,GND*%
X213820000Y-91800000D03*
%TD*%
D16*
%TO.P,F1,1*%
%TO.N,+BATT*%
X219800000Y-63370000D03*
%TO.P,F1,2*%
%TO.N,+12V*%
X215350000Y-63370000D03*
%TD*%
D17*
%TO.P,C7,1*%
%TO.N,+5V*%
X195110000Y-78680000D03*
%TO.P,C7,2*%
%TO.N,GND*%
X195110000Y-80755000D03*
%TD*%
%TO.P,C6,1*%
%TO.N,+3V3*%
X192770000Y-83170000D03*
%TO.P,C6,2*%
%TO.N,GND*%
X192770000Y-85245000D03*
%TD*%
D18*
%TO.P,C5,1*%
%TO.N,+5V*%
X181640000Y-78610000D03*
%TO.P,C5,2*%
%TO.N,GND*%
X178765000Y-78610000D03*
%TD*%
D19*
%TO.P,C4,1*%
%TO.N,+5V*%
X183875000Y-78590000D03*
%TO.P,C4,2*%
%TO.N,GND*%
X185950000Y-78590000D03*
%TD*%
D20*
%TO.P,C3,1*%
%TO.N,+12V*%
X212760000Y-63430000D03*
%TO.P,C3,2*%
%TO.N,GND*%
X209635000Y-63430000D03*
%TD*%
D21*
%TO.P,U8,1,~{TCRIT}*%
%TO.N,~{TCRIT}*%
X217375001Y-83953000D03*
%TO.P,U8,2,VDD*%
%TO.N,+3V3*%
X216874999Y-83953000D03*
%TO.P,U8,3,D+*%
%TO.N,Net-(J5-Pad1)*%
X216375000Y-83953000D03*
%TO.P,U8,4,D-*%
%TO.N,Net-(J5-Pad2)*%
X215875001Y-83953000D03*
%TO.P,U8,5,PWM*%
%TO.N,PWM*%
X215374999Y-83953000D03*
%TO.P,U8,6,GND*%
%TO.N,GND*%
X215374999Y-86747000D03*
%TO.P,U8,7,~{ALERT}*%
%TO.N,~{ALERT}*%
X215875001Y-86747000D03*
%TO.P,U8,8,TACH*%
%TO.N,TACH*%
X216375000Y-86747000D03*
%TO.P,U8,9,SMBDAT*%
%TO.N,SDA*%
X216874999Y-86747000D03*
%TO.P,U8,10,SMBCLK*%
%TO.N,SCL*%
X217375001Y-86747000D03*
D22*
%TO.P,U8,11,DAP*%
%TO.N,GND*%
X216375000Y-85350000D03*
%TD*%
D13*
%TO.P,J2,1,Pin_1*%
%TO.N,GND*%
X180150000Y-82100000D03*
D12*
%TO.P,J2,2,Pin_2*%
%TO.N,+5V*%
X182690000Y-82100000D03*
%TO.P,J2,3,Pin_3*%
%TO.N,SDA5V*%
X185230000Y-82100000D03*
%TO.P,J2,4,Pin_4*%
%TO.N,SCL5V*%
X187770000Y-82100000D03*
%TD*%
D23*
%TO.P,U1,1,RXD*%
%TO.N,RXD*%
X196670000Y-89800000D03*
%TO.P,U1,2,~{SLP}*%
%TO.N,~{LIN_SLP}*%
X197940000Y-89800000D03*
%TO.P,U1,3,~{WAKE}*%
%TO.N,~{LIN_WAKE}*%
X199210000Y-89800000D03*
%TO.P,U1,4,TXD*%
%TO.N,TXD*%
X200480000Y-89800000D03*
%TO.P,U1,5,GND*%
%TO.N,GND*%
X200480000Y-84850000D03*
%TO.P,U1,6,LIN*%
%TO.N,LIN*%
X199210000Y-84850000D03*
%TO.P,U1,7,VBAT*%
%TO.N,+12V*%
X197940000Y-84850000D03*
%TO.P,U1,8,INH*%
%TO.N,unconnected-(U1-Pad8)*%
X196670000Y-84850000D03*
%TD*%
D11*
%TO.P,Q1,1,G*%
%TO.N,SCL*%
X187400000Y-88475000D03*
%TO.P,Q1,2,S*%
X189300000Y-88475000D03*
%TO.P,Q1,3,D*%
%TO.N,SCL5V*%
X188350000Y-86600000D03*
%TD*%
D24*
%TO.P,J5,1,Pin_1*%
%TO.N,Net-(J5-Pad1)*%
X224675000Y-85450000D03*
D25*
%TO.P,J5,2,Pin_2*%
%TO.N,Net-(J5-Pad2)*%
X224675000Y-87990000D03*
%TD*%
D26*
%TO.P,U2,1,VCC*%
%TO.N,+3V3*%
X203237500Y-91975000D03*
%TO.P,U2,2,PA4*%
%TO.N,~{LIN_SLP}*%
X203237500Y-92625000D03*
%TO.P,U2,3,PA5*%
%TO.N,~{LIN_WAKE}*%
X203237500Y-93275000D03*
%TO.P,U2,4,PA6*%
%TO.N,unconnected-(U2-Pad4)*%
X203237500Y-93925000D03*
%TO.P,U2,5,PA7*%
%TO.N,Net-(R5-Pad1)*%
X203237500Y-94575000D03*
%TO.P,U2,6,PB3*%
%TO.N,RXD*%
X203237500Y-95225000D03*
%TO.P,U2,7,PB2*%
%TO.N,TXD*%
X203237500Y-95875000D03*
%TO.P,U2,8,PB1*%
%TO.N,SDA*%
X208962500Y-95875000D03*
%TO.P,U2,9,PB0*%
%TO.N,SCL*%
X208962500Y-95225000D03*
%TO.P,U2,10,~{RESET}/PA0*%
%TO.N,UPDI*%
X208962500Y-94575000D03*
%TO.P,U2,11,PA1*%
%TO.N,~{ALERT}*%
X208962500Y-93925000D03*
%TO.P,U2,12,PA2*%
%TO.N,~{TCRIT}*%
X208962500Y-93275000D03*
%TO.P,U2,13,PA3*%
%TO.N,~{RESET}*%
X208962500Y-92625000D03*
%TO.P,U2,14,GND*%
%TO.N,GND*%
X208962500Y-91975000D03*
%TD*%
D27*
%TO.P,R1,1*%
%TO.N,+3V3*%
X194630000Y-92330000D03*
%TO.P,R1,2*%
%TO.N,RXD*%
X196630000Y-92330000D03*
%TD*%
D19*
%TO.P,C12,1*%
%TO.N,Net-(C12-Pad1)*%
X210525000Y-81775000D03*
%TO.P,C12,2*%
%TO.N,PWMFAN-*%
X212600000Y-81775000D03*
%TD*%
D28*
%TO.P,C1,1*%
%TO.N,GND*%
X205300000Y-89775000D03*
%TO.P,C1,2*%
%TO.N,+3V3*%
X203225000Y-89775000D03*
%TD*%
D29*
%TO.P,Q4,1,G*%
%TO.N,Net-(Q3-Pad3)*%
X212670000Y-77825000D03*
D30*
%TO.P,Q4,2,D*%
%TO.N,FANPWM+*%
X214950000Y-71525000D03*
D29*
%TO.P,Q4,3,S*%
%TO.N,+12V*%
X217230000Y-77825000D03*
%TD*%
D31*
%TO.P,R5,1*%
%TO.N,Net-(R5-Pad1)*%
X204025000Y-85350000D03*
%TO.P,R5,2*%
%TO.N,Net-(D1-Pad2)*%
X204025000Y-83350000D03*
%TD*%
%TO.P,R24,1*%
%TO.N,Net-(R24-Pad1)*%
X210550000Y-85800000D03*
%TO.P,R24,2*%
%TO.N,Net-(C12-Pad1)*%
X210550000Y-83800000D03*
%TD*%
D11*
%TO.P,Q3,1,G*%
%TO.N,Net-(Q3-Pad1)*%
X214075000Y-80700000D03*
%TO.P,Q3,2,S*%
%TO.N,GND*%
X215975000Y-80700000D03*
%TO.P,Q3,3,D*%
%TO.N,Net-(Q3-Pad3)*%
X215025000Y-78825000D03*
%TD*%
D32*
%TO.P,D1,1,K*%
%TO.N,GND*%
X206450000Y-85350000D03*
%TO.P,D1,2,A*%
%TO.N,Net-(D1-Pad2)*%
X206450000Y-83300000D03*
%TD*%
D10*
%TO.P,R21,1*%
%TO.N,+12V*%
X219425000Y-77775000D03*
%TO.P,R21,2*%
%TO.N,Net-(Q3-Pad3)*%
X219425000Y-79775000D03*
%TD*%
D24*
%TO.P,J4,1,Pin_1*%
%TO.N,/Fan Control/FAN+*%
X224675000Y-73535000D03*
D25*
%TO.P,J4,2,Pin_2*%
%TO.N,/Fan Control/FAN-*%
X224675000Y-76075000D03*
%TO.P,J4,3,Pin_3*%
%TO.N,Net-(J4-Pad3)*%
X224675000Y-78615000D03*
%TO.P,J4,4,Pin_4*%
%TO.N,PWM*%
X224675000Y-81155000D03*
%TD*%
D17*
%TO.P,C14,1*%
%TO.N,Net-(C14-Pad1)*%
X203875000Y-79400000D03*
%TO.P,C14,2*%
%TO.N,GND*%
X203875000Y-81475000D03*
%TD*%
D24*
%TO.P,J3,1,Pin_1*%
%TO.N,+BATT*%
X224700000Y-64000000D03*
D25*
%TO.P,J3,2,Pin_2*%
%TO.N,GND*%
X224700000Y-66540000D03*
%TO.P,J3,3,Pin_3*%
%TO.N,LIN*%
X224700000Y-69080000D03*
%TD*%
D11*
%TO.P,Q2,1,G*%
%TO.N,SDA*%
X183550000Y-88525000D03*
%TO.P,Q2,2,S*%
X185450000Y-88525000D03*
%TO.P,Q2,3,D*%
%TO.N,SDA5V*%
X184500000Y-86650000D03*
%TD*%
D33*
%TO.P,U7,1*%
%TO.N,Net-(R26-Pad1)*%
X208750000Y-90025000D03*
%TO.P,U7,2,V-*%
%TO.N,GND*%
X209700000Y-90025000D03*
%TO.P,U7,3,+*%
X210650000Y-90025000D03*
%TO.P,U7,4,-*%
%TO.N,Net-(R24-Pad1)*%
X210650000Y-87750000D03*
%TO.P,U7,5,~{DISABLE}*%
%TO.N,+5V*%
X209700000Y-87750000D03*
%TO.P,U7,6,V+*%
X208750000Y-87750000D03*
%TD*%
D27*
%TO.P,R2,1*%
%TO.N,+3V3*%
X198675000Y-93775000D03*
%TO.P,R2,2*%
%TO.N,TXD*%
X200675000Y-93775000D03*
%TD*%
D31*
%TO.P,R28,1*%
%TO.N,+5V*%
X200700000Y-81350000D03*
%TO.P,R28,2*%
%TO.N,Net-(C14-Pad1)*%
X200700000Y-79350000D03*
%TD*%
D34*
%TO.P,U11,1*%
%TO.N,N/C*%
X208925000Y-78085000D03*
%TO.P,U11,2*%
%TO.N,Net-(D5-Pad3)*%
X209575000Y-78085000D03*
%TO.P,U11,3,GND*%
%TO.N,GND*%
X210225000Y-78085000D03*
%TO.P,U11,4*%
%TO.N,TACH*%
X210225000Y-75425000D03*
%TO.P,U11,5,VCC*%
%TO.N,+3V3*%
X208925000Y-75425000D03*
%TD*%
D35*
%TO.P,D5,1*%
%TO.N,TACHa*%
X206537500Y-79600000D03*
%TO.P,D5,2*%
%TO.N,Net-(D5-Pad2)*%
X206537500Y-81500000D03*
%TO.P,D5,3*%
%TO.N,Net-(D5-Pad3)*%
X208412500Y-80550000D03*
%TD*%
D36*
%TO.N,+3V3*%
X193110000Y-92250000D03*
%TO.N,GND*%
X192820000Y-86600000D03*
%TO.N,+3V3*%
X192770000Y-81900000D03*
%TO.N,GND*%
X195160000Y-82000000D03*
%TO.N,+5V*%
X193410000Y-78680000D03*
%TO.N,GND*%
X189540000Y-79710000D03*
X187560000Y-79280000D03*
X177010000Y-78540000D03*
%TO.N,+5V*%
X181580000Y-76810000D03*
X206410000Y-64370000D03*
%TO.N,GND*%
X208080000Y-63430000D03*
%TO.N,+3V3*%
X225910000Y-96680000D03*
%TO.N,Net-(JP1-Pad1)*%
X221660000Y-96620000D03*
%TO.N,UPDI*%
X212460000Y-94990000D03*
%TO.N,SDA*%
X185425000Y-90325000D03*
%TO.N,GND*%
X210575000Y-91750000D03*
X210975000Y-78125000D03*
X207550000Y-91950000D03*
X202500000Y-82175000D03*
X213187872Y-83098030D03*
X200500000Y-82850000D03*
X216375000Y-85350000D03*
X207600000Y-86525000D03*
X206500000Y-90050000D03*
%TO.N,+5V*%
X202250000Y-80775000D03*
X197650000Y-78800000D03*
X207500000Y-87750000D03*
%TO.N,LIN*%
X199200000Y-81575000D03*
%TO.N,TXD*%
X203290000Y-97620000D03*
X200550000Y-91800000D03*
%TO.N,~{LIN_SLP}*%
X197950000Y-91675000D03*
X205075000Y-92075000D03*
%TO.N,~{LIN_WAKE}*%
X204925000Y-93300000D03*
X199225000Y-91625000D03*
%TO.N,+12V*%
X218175000Y-67000000D03*
X216350000Y-67250000D03*
%TO.N,SDA*%
X216911613Y-88128423D03*
X206675000Y-96775000D03*
%TO.N,SCL*%
X217900000Y-87900000D03*
X206290576Y-95852382D03*
X187450000Y-90425000D03*
%TO.N,+3V3*%
X194225000Y-89700000D03*
X197475000Y-93675000D03*
X204550000Y-72450000D03*
X208650000Y-73750000D03*
X229175000Y-84600000D03*
X210750000Y-96875000D03*
X202850000Y-88175000D03*
X217450201Y-82225201D03*
X207433773Y-84285862D03*
X181950000Y-90050000D03*
X190550000Y-89975000D03*
%TO.N,Net-(R5-Pad1)*%
X204875000Y-94975000D03*
X203700000Y-86825000D03*
%TO.N,PWMFAN-*%
X212625000Y-80000000D03*
%TO.N,Net-(C14-Pad1)*%
X197350000Y-80175000D03*
%TO.N,FANPWM+*%
X214950000Y-71525000D03*
%TO.N,TACHa*%
X207150000Y-75200000D03*
%TO.N,Net-(D5-Pad2)*%
X205200000Y-80500000D03*
%TO.N,Net-(J4-Pad3)*%
X206475000Y-69500000D03*
%TO.N,PWM*%
X214475000Y-82875000D03*
%TO.N,Net-(J5-Pad1)*%
X216450000Y-82225000D03*
%TO.N,Net-(J5-Pad2)*%
X215351702Y-82256133D03*
%TO.N,Net-(Q3-Pad1)*%
X214075000Y-79075000D03*
X219225000Y-81975000D03*
%TO.N,Net-(R24-Pad1)*%
X211950000Y-88250000D03*
%TO.N,Net-(R26-Pad1)*%
X207400000Y-89400000D03*
%TO.N,~{TCRIT}*%
X211475000Y-92925000D03*
X218550000Y-82750000D03*
%TO.N,~{ALERT}*%
X206187299Y-94687299D03*
%TO.N,TACH*%
X214600000Y-88850000D03*
X216275000Y-88900000D03*
X210175000Y-73400000D03*
%TO.N,Net-(U10-Pad2)*%
X205200000Y-82100000D03*
X202300000Y-78650000D03*
%TD*%
D37*
%TO.N,+3V3*%
X193190000Y-92330000D02*
X193110000Y-92250000D01*
X194630000Y-92330000D02*
X193190000Y-92330000D01*
%TO.N,GND*%
X192770000Y-86550000D02*
X192820000Y-86600000D01*
X192770000Y-85245000D02*
X192770000Y-86550000D01*
%TO.N,+3V3*%
X192770000Y-83170000D02*
X192770000Y-80425000D01*
X192770000Y-80425000D02*
X192710000Y-80365000D01*
%TO.N,GND*%
X195110000Y-81950000D02*
X195160000Y-82000000D01*
X195110000Y-80755000D02*
X195110000Y-81950000D01*
%TO.N,+5V*%
X191760000Y-78490000D02*
X191950000Y-78680000D01*
X191950000Y-78680000D02*
X195110000Y-78680000D01*
%TO.N,GND*%
X190195000Y-80365000D02*
X189540000Y-79710000D01*
X190810000Y-80365000D02*
X190195000Y-80365000D01*
X186870000Y-78590000D02*
X187560000Y-79280000D01*
X185950000Y-78590000D02*
X186870000Y-78590000D01*
X177080000Y-78610000D02*
X177010000Y-78540000D01*
X178765000Y-78610000D02*
X177080000Y-78610000D01*
%TO.N,+5V*%
X181640000Y-76870000D02*
X181580000Y-76810000D01*
X181640000Y-78610000D02*
X181640000Y-76870000D01*
X181640000Y-78610000D02*
X183855000Y-78610000D01*
X183855000Y-78610000D02*
X183875000Y-78590000D01*
X206460000Y-64420000D02*
X206410000Y-64370000D01*
X206460000Y-66070000D02*
X206460000Y-64420000D01*
X202250000Y-80775000D02*
X201675000Y-81350000D01*
X201675000Y-81350000D02*
X200700000Y-81350000D01*
D38*
%TO.N,GND*%
X208080000Y-63430000D02*
X209635000Y-63430000D01*
%TO.N,+12V*%
X215350000Y-63370000D02*
X212820000Y-63370000D01*
D37*
X212820000Y-63370000D02*
X212760000Y-63430000D01*
D38*
%TO.N,+BATT*%
X224700000Y-64000000D02*
X220430000Y-64000000D01*
X220430000Y-64000000D02*
X219800000Y-63370000D01*
D37*
%TO.N,UPDI*%
X212045000Y-94575000D02*
X208962500Y-94575000D01*
X212460000Y-94990000D02*
X212045000Y-94575000D01*
%TO.N,TXD*%
X203290000Y-97620000D02*
X203290000Y-95902500D01*
X203290000Y-95902500D02*
X203262500Y-95875000D01*
%TO.N,GND*%
X203200000Y-81475000D02*
X202500000Y-82175000D01*
X208987500Y-91975000D02*
X207575000Y-91975000D01*
X210650000Y-90025000D02*
X210650000Y-91675000D01*
X200480000Y-84850000D02*
X200480000Y-82870000D01*
X215374999Y-86350001D02*
X216375000Y-85350000D01*
X206225000Y-89775000D02*
X205300000Y-89775000D01*
X210225000Y-78085000D02*
X210935000Y-78085000D01*
X203875000Y-81475000D02*
X203200000Y-81475000D01*
X207575000Y-91975000D02*
X207550000Y-91950000D01*
X210935000Y-78085000D02*
X210975000Y-78125000D01*
X206500000Y-90050000D02*
X206225000Y-89775000D01*
X215585902Y-80700000D02*
X213187872Y-83098030D01*
X206450000Y-85350000D02*
X206450000Y-85375000D01*
X215374999Y-86747000D02*
X215374999Y-86350001D01*
X210650000Y-90025000D02*
X209700000Y-90025000D01*
X210650000Y-91675000D02*
X210575000Y-91750000D01*
X200480000Y-82870000D02*
X200500000Y-82850000D01*
X215975000Y-80700000D02*
X215585902Y-80700000D01*
X206450000Y-85375000D02*
X207600000Y-86525000D01*
%TO.N,+5V*%
X208750000Y-87750000D02*
X207500000Y-87750000D01*
X208750000Y-87750000D02*
X209700000Y-87750000D01*
%TO.N,LIN*%
X199210000Y-84850000D02*
X199210000Y-81585000D01*
X199210000Y-81585000D02*
X199200000Y-81575000D01*
%TO.N,TXD*%
X200550000Y-91800000D02*
X200550000Y-89870000D01*
X200675000Y-91925000D02*
X200675000Y-93775000D01*
X200550000Y-91800000D02*
X200675000Y-91925000D01*
X200550000Y-89870000D02*
X200480000Y-89800000D01*
%TO.N,RXD*%
X196670000Y-93130000D02*
X196670000Y-89800000D01*
X197450000Y-95225000D02*
X196670000Y-94445000D01*
X203262500Y-95225000D02*
X197450000Y-95225000D01*
X196670000Y-94445000D02*
X196670000Y-93130000D01*
%TO.N,~{LIN_SLP}*%
X197950000Y-91675000D02*
X197940000Y-91665000D01*
X197940000Y-91665000D02*
X197940000Y-89800000D01*
X203262500Y-92625000D02*
X204525000Y-92625000D01*
X204525000Y-92625000D02*
X205075000Y-92075000D01*
X205075000Y-92075000D02*
X205325305Y-92075000D01*
%TO.N,~{LIN_WAKE}*%
X199225000Y-91625000D02*
X199225000Y-89815000D01*
X203237500Y-93275000D02*
X204900000Y-93275000D01*
X199225000Y-89815000D02*
X199210000Y-89800000D01*
X204900000Y-93275000D02*
X204925000Y-93300000D01*
%TO.N,unconnected-(J1-Pad5)*%
X216400000Y-91840000D02*
X216360000Y-91800000D01*
%TO.N,SDA*%
X185425000Y-88550000D02*
X185450000Y-88525000D01*
X216874999Y-86747000D02*
X216874999Y-88091809D01*
X216874999Y-88091809D02*
X216911613Y-88128423D01*
X208987500Y-95875000D02*
X207575000Y-95875000D01*
X207575000Y-95875000D02*
X206675000Y-96775000D01*
X185450000Y-88525000D02*
X183550000Y-88525000D01*
X185425000Y-90325000D02*
X185425000Y-88550000D01*
%TO.N,SCL*%
X187450000Y-88525000D02*
X187400000Y-88475000D01*
X187400000Y-88475000D02*
X189300000Y-88475000D01*
X208987500Y-95225000D02*
X206917958Y-95225000D01*
X206917958Y-95225000D02*
X206290576Y-95852382D01*
X187450000Y-90425000D02*
X187450000Y-88525000D01*
X217375001Y-87375001D02*
X217900000Y-87900000D01*
X217375001Y-86747000D02*
X217375001Y-87375001D01*
%TO.N,+3V3*%
X198675000Y-93775000D02*
X197575000Y-93775000D01*
X208925000Y-75425000D02*
X208925000Y-74025000D01*
X203225000Y-89775000D02*
X203225000Y-91937500D01*
X203225000Y-89775000D02*
X203225000Y-88550000D01*
X217450201Y-82225201D02*
X217450201Y-82250104D01*
X203225000Y-91937500D02*
X203262500Y-91975000D01*
X203225000Y-88550000D02*
X202850000Y-88175000D01*
X197575000Y-93775000D02*
X197475000Y-93675000D01*
X217450201Y-82250104D02*
X216874999Y-82825306D01*
X208925000Y-74025000D02*
X208650000Y-73750000D01*
X216874999Y-82825306D02*
X216874999Y-83953000D01*
%TO.N,SCL5V*%
X188350000Y-86600000D02*
X188350000Y-82680000D01*
X188350000Y-82680000D02*
X187770000Y-82100000D01*
%TO.N,SDA5V*%
X184500000Y-82830000D02*
X185230000Y-82100000D01*
X184500000Y-86650000D02*
X184500000Y-82830000D01*
%TO.N,Net-(R5-Pad1)*%
X204475000Y-94575000D02*
X204875000Y-94975000D01*
X204025000Y-86500000D02*
X203700000Y-86825000D01*
X203237500Y-94575000D02*
X204475000Y-94575000D01*
X204025000Y-85350000D02*
X204025000Y-86500000D01*
%TO.N,Net-(D1-Pad2)*%
X204025000Y-83350000D02*
X206400000Y-83350000D01*
X206400000Y-83350000D02*
X206450000Y-83300000D01*
%TO.N,Net-(C12-Pad1)*%
X210550000Y-83800000D02*
X210550000Y-81800000D01*
X210550000Y-81800000D02*
X210525000Y-81775000D01*
%TO.N,PWMFAN-*%
X212625000Y-80000000D02*
X212600000Y-80025000D01*
X212600000Y-80025000D02*
X212600000Y-81775000D01*
%TO.N,Net-(C14-Pad1)*%
X199875000Y-80175000D02*
X200700000Y-79350000D01*
X201650000Y-79350000D02*
X202150000Y-79850000D01*
X197350000Y-80175000D02*
X199875000Y-80175000D01*
X202150000Y-79850000D02*
X203425000Y-79850000D01*
X200700000Y-79350000D02*
X201650000Y-79350000D01*
X203425000Y-79850000D02*
X203875000Y-79400000D01*
%TO.N,TACHa*%
X207150000Y-77125000D02*
X206537500Y-77737500D01*
X207150000Y-75200000D02*
X207150000Y-77125000D01*
X206537500Y-77737500D02*
X206537500Y-79600000D01*
%TO.N,Net-(D5-Pad2)*%
X205200000Y-81025000D02*
X205200000Y-80500000D01*
X206537500Y-81500000D02*
X205675000Y-81500000D01*
X205675000Y-81500000D02*
X205200000Y-81025000D01*
%TO.N,Net-(D5-Pad3)*%
X209575000Y-78085000D02*
X209575000Y-80325000D01*
X209575000Y-80325000D02*
X209350000Y-80550000D01*
X209350000Y-80550000D02*
X208412500Y-80550000D01*
%TO.N,Net-(J4-Pad3)*%
X206525000Y-68250000D02*
X206525000Y-69450000D01*
X206525000Y-69450000D02*
X206475000Y-69500000D01*
%TO.N,PWM*%
X215374999Y-83274999D02*
X215175000Y-83075000D01*
X215175000Y-83075000D02*
X214975000Y-82875000D01*
X214975000Y-82875000D02*
X214475000Y-82875000D01*
X215374999Y-83953000D02*
X215374999Y-83274999D01*
%TO.N,Net-(J5-Pad1)*%
X216375000Y-83953000D02*
X216375000Y-82300000D01*
X216375000Y-82300000D02*
X216450000Y-82225000D01*
%TO.N,Net-(J5-Pad2)*%
X215875001Y-82779432D02*
X215351702Y-82256133D01*
X215875001Y-83953000D02*
X215875001Y-82779432D01*
%TO.N,Net-(Q3-Pad1)*%
X214075000Y-80700000D02*
X214075000Y-79075000D01*
%TO.N,Net-(Q3-Pad3)*%
X215025000Y-78825000D02*
X214025000Y-77825000D01*
X219425000Y-79775000D02*
X216475000Y-79775000D01*
X216475000Y-79775000D02*
X215525000Y-78825000D01*
X214025000Y-77825000D02*
X212670000Y-77825000D01*
X215525000Y-78825000D02*
X215025000Y-78825000D01*
%TO.N,Net-(R24-Pad1)*%
X211450000Y-87750000D02*
X211950000Y-88250000D01*
X210650000Y-85900000D02*
X210550000Y-85800000D01*
X210650000Y-87750000D02*
X211450000Y-87750000D01*
X210650000Y-87750000D02*
X210650000Y-85900000D01*
%TO.N,Net-(R26-Pad1)*%
X208025000Y-90025000D02*
X207400000Y-89400000D01*
X208750000Y-90025000D02*
X208025000Y-90025000D01*
%TO.N,~{TCRIT}*%
X211125000Y-93275000D02*
X211475000Y-92925000D01*
X217375001Y-83324999D02*
X217375001Y-83953000D01*
X208962500Y-93275000D02*
X211125000Y-93275000D01*
X218550000Y-82750000D02*
X217950000Y-82750000D01*
X217950000Y-82750000D02*
X217375001Y-83324999D01*
%TO.N,~{ALERT}*%
X215084800Y-93065200D02*
X215084800Y-90690200D01*
X215550000Y-87828335D02*
X215875001Y-87503334D01*
X215875001Y-87503334D02*
X215875001Y-86747000D01*
X208962500Y-93925000D02*
X214225000Y-93925000D01*
X206949598Y-93925000D02*
X208962500Y-93925000D01*
X215084800Y-90690200D02*
X215550000Y-90225000D01*
X214225000Y-93925000D02*
X215084800Y-93065200D01*
X206187299Y-94687299D02*
X206949598Y-93925000D01*
X215550000Y-90225000D02*
X215550000Y-87828335D01*
%TO.N,TACH*%
X216375000Y-86747000D02*
X216375000Y-87639731D01*
X216375000Y-87639731D02*
X216186613Y-87828118D01*
X210175000Y-73400000D02*
X210175000Y-75375000D01*
X216186613Y-87828118D02*
X216186613Y-88811613D01*
X210175000Y-75375000D02*
X210225000Y-75425000D01*
X216186613Y-88811613D02*
X216275000Y-88900000D01*
%TD*%
%TA.AperFunction,Conductor*%
%TO.N,+12V*%
G36*
X230065621Y-58948502D02*
G01*
X230112114Y-59002158D01*
X230123500Y-59054500D01*
X230123500Y-83967444D01*
X230103498Y-84035565D01*
X230049842Y-84082058D01*
X229979568Y-84092162D01*
X229914988Y-84062668D01*
X229903869Y-84051760D01*
X229786253Y-83921134D01*
X229658267Y-83828146D01*
X229637094Y-83812763D01*
X229637093Y-83812762D01*
X229631752Y-83808882D01*
X229625724Y-83806198D01*
X229625722Y-83806197D01*
X229463319Y-83733891D01*
X229463318Y-83733891D01*
X229457288Y-83731206D01*
X229363888Y-83711353D01*
X229276944Y-83692872D01*
X229276939Y-83692872D01*
X229270487Y-83691500D01*
X229079513Y-83691500D01*
X229073061Y-83692872D01*
X229073056Y-83692872D01*
X228986112Y-83711353D01*
X228892712Y-83731206D01*
X228886682Y-83733891D01*
X228886681Y-83733891D01*
X228724278Y-83806197D01*
X228724276Y-83806198D01*
X228718248Y-83808882D01*
X228712907Y-83812762D01*
X228712906Y-83812763D01*
X228691733Y-83828146D01*
X228563747Y-83921134D01*
X228559329Y-83926041D01*
X228559325Y-83926045D01*
X228479792Y-84014376D01*
X228435960Y-84063056D01*
X228409658Y-84108613D01*
X228348013Y-84215385D01*
X228340473Y-84228444D01*
X228281458Y-84410072D01*
X228280768Y-84416633D01*
X228280768Y-84416635D01*
X228269854Y-84520479D01*
X228261496Y-84600000D01*
X228262186Y-84606565D01*
X228278258Y-84759478D01*
X228281458Y-84789928D01*
X228340473Y-84971556D01*
X228343776Y-84977278D01*
X228343777Y-84977279D01*
X228377686Y-85036010D01*
X228435960Y-85136944D01*
X228563747Y-85278866D01*
X228718248Y-85391118D01*
X228724276Y-85393802D01*
X228724278Y-85393803D01*
X228886681Y-85466109D01*
X228892712Y-85468794D01*
X228986112Y-85488647D01*
X229073056Y-85507128D01*
X229073061Y-85507128D01*
X229079513Y-85508500D01*
X229270487Y-85508500D01*
X229276939Y-85507128D01*
X229276944Y-85507128D01*
X229363888Y-85488647D01*
X229457288Y-85468794D01*
X229463319Y-85466109D01*
X229625722Y-85393803D01*
X229625724Y-85393802D01*
X229631752Y-85391118D01*
X229786253Y-85278866D01*
X229903865Y-85148244D01*
X229964310Y-85111006D01*
X230035294Y-85112358D01*
X230094278Y-85151872D01*
X230122536Y-85217002D01*
X230123500Y-85232556D01*
X230123500Y-100966071D01*
X230103498Y-101034192D01*
X230049842Y-101080685D01*
X229997614Y-101092071D01*
X175783994Y-101140950D01*
X175715855Y-101121009D01*
X175669314Y-101067396D01*
X175657880Y-101015096D01*
X175643832Y-88906042D01*
X175636978Y-82998134D01*
X178791500Y-82998134D01*
X178798255Y-83060316D01*
X178849385Y-83196705D01*
X178936739Y-83313261D01*
X179053295Y-83400615D01*
X179189684Y-83451745D01*
X179251866Y-83458500D01*
X181048134Y-83458500D01*
X181110316Y-83451745D01*
X181246705Y-83400615D01*
X181363261Y-83313261D01*
X181450615Y-83196705D01*
X181455479Y-83183730D01*
X181494598Y-83079382D01*
X181537240Y-83022618D01*
X181603802Y-82997918D01*
X181673150Y-83013126D01*
X181707817Y-83041114D01*
X181736250Y-83073938D01*
X181908126Y-83216632D01*
X182101000Y-83329338D01*
X182309692Y-83409030D01*
X182314760Y-83410061D01*
X182314763Y-83410062D01*
X182383050Y-83423955D01*
X182528597Y-83453567D01*
X182533772Y-83453757D01*
X182533774Y-83453757D01*
X182746673Y-83461564D01*
X182746677Y-83461564D01*
X182751837Y-83461753D01*
X182756957Y-83461097D01*
X182756959Y-83461097D01*
X182968288Y-83434025D01*
X182968289Y-83434025D01*
X182973416Y-83433368D01*
X183004791Y-83423955D01*
X183182429Y-83370661D01*
X183182434Y-83370659D01*
X183187384Y-83369174D01*
X183387994Y-83270896D01*
X183569860Y-83141173D01*
X183576849Y-83134209D01*
X183651560Y-83059758D01*
X183713932Y-83025842D01*
X183784739Y-83031030D01*
X183841500Y-83073676D01*
X183866194Y-83140240D01*
X183866500Y-83149009D01*
X183866500Y-85562550D01*
X183846498Y-85630671D01*
X183835941Y-85643771D01*
X183836011Y-85643825D01*
X183831155Y-85650085D01*
X183825547Y-85655693D01*
X183821511Y-85662517D01*
X183821509Y-85662520D01*
X183774462Y-85742073D01*
X183740855Y-85798899D01*
X183694438Y-85958669D01*
X183693934Y-85965074D01*
X183693933Y-85965079D01*
X183692511Y-85983148D01*
X183691500Y-85995998D01*
X183691500Y-87153000D01*
X183671498Y-87221121D01*
X183617842Y-87267614D01*
X183565500Y-87279000D01*
X183333498Y-87279000D01*
X183331050Y-87279193D01*
X183331042Y-87279193D01*
X183302579Y-87281433D01*
X183302574Y-87281434D01*
X183296169Y-87281938D01*
X183217370Y-87304831D01*
X183144012Y-87326143D01*
X183144010Y-87326144D01*
X183136399Y-87328355D01*
X183129572Y-87332392D01*
X183129573Y-87332392D01*
X183000020Y-87409009D01*
X183000017Y-87409011D01*
X182993193Y-87413047D01*
X182875547Y-87530693D01*
X182871511Y-87537517D01*
X182871509Y-87537520D01*
X182825027Y-87616118D01*
X182790855Y-87673899D01*
X182788644Y-87681510D01*
X182788643Y-87681512D01*
X182783352Y-87699724D01*
X182744438Y-87833669D01*
X182741500Y-87870998D01*
X182741500Y-89179002D01*
X182741693Y-89181450D01*
X182741693Y-89181458D01*
X182742190Y-89187763D01*
X182744438Y-89216331D01*
X182747784Y-89227848D01*
X182747583Y-89298842D01*
X182709031Y-89358460D01*
X182644368Y-89387771D01*
X182574122Y-89377468D01*
X182552727Y-89364939D01*
X182412094Y-89262763D01*
X182412093Y-89262762D01*
X182406752Y-89258882D01*
X182400724Y-89256198D01*
X182400722Y-89256197D01*
X182238319Y-89183891D01*
X182238318Y-89183891D01*
X182232288Y-89181206D01*
X182131741Y-89159834D01*
X182051944Y-89142872D01*
X182051939Y-89142872D01*
X182045487Y-89141500D01*
X181854513Y-89141500D01*
X181848061Y-89142872D01*
X181848056Y-89142872D01*
X181768259Y-89159834D01*
X181667712Y-89181206D01*
X181661682Y-89183891D01*
X181661681Y-89183891D01*
X181499278Y-89256197D01*
X181499276Y-89256198D01*
X181493248Y-89258882D01*
X181338747Y-89371134D01*
X181334326Y-89376044D01*
X181334325Y-89376045D01*
X181219300Y-89503794D01*
X181210960Y-89513056D01*
X181165964Y-89590991D01*
X181137097Y-89640991D01*
X181115473Y-89678444D01*
X181056458Y-89860072D01*
X181036496Y-90050000D01*
X181037186Y-90056565D01*
X181055021Y-90226252D01*
X181056458Y-90239928D01*
X181115473Y-90421556D01*
X181118776Y-90427278D01*
X181118777Y-90427279D01*
X181139215Y-90462679D01*
X181210960Y-90586944D01*
X181215378Y-90591851D01*
X181215379Y-90591852D01*
X181313278Y-90700580D01*
X181338747Y-90728866D01*
X181423263Y-90790271D01*
X181457965Y-90815483D01*
X181493248Y-90841118D01*
X181499276Y-90843802D01*
X181499278Y-90843803D01*
X181661681Y-90916109D01*
X181667712Y-90918794D01*
X181742939Y-90934784D01*
X181848056Y-90957128D01*
X181848061Y-90957128D01*
X181854513Y-90958500D01*
X182045487Y-90958500D01*
X182051939Y-90957128D01*
X182051944Y-90957128D01*
X182157061Y-90934784D01*
X182232288Y-90918794D01*
X182238319Y-90916109D01*
X182400722Y-90843803D01*
X182400724Y-90843802D01*
X182406752Y-90841118D01*
X182442036Y-90815483D01*
X182476737Y-90790271D01*
X182561253Y-90728866D01*
X182586722Y-90700580D01*
X182684621Y-90591852D01*
X182684622Y-90591851D01*
X182689040Y-90586944D01*
X182760785Y-90462679D01*
X182781223Y-90427279D01*
X182781224Y-90427278D01*
X182784527Y-90421556D01*
X182843542Y-90239928D01*
X182844980Y-90226252D01*
X182862814Y-90056565D01*
X182863504Y-90050000D01*
X182843542Y-89860072D01*
X182821246Y-89791452D01*
X182819218Y-89720488D01*
X182855880Y-89659689D01*
X182919592Y-89628364D01*
X182990126Y-89636456D01*
X183005211Y-89644061D01*
X183136399Y-89721645D01*
X183144010Y-89723856D01*
X183144012Y-89723857D01*
X183193200Y-89738147D01*
X183296169Y-89768062D01*
X183302574Y-89768566D01*
X183302579Y-89768567D01*
X183331042Y-89770807D01*
X183331050Y-89770807D01*
X183333498Y-89771000D01*
X183766502Y-89771000D01*
X183768950Y-89770807D01*
X183768958Y-89770807D01*
X183797421Y-89768567D01*
X183797426Y-89768566D01*
X183803831Y-89768062D01*
X183906800Y-89738147D01*
X183955988Y-89723857D01*
X183955990Y-89723856D01*
X183963601Y-89721645D01*
X184010679Y-89693803D01*
X184099980Y-89640991D01*
X184099983Y-89640989D01*
X184106807Y-89636953D01*
X184224453Y-89519307D01*
X184228489Y-89512483D01*
X184228491Y-89512480D01*
X184302732Y-89386944D01*
X184309145Y-89376101D01*
X184311357Y-89368488D01*
X184311358Y-89368486D01*
X184345970Y-89249348D01*
X184384183Y-89189512D01*
X184448679Y-89159834D01*
X184466967Y-89158500D01*
X184533033Y-89158500D01*
X184601154Y-89178502D01*
X184647647Y-89232158D01*
X184654030Y-89249348D01*
X184688642Y-89368486D01*
X184688643Y-89368488D01*
X184690855Y-89376101D01*
X184697268Y-89386944D01*
X184773953Y-89516612D01*
X184791500Y-89580751D01*
X184791500Y-89622476D01*
X184771498Y-89690597D01*
X184759142Y-89706779D01*
X184685960Y-89788056D01*
X184590473Y-89953444D01*
X184531458Y-90135072D01*
X184530768Y-90141633D01*
X184530768Y-90141635D01*
X184519306Y-90250693D01*
X184511496Y-90325000D01*
X184512186Y-90331565D01*
X184528972Y-90491272D01*
X184531458Y-90514928D01*
X184590473Y-90696556D01*
X184593776Y-90702278D01*
X184593777Y-90702279D01*
X184602923Y-90718120D01*
X184685960Y-90861944D01*
X184690378Y-90866851D01*
X184690379Y-90866852D01*
X184809325Y-90998955D01*
X184813747Y-91003866D01*
X184865546Y-91041500D01*
X184951385Y-91103866D01*
X184968248Y-91116118D01*
X184974276Y-91118802D01*
X184974278Y-91118803D01*
X185129440Y-91187885D01*
X185142712Y-91193794D01*
X185201106Y-91206206D01*
X185323056Y-91232128D01*
X185323061Y-91232128D01*
X185329513Y-91233500D01*
X185520487Y-91233500D01*
X185526939Y-91232128D01*
X185526944Y-91232128D01*
X185648894Y-91206206D01*
X185707288Y-91193794D01*
X185720560Y-91187885D01*
X185875722Y-91118803D01*
X185875724Y-91118802D01*
X185881752Y-91116118D01*
X185898616Y-91103866D01*
X185984454Y-91041500D01*
X186036253Y-91003866D01*
X186040675Y-90998955D01*
X186159621Y-90866852D01*
X186159622Y-90866851D01*
X186164040Y-90861944D01*
X186247077Y-90718120D01*
X186256223Y-90702279D01*
X186256224Y-90702278D01*
X186259527Y-90696556D01*
X186307186Y-90549878D01*
X186347260Y-90491272D01*
X186412656Y-90463635D01*
X186482613Y-90475742D01*
X186534919Y-90523748D01*
X186552329Y-90575643D01*
X186555566Y-90606437D01*
X186556458Y-90614928D01*
X186615473Y-90796556D01*
X186618776Y-90802278D01*
X186618777Y-90802279D01*
X186682874Y-90913298D01*
X186710960Y-90961944D01*
X186715378Y-90966851D01*
X186715379Y-90966852D01*
X186831967Y-91096336D01*
X186838747Y-91103866D01*
X186924955Y-91166500D01*
X186976056Y-91203627D01*
X186993248Y-91216118D01*
X186999276Y-91218802D01*
X186999278Y-91218803D01*
X187154166Y-91287763D01*
X187167712Y-91293794D01*
X187261112Y-91313647D01*
X187348056Y-91332128D01*
X187348061Y-91332128D01*
X187354513Y-91333500D01*
X187545487Y-91333500D01*
X187551939Y-91332128D01*
X187551944Y-91332128D01*
X187638888Y-91313647D01*
X187732288Y-91293794D01*
X187745834Y-91287763D01*
X187900722Y-91218803D01*
X187900724Y-91218802D01*
X187906752Y-91216118D01*
X187923945Y-91203627D01*
X187975045Y-91166500D01*
X188061253Y-91103866D01*
X188068033Y-91096336D01*
X188184621Y-90966852D01*
X188184622Y-90966851D01*
X188189040Y-90961944D01*
X188217126Y-90913298D01*
X188281223Y-90802279D01*
X188281224Y-90802278D01*
X188284527Y-90796556D01*
X188343542Y-90614928D01*
X188344435Y-90606437D01*
X188362814Y-90431565D01*
X188363504Y-90425000D01*
X188361553Y-90406433D01*
X188344232Y-90241635D01*
X188344232Y-90241633D01*
X188343542Y-90235072D01*
X188284527Y-90053444D01*
X188189040Y-89888056D01*
X188115863Y-89806785D01*
X188085147Y-89742779D01*
X188083500Y-89722476D01*
X188083500Y-89488478D01*
X188101047Y-89424339D01*
X188155108Y-89332927D01*
X188159145Y-89326101D01*
X188161357Y-89318488D01*
X188161358Y-89318486D01*
X188195970Y-89199348D01*
X188234183Y-89139512D01*
X188298679Y-89109834D01*
X188316967Y-89108500D01*
X188383033Y-89108500D01*
X188451154Y-89128502D01*
X188497647Y-89182158D01*
X188504030Y-89199348D01*
X188538642Y-89318486D01*
X188538643Y-89318488D01*
X188540855Y-89326101D01*
X188544892Y-89332927D01*
X188621509Y-89462480D01*
X188621511Y-89462483D01*
X188625547Y-89469307D01*
X188743193Y-89586953D01*
X188750017Y-89590989D01*
X188750020Y-89590991D01*
X188803259Y-89622476D01*
X188886399Y-89671645D01*
X188894010Y-89673856D01*
X188894012Y-89673857D01*
X188946231Y-89689028D01*
X189046169Y-89718062D01*
X189052574Y-89718566D01*
X189052579Y-89718567D01*
X189081042Y-89720807D01*
X189081050Y-89720807D01*
X189083498Y-89721000D01*
X189516502Y-89721000D01*
X189518417Y-89720849D01*
X189587197Y-89738147D01*
X189635757Y-89789939D01*
X189648593Y-89859904D01*
X189636496Y-89975000D01*
X189656458Y-90164928D01*
X189715473Y-90346556D01*
X189810960Y-90511944D01*
X189815378Y-90516851D01*
X189815379Y-90516852D01*
X189929698Y-90643816D01*
X189938747Y-90653866D01*
X190034318Y-90723303D01*
X190081717Y-90757740D01*
X190093248Y-90766118D01*
X190099276Y-90768802D01*
X190099278Y-90768803D01*
X190261681Y-90841109D01*
X190267712Y-90843794D01*
X190353101Y-90861944D01*
X190448056Y-90882128D01*
X190448061Y-90882128D01*
X190454513Y-90883500D01*
X190645487Y-90883500D01*
X190651939Y-90882128D01*
X190651944Y-90882128D01*
X190746899Y-90861944D01*
X190832288Y-90843794D01*
X190838319Y-90841109D01*
X191000722Y-90768803D01*
X191000724Y-90768802D01*
X191006752Y-90766118D01*
X191018284Y-90757740D01*
X191065682Y-90723303D01*
X191161253Y-90653866D01*
X191170302Y-90643816D01*
X191284621Y-90516852D01*
X191284622Y-90516851D01*
X191289040Y-90511944D01*
X191384527Y-90346556D01*
X191443542Y-90164928D01*
X191463504Y-89975000D01*
X191453851Y-89883153D01*
X191444232Y-89791635D01*
X191444232Y-89791633D01*
X191443542Y-89785072D01*
X191415900Y-89700000D01*
X193311496Y-89700000D01*
X193312186Y-89706565D01*
X193327661Y-89853798D01*
X193331458Y-89889928D01*
X193390473Y-90071556D01*
X193485960Y-90236944D01*
X193490378Y-90241851D01*
X193490379Y-90241852D01*
X193600299Y-90363931D01*
X193613747Y-90378866D01*
X193677245Y-90425000D01*
X193758955Y-90484366D01*
X193768248Y-90491118D01*
X193774276Y-90493802D01*
X193774278Y-90493803D01*
X193903523Y-90551346D01*
X193942712Y-90568794D01*
X194028101Y-90586944D01*
X194123056Y-90607128D01*
X194123061Y-90607128D01*
X194129513Y-90608500D01*
X194320487Y-90608500D01*
X194326939Y-90607128D01*
X194326944Y-90607128D01*
X194421899Y-90586944D01*
X194507288Y-90568794D01*
X194546477Y-90551346D01*
X194675722Y-90493803D01*
X194675724Y-90493802D01*
X194681752Y-90491118D01*
X194691046Y-90484366D01*
X194772755Y-90425000D01*
X194836253Y-90378866D01*
X194849701Y-90363931D01*
X194959621Y-90241852D01*
X194959622Y-90241851D01*
X194964040Y-90236944D01*
X195059527Y-90071556D01*
X195118542Y-89889928D01*
X195122340Y-89853798D01*
X195137814Y-89706565D01*
X195138504Y-89700000D01*
X195127047Y-89590991D01*
X195119232Y-89516635D01*
X195119232Y-89516633D01*
X195118542Y-89510072D01*
X195059527Y-89328444D01*
X194964040Y-89163056D01*
X194958703Y-89157128D01*
X194840675Y-89026045D01*
X194840674Y-89026044D01*
X194836253Y-89021134D01*
X194702498Y-88923955D01*
X194687094Y-88912763D01*
X194687093Y-88912762D01*
X194681752Y-88908882D01*
X194675724Y-88906198D01*
X194675722Y-88906197D01*
X194513319Y-88833891D01*
X194513318Y-88833891D01*
X194507288Y-88831206D01*
X194413036Y-88811172D01*
X194326944Y-88792872D01*
X194326939Y-88792872D01*
X194320487Y-88791500D01*
X194129513Y-88791500D01*
X194123061Y-88792872D01*
X194123056Y-88792872D01*
X194036964Y-88811172D01*
X193942712Y-88831206D01*
X193936682Y-88833891D01*
X193936681Y-88833891D01*
X193774278Y-88906197D01*
X193774276Y-88906198D01*
X193768248Y-88908882D01*
X193762907Y-88912762D01*
X193762906Y-88912763D01*
X193747502Y-88923955D01*
X193613747Y-89021134D01*
X193609326Y-89026044D01*
X193609325Y-89026045D01*
X193491298Y-89157128D01*
X193485960Y-89163056D01*
X193390473Y-89328444D01*
X193331458Y-89510072D01*
X193330768Y-89516633D01*
X193330768Y-89516635D01*
X193322953Y-89590991D01*
X193311496Y-89700000D01*
X191415900Y-89700000D01*
X191384527Y-89603444D01*
X191374264Y-89585667D01*
X191338634Y-89523955D01*
X191289040Y-89438056D01*
X191268352Y-89415079D01*
X191165675Y-89301045D01*
X191165674Y-89301044D01*
X191161253Y-89296134D01*
X191049955Y-89215271D01*
X191012094Y-89187763D01*
X191012093Y-89187762D01*
X191006752Y-89183882D01*
X191000724Y-89181198D01*
X191000722Y-89181197D01*
X190838319Y-89108891D01*
X190838318Y-89108891D01*
X190832288Y-89106206D01*
X190724793Y-89083357D01*
X190651944Y-89067872D01*
X190651939Y-89067872D01*
X190645487Y-89066500D01*
X190454513Y-89066500D01*
X190448061Y-89067872D01*
X190448056Y-89067872D01*
X190314758Y-89096206D01*
X190267712Y-89106206D01*
X190267507Y-89105242D01*
X190202464Y-89107097D01*
X190141667Y-89070432D01*
X190110345Y-89006719D01*
X190108500Y-88985238D01*
X190108500Y-87820998D01*
X190107499Y-87808278D01*
X190106067Y-87790079D01*
X190106066Y-87790074D01*
X190105562Y-87783669D01*
X190059145Y-87623899D01*
X190025956Y-87567780D01*
X189978491Y-87487520D01*
X189978489Y-87487517D01*
X189974453Y-87480693D01*
X189856807Y-87363047D01*
X189849983Y-87359011D01*
X189849980Y-87359009D01*
X189720427Y-87282392D01*
X189720428Y-87282392D01*
X189713601Y-87278355D01*
X189705990Y-87276144D01*
X189705988Y-87276143D01*
X189646973Y-87258998D01*
X189553831Y-87231938D01*
X189547426Y-87231434D01*
X189547421Y-87231433D01*
X189518958Y-87229193D01*
X189518950Y-87229193D01*
X189516502Y-87229000D01*
X189284500Y-87229000D01*
X189216379Y-87208998D01*
X189169886Y-87155342D01*
X189158500Y-87103000D01*
X189158500Y-85945998D01*
X189157918Y-85938601D01*
X189156067Y-85915079D01*
X189156066Y-85915074D01*
X189155562Y-85908669D01*
X189109145Y-85748899D01*
X189092107Y-85720089D01*
X189028491Y-85612520D01*
X189028489Y-85612517D01*
X189024453Y-85605693D01*
X189018845Y-85600085D01*
X189013989Y-85593825D01*
X189015496Y-85592656D01*
X188986379Y-85539333D01*
X188983500Y-85512550D01*
X188983500Y-82758768D01*
X188984027Y-82747584D01*
X188985702Y-82740091D01*
X188985453Y-82732165D01*
X188986199Y-82724274D01*
X188989099Y-82724548D01*
X188998680Y-82680217D01*
X189035139Y-82606447D01*
X189035140Y-82606445D01*
X189037430Y-82601811D01*
X189041724Y-82587680D01*
X189100865Y-82393023D01*
X189100865Y-82393021D01*
X189102370Y-82388069D01*
X189131529Y-82166590D01*
X189133156Y-82100000D01*
X189114852Y-81877361D01*
X189060431Y-81660702D01*
X188971354Y-81455840D01*
X188915748Y-81369886D01*
X188852822Y-81272617D01*
X188852820Y-81272614D01*
X188850014Y-81268277D01*
X188699670Y-81103051D01*
X188695619Y-81099852D01*
X188695615Y-81099848D01*
X188528414Y-80967800D01*
X188528410Y-80967798D01*
X188524359Y-80964598D01*
X188328789Y-80856638D01*
X188323920Y-80854914D01*
X188323916Y-80854912D01*
X188123087Y-80783795D01*
X188123083Y-80783794D01*
X188118212Y-80782069D01*
X188113119Y-80781162D01*
X188113116Y-80781161D01*
X187903373Y-80743800D01*
X187903367Y-80743799D01*
X187898284Y-80742894D01*
X187824452Y-80741992D01*
X187680081Y-80740228D01*
X187680079Y-80740228D01*
X187674911Y-80740165D01*
X187454091Y-80773955D01*
X187241756Y-80843357D01*
X187214117Y-80857745D01*
X187098826Y-80917762D01*
X187043607Y-80946507D01*
X187039474Y-80949610D01*
X187039471Y-80949612D01*
X186883791Y-81066500D01*
X186864965Y-81080635D01*
X186861393Y-81084373D01*
X186735511Y-81216101D01*
X186710629Y-81242138D01*
X186603201Y-81399621D01*
X186548293Y-81444621D01*
X186477768Y-81452792D01*
X186414021Y-81421538D01*
X186393324Y-81397054D01*
X186312822Y-81272617D01*
X186312820Y-81272614D01*
X186310014Y-81268277D01*
X186159670Y-81103051D01*
X186155619Y-81099852D01*
X186155615Y-81099848D01*
X185988414Y-80967800D01*
X185988410Y-80967798D01*
X185984359Y-80964598D01*
X185788789Y-80856638D01*
X185783920Y-80854914D01*
X185783916Y-80854912D01*
X185583087Y-80783795D01*
X185583083Y-80783794D01*
X185578212Y-80782069D01*
X185573119Y-80781162D01*
X185573116Y-80781161D01*
X185363373Y-80743800D01*
X185363367Y-80743799D01*
X185358284Y-80742894D01*
X185284452Y-80741992D01*
X185140081Y-80740228D01*
X185140079Y-80740228D01*
X185134911Y-80740165D01*
X184914091Y-80773955D01*
X184701756Y-80843357D01*
X184674117Y-80857745D01*
X184558826Y-80917762D01*
X184503607Y-80946507D01*
X184499474Y-80949610D01*
X184499471Y-80949612D01*
X184343791Y-81066500D01*
X184324965Y-81080635D01*
X184321393Y-81084373D01*
X184195511Y-81216101D01*
X184170629Y-81242138D01*
X184063201Y-81399621D01*
X184008293Y-81444621D01*
X183937768Y-81452792D01*
X183874021Y-81421538D01*
X183853324Y-81397054D01*
X183772822Y-81272617D01*
X183772820Y-81272614D01*
X183770014Y-81268277D01*
X183619670Y-81103051D01*
X183615619Y-81099852D01*
X183615615Y-81099848D01*
X183448414Y-80967800D01*
X183448410Y-80967798D01*
X183444359Y-80964598D01*
X183248789Y-80856638D01*
X183243920Y-80854914D01*
X183243916Y-80854912D01*
X183043087Y-80783795D01*
X183043083Y-80783794D01*
X183038212Y-80782069D01*
X183033119Y-80781162D01*
X183033116Y-80781161D01*
X182823373Y-80743800D01*
X182823367Y-80743799D01*
X182818284Y-80742894D01*
X182744452Y-80741992D01*
X182600081Y-80740228D01*
X182600079Y-80740228D01*
X182594911Y-80740165D01*
X182374091Y-80773955D01*
X182161756Y-80843357D01*
X182134117Y-80857745D01*
X182018826Y-80917762D01*
X181963607Y-80946507D01*
X181959474Y-80949610D01*
X181959471Y-80949612D01*
X181803791Y-81066500D01*
X181784965Y-81080635D01*
X181718612Y-81150070D01*
X181704283Y-81165064D01*
X181642759Y-81200494D01*
X181571846Y-81197037D01*
X181514060Y-81155791D01*
X181495207Y-81122243D01*
X181453767Y-81011703D01*
X181450615Y-81003295D01*
X181363261Y-80886739D01*
X181246705Y-80799385D01*
X181110316Y-80748255D01*
X181048134Y-80741500D01*
X179251866Y-80741500D01*
X179189684Y-80748255D01*
X179053295Y-80799385D01*
X178936739Y-80886739D01*
X178849385Y-81003295D01*
X178798255Y-81139684D01*
X178791500Y-81201866D01*
X178791500Y-82998134D01*
X175636978Y-82998134D01*
X175631806Y-78540000D01*
X176096496Y-78540000D01*
X176097186Y-78546565D01*
X176110923Y-78677262D01*
X176116458Y-78729928D01*
X176175473Y-78911556D01*
X176178776Y-78917278D01*
X176178777Y-78917279D01*
X176181219Y-78921509D01*
X176270960Y-79076944D01*
X176275378Y-79081851D01*
X176275379Y-79081852D01*
X176372631Y-79189861D01*
X176398747Y-79218866D01*
X176553248Y-79331118D01*
X176559276Y-79333802D01*
X176559278Y-79333803D01*
X176721681Y-79406109D01*
X176727712Y-79408794D01*
X176802233Y-79424634D01*
X176908056Y-79447128D01*
X176908061Y-79447128D01*
X176914513Y-79448500D01*
X177105487Y-79448500D01*
X177111939Y-79447128D01*
X177111944Y-79447128D01*
X177217767Y-79424634D01*
X177292288Y-79408794D01*
X177308943Y-79401379D01*
X177376389Y-79371350D01*
X177407001Y-79357721D01*
X177477367Y-79348287D01*
X177541664Y-79378393D01*
X177565393Y-79406525D01*
X177629022Y-79509348D01*
X177634204Y-79514521D01*
X177659074Y-79539348D01*
X177754197Y-79634305D01*
X177760427Y-79638145D01*
X177760428Y-79638146D01*
X177897590Y-79722694D01*
X177904762Y-79727115D01*
X177913804Y-79730114D01*
X178066111Y-79780632D01*
X178066113Y-79780632D01*
X178072639Y-79782797D01*
X178079475Y-79783497D01*
X178079478Y-79783498D01*
X178122531Y-79787909D01*
X178177100Y-79793500D01*
X179352900Y-79793500D01*
X179356146Y-79793163D01*
X179356150Y-79793163D01*
X179451808Y-79783238D01*
X179451812Y-79783237D01*
X179458666Y-79782526D01*
X179465202Y-79780345D01*
X179465204Y-79780345D01*
X179615763Y-79730114D01*
X179626446Y-79726550D01*
X179776848Y-79633478D01*
X179799491Y-79610796D01*
X179896634Y-79513483D01*
X179901805Y-79508303D01*
X179962298Y-79410166D01*
X179990775Y-79363968D01*
X179990776Y-79363966D01*
X179994615Y-79357738D01*
X180041318Y-79216933D01*
X180048132Y-79196389D01*
X180048132Y-79196387D01*
X180050297Y-79189861D01*
X180051016Y-79182851D01*
X180057308Y-79121433D01*
X180061000Y-79085400D01*
X180344000Y-79085400D01*
X180344337Y-79088646D01*
X180344337Y-79088650D01*
X180353023Y-79172361D01*
X180354974Y-79191166D01*
X180357155Y-79197702D01*
X180357155Y-79197704D01*
X180395419Y-79312393D01*
X180410950Y-79358946D01*
X180504022Y-79509348D01*
X180509204Y-79514521D01*
X180534074Y-79539348D01*
X180629197Y-79634305D01*
X180635427Y-79638145D01*
X180635428Y-79638146D01*
X180772590Y-79722694D01*
X180779762Y-79727115D01*
X180788804Y-79730114D01*
X180941111Y-79780632D01*
X180941113Y-79780632D01*
X180947639Y-79782797D01*
X180954475Y-79783497D01*
X180954478Y-79783498D01*
X180997531Y-79787909D01*
X181052100Y-79793500D01*
X182227900Y-79793500D01*
X182231146Y-79793163D01*
X182231150Y-79793163D01*
X182326808Y-79783238D01*
X182326812Y-79783237D01*
X182333666Y-79782526D01*
X182340202Y-79780345D01*
X182340204Y-79780345D01*
X182490763Y-79730114D01*
X182501446Y-79726550D01*
X182651848Y-79633478D01*
X182754117Y-79531030D01*
X182816398Y-79496952D01*
X182887218Y-79501955D01*
X182938879Y-79539491D01*
X182939022Y-79539348D01*
X183064197Y-79664305D01*
X183070427Y-79668145D01*
X183070428Y-79668146D01*
X183207590Y-79752694D01*
X183214762Y-79757115D01*
X183284799Y-79780345D01*
X183376111Y-79810632D01*
X183376113Y-79810632D01*
X183382639Y-79812797D01*
X183389475Y-79813497D01*
X183389478Y-79813498D01*
X183432531Y-79817909D01*
X183487100Y-79823500D01*
X184262900Y-79823500D01*
X184266146Y-79823163D01*
X184266150Y-79823163D01*
X184361808Y-79813238D01*
X184361812Y-79813237D01*
X184368666Y-79812526D01*
X184375202Y-79810345D01*
X184375204Y-79810345D01*
X184507306Y-79766272D01*
X184536446Y-79756550D01*
X184686848Y-79663478D01*
X184811805Y-79538303D01*
X184814406Y-79534084D01*
X184871530Y-79493583D01*
X184942453Y-79490351D01*
X185003865Y-79525976D01*
X185010422Y-79533530D01*
X185014022Y-79539348D01*
X185139197Y-79664305D01*
X185145427Y-79668145D01*
X185145428Y-79668146D01*
X185282590Y-79752694D01*
X185289762Y-79757115D01*
X185359799Y-79780345D01*
X185451111Y-79810632D01*
X185451113Y-79810632D01*
X185457639Y-79812797D01*
X185464475Y-79813497D01*
X185464478Y-79813498D01*
X185507531Y-79817909D01*
X185562100Y-79823500D01*
X186337900Y-79823500D01*
X186341146Y-79823163D01*
X186341150Y-79823163D01*
X186436808Y-79813238D01*
X186436812Y-79813237D01*
X186443666Y-79812526D01*
X186450202Y-79810345D01*
X186450204Y-79810345D01*
X186582306Y-79766272D01*
X186611446Y-79756550D01*
X186629653Y-79745283D01*
X186698105Y-79726446D01*
X186765875Y-79747608D01*
X186805073Y-79789427D01*
X186820960Y-79816944D01*
X186825378Y-79821851D01*
X186825379Y-79821852D01*
X186882238Y-79885000D01*
X186948747Y-79958866D01*
X187103248Y-80071118D01*
X187109276Y-80073802D01*
X187109278Y-80073803D01*
X187271681Y-80146109D01*
X187277712Y-80148794D01*
X187371112Y-80168647D01*
X187458056Y-80187128D01*
X187458061Y-80187128D01*
X187464513Y-80188500D01*
X187655487Y-80188500D01*
X187661939Y-80187128D01*
X187661944Y-80187128D01*
X187748888Y-80168647D01*
X187842288Y-80148794D01*
X187848319Y-80146109D01*
X188010722Y-80073803D01*
X188010724Y-80073802D01*
X188016752Y-80071118D01*
X188171253Y-79958866D01*
X188237762Y-79885000D01*
X188294621Y-79821852D01*
X188294622Y-79821851D01*
X188299040Y-79816944D01*
X188392067Y-79655817D01*
X188443450Y-79606824D01*
X188513163Y-79593388D01*
X188579074Y-79619774D01*
X188620256Y-79677607D01*
X188625717Y-79710082D01*
X188626496Y-79710000D01*
X188645441Y-79890248D01*
X188646458Y-79899928D01*
X188705473Y-80081556D01*
X188708776Y-80087278D01*
X188708777Y-80087279D01*
X188717108Y-80101709D01*
X188800960Y-80246944D01*
X188805378Y-80251851D01*
X188805379Y-80251852D01*
X188907502Y-80365271D01*
X188928747Y-80388866D01*
X189083248Y-80501118D01*
X189089276Y-80503802D01*
X189089278Y-80503803D01*
X189202850Y-80554368D01*
X189257712Y-80578794D01*
X189349494Y-80598303D01*
X189438056Y-80617128D01*
X189438061Y-80617128D01*
X189444513Y-80618500D01*
X189500405Y-80618500D01*
X189568526Y-80638502D01*
X189589500Y-80655405D01*
X189691348Y-80757253D01*
X189698888Y-80765539D01*
X189703000Y-80772018D01*
X189708777Y-80777443D01*
X189752651Y-80818643D01*
X189755493Y-80821398D01*
X189775230Y-80841135D01*
X189778427Y-80843615D01*
X189787447Y-80851318D01*
X189819679Y-80881586D01*
X189826625Y-80885405D01*
X189826628Y-80885407D01*
X189837434Y-80891348D01*
X189853953Y-80902199D01*
X189869959Y-80914614D01*
X189877228Y-80917759D01*
X189877232Y-80917762D01*
X189910537Y-80932174D01*
X189921199Y-80937397D01*
X189938843Y-80947097D01*
X189988901Y-80997442D01*
X190002566Y-81043616D01*
X190002775Y-81043578D01*
X190003131Y-81045525D01*
X190003753Y-81047628D01*
X190004438Y-81056331D01*
X190030533Y-81146150D01*
X190041495Y-81183882D01*
X190050855Y-81216101D01*
X190054892Y-81222927D01*
X190131509Y-81352480D01*
X190131511Y-81352483D01*
X190135547Y-81359307D01*
X190253193Y-81476953D01*
X190260017Y-81480989D01*
X190260020Y-81480991D01*
X190330582Y-81522721D01*
X190396399Y-81561645D01*
X190404010Y-81563856D01*
X190404012Y-81563857D01*
X190456231Y-81579028D01*
X190556169Y-81608062D01*
X190562574Y-81608566D01*
X190562579Y-81608567D01*
X190591042Y-81610807D01*
X190591050Y-81610807D01*
X190593498Y-81611000D01*
X191026502Y-81611000D01*
X191028950Y-81610807D01*
X191028958Y-81610807D01*
X191057421Y-81608567D01*
X191057426Y-81608566D01*
X191063831Y-81608062D01*
X191163769Y-81579028D01*
X191215988Y-81563857D01*
X191215990Y-81563856D01*
X191223601Y-81561645D01*
X191289418Y-81522721D01*
X191359980Y-81480991D01*
X191359983Y-81480989D01*
X191366807Y-81476953D01*
X191484453Y-81359307D01*
X191488489Y-81352483D01*
X191488491Y-81352480D01*
X191565108Y-81222927D01*
X191569145Y-81216101D01*
X191578506Y-81183882D01*
X191589467Y-81146150D01*
X191615562Y-81056331D01*
X191616413Y-81045525D01*
X191618307Y-81021458D01*
X191618307Y-81021450D01*
X191618500Y-81019002D01*
X191618500Y-79862000D01*
X191638502Y-79793879D01*
X191692158Y-79747386D01*
X191744500Y-79736000D01*
X191775500Y-79736000D01*
X191843621Y-79756002D01*
X191890114Y-79809658D01*
X191901500Y-79862000D01*
X191901500Y-81019002D01*
X191901693Y-81021450D01*
X191901693Y-81021458D01*
X191903588Y-81045525D01*
X191904438Y-81056331D01*
X191930533Y-81146150D01*
X191941495Y-81183882D01*
X191950855Y-81216101D01*
X191954892Y-81222927D01*
X191996841Y-81293859D01*
X192014301Y-81362675D01*
X191997507Y-81420998D01*
X191974649Y-81460590D01*
X191935473Y-81528444D01*
X191876458Y-81710072D01*
X191875768Y-81716633D01*
X191875768Y-81716635D01*
X191866607Y-81803796D01*
X191856496Y-81900000D01*
X191857186Y-81906565D01*
X191875169Y-82077663D01*
X191876458Y-82089928D01*
X191878499Y-82096210D01*
X191879234Y-82099667D01*
X191873832Y-82170458D01*
X191832362Y-82225309D01*
X191832612Y-82225625D01*
X191831393Y-82226591D01*
X191831015Y-82227091D01*
X191829262Y-82228280D01*
X191826879Y-82230168D01*
X191820652Y-82234022D01*
X191695695Y-82359197D01*
X191691855Y-82365427D01*
X191691854Y-82365428D01*
X191608501Y-82500652D01*
X191602885Y-82509762D01*
X191588783Y-82552279D01*
X191553030Y-82660072D01*
X191547203Y-82677639D01*
X191546503Y-82684475D01*
X191546502Y-82684478D01*
X191543688Y-82711944D01*
X191536500Y-82782100D01*
X191536500Y-83557900D01*
X191536837Y-83561146D01*
X191536837Y-83561150D01*
X191543904Y-83629256D01*
X191547474Y-83663666D01*
X191549655Y-83670202D01*
X191549655Y-83670204D01*
X191586546Y-83780779D01*
X191603450Y-83831446D01*
X191696522Y-83981848D01*
X191821697Y-84106805D01*
X191825916Y-84109406D01*
X191866417Y-84166530D01*
X191869649Y-84237453D01*
X191834024Y-84298865D01*
X191826470Y-84305422D01*
X191820652Y-84309022D01*
X191695695Y-84434197D01*
X191691855Y-84440427D01*
X191691854Y-84440428D01*
X191618930Y-84558733D01*
X191602885Y-84584762D01*
X191586455Y-84634298D01*
X191561086Y-84710784D01*
X191547203Y-84752639D01*
X191546503Y-84759475D01*
X191546502Y-84759478D01*
X191542091Y-84802531D01*
X191536500Y-84857100D01*
X191536500Y-85632900D01*
X191536837Y-85636146D01*
X191536837Y-85636150D01*
X191546098Y-85725400D01*
X191547474Y-85738666D01*
X191549655Y-85745202D01*
X191549655Y-85745204D01*
X191582033Y-85842251D01*
X191603450Y-85906446D01*
X191696522Y-86056848D01*
X191821697Y-86181805D01*
X191827927Y-86185645D01*
X191827928Y-86185646D01*
X191886441Y-86221714D01*
X191933934Y-86274487D01*
X191945358Y-86344558D01*
X191940161Y-86367900D01*
X191926458Y-86410072D01*
X191925768Y-86416633D01*
X191925768Y-86416635D01*
X191914898Y-86520056D01*
X191906496Y-86600000D01*
X191907186Y-86606565D01*
X191924724Y-86773427D01*
X191926458Y-86789928D01*
X191985473Y-86971556D01*
X192080960Y-87136944D01*
X192085378Y-87141851D01*
X192085379Y-87141852D01*
X192202062Y-87271441D01*
X192208747Y-87278866D01*
X192282419Y-87332392D01*
X192353289Y-87383882D01*
X192363248Y-87391118D01*
X192369276Y-87393802D01*
X192369278Y-87393803D01*
X192515449Y-87458882D01*
X192537712Y-87468794D01*
X192631113Y-87488647D01*
X192718056Y-87507128D01*
X192718061Y-87507128D01*
X192724513Y-87508500D01*
X192915487Y-87508500D01*
X192921939Y-87507128D01*
X192921944Y-87507128D01*
X193008887Y-87488647D01*
X193102288Y-87468794D01*
X193124551Y-87458882D01*
X193270722Y-87393803D01*
X193270724Y-87393802D01*
X193276752Y-87391118D01*
X193286712Y-87383882D01*
X193357581Y-87332392D01*
X193431253Y-87278866D01*
X193437939Y-87271441D01*
X193554621Y-87141852D01*
X193554622Y-87141851D01*
X193559040Y-87136944D01*
X193654527Y-86971556D01*
X193713542Y-86789928D01*
X193715277Y-86773427D01*
X193732814Y-86606565D01*
X193733504Y-86600000D01*
X193725102Y-86520056D01*
X193714232Y-86416635D01*
X193714232Y-86416633D01*
X193713542Y-86410072D01*
X193682319Y-86313978D01*
X193680291Y-86243013D01*
X193716717Y-86182606D01*
X193719348Y-86180978D01*
X193844305Y-86055803D01*
X193864687Y-86022738D01*
X193933275Y-85911468D01*
X193933276Y-85911466D01*
X193937115Y-85905238D01*
X193991423Y-85741502D01*
X195861500Y-85741502D01*
X195864438Y-85778831D01*
X195910855Y-85938601D01*
X195914892Y-85945427D01*
X195991509Y-86074980D01*
X195991511Y-86074983D01*
X195995547Y-86081807D01*
X196113193Y-86199453D01*
X196120016Y-86203488D01*
X196120020Y-86203491D01*
X196219444Y-86262290D01*
X196256399Y-86284145D01*
X196264010Y-86286356D01*
X196264012Y-86286357D01*
X196287756Y-86293255D01*
X196416169Y-86330562D01*
X196422574Y-86331066D01*
X196422579Y-86331067D01*
X196451042Y-86333307D01*
X196451050Y-86333307D01*
X196453498Y-86333500D01*
X196886502Y-86333500D01*
X196888950Y-86333307D01*
X196888958Y-86333307D01*
X196917421Y-86331067D01*
X196917426Y-86331066D01*
X196923831Y-86330562D01*
X197052244Y-86293255D01*
X197075988Y-86286357D01*
X197075990Y-86286356D01*
X197083601Y-86284145D01*
X197226807Y-86199453D01*
X197229747Y-86196513D01*
X197294271Y-86171179D01*
X197363894Y-86185080D01*
X197382640Y-86197129D01*
X197390323Y-86203089D01*
X197519779Y-86279648D01*
X197534210Y-86285893D01*
X197668605Y-86324939D01*
X197682706Y-86324899D01*
X197686000Y-86317630D01*
X197686000Y-83388122D01*
X197682027Y-83374591D01*
X197674129Y-83373456D01*
X197534210Y-83414107D01*
X197519779Y-83420352D01*
X197390324Y-83496910D01*
X197382636Y-83502874D01*
X197316551Y-83528821D01*
X197246928Y-83514920D01*
X197230842Y-83504582D01*
X197226807Y-83500547D01*
X197189721Y-83478614D01*
X197105601Y-83428866D01*
X197083601Y-83415855D01*
X197075990Y-83413644D01*
X197075988Y-83413643D01*
X196988142Y-83388122D01*
X196923831Y-83369438D01*
X196917426Y-83368934D01*
X196917421Y-83368933D01*
X196888958Y-83366693D01*
X196888950Y-83366693D01*
X196886502Y-83366500D01*
X196453498Y-83366500D01*
X196451050Y-83366693D01*
X196451042Y-83366693D01*
X196422579Y-83368933D01*
X196422574Y-83368934D01*
X196416169Y-83369438D01*
X196351858Y-83388122D01*
X196264012Y-83413643D01*
X196264010Y-83413644D01*
X196256399Y-83415855D01*
X196234399Y-83428866D01*
X196120020Y-83496509D01*
X196120017Y-83496511D01*
X196113193Y-83500547D01*
X195995547Y-83618193D01*
X195991511Y-83625017D01*
X195991509Y-83625020D01*
X195952193Y-83691500D01*
X195910855Y-83761399D01*
X195908644Y-83769010D01*
X195908643Y-83769012D01*
X195893472Y-83821231D01*
X195864438Y-83921169D01*
X195861500Y-83958498D01*
X195861500Y-85741502D01*
X193991423Y-85741502D01*
X193992797Y-85737361D01*
X194003500Y-85632900D01*
X194003500Y-84857100D01*
X194002921Y-84851522D01*
X193993238Y-84758192D01*
X193993237Y-84758188D01*
X193992526Y-84751334D01*
X193978998Y-84710784D01*
X193938868Y-84590502D01*
X193936550Y-84583554D01*
X193843478Y-84433152D01*
X193804144Y-84393886D01*
X193723483Y-84313366D01*
X193718303Y-84308195D01*
X193714084Y-84305594D01*
X193673583Y-84248470D01*
X193670351Y-84177547D01*
X193705976Y-84116135D01*
X193713530Y-84109578D01*
X193719348Y-84105978D01*
X193844305Y-83980803D01*
X193859568Y-83956042D01*
X193933275Y-83836468D01*
X193933276Y-83836466D01*
X193937115Y-83830238D01*
X193992797Y-83662361D01*
X194003500Y-83557900D01*
X194003500Y-82782100D01*
X194002464Y-82772113D01*
X193993238Y-82683192D01*
X193993237Y-82683188D01*
X193992526Y-82676334D01*
X193985008Y-82653798D01*
X193938868Y-82515502D01*
X193936550Y-82508554D01*
X193843478Y-82358152D01*
X193718303Y-82233195D01*
X193712072Y-82229354D01*
X193706327Y-82224817D01*
X193708320Y-82222293D01*
X193670428Y-82180175D01*
X193659016Y-82110102D01*
X193660800Y-82099504D01*
X193661499Y-82096215D01*
X193663542Y-82089928D01*
X193665672Y-82069670D01*
X193682814Y-81906565D01*
X193683504Y-81900000D01*
X193673393Y-81803796D01*
X193664232Y-81716635D01*
X193664232Y-81716633D01*
X193663542Y-81710072D01*
X193604527Y-81528444D01*
X193509040Y-81363056D01*
X193492538Y-81344728D01*
X193461822Y-81280724D01*
X193469806Y-81216293D01*
X193469145Y-81216101D01*
X193470340Y-81211988D01*
X193515562Y-81056331D01*
X193516413Y-81045525D01*
X193518307Y-81021458D01*
X193518307Y-81021450D01*
X193518500Y-81019002D01*
X193518500Y-79710998D01*
X193518307Y-79708540D01*
X193518306Y-79708526D01*
X193517474Y-79697958D01*
X193532067Y-79628477D01*
X193581908Y-79577916D01*
X193616888Y-79564821D01*
X193632810Y-79561437D01*
X193692288Y-79548794D01*
X193698319Y-79546109D01*
X193860722Y-79473803D01*
X193860724Y-79473802D01*
X193866752Y-79471118D01*
X193872093Y-79467238D01*
X193877811Y-79463936D01*
X193879329Y-79466565D01*
X193933736Y-79447093D01*
X194002903Y-79463106D01*
X194036484Y-79491787D01*
X194036522Y-79491848D01*
X194161697Y-79616805D01*
X194165916Y-79619406D01*
X194206417Y-79676530D01*
X194209649Y-79747453D01*
X194174024Y-79808865D01*
X194166470Y-79815422D01*
X194160652Y-79819022D01*
X194035695Y-79944197D01*
X194031855Y-79950427D01*
X194031854Y-79950428D01*
X193947498Y-80087279D01*
X193942885Y-80094762D01*
X193924508Y-80150166D01*
X193894603Y-80240330D01*
X193887203Y-80262639D01*
X193886503Y-80269475D01*
X193886502Y-80269478D01*
X193882091Y-80312531D01*
X193876500Y-80367100D01*
X193876500Y-81142900D01*
X193876837Y-81146146D01*
X193876837Y-81146150D01*
X193884962Y-81224453D01*
X193887474Y-81248666D01*
X193889655Y-81255202D01*
X193889655Y-81255204D01*
X193925638Y-81363056D01*
X193943450Y-81416446D01*
X194036522Y-81566848D01*
X194161697Y-81691805D01*
X194167929Y-81695647D01*
X194167931Y-81695648D01*
X194204277Y-81718052D01*
X194251771Y-81770824D01*
X194263472Y-81838482D01*
X194246496Y-82000000D01*
X194247186Y-82006565D01*
X194264832Y-82174453D01*
X194266458Y-82189928D01*
X194325473Y-82371556D01*
X194328776Y-82377278D01*
X194328777Y-82377279D01*
X194345455Y-82406166D01*
X194420960Y-82536944D01*
X194425378Y-82541851D01*
X194425379Y-82541852D01*
X194434768Y-82552279D01*
X194548747Y-82678866D01*
X194611623Y-82724548D01*
X194695264Y-82785317D01*
X194703248Y-82791118D01*
X194709276Y-82793802D01*
X194709278Y-82793803D01*
X194870904Y-82865763D01*
X194877712Y-82868794D01*
X194971112Y-82888647D01*
X195058056Y-82907128D01*
X195058061Y-82907128D01*
X195064513Y-82908500D01*
X195255487Y-82908500D01*
X195261939Y-82907128D01*
X195261944Y-82907128D01*
X195348888Y-82888647D01*
X195442288Y-82868794D01*
X195449096Y-82865763D01*
X195610722Y-82793803D01*
X195610724Y-82793802D01*
X195616752Y-82791118D01*
X195624737Y-82785317D01*
X195708377Y-82724548D01*
X195771253Y-82678866D01*
X195885232Y-82552279D01*
X195894621Y-82541852D01*
X195894622Y-82541851D01*
X195899040Y-82536944D01*
X195974545Y-82406166D01*
X195991223Y-82377279D01*
X195991224Y-82377278D01*
X195994527Y-82371556D01*
X196053542Y-82189928D01*
X196055169Y-82174453D01*
X196072814Y-82006565D01*
X196073504Y-82000000D01*
X196059793Y-81869543D01*
X196054232Y-81816635D01*
X196054232Y-81816633D01*
X196053542Y-81810072D01*
X196049610Y-81797971D01*
X196047584Y-81727004D01*
X196080271Y-81670019D01*
X196179134Y-81570984D01*
X196179138Y-81570979D01*
X196184305Y-81565803D01*
X196188146Y-81559572D01*
X196273275Y-81421468D01*
X196273276Y-81421466D01*
X196277115Y-81415238D01*
X196316620Y-81296134D01*
X196330632Y-81253889D01*
X196330632Y-81253887D01*
X196332797Y-81247361D01*
X196335301Y-81222927D01*
X196342765Y-81150070D01*
X196343500Y-81142900D01*
X196343500Y-80718928D01*
X196363502Y-80650807D01*
X196417158Y-80604314D01*
X196487432Y-80594210D01*
X196552012Y-80623704D01*
X196578619Y-80655928D01*
X196610960Y-80711944D01*
X196615378Y-80716851D01*
X196615379Y-80716852D01*
X196729511Y-80843608D01*
X196738747Y-80853866D01*
X196816618Y-80910443D01*
X196870530Y-80949612D01*
X196893248Y-80966118D01*
X196899276Y-80968802D01*
X196899278Y-80968803D01*
X197054824Y-81038056D01*
X197067712Y-81043794D01*
X197155754Y-81062508D01*
X197248056Y-81082128D01*
X197248061Y-81082128D01*
X197254513Y-81083500D01*
X197445487Y-81083500D01*
X197451939Y-81082128D01*
X197451944Y-81082128D01*
X197544246Y-81062508D01*
X197632288Y-81043794D01*
X197645176Y-81038056D01*
X197800722Y-80968803D01*
X197800724Y-80968802D01*
X197806752Y-80966118D01*
X197829471Y-80949612D01*
X197953998Y-80859137D01*
X197961253Y-80853866D01*
X197965668Y-80848963D01*
X197970580Y-80844540D01*
X197971705Y-80845789D01*
X198025014Y-80812949D01*
X198058200Y-80808500D01*
X198384653Y-80808500D01*
X198452774Y-80828502D01*
X198499267Y-80882158D01*
X198509371Y-80952432D01*
X198478291Y-81018808D01*
X198460960Y-81038056D01*
X198421230Y-81106870D01*
X198369277Y-81196856D01*
X198365473Y-81203444D01*
X198306458Y-81385072D01*
X198305768Y-81391633D01*
X198305768Y-81391635D01*
X198296801Y-81476953D01*
X198286496Y-81575000D01*
X198287186Y-81581565D01*
X198305292Y-81753831D01*
X198306458Y-81764928D01*
X198365473Y-81946556D01*
X198460960Y-82111944D01*
X198465378Y-82116851D01*
X198465379Y-82116852D01*
X198544136Y-82204320D01*
X198574853Y-82268328D01*
X198576500Y-82288631D01*
X198576500Y-83327357D01*
X198556498Y-83395478D01*
X198502842Y-83441971D01*
X198432568Y-83452075D01*
X198386361Y-83435811D01*
X198360221Y-83420352D01*
X198345790Y-83414107D01*
X198211395Y-83375061D01*
X198197294Y-83375101D01*
X198194000Y-83382370D01*
X198194000Y-86311878D01*
X198197973Y-86325409D01*
X198205871Y-86326544D01*
X198345790Y-86285893D01*
X198360221Y-86279648D01*
X198489676Y-86203090D01*
X198497364Y-86197126D01*
X198563449Y-86171179D01*
X198633072Y-86185080D01*
X198649158Y-86195418D01*
X198653193Y-86199453D01*
X198660021Y-86203491D01*
X198660024Y-86203493D01*
X198680369Y-86215525D01*
X198796399Y-86284145D01*
X198804010Y-86286356D01*
X198804012Y-86286357D01*
X198827756Y-86293255D01*
X198956169Y-86330562D01*
X198962574Y-86331066D01*
X198962579Y-86331067D01*
X198991042Y-86333307D01*
X198991050Y-86333307D01*
X198993498Y-86333500D01*
X199426502Y-86333500D01*
X199428950Y-86333307D01*
X199428958Y-86333307D01*
X199457421Y-86331067D01*
X199457426Y-86331066D01*
X199463831Y-86330562D01*
X199592244Y-86293255D01*
X199615988Y-86286357D01*
X199615990Y-86286356D01*
X199623601Y-86284145D01*
X199766807Y-86199453D01*
X199769489Y-86196771D01*
X199833861Y-86171498D01*
X199903484Y-86185400D01*
X199919312Y-86195572D01*
X199923193Y-86199453D01*
X200066399Y-86284145D01*
X200074010Y-86286356D01*
X200074012Y-86286357D01*
X200097756Y-86293255D01*
X200226169Y-86330562D01*
X200232574Y-86331066D01*
X200232579Y-86331067D01*
X200261042Y-86333307D01*
X200261050Y-86333307D01*
X200263498Y-86333500D01*
X200696502Y-86333500D01*
X200698950Y-86333307D01*
X200698958Y-86333307D01*
X200727421Y-86331067D01*
X200727426Y-86331066D01*
X200733831Y-86330562D01*
X200862244Y-86293255D01*
X200885988Y-86286357D01*
X200885990Y-86286356D01*
X200893601Y-86284145D01*
X200930556Y-86262290D01*
X201029980Y-86203491D01*
X201029984Y-86203488D01*
X201036807Y-86199453D01*
X201154453Y-86081807D01*
X201158489Y-86074983D01*
X201158491Y-86074980D01*
X201235108Y-85945427D01*
X201239145Y-85938601D01*
X201285562Y-85778831D01*
X201288500Y-85741502D01*
X201288500Y-83958498D01*
X201285562Y-83921169D01*
X201256528Y-83821231D01*
X201241357Y-83769012D01*
X201241356Y-83769010D01*
X201239145Y-83761399D01*
X201154453Y-83618193D01*
X201156613Y-83616915D01*
X201135186Y-83562342D01*
X201149087Y-83492719D01*
X201167056Y-83466891D01*
X201234621Y-83391852D01*
X201234622Y-83391851D01*
X201239040Y-83386944D01*
X201299978Y-83281396D01*
X201331223Y-83227279D01*
X201331224Y-83227278D01*
X201334527Y-83221556D01*
X201393542Y-83039928D01*
X201395023Y-83025842D01*
X201412814Y-82856565D01*
X201413504Y-82850000D01*
X201398994Y-82711944D01*
X201394232Y-82666635D01*
X201394232Y-82666633D01*
X201393542Y-82660072D01*
X201361321Y-82560907D01*
X201359293Y-82489941D01*
X201395955Y-82429143D01*
X201441276Y-82402450D01*
X201473946Y-82391550D01*
X201473948Y-82391549D01*
X201474345Y-82392739D01*
X201537171Y-82383082D01*
X201602035Y-82411947D01*
X201640283Y-82469031D01*
X201665473Y-82546556D01*
X201668776Y-82552278D01*
X201668777Y-82552279D01*
X201689216Y-82587680D01*
X201760960Y-82711944D01*
X201765378Y-82716851D01*
X201765379Y-82716852D01*
X201884325Y-82848955D01*
X201888747Y-82853866D01*
X201981630Y-82921350D01*
X202004926Y-82938275D01*
X202043248Y-82966118D01*
X202049276Y-82968802D01*
X202049278Y-82968803D01*
X202211681Y-83041109D01*
X202217712Y-83043794D01*
X202311112Y-83063647D01*
X202398056Y-83082128D01*
X202398061Y-83082128D01*
X202404513Y-83083500D01*
X202595487Y-83083500D01*
X202614861Y-83079382D01*
X202664304Y-83068873D01*
X202735094Y-83074275D01*
X202791727Y-83117092D01*
X202816220Y-83183730D01*
X202816500Y-83192120D01*
X202816500Y-83750400D01*
X202816837Y-83753646D01*
X202816837Y-83753650D01*
X202825556Y-83837676D01*
X202827474Y-83856166D01*
X202829655Y-83862702D01*
X202829655Y-83862704D01*
X202870824Y-83986102D01*
X202883450Y-84023946D01*
X202976522Y-84174348D01*
X202981704Y-84179521D01*
X203063109Y-84260784D01*
X203097188Y-84323066D01*
X203092185Y-84393886D01*
X203063264Y-84438975D01*
X203062860Y-84439380D01*
X202975695Y-84526697D01*
X202971855Y-84532927D01*
X202971854Y-84532928D01*
X202909369Y-84634298D01*
X202882885Y-84677262D01*
X202860485Y-84744796D01*
X202832983Y-84827714D01*
X202827203Y-84845139D01*
X202826503Y-84851975D01*
X202826502Y-84851978D01*
X202822712Y-84888975D01*
X202816500Y-84949600D01*
X202816500Y-85750400D01*
X202827474Y-85856166D01*
X202829655Y-85862702D01*
X202829655Y-85862704D01*
X202869839Y-85983148D01*
X202883450Y-86023946D01*
X202963244Y-86152891D01*
X202982082Y-86221343D01*
X202959966Y-86287482D01*
X202960960Y-86288056D01*
X202957659Y-86293774D01*
X202957658Y-86293775D01*
X202874155Y-86438407D01*
X202865473Y-86453444D01*
X202806458Y-86635072D01*
X202805768Y-86641633D01*
X202805768Y-86641635D01*
X202799021Y-86705833D01*
X202786496Y-86825000D01*
X202787186Y-86831565D01*
X202803724Y-86988911D01*
X202806458Y-87014928D01*
X202808498Y-87021206D01*
X202836319Y-87106831D01*
X202838346Y-87177799D01*
X202801684Y-87238596D01*
X202742683Y-87269013D01*
X202574178Y-87304831D01*
X202574173Y-87304833D01*
X202567712Y-87306206D01*
X202561682Y-87308891D01*
X202561681Y-87308891D01*
X202399278Y-87381197D01*
X202399276Y-87381198D01*
X202393248Y-87383882D01*
X202387907Y-87387762D01*
X202387906Y-87387763D01*
X202379593Y-87393803D01*
X202238747Y-87496134D01*
X202234326Y-87501044D01*
X202234325Y-87501045D01*
X202134208Y-87612237D01*
X202110960Y-87638056D01*
X202015473Y-87803444D01*
X201956458Y-87985072D01*
X201955768Y-87991633D01*
X201955768Y-87991635D01*
X201948700Y-88058882D01*
X201936496Y-88175000D01*
X201937186Y-88181565D01*
X201951866Y-88321233D01*
X201956458Y-88364928D01*
X202015473Y-88546556D01*
X202110960Y-88711944D01*
X202115378Y-88716851D01*
X202115379Y-88716852D01*
X202144925Y-88749666D01*
X202182910Y-88791852D01*
X202195029Y-88805312D01*
X202225746Y-88869319D01*
X202216982Y-88939773D01*
X202208654Y-88955735D01*
X202195385Y-88977262D01*
X202193079Y-88984213D01*
X202193079Y-88984214D01*
X202151856Y-89108500D01*
X202139703Y-89145139D01*
X202139003Y-89151975D01*
X202139002Y-89151978D01*
X202136008Y-89181206D01*
X202129000Y-89249600D01*
X202129000Y-90300400D01*
X202129337Y-90303646D01*
X202129337Y-90303650D01*
X202137913Y-90386300D01*
X202139974Y-90406166D01*
X202142155Y-90412702D01*
X202142155Y-90412704D01*
X202168316Y-90491118D01*
X202195950Y-90573946D01*
X202289022Y-90724348D01*
X202414197Y-90849305D01*
X202531617Y-90921684D01*
X202579109Y-90974455D01*
X202591500Y-91028943D01*
X202591500Y-91151870D01*
X202571498Y-91219991D01*
X202517842Y-91266484D01*
X202481945Y-91276792D01*
X202459870Y-91279698D01*
X202449338Y-91281084D01*
X202449337Y-91281084D01*
X202441150Y-91282162D01*
X202390401Y-91303183D01*
X202300752Y-91340316D01*
X202300750Y-91340317D01*
X202293124Y-91343476D01*
X202286574Y-91348502D01*
X202218100Y-91401045D01*
X202166013Y-91441013D01*
X202160987Y-91447563D01*
X202160984Y-91447566D01*
X202120813Y-91499918D01*
X202068476Y-91568125D01*
X202007162Y-91716150D01*
X202006084Y-91724338D01*
X202000516Y-91766635D01*
X201991500Y-91835115D01*
X201991501Y-92114884D01*
X202007162Y-92233850D01*
X202014589Y-92251780D01*
X202022179Y-92322370D01*
X202014590Y-92348218D01*
X202007162Y-92366150D01*
X201991500Y-92485115D01*
X201991501Y-92764884D01*
X201992039Y-92768969D01*
X201992039Y-92768973D01*
X202003644Y-92857128D01*
X202007162Y-92883850D01*
X202010322Y-92891478D01*
X202014589Y-92901780D01*
X202022179Y-92972370D01*
X202014590Y-92998218D01*
X202007162Y-93016150D01*
X202006084Y-93024339D01*
X201997736Y-93087747D01*
X201969013Y-93152675D01*
X201909748Y-93191766D01*
X201838757Y-93192611D01*
X201778578Y-93154941D01*
X201753290Y-93111177D01*
X201724319Y-93024339D01*
X201716550Y-93001054D01*
X201623478Y-92850652D01*
X201611122Y-92838317D01*
X201553931Y-92781226D01*
X201498303Y-92725695D01*
X201492072Y-92721854D01*
X201368384Y-92645611D01*
X201320890Y-92592838D01*
X201308500Y-92538351D01*
X201308500Y-92336999D01*
X201325381Y-92273999D01*
X201334408Y-92258365D01*
X201384527Y-92171556D01*
X201443542Y-91989928D01*
X201463504Y-91800000D01*
X201443542Y-91610072D01*
X201384527Y-91428444D01*
X201289040Y-91263056D01*
X201215863Y-91181785D01*
X201185147Y-91117779D01*
X201183500Y-91097476D01*
X201183500Y-91017160D01*
X201201047Y-90953021D01*
X201235108Y-90895427D01*
X201239145Y-90888601D01*
X201242170Y-90878191D01*
X201256528Y-90828769D01*
X201285562Y-90728831D01*
X201286299Y-90719475D01*
X201288307Y-90693958D01*
X201288307Y-90693950D01*
X201288500Y-90691502D01*
X201288500Y-88908498D01*
X201288199Y-88904670D01*
X201286067Y-88877579D01*
X201286066Y-88877574D01*
X201285562Y-88871169D01*
X201255040Y-88766109D01*
X201241357Y-88719012D01*
X201241356Y-88719010D01*
X201239145Y-88711399D01*
X201208790Y-88660072D01*
X201158491Y-88575020D01*
X201158489Y-88575017D01*
X201154453Y-88568193D01*
X201036807Y-88450547D01*
X201029983Y-88446511D01*
X201029980Y-88446509D01*
X200900427Y-88369892D01*
X200900428Y-88369892D01*
X200893601Y-88365855D01*
X200885990Y-88363644D01*
X200885988Y-88363643D01*
X200800717Y-88338870D01*
X200733831Y-88319438D01*
X200727426Y-88318934D01*
X200727421Y-88318933D01*
X200698958Y-88316693D01*
X200698950Y-88316693D01*
X200696502Y-88316500D01*
X200263498Y-88316500D01*
X200261050Y-88316693D01*
X200261042Y-88316693D01*
X200232579Y-88318933D01*
X200232574Y-88318934D01*
X200226169Y-88319438D01*
X200159283Y-88338870D01*
X200074012Y-88363643D01*
X200074010Y-88363644D01*
X200066399Y-88365855D01*
X199923193Y-88450547D01*
X199920511Y-88453229D01*
X199856139Y-88478502D01*
X199786516Y-88464600D01*
X199770688Y-88454428D01*
X199766807Y-88450547D01*
X199623601Y-88365855D01*
X199615990Y-88363644D01*
X199615988Y-88363643D01*
X199530717Y-88338870D01*
X199463831Y-88319438D01*
X199457426Y-88318934D01*
X199457421Y-88318933D01*
X199428958Y-88316693D01*
X199428950Y-88316693D01*
X199426502Y-88316500D01*
X198993498Y-88316500D01*
X198991050Y-88316693D01*
X198991042Y-88316693D01*
X198962579Y-88318933D01*
X198962574Y-88318934D01*
X198956169Y-88319438D01*
X198889283Y-88338870D01*
X198804012Y-88363643D01*
X198804010Y-88363644D01*
X198796399Y-88365855D01*
X198653193Y-88450547D01*
X198650511Y-88453229D01*
X198586139Y-88478502D01*
X198516516Y-88464600D01*
X198500688Y-88454428D01*
X198496807Y-88450547D01*
X198353601Y-88365855D01*
X198345990Y-88363644D01*
X198345988Y-88363643D01*
X198260717Y-88338870D01*
X198193831Y-88319438D01*
X198187426Y-88318934D01*
X198187421Y-88318933D01*
X198158958Y-88316693D01*
X198158950Y-88316693D01*
X198156502Y-88316500D01*
X197723498Y-88316500D01*
X197721050Y-88316693D01*
X197721042Y-88316693D01*
X197692579Y-88318933D01*
X197692574Y-88318934D01*
X197686169Y-88319438D01*
X197619283Y-88338870D01*
X197534012Y-88363643D01*
X197534010Y-88363644D01*
X197526399Y-88365855D01*
X197383193Y-88450547D01*
X197380511Y-88453229D01*
X197316139Y-88478502D01*
X197246516Y-88464600D01*
X197230688Y-88454428D01*
X197226807Y-88450547D01*
X197083601Y-88365855D01*
X197075990Y-88363644D01*
X197075988Y-88363643D01*
X196990717Y-88338870D01*
X196923831Y-88319438D01*
X196917426Y-88318934D01*
X196917421Y-88318933D01*
X196888958Y-88316693D01*
X196888950Y-88316693D01*
X196886502Y-88316500D01*
X196453498Y-88316500D01*
X196451050Y-88316693D01*
X196451042Y-88316693D01*
X196422579Y-88318933D01*
X196422574Y-88318934D01*
X196416169Y-88319438D01*
X196349283Y-88338870D01*
X196264012Y-88363643D01*
X196264010Y-88363644D01*
X196256399Y-88365855D01*
X196249572Y-88369892D01*
X196249573Y-88369892D01*
X196120020Y-88446509D01*
X196120017Y-88446511D01*
X196113193Y-88450547D01*
X195995547Y-88568193D01*
X195991511Y-88575017D01*
X195991509Y-88575020D01*
X195941210Y-88660072D01*
X195910855Y-88711399D01*
X195908644Y-88719010D01*
X195908643Y-88719012D01*
X195894960Y-88766109D01*
X195864438Y-88871169D01*
X195863934Y-88877574D01*
X195863933Y-88877579D01*
X195861801Y-88904670D01*
X195861500Y-88908498D01*
X195861500Y-90691502D01*
X195861693Y-90693950D01*
X195861693Y-90693958D01*
X195863702Y-90719475D01*
X195864438Y-90728831D01*
X195893472Y-90828769D01*
X195907831Y-90878191D01*
X195910855Y-90888601D01*
X195989921Y-91022295D01*
X196007380Y-91091109D01*
X195984863Y-91158441D01*
X195947770Y-91193576D01*
X195885471Y-91232128D01*
X195805652Y-91281522D01*
X195745779Y-91341500D01*
X195719216Y-91368109D01*
X195656934Y-91402188D01*
X195586114Y-91397185D01*
X195541025Y-91368264D01*
X195458483Y-91285866D01*
X195453303Y-91280695D01*
X195446971Y-91276792D01*
X195308968Y-91191725D01*
X195308966Y-91191724D01*
X195302738Y-91187885D01*
X195194156Y-91151870D01*
X195141389Y-91134368D01*
X195141387Y-91134368D01*
X195134861Y-91132203D01*
X195128025Y-91131503D01*
X195128022Y-91131502D01*
X195084969Y-91127091D01*
X195030400Y-91121500D01*
X194229600Y-91121500D01*
X194226354Y-91121837D01*
X194226350Y-91121837D01*
X194130692Y-91131762D01*
X194130688Y-91131763D01*
X194123834Y-91132474D01*
X194117298Y-91134655D01*
X194117296Y-91134655D01*
X194036500Y-91161611D01*
X193956054Y-91188450D01*
X193805652Y-91281522D01*
X193680695Y-91406697D01*
X193680020Y-91407793D01*
X193624124Y-91447420D01*
X193553201Y-91450650D01*
X193531915Y-91443372D01*
X193392288Y-91381206D01*
X193298887Y-91361353D01*
X193211944Y-91342872D01*
X193211939Y-91342872D01*
X193205487Y-91341500D01*
X193014513Y-91341500D01*
X193008061Y-91342872D01*
X193008056Y-91342872D01*
X192921113Y-91361353D01*
X192827712Y-91381206D01*
X192821682Y-91383891D01*
X192821681Y-91383891D01*
X192659278Y-91456197D01*
X192659276Y-91456198D01*
X192653248Y-91458882D01*
X192647907Y-91462762D01*
X192647906Y-91462763D01*
X192597843Y-91499136D01*
X192498747Y-91571134D01*
X192494326Y-91576044D01*
X192494325Y-91576045D01*
X192379615Y-91703444D01*
X192370960Y-91713056D01*
X192275473Y-91878444D01*
X192216458Y-92060072D01*
X192215768Y-92066633D01*
X192215768Y-92066635D01*
X192208755Y-92133365D01*
X192196496Y-92250000D01*
X192197186Y-92256565D01*
X192204546Y-92326587D01*
X192216458Y-92439928D01*
X192275473Y-92621556D01*
X192370960Y-92786944D01*
X192375378Y-92791851D01*
X192375379Y-92791852D01*
X192484461Y-92913000D01*
X192498747Y-92928866D01*
X192583502Y-92990444D01*
X192630150Y-93024336D01*
X192653248Y-93041118D01*
X192659276Y-93043802D01*
X192659278Y-93043803D01*
X192821681Y-93116109D01*
X192827712Y-93118794D01*
X192904496Y-93135115D01*
X193008056Y-93157128D01*
X193008061Y-93157128D01*
X193014513Y-93158500D01*
X193205487Y-93158500D01*
X193211939Y-93157128D01*
X193211944Y-93157128D01*
X193315504Y-93135115D01*
X193392288Y-93118794D01*
X193400680Y-93115058D01*
X193425637Y-93103946D01*
X193452781Y-93091861D01*
X193523147Y-93082427D01*
X193587444Y-93112533D01*
X193611171Y-93140663D01*
X193681522Y-93254348D01*
X193806697Y-93379305D01*
X193812927Y-93383145D01*
X193812928Y-93383146D01*
X193950090Y-93467694D01*
X193957262Y-93472115D01*
X193991180Y-93483365D01*
X194118611Y-93525632D01*
X194118613Y-93525632D01*
X194125139Y-93527797D01*
X194131975Y-93528497D01*
X194131978Y-93528498D01*
X194175031Y-93532909D01*
X194229600Y-93538500D01*
X195030400Y-93538500D01*
X195033646Y-93538163D01*
X195033650Y-93538163D01*
X195129308Y-93528238D01*
X195129312Y-93528237D01*
X195136166Y-93527526D01*
X195142702Y-93525345D01*
X195142704Y-93525345D01*
X195287371Y-93477080D01*
X195303946Y-93471550D01*
X195454348Y-93378478D01*
X195540784Y-93291891D01*
X195603066Y-93257812D01*
X195673886Y-93262815D01*
X195718975Y-93291736D01*
X195732796Y-93305533D01*
X195806697Y-93379305D01*
X195812927Y-93383145D01*
X195812928Y-93383146D01*
X195842045Y-93401094D01*
X195957262Y-93472115D01*
X195963863Y-93474304D01*
X196017035Y-93521123D01*
X196036500Y-93588400D01*
X196036500Y-94366233D01*
X196035973Y-94377416D01*
X196034298Y-94384909D01*
X196034547Y-94392835D01*
X196034547Y-94392836D01*
X196036438Y-94452986D01*
X196036500Y-94456945D01*
X196036500Y-94484856D01*
X196036997Y-94488790D01*
X196036997Y-94488791D01*
X196037005Y-94488856D01*
X196037938Y-94500693D01*
X196039327Y-94544889D01*
X196043444Y-94559059D01*
X196044978Y-94564339D01*
X196048987Y-94583700D01*
X196051526Y-94603797D01*
X196054445Y-94611168D01*
X196054445Y-94611170D01*
X196067804Y-94644912D01*
X196071649Y-94656142D01*
X196083982Y-94698593D01*
X196088015Y-94705412D01*
X196088017Y-94705417D01*
X196094293Y-94716028D01*
X196102988Y-94733776D01*
X196110448Y-94752617D01*
X196115110Y-94759033D01*
X196115110Y-94759034D01*
X196136436Y-94788387D01*
X196142952Y-94798307D01*
X196165458Y-94836362D01*
X196179779Y-94850683D01*
X196192619Y-94865716D01*
X196204528Y-94882107D01*
X196210634Y-94887158D01*
X196238605Y-94910298D01*
X196247384Y-94918288D01*
X196946343Y-95617247D01*
X196953887Y-95625537D01*
X196958000Y-95632018D01*
X196963777Y-95637443D01*
X197007667Y-95678658D01*
X197010509Y-95681413D01*
X197030231Y-95701135D01*
X197033355Y-95703558D01*
X197033359Y-95703562D01*
X197033424Y-95703612D01*
X197042445Y-95711317D01*
X197074679Y-95741586D01*
X197081627Y-95745405D01*
X197081629Y-95745407D01*
X197092432Y-95751346D01*
X197108959Y-95762202D01*
X197118698Y-95769757D01*
X197118700Y-95769758D01*
X197124960Y-95774614D01*
X197165540Y-95792174D01*
X197176188Y-95797391D01*
X197206202Y-95813891D01*
X197214940Y-95818695D01*
X197222616Y-95820666D01*
X197222619Y-95820667D01*
X197234562Y-95823733D01*
X197253266Y-95830137D01*
X197259335Y-95832763D01*
X197271855Y-95838181D01*
X197279678Y-95839420D01*
X197279688Y-95839423D01*
X197315524Y-95845099D01*
X197327144Y-95847505D01*
X197348279Y-95852931D01*
X197369970Y-95858500D01*
X197390224Y-95858500D01*
X197409934Y-95860051D01*
X197429943Y-95863220D01*
X197437835Y-95862474D01*
X197449263Y-95861394D01*
X197473962Y-95859059D01*
X197485819Y-95858500D01*
X201865501Y-95858500D01*
X201933622Y-95878502D01*
X201980115Y-95932158D01*
X201991501Y-95984499D01*
X201991501Y-96014884D01*
X201992039Y-96018969D01*
X201992039Y-96018973D01*
X202000475Y-96083056D01*
X202007162Y-96133850D01*
X202013344Y-96148774D01*
X202052258Y-96242721D01*
X202068476Y-96281876D01*
X202073502Y-96288426D01*
X202160985Y-96402434D01*
X202166013Y-96408987D01*
X202172563Y-96414013D01*
X202172566Y-96414016D01*
X202193491Y-96430072D01*
X202293125Y-96506524D01*
X202441150Y-96567838D01*
X202546947Y-96581766D01*
X202611873Y-96610488D01*
X202650965Y-96669753D01*
X202656500Y-96706688D01*
X202656500Y-96917476D01*
X202636498Y-96985597D01*
X202624142Y-97001779D01*
X202550960Y-97083056D01*
X202547659Y-97088774D01*
X202473660Y-97216944D01*
X202455473Y-97248444D01*
X202396458Y-97430072D01*
X202376496Y-97620000D01*
X202396458Y-97809928D01*
X202455473Y-97991556D01*
X202550960Y-98156944D01*
X202678747Y-98298866D01*
X202833248Y-98411118D01*
X202839276Y-98413802D01*
X202839278Y-98413803D01*
X203001681Y-98486109D01*
X203007712Y-98488794D01*
X203101113Y-98508647D01*
X203188056Y-98527128D01*
X203188061Y-98527128D01*
X203194513Y-98528500D01*
X203385487Y-98528500D01*
X203391939Y-98527128D01*
X203391944Y-98527128D01*
X203478887Y-98508647D01*
X203572288Y-98488794D01*
X203578319Y-98486109D01*
X203740722Y-98413803D01*
X203740724Y-98413802D01*
X203746752Y-98411118D01*
X203901253Y-98298866D01*
X204029040Y-98156944D01*
X204124527Y-97991556D01*
X204183542Y-97809928D01*
X204203504Y-97620000D01*
X204183542Y-97430072D01*
X204124527Y-97248444D01*
X204106341Y-97216944D01*
X204032341Y-97088774D01*
X204029040Y-97083056D01*
X203955863Y-97001785D01*
X203925147Y-96937779D01*
X203923500Y-96917476D01*
X203923500Y-96692865D01*
X203943502Y-96624744D01*
X203997158Y-96578251D01*
X204018009Y-96572259D01*
X204017686Y-96571053D01*
X204025662Y-96568916D01*
X204033850Y-96567838D01*
X204153951Y-96518091D01*
X204174248Y-96509684D01*
X204174250Y-96509683D01*
X204181876Y-96506524D01*
X204194118Y-96497130D01*
X204302436Y-96414014D01*
X204302437Y-96414013D01*
X204308987Y-96408987D01*
X204314014Y-96402436D01*
X204314016Y-96402434D01*
X204359027Y-96343774D01*
X204406524Y-96281875D01*
X204467838Y-96133850D01*
X204479889Y-96042310D01*
X204482962Y-96018972D01*
X204482962Y-96018971D01*
X204483500Y-96014885D01*
X204483500Y-95976178D01*
X204503502Y-95908057D01*
X204557158Y-95861564D01*
X204627432Y-95851460D01*
X204635697Y-95852931D01*
X204773056Y-95882128D01*
X204773061Y-95882128D01*
X204779513Y-95883500D01*
X204970487Y-95883500D01*
X204976939Y-95882128D01*
X204976944Y-95882128D01*
X205085472Y-95859059D01*
X205157288Y-95843794D01*
X205163315Y-95841111D01*
X205163323Y-95841108D01*
X205207952Y-95821237D01*
X205278319Y-95811802D01*
X205342616Y-95841908D01*
X205380430Y-95901996D01*
X205384512Y-95923172D01*
X205394581Y-96018972D01*
X205397034Y-96042310D01*
X205456049Y-96223938D01*
X205459352Y-96229660D01*
X205459353Y-96229661D01*
X205473826Y-96254729D01*
X205551536Y-96389326D01*
X205679323Y-96531248D01*
X205684664Y-96535128D01*
X205684669Y-96535133D01*
X205720616Y-96561250D01*
X205763969Y-96617472D01*
X205771864Y-96676356D01*
X205761496Y-96775000D01*
X205762186Y-96781565D01*
X205778605Y-96937779D01*
X205781458Y-96964928D01*
X205840473Y-97146556D01*
X205843776Y-97152278D01*
X205843777Y-97152279D01*
X205849304Y-97161852D01*
X205935960Y-97311944D01*
X205940378Y-97316851D01*
X205940379Y-97316852D01*
X206026000Y-97411944D01*
X206063747Y-97453866D01*
X206162843Y-97525864D01*
X206201385Y-97553866D01*
X206218248Y-97566118D01*
X206224276Y-97568802D01*
X206224278Y-97568803D01*
X206386681Y-97641109D01*
X206392712Y-97643794D01*
X206479479Y-97662237D01*
X206573056Y-97682128D01*
X206573061Y-97682128D01*
X206579513Y-97683500D01*
X206770487Y-97683500D01*
X206776939Y-97682128D01*
X206776944Y-97682128D01*
X206870521Y-97662237D01*
X206957288Y-97643794D01*
X206963319Y-97641109D01*
X207125722Y-97568803D01*
X207125724Y-97568802D01*
X207131752Y-97566118D01*
X207148616Y-97553866D01*
X207187157Y-97525864D01*
X207286253Y-97453866D01*
X207324000Y-97411944D01*
X207409621Y-97316852D01*
X207409622Y-97316851D01*
X207414040Y-97311944D01*
X207500696Y-97161852D01*
X207506223Y-97152279D01*
X207506224Y-97152278D01*
X207509527Y-97146556D01*
X207568542Y-96964928D01*
X207571396Y-96937779D01*
X207585907Y-96799707D01*
X207612920Y-96734050D01*
X207622122Y-96723782D01*
X207800499Y-96545405D01*
X207862811Y-96511379D01*
X207889594Y-96508500D01*
X207997832Y-96508500D01*
X208046050Y-96518091D01*
X208166150Y-96567838D01*
X208174338Y-96568916D01*
X208281021Y-96582961D01*
X208285115Y-96583500D01*
X208962417Y-96583500D01*
X209639884Y-96583499D01*
X209643968Y-96582961D01*
X209643974Y-96582961D01*
X209711861Y-96574024D01*
X209782010Y-96584964D01*
X209835108Y-96632093D01*
X209854297Y-96700447D01*
X209853617Y-96712106D01*
X209836496Y-96875000D01*
X209837186Y-96881565D01*
X209855053Y-97051556D01*
X209856458Y-97064928D01*
X209915473Y-97246556D01*
X210010960Y-97411944D01*
X210015378Y-97416851D01*
X210015379Y-97416852D01*
X210134180Y-97548794D01*
X210138747Y-97553866D01*
X210293248Y-97666118D01*
X210299276Y-97668802D01*
X210299278Y-97668803D01*
X210461681Y-97741109D01*
X210467712Y-97743794D01*
X210561113Y-97763647D01*
X210648056Y-97782128D01*
X210648061Y-97782128D01*
X210654513Y-97783500D01*
X210845487Y-97783500D01*
X210851939Y-97782128D01*
X210851944Y-97782128D01*
X210938888Y-97763647D01*
X211032288Y-97743794D01*
X211038319Y-97741109D01*
X211200722Y-97668803D01*
X211200724Y-97668802D01*
X211206752Y-97666118D01*
X211361253Y-97553866D01*
X211365820Y-97548794D01*
X211484621Y-97416852D01*
X211484622Y-97416851D01*
X211489040Y-97411944D01*
X211584527Y-97246556D01*
X211643542Y-97064928D01*
X211644948Y-97051556D01*
X211662814Y-96881565D01*
X211663504Y-96875000D01*
X211655975Y-96803365D01*
X211644232Y-96691635D01*
X211644232Y-96691633D01*
X211643542Y-96685072D01*
X211622399Y-96620000D01*
X220746496Y-96620000D01*
X220766458Y-96809928D01*
X220825473Y-96991556D01*
X220920960Y-97156944D01*
X221048747Y-97298866D01*
X221073503Y-97316852D01*
X221196515Y-97406226D01*
X221203248Y-97411118D01*
X221209276Y-97413802D01*
X221209278Y-97413803D01*
X221344041Y-97473803D01*
X221377712Y-97488794D01*
X221471112Y-97508647D01*
X221558056Y-97527128D01*
X221558061Y-97527128D01*
X221564513Y-97528500D01*
X221755487Y-97528500D01*
X221761939Y-97527128D01*
X221761944Y-97527128D01*
X221848888Y-97508647D01*
X221942288Y-97488794D01*
X221975959Y-97473803D01*
X222110722Y-97413803D01*
X222110724Y-97413802D01*
X222116752Y-97411118D01*
X222123486Y-97406226D01*
X222246497Y-97316852D01*
X222271253Y-97298866D01*
X222399040Y-97156944D01*
X222494527Y-96991556D01*
X222553542Y-96809928D01*
X222567198Y-96680000D01*
X224996496Y-96680000D01*
X224997186Y-96686565D01*
X225009078Y-96799707D01*
X225016458Y-96869928D01*
X225075473Y-97051556D01*
X225078776Y-97057278D01*
X225078777Y-97057279D01*
X225096961Y-97088774D01*
X225170960Y-97216944D01*
X225298747Y-97358866D01*
X225453248Y-97471118D01*
X225459276Y-97473802D01*
X225459278Y-97473803D01*
X225621681Y-97546109D01*
X225627712Y-97548794D01*
X225709215Y-97566118D01*
X225808056Y-97587128D01*
X225808061Y-97587128D01*
X225814513Y-97588500D01*
X226005487Y-97588500D01*
X226011939Y-97587128D01*
X226011944Y-97587128D01*
X226110785Y-97566118D01*
X226192288Y-97548794D01*
X226198319Y-97546109D01*
X226360722Y-97473803D01*
X226360724Y-97473802D01*
X226366752Y-97471118D01*
X226521253Y-97358866D01*
X226649040Y-97216944D01*
X226723039Y-97088774D01*
X226741223Y-97057279D01*
X226741224Y-97057278D01*
X226744527Y-97051556D01*
X226803542Y-96869928D01*
X226810923Y-96799707D01*
X226822814Y-96686565D01*
X226823504Y-96680000D01*
X226815517Y-96604008D01*
X226804232Y-96496635D01*
X226804232Y-96496633D01*
X226803542Y-96490072D01*
X226744527Y-96308444D01*
X226649040Y-96143056D01*
X226633379Y-96125662D01*
X226525675Y-96006045D01*
X226525674Y-96006044D01*
X226521253Y-96001134D01*
X226366752Y-95888882D01*
X226360724Y-95886198D01*
X226360722Y-95886197D01*
X226198319Y-95813891D01*
X226198318Y-95813891D01*
X226192288Y-95811206D01*
X226098888Y-95791353D01*
X226011944Y-95772872D01*
X226011939Y-95772872D01*
X226005487Y-95771500D01*
X225814513Y-95771500D01*
X225808061Y-95772872D01*
X225808056Y-95772872D01*
X225721112Y-95791353D01*
X225627712Y-95811206D01*
X225621682Y-95813891D01*
X225621681Y-95813891D01*
X225459278Y-95886197D01*
X225459276Y-95886198D01*
X225453248Y-95888882D01*
X225298747Y-96001134D01*
X225294326Y-96006044D01*
X225294325Y-96006045D01*
X225186622Y-96125662D01*
X225170960Y-96143056D01*
X225075473Y-96308444D01*
X225016458Y-96490072D01*
X225015768Y-96496633D01*
X225015768Y-96496635D01*
X225004483Y-96604008D01*
X224996496Y-96680000D01*
X222567198Y-96680000D01*
X222573504Y-96620000D01*
X222569548Y-96582365D01*
X222554232Y-96436635D01*
X222554232Y-96436633D01*
X222553542Y-96430072D01*
X222494527Y-96248444D01*
X222480379Y-96223938D01*
X222433681Y-96143056D01*
X222399040Y-96083056D01*
X222341340Y-96018973D01*
X222275675Y-95946045D01*
X222275674Y-95946044D01*
X222271253Y-95941134D01*
X222154227Y-95856109D01*
X222122094Y-95832763D01*
X222122093Y-95832762D01*
X222116752Y-95828882D01*
X222110724Y-95826198D01*
X222110722Y-95826197D01*
X221948319Y-95753891D01*
X221948318Y-95753891D01*
X221942288Y-95751206D01*
X221847354Y-95731027D01*
X221761944Y-95712872D01*
X221761939Y-95712872D01*
X221755487Y-95711500D01*
X221564513Y-95711500D01*
X221558061Y-95712872D01*
X221558056Y-95712872D01*
X221472646Y-95731027D01*
X221377712Y-95751206D01*
X221371682Y-95753891D01*
X221371681Y-95753891D01*
X221209278Y-95826197D01*
X221209276Y-95826198D01*
X221203248Y-95828882D01*
X221197907Y-95832762D01*
X221197906Y-95832763D01*
X221165773Y-95856109D01*
X221048747Y-95941134D01*
X221044326Y-95946044D01*
X221044325Y-95946045D01*
X220978661Y-96018973D01*
X220920960Y-96083056D01*
X220886319Y-96143056D01*
X220839622Y-96223938D01*
X220825473Y-96248444D01*
X220766458Y-96430072D01*
X220765768Y-96436633D01*
X220765768Y-96436635D01*
X220750452Y-96582365D01*
X220746496Y-96620000D01*
X211622399Y-96620000D01*
X211584527Y-96503444D01*
X211489040Y-96338056D01*
X211438456Y-96281876D01*
X211365675Y-96201045D01*
X211365674Y-96201044D01*
X211361253Y-96196134D01*
X211262157Y-96124136D01*
X211212094Y-96087763D01*
X211212093Y-96087762D01*
X211206752Y-96083882D01*
X211200724Y-96081198D01*
X211200722Y-96081197D01*
X211038319Y-96008891D01*
X211038318Y-96008891D01*
X211032288Y-96006206D01*
X210930170Y-95984500D01*
X210851944Y-95967872D01*
X210851939Y-95967872D01*
X210845487Y-95966500D01*
X210654513Y-95966500D01*
X210648061Y-95967872D01*
X210648056Y-95967872D01*
X210569830Y-95984500D01*
X210467712Y-96006206D01*
X210461685Y-96008889D01*
X210461677Y-96008892D01*
X210385748Y-96042698D01*
X210315381Y-96052132D01*
X210251084Y-96022025D01*
X210213271Y-95961936D01*
X210208500Y-95927592D01*
X210208499Y-95739239D01*
X210208499Y-95735116D01*
X210206949Y-95723337D01*
X210193916Y-95624337D01*
X210193916Y-95624335D01*
X210192838Y-95616150D01*
X210185411Y-95598219D01*
X210177821Y-95527630D01*
X210185411Y-95501780D01*
X210189678Y-95491480D01*
X210189679Y-95491477D01*
X210192838Y-95483850D01*
X210208500Y-95364885D01*
X210208500Y-95334500D01*
X210228502Y-95266379D01*
X210282158Y-95219886D01*
X210334500Y-95208500D01*
X211484198Y-95208500D01*
X211552319Y-95228502D01*
X211598812Y-95282158D01*
X211604030Y-95295562D01*
X211625473Y-95361556D01*
X211628776Y-95367278D01*
X211628777Y-95367279D01*
X211662686Y-95426010D01*
X211720960Y-95526944D01*
X211848747Y-95668866D01*
X211945607Y-95739239D01*
X211962271Y-95751346D01*
X212003248Y-95781118D01*
X212009276Y-95783802D01*
X212009278Y-95783803D01*
X212152356Y-95847505D01*
X212177712Y-95858794D01*
X212270430Y-95878502D01*
X212358056Y-95897128D01*
X212358061Y-95897128D01*
X212364513Y-95898500D01*
X212555487Y-95898500D01*
X212561939Y-95897128D01*
X212561944Y-95897128D01*
X212649570Y-95878502D01*
X212742288Y-95858794D01*
X212767644Y-95847505D01*
X212910722Y-95783803D01*
X212910724Y-95783802D01*
X212916752Y-95781118D01*
X212957730Y-95751346D01*
X212974393Y-95739239D01*
X213071253Y-95668866D01*
X213199040Y-95526944D01*
X213257314Y-95426010D01*
X213291223Y-95367279D01*
X213291224Y-95367278D01*
X213294527Y-95361556D01*
X213353542Y-95179928D01*
X213373504Y-94990000D01*
X213361490Y-94875694D01*
X213354232Y-94806635D01*
X213354232Y-94806633D01*
X213353542Y-94800072D01*
X213328641Y-94723435D01*
X213326613Y-94652469D01*
X213363275Y-94591671D01*
X213426988Y-94560346D01*
X213448474Y-94558500D01*
X214146233Y-94558500D01*
X214157416Y-94559027D01*
X214164909Y-94560702D01*
X214172835Y-94560453D01*
X214172836Y-94560453D01*
X214232986Y-94558562D01*
X214236945Y-94558500D01*
X214264856Y-94558500D01*
X214268791Y-94558003D01*
X214268856Y-94557995D01*
X214280693Y-94557062D01*
X214312951Y-94556048D01*
X214316970Y-94555922D01*
X214324889Y-94555673D01*
X214344343Y-94550021D01*
X214363700Y-94546013D01*
X214375930Y-94544468D01*
X214375931Y-94544468D01*
X214383797Y-94543474D01*
X214391168Y-94540555D01*
X214391170Y-94540555D01*
X214424912Y-94527196D01*
X214436142Y-94523351D01*
X214470983Y-94513229D01*
X214470984Y-94513229D01*
X214478593Y-94511018D01*
X214485412Y-94506985D01*
X214485417Y-94506983D01*
X214496028Y-94500707D01*
X214513776Y-94492012D01*
X214532617Y-94484552D01*
X214568387Y-94458564D01*
X214578307Y-94452048D01*
X214609535Y-94433580D01*
X214609538Y-94433578D01*
X214616362Y-94429542D01*
X214630683Y-94415221D01*
X214645717Y-94402380D01*
X214655694Y-94395131D01*
X214662107Y-94390472D01*
X214667158Y-94384367D01*
X214667163Y-94384362D01*
X214690299Y-94356396D01*
X214698287Y-94347618D01*
X215477053Y-93568852D01*
X215485339Y-93561312D01*
X215491818Y-93557200D01*
X215538444Y-93507548D01*
X215541198Y-93504707D01*
X215560935Y-93484970D01*
X215563415Y-93481773D01*
X215571120Y-93472751D01*
X215575869Y-93467694D01*
X215601386Y-93440521D01*
X215605205Y-93433575D01*
X215605207Y-93433572D01*
X215611148Y-93422766D01*
X215621999Y-93406247D01*
X215629558Y-93396501D01*
X215634414Y-93390241D01*
X215637559Y-93382972D01*
X215637562Y-93382968D01*
X215651974Y-93349663D01*
X215657191Y-93339013D01*
X215678495Y-93300260D01*
X215683533Y-93280637D01*
X215689937Y-93261934D01*
X215694832Y-93250623D01*
X215694833Y-93250620D01*
X215697981Y-93243345D01*
X215698346Y-93241041D01*
X215735219Y-93183303D01*
X215799716Y-93153626D01*
X215862951Y-93160582D01*
X215949716Y-93193714D01*
X215949723Y-93193716D01*
X215954552Y-93195560D01*
X215959618Y-93196591D01*
X215959619Y-93196591D01*
X216013956Y-93207646D01*
X216187928Y-93243041D01*
X216321284Y-93247931D01*
X216420760Y-93251579D01*
X216420764Y-93251579D01*
X216425924Y-93251768D01*
X216431044Y-93251112D01*
X216431046Y-93251112D01*
X216657023Y-93222164D01*
X216657024Y-93222164D01*
X216662151Y-93221507D01*
X216745200Y-93196591D01*
X216885316Y-93154554D01*
X216885317Y-93154553D01*
X216890262Y-93153070D01*
X217104133Y-93048295D01*
X217108336Y-93045297D01*
X217108341Y-93045294D01*
X217293816Y-92912996D01*
X217293818Y-92912994D01*
X217298020Y-92909997D01*
X217466716Y-92741889D01*
X217524979Y-92660807D01*
X217580972Y-92617160D01*
X217651676Y-92610714D01*
X217714640Y-92643516D01*
X217726582Y-92657176D01*
X217727274Y-92658306D01*
X217883204Y-92838317D01*
X218066442Y-92990444D01*
X218070894Y-92993046D01*
X218070899Y-92993049D01*
X218223851Y-93082427D01*
X218272065Y-93110601D01*
X218494552Y-93195560D01*
X218499618Y-93196591D01*
X218499619Y-93196591D01*
X218553956Y-93207646D01*
X218727928Y-93243041D01*
X218861284Y-93247931D01*
X218960760Y-93251579D01*
X218960764Y-93251579D01*
X218965924Y-93251768D01*
X218971044Y-93251112D01*
X218971046Y-93251112D01*
X219197023Y-93222164D01*
X219197024Y-93222164D01*
X219202151Y-93221507D01*
X219285200Y-93196591D01*
X219425316Y-93154554D01*
X219425317Y-93154553D01*
X219430262Y-93153070D01*
X219644133Y-93048295D01*
X219648336Y-93045297D01*
X219648341Y-93045294D01*
X219833816Y-92912996D01*
X219833818Y-92912994D01*
X219838020Y-92909997D01*
X220006716Y-92741889D01*
X220064979Y-92660807D01*
X220120972Y-92617160D01*
X220191676Y-92610714D01*
X220254640Y-92643516D01*
X220266582Y-92657176D01*
X220267274Y-92658306D01*
X220423204Y-92838317D01*
X220606442Y-92990444D01*
X220610894Y-92993046D01*
X220610899Y-92993049D01*
X220763851Y-93082427D01*
X220812065Y-93110601D01*
X221034552Y-93195560D01*
X221039618Y-93196591D01*
X221039619Y-93196591D01*
X221093956Y-93207646D01*
X221267928Y-93243041D01*
X221401284Y-93247931D01*
X221500760Y-93251579D01*
X221500764Y-93251579D01*
X221505924Y-93251768D01*
X221511044Y-93251112D01*
X221511046Y-93251112D01*
X221737023Y-93222164D01*
X221737024Y-93222164D01*
X221742151Y-93221507D01*
X221825200Y-93196591D01*
X221965316Y-93154554D01*
X221965317Y-93154553D01*
X221970262Y-93153070D01*
X222184133Y-93048295D01*
X222188336Y-93045297D01*
X222188341Y-93045294D01*
X222373816Y-92912996D01*
X222373818Y-92912994D01*
X222378020Y-92909997D01*
X222546716Y-92741889D01*
X222604979Y-92660807D01*
X222660972Y-92617160D01*
X222731676Y-92610714D01*
X222794640Y-92643516D01*
X222806582Y-92657176D01*
X222807274Y-92658306D01*
X222963204Y-92838317D01*
X223146442Y-92990444D01*
X223150894Y-92993046D01*
X223150899Y-92993049D01*
X223303851Y-93082427D01*
X223352065Y-93110601D01*
X223574552Y-93195560D01*
X223579618Y-93196591D01*
X223579619Y-93196591D01*
X223633956Y-93207646D01*
X223807928Y-93243041D01*
X223941284Y-93247931D01*
X224040760Y-93251579D01*
X224040764Y-93251579D01*
X224045924Y-93251768D01*
X224051044Y-93251112D01*
X224051046Y-93251112D01*
X224277023Y-93222164D01*
X224277024Y-93222164D01*
X224282151Y-93221507D01*
X224365200Y-93196591D01*
X224505316Y-93154554D01*
X224505317Y-93154553D01*
X224510262Y-93153070D01*
X224724133Y-93048295D01*
X224728336Y-93045297D01*
X224728341Y-93045294D01*
X224913810Y-92913000D01*
X224918020Y-92909997D01*
X224920601Y-92907425D01*
X224985135Y-92878913D01*
X225055278Y-92889886D01*
X225108355Y-92937039D01*
X225119502Y-92959610D01*
X225129585Y-92986505D01*
X225216939Y-93103061D01*
X225333495Y-93190415D01*
X225469884Y-93241545D01*
X225532066Y-93248300D01*
X227507934Y-93248300D01*
X227570116Y-93241545D01*
X227706505Y-93190415D01*
X227823061Y-93103061D01*
X227910415Y-92986505D01*
X227961545Y-92850116D01*
X227968300Y-92787934D01*
X227968300Y-90812066D01*
X227961545Y-90749884D01*
X227910415Y-90613495D01*
X227823061Y-90496939D01*
X227706505Y-90409585D01*
X227570116Y-90358455D01*
X227507934Y-90351700D01*
X225532066Y-90351700D01*
X225469884Y-90358455D01*
X225333495Y-90409585D01*
X225216939Y-90496939D01*
X225129585Y-90613495D01*
X225126433Y-90621903D01*
X225118218Y-90643816D01*
X225075576Y-90700580D01*
X225009014Y-90725280D01*
X224939666Y-90710072D01*
X224922144Y-90698468D01*
X224788278Y-90592747D01*
X224788273Y-90592744D01*
X224784224Y-90589546D01*
X224779708Y-90587053D01*
X224779705Y-90587051D01*
X224580250Y-90476946D01*
X224580246Y-90476944D01*
X224575726Y-90474449D01*
X224570857Y-90472725D01*
X224570853Y-90472723D01*
X224356105Y-90396676D01*
X224356101Y-90396675D01*
X224351230Y-90394950D01*
X224346140Y-90394043D01*
X224346135Y-90394042D01*
X224183981Y-90365159D01*
X224116764Y-90353186D01*
X224025355Y-90352069D01*
X223883795Y-90350339D01*
X223883793Y-90350339D01*
X223878625Y-90350276D01*
X223643209Y-90386300D01*
X223416838Y-90460289D01*
X223357616Y-90491118D01*
X223241920Y-90551346D01*
X223205590Y-90570258D01*
X223201457Y-90573361D01*
X223201454Y-90573363D01*
X223019375Y-90710072D01*
X223015140Y-90713252D01*
X222992303Y-90737150D01*
X222924667Y-90807927D01*
X222850602Y-90885431D01*
X222825723Y-90921902D01*
X222815186Y-90937349D01*
X222760274Y-90982351D01*
X222689749Y-90990522D01*
X222626002Y-90959267D01*
X222605306Y-90934784D01*
X222594217Y-90917642D01*
X222594212Y-90917636D01*
X222591406Y-90913298D01*
X222576603Y-90897029D01*
X222528472Y-90844134D01*
X222431124Y-90737150D01*
X222427073Y-90733951D01*
X222427069Y-90733947D01*
X222248278Y-90592747D01*
X222248273Y-90592744D01*
X222244224Y-90589546D01*
X222239708Y-90587053D01*
X222239705Y-90587051D01*
X222040250Y-90476946D01*
X222040246Y-90476944D01*
X222035726Y-90474449D01*
X222030857Y-90472725D01*
X222030853Y-90472723D01*
X221816105Y-90396676D01*
X221816101Y-90396675D01*
X221811230Y-90394950D01*
X221806140Y-90394043D01*
X221806135Y-90394042D01*
X221643981Y-90365159D01*
X221576764Y-90353186D01*
X221485355Y-90352069D01*
X221343795Y-90350339D01*
X221343793Y-90350339D01*
X221338625Y-90350276D01*
X221103209Y-90386300D01*
X220876838Y-90460289D01*
X220817616Y-90491118D01*
X220701920Y-90551346D01*
X220665590Y-90570258D01*
X220661457Y-90573361D01*
X220661454Y-90573363D01*
X220479375Y-90710072D01*
X220475140Y-90713252D01*
X220452303Y-90737150D01*
X220384667Y-90807927D01*
X220310602Y-90885431D01*
X220285723Y-90921902D01*
X220275186Y-90937349D01*
X220220274Y-90982351D01*
X220149749Y-90990522D01*
X220086002Y-90959267D01*
X220065306Y-90934784D01*
X220054217Y-90917642D01*
X220054212Y-90917636D01*
X220051406Y-90913298D01*
X220036603Y-90897029D01*
X219988472Y-90844134D01*
X219891124Y-90737150D01*
X219887073Y-90733951D01*
X219887069Y-90733947D01*
X219708278Y-90592747D01*
X219708273Y-90592744D01*
X219704224Y-90589546D01*
X219699708Y-90587053D01*
X219699705Y-90587051D01*
X219500250Y-90476946D01*
X219500246Y-90476944D01*
X219495726Y-90474449D01*
X219490857Y-90472725D01*
X219490853Y-90472723D01*
X219276105Y-90396676D01*
X219276101Y-90396675D01*
X219271230Y-90394950D01*
X219266140Y-90394043D01*
X219266135Y-90394042D01*
X219103981Y-90365159D01*
X219036764Y-90353186D01*
X218945355Y-90352069D01*
X218803795Y-90350339D01*
X218803793Y-90350339D01*
X218798625Y-90350276D01*
X218563209Y-90386300D01*
X218336838Y-90460289D01*
X218277616Y-90491118D01*
X218161920Y-90551346D01*
X218125590Y-90570258D01*
X218121457Y-90573361D01*
X218121454Y-90573363D01*
X217939375Y-90710072D01*
X217935140Y-90713252D01*
X217912303Y-90737150D01*
X217844667Y-90807927D01*
X217770602Y-90885431D01*
X217745723Y-90921902D01*
X217735186Y-90937349D01*
X217680274Y-90982351D01*
X217609749Y-90990522D01*
X217546002Y-90959267D01*
X217525306Y-90934784D01*
X217514217Y-90917642D01*
X217514212Y-90917636D01*
X217511406Y-90913298D01*
X217496603Y-90897029D01*
X217448472Y-90844134D01*
X217351124Y-90737150D01*
X217347073Y-90733951D01*
X217347069Y-90733947D01*
X217168278Y-90592747D01*
X217168273Y-90592744D01*
X217164224Y-90589546D01*
X217159708Y-90587053D01*
X217159705Y-90587051D01*
X216960250Y-90476946D01*
X216960246Y-90476944D01*
X216955726Y-90474449D01*
X216950857Y-90472725D01*
X216950853Y-90472723D01*
X216736105Y-90396676D01*
X216736101Y-90396675D01*
X216731230Y-90394950D01*
X216726140Y-90394043D01*
X216726135Y-90394042D01*
X216563981Y-90365159D01*
X216496764Y-90353186D01*
X216418901Y-90352235D01*
X216311339Y-90350920D01*
X216243468Y-90330087D01*
X216197634Y-90275867D01*
X216187438Y-90236786D01*
X216186913Y-90231226D01*
X216184059Y-90201038D01*
X216183500Y-90189181D01*
X216183500Y-89934500D01*
X216203502Y-89866379D01*
X216257158Y-89819886D01*
X216309500Y-89808500D01*
X216370487Y-89808500D01*
X216376939Y-89807128D01*
X216376944Y-89807128D01*
X216480706Y-89785072D01*
X216557288Y-89768794D01*
X216580409Y-89758500D01*
X216725722Y-89693803D01*
X216725724Y-89693802D01*
X216731752Y-89691118D01*
X216749596Y-89678154D01*
X216800746Y-89640991D01*
X216886253Y-89578866D01*
X216979850Y-89474916D01*
X217009621Y-89441852D01*
X217009622Y-89441851D01*
X217014040Y-89436944D01*
X217082432Y-89318486D01*
X217106223Y-89277279D01*
X217106224Y-89277278D01*
X217109527Y-89271556D01*
X217168542Y-89089928D01*
X217169233Y-89083357D01*
X217169917Y-89076855D01*
X217196932Y-89011199D01*
X217243977Y-88974922D01*
X217362335Y-88922226D01*
X217362337Y-88922225D01*
X217368365Y-88919541D01*
X217383565Y-88908498D01*
X217423770Y-88879287D01*
X217522866Y-88807289D01*
X217527110Y-88802576D01*
X217591026Y-88771900D01*
X217637530Y-88773007D01*
X217798047Y-88807127D01*
X217798060Y-88807128D01*
X217804513Y-88808500D01*
X217995487Y-88808500D01*
X218001939Y-88807128D01*
X218001944Y-88807128D01*
X218109258Y-88784317D01*
X218182288Y-88768794D01*
X218188319Y-88766109D01*
X218350722Y-88693803D01*
X218350724Y-88693802D01*
X218356752Y-88691118D01*
X218511253Y-88578866D01*
X218534778Y-88552739D01*
X218634621Y-88441852D01*
X218634622Y-88441851D01*
X218639040Y-88436944D01*
X218728944Y-88281226D01*
X218731223Y-88277279D01*
X218731224Y-88277278D01*
X218734527Y-88271556D01*
X218793542Y-88089928D01*
X218804045Y-87990000D01*
X223111681Y-87990000D01*
X223130928Y-88234557D01*
X223132082Y-88239364D01*
X223132083Y-88239370D01*
X223161919Y-88363643D01*
X223188195Y-88473092D01*
X223190088Y-88477663D01*
X223190089Y-88477665D01*
X223205184Y-88514108D01*
X223282073Y-88699732D01*
X223359236Y-88825652D01*
X223397137Y-88887500D01*
X223410248Y-88908896D01*
X223413463Y-88912660D01*
X223413465Y-88912663D01*
X223553700Y-89076855D01*
X223569567Y-89095433D01*
X223573323Y-89098641D01*
X223750072Y-89249600D01*
X223756104Y-89254752D01*
X223760327Y-89257340D01*
X223760330Y-89257342D01*
X223792865Y-89277279D01*
X223965268Y-89382927D01*
X224095676Y-89436944D01*
X224187335Y-89474911D01*
X224187337Y-89474912D01*
X224191908Y-89476805D01*
X224240530Y-89488478D01*
X224425630Y-89532917D01*
X224425636Y-89532918D01*
X224430443Y-89534072D01*
X224675000Y-89553319D01*
X224919557Y-89534072D01*
X224924364Y-89532918D01*
X224924370Y-89532917D01*
X225109470Y-89488478D01*
X225158092Y-89476805D01*
X225162663Y-89474912D01*
X225162665Y-89474911D01*
X225254324Y-89436944D01*
X225384732Y-89382927D01*
X225557135Y-89277279D01*
X225589670Y-89257342D01*
X225589673Y-89257340D01*
X225593896Y-89254752D01*
X225599929Y-89249600D01*
X225776677Y-89098641D01*
X225780433Y-89095433D01*
X225796300Y-89076855D01*
X225936535Y-88912663D01*
X225936537Y-88912660D01*
X225939752Y-88908896D01*
X225952864Y-88887500D01*
X225990764Y-88825652D01*
X226067927Y-88699732D01*
X226144816Y-88514108D01*
X226159911Y-88477665D01*
X226159912Y-88477663D01*
X226161805Y-88473092D01*
X226188081Y-88363643D01*
X226217917Y-88239370D01*
X226217918Y-88239364D01*
X226219072Y-88234557D01*
X226238319Y-87990000D01*
X226219072Y-87745443D01*
X226217916Y-87740624D01*
X226176144Y-87566635D01*
X226161805Y-87506908D01*
X226159377Y-87501045D01*
X226108593Y-87378444D01*
X226067927Y-87280268D01*
X225965854Y-87113699D01*
X225959168Y-87102788D01*
X225940630Y-87034255D01*
X225962087Y-86966578D01*
X225991035Y-86936128D01*
X226036199Y-86902279D01*
X226088261Y-86863261D01*
X226175615Y-86746705D01*
X226226745Y-86610316D01*
X226233500Y-86548134D01*
X226233500Y-84351866D01*
X226226745Y-84289684D01*
X226175615Y-84153295D01*
X226088261Y-84036739D01*
X225971705Y-83949385D01*
X225835316Y-83898255D01*
X225773134Y-83891500D01*
X223576866Y-83891500D01*
X223514684Y-83898255D01*
X223378295Y-83949385D01*
X223261739Y-84036739D01*
X223174385Y-84153295D01*
X223123255Y-84289684D01*
X223116500Y-84351866D01*
X223116500Y-86548134D01*
X223123255Y-86610316D01*
X223174385Y-86746705D01*
X223261739Y-86863261D01*
X223313801Y-86902279D01*
X223358965Y-86936128D01*
X223401479Y-86992988D01*
X223406504Y-87063806D01*
X223390832Y-87102788D01*
X223384146Y-87113699D01*
X223282073Y-87280268D01*
X223241407Y-87378444D01*
X223190624Y-87501045D01*
X223188195Y-87506908D01*
X223173856Y-87566635D01*
X223132085Y-87740624D01*
X223130928Y-87745443D01*
X223111681Y-87990000D01*
X218804045Y-87990000D01*
X218813504Y-87900000D01*
X218797739Y-87750000D01*
X218794232Y-87716635D01*
X218794232Y-87716633D01*
X218793542Y-87710072D01*
X218734527Y-87528444D01*
X218724872Y-87511720D01*
X218656792Y-87393803D01*
X218639040Y-87363056D01*
X218605804Y-87326143D01*
X218515675Y-87226045D01*
X218515674Y-87226044D01*
X218511253Y-87221134D01*
X218384405Y-87128973D01*
X218362094Y-87112763D01*
X218362093Y-87112762D01*
X218356752Y-87108882D01*
X218350724Y-87106198D01*
X218350722Y-87106197D01*
X218188319Y-87033891D01*
X218188318Y-87033891D01*
X218182288Y-87031206D01*
X218175827Y-87029833D01*
X218175822Y-87029831D01*
X218110304Y-87015904D01*
X218047830Y-86982176D01*
X218013509Y-86920026D01*
X218010501Y-86892658D01*
X218010501Y-86394066D01*
X218003746Y-86331884D01*
X217952616Y-86195495D01*
X217911974Y-86141266D01*
X217887126Y-86074761D01*
X217886800Y-86065702D01*
X217886800Y-84634298D01*
X217906802Y-84566177D01*
X217911974Y-84558733D01*
X217952616Y-84504505D01*
X218003746Y-84368116D01*
X218010501Y-84305934D01*
X218010501Y-83698300D01*
X218030503Y-83630179D01*
X218084159Y-83583686D01*
X218154433Y-83573582D01*
X218187749Y-83583193D01*
X218261677Y-83616108D01*
X218261685Y-83616111D01*
X218267712Y-83618794D01*
X218361113Y-83638647D01*
X218448056Y-83657128D01*
X218448061Y-83657128D01*
X218454513Y-83658500D01*
X218645487Y-83658500D01*
X218651939Y-83657128D01*
X218651944Y-83657128D01*
X218738887Y-83638647D01*
X218832288Y-83618794D01*
X218847757Y-83611907D01*
X219000722Y-83543803D01*
X219000724Y-83543802D01*
X219006752Y-83541118D01*
X219023678Y-83528821D01*
X219068151Y-83496509D01*
X219161253Y-83428866D01*
X219178184Y-83410062D01*
X219284621Y-83291852D01*
X219284622Y-83291851D01*
X219289040Y-83286944D01*
X219384527Y-83121556D01*
X219431595Y-82976697D01*
X219441502Y-82946207D01*
X219441502Y-82946205D01*
X219443542Y-82939928D01*
X219444232Y-82933365D01*
X219445322Y-82928236D01*
X219479051Y-82865763D01*
X219517319Y-82839328D01*
X219675722Y-82768803D01*
X219675724Y-82768802D01*
X219681752Y-82766118D01*
X219690370Y-82759857D01*
X219747541Y-82718319D01*
X219836253Y-82653866D01*
X219840675Y-82648955D01*
X219959621Y-82516852D01*
X219959622Y-82516851D01*
X219964040Y-82511944D01*
X220052832Y-82358152D01*
X220056223Y-82352279D01*
X220056224Y-82352278D01*
X220059527Y-82346556D01*
X220118542Y-82164928D01*
X220124305Y-82110102D01*
X220137814Y-81981565D01*
X220138504Y-81975000D01*
X220124156Y-81838482D01*
X220119232Y-81791635D01*
X220119232Y-81791633D01*
X220118542Y-81785072D01*
X220059527Y-81603444D01*
X220034198Y-81559572D01*
X220012921Y-81522721D01*
X219964040Y-81438056D01*
X219940839Y-81412288D01*
X219840675Y-81301045D01*
X219840674Y-81301044D01*
X219836253Y-81296134D01*
X219726362Y-81216293D01*
X219687094Y-81187763D01*
X219687093Y-81187762D01*
X219681752Y-81183882D01*
X219675724Y-81181198D01*
X219675722Y-81181197D01*
X219616882Y-81155000D01*
X223111681Y-81155000D01*
X223130928Y-81399557D01*
X223132082Y-81404364D01*
X223132083Y-81404370D01*
X223151321Y-81484500D01*
X223188195Y-81638092D01*
X223190088Y-81642663D01*
X223190089Y-81642665D01*
X223201420Y-81670019D01*
X223282073Y-81864732D01*
X223410248Y-82073896D01*
X223413463Y-82077660D01*
X223413465Y-82077663D01*
X223552341Y-82240264D01*
X223569567Y-82260433D01*
X223573323Y-82263641D01*
X223746966Y-82411947D01*
X223756104Y-82419752D01*
X223760327Y-82422340D01*
X223760330Y-82422342D01*
X223829515Y-82464738D01*
X223965268Y-82547927D01*
X224061240Y-82587680D01*
X224187335Y-82639911D01*
X224187337Y-82639912D01*
X224191908Y-82641805D01*
X224241863Y-82653798D01*
X224425630Y-82697917D01*
X224425636Y-82697918D01*
X224430443Y-82699072D01*
X224675000Y-82718319D01*
X224919557Y-82699072D01*
X224924364Y-82697918D01*
X224924370Y-82697917D01*
X225108137Y-82653798D01*
X225158092Y-82641805D01*
X225162663Y-82639912D01*
X225162665Y-82639911D01*
X225288760Y-82587680D01*
X225384732Y-82547927D01*
X225520485Y-82464738D01*
X225589670Y-82422342D01*
X225589673Y-82422340D01*
X225593896Y-82419752D01*
X225603035Y-82411947D01*
X225776677Y-82263641D01*
X225780433Y-82260433D01*
X225797659Y-82240264D01*
X225936535Y-82077663D01*
X225936537Y-82077660D01*
X225939752Y-82073896D01*
X226067927Y-81864732D01*
X226148580Y-81670019D01*
X226159911Y-81642665D01*
X226159912Y-81642663D01*
X226161805Y-81638092D01*
X226198679Y-81484500D01*
X226217917Y-81404370D01*
X226217918Y-81404364D01*
X226219072Y-81399557D01*
X226238319Y-81155000D01*
X226219072Y-80910443D01*
X226215459Y-80895390D01*
X226178601Y-80741869D01*
X226161805Y-80671908D01*
X226067927Y-80445268D01*
X225975920Y-80295125D01*
X225942342Y-80240330D01*
X225942340Y-80240327D01*
X225939752Y-80236104D01*
X225894709Y-80183365D01*
X225783641Y-80053323D01*
X225780433Y-80049567D01*
X225722398Y-80000000D01*
X225699931Y-79980811D01*
X225661122Y-79921360D01*
X225660616Y-79850365D01*
X225699931Y-79789189D01*
X225776677Y-79723641D01*
X225780433Y-79720433D01*
X225832788Y-79659134D01*
X225936535Y-79537663D01*
X225936537Y-79537660D01*
X225939752Y-79533896D01*
X225944606Y-79525976D01*
X226006707Y-79424634D01*
X226067927Y-79324732D01*
X226161805Y-79098092D01*
X226187773Y-78989928D01*
X226217917Y-78864370D01*
X226217918Y-78864364D01*
X226219072Y-78859557D01*
X226238319Y-78615000D01*
X226219072Y-78370443D01*
X226214197Y-78350134D01*
X226173302Y-78179796D01*
X226161805Y-78131908D01*
X226159377Y-78126045D01*
X226106399Y-77998148D01*
X226067927Y-77905268D01*
X225977554Y-77757791D01*
X225942342Y-77700330D01*
X225942340Y-77700327D01*
X225939752Y-77696104D01*
X225931479Y-77686417D01*
X225783641Y-77513323D01*
X225780433Y-77509567D01*
X225776374Y-77506100D01*
X225699931Y-77440811D01*
X225661122Y-77381360D01*
X225660616Y-77310365D01*
X225699931Y-77249189D01*
X225776677Y-77183641D01*
X225780433Y-77180433D01*
X225842113Y-77108216D01*
X225936535Y-76997663D01*
X225936537Y-76997660D01*
X225939752Y-76993896D01*
X225962244Y-76957193D01*
X226006860Y-76884385D01*
X226067927Y-76784732D01*
X226138732Y-76613794D01*
X226159911Y-76562665D01*
X226159912Y-76562663D01*
X226161805Y-76558092D01*
X226192823Y-76428891D01*
X226217917Y-76324370D01*
X226217918Y-76324364D01*
X226219072Y-76319557D01*
X226238319Y-76075000D01*
X226219072Y-75830443D01*
X226161805Y-75591908D01*
X226155746Y-75577279D01*
X226080742Y-75396206D01*
X226067927Y-75365268D01*
X225959168Y-75187788D01*
X225940630Y-75119255D01*
X225962087Y-75051578D01*
X225991035Y-75021128D01*
X226005787Y-75010072D01*
X226088261Y-74948261D01*
X226175615Y-74831705D01*
X226226745Y-74695316D01*
X226233500Y-74633134D01*
X226233500Y-72436866D01*
X226226745Y-72374684D01*
X226175615Y-72238295D01*
X226088261Y-72121739D01*
X225971705Y-72034385D01*
X225835316Y-71983255D01*
X225773134Y-71976500D01*
X223576866Y-71976500D01*
X223514684Y-71983255D01*
X223378295Y-72034385D01*
X223261739Y-72121739D01*
X223174385Y-72238295D01*
X223123255Y-72374684D01*
X223116500Y-72436866D01*
X223116500Y-74633134D01*
X223123255Y-74695316D01*
X223174385Y-74831705D01*
X223261739Y-74948261D01*
X223344213Y-75010072D01*
X223358965Y-75021128D01*
X223401479Y-75077988D01*
X223406504Y-75148806D01*
X223390832Y-75187788D01*
X223282073Y-75365268D01*
X223269258Y-75396206D01*
X223194255Y-75577279D01*
X223188195Y-75591908D01*
X223130928Y-75830443D01*
X223111681Y-76075000D01*
X223130928Y-76319557D01*
X223132082Y-76324364D01*
X223132083Y-76324370D01*
X223157177Y-76428891D01*
X223188195Y-76558092D01*
X223190088Y-76562663D01*
X223190089Y-76562665D01*
X223211268Y-76613794D01*
X223282073Y-76784732D01*
X223343140Y-76884385D01*
X223387757Y-76957193D01*
X223410248Y-76993896D01*
X223413463Y-76997660D01*
X223413465Y-76997663D01*
X223507887Y-77108216D01*
X223569567Y-77180433D01*
X223573323Y-77183641D01*
X223650069Y-77249189D01*
X223688878Y-77308640D01*
X223689384Y-77379635D01*
X223650069Y-77440811D01*
X223573626Y-77506100D01*
X223569567Y-77509567D01*
X223566359Y-77513323D01*
X223418522Y-77686417D01*
X223410248Y-77696104D01*
X223407660Y-77700327D01*
X223407658Y-77700330D01*
X223372446Y-77757791D01*
X223282073Y-77905268D01*
X223243601Y-77998148D01*
X223190624Y-78126045D01*
X223188195Y-78131908D01*
X223176698Y-78179796D01*
X223135804Y-78350134D01*
X223130928Y-78370443D01*
X223111681Y-78615000D01*
X223130928Y-78859557D01*
X223132082Y-78864364D01*
X223132083Y-78864370D01*
X223162227Y-78989928D01*
X223188195Y-79098092D01*
X223282073Y-79324732D01*
X223343293Y-79424634D01*
X223405395Y-79525976D01*
X223410248Y-79533896D01*
X223413463Y-79537660D01*
X223413465Y-79537663D01*
X223517212Y-79659134D01*
X223569567Y-79720433D01*
X223573323Y-79723641D01*
X223650069Y-79789189D01*
X223688878Y-79848640D01*
X223689384Y-79919635D01*
X223650069Y-79980811D01*
X223627602Y-80000000D01*
X223569567Y-80049567D01*
X223566359Y-80053323D01*
X223455292Y-80183365D01*
X223410248Y-80236104D01*
X223407660Y-80240327D01*
X223407658Y-80240330D01*
X223374080Y-80295125D01*
X223282073Y-80445268D01*
X223188195Y-80671908D01*
X223171399Y-80741869D01*
X223134542Y-80895390D01*
X223130928Y-80910443D01*
X223111681Y-81155000D01*
X219616882Y-81155000D01*
X219548618Y-81124607D01*
X219494522Y-81078627D01*
X219473873Y-81010700D01*
X219493225Y-80942391D01*
X219546436Y-80895390D01*
X219599867Y-80883500D01*
X219925400Y-80883500D01*
X219928646Y-80883163D01*
X219928650Y-80883163D01*
X220024308Y-80873238D01*
X220024312Y-80873237D01*
X220031166Y-80872526D01*
X220037702Y-80870345D01*
X220037704Y-80870345D01*
X220188653Y-80819984D01*
X220198946Y-80816550D01*
X220349348Y-80723478D01*
X220474305Y-80598303D01*
X220503154Y-80551502D01*
X220563275Y-80453968D01*
X220563276Y-80453966D01*
X220567115Y-80447738D01*
X220622797Y-80279861D01*
X220625231Y-80256111D01*
X220633172Y-80178598D01*
X220633500Y-80175400D01*
X220633500Y-79374600D01*
X220632522Y-79365176D01*
X220623238Y-79275692D01*
X220623237Y-79275688D01*
X220622526Y-79268834D01*
X220606665Y-79221291D01*
X220568868Y-79108002D01*
X220566550Y-79101054D01*
X220473478Y-78950652D01*
X220438884Y-78916118D01*
X220386537Y-78863862D01*
X220352458Y-78801579D01*
X220357461Y-78730759D01*
X220386382Y-78685671D01*
X220468739Y-78603171D01*
X220477751Y-78591760D01*
X220562816Y-78453757D01*
X220568963Y-78440576D01*
X220620138Y-78286290D01*
X220623005Y-78272914D01*
X220632672Y-78178562D01*
X220633000Y-78172146D01*
X220633000Y-78047115D01*
X220628525Y-78031876D01*
X220627135Y-78030671D01*
X220619452Y-78029000D01*
X218396115Y-78029000D01*
X218380876Y-78033474D01*
X218379111Y-78035512D01*
X218319385Y-78073896D01*
X218283886Y-78079000D01*
X216140116Y-78079000D01*
X216124877Y-78083475D01*
X216123672Y-78084865D01*
X216122001Y-78092548D01*
X216122001Y-78225416D01*
X216101999Y-78293537D01*
X216048343Y-78340030D01*
X215978069Y-78350134D01*
X215909751Y-78317269D01*
X215907018Y-78314703D01*
X215900321Y-78308414D01*
X215893374Y-78304595D01*
X215886961Y-78299935D01*
X215888750Y-78297473D01*
X215848735Y-78257222D01*
X215833500Y-78197162D01*
X215833500Y-78170998D01*
X215830562Y-78133669D01*
X215798588Y-78023611D01*
X215786357Y-77981512D01*
X215786356Y-77981510D01*
X215784145Y-77973899D01*
X215752565Y-77920500D01*
X215703491Y-77837520D01*
X215703489Y-77837517D01*
X215699453Y-77830693D01*
X215581807Y-77713047D01*
X215574983Y-77709011D01*
X215574980Y-77709009D01*
X215445427Y-77632392D01*
X215445428Y-77632392D01*
X215438601Y-77628355D01*
X215430990Y-77626144D01*
X215430988Y-77626143D01*
X215351410Y-77603024D01*
X215278831Y-77581938D01*
X215272426Y-77581434D01*
X215272421Y-77581433D01*
X215243958Y-77579193D01*
X215243950Y-77579193D01*
X215241502Y-77579000D01*
X214808498Y-77579000D01*
X214806050Y-77579193D01*
X214806042Y-77579193D01*
X214777579Y-77581433D01*
X214777574Y-77581434D01*
X214771169Y-77581938D01*
X214764994Y-77583732D01*
X214758655Y-77584890D01*
X214758147Y-77582110D01*
X214699485Y-77581978D01*
X214650579Y-77552885D01*
X216122000Y-77552885D01*
X216126475Y-77568124D01*
X216127865Y-77569329D01*
X216135548Y-77571000D01*
X216957885Y-77571000D01*
X216973124Y-77566525D01*
X216974329Y-77565135D01*
X216976000Y-77557452D01*
X216976000Y-77552885D01*
X217484000Y-77552885D01*
X217488475Y-77568124D01*
X217489865Y-77569329D01*
X217497548Y-77571000D01*
X218158885Y-77571000D01*
X218174124Y-77566526D01*
X218175889Y-77564488D01*
X218235615Y-77526104D01*
X218271114Y-77521000D01*
X219152885Y-77521000D01*
X219168124Y-77516525D01*
X219169329Y-77515135D01*
X219171000Y-77507452D01*
X219171000Y-77502885D01*
X219679000Y-77502885D01*
X219683475Y-77518124D01*
X219684865Y-77519329D01*
X219692548Y-77521000D01*
X220614884Y-77521000D01*
X220630123Y-77516525D01*
X220631328Y-77515135D01*
X220632999Y-77507452D01*
X220632999Y-77377905D01*
X220632662Y-77371386D01*
X220622743Y-77275794D01*
X220619851Y-77262400D01*
X220568412Y-77108216D01*
X220562239Y-77095038D01*
X220476937Y-76957193D01*
X220467901Y-76945792D01*
X220353171Y-76831261D01*
X220341760Y-76822249D01*
X220203757Y-76737184D01*
X220190576Y-76731037D01*
X220036290Y-76679862D01*
X220022914Y-76676995D01*
X219928562Y-76667328D01*
X219922145Y-76667000D01*
X219697115Y-76667000D01*
X219681876Y-76671475D01*
X219680671Y-76672865D01*
X219679000Y-76680548D01*
X219679000Y-77502885D01*
X219171000Y-77502885D01*
X219171000Y-76685116D01*
X219166525Y-76669877D01*
X219165135Y-76668672D01*
X219157452Y-76667001D01*
X218927905Y-76667001D01*
X218921386Y-76667338D01*
X218825794Y-76677257D01*
X218812400Y-76680149D01*
X218658216Y-76731588D01*
X218645042Y-76737760D01*
X218530303Y-76808763D01*
X218461851Y-76827601D01*
X218394081Y-76806440D01*
X218348510Y-76752000D01*
X218337999Y-76701619D01*
X218337999Y-76680331D01*
X218337629Y-76673510D01*
X218332105Y-76622648D01*
X218328479Y-76607396D01*
X218283324Y-76486946D01*
X218274786Y-76471351D01*
X218198285Y-76369276D01*
X218185724Y-76356715D01*
X218083649Y-76280214D01*
X218068054Y-76271676D01*
X217947606Y-76226522D01*
X217932351Y-76222895D01*
X217881486Y-76217369D01*
X217874672Y-76217000D01*
X217502115Y-76217000D01*
X217486876Y-76221475D01*
X217485671Y-76222865D01*
X217484000Y-76230548D01*
X217484000Y-77552885D01*
X216976000Y-77552885D01*
X216976000Y-76235116D01*
X216971525Y-76219877D01*
X216970135Y-76218672D01*
X216962452Y-76217001D01*
X216585331Y-76217001D01*
X216578510Y-76217371D01*
X216527648Y-76222895D01*
X216512396Y-76226521D01*
X216391946Y-76271676D01*
X216376351Y-76280214D01*
X216274276Y-76356715D01*
X216261715Y-76369276D01*
X216185214Y-76471351D01*
X216176676Y-76486946D01*
X216131522Y-76607394D01*
X216127895Y-76622649D01*
X216122369Y-76673514D01*
X216122000Y-76680328D01*
X216122000Y-77552885D01*
X214650579Y-77552885D01*
X214646161Y-77550257D01*
X214609228Y-77513323D01*
X214528647Y-77432742D01*
X214521113Y-77424463D01*
X214517000Y-77417982D01*
X214467348Y-77371356D01*
X214464507Y-77368602D01*
X214444770Y-77348865D01*
X214441573Y-77346385D01*
X214432551Y-77338680D01*
X214424196Y-77330834D01*
X214400321Y-77308414D01*
X214393375Y-77304595D01*
X214393372Y-77304593D01*
X214382566Y-77298652D01*
X214366047Y-77287801D01*
X214365583Y-77287441D01*
X214350041Y-77275386D01*
X214342772Y-77272241D01*
X214342768Y-77272238D01*
X214309463Y-77257826D01*
X214298813Y-77252609D01*
X214260060Y-77231305D01*
X214240437Y-77226267D01*
X214221734Y-77219863D01*
X214210420Y-77214967D01*
X214210419Y-77214967D01*
X214203145Y-77211819D01*
X214195322Y-77210580D01*
X214195312Y-77210577D01*
X214159476Y-77204901D01*
X214147856Y-77202495D01*
X214112711Y-77193472D01*
X214112710Y-77193472D01*
X214105030Y-77191500D01*
X214084776Y-77191500D01*
X214065065Y-77189949D01*
X214052886Y-77188020D01*
X214045057Y-77186780D01*
X214037165Y-77187526D01*
X214001039Y-77190941D01*
X213989181Y-77191500D01*
X213904500Y-77191500D01*
X213836379Y-77171498D01*
X213789886Y-77117842D01*
X213778500Y-77065500D01*
X213778500Y-76676866D01*
X213771745Y-76614684D01*
X213720615Y-76478295D01*
X213633261Y-76361739D01*
X213516705Y-76274385D01*
X213380316Y-76223255D01*
X213318134Y-76216500D01*
X212021866Y-76216500D01*
X211959684Y-76223255D01*
X211823295Y-76274385D01*
X211706739Y-76361739D01*
X211619385Y-76478295D01*
X211568255Y-76614684D01*
X211561500Y-76676866D01*
X211561500Y-77197626D01*
X211541498Y-77265747D01*
X211487842Y-77312240D01*
X211417568Y-77322344D01*
X211384252Y-77312733D01*
X211263323Y-77258892D01*
X211263315Y-77258889D01*
X211257288Y-77256206D01*
X211163888Y-77236353D01*
X211076944Y-77217872D01*
X211076939Y-77217872D01*
X211070487Y-77216500D01*
X211011005Y-77216500D01*
X210942884Y-77196498D01*
X210896391Y-77142842D01*
X210893023Y-77134730D01*
X210878767Y-77096703D01*
X210875615Y-77088295D01*
X210788261Y-76971739D01*
X210671705Y-76884385D01*
X210641288Y-76872982D01*
X210584524Y-76830340D01*
X210559824Y-76763778D01*
X210575032Y-76694430D01*
X210625318Y-76644312D01*
X210641288Y-76637018D01*
X210663297Y-76628767D01*
X210671705Y-76625615D01*
X210788261Y-76538261D01*
X210875615Y-76421705D01*
X210926745Y-76285316D01*
X210933500Y-76223134D01*
X210933500Y-74773134D01*
X211541500Y-74773134D01*
X211548255Y-74835316D01*
X211599385Y-74971705D01*
X211686739Y-75088261D01*
X211803295Y-75175615D01*
X211939684Y-75226745D01*
X212001866Y-75233500D01*
X217898134Y-75233500D01*
X217960316Y-75226745D01*
X218096705Y-75175615D01*
X218213261Y-75088261D01*
X218300615Y-74971705D01*
X218351745Y-74835316D01*
X218358500Y-74773134D01*
X218358500Y-68276866D01*
X218351745Y-68214684D01*
X218300615Y-68078295D01*
X218213261Y-67961739D01*
X218096705Y-67874385D01*
X217960316Y-67823255D01*
X217898134Y-67816500D01*
X212001866Y-67816500D01*
X211939684Y-67823255D01*
X211803295Y-67874385D01*
X211686739Y-67961739D01*
X211599385Y-68078295D01*
X211548255Y-68214684D01*
X211541500Y-68276866D01*
X211541500Y-74773134D01*
X210933500Y-74773134D01*
X210933500Y-74626866D01*
X210926745Y-74564684D01*
X210875615Y-74428295D01*
X210863975Y-74412763D01*
X210833674Y-74372333D01*
X210808826Y-74305826D01*
X210808500Y-74296768D01*
X210808500Y-74102524D01*
X210828502Y-74034403D01*
X210840858Y-74018221D01*
X210914040Y-73936944D01*
X211009527Y-73771556D01*
X211068542Y-73589928D01*
X211088504Y-73400000D01*
X211071397Y-73237237D01*
X211069232Y-73216635D01*
X211069232Y-73216633D01*
X211068542Y-73210072D01*
X211009527Y-73028444D01*
X211002813Y-73016814D01*
X210924519Y-72881206D01*
X210914040Y-72863056D01*
X210786253Y-72721134D01*
X210631752Y-72608882D01*
X210625724Y-72606198D01*
X210625722Y-72606197D01*
X210463319Y-72533891D01*
X210463318Y-72533891D01*
X210457288Y-72531206D01*
X210363887Y-72511353D01*
X210276944Y-72492872D01*
X210276939Y-72492872D01*
X210270487Y-72491500D01*
X210079513Y-72491500D01*
X210073061Y-72492872D01*
X210073056Y-72492872D01*
X209986112Y-72511353D01*
X209892712Y-72531206D01*
X209886682Y-72533891D01*
X209886681Y-72533891D01*
X209724278Y-72606197D01*
X209724276Y-72606198D01*
X209718248Y-72608882D01*
X209563747Y-72721134D01*
X209435960Y-72863056D01*
X209369667Y-72977879D01*
X209318286Y-73026871D01*
X209248572Y-73040308D01*
X209186488Y-73016814D01*
X209112094Y-72962763D01*
X209112093Y-72962762D01*
X209106752Y-72958882D01*
X209100724Y-72956198D01*
X209100722Y-72956197D01*
X208938319Y-72883891D01*
X208938318Y-72883891D01*
X208932288Y-72881206D01*
X208838887Y-72861353D01*
X208751944Y-72842872D01*
X208751939Y-72842872D01*
X208745487Y-72841500D01*
X208554513Y-72841500D01*
X208548061Y-72842872D01*
X208548056Y-72842872D01*
X208461113Y-72861353D01*
X208367712Y-72881206D01*
X208361682Y-72883891D01*
X208361681Y-72883891D01*
X208199278Y-72956197D01*
X208199276Y-72956198D01*
X208193248Y-72958882D01*
X208038747Y-73071134D01*
X208034326Y-73076044D01*
X208034325Y-73076045D01*
X207919300Y-73203794D01*
X207910960Y-73213056D01*
X207815473Y-73378444D01*
X207756458Y-73560072D01*
X207755768Y-73566633D01*
X207755768Y-73566635D01*
X207742877Y-73689292D01*
X207736496Y-73750000D01*
X207737186Y-73756565D01*
X207755061Y-73926632D01*
X207756458Y-73939928D01*
X207815473Y-74121556D01*
X207910960Y-74286944D01*
X207915378Y-74291851D01*
X207915379Y-74291852D01*
X207996805Y-74382285D01*
X208038747Y-74428866D01*
X208044089Y-74432747D01*
X208044091Y-74432749D01*
X208164804Y-74520452D01*
X208208158Y-74576674D01*
X208216182Y-74626866D01*
X208216500Y-74626866D01*
X208216500Y-74759995D01*
X208196498Y-74828116D01*
X208142842Y-74874609D01*
X208072568Y-74884713D01*
X208007988Y-74855219D01*
X207981381Y-74822995D01*
X207907665Y-74695316D01*
X207889040Y-74663056D01*
X207859022Y-74629717D01*
X207765675Y-74526045D01*
X207765674Y-74526044D01*
X207761253Y-74521134D01*
X207606752Y-74408882D01*
X207600724Y-74406198D01*
X207600722Y-74406197D01*
X207438319Y-74333891D01*
X207438318Y-74333891D01*
X207432288Y-74331206D01*
X207338887Y-74311353D01*
X207251944Y-74292872D01*
X207251939Y-74292872D01*
X207245487Y-74291500D01*
X207054513Y-74291500D01*
X207048061Y-74292872D01*
X207048056Y-74292872D01*
X206961113Y-74311353D01*
X206867712Y-74331206D01*
X206861682Y-74333891D01*
X206861681Y-74333891D01*
X206699278Y-74406197D01*
X206699276Y-74406198D01*
X206693248Y-74408882D01*
X206538747Y-74521134D01*
X206534326Y-74526044D01*
X206534325Y-74526045D01*
X206440979Y-74629717D01*
X206410960Y-74663056D01*
X206315473Y-74828444D01*
X206256458Y-75010072D01*
X206255768Y-75016633D01*
X206255768Y-75016635D01*
X206241877Y-75148806D01*
X206236496Y-75200000D01*
X206237186Y-75206565D01*
X206254347Y-75369839D01*
X206256458Y-75389928D01*
X206315473Y-75571556D01*
X206410960Y-75736944D01*
X206484137Y-75818215D01*
X206514853Y-75882221D01*
X206516500Y-75902524D01*
X206516500Y-76810405D01*
X206496498Y-76878526D01*
X206479595Y-76899500D01*
X206145242Y-77233853D01*
X206136963Y-77241387D01*
X206130482Y-77245500D01*
X206094827Y-77283469D01*
X206083857Y-77295151D01*
X206081102Y-77297993D01*
X206061365Y-77317730D01*
X206058885Y-77320927D01*
X206051182Y-77329947D01*
X206020914Y-77362179D01*
X206017095Y-77369125D01*
X206017093Y-77369128D01*
X206011152Y-77379934D01*
X206000301Y-77396453D01*
X205987886Y-77412459D01*
X205984741Y-77419728D01*
X205984738Y-77419732D01*
X205970326Y-77453037D01*
X205965109Y-77463687D01*
X205943805Y-77502440D01*
X205941834Y-77510115D01*
X205941834Y-77510116D01*
X205938767Y-77522062D01*
X205932363Y-77540766D01*
X205924319Y-77559355D01*
X205923080Y-77567178D01*
X205923077Y-77567188D01*
X205917401Y-77603024D01*
X205914995Y-77614644D01*
X205908768Y-77638899D01*
X205904000Y-77657470D01*
X205904000Y-77677724D01*
X205902449Y-77697434D01*
X205899280Y-77717443D01*
X205900026Y-77725335D01*
X205903441Y-77761461D01*
X205904000Y-77773319D01*
X205904000Y-78683033D01*
X205883998Y-78751154D01*
X205830342Y-78797647D01*
X205813152Y-78804030D01*
X205694014Y-78838642D01*
X205694009Y-78838644D01*
X205686399Y-78840855D01*
X205679572Y-78844892D01*
X205679573Y-78844892D01*
X205550020Y-78921509D01*
X205550017Y-78921511D01*
X205543193Y-78925547D01*
X205425547Y-79043193D01*
X205421511Y-79050017D01*
X205421509Y-79050020D01*
X205342953Y-79182851D01*
X205291060Y-79231304D01*
X205221210Y-79244009D01*
X205155579Y-79216933D01*
X205115005Y-79158673D01*
X205108500Y-79118712D01*
X205108500Y-79012100D01*
X205106322Y-78991109D01*
X205098238Y-78913192D01*
X205098237Y-78913188D01*
X205097526Y-78906334D01*
X205079392Y-78851978D01*
X205043868Y-78745502D01*
X205041550Y-78738554D01*
X204948478Y-78588152D01*
X204823303Y-78463195D01*
X204807992Y-78453757D01*
X204678968Y-78374225D01*
X204678966Y-78374224D01*
X204672738Y-78370385D01*
X204592568Y-78343794D01*
X204511389Y-78316868D01*
X204511387Y-78316868D01*
X204504861Y-78314703D01*
X204498025Y-78314003D01*
X204498022Y-78314002D01*
X204454969Y-78309591D01*
X204400400Y-78304000D01*
X203349600Y-78304000D01*
X203346354Y-78304337D01*
X203346350Y-78304337D01*
X203243834Y-78314974D01*
X203243560Y-78312330D01*
X203184766Y-78308033D01*
X203127997Y-78265398D01*
X203119863Y-78253046D01*
X203119377Y-78252203D01*
X203039040Y-78113056D01*
X202994557Y-78063652D01*
X202915675Y-77976045D01*
X202915674Y-77976044D01*
X202911253Y-77971134D01*
X202770966Y-77869209D01*
X202762094Y-77862763D01*
X202762093Y-77862762D01*
X202756752Y-77858882D01*
X202750724Y-77856198D01*
X202750722Y-77856197D01*
X202588319Y-77783891D01*
X202588318Y-77783891D01*
X202582288Y-77781206D01*
X202472130Y-77757791D01*
X202401944Y-77742872D01*
X202401939Y-77742872D01*
X202395487Y-77741500D01*
X202204513Y-77741500D01*
X202198061Y-77742872D01*
X202198056Y-77742872D01*
X202127870Y-77757791D01*
X202017712Y-77781206D01*
X202011682Y-77783891D01*
X202011681Y-77783891D01*
X201849278Y-77856197D01*
X201849276Y-77856198D01*
X201843248Y-77858882D01*
X201837907Y-77862762D01*
X201837906Y-77862763D01*
X201829034Y-77869209D01*
X201688747Y-77971134D01*
X201684326Y-77976044D01*
X201684325Y-77976045D01*
X201605444Y-78063652D01*
X201560960Y-78113056D01*
X201557661Y-78118769D01*
X201557658Y-78118774D01*
X201503710Y-78212215D01*
X201452327Y-78261208D01*
X201382613Y-78274644D01*
X201354924Y-78268808D01*
X201311389Y-78254368D01*
X201311387Y-78254368D01*
X201304861Y-78252203D01*
X201298025Y-78251503D01*
X201298022Y-78251502D01*
X201254969Y-78247091D01*
X201200400Y-78241500D01*
X200199600Y-78241500D01*
X200196354Y-78241837D01*
X200196350Y-78241837D01*
X200100692Y-78251762D01*
X200100688Y-78251763D01*
X200093834Y-78252474D01*
X200087298Y-78254655D01*
X200087296Y-78254655D01*
X199969728Y-78293879D01*
X199926054Y-78308450D01*
X199775652Y-78401522D01*
X199770479Y-78406704D01*
X199748777Y-78428444D01*
X199650695Y-78526697D01*
X199646855Y-78532927D01*
X199646854Y-78532928D01*
X199599302Y-78610072D01*
X199557885Y-78677262D01*
X199536062Y-78743056D01*
X199509928Y-78821850D01*
X199502203Y-78845139D01*
X199501503Y-78851975D01*
X199501502Y-78851978D01*
X199498660Y-78879717D01*
X199491500Y-78949600D01*
X199491500Y-79415500D01*
X199471498Y-79483621D01*
X199417842Y-79530114D01*
X199365500Y-79541500D01*
X198486857Y-79541500D01*
X198418736Y-79521498D01*
X198372243Y-79467842D01*
X198362139Y-79397568D01*
X198384862Y-79341584D01*
X198389040Y-79336944D01*
X198421293Y-79281081D01*
X198481223Y-79177279D01*
X198481224Y-79177278D01*
X198484527Y-79171556D01*
X198543542Y-78989928D01*
X198547016Y-78956880D01*
X198562814Y-78806565D01*
X198563504Y-78800000D01*
X198556139Y-78729928D01*
X198544232Y-78616635D01*
X198544232Y-78616633D01*
X198543542Y-78610072D01*
X198484527Y-78428444D01*
X198473783Y-78409834D01*
X198435654Y-78343794D01*
X198389040Y-78263056D01*
X198369935Y-78241837D01*
X198265675Y-78126045D01*
X198265674Y-78126044D01*
X198261253Y-78121134D01*
X198140600Y-78033474D01*
X198112094Y-78012763D01*
X198112093Y-78012762D01*
X198106752Y-78008882D01*
X198100724Y-78006198D01*
X198100722Y-78006197D01*
X197938319Y-77933891D01*
X197938318Y-77933891D01*
X197932288Y-77931206D01*
X197830175Y-77909501D01*
X197751944Y-77892872D01*
X197751939Y-77892872D01*
X197745487Y-77891500D01*
X197554513Y-77891500D01*
X197548061Y-77892872D01*
X197548056Y-77892872D01*
X197469825Y-77909501D01*
X197367712Y-77931206D01*
X197361682Y-77933891D01*
X197361681Y-77933891D01*
X197199278Y-78006197D01*
X197199276Y-78006198D01*
X197193248Y-78008882D01*
X197187907Y-78012762D01*
X197187906Y-78012763D01*
X197159400Y-78033474D01*
X197038747Y-78121134D01*
X197034326Y-78126044D01*
X197034325Y-78126045D01*
X196930066Y-78241837D01*
X196910960Y-78263056D01*
X196864346Y-78343794D01*
X196826218Y-78409834D01*
X196815473Y-78428444D01*
X196756458Y-78610072D01*
X196755768Y-78616633D01*
X196755768Y-78616635D01*
X196743861Y-78729928D01*
X196736496Y-78800000D01*
X196737186Y-78806565D01*
X196752985Y-78956880D01*
X196756458Y-78989928D01*
X196815473Y-79171556D01*
X196818776Y-79177278D01*
X196818777Y-79177279D01*
X196820196Y-79179737D01*
X196842788Y-79218866D01*
X196868092Y-79262694D01*
X196884830Y-79331689D01*
X196861610Y-79398781D01*
X196833034Y-79427630D01*
X196738747Y-79496134D01*
X196734326Y-79501044D01*
X196734325Y-79501045D01*
X196619615Y-79628444D01*
X196610960Y-79638056D01*
X196560214Y-79725950D01*
X196521404Y-79793172D01*
X196515473Y-79803444D01*
X196456458Y-79985072D01*
X196454556Y-79984454D01*
X196425354Y-80038558D01*
X196363208Y-80072886D01*
X196292369Y-80068166D01*
X196235327Y-80025896D01*
X196228682Y-80016201D01*
X196222719Y-80006565D01*
X196183478Y-79943152D01*
X196058303Y-79818195D01*
X196054084Y-79815594D01*
X196013583Y-79758470D01*
X196010351Y-79687547D01*
X196045976Y-79626135D01*
X196053530Y-79619578D01*
X196059348Y-79615978D01*
X196184305Y-79490803D01*
X196197173Y-79469928D01*
X196273275Y-79346468D01*
X196273276Y-79346466D01*
X196277115Y-79340238D01*
X196322422Y-79203642D01*
X196330632Y-79178889D01*
X196330632Y-79178887D01*
X196332797Y-79172361D01*
X196333524Y-79165271D01*
X196340103Y-79101054D01*
X196343500Y-79067900D01*
X196343500Y-78292100D01*
X196341689Y-78274644D01*
X196333238Y-78193192D01*
X196333237Y-78193188D01*
X196332526Y-78186334D01*
X196328655Y-78174729D01*
X196278868Y-78025502D01*
X196276550Y-78018554D01*
X196183478Y-77868152D01*
X196058303Y-77743195D01*
X196016526Y-77717443D01*
X195913968Y-77654225D01*
X195913966Y-77654224D01*
X195907738Y-77650385D01*
X195799982Y-77614644D01*
X195746389Y-77596868D01*
X195746387Y-77596868D01*
X195739861Y-77594703D01*
X195733025Y-77594003D01*
X195733022Y-77594002D01*
X195689969Y-77589591D01*
X195635400Y-77584000D01*
X194584600Y-77584000D01*
X194581354Y-77584337D01*
X194581350Y-77584337D01*
X194485692Y-77594262D01*
X194485688Y-77594263D01*
X194478834Y-77594974D01*
X194472298Y-77597155D01*
X194472296Y-77597155D01*
X194367635Y-77632073D01*
X194311054Y-77650950D01*
X194160652Y-77744022D01*
X194039078Y-77865808D01*
X194036888Y-77868002D01*
X194035695Y-77869197D01*
X194035115Y-77868618D01*
X193982009Y-77906269D01*
X193911086Y-77909501D01*
X193878705Y-77894516D01*
X193877811Y-77896064D01*
X193872093Y-77892763D01*
X193866752Y-77888882D01*
X193860724Y-77886198D01*
X193860722Y-77886197D01*
X193698319Y-77813891D01*
X193698318Y-77813891D01*
X193692288Y-77811206D01*
X193597481Y-77791054D01*
X193511944Y-77772872D01*
X193511939Y-77772872D01*
X193505487Y-77771500D01*
X193314513Y-77771500D01*
X193308061Y-77772872D01*
X193308056Y-77772872D01*
X193222519Y-77791054D01*
X193127712Y-77811206D01*
X193121682Y-77813891D01*
X193121681Y-77813891D01*
X192959278Y-77886197D01*
X192959276Y-77886198D01*
X192953248Y-77888882D01*
X192947907Y-77892762D01*
X192947906Y-77892763D01*
X192894994Y-77931206D01*
X192798747Y-78001134D01*
X192794332Y-78006037D01*
X192789420Y-78010460D01*
X192788295Y-78009211D01*
X192734986Y-78042051D01*
X192701800Y-78046500D01*
X192694500Y-78046500D01*
X192626379Y-78026498D01*
X192579886Y-77972842D01*
X192568500Y-77920500D01*
X192568500Y-77835998D01*
X192568307Y-77833542D01*
X192566067Y-77805079D01*
X192566066Y-77805074D01*
X192565562Y-77798669D01*
X192526844Y-77665399D01*
X192521357Y-77646512D01*
X192521356Y-77646510D01*
X192519145Y-77638899D01*
X192493168Y-77594974D01*
X192438491Y-77502520D01*
X192438489Y-77502517D01*
X192434453Y-77495693D01*
X192316807Y-77378047D01*
X192309983Y-77374011D01*
X192309980Y-77374009D01*
X192180427Y-77297392D01*
X192180428Y-77297392D01*
X192173601Y-77293355D01*
X192165990Y-77291144D01*
X192165988Y-77291143D01*
X192100915Y-77272238D01*
X192013831Y-77246938D01*
X192007426Y-77246434D01*
X192007421Y-77246433D01*
X191978958Y-77244193D01*
X191978950Y-77244193D01*
X191976502Y-77244000D01*
X191543498Y-77244000D01*
X191541050Y-77244193D01*
X191541042Y-77244193D01*
X191512579Y-77246433D01*
X191512574Y-77246434D01*
X191506169Y-77246938D01*
X191419085Y-77272238D01*
X191354012Y-77291143D01*
X191354010Y-77291144D01*
X191346399Y-77293355D01*
X191339572Y-77297392D01*
X191339573Y-77297392D01*
X191210020Y-77374009D01*
X191210017Y-77374011D01*
X191203193Y-77378047D01*
X191085547Y-77495693D01*
X191081511Y-77502517D01*
X191081509Y-77502520D01*
X191026832Y-77594974D01*
X191000855Y-77638899D01*
X190998644Y-77646510D01*
X190998643Y-77646512D01*
X190993156Y-77665399D01*
X190954438Y-77798669D01*
X190953934Y-77805074D01*
X190953933Y-77805079D01*
X190951693Y-77833542D01*
X190951500Y-77835998D01*
X190951500Y-78993000D01*
X190931498Y-79061121D01*
X190877842Y-79107614D01*
X190825500Y-79119000D01*
X190593498Y-79119000D01*
X190591050Y-79119193D01*
X190591042Y-79119193D01*
X190562579Y-79121433D01*
X190562574Y-79121434D01*
X190556169Y-79121938D01*
X190474370Y-79145703D01*
X190404008Y-79166144D01*
X190404005Y-79166145D01*
X190396399Y-79168355D01*
X190391637Y-79171171D01*
X190322230Y-79179737D01*
X190258252Y-79148957D01*
X190249018Y-79139713D01*
X190155675Y-79036045D01*
X190155674Y-79036044D01*
X190151253Y-79031134D01*
X190041918Y-78951697D01*
X190002094Y-78922763D01*
X190002093Y-78922762D01*
X189996752Y-78918882D01*
X189990724Y-78916198D01*
X189990722Y-78916197D01*
X189828319Y-78843891D01*
X189828318Y-78843891D01*
X189822288Y-78841206D01*
X189728887Y-78821353D01*
X189641944Y-78802872D01*
X189641939Y-78802872D01*
X189635487Y-78801500D01*
X189444513Y-78801500D01*
X189438061Y-78802872D01*
X189438056Y-78802872D01*
X189351113Y-78821353D01*
X189257712Y-78841206D01*
X189251682Y-78843891D01*
X189251681Y-78843891D01*
X189089278Y-78916197D01*
X189089276Y-78916198D01*
X189083248Y-78918882D01*
X189077907Y-78922762D01*
X189077906Y-78922763D01*
X189038082Y-78951697D01*
X188928747Y-79031134D01*
X188924326Y-79036044D01*
X188924325Y-79036045D01*
X188807184Y-79166144D01*
X188800960Y-79173056D01*
X188741703Y-79275692D01*
X188707933Y-79334183D01*
X188656550Y-79383176D01*
X188586837Y-79396612D01*
X188520926Y-79370226D01*
X188479744Y-79312393D01*
X188474283Y-79279918D01*
X188473504Y-79280000D01*
X188454232Y-79096635D01*
X188454232Y-79096633D01*
X188453542Y-79090072D01*
X188394527Y-78908444D01*
X188381876Y-78886531D01*
X188302341Y-78748774D01*
X188299040Y-78743056D01*
X188247371Y-78685671D01*
X188175675Y-78606045D01*
X188175674Y-78606044D01*
X188171253Y-78601134D01*
X188016752Y-78488882D01*
X188010724Y-78486198D01*
X188010722Y-78486197D01*
X187848319Y-78413891D01*
X187848318Y-78413891D01*
X187842288Y-78411206D01*
X187748888Y-78391353D01*
X187661944Y-78372872D01*
X187661939Y-78372872D01*
X187655487Y-78371500D01*
X187599595Y-78371500D01*
X187531474Y-78351498D01*
X187510500Y-78334595D01*
X187373652Y-78197747D01*
X187366112Y-78189461D01*
X187362000Y-78182982D01*
X187346519Y-78168444D01*
X187312349Y-78136357D01*
X187309507Y-78133602D01*
X187289770Y-78113865D01*
X187286573Y-78111385D01*
X187277551Y-78103680D01*
X187256035Y-78083475D01*
X187245321Y-78073414D01*
X187238375Y-78069595D01*
X187238372Y-78069593D01*
X187227566Y-78063652D01*
X187211047Y-78052801D01*
X187202923Y-78046500D01*
X187195041Y-78040386D01*
X187187772Y-78037241D01*
X187187768Y-78037238D01*
X187154463Y-78022826D01*
X187143813Y-78017609D01*
X187105060Y-77996305D01*
X187097375Y-77994332D01*
X187093751Y-77992897D01*
X187037777Y-77949223D01*
X187020610Y-77915621D01*
X186981370Y-77798007D01*
X186981369Y-77798005D01*
X186979050Y-77791054D01*
X186885978Y-77640652D01*
X186760803Y-77515695D01*
X186750862Y-77509567D01*
X186616468Y-77426725D01*
X186616466Y-77426724D01*
X186610238Y-77422885D01*
X186491966Y-77383656D01*
X186448889Y-77369368D01*
X186448887Y-77369368D01*
X186442361Y-77367203D01*
X186435525Y-77366503D01*
X186435522Y-77366502D01*
X186388388Y-77361673D01*
X186337900Y-77356500D01*
X185562100Y-77356500D01*
X185558854Y-77356837D01*
X185558850Y-77356837D01*
X185463192Y-77366762D01*
X185463188Y-77366763D01*
X185456334Y-77367474D01*
X185449798Y-77369655D01*
X185449796Y-77369655D01*
X185340261Y-77406199D01*
X185288554Y-77423450D01*
X185138152Y-77516522D01*
X185013195Y-77641697D01*
X185010594Y-77645916D01*
X184953470Y-77686417D01*
X184882547Y-77689649D01*
X184821135Y-77654024D01*
X184814578Y-77646470D01*
X184810978Y-77640652D01*
X184685803Y-77515695D01*
X184675862Y-77509567D01*
X184541468Y-77426725D01*
X184541466Y-77426724D01*
X184535238Y-77422885D01*
X184416966Y-77383656D01*
X184373889Y-77369368D01*
X184373887Y-77369368D01*
X184367361Y-77367203D01*
X184360525Y-77366503D01*
X184360522Y-77366502D01*
X184313388Y-77361673D01*
X184262900Y-77356500D01*
X183487100Y-77356500D01*
X183483854Y-77356837D01*
X183483850Y-77356837D01*
X183388192Y-77366762D01*
X183388188Y-77366763D01*
X183381334Y-77367474D01*
X183374798Y-77369655D01*
X183374796Y-77369655D01*
X183265261Y-77406199D01*
X183213554Y-77423450D01*
X183063152Y-77516522D01*
X182938195Y-77641697D01*
X182934355Y-77647927D01*
X182933654Y-77649064D01*
X182932973Y-77649677D01*
X182929817Y-77653673D01*
X182929133Y-77653133D01*
X182880881Y-77696556D01*
X182810809Y-77707978D01*
X182745686Y-77679704D01*
X182737386Y-77672127D01*
X182650803Y-77585695D01*
X182639942Y-77579000D01*
X182506468Y-77496725D01*
X182506466Y-77496724D01*
X182500238Y-77492885D01*
X182424211Y-77467668D01*
X182365852Y-77427237D01*
X182338615Y-77361673D01*
X182351149Y-77291791D01*
X182354760Y-77285075D01*
X182360119Y-77275794D01*
X182414527Y-77181556D01*
X182473542Y-76999928D01*
X182493504Y-76810000D01*
X182485205Y-76731037D01*
X182474232Y-76626635D01*
X182474232Y-76626633D01*
X182473542Y-76620072D01*
X182414527Y-76438444D01*
X182319040Y-76273056D01*
X182293524Y-76244717D01*
X182195675Y-76136045D01*
X182195674Y-76136044D01*
X182191253Y-76131134D01*
X182036752Y-76018882D01*
X182030724Y-76016198D01*
X182030722Y-76016197D01*
X181868319Y-75943891D01*
X181868318Y-75943891D01*
X181862288Y-75941206D01*
X181768887Y-75921353D01*
X181681944Y-75902872D01*
X181681939Y-75902872D01*
X181675487Y-75901500D01*
X181484513Y-75901500D01*
X181478061Y-75902872D01*
X181478056Y-75902872D01*
X181391113Y-75921353D01*
X181297712Y-75941206D01*
X181291682Y-75943891D01*
X181291681Y-75943891D01*
X181129278Y-76016197D01*
X181129276Y-76016198D01*
X181123248Y-76018882D01*
X180968747Y-76131134D01*
X180964326Y-76136044D01*
X180964325Y-76136045D01*
X180866477Y-76244717D01*
X180840960Y-76273056D01*
X180745473Y-76438444D01*
X180686458Y-76620072D01*
X180685768Y-76626633D01*
X180685768Y-76626635D01*
X180674795Y-76731037D01*
X180666496Y-76810000D01*
X180686458Y-76999928D01*
X180745473Y-77181556D01*
X180748776Y-77187277D01*
X180826047Y-77321115D01*
X180842785Y-77390111D01*
X180819564Y-77457202D01*
X180777717Y-77492097D01*
X180778554Y-77493450D01*
X180628152Y-77586522D01*
X180622979Y-77591704D01*
X180611755Y-77602948D01*
X180503195Y-77711697D01*
X180499355Y-77717927D01*
X180499354Y-77717928D01*
X180438773Y-77816209D01*
X180410385Y-77862262D01*
X180387517Y-77931206D01*
X180357129Y-78022826D01*
X180354703Y-78030139D01*
X180354003Y-78036975D01*
X180354002Y-78036978D01*
X180352453Y-78052095D01*
X180344000Y-78134600D01*
X180344000Y-79085400D01*
X180061000Y-79085400D01*
X180061000Y-78134600D01*
X180060663Y-78131350D01*
X180050738Y-78035692D01*
X180050737Y-78035688D01*
X180050026Y-78028834D01*
X180046597Y-78018554D01*
X179996368Y-77868002D01*
X179994050Y-77861054D01*
X179900978Y-77710652D01*
X179775803Y-77585695D01*
X179764942Y-77579000D01*
X179631468Y-77496725D01*
X179631466Y-77496724D01*
X179625238Y-77492885D01*
X179521537Y-77458489D01*
X179463889Y-77439368D01*
X179463887Y-77439368D01*
X179457361Y-77437203D01*
X179450525Y-77436503D01*
X179450522Y-77436502D01*
X179407469Y-77432091D01*
X179352900Y-77426500D01*
X178177100Y-77426500D01*
X178173854Y-77426837D01*
X178173850Y-77426837D01*
X178078192Y-77436762D01*
X178078188Y-77436763D01*
X178071334Y-77437474D01*
X178064798Y-77439655D01*
X178064796Y-77439655D01*
X177980832Y-77467668D01*
X177903554Y-77493450D01*
X177753152Y-77586522D01*
X177747979Y-77591704D01*
X177736755Y-77602948D01*
X177628195Y-77711697D01*
X177624932Y-77716990D01*
X177567385Y-77757791D01*
X177496462Y-77761023D01*
X177467402Y-77749354D01*
X177466752Y-77748882D01*
X177445352Y-77739354D01*
X177298319Y-77673891D01*
X177298318Y-77673891D01*
X177292288Y-77671206D01*
X177196992Y-77650950D01*
X177111944Y-77632872D01*
X177111939Y-77632872D01*
X177105487Y-77631500D01*
X176914513Y-77631500D01*
X176908061Y-77632872D01*
X176908056Y-77632872D01*
X176823008Y-77650950D01*
X176727712Y-77671206D01*
X176721682Y-77673891D01*
X176721681Y-77673891D01*
X176559278Y-77746197D01*
X176559276Y-77746198D01*
X176553248Y-77748882D01*
X176547907Y-77752762D01*
X176547906Y-77752763D01*
X176527795Y-77767375D01*
X176398747Y-77861134D01*
X176394326Y-77866044D01*
X176394325Y-77866045D01*
X176277039Y-77996305D01*
X176270960Y-78003056D01*
X176219292Y-78092548D01*
X176191850Y-78140079D01*
X176175473Y-78168444D01*
X176116458Y-78350072D01*
X176115768Y-78356633D01*
X176115768Y-78356635D01*
X176109750Y-78413891D01*
X176096496Y-78540000D01*
X175631806Y-78540000D01*
X175625120Y-72776695D01*
X184087251Y-72776695D01*
X184087548Y-72781848D01*
X184087548Y-72781851D01*
X184093011Y-72876590D01*
X184100110Y-72999715D01*
X184101247Y-73004761D01*
X184101248Y-73004767D01*
X184109258Y-73040308D01*
X184149222Y-73217639D01*
X184190854Y-73320166D01*
X184223271Y-73400000D01*
X184233266Y-73424616D01*
X184349987Y-73615088D01*
X184496250Y-73783938D01*
X184500230Y-73787242D01*
X184504981Y-73791187D01*
X184544616Y-73850090D01*
X184546113Y-73921071D01*
X184508997Y-73981593D01*
X184468724Y-74006112D01*
X184353295Y-74049385D01*
X184236739Y-74136739D01*
X184149385Y-74253295D01*
X184098255Y-74389684D01*
X184091500Y-74451866D01*
X184091500Y-76248134D01*
X184098255Y-76310316D01*
X184149385Y-76446705D01*
X184236739Y-76563261D01*
X184353295Y-76650615D01*
X184489684Y-76701745D01*
X184551866Y-76708500D01*
X186348134Y-76708500D01*
X186410316Y-76701745D01*
X186546705Y-76650615D01*
X186663261Y-76563261D01*
X186750615Y-76446705D01*
X186801745Y-76310316D01*
X186808500Y-76248134D01*
X186808500Y-74451866D01*
X186801745Y-74389684D01*
X186750615Y-74253295D01*
X186663261Y-74136739D01*
X186546705Y-74049385D01*
X186506741Y-74034403D01*
X186428203Y-74004960D01*
X186371439Y-73962318D01*
X186346739Y-73895756D01*
X186361947Y-73826408D01*
X186383493Y-73797727D01*
X186484435Y-73697137D01*
X186488096Y-73693489D01*
X186547594Y-73610689D01*
X186615435Y-73516277D01*
X186618453Y-73512077D01*
X186717430Y-73311811D01*
X186782370Y-73098069D01*
X186811529Y-72876590D01*
X186812353Y-72842872D01*
X186813074Y-72813365D01*
X186813074Y-72813361D01*
X186813156Y-72810000D01*
X186794852Y-72587361D01*
X186760349Y-72450000D01*
X203636496Y-72450000D01*
X203637186Y-72456565D01*
X203650406Y-72582342D01*
X203656458Y-72639928D01*
X203715473Y-72821556D01*
X203810960Y-72986944D01*
X203938747Y-73128866D01*
X204093248Y-73241118D01*
X204099276Y-73243802D01*
X204099278Y-73243803D01*
X204261681Y-73316109D01*
X204267712Y-73318794D01*
X204361112Y-73338647D01*
X204448056Y-73357128D01*
X204448061Y-73357128D01*
X204454513Y-73358500D01*
X204645487Y-73358500D01*
X204651939Y-73357128D01*
X204651944Y-73357128D01*
X204738888Y-73338647D01*
X204832288Y-73318794D01*
X204838319Y-73316109D01*
X205000722Y-73243803D01*
X205000724Y-73243802D01*
X205006752Y-73241118D01*
X205161253Y-73128866D01*
X205289040Y-72986944D01*
X205384527Y-72821556D01*
X205443542Y-72639928D01*
X205449595Y-72582342D01*
X205462814Y-72456565D01*
X205463504Y-72450000D01*
X205443542Y-72260072D01*
X205384527Y-72078444D01*
X205359090Y-72034385D01*
X205326695Y-71978277D01*
X205289040Y-71913056D01*
X205182178Y-71794373D01*
X205165675Y-71776045D01*
X205165674Y-71776044D01*
X205161253Y-71771134D01*
X205028383Y-71674598D01*
X205012094Y-71662763D01*
X205012093Y-71662762D01*
X205006752Y-71658882D01*
X205000724Y-71656198D01*
X205000722Y-71656197D01*
X204838319Y-71583891D01*
X204838318Y-71583891D01*
X204832288Y-71581206D01*
X204738888Y-71561353D01*
X204651944Y-71542872D01*
X204651939Y-71542872D01*
X204645487Y-71541500D01*
X204454513Y-71541500D01*
X204448061Y-71542872D01*
X204448056Y-71542872D01*
X204361112Y-71561353D01*
X204267712Y-71581206D01*
X204261682Y-71583891D01*
X204261681Y-71583891D01*
X204099278Y-71656197D01*
X204099276Y-71656198D01*
X204093248Y-71658882D01*
X204087907Y-71662762D01*
X204087906Y-71662763D01*
X204071617Y-71674598D01*
X203938747Y-71771134D01*
X203934326Y-71776044D01*
X203934325Y-71776045D01*
X203917823Y-71794373D01*
X203810960Y-71913056D01*
X203773305Y-71978277D01*
X203740911Y-72034385D01*
X203715473Y-72078444D01*
X203656458Y-72260072D01*
X203636496Y-72450000D01*
X186760349Y-72450000D01*
X186740431Y-72370702D01*
X186651354Y-72165840D01*
X186535029Y-71986029D01*
X186532822Y-71982617D01*
X186532820Y-71982614D01*
X186530014Y-71978277D01*
X186379670Y-71813051D01*
X186375619Y-71809852D01*
X186375615Y-71809848D01*
X186208414Y-71677800D01*
X186208410Y-71677798D01*
X186204359Y-71674598D01*
X186162569Y-71651529D01*
X186112598Y-71601097D01*
X186097826Y-71531654D01*
X186122942Y-71465248D01*
X186150294Y-71438641D01*
X186325328Y-71313792D01*
X186333200Y-71307139D01*
X186484052Y-71156812D01*
X186490730Y-71148965D01*
X186615003Y-70976020D01*
X186620313Y-70967183D01*
X186714670Y-70776267D01*
X186718469Y-70766672D01*
X186780377Y-70562910D01*
X186782555Y-70552837D01*
X186783986Y-70541962D01*
X186781775Y-70527778D01*
X186768617Y-70524000D01*
X184133225Y-70524000D01*
X184119694Y-70527973D01*
X184118257Y-70537966D01*
X184148565Y-70672446D01*
X184151645Y-70682275D01*
X184231770Y-70879603D01*
X184236413Y-70888794D01*
X184347694Y-71070388D01*
X184353777Y-71078699D01*
X184493213Y-71239667D01*
X184500580Y-71246883D01*
X184664434Y-71382916D01*
X184672881Y-71388831D01*
X184741969Y-71429203D01*
X184790693Y-71480842D01*
X184803764Y-71550625D01*
X184777033Y-71616396D01*
X184736584Y-71649752D01*
X184723607Y-71656507D01*
X184719474Y-71659610D01*
X184719471Y-71659612D01*
X184564397Y-71776045D01*
X184544965Y-71790635D01*
X184390629Y-71952138D01*
X184264743Y-72136680D01*
X184170688Y-72339305D01*
X184110989Y-72554570D01*
X184087251Y-72776695D01*
X175625120Y-72776695D01*
X175619227Y-67696695D01*
X184087251Y-67696695D01*
X184087548Y-67701848D01*
X184087548Y-67701851D01*
X184094159Y-67816500D01*
X184100110Y-67919715D01*
X184101247Y-67924761D01*
X184101248Y-67924767D01*
X184113318Y-67978323D01*
X184149222Y-68137639D01*
X184233266Y-68344616D01*
X184349987Y-68535088D01*
X184496250Y-68703938D01*
X184668126Y-68846632D01*
X184741955Y-68889774D01*
X184790679Y-68941412D01*
X184803750Y-69011195D01*
X184777019Y-69076967D01*
X184736562Y-69110327D01*
X184728457Y-69114546D01*
X184719738Y-69120036D01*
X184549433Y-69247905D01*
X184541726Y-69254748D01*
X184394590Y-69408717D01*
X184388104Y-69416727D01*
X184268098Y-69592649D01*
X184263000Y-69601623D01*
X184173338Y-69794783D01*
X184169775Y-69804470D01*
X184114389Y-70004183D01*
X184115912Y-70012607D01*
X184128292Y-70016000D01*
X186768344Y-70016000D01*
X186781875Y-70012027D01*
X186783180Y-70002947D01*
X186741214Y-69835875D01*
X186737894Y-69826124D01*
X186652972Y-69630814D01*
X186648105Y-69621739D01*
X186532426Y-69442926D01*
X186526136Y-69434757D01*
X186382806Y-69277240D01*
X186375273Y-69270215D01*
X186208139Y-69138222D01*
X186199556Y-69132520D01*
X186162602Y-69112120D01*
X186112631Y-69061687D01*
X186097859Y-68992245D01*
X186122975Y-68925839D01*
X186150327Y-68899232D01*
X186173797Y-68882491D01*
X186329860Y-68771173D01*
X186488096Y-68613489D01*
X186547594Y-68530689D01*
X186590915Y-68470400D01*
X205251500Y-68470400D01*
X205251837Y-68473646D01*
X205251837Y-68473650D01*
X205258617Y-68538990D01*
X205262474Y-68576166D01*
X205264655Y-68582702D01*
X205264655Y-68582704D01*
X205273526Y-68609292D01*
X205318450Y-68743946D01*
X205411522Y-68894348D01*
X205536697Y-69019305D01*
X205542927Y-69023145D01*
X205542928Y-69023146D01*
X205568373Y-69038831D01*
X205615865Y-69091604D01*
X205627287Y-69161676D01*
X205622088Y-69185026D01*
X205581458Y-69310072D01*
X205580768Y-69316633D01*
X205580768Y-69316635D01*
X205579430Y-69329370D01*
X205561496Y-69500000D01*
X205581458Y-69689928D01*
X205640473Y-69871556D01*
X205735960Y-70036944D01*
X205863747Y-70178866D01*
X206018248Y-70291118D01*
X206024276Y-70293802D01*
X206024278Y-70293803D01*
X206186681Y-70366109D01*
X206192712Y-70368794D01*
X206286113Y-70388647D01*
X206373056Y-70407128D01*
X206373061Y-70407128D01*
X206379513Y-70408500D01*
X206570487Y-70408500D01*
X206576939Y-70407128D01*
X206576944Y-70407128D01*
X206663887Y-70388647D01*
X206757288Y-70368794D01*
X206763319Y-70366109D01*
X206925722Y-70293803D01*
X206925724Y-70293802D01*
X206931752Y-70291118D01*
X207086253Y-70178866D01*
X207214040Y-70036944D01*
X207309527Y-69871556D01*
X207368542Y-69689928D01*
X207388504Y-69500000D01*
X207370570Y-69329370D01*
X207369232Y-69316635D01*
X207369232Y-69316633D01*
X207368542Y-69310072D01*
X207322861Y-69169481D01*
X207320833Y-69098516D01*
X207357495Y-69037718D01*
X207376390Y-69023403D01*
X207378125Y-69022329D01*
X207378126Y-69022328D01*
X207384348Y-69018478D01*
X207509305Y-68893303D01*
X207544971Y-68835443D01*
X207598275Y-68748968D01*
X207598276Y-68748966D01*
X207602115Y-68742738D01*
X207648888Y-68601720D01*
X207655632Y-68581389D01*
X207655632Y-68581387D01*
X207657797Y-68574861D01*
X207668500Y-68470400D01*
X207668500Y-67669600D01*
X207668163Y-67666350D01*
X207658238Y-67570692D01*
X207658237Y-67570688D01*
X207657526Y-67563834D01*
X207601550Y-67396054D01*
X207508478Y-67245652D01*
X207421891Y-67159216D01*
X207387812Y-67096934D01*
X207392815Y-67026114D01*
X207421736Y-66981025D01*
X207504134Y-66898483D01*
X207509305Y-66893303D01*
X207513146Y-66887072D01*
X207598275Y-66748968D01*
X207598276Y-66748966D01*
X207602115Y-66742738D01*
X207657797Y-66574861D01*
X207668500Y-66470400D01*
X207668500Y-65669600D01*
X207658961Y-65577662D01*
X207658238Y-65570692D01*
X207658237Y-65570688D01*
X207657526Y-65563834D01*
X207638645Y-65507239D01*
X207603868Y-65403002D01*
X207601550Y-65396054D01*
X207508478Y-65245652D01*
X207383303Y-65120695D01*
X207363519Y-65108500D01*
X207238968Y-65031725D01*
X207238966Y-65031724D01*
X207234271Y-65028830D01*
X207234270Y-65028829D01*
X207232738Y-65027885D01*
X207232900Y-65027623D01*
X207182689Y-64983409D01*
X207163230Y-64915131D01*
X207180107Y-64853135D01*
X207241223Y-64747279D01*
X207241224Y-64747278D01*
X207244527Y-64741556D01*
X207303542Y-64559928D01*
X207312799Y-64471855D01*
X207339813Y-64406198D01*
X207398034Y-64365569D01*
X207468979Y-64362866D01*
X207506457Y-64379174D01*
X207567548Y-64418620D01*
X207573114Y-64420863D01*
X207758168Y-64495442D01*
X207758171Y-64495443D01*
X207763737Y-64497686D01*
X207971337Y-64538228D01*
X207976899Y-64538500D01*
X208346050Y-64538500D01*
X208414171Y-64558502D01*
X208460664Y-64612158D01*
X208471377Y-64651497D01*
X208474252Y-64679206D01*
X208474974Y-64686166D01*
X208477155Y-64692702D01*
X208477155Y-64692704D01*
X208495363Y-64747279D01*
X208530950Y-64853946D01*
X208624022Y-65004348D01*
X208749197Y-65129305D01*
X208755427Y-65133145D01*
X208755428Y-65133146D01*
X208892788Y-65217816D01*
X208899762Y-65222115D01*
X208955128Y-65240479D01*
X209061111Y-65275632D01*
X209061113Y-65275632D01*
X209067639Y-65277797D01*
X209074475Y-65278497D01*
X209074478Y-65278498D01*
X209117531Y-65282909D01*
X209172100Y-65288500D01*
X210097900Y-65288500D01*
X210101146Y-65288163D01*
X210101150Y-65288163D01*
X210196808Y-65278238D01*
X210196812Y-65278237D01*
X210203666Y-65277526D01*
X210210202Y-65275345D01*
X210210204Y-65275345D01*
X210342306Y-65231272D01*
X210371446Y-65221550D01*
X210521848Y-65128478D01*
X210646805Y-65003303D01*
X210659068Y-64983409D01*
X210735775Y-64858968D01*
X210735776Y-64858966D01*
X210739615Y-64852738D01*
X210795297Y-64684861D01*
X210798716Y-64651497D01*
X210802746Y-64612158D01*
X210806000Y-64580400D01*
X210806000Y-64577095D01*
X211589501Y-64577095D01*
X211589838Y-64583614D01*
X211599757Y-64679206D01*
X211602649Y-64692600D01*
X211654088Y-64846784D01*
X211660261Y-64859962D01*
X211745563Y-64997807D01*
X211754599Y-65009208D01*
X211869329Y-65123739D01*
X211880740Y-65132751D01*
X212018743Y-65217816D01*
X212031924Y-65223963D01*
X212186210Y-65275138D01*
X212199586Y-65278005D01*
X212293938Y-65287672D01*
X212300354Y-65288000D01*
X212487885Y-65288000D01*
X212503124Y-65283525D01*
X212504329Y-65282135D01*
X212506000Y-65274452D01*
X212506000Y-65269884D01*
X213014000Y-65269884D01*
X213018475Y-65285123D01*
X213019865Y-65286328D01*
X213027548Y-65287999D01*
X213219595Y-65287999D01*
X213226114Y-65287662D01*
X213321706Y-65277743D01*
X213335100Y-65274851D01*
X213489284Y-65223412D01*
X213502462Y-65217239D01*
X213640307Y-65131937D01*
X213651708Y-65122901D01*
X213766239Y-65008171D01*
X213775251Y-64996760D01*
X213855176Y-64867095D01*
X214192001Y-64867095D01*
X214192338Y-64873614D01*
X214202257Y-64969206D01*
X214205149Y-64982600D01*
X214256588Y-65136784D01*
X214262761Y-65149962D01*
X214348063Y-65287807D01*
X214357099Y-65299208D01*
X214471829Y-65413739D01*
X214483240Y-65422751D01*
X214621243Y-65507816D01*
X214634424Y-65513963D01*
X214788710Y-65565138D01*
X214802086Y-65568005D01*
X214896438Y-65577672D01*
X214902854Y-65578000D01*
X215077885Y-65578000D01*
X215093124Y-65573525D01*
X215094329Y-65572135D01*
X215096000Y-65564452D01*
X215096000Y-65559884D01*
X215604000Y-65559884D01*
X215608475Y-65575123D01*
X215609865Y-65576328D01*
X215617548Y-65577999D01*
X215797095Y-65577999D01*
X215803614Y-65577662D01*
X215899206Y-65567743D01*
X215912600Y-65564851D01*
X216066784Y-65513412D01*
X216079962Y-65507239D01*
X216217807Y-65421937D01*
X216229208Y-65412901D01*
X216343739Y-65298171D01*
X216352751Y-65286760D01*
X216437816Y-65148757D01*
X216443963Y-65135576D01*
X216495138Y-64981290D01*
X216498005Y-64967914D01*
X216507672Y-64873562D01*
X216507834Y-64870400D01*
X218641500Y-64870400D01*
X218641837Y-64873646D01*
X218641837Y-64873650D01*
X218651752Y-64969206D01*
X218652474Y-64976166D01*
X218654655Y-64982702D01*
X218654655Y-64982704D01*
X218692026Y-65094717D01*
X218708450Y-65143946D01*
X218801522Y-65294348D01*
X218926697Y-65419305D01*
X218932927Y-65423145D01*
X218932928Y-65423146D01*
X219070288Y-65507816D01*
X219077262Y-65512115D01*
X219090718Y-65516578D01*
X219238611Y-65565632D01*
X219238613Y-65565632D01*
X219245139Y-65567797D01*
X219251975Y-65568497D01*
X219251978Y-65568498D01*
X219295031Y-65572909D01*
X219349600Y-65578500D01*
X220250400Y-65578500D01*
X220253646Y-65578163D01*
X220253650Y-65578163D01*
X220349308Y-65568238D01*
X220349312Y-65568237D01*
X220356166Y-65567526D01*
X220362702Y-65565345D01*
X220362704Y-65565345D01*
X220508875Y-65516578D01*
X220523946Y-65511550D01*
X220674348Y-65418478D01*
X220799305Y-65293303D01*
X220803338Y-65286760D01*
X220876307Y-65168384D01*
X220929080Y-65120890D01*
X220983567Y-65108500D01*
X223041502Y-65108500D01*
X223109623Y-65128502D01*
X223156116Y-65182158D01*
X223159484Y-65190270D01*
X223172115Y-65223963D01*
X223199385Y-65296705D01*
X223286739Y-65413261D01*
X223299929Y-65423146D01*
X223383965Y-65486128D01*
X223426479Y-65542988D01*
X223431504Y-65613806D01*
X223415832Y-65652788D01*
X223405530Y-65669600D01*
X223307073Y-65830268D01*
X223213195Y-66056908D01*
X223155928Y-66295443D01*
X223136681Y-66540000D01*
X223155928Y-66784557D01*
X223157082Y-66789364D01*
X223157083Y-66789370D01*
X223193351Y-66940437D01*
X223213195Y-67023092D01*
X223215088Y-67027663D01*
X223215089Y-67027665D01*
X223225335Y-67052401D01*
X223307073Y-67249732D01*
X223435248Y-67458896D01*
X223438463Y-67462660D01*
X223438465Y-67462663D01*
X223531830Y-67571978D01*
X223594567Y-67645433D01*
X223598323Y-67648641D01*
X223675069Y-67714189D01*
X223713878Y-67773640D01*
X223714384Y-67844635D01*
X223675069Y-67905811D01*
X223601180Y-67968919D01*
X223594567Y-67974567D01*
X223591359Y-67978323D01*
X223451202Y-68142425D01*
X223435248Y-68161104D01*
X223307073Y-68370268D01*
X223247136Y-68514967D01*
X223219079Y-68582704D01*
X223213195Y-68596908D01*
X223193351Y-68679563D01*
X223172233Y-68767529D01*
X223155928Y-68835443D01*
X223136681Y-69080000D01*
X223155928Y-69324557D01*
X223157082Y-69329364D01*
X223157083Y-69329370D01*
X223184346Y-69442926D01*
X223213195Y-69563092D01*
X223215088Y-69567663D01*
X223215089Y-69567665D01*
X223241247Y-69630814D01*
X223307073Y-69789732D01*
X223435248Y-69998896D01*
X223438463Y-70002660D01*
X223438465Y-70002663D01*
X223467744Y-70036944D01*
X223594567Y-70185433D01*
X223781104Y-70344752D01*
X223785327Y-70347340D01*
X223785330Y-70347342D01*
X223820337Y-70368794D01*
X223990268Y-70472927D01*
X224113568Y-70524000D01*
X224212335Y-70564911D01*
X224212337Y-70564912D01*
X224216908Y-70566805D01*
X224299563Y-70586649D01*
X224450630Y-70622917D01*
X224450636Y-70622918D01*
X224455443Y-70624072D01*
X224700000Y-70643319D01*
X224944557Y-70624072D01*
X224949364Y-70622918D01*
X224949370Y-70622917D01*
X225100437Y-70586649D01*
X225183092Y-70566805D01*
X225187663Y-70564912D01*
X225187665Y-70564911D01*
X225286432Y-70524000D01*
X225409732Y-70472927D01*
X225579663Y-70368794D01*
X225614670Y-70347342D01*
X225614673Y-70347340D01*
X225618896Y-70344752D01*
X225805433Y-70185433D01*
X225932256Y-70036944D01*
X225961535Y-70002663D01*
X225961537Y-70002660D01*
X225964752Y-69998896D01*
X226092927Y-69789732D01*
X226158753Y-69630814D01*
X226184911Y-69567665D01*
X226184912Y-69567663D01*
X226186805Y-69563092D01*
X226215654Y-69442926D01*
X226242917Y-69329370D01*
X226242918Y-69329364D01*
X226244072Y-69324557D01*
X226263319Y-69080000D01*
X226244072Y-68835443D01*
X226227768Y-68767529D01*
X226206649Y-68679563D01*
X226186805Y-68596908D01*
X226180922Y-68582704D01*
X226152864Y-68514967D01*
X226092927Y-68370268D01*
X225964752Y-68161104D01*
X225948799Y-68142425D01*
X225808641Y-67978323D01*
X225805433Y-67974567D01*
X225798820Y-67968919D01*
X225724931Y-67905811D01*
X225686122Y-67846360D01*
X225685616Y-67775365D01*
X225724931Y-67714189D01*
X225801677Y-67648641D01*
X225805433Y-67645433D01*
X225868170Y-67571978D01*
X225961535Y-67462663D01*
X225961537Y-67462660D01*
X225964752Y-67458896D01*
X226092927Y-67249732D01*
X226174665Y-67052401D01*
X226184911Y-67027665D01*
X226184912Y-67027663D01*
X226186805Y-67023092D01*
X226206649Y-66940437D01*
X226242917Y-66789370D01*
X226242918Y-66789364D01*
X226244072Y-66784557D01*
X226263319Y-66540000D01*
X226244072Y-66295443D01*
X226186805Y-66056908D01*
X226092927Y-65830268D01*
X225994470Y-65669600D01*
X225984168Y-65652788D01*
X225965630Y-65584255D01*
X225987087Y-65516578D01*
X226016035Y-65486128D01*
X226100071Y-65423146D01*
X226113261Y-65413261D01*
X226200615Y-65296705D01*
X226251745Y-65160316D01*
X226258500Y-65098134D01*
X226258500Y-62901866D01*
X226251745Y-62839684D01*
X226200615Y-62703295D01*
X226113261Y-62586739D01*
X225996705Y-62499385D01*
X225860316Y-62448255D01*
X225798134Y-62441500D01*
X223601866Y-62441500D01*
X223539684Y-62448255D01*
X223403295Y-62499385D01*
X223286739Y-62586739D01*
X223199385Y-62703295D01*
X223196233Y-62711703D01*
X223159484Y-62809730D01*
X223116842Y-62866494D01*
X223050281Y-62891194D01*
X223041502Y-62891500D01*
X221084500Y-62891500D01*
X221016379Y-62871498D01*
X220969886Y-62817842D01*
X220958500Y-62765500D01*
X220958500Y-61869600D01*
X220957808Y-61862928D01*
X220948238Y-61770692D01*
X220948237Y-61770688D01*
X220947526Y-61763834D01*
X220938607Y-61737099D01*
X220893868Y-61603002D01*
X220891550Y-61596054D01*
X220798478Y-61445652D01*
X220673303Y-61320695D01*
X220667072Y-61316854D01*
X220528968Y-61231725D01*
X220528966Y-61231724D01*
X220522738Y-61227885D01*
X220442995Y-61201436D01*
X220361389Y-61174368D01*
X220361387Y-61174368D01*
X220354861Y-61172203D01*
X220348025Y-61171503D01*
X220348022Y-61171502D01*
X220304969Y-61167091D01*
X220250400Y-61161500D01*
X219349600Y-61161500D01*
X219346354Y-61161837D01*
X219346350Y-61161837D01*
X219250692Y-61171762D01*
X219250688Y-61171763D01*
X219243834Y-61172474D01*
X219237298Y-61174655D01*
X219237296Y-61174655D01*
X219220928Y-61180116D01*
X219076054Y-61228450D01*
X218925652Y-61321522D01*
X218800695Y-61446697D01*
X218796855Y-61452927D01*
X218796854Y-61452928D01*
X218715106Y-61585548D01*
X218707885Y-61597262D01*
X218694841Y-61636588D01*
X218663628Y-61730695D01*
X218652203Y-61765139D01*
X218641500Y-61869600D01*
X218641500Y-64870400D01*
X216507834Y-64870400D01*
X216508000Y-64867146D01*
X216508000Y-63642115D01*
X216503525Y-63626876D01*
X216502135Y-63625671D01*
X216494452Y-63624000D01*
X215622115Y-63624000D01*
X215606876Y-63628475D01*
X215605671Y-63629865D01*
X215604000Y-63637548D01*
X215604000Y-65559884D01*
X215096000Y-65559884D01*
X215096000Y-63642115D01*
X215091525Y-63626876D01*
X215090135Y-63625671D01*
X215082452Y-63624000D01*
X214210116Y-63624000D01*
X214194877Y-63628475D01*
X214193672Y-63629865D01*
X214192001Y-63637548D01*
X214192001Y-64867095D01*
X213855176Y-64867095D01*
X213860316Y-64858757D01*
X213866463Y-64845576D01*
X213917638Y-64691290D01*
X213920505Y-64677914D01*
X213930172Y-64583562D01*
X213930500Y-64577146D01*
X213930500Y-63702115D01*
X213926025Y-63686876D01*
X213924635Y-63685671D01*
X213916952Y-63684000D01*
X213032115Y-63684000D01*
X213016876Y-63688475D01*
X213015671Y-63689865D01*
X213014000Y-63697548D01*
X213014000Y-65269884D01*
X212506000Y-65269884D01*
X212506000Y-63702115D01*
X212501525Y-63686876D01*
X212500135Y-63685671D01*
X212492452Y-63684000D01*
X211607616Y-63684000D01*
X211592377Y-63688475D01*
X211591172Y-63689865D01*
X211589501Y-63697548D01*
X211589501Y-64577095D01*
X210806000Y-64577095D01*
X210806000Y-63157885D01*
X211589500Y-63157885D01*
X211593975Y-63173124D01*
X211595365Y-63174329D01*
X211603048Y-63176000D01*
X212487885Y-63176000D01*
X212503124Y-63171525D01*
X212504329Y-63170135D01*
X212506000Y-63162452D01*
X212506000Y-63157885D01*
X213014000Y-63157885D01*
X213018475Y-63173124D01*
X213019865Y-63174329D01*
X213027548Y-63176000D01*
X213912384Y-63176000D01*
X213927623Y-63171525D01*
X213928828Y-63170135D01*
X213930499Y-63162452D01*
X213930499Y-63097885D01*
X214192000Y-63097885D01*
X214196475Y-63113124D01*
X214197865Y-63114329D01*
X214205548Y-63116000D01*
X215077885Y-63116000D01*
X215093124Y-63111525D01*
X215094329Y-63110135D01*
X215096000Y-63102452D01*
X215096000Y-63097885D01*
X215604000Y-63097885D01*
X215608475Y-63113124D01*
X215609865Y-63114329D01*
X215617548Y-63116000D01*
X216489884Y-63116000D01*
X216505123Y-63111525D01*
X216506328Y-63110135D01*
X216507999Y-63102452D01*
X216507999Y-61872905D01*
X216507662Y-61866386D01*
X216497743Y-61770794D01*
X216494851Y-61757400D01*
X216443412Y-61603216D01*
X216437239Y-61590038D01*
X216351937Y-61452193D01*
X216342901Y-61440792D01*
X216228171Y-61326261D01*
X216216760Y-61317249D01*
X216078757Y-61232184D01*
X216065576Y-61226037D01*
X215911290Y-61174862D01*
X215897914Y-61171995D01*
X215803562Y-61162328D01*
X215797145Y-61162000D01*
X215622115Y-61162000D01*
X215606876Y-61166475D01*
X215605671Y-61167865D01*
X215604000Y-61175548D01*
X215604000Y-63097885D01*
X215096000Y-63097885D01*
X215096000Y-61180116D01*
X215091525Y-61164877D01*
X215090135Y-61163672D01*
X215082452Y-61162001D01*
X214902905Y-61162001D01*
X214896386Y-61162338D01*
X214800794Y-61172257D01*
X214787400Y-61175149D01*
X214633216Y-61226588D01*
X214620038Y-61232761D01*
X214482193Y-61318063D01*
X214470792Y-61327099D01*
X214356261Y-61441829D01*
X214347249Y-61453240D01*
X214262184Y-61591243D01*
X214256037Y-61604424D01*
X214204862Y-61758710D01*
X214201995Y-61772086D01*
X214192328Y-61866438D01*
X214192000Y-61872855D01*
X214192000Y-63097885D01*
X213930499Y-63097885D01*
X213930499Y-62282905D01*
X213930162Y-62276386D01*
X213920243Y-62180794D01*
X213917351Y-62167400D01*
X213865912Y-62013216D01*
X213859739Y-62000038D01*
X213774437Y-61862193D01*
X213765401Y-61850792D01*
X213650671Y-61736261D01*
X213639260Y-61727249D01*
X213501257Y-61642184D01*
X213488076Y-61636037D01*
X213333790Y-61584862D01*
X213320414Y-61581995D01*
X213226062Y-61572328D01*
X213219645Y-61572000D01*
X213032115Y-61572000D01*
X213016876Y-61576475D01*
X213015671Y-61577865D01*
X213014000Y-61585548D01*
X213014000Y-63157885D01*
X212506000Y-63157885D01*
X212506000Y-61590116D01*
X212501525Y-61574877D01*
X212500135Y-61573672D01*
X212492452Y-61572001D01*
X212300405Y-61572001D01*
X212293886Y-61572338D01*
X212198294Y-61582257D01*
X212184900Y-61585149D01*
X212030716Y-61636588D01*
X212017538Y-61642761D01*
X211879693Y-61728063D01*
X211868292Y-61737099D01*
X211753761Y-61851829D01*
X211744749Y-61863240D01*
X211659684Y-62001243D01*
X211653537Y-62014424D01*
X211602362Y-62168710D01*
X211599495Y-62182086D01*
X211589828Y-62276438D01*
X211589500Y-62282855D01*
X211589500Y-63157885D01*
X210806000Y-63157885D01*
X210806000Y-62279600D01*
X210805426Y-62274070D01*
X210795738Y-62180692D01*
X210795737Y-62180688D01*
X210795026Y-62173834D01*
X210739050Y-62006054D01*
X210645978Y-61855652D01*
X210520803Y-61730695D01*
X210514572Y-61726854D01*
X210376468Y-61641725D01*
X210376466Y-61641724D01*
X210370238Y-61637885D01*
X210269356Y-61604424D01*
X210208889Y-61584368D01*
X210208887Y-61584368D01*
X210202361Y-61582203D01*
X210195525Y-61581503D01*
X210195522Y-61581502D01*
X210152469Y-61577091D01*
X210097900Y-61571500D01*
X209172100Y-61571500D01*
X209168854Y-61571837D01*
X209168850Y-61571837D01*
X209073192Y-61581762D01*
X209073188Y-61581763D01*
X209066334Y-61582474D01*
X209059798Y-61584655D01*
X209059796Y-61584655D01*
X209001186Y-61604209D01*
X208898554Y-61638450D01*
X208748152Y-61731522D01*
X208623195Y-61856697D01*
X208619355Y-61862927D01*
X208619354Y-61862928D01*
X208617191Y-61866438D01*
X208530385Y-62007262D01*
X208474703Y-62175139D01*
X208474002Y-62181977D01*
X208474002Y-62181979D01*
X208471301Y-62208342D01*
X208444460Y-62274070D01*
X208386345Y-62314852D01*
X208345957Y-62321500D01*
X208027154Y-62321500D01*
X207869434Y-62336548D01*
X207666466Y-62396092D01*
X207661139Y-62398836D01*
X207661138Y-62398836D01*
X207483751Y-62490196D01*
X207483748Y-62490198D01*
X207478420Y-62492942D01*
X207312080Y-62623604D01*
X207308148Y-62628135D01*
X207308145Y-62628138D01*
X207235631Y-62711703D01*
X207173448Y-62783363D01*
X207170448Y-62788549D01*
X207170445Y-62788553D01*
X207111066Y-62891194D01*
X207067527Y-62966454D01*
X206998139Y-63166271D01*
X206997278Y-63172206D01*
X206997278Y-63172208D01*
X206996971Y-63174329D01*
X206967787Y-63375604D01*
X206968065Y-63381601D01*
X206970078Y-63425097D01*
X206953247Y-63494070D01*
X206901799Y-63542994D01*
X206832067Y-63556336D01*
X206792966Y-63546031D01*
X206692288Y-63501206D01*
X206598888Y-63481353D01*
X206511944Y-63462872D01*
X206511939Y-63462872D01*
X206505487Y-63461500D01*
X206314513Y-63461500D01*
X206308061Y-63462872D01*
X206308056Y-63462872D01*
X206221112Y-63481353D01*
X206127712Y-63501206D01*
X206121682Y-63503891D01*
X206121681Y-63503891D01*
X205959278Y-63576197D01*
X205959276Y-63576198D01*
X205953248Y-63578882D01*
X205947907Y-63582762D01*
X205947906Y-63582763D01*
X205897843Y-63619136D01*
X205798747Y-63691134D01*
X205670960Y-63833056D01*
X205575473Y-63998444D01*
X205516458Y-64180072D01*
X205496496Y-64370000D01*
X205497186Y-64376565D01*
X205500301Y-64406198D01*
X205516458Y-64559928D01*
X205575473Y-64741556D01*
X205578776Y-64747278D01*
X205578777Y-64747279D01*
X205665514Y-64897512D01*
X205682252Y-64966507D01*
X205659031Y-65033599D01*
X205622698Y-65067656D01*
X205535652Y-65121522D01*
X205410695Y-65246697D01*
X205406855Y-65252927D01*
X205406854Y-65252928D01*
X205378327Y-65299208D01*
X205317885Y-65397262D01*
X205312567Y-65413296D01*
X205279978Y-65511550D01*
X205262203Y-65565139D01*
X205261503Y-65571975D01*
X205261502Y-65571978D01*
X205260834Y-65578500D01*
X205251500Y-65669600D01*
X205251500Y-66470400D01*
X205251837Y-66473646D01*
X205251837Y-66473650D01*
X205258722Y-66540000D01*
X205262474Y-66576166D01*
X205264655Y-66582702D01*
X205264655Y-66582704D01*
X205306301Y-66707530D01*
X205318450Y-66743946D01*
X205411522Y-66894348D01*
X205416704Y-66899521D01*
X205498109Y-66980784D01*
X205532188Y-67043066D01*
X205527185Y-67113886D01*
X205498264Y-67158975D01*
X205422940Y-67234431D01*
X205410695Y-67246697D01*
X205406855Y-67252927D01*
X205406854Y-67252928D01*
X205380477Y-67295720D01*
X205317885Y-67397262D01*
X205262203Y-67565139D01*
X205251500Y-67669600D01*
X205251500Y-68470400D01*
X186590915Y-68470400D01*
X186615435Y-68436277D01*
X186618453Y-68432077D01*
X186696842Y-68273469D01*
X186715136Y-68236453D01*
X186715137Y-68236451D01*
X186717430Y-68231811D01*
X186782370Y-68018069D01*
X186811529Y-67796590D01*
X186813156Y-67730000D01*
X186794852Y-67507361D01*
X186740431Y-67290702D01*
X186651354Y-67085840D01*
X186530014Y-66898277D01*
X186379670Y-66733051D01*
X186375619Y-66729852D01*
X186375615Y-66729848D01*
X186208414Y-66597800D01*
X186208410Y-66597798D01*
X186204359Y-66594598D01*
X186008789Y-66486638D01*
X186003920Y-66484914D01*
X186003916Y-66484912D01*
X185803087Y-66413795D01*
X185803083Y-66413794D01*
X185798212Y-66412069D01*
X185793119Y-66411162D01*
X185793116Y-66411161D01*
X185583373Y-66373800D01*
X185583367Y-66373799D01*
X185578284Y-66372894D01*
X185504452Y-66371992D01*
X185360081Y-66370228D01*
X185360079Y-66370228D01*
X185354911Y-66370165D01*
X185134091Y-66403955D01*
X184921756Y-66473357D01*
X184891443Y-66489137D01*
X184739907Y-66568022D01*
X184723607Y-66576507D01*
X184719474Y-66579610D01*
X184719471Y-66579612D01*
X184695247Y-66597800D01*
X184544965Y-66710635D01*
X184390629Y-66872138D01*
X184387715Y-66876410D01*
X184387714Y-66876411D01*
X184369838Y-66902617D01*
X184264743Y-67056680D01*
X184217715Y-67157993D01*
X184174135Y-67251880D01*
X184170688Y-67259305D01*
X184110989Y-67474570D01*
X184087251Y-67696695D01*
X175619227Y-67696695D01*
X175609201Y-59054645D01*
X175629124Y-58986502D01*
X175682726Y-58939947D01*
X175735201Y-58928500D01*
X229997500Y-58928500D01*
X230065621Y-58948502D01*
G37*
%TD.AperFunction*%
%TD*%
M02*
