M48
; DRILL file {KiCad 6.0.11-2627ca5db0~126~ubuntu22.04.1} date Sun 19 Feb 2023 01:42:14 AM EST
; FORMAT={-:-/ absolute / inch / decimal}
; #@! TF.CreationDate,2023-02-19T01:42:14-05:00
; #@! TF.GenerationSoftware,Kicad,Pcbnew,6.0.11-2627ca5db0~126~ubuntu22.04.1
; #@! TF.FileFunction,Plated,1,4,PTH
FMAT,2
INCH
; #@! TA.AperFunction,Plated,PTH,ComponentDrill
T1C0.0079
; #@! TA.AperFunction,Plated,PTH,ViaDrill
T2C0.0157
; #@! TA.AperFunction,Plated,PTH,ComponentDrill
T3C0.0394
; #@! TA.AperFunction,Plated,PTH,ComponentDrill
T4C0.0400
; #@! TA.AperFunction,Plated,PTH,ComponentDrill
T5C0.0433
%
G90
G05
T1
X7.8051Y-2.8287
X7.8051Y-2.8819
X7.8051Y-2.935
X7.8799Y-2.8287
X7.8799Y-2.8819
X7.8799Y-2.935
T2
X6.9646Y-2.4429
X6.9724Y-2.8071
X6.9734Y-3.0059
X7.158Y-2.9985
X7.1634Y-3.5453
X7.1683Y-2.9026
X7.1742Y-3.0561
X7.2077Y-3.628
X7.2087Y-3.7185
X7.2461Y-3.7963
X7.251Y-3.6575
X7.2698Y-2.9647
X7.2736Y-2.5827
X7.3002Y-3.5561
X7.3622Y-3.1102
X7.3701Y-3.0659
X7.374Y-3.6398
X7.377Y-3.0256
X7.3799Y-3.56
X7.3868Y-2.9065
X7.3941Y-2.9902
X7.3971Y-3.6806
X7.4183Y-2.9567
X7.4377Y-3.6921
X7.4823Y-3.5807
X7.4862Y-3.1565
X7.502Y-3.5423
X7.5325Y-2.8268
X7.534Y-3.6988
X7.56Y-3.6693
X7.5925Y-3.063
X7.6467Y-3.5315
X7.6555Y-3.3435
X7.6772Y-2.9606
X7.7697Y-3.1565
X7.7746Y-3.688
X7.7884Y-3.1122
X7.7933Y-3.6093
X7.8425Y-3.2116
X7.8435Y-3.6073
X7.8937Y-3.2618
X7.8957Y-3.6142
X7.9055Y-3.8022
X7.937Y-3.2657
X7.9449Y-2.7126
X7.9646Y-3.0965
X7.9724Y-3.2352
X7.9862Y-3.4715
X8.0039Y-2.4213
X8.0093Y-2.8569
X8.0197Y-3.4183
X8.0211Y-2.9069
X8.0394Y-2.748
X8.0531Y-2.8524
X8.0659Y-3.7392
X8.0679Y-3.6732
X8.0738Y-3.625
X8.0787Y-3.1693
X8.0787Y-3.2323
X8.0866Y-3.0394
X8.1176Y-3.7278
X8.1217Y-3.7737
X8.1289Y-2.7362
X8.1299Y-3.5453
X8.1368Y-3.81
X8.1555Y-2.9606
X8.1654Y-3.5197
X8.1667Y-3.3183
X8.1693Y-3.4547
X8.1713Y-3.6201
X8.1732Y-3.4065
X8.2146Y-2.9035
X8.2746Y-2.8898
X8.2904Y-3.6122
X8.2972Y-3.814
X8.3061Y-3.0758
X8.3248Y-2.4892
X8.3258Y-3.6585
X8.3445Y-3.4744
X8.3583Y-3.7894
X8.3711Y-3.1496
X8.373Y-3.7519
X8.3932Y-3.2716
X8.4281Y-3.1132
X8.4439Y-3.2628
X8.4488Y-3.498
X8.4626Y-2.8159
X8.4784Y-3.2384
X8.5148Y-3.5
X8.5177Y-2.6476
X8.5187Y-3.3602
X8.5217Y-3.2372
X8.5398Y-3.4696
X8.561Y-3.2372
X8.5787Y-3.4606
X8.5896Y-2.6378
X8.6043Y-3.2579
X8.6309Y-3.2274
X8.8356Y-3.7293
X9.0226Y-3.3307
T3
X7.0925Y-3.2323
X7.1925Y-3.2323
X7.2925Y-3.2323
X7.3925Y-3.2323
T4
X8.4181Y-3.6142
X8.5181Y-3.6142
X8.6181Y-3.6142
X8.7181Y-3.6142
X8.8181Y-3.6142
X8.9181Y-3.6142
T5
X8.8455Y-2.8951
X8.8455Y-2.9951
X8.8455Y-3.0951
X8.8455Y-3.1951
X8.8455Y-3.3642
X8.8455Y-3.4642
X8.8465Y-2.5197
X8.8465Y-2.6197
X8.8465Y-2.7197
T0
M30
