%TF.GenerationSoftware,KiCad,Pcbnew,6.0.11-2627ca5db0~126~ubuntu22.04.1*%
%TF.CreationDate,2023-02-19T01:42:16-05:00*%
%TF.ProjectId,lin-fan-control,6c696e2d-6661-46e2-9d63-6f6e74726f6c,1.0*%
%TF.SameCoordinates,Original*%
%TF.FileFunction,Copper,L2,Inr*%
%TF.FilePolarity,Positive*%
%FSLAX46Y46*%
G04 Gerber Fmt 4.6, Leading zero omitted, Abs format (unit mm)*
G04 Created by KiCad (PCBNEW 6.0.11-2627ca5db0~126~ubuntu22.04.1) date 2023-02-19 01:42:16*
%MOMM*%
%LPD*%
G01*
G04 APERTURE LIST*
%TA.AperFunction,ComponentPad*%
%ADD10R,2.100000X2.100000*%
%TD*%
%TA.AperFunction,ComponentPad*%
%ADD11C,2.100000*%
%TD*%
%TA.AperFunction,ComponentPad*%
%ADD12R,1.700000X1.700000*%
%TD*%
%TA.AperFunction,ComponentPad*%
%ADD13O,1.700000X1.700000*%
%TD*%
%TA.AperFunction,ComponentPad*%
%ADD14C,0.500000*%
%TD*%
%TA.AperFunction,ComponentPad*%
%ADD15R,1.879600X1.879600*%
%TD*%
%TA.AperFunction,ComponentPad*%
%ADD16C,1.879600*%
%TD*%
%TA.AperFunction,ViaPad*%
%ADD17C,0.800000*%
%TD*%
%TA.AperFunction,Conductor*%
%ADD18C,0.250000*%
%TD*%
G04 APERTURE END LIST*
D10*
%TO.N,Net-(J5-Pad1)*%
%TO.C,J5*%
X224675000Y-85450000D03*
D11*
%TO.N,Net-(J5-Pad2)*%
X224675000Y-87990000D03*
%TD*%
D10*
%TO.N,/Fan Control/FAN+*%
%TO.C,J4*%
X224675000Y-73535000D03*
D11*
%TO.N,/Fan Control/FAN-*%
X224675000Y-76075000D03*
%TO.N,Net-(R25-Pad2)*%
X224675000Y-78615000D03*
%TO.N,PWM*%
X224675000Y-81155000D03*
%TD*%
D12*
%TO.N,GND*%
%TO.C,J2*%
X180150000Y-82100000D03*
D13*
%TO.N,+5V*%
X182690000Y-82100000D03*
%TO.N,SDA5V*%
X185230000Y-82100000D03*
%TO.N,SCL5V*%
X187770000Y-82100000D03*
%TD*%
D14*
%TO.N,GND*%
%TO.C,U5*%
X200150000Y-71850000D03*
X198250000Y-73200000D03*
X198250000Y-74550000D03*
X200150000Y-73200000D03*
X200150000Y-74550000D03*
X198250000Y-71850000D03*
%TD*%
D10*
%TO.N,+BATT*%
%TO.C,J3*%
X224700000Y-64000000D03*
D11*
%TO.N,GND*%
X224700000Y-66540000D03*
%TO.N,LIN*%
X224700000Y-69080000D03*
%TD*%
D15*
%TO.N,GND*%
%TO.C,J1*%
X226520000Y-91800000D03*
D16*
%TO.N,unconnected-(J1-Pad2)*%
X223980000Y-91800000D03*
%TO.N,Net-(J1-Pad3)*%
X221440000Y-91800000D03*
%TO.N,Net-(J1-Pad4)*%
X218900000Y-91800000D03*
%TO.N,UPDI*%
X216360000Y-91800000D03*
%TO.N,unconnected-(J1-Pad6)*%
X213820000Y-91800000D03*
%TD*%
D17*
%TO.N,+3V3*%
X229175000Y-84600000D03*
%TO.N,~{ALERT}*%
X206187299Y-94687299D03*
%TO.N,+3V3*%
X210750000Y-96875000D03*
%TO.N,+12V*%
X216350000Y-67250000D03*
%TO.N,Net-(Q3-Pad1)*%
X219225000Y-81975000D03*
X214075000Y-79075000D03*
%TO.N,GND*%
X213187872Y-83098030D03*
%TO.N,TACH*%
X210175000Y-73400000D03*
X214600000Y-88850000D03*
%TO.N,+5V*%
X204200000Y-69800000D03*
%TO.N,Net-(R25-Pad2)*%
X206475000Y-69500000D03*
%TO.N,TACHa*%
X207150000Y-75200000D03*
%TO.N,+3V3*%
X204550000Y-72450000D03*
X208650000Y-73750000D03*
%TO.N,GND*%
X210975000Y-78125000D03*
X202500000Y-82175000D03*
%TO.N,Net-(C14-Pad1)*%
X197350000Y-80175000D03*
%TO.N,Net-(D5-Pad2)*%
X205200000Y-80500000D03*
%TO.N,Net-(U10-Pad2)*%
X205200000Y-82100000D03*
X202300000Y-78650000D03*
%TO.N,+5V*%
X194450000Y-84925000D03*
X197825000Y-79050000D03*
X201600000Y-82950000D03*
%TO.N,+3V3*%
X207433773Y-84285862D03*
%TO.N,Net-(R26-Pad1)*%
X207400000Y-89400000D03*
%TO.N,Net-(R26-Pad2)*%
X211950000Y-88250000D03*
%TO.N,+5V*%
X207500000Y-87750000D03*
%TO.N,GND*%
X210575000Y-91750000D03*
%TO.N,PWMFAN-*%
X212625000Y-80000000D03*
%TO.N,FANPWM+*%
X214950000Y-71525000D03*
%TO.N,+12V*%
X218175000Y-67000000D03*
%TO.N,Net-(J5-Pad1)*%
X216450000Y-82225000D03*
%TO.N,Net-(J5-Pad2)*%
X215351702Y-82256133D03*
%TO.N,PWM*%
X214475000Y-82875000D03*
%TO.N,+3V3*%
X217450201Y-82225201D03*
%TO.N,GND*%
X216375000Y-85350000D03*
%TO.N,~{TCRIT}*%
X218550000Y-82750000D03*
X211475000Y-92925000D03*
%TO.N,TACH*%
X216275000Y-88900000D03*
%TO.N,SDA3V*%
X212300000Y-96250000D03*
X216911613Y-88128423D03*
%TO.N,SCL3V*%
X212675000Y-95299500D03*
X217900000Y-87900000D03*
%TO.N,GND*%
X211450000Y-63225000D03*
X184652903Y-75302969D03*
X203300000Y-61500000D03*
X177100000Y-71300000D03*
X205400000Y-77200000D03*
X176900000Y-62050000D03*
X177125000Y-76350000D03*
X207550000Y-91950000D03*
X183100000Y-94450000D03*
X200500000Y-82850000D03*
X187000000Y-79000000D03*
X207600000Y-86525000D03*
X206500000Y-90050000D03*
%TO.N,Net-(C5-Pad1)*%
X203435000Y-72565000D03*
X201800000Y-68900000D03*
%TO.N,LIN*%
X199200000Y-81575000D03*
%TO.N,TXD*%
X200800000Y-96575000D03*
X200550000Y-91800000D03*
%TO.N,~{LIN_SLP}*%
X197950000Y-91675000D03*
X205075000Y-92075000D03*
%TO.N,~{LIN_WAKE}*%
X204925000Y-93300000D03*
X199225000Y-91625000D03*
%TO.N,Net-(C6-Pad2)*%
X191325000Y-71800000D03*
%TO.N,Net-(C7-Pad1)*%
X187200000Y-77875000D03*
X187625000Y-73825500D03*
%TO.N,Net-(C7-Pad2)*%
X181812000Y-76162529D03*
%TO.N,Net-(C8-Pad1)*%
X182075000Y-73725000D03*
%TO.N,Net-(C8-Pad2)*%
X188425000Y-75100000D03*
%TO.N,SDA3V*%
X187300000Y-92450000D03*
X206675000Y-96775000D03*
X185425000Y-90325000D03*
%TO.N,SCL3V*%
X206290576Y-95852382D03*
X187450000Y-90425000D03*
X188918398Y-93779600D03*
%TO.N,+3V3*%
X194225000Y-89700000D03*
X197475000Y-93675000D03*
X192850000Y-77800000D03*
X184750000Y-65600000D03*
X190050000Y-90950000D03*
X202850000Y-88175000D03*
X187809929Y-75950089D03*
X192025000Y-93200000D03*
X224425000Y-94725000D03*
X181950000Y-90050000D03*
X190150000Y-80175000D03*
X190550000Y-89975000D03*
X182225000Y-77625000D03*
%TO.N,Net-(R5-Pad1)*%
X204875000Y-94975000D03*
X203700000Y-86825000D03*
%TO.N,Net-(R11-Pad2)*%
X187374999Y-76850001D03*
%TO.N,Net-(R13-Pad2)*%
X203735000Y-73835000D03*
%TO.N,Net-(R17-Pad2)*%
X195000000Y-75200000D03*
%TO.N,Net-(JP2-Pad2)*%
X191362756Y-93948624D03*
%TO.N,Net-(JP3-Pad2)*%
X187887299Y-93487701D03*
%TO.N,Net-(JP4-Pad2)*%
X184175000Y-92899500D03*
%TO.N,Net-(JP5-Pad2)*%
X184049695Y-96425000D03*
X183075000Y-92150000D03*
%TD*%
D18*
%TO.N,TACH*%
X210325000Y-84375000D02*
X210175000Y-84225000D01*
X210175000Y-84225000D02*
X210175000Y-73400000D01*
X214600000Y-88850000D02*
X214600000Y-88650000D01*
X214600000Y-88650000D02*
X210325000Y-84375000D01*
%TO.N,PWM*%
X214475000Y-82875000D02*
X214475000Y-81875000D01*
X214475000Y-81875000D02*
X215195000Y-81155000D01*
X215195000Y-81155000D02*
X224675000Y-81155000D01*
%TO.N,+5V*%
X202075000Y-71925000D02*
X202075000Y-75625000D01*
X204200000Y-69800000D02*
X202075000Y-71925000D01*
X202075000Y-75625000D02*
X198650000Y-79050000D01*
X198650000Y-79050000D02*
X197825000Y-79050000D01*
X201600000Y-82950000D02*
X201600000Y-84300000D01*
X201600000Y-84300000D02*
X202225000Y-84925000D01*
%TO.N,Net-(U10-Pad2)*%
X202300000Y-78650000D02*
X202300000Y-79789852D01*
X202300000Y-79789852D02*
X204610148Y-82100000D01*
X204610148Y-82100000D02*
X205200000Y-82100000D01*
%TO.N,LIN*%
X199200000Y-81575000D02*
X199200000Y-79525000D01*
X199200000Y-79525000D02*
X209645000Y-69080000D01*
X209645000Y-69080000D02*
X224700000Y-69080000D01*
%TO.N,+5V*%
X203600305Y-84925000D02*
X202225000Y-84925000D01*
X202225000Y-84925000D02*
X194450000Y-84925000D01*
X194450000Y-84925000D02*
X185515000Y-84925000D01*
X207500000Y-87750000D02*
X206325000Y-87750000D01*
X206325000Y-87750000D02*
X204250000Y-85675000D01*
X204250000Y-85675000D02*
X204250000Y-85574695D01*
X204250000Y-85574695D02*
X203600305Y-84925000D01*
X185515000Y-84925000D02*
X182690000Y-82100000D01*
%TO.N,~{TCRIT}*%
X212225000Y-93675000D02*
X211475000Y-92925000D01*
X214450000Y-93675000D02*
X212225000Y-93675000D01*
X215084800Y-93040200D02*
X214450000Y-93675000D01*
X215425000Y-88600000D02*
X215425000Y-90225000D01*
X215400000Y-87850000D02*
X215400000Y-88575000D01*
X215084800Y-90565200D02*
X215084800Y-93040200D01*
X215425000Y-90225000D02*
X215084800Y-90565200D01*
X215400000Y-88575000D02*
X215425000Y-88600000D01*
X218550000Y-82750000D02*
X217400000Y-83900000D01*
X217400000Y-85850000D02*
X215400000Y-87850000D01*
X217400000Y-83900000D02*
X217400000Y-85850000D01*
%TO.N,SCL3V*%
X216175500Y-95299500D02*
X212675000Y-95299500D01*
X216750000Y-94725000D02*
X216175500Y-95299500D01*
X217900000Y-87900000D02*
X217635200Y-88164800D01*
X217635200Y-88164800D02*
X217635200Y-93839800D01*
X217635200Y-93839800D02*
X216750000Y-94725000D01*
%TO.N,~{LIN_SLP}*%
X200675305Y-90900000D02*
X201825305Y-92050000D01*
X205050000Y-92050000D02*
X205075000Y-92075000D01*
X201825305Y-92050000D02*
X205050000Y-92050000D01*
X198924695Y-90900000D02*
X200675305Y-90900000D01*
X197950000Y-91675000D02*
X198149695Y-91675000D01*
X198149695Y-91675000D02*
X198924695Y-90900000D01*
%TO.N,~{LIN_WAKE}*%
X200875000Y-93275000D02*
X204900000Y-93275000D01*
X199225000Y-91625000D02*
X200875000Y-93275000D01*
X204900000Y-93275000D02*
X204925000Y-93300000D01*
%TO.N,Net-(C7-Pad1)*%
X186649999Y-77324999D02*
X187200000Y-77875000D01*
X187625000Y-73825500D02*
X186649999Y-74800501D01*
X186649999Y-74800501D02*
X186649999Y-77324999D01*
%TO.N,SDA3V*%
X187275000Y-92425000D02*
X185425000Y-90575000D01*
X206150000Y-97300000D02*
X206675000Y-96775000D01*
X185425000Y-90575000D02*
X185425000Y-90325000D01*
X186925000Y-93550000D02*
X190675000Y-97300000D01*
X187300000Y-92450000D02*
X186925000Y-92825000D01*
X190675000Y-97300000D02*
X206150000Y-97300000D01*
X187325000Y-92425000D02*
X187275000Y-92425000D01*
X186925000Y-92825000D02*
X186925000Y-93550000D01*
%TO.N,SCL3V*%
X188918398Y-93818398D02*
X188918398Y-93779600D01*
X202500000Y-95825000D02*
X190925000Y-95825000D01*
X206290576Y-95852382D02*
X202527382Y-95852382D01*
X190925000Y-95825000D02*
X188918398Y-93818398D01*
X202527382Y-95852382D02*
X202500000Y-95825000D01*
X188918398Y-92918398D02*
X187450000Y-91450000D01*
X187450000Y-91450000D02*
X187450000Y-90425000D01*
X188918398Y-93779600D02*
X188918398Y-92918398D01*
%TO.N,Net-(R5-Pad1)*%
X203700000Y-88675000D02*
X203700000Y-86825000D01*
X206050000Y-91025000D02*
X203700000Y-88675000D01*
X204875000Y-94975000D02*
X206050000Y-93800000D01*
X206050000Y-93800000D02*
X206050000Y-91025000D01*
%TO.N,Net-(JP5-Pad2)*%
X184049695Y-93799500D02*
X183075000Y-92824805D01*
X183075000Y-92824805D02*
X183075000Y-92150000D01*
X184049695Y-96425000D02*
X184049695Y-93799500D01*
%TD*%
M02*
