%TF.GenerationSoftware,KiCad,Pcbnew,6.0.11-2627ca5db0~126~ubuntu22.04.1*%
%TF.CreationDate,2023-02-19T01:42:17-05:00*%
%TF.ProjectId,lin-fan-control,6c696e2d-6661-46e2-9d63-6f6e74726f6c,1.0*%
%TF.SameCoordinates,Original*%
%TF.FileFunction,Copper,L3,Inr*%
%TF.FilePolarity,Positive*%
%FSLAX46Y46*%
G04 Gerber Fmt 4.6, Leading zero omitted, Abs format (unit mm)*
G04 Created by KiCad (PCBNEW 6.0.11-2627ca5db0~126~ubuntu22.04.1) date 2023-02-19 01:42:17*
%MOMM*%
%LPD*%
G01*
G04 APERTURE LIST*
%TA.AperFunction,ComponentPad*%
%ADD10R,2.100000X2.100000*%
%TD*%
%TA.AperFunction,ComponentPad*%
%ADD11C,2.100000*%
%TD*%
%TA.AperFunction,ComponentPad*%
%ADD12R,1.700000X1.700000*%
%TD*%
%TA.AperFunction,ComponentPad*%
%ADD13O,1.700000X1.700000*%
%TD*%
%TA.AperFunction,ComponentPad*%
%ADD14C,0.500000*%
%TD*%
%TA.AperFunction,ComponentPad*%
%ADD15R,1.879600X1.879600*%
%TD*%
%TA.AperFunction,ComponentPad*%
%ADD16C,1.879600*%
%TD*%
%TA.AperFunction,ViaPad*%
%ADD17C,0.800000*%
%TD*%
%TA.AperFunction,Conductor*%
%ADD18C,0.250000*%
%TD*%
G04 APERTURE END LIST*
D10*
%TO.N,Net-(J5-Pad1)*%
%TO.C,J5*%
X224675000Y-85450000D03*
D11*
%TO.N,Net-(J5-Pad2)*%
X224675000Y-87990000D03*
%TD*%
D10*
%TO.N,/Fan Control/FAN+*%
%TO.C,J4*%
X224675000Y-73535000D03*
D11*
%TO.N,/Fan Control/FAN-*%
X224675000Y-76075000D03*
%TO.N,Net-(R25-Pad2)*%
X224675000Y-78615000D03*
%TO.N,PWM*%
X224675000Y-81155000D03*
%TD*%
D12*
%TO.N,GND*%
%TO.C,J2*%
X180150000Y-82100000D03*
D13*
%TO.N,+5V*%
X182690000Y-82100000D03*
%TO.N,SDA5V*%
X185230000Y-82100000D03*
%TO.N,SCL5V*%
X187770000Y-82100000D03*
%TD*%
D14*
%TO.N,GND*%
%TO.C,U5*%
X200150000Y-71850000D03*
X198250000Y-73200000D03*
X198250000Y-74550000D03*
X200150000Y-73200000D03*
X200150000Y-74550000D03*
X198250000Y-71850000D03*
%TD*%
D10*
%TO.N,+BATT*%
%TO.C,J3*%
X224700000Y-64000000D03*
D11*
%TO.N,GND*%
X224700000Y-66540000D03*
%TO.N,LIN*%
X224700000Y-69080000D03*
%TD*%
D15*
%TO.N,GND*%
%TO.C,J1*%
X226520000Y-91800000D03*
D16*
%TO.N,unconnected-(J1-Pad2)*%
X223980000Y-91800000D03*
%TO.N,Net-(J1-Pad3)*%
X221440000Y-91800000D03*
%TO.N,Net-(J1-Pad4)*%
X218900000Y-91800000D03*
%TO.N,UPDI*%
X216360000Y-91800000D03*
%TO.N,unconnected-(J1-Pad6)*%
X213820000Y-91800000D03*
%TD*%
D17*
%TO.N,+3V3*%
X229175000Y-84600000D03*
%TO.N,~{ALERT}*%
X206187299Y-94687299D03*
%TO.N,+3V3*%
X210750000Y-96875000D03*
%TO.N,+12V*%
X216350000Y-67250000D03*
%TO.N,Net-(Q3-Pad1)*%
X219225000Y-81975000D03*
X214075000Y-79075000D03*
%TO.N,GND*%
X213187872Y-83098030D03*
%TO.N,TACH*%
X210175000Y-73400000D03*
X214600000Y-88850000D03*
%TO.N,+5V*%
X204200000Y-69800000D03*
%TO.N,Net-(R25-Pad2)*%
X206475000Y-69500000D03*
%TO.N,TACHa*%
X207150000Y-75200000D03*
%TO.N,+3V3*%
X204550000Y-72450000D03*
X208650000Y-73750000D03*
%TO.N,GND*%
X210975000Y-78125000D03*
X202500000Y-82175000D03*
%TO.N,Net-(C14-Pad1)*%
X197350000Y-80175000D03*
%TO.N,Net-(D5-Pad2)*%
X205200000Y-80500000D03*
%TO.N,Net-(U10-Pad2)*%
X205200000Y-82100000D03*
X202300000Y-78650000D03*
%TO.N,+5V*%
X194450000Y-84925000D03*
X197825000Y-79050000D03*
X201600000Y-82950000D03*
%TO.N,+3V3*%
X207433773Y-84285862D03*
%TO.N,Net-(R26-Pad1)*%
X207400000Y-89400000D03*
%TO.N,Net-(R26-Pad2)*%
X211950000Y-88250000D03*
%TO.N,+5V*%
X207500000Y-87750000D03*
%TO.N,GND*%
X210575000Y-91750000D03*
%TO.N,PWMFAN-*%
X212625000Y-80000000D03*
%TO.N,FANPWM+*%
X214950000Y-71525000D03*
%TO.N,+12V*%
X218175000Y-67000000D03*
%TO.N,Net-(J5-Pad1)*%
X216450000Y-82225000D03*
%TO.N,Net-(J5-Pad2)*%
X215351702Y-82256133D03*
%TO.N,PWM*%
X214475000Y-82875000D03*
%TO.N,+3V3*%
X217450201Y-82225201D03*
%TO.N,GND*%
X216375000Y-85350000D03*
%TO.N,~{TCRIT}*%
X218550000Y-82750000D03*
X211475000Y-92925000D03*
%TO.N,TACH*%
X216275000Y-88900000D03*
%TO.N,SDA3V*%
X212300000Y-96250000D03*
X216911613Y-88128423D03*
%TO.N,SCL3V*%
X212675000Y-95299500D03*
X217900000Y-87900000D03*
%TO.N,GND*%
X211450000Y-63225000D03*
X184652903Y-75302969D03*
X203300000Y-61500000D03*
X177100000Y-71300000D03*
X205400000Y-77200000D03*
X176900000Y-62050000D03*
X177125000Y-76350000D03*
X207550000Y-91950000D03*
X183100000Y-94450000D03*
X200500000Y-82850000D03*
X187000000Y-79000000D03*
X207600000Y-86525000D03*
X206500000Y-90050000D03*
%TO.N,Net-(C5-Pad1)*%
X203435000Y-72565000D03*
X201800000Y-68900000D03*
%TO.N,LIN*%
X199200000Y-81575000D03*
%TO.N,TXD*%
X200800000Y-96575000D03*
X200550000Y-91800000D03*
%TO.N,~{LIN_SLP}*%
X197950000Y-91675000D03*
X205075000Y-92075000D03*
%TO.N,~{LIN_WAKE}*%
X204925000Y-93300000D03*
X199225000Y-91625000D03*
%TO.N,Net-(C6-Pad2)*%
X191325000Y-71800000D03*
%TO.N,Net-(C7-Pad1)*%
X187200000Y-77875000D03*
X187625000Y-73825500D03*
%TO.N,Net-(C7-Pad2)*%
X181812000Y-76162529D03*
%TO.N,Net-(C8-Pad1)*%
X182075000Y-73725000D03*
%TO.N,Net-(C8-Pad2)*%
X188425000Y-75100000D03*
%TO.N,SDA3V*%
X187300000Y-92450000D03*
X206675000Y-96775000D03*
X185425000Y-90325000D03*
%TO.N,SCL3V*%
X206290576Y-95852382D03*
X187450000Y-90425000D03*
X188918398Y-93779600D03*
%TO.N,+3V3*%
X194225000Y-89700000D03*
X197475000Y-93675000D03*
X192850000Y-77800000D03*
X184750000Y-65600000D03*
X190050000Y-90950000D03*
X202850000Y-88175000D03*
X187809929Y-75950089D03*
X192025000Y-93200000D03*
X224425000Y-94725000D03*
X181950000Y-90050000D03*
X190150000Y-80175000D03*
X190550000Y-89975000D03*
X182225000Y-77625000D03*
%TO.N,Net-(R5-Pad1)*%
X204875000Y-94975000D03*
X203700000Y-86825000D03*
%TO.N,Net-(R11-Pad2)*%
X187374999Y-76850001D03*
%TO.N,Net-(R13-Pad2)*%
X203735000Y-73835000D03*
%TO.N,Net-(R17-Pad2)*%
X195000000Y-75200000D03*
%TO.N,Net-(JP2-Pad2)*%
X191362756Y-93948624D03*
%TO.N,Net-(JP3-Pad2)*%
X187887299Y-93487701D03*
%TO.N,Net-(JP4-Pad2)*%
X184175000Y-92899500D03*
%TO.N,Net-(JP5-Pad2)*%
X184049695Y-96425000D03*
X183075000Y-92150000D03*
%TD*%
D18*
%TO.N,Net-(Q3-Pad1)*%
X217625000Y-80375000D02*
X219225000Y-81975000D01*
X217325000Y-80375000D02*
X217625000Y-80375000D01*
X214075000Y-79075000D02*
X215375000Y-80375000D01*
X215375000Y-80375000D02*
X217325000Y-80375000D01*
%TO.N,TACH*%
X214650000Y-88900000D02*
X214600000Y-88850000D01*
X216275000Y-88900000D02*
X214650000Y-88900000D01*
%TO.N,Net-(R25-Pad2)*%
X224675000Y-78615000D02*
X222250000Y-76190000D01*
X222250000Y-76190000D02*
X222250000Y-71250000D01*
X222250000Y-71250000D02*
X219225000Y-68225000D01*
X219225000Y-68225000D02*
X207750000Y-68225000D01*
X207750000Y-68225000D02*
X206475000Y-69500000D01*
%TO.N,+5V*%
X197825000Y-79050000D02*
X196875000Y-79050000D01*
X196875000Y-79050000D02*
X194450000Y-81475000D01*
X194450000Y-81475000D02*
X194450000Y-84925000D01*
%TO.N,Net-(J5-Pad1)*%
X216450000Y-82225000D02*
X216450000Y-82250305D01*
X216450000Y-82250305D02*
X219649695Y-85450000D01*
X219649695Y-85450000D02*
X224675000Y-85450000D01*
%TO.N,Net-(J5-Pad2)*%
X215351702Y-82256133D02*
X221085569Y-87990000D01*
X221085569Y-87990000D02*
X224675000Y-87990000D01*
%TO.N,SDA3V*%
X215275000Y-96250000D02*
X212300000Y-96250000D01*
X216911613Y-88128423D02*
X217624800Y-88841610D01*
X217624800Y-88841610D02*
X217624800Y-93900200D01*
X216275000Y-95250000D02*
X215275000Y-96250000D01*
X217624800Y-93900200D02*
X216275000Y-95250000D01*
%TO.N,Net-(C5-Pad1)*%
X201800000Y-70930000D02*
X203435000Y-72565000D01*
X201800000Y-68900000D02*
X201800000Y-70930000D01*
%TD*%
%TA.AperFunction,Conductor*%
%TO.N,+3V3*%
G36*
X230065621Y-58948502D02*
G01*
X230112114Y-59002158D01*
X230123500Y-59054500D01*
X230123500Y-100966071D01*
X230103498Y-101034192D01*
X230049842Y-101080685D01*
X229997614Y-101092071D01*
X175783994Y-101140950D01*
X175715855Y-101121009D01*
X175669314Y-101067396D01*
X175657880Y-101015096D01*
X175652555Y-96425000D01*
X183136191Y-96425000D01*
X183156153Y-96614928D01*
X183215168Y-96796556D01*
X183218471Y-96802278D01*
X183218472Y-96802279D01*
X183222671Y-96809552D01*
X183310655Y-96961944D01*
X183315073Y-96966851D01*
X183315074Y-96966852D01*
X183384361Y-97043803D01*
X183438442Y-97103866D01*
X183592943Y-97216118D01*
X183598971Y-97218802D01*
X183598973Y-97218803D01*
X183686448Y-97257749D01*
X183767407Y-97293794D01*
X183852796Y-97311944D01*
X183947751Y-97332128D01*
X183947756Y-97332128D01*
X183954208Y-97333500D01*
X184145182Y-97333500D01*
X184151634Y-97332128D01*
X184151639Y-97332128D01*
X184246594Y-97311944D01*
X184331983Y-97293794D01*
X184412942Y-97257749D01*
X184500417Y-97218803D01*
X184500419Y-97218802D01*
X184506447Y-97216118D01*
X184660948Y-97103866D01*
X184715029Y-97043803D01*
X184784316Y-96966852D01*
X184784317Y-96966851D01*
X184788735Y-96961944D01*
X184876719Y-96809552D01*
X184880918Y-96802279D01*
X184880919Y-96802278D01*
X184884222Y-96796556D01*
X184943237Y-96614928D01*
X184947434Y-96575000D01*
X199886496Y-96575000D01*
X199887186Y-96581565D01*
X199904777Y-96748931D01*
X199906458Y-96764928D01*
X199965473Y-96946556D01*
X200060960Y-97111944D01*
X200065378Y-97116851D01*
X200065379Y-97116852D01*
X200157176Y-97218803D01*
X200188747Y-97253866D01*
X200343248Y-97366118D01*
X200349276Y-97368802D01*
X200349278Y-97368803D01*
X200511681Y-97441109D01*
X200517712Y-97443794D01*
X200583365Y-97457749D01*
X200698056Y-97482128D01*
X200698061Y-97482128D01*
X200704513Y-97483500D01*
X200895487Y-97483500D01*
X200901939Y-97482128D01*
X200901944Y-97482128D01*
X201016635Y-97457749D01*
X201082288Y-97443794D01*
X201088319Y-97441109D01*
X201250722Y-97368803D01*
X201250724Y-97368802D01*
X201256752Y-97366118D01*
X201411253Y-97253866D01*
X201442824Y-97218803D01*
X201534621Y-97116852D01*
X201534622Y-97116851D01*
X201539040Y-97111944D01*
X201634527Y-96946556D01*
X201693542Y-96764928D01*
X201695224Y-96748931D01*
X201712814Y-96581565D01*
X201713504Y-96575000D01*
X201708389Y-96526337D01*
X201694232Y-96391635D01*
X201694232Y-96391633D01*
X201693542Y-96385072D01*
X201634527Y-96203444D01*
X201539040Y-96038056D01*
X201411253Y-95896134D01*
X201308167Y-95821237D01*
X201262094Y-95787763D01*
X201262093Y-95787762D01*
X201256752Y-95783882D01*
X201250724Y-95781198D01*
X201250722Y-95781197D01*
X201088319Y-95708891D01*
X201088318Y-95708891D01*
X201082288Y-95706206D01*
X200988887Y-95686353D01*
X200901944Y-95667872D01*
X200901939Y-95667872D01*
X200895487Y-95666500D01*
X200704513Y-95666500D01*
X200698061Y-95667872D01*
X200698056Y-95667872D01*
X200611113Y-95686353D01*
X200517712Y-95706206D01*
X200511682Y-95708891D01*
X200511681Y-95708891D01*
X200349278Y-95781197D01*
X200349276Y-95781198D01*
X200343248Y-95783882D01*
X200337907Y-95787762D01*
X200337906Y-95787763D01*
X200291833Y-95821237D01*
X200188747Y-95896134D01*
X200060960Y-96038056D01*
X199965473Y-96203444D01*
X199906458Y-96385072D01*
X199905768Y-96391633D01*
X199905768Y-96391635D01*
X199891611Y-96526337D01*
X199886496Y-96575000D01*
X184947434Y-96575000D01*
X184963199Y-96425000D01*
X184943237Y-96235072D01*
X184884222Y-96053444D01*
X184788735Y-95888056D01*
X184783398Y-95882128D01*
X184665370Y-95751045D01*
X184665369Y-95751044D01*
X184660948Y-95746134D01*
X184506447Y-95633882D01*
X184500419Y-95631198D01*
X184500417Y-95631197D01*
X184338014Y-95558891D01*
X184338013Y-95558891D01*
X184331983Y-95556206D01*
X184238583Y-95536353D01*
X184151639Y-95517872D01*
X184151634Y-95517872D01*
X184145182Y-95516500D01*
X183954208Y-95516500D01*
X183947756Y-95517872D01*
X183947751Y-95517872D01*
X183860807Y-95536353D01*
X183767407Y-95556206D01*
X183761377Y-95558891D01*
X183761376Y-95558891D01*
X183598973Y-95631197D01*
X183598971Y-95631198D01*
X183592943Y-95633882D01*
X183438442Y-95746134D01*
X183434021Y-95751044D01*
X183434020Y-95751045D01*
X183315993Y-95882128D01*
X183310655Y-95888056D01*
X183215168Y-96053444D01*
X183156153Y-96235072D01*
X183136191Y-96425000D01*
X175652555Y-96425000D01*
X175647595Y-92150000D01*
X182161496Y-92150000D01*
X182162186Y-92156565D01*
X182180129Y-92327279D01*
X182181458Y-92339928D01*
X182240473Y-92521556D01*
X182243776Y-92527278D01*
X182243777Y-92527279D01*
X182275444Y-92582128D01*
X182335960Y-92686944D01*
X182340378Y-92691851D01*
X182340379Y-92691852D01*
X182454678Y-92818794D01*
X182463747Y-92828866D01*
X182551930Y-92892935D01*
X182612634Y-92937039D01*
X182618248Y-92941118D01*
X182624276Y-92943802D01*
X182624278Y-92943803D01*
X182736329Y-92993691D01*
X182792712Y-93018794D01*
X182874149Y-93036104D01*
X182973056Y-93057128D01*
X182973061Y-93057128D01*
X182979513Y-93058500D01*
X183170487Y-93058500D01*
X183170487Y-93058987D01*
X183236224Y-93071010D01*
X183288070Y-93119512D01*
X183299388Y-93144609D01*
X183340473Y-93271056D01*
X183343776Y-93276778D01*
X183343777Y-93276779D01*
X183397237Y-93369374D01*
X183413975Y-93438369D01*
X183390755Y-93505461D01*
X183334948Y-93549348D01*
X183261921Y-93555621D01*
X183201944Y-93542872D01*
X183201939Y-93542872D01*
X183195487Y-93541500D01*
X183004513Y-93541500D01*
X182998061Y-93542872D01*
X182998056Y-93542872D01*
X182938079Y-93555621D01*
X182817712Y-93581206D01*
X182811682Y-93583891D01*
X182811681Y-93583891D01*
X182649278Y-93656197D01*
X182649276Y-93656198D01*
X182643248Y-93658882D01*
X182488747Y-93771134D01*
X182484326Y-93776044D01*
X182484325Y-93776045D01*
X182467109Y-93795166D01*
X182360960Y-93913056D01*
X182265473Y-94078444D01*
X182206458Y-94260072D01*
X182205768Y-94266633D01*
X182205768Y-94266635D01*
X182200140Y-94320180D01*
X182186496Y-94450000D01*
X182187186Y-94456565D01*
X182204635Y-94622579D01*
X182206458Y-94639928D01*
X182265473Y-94821556D01*
X182360960Y-94986944D01*
X182365378Y-94991851D01*
X182365379Y-94991852D01*
X182477284Y-95116135D01*
X182488747Y-95128866D01*
X182643248Y-95241118D01*
X182649276Y-95243802D01*
X182649278Y-95243803D01*
X182789122Y-95306065D01*
X182817712Y-95318794D01*
X182911113Y-95338647D01*
X182998056Y-95357128D01*
X182998061Y-95357128D01*
X183004513Y-95358500D01*
X183195487Y-95358500D01*
X183201939Y-95357128D01*
X183201944Y-95357128D01*
X183288888Y-95338647D01*
X183382288Y-95318794D01*
X183410878Y-95306065D01*
X183550722Y-95243803D01*
X183550724Y-95243802D01*
X183556752Y-95241118D01*
X183711253Y-95128866D01*
X183722716Y-95116135D01*
X183834621Y-94991852D01*
X183834622Y-94991851D01*
X183839040Y-94986944D01*
X183845936Y-94975000D01*
X203961496Y-94975000D01*
X203962186Y-94981565D01*
X203977152Y-95123955D01*
X203981458Y-95164928D01*
X204040473Y-95346556D01*
X204135960Y-95511944D01*
X204140378Y-95516851D01*
X204140379Y-95516852D01*
X204243336Y-95631197D01*
X204263747Y-95653866D01*
X204418248Y-95766118D01*
X204424276Y-95768802D01*
X204424278Y-95768803D01*
X204586679Y-95841108D01*
X204592712Y-95843794D01*
X204664001Y-95858947D01*
X204773056Y-95882128D01*
X204773061Y-95882128D01*
X204779513Y-95883500D01*
X204970487Y-95883500D01*
X204976939Y-95882128D01*
X204976944Y-95882128D01*
X205085999Y-95858947D01*
X205157288Y-95843794D01*
X205163315Y-95841111D01*
X205163323Y-95841108D01*
X205207952Y-95821237D01*
X205278319Y-95811802D01*
X205342616Y-95841908D01*
X205380430Y-95901996D01*
X205384512Y-95923172D01*
X205395044Y-96023374D01*
X205397034Y-96042310D01*
X205456049Y-96223938D01*
X205459352Y-96229660D01*
X205459353Y-96229661D01*
X205467501Y-96243774D01*
X205551536Y-96389326D01*
X205679323Y-96531248D01*
X205684664Y-96535128D01*
X205684669Y-96535133D01*
X205720616Y-96561250D01*
X205763969Y-96617472D01*
X205771864Y-96676356D01*
X205761496Y-96775000D01*
X205762186Y-96781565D01*
X205780129Y-96952279D01*
X205781458Y-96964928D01*
X205840473Y-97146556D01*
X205935960Y-97311944D01*
X205940378Y-97316851D01*
X205940379Y-97316852D01*
X206054678Y-97443794D01*
X206063747Y-97453866D01*
X206218248Y-97566118D01*
X206224276Y-97568802D01*
X206224278Y-97568803D01*
X206386681Y-97641109D01*
X206392712Y-97643794D01*
X206486113Y-97663647D01*
X206573056Y-97682128D01*
X206573061Y-97682128D01*
X206579513Y-97683500D01*
X206770487Y-97683500D01*
X206776939Y-97682128D01*
X206776944Y-97682128D01*
X206863887Y-97663647D01*
X206957288Y-97643794D01*
X206963319Y-97641109D01*
X207125722Y-97568803D01*
X207125724Y-97568802D01*
X207131752Y-97566118D01*
X207286253Y-97453866D01*
X207295322Y-97443794D01*
X207409621Y-97316852D01*
X207409622Y-97316851D01*
X207414040Y-97311944D01*
X207509527Y-97146556D01*
X207568542Y-96964928D01*
X207569872Y-96952279D01*
X207587814Y-96781565D01*
X207588504Y-96775000D01*
X207572340Y-96621206D01*
X207569232Y-96591635D01*
X207569232Y-96591633D01*
X207568542Y-96585072D01*
X207509527Y-96403444D01*
X207420936Y-96250000D01*
X211386496Y-96250000D01*
X211387186Y-96256565D01*
X211401140Y-96389326D01*
X211406458Y-96439928D01*
X211465473Y-96621556D01*
X211560960Y-96786944D01*
X211565378Y-96791851D01*
X211565379Y-96791852D01*
X211647452Y-96883003D01*
X211688747Y-96928866D01*
X211843248Y-97041118D01*
X211849276Y-97043802D01*
X211849278Y-97043803D01*
X212011681Y-97116109D01*
X212017712Y-97118794D01*
X212111112Y-97138647D01*
X212198056Y-97157128D01*
X212198061Y-97157128D01*
X212204513Y-97158500D01*
X212395487Y-97158500D01*
X212401939Y-97157128D01*
X212401944Y-97157128D01*
X212488887Y-97138647D01*
X212582288Y-97118794D01*
X212588319Y-97116109D01*
X212750722Y-97043803D01*
X212750724Y-97043802D01*
X212756752Y-97041118D01*
X212911253Y-96928866D01*
X212915668Y-96923963D01*
X212920580Y-96919540D01*
X212921705Y-96920789D01*
X212975014Y-96887949D01*
X213008200Y-96883500D01*
X215196233Y-96883500D01*
X215207416Y-96884027D01*
X215214909Y-96885702D01*
X215222835Y-96885453D01*
X215222836Y-96885453D01*
X215282986Y-96883562D01*
X215286945Y-96883500D01*
X215314856Y-96883500D01*
X215318791Y-96883003D01*
X215318856Y-96882995D01*
X215330693Y-96882062D01*
X215362951Y-96881048D01*
X215366970Y-96880922D01*
X215374889Y-96880673D01*
X215394343Y-96875021D01*
X215413700Y-96871013D01*
X215425930Y-96869468D01*
X215425931Y-96869468D01*
X215433797Y-96868474D01*
X215441168Y-96865555D01*
X215441170Y-96865555D01*
X215474912Y-96852196D01*
X215486142Y-96848351D01*
X215520983Y-96838229D01*
X215520984Y-96838229D01*
X215528593Y-96836018D01*
X215535412Y-96831985D01*
X215535417Y-96831983D01*
X215546028Y-96825707D01*
X215563776Y-96817012D01*
X215582617Y-96809552D01*
X215609156Y-96790271D01*
X215618387Y-96783564D01*
X215628307Y-96777048D01*
X215659535Y-96758580D01*
X215659538Y-96758578D01*
X215666362Y-96754542D01*
X215680683Y-96740221D01*
X215695717Y-96727380D01*
X215705694Y-96720131D01*
X215712107Y-96715472D01*
X215740298Y-96681395D01*
X215748288Y-96672616D01*
X218017047Y-94403857D01*
X218025337Y-94396313D01*
X218031818Y-94392200D01*
X218078459Y-94342532D01*
X218081213Y-94339691D01*
X218100934Y-94319970D01*
X218103412Y-94316775D01*
X218111118Y-94307753D01*
X218125675Y-94292251D01*
X218141386Y-94275521D01*
X218151146Y-94257768D01*
X218161999Y-94241245D01*
X218169553Y-94231506D01*
X218174413Y-94225241D01*
X218191976Y-94184657D01*
X218197183Y-94174027D01*
X218218495Y-94135260D01*
X218220466Y-94127583D01*
X218220468Y-94127578D01*
X218223532Y-94115642D01*
X218229938Y-94096930D01*
X218234834Y-94085617D01*
X218237981Y-94078345D01*
X218244897Y-94034681D01*
X218247304Y-94023060D01*
X218256328Y-93987911D01*
X218256328Y-93987910D01*
X218258300Y-93980230D01*
X218258300Y-93959969D01*
X218259851Y-93940258D01*
X218261779Y-93928085D01*
X218263019Y-93920257D01*
X218258859Y-93876246D01*
X218258300Y-93864389D01*
X218258300Y-93288333D01*
X218278302Y-93220212D01*
X218331958Y-93173719D01*
X218402232Y-93163615D01*
X218429246Y-93170622D01*
X218494552Y-93195560D01*
X218499618Y-93196591D01*
X218499619Y-93196591D01*
X218553956Y-93207646D01*
X218727928Y-93243041D01*
X218861284Y-93247931D01*
X218960760Y-93251579D01*
X218960764Y-93251579D01*
X218965924Y-93251768D01*
X218971044Y-93251112D01*
X218971046Y-93251112D01*
X219197023Y-93222164D01*
X219197024Y-93222164D01*
X219202151Y-93221507D01*
X219285200Y-93196591D01*
X219425316Y-93154554D01*
X219425317Y-93154553D01*
X219430262Y-93153070D01*
X219644133Y-93048295D01*
X219648336Y-93045297D01*
X219648341Y-93045294D01*
X219833816Y-92912996D01*
X219833818Y-92912994D01*
X219838020Y-92909997D01*
X220006716Y-92741889D01*
X220064979Y-92660807D01*
X220120972Y-92617160D01*
X220191676Y-92610714D01*
X220254640Y-92643516D01*
X220266582Y-92657176D01*
X220267274Y-92658306D01*
X220423204Y-92838317D01*
X220606442Y-92990444D01*
X220610894Y-92993046D01*
X220610899Y-92993049D01*
X220775832Y-93089428D01*
X220812065Y-93110601D01*
X221034552Y-93195560D01*
X221039618Y-93196591D01*
X221039619Y-93196591D01*
X221093956Y-93207646D01*
X221267928Y-93243041D01*
X221401284Y-93247931D01*
X221500760Y-93251579D01*
X221500764Y-93251579D01*
X221505924Y-93251768D01*
X221511044Y-93251112D01*
X221511046Y-93251112D01*
X221737023Y-93222164D01*
X221737024Y-93222164D01*
X221742151Y-93221507D01*
X221825200Y-93196591D01*
X221965316Y-93154554D01*
X221965317Y-93154553D01*
X221970262Y-93153070D01*
X222184133Y-93048295D01*
X222188336Y-93045297D01*
X222188341Y-93045294D01*
X222373816Y-92912996D01*
X222373818Y-92912994D01*
X222378020Y-92909997D01*
X222546716Y-92741889D01*
X222604979Y-92660807D01*
X222660972Y-92617160D01*
X222731676Y-92610714D01*
X222794640Y-92643516D01*
X222806582Y-92657176D01*
X222807274Y-92658306D01*
X222963204Y-92838317D01*
X223146442Y-92990444D01*
X223150894Y-92993046D01*
X223150899Y-92993049D01*
X223315832Y-93089428D01*
X223352065Y-93110601D01*
X223574552Y-93195560D01*
X223579618Y-93196591D01*
X223579619Y-93196591D01*
X223633956Y-93207646D01*
X223807928Y-93243041D01*
X223941284Y-93247931D01*
X224040760Y-93251579D01*
X224040764Y-93251579D01*
X224045924Y-93251768D01*
X224051044Y-93251112D01*
X224051046Y-93251112D01*
X224277023Y-93222164D01*
X224277024Y-93222164D01*
X224282151Y-93221507D01*
X224365200Y-93196591D01*
X224505316Y-93154554D01*
X224505317Y-93154553D01*
X224510262Y-93153070D01*
X224724133Y-93048295D01*
X224728336Y-93045297D01*
X224728341Y-93045294D01*
X224913810Y-92913000D01*
X224918020Y-92909997D01*
X224920601Y-92907425D01*
X224985135Y-92878913D01*
X225055278Y-92889886D01*
X225108355Y-92937039D01*
X225119502Y-92959610D01*
X225129585Y-92986505D01*
X225216939Y-93103061D01*
X225333495Y-93190415D01*
X225469884Y-93241545D01*
X225532066Y-93248300D01*
X227507934Y-93248300D01*
X227570116Y-93241545D01*
X227706505Y-93190415D01*
X227823061Y-93103061D01*
X227910415Y-92986505D01*
X227961545Y-92850116D01*
X227968300Y-92787934D01*
X227968300Y-90812066D01*
X227961545Y-90749884D01*
X227910415Y-90613495D01*
X227823061Y-90496939D01*
X227706505Y-90409585D01*
X227570116Y-90358455D01*
X227507934Y-90351700D01*
X225532066Y-90351700D01*
X225469884Y-90358455D01*
X225333495Y-90409585D01*
X225216939Y-90496939D01*
X225129585Y-90613495D01*
X225126433Y-90621903D01*
X225118218Y-90643816D01*
X225075576Y-90700580D01*
X225009014Y-90725280D01*
X224939666Y-90710072D01*
X224922144Y-90698468D01*
X224788278Y-90592747D01*
X224788273Y-90592744D01*
X224784224Y-90589546D01*
X224779708Y-90587053D01*
X224779705Y-90587051D01*
X224580250Y-90476946D01*
X224580246Y-90476944D01*
X224575726Y-90474449D01*
X224570857Y-90472725D01*
X224570853Y-90472723D01*
X224356105Y-90396676D01*
X224356101Y-90396675D01*
X224351230Y-90394950D01*
X224346140Y-90394043D01*
X224346135Y-90394042D01*
X224218814Y-90371364D01*
X224116764Y-90353186D01*
X224025355Y-90352069D01*
X223883795Y-90350339D01*
X223883793Y-90350339D01*
X223878625Y-90350276D01*
X223643209Y-90386300D01*
X223416838Y-90460289D01*
X223392953Y-90472723D01*
X223244740Y-90549878D01*
X223205590Y-90570258D01*
X223201457Y-90573361D01*
X223201454Y-90573363D01*
X223019375Y-90710072D01*
X223015140Y-90713252D01*
X223011568Y-90716990D01*
X222854640Y-90881206D01*
X222850602Y-90885431D01*
X222817545Y-90933891D01*
X222815186Y-90937349D01*
X222760274Y-90982351D01*
X222689749Y-90990522D01*
X222626002Y-90959267D01*
X222605306Y-90934784D01*
X222594217Y-90917642D01*
X222594212Y-90917636D01*
X222591406Y-90913298D01*
X222571572Y-90891500D01*
X222531700Y-90847682D01*
X222431124Y-90737150D01*
X222427073Y-90733951D01*
X222427069Y-90733947D01*
X222248278Y-90592747D01*
X222248273Y-90592744D01*
X222244224Y-90589546D01*
X222239708Y-90587053D01*
X222239705Y-90587051D01*
X222040250Y-90476946D01*
X222040246Y-90476944D01*
X222035726Y-90474449D01*
X222030857Y-90472725D01*
X222030853Y-90472723D01*
X221816105Y-90396676D01*
X221816101Y-90396675D01*
X221811230Y-90394950D01*
X221806140Y-90394043D01*
X221806135Y-90394042D01*
X221678814Y-90371364D01*
X221576764Y-90353186D01*
X221485355Y-90352069D01*
X221343795Y-90350339D01*
X221343793Y-90350339D01*
X221338625Y-90350276D01*
X221103209Y-90386300D01*
X220876838Y-90460289D01*
X220852953Y-90472723D01*
X220704740Y-90549878D01*
X220665590Y-90570258D01*
X220661457Y-90573361D01*
X220661454Y-90573363D01*
X220479375Y-90710072D01*
X220475140Y-90713252D01*
X220471568Y-90716990D01*
X220314640Y-90881206D01*
X220310602Y-90885431D01*
X220277545Y-90933891D01*
X220275186Y-90937349D01*
X220220274Y-90982351D01*
X220149749Y-90990522D01*
X220086002Y-90959267D01*
X220065306Y-90934784D01*
X220054217Y-90917642D01*
X220054212Y-90917636D01*
X220051406Y-90913298D01*
X220031572Y-90891500D01*
X219991700Y-90847682D01*
X219891124Y-90737150D01*
X219887073Y-90733951D01*
X219887069Y-90733947D01*
X219708278Y-90592747D01*
X219708273Y-90592744D01*
X219704224Y-90589546D01*
X219699708Y-90587053D01*
X219699705Y-90587051D01*
X219500250Y-90476946D01*
X219500246Y-90476944D01*
X219495726Y-90474449D01*
X219490857Y-90472725D01*
X219490853Y-90472723D01*
X219276105Y-90396676D01*
X219276101Y-90396675D01*
X219271230Y-90394950D01*
X219266140Y-90394043D01*
X219266135Y-90394042D01*
X219138814Y-90371364D01*
X219036764Y-90353186D01*
X218945355Y-90352069D01*
X218803795Y-90350339D01*
X218803793Y-90350339D01*
X218798625Y-90350276D01*
X218563209Y-90386300D01*
X218423444Y-90431982D01*
X218352481Y-90434133D01*
X218291620Y-90397577D01*
X218260183Y-90333920D01*
X218258300Y-90312217D01*
X218258300Y-88920378D01*
X218258827Y-88909195D01*
X218260502Y-88901702D01*
X218258362Y-88833611D01*
X218258300Y-88829654D01*
X218258300Y-88816777D01*
X218278302Y-88748656D01*
X218333053Y-88701670D01*
X218350716Y-88693806D01*
X218350721Y-88693803D01*
X218356752Y-88691118D01*
X218511253Y-88578866D01*
X218543762Y-88542761D01*
X218634621Y-88441852D01*
X218634622Y-88441851D01*
X218639040Y-88436944D01*
X218734527Y-88271556D01*
X218793542Y-88089928D01*
X218801184Y-88017224D01*
X218812814Y-87906565D01*
X218813504Y-87900000D01*
X218796754Y-87740630D01*
X218794232Y-87716635D01*
X218794232Y-87716633D01*
X218793542Y-87710072D01*
X218734527Y-87528444D01*
X218724872Y-87511720D01*
X218642341Y-87368774D01*
X218639040Y-87363056D01*
X218564498Y-87280268D01*
X218515675Y-87226045D01*
X218515674Y-87226044D01*
X218511253Y-87221134D01*
X218388358Y-87131845D01*
X218362094Y-87112763D01*
X218362093Y-87112762D01*
X218356752Y-87108882D01*
X218350724Y-87106198D01*
X218350722Y-87106197D01*
X218188319Y-87033891D01*
X218188318Y-87033891D01*
X218182288Y-87031206D01*
X218088888Y-87011353D01*
X218001944Y-86992872D01*
X218001939Y-86992872D01*
X217995487Y-86991500D01*
X217804513Y-86991500D01*
X217798061Y-86992872D01*
X217798056Y-86992872D01*
X217711112Y-87011353D01*
X217617712Y-87031206D01*
X217611682Y-87033891D01*
X217611681Y-87033891D01*
X217449278Y-87106197D01*
X217449276Y-87106198D01*
X217443248Y-87108882D01*
X217437907Y-87112762D01*
X217437906Y-87112763D01*
X217411642Y-87131845D01*
X217288747Y-87221134D01*
X217284503Y-87225847D01*
X217220587Y-87256523D01*
X217174083Y-87255416D01*
X217013566Y-87221296D01*
X217013553Y-87221295D01*
X217007100Y-87219923D01*
X216816126Y-87219923D01*
X216809674Y-87221295D01*
X216809669Y-87221295D01*
X216722725Y-87239776D01*
X216629325Y-87259629D01*
X216623295Y-87262314D01*
X216623294Y-87262314D01*
X216460891Y-87334620D01*
X216460889Y-87334621D01*
X216454861Y-87337305D01*
X216449520Y-87341185D01*
X216449519Y-87341186D01*
X216428441Y-87356500D01*
X216300360Y-87449557D01*
X216295939Y-87454467D01*
X216295938Y-87454468D01*
X216194943Y-87566635D01*
X216172573Y-87591479D01*
X216115051Y-87691109D01*
X216081051Y-87750000D01*
X216077086Y-87756867D01*
X216018071Y-87938495D01*
X216017381Y-87945062D01*
X216017380Y-87945066D01*
X216016696Y-87951568D01*
X215989681Y-88017224D01*
X215942636Y-88053501D01*
X215824278Y-88106197D01*
X215824276Y-88106198D01*
X215818248Y-88108882D01*
X215663747Y-88221134D01*
X215659332Y-88226037D01*
X215654420Y-88230460D01*
X215653295Y-88229211D01*
X215599986Y-88262051D01*
X215566800Y-88266500D01*
X215353219Y-88266500D01*
X215285098Y-88246498D01*
X215259583Y-88224810D01*
X215252781Y-88217255D01*
X215211253Y-88171134D01*
X215056752Y-88058882D01*
X215050724Y-88056198D01*
X215050722Y-88056197D01*
X214888319Y-87983891D01*
X214888318Y-87983891D01*
X214882288Y-87981206D01*
X214788887Y-87961353D01*
X214701944Y-87942872D01*
X214701939Y-87942872D01*
X214695487Y-87941500D01*
X214504513Y-87941500D01*
X214498061Y-87942872D01*
X214498056Y-87942872D01*
X214411113Y-87961353D01*
X214317712Y-87981206D01*
X214311682Y-87983891D01*
X214311681Y-87983891D01*
X214149278Y-88056197D01*
X214149276Y-88056198D01*
X214143248Y-88058882D01*
X213988747Y-88171134D01*
X213984326Y-88176044D01*
X213984325Y-88176045D01*
X213947220Y-88217255D01*
X213860960Y-88313056D01*
X213817405Y-88388495D01*
X213784783Y-88444999D01*
X213765473Y-88478444D01*
X213706458Y-88660072D01*
X213705768Y-88666633D01*
X213705768Y-88666635D01*
X213692607Y-88791857D01*
X213686496Y-88850000D01*
X213706458Y-89039928D01*
X213765473Y-89221556D01*
X213860960Y-89386944D01*
X213865378Y-89391851D01*
X213865379Y-89391852D01*
X213978848Y-89517872D01*
X213988747Y-89528866D01*
X214030073Y-89558891D01*
X214133289Y-89633882D01*
X214143248Y-89641118D01*
X214149276Y-89643802D01*
X214149278Y-89643803D01*
X214255550Y-89691118D01*
X214317712Y-89718794D01*
X214411113Y-89738647D01*
X214498056Y-89757128D01*
X214498061Y-89757128D01*
X214504513Y-89758500D01*
X214695487Y-89758500D01*
X214701939Y-89757128D01*
X214701944Y-89757128D01*
X214788887Y-89738647D01*
X214882288Y-89718794D01*
X214944450Y-89691118D01*
X215050722Y-89643803D01*
X215050724Y-89643802D01*
X215056752Y-89641118D01*
X215066712Y-89633882D01*
X215171754Y-89557564D01*
X215238622Y-89533705D01*
X215245815Y-89533500D01*
X215566800Y-89533500D01*
X215634921Y-89553502D01*
X215654147Y-89569843D01*
X215654420Y-89569540D01*
X215659332Y-89573963D01*
X215663747Y-89578866D01*
X215669086Y-89582745D01*
X215750989Y-89642251D01*
X215818248Y-89691118D01*
X215824276Y-89693802D01*
X215824278Y-89693803D01*
X215969591Y-89758500D01*
X215992712Y-89768794D01*
X216083332Y-89788056D01*
X216173056Y-89807128D01*
X216173061Y-89807128D01*
X216179513Y-89808500D01*
X216370487Y-89808500D01*
X216376939Y-89807128D01*
X216376944Y-89807128D01*
X216466668Y-89788056D01*
X216557288Y-89768794D01*
X216580409Y-89758500D01*
X216725722Y-89693803D01*
X216725724Y-89693802D01*
X216731752Y-89691118D01*
X216791239Y-89647898D01*
X216858107Y-89624040D01*
X216927258Y-89640120D01*
X216976738Y-89691034D01*
X216991300Y-89749834D01*
X216991300Y-90308760D01*
X216971298Y-90376881D01*
X216917642Y-90423374D01*
X216847368Y-90433478D01*
X216823242Y-90427534D01*
X216763657Y-90406433D01*
X216736105Y-90396676D01*
X216736101Y-90396675D01*
X216731230Y-90394950D01*
X216726140Y-90394043D01*
X216726135Y-90394042D01*
X216598814Y-90371364D01*
X216496764Y-90353186D01*
X216405355Y-90352069D01*
X216263795Y-90350339D01*
X216263793Y-90350339D01*
X216258625Y-90350276D01*
X216023209Y-90386300D01*
X215796838Y-90460289D01*
X215772953Y-90472723D01*
X215624740Y-90549878D01*
X215585590Y-90570258D01*
X215581457Y-90573361D01*
X215581454Y-90573363D01*
X215399375Y-90710072D01*
X215395140Y-90713252D01*
X215391568Y-90716990D01*
X215234640Y-90881206D01*
X215230602Y-90885431D01*
X215197545Y-90933891D01*
X215195186Y-90937349D01*
X215140274Y-90982351D01*
X215069749Y-90990522D01*
X215006002Y-90959267D01*
X214985306Y-90934784D01*
X214974217Y-90917642D01*
X214974212Y-90917636D01*
X214971406Y-90913298D01*
X214951572Y-90891500D01*
X214911700Y-90847682D01*
X214811124Y-90737150D01*
X214807073Y-90733951D01*
X214807069Y-90733947D01*
X214628278Y-90592747D01*
X214628273Y-90592744D01*
X214624224Y-90589546D01*
X214619708Y-90587053D01*
X214619705Y-90587051D01*
X214420250Y-90476946D01*
X214420246Y-90476944D01*
X214415726Y-90474449D01*
X214410857Y-90472725D01*
X214410853Y-90472723D01*
X214196105Y-90396676D01*
X214196101Y-90396675D01*
X214191230Y-90394950D01*
X214186140Y-90394043D01*
X214186135Y-90394042D01*
X214058814Y-90371364D01*
X213956764Y-90353186D01*
X213865355Y-90352069D01*
X213723795Y-90350339D01*
X213723793Y-90350339D01*
X213718625Y-90350276D01*
X213483209Y-90386300D01*
X213256838Y-90460289D01*
X213232953Y-90472723D01*
X213084740Y-90549878D01*
X213045590Y-90570258D01*
X213041457Y-90573361D01*
X213041454Y-90573363D01*
X212859375Y-90710072D01*
X212855140Y-90713252D01*
X212851568Y-90716990D01*
X212694640Y-90881206D01*
X212690602Y-90885431D01*
X212687691Y-90889699D01*
X212687687Y-90889704D01*
X212635060Y-90966852D01*
X212556394Y-91082172D01*
X212522033Y-91156197D01*
X212462760Y-91283891D01*
X212456122Y-91298191D01*
X212392477Y-91527685D01*
X212391928Y-91532819D01*
X212391928Y-91532821D01*
X212387664Y-91572721D01*
X212367170Y-91764494D01*
X212367467Y-91769646D01*
X212367467Y-91769650D01*
X212377647Y-91946206D01*
X212380879Y-92002255D01*
X212382016Y-92007301D01*
X212382017Y-92007307D01*
X212411417Y-92137763D01*
X212433237Y-92234585D01*
X212435179Y-92239367D01*
X212435180Y-92239371D01*
X212441037Y-92253794D01*
X212476013Y-92339928D01*
X212476380Y-92340833D01*
X212483476Y-92411474D01*
X212460527Y-92456531D01*
X212498705Y-92460912D01*
X212557089Y-92511138D01*
X212647274Y-92658306D01*
X212803204Y-92838317D01*
X212986442Y-92990444D01*
X212990894Y-92993046D01*
X212990899Y-92993049D01*
X213155832Y-93089428D01*
X213192065Y-93110601D01*
X213414552Y-93195560D01*
X213419618Y-93196591D01*
X213419619Y-93196591D01*
X213473956Y-93207646D01*
X213647928Y-93243041D01*
X213781284Y-93247931D01*
X213880760Y-93251579D01*
X213880764Y-93251579D01*
X213885924Y-93251768D01*
X213891044Y-93251112D01*
X213891046Y-93251112D01*
X214117023Y-93222164D01*
X214117024Y-93222164D01*
X214122151Y-93221507D01*
X214205200Y-93196591D01*
X214345316Y-93154554D01*
X214345317Y-93154553D01*
X214350262Y-93153070D01*
X214564133Y-93048295D01*
X214568336Y-93045297D01*
X214568341Y-93045294D01*
X214753816Y-92912996D01*
X214753818Y-92912994D01*
X214758020Y-92909997D01*
X214926716Y-92741889D01*
X214984979Y-92660807D01*
X215040972Y-92617160D01*
X215111676Y-92610714D01*
X215174640Y-92643516D01*
X215186582Y-92657176D01*
X215187274Y-92658306D01*
X215343204Y-92838317D01*
X215526442Y-92990444D01*
X215530894Y-92993046D01*
X215530899Y-92993049D01*
X215695832Y-93089428D01*
X215732065Y-93110601D01*
X215954552Y-93195560D01*
X215959618Y-93196591D01*
X215959619Y-93196591D01*
X216013956Y-93207646D01*
X216187928Y-93243041D01*
X216321284Y-93247931D01*
X216420760Y-93251579D01*
X216420764Y-93251579D01*
X216425924Y-93251768D01*
X216431044Y-93251112D01*
X216431046Y-93251112D01*
X216657023Y-93222164D01*
X216657024Y-93222164D01*
X216662151Y-93221507D01*
X216765786Y-93190415D01*
X216829092Y-93171422D01*
X216900088Y-93171006D01*
X216960038Y-93209038D01*
X216989910Y-93273444D01*
X216991300Y-93292108D01*
X216991300Y-93585605D01*
X216971298Y-93653726D01*
X216954395Y-93674700D01*
X215049499Y-95579596D01*
X214987187Y-95613621D01*
X214960404Y-95616500D01*
X213695124Y-95616500D01*
X213627003Y-95596498D01*
X213580510Y-95542842D01*
X213569814Y-95477330D01*
X213587814Y-95306065D01*
X213588504Y-95299500D01*
X213568542Y-95109572D01*
X213509527Y-94927944D01*
X213480246Y-94877227D01*
X213430829Y-94791635D01*
X213414040Y-94762556D01*
X213346279Y-94687299D01*
X213290675Y-94625545D01*
X213290674Y-94625544D01*
X213286253Y-94620634D01*
X213131752Y-94508382D01*
X213125724Y-94505698D01*
X213125722Y-94505697D01*
X212963319Y-94433391D01*
X212963318Y-94433391D01*
X212957288Y-94430706D01*
X212863888Y-94410853D01*
X212776944Y-94392372D01*
X212776939Y-94392372D01*
X212770487Y-94391000D01*
X212579513Y-94391000D01*
X212573061Y-94392372D01*
X212573056Y-94392372D01*
X212486113Y-94410853D01*
X212392712Y-94430706D01*
X212386682Y-94433391D01*
X212386681Y-94433391D01*
X212224278Y-94505697D01*
X212224276Y-94505698D01*
X212218248Y-94508382D01*
X212063747Y-94620634D01*
X212059326Y-94625544D01*
X212059325Y-94625545D01*
X212003722Y-94687299D01*
X211935960Y-94762556D01*
X211919171Y-94791635D01*
X211869755Y-94877227D01*
X211840473Y-94927944D01*
X211781458Y-95109572D01*
X211761496Y-95299500D01*
X211762186Y-95306065D01*
X211775255Y-95430411D01*
X211762483Y-95500249D01*
X211724007Y-95545516D01*
X211688747Y-95571134D01*
X211684326Y-95576044D01*
X211684325Y-95576045D01*
X211610759Y-95657749D01*
X211560960Y-95713056D01*
X211521619Y-95781197D01*
X211476730Y-95858947D01*
X211465473Y-95878444D01*
X211406458Y-96060072D01*
X211405768Y-96066633D01*
X211405768Y-96066635D01*
X211391991Y-96197721D01*
X211386496Y-96250000D01*
X207420936Y-96250000D01*
X207414040Y-96238056D01*
X207405701Y-96228794D01*
X207290675Y-96101045D01*
X207290674Y-96101044D01*
X207286253Y-96096134D01*
X207280912Y-96092254D01*
X207280907Y-96092249D01*
X207244960Y-96066132D01*
X207201607Y-96009910D01*
X207193712Y-95951026D01*
X207199730Y-95893774D01*
X207204080Y-95852382D01*
X207197288Y-95787763D01*
X207184808Y-95669017D01*
X207184808Y-95669015D01*
X207184118Y-95662454D01*
X207125103Y-95480826D01*
X207029616Y-95315438D01*
X206995861Y-95277950D01*
X206965146Y-95213946D01*
X206973909Y-95143492D01*
X206980380Y-95130642D01*
X207018522Y-95064578D01*
X207018523Y-95064577D01*
X207021826Y-95058855D01*
X207080841Y-94877227D01*
X207100803Y-94687299D01*
X207094517Y-94627490D01*
X207081531Y-94503934D01*
X207081531Y-94503932D01*
X207080841Y-94497371D01*
X207021826Y-94315743D01*
X206926339Y-94150355D01*
X206912748Y-94135260D01*
X206802974Y-94013344D01*
X206802973Y-94013343D01*
X206798552Y-94008433D01*
X206677189Y-93920257D01*
X206649393Y-93900062D01*
X206649392Y-93900061D01*
X206644051Y-93896181D01*
X206638023Y-93893497D01*
X206638021Y-93893496D01*
X206475618Y-93821190D01*
X206475617Y-93821190D01*
X206469587Y-93818505D01*
X206376186Y-93798652D01*
X206289243Y-93780171D01*
X206289238Y-93780171D01*
X206282786Y-93778799D01*
X206091812Y-93778799D01*
X206085360Y-93780171D01*
X206085355Y-93780171D01*
X205910915Y-93817250D01*
X205840124Y-93811848D01*
X205783492Y-93769031D01*
X205758998Y-93702394D01*
X205764885Y-93655067D01*
X205816502Y-93496206D01*
X205818542Y-93489928D01*
X205820968Y-93466852D01*
X205837814Y-93306565D01*
X205838504Y-93300000D01*
X205835396Y-93270433D01*
X205819232Y-93116635D01*
X205819232Y-93116633D01*
X205818542Y-93110072D01*
X205759527Y-92928444D01*
X205715257Y-92851766D01*
X205698520Y-92782771D01*
X205721741Y-92715679D01*
X205730741Y-92704457D01*
X205809621Y-92616852D01*
X205809622Y-92616851D01*
X205814040Y-92611944D01*
X205909527Y-92446556D01*
X205968542Y-92264928D01*
X205970518Y-92246134D01*
X205987814Y-92081565D01*
X205988504Y-92075000D01*
X205986529Y-92056206D01*
X205975366Y-91950000D01*
X206636496Y-91950000D01*
X206637186Y-91956565D01*
X206655129Y-92127279D01*
X206656458Y-92139928D01*
X206715473Y-92321556D01*
X206718776Y-92327278D01*
X206718777Y-92327279D01*
X206727191Y-92341852D01*
X206810960Y-92486944D01*
X206815378Y-92491851D01*
X206815379Y-92491852D01*
X206928207Y-92617160D01*
X206938747Y-92628866D01*
X207028253Y-92693896D01*
X207076286Y-92728794D01*
X207093248Y-92741118D01*
X207099276Y-92743802D01*
X207099278Y-92743803D01*
X207256365Y-92813742D01*
X207267712Y-92818794D01*
X207359560Y-92838317D01*
X207448056Y-92857128D01*
X207448061Y-92857128D01*
X207454513Y-92858500D01*
X207645487Y-92858500D01*
X207651939Y-92857128D01*
X207651944Y-92857128D01*
X207740440Y-92838317D01*
X207832288Y-92818794D01*
X207843635Y-92813742D01*
X208000722Y-92743803D01*
X208000724Y-92743802D01*
X208006752Y-92741118D01*
X208023715Y-92728794D01*
X208071747Y-92693896D01*
X208161253Y-92628866D01*
X208171793Y-92617160D01*
X208284621Y-92491852D01*
X208284622Y-92491851D01*
X208289040Y-92486944D01*
X208372809Y-92341852D01*
X208381223Y-92327279D01*
X208381224Y-92327278D01*
X208384527Y-92321556D01*
X208443542Y-92139928D01*
X208444872Y-92127279D01*
X208462814Y-91956565D01*
X208463504Y-91950000D01*
X208445221Y-91776045D01*
X208444232Y-91766635D01*
X208444232Y-91766633D01*
X208443542Y-91760072D01*
X208440269Y-91750000D01*
X209661496Y-91750000D01*
X209662186Y-91756564D01*
X209662186Y-91756565D01*
X209679235Y-91918774D01*
X209681458Y-91939928D01*
X209740473Y-92121556D01*
X209835960Y-92286944D01*
X209840378Y-92291851D01*
X209840379Y-92291852D01*
X209932147Y-92393771D01*
X209963747Y-92428866D01*
X210053112Y-92493794D01*
X210100116Y-92527944D01*
X210118248Y-92541118D01*
X210124276Y-92543802D01*
X210124278Y-92543803D01*
X210286234Y-92615910D01*
X210292712Y-92618794D01*
X210476131Y-92657781D01*
X210538604Y-92691510D01*
X210572926Y-92753659D01*
X210575244Y-92794196D01*
X210561496Y-92925000D01*
X210562186Y-92931565D01*
X210575500Y-93058237D01*
X210581458Y-93114928D01*
X210640473Y-93296556D01*
X210735960Y-93461944D01*
X210740378Y-93466851D01*
X210740379Y-93466852D01*
X210843344Y-93581206D01*
X210863747Y-93603866D01*
X210956914Y-93671556D01*
X210999359Y-93702394D01*
X211018248Y-93716118D01*
X211024276Y-93718802D01*
X211024278Y-93718803D01*
X211162114Y-93780171D01*
X211192712Y-93793794D01*
X211259546Y-93808000D01*
X211373056Y-93832128D01*
X211373061Y-93832128D01*
X211379513Y-93833500D01*
X211570487Y-93833500D01*
X211576939Y-93832128D01*
X211576944Y-93832128D01*
X211690454Y-93808000D01*
X211757288Y-93793794D01*
X211787886Y-93780171D01*
X211925722Y-93718803D01*
X211925724Y-93718802D01*
X211931752Y-93716118D01*
X211950642Y-93702394D01*
X211993086Y-93671556D01*
X212086253Y-93603866D01*
X212106656Y-93581206D01*
X212209621Y-93466852D01*
X212209622Y-93466851D01*
X212214040Y-93461944D01*
X212309527Y-93296556D01*
X212368542Y-93114928D01*
X212374501Y-93058237D01*
X212387814Y-92931565D01*
X212388504Y-92925000D01*
X212381411Y-92857515D01*
X212369232Y-92741635D01*
X212369232Y-92741633D01*
X212368542Y-92735072D01*
X212346511Y-92667268D01*
X212329824Y-92615910D01*
X212327797Y-92544942D01*
X212349583Y-92508814D01*
X212319013Y-92507508D01*
X212260979Y-92466611D01*
X212250518Y-92451238D01*
X212244186Y-92440271D01*
X212214040Y-92388056D01*
X212198578Y-92370883D01*
X212090675Y-92251045D01*
X212090674Y-92251044D01*
X212086253Y-92246134D01*
X211962972Y-92156565D01*
X211937094Y-92137763D01*
X211937093Y-92137762D01*
X211931752Y-92133882D01*
X211925724Y-92131198D01*
X211925722Y-92131197D01*
X211763319Y-92058891D01*
X211763318Y-92058891D01*
X211757288Y-92056206D01*
X211573869Y-92017219D01*
X211511396Y-91983490D01*
X211477074Y-91921341D01*
X211474756Y-91880801D01*
X211475765Y-91871206D01*
X211488504Y-91750000D01*
X211471134Y-91584729D01*
X211469232Y-91566635D01*
X211469232Y-91566633D01*
X211468542Y-91560072D01*
X211409527Y-91378444D01*
X211314040Y-91213056D01*
X211296697Y-91193794D01*
X211190675Y-91076045D01*
X211190674Y-91076044D01*
X211186253Y-91071134D01*
X211031752Y-90958882D01*
X211025724Y-90956198D01*
X211025722Y-90956197D01*
X210863319Y-90883891D01*
X210863318Y-90883891D01*
X210857288Y-90881206D01*
X210763887Y-90861353D01*
X210676944Y-90842872D01*
X210676939Y-90842872D01*
X210670487Y-90841500D01*
X210479513Y-90841500D01*
X210473061Y-90842872D01*
X210473056Y-90842872D01*
X210386112Y-90861353D01*
X210292712Y-90881206D01*
X210286682Y-90883891D01*
X210286681Y-90883891D01*
X210124278Y-90956197D01*
X210124276Y-90956198D01*
X210118248Y-90958882D01*
X209963747Y-91071134D01*
X209959326Y-91076044D01*
X209959325Y-91076045D01*
X209853304Y-91193794D01*
X209835960Y-91213056D01*
X209740473Y-91378444D01*
X209681458Y-91560072D01*
X209680768Y-91566633D01*
X209680768Y-91566635D01*
X209678866Y-91584729D01*
X209661496Y-91750000D01*
X208440269Y-91750000D01*
X208384527Y-91578444D01*
X208365106Y-91544805D01*
X208334408Y-91491635D01*
X208289040Y-91413056D01*
X208273804Y-91396134D01*
X208165675Y-91276045D01*
X208165674Y-91276044D01*
X208161253Y-91271134D01*
X208054804Y-91193794D01*
X208012094Y-91162763D01*
X208012093Y-91162762D01*
X208006752Y-91158882D01*
X208000724Y-91156198D01*
X208000722Y-91156197D01*
X207838319Y-91083891D01*
X207838318Y-91083891D01*
X207832288Y-91081206D01*
X207738887Y-91061353D01*
X207651944Y-91042872D01*
X207651939Y-91042872D01*
X207645487Y-91041500D01*
X207454513Y-91041500D01*
X207448061Y-91042872D01*
X207448056Y-91042872D01*
X207361113Y-91061353D01*
X207267712Y-91081206D01*
X207261682Y-91083891D01*
X207261681Y-91083891D01*
X207099278Y-91156197D01*
X207099276Y-91156198D01*
X207093248Y-91158882D01*
X207087907Y-91162762D01*
X207087906Y-91162763D01*
X207045196Y-91193794D01*
X206938747Y-91271134D01*
X206934326Y-91276044D01*
X206934325Y-91276045D01*
X206826197Y-91396134D01*
X206810960Y-91413056D01*
X206765592Y-91491635D01*
X206734895Y-91544805D01*
X206715473Y-91578444D01*
X206656458Y-91760072D01*
X206655768Y-91766633D01*
X206655768Y-91766635D01*
X206654779Y-91776045D01*
X206636496Y-91950000D01*
X205975366Y-91950000D01*
X205969232Y-91891635D01*
X205969232Y-91891633D01*
X205968542Y-91885072D01*
X205909527Y-91703444D01*
X205814040Y-91538056D01*
X205809327Y-91532821D01*
X205690675Y-91401045D01*
X205690674Y-91401044D01*
X205686253Y-91396134D01*
X205558677Y-91303444D01*
X205537094Y-91287763D01*
X205537093Y-91287762D01*
X205531752Y-91283882D01*
X205525724Y-91281198D01*
X205525722Y-91281197D01*
X205363319Y-91208891D01*
X205363318Y-91208891D01*
X205357288Y-91206206D01*
X205263887Y-91186353D01*
X205176944Y-91167872D01*
X205176939Y-91167872D01*
X205170487Y-91166500D01*
X204979513Y-91166500D01*
X204973061Y-91167872D01*
X204973056Y-91167872D01*
X204886113Y-91186353D01*
X204792712Y-91206206D01*
X204786682Y-91208891D01*
X204786681Y-91208891D01*
X204624278Y-91281197D01*
X204624276Y-91281198D01*
X204618248Y-91283882D01*
X204612907Y-91287762D01*
X204612906Y-91287763D01*
X204591323Y-91303444D01*
X204463747Y-91396134D01*
X204459326Y-91401044D01*
X204459325Y-91401045D01*
X204340674Y-91532821D01*
X204335960Y-91538056D01*
X204240473Y-91703444D01*
X204181458Y-91885072D01*
X204180768Y-91891633D01*
X204180768Y-91891635D01*
X204163471Y-92056206D01*
X204161496Y-92075000D01*
X204162186Y-92081565D01*
X204179483Y-92246134D01*
X204181458Y-92264928D01*
X204240473Y-92446556D01*
X204260490Y-92481226D01*
X204284743Y-92523234D01*
X204301480Y-92592229D01*
X204278259Y-92659321D01*
X204269259Y-92670543D01*
X204205248Y-92741635D01*
X204185960Y-92763056D01*
X204135696Y-92850116D01*
X204099390Y-92913000D01*
X204090473Y-92928444D01*
X204031458Y-93110072D01*
X204030768Y-93116633D01*
X204030768Y-93116635D01*
X204014604Y-93270433D01*
X204011496Y-93300000D01*
X204012186Y-93306565D01*
X204029033Y-93466852D01*
X204031458Y-93489928D01*
X204090473Y-93671556D01*
X204093776Y-93677278D01*
X204093777Y-93677279D01*
X204149062Y-93773035D01*
X204185960Y-93836944D01*
X204190378Y-93841851D01*
X204190379Y-93841852D01*
X204278984Y-93940258D01*
X204313747Y-93978866D01*
X204319087Y-93982746D01*
X204319095Y-93982753D01*
X204366784Y-94017400D01*
X204410139Y-94073622D01*
X204416215Y-94144358D01*
X204383083Y-94207150D01*
X204366785Y-94221272D01*
X204263747Y-94296134D01*
X204259326Y-94301044D01*
X204259325Y-94301045D01*
X204172379Y-94397609D01*
X204135960Y-94438056D01*
X204040473Y-94603444D01*
X203981458Y-94785072D01*
X203980768Y-94791633D01*
X203980768Y-94791635D01*
X203978284Y-94815271D01*
X203961496Y-94975000D01*
X183845936Y-94975000D01*
X183934527Y-94821556D01*
X183993542Y-94639928D01*
X183995366Y-94622579D01*
X184012814Y-94456565D01*
X184013504Y-94450000D01*
X183999860Y-94320180D01*
X183994232Y-94266635D01*
X183994232Y-94266633D01*
X183993542Y-94260072D01*
X183934527Y-94078444D01*
X183896942Y-94013344D01*
X183877763Y-93980126D01*
X183861025Y-93911131D01*
X183884245Y-93844039D01*
X183940052Y-93800152D01*
X184013079Y-93793879D01*
X184073056Y-93806628D01*
X184073061Y-93806628D01*
X184079513Y-93808000D01*
X184270487Y-93808000D01*
X184276939Y-93806628D01*
X184276944Y-93806628D01*
X184373212Y-93786165D01*
X184457288Y-93768294D01*
X184478846Y-93758696D01*
X184625722Y-93693303D01*
X184625724Y-93693302D01*
X184631752Y-93690618D01*
X184650112Y-93677279D01*
X184751155Y-93603866D01*
X184786253Y-93578366D01*
X184914040Y-93436444D01*
X184994805Y-93296556D01*
X185006223Y-93276779D01*
X185006224Y-93276778D01*
X185009527Y-93271056D01*
X185068542Y-93089428D01*
X185071742Y-93058987D01*
X185087814Y-92906065D01*
X185088504Y-92899500D01*
X185082421Y-92841619D01*
X185069232Y-92716135D01*
X185069232Y-92716133D01*
X185068542Y-92709572D01*
X185009527Y-92527944D01*
X184989811Y-92493794D01*
X184964526Y-92450000D01*
X184914040Y-92362556D01*
X184906216Y-92353866D01*
X184790675Y-92225545D01*
X184790674Y-92225544D01*
X184786253Y-92220634D01*
X184663154Y-92131197D01*
X184637094Y-92112263D01*
X184637093Y-92112262D01*
X184631752Y-92108382D01*
X184625724Y-92105698D01*
X184625722Y-92105697D01*
X184463319Y-92033391D01*
X184463318Y-92033391D01*
X184457288Y-92030706D01*
X184347205Y-92007307D01*
X184276944Y-91992372D01*
X184276939Y-91992372D01*
X184270487Y-91991000D01*
X184079513Y-91991000D01*
X184079513Y-91990513D01*
X184013776Y-91978490D01*
X183961930Y-91929988D01*
X183950612Y-91904890D01*
X183939667Y-91871206D01*
X183909527Y-91778444D01*
X183898510Y-91759361D01*
X183840498Y-91658882D01*
X183814040Y-91613056D01*
X183805701Y-91603794D01*
X183690675Y-91476045D01*
X183690674Y-91476044D01*
X183686253Y-91471134D01*
X183531752Y-91358882D01*
X183525724Y-91356198D01*
X183525722Y-91356197D01*
X183363319Y-91283891D01*
X183363318Y-91283891D01*
X183357288Y-91281206D01*
X183263888Y-91261353D01*
X183176944Y-91242872D01*
X183176939Y-91242872D01*
X183170487Y-91241500D01*
X182979513Y-91241500D01*
X182973061Y-91242872D01*
X182973056Y-91242872D01*
X182886112Y-91261353D01*
X182792712Y-91281206D01*
X182786682Y-91283891D01*
X182786681Y-91283891D01*
X182624278Y-91356197D01*
X182624276Y-91356198D01*
X182618248Y-91358882D01*
X182463747Y-91471134D01*
X182459326Y-91476044D01*
X182459325Y-91476045D01*
X182344300Y-91603794D01*
X182335960Y-91613056D01*
X182309502Y-91658882D01*
X182251491Y-91759361D01*
X182240473Y-91778444D01*
X182181458Y-91960072D01*
X182180768Y-91966633D01*
X182180768Y-91966635D01*
X182178207Y-91991000D01*
X182161496Y-92150000D01*
X175647595Y-92150000D01*
X175645478Y-90325000D01*
X184511496Y-90325000D01*
X184512186Y-90331565D01*
X184529268Y-90494087D01*
X184531458Y-90514928D01*
X184590473Y-90696556D01*
X184593776Y-90702278D01*
X184593777Y-90702279D01*
X184602780Y-90717872D01*
X184685960Y-90861944D01*
X184690378Y-90866851D01*
X184690379Y-90866852D01*
X184737148Y-90918794D01*
X184813747Y-91003866D01*
X184860781Y-91038038D01*
X184951385Y-91103866D01*
X184968248Y-91116118D01*
X184974276Y-91118802D01*
X184974278Y-91118803D01*
X185081408Y-91166500D01*
X185142712Y-91193794D01*
X185229479Y-91212237D01*
X185323056Y-91232128D01*
X185323061Y-91232128D01*
X185329513Y-91233500D01*
X185520487Y-91233500D01*
X185526939Y-91232128D01*
X185526944Y-91232128D01*
X185620521Y-91212237D01*
X185707288Y-91193794D01*
X185768592Y-91166500D01*
X185875722Y-91118803D01*
X185875724Y-91118802D01*
X185881752Y-91116118D01*
X185898616Y-91103866D01*
X185989219Y-91038038D01*
X186036253Y-91003866D01*
X186112852Y-90918794D01*
X186159621Y-90866852D01*
X186159622Y-90866851D01*
X186164040Y-90861944D01*
X186247220Y-90717872D01*
X186256223Y-90702279D01*
X186256224Y-90702278D01*
X186259527Y-90696556D01*
X186307186Y-90549878D01*
X186347260Y-90491272D01*
X186412656Y-90463635D01*
X186482613Y-90475742D01*
X186534919Y-90523748D01*
X186552329Y-90575643D01*
X186556458Y-90614928D01*
X186615473Y-90796556D01*
X186618776Y-90802278D01*
X186618777Y-90802279D01*
X186695279Y-90934784D01*
X186710960Y-90961944D01*
X186715378Y-90966851D01*
X186715379Y-90966852D01*
X186818344Y-91081206D01*
X186838747Y-91103866D01*
X186993248Y-91216118D01*
X186999276Y-91218802D01*
X186999278Y-91218803D01*
X187145449Y-91283882D01*
X187167712Y-91293794D01*
X187188963Y-91298311D01*
X187251436Y-91332039D01*
X187285758Y-91394189D01*
X187281030Y-91465028D01*
X187238754Y-91522065D01*
X187188963Y-91544805D01*
X187129642Y-91557414D01*
X187017712Y-91581206D01*
X187011682Y-91583891D01*
X187011681Y-91583891D01*
X186849278Y-91656197D01*
X186849276Y-91656198D01*
X186843248Y-91658882D01*
X186837907Y-91662762D01*
X186837906Y-91662763D01*
X186812028Y-91681565D01*
X186688747Y-91771134D01*
X186684326Y-91776044D01*
X186684325Y-91776045D01*
X186580248Y-91891635D01*
X186560960Y-91913056D01*
X186537440Y-91953794D01*
X186483884Y-92046556D01*
X186465473Y-92078444D01*
X186406458Y-92260072D01*
X186405768Y-92266633D01*
X186405768Y-92266635D01*
X186398084Y-92339747D01*
X186386496Y-92450000D01*
X186387186Y-92456565D01*
X186404483Y-92621134D01*
X186406458Y-92639928D01*
X186465473Y-92821556D01*
X186468776Y-92827278D01*
X186468777Y-92827279D01*
X186486234Y-92857515D01*
X186560960Y-92986944D01*
X186565378Y-92991851D01*
X186565379Y-92991852D01*
X186670288Y-93108365D01*
X186688747Y-93128866D01*
X186843248Y-93241118D01*
X186849283Y-93243805D01*
X186909088Y-93270433D01*
X186963183Y-93316413D01*
X186983832Y-93384340D01*
X186983148Y-93398709D01*
X186981184Y-93417398D01*
X186973795Y-93487701D01*
X186974485Y-93494266D01*
X186992195Y-93662763D01*
X186993757Y-93677629D01*
X187052772Y-93859257D01*
X187056075Y-93864979D01*
X187056076Y-93864980D01*
X187083434Y-93912365D01*
X187148259Y-94024645D01*
X187152677Y-94029552D01*
X187152678Y-94029553D01*
X187240940Y-94127578D01*
X187276046Y-94166567D01*
X187430547Y-94278819D01*
X187436575Y-94281503D01*
X187436577Y-94281504D01*
X187598980Y-94353810D01*
X187605011Y-94356495D01*
X187698412Y-94376348D01*
X187785355Y-94394829D01*
X187785360Y-94394829D01*
X187791812Y-94396201D01*
X187982786Y-94396201D01*
X187989238Y-94394829D01*
X187989243Y-94394829D01*
X188136826Y-94363459D01*
X188207617Y-94368861D01*
X188256658Y-94402394D01*
X188307145Y-94458466D01*
X188461646Y-94570718D01*
X188467674Y-94573402D01*
X188467676Y-94573403D01*
X188597880Y-94631373D01*
X188636110Y-94648394D01*
X188729510Y-94668247D01*
X188816454Y-94686728D01*
X188816459Y-94686728D01*
X188822911Y-94688100D01*
X189013885Y-94688100D01*
X189020337Y-94686728D01*
X189020342Y-94686728D01*
X189107285Y-94668247D01*
X189200686Y-94648394D01*
X189238916Y-94631373D01*
X189369120Y-94573403D01*
X189369122Y-94573402D01*
X189375150Y-94570718D01*
X189529651Y-94458466D01*
X189552229Y-94433391D01*
X189653019Y-94321452D01*
X189653020Y-94321451D01*
X189657438Y-94316544D01*
X189736724Y-94179217D01*
X189749621Y-94156879D01*
X189749622Y-94156878D01*
X189752925Y-94151156D01*
X189811940Y-93969528D01*
X189814138Y-93948624D01*
X190449252Y-93948624D01*
X190449942Y-93955189D01*
X190468061Y-94127578D01*
X190469214Y-94138552D01*
X190528229Y-94320180D01*
X190531532Y-94325902D01*
X190531533Y-94325903D01*
X190549988Y-94357867D01*
X190623716Y-94485568D01*
X190628134Y-94490475D01*
X190628135Y-94490476D01*
X190745330Y-94620634D01*
X190751503Y-94627490D01*
X190906004Y-94739742D01*
X190912032Y-94742426D01*
X190912034Y-94742427D01*
X191007817Y-94785072D01*
X191080468Y-94817418D01*
X191173869Y-94837271D01*
X191260812Y-94855752D01*
X191260817Y-94855752D01*
X191267269Y-94857124D01*
X191458243Y-94857124D01*
X191464695Y-94855752D01*
X191464700Y-94855752D01*
X191551643Y-94837271D01*
X191645044Y-94817418D01*
X191717695Y-94785072D01*
X191813478Y-94742427D01*
X191813480Y-94742426D01*
X191819508Y-94739742D01*
X191974009Y-94627490D01*
X191980182Y-94620634D01*
X192097377Y-94490476D01*
X192097378Y-94490475D01*
X192101796Y-94485568D01*
X192175524Y-94357867D01*
X192193979Y-94325903D01*
X192193980Y-94325902D01*
X192197283Y-94320180D01*
X192256298Y-94138552D01*
X192257452Y-94127578D01*
X192275570Y-93955189D01*
X192276260Y-93948624D01*
X192262440Y-93817133D01*
X192256988Y-93765259D01*
X192256988Y-93765257D01*
X192256298Y-93758696D01*
X192197283Y-93577068D01*
X192101796Y-93411680D01*
X192008142Y-93307666D01*
X191978431Y-93274669D01*
X191978430Y-93274668D01*
X191974009Y-93269758D01*
X191837562Y-93170623D01*
X191824850Y-93161387D01*
X191824849Y-93161386D01*
X191819508Y-93157506D01*
X191813480Y-93154822D01*
X191813478Y-93154821D01*
X191651075Y-93082515D01*
X191651074Y-93082515D01*
X191645044Y-93079830D01*
X191544695Y-93058500D01*
X191464700Y-93041496D01*
X191464695Y-93041496D01*
X191458243Y-93040124D01*
X191267269Y-93040124D01*
X191260817Y-93041496D01*
X191260812Y-93041496D01*
X191180817Y-93058500D01*
X191080468Y-93079830D01*
X191074438Y-93082515D01*
X191074437Y-93082515D01*
X190912034Y-93154821D01*
X190912032Y-93154822D01*
X190906004Y-93157506D01*
X190900663Y-93161386D01*
X190900662Y-93161387D01*
X190887950Y-93170623D01*
X190751503Y-93269758D01*
X190747082Y-93274668D01*
X190747081Y-93274669D01*
X190717371Y-93307666D01*
X190623716Y-93411680D01*
X190528229Y-93577068D01*
X190469214Y-93758696D01*
X190468524Y-93765257D01*
X190468524Y-93765259D01*
X190463072Y-93817133D01*
X190449252Y-93948624D01*
X189814138Y-93948624D01*
X189815017Y-93940258D01*
X189831212Y-93786165D01*
X189831902Y-93779600D01*
X189824822Y-93712237D01*
X189812630Y-93596235D01*
X189812630Y-93596233D01*
X189811940Y-93589672D01*
X189752925Y-93408044D01*
X189747536Y-93398709D01*
X189685989Y-93292108D01*
X189657438Y-93242656D01*
X189638396Y-93221507D01*
X189534073Y-93105645D01*
X189534072Y-93105644D01*
X189529651Y-93100734D01*
X189375150Y-92988482D01*
X189369122Y-92985798D01*
X189369120Y-92985797D01*
X189206717Y-92913491D01*
X189206716Y-92913491D01*
X189200686Y-92910806D01*
X189102266Y-92889886D01*
X189020342Y-92872472D01*
X189020337Y-92872472D01*
X189013885Y-92871100D01*
X188822911Y-92871100D01*
X188816459Y-92872472D01*
X188816454Y-92872472D01*
X188668871Y-92903842D01*
X188598080Y-92898440D01*
X188549038Y-92864906D01*
X188543270Y-92858500D01*
X188498552Y-92808835D01*
X188397026Y-92735072D01*
X188349393Y-92700464D01*
X188349392Y-92700463D01*
X188344051Y-92696583D01*
X188332657Y-92691510D01*
X188278211Y-92667268D01*
X188224116Y-92621288D01*
X188203467Y-92553361D01*
X188204151Y-92538992D01*
X188212814Y-92456565D01*
X188213504Y-92450000D01*
X188201916Y-92339747D01*
X188194232Y-92266635D01*
X188194232Y-92266633D01*
X188193542Y-92260072D01*
X188134527Y-92078444D01*
X188116117Y-92046556D01*
X188062560Y-91953794D01*
X188039040Y-91913056D01*
X188019753Y-91891635D01*
X187915675Y-91776045D01*
X187915674Y-91776044D01*
X187911253Y-91771134D01*
X187787972Y-91681565D01*
X187778936Y-91675000D01*
X197036496Y-91675000D01*
X197037186Y-91681565D01*
X197048029Y-91784726D01*
X197056458Y-91864928D01*
X197115473Y-92046556D01*
X197118776Y-92052278D01*
X197118777Y-92052279D01*
X197135685Y-92081565D01*
X197210960Y-92211944D01*
X197215378Y-92216851D01*
X197215379Y-92216852D01*
X197331850Y-92346206D01*
X197338747Y-92353866D01*
X197419266Y-92412367D01*
X197486083Y-92460912D01*
X197493248Y-92466118D01*
X197499276Y-92468802D01*
X197499278Y-92468803D01*
X197656926Y-92538992D01*
X197667712Y-92543794D01*
X197761112Y-92563647D01*
X197848056Y-92582128D01*
X197848061Y-92582128D01*
X197854513Y-92583500D01*
X198045487Y-92583500D01*
X198051939Y-92582128D01*
X198051944Y-92582128D01*
X198138888Y-92563647D01*
X198232288Y-92543794D01*
X198243074Y-92538992D01*
X198400722Y-92468803D01*
X198400724Y-92468802D01*
X198406752Y-92466118D01*
X198413918Y-92460912D01*
X198480734Y-92412367D01*
X198547849Y-92363605D01*
X198614715Y-92339747D01*
X198683867Y-92355827D01*
X198695970Y-92363605D01*
X198761856Y-92411474D01*
X198768248Y-92416118D01*
X198774276Y-92418802D01*
X198774278Y-92418803D01*
X198936681Y-92491109D01*
X198942712Y-92493794D01*
X199036112Y-92513647D01*
X199123056Y-92532128D01*
X199123061Y-92532128D01*
X199129513Y-92533500D01*
X199320487Y-92533500D01*
X199326939Y-92532128D01*
X199326944Y-92532128D01*
X199413887Y-92513647D01*
X199507288Y-92493794D01*
X199513319Y-92491109D01*
X199675722Y-92418803D01*
X199675724Y-92418802D01*
X199681752Y-92416118D01*
X199711174Y-92394742D01*
X199778040Y-92370883D01*
X199847192Y-92386962D01*
X199878871Y-92412367D01*
X199927713Y-92466611D01*
X199938747Y-92478866D01*
X200093248Y-92591118D01*
X200099276Y-92593802D01*
X200099278Y-92593803D01*
X200261681Y-92666109D01*
X200267712Y-92668794D01*
X200353101Y-92686944D01*
X200448056Y-92707128D01*
X200448061Y-92707128D01*
X200454513Y-92708500D01*
X200645487Y-92708500D01*
X200651939Y-92707128D01*
X200651944Y-92707128D01*
X200746899Y-92686944D01*
X200832288Y-92668794D01*
X200838319Y-92666109D01*
X201000722Y-92593803D01*
X201000724Y-92593802D01*
X201006752Y-92591118D01*
X201161253Y-92478866D01*
X201170314Y-92468803D01*
X201284621Y-92341852D01*
X201284622Y-92341851D01*
X201289040Y-92336944D01*
X201384527Y-92171556D01*
X201443542Y-91989928D01*
X201451021Y-91918774D01*
X201462814Y-91806565D01*
X201463504Y-91800000D01*
X201443542Y-91610072D01*
X201384527Y-91428444D01*
X201289040Y-91263056D01*
X201261193Y-91232128D01*
X201165675Y-91126045D01*
X201165674Y-91126044D01*
X201161253Y-91121134D01*
X201046882Y-91038038D01*
X201012094Y-91012763D01*
X201012093Y-91012762D01*
X201006752Y-91008882D01*
X201000724Y-91006198D01*
X201000722Y-91006197D01*
X200838319Y-90933891D01*
X200838318Y-90933891D01*
X200832288Y-90931206D01*
X200738888Y-90911353D01*
X200651944Y-90892872D01*
X200651939Y-90892872D01*
X200645487Y-90891500D01*
X200454513Y-90891500D01*
X200448061Y-90892872D01*
X200448056Y-90892872D01*
X200361112Y-90911353D01*
X200267712Y-90931206D01*
X200261682Y-90933891D01*
X200261681Y-90933891D01*
X200099278Y-91006197D01*
X200099276Y-91006198D01*
X200093248Y-91008882D01*
X200087905Y-91012764D01*
X200063827Y-91030258D01*
X199996960Y-91054117D01*
X199927808Y-91038038D01*
X199896129Y-91012633D01*
X199840675Y-90951045D01*
X199840674Y-90951044D01*
X199836253Y-90946134D01*
X199692237Y-90841500D01*
X199687094Y-90837763D01*
X199687093Y-90837762D01*
X199681752Y-90833882D01*
X199675724Y-90831198D01*
X199675722Y-90831197D01*
X199513319Y-90758891D01*
X199513318Y-90758891D01*
X199507288Y-90756206D01*
X199413887Y-90736353D01*
X199326944Y-90717872D01*
X199326939Y-90717872D01*
X199320487Y-90716500D01*
X199129513Y-90716500D01*
X199123061Y-90717872D01*
X199123056Y-90717872D01*
X199036113Y-90736353D01*
X198942712Y-90756206D01*
X198936682Y-90758891D01*
X198936681Y-90758891D01*
X198774278Y-90831197D01*
X198774276Y-90831198D01*
X198768248Y-90833882D01*
X198762907Y-90837762D01*
X198762906Y-90837763D01*
X198757763Y-90841500D01*
X198694088Y-90887763D01*
X198627152Y-90936395D01*
X198560285Y-90960253D01*
X198491133Y-90944173D01*
X198479030Y-90936395D01*
X198412094Y-90887763D01*
X198412093Y-90887762D01*
X198406752Y-90883882D01*
X198400724Y-90881198D01*
X198400722Y-90881197D01*
X198238319Y-90808891D01*
X198238318Y-90808891D01*
X198232288Y-90806206D01*
X198138888Y-90786353D01*
X198051944Y-90767872D01*
X198051939Y-90767872D01*
X198045487Y-90766500D01*
X197854513Y-90766500D01*
X197848061Y-90767872D01*
X197848056Y-90767872D01*
X197761112Y-90786353D01*
X197667712Y-90806206D01*
X197661682Y-90808891D01*
X197661681Y-90808891D01*
X197499278Y-90881197D01*
X197499276Y-90881198D01*
X197493248Y-90883882D01*
X197487907Y-90887762D01*
X197487906Y-90887763D01*
X197445196Y-90918794D01*
X197338747Y-90996134D01*
X197334326Y-91001044D01*
X197334325Y-91001045D01*
X197226197Y-91121134D01*
X197210960Y-91138056D01*
X197167659Y-91213056D01*
X197122595Y-91291109D01*
X197115473Y-91303444D01*
X197056458Y-91485072D01*
X197055768Y-91491633D01*
X197055768Y-91491635D01*
X197038472Y-91656197D01*
X197036496Y-91675000D01*
X187778936Y-91675000D01*
X187762094Y-91662763D01*
X187762093Y-91662762D01*
X187756752Y-91658882D01*
X187750724Y-91656198D01*
X187750722Y-91656197D01*
X187588319Y-91583891D01*
X187588318Y-91583891D01*
X187582288Y-91581206D01*
X187561037Y-91576689D01*
X187498564Y-91542961D01*
X187464242Y-91480811D01*
X187468970Y-91409972D01*
X187511246Y-91352935D01*
X187561037Y-91330195D01*
X187620358Y-91317586D01*
X187732288Y-91293794D01*
X187754551Y-91283882D01*
X187900722Y-91218803D01*
X187900724Y-91218802D01*
X187906752Y-91216118D01*
X188061253Y-91103866D01*
X188081656Y-91081206D01*
X188184621Y-90966852D01*
X188184622Y-90966851D01*
X188189040Y-90961944D01*
X188204721Y-90934784D01*
X188281223Y-90802279D01*
X188281224Y-90802278D01*
X188284527Y-90796556D01*
X188343542Y-90614928D01*
X188345968Y-90591852D01*
X188362814Y-90431565D01*
X188363504Y-90425000D01*
X188358447Y-90376881D01*
X188344232Y-90241635D01*
X188344232Y-90241633D01*
X188343542Y-90235072D01*
X188284527Y-90053444D01*
X188282539Y-90050000D01*
X205586496Y-90050000D01*
X205587186Y-90056565D01*
X205605021Y-90226252D01*
X205606458Y-90239928D01*
X205665473Y-90421556D01*
X205668776Y-90427278D01*
X205668777Y-90427279D01*
X205689215Y-90462679D01*
X205760960Y-90586944D01*
X205765378Y-90591851D01*
X205765379Y-90591852D01*
X205878054Y-90716990D01*
X205888747Y-90728866D01*
X205930073Y-90758891D01*
X206033289Y-90833882D01*
X206043248Y-90841118D01*
X206049276Y-90843802D01*
X206049278Y-90843803D01*
X206211681Y-90916109D01*
X206217712Y-90918794D01*
X206292939Y-90934784D01*
X206398056Y-90957128D01*
X206398061Y-90957128D01*
X206404513Y-90958500D01*
X206595487Y-90958500D01*
X206601939Y-90957128D01*
X206601944Y-90957128D01*
X206707061Y-90934784D01*
X206782288Y-90918794D01*
X206788319Y-90916109D01*
X206950722Y-90843803D01*
X206950724Y-90843802D01*
X206956752Y-90841118D01*
X206966712Y-90833882D01*
X207069927Y-90758891D01*
X207111253Y-90728866D01*
X207121946Y-90716990D01*
X207234621Y-90591852D01*
X207234622Y-90591851D01*
X207239040Y-90586944D01*
X207310785Y-90462679D01*
X207331223Y-90427279D01*
X207331224Y-90427278D01*
X207334527Y-90421556D01*
X207342973Y-90395562D01*
X207383044Y-90336959D01*
X207448441Y-90309321D01*
X207462805Y-90308500D01*
X207495487Y-90308500D01*
X207501939Y-90307128D01*
X207501944Y-90307128D01*
X207599623Y-90286365D01*
X207682288Y-90268794D01*
X207733022Y-90246206D01*
X207850722Y-90193803D01*
X207850724Y-90193802D01*
X207856752Y-90191118D01*
X207879822Y-90174357D01*
X207942533Y-90128794D01*
X208011253Y-90078866D01*
X208118524Y-89959729D01*
X208134621Y-89941852D01*
X208134622Y-89941851D01*
X208139040Y-89936944D01*
X208213197Y-89808500D01*
X208231223Y-89777279D01*
X208231224Y-89777278D01*
X208234527Y-89771556D01*
X208293542Y-89589928D01*
X208297231Y-89554834D01*
X208312814Y-89406565D01*
X208313504Y-89400000D01*
X208293542Y-89210072D01*
X208234527Y-89028444D01*
X208139040Y-88863056D01*
X208133196Y-88856565D01*
X208015675Y-88726045D01*
X208015674Y-88726044D01*
X208011253Y-88721134D01*
X208000418Y-88713262D01*
X207957065Y-88657038D01*
X207950991Y-88586302D01*
X207984124Y-88523511D01*
X208000420Y-88509391D01*
X208105909Y-88432749D01*
X208105911Y-88432747D01*
X208111253Y-88428866D01*
X208239040Y-88286944D01*
X208260370Y-88250000D01*
X211036496Y-88250000D01*
X211037186Y-88256565D01*
X211050396Y-88382247D01*
X211056458Y-88439928D01*
X211115473Y-88621556D01*
X211118776Y-88627278D01*
X211118777Y-88627279D01*
X211137710Y-88660072D01*
X211210960Y-88786944D01*
X211215378Y-88791851D01*
X211215379Y-88791852D01*
X211320766Y-88908896D01*
X211338747Y-88928866D01*
X211437843Y-89000864D01*
X211484445Y-89034722D01*
X211493248Y-89041118D01*
X211499276Y-89043802D01*
X211499278Y-89043803D01*
X211615242Y-89095433D01*
X211667712Y-89118794D01*
X211761112Y-89138647D01*
X211848056Y-89157128D01*
X211848061Y-89157128D01*
X211854513Y-89158500D01*
X212045487Y-89158500D01*
X212051939Y-89157128D01*
X212051944Y-89157128D01*
X212138887Y-89138647D01*
X212232288Y-89118794D01*
X212284758Y-89095433D01*
X212400722Y-89043803D01*
X212400724Y-89043802D01*
X212406752Y-89041118D01*
X212415556Y-89034722D01*
X212462157Y-89000864D01*
X212561253Y-88928866D01*
X212579234Y-88908896D01*
X212684621Y-88791852D01*
X212684622Y-88791851D01*
X212689040Y-88786944D01*
X212762290Y-88660072D01*
X212781223Y-88627279D01*
X212781224Y-88627278D01*
X212784527Y-88621556D01*
X212843542Y-88439928D01*
X212849605Y-88382247D01*
X212862814Y-88256565D01*
X212863504Y-88250000D01*
X212843542Y-88060072D01*
X212784527Y-87878444D01*
X212689040Y-87713056D01*
X212680701Y-87703794D01*
X212565675Y-87576045D01*
X212565674Y-87576044D01*
X212561253Y-87571134D01*
X212406752Y-87458882D01*
X212400724Y-87456198D01*
X212400722Y-87456197D01*
X212238319Y-87383891D01*
X212238318Y-87383891D01*
X212232288Y-87381206D01*
X212138887Y-87361353D01*
X212051944Y-87342872D01*
X212051939Y-87342872D01*
X212045487Y-87341500D01*
X211854513Y-87341500D01*
X211848061Y-87342872D01*
X211848056Y-87342872D01*
X211761112Y-87361353D01*
X211667712Y-87381206D01*
X211661682Y-87383891D01*
X211661681Y-87383891D01*
X211499278Y-87456197D01*
X211499276Y-87456198D01*
X211493248Y-87458882D01*
X211338747Y-87571134D01*
X211334326Y-87576044D01*
X211334325Y-87576045D01*
X211219300Y-87703794D01*
X211210960Y-87713056D01*
X211115473Y-87878444D01*
X211056458Y-88060072D01*
X211036496Y-88250000D01*
X208260370Y-88250000D01*
X208334527Y-88121556D01*
X208393542Y-87939928D01*
X208394353Y-87932217D01*
X208412814Y-87756565D01*
X208413504Y-87750000D01*
X208393542Y-87560072D01*
X208334527Y-87378444D01*
X208328944Y-87368774D01*
X208270723Y-87267932D01*
X208253985Y-87198937D01*
X208277205Y-87131845D01*
X208286197Y-87120632D01*
X208339040Y-87061944D01*
X208434527Y-86896556D01*
X208493542Y-86714928D01*
X208513504Y-86525000D01*
X208493542Y-86335072D01*
X208434527Y-86153444D01*
X208339040Y-85988056D01*
X208247999Y-85886944D01*
X208215675Y-85851045D01*
X208215674Y-85851044D01*
X208211253Y-85846134D01*
X208056752Y-85733882D01*
X208050724Y-85731198D01*
X208050722Y-85731197D01*
X207888319Y-85658891D01*
X207888318Y-85658891D01*
X207882288Y-85656206D01*
X207788887Y-85636353D01*
X207701944Y-85617872D01*
X207701939Y-85617872D01*
X207695487Y-85616500D01*
X207504513Y-85616500D01*
X207498061Y-85617872D01*
X207498056Y-85617872D01*
X207411113Y-85636353D01*
X207317712Y-85656206D01*
X207311682Y-85658891D01*
X207311681Y-85658891D01*
X207149278Y-85731197D01*
X207149276Y-85731198D01*
X207143248Y-85733882D01*
X206988747Y-85846134D01*
X206984326Y-85851044D01*
X206984325Y-85851045D01*
X206952002Y-85886944D01*
X206860960Y-85988056D01*
X206765473Y-86153444D01*
X206706458Y-86335072D01*
X206686496Y-86525000D01*
X206706458Y-86714928D01*
X206765473Y-86896556D01*
X206768776Y-86902278D01*
X206768777Y-86902279D01*
X206829277Y-87007068D01*
X206846015Y-87076063D01*
X206822795Y-87143155D01*
X206813803Y-87154368D01*
X206760960Y-87213056D01*
X206702686Y-87313990D01*
X206672166Y-87366852D01*
X206665473Y-87378444D01*
X206606458Y-87560072D01*
X206586496Y-87750000D01*
X206587186Y-87756565D01*
X206605648Y-87932217D01*
X206606458Y-87939928D01*
X206665473Y-88121556D01*
X206760960Y-88286944D01*
X206888747Y-88428866D01*
X206894090Y-88432748D01*
X206899582Y-88436738D01*
X206942935Y-88492962D01*
X206949009Y-88563698D01*
X206915876Y-88626489D01*
X206899580Y-88640609D01*
X206799582Y-88713262D01*
X206788747Y-88721134D01*
X206784326Y-88726044D01*
X206784325Y-88726045D01*
X206666805Y-88856565D01*
X206660960Y-88863056D01*
X206565473Y-89028444D01*
X206557027Y-89054438D01*
X206516956Y-89113041D01*
X206451559Y-89140679D01*
X206437195Y-89141500D01*
X206404513Y-89141500D01*
X206398061Y-89142872D01*
X206398056Y-89142872D01*
X206311112Y-89161353D01*
X206217712Y-89181206D01*
X206211682Y-89183891D01*
X206211681Y-89183891D01*
X206049278Y-89256197D01*
X206049276Y-89256198D01*
X206043248Y-89258882D01*
X205888747Y-89371134D01*
X205884326Y-89376044D01*
X205884325Y-89376045D01*
X205792561Y-89477960D01*
X205760960Y-89513056D01*
X205665473Y-89678444D01*
X205606458Y-89860072D01*
X205605768Y-89866633D01*
X205605768Y-89866635D01*
X205597863Y-89941852D01*
X205586496Y-90050000D01*
X188282539Y-90050000D01*
X188189040Y-89888056D01*
X188169753Y-89866635D01*
X188065675Y-89751045D01*
X188065674Y-89751044D01*
X188061253Y-89746134D01*
X187926043Y-89647898D01*
X187912094Y-89637763D01*
X187912093Y-89637762D01*
X187906752Y-89633882D01*
X187900724Y-89631198D01*
X187900722Y-89631197D01*
X187738319Y-89558891D01*
X187738318Y-89558891D01*
X187732288Y-89556206D01*
X187629982Y-89534460D01*
X187551944Y-89517872D01*
X187551939Y-89517872D01*
X187545487Y-89516500D01*
X187354513Y-89516500D01*
X187348061Y-89517872D01*
X187348056Y-89517872D01*
X187270018Y-89534460D01*
X187167712Y-89556206D01*
X187161682Y-89558891D01*
X187161681Y-89558891D01*
X186999278Y-89631197D01*
X186999276Y-89631198D01*
X186993248Y-89633882D01*
X186987907Y-89637762D01*
X186987906Y-89637763D01*
X186973957Y-89647898D01*
X186838747Y-89746134D01*
X186834326Y-89751044D01*
X186834325Y-89751045D01*
X186730248Y-89866635D01*
X186710960Y-89888056D01*
X186615473Y-90053444D01*
X186613431Y-90059729D01*
X186567814Y-90200122D01*
X186527740Y-90258728D01*
X186462344Y-90286365D01*
X186392387Y-90274258D01*
X186340081Y-90226252D01*
X186322671Y-90174357D01*
X186319232Y-90141635D01*
X186319232Y-90141633D01*
X186318542Y-90135072D01*
X186259527Y-89953444D01*
X186252835Y-89941852D01*
X186221775Y-89888056D01*
X186164040Y-89788056D01*
X186154337Y-89777279D01*
X186040675Y-89651045D01*
X186040674Y-89651044D01*
X186036253Y-89646134D01*
X185881752Y-89533882D01*
X185875724Y-89531198D01*
X185875722Y-89531197D01*
X185713319Y-89458891D01*
X185713318Y-89458891D01*
X185707288Y-89456206D01*
X185613888Y-89436353D01*
X185526944Y-89417872D01*
X185526939Y-89417872D01*
X185520487Y-89416500D01*
X185329513Y-89416500D01*
X185323061Y-89417872D01*
X185323056Y-89417872D01*
X185236112Y-89436353D01*
X185142712Y-89456206D01*
X185136682Y-89458891D01*
X185136681Y-89458891D01*
X184974278Y-89531197D01*
X184974276Y-89531198D01*
X184968248Y-89533882D01*
X184813747Y-89646134D01*
X184809326Y-89651044D01*
X184809325Y-89651045D01*
X184695664Y-89777279D01*
X184685960Y-89788056D01*
X184628225Y-89888056D01*
X184597166Y-89941852D01*
X184590473Y-89953444D01*
X184531458Y-90135072D01*
X184530768Y-90141633D01*
X184530768Y-90141635D01*
X184521127Y-90233365D01*
X184511496Y-90325000D01*
X175645478Y-90325000D01*
X175643835Y-88908518D01*
X175641418Y-86825000D01*
X202786496Y-86825000D01*
X202787186Y-86831565D01*
X202803996Y-86991500D01*
X202806458Y-87014928D01*
X202865473Y-87196556D01*
X202868776Y-87202278D01*
X202868777Y-87202279D01*
X202899456Y-87255416D01*
X202960960Y-87361944D01*
X202965378Y-87366851D01*
X202965379Y-87366852D01*
X202980721Y-87383891D01*
X203088747Y-87503866D01*
X203114699Y-87522721D01*
X203217206Y-87597197D01*
X203243248Y-87616118D01*
X203249276Y-87618802D01*
X203249278Y-87618803D01*
X203411681Y-87691109D01*
X203417712Y-87693794D01*
X203494294Y-87710072D01*
X203598056Y-87732128D01*
X203598061Y-87732128D01*
X203604513Y-87733500D01*
X203795487Y-87733500D01*
X203801939Y-87732128D01*
X203801944Y-87732128D01*
X203905706Y-87710072D01*
X203982288Y-87693794D01*
X203988319Y-87691109D01*
X204150722Y-87618803D01*
X204150724Y-87618802D01*
X204156752Y-87616118D01*
X204182795Y-87597197D01*
X204285301Y-87522721D01*
X204311253Y-87503866D01*
X204419279Y-87383891D01*
X204434621Y-87366852D01*
X204434622Y-87366851D01*
X204439040Y-87361944D01*
X204500544Y-87255416D01*
X204531223Y-87202279D01*
X204531224Y-87202278D01*
X204534527Y-87196556D01*
X204593542Y-87014928D01*
X204596005Y-86991500D01*
X204612814Y-86831565D01*
X204613504Y-86825000D01*
X204593542Y-86635072D01*
X204534527Y-86453444D01*
X204439040Y-86288056D01*
X204411193Y-86257128D01*
X204315675Y-86151045D01*
X204315674Y-86151044D01*
X204311253Y-86146134D01*
X204156752Y-86033882D01*
X204150724Y-86031198D01*
X204150722Y-86031197D01*
X203988319Y-85958891D01*
X203988318Y-85958891D01*
X203982288Y-85956206D01*
X203888887Y-85936353D01*
X203801944Y-85917872D01*
X203801939Y-85917872D01*
X203795487Y-85916500D01*
X203604513Y-85916500D01*
X203598061Y-85917872D01*
X203598056Y-85917872D01*
X203511112Y-85936353D01*
X203417712Y-85956206D01*
X203411682Y-85958891D01*
X203411681Y-85958891D01*
X203249278Y-86031197D01*
X203249276Y-86031198D01*
X203243248Y-86033882D01*
X203088747Y-86146134D01*
X203084326Y-86151044D01*
X203084325Y-86151045D01*
X202988808Y-86257128D01*
X202960960Y-86288056D01*
X202865473Y-86453444D01*
X202806458Y-86635072D01*
X202786496Y-86825000D01*
X175641418Y-86825000D01*
X175639213Y-84925000D01*
X193536496Y-84925000D01*
X193556458Y-85114928D01*
X193615473Y-85296556D01*
X193710960Y-85461944D01*
X193715378Y-85466851D01*
X193715379Y-85466852D01*
X193781177Y-85539928D01*
X193838747Y-85603866D01*
X193993248Y-85716118D01*
X193999276Y-85718802D01*
X193999278Y-85718803D01*
X194161681Y-85791109D01*
X194167712Y-85793794D01*
X194261112Y-85813647D01*
X194348056Y-85832128D01*
X194348061Y-85832128D01*
X194354513Y-85833500D01*
X194545487Y-85833500D01*
X194551939Y-85832128D01*
X194551944Y-85832128D01*
X194638888Y-85813647D01*
X194732288Y-85793794D01*
X194738319Y-85791109D01*
X194900722Y-85718803D01*
X194900724Y-85718802D01*
X194906752Y-85716118D01*
X195061253Y-85603866D01*
X195118823Y-85539928D01*
X195184621Y-85466852D01*
X195184622Y-85466851D01*
X195189040Y-85461944D01*
X195284527Y-85296556D01*
X195343542Y-85114928D01*
X195363504Y-84925000D01*
X195343542Y-84735072D01*
X195284527Y-84553444D01*
X195189040Y-84388056D01*
X195115863Y-84306785D01*
X195085147Y-84242779D01*
X195083500Y-84222476D01*
X195083500Y-81789594D01*
X195103502Y-81721473D01*
X195120405Y-81700499D01*
X195245904Y-81575000D01*
X198286496Y-81575000D01*
X198287186Y-81581565D01*
X198298980Y-81693774D01*
X198306458Y-81764928D01*
X198365473Y-81946556D01*
X198368776Y-81952278D01*
X198368777Y-81952279D01*
X198385478Y-81981206D01*
X198460960Y-82111944D01*
X198465378Y-82116851D01*
X198465379Y-82116852D01*
X198557150Y-82218774D01*
X198588747Y-82253866D01*
X198743248Y-82366118D01*
X198749276Y-82368802D01*
X198749278Y-82368803D01*
X198873422Y-82424075D01*
X198917712Y-82443794D01*
X199011112Y-82463647D01*
X199098056Y-82482128D01*
X199098061Y-82482128D01*
X199104513Y-82483500D01*
X199295487Y-82483500D01*
X199301939Y-82482128D01*
X199301944Y-82482128D01*
X199477687Y-82444772D01*
X199548478Y-82450174D01*
X199605110Y-82492991D01*
X199629604Y-82559628D01*
X199623717Y-82606954D01*
X199606458Y-82660072D01*
X199605768Y-82666633D01*
X199605768Y-82666635D01*
X199594364Y-82775144D01*
X199586496Y-82850000D01*
X199587186Y-82856565D01*
X199604639Y-83022618D01*
X199606458Y-83039928D01*
X199665473Y-83221556D01*
X199668776Y-83227278D01*
X199668777Y-83227279D01*
X199695274Y-83273173D01*
X199760960Y-83386944D01*
X199765378Y-83391851D01*
X199765379Y-83391852D01*
X199828148Y-83461564D01*
X199888747Y-83528866D01*
X199928501Y-83557749D01*
X200034792Y-83634974D01*
X200043248Y-83641118D01*
X200049276Y-83643802D01*
X200049278Y-83643803D01*
X200108994Y-83670390D01*
X200217712Y-83718794D01*
X200304479Y-83737237D01*
X200398056Y-83757128D01*
X200398061Y-83757128D01*
X200404513Y-83758500D01*
X200595487Y-83758500D01*
X200601939Y-83757128D01*
X200601944Y-83757128D01*
X200695521Y-83737237D01*
X200782288Y-83718794D01*
X200788315Y-83716111D01*
X200788323Y-83716108D01*
X200920590Y-83657219D01*
X200990957Y-83647785D01*
X201045899Y-83670390D01*
X201114410Y-83720166D01*
X201143248Y-83741118D01*
X201149276Y-83743802D01*
X201149278Y-83743803D01*
X201223607Y-83776896D01*
X201317712Y-83818794D01*
X201411113Y-83838647D01*
X201498056Y-83857128D01*
X201498061Y-83857128D01*
X201504513Y-83858500D01*
X201695487Y-83858500D01*
X201701939Y-83857128D01*
X201701944Y-83857128D01*
X201788888Y-83838647D01*
X201882288Y-83818794D01*
X201976393Y-83776896D01*
X202050722Y-83743803D01*
X202050724Y-83743802D01*
X202056752Y-83741118D01*
X202211253Y-83628866D01*
X202220322Y-83618794D01*
X202334621Y-83491852D01*
X202334622Y-83491851D01*
X202339040Y-83486944D01*
X202407035Y-83369174D01*
X202431223Y-83327279D01*
X202431224Y-83327278D01*
X202434527Y-83321556D01*
X202483868Y-83169701D01*
X202523942Y-83111095D01*
X202590116Y-83083500D01*
X202595487Y-83083500D01*
X202782288Y-83043794D01*
X202788319Y-83041109D01*
X202950722Y-82968803D01*
X202950724Y-82968802D01*
X202956752Y-82966118D01*
X203111253Y-82853866D01*
X203239040Y-82711944D01*
X203334527Y-82546556D01*
X203393542Y-82364928D01*
X203394872Y-82352279D01*
X203412814Y-82181565D01*
X203413504Y-82175000D01*
X203408733Y-82129610D01*
X203405621Y-82100000D01*
X204286496Y-82100000D01*
X204287186Y-82106565D01*
X204302152Y-82248955D01*
X204306458Y-82289928D01*
X204365473Y-82471556D01*
X204368776Y-82477278D01*
X204368777Y-82477279D01*
X204385490Y-82506226D01*
X204460960Y-82636944D01*
X204465378Y-82641851D01*
X204465379Y-82641852D01*
X204584325Y-82773955D01*
X204588747Y-82778866D01*
X204743248Y-82891118D01*
X204749276Y-82893802D01*
X204749278Y-82893803D01*
X204911681Y-82966109D01*
X204917712Y-82968794D01*
X205004009Y-82987137D01*
X205098056Y-83007128D01*
X205098061Y-83007128D01*
X205104513Y-83008500D01*
X205295487Y-83008500D01*
X205301939Y-83007128D01*
X205301944Y-83007128D01*
X205395991Y-82987137D01*
X205482288Y-82968794D01*
X205488319Y-82966109D01*
X205650722Y-82893803D01*
X205650724Y-82893802D01*
X205656752Y-82891118D01*
X205811253Y-82778866D01*
X205815675Y-82773955D01*
X205934621Y-82641852D01*
X205934622Y-82641851D01*
X205939040Y-82636944D01*
X206014510Y-82506226D01*
X206031223Y-82477279D01*
X206031224Y-82477278D01*
X206034527Y-82471556D01*
X206093542Y-82289928D01*
X206097849Y-82248955D01*
X206112814Y-82106565D01*
X206113504Y-82100000D01*
X206111528Y-82081197D01*
X206094232Y-81916635D01*
X206094232Y-81916633D01*
X206093542Y-81910072D01*
X206034527Y-81728444D01*
X205939040Y-81563056D01*
X205923804Y-81546134D01*
X205815675Y-81426045D01*
X205815674Y-81426044D01*
X205811253Y-81421134D01*
X205784829Y-81401935D01*
X205741475Y-81345714D01*
X205735399Y-81274978D01*
X205768531Y-81212186D01*
X205784829Y-81198064D01*
X205805909Y-81182749D01*
X205805911Y-81182747D01*
X205811253Y-81178866D01*
X205839459Y-81147540D01*
X205934621Y-81041852D01*
X205934622Y-81041851D01*
X205939040Y-81036944D01*
X206013197Y-80908500D01*
X206031223Y-80877279D01*
X206031224Y-80877278D01*
X206034527Y-80871556D01*
X206093542Y-80689928D01*
X206096005Y-80666500D01*
X206112814Y-80506565D01*
X206113504Y-80500000D01*
X206100004Y-80371556D01*
X206094232Y-80316635D01*
X206094232Y-80316633D01*
X206093542Y-80310072D01*
X206034527Y-80128444D01*
X205960370Y-80000000D01*
X211711496Y-80000000D01*
X211731458Y-80189928D01*
X211790473Y-80371556D01*
X211885960Y-80536944D01*
X211890378Y-80541851D01*
X211890379Y-80541852D01*
X212003364Y-80667335D01*
X212013747Y-80678866D01*
X212098204Y-80740228D01*
X212158289Y-80783882D01*
X212168248Y-80791118D01*
X212174276Y-80793802D01*
X212174278Y-80793803D01*
X212317904Y-80857749D01*
X212342712Y-80868794D01*
X212427136Y-80886739D01*
X212523056Y-80907128D01*
X212523061Y-80907128D01*
X212529513Y-80908500D01*
X212720487Y-80908500D01*
X212726939Y-80907128D01*
X212726944Y-80907128D01*
X212822864Y-80886739D01*
X212907288Y-80868794D01*
X212932096Y-80857749D01*
X213075722Y-80793803D01*
X213075724Y-80793802D01*
X213081752Y-80791118D01*
X213091712Y-80783882D01*
X213151796Y-80740228D01*
X213236253Y-80678866D01*
X213246636Y-80667335D01*
X213359621Y-80541852D01*
X213359622Y-80541851D01*
X213364040Y-80536944D01*
X213459527Y-80371556D01*
X213518542Y-80189928D01*
X213532900Y-80053323D01*
X213537384Y-80010660D01*
X213564397Y-79945003D01*
X213622619Y-79904374D01*
X213693564Y-79901671D01*
X213713943Y-79908724D01*
X213736130Y-79918602D01*
X213792712Y-79943794D01*
X213883332Y-79963056D01*
X213973056Y-79982128D01*
X213973061Y-79982128D01*
X213979513Y-79983500D01*
X214035406Y-79983500D01*
X214103527Y-80003502D01*
X214124501Y-80020405D01*
X214871343Y-80767247D01*
X214878887Y-80775537D01*
X214883000Y-80782018D01*
X214888777Y-80787443D01*
X214932667Y-80828658D01*
X214935509Y-80831413D01*
X214955231Y-80851135D01*
X214958355Y-80853558D01*
X214958359Y-80853562D01*
X214958424Y-80853612D01*
X214967445Y-80861317D01*
X214999679Y-80891586D01*
X215006627Y-80895405D01*
X215006629Y-80895407D01*
X215017432Y-80901346D01*
X215033959Y-80912202D01*
X215043698Y-80919757D01*
X215043700Y-80919758D01*
X215049960Y-80924614D01*
X215090540Y-80942174D01*
X215101188Y-80947391D01*
X215132488Y-80964598D01*
X215139940Y-80968695D01*
X215147616Y-80970666D01*
X215147619Y-80970667D01*
X215159562Y-80973733D01*
X215178267Y-80980137D01*
X215196855Y-80988181D01*
X215204678Y-80989420D01*
X215204688Y-80989423D01*
X215240524Y-80995099D01*
X215252144Y-80997505D01*
X215287289Y-81006528D01*
X215294970Y-81008500D01*
X215315224Y-81008500D01*
X215334934Y-81010051D01*
X215354943Y-81013220D01*
X215362835Y-81012474D01*
X215398961Y-81009059D01*
X215410819Y-81008500D01*
X217310406Y-81008500D01*
X217378527Y-81028502D01*
X217399501Y-81045405D01*
X218116945Y-81762849D01*
X218150971Y-81825161D01*
X218145906Y-81895976D01*
X218103359Y-81952812D01*
X218096045Y-81957637D01*
X218093248Y-81958882D01*
X218087907Y-81962762D01*
X218087906Y-81962763D01*
X218037843Y-81999136D01*
X217938747Y-82071134D01*
X217934326Y-82076044D01*
X217934325Y-82076045D01*
X217826197Y-82196134D01*
X217810960Y-82213056D01*
X217715473Y-82378444D01*
X217714982Y-82379955D01*
X217670208Y-82432634D01*
X217602281Y-82453284D01*
X217533973Y-82433932D01*
X217511985Y-82416385D01*
X217399719Y-82304119D01*
X217365693Y-82241807D01*
X217363882Y-82224960D01*
X217363504Y-82225000D01*
X217344232Y-82041635D01*
X217344232Y-82041633D01*
X217343542Y-82035072D01*
X217284527Y-81853444D01*
X217189040Y-81688056D01*
X217164411Y-81660702D01*
X217065675Y-81551045D01*
X217065674Y-81551044D01*
X217061253Y-81546134D01*
X216949603Y-81465015D01*
X216912094Y-81437763D01*
X216912093Y-81437762D01*
X216906752Y-81433882D01*
X216900724Y-81431198D01*
X216900722Y-81431197D01*
X216738319Y-81358891D01*
X216738318Y-81358891D01*
X216732288Y-81356206D01*
X216638888Y-81336353D01*
X216551944Y-81317872D01*
X216551939Y-81317872D01*
X216545487Y-81316500D01*
X216354513Y-81316500D01*
X216348061Y-81317872D01*
X216348056Y-81317872D01*
X216261112Y-81336353D01*
X216167712Y-81356206D01*
X216161682Y-81358891D01*
X216161681Y-81358891D01*
X215999278Y-81431197D01*
X215999276Y-81431198D01*
X215993248Y-81433882D01*
X215987907Y-81437762D01*
X215987906Y-81437763D01*
X215953133Y-81463027D01*
X215886265Y-81486886D01*
X215816071Y-81470209D01*
X215813791Y-81468892D01*
X215808454Y-81465015D01*
X215802433Y-81462334D01*
X215802429Y-81462332D01*
X215640021Y-81390024D01*
X215640020Y-81390024D01*
X215633990Y-81387339D01*
X215540590Y-81367486D01*
X215453646Y-81349005D01*
X215453641Y-81349005D01*
X215447189Y-81347633D01*
X215256215Y-81347633D01*
X215249763Y-81349005D01*
X215249758Y-81349005D01*
X215162815Y-81367486D01*
X215069414Y-81387339D01*
X215063384Y-81390024D01*
X215063383Y-81390024D01*
X214900980Y-81462330D01*
X214900978Y-81462331D01*
X214894950Y-81465015D01*
X214889609Y-81468895D01*
X214889608Y-81468896D01*
X214845359Y-81501045D01*
X214740449Y-81577267D01*
X214736028Y-81582177D01*
X214736027Y-81582178D01*
X214629491Y-81700499D01*
X214612662Y-81719189D01*
X214564017Y-81803444D01*
X214528633Y-81864732D01*
X214517175Y-81884577D01*
X214515133Y-81890863D01*
X214514738Y-81891749D01*
X214468758Y-81945844D01*
X214399631Y-81966500D01*
X214379513Y-81966500D01*
X214373061Y-81967872D01*
X214373056Y-81967872D01*
X214308638Y-81981565D01*
X214192712Y-82006206D01*
X214186682Y-82008891D01*
X214186681Y-82008891D01*
X214024278Y-82081197D01*
X214024276Y-82081198D01*
X214018248Y-82083882D01*
X214012907Y-82087762D01*
X214012906Y-82087763D01*
X213991432Y-82103365D01*
X213863747Y-82196134D01*
X213859326Y-82201044D01*
X213859325Y-82201045D01*
X213848510Y-82213056D01*
X213802964Y-82263641D01*
X213790972Y-82276959D01*
X213730526Y-82314199D01*
X213659543Y-82312847D01*
X213644854Y-82306394D01*
X213644624Y-82306912D01*
X213476191Y-82231921D01*
X213476190Y-82231921D01*
X213470160Y-82229236D01*
X213370949Y-82208148D01*
X213289816Y-82190902D01*
X213289811Y-82190902D01*
X213283359Y-82189530D01*
X213092385Y-82189530D01*
X213085933Y-82190902D01*
X213085928Y-82190902D01*
X213004795Y-82208148D01*
X212905584Y-82229236D01*
X212899554Y-82231921D01*
X212899553Y-82231921D01*
X212737150Y-82304227D01*
X212737148Y-82304228D01*
X212731120Y-82306912D01*
X212725779Y-82310792D01*
X212725778Y-82310793D01*
X212721090Y-82314199D01*
X212576619Y-82419164D01*
X212572198Y-82424074D01*
X212572197Y-82424075D01*
X212493080Y-82511944D01*
X212448832Y-82561086D01*
X212422639Y-82606453D01*
X212368942Y-82699460D01*
X212353345Y-82726474D01*
X212294330Y-82908102D01*
X212293640Y-82914663D01*
X212293640Y-82914665D01*
X212278332Y-83060316D01*
X212274368Y-83098030D01*
X212275058Y-83104595D01*
X212289979Y-83246556D01*
X212294330Y-83287958D01*
X212353345Y-83469586D01*
X212448832Y-83634974D01*
X212453250Y-83639881D01*
X212453251Y-83639882D01*
X212479292Y-83668803D01*
X212576619Y-83776896D01*
X212731120Y-83889148D01*
X212737148Y-83891832D01*
X212737150Y-83891833D01*
X212866415Y-83949385D01*
X212905584Y-83966824D01*
X212998984Y-83986677D01*
X213085928Y-84005158D01*
X213085933Y-84005158D01*
X213092385Y-84006530D01*
X213283359Y-84006530D01*
X213289811Y-84005158D01*
X213289816Y-84005158D01*
X213376760Y-83986677D01*
X213470160Y-83966824D01*
X213509329Y-83949385D01*
X213638594Y-83891833D01*
X213638596Y-83891832D01*
X213644624Y-83889148D01*
X213799125Y-83776896D01*
X213871900Y-83696071D01*
X213932346Y-83658831D01*
X214003329Y-83660183D01*
X214018018Y-83666636D01*
X214018248Y-83666118D01*
X214177985Y-83737237D01*
X214192712Y-83743794D01*
X214286112Y-83763647D01*
X214373056Y-83782128D01*
X214373061Y-83782128D01*
X214379513Y-83783500D01*
X214570487Y-83783500D01*
X214576939Y-83782128D01*
X214576944Y-83782128D01*
X214663888Y-83763647D01*
X214757288Y-83743794D01*
X214763319Y-83741109D01*
X214925722Y-83668803D01*
X214925724Y-83668802D01*
X214931752Y-83666118D01*
X214944001Y-83657219D01*
X215008764Y-83610165D01*
X215086253Y-83553866D01*
X215169362Y-83461564D01*
X215209621Y-83416852D01*
X215209622Y-83416851D01*
X215214040Y-83411944D01*
X215277458Y-83302101D01*
X215328841Y-83253108D01*
X215398555Y-83239673D01*
X215464466Y-83266060D01*
X215475672Y-83276007D01*
X216426070Y-84226405D01*
X216460096Y-84288717D01*
X216455031Y-84359532D01*
X216412484Y-84416368D01*
X216345964Y-84441179D01*
X216336975Y-84441500D01*
X216279513Y-84441500D01*
X216273061Y-84442872D01*
X216273056Y-84442872D01*
X216186112Y-84461353D01*
X216092712Y-84481206D01*
X216086682Y-84483891D01*
X216086681Y-84483891D01*
X215924278Y-84556197D01*
X215924276Y-84556198D01*
X215918248Y-84558882D01*
X215763747Y-84671134D01*
X215635960Y-84813056D01*
X215540473Y-84978444D01*
X215481458Y-85160072D01*
X215461496Y-85350000D01*
X215481458Y-85539928D01*
X215540473Y-85721556D01*
X215635960Y-85886944D01*
X215640378Y-85891851D01*
X215640379Y-85891852D01*
X215732150Y-85993774D01*
X215763747Y-86028866D01*
X215918248Y-86141118D01*
X215924276Y-86143802D01*
X215924278Y-86143803D01*
X215960049Y-86159729D01*
X216092712Y-86218794D01*
X216174991Y-86236283D01*
X216273056Y-86257128D01*
X216273061Y-86257128D01*
X216279513Y-86258500D01*
X216470487Y-86258500D01*
X216476939Y-86257128D01*
X216476944Y-86257128D01*
X216575009Y-86236283D01*
X216657288Y-86218794D01*
X216789951Y-86159729D01*
X216825722Y-86143803D01*
X216825724Y-86143802D01*
X216831752Y-86141118D01*
X216986253Y-86028866D01*
X217017850Y-85993774D01*
X217109621Y-85891852D01*
X217109622Y-85891851D01*
X217114040Y-85886944D01*
X217209527Y-85721556D01*
X217268542Y-85539928D01*
X217276739Y-85461944D01*
X217285730Y-85376394D01*
X217312743Y-85310738D01*
X217370965Y-85270108D01*
X217441910Y-85267405D01*
X217500135Y-85300470D01*
X220581912Y-88382247D01*
X220589456Y-88390537D01*
X220593569Y-88397018D01*
X220599346Y-88402443D01*
X220643236Y-88443658D01*
X220646078Y-88446413D01*
X220665799Y-88466134D01*
X220668994Y-88468612D01*
X220678016Y-88476318D01*
X220710248Y-88506586D01*
X220717197Y-88510406D01*
X220728001Y-88516346D01*
X220744525Y-88527199D01*
X220760528Y-88539613D01*
X220801112Y-88557176D01*
X220811742Y-88562383D01*
X220850509Y-88583695D01*
X220858186Y-88585666D01*
X220858191Y-88585668D01*
X220870127Y-88588732D01*
X220888835Y-88595137D01*
X220907424Y-88603181D01*
X220915249Y-88604420D01*
X220915251Y-88604421D01*
X220951088Y-88610097D01*
X220962709Y-88612504D01*
X220997858Y-88621528D01*
X221005539Y-88623500D01*
X221025800Y-88623500D01*
X221045509Y-88625051D01*
X221065512Y-88628219D01*
X221073404Y-88627473D01*
X221075457Y-88627279D01*
X221109523Y-88624059D01*
X221121380Y-88623500D01*
X223166454Y-88623500D01*
X223234575Y-88643502D01*
X223278721Y-88692297D01*
X223280177Y-88695154D01*
X223282073Y-88699732D01*
X223284662Y-88703956D01*
X223284662Y-88703957D01*
X223405840Y-88901702D01*
X223410248Y-88908896D01*
X223413463Y-88912660D01*
X223413465Y-88912663D01*
X223516555Y-89033365D01*
X223569567Y-89095433D01*
X223573323Y-89098641D01*
X223723938Y-89227279D01*
X223756104Y-89254752D01*
X223760327Y-89257340D01*
X223760330Y-89257342D01*
X223829515Y-89299738D01*
X223965268Y-89382927D01*
X224109967Y-89442864D01*
X224187335Y-89474911D01*
X224187337Y-89474912D01*
X224191908Y-89476805D01*
X224274563Y-89496649D01*
X224425630Y-89532917D01*
X224425636Y-89532918D01*
X224430443Y-89534072D01*
X224675000Y-89553319D01*
X224919557Y-89534072D01*
X224924364Y-89532918D01*
X224924370Y-89532917D01*
X225075437Y-89496649D01*
X225158092Y-89476805D01*
X225162663Y-89474912D01*
X225162665Y-89474911D01*
X225240033Y-89442864D01*
X225384732Y-89382927D01*
X225520485Y-89299738D01*
X225589670Y-89257342D01*
X225589673Y-89257340D01*
X225593896Y-89254752D01*
X225626063Y-89227279D01*
X225776677Y-89098641D01*
X225780433Y-89095433D01*
X225833445Y-89033365D01*
X225936535Y-88912663D01*
X225936537Y-88912660D01*
X225939752Y-88908896D01*
X225944161Y-88901702D01*
X226014484Y-88786944D01*
X226067927Y-88699732D01*
X226141910Y-88521123D01*
X226159911Y-88477665D01*
X226159912Y-88477663D01*
X226161805Y-88473092D01*
X226183615Y-88382247D01*
X226217917Y-88239370D01*
X226217918Y-88239364D01*
X226219072Y-88234557D01*
X226238319Y-87990000D01*
X226219072Y-87745443D01*
X226215876Y-87732128D01*
X226176144Y-87566635D01*
X226161805Y-87506908D01*
X226143520Y-87462763D01*
X226108593Y-87378444D01*
X226067927Y-87280268D01*
X225970096Y-87120621D01*
X225959168Y-87102788D01*
X225940630Y-87034255D01*
X225962087Y-86966578D01*
X225991035Y-86936128D01*
X226036199Y-86902279D01*
X226088261Y-86863261D01*
X226175615Y-86746705D01*
X226226745Y-86610316D01*
X226233500Y-86548134D01*
X226233500Y-84351866D01*
X226226745Y-84289684D01*
X226175615Y-84153295D01*
X226088261Y-84036739D01*
X225971705Y-83949385D01*
X225835316Y-83898255D01*
X225773134Y-83891500D01*
X223576866Y-83891500D01*
X223514684Y-83898255D01*
X223378295Y-83949385D01*
X223261739Y-84036739D01*
X223174385Y-84153295D01*
X223123255Y-84289684D01*
X223116500Y-84351866D01*
X223116500Y-84690500D01*
X223096498Y-84758621D01*
X223042842Y-84805114D01*
X222990500Y-84816500D01*
X219964289Y-84816500D01*
X219896168Y-84796498D01*
X219875194Y-84779595D01*
X218880348Y-83784749D01*
X218846322Y-83722437D01*
X218851387Y-83651622D01*
X218893934Y-83594786D01*
X218918194Y-83580547D01*
X219000722Y-83543803D01*
X219000724Y-83543802D01*
X219006752Y-83541118D01*
X219023616Y-83528866D01*
X219062157Y-83500864D01*
X219161253Y-83428866D01*
X219165675Y-83423955D01*
X219284621Y-83291852D01*
X219284622Y-83291851D01*
X219289040Y-83286944D01*
X219384527Y-83121556D01*
X219443542Y-82939928D01*
X219444232Y-82933365D01*
X219445322Y-82928236D01*
X219479051Y-82865763D01*
X219517319Y-82839328D01*
X219675722Y-82768803D01*
X219675724Y-82768802D01*
X219681752Y-82766118D01*
X219690370Y-82759857D01*
X219748075Y-82717931D01*
X219836253Y-82653866D01*
X219846073Y-82642960D01*
X219959621Y-82516852D01*
X219959622Y-82516851D01*
X219964040Y-82511944D01*
X220041063Y-82378537D01*
X220056223Y-82352279D01*
X220056224Y-82352278D01*
X220059527Y-82346556D01*
X220118542Y-82164928D01*
X220125013Y-82103365D01*
X220137814Y-81981565D01*
X220138504Y-81975000D01*
X220125127Y-81847721D01*
X220119232Y-81791635D01*
X220119232Y-81791633D01*
X220118542Y-81785072D01*
X220059527Y-81603444D01*
X219964040Y-81438056D01*
X219948804Y-81421134D01*
X219840675Y-81301045D01*
X219840674Y-81301044D01*
X219836253Y-81296134D01*
X219706505Y-81201866D01*
X219687094Y-81187763D01*
X219687093Y-81187762D01*
X219681752Y-81183882D01*
X219675724Y-81181198D01*
X219675722Y-81181197D01*
X219513319Y-81108891D01*
X219513318Y-81108891D01*
X219507288Y-81106206D01*
X219413887Y-81086353D01*
X219326944Y-81067872D01*
X219326939Y-81067872D01*
X219320487Y-81066500D01*
X219264594Y-81066500D01*
X219196473Y-81046498D01*
X219175499Y-81029595D01*
X218654730Y-80508825D01*
X218128652Y-79982747D01*
X218121112Y-79974461D01*
X218117000Y-79967982D01*
X218067348Y-79921356D01*
X218064507Y-79918602D01*
X218044770Y-79898865D01*
X218041573Y-79896385D01*
X218032551Y-79888680D01*
X218017103Y-79874173D01*
X218000321Y-79858414D01*
X217993375Y-79854595D01*
X217993372Y-79854593D01*
X217982566Y-79848652D01*
X217966047Y-79837801D01*
X217965352Y-79837262D01*
X217950041Y-79825386D01*
X217942772Y-79822241D01*
X217942768Y-79822238D01*
X217909463Y-79807826D01*
X217898813Y-79802609D01*
X217860060Y-79781305D01*
X217840437Y-79776267D01*
X217821734Y-79769863D01*
X217810420Y-79764967D01*
X217810419Y-79764967D01*
X217803145Y-79761819D01*
X217795322Y-79760580D01*
X217795312Y-79760577D01*
X217759476Y-79754901D01*
X217747856Y-79752495D01*
X217712711Y-79743472D01*
X217712710Y-79743472D01*
X217705030Y-79741500D01*
X217684776Y-79741500D01*
X217665065Y-79739949D01*
X217652886Y-79738020D01*
X217645057Y-79736780D01*
X217637165Y-79737526D01*
X217601039Y-79740941D01*
X217589181Y-79741500D01*
X215689594Y-79741500D01*
X215621473Y-79721498D01*
X215600499Y-79704595D01*
X215022122Y-79126218D01*
X214988096Y-79063906D01*
X214985907Y-79050293D01*
X214969232Y-78891635D01*
X214969232Y-78891633D01*
X214968542Y-78885072D01*
X214909527Y-78703444D01*
X214814040Y-78538056D01*
X214796679Y-78518774D01*
X214690675Y-78401045D01*
X214690674Y-78401044D01*
X214686253Y-78396134D01*
X214531752Y-78283882D01*
X214525724Y-78281198D01*
X214525722Y-78281197D01*
X214363319Y-78208891D01*
X214363318Y-78208891D01*
X214357288Y-78206206D01*
X214252305Y-78183891D01*
X214176944Y-78167872D01*
X214176939Y-78167872D01*
X214170487Y-78166500D01*
X213979513Y-78166500D01*
X213973061Y-78167872D01*
X213973056Y-78167872D01*
X213897695Y-78183891D01*
X213792712Y-78206206D01*
X213786682Y-78208891D01*
X213786681Y-78208891D01*
X213624278Y-78281197D01*
X213624276Y-78281198D01*
X213618248Y-78283882D01*
X213463747Y-78396134D01*
X213459326Y-78401044D01*
X213459325Y-78401045D01*
X213353322Y-78518774D01*
X213335960Y-78538056D01*
X213240473Y-78703444D01*
X213181458Y-78885072D01*
X213180768Y-78891633D01*
X213180768Y-78891635D01*
X213162616Y-79064340D01*
X213135603Y-79129997D01*
X213077381Y-79170626D01*
X213006436Y-79173329D01*
X212986057Y-79166276D01*
X212913319Y-79133891D01*
X212913318Y-79133891D01*
X212907288Y-79131206D01*
X212813888Y-79111353D01*
X212726944Y-79092872D01*
X212726939Y-79092872D01*
X212720487Y-79091500D01*
X212529513Y-79091500D01*
X212523061Y-79092872D01*
X212523056Y-79092872D01*
X212436112Y-79111353D01*
X212342712Y-79131206D01*
X212336682Y-79133891D01*
X212336681Y-79133891D01*
X212174278Y-79206197D01*
X212174276Y-79206198D01*
X212168248Y-79208882D01*
X212013747Y-79321134D01*
X212009326Y-79326044D01*
X212009325Y-79326045D01*
X211909208Y-79437237D01*
X211885960Y-79463056D01*
X211843301Y-79536944D01*
X211811011Y-79592872D01*
X211790473Y-79628444D01*
X211731458Y-79810072D01*
X211730768Y-79816633D01*
X211730768Y-79816635D01*
X211719762Y-79921357D01*
X211711496Y-80000000D01*
X205960370Y-80000000D01*
X205939040Y-79963056D01*
X205921697Y-79943794D01*
X205815675Y-79826045D01*
X205815674Y-79826044D01*
X205811253Y-79821134D01*
X205677066Y-79723641D01*
X205662094Y-79712763D01*
X205662093Y-79712762D01*
X205656752Y-79708882D01*
X205650724Y-79706198D01*
X205650722Y-79706197D01*
X205488319Y-79633891D01*
X205488318Y-79633891D01*
X205482288Y-79631206D01*
X205388888Y-79611353D01*
X205301944Y-79592872D01*
X205301939Y-79592872D01*
X205295487Y-79591500D01*
X205104513Y-79591500D01*
X205098061Y-79592872D01*
X205098056Y-79592872D01*
X205011112Y-79611353D01*
X204917712Y-79631206D01*
X204911682Y-79633891D01*
X204911681Y-79633891D01*
X204749278Y-79706197D01*
X204749276Y-79706198D01*
X204743248Y-79708882D01*
X204737907Y-79712762D01*
X204737906Y-79712763D01*
X204722934Y-79723641D01*
X204588747Y-79821134D01*
X204584326Y-79826044D01*
X204584325Y-79826045D01*
X204478304Y-79943794D01*
X204460960Y-79963056D01*
X204365473Y-80128444D01*
X204306458Y-80310072D01*
X204305768Y-80316633D01*
X204305768Y-80316635D01*
X204299996Y-80371556D01*
X204286496Y-80500000D01*
X204287186Y-80506565D01*
X204303996Y-80666500D01*
X204306458Y-80689928D01*
X204365473Y-80871556D01*
X204368776Y-80877278D01*
X204368777Y-80877279D01*
X204386803Y-80908500D01*
X204460960Y-81036944D01*
X204465378Y-81041851D01*
X204465379Y-81041852D01*
X204560541Y-81147540D01*
X204588747Y-81178866D01*
X204594089Y-81182747D01*
X204594091Y-81182749D01*
X204615171Y-81198064D01*
X204658525Y-81254286D01*
X204664601Y-81325022D01*
X204631469Y-81387814D01*
X204615173Y-81401935D01*
X204588747Y-81421134D01*
X204584326Y-81426044D01*
X204584325Y-81426045D01*
X204476197Y-81546134D01*
X204460960Y-81563056D01*
X204365473Y-81728444D01*
X204306458Y-81910072D01*
X204305768Y-81916633D01*
X204305768Y-81916635D01*
X204288472Y-82081197D01*
X204286496Y-82100000D01*
X203405621Y-82100000D01*
X203394232Y-81991635D01*
X203394232Y-81991633D01*
X203393542Y-81985072D01*
X203334527Y-81803444D01*
X203239040Y-81638056D01*
X203184306Y-81577267D01*
X203115675Y-81501045D01*
X203115674Y-81501044D01*
X203111253Y-81496134D01*
X202956752Y-81383882D01*
X202950724Y-81381198D01*
X202950722Y-81381197D01*
X202788319Y-81308891D01*
X202788318Y-81308891D01*
X202782288Y-81306206D01*
X202688887Y-81286353D01*
X202601944Y-81267872D01*
X202601939Y-81267872D01*
X202595487Y-81266500D01*
X202404513Y-81266500D01*
X202398061Y-81267872D01*
X202398056Y-81267872D01*
X202311113Y-81286353D01*
X202217712Y-81306206D01*
X202211682Y-81308891D01*
X202211681Y-81308891D01*
X202049278Y-81381197D01*
X202049276Y-81381198D01*
X202043248Y-81383882D01*
X201888747Y-81496134D01*
X201884326Y-81501044D01*
X201884325Y-81501045D01*
X201815695Y-81577267D01*
X201760960Y-81638056D01*
X201665473Y-81803444D01*
X201641456Y-81877361D01*
X201616132Y-81955299D01*
X201576058Y-82013905D01*
X201509884Y-82041500D01*
X201504513Y-82041500D01*
X201317712Y-82081206D01*
X201311685Y-82083889D01*
X201311677Y-82083892D01*
X201179410Y-82142781D01*
X201109043Y-82152215D01*
X201054101Y-82129610D01*
X200962094Y-82062763D01*
X200962093Y-82062762D01*
X200956752Y-82058882D01*
X200950724Y-82056198D01*
X200950722Y-82056197D01*
X200788319Y-81983891D01*
X200788318Y-81983891D01*
X200782288Y-81981206D01*
X200687514Y-81961061D01*
X200601944Y-81942872D01*
X200601939Y-81942872D01*
X200595487Y-81941500D01*
X200404513Y-81941500D01*
X200398061Y-81942872D01*
X200398056Y-81942872D01*
X200222313Y-81980228D01*
X200151522Y-81974826D01*
X200094890Y-81932009D01*
X200070396Y-81865372D01*
X200076283Y-81818044D01*
X200089037Y-81778794D01*
X200093542Y-81764928D01*
X200101021Y-81693774D01*
X200112814Y-81581565D01*
X200113504Y-81575000D01*
X200097915Y-81426680D01*
X200094232Y-81391635D01*
X200094232Y-81391633D01*
X200093542Y-81385072D01*
X200034527Y-81203444D01*
X200017502Y-81173955D01*
X199978630Y-81106628D01*
X199939040Y-81038056D01*
X199900362Y-80995099D01*
X199815675Y-80901045D01*
X199815674Y-80901044D01*
X199811253Y-80896134D01*
X199670407Y-80793803D01*
X199662094Y-80787763D01*
X199662093Y-80787762D01*
X199656752Y-80783882D01*
X199650724Y-80781198D01*
X199650722Y-80781197D01*
X199488319Y-80708891D01*
X199488318Y-80708891D01*
X199482288Y-80706206D01*
X199388888Y-80686353D01*
X199301944Y-80667872D01*
X199301939Y-80667872D01*
X199295487Y-80666500D01*
X199104513Y-80666500D01*
X199098061Y-80667872D01*
X199098056Y-80667872D01*
X199011112Y-80686353D01*
X198917712Y-80706206D01*
X198911682Y-80708891D01*
X198911681Y-80708891D01*
X198749278Y-80781197D01*
X198749276Y-80781198D01*
X198743248Y-80783882D01*
X198737907Y-80787762D01*
X198737906Y-80787763D01*
X198729593Y-80793803D01*
X198588747Y-80896134D01*
X198584326Y-80901044D01*
X198584325Y-80901045D01*
X198499639Y-80995099D01*
X198460960Y-81038056D01*
X198421370Y-81106628D01*
X198382499Y-81173955D01*
X198365473Y-81203444D01*
X198306458Y-81385072D01*
X198305768Y-81391633D01*
X198305768Y-81391635D01*
X198302085Y-81426680D01*
X198286496Y-81575000D01*
X195245904Y-81575000D01*
X196312079Y-80508825D01*
X196374391Y-80474799D01*
X196445206Y-80479864D01*
X196502042Y-80522411D01*
X196514556Y-80543735D01*
X196515473Y-80546556D01*
X196610960Y-80711944D01*
X196615378Y-80716851D01*
X196615379Y-80716852D01*
X196684666Y-80793803D01*
X196738747Y-80853866D01*
X196809994Y-80905630D01*
X196870530Y-80949612D01*
X196893248Y-80966118D01*
X196899276Y-80968802D01*
X196899278Y-80968803D01*
X197054824Y-81038056D01*
X197067712Y-81043794D01*
X197136517Y-81058419D01*
X197248056Y-81082128D01*
X197248061Y-81082128D01*
X197254513Y-81083500D01*
X197445487Y-81083500D01*
X197451939Y-81082128D01*
X197451944Y-81082128D01*
X197563483Y-81058419D01*
X197632288Y-81043794D01*
X197645176Y-81038056D01*
X197800722Y-80968803D01*
X197800724Y-80968802D01*
X197806752Y-80966118D01*
X197829471Y-80949612D01*
X197890006Y-80905630D01*
X197961253Y-80853866D01*
X198015334Y-80793803D01*
X198084621Y-80716852D01*
X198084622Y-80716851D01*
X198089040Y-80711944D01*
X198184527Y-80546556D01*
X198243542Y-80364928D01*
X198249968Y-80303794D01*
X198262814Y-80181565D01*
X198263504Y-80175000D01*
X198258009Y-80122721D01*
X198244233Y-79991642D01*
X198244232Y-79991638D01*
X198243542Y-79985072D01*
X198241288Y-79978135D01*
X198241277Y-79977736D01*
X198240128Y-79972332D01*
X198241116Y-79972122D01*
X198239260Y-79907167D01*
X198275923Y-79846369D01*
X198287060Y-79837262D01*
X198371011Y-79776267D01*
X198436253Y-79728866D01*
X198521769Y-79633891D01*
X198559621Y-79591852D01*
X198559622Y-79591851D01*
X198564040Y-79586944D01*
X198659527Y-79421556D01*
X198718542Y-79239928D01*
X198738504Y-79050000D01*
X198724025Y-78912237D01*
X198719232Y-78866635D01*
X198719232Y-78866633D01*
X198718542Y-78860072D01*
X198659527Y-78678444D01*
X198652835Y-78666852D01*
X198643105Y-78650000D01*
X201386496Y-78650000D01*
X201387186Y-78656565D01*
X201402152Y-78798955D01*
X201406458Y-78839928D01*
X201465473Y-79021556D01*
X201560960Y-79186944D01*
X201565378Y-79191851D01*
X201565379Y-79191852D01*
X201678289Y-79317251D01*
X201688747Y-79328866D01*
X201843248Y-79441118D01*
X201849276Y-79443802D01*
X201849278Y-79443803D01*
X202011681Y-79516109D01*
X202017712Y-79518794D01*
X202103101Y-79536944D01*
X202198056Y-79557128D01*
X202198061Y-79557128D01*
X202204513Y-79558500D01*
X202395487Y-79558500D01*
X202401939Y-79557128D01*
X202401944Y-79557128D01*
X202496899Y-79536944D01*
X202582288Y-79518794D01*
X202588319Y-79516109D01*
X202750722Y-79443803D01*
X202750724Y-79443802D01*
X202756752Y-79441118D01*
X202911253Y-79328866D01*
X202921711Y-79317251D01*
X203034621Y-79191852D01*
X203034622Y-79191851D01*
X203039040Y-79186944D01*
X203134527Y-79021556D01*
X203193542Y-78839928D01*
X203197849Y-78798955D01*
X203212814Y-78656565D01*
X203213504Y-78650000D01*
X203209307Y-78610070D01*
X203194232Y-78466635D01*
X203194232Y-78466633D01*
X203193542Y-78460072D01*
X203134527Y-78278444D01*
X203116117Y-78246556D01*
X203079937Y-78183891D01*
X203045936Y-78125000D01*
X210061496Y-78125000D01*
X210081458Y-78314928D01*
X210140473Y-78496556D01*
X210143776Y-78502278D01*
X210143777Y-78502279D01*
X210153966Y-78519927D01*
X210235960Y-78661944D01*
X210240378Y-78666851D01*
X210240379Y-78666852D01*
X210256476Y-78684729D01*
X210363747Y-78803866D01*
X210518248Y-78916118D01*
X210524276Y-78918802D01*
X210524278Y-78918803D01*
X210686681Y-78991109D01*
X210692712Y-78993794D01*
X210786112Y-79013647D01*
X210873056Y-79032128D01*
X210873061Y-79032128D01*
X210879513Y-79033500D01*
X211070487Y-79033500D01*
X211076939Y-79032128D01*
X211076944Y-79032128D01*
X211163887Y-79013647D01*
X211257288Y-78993794D01*
X211263319Y-78991109D01*
X211425722Y-78918803D01*
X211425724Y-78918802D01*
X211431752Y-78916118D01*
X211586253Y-78803866D01*
X211693524Y-78684729D01*
X211709621Y-78666852D01*
X211709622Y-78666851D01*
X211714040Y-78661944D01*
X211796034Y-78519927D01*
X211806223Y-78502279D01*
X211806224Y-78502278D01*
X211809527Y-78496556D01*
X211868542Y-78314928D01*
X211888504Y-78125000D01*
X211881521Y-78058560D01*
X211869232Y-77941635D01*
X211869232Y-77941633D01*
X211868542Y-77935072D01*
X211809527Y-77753444D01*
X211802835Y-77741852D01*
X211717341Y-77593774D01*
X211714040Y-77588056D01*
X211704337Y-77577279D01*
X211590675Y-77451045D01*
X211590674Y-77451044D01*
X211586253Y-77446134D01*
X211445373Y-77343778D01*
X211437094Y-77337763D01*
X211437093Y-77337762D01*
X211431752Y-77333882D01*
X211425724Y-77331198D01*
X211425722Y-77331197D01*
X211263319Y-77258891D01*
X211263318Y-77258891D01*
X211257288Y-77256206D01*
X211163888Y-77236353D01*
X211076944Y-77217872D01*
X211076939Y-77217872D01*
X211070487Y-77216500D01*
X210879513Y-77216500D01*
X210873061Y-77217872D01*
X210873056Y-77217872D01*
X210786112Y-77236353D01*
X210692712Y-77256206D01*
X210686682Y-77258891D01*
X210686681Y-77258891D01*
X210524278Y-77331197D01*
X210524276Y-77331198D01*
X210518248Y-77333882D01*
X210512907Y-77337762D01*
X210512906Y-77337763D01*
X210504627Y-77343778D01*
X210363747Y-77446134D01*
X210359326Y-77451044D01*
X210359325Y-77451045D01*
X210245664Y-77577279D01*
X210235960Y-77588056D01*
X210232659Y-77593774D01*
X210147166Y-77741852D01*
X210140473Y-77753444D01*
X210081458Y-77935072D01*
X210080768Y-77941633D01*
X210080768Y-77941635D01*
X210068479Y-78058560D01*
X210061496Y-78125000D01*
X203045936Y-78125000D01*
X203039040Y-78113056D01*
X203033703Y-78107128D01*
X202915675Y-77976045D01*
X202915674Y-77976044D01*
X202911253Y-77971134D01*
X202784258Y-77878866D01*
X202762094Y-77862763D01*
X202762093Y-77862762D01*
X202756752Y-77858882D01*
X202750724Y-77856198D01*
X202750722Y-77856197D01*
X202588319Y-77783891D01*
X202588318Y-77783891D01*
X202582288Y-77781206D01*
X202481247Y-77759729D01*
X202401944Y-77742872D01*
X202401939Y-77742872D01*
X202395487Y-77741500D01*
X202204513Y-77741500D01*
X202198061Y-77742872D01*
X202198056Y-77742872D01*
X202118753Y-77759729D01*
X202017712Y-77781206D01*
X202011682Y-77783891D01*
X202011681Y-77783891D01*
X201849278Y-77856197D01*
X201849276Y-77856198D01*
X201843248Y-77858882D01*
X201837907Y-77862762D01*
X201837906Y-77862763D01*
X201815742Y-77878866D01*
X201688747Y-77971134D01*
X201684326Y-77976044D01*
X201684325Y-77976045D01*
X201566298Y-78107128D01*
X201560960Y-78113056D01*
X201520063Y-78183891D01*
X201483884Y-78246556D01*
X201465473Y-78278444D01*
X201406458Y-78460072D01*
X201405768Y-78466633D01*
X201405768Y-78466635D01*
X201390693Y-78610070D01*
X201386496Y-78650000D01*
X198643105Y-78650000D01*
X198605304Y-78584528D01*
X198564040Y-78513056D01*
X198554337Y-78502279D01*
X198440675Y-78376045D01*
X198440674Y-78376044D01*
X198436253Y-78371134D01*
X198317327Y-78284729D01*
X198287094Y-78262763D01*
X198287093Y-78262762D01*
X198281752Y-78258882D01*
X198275724Y-78256198D01*
X198275722Y-78256197D01*
X198113319Y-78183891D01*
X198113318Y-78183891D01*
X198107288Y-78181206D01*
X198013887Y-78161353D01*
X197926944Y-78142872D01*
X197926939Y-78142872D01*
X197920487Y-78141500D01*
X197729513Y-78141500D01*
X197723061Y-78142872D01*
X197723056Y-78142872D01*
X197636113Y-78161353D01*
X197542712Y-78181206D01*
X197536682Y-78183891D01*
X197536681Y-78183891D01*
X197374278Y-78256197D01*
X197374276Y-78256198D01*
X197368248Y-78258882D01*
X197362907Y-78262762D01*
X197362906Y-78262763D01*
X197282566Y-78321134D01*
X197213747Y-78371134D01*
X197209332Y-78376037D01*
X197204420Y-78380460D01*
X197203295Y-78379211D01*
X197149986Y-78412051D01*
X197116800Y-78416500D01*
X196953767Y-78416500D01*
X196942584Y-78415973D01*
X196935091Y-78414298D01*
X196927165Y-78414547D01*
X196927164Y-78414547D01*
X196867001Y-78416438D01*
X196863043Y-78416500D01*
X196835144Y-78416500D01*
X196831154Y-78417004D01*
X196819320Y-78417936D01*
X196775111Y-78419326D01*
X196767497Y-78421538D01*
X196767492Y-78421539D01*
X196755659Y-78424977D01*
X196736296Y-78428988D01*
X196716203Y-78431526D01*
X196708836Y-78434443D01*
X196708831Y-78434444D01*
X196675092Y-78447802D01*
X196663865Y-78451646D01*
X196621407Y-78463982D01*
X196614581Y-78468019D01*
X196603972Y-78474293D01*
X196586224Y-78482988D01*
X196567383Y-78490448D01*
X196560967Y-78495110D01*
X196560966Y-78495110D01*
X196531613Y-78516436D01*
X196521693Y-78522952D01*
X196490465Y-78541420D01*
X196490462Y-78541422D01*
X196483638Y-78545458D01*
X196469317Y-78559779D01*
X196454284Y-78572619D01*
X196437893Y-78584528D01*
X196432842Y-78590634D01*
X196409702Y-78618605D01*
X196401712Y-78627384D01*
X194057747Y-80971348D01*
X194049461Y-80978888D01*
X194042982Y-80983000D01*
X194037557Y-80988777D01*
X193996357Y-81032651D01*
X193993602Y-81035493D01*
X193973865Y-81055230D01*
X193971385Y-81058427D01*
X193963682Y-81067447D01*
X193933414Y-81099679D01*
X193929595Y-81106625D01*
X193929593Y-81106628D01*
X193923652Y-81117434D01*
X193912801Y-81133953D01*
X193900386Y-81149959D01*
X193897241Y-81157228D01*
X193897238Y-81157232D01*
X193882826Y-81190537D01*
X193877609Y-81201187D01*
X193856305Y-81239940D01*
X193854334Y-81247615D01*
X193854334Y-81247616D01*
X193851267Y-81259562D01*
X193844863Y-81278266D01*
X193836819Y-81296855D01*
X193835580Y-81304678D01*
X193835577Y-81304688D01*
X193829901Y-81340524D01*
X193827495Y-81352144D01*
X193825763Y-81358891D01*
X193816500Y-81394970D01*
X193816500Y-81415224D01*
X193814949Y-81434934D01*
X193811780Y-81454943D01*
X193812526Y-81462835D01*
X193815941Y-81498961D01*
X193816500Y-81510819D01*
X193816500Y-84222476D01*
X193796498Y-84290597D01*
X193784142Y-84306779D01*
X193710960Y-84388056D01*
X193615473Y-84553444D01*
X193556458Y-84735072D01*
X193536496Y-84925000D01*
X175639213Y-84925000D01*
X175636978Y-82998134D01*
X178791500Y-82998134D01*
X178798255Y-83060316D01*
X178849385Y-83196705D01*
X178936739Y-83313261D01*
X179053295Y-83400615D01*
X179189684Y-83451745D01*
X179251866Y-83458500D01*
X181048134Y-83458500D01*
X181110316Y-83451745D01*
X181246705Y-83400615D01*
X181363261Y-83313261D01*
X181450615Y-83196705D01*
X181478787Y-83121556D01*
X181494598Y-83079382D01*
X181537240Y-83022618D01*
X181603802Y-82997918D01*
X181673150Y-83013126D01*
X181707817Y-83041114D01*
X181736250Y-83073938D01*
X181908126Y-83216632D01*
X182101000Y-83329338D01*
X182309692Y-83409030D01*
X182314760Y-83410061D01*
X182314763Y-83410062D01*
X182383050Y-83423955D01*
X182528597Y-83453567D01*
X182533772Y-83453757D01*
X182533774Y-83453757D01*
X182746673Y-83461564D01*
X182746677Y-83461564D01*
X182751837Y-83461753D01*
X182756957Y-83461097D01*
X182756959Y-83461097D01*
X182968288Y-83434025D01*
X182968289Y-83434025D01*
X182973416Y-83433368D01*
X183004791Y-83423955D01*
X183182429Y-83370661D01*
X183182434Y-83370659D01*
X183187384Y-83369174D01*
X183387994Y-83270896D01*
X183569860Y-83141173D01*
X183627909Y-83083327D01*
X183713616Y-82997918D01*
X183728096Y-82983489D01*
X183737670Y-82970166D01*
X183858453Y-82802077D01*
X183859776Y-82803028D01*
X183906645Y-82759857D01*
X183976580Y-82747625D01*
X184042026Y-82775144D01*
X184069875Y-82806994D01*
X184129987Y-82905088D01*
X184276250Y-83073938D01*
X184448126Y-83216632D01*
X184641000Y-83329338D01*
X184849692Y-83409030D01*
X184854760Y-83410061D01*
X184854763Y-83410062D01*
X184923050Y-83423955D01*
X185068597Y-83453567D01*
X185073772Y-83453757D01*
X185073774Y-83453757D01*
X185286673Y-83461564D01*
X185286677Y-83461564D01*
X185291837Y-83461753D01*
X185296957Y-83461097D01*
X185296959Y-83461097D01*
X185508288Y-83434025D01*
X185508289Y-83434025D01*
X185513416Y-83433368D01*
X185544791Y-83423955D01*
X185722429Y-83370661D01*
X185722434Y-83370659D01*
X185727384Y-83369174D01*
X185927994Y-83270896D01*
X186109860Y-83141173D01*
X186167909Y-83083327D01*
X186253616Y-82997918D01*
X186268096Y-82983489D01*
X186277670Y-82970166D01*
X186398453Y-82802077D01*
X186399776Y-82803028D01*
X186446645Y-82759857D01*
X186516580Y-82747625D01*
X186582026Y-82775144D01*
X186609875Y-82806994D01*
X186669987Y-82905088D01*
X186816250Y-83073938D01*
X186988126Y-83216632D01*
X187181000Y-83329338D01*
X187389692Y-83409030D01*
X187394760Y-83410061D01*
X187394763Y-83410062D01*
X187463050Y-83423955D01*
X187608597Y-83453567D01*
X187613772Y-83453757D01*
X187613774Y-83453757D01*
X187826673Y-83461564D01*
X187826677Y-83461564D01*
X187831837Y-83461753D01*
X187836957Y-83461097D01*
X187836959Y-83461097D01*
X188048288Y-83434025D01*
X188048289Y-83434025D01*
X188053416Y-83433368D01*
X188084791Y-83423955D01*
X188262429Y-83370661D01*
X188262434Y-83370659D01*
X188267384Y-83369174D01*
X188467994Y-83270896D01*
X188649860Y-83141173D01*
X188707909Y-83083327D01*
X188793616Y-82997918D01*
X188808096Y-82983489D01*
X188817670Y-82970166D01*
X188935435Y-82806277D01*
X188938453Y-82802077D01*
X188948006Y-82782749D01*
X189035136Y-82606453D01*
X189035137Y-82606451D01*
X189037430Y-82601811D01*
X189102370Y-82388069D01*
X189131529Y-82166590D01*
X189133156Y-82100000D01*
X189114852Y-81877361D01*
X189060431Y-81660702D01*
X188971354Y-81455840D01*
X188886724Y-81325022D01*
X188852822Y-81272617D01*
X188852820Y-81272614D01*
X188850014Y-81268277D01*
X188699670Y-81103051D01*
X188695619Y-81099852D01*
X188695615Y-81099848D01*
X188528414Y-80967800D01*
X188528410Y-80967798D01*
X188524359Y-80964598D01*
X188493189Y-80947391D01*
X188422737Y-80908500D01*
X188328789Y-80856638D01*
X188323920Y-80854914D01*
X188323916Y-80854912D01*
X188123087Y-80783795D01*
X188123083Y-80783794D01*
X188118212Y-80782069D01*
X188113119Y-80781162D01*
X188113116Y-80781161D01*
X187903373Y-80743800D01*
X187903367Y-80743799D01*
X187898284Y-80742894D01*
X187824452Y-80741992D01*
X187680081Y-80740228D01*
X187680079Y-80740228D01*
X187674911Y-80740165D01*
X187454091Y-80773955D01*
X187241756Y-80843357D01*
X187187586Y-80871556D01*
X187079622Y-80927759D01*
X187043607Y-80946507D01*
X187039474Y-80949610D01*
X187039471Y-80949612D01*
X186869100Y-81077530D01*
X186864965Y-81080635D01*
X186839894Y-81106870D01*
X186753729Y-81197037D01*
X186710629Y-81242138D01*
X186603201Y-81399621D01*
X186548293Y-81444621D01*
X186477768Y-81452792D01*
X186414021Y-81421538D01*
X186393324Y-81397054D01*
X186312822Y-81272617D01*
X186312820Y-81272614D01*
X186310014Y-81268277D01*
X186159670Y-81103051D01*
X186155619Y-81099852D01*
X186155615Y-81099848D01*
X185988414Y-80967800D01*
X185988410Y-80967798D01*
X185984359Y-80964598D01*
X185953189Y-80947391D01*
X185882737Y-80908500D01*
X185788789Y-80856638D01*
X185783920Y-80854914D01*
X185783916Y-80854912D01*
X185583087Y-80783795D01*
X185583083Y-80783794D01*
X185578212Y-80782069D01*
X185573119Y-80781162D01*
X185573116Y-80781161D01*
X185363373Y-80743800D01*
X185363367Y-80743799D01*
X185358284Y-80742894D01*
X185284452Y-80741992D01*
X185140081Y-80740228D01*
X185140079Y-80740228D01*
X185134911Y-80740165D01*
X184914091Y-80773955D01*
X184701756Y-80843357D01*
X184647586Y-80871556D01*
X184539622Y-80927759D01*
X184503607Y-80946507D01*
X184499474Y-80949610D01*
X184499471Y-80949612D01*
X184329100Y-81077530D01*
X184324965Y-81080635D01*
X184299894Y-81106870D01*
X184213729Y-81197037D01*
X184170629Y-81242138D01*
X184063201Y-81399621D01*
X184008293Y-81444621D01*
X183937768Y-81452792D01*
X183874021Y-81421538D01*
X183853324Y-81397054D01*
X183772822Y-81272617D01*
X183772820Y-81272614D01*
X183770014Y-81268277D01*
X183619670Y-81103051D01*
X183615619Y-81099852D01*
X183615615Y-81099848D01*
X183448414Y-80967800D01*
X183448410Y-80967798D01*
X183444359Y-80964598D01*
X183413189Y-80947391D01*
X183342737Y-80908500D01*
X183248789Y-80856638D01*
X183243920Y-80854914D01*
X183243916Y-80854912D01*
X183043087Y-80783795D01*
X183043083Y-80783794D01*
X183038212Y-80782069D01*
X183033119Y-80781162D01*
X183033116Y-80781161D01*
X182823373Y-80743800D01*
X182823367Y-80743799D01*
X182818284Y-80742894D01*
X182744452Y-80741992D01*
X182600081Y-80740228D01*
X182600079Y-80740228D01*
X182594911Y-80740165D01*
X182374091Y-80773955D01*
X182161756Y-80843357D01*
X182107586Y-80871556D01*
X181999622Y-80927759D01*
X181963607Y-80946507D01*
X181959474Y-80949610D01*
X181959471Y-80949612D01*
X181789100Y-81077530D01*
X181784965Y-81080635D01*
X181718612Y-81150070D01*
X181704283Y-81165064D01*
X181642759Y-81200494D01*
X181571846Y-81197037D01*
X181514060Y-81155791D01*
X181495207Y-81122243D01*
X181453767Y-81011703D01*
X181450615Y-81003295D01*
X181363261Y-80886739D01*
X181246705Y-80799385D01*
X181110316Y-80748255D01*
X181048134Y-80741500D01*
X179251866Y-80741500D01*
X179189684Y-80748255D01*
X179053295Y-80799385D01*
X178936739Y-80886739D01*
X178849385Y-81003295D01*
X178798255Y-81139684D01*
X178791500Y-81201866D01*
X178791500Y-82998134D01*
X175636978Y-82998134D01*
X175632340Y-79000000D01*
X186086496Y-79000000D01*
X186087186Y-79006565D01*
X186096053Y-79090926D01*
X186106458Y-79189928D01*
X186165473Y-79371556D01*
X186260960Y-79536944D01*
X186265378Y-79541851D01*
X186265379Y-79541852D01*
X186305980Y-79586944D01*
X186388747Y-79678866D01*
X186469485Y-79737526D01*
X186529742Y-79781305D01*
X186543248Y-79791118D01*
X186549276Y-79793802D01*
X186549278Y-79793803D01*
X186694398Y-79858414D01*
X186717712Y-79868794D01*
X186793955Y-79885000D01*
X186898056Y-79907128D01*
X186898061Y-79907128D01*
X186904513Y-79908500D01*
X187095487Y-79908500D01*
X187101939Y-79907128D01*
X187101944Y-79907128D01*
X187206045Y-79885000D01*
X187282288Y-79868794D01*
X187305602Y-79858414D01*
X187450722Y-79793803D01*
X187450724Y-79793802D01*
X187456752Y-79791118D01*
X187470259Y-79781305D01*
X187530515Y-79737526D01*
X187611253Y-79678866D01*
X187694020Y-79586944D01*
X187734621Y-79541852D01*
X187734622Y-79541851D01*
X187739040Y-79536944D01*
X187834527Y-79371556D01*
X187893542Y-79189928D01*
X187903948Y-79090926D01*
X187912814Y-79006565D01*
X187913504Y-79000000D01*
X187898743Y-78859557D01*
X187894232Y-78816635D01*
X187894232Y-78816633D01*
X187893542Y-78810072D01*
X187834527Y-78628444D01*
X187836220Y-78627894D01*
X187827952Y-78566178D01*
X187858853Y-78501000D01*
X187939040Y-78411944D01*
X188014527Y-78281197D01*
X188031223Y-78252279D01*
X188031224Y-78252278D01*
X188034527Y-78246556D01*
X188093542Y-78064928D01*
X188094515Y-78055676D01*
X188112814Y-77881565D01*
X188113504Y-77875000D01*
X188095146Y-77700330D01*
X188094232Y-77691635D01*
X188094232Y-77691633D01*
X188093542Y-77685072D01*
X188050276Y-77551914D01*
X188048248Y-77480947D01*
X188076472Y-77428668D01*
X188109619Y-77391854D01*
X188114039Y-77386945D01*
X188142435Y-77337763D01*
X188206222Y-77227280D01*
X188206223Y-77227279D01*
X188209526Y-77221557D01*
X188216530Y-77200000D01*
X204486496Y-77200000D01*
X204487186Y-77206565D01*
X204502288Y-77350248D01*
X204506458Y-77389928D01*
X204565473Y-77571556D01*
X204568776Y-77577278D01*
X204568777Y-77577279D01*
X204602686Y-77636010D01*
X204660960Y-77736944D01*
X204665378Y-77741851D01*
X204665379Y-77741852D01*
X204703231Y-77783891D01*
X204788747Y-77878866D01*
X204943248Y-77991118D01*
X204949276Y-77993802D01*
X204949278Y-77993803D01*
X205111681Y-78066109D01*
X205117712Y-78068794D01*
X205211112Y-78088647D01*
X205298056Y-78107128D01*
X205298061Y-78107128D01*
X205304513Y-78108500D01*
X205495487Y-78108500D01*
X205501939Y-78107128D01*
X205501944Y-78107128D01*
X205588888Y-78088647D01*
X205682288Y-78068794D01*
X205688319Y-78066109D01*
X205850722Y-77993803D01*
X205850724Y-77993802D01*
X205856752Y-77991118D01*
X206011253Y-77878866D01*
X206096769Y-77783891D01*
X206134621Y-77741852D01*
X206134622Y-77741851D01*
X206139040Y-77736944D01*
X206197314Y-77636010D01*
X206231223Y-77577279D01*
X206231224Y-77577278D01*
X206234527Y-77571556D01*
X206293542Y-77389928D01*
X206297713Y-77350248D01*
X206312814Y-77206565D01*
X206313504Y-77200000D01*
X206295990Y-77033366D01*
X206294232Y-77016635D01*
X206294232Y-77016633D01*
X206293542Y-77010072D01*
X206234527Y-76828444D01*
X206139040Y-76663056D01*
X206130702Y-76653795D01*
X206015675Y-76526045D01*
X206015674Y-76526044D01*
X206011253Y-76521134D01*
X205856752Y-76408882D01*
X205850724Y-76406198D01*
X205850722Y-76406197D01*
X205688319Y-76333891D01*
X205688318Y-76333891D01*
X205682288Y-76331206D01*
X205588887Y-76311353D01*
X205501944Y-76292872D01*
X205501939Y-76292872D01*
X205495487Y-76291500D01*
X205304513Y-76291500D01*
X205298061Y-76292872D01*
X205298056Y-76292872D01*
X205211113Y-76311353D01*
X205117712Y-76331206D01*
X205111682Y-76333891D01*
X205111681Y-76333891D01*
X204949278Y-76406197D01*
X204949276Y-76406198D01*
X204943248Y-76408882D01*
X204788747Y-76521134D01*
X204784326Y-76526044D01*
X204784325Y-76526045D01*
X204669299Y-76653795D01*
X204660960Y-76663056D01*
X204565473Y-76828444D01*
X204506458Y-77010072D01*
X204505768Y-77016633D01*
X204505768Y-77016635D01*
X204504010Y-77033366D01*
X204486496Y-77200000D01*
X188216530Y-77200000D01*
X188268541Y-77039929D01*
X188269302Y-77032695D01*
X188287813Y-76856566D01*
X188288503Y-76850001D01*
X188285636Y-76822721D01*
X188269231Y-76666636D01*
X188269231Y-76666634D01*
X188268541Y-76660073D01*
X188209526Y-76478445D01*
X188114039Y-76313057D01*
X188100029Y-76297497D01*
X187990670Y-76176041D01*
X187990667Y-76176038D01*
X187986252Y-76171135D01*
X187980908Y-76167252D01*
X187977832Y-76164482D01*
X187940593Y-76104036D01*
X187941945Y-76033052D01*
X187981459Y-75974068D01*
X188046590Y-75945811D01*
X188113391Y-75955740D01*
X188136677Y-75966108D01*
X188136685Y-75966111D01*
X188142712Y-75968794D01*
X188213747Y-75983893D01*
X188323056Y-76007128D01*
X188323061Y-76007128D01*
X188329513Y-76008500D01*
X188520487Y-76008500D01*
X188526939Y-76007128D01*
X188526944Y-76007128D01*
X188636253Y-75983893D01*
X188707288Y-75968794D01*
X188765508Y-75942873D01*
X188875722Y-75893803D01*
X188875724Y-75893802D01*
X188881752Y-75891118D01*
X188898616Y-75878866D01*
X188937157Y-75850864D01*
X189036253Y-75778866D01*
X189125049Y-75680248D01*
X189159621Y-75641852D01*
X189159622Y-75641851D01*
X189164040Y-75636944D01*
X189250995Y-75486334D01*
X189256223Y-75477279D01*
X189256224Y-75477278D01*
X189259527Y-75471556D01*
X189318542Y-75289928D01*
X189325109Y-75227452D01*
X189327994Y-75200000D01*
X194086496Y-75200000D01*
X194087186Y-75206565D01*
X194104347Y-75369839D01*
X194106458Y-75389928D01*
X194165473Y-75571556D01*
X194260960Y-75736944D01*
X194265378Y-75741851D01*
X194265379Y-75741852D01*
X194358093Y-75844821D01*
X194388747Y-75878866D01*
X194474956Y-75941501D01*
X194535816Y-75985718D01*
X194543248Y-75991118D01*
X194549276Y-75993802D01*
X194549278Y-75993803D01*
X194695451Y-76058883D01*
X194717712Y-76068794D01*
X194811112Y-76088647D01*
X194898056Y-76107128D01*
X194898061Y-76107128D01*
X194904513Y-76108500D01*
X195095487Y-76108500D01*
X195101939Y-76107128D01*
X195101944Y-76107128D01*
X195188888Y-76088647D01*
X195282288Y-76068794D01*
X195304549Y-76058883D01*
X195450722Y-75993803D01*
X195450724Y-75993802D01*
X195456752Y-75991118D01*
X195464185Y-75985718D01*
X195525044Y-75941501D01*
X195611253Y-75878866D01*
X195641907Y-75844821D01*
X195734621Y-75741852D01*
X195734622Y-75741851D01*
X195739040Y-75736944D01*
X195834527Y-75571556D01*
X195893542Y-75389928D01*
X195895654Y-75369839D01*
X195912814Y-75206565D01*
X195913504Y-75200000D01*
X195908890Y-75156104D01*
X195894232Y-75016635D01*
X195894232Y-75016633D01*
X195893542Y-75010072D01*
X195834527Y-74828444D01*
X195739040Y-74663056D01*
X195711193Y-74632128D01*
X195627649Y-74539343D01*
X197486775Y-74539343D01*
X197503381Y-74708699D01*
X197505605Y-74715384D01*
X197505605Y-74715385D01*
X197508045Y-74722721D01*
X197557094Y-74870167D01*
X197560741Y-74876189D01*
X197560742Y-74876191D01*
X197638022Y-75003794D01*
X197645246Y-75015723D01*
X197763455Y-75138132D01*
X197769351Y-75141990D01*
X197868032Y-75206565D01*
X197905846Y-75231310D01*
X197912450Y-75233766D01*
X197912452Y-75233767D01*
X197948844Y-75247301D01*
X198065341Y-75290626D01*
X198234015Y-75313132D01*
X198241026Y-75312494D01*
X198241030Y-75312494D01*
X198396462Y-75298348D01*
X198403483Y-75297709D01*
X198410185Y-75295531D01*
X198410187Y-75295531D01*
X198558623Y-75247301D01*
X198558626Y-75247300D01*
X198565322Y-75245124D01*
X198711490Y-75157990D01*
X198716584Y-75153139D01*
X198716588Y-75153136D01*
X198783833Y-75089099D01*
X198834721Y-75040639D01*
X198928891Y-74898902D01*
X198989319Y-74739825D01*
X199013001Y-74571313D01*
X199013299Y-74550000D01*
X199012104Y-74539343D01*
X199386775Y-74539343D01*
X199403381Y-74708699D01*
X199405605Y-74715384D01*
X199405605Y-74715385D01*
X199408045Y-74722721D01*
X199457094Y-74870167D01*
X199460741Y-74876189D01*
X199460742Y-74876191D01*
X199538022Y-75003794D01*
X199545246Y-75015723D01*
X199663455Y-75138132D01*
X199669351Y-75141990D01*
X199768032Y-75206565D01*
X199805846Y-75231310D01*
X199812450Y-75233766D01*
X199812452Y-75233767D01*
X199848844Y-75247301D01*
X199965341Y-75290626D01*
X200134015Y-75313132D01*
X200141026Y-75312494D01*
X200141030Y-75312494D01*
X200296462Y-75298348D01*
X200303483Y-75297709D01*
X200310185Y-75295531D01*
X200310187Y-75295531D01*
X200458623Y-75247301D01*
X200458626Y-75247300D01*
X200465322Y-75245124D01*
X200541018Y-75200000D01*
X206236496Y-75200000D01*
X206237186Y-75206565D01*
X206254347Y-75369839D01*
X206256458Y-75389928D01*
X206315473Y-75571556D01*
X206410960Y-75736944D01*
X206415378Y-75741851D01*
X206415379Y-75741852D01*
X206508093Y-75844821D01*
X206538747Y-75878866D01*
X206624956Y-75941501D01*
X206685816Y-75985718D01*
X206693248Y-75991118D01*
X206699276Y-75993802D01*
X206699278Y-75993803D01*
X206845451Y-76058883D01*
X206867712Y-76068794D01*
X206961112Y-76088647D01*
X207048056Y-76107128D01*
X207048061Y-76107128D01*
X207054513Y-76108500D01*
X207245487Y-76108500D01*
X207251939Y-76107128D01*
X207251944Y-76107128D01*
X207338888Y-76088647D01*
X207432288Y-76068794D01*
X207454549Y-76058883D01*
X207600722Y-75993803D01*
X207600724Y-75993802D01*
X207606752Y-75991118D01*
X207614185Y-75985718D01*
X207675044Y-75941501D01*
X207761253Y-75878866D01*
X207791907Y-75844821D01*
X207884621Y-75741852D01*
X207884622Y-75741851D01*
X207889040Y-75736944D01*
X207984527Y-75571556D01*
X208043542Y-75389928D01*
X208045654Y-75369839D01*
X208062814Y-75206565D01*
X208063504Y-75200000D01*
X208058890Y-75156104D01*
X208044232Y-75016635D01*
X208044232Y-75016633D01*
X208043542Y-75010072D01*
X207984527Y-74828444D01*
X207889040Y-74663056D01*
X207861193Y-74632128D01*
X207765675Y-74526045D01*
X207765674Y-74526044D01*
X207761253Y-74521134D01*
X207630375Y-74426045D01*
X207612094Y-74412763D01*
X207612093Y-74412762D01*
X207606752Y-74408882D01*
X207600724Y-74406198D01*
X207600722Y-74406197D01*
X207438319Y-74333891D01*
X207438318Y-74333891D01*
X207432288Y-74331206D01*
X207338887Y-74311353D01*
X207251944Y-74292872D01*
X207251939Y-74292872D01*
X207245487Y-74291500D01*
X207054513Y-74291500D01*
X207048061Y-74292872D01*
X207048056Y-74292872D01*
X206961113Y-74311353D01*
X206867712Y-74331206D01*
X206861682Y-74333891D01*
X206861681Y-74333891D01*
X206699278Y-74406197D01*
X206699276Y-74406198D01*
X206693248Y-74408882D01*
X206687907Y-74412762D01*
X206687906Y-74412763D01*
X206669625Y-74426045D01*
X206538747Y-74521134D01*
X206534326Y-74526044D01*
X206534325Y-74526045D01*
X206438808Y-74632128D01*
X206410960Y-74663056D01*
X206315473Y-74828444D01*
X206256458Y-75010072D01*
X206255768Y-75016633D01*
X206255768Y-75016635D01*
X206241110Y-75156104D01*
X206236496Y-75200000D01*
X200541018Y-75200000D01*
X200611490Y-75157990D01*
X200616584Y-75153139D01*
X200616588Y-75153136D01*
X200683833Y-75089099D01*
X200734721Y-75040639D01*
X200828891Y-74898902D01*
X200889319Y-74739825D01*
X200913001Y-74571313D01*
X200913299Y-74550000D01*
X200894331Y-74380892D01*
X200885916Y-74356726D01*
X200850917Y-74256226D01*
X200838368Y-74220189D01*
X200832383Y-74210610D01*
X200771360Y-74112955D01*
X200748192Y-74075879D01*
X200635686Y-73962584D01*
X200601879Y-73900153D01*
X200607191Y-73829355D01*
X200638200Y-73782554D01*
X200734721Y-73690639D01*
X200771308Y-73635572D01*
X200824990Y-73554773D01*
X200828891Y-73548902D01*
X200889319Y-73389825D01*
X200913001Y-73221313D01*
X200913299Y-73200000D01*
X200894331Y-73030892D01*
X200838368Y-72870189D01*
X200832383Y-72860610D01*
X200766344Y-72754928D01*
X200748192Y-72725879D01*
X200635686Y-72612584D01*
X200601879Y-72550153D01*
X200607191Y-72479355D01*
X200638200Y-72432554D01*
X200734721Y-72340639D01*
X200828891Y-72198902D01*
X200889319Y-72039825D01*
X200890527Y-72031233D01*
X200897886Y-71978866D01*
X200913001Y-71871313D01*
X200913299Y-71850000D01*
X200894331Y-71680892D01*
X200838368Y-71520189D01*
X200832383Y-71510610D01*
X200784966Y-71434729D01*
X200748192Y-71375879D01*
X200628286Y-71255132D01*
X200612039Y-71244821D01*
X200541790Y-71200240D01*
X200484608Y-71163951D01*
X200324300Y-71106868D01*
X200155329Y-71086720D01*
X200148326Y-71087456D01*
X200148325Y-71087456D01*
X199993101Y-71103770D01*
X199993097Y-71103771D01*
X199986093Y-71104507D01*
X199979422Y-71106778D01*
X199831673Y-71157075D01*
X199831670Y-71157076D01*
X199825003Y-71159346D01*
X199819005Y-71163036D01*
X199819003Y-71163037D01*
X199686065Y-71244821D01*
X199686063Y-71244823D01*
X199680066Y-71248512D01*
X199654665Y-71273387D01*
X199565511Y-71360694D01*
X199558486Y-71367573D01*
X199466304Y-71510610D01*
X199460395Y-71526846D01*
X199420485Y-71636498D01*
X199408103Y-71670516D01*
X199386775Y-71839343D01*
X199403381Y-72008699D01*
X199405605Y-72015384D01*
X199405605Y-72015385D01*
X199413717Y-72039771D01*
X199457094Y-72170167D01*
X199460741Y-72176189D01*
X199460742Y-72176191D01*
X199479855Y-72207749D01*
X199545246Y-72315723D01*
X199657657Y-72432128D01*
X199663455Y-72438132D01*
X199661338Y-72440176D01*
X199693710Y-72488088D01*
X199695343Y-72559065D01*
X199661820Y-72616380D01*
X199558486Y-72717573D01*
X199554675Y-72723487D01*
X199554673Y-72723489D01*
X199534412Y-72754928D01*
X199466304Y-72860610D01*
X199408103Y-73020516D01*
X199386775Y-73189343D01*
X199403381Y-73358699D01*
X199457094Y-73520167D01*
X199460741Y-73526189D01*
X199460742Y-73526191D01*
X199530961Y-73642135D01*
X199545246Y-73665723D01*
X199647448Y-73771556D01*
X199663455Y-73788132D01*
X199661338Y-73790176D01*
X199693710Y-73838088D01*
X199695343Y-73909065D01*
X199661820Y-73966380D01*
X199558486Y-74067573D01*
X199554675Y-74073487D01*
X199554673Y-74073489D01*
X199536119Y-74102279D01*
X199466304Y-74210610D01*
X199408103Y-74370516D01*
X199386775Y-74539343D01*
X199012104Y-74539343D01*
X198994331Y-74380892D01*
X198985916Y-74356726D01*
X198950917Y-74256226D01*
X198938368Y-74220189D01*
X198932383Y-74210610D01*
X198871360Y-74112955D01*
X198848192Y-74075879D01*
X198735686Y-73962584D01*
X198701879Y-73900153D01*
X198707191Y-73829355D01*
X198738200Y-73782554D01*
X198834721Y-73690639D01*
X198871308Y-73635572D01*
X198924990Y-73554773D01*
X198928891Y-73548902D01*
X198989319Y-73389825D01*
X199013001Y-73221313D01*
X199013299Y-73200000D01*
X198994331Y-73030892D01*
X198938368Y-72870189D01*
X198932383Y-72860610D01*
X198866344Y-72754928D01*
X198848192Y-72725879D01*
X198735686Y-72612584D01*
X198701879Y-72550153D01*
X198707191Y-72479355D01*
X198738200Y-72432554D01*
X198834721Y-72340639D01*
X198928891Y-72198902D01*
X198989319Y-72039825D01*
X198990527Y-72031233D01*
X198997886Y-71978866D01*
X199013001Y-71871313D01*
X199013299Y-71850000D01*
X198994331Y-71680892D01*
X198938368Y-71520189D01*
X198932383Y-71510610D01*
X198884966Y-71434729D01*
X198848192Y-71375879D01*
X198728286Y-71255132D01*
X198712039Y-71244821D01*
X198641790Y-71200240D01*
X198584608Y-71163951D01*
X198424300Y-71106868D01*
X198255329Y-71086720D01*
X198248326Y-71087456D01*
X198248325Y-71087456D01*
X198093101Y-71103770D01*
X198093097Y-71103771D01*
X198086093Y-71104507D01*
X198079422Y-71106778D01*
X197931673Y-71157075D01*
X197931670Y-71157076D01*
X197925003Y-71159346D01*
X197919005Y-71163036D01*
X197919003Y-71163037D01*
X197786065Y-71244821D01*
X197786063Y-71244823D01*
X197780066Y-71248512D01*
X197754665Y-71273387D01*
X197665511Y-71360694D01*
X197658486Y-71367573D01*
X197566304Y-71510610D01*
X197560395Y-71526846D01*
X197520485Y-71636498D01*
X197508103Y-71670516D01*
X197486775Y-71839343D01*
X197503381Y-72008699D01*
X197505605Y-72015384D01*
X197505605Y-72015385D01*
X197513717Y-72039771D01*
X197557094Y-72170167D01*
X197560741Y-72176189D01*
X197560742Y-72176191D01*
X197579855Y-72207749D01*
X197645246Y-72315723D01*
X197757657Y-72432128D01*
X197763455Y-72438132D01*
X197761338Y-72440176D01*
X197793710Y-72488088D01*
X197795343Y-72559065D01*
X197761820Y-72616380D01*
X197658486Y-72717573D01*
X197654675Y-72723487D01*
X197654673Y-72723489D01*
X197634412Y-72754928D01*
X197566304Y-72860610D01*
X197508103Y-73020516D01*
X197486775Y-73189343D01*
X197503381Y-73358699D01*
X197557094Y-73520167D01*
X197560741Y-73526189D01*
X197560742Y-73526191D01*
X197630961Y-73642135D01*
X197645246Y-73665723D01*
X197747448Y-73771556D01*
X197763455Y-73788132D01*
X197761338Y-73790176D01*
X197793710Y-73838088D01*
X197795343Y-73909065D01*
X197761820Y-73966380D01*
X197658486Y-74067573D01*
X197654675Y-74073487D01*
X197654673Y-74073489D01*
X197636119Y-74102279D01*
X197566304Y-74210610D01*
X197508103Y-74370516D01*
X197486775Y-74539343D01*
X195627649Y-74539343D01*
X195615675Y-74526045D01*
X195615674Y-74526044D01*
X195611253Y-74521134D01*
X195480375Y-74426045D01*
X195462094Y-74412763D01*
X195462093Y-74412762D01*
X195456752Y-74408882D01*
X195450724Y-74406198D01*
X195450722Y-74406197D01*
X195288319Y-74333891D01*
X195288318Y-74333891D01*
X195282288Y-74331206D01*
X195188887Y-74311353D01*
X195101944Y-74292872D01*
X195101939Y-74292872D01*
X195095487Y-74291500D01*
X194904513Y-74291500D01*
X194898061Y-74292872D01*
X194898056Y-74292872D01*
X194811113Y-74311353D01*
X194717712Y-74331206D01*
X194711682Y-74333891D01*
X194711681Y-74333891D01*
X194549278Y-74406197D01*
X194549276Y-74406198D01*
X194543248Y-74408882D01*
X194537907Y-74412762D01*
X194537906Y-74412763D01*
X194519625Y-74426045D01*
X194388747Y-74521134D01*
X194384326Y-74526044D01*
X194384325Y-74526045D01*
X194288808Y-74632128D01*
X194260960Y-74663056D01*
X194165473Y-74828444D01*
X194106458Y-75010072D01*
X194105768Y-75016633D01*
X194105768Y-75016635D01*
X194091110Y-75156104D01*
X194086496Y-75200000D01*
X189327994Y-75200000D01*
X189337814Y-75106565D01*
X189338504Y-75100000D01*
X189330214Y-75021128D01*
X189319232Y-74916635D01*
X189319232Y-74916633D01*
X189318542Y-74910072D01*
X189259527Y-74728444D01*
X189251988Y-74715385D01*
X189221775Y-74663056D01*
X189164040Y-74563056D01*
X189152285Y-74550000D01*
X189040675Y-74426045D01*
X189040674Y-74426044D01*
X189036253Y-74421134D01*
X188881752Y-74308882D01*
X188875724Y-74306198D01*
X188875722Y-74306197D01*
X188713319Y-74233891D01*
X188713318Y-74233891D01*
X188707288Y-74231206D01*
X188627343Y-74214213D01*
X188602033Y-74208833D01*
X188539559Y-74175104D01*
X188505238Y-74112955D01*
X188508398Y-74046647D01*
X188516500Y-74021713D01*
X188516500Y-74021712D01*
X188518542Y-74015428D01*
X188524880Y-73955132D01*
X188537814Y-73832065D01*
X188538504Y-73825500D01*
X188527251Y-73718435D01*
X188519232Y-73642135D01*
X188519232Y-73642133D01*
X188518542Y-73635572D01*
X188459527Y-73453944D01*
X188364040Y-73288556D01*
X188287871Y-73203961D01*
X188240675Y-73151545D01*
X188240674Y-73151544D01*
X188236253Y-73146634D01*
X188081752Y-73034382D01*
X188075724Y-73031698D01*
X188075722Y-73031697D01*
X187913319Y-72959391D01*
X187913318Y-72959391D01*
X187907288Y-72956706D01*
X187799910Y-72933882D01*
X187726944Y-72918372D01*
X187726939Y-72918372D01*
X187720487Y-72917000D01*
X187529513Y-72917000D01*
X187523061Y-72918372D01*
X187523056Y-72918372D01*
X187450090Y-72933882D01*
X187342712Y-72956706D01*
X187336682Y-72959391D01*
X187336681Y-72959391D01*
X187174278Y-73031697D01*
X187174276Y-73031698D01*
X187168248Y-73034382D01*
X187013747Y-73146634D01*
X187009326Y-73151544D01*
X187009325Y-73151545D01*
X186962130Y-73203961D01*
X186885960Y-73288556D01*
X186790473Y-73453944D01*
X186731458Y-73635572D01*
X186730768Y-73642133D01*
X186730768Y-73642135D01*
X186722749Y-73718435D01*
X186711496Y-73825500D01*
X186731458Y-74015428D01*
X186790473Y-74197056D01*
X186793776Y-74202778D01*
X186793777Y-74202779D01*
X186811740Y-74233891D01*
X186885960Y-74362444D01*
X186890378Y-74367351D01*
X186890379Y-74367352D01*
X186949311Y-74432803D01*
X187013747Y-74504366D01*
X187087771Y-74558148D01*
X187136834Y-74593794D01*
X187168248Y-74616618D01*
X187174276Y-74619302D01*
X187174278Y-74619303D01*
X187336681Y-74691609D01*
X187342712Y-74694294D01*
X187410482Y-74708699D01*
X187447967Y-74716667D01*
X187510441Y-74750396D01*
X187544762Y-74812545D01*
X187541602Y-74878852D01*
X187531458Y-74910072D01*
X187530768Y-74916635D01*
X187530767Y-74916642D01*
X187512186Y-75093435D01*
X187511496Y-75100000D01*
X187512186Y-75106565D01*
X187524892Y-75227452D01*
X187531458Y-75289928D01*
X187590473Y-75471556D01*
X187593776Y-75477278D01*
X187593777Y-75477279D01*
X187599005Y-75486334D01*
X187685960Y-75636944D01*
X187690378Y-75641851D01*
X187690379Y-75641852D01*
X187809329Y-75773960D01*
X187809332Y-75773963D01*
X187813747Y-75778866D01*
X187819086Y-75782745D01*
X187822167Y-75785519D01*
X187859406Y-75845965D01*
X187858054Y-75916949D01*
X187818540Y-75975933D01*
X187753409Y-76004190D01*
X187686608Y-75994261D01*
X187663322Y-75983893D01*
X187663314Y-75983890D01*
X187657287Y-75981207D01*
X187563886Y-75961354D01*
X187476943Y-75942873D01*
X187476938Y-75942873D01*
X187470486Y-75941501D01*
X187279512Y-75941501D01*
X187273060Y-75942873D01*
X187273055Y-75942873D01*
X187186112Y-75961354D01*
X187092711Y-75981207D01*
X187086681Y-75983892D01*
X187086680Y-75983892D01*
X186924277Y-76056198D01*
X186924275Y-76056199D01*
X186918247Y-76058883D01*
X186912906Y-76062763D01*
X186912905Y-76062764D01*
X186902849Y-76070070D01*
X186763746Y-76171135D01*
X186759325Y-76176045D01*
X186759324Y-76176046D01*
X186654134Y-76292872D01*
X186635959Y-76313057D01*
X186540472Y-76478445D01*
X186481457Y-76660073D01*
X186480767Y-76666634D01*
X186480767Y-76666636D01*
X186464362Y-76822721D01*
X186461495Y-76850001D01*
X186462185Y-76856566D01*
X186480697Y-77032695D01*
X186481457Y-77039929D01*
X186483497Y-77046207D01*
X186524723Y-77173087D01*
X186526751Y-77244054D01*
X186498527Y-77296333D01*
X186460960Y-77338056D01*
X186457658Y-77343775D01*
X186457656Y-77343778D01*
X186375390Y-77486267D01*
X186365473Y-77503444D01*
X186306458Y-77685072D01*
X186305768Y-77691633D01*
X186305768Y-77691635D01*
X186304854Y-77700330D01*
X186286496Y-77875000D01*
X186287186Y-77881565D01*
X186305486Y-78055676D01*
X186306458Y-78064928D01*
X186328110Y-78131565D01*
X186365473Y-78246556D01*
X186363780Y-78247106D01*
X186372048Y-78308822D01*
X186341147Y-78374000D01*
X186260960Y-78463056D01*
X186214357Y-78543774D01*
X186170389Y-78619930D01*
X186165473Y-78628444D01*
X186106458Y-78810072D01*
X186105768Y-78816633D01*
X186105768Y-78816635D01*
X186101257Y-78859557D01*
X186086496Y-79000000D01*
X175632340Y-79000000D01*
X175629266Y-76350000D01*
X176211496Y-76350000D01*
X176212186Y-76356565D01*
X176229483Y-76521134D01*
X176231458Y-76539928D01*
X176290473Y-76721556D01*
X176385960Y-76886944D01*
X176390378Y-76891851D01*
X176390379Y-76891852D01*
X176448437Y-76956332D01*
X176513747Y-77028866D01*
X176668248Y-77141118D01*
X176674276Y-77143802D01*
X176674278Y-77143803D01*
X176815245Y-77206565D01*
X176842712Y-77218794D01*
X176936112Y-77238647D01*
X177023056Y-77257128D01*
X177023061Y-77257128D01*
X177029513Y-77258500D01*
X177220487Y-77258500D01*
X177226939Y-77257128D01*
X177226944Y-77257128D01*
X177313888Y-77238647D01*
X177407288Y-77218794D01*
X177434755Y-77206565D01*
X177575722Y-77143803D01*
X177575724Y-77143802D01*
X177581752Y-77141118D01*
X177736253Y-77028866D01*
X177801563Y-76956332D01*
X177859621Y-76891852D01*
X177859622Y-76891851D01*
X177864040Y-76886944D01*
X177959527Y-76721556D01*
X178018542Y-76539928D01*
X178020518Y-76521134D01*
X178037814Y-76356565D01*
X178038504Y-76350000D01*
X178036529Y-76331206D01*
X178019232Y-76166635D01*
X178019232Y-76166633D01*
X178018800Y-76162529D01*
X180898496Y-76162529D01*
X180899186Y-76169094D01*
X180916507Y-76333891D01*
X180918458Y-76352457D01*
X180977473Y-76534085D01*
X181072960Y-76699473D01*
X181077378Y-76704380D01*
X181077379Y-76704381D01*
X181145612Y-76780161D01*
X181200747Y-76841395D01*
X181355248Y-76953647D01*
X181361276Y-76956331D01*
X181361278Y-76956332D01*
X181481981Y-77010072D01*
X181529712Y-77031323D01*
X181623113Y-77051176D01*
X181710056Y-77069657D01*
X181710061Y-77069657D01*
X181716513Y-77071029D01*
X181907487Y-77071029D01*
X181913939Y-77069657D01*
X181913944Y-77069657D01*
X182000887Y-77051176D01*
X182094288Y-77031323D01*
X182142019Y-77010072D01*
X182262722Y-76956332D01*
X182262724Y-76956331D01*
X182268752Y-76953647D01*
X182423253Y-76841395D01*
X182478388Y-76780161D01*
X182546621Y-76704381D01*
X182546622Y-76704380D01*
X182551040Y-76699473D01*
X182646527Y-76534085D01*
X182705542Y-76352457D01*
X182707494Y-76333891D01*
X182724814Y-76169094D01*
X182725504Y-76162529D01*
X182716823Y-76079930D01*
X182706232Y-75979164D01*
X182706232Y-75979162D01*
X182705542Y-75972601D01*
X182646527Y-75790973D01*
X182551040Y-75625585D01*
X182490981Y-75558882D01*
X182427675Y-75488574D01*
X182427674Y-75488573D01*
X182423253Y-75483663D01*
X182302879Y-75396206D01*
X182274094Y-75375292D01*
X182274093Y-75375291D01*
X182268752Y-75371411D01*
X182262724Y-75368727D01*
X182262722Y-75368726D01*
X182115028Y-75302969D01*
X183739399Y-75302969D01*
X183740089Y-75309534D01*
X183757720Y-75477279D01*
X183759361Y-75492897D01*
X183818376Y-75674525D01*
X183913863Y-75839913D01*
X183918281Y-75844820D01*
X183918282Y-75844821D01*
X184036336Y-75975933D01*
X184041650Y-75981835D01*
X184058753Y-75994261D01*
X184176666Y-76079930D01*
X184196151Y-76094087D01*
X184202179Y-76096771D01*
X184202181Y-76096772D01*
X184359097Y-76166635D01*
X184370615Y-76171763D01*
X184464016Y-76191616D01*
X184550959Y-76210097D01*
X184550964Y-76210097D01*
X184557416Y-76211469D01*
X184748390Y-76211469D01*
X184754842Y-76210097D01*
X184754847Y-76210097D01*
X184841790Y-76191616D01*
X184935191Y-76171763D01*
X184946709Y-76166635D01*
X185103625Y-76096772D01*
X185103627Y-76096771D01*
X185109655Y-76094087D01*
X185129141Y-76079930D01*
X185247053Y-75994261D01*
X185264156Y-75981835D01*
X185269470Y-75975933D01*
X185387524Y-75844821D01*
X185387525Y-75844820D01*
X185391943Y-75839913D01*
X185487430Y-75674525D01*
X185546445Y-75492897D01*
X185548087Y-75477279D01*
X185565717Y-75309534D01*
X185566407Y-75302969D01*
X185564347Y-75283365D01*
X185547135Y-75119604D01*
X185547135Y-75119602D01*
X185546445Y-75113041D01*
X185487430Y-74931413D01*
X185455548Y-74876191D01*
X185425008Y-74823295D01*
X185391943Y-74766025D01*
X185371662Y-74743500D01*
X185268578Y-74629014D01*
X185268577Y-74629013D01*
X185264156Y-74624103D01*
X185162162Y-74550000D01*
X185114997Y-74515732D01*
X185114996Y-74515731D01*
X185109655Y-74511851D01*
X185103627Y-74509167D01*
X185103625Y-74509166D01*
X184941222Y-74436860D01*
X184941221Y-74436860D01*
X184935191Y-74434175D01*
X184834456Y-74412763D01*
X184754847Y-74395841D01*
X184754842Y-74395841D01*
X184748390Y-74394469D01*
X184557416Y-74394469D01*
X184550964Y-74395841D01*
X184550959Y-74395841D01*
X184471350Y-74412763D01*
X184370615Y-74434175D01*
X184364585Y-74436860D01*
X184364584Y-74436860D01*
X184202181Y-74509166D01*
X184202179Y-74509167D01*
X184196151Y-74511851D01*
X184190810Y-74515731D01*
X184190809Y-74515732D01*
X184143644Y-74550000D01*
X184041650Y-74624103D01*
X184037229Y-74629013D01*
X184037228Y-74629014D01*
X183934145Y-74743500D01*
X183913863Y-74766025D01*
X183880798Y-74823295D01*
X183850259Y-74876191D01*
X183818376Y-74931413D01*
X183759361Y-75113041D01*
X183758671Y-75119602D01*
X183758671Y-75119604D01*
X183741459Y-75283365D01*
X183739399Y-75302969D01*
X182115028Y-75302969D01*
X182100319Y-75296420D01*
X182100318Y-75296420D01*
X182094288Y-75293735D01*
X182000887Y-75273882D01*
X181913944Y-75255401D01*
X181913939Y-75255401D01*
X181907487Y-75254029D01*
X181716513Y-75254029D01*
X181710061Y-75255401D01*
X181710056Y-75255401D01*
X181623113Y-75273882D01*
X181529712Y-75293735D01*
X181523682Y-75296420D01*
X181523681Y-75296420D01*
X181361278Y-75368726D01*
X181361276Y-75368727D01*
X181355248Y-75371411D01*
X181349907Y-75375291D01*
X181349906Y-75375292D01*
X181321121Y-75396206D01*
X181200747Y-75483663D01*
X181196326Y-75488573D01*
X181196325Y-75488574D01*
X181133020Y-75558882D01*
X181072960Y-75625585D01*
X180977473Y-75790973D01*
X180918458Y-75972601D01*
X180917768Y-75979162D01*
X180917768Y-75979164D01*
X180907177Y-76079930D01*
X180898496Y-76162529D01*
X178018800Y-76162529D01*
X178018542Y-76160072D01*
X177959527Y-75978444D01*
X177952406Y-75966109D01*
X177907002Y-75887468D01*
X177864040Y-75813056D01*
X177849816Y-75797258D01*
X177740675Y-75676045D01*
X177740674Y-75676044D01*
X177736253Y-75671134D01*
X177581752Y-75558882D01*
X177575724Y-75556198D01*
X177575722Y-75556197D01*
X177413319Y-75483891D01*
X177413318Y-75483891D01*
X177407288Y-75481206D01*
X177313888Y-75461353D01*
X177226944Y-75442872D01*
X177226939Y-75442872D01*
X177220487Y-75441500D01*
X177029513Y-75441500D01*
X177023061Y-75442872D01*
X177023056Y-75442872D01*
X176936112Y-75461353D01*
X176842712Y-75481206D01*
X176836682Y-75483891D01*
X176836681Y-75483891D01*
X176674278Y-75556197D01*
X176674276Y-75556198D01*
X176668248Y-75558882D01*
X176513747Y-75671134D01*
X176509326Y-75676044D01*
X176509325Y-75676045D01*
X176400185Y-75797258D01*
X176385960Y-75813056D01*
X176342998Y-75887468D01*
X176297595Y-75966109D01*
X176290473Y-75978444D01*
X176231458Y-76160072D01*
X176230768Y-76166633D01*
X176230768Y-76166635D01*
X176213471Y-76331206D01*
X176211496Y-76350000D01*
X175629266Y-76350000D01*
X175626220Y-73725000D01*
X181161496Y-73725000D01*
X181162186Y-73731565D01*
X181177167Y-73874097D01*
X181181458Y-73914928D01*
X181240473Y-74096556D01*
X181335960Y-74261944D01*
X181340378Y-74266851D01*
X181340379Y-74266852D01*
X181440012Y-74377506D01*
X181463747Y-74403866D01*
X181618248Y-74516118D01*
X181624276Y-74518802D01*
X181624278Y-74518803D01*
X181786681Y-74591109D01*
X181792712Y-74593794D01*
X181881831Y-74612737D01*
X181973056Y-74632128D01*
X181973061Y-74632128D01*
X181979513Y-74633500D01*
X182170487Y-74633500D01*
X182176939Y-74632128D01*
X182176944Y-74632128D01*
X182268169Y-74612737D01*
X182357288Y-74593794D01*
X182363319Y-74591109D01*
X182525722Y-74518803D01*
X182525724Y-74518802D01*
X182531752Y-74516118D01*
X182686253Y-74403866D01*
X182709988Y-74377506D01*
X182809621Y-74266852D01*
X182809622Y-74266851D01*
X182814040Y-74261944D01*
X182909527Y-74096556D01*
X182968542Y-73914928D01*
X182972834Y-73874097D01*
X182987814Y-73731565D01*
X182988504Y-73725000D01*
X182984893Y-73690639D01*
X182969232Y-73541635D01*
X182969232Y-73541633D01*
X182968542Y-73535072D01*
X182909527Y-73353444D01*
X182814040Y-73188056D01*
X182808902Y-73182349D01*
X182690675Y-73051045D01*
X182690674Y-73051044D01*
X182686253Y-73046134D01*
X182566862Y-72959391D01*
X182537094Y-72937763D01*
X182537093Y-72937762D01*
X182531752Y-72933882D01*
X182525724Y-72931198D01*
X182525722Y-72931197D01*
X182363319Y-72858891D01*
X182363318Y-72858891D01*
X182357288Y-72856206D01*
X182263887Y-72836353D01*
X182176944Y-72817872D01*
X182176939Y-72817872D01*
X182170487Y-72816500D01*
X181979513Y-72816500D01*
X181973061Y-72817872D01*
X181973056Y-72817872D01*
X181886113Y-72836353D01*
X181792712Y-72856206D01*
X181786682Y-72858891D01*
X181786681Y-72858891D01*
X181624278Y-72931197D01*
X181624276Y-72931198D01*
X181618248Y-72933882D01*
X181612907Y-72937762D01*
X181612906Y-72937763D01*
X181583138Y-72959391D01*
X181463747Y-73046134D01*
X181459326Y-73051044D01*
X181459325Y-73051045D01*
X181341099Y-73182349D01*
X181335960Y-73188056D01*
X181240473Y-73353444D01*
X181181458Y-73535072D01*
X181180768Y-73541633D01*
X181180768Y-73541635D01*
X181165107Y-73690639D01*
X181161496Y-73725000D01*
X175626220Y-73725000D01*
X175623407Y-71300000D01*
X176186496Y-71300000D01*
X176187186Y-71306565D01*
X176204942Y-71475500D01*
X176206458Y-71489928D01*
X176265473Y-71671556D01*
X176268776Y-71677278D01*
X176268777Y-71677279D01*
X176279705Y-71696206D01*
X176360960Y-71836944D01*
X176365378Y-71841851D01*
X176365379Y-71841852D01*
X176405251Y-71886134D01*
X176488747Y-71978866D01*
X176643248Y-72091118D01*
X176649276Y-72093802D01*
X176649278Y-72093803D01*
X176805785Y-72163484D01*
X176817712Y-72168794D01*
X176906756Y-72187721D01*
X176998056Y-72207128D01*
X176998061Y-72207128D01*
X177004513Y-72208500D01*
X177195487Y-72208500D01*
X177201939Y-72207128D01*
X177201944Y-72207128D01*
X177293244Y-72187721D01*
X177382288Y-72168794D01*
X177394215Y-72163484D01*
X177550722Y-72093803D01*
X177550724Y-72093802D01*
X177556752Y-72091118D01*
X177711253Y-71978866D01*
X177794749Y-71886134D01*
X177834621Y-71841852D01*
X177834622Y-71841851D01*
X177839040Y-71836944D01*
X177860370Y-71800000D01*
X190411496Y-71800000D01*
X190412186Y-71806565D01*
X190430757Y-71983255D01*
X190431458Y-71989928D01*
X190490473Y-72171556D01*
X190493776Y-72177278D01*
X190493777Y-72177279D01*
X190511369Y-72207749D01*
X190585960Y-72336944D01*
X190590378Y-72341851D01*
X190590379Y-72341852D01*
X190694950Y-72457990D01*
X190713747Y-72478866D01*
X190868248Y-72591118D01*
X190874276Y-72593802D01*
X190874278Y-72593803D01*
X191036681Y-72666109D01*
X191042712Y-72668794D01*
X191136112Y-72688647D01*
X191223056Y-72707128D01*
X191223061Y-72707128D01*
X191229513Y-72708500D01*
X191420487Y-72708500D01*
X191426939Y-72707128D01*
X191426944Y-72707128D01*
X191513888Y-72688647D01*
X191607288Y-72668794D01*
X191613319Y-72666109D01*
X191775722Y-72593803D01*
X191775724Y-72593802D01*
X191781752Y-72591118D01*
X191936253Y-72478866D01*
X191955050Y-72457990D01*
X192059621Y-72341852D01*
X192059622Y-72341851D01*
X192064040Y-72336944D01*
X192138631Y-72207749D01*
X192156223Y-72177279D01*
X192156224Y-72177278D01*
X192159527Y-72171556D01*
X192218542Y-71989928D01*
X192219244Y-71983255D01*
X192237814Y-71806565D01*
X192238504Y-71800000D01*
X192226721Y-71687891D01*
X192219232Y-71616635D01*
X192219232Y-71616633D01*
X192218542Y-71610072D01*
X192159527Y-71428444D01*
X192064040Y-71263056D01*
X191968615Y-71157075D01*
X191940675Y-71126045D01*
X191940674Y-71126044D01*
X191936253Y-71121134D01*
X191781752Y-71008882D01*
X191775724Y-71006198D01*
X191775722Y-71006197D01*
X191613319Y-70933891D01*
X191613318Y-70933891D01*
X191607288Y-70931206D01*
X191491588Y-70906613D01*
X191426944Y-70892872D01*
X191426939Y-70892872D01*
X191420487Y-70891500D01*
X191229513Y-70891500D01*
X191223061Y-70892872D01*
X191223056Y-70892872D01*
X191158412Y-70906613D01*
X191042712Y-70931206D01*
X191036682Y-70933891D01*
X191036681Y-70933891D01*
X190874278Y-71006197D01*
X190874276Y-71006198D01*
X190868248Y-71008882D01*
X190713747Y-71121134D01*
X190709326Y-71126044D01*
X190709325Y-71126045D01*
X190681386Y-71157075D01*
X190585960Y-71263056D01*
X190490473Y-71428444D01*
X190431458Y-71610072D01*
X190430768Y-71616633D01*
X190430768Y-71616635D01*
X190423279Y-71687891D01*
X190411496Y-71800000D01*
X177860370Y-71800000D01*
X177920295Y-71696206D01*
X177931223Y-71677279D01*
X177931224Y-71677278D01*
X177934527Y-71671556D01*
X177993542Y-71489928D01*
X177995059Y-71475500D01*
X178012814Y-71306565D01*
X178013504Y-71300000D01*
X178008611Y-71253441D01*
X177994232Y-71116635D01*
X177994232Y-71116633D01*
X177993542Y-71110072D01*
X177934527Y-70928444D01*
X177913990Y-70892872D01*
X177851537Y-70784702D01*
X177839040Y-70763056D01*
X177731229Y-70643319D01*
X177715675Y-70626045D01*
X177715674Y-70626044D01*
X177711253Y-70621134D01*
X177556752Y-70508882D01*
X177550724Y-70506198D01*
X177550722Y-70506197D01*
X177388319Y-70433891D01*
X177388318Y-70433891D01*
X177382288Y-70431206D01*
X177288887Y-70411353D01*
X177201944Y-70392872D01*
X177201939Y-70392872D01*
X177195487Y-70391500D01*
X177004513Y-70391500D01*
X176998061Y-70392872D01*
X176998056Y-70392872D01*
X176911113Y-70411353D01*
X176817712Y-70431206D01*
X176811682Y-70433891D01*
X176811681Y-70433891D01*
X176649278Y-70506197D01*
X176649276Y-70506198D01*
X176643248Y-70508882D01*
X176488747Y-70621134D01*
X176484326Y-70626044D01*
X176484325Y-70626045D01*
X176468772Y-70643319D01*
X176360960Y-70763056D01*
X176348463Y-70784702D01*
X176286011Y-70892872D01*
X176265473Y-70928444D01*
X176206458Y-71110072D01*
X176205768Y-71116633D01*
X176205768Y-71116635D01*
X176191389Y-71253441D01*
X176186496Y-71300000D01*
X175623407Y-71300000D01*
X175620623Y-68900000D01*
X200886496Y-68900000D01*
X200887186Y-68906565D01*
X200905415Y-69080000D01*
X200906458Y-69089928D01*
X200965473Y-69271556D01*
X201060960Y-69436944D01*
X201134137Y-69518215D01*
X201164853Y-69582221D01*
X201166500Y-69602524D01*
X201166500Y-70851233D01*
X201165973Y-70862416D01*
X201164298Y-70869909D01*
X201164547Y-70877835D01*
X201164547Y-70877836D01*
X201166438Y-70937986D01*
X201166500Y-70941945D01*
X201166500Y-70969856D01*
X201166997Y-70973790D01*
X201166997Y-70973791D01*
X201167005Y-70973856D01*
X201167938Y-70985693D01*
X201169327Y-71029889D01*
X201171933Y-71038858D01*
X201174978Y-71049339D01*
X201178987Y-71068700D01*
X201181526Y-71088797D01*
X201184445Y-71096168D01*
X201184445Y-71096170D01*
X201197804Y-71129912D01*
X201201649Y-71141142D01*
X201209373Y-71167730D01*
X201213982Y-71183593D01*
X201218015Y-71190412D01*
X201218017Y-71190417D01*
X201224293Y-71201028D01*
X201232988Y-71218776D01*
X201240448Y-71237617D01*
X201245110Y-71244033D01*
X201245110Y-71244034D01*
X201266436Y-71273387D01*
X201272952Y-71283307D01*
X201295458Y-71321362D01*
X201309779Y-71335683D01*
X201322619Y-71350716D01*
X201334528Y-71367107D01*
X201345132Y-71375879D01*
X201368605Y-71395298D01*
X201377384Y-71403288D01*
X202487878Y-72513782D01*
X202521904Y-72576094D01*
X202524092Y-72589703D01*
X202541458Y-72754928D01*
X202600473Y-72936556D01*
X202603776Y-72942278D01*
X202603777Y-72942279D01*
X202613657Y-72959391D01*
X202695960Y-73101944D01*
X202700378Y-73106851D01*
X202700379Y-73106852D01*
X202774654Y-73189343D01*
X202823747Y-73243866D01*
X202875327Y-73281341D01*
X202918680Y-73337564D01*
X202924755Y-73408300D01*
X202910385Y-73446275D01*
X202903778Y-73457719D01*
X202900473Y-73463444D01*
X202841458Y-73645072D01*
X202840768Y-73651633D01*
X202840768Y-73651635D01*
X202838755Y-73670787D01*
X202821496Y-73835000D01*
X202822186Y-73841565D01*
X202840460Y-74015428D01*
X202841458Y-74024928D01*
X202900473Y-74206556D01*
X202903776Y-74212278D01*
X202903777Y-74212279D01*
X202914705Y-74231206D01*
X202995960Y-74371944D01*
X203000378Y-74376851D01*
X203000379Y-74376852D01*
X203110771Y-74499455D01*
X203123747Y-74513866D01*
X203133751Y-74521134D01*
X203259831Y-74612737D01*
X203278248Y-74626118D01*
X203284276Y-74628802D01*
X203284278Y-74628803D01*
X203433670Y-74695316D01*
X203452712Y-74703794D01*
X203541756Y-74722721D01*
X203633056Y-74742128D01*
X203633061Y-74742128D01*
X203639513Y-74743500D01*
X203830487Y-74743500D01*
X203836939Y-74742128D01*
X203836944Y-74742128D01*
X203928244Y-74722721D01*
X204017288Y-74703794D01*
X204036330Y-74695316D01*
X204185722Y-74628803D01*
X204185724Y-74628802D01*
X204191752Y-74626118D01*
X204210170Y-74612737D01*
X204336249Y-74521134D01*
X204346253Y-74513866D01*
X204359229Y-74499455D01*
X204469621Y-74376852D01*
X204469622Y-74376851D01*
X204474040Y-74371944D01*
X204555295Y-74231206D01*
X204566223Y-74212279D01*
X204566224Y-74212278D01*
X204569527Y-74206556D01*
X204628542Y-74024928D01*
X204629541Y-74015428D01*
X204647814Y-73841565D01*
X204648504Y-73835000D01*
X204631245Y-73670787D01*
X204629232Y-73651635D01*
X204629232Y-73651633D01*
X204628542Y-73645072D01*
X204569527Y-73463444D01*
X204559615Y-73446275D01*
X204532898Y-73400000D01*
X209261496Y-73400000D01*
X209262186Y-73406565D01*
X209276454Y-73542314D01*
X209281458Y-73589928D01*
X209340473Y-73771556D01*
X209435960Y-73936944D01*
X209440378Y-73941851D01*
X209440379Y-73941852D01*
X209559325Y-74073955D01*
X209563747Y-74078866D01*
X209718248Y-74191118D01*
X209724276Y-74193802D01*
X209724278Y-74193803D01*
X209886681Y-74266109D01*
X209892712Y-74268794D01*
X209986113Y-74288647D01*
X210073056Y-74307128D01*
X210073061Y-74307128D01*
X210079513Y-74308500D01*
X210270487Y-74308500D01*
X210276939Y-74307128D01*
X210276944Y-74307128D01*
X210363887Y-74288647D01*
X210457288Y-74268794D01*
X210463319Y-74266109D01*
X210625722Y-74193803D01*
X210625724Y-74193802D01*
X210631752Y-74191118D01*
X210786253Y-74078866D01*
X210790675Y-74073955D01*
X210909621Y-73941852D01*
X210909622Y-73941851D01*
X210914040Y-73936944D01*
X211009527Y-73771556D01*
X211068542Y-73589928D01*
X211073547Y-73542314D01*
X211087814Y-73406565D01*
X211088504Y-73400000D01*
X211083611Y-73353444D01*
X211069232Y-73216635D01*
X211069232Y-73216633D01*
X211068542Y-73210072D01*
X211009527Y-73028444D01*
X210914040Y-72863056D01*
X210786253Y-72721134D01*
X210631752Y-72608882D01*
X210625724Y-72606198D01*
X210625722Y-72606197D01*
X210463319Y-72533891D01*
X210463318Y-72533891D01*
X210457288Y-72531206D01*
X210363887Y-72511353D01*
X210276944Y-72492872D01*
X210276939Y-72492872D01*
X210270487Y-72491500D01*
X210079513Y-72491500D01*
X210073061Y-72492872D01*
X210073056Y-72492872D01*
X209986112Y-72511353D01*
X209892712Y-72531206D01*
X209886682Y-72533891D01*
X209886681Y-72533891D01*
X209724278Y-72606197D01*
X209724276Y-72606198D01*
X209718248Y-72608882D01*
X209563747Y-72721134D01*
X209435960Y-72863056D01*
X209340473Y-73028444D01*
X209281458Y-73210072D01*
X209280768Y-73216633D01*
X209280768Y-73216635D01*
X209266389Y-73353444D01*
X209261496Y-73400000D01*
X204532898Y-73400000D01*
X204477341Y-73303774D01*
X204474040Y-73298056D01*
X204404941Y-73221313D01*
X204350675Y-73161045D01*
X204350674Y-73161044D01*
X204346253Y-73156134D01*
X204294672Y-73118658D01*
X204251320Y-73062436D01*
X204245245Y-72991700D01*
X204259615Y-72953725D01*
X204266222Y-72942281D01*
X204266223Y-72942278D01*
X204269527Y-72936556D01*
X204328542Y-72754928D01*
X204331847Y-72723489D01*
X204347814Y-72571565D01*
X204348504Y-72565000D01*
X204339859Y-72482749D01*
X204329232Y-72381635D01*
X204329232Y-72381633D01*
X204328542Y-72375072D01*
X204269527Y-72193444D01*
X204256088Y-72170166D01*
X204180835Y-72039825D01*
X204174040Y-72028056D01*
X204139710Y-71989928D01*
X204050675Y-71891045D01*
X204050674Y-71891044D01*
X204046253Y-71886134D01*
X203891752Y-71773882D01*
X203885724Y-71771198D01*
X203885722Y-71771197D01*
X203723319Y-71698891D01*
X203723318Y-71698891D01*
X203717288Y-71696206D01*
X203623888Y-71676353D01*
X203536944Y-71657872D01*
X203536939Y-71657872D01*
X203530487Y-71656500D01*
X203474595Y-71656500D01*
X203406474Y-71636498D01*
X203385500Y-71619595D01*
X203290905Y-71525000D01*
X214036496Y-71525000D01*
X214056458Y-71714928D01*
X214115473Y-71896556D01*
X214210960Y-72061944D01*
X214215378Y-72066851D01*
X214215379Y-72066852D01*
X214329363Y-72193444D01*
X214338747Y-72203866D01*
X214493248Y-72316118D01*
X214499276Y-72318802D01*
X214499278Y-72318803D01*
X214624790Y-72374684D01*
X214667712Y-72393794D01*
X214761113Y-72413647D01*
X214848056Y-72432128D01*
X214848061Y-72432128D01*
X214854513Y-72433500D01*
X215045487Y-72433500D01*
X215051939Y-72432128D01*
X215051944Y-72432128D01*
X215138888Y-72413647D01*
X215232288Y-72393794D01*
X215275210Y-72374684D01*
X215400722Y-72318803D01*
X215400724Y-72318802D01*
X215406752Y-72316118D01*
X215561253Y-72203866D01*
X215570637Y-72193444D01*
X215684621Y-72066852D01*
X215684622Y-72066851D01*
X215689040Y-72061944D01*
X215784527Y-71896556D01*
X215843542Y-71714928D01*
X215863504Y-71525000D01*
X215846909Y-71367107D01*
X215844232Y-71341635D01*
X215844232Y-71341633D01*
X215843542Y-71335072D01*
X215784527Y-71153444D01*
X215777425Y-71141142D01*
X215721668Y-71044569D01*
X215689040Y-70988056D01*
X215669084Y-70965892D01*
X215565675Y-70851045D01*
X215565674Y-70851044D01*
X215561253Y-70846134D01*
X215406752Y-70733882D01*
X215400724Y-70731198D01*
X215400722Y-70731197D01*
X215238319Y-70658891D01*
X215238318Y-70658891D01*
X215232288Y-70656206D01*
X215138888Y-70636353D01*
X215051944Y-70617872D01*
X215051939Y-70617872D01*
X215045487Y-70616500D01*
X214854513Y-70616500D01*
X214848061Y-70617872D01*
X214848056Y-70617872D01*
X214761113Y-70636353D01*
X214667712Y-70656206D01*
X214661682Y-70658891D01*
X214661681Y-70658891D01*
X214499278Y-70731197D01*
X214499276Y-70731198D01*
X214493248Y-70733882D01*
X214338747Y-70846134D01*
X214334326Y-70851044D01*
X214334325Y-70851045D01*
X214230917Y-70965892D01*
X214210960Y-70988056D01*
X214178332Y-71044569D01*
X214122576Y-71141142D01*
X214115473Y-71153444D01*
X214056458Y-71335072D01*
X214055768Y-71341633D01*
X214055768Y-71341635D01*
X214053091Y-71367107D01*
X214036496Y-71525000D01*
X203290905Y-71525000D01*
X202470405Y-70704500D01*
X202436379Y-70642188D01*
X202433500Y-70615405D01*
X202433500Y-69800000D01*
X203286496Y-69800000D01*
X203306458Y-69989928D01*
X203365473Y-70171556D01*
X203460960Y-70336944D01*
X203465378Y-70341851D01*
X203465379Y-70341852D01*
X203584325Y-70473955D01*
X203588747Y-70478866D01*
X203743248Y-70591118D01*
X203749276Y-70593802D01*
X203749278Y-70593803D01*
X203895469Y-70658891D01*
X203917712Y-70668794D01*
X204011112Y-70688647D01*
X204098056Y-70707128D01*
X204098061Y-70707128D01*
X204104513Y-70708500D01*
X204295487Y-70708500D01*
X204301939Y-70707128D01*
X204301944Y-70707128D01*
X204388888Y-70688647D01*
X204482288Y-70668794D01*
X204504531Y-70658891D01*
X204650722Y-70593803D01*
X204650724Y-70593802D01*
X204656752Y-70591118D01*
X204811253Y-70478866D01*
X204815675Y-70473955D01*
X204934621Y-70341852D01*
X204934622Y-70341851D01*
X204939040Y-70336944D01*
X205034527Y-70171556D01*
X205093542Y-69989928D01*
X205113504Y-69800000D01*
X205093542Y-69610072D01*
X205057777Y-69500000D01*
X205561496Y-69500000D01*
X205562186Y-69506565D01*
X205572272Y-69602524D01*
X205581458Y-69689928D01*
X205640473Y-69871556D01*
X205735960Y-70036944D01*
X205863747Y-70178866D01*
X206018248Y-70291118D01*
X206024276Y-70293802D01*
X206024278Y-70293803D01*
X206186681Y-70366109D01*
X206192712Y-70368794D01*
X206286113Y-70388647D01*
X206373056Y-70407128D01*
X206373061Y-70407128D01*
X206379513Y-70408500D01*
X206570487Y-70408500D01*
X206576939Y-70407128D01*
X206576944Y-70407128D01*
X206663887Y-70388647D01*
X206757288Y-70368794D01*
X206763319Y-70366109D01*
X206925722Y-70293803D01*
X206925724Y-70293802D01*
X206931752Y-70291118D01*
X207086253Y-70178866D01*
X207214040Y-70036944D01*
X207309527Y-69871556D01*
X207368542Y-69689928D01*
X207385907Y-69524706D01*
X207412920Y-69459050D01*
X207422122Y-69448782D01*
X207975499Y-68895405D01*
X208037811Y-68861379D01*
X208064594Y-68858500D01*
X218910406Y-68858500D01*
X218978527Y-68878502D01*
X218999501Y-68895405D01*
X221579595Y-71475500D01*
X221613621Y-71537812D01*
X221616500Y-71564595D01*
X221616500Y-76111233D01*
X221615973Y-76122416D01*
X221614298Y-76129909D01*
X221614547Y-76137835D01*
X221614547Y-76137836D01*
X221616438Y-76197986D01*
X221616500Y-76201945D01*
X221616500Y-76229856D01*
X221616997Y-76233790D01*
X221616997Y-76233791D01*
X221617005Y-76233856D01*
X221617938Y-76245693D01*
X221619327Y-76289889D01*
X221624632Y-76308149D01*
X221624978Y-76309339D01*
X221628987Y-76328700D01*
X221631526Y-76348797D01*
X221634445Y-76356168D01*
X221634445Y-76356170D01*
X221647804Y-76389912D01*
X221651649Y-76401142D01*
X221663982Y-76443593D01*
X221668015Y-76450412D01*
X221668017Y-76450417D01*
X221674293Y-76461028D01*
X221682988Y-76478776D01*
X221690448Y-76497617D01*
X221695110Y-76504033D01*
X221695110Y-76504034D01*
X221716436Y-76533387D01*
X221722952Y-76543307D01*
X221724667Y-76546206D01*
X221745458Y-76581362D01*
X221759779Y-76595683D01*
X221772619Y-76610716D01*
X221784528Y-76627107D01*
X221790634Y-76632158D01*
X221818605Y-76655298D01*
X221827384Y-76663288D01*
X223160344Y-77996248D01*
X223194370Y-78058560D01*
X223191082Y-78124281D01*
X223190091Y-78127330D01*
X223188195Y-78131908D01*
X223187040Y-78136720D01*
X223187039Y-78136724D01*
X223142749Y-78321206D01*
X223130928Y-78370443D01*
X223111681Y-78615000D01*
X223130928Y-78859557D01*
X223132082Y-78864364D01*
X223132083Y-78864370D01*
X223162511Y-78991109D01*
X223188195Y-79098092D01*
X223190088Y-79102663D01*
X223190089Y-79102665D01*
X223216438Y-79166276D01*
X223282073Y-79324732D01*
X223351016Y-79437237D01*
X223400994Y-79518794D01*
X223410248Y-79533896D01*
X223413463Y-79537660D01*
X223413465Y-79537663D01*
X223556040Y-79704595D01*
X223569567Y-79720433D01*
X223573323Y-79723641D01*
X223650069Y-79789189D01*
X223688878Y-79848640D01*
X223689384Y-79919635D01*
X223650069Y-79980811D01*
X223627602Y-80000000D01*
X223569567Y-80049567D01*
X223566359Y-80053323D01*
X223455292Y-80183365D01*
X223410248Y-80236104D01*
X223282073Y-80445268D01*
X223188195Y-80671908D01*
X223171399Y-80741869D01*
X223134538Y-80895407D01*
X223130928Y-80910443D01*
X223111681Y-81155000D01*
X223130928Y-81399557D01*
X223132082Y-81404364D01*
X223132083Y-81404370D01*
X223159022Y-81516579D01*
X223188195Y-81638092D01*
X223190088Y-81642663D01*
X223190089Y-81642665D01*
X223195594Y-81655954D01*
X223282073Y-81864732D01*
X223335722Y-81952279D01*
X223403426Y-82062763D01*
X223410248Y-82073896D01*
X223413463Y-82077660D01*
X223413465Y-82077663D01*
X223539270Y-82224960D01*
X223569567Y-82260433D01*
X223573323Y-82263641D01*
X223752162Y-82416385D01*
X223756104Y-82419752D01*
X223760327Y-82422340D01*
X223760330Y-82422342D01*
X223829515Y-82464738D01*
X223965268Y-82547927D01*
X224010841Y-82566804D01*
X224187335Y-82639911D01*
X224187337Y-82639912D01*
X224191908Y-82641805D01*
X224242146Y-82653866D01*
X224425630Y-82697917D01*
X224425636Y-82697918D01*
X224430443Y-82699072D01*
X224675000Y-82718319D01*
X224919557Y-82699072D01*
X224924364Y-82697918D01*
X224924370Y-82697917D01*
X225107854Y-82653866D01*
X225158092Y-82641805D01*
X225162663Y-82639912D01*
X225162665Y-82639911D01*
X225339159Y-82566804D01*
X225384732Y-82547927D01*
X225520485Y-82464738D01*
X225589670Y-82422342D01*
X225589673Y-82422340D01*
X225593896Y-82419752D01*
X225597839Y-82416385D01*
X225776677Y-82263641D01*
X225780433Y-82260433D01*
X225810730Y-82224960D01*
X225936535Y-82077663D01*
X225936537Y-82077660D01*
X225939752Y-82073896D01*
X225946575Y-82062763D01*
X226014278Y-81952279D01*
X226067927Y-81864732D01*
X226154406Y-81655954D01*
X226159911Y-81642665D01*
X226159912Y-81642663D01*
X226161805Y-81638092D01*
X226190978Y-81516579D01*
X226217917Y-81404370D01*
X226217918Y-81404364D01*
X226219072Y-81399557D01*
X226238319Y-81155000D01*
X226219072Y-80910443D01*
X226215463Y-80895407D01*
X226178601Y-80741869D01*
X226161805Y-80671908D01*
X226067927Y-80445268D01*
X225939752Y-80236104D01*
X225894709Y-80183365D01*
X225783641Y-80053323D01*
X225780433Y-80049567D01*
X225722398Y-80000000D01*
X225699931Y-79980811D01*
X225661122Y-79921360D01*
X225660616Y-79850365D01*
X225699931Y-79789189D01*
X225776677Y-79723641D01*
X225780433Y-79720433D01*
X225793960Y-79704595D01*
X225936535Y-79537663D01*
X225936537Y-79537660D01*
X225939752Y-79533896D01*
X225949007Y-79518794D01*
X225998984Y-79437237D01*
X226067927Y-79324732D01*
X226133562Y-79166276D01*
X226159911Y-79102665D01*
X226159912Y-79102663D01*
X226161805Y-79098092D01*
X226187489Y-78991109D01*
X226217917Y-78864370D01*
X226217918Y-78864364D01*
X226219072Y-78859557D01*
X226238319Y-78615000D01*
X226219072Y-78370443D01*
X226207252Y-78321206D01*
X226162960Y-78136720D01*
X226161805Y-78131908D01*
X226136231Y-78070166D01*
X226105612Y-77996248D01*
X226067927Y-77905268D01*
X225939752Y-77696104D01*
X225780433Y-77509567D01*
X225766563Y-77497721D01*
X225699931Y-77440811D01*
X225661122Y-77381360D01*
X225660616Y-77310365D01*
X225699931Y-77249189D01*
X225776677Y-77183641D01*
X225780433Y-77180433D01*
X225811718Y-77143803D01*
X225936535Y-76997663D01*
X225936537Y-76997660D01*
X225939752Y-76993896D01*
X225964417Y-76953647D01*
X226027930Y-76850001D01*
X226067927Y-76784732D01*
X226161805Y-76558092D01*
X226199485Y-76401142D01*
X226217917Y-76324370D01*
X226217918Y-76324364D01*
X226219072Y-76319557D01*
X226238319Y-76075000D01*
X226219072Y-75830443D01*
X226213720Y-75808148D01*
X226162960Y-75596720D01*
X226161805Y-75591908D01*
X226155746Y-75577279D01*
X226119002Y-75488574D01*
X226067927Y-75365268D01*
X225959168Y-75187788D01*
X225940630Y-75119255D01*
X225962087Y-75051578D01*
X225991035Y-75021128D01*
X226006283Y-75009700D01*
X226088261Y-74948261D01*
X226175615Y-74831705D01*
X226226745Y-74695316D01*
X226233500Y-74633134D01*
X226233500Y-72436866D01*
X226226745Y-72374684D01*
X226175615Y-72238295D01*
X226088261Y-72121739D01*
X225971705Y-72034385D01*
X225835316Y-71983255D01*
X225773134Y-71976500D01*
X223576866Y-71976500D01*
X223514684Y-71983255D01*
X223378295Y-72034385D01*
X223261739Y-72121739D01*
X223174385Y-72238295D01*
X223171233Y-72246703D01*
X223171232Y-72246705D01*
X223127482Y-72363408D01*
X223084841Y-72420173D01*
X223018279Y-72444873D01*
X222948930Y-72429666D01*
X222898812Y-72379380D01*
X222883500Y-72319179D01*
X222883500Y-71328767D01*
X222884027Y-71317584D01*
X222885702Y-71310091D01*
X222885179Y-71293435D01*
X222883562Y-71242014D01*
X222883500Y-71238055D01*
X222883500Y-71210144D01*
X222882995Y-71206144D01*
X222882062Y-71194301D01*
X222881726Y-71183593D01*
X222880673Y-71150111D01*
X222875021Y-71130657D01*
X222871013Y-71111300D01*
X222869468Y-71099070D01*
X222869468Y-71099069D01*
X222868474Y-71091203D01*
X222864407Y-71080930D01*
X222852196Y-71050088D01*
X222848351Y-71038858D01*
X222838229Y-71004017D01*
X222838229Y-71004016D01*
X222836018Y-70996407D01*
X222831985Y-70989588D01*
X222831983Y-70989583D01*
X222825707Y-70978972D01*
X222817012Y-70961224D01*
X222809552Y-70942383D01*
X222783564Y-70906613D01*
X222777048Y-70896693D01*
X222758580Y-70865465D01*
X222758578Y-70865462D01*
X222754542Y-70858638D01*
X222740221Y-70844317D01*
X222727380Y-70829283D01*
X222720131Y-70819306D01*
X222715472Y-70812893D01*
X222681395Y-70784702D01*
X222672616Y-70776712D01*
X220975905Y-69080000D01*
X223136681Y-69080000D01*
X223155928Y-69324557D01*
X223213195Y-69563092D01*
X223215088Y-69567663D01*
X223215089Y-69567665D01*
X223229528Y-69602524D01*
X223307073Y-69789732D01*
X223360722Y-69877279D01*
X223425731Y-69983365D01*
X223435248Y-69998896D01*
X223438463Y-70002660D01*
X223438465Y-70002663D01*
X223467744Y-70036944D01*
X223594567Y-70185433D01*
X223781104Y-70344752D01*
X223785327Y-70347340D01*
X223785330Y-70347342D01*
X223820337Y-70368794D01*
X223990268Y-70472927D01*
X224086440Y-70512763D01*
X224212335Y-70564911D01*
X224212337Y-70564912D01*
X224216908Y-70566805D01*
X224299563Y-70586649D01*
X224450630Y-70622917D01*
X224450636Y-70622918D01*
X224455443Y-70624072D01*
X224700000Y-70643319D01*
X224944557Y-70624072D01*
X224949364Y-70622918D01*
X224949370Y-70622917D01*
X225100437Y-70586649D01*
X225183092Y-70566805D01*
X225187663Y-70564912D01*
X225187665Y-70564911D01*
X225313560Y-70512763D01*
X225409732Y-70472927D01*
X225579663Y-70368794D01*
X225614670Y-70347342D01*
X225614673Y-70347340D01*
X225618896Y-70344752D01*
X225805433Y-70185433D01*
X225932256Y-70036944D01*
X225961535Y-70002663D01*
X225961537Y-70002660D01*
X225964752Y-69998896D01*
X225974270Y-69983365D01*
X226039278Y-69877279D01*
X226092927Y-69789732D01*
X226170472Y-69602524D01*
X226184911Y-69567665D01*
X226184912Y-69567663D01*
X226186805Y-69563092D01*
X226244072Y-69324557D01*
X226263319Y-69080000D01*
X226244072Y-68835443D01*
X226213688Y-68708882D01*
X226187960Y-68601720D01*
X226186805Y-68596908D01*
X226183373Y-68588621D01*
X226094820Y-68374839D01*
X226092927Y-68370268D01*
X225964752Y-68161104D01*
X225805433Y-67974567D01*
X225724931Y-67905811D01*
X225686122Y-67846360D01*
X225685616Y-67775365D01*
X225724931Y-67714189D01*
X225801677Y-67648641D01*
X225805433Y-67645433D01*
X225821480Y-67626645D01*
X225961535Y-67462663D01*
X225961537Y-67462660D01*
X225964752Y-67458896D01*
X226092927Y-67249732D01*
X226186805Y-67023092D01*
X226236371Y-66816635D01*
X226242917Y-66789370D01*
X226242918Y-66789364D01*
X226244072Y-66784557D01*
X226263319Y-66540000D01*
X226244072Y-66295443D01*
X226224223Y-66212763D01*
X226187960Y-66061720D01*
X226186805Y-66056908D01*
X226092927Y-65830268D01*
X225984168Y-65652788D01*
X225965630Y-65584255D01*
X225987087Y-65516578D01*
X226016035Y-65486128D01*
X226022987Y-65480918D01*
X226113261Y-65413261D01*
X226200615Y-65296705D01*
X226251745Y-65160316D01*
X226258500Y-65098134D01*
X226258500Y-62901866D01*
X226251745Y-62839684D01*
X226200615Y-62703295D01*
X226113261Y-62586739D01*
X225996705Y-62499385D01*
X225860316Y-62448255D01*
X225798134Y-62441500D01*
X223601866Y-62441500D01*
X223539684Y-62448255D01*
X223403295Y-62499385D01*
X223286739Y-62586739D01*
X223199385Y-62703295D01*
X223148255Y-62839684D01*
X223141500Y-62901866D01*
X223141500Y-65098134D01*
X223148255Y-65160316D01*
X223199385Y-65296705D01*
X223286739Y-65413261D01*
X223377013Y-65480918D01*
X223383965Y-65486128D01*
X223426479Y-65542988D01*
X223431504Y-65613806D01*
X223415832Y-65652788D01*
X223307073Y-65830268D01*
X223213195Y-66056908D01*
X223212040Y-66061720D01*
X223175778Y-66212763D01*
X223155928Y-66295443D01*
X223136681Y-66540000D01*
X223155928Y-66784557D01*
X223157082Y-66789364D01*
X223157083Y-66789370D01*
X223163629Y-66816635D01*
X223213195Y-67023092D01*
X223307073Y-67249732D01*
X223435248Y-67458896D01*
X223438463Y-67462660D01*
X223438465Y-67462663D01*
X223578520Y-67626645D01*
X223594567Y-67645433D01*
X223598323Y-67648641D01*
X223675069Y-67714189D01*
X223713878Y-67773640D01*
X223714384Y-67844635D01*
X223675069Y-67905811D01*
X223594567Y-67974567D01*
X223435248Y-68161104D01*
X223307073Y-68370268D01*
X223305180Y-68374839D01*
X223216628Y-68588621D01*
X223213195Y-68596908D01*
X223212040Y-68601720D01*
X223186313Y-68708882D01*
X223155928Y-68835443D01*
X223136681Y-69080000D01*
X220975905Y-69080000D01*
X219728652Y-67832747D01*
X219721112Y-67824461D01*
X219717000Y-67817982D01*
X219667348Y-67771356D01*
X219664507Y-67768602D01*
X219644770Y-67748865D01*
X219641573Y-67746385D01*
X219632551Y-67738680D01*
X219619116Y-67726064D01*
X219600321Y-67708414D01*
X219593375Y-67704595D01*
X219593372Y-67704593D01*
X219582566Y-67698652D01*
X219566047Y-67687801D01*
X219565583Y-67687441D01*
X219550041Y-67675386D01*
X219542772Y-67672241D01*
X219542768Y-67672238D01*
X219509463Y-67657826D01*
X219498813Y-67652609D01*
X219460060Y-67631305D01*
X219440437Y-67626267D01*
X219421734Y-67619863D01*
X219410420Y-67614967D01*
X219410419Y-67614967D01*
X219403145Y-67611819D01*
X219395322Y-67610580D01*
X219395312Y-67610577D01*
X219359476Y-67604901D01*
X219347856Y-67602495D01*
X219312711Y-67593472D01*
X219312710Y-67593472D01*
X219305030Y-67591500D01*
X219284776Y-67591500D01*
X219265065Y-67589949D01*
X219252886Y-67588020D01*
X219245057Y-67586780D01*
X219215786Y-67589547D01*
X219201039Y-67590941D01*
X219189181Y-67591500D01*
X219100780Y-67591500D01*
X219032659Y-67571498D01*
X218986166Y-67517842D01*
X218976062Y-67447568D01*
X218991662Y-67402499D01*
X219006222Y-67377281D01*
X219006223Y-67377278D01*
X219009527Y-67371556D01*
X219068542Y-67189928D01*
X219081501Y-67066635D01*
X219087814Y-67006565D01*
X219088504Y-67000000D01*
X219068542Y-66810072D01*
X219009527Y-66628444D01*
X218914040Y-66463056D01*
X218786253Y-66321134D01*
X218631752Y-66208882D01*
X218625724Y-66206198D01*
X218625722Y-66206197D01*
X218463319Y-66133891D01*
X218463318Y-66133891D01*
X218457288Y-66131206D01*
X218363888Y-66111353D01*
X218276944Y-66092872D01*
X218276939Y-66092872D01*
X218270487Y-66091500D01*
X218079513Y-66091500D01*
X218073061Y-66092872D01*
X218073056Y-66092872D01*
X217986112Y-66111353D01*
X217892712Y-66131206D01*
X217886682Y-66133891D01*
X217886681Y-66133891D01*
X217724278Y-66206197D01*
X217724276Y-66206198D01*
X217718248Y-66208882D01*
X217563747Y-66321134D01*
X217435960Y-66463056D01*
X217340473Y-66628444D01*
X217338431Y-66634729D01*
X217338430Y-66634731D01*
X217319789Y-66692103D01*
X217279716Y-66750709D01*
X217214320Y-66778347D01*
X217144363Y-66766241D01*
X217097973Y-66722847D01*
X217096224Y-66724118D01*
X217092341Y-66718774D01*
X217089040Y-66713056D01*
X216961253Y-66571134D01*
X216806752Y-66458882D01*
X216800724Y-66456198D01*
X216800722Y-66456197D01*
X216638319Y-66383891D01*
X216638318Y-66383891D01*
X216632288Y-66381206D01*
X216538887Y-66361353D01*
X216451944Y-66342872D01*
X216451939Y-66342872D01*
X216445487Y-66341500D01*
X216254513Y-66341500D01*
X216248061Y-66342872D01*
X216248056Y-66342872D01*
X216161113Y-66361353D01*
X216067712Y-66381206D01*
X216061682Y-66383891D01*
X216061681Y-66383891D01*
X215899278Y-66456197D01*
X215899276Y-66456198D01*
X215893248Y-66458882D01*
X215738747Y-66571134D01*
X215610960Y-66713056D01*
X215515473Y-66878444D01*
X215456458Y-67060072D01*
X215455768Y-67066633D01*
X215455768Y-67066635D01*
X215442810Y-67189928D01*
X215436496Y-67250000D01*
X215456458Y-67439928D01*
X215456883Y-67441237D01*
X215451628Y-67510095D01*
X215408811Y-67566727D01*
X215342173Y-67591220D01*
X215333784Y-67591500D01*
X207828767Y-67591500D01*
X207817584Y-67590973D01*
X207810091Y-67589298D01*
X207802165Y-67589547D01*
X207802164Y-67589547D01*
X207742014Y-67591438D01*
X207738055Y-67591500D01*
X207710144Y-67591500D01*
X207706210Y-67591997D01*
X207706209Y-67591997D01*
X207706144Y-67592005D01*
X207694307Y-67592938D01*
X207662490Y-67593938D01*
X207658029Y-67594078D01*
X207650110Y-67594327D01*
X207632454Y-67599456D01*
X207630658Y-67599978D01*
X207611306Y-67603986D01*
X207604235Y-67604880D01*
X207591203Y-67606526D01*
X207583834Y-67609443D01*
X207583832Y-67609444D01*
X207550097Y-67622800D01*
X207538869Y-67626645D01*
X207496407Y-67638982D01*
X207489585Y-67643016D01*
X207489579Y-67643019D01*
X207478968Y-67649294D01*
X207461218Y-67657990D01*
X207449756Y-67662528D01*
X207449751Y-67662531D01*
X207442383Y-67665448D01*
X207424970Y-67678099D01*
X207406625Y-67691427D01*
X207396707Y-67697943D01*
X207385463Y-67704593D01*
X207358637Y-67720458D01*
X207344313Y-67734782D01*
X207329281Y-67747621D01*
X207312893Y-67759528D01*
X207284712Y-67793593D01*
X207276722Y-67802373D01*
X206524500Y-68554595D01*
X206462188Y-68588621D01*
X206435405Y-68591500D01*
X206379513Y-68591500D01*
X206373061Y-68592872D01*
X206373056Y-68592872D01*
X206286113Y-68611353D01*
X206192712Y-68631206D01*
X206186682Y-68633891D01*
X206186681Y-68633891D01*
X206024278Y-68706197D01*
X206024276Y-68706198D01*
X206018248Y-68708882D01*
X205863747Y-68821134D01*
X205859326Y-68826044D01*
X205859325Y-68826045D01*
X205830103Y-68858500D01*
X205735960Y-68963056D01*
X205640473Y-69128444D01*
X205581458Y-69310072D01*
X205580768Y-69316633D01*
X205580768Y-69316635D01*
X205579430Y-69329370D01*
X205561496Y-69500000D01*
X205057777Y-69500000D01*
X205034527Y-69428444D01*
X204939040Y-69263056D01*
X204811253Y-69121134D01*
X204656752Y-69008882D01*
X204650724Y-69006198D01*
X204650722Y-69006197D01*
X204488319Y-68933891D01*
X204488318Y-68933891D01*
X204482288Y-68931206D01*
X204366362Y-68906565D01*
X204301944Y-68892872D01*
X204301939Y-68892872D01*
X204295487Y-68891500D01*
X204104513Y-68891500D01*
X204098061Y-68892872D01*
X204098056Y-68892872D01*
X204033638Y-68906565D01*
X203917712Y-68931206D01*
X203911682Y-68933891D01*
X203911681Y-68933891D01*
X203749278Y-69006197D01*
X203749276Y-69006198D01*
X203743248Y-69008882D01*
X203588747Y-69121134D01*
X203460960Y-69263056D01*
X203365473Y-69428444D01*
X203306458Y-69610072D01*
X203286496Y-69800000D01*
X202433500Y-69800000D01*
X202433500Y-69602524D01*
X202453502Y-69534403D01*
X202465858Y-69518221D01*
X202539040Y-69436944D01*
X202634527Y-69271556D01*
X202693542Y-69089928D01*
X202694586Y-69080000D01*
X202712814Y-68906565D01*
X202713504Y-68900000D01*
X202712611Y-68891500D01*
X202694232Y-68716635D01*
X202694232Y-68716633D01*
X202693542Y-68710072D01*
X202634527Y-68528444D01*
X202539040Y-68363056D01*
X202411253Y-68221134D01*
X202256752Y-68108882D01*
X202250724Y-68106198D01*
X202250722Y-68106197D01*
X202088319Y-68033891D01*
X202088318Y-68033891D01*
X202082288Y-68031206D01*
X201988888Y-68011353D01*
X201901944Y-67992872D01*
X201901939Y-67992872D01*
X201895487Y-67991500D01*
X201704513Y-67991500D01*
X201698061Y-67992872D01*
X201698056Y-67992872D01*
X201611112Y-68011353D01*
X201517712Y-68031206D01*
X201511682Y-68033891D01*
X201511681Y-68033891D01*
X201349278Y-68106197D01*
X201349276Y-68106198D01*
X201343248Y-68108882D01*
X201188747Y-68221134D01*
X201060960Y-68363056D01*
X200965473Y-68528444D01*
X200906458Y-68710072D01*
X200905768Y-68716633D01*
X200905768Y-68716635D01*
X200887389Y-68891500D01*
X200886496Y-68900000D01*
X175620623Y-68900000D01*
X175614039Y-63225000D01*
X210536496Y-63225000D01*
X210556458Y-63414928D01*
X210615473Y-63596556D01*
X210710960Y-63761944D01*
X210838747Y-63903866D01*
X210993248Y-64016118D01*
X210999276Y-64018802D01*
X210999278Y-64018803D01*
X211161681Y-64091109D01*
X211167712Y-64093794D01*
X211261112Y-64113647D01*
X211348056Y-64132128D01*
X211348061Y-64132128D01*
X211354513Y-64133500D01*
X211545487Y-64133500D01*
X211551939Y-64132128D01*
X211551944Y-64132128D01*
X211638888Y-64113647D01*
X211732288Y-64093794D01*
X211738319Y-64091109D01*
X211900722Y-64018803D01*
X211900724Y-64018802D01*
X211906752Y-64016118D01*
X212061253Y-63903866D01*
X212189040Y-63761944D01*
X212284527Y-63596556D01*
X212343542Y-63414928D01*
X212363504Y-63225000D01*
X212343542Y-63035072D01*
X212284527Y-62853444D01*
X212189040Y-62688056D01*
X212097999Y-62586944D01*
X212065675Y-62551045D01*
X212065674Y-62551044D01*
X212061253Y-62546134D01*
X211906752Y-62433882D01*
X211900724Y-62431198D01*
X211900722Y-62431197D01*
X211738319Y-62358891D01*
X211738318Y-62358891D01*
X211732288Y-62356206D01*
X211638888Y-62336353D01*
X211551944Y-62317872D01*
X211551939Y-62317872D01*
X211545487Y-62316500D01*
X211354513Y-62316500D01*
X211348061Y-62317872D01*
X211348056Y-62317872D01*
X211261112Y-62336353D01*
X211167712Y-62356206D01*
X211161682Y-62358891D01*
X211161681Y-62358891D01*
X210999278Y-62431197D01*
X210999276Y-62431198D01*
X210993248Y-62433882D01*
X210838747Y-62546134D01*
X210834326Y-62551044D01*
X210834325Y-62551045D01*
X210802002Y-62586944D01*
X210710960Y-62688056D01*
X210615473Y-62853444D01*
X210556458Y-63035072D01*
X210536496Y-63225000D01*
X175614039Y-63225000D01*
X175612676Y-62050000D01*
X175986496Y-62050000D01*
X176006458Y-62239928D01*
X176065473Y-62421556D01*
X176160960Y-62586944D01*
X176165378Y-62591851D01*
X176165379Y-62591852D01*
X176257150Y-62693774D01*
X176288747Y-62728866D01*
X176443248Y-62841118D01*
X176449276Y-62843802D01*
X176449278Y-62843803D01*
X176611681Y-62916109D01*
X176617712Y-62918794D01*
X176711112Y-62938647D01*
X176798056Y-62957128D01*
X176798061Y-62957128D01*
X176804513Y-62958500D01*
X176995487Y-62958500D01*
X177001939Y-62957128D01*
X177001944Y-62957128D01*
X177088888Y-62938647D01*
X177182288Y-62918794D01*
X177188319Y-62916109D01*
X177350722Y-62843803D01*
X177350724Y-62843802D01*
X177356752Y-62841118D01*
X177511253Y-62728866D01*
X177542850Y-62693774D01*
X177634621Y-62591852D01*
X177634622Y-62591851D01*
X177639040Y-62586944D01*
X177734527Y-62421556D01*
X177793542Y-62239928D01*
X177813504Y-62050000D01*
X177793542Y-61860072D01*
X177734527Y-61678444D01*
X177639040Y-61513056D01*
X177633196Y-61506565D01*
X177627285Y-61500000D01*
X202386496Y-61500000D01*
X202406458Y-61689928D01*
X202465473Y-61871556D01*
X202560960Y-62036944D01*
X202565378Y-62041851D01*
X202565379Y-62041852D01*
X202578627Y-62056565D01*
X202688747Y-62178866D01*
X202843248Y-62291118D01*
X202849276Y-62293802D01*
X202849278Y-62293803D01*
X202995469Y-62358891D01*
X203017712Y-62368794D01*
X203111112Y-62388647D01*
X203198056Y-62407128D01*
X203198061Y-62407128D01*
X203204513Y-62408500D01*
X203395487Y-62408500D01*
X203401939Y-62407128D01*
X203401944Y-62407128D01*
X203488888Y-62388647D01*
X203582288Y-62368794D01*
X203604531Y-62358891D01*
X203750722Y-62293803D01*
X203750724Y-62293802D01*
X203756752Y-62291118D01*
X203911253Y-62178866D01*
X204021373Y-62056565D01*
X204034621Y-62041852D01*
X204034622Y-62041851D01*
X204039040Y-62036944D01*
X204134527Y-61871556D01*
X204193542Y-61689928D01*
X204213504Y-61500000D01*
X204193542Y-61310072D01*
X204134527Y-61128444D01*
X204039040Y-60963056D01*
X203911253Y-60821134D01*
X203756752Y-60708882D01*
X203750724Y-60706198D01*
X203750722Y-60706197D01*
X203588319Y-60633891D01*
X203588318Y-60633891D01*
X203582288Y-60631206D01*
X203488887Y-60611353D01*
X203401944Y-60592872D01*
X203401939Y-60592872D01*
X203395487Y-60591500D01*
X203204513Y-60591500D01*
X203198061Y-60592872D01*
X203198056Y-60592872D01*
X203111113Y-60611353D01*
X203017712Y-60631206D01*
X203011682Y-60633891D01*
X203011681Y-60633891D01*
X202849278Y-60706197D01*
X202849276Y-60706198D01*
X202843248Y-60708882D01*
X202688747Y-60821134D01*
X202560960Y-60963056D01*
X202465473Y-61128444D01*
X202406458Y-61310072D01*
X202386496Y-61500000D01*
X177627285Y-61500000D01*
X177515675Y-61376045D01*
X177515674Y-61376044D01*
X177511253Y-61371134D01*
X177356752Y-61258882D01*
X177350724Y-61256198D01*
X177350722Y-61256197D01*
X177188319Y-61183891D01*
X177188318Y-61183891D01*
X177182288Y-61181206D01*
X177088887Y-61161353D01*
X177001944Y-61142872D01*
X177001939Y-61142872D01*
X176995487Y-61141500D01*
X176804513Y-61141500D01*
X176798061Y-61142872D01*
X176798056Y-61142872D01*
X176711113Y-61161353D01*
X176617712Y-61181206D01*
X176611682Y-61183891D01*
X176611681Y-61183891D01*
X176449278Y-61256197D01*
X176449276Y-61256198D01*
X176443248Y-61258882D01*
X176288747Y-61371134D01*
X176284326Y-61376044D01*
X176284325Y-61376045D01*
X176166805Y-61506565D01*
X176160960Y-61513056D01*
X176065473Y-61678444D01*
X176006458Y-61860072D01*
X175986496Y-62050000D01*
X175612676Y-62050000D01*
X175609201Y-59054645D01*
X175629124Y-58986502D01*
X175682726Y-58939947D01*
X175735201Y-58928500D01*
X229997500Y-58928500D01*
X230065621Y-58948502D01*
G37*
%TD.AperFunction*%
%TD*%
M02*
