%TF.GenerationSoftware,KiCad,Pcbnew,6.0.11-2627ca5db0~126~ubuntu22.04.1*%
%TF.CreationDate,2023-03-03T15:37:03-05:00*%
%TF.ProjectId,lin-fan-control,6c696e2d-6661-46e2-9d63-6f6e74726f6c,1.0*%
%TF.SameCoordinates,Original*%
%TF.FileFunction,Paste,Top*%
%TF.FilePolarity,Positive*%
%FSLAX46Y46*%
G04 Gerber Fmt 4.6, Leading zero omitted, Abs format (unit mm)*
G04 Created by KiCad (PCBNEW 6.0.11-2627ca5db0~126~ubuntu22.04.1) date 2023-03-03 15:37:03*
%MOMM*%
%LPD*%
G01*
G04 APERTURE LIST*
G04 Aperture macros list*
%AMRoundRect*
0 Rectangle with rounded corners*
0 $1 Rounding radius*
0 $2 $3 $4 $5 $6 $7 $8 $9 X,Y pos of 4 corners*
0 Add a 4 corners polygon primitive as box body*
4,1,4,$2,$3,$4,$5,$6,$7,$8,$9,$2,$3,0*
0 Add four circle primitives for the rounded corners*
1,1,$1+$1,$2,$3*
1,1,$1+$1,$4,$5*
1,1,$1+$1,$6,$7*
1,1,$1+$1,$8,$9*
0 Add four rect primitives between the rounded corners*
20,1,$1+$1,$2,$3,$4,$5,0*
20,1,$1+$1,$4,$5,$6,$7,0*
20,1,$1+$1,$6,$7,$8,$9,0*
20,1,$1+$1,$8,$9,$2,$3,0*%
G04 Aperture macros list end*
%ADD10C,0.100000*%
%ADD11RoundRect,0.250000X-0.450000X0.350000X-0.450000X-0.350000X0.450000X-0.350000X0.450000X0.350000X0*%
%ADD12RoundRect,0.150000X0.150000X-0.587500X0.150000X0.587500X-0.150000X0.587500X-0.150000X-0.587500X0*%
%ADD13R,1.879600X1.879600*%
%ADD14C,1.879600*%
%ADD15RoundRect,0.250000X0.400000X1.450000X-0.400000X1.450000X-0.400000X-1.450000X0.400000X-1.450000X0*%
%ADD16RoundRect,0.250000X-0.475000X0.337500X-0.475000X-0.337500X0.475000X-0.337500X0.475000X0.337500X0*%
%ADD17RoundRect,0.250000X0.537500X0.425000X-0.537500X0.425000X-0.537500X-0.425000X0.537500X-0.425000X0*%
%ADD18RoundRect,0.250000X-0.337500X-0.475000X0.337500X-0.475000X0.337500X0.475000X-0.337500X0.475000X0*%
%ADD19RoundRect,0.250000X0.412500X1.100000X-0.412500X1.100000X-0.412500X-1.100000X0.412500X-1.100000X0*%
%ADD20RoundRect,0.150000X0.150000X-0.825000X0.150000X0.825000X-0.150000X0.825000X-0.150000X-0.825000X0*%
%ADD21RoundRect,0.100000X-0.637500X-0.100000X0.637500X-0.100000X0.637500X0.100000X-0.637500X0.100000X0*%
%ADD22RoundRect,0.250000X-0.350000X-0.450000X0.350000X-0.450000X0.350000X0.450000X-0.350000X0.450000X0*%
%ADD23RoundRect,0.250000X0.337500X0.475000X-0.337500X0.475000X-0.337500X-0.475000X0.337500X-0.475000X0*%
%ADD24R,2.750000X3.050000*%
%ADD25R,1.200000X2.200000*%
%ADD26RoundRect,0.250000X0.450000X-0.350000X0.450000X0.350000X-0.450000X0.350000X-0.450000X-0.350000X0*%
%ADD27RoundRect,0.250000X0.450000X-0.325000X0.450000X0.325000X-0.450000X0.325000X-0.450000X-0.325000X0*%
%ADD28RoundRect,0.150000X0.150000X-0.512500X0.150000X0.512500X-0.150000X0.512500X-0.150000X-0.512500X0*%
%ADD29R,0.400000X1.500000*%
%ADD30RoundRect,0.150000X-0.587500X-0.150000X0.587500X-0.150000X0.587500X0.150000X-0.587500X0.150000X0*%
G04 APERTURE END LIST*
%TO.C,U8*%
G36*
X215501999Y-84054600D02*
G01*
X215247999Y-84054600D01*
X215247999Y-83445000D01*
X215501999Y-83445000D01*
X215501999Y-84054600D01*
G37*
D10*
X215501999Y-84054600D02*
X215247999Y-84054600D01*
X215247999Y-83445000D01*
X215501999Y-83445000D01*
X215501999Y-84054600D01*
G36*
X216002001Y-87255000D02*
G01*
X215748001Y-87255000D01*
X215748001Y-86645400D01*
X216002001Y-86645400D01*
X216002001Y-87255000D01*
G37*
X216002001Y-87255000D02*
X215748001Y-87255000D01*
X215748001Y-86645400D01*
X216002001Y-86645400D01*
X216002001Y-87255000D01*
G36*
X216502000Y-87255000D02*
G01*
X216248000Y-87255000D01*
X216248000Y-86645400D01*
X216502000Y-86645400D01*
X216502000Y-87255000D01*
G37*
X216502000Y-87255000D02*
X216248000Y-87255000D01*
X216248000Y-86645400D01*
X216502000Y-86645400D01*
X216502000Y-87255000D01*
G36*
X217327500Y-86048500D02*
G01*
X215422500Y-86048500D01*
X215422500Y-84651500D01*
X217327500Y-84651500D01*
X217327500Y-86048500D01*
G37*
X217327500Y-86048500D02*
X215422500Y-86048500D01*
X215422500Y-84651500D01*
X217327500Y-84651500D01*
X217327500Y-86048500D01*
G36*
X216002001Y-84054600D02*
G01*
X215748001Y-84054600D01*
X215748001Y-83445000D01*
X216002001Y-83445000D01*
X216002001Y-84054600D01*
G37*
X216002001Y-84054600D02*
X215748001Y-84054600D01*
X215748001Y-83445000D01*
X216002001Y-83445000D01*
X216002001Y-84054600D01*
G36*
X217502001Y-84054600D02*
G01*
X217248001Y-84054600D01*
X217248001Y-83445000D01*
X217502001Y-83445000D01*
X217502001Y-84054600D01*
G37*
X217502001Y-84054600D02*
X217248001Y-84054600D01*
X217248001Y-83445000D01*
X217502001Y-83445000D01*
X217502001Y-84054600D01*
G36*
X215501999Y-87255000D02*
G01*
X215247999Y-87255000D01*
X215247999Y-86645400D01*
X215501999Y-86645400D01*
X215501999Y-87255000D01*
G37*
X215501999Y-87255000D02*
X215247999Y-87255000D01*
X215247999Y-86645400D01*
X215501999Y-86645400D01*
X215501999Y-87255000D01*
G36*
X217001999Y-87255000D02*
G01*
X216747999Y-87255000D01*
X216747999Y-86645400D01*
X217001999Y-86645400D01*
X217001999Y-87255000D01*
G37*
X217001999Y-87255000D02*
X216747999Y-87255000D01*
X216747999Y-86645400D01*
X217001999Y-86645400D01*
X217001999Y-87255000D01*
G36*
X216502000Y-84054600D02*
G01*
X216248000Y-84054600D01*
X216248000Y-83445000D01*
X216502000Y-83445000D01*
X216502000Y-84054600D01*
G37*
X216502000Y-84054600D02*
X216248000Y-84054600D01*
X216248000Y-83445000D01*
X216502000Y-83445000D01*
X216502000Y-84054600D01*
G36*
X217001999Y-84054600D02*
G01*
X216747999Y-84054600D01*
X216747999Y-83445000D01*
X217001999Y-83445000D01*
X217001999Y-84054600D01*
G37*
X217001999Y-84054600D02*
X216747999Y-84054600D01*
X216747999Y-83445000D01*
X217001999Y-83445000D01*
X217001999Y-84054600D01*
G36*
X217502001Y-87255000D02*
G01*
X217248001Y-87255000D01*
X217248001Y-86645400D01*
X217502001Y-86645400D01*
X217502001Y-87255000D01*
G37*
X217502001Y-87255000D02*
X217248001Y-87255000D01*
X217248001Y-86645400D01*
X217502001Y-86645400D01*
X217502001Y-87255000D01*
%TD*%
D11*
%TO.C,R25*%
X206460000Y-66070000D03*
X206460000Y-68070000D03*
%TD*%
D12*
%TO.C,U4*%
X190810000Y-80365000D03*
X192710000Y-80365000D03*
X191760000Y-78490000D03*
%TD*%
D13*
%TO.C,J1*%
X226520000Y-91800000D03*
D14*
X223980000Y-91800000D03*
X221440000Y-91800000D03*
X218900000Y-91800000D03*
X216360000Y-91800000D03*
X213820000Y-91800000D03*
%TD*%
D15*
%TO.C,F1*%
X219800000Y-63370000D03*
X215350000Y-63370000D03*
%TD*%
D16*
%TO.C,C7*%
X195110000Y-78680000D03*
X195110000Y-80755000D03*
%TD*%
%TO.C,C6*%
X192770000Y-83170000D03*
X192770000Y-85245000D03*
%TD*%
D17*
%TO.C,C5*%
X181640000Y-78610000D03*
X178765000Y-78610000D03*
%TD*%
D18*
%TO.C,C4*%
X183875000Y-78590000D03*
X185950000Y-78590000D03*
%TD*%
D19*
%TO.C,C3*%
X212760000Y-63430000D03*
X209635000Y-63430000D03*
%TD*%
D20*
%TO.C,U1*%
X196670000Y-89800000D03*
X197940000Y-89800000D03*
X199210000Y-89800000D03*
X200480000Y-89800000D03*
X200480000Y-84850000D03*
X199210000Y-84850000D03*
X197940000Y-84850000D03*
X196670000Y-84850000D03*
%TD*%
D12*
%TO.C,Q1*%
X187400000Y-88475000D03*
X189300000Y-88475000D03*
X188350000Y-86600000D03*
%TD*%
D21*
%TO.C,U2*%
X203237500Y-91975000D03*
X203237500Y-92625000D03*
X203237500Y-93275000D03*
X203237500Y-93925000D03*
X203237500Y-94575000D03*
X203237500Y-95225000D03*
X203237500Y-95875000D03*
X208962500Y-95875000D03*
X208962500Y-95225000D03*
X208962500Y-94575000D03*
X208962500Y-93925000D03*
X208962500Y-93275000D03*
X208962500Y-92625000D03*
X208962500Y-91975000D03*
%TD*%
D22*
%TO.C,R1*%
X194630000Y-92330000D03*
X196630000Y-92330000D03*
%TD*%
D18*
%TO.C,C12*%
X210525000Y-81775000D03*
X212600000Y-81775000D03*
%TD*%
D23*
%TO.C,C1*%
X205300000Y-89775000D03*
X203225000Y-89775000D03*
%TD*%
D24*
%TO.C,Q4*%
X216475000Y-73200000D03*
X216475000Y-69850000D03*
X213425000Y-69850000D03*
X213425000Y-73200000D03*
D25*
X212670000Y-77825000D03*
X217230000Y-77825000D03*
%TD*%
D26*
%TO.C,R5*%
X204025000Y-85350000D03*
X204025000Y-83350000D03*
%TD*%
%TO.C,R24*%
X210550000Y-85800000D03*
X210550000Y-83800000D03*
%TD*%
D12*
%TO.C,Q3*%
X214075000Y-80700000D03*
X215975000Y-80700000D03*
X215025000Y-78825000D03*
%TD*%
D27*
%TO.C,D1*%
X206450000Y-85350000D03*
X206450000Y-83300000D03*
%TD*%
D11*
%TO.C,R21*%
X219425000Y-77775000D03*
X219425000Y-79775000D03*
%TD*%
D16*
%TO.C,C14*%
X203875000Y-79400000D03*
X203875000Y-81475000D03*
%TD*%
D12*
%TO.C,Q2*%
X183550000Y-88525000D03*
X185450000Y-88525000D03*
X184500000Y-86650000D03*
%TD*%
D28*
%TO.C,U7*%
X208750000Y-90025000D03*
X209700000Y-90025000D03*
X210650000Y-90025000D03*
X210650000Y-87750000D03*
X209700000Y-87750000D03*
X208750000Y-87750000D03*
%TD*%
D22*
%TO.C,R2*%
X198675000Y-93775000D03*
X200675000Y-93775000D03*
%TD*%
D26*
%TO.C,R28*%
X200700000Y-81350000D03*
X200700000Y-79350000D03*
%TD*%
D29*
%TO.C,U11*%
X208925000Y-78085000D03*
X209575000Y-78085000D03*
X210225000Y-78085000D03*
X210225000Y-75425000D03*
X208925000Y-75425000D03*
%TD*%
D30*
%TO.C,D5*%
X206537500Y-79600000D03*
X206537500Y-81500000D03*
X208412500Y-80550000D03*
%TD*%
M02*
