%TF.GenerationSoftware,KiCad,Pcbnew,6.0.11-2627ca5db0~126~ubuntu22.04.1*%
%TF.CreationDate,2023-02-18T02:58:51-05:00*%
%TF.ProjectId,lin-valve-control,6c696e2d-7661-46c7-9665-2d636f6e7472,1.0*%
%TF.SameCoordinates,Original*%
%TF.FileFunction,Legend,Bot*%
%TF.FilePolarity,Positive*%
%FSLAX46Y46*%
G04 Gerber Fmt 4.6, Leading zero omitted, Abs format (unit mm)*
G04 Created by KiCad (PCBNEW 6.0.11-2627ca5db0~126~ubuntu22.04.1) date 2023-02-18 02:58:51*
%MOMM*%
%LPD*%
G01*
G04 APERTURE LIST*
%ADD10C,0.150000*%
%ADD11C,0.120000*%
G04 APERTURE END LIST*
D10*
%TO.C,R18*%
X207827380Y-71882142D02*
X207351190Y-71548809D01*
X207827380Y-71310714D02*
X206827380Y-71310714D01*
X206827380Y-71691666D01*
X206875000Y-71786904D01*
X206922619Y-71834523D01*
X207017857Y-71882142D01*
X207160714Y-71882142D01*
X207255952Y-71834523D01*
X207303571Y-71786904D01*
X207351190Y-71691666D01*
X207351190Y-71310714D01*
X207827380Y-72834523D02*
X207827380Y-72263095D01*
X207827380Y-72548809D02*
X206827380Y-72548809D01*
X206970238Y-72453571D01*
X207065476Y-72358333D01*
X207113095Y-72263095D01*
X207255952Y-73405952D02*
X207208333Y-73310714D01*
X207160714Y-73263095D01*
X207065476Y-73215476D01*
X207017857Y-73215476D01*
X206922619Y-73263095D01*
X206875000Y-73310714D01*
X206827380Y-73405952D01*
X206827380Y-73596428D01*
X206875000Y-73691666D01*
X206922619Y-73739285D01*
X207017857Y-73786904D01*
X207065476Y-73786904D01*
X207160714Y-73739285D01*
X207208333Y-73691666D01*
X207255952Y-73596428D01*
X207255952Y-73405952D01*
X207303571Y-73310714D01*
X207351190Y-73263095D01*
X207446428Y-73215476D01*
X207636904Y-73215476D01*
X207732142Y-73263095D01*
X207779761Y-73310714D01*
X207827380Y-73405952D01*
X207827380Y-73596428D01*
X207779761Y-73691666D01*
X207732142Y-73739285D01*
X207636904Y-73786904D01*
X207446428Y-73786904D01*
X207351190Y-73739285D01*
X207303571Y-73691666D01*
X207255952Y-73596428D01*
%TO.C,R3*%
X196916666Y-88402380D02*
X197250000Y-87926190D01*
X197488095Y-88402380D02*
X197488095Y-87402380D01*
X197107142Y-87402380D01*
X197011904Y-87450000D01*
X196964285Y-87497619D01*
X196916666Y-87592857D01*
X196916666Y-87735714D01*
X196964285Y-87830952D01*
X197011904Y-87878571D01*
X197107142Y-87926190D01*
X197488095Y-87926190D01*
X196583333Y-87402380D02*
X195964285Y-87402380D01*
X196297619Y-87783333D01*
X196154761Y-87783333D01*
X196059523Y-87830952D01*
X196011904Y-87878571D01*
X195964285Y-87973809D01*
X195964285Y-88211904D01*
X196011904Y-88307142D01*
X196059523Y-88354761D01*
X196154761Y-88402380D01*
X196440476Y-88402380D01*
X196535714Y-88354761D01*
X196583333Y-88307142D01*
%TO.C,R17*%
X194502380Y-75657142D02*
X194026190Y-75323809D01*
X194502380Y-75085714D02*
X193502380Y-75085714D01*
X193502380Y-75466666D01*
X193550000Y-75561904D01*
X193597619Y-75609523D01*
X193692857Y-75657142D01*
X193835714Y-75657142D01*
X193930952Y-75609523D01*
X193978571Y-75561904D01*
X194026190Y-75466666D01*
X194026190Y-75085714D01*
X194502380Y-76609523D02*
X194502380Y-76038095D01*
X194502380Y-76323809D02*
X193502380Y-76323809D01*
X193645238Y-76228571D01*
X193740476Y-76133333D01*
X193788095Y-76038095D01*
X193502380Y-76942857D02*
X193502380Y-77609523D01*
X194502380Y-77180952D01*
%TO.C,JP2*%
X193727380Y-99266666D02*
X194441666Y-99266666D01*
X194584523Y-99219047D01*
X194679761Y-99123809D01*
X194727380Y-98980952D01*
X194727380Y-98885714D01*
X194727380Y-99742857D02*
X193727380Y-99742857D01*
X193727380Y-100123809D01*
X193775000Y-100219047D01*
X193822619Y-100266666D01*
X193917857Y-100314285D01*
X194060714Y-100314285D01*
X194155952Y-100266666D01*
X194203571Y-100219047D01*
X194251190Y-100123809D01*
X194251190Y-99742857D01*
X193822619Y-100695238D02*
X193775000Y-100742857D01*
X193727380Y-100838095D01*
X193727380Y-101076190D01*
X193775000Y-101171428D01*
X193822619Y-101219047D01*
X193917857Y-101266666D01*
X194013095Y-101266666D01*
X194155952Y-101219047D01*
X194727380Y-100647619D01*
X194727380Y-101266666D01*
X194789285Y-94891666D02*
X194313095Y-94891666D01*
X194884523Y-95177380D02*
X194551190Y-94177380D01*
X194217857Y-95177380D01*
X193979761Y-94177380D02*
X193360714Y-94177380D01*
X193694047Y-94558333D01*
X193551190Y-94558333D01*
X193455952Y-94605952D01*
X193408333Y-94653571D01*
X193360714Y-94748809D01*
X193360714Y-94986904D01*
X193408333Y-95082142D01*
X193455952Y-95129761D01*
X193551190Y-95177380D01*
X193836904Y-95177380D01*
X193932142Y-95129761D01*
X193979761Y-95082142D01*
%TO.C,R6*%
X183566666Y-86827380D02*
X183900000Y-86351190D01*
X184138095Y-86827380D02*
X184138095Y-85827380D01*
X183757142Y-85827380D01*
X183661904Y-85875000D01*
X183614285Y-85922619D01*
X183566666Y-86017857D01*
X183566666Y-86160714D01*
X183614285Y-86255952D01*
X183661904Y-86303571D01*
X183757142Y-86351190D01*
X184138095Y-86351190D01*
X182709523Y-85827380D02*
X182900000Y-85827380D01*
X182995238Y-85875000D01*
X183042857Y-85922619D01*
X183138095Y-86065476D01*
X183185714Y-86255952D01*
X183185714Y-86636904D01*
X183138095Y-86732142D01*
X183090476Y-86779761D01*
X182995238Y-86827380D01*
X182804761Y-86827380D01*
X182709523Y-86779761D01*
X182661904Y-86732142D01*
X182614285Y-86636904D01*
X182614285Y-86398809D01*
X182661904Y-86303571D01*
X182709523Y-86255952D01*
X182804761Y-86208333D01*
X182995238Y-86208333D01*
X183090476Y-86255952D01*
X183138095Y-86303571D01*
X183185714Y-86398809D01*
%TO.C,JP5*%
X185877380Y-99341666D02*
X186591666Y-99341666D01*
X186734523Y-99294047D01*
X186829761Y-99198809D01*
X186877380Y-99055952D01*
X186877380Y-98960714D01*
X186877380Y-99817857D02*
X185877380Y-99817857D01*
X185877380Y-100198809D01*
X185925000Y-100294047D01*
X185972619Y-100341666D01*
X186067857Y-100389285D01*
X186210714Y-100389285D01*
X186305952Y-100341666D01*
X186353571Y-100294047D01*
X186401190Y-100198809D01*
X186401190Y-99817857D01*
X185877380Y-101294047D02*
X185877380Y-100817857D01*
X186353571Y-100770238D01*
X186305952Y-100817857D01*
X186258333Y-100913095D01*
X186258333Y-101151190D01*
X186305952Y-101246428D01*
X186353571Y-101294047D01*
X186448809Y-101341666D01*
X186686904Y-101341666D01*
X186782142Y-101294047D01*
X186829761Y-101246428D01*
X186877380Y-101151190D01*
X186877380Y-100913095D01*
X186829761Y-100817857D01*
X186782142Y-100770238D01*
X186964285Y-94866666D02*
X186488095Y-94866666D01*
X187059523Y-95152380D02*
X186726190Y-94152380D01*
X186392857Y-95152380D01*
X185869047Y-94152380D02*
X185773809Y-94152380D01*
X185678571Y-94200000D01*
X185630952Y-94247619D01*
X185583333Y-94342857D01*
X185535714Y-94533333D01*
X185535714Y-94771428D01*
X185583333Y-94961904D01*
X185630952Y-95057142D01*
X185678571Y-95104761D01*
X185773809Y-95152380D01*
X185869047Y-95152380D01*
X185964285Y-95104761D01*
X186011904Y-95057142D01*
X186059523Y-94961904D01*
X186107142Y-94771428D01*
X186107142Y-94533333D01*
X186059523Y-94342857D01*
X186011904Y-94247619D01*
X185964285Y-94200000D01*
X185869047Y-94152380D01*
%TO.C,R4*%
X200916666Y-88477380D02*
X201250000Y-88001190D01*
X201488095Y-88477380D02*
X201488095Y-87477380D01*
X201107142Y-87477380D01*
X201011904Y-87525000D01*
X200964285Y-87572619D01*
X200916666Y-87667857D01*
X200916666Y-87810714D01*
X200964285Y-87905952D01*
X201011904Y-87953571D01*
X201107142Y-88001190D01*
X201488095Y-88001190D01*
X200059523Y-87810714D02*
X200059523Y-88477380D01*
X200297619Y-87429761D02*
X200535714Y-88144047D01*
X199916666Y-88144047D01*
%TO.C,C2*%
X220082142Y-67908333D02*
X220129761Y-67860714D01*
X220177380Y-67717857D01*
X220177380Y-67622619D01*
X220129761Y-67479761D01*
X220034523Y-67384523D01*
X219939285Y-67336904D01*
X219748809Y-67289285D01*
X219605952Y-67289285D01*
X219415476Y-67336904D01*
X219320238Y-67384523D01*
X219225000Y-67479761D01*
X219177380Y-67622619D01*
X219177380Y-67717857D01*
X219225000Y-67860714D01*
X219272619Y-67908333D01*
X219272619Y-68289285D02*
X219225000Y-68336904D01*
X219177380Y-68432142D01*
X219177380Y-68670238D01*
X219225000Y-68765476D01*
X219272619Y-68813095D01*
X219367857Y-68860714D01*
X219463095Y-68860714D01*
X219605952Y-68813095D01*
X220177380Y-68241666D01*
X220177380Y-68860714D01*
%TO.C,R13*%
X200552380Y-75557142D02*
X200076190Y-75223809D01*
X200552380Y-74985714D02*
X199552380Y-74985714D01*
X199552380Y-75366666D01*
X199600000Y-75461904D01*
X199647619Y-75509523D01*
X199742857Y-75557142D01*
X199885714Y-75557142D01*
X199980952Y-75509523D01*
X200028571Y-75461904D01*
X200076190Y-75366666D01*
X200076190Y-74985714D01*
X200552380Y-76509523D02*
X200552380Y-75938095D01*
X200552380Y-76223809D02*
X199552380Y-76223809D01*
X199695238Y-76128571D01*
X199790476Y-76033333D01*
X199838095Y-75938095D01*
X199552380Y-76842857D02*
X199552380Y-77461904D01*
X199933333Y-77128571D01*
X199933333Y-77271428D01*
X199980952Y-77366666D01*
X200028571Y-77414285D01*
X200123809Y-77461904D01*
X200361904Y-77461904D01*
X200457142Y-77414285D01*
X200504761Y-77366666D01*
X200552380Y-77271428D01*
X200552380Y-76985714D01*
X200504761Y-76890476D01*
X200457142Y-76842857D01*
%TO.C,R7*%
X187541666Y-86877380D02*
X187875000Y-86401190D01*
X188113095Y-86877380D02*
X188113095Y-85877380D01*
X187732142Y-85877380D01*
X187636904Y-85925000D01*
X187589285Y-85972619D01*
X187541666Y-86067857D01*
X187541666Y-86210714D01*
X187589285Y-86305952D01*
X187636904Y-86353571D01*
X187732142Y-86401190D01*
X188113095Y-86401190D01*
X187208333Y-85877380D02*
X186541666Y-85877380D01*
X186970238Y-86877380D01*
%TO.C,R8*%
X183466666Y-90552380D02*
X183800000Y-90076190D01*
X184038095Y-90552380D02*
X184038095Y-89552380D01*
X183657142Y-89552380D01*
X183561904Y-89600000D01*
X183514285Y-89647619D01*
X183466666Y-89742857D01*
X183466666Y-89885714D01*
X183514285Y-89980952D01*
X183561904Y-90028571D01*
X183657142Y-90076190D01*
X184038095Y-90076190D01*
X182895238Y-89980952D02*
X182990476Y-89933333D01*
X183038095Y-89885714D01*
X183085714Y-89790476D01*
X183085714Y-89742857D01*
X183038095Y-89647619D01*
X182990476Y-89600000D01*
X182895238Y-89552380D01*
X182704761Y-89552380D01*
X182609523Y-89600000D01*
X182561904Y-89647619D01*
X182514285Y-89742857D01*
X182514285Y-89790476D01*
X182561904Y-89885714D01*
X182609523Y-89933333D01*
X182704761Y-89980952D01*
X182895238Y-89980952D01*
X182990476Y-90028571D01*
X183038095Y-90076190D01*
X183085714Y-90171428D01*
X183085714Y-90361904D01*
X183038095Y-90457142D01*
X182990476Y-90504761D01*
X182895238Y-90552380D01*
X182704761Y-90552380D01*
X182609523Y-90504761D01*
X182561904Y-90457142D01*
X182514285Y-90361904D01*
X182514285Y-90171428D01*
X182561904Y-90076190D01*
X182609523Y-90028571D01*
X182704761Y-89980952D01*
%TO.C,R11*%
X191052380Y-77182142D02*
X190576190Y-76848809D01*
X191052380Y-76610714D02*
X190052380Y-76610714D01*
X190052380Y-76991666D01*
X190100000Y-77086904D01*
X190147619Y-77134523D01*
X190242857Y-77182142D01*
X190385714Y-77182142D01*
X190480952Y-77134523D01*
X190528571Y-77086904D01*
X190576190Y-76991666D01*
X190576190Y-76610714D01*
X191052380Y-78134523D02*
X191052380Y-77563095D01*
X191052380Y-77848809D02*
X190052380Y-77848809D01*
X190195238Y-77753571D01*
X190290476Y-77658333D01*
X190338095Y-77563095D01*
X191052380Y-79086904D02*
X191052380Y-78515476D01*
X191052380Y-78801190D02*
X190052380Y-78801190D01*
X190195238Y-78705952D01*
X190290476Y-78610714D01*
X190338095Y-78515476D01*
%TO.C,R24*%
X206417857Y-82602380D02*
X206751190Y-82126190D01*
X206989285Y-82602380D02*
X206989285Y-81602380D01*
X206608333Y-81602380D01*
X206513095Y-81650000D01*
X206465476Y-81697619D01*
X206417857Y-81792857D01*
X206417857Y-81935714D01*
X206465476Y-82030952D01*
X206513095Y-82078571D01*
X206608333Y-82126190D01*
X206989285Y-82126190D01*
X206036904Y-81697619D02*
X205989285Y-81650000D01*
X205894047Y-81602380D01*
X205655952Y-81602380D01*
X205560714Y-81650000D01*
X205513095Y-81697619D01*
X205465476Y-81792857D01*
X205465476Y-81888095D01*
X205513095Y-82030952D01*
X206084523Y-82602380D01*
X205465476Y-82602380D01*
X204608333Y-81935714D02*
X204608333Y-82602380D01*
X204846428Y-81554761D02*
X205084523Y-82269047D01*
X204465476Y-82269047D01*
%TO.C,R22*%
X211402380Y-90357142D02*
X210926190Y-90023809D01*
X211402380Y-89785714D02*
X210402380Y-89785714D01*
X210402380Y-90166666D01*
X210450000Y-90261904D01*
X210497619Y-90309523D01*
X210592857Y-90357142D01*
X210735714Y-90357142D01*
X210830952Y-90309523D01*
X210878571Y-90261904D01*
X210926190Y-90166666D01*
X210926190Y-89785714D01*
X210497619Y-90738095D02*
X210450000Y-90785714D01*
X210402380Y-90880952D01*
X210402380Y-91119047D01*
X210450000Y-91214285D01*
X210497619Y-91261904D01*
X210592857Y-91309523D01*
X210688095Y-91309523D01*
X210830952Y-91261904D01*
X211402380Y-90690476D01*
X211402380Y-91309523D01*
X210497619Y-91690476D02*
X210450000Y-91738095D01*
X210402380Y-91833333D01*
X210402380Y-92071428D01*
X210450000Y-92166666D01*
X210497619Y-92214285D01*
X210592857Y-92261904D01*
X210688095Y-92261904D01*
X210830952Y-92214285D01*
X211402380Y-91642857D01*
X211402380Y-92261904D01*
%TO.C,R21*%
X221742857Y-81377380D02*
X222076190Y-80901190D01*
X222314285Y-81377380D02*
X222314285Y-80377380D01*
X221933333Y-80377380D01*
X221838095Y-80425000D01*
X221790476Y-80472619D01*
X221742857Y-80567857D01*
X221742857Y-80710714D01*
X221790476Y-80805952D01*
X221838095Y-80853571D01*
X221933333Y-80901190D01*
X222314285Y-80901190D01*
X221361904Y-80472619D02*
X221314285Y-80425000D01*
X221219047Y-80377380D01*
X220980952Y-80377380D01*
X220885714Y-80425000D01*
X220838095Y-80472619D01*
X220790476Y-80567857D01*
X220790476Y-80663095D01*
X220838095Y-80805952D01*
X221409523Y-81377380D01*
X220790476Y-81377380D01*
X219838095Y-81377380D02*
X220409523Y-81377380D01*
X220123809Y-81377380D02*
X220123809Y-80377380D01*
X220219047Y-80520238D01*
X220314285Y-80615476D01*
X220409523Y-80663095D01*
%TO.C,R15*%
X191802380Y-70657142D02*
X191326190Y-70323809D01*
X191802380Y-70085714D02*
X190802380Y-70085714D01*
X190802380Y-70466666D01*
X190850000Y-70561904D01*
X190897619Y-70609523D01*
X190992857Y-70657142D01*
X191135714Y-70657142D01*
X191230952Y-70609523D01*
X191278571Y-70561904D01*
X191326190Y-70466666D01*
X191326190Y-70085714D01*
X191802380Y-71609523D02*
X191802380Y-71038095D01*
X191802380Y-71323809D02*
X190802380Y-71323809D01*
X190945238Y-71228571D01*
X191040476Y-71133333D01*
X191088095Y-71038095D01*
X190802380Y-72514285D02*
X190802380Y-72038095D01*
X191278571Y-71990476D01*
X191230952Y-72038095D01*
X191183333Y-72133333D01*
X191183333Y-72371428D01*
X191230952Y-72466666D01*
X191278571Y-72514285D01*
X191373809Y-72561904D01*
X191611904Y-72561904D01*
X191707142Y-72514285D01*
X191754761Y-72466666D01*
X191802380Y-72371428D01*
X191802380Y-72133333D01*
X191754761Y-72038095D01*
X191707142Y-71990476D01*
%TO.C,R19*%
X205067857Y-96527380D02*
X205401190Y-96051190D01*
X205639285Y-96527380D02*
X205639285Y-95527380D01*
X205258333Y-95527380D01*
X205163095Y-95575000D01*
X205115476Y-95622619D01*
X205067857Y-95717857D01*
X205067857Y-95860714D01*
X205115476Y-95955952D01*
X205163095Y-96003571D01*
X205258333Y-96051190D01*
X205639285Y-96051190D01*
X204115476Y-96527380D02*
X204686904Y-96527380D01*
X204401190Y-96527380D02*
X204401190Y-95527380D01*
X204496428Y-95670238D01*
X204591666Y-95765476D01*
X204686904Y-95813095D01*
X203639285Y-96527380D02*
X203448809Y-96527380D01*
X203353571Y-96479761D01*
X203305952Y-96432142D01*
X203210714Y-96289285D01*
X203163095Y-96098809D01*
X203163095Y-95717857D01*
X203210714Y-95622619D01*
X203258333Y-95575000D01*
X203353571Y-95527380D01*
X203544047Y-95527380D01*
X203639285Y-95575000D01*
X203686904Y-95622619D01*
X203734523Y-95717857D01*
X203734523Y-95955952D01*
X203686904Y-96051190D01*
X203639285Y-96098809D01*
X203544047Y-96146428D01*
X203353571Y-96146428D01*
X203258333Y-96098809D01*
X203210714Y-96051190D01*
X203163095Y-95955952D01*
%TO.C,R9*%
X189691666Y-87227380D02*
X190025000Y-86751190D01*
X190263095Y-87227380D02*
X190263095Y-86227380D01*
X189882142Y-86227380D01*
X189786904Y-86275000D01*
X189739285Y-86322619D01*
X189691666Y-86417857D01*
X189691666Y-86560714D01*
X189739285Y-86655952D01*
X189786904Y-86703571D01*
X189882142Y-86751190D01*
X190263095Y-86751190D01*
X189215476Y-87227380D02*
X189025000Y-87227380D01*
X188929761Y-87179761D01*
X188882142Y-87132142D01*
X188786904Y-86989285D01*
X188739285Y-86798809D01*
X188739285Y-86417857D01*
X188786904Y-86322619D01*
X188834523Y-86275000D01*
X188929761Y-86227380D01*
X189120238Y-86227380D01*
X189215476Y-86275000D01*
X189263095Y-86322619D01*
X189310714Y-86417857D01*
X189310714Y-86655952D01*
X189263095Y-86751190D01*
X189215476Y-86798809D01*
X189120238Y-86846428D01*
X188929761Y-86846428D01*
X188834523Y-86798809D01*
X188786904Y-86751190D01*
X188739285Y-86655952D01*
%TO.C,R25*%
X215417857Y-88077380D02*
X215751190Y-87601190D01*
X215989285Y-88077380D02*
X215989285Y-87077380D01*
X215608333Y-87077380D01*
X215513095Y-87125000D01*
X215465476Y-87172619D01*
X215417857Y-87267857D01*
X215417857Y-87410714D01*
X215465476Y-87505952D01*
X215513095Y-87553571D01*
X215608333Y-87601190D01*
X215989285Y-87601190D01*
X215036904Y-87172619D02*
X214989285Y-87125000D01*
X214894047Y-87077380D01*
X214655952Y-87077380D01*
X214560714Y-87125000D01*
X214513095Y-87172619D01*
X214465476Y-87267857D01*
X214465476Y-87363095D01*
X214513095Y-87505952D01*
X215084523Y-88077380D01*
X214465476Y-88077380D01*
X213560714Y-87077380D02*
X214036904Y-87077380D01*
X214084523Y-87553571D01*
X214036904Y-87505952D01*
X213941666Y-87458333D01*
X213703571Y-87458333D01*
X213608333Y-87505952D01*
X213560714Y-87553571D01*
X213513095Y-87648809D01*
X213513095Y-87886904D01*
X213560714Y-87982142D01*
X213608333Y-88029761D01*
X213703571Y-88077380D01*
X213941666Y-88077380D01*
X214036904Y-88029761D01*
X214084523Y-87982142D01*
%TO.C,C7*%
X184966666Y-78882142D02*
X185014285Y-78929761D01*
X185157142Y-78977380D01*
X185252380Y-78977380D01*
X185395238Y-78929761D01*
X185490476Y-78834523D01*
X185538095Y-78739285D01*
X185585714Y-78548809D01*
X185585714Y-78405952D01*
X185538095Y-78215476D01*
X185490476Y-78120238D01*
X185395238Y-78025000D01*
X185252380Y-77977380D01*
X185157142Y-77977380D01*
X185014285Y-78025000D01*
X184966666Y-78072619D01*
X184633333Y-77977380D02*
X183966666Y-77977380D01*
X184395238Y-78977380D01*
%TO.C,C8*%
X184804166Y-76362142D02*
X184851785Y-76409761D01*
X184994642Y-76457380D01*
X185089880Y-76457380D01*
X185232738Y-76409761D01*
X185327976Y-76314523D01*
X185375595Y-76219285D01*
X185423214Y-76028809D01*
X185423214Y-75885952D01*
X185375595Y-75695476D01*
X185327976Y-75600238D01*
X185232738Y-75505000D01*
X185089880Y-75457380D01*
X184994642Y-75457380D01*
X184851785Y-75505000D01*
X184804166Y-75552619D01*
X184232738Y-75885952D02*
X184327976Y-75838333D01*
X184375595Y-75790714D01*
X184423214Y-75695476D01*
X184423214Y-75647857D01*
X184375595Y-75552619D01*
X184327976Y-75505000D01*
X184232738Y-75457380D01*
X184042261Y-75457380D01*
X183947023Y-75505000D01*
X183899404Y-75552619D01*
X183851785Y-75647857D01*
X183851785Y-75695476D01*
X183899404Y-75790714D01*
X183947023Y-75838333D01*
X184042261Y-75885952D01*
X184232738Y-75885952D01*
X184327976Y-75933571D01*
X184375595Y-75981190D01*
X184423214Y-76076428D01*
X184423214Y-76266904D01*
X184375595Y-76362142D01*
X184327976Y-76409761D01*
X184232738Y-76457380D01*
X184042261Y-76457380D01*
X183947023Y-76409761D01*
X183899404Y-76362142D01*
X183851785Y-76266904D01*
X183851785Y-76076428D01*
X183899404Y-75981190D01*
X183947023Y-75933571D01*
X184042261Y-75885952D01*
%TO.C,C16*%
X211232142Y-96257142D02*
X211279761Y-96209523D01*
X211327380Y-96066666D01*
X211327380Y-95971428D01*
X211279761Y-95828571D01*
X211184523Y-95733333D01*
X211089285Y-95685714D01*
X210898809Y-95638095D01*
X210755952Y-95638095D01*
X210565476Y-95685714D01*
X210470238Y-95733333D01*
X210375000Y-95828571D01*
X210327380Y-95971428D01*
X210327380Y-96066666D01*
X210375000Y-96209523D01*
X210422619Y-96257142D01*
X211327380Y-97209523D02*
X211327380Y-96638095D01*
X211327380Y-96923809D02*
X210327380Y-96923809D01*
X210470238Y-96828571D01*
X210565476Y-96733333D01*
X210613095Y-96638095D01*
X210327380Y-98066666D02*
X210327380Y-97876190D01*
X210375000Y-97780952D01*
X210422619Y-97733333D01*
X210565476Y-97638095D01*
X210755952Y-97590476D01*
X211136904Y-97590476D01*
X211232142Y-97638095D01*
X211279761Y-97685714D01*
X211327380Y-97780952D01*
X211327380Y-97971428D01*
X211279761Y-98066666D01*
X211232142Y-98114285D01*
X211136904Y-98161904D01*
X210898809Y-98161904D01*
X210803571Y-98114285D01*
X210755952Y-98066666D01*
X210708333Y-97971428D01*
X210708333Y-97780952D01*
X210755952Y-97685714D01*
X210803571Y-97638095D01*
X210898809Y-97590476D01*
%TO.C,R20*%
X221992857Y-87152380D02*
X222326190Y-86676190D01*
X222564285Y-87152380D02*
X222564285Y-86152380D01*
X222183333Y-86152380D01*
X222088095Y-86200000D01*
X222040476Y-86247619D01*
X221992857Y-86342857D01*
X221992857Y-86485714D01*
X222040476Y-86580952D01*
X222088095Y-86628571D01*
X222183333Y-86676190D01*
X222564285Y-86676190D01*
X221611904Y-86247619D02*
X221564285Y-86200000D01*
X221469047Y-86152380D01*
X221230952Y-86152380D01*
X221135714Y-86200000D01*
X221088095Y-86247619D01*
X221040476Y-86342857D01*
X221040476Y-86438095D01*
X221088095Y-86580952D01*
X221659523Y-87152380D01*
X221040476Y-87152380D01*
X220421428Y-86152380D02*
X220326190Y-86152380D01*
X220230952Y-86200000D01*
X220183333Y-86247619D01*
X220135714Y-86342857D01*
X220088095Y-86533333D01*
X220088095Y-86771428D01*
X220135714Y-86961904D01*
X220183333Y-87057142D01*
X220230952Y-87104761D01*
X220326190Y-87152380D01*
X220421428Y-87152380D01*
X220516666Y-87104761D01*
X220564285Y-87057142D01*
X220611904Y-86961904D01*
X220659523Y-86771428D01*
X220659523Y-86533333D01*
X220611904Y-86342857D01*
X220564285Y-86247619D01*
X220516666Y-86200000D01*
X220421428Y-86152380D01*
%TO.C,JP4*%
X188302380Y-99191666D02*
X189016666Y-99191666D01*
X189159523Y-99144047D01*
X189254761Y-99048809D01*
X189302380Y-98905952D01*
X189302380Y-98810714D01*
X189302380Y-99667857D02*
X188302380Y-99667857D01*
X188302380Y-100048809D01*
X188350000Y-100144047D01*
X188397619Y-100191666D01*
X188492857Y-100239285D01*
X188635714Y-100239285D01*
X188730952Y-100191666D01*
X188778571Y-100144047D01*
X188826190Y-100048809D01*
X188826190Y-99667857D01*
X188635714Y-101096428D02*
X189302380Y-101096428D01*
X188254761Y-100858333D02*
X188969047Y-100620238D01*
X188969047Y-101239285D01*
X189489285Y-94741666D02*
X189013095Y-94741666D01*
X189584523Y-95027380D02*
X189251190Y-94027380D01*
X188917857Y-95027380D01*
X188060714Y-95027380D02*
X188632142Y-95027380D01*
X188346428Y-95027380D02*
X188346428Y-94027380D01*
X188441666Y-94170238D01*
X188536904Y-94265476D01*
X188632142Y-94313095D01*
%TO.C,JP3*%
X190952380Y-99191666D02*
X191666666Y-99191666D01*
X191809523Y-99144047D01*
X191904761Y-99048809D01*
X191952380Y-98905952D01*
X191952380Y-98810714D01*
X191952380Y-99667857D02*
X190952380Y-99667857D01*
X190952380Y-100048809D01*
X191000000Y-100144047D01*
X191047619Y-100191666D01*
X191142857Y-100239285D01*
X191285714Y-100239285D01*
X191380952Y-100191666D01*
X191428571Y-100144047D01*
X191476190Y-100048809D01*
X191476190Y-99667857D01*
X190952380Y-100572619D02*
X190952380Y-101191666D01*
X191333333Y-100858333D01*
X191333333Y-101001190D01*
X191380952Y-101096428D01*
X191428571Y-101144047D01*
X191523809Y-101191666D01*
X191761904Y-101191666D01*
X191857142Y-101144047D01*
X191904761Y-101096428D01*
X191952380Y-101001190D01*
X191952380Y-100715476D01*
X191904761Y-100620238D01*
X191857142Y-100572619D01*
X192014285Y-95041666D02*
X191538095Y-95041666D01*
X192109523Y-95327380D02*
X191776190Y-94327380D01*
X191442857Y-95327380D01*
X191157142Y-94422619D02*
X191109523Y-94375000D01*
X191014285Y-94327380D01*
X190776190Y-94327380D01*
X190680952Y-94375000D01*
X190633333Y-94422619D01*
X190585714Y-94517857D01*
X190585714Y-94613095D01*
X190633333Y-94755952D01*
X191204761Y-95327380D01*
X190585714Y-95327380D01*
D11*
%TO.C,R18*%
X208290000Y-72297936D02*
X208290000Y-72752064D01*
X209760000Y-72297936D02*
X209760000Y-72752064D01*
%TO.C,R3*%
X196422936Y-89015000D02*
X196877064Y-89015000D01*
X196422936Y-90485000D02*
X196877064Y-90485000D01*
%TO.C,R17*%
X195815000Y-76122936D02*
X195815000Y-76577064D01*
X197285000Y-76122936D02*
X197285000Y-76577064D01*
%TO.C,JP2*%
X193075000Y-95600000D02*
X193075000Y-98400000D01*
X193075000Y-98400000D02*
X195075000Y-98400000D01*
X195075000Y-95600000D02*
X193075000Y-95600000D01*
X195075000Y-98400000D02*
X195075000Y-95600000D01*
%TO.C,R6*%
X183172936Y-83990000D02*
X183627064Y-83990000D01*
X183172936Y-85460000D02*
X183627064Y-85460000D01*
%TO.C,JP5*%
X187350000Y-98550000D02*
X187350000Y-95750000D01*
X187350000Y-95750000D02*
X185350000Y-95750000D01*
X185350000Y-98550000D02*
X187350000Y-98550000D01*
X185350000Y-95750000D02*
X185350000Y-98550000D01*
%TO.C,R4*%
X200652064Y-89015000D02*
X200197936Y-89015000D01*
X200652064Y-90485000D02*
X200197936Y-90485000D01*
%TO.C,C2*%
X222510000Y-67973752D02*
X222510000Y-67451248D01*
X221040000Y-67973752D02*
X221040000Y-67451248D01*
%TO.C,R13*%
X202635000Y-74672936D02*
X202635000Y-75127064D01*
X201165000Y-74672936D02*
X201165000Y-75127064D01*
%TO.C,R7*%
X187147936Y-85510000D02*
X187602064Y-85510000D01*
X187147936Y-84040000D02*
X187602064Y-84040000D01*
%TO.C,R8*%
X183072936Y-87715000D02*
X183527064Y-87715000D01*
X183072936Y-89185000D02*
X183527064Y-89185000D01*
%TO.C,R11*%
X189685000Y-78052064D02*
X189685000Y-77597936D01*
X188215000Y-78052064D02*
X188215000Y-77597936D01*
%TO.C,R24*%
X206022936Y-80835000D02*
X206477064Y-80835000D01*
X206022936Y-79365000D02*
X206477064Y-79365000D01*
%TO.C,R22*%
X208315000Y-91247936D02*
X208315000Y-91702064D01*
X209785000Y-91247936D02*
X209785000Y-91702064D01*
%TO.C,R21*%
X220997936Y-83160000D02*
X221452064Y-83160000D01*
X220997936Y-81690000D02*
X221452064Y-81690000D01*
%TO.C,R15*%
X192035000Y-74672936D02*
X192035000Y-75127064D01*
X190565000Y-74672936D02*
X190565000Y-75127064D01*
%TO.C,R19*%
X204747936Y-93065000D02*
X205202064Y-93065000D01*
X204747936Y-94535000D02*
X205202064Y-94535000D01*
%TO.C,R9*%
X189752064Y-89160000D02*
X189297936Y-89160000D01*
X189752064Y-87690000D02*
X189297936Y-87690000D01*
%TO.C,R25*%
X214547936Y-85240000D02*
X215002064Y-85240000D01*
X214547936Y-86710000D02*
X215002064Y-86710000D01*
%TO.C,C7*%
X184973752Y-75840000D02*
X184451248Y-75840000D01*
X184973752Y-77310000D02*
X184451248Y-77310000D01*
%TO.C,C8*%
X184376248Y-75060000D02*
X184898752Y-75060000D01*
X184376248Y-73590000D02*
X184898752Y-73590000D01*
%TO.C,C16*%
X208340000Y-95451248D02*
X208340000Y-95973752D01*
X209810000Y-95451248D02*
X209810000Y-95973752D01*
%TO.C,R20*%
X220997936Y-84240000D02*
X221452064Y-84240000D01*
X220997936Y-85710000D02*
X221452064Y-85710000D01*
%TO.C,JP4*%
X187825000Y-95700000D02*
X187825000Y-98500000D01*
X187825000Y-98500000D02*
X189825000Y-98500000D01*
X189825000Y-95700000D02*
X187825000Y-95700000D01*
X189825000Y-98500000D02*
X189825000Y-95700000D01*
%TO.C,JP3*%
X192425000Y-98450000D02*
X192425000Y-95650000D01*
X190425000Y-98450000D02*
X192425000Y-98450000D01*
X192425000Y-95650000D02*
X190425000Y-95650000D01*
X190425000Y-95650000D02*
X190425000Y-98450000D01*
%TD*%
M02*
