%TF.GenerationSoftware,KiCad,Pcbnew,6.0.11-2627ca5db0~126~ubuntu22.04.1*%
%TF.CreationDate,2023-02-17T22:47:29-05:00*%
%TF.ProjectId,lin-valve-control,6c696e2d-7661-46c7-9665-2d636f6e7472,1.0*%
%TF.SameCoordinates,Original*%
%TF.FileFunction,Legend,Top*%
%TF.FilePolarity,Positive*%
%FSLAX46Y46*%
G04 Gerber Fmt 4.6, Leading zero omitted, Abs format (unit mm)*
G04 Created by KiCad (PCBNEW 6.0.11-2627ca5db0~126~ubuntu22.04.1) date 2023-02-17 22:47:29*
%MOMM*%
%LPD*%
G01*
G04 APERTURE LIST*
%ADD10C,0.150000*%
%ADD11C,0.127000*%
%ADD12C,0.101600*%
%ADD13C,0.120000*%
%ADD14C,0.010000*%
%ADD15C,0.203200*%
%ADD16C,0.066040*%
G04 APERTURE END LIST*
D10*
X185384523Y-98527380D02*
X184908333Y-98527380D01*
X184908333Y-97527380D01*
X185717857Y-98527380D02*
X185717857Y-97527380D01*
X186194047Y-98527380D02*
X186194047Y-97527380D01*
X186765476Y-98527380D01*
X186765476Y-97527380D01*
X187575000Y-98003571D02*
X187717857Y-98051190D01*
X187765476Y-98098809D01*
X187813095Y-98194047D01*
X187813095Y-98336904D01*
X187765476Y-98432142D01*
X187717857Y-98479761D01*
X187622619Y-98527380D01*
X187241666Y-98527380D01*
X187241666Y-97527380D01*
X187575000Y-97527380D01*
X187670238Y-97575000D01*
X187717857Y-97622619D01*
X187765476Y-97717857D01*
X187765476Y-97813095D01*
X187717857Y-97908333D01*
X187670238Y-97955952D01*
X187575000Y-98003571D01*
X187241666Y-98003571D01*
X188670238Y-97860714D02*
X188670238Y-98527380D01*
X188241666Y-97860714D02*
X188241666Y-98384523D01*
X188289285Y-98479761D01*
X188384523Y-98527380D01*
X188527380Y-98527380D01*
X188622619Y-98479761D01*
X188670238Y-98432142D01*
X189098809Y-98479761D02*
X189194047Y-98527380D01*
X189384523Y-98527380D01*
X189479761Y-98479761D01*
X189527380Y-98384523D01*
X189527380Y-98336904D01*
X189479761Y-98241666D01*
X189384523Y-98194047D01*
X189241666Y-98194047D01*
X189146428Y-98146428D01*
X189098809Y-98051190D01*
X189098809Y-98003571D01*
X189146428Y-97908333D01*
X189241666Y-97860714D01*
X189384523Y-97860714D01*
X189479761Y-97908333D01*
X190575000Y-97527380D02*
X190908333Y-98527380D01*
X191241666Y-97527380D01*
X192003571Y-98527380D02*
X192003571Y-98003571D01*
X191955952Y-97908333D01*
X191860714Y-97860714D01*
X191670238Y-97860714D01*
X191575000Y-97908333D01*
X192003571Y-98479761D02*
X191908333Y-98527380D01*
X191670238Y-98527380D01*
X191575000Y-98479761D01*
X191527380Y-98384523D01*
X191527380Y-98289285D01*
X191575000Y-98194047D01*
X191670238Y-98146428D01*
X191908333Y-98146428D01*
X192003571Y-98098809D01*
X192622619Y-98527380D02*
X192527380Y-98479761D01*
X192479761Y-98384523D01*
X192479761Y-97527380D01*
X192908333Y-97860714D02*
X193146428Y-98527380D01*
X193384523Y-97860714D01*
X194146428Y-98479761D02*
X194051190Y-98527380D01*
X193860714Y-98527380D01*
X193765476Y-98479761D01*
X193717857Y-98384523D01*
X193717857Y-98003571D01*
X193765476Y-97908333D01*
X193860714Y-97860714D01*
X194051190Y-97860714D01*
X194146428Y-97908333D01*
X194194047Y-98003571D01*
X194194047Y-98098809D01*
X193717857Y-98194047D01*
X195955952Y-98432142D02*
X195908333Y-98479761D01*
X195765476Y-98527380D01*
X195670238Y-98527380D01*
X195527380Y-98479761D01*
X195432142Y-98384523D01*
X195384523Y-98289285D01*
X195336904Y-98098809D01*
X195336904Y-97955952D01*
X195384523Y-97765476D01*
X195432142Y-97670238D01*
X195527380Y-97575000D01*
X195670238Y-97527380D01*
X195765476Y-97527380D01*
X195908333Y-97575000D01*
X195955952Y-97622619D01*
X196527380Y-98527380D02*
X196432142Y-98479761D01*
X196384523Y-98432142D01*
X196336904Y-98336904D01*
X196336904Y-98051190D01*
X196384523Y-97955952D01*
X196432142Y-97908333D01*
X196527380Y-97860714D01*
X196670238Y-97860714D01*
X196765476Y-97908333D01*
X196813095Y-97955952D01*
X196860714Y-98051190D01*
X196860714Y-98336904D01*
X196813095Y-98432142D01*
X196765476Y-98479761D01*
X196670238Y-98527380D01*
X196527380Y-98527380D01*
X197289285Y-97860714D02*
X197289285Y-98527380D01*
X197289285Y-97955952D02*
X197336904Y-97908333D01*
X197432142Y-97860714D01*
X197575000Y-97860714D01*
X197670238Y-97908333D01*
X197717857Y-98003571D01*
X197717857Y-98527380D01*
X198051190Y-97860714D02*
X198432142Y-97860714D01*
X198194047Y-97527380D02*
X198194047Y-98384523D01*
X198241666Y-98479761D01*
X198336904Y-98527380D01*
X198432142Y-98527380D01*
X198765476Y-98527380D02*
X198765476Y-97860714D01*
X198765476Y-98051190D02*
X198813095Y-97955952D01*
X198860714Y-97908333D01*
X198955952Y-97860714D01*
X199051190Y-97860714D01*
X199527380Y-98527380D02*
X199432142Y-98479761D01*
X199384523Y-98432142D01*
X199336904Y-98336904D01*
X199336904Y-98051190D01*
X199384523Y-97955952D01*
X199432142Y-97908333D01*
X199527380Y-97860714D01*
X199670238Y-97860714D01*
X199765476Y-97908333D01*
X199813095Y-97955952D01*
X199860714Y-98051190D01*
X199860714Y-98336904D01*
X199813095Y-98432142D01*
X199765476Y-98479761D01*
X199670238Y-98527380D01*
X199527380Y-98527380D01*
X200432142Y-98527380D02*
X200336904Y-98479761D01*
X200289285Y-98384523D01*
X200289285Y-97527380D01*
X200955952Y-98527380D02*
X200860714Y-98479761D01*
X200813095Y-98384523D01*
X200813095Y-97527380D01*
X201717857Y-98479761D02*
X201622619Y-98527380D01*
X201432142Y-98527380D01*
X201336904Y-98479761D01*
X201289285Y-98384523D01*
X201289285Y-98003571D01*
X201336904Y-97908333D01*
X201432142Y-97860714D01*
X201622619Y-97860714D01*
X201717857Y-97908333D01*
X201765476Y-98003571D01*
X201765476Y-98098809D01*
X201289285Y-98194047D01*
X202194047Y-98527380D02*
X202194047Y-97860714D01*
X202194047Y-98051190D02*
X202241666Y-97955952D01*
X202289285Y-97908333D01*
X202384523Y-97860714D01*
X202479761Y-97860714D01*
X203479761Y-97860714D02*
X203717857Y-98527380D01*
X203955952Y-97860714D01*
X204860714Y-98527380D02*
X204289285Y-98527380D01*
X204575000Y-98527380D02*
X204575000Y-97527380D01*
X204479761Y-97670238D01*
X204384523Y-97765476D01*
X204289285Y-97813095D01*
X205289285Y-98432142D02*
X205336904Y-98479761D01*
X205289285Y-98527380D01*
X205241666Y-98479761D01*
X205289285Y-98432142D01*
X205289285Y-98527380D01*
X205955952Y-97527380D02*
X206051190Y-97527380D01*
X206146428Y-97575000D01*
X206194047Y-97622619D01*
X206241666Y-97717857D01*
X206289285Y-97908333D01*
X206289285Y-98146428D01*
X206241666Y-98336904D01*
X206194047Y-98432142D01*
X206146428Y-98479761D01*
X206051190Y-98527380D01*
X205955952Y-98527380D01*
X205860714Y-98479761D01*
X205813095Y-98432142D01*
X205765476Y-98336904D01*
X205717857Y-98146428D01*
X205717857Y-97908333D01*
X205765476Y-97717857D01*
X205813095Y-97622619D01*
X205860714Y-97575000D01*
X205955952Y-97527380D01*
X220027380Y-70509523D02*
X220027380Y-70985714D01*
X219027380Y-70985714D01*
X220027380Y-70176190D02*
X219027380Y-70176190D01*
X220027380Y-69700000D02*
X219027380Y-69700000D01*
X220027380Y-69128571D01*
X219027380Y-69128571D01*
X219503571Y-68319047D02*
X219551190Y-68176190D01*
X219598809Y-68128571D01*
X219694047Y-68080952D01*
X219836904Y-68080952D01*
X219932142Y-68128571D01*
X219979761Y-68176190D01*
X220027380Y-68271428D01*
X220027380Y-68652380D01*
X219027380Y-68652380D01*
X219027380Y-68319047D01*
X219075000Y-68223809D01*
X219122619Y-68176190D01*
X219217857Y-68128571D01*
X219313095Y-68128571D01*
X219408333Y-68176190D01*
X219455952Y-68223809D01*
X219503571Y-68319047D01*
X219503571Y-68652380D01*
X219360714Y-67223809D02*
X220027380Y-67223809D01*
X219360714Y-67652380D02*
X219884523Y-67652380D01*
X219979761Y-67604761D01*
X220027380Y-67509523D01*
X220027380Y-67366666D01*
X219979761Y-67271428D01*
X219932142Y-67223809D01*
X219979761Y-66795238D02*
X220027380Y-66700000D01*
X220027380Y-66509523D01*
X219979761Y-66414285D01*
X219884523Y-66366666D01*
X219836904Y-66366666D01*
X219741666Y-66414285D01*
X219694047Y-66509523D01*
X219694047Y-66652380D01*
X219646428Y-66747619D01*
X219551190Y-66795238D01*
X219503571Y-66795238D01*
X219408333Y-66747619D01*
X219360714Y-66652380D01*
X219360714Y-66509523D01*
X219408333Y-66414285D01*
X219027380Y-80682142D02*
X220027380Y-80348809D01*
X219027380Y-80015476D01*
X220027380Y-79253571D02*
X219503571Y-79253571D01*
X219408333Y-79301190D01*
X219360714Y-79396428D01*
X219360714Y-79586904D01*
X219408333Y-79682142D01*
X219979761Y-79253571D02*
X220027380Y-79348809D01*
X220027380Y-79586904D01*
X219979761Y-79682142D01*
X219884523Y-79729761D01*
X219789285Y-79729761D01*
X219694047Y-79682142D01*
X219646428Y-79586904D01*
X219646428Y-79348809D01*
X219598809Y-79253571D01*
X220027380Y-78634523D02*
X219979761Y-78729761D01*
X219884523Y-78777380D01*
X219027380Y-78777380D01*
X219360714Y-78348809D02*
X220027380Y-78110714D01*
X219360714Y-77872619D01*
X219979761Y-77110714D02*
X220027380Y-77205952D01*
X220027380Y-77396428D01*
X219979761Y-77491666D01*
X219884523Y-77539285D01*
X219503571Y-77539285D01*
X219408333Y-77491666D01*
X219360714Y-77396428D01*
X219360714Y-77205952D01*
X219408333Y-77110714D01*
X219503571Y-77063095D01*
X219598809Y-77063095D01*
X219694047Y-77539285D01*
X181488095Y-85202380D02*
X181488095Y-84202380D01*
X181916666Y-84297619D02*
X181964285Y-84250000D01*
X182059523Y-84202380D01*
X182297619Y-84202380D01*
X182392857Y-84250000D01*
X182440476Y-84297619D01*
X182488095Y-84392857D01*
X182488095Y-84488095D01*
X182440476Y-84630952D01*
X181869047Y-85202380D01*
X182488095Y-85202380D01*
X183488095Y-85107142D02*
X183440476Y-85154761D01*
X183297619Y-85202380D01*
X183202380Y-85202380D01*
X183059523Y-85154761D01*
X182964285Y-85059523D01*
X182916666Y-84964285D01*
X182869047Y-84773809D01*
X182869047Y-84630952D01*
X182916666Y-84440476D01*
X182964285Y-84345238D01*
X183059523Y-84250000D01*
X183202380Y-84202380D01*
X183297619Y-84202380D01*
X183440476Y-84250000D01*
X183488095Y-84297619D01*
X185154761Y-85202380D02*
X184678571Y-85202380D01*
X184678571Y-84202380D01*
X186059523Y-85107142D02*
X186011904Y-85154761D01*
X185869047Y-85202380D01*
X185773809Y-85202380D01*
X185630952Y-85154761D01*
X185535714Y-85059523D01*
X185488095Y-84964285D01*
X185440476Y-84773809D01*
X185440476Y-84630952D01*
X185488095Y-84440476D01*
X185535714Y-84345238D01*
X185630952Y-84250000D01*
X185773809Y-84202380D01*
X185869047Y-84202380D01*
X186011904Y-84250000D01*
X186059523Y-84297619D01*
X186488095Y-85202380D02*
X186488095Y-84202380D01*
X186726190Y-84202380D01*
X186869047Y-84250000D01*
X186964285Y-84345238D01*
X187011904Y-84440476D01*
X187059523Y-84630952D01*
X187059523Y-84773809D01*
X187011904Y-84964285D01*
X186964285Y-85059523D01*
X186869047Y-85154761D01*
X186726190Y-85202380D01*
X186488095Y-85202380D01*
X187794047Y-100808333D02*
X187746428Y-100760714D01*
X187651190Y-100617857D01*
X187603571Y-100522619D01*
X187555952Y-100379761D01*
X187508333Y-100141666D01*
X187508333Y-99951190D01*
X187555952Y-99713095D01*
X187603571Y-99570238D01*
X187651190Y-99475000D01*
X187746428Y-99332142D01*
X187794047Y-99284523D01*
X188603571Y-100379761D02*
X188508333Y-100427380D01*
X188317857Y-100427380D01*
X188222619Y-100379761D01*
X188175000Y-100332142D01*
X188127380Y-100236904D01*
X188127380Y-99951190D01*
X188175000Y-99855952D01*
X188222619Y-99808333D01*
X188317857Y-99760714D01*
X188508333Y-99760714D01*
X188603571Y-99808333D01*
X188936904Y-100808333D02*
X188984523Y-100760714D01*
X189079761Y-100617857D01*
X189127380Y-100522619D01*
X189175000Y-100379761D01*
X189222619Y-100141666D01*
X189222619Y-99951190D01*
X189175000Y-99713095D01*
X189127380Y-99570238D01*
X189079761Y-99475000D01*
X188984523Y-99332142D01*
X188936904Y-99284523D01*
X190413095Y-99522619D02*
X190460714Y-99475000D01*
X190555952Y-99427380D01*
X190794047Y-99427380D01*
X190889285Y-99475000D01*
X190936904Y-99522619D01*
X190984523Y-99617857D01*
X190984523Y-99713095D01*
X190936904Y-99855952D01*
X190365476Y-100427380D01*
X190984523Y-100427380D01*
X191603571Y-99427380D02*
X191698809Y-99427380D01*
X191794047Y-99475000D01*
X191841666Y-99522619D01*
X191889285Y-99617857D01*
X191936904Y-99808333D01*
X191936904Y-100046428D01*
X191889285Y-100236904D01*
X191841666Y-100332142D01*
X191794047Y-100379761D01*
X191698809Y-100427380D01*
X191603571Y-100427380D01*
X191508333Y-100379761D01*
X191460714Y-100332142D01*
X191413095Y-100236904D01*
X191365476Y-100046428D01*
X191365476Y-99808333D01*
X191413095Y-99617857D01*
X191460714Y-99522619D01*
X191508333Y-99475000D01*
X191603571Y-99427380D01*
X192317857Y-99522619D02*
X192365476Y-99475000D01*
X192460714Y-99427380D01*
X192698809Y-99427380D01*
X192794047Y-99475000D01*
X192841666Y-99522619D01*
X192889285Y-99617857D01*
X192889285Y-99713095D01*
X192841666Y-99855952D01*
X192270238Y-100427380D01*
X192889285Y-100427380D01*
X193222619Y-99427380D02*
X193841666Y-99427380D01*
X193508333Y-99808333D01*
X193651190Y-99808333D01*
X193746428Y-99855952D01*
X193794047Y-99903571D01*
X193841666Y-99998809D01*
X193841666Y-100236904D01*
X193794047Y-100332142D01*
X193746428Y-100379761D01*
X193651190Y-100427380D01*
X193365476Y-100427380D01*
X193270238Y-100379761D01*
X193222619Y-100332142D01*
X195555952Y-99475000D02*
X195460714Y-99427380D01*
X195317857Y-99427380D01*
X195175000Y-99475000D01*
X195079761Y-99570238D01*
X195032142Y-99665476D01*
X194984523Y-99855952D01*
X194984523Y-99998809D01*
X195032142Y-100189285D01*
X195079761Y-100284523D01*
X195175000Y-100379761D01*
X195317857Y-100427380D01*
X195413095Y-100427380D01*
X195555952Y-100379761D01*
X195603571Y-100332142D01*
X195603571Y-99998809D01*
X195413095Y-99998809D01*
X196460714Y-100427380D02*
X196460714Y-99903571D01*
X196413095Y-99808333D01*
X196317857Y-99760714D01*
X196127380Y-99760714D01*
X196032142Y-99808333D01*
X196460714Y-100379761D02*
X196365476Y-100427380D01*
X196127380Y-100427380D01*
X196032142Y-100379761D01*
X195984523Y-100284523D01*
X195984523Y-100189285D01*
X196032142Y-100094047D01*
X196127380Y-100046428D01*
X196365476Y-100046428D01*
X196460714Y-99998809D01*
X196841666Y-99760714D02*
X197079761Y-100427380D01*
X197317857Y-99760714D01*
X197698809Y-100427380D02*
X197698809Y-99760714D01*
X197698809Y-99427380D02*
X197651190Y-99475000D01*
X197698809Y-99522619D01*
X197746428Y-99475000D01*
X197698809Y-99427380D01*
X197698809Y-99522619D01*
X198175000Y-99760714D02*
X198175000Y-100427380D01*
X198175000Y-99855952D02*
X198222619Y-99808333D01*
X198317857Y-99760714D01*
X198460714Y-99760714D01*
X198555952Y-99808333D01*
X198603571Y-99903571D01*
X198603571Y-100427380D01*
X199841666Y-100427380D02*
X199841666Y-99427380D01*
X199841666Y-99903571D02*
X200413095Y-99903571D01*
X200413095Y-100427380D02*
X200413095Y-99427380D01*
X201317857Y-99760714D02*
X201317857Y-100427380D01*
X200889285Y-99760714D02*
X200889285Y-100284523D01*
X200936904Y-100379761D01*
X201032142Y-100427380D01*
X201175000Y-100427380D01*
X201270238Y-100379761D01*
X201317857Y-100332142D01*
X201794047Y-100427380D02*
X201794047Y-99760714D01*
X201794047Y-99951190D02*
X201841666Y-99855952D01*
X201889285Y-99808333D01*
X201984523Y-99760714D01*
X202079761Y-99760714D01*
X202555952Y-100427380D02*
X202460714Y-100379761D01*
X202413095Y-100284523D01*
X202413095Y-99427380D01*
X202936904Y-100427380D02*
X202936904Y-99427380D01*
X202936904Y-99808333D02*
X203032142Y-99760714D01*
X203222619Y-99760714D01*
X203317857Y-99808333D01*
X203365476Y-99855952D01*
X203413095Y-99951190D01*
X203413095Y-100236904D01*
X203365476Y-100332142D01*
X203317857Y-100379761D01*
X203222619Y-100427380D01*
X203032142Y-100427380D01*
X202936904Y-100379761D01*
X204270238Y-99760714D02*
X204270238Y-100427380D01*
X203841666Y-99760714D02*
X203841666Y-100284523D01*
X203889285Y-100379761D01*
X203984523Y-100427380D01*
X204127380Y-100427380D01*
X204222619Y-100379761D01*
X204270238Y-100332142D01*
X204603571Y-99760714D02*
X204984523Y-99760714D01*
X204746428Y-99427380D02*
X204746428Y-100284523D01*
X204794047Y-100379761D01*
X204889285Y-100427380D01*
X204984523Y-100427380D01*
%TO.C,U2*%
X207288095Y-97302380D02*
X207288095Y-98111904D01*
X207335714Y-98207142D01*
X207383333Y-98254761D01*
X207478571Y-98302380D01*
X207669047Y-98302380D01*
X207764285Y-98254761D01*
X207811904Y-98207142D01*
X207859523Y-98111904D01*
X207859523Y-97302380D01*
X208288095Y-97397619D02*
X208335714Y-97350000D01*
X208430952Y-97302380D01*
X208669047Y-97302380D01*
X208764285Y-97350000D01*
X208811904Y-97397619D01*
X208859523Y-97492857D01*
X208859523Y-97588095D01*
X208811904Y-97730952D01*
X208240476Y-98302380D01*
X208859523Y-98302380D01*
X202025000Y-90877380D02*
X202025000Y-91115476D01*
X201786904Y-91020238D02*
X202025000Y-91115476D01*
X202263095Y-91020238D01*
X201882142Y-91305952D02*
X202025000Y-91115476D01*
X202167857Y-91305952D01*
%TO.C,U6*%
X213677380Y-86986904D02*
X214486904Y-86986904D01*
X214582142Y-86939285D01*
X214629761Y-86891666D01*
X214677380Y-86796428D01*
X214677380Y-86605952D01*
X214629761Y-86510714D01*
X214582142Y-86463095D01*
X214486904Y-86415476D01*
X213677380Y-86415476D01*
X213677380Y-85510714D02*
X213677380Y-85701190D01*
X213725000Y-85796428D01*
X213772619Y-85844047D01*
X213915476Y-85939285D01*
X214105952Y-85986904D01*
X214486904Y-85986904D01*
X214582142Y-85939285D01*
X214629761Y-85891666D01*
X214677380Y-85796428D01*
X214677380Y-85605952D01*
X214629761Y-85510714D01*
X214582142Y-85463095D01*
X214486904Y-85415476D01*
X214248809Y-85415476D01*
X214153571Y-85463095D01*
X214105952Y-85510714D01*
X214058333Y-85605952D01*
X214058333Y-85796428D01*
X214105952Y-85891666D01*
X214153571Y-85939285D01*
X214248809Y-85986904D01*
X214072619Y-82975000D02*
X213834523Y-82975000D01*
X213929761Y-82736904D02*
X213834523Y-82975000D01*
X213929761Y-83213095D01*
X213644047Y-82832142D02*
X213834523Y-82975000D01*
X213644047Y-83117857D01*
%TO.C,D3*%
X216261904Y-89227380D02*
X216261904Y-88227380D01*
X216500000Y-88227380D01*
X216642857Y-88275000D01*
X216738095Y-88370238D01*
X216785714Y-88465476D01*
X216833333Y-88655952D01*
X216833333Y-88798809D01*
X216785714Y-88989285D01*
X216738095Y-89084523D01*
X216642857Y-89179761D01*
X216500000Y-89227380D01*
X216261904Y-89227380D01*
X217166666Y-88227380D02*
X217785714Y-88227380D01*
X217452380Y-88608333D01*
X217595238Y-88608333D01*
X217690476Y-88655952D01*
X217738095Y-88703571D01*
X217785714Y-88798809D01*
X217785714Y-89036904D01*
X217738095Y-89132142D01*
X217690476Y-89179761D01*
X217595238Y-89227380D01*
X217309523Y-89227380D01*
X217214285Y-89179761D01*
X217166666Y-89132142D01*
%TO.C,U3*%
X187138095Y-90052380D02*
X187138095Y-90861904D01*
X187185714Y-90957142D01*
X187233333Y-91004761D01*
X187328571Y-91052380D01*
X187519047Y-91052380D01*
X187614285Y-91004761D01*
X187661904Y-90957142D01*
X187709523Y-90861904D01*
X187709523Y-90052380D01*
X188090476Y-90052380D02*
X188709523Y-90052380D01*
X188376190Y-90433333D01*
X188519047Y-90433333D01*
X188614285Y-90480952D01*
X188661904Y-90528571D01*
X188709523Y-90623809D01*
X188709523Y-90861904D01*
X188661904Y-90957142D01*
X188614285Y-91004761D01*
X188519047Y-91052380D01*
X188233333Y-91052380D01*
X188138095Y-91004761D01*
X188090476Y-90957142D01*
X184450000Y-91002380D02*
X184450000Y-91240476D01*
X184211904Y-91145238D02*
X184450000Y-91240476D01*
X184688095Y-91145238D01*
X184307142Y-91430952D02*
X184450000Y-91240476D01*
X184592857Y-91430952D01*
%TO.C,R23*%
X217002380Y-83717857D02*
X216526190Y-84051190D01*
X217002380Y-84289285D02*
X216002380Y-84289285D01*
X216002380Y-83908333D01*
X216050000Y-83813095D01*
X216097619Y-83765476D01*
X216192857Y-83717857D01*
X216335714Y-83717857D01*
X216430952Y-83765476D01*
X216478571Y-83813095D01*
X216526190Y-83908333D01*
X216526190Y-84289285D01*
X216097619Y-83336904D02*
X216050000Y-83289285D01*
X216002380Y-83194047D01*
X216002380Y-82955952D01*
X216050000Y-82860714D01*
X216097619Y-82813095D01*
X216192857Y-82765476D01*
X216288095Y-82765476D01*
X216430952Y-82813095D01*
X217002380Y-83384523D01*
X217002380Y-82765476D01*
X216002380Y-82432142D02*
X216002380Y-81813095D01*
X216383333Y-82146428D01*
X216383333Y-82003571D01*
X216430952Y-81908333D01*
X216478571Y-81860714D01*
X216573809Y-81813095D01*
X216811904Y-81813095D01*
X216907142Y-81860714D01*
X216954761Y-81908333D01*
X217002380Y-82003571D01*
X217002380Y-82289285D01*
X216954761Y-82384523D01*
X216907142Y-82432142D01*
%TO.C,R12*%
X205357142Y-76002380D02*
X205023809Y-75526190D01*
X204785714Y-76002380D02*
X204785714Y-75002380D01*
X205166666Y-75002380D01*
X205261904Y-75050000D01*
X205309523Y-75097619D01*
X205357142Y-75192857D01*
X205357142Y-75335714D01*
X205309523Y-75430952D01*
X205261904Y-75478571D01*
X205166666Y-75526190D01*
X204785714Y-75526190D01*
X206309523Y-76002380D02*
X205738095Y-76002380D01*
X206023809Y-76002380D02*
X206023809Y-75002380D01*
X205928571Y-75145238D01*
X205833333Y-75240476D01*
X205738095Y-75288095D01*
X206690476Y-75097619D02*
X206738095Y-75050000D01*
X206833333Y-75002380D01*
X207071428Y-75002380D01*
X207166666Y-75050000D01*
X207214285Y-75097619D01*
X207261904Y-75192857D01*
X207261904Y-75288095D01*
X207214285Y-75430952D01*
X206642857Y-76002380D01*
X207261904Y-76002380D01*
%TO.C,C10*%
X176707142Y-69942857D02*
X176754761Y-69990476D01*
X176802380Y-70133333D01*
X176802380Y-70228571D01*
X176754761Y-70371428D01*
X176659523Y-70466666D01*
X176564285Y-70514285D01*
X176373809Y-70561904D01*
X176230952Y-70561904D01*
X176040476Y-70514285D01*
X175945238Y-70466666D01*
X175850000Y-70371428D01*
X175802380Y-70228571D01*
X175802380Y-70133333D01*
X175850000Y-69990476D01*
X175897619Y-69942857D01*
X176802380Y-68990476D02*
X176802380Y-69561904D01*
X176802380Y-69276190D02*
X175802380Y-69276190D01*
X175945238Y-69371428D01*
X176040476Y-69466666D01*
X176088095Y-69561904D01*
X175802380Y-68371428D02*
X175802380Y-68276190D01*
X175850000Y-68180952D01*
X175897619Y-68133333D01*
X175992857Y-68085714D01*
X176183333Y-68038095D01*
X176421428Y-68038095D01*
X176611904Y-68085714D01*
X176707142Y-68133333D01*
X176754761Y-68180952D01*
X176802380Y-68276190D01*
X176802380Y-68371428D01*
X176754761Y-68466666D01*
X176707142Y-68514285D01*
X176611904Y-68561904D01*
X176421428Y-68609523D01*
X176183333Y-68609523D01*
X175992857Y-68561904D01*
X175897619Y-68514285D01*
X175850000Y-68466666D01*
X175802380Y-68371428D01*
%TO.C,R5*%
X218833333Y-100102380D02*
X218500000Y-99626190D01*
X218261904Y-100102380D02*
X218261904Y-99102380D01*
X218642857Y-99102380D01*
X218738095Y-99150000D01*
X218785714Y-99197619D01*
X218833333Y-99292857D01*
X218833333Y-99435714D01*
X218785714Y-99530952D01*
X218738095Y-99578571D01*
X218642857Y-99626190D01*
X218261904Y-99626190D01*
X219738095Y-99102380D02*
X219261904Y-99102380D01*
X219214285Y-99578571D01*
X219261904Y-99530952D01*
X219357142Y-99483333D01*
X219595238Y-99483333D01*
X219690476Y-99530952D01*
X219738095Y-99578571D01*
X219785714Y-99673809D01*
X219785714Y-99911904D01*
X219738095Y-100007142D01*
X219690476Y-100054761D01*
X219595238Y-100102380D01*
X219357142Y-100102380D01*
X219261904Y-100054761D01*
X219214285Y-100007142D01*
%TO.C,F1*%
X221566666Y-60528571D02*
X221233333Y-60528571D01*
X221233333Y-61052380D02*
X221233333Y-60052380D01*
X221709523Y-60052380D01*
X222614285Y-61052380D02*
X222042857Y-61052380D01*
X222328571Y-61052380D02*
X222328571Y-60052380D01*
X222233333Y-60195238D01*
X222138095Y-60290476D01*
X222042857Y-60338095D01*
%TO.C,D2*%
X199561904Y-62452380D02*
X199561904Y-61452380D01*
X199800000Y-61452380D01*
X199942857Y-61500000D01*
X200038095Y-61595238D01*
X200085714Y-61690476D01*
X200133333Y-61880952D01*
X200133333Y-62023809D01*
X200085714Y-62214285D01*
X200038095Y-62309523D01*
X199942857Y-62404761D01*
X199800000Y-62452380D01*
X199561904Y-62452380D01*
X200514285Y-61547619D02*
X200561904Y-61500000D01*
X200657142Y-61452380D01*
X200895238Y-61452380D01*
X200990476Y-61500000D01*
X201038095Y-61547619D01*
X201085714Y-61642857D01*
X201085714Y-61738095D01*
X201038095Y-61880952D01*
X200466666Y-62452380D01*
X201085714Y-62452380D01*
%TO.C,C11*%
X178882142Y-74907142D02*
X178834523Y-74954761D01*
X178691666Y-75002380D01*
X178596428Y-75002380D01*
X178453571Y-74954761D01*
X178358333Y-74859523D01*
X178310714Y-74764285D01*
X178263095Y-74573809D01*
X178263095Y-74430952D01*
X178310714Y-74240476D01*
X178358333Y-74145238D01*
X178453571Y-74050000D01*
X178596428Y-74002380D01*
X178691666Y-74002380D01*
X178834523Y-74050000D01*
X178882142Y-74097619D01*
X179834523Y-75002380D02*
X179263095Y-75002380D01*
X179548809Y-75002380D02*
X179548809Y-74002380D01*
X179453571Y-74145238D01*
X179358333Y-74240476D01*
X179263095Y-74288095D01*
X180786904Y-75002380D02*
X180215476Y-75002380D01*
X180501190Y-75002380D02*
X180501190Y-74002380D01*
X180405952Y-74145238D01*
X180310714Y-74240476D01*
X180215476Y-74288095D01*
%TO.C,C5*%
X197933333Y-67557142D02*
X197885714Y-67604761D01*
X197742857Y-67652380D01*
X197647619Y-67652380D01*
X197504761Y-67604761D01*
X197409523Y-67509523D01*
X197361904Y-67414285D01*
X197314285Y-67223809D01*
X197314285Y-67080952D01*
X197361904Y-66890476D01*
X197409523Y-66795238D01*
X197504761Y-66700000D01*
X197647619Y-66652380D01*
X197742857Y-66652380D01*
X197885714Y-66700000D01*
X197933333Y-66747619D01*
X198838095Y-66652380D02*
X198361904Y-66652380D01*
X198314285Y-67128571D01*
X198361904Y-67080952D01*
X198457142Y-67033333D01*
X198695238Y-67033333D01*
X198790476Y-67080952D01*
X198838095Y-67128571D01*
X198885714Y-67223809D01*
X198885714Y-67461904D01*
X198838095Y-67557142D01*
X198790476Y-67604761D01*
X198695238Y-67652380D01*
X198457142Y-67652380D01*
X198361904Y-67604761D01*
X198314285Y-67557142D01*
%TO.C,C12*%
X207157142Y-65557142D02*
X207109523Y-65604761D01*
X206966666Y-65652380D01*
X206871428Y-65652380D01*
X206728571Y-65604761D01*
X206633333Y-65509523D01*
X206585714Y-65414285D01*
X206538095Y-65223809D01*
X206538095Y-65080952D01*
X206585714Y-64890476D01*
X206633333Y-64795238D01*
X206728571Y-64700000D01*
X206871428Y-64652380D01*
X206966666Y-64652380D01*
X207109523Y-64700000D01*
X207157142Y-64747619D01*
X208109523Y-65652380D02*
X207538095Y-65652380D01*
X207823809Y-65652380D02*
X207823809Y-64652380D01*
X207728571Y-64795238D01*
X207633333Y-64890476D01*
X207538095Y-64938095D01*
X208490476Y-64747619D02*
X208538095Y-64700000D01*
X208633333Y-64652380D01*
X208871428Y-64652380D01*
X208966666Y-64700000D01*
X209014285Y-64747619D01*
X209061904Y-64842857D01*
X209061904Y-64938095D01*
X209014285Y-65080952D01*
X208442857Y-65652380D01*
X209061904Y-65652380D01*
%TO.C,C9*%
X176957142Y-64516666D02*
X177004761Y-64564285D01*
X177052380Y-64707142D01*
X177052380Y-64802380D01*
X177004761Y-64945238D01*
X176909523Y-65040476D01*
X176814285Y-65088095D01*
X176623809Y-65135714D01*
X176480952Y-65135714D01*
X176290476Y-65088095D01*
X176195238Y-65040476D01*
X176100000Y-64945238D01*
X176052380Y-64802380D01*
X176052380Y-64707142D01*
X176100000Y-64564285D01*
X176147619Y-64516666D01*
X177052380Y-64040476D02*
X177052380Y-63850000D01*
X177004761Y-63754761D01*
X176957142Y-63707142D01*
X176814285Y-63611904D01*
X176623809Y-63564285D01*
X176242857Y-63564285D01*
X176147619Y-63611904D01*
X176100000Y-63659523D01*
X176052380Y-63754761D01*
X176052380Y-63945238D01*
X176100000Y-64040476D01*
X176147619Y-64088095D01*
X176242857Y-64135714D01*
X176480952Y-64135714D01*
X176576190Y-64088095D01*
X176623809Y-64040476D01*
X176671428Y-63945238D01*
X176671428Y-63754761D01*
X176623809Y-63659523D01*
X176576190Y-63611904D01*
X176480952Y-63564285D01*
%TO.C,J2*%
X176791666Y-81552380D02*
X176791666Y-82266666D01*
X176744047Y-82409523D01*
X176648809Y-82504761D01*
X176505952Y-82552380D01*
X176410714Y-82552380D01*
X177220238Y-81647619D02*
X177267857Y-81600000D01*
X177363095Y-81552380D01*
X177601190Y-81552380D01*
X177696428Y-81600000D01*
X177744047Y-81647619D01*
X177791666Y-81742857D01*
X177791666Y-81838095D01*
X177744047Y-81980952D01*
X177172619Y-82552380D01*
X177791666Y-82552380D01*
%TO.C,U1*%
X194627380Y-88086904D02*
X195436904Y-88086904D01*
X195532142Y-88039285D01*
X195579761Y-87991666D01*
X195627380Y-87896428D01*
X195627380Y-87705952D01*
X195579761Y-87610714D01*
X195532142Y-87563095D01*
X195436904Y-87515476D01*
X194627380Y-87515476D01*
X195627380Y-86515476D02*
X195627380Y-87086904D01*
X195627380Y-86801190D02*
X194627380Y-86801190D01*
X194770238Y-86896428D01*
X194865476Y-86991666D01*
X194913095Y-87086904D01*
X195402380Y-91450000D02*
X195640476Y-91450000D01*
X195545238Y-91688095D02*
X195640476Y-91450000D01*
X195545238Y-91211904D01*
X195830952Y-91592857D02*
X195640476Y-91450000D01*
X195830952Y-91307142D01*
%TO.C,Q1*%
X191572619Y-87395238D02*
X191525000Y-87490476D01*
X191429761Y-87585714D01*
X191286904Y-87728571D01*
X191239285Y-87823809D01*
X191239285Y-87919047D01*
X191477380Y-87871428D02*
X191429761Y-87966666D01*
X191334523Y-88061904D01*
X191144047Y-88109523D01*
X190810714Y-88109523D01*
X190620238Y-88061904D01*
X190525000Y-87966666D01*
X190477380Y-87871428D01*
X190477380Y-87680952D01*
X190525000Y-87585714D01*
X190620238Y-87490476D01*
X190810714Y-87442857D01*
X191144047Y-87442857D01*
X191334523Y-87490476D01*
X191429761Y-87585714D01*
X191477380Y-87680952D01*
X191477380Y-87871428D01*
X191477380Y-86490476D02*
X191477380Y-87061904D01*
X191477380Y-86776190D02*
X190477380Y-86776190D01*
X190620238Y-86871428D01*
X190715476Y-86966666D01*
X190763095Y-87061904D01*
%TO.C,C13*%
X218232142Y-73307142D02*
X218184523Y-73354761D01*
X218041666Y-73402380D01*
X217946428Y-73402380D01*
X217803571Y-73354761D01*
X217708333Y-73259523D01*
X217660714Y-73164285D01*
X217613095Y-72973809D01*
X217613095Y-72830952D01*
X217660714Y-72640476D01*
X217708333Y-72545238D01*
X217803571Y-72450000D01*
X217946428Y-72402380D01*
X218041666Y-72402380D01*
X218184523Y-72450000D01*
X218232142Y-72497619D01*
X219184523Y-73402380D02*
X218613095Y-73402380D01*
X218898809Y-73402380D02*
X218898809Y-72402380D01*
X218803571Y-72545238D01*
X218708333Y-72640476D01*
X218613095Y-72688095D01*
X219517857Y-72402380D02*
X220136904Y-72402380D01*
X219803571Y-72783333D01*
X219946428Y-72783333D01*
X220041666Y-72830952D01*
X220089285Y-72878571D01*
X220136904Y-72973809D01*
X220136904Y-73211904D01*
X220089285Y-73307142D01*
X220041666Y-73354761D01*
X219946428Y-73402380D01*
X219660714Y-73402380D01*
X219565476Y-73354761D01*
X219517857Y-73307142D01*
%TO.C,C3*%
X181533333Y-79507142D02*
X181485714Y-79554761D01*
X181342857Y-79602380D01*
X181247619Y-79602380D01*
X181104761Y-79554761D01*
X181009523Y-79459523D01*
X180961904Y-79364285D01*
X180914285Y-79173809D01*
X180914285Y-79030952D01*
X180961904Y-78840476D01*
X181009523Y-78745238D01*
X181104761Y-78650000D01*
X181247619Y-78602380D01*
X181342857Y-78602380D01*
X181485714Y-78650000D01*
X181533333Y-78697619D01*
X181866666Y-78602380D02*
X182485714Y-78602380D01*
X182152380Y-78983333D01*
X182295238Y-78983333D01*
X182390476Y-79030952D01*
X182438095Y-79078571D01*
X182485714Y-79173809D01*
X182485714Y-79411904D01*
X182438095Y-79507142D01*
X182390476Y-79554761D01*
X182295238Y-79602380D01*
X182009523Y-79602380D01*
X181914285Y-79554761D01*
X181866666Y-79507142D01*
%TO.C,C14*%
X213982142Y-70107142D02*
X213934523Y-70154761D01*
X213791666Y-70202380D01*
X213696428Y-70202380D01*
X213553571Y-70154761D01*
X213458333Y-70059523D01*
X213410714Y-69964285D01*
X213363095Y-69773809D01*
X213363095Y-69630952D01*
X213410714Y-69440476D01*
X213458333Y-69345238D01*
X213553571Y-69250000D01*
X213696428Y-69202380D01*
X213791666Y-69202380D01*
X213934523Y-69250000D01*
X213982142Y-69297619D01*
X214934523Y-70202380D02*
X214363095Y-70202380D01*
X214648809Y-70202380D02*
X214648809Y-69202380D01*
X214553571Y-69345238D01*
X214458333Y-69440476D01*
X214363095Y-69488095D01*
X215791666Y-69535714D02*
X215791666Y-70202380D01*
X215553571Y-69154761D02*
X215315476Y-69869047D01*
X215934523Y-69869047D01*
%TO.C,C6*%
X192233333Y-75937142D02*
X192185714Y-75984761D01*
X192042857Y-76032380D01*
X191947619Y-76032380D01*
X191804761Y-75984761D01*
X191709523Y-75889523D01*
X191661904Y-75794285D01*
X191614285Y-75603809D01*
X191614285Y-75460952D01*
X191661904Y-75270476D01*
X191709523Y-75175238D01*
X191804761Y-75080000D01*
X191947619Y-75032380D01*
X192042857Y-75032380D01*
X192185714Y-75080000D01*
X192233333Y-75127619D01*
X193090476Y-75032380D02*
X192900000Y-75032380D01*
X192804761Y-75080000D01*
X192757142Y-75127619D01*
X192661904Y-75270476D01*
X192614285Y-75460952D01*
X192614285Y-75841904D01*
X192661904Y-75937142D01*
X192709523Y-75984761D01*
X192804761Y-76032380D01*
X192995238Y-76032380D01*
X193090476Y-75984761D01*
X193138095Y-75937142D01*
X193185714Y-75841904D01*
X193185714Y-75603809D01*
X193138095Y-75508571D01*
X193090476Y-75460952D01*
X192995238Y-75413333D01*
X192804761Y-75413333D01*
X192709523Y-75460952D01*
X192661904Y-75508571D01*
X192614285Y-75603809D01*
%TO.C,C4*%
X208958333Y-67482142D02*
X208910714Y-67529761D01*
X208767857Y-67577380D01*
X208672619Y-67577380D01*
X208529761Y-67529761D01*
X208434523Y-67434523D01*
X208386904Y-67339285D01*
X208339285Y-67148809D01*
X208339285Y-67005952D01*
X208386904Y-66815476D01*
X208434523Y-66720238D01*
X208529761Y-66625000D01*
X208672619Y-66577380D01*
X208767857Y-66577380D01*
X208910714Y-66625000D01*
X208958333Y-66672619D01*
X209815476Y-66910714D02*
X209815476Y-67577380D01*
X209577380Y-66529761D02*
X209339285Y-67244047D01*
X209958333Y-67244047D01*
%TO.C,R1*%
X193358333Y-92002380D02*
X193025000Y-91526190D01*
X192786904Y-92002380D02*
X192786904Y-91002380D01*
X193167857Y-91002380D01*
X193263095Y-91050000D01*
X193310714Y-91097619D01*
X193358333Y-91192857D01*
X193358333Y-91335714D01*
X193310714Y-91430952D01*
X193263095Y-91478571D01*
X193167857Y-91526190D01*
X192786904Y-91526190D01*
X194310714Y-92002380D02*
X193739285Y-92002380D01*
X194025000Y-92002380D02*
X194025000Y-91002380D01*
X193929761Y-91145238D01*
X193834523Y-91240476D01*
X193739285Y-91288095D01*
%TO.C,C1*%
X204708333Y-88207142D02*
X204660714Y-88254761D01*
X204517857Y-88302380D01*
X204422619Y-88302380D01*
X204279761Y-88254761D01*
X204184523Y-88159523D01*
X204136904Y-88064285D01*
X204089285Y-87873809D01*
X204089285Y-87730952D01*
X204136904Y-87540476D01*
X204184523Y-87445238D01*
X204279761Y-87350000D01*
X204422619Y-87302380D01*
X204517857Y-87302380D01*
X204660714Y-87350000D01*
X204708333Y-87397619D01*
X205660714Y-88302380D02*
X205089285Y-88302380D01*
X205375000Y-88302380D02*
X205375000Y-87302380D01*
X205279761Y-87445238D01*
X205184523Y-87540476D01*
X205089285Y-87588095D01*
%TO.C,R16*%
X194557142Y-80152380D02*
X194223809Y-79676190D01*
X193985714Y-80152380D02*
X193985714Y-79152380D01*
X194366666Y-79152380D01*
X194461904Y-79200000D01*
X194509523Y-79247619D01*
X194557142Y-79342857D01*
X194557142Y-79485714D01*
X194509523Y-79580952D01*
X194461904Y-79628571D01*
X194366666Y-79676190D01*
X193985714Y-79676190D01*
X195509523Y-80152380D02*
X194938095Y-80152380D01*
X195223809Y-80152380D02*
X195223809Y-79152380D01*
X195128571Y-79295238D01*
X195033333Y-79390476D01*
X194938095Y-79438095D01*
X196366666Y-79152380D02*
X196176190Y-79152380D01*
X196080952Y-79200000D01*
X196033333Y-79247619D01*
X195938095Y-79390476D01*
X195890476Y-79580952D01*
X195890476Y-79961904D01*
X195938095Y-80057142D01*
X195985714Y-80104761D01*
X196080952Y-80152380D01*
X196271428Y-80152380D01*
X196366666Y-80104761D01*
X196414285Y-80057142D01*
X196461904Y-79961904D01*
X196461904Y-79723809D01*
X196414285Y-79628571D01*
X196366666Y-79580952D01*
X196271428Y-79533333D01*
X196080952Y-79533333D01*
X195985714Y-79580952D01*
X195938095Y-79628571D01*
X195890476Y-79723809D01*
%TO.C,L1*%
X178133333Y-60452380D02*
X177657142Y-60452380D01*
X177657142Y-59452380D01*
X178990476Y-60452380D02*
X178419047Y-60452380D01*
X178704761Y-60452380D02*
X178704761Y-59452380D01*
X178609523Y-59595238D01*
X178514285Y-59690476D01*
X178419047Y-59738095D01*
%TO.C,R10*%
X191602380Y-79167857D02*
X191126190Y-79501190D01*
X191602380Y-79739285D02*
X190602380Y-79739285D01*
X190602380Y-79358333D01*
X190650000Y-79263095D01*
X190697619Y-79215476D01*
X190792857Y-79167857D01*
X190935714Y-79167857D01*
X191030952Y-79215476D01*
X191078571Y-79263095D01*
X191126190Y-79358333D01*
X191126190Y-79739285D01*
X191602380Y-78215476D02*
X191602380Y-78786904D01*
X191602380Y-78501190D02*
X190602380Y-78501190D01*
X190745238Y-78596428D01*
X190840476Y-78691666D01*
X190888095Y-78786904D01*
X190602380Y-77596428D02*
X190602380Y-77501190D01*
X190650000Y-77405952D01*
X190697619Y-77358333D01*
X190792857Y-77310714D01*
X190983333Y-77263095D01*
X191221428Y-77263095D01*
X191411904Y-77310714D01*
X191507142Y-77358333D01*
X191554761Y-77405952D01*
X191602380Y-77501190D01*
X191602380Y-77596428D01*
X191554761Y-77691666D01*
X191507142Y-77739285D01*
X191411904Y-77786904D01*
X191221428Y-77834523D01*
X190983333Y-77834523D01*
X190792857Y-77786904D01*
X190697619Y-77739285D01*
X190650000Y-77691666D01*
X190602380Y-77596428D01*
%TO.C,JP1*%
X221291666Y-97302380D02*
X221291666Y-98016666D01*
X221244047Y-98159523D01*
X221148809Y-98254761D01*
X221005952Y-98302380D01*
X220910714Y-98302380D01*
X221767857Y-98302380D02*
X221767857Y-97302380D01*
X222148809Y-97302380D01*
X222244047Y-97350000D01*
X222291666Y-97397619D01*
X222339285Y-97492857D01*
X222339285Y-97635714D01*
X222291666Y-97730952D01*
X222244047Y-97778571D01*
X222148809Y-97826190D01*
X221767857Y-97826190D01*
X223291666Y-98302380D02*
X222720238Y-98302380D01*
X223005952Y-98302380D02*
X223005952Y-97302380D01*
X222910714Y-97445238D01*
X222815476Y-97540476D01*
X222720238Y-97588095D01*
%TO.C,C15*%
X205032142Y-69607142D02*
X204984523Y-69654761D01*
X204841666Y-69702380D01*
X204746428Y-69702380D01*
X204603571Y-69654761D01*
X204508333Y-69559523D01*
X204460714Y-69464285D01*
X204413095Y-69273809D01*
X204413095Y-69130952D01*
X204460714Y-68940476D01*
X204508333Y-68845238D01*
X204603571Y-68750000D01*
X204746428Y-68702380D01*
X204841666Y-68702380D01*
X204984523Y-68750000D01*
X205032142Y-68797619D01*
X205984523Y-69702380D02*
X205413095Y-69702380D01*
X205698809Y-69702380D02*
X205698809Y-68702380D01*
X205603571Y-68845238D01*
X205508333Y-68940476D01*
X205413095Y-68988095D01*
X206889285Y-68702380D02*
X206413095Y-68702380D01*
X206365476Y-69178571D01*
X206413095Y-69130952D01*
X206508333Y-69083333D01*
X206746428Y-69083333D01*
X206841666Y-69130952D01*
X206889285Y-69178571D01*
X206936904Y-69273809D01*
X206936904Y-69511904D01*
X206889285Y-69607142D01*
X206841666Y-69654761D01*
X206746428Y-69702380D01*
X206508333Y-69702380D01*
X206413095Y-69654761D01*
X206365476Y-69607142D01*
%TO.C,D1*%
X214977380Y-98763095D02*
X213977380Y-98763095D01*
X213977380Y-98525000D01*
X214025000Y-98382142D01*
X214120238Y-98286904D01*
X214215476Y-98239285D01*
X214405952Y-98191666D01*
X214548809Y-98191666D01*
X214739285Y-98239285D01*
X214834523Y-98286904D01*
X214929761Y-98382142D01*
X214977380Y-98525000D01*
X214977380Y-98763095D01*
X214977380Y-97239285D02*
X214977380Y-97810714D01*
X214977380Y-97525000D02*
X213977380Y-97525000D01*
X214120238Y-97620238D01*
X214215476Y-97715476D01*
X214263095Y-97810714D01*
%TO.C,U5*%
X198438095Y-76452380D02*
X198438095Y-77261904D01*
X198485714Y-77357142D01*
X198533333Y-77404761D01*
X198628571Y-77452380D01*
X198819047Y-77452380D01*
X198914285Y-77404761D01*
X198961904Y-77357142D01*
X199009523Y-77261904D01*
X199009523Y-76452380D01*
X199961904Y-76452380D02*
X199485714Y-76452380D01*
X199438095Y-76928571D01*
X199485714Y-76880952D01*
X199580952Y-76833333D01*
X199819047Y-76833333D01*
X199914285Y-76880952D01*
X199961904Y-76928571D01*
X200009523Y-77023809D01*
X200009523Y-77261904D01*
X199961904Y-77357142D01*
X199914285Y-77404761D01*
X199819047Y-77452380D01*
X199580952Y-77452380D01*
X199485714Y-77404761D01*
X199438095Y-77357142D01*
X195200000Y-69552380D02*
X195200000Y-69790476D01*
X194961904Y-69695238D02*
X195200000Y-69790476D01*
X195438095Y-69695238D01*
X195057142Y-69980952D02*
X195200000Y-69790476D01*
X195342857Y-69980952D01*
%TO.C,J3*%
X228522380Y-66873333D02*
X229236666Y-66873333D01*
X229379523Y-66920952D01*
X229474761Y-67016190D01*
X229522380Y-67159047D01*
X229522380Y-67254285D01*
X228522380Y-66492380D02*
X228522380Y-65873333D01*
X228903333Y-66206666D01*
X228903333Y-66063809D01*
X228950952Y-65968571D01*
X228998571Y-65920952D01*
X229093809Y-65873333D01*
X229331904Y-65873333D01*
X229427142Y-65920952D01*
X229474761Y-65968571D01*
X229522380Y-66063809D01*
X229522380Y-66349523D01*
X229474761Y-66444761D01*
X229427142Y-66492380D01*
%TO.C,J4*%
X228622380Y-80113333D02*
X229336666Y-80113333D01*
X229479523Y-80160952D01*
X229574761Y-80256190D01*
X229622380Y-80399047D01*
X229622380Y-80494285D01*
X228955714Y-79208571D02*
X229622380Y-79208571D01*
X228574761Y-79446666D02*
X229289047Y-79684761D01*
X229289047Y-79065714D01*
%TO.C,U4*%
X183938095Y-72752380D02*
X183938095Y-73561904D01*
X183985714Y-73657142D01*
X184033333Y-73704761D01*
X184128571Y-73752380D01*
X184319047Y-73752380D01*
X184414285Y-73704761D01*
X184461904Y-73657142D01*
X184509523Y-73561904D01*
X184509523Y-72752380D01*
X185414285Y-73085714D02*
X185414285Y-73752380D01*
X185176190Y-72704761D02*
X184938095Y-73419047D01*
X185557142Y-73419047D01*
X181875000Y-74427380D02*
X181875000Y-74665476D01*
X181636904Y-74570238D02*
X181875000Y-74665476D01*
X182113095Y-74570238D01*
X181732142Y-74855952D02*
X181875000Y-74665476D01*
X182017857Y-74855952D01*
%TO.C,Q2*%
X182647619Y-87682738D02*
X182600000Y-87777976D01*
X182504761Y-87873214D01*
X182361904Y-88016071D01*
X182314285Y-88111309D01*
X182314285Y-88206547D01*
X182552380Y-88158928D02*
X182504761Y-88254166D01*
X182409523Y-88349404D01*
X182219047Y-88397023D01*
X181885714Y-88397023D01*
X181695238Y-88349404D01*
X181600000Y-88254166D01*
X181552380Y-88158928D01*
X181552380Y-87968452D01*
X181600000Y-87873214D01*
X181695238Y-87777976D01*
X181885714Y-87730357D01*
X182219047Y-87730357D01*
X182409523Y-87777976D01*
X182504761Y-87873214D01*
X182552380Y-87968452D01*
X182552380Y-88158928D01*
X181647619Y-87349404D02*
X181600000Y-87301785D01*
X181552380Y-87206547D01*
X181552380Y-86968452D01*
X181600000Y-86873214D01*
X181647619Y-86825595D01*
X181742857Y-86777976D01*
X181838095Y-86777976D01*
X181980952Y-86825595D01*
X182552380Y-87397023D01*
X182552380Y-86777976D01*
%TO.C,R14*%
X202257142Y-79552380D02*
X201923809Y-79076190D01*
X201685714Y-79552380D02*
X201685714Y-78552380D01*
X202066666Y-78552380D01*
X202161904Y-78600000D01*
X202209523Y-78647619D01*
X202257142Y-78742857D01*
X202257142Y-78885714D01*
X202209523Y-78980952D01*
X202161904Y-79028571D01*
X202066666Y-79076190D01*
X201685714Y-79076190D01*
X203209523Y-79552380D02*
X202638095Y-79552380D01*
X202923809Y-79552380D02*
X202923809Y-78552380D01*
X202828571Y-78695238D01*
X202733333Y-78790476D01*
X202638095Y-78838095D01*
X204066666Y-78885714D02*
X204066666Y-79552380D01*
X203828571Y-78504761D02*
X203590476Y-79219047D01*
X204209523Y-79219047D01*
%TO.C,R2*%
X198633333Y-92577380D02*
X198300000Y-92101190D01*
X198061904Y-92577380D02*
X198061904Y-91577380D01*
X198442857Y-91577380D01*
X198538095Y-91625000D01*
X198585714Y-91672619D01*
X198633333Y-91767857D01*
X198633333Y-91910714D01*
X198585714Y-92005952D01*
X198538095Y-92053571D01*
X198442857Y-92101190D01*
X198061904Y-92101190D01*
X199014285Y-91672619D02*
X199061904Y-91625000D01*
X199157142Y-91577380D01*
X199395238Y-91577380D01*
X199490476Y-91625000D01*
X199538095Y-91672619D01*
X199585714Y-91767857D01*
X199585714Y-91863095D01*
X199538095Y-92005952D01*
X198966666Y-92577380D01*
X199585714Y-92577380D01*
D11*
%TO.C,J1*%
X228254523Y-92248333D02*
X229161666Y-92248333D01*
X229343095Y-92308809D01*
X229464047Y-92429761D01*
X229524523Y-92611190D01*
X229524523Y-92732142D01*
X229524523Y-90978333D02*
X229524523Y-91704047D01*
X229524523Y-91341190D02*
X228254523Y-91341190D01*
X228435952Y-91462142D01*
X228556904Y-91583095D01*
X228617380Y-91704047D01*
D12*
X221489761Y-88704523D02*
X221489761Y-89732619D01*
X221550238Y-89853571D01*
X221610714Y-89914047D01*
X221731666Y-89974523D01*
X221973571Y-89974523D01*
X222094523Y-89914047D01*
X222155000Y-89853571D01*
X222215476Y-89732619D01*
X222215476Y-88704523D01*
X222820238Y-89974523D02*
X222820238Y-88704523D01*
X223304047Y-88704523D01*
X223425000Y-88765000D01*
X223485476Y-88825476D01*
X223545952Y-88946428D01*
X223545952Y-89127857D01*
X223485476Y-89248809D01*
X223425000Y-89309285D01*
X223304047Y-89369761D01*
X222820238Y-89369761D01*
X224090238Y-89974523D02*
X224090238Y-88704523D01*
X224392619Y-88704523D01*
X224574047Y-88765000D01*
X224695000Y-88885952D01*
X224755476Y-89006904D01*
X224815952Y-89248809D01*
X224815952Y-89430238D01*
X224755476Y-89672142D01*
X224695000Y-89793095D01*
X224574047Y-89914047D01*
X224392619Y-89974523D01*
X224090238Y-89974523D01*
X225360238Y-89974523D02*
X225360238Y-88704523D01*
X226459285Y-96233333D02*
X226519761Y-96051904D01*
X226580238Y-95991428D01*
X226701190Y-95930952D01*
X226882619Y-95930952D01*
X227003571Y-95991428D01*
X227064047Y-96051904D01*
X227124523Y-96172857D01*
X227124523Y-96656666D01*
X225854523Y-96656666D01*
X225854523Y-96233333D01*
X225915000Y-96112380D01*
X225975476Y-96051904D01*
X226096428Y-95991428D01*
X226217380Y-95991428D01*
X226338333Y-96051904D01*
X226398809Y-96112380D01*
X226459285Y-96233333D01*
X226459285Y-96656666D01*
X227124523Y-94781904D02*
X227124523Y-95386666D01*
X225854523Y-95386666D01*
X227124523Y-94358571D02*
X225854523Y-94358571D01*
X227124523Y-93632857D02*
X226398809Y-94177142D01*
X225854523Y-93632857D02*
X226580238Y-94358571D01*
X213190000Y-96192619D02*
X213129523Y-96313571D01*
X213129523Y-96495000D01*
X213190000Y-96676428D01*
X213310952Y-96797380D01*
X213431904Y-96857857D01*
X213673809Y-96918333D01*
X213855238Y-96918333D01*
X214097142Y-96857857D01*
X214218095Y-96797380D01*
X214339047Y-96676428D01*
X214399523Y-96495000D01*
X214399523Y-96374047D01*
X214339047Y-96192619D01*
X214278571Y-96132142D01*
X213855238Y-96132142D01*
X213855238Y-96374047D01*
X214399523Y-94862142D02*
X213794761Y-95285476D01*
X214399523Y-95587857D02*
X213129523Y-95587857D01*
X213129523Y-95104047D01*
X213190000Y-94983095D01*
X213250476Y-94922619D01*
X213371428Y-94862142D01*
X213552857Y-94862142D01*
X213673809Y-94922619D01*
X213734285Y-94983095D01*
X213794761Y-95104047D01*
X213794761Y-95587857D01*
X214399523Y-94317857D02*
X213129523Y-94317857D01*
X214399523Y-93592142D01*
X213129523Y-93592142D01*
D10*
%TO.C,U7*%
X208302380Y-78661904D02*
X209111904Y-78661904D01*
X209207142Y-78614285D01*
X209254761Y-78566666D01*
X209302380Y-78471428D01*
X209302380Y-78280952D01*
X209254761Y-78185714D01*
X209207142Y-78138095D01*
X209111904Y-78090476D01*
X208302380Y-78090476D01*
X208302380Y-77709523D02*
X208302380Y-77042857D01*
X209302380Y-77471428D01*
X209027380Y-81400000D02*
X209265476Y-81400000D01*
X209170238Y-81638095D02*
X209265476Y-81400000D01*
X209170238Y-81161904D01*
X209455952Y-81542857D02*
X209265476Y-81400000D01*
X209455952Y-81257142D01*
D13*
%TO.C,U2*%
X206100000Y-91315000D02*
X208300000Y-91315000D01*
X206100000Y-96535000D02*
X208300000Y-96535000D01*
X206100000Y-96535000D02*
X203900000Y-96535000D01*
X206100000Y-91315000D02*
X202500000Y-91315000D01*
%TO.C,U6*%
X213410000Y-86537500D02*
X213410000Y-82937500D01*
X207940000Y-86537500D02*
X207940000Y-84337500D01*
X207940000Y-86537500D02*
X207940000Y-88737500D01*
X213410000Y-86537500D02*
X213410000Y-88737500D01*
%TO.C,D3*%
X218785000Y-85840000D02*
X215925000Y-85840000D01*
X215925000Y-87760000D02*
X218785000Y-87760000D01*
X218785000Y-87760000D02*
X218785000Y-85840000D01*
D10*
%TO.C,U3*%
X186275000Y-91650000D02*
X185200000Y-91650000D01*
X186275000Y-94775000D02*
X189525000Y-94775000D01*
X186275000Y-91525000D02*
X189525000Y-91525000D01*
X189525000Y-94775000D02*
X189525000Y-94550000D01*
X186275000Y-94775000D02*
X186275000Y-94550000D01*
X186275000Y-91525000D02*
X186275000Y-91650000D01*
X189525000Y-91525000D02*
X189525000Y-91750000D01*
D13*
%TO.C,R23*%
X216935000Y-79877064D02*
X216935000Y-79422936D01*
X215465000Y-79877064D02*
X215465000Y-79422936D01*
%TO.C,R12*%
X206227064Y-74635000D02*
X205772936Y-74635000D01*
X206227064Y-73165000D02*
X205772936Y-73165000D01*
%TO.C,C10*%
X177615000Y-69038748D02*
X177615000Y-69561252D01*
X179085000Y-69038748D02*
X179085000Y-69561252D01*
%TO.C,R5*%
X219660000Y-97077064D02*
X219660000Y-96622936D01*
X218190000Y-97077064D02*
X218190000Y-96622936D01*
%TO.C,F1*%
X216990000Y-63861252D02*
X216990000Y-61088748D01*
X220410000Y-63861252D02*
X220410000Y-61088748D01*
%TO.C,D2*%
X195900000Y-62850000D02*
X195900000Y-66150000D01*
X195900000Y-66150000D02*
X202800000Y-66150000D01*
X195900000Y-62850000D02*
X202800000Y-62850000D01*
%TO.C,C11*%
X179848752Y-77135000D02*
X179326248Y-77135000D01*
X179848752Y-75665000D02*
X179326248Y-75665000D01*
%TO.C,C5*%
X199423752Y-69635000D02*
X198901248Y-69635000D01*
X199423752Y-68165000D02*
X198901248Y-68165000D01*
%TO.C,C12*%
X215685000Y-63960000D02*
X215685000Y-59440000D01*
X215685000Y-59440000D02*
X207450000Y-59440000D01*
X207450000Y-63960000D02*
X215685000Y-63960000D01*
%TO.C,C9*%
X179285000Y-66835000D02*
X179285000Y-62750000D01*
X177415000Y-66835000D02*
X179285000Y-66835000D01*
X177415000Y-62750000D02*
X177415000Y-66835000D01*
%TO.C,J2*%
X181420000Y-83430000D02*
X189100000Y-83430000D01*
X181420000Y-83430000D02*
X181420000Y-80770000D01*
X178820000Y-83430000D02*
X178820000Y-82100000D01*
X181420000Y-80770000D02*
X189100000Y-80770000D01*
X189100000Y-83430000D02*
X189100000Y-80770000D01*
X180150000Y-83430000D02*
X178820000Y-83430000D01*
%TO.C,U1*%
X196015000Y-87325000D02*
X196015000Y-85375000D01*
X201135000Y-87325000D02*
X201135000Y-85375000D01*
X196015000Y-87325000D02*
X196015000Y-90775000D01*
X201135000Y-87325000D02*
X201135000Y-89275000D01*
%TO.C,Q1*%
X189910000Y-87537500D02*
X189910000Y-88187500D01*
X189910000Y-87537500D02*
X189910000Y-86887500D01*
X186790000Y-87537500D02*
X186790000Y-89212500D01*
X186790000Y-87537500D02*
X186790000Y-86887500D01*
%TO.C,C13*%
X217201248Y-76060000D02*
X218623752Y-76060000D01*
X217201248Y-74240000D02*
X218623752Y-74240000D01*
%TO.C,C3*%
X184413748Y-79710000D02*
X184936252Y-79710000D01*
X184413748Y-78240000D02*
X184936252Y-78240000D01*
%TO.C,C14*%
X214298752Y-71040000D02*
X212876248Y-71040000D01*
X214298752Y-72860000D02*
X212876248Y-72860000D01*
%TO.C,C6*%
X192661252Y-73165000D02*
X192138748Y-73165000D01*
X192661252Y-74635000D02*
X192138748Y-74635000D01*
%TO.C,C4*%
X213673752Y-64640000D02*
X212251248Y-64640000D01*
X213673752Y-67360000D02*
X212251248Y-67360000D01*
%TO.C,R1*%
X194097936Y-92515000D02*
X194552064Y-92515000D01*
X194097936Y-93985000D02*
X194552064Y-93985000D01*
%TO.C,C1*%
X204523752Y-89040000D02*
X204001248Y-89040000D01*
X204523752Y-90510000D02*
X204001248Y-90510000D01*
%TO.C,R16*%
X195172936Y-78235000D02*
X195627064Y-78235000D01*
X195172936Y-76765000D02*
X195627064Y-76765000D01*
%TO.C,L1*%
X180273000Y-72227800D02*
X194522400Y-72227800D01*
X180273000Y-68509450D02*
X180273000Y-72227800D01*
X194522400Y-72227800D02*
X194522400Y-68509450D01*
X180273000Y-59172200D02*
X180273000Y-62890550D01*
X194522400Y-59172200D02*
X180273000Y-59172200D01*
X194522400Y-62890550D02*
X194522400Y-59172200D01*
%TO.C,R10*%
X188240000Y-78127064D02*
X188240000Y-77672936D01*
X189710000Y-78127064D02*
X189710000Y-77672936D01*
%TO.C,JP1*%
X223575000Y-94550000D02*
X223575000Y-96550000D01*
X220775000Y-96550000D02*
X220775000Y-94550000D01*
X220775000Y-94550000D02*
X223575000Y-94550000D01*
X223575000Y-96550000D02*
X220775000Y-96550000D01*
%TO.C,C15*%
X209426248Y-70385000D02*
X210848752Y-70385000D01*
X209426248Y-68565000D02*
X210848752Y-68565000D01*
%TO.C,D1*%
X215400000Y-98475000D02*
X217400000Y-98475000D01*
X215400000Y-98475000D02*
X215400000Y-94575000D01*
X217400000Y-98475000D02*
X217400000Y-94575000D01*
%TO.C,U5*%
X199200000Y-70640000D02*
X201150000Y-70640000D01*
X199200000Y-75760000D02*
X201150000Y-75760000D01*
X199200000Y-75760000D02*
X197250000Y-75760000D01*
X199200000Y-70640000D02*
X195750000Y-70640000D01*
%TO.C,J3*%
X221090000Y-62140000D02*
X221090000Y-62540000D01*
X221330000Y-62380000D02*
X221330000Y-70700000D01*
X228070000Y-62380000D02*
X221330000Y-62380000D01*
X226950000Y-62380000D02*
X226950000Y-70700000D01*
X221730000Y-62140000D02*
X221090000Y-62140000D01*
X228070000Y-62380000D02*
X228070000Y-70700000D01*
X228070000Y-70700000D02*
X221330000Y-70700000D01*
X221850000Y-62380000D02*
X221850000Y-70700000D01*
%TO.C,J4*%
X228170000Y-73080000D02*
X228170000Y-86480000D01*
X228170000Y-86480000D02*
X221430000Y-86480000D01*
X228170000Y-73080000D02*
X221430000Y-73080000D01*
X221950000Y-73080000D02*
X221950000Y-86480000D01*
X221830000Y-72840000D02*
X221190000Y-72840000D01*
X221430000Y-73080000D02*
X221430000Y-86480000D01*
X227050000Y-73080000D02*
X227050000Y-86480000D01*
X221190000Y-72840000D02*
X221190000Y-73240000D01*
%TO.C,U4*%
X183023600Y-74173600D02*
X183023600Y-74390259D01*
X183023600Y-77526400D02*
X186376400Y-77526400D01*
X186376400Y-74173600D02*
X183023600Y-74173600D01*
X186376400Y-77526400D02*
X186376400Y-77309741D01*
X183023600Y-77309741D02*
X183023600Y-77526400D01*
X186376400Y-74390259D02*
X186376400Y-74173600D01*
X182513060Y-74776171D02*
G75*
G03*
X182513060Y-74923829I-18860J-73829D01*
G01*
%TO.C,Q2*%
X186060000Y-87587500D02*
X186060000Y-88237500D01*
X182940000Y-87587500D02*
X182940000Y-89262500D01*
X186060000Y-87587500D02*
X186060000Y-86937500D01*
X182940000Y-87587500D02*
X182940000Y-86937500D01*
%TO.C,R14*%
X202772936Y-76465000D02*
X203227064Y-76465000D01*
X202772936Y-77935000D02*
X203227064Y-77935000D01*
%TO.C,R2*%
X199447936Y-93040000D02*
X199902064Y-93040000D01*
X199447936Y-94510000D02*
X199902064Y-94510000D01*
%TO.C,REF\u002A\u002A*%
G36*
X183695807Y-99386782D02*
G01*
X183719161Y-99396988D01*
X183774902Y-99441134D01*
X183822569Y-99504967D01*
X183852048Y-99573087D01*
X183856846Y-99606670D01*
X183840760Y-99653556D01*
X183805475Y-99678365D01*
X183767644Y-99693387D01*
X183750321Y-99696155D01*
X183741886Y-99676066D01*
X183725230Y-99632351D01*
X183717923Y-99612598D01*
X183676948Y-99544271D01*
X183617622Y-99510191D01*
X183541552Y-99511239D01*
X183535918Y-99512581D01*
X183495305Y-99531836D01*
X183465448Y-99569375D01*
X183445055Y-99629809D01*
X183432836Y-99717751D01*
X183427500Y-99837813D01*
X183427000Y-99901698D01*
X183426752Y-100002403D01*
X183425126Y-100071054D01*
X183420801Y-100114673D01*
X183412454Y-100140282D01*
X183398765Y-100154903D01*
X183378411Y-100165558D01*
X183377234Y-100166095D01*
X183338038Y-100182667D01*
X183318619Y-100188769D01*
X183315635Y-100170319D01*
X183313081Y-100119323D01*
X183311140Y-100042308D01*
X183309997Y-99945805D01*
X183309769Y-99875184D01*
X183310932Y-99738525D01*
X183315479Y-99634851D01*
X183324999Y-99558108D01*
X183341081Y-99502246D01*
X183365313Y-99461212D01*
X183399286Y-99428954D01*
X183432833Y-99406440D01*
X183513499Y-99376476D01*
X183607381Y-99369718D01*
X183695807Y-99386782D01*
G37*
D14*
X183695807Y-99386782D02*
X183719161Y-99396988D01*
X183774902Y-99441134D01*
X183822569Y-99504967D01*
X183852048Y-99573087D01*
X183856846Y-99606670D01*
X183840760Y-99653556D01*
X183805475Y-99678365D01*
X183767644Y-99693387D01*
X183750321Y-99696155D01*
X183741886Y-99676066D01*
X183725230Y-99632351D01*
X183717923Y-99612598D01*
X183676948Y-99544271D01*
X183617622Y-99510191D01*
X183541552Y-99511239D01*
X183535918Y-99512581D01*
X183495305Y-99531836D01*
X183465448Y-99569375D01*
X183445055Y-99629809D01*
X183432836Y-99717751D01*
X183427500Y-99837813D01*
X183427000Y-99901698D01*
X183426752Y-100002403D01*
X183425126Y-100071054D01*
X183420801Y-100114673D01*
X183412454Y-100140282D01*
X183398765Y-100154903D01*
X183378411Y-100165558D01*
X183377234Y-100166095D01*
X183338038Y-100182667D01*
X183318619Y-100188769D01*
X183315635Y-100170319D01*
X183313081Y-100119323D01*
X183311140Y-100042308D01*
X183309997Y-99945805D01*
X183309769Y-99875184D01*
X183310932Y-99738525D01*
X183315479Y-99634851D01*
X183324999Y-99558108D01*
X183341081Y-99502246D01*
X183365313Y-99461212D01*
X183399286Y-99428954D01*
X183432833Y-99406440D01*
X183513499Y-99376476D01*
X183607381Y-99369718D01*
X183695807Y-99386782D01*
G36*
X178396664Y-99345089D02*
G01*
X178459367Y-99381358D01*
X178502961Y-99417358D01*
X178534845Y-99455075D01*
X178556810Y-99501199D01*
X178570649Y-99562421D01*
X178578153Y-99645431D01*
X178581117Y-99756919D01*
X178581461Y-99837062D01*
X178581461Y-100132065D01*
X178415385Y-100206515D01*
X178405615Y-99883402D01*
X178401579Y-99762729D01*
X178397344Y-99675141D01*
X178392097Y-99614650D01*
X178385025Y-99575268D01*
X178375311Y-99551007D01*
X178362144Y-99535880D01*
X178357919Y-99532606D01*
X178293909Y-99507034D01*
X178229208Y-99517153D01*
X178190692Y-99544000D01*
X178175025Y-99563024D01*
X178164180Y-99587988D01*
X178157288Y-99625834D01*
X178153479Y-99683502D01*
X178151883Y-99767935D01*
X178151615Y-99855928D01*
X178151563Y-99966323D01*
X178149672Y-100044463D01*
X178143345Y-100097165D01*
X178129983Y-100131242D01*
X178106985Y-100153511D01*
X178071754Y-100170787D01*
X178024697Y-100188738D01*
X177973303Y-100208278D01*
X177979421Y-99861485D01*
X177981884Y-99736468D01*
X177984767Y-99644082D01*
X177988898Y-99577881D01*
X177995107Y-99531420D01*
X178004226Y-99498256D01*
X178017083Y-99471944D01*
X178032584Y-99448729D01*
X178107371Y-99374569D01*
X178198628Y-99331684D01*
X178297883Y-99321412D01*
X178396664Y-99345089D01*
G37*
X178396664Y-99345089D02*
X178459367Y-99381358D01*
X178502961Y-99417358D01*
X178534845Y-99455075D01*
X178556810Y-99501199D01*
X178570649Y-99562421D01*
X178578153Y-99645431D01*
X178581117Y-99756919D01*
X178581461Y-99837062D01*
X178581461Y-100132065D01*
X178415385Y-100206515D01*
X178405615Y-99883402D01*
X178401579Y-99762729D01*
X178397344Y-99675141D01*
X178392097Y-99614650D01*
X178385025Y-99575268D01*
X178375311Y-99551007D01*
X178362144Y-99535880D01*
X178357919Y-99532606D01*
X178293909Y-99507034D01*
X178229208Y-99517153D01*
X178190692Y-99544000D01*
X178175025Y-99563024D01*
X178164180Y-99587988D01*
X178157288Y-99625834D01*
X178153479Y-99683502D01*
X178151883Y-99767935D01*
X178151615Y-99855928D01*
X178151563Y-99966323D01*
X178149672Y-100044463D01*
X178143345Y-100097165D01*
X178129983Y-100131242D01*
X178106985Y-100153511D01*
X178071754Y-100170787D01*
X178024697Y-100188738D01*
X177973303Y-100208278D01*
X177979421Y-99861485D01*
X177981884Y-99736468D01*
X177984767Y-99644082D01*
X177988898Y-99577881D01*
X177995107Y-99531420D01*
X178004226Y-99498256D01*
X178017083Y-99471944D01*
X178032584Y-99448729D01*
X178107371Y-99374569D01*
X178198628Y-99331684D01*
X178297883Y-99321412D01*
X178396664Y-99345089D01*
G36*
X181181362Y-99563577D02*
G01*
X181211528Y-99494269D01*
X181258629Y-99440211D01*
X181295312Y-99412505D01*
X181361990Y-99382572D01*
X181439272Y-99368678D01*
X181511110Y-99372397D01*
X181551308Y-99387400D01*
X181567082Y-99391670D01*
X181577550Y-99375750D01*
X181584856Y-99333089D01*
X181590385Y-99268106D01*
X181596437Y-99195732D01*
X181604844Y-99152187D01*
X181620141Y-99127287D01*
X181646864Y-99110845D01*
X181663654Y-99103564D01*
X181727154Y-99076963D01*
X181727081Y-99530289D01*
X181726833Y-99676320D01*
X181725872Y-99788655D01*
X181723794Y-99872678D01*
X181720193Y-99933769D01*
X181714665Y-99977309D01*
X181706804Y-100008679D01*
X181696207Y-100033262D01*
X181688182Y-100047294D01*
X181621728Y-100123388D01*
X181537470Y-100171084D01*
X181444249Y-100188199D01*
X181350900Y-100172546D01*
X181295312Y-100144418D01*
X181236957Y-100095760D01*
X181197186Y-100036333D01*
X181173190Y-99958507D01*
X181162161Y-99854652D01*
X181160599Y-99778462D01*
X181160809Y-99772986D01*
X181297308Y-99772986D01*
X181298141Y-99860355D01*
X181301961Y-99918192D01*
X181310746Y-99956029D01*
X181326474Y-99983398D01*
X181345266Y-100004042D01*
X181408375Y-100043890D01*
X181476137Y-100047295D01*
X181540179Y-100014025D01*
X181545164Y-100009517D01*
X181566439Y-99986067D01*
X181579779Y-99958166D01*
X181587001Y-99916641D01*
X181589923Y-99852316D01*
X181590385Y-99781200D01*
X181589383Y-99691858D01*
X181585238Y-99632258D01*
X181576236Y-99593089D01*
X181560667Y-99565040D01*
X181547902Y-99550144D01*
X181488600Y-99512575D01*
X181420301Y-99508057D01*
X181355110Y-99536753D01*
X181342528Y-99547406D01*
X181321111Y-99571063D01*
X181307744Y-99599251D01*
X181300566Y-99641245D01*
X181297719Y-99706319D01*
X181297308Y-99772986D01*
X181160809Y-99772986D01*
X181165322Y-99655765D01*
X181181362Y-99563577D01*
G37*
X181181362Y-99563577D02*
X181211528Y-99494269D01*
X181258629Y-99440211D01*
X181295312Y-99412505D01*
X181361990Y-99382572D01*
X181439272Y-99368678D01*
X181511110Y-99372397D01*
X181551308Y-99387400D01*
X181567082Y-99391670D01*
X181577550Y-99375750D01*
X181584856Y-99333089D01*
X181590385Y-99268106D01*
X181596437Y-99195732D01*
X181604844Y-99152187D01*
X181620141Y-99127287D01*
X181646864Y-99110845D01*
X181663654Y-99103564D01*
X181727154Y-99076963D01*
X181727081Y-99530289D01*
X181726833Y-99676320D01*
X181725872Y-99788655D01*
X181723794Y-99872678D01*
X181720193Y-99933769D01*
X181714665Y-99977309D01*
X181706804Y-100008679D01*
X181696207Y-100033262D01*
X181688182Y-100047294D01*
X181621728Y-100123388D01*
X181537470Y-100171084D01*
X181444249Y-100188199D01*
X181350900Y-100172546D01*
X181295312Y-100144418D01*
X181236957Y-100095760D01*
X181197186Y-100036333D01*
X181173190Y-99958507D01*
X181162161Y-99854652D01*
X181160599Y-99778462D01*
X181160809Y-99772986D01*
X181297308Y-99772986D01*
X181298141Y-99860355D01*
X181301961Y-99918192D01*
X181310746Y-99956029D01*
X181326474Y-99983398D01*
X181345266Y-100004042D01*
X181408375Y-100043890D01*
X181476137Y-100047295D01*
X181540179Y-100014025D01*
X181545164Y-100009517D01*
X181566439Y-99986067D01*
X181579779Y-99958166D01*
X181587001Y-99916641D01*
X181589923Y-99852316D01*
X181590385Y-99781200D01*
X181589383Y-99691858D01*
X181585238Y-99632258D01*
X181576236Y-99593089D01*
X181560667Y-99565040D01*
X181547902Y-99550144D01*
X181488600Y-99512575D01*
X181420301Y-99508057D01*
X181355110Y-99536753D01*
X181342528Y-99547406D01*
X181321111Y-99571063D01*
X181307744Y-99599251D01*
X181300566Y-99641245D01*
X181297719Y-99706319D01*
X181297308Y-99772986D01*
X181160809Y-99772986D01*
X181165322Y-99655765D01*
X181181362Y-99563577D01*
G36*
X183986032Y-99570710D02*
G01*
X184004460Y-99505167D01*
X184034360Y-99456912D01*
X184078080Y-99418767D01*
X184097141Y-99406440D01*
X184183726Y-99374336D01*
X184278522Y-99372316D01*
X184370224Y-99397838D01*
X184447528Y-99448361D01*
X184484814Y-99493590D01*
X184514353Y-99575663D01*
X184516699Y-99640607D01*
X184511385Y-99727445D01*
X184311115Y-99815103D01*
X184213739Y-99859887D01*
X184150113Y-99895913D01*
X184117029Y-99927117D01*
X184111280Y-99957436D01*
X184129658Y-99990805D01*
X184149923Y-100012923D01*
X184208889Y-100048393D01*
X184273024Y-100050879D01*
X184331926Y-100023235D01*
X184375197Y-99968320D01*
X184382936Y-99948928D01*
X184420006Y-99888364D01*
X184462654Y-99862552D01*
X184521154Y-99840471D01*
X184521154Y-99924184D01*
X184515982Y-99981150D01*
X184495723Y-100029189D01*
X184453262Y-100084346D01*
X184446951Y-100091514D01*
X184399720Y-100140585D01*
X184359121Y-100166920D01*
X184308328Y-100179035D01*
X184266220Y-100183003D01*
X184190902Y-100183991D01*
X184137286Y-100171466D01*
X184103838Y-100152869D01*
X184051268Y-100111975D01*
X184014879Y-100067748D01*
X183991850Y-100012126D01*
X183979359Y-99937047D01*
X183974587Y-99834449D01*
X183974206Y-99782376D01*
X183975501Y-99719948D01*
X184093471Y-99719948D01*
X184094839Y-99753438D01*
X184098249Y-99758923D01*
X184120753Y-99751472D01*
X184169182Y-99731753D01*
X184233908Y-99703718D01*
X184247443Y-99697692D01*
X184329244Y-99656096D01*
X184374312Y-99619538D01*
X184384217Y-99585296D01*
X184360526Y-99550648D01*
X184340960Y-99535339D01*
X184270360Y-99504721D01*
X184204280Y-99509780D01*
X184148959Y-99547151D01*
X184110636Y-99613473D01*
X184098349Y-99666116D01*
X184093471Y-99719948D01*
X183975501Y-99719948D01*
X183976730Y-99660720D01*
X183986032Y-99570710D01*
G37*
X183986032Y-99570710D02*
X184004460Y-99505167D01*
X184034360Y-99456912D01*
X184078080Y-99418767D01*
X184097141Y-99406440D01*
X184183726Y-99374336D01*
X184278522Y-99372316D01*
X184370224Y-99397838D01*
X184447528Y-99448361D01*
X184484814Y-99493590D01*
X184514353Y-99575663D01*
X184516699Y-99640607D01*
X184511385Y-99727445D01*
X184311115Y-99815103D01*
X184213739Y-99859887D01*
X184150113Y-99895913D01*
X184117029Y-99927117D01*
X184111280Y-99957436D01*
X184129658Y-99990805D01*
X184149923Y-100012923D01*
X184208889Y-100048393D01*
X184273024Y-100050879D01*
X184331926Y-100023235D01*
X184375197Y-99968320D01*
X184382936Y-99948928D01*
X184420006Y-99888364D01*
X184462654Y-99862552D01*
X184521154Y-99840471D01*
X184521154Y-99924184D01*
X184515982Y-99981150D01*
X184495723Y-100029189D01*
X184453262Y-100084346D01*
X184446951Y-100091514D01*
X184399720Y-100140585D01*
X184359121Y-100166920D01*
X184308328Y-100179035D01*
X184266220Y-100183003D01*
X184190902Y-100183991D01*
X184137286Y-100171466D01*
X184103838Y-100152869D01*
X184051268Y-100111975D01*
X184014879Y-100067748D01*
X183991850Y-100012126D01*
X183979359Y-99937047D01*
X183974587Y-99834449D01*
X183974206Y-99782376D01*
X183975501Y-99719948D01*
X184093471Y-99719948D01*
X184094839Y-99753438D01*
X184098249Y-99758923D01*
X184120753Y-99751472D01*
X184169182Y-99731753D01*
X184233908Y-99703718D01*
X184247443Y-99697692D01*
X184329244Y-99656096D01*
X184374312Y-99619538D01*
X184384217Y-99585296D01*
X184360526Y-99550648D01*
X184340960Y-99535339D01*
X184270360Y-99504721D01*
X184204280Y-99509780D01*
X184148959Y-99547151D01*
X184110636Y-99613473D01*
X184098349Y-99666116D01*
X184093471Y-99719948D01*
X183975501Y-99719948D01*
X183976730Y-99660720D01*
X183986032Y-99570710D01*
G36*
X177259778Y-99491055D02*
G01*
X177305421Y-99425215D01*
X177387802Y-99358681D01*
X177478546Y-99325676D01*
X177571185Y-99323573D01*
X177659254Y-99349745D01*
X177736286Y-99401567D01*
X177795816Y-99476412D01*
X177831378Y-99571654D01*
X177838571Y-99641756D01*
X177837754Y-99671009D01*
X177830914Y-99693407D01*
X177812112Y-99713474D01*
X177775408Y-99735733D01*
X177714862Y-99764709D01*
X177624534Y-99804927D01*
X177624077Y-99805129D01*
X177540933Y-99843210D01*
X177472753Y-99877025D01*
X177426505Y-99902933D01*
X177409158Y-99917295D01*
X177409154Y-99917411D01*
X177424443Y-99948685D01*
X177460196Y-99983157D01*
X177501242Y-100007990D01*
X177522037Y-100012923D01*
X177578770Y-99995862D01*
X177627627Y-99953133D01*
X177651465Y-99906155D01*
X177674397Y-99871522D01*
X177719318Y-99832081D01*
X177772123Y-99798009D01*
X177818710Y-99779480D01*
X177828452Y-99778462D01*
X177839418Y-99795215D01*
X177840079Y-99838039D01*
X177832020Y-99895781D01*
X177816827Y-99957289D01*
X177796086Y-100011409D01*
X177795038Y-100013510D01*
X177732621Y-100100660D01*
X177651726Y-100159939D01*
X177559856Y-100189034D01*
X177464513Y-100185634D01*
X177373198Y-100147428D01*
X177369138Y-100144741D01*
X177297306Y-100079642D01*
X177250073Y-99994705D01*
X177223934Y-99883021D01*
X177220426Y-99851643D01*
X177214213Y-99703536D01*
X177221661Y-99634468D01*
X177409154Y-99634468D01*
X177411590Y-99677552D01*
X177424914Y-99690126D01*
X177458132Y-99680719D01*
X177510494Y-99658483D01*
X177569024Y-99630610D01*
X177570479Y-99629872D01*
X177620089Y-99603777D01*
X177640000Y-99586363D01*
X177635090Y-99568107D01*
X177614416Y-99544120D01*
X177561819Y-99509406D01*
X177505177Y-99506856D01*
X177454369Y-99532119D01*
X177419276Y-99580847D01*
X177409154Y-99634468D01*
X177221661Y-99634468D01*
X177226992Y-99585036D01*
X177259778Y-99491055D01*
G37*
X177259778Y-99491055D02*
X177305421Y-99425215D01*
X177387802Y-99358681D01*
X177478546Y-99325676D01*
X177571185Y-99323573D01*
X177659254Y-99349745D01*
X177736286Y-99401567D01*
X177795816Y-99476412D01*
X177831378Y-99571654D01*
X177838571Y-99641756D01*
X177837754Y-99671009D01*
X177830914Y-99693407D01*
X177812112Y-99713474D01*
X177775408Y-99735733D01*
X177714862Y-99764709D01*
X177624534Y-99804927D01*
X177624077Y-99805129D01*
X177540933Y-99843210D01*
X177472753Y-99877025D01*
X177426505Y-99902933D01*
X177409158Y-99917295D01*
X177409154Y-99917411D01*
X177424443Y-99948685D01*
X177460196Y-99983157D01*
X177501242Y-100007990D01*
X177522037Y-100012923D01*
X177578770Y-99995862D01*
X177627627Y-99953133D01*
X177651465Y-99906155D01*
X177674397Y-99871522D01*
X177719318Y-99832081D01*
X177772123Y-99798009D01*
X177818710Y-99779480D01*
X177828452Y-99778462D01*
X177839418Y-99795215D01*
X177840079Y-99838039D01*
X177832020Y-99895781D01*
X177816827Y-99957289D01*
X177796086Y-100011409D01*
X177795038Y-100013510D01*
X177732621Y-100100660D01*
X177651726Y-100159939D01*
X177559856Y-100189034D01*
X177464513Y-100185634D01*
X177373198Y-100147428D01*
X177369138Y-100144741D01*
X177297306Y-100079642D01*
X177250073Y-99994705D01*
X177223934Y-99883021D01*
X177220426Y-99851643D01*
X177214213Y-99703536D01*
X177221661Y-99634468D01*
X177409154Y-99634468D01*
X177411590Y-99677552D01*
X177424914Y-99690126D01*
X177458132Y-99680719D01*
X177510494Y-99658483D01*
X177569024Y-99630610D01*
X177570479Y-99629872D01*
X177620089Y-99603777D01*
X177640000Y-99586363D01*
X177635090Y-99568107D01*
X177614416Y-99544120D01*
X177561819Y-99509406D01*
X177505177Y-99506856D01*
X177454369Y-99532119D01*
X177419276Y-99580847D01*
X177409154Y-99634468D01*
X177221661Y-99634468D01*
X177226992Y-99585036D01*
X177259778Y-99491055D01*
G36*
X179284846Y-99242120D02*
G01*
X179290572Y-99321980D01*
X179297149Y-99369039D01*
X179306262Y-99389566D01*
X179319598Y-99389829D01*
X179323923Y-99387378D01*
X179381444Y-99369636D01*
X179456268Y-99370672D01*
X179532339Y-99388910D01*
X179579918Y-99412505D01*
X179628702Y-99450198D01*
X179664364Y-99492855D01*
X179688845Y-99547057D01*
X179704087Y-99619384D01*
X179712030Y-99716419D01*
X179714616Y-99844742D01*
X179714662Y-99869358D01*
X179714692Y-100145870D01*
X179653161Y-100167320D01*
X179609459Y-100181912D01*
X179585482Y-100188706D01*
X179584777Y-100188769D01*
X179582415Y-100170345D01*
X179580406Y-100119526D01*
X179578901Y-100042993D01*
X179578053Y-99947430D01*
X179577923Y-99889329D01*
X179577651Y-99774771D01*
X179576252Y-99692667D01*
X179572849Y-99636393D01*
X179566567Y-99599326D01*
X179556529Y-99574844D01*
X179541861Y-99556325D01*
X179532702Y-99547406D01*
X179469789Y-99511466D01*
X179401136Y-99508775D01*
X179338848Y-99539170D01*
X179327329Y-99550144D01*
X179310433Y-99570779D01*
X179298714Y-99595256D01*
X179291233Y-99630647D01*
X179287054Y-99684026D01*
X179285237Y-99762466D01*
X179284846Y-99870617D01*
X179284846Y-100145870D01*
X179223315Y-100167320D01*
X179179613Y-100181912D01*
X179155636Y-100188706D01*
X179154930Y-100188769D01*
X179153126Y-100170069D01*
X179151500Y-100117322D01*
X179150117Y-100035557D01*
X179149042Y-99929805D01*
X179148340Y-99805094D01*
X179148077Y-99666455D01*
X179148077Y-99131806D01*
X179275077Y-99078236D01*
X179284846Y-99242120D01*
G37*
X179284846Y-99242120D02*
X179290572Y-99321980D01*
X179297149Y-99369039D01*
X179306262Y-99389566D01*
X179319598Y-99389829D01*
X179323923Y-99387378D01*
X179381444Y-99369636D01*
X179456268Y-99370672D01*
X179532339Y-99388910D01*
X179579918Y-99412505D01*
X179628702Y-99450198D01*
X179664364Y-99492855D01*
X179688845Y-99547057D01*
X179704087Y-99619384D01*
X179712030Y-99716419D01*
X179714616Y-99844742D01*
X179714662Y-99869358D01*
X179714692Y-100145870D01*
X179653161Y-100167320D01*
X179609459Y-100181912D01*
X179585482Y-100188706D01*
X179584777Y-100188769D01*
X179582415Y-100170345D01*
X179580406Y-100119526D01*
X179578901Y-100042993D01*
X179578053Y-99947430D01*
X179577923Y-99889329D01*
X179577651Y-99774771D01*
X179576252Y-99692667D01*
X179572849Y-99636393D01*
X179566567Y-99599326D01*
X179556529Y-99574844D01*
X179541861Y-99556325D01*
X179532702Y-99547406D01*
X179469789Y-99511466D01*
X179401136Y-99508775D01*
X179338848Y-99539170D01*
X179327329Y-99550144D01*
X179310433Y-99570779D01*
X179298714Y-99595256D01*
X179291233Y-99630647D01*
X179287054Y-99684026D01*
X179285237Y-99762466D01*
X179284846Y-99870617D01*
X179284846Y-100145870D01*
X179223315Y-100167320D01*
X179179613Y-100181912D01*
X179155636Y-100188706D01*
X179154930Y-100188769D01*
X179153126Y-100170069D01*
X179151500Y-100117322D01*
X179150117Y-100035557D01*
X179149042Y-99929805D01*
X179148340Y-99805094D01*
X179148077Y-99666455D01*
X179148077Y-99131806D01*
X179275077Y-99078236D01*
X179284846Y-99242120D01*
G36*
X180264878Y-93037776D02*
G01*
X180370612Y-93038355D01*
X180447132Y-93039922D01*
X180499372Y-93042972D01*
X180532263Y-93047996D01*
X180550737Y-93055489D01*
X180559727Y-93065944D01*
X180564163Y-93079853D01*
X180564594Y-93081654D01*
X180571333Y-93114145D01*
X180583808Y-93178252D01*
X180600719Y-93267151D01*
X180620771Y-93374019D01*
X180642664Y-93492033D01*
X180643429Y-93496178D01*
X180665359Y-93611831D01*
X180685877Y-93714014D01*
X180703659Y-93796598D01*
X180717381Y-93853456D01*
X180725718Y-93878458D01*
X180726116Y-93878901D01*
X180750677Y-93891110D01*
X180801315Y-93911456D01*
X180867095Y-93935545D01*
X180867461Y-93935674D01*
X180950317Y-93966818D01*
X181048000Y-94006491D01*
X181140077Y-94046381D01*
X181144434Y-94048353D01*
X181294407Y-94116420D01*
X181626498Y-93889639D01*
X181728374Y-93820504D01*
X181820657Y-93758697D01*
X181898003Y-93707733D01*
X181955064Y-93671127D01*
X181986495Y-93652394D01*
X181989479Y-93651004D01*
X182012321Y-93657190D01*
X182054982Y-93687035D01*
X182119128Y-93741947D01*
X182206421Y-93823334D01*
X182295535Y-93909922D01*
X182381441Y-93995247D01*
X182458327Y-94073108D01*
X182521564Y-94138697D01*
X182566523Y-94187205D01*
X182588576Y-94213825D01*
X182589396Y-94215195D01*
X182591834Y-94233463D01*
X182582650Y-94263295D01*
X182559574Y-94308721D01*
X182520337Y-94373770D01*
X182462670Y-94462470D01*
X182385795Y-94576657D01*
X182317570Y-94677162D01*
X182256582Y-94767303D01*
X182206356Y-94841849D01*
X182170416Y-94895565D01*
X182152287Y-94923218D01*
X182151146Y-94925095D01*
X182153359Y-94951590D01*
X182170138Y-95003086D01*
X182198142Y-95069851D01*
X182208122Y-95091172D01*
X182251672Y-95186159D01*
X182298134Y-95293937D01*
X182335877Y-95387192D01*
X182363073Y-95456406D01*
X182384675Y-95509006D01*
X182397158Y-95536497D01*
X182398709Y-95538616D01*
X182421668Y-95542124D01*
X182475786Y-95551738D01*
X182553868Y-95566089D01*
X182648719Y-95583807D01*
X182753143Y-95603525D01*
X182859944Y-95623874D01*
X182961926Y-95643486D01*
X183051894Y-95660991D01*
X183122653Y-95675022D01*
X183167006Y-95684209D01*
X183177885Y-95686807D01*
X183189122Y-95693218D01*
X183197605Y-95707697D01*
X183203714Y-95735133D01*
X183207832Y-95780411D01*
X183210341Y-95848420D01*
X183211621Y-95944047D01*
X183212054Y-96072180D01*
X183212077Y-96124701D01*
X183212077Y-96551845D01*
X183109500Y-96572091D01*
X183052431Y-96583070D01*
X182967269Y-96599095D01*
X182864372Y-96618233D01*
X182754096Y-96638551D01*
X182723615Y-96644132D01*
X182621855Y-96663917D01*
X182533205Y-96683373D01*
X182465108Y-96700697D01*
X182425004Y-96714088D01*
X182418323Y-96718079D01*
X182401919Y-96746342D01*
X182378399Y-96801109D01*
X182352316Y-96871588D01*
X182347142Y-96886769D01*
X182312956Y-96980896D01*
X182270523Y-97087101D01*
X182228997Y-97182473D01*
X182228792Y-97182916D01*
X182159640Y-97332525D01*
X182614512Y-98001617D01*
X182322500Y-98294116D01*
X182234180Y-98381170D01*
X182153625Y-98457909D01*
X182085360Y-98520237D01*
X182033908Y-98564056D01*
X182003794Y-98585270D01*
X181999474Y-98586616D01*
X181974111Y-98576016D01*
X181922358Y-98546547D01*
X181849868Y-98501705D01*
X181762294Y-98444984D01*
X181667612Y-98381462D01*
X181571516Y-98316668D01*
X181485837Y-98260287D01*
X181416016Y-98215788D01*
X181367494Y-98186639D01*
X181345782Y-98176308D01*
X181319293Y-98185050D01*
X181269062Y-98208087D01*
X181205451Y-98240631D01*
X181198708Y-98244249D01*
X181113046Y-98287210D01*
X181054306Y-98308279D01*
X181017772Y-98308503D01*
X180998731Y-98288928D01*
X180998620Y-98288654D01*
X180989102Y-98265472D01*
X180966403Y-98210441D01*
X180932282Y-98127822D01*
X180888500Y-98021872D01*
X180836816Y-97896852D01*
X180778992Y-97757020D01*
X180722991Y-97621637D01*
X180661447Y-97472234D01*
X180604939Y-97333832D01*
X180555161Y-97210673D01*
X180513806Y-97107002D01*
X180482568Y-97027059D01*
X180463141Y-96975088D01*
X180457154Y-96955692D01*
X180472168Y-96933443D01*
X180511439Y-96897982D01*
X180563807Y-96858887D01*
X180712941Y-96735245D01*
X180829511Y-96593522D01*
X180912118Y-96436704D01*
X180959366Y-96267775D01*
X180969857Y-96089722D01*
X180962231Y-96007539D01*
X180920682Y-95837031D01*
X180849123Y-95686459D01*
X180751995Y-95557309D01*
X180633734Y-95451064D01*
X180498780Y-95369210D01*
X180351571Y-95313232D01*
X180196544Y-95284615D01*
X180038139Y-95284844D01*
X179880794Y-95315405D01*
X179728946Y-95377782D01*
X179587035Y-95473460D01*
X179527803Y-95527572D01*
X179414203Y-95666520D01*
X179335106Y-95818361D01*
X179289986Y-95978667D01*
X179278316Y-96143012D01*
X179299569Y-96306971D01*
X179353220Y-96466118D01*
X179438740Y-96616025D01*
X179555605Y-96752267D01*
X179686193Y-96858887D01*
X179740588Y-96899642D01*
X179779014Y-96934718D01*
X179792846Y-96955726D01*
X179785603Y-96978635D01*
X179765005Y-97033365D01*
X179732746Y-97115672D01*
X179690521Y-97221315D01*
X179640023Y-97346050D01*
X179582948Y-97485636D01*
X179526854Y-97621670D01*
X179464967Y-97771201D01*
X179407644Y-97909767D01*
X179356644Y-98033107D01*
X179313727Y-98136964D01*
X179280653Y-98217080D01*
X179259181Y-98269195D01*
X179251225Y-98288654D01*
X179232429Y-98308423D01*
X179196074Y-98308365D01*
X179137479Y-98287441D01*
X179051968Y-98244613D01*
X179051292Y-98244249D01*
X178986907Y-98211012D01*
X178934861Y-98186802D01*
X178905512Y-98176404D01*
X178904217Y-98176308D01*
X178882124Y-98186855D01*
X178833348Y-98216184D01*
X178763331Y-98260827D01*
X178677514Y-98317314D01*
X178582388Y-98381462D01*
X178485540Y-98446411D01*
X178398253Y-98502896D01*
X178326181Y-98547421D01*
X178274977Y-98576490D01*
X178250526Y-98586616D01*
X178228010Y-98573307D01*
X178182742Y-98536112D01*
X178119244Y-98479128D01*
X178042039Y-98406449D01*
X177955651Y-98322171D01*
X177927399Y-98294016D01*
X177635287Y-98001416D01*
X177857631Y-97675104D01*
X177925202Y-97574897D01*
X177984507Y-97484963D01*
X178032217Y-97410510D01*
X178065007Y-97356751D01*
X178079548Y-97328894D01*
X178079974Y-97326912D01*
X178072308Y-97300655D01*
X178051689Y-97247837D01*
X178021685Y-97177310D01*
X178000625Y-97130093D01*
X177961248Y-97039694D01*
X177924165Y-96948366D01*
X177895415Y-96871200D01*
X177887605Y-96847692D01*
X177865417Y-96784916D01*
X177843727Y-96736411D01*
X177831813Y-96718079D01*
X177805523Y-96706859D01*
X177748142Y-96690954D01*
X177667118Y-96672167D01*
X177569895Y-96652299D01*
X177526385Y-96644132D01*
X177415896Y-96623829D01*
X177309916Y-96604170D01*
X177218801Y-96587088D01*
X177152908Y-96574518D01*
X177140500Y-96572091D01*
X177037923Y-96551845D01*
X177037923Y-96124701D01*
X177038153Y-95984246D01*
X177039099Y-95877979D01*
X177041141Y-95801013D01*
X177044662Y-95748460D01*
X177050043Y-95715433D01*
X177057666Y-95697045D01*
X177067912Y-95688408D01*
X177072115Y-95686807D01*
X177097470Y-95681127D01*
X177153484Y-95669795D01*
X177232964Y-95654179D01*
X177328712Y-95635647D01*
X177433533Y-95615569D01*
X177540232Y-95595312D01*
X177641613Y-95576246D01*
X177730479Y-95559739D01*
X177799637Y-95547159D01*
X177841889Y-95539875D01*
X177851290Y-95538616D01*
X177859807Y-95521763D01*
X177878660Y-95476870D01*
X177904324Y-95412430D01*
X177914123Y-95387192D01*
X177953648Y-95289686D01*
X178000192Y-95181959D01*
X178041877Y-95091172D01*
X178072550Y-95021753D01*
X178092956Y-94964710D01*
X178099768Y-94929777D01*
X178098682Y-94925095D01*
X178084285Y-94902991D01*
X178051412Y-94853831D01*
X178003590Y-94782848D01*
X177944348Y-94695278D01*
X177877215Y-94596357D01*
X177863941Y-94576830D01*
X177786046Y-94461140D01*
X177728787Y-94373044D01*
X177689881Y-94308486D01*
X177667044Y-94263411D01*
X177657994Y-94233763D01*
X177660448Y-94215485D01*
X177660511Y-94215369D01*
X177679827Y-94191361D01*
X177722551Y-94144947D01*
X177784051Y-94080937D01*
X177859698Y-94004145D01*
X177944861Y-93919382D01*
X177954465Y-93909922D01*
X178061790Y-93805989D01*
X178144615Y-93729675D01*
X178204605Y-93679571D01*
X178243423Y-93654270D01*
X178260520Y-93651004D01*
X178285473Y-93665250D01*
X178337255Y-93698156D01*
X178410520Y-93746208D01*
X178499920Y-93805890D01*
X178600111Y-93873688D01*
X178623501Y-93889639D01*
X178955593Y-94116420D01*
X179105565Y-94048353D01*
X179196770Y-94008685D01*
X179294669Y-93968791D01*
X179378831Y-93936983D01*
X179382538Y-93935674D01*
X179448369Y-93911576D01*
X179499116Y-93891200D01*
X179523842Y-93878936D01*
X179523884Y-93878901D01*
X179531729Y-93856734D01*
X179545066Y-93802217D01*
X179562570Y-93721480D01*
X179582917Y-93620650D01*
X179604782Y-93505856D01*
X179606571Y-93496178D01*
X179628504Y-93377904D01*
X179648640Y-93270542D01*
X179665680Y-93180917D01*
X179678328Y-93115851D01*
X179685284Y-93082168D01*
X179685406Y-93081654D01*
X179689639Y-93067325D01*
X179697871Y-93056507D01*
X179715033Y-93048706D01*
X179746058Y-93043429D01*
X179795878Y-93040182D01*
X179869424Y-93038472D01*
X179971629Y-93037807D01*
X180107425Y-93037693D01*
X180125000Y-93037692D01*
X180264878Y-93037776D01*
G37*
X180264878Y-93037776D02*
X180370612Y-93038355D01*
X180447132Y-93039922D01*
X180499372Y-93042972D01*
X180532263Y-93047996D01*
X180550737Y-93055489D01*
X180559727Y-93065944D01*
X180564163Y-93079853D01*
X180564594Y-93081654D01*
X180571333Y-93114145D01*
X180583808Y-93178252D01*
X180600719Y-93267151D01*
X180620771Y-93374019D01*
X180642664Y-93492033D01*
X180643429Y-93496178D01*
X180665359Y-93611831D01*
X180685877Y-93714014D01*
X180703659Y-93796598D01*
X180717381Y-93853456D01*
X180725718Y-93878458D01*
X180726116Y-93878901D01*
X180750677Y-93891110D01*
X180801315Y-93911456D01*
X180867095Y-93935545D01*
X180867461Y-93935674D01*
X180950317Y-93966818D01*
X181048000Y-94006491D01*
X181140077Y-94046381D01*
X181144434Y-94048353D01*
X181294407Y-94116420D01*
X181626498Y-93889639D01*
X181728374Y-93820504D01*
X181820657Y-93758697D01*
X181898003Y-93707733D01*
X181955064Y-93671127D01*
X181986495Y-93652394D01*
X181989479Y-93651004D01*
X182012321Y-93657190D01*
X182054982Y-93687035D01*
X182119128Y-93741947D01*
X182206421Y-93823334D01*
X182295535Y-93909922D01*
X182381441Y-93995247D01*
X182458327Y-94073108D01*
X182521564Y-94138697D01*
X182566523Y-94187205D01*
X182588576Y-94213825D01*
X182589396Y-94215195D01*
X182591834Y-94233463D01*
X182582650Y-94263295D01*
X182559574Y-94308721D01*
X182520337Y-94373770D01*
X182462670Y-94462470D01*
X182385795Y-94576657D01*
X182317570Y-94677162D01*
X182256582Y-94767303D01*
X182206356Y-94841849D01*
X182170416Y-94895565D01*
X182152287Y-94923218D01*
X182151146Y-94925095D01*
X182153359Y-94951590D01*
X182170138Y-95003086D01*
X182198142Y-95069851D01*
X182208122Y-95091172D01*
X182251672Y-95186159D01*
X182298134Y-95293937D01*
X182335877Y-95387192D01*
X182363073Y-95456406D01*
X182384675Y-95509006D01*
X182397158Y-95536497D01*
X182398709Y-95538616D01*
X182421668Y-95542124D01*
X182475786Y-95551738D01*
X182553868Y-95566089D01*
X182648719Y-95583807D01*
X182753143Y-95603525D01*
X182859944Y-95623874D01*
X182961926Y-95643486D01*
X183051894Y-95660991D01*
X183122653Y-95675022D01*
X183167006Y-95684209D01*
X183177885Y-95686807D01*
X183189122Y-95693218D01*
X183197605Y-95707697D01*
X183203714Y-95735133D01*
X183207832Y-95780411D01*
X183210341Y-95848420D01*
X183211621Y-95944047D01*
X183212054Y-96072180D01*
X183212077Y-96124701D01*
X183212077Y-96551845D01*
X183109500Y-96572091D01*
X183052431Y-96583070D01*
X182967269Y-96599095D01*
X182864372Y-96618233D01*
X182754096Y-96638551D01*
X182723615Y-96644132D01*
X182621855Y-96663917D01*
X182533205Y-96683373D01*
X182465108Y-96700697D01*
X182425004Y-96714088D01*
X182418323Y-96718079D01*
X182401919Y-96746342D01*
X182378399Y-96801109D01*
X182352316Y-96871588D01*
X182347142Y-96886769D01*
X182312956Y-96980896D01*
X182270523Y-97087101D01*
X182228997Y-97182473D01*
X182228792Y-97182916D01*
X182159640Y-97332525D01*
X182614512Y-98001617D01*
X182322500Y-98294116D01*
X182234180Y-98381170D01*
X182153625Y-98457909D01*
X182085360Y-98520237D01*
X182033908Y-98564056D01*
X182003794Y-98585270D01*
X181999474Y-98586616D01*
X181974111Y-98576016D01*
X181922358Y-98546547D01*
X181849868Y-98501705D01*
X181762294Y-98444984D01*
X181667612Y-98381462D01*
X181571516Y-98316668D01*
X181485837Y-98260287D01*
X181416016Y-98215788D01*
X181367494Y-98186639D01*
X181345782Y-98176308D01*
X181319293Y-98185050D01*
X181269062Y-98208087D01*
X181205451Y-98240631D01*
X181198708Y-98244249D01*
X181113046Y-98287210D01*
X181054306Y-98308279D01*
X181017772Y-98308503D01*
X180998731Y-98288928D01*
X180998620Y-98288654D01*
X180989102Y-98265472D01*
X180966403Y-98210441D01*
X180932282Y-98127822D01*
X180888500Y-98021872D01*
X180836816Y-97896852D01*
X180778992Y-97757020D01*
X180722991Y-97621637D01*
X180661447Y-97472234D01*
X180604939Y-97333832D01*
X180555161Y-97210673D01*
X180513806Y-97107002D01*
X180482568Y-97027059D01*
X180463141Y-96975088D01*
X180457154Y-96955692D01*
X180472168Y-96933443D01*
X180511439Y-96897982D01*
X180563807Y-96858887D01*
X180712941Y-96735245D01*
X180829511Y-96593522D01*
X180912118Y-96436704D01*
X180959366Y-96267775D01*
X180969857Y-96089722D01*
X180962231Y-96007539D01*
X180920682Y-95837031D01*
X180849123Y-95686459D01*
X180751995Y-95557309D01*
X180633734Y-95451064D01*
X180498780Y-95369210D01*
X180351571Y-95313232D01*
X180196544Y-95284615D01*
X180038139Y-95284844D01*
X179880794Y-95315405D01*
X179728946Y-95377782D01*
X179587035Y-95473460D01*
X179527803Y-95527572D01*
X179414203Y-95666520D01*
X179335106Y-95818361D01*
X179289986Y-95978667D01*
X179278316Y-96143012D01*
X179299569Y-96306971D01*
X179353220Y-96466118D01*
X179438740Y-96616025D01*
X179555605Y-96752267D01*
X179686193Y-96858887D01*
X179740588Y-96899642D01*
X179779014Y-96934718D01*
X179792846Y-96955726D01*
X179785603Y-96978635D01*
X179765005Y-97033365D01*
X179732746Y-97115672D01*
X179690521Y-97221315D01*
X179640023Y-97346050D01*
X179582948Y-97485636D01*
X179526854Y-97621670D01*
X179464967Y-97771201D01*
X179407644Y-97909767D01*
X179356644Y-98033107D01*
X179313727Y-98136964D01*
X179280653Y-98217080D01*
X179259181Y-98269195D01*
X179251225Y-98288654D01*
X179232429Y-98308423D01*
X179196074Y-98308365D01*
X179137479Y-98287441D01*
X179051968Y-98244613D01*
X179051292Y-98244249D01*
X178986907Y-98211012D01*
X178934861Y-98186802D01*
X178905512Y-98176404D01*
X178904217Y-98176308D01*
X178882124Y-98186855D01*
X178833348Y-98216184D01*
X178763331Y-98260827D01*
X178677514Y-98317314D01*
X178582388Y-98381462D01*
X178485540Y-98446411D01*
X178398253Y-98502896D01*
X178326181Y-98547421D01*
X178274977Y-98576490D01*
X178250526Y-98586616D01*
X178228010Y-98573307D01*
X178182742Y-98536112D01*
X178119244Y-98479128D01*
X178042039Y-98406449D01*
X177955651Y-98322171D01*
X177927399Y-98294016D01*
X177635287Y-98001416D01*
X177857631Y-97675104D01*
X177925202Y-97574897D01*
X177984507Y-97484963D01*
X178032217Y-97410510D01*
X178065007Y-97356751D01*
X178079548Y-97328894D01*
X178079974Y-97326912D01*
X178072308Y-97300655D01*
X178051689Y-97247837D01*
X178021685Y-97177310D01*
X178000625Y-97130093D01*
X177961248Y-97039694D01*
X177924165Y-96948366D01*
X177895415Y-96871200D01*
X177887605Y-96847692D01*
X177865417Y-96784916D01*
X177843727Y-96736411D01*
X177831813Y-96718079D01*
X177805523Y-96706859D01*
X177748142Y-96690954D01*
X177667118Y-96672167D01*
X177569895Y-96652299D01*
X177526385Y-96644132D01*
X177415896Y-96623829D01*
X177309916Y-96604170D01*
X177218801Y-96587088D01*
X177152908Y-96574518D01*
X177140500Y-96572091D01*
X177037923Y-96551845D01*
X177037923Y-96124701D01*
X177038153Y-95984246D01*
X177039099Y-95877979D01*
X177041141Y-95801013D01*
X177044662Y-95748460D01*
X177050043Y-95715433D01*
X177057666Y-95697045D01*
X177067912Y-95688408D01*
X177072115Y-95686807D01*
X177097470Y-95681127D01*
X177153484Y-95669795D01*
X177232964Y-95654179D01*
X177328712Y-95635647D01*
X177433533Y-95615569D01*
X177540232Y-95595312D01*
X177641613Y-95576246D01*
X177730479Y-95559739D01*
X177799637Y-95547159D01*
X177841889Y-95539875D01*
X177851290Y-95538616D01*
X177859807Y-95521763D01*
X177878660Y-95476870D01*
X177904324Y-95412430D01*
X177914123Y-95387192D01*
X177953648Y-95289686D01*
X178000192Y-95181959D01*
X178041877Y-95091172D01*
X178072550Y-95021753D01*
X178092956Y-94964710D01*
X178099768Y-94929777D01*
X178098682Y-94925095D01*
X178084285Y-94902991D01*
X178051412Y-94853831D01*
X178003590Y-94782848D01*
X177944348Y-94695278D01*
X177877215Y-94596357D01*
X177863941Y-94576830D01*
X177786046Y-94461140D01*
X177728787Y-94373044D01*
X177689881Y-94308486D01*
X177667044Y-94263411D01*
X177657994Y-94233763D01*
X177660448Y-94215485D01*
X177660511Y-94215369D01*
X177679827Y-94191361D01*
X177722551Y-94144947D01*
X177784051Y-94080937D01*
X177859698Y-94004145D01*
X177944861Y-93919382D01*
X177954465Y-93909922D01*
X178061790Y-93805989D01*
X178144615Y-93729675D01*
X178204605Y-93679571D01*
X178243423Y-93654270D01*
X178260520Y-93651004D01*
X178285473Y-93665250D01*
X178337255Y-93698156D01*
X178410520Y-93746208D01*
X178499920Y-93805890D01*
X178600111Y-93873688D01*
X178623501Y-93889639D01*
X178955593Y-94116420D01*
X179105565Y-94048353D01*
X179196770Y-94008685D01*
X179294669Y-93968791D01*
X179378831Y-93936983D01*
X179382538Y-93935674D01*
X179448369Y-93911576D01*
X179499116Y-93891200D01*
X179523842Y-93878936D01*
X179523884Y-93878901D01*
X179531729Y-93856734D01*
X179545066Y-93802217D01*
X179562570Y-93721480D01*
X179582917Y-93620650D01*
X179604782Y-93505856D01*
X179606571Y-93496178D01*
X179628504Y-93377904D01*
X179648640Y-93270542D01*
X179665680Y-93180917D01*
X179678328Y-93115851D01*
X179685284Y-93082168D01*
X179685406Y-93081654D01*
X179689639Y-93067325D01*
X179697871Y-93056507D01*
X179715033Y-93048706D01*
X179746058Y-93043429D01*
X179795878Y-93040182D01*
X179869424Y-93038472D01*
X179971629Y-93037807D01*
X180107425Y-93037693D01*
X180125000Y-93037692D01*
X180264878Y-93037776D01*
G36*
X180178501Y-99376303D02*
G01*
X180255060Y-99404733D01*
X180255936Y-99405279D01*
X180303285Y-99440127D01*
X180338241Y-99480852D01*
X180362825Y-99533925D01*
X180379062Y-99605814D01*
X180388975Y-99702992D01*
X180394586Y-99831928D01*
X180395077Y-99850298D01*
X180402141Y-100127287D01*
X180342695Y-100158028D01*
X180299681Y-100178802D01*
X180273710Y-100188646D01*
X180272509Y-100188769D01*
X180268014Y-100170606D01*
X180264444Y-100121612D01*
X180262248Y-100050031D01*
X180261769Y-99992068D01*
X180261758Y-99898170D01*
X180257466Y-99839203D01*
X180242503Y-99811079D01*
X180210482Y-99809706D01*
X180155014Y-99830998D01*
X180071269Y-99870136D01*
X180009689Y-99902643D01*
X179978017Y-99930845D01*
X179968706Y-99961582D01*
X179968692Y-99963104D01*
X179984057Y-100016054D01*
X180029547Y-100044660D01*
X180099166Y-100048803D01*
X180149313Y-100048084D01*
X180175754Y-100062527D01*
X180192243Y-100097218D01*
X180201733Y-100141416D01*
X180188057Y-100166493D01*
X180182907Y-100170082D01*
X180134425Y-100184496D01*
X180066531Y-100186537D01*
X179996612Y-100176983D01*
X179947068Y-100159522D01*
X179878570Y-100101364D01*
X179839634Y-100020408D01*
X179831923Y-99957160D01*
X179837807Y-99900111D01*
X179859101Y-99853542D01*
X179901265Y-99812181D01*
X179969759Y-99770755D01*
X180070044Y-99723993D01*
X180076154Y-99721350D01*
X180166490Y-99679617D01*
X180222235Y-99645391D01*
X180246129Y-99614635D01*
X180240913Y-99583311D01*
X180209328Y-99547383D01*
X180199883Y-99539116D01*
X180136617Y-99507058D01*
X180071064Y-99508407D01*
X180013972Y-99539838D01*
X179976093Y-99598024D01*
X179972574Y-99609446D01*
X179938300Y-99664837D01*
X179894809Y-99691518D01*
X179831923Y-99717960D01*
X179831923Y-99649548D01*
X179851052Y-99550110D01*
X179907831Y-99458902D01*
X179937378Y-99428389D01*
X180004542Y-99389228D01*
X180089956Y-99371500D01*
X180178501Y-99376303D01*
G37*
X180178501Y-99376303D02*
X180255060Y-99404733D01*
X180255936Y-99405279D01*
X180303285Y-99440127D01*
X180338241Y-99480852D01*
X180362825Y-99533925D01*
X180379062Y-99605814D01*
X180388975Y-99702992D01*
X180394586Y-99831928D01*
X180395077Y-99850298D01*
X180402141Y-100127287D01*
X180342695Y-100158028D01*
X180299681Y-100178802D01*
X180273710Y-100188646D01*
X180272509Y-100188769D01*
X180268014Y-100170606D01*
X180264444Y-100121612D01*
X180262248Y-100050031D01*
X180261769Y-99992068D01*
X180261758Y-99898170D01*
X180257466Y-99839203D01*
X180242503Y-99811079D01*
X180210482Y-99809706D01*
X180155014Y-99830998D01*
X180071269Y-99870136D01*
X180009689Y-99902643D01*
X179978017Y-99930845D01*
X179968706Y-99961582D01*
X179968692Y-99963104D01*
X179984057Y-100016054D01*
X180029547Y-100044660D01*
X180099166Y-100048803D01*
X180149313Y-100048084D01*
X180175754Y-100062527D01*
X180192243Y-100097218D01*
X180201733Y-100141416D01*
X180188057Y-100166493D01*
X180182907Y-100170082D01*
X180134425Y-100184496D01*
X180066531Y-100186537D01*
X179996612Y-100176983D01*
X179947068Y-100159522D01*
X179878570Y-100101364D01*
X179839634Y-100020408D01*
X179831923Y-99957160D01*
X179837807Y-99900111D01*
X179859101Y-99853542D01*
X179901265Y-99812181D01*
X179969759Y-99770755D01*
X180070044Y-99723993D01*
X180076154Y-99721350D01*
X180166490Y-99679617D01*
X180222235Y-99645391D01*
X180246129Y-99614635D01*
X180240913Y-99583311D01*
X180209328Y-99547383D01*
X180199883Y-99539116D01*
X180136617Y-99507058D01*
X180071064Y-99508407D01*
X180013972Y-99539838D01*
X179976093Y-99598024D01*
X179972574Y-99609446D01*
X179938300Y-99664837D01*
X179894809Y-99691518D01*
X179831923Y-99717960D01*
X179831923Y-99649548D01*
X179851052Y-99550110D01*
X179907831Y-99458902D01*
X179937378Y-99428389D01*
X180004542Y-99389228D01*
X180089956Y-99371500D01*
X180178501Y-99376303D01*
G36*
X180838362Y-99374670D02*
G01*
X180927117Y-99407421D01*
X180999022Y-99465350D01*
X181027144Y-99506128D01*
X181057802Y-99580954D01*
X181057165Y-99635058D01*
X181024987Y-99671446D01*
X181013081Y-99677633D01*
X180961675Y-99696925D01*
X180935422Y-99691982D01*
X180926530Y-99659587D01*
X180926077Y-99641692D01*
X180909797Y-99575859D01*
X180867365Y-99529807D01*
X180808388Y-99507564D01*
X180742475Y-99513161D01*
X180688895Y-99542229D01*
X180670798Y-99558810D01*
X180657971Y-99578925D01*
X180649306Y-99609332D01*
X180643696Y-99656788D01*
X180640035Y-99728050D01*
X180637215Y-99829875D01*
X180636484Y-99862115D01*
X180633820Y-99972410D01*
X180630792Y-100050036D01*
X180626250Y-100101396D01*
X180619046Y-100132890D01*
X180608033Y-100150920D01*
X180592060Y-100161888D01*
X180581834Y-100166733D01*
X180538406Y-100183301D01*
X180512842Y-100188769D01*
X180504395Y-100170507D01*
X180499239Y-100115296D01*
X180497346Y-100022499D01*
X180498689Y-99891478D01*
X180499107Y-99871269D01*
X180502058Y-99751733D01*
X180505548Y-99664449D01*
X180510514Y-99602591D01*
X180517893Y-99559336D01*
X180528624Y-99527860D01*
X180543645Y-99501339D01*
X180551502Y-99489975D01*
X180596553Y-99439692D01*
X180646940Y-99400581D01*
X180653108Y-99397167D01*
X180743458Y-99370212D01*
X180838362Y-99374670D01*
G37*
X180838362Y-99374670D02*
X180927117Y-99407421D01*
X180999022Y-99465350D01*
X181027144Y-99506128D01*
X181057802Y-99580954D01*
X181057165Y-99635058D01*
X181024987Y-99671446D01*
X181013081Y-99677633D01*
X180961675Y-99696925D01*
X180935422Y-99691982D01*
X180926530Y-99659587D01*
X180926077Y-99641692D01*
X180909797Y-99575859D01*
X180867365Y-99529807D01*
X180808388Y-99507564D01*
X180742475Y-99513161D01*
X180688895Y-99542229D01*
X180670798Y-99558810D01*
X180657971Y-99578925D01*
X180649306Y-99609332D01*
X180643696Y-99656788D01*
X180640035Y-99728050D01*
X180637215Y-99829875D01*
X180636484Y-99862115D01*
X180633820Y-99972410D01*
X180630792Y-100050036D01*
X180626250Y-100101396D01*
X180619046Y-100132890D01*
X180608033Y-100150920D01*
X180592060Y-100161888D01*
X180581834Y-100166733D01*
X180538406Y-100183301D01*
X180512842Y-100188769D01*
X180504395Y-100170507D01*
X180499239Y-100115296D01*
X180497346Y-100022499D01*
X180498689Y-99891478D01*
X180499107Y-99871269D01*
X180502058Y-99751733D01*
X180505548Y-99664449D01*
X180510514Y-99602591D01*
X180517893Y-99559336D01*
X180528624Y-99527860D01*
X180543645Y-99501339D01*
X180551502Y-99489975D01*
X180596553Y-99439692D01*
X180646940Y-99400581D01*
X180653108Y-99397167D01*
X180743458Y-99370212D01*
X180838362Y-99374670D01*
G36*
X183012333Y-99383528D02*
G01*
X183068590Y-99409117D01*
X183112747Y-99440124D01*
X183145101Y-99474795D01*
X183167438Y-99519520D01*
X183181546Y-99580692D01*
X183189211Y-99664701D01*
X183192220Y-99777940D01*
X183192538Y-99852509D01*
X183192538Y-100143420D01*
X183142773Y-100166095D01*
X183103576Y-100182667D01*
X183084157Y-100188769D01*
X183080442Y-100170610D01*
X183077495Y-100121648D01*
X183075691Y-100050153D01*
X183075308Y-99993385D01*
X183073661Y-99911371D01*
X183069222Y-99846309D01*
X183062740Y-99806467D01*
X183057590Y-99798000D01*
X183022977Y-99806646D01*
X182968640Y-99828823D01*
X182905722Y-99858886D01*
X182845368Y-99891192D01*
X182798721Y-99920098D01*
X182776926Y-99939961D01*
X182776839Y-99940175D01*
X182778714Y-99976935D01*
X182795525Y-100012026D01*
X182825039Y-100040528D01*
X182868116Y-100050061D01*
X182904932Y-100048950D01*
X182957074Y-100048133D01*
X182984444Y-100060349D01*
X183000882Y-100092624D01*
X183002955Y-100098710D01*
X183010081Y-100144739D01*
X182991024Y-100172687D01*
X182941353Y-100186007D01*
X182887697Y-100188470D01*
X182791142Y-100170210D01*
X182741159Y-100144131D01*
X182679429Y-100082868D01*
X182646690Y-100007670D01*
X182643753Y-99928211D01*
X182671424Y-99854167D01*
X182713047Y-99807769D01*
X182754604Y-99781793D01*
X182819922Y-99748907D01*
X182896038Y-99715557D01*
X182908726Y-99710461D01*
X182992333Y-99673565D01*
X183040530Y-99641046D01*
X183056030Y-99608718D01*
X183041550Y-99572394D01*
X183016692Y-99544000D01*
X182957939Y-99509039D01*
X182893293Y-99506417D01*
X182834008Y-99533358D01*
X182791339Y-99587088D01*
X182785739Y-99600950D01*
X182753133Y-99651936D01*
X182705530Y-99689787D01*
X182645461Y-99720850D01*
X182645461Y-99632768D01*
X182648997Y-99578951D01*
X182664156Y-99536534D01*
X182697768Y-99491279D01*
X182730035Y-99456420D01*
X182780209Y-99407062D01*
X182819193Y-99380547D01*
X182861064Y-99369911D01*
X182908460Y-99368154D01*
X183012333Y-99383528D01*
G37*
X183012333Y-99383528D02*
X183068590Y-99409117D01*
X183112747Y-99440124D01*
X183145101Y-99474795D01*
X183167438Y-99519520D01*
X183181546Y-99580692D01*
X183189211Y-99664701D01*
X183192220Y-99777940D01*
X183192538Y-99852509D01*
X183192538Y-100143420D01*
X183142773Y-100166095D01*
X183103576Y-100182667D01*
X183084157Y-100188769D01*
X183080442Y-100170610D01*
X183077495Y-100121648D01*
X183075691Y-100050153D01*
X183075308Y-99993385D01*
X183073661Y-99911371D01*
X183069222Y-99846309D01*
X183062740Y-99806467D01*
X183057590Y-99798000D01*
X183022977Y-99806646D01*
X182968640Y-99828823D01*
X182905722Y-99858886D01*
X182845368Y-99891192D01*
X182798721Y-99920098D01*
X182776926Y-99939961D01*
X182776839Y-99940175D01*
X182778714Y-99976935D01*
X182795525Y-100012026D01*
X182825039Y-100040528D01*
X182868116Y-100050061D01*
X182904932Y-100048950D01*
X182957074Y-100048133D01*
X182984444Y-100060349D01*
X183000882Y-100092624D01*
X183002955Y-100098710D01*
X183010081Y-100144739D01*
X182991024Y-100172687D01*
X182941353Y-100186007D01*
X182887697Y-100188470D01*
X182791142Y-100170210D01*
X182741159Y-100144131D01*
X182679429Y-100082868D01*
X182646690Y-100007670D01*
X182643753Y-99928211D01*
X182671424Y-99854167D01*
X182713047Y-99807769D01*
X182754604Y-99781793D01*
X182819922Y-99748907D01*
X182896038Y-99715557D01*
X182908726Y-99710461D01*
X182992333Y-99673565D01*
X183040530Y-99641046D01*
X183056030Y-99608718D01*
X183041550Y-99572394D01*
X183016692Y-99544000D01*
X182957939Y-99509039D01*
X182893293Y-99506417D01*
X182834008Y-99533358D01*
X182791339Y-99587088D01*
X182785739Y-99600950D01*
X182753133Y-99651936D01*
X182705530Y-99689787D01*
X182645461Y-99720850D01*
X182645461Y-99632768D01*
X182648997Y-99578951D01*
X182664156Y-99536534D01*
X182697768Y-99491279D01*
X182730035Y-99456420D01*
X182780209Y-99407062D01*
X182819193Y-99380547D01*
X182861064Y-99369911D01*
X182908460Y-99368154D01*
X183012333Y-99383528D01*
G36*
X182520929Y-99386662D02*
G01*
X182523911Y-99438068D01*
X182526247Y-99516192D01*
X182527749Y-99614857D01*
X182528231Y-99718343D01*
X182528231Y-100068533D01*
X182466401Y-100130363D01*
X182423793Y-100168462D01*
X182386390Y-100183895D01*
X182335270Y-100182918D01*
X182314978Y-100180433D01*
X182251554Y-100173200D01*
X182199095Y-100169055D01*
X182186308Y-100168672D01*
X182143199Y-100171176D01*
X182081544Y-100177462D01*
X182057638Y-100180433D01*
X181998922Y-100185028D01*
X181959464Y-100175046D01*
X181920338Y-100144228D01*
X181906215Y-100130363D01*
X181844385Y-100068533D01*
X181844385Y-99413503D01*
X181894150Y-99390829D01*
X181937002Y-99374034D01*
X181962073Y-99368154D01*
X181968501Y-99386736D01*
X181974509Y-99438655D01*
X181979697Y-99518172D01*
X181983664Y-99619546D01*
X181985577Y-99705192D01*
X181990923Y-100042231D01*
X182037560Y-100048825D01*
X182079976Y-100044214D01*
X182100760Y-100029287D01*
X182106570Y-100001377D01*
X182111530Y-99941925D01*
X182115246Y-99858466D01*
X182117324Y-99758532D01*
X182117624Y-99707104D01*
X182117923Y-99411054D01*
X182179454Y-99389604D01*
X182223004Y-99375020D01*
X182246694Y-99368219D01*
X182247377Y-99368154D01*
X182249754Y-99386642D01*
X182252366Y-99437906D01*
X182254995Y-99515649D01*
X182257421Y-99613574D01*
X182259115Y-99705192D01*
X182264461Y-100042231D01*
X182381692Y-100042231D01*
X182387072Y-99734746D01*
X182392451Y-99427261D01*
X182449601Y-99397707D01*
X182491797Y-99377413D01*
X182516770Y-99368204D01*
X182517491Y-99368154D01*
X182520929Y-99386662D01*
G37*
X182520929Y-99386662D02*
X182523911Y-99438068D01*
X182526247Y-99516192D01*
X182527749Y-99614857D01*
X182528231Y-99718343D01*
X182528231Y-100068533D01*
X182466401Y-100130363D01*
X182423793Y-100168462D01*
X182386390Y-100183895D01*
X182335270Y-100182918D01*
X182314978Y-100180433D01*
X182251554Y-100173200D01*
X182199095Y-100169055D01*
X182186308Y-100168672D01*
X182143199Y-100171176D01*
X182081544Y-100177462D01*
X182057638Y-100180433D01*
X181998922Y-100185028D01*
X181959464Y-100175046D01*
X181920338Y-100144228D01*
X181906215Y-100130363D01*
X181844385Y-100068533D01*
X181844385Y-99413503D01*
X181894150Y-99390829D01*
X181937002Y-99374034D01*
X181962073Y-99368154D01*
X181968501Y-99386736D01*
X181974509Y-99438655D01*
X181979697Y-99518172D01*
X181983664Y-99619546D01*
X181985577Y-99705192D01*
X181990923Y-100042231D01*
X182037560Y-100048825D01*
X182079976Y-100044214D01*
X182100760Y-100029287D01*
X182106570Y-100001377D01*
X182111530Y-99941925D01*
X182115246Y-99858466D01*
X182117324Y-99758532D01*
X182117624Y-99707104D01*
X182117923Y-99411054D01*
X182179454Y-99389604D01*
X182223004Y-99375020D01*
X182246694Y-99368219D01*
X182247377Y-99368154D01*
X182249754Y-99386642D01*
X182252366Y-99437906D01*
X182254995Y-99515649D01*
X182257421Y-99613574D01*
X182259115Y-99705192D01*
X182264461Y-100042231D01*
X182381692Y-100042231D01*
X182387072Y-99734746D01*
X182392451Y-99427261D01*
X182449601Y-99397707D01*
X182491797Y-99377413D01*
X182516770Y-99368204D01*
X182517491Y-99368154D01*
X182520929Y-99386662D01*
G36*
X175732629Y-99587906D02*
G01*
X175739322Y-99539163D01*
X175750960Y-99503288D01*
X175768853Y-99471548D01*
X175772808Y-99465648D01*
X175839267Y-99386104D01*
X175911685Y-99339929D01*
X175999849Y-99321599D01*
X176029787Y-99320703D01*
X176141886Y-99337256D01*
X176233464Y-99385409D01*
X176301049Y-99462905D01*
X176325057Y-99512727D01*
X176343738Y-99587533D01*
X176353301Y-99682052D01*
X176354208Y-99785210D01*
X176346921Y-99885935D01*
X176331903Y-99973153D01*
X176309615Y-100035791D01*
X176302765Y-100046579D01*
X176221632Y-100127105D01*
X176125266Y-100175336D01*
X176020701Y-100189450D01*
X175914968Y-100167629D01*
X175885543Y-100154547D01*
X175828241Y-100114231D01*
X175777950Y-100060775D01*
X175773197Y-100053995D01*
X175753878Y-100021321D01*
X175741108Y-99986394D01*
X175733564Y-99940414D01*
X175729924Y-99874584D01*
X175728865Y-99780105D01*
X175728846Y-99758923D01*
X175728894Y-99752182D01*
X175924231Y-99752182D01*
X175925368Y-99841349D01*
X175929841Y-99900520D01*
X175939246Y-99938741D01*
X175955176Y-99965053D01*
X175963308Y-99973846D01*
X176010058Y-100007261D01*
X176055447Y-100005737D01*
X176101340Y-99976752D01*
X176128712Y-99945809D01*
X176144923Y-99900643D01*
X176154026Y-99829420D01*
X176154651Y-99821114D01*
X176156204Y-99692037D01*
X176139965Y-99596172D01*
X176106152Y-99534107D01*
X176054984Y-99506432D01*
X176036720Y-99504923D01*
X175988760Y-99512513D01*
X175955953Y-99538808D01*
X175935895Y-99589095D01*
X175926178Y-99668664D01*
X175924231Y-99752182D01*
X175728894Y-99752182D01*
X175729574Y-99658249D01*
X175732629Y-99587906D01*
G37*
X175732629Y-99587906D02*
X175739322Y-99539163D01*
X175750960Y-99503288D01*
X175768853Y-99471548D01*
X175772808Y-99465648D01*
X175839267Y-99386104D01*
X175911685Y-99339929D01*
X175999849Y-99321599D01*
X176029787Y-99320703D01*
X176141886Y-99337256D01*
X176233464Y-99385409D01*
X176301049Y-99462905D01*
X176325057Y-99512727D01*
X176343738Y-99587533D01*
X176353301Y-99682052D01*
X176354208Y-99785210D01*
X176346921Y-99885935D01*
X176331903Y-99973153D01*
X176309615Y-100035791D01*
X176302765Y-100046579D01*
X176221632Y-100127105D01*
X176125266Y-100175336D01*
X176020701Y-100189450D01*
X175914968Y-100167629D01*
X175885543Y-100154547D01*
X175828241Y-100114231D01*
X175777950Y-100060775D01*
X175773197Y-100053995D01*
X175753878Y-100021321D01*
X175741108Y-99986394D01*
X175733564Y-99940414D01*
X175729924Y-99874584D01*
X175728865Y-99780105D01*
X175728846Y-99758923D01*
X175728894Y-99752182D01*
X175924231Y-99752182D01*
X175925368Y-99841349D01*
X175929841Y-99900520D01*
X175939246Y-99938741D01*
X175955176Y-99965053D01*
X175963308Y-99973846D01*
X176010058Y-100007261D01*
X176055447Y-100005737D01*
X176101340Y-99976752D01*
X176128712Y-99945809D01*
X176144923Y-99900643D01*
X176154026Y-99829420D01*
X176154651Y-99821114D01*
X176156204Y-99692037D01*
X176139965Y-99596172D01*
X176106152Y-99534107D01*
X176054984Y-99506432D01*
X176036720Y-99504923D01*
X175988760Y-99512513D01*
X175955953Y-99538808D01*
X175935895Y-99589095D01*
X175926178Y-99668664D01*
X175924231Y-99752182D01*
X175728894Y-99752182D01*
X175729574Y-99658249D01*
X175732629Y-99587906D01*
G36*
X176481873Y-99644679D02*
G01*
X176485606Y-99580905D01*
X176490907Y-99535582D01*
X176498258Y-99503555D01*
X176508143Y-99479668D01*
X176521046Y-99458764D01*
X176526579Y-99450898D01*
X176599969Y-99376595D01*
X176692760Y-99334467D01*
X176800096Y-99322722D01*
X176893886Y-99334505D01*
X176968539Y-99371727D01*
X177034431Y-99440261D01*
X177052577Y-99465648D01*
X177072345Y-99498866D01*
X177085172Y-99534945D01*
X177092510Y-99583098D01*
X177095813Y-99652536D01*
X177096538Y-99744206D01*
X177093263Y-99869830D01*
X177081877Y-99964154D01*
X177060041Y-100034523D01*
X177025419Y-100088286D01*
X176975670Y-100132788D01*
X176972014Y-100135423D01*
X176922985Y-100162377D01*
X176863945Y-100175712D01*
X176788859Y-100179000D01*
X176666795Y-100179000D01*
X176666744Y-100297497D01*
X176665608Y-100363492D01*
X176658686Y-100402202D01*
X176640598Y-100425419D01*
X176605962Y-100444933D01*
X176597645Y-100448920D01*
X176558720Y-100467603D01*
X176528583Y-100479403D01*
X176506174Y-100480422D01*
X176490433Y-100466761D01*
X176480302Y-100434522D01*
X176474723Y-100379804D01*
X176472635Y-100298711D01*
X176472981Y-100187344D01*
X176474700Y-100041802D01*
X176475237Y-99998269D01*
X176477172Y-99848205D01*
X176478904Y-99750042D01*
X176666692Y-99750042D01*
X176667748Y-99833364D01*
X176672438Y-99887880D01*
X176683051Y-99923837D01*
X176701872Y-99951482D01*
X176714650Y-99964965D01*
X176766890Y-100004417D01*
X176813142Y-100007628D01*
X176860867Y-99975049D01*
X176862077Y-99973846D01*
X176881494Y-99948668D01*
X176893307Y-99914447D01*
X176899265Y-99861748D01*
X176901120Y-99781131D01*
X176901154Y-99763271D01*
X176896670Y-99652175D01*
X176882074Y-99575161D01*
X176855650Y-99528147D01*
X176815683Y-99507050D01*
X176792584Y-99504923D01*
X176737762Y-99514900D01*
X176700158Y-99547752D01*
X176677523Y-99607857D01*
X176667606Y-99699598D01*
X176666692Y-99750042D01*
X176478904Y-99750042D01*
X176479222Y-99732060D01*
X176481873Y-99644679D01*
G37*
X176481873Y-99644679D02*
X176485606Y-99580905D01*
X176490907Y-99535582D01*
X176498258Y-99503555D01*
X176508143Y-99479668D01*
X176521046Y-99458764D01*
X176526579Y-99450898D01*
X176599969Y-99376595D01*
X176692760Y-99334467D01*
X176800096Y-99322722D01*
X176893886Y-99334505D01*
X176968539Y-99371727D01*
X177034431Y-99440261D01*
X177052577Y-99465648D01*
X177072345Y-99498866D01*
X177085172Y-99534945D01*
X177092510Y-99583098D01*
X177095813Y-99652536D01*
X177096538Y-99744206D01*
X177093263Y-99869830D01*
X177081877Y-99964154D01*
X177060041Y-100034523D01*
X177025419Y-100088286D01*
X176975670Y-100132788D01*
X176972014Y-100135423D01*
X176922985Y-100162377D01*
X176863945Y-100175712D01*
X176788859Y-100179000D01*
X176666795Y-100179000D01*
X176666744Y-100297497D01*
X176665608Y-100363492D01*
X176658686Y-100402202D01*
X176640598Y-100425419D01*
X176605962Y-100444933D01*
X176597645Y-100448920D01*
X176558720Y-100467603D01*
X176528583Y-100479403D01*
X176506174Y-100480422D01*
X176490433Y-100466761D01*
X176480302Y-100434522D01*
X176474723Y-100379804D01*
X176472635Y-100298711D01*
X176472981Y-100187344D01*
X176474700Y-100041802D01*
X176475237Y-99998269D01*
X176477172Y-99848205D01*
X176478904Y-99750042D01*
X176666692Y-99750042D01*
X176667748Y-99833364D01*
X176672438Y-99887880D01*
X176683051Y-99923837D01*
X176701872Y-99951482D01*
X176714650Y-99964965D01*
X176766890Y-100004417D01*
X176813142Y-100007628D01*
X176860867Y-99975049D01*
X176862077Y-99973846D01*
X176881494Y-99948668D01*
X176893307Y-99914447D01*
X176899265Y-99861748D01*
X176901120Y-99781131D01*
X176901154Y-99763271D01*
X176896670Y-99652175D01*
X176882074Y-99575161D01*
X176855650Y-99528147D01*
X176815683Y-99507050D01*
X176792584Y-99504923D01*
X176737762Y-99514900D01*
X176700158Y-99547752D01*
X176677523Y-99607857D01*
X176667606Y-99699598D01*
X176666692Y-99750042D01*
X176478904Y-99750042D01*
X176479222Y-99732060D01*
X176481873Y-99644679D01*
D15*
%TO.C,J1*%
X227790000Y-92435000D02*
X227790000Y-91165000D01*
X224615000Y-90530000D02*
X223345000Y-90530000D01*
X212550000Y-92435000D02*
X212550000Y-91165000D01*
X217630000Y-92435000D02*
X218265000Y-93070000D01*
X213185000Y-93070000D02*
X212550000Y-92435000D01*
D16*
X226774000Y-91546000D02*
X226774000Y-92054000D01*
D15*
X222075000Y-93070000D02*
X222710000Y-92435000D01*
D16*
X224234000Y-92054000D02*
X223726000Y-92054000D01*
D15*
X213185000Y-93070000D02*
X214455000Y-93070000D01*
X227790000Y-91165000D02*
X227155000Y-90530000D01*
X222710000Y-92435000D02*
X223345000Y-93070000D01*
D16*
X223726000Y-91546000D02*
X223726000Y-92054000D01*
D15*
X227155000Y-93070000D02*
X227790000Y-92435000D01*
D16*
X221694000Y-91546000D02*
X221186000Y-91546000D01*
X224234000Y-91546000D02*
X223726000Y-91546000D01*
D15*
X220805000Y-93070000D02*
X222075000Y-93070000D01*
X218265000Y-90530000D02*
X217630000Y-91165000D01*
X215090000Y-92435000D02*
X215725000Y-93070000D01*
X212550000Y-91165000D02*
X213185000Y-90530000D01*
D16*
X213566000Y-91546000D02*
X213566000Y-92054000D01*
X214074000Y-91546000D02*
X214074000Y-92054000D01*
X216614000Y-92054000D02*
X216106000Y-92054000D01*
D15*
X222710000Y-91165000D02*
X222075000Y-90530000D01*
X225885000Y-90530000D02*
X225250000Y-91165000D01*
X227155000Y-90530000D02*
X225885000Y-90530000D01*
X214455000Y-93070000D02*
X215090000Y-92435000D01*
X220805000Y-93070000D02*
X220170000Y-92435000D01*
D16*
X221186000Y-91546000D02*
X221186000Y-92054000D01*
D15*
X216995000Y-93070000D02*
X217630000Y-92435000D01*
D16*
X216614000Y-91546000D02*
X216106000Y-91546000D01*
X214074000Y-92054000D02*
X213566000Y-92054000D01*
D15*
X225250000Y-92435000D02*
X225885000Y-93070000D01*
X224615000Y-93070000D02*
X225250000Y-92435000D01*
X219535000Y-90530000D02*
X218265000Y-90530000D01*
D16*
X221694000Y-91546000D02*
X221694000Y-92054000D01*
D15*
X223345000Y-93070000D02*
X224615000Y-93070000D01*
X222075000Y-90530000D02*
X220805000Y-90530000D01*
X225250000Y-91165000D02*
X224615000Y-90530000D01*
D16*
X219154000Y-91546000D02*
X219154000Y-92054000D01*
D15*
X215725000Y-90530000D02*
X215090000Y-91165000D01*
X215725000Y-93070000D02*
X216995000Y-93070000D01*
D16*
X216106000Y-91546000D02*
X216106000Y-92054000D01*
D15*
X219535000Y-93070000D02*
X220170000Y-92435000D01*
X216995000Y-90530000D02*
X215725000Y-90530000D01*
X220170000Y-91165000D02*
X219535000Y-90530000D01*
X214455000Y-90530000D02*
X213185000Y-90530000D01*
X223345000Y-90530000D02*
X222710000Y-91165000D01*
D16*
X226774000Y-92054000D02*
X226266000Y-92054000D01*
X214074000Y-91546000D02*
X213566000Y-91546000D01*
X226266000Y-91546000D02*
X226266000Y-92054000D01*
D15*
X220170000Y-91165000D02*
X220805000Y-90530000D01*
X215090000Y-91165000D02*
X214455000Y-90530000D01*
D16*
X226774000Y-91546000D02*
X226266000Y-91546000D01*
X216614000Y-91546000D02*
X216614000Y-92054000D01*
D15*
X225885000Y-93070000D02*
X227155000Y-93070000D01*
X218265000Y-93070000D02*
X219535000Y-93070000D01*
D16*
X221694000Y-92054000D02*
X221186000Y-92054000D01*
X224234000Y-91546000D02*
X224234000Y-92054000D01*
D15*
X217630000Y-91165000D02*
X216995000Y-90530000D01*
D10*
%TO.C,U7*%
X209575000Y-81275000D02*
X209575000Y-75650000D01*
X215125000Y-80150000D02*
X215125000Y-75650000D01*
%TD*%
M02*
