%TF.GenerationSoftware,KiCad,Pcbnew,(6.0.10)*%
%TF.CreationDate,2023-02-05T01:38:08-05:00*%
%TF.ProjectId,lin-valve-control,6c696e2d-7661-46c7-9665-2d636f6e7472,1.0*%
%TF.SameCoordinates,Original*%
%TF.FileFunction,Copper,L4,Bot*%
%TF.FilePolarity,Positive*%
%FSLAX46Y46*%
G04 Gerber Fmt 4.6, Leading zero omitted, Abs format (unit mm)*
G04 Created by KiCad (PCBNEW (6.0.10)) date 2023-02-05 01:38:08*
%MOMM*%
%LPD*%
G01*
G04 APERTURE LIST*
G04 Aperture macros list*
%AMRoundRect*
0 Rectangle with rounded corners*
0 $1 Rounding radius*
0 $2 $3 $4 $5 $6 $7 $8 $9 X,Y pos of 4 corners*
0 Add a 4 corners polygon primitive as box body*
4,1,4,$2,$3,$4,$5,$6,$7,$8,$9,$2,$3,0*
0 Add four circle primitives for the rounded corners*
1,1,$1+$1,$2,$3*
1,1,$1+$1,$4,$5*
1,1,$1+$1,$6,$7*
1,1,$1+$1,$8,$9*
0 Add four rect primitives between the rounded corners*
20,1,$1+$1,$2,$3,$4,$5,0*
20,1,$1+$1,$4,$5,$6,$7,0*
20,1,$1+$1,$6,$7,$8,$9,0*
20,1,$1+$1,$8,$9,$2,$3,0*%
G04 Aperture macros list end*
%TA.AperFunction,ComponentPad*%
%ADD10R,1.600000X1.600000*%
%TD*%
%TA.AperFunction,ComponentPad*%
%ADD11O,1.600000X1.600000*%
%TD*%
%TA.AperFunction,ComponentPad*%
%ADD12R,2.100000X2.100000*%
%TD*%
%TA.AperFunction,ComponentPad*%
%ADD13C,2.100000*%
%TD*%
%TA.AperFunction,ComponentPad*%
%ADD14C,2.286000*%
%TD*%
%TA.AperFunction,ComponentPad*%
%ADD15C,0.500000*%
%TD*%
%TA.AperFunction,SMDPad,CuDef*%
%ADD16R,2.000000X3.500000*%
%TD*%
%TA.AperFunction,SMDPad,CuDef*%
%ADD17RoundRect,0.250000X-0.262500X-0.450000X0.262500X-0.450000X0.262500X0.450000X-0.262500X0.450000X0*%
%TD*%
%TA.AperFunction,SMDPad,CuDef*%
%ADD18RoundRect,0.250000X-0.450000X0.350000X-0.450000X-0.350000X0.450000X-0.350000X0.450000X0.350000X0*%
%TD*%
%TA.AperFunction,SMDPad,CuDef*%
%ADD19RoundRect,0.250000X-0.450000X0.262500X-0.450000X-0.262500X0.450000X-0.262500X0.450000X0.262500X0*%
%TD*%
%TA.AperFunction,SMDPad,CuDef*%
%ADD20RoundRect,0.250000X0.450000X-0.350000X0.450000X0.350000X-0.450000X0.350000X-0.450000X-0.350000X0*%
%TD*%
%TA.AperFunction,SMDPad,CuDef*%
%ADD21RoundRect,0.150000X0.587500X0.150000X-0.587500X0.150000X-0.587500X-0.150000X0.587500X-0.150000X0*%
%TD*%
%TA.AperFunction,SMDPad,CuDef*%
%ADD22RoundRect,0.250000X0.650000X-0.412500X0.650000X0.412500X-0.650000X0.412500X-0.650000X-0.412500X0*%
%TD*%
%TA.AperFunction,SMDPad,CuDef*%
%ADD23RoundRect,0.250000X-0.650000X0.412500X-0.650000X-0.412500X0.650000X-0.412500X0.650000X0.412500X0*%
%TD*%
%TA.AperFunction,SMDPad,CuDef*%
%ADD24RoundRect,0.250000X0.450000X-0.262500X0.450000X0.262500X-0.450000X0.262500X-0.450000X-0.262500X0*%
%TD*%
%TA.AperFunction,SMDPad,CuDef*%
%ADD25RoundRect,0.150000X-0.587500X-0.150000X0.587500X-0.150000X0.587500X0.150000X-0.587500X0.150000X0*%
%TD*%
%TA.AperFunction,ViaPad*%
%ADD26C,0.800000*%
%TD*%
%TA.AperFunction,Conductor*%
%ADD27C,0.250000*%
%TD*%
%TA.AperFunction,Conductor*%
%ADD28C,0.200000*%
%TD*%
G04 APERTURE END LIST*
D10*
%TO.P,U1,1,D1/TX*%
%TO.N,TXD*%
X194818000Y-82814000D03*
D11*
%TO.P,U1,2,D0/RX*%
%TO.N,RXD*%
X192278000Y-82814000D03*
%TO.P,U1,3,~{RESET}*%
%TO.N,unconnected-(U1-Pad3)*%
X189738000Y-82814000D03*
%TO.P,U1,4,GND*%
%TO.N,GND*%
X187198000Y-82814000D03*
%TO.P,U1,5,D2*%
%TO.N,FLOW_PULSE*%
X184658000Y-82814000D03*
%TO.P,U1,6,D3*%
%TO.N,~{MOTOR_FAULT}*%
X182118000Y-82814000D03*
%TO.P,U1,7,D4*%
%TO.N,VALVE_IN1+*%
X179578000Y-82814000D03*
%TO.P,U1,8,D5*%
%TO.N,VALVE_IN1-*%
X177038000Y-82814000D03*
%TO.P,U1,9,D6*%
%TO.N,VALVE1_CLOSED*%
X174498000Y-82814000D03*
%TO.P,U1,10,D7*%
%TO.N,VALVE1_OPEN*%
X171958000Y-82814000D03*
%TO.P,U1,11,D8*%
%TO.N,~{LIN_SLP}*%
X169418000Y-82814000D03*
%TO.P,U1,12,D9*%
%TO.N,VALVE_IN2+*%
X166878000Y-82814000D03*
%TO.P,U1,13,D10*%
%TO.N,VALVE_IN2-*%
X164338000Y-82814000D03*
%TO.P,U1,14,D11*%
%TO.N,VALVE2_CLOSED*%
X161798000Y-82814000D03*
%TO.P,U1,15,D12*%
%TO.N,VALVE2_OPEN*%
X159258000Y-82814000D03*
%TO.P,U1,16,D13*%
%TO.N,unconnected-(U1-Pad16)*%
X159258000Y-98054000D03*
%TO.P,U1,17,3V3*%
%TO.N,+3V3*%
X161798000Y-98054000D03*
%TO.P,U1,18,AREF*%
%TO.N,+5V*%
X164338000Y-98054000D03*
%TO.P,U1,19,A0*%
%TO.N,MOTOR_EN*%
X166878000Y-98054000D03*
%TO.P,U1,20,A1*%
%TO.N,~{LIN_WAKE}*%
X169418000Y-98054000D03*
%TO.P,U1,21,A2*%
%TO.N,unconnected-(U1-Pad21)*%
X171958000Y-98054000D03*
%TO.P,U1,22,A3*%
%TO.N,unconnected-(U1-Pad22)*%
X174498000Y-98054000D03*
%TO.P,U1,23,A4*%
%TO.N,SDA5*%
X177038000Y-98054000D03*
%TO.P,U1,24,A5*%
%TO.N,SCL5*%
X179578000Y-98054000D03*
%TO.P,U1,25,A6*%
%TO.N,unconnected-(U1-Pad25)*%
X182118000Y-98054000D03*
%TO.P,U1,26,A7*%
%TO.N,COOLANT_NTC*%
X184658000Y-98054000D03*
%TO.P,U1,27,+5V*%
%TO.N,+5V*%
X187198000Y-98054000D03*
%TO.P,U1,28,~{RESET}*%
%TO.N,unconnected-(U1-Pad28)*%
X189738000Y-98054000D03*
%TO.P,U1,29,GND*%
%TO.N,GND*%
X192278000Y-98054000D03*
%TO.P,U1,30,VIN*%
%TO.N,+12V*%
X194818000Y-98054000D03*
%TD*%
D12*
%TO.P,J6,1,Pin_1*%
%TO.N,+12V*%
X183642000Y-63246000D03*
D13*
%TO.P,J6,2,Pin_2*%
%TO.N,GND*%
X186182000Y-63246000D03*
%TO.P,J6,3,Pin_3*%
%TO.N,LIN*%
X188722000Y-63246000D03*
%TD*%
D12*
%TO.P,J5,1,Pin_1*%
%TO.N,+5V*%
X158750000Y-62992000D03*
D13*
%TO.P,J5,2,Pin_2*%
%TO.N,GND*%
X161290000Y-62992000D03*
%TO.P,J5,3,Pin_3*%
%TO.N,FLOW_PULSE*%
X163830000Y-62992000D03*
%TD*%
D14*
%TO.P,J2,1*%
%TO.N,VALVE2+*%
X217759280Y-63312040D03*
%TO.P,J2,2*%
%TO.N,GND*%
X217759280Y-70612000D03*
%TO.P,J2,3*%
%TO.N,VALVE2-*%
X217759280Y-77911960D03*
%TO.P,J2,4*%
%TO.N,VALVE2_OPEN*%
X215259920Y-65613280D03*
%TO.P,J2,5*%
%TO.N,VALVE2_CLOSED*%
X215259920Y-75610720D03*
%TO.P,J2,6*%
%TO.N,N/C*%
X227459540Y-75610720D03*
%TO.P,J2,7*%
X227459540Y-65613280D03*
%TD*%
D12*
%TO.P,J4,1,Pin_1*%
%TO.N,COOLANT_NTC*%
X172042000Y-62992000D03*
D13*
%TO.P,J4,2,Pin_2*%
%TO.N,GND*%
X174582000Y-62992000D03*
%TD*%
D15*
%TO.P,U3,17,GND(PPAD)*%
%TO.N,GND*%
X204228000Y-81002000D03*
D16*
X204978000Y-79502000D03*
D15*
X204228000Y-79502000D03*
X205728000Y-78002000D03*
X204228000Y-78002000D03*
X205728000Y-81002000D03*
X205728000Y-79502000D03*
%TD*%
D14*
%TO.P,J3,1*%
%TO.N,VALVE1+*%
X217759280Y-83124040D03*
%TO.P,J3,2*%
%TO.N,GND*%
X217759280Y-90424000D03*
%TO.P,J3,3*%
%TO.N,VALVE1-*%
X217759280Y-97723960D03*
%TO.P,J3,4*%
%TO.N,VALVE1_OPEN*%
X215259920Y-85425280D03*
%TO.P,J3,5*%
%TO.N,VALVE1_CLOSED*%
X215259920Y-95422720D03*
%TO.P,J3,6*%
%TO.N,N/C*%
X227459540Y-95422720D03*
%TO.P,J3,7*%
X227459540Y-85425280D03*
%TD*%
D17*
%TO.P,R8,1*%
%TO.N,+5V*%
X181055000Y-89154000D03*
%TO.P,R8,2*%
%TO.N,COOLANT_NTC*%
X182880000Y-89154000D03*
%TD*%
D18*
%TO.P,R6,1*%
%TO.N,+5V*%
X169672000Y-93742000D03*
%TO.P,R6,2*%
%TO.N,~{LIN_WAKE}*%
X169672000Y-95742000D03*
%TD*%
D19*
%TO.P,R11,1*%
%TO.N,+5V*%
X179578000Y-91393000D03*
%TO.P,R11,2*%
%TO.N,SCL5*%
X179578000Y-93218000D03*
%TD*%
D20*
%TO.P,R2,1*%
%TO.N,+5V*%
X194818000Y-87090000D03*
%TO.P,R2,2*%
%TO.N,TXD*%
X194818000Y-85090000D03*
%TD*%
D21*
%TO.P,Q1,1,G*%
%TO.N,SCL*%
X181531500Y-94046000D03*
%TO.P,Q1,2,S*%
X181531500Y-95946000D03*
%TO.P,Q1,3,D*%
%TO.N,SCL5*%
X179656500Y-94996000D03*
%TD*%
D17*
%TO.P,R13,1*%
%TO.N,+3V3*%
X204470000Y-91186000D03*
%TO.P,R13,2*%
%TO.N,SCL*%
X206295000Y-91186000D03*
%TD*%
D20*
%TO.P,R1,1*%
%TO.N,+5V*%
X192278000Y-87122000D03*
%TO.P,R1,2*%
%TO.N,RXD*%
X192278000Y-85122000D03*
%TD*%
D22*
%TO.P,C2,1*%
%TO.N,+12V*%
X202438000Y-79071000D03*
%TO.P,C2,2*%
%TO.N,GND*%
X202438000Y-75946000D03*
%TD*%
D23*
%TO.P,C3,1*%
%TO.N,Net-(C3-Pad1)*%
X197866000Y-80518000D03*
%TO.P,C3,2*%
%TO.N,GND*%
X197866000Y-83643000D03*
%TD*%
D24*
%TO.P,R9,1*%
%TO.N,+5V*%
X182118000Y-86915000D03*
%TO.P,R9,2*%
%TO.N,~{MOTOR_FAULT}*%
X182118000Y-85090000D03*
%TD*%
D17*
%TO.P,R12,1*%
%TO.N,+3V3*%
X203915000Y-97536000D03*
%TO.P,R12,2*%
%TO.N,SDA*%
X205740000Y-97536000D03*
%TD*%
D20*
%TO.P,R4,1*%
%TO.N,+5V*%
X169418000Y-87106000D03*
%TO.P,R4,2*%
%TO.N,~{LIN_SLP}*%
X169418000Y-85106000D03*
%TD*%
D25*
%TO.P,Q2,1,G*%
%TO.N,SDA*%
X175084500Y-95946000D03*
%TO.P,Q2,2,S*%
X175084500Y-94046000D03*
%TO.P,Q2,3,D*%
%TO.N,SDA5*%
X176959500Y-94996000D03*
%TD*%
D20*
%TO.P,R3,1*%
%TO.N,MOTOR_EN*%
X166878000Y-95742000D03*
%TO.P,R3,2*%
%TO.N,GND*%
X166878000Y-93742000D03*
%TD*%
D19*
%TO.P,R10,1*%
%TO.N,+5V*%
X177038000Y-91393000D03*
%TO.P,R10,2*%
%TO.N,SDA5*%
X177038000Y-93218000D03*
%TD*%
D26*
%TO.N,~{LIN_SLP}*%
X185928000Y-76454000D03*
X172212000Y-75946000D03*
%TO.N,FLOW_PULSE*%
X171704000Y-80264000D03*
%TO.N,~{LIN_WAKE}*%
X173228000Y-79248000D03*
X171450000Y-91186000D03*
%TO.N,GND*%
X201676000Y-73406000D03*
X202946000Y-87630000D03*
X200660000Y-96266000D03*
X194564000Y-69850000D03*
%TO.N,+5V*%
X174498000Y-90424000D03*
X169672000Y-90424000D03*
X187674000Y-87251500D03*
%TO.N,Net-(C3-Pad1)*%
X200152000Y-80427500D03*
%TO.N,RXD*%
X187960000Y-76454000D03*
%TO.N,~{LIN_WAKE}*%
X192024000Y-79248000D03*
%TO.N,VALVE_IN1+*%
X178562000Y-85598000D03*
X200406000Y-82296000D03*
%TO.N,VALVE_IN1-*%
X199898000Y-81534000D03*
%TO.N,VALVE1_CLOSED*%
X174498000Y-87122000D03*
%TO.N,VALVE_IN2+*%
X198882000Y-76962000D03*
%TO.N,VALVE_IN2-*%
X197104000Y-77470000D03*
%TO.N,FLOW_PULSE*%
X163830000Y-68834000D03*
%TO.N,~{MOTOR_FAULT}*%
X209550000Y-76708000D03*
%TO.N,MOTOR_EN*%
X168152299Y-92968299D03*
X209042000Y-83058000D03*
%TO.N,COOLANT_NTC*%
X184658000Y-89154000D03*
X172042000Y-68750000D03*
%TO.N,+12V*%
X200660000Y-78994000D03*
%TO.N,VALVE1-*%
X213106000Y-82550000D03*
X212090000Y-80264000D03*
%TO.N,Net-(R5-Pad1)*%
X210312000Y-82804000D03*
X210312000Y-80772000D03*
%TO.N,Net-(R7-Pad1)*%
X210566000Y-78232000D03*
X211074000Y-75438000D03*
%TO.N,+3V3*%
X203454000Y-93218000D03*
%TO.N,SDA*%
X173482000Y-94234000D03*
X205486000Y-93218000D03*
%TO.N,SCL*%
X206756000Y-93472000D03*
X183388000Y-95250000D03*
%TD*%
D27*
%TO.N,+5V*%
X181055000Y-87978000D02*
X182118000Y-86915000D01*
X181055000Y-89154000D02*
X181055000Y-87978000D01*
X182454500Y-87251500D02*
X182118000Y-86915000D01*
X187674000Y-87251500D02*
X182454500Y-87251500D01*
X192278000Y-87122000D02*
X187803500Y-87122000D01*
X187803500Y-87122000D02*
X187674000Y-87251500D01*
%TO.N,~{MOTOR_FAULT}*%
X182118000Y-85090000D02*
X182118000Y-82814000D01*
%TO.N,~{LIN_SLP}*%
X169418000Y-85106000D02*
X169418000Y-82814000D01*
%TO.N,+5V*%
X169672000Y-87360000D02*
X169418000Y-87106000D01*
X169672000Y-90424000D02*
X169672000Y-87360000D01*
X169672000Y-93742000D02*
X169672000Y-90424000D01*
%TO.N,~{LIN_WAKE}*%
X169672000Y-97800000D02*
X169672000Y-95742000D01*
X169418000Y-98054000D02*
X169672000Y-97800000D01*
%TO.N,+5V*%
X179578000Y-89662000D02*
X179578000Y-91393000D01*
X177038000Y-91393000D02*
X179578000Y-91393000D01*
X181055000Y-89154000D02*
X180086000Y-89154000D01*
X182118000Y-87122000D02*
X182150000Y-87090000D01*
X194818000Y-87090000D02*
X192310000Y-87090000D01*
X192310000Y-87090000D02*
X192278000Y-87122000D01*
X175467000Y-91393000D02*
X174498000Y-90424000D01*
X177038000Y-91393000D02*
X175467000Y-91393000D01*
X192148500Y-87251500D02*
X192278000Y-87122000D01*
X180086000Y-89154000D02*
X179578000Y-89662000D01*
%TO.N,Net-(C3-Pad1)*%
X197956500Y-80427500D02*
X197866000Y-80518000D01*
X200152000Y-80427500D02*
X197956500Y-80427500D01*
%TO.N,TXD*%
X194818000Y-85090000D02*
X194818000Y-82814000D01*
%TO.N,RXD*%
X192278000Y-85122000D02*
X192278000Y-82814000D01*
%TO.N,MOTOR_EN*%
X166878000Y-95790000D02*
X167164000Y-95504000D01*
X166878000Y-98054000D02*
X166878000Y-95790000D01*
%TO.N,COOLANT_NTC*%
X182880000Y-89154000D02*
X184658000Y-89154000D01*
%TO.N,+12V*%
X202361000Y-78994000D02*
X202438000Y-79071000D01*
X200660000Y-78994000D02*
X202361000Y-78994000D01*
D28*
%TO.N,VALVE1-*%
X212090000Y-81534000D02*
X213106000Y-82550000D01*
X212090000Y-80264000D02*
X212090000Y-81534000D01*
D27*
%TO.N,Net-(R5-Pad1)*%
X210312000Y-80772000D02*
X210312000Y-82804000D01*
%TO.N,Net-(R7-Pad1)*%
X210566000Y-75946000D02*
X210566000Y-78232000D01*
X211074000Y-75438000D02*
X210566000Y-75946000D01*
%TO.N,+3V3*%
X204470000Y-92202000D02*
X204470000Y-91186000D01*
X203454000Y-93218000D02*
X204470000Y-92202000D01*
X203915000Y-93679000D02*
X203454000Y-93218000D01*
X203915000Y-97536000D02*
X203915000Y-93679000D01*
%TO.N,SDA5*%
X177038000Y-95074500D02*
X176959500Y-94996000D01*
X176959500Y-93296500D02*
X177038000Y-93218000D01*
X177038000Y-98054000D02*
X177038000Y-95074500D01*
X176959500Y-94996000D02*
X176959500Y-93296500D01*
%TO.N,SCL5*%
X179578000Y-93218000D02*
X179578000Y-94917500D01*
X179578000Y-98054000D02*
X179578000Y-95074500D01*
X179578000Y-95074500D02*
X179656500Y-94996000D01*
X179578000Y-94917500D02*
X179656500Y-94996000D01*
%TO.N,SDA*%
X205740000Y-97536000D02*
X205740000Y-93472000D01*
X205740000Y-93472000D02*
X205486000Y-93218000D01*
X175084500Y-95946000D02*
X175084500Y-94046000D01*
X173670000Y-94046000D02*
X173482000Y-94234000D01*
X175084500Y-94046000D02*
X173670000Y-94046000D01*
%TO.N,SCL*%
X182692000Y-95946000D02*
X183388000Y-95250000D01*
X181531500Y-95946000D02*
X181531500Y-94046000D01*
X206756000Y-93472000D02*
X206295000Y-93011000D01*
X206295000Y-93011000D02*
X206295000Y-91186000D01*
X181531500Y-95946000D02*
X182692000Y-95946000D01*
%TD*%
%TA.AperFunction,Conductor*%
%TO.N,GND*%
G36*
X230065621Y-58948502D02*
G01*
X230112114Y-59002158D01*
X230123500Y-59054500D01*
X230123500Y-100965500D01*
X230103498Y-101033621D01*
X230049842Y-101080114D01*
X229997500Y-101091500D01*
X153034500Y-101091500D01*
X152966379Y-101071498D01*
X152919886Y-101017842D01*
X152908500Y-100965500D01*
X152908500Y-98054000D01*
X157944502Y-98054000D01*
X157964457Y-98282087D01*
X157965881Y-98287400D01*
X157965881Y-98287402D01*
X158017560Y-98480267D01*
X158023716Y-98503243D01*
X158026039Y-98508224D01*
X158026039Y-98508225D01*
X158118151Y-98705762D01*
X158118154Y-98705767D01*
X158120477Y-98710749D01*
X158143874Y-98744163D01*
X158247108Y-98891596D01*
X158251802Y-98898300D01*
X158413700Y-99060198D01*
X158418208Y-99063355D01*
X158418211Y-99063357D01*
X158496389Y-99118098D01*
X158601251Y-99191523D01*
X158606233Y-99193846D01*
X158606238Y-99193849D01*
X158802765Y-99285490D01*
X158808757Y-99288284D01*
X158814065Y-99289706D01*
X158814067Y-99289707D01*
X159024598Y-99346119D01*
X159024600Y-99346119D01*
X159029913Y-99347543D01*
X159258000Y-99367498D01*
X159486087Y-99347543D01*
X159491400Y-99346119D01*
X159491402Y-99346119D01*
X159701933Y-99289707D01*
X159701935Y-99289706D01*
X159707243Y-99288284D01*
X159713235Y-99285490D01*
X159909762Y-99193849D01*
X159909767Y-99193846D01*
X159914749Y-99191523D01*
X160019611Y-99118098D01*
X160097789Y-99063357D01*
X160097792Y-99063355D01*
X160102300Y-99060198D01*
X160264198Y-98898300D01*
X160268893Y-98891596D01*
X160372126Y-98744163D01*
X160395523Y-98710749D01*
X160397846Y-98705767D01*
X160397849Y-98705762D01*
X160413805Y-98671543D01*
X160460722Y-98618258D01*
X160528999Y-98598797D01*
X160596959Y-98619339D01*
X160642195Y-98671543D01*
X160658151Y-98705762D01*
X160658154Y-98705767D01*
X160660477Y-98710749D01*
X160683874Y-98744163D01*
X160787108Y-98891596D01*
X160791802Y-98898300D01*
X160953700Y-99060198D01*
X160958208Y-99063355D01*
X160958211Y-99063357D01*
X161036389Y-99118098D01*
X161141251Y-99191523D01*
X161146233Y-99193846D01*
X161146238Y-99193849D01*
X161342765Y-99285490D01*
X161348757Y-99288284D01*
X161354065Y-99289706D01*
X161354067Y-99289707D01*
X161564598Y-99346119D01*
X161564600Y-99346119D01*
X161569913Y-99347543D01*
X161798000Y-99367498D01*
X162026087Y-99347543D01*
X162031400Y-99346119D01*
X162031402Y-99346119D01*
X162241933Y-99289707D01*
X162241935Y-99289706D01*
X162247243Y-99288284D01*
X162253235Y-99285490D01*
X162449762Y-99193849D01*
X162449767Y-99193846D01*
X162454749Y-99191523D01*
X162559611Y-99118098D01*
X162637789Y-99063357D01*
X162637792Y-99063355D01*
X162642300Y-99060198D01*
X162804198Y-98898300D01*
X162808893Y-98891596D01*
X162912126Y-98744163D01*
X162935523Y-98710749D01*
X162937846Y-98705767D01*
X162937849Y-98705762D01*
X162953805Y-98671543D01*
X163000722Y-98618258D01*
X163068999Y-98598797D01*
X163136959Y-98619339D01*
X163182195Y-98671543D01*
X163198151Y-98705762D01*
X163198154Y-98705767D01*
X163200477Y-98710749D01*
X163223874Y-98744163D01*
X163327108Y-98891596D01*
X163331802Y-98898300D01*
X163493700Y-99060198D01*
X163498208Y-99063355D01*
X163498211Y-99063357D01*
X163576389Y-99118098D01*
X163681251Y-99191523D01*
X163686233Y-99193846D01*
X163686238Y-99193849D01*
X163882765Y-99285490D01*
X163888757Y-99288284D01*
X163894065Y-99289706D01*
X163894067Y-99289707D01*
X164104598Y-99346119D01*
X164104600Y-99346119D01*
X164109913Y-99347543D01*
X164338000Y-99367498D01*
X164566087Y-99347543D01*
X164571400Y-99346119D01*
X164571402Y-99346119D01*
X164781933Y-99289707D01*
X164781935Y-99289706D01*
X164787243Y-99288284D01*
X164793235Y-99285490D01*
X164989762Y-99193849D01*
X164989767Y-99193846D01*
X164994749Y-99191523D01*
X165099611Y-99118098D01*
X165177789Y-99063357D01*
X165177792Y-99063355D01*
X165182300Y-99060198D01*
X165344198Y-98898300D01*
X165348893Y-98891596D01*
X165452126Y-98744163D01*
X165475523Y-98710749D01*
X165477846Y-98705767D01*
X165477849Y-98705762D01*
X165493805Y-98671543D01*
X165540722Y-98618258D01*
X165608999Y-98598797D01*
X165676959Y-98619339D01*
X165722195Y-98671543D01*
X165738151Y-98705762D01*
X165738154Y-98705767D01*
X165740477Y-98710749D01*
X165763874Y-98744163D01*
X165867108Y-98891596D01*
X165871802Y-98898300D01*
X166033700Y-99060198D01*
X166038208Y-99063355D01*
X166038211Y-99063357D01*
X166116389Y-99118098D01*
X166221251Y-99191523D01*
X166226233Y-99193846D01*
X166226238Y-99193849D01*
X166422765Y-99285490D01*
X166428757Y-99288284D01*
X166434065Y-99289706D01*
X166434067Y-99289707D01*
X166644598Y-99346119D01*
X166644600Y-99346119D01*
X166649913Y-99347543D01*
X166878000Y-99367498D01*
X167106087Y-99347543D01*
X167111400Y-99346119D01*
X167111402Y-99346119D01*
X167321933Y-99289707D01*
X167321935Y-99289706D01*
X167327243Y-99288284D01*
X167333235Y-99285490D01*
X167529762Y-99193849D01*
X167529767Y-99193846D01*
X167534749Y-99191523D01*
X167639611Y-99118098D01*
X167717789Y-99063357D01*
X167717792Y-99063355D01*
X167722300Y-99060198D01*
X167884198Y-98898300D01*
X167888893Y-98891596D01*
X167992126Y-98744163D01*
X168015523Y-98710749D01*
X168017846Y-98705767D01*
X168017849Y-98705762D01*
X168033805Y-98671543D01*
X168080722Y-98618258D01*
X168148999Y-98598797D01*
X168216959Y-98619339D01*
X168262195Y-98671543D01*
X168278151Y-98705762D01*
X168278154Y-98705767D01*
X168280477Y-98710749D01*
X168303874Y-98744163D01*
X168407108Y-98891596D01*
X168411802Y-98898300D01*
X168573700Y-99060198D01*
X168578208Y-99063355D01*
X168578211Y-99063357D01*
X168656389Y-99118098D01*
X168761251Y-99191523D01*
X168766233Y-99193846D01*
X168766238Y-99193849D01*
X168962765Y-99285490D01*
X168968757Y-99288284D01*
X168974065Y-99289706D01*
X168974067Y-99289707D01*
X169184598Y-99346119D01*
X169184600Y-99346119D01*
X169189913Y-99347543D01*
X169418000Y-99367498D01*
X169646087Y-99347543D01*
X169651400Y-99346119D01*
X169651402Y-99346119D01*
X169861933Y-99289707D01*
X169861935Y-99289706D01*
X169867243Y-99288284D01*
X169873235Y-99285490D01*
X170069762Y-99193849D01*
X170069767Y-99193846D01*
X170074749Y-99191523D01*
X170179611Y-99118098D01*
X170257789Y-99063357D01*
X170257792Y-99063355D01*
X170262300Y-99060198D01*
X170424198Y-98898300D01*
X170428893Y-98891596D01*
X170532126Y-98744163D01*
X170555523Y-98710749D01*
X170557846Y-98705767D01*
X170557849Y-98705762D01*
X170573805Y-98671543D01*
X170620722Y-98618258D01*
X170688999Y-98598797D01*
X170756959Y-98619339D01*
X170802195Y-98671543D01*
X170818151Y-98705762D01*
X170818154Y-98705767D01*
X170820477Y-98710749D01*
X170843874Y-98744163D01*
X170947108Y-98891596D01*
X170951802Y-98898300D01*
X171113700Y-99060198D01*
X171118208Y-99063355D01*
X171118211Y-99063357D01*
X171196389Y-99118098D01*
X171301251Y-99191523D01*
X171306233Y-99193846D01*
X171306238Y-99193849D01*
X171502765Y-99285490D01*
X171508757Y-99288284D01*
X171514065Y-99289706D01*
X171514067Y-99289707D01*
X171724598Y-99346119D01*
X171724600Y-99346119D01*
X171729913Y-99347543D01*
X171958000Y-99367498D01*
X172186087Y-99347543D01*
X172191400Y-99346119D01*
X172191402Y-99346119D01*
X172401933Y-99289707D01*
X172401935Y-99289706D01*
X172407243Y-99288284D01*
X172413235Y-99285490D01*
X172609762Y-99193849D01*
X172609767Y-99193846D01*
X172614749Y-99191523D01*
X172719611Y-99118098D01*
X172797789Y-99063357D01*
X172797792Y-99063355D01*
X172802300Y-99060198D01*
X172964198Y-98898300D01*
X172968893Y-98891596D01*
X173072126Y-98744163D01*
X173095523Y-98710749D01*
X173097846Y-98705767D01*
X173097849Y-98705762D01*
X173113805Y-98671543D01*
X173160722Y-98618258D01*
X173228999Y-98598797D01*
X173296959Y-98619339D01*
X173342195Y-98671543D01*
X173358151Y-98705762D01*
X173358154Y-98705767D01*
X173360477Y-98710749D01*
X173383874Y-98744163D01*
X173487108Y-98891596D01*
X173491802Y-98898300D01*
X173653700Y-99060198D01*
X173658208Y-99063355D01*
X173658211Y-99063357D01*
X173736389Y-99118098D01*
X173841251Y-99191523D01*
X173846233Y-99193846D01*
X173846238Y-99193849D01*
X174042765Y-99285490D01*
X174048757Y-99288284D01*
X174054065Y-99289706D01*
X174054067Y-99289707D01*
X174264598Y-99346119D01*
X174264600Y-99346119D01*
X174269913Y-99347543D01*
X174498000Y-99367498D01*
X174726087Y-99347543D01*
X174731400Y-99346119D01*
X174731402Y-99346119D01*
X174941933Y-99289707D01*
X174941935Y-99289706D01*
X174947243Y-99288284D01*
X174953235Y-99285490D01*
X175149762Y-99193849D01*
X175149767Y-99193846D01*
X175154749Y-99191523D01*
X175259611Y-99118098D01*
X175337789Y-99063357D01*
X175337792Y-99063355D01*
X175342300Y-99060198D01*
X175504198Y-98898300D01*
X175508893Y-98891596D01*
X175612126Y-98744163D01*
X175635523Y-98710749D01*
X175637846Y-98705767D01*
X175637849Y-98705762D01*
X175653805Y-98671543D01*
X175700722Y-98618258D01*
X175768999Y-98598797D01*
X175836959Y-98619339D01*
X175882195Y-98671543D01*
X175898151Y-98705762D01*
X175898154Y-98705767D01*
X175900477Y-98710749D01*
X175923874Y-98744163D01*
X176027108Y-98891596D01*
X176031802Y-98898300D01*
X176193700Y-99060198D01*
X176198208Y-99063355D01*
X176198211Y-99063357D01*
X176276389Y-99118098D01*
X176381251Y-99191523D01*
X176386233Y-99193846D01*
X176386238Y-99193849D01*
X176582765Y-99285490D01*
X176588757Y-99288284D01*
X176594065Y-99289706D01*
X176594067Y-99289707D01*
X176804598Y-99346119D01*
X176804600Y-99346119D01*
X176809913Y-99347543D01*
X177038000Y-99367498D01*
X177266087Y-99347543D01*
X177271400Y-99346119D01*
X177271402Y-99346119D01*
X177481933Y-99289707D01*
X177481935Y-99289706D01*
X177487243Y-99288284D01*
X177493235Y-99285490D01*
X177689762Y-99193849D01*
X177689767Y-99193846D01*
X177694749Y-99191523D01*
X177799611Y-99118098D01*
X177877789Y-99063357D01*
X177877792Y-99063355D01*
X177882300Y-99060198D01*
X178044198Y-98898300D01*
X178048893Y-98891596D01*
X178152126Y-98744163D01*
X178175523Y-98710749D01*
X178177846Y-98705767D01*
X178177849Y-98705762D01*
X178193805Y-98671543D01*
X178240722Y-98618258D01*
X178308999Y-98598797D01*
X178376959Y-98619339D01*
X178422195Y-98671543D01*
X178438151Y-98705762D01*
X178438154Y-98705767D01*
X178440477Y-98710749D01*
X178463874Y-98744163D01*
X178567108Y-98891596D01*
X178571802Y-98898300D01*
X178733700Y-99060198D01*
X178738208Y-99063355D01*
X178738211Y-99063357D01*
X178816389Y-99118098D01*
X178921251Y-99191523D01*
X178926233Y-99193846D01*
X178926238Y-99193849D01*
X179122765Y-99285490D01*
X179128757Y-99288284D01*
X179134065Y-99289706D01*
X179134067Y-99289707D01*
X179344598Y-99346119D01*
X179344600Y-99346119D01*
X179349913Y-99347543D01*
X179578000Y-99367498D01*
X179806087Y-99347543D01*
X179811400Y-99346119D01*
X179811402Y-99346119D01*
X180021933Y-99289707D01*
X180021935Y-99289706D01*
X180027243Y-99288284D01*
X180033235Y-99285490D01*
X180229762Y-99193849D01*
X180229767Y-99193846D01*
X180234749Y-99191523D01*
X180339611Y-99118098D01*
X180417789Y-99063357D01*
X180417792Y-99063355D01*
X180422300Y-99060198D01*
X180584198Y-98898300D01*
X180588893Y-98891596D01*
X180692126Y-98744163D01*
X180715523Y-98710749D01*
X180717846Y-98705767D01*
X180717849Y-98705762D01*
X180733805Y-98671543D01*
X180780722Y-98618258D01*
X180848999Y-98598797D01*
X180916959Y-98619339D01*
X180962195Y-98671543D01*
X180978151Y-98705762D01*
X180978154Y-98705767D01*
X180980477Y-98710749D01*
X181003874Y-98744163D01*
X181107108Y-98891596D01*
X181111802Y-98898300D01*
X181273700Y-99060198D01*
X181278208Y-99063355D01*
X181278211Y-99063357D01*
X181356389Y-99118098D01*
X181461251Y-99191523D01*
X181466233Y-99193846D01*
X181466238Y-99193849D01*
X181662765Y-99285490D01*
X181668757Y-99288284D01*
X181674065Y-99289706D01*
X181674067Y-99289707D01*
X181884598Y-99346119D01*
X181884600Y-99346119D01*
X181889913Y-99347543D01*
X182118000Y-99367498D01*
X182346087Y-99347543D01*
X182351400Y-99346119D01*
X182351402Y-99346119D01*
X182561933Y-99289707D01*
X182561935Y-99289706D01*
X182567243Y-99288284D01*
X182573235Y-99285490D01*
X182769762Y-99193849D01*
X182769767Y-99193846D01*
X182774749Y-99191523D01*
X182879611Y-99118098D01*
X182957789Y-99063357D01*
X182957792Y-99063355D01*
X182962300Y-99060198D01*
X183124198Y-98898300D01*
X183128893Y-98891596D01*
X183232126Y-98744163D01*
X183255523Y-98710749D01*
X183257846Y-98705767D01*
X183257849Y-98705762D01*
X183273805Y-98671543D01*
X183320722Y-98618258D01*
X183388999Y-98598797D01*
X183456959Y-98619339D01*
X183502195Y-98671543D01*
X183518151Y-98705762D01*
X183518154Y-98705767D01*
X183520477Y-98710749D01*
X183543874Y-98744163D01*
X183647108Y-98891596D01*
X183651802Y-98898300D01*
X183813700Y-99060198D01*
X183818208Y-99063355D01*
X183818211Y-99063357D01*
X183896389Y-99118098D01*
X184001251Y-99191523D01*
X184006233Y-99193846D01*
X184006238Y-99193849D01*
X184202765Y-99285490D01*
X184208757Y-99288284D01*
X184214065Y-99289706D01*
X184214067Y-99289707D01*
X184424598Y-99346119D01*
X184424600Y-99346119D01*
X184429913Y-99347543D01*
X184658000Y-99367498D01*
X184886087Y-99347543D01*
X184891400Y-99346119D01*
X184891402Y-99346119D01*
X185101933Y-99289707D01*
X185101935Y-99289706D01*
X185107243Y-99288284D01*
X185113235Y-99285490D01*
X185309762Y-99193849D01*
X185309767Y-99193846D01*
X185314749Y-99191523D01*
X185419611Y-99118098D01*
X185497789Y-99063357D01*
X185497792Y-99063355D01*
X185502300Y-99060198D01*
X185664198Y-98898300D01*
X185668893Y-98891596D01*
X185772126Y-98744163D01*
X185795523Y-98710749D01*
X185797846Y-98705767D01*
X185797849Y-98705762D01*
X185813805Y-98671543D01*
X185860722Y-98618258D01*
X185928999Y-98598797D01*
X185996959Y-98619339D01*
X186042195Y-98671543D01*
X186058151Y-98705762D01*
X186058154Y-98705767D01*
X186060477Y-98710749D01*
X186083874Y-98744163D01*
X186187108Y-98891596D01*
X186191802Y-98898300D01*
X186353700Y-99060198D01*
X186358208Y-99063355D01*
X186358211Y-99063357D01*
X186436389Y-99118098D01*
X186541251Y-99191523D01*
X186546233Y-99193846D01*
X186546238Y-99193849D01*
X186742765Y-99285490D01*
X186748757Y-99288284D01*
X186754065Y-99289706D01*
X186754067Y-99289707D01*
X186964598Y-99346119D01*
X186964600Y-99346119D01*
X186969913Y-99347543D01*
X187198000Y-99367498D01*
X187426087Y-99347543D01*
X187431400Y-99346119D01*
X187431402Y-99346119D01*
X187641933Y-99289707D01*
X187641935Y-99289706D01*
X187647243Y-99288284D01*
X187653235Y-99285490D01*
X187849762Y-99193849D01*
X187849767Y-99193846D01*
X187854749Y-99191523D01*
X187959611Y-99118098D01*
X188037789Y-99063357D01*
X188037792Y-99063355D01*
X188042300Y-99060198D01*
X188204198Y-98898300D01*
X188208893Y-98891596D01*
X188312126Y-98744163D01*
X188335523Y-98710749D01*
X188337846Y-98705767D01*
X188337849Y-98705762D01*
X188353805Y-98671543D01*
X188400722Y-98618258D01*
X188468999Y-98598797D01*
X188536959Y-98619339D01*
X188582195Y-98671543D01*
X188598151Y-98705762D01*
X188598154Y-98705767D01*
X188600477Y-98710749D01*
X188623874Y-98744163D01*
X188727108Y-98891596D01*
X188731802Y-98898300D01*
X188893700Y-99060198D01*
X188898208Y-99063355D01*
X188898211Y-99063357D01*
X188976389Y-99118098D01*
X189081251Y-99191523D01*
X189086233Y-99193846D01*
X189086238Y-99193849D01*
X189282765Y-99285490D01*
X189288757Y-99288284D01*
X189294065Y-99289706D01*
X189294067Y-99289707D01*
X189504598Y-99346119D01*
X189504600Y-99346119D01*
X189509913Y-99347543D01*
X189738000Y-99367498D01*
X189966087Y-99347543D01*
X189971400Y-99346119D01*
X189971402Y-99346119D01*
X190181933Y-99289707D01*
X190181935Y-99289706D01*
X190187243Y-99288284D01*
X190193235Y-99285490D01*
X190389762Y-99193849D01*
X190389767Y-99193846D01*
X190394749Y-99191523D01*
X190499611Y-99118098D01*
X190577789Y-99063357D01*
X190577792Y-99063355D01*
X190582300Y-99060198D01*
X190744198Y-98898300D01*
X190748893Y-98891596D01*
X190852126Y-98744163D01*
X190875523Y-98710749D01*
X190877846Y-98705767D01*
X190877849Y-98705762D01*
X190894081Y-98670951D01*
X190940998Y-98617666D01*
X191009275Y-98598205D01*
X191077235Y-98618747D01*
X191122471Y-98670951D01*
X191138586Y-98705511D01*
X191144069Y-98715007D01*
X191269028Y-98893467D01*
X191276084Y-98901875D01*
X191430125Y-99055916D01*
X191438533Y-99062972D01*
X191616993Y-99187931D01*
X191626489Y-99193414D01*
X191823947Y-99285490D01*
X191834239Y-99289236D01*
X192006503Y-99335394D01*
X192020599Y-99335058D01*
X192024000Y-99327116D01*
X192024000Y-99321967D01*
X192532000Y-99321967D01*
X192535973Y-99335498D01*
X192544522Y-99336727D01*
X192721761Y-99289236D01*
X192732053Y-99285490D01*
X192929511Y-99193414D01*
X192939007Y-99187931D01*
X193117467Y-99062972D01*
X193125875Y-99055916D01*
X193279916Y-98901875D01*
X193286972Y-98893467D01*
X193411931Y-98715007D01*
X193417414Y-98705511D01*
X193433529Y-98670951D01*
X193480446Y-98617666D01*
X193548723Y-98598205D01*
X193616683Y-98618747D01*
X193661919Y-98670951D01*
X193678151Y-98705762D01*
X193678154Y-98705767D01*
X193680477Y-98710749D01*
X193703874Y-98744163D01*
X193807108Y-98891596D01*
X193811802Y-98898300D01*
X193973700Y-99060198D01*
X193978208Y-99063355D01*
X193978211Y-99063357D01*
X194056389Y-99118098D01*
X194161251Y-99191523D01*
X194166233Y-99193846D01*
X194166238Y-99193849D01*
X194362765Y-99285490D01*
X194368757Y-99288284D01*
X194374065Y-99289706D01*
X194374067Y-99289707D01*
X194584598Y-99346119D01*
X194584600Y-99346119D01*
X194589913Y-99347543D01*
X194818000Y-99367498D01*
X195046087Y-99347543D01*
X195051400Y-99346119D01*
X195051402Y-99346119D01*
X195261933Y-99289707D01*
X195261935Y-99289706D01*
X195267243Y-99288284D01*
X195273235Y-99285490D01*
X195469762Y-99193849D01*
X195469767Y-99193846D01*
X195474749Y-99191523D01*
X195579611Y-99118098D01*
X195657789Y-99063357D01*
X195657792Y-99063355D01*
X195662300Y-99060198D01*
X195824198Y-98898300D01*
X195828893Y-98891596D01*
X195932126Y-98744163D01*
X195955523Y-98710749D01*
X195957846Y-98705767D01*
X195957849Y-98705762D01*
X196049961Y-98508225D01*
X196049961Y-98508224D01*
X196052284Y-98503243D01*
X196058441Y-98480267D01*
X196110119Y-98287402D01*
X196110119Y-98287400D01*
X196111543Y-98282087D01*
X196131498Y-98054000D01*
X196111543Y-97825913D01*
X196052284Y-97604757D01*
X195957966Y-97402489D01*
X195957849Y-97402238D01*
X195957846Y-97402233D01*
X195955523Y-97397251D01*
X195824198Y-97209700D01*
X195662300Y-97047802D01*
X195657792Y-97044645D01*
X195657789Y-97044643D01*
X195553357Y-96971519D01*
X195474749Y-96916477D01*
X195469767Y-96914154D01*
X195469762Y-96914151D01*
X195272225Y-96822039D01*
X195272224Y-96822039D01*
X195267243Y-96819716D01*
X195261935Y-96818294D01*
X195261933Y-96818293D01*
X195051402Y-96761881D01*
X195051400Y-96761881D01*
X195046087Y-96760457D01*
X194818000Y-96740502D01*
X194589913Y-96760457D01*
X194584600Y-96761881D01*
X194584598Y-96761881D01*
X194374067Y-96818293D01*
X194374065Y-96818294D01*
X194368757Y-96819716D01*
X194363776Y-96822039D01*
X194363775Y-96822039D01*
X194166238Y-96914151D01*
X194166233Y-96914154D01*
X194161251Y-96916477D01*
X194082643Y-96971519D01*
X193978211Y-97044643D01*
X193978208Y-97044645D01*
X193973700Y-97047802D01*
X193811802Y-97209700D01*
X193680477Y-97397251D01*
X193678154Y-97402233D01*
X193678151Y-97402238D01*
X193661919Y-97437049D01*
X193615002Y-97490334D01*
X193546725Y-97509795D01*
X193478765Y-97489253D01*
X193433529Y-97437049D01*
X193417414Y-97402489D01*
X193411931Y-97392993D01*
X193286972Y-97214533D01*
X193279916Y-97206125D01*
X193125875Y-97052084D01*
X193117467Y-97045028D01*
X192939007Y-96920069D01*
X192929511Y-96914586D01*
X192732053Y-96822510D01*
X192721761Y-96818764D01*
X192549497Y-96772606D01*
X192535401Y-96772942D01*
X192532000Y-96780884D01*
X192532000Y-99321967D01*
X192024000Y-99321967D01*
X192024000Y-96786033D01*
X192020027Y-96772502D01*
X192011478Y-96771273D01*
X191834239Y-96818764D01*
X191823947Y-96822510D01*
X191626489Y-96914586D01*
X191616993Y-96920069D01*
X191438533Y-97045028D01*
X191430125Y-97052084D01*
X191276084Y-97206125D01*
X191269028Y-97214533D01*
X191144069Y-97392993D01*
X191138586Y-97402489D01*
X191122471Y-97437049D01*
X191075554Y-97490334D01*
X191007277Y-97509795D01*
X190939317Y-97489253D01*
X190894081Y-97437049D01*
X190877849Y-97402238D01*
X190877846Y-97402233D01*
X190875523Y-97397251D01*
X190744198Y-97209700D01*
X190582300Y-97047802D01*
X190577792Y-97044645D01*
X190577789Y-97044643D01*
X190473357Y-96971519D01*
X190394749Y-96916477D01*
X190389767Y-96914154D01*
X190389762Y-96914151D01*
X190192225Y-96822039D01*
X190192224Y-96822039D01*
X190187243Y-96819716D01*
X190181935Y-96818294D01*
X190181933Y-96818293D01*
X189971402Y-96761881D01*
X189971400Y-96761881D01*
X189966087Y-96760457D01*
X189738000Y-96740502D01*
X189509913Y-96760457D01*
X189504600Y-96761881D01*
X189504598Y-96761881D01*
X189294067Y-96818293D01*
X189294065Y-96818294D01*
X189288757Y-96819716D01*
X189283776Y-96822039D01*
X189283775Y-96822039D01*
X189086238Y-96914151D01*
X189086233Y-96914154D01*
X189081251Y-96916477D01*
X189002643Y-96971519D01*
X188898211Y-97044643D01*
X188898208Y-97044645D01*
X188893700Y-97047802D01*
X188731802Y-97209700D01*
X188600477Y-97397251D01*
X188598154Y-97402233D01*
X188598151Y-97402238D01*
X188582195Y-97436457D01*
X188535278Y-97489742D01*
X188467001Y-97509203D01*
X188399041Y-97488661D01*
X188353805Y-97436457D01*
X188337849Y-97402238D01*
X188337846Y-97402233D01*
X188335523Y-97397251D01*
X188204198Y-97209700D01*
X188042300Y-97047802D01*
X188037792Y-97044645D01*
X188037789Y-97044643D01*
X187933357Y-96971519D01*
X187854749Y-96916477D01*
X187849767Y-96914154D01*
X187849762Y-96914151D01*
X187652225Y-96822039D01*
X187652224Y-96822039D01*
X187647243Y-96819716D01*
X187641935Y-96818294D01*
X187641933Y-96818293D01*
X187431402Y-96761881D01*
X187431400Y-96761881D01*
X187426087Y-96760457D01*
X187198000Y-96740502D01*
X186969913Y-96760457D01*
X186964600Y-96761881D01*
X186964598Y-96761881D01*
X186754067Y-96818293D01*
X186754065Y-96818294D01*
X186748757Y-96819716D01*
X186743776Y-96822039D01*
X186743775Y-96822039D01*
X186546238Y-96914151D01*
X186546233Y-96914154D01*
X186541251Y-96916477D01*
X186462643Y-96971519D01*
X186358211Y-97044643D01*
X186358208Y-97044645D01*
X186353700Y-97047802D01*
X186191802Y-97209700D01*
X186060477Y-97397251D01*
X186058154Y-97402233D01*
X186058151Y-97402238D01*
X186042195Y-97436457D01*
X185995278Y-97489742D01*
X185927001Y-97509203D01*
X185859041Y-97488661D01*
X185813805Y-97436457D01*
X185797849Y-97402238D01*
X185797846Y-97402233D01*
X185795523Y-97397251D01*
X185664198Y-97209700D01*
X185502300Y-97047802D01*
X185497792Y-97044645D01*
X185497789Y-97044643D01*
X185393357Y-96971519D01*
X185314749Y-96916477D01*
X185309767Y-96914154D01*
X185309762Y-96914151D01*
X185112225Y-96822039D01*
X185112224Y-96822039D01*
X185107243Y-96819716D01*
X185101935Y-96818294D01*
X185101933Y-96818293D01*
X184891402Y-96761881D01*
X184891400Y-96761881D01*
X184886087Y-96760457D01*
X184658000Y-96740502D01*
X184429913Y-96760457D01*
X184424600Y-96761881D01*
X184424598Y-96761881D01*
X184214067Y-96818293D01*
X184214065Y-96818294D01*
X184208757Y-96819716D01*
X184203776Y-96822039D01*
X184203775Y-96822039D01*
X184006238Y-96914151D01*
X184006233Y-96914154D01*
X184001251Y-96916477D01*
X183922643Y-96971519D01*
X183818211Y-97044643D01*
X183818208Y-97044645D01*
X183813700Y-97047802D01*
X183651802Y-97209700D01*
X183520477Y-97397251D01*
X183518154Y-97402233D01*
X183518151Y-97402238D01*
X183502195Y-97436457D01*
X183455278Y-97489742D01*
X183387001Y-97509203D01*
X183319041Y-97488661D01*
X183273805Y-97436457D01*
X183257849Y-97402238D01*
X183257846Y-97402233D01*
X183255523Y-97397251D01*
X183124198Y-97209700D01*
X182962300Y-97047802D01*
X182957792Y-97044645D01*
X182957789Y-97044643D01*
X182853357Y-96971519D01*
X182774749Y-96916477D01*
X182769761Y-96914151D01*
X182769758Y-96914149D01*
X182569034Y-96820551D01*
X182515748Y-96773634D01*
X182496287Y-96705357D01*
X182516829Y-96637397D01*
X182570851Y-96591331D01*
X182630827Y-96581460D01*
X182631909Y-96581702D01*
X182639831Y-96581453D01*
X182699986Y-96579562D01*
X182703945Y-96579500D01*
X182731856Y-96579500D01*
X182735791Y-96579003D01*
X182735856Y-96578995D01*
X182747693Y-96578062D01*
X182779951Y-96577048D01*
X182783970Y-96576922D01*
X182791889Y-96576673D01*
X182811343Y-96571021D01*
X182830700Y-96567013D01*
X182842930Y-96565468D01*
X182842931Y-96565468D01*
X182850797Y-96564474D01*
X182858168Y-96561555D01*
X182858170Y-96561555D01*
X182891912Y-96548196D01*
X182903142Y-96544351D01*
X182937983Y-96534229D01*
X182937984Y-96534229D01*
X182945593Y-96532018D01*
X182952412Y-96527985D01*
X182952417Y-96527983D01*
X182963028Y-96521707D01*
X182980776Y-96513012D01*
X182999617Y-96505552D01*
X183018455Y-96491866D01*
X183035387Y-96479564D01*
X183045307Y-96473048D01*
X183076535Y-96454580D01*
X183076538Y-96454578D01*
X183083362Y-96450542D01*
X183097683Y-96436221D01*
X183112717Y-96423380D01*
X183114374Y-96422176D01*
X183129107Y-96411472D01*
X183157298Y-96377395D01*
X183165288Y-96368616D01*
X183338499Y-96195405D01*
X183400811Y-96161379D01*
X183427594Y-96158500D01*
X183483487Y-96158500D01*
X183489939Y-96157128D01*
X183489944Y-96157128D01*
X183583399Y-96137263D01*
X183670288Y-96118794D01*
X183676319Y-96116109D01*
X183838722Y-96043803D01*
X183838724Y-96043802D01*
X183844752Y-96041118D01*
X183999253Y-95928866D01*
X184050569Y-95871874D01*
X184122621Y-95791852D01*
X184122622Y-95791851D01*
X184127040Y-95786944D01*
X184222527Y-95621556D01*
X184281542Y-95439928D01*
X184282833Y-95427650D01*
X184300814Y-95256565D01*
X184301504Y-95250000D01*
X184290326Y-95143647D01*
X184282232Y-95066635D01*
X184282232Y-95066633D01*
X184281542Y-95060072D01*
X184222527Y-94878444D01*
X184208383Y-94853945D01*
X184170593Y-94788492D01*
X184127040Y-94713056D01*
X184107456Y-94691305D01*
X184003675Y-94576045D01*
X184003674Y-94576044D01*
X183999253Y-94571134D01*
X183844752Y-94458882D01*
X183838724Y-94456198D01*
X183838722Y-94456197D01*
X183676319Y-94383891D01*
X183676318Y-94383891D01*
X183670288Y-94381206D01*
X183572766Y-94360477D01*
X183489944Y-94342872D01*
X183489939Y-94342872D01*
X183483487Y-94341500D01*
X183292513Y-94341500D01*
X183286061Y-94342872D01*
X183286056Y-94342872D01*
X183203234Y-94360477D01*
X183105712Y-94381206D01*
X183099685Y-94383889D01*
X183099677Y-94383892D01*
X182946185Y-94452231D01*
X182875818Y-94461665D01*
X182811521Y-94431558D01*
X182773708Y-94371469D01*
X182773907Y-94312765D01*
X182771610Y-94312345D01*
X182772768Y-94306006D01*
X182774562Y-94299831D01*
X182777500Y-94262502D01*
X182777500Y-93829498D01*
X182775924Y-93809468D01*
X182775067Y-93798579D01*
X182775066Y-93798574D01*
X182774562Y-93792169D01*
X182728145Y-93632399D01*
X182685355Y-93560045D01*
X182647491Y-93496020D01*
X182647489Y-93496017D01*
X182643453Y-93489193D01*
X182525807Y-93371547D01*
X182518983Y-93367511D01*
X182518980Y-93367509D01*
X182389427Y-93290892D01*
X182389428Y-93290892D01*
X182382601Y-93286855D01*
X182374990Y-93284644D01*
X182374988Y-93284643D01*
X182311846Y-93266299D01*
X182222831Y-93240438D01*
X182216426Y-93239934D01*
X182216421Y-93239933D01*
X182187958Y-93237693D01*
X182187950Y-93237693D01*
X182185502Y-93237500D01*
X180912500Y-93237500D01*
X180846089Y-93218000D01*
X202540496Y-93218000D01*
X202541186Y-93224565D01*
X202557576Y-93380504D01*
X202560458Y-93407928D01*
X202619473Y-93589556D01*
X202714960Y-93754944D01*
X202719378Y-93759851D01*
X202719379Y-93759852D01*
X202838325Y-93891955D01*
X202842747Y-93896866D01*
X202908692Y-93944778D01*
X202988551Y-94002799D01*
X202997248Y-94009118D01*
X203003276Y-94011802D01*
X203003278Y-94011803D01*
X203164641Y-94083646D01*
X203171712Y-94086794D01*
X203181693Y-94088915D01*
X203183536Y-94089910D01*
X203184452Y-94090208D01*
X203184398Y-94090376D01*
X203244167Y-94122641D01*
X203278491Y-94184790D01*
X203281500Y-94212163D01*
X203281500Y-96353366D01*
X203261498Y-96421487D01*
X203221804Y-96460509D01*
X203178152Y-96487522D01*
X203053195Y-96612697D01*
X203049355Y-96618927D01*
X203049354Y-96618928D01*
X202967286Y-96752067D01*
X202960385Y-96763262D01*
X202952887Y-96785867D01*
X202908001Y-96921197D01*
X202904703Y-96931139D01*
X202894000Y-97035600D01*
X202894000Y-98036400D01*
X202904974Y-98142166D01*
X202907155Y-98148702D01*
X202907155Y-98148704D01*
X202937765Y-98240453D01*
X202960950Y-98309946D01*
X203054022Y-98460348D01*
X203179197Y-98585305D01*
X203185427Y-98589145D01*
X203185428Y-98589146D01*
X203322590Y-98673694D01*
X203329762Y-98678115D01*
X203376038Y-98693464D01*
X203491111Y-98731632D01*
X203491113Y-98731632D01*
X203497639Y-98733797D01*
X203504475Y-98734497D01*
X203504478Y-98734498D01*
X203547531Y-98738909D01*
X203602100Y-98744500D01*
X204227900Y-98744500D01*
X204231146Y-98744163D01*
X204231150Y-98744163D01*
X204326808Y-98734238D01*
X204326812Y-98734237D01*
X204333666Y-98733526D01*
X204340202Y-98731345D01*
X204340204Y-98731345D01*
X204472306Y-98687272D01*
X204501446Y-98677550D01*
X204651848Y-98584478D01*
X204738284Y-98497891D01*
X204800566Y-98463812D01*
X204871386Y-98468815D01*
X204916475Y-98497736D01*
X204991931Y-98573060D01*
X205004197Y-98585305D01*
X205010427Y-98589145D01*
X205010428Y-98589146D01*
X205147590Y-98673694D01*
X205154762Y-98678115D01*
X205201038Y-98693464D01*
X205316111Y-98731632D01*
X205316113Y-98731632D01*
X205322639Y-98733797D01*
X205329475Y-98734497D01*
X205329478Y-98734498D01*
X205372531Y-98738909D01*
X205427100Y-98744500D01*
X206052900Y-98744500D01*
X206056146Y-98744163D01*
X206056150Y-98744163D01*
X206151808Y-98734238D01*
X206151812Y-98734237D01*
X206158666Y-98733526D01*
X206165202Y-98731345D01*
X206165204Y-98731345D01*
X206297306Y-98687272D01*
X206326446Y-98677550D01*
X206476848Y-98584478D01*
X206601805Y-98459303D01*
X206694615Y-98308738D01*
X206750297Y-98140861D01*
X206761000Y-98036400D01*
X206761000Y-97035600D01*
X206760663Y-97032350D01*
X206750738Y-96936692D01*
X206750737Y-96936688D01*
X206750026Y-96929834D01*
X206747145Y-96921197D01*
X206700332Y-96780884D01*
X206694050Y-96762054D01*
X206600978Y-96611652D01*
X206475803Y-96486695D01*
X206469569Y-96482852D01*
X206433383Y-96460546D01*
X206385890Y-96407774D01*
X206373500Y-96353287D01*
X206373500Y-95422720D01*
X213603313Y-95422720D01*
X213623709Y-95681870D01*
X213624863Y-95686677D01*
X213624864Y-95686683D01*
X213653840Y-95807377D01*
X213684393Y-95934640D01*
X213686286Y-95939211D01*
X213686287Y-95939213D01*
X213779794Y-96164958D01*
X213783872Y-96174804D01*
X213919697Y-96396449D01*
X213922914Y-96400216D01*
X213922915Y-96400217D01*
X214001191Y-96491866D01*
X214088522Y-96594118D01*
X214092284Y-96597331D01*
X214276306Y-96754500D01*
X214286191Y-96762943D01*
X214507836Y-96898768D01*
X214512406Y-96900661D01*
X214512408Y-96900662D01*
X214743427Y-96996353D01*
X214748000Y-96998247D01*
X214794527Y-97009417D01*
X214995957Y-97057776D01*
X214995963Y-97057777D01*
X215000770Y-97058931D01*
X215259920Y-97079327D01*
X215519070Y-97058931D01*
X215523877Y-97057777D01*
X215523883Y-97057776D01*
X215725313Y-97009417D01*
X215771840Y-96998247D01*
X215776413Y-96996353D01*
X216007432Y-96900662D01*
X216007434Y-96900661D01*
X216012004Y-96898768D01*
X216085439Y-96853767D01*
X216153971Y-96835228D01*
X216221648Y-96856684D01*
X216266981Y-96911323D01*
X216275578Y-96981797D01*
X216267682Y-97009417D01*
X216252932Y-97045028D01*
X216183753Y-97212040D01*
X216182598Y-97216852D01*
X216129734Y-97437049D01*
X216123069Y-97464810D01*
X216102673Y-97723960D01*
X216123069Y-97983110D01*
X216124223Y-97987917D01*
X216124224Y-97987923D01*
X216162508Y-98147389D01*
X216183753Y-98235880D01*
X216185646Y-98240451D01*
X216185647Y-98240453D01*
X216280238Y-98468815D01*
X216283232Y-98476044D01*
X216419057Y-98697689D01*
X216422274Y-98701456D01*
X216422275Y-98701457D01*
X216425952Y-98705762D01*
X216587882Y-98895358D01*
X216632201Y-98933210D01*
X216775872Y-99055916D01*
X216785551Y-99064183D01*
X217007196Y-99200008D01*
X217011766Y-99201901D01*
X217011768Y-99201902D01*
X217242787Y-99297593D01*
X217247360Y-99299487D01*
X217333823Y-99320245D01*
X217495317Y-99359016D01*
X217495323Y-99359017D01*
X217500130Y-99360171D01*
X217759280Y-99380567D01*
X218018430Y-99360171D01*
X218023237Y-99359017D01*
X218023243Y-99359016D01*
X218184737Y-99320245D01*
X218271200Y-99299487D01*
X218275773Y-99297593D01*
X218506792Y-99201902D01*
X218506794Y-99201901D01*
X218511364Y-99200008D01*
X218733009Y-99064183D01*
X218742689Y-99055916D01*
X218886359Y-98933210D01*
X218930678Y-98895358D01*
X219092608Y-98705762D01*
X219096285Y-98701457D01*
X219096286Y-98701456D01*
X219099503Y-98697689D01*
X219235328Y-98476044D01*
X219238323Y-98468815D01*
X219332913Y-98240453D01*
X219332914Y-98240451D01*
X219334807Y-98235880D01*
X219356052Y-98147389D01*
X219394336Y-97987923D01*
X219394337Y-97987917D01*
X219395491Y-97983110D01*
X219415887Y-97723960D01*
X219395491Y-97464810D01*
X219388827Y-97437049D01*
X219335962Y-97216852D01*
X219334807Y-97212040D01*
X219271548Y-97059319D01*
X219237222Y-96976448D01*
X219237221Y-96976446D01*
X219235328Y-96971876D01*
X219099503Y-96750231D01*
X219057289Y-96700804D01*
X218933891Y-96556324D01*
X218930678Y-96552562D01*
X218853558Y-96486695D01*
X218736777Y-96386955D01*
X218736776Y-96386954D01*
X218733009Y-96383737D01*
X218511364Y-96247912D01*
X218506794Y-96246019D01*
X218506792Y-96246018D01*
X218275773Y-96150327D01*
X218275771Y-96150326D01*
X218271200Y-96148433D01*
X218153458Y-96120166D01*
X218023243Y-96088904D01*
X218023237Y-96088903D01*
X218018430Y-96087749D01*
X217759280Y-96067353D01*
X217500130Y-96087749D01*
X217495323Y-96088903D01*
X217495317Y-96088904D01*
X217365102Y-96120166D01*
X217247360Y-96148433D01*
X217242789Y-96150326D01*
X217242787Y-96150327D01*
X217011768Y-96246018D01*
X217011766Y-96246019D01*
X217007196Y-96247912D01*
X216933761Y-96292913D01*
X216865229Y-96311452D01*
X216797552Y-96289996D01*
X216752219Y-96235357D01*
X216743622Y-96164883D01*
X216751518Y-96137263D01*
X216833553Y-95939213D01*
X216833554Y-95939211D01*
X216835447Y-95934640D01*
X216866000Y-95807377D01*
X216894976Y-95686683D01*
X216894977Y-95686677D01*
X216896131Y-95681870D01*
X216916527Y-95422720D01*
X225802933Y-95422720D01*
X225823329Y-95681870D01*
X225824483Y-95686677D01*
X225824484Y-95686683D01*
X225853460Y-95807377D01*
X225884013Y-95934640D01*
X225885906Y-95939211D01*
X225885907Y-95939213D01*
X225979414Y-96164958D01*
X225983492Y-96174804D01*
X226119317Y-96396449D01*
X226122534Y-96400216D01*
X226122535Y-96400217D01*
X226200811Y-96491866D01*
X226288142Y-96594118D01*
X226291904Y-96597331D01*
X226475926Y-96754500D01*
X226485811Y-96762943D01*
X226707456Y-96898768D01*
X226712026Y-96900661D01*
X226712028Y-96900662D01*
X226943047Y-96996353D01*
X226947620Y-96998247D01*
X226994147Y-97009417D01*
X227195577Y-97057776D01*
X227195583Y-97057777D01*
X227200390Y-97058931D01*
X227459540Y-97079327D01*
X227718690Y-97058931D01*
X227723497Y-97057777D01*
X227723503Y-97057776D01*
X227924933Y-97009417D01*
X227971460Y-96998247D01*
X227976033Y-96996353D01*
X228207052Y-96900662D01*
X228207054Y-96900661D01*
X228211624Y-96898768D01*
X228433269Y-96762943D01*
X228443155Y-96754500D01*
X228627176Y-96597331D01*
X228630938Y-96594118D01*
X228718269Y-96491866D01*
X228796545Y-96400217D01*
X228796546Y-96400216D01*
X228799763Y-96396449D01*
X228935588Y-96174804D01*
X228939667Y-96164958D01*
X229033173Y-95939213D01*
X229033174Y-95939211D01*
X229035067Y-95934640D01*
X229065620Y-95807377D01*
X229094596Y-95686683D01*
X229094597Y-95686677D01*
X229095751Y-95681870D01*
X229116147Y-95422720D01*
X229095751Y-95163570D01*
X229092501Y-95150030D01*
X229036222Y-94915612D01*
X229035067Y-94910800D01*
X229002102Y-94831216D01*
X228937482Y-94675208D01*
X228937481Y-94675206D01*
X228935588Y-94670636D01*
X228799763Y-94448991D01*
X228744163Y-94383891D01*
X228634151Y-94255084D01*
X228630938Y-94251322D01*
X228578904Y-94206881D01*
X228437037Y-94085715D01*
X228437036Y-94085714D01*
X228433269Y-94082497D01*
X228211624Y-93946672D01*
X228207054Y-93944779D01*
X228207052Y-93944778D01*
X227976033Y-93849087D01*
X227976031Y-93849086D01*
X227971460Y-93847193D01*
X227884997Y-93826435D01*
X227723503Y-93787664D01*
X227723497Y-93787663D01*
X227718690Y-93786509D01*
X227459540Y-93766113D01*
X227200390Y-93786509D01*
X227195583Y-93787663D01*
X227195577Y-93787664D01*
X227034083Y-93826435D01*
X226947620Y-93847193D01*
X226943049Y-93849086D01*
X226943047Y-93849087D01*
X226712028Y-93944778D01*
X226712026Y-93944779D01*
X226707456Y-93946672D01*
X226485811Y-94082497D01*
X226482044Y-94085714D01*
X226482043Y-94085715D01*
X226340176Y-94206881D01*
X226288142Y-94251322D01*
X226284929Y-94255084D01*
X226174918Y-94383891D01*
X226119317Y-94448991D01*
X225983492Y-94670636D01*
X225981599Y-94675206D01*
X225981598Y-94675208D01*
X225916978Y-94831216D01*
X225884013Y-94910800D01*
X225882858Y-94915612D01*
X225826580Y-95150030D01*
X225823329Y-95163570D01*
X225802933Y-95422720D01*
X216916527Y-95422720D01*
X216896131Y-95163570D01*
X216892881Y-95150030D01*
X216836602Y-94915612D01*
X216835447Y-94910800D01*
X216802482Y-94831216D01*
X216737862Y-94675208D01*
X216737861Y-94675206D01*
X216735968Y-94670636D01*
X216600143Y-94448991D01*
X216544543Y-94383891D01*
X216434531Y-94255084D01*
X216431318Y-94251322D01*
X216379284Y-94206881D01*
X216237417Y-94085715D01*
X216237416Y-94085714D01*
X216233649Y-94082497D01*
X216012004Y-93946672D01*
X216007434Y-93944779D01*
X216007432Y-93944778D01*
X215776413Y-93849087D01*
X215776411Y-93849086D01*
X215771840Y-93847193D01*
X215685377Y-93826435D01*
X215523883Y-93787664D01*
X215523877Y-93787663D01*
X215519070Y-93786509D01*
X215259920Y-93766113D01*
X215000770Y-93786509D01*
X214995963Y-93787663D01*
X214995957Y-93787664D01*
X214834463Y-93826435D01*
X214748000Y-93847193D01*
X214743429Y-93849086D01*
X214743427Y-93849087D01*
X214512408Y-93944778D01*
X214512406Y-93944779D01*
X214507836Y-93946672D01*
X214286191Y-94082497D01*
X214282424Y-94085714D01*
X214282423Y-94085715D01*
X214140556Y-94206881D01*
X214088522Y-94251322D01*
X214085309Y-94255084D01*
X213975298Y-94383891D01*
X213919697Y-94448991D01*
X213783872Y-94670636D01*
X213781979Y-94675206D01*
X213781978Y-94675208D01*
X213717358Y-94831216D01*
X213684393Y-94910800D01*
X213683238Y-94915612D01*
X213626960Y-95150030D01*
X213623709Y-95163570D01*
X213603313Y-95422720D01*
X206373500Y-95422720D01*
X206373500Y-94475091D01*
X206393502Y-94406970D01*
X206447158Y-94360477D01*
X206517432Y-94350373D01*
X206525697Y-94351844D01*
X206654056Y-94379128D01*
X206654061Y-94379128D01*
X206660513Y-94380500D01*
X206851487Y-94380500D01*
X206857939Y-94379128D01*
X206857944Y-94379128D01*
X206945687Y-94360477D01*
X207038288Y-94340794D01*
X207081518Y-94321547D01*
X207206722Y-94265803D01*
X207206724Y-94265802D01*
X207212752Y-94263118D01*
X207243794Y-94240565D01*
X207282885Y-94212163D01*
X207367253Y-94150866D01*
X207374876Y-94142400D01*
X207490621Y-94013852D01*
X207490622Y-94013851D01*
X207495040Y-94008944D01*
X207590527Y-93843556D01*
X207649542Y-93661928D01*
X207651846Y-93640012D01*
X207668814Y-93478565D01*
X207669504Y-93472000D01*
X207662770Y-93407928D01*
X207650232Y-93288635D01*
X207650232Y-93288633D01*
X207649542Y-93282072D01*
X207590527Y-93100444D01*
X207495040Y-92935056D01*
X207479370Y-92917652D01*
X207371675Y-92798045D01*
X207371674Y-92798044D01*
X207367253Y-92793134D01*
X207261488Y-92716291D01*
X207218094Y-92684763D01*
X207218093Y-92684762D01*
X207212752Y-92680882D01*
X207206724Y-92678198D01*
X207206722Y-92678197D01*
X207044319Y-92605891D01*
X207044318Y-92605891D01*
X207038288Y-92603206D01*
X207028307Y-92601085D01*
X207026464Y-92600090D01*
X207025548Y-92599792D01*
X207025602Y-92599624D01*
X206965833Y-92567359D01*
X206931509Y-92505210D01*
X206928500Y-92477837D01*
X206928500Y-92368634D01*
X206948502Y-92300513D01*
X206988197Y-92261490D01*
X207000337Y-92253978D01*
X207031848Y-92234478D01*
X207156805Y-92109303D01*
X207165930Y-92094500D01*
X207245775Y-91964968D01*
X207245776Y-91964966D01*
X207249615Y-91958738D01*
X207298829Y-91810361D01*
X207303132Y-91797389D01*
X207303132Y-91797387D01*
X207305297Y-91790861D01*
X207308332Y-91761237D01*
X216787397Y-91761237D01*
X216791719Y-91767416D01*
X217003204Y-91897014D01*
X217011998Y-91901495D01*
X217242942Y-91997155D01*
X217252327Y-92000204D01*
X217495395Y-92058561D01*
X217505142Y-92060104D01*
X217754350Y-92079717D01*
X217764210Y-92079717D01*
X218013418Y-92060104D01*
X218023165Y-92058561D01*
X218266233Y-92000204D01*
X218275618Y-91997155D01*
X218506562Y-91901495D01*
X218515356Y-91897014D01*
X218725408Y-91768294D01*
X218731236Y-91759365D01*
X218725232Y-91749163D01*
X217772091Y-90796021D01*
X217758148Y-90788408D01*
X217756314Y-90788539D01*
X217749700Y-90792790D01*
X216794786Y-91747705D01*
X216787397Y-91761237D01*
X207308332Y-91761237D01*
X207316000Y-91686400D01*
X207316000Y-90685600D01*
X207312408Y-90650979D01*
X207305738Y-90586692D01*
X207305737Y-90586688D01*
X207305026Y-90579834D01*
X207300543Y-90566395D01*
X207254680Y-90428930D01*
X216103563Y-90428930D01*
X216123176Y-90678138D01*
X216124719Y-90687885D01*
X216183076Y-90930953D01*
X216186125Y-90940338D01*
X216281785Y-91171282D01*
X216286266Y-91180076D01*
X216414986Y-91390128D01*
X216423915Y-91395956D01*
X216434117Y-91389952D01*
X217387259Y-90436811D01*
X217393636Y-90425132D01*
X218123688Y-90425132D01*
X218123819Y-90426966D01*
X218128070Y-90433580D01*
X219082985Y-91388494D01*
X219096517Y-91395883D01*
X219102696Y-91391561D01*
X219232294Y-91180076D01*
X219236775Y-91171282D01*
X219332435Y-90940338D01*
X219335484Y-90930953D01*
X219393841Y-90687885D01*
X219395384Y-90678138D01*
X219414997Y-90428930D01*
X219414997Y-90419070D01*
X219395384Y-90169862D01*
X219393841Y-90160115D01*
X219335484Y-89917047D01*
X219332435Y-89907662D01*
X219236775Y-89676718D01*
X219232294Y-89667924D01*
X219103574Y-89457872D01*
X219094645Y-89452044D01*
X219084443Y-89458048D01*
X218131301Y-90411189D01*
X218123688Y-90425132D01*
X217393636Y-90425132D01*
X217394872Y-90422868D01*
X217394741Y-90421034D01*
X217390490Y-90414420D01*
X216435575Y-89459506D01*
X216422043Y-89452117D01*
X216415864Y-89456439D01*
X216286266Y-89667924D01*
X216281785Y-89676718D01*
X216186125Y-89907662D01*
X216183076Y-89917047D01*
X216124719Y-90160115D01*
X216123176Y-90169862D01*
X216103563Y-90419070D01*
X216103563Y-90428930D01*
X207254680Y-90428930D01*
X207253413Y-90425132D01*
X207249050Y-90412054D01*
X207155978Y-90261652D01*
X207030803Y-90136695D01*
X206997053Y-90115891D01*
X206886468Y-90047725D01*
X206886466Y-90047724D01*
X206880238Y-90043885D01*
X206719754Y-89990655D01*
X206718889Y-89990368D01*
X206718887Y-89990368D01*
X206712361Y-89988203D01*
X206705525Y-89987503D01*
X206705522Y-89987502D01*
X206662469Y-89983091D01*
X206607900Y-89977500D01*
X205982100Y-89977500D01*
X205978854Y-89977837D01*
X205978850Y-89977837D01*
X205883192Y-89987762D01*
X205883188Y-89987763D01*
X205876334Y-89988474D01*
X205869798Y-89990655D01*
X205869796Y-89990655D01*
X205773465Y-90022794D01*
X205708554Y-90044450D01*
X205558152Y-90137522D01*
X205552979Y-90142704D01*
X205471716Y-90224109D01*
X205409434Y-90258188D01*
X205338614Y-90253185D01*
X205293525Y-90224264D01*
X205210983Y-90141866D01*
X205205803Y-90136695D01*
X205172053Y-90115891D01*
X205061468Y-90047725D01*
X205061466Y-90047724D01*
X205055238Y-90043885D01*
X204894754Y-89990655D01*
X204893889Y-89990368D01*
X204893887Y-89990368D01*
X204887361Y-89988203D01*
X204880525Y-89987503D01*
X204880522Y-89987502D01*
X204837469Y-89983091D01*
X204782900Y-89977500D01*
X204157100Y-89977500D01*
X204153854Y-89977837D01*
X204153850Y-89977837D01*
X204058192Y-89987762D01*
X204058188Y-89987763D01*
X204051334Y-89988474D01*
X204044798Y-89990655D01*
X204044796Y-89990655D01*
X203948465Y-90022794D01*
X203883554Y-90044450D01*
X203733152Y-90137522D01*
X203608195Y-90262697D01*
X203604355Y-90268927D01*
X203604354Y-90268928D01*
X203523996Y-90399293D01*
X203515385Y-90413262D01*
X203505587Y-90442802D01*
X203474276Y-90537204D01*
X203459703Y-90581139D01*
X203449000Y-90685600D01*
X203449000Y-91686400D01*
X203449337Y-91689646D01*
X203449337Y-91689650D01*
X203456571Y-91759365D01*
X203459974Y-91792166D01*
X203462155Y-91798702D01*
X203462155Y-91798704D01*
X203500423Y-91913407D01*
X203515950Y-91959946D01*
X203538976Y-91997155D01*
X203578202Y-92060544D01*
X203597040Y-92128996D01*
X203575879Y-92196766D01*
X203560155Y-92215940D01*
X203503499Y-92272596D01*
X203441186Y-92306621D01*
X203414404Y-92309500D01*
X203358513Y-92309500D01*
X203352061Y-92310872D01*
X203352056Y-92310872D01*
X203265112Y-92329353D01*
X203171712Y-92349206D01*
X203165682Y-92351891D01*
X203165681Y-92351891D01*
X203003278Y-92424197D01*
X203003276Y-92424198D01*
X202997248Y-92426882D01*
X202842747Y-92539134D01*
X202838326Y-92544044D01*
X202838325Y-92544045D01*
X202739590Y-92653702D01*
X202714960Y-92681056D01*
X202711660Y-92686771D01*
X202711659Y-92686773D01*
X202641970Y-92807478D01*
X202619473Y-92846444D01*
X202560458Y-93028072D01*
X202559768Y-93034633D01*
X202559768Y-93034635D01*
X202555376Y-93076424D01*
X202540496Y-93218000D01*
X180846089Y-93218000D01*
X180844379Y-93217498D01*
X180797886Y-93163842D01*
X180786500Y-93111500D01*
X180786500Y-92905100D01*
X180780414Y-92846444D01*
X180776238Y-92806192D01*
X180776237Y-92806188D01*
X180775526Y-92799334D01*
X180719550Y-92631554D01*
X180626478Y-92481152D01*
X180539891Y-92394716D01*
X180505812Y-92332434D01*
X180510815Y-92261614D01*
X180539736Y-92216525D01*
X180622134Y-92133983D01*
X180627305Y-92128803D01*
X180648450Y-92094500D01*
X180716275Y-91984468D01*
X180716276Y-91984466D01*
X180720115Y-91978238D01*
X180747056Y-91897014D01*
X180773632Y-91816889D01*
X180773632Y-91816887D01*
X180775797Y-91810361D01*
X180776992Y-91798704D01*
X180784251Y-91727852D01*
X180786500Y-91705900D01*
X180786500Y-91080100D01*
X180782569Y-91042213D01*
X180776238Y-90981192D01*
X180776237Y-90981188D01*
X180775526Y-90974334D01*
X180719550Y-90806554D01*
X180626478Y-90656152D01*
X180536564Y-90566394D01*
X180502485Y-90504113D01*
X180507488Y-90433293D01*
X180549985Y-90376420D01*
X180616483Y-90351551D01*
X180638424Y-90351878D01*
X180734221Y-90361693D01*
X180742100Y-90362500D01*
X181367900Y-90362500D01*
X181371146Y-90362163D01*
X181371150Y-90362163D01*
X181466808Y-90352238D01*
X181466812Y-90352237D01*
X181473666Y-90351526D01*
X181480202Y-90349345D01*
X181480204Y-90349345D01*
X181624202Y-90301303D01*
X181641446Y-90295550D01*
X181791848Y-90202478D01*
X181878284Y-90115891D01*
X181940566Y-90081812D01*
X182011386Y-90086815D01*
X182056475Y-90115736D01*
X182077471Y-90136695D01*
X182144197Y-90203305D01*
X182150427Y-90207145D01*
X182150428Y-90207146D01*
X182287590Y-90291694D01*
X182294762Y-90296115D01*
X182354213Y-90315834D01*
X182456111Y-90349632D01*
X182456113Y-90349632D01*
X182462639Y-90351797D01*
X182469475Y-90352497D01*
X182469478Y-90352498D01*
X182512531Y-90356909D01*
X182567100Y-90362500D01*
X183192900Y-90362500D01*
X183196146Y-90362163D01*
X183196150Y-90362163D01*
X183291808Y-90352238D01*
X183291812Y-90352237D01*
X183298666Y-90351526D01*
X183305202Y-90349345D01*
X183305204Y-90349345D01*
X183449202Y-90301303D01*
X183466446Y-90295550D01*
X183616848Y-90202478D01*
X183741805Y-90077303D01*
X183750930Y-90062500D01*
X183830775Y-89932968D01*
X183830776Y-89932966D01*
X183834615Y-89926738D01*
X183846936Y-89889591D01*
X183887366Y-89831231D01*
X183952931Y-89803994D01*
X184022812Y-89816527D01*
X184046672Y-89832783D01*
X184046747Y-89832866D01*
X184121333Y-89887056D01*
X184166389Y-89919791D01*
X184201248Y-89945118D01*
X184207276Y-89947802D01*
X184207278Y-89947803D01*
X184369681Y-90020109D01*
X184375712Y-90022794D01*
X184466690Y-90042132D01*
X184556056Y-90061128D01*
X184556061Y-90061128D01*
X184562513Y-90062500D01*
X184753487Y-90062500D01*
X184759939Y-90061128D01*
X184759944Y-90061128D01*
X184849310Y-90042132D01*
X184940288Y-90022794D01*
X184946319Y-90020109D01*
X185108722Y-89947803D01*
X185108724Y-89947802D01*
X185114752Y-89945118D01*
X185149612Y-89919791D01*
X185194667Y-89887056D01*
X185269253Y-89832866D01*
X185293635Y-89805787D01*
X185392621Y-89695852D01*
X185392622Y-89695851D01*
X185397040Y-89690944D01*
X185492527Y-89525556D01*
X185551542Y-89343928D01*
X185552275Y-89336959D01*
X185570814Y-89160565D01*
X185571504Y-89154000D01*
X185570814Y-89147435D01*
X185564634Y-89088635D01*
X216787324Y-89088635D01*
X216793328Y-89098837D01*
X217746469Y-90051979D01*
X217760412Y-90059592D01*
X217762246Y-90059461D01*
X217768860Y-90055210D01*
X218723774Y-89100295D01*
X218731163Y-89086763D01*
X218726841Y-89080584D01*
X218515356Y-88950986D01*
X218506562Y-88946505D01*
X218275618Y-88850845D01*
X218266233Y-88847796D01*
X218023165Y-88789439D01*
X218013418Y-88787896D01*
X217764210Y-88768283D01*
X217754350Y-88768283D01*
X217505142Y-88787896D01*
X217495395Y-88789439D01*
X217252327Y-88847796D01*
X217242942Y-88850845D01*
X217011998Y-88946505D01*
X217003204Y-88950986D01*
X216793152Y-89079706D01*
X216787324Y-89088635D01*
X185564634Y-89088635D01*
X185552232Y-88970635D01*
X185552232Y-88970633D01*
X185551542Y-88964072D01*
X185492527Y-88782444D01*
X185397040Y-88617056D01*
X185380882Y-88599110D01*
X185273675Y-88480045D01*
X185273674Y-88480044D01*
X185269253Y-88475134D01*
X185114752Y-88362882D01*
X185108724Y-88360198D01*
X185108722Y-88360197D01*
X184946319Y-88287891D01*
X184946318Y-88287891D01*
X184940288Y-88285206D01*
X184846887Y-88265353D01*
X184759944Y-88246872D01*
X184759939Y-88246872D01*
X184753487Y-88245500D01*
X184562513Y-88245500D01*
X184556061Y-88246872D01*
X184556056Y-88246872D01*
X184469112Y-88265353D01*
X184375712Y-88285206D01*
X184369682Y-88287891D01*
X184369681Y-88287891D01*
X184207278Y-88360197D01*
X184207276Y-88360198D01*
X184201248Y-88362882D01*
X184046747Y-88475134D01*
X184046336Y-88474568D01*
X183986764Y-88503157D01*
X183916310Y-88494394D01*
X183861779Y-88448931D01*
X183846938Y-88418685D01*
X183834050Y-88380054D01*
X183740978Y-88229652D01*
X183615803Y-88104695D01*
X183616693Y-88103803D01*
X183579941Y-88051966D01*
X183576708Y-87981043D01*
X183612332Y-87919631D01*
X183675503Y-87887228D01*
X183699095Y-87885000D01*
X186965800Y-87885000D01*
X187033921Y-87905002D01*
X187053147Y-87921343D01*
X187053420Y-87921040D01*
X187058332Y-87925463D01*
X187062747Y-87930366D01*
X187068414Y-87934483D01*
X187198681Y-88029128D01*
X187217248Y-88042618D01*
X187223276Y-88045302D01*
X187223278Y-88045303D01*
X187358533Y-88105522D01*
X187391712Y-88120294D01*
X187458165Y-88134419D01*
X187572056Y-88158628D01*
X187572061Y-88158628D01*
X187578513Y-88160000D01*
X187769487Y-88160000D01*
X187775939Y-88158628D01*
X187775944Y-88158628D01*
X187889835Y-88134419D01*
X187956288Y-88120294D01*
X187989467Y-88105522D01*
X188124722Y-88045303D01*
X188124724Y-88045302D01*
X188130752Y-88042618D01*
X188149320Y-88029128D01*
X188225634Y-87973682D01*
X188285253Y-87930366D01*
X188295953Y-87918483D01*
X188363446Y-87843524D01*
X188405165Y-87797190D01*
X188465611Y-87759950D01*
X188498801Y-87755500D01*
X191041219Y-87755500D01*
X191109340Y-87775502D01*
X191148363Y-87815197D01*
X191229522Y-87946348D01*
X191354697Y-88071305D01*
X191360927Y-88075145D01*
X191360928Y-88075146D01*
X191498090Y-88159694D01*
X191505262Y-88164115D01*
X191577991Y-88188238D01*
X191666611Y-88217632D01*
X191666613Y-88217632D01*
X191673139Y-88219797D01*
X191679975Y-88220497D01*
X191679978Y-88220498D01*
X191718835Y-88224479D01*
X191777600Y-88230500D01*
X192778400Y-88230500D01*
X192781646Y-88230163D01*
X192781650Y-88230163D01*
X192877308Y-88220238D01*
X192877312Y-88220237D01*
X192884166Y-88219526D01*
X192890702Y-88217345D01*
X192890704Y-88217345D01*
X193022806Y-88173272D01*
X193051946Y-88163550D01*
X193202348Y-88070478D01*
X193327305Y-87945303D01*
X193331847Y-87937935D01*
X193416272Y-87800973D01*
X193416273Y-87800971D01*
X193420115Y-87794738D01*
X193420301Y-87794176D01*
X193465388Y-87742967D01*
X193532669Y-87723500D01*
X193581219Y-87723500D01*
X193649340Y-87743502D01*
X193688363Y-87783197D01*
X193769522Y-87914348D01*
X193894697Y-88039305D01*
X193900927Y-88043145D01*
X193900928Y-88043146D01*
X194038090Y-88127694D01*
X194045262Y-88132115D01*
X194093501Y-88148115D01*
X194206611Y-88185632D01*
X194206613Y-88185632D01*
X194213139Y-88187797D01*
X194219975Y-88188497D01*
X194219978Y-88188498D01*
X194263031Y-88192909D01*
X194317600Y-88198500D01*
X195318400Y-88198500D01*
X195321646Y-88198163D01*
X195321650Y-88198163D01*
X195417308Y-88188238D01*
X195417312Y-88188237D01*
X195424166Y-88187526D01*
X195430702Y-88185345D01*
X195430704Y-88185345D01*
X195562806Y-88141272D01*
X195591946Y-88131550D01*
X195742348Y-88038478D01*
X195867305Y-87913303D01*
X195872422Y-87905002D01*
X195956275Y-87768968D01*
X195956276Y-87768966D01*
X195960115Y-87762738D01*
X196012332Y-87605308D01*
X196013632Y-87601389D01*
X196013632Y-87601387D01*
X196015797Y-87594861D01*
X196019224Y-87561419D01*
X196021864Y-87535651D01*
X196026500Y-87490400D01*
X196026500Y-86689600D01*
X196019071Y-86618000D01*
X196016238Y-86590692D01*
X196016237Y-86590688D01*
X196015526Y-86583834D01*
X196011790Y-86572634D01*
X195961868Y-86423002D01*
X195959550Y-86416054D01*
X195866478Y-86265652D01*
X195779891Y-86179216D01*
X195745812Y-86116934D01*
X195750815Y-86046114D01*
X195779736Y-86001025D01*
X195862134Y-85918483D01*
X195867305Y-85913303D01*
X195949508Y-85779946D01*
X195956275Y-85768968D01*
X195956276Y-85768966D01*
X195960115Y-85762738D01*
X195991041Y-85669498D01*
X196013632Y-85601389D01*
X196013632Y-85601387D01*
X196015797Y-85594861D01*
X196026500Y-85490400D01*
X196026500Y-85425280D01*
X213603313Y-85425280D01*
X213623709Y-85684430D01*
X213624863Y-85689237D01*
X213624864Y-85689243D01*
X213650191Y-85794738D01*
X213684393Y-85937200D01*
X213686286Y-85941771D01*
X213686287Y-85941773D01*
X213779118Y-86165886D01*
X213783872Y-86177364D01*
X213919697Y-86399009D01*
X213922914Y-86402776D01*
X213922915Y-86402777D01*
X213985547Y-86476110D01*
X214088522Y-86596678D01*
X214286191Y-86765503D01*
X214507836Y-86901328D01*
X214512406Y-86903221D01*
X214512408Y-86903222D01*
X214597903Y-86938635D01*
X214748000Y-87000807D01*
X214834463Y-87021565D01*
X214995957Y-87060336D01*
X214995963Y-87060337D01*
X215000770Y-87061491D01*
X215259920Y-87081887D01*
X215519070Y-87061491D01*
X215523877Y-87060337D01*
X215523883Y-87060336D01*
X215685377Y-87021565D01*
X215771840Y-87000807D01*
X215921937Y-86938635D01*
X216007432Y-86903222D01*
X216007434Y-86903221D01*
X216012004Y-86901328D01*
X216233649Y-86765503D01*
X216431318Y-86596678D01*
X216534293Y-86476110D01*
X216596925Y-86402777D01*
X216596926Y-86402776D01*
X216600143Y-86399009D01*
X216735968Y-86177364D01*
X216740723Y-86165886D01*
X216833553Y-85941773D01*
X216833554Y-85941771D01*
X216835447Y-85937200D01*
X216869649Y-85794738D01*
X216894976Y-85689243D01*
X216894977Y-85689237D01*
X216896131Y-85684430D01*
X216916527Y-85425280D01*
X225802933Y-85425280D01*
X225823329Y-85684430D01*
X225824483Y-85689237D01*
X225824484Y-85689243D01*
X225849811Y-85794738D01*
X225884013Y-85937200D01*
X225885906Y-85941771D01*
X225885907Y-85941773D01*
X225978738Y-86165886D01*
X225983492Y-86177364D01*
X226119317Y-86399009D01*
X226122534Y-86402776D01*
X226122535Y-86402777D01*
X226185167Y-86476110D01*
X226288142Y-86596678D01*
X226485811Y-86765503D01*
X226707456Y-86901328D01*
X226712026Y-86903221D01*
X226712028Y-86903222D01*
X226797523Y-86938635D01*
X226947620Y-87000807D01*
X227034083Y-87021565D01*
X227195577Y-87060336D01*
X227195583Y-87060337D01*
X227200390Y-87061491D01*
X227459540Y-87081887D01*
X227718690Y-87061491D01*
X227723497Y-87060337D01*
X227723503Y-87060336D01*
X227884997Y-87021565D01*
X227971460Y-87000807D01*
X228121557Y-86938635D01*
X228207052Y-86903222D01*
X228207054Y-86903221D01*
X228211624Y-86901328D01*
X228433269Y-86765503D01*
X228630938Y-86596678D01*
X228733913Y-86476110D01*
X228796545Y-86402777D01*
X228796546Y-86402776D01*
X228799763Y-86399009D01*
X228935588Y-86177364D01*
X228940343Y-86165886D01*
X229033173Y-85941773D01*
X229033174Y-85941771D01*
X229035067Y-85937200D01*
X229069269Y-85794738D01*
X229094596Y-85689243D01*
X229094597Y-85689237D01*
X229095751Y-85684430D01*
X229116147Y-85425280D01*
X229095751Y-85166130D01*
X229035067Y-84913360D01*
X228993704Y-84813500D01*
X228937482Y-84677768D01*
X228937481Y-84677766D01*
X228935588Y-84673196D01*
X228799763Y-84451551D01*
X228791456Y-84441824D01*
X228641883Y-84266697D01*
X228630938Y-84253882D01*
X228518115Y-84157522D01*
X228437037Y-84088275D01*
X228437036Y-84088274D01*
X228433269Y-84085057D01*
X228211624Y-83949232D01*
X228207054Y-83947339D01*
X228207052Y-83947338D01*
X227976033Y-83851647D01*
X227976031Y-83851646D01*
X227971460Y-83849753D01*
X227861528Y-83823361D01*
X227723503Y-83790224D01*
X227723497Y-83790223D01*
X227718690Y-83789069D01*
X227459540Y-83768673D01*
X227200390Y-83789069D01*
X227195583Y-83790223D01*
X227195577Y-83790224D01*
X227057552Y-83823361D01*
X226947620Y-83849753D01*
X226943049Y-83851646D01*
X226943047Y-83851647D01*
X226712028Y-83947338D01*
X226712026Y-83947339D01*
X226707456Y-83949232D01*
X226485811Y-84085057D01*
X226482044Y-84088274D01*
X226482043Y-84088275D01*
X226400965Y-84157522D01*
X226288142Y-84253882D01*
X226277197Y-84266697D01*
X226127625Y-84441824D01*
X226119317Y-84451551D01*
X225983492Y-84673196D01*
X225981599Y-84677766D01*
X225981598Y-84677768D01*
X225925376Y-84813500D01*
X225884013Y-84913360D01*
X225823329Y-85166130D01*
X225802933Y-85425280D01*
X216916527Y-85425280D01*
X216896131Y-85166130D01*
X216835447Y-84913360D01*
X216791343Y-84806882D01*
X216751518Y-84710737D01*
X216743929Y-84640147D01*
X216775708Y-84576660D01*
X216836766Y-84540433D01*
X216907718Y-84542967D01*
X216933760Y-84555086D01*
X217007196Y-84600088D01*
X217011766Y-84601981D01*
X217011768Y-84601982D01*
X217215451Y-84686350D01*
X217247360Y-84699567D01*
X217286094Y-84708866D01*
X217495317Y-84759096D01*
X217495323Y-84759097D01*
X217500130Y-84760251D01*
X217759280Y-84780647D01*
X218018430Y-84760251D01*
X218023237Y-84759097D01*
X218023243Y-84759096D01*
X218232466Y-84708866D01*
X218271200Y-84699567D01*
X218303109Y-84686350D01*
X218506792Y-84601982D01*
X218506794Y-84601981D01*
X218511364Y-84600088D01*
X218733009Y-84464263D01*
X218739543Y-84458683D01*
X218926916Y-84298651D01*
X218930678Y-84295438D01*
X219052456Y-84152854D01*
X219096285Y-84101537D01*
X219096286Y-84101536D01*
X219099503Y-84097769D01*
X219235328Y-83876124D01*
X219245198Y-83852297D01*
X219332913Y-83640533D01*
X219332914Y-83640531D01*
X219334807Y-83635960D01*
X219374470Y-83470749D01*
X219394336Y-83388003D01*
X219394337Y-83387997D01*
X219395491Y-83383190D01*
X219415887Y-83124040D01*
X219395491Y-82864890D01*
X219371208Y-82763740D01*
X219340723Y-82636761D01*
X219334807Y-82612120D01*
X219321750Y-82580598D01*
X219237222Y-82376528D01*
X219237221Y-82376526D01*
X219235328Y-82371956D01*
X219099503Y-82150311D01*
X219075135Y-82121779D01*
X218964699Y-81992475D01*
X218930678Y-81952642D01*
X218873355Y-81903684D01*
X218736777Y-81787035D01*
X218736776Y-81787034D01*
X218733009Y-81783817D01*
X218511364Y-81647992D01*
X218506794Y-81646099D01*
X218506792Y-81646098D01*
X218275773Y-81550407D01*
X218275771Y-81550406D01*
X218271200Y-81548513D01*
X218184737Y-81527755D01*
X218023243Y-81488984D01*
X218023237Y-81488983D01*
X218018430Y-81487829D01*
X217759280Y-81467433D01*
X217500130Y-81487829D01*
X217495323Y-81488983D01*
X217495317Y-81488984D01*
X217333823Y-81527755D01*
X217247360Y-81548513D01*
X217242789Y-81550406D01*
X217242787Y-81550407D01*
X217011768Y-81646098D01*
X217011766Y-81646099D01*
X217007196Y-81647992D01*
X216785551Y-81783817D01*
X216781784Y-81787034D01*
X216781783Y-81787035D01*
X216645205Y-81903684D01*
X216587882Y-81952642D01*
X216553861Y-81992475D01*
X216443426Y-82121779D01*
X216419057Y-82150311D01*
X216283232Y-82371956D01*
X216281339Y-82376526D01*
X216281338Y-82376528D01*
X216196810Y-82580598D01*
X216183753Y-82612120D01*
X216177837Y-82636761D01*
X216147353Y-82763740D01*
X216123069Y-82864890D01*
X216102673Y-83124040D01*
X216123069Y-83383190D01*
X216124223Y-83387997D01*
X216124224Y-83388003D01*
X216144090Y-83470749D01*
X216183753Y-83635960D01*
X216185646Y-83640531D01*
X216185647Y-83640533D01*
X216267682Y-83838583D01*
X216275271Y-83909173D01*
X216243492Y-83972660D01*
X216182434Y-84008887D01*
X216111482Y-84006353D01*
X216085440Y-83994234D01*
X216012004Y-83949232D01*
X216007434Y-83947339D01*
X216007432Y-83947338D01*
X215776413Y-83851647D01*
X215776411Y-83851646D01*
X215771840Y-83849753D01*
X215661908Y-83823361D01*
X215523883Y-83790224D01*
X215523877Y-83790223D01*
X215519070Y-83789069D01*
X215259920Y-83768673D01*
X215000770Y-83789069D01*
X214995963Y-83790223D01*
X214995957Y-83790224D01*
X214857932Y-83823361D01*
X214748000Y-83849753D01*
X214743429Y-83851646D01*
X214743427Y-83851647D01*
X214512408Y-83947338D01*
X214512406Y-83947339D01*
X214507836Y-83949232D01*
X214286191Y-84085057D01*
X214282424Y-84088274D01*
X214282423Y-84088275D01*
X214201345Y-84157522D01*
X214088522Y-84253882D01*
X214077577Y-84266697D01*
X213928005Y-84441824D01*
X213919697Y-84451551D01*
X213783872Y-84673196D01*
X213781979Y-84677766D01*
X213781978Y-84677768D01*
X213725756Y-84813500D01*
X213684393Y-84913360D01*
X213623709Y-85166130D01*
X213603313Y-85425280D01*
X196026500Y-85425280D01*
X196026500Y-84689600D01*
X196025450Y-84679478D01*
X196016238Y-84590692D01*
X196016237Y-84590688D01*
X196015526Y-84583834D01*
X196002262Y-84544075D01*
X195961868Y-84423002D01*
X195959550Y-84416054D01*
X195866478Y-84265652D01*
X195858456Y-84257644D01*
X195853632Y-84252828D01*
X195819553Y-84190545D01*
X195824558Y-84119725D01*
X195837362Y-84102595D01*
X196458001Y-84102595D01*
X196458338Y-84109114D01*
X196468257Y-84204706D01*
X196471149Y-84218100D01*
X196522588Y-84372284D01*
X196528761Y-84385462D01*
X196614063Y-84523307D01*
X196623099Y-84534708D01*
X196737829Y-84649239D01*
X196749240Y-84658251D01*
X196887243Y-84743316D01*
X196900424Y-84749463D01*
X197054710Y-84800638D01*
X197068086Y-84803505D01*
X197162438Y-84813172D01*
X197168854Y-84813500D01*
X197593885Y-84813500D01*
X197609124Y-84809025D01*
X197610329Y-84807635D01*
X197612000Y-84799952D01*
X197612000Y-84795384D01*
X198120000Y-84795384D01*
X198124475Y-84810623D01*
X198125865Y-84811828D01*
X198133548Y-84813499D01*
X198563095Y-84813499D01*
X198569614Y-84813162D01*
X198665206Y-84803243D01*
X198678600Y-84800351D01*
X198832784Y-84748912D01*
X198845962Y-84742739D01*
X198983807Y-84657437D01*
X198995208Y-84648401D01*
X199109739Y-84533671D01*
X199118751Y-84522260D01*
X199203816Y-84384257D01*
X199209963Y-84371076D01*
X199261138Y-84216790D01*
X199264005Y-84203414D01*
X199273672Y-84109062D01*
X199274000Y-84102646D01*
X199274000Y-83915115D01*
X199269525Y-83899876D01*
X199268135Y-83898671D01*
X199260452Y-83897000D01*
X198138115Y-83897000D01*
X198122876Y-83901475D01*
X198121671Y-83902865D01*
X198120000Y-83910548D01*
X198120000Y-84795384D01*
X197612000Y-84795384D01*
X197612000Y-83915115D01*
X197607525Y-83899876D01*
X197606135Y-83898671D01*
X197598452Y-83897000D01*
X196476116Y-83897000D01*
X196460877Y-83901475D01*
X196459672Y-83902865D01*
X196458001Y-83910548D01*
X196458001Y-84102595D01*
X195837362Y-84102595D01*
X195867085Y-84062831D01*
X195981261Y-83977261D01*
X196068615Y-83860705D01*
X196119745Y-83724316D01*
X196126500Y-83662134D01*
X196126500Y-83370885D01*
X196458000Y-83370885D01*
X196462475Y-83386124D01*
X196463865Y-83387329D01*
X196471548Y-83389000D01*
X197593885Y-83389000D01*
X197609124Y-83384525D01*
X197610329Y-83383135D01*
X197612000Y-83375452D01*
X197612000Y-83370885D01*
X198120000Y-83370885D01*
X198124475Y-83386124D01*
X198125865Y-83387329D01*
X198133548Y-83389000D01*
X199255884Y-83389000D01*
X199271123Y-83384525D01*
X199272328Y-83383135D01*
X199273999Y-83375452D01*
X199273999Y-83183405D01*
X199273662Y-83176886D01*
X199263743Y-83081294D01*
X199260851Y-83067900D01*
X199209412Y-82913716D01*
X199203239Y-82900538D01*
X199117937Y-82762693D01*
X199108901Y-82751292D01*
X198994171Y-82636761D01*
X198982760Y-82627749D01*
X198844757Y-82542684D01*
X198831576Y-82536537D01*
X198677290Y-82485362D01*
X198663914Y-82482495D01*
X198569562Y-82472828D01*
X198563145Y-82472500D01*
X198138115Y-82472500D01*
X198122876Y-82476975D01*
X198121671Y-82478365D01*
X198120000Y-82486048D01*
X198120000Y-83370885D01*
X197612000Y-83370885D01*
X197612000Y-82490616D01*
X197607525Y-82475377D01*
X197606135Y-82474172D01*
X197598452Y-82472501D01*
X197168905Y-82472501D01*
X197162386Y-82472838D01*
X197066794Y-82482757D01*
X197053400Y-82485649D01*
X196899216Y-82537088D01*
X196886038Y-82543261D01*
X196748193Y-82628563D01*
X196736792Y-82637599D01*
X196622261Y-82752329D01*
X196613249Y-82763740D01*
X196528184Y-82901743D01*
X196522037Y-82914924D01*
X196470862Y-83069210D01*
X196467995Y-83082586D01*
X196458328Y-83176938D01*
X196458000Y-83183355D01*
X196458000Y-83370885D01*
X196126500Y-83370885D01*
X196126500Y-81965866D01*
X196119745Y-81903684D01*
X196068615Y-81767295D01*
X195981261Y-81650739D01*
X195864705Y-81563385D01*
X195728316Y-81512255D01*
X195666134Y-81505500D01*
X193969866Y-81505500D01*
X193907684Y-81512255D01*
X193771295Y-81563385D01*
X193654739Y-81650739D01*
X193567385Y-81767295D01*
X193516255Y-81903684D01*
X193515083Y-81914474D01*
X193514197Y-81916606D01*
X193513575Y-81919222D01*
X193513152Y-81919121D01*
X193487845Y-81980035D01*
X193429483Y-82020463D01*
X193358529Y-82022922D01*
X193297510Y-81986629D01*
X193290511Y-81977969D01*
X193287354Y-81974207D01*
X193284198Y-81969700D01*
X193122300Y-81807802D01*
X193117792Y-81804645D01*
X193117789Y-81804643D01*
X193028160Y-81741884D01*
X192934749Y-81676477D01*
X192929767Y-81674154D01*
X192929762Y-81674151D01*
X192732225Y-81582039D01*
X192732224Y-81582039D01*
X192727243Y-81579716D01*
X192721935Y-81578294D01*
X192721933Y-81578293D01*
X192511402Y-81521881D01*
X192511400Y-81521881D01*
X192506087Y-81520457D01*
X192278000Y-81500502D01*
X192049913Y-81520457D01*
X192044600Y-81521881D01*
X192044598Y-81521881D01*
X191834067Y-81578293D01*
X191834065Y-81578294D01*
X191828757Y-81579716D01*
X191823776Y-81582039D01*
X191823775Y-81582039D01*
X191626238Y-81674151D01*
X191626233Y-81674154D01*
X191621251Y-81676477D01*
X191527840Y-81741884D01*
X191438211Y-81804643D01*
X191438208Y-81804645D01*
X191433700Y-81807802D01*
X191271802Y-81969700D01*
X191268645Y-81974208D01*
X191268643Y-81974211D01*
X191244880Y-82008148D01*
X191140477Y-82157251D01*
X191138154Y-82162233D01*
X191138151Y-82162238D01*
X191122195Y-82196457D01*
X191075278Y-82249742D01*
X191007001Y-82269203D01*
X190939041Y-82248661D01*
X190893805Y-82196457D01*
X190877849Y-82162238D01*
X190877846Y-82162233D01*
X190875523Y-82157251D01*
X190771120Y-82008148D01*
X190747357Y-81974211D01*
X190747355Y-81974208D01*
X190744198Y-81969700D01*
X190582300Y-81807802D01*
X190577792Y-81804645D01*
X190577789Y-81804643D01*
X190488160Y-81741884D01*
X190394749Y-81676477D01*
X190389767Y-81674154D01*
X190389762Y-81674151D01*
X190192225Y-81582039D01*
X190192224Y-81582039D01*
X190187243Y-81579716D01*
X190181935Y-81578294D01*
X190181933Y-81578293D01*
X189971402Y-81521881D01*
X189971400Y-81521881D01*
X189966087Y-81520457D01*
X189738000Y-81500502D01*
X189509913Y-81520457D01*
X189504600Y-81521881D01*
X189504598Y-81521881D01*
X189294067Y-81578293D01*
X189294065Y-81578294D01*
X189288757Y-81579716D01*
X189283776Y-81582039D01*
X189283775Y-81582039D01*
X189086238Y-81674151D01*
X189086233Y-81674154D01*
X189081251Y-81676477D01*
X188987840Y-81741884D01*
X188898211Y-81804643D01*
X188898208Y-81804645D01*
X188893700Y-81807802D01*
X188731802Y-81969700D01*
X188728645Y-81974208D01*
X188728643Y-81974211D01*
X188704880Y-82008148D01*
X188600477Y-82157251D01*
X188598154Y-82162233D01*
X188598151Y-82162238D01*
X188581919Y-82197049D01*
X188535002Y-82250334D01*
X188466725Y-82269795D01*
X188398765Y-82249253D01*
X188353529Y-82197049D01*
X188337414Y-82162489D01*
X188331931Y-82152993D01*
X188206972Y-81974533D01*
X188199916Y-81966125D01*
X188045875Y-81812084D01*
X188037467Y-81805028D01*
X187859007Y-81680069D01*
X187849511Y-81674586D01*
X187652053Y-81582510D01*
X187641761Y-81578764D01*
X187469497Y-81532606D01*
X187455401Y-81532942D01*
X187452000Y-81540884D01*
X187452000Y-84081967D01*
X187455973Y-84095498D01*
X187464522Y-84096727D01*
X187641761Y-84049236D01*
X187652053Y-84045490D01*
X187849511Y-83953414D01*
X187859007Y-83947931D01*
X188037467Y-83822972D01*
X188045875Y-83815916D01*
X188199916Y-83661875D01*
X188206972Y-83653467D01*
X188331931Y-83475007D01*
X188337414Y-83465511D01*
X188353529Y-83430951D01*
X188400446Y-83377666D01*
X188468723Y-83358205D01*
X188536683Y-83378747D01*
X188581919Y-83430951D01*
X188598151Y-83465762D01*
X188598154Y-83465767D01*
X188600477Y-83470749D01*
X188660930Y-83557084D01*
X188718649Y-83639515D01*
X188731802Y-83658300D01*
X188893700Y-83820198D01*
X188898208Y-83823355D01*
X188898211Y-83823357D01*
X188961812Y-83867891D01*
X189081251Y-83951523D01*
X189086233Y-83953846D01*
X189086238Y-83953849D01*
X189282765Y-84045490D01*
X189288757Y-84048284D01*
X189294065Y-84049706D01*
X189294067Y-84049707D01*
X189504598Y-84106119D01*
X189504600Y-84106119D01*
X189509913Y-84107543D01*
X189738000Y-84127498D01*
X189966087Y-84107543D01*
X189971400Y-84106119D01*
X189971402Y-84106119D01*
X190181933Y-84049707D01*
X190181935Y-84049706D01*
X190187243Y-84048284D01*
X190193235Y-84045490D01*
X190389762Y-83953849D01*
X190389767Y-83953846D01*
X190394749Y-83951523D01*
X190514188Y-83867891D01*
X190577789Y-83823357D01*
X190577792Y-83823355D01*
X190582300Y-83820198D01*
X190744198Y-83658300D01*
X190757352Y-83639515D01*
X190815070Y-83557084D01*
X190875523Y-83470749D01*
X190877846Y-83465767D01*
X190877849Y-83465762D01*
X190893805Y-83431543D01*
X190940722Y-83378258D01*
X191008999Y-83358797D01*
X191076959Y-83379339D01*
X191122195Y-83431543D01*
X191138151Y-83465762D01*
X191138154Y-83465767D01*
X191140477Y-83470749D01*
X191200930Y-83557084D01*
X191258649Y-83639515D01*
X191271802Y-83658300D01*
X191433700Y-83820198D01*
X191438208Y-83823355D01*
X191438211Y-83823357D01*
X191507333Y-83871757D01*
X191551661Y-83927215D01*
X191558970Y-83997834D01*
X191526939Y-84061194D01*
X191501365Y-84082114D01*
X191500793Y-84082468D01*
X191353652Y-84173522D01*
X191228695Y-84298697D01*
X191224855Y-84304927D01*
X191224854Y-84304928D01*
X191145748Y-84433262D01*
X191135885Y-84449262D01*
X191130051Y-84466852D01*
X191083242Y-84607978D01*
X191080203Y-84617139D01*
X191079503Y-84623975D01*
X191079502Y-84623978D01*
X191077000Y-84648401D01*
X191069500Y-84721600D01*
X191069500Y-85522400D01*
X191069837Y-85525646D01*
X191069837Y-85525650D01*
X191079356Y-85617389D01*
X191080474Y-85628166D01*
X191082655Y-85634702D01*
X191082655Y-85634704D01*
X191097599Y-85679496D01*
X191136450Y-85795946D01*
X191229522Y-85946348D01*
X191234704Y-85951521D01*
X191241809Y-85958614D01*
X191284295Y-86001025D01*
X191316109Y-86032784D01*
X191350188Y-86095066D01*
X191345185Y-86165886D01*
X191316264Y-86210975D01*
X191312374Y-86214872D01*
X191228695Y-86298697D01*
X191224855Y-86304927D01*
X191224854Y-86304928D01*
X191148611Y-86428616D01*
X191095838Y-86476110D01*
X191041351Y-86488500D01*
X188210393Y-86488500D01*
X188142466Y-86466430D01*
X188141811Y-86467564D01*
X188136475Y-86464483D01*
X188136333Y-86464437D01*
X188136093Y-86464262D01*
X188136090Y-86464260D01*
X188130752Y-86460382D01*
X188124724Y-86457698D01*
X188124722Y-86457697D01*
X187962319Y-86385391D01*
X187962318Y-86385391D01*
X187956288Y-86382706D01*
X187862887Y-86362853D01*
X187775944Y-86344372D01*
X187775939Y-86344372D01*
X187769487Y-86343000D01*
X187578513Y-86343000D01*
X187572061Y-86344372D01*
X187572056Y-86344372D01*
X187485113Y-86362853D01*
X187391712Y-86382706D01*
X187385682Y-86385391D01*
X187385681Y-86385391D01*
X187223278Y-86457697D01*
X187223276Y-86457698D01*
X187217248Y-86460382D01*
X187211907Y-86464262D01*
X187211906Y-86464263D01*
X187165968Y-86497639D01*
X187062747Y-86572634D01*
X187058332Y-86577537D01*
X187053420Y-86581960D01*
X187052295Y-86580711D01*
X186998986Y-86613551D01*
X186965800Y-86618000D01*
X183441753Y-86618000D01*
X183373632Y-86597998D01*
X183327139Y-86544342D01*
X183317761Y-86509912D01*
X183317692Y-86509927D01*
X183317412Y-86508629D01*
X183316426Y-86505010D01*
X183316237Y-86503189D01*
X183315526Y-86496334D01*
X183312913Y-86488500D01*
X183261868Y-86335502D01*
X183259550Y-86328554D01*
X183166478Y-86178152D01*
X183161012Y-86172695D01*
X183079891Y-86091716D01*
X183045812Y-86029434D01*
X183050815Y-85958614D01*
X183079736Y-85913525D01*
X183162134Y-85830983D01*
X183167305Y-85825803D01*
X183195572Y-85779946D01*
X183256275Y-85681468D01*
X183256276Y-85681466D01*
X183260115Y-85675238D01*
X183315797Y-85507361D01*
X183317865Y-85487183D01*
X183324712Y-85420350D01*
X183326500Y-85402900D01*
X183326500Y-84777100D01*
X183324632Y-84759096D01*
X183316238Y-84678192D01*
X183316237Y-84678188D01*
X183315526Y-84671334D01*
X183291757Y-84600088D01*
X183261868Y-84510502D01*
X183259550Y-84503554D01*
X183166478Y-84353152D01*
X183041303Y-84228195D01*
X182959655Y-84177866D01*
X182896968Y-84139225D01*
X182896966Y-84139224D01*
X182890738Y-84135385D01*
X182883790Y-84133081D01*
X182883787Y-84133079D01*
X182871894Y-84129134D01*
X182813534Y-84088703D01*
X182786299Y-84023138D01*
X182798833Y-83953257D01*
X182839291Y-83906330D01*
X182957783Y-83823361D01*
X182957792Y-83823355D01*
X182962300Y-83820198D01*
X183124198Y-83658300D01*
X183137352Y-83639515D01*
X183195070Y-83557084D01*
X183255523Y-83470749D01*
X183257846Y-83465767D01*
X183257849Y-83465762D01*
X183273805Y-83431543D01*
X183320722Y-83378258D01*
X183388999Y-83358797D01*
X183456959Y-83379339D01*
X183502195Y-83431543D01*
X183518151Y-83465762D01*
X183518154Y-83465767D01*
X183520477Y-83470749D01*
X183580930Y-83557084D01*
X183638649Y-83639515D01*
X183651802Y-83658300D01*
X183813700Y-83820198D01*
X183818208Y-83823355D01*
X183818211Y-83823357D01*
X183881812Y-83867891D01*
X184001251Y-83951523D01*
X184006233Y-83953846D01*
X184006238Y-83953849D01*
X184202765Y-84045490D01*
X184208757Y-84048284D01*
X184214065Y-84049706D01*
X184214067Y-84049707D01*
X184424598Y-84106119D01*
X184424600Y-84106119D01*
X184429913Y-84107543D01*
X184658000Y-84127498D01*
X184886087Y-84107543D01*
X184891400Y-84106119D01*
X184891402Y-84106119D01*
X185101933Y-84049707D01*
X185101935Y-84049706D01*
X185107243Y-84048284D01*
X185113235Y-84045490D01*
X185309762Y-83953849D01*
X185309767Y-83953846D01*
X185314749Y-83951523D01*
X185434188Y-83867891D01*
X185497789Y-83823357D01*
X185497792Y-83823355D01*
X185502300Y-83820198D01*
X185664198Y-83658300D01*
X185677352Y-83639515D01*
X185735070Y-83557084D01*
X185795523Y-83470749D01*
X185797846Y-83465767D01*
X185797849Y-83465762D01*
X185814081Y-83430951D01*
X185860998Y-83377666D01*
X185929275Y-83358205D01*
X185997235Y-83378747D01*
X186042471Y-83430951D01*
X186058586Y-83465511D01*
X186064069Y-83475007D01*
X186189028Y-83653467D01*
X186196084Y-83661875D01*
X186350125Y-83815916D01*
X186358533Y-83822972D01*
X186536993Y-83947931D01*
X186546489Y-83953414D01*
X186743947Y-84045490D01*
X186754239Y-84049236D01*
X186926503Y-84095394D01*
X186940599Y-84095058D01*
X186944000Y-84087116D01*
X186944000Y-81546033D01*
X186940027Y-81532502D01*
X186931478Y-81531273D01*
X186754239Y-81578764D01*
X186743947Y-81582510D01*
X186546489Y-81674586D01*
X186536993Y-81680069D01*
X186358533Y-81805028D01*
X186350125Y-81812084D01*
X186196084Y-81966125D01*
X186189028Y-81974533D01*
X186064069Y-82152993D01*
X186058586Y-82162489D01*
X186042471Y-82197049D01*
X185995554Y-82250334D01*
X185927277Y-82269795D01*
X185859317Y-82249253D01*
X185814081Y-82197049D01*
X185797849Y-82162238D01*
X185797846Y-82162233D01*
X185795523Y-82157251D01*
X185691120Y-82008148D01*
X185667357Y-81974211D01*
X185667355Y-81974208D01*
X185664198Y-81969700D01*
X185502300Y-81807802D01*
X185497792Y-81804645D01*
X185497789Y-81804643D01*
X185408160Y-81741884D01*
X185314749Y-81676477D01*
X185309767Y-81674154D01*
X185309762Y-81674151D01*
X185112225Y-81582039D01*
X185112224Y-81582039D01*
X185107243Y-81579716D01*
X185101935Y-81578294D01*
X185101933Y-81578293D01*
X184891402Y-81521881D01*
X184891400Y-81521881D01*
X184886087Y-81520457D01*
X184658000Y-81500502D01*
X184429913Y-81520457D01*
X184424600Y-81521881D01*
X184424598Y-81521881D01*
X184214067Y-81578293D01*
X184214065Y-81578294D01*
X184208757Y-81579716D01*
X184203776Y-81582039D01*
X184203775Y-81582039D01*
X184006238Y-81674151D01*
X184006233Y-81674154D01*
X184001251Y-81676477D01*
X183907840Y-81741884D01*
X183818211Y-81804643D01*
X183818208Y-81804645D01*
X183813700Y-81807802D01*
X183651802Y-81969700D01*
X183648645Y-81974208D01*
X183648643Y-81974211D01*
X183624880Y-82008148D01*
X183520477Y-82157251D01*
X183518154Y-82162233D01*
X183518151Y-82162238D01*
X183502195Y-82196457D01*
X183455278Y-82249742D01*
X183387001Y-82269203D01*
X183319041Y-82248661D01*
X183273805Y-82196457D01*
X183257849Y-82162238D01*
X183257846Y-82162233D01*
X183255523Y-82157251D01*
X183151120Y-82008148D01*
X183127357Y-81974211D01*
X183127355Y-81974208D01*
X183124198Y-81969700D01*
X182962300Y-81807802D01*
X182957792Y-81804645D01*
X182957789Y-81804643D01*
X182868160Y-81741884D01*
X182774749Y-81676477D01*
X182769767Y-81674154D01*
X182769762Y-81674151D01*
X182572225Y-81582039D01*
X182572224Y-81582039D01*
X182567243Y-81579716D01*
X182561935Y-81578294D01*
X182561933Y-81578293D01*
X182351402Y-81521881D01*
X182351400Y-81521881D01*
X182346087Y-81520457D01*
X182118000Y-81500502D01*
X181889913Y-81520457D01*
X181884600Y-81521881D01*
X181884598Y-81521881D01*
X181674067Y-81578293D01*
X181674065Y-81578294D01*
X181668757Y-81579716D01*
X181663776Y-81582039D01*
X181663775Y-81582039D01*
X181466238Y-81674151D01*
X181466233Y-81674154D01*
X181461251Y-81676477D01*
X181367840Y-81741884D01*
X181278211Y-81804643D01*
X181278208Y-81804645D01*
X181273700Y-81807802D01*
X181111802Y-81969700D01*
X181108645Y-81974208D01*
X181108643Y-81974211D01*
X181084880Y-82008148D01*
X180980477Y-82157251D01*
X180978154Y-82162233D01*
X180978151Y-82162238D01*
X180962195Y-82196457D01*
X180915278Y-82249742D01*
X180847001Y-82269203D01*
X180779041Y-82248661D01*
X180733805Y-82196457D01*
X180717849Y-82162238D01*
X180717846Y-82162233D01*
X180715523Y-82157251D01*
X180611120Y-82008148D01*
X180587357Y-81974211D01*
X180587355Y-81974208D01*
X180584198Y-81969700D01*
X180422300Y-81807802D01*
X180417792Y-81804645D01*
X180417789Y-81804643D01*
X180328160Y-81741884D01*
X180234749Y-81676477D01*
X180229767Y-81674154D01*
X180229762Y-81674151D01*
X180032225Y-81582039D01*
X180032224Y-81582039D01*
X180027243Y-81579716D01*
X180021935Y-81578294D01*
X180021933Y-81578293D01*
X179811402Y-81521881D01*
X179811400Y-81521881D01*
X179806087Y-81520457D01*
X179578000Y-81500502D01*
X179349913Y-81520457D01*
X179344600Y-81521881D01*
X179344598Y-81521881D01*
X179134067Y-81578293D01*
X179134065Y-81578294D01*
X179128757Y-81579716D01*
X179123776Y-81582039D01*
X179123775Y-81582039D01*
X178926238Y-81674151D01*
X178926233Y-81674154D01*
X178921251Y-81676477D01*
X178827840Y-81741884D01*
X178738211Y-81804643D01*
X178738208Y-81804645D01*
X178733700Y-81807802D01*
X178571802Y-81969700D01*
X178568645Y-81974208D01*
X178568643Y-81974211D01*
X178544880Y-82008148D01*
X178440477Y-82157251D01*
X178438154Y-82162233D01*
X178438151Y-82162238D01*
X178422195Y-82196457D01*
X178375278Y-82249742D01*
X178307001Y-82269203D01*
X178239041Y-82248661D01*
X178193805Y-82196457D01*
X178177849Y-82162238D01*
X178177846Y-82162233D01*
X178175523Y-82157251D01*
X178071120Y-82008148D01*
X178047357Y-81974211D01*
X178047355Y-81974208D01*
X178044198Y-81969700D01*
X177882300Y-81807802D01*
X177877792Y-81804645D01*
X177877789Y-81804643D01*
X177788160Y-81741884D01*
X177694749Y-81676477D01*
X177689767Y-81674154D01*
X177689762Y-81674151D01*
X177492225Y-81582039D01*
X177492224Y-81582039D01*
X177487243Y-81579716D01*
X177481935Y-81578294D01*
X177481933Y-81578293D01*
X177271402Y-81521881D01*
X177271400Y-81521881D01*
X177266087Y-81520457D01*
X177038000Y-81500502D01*
X176809913Y-81520457D01*
X176804600Y-81521881D01*
X176804598Y-81521881D01*
X176594067Y-81578293D01*
X176594065Y-81578294D01*
X176588757Y-81579716D01*
X176583776Y-81582039D01*
X176583775Y-81582039D01*
X176386238Y-81674151D01*
X176386233Y-81674154D01*
X176381251Y-81676477D01*
X176287840Y-81741884D01*
X176198211Y-81804643D01*
X176198208Y-81804645D01*
X176193700Y-81807802D01*
X176031802Y-81969700D01*
X176028645Y-81974208D01*
X176028643Y-81974211D01*
X176004880Y-82008148D01*
X175900477Y-82157251D01*
X175898154Y-82162233D01*
X175898151Y-82162238D01*
X175882195Y-82196457D01*
X175835278Y-82249742D01*
X175767001Y-82269203D01*
X175699041Y-82248661D01*
X175653805Y-82196457D01*
X175637849Y-82162238D01*
X175637846Y-82162233D01*
X175635523Y-82157251D01*
X175531120Y-82008148D01*
X175507357Y-81974211D01*
X175507355Y-81974208D01*
X175504198Y-81969700D01*
X175342300Y-81807802D01*
X175337792Y-81804645D01*
X175337789Y-81804643D01*
X175248160Y-81741884D01*
X175154749Y-81676477D01*
X175149767Y-81674154D01*
X175149762Y-81674151D01*
X174952225Y-81582039D01*
X174952224Y-81582039D01*
X174947243Y-81579716D01*
X174941935Y-81578294D01*
X174941933Y-81578293D01*
X174731402Y-81521881D01*
X174731400Y-81521881D01*
X174726087Y-81520457D01*
X174498000Y-81500502D01*
X174269913Y-81520457D01*
X174264600Y-81521881D01*
X174264598Y-81521881D01*
X174054067Y-81578293D01*
X174054065Y-81578294D01*
X174048757Y-81579716D01*
X174043776Y-81582039D01*
X174043775Y-81582039D01*
X173846238Y-81674151D01*
X173846233Y-81674154D01*
X173841251Y-81676477D01*
X173747840Y-81741884D01*
X173658211Y-81804643D01*
X173658208Y-81804645D01*
X173653700Y-81807802D01*
X173491802Y-81969700D01*
X173488645Y-81974208D01*
X173488643Y-81974211D01*
X173464880Y-82008148D01*
X173360477Y-82157251D01*
X173358154Y-82162233D01*
X173358151Y-82162238D01*
X173342195Y-82196457D01*
X173295278Y-82249742D01*
X173227001Y-82269203D01*
X173159041Y-82248661D01*
X173113805Y-82196457D01*
X173097849Y-82162238D01*
X173097846Y-82162233D01*
X173095523Y-82157251D01*
X172991120Y-82008148D01*
X172967357Y-81974211D01*
X172967355Y-81974208D01*
X172964198Y-81969700D01*
X172802300Y-81807802D01*
X172797792Y-81804645D01*
X172797789Y-81804643D01*
X172708160Y-81741884D01*
X172614749Y-81676477D01*
X172609767Y-81674154D01*
X172609762Y-81674151D01*
X172412225Y-81582039D01*
X172412224Y-81582039D01*
X172407243Y-81579716D01*
X172401935Y-81578294D01*
X172401933Y-81578293D01*
X172191402Y-81521881D01*
X172191400Y-81521881D01*
X172186087Y-81520457D01*
X171958000Y-81500502D01*
X171729913Y-81520457D01*
X171724600Y-81521881D01*
X171724598Y-81521881D01*
X171514067Y-81578293D01*
X171514065Y-81578294D01*
X171508757Y-81579716D01*
X171503776Y-81582039D01*
X171503775Y-81582039D01*
X171306238Y-81674151D01*
X171306233Y-81674154D01*
X171301251Y-81676477D01*
X171207840Y-81741884D01*
X171118211Y-81804643D01*
X171118208Y-81804645D01*
X171113700Y-81807802D01*
X170951802Y-81969700D01*
X170948645Y-81974208D01*
X170948643Y-81974211D01*
X170924880Y-82008148D01*
X170820477Y-82157251D01*
X170818154Y-82162233D01*
X170818151Y-82162238D01*
X170802195Y-82196457D01*
X170755278Y-82249742D01*
X170687001Y-82269203D01*
X170619041Y-82248661D01*
X170573805Y-82196457D01*
X170557849Y-82162238D01*
X170557846Y-82162233D01*
X170555523Y-82157251D01*
X170451120Y-82008148D01*
X170427357Y-81974211D01*
X170427355Y-81974208D01*
X170424198Y-81969700D01*
X170262300Y-81807802D01*
X170257792Y-81804645D01*
X170257789Y-81804643D01*
X170168160Y-81741884D01*
X170074749Y-81676477D01*
X170069767Y-81674154D01*
X170069762Y-81674151D01*
X169872225Y-81582039D01*
X169872224Y-81582039D01*
X169867243Y-81579716D01*
X169861935Y-81578294D01*
X169861933Y-81578293D01*
X169651402Y-81521881D01*
X169651400Y-81521881D01*
X169646087Y-81520457D01*
X169418000Y-81500502D01*
X169189913Y-81520457D01*
X169184600Y-81521881D01*
X169184598Y-81521881D01*
X168974067Y-81578293D01*
X168974065Y-81578294D01*
X168968757Y-81579716D01*
X168963776Y-81582039D01*
X168963775Y-81582039D01*
X168766238Y-81674151D01*
X168766233Y-81674154D01*
X168761251Y-81676477D01*
X168667840Y-81741884D01*
X168578211Y-81804643D01*
X168578208Y-81804645D01*
X168573700Y-81807802D01*
X168411802Y-81969700D01*
X168408645Y-81974208D01*
X168408643Y-81974211D01*
X168384880Y-82008148D01*
X168280477Y-82157251D01*
X168278154Y-82162233D01*
X168278151Y-82162238D01*
X168262195Y-82196457D01*
X168215278Y-82249742D01*
X168147001Y-82269203D01*
X168079041Y-82248661D01*
X168033805Y-82196457D01*
X168017849Y-82162238D01*
X168017846Y-82162233D01*
X168015523Y-82157251D01*
X167911120Y-82008148D01*
X167887357Y-81974211D01*
X167887355Y-81974208D01*
X167884198Y-81969700D01*
X167722300Y-81807802D01*
X167717792Y-81804645D01*
X167717789Y-81804643D01*
X167628160Y-81741884D01*
X167534749Y-81676477D01*
X167529767Y-81674154D01*
X167529762Y-81674151D01*
X167332225Y-81582039D01*
X167332224Y-81582039D01*
X167327243Y-81579716D01*
X167321935Y-81578294D01*
X167321933Y-81578293D01*
X167111402Y-81521881D01*
X167111400Y-81521881D01*
X167106087Y-81520457D01*
X166878000Y-81500502D01*
X166649913Y-81520457D01*
X166644600Y-81521881D01*
X166644598Y-81521881D01*
X166434067Y-81578293D01*
X166434065Y-81578294D01*
X166428757Y-81579716D01*
X166423776Y-81582039D01*
X166423775Y-81582039D01*
X166226238Y-81674151D01*
X166226233Y-81674154D01*
X166221251Y-81676477D01*
X166127840Y-81741884D01*
X166038211Y-81804643D01*
X166038208Y-81804645D01*
X166033700Y-81807802D01*
X165871802Y-81969700D01*
X165868645Y-81974208D01*
X165868643Y-81974211D01*
X165844880Y-82008148D01*
X165740477Y-82157251D01*
X165738154Y-82162233D01*
X165738151Y-82162238D01*
X165722195Y-82196457D01*
X165675278Y-82249742D01*
X165607001Y-82269203D01*
X165539041Y-82248661D01*
X165493805Y-82196457D01*
X165477849Y-82162238D01*
X165477846Y-82162233D01*
X165475523Y-82157251D01*
X165371120Y-82008148D01*
X165347357Y-81974211D01*
X165347355Y-81974208D01*
X165344198Y-81969700D01*
X165182300Y-81807802D01*
X165177792Y-81804645D01*
X165177789Y-81804643D01*
X165088160Y-81741884D01*
X164994749Y-81676477D01*
X164989767Y-81674154D01*
X164989762Y-81674151D01*
X164792225Y-81582039D01*
X164792224Y-81582039D01*
X164787243Y-81579716D01*
X164781935Y-81578294D01*
X164781933Y-81578293D01*
X164571402Y-81521881D01*
X164571400Y-81521881D01*
X164566087Y-81520457D01*
X164338000Y-81500502D01*
X164109913Y-81520457D01*
X164104600Y-81521881D01*
X164104598Y-81521881D01*
X163894067Y-81578293D01*
X163894065Y-81578294D01*
X163888757Y-81579716D01*
X163883776Y-81582039D01*
X163883775Y-81582039D01*
X163686238Y-81674151D01*
X163686233Y-81674154D01*
X163681251Y-81676477D01*
X163587840Y-81741884D01*
X163498211Y-81804643D01*
X163498208Y-81804645D01*
X163493700Y-81807802D01*
X163331802Y-81969700D01*
X163328645Y-81974208D01*
X163328643Y-81974211D01*
X163304880Y-82008148D01*
X163200477Y-82157251D01*
X163198154Y-82162233D01*
X163198151Y-82162238D01*
X163182195Y-82196457D01*
X163135278Y-82249742D01*
X163067001Y-82269203D01*
X162999041Y-82248661D01*
X162953805Y-82196457D01*
X162937849Y-82162238D01*
X162937846Y-82162233D01*
X162935523Y-82157251D01*
X162831120Y-82008148D01*
X162807357Y-81974211D01*
X162807355Y-81974208D01*
X162804198Y-81969700D01*
X162642300Y-81807802D01*
X162637792Y-81804645D01*
X162637789Y-81804643D01*
X162548160Y-81741884D01*
X162454749Y-81676477D01*
X162449767Y-81674154D01*
X162449762Y-81674151D01*
X162252225Y-81582039D01*
X162252224Y-81582039D01*
X162247243Y-81579716D01*
X162241935Y-81578294D01*
X162241933Y-81578293D01*
X162031402Y-81521881D01*
X162031400Y-81521881D01*
X162026087Y-81520457D01*
X161798000Y-81500502D01*
X161569913Y-81520457D01*
X161564600Y-81521881D01*
X161564598Y-81521881D01*
X161354067Y-81578293D01*
X161354065Y-81578294D01*
X161348757Y-81579716D01*
X161343776Y-81582039D01*
X161343775Y-81582039D01*
X161146238Y-81674151D01*
X161146233Y-81674154D01*
X161141251Y-81676477D01*
X161047840Y-81741884D01*
X160958211Y-81804643D01*
X160958208Y-81804645D01*
X160953700Y-81807802D01*
X160791802Y-81969700D01*
X160788645Y-81974208D01*
X160788643Y-81974211D01*
X160764880Y-82008148D01*
X160660477Y-82157251D01*
X160658154Y-82162233D01*
X160658151Y-82162238D01*
X160642195Y-82196457D01*
X160595278Y-82249742D01*
X160527001Y-82269203D01*
X160459041Y-82248661D01*
X160413805Y-82196457D01*
X160397849Y-82162238D01*
X160397846Y-82162233D01*
X160395523Y-82157251D01*
X160291120Y-82008148D01*
X160267357Y-81974211D01*
X160267355Y-81974208D01*
X160264198Y-81969700D01*
X160102300Y-81807802D01*
X160097792Y-81804645D01*
X160097789Y-81804643D01*
X160008160Y-81741884D01*
X159914749Y-81676477D01*
X159909767Y-81674154D01*
X159909762Y-81674151D01*
X159712225Y-81582039D01*
X159712224Y-81582039D01*
X159707243Y-81579716D01*
X159701935Y-81578294D01*
X159701933Y-81578293D01*
X159491402Y-81521881D01*
X159491400Y-81521881D01*
X159486087Y-81520457D01*
X159258000Y-81500502D01*
X159029913Y-81520457D01*
X159024600Y-81521881D01*
X159024598Y-81521881D01*
X158814067Y-81578293D01*
X158814065Y-81578294D01*
X158808757Y-81579716D01*
X158803776Y-81582039D01*
X158803775Y-81582039D01*
X158606238Y-81674151D01*
X158606233Y-81674154D01*
X158601251Y-81676477D01*
X158507840Y-81741884D01*
X158418211Y-81804643D01*
X158418208Y-81804645D01*
X158413700Y-81807802D01*
X158251802Y-81969700D01*
X158248645Y-81974208D01*
X158248643Y-81974211D01*
X158224880Y-82008148D01*
X158120477Y-82157251D01*
X158118154Y-82162233D01*
X158118151Y-82162238D01*
X158042200Y-82325118D01*
X158023716Y-82364757D01*
X158022294Y-82370065D01*
X158022293Y-82370067D01*
X157975839Y-82543435D01*
X157964457Y-82585913D01*
X157944502Y-82814000D01*
X157964457Y-83042087D01*
X157965881Y-83047400D01*
X157965881Y-83047402D01*
X158021295Y-83254206D01*
X158023716Y-83263243D01*
X158026039Y-83268224D01*
X158026039Y-83268225D01*
X158118151Y-83465762D01*
X158118154Y-83465767D01*
X158120477Y-83470749D01*
X158180930Y-83557084D01*
X158238649Y-83639515D01*
X158251802Y-83658300D01*
X158413700Y-83820198D01*
X158418208Y-83823355D01*
X158418211Y-83823357D01*
X158481812Y-83867891D01*
X158601251Y-83951523D01*
X158606233Y-83953846D01*
X158606238Y-83953849D01*
X158802765Y-84045490D01*
X158808757Y-84048284D01*
X158814065Y-84049706D01*
X158814067Y-84049707D01*
X159024598Y-84106119D01*
X159024600Y-84106119D01*
X159029913Y-84107543D01*
X159258000Y-84127498D01*
X159486087Y-84107543D01*
X159491400Y-84106119D01*
X159491402Y-84106119D01*
X159701933Y-84049707D01*
X159701935Y-84049706D01*
X159707243Y-84048284D01*
X159713235Y-84045490D01*
X159909762Y-83953849D01*
X159909767Y-83953846D01*
X159914749Y-83951523D01*
X160034188Y-83867891D01*
X160097789Y-83823357D01*
X160097792Y-83823355D01*
X160102300Y-83820198D01*
X160264198Y-83658300D01*
X160277352Y-83639515D01*
X160335070Y-83557084D01*
X160395523Y-83470749D01*
X160397846Y-83465767D01*
X160397849Y-83465762D01*
X160413805Y-83431543D01*
X160460722Y-83378258D01*
X160528999Y-83358797D01*
X160596959Y-83379339D01*
X160642195Y-83431543D01*
X160658151Y-83465762D01*
X160658154Y-83465767D01*
X160660477Y-83470749D01*
X160720930Y-83557084D01*
X160778649Y-83639515D01*
X160791802Y-83658300D01*
X160953700Y-83820198D01*
X160958208Y-83823355D01*
X160958211Y-83823357D01*
X161021812Y-83867891D01*
X161141251Y-83951523D01*
X161146233Y-83953846D01*
X161146238Y-83953849D01*
X161342765Y-84045490D01*
X161348757Y-84048284D01*
X161354065Y-84049706D01*
X161354067Y-84049707D01*
X161564598Y-84106119D01*
X161564600Y-84106119D01*
X161569913Y-84107543D01*
X161798000Y-84127498D01*
X162026087Y-84107543D01*
X162031400Y-84106119D01*
X162031402Y-84106119D01*
X162241933Y-84049707D01*
X162241935Y-84049706D01*
X162247243Y-84048284D01*
X162253235Y-84045490D01*
X162449762Y-83953849D01*
X162449767Y-83953846D01*
X162454749Y-83951523D01*
X162574188Y-83867891D01*
X162637789Y-83823357D01*
X162637792Y-83823355D01*
X162642300Y-83820198D01*
X162804198Y-83658300D01*
X162817352Y-83639515D01*
X162875070Y-83557084D01*
X162935523Y-83470749D01*
X162937846Y-83465767D01*
X162937849Y-83465762D01*
X162953805Y-83431543D01*
X163000722Y-83378258D01*
X163068999Y-83358797D01*
X163136959Y-83379339D01*
X163182195Y-83431543D01*
X163198151Y-83465762D01*
X163198154Y-83465767D01*
X163200477Y-83470749D01*
X163260930Y-83557084D01*
X163318649Y-83639515D01*
X163331802Y-83658300D01*
X163493700Y-83820198D01*
X163498208Y-83823355D01*
X163498211Y-83823357D01*
X163561812Y-83867891D01*
X163681251Y-83951523D01*
X163686233Y-83953846D01*
X163686238Y-83953849D01*
X163882765Y-84045490D01*
X163888757Y-84048284D01*
X163894065Y-84049706D01*
X163894067Y-84049707D01*
X164104598Y-84106119D01*
X164104600Y-84106119D01*
X164109913Y-84107543D01*
X164338000Y-84127498D01*
X164566087Y-84107543D01*
X164571400Y-84106119D01*
X164571402Y-84106119D01*
X164781933Y-84049707D01*
X164781935Y-84049706D01*
X164787243Y-84048284D01*
X164793235Y-84045490D01*
X164989762Y-83953849D01*
X164989767Y-83953846D01*
X164994749Y-83951523D01*
X165114188Y-83867891D01*
X165177789Y-83823357D01*
X165177792Y-83823355D01*
X165182300Y-83820198D01*
X165344198Y-83658300D01*
X165357352Y-83639515D01*
X165415070Y-83557084D01*
X165475523Y-83470749D01*
X165477846Y-83465767D01*
X165477849Y-83465762D01*
X165493805Y-83431543D01*
X165540722Y-83378258D01*
X165608999Y-83358797D01*
X165676959Y-83379339D01*
X165722195Y-83431543D01*
X165738151Y-83465762D01*
X165738154Y-83465767D01*
X165740477Y-83470749D01*
X165800930Y-83557084D01*
X165858649Y-83639515D01*
X165871802Y-83658300D01*
X166033700Y-83820198D01*
X166038208Y-83823355D01*
X166038211Y-83823357D01*
X166101812Y-83867891D01*
X166221251Y-83951523D01*
X166226233Y-83953846D01*
X166226238Y-83953849D01*
X166422765Y-84045490D01*
X166428757Y-84048284D01*
X166434065Y-84049706D01*
X166434067Y-84049707D01*
X166644598Y-84106119D01*
X166644600Y-84106119D01*
X166649913Y-84107543D01*
X166878000Y-84127498D01*
X167106087Y-84107543D01*
X167111400Y-84106119D01*
X167111402Y-84106119D01*
X167321933Y-84049707D01*
X167321935Y-84049706D01*
X167327243Y-84048284D01*
X167333235Y-84045490D01*
X167529762Y-83953849D01*
X167529767Y-83953846D01*
X167534749Y-83951523D01*
X167654188Y-83867891D01*
X167717789Y-83823357D01*
X167717792Y-83823355D01*
X167722300Y-83820198D01*
X167884198Y-83658300D01*
X167897352Y-83639515D01*
X167955070Y-83557084D01*
X168015523Y-83470749D01*
X168017846Y-83465767D01*
X168017849Y-83465762D01*
X168033805Y-83431543D01*
X168080722Y-83378258D01*
X168148999Y-83358797D01*
X168216959Y-83379339D01*
X168262195Y-83431543D01*
X168278151Y-83465762D01*
X168278154Y-83465767D01*
X168280477Y-83470749D01*
X168340930Y-83557084D01*
X168398649Y-83639515D01*
X168411802Y-83658300D01*
X168573700Y-83820198D01*
X168578208Y-83823355D01*
X168578211Y-83823357D01*
X168635203Y-83863263D01*
X168679531Y-83918720D01*
X168686840Y-83989340D01*
X168654809Y-84052700D01*
X168629235Y-84073620D01*
X168542944Y-84127019D01*
X168493652Y-84157522D01*
X168488479Y-84162704D01*
X168426936Y-84224354D01*
X168368695Y-84282697D01*
X168364855Y-84288927D01*
X168364854Y-84288928D01*
X168281467Y-84424207D01*
X168275885Y-84433262D01*
X168220203Y-84601139D01*
X168219503Y-84607975D01*
X168219502Y-84607978D01*
X168217863Y-84623978D01*
X168209500Y-84705600D01*
X168209500Y-85506400D01*
X168209837Y-85509646D01*
X168209837Y-85509650D01*
X168219356Y-85601389D01*
X168220474Y-85612166D01*
X168222655Y-85618702D01*
X168222655Y-85618704D01*
X168242937Y-85679496D01*
X168276450Y-85779946D01*
X168369522Y-85930348D01*
X168374704Y-85935521D01*
X168456109Y-86016784D01*
X168490188Y-86079066D01*
X168485185Y-86149886D01*
X168456264Y-86194975D01*
X168437771Y-86213500D01*
X168368695Y-86282697D01*
X168364855Y-86288927D01*
X168364854Y-86288928D01*
X168285748Y-86417262D01*
X168275885Y-86433262D01*
X168249436Y-86513005D01*
X168226979Y-86580711D01*
X168220203Y-86601139D01*
X168209500Y-86705600D01*
X168209500Y-87506400D01*
X168209837Y-87509646D01*
X168209837Y-87509650D01*
X168219490Y-87602679D01*
X168220474Y-87612166D01*
X168222655Y-87618702D01*
X168222655Y-87618704D01*
X168251178Y-87704198D01*
X168276450Y-87779946D01*
X168369522Y-87930348D01*
X168494697Y-88055305D01*
X168500927Y-88059145D01*
X168500928Y-88059146D01*
X168618389Y-88131550D01*
X168645262Y-88148115D01*
X168693501Y-88164115D01*
X168806611Y-88201632D01*
X168806613Y-88201632D01*
X168813139Y-88203797D01*
X168819975Y-88204497D01*
X168819978Y-88204498D01*
X168914398Y-88214172D01*
X168914399Y-88214172D01*
X168917600Y-88214500D01*
X168919210Y-88214500D01*
X168985946Y-88237860D01*
X169029637Y-88293820D01*
X169038500Y-88340240D01*
X169038500Y-89721476D01*
X169018498Y-89789597D01*
X169006142Y-89805779D01*
X168932960Y-89887056D01*
X168910050Y-89926738D01*
X168842415Y-90043885D01*
X168837473Y-90052444D01*
X168778458Y-90234072D01*
X168777768Y-90240633D01*
X168777768Y-90240635D01*
X168761839Y-90392197D01*
X168758496Y-90424000D01*
X168759186Y-90430565D01*
X168775731Y-90587978D01*
X168778458Y-90613928D01*
X168837473Y-90795556D01*
X168932960Y-90960944D01*
X169006137Y-91042215D01*
X169036853Y-91106221D01*
X169038500Y-91126524D01*
X169038500Y-92266553D01*
X169018498Y-92334674D01*
X168964842Y-92381167D01*
X168894568Y-92391271D01*
X168829988Y-92361777D01*
X168818870Y-92350870D01*
X168763552Y-92289433D01*
X168609051Y-92177181D01*
X168603023Y-92174497D01*
X168603021Y-92174496D01*
X168440618Y-92102190D01*
X168440617Y-92102190D01*
X168434587Y-92099505D01*
X168341187Y-92079652D01*
X168254243Y-92061171D01*
X168254238Y-92061171D01*
X168247786Y-92059799D01*
X168056812Y-92059799D01*
X168050360Y-92061171D01*
X168050355Y-92061171D01*
X167963412Y-92079652D01*
X167870011Y-92099505D01*
X167863981Y-92102190D01*
X167863980Y-92102190D01*
X167701577Y-92174496D01*
X167701575Y-92174497D01*
X167695547Y-92177181D01*
X167541046Y-92289433D01*
X167536628Y-92294340D01*
X167536624Y-92294344D01*
X167459369Y-92380145D01*
X167413259Y-92431355D01*
X167334737Y-92567359D01*
X167332635Y-92571000D01*
X167281253Y-92619993D01*
X167223516Y-92634000D01*
X167150115Y-92634000D01*
X167134876Y-92638475D01*
X167133671Y-92639865D01*
X167132000Y-92647548D01*
X167132000Y-93870000D01*
X167111998Y-93938121D01*
X167058342Y-93984614D01*
X167006000Y-93996000D01*
X165688116Y-93996000D01*
X165672877Y-94000475D01*
X165671672Y-94001865D01*
X165670001Y-94009548D01*
X165670001Y-94139095D01*
X165670338Y-94145614D01*
X165680257Y-94241206D01*
X165683149Y-94254600D01*
X165734588Y-94408784D01*
X165740761Y-94421962D01*
X165826063Y-94559807D01*
X165835099Y-94571208D01*
X165916462Y-94652430D01*
X165950541Y-94714713D01*
X165945538Y-94785533D01*
X165916617Y-94830620D01*
X165833870Y-94913512D01*
X165833866Y-94913517D01*
X165828695Y-94918697D01*
X165824855Y-94924927D01*
X165824854Y-94924928D01*
X165745420Y-95053794D01*
X165735885Y-95069262D01*
X165680203Y-95237139D01*
X165679503Y-95243975D01*
X165679502Y-95243978D01*
X165676103Y-95277156D01*
X165669500Y-95341600D01*
X165669500Y-96142400D01*
X165669837Y-96145646D01*
X165669837Y-96145650D01*
X165676100Y-96206008D01*
X165680474Y-96248166D01*
X165682655Y-96254702D01*
X165682655Y-96254704D01*
X165695403Y-96292913D01*
X165736450Y-96415946D01*
X165829522Y-96566348D01*
X165954697Y-96691305D01*
X165960927Y-96695145D01*
X165960928Y-96695146D01*
X166104347Y-96783551D01*
X166151840Y-96836323D01*
X166163264Y-96906395D01*
X166134990Y-96971519D01*
X166110502Y-96994024D01*
X166038211Y-97044643D01*
X166038208Y-97044645D01*
X166033700Y-97047802D01*
X165871802Y-97209700D01*
X165740477Y-97397251D01*
X165738154Y-97402233D01*
X165738151Y-97402238D01*
X165722195Y-97436457D01*
X165675278Y-97489742D01*
X165607001Y-97509203D01*
X165539041Y-97488661D01*
X165493805Y-97436457D01*
X165477849Y-97402238D01*
X165477846Y-97402233D01*
X165475523Y-97397251D01*
X165344198Y-97209700D01*
X165182300Y-97047802D01*
X165177792Y-97044645D01*
X165177789Y-97044643D01*
X165073357Y-96971519D01*
X164994749Y-96916477D01*
X164989767Y-96914154D01*
X164989762Y-96914151D01*
X164792225Y-96822039D01*
X164792224Y-96822039D01*
X164787243Y-96819716D01*
X164781935Y-96818294D01*
X164781933Y-96818293D01*
X164571402Y-96761881D01*
X164571400Y-96761881D01*
X164566087Y-96760457D01*
X164338000Y-96740502D01*
X164109913Y-96760457D01*
X164104600Y-96761881D01*
X164104598Y-96761881D01*
X163894067Y-96818293D01*
X163894065Y-96818294D01*
X163888757Y-96819716D01*
X163883776Y-96822039D01*
X163883775Y-96822039D01*
X163686238Y-96914151D01*
X163686233Y-96914154D01*
X163681251Y-96916477D01*
X163602643Y-96971519D01*
X163498211Y-97044643D01*
X163498208Y-97044645D01*
X163493700Y-97047802D01*
X163331802Y-97209700D01*
X163200477Y-97397251D01*
X163198154Y-97402233D01*
X163198151Y-97402238D01*
X163182195Y-97436457D01*
X163135278Y-97489742D01*
X163067001Y-97509203D01*
X162999041Y-97488661D01*
X162953805Y-97436457D01*
X162937849Y-97402238D01*
X162937846Y-97402233D01*
X162935523Y-97397251D01*
X162804198Y-97209700D01*
X162642300Y-97047802D01*
X162637792Y-97044645D01*
X162637789Y-97044643D01*
X162533357Y-96971519D01*
X162454749Y-96916477D01*
X162449767Y-96914154D01*
X162449762Y-96914151D01*
X162252225Y-96822039D01*
X162252224Y-96822039D01*
X162247243Y-96819716D01*
X162241935Y-96818294D01*
X162241933Y-96818293D01*
X162031402Y-96761881D01*
X162031400Y-96761881D01*
X162026087Y-96760457D01*
X161798000Y-96740502D01*
X161569913Y-96760457D01*
X161564600Y-96761881D01*
X161564598Y-96761881D01*
X161354067Y-96818293D01*
X161354065Y-96818294D01*
X161348757Y-96819716D01*
X161343776Y-96822039D01*
X161343775Y-96822039D01*
X161146238Y-96914151D01*
X161146233Y-96914154D01*
X161141251Y-96916477D01*
X161062643Y-96971519D01*
X160958211Y-97044643D01*
X160958208Y-97044645D01*
X160953700Y-97047802D01*
X160791802Y-97209700D01*
X160660477Y-97397251D01*
X160658154Y-97402233D01*
X160658151Y-97402238D01*
X160642195Y-97436457D01*
X160595278Y-97489742D01*
X160527001Y-97509203D01*
X160459041Y-97488661D01*
X160413805Y-97436457D01*
X160397849Y-97402238D01*
X160397846Y-97402233D01*
X160395523Y-97397251D01*
X160264198Y-97209700D01*
X160102300Y-97047802D01*
X160097792Y-97044645D01*
X160097789Y-97044643D01*
X159993357Y-96971519D01*
X159914749Y-96916477D01*
X159909767Y-96914154D01*
X159909762Y-96914151D01*
X159712225Y-96822039D01*
X159712224Y-96822039D01*
X159707243Y-96819716D01*
X159701935Y-96818294D01*
X159701933Y-96818293D01*
X159491402Y-96761881D01*
X159491400Y-96761881D01*
X159486087Y-96760457D01*
X159258000Y-96740502D01*
X159029913Y-96760457D01*
X159024600Y-96761881D01*
X159024598Y-96761881D01*
X158814067Y-96818293D01*
X158814065Y-96818294D01*
X158808757Y-96819716D01*
X158803776Y-96822039D01*
X158803775Y-96822039D01*
X158606238Y-96914151D01*
X158606233Y-96914154D01*
X158601251Y-96916477D01*
X158522643Y-96971519D01*
X158418211Y-97044643D01*
X158418208Y-97044645D01*
X158413700Y-97047802D01*
X158251802Y-97209700D01*
X158120477Y-97397251D01*
X158118154Y-97402233D01*
X158118151Y-97402238D01*
X158118034Y-97402489D01*
X158023716Y-97604757D01*
X157964457Y-97825913D01*
X157944502Y-98054000D01*
X152908500Y-98054000D01*
X152908500Y-93469885D01*
X165670000Y-93469885D01*
X165674475Y-93485124D01*
X165675865Y-93486329D01*
X165683548Y-93488000D01*
X166605885Y-93488000D01*
X166621124Y-93483525D01*
X166622329Y-93482135D01*
X166624000Y-93474452D01*
X166624000Y-92652116D01*
X166619525Y-92636877D01*
X166618135Y-92635672D01*
X166610452Y-92634001D01*
X166380905Y-92634001D01*
X166374386Y-92634338D01*
X166278794Y-92644257D01*
X166265400Y-92647149D01*
X166111216Y-92698588D01*
X166098038Y-92704761D01*
X165960193Y-92790063D01*
X165948792Y-92799099D01*
X165834261Y-92913829D01*
X165825249Y-92925240D01*
X165740184Y-93063243D01*
X165734037Y-93076424D01*
X165682862Y-93230710D01*
X165679995Y-93244086D01*
X165670328Y-93338438D01*
X165670000Y-93344855D01*
X165670000Y-93469885D01*
X152908500Y-93469885D01*
X152908500Y-80264000D01*
X170790496Y-80264000D01*
X170791186Y-80270565D01*
X170800234Y-80356648D01*
X170810458Y-80453928D01*
X170869473Y-80635556D01*
X170964960Y-80800944D01*
X170969378Y-80805851D01*
X170969379Y-80805852D01*
X171039258Y-80883460D01*
X171092747Y-80942866D01*
X171247248Y-81055118D01*
X171253276Y-81057802D01*
X171253278Y-81057803D01*
X171362353Y-81106366D01*
X171421712Y-81132794D01*
X171515112Y-81152647D01*
X171602056Y-81171128D01*
X171602061Y-81171128D01*
X171608513Y-81172500D01*
X171799487Y-81172500D01*
X171805939Y-81171128D01*
X171805944Y-81171128D01*
X171892888Y-81152647D01*
X171986288Y-81132794D01*
X172045647Y-81106366D01*
X172154722Y-81057803D01*
X172154724Y-81057802D01*
X172160752Y-81055118D01*
X172262904Y-80980900D01*
X196457500Y-80980900D01*
X196457837Y-80984146D01*
X196457837Y-80984150D01*
X196465201Y-81055118D01*
X196468474Y-81086666D01*
X196470655Y-81093202D01*
X196470655Y-81093204D01*
X196511456Y-81215498D01*
X196524450Y-81254446D01*
X196617522Y-81404848D01*
X196742697Y-81529805D01*
X196748927Y-81533645D01*
X196748928Y-81533646D01*
X196878071Y-81613251D01*
X196893262Y-81622615D01*
X196967842Y-81647352D01*
X197054611Y-81676132D01*
X197054613Y-81676132D01*
X197061139Y-81678297D01*
X197067975Y-81678997D01*
X197067978Y-81678998D01*
X197106191Y-81682913D01*
X197165600Y-81689000D01*
X198566400Y-81689000D01*
X198569646Y-81688663D01*
X198569650Y-81688663D01*
X198665308Y-81678738D01*
X198665312Y-81678737D01*
X198672166Y-81678026D01*
X198678702Y-81675845D01*
X198678704Y-81675845D01*
X198839946Y-81622050D01*
X198840979Y-81625145D01*
X198896816Y-81616573D01*
X198961675Y-81645449D01*
X199000626Y-81704807D01*
X199003320Y-81715256D01*
X199003768Y-81717363D01*
X199004458Y-81723928D01*
X199063473Y-81905556D01*
X199158960Y-82070944D01*
X199163378Y-82075851D01*
X199163379Y-82075852D01*
X199229692Y-82149500D01*
X199286747Y-82212866D01*
X199357398Y-82264197D01*
X199410207Y-82302565D01*
X199441248Y-82325118D01*
X199444232Y-82326447D01*
X199492370Y-82376935D01*
X199505686Y-82421498D01*
X199512458Y-82485928D01*
X199514498Y-82492205D01*
X199514498Y-82492207D01*
X199543218Y-82580598D01*
X199571473Y-82667556D01*
X199666960Y-82832944D01*
X199671378Y-82837851D01*
X199671379Y-82837852D01*
X199790325Y-82969955D01*
X199794747Y-82974866D01*
X199879726Y-83036607D01*
X199918207Y-83064565D01*
X199949248Y-83087118D01*
X199955276Y-83089802D01*
X199955278Y-83089803D01*
X200117681Y-83162109D01*
X200123712Y-83164794D01*
X200217113Y-83184647D01*
X200304056Y-83203128D01*
X200304061Y-83203128D01*
X200310513Y-83204500D01*
X200501487Y-83204500D01*
X200507939Y-83203128D01*
X200507944Y-83203128D01*
X200594888Y-83184647D01*
X200688288Y-83164794D01*
X200694319Y-83162109D01*
X200856722Y-83089803D01*
X200856724Y-83089802D01*
X200862752Y-83087118D01*
X200893794Y-83064565D01*
X200902830Y-83058000D01*
X208128496Y-83058000D01*
X208129186Y-83064565D01*
X208146863Y-83232749D01*
X208148458Y-83247928D01*
X208207473Y-83429556D01*
X208210776Y-83435278D01*
X208210777Y-83435279D01*
X208235416Y-83477955D01*
X208302960Y-83594944D01*
X208430747Y-83736866D01*
X208502064Y-83788681D01*
X208539550Y-83815916D01*
X208585248Y-83849118D01*
X208591276Y-83851802D01*
X208591278Y-83851803D01*
X208733480Y-83915115D01*
X208759712Y-83926794D01*
X208853112Y-83946647D01*
X208940056Y-83965128D01*
X208940061Y-83965128D01*
X208946513Y-83966500D01*
X209137487Y-83966500D01*
X209143939Y-83965128D01*
X209143944Y-83965128D01*
X209230887Y-83946647D01*
X209324288Y-83926794D01*
X209350520Y-83915115D01*
X209492722Y-83851803D01*
X209492724Y-83851802D01*
X209498752Y-83849118D01*
X209544451Y-83815916D01*
X209581936Y-83788681D01*
X209653253Y-83736866D01*
X209740908Y-83639515D01*
X209801354Y-83602275D01*
X209872337Y-83603627D01*
X209885792Y-83608718D01*
X210023677Y-83670108D01*
X210023685Y-83670111D01*
X210029712Y-83672794D01*
X210123113Y-83692647D01*
X210210056Y-83711128D01*
X210210061Y-83711128D01*
X210216513Y-83712500D01*
X210407487Y-83712500D01*
X210413939Y-83711128D01*
X210413944Y-83711128D01*
X210500887Y-83692647D01*
X210594288Y-83672794D01*
X210610601Y-83665531D01*
X210762722Y-83597803D01*
X210762724Y-83597802D01*
X210768752Y-83595118D01*
X210923253Y-83482866D01*
X210934163Y-83470749D01*
X211046621Y-83345852D01*
X211046622Y-83345851D01*
X211051040Y-83340944D01*
X211130608Y-83203128D01*
X211143223Y-83181279D01*
X211143224Y-83181278D01*
X211146527Y-83175556D01*
X211205542Y-82993928D01*
X211207138Y-82978749D01*
X211224814Y-82810565D01*
X211225504Y-82804000D01*
X211207065Y-82628563D01*
X211206232Y-82620635D01*
X211206232Y-82620633D01*
X211205542Y-82614072D01*
X211146527Y-82432444D01*
X211051040Y-82267056D01*
X210977863Y-82185785D01*
X210947147Y-82121779D01*
X210945500Y-82101476D01*
X210945500Y-81474524D01*
X210965502Y-81406403D01*
X210977858Y-81390221D01*
X211051040Y-81308944D01*
X211146527Y-81143556D01*
X211205542Y-80961928D01*
X211206312Y-80954602D01*
X211206482Y-80954190D01*
X211207606Y-80948900D01*
X211208573Y-80949106D01*
X211233324Y-80888945D01*
X211291545Y-80848315D01*
X211362490Y-80845611D01*
X211425257Y-80883460D01*
X211449137Y-80909980D01*
X211479853Y-80973987D01*
X211481500Y-80994290D01*
X211481500Y-81485864D01*
X211480422Y-81502307D01*
X211476250Y-81534000D01*
X211477328Y-81542189D01*
X211481500Y-81573880D01*
X211481500Y-81573885D01*
X211491618Y-81650739D01*
X211491871Y-81652657D01*
X211497162Y-81692851D01*
X211558476Y-81840876D01*
X211563503Y-81847427D01*
X211563504Y-81847429D01*
X211631520Y-81936069D01*
X211631526Y-81936075D01*
X211656013Y-81967987D01*
X211662568Y-81973017D01*
X211681379Y-81987452D01*
X211693770Y-81998319D01*
X212156281Y-82460830D01*
X212190307Y-82523142D01*
X212192841Y-82546716D01*
X212192496Y-82550000D01*
X212193186Y-82556565D01*
X212196847Y-82591393D01*
X212212458Y-82739928D01*
X212271473Y-82921556D01*
X212366960Y-83086944D01*
X212371378Y-83091851D01*
X212371379Y-83091852D01*
X212453769Y-83183355D01*
X212494747Y-83228866D01*
X212649248Y-83341118D01*
X212655276Y-83343802D01*
X212655278Y-83343803D01*
X212756793Y-83389000D01*
X212823712Y-83418794D01*
X212917112Y-83438647D01*
X213004056Y-83457128D01*
X213004061Y-83457128D01*
X213010513Y-83458500D01*
X213201487Y-83458500D01*
X213207939Y-83457128D01*
X213207944Y-83457128D01*
X213294888Y-83438647D01*
X213388288Y-83418794D01*
X213455207Y-83389000D01*
X213556722Y-83343803D01*
X213556724Y-83343802D01*
X213562752Y-83341118D01*
X213717253Y-83228866D01*
X213758231Y-83183355D01*
X213840621Y-83091852D01*
X213840622Y-83091851D01*
X213845040Y-83086944D01*
X213940527Y-82921556D01*
X213999542Y-82739928D01*
X214015154Y-82591393D01*
X214018814Y-82556565D01*
X214019504Y-82550000D01*
X214013263Y-82490616D01*
X214000232Y-82366635D01*
X214000232Y-82366633D01*
X213999542Y-82360072D01*
X213940527Y-82178444D01*
X213931316Y-82162489D01*
X213848341Y-82018774D01*
X213845040Y-82013056D01*
X213798560Y-81961434D01*
X213721675Y-81876045D01*
X213721674Y-81876044D01*
X213717253Y-81871134D01*
X213585904Y-81775703D01*
X213568094Y-81762763D01*
X213568093Y-81762762D01*
X213562752Y-81758882D01*
X213556724Y-81756198D01*
X213556722Y-81756197D01*
X213394319Y-81683891D01*
X213394318Y-81683891D01*
X213388288Y-81681206D01*
X213278732Y-81657919D01*
X213207944Y-81642872D01*
X213207939Y-81642872D01*
X213201487Y-81641500D01*
X213110239Y-81641500D01*
X213042118Y-81621498D01*
X213021144Y-81604595D01*
X212735405Y-81318856D01*
X212701379Y-81256544D01*
X212698500Y-81229761D01*
X212698500Y-80994290D01*
X212718502Y-80926169D01*
X212730864Y-80909980D01*
X212824621Y-80805852D01*
X212824622Y-80805851D01*
X212829040Y-80800944D01*
X212924527Y-80635556D01*
X212983542Y-80453928D01*
X212993767Y-80356648D01*
X213002814Y-80270565D01*
X213003504Y-80264000D01*
X213000462Y-80235056D01*
X212984232Y-80080635D01*
X212984232Y-80080633D01*
X212983542Y-80074072D01*
X212924527Y-79892444D01*
X212829040Y-79727056D01*
X212748296Y-79637380D01*
X212705675Y-79590045D01*
X212705674Y-79590044D01*
X212701253Y-79585134D01*
X212599720Y-79511366D01*
X212552094Y-79476763D01*
X212552093Y-79476762D01*
X212546752Y-79472882D01*
X212540724Y-79470198D01*
X212540722Y-79470197D01*
X212378319Y-79397891D01*
X212378318Y-79397891D01*
X212372288Y-79395206D01*
X212259721Y-79371279D01*
X212191944Y-79356872D01*
X212191939Y-79356872D01*
X212185487Y-79355500D01*
X211994513Y-79355500D01*
X211988061Y-79356872D01*
X211988056Y-79356872D01*
X211920279Y-79371279D01*
X211807712Y-79395206D01*
X211801682Y-79397891D01*
X211801681Y-79397891D01*
X211639278Y-79470197D01*
X211639276Y-79470198D01*
X211633248Y-79472882D01*
X211627907Y-79476762D01*
X211627906Y-79476763D01*
X211580280Y-79511366D01*
X211478747Y-79585134D01*
X211474326Y-79590044D01*
X211474325Y-79590045D01*
X211431705Y-79637380D01*
X211350960Y-79727056D01*
X211255473Y-79892444D01*
X211196458Y-80074072D01*
X211195768Y-80080635D01*
X211195768Y-80080636D01*
X211195688Y-80081398D01*
X211195518Y-80081810D01*
X211194394Y-80087100D01*
X211193427Y-80086894D01*
X211168676Y-80147055D01*
X211110455Y-80187685D01*
X211039510Y-80190389D01*
X210976742Y-80152540D01*
X210972071Y-80147352D01*
X210923253Y-80093134D01*
X210768752Y-79980882D01*
X210762724Y-79978198D01*
X210762722Y-79978197D01*
X210600319Y-79905891D01*
X210600318Y-79905891D01*
X210594288Y-79903206D01*
X210500888Y-79883353D01*
X210413944Y-79864872D01*
X210413939Y-79864872D01*
X210407487Y-79863500D01*
X210216513Y-79863500D01*
X210210061Y-79864872D01*
X210210056Y-79864872D01*
X210123112Y-79883353D01*
X210029712Y-79903206D01*
X210023682Y-79905891D01*
X210023681Y-79905891D01*
X209861278Y-79978197D01*
X209861276Y-79978198D01*
X209855248Y-79980882D01*
X209700747Y-80093134D01*
X209696329Y-80098041D01*
X209696325Y-80098045D01*
X209626990Y-80175050D01*
X209572960Y-80235056D01*
X209560039Y-80257436D01*
X209505822Y-80351343D01*
X209477473Y-80400444D01*
X209418458Y-80582072D01*
X209398496Y-80772000D01*
X209399186Y-80778565D01*
X209416863Y-80946749D01*
X209418458Y-80961928D01*
X209477473Y-81143556D01*
X209572960Y-81308944D01*
X209646137Y-81390215D01*
X209676853Y-81454221D01*
X209678500Y-81474524D01*
X209678500Y-82101476D01*
X209658498Y-82169597D01*
X209646142Y-82185779D01*
X209613090Y-82222487D01*
X209552646Y-82259725D01*
X209481662Y-82258373D01*
X209468208Y-82253282D01*
X209330323Y-82191892D01*
X209330315Y-82191889D01*
X209324288Y-82189206D01*
X209230888Y-82169353D01*
X209143944Y-82150872D01*
X209143939Y-82150872D01*
X209137487Y-82149500D01*
X208946513Y-82149500D01*
X208940061Y-82150872D01*
X208940056Y-82150872D01*
X208853112Y-82169353D01*
X208759712Y-82189206D01*
X208753682Y-82191891D01*
X208753681Y-82191891D01*
X208591278Y-82264197D01*
X208591276Y-82264198D01*
X208585248Y-82266882D01*
X208579907Y-82270762D01*
X208579906Y-82270763D01*
X208545171Y-82296000D01*
X208430747Y-82379134D01*
X208426326Y-82384044D01*
X208426325Y-82384045D01*
X208328937Y-82492206D01*
X208302960Y-82521056D01*
X208207473Y-82686444D01*
X208148458Y-82868072D01*
X208147768Y-82874633D01*
X208147768Y-82874635D01*
X208129610Y-83047402D01*
X208128496Y-83058000D01*
X200902830Y-83058000D01*
X200932274Y-83036607D01*
X201017253Y-82974866D01*
X201021675Y-82969955D01*
X201140621Y-82837852D01*
X201140622Y-82837851D01*
X201145040Y-82832944D01*
X201240527Y-82667556D01*
X201299542Y-82485928D01*
X201300954Y-82472500D01*
X201318814Y-82302565D01*
X201319504Y-82296000D01*
X201314529Y-82248661D01*
X201300232Y-82112635D01*
X201300232Y-82112633D01*
X201299542Y-82106072D01*
X201240527Y-81924444D01*
X201233074Y-81911534D01*
X201175656Y-81812084D01*
X201145040Y-81759056D01*
X201137317Y-81750478D01*
X201021675Y-81622045D01*
X201021674Y-81622044D01*
X201017253Y-81617134D01*
X200899076Y-81531273D01*
X200868094Y-81508763D01*
X200868093Y-81508762D01*
X200862752Y-81504882D01*
X200859768Y-81503553D01*
X200811630Y-81453065D01*
X200798314Y-81408502D01*
X200792232Y-81350636D01*
X200792232Y-81350635D01*
X200791542Y-81344072D01*
X200749765Y-81215497D01*
X200747737Y-81144530D01*
X200775962Y-81092251D01*
X200886621Y-80969352D01*
X200886622Y-80969351D01*
X200891040Y-80964444D01*
X200986527Y-80799056D01*
X201045542Y-80617428D01*
X201065504Y-80427500D01*
X201062059Y-80394721D01*
X201046232Y-80244135D01*
X201046232Y-80244133D01*
X201045542Y-80237572D01*
X201003772Y-80109018D01*
X201001744Y-80038051D01*
X201038407Y-79977253D01*
X201102119Y-79945927D01*
X201172653Y-79954020D01*
X201212624Y-79980909D01*
X201314697Y-80082805D01*
X201320927Y-80086645D01*
X201320928Y-80086646D01*
X201427828Y-80152540D01*
X201465262Y-80175615D01*
X201545005Y-80202064D01*
X201626611Y-80229132D01*
X201626613Y-80229132D01*
X201633139Y-80231297D01*
X201639975Y-80231997D01*
X201639978Y-80231998D01*
X201683031Y-80236409D01*
X201737600Y-80242000D01*
X203138400Y-80242000D01*
X203141646Y-80241663D01*
X203141650Y-80241663D01*
X203237308Y-80231738D01*
X203237312Y-80231737D01*
X203244166Y-80231026D01*
X203250702Y-80228845D01*
X203250704Y-80228845D01*
X203304125Y-80211022D01*
X203375074Y-80208438D01*
X203436158Y-80244621D01*
X203467983Y-80308085D01*
X203470001Y-80330546D01*
X203470001Y-80946040D01*
X203469007Y-80961833D01*
X203466162Y-80984356D01*
X203465966Y-80998362D01*
X203469400Y-81033388D01*
X203470001Y-81045684D01*
X203470001Y-81296669D01*
X203470371Y-81303490D01*
X203475895Y-81354352D01*
X203479521Y-81369604D01*
X203524676Y-81490054D01*
X203533214Y-81505649D01*
X203609715Y-81607724D01*
X203622276Y-81620285D01*
X203724351Y-81696786D01*
X203739946Y-81705324D01*
X203860394Y-81750478D01*
X203875649Y-81754105D01*
X203926514Y-81759631D01*
X203933328Y-81760000D01*
X204168964Y-81760000D01*
X204185628Y-81761107D01*
X204205043Y-81763697D01*
X204219040Y-81763991D01*
X204257187Y-81760519D01*
X204268607Y-81760000D01*
X204705885Y-81760000D01*
X204721124Y-81755525D01*
X204722329Y-81754135D01*
X204724000Y-81746452D01*
X204724000Y-81741884D01*
X205232000Y-81741884D01*
X205236475Y-81757123D01*
X205237865Y-81758328D01*
X205245548Y-81759999D01*
X205668957Y-81759999D01*
X205685622Y-81761106D01*
X205705044Y-81763698D01*
X205719040Y-81763991D01*
X205757195Y-81760518D01*
X205768615Y-81759999D01*
X206022669Y-81759999D01*
X206029490Y-81759629D01*
X206080352Y-81754105D01*
X206095604Y-81750479D01*
X206216054Y-81705324D01*
X206231649Y-81696786D01*
X206333724Y-81620285D01*
X206346285Y-81607724D01*
X206422786Y-81505649D01*
X206431324Y-81490054D01*
X206476478Y-81369606D01*
X206480105Y-81354351D01*
X206485631Y-81303486D01*
X206486000Y-81296672D01*
X206486000Y-81064123D01*
X206487226Y-81046587D01*
X206489948Y-81027222D01*
X206490554Y-81019338D01*
X206490741Y-81005962D01*
X206490354Y-80998062D01*
X206486785Y-80966241D01*
X206486000Y-80952196D01*
X206486000Y-79774115D01*
X206481525Y-79758876D01*
X206480135Y-79757671D01*
X206472452Y-79756000D01*
X205845668Y-79756000D01*
X205820023Y-79763530D01*
X205429601Y-80153952D01*
X205367289Y-80187978D01*
X205296474Y-80182913D01*
X205251411Y-80153952D01*
X205244811Y-80147352D01*
X205234723Y-80141844D01*
X205232000Y-80149146D01*
X205232000Y-80351343D01*
X205235237Y-80362368D01*
X205242330Y-80359129D01*
X205251411Y-80350048D01*
X205313723Y-80316022D01*
X205384538Y-80321087D01*
X205429601Y-80350048D01*
X205992458Y-80912905D01*
X206026484Y-80975217D01*
X206021419Y-81046032D01*
X205992458Y-81091095D01*
X205429601Y-81653952D01*
X205367289Y-81687978D01*
X205296474Y-81682913D01*
X205251411Y-81653952D01*
X205244811Y-81647352D01*
X205234723Y-81641844D01*
X205232000Y-81649146D01*
X205232000Y-81741884D01*
X204724000Y-81741884D01*
X204724000Y-81652657D01*
X204720763Y-81641632D01*
X204713670Y-81644871D01*
X204704589Y-81653952D01*
X204642277Y-81687978D01*
X204571462Y-81682913D01*
X204526399Y-81653952D01*
X203963542Y-81091095D01*
X203929516Y-81028783D01*
X203931351Y-81003132D01*
X204586751Y-81003132D01*
X204586882Y-81004965D01*
X204591133Y-81011580D01*
X204711188Y-81131635D01*
X204721277Y-81137144D01*
X204724000Y-81129843D01*
X204724000Y-81126332D01*
X205232000Y-81126332D01*
X205235237Y-81137357D01*
X205242328Y-81134119D01*
X205361635Y-81014812D01*
X205369249Y-81000868D01*
X205369118Y-80999035D01*
X205364867Y-80992420D01*
X205244812Y-80872365D01*
X205234723Y-80866856D01*
X205232000Y-80874157D01*
X205232000Y-81126332D01*
X204724000Y-81126332D01*
X204724000Y-80877668D01*
X204720763Y-80866643D01*
X204713672Y-80869881D01*
X204594365Y-80989188D01*
X204586751Y-81003132D01*
X203931351Y-81003132D01*
X203934581Y-80957968D01*
X203963542Y-80912905D01*
X204526399Y-80350048D01*
X204588711Y-80316022D01*
X204659526Y-80321087D01*
X204704589Y-80350048D01*
X204711189Y-80356648D01*
X204721277Y-80362156D01*
X204724000Y-80354854D01*
X204724000Y-80152657D01*
X204720763Y-80141632D01*
X204713670Y-80144871D01*
X204704589Y-80153952D01*
X204642277Y-80187978D01*
X204571462Y-80182913D01*
X204526399Y-80153952D01*
X203963542Y-79591095D01*
X203929516Y-79528783D01*
X203931351Y-79503132D01*
X204586751Y-79503132D01*
X204586882Y-79504965D01*
X204591133Y-79511580D01*
X204711188Y-79631635D01*
X204721277Y-79637144D01*
X204724000Y-79629843D01*
X204724000Y-79377668D01*
X204720763Y-79366643D01*
X204713672Y-79369881D01*
X204594365Y-79489188D01*
X204586751Y-79503132D01*
X203931351Y-79503132D01*
X203934581Y-79457968D01*
X203963542Y-79412905D01*
X204526399Y-78850048D01*
X204588711Y-78816022D01*
X204659526Y-78821087D01*
X204704589Y-78850048D01*
X204711189Y-78856648D01*
X204721277Y-78862156D01*
X204724000Y-78854854D01*
X204724000Y-78851343D01*
X205232000Y-78851343D01*
X205235237Y-78862368D01*
X205242330Y-78859129D01*
X205251411Y-78850048D01*
X205313723Y-78816022D01*
X205384538Y-78821087D01*
X205429601Y-78850048D01*
X205814741Y-79235188D01*
X205838203Y-79248000D01*
X206467884Y-79248000D01*
X206483123Y-79243525D01*
X206484328Y-79242135D01*
X206485999Y-79234452D01*
X206485999Y-78064130D01*
X206487225Y-78046593D01*
X206489948Y-78027219D01*
X206490554Y-78019340D01*
X206490741Y-78005962D01*
X206490354Y-77998062D01*
X206486784Y-77966233D01*
X206485999Y-77952188D01*
X206485999Y-77707331D01*
X206485629Y-77700510D01*
X206480105Y-77649648D01*
X206476479Y-77634396D01*
X206431324Y-77513946D01*
X206422786Y-77498351D01*
X206346285Y-77396276D01*
X206333724Y-77383715D01*
X206231649Y-77307214D01*
X206216054Y-77298676D01*
X206095606Y-77253522D01*
X206080351Y-77249895D01*
X206029486Y-77244369D01*
X206022672Y-77244000D01*
X205780875Y-77244000D01*
X205765957Y-77243114D01*
X205740318Y-77240057D01*
X205726320Y-77239959D01*
X205694437Y-77243310D01*
X205681267Y-77244000D01*
X205250115Y-77244000D01*
X205234876Y-77248475D01*
X205233671Y-77249865D01*
X205232000Y-77257548D01*
X205232000Y-77351343D01*
X205235237Y-77362368D01*
X205242330Y-77359129D01*
X205251411Y-77350048D01*
X205313723Y-77316022D01*
X205384538Y-77321087D01*
X205429601Y-77350048D01*
X205992458Y-77912905D01*
X206026484Y-77975217D01*
X206021419Y-78046032D01*
X205992458Y-78091095D01*
X205429601Y-78653952D01*
X205367289Y-78687978D01*
X205296474Y-78682913D01*
X205251411Y-78653952D01*
X205244811Y-78647352D01*
X205234723Y-78641844D01*
X205232000Y-78649146D01*
X205232000Y-78851343D01*
X204724000Y-78851343D01*
X204724000Y-78652657D01*
X204720763Y-78641632D01*
X204713670Y-78644871D01*
X204704589Y-78653952D01*
X204642277Y-78687978D01*
X204571462Y-78682913D01*
X204526399Y-78653952D01*
X203963542Y-78091095D01*
X203929516Y-78028783D01*
X203931351Y-78003132D01*
X204586751Y-78003132D01*
X204586882Y-78004965D01*
X204591133Y-78011580D01*
X204711188Y-78131635D01*
X204721277Y-78137144D01*
X204724000Y-78129843D01*
X204724000Y-78126332D01*
X205232000Y-78126332D01*
X205235237Y-78137357D01*
X205242328Y-78134119D01*
X205361635Y-78014812D01*
X205369249Y-78000868D01*
X205369118Y-77999035D01*
X205364867Y-77992420D01*
X205244812Y-77872365D01*
X205234723Y-77866856D01*
X205232000Y-77874157D01*
X205232000Y-78126332D01*
X204724000Y-78126332D01*
X204724000Y-77877668D01*
X204720763Y-77866643D01*
X204713672Y-77869881D01*
X204594365Y-77989188D01*
X204586751Y-78003132D01*
X203931351Y-78003132D01*
X203934581Y-77957968D01*
X203963542Y-77912905D01*
X204526399Y-77350048D01*
X204588711Y-77316022D01*
X204659526Y-77321087D01*
X204704589Y-77350048D01*
X204711189Y-77356648D01*
X204721277Y-77362156D01*
X204724000Y-77354854D01*
X204724000Y-77262116D01*
X204719525Y-77246877D01*
X204718135Y-77245672D01*
X204710452Y-77244001D01*
X204280883Y-77244001D01*
X204265964Y-77243115D01*
X204240318Y-77240057D01*
X204226321Y-77239959D01*
X204194430Y-77243311D01*
X204181260Y-77244001D01*
X203933331Y-77244001D01*
X203926510Y-77244371D01*
X203875648Y-77249895D01*
X203860396Y-77253521D01*
X203739946Y-77298676D01*
X203724351Y-77307214D01*
X203622276Y-77383715D01*
X203609715Y-77396276D01*
X203533214Y-77498351D01*
X203524676Y-77513946D01*
X203479522Y-77634394D01*
X203475895Y-77649649D01*
X203470369Y-77700514D01*
X203470000Y-77707328D01*
X203470000Y-77811499D01*
X203449998Y-77879620D01*
X203396342Y-77926113D01*
X203326068Y-77936217D01*
X203304333Y-77931092D01*
X203249389Y-77912868D01*
X203249387Y-77912868D01*
X203242861Y-77910703D01*
X203236025Y-77910003D01*
X203236022Y-77910002D01*
X203192969Y-77905591D01*
X203138400Y-77900000D01*
X201737600Y-77900000D01*
X201734354Y-77900337D01*
X201734350Y-77900337D01*
X201638692Y-77910262D01*
X201638688Y-77910263D01*
X201631834Y-77910974D01*
X201625298Y-77913155D01*
X201625296Y-77913155D01*
X201508301Y-77952188D01*
X201464054Y-77966950D01*
X201313652Y-78060022D01*
X201308479Y-78065204D01*
X201215574Y-78158271D01*
X201153291Y-78192350D01*
X201082471Y-78187347D01*
X201075153Y-78184360D01*
X200948323Y-78127892D01*
X200948315Y-78127889D01*
X200942288Y-78125206D01*
X200848887Y-78105353D01*
X200761944Y-78086872D01*
X200761939Y-78086872D01*
X200755487Y-78085500D01*
X200564513Y-78085500D01*
X200558061Y-78086872D01*
X200558056Y-78086872D01*
X200471113Y-78105353D01*
X200377712Y-78125206D01*
X200371682Y-78127891D01*
X200371681Y-78127891D01*
X200209278Y-78200197D01*
X200209276Y-78200198D01*
X200203248Y-78202882D01*
X200197907Y-78206762D01*
X200197906Y-78206763D01*
X200163171Y-78232000D01*
X200048747Y-78315134D01*
X200044326Y-78320044D01*
X200044325Y-78320045D01*
X199946937Y-78428206D01*
X199920960Y-78457056D01*
X199917659Y-78462774D01*
X199833755Y-78608100D01*
X199825473Y-78622444D01*
X199766458Y-78804072D01*
X199765768Y-78810633D01*
X199765768Y-78810635D01*
X199747186Y-78987435D01*
X199746496Y-78994000D01*
X199747186Y-79000565D01*
X199761894Y-79140500D01*
X199766458Y-79183928D01*
X199825473Y-79365556D01*
X199828776Y-79371278D01*
X199828777Y-79371279D01*
X199853262Y-79413688D01*
X199870000Y-79482683D01*
X199846780Y-79549775D01*
X199795392Y-79591795D01*
X199701278Y-79633697D01*
X199701276Y-79633698D01*
X199695248Y-79636382D01*
X199540747Y-79748634D01*
X199536332Y-79753537D01*
X199531420Y-79757960D01*
X199530295Y-79756711D01*
X199476986Y-79789551D01*
X199443800Y-79794000D01*
X199285454Y-79794000D01*
X199217333Y-79773998D01*
X199178310Y-79734303D01*
X199118332Y-79637380D01*
X199114478Y-79631152D01*
X198989303Y-79506195D01*
X198951160Y-79482683D01*
X198844968Y-79417225D01*
X198844966Y-79417224D01*
X198838738Y-79413385D01*
X198707577Y-79369881D01*
X198677389Y-79359868D01*
X198677387Y-79359868D01*
X198670861Y-79357703D01*
X198664025Y-79357003D01*
X198664022Y-79357002D01*
X198620969Y-79352591D01*
X198566400Y-79347000D01*
X197165600Y-79347000D01*
X197162354Y-79347337D01*
X197162350Y-79347337D01*
X197066692Y-79357262D01*
X197066688Y-79357263D01*
X197059834Y-79357974D01*
X197053298Y-79360155D01*
X197053296Y-79360155D01*
X196921194Y-79404228D01*
X196892054Y-79413950D01*
X196741652Y-79507022D01*
X196616695Y-79632197D01*
X196612855Y-79638427D01*
X196612854Y-79638428D01*
X196538609Y-79758876D01*
X196523885Y-79782762D01*
X196515698Y-79807446D01*
X196488132Y-79890556D01*
X196468203Y-79950639D01*
X196467503Y-79957475D01*
X196467502Y-79957478D01*
X196464707Y-79984763D01*
X196457500Y-80055100D01*
X196457500Y-80980900D01*
X172262904Y-80980900D01*
X172315253Y-80942866D01*
X172368742Y-80883460D01*
X172438621Y-80805852D01*
X172438622Y-80805851D01*
X172443040Y-80800944D01*
X172538527Y-80635556D01*
X172597542Y-80453928D01*
X172607767Y-80356648D01*
X172616814Y-80270565D01*
X172617504Y-80264000D01*
X172607972Y-80173309D01*
X172620744Y-80103471D01*
X172669246Y-80051624D01*
X172738079Y-80034230D01*
X172784531Y-80045032D01*
X172928247Y-80109018D01*
X172945712Y-80116794D01*
X173039113Y-80136647D01*
X173126056Y-80155128D01*
X173126061Y-80155128D01*
X173132513Y-80156500D01*
X173323487Y-80156500D01*
X173329939Y-80155128D01*
X173329944Y-80155128D01*
X173416887Y-80136647D01*
X173510288Y-80116794D01*
X173516319Y-80114109D01*
X173678722Y-80041803D01*
X173678724Y-80041802D01*
X173684752Y-80039118D01*
X173839253Y-79926866D01*
X173875400Y-79886721D01*
X173962621Y-79789852D01*
X173962622Y-79789851D01*
X173967040Y-79784944D01*
X174052373Y-79637144D01*
X174059223Y-79625279D01*
X174059224Y-79625278D01*
X174062527Y-79619556D01*
X174121542Y-79437928D01*
X174126177Y-79393834D01*
X174140814Y-79254565D01*
X174140814Y-79254564D01*
X174141504Y-79248000D01*
X191110496Y-79248000D01*
X191111186Y-79254564D01*
X191111186Y-79254565D01*
X191125824Y-79393834D01*
X191130458Y-79437928D01*
X191189473Y-79619556D01*
X191192776Y-79625278D01*
X191192777Y-79625279D01*
X191199627Y-79637144D01*
X191284960Y-79784944D01*
X191289378Y-79789851D01*
X191289379Y-79789852D01*
X191376600Y-79886721D01*
X191412747Y-79926866D01*
X191567248Y-80039118D01*
X191573276Y-80041802D01*
X191573278Y-80041803D01*
X191735681Y-80114109D01*
X191741712Y-80116794D01*
X191835113Y-80136647D01*
X191922056Y-80155128D01*
X191922061Y-80155128D01*
X191928513Y-80156500D01*
X192119487Y-80156500D01*
X192125939Y-80155128D01*
X192125944Y-80155128D01*
X192212887Y-80136647D01*
X192306288Y-80116794D01*
X192312319Y-80114109D01*
X192474722Y-80041803D01*
X192474724Y-80041802D01*
X192480752Y-80039118D01*
X192635253Y-79926866D01*
X192671400Y-79886721D01*
X192758621Y-79789852D01*
X192758622Y-79789851D01*
X192763040Y-79784944D01*
X192848373Y-79637144D01*
X192855223Y-79625279D01*
X192855224Y-79625278D01*
X192858527Y-79619556D01*
X192917542Y-79437928D01*
X192922177Y-79393834D01*
X192936814Y-79254565D01*
X192936814Y-79254564D01*
X192937504Y-79248000D01*
X192930080Y-79177365D01*
X192918232Y-79064635D01*
X192918232Y-79064633D01*
X192917542Y-79058072D01*
X192858527Y-78876444D01*
X192763040Y-78711056D01*
X192742261Y-78687978D01*
X192639675Y-78574045D01*
X192639674Y-78574044D01*
X192635253Y-78569134D01*
X192480752Y-78456882D01*
X192474724Y-78454198D01*
X192474722Y-78454197D01*
X192312319Y-78381891D01*
X192312318Y-78381891D01*
X192306288Y-78379206D01*
X192212888Y-78359353D01*
X192125944Y-78340872D01*
X192125939Y-78340872D01*
X192119487Y-78339500D01*
X191928513Y-78339500D01*
X191922061Y-78340872D01*
X191922056Y-78340872D01*
X191835112Y-78359353D01*
X191741712Y-78379206D01*
X191735682Y-78381891D01*
X191735681Y-78381891D01*
X191573278Y-78454197D01*
X191573276Y-78454198D01*
X191567248Y-78456882D01*
X191412747Y-78569134D01*
X191408326Y-78574044D01*
X191408325Y-78574045D01*
X191305740Y-78687978D01*
X191284960Y-78711056D01*
X191189473Y-78876444D01*
X191130458Y-79058072D01*
X191129768Y-79064633D01*
X191129768Y-79064635D01*
X191117920Y-79177365D01*
X191110496Y-79248000D01*
X174141504Y-79248000D01*
X174134080Y-79177365D01*
X174122232Y-79064635D01*
X174122232Y-79064633D01*
X174121542Y-79058072D01*
X174062527Y-78876444D01*
X173967040Y-78711056D01*
X173946261Y-78687978D01*
X173843675Y-78574045D01*
X173843674Y-78574044D01*
X173839253Y-78569134D01*
X173684752Y-78456882D01*
X173678724Y-78454198D01*
X173678722Y-78454197D01*
X173516319Y-78381891D01*
X173516318Y-78381891D01*
X173510288Y-78379206D01*
X173416888Y-78359353D01*
X173329944Y-78340872D01*
X173329939Y-78340872D01*
X173323487Y-78339500D01*
X173132513Y-78339500D01*
X173126061Y-78340872D01*
X173126056Y-78340872D01*
X173039112Y-78359353D01*
X172945712Y-78379206D01*
X172939682Y-78381891D01*
X172939681Y-78381891D01*
X172777278Y-78454197D01*
X172777276Y-78454198D01*
X172771248Y-78456882D01*
X172616747Y-78569134D01*
X172612326Y-78574044D01*
X172612325Y-78574045D01*
X172509740Y-78687978D01*
X172488960Y-78711056D01*
X172393473Y-78876444D01*
X172334458Y-79058072D01*
X172333768Y-79064633D01*
X172333768Y-79064635D01*
X172321920Y-79177365D01*
X172314496Y-79248000D01*
X172315186Y-79254564D01*
X172324028Y-79338690D01*
X172311256Y-79408529D01*
X172262754Y-79460376D01*
X172193921Y-79477770D01*
X172147469Y-79466968D01*
X171992319Y-79397891D01*
X171992318Y-79397891D01*
X171986288Y-79395206D01*
X171873721Y-79371279D01*
X171805944Y-79356872D01*
X171805939Y-79356872D01*
X171799487Y-79355500D01*
X171608513Y-79355500D01*
X171602061Y-79356872D01*
X171602056Y-79356872D01*
X171534279Y-79371279D01*
X171421712Y-79395206D01*
X171415682Y-79397891D01*
X171415681Y-79397891D01*
X171253278Y-79470197D01*
X171253276Y-79470198D01*
X171247248Y-79472882D01*
X171241907Y-79476762D01*
X171241906Y-79476763D01*
X171194280Y-79511366D01*
X171092747Y-79585134D01*
X171088326Y-79590044D01*
X171088325Y-79590045D01*
X171045705Y-79637380D01*
X170964960Y-79727056D01*
X170869473Y-79892444D01*
X170810458Y-80074072D01*
X170809768Y-80080633D01*
X170809768Y-80080635D01*
X170793538Y-80235056D01*
X170790496Y-80264000D01*
X152908500Y-80264000D01*
X152908500Y-77470000D01*
X196190496Y-77470000D01*
X196191186Y-77476565D01*
X196209378Y-77649649D01*
X196210458Y-77659928D01*
X196269473Y-77841556D01*
X196364960Y-78006944D01*
X196369378Y-78011851D01*
X196369379Y-78011852D01*
X196416450Y-78064130D01*
X196492747Y-78148866D01*
X196563398Y-78200197D01*
X196616207Y-78238565D01*
X196647248Y-78261118D01*
X196653276Y-78263802D01*
X196653278Y-78263803D01*
X196815681Y-78336109D01*
X196821712Y-78338794D01*
X196915112Y-78358647D01*
X197002056Y-78377128D01*
X197002061Y-78377128D01*
X197008513Y-78378500D01*
X197199487Y-78378500D01*
X197205939Y-78377128D01*
X197205944Y-78377128D01*
X197292888Y-78358647D01*
X197386288Y-78338794D01*
X197392319Y-78336109D01*
X197554722Y-78263803D01*
X197554724Y-78263802D01*
X197560752Y-78261118D01*
X197591794Y-78238565D01*
X197644602Y-78200197D01*
X197715253Y-78148866D01*
X197791550Y-78064130D01*
X197838621Y-78011852D01*
X197838622Y-78011851D01*
X197843040Y-78006944D01*
X197938527Y-77841556D01*
X197997542Y-77659928D01*
X197998312Y-77652602D01*
X197998482Y-77652190D01*
X197999606Y-77646900D01*
X198000573Y-77647106D01*
X198025324Y-77586945D01*
X198083545Y-77546315D01*
X198154490Y-77543611D01*
X198217257Y-77581460D01*
X198270747Y-77640866D01*
X198425248Y-77753118D01*
X198431276Y-77755802D01*
X198431278Y-77755803D01*
X198593681Y-77828109D01*
X198599712Y-77830794D01*
X198693112Y-77850647D01*
X198780056Y-77869128D01*
X198780061Y-77869128D01*
X198786513Y-77870500D01*
X198977487Y-77870500D01*
X198983939Y-77869128D01*
X198983944Y-77869128D01*
X199070888Y-77850647D01*
X199164288Y-77830794D01*
X199170319Y-77828109D01*
X199332722Y-77755803D01*
X199332724Y-77755802D01*
X199338752Y-77753118D01*
X199493253Y-77640866D01*
X199499079Y-77634396D01*
X199616621Y-77503852D01*
X199616622Y-77503851D01*
X199621040Y-77498944D01*
X199700608Y-77361128D01*
X199713223Y-77339279D01*
X199713224Y-77339278D01*
X199716527Y-77333556D01*
X199775542Y-77151928D01*
X199777138Y-77136749D01*
X199794814Y-76968565D01*
X199795504Y-76962000D01*
X199787483Y-76885685D01*
X199776232Y-76778635D01*
X199776232Y-76778633D01*
X199775542Y-76772072D01*
X199716527Y-76590444D01*
X199710627Y-76580224D01*
X199637751Y-76454000D01*
X199621040Y-76425056D01*
X199603517Y-76405595D01*
X201030001Y-76405595D01*
X201030338Y-76412114D01*
X201040257Y-76507706D01*
X201043149Y-76521100D01*
X201094588Y-76675284D01*
X201100761Y-76688462D01*
X201186063Y-76826307D01*
X201195099Y-76837708D01*
X201309829Y-76952239D01*
X201321240Y-76961251D01*
X201459243Y-77046316D01*
X201472424Y-77052463D01*
X201626710Y-77103638D01*
X201640086Y-77106505D01*
X201734438Y-77116172D01*
X201740854Y-77116500D01*
X202165885Y-77116500D01*
X202181124Y-77112025D01*
X202182329Y-77110635D01*
X202184000Y-77102952D01*
X202184000Y-77098384D01*
X202692000Y-77098384D01*
X202696475Y-77113623D01*
X202697865Y-77114828D01*
X202705548Y-77116499D01*
X203135095Y-77116499D01*
X203141614Y-77116162D01*
X203237206Y-77106243D01*
X203250600Y-77103351D01*
X203404784Y-77051912D01*
X203417962Y-77045739D01*
X203555807Y-76960437D01*
X203567208Y-76951401D01*
X203681739Y-76836671D01*
X203690751Y-76825260D01*
X203763030Y-76708000D01*
X208636496Y-76708000D01*
X208637186Y-76714565D01*
X208651894Y-76854500D01*
X208656458Y-76897928D01*
X208715473Y-77079556D01*
X208718776Y-77085278D01*
X208718777Y-77085279D01*
X208767574Y-77169797D01*
X208810960Y-77244944D01*
X208815378Y-77249851D01*
X208815379Y-77249852D01*
X208915572Y-77361128D01*
X208938747Y-77386866D01*
X208963503Y-77404852D01*
X209062207Y-77476565D01*
X209093248Y-77499118D01*
X209099276Y-77501802D01*
X209099278Y-77501803D01*
X209207035Y-77549779D01*
X209267712Y-77576794D01*
X209361113Y-77596647D01*
X209448056Y-77615128D01*
X209448061Y-77615128D01*
X209454513Y-77616500D01*
X209645487Y-77616500D01*
X209645487Y-77616965D01*
X209711300Y-77629002D01*
X209763146Y-77677504D01*
X209780540Y-77746337D01*
X209763750Y-77804538D01*
X209731473Y-77860444D01*
X209672458Y-78042072D01*
X209671768Y-78048633D01*
X209671768Y-78048635D01*
X209660245Y-78158271D01*
X209652496Y-78232000D01*
X209653186Y-78238565D01*
X209667894Y-78378500D01*
X209672458Y-78421928D01*
X209731473Y-78603556D01*
X209734776Y-78609278D01*
X209734777Y-78609279D01*
X209760569Y-78653952D01*
X209826960Y-78768944D01*
X209831378Y-78773851D01*
X209831379Y-78773852D01*
X209935470Y-78889457D01*
X209954747Y-78910866D01*
X210053843Y-78982864D01*
X210078207Y-79000565D01*
X210109248Y-79023118D01*
X210115276Y-79025802D01*
X210115278Y-79025803D01*
X210251766Y-79086571D01*
X210283712Y-79100794D01*
X210377113Y-79120647D01*
X210464056Y-79139128D01*
X210464061Y-79139128D01*
X210470513Y-79140500D01*
X210661487Y-79140500D01*
X210667939Y-79139128D01*
X210667944Y-79139128D01*
X210754887Y-79120647D01*
X210848288Y-79100794D01*
X210880234Y-79086571D01*
X211016722Y-79025803D01*
X211016724Y-79025802D01*
X211022752Y-79023118D01*
X211053794Y-79000565D01*
X211078157Y-78982864D01*
X211177253Y-78910866D01*
X211196530Y-78889457D01*
X211300621Y-78773852D01*
X211300622Y-78773851D01*
X211305040Y-78768944D01*
X211371431Y-78653952D01*
X211397223Y-78609279D01*
X211397224Y-78609278D01*
X211400527Y-78603556D01*
X211459542Y-78421928D01*
X211464107Y-78378500D01*
X211478814Y-78238565D01*
X211479504Y-78232000D01*
X211471755Y-78158271D01*
X211460232Y-78048635D01*
X211460232Y-78048633D01*
X211459542Y-78042072D01*
X211400527Y-77860444D01*
X211305040Y-77695056D01*
X211231863Y-77613785D01*
X211201147Y-77549779D01*
X211199500Y-77529476D01*
X211199500Y-76442153D01*
X211219502Y-76374032D01*
X211273158Y-76327539D01*
X211299302Y-76318907D01*
X211305658Y-76317556D01*
X211356288Y-76306794D01*
X211452244Y-76264072D01*
X211524722Y-76231803D01*
X211524724Y-76231802D01*
X211530752Y-76229118D01*
X211568530Y-76201671D01*
X211617422Y-76166148D01*
X211685253Y-76116866D01*
X211764247Y-76029134D01*
X211808621Y-75979852D01*
X211808622Y-75979851D01*
X211813040Y-75974944D01*
X211908527Y-75809556D01*
X211967542Y-75627928D01*
X211968275Y-75620959D01*
X211969351Y-75610720D01*
X213603313Y-75610720D01*
X213623709Y-75869870D01*
X213624863Y-75874677D01*
X213624864Y-75874683D01*
X213634995Y-75916882D01*
X213684393Y-76122640D01*
X213686286Y-76127211D01*
X213686287Y-76127213D01*
X213779763Y-76352883D01*
X213783872Y-76362804D01*
X213919697Y-76584449D01*
X213922914Y-76588216D01*
X213922915Y-76588217D01*
X213997277Y-76675284D01*
X214088522Y-76782118D01*
X214092284Y-76785331D01*
X214212950Y-76888389D01*
X214286191Y-76950943D01*
X214507836Y-77086768D01*
X214512406Y-77088661D01*
X214512408Y-77088662D01*
X214695372Y-77164448D01*
X214748000Y-77186247D01*
X214794527Y-77197417D01*
X214995957Y-77245776D01*
X214995963Y-77245777D01*
X215000770Y-77246931D01*
X215259920Y-77267327D01*
X215519070Y-77246931D01*
X215523877Y-77245777D01*
X215523883Y-77245776D01*
X215725313Y-77197417D01*
X215771840Y-77186247D01*
X215824468Y-77164448D01*
X216007432Y-77088662D01*
X216007434Y-77088661D01*
X216012004Y-77086768D01*
X216085439Y-77041767D01*
X216153971Y-77023228D01*
X216221648Y-77044684D01*
X216266981Y-77099323D01*
X216275578Y-77169797D01*
X216267682Y-77197417D01*
X216199303Y-77362500D01*
X216183753Y-77400040D01*
X216182598Y-77404852D01*
X216124488Y-77646900D01*
X216123069Y-77652810D01*
X216102673Y-77911960D01*
X216123069Y-78171110D01*
X216124223Y-78175917D01*
X216124224Y-78175923D01*
X216131628Y-78206763D01*
X216183753Y-78423880D01*
X216185646Y-78428451D01*
X216185647Y-78428453D01*
X216273949Y-78641632D01*
X216283232Y-78664044D01*
X216419057Y-78885689D01*
X216422274Y-78889456D01*
X216422275Y-78889457D01*
X216505956Y-78987435D01*
X216587882Y-79083358D01*
X216591644Y-79086571D01*
X216764791Y-79234452D01*
X216785551Y-79252183D01*
X217007196Y-79388008D01*
X217011766Y-79389901D01*
X217011768Y-79389902D01*
X217223901Y-79477770D01*
X217247360Y-79487487D01*
X217312527Y-79503132D01*
X217495317Y-79547016D01*
X217495323Y-79547017D01*
X217500130Y-79548171D01*
X217759280Y-79568567D01*
X218018430Y-79548171D01*
X218023237Y-79547017D01*
X218023243Y-79547016D01*
X218206033Y-79503132D01*
X218271200Y-79487487D01*
X218294659Y-79477770D01*
X218506792Y-79389902D01*
X218506794Y-79389901D01*
X218511364Y-79388008D01*
X218733009Y-79252183D01*
X218753770Y-79234452D01*
X218926916Y-79086571D01*
X218930678Y-79083358D01*
X219012604Y-78987435D01*
X219096285Y-78889457D01*
X219096286Y-78889456D01*
X219099503Y-78885689D01*
X219235328Y-78664044D01*
X219244612Y-78641632D01*
X219332913Y-78428453D01*
X219332914Y-78428451D01*
X219334807Y-78423880D01*
X219386932Y-78206763D01*
X219394336Y-78175923D01*
X219394337Y-78175917D01*
X219395491Y-78171110D01*
X219415887Y-77911960D01*
X219395491Y-77652810D01*
X219394073Y-77646900D01*
X219335962Y-77404852D01*
X219334807Y-77400040D01*
X219327316Y-77381955D01*
X219237222Y-77164448D01*
X219237221Y-77164446D01*
X219235328Y-77159876D01*
X219099503Y-76938231D01*
X218973871Y-76791134D01*
X218933891Y-76744324D01*
X218930678Y-76740562D01*
X218767513Y-76601206D01*
X218736777Y-76574955D01*
X218736776Y-76574954D01*
X218733009Y-76571737D01*
X218511364Y-76435912D01*
X218506794Y-76434019D01*
X218506792Y-76434018D01*
X218275773Y-76338327D01*
X218275771Y-76338326D01*
X218271200Y-76336433D01*
X218184737Y-76315675D01*
X218023243Y-76276904D01*
X218023237Y-76276903D01*
X218018430Y-76275749D01*
X217759280Y-76255353D01*
X217500130Y-76275749D01*
X217495323Y-76276903D01*
X217495317Y-76276904D01*
X217333823Y-76315675D01*
X217247360Y-76336433D01*
X217242789Y-76338326D01*
X217242787Y-76338327D01*
X217011768Y-76434018D01*
X217011766Y-76434019D01*
X217007196Y-76435912D01*
X216933761Y-76480913D01*
X216865229Y-76499452D01*
X216797552Y-76477996D01*
X216752219Y-76423357D01*
X216743622Y-76352883D01*
X216751518Y-76325263D01*
X216833553Y-76127213D01*
X216833554Y-76127211D01*
X216835447Y-76122640D01*
X216884845Y-75916882D01*
X216894976Y-75874683D01*
X216894977Y-75874677D01*
X216896131Y-75869870D01*
X216916527Y-75610720D01*
X225802933Y-75610720D01*
X225823329Y-75869870D01*
X225824483Y-75874677D01*
X225824484Y-75874683D01*
X225834615Y-75916882D01*
X225884013Y-76122640D01*
X225885906Y-76127211D01*
X225885907Y-76127213D01*
X225979383Y-76352883D01*
X225983492Y-76362804D01*
X226119317Y-76584449D01*
X226122534Y-76588216D01*
X226122535Y-76588217D01*
X226196897Y-76675284D01*
X226288142Y-76782118D01*
X226291904Y-76785331D01*
X226412570Y-76888389D01*
X226485811Y-76950943D01*
X226707456Y-77086768D01*
X226712026Y-77088661D01*
X226712028Y-77088662D01*
X226894992Y-77164448D01*
X226947620Y-77186247D01*
X226994147Y-77197417D01*
X227195577Y-77245776D01*
X227195583Y-77245777D01*
X227200390Y-77246931D01*
X227459540Y-77267327D01*
X227718690Y-77246931D01*
X227723497Y-77245777D01*
X227723503Y-77245776D01*
X227924933Y-77197417D01*
X227971460Y-77186247D01*
X228024088Y-77164448D01*
X228207052Y-77088662D01*
X228207054Y-77088661D01*
X228211624Y-77086768D01*
X228433269Y-76950943D01*
X228506511Y-76888389D01*
X228627176Y-76785331D01*
X228630938Y-76782118D01*
X228722183Y-76675284D01*
X228796545Y-76588217D01*
X228796546Y-76588216D01*
X228799763Y-76584449D01*
X228935588Y-76362804D01*
X228939698Y-76352883D01*
X229033173Y-76127213D01*
X229033174Y-76127211D01*
X229035067Y-76122640D01*
X229084465Y-75916882D01*
X229094596Y-75874683D01*
X229094597Y-75874677D01*
X229095751Y-75869870D01*
X229116147Y-75610720D01*
X229095751Y-75351570D01*
X229069397Y-75241794D01*
X229036222Y-75103612D01*
X229035067Y-75098800D01*
X229027235Y-75079891D01*
X228937482Y-74863208D01*
X228937481Y-74863206D01*
X228935588Y-74858636D01*
X228799763Y-74636991D01*
X228744163Y-74571891D01*
X228634151Y-74443084D01*
X228630938Y-74439322D01*
X228433269Y-74270497D01*
X228211624Y-74134672D01*
X228207054Y-74132779D01*
X228207052Y-74132778D01*
X227976033Y-74037087D01*
X227976031Y-74037086D01*
X227971460Y-74035193D01*
X227884997Y-74014435D01*
X227723503Y-73975664D01*
X227723497Y-73975663D01*
X227718690Y-73974509D01*
X227459540Y-73954113D01*
X227200390Y-73974509D01*
X227195583Y-73975663D01*
X227195577Y-73975664D01*
X227034083Y-74014435D01*
X226947620Y-74035193D01*
X226943049Y-74037086D01*
X226943047Y-74037087D01*
X226712028Y-74132778D01*
X226712026Y-74132779D01*
X226707456Y-74134672D01*
X226485811Y-74270497D01*
X226288142Y-74439322D01*
X226284929Y-74443084D01*
X226174918Y-74571891D01*
X226119317Y-74636991D01*
X225983492Y-74858636D01*
X225981599Y-74863206D01*
X225981598Y-74863208D01*
X225891845Y-75079891D01*
X225884013Y-75098800D01*
X225882858Y-75103612D01*
X225849684Y-75241794D01*
X225823329Y-75351570D01*
X225802933Y-75610720D01*
X216916527Y-75610720D01*
X216896131Y-75351570D01*
X216869777Y-75241794D01*
X216836602Y-75103612D01*
X216835447Y-75098800D01*
X216827615Y-75079891D01*
X216737862Y-74863208D01*
X216737861Y-74863206D01*
X216735968Y-74858636D01*
X216600143Y-74636991D01*
X216544543Y-74571891D01*
X216434531Y-74443084D01*
X216431318Y-74439322D01*
X216233649Y-74270497D01*
X216012004Y-74134672D01*
X216007434Y-74132779D01*
X216007432Y-74132778D01*
X215776413Y-74037087D01*
X215776411Y-74037086D01*
X215771840Y-74035193D01*
X215685377Y-74014435D01*
X215523883Y-73975664D01*
X215523877Y-73975663D01*
X215519070Y-73974509D01*
X215259920Y-73954113D01*
X215000770Y-73974509D01*
X214995963Y-73975663D01*
X214995957Y-73975664D01*
X214834463Y-74014435D01*
X214748000Y-74035193D01*
X214743429Y-74037086D01*
X214743427Y-74037087D01*
X214512408Y-74132778D01*
X214512406Y-74132779D01*
X214507836Y-74134672D01*
X214286191Y-74270497D01*
X214088522Y-74439322D01*
X214085309Y-74443084D01*
X213975298Y-74571891D01*
X213919697Y-74636991D01*
X213783872Y-74858636D01*
X213781979Y-74863206D01*
X213781978Y-74863208D01*
X213692225Y-75079891D01*
X213684393Y-75098800D01*
X213683238Y-75103612D01*
X213650064Y-75241794D01*
X213623709Y-75351570D01*
X213603313Y-75610720D01*
X211969351Y-75610720D01*
X211986814Y-75444565D01*
X211987504Y-75438000D01*
X211970062Y-75272045D01*
X211968232Y-75254635D01*
X211968232Y-75254633D01*
X211967542Y-75248072D01*
X211908527Y-75066444D01*
X211813040Y-74901056D01*
X211763703Y-74846261D01*
X211689675Y-74764045D01*
X211689674Y-74764044D01*
X211685253Y-74759134D01*
X211530752Y-74646882D01*
X211524724Y-74644198D01*
X211524722Y-74644197D01*
X211362319Y-74571891D01*
X211362318Y-74571891D01*
X211356288Y-74569206D01*
X211262887Y-74549353D01*
X211175944Y-74530872D01*
X211175939Y-74530872D01*
X211169487Y-74529500D01*
X210978513Y-74529500D01*
X210972061Y-74530872D01*
X210972056Y-74530872D01*
X210885113Y-74549353D01*
X210791712Y-74569206D01*
X210785682Y-74571891D01*
X210785681Y-74571891D01*
X210623278Y-74644197D01*
X210623276Y-74644198D01*
X210617248Y-74646882D01*
X210462747Y-74759134D01*
X210458326Y-74764044D01*
X210458325Y-74764045D01*
X210384298Y-74846261D01*
X210334960Y-74901056D01*
X210239473Y-75066444D01*
X210180458Y-75248072D01*
X210179768Y-75254633D01*
X210179768Y-75254635D01*
X210177938Y-75272045D01*
X210163539Y-75409056D01*
X210163226Y-75412030D01*
X210136213Y-75477687D01*
X210129773Y-75485105D01*
X210114385Y-75501491D01*
X210112355Y-75503653D01*
X210109602Y-75506493D01*
X210089865Y-75526230D01*
X210087385Y-75529427D01*
X210079682Y-75538447D01*
X210049414Y-75570679D01*
X210045595Y-75577625D01*
X210045593Y-75577628D01*
X210039652Y-75588434D01*
X210028801Y-75604953D01*
X210016386Y-75620959D01*
X210013241Y-75628228D01*
X210013238Y-75628232D01*
X209998826Y-75661537D01*
X209993609Y-75672187D01*
X209972305Y-75710940D01*
X209970334Y-75718615D01*
X209970334Y-75718616D01*
X209967267Y-75730562D01*
X209960864Y-75749264D01*
X209955350Y-75762007D01*
X209909941Y-75816582D01*
X209842234Y-75837944D01*
X209813518Y-75835216D01*
X209729648Y-75817389D01*
X209651944Y-75800872D01*
X209651939Y-75800872D01*
X209645487Y-75799500D01*
X209454513Y-75799500D01*
X209448061Y-75800872D01*
X209448056Y-75800872D01*
X209380279Y-75815279D01*
X209267712Y-75839206D01*
X209261682Y-75841891D01*
X209261681Y-75841891D01*
X209099278Y-75914197D01*
X209099276Y-75914198D01*
X209093248Y-75916882D01*
X209087907Y-75920762D01*
X209087906Y-75920763D01*
X209053171Y-75946000D01*
X208938747Y-76029134D01*
X208934326Y-76034044D01*
X208934325Y-76034045D01*
X208836937Y-76142206D01*
X208810960Y-76171056D01*
X208779679Y-76225237D01*
X208749849Y-76276904D01*
X208715473Y-76336444D01*
X208656458Y-76518072D01*
X208655768Y-76524633D01*
X208655768Y-76524635D01*
X208637186Y-76701435D01*
X208636496Y-76708000D01*
X203763030Y-76708000D01*
X203775816Y-76687257D01*
X203781963Y-76674076D01*
X203833138Y-76519790D01*
X203836005Y-76506414D01*
X203845672Y-76412062D01*
X203846000Y-76405646D01*
X203846000Y-76218115D01*
X203841525Y-76202876D01*
X203840135Y-76201671D01*
X203832452Y-76200000D01*
X202710115Y-76200000D01*
X202694876Y-76204475D01*
X202693671Y-76205865D01*
X202692000Y-76213548D01*
X202692000Y-77098384D01*
X202184000Y-77098384D01*
X202184000Y-76218115D01*
X202179525Y-76202876D01*
X202178135Y-76201671D01*
X202170452Y-76200000D01*
X201048116Y-76200000D01*
X201032877Y-76204475D01*
X201031672Y-76205865D01*
X201030001Y-76213548D01*
X201030001Y-76405595D01*
X199603517Y-76405595D01*
X199560872Y-76358232D01*
X199497675Y-76288045D01*
X199497674Y-76288044D01*
X199493253Y-76283134D01*
X199338752Y-76170882D01*
X199332724Y-76168198D01*
X199332722Y-76168197D01*
X199170319Y-76095891D01*
X199170318Y-76095891D01*
X199164288Y-76093206D01*
X199070887Y-76073353D01*
X198983944Y-76054872D01*
X198983939Y-76054872D01*
X198977487Y-76053500D01*
X198786513Y-76053500D01*
X198780061Y-76054872D01*
X198780056Y-76054872D01*
X198693113Y-76073353D01*
X198599712Y-76093206D01*
X198593682Y-76095891D01*
X198593681Y-76095891D01*
X198431278Y-76168197D01*
X198431276Y-76168198D01*
X198425248Y-76170882D01*
X198270747Y-76283134D01*
X198266326Y-76288044D01*
X198266325Y-76288045D01*
X198203129Y-76358232D01*
X198142960Y-76425056D01*
X198126249Y-76454000D01*
X198053374Y-76580224D01*
X198047473Y-76590444D01*
X197988458Y-76772072D01*
X197987768Y-76778635D01*
X197987768Y-76778636D01*
X197987688Y-76779398D01*
X197987518Y-76779810D01*
X197986394Y-76785100D01*
X197985427Y-76784894D01*
X197960676Y-76845055D01*
X197902455Y-76885685D01*
X197831510Y-76888389D01*
X197768742Y-76850540D01*
X197715253Y-76791134D01*
X197600829Y-76708000D01*
X197566094Y-76682763D01*
X197566093Y-76682762D01*
X197560752Y-76678882D01*
X197554724Y-76676198D01*
X197554722Y-76676197D01*
X197392319Y-76603891D01*
X197392318Y-76603891D01*
X197386288Y-76601206D01*
X197287576Y-76580224D01*
X197205944Y-76562872D01*
X197205939Y-76562872D01*
X197199487Y-76561500D01*
X197008513Y-76561500D01*
X197002061Y-76562872D01*
X197002056Y-76562872D01*
X196920424Y-76580224D01*
X196821712Y-76601206D01*
X196815682Y-76603891D01*
X196815681Y-76603891D01*
X196653278Y-76676197D01*
X196653276Y-76676198D01*
X196647248Y-76678882D01*
X196641907Y-76682762D01*
X196641906Y-76682763D01*
X196607171Y-76708000D01*
X196492747Y-76791134D01*
X196488329Y-76796041D01*
X196488325Y-76796045D01*
X196390937Y-76904206D01*
X196364960Y-76933056D01*
X196349152Y-76960437D01*
X196275121Y-77088662D01*
X196269473Y-77098444D01*
X196210458Y-77280072D01*
X196209768Y-77286633D01*
X196209768Y-77286635D01*
X196198330Y-77395467D01*
X196190496Y-77470000D01*
X152908500Y-77470000D01*
X152908500Y-75946000D01*
X171298496Y-75946000D01*
X171299186Y-75952565D01*
X171316863Y-76120749D01*
X171318458Y-76135928D01*
X171377473Y-76317556D01*
X171380776Y-76323278D01*
X171380777Y-76323279D01*
X171403597Y-76362804D01*
X171472960Y-76482944D01*
X171477378Y-76487851D01*
X171477379Y-76487852D01*
X171575412Y-76596729D01*
X171600747Y-76624866D01*
X171688279Y-76688462D01*
X171724207Y-76714565D01*
X171755248Y-76737118D01*
X171761276Y-76739802D01*
X171761278Y-76739803D01*
X171923681Y-76812109D01*
X171929712Y-76814794D01*
X172023112Y-76834647D01*
X172110056Y-76853128D01*
X172110061Y-76853128D01*
X172116513Y-76854500D01*
X172307487Y-76854500D01*
X172313939Y-76853128D01*
X172313944Y-76853128D01*
X172400888Y-76834647D01*
X172494288Y-76814794D01*
X172500319Y-76812109D01*
X172662722Y-76739803D01*
X172662724Y-76739802D01*
X172668752Y-76737118D01*
X172699794Y-76714565D01*
X172735721Y-76688462D01*
X172823253Y-76624866D01*
X172848588Y-76596729D01*
X172946621Y-76487852D01*
X172946622Y-76487851D01*
X172951040Y-76482944D01*
X172967751Y-76454000D01*
X185014496Y-76454000D01*
X185015186Y-76460565D01*
X185032863Y-76628749D01*
X185034458Y-76643928D01*
X185093473Y-76825556D01*
X185096776Y-76831278D01*
X185096777Y-76831279D01*
X185109392Y-76853128D01*
X185188960Y-76990944D01*
X185193378Y-76995851D01*
X185193379Y-76995852D01*
X185301707Y-77116162D01*
X185316747Y-77132866D01*
X185471248Y-77245118D01*
X185477276Y-77247802D01*
X185477278Y-77247803D01*
X185639681Y-77320109D01*
X185645712Y-77322794D01*
X185739112Y-77342647D01*
X185826056Y-77361128D01*
X185826061Y-77361128D01*
X185832513Y-77362500D01*
X186023487Y-77362500D01*
X186029939Y-77361128D01*
X186029944Y-77361128D01*
X186116888Y-77342647D01*
X186210288Y-77322794D01*
X186216319Y-77320109D01*
X186378722Y-77247803D01*
X186378724Y-77247802D01*
X186384752Y-77245118D01*
X186539253Y-77132866D01*
X186554293Y-77116162D01*
X186662621Y-76995852D01*
X186662622Y-76995851D01*
X186667040Y-76990944D01*
X186746608Y-76853128D01*
X186759223Y-76831279D01*
X186759224Y-76831278D01*
X186762527Y-76825556D01*
X186821542Y-76643928D01*
X186821682Y-76642599D01*
X186854482Y-76581844D01*
X186916632Y-76547523D01*
X186987471Y-76552252D01*
X187044508Y-76594528D01*
X187066276Y-76642192D01*
X187066458Y-76643928D01*
X187125473Y-76825556D01*
X187128776Y-76831278D01*
X187128777Y-76831279D01*
X187141392Y-76853128D01*
X187220960Y-76990944D01*
X187225378Y-76995851D01*
X187225379Y-76995852D01*
X187333707Y-77116162D01*
X187348747Y-77132866D01*
X187503248Y-77245118D01*
X187509276Y-77247802D01*
X187509278Y-77247803D01*
X187671681Y-77320109D01*
X187677712Y-77322794D01*
X187771112Y-77342647D01*
X187858056Y-77361128D01*
X187858061Y-77361128D01*
X187864513Y-77362500D01*
X188055487Y-77362500D01*
X188061939Y-77361128D01*
X188061944Y-77361128D01*
X188148888Y-77342647D01*
X188242288Y-77322794D01*
X188248319Y-77320109D01*
X188410722Y-77247803D01*
X188410724Y-77247802D01*
X188416752Y-77245118D01*
X188571253Y-77132866D01*
X188586293Y-77116162D01*
X188694621Y-76995852D01*
X188694622Y-76995851D01*
X188699040Y-76990944D01*
X188778608Y-76853128D01*
X188791223Y-76831279D01*
X188791224Y-76831278D01*
X188794527Y-76825556D01*
X188853542Y-76643928D01*
X188855138Y-76628749D01*
X188872814Y-76460565D01*
X188873504Y-76454000D01*
X188868422Y-76405646D01*
X188854232Y-76270635D01*
X188854232Y-76270633D01*
X188853542Y-76264072D01*
X188794527Y-76082444D01*
X188699040Y-75917056D01*
X188571253Y-75775134D01*
X188456829Y-75692000D01*
X188431896Y-75673885D01*
X201030000Y-75673885D01*
X201034475Y-75689124D01*
X201035865Y-75690329D01*
X201043548Y-75692000D01*
X202165885Y-75692000D01*
X202181124Y-75687525D01*
X202182329Y-75686135D01*
X202184000Y-75678452D01*
X202184000Y-75673885D01*
X202692000Y-75673885D01*
X202696475Y-75689124D01*
X202697865Y-75690329D01*
X202705548Y-75692000D01*
X203827884Y-75692000D01*
X203843123Y-75687525D01*
X203844328Y-75686135D01*
X203845999Y-75678452D01*
X203845999Y-75486405D01*
X203845662Y-75479886D01*
X203835743Y-75384294D01*
X203832851Y-75370900D01*
X203781412Y-75216716D01*
X203775239Y-75203538D01*
X203689937Y-75065693D01*
X203680901Y-75054292D01*
X203566171Y-74939761D01*
X203554760Y-74930749D01*
X203416757Y-74845684D01*
X203403576Y-74839537D01*
X203249290Y-74788362D01*
X203235914Y-74785495D01*
X203141562Y-74775828D01*
X203135145Y-74775500D01*
X202710115Y-74775500D01*
X202694876Y-74779975D01*
X202693671Y-74781365D01*
X202692000Y-74789048D01*
X202692000Y-75673885D01*
X202184000Y-75673885D01*
X202184000Y-74793616D01*
X202179525Y-74778377D01*
X202178135Y-74777172D01*
X202170452Y-74775501D01*
X201740905Y-74775501D01*
X201734386Y-74775838D01*
X201638794Y-74785757D01*
X201625400Y-74788649D01*
X201471216Y-74840088D01*
X201458038Y-74846261D01*
X201320193Y-74931563D01*
X201308792Y-74940599D01*
X201194261Y-75055329D01*
X201185249Y-75066740D01*
X201100184Y-75204743D01*
X201094037Y-75217924D01*
X201042862Y-75372210D01*
X201039995Y-75385586D01*
X201030328Y-75479938D01*
X201030000Y-75486355D01*
X201030000Y-75673885D01*
X188431896Y-75673885D01*
X188422094Y-75666763D01*
X188422093Y-75666762D01*
X188416752Y-75662882D01*
X188410724Y-75660198D01*
X188410722Y-75660197D01*
X188248319Y-75587891D01*
X188248318Y-75587891D01*
X188242288Y-75585206D01*
X188146756Y-75564900D01*
X188061944Y-75546872D01*
X188061939Y-75546872D01*
X188055487Y-75545500D01*
X187864513Y-75545500D01*
X187858061Y-75546872D01*
X187858056Y-75546872D01*
X187773244Y-75564900D01*
X187677712Y-75585206D01*
X187671682Y-75587891D01*
X187671681Y-75587891D01*
X187509278Y-75660197D01*
X187509276Y-75660198D01*
X187503248Y-75662882D01*
X187497907Y-75666762D01*
X187497906Y-75666763D01*
X187463171Y-75692000D01*
X187348747Y-75775134D01*
X187220960Y-75917056D01*
X187125473Y-76082444D01*
X187066458Y-76264072D01*
X187066318Y-76265401D01*
X187033518Y-76326156D01*
X186971368Y-76360477D01*
X186900529Y-76355748D01*
X186843492Y-76313472D01*
X186821724Y-76265808D01*
X186821542Y-76264072D01*
X186762527Y-76082444D01*
X186667040Y-75917056D01*
X186539253Y-75775134D01*
X186424829Y-75692000D01*
X186390094Y-75666763D01*
X186390093Y-75666762D01*
X186384752Y-75662882D01*
X186378724Y-75660198D01*
X186378722Y-75660197D01*
X186216319Y-75587891D01*
X186216318Y-75587891D01*
X186210288Y-75585206D01*
X186114756Y-75564900D01*
X186029944Y-75546872D01*
X186029939Y-75546872D01*
X186023487Y-75545500D01*
X185832513Y-75545500D01*
X185826061Y-75546872D01*
X185826056Y-75546872D01*
X185741244Y-75564900D01*
X185645712Y-75585206D01*
X185639682Y-75587891D01*
X185639681Y-75587891D01*
X185477278Y-75660197D01*
X185477276Y-75660198D01*
X185471248Y-75662882D01*
X185465907Y-75666762D01*
X185465906Y-75666763D01*
X185431171Y-75692000D01*
X185316747Y-75775134D01*
X185188960Y-75917056D01*
X185093473Y-76082444D01*
X185034458Y-76264072D01*
X185033768Y-76270633D01*
X185033768Y-76270635D01*
X185019578Y-76405646D01*
X185014496Y-76454000D01*
X172967751Y-76454000D01*
X173020403Y-76362804D01*
X173043223Y-76323279D01*
X173043224Y-76323278D01*
X173046527Y-76317556D01*
X173105542Y-76135928D01*
X173107138Y-76120749D01*
X173124814Y-75952565D01*
X173125504Y-75946000D01*
X173114147Y-75837944D01*
X173106232Y-75762635D01*
X173106232Y-75762633D01*
X173105542Y-75756072D01*
X173046527Y-75574444D01*
X172951040Y-75409056D01*
X172899280Y-75351570D01*
X172827675Y-75272045D01*
X172827674Y-75272044D01*
X172823253Y-75267134D01*
X172668752Y-75154882D01*
X172662724Y-75152198D01*
X172662722Y-75152197D01*
X172500319Y-75079891D01*
X172500318Y-75079891D01*
X172494288Y-75077206D01*
X172400887Y-75057353D01*
X172313944Y-75038872D01*
X172313939Y-75038872D01*
X172307487Y-75037500D01*
X172116513Y-75037500D01*
X172110061Y-75038872D01*
X172110056Y-75038872D01*
X172023113Y-75057353D01*
X171929712Y-75077206D01*
X171923682Y-75079891D01*
X171923681Y-75079891D01*
X171761278Y-75152197D01*
X171761276Y-75152198D01*
X171755248Y-75154882D01*
X171600747Y-75267134D01*
X171596326Y-75272044D01*
X171596325Y-75272045D01*
X171524721Y-75351570D01*
X171472960Y-75409056D01*
X171377473Y-75574444D01*
X171318458Y-75756072D01*
X171317768Y-75762633D01*
X171317768Y-75762635D01*
X171309853Y-75837944D01*
X171298496Y-75946000D01*
X152908500Y-75946000D01*
X152908500Y-71949237D01*
X216787397Y-71949237D01*
X216791719Y-71955416D01*
X217003204Y-72085014D01*
X217011998Y-72089495D01*
X217242942Y-72185155D01*
X217252327Y-72188204D01*
X217495395Y-72246561D01*
X217505142Y-72248104D01*
X217754350Y-72267717D01*
X217764210Y-72267717D01*
X218013418Y-72248104D01*
X218023165Y-72246561D01*
X218266233Y-72188204D01*
X218275618Y-72185155D01*
X218506562Y-72089495D01*
X218515356Y-72085014D01*
X218725408Y-71956294D01*
X218731236Y-71947365D01*
X218725232Y-71937163D01*
X217772091Y-70984021D01*
X217758148Y-70976408D01*
X217756314Y-70976539D01*
X217749700Y-70980790D01*
X216794786Y-71935705D01*
X216787397Y-71949237D01*
X152908500Y-71949237D01*
X152908500Y-70616930D01*
X216103563Y-70616930D01*
X216123176Y-70866138D01*
X216124719Y-70875885D01*
X216183076Y-71118953D01*
X216186125Y-71128338D01*
X216281785Y-71359282D01*
X216286266Y-71368076D01*
X216414986Y-71578128D01*
X216423915Y-71583956D01*
X216434117Y-71577952D01*
X217387259Y-70624811D01*
X217393636Y-70613132D01*
X218123688Y-70613132D01*
X218123819Y-70614966D01*
X218128070Y-70621580D01*
X219082985Y-71576494D01*
X219096517Y-71583883D01*
X219102696Y-71579561D01*
X219232294Y-71368076D01*
X219236775Y-71359282D01*
X219332435Y-71128338D01*
X219335484Y-71118953D01*
X219393841Y-70875885D01*
X219395384Y-70866138D01*
X219414997Y-70616930D01*
X219414997Y-70607070D01*
X219395384Y-70357862D01*
X219393841Y-70348115D01*
X219335484Y-70105047D01*
X219332435Y-70095662D01*
X219236775Y-69864718D01*
X219232294Y-69855924D01*
X219103574Y-69645872D01*
X219094645Y-69640044D01*
X219084443Y-69646048D01*
X218131301Y-70599189D01*
X218123688Y-70613132D01*
X217393636Y-70613132D01*
X217394872Y-70610868D01*
X217394741Y-70609034D01*
X217390490Y-70602420D01*
X216435575Y-69647506D01*
X216422043Y-69640117D01*
X216415864Y-69644439D01*
X216286266Y-69855924D01*
X216281785Y-69864718D01*
X216186125Y-70095662D01*
X216183076Y-70105047D01*
X216124719Y-70348115D01*
X216123176Y-70357862D01*
X216103563Y-70607070D01*
X216103563Y-70616930D01*
X152908500Y-70616930D01*
X152908500Y-68834000D01*
X162916496Y-68834000D01*
X162917186Y-68840565D01*
X162926940Y-68933365D01*
X162936458Y-69023928D01*
X162995473Y-69205556D01*
X163090960Y-69370944D01*
X163218747Y-69512866D01*
X163373248Y-69625118D01*
X163379276Y-69627802D01*
X163379278Y-69627803D01*
X163541681Y-69700109D01*
X163547712Y-69702794D01*
X163641113Y-69722647D01*
X163728056Y-69741128D01*
X163728061Y-69741128D01*
X163734513Y-69742500D01*
X163925487Y-69742500D01*
X163931939Y-69741128D01*
X163931944Y-69741128D01*
X164018887Y-69722647D01*
X164112288Y-69702794D01*
X164118319Y-69700109D01*
X164280722Y-69627803D01*
X164280724Y-69627802D01*
X164286752Y-69625118D01*
X164441253Y-69512866D01*
X164569040Y-69370944D01*
X164664527Y-69205556D01*
X164723542Y-69023928D01*
X164733061Y-68933365D01*
X164742814Y-68840565D01*
X164743504Y-68834000D01*
X164734675Y-68750000D01*
X171128496Y-68750000D01*
X171148458Y-68939928D01*
X171207473Y-69121556D01*
X171302960Y-69286944D01*
X171430747Y-69428866D01*
X171585248Y-69541118D01*
X171591276Y-69543802D01*
X171591278Y-69543803D01*
X171753681Y-69616109D01*
X171759712Y-69618794D01*
X171853113Y-69638647D01*
X171940056Y-69657128D01*
X171940061Y-69657128D01*
X171946513Y-69658500D01*
X172137487Y-69658500D01*
X172143939Y-69657128D01*
X172143944Y-69657128D01*
X172230887Y-69638647D01*
X172324288Y-69618794D01*
X172330319Y-69616109D01*
X172492722Y-69543803D01*
X172492724Y-69543802D01*
X172498752Y-69541118D01*
X172653253Y-69428866D01*
X172781040Y-69286944D01*
X172786992Y-69276635D01*
X216787324Y-69276635D01*
X216793328Y-69286837D01*
X217746469Y-70239979D01*
X217760412Y-70247592D01*
X217762246Y-70247461D01*
X217768860Y-70243210D01*
X218723774Y-69288295D01*
X218731163Y-69274763D01*
X218726841Y-69268584D01*
X218515356Y-69138986D01*
X218506562Y-69134505D01*
X218275618Y-69038845D01*
X218266233Y-69035796D01*
X218023165Y-68977439D01*
X218013418Y-68975896D01*
X217764210Y-68956283D01*
X217754350Y-68956283D01*
X217505142Y-68975896D01*
X217495395Y-68977439D01*
X217252327Y-69035796D01*
X217242942Y-69038845D01*
X217011998Y-69134505D01*
X217003204Y-69138986D01*
X216793152Y-69267706D01*
X216787324Y-69276635D01*
X172786992Y-69276635D01*
X172876527Y-69121556D01*
X172935542Y-68939928D01*
X172955504Y-68750000D01*
X172954814Y-68743435D01*
X172936232Y-68566635D01*
X172936232Y-68566633D01*
X172935542Y-68560072D01*
X172876527Y-68378444D01*
X172781040Y-68213056D01*
X172653253Y-68071134D01*
X172498752Y-67958882D01*
X172492724Y-67956198D01*
X172492722Y-67956197D01*
X172330319Y-67883891D01*
X172330318Y-67883891D01*
X172324288Y-67881206D01*
X172230887Y-67861353D01*
X172143944Y-67842872D01*
X172143939Y-67842872D01*
X172137487Y-67841500D01*
X171946513Y-67841500D01*
X171940061Y-67842872D01*
X171940056Y-67842872D01*
X171853113Y-67861353D01*
X171759712Y-67881206D01*
X171753682Y-67883891D01*
X171753681Y-67883891D01*
X171591278Y-67956197D01*
X171591276Y-67956198D01*
X171585248Y-67958882D01*
X171430747Y-68071134D01*
X171302960Y-68213056D01*
X171207473Y-68378444D01*
X171148458Y-68560072D01*
X171147768Y-68566633D01*
X171147768Y-68566635D01*
X171129186Y-68743435D01*
X171128496Y-68750000D01*
X164734675Y-68750000D01*
X164723542Y-68644072D01*
X164664527Y-68462444D01*
X164569040Y-68297056D01*
X164441253Y-68155134D01*
X164286752Y-68042882D01*
X164280724Y-68040198D01*
X164280722Y-68040197D01*
X164118319Y-67967891D01*
X164118318Y-67967891D01*
X164112288Y-67965206D01*
X164018888Y-67945353D01*
X163931944Y-67926872D01*
X163931939Y-67926872D01*
X163925487Y-67925500D01*
X163734513Y-67925500D01*
X163728061Y-67926872D01*
X163728056Y-67926872D01*
X163641112Y-67945353D01*
X163547712Y-67965206D01*
X163541682Y-67967891D01*
X163541681Y-67967891D01*
X163379278Y-68040197D01*
X163379276Y-68040198D01*
X163373248Y-68042882D01*
X163218747Y-68155134D01*
X163090960Y-68297056D01*
X162995473Y-68462444D01*
X162936458Y-68644072D01*
X162916496Y-68834000D01*
X152908500Y-68834000D01*
X152908500Y-65613280D01*
X213603313Y-65613280D01*
X213623709Y-65872430D01*
X213684393Y-66125200D01*
X213783872Y-66365364D01*
X213919697Y-66587009D01*
X214088522Y-66784678D01*
X214286191Y-66953503D01*
X214507836Y-67089328D01*
X214512406Y-67091221D01*
X214512408Y-67091222D01*
X214743427Y-67186913D01*
X214748000Y-67188807D01*
X214834463Y-67209565D01*
X214995957Y-67248336D01*
X214995963Y-67248337D01*
X215000770Y-67249491D01*
X215259920Y-67269887D01*
X215519070Y-67249491D01*
X215523877Y-67248337D01*
X215523883Y-67248336D01*
X215685377Y-67209565D01*
X215771840Y-67188807D01*
X215776413Y-67186913D01*
X216007432Y-67091222D01*
X216007434Y-67091221D01*
X216012004Y-67089328D01*
X216233649Y-66953503D01*
X216431318Y-66784678D01*
X216600143Y-66587009D01*
X216735968Y-66365364D01*
X216835447Y-66125200D01*
X216896131Y-65872430D01*
X216916527Y-65613280D01*
X225802933Y-65613280D01*
X225823329Y-65872430D01*
X225884013Y-66125200D01*
X225983492Y-66365364D01*
X226119317Y-66587009D01*
X226288142Y-66784678D01*
X226485811Y-66953503D01*
X226707456Y-67089328D01*
X226712026Y-67091221D01*
X226712028Y-67091222D01*
X226943047Y-67186913D01*
X226947620Y-67188807D01*
X227034083Y-67209565D01*
X227195577Y-67248336D01*
X227195583Y-67248337D01*
X227200390Y-67249491D01*
X227459540Y-67269887D01*
X227718690Y-67249491D01*
X227723497Y-67248337D01*
X227723503Y-67248336D01*
X227884997Y-67209565D01*
X227971460Y-67188807D01*
X227976033Y-67186913D01*
X228207052Y-67091222D01*
X228207054Y-67091221D01*
X228211624Y-67089328D01*
X228433269Y-66953503D01*
X228630938Y-66784678D01*
X228799763Y-66587009D01*
X228935588Y-66365364D01*
X229035067Y-66125200D01*
X229095751Y-65872430D01*
X229116147Y-65613280D01*
X229095751Y-65354130D01*
X229035067Y-65101360D01*
X228971808Y-64948639D01*
X228937482Y-64865768D01*
X228937481Y-64865766D01*
X228935588Y-64861196D01*
X228799763Y-64639551D01*
X228709975Y-64534422D01*
X228634151Y-64445644D01*
X228630938Y-64441882D01*
X228512489Y-64340717D01*
X228437037Y-64276275D01*
X228437036Y-64276274D01*
X228433269Y-64273057D01*
X228211624Y-64137232D01*
X228207054Y-64135339D01*
X228207052Y-64135338D01*
X227976033Y-64039647D01*
X227976031Y-64039646D01*
X227971460Y-64037753D01*
X227884997Y-64016995D01*
X227723503Y-63978224D01*
X227723497Y-63978223D01*
X227718690Y-63977069D01*
X227459540Y-63956673D01*
X227200390Y-63977069D01*
X227195583Y-63978223D01*
X227195577Y-63978224D01*
X227034083Y-64016995D01*
X226947620Y-64037753D01*
X226943049Y-64039646D01*
X226943047Y-64039647D01*
X226712028Y-64135338D01*
X226712026Y-64135339D01*
X226707456Y-64137232D01*
X226485811Y-64273057D01*
X226482044Y-64276274D01*
X226482043Y-64276275D01*
X226406591Y-64340717D01*
X226288142Y-64441882D01*
X226284929Y-64445644D01*
X226209106Y-64534422D01*
X226119317Y-64639551D01*
X225983492Y-64861196D01*
X225981599Y-64865766D01*
X225981598Y-64865768D01*
X225947272Y-64948639D01*
X225884013Y-65101360D01*
X225823329Y-65354130D01*
X225802933Y-65613280D01*
X216916527Y-65613280D01*
X216896131Y-65354130D01*
X216835447Y-65101360D01*
X216751518Y-64898737D01*
X216743929Y-64828147D01*
X216775708Y-64764660D01*
X216836766Y-64728433D01*
X216907718Y-64730967D01*
X216933760Y-64743086D01*
X217007196Y-64788088D01*
X217011766Y-64789981D01*
X217011768Y-64789982D01*
X217194732Y-64865768D01*
X217247360Y-64887567D01*
X217293887Y-64898737D01*
X217495317Y-64947096D01*
X217495323Y-64947097D01*
X217500130Y-64948251D01*
X217759280Y-64968647D01*
X218018430Y-64948251D01*
X218023237Y-64947097D01*
X218023243Y-64947096D01*
X218224673Y-64898737D01*
X218271200Y-64887567D01*
X218323828Y-64865768D01*
X218506792Y-64789982D01*
X218506794Y-64789981D01*
X218511364Y-64788088D01*
X218733009Y-64652263D01*
X218748624Y-64638927D01*
X218926916Y-64486651D01*
X218930678Y-64483438D01*
X219013197Y-64386820D01*
X219096285Y-64289537D01*
X219096286Y-64289536D01*
X219099503Y-64285769D01*
X219235328Y-64064124D01*
X219271388Y-63977069D01*
X219332913Y-63828533D01*
X219332914Y-63828531D01*
X219334807Y-63823960D01*
X219364151Y-63701732D01*
X219394336Y-63576003D01*
X219394337Y-63575997D01*
X219395491Y-63571190D01*
X219415887Y-63312040D01*
X219395491Y-63052890D01*
X219384325Y-63006377D01*
X219335962Y-62804932D01*
X219334807Y-62800120D01*
X219321387Y-62767720D01*
X219237222Y-62564528D01*
X219237221Y-62564526D01*
X219235328Y-62559956D01*
X219099503Y-62338311D01*
X219048035Y-62278049D01*
X218933891Y-62144404D01*
X218930678Y-62140642D01*
X218741019Y-61978658D01*
X218736777Y-61975035D01*
X218736776Y-61975034D01*
X218733009Y-61971817D01*
X218511364Y-61835992D01*
X218506794Y-61834099D01*
X218506792Y-61834098D01*
X218275773Y-61738407D01*
X218275771Y-61738406D01*
X218271200Y-61736513D01*
X218182924Y-61715320D01*
X218023243Y-61676984D01*
X218023237Y-61676983D01*
X218018430Y-61675829D01*
X217759280Y-61655433D01*
X217500130Y-61675829D01*
X217495323Y-61676983D01*
X217495317Y-61676984D01*
X217335636Y-61715320D01*
X217247360Y-61736513D01*
X217242789Y-61738406D01*
X217242787Y-61738407D01*
X217011768Y-61834098D01*
X217011766Y-61834099D01*
X217007196Y-61835992D01*
X216785551Y-61971817D01*
X216781784Y-61975034D01*
X216781783Y-61975035D01*
X216777541Y-61978658D01*
X216587882Y-62140642D01*
X216584669Y-62144404D01*
X216470526Y-62278049D01*
X216419057Y-62338311D01*
X216283232Y-62559956D01*
X216281339Y-62564526D01*
X216281338Y-62564528D01*
X216197173Y-62767720D01*
X216183753Y-62800120D01*
X216182598Y-62804932D01*
X216134236Y-63006377D01*
X216123069Y-63052890D01*
X216102673Y-63312040D01*
X216123069Y-63571190D01*
X216124223Y-63575997D01*
X216124224Y-63576003D01*
X216154409Y-63701732D01*
X216183753Y-63823960D01*
X216185646Y-63828531D01*
X216185647Y-63828533D01*
X216267682Y-64026583D01*
X216275271Y-64097173D01*
X216243492Y-64160660D01*
X216182434Y-64196887D01*
X216111482Y-64194353D01*
X216085440Y-64182234D01*
X216012004Y-64137232D01*
X216007434Y-64135339D01*
X216007432Y-64135338D01*
X215776413Y-64039647D01*
X215776411Y-64039646D01*
X215771840Y-64037753D01*
X215685377Y-64016995D01*
X215523883Y-63978224D01*
X215523877Y-63978223D01*
X215519070Y-63977069D01*
X215259920Y-63956673D01*
X215000770Y-63977069D01*
X214995963Y-63978223D01*
X214995957Y-63978224D01*
X214834463Y-64016995D01*
X214748000Y-64037753D01*
X214743429Y-64039646D01*
X214743427Y-64039647D01*
X214512408Y-64135338D01*
X214512406Y-64135339D01*
X214507836Y-64137232D01*
X214286191Y-64273057D01*
X214282424Y-64276274D01*
X214282423Y-64276275D01*
X214206971Y-64340717D01*
X214088522Y-64441882D01*
X214085309Y-64445644D01*
X214009486Y-64534422D01*
X213919697Y-64639551D01*
X213783872Y-64861196D01*
X213781979Y-64865766D01*
X213781978Y-64865768D01*
X213747652Y-64948639D01*
X213684393Y-65101360D01*
X213623709Y-65354130D01*
X213603313Y-65613280D01*
X152908500Y-65613280D01*
X152908500Y-64090134D01*
X157191500Y-64090134D01*
X157198255Y-64152316D01*
X157249385Y-64288705D01*
X157336739Y-64405261D01*
X157453295Y-64492615D01*
X157589684Y-64543745D01*
X157651866Y-64550500D01*
X159848134Y-64550500D01*
X159910316Y-64543745D01*
X160046705Y-64492615D01*
X160163261Y-64405261D01*
X160236430Y-64307633D01*
X160293288Y-64265118D01*
X160364107Y-64260092D01*
X160403090Y-64275766D01*
X160576272Y-64381893D01*
X160585067Y-64386375D01*
X160802490Y-64476434D01*
X160811875Y-64479483D01*
X161040708Y-64534422D01*
X161050455Y-64535965D01*
X161285070Y-64554430D01*
X161294930Y-64554430D01*
X161529545Y-64535965D01*
X161539292Y-64534422D01*
X161768125Y-64479483D01*
X161777510Y-64476434D01*
X161994933Y-64386375D01*
X162003728Y-64381893D01*
X162184805Y-64270928D01*
X162194267Y-64260470D01*
X162190484Y-64251694D01*
X161019885Y-63081095D01*
X160985859Y-63018783D01*
X160987694Y-62993132D01*
X161654408Y-62993132D01*
X161654539Y-62994965D01*
X161658790Y-63001580D01*
X162552395Y-63895185D01*
X162563810Y-63908549D01*
X162565248Y-63910896D01*
X162724567Y-64097433D01*
X162728323Y-64100641D01*
X162905182Y-64251694D01*
X162911104Y-64256752D01*
X162915327Y-64259340D01*
X162915330Y-64259342D01*
X162974973Y-64295891D01*
X163120268Y-64384927D01*
X163189768Y-64413715D01*
X163342335Y-64476911D01*
X163342337Y-64476912D01*
X163346908Y-64478805D01*
X163381997Y-64487229D01*
X163580630Y-64534917D01*
X163580636Y-64534918D01*
X163585443Y-64536072D01*
X163830000Y-64555319D01*
X164074557Y-64536072D01*
X164079364Y-64534918D01*
X164079370Y-64534917D01*
X164278003Y-64487229D01*
X164313092Y-64478805D01*
X164317663Y-64476912D01*
X164317665Y-64476911D01*
X164470232Y-64413715D01*
X164539732Y-64384927D01*
X164685027Y-64295891D01*
X164744670Y-64259342D01*
X164744673Y-64259340D01*
X164748896Y-64256752D01*
X164754819Y-64251694D01*
X164931677Y-64100641D01*
X164935433Y-64097433D01*
X164941667Y-64090134D01*
X170483500Y-64090134D01*
X170490255Y-64152316D01*
X170541385Y-64288705D01*
X170628739Y-64405261D01*
X170745295Y-64492615D01*
X170881684Y-64543745D01*
X170943866Y-64550500D01*
X173140134Y-64550500D01*
X173202316Y-64543745D01*
X173338705Y-64492615D01*
X173455261Y-64405261D01*
X173528430Y-64307633D01*
X173585288Y-64265118D01*
X173656107Y-64260092D01*
X173695090Y-64275766D01*
X173868272Y-64381893D01*
X173877067Y-64386375D01*
X174094490Y-64476434D01*
X174103875Y-64479483D01*
X174332708Y-64534422D01*
X174342455Y-64535965D01*
X174577070Y-64554430D01*
X174586930Y-64554430D01*
X174821545Y-64535965D01*
X174831292Y-64534422D01*
X175060125Y-64479483D01*
X175069510Y-64476434D01*
X175286933Y-64386375D01*
X175295728Y-64381893D01*
X175357345Y-64344134D01*
X182083500Y-64344134D01*
X182090255Y-64406316D01*
X182141385Y-64542705D01*
X182228739Y-64659261D01*
X182345295Y-64746615D01*
X182481684Y-64797745D01*
X182543866Y-64804500D01*
X184740134Y-64804500D01*
X184802316Y-64797745D01*
X184938705Y-64746615D01*
X185055261Y-64659261D01*
X185128430Y-64561633D01*
X185185288Y-64519118D01*
X185256107Y-64514092D01*
X185295090Y-64529766D01*
X185468272Y-64635893D01*
X185477067Y-64640375D01*
X185694490Y-64730434D01*
X185703875Y-64733483D01*
X185932708Y-64788422D01*
X185942455Y-64789965D01*
X186177070Y-64808430D01*
X186186930Y-64808430D01*
X186421545Y-64789965D01*
X186431292Y-64788422D01*
X186660125Y-64733483D01*
X186669510Y-64730434D01*
X186886933Y-64640375D01*
X186895728Y-64635893D01*
X187076805Y-64524928D01*
X187086267Y-64514470D01*
X187082484Y-64505694D01*
X185911885Y-63335095D01*
X185877859Y-63272783D01*
X185879694Y-63247132D01*
X186546408Y-63247132D01*
X186546539Y-63248965D01*
X186550790Y-63255580D01*
X187444395Y-64149185D01*
X187455810Y-64162549D01*
X187457248Y-64164896D01*
X187616567Y-64351433D01*
X187620323Y-64354641D01*
X187797182Y-64505694D01*
X187803104Y-64510752D01*
X187807327Y-64513340D01*
X187807330Y-64513342D01*
X187808554Y-64514092D01*
X188012268Y-64638927D01*
X188156967Y-64698864D01*
X188234335Y-64730911D01*
X188234337Y-64730912D01*
X188238908Y-64732805D01*
X188273997Y-64741229D01*
X188472630Y-64788917D01*
X188472636Y-64788918D01*
X188477443Y-64790072D01*
X188722000Y-64809319D01*
X188966557Y-64790072D01*
X188971364Y-64788918D01*
X188971370Y-64788917D01*
X189170003Y-64741229D01*
X189205092Y-64732805D01*
X189209663Y-64730912D01*
X189209665Y-64730911D01*
X189287033Y-64698864D01*
X189431732Y-64638927D01*
X189635446Y-64514092D01*
X189636670Y-64513342D01*
X189636673Y-64513340D01*
X189640896Y-64510752D01*
X189646819Y-64505694D01*
X189823677Y-64354641D01*
X189827433Y-64351433D01*
X189883516Y-64285769D01*
X189983535Y-64168663D01*
X189983537Y-64168660D01*
X189986752Y-64164896D01*
X190002119Y-64139820D01*
X190064665Y-64037753D01*
X190114927Y-63955732D01*
X190208805Y-63729092D01*
X190228649Y-63646437D01*
X190264917Y-63495370D01*
X190264918Y-63495364D01*
X190266072Y-63490557D01*
X190285319Y-63246000D01*
X190266072Y-63001443D01*
X190262622Y-62987070D01*
X190209960Y-62767720D01*
X190208805Y-62762908D01*
X190114927Y-62536268D01*
X189986752Y-62327104D01*
X189827433Y-62140567D01*
X189744034Y-62069337D01*
X189644663Y-61984465D01*
X189644660Y-61984463D01*
X189640896Y-61981248D01*
X189636673Y-61978660D01*
X189636670Y-61978658D01*
X189557865Y-61930367D01*
X189431732Y-61853073D01*
X189287033Y-61793136D01*
X189209665Y-61761089D01*
X189209663Y-61761088D01*
X189205092Y-61759195D01*
X189122437Y-61739351D01*
X188971370Y-61703083D01*
X188971364Y-61703082D01*
X188966557Y-61701928D01*
X188722000Y-61682681D01*
X188477443Y-61701928D01*
X188472636Y-61703082D01*
X188472630Y-61703083D01*
X188321563Y-61739351D01*
X188238908Y-61759195D01*
X188234337Y-61761088D01*
X188234335Y-61761089D01*
X188156967Y-61793136D01*
X188012268Y-61853073D01*
X187886135Y-61930367D01*
X187807330Y-61978658D01*
X187807327Y-61978660D01*
X187803104Y-61981248D01*
X187799340Y-61984463D01*
X187799337Y-61984465D01*
X187699966Y-62069337D01*
X187616567Y-62140567D01*
X187457248Y-62327104D01*
X187455810Y-62329451D01*
X187444395Y-62342815D01*
X186554022Y-63233188D01*
X186546408Y-63247132D01*
X185879694Y-63247132D01*
X185882924Y-63201968D01*
X185911885Y-63156905D01*
X187079440Y-61989350D01*
X187086200Y-61976970D01*
X187080473Y-61969320D01*
X186895728Y-61856107D01*
X186886933Y-61851625D01*
X186669510Y-61761566D01*
X186660125Y-61758517D01*
X186431292Y-61703578D01*
X186421545Y-61702035D01*
X186186930Y-61683570D01*
X186177070Y-61683570D01*
X185942455Y-61702035D01*
X185932708Y-61703578D01*
X185703875Y-61758517D01*
X185694490Y-61761566D01*
X185477067Y-61851625D01*
X185468272Y-61856107D01*
X185295090Y-61962234D01*
X185226557Y-61980773D01*
X185158880Y-61959317D01*
X185128429Y-61930367D01*
X185093199Y-61883359D01*
X185055261Y-61832739D01*
X184938705Y-61745385D01*
X184802316Y-61694255D01*
X184740134Y-61687500D01*
X182543866Y-61687500D01*
X182481684Y-61694255D01*
X182345295Y-61745385D01*
X182228739Y-61832739D01*
X182141385Y-61949295D01*
X182090255Y-62085684D01*
X182083500Y-62147866D01*
X182083500Y-64344134D01*
X175357345Y-64344134D01*
X175476805Y-64270928D01*
X175486267Y-64260470D01*
X175482484Y-64251694D01*
X174311885Y-63081095D01*
X174277859Y-63018783D01*
X174279694Y-62993132D01*
X174946408Y-62993132D01*
X174946539Y-62994965D01*
X174950790Y-63001580D01*
X175838650Y-63889440D01*
X175851030Y-63896200D01*
X175858680Y-63890473D01*
X175971893Y-63705728D01*
X175976375Y-63696933D01*
X176066434Y-63479510D01*
X176069483Y-63470125D01*
X176124422Y-63241292D01*
X176125965Y-63231545D01*
X176144430Y-62996930D01*
X176144430Y-62987070D01*
X176125965Y-62752455D01*
X176124422Y-62742708D01*
X176069483Y-62513875D01*
X176066434Y-62504490D01*
X175976375Y-62287067D01*
X175971893Y-62278272D01*
X175860928Y-62097195D01*
X175850470Y-62087733D01*
X175841694Y-62091516D01*
X174954022Y-62979188D01*
X174946408Y-62993132D01*
X174279694Y-62993132D01*
X174282924Y-62947968D01*
X174311885Y-62902905D01*
X175479440Y-61735350D01*
X175486200Y-61722970D01*
X175480473Y-61715320D01*
X175295728Y-61602107D01*
X175286933Y-61597625D01*
X175069510Y-61507566D01*
X175060125Y-61504517D01*
X174831292Y-61449578D01*
X174821545Y-61448035D01*
X174586930Y-61429570D01*
X174577070Y-61429570D01*
X174342455Y-61448035D01*
X174332708Y-61449578D01*
X174103875Y-61504517D01*
X174094490Y-61507566D01*
X173877067Y-61597625D01*
X173868272Y-61602107D01*
X173695090Y-61708234D01*
X173626557Y-61726773D01*
X173558880Y-61705317D01*
X173528429Y-61676367D01*
X173472439Y-61601659D01*
X173455261Y-61578739D01*
X173338705Y-61491385D01*
X173202316Y-61440255D01*
X173140134Y-61433500D01*
X170943866Y-61433500D01*
X170881684Y-61440255D01*
X170745295Y-61491385D01*
X170628739Y-61578739D01*
X170541385Y-61695295D01*
X170490255Y-61831684D01*
X170483500Y-61893866D01*
X170483500Y-64090134D01*
X164941667Y-64090134D01*
X164986405Y-64037753D01*
X165091535Y-63914663D01*
X165091537Y-63914660D01*
X165094752Y-63910896D01*
X165222927Y-63701732D01*
X165316805Y-63475092D01*
X165369505Y-63255580D01*
X165372917Y-63241370D01*
X165372918Y-63241364D01*
X165374072Y-63236557D01*
X165393319Y-62992000D01*
X165374072Y-62747443D01*
X165316805Y-62508908D01*
X165222927Y-62282268D01*
X165094752Y-62073104D01*
X165010993Y-61975035D01*
X164938641Y-61890323D01*
X164935433Y-61886567D01*
X164894522Y-61851625D01*
X164752663Y-61730465D01*
X164752660Y-61730463D01*
X164748896Y-61727248D01*
X164744673Y-61724660D01*
X164744670Y-61724658D01*
X164632337Y-61655821D01*
X164539732Y-61599073D01*
X164395033Y-61539136D01*
X164317665Y-61507089D01*
X164317663Y-61507088D01*
X164313092Y-61505195D01*
X164230437Y-61485351D01*
X164079370Y-61449083D01*
X164079364Y-61449082D01*
X164074557Y-61447928D01*
X163830000Y-61428681D01*
X163585443Y-61447928D01*
X163580636Y-61449082D01*
X163580630Y-61449083D01*
X163429563Y-61485351D01*
X163346908Y-61505195D01*
X163342337Y-61507088D01*
X163342335Y-61507089D01*
X163264967Y-61539136D01*
X163120268Y-61599073D01*
X163027663Y-61655821D01*
X162915330Y-61724658D01*
X162915327Y-61724660D01*
X162911104Y-61727248D01*
X162907340Y-61730463D01*
X162907337Y-61730465D01*
X162765478Y-61851625D01*
X162724567Y-61886567D01*
X162565248Y-62073104D01*
X162563810Y-62075451D01*
X162552395Y-62088815D01*
X161662022Y-62979188D01*
X161654408Y-62993132D01*
X160987694Y-62993132D01*
X160990924Y-62947968D01*
X161019885Y-62902905D01*
X162187440Y-61735350D01*
X162194200Y-61722970D01*
X162188473Y-61715320D01*
X162003728Y-61602107D01*
X161994933Y-61597625D01*
X161777510Y-61507566D01*
X161768125Y-61504517D01*
X161539292Y-61449578D01*
X161529545Y-61448035D01*
X161294930Y-61429570D01*
X161285070Y-61429570D01*
X161050455Y-61448035D01*
X161040708Y-61449578D01*
X160811875Y-61504517D01*
X160802490Y-61507566D01*
X160585067Y-61597625D01*
X160576272Y-61602107D01*
X160403090Y-61708234D01*
X160334557Y-61726773D01*
X160266880Y-61705317D01*
X160236429Y-61676367D01*
X160180439Y-61601659D01*
X160163261Y-61578739D01*
X160046705Y-61491385D01*
X159910316Y-61440255D01*
X159848134Y-61433500D01*
X157651866Y-61433500D01*
X157589684Y-61440255D01*
X157453295Y-61491385D01*
X157336739Y-61578739D01*
X157249385Y-61695295D01*
X157198255Y-61831684D01*
X157191500Y-61893866D01*
X157191500Y-64090134D01*
X152908500Y-64090134D01*
X152908500Y-59054500D01*
X152928502Y-58986379D01*
X152982158Y-58939886D01*
X153034500Y-58928500D01*
X229997500Y-58928500D01*
X230065621Y-58948502D01*
G37*
%TD.AperFunction*%
%TD*%
M02*
