%TF.GenerationSoftware,KiCad,Pcbnew,6.0.11-2627ca5db0~126~ubuntu22.04.1*%
%TF.CreationDate,2023-03-03T15:01:48-05:00*%
%TF.ProjectId,lin-valve-control,6c696e2d-7661-46c7-9665-2d636f6e7472,1.0*%
%TF.SameCoordinates,Original*%
%TF.FileFunction,Copper,L4,Bot*%
%TF.FilePolarity,Positive*%
%FSLAX46Y46*%
G04 Gerber Fmt 4.6, Leading zero omitted, Abs format (unit mm)*
G04 Created by KiCad (PCBNEW 6.0.11-2627ca5db0~126~ubuntu22.04.1) date 2023-03-03 15:01:48*
%MOMM*%
%LPD*%
G01*
G04 APERTURE LIST*
G04 Aperture macros list*
%AMRoundRect*
0 Rectangle with rounded corners*
0 $1 Rounding radius*
0 $2 $3 $4 $5 $6 $7 $8 $9 X,Y pos of 4 corners*
0 Add a 4 corners polygon primitive as box body*
4,1,4,$2,$3,$4,$5,$6,$7,$8,$9,$2,$3,0*
0 Add four circle primitives for the rounded corners*
1,1,$1+$1,$2,$3*
1,1,$1+$1,$4,$5*
1,1,$1+$1,$6,$7*
1,1,$1+$1,$8,$9*
0 Add four rect primitives between the rounded corners*
20,1,$1+$1,$2,$3,$4,$5,0*
20,1,$1+$1,$4,$5,$6,$7,0*
20,1,$1+$1,$6,$7,$8,$9,0*
20,1,$1+$1,$8,$9,$2,$3,0*%
%AMFreePoly0*
4,1,6,1.000000,0.000000,0.500000,-0.750000,-0.500000,-0.750000,-0.500000,0.750000,0.500000,0.750000,1.000000,0.000000,1.000000,0.000000,$1*%
%AMFreePoly1*
4,1,6,0.500000,-0.750000,-0.650000,-0.750000,-0.150000,0.000000,-0.650000,0.750000,0.500000,0.750000,0.500000,-0.750000,0.500000,-0.750000,$1*%
G04 Aperture macros list end*
%TA.AperFunction,ComponentPad*%
%ADD10R,1.700000X1.700000*%
%TD*%
%TA.AperFunction,ComponentPad*%
%ADD11O,1.700000X1.700000*%
%TD*%
%TA.AperFunction,ComponentPad*%
%ADD12R,2.100000X2.100000*%
%TD*%
%TA.AperFunction,ComponentPad*%
%ADD13C,2.100000*%
%TD*%
%TA.AperFunction,ComponentPad*%
%ADD14C,1.879600*%
%TD*%
%TA.AperFunction,ComponentPad*%
%ADD15R,1.879600X1.879600*%
%TD*%
%TA.AperFunction,ComponentPad*%
%ADD16C,0.600000*%
%TD*%
%TA.AperFunction,SMDPad,CuDef*%
%ADD17R,5.000000X3.400000*%
%TD*%
%TA.AperFunction,SMDPad,CuDef*%
%ADD18RoundRect,0.250000X-0.350000X-0.450000X0.350000X-0.450000X0.350000X0.450000X-0.350000X0.450000X0*%
%TD*%
%TA.AperFunction,SMDPad,CuDef*%
%ADD19RoundRect,0.250000X-0.450000X0.350000X-0.450000X-0.350000X0.450000X-0.350000X0.450000X0.350000X0*%
%TD*%
%TA.AperFunction,SMDPad,CuDef*%
%ADD20RoundRect,0.250000X0.350000X0.450000X-0.350000X0.450000X-0.350000X-0.450000X0.350000X-0.450000X0*%
%TD*%
%TA.AperFunction,SMDPad,CuDef*%
%ADD21RoundRect,0.250000X0.475000X-0.337500X0.475000X0.337500X-0.475000X0.337500X-0.475000X-0.337500X0*%
%TD*%
%TA.AperFunction,SMDPad,CuDef*%
%ADD22RoundRect,0.250000X0.450000X-0.350000X0.450000X0.350000X-0.450000X0.350000X-0.450000X-0.350000X0*%
%TD*%
%TA.AperFunction,SMDPad,CuDef*%
%ADD23FreePoly0,0.000000*%
%TD*%
%TA.AperFunction,SMDPad,CuDef*%
%ADD24FreePoly1,0.000000*%
%TD*%
%TA.AperFunction,SMDPad,CuDef*%
%ADD25R,0.900000X1.200000*%
%TD*%
%TA.AperFunction,SMDPad,CuDef*%
%ADD26RoundRect,0.250000X-0.475000X0.337500X-0.475000X-0.337500X0.475000X-0.337500X0.475000X0.337500X0*%
%TD*%
%TA.AperFunction,ViaPad*%
%ADD27C,0.800000*%
%TD*%
%TA.AperFunction,Conductor*%
%ADD28C,0.250000*%
%TD*%
G04 APERTURE END LIST*
D10*
%TO.P,J2,1,Pin_1*%
%TO.N,GND*%
X180150000Y-82100000D03*
D11*
%TO.P,J2,2,Pin_2*%
%TO.N,+5V*%
X182690000Y-82100000D03*
%TO.P,J2,3,Pin_3*%
%TO.N,SDA5V*%
X185230000Y-82100000D03*
%TO.P,J2,4,Pin_4*%
%TO.N,SCL5V*%
X187770000Y-82100000D03*
%TD*%
D10*
%TO.P,U3,1,Vout*%
%TO.N,+5V*%
X183180000Y-77550000D03*
D11*
%TO.P,U3,2,GND*%
%TO.N,GND*%
X183180000Y-75010000D03*
%TO.P,U3,3,Vin*%
%TO.N,+12V*%
X183180000Y-72470000D03*
%TO.P,U3,4,EN*%
%TO.N,unconnected-(U3-Pad4)*%
X183180000Y-69930000D03*
%TD*%
D12*
%TO.P,J3,1,Pin_1*%
%TO.N,+BATT*%
X224700000Y-64000000D03*
D13*
%TO.P,J3,2,Pin_2*%
%TO.N,GND*%
X224700000Y-66540000D03*
%TO.P,J3,3,Pin_3*%
%TO.N,LIN*%
X224700000Y-69080000D03*
%TD*%
D12*
%TO.P,J4,1,Pin_1*%
%TO.N,VALVE+*%
X224800000Y-74700000D03*
D13*
%TO.P,J4,2,Pin_2*%
%TO.N,VALVE-*%
X224800000Y-77240000D03*
%TO.P,J4,3,Pin_3*%
%TO.N,GND*%
X224800000Y-79780000D03*
%TO.P,J4,4,Pin_4*%
%TO.N,~{VALVE_OPEN}*%
X224800000Y-82320000D03*
%TO.P,J4,5,Pin_5*%
%TO.N,~{VALVE_CLOSED}*%
X224800000Y-84860000D03*
%TD*%
D14*
%TO.P,J1,6,GND*%
%TO.N,GND*%
X213820000Y-91800000D03*
%TO.P,J1,5,CTS*%
%TO.N,unconnected-(J1-Pad5)*%
X216360000Y-91800000D03*
%TO.P,J1,4,VCC*%
%TO.N,Net-(JP1-Pad1)*%
X218900000Y-91800000D03*
%TO.P,J1,3,TXD*%
%TO.N,Net-(J1-Pad3)*%
X221440000Y-91800000D03*
%TO.P,J1,2,RXD*%
%TO.N,UPDI*%
X223980000Y-91800000D03*
D15*
%TO.P,J1,1,DTR*%
%TO.N,unconnected-(J1-Pad1)*%
X226520000Y-91800000D03*
%TD*%
D16*
%TO.P,U6,17,GND(PPAD)*%
%TO.N,GND*%
X214600000Y-77900000D03*
X210200000Y-77900000D03*
X213500000Y-76800000D03*
X210200000Y-79000000D03*
X212400000Y-76800000D03*
X210200000Y-76800000D03*
X214600000Y-76800000D03*
D17*
X212400000Y-77900000D03*
D16*
X212400000Y-79000000D03*
X211300000Y-76800000D03*
X213500000Y-79000000D03*
X211300000Y-77900000D03*
X211300000Y-79000000D03*
X213500000Y-77900000D03*
X214600000Y-79000000D03*
X212400000Y-77900000D03*
%TD*%
D18*
%TO.P,R6,1*%
%TO.N,Net-(D2-Pad1)*%
X217870000Y-95090000D03*
%TO.P,R6,2*%
%TO.N,Net-(J1-Pad3)*%
X219870000Y-95090000D03*
%TD*%
D19*
%TO.P,R11,1*%
%TO.N,+3V3*%
X209025000Y-71525000D03*
%TO.P,R11,2*%
%TO.N,Net-(R11-Pad2)*%
X209025000Y-73525000D03*
%TD*%
D18*
%TO.P,R3,1*%
%TO.N,+3V3*%
X195650000Y-89750000D03*
%TO.P,R3,2*%
%TO.N,~{LIN_SLP}*%
X197650000Y-89750000D03*
%TD*%
%TO.P,R7,1*%
%TO.N,+5V*%
X182400000Y-84725000D03*
%TO.P,R7,2*%
%TO.N,SDA5V*%
X184400000Y-84725000D03*
%TD*%
D20*
%TO.P,R4,1*%
%TO.N,+3V3*%
X201425000Y-89750000D03*
%TO.P,R4,2*%
%TO.N,~{LIN_WAKE}*%
X199425000Y-89750000D03*
%TD*%
D21*
%TO.P,C2,1*%
%TO.N,LIN*%
X221775000Y-68750000D03*
%TO.P,C2,2*%
%TO.N,GND*%
X221775000Y-66675000D03*
%TD*%
D18*
%TO.P,R8,1*%
%TO.N,+5V*%
X186375000Y-84775000D03*
%TO.P,R8,2*%
%TO.N,SCL5V*%
X188375000Y-84775000D03*
%TD*%
%TO.P,R9,1*%
%TO.N,+3V3*%
X182300000Y-88450000D03*
%TO.P,R9,2*%
%TO.N,SDA*%
X184300000Y-88450000D03*
%TD*%
%TO.P,R17,1*%
%TO.N,+3V3*%
X205250000Y-80100000D03*
%TO.P,R17,2*%
%TO.N,~{FAULT}*%
X207250000Y-80100000D03*
%TD*%
D22*
%TO.P,R5,1*%
%TO.N,Net-(R5-Pad1)*%
X202720000Y-86370000D03*
%TO.P,R5,2*%
%TO.N,Net-(D1-Pad2)*%
X202720000Y-84370000D03*
%TD*%
D19*
%TO.P,R15,1*%
%TO.N,Net-(R15-Pad1)*%
X209050000Y-90475000D03*
%TO.P,R15,2*%
%TO.N,VPROPI*%
X209050000Y-92475000D03*
%TD*%
D18*
%TO.P,R14,1*%
%TO.N,+3V3*%
X220225000Y-82425000D03*
%TO.P,R14,2*%
%TO.N,~{VALVE_OPEN}*%
X222225000Y-82425000D03*
%TD*%
D23*
%TO.P,JP1,1,A*%
%TO.N,Net-(JP1-Pad1)*%
X221955000Y-95130000D03*
D24*
%TO.P,JP1,2,B*%
%TO.N,+3V3*%
X223405000Y-95130000D03*
%TD*%
D18*
%TO.P,R12,1*%
%TO.N,+3V3*%
X203975000Y-93800000D03*
%TO.P,R12,2*%
%TO.N,~{I2C_INT}*%
X205975000Y-93800000D03*
%TD*%
D20*
%TO.P,R10,1*%
%TO.N,+3V3*%
X190525000Y-88425000D03*
%TO.P,R10,2*%
%TO.N,SCL*%
X188525000Y-88425000D03*
%TD*%
D25*
%TO.P,D2,1,K*%
%TO.N,Net-(D2-Pad1)*%
X216090000Y-95040000D03*
%TO.P,D2,2,A*%
%TO.N,UPDI*%
X212790000Y-95040000D03*
%TD*%
D26*
%TO.P,C12,1*%
%TO.N,VPROPI*%
X209075000Y-94675000D03*
%TO.P,C12,2*%
%TO.N,GND*%
X209075000Y-96750000D03*
%TD*%
D18*
%TO.P,R13,1*%
%TO.N,+3V3*%
X220225000Y-84975000D03*
%TO.P,R13,2*%
%TO.N,~{VALVE_CLOSED}*%
X222225000Y-84975000D03*
%TD*%
D27*
%TO.N,Net-(JP1-Pad1)*%
X220480000Y-96890000D03*
%TO.N,UPDI*%
X210660000Y-94500500D03*
%TO.N,GND*%
X176500000Y-78850000D03*
X190010000Y-84250000D03*
X205810000Y-78060000D03*
X192830000Y-88600000D03*
X204320000Y-86460000D03*
X177300000Y-85490000D03*
X207550000Y-91950000D03*
X208125000Y-81950000D03*
X200500000Y-82850000D03*
X208850000Y-66910000D03*
X220800000Y-74525000D03*
X213950000Y-83725000D03*
X196740000Y-82530000D03*
X206625000Y-89750000D03*
%TO.N,+5V*%
X193170000Y-80980000D03*
X181520000Y-79370000D03*
%TO.N,LIN*%
X199200000Y-81575000D03*
%TO.N,TXD*%
X203290000Y-97524500D03*
X200550000Y-92000000D03*
%TO.N,~{LIN_SLP}*%
X198025000Y-87750000D03*
X201670000Y-92250000D03*
%TO.N,~{LIN_WAKE}*%
X199175000Y-87725000D03*
X201945288Y-93929965D03*
%TO.N,SCL*%
X206290576Y-95852382D03*
X187450000Y-90425000D03*
X211375000Y-95450000D03*
X211525500Y-93850500D03*
%TO.N,SDA*%
X211375000Y-96700000D03*
X206675000Y-96775000D03*
X185425000Y-90325000D03*
X212250000Y-91000000D03*
%TO.N,Net-(R5-Pad1)*%
X203735286Y-87711025D03*
X206220000Y-92300000D03*
%TO.N,Net-(C11-Pad2)*%
X211925000Y-73775000D03*
X210250000Y-69225000D03*
%TO.N,VPROPI*%
X210650320Y-93325320D03*
%TO.N,Net-(D1-Pad2)*%
X202830000Y-82680000D03*
%TO.N,Net-(R11-Pad2)*%
X209150000Y-75700000D03*
X209599500Y-82050000D03*
%TO.N,+3V3*%
X194225000Y-89700000D03*
X197475000Y-93675000D03*
X193340000Y-92250000D03*
X203725000Y-80575000D03*
X210750000Y-71475000D03*
X218750000Y-84900000D03*
X212975000Y-87925000D03*
X202850000Y-88175000D03*
X205100000Y-95100000D03*
X181950000Y-90050000D03*
X225010000Y-95130000D03*
X190550000Y-89975000D03*
X191270000Y-84970000D03*
%TO.N,VALVE+*%
X214575000Y-82525000D03*
%TO.N,VALVE-*%
X214850000Y-73700000D03*
%TO.N,~{VALVE_OPEN}*%
X208750000Y-87670000D03*
%TO.N,~{VALVE_CLOSED}*%
X207849500Y-88110000D03*
%TO.N,Net-(R15-Pad1)*%
X210775000Y-72950000D03*
X207460000Y-90470000D03*
%TO.N,~{I2C_INT}*%
X207625000Y-93600000D03*
%TO.N,~{FAULT}*%
X209750000Y-87590000D03*
X208875000Y-80675000D03*
%TO.N,PHASE*%
X205075000Y-92075000D03*
X211025000Y-82050000D03*
%TO.N,ENABLE*%
X213325000Y-82075000D03*
X211475000Y-85575000D03*
%TO.N,~{SLEEP}*%
X212149500Y-82050000D03*
X210275787Y-85120400D03*
%TD*%
D28*
%TO.N,Net-(JP1-Pad1)*%
X220480000Y-96890000D02*
X220480000Y-96605000D01*
X220480000Y-96605000D02*
X221955000Y-95130000D01*
%TO.N,Net-(J1-Pad3)*%
X219870000Y-95090000D02*
X219870000Y-93370000D01*
X219870000Y-93370000D02*
X221440000Y-91800000D01*
%TO.N,UPDI*%
X212475000Y-94725000D02*
X210884500Y-94725000D01*
X210884500Y-94725000D02*
X210660000Y-94500500D01*
%TO.N,GND*%
X221775000Y-66675000D02*
X221910000Y-66540000D01*
X221910000Y-66540000D02*
X224700000Y-66540000D01*
%TO.N,+5V*%
X185900000Y-86150000D02*
X183000000Y-86150000D01*
X186375000Y-84775000D02*
X186375000Y-85675000D01*
X183000000Y-86150000D02*
X182400000Y-85550000D01*
X186375000Y-85675000D02*
X185900000Y-86150000D01*
X182400000Y-85550000D02*
X182400000Y-84725000D01*
X182400000Y-84725000D02*
X182690000Y-84435000D01*
X182690000Y-84435000D02*
X182690000Y-82100000D01*
%TO.N,LIN*%
X222105000Y-69080000D02*
X224700000Y-69080000D01*
X221775000Y-68750000D02*
X222105000Y-69080000D01*
%TO.N,~{LIN_SLP}*%
X197650000Y-89750000D02*
X197650000Y-88125000D01*
X197650000Y-88125000D02*
X198025000Y-87750000D01*
%TO.N,~{LIN_WAKE}*%
X199175000Y-89500000D02*
X199425000Y-89750000D01*
X199175000Y-87725000D02*
X199175000Y-89500000D01*
%TO.N,SCL*%
X188525000Y-88425000D02*
X188525000Y-89350000D01*
X188525000Y-89350000D02*
X187450000Y-90425000D01*
%TO.N,SDA*%
X184300000Y-88450000D02*
X184300000Y-89200000D01*
X184300000Y-89200000D02*
X185425000Y-90325000D01*
%TO.N,Net-(R5-Pad1)*%
X202720000Y-86695739D02*
X203735286Y-87711025D01*
X202720000Y-86370000D02*
X202720000Y-86695739D01*
%TO.N,VPROPI*%
X209050000Y-92475000D02*
X209800000Y-92475000D01*
X209075000Y-94675000D02*
X209075000Y-92500000D01*
X209075000Y-92500000D02*
X209050000Y-92475000D01*
X209800000Y-92475000D02*
X210650320Y-93325320D01*
%TO.N,Net-(D1-Pad2)*%
X202720000Y-82790000D02*
X202830000Y-82680000D01*
X202720000Y-84370000D02*
X202720000Y-82790000D01*
%TO.N,UPDI*%
X212790000Y-95040000D02*
X212475000Y-94725000D01*
%TO.N,Net-(JP1-Pad1)*%
X221440000Y-94615000D02*
X221955000Y-95130000D01*
%TO.N,Net-(D2-Pad1)*%
X217870000Y-95090000D02*
X216140000Y-95090000D01*
X216140000Y-95090000D02*
X216090000Y-95040000D01*
%TO.N,Net-(R11-Pad2)*%
X209025000Y-75575000D02*
X209150000Y-75700000D01*
X209025000Y-73525000D02*
X209025000Y-75575000D01*
%TO.N,+3V3*%
X182300000Y-89700000D02*
X181950000Y-90050000D01*
X220175000Y-82400000D02*
X220250000Y-82325000D01*
X223405000Y-95130000D02*
X225010000Y-95130000D01*
X205250000Y-80100000D02*
X204200000Y-80100000D01*
X201425000Y-89750000D02*
X201425000Y-89600000D01*
X204200000Y-80100000D02*
X203725000Y-80575000D01*
X209025000Y-71525000D02*
X210700000Y-71525000D01*
X190525000Y-88425000D02*
X190525000Y-89950000D01*
X220175000Y-84950000D02*
X218800000Y-84950000D01*
X201425000Y-89600000D02*
X202850000Y-88175000D01*
X203975000Y-93975000D02*
X205100000Y-95100000D01*
X194275000Y-89750000D02*
X194225000Y-89700000D01*
X203975000Y-93800000D02*
X203975000Y-93975000D01*
X210700000Y-71525000D02*
X210750000Y-71475000D01*
X220175000Y-84950000D02*
X220175000Y-82400000D01*
X218800000Y-84950000D02*
X218750000Y-84900000D01*
X195650000Y-89750000D02*
X194275000Y-89750000D01*
X182300000Y-88450000D02*
X182300000Y-89700000D01*
X190525000Y-89950000D02*
X190550000Y-89975000D01*
%TO.N,SCL5V*%
X188375000Y-84775000D02*
X188375000Y-82705000D01*
X188375000Y-82705000D02*
X187770000Y-82100000D01*
%TO.N,SDA5V*%
X184400000Y-84725000D02*
X184400000Y-82930000D01*
X184400000Y-82930000D02*
X185230000Y-82100000D01*
%TO.N,~{VALVE_OPEN}*%
X222255000Y-82320000D02*
X224800000Y-82320000D01*
X222250000Y-82325000D02*
X222255000Y-82320000D01*
%TO.N,~{VALVE_CLOSED}*%
X222265000Y-84860000D02*
X224800000Y-84860000D01*
X222175000Y-84950000D02*
X222265000Y-84860000D01*
%TO.N,Net-(R15-Pad1)*%
X209050000Y-90475000D02*
X207465000Y-90475000D01*
X207465000Y-90475000D02*
X207460000Y-90470000D01*
%TO.N,~{I2C_INT}*%
X207425000Y-93800000D02*
X207625000Y-93600000D01*
X205975000Y-93800000D02*
X207425000Y-93800000D01*
%TO.N,~{FAULT}*%
X207250000Y-80100000D02*
X208300000Y-80100000D01*
X208300000Y-80100000D02*
X208875000Y-80675000D01*
%TD*%
%TA.AperFunction,Conductor*%
%TO.N,GND*%
G36*
X230065621Y-58948502D02*
G01*
X230112114Y-59002158D01*
X230123500Y-59054500D01*
X230123500Y-100966071D01*
X230103498Y-101034192D01*
X230049842Y-101080685D01*
X229997614Y-101092071D01*
X175783994Y-101140950D01*
X175715855Y-101121009D01*
X175669314Y-101067396D01*
X175657880Y-101015096D01*
X175653830Y-97524500D01*
X202376496Y-97524500D01*
X202377186Y-97531065D01*
X202392882Y-97680401D01*
X202396458Y-97714428D01*
X202455473Y-97896056D01*
X202550960Y-98061444D01*
X202678747Y-98203366D01*
X202833248Y-98315618D01*
X202839276Y-98318302D01*
X202839278Y-98318303D01*
X203001681Y-98390609D01*
X203007712Y-98393294D01*
X203101112Y-98413147D01*
X203188056Y-98431628D01*
X203188061Y-98431628D01*
X203194513Y-98433000D01*
X203385487Y-98433000D01*
X203391939Y-98431628D01*
X203391944Y-98431628D01*
X203478888Y-98413147D01*
X203572288Y-98393294D01*
X203578319Y-98390609D01*
X203740722Y-98318303D01*
X203740724Y-98318302D01*
X203746752Y-98315618D01*
X203901253Y-98203366D01*
X204029040Y-98061444D01*
X204124527Y-97896056D01*
X204183542Y-97714428D01*
X204187119Y-97680401D01*
X204202814Y-97531065D01*
X204203504Y-97524500D01*
X204195564Y-97448955D01*
X204184232Y-97341135D01*
X204184232Y-97341133D01*
X204183542Y-97334572D01*
X204124527Y-97152944D01*
X204029040Y-96987556D01*
X204014319Y-96971206D01*
X203905675Y-96850545D01*
X203905674Y-96850544D01*
X203901253Y-96845634D01*
X203746752Y-96733382D01*
X203740724Y-96730698D01*
X203740722Y-96730697D01*
X203578319Y-96658391D01*
X203578318Y-96658391D01*
X203572288Y-96655706D01*
X203451813Y-96630098D01*
X203391944Y-96617372D01*
X203391939Y-96617372D01*
X203385487Y-96616000D01*
X203194513Y-96616000D01*
X203188061Y-96617372D01*
X203188056Y-96617372D01*
X203128187Y-96630098D01*
X203007712Y-96655706D01*
X203001682Y-96658391D01*
X203001681Y-96658391D01*
X202839278Y-96730697D01*
X202839276Y-96730698D01*
X202833248Y-96733382D01*
X202678747Y-96845634D01*
X202674326Y-96850544D01*
X202674325Y-96850545D01*
X202565682Y-96971206D01*
X202550960Y-96987556D01*
X202455473Y-97152944D01*
X202396458Y-97334572D01*
X202395768Y-97341133D01*
X202395768Y-97341135D01*
X202384436Y-97448955D01*
X202376496Y-97524500D01*
X175653830Y-97524500D01*
X175649364Y-93675000D01*
X196561496Y-93675000D01*
X196562186Y-93681565D01*
X196579942Y-93850500D01*
X196581458Y-93864928D01*
X196640473Y-94046556D01*
X196643776Y-94052278D01*
X196643777Y-94052279D01*
X196668699Y-94095445D01*
X196735960Y-94211944D01*
X196740378Y-94216851D01*
X196740379Y-94216852D01*
X196847838Y-94336197D01*
X196863747Y-94353866D01*
X196945838Y-94413509D01*
X197011855Y-94461473D01*
X197018248Y-94466118D01*
X197024276Y-94468802D01*
X197024278Y-94468803D01*
X197110358Y-94507128D01*
X197192712Y-94543794D01*
X197286112Y-94563647D01*
X197373056Y-94582128D01*
X197373061Y-94582128D01*
X197379513Y-94583500D01*
X197570487Y-94583500D01*
X197576939Y-94582128D01*
X197576944Y-94582128D01*
X197663888Y-94563647D01*
X197757288Y-94543794D01*
X197839642Y-94507128D01*
X197925722Y-94468803D01*
X197925724Y-94468802D01*
X197931752Y-94466118D01*
X197938146Y-94461473D01*
X198004162Y-94413509D01*
X198086253Y-94353866D01*
X198102162Y-94336197D01*
X198209621Y-94216852D01*
X198209622Y-94216851D01*
X198214040Y-94211944D01*
X198281301Y-94095445D01*
X198306223Y-94052279D01*
X198306224Y-94052278D01*
X198309527Y-94046556D01*
X198368542Y-93864928D01*
X198370059Y-93850500D01*
X198387814Y-93681565D01*
X198388504Y-93675000D01*
X198375899Y-93555066D01*
X198369232Y-93491635D01*
X198369232Y-93491633D01*
X198368542Y-93485072D01*
X198309527Y-93303444D01*
X198277477Y-93247931D01*
X198247835Y-93196590D01*
X198214040Y-93138056D01*
X198196697Y-93118794D01*
X198090675Y-93001045D01*
X198090674Y-93001044D01*
X198086253Y-92996134D01*
X197931752Y-92883882D01*
X197925724Y-92881198D01*
X197925722Y-92881197D01*
X197763319Y-92808891D01*
X197763318Y-92808891D01*
X197757288Y-92806206D01*
X197650315Y-92783468D01*
X197576944Y-92767872D01*
X197576939Y-92767872D01*
X197570487Y-92766500D01*
X197379513Y-92766500D01*
X197373061Y-92767872D01*
X197373056Y-92767872D01*
X197299685Y-92783468D01*
X197192712Y-92806206D01*
X197186682Y-92808891D01*
X197186681Y-92808891D01*
X197024278Y-92881197D01*
X197024276Y-92881198D01*
X197018248Y-92883882D01*
X196863747Y-92996134D01*
X196859326Y-93001044D01*
X196859325Y-93001045D01*
X196753304Y-93118794D01*
X196735960Y-93138056D01*
X196702165Y-93196590D01*
X196672524Y-93247931D01*
X196640473Y-93303444D01*
X196581458Y-93485072D01*
X196580768Y-93491633D01*
X196580768Y-93491635D01*
X196574101Y-93555066D01*
X196561496Y-93675000D01*
X175649364Y-93675000D01*
X175647711Y-92250000D01*
X192426496Y-92250000D01*
X192446458Y-92439928D01*
X192505473Y-92621556D01*
X192508776Y-92627278D01*
X192508777Y-92627279D01*
X192526691Y-92658306D01*
X192600960Y-92786944D01*
X192605375Y-92791847D01*
X192605379Y-92791852D01*
X192714461Y-92913000D01*
X192728747Y-92928866D01*
X192809323Y-92987408D01*
X192873739Y-93034209D01*
X192883248Y-93041118D01*
X192889276Y-93043802D01*
X192889278Y-93043803D01*
X193051681Y-93116109D01*
X193057712Y-93118794D01*
X193139412Y-93136160D01*
X193238056Y-93157128D01*
X193238061Y-93157128D01*
X193244513Y-93158500D01*
X193435487Y-93158500D01*
X193441939Y-93157128D01*
X193441944Y-93157128D01*
X193540588Y-93136160D01*
X193622288Y-93118794D01*
X193628319Y-93116109D01*
X193790722Y-93043803D01*
X193790724Y-93043802D01*
X193796752Y-93041118D01*
X193806262Y-93034209D01*
X193870677Y-92987408D01*
X193951253Y-92928866D01*
X193965539Y-92913000D01*
X194074621Y-92791852D01*
X194074625Y-92791847D01*
X194079040Y-92786944D01*
X194153309Y-92658306D01*
X194171223Y-92627279D01*
X194171224Y-92627278D01*
X194174527Y-92621556D01*
X194233542Y-92439928D01*
X194253504Y-92250000D01*
X194247190Y-92189928D01*
X194234232Y-92066635D01*
X194234232Y-92066633D01*
X194233542Y-92060072D01*
X194174527Y-91878444D01*
X194167406Y-91866109D01*
X194124109Y-91791118D01*
X194079040Y-91713056D01*
X194070386Y-91703444D01*
X193955675Y-91576045D01*
X193955674Y-91576044D01*
X193951253Y-91571134D01*
X193810367Y-91468774D01*
X193802094Y-91462763D01*
X193802093Y-91462762D01*
X193796752Y-91458882D01*
X193790724Y-91456198D01*
X193790722Y-91456197D01*
X193628319Y-91383891D01*
X193628318Y-91383891D01*
X193622288Y-91381206D01*
X193528887Y-91361353D01*
X193441944Y-91342872D01*
X193441939Y-91342872D01*
X193435487Y-91341500D01*
X193244513Y-91341500D01*
X193238061Y-91342872D01*
X193238056Y-91342872D01*
X193151113Y-91361353D01*
X193057712Y-91381206D01*
X193051682Y-91383891D01*
X193051681Y-91383891D01*
X192889278Y-91456197D01*
X192889276Y-91456198D01*
X192883248Y-91458882D01*
X192877907Y-91462762D01*
X192877906Y-91462763D01*
X192869633Y-91468774D01*
X192728747Y-91571134D01*
X192724326Y-91576044D01*
X192724325Y-91576045D01*
X192609615Y-91703444D01*
X192600960Y-91713056D01*
X192555891Y-91791118D01*
X192512595Y-91866109D01*
X192505473Y-91878444D01*
X192446458Y-92060072D01*
X192445768Y-92066633D01*
X192445768Y-92066635D01*
X192432810Y-92189928D01*
X192426496Y-92250000D01*
X175647711Y-92250000D01*
X175645159Y-90050000D01*
X181036496Y-90050000D01*
X181037186Y-90056565D01*
X181055021Y-90226252D01*
X181056458Y-90239928D01*
X181115473Y-90421556D01*
X181118776Y-90427278D01*
X181118777Y-90427279D01*
X181147452Y-90476946D01*
X181210960Y-90586944D01*
X181215378Y-90591851D01*
X181215379Y-90591852D01*
X181313278Y-90700580D01*
X181338747Y-90728866D01*
X181411436Y-90781678D01*
X181457965Y-90815483D01*
X181493248Y-90841118D01*
X181499276Y-90843802D01*
X181499278Y-90843803D01*
X181661681Y-90916109D01*
X181667712Y-90918794D01*
X181742939Y-90934784D01*
X181848056Y-90957128D01*
X181848061Y-90957128D01*
X181854513Y-90958500D01*
X182045487Y-90958500D01*
X182051939Y-90957128D01*
X182051944Y-90957128D01*
X182157061Y-90934784D01*
X182232288Y-90918794D01*
X182238319Y-90916109D01*
X182400722Y-90843803D01*
X182400724Y-90843802D01*
X182406752Y-90841118D01*
X182442036Y-90815483D01*
X182488564Y-90781678D01*
X182561253Y-90728866D01*
X182586722Y-90700580D01*
X182684621Y-90591852D01*
X182684622Y-90591851D01*
X182689040Y-90586944D01*
X182752548Y-90476946D01*
X182781223Y-90427279D01*
X182781224Y-90427278D01*
X182784527Y-90421556D01*
X182843542Y-90239928D01*
X182844980Y-90226252D01*
X182862814Y-90056565D01*
X182863504Y-90050000D01*
X182862336Y-90038884D01*
X182877230Y-89965011D01*
X182893695Y-89935060D01*
X182898733Y-89915437D01*
X182905137Y-89896734D01*
X182910033Y-89885420D01*
X182910033Y-89885419D01*
X182913181Y-89878145D01*
X182914420Y-89870322D01*
X182914423Y-89870312D01*
X182920099Y-89834476D01*
X182922505Y-89822856D01*
X182931528Y-89787711D01*
X182931528Y-89787710D01*
X182933500Y-89780030D01*
X182933500Y-89759776D01*
X182935051Y-89740065D01*
X182936980Y-89727886D01*
X182938220Y-89720057D01*
X182936077Y-89697390D01*
X182949579Y-89627691D01*
X182995215Y-89578388D01*
X183010600Y-89568868D01*
X183124348Y-89498478D01*
X183210784Y-89411891D01*
X183273066Y-89377812D01*
X183343886Y-89382815D01*
X183388975Y-89411736D01*
X183430090Y-89452779D01*
X183476697Y-89499305D01*
X183482927Y-89503145D01*
X183482928Y-89503146D01*
X183605835Y-89578907D01*
X183627262Y-89592115D01*
X183795139Y-89647797D01*
X183801975Y-89648497D01*
X183801978Y-89648498D01*
X183813801Y-89649709D01*
X183879528Y-89676550D01*
X183890054Y-89685958D01*
X184477878Y-90273782D01*
X184511904Y-90336094D01*
X184514092Y-90349703D01*
X184517566Y-90382749D01*
X184528548Y-90487237D01*
X184531458Y-90514928D01*
X184590473Y-90696556D01*
X184593776Y-90702278D01*
X184593777Y-90702279D01*
X184613910Y-90737150D01*
X184685960Y-90861944D01*
X184690378Y-90866851D01*
X184690379Y-90866852D01*
X184761313Y-90945632D01*
X184813747Y-91003866D01*
X184872026Y-91046208D01*
X184951385Y-91103866D01*
X184968248Y-91116118D01*
X184974276Y-91118802D01*
X184974278Y-91118803D01*
X185136681Y-91191109D01*
X185142712Y-91193794D01*
X185229479Y-91212237D01*
X185323056Y-91232128D01*
X185323061Y-91232128D01*
X185329513Y-91233500D01*
X185520487Y-91233500D01*
X185526939Y-91232128D01*
X185526944Y-91232128D01*
X185620521Y-91212237D01*
X185707288Y-91193794D01*
X185713319Y-91191109D01*
X185875722Y-91118803D01*
X185875724Y-91118802D01*
X185881752Y-91116118D01*
X185898616Y-91103866D01*
X185977974Y-91046208D01*
X186036253Y-91003866D01*
X186088687Y-90945632D01*
X186159621Y-90866852D01*
X186159622Y-90866851D01*
X186164040Y-90861944D01*
X186236090Y-90737150D01*
X186256223Y-90702279D01*
X186256224Y-90702278D01*
X186259527Y-90696556D01*
X186307186Y-90549878D01*
X186347260Y-90491272D01*
X186412656Y-90463635D01*
X186482613Y-90475742D01*
X186534919Y-90523748D01*
X186552329Y-90575643D01*
X186554883Y-90599938D01*
X186556458Y-90614928D01*
X186615473Y-90796556D01*
X186618776Y-90802278D01*
X186618777Y-90802279D01*
X186701542Y-90945632D01*
X186710960Y-90961944D01*
X186715378Y-90966851D01*
X186715379Y-90966852D01*
X186828848Y-91092872D01*
X186838747Y-91103866D01*
X186907237Y-91153627D01*
X186983289Y-91208882D01*
X186993248Y-91216118D01*
X186999276Y-91218802D01*
X186999278Y-91218803D01*
X187145449Y-91283882D01*
X187167712Y-91293794D01*
X187234226Y-91307932D01*
X187348056Y-91332128D01*
X187348061Y-91332128D01*
X187354513Y-91333500D01*
X187545487Y-91333500D01*
X187551939Y-91332128D01*
X187551944Y-91332128D01*
X187665774Y-91307932D01*
X187732288Y-91293794D01*
X187754551Y-91283882D01*
X187900722Y-91218803D01*
X187900724Y-91218802D01*
X187906752Y-91216118D01*
X187916712Y-91208882D01*
X187992763Y-91153627D01*
X188061253Y-91103866D01*
X188071152Y-91092872D01*
X188184621Y-90966852D01*
X188184622Y-90966851D01*
X188189040Y-90961944D01*
X188198458Y-90945632D01*
X188281223Y-90802279D01*
X188281224Y-90802278D01*
X188284527Y-90796556D01*
X188343542Y-90614928D01*
X188345118Y-90599938D01*
X188355188Y-90504119D01*
X188360907Y-90449706D01*
X188387920Y-90384050D01*
X188397122Y-90373782D01*
X188917247Y-89853657D01*
X188925537Y-89846113D01*
X188932018Y-89842000D01*
X188939084Y-89834476D01*
X188978658Y-89792333D01*
X188981413Y-89789491D01*
X189001135Y-89769769D01*
X189003612Y-89766576D01*
X189011317Y-89757555D01*
X189036159Y-89731100D01*
X189041586Y-89725321D01*
X189048581Y-89712597D01*
X189051346Y-89707568D01*
X189062202Y-89691041D01*
X189069757Y-89681302D01*
X189069758Y-89681300D01*
X189074614Y-89675040D01*
X189082473Y-89656880D01*
X189086146Y-89648391D01*
X189131557Y-89593816D01*
X189161907Y-89578907D01*
X189191998Y-89568868D01*
X189198946Y-89566550D01*
X189349348Y-89473478D01*
X189435784Y-89386891D01*
X189498066Y-89352812D01*
X189568886Y-89357815D01*
X189613975Y-89386736D01*
X189690218Y-89462846D01*
X189724297Y-89525128D01*
X189719294Y-89595948D01*
X189718071Y-89598943D01*
X189715473Y-89603444D01*
X189656458Y-89785072D01*
X189655768Y-89791633D01*
X189655768Y-89791635D01*
X189642756Y-89915438D01*
X189636496Y-89975000D01*
X189637186Y-89981565D01*
X189652770Y-90129834D01*
X189656458Y-90164928D01*
X189715473Y-90346556D01*
X189718776Y-90352278D01*
X189718777Y-90352279D01*
X189738419Y-90386300D01*
X189810960Y-90511944D01*
X189815378Y-90516851D01*
X189815379Y-90516852D01*
X189902397Y-90613495D01*
X189938747Y-90653866D01*
X190025629Y-90716990D01*
X190081717Y-90757740D01*
X190093248Y-90766118D01*
X190099276Y-90768802D01*
X190099278Y-90768803D01*
X190261681Y-90841109D01*
X190267712Y-90843794D01*
X190335675Y-90858240D01*
X190448056Y-90882128D01*
X190448061Y-90882128D01*
X190454513Y-90883500D01*
X190645487Y-90883500D01*
X190651939Y-90882128D01*
X190651944Y-90882128D01*
X190764325Y-90858240D01*
X190832288Y-90843794D01*
X190838319Y-90841109D01*
X191000722Y-90768803D01*
X191000724Y-90768802D01*
X191006752Y-90766118D01*
X191018284Y-90757740D01*
X191074371Y-90716990D01*
X191161253Y-90653866D01*
X191197603Y-90613495D01*
X191284621Y-90516852D01*
X191284622Y-90516851D01*
X191289040Y-90511944D01*
X191361581Y-90386300D01*
X191381223Y-90352279D01*
X191381224Y-90352278D01*
X191384527Y-90346556D01*
X191443542Y-90164928D01*
X191447231Y-90129834D01*
X191462814Y-89981565D01*
X191463504Y-89975000D01*
X191457244Y-89915438D01*
X191444232Y-89791635D01*
X191444232Y-89791633D01*
X191443542Y-89785072D01*
X191415900Y-89700000D01*
X193311496Y-89700000D01*
X193312186Y-89706565D01*
X193330220Y-89878145D01*
X193331458Y-89889928D01*
X193390473Y-90071556D01*
X193485960Y-90236944D01*
X193490378Y-90241851D01*
X193490379Y-90241852D01*
X193598011Y-90361389D01*
X193613747Y-90378866D01*
X193651690Y-90406433D01*
X193749381Y-90477410D01*
X193768248Y-90491118D01*
X193774276Y-90493802D01*
X193774278Y-90493803D01*
X193932097Y-90564068D01*
X193942712Y-90568794D01*
X194028101Y-90586944D01*
X194123056Y-90607128D01*
X194123061Y-90607128D01*
X194129513Y-90608500D01*
X194320487Y-90608500D01*
X194326939Y-90607128D01*
X194326944Y-90607128D01*
X194421899Y-90586944D01*
X194507288Y-90568794D01*
X194513320Y-90566108D01*
X194519600Y-90564068D01*
X194520498Y-90566832D01*
X194578304Y-90559120D01*
X194642581Y-90589269D01*
X194666248Y-90617346D01*
X194701522Y-90674348D01*
X194826697Y-90799305D01*
X194832927Y-90803145D01*
X194832928Y-90803146D01*
X194970090Y-90887694D01*
X194977262Y-90892115D01*
X195029589Y-90909471D01*
X195138611Y-90945632D01*
X195138613Y-90945632D01*
X195145139Y-90947797D01*
X195151975Y-90948497D01*
X195151978Y-90948498D01*
X195195031Y-90952909D01*
X195249600Y-90958500D01*
X196050400Y-90958500D01*
X196053646Y-90958163D01*
X196053650Y-90958163D01*
X196149308Y-90948238D01*
X196149312Y-90948237D01*
X196156166Y-90947526D01*
X196162702Y-90945345D01*
X196162704Y-90945345D01*
X196294806Y-90901272D01*
X196323946Y-90891550D01*
X196474348Y-90798478D01*
X196560784Y-90711891D01*
X196623066Y-90677812D01*
X196693886Y-90682815D01*
X196738975Y-90711736D01*
X196768263Y-90740973D01*
X196826697Y-90799305D01*
X196832927Y-90803145D01*
X196832928Y-90803146D01*
X196970090Y-90887694D01*
X196977262Y-90892115D01*
X197029589Y-90909471D01*
X197138611Y-90945632D01*
X197138613Y-90945632D01*
X197145139Y-90947797D01*
X197151975Y-90948497D01*
X197151978Y-90948498D01*
X197195031Y-90952909D01*
X197249600Y-90958500D01*
X198050400Y-90958500D01*
X198053646Y-90958163D01*
X198053650Y-90958163D01*
X198149308Y-90948238D01*
X198149312Y-90948237D01*
X198156166Y-90947526D01*
X198162702Y-90945345D01*
X198162704Y-90945345D01*
X198294806Y-90901272D01*
X198323946Y-90891550D01*
X198401104Y-90843803D01*
X198471055Y-90800516D01*
X198539507Y-90781678D01*
X198603473Y-90800400D01*
X198673871Y-90843794D01*
X198745090Y-90887694D01*
X198752262Y-90892115D01*
X198804589Y-90909471D01*
X198913611Y-90945632D01*
X198913613Y-90945632D01*
X198920139Y-90947797D01*
X198926975Y-90948497D01*
X198926978Y-90948498D01*
X198970031Y-90952909D01*
X199024600Y-90958500D01*
X199825400Y-90958500D01*
X199828646Y-90958163D01*
X199828650Y-90958163D01*
X199924308Y-90948238D01*
X199924312Y-90948237D01*
X199931166Y-90947526D01*
X199937702Y-90945345D01*
X199937704Y-90945345D01*
X200069806Y-90901272D01*
X200098946Y-90891550D01*
X200249348Y-90798478D01*
X200335784Y-90711891D01*
X200398066Y-90677812D01*
X200468886Y-90682815D01*
X200513975Y-90711736D01*
X200543263Y-90740973D01*
X200601697Y-90799305D01*
X200670241Y-90841556D01*
X200697307Y-90858240D01*
X200744800Y-90911012D01*
X200756224Y-90981084D01*
X200727950Y-91046208D01*
X200668956Y-91085707D01*
X200631191Y-91091500D01*
X200454513Y-91091500D01*
X200448061Y-91092872D01*
X200448056Y-91092872D01*
X200361112Y-91111353D01*
X200267712Y-91131206D01*
X200261682Y-91133891D01*
X200261681Y-91133891D01*
X200099278Y-91206197D01*
X200099276Y-91206198D01*
X200093248Y-91208882D01*
X200087907Y-91212762D01*
X200087906Y-91212763D01*
X200079593Y-91218803D01*
X199938747Y-91321134D01*
X199934329Y-91326041D01*
X199934325Y-91326045D01*
X199828856Y-91443181D01*
X199810960Y-91463056D01*
X199715473Y-91628444D01*
X199656458Y-91810072D01*
X199636496Y-92000000D01*
X199637186Y-92006565D01*
X199653790Y-92164539D01*
X199656458Y-92189928D01*
X199715473Y-92371556D01*
X199810960Y-92536944D01*
X199815378Y-92541851D01*
X199815379Y-92541852D01*
X199923749Y-92662209D01*
X199938747Y-92678866D01*
X200008898Y-92729834D01*
X200084163Y-92784517D01*
X200093248Y-92791118D01*
X200099276Y-92793802D01*
X200099278Y-92793803D01*
X200261672Y-92866105D01*
X200267712Y-92868794D01*
X200356954Y-92887763D01*
X200448056Y-92907128D01*
X200448061Y-92907128D01*
X200454513Y-92908500D01*
X200645487Y-92908500D01*
X200651939Y-92907128D01*
X200651944Y-92907128D01*
X200790660Y-92877642D01*
X200832288Y-92868794D01*
X200838328Y-92866105D01*
X200871704Y-92851246D01*
X200942071Y-92841812D01*
X201006368Y-92871920D01*
X201016582Y-92882037D01*
X201058747Y-92928866D01*
X201139323Y-92987408D01*
X201203739Y-93034209D01*
X201213248Y-93041118D01*
X201219274Y-93043801D01*
X201219281Y-93043805D01*
X201276002Y-93069058D01*
X201330098Y-93115038D01*
X201350748Y-93182965D01*
X201331396Y-93251273D01*
X201318397Y-93268467D01*
X201206248Y-93393021D01*
X201110761Y-93558409D01*
X201051746Y-93740037D01*
X201051056Y-93746598D01*
X201051056Y-93746600D01*
X201036896Y-93881328D01*
X201031784Y-93929965D01*
X201032474Y-93936530D01*
X201044640Y-94052279D01*
X201051746Y-94119893D01*
X201110761Y-94301521D01*
X201206248Y-94466909D01*
X201210666Y-94471816D01*
X201210667Y-94471817D01*
X201311227Y-94583500D01*
X201334035Y-94608831D01*
X201488536Y-94721083D01*
X201494564Y-94723767D01*
X201494566Y-94723768D01*
X201586567Y-94764729D01*
X201663000Y-94798759D01*
X201756401Y-94818612D01*
X201843344Y-94837093D01*
X201843349Y-94837093D01*
X201849801Y-94838465D01*
X202040775Y-94838465D01*
X202047227Y-94837093D01*
X202047232Y-94837093D01*
X202134175Y-94818612D01*
X202227576Y-94798759D01*
X202304009Y-94764729D01*
X202396010Y-94723768D01*
X202396012Y-94723767D01*
X202402040Y-94721083D01*
X202556541Y-94608831D01*
X202580558Y-94582158D01*
X202662218Y-94491464D01*
X202684328Y-94466909D01*
X202686831Y-94462573D01*
X202742585Y-94419583D01*
X202813322Y-94413509D01*
X202876112Y-94446643D01*
X202907819Y-94497122D01*
X202933450Y-94573946D01*
X203026522Y-94724348D01*
X203151697Y-94849305D01*
X203157927Y-94853145D01*
X203157928Y-94853146D01*
X203208476Y-94884304D01*
X203302262Y-94942115D01*
X203382005Y-94968564D01*
X203463611Y-94995632D01*
X203463613Y-94995632D01*
X203470139Y-94997797D01*
X203476975Y-94998497D01*
X203476978Y-94998498D01*
X203520031Y-95002909D01*
X203574600Y-95008500D01*
X204060406Y-95008500D01*
X204128527Y-95028502D01*
X204149501Y-95045405D01*
X204152878Y-95048782D01*
X204186904Y-95111094D01*
X204189092Y-95124703D01*
X204206458Y-95289928D01*
X204265473Y-95471556D01*
X204268776Y-95477278D01*
X204268777Y-95477279D01*
X204286098Y-95507279D01*
X204360960Y-95636944D01*
X204365378Y-95641851D01*
X204365379Y-95641852D01*
X204471783Y-95760026D01*
X204488747Y-95778866D01*
X204643248Y-95891118D01*
X204649276Y-95893802D01*
X204649278Y-95893803D01*
X204811681Y-95966109D01*
X204817712Y-95968794D01*
X204903101Y-95986944D01*
X204998056Y-96007128D01*
X204998061Y-96007128D01*
X205004513Y-96008500D01*
X205195487Y-96008500D01*
X205201942Y-96007128D01*
X205201951Y-96007127D01*
X205262765Y-95994200D01*
X205333556Y-95999601D01*
X205390189Y-96042417D01*
X205408796Y-96078508D01*
X205456049Y-96223938D01*
X205459352Y-96229660D01*
X205459353Y-96229661D01*
X205474203Y-96255382D01*
X205551536Y-96389326D01*
X205555954Y-96394233D01*
X205555955Y-96394234D01*
X205654603Y-96503794D01*
X205679323Y-96531248D01*
X205684664Y-96535128D01*
X205684669Y-96535133D01*
X205720616Y-96561250D01*
X205763969Y-96617472D01*
X205771864Y-96676356D01*
X205761496Y-96775000D01*
X205781458Y-96964928D01*
X205840473Y-97146556D01*
X205935960Y-97311944D01*
X205940378Y-97316851D01*
X205940379Y-97316852D01*
X206059325Y-97448955D01*
X206063747Y-97453866D01*
X206218248Y-97566118D01*
X206224276Y-97568802D01*
X206224278Y-97568803D01*
X206310358Y-97607128D01*
X206392712Y-97643794D01*
X206486113Y-97663647D01*
X206573056Y-97682128D01*
X206573061Y-97682128D01*
X206579513Y-97683500D01*
X206770487Y-97683500D01*
X206776939Y-97682128D01*
X206776944Y-97682128D01*
X206863887Y-97663647D01*
X206957288Y-97643794D01*
X207039642Y-97607128D01*
X207125722Y-97568803D01*
X207125724Y-97568802D01*
X207131752Y-97566118D01*
X207286253Y-97453866D01*
X207290675Y-97448955D01*
X207409621Y-97316852D01*
X207409622Y-97316851D01*
X207414040Y-97311944D01*
X207509527Y-97146556D01*
X207513413Y-97134595D01*
X207842001Y-97134595D01*
X207842338Y-97141114D01*
X207852257Y-97236706D01*
X207855149Y-97250100D01*
X207906588Y-97404284D01*
X207912761Y-97417462D01*
X207998063Y-97555307D01*
X208007099Y-97566708D01*
X208121829Y-97681239D01*
X208133240Y-97690251D01*
X208271243Y-97775316D01*
X208284424Y-97781463D01*
X208438710Y-97832638D01*
X208452086Y-97835505D01*
X208546438Y-97845172D01*
X208552854Y-97845500D01*
X208802885Y-97845500D01*
X208818124Y-97841025D01*
X208819329Y-97839635D01*
X208821000Y-97831952D01*
X208821000Y-97022115D01*
X208816525Y-97006876D01*
X208815135Y-97005671D01*
X208807452Y-97004000D01*
X207860116Y-97004000D01*
X207844877Y-97008475D01*
X207843672Y-97009865D01*
X207842001Y-97017548D01*
X207842001Y-97134595D01*
X207513413Y-97134595D01*
X207568542Y-96964928D01*
X207588504Y-96775000D01*
X207583848Y-96730697D01*
X207569232Y-96591635D01*
X207569232Y-96591633D01*
X207568542Y-96585072D01*
X207509527Y-96403444D01*
X207503847Y-96393605D01*
X207469854Y-96334729D01*
X207414040Y-96238056D01*
X207347860Y-96164555D01*
X207290675Y-96101045D01*
X207290674Y-96101044D01*
X207286253Y-96096134D01*
X207280912Y-96092254D01*
X207280907Y-96092249D01*
X207244960Y-96066132D01*
X207201607Y-96009910D01*
X207193712Y-95951026D01*
X207196856Y-95921118D01*
X207204080Y-95852382D01*
X207194130Y-95757715D01*
X207184808Y-95669017D01*
X207184808Y-95669015D01*
X207184118Y-95662454D01*
X207125103Y-95480826D01*
X207029616Y-95315438D01*
X207012300Y-95296206D01*
X206906251Y-95178427D01*
X206906250Y-95178426D01*
X206901829Y-95173516D01*
X206764932Y-95074054D01*
X206721578Y-95017831D01*
X206715503Y-94947095D01*
X206748635Y-94884304D01*
X206772686Y-94864977D01*
X206799348Y-94848478D01*
X206924305Y-94723303D01*
X206979044Y-94634500D01*
X207013275Y-94578968D01*
X207013276Y-94578966D01*
X207017115Y-94572738D01*
X207034663Y-94519832D01*
X207075094Y-94461473D01*
X207140658Y-94434236D01*
X207154256Y-94433500D01*
X207236657Y-94433500D01*
X207287905Y-94444393D01*
X207336677Y-94466108D01*
X207336685Y-94466111D01*
X207342712Y-94468794D01*
X207436113Y-94488647D01*
X207523056Y-94507128D01*
X207523061Y-94507128D01*
X207529513Y-94508500D01*
X207715500Y-94508500D01*
X207783621Y-94528502D01*
X207830114Y-94582158D01*
X207841500Y-94634500D01*
X207841500Y-95062900D01*
X207852474Y-95168666D01*
X207854655Y-95175202D01*
X207854655Y-95175204D01*
X207890741Y-95283365D01*
X207908450Y-95336446D01*
X208001522Y-95486848D01*
X208126697Y-95611805D01*
X208131235Y-95614602D01*
X208171824Y-95671853D01*
X208175054Y-95742776D01*
X208139428Y-95804187D01*
X208130932Y-95811562D01*
X208120793Y-95819598D01*
X208006261Y-95934329D01*
X207997249Y-95945740D01*
X207912184Y-96083743D01*
X207906037Y-96096924D01*
X207854862Y-96251210D01*
X207851995Y-96264586D01*
X207842328Y-96358938D01*
X207842000Y-96365355D01*
X207842000Y-96477885D01*
X207846475Y-96493124D01*
X207847865Y-96494329D01*
X207855548Y-96496000D01*
X209203000Y-96496000D01*
X209271121Y-96516002D01*
X209317614Y-96569658D01*
X209329000Y-96622000D01*
X209329000Y-97827384D01*
X209333475Y-97842623D01*
X209334865Y-97843828D01*
X209342548Y-97845499D01*
X209597095Y-97845499D01*
X209603614Y-97845162D01*
X209699206Y-97835243D01*
X209712600Y-97832351D01*
X209866784Y-97780912D01*
X209879962Y-97774739D01*
X210017807Y-97689437D01*
X210029208Y-97680401D01*
X210143739Y-97565671D01*
X210152751Y-97554260D01*
X210237816Y-97416257D01*
X210243963Y-97403076D01*
X210295138Y-97248790D01*
X210298005Y-97235414D01*
X210307672Y-97141062D01*
X210308104Y-97132608D01*
X210331554Y-97065597D01*
X210387512Y-97021901D01*
X210458210Y-97015394D01*
X210521202Y-97048143D01*
X210543059Y-97076035D01*
X210635960Y-97236944D01*
X210640378Y-97241851D01*
X210640379Y-97241852D01*
X210729774Y-97341135D01*
X210763747Y-97378866D01*
X210918248Y-97491118D01*
X210924276Y-97493802D01*
X210924278Y-97493803D01*
X211086681Y-97566109D01*
X211092712Y-97568794D01*
X211186112Y-97588647D01*
X211273056Y-97607128D01*
X211273061Y-97607128D01*
X211279513Y-97608500D01*
X211470487Y-97608500D01*
X211476939Y-97607128D01*
X211476944Y-97607128D01*
X211563888Y-97588647D01*
X211657288Y-97568794D01*
X211663319Y-97566109D01*
X211825722Y-97493803D01*
X211825724Y-97493802D01*
X211831752Y-97491118D01*
X211986253Y-97378866D01*
X212020226Y-97341135D01*
X212109621Y-97241852D01*
X212109622Y-97241851D01*
X212114040Y-97236944D01*
X212201069Y-97086206D01*
X212206223Y-97077279D01*
X212206224Y-97077278D01*
X212209527Y-97071556D01*
X212268542Y-96889928D01*
X212273198Y-96845634D01*
X212287814Y-96706565D01*
X212288504Y-96700000D01*
X212275765Y-96578794D01*
X212269232Y-96516635D01*
X212269232Y-96516633D01*
X212268542Y-96510072D01*
X212209527Y-96328444D01*
X212207450Y-96324847D01*
X212198137Y-96255382D01*
X212228243Y-96191085D01*
X212288332Y-96153271D01*
X212322678Y-96148500D01*
X213288134Y-96148500D01*
X213350316Y-96141745D01*
X213486705Y-96090615D01*
X213603261Y-96003261D01*
X213690615Y-95886705D01*
X213741745Y-95750316D01*
X213748500Y-95688134D01*
X213748500Y-94391866D01*
X213741745Y-94329684D01*
X213690615Y-94193295D01*
X213603261Y-94076739D01*
X213486705Y-93989385D01*
X213350316Y-93938255D01*
X213288134Y-93931500D01*
X212560969Y-93931500D01*
X212492848Y-93911498D01*
X212446355Y-93857842D01*
X212435659Y-93818671D01*
X212419732Y-93667135D01*
X212419732Y-93667133D01*
X212419042Y-93660572D01*
X212360027Y-93478944D01*
X212264540Y-93313556D01*
X212212726Y-93256010D01*
X212141175Y-93176545D01*
X212141174Y-93176544D01*
X212136753Y-93171634D01*
X211982252Y-93059382D01*
X211976224Y-93056698D01*
X211976222Y-93056697D01*
X211827547Y-92990503D01*
X212994326Y-92990503D01*
X212999607Y-92997558D01*
X213187821Y-93107541D01*
X213197108Y-93111991D01*
X213409861Y-93193233D01*
X213419763Y-93196110D01*
X213642911Y-93241510D01*
X213653163Y-93242733D01*
X213880738Y-93251077D01*
X213891024Y-93250610D01*
X214116915Y-93221673D01*
X214127001Y-93219530D01*
X214345128Y-93154088D01*
X214354723Y-93150328D01*
X214559237Y-93050137D01*
X214568083Y-93044863D01*
X214633631Y-92998108D01*
X214642032Y-92987408D01*
X214635045Y-92974256D01*
X213832811Y-92172021D01*
X213818868Y-92164408D01*
X213817034Y-92164539D01*
X213810420Y-92168790D01*
X213001083Y-92978128D01*
X212994326Y-92990503D01*
X211827547Y-92990503D01*
X211813819Y-92984391D01*
X211813818Y-92984391D01*
X211807788Y-92981706D01*
X211703859Y-92959615D01*
X211627444Y-92943372D01*
X211627439Y-92943372D01*
X211620987Y-92942000D01*
X211550801Y-92942000D01*
X211482680Y-92921998D01*
X211441682Y-92879000D01*
X211392661Y-92794094D01*
X211389360Y-92788376D01*
X211360843Y-92756704D01*
X211265995Y-92651365D01*
X211265994Y-92651364D01*
X211261573Y-92646454D01*
X211126732Y-92548486D01*
X211112414Y-92538083D01*
X211112413Y-92538082D01*
X211107072Y-92534202D01*
X211101044Y-92531518D01*
X211101042Y-92531517D01*
X210938639Y-92459211D01*
X210938638Y-92459211D01*
X210932608Y-92456526D01*
X210823645Y-92433365D01*
X210752264Y-92418192D01*
X210752259Y-92418192D01*
X210745807Y-92416820D01*
X210689915Y-92416820D01*
X210621794Y-92396818D01*
X210600820Y-92379915D01*
X210303652Y-92082747D01*
X210296112Y-92074461D01*
X210292000Y-92067982D01*
X210286222Y-92062557D01*
X210281169Y-92056448D01*
X210282795Y-92055103D01*
X210252384Y-92003336D01*
X210249277Y-91985709D01*
X210248238Y-91975692D01*
X210248237Y-91975688D01*
X210247526Y-91968834D01*
X210232142Y-91922721D01*
X210194559Y-91810072D01*
X210191550Y-91801054D01*
X210098478Y-91650652D01*
X210011891Y-91564216D01*
X209977812Y-91501934D01*
X209982815Y-91431114D01*
X210011736Y-91386025D01*
X210094134Y-91303483D01*
X210099305Y-91298303D01*
X210103146Y-91292072D01*
X210188275Y-91153968D01*
X210188276Y-91153966D01*
X210192115Y-91147738D01*
X210240711Y-91001226D01*
X210241118Y-91000000D01*
X211336496Y-91000000D01*
X211337186Y-91006565D01*
X211353996Y-91166500D01*
X211356458Y-91189928D01*
X211415473Y-91371556D01*
X211418776Y-91377278D01*
X211418777Y-91377279D01*
X211445450Y-91423478D01*
X211510960Y-91536944D01*
X211515378Y-91541851D01*
X211515379Y-91541852D01*
X211583269Y-91617251D01*
X211638747Y-91678866D01*
X211793248Y-91791118D01*
X211799276Y-91793802D01*
X211799278Y-91793803D01*
X211850560Y-91816635D01*
X211967712Y-91868794D01*
X212042680Y-91884729D01*
X212148056Y-91907128D01*
X212148061Y-91907128D01*
X212154513Y-91908500D01*
X212259499Y-91908500D01*
X212327620Y-91928502D01*
X212374113Y-91982158D01*
X212382416Y-92006799D01*
X212432580Y-92229393D01*
X212435659Y-92239221D01*
X212521338Y-92450223D01*
X212525991Y-92459434D01*
X212621153Y-92614723D01*
X212631611Y-92624185D01*
X212640387Y-92620402D01*
X213459658Y-91801132D01*
X214184408Y-91801132D01*
X214184539Y-91802966D01*
X214188790Y-91809580D01*
X214994826Y-92615615D01*
X215008096Y-92622861D01*
X215070005Y-92599078D01*
X215139523Y-92613490D01*
X215181899Y-92650245D01*
X215184574Y-92653899D01*
X215187274Y-92658306D01*
X215190655Y-92662209D01*
X215190659Y-92662214D01*
X215247005Y-92727261D01*
X215343204Y-92838317D01*
X215526442Y-92990444D01*
X215530894Y-92993046D01*
X215530899Y-92993049D01*
X215660973Y-93069058D01*
X215732065Y-93110601D01*
X215954552Y-93195560D01*
X215959618Y-93196591D01*
X215959619Y-93196591D01*
X215986097Y-93201978D01*
X216187928Y-93243041D01*
X216321284Y-93247931D01*
X216420760Y-93251579D01*
X216420764Y-93251579D01*
X216425924Y-93251768D01*
X216431044Y-93251112D01*
X216431046Y-93251112D01*
X216657023Y-93222164D01*
X216657024Y-93222164D01*
X216662151Y-93221507D01*
X216746803Y-93196110D01*
X216885316Y-93154554D01*
X216885317Y-93154553D01*
X216890262Y-93153070D01*
X217104133Y-93048295D01*
X217108336Y-93045297D01*
X217108341Y-93045294D01*
X217293816Y-92912996D01*
X217293818Y-92912994D01*
X217298020Y-92909997D01*
X217466716Y-92741889D01*
X217524979Y-92660807D01*
X217580972Y-92617160D01*
X217651676Y-92610714D01*
X217714640Y-92643516D01*
X217726582Y-92657176D01*
X217727274Y-92658306D01*
X217883204Y-92838317D01*
X218066442Y-92990444D01*
X218070894Y-92993046D01*
X218070899Y-92993049D01*
X218200973Y-93069058D01*
X218272065Y-93110601D01*
X218494552Y-93195560D01*
X218499618Y-93196591D01*
X218499619Y-93196591D01*
X218526097Y-93201978D01*
X218727928Y-93243041D01*
X218861284Y-93247931D01*
X218960760Y-93251579D01*
X218960764Y-93251579D01*
X218965924Y-93251768D01*
X218971044Y-93251112D01*
X218971046Y-93251112D01*
X219090360Y-93235828D01*
X219160471Y-93247013D01*
X219213404Y-93294326D01*
X219228423Y-93350260D01*
X219231780Y-93349943D01*
X219235941Y-93393961D01*
X219236500Y-93405819D01*
X219236500Y-93853219D01*
X219216498Y-93921340D01*
X219176803Y-93960363D01*
X219045652Y-94041522D01*
X218961151Y-94126171D01*
X218959216Y-94128109D01*
X218896934Y-94162188D01*
X218826114Y-94157185D01*
X218781025Y-94128264D01*
X218698483Y-94045866D01*
X218693303Y-94040695D01*
X218604950Y-93986233D01*
X218548968Y-93951725D01*
X218548966Y-93951724D01*
X218542738Y-93947885D01*
X218428991Y-93910157D01*
X218381389Y-93894368D01*
X218381387Y-93894368D01*
X218374861Y-93892203D01*
X218368025Y-93891503D01*
X218368022Y-93891502D01*
X218312348Y-93885798D01*
X218270400Y-93881500D01*
X217469600Y-93881500D01*
X217466354Y-93881837D01*
X217466350Y-93881837D01*
X217370692Y-93891762D01*
X217370688Y-93891763D01*
X217363834Y-93892474D01*
X217357298Y-93894655D01*
X217357296Y-93894655D01*
X217306812Y-93911498D01*
X217196054Y-93948450D01*
X217045652Y-94041522D01*
X217040479Y-94046704D01*
X217034742Y-94051251D01*
X217033621Y-94049836D01*
X216979555Y-94079413D01*
X216908736Y-94074404D01*
X216877110Y-94057140D01*
X216856271Y-94041522D01*
X216786705Y-93989385D01*
X216650316Y-93938255D01*
X216588134Y-93931500D01*
X215591866Y-93931500D01*
X215529684Y-93938255D01*
X215393295Y-93989385D01*
X215276739Y-94076739D01*
X215189385Y-94193295D01*
X215138255Y-94329684D01*
X215131500Y-94391866D01*
X215131500Y-95688134D01*
X215138255Y-95750316D01*
X215189385Y-95886705D01*
X215276739Y-96003261D01*
X215393295Y-96090615D01*
X215529684Y-96141745D01*
X215591866Y-96148500D01*
X216588134Y-96148500D01*
X216650316Y-96141745D01*
X216786705Y-96090615D01*
X216820009Y-96065655D01*
X216886515Y-96040807D01*
X216955898Y-96055860D01*
X216984591Y-96077308D01*
X217046697Y-96139305D01*
X217052927Y-96143145D01*
X217052928Y-96143146D01*
X217190090Y-96227694D01*
X217197262Y-96232115D01*
X217254832Y-96251210D01*
X217358611Y-96285632D01*
X217358613Y-96285632D01*
X217365139Y-96287797D01*
X217371975Y-96288497D01*
X217371978Y-96288498D01*
X217415031Y-96292909D01*
X217469600Y-96298500D01*
X218270400Y-96298500D01*
X218273646Y-96298163D01*
X218273650Y-96298163D01*
X218369308Y-96288238D01*
X218369312Y-96288237D01*
X218376166Y-96287526D01*
X218382702Y-96285345D01*
X218382704Y-96285345D01*
X218524445Y-96238056D01*
X218543946Y-96231550D01*
X218694348Y-96138478D01*
X218780784Y-96051891D01*
X218843066Y-96017812D01*
X218913886Y-96022815D01*
X218958975Y-96051736D01*
X219003032Y-96095716D01*
X219046697Y-96139305D01*
X219052927Y-96143145D01*
X219052928Y-96143146D01*
X219190090Y-96227694D01*
X219197262Y-96232115D01*
X219254832Y-96251210D01*
X219358611Y-96285632D01*
X219358613Y-96285632D01*
X219365139Y-96287797D01*
X219371975Y-96288497D01*
X219371978Y-96288498D01*
X219415031Y-96292909D01*
X219469600Y-96298500D01*
X219554220Y-96298500D01*
X219622341Y-96318502D01*
X219668834Y-96372158D01*
X219678938Y-96442432D01*
X219663338Y-96487501D01*
X219650307Y-96510072D01*
X219645473Y-96518444D01*
X219586458Y-96700072D01*
X219566496Y-96890000D01*
X219567186Y-96896565D01*
X219584918Y-97065271D01*
X219586458Y-97079928D01*
X219645473Y-97261556D01*
X219740960Y-97426944D01*
X219745378Y-97431851D01*
X219745379Y-97431852D01*
X219828800Y-97524500D01*
X219868747Y-97568866D01*
X219967843Y-97640864D01*
X219973765Y-97645166D01*
X220023248Y-97681118D01*
X220029276Y-97683802D01*
X220029278Y-97683803D01*
X220191681Y-97756109D01*
X220197712Y-97758794D01*
X220291113Y-97778647D01*
X220378056Y-97797128D01*
X220378061Y-97797128D01*
X220384513Y-97798500D01*
X220575487Y-97798500D01*
X220581939Y-97797128D01*
X220581944Y-97797128D01*
X220668887Y-97778647D01*
X220762288Y-97758794D01*
X220768319Y-97756109D01*
X220930722Y-97683803D01*
X220930724Y-97683802D01*
X220936752Y-97681118D01*
X220986236Y-97645166D01*
X220992157Y-97640864D01*
X221091253Y-97568866D01*
X221131200Y-97524500D01*
X221214621Y-97431852D01*
X221214622Y-97431851D01*
X221219040Y-97426944D01*
X221314527Y-97261556D01*
X221373542Y-97079928D01*
X221375083Y-97065271D01*
X221392814Y-96896565D01*
X221393504Y-96890000D01*
X221373542Y-96700072D01*
X221371499Y-96693785D01*
X221370932Y-96691117D01*
X221376332Y-96620326D01*
X221405083Y-96575821D01*
X221550270Y-96430634D01*
X221612582Y-96396608D01*
X221639365Y-96393729D01*
X222455000Y-96393729D01*
X222456964Y-96393605D01*
X222456968Y-96393605D01*
X222513080Y-96390066D01*
X222513084Y-96390065D01*
X222519557Y-96389657D01*
X222565232Y-96377075D01*
X222616624Y-96373833D01*
X222755000Y-96393729D01*
X223905000Y-96393729D01*
X223936986Y-96391441D01*
X223971373Y-96388982D01*
X223971374Y-96388982D01*
X223978111Y-96388500D01*
X224057618Y-96365155D01*
X224109765Y-96349843D01*
X224109767Y-96349842D01*
X224118411Y-96347304D01*
X224163228Y-96318502D01*
X224233841Y-96273122D01*
X224233844Y-96273120D01*
X224241421Y-96268250D01*
X224256186Y-96251210D01*
X224331274Y-96164555D01*
X224331276Y-96164552D01*
X224337176Y-96157743D01*
X224343842Y-96143146D01*
X224394177Y-96032929D01*
X224394178Y-96032926D01*
X224397919Y-96024734D01*
X224399201Y-96015817D01*
X224401027Y-96009598D01*
X224439410Y-95949872D01*
X224503991Y-95920379D01*
X224573171Y-95929989D01*
X224721677Y-95996108D01*
X224721685Y-95996111D01*
X224727712Y-95998794D01*
X224817184Y-96017812D01*
X224908056Y-96037128D01*
X224908061Y-96037128D01*
X224914513Y-96038500D01*
X225105487Y-96038500D01*
X225111939Y-96037128D01*
X225111944Y-96037128D01*
X225202816Y-96017812D01*
X225292288Y-95998794D01*
X225300969Y-95994929D01*
X225460722Y-95923803D01*
X225460724Y-95923802D01*
X225466752Y-95921118D01*
X225621253Y-95808866D01*
X225667310Y-95757715D01*
X225744621Y-95671852D01*
X225744622Y-95671851D01*
X225749040Y-95666944D01*
X225844527Y-95501556D01*
X225903542Y-95319928D01*
X225923504Y-95130000D01*
X225908116Y-94983588D01*
X225904232Y-94946635D01*
X225904232Y-94946633D01*
X225903542Y-94940072D01*
X225844527Y-94758444D01*
X225749040Y-94593056D01*
X225739228Y-94582158D01*
X225625675Y-94456045D01*
X225625674Y-94456044D01*
X225621253Y-94451134D01*
X225466752Y-94338882D01*
X225460724Y-94336198D01*
X225460722Y-94336197D01*
X225298319Y-94263891D01*
X225298318Y-94263891D01*
X225292288Y-94261206D01*
X225198888Y-94241353D01*
X225111944Y-94222872D01*
X225111939Y-94222872D01*
X225105487Y-94221500D01*
X224914513Y-94221500D01*
X224908061Y-94222872D01*
X224908056Y-94222872D01*
X224821112Y-94241353D01*
X224727712Y-94261206D01*
X224721682Y-94263891D01*
X224721681Y-94263891D01*
X224569534Y-94331631D01*
X224499167Y-94341065D01*
X224434870Y-94310958D01*
X224397390Y-94252024D01*
X224382614Y-94201703D01*
X224374843Y-94175235D01*
X224374842Y-94175233D01*
X224372304Y-94166589D01*
X224346329Y-94126171D01*
X224298122Y-94051159D01*
X224298120Y-94051156D01*
X224293250Y-94043579D01*
X224285489Y-94036854D01*
X224189555Y-93953726D01*
X224189552Y-93953724D01*
X224182743Y-93947824D01*
X224049734Y-93887081D01*
X224040561Y-93885762D01*
X224010918Y-93881500D01*
X223905000Y-93866271D01*
X222755000Y-93866271D01*
X222752487Y-93866472D01*
X222752486Y-93866472D01*
X222680353Y-93872240D01*
X222680350Y-93872241D01*
X222673355Y-93872800D01*
X222666657Y-93874890D01*
X222666655Y-93874890D01*
X222646019Y-93881328D01*
X222590562Y-93885762D01*
X222514945Y-93874890D01*
X222455000Y-93866271D01*
X221455000Y-93866271D01*
X221446024Y-93866913D01*
X221388627Y-93871018D01*
X221388626Y-93871018D01*
X221381889Y-93871500D01*
X221304008Y-93894368D01*
X221250235Y-93910157D01*
X221250233Y-93910158D01*
X221241589Y-93912696D01*
X221214718Y-93929965D01*
X221126159Y-93986878D01*
X221126156Y-93986880D01*
X221118579Y-93991750D01*
X221112678Y-93998560D01*
X221028726Y-94095445D01*
X221028724Y-94095448D01*
X221022824Y-94102257D01*
X221019080Y-94110454D01*
X221019080Y-94110455D01*
X221014268Y-94120992D01*
X220967775Y-94174648D01*
X220899654Y-94194650D01*
X220831533Y-94174648D01*
X220810636Y-94157823D01*
X220698484Y-94045866D01*
X220698479Y-94045862D01*
X220693303Y-94040695D01*
X220613900Y-93991750D01*
X220563384Y-93960611D01*
X220515890Y-93907838D01*
X220503500Y-93853351D01*
X220503500Y-93684594D01*
X220523502Y-93616473D01*
X220540405Y-93595499D01*
X220909203Y-93226701D01*
X220971515Y-93192675D01*
X221032474Y-93194766D01*
X221034552Y-93195560D01*
X221267928Y-93243041D01*
X221401284Y-93247931D01*
X221500760Y-93251579D01*
X221500764Y-93251579D01*
X221505924Y-93251768D01*
X221511044Y-93251112D01*
X221511046Y-93251112D01*
X221737023Y-93222164D01*
X221737024Y-93222164D01*
X221742151Y-93221507D01*
X221826803Y-93196110D01*
X221965316Y-93154554D01*
X221965317Y-93154553D01*
X221970262Y-93153070D01*
X222184133Y-93048295D01*
X222188336Y-93045297D01*
X222188341Y-93045294D01*
X222373816Y-92912996D01*
X222373818Y-92912994D01*
X222378020Y-92909997D01*
X222546716Y-92741889D01*
X222604979Y-92660807D01*
X222660972Y-92617160D01*
X222731676Y-92610714D01*
X222794640Y-92643516D01*
X222806582Y-92657176D01*
X222807274Y-92658306D01*
X222963204Y-92838317D01*
X223146442Y-92990444D01*
X223150894Y-92993046D01*
X223150899Y-92993049D01*
X223280973Y-93069058D01*
X223352065Y-93110601D01*
X223574552Y-93195560D01*
X223579618Y-93196591D01*
X223579619Y-93196591D01*
X223606097Y-93201978D01*
X223807928Y-93243041D01*
X223941284Y-93247931D01*
X224040760Y-93251579D01*
X224040764Y-93251579D01*
X224045924Y-93251768D01*
X224051044Y-93251112D01*
X224051046Y-93251112D01*
X224277023Y-93222164D01*
X224277024Y-93222164D01*
X224282151Y-93221507D01*
X224366803Y-93196110D01*
X224505316Y-93154554D01*
X224505317Y-93154553D01*
X224510262Y-93153070D01*
X224724133Y-93048295D01*
X224728336Y-93045297D01*
X224728341Y-93045294D01*
X224913810Y-92913000D01*
X224918020Y-92909997D01*
X224920601Y-92907425D01*
X224985135Y-92878913D01*
X225055278Y-92889886D01*
X225108355Y-92937039D01*
X225119502Y-92959610D01*
X225129585Y-92986505D01*
X225216939Y-93103061D01*
X225333495Y-93190415D01*
X225469884Y-93241545D01*
X225532066Y-93248300D01*
X227507934Y-93248300D01*
X227570116Y-93241545D01*
X227706505Y-93190415D01*
X227823061Y-93103061D01*
X227910415Y-92986505D01*
X227961545Y-92850116D01*
X227968300Y-92787934D01*
X227968300Y-90812066D01*
X227961545Y-90749884D01*
X227910415Y-90613495D01*
X227823061Y-90496939D01*
X227706505Y-90409585D01*
X227570116Y-90358455D01*
X227507934Y-90351700D01*
X225532066Y-90351700D01*
X225469884Y-90358455D01*
X225333495Y-90409585D01*
X225216939Y-90496939D01*
X225129585Y-90613495D01*
X225126433Y-90621903D01*
X225118218Y-90643816D01*
X225075576Y-90700580D01*
X225009014Y-90725280D01*
X224939666Y-90710072D01*
X224922144Y-90698468D01*
X224788278Y-90592747D01*
X224788273Y-90592744D01*
X224784224Y-90589546D01*
X224779708Y-90587053D01*
X224779705Y-90587051D01*
X224580250Y-90476946D01*
X224580246Y-90476944D01*
X224575726Y-90474449D01*
X224570857Y-90472725D01*
X224570853Y-90472723D01*
X224356105Y-90396676D01*
X224356101Y-90396675D01*
X224351230Y-90394950D01*
X224346140Y-90394043D01*
X224346135Y-90394042D01*
X224218814Y-90371364D01*
X224116764Y-90353186D01*
X224025355Y-90352069D01*
X223883795Y-90350339D01*
X223883793Y-90350339D01*
X223878625Y-90350276D01*
X223643209Y-90386300D01*
X223416838Y-90460289D01*
X223357616Y-90491118D01*
X223244740Y-90549878D01*
X223205590Y-90570258D01*
X223201457Y-90573361D01*
X223201454Y-90573363D01*
X223019375Y-90710072D01*
X223015140Y-90713252D01*
X222850602Y-90885431D01*
X222816936Y-90934784D01*
X222815186Y-90937349D01*
X222760274Y-90982351D01*
X222689749Y-90990522D01*
X222626002Y-90959267D01*
X222605306Y-90934784D01*
X222594217Y-90917642D01*
X222594212Y-90917636D01*
X222591406Y-90913298D01*
X222574228Y-90894419D01*
X222529411Y-90845166D01*
X222431124Y-90737150D01*
X222427073Y-90733951D01*
X222427069Y-90733947D01*
X222248278Y-90592747D01*
X222248273Y-90592744D01*
X222244224Y-90589546D01*
X222239708Y-90587053D01*
X222239705Y-90587051D01*
X222040250Y-90476946D01*
X222040246Y-90476944D01*
X222035726Y-90474449D01*
X222030857Y-90472725D01*
X222030853Y-90472723D01*
X221816105Y-90396676D01*
X221816101Y-90396675D01*
X221811230Y-90394950D01*
X221806140Y-90394043D01*
X221806135Y-90394042D01*
X221678814Y-90371364D01*
X221576764Y-90353186D01*
X221485355Y-90352069D01*
X221343795Y-90350339D01*
X221343793Y-90350339D01*
X221338625Y-90350276D01*
X221103209Y-90386300D01*
X220876838Y-90460289D01*
X220817616Y-90491118D01*
X220704740Y-90549878D01*
X220665590Y-90570258D01*
X220661457Y-90573361D01*
X220661454Y-90573363D01*
X220479375Y-90710072D01*
X220475140Y-90713252D01*
X220310602Y-90885431D01*
X220276936Y-90934784D01*
X220275186Y-90937349D01*
X220220274Y-90982351D01*
X220149749Y-90990522D01*
X220086002Y-90959267D01*
X220065306Y-90934784D01*
X220054217Y-90917642D01*
X220054212Y-90917636D01*
X220051406Y-90913298D01*
X220034228Y-90894419D01*
X219989411Y-90845166D01*
X219891124Y-90737150D01*
X219887073Y-90733951D01*
X219887069Y-90733947D01*
X219708278Y-90592747D01*
X219708273Y-90592744D01*
X219704224Y-90589546D01*
X219699708Y-90587053D01*
X219699705Y-90587051D01*
X219500250Y-90476946D01*
X219500246Y-90476944D01*
X219495726Y-90474449D01*
X219490857Y-90472725D01*
X219490853Y-90472723D01*
X219276105Y-90396676D01*
X219276101Y-90396675D01*
X219271230Y-90394950D01*
X219266140Y-90394043D01*
X219266135Y-90394042D01*
X219138814Y-90371364D01*
X219036764Y-90353186D01*
X218945355Y-90352069D01*
X218803795Y-90350339D01*
X218803793Y-90350339D01*
X218798625Y-90350276D01*
X218563209Y-90386300D01*
X218336838Y-90460289D01*
X218277616Y-90491118D01*
X218164740Y-90549878D01*
X218125590Y-90570258D01*
X218121457Y-90573361D01*
X218121454Y-90573363D01*
X217939375Y-90710072D01*
X217935140Y-90713252D01*
X217770602Y-90885431D01*
X217736936Y-90934784D01*
X217735186Y-90937349D01*
X217680274Y-90982351D01*
X217609749Y-90990522D01*
X217546002Y-90959267D01*
X217525306Y-90934784D01*
X217514217Y-90917642D01*
X217514212Y-90917636D01*
X217511406Y-90913298D01*
X217494228Y-90894419D01*
X217449411Y-90845166D01*
X217351124Y-90737150D01*
X217347073Y-90733951D01*
X217347069Y-90733947D01*
X217168278Y-90592747D01*
X217168273Y-90592744D01*
X217164224Y-90589546D01*
X217159708Y-90587053D01*
X217159705Y-90587051D01*
X216960250Y-90476946D01*
X216960246Y-90476944D01*
X216955726Y-90474449D01*
X216950857Y-90472725D01*
X216950853Y-90472723D01*
X216736105Y-90396676D01*
X216736101Y-90396675D01*
X216731230Y-90394950D01*
X216726140Y-90394043D01*
X216726135Y-90394042D01*
X216598814Y-90371364D01*
X216496764Y-90353186D01*
X216405355Y-90352069D01*
X216263795Y-90350339D01*
X216263793Y-90350339D01*
X216258625Y-90350276D01*
X216023209Y-90386300D01*
X215796838Y-90460289D01*
X215737616Y-90491118D01*
X215624740Y-90549878D01*
X215585590Y-90570258D01*
X215581457Y-90573361D01*
X215581454Y-90573363D01*
X215399375Y-90710072D01*
X215395140Y-90713252D01*
X215230602Y-90885431D01*
X215188064Y-90947790D01*
X215133155Y-90992790D01*
X215062631Y-91000961D01*
X215010940Y-90976588D01*
X215008940Y-90976307D01*
X214997755Y-90981456D01*
X214192021Y-91787189D01*
X214184408Y-91801132D01*
X213459658Y-91801132D01*
X213820000Y-91440790D01*
X214637329Y-90623460D01*
X214644348Y-90610606D01*
X214636575Y-90599938D01*
X214628004Y-90593169D01*
X214619417Y-90587464D01*
X214420055Y-90477410D01*
X214410643Y-90473180D01*
X214195971Y-90397160D01*
X214186014Y-90394530D01*
X213961805Y-90354591D01*
X213951554Y-90353622D01*
X213723830Y-90350840D01*
X213713546Y-90351560D01*
X213488437Y-90386006D01*
X213478410Y-90388395D01*
X213261951Y-90459144D01*
X213252437Y-90463144D01*
X213156938Y-90512857D01*
X213087278Y-90526570D01*
X213021263Y-90500445D01*
X212997536Y-90473165D01*
X212996224Y-90474118D01*
X212992341Y-90468774D01*
X212989040Y-90463056D01*
X212940435Y-90409074D01*
X212865675Y-90326045D01*
X212865674Y-90326044D01*
X212861253Y-90321134D01*
X212706752Y-90208882D01*
X212700724Y-90206198D01*
X212700722Y-90206197D01*
X212538319Y-90133891D01*
X212538318Y-90133891D01*
X212532288Y-90131206D01*
X212438888Y-90111353D01*
X212351944Y-90092872D01*
X212351939Y-90092872D01*
X212345487Y-90091500D01*
X212154513Y-90091500D01*
X212148061Y-90092872D01*
X212148056Y-90092872D01*
X212061113Y-90111353D01*
X211967712Y-90131206D01*
X211961682Y-90133891D01*
X211961681Y-90133891D01*
X211799278Y-90206197D01*
X211799276Y-90206198D01*
X211793248Y-90208882D01*
X211638747Y-90321134D01*
X211634326Y-90326044D01*
X211634325Y-90326045D01*
X211559566Y-90409074D01*
X211510960Y-90463056D01*
X211415473Y-90628444D01*
X211356458Y-90810072D01*
X211355768Y-90816633D01*
X211355768Y-90816635D01*
X211348300Y-90887694D01*
X211336496Y-91000000D01*
X210241118Y-91000000D01*
X210245632Y-90986389D01*
X210245632Y-90986387D01*
X210247797Y-90979861D01*
X210248768Y-90970390D01*
X210257670Y-90883500D01*
X210258500Y-90875400D01*
X210258500Y-90074600D01*
X210255711Y-90047721D01*
X210248238Y-89975692D01*
X210248237Y-89975688D01*
X210247526Y-89968834D01*
X210244489Y-89959729D01*
X210193868Y-89808002D01*
X210191550Y-89801054D01*
X210098478Y-89650652D01*
X209973303Y-89525695D01*
X209955083Y-89514464D01*
X209828968Y-89436725D01*
X209828966Y-89436724D01*
X209822738Y-89432885D01*
X209713034Y-89396498D01*
X209661389Y-89379368D01*
X209661387Y-89379368D01*
X209654861Y-89377203D01*
X209648025Y-89376503D01*
X209648022Y-89376502D01*
X209598936Y-89371473D01*
X209550400Y-89366500D01*
X208549600Y-89366500D01*
X208546354Y-89366837D01*
X208546350Y-89366837D01*
X208450692Y-89376762D01*
X208450688Y-89376763D01*
X208443834Y-89377474D01*
X208437298Y-89379655D01*
X208437296Y-89379655D01*
X208340674Y-89411891D01*
X208276054Y-89433450D01*
X208125652Y-89526522D01*
X208120479Y-89531704D01*
X208017316Y-89635047D01*
X207955034Y-89669126D01*
X207884213Y-89664123D01*
X207876895Y-89661136D01*
X207748323Y-89603892D01*
X207748315Y-89603889D01*
X207742288Y-89601206D01*
X207637380Y-89578907D01*
X207561944Y-89562872D01*
X207561939Y-89562872D01*
X207555487Y-89561500D01*
X207364513Y-89561500D01*
X207358061Y-89562872D01*
X207358056Y-89562872D01*
X207282620Y-89578907D01*
X207177712Y-89601206D01*
X207171682Y-89603891D01*
X207171681Y-89603891D01*
X207009278Y-89676197D01*
X207009276Y-89676198D01*
X207003248Y-89678882D01*
X206997907Y-89682762D01*
X206997906Y-89682763D01*
X206974182Y-89700000D01*
X206848747Y-89791134D01*
X206844326Y-89796044D01*
X206844325Y-89796045D01*
X206756330Y-89893774D01*
X206720960Y-89933056D01*
X206704078Y-89962296D01*
X206657233Y-90043435D01*
X206625473Y-90098444D01*
X206566458Y-90280072D01*
X206565768Y-90286633D01*
X206565768Y-90286635D01*
X206552846Y-90409585D01*
X206546496Y-90470000D01*
X206547186Y-90476565D01*
X206564765Y-90643816D01*
X206566458Y-90659928D01*
X206625473Y-90841556D01*
X206628776Y-90847278D01*
X206628777Y-90847279D01*
X206662686Y-90906010D01*
X206720960Y-91006944D01*
X206725378Y-91011851D01*
X206725379Y-91011852D01*
X206832846Y-91131206D01*
X206848747Y-91148866D01*
X207003248Y-91261118D01*
X207009276Y-91263802D01*
X207009278Y-91263803D01*
X207165821Y-91333500D01*
X207177712Y-91338794D01*
X207271113Y-91358647D01*
X207358056Y-91377128D01*
X207358061Y-91377128D01*
X207364513Y-91378500D01*
X207555487Y-91378500D01*
X207561939Y-91377128D01*
X207561944Y-91377128D01*
X207648888Y-91358647D01*
X207742288Y-91338794D01*
X207869855Y-91281998D01*
X207940221Y-91272564D01*
X208004518Y-91302670D01*
X208010121Y-91307932D01*
X208086213Y-91383891D01*
X208088109Y-91385784D01*
X208122188Y-91448066D01*
X208117185Y-91518886D01*
X208088264Y-91563975D01*
X208017633Y-91634729D01*
X208000695Y-91651697D01*
X207996855Y-91657927D01*
X207996854Y-91657928D01*
X207917147Y-91787237D01*
X207907885Y-91802262D01*
X207905581Y-91809209D01*
X207866033Y-91928444D01*
X207852203Y-91970139D01*
X207851503Y-91976975D01*
X207851502Y-91976978D01*
X207849816Y-91993435D01*
X207841500Y-92074600D01*
X207841500Y-92565500D01*
X207821498Y-92633621D01*
X207767842Y-92680114D01*
X207715500Y-92691500D01*
X207529513Y-92691500D01*
X207523061Y-92692872D01*
X207523056Y-92692872D01*
X207436113Y-92711353D01*
X207342712Y-92731206D01*
X207241660Y-92776197D01*
X207171294Y-92785631D01*
X207106997Y-92755525D01*
X207069183Y-92695436D01*
X207070579Y-92622154D01*
X207110448Y-92499449D01*
X207113542Y-92489928D01*
X207116771Y-92459211D01*
X207132814Y-92306565D01*
X207133504Y-92300000D01*
X207120053Y-92172021D01*
X207114232Y-92116635D01*
X207114232Y-92116633D01*
X207113542Y-92110072D01*
X207054527Y-91928444D01*
X206959040Y-91763056D01*
X206919169Y-91718774D01*
X206835675Y-91626045D01*
X206835674Y-91626044D01*
X206831253Y-91621134D01*
X206699893Y-91525695D01*
X206682094Y-91512763D01*
X206682093Y-91512762D01*
X206676752Y-91508882D01*
X206670724Y-91506198D01*
X206670722Y-91506197D01*
X206508319Y-91433891D01*
X206508318Y-91433891D01*
X206502288Y-91431206D01*
X206408887Y-91411353D01*
X206321944Y-91392872D01*
X206321939Y-91392872D01*
X206315487Y-91391500D01*
X206124513Y-91391500D01*
X206118061Y-91392872D01*
X206118056Y-91392872D01*
X206031113Y-91411353D01*
X205937712Y-91431206D01*
X205931682Y-91433891D01*
X205931681Y-91433891D01*
X205864383Y-91463854D01*
X205794016Y-91473288D01*
X205729719Y-91443181D01*
X205719512Y-91433072D01*
X205686253Y-91396134D01*
X205564854Y-91307932D01*
X205537094Y-91287763D01*
X205537093Y-91287762D01*
X205531752Y-91283882D01*
X205525724Y-91281198D01*
X205525722Y-91281197D01*
X205363319Y-91208891D01*
X205363318Y-91208891D01*
X205357288Y-91206206D01*
X205263887Y-91186353D01*
X205176944Y-91167872D01*
X205176939Y-91167872D01*
X205170487Y-91166500D01*
X204979513Y-91166500D01*
X204973061Y-91167872D01*
X204973056Y-91167872D01*
X204886113Y-91186353D01*
X204792712Y-91206206D01*
X204786682Y-91208891D01*
X204786681Y-91208891D01*
X204624278Y-91281197D01*
X204624276Y-91281198D01*
X204618248Y-91283882D01*
X204612907Y-91287762D01*
X204612906Y-91287763D01*
X204585146Y-91307932D01*
X204463747Y-91396134D01*
X204459326Y-91401044D01*
X204459325Y-91401045D01*
X204407249Y-91458882D01*
X204335960Y-91538056D01*
X204314027Y-91576045D01*
X204257499Y-91673955D01*
X204240473Y-91703444D01*
X204181458Y-91885072D01*
X204180768Y-91891633D01*
X204180768Y-91891635D01*
X204171798Y-91976978D01*
X204161496Y-92075000D01*
X204181458Y-92264928D01*
X204183498Y-92271206D01*
X204233977Y-92426564D01*
X204236005Y-92497531D01*
X204199342Y-92558329D01*
X204135630Y-92589655D01*
X204114144Y-92591500D01*
X203574600Y-92591500D01*
X203571354Y-92591837D01*
X203571350Y-92591837D01*
X203475692Y-92601762D01*
X203475688Y-92601763D01*
X203468834Y-92602474D01*
X203462298Y-92604655D01*
X203462296Y-92604655D01*
X203337010Y-92646454D01*
X203301054Y-92658450D01*
X203150652Y-92751522D01*
X203025695Y-92876697D01*
X203021855Y-92882927D01*
X203021854Y-92882928D01*
X202952073Y-92996134D01*
X202932885Y-93027262D01*
X202923122Y-93056697D01*
X202889356Y-93158500D01*
X202877203Y-93195139D01*
X202876503Y-93201975D01*
X202876502Y-93201978D01*
X202868241Y-93282608D01*
X202841400Y-93348335D01*
X202783285Y-93389117D01*
X202712347Y-93392005D01*
X202649261Y-93354075D01*
X202560963Y-93256010D01*
X202560962Y-93256009D01*
X202556541Y-93251099D01*
X202423659Y-93154554D01*
X202407382Y-93142728D01*
X202407381Y-93142727D01*
X202402040Y-93138847D01*
X202396014Y-93136164D01*
X202396007Y-93136160D01*
X202339286Y-93110907D01*
X202285190Y-93064927D01*
X202264540Y-92997000D01*
X202283892Y-92928692D01*
X202296891Y-92911498D01*
X202409040Y-92786944D01*
X202483309Y-92658306D01*
X202501223Y-92627279D01*
X202501224Y-92627278D01*
X202504527Y-92621556D01*
X202563542Y-92439928D01*
X202583504Y-92250000D01*
X202577190Y-92189928D01*
X202564232Y-92066635D01*
X202564232Y-92066633D01*
X202563542Y-92060072D01*
X202504527Y-91878444D01*
X202497406Y-91866109D01*
X202454109Y-91791118D01*
X202409040Y-91713056D01*
X202400386Y-91703444D01*
X202285675Y-91576045D01*
X202285674Y-91576044D01*
X202281253Y-91571134D01*
X202140367Y-91468774D01*
X202132094Y-91462763D01*
X202132093Y-91462762D01*
X202126752Y-91458882D01*
X202120724Y-91456198D01*
X202120722Y-91456197D01*
X201958319Y-91383891D01*
X201958318Y-91383891D01*
X201952288Y-91381206D01*
X201858887Y-91361353D01*
X201771944Y-91342872D01*
X201771939Y-91342872D01*
X201765487Y-91341500D01*
X201574513Y-91341500D01*
X201568061Y-91342872D01*
X201568056Y-91342872D01*
X201433111Y-91371556D01*
X201387712Y-91381206D01*
X201381673Y-91383895D01*
X201381672Y-91383895D01*
X201348296Y-91398754D01*
X201277929Y-91408188D01*
X201213632Y-91378080D01*
X201203418Y-91367963D01*
X201161253Y-91321134D01*
X201020407Y-91218803D01*
X201012094Y-91212763D01*
X201012093Y-91212762D01*
X201006752Y-91208882D01*
X201000724Y-91206198D01*
X201000722Y-91206197D01*
X200985920Y-91199607D01*
X200931824Y-91153627D01*
X200911175Y-91085700D01*
X200930527Y-91017391D01*
X200983738Y-90970390D01*
X201037169Y-90958500D01*
X201825400Y-90958500D01*
X201828646Y-90958163D01*
X201828650Y-90958163D01*
X201924308Y-90948238D01*
X201924312Y-90948237D01*
X201931166Y-90947526D01*
X201937702Y-90945345D01*
X201937704Y-90945345D01*
X202069806Y-90901272D01*
X202098946Y-90891550D01*
X202249348Y-90798478D01*
X202374305Y-90673303D01*
X202386595Y-90653365D01*
X202463275Y-90528968D01*
X202463276Y-90528966D01*
X202467115Y-90522738D01*
X202504646Y-90409585D01*
X202520632Y-90361389D01*
X202520632Y-90361387D01*
X202522797Y-90354861D01*
X202525750Y-90326045D01*
X202530460Y-90280072D01*
X202533500Y-90250400D01*
X202533500Y-89439594D01*
X202553502Y-89371473D01*
X202570405Y-89350499D01*
X202800499Y-89120405D01*
X202862811Y-89086379D01*
X202889594Y-89083500D01*
X202945487Y-89083500D01*
X202951939Y-89082128D01*
X202951944Y-89082128D01*
X203049510Y-89061389D01*
X203132288Y-89043794D01*
X203138319Y-89041109D01*
X203300722Y-88968803D01*
X203300724Y-88968802D01*
X203306752Y-88966118D01*
X203461253Y-88853866D01*
X203481656Y-88831206D01*
X203584621Y-88716852D01*
X203584622Y-88716851D01*
X203589040Y-88711944D01*
X203606025Y-88682525D01*
X203657407Y-88633532D01*
X203715144Y-88619525D01*
X203830773Y-88619525D01*
X203837225Y-88618153D01*
X203837230Y-88618153D01*
X203946360Y-88594956D01*
X204017574Y-88579819D01*
X204074094Y-88554655D01*
X204186008Y-88504828D01*
X204186010Y-88504827D01*
X204192038Y-88502143D01*
X204198143Y-88497708D01*
X204338677Y-88395603D01*
X204346539Y-88389891D01*
X204461743Y-88261944D01*
X204469907Y-88252877D01*
X204469908Y-88252876D01*
X204474326Y-88247969D01*
X204550192Y-88116565D01*
X204553982Y-88110000D01*
X206935996Y-88110000D01*
X206936686Y-88116565D01*
X206952482Y-88266852D01*
X206955958Y-88299928D01*
X207014973Y-88481556D01*
X207018276Y-88487278D01*
X207018277Y-88487279D01*
X207028409Y-88504828D01*
X207110460Y-88646944D01*
X207114878Y-88651851D01*
X207114879Y-88651852D01*
X207216562Y-88764782D01*
X207238247Y-88788866D01*
X207392748Y-88901118D01*
X207398776Y-88903802D01*
X207398778Y-88903803D01*
X207561181Y-88976109D01*
X207567212Y-88978794D01*
X207660612Y-88998647D01*
X207747556Y-89017128D01*
X207747561Y-89017128D01*
X207754013Y-89018500D01*
X207944987Y-89018500D01*
X207951439Y-89017128D01*
X207951444Y-89017128D01*
X208038388Y-88998647D01*
X208131788Y-88978794D01*
X208137819Y-88976109D01*
X208300222Y-88903803D01*
X208300224Y-88903802D01*
X208306252Y-88901118D01*
X208460753Y-88788866D01*
X208482438Y-88764782D01*
X208584121Y-88651852D01*
X208584122Y-88651851D01*
X208588540Y-88646944D01*
X208591841Y-88641226D01*
X208595724Y-88635882D01*
X208596774Y-88636645D01*
X208643064Y-88592507D01*
X208700802Y-88578500D01*
X208845487Y-88578500D01*
X208851939Y-88577128D01*
X208851944Y-88577128D01*
X208959018Y-88554368D01*
X209032288Y-88538794D01*
X209038319Y-88536109D01*
X209200722Y-88463803D01*
X209200724Y-88463802D01*
X209206752Y-88461118D01*
X209213486Y-88456226D01*
X209249037Y-88430396D01*
X209315905Y-88406538D01*
X209374345Y-88417225D01*
X209467712Y-88458794D01*
X209545230Y-88475271D01*
X209648056Y-88497128D01*
X209648061Y-88497128D01*
X209654513Y-88498500D01*
X209845487Y-88498500D01*
X209851939Y-88497128D01*
X209851944Y-88497128D01*
X209954770Y-88475271D01*
X210032288Y-88458794D01*
X210038319Y-88456109D01*
X210200722Y-88383803D01*
X210200724Y-88383802D01*
X210206752Y-88381118D01*
X210361253Y-88268866D01*
X210463891Y-88154875D01*
X210484621Y-88131852D01*
X210484622Y-88131851D01*
X210489040Y-88126944D01*
X210547314Y-88026010D01*
X210581223Y-87967279D01*
X210581224Y-87967278D01*
X210584527Y-87961556D01*
X210596405Y-87925000D01*
X212061496Y-87925000D01*
X212062186Y-87931565D01*
X212080409Y-88104943D01*
X212081458Y-88114928D01*
X212140473Y-88296556D01*
X212235960Y-88461944D01*
X212240378Y-88466851D01*
X212240379Y-88466852D01*
X212353519Y-88592507D01*
X212363747Y-88603866D01*
X212518248Y-88716118D01*
X212524276Y-88718802D01*
X212524278Y-88718803D01*
X212670613Y-88783955D01*
X212692712Y-88793794D01*
X212786112Y-88813647D01*
X212873056Y-88832128D01*
X212873061Y-88832128D01*
X212879513Y-88833500D01*
X213070487Y-88833500D01*
X213076939Y-88832128D01*
X213076944Y-88832128D01*
X213163888Y-88813647D01*
X213257288Y-88793794D01*
X213279387Y-88783955D01*
X213425722Y-88718803D01*
X213425724Y-88718802D01*
X213431752Y-88716118D01*
X213586253Y-88603866D01*
X213596481Y-88592507D01*
X213709621Y-88466852D01*
X213709622Y-88466851D01*
X213714040Y-88461944D01*
X213809527Y-88296556D01*
X213868542Y-88114928D01*
X213869592Y-88104943D01*
X213887814Y-87931565D01*
X213888504Y-87925000D01*
X213878202Y-87826978D01*
X213869232Y-87741635D01*
X213869232Y-87741633D01*
X213868542Y-87735072D01*
X213809527Y-87553444D01*
X213790852Y-87521097D01*
X213757372Y-87463109D01*
X213714040Y-87388056D01*
X213705386Y-87378444D01*
X213590675Y-87251045D01*
X213590674Y-87251044D01*
X213586253Y-87246134D01*
X213445841Y-87144118D01*
X213437094Y-87137763D01*
X213437093Y-87137762D01*
X213431752Y-87133882D01*
X213425724Y-87131198D01*
X213425722Y-87131197D01*
X213263319Y-87058891D01*
X213263318Y-87058891D01*
X213257288Y-87056206D01*
X213163887Y-87036353D01*
X213076944Y-87017872D01*
X213076939Y-87017872D01*
X213070487Y-87016500D01*
X212879513Y-87016500D01*
X212873061Y-87017872D01*
X212873056Y-87017872D01*
X212786113Y-87036353D01*
X212692712Y-87056206D01*
X212686682Y-87058891D01*
X212686681Y-87058891D01*
X212524278Y-87131197D01*
X212524276Y-87131198D01*
X212518248Y-87133882D01*
X212512907Y-87137762D01*
X212512906Y-87137763D01*
X212504159Y-87144118D01*
X212363747Y-87246134D01*
X212359326Y-87251044D01*
X212359325Y-87251045D01*
X212244615Y-87378444D01*
X212235960Y-87388056D01*
X212192628Y-87463109D01*
X212159149Y-87521097D01*
X212140473Y-87553444D01*
X212081458Y-87735072D01*
X212080768Y-87741633D01*
X212080768Y-87741635D01*
X212071798Y-87826978D01*
X212061496Y-87925000D01*
X210596405Y-87925000D01*
X210643542Y-87779928D01*
X210648257Y-87735072D01*
X210662814Y-87596565D01*
X210663504Y-87590000D01*
X210661048Y-87566635D01*
X210644232Y-87406635D01*
X210644232Y-87406633D01*
X210643542Y-87400072D01*
X210584527Y-87218444D01*
X210575537Y-87202872D01*
X210532394Y-87128148D01*
X210489040Y-87053056D01*
X210482808Y-87046134D01*
X210369152Y-86919907D01*
X210361253Y-86911134D01*
X210238805Y-86822170D01*
X210212094Y-86802763D01*
X210212093Y-86802762D01*
X210206752Y-86798882D01*
X210200724Y-86796198D01*
X210200722Y-86796197D01*
X210038319Y-86723891D01*
X210038318Y-86723891D01*
X210032288Y-86721206D01*
X209938887Y-86701353D01*
X209851944Y-86682872D01*
X209851939Y-86682872D01*
X209845487Y-86681500D01*
X209654513Y-86681500D01*
X209648061Y-86682872D01*
X209648056Y-86682872D01*
X209561112Y-86701353D01*
X209467712Y-86721206D01*
X209461682Y-86723891D01*
X209461681Y-86723891D01*
X209299278Y-86796197D01*
X209299276Y-86796198D01*
X209293248Y-86798882D01*
X209287907Y-86802762D01*
X209287906Y-86802763D01*
X209268999Y-86816500D01*
X209267111Y-86817872D01*
X209250963Y-86829604D01*
X209184095Y-86853462D01*
X209125655Y-86842775D01*
X209032288Y-86801206D01*
X208935688Y-86780673D01*
X208851944Y-86762872D01*
X208851939Y-86762872D01*
X208845487Y-86761500D01*
X208654513Y-86761500D01*
X208648061Y-86762872D01*
X208648056Y-86762872D01*
X208564312Y-86780673D01*
X208467712Y-86801206D01*
X208461682Y-86803891D01*
X208461681Y-86803891D01*
X208299278Y-86876197D01*
X208299276Y-86876198D01*
X208293248Y-86878882D01*
X208287907Y-86882762D01*
X208287906Y-86882763D01*
X208248857Y-86911134D01*
X208138747Y-86991134D01*
X208134326Y-86996044D01*
X208134325Y-86996045D01*
X208101686Y-87032295D01*
X208010960Y-87133056D01*
X208007659Y-87138774D01*
X208003776Y-87144118D01*
X208002726Y-87143355D01*
X207956436Y-87187493D01*
X207898698Y-87201500D01*
X207754013Y-87201500D01*
X207747561Y-87202872D01*
X207747556Y-87202872D01*
X207660612Y-87221353D01*
X207567212Y-87241206D01*
X207561182Y-87243891D01*
X207561181Y-87243891D01*
X207398778Y-87316197D01*
X207398776Y-87316198D01*
X207392748Y-87318882D01*
X207387407Y-87322762D01*
X207387406Y-87322763D01*
X207355762Y-87345754D01*
X207238247Y-87431134D01*
X207233826Y-87436044D01*
X207233825Y-87436045D01*
X207122460Y-87559729D01*
X207110460Y-87573056D01*
X207096887Y-87596565D01*
X207018945Y-87731565D01*
X207014973Y-87738444D01*
X206955958Y-87920072D01*
X206955268Y-87926633D01*
X206955268Y-87926635D01*
X206936686Y-88103435D01*
X206935996Y-88110000D01*
X204553982Y-88110000D01*
X204566509Y-88088304D01*
X204566510Y-88088303D01*
X204569813Y-88082581D01*
X204628828Y-87900953D01*
X204629986Y-87889940D01*
X204648100Y-87717590D01*
X204648790Y-87711025D01*
X204636070Y-87590000D01*
X204629518Y-87527660D01*
X204629518Y-87527658D01*
X204628828Y-87521097D01*
X204569813Y-87339469D01*
X204554131Y-87312306D01*
X204532600Y-87275015D01*
X204474326Y-87174081D01*
X204346539Y-87032159D01*
X204211273Y-86933882D01*
X204197380Y-86923788D01*
X204197379Y-86923787D01*
X204192038Y-86919907D01*
X204186010Y-86917223D01*
X204186008Y-86917222D01*
X204023605Y-86844916D01*
X204023604Y-86844916D01*
X204017574Y-86842231D01*
X204014503Y-86841578D01*
X203956957Y-86802228D01*
X203929321Y-86736832D01*
X203928500Y-86722470D01*
X203928500Y-85969600D01*
X203926703Y-85952279D01*
X203918238Y-85870692D01*
X203918237Y-85870688D01*
X203917526Y-85863834D01*
X203887779Y-85774670D01*
X203864271Y-85704209D01*
X203861550Y-85696054D01*
X203768478Y-85545652D01*
X203681891Y-85459216D01*
X203647812Y-85396934D01*
X203652815Y-85326114D01*
X203681736Y-85281025D01*
X203764134Y-85198483D01*
X203769305Y-85193303D01*
X203814243Y-85120400D01*
X209362283Y-85120400D01*
X209362973Y-85126965D01*
X209372976Y-85222134D01*
X209382245Y-85310328D01*
X209441260Y-85491956D01*
X209444563Y-85497678D01*
X209444564Y-85497679D01*
X209449913Y-85506944D01*
X209536747Y-85657344D01*
X209541165Y-85662251D01*
X209541166Y-85662252D01*
X209660112Y-85794355D01*
X209664534Y-85799266D01*
X209819035Y-85911518D01*
X209825063Y-85914202D01*
X209825065Y-85914203D01*
X209979953Y-85983163D01*
X209993499Y-85989194D01*
X210086899Y-86009047D01*
X210173843Y-86027528D01*
X210173848Y-86027528D01*
X210180300Y-86028900D01*
X210371274Y-86028900D01*
X210377726Y-86027528D01*
X210377731Y-86027528D01*
X210558075Y-85989194D01*
X210558378Y-85990619D01*
X210621757Y-85988805D01*
X210682557Y-86025465D01*
X210698848Y-86047665D01*
X210735960Y-86111944D01*
X210740378Y-86116851D01*
X210740379Y-86116852D01*
X210800086Y-86183163D01*
X210863747Y-86253866D01*
X211018248Y-86366118D01*
X211024276Y-86368802D01*
X211024278Y-86368803D01*
X211146724Y-86423319D01*
X211192712Y-86443794D01*
X211286112Y-86463647D01*
X211373056Y-86482128D01*
X211373061Y-86482128D01*
X211379513Y-86483500D01*
X211570487Y-86483500D01*
X211576939Y-86482128D01*
X211576944Y-86482128D01*
X211663888Y-86463647D01*
X211757288Y-86443794D01*
X211803276Y-86423319D01*
X211925722Y-86368803D01*
X211925724Y-86368802D01*
X211931752Y-86366118D01*
X212086253Y-86253866D01*
X212149914Y-86183163D01*
X212209621Y-86116852D01*
X212209622Y-86116851D01*
X212214040Y-86111944D01*
X212284910Y-85989194D01*
X212306223Y-85952279D01*
X212306224Y-85952278D01*
X212309527Y-85946556D01*
X212368542Y-85764928D01*
X212369351Y-85757237D01*
X212387814Y-85581565D01*
X212388504Y-85575000D01*
X212380750Y-85501226D01*
X212369232Y-85391635D01*
X212369232Y-85391633D01*
X212368542Y-85385072D01*
X212309527Y-85203444D01*
X212304276Y-85194348D01*
X212220340Y-85048968D01*
X212214040Y-85038056D01*
X212123081Y-84937035D01*
X212090675Y-84901045D01*
X212090674Y-84901044D01*
X212089734Y-84900000D01*
X217836496Y-84900000D01*
X217856458Y-85089928D01*
X217915473Y-85271556D01*
X218010960Y-85436944D01*
X218015378Y-85441851D01*
X218015379Y-85441852D01*
X218134325Y-85573955D01*
X218138747Y-85578866D01*
X218189961Y-85616075D01*
X218253518Y-85662252D01*
X218293248Y-85691118D01*
X218299276Y-85693802D01*
X218299278Y-85693803D01*
X218461677Y-85766107D01*
X218467712Y-85768794D01*
X218561112Y-85788647D01*
X218648056Y-85807128D01*
X218648061Y-85807128D01*
X218654513Y-85808500D01*
X218845487Y-85808500D01*
X218851939Y-85807128D01*
X218851944Y-85807128D01*
X219020940Y-85771206D01*
X219032288Y-85768794D01*
X219038321Y-85766108D01*
X219038324Y-85766107D01*
X219059929Y-85756488D01*
X219130296Y-85747055D01*
X219194592Y-85777163D01*
X219218318Y-85805292D01*
X219276522Y-85899348D01*
X219401697Y-86024305D01*
X219407927Y-86028145D01*
X219407928Y-86028146D01*
X219545090Y-86112694D01*
X219552262Y-86117115D01*
X219575287Y-86124752D01*
X219713611Y-86170632D01*
X219713613Y-86170632D01*
X219720139Y-86172797D01*
X219726975Y-86173497D01*
X219726978Y-86173498D01*
X219770031Y-86177909D01*
X219824600Y-86183500D01*
X220625400Y-86183500D01*
X220628646Y-86183163D01*
X220628650Y-86183163D01*
X220724308Y-86173238D01*
X220724312Y-86173237D01*
X220731166Y-86172526D01*
X220737702Y-86170345D01*
X220737704Y-86170345D01*
X220884004Y-86121535D01*
X220898946Y-86116550D01*
X221049348Y-86023478D01*
X221135784Y-85936891D01*
X221198066Y-85902812D01*
X221268886Y-85907815D01*
X221313975Y-85936736D01*
X221349828Y-85972526D01*
X221401697Y-86024305D01*
X221407927Y-86028145D01*
X221407928Y-86028146D01*
X221545090Y-86112694D01*
X221552262Y-86117115D01*
X221575287Y-86124752D01*
X221713611Y-86170632D01*
X221713613Y-86170632D01*
X221720139Y-86172797D01*
X221726975Y-86173497D01*
X221726978Y-86173498D01*
X221770031Y-86177909D01*
X221824600Y-86183500D01*
X222625400Y-86183500D01*
X222628646Y-86183163D01*
X222628650Y-86183163D01*
X222724308Y-86173238D01*
X222724312Y-86173237D01*
X222731166Y-86172526D01*
X222737702Y-86170345D01*
X222737704Y-86170345D01*
X222884004Y-86121535D01*
X222898946Y-86116550D01*
X223049348Y-86023478D01*
X223104090Y-85968641D01*
X223169134Y-85903483D01*
X223174305Y-85898303D01*
X223191325Y-85870692D01*
X223263275Y-85753968D01*
X223263276Y-85753966D01*
X223267115Y-85747738D01*
X223269419Y-85740791D01*
X223272513Y-85734156D01*
X223273815Y-85734763D01*
X223309652Y-85683043D01*
X223375218Y-85655810D01*
X223445098Y-85668348D01*
X223496240Y-85715240D01*
X223535248Y-85778896D01*
X223538463Y-85782660D01*
X223538465Y-85782663D01*
X223678444Y-85946556D01*
X223694567Y-85965433D01*
X223698323Y-85968641D01*
X223874215Y-86118868D01*
X223881104Y-86124752D01*
X223885327Y-86127340D01*
X223885330Y-86127342D01*
X223940620Y-86161223D01*
X224090268Y-86252927D01*
X224234967Y-86312864D01*
X224312335Y-86344911D01*
X224312337Y-86344912D01*
X224316908Y-86346805D01*
X224381187Y-86362237D01*
X224550630Y-86402917D01*
X224550636Y-86402918D01*
X224555443Y-86404072D01*
X224800000Y-86423319D01*
X225044557Y-86404072D01*
X225049364Y-86402918D01*
X225049370Y-86402917D01*
X225218813Y-86362237D01*
X225283092Y-86346805D01*
X225287663Y-86344912D01*
X225287665Y-86344911D01*
X225365033Y-86312864D01*
X225509732Y-86252927D01*
X225659380Y-86161223D01*
X225714670Y-86127342D01*
X225714673Y-86127340D01*
X225718896Y-86124752D01*
X225725786Y-86118868D01*
X225901677Y-85968641D01*
X225905433Y-85965433D01*
X225921556Y-85946556D01*
X226061535Y-85782663D01*
X226061537Y-85782660D01*
X226064752Y-85778896D01*
X226067566Y-85774305D01*
X226136231Y-85662252D01*
X226192927Y-85569732D01*
X226286805Y-85343092D01*
X226318823Y-85209729D01*
X226342917Y-85109370D01*
X226342918Y-85109364D01*
X226344072Y-85104557D01*
X226363319Y-84860000D01*
X226344072Y-84615443D01*
X226337766Y-84589174D01*
X226300285Y-84433056D01*
X226286805Y-84376908D01*
X226192927Y-84150268D01*
X226101489Y-84001054D01*
X226067342Y-83945330D01*
X226067340Y-83945327D01*
X226064752Y-83941104D01*
X226051592Y-83925695D01*
X225908641Y-83758323D01*
X225905433Y-83754567D01*
X225901677Y-83751359D01*
X225824931Y-83685811D01*
X225786122Y-83626360D01*
X225785616Y-83555365D01*
X225824931Y-83494189D01*
X225901677Y-83428641D01*
X225905433Y-83425433D01*
X225931608Y-83394786D01*
X226061535Y-83242663D01*
X226061537Y-83242660D01*
X226064752Y-83238896D01*
X226078396Y-83216632D01*
X226130864Y-83131010D01*
X226192927Y-83029732D01*
X226283011Y-82812251D01*
X226284911Y-82807665D01*
X226284912Y-82807663D01*
X226286805Y-82803092D01*
X226312272Y-82697014D01*
X226342917Y-82569370D01*
X226342918Y-82569364D01*
X226344072Y-82564557D01*
X226363319Y-82320000D01*
X226344072Y-82075443D01*
X226323093Y-81988056D01*
X226306649Y-81919563D01*
X226286805Y-81836908D01*
X226192927Y-81610268D01*
X226102843Y-81463264D01*
X226067342Y-81405330D01*
X226067340Y-81405327D01*
X226064752Y-81401104D01*
X226060508Y-81396134D01*
X225908641Y-81218323D01*
X225905433Y-81214567D01*
X225899769Y-81209729D01*
X225819883Y-81141500D01*
X225718896Y-81055248D01*
X225716549Y-81053810D01*
X225703185Y-81042395D01*
X224812812Y-80152022D01*
X224798868Y-80144408D01*
X224797035Y-80144539D01*
X224790420Y-80148790D01*
X223896815Y-81042395D01*
X223883451Y-81053810D01*
X223881104Y-81055248D01*
X223780117Y-81141500D01*
X223700232Y-81209729D01*
X223694567Y-81214567D01*
X223691359Y-81218323D01*
X223539493Y-81396134D01*
X223535248Y-81401104D01*
X223431505Y-81570399D01*
X223378857Y-81618030D01*
X223308816Y-81629637D01*
X223243618Y-81601534D01*
X223216932Y-81570873D01*
X223173478Y-81500652D01*
X223048303Y-81375695D01*
X223037122Y-81368803D01*
X222903968Y-81286725D01*
X222903966Y-81286724D01*
X222897738Y-81282885D01*
X222773116Y-81241550D01*
X222736389Y-81229368D01*
X222736387Y-81229368D01*
X222729861Y-81227203D01*
X222723025Y-81226503D01*
X222723022Y-81226502D01*
X222679969Y-81222091D01*
X222625400Y-81216500D01*
X221824600Y-81216500D01*
X221821354Y-81216837D01*
X221821350Y-81216837D01*
X221725692Y-81226762D01*
X221725688Y-81226763D01*
X221718834Y-81227474D01*
X221712298Y-81229655D01*
X221712296Y-81229655D01*
X221632741Y-81256197D01*
X221551054Y-81283450D01*
X221400652Y-81376522D01*
X221316731Y-81460590D01*
X221314216Y-81463109D01*
X221251934Y-81497188D01*
X221181114Y-81492185D01*
X221136025Y-81463264D01*
X221053483Y-81380866D01*
X221048303Y-81375695D01*
X221037122Y-81368803D01*
X220903968Y-81286725D01*
X220903966Y-81286724D01*
X220897738Y-81282885D01*
X220773116Y-81241550D01*
X220736389Y-81229368D01*
X220736387Y-81229368D01*
X220729861Y-81227203D01*
X220723025Y-81226503D01*
X220723022Y-81226502D01*
X220679969Y-81222091D01*
X220625400Y-81216500D01*
X219824600Y-81216500D01*
X219821354Y-81216837D01*
X219821350Y-81216837D01*
X219725692Y-81226762D01*
X219725688Y-81226763D01*
X219718834Y-81227474D01*
X219712298Y-81229655D01*
X219712296Y-81229655D01*
X219632741Y-81256197D01*
X219551054Y-81283450D01*
X219400652Y-81376522D01*
X219275695Y-81501697D01*
X219271855Y-81507927D01*
X219271854Y-81507928D01*
X219205986Y-81614786D01*
X219182885Y-81652262D01*
X219156704Y-81731197D01*
X219145516Y-81764928D01*
X219127203Y-81820139D01*
X219126503Y-81826975D01*
X219126502Y-81826978D01*
X219124267Y-81848794D01*
X219116500Y-81924600D01*
X219116500Y-82925400D01*
X219116837Y-82928646D01*
X219116837Y-82928650D01*
X219125558Y-83012696D01*
X219127474Y-83031166D01*
X219129655Y-83037702D01*
X219129655Y-83037704D01*
X219143417Y-83078952D01*
X219183450Y-83198946D01*
X219276522Y-83349348D01*
X219401697Y-83474305D01*
X219407927Y-83478145D01*
X219407928Y-83478146D01*
X219481616Y-83523568D01*
X219529109Y-83576340D01*
X219541500Y-83630828D01*
X219541500Y-83769160D01*
X219521498Y-83837281D01*
X219481803Y-83876304D01*
X219400652Y-83926522D01*
X219395479Y-83931704D01*
X219276198Y-84051193D01*
X219213915Y-84085272D01*
X219143095Y-84080269D01*
X219135787Y-84077286D01*
X219032288Y-84031206D01*
X218938887Y-84011353D01*
X218851944Y-83992872D01*
X218851939Y-83992872D01*
X218845487Y-83991500D01*
X218654513Y-83991500D01*
X218648061Y-83992872D01*
X218648056Y-83992872D01*
X218561113Y-84011353D01*
X218467712Y-84031206D01*
X218461682Y-84033891D01*
X218461681Y-84033891D01*
X218299278Y-84106197D01*
X218299276Y-84106198D01*
X218293248Y-84108882D01*
X218138747Y-84221134D01*
X218134326Y-84226044D01*
X218134325Y-84226045D01*
X218132730Y-84227817D01*
X218010960Y-84363056D01*
X217915473Y-84528444D01*
X217856458Y-84710072D01*
X217855768Y-84716633D01*
X217855768Y-84716635D01*
X217848700Y-84783882D01*
X217836496Y-84900000D01*
X212089734Y-84900000D01*
X212086253Y-84896134D01*
X211931752Y-84783882D01*
X211925724Y-84781198D01*
X211925722Y-84781197D01*
X211763319Y-84708891D01*
X211763318Y-84708891D01*
X211757288Y-84706206D01*
X211663888Y-84686353D01*
X211576944Y-84667872D01*
X211576939Y-84667872D01*
X211570487Y-84666500D01*
X211379513Y-84666500D01*
X211373061Y-84667872D01*
X211373056Y-84667872D01*
X211192712Y-84706206D01*
X211192409Y-84704781D01*
X211129030Y-84706595D01*
X211068230Y-84669935D01*
X211051937Y-84647733D01*
X211033295Y-84615443D01*
X211014827Y-84583456D01*
X210887040Y-84441534D01*
X210779025Y-84363056D01*
X210737881Y-84333163D01*
X210737880Y-84333162D01*
X210732539Y-84329282D01*
X210726511Y-84326598D01*
X210726509Y-84326597D01*
X210564106Y-84254291D01*
X210564105Y-84254291D01*
X210558075Y-84251606D01*
X210464675Y-84231753D01*
X210377731Y-84213272D01*
X210377726Y-84213272D01*
X210371274Y-84211900D01*
X210180300Y-84211900D01*
X210173848Y-84213272D01*
X210173843Y-84213272D01*
X210086900Y-84231753D01*
X209993499Y-84251606D01*
X209987469Y-84254291D01*
X209987468Y-84254291D01*
X209825065Y-84326597D01*
X209825063Y-84326598D01*
X209819035Y-84329282D01*
X209813694Y-84333162D01*
X209813693Y-84333163D01*
X209772549Y-84363056D01*
X209664534Y-84441534D01*
X209536747Y-84583456D01*
X209533446Y-84589174D01*
X209465653Y-84706595D01*
X209441260Y-84748844D01*
X209382245Y-84930472D01*
X209381555Y-84937033D01*
X209381555Y-84937035D01*
X209369791Y-85048968D01*
X209362283Y-85120400D01*
X203814243Y-85120400D01*
X203824009Y-85104557D01*
X203858275Y-85048968D01*
X203858276Y-85048966D01*
X203862115Y-85042738D01*
X203910741Y-84896134D01*
X203915632Y-84881389D01*
X203915632Y-84881387D01*
X203917797Y-84874861D01*
X203928500Y-84770400D01*
X203928500Y-83969600D01*
X203925982Y-83945330D01*
X203918238Y-83870692D01*
X203918237Y-83870688D01*
X203917526Y-83863834D01*
X203911973Y-83847188D01*
X203863868Y-83703002D01*
X203861550Y-83696054D01*
X203768478Y-83545652D01*
X203643303Y-83420695D01*
X203626054Y-83410062D01*
X203604907Y-83397027D01*
X203557413Y-83344255D01*
X203545989Y-83274184D01*
X203568252Y-83217819D01*
X203569040Y-83216944D01*
X203651605Y-83073938D01*
X203661223Y-83057279D01*
X203661224Y-83057278D01*
X203664527Y-83051556D01*
X203723542Y-82869928D01*
X203724351Y-82862237D01*
X203742814Y-82686565D01*
X203743504Y-82680000D01*
X203735286Y-82601811D01*
X203724232Y-82496635D01*
X203724232Y-82496633D01*
X203723542Y-82490072D01*
X203664527Y-82308444D01*
X203569040Y-82143056D01*
X203503828Y-82070630D01*
X203445675Y-82006045D01*
X203445674Y-82006044D01*
X203441253Y-82001134D01*
X203286752Y-81888882D01*
X203280724Y-81886198D01*
X203280722Y-81886197D01*
X203118319Y-81813891D01*
X203118318Y-81813891D01*
X203112288Y-81811206D01*
X203018888Y-81791353D01*
X202931944Y-81772872D01*
X202931939Y-81772872D01*
X202925487Y-81771500D01*
X202734513Y-81771500D01*
X202728061Y-81772872D01*
X202728056Y-81772872D01*
X202641113Y-81791353D01*
X202547712Y-81811206D01*
X202541682Y-81813891D01*
X202541681Y-81813891D01*
X202379278Y-81886197D01*
X202379276Y-81886198D01*
X202373248Y-81888882D01*
X202218747Y-82001134D01*
X202214326Y-82006044D01*
X202214325Y-82006045D01*
X202156173Y-82070630D01*
X202090960Y-82143056D01*
X201995473Y-82308444D01*
X201936458Y-82490072D01*
X201935768Y-82496633D01*
X201935768Y-82496635D01*
X201924714Y-82601811D01*
X201916496Y-82680000D01*
X201917186Y-82686565D01*
X201935650Y-82862237D01*
X201936458Y-82869928D01*
X201995473Y-83051556D01*
X201998776Y-83057278D01*
X201998777Y-83057279D01*
X202008395Y-83073938D01*
X202030110Y-83111548D01*
X202044360Y-83136230D01*
X202061098Y-83205225D01*
X202037878Y-83272317D01*
X201982071Y-83316204D01*
X201975118Y-83318753D01*
X201946054Y-83328450D01*
X201939830Y-83332301D01*
X201939829Y-83332302D01*
X201818820Y-83407185D01*
X201795652Y-83421522D01*
X201670695Y-83546697D01*
X201666855Y-83552927D01*
X201666854Y-83552928D01*
X201583893Y-83687516D01*
X201577885Y-83697262D01*
X201557632Y-83758323D01*
X201534692Y-83827487D01*
X201522203Y-83865139D01*
X201511500Y-83969600D01*
X201511500Y-84770400D01*
X201511837Y-84773646D01*
X201511837Y-84773650D01*
X201520797Y-84860000D01*
X201522474Y-84876166D01*
X201524655Y-84882702D01*
X201524655Y-84882704D01*
X201551589Y-84963435D01*
X201578450Y-85043946D01*
X201671522Y-85194348D01*
X201752716Y-85275400D01*
X201758109Y-85280784D01*
X201792188Y-85343066D01*
X201787185Y-85413886D01*
X201758264Y-85458975D01*
X201731615Y-85485671D01*
X201670695Y-85546697D01*
X201666855Y-85552927D01*
X201666854Y-85552928D01*
X201584065Y-85687237D01*
X201577885Y-85697262D01*
X201522203Y-85865139D01*
X201521503Y-85871975D01*
X201521502Y-85871978D01*
X201520834Y-85878500D01*
X201511500Y-85969600D01*
X201511500Y-86770400D01*
X201511837Y-86773646D01*
X201511837Y-86773650D01*
X201520682Y-86858891D01*
X201522474Y-86876166D01*
X201524655Y-86882702D01*
X201524655Y-86882704D01*
X201549175Y-86956198D01*
X201578450Y-87043946D01*
X201671522Y-87194348D01*
X201796697Y-87319305D01*
X201802927Y-87323145D01*
X201802928Y-87323146D01*
X201938484Y-87406704D01*
X201947262Y-87412115D01*
X202048585Y-87445722D01*
X202106945Y-87486152D01*
X202134182Y-87551716D01*
X202121649Y-87621598D01*
X202113095Y-87635684D01*
X202110960Y-87638056D01*
X202107662Y-87643768D01*
X202107660Y-87643771D01*
X202050119Y-87743435D01*
X202015473Y-87803444D01*
X201956458Y-87985072D01*
X201955768Y-87991633D01*
X201955768Y-87991635D01*
X201939093Y-88150292D01*
X201912080Y-88215949D01*
X201902878Y-88226217D01*
X201624500Y-88504595D01*
X201562188Y-88538621D01*
X201535405Y-88541500D01*
X201024600Y-88541500D01*
X201021354Y-88541837D01*
X201021350Y-88541837D01*
X200925692Y-88551762D01*
X200925688Y-88551763D01*
X200918834Y-88552474D01*
X200912298Y-88554655D01*
X200912296Y-88554655D01*
X200836871Y-88579819D01*
X200751054Y-88608450D01*
X200600652Y-88701522D01*
X200595479Y-88706704D01*
X200514216Y-88788109D01*
X200451934Y-88822188D01*
X200381114Y-88817185D01*
X200336025Y-88788264D01*
X200253483Y-88705866D01*
X200248303Y-88700695D01*
X200218826Y-88682525D01*
X200103968Y-88611725D01*
X200103966Y-88611724D01*
X200097738Y-88607885D01*
X200013121Y-88579819D01*
X199936389Y-88554368D01*
X199936387Y-88554368D01*
X199929861Y-88552203D01*
X199922904Y-88551490D01*
X199922836Y-88551462D01*
X199916290Y-88550059D01*
X199916540Y-88548892D01*
X199857177Y-88524653D01*
X199816392Y-88466541D01*
X199813499Y-88395603D01*
X199842105Y-88341836D01*
X199909621Y-88266852D01*
X199909622Y-88266851D01*
X199914040Y-88261944D01*
X199989149Y-88131852D01*
X200006223Y-88102279D01*
X200006224Y-88102278D01*
X200009527Y-88096556D01*
X200068542Y-87914928D01*
X200071169Y-87889940D01*
X200087814Y-87731565D01*
X200088504Y-87725000D01*
X200079967Y-87643771D01*
X200069232Y-87541635D01*
X200069232Y-87541633D01*
X200068542Y-87535072D01*
X200009527Y-87353444D01*
X199992035Y-87323146D01*
X199946276Y-87243891D01*
X199914040Y-87188056D01*
X199906606Y-87179799D01*
X199790675Y-87051045D01*
X199790674Y-87051044D01*
X199786253Y-87046134D01*
X199671503Y-86962763D01*
X199637094Y-86937763D01*
X199637093Y-86937762D01*
X199631752Y-86933882D01*
X199625724Y-86931198D01*
X199625722Y-86931197D01*
X199463319Y-86858891D01*
X199463318Y-86858891D01*
X199457288Y-86856206D01*
X199363888Y-86836353D01*
X199276944Y-86817872D01*
X199276939Y-86817872D01*
X199270487Y-86816500D01*
X199079513Y-86816500D01*
X199073061Y-86817872D01*
X199073056Y-86817872D01*
X198986112Y-86836353D01*
X198892712Y-86856206D01*
X198886682Y-86858891D01*
X198886681Y-86858891D01*
X198724278Y-86931197D01*
X198724276Y-86931198D01*
X198718248Y-86933882D01*
X198712905Y-86937764D01*
X198656858Y-86978485D01*
X198589990Y-87002344D01*
X198520839Y-86986265D01*
X198508734Y-86978485D01*
X198487096Y-86962764D01*
X198487091Y-86962761D01*
X198481752Y-86958882D01*
X198475722Y-86956197D01*
X198313319Y-86883891D01*
X198313318Y-86883891D01*
X198307288Y-86881206D01*
X198202305Y-86858891D01*
X198126944Y-86842872D01*
X198126939Y-86842872D01*
X198120487Y-86841500D01*
X197929513Y-86841500D01*
X197923061Y-86842872D01*
X197923056Y-86842872D01*
X197847695Y-86858891D01*
X197742712Y-86881206D01*
X197736682Y-86883891D01*
X197736681Y-86883891D01*
X197574278Y-86956197D01*
X197574276Y-86956198D01*
X197568248Y-86958882D01*
X197562907Y-86962762D01*
X197562906Y-86962763D01*
X197523857Y-86991134D01*
X197413747Y-87071134D01*
X197409326Y-87076044D01*
X197409325Y-87076045D01*
X197303322Y-87193774D01*
X197285960Y-87213056D01*
X197261943Y-87254655D01*
X197222621Y-87322763D01*
X197190473Y-87378444D01*
X197131458Y-87560072D01*
X197130768Y-87566633D01*
X197130768Y-87566635D01*
X197121165Y-87658002D01*
X197111496Y-87750000D01*
X197111497Y-87750007D01*
X197098103Y-87798970D01*
X197100386Y-87799958D01*
X197082826Y-87840537D01*
X197077609Y-87851187D01*
X197056305Y-87889940D01*
X197054334Y-87897615D01*
X197054334Y-87897616D01*
X197051267Y-87909562D01*
X197044863Y-87928266D01*
X197043436Y-87931565D01*
X197036819Y-87946855D01*
X197035580Y-87954678D01*
X197035577Y-87954688D01*
X197029901Y-87990524D01*
X197027495Y-88002144D01*
X197016500Y-88044970D01*
X197016500Y-88065224D01*
X197014949Y-88084934D01*
X197011780Y-88104943D01*
X197012526Y-88112835D01*
X197015941Y-88148961D01*
X197016500Y-88160819D01*
X197016500Y-88513219D01*
X196996498Y-88581340D01*
X196956803Y-88620363D01*
X196825652Y-88701522D01*
X196820479Y-88706704D01*
X196739216Y-88788109D01*
X196676934Y-88822188D01*
X196606114Y-88817185D01*
X196561025Y-88788264D01*
X196478483Y-88705866D01*
X196473303Y-88700695D01*
X196443826Y-88682525D01*
X196328968Y-88611725D01*
X196328966Y-88611724D01*
X196322738Y-88607885D01*
X196238121Y-88579819D01*
X196161389Y-88554368D01*
X196161387Y-88554368D01*
X196154861Y-88552203D01*
X196148025Y-88551503D01*
X196148022Y-88551502D01*
X196104969Y-88547091D01*
X196050400Y-88541500D01*
X195249600Y-88541500D01*
X195246354Y-88541837D01*
X195246350Y-88541837D01*
X195150692Y-88551762D01*
X195150688Y-88551763D01*
X195143834Y-88552474D01*
X195137298Y-88554655D01*
X195137296Y-88554655D01*
X195061871Y-88579819D01*
X194976054Y-88608450D01*
X194825652Y-88701522D01*
X194700695Y-88826697D01*
X194698714Y-88824720D01*
X194651280Y-88858332D01*
X194580357Y-88861545D01*
X194559099Y-88854273D01*
X194513323Y-88833892D01*
X194513315Y-88833889D01*
X194507288Y-88831206D01*
X194413887Y-88811353D01*
X194326944Y-88792872D01*
X194326939Y-88792872D01*
X194320487Y-88791500D01*
X194129513Y-88791500D01*
X194123061Y-88792872D01*
X194123056Y-88792872D01*
X194036113Y-88811353D01*
X193942712Y-88831206D01*
X193936682Y-88833891D01*
X193936681Y-88833891D01*
X193774278Y-88906197D01*
X193774276Y-88906198D01*
X193768248Y-88908882D01*
X193613747Y-89021134D01*
X193609326Y-89026044D01*
X193609325Y-89026045D01*
X193592109Y-89045166D01*
X193485960Y-89163056D01*
X193461642Y-89205176D01*
X193416329Y-89283661D01*
X193390473Y-89328444D01*
X193331458Y-89510072D01*
X193330768Y-89516633D01*
X193330768Y-89516635D01*
X193321663Y-89603264D01*
X193311496Y-89700000D01*
X191415900Y-89700000D01*
X191384527Y-89603444D01*
X191379317Y-89594419D01*
X191372394Y-89582429D01*
X191355656Y-89513434D01*
X191378876Y-89446342D01*
X191392340Y-89430411D01*
X191451514Y-89371134D01*
X191474305Y-89348303D01*
X191490074Y-89322721D01*
X191563275Y-89203968D01*
X191563276Y-89203966D01*
X191567115Y-89197738D01*
X191622797Y-89029861D01*
X191633500Y-88925400D01*
X191633500Y-87924600D01*
X191632936Y-87919166D01*
X191623238Y-87825692D01*
X191623237Y-87825688D01*
X191622526Y-87818834D01*
X191619489Y-87809729D01*
X191568868Y-87658002D01*
X191566550Y-87651054D01*
X191473478Y-87500652D01*
X191348303Y-87375695D01*
X191342072Y-87371854D01*
X191203968Y-87286725D01*
X191203966Y-87286724D01*
X191197738Y-87282885D01*
X191075230Y-87242251D01*
X191036389Y-87229368D01*
X191036387Y-87229368D01*
X191029861Y-87227203D01*
X191023025Y-87226503D01*
X191023022Y-87226502D01*
X190979969Y-87222091D01*
X190925400Y-87216500D01*
X190124600Y-87216500D01*
X190121354Y-87216837D01*
X190121350Y-87216837D01*
X190025692Y-87226762D01*
X190025688Y-87226763D01*
X190018834Y-87227474D01*
X190012298Y-87229655D01*
X190012296Y-87229655D01*
X189946034Y-87251762D01*
X189851054Y-87283450D01*
X189700652Y-87376522D01*
X189695479Y-87381704D01*
X189614216Y-87463109D01*
X189551934Y-87497188D01*
X189481114Y-87492185D01*
X189436025Y-87463264D01*
X189353483Y-87380866D01*
X189348303Y-87375695D01*
X189342072Y-87371854D01*
X189203968Y-87286725D01*
X189203966Y-87286724D01*
X189197738Y-87282885D01*
X189075230Y-87242251D01*
X189036389Y-87229368D01*
X189036387Y-87229368D01*
X189029861Y-87227203D01*
X189023025Y-87226503D01*
X189023022Y-87226502D01*
X188979969Y-87222091D01*
X188925400Y-87216500D01*
X188124600Y-87216500D01*
X188121354Y-87216837D01*
X188121350Y-87216837D01*
X188025692Y-87226762D01*
X188025688Y-87226763D01*
X188018834Y-87227474D01*
X188012298Y-87229655D01*
X188012296Y-87229655D01*
X187946034Y-87251762D01*
X187851054Y-87283450D01*
X187700652Y-87376522D01*
X187575695Y-87501697D01*
X187529290Y-87576980D01*
X187501787Y-87621598D01*
X187482885Y-87652262D01*
X187480581Y-87659209D01*
X187434639Y-87797721D01*
X187427203Y-87820139D01*
X187426503Y-87826975D01*
X187426502Y-87826978D01*
X187424021Y-87851198D01*
X187416500Y-87924600D01*
X187416500Y-88925400D01*
X187416837Y-88928646D01*
X187416837Y-88928650D01*
X187426160Y-89018500D01*
X187427474Y-89031166D01*
X187429655Y-89037702D01*
X187429655Y-89037704D01*
X187469839Y-89158148D01*
X187483450Y-89198946D01*
X187487304Y-89205174D01*
X187487305Y-89205176D01*
X187500403Y-89226342D01*
X187540462Y-89291075D01*
X187544364Y-89297381D01*
X187563202Y-89365832D01*
X187542041Y-89433602D01*
X187526315Y-89452779D01*
X187499499Y-89479595D01*
X187437187Y-89513621D01*
X187410404Y-89516500D01*
X187354513Y-89516500D01*
X187348061Y-89517872D01*
X187348056Y-89517872D01*
X187261112Y-89536353D01*
X187167712Y-89556206D01*
X187161682Y-89558891D01*
X187161681Y-89558891D01*
X186999278Y-89631197D01*
X186999276Y-89631198D01*
X186993248Y-89633882D01*
X186987907Y-89637762D01*
X186987906Y-89637763D01*
X186974096Y-89647797D01*
X186838747Y-89746134D01*
X186834326Y-89751044D01*
X186834325Y-89751045D01*
X186730248Y-89866635D01*
X186710960Y-89888056D01*
X186615473Y-90053444D01*
X186598809Y-90104729D01*
X186567814Y-90200122D01*
X186527740Y-90258728D01*
X186462344Y-90286365D01*
X186392387Y-90274258D01*
X186340081Y-90226252D01*
X186322671Y-90174357D01*
X186319232Y-90141635D01*
X186319232Y-90141633D01*
X186318542Y-90135072D01*
X186259527Y-89953444D01*
X186252921Y-89942001D01*
X186219067Y-89883365D01*
X186164040Y-89788056D01*
X186156814Y-89780030D01*
X186040675Y-89651045D01*
X186040674Y-89651044D01*
X186036253Y-89646134D01*
X185929906Y-89568868D01*
X185887094Y-89537763D01*
X185887093Y-89537762D01*
X185881752Y-89533882D01*
X185875724Y-89531198D01*
X185875722Y-89531197D01*
X185713319Y-89458891D01*
X185713318Y-89458891D01*
X185707288Y-89456206D01*
X185585933Y-89430411D01*
X185526944Y-89417872D01*
X185526939Y-89417872D01*
X185520487Y-89416500D01*
X185464595Y-89416500D01*
X185396474Y-89396498D01*
X185375500Y-89379595D01*
X185364596Y-89368691D01*
X185330570Y-89306379D01*
X185335635Y-89235564D01*
X185338659Y-89228344D01*
X185342115Y-89222738D01*
X185397797Y-89054861D01*
X185398791Y-89045166D01*
X185406614Y-88968803D01*
X185408500Y-88950400D01*
X185408500Y-87949600D01*
X185408163Y-87946350D01*
X185398238Y-87850692D01*
X185398237Y-87850688D01*
X185397526Y-87843834D01*
X185391903Y-87826978D01*
X185343868Y-87683002D01*
X185341550Y-87676054D01*
X185248478Y-87525652D01*
X185123303Y-87400695D01*
X185102799Y-87388056D01*
X184978968Y-87311725D01*
X184978966Y-87311724D01*
X184972738Y-87307885D01*
X184812254Y-87254655D01*
X184811389Y-87254368D01*
X184811387Y-87254368D01*
X184804861Y-87252203D01*
X184798025Y-87251503D01*
X184798022Y-87251502D01*
X184754969Y-87247091D01*
X184700400Y-87241500D01*
X183899600Y-87241500D01*
X183896354Y-87241837D01*
X183896350Y-87241837D01*
X183800692Y-87251762D01*
X183800688Y-87251763D01*
X183793834Y-87252474D01*
X183787298Y-87254655D01*
X183787296Y-87254655D01*
X183689430Y-87287306D01*
X183626054Y-87308450D01*
X183475652Y-87401522D01*
X183391170Y-87486152D01*
X183389216Y-87488109D01*
X183326934Y-87522188D01*
X183256114Y-87517185D01*
X183211025Y-87488264D01*
X183128483Y-87405866D01*
X183123303Y-87400695D01*
X183102799Y-87388056D01*
X182978968Y-87311725D01*
X182978966Y-87311724D01*
X182972738Y-87307885D01*
X182812254Y-87254655D01*
X182811389Y-87254368D01*
X182811387Y-87254368D01*
X182804861Y-87252203D01*
X182798025Y-87251503D01*
X182798022Y-87251502D01*
X182754969Y-87247091D01*
X182700400Y-87241500D01*
X181899600Y-87241500D01*
X181896354Y-87241837D01*
X181896350Y-87241837D01*
X181800692Y-87251762D01*
X181800688Y-87251763D01*
X181793834Y-87252474D01*
X181787298Y-87254655D01*
X181787296Y-87254655D01*
X181689430Y-87287306D01*
X181626054Y-87308450D01*
X181475652Y-87401522D01*
X181350695Y-87526697D01*
X181346855Y-87532927D01*
X181346854Y-87532928D01*
X181277136Y-87646032D01*
X181257885Y-87677262D01*
X181244509Y-87717590D01*
X181216033Y-87803444D01*
X181202203Y-87845139D01*
X181191500Y-87949600D01*
X181191500Y-88950400D01*
X181191837Y-88953646D01*
X181191837Y-88953650D01*
X181201333Y-89045166D01*
X181202474Y-89056166D01*
X181204655Y-89062702D01*
X181204655Y-89062704D01*
X181211593Y-89083500D01*
X181258450Y-89223946D01*
X181294048Y-89281472D01*
X181295403Y-89283661D01*
X181314241Y-89352113D01*
X181293080Y-89419882D01*
X181281899Y-89434270D01*
X181210960Y-89513056D01*
X181115473Y-89678444D01*
X181056458Y-89860072D01*
X181055768Y-89866633D01*
X181055768Y-89866635D01*
X181048186Y-89938774D01*
X181036496Y-90050000D01*
X175645159Y-90050000D01*
X175641983Y-87312306D01*
X175636974Y-82994669D01*
X178792001Y-82994669D01*
X178792371Y-83001490D01*
X178797895Y-83052352D01*
X178801521Y-83067604D01*
X178846676Y-83188054D01*
X178855214Y-83203649D01*
X178931715Y-83305724D01*
X178944276Y-83318285D01*
X179046351Y-83394786D01*
X179061946Y-83403324D01*
X179182394Y-83448478D01*
X179197649Y-83452105D01*
X179248514Y-83457631D01*
X179255328Y-83458000D01*
X179877885Y-83458000D01*
X179893124Y-83453525D01*
X179894329Y-83452135D01*
X179896000Y-83444452D01*
X179896000Y-83439884D01*
X180404000Y-83439884D01*
X180408475Y-83455123D01*
X180409865Y-83456328D01*
X180417548Y-83457999D01*
X181044669Y-83457999D01*
X181051490Y-83457629D01*
X181102352Y-83452105D01*
X181117604Y-83448479D01*
X181238054Y-83403324D01*
X181253649Y-83394786D01*
X181355724Y-83318285D01*
X181368285Y-83305724D01*
X181444786Y-83203649D01*
X181453324Y-83188054D01*
X181494225Y-83078952D01*
X181536867Y-83022188D01*
X181603428Y-82997488D01*
X181672777Y-83012696D01*
X181707444Y-83040684D01*
X181732865Y-83070031D01*
X181732869Y-83070035D01*
X181736250Y-83073938D01*
X181908126Y-83216632D01*
X181994070Y-83266853D01*
X182042794Y-83318491D01*
X182056500Y-83375641D01*
X182056500Y-83396993D01*
X182036498Y-83465114D01*
X181982842Y-83511607D01*
X181943505Y-83522320D01*
X181927811Y-83523949D01*
X181893834Y-83527474D01*
X181887298Y-83529655D01*
X181887296Y-83529655D01*
X181776859Y-83566500D01*
X181726054Y-83583450D01*
X181575652Y-83676522D01*
X181450695Y-83801697D01*
X181446855Y-83807927D01*
X181446854Y-83807928D01*
X181411589Y-83865139D01*
X181357885Y-83952262D01*
X181344415Y-83992872D01*
X181321198Y-84062872D01*
X181302203Y-84120139D01*
X181291500Y-84224600D01*
X181291500Y-85225400D01*
X181291837Y-85228646D01*
X181291837Y-85228650D01*
X181301158Y-85318478D01*
X181302474Y-85331166D01*
X181304655Y-85337702D01*
X181304655Y-85337704D01*
X181320898Y-85386389D01*
X181358450Y-85498946D01*
X181451522Y-85649348D01*
X181456704Y-85654521D01*
X181470555Y-85668348D01*
X181576697Y-85774305D01*
X181582927Y-85778145D01*
X181582928Y-85778146D01*
X181711333Y-85857296D01*
X181727262Y-85867115D01*
X181841482Y-85905000D01*
X181894391Y-85942429D01*
X181895458Y-85941362D01*
X181909779Y-85955683D01*
X181922619Y-85970716D01*
X181934528Y-85987107D01*
X181957736Y-86006306D01*
X181968605Y-86015298D01*
X181977384Y-86023288D01*
X182496343Y-86542247D01*
X182503887Y-86550537D01*
X182508000Y-86557018D01*
X182513777Y-86562443D01*
X182557667Y-86603658D01*
X182560509Y-86606413D01*
X182580230Y-86626134D01*
X182583425Y-86628612D01*
X182592447Y-86636318D01*
X182624679Y-86666586D01*
X182631628Y-86670406D01*
X182642432Y-86676346D01*
X182658956Y-86687199D01*
X182674959Y-86699613D01*
X182715543Y-86717176D01*
X182726173Y-86722383D01*
X182764940Y-86743695D01*
X182772617Y-86745666D01*
X182772622Y-86745668D01*
X182784558Y-86748732D01*
X182803266Y-86755137D01*
X182821855Y-86763181D01*
X182829683Y-86764421D01*
X182829690Y-86764423D01*
X182865524Y-86770099D01*
X182877144Y-86772505D01*
X182908959Y-86780673D01*
X182919970Y-86783500D01*
X182940224Y-86783500D01*
X182959934Y-86785051D01*
X182979943Y-86788220D01*
X182987835Y-86787474D01*
X183006580Y-86785702D01*
X183023962Y-86784059D01*
X183035819Y-86783500D01*
X185821233Y-86783500D01*
X185832416Y-86784027D01*
X185839909Y-86785702D01*
X185847835Y-86785453D01*
X185847836Y-86785453D01*
X185907986Y-86783562D01*
X185911945Y-86783500D01*
X185939856Y-86783500D01*
X185943791Y-86783003D01*
X185943856Y-86782995D01*
X185955693Y-86782062D01*
X185987951Y-86781048D01*
X185991970Y-86780922D01*
X185999889Y-86780673D01*
X186019343Y-86775021D01*
X186038700Y-86771013D01*
X186050930Y-86769468D01*
X186050931Y-86769468D01*
X186058797Y-86768474D01*
X186066168Y-86765555D01*
X186066170Y-86765555D01*
X186099912Y-86752196D01*
X186111142Y-86748351D01*
X186145983Y-86738229D01*
X186145984Y-86738229D01*
X186153593Y-86736018D01*
X186160412Y-86731985D01*
X186160417Y-86731983D01*
X186171028Y-86725707D01*
X186188776Y-86717012D01*
X186207617Y-86709552D01*
X186227987Y-86694753D01*
X186243387Y-86683564D01*
X186253307Y-86677048D01*
X186284535Y-86658580D01*
X186284538Y-86658578D01*
X186291362Y-86654542D01*
X186305683Y-86640221D01*
X186320717Y-86627380D01*
X186322432Y-86626134D01*
X186337107Y-86615472D01*
X186365298Y-86581395D01*
X186373288Y-86572616D01*
X186767247Y-86178657D01*
X186775537Y-86171113D01*
X186782018Y-86167000D01*
X186828659Y-86117332D01*
X186831413Y-86114491D01*
X186851134Y-86094770D01*
X186853612Y-86091575D01*
X186861318Y-86082553D01*
X186886158Y-86056101D01*
X186891586Y-86050321D01*
X186901346Y-86032568D01*
X186912199Y-86016045D01*
X186919753Y-86006306D01*
X186924613Y-86000041D01*
X186927763Y-85992761D01*
X186930177Y-85988680D01*
X186982070Y-85940227D01*
X186998755Y-85933295D01*
X187048946Y-85916550D01*
X187199348Y-85823478D01*
X187285784Y-85736891D01*
X187348066Y-85702812D01*
X187418886Y-85707815D01*
X187463975Y-85736736D01*
X187498505Y-85771206D01*
X187551697Y-85824305D01*
X187557927Y-85828145D01*
X187557928Y-85828146D01*
X187695090Y-85912694D01*
X187702262Y-85917115D01*
X187761418Y-85936736D01*
X187863611Y-85970632D01*
X187863613Y-85970632D01*
X187870139Y-85972797D01*
X187876975Y-85973497D01*
X187876978Y-85973498D01*
X187920031Y-85977909D01*
X187974600Y-85983500D01*
X188775400Y-85983500D01*
X188778646Y-85983163D01*
X188778650Y-85983163D01*
X188874308Y-85973238D01*
X188874312Y-85973237D01*
X188881166Y-85972526D01*
X188887702Y-85970345D01*
X188887704Y-85970345D01*
X189019806Y-85926272D01*
X189048946Y-85916550D01*
X189199348Y-85823478D01*
X189324305Y-85698303D01*
X189331126Y-85687237D01*
X189413275Y-85553968D01*
X189413276Y-85553966D01*
X189417115Y-85547738D01*
X189459253Y-85420695D01*
X189470632Y-85386389D01*
X189470632Y-85386387D01*
X189472797Y-85379861D01*
X189473807Y-85370009D01*
X189478489Y-85324308D01*
X189483500Y-85275400D01*
X189483500Y-84970000D01*
X190356496Y-84970000D01*
X190357186Y-84976565D01*
X190369761Y-85096206D01*
X190376458Y-85159928D01*
X190435473Y-85341556D01*
X190530960Y-85506944D01*
X190535378Y-85511851D01*
X190535379Y-85511852D01*
X190591293Y-85573951D01*
X190658747Y-85648866D01*
X190725358Y-85697262D01*
X190779903Y-85736891D01*
X190813248Y-85761118D01*
X190819276Y-85763802D01*
X190819278Y-85763803D01*
X190963796Y-85828146D01*
X190987712Y-85838794D01*
X191074757Y-85857296D01*
X191168056Y-85877128D01*
X191168061Y-85877128D01*
X191174513Y-85878500D01*
X191365487Y-85878500D01*
X191371939Y-85877128D01*
X191371944Y-85877128D01*
X191465243Y-85857296D01*
X191552288Y-85838794D01*
X191576204Y-85828146D01*
X191720722Y-85763803D01*
X191720724Y-85763802D01*
X191726752Y-85761118D01*
X191760098Y-85736891D01*
X191814642Y-85697262D01*
X191881253Y-85648866D01*
X191948707Y-85573951D01*
X192004621Y-85511852D01*
X192004622Y-85511851D01*
X192009040Y-85506944D01*
X192104527Y-85341556D01*
X192163542Y-85159928D01*
X192170240Y-85096206D01*
X192182814Y-84976565D01*
X192183504Y-84970000D01*
X192180039Y-84937035D01*
X192164232Y-84786635D01*
X192164232Y-84786633D01*
X192163542Y-84780072D01*
X192104527Y-84598444D01*
X192009040Y-84433056D01*
X191881253Y-84291134D01*
X191726752Y-84178882D01*
X191720724Y-84176198D01*
X191720722Y-84176197D01*
X191558319Y-84103891D01*
X191558318Y-84103891D01*
X191552288Y-84101206D01*
X191453788Y-84080269D01*
X191371944Y-84062872D01*
X191371939Y-84062872D01*
X191365487Y-84061500D01*
X191174513Y-84061500D01*
X191168061Y-84062872D01*
X191168056Y-84062872D01*
X191086212Y-84080269D01*
X190987712Y-84101206D01*
X190981682Y-84103891D01*
X190981681Y-84103891D01*
X190819278Y-84176197D01*
X190819276Y-84176198D01*
X190813248Y-84178882D01*
X190658747Y-84291134D01*
X190530960Y-84433056D01*
X190435473Y-84598444D01*
X190376458Y-84780072D01*
X190375768Y-84786633D01*
X190375768Y-84786635D01*
X190359961Y-84937035D01*
X190356496Y-84970000D01*
X189483500Y-84970000D01*
X189483500Y-84274600D01*
X189478646Y-84227817D01*
X189473238Y-84175692D01*
X189473237Y-84175688D01*
X189472526Y-84168834D01*
X189464925Y-84146049D01*
X189418868Y-84008002D01*
X189416550Y-84001054D01*
X189323478Y-83850652D01*
X189198303Y-83725695D01*
X189178625Y-83713565D01*
X189068384Y-83645611D01*
X189020890Y-83592838D01*
X189008500Y-83538351D01*
X189008500Y-82783767D01*
X189009027Y-82772584D01*
X189010702Y-82765091D01*
X189009323Y-82721206D01*
X189008562Y-82697014D01*
X189008500Y-82693055D01*
X189008500Y-82689783D01*
X189021543Y-82633956D01*
X189035136Y-82606452D01*
X189037430Y-82601811D01*
X189102370Y-82388069D01*
X189131529Y-82166590D01*
X189133156Y-82100000D01*
X189114852Y-81877361D01*
X189060431Y-81660702D01*
X188971354Y-81455840D01*
X188913310Y-81366118D01*
X188852822Y-81272617D01*
X188852820Y-81272614D01*
X188850014Y-81268277D01*
X188699670Y-81103051D01*
X188695619Y-81099852D01*
X188695615Y-81099848D01*
X188543862Y-80980000D01*
X192256496Y-80980000D01*
X192257186Y-80986565D01*
X192274609Y-81152332D01*
X192276458Y-81169928D01*
X192335473Y-81351556D01*
X192338776Y-81357278D01*
X192338777Y-81357279D01*
X192364080Y-81401104D01*
X192430960Y-81516944D01*
X192435378Y-81521851D01*
X192435379Y-81521852D01*
X192551713Y-81651054D01*
X192558747Y-81658866D01*
X192713248Y-81771118D01*
X192719276Y-81773802D01*
X192719278Y-81773803D01*
X192881681Y-81846109D01*
X192887712Y-81848794D01*
X192971647Y-81866635D01*
X193068056Y-81887128D01*
X193068061Y-81887128D01*
X193074513Y-81888500D01*
X193265487Y-81888500D01*
X193271939Y-81887128D01*
X193271944Y-81887128D01*
X193368353Y-81866635D01*
X193452288Y-81848794D01*
X193458319Y-81846109D01*
X193620722Y-81773803D01*
X193620724Y-81773802D01*
X193626752Y-81771118D01*
X193781253Y-81658866D01*
X193788287Y-81651054D01*
X193856766Y-81575000D01*
X198286496Y-81575000D01*
X198287186Y-81581565D01*
X198295504Y-81660702D01*
X198306458Y-81764928D01*
X198365473Y-81946556D01*
X198460960Y-82111944D01*
X198588747Y-82253866D01*
X198638089Y-82289715D01*
X198734642Y-82359865D01*
X198743248Y-82366118D01*
X198749276Y-82368802D01*
X198749278Y-82368803D01*
X198911681Y-82441109D01*
X198917712Y-82443794D01*
X199011112Y-82463647D01*
X199098056Y-82482128D01*
X199098061Y-82482128D01*
X199104513Y-82483500D01*
X199295487Y-82483500D01*
X199301939Y-82482128D01*
X199301944Y-82482128D01*
X199388888Y-82463647D01*
X199482288Y-82443794D01*
X199488319Y-82441109D01*
X199650722Y-82368803D01*
X199650724Y-82368802D01*
X199656752Y-82366118D01*
X199665359Y-82359865D01*
X199761911Y-82289715D01*
X199811253Y-82253866D01*
X199939040Y-82111944D01*
X200034527Y-81946556D01*
X200093542Y-81764928D01*
X200104497Y-81660702D01*
X200112814Y-81581565D01*
X200113504Y-81575000D01*
X200094831Y-81397337D01*
X200094232Y-81391635D01*
X200094232Y-81391633D01*
X200093542Y-81385072D01*
X200034527Y-81203444D01*
X200031060Y-81197438D01*
X199952801Y-81061891D01*
X199939040Y-81038056D01*
X199925757Y-81023303D01*
X199815675Y-80901045D01*
X199815674Y-80901044D01*
X199811253Y-80896134D01*
X199686113Y-80805214D01*
X199662094Y-80787763D01*
X199662093Y-80787762D01*
X199656752Y-80783882D01*
X199650724Y-80781198D01*
X199650722Y-80781197D01*
X199488319Y-80708891D01*
X199488318Y-80708891D01*
X199482288Y-80706206D01*
X199379074Y-80684267D01*
X199301944Y-80667872D01*
X199301939Y-80667872D01*
X199295487Y-80666500D01*
X199104513Y-80666500D01*
X199098061Y-80667872D01*
X199098056Y-80667872D01*
X199020926Y-80684267D01*
X198917712Y-80706206D01*
X198911682Y-80708891D01*
X198911681Y-80708891D01*
X198749278Y-80781197D01*
X198749276Y-80781198D01*
X198743248Y-80783882D01*
X198737907Y-80787762D01*
X198737906Y-80787763D01*
X198713887Y-80805214D01*
X198588747Y-80896134D01*
X198584326Y-80901044D01*
X198584325Y-80901045D01*
X198474244Y-81023303D01*
X198460960Y-81038056D01*
X198447199Y-81061891D01*
X198368941Y-81197438D01*
X198365473Y-81203444D01*
X198306458Y-81385072D01*
X198305768Y-81391633D01*
X198305768Y-81391635D01*
X198305169Y-81397337D01*
X198286496Y-81575000D01*
X193856766Y-81575000D01*
X193904621Y-81521852D01*
X193904622Y-81521851D01*
X193909040Y-81516944D01*
X193975920Y-81401104D01*
X194001223Y-81357279D01*
X194001224Y-81357278D01*
X194004527Y-81351556D01*
X194063542Y-81169928D01*
X194065392Y-81152332D01*
X194082814Y-80986565D01*
X194083504Y-80980000D01*
X194075206Y-80901045D01*
X194064232Y-80796635D01*
X194064232Y-80796633D01*
X194063542Y-80790072D01*
X194004527Y-80608444D01*
X193985218Y-80575000D01*
X202811496Y-80575000D01*
X202812186Y-80581565D01*
X202829665Y-80747865D01*
X202831458Y-80764928D01*
X202890473Y-80946556D01*
X202893776Y-80952278D01*
X202893777Y-80952279D01*
X202902738Y-80967800D01*
X202985960Y-81111944D01*
X202990378Y-81116851D01*
X202990379Y-81116852D01*
X203091228Y-81228856D01*
X203113747Y-81253866D01*
X203188944Y-81308500D01*
X203251385Y-81353866D01*
X203268248Y-81366118D01*
X203274276Y-81368802D01*
X203274278Y-81368803D01*
X203382765Y-81417104D01*
X203442712Y-81443794D01*
X203521731Y-81460590D01*
X203623056Y-81482128D01*
X203623061Y-81482128D01*
X203629513Y-81483500D01*
X203820487Y-81483500D01*
X203826939Y-81482128D01*
X203826944Y-81482128D01*
X203928269Y-81460590D01*
X204007288Y-81443794D01*
X204067235Y-81417104D01*
X204175722Y-81368803D01*
X204175724Y-81368802D01*
X204181752Y-81366118D01*
X204198616Y-81353866D01*
X204261056Y-81308500D01*
X204336253Y-81253866D01*
X204358772Y-81228856D01*
X204419219Y-81191617D01*
X204490202Y-81192970D01*
X204518523Y-81205908D01*
X204571032Y-81238275D01*
X204577262Y-81242115D01*
X204656138Y-81268277D01*
X204738611Y-81295632D01*
X204738613Y-81295632D01*
X204745139Y-81297797D01*
X204751975Y-81298497D01*
X204751978Y-81298498D01*
X204795031Y-81302909D01*
X204849600Y-81308500D01*
X205650400Y-81308500D01*
X205653646Y-81308163D01*
X205653650Y-81308163D01*
X205749308Y-81298238D01*
X205749312Y-81298237D01*
X205756166Y-81297526D01*
X205762702Y-81295345D01*
X205762704Y-81295345D01*
X205909400Y-81246403D01*
X205923946Y-81241550D01*
X206074348Y-81148478D01*
X206160784Y-81061891D01*
X206223066Y-81027812D01*
X206293886Y-81032815D01*
X206338976Y-81061736D01*
X206426697Y-81149305D01*
X206432927Y-81153145D01*
X206432928Y-81153146D01*
X206570095Y-81237697D01*
X206577262Y-81242115D01*
X206656138Y-81268277D01*
X206738611Y-81295632D01*
X206738613Y-81295632D01*
X206745139Y-81297797D01*
X206751975Y-81298497D01*
X206751978Y-81298498D01*
X206795031Y-81302909D01*
X206849600Y-81308500D01*
X207650400Y-81308500D01*
X207653646Y-81308163D01*
X207653650Y-81308163D01*
X207749308Y-81298238D01*
X207749312Y-81298237D01*
X207756166Y-81297526D01*
X207762702Y-81295345D01*
X207762704Y-81295345D01*
X207909400Y-81246403D01*
X207923946Y-81241550D01*
X207987711Y-81202091D01*
X208056163Y-81183254D01*
X208123932Y-81204416D01*
X208147649Y-81224926D01*
X208211055Y-81295345D01*
X208263747Y-81353866D01*
X208326719Y-81399618D01*
X208404102Y-81455840D01*
X208418248Y-81466118D01*
X208424276Y-81468802D01*
X208424278Y-81468803D01*
X208579824Y-81538056D01*
X208592712Y-81543794D01*
X208645970Y-81555114D01*
X208657889Y-81557648D01*
X208720363Y-81591377D01*
X208754684Y-81653526D01*
X208751525Y-81719831D01*
X208734737Y-81771500D01*
X208705958Y-81860072D01*
X208705268Y-81866633D01*
X208705268Y-81866635D01*
X208691540Y-81997251D01*
X208685996Y-82050000D01*
X208686686Y-82056565D01*
X208691906Y-82106226D01*
X208705958Y-82239928D01*
X208764973Y-82421556D01*
X208860460Y-82586944D01*
X208864878Y-82591851D01*
X208864879Y-82591852D01*
X208956003Y-82693055D01*
X208988247Y-82728866D01*
X209070177Y-82788392D01*
X209095781Y-82806994D01*
X209142748Y-82841118D01*
X209148776Y-82843802D01*
X209148778Y-82843803D01*
X209311181Y-82916109D01*
X209317212Y-82918794D01*
X209410613Y-82938647D01*
X209497556Y-82957128D01*
X209497561Y-82957128D01*
X209504013Y-82958500D01*
X209694987Y-82958500D01*
X209701439Y-82957128D01*
X209701444Y-82957128D01*
X209788387Y-82938647D01*
X209881788Y-82918794D01*
X209887819Y-82916109D01*
X210050222Y-82843803D01*
X210050224Y-82843802D01*
X210056252Y-82841118D01*
X210103220Y-82806994D01*
X210128823Y-82788392D01*
X210210753Y-82728866D01*
X210218615Y-82720135D01*
X210279057Y-82682896D01*
X210350040Y-82684246D01*
X210405885Y-82720135D01*
X210413747Y-82728866D01*
X210495677Y-82788392D01*
X210521281Y-82806994D01*
X210568248Y-82841118D01*
X210574276Y-82843802D01*
X210574278Y-82843803D01*
X210736681Y-82916109D01*
X210742712Y-82918794D01*
X210836113Y-82938647D01*
X210923056Y-82957128D01*
X210923061Y-82957128D01*
X210929513Y-82958500D01*
X211120487Y-82958500D01*
X211126939Y-82957128D01*
X211126944Y-82957128D01*
X211213887Y-82938647D01*
X211307288Y-82918794D01*
X211313319Y-82916109D01*
X211475722Y-82843803D01*
X211475724Y-82843802D01*
X211481752Y-82841118D01*
X211513190Y-82818277D01*
X211580058Y-82794419D01*
X211649209Y-82810500D01*
X211661310Y-82818277D01*
X211692748Y-82841118D01*
X211698776Y-82843802D01*
X211698778Y-82843803D01*
X211861181Y-82916109D01*
X211867212Y-82918794D01*
X211960613Y-82938647D01*
X212047556Y-82957128D01*
X212047561Y-82957128D01*
X212054013Y-82958500D01*
X212244987Y-82958500D01*
X212251439Y-82957128D01*
X212251444Y-82957128D01*
X212338387Y-82938647D01*
X212431788Y-82918794D01*
X212437819Y-82916109D01*
X212600222Y-82843803D01*
X212600224Y-82843802D01*
X212606252Y-82841118D01*
X212645984Y-82812251D01*
X212712852Y-82788392D01*
X212782003Y-82804473D01*
X212794106Y-82812251D01*
X212837534Y-82843803D01*
X212868248Y-82866118D01*
X212874276Y-82868802D01*
X212874278Y-82868803D01*
X213018706Y-82933106D01*
X213042712Y-82943794D01*
X213118367Y-82959875D01*
X213223056Y-82982128D01*
X213223061Y-82982128D01*
X213229513Y-82983500D01*
X213420487Y-82983500D01*
X213426939Y-82982128D01*
X213426944Y-82982128D01*
X213565660Y-82952642D01*
X213607288Y-82943794D01*
X213613321Y-82941108D01*
X213613324Y-82941107D01*
X213631295Y-82933106D01*
X213701662Y-82923673D01*
X213765959Y-82953781D01*
X213791659Y-82985213D01*
X213835960Y-83061944D01*
X213840378Y-83066851D01*
X213840379Y-83066852D01*
X213887965Y-83119702D01*
X213963747Y-83203866D01*
X214118248Y-83316118D01*
X214124276Y-83318802D01*
X214124278Y-83318803D01*
X214286681Y-83391109D01*
X214292712Y-83393794D01*
X214386113Y-83413647D01*
X214473056Y-83432128D01*
X214473061Y-83432128D01*
X214479513Y-83433500D01*
X214670487Y-83433500D01*
X214676939Y-83432128D01*
X214676944Y-83432128D01*
X214763887Y-83413647D01*
X214857288Y-83393794D01*
X214863319Y-83391109D01*
X215025722Y-83318803D01*
X215025724Y-83318802D01*
X215031752Y-83316118D01*
X215186253Y-83203866D01*
X215262035Y-83119702D01*
X215309621Y-83066852D01*
X215309622Y-83066851D01*
X215314040Y-83061944D01*
X215388425Y-82933106D01*
X215406223Y-82902279D01*
X215406224Y-82902278D01*
X215409527Y-82896556D01*
X215468542Y-82714928D01*
X215473775Y-82665144D01*
X215487814Y-82531565D01*
X215488504Y-82525000D01*
X215473573Y-82382939D01*
X215469232Y-82341635D01*
X215469232Y-82341633D01*
X215468542Y-82335072D01*
X215409527Y-82153444D01*
X215403530Y-82143056D01*
X215324426Y-82006045D01*
X215314040Y-81988056D01*
X215224744Y-81888882D01*
X215190675Y-81851045D01*
X215190674Y-81851044D01*
X215186253Y-81846134D01*
X215031752Y-81733882D01*
X215025724Y-81731198D01*
X215025722Y-81731197D01*
X214863319Y-81658891D01*
X214863318Y-81658891D01*
X214857288Y-81656206D01*
X214763887Y-81636353D01*
X214676944Y-81617872D01*
X214676939Y-81617872D01*
X214670487Y-81616500D01*
X214479513Y-81616500D01*
X214473061Y-81617872D01*
X214473056Y-81617872D01*
X214340577Y-81646032D01*
X214292712Y-81656206D01*
X214286679Y-81658892D01*
X214286676Y-81658893D01*
X214268705Y-81666894D01*
X214198338Y-81676327D01*
X214134041Y-81646219D01*
X214108340Y-81614786D01*
X214094825Y-81591377D01*
X214064040Y-81538056D01*
X214001685Y-81468803D01*
X213940675Y-81401045D01*
X213940674Y-81401044D01*
X213936253Y-81396134D01*
X213800531Y-81297526D01*
X213787094Y-81287763D01*
X213787093Y-81287762D01*
X213781752Y-81283882D01*
X213775724Y-81281198D01*
X213775722Y-81281197D01*
X213613319Y-81208891D01*
X213613318Y-81208891D01*
X213607288Y-81206206D01*
X213499308Y-81183254D01*
X213426944Y-81167872D01*
X213426939Y-81167872D01*
X213420487Y-81166500D01*
X213229513Y-81166500D01*
X213223061Y-81167872D01*
X213223056Y-81167872D01*
X213150692Y-81183254D01*
X213042712Y-81206206D01*
X213036682Y-81208891D01*
X213036681Y-81208891D01*
X212874278Y-81281197D01*
X212874276Y-81281198D01*
X212868248Y-81283882D01*
X212862907Y-81287762D01*
X212862906Y-81287763D01*
X212828516Y-81312749D01*
X212761648Y-81336608D01*
X212692497Y-81320527D01*
X212680394Y-81312749D01*
X212611594Y-81262763D01*
X212611593Y-81262762D01*
X212606252Y-81258882D01*
X212600224Y-81256198D01*
X212600222Y-81256197D01*
X212437819Y-81183891D01*
X212437818Y-81183891D01*
X212431788Y-81181206D01*
X212338388Y-81161353D01*
X212251444Y-81142872D01*
X212251439Y-81142872D01*
X212244987Y-81141500D01*
X212054013Y-81141500D01*
X212047561Y-81142872D01*
X212047556Y-81142872D01*
X211960612Y-81161353D01*
X211867212Y-81181206D01*
X211861182Y-81183891D01*
X211861181Y-81183891D01*
X211698778Y-81256197D01*
X211698776Y-81256198D01*
X211692748Y-81258882D01*
X211669165Y-81276016D01*
X211661310Y-81281723D01*
X211594442Y-81305581D01*
X211525291Y-81289500D01*
X211513190Y-81281723D01*
X211505335Y-81276016D01*
X211481752Y-81258882D01*
X211475724Y-81256198D01*
X211475722Y-81256197D01*
X211313319Y-81183891D01*
X211313318Y-81183891D01*
X211307288Y-81181206D01*
X211213888Y-81161353D01*
X211126944Y-81142872D01*
X211126939Y-81142872D01*
X211120487Y-81141500D01*
X210929513Y-81141500D01*
X210923061Y-81142872D01*
X210923056Y-81142872D01*
X210836112Y-81161353D01*
X210742712Y-81181206D01*
X210736682Y-81183891D01*
X210736681Y-81183891D01*
X210574278Y-81256197D01*
X210574276Y-81256198D01*
X210568248Y-81258882D01*
X210562907Y-81262762D01*
X210562906Y-81262763D01*
X210529126Y-81287306D01*
X210413747Y-81371134D01*
X210405885Y-81379865D01*
X210345443Y-81417104D01*
X210274460Y-81415754D01*
X210218615Y-81379865D01*
X210210753Y-81371134D01*
X210095374Y-81287306D01*
X210061594Y-81262763D01*
X210061593Y-81262762D01*
X210056252Y-81258882D01*
X210050224Y-81256198D01*
X210050222Y-81256197D01*
X209887819Y-81183891D01*
X209887818Y-81183891D01*
X209881788Y-81181206D01*
X209819057Y-81167872D01*
X209816611Y-81167352D01*
X209754137Y-81133623D01*
X209719816Y-81071474D01*
X209722975Y-81005169D01*
X209759664Y-80892251D01*
X209768542Y-80864928D01*
X209769414Y-80856638D01*
X209787814Y-80681565D01*
X209788504Y-80675000D01*
X209768542Y-80485072D01*
X209709527Y-80303444D01*
X209703787Y-80293503D01*
X209687050Y-80224510D01*
X209710270Y-80157418D01*
X209766076Y-80113530D01*
X209826515Y-80105241D01*
X209848514Y-80107631D01*
X209855328Y-80108000D01*
X212127885Y-80108000D01*
X212143124Y-80103525D01*
X212144329Y-80102135D01*
X212146000Y-80094452D01*
X212146000Y-80089884D01*
X212654000Y-80089884D01*
X212658475Y-80105123D01*
X212659865Y-80106328D01*
X212667548Y-80107999D01*
X214944669Y-80107999D01*
X214951490Y-80107629D01*
X215002352Y-80102105D01*
X215017604Y-80098479D01*
X215138054Y-80053324D01*
X215153649Y-80044786D01*
X215255724Y-79968285D01*
X215268285Y-79955724D01*
X215344786Y-79853649D01*
X215353324Y-79838054D01*
X215373239Y-79784930D01*
X223237570Y-79784930D01*
X223256035Y-80019545D01*
X223257578Y-80029292D01*
X223312517Y-80258125D01*
X223315566Y-80267510D01*
X223405625Y-80484933D01*
X223410107Y-80493728D01*
X223521072Y-80674805D01*
X223531530Y-80684267D01*
X223540306Y-80680484D01*
X224427978Y-79792812D01*
X224434356Y-79781132D01*
X225164408Y-79781132D01*
X225164539Y-79782965D01*
X225168790Y-79789580D01*
X226056650Y-80677440D01*
X226069030Y-80684200D01*
X226076680Y-80678473D01*
X226189893Y-80493728D01*
X226194375Y-80484933D01*
X226284434Y-80267510D01*
X226287483Y-80258125D01*
X226342422Y-80029292D01*
X226343965Y-80019545D01*
X226362430Y-79784930D01*
X226362430Y-79775070D01*
X226343965Y-79540455D01*
X226342422Y-79530708D01*
X226287483Y-79301875D01*
X226284434Y-79292490D01*
X226194375Y-79075067D01*
X226189893Y-79066272D01*
X226078928Y-78885195D01*
X226068470Y-78875733D01*
X226059694Y-78879516D01*
X225172022Y-79767188D01*
X225164408Y-79781132D01*
X224434356Y-79781132D01*
X224435592Y-79778868D01*
X224435461Y-79777035D01*
X224431210Y-79770420D01*
X223543350Y-78882560D01*
X223530970Y-78875800D01*
X223523320Y-78881527D01*
X223410107Y-79066272D01*
X223405625Y-79075067D01*
X223315566Y-79292490D01*
X223312517Y-79301875D01*
X223257578Y-79530708D01*
X223256035Y-79540455D01*
X223237570Y-79775070D01*
X223237570Y-79784930D01*
X215373239Y-79784930D01*
X215398478Y-79717606D01*
X215402105Y-79702351D01*
X215407631Y-79651486D01*
X215408000Y-79644672D01*
X215408000Y-79065641D01*
X215409226Y-79048106D01*
X215412244Y-79026628D01*
X215412851Y-79018741D01*
X215413058Y-79003963D01*
X215412671Y-78996061D01*
X215408785Y-78961413D01*
X215408000Y-78947369D01*
X215408000Y-78172115D01*
X215403525Y-78156876D01*
X215402135Y-78155671D01*
X215394452Y-78154000D01*
X215231326Y-78154000D01*
X215220301Y-78157237D01*
X215223539Y-78164328D01*
X215290137Y-78230926D01*
X215324163Y-78293238D01*
X215319098Y-78364053D01*
X215290137Y-78409116D01*
X215262063Y-78437190D01*
X215254452Y-78451128D01*
X215254583Y-78452966D01*
X215258834Y-78459581D01*
X215290138Y-78490885D01*
X215324162Y-78553197D01*
X215319096Y-78624013D01*
X215290136Y-78669075D01*
X214959210Y-79000000D01*
X214600000Y-79359210D01*
X214269074Y-79690137D01*
X214206762Y-79724162D01*
X214135946Y-79719097D01*
X214090885Y-79690138D01*
X214062808Y-79662062D01*
X214048872Y-79654452D01*
X214047034Y-79654583D01*
X214040419Y-79658834D01*
X214009115Y-79690138D01*
X213946803Y-79724162D01*
X213875987Y-79719096D01*
X213830925Y-79690136D01*
X213512811Y-79372021D01*
X213498868Y-79364408D01*
X213497034Y-79364539D01*
X213490421Y-79368790D01*
X213169075Y-79690136D01*
X213106762Y-79724161D01*
X213035947Y-79719097D01*
X212990885Y-79690138D01*
X212962808Y-79662062D01*
X212948872Y-79654452D01*
X212947034Y-79654583D01*
X212940417Y-79658836D01*
X212909116Y-79690137D01*
X212846804Y-79724163D01*
X212775989Y-79719098D01*
X212730926Y-79690137D01*
X212666812Y-79626023D01*
X212656723Y-79620514D01*
X212654000Y-79627815D01*
X212654000Y-80089884D01*
X212146000Y-80089884D01*
X212146000Y-79631326D01*
X212142763Y-79620301D01*
X212135672Y-79623539D01*
X212069074Y-79690137D01*
X212006762Y-79724163D01*
X211935947Y-79719098D01*
X211890884Y-79690137D01*
X211862810Y-79662063D01*
X211848872Y-79654452D01*
X211847034Y-79654583D01*
X211840419Y-79658834D01*
X211809115Y-79690138D01*
X211746803Y-79724162D01*
X211675987Y-79719096D01*
X211630925Y-79690136D01*
X211312811Y-79372021D01*
X211298868Y-79364408D01*
X211297034Y-79364539D01*
X211290421Y-79368790D01*
X210969075Y-79690136D01*
X210906762Y-79724161D01*
X210835947Y-79719097D01*
X210790885Y-79690138D01*
X210762808Y-79662062D01*
X210748872Y-79654452D01*
X210747034Y-79654583D01*
X210740419Y-79658834D01*
X210709115Y-79690138D01*
X210646803Y-79724162D01*
X210575987Y-79719096D01*
X210530925Y-79690136D01*
X209841920Y-79001130D01*
X210564408Y-79001130D01*
X210564539Y-79002966D01*
X210568789Y-79009579D01*
X210737192Y-79177981D01*
X210751130Y-79185592D01*
X210752966Y-79185460D01*
X210759579Y-79181211D01*
X210927981Y-79012808D01*
X210934358Y-79001130D01*
X211664408Y-79001130D01*
X211664539Y-79002966D01*
X211668789Y-79009579D01*
X211837192Y-79177981D01*
X211851130Y-79185592D01*
X211852966Y-79185460D01*
X211859579Y-79181211D01*
X212027981Y-79012808D01*
X212034358Y-79001130D01*
X212764408Y-79001130D01*
X212764539Y-79002966D01*
X212768789Y-79009579D01*
X212937192Y-79177981D01*
X212951130Y-79185592D01*
X212952966Y-79185460D01*
X212959579Y-79181211D01*
X213127981Y-79012808D01*
X213134358Y-79001130D01*
X213864408Y-79001130D01*
X213864539Y-79002966D01*
X213868789Y-79009579D01*
X214037192Y-79177981D01*
X214051130Y-79185592D01*
X214052966Y-79185460D01*
X214059579Y-79181211D01*
X214227981Y-79012808D01*
X214235592Y-78998870D01*
X214235461Y-78997034D01*
X214231211Y-78990421D01*
X214062808Y-78822019D01*
X214048870Y-78814408D01*
X214047034Y-78814540D01*
X214040421Y-78818789D01*
X213872019Y-78987192D01*
X213864408Y-79001130D01*
X213134358Y-79001130D01*
X213135592Y-78998870D01*
X213135461Y-78997034D01*
X213131211Y-78990421D01*
X212962808Y-78822019D01*
X212948870Y-78814408D01*
X212947034Y-78814540D01*
X212940421Y-78818789D01*
X212772019Y-78987192D01*
X212764408Y-79001130D01*
X212034358Y-79001130D01*
X212035592Y-78998870D01*
X212035461Y-78997034D01*
X212031211Y-78990421D01*
X211862808Y-78822019D01*
X211848870Y-78814408D01*
X211847034Y-78814540D01*
X211840421Y-78818789D01*
X211672019Y-78987192D01*
X211664408Y-79001130D01*
X210934358Y-79001130D01*
X210935592Y-78998870D01*
X210935461Y-78997034D01*
X210931211Y-78990421D01*
X210762808Y-78822019D01*
X210748870Y-78814408D01*
X210747034Y-78814540D01*
X210740421Y-78818789D01*
X210572019Y-78987192D01*
X210564408Y-79001130D01*
X209841920Y-79001130D01*
X209840790Y-79000000D01*
X209509863Y-78669074D01*
X209475838Y-78606762D01*
X209480903Y-78535946D01*
X209509862Y-78490885D01*
X209537938Y-78462808D01*
X209544315Y-78451130D01*
X210014408Y-78451130D01*
X210014540Y-78452966D01*
X210018789Y-78459579D01*
X210187192Y-78627981D01*
X210201130Y-78635592D01*
X210202966Y-78635461D01*
X210209579Y-78631211D01*
X210377981Y-78462808D01*
X210384358Y-78451130D01*
X211114408Y-78451130D01*
X211114540Y-78452966D01*
X211118789Y-78459579D01*
X211287192Y-78627981D01*
X211301130Y-78635592D01*
X211302966Y-78635461D01*
X211309579Y-78631211D01*
X211477981Y-78462808D01*
X211484358Y-78451130D01*
X213314408Y-78451130D01*
X213314540Y-78452966D01*
X213318789Y-78459579D01*
X213487192Y-78627981D01*
X213501130Y-78635592D01*
X213502966Y-78635461D01*
X213509579Y-78631211D01*
X213677981Y-78462808D01*
X213684358Y-78451130D01*
X214414408Y-78451130D01*
X214414540Y-78452966D01*
X214418789Y-78459579D01*
X214587192Y-78627981D01*
X214601130Y-78635592D01*
X214602966Y-78635461D01*
X214609579Y-78631211D01*
X214777981Y-78462808D01*
X214785592Y-78448870D01*
X214785460Y-78447034D01*
X214781211Y-78440421D01*
X214612808Y-78272019D01*
X214598870Y-78264408D01*
X214597034Y-78264539D01*
X214590421Y-78268789D01*
X214422019Y-78437192D01*
X214414408Y-78451130D01*
X213684358Y-78451130D01*
X213685592Y-78448870D01*
X213685460Y-78447034D01*
X213681211Y-78440421D01*
X213512808Y-78272019D01*
X213498870Y-78264408D01*
X213497034Y-78264539D01*
X213490421Y-78268789D01*
X213322019Y-78437192D01*
X213314408Y-78451130D01*
X211484358Y-78451130D01*
X211485592Y-78448870D01*
X211485460Y-78447034D01*
X211481211Y-78440421D01*
X211312808Y-78272019D01*
X211298870Y-78264408D01*
X211297034Y-78264539D01*
X211290421Y-78268789D01*
X211122019Y-78437192D01*
X211114408Y-78451130D01*
X210384358Y-78451130D01*
X210385592Y-78448870D01*
X210385460Y-78447034D01*
X210381211Y-78440421D01*
X210212808Y-78272019D01*
X210198870Y-78264408D01*
X210197034Y-78264539D01*
X210190421Y-78268789D01*
X210022019Y-78437192D01*
X210014408Y-78451130D01*
X209544315Y-78451130D01*
X209545548Y-78448872D01*
X209545417Y-78447034D01*
X209541164Y-78440417D01*
X209509863Y-78409116D01*
X209475837Y-78346804D01*
X209480902Y-78275989D01*
X209509863Y-78230926D01*
X209573977Y-78166812D01*
X209579486Y-78156723D01*
X209572185Y-78154000D01*
X209410116Y-78154000D01*
X209394877Y-78158475D01*
X209393672Y-78159865D01*
X209392001Y-78167548D01*
X209392001Y-78940868D01*
X209391007Y-78956661D01*
X209387850Y-78981653D01*
X209387654Y-78995660D01*
X209391400Y-79033868D01*
X209392001Y-79046164D01*
X209392001Y-79644669D01*
X209392370Y-79651488D01*
X209398315Y-79706217D01*
X209385786Y-79776099D01*
X209337465Y-79828114D01*
X209268693Y-79845748D01*
X209221803Y-79834930D01*
X209163319Y-79808891D01*
X209163318Y-79808891D01*
X209157288Y-79806206D01*
X209057193Y-79784930D01*
X208976944Y-79767872D01*
X208976939Y-79767872D01*
X208970487Y-79766500D01*
X208914595Y-79766500D01*
X208846474Y-79746498D01*
X208825500Y-79729595D01*
X208803652Y-79707747D01*
X208796112Y-79699461D01*
X208792000Y-79692982D01*
X208742348Y-79646356D01*
X208739507Y-79643602D01*
X208719770Y-79623865D01*
X208716573Y-79621385D01*
X208707551Y-79613680D01*
X208694116Y-79601064D01*
X208675321Y-79583414D01*
X208668375Y-79579595D01*
X208668372Y-79579593D01*
X208657566Y-79573652D01*
X208641047Y-79562801D01*
X208637343Y-79559928D01*
X208625041Y-79550386D01*
X208617772Y-79547241D01*
X208617768Y-79547238D01*
X208584463Y-79532826D01*
X208573813Y-79527609D01*
X208535060Y-79506305D01*
X208515437Y-79501267D01*
X208496734Y-79494863D01*
X208485420Y-79489967D01*
X208485419Y-79489967D01*
X208478145Y-79486819D01*
X208470322Y-79485580D01*
X208470312Y-79485577D01*
X208434476Y-79479901D01*
X208422854Y-79477495D01*
X208400977Y-79471878D01*
X208339971Y-79435563D01*
X208312789Y-79389713D01*
X208293867Y-79332998D01*
X208293866Y-79332996D01*
X208291550Y-79326054D01*
X208198478Y-79175652D01*
X208073303Y-79050695D01*
X208067072Y-79046854D01*
X207928968Y-78961725D01*
X207928966Y-78961724D01*
X207922738Y-78957885D01*
X207779409Y-78910345D01*
X207761389Y-78904368D01*
X207761387Y-78904368D01*
X207754861Y-78902203D01*
X207748025Y-78901503D01*
X207748022Y-78901502D01*
X207704969Y-78897091D01*
X207650400Y-78891500D01*
X206849600Y-78891500D01*
X206846354Y-78891837D01*
X206846350Y-78891837D01*
X206750692Y-78901762D01*
X206750688Y-78901763D01*
X206743834Y-78902474D01*
X206737298Y-78904655D01*
X206737296Y-78904655D01*
X206626347Y-78941671D01*
X206576054Y-78958450D01*
X206425652Y-79051522D01*
X206420479Y-79056704D01*
X206339216Y-79138109D01*
X206276934Y-79172188D01*
X206206114Y-79167185D01*
X206161025Y-79138264D01*
X206078483Y-79055866D01*
X206073303Y-79050695D01*
X206067072Y-79046854D01*
X205928968Y-78961725D01*
X205928966Y-78961724D01*
X205922738Y-78957885D01*
X205779409Y-78910345D01*
X205761389Y-78904368D01*
X205761387Y-78904368D01*
X205754861Y-78902203D01*
X205748025Y-78901503D01*
X205748022Y-78901502D01*
X205704969Y-78897091D01*
X205650400Y-78891500D01*
X204849600Y-78891500D01*
X204846354Y-78891837D01*
X204846350Y-78891837D01*
X204750692Y-78901762D01*
X204750688Y-78901763D01*
X204743834Y-78902474D01*
X204737298Y-78904655D01*
X204737296Y-78904655D01*
X204626347Y-78941671D01*
X204576054Y-78958450D01*
X204425652Y-79051522D01*
X204300695Y-79176697D01*
X204207885Y-79327262D01*
X204193039Y-79372021D01*
X204187917Y-79387464D01*
X204147487Y-79445824D01*
X204099478Y-79467161D01*
X204100108Y-79469328D01*
X204082221Y-79474524D01*
X204080658Y-79474978D01*
X204061306Y-79478986D01*
X204049068Y-79480532D01*
X204049066Y-79480533D01*
X204041203Y-79481526D01*
X204000086Y-79497806D01*
X203988885Y-79501641D01*
X203946406Y-79513982D01*
X203939587Y-79518015D01*
X203939582Y-79518017D01*
X203928971Y-79524293D01*
X203911221Y-79532990D01*
X203892383Y-79540448D01*
X203885967Y-79545109D01*
X203885966Y-79545110D01*
X203874604Y-79553365D01*
X203856931Y-79566206D01*
X203856625Y-79566428D01*
X203846701Y-79572947D01*
X203815460Y-79591422D01*
X203815455Y-79591426D01*
X203808637Y-79595458D01*
X203794313Y-79609782D01*
X203779281Y-79622621D01*
X203774599Y-79626023D01*
X203769305Y-79629869D01*
X203769303Y-79629871D01*
X203762893Y-79634528D01*
X203762892Y-79634529D01*
X203762748Y-79634331D01*
X203703315Y-79664401D01*
X203680411Y-79666500D01*
X203629513Y-79666500D01*
X203623061Y-79667872D01*
X203623056Y-79667872D01*
X203536113Y-79686353D01*
X203442712Y-79706206D01*
X203436682Y-79708891D01*
X203436681Y-79708891D01*
X203274278Y-79781197D01*
X203274276Y-79781198D01*
X203268248Y-79783882D01*
X203113747Y-79896134D01*
X202985960Y-80038056D01*
X202979719Y-80048866D01*
X202900431Y-80186197D01*
X202890473Y-80203444D01*
X202831458Y-80385072D01*
X202830768Y-80391633D01*
X202830768Y-80391635D01*
X202820962Y-80484933D01*
X202811496Y-80575000D01*
X193985218Y-80575000D01*
X193909040Y-80443056D01*
X193862741Y-80391635D01*
X193785675Y-80306045D01*
X193785674Y-80306044D01*
X193781253Y-80301134D01*
X193626752Y-80188882D01*
X193620724Y-80186198D01*
X193620722Y-80186197D01*
X193458319Y-80113891D01*
X193458318Y-80113891D01*
X193452288Y-80111206D01*
X193358887Y-80091353D01*
X193271944Y-80072872D01*
X193271939Y-80072872D01*
X193265487Y-80071500D01*
X193074513Y-80071500D01*
X193068061Y-80072872D01*
X193068056Y-80072872D01*
X192981113Y-80091353D01*
X192887712Y-80111206D01*
X192881682Y-80113891D01*
X192881681Y-80113891D01*
X192719278Y-80186197D01*
X192719276Y-80186198D01*
X192713248Y-80188882D01*
X192558747Y-80301134D01*
X192554326Y-80306044D01*
X192554325Y-80306045D01*
X192477260Y-80391635D01*
X192430960Y-80443056D01*
X192335473Y-80608444D01*
X192276458Y-80790072D01*
X192275768Y-80796633D01*
X192275768Y-80796635D01*
X192264794Y-80901045D01*
X192256496Y-80980000D01*
X188543862Y-80980000D01*
X188528414Y-80967800D01*
X188528410Y-80967798D01*
X188524359Y-80964598D01*
X188328789Y-80856638D01*
X188323920Y-80854914D01*
X188323916Y-80854912D01*
X188123087Y-80783795D01*
X188123083Y-80783794D01*
X188118212Y-80782069D01*
X188113119Y-80781162D01*
X188113116Y-80781161D01*
X187903373Y-80743800D01*
X187903367Y-80743799D01*
X187898284Y-80742894D01*
X187824452Y-80741992D01*
X187680081Y-80740228D01*
X187680079Y-80740228D01*
X187674911Y-80740165D01*
X187454091Y-80773955D01*
X187241756Y-80843357D01*
X187212926Y-80858365D01*
X187130939Y-80901045D01*
X187043607Y-80946507D01*
X187039474Y-80949610D01*
X187039471Y-80949612D01*
X186877166Y-81071474D01*
X186864965Y-81080635D01*
X186861393Y-81084373D01*
X186714321Y-81238275D01*
X186710629Y-81242138D01*
X186603201Y-81399621D01*
X186548293Y-81444621D01*
X186477768Y-81452792D01*
X186414021Y-81421538D01*
X186393324Y-81397054D01*
X186312822Y-81272617D01*
X186312820Y-81272614D01*
X186310014Y-81268277D01*
X186159670Y-81103051D01*
X186155619Y-81099852D01*
X186155615Y-81099848D01*
X185988414Y-80967800D01*
X185988410Y-80967798D01*
X185984359Y-80964598D01*
X185788789Y-80856638D01*
X185783920Y-80854914D01*
X185783916Y-80854912D01*
X185583087Y-80783795D01*
X185583083Y-80783794D01*
X185578212Y-80782069D01*
X185573119Y-80781162D01*
X185573116Y-80781161D01*
X185363373Y-80743800D01*
X185363367Y-80743799D01*
X185358284Y-80742894D01*
X185284452Y-80741992D01*
X185140081Y-80740228D01*
X185140079Y-80740228D01*
X185134911Y-80740165D01*
X184914091Y-80773955D01*
X184701756Y-80843357D01*
X184672926Y-80858365D01*
X184590939Y-80901045D01*
X184503607Y-80946507D01*
X184499474Y-80949610D01*
X184499471Y-80949612D01*
X184337166Y-81071474D01*
X184324965Y-81080635D01*
X184321393Y-81084373D01*
X184174321Y-81238275D01*
X184170629Y-81242138D01*
X184063201Y-81399621D01*
X184008293Y-81444621D01*
X183937768Y-81452792D01*
X183874021Y-81421538D01*
X183853324Y-81397054D01*
X183772822Y-81272617D01*
X183772820Y-81272614D01*
X183770014Y-81268277D01*
X183619670Y-81103051D01*
X183615619Y-81099852D01*
X183615615Y-81099848D01*
X183448414Y-80967800D01*
X183448410Y-80967798D01*
X183444359Y-80964598D01*
X183248789Y-80856638D01*
X183243920Y-80854914D01*
X183243916Y-80854912D01*
X183043087Y-80783795D01*
X183043083Y-80783794D01*
X183038212Y-80782069D01*
X183033119Y-80781162D01*
X183033116Y-80781161D01*
X182823373Y-80743800D01*
X182823367Y-80743799D01*
X182818284Y-80742894D01*
X182744452Y-80741992D01*
X182600081Y-80740228D01*
X182600079Y-80740228D01*
X182594911Y-80740165D01*
X182374091Y-80773955D01*
X182161756Y-80843357D01*
X182132926Y-80858365D01*
X182050939Y-80901045D01*
X181963607Y-80946507D01*
X181959474Y-80949610D01*
X181959471Y-80949612D01*
X181797166Y-81071474D01*
X181784965Y-81080635D01*
X181781393Y-81084373D01*
X181703898Y-81165466D01*
X181642374Y-81200895D01*
X181571462Y-81197438D01*
X181513676Y-81156192D01*
X181494823Y-81122644D01*
X181453324Y-81011946D01*
X181444786Y-80996351D01*
X181368285Y-80894276D01*
X181355724Y-80881715D01*
X181253649Y-80805214D01*
X181238054Y-80796676D01*
X181117606Y-80751522D01*
X181102351Y-80747895D01*
X181051486Y-80742369D01*
X181044672Y-80742000D01*
X180422115Y-80742000D01*
X180406876Y-80746475D01*
X180405671Y-80747865D01*
X180404000Y-80755548D01*
X180404000Y-83439884D01*
X179896000Y-83439884D01*
X179896000Y-82372115D01*
X179891525Y-82356876D01*
X179890135Y-82355671D01*
X179882452Y-82354000D01*
X178810116Y-82354000D01*
X178794877Y-82358475D01*
X178793672Y-82359865D01*
X178792001Y-82367548D01*
X178792001Y-82994669D01*
X175636974Y-82994669D01*
X175635620Y-81827885D01*
X178792000Y-81827885D01*
X178796475Y-81843124D01*
X178797865Y-81844329D01*
X178805548Y-81846000D01*
X179877885Y-81846000D01*
X179893124Y-81841525D01*
X179894329Y-81840135D01*
X179896000Y-81832452D01*
X179896000Y-80760116D01*
X179891525Y-80744877D01*
X179890135Y-80743672D01*
X179882452Y-80742001D01*
X179255331Y-80742001D01*
X179248510Y-80742371D01*
X179197648Y-80747895D01*
X179182396Y-80751521D01*
X179061946Y-80796676D01*
X179046351Y-80805214D01*
X178944276Y-80881715D01*
X178931715Y-80894276D01*
X178855214Y-80996351D01*
X178846676Y-81011946D01*
X178801522Y-81132394D01*
X178797895Y-81147649D01*
X178792369Y-81198514D01*
X178792000Y-81205328D01*
X178792000Y-81827885D01*
X175635620Y-81827885D01*
X175632769Y-79370000D01*
X180606496Y-79370000D01*
X180607186Y-79376565D01*
X180624901Y-79545110D01*
X180626458Y-79559928D01*
X180685473Y-79741556D01*
X180688776Y-79747278D01*
X180688777Y-79747279D01*
X180709910Y-79783882D01*
X180780960Y-79906944D01*
X180785378Y-79911851D01*
X180785379Y-79911852D01*
X180894594Y-80033148D01*
X180908747Y-80048866D01*
X181063248Y-80161118D01*
X181069276Y-80163802D01*
X181069278Y-80163803D01*
X181205629Y-80224510D01*
X181237712Y-80238794D01*
X181328657Y-80258125D01*
X181418056Y-80277128D01*
X181418061Y-80277128D01*
X181424513Y-80278500D01*
X181615487Y-80278500D01*
X181621939Y-80277128D01*
X181621944Y-80277128D01*
X181711343Y-80258125D01*
X181802288Y-80238794D01*
X181834371Y-80224510D01*
X181970722Y-80163803D01*
X181970724Y-80163802D01*
X181976752Y-80161118D01*
X182131253Y-80048866D01*
X182145406Y-80033148D01*
X182254621Y-79911852D01*
X182254622Y-79911851D01*
X182259040Y-79906944D01*
X182330090Y-79783882D01*
X182351223Y-79747279D01*
X182351224Y-79747278D01*
X182354527Y-79741556D01*
X182413542Y-79559928D01*
X182415100Y-79545110D01*
X182432814Y-79376565D01*
X182433504Y-79370000D01*
X182426344Y-79301875D01*
X182414232Y-79186635D01*
X182414232Y-79186633D01*
X182413542Y-79180072D01*
X182378894Y-79073436D01*
X182376867Y-79002468D01*
X182413529Y-78941671D01*
X182477241Y-78910345D01*
X182498727Y-78908500D01*
X184078134Y-78908500D01*
X184140316Y-78901745D01*
X184276705Y-78850615D01*
X184393261Y-78763261D01*
X184480615Y-78646705D01*
X184531745Y-78510316D01*
X184538500Y-78448134D01*
X184538500Y-76651866D01*
X184531745Y-76589684D01*
X184480615Y-76453295D01*
X184393261Y-76336739D01*
X184276705Y-76249385D01*
X184157687Y-76204767D01*
X184100923Y-76162125D01*
X184076223Y-76095564D01*
X184091430Y-76026215D01*
X184112977Y-75997535D01*
X184214052Y-75896812D01*
X184220730Y-75888965D01*
X184345003Y-75716020D01*
X184350313Y-75707183D01*
X184444670Y-75516267D01*
X184448469Y-75506672D01*
X184510377Y-75302910D01*
X184512555Y-75292837D01*
X184513986Y-75281962D01*
X184511775Y-75267778D01*
X184498617Y-75264000D01*
X181863225Y-75264000D01*
X181849694Y-75267973D01*
X181848257Y-75277966D01*
X181878565Y-75412446D01*
X181881645Y-75422275D01*
X181961770Y-75619603D01*
X181966413Y-75628794D01*
X182077694Y-75810388D01*
X182083777Y-75818699D01*
X182223213Y-75979667D01*
X182230577Y-75986879D01*
X182235522Y-75990985D01*
X182275156Y-76049889D01*
X182276653Y-76120870D01*
X182239537Y-76181392D01*
X182199264Y-76205910D01*
X182091705Y-76246232D01*
X182091704Y-76246233D01*
X182083295Y-76249385D01*
X181966739Y-76336739D01*
X181879385Y-76453295D01*
X181828255Y-76589684D01*
X181821500Y-76651866D01*
X181821500Y-78349692D01*
X181801498Y-78417813D01*
X181747842Y-78464306D01*
X181677568Y-78474410D01*
X181669303Y-78472939D01*
X181621944Y-78462872D01*
X181621939Y-78462872D01*
X181615487Y-78461500D01*
X181424513Y-78461500D01*
X181418061Y-78462872D01*
X181418056Y-78462872D01*
X181331113Y-78481353D01*
X181237712Y-78501206D01*
X181231682Y-78503891D01*
X181231681Y-78503891D01*
X181069278Y-78576197D01*
X181069276Y-78576198D01*
X181063248Y-78578882D01*
X180908747Y-78691134D01*
X180904326Y-78696044D01*
X180904325Y-78696045D01*
X180838959Y-78768642D01*
X180780960Y-78833056D01*
X180685473Y-78998444D01*
X180626458Y-79180072D01*
X180625768Y-79186633D01*
X180625768Y-79186635D01*
X180613656Y-79301875D01*
X180606496Y-79370000D01*
X175632769Y-79370000D01*
X175624726Y-72436695D01*
X181817251Y-72436695D01*
X181817548Y-72441848D01*
X181817548Y-72441851D01*
X181823011Y-72536590D01*
X181830110Y-72659715D01*
X181831247Y-72664761D01*
X181831248Y-72664767D01*
X181839571Y-72701697D01*
X181879222Y-72877639D01*
X181963266Y-73084616D01*
X182079987Y-73275088D01*
X182226250Y-73443938D01*
X182398126Y-73586632D01*
X182471955Y-73629774D01*
X182520679Y-73681412D01*
X182533750Y-73751195D01*
X182507019Y-73816967D01*
X182466562Y-73850327D01*
X182458457Y-73854546D01*
X182449738Y-73860036D01*
X182279433Y-73987905D01*
X182271726Y-73994748D01*
X182124590Y-74148717D01*
X182118104Y-74156727D01*
X181998098Y-74332649D01*
X181993000Y-74341623D01*
X181903338Y-74534783D01*
X181899775Y-74544470D01*
X181844389Y-74744183D01*
X181845912Y-74752607D01*
X181858292Y-74756000D01*
X184498344Y-74756000D01*
X184511875Y-74752027D01*
X184513180Y-74742947D01*
X184471214Y-74575875D01*
X184467892Y-74566118D01*
X184382972Y-74370814D01*
X184378105Y-74361739D01*
X184262426Y-74182926D01*
X184256136Y-74174757D01*
X184112806Y-74017240D01*
X184105273Y-74010215D01*
X183997877Y-73925400D01*
X207816500Y-73925400D01*
X207816837Y-73928646D01*
X207816837Y-73928650D01*
X207821253Y-73971206D01*
X207827474Y-74031166D01*
X207829655Y-74037702D01*
X207829655Y-74037704D01*
X207863874Y-74140271D01*
X207883450Y-74198946D01*
X207976522Y-74349348D01*
X208101697Y-74474305D01*
X208107927Y-74478145D01*
X208107928Y-74478146D01*
X208128973Y-74491118D01*
X208252262Y-74567115D01*
X208305168Y-74584663D01*
X208363527Y-74625094D01*
X208390764Y-74690658D01*
X208391500Y-74704256D01*
X208391500Y-75163001D01*
X208374619Y-75226000D01*
X208315473Y-75328444D01*
X208256458Y-75510072D01*
X208236496Y-75700000D01*
X208237186Y-75706565D01*
X208250340Y-75831715D01*
X208256458Y-75889928D01*
X208315473Y-76071556D01*
X208318776Y-76077278D01*
X208318777Y-76077279D01*
X208352686Y-76136010D01*
X208410960Y-76236944D01*
X208415378Y-76241851D01*
X208415379Y-76241852D01*
X208515266Y-76352788D01*
X208538747Y-76378866D01*
X208693248Y-76491118D01*
X208699276Y-76493802D01*
X208699278Y-76493803D01*
X208791447Y-76534839D01*
X208867712Y-76568794D01*
X208961112Y-76588647D01*
X209048056Y-76607128D01*
X209048061Y-76607128D01*
X209054513Y-76608500D01*
X209245487Y-76608500D01*
X209251949Y-76607127D01*
X209252829Y-76607034D01*
X209322668Y-76619806D01*
X209374515Y-76668308D01*
X209392000Y-76732344D01*
X209392000Y-76740874D01*
X209391007Y-76756665D01*
X209387849Y-76781660D01*
X209387654Y-76795660D01*
X209391399Y-76833860D01*
X209392000Y-76846155D01*
X209392000Y-77627885D01*
X209396475Y-77643124D01*
X209397865Y-77644329D01*
X209405548Y-77646000D01*
X209568674Y-77646000D01*
X209579699Y-77642763D01*
X209576461Y-77635672D01*
X209509863Y-77569074D01*
X209475837Y-77506762D01*
X209480902Y-77435947D01*
X209509863Y-77390884D01*
X209537937Y-77362810D01*
X209544315Y-77351130D01*
X210014408Y-77351130D01*
X210014540Y-77352966D01*
X210018789Y-77359579D01*
X210187192Y-77527981D01*
X210201130Y-77535592D01*
X210202966Y-77535461D01*
X210209579Y-77531211D01*
X210377981Y-77362808D01*
X210384358Y-77351130D01*
X211114408Y-77351130D01*
X211114540Y-77352966D01*
X211118789Y-77359579D01*
X211287192Y-77527981D01*
X211301130Y-77535592D01*
X211302966Y-77535461D01*
X211309579Y-77531211D01*
X211477981Y-77362808D01*
X211484358Y-77351130D01*
X213314408Y-77351130D01*
X213314540Y-77352966D01*
X213318789Y-77359579D01*
X213487192Y-77527981D01*
X213501130Y-77535592D01*
X213502966Y-77535461D01*
X213509579Y-77531211D01*
X213677981Y-77362808D01*
X213684358Y-77351130D01*
X214414408Y-77351130D01*
X214414540Y-77352966D01*
X214418789Y-77359579D01*
X214587192Y-77527981D01*
X214601130Y-77535592D01*
X214602966Y-77535461D01*
X214609579Y-77531211D01*
X214777981Y-77362808D01*
X214785592Y-77348870D01*
X214785460Y-77347034D01*
X214781211Y-77340421D01*
X214612808Y-77172019D01*
X214598870Y-77164408D01*
X214597034Y-77164539D01*
X214590421Y-77168789D01*
X214422019Y-77337192D01*
X214414408Y-77351130D01*
X213684358Y-77351130D01*
X213685592Y-77348870D01*
X213685460Y-77347034D01*
X213681211Y-77340421D01*
X213512808Y-77172019D01*
X213498870Y-77164408D01*
X213497034Y-77164539D01*
X213490421Y-77168789D01*
X213322019Y-77337192D01*
X213314408Y-77351130D01*
X211484358Y-77351130D01*
X211485592Y-77348870D01*
X211485460Y-77347034D01*
X211481211Y-77340421D01*
X211312808Y-77172019D01*
X211298870Y-77164408D01*
X211297034Y-77164539D01*
X211290421Y-77168789D01*
X211122019Y-77337192D01*
X211114408Y-77351130D01*
X210384358Y-77351130D01*
X210385592Y-77348870D01*
X210385460Y-77347034D01*
X210381211Y-77340421D01*
X210212808Y-77172019D01*
X210198870Y-77164408D01*
X210197034Y-77164539D01*
X210190421Y-77168789D01*
X210022019Y-77337192D01*
X210014408Y-77351130D01*
X209544315Y-77351130D01*
X209545548Y-77348872D01*
X209545417Y-77347034D01*
X209541166Y-77340419D01*
X209509862Y-77309115D01*
X209475838Y-77246803D01*
X209480904Y-77175987D01*
X209509864Y-77130925D01*
X209839659Y-76801130D01*
X210564408Y-76801130D01*
X210564539Y-76802966D01*
X210568789Y-76809579D01*
X210737192Y-76977981D01*
X210751130Y-76985592D01*
X210752966Y-76985460D01*
X210759579Y-76981211D01*
X210927981Y-76812808D01*
X210934358Y-76801130D01*
X211664408Y-76801130D01*
X211664539Y-76802966D01*
X211668789Y-76809579D01*
X211837192Y-76977981D01*
X211851130Y-76985592D01*
X211852966Y-76985460D01*
X211859579Y-76981211D01*
X212027981Y-76812808D01*
X212034358Y-76801130D01*
X212764408Y-76801130D01*
X212764539Y-76802966D01*
X212768789Y-76809579D01*
X212937192Y-76977981D01*
X212951130Y-76985592D01*
X212952966Y-76985460D01*
X212959579Y-76981211D01*
X213127981Y-76812808D01*
X213134358Y-76801130D01*
X213864408Y-76801130D01*
X213864539Y-76802966D01*
X213868789Y-76809579D01*
X214037192Y-76977981D01*
X214051130Y-76985592D01*
X214052966Y-76985460D01*
X214059579Y-76981211D01*
X214227981Y-76812808D01*
X214235592Y-76798870D01*
X214235461Y-76797034D01*
X214231211Y-76790421D01*
X214062808Y-76622019D01*
X214048870Y-76614408D01*
X214047034Y-76614540D01*
X214040421Y-76618789D01*
X213872019Y-76787192D01*
X213864408Y-76801130D01*
X213134358Y-76801130D01*
X213135592Y-76798870D01*
X213135461Y-76797034D01*
X213131211Y-76790421D01*
X212962808Y-76622019D01*
X212948870Y-76614408D01*
X212947034Y-76614540D01*
X212940421Y-76618789D01*
X212772019Y-76787192D01*
X212764408Y-76801130D01*
X212034358Y-76801130D01*
X212035592Y-76798870D01*
X212035461Y-76797034D01*
X212031211Y-76790421D01*
X211862808Y-76622019D01*
X211848870Y-76614408D01*
X211847034Y-76614540D01*
X211840421Y-76618789D01*
X211672019Y-76787192D01*
X211664408Y-76801130D01*
X210934358Y-76801130D01*
X210935592Y-76798870D01*
X210935461Y-76797034D01*
X210931211Y-76790421D01*
X210762808Y-76622019D01*
X210748870Y-76614408D01*
X210747034Y-76614540D01*
X210740421Y-76618789D01*
X210572019Y-76787192D01*
X210564408Y-76801130D01*
X209839659Y-76801130D01*
X210200000Y-76440790D01*
X210530926Y-76109863D01*
X210593238Y-76075838D01*
X210664054Y-76080903D01*
X210709115Y-76109862D01*
X210737192Y-76137938D01*
X210751128Y-76145548D01*
X210752966Y-76145417D01*
X210759581Y-76141166D01*
X210790885Y-76109862D01*
X210853197Y-76075838D01*
X210924013Y-76080904D01*
X210969075Y-76109864D01*
X211287189Y-76427979D01*
X211301132Y-76435592D01*
X211302966Y-76435461D01*
X211309579Y-76431210D01*
X211630925Y-76109864D01*
X211693238Y-76075839D01*
X211764053Y-76080903D01*
X211809115Y-76109862D01*
X211837192Y-76137938D01*
X211851128Y-76145548D01*
X211852966Y-76145417D01*
X211859583Y-76141164D01*
X211890884Y-76109863D01*
X211953196Y-76075837D01*
X212024011Y-76080902D01*
X212069074Y-76109863D01*
X212133188Y-76173977D01*
X212143277Y-76179486D01*
X212146000Y-76172185D01*
X212146000Y-76168674D01*
X212654000Y-76168674D01*
X212657237Y-76179699D01*
X212664328Y-76176461D01*
X212730926Y-76109863D01*
X212793238Y-76075837D01*
X212864053Y-76080902D01*
X212909116Y-76109863D01*
X212937190Y-76137937D01*
X212951128Y-76145548D01*
X212952966Y-76145417D01*
X212959581Y-76141166D01*
X212990885Y-76109862D01*
X213053197Y-76075838D01*
X213124013Y-76080904D01*
X213169075Y-76109864D01*
X213487189Y-76427979D01*
X213501132Y-76435592D01*
X213502966Y-76435461D01*
X213509579Y-76431210D01*
X213830925Y-76109864D01*
X213893238Y-76075839D01*
X213964053Y-76080903D01*
X214009115Y-76109862D01*
X214037192Y-76137938D01*
X214051128Y-76145548D01*
X214052966Y-76145417D01*
X214059581Y-76141166D01*
X214090885Y-76109862D01*
X214153197Y-76075838D01*
X214224013Y-76080904D01*
X214269075Y-76109864D01*
X214600000Y-76440790D01*
X215290137Y-77130926D01*
X215324162Y-77193238D01*
X215319097Y-77264054D01*
X215290138Y-77309115D01*
X215262062Y-77337192D01*
X215254452Y-77351128D01*
X215254583Y-77352966D01*
X215258836Y-77359583D01*
X215290137Y-77390884D01*
X215324163Y-77453196D01*
X215319098Y-77524011D01*
X215290137Y-77569074D01*
X215226023Y-77633188D01*
X215220514Y-77643277D01*
X215227815Y-77646000D01*
X215389884Y-77646000D01*
X215405123Y-77641525D01*
X215406328Y-77640135D01*
X215407999Y-77632452D01*
X215407999Y-77240000D01*
X223236681Y-77240000D01*
X223255928Y-77484557D01*
X223257082Y-77489364D01*
X223257083Y-77489370D01*
X223290338Y-77627885D01*
X223313195Y-77723092D01*
X223407073Y-77949732D01*
X223490262Y-78085485D01*
X223532248Y-78154000D01*
X223535248Y-78158896D01*
X223538463Y-78162660D01*
X223538465Y-78162663D01*
X223625476Y-78264539D01*
X223694567Y-78345433D01*
X223881104Y-78504752D01*
X223883451Y-78506190D01*
X223896815Y-78517605D01*
X224787188Y-79407978D01*
X224801132Y-79415592D01*
X224802965Y-79415461D01*
X224809580Y-79411210D01*
X225703185Y-78517605D01*
X225716549Y-78506190D01*
X225718896Y-78504752D01*
X225905433Y-78345433D01*
X225974524Y-78264539D01*
X226061535Y-78162663D01*
X226061537Y-78162660D01*
X226064752Y-78158896D01*
X226067753Y-78154000D01*
X226109738Y-78085485D01*
X226192927Y-77949732D01*
X226286805Y-77723092D01*
X226309662Y-77627885D01*
X226342917Y-77489370D01*
X226342918Y-77489364D01*
X226344072Y-77484557D01*
X226363319Y-77240000D01*
X226344072Y-76995443D01*
X226341676Y-76985460D01*
X226298102Y-76803962D01*
X226286805Y-76756908D01*
X226282851Y-76747361D01*
X226225332Y-76608500D01*
X226192927Y-76530268D01*
X226084168Y-76352788D01*
X226065630Y-76284255D01*
X226087087Y-76216578D01*
X226116035Y-76186128D01*
X226166228Y-76148510D01*
X226213261Y-76113261D01*
X226300615Y-75996705D01*
X226351745Y-75860316D01*
X226358500Y-75798134D01*
X226358500Y-73601866D01*
X226351745Y-73539684D01*
X226300615Y-73403295D01*
X226213261Y-73286739D01*
X226096705Y-73199385D01*
X225960316Y-73148255D01*
X225898134Y-73141500D01*
X223701866Y-73141500D01*
X223639684Y-73148255D01*
X223503295Y-73199385D01*
X223386739Y-73286739D01*
X223299385Y-73403295D01*
X223248255Y-73539684D01*
X223241500Y-73601866D01*
X223241500Y-75798134D01*
X223248255Y-75860316D01*
X223299385Y-75996705D01*
X223386739Y-76113261D01*
X223433772Y-76148510D01*
X223483965Y-76186128D01*
X223526479Y-76242988D01*
X223531504Y-76313806D01*
X223515832Y-76352788D01*
X223407073Y-76530268D01*
X223374668Y-76608500D01*
X223317150Y-76747361D01*
X223313195Y-76756908D01*
X223301898Y-76803962D01*
X223258325Y-76985460D01*
X223255928Y-76995443D01*
X223236681Y-77240000D01*
X215407999Y-77240000D01*
X215407999Y-76865648D01*
X215409225Y-76848112D01*
X215412245Y-76826626D01*
X215412851Y-76818742D01*
X215413058Y-76803962D01*
X215412671Y-76796061D01*
X215408784Y-76761406D01*
X215407999Y-76747361D01*
X215407999Y-76155331D01*
X215407629Y-76148510D01*
X215402105Y-76097648D01*
X215398479Y-76082396D01*
X215353324Y-75961946D01*
X215344786Y-75946351D01*
X215268285Y-75844276D01*
X215255724Y-75831715D01*
X215153649Y-75755214D01*
X215138054Y-75746676D01*
X215017606Y-75701522D01*
X215002351Y-75697895D01*
X214951486Y-75692369D01*
X214944672Y-75692000D01*
X212672115Y-75692000D01*
X212656876Y-75696475D01*
X212655671Y-75697865D01*
X212654000Y-75705548D01*
X212654000Y-76168674D01*
X212146000Y-76168674D01*
X212146000Y-75710116D01*
X212141525Y-75694877D01*
X212140135Y-75693672D01*
X212132452Y-75692001D01*
X210176114Y-75692001D01*
X210107993Y-75671999D01*
X210061500Y-75618343D01*
X210050805Y-75579174D01*
X210043542Y-75510072D01*
X209984527Y-75328444D01*
X209889040Y-75163056D01*
X209761253Y-75021134D01*
X209710437Y-74984214D01*
X209667085Y-74927992D01*
X209658500Y-74882279D01*
X209658500Y-74704197D01*
X209678502Y-74636076D01*
X209732158Y-74589583D01*
X209744623Y-74584674D01*
X209792002Y-74568867D01*
X209792004Y-74568866D01*
X209798946Y-74566550D01*
X209949348Y-74473478D01*
X210074305Y-74348303D01*
X210167115Y-74197738D01*
X210207069Y-74077279D01*
X210220632Y-74036389D01*
X210220632Y-74036387D01*
X210222797Y-74029861D01*
X210233500Y-73925400D01*
X210233500Y-73897409D01*
X210253502Y-73829288D01*
X210307158Y-73782795D01*
X210377432Y-73772691D01*
X210410748Y-73782302D01*
X210486677Y-73816108D01*
X210486685Y-73816111D01*
X210492712Y-73818794D01*
X210586113Y-73838647D01*
X210673056Y-73857128D01*
X210673061Y-73857128D01*
X210679513Y-73858500D01*
X210870487Y-73858500D01*
X210876946Y-73857127D01*
X210876947Y-73857127D01*
X210880289Y-73856417D01*
X210882268Y-73856568D01*
X210883515Y-73856437D01*
X210883539Y-73856665D01*
X210951080Y-73861822D01*
X211007711Y-73904641D01*
X211029727Y-73953466D01*
X211030768Y-73958364D01*
X211031458Y-73964928D01*
X211033498Y-73971205D01*
X211033498Y-73971207D01*
X211064062Y-74065271D01*
X211090473Y-74146556D01*
X211185960Y-74311944D01*
X211190378Y-74316851D01*
X211190379Y-74316852D01*
X211238967Y-74370814D01*
X211313747Y-74453866D01*
X211468248Y-74566118D01*
X211474276Y-74568802D01*
X211474278Y-74568803D01*
X211625377Y-74636076D01*
X211642712Y-74643794D01*
X211736113Y-74663647D01*
X211823056Y-74682128D01*
X211823061Y-74682128D01*
X211829513Y-74683500D01*
X212020487Y-74683500D01*
X212026939Y-74682128D01*
X212026944Y-74682128D01*
X212113888Y-74663647D01*
X212207288Y-74643794D01*
X212224623Y-74636076D01*
X212375722Y-74568803D01*
X212375724Y-74568802D01*
X212381752Y-74566118D01*
X212536253Y-74453866D01*
X212611033Y-74370814D01*
X212659621Y-74316852D01*
X212659622Y-74316851D01*
X212664040Y-74311944D01*
X212759527Y-74146556D01*
X212818542Y-73964928D01*
X212822361Y-73928598D01*
X212837814Y-73781565D01*
X212838504Y-73775000D01*
X212830622Y-73700000D01*
X213936496Y-73700000D01*
X213937186Y-73706565D01*
X213955228Y-73878222D01*
X213956458Y-73889928D01*
X214015473Y-74071556D01*
X214110960Y-74236944D01*
X214115378Y-74241851D01*
X214115379Y-74241852D01*
X214206561Y-74343120D01*
X214238747Y-74378866D01*
X214335216Y-74448955D01*
X214375394Y-74478146D01*
X214393248Y-74491118D01*
X214399276Y-74493802D01*
X214399278Y-74493803D01*
X214554020Y-74562698D01*
X214567712Y-74568794D01*
X214661112Y-74588647D01*
X214748056Y-74607128D01*
X214748061Y-74607128D01*
X214754513Y-74608500D01*
X214945487Y-74608500D01*
X214951939Y-74607128D01*
X214951944Y-74607128D01*
X215038888Y-74588647D01*
X215132288Y-74568794D01*
X215145980Y-74562698D01*
X215300722Y-74493803D01*
X215300724Y-74493802D01*
X215306752Y-74491118D01*
X215324607Y-74478146D01*
X215364784Y-74448955D01*
X215461253Y-74378866D01*
X215493439Y-74343120D01*
X215584621Y-74241852D01*
X215584622Y-74241851D01*
X215589040Y-74236944D01*
X215684527Y-74071556D01*
X215743542Y-73889928D01*
X215744773Y-73878222D01*
X215762814Y-73706565D01*
X215763504Y-73700000D01*
X215743542Y-73510072D01*
X215684527Y-73328444D01*
X215589040Y-73163056D01*
X215518413Y-73084616D01*
X215465675Y-73026045D01*
X215465674Y-73026044D01*
X215461253Y-73021134D01*
X215306752Y-72908882D01*
X215300724Y-72906198D01*
X215300722Y-72906197D01*
X215138319Y-72833891D01*
X215138318Y-72833891D01*
X215132288Y-72831206D01*
X215038888Y-72811353D01*
X214951944Y-72792872D01*
X214951939Y-72792872D01*
X214945487Y-72791500D01*
X214754513Y-72791500D01*
X214748061Y-72792872D01*
X214748056Y-72792872D01*
X214661113Y-72811353D01*
X214567712Y-72831206D01*
X214561682Y-72833891D01*
X214561681Y-72833891D01*
X214399278Y-72906197D01*
X214399276Y-72906198D01*
X214393248Y-72908882D01*
X214238747Y-73021134D01*
X214234326Y-73026044D01*
X214234325Y-73026045D01*
X214181588Y-73084616D01*
X214110960Y-73163056D01*
X214015473Y-73328444D01*
X213956458Y-73510072D01*
X213936496Y-73700000D01*
X212830622Y-73700000D01*
X212828668Y-73681412D01*
X212819232Y-73591635D01*
X212819232Y-73591633D01*
X212818542Y-73585072D01*
X212759527Y-73403444D01*
X212664040Y-73238056D01*
X212626383Y-73196233D01*
X212540675Y-73101045D01*
X212540674Y-73101044D01*
X212536253Y-73096134D01*
X212381752Y-72983882D01*
X212375724Y-72981198D01*
X212375722Y-72981197D01*
X212213319Y-72908891D01*
X212213318Y-72908891D01*
X212207288Y-72906206D01*
X212095408Y-72882425D01*
X212026944Y-72867872D01*
X212026939Y-72867872D01*
X212020487Y-72866500D01*
X211829513Y-72866500D01*
X211823054Y-72867873D01*
X211823053Y-72867873D01*
X211819711Y-72868583D01*
X211817732Y-72868432D01*
X211816485Y-72868563D01*
X211816461Y-72868335D01*
X211748920Y-72863178D01*
X211692289Y-72820359D01*
X211670273Y-72771534D01*
X211669232Y-72766636D01*
X211668542Y-72760072D01*
X211666225Y-72752939D01*
X211611569Y-72584729D01*
X211609527Y-72578444D01*
X211514040Y-72413056D01*
X211456677Y-72349348D01*
X211396872Y-72282927D01*
X211366154Y-72218920D01*
X211374919Y-72148466D01*
X211396872Y-72114307D01*
X211484621Y-72016852D01*
X211484622Y-72016851D01*
X211489040Y-72011944D01*
X211584527Y-71846556D01*
X211643542Y-71664928D01*
X211649091Y-71612138D01*
X211662814Y-71481565D01*
X211663504Y-71475000D01*
X211643542Y-71285072D01*
X211584527Y-71103444D01*
X211489040Y-70938056D01*
X211376880Y-70813489D01*
X211365675Y-70801045D01*
X211365674Y-70801044D01*
X211361253Y-70796134D01*
X211206752Y-70683882D01*
X211200724Y-70681198D01*
X211200722Y-70681197D01*
X211038319Y-70608891D01*
X211038318Y-70608891D01*
X211032288Y-70606206D01*
X210917016Y-70581704D01*
X210851944Y-70567872D01*
X210851939Y-70567872D01*
X210845487Y-70566500D01*
X210654513Y-70566500D01*
X210648061Y-70567872D01*
X210648056Y-70567872D01*
X210582984Y-70581704D01*
X210467712Y-70606206D01*
X210461682Y-70608891D01*
X210461681Y-70608891D01*
X210299278Y-70681197D01*
X210299276Y-70681198D01*
X210293248Y-70683882D01*
X210275000Y-70697140D01*
X210242418Y-70720812D01*
X210175550Y-70744670D01*
X210106399Y-70728589D01*
X210073590Y-70700540D01*
X210073478Y-70700652D01*
X210072029Y-70699205D01*
X210072025Y-70699202D01*
X209948303Y-70575695D01*
X209930808Y-70564911D01*
X209803968Y-70486725D01*
X209803966Y-70486724D01*
X209797738Y-70482885D01*
X209717995Y-70456436D01*
X209636389Y-70429368D01*
X209636387Y-70429368D01*
X209629861Y-70427203D01*
X209623025Y-70426503D01*
X209623022Y-70426502D01*
X209579969Y-70422091D01*
X209525400Y-70416500D01*
X208524600Y-70416500D01*
X208521354Y-70416837D01*
X208521350Y-70416837D01*
X208425692Y-70426762D01*
X208425688Y-70426763D01*
X208418834Y-70427474D01*
X208412298Y-70429655D01*
X208412296Y-70429655D01*
X208290346Y-70470341D01*
X208251054Y-70483450D01*
X208100652Y-70576522D01*
X207975695Y-70701697D01*
X207882885Y-70852262D01*
X207827203Y-71020139D01*
X207826503Y-71026975D01*
X207826502Y-71026978D01*
X207824221Y-71049242D01*
X207816500Y-71124600D01*
X207816500Y-71925400D01*
X207816837Y-71928646D01*
X207816837Y-71928650D01*
X207825989Y-72016852D01*
X207827474Y-72031166D01*
X207883450Y-72198946D01*
X207976522Y-72349348D01*
X208058880Y-72431562D01*
X208063109Y-72435784D01*
X208097188Y-72498066D01*
X208092185Y-72568886D01*
X208063264Y-72613975D01*
X207975695Y-72701697D01*
X207971855Y-72707927D01*
X207971854Y-72707928D01*
X207919494Y-72792872D01*
X207882885Y-72852262D01*
X207867833Y-72897642D01*
X207837942Y-72987763D01*
X207827203Y-73020139D01*
X207816500Y-73124600D01*
X207816500Y-73925400D01*
X183997877Y-73925400D01*
X183938139Y-73878222D01*
X183929556Y-73872520D01*
X183892602Y-73852120D01*
X183842631Y-73801687D01*
X183827859Y-73732245D01*
X183852975Y-73665839D01*
X183880327Y-73639232D01*
X183947056Y-73591635D01*
X184059860Y-73511173D01*
X184218096Y-73353489D01*
X184231577Y-73334729D01*
X184345435Y-73176277D01*
X184348453Y-73172077D01*
X184352912Y-73163056D01*
X184445136Y-72976453D01*
X184445137Y-72976451D01*
X184447430Y-72971811D01*
X184512370Y-72758069D01*
X184541529Y-72536590D01*
X184541812Y-72525009D01*
X184543074Y-72473365D01*
X184543074Y-72473361D01*
X184543156Y-72470000D01*
X184524852Y-72247361D01*
X184470431Y-72030702D01*
X184381354Y-71825840D01*
X184281317Y-71671206D01*
X184262822Y-71642617D01*
X184262820Y-71642614D01*
X184260014Y-71638277D01*
X184109670Y-71473051D01*
X184105619Y-71469852D01*
X184105615Y-71469848D01*
X183938414Y-71337800D01*
X183938410Y-71337798D01*
X183934359Y-71334598D01*
X183893053Y-71311796D01*
X183843084Y-71261364D01*
X183828312Y-71191921D01*
X183853428Y-71125516D01*
X183880780Y-71098909D01*
X183924603Y-71067650D01*
X184059860Y-70971173D01*
X184218096Y-70813489D01*
X184277594Y-70730689D01*
X184345435Y-70636277D01*
X184348453Y-70632077D01*
X184352410Y-70624072D01*
X184445136Y-70436453D01*
X184445137Y-70436451D01*
X184447430Y-70431811D01*
X184512370Y-70218069D01*
X184541529Y-69996590D01*
X184543156Y-69930000D01*
X184524852Y-69707361D01*
X184470431Y-69490702D01*
X184381354Y-69285840D01*
X184341995Y-69225000D01*
X209336496Y-69225000D01*
X209337186Y-69231565D01*
X209347466Y-69329370D01*
X209356458Y-69414928D01*
X209415473Y-69596556D01*
X209510960Y-69761944D01*
X209515378Y-69766851D01*
X209515379Y-69766852D01*
X209574799Y-69832845D01*
X209638747Y-69903866D01*
X209793248Y-70016118D01*
X209799276Y-70018802D01*
X209799278Y-70018803D01*
X209961681Y-70091109D01*
X209967712Y-70093794D01*
X210061113Y-70113647D01*
X210148056Y-70132128D01*
X210148061Y-70132128D01*
X210154513Y-70133500D01*
X210345487Y-70133500D01*
X210351939Y-70132128D01*
X210351944Y-70132128D01*
X210438887Y-70113647D01*
X210532288Y-70093794D01*
X210538319Y-70091109D01*
X210700722Y-70018803D01*
X210700724Y-70018802D01*
X210706752Y-70016118D01*
X210861253Y-69903866D01*
X210925201Y-69832845D01*
X210984621Y-69766852D01*
X210984622Y-69766851D01*
X210989040Y-69761944D01*
X211084527Y-69596556D01*
X211143542Y-69414928D01*
X211152535Y-69329370D01*
X211162814Y-69231565D01*
X211163504Y-69225000D01*
X211154350Y-69137900D01*
X220541500Y-69137900D01*
X220552474Y-69243666D01*
X220608450Y-69411446D01*
X220701522Y-69561848D01*
X220826697Y-69686805D01*
X220832927Y-69690645D01*
X220832928Y-69690646D01*
X220956557Y-69766852D01*
X220977262Y-69779615D01*
X220993983Y-69785161D01*
X221138611Y-69833132D01*
X221138613Y-69833132D01*
X221145139Y-69835297D01*
X221151975Y-69835997D01*
X221151978Y-69835998D01*
X221195031Y-69840409D01*
X221249600Y-69846000D01*
X222300400Y-69846000D01*
X222303646Y-69845663D01*
X222303650Y-69845663D01*
X222399308Y-69835738D01*
X222399312Y-69835737D01*
X222406166Y-69835026D01*
X222412702Y-69832845D01*
X222412704Y-69832845D01*
X222555629Y-69785161D01*
X222573946Y-69779050D01*
X222649402Y-69732356D01*
X222715705Y-69713500D01*
X223191454Y-69713500D01*
X223259575Y-69733502D01*
X223303721Y-69782297D01*
X223305177Y-69785154D01*
X223307073Y-69789732D01*
X223309662Y-69793956D01*
X223309662Y-69793957D01*
X223372620Y-69896695D01*
X223435248Y-69998896D01*
X223594567Y-70185433D01*
X223598323Y-70188641D01*
X223772776Y-70337639D01*
X223781104Y-70344752D01*
X223785327Y-70347340D01*
X223785330Y-70347342D01*
X223854515Y-70389738D01*
X223990268Y-70472927D01*
X224024982Y-70487306D01*
X224212335Y-70564911D01*
X224212337Y-70564912D01*
X224216908Y-70566805D01*
X224278967Y-70581704D01*
X224450630Y-70622917D01*
X224450636Y-70622918D01*
X224455443Y-70624072D01*
X224700000Y-70643319D01*
X224944557Y-70624072D01*
X224949364Y-70622918D01*
X224949370Y-70622917D01*
X225121033Y-70581704D01*
X225183092Y-70566805D01*
X225187663Y-70564912D01*
X225187665Y-70564911D01*
X225375018Y-70487306D01*
X225409732Y-70472927D01*
X225545485Y-70389738D01*
X225614670Y-70347342D01*
X225614673Y-70347340D01*
X225618896Y-70344752D01*
X225627225Y-70337639D01*
X225801677Y-70188641D01*
X225805433Y-70185433D01*
X225964752Y-69998896D01*
X226092927Y-69789732D01*
X226186805Y-69563092D01*
X226244072Y-69324557D01*
X226263319Y-69080000D01*
X226244072Y-68835443D01*
X226230669Y-68779612D01*
X226206649Y-68679563D01*
X226186805Y-68596908D01*
X226092927Y-68370268D01*
X225964752Y-68161104D01*
X225805433Y-67974567D01*
X225618896Y-67815248D01*
X225616549Y-67813810D01*
X225603185Y-67802395D01*
X224712812Y-66912022D01*
X224698868Y-66904408D01*
X224697035Y-66904539D01*
X224690420Y-66908790D01*
X223796815Y-67802395D01*
X223783451Y-67813810D01*
X223781104Y-67815248D01*
X223594567Y-67974567D01*
X223435248Y-68161104D01*
X223432660Y-68165327D01*
X223432658Y-68165330D01*
X223372689Y-68263192D01*
X223307073Y-68370268D01*
X223305180Y-68374839D01*
X223303721Y-68377703D01*
X223254973Y-68429318D01*
X223191454Y-68446500D01*
X223130860Y-68446500D01*
X223062739Y-68426498D01*
X223016246Y-68372842D01*
X223005533Y-68333504D01*
X222998238Y-68263192D01*
X222998237Y-68263188D01*
X222997526Y-68256334D01*
X222941550Y-68088554D01*
X222848478Y-67938152D01*
X222723303Y-67813195D01*
X222718765Y-67810398D01*
X222678176Y-67753147D01*
X222674946Y-67682224D01*
X222710572Y-67620813D01*
X222719068Y-67613438D01*
X222729207Y-67605402D01*
X222843739Y-67490671D01*
X222852751Y-67479260D01*
X222937816Y-67341257D01*
X222943963Y-67328076D01*
X222995138Y-67173790D01*
X222998005Y-67160414D01*
X223001219Y-67129048D01*
X223028060Y-67063321D01*
X223086175Y-67022539D01*
X223157113Y-67019651D01*
X223218352Y-67055573D01*
X223242972Y-67093673D01*
X223305625Y-67244933D01*
X223310107Y-67253728D01*
X223421072Y-67434805D01*
X223431530Y-67444267D01*
X223440306Y-67440484D01*
X224610905Y-66269885D01*
X224673217Y-66235859D01*
X224744032Y-66240924D01*
X224789095Y-66269885D01*
X225956650Y-67437440D01*
X225969030Y-67444200D01*
X225976680Y-67438473D01*
X226089893Y-67253728D01*
X226094375Y-67244933D01*
X226184434Y-67027510D01*
X226187483Y-67018125D01*
X226242422Y-66789292D01*
X226243965Y-66779545D01*
X226262430Y-66544930D01*
X226262430Y-66535070D01*
X226243965Y-66300455D01*
X226242422Y-66290708D01*
X226187483Y-66061875D01*
X226184434Y-66052490D01*
X226094375Y-65835067D01*
X226089893Y-65826272D01*
X225983766Y-65653090D01*
X225965227Y-65584557D01*
X225986683Y-65516880D01*
X226015633Y-65486429D01*
X226106081Y-65418642D01*
X226113261Y-65413261D01*
X226200615Y-65296705D01*
X226251745Y-65160316D01*
X226258500Y-65098134D01*
X226258500Y-62901866D01*
X226251745Y-62839684D01*
X226200615Y-62703295D01*
X226113261Y-62586739D01*
X225996705Y-62499385D01*
X225860316Y-62448255D01*
X225798134Y-62441500D01*
X223601866Y-62441500D01*
X223539684Y-62448255D01*
X223403295Y-62499385D01*
X223286739Y-62586739D01*
X223199385Y-62703295D01*
X223148255Y-62839684D01*
X223141500Y-62901866D01*
X223141500Y-65098134D01*
X223148255Y-65160316D01*
X223199385Y-65296705D01*
X223286739Y-65413261D01*
X223293919Y-65418642D01*
X223384367Y-65486429D01*
X223426882Y-65543288D01*
X223431908Y-65614107D01*
X223416234Y-65653090D01*
X223310107Y-65826272D01*
X223305625Y-65835067D01*
X223215566Y-66052490D01*
X223212517Y-66061875D01*
X223208399Y-66079027D01*
X223173047Y-66140596D01*
X223110021Y-66173279D01*
X223039330Y-66166699D01*
X222983418Y-66122945D01*
X222966356Y-66089488D01*
X222943413Y-66020718D01*
X222937239Y-66007538D01*
X222851937Y-65869693D01*
X222842901Y-65858292D01*
X222728171Y-65743761D01*
X222716760Y-65734749D01*
X222578757Y-65649684D01*
X222565576Y-65643537D01*
X222411290Y-65592362D01*
X222397914Y-65589495D01*
X222303562Y-65579828D01*
X222297145Y-65579500D01*
X222047115Y-65579500D01*
X222031876Y-65583975D01*
X222030671Y-65585365D01*
X222029000Y-65593048D01*
X222029000Y-66803000D01*
X222008998Y-66871121D01*
X221955342Y-66917614D01*
X221903000Y-66929000D01*
X220560116Y-66929000D01*
X220544877Y-66933475D01*
X220543672Y-66934865D01*
X220542001Y-66942548D01*
X220542001Y-67059595D01*
X220542338Y-67066114D01*
X220552257Y-67161706D01*
X220555149Y-67175100D01*
X220606588Y-67329284D01*
X220612761Y-67342462D01*
X220698063Y-67480307D01*
X220707099Y-67491708D01*
X220821828Y-67606238D01*
X220830762Y-67613294D01*
X220871823Y-67671212D01*
X220875053Y-67742135D01*
X220839426Y-67803546D01*
X220831593Y-67810346D01*
X220825652Y-67814022D01*
X220700695Y-67939197D01*
X220696855Y-67945427D01*
X220696854Y-67945428D01*
X220678893Y-67974567D01*
X220607885Y-68089762D01*
X220552203Y-68257639D01*
X220541500Y-68362100D01*
X220541500Y-69137900D01*
X211154350Y-69137900D01*
X211143542Y-69035072D01*
X211084527Y-68853444D01*
X210989040Y-68688056D01*
X210861253Y-68546134D01*
X210706752Y-68433882D01*
X210700724Y-68431198D01*
X210700722Y-68431197D01*
X210538319Y-68358891D01*
X210538318Y-68358891D01*
X210532288Y-68356206D01*
X210425484Y-68333504D01*
X210351944Y-68317872D01*
X210351939Y-68317872D01*
X210345487Y-68316500D01*
X210154513Y-68316500D01*
X210148061Y-68317872D01*
X210148056Y-68317872D01*
X210074516Y-68333504D01*
X209967712Y-68356206D01*
X209961682Y-68358891D01*
X209961681Y-68358891D01*
X209799278Y-68431197D01*
X209799276Y-68431198D01*
X209793248Y-68433882D01*
X209638747Y-68546134D01*
X209510960Y-68688056D01*
X209415473Y-68853444D01*
X209356458Y-69035072D01*
X209336496Y-69225000D01*
X184341995Y-69225000D01*
X184287750Y-69141150D01*
X184262822Y-69102617D01*
X184262820Y-69102614D01*
X184260014Y-69098277D01*
X184109670Y-68933051D01*
X184105619Y-68929852D01*
X184105615Y-68929848D01*
X183938414Y-68797800D01*
X183938410Y-68797798D01*
X183934359Y-68794598D01*
X183738789Y-68686638D01*
X183733920Y-68684914D01*
X183733916Y-68684912D01*
X183533087Y-68613795D01*
X183533083Y-68613794D01*
X183528212Y-68612069D01*
X183523119Y-68611162D01*
X183523116Y-68611161D01*
X183313373Y-68573800D01*
X183313367Y-68573799D01*
X183308284Y-68572894D01*
X183234452Y-68571992D01*
X183090081Y-68570228D01*
X183090079Y-68570228D01*
X183084911Y-68570165D01*
X182864091Y-68603955D01*
X182651756Y-68673357D01*
X182453607Y-68776507D01*
X182449474Y-68779610D01*
X182449471Y-68779612D01*
X182279100Y-68907530D01*
X182274965Y-68910635D01*
X182271393Y-68914373D01*
X182162050Y-69028794D01*
X182120629Y-69072138D01*
X181994743Y-69256680D01*
X181900688Y-69459305D01*
X181840989Y-69674570D01*
X181817251Y-69896695D01*
X181817548Y-69901848D01*
X181817548Y-69901851D01*
X181829812Y-70114547D01*
X181830110Y-70119715D01*
X181831247Y-70124761D01*
X181831248Y-70124767D01*
X181844074Y-70181677D01*
X181879222Y-70337639D01*
X181963266Y-70544616D01*
X182000168Y-70604834D01*
X182071239Y-70720812D01*
X182079987Y-70735088D01*
X182226250Y-70903938D01*
X182398126Y-71046632D01*
X182468595Y-71087811D01*
X182471445Y-71089476D01*
X182520169Y-71141114D01*
X182533240Y-71210897D01*
X182506509Y-71276669D01*
X182466055Y-71310027D01*
X182453607Y-71316507D01*
X182449474Y-71319610D01*
X182449471Y-71319612D01*
X182425247Y-71337800D01*
X182274965Y-71450635D01*
X182120629Y-71612138D01*
X182117715Y-71616410D01*
X182117714Y-71616411D01*
X182032556Y-71741249D01*
X181994743Y-71796680D01*
X181900688Y-71999305D01*
X181840989Y-72214570D01*
X181817251Y-72436695D01*
X175624726Y-72436695D01*
X175617726Y-66402885D01*
X220542000Y-66402885D01*
X220546475Y-66418124D01*
X220547865Y-66419329D01*
X220555548Y-66421000D01*
X221502885Y-66421000D01*
X221518124Y-66416525D01*
X221519329Y-66415135D01*
X221521000Y-66407452D01*
X221521000Y-65597616D01*
X221516525Y-65582377D01*
X221515135Y-65581172D01*
X221507452Y-65579501D01*
X221252905Y-65579501D01*
X221246386Y-65579838D01*
X221150794Y-65589757D01*
X221137400Y-65592649D01*
X220983216Y-65644088D01*
X220970038Y-65650261D01*
X220832193Y-65735563D01*
X220820792Y-65744599D01*
X220706261Y-65859329D01*
X220697249Y-65870740D01*
X220612184Y-66008743D01*
X220606037Y-66021924D01*
X220554862Y-66176210D01*
X220551995Y-66189586D01*
X220542328Y-66283938D01*
X220542000Y-66290355D01*
X220542000Y-66402885D01*
X175617726Y-66402885D01*
X175609201Y-59054645D01*
X175629124Y-58986502D01*
X175682726Y-58939947D01*
X175735201Y-58928500D01*
X229997500Y-58928500D01*
X230065621Y-58948502D01*
G37*
%TD.AperFunction*%
%TD*%
M02*
