%TF.GenerationSoftware,KiCad,Pcbnew,6.0.11-2627ca5db0~126~ubuntu22.04.1*%
%TF.CreationDate,2023-03-03T15:01:48-05:00*%
%TF.ProjectId,lin-valve-control,6c696e2d-7661-46c7-9665-2d636f6e7472,1.0*%
%TF.SameCoordinates,Original*%
%TF.FileFunction,Copper,L1,Top*%
%TF.FilePolarity,Positive*%
%FSLAX46Y46*%
G04 Gerber Fmt 4.6, Leading zero omitted, Abs format (unit mm)*
G04 Created by KiCad (PCBNEW 6.0.11-2627ca5db0~126~ubuntu22.04.1) date 2023-03-03 15:01:48*
%MOMM*%
%LPD*%
G01*
G04 APERTURE LIST*
G04 Aperture macros list*
%AMRoundRect*
0 Rectangle with rounded corners*
0 $1 Rounding radius*
0 $2 $3 $4 $5 $6 $7 $8 $9 X,Y pos of 4 corners*
0 Add a 4 corners polygon primitive as box body*
4,1,4,$2,$3,$4,$5,$6,$7,$8,$9,$2,$3,0*
0 Add four circle primitives for the rounded corners*
1,1,$1+$1,$2,$3*
1,1,$1+$1,$4,$5*
1,1,$1+$1,$6,$7*
1,1,$1+$1,$8,$9*
0 Add four rect primitives between the rounded corners*
20,1,$1+$1,$2,$3,$4,$5,0*
20,1,$1+$1,$4,$5,$6,$7,0*
20,1,$1+$1,$6,$7,$8,$9,0*
20,1,$1+$1,$8,$9,$2,$3,0*%
G04 Aperture macros list end*
%TA.AperFunction,SMDPad,CuDef*%
%ADD10RoundRect,0.250000X0.450000X-0.350000X0.450000X0.350000X-0.450000X0.350000X-0.450000X-0.350000X0*%
%TD*%
%TA.AperFunction,SMDPad,CuDef*%
%ADD11RoundRect,0.250000X-1.025000X0.875000X-1.025000X-0.875000X1.025000X-0.875000X1.025000X0.875000X0*%
%TD*%
%TA.AperFunction,ComponentPad*%
%ADD12R,1.700000X1.700000*%
%TD*%
%TA.AperFunction,ComponentPad*%
%ADD13O,1.700000X1.700000*%
%TD*%
%TA.AperFunction,SMDPad,CuDef*%
%ADD14RoundRect,0.150000X0.150000X-0.825000X0.150000X0.825000X-0.150000X0.825000X-0.150000X-0.825000X0*%
%TD*%
%TA.AperFunction,SMDPad,CuDef*%
%ADD15RoundRect,0.150000X0.150000X-0.587500X0.150000X0.587500X-0.150000X0.587500X-0.150000X-0.587500X0*%
%TD*%
%TA.AperFunction,SMDPad,CuDef*%
%ADD16RoundRect,0.250000X-0.412500X-0.650000X0.412500X-0.650000X0.412500X0.650000X-0.412500X0.650000X0*%
%TD*%
%TA.AperFunction,SMDPad,CuDef*%
%ADD17RoundRect,0.250000X0.412500X0.650000X-0.412500X0.650000X-0.412500X-0.650000X0.412500X-0.650000X0*%
%TD*%
%TA.AperFunction,SMDPad,CuDef*%
%ADD18RoundRect,0.100000X-0.637500X-0.100000X0.637500X-0.100000X0.637500X0.100000X-0.637500X0.100000X0*%
%TD*%
%TA.AperFunction,SMDPad,CuDef*%
%ADD19RoundRect,0.250000X-0.350000X-0.450000X0.350000X-0.450000X0.350000X0.450000X-0.350000X0.450000X0*%
%TD*%
%TA.AperFunction,SMDPad,CuDef*%
%ADD20RoundRect,0.250000X0.337500X0.475000X-0.337500X0.475000X-0.337500X-0.475000X0.337500X-0.475000X0*%
%TD*%
%TA.AperFunction,SMDPad,CuDef*%
%ADD21RoundRect,0.250000X-0.337500X-0.475000X0.337500X-0.475000X0.337500X0.475000X-0.337500X0.475000X0*%
%TD*%
%TA.AperFunction,SMDPad,CuDef*%
%ADD22RoundRect,0.250000X0.537500X0.425000X-0.537500X0.425000X-0.537500X-0.425000X0.537500X-0.425000X0*%
%TD*%
%TA.AperFunction,SMDPad,CuDef*%
%ADD23RoundRect,0.250000X0.400000X1.450000X-0.400000X1.450000X-0.400000X-1.450000X0.400000X-1.450000X0*%
%TD*%
%TA.AperFunction,SMDPad,CuDef*%
%ADD24RoundRect,0.250000X-1.100000X0.412500X-1.100000X-0.412500X1.100000X-0.412500X1.100000X0.412500X0*%
%TD*%
%TA.AperFunction,SMDPad,CuDef*%
%ADD25RoundRect,0.250000X-0.475000X0.337500X-0.475000X-0.337500X0.475000X-0.337500X0.475000X0.337500X0*%
%TD*%
%TA.AperFunction,SMDPad,CuDef*%
%ADD26RoundRect,0.250000X0.450000X-0.325000X0.450000X0.325000X-0.450000X0.325000X-0.450000X-0.325000X0*%
%TD*%
%TA.AperFunction,ComponentPad*%
%ADD27R,2.100000X2.100000*%
%TD*%
%TA.AperFunction,ComponentPad*%
%ADD28C,2.100000*%
%TD*%
%TA.AperFunction,ComponentPad*%
%ADD29C,1.879600*%
%TD*%
%TA.AperFunction,ComponentPad*%
%ADD30R,1.879600X1.879600*%
%TD*%
%TA.AperFunction,SMDPad,CuDef*%
%ADD31R,0.450000X1.050000*%
%TD*%
%TA.AperFunction,ComponentPad*%
%ADD32C,0.600000*%
%TD*%
%TA.AperFunction,SMDPad,CuDef*%
%ADD33R,5.000000X3.400000*%
%TD*%
%TA.AperFunction,SMDPad,CuDef*%
%ADD34RoundRect,0.100000X-0.100000X0.637500X-0.100000X-0.637500X0.100000X-0.637500X0.100000X0.637500X0*%
%TD*%
%TA.AperFunction,ViaPad*%
%ADD35C,0.800000*%
%TD*%
%TA.AperFunction,Conductor*%
%ADD36C,0.250000*%
%TD*%
%TA.AperFunction,Conductor*%
%ADD37C,1.200000*%
%TD*%
%TA.AperFunction,Conductor*%
%ADD38C,0.200000*%
%TD*%
G04 APERTURE END LIST*
D10*
%TO.P,R16,1*%
%TO.N,Net-(R16-Pad1)*%
X216200000Y-80650000D03*
%TO.P,R16,2*%
%TO.N,GND*%
X216200000Y-78650000D03*
%TD*%
D11*
%TO.P,C8,1*%
%TO.N,+12V*%
X205920000Y-74020000D03*
%TO.P,C8,2*%
%TO.N,GND*%
X205920000Y-80420000D03*
%TD*%
D12*
%TO.P,J2,1,Pin_1*%
%TO.N,GND*%
X180150000Y-82100000D03*
D13*
%TO.P,J2,2,Pin_2*%
%TO.N,+5V*%
X182690000Y-82100000D03*
%TO.P,J2,3,Pin_3*%
%TO.N,SDA5V*%
X185230000Y-82100000D03*
%TO.P,J2,4,Pin_4*%
%TO.N,SCL5V*%
X187770000Y-82100000D03*
%TD*%
D14*
%TO.P,U1,1,RXD*%
%TO.N,RXD*%
X196670000Y-89800000D03*
%TO.P,U1,2,~{SLP}*%
%TO.N,~{LIN_SLP}*%
X197940000Y-89800000D03*
%TO.P,U1,3,~{WAKE}*%
%TO.N,~{LIN_WAKE}*%
X199210000Y-89800000D03*
%TO.P,U1,4,TXD*%
%TO.N,TXD*%
X200480000Y-89800000D03*
%TO.P,U1,5,GND*%
%TO.N,GND*%
X200480000Y-84850000D03*
%TO.P,U1,6,LIN*%
%TO.N,LIN*%
X199210000Y-84850000D03*
%TO.P,U1,7,VBAT*%
%TO.N,+12V*%
X197940000Y-84850000D03*
%TO.P,U1,8,INH*%
%TO.N,unconnected-(U1-Pad8)*%
X196670000Y-84850000D03*
%TD*%
D15*
%TO.P,Q1,1,G*%
%TO.N,SCL*%
X187400000Y-88475000D03*
%TO.P,Q1,2,S*%
X189300000Y-88475000D03*
%TO.P,Q1,3,D*%
%TO.N,SCL5V*%
X188350000Y-86600000D03*
%TD*%
D16*
%TO.P,C9,1*%
%TO.N,+12V*%
X216350000Y-75150000D03*
%TO.P,C9,2*%
%TO.N,GND*%
X219475000Y-75150000D03*
%TD*%
D17*
%TO.P,C10,1*%
%TO.N,Net-(C10-Pad1)*%
X215150000Y-71950000D03*
%TO.P,C10,2*%
%TO.N,Net-(C10-Pad2)*%
X212025000Y-71950000D03*
%TD*%
D18*
%TO.P,U2,1,VCC*%
%TO.N,+3V3*%
X203237500Y-91975000D03*
%TO.P,U2,2,PA4*%
%TO.N,PHASE*%
X203237500Y-92625000D03*
%TO.P,U2,3,PA5*%
%TO.N,~{LIN_SLP}*%
X203237500Y-93275000D03*
%TO.P,U2,4,PA6*%
%TO.N,~{LIN_WAKE}*%
X203237500Y-93925000D03*
%TO.P,U2,5,PA7*%
%TO.N,Net-(R5-Pad1)*%
X203237500Y-94575000D03*
%TO.P,U2,6,PB3*%
%TO.N,RXD*%
X203237500Y-95225000D03*
%TO.P,U2,7,PB2*%
%TO.N,TXD*%
X203237500Y-95875000D03*
%TO.P,U2,8,PB1*%
%TO.N,SDA*%
X208962500Y-95875000D03*
%TO.P,U2,9,PB0*%
%TO.N,SCL*%
X208962500Y-95225000D03*
%TO.P,U2,10,~{RESET}/PA0*%
%TO.N,UPDI*%
X208962500Y-94575000D03*
%TO.P,U2,11,PA1*%
%TO.N,VPROPI*%
X208962500Y-93925000D03*
%TO.P,U2,12,PA2*%
%TO.N,~{I2C_INT}*%
X208962500Y-93275000D03*
%TO.P,U2,13,PA3*%
%TO.N,~{RESET}*%
X208962500Y-92625000D03*
%TO.P,U2,14,GND*%
%TO.N,GND*%
X208962500Y-91975000D03*
%TD*%
D19*
%TO.P,R1,1*%
%TO.N,+3V3*%
X194710000Y-92270000D03*
%TO.P,R1,2*%
%TO.N,RXD*%
X196710000Y-92270000D03*
%TD*%
D20*
%TO.P,C1,1*%
%TO.N,GND*%
X205300000Y-89775000D03*
%TO.P,C1,2*%
%TO.N,+3V3*%
X203225000Y-89775000D03*
%TD*%
%TO.P,C4,1*%
%TO.N,+5V*%
X180030000Y-78900000D03*
%TO.P,C4,2*%
%TO.N,GND*%
X177955000Y-78900000D03*
%TD*%
D21*
%TO.P,C7,1*%
%TO.N,+5V*%
X194672500Y-80980000D03*
%TO.P,C7,2*%
%TO.N,GND*%
X196747500Y-80980000D03*
%TD*%
D15*
%TO.P,U4,1,GND*%
%TO.N,GND*%
X190920000Y-82855000D03*
%TO.P,U4,2,VO*%
%TO.N,+3V3*%
X192820000Y-82855000D03*
%TO.P,U4,3,VI*%
%TO.N,+5V*%
X191870000Y-80980000D03*
%TD*%
D22*
%TO.P,C5,1*%
%TO.N,+5V*%
X182095000Y-85540000D03*
%TO.P,C5,2*%
%TO.N,GND*%
X179220000Y-85540000D03*
%TD*%
D23*
%TO.P,F1,1*%
%TO.N,+BATT*%
X219230000Y-63910000D03*
%TO.P,F1,2*%
%TO.N,+12V*%
X214780000Y-63910000D03*
%TD*%
D16*
%TO.P,C11,1*%
%TO.N,+12V*%
X208575000Y-69475000D03*
%TO.P,C11,2*%
%TO.N,Net-(C11-Pad2)*%
X211700000Y-69475000D03*
%TD*%
D24*
%TO.P,C3,1*%
%TO.N,+12V*%
X211420000Y-63817500D03*
%TO.P,C3,2*%
%TO.N,GND*%
X211420000Y-66942500D03*
%TD*%
D25*
%TO.P,C6,1*%
%TO.N,+3V3*%
X192830000Y-85080000D03*
%TO.P,C6,2*%
%TO.N,GND*%
X192830000Y-87155000D03*
%TD*%
D12*
%TO.P,U3,1,Vout*%
%TO.N,+5V*%
X183180000Y-77550000D03*
D13*
%TO.P,U3,2,GND*%
%TO.N,GND*%
X183180000Y-75010000D03*
%TO.P,U3,3,Vin*%
%TO.N,+12V*%
X183180000Y-72470000D03*
%TO.P,U3,4,EN*%
%TO.N,unconnected-(U3-Pad4)*%
X183180000Y-69930000D03*
%TD*%
D26*
%TO.P,D1,1,K*%
%TO.N,GND*%
X202850000Y-86415000D03*
%TO.P,D1,2,A*%
%TO.N,Net-(D1-Pad2)*%
X202850000Y-84365000D03*
%TD*%
D27*
%TO.P,J3,1,Pin_1*%
%TO.N,+BATT*%
X224700000Y-64000000D03*
D28*
%TO.P,J3,2,Pin_2*%
%TO.N,GND*%
X224700000Y-66540000D03*
%TO.P,J3,3,Pin_3*%
%TO.N,LIN*%
X224700000Y-69080000D03*
%TD*%
D27*
%TO.P,J4,1,Pin_1*%
%TO.N,VALVE+*%
X224800000Y-74700000D03*
D28*
%TO.P,J4,2,Pin_2*%
%TO.N,VALVE-*%
X224800000Y-77240000D03*
%TO.P,J4,3,Pin_3*%
%TO.N,GND*%
X224800000Y-79780000D03*
%TO.P,J4,4,Pin_4*%
%TO.N,~{VALVE_OPEN}*%
X224800000Y-82320000D03*
%TO.P,J4,5,Pin_5*%
%TO.N,~{VALVE_CLOSED}*%
X224800000Y-84860000D03*
%TD*%
D15*
%TO.P,Q2,1,G*%
%TO.N,SDA*%
X183550000Y-88525000D03*
%TO.P,Q2,2,S*%
X185450000Y-88525000D03*
%TO.P,Q2,3,D*%
%TO.N,SDA5V*%
X184500000Y-86650000D03*
%TD*%
D19*
%TO.P,R2,1*%
%TO.N,+3V3*%
X198675000Y-93775000D03*
%TO.P,R2,2*%
%TO.N,TXD*%
X200675000Y-93775000D03*
%TD*%
D29*
%TO.P,J1,6,GND*%
%TO.N,GND*%
X213820000Y-91800000D03*
%TO.P,J1,5,CTS*%
%TO.N,unconnected-(J1-Pad5)*%
X216360000Y-91800000D03*
%TO.P,J1,4,VCC*%
%TO.N,Net-(JP1-Pad1)*%
X218900000Y-91800000D03*
%TO.P,J1,3,TXD*%
%TO.N,Net-(J1-Pad3)*%
X221440000Y-91800000D03*
%TO.P,J1,2,RXD*%
%TO.N,UPDI*%
X223980000Y-91800000D03*
D30*
%TO.P,J1,1,DTR*%
%TO.N,unconnected-(J1-Pad1)*%
X226520000Y-91800000D03*
%TD*%
D31*
%TO.P,U6,1,~{FAULT}*%
%TO.N,~{FAULT}*%
X210125000Y-80675000D03*
%TO.P,U6,2,MODE1*%
%TO.N,Net-(R11-Pad2)*%
X210775000Y-80675000D03*
%TO.P,U6,3,PHASE*%
%TO.N,PHASE*%
X211425000Y-80675000D03*
%TO.P,U6,4,GND*%
%TO.N,GND*%
X212075000Y-80675000D03*
%TO.P,U6,5,~{SLEEP}*%
%TO.N,~{SLEEP}*%
X212725000Y-80675000D03*
%TO.P,U6,6,ENABLE*%
%TO.N,ENABLE*%
X213375000Y-80675000D03*
%TO.P,U6,7,OUT+*%
%TO.N,VALVE+*%
X214025000Y-80675000D03*
%TO.P,U6,8,SENSE*%
%TO.N,Net-(R16-Pad1)*%
X214675000Y-80675000D03*
%TO.P,U6,9,VBB*%
%TO.N,+12V*%
X214675000Y-75125000D03*
%TO.P,U6,10,OUT-*%
%TO.N,VALVE-*%
X214025000Y-75125000D03*
%TO.P,U6,11,CP1*%
%TO.N,Net-(C10-Pad1)*%
X213375000Y-75125000D03*
%TO.P,U6,12,CP2*%
%TO.N,Net-(C10-Pad2)*%
X212725000Y-75125000D03*
%TO.P,U6,13,GND*%
%TO.N,GND*%
X212075000Y-75125000D03*
%TO.P,U6,14,VCP*%
%TO.N,Net-(C11-Pad2)*%
X211425000Y-75125000D03*
%TO.P,U6,15,VPROPI*%
%TO.N,Net-(R15-Pad1)*%
X210775000Y-75125000D03*
%TO.P,U6,16,MODE2*%
%TO.N,Net-(R11-Pad2)*%
X210125000Y-75125000D03*
D32*
%TO.P,U6,17,GND(PPAD)*%
%TO.N,GND*%
X214600000Y-77900000D03*
X210200000Y-77900000D03*
X213500000Y-76800000D03*
X210200000Y-79000000D03*
X212400000Y-76800000D03*
X210200000Y-76800000D03*
X214600000Y-76800000D03*
D33*
X212400000Y-77900000D03*
D32*
X212400000Y-79000000D03*
X211300000Y-76800000D03*
X213500000Y-79000000D03*
X211300000Y-77900000D03*
X211300000Y-79000000D03*
X213500000Y-77900000D03*
X214600000Y-79000000D03*
X212400000Y-77900000D03*
%TD*%
D34*
%TO.P,U5,1,A0*%
%TO.N,GND*%
X212950000Y-83675000D03*
%TO.P,U5,2,A1*%
X212300000Y-83675000D03*
%TO.P,U5,3,A2*%
X211650000Y-83675000D03*
%TO.P,U5,4,P0*%
%TO.N,ENABLE*%
X211000000Y-83675000D03*
%TO.P,U5,5,P1*%
%TO.N,~{SLEEP}*%
X210350000Y-83675000D03*
%TO.P,U5,6,P2*%
%TO.N,unconnected-(U5-Pad6)*%
X209700000Y-83675000D03*
%TO.P,U5,7,P3*%
%TO.N,unconnected-(U5-Pad7)*%
X209050000Y-83675000D03*
%TO.P,U5,8,GND*%
%TO.N,GND*%
X208400000Y-83675000D03*
%TO.P,U5,9,P4*%
%TO.N,~{VALVE_CLOSED}*%
X208400000Y-89400000D03*
%TO.P,U5,10,P5*%
%TO.N,~{VALVE_OPEN}*%
X209050000Y-89400000D03*
%TO.P,U5,11,P6*%
%TO.N,~{FAULT}*%
X209700000Y-89400000D03*
%TO.P,U5,12,P7*%
%TO.N,unconnected-(U5-Pad12)*%
X210350000Y-89400000D03*
%TO.P,U5,13,~{INT}*%
%TO.N,~{I2C_INT}*%
X211000000Y-89400000D03*
%TO.P,U5,14,SCL*%
%TO.N,SCL*%
X211650000Y-89400000D03*
%TO.P,U5,15,SDA*%
%TO.N,SDA*%
X212300000Y-89400000D03*
%TO.P,U5,16,VDD*%
%TO.N,+3V3*%
X212950000Y-89400000D03*
%TD*%
D35*
%TO.N,Net-(JP1-Pad1)*%
X220480000Y-96890000D03*
%TO.N,UPDI*%
X210660000Y-94500500D03*
%TO.N,GND*%
X176500000Y-78850000D03*
X190010000Y-84250000D03*
X205810000Y-78060000D03*
X192830000Y-88600000D03*
X204320000Y-86460000D03*
X177300000Y-85490000D03*
X207550000Y-91950000D03*
X208125000Y-81950000D03*
X200500000Y-82850000D03*
X208850000Y-66910000D03*
X220800000Y-74525000D03*
X213950000Y-83725000D03*
X196740000Y-82530000D03*
X206625000Y-89750000D03*
%TO.N,+5V*%
X193170000Y-80980000D03*
X181520000Y-79370000D03*
%TO.N,LIN*%
X199200000Y-81575000D03*
%TO.N,TXD*%
X203290000Y-97524500D03*
X200550000Y-92000000D03*
%TO.N,~{LIN_SLP}*%
X198025000Y-87750000D03*
X201670000Y-92250000D03*
%TO.N,~{LIN_WAKE}*%
X199175000Y-87725000D03*
X201945288Y-93929965D03*
%TO.N,SCL*%
X206290576Y-95852382D03*
X187450000Y-90425000D03*
X211375000Y-95450000D03*
X211525500Y-93850500D03*
%TO.N,SDA*%
X211375000Y-96700000D03*
X206675000Y-96775000D03*
X185425000Y-90325000D03*
X212250000Y-91000000D03*
%TO.N,Net-(R5-Pad1)*%
X203735286Y-87711025D03*
X206220000Y-92300000D03*
%TO.N,Net-(C11-Pad2)*%
X211925000Y-73775000D03*
X210250000Y-69225000D03*
%TO.N,VPROPI*%
X210650320Y-93325320D03*
%TO.N,Net-(D1-Pad2)*%
X202830000Y-82680000D03*
%TO.N,Net-(R11-Pad2)*%
X209150000Y-75700000D03*
X209599500Y-82050000D03*
%TO.N,+3V3*%
X194225000Y-89700000D03*
X197475000Y-93675000D03*
X193340000Y-92250000D03*
X203725000Y-80575000D03*
X210750000Y-71475000D03*
X218750000Y-84900000D03*
X212975000Y-87925000D03*
X202850000Y-88175000D03*
X205100000Y-95100000D03*
X181950000Y-90050000D03*
X225010000Y-95130000D03*
X190550000Y-89975000D03*
X191270000Y-84970000D03*
%TO.N,VALVE+*%
X214575000Y-82525000D03*
%TO.N,VALVE-*%
X214850000Y-73700000D03*
%TO.N,~{VALVE_OPEN}*%
X208750000Y-87670000D03*
%TO.N,~{VALVE_CLOSED}*%
X207849500Y-88110000D03*
%TO.N,Net-(R15-Pad1)*%
X210775000Y-72950000D03*
X207460000Y-90470000D03*
%TO.N,~{I2C_INT}*%
X207625000Y-93600000D03*
%TO.N,~{FAULT}*%
X209750000Y-87590000D03*
X208875000Y-80675000D03*
%TO.N,PHASE*%
X205075000Y-92075000D03*
X211025000Y-82050000D03*
%TO.N,ENABLE*%
X213325000Y-82075000D03*
X211475000Y-85575000D03*
%TO.N,~{SLEEP}*%
X212149500Y-82050000D03*
X210275787Y-85120400D03*
%TD*%
D36*
%TO.N,GND*%
X211650000Y-83675000D02*
X212300000Y-83675000D01*
X212950000Y-83675000D02*
X213900000Y-83675000D01*
X205920000Y-78170000D02*
X205810000Y-78060000D01*
X205920000Y-80420000D02*
X205920000Y-78170000D01*
X208987500Y-91975000D02*
X207575000Y-91975000D01*
X213900000Y-83675000D02*
X213950000Y-83725000D01*
X202850000Y-86415000D02*
X204275000Y-86415000D01*
X208400000Y-82225000D02*
X208125000Y-81950000D01*
X200480000Y-84850000D02*
X200480000Y-82870000D01*
X179220000Y-85540000D02*
X177350000Y-85540000D01*
X196770000Y-82500000D02*
X196740000Y-82530000D01*
D37*
X211387500Y-66910000D02*
X208850000Y-66910000D01*
D36*
X212075000Y-76475000D02*
X212400000Y-76800000D01*
X196747500Y-80980000D02*
X196747500Y-82357500D01*
X176550000Y-78900000D02*
X176500000Y-78850000D01*
X205300000Y-89775000D02*
X206600000Y-89775000D01*
X219475000Y-75150000D02*
X220175000Y-75150000D01*
X207575000Y-91975000D02*
X207550000Y-91950000D01*
X208400000Y-83675000D02*
X208400000Y-82225000D01*
X215350000Y-78650000D02*
X214600000Y-77900000D01*
X212075000Y-75125000D02*
X212075000Y-76475000D01*
X177350000Y-85540000D02*
X177300000Y-85490000D01*
X192830000Y-87155000D02*
X192830000Y-88600000D01*
X212300000Y-83675000D02*
X212950000Y-83675000D01*
X220175000Y-75150000D02*
X220800000Y-74525000D01*
X196770000Y-82380000D02*
X196770000Y-82500000D01*
X177955000Y-78900000D02*
X176550000Y-78900000D01*
X212075000Y-79325000D02*
X212400000Y-79000000D01*
X216200000Y-78650000D02*
X215350000Y-78650000D01*
X200480000Y-82870000D02*
X200500000Y-82850000D01*
X211420000Y-66942500D02*
X211387500Y-66910000D01*
X190920000Y-83340000D02*
X190010000Y-84250000D01*
X190920000Y-82855000D02*
X190920000Y-83340000D01*
X196747500Y-82357500D02*
X196770000Y-82380000D01*
X204275000Y-86415000D02*
X204320000Y-86460000D01*
X206600000Y-89775000D02*
X206625000Y-89750000D01*
X212075000Y-80675000D02*
X212075000Y-79325000D01*
%TO.N,+5V*%
X182095000Y-85540000D02*
X182690000Y-84945000D01*
X180030000Y-78900000D02*
X181050000Y-78900000D01*
X191870000Y-80980000D02*
X194672500Y-80980000D01*
X182690000Y-84945000D02*
X182690000Y-82100000D01*
X181050000Y-78900000D02*
X181520000Y-79370000D01*
%TO.N,LIN*%
X199210000Y-84850000D02*
X199210000Y-81585000D01*
X199210000Y-81585000D02*
X199200000Y-81575000D01*
%TO.N,TXD*%
X200550000Y-92000000D02*
X200550000Y-89870000D01*
X203290000Y-97524500D02*
X203290000Y-95902500D01*
X200675000Y-92125000D02*
X200550000Y-92000000D01*
X203290000Y-95902500D02*
X203262500Y-95875000D01*
X200550000Y-89870000D02*
X200480000Y-89800000D01*
X200675000Y-93775000D02*
X200675000Y-92125000D01*
%TO.N,RXD*%
X196670000Y-93130000D02*
X196670000Y-89800000D01*
X197450000Y-95225000D02*
X196670000Y-94445000D01*
X203262500Y-95225000D02*
X197450000Y-95225000D01*
X196670000Y-94445000D02*
X196670000Y-93130000D01*
%TO.N,~{LIN_SLP}*%
X203237500Y-93275000D02*
X202255000Y-93275000D01*
X201670000Y-92690000D02*
X201670000Y-92250000D01*
X202255000Y-93275000D02*
X201950000Y-92970000D01*
X201950000Y-92970000D02*
X201670000Y-92690000D01*
X198025000Y-89715000D02*
X197940000Y-89800000D01*
X198025000Y-87750000D02*
X198025000Y-89715000D01*
%TO.N,~{LIN_WAKE}*%
X199210000Y-87760000D02*
X199175000Y-87725000D01*
X199210000Y-89800000D02*
X199210000Y-87760000D01*
X203237500Y-93925000D02*
X201950253Y-93925000D01*
X201950253Y-93925000D02*
X201945288Y-93929965D01*
%TO.N,SCL*%
X187450000Y-88525000D02*
X187400000Y-88475000D01*
X211375000Y-95450000D02*
X211150000Y-95225000D01*
X211650000Y-90575000D02*
X211375000Y-90850000D01*
X187400000Y-88475000D02*
X189300000Y-88475000D01*
X208987500Y-95225000D02*
X206917958Y-95225000D01*
X206917958Y-95225000D02*
X206290576Y-95852382D01*
X211650000Y-89400000D02*
X211650000Y-90575000D01*
X211150000Y-95225000D02*
X208987500Y-95225000D01*
X187450000Y-90425000D02*
X187450000Y-88525000D01*
X211375000Y-93700000D02*
X211525500Y-93850500D01*
X211375000Y-90850000D02*
X211375000Y-93700000D01*
%TO.N,SDA*%
X185425000Y-88550000D02*
X185450000Y-88525000D01*
X212250000Y-89450000D02*
X212300000Y-89400000D01*
X210550000Y-95875000D02*
X211375000Y-96700000D01*
X208987500Y-95875000D02*
X207575000Y-95875000D01*
X212250000Y-91000000D02*
X212250000Y-89450000D01*
X207575000Y-95875000D02*
X206675000Y-96775000D01*
X208987500Y-95875000D02*
X210550000Y-95875000D01*
X185450000Y-88525000D02*
X183550000Y-88525000D01*
X185425000Y-90325000D02*
X185425000Y-88550000D01*
%TO.N,Net-(R5-Pad1)*%
X203945000Y-94575000D02*
X206220000Y-92300000D01*
X203237500Y-94575000D02*
X203945000Y-94575000D01*
%TO.N,Net-(C10-Pad1)*%
X213375000Y-72600000D02*
X214050000Y-71925000D01*
X214050000Y-71925000D02*
X215125000Y-71925000D01*
X215125000Y-71925000D02*
X215150000Y-71950000D01*
X213375000Y-75125000D02*
X213375000Y-72600000D01*
%TO.N,Net-(C10-Pad2)*%
X212725000Y-75125000D02*
X212725000Y-72650000D01*
X212725000Y-72650000D02*
X212025000Y-71950000D01*
%TO.N,Net-(C11-Pad2)*%
X210250000Y-69225000D02*
X211450000Y-69225000D01*
X211425000Y-74275000D02*
X211925000Y-73775000D01*
X211425000Y-75125000D02*
X211425000Y-74275000D01*
X211450000Y-69225000D02*
X211700000Y-69475000D01*
%TO.N,VPROPI*%
X210050640Y-93925000D02*
X210650320Y-93325320D01*
X208987500Y-93925000D02*
X210050640Y-93925000D01*
%TO.N,Net-(D1-Pad2)*%
X202850000Y-84365000D02*
X202850000Y-82700000D01*
X202850000Y-82700000D02*
X202830000Y-82680000D01*
D37*
%TO.N,+12V*%
X214780000Y-63910000D02*
X211512500Y-63910000D01*
D36*
X211512500Y-63910000D02*
X211420000Y-63817500D01*
%TO.N,UPDI*%
X209037000Y-94500500D02*
X208962500Y-94575000D01*
%TO.N,unconnected-(J1-Pad5)*%
X216400000Y-91840000D02*
X216360000Y-91800000D01*
%TO.N,UPDI*%
X210660000Y-94500500D02*
X209037000Y-94500500D01*
D37*
%TO.N,+BATT*%
X224700000Y-64000000D02*
X219320000Y-64000000D01*
D36*
X219320000Y-64000000D02*
X219230000Y-63910000D01*
%TO.N,Net-(R11-Pad2)*%
X209599500Y-82050000D02*
X209975000Y-82050000D01*
X210775000Y-81250000D02*
X210775000Y-80675000D01*
X209975000Y-82050000D02*
X210775000Y-81250000D01*
X209200000Y-75200000D02*
X209275000Y-75125000D01*
X209150000Y-75700000D02*
X209200000Y-75650000D01*
X209275000Y-75125000D02*
X210125000Y-75125000D01*
X209200000Y-75650000D02*
X209200000Y-75200000D01*
%TO.N,+3V3*%
X192820000Y-82855000D02*
X192820000Y-85070000D01*
X194710000Y-92270000D02*
X193360000Y-92270000D01*
X198675000Y-93775000D02*
X197575000Y-93775000D01*
X212950000Y-87950000D02*
X212975000Y-87925000D01*
X203225000Y-89775000D02*
X203225000Y-91937500D01*
X192830000Y-85080000D02*
X191380000Y-85080000D01*
X203225000Y-89775000D02*
X203225000Y-88550000D01*
X203225000Y-91937500D02*
X203262500Y-91975000D01*
X203225000Y-88550000D02*
X202850000Y-88175000D01*
X197575000Y-93775000D02*
X197475000Y-93675000D01*
X191380000Y-85080000D02*
X191270000Y-84970000D01*
X193360000Y-92270000D02*
X193340000Y-92250000D01*
X212950000Y-89400000D02*
X212950000Y-87950000D01*
X192820000Y-85070000D02*
X192830000Y-85080000D01*
%TO.N,SCL5V*%
X188350000Y-86600000D02*
X188350000Y-82680000D01*
X188350000Y-82680000D02*
X187770000Y-82100000D01*
%TO.N,SDA5V*%
X184500000Y-82830000D02*
X185230000Y-82100000D01*
X184500000Y-86650000D02*
X184500000Y-82830000D01*
D38*
%TO.N,VALVE+*%
X214025000Y-81975000D02*
X214575000Y-82525000D01*
X214025000Y-80675000D02*
X214025000Y-81975000D01*
%TO.N,VALVE-*%
X214025000Y-74150000D02*
X214475000Y-73700000D01*
X214475000Y-73700000D02*
X214850000Y-73700000D01*
X214025000Y-75125000D02*
X214025000Y-74150000D01*
D36*
%TO.N,~{VALVE_OPEN}*%
X209050000Y-89400000D02*
X209050000Y-87970000D01*
X209050000Y-87970000D02*
X208750000Y-87670000D01*
%TO.N,~{VALVE_CLOSED}*%
X208400000Y-88660500D02*
X207849500Y-88110000D01*
X208400000Y-89400000D02*
X208400000Y-88660500D01*
%TO.N,Net-(R15-Pad1)*%
X210775000Y-72950000D02*
X210775000Y-75125000D01*
%TO.N,Net-(R16-Pad1)*%
X214675000Y-80675000D02*
X216175000Y-80675000D01*
X216175000Y-80675000D02*
X216200000Y-80650000D01*
%TO.N,unconnected-(U5-Pad7)*%
X209050000Y-83675000D02*
X209025000Y-83700000D01*
%TO.N,unconnected-(U5-Pad12)*%
X210300000Y-89350000D02*
X210350000Y-89400000D01*
%TO.N,~{I2C_INT}*%
X210925000Y-92026041D02*
X210925000Y-89475000D01*
X210925000Y-89475000D02*
X211000000Y-89400000D01*
X209676041Y-93275000D02*
X210925000Y-92026041D01*
X208987500Y-93275000D02*
X209676041Y-93275000D01*
X208987500Y-93275000D02*
X207950000Y-93275000D01*
X207950000Y-93275000D02*
X207625000Y-93600000D01*
%TO.N,~{FAULT}*%
X209750000Y-89350000D02*
X209700000Y-89400000D01*
X209750000Y-87590000D02*
X209750000Y-89350000D01*
X208875000Y-80675000D02*
X210125000Y-80675000D01*
%TO.N,PHASE*%
X211425000Y-81650000D02*
X211025000Y-82050000D01*
X203262500Y-92625000D02*
X204525000Y-92625000D01*
X211425000Y-80675000D02*
X211425000Y-81650000D01*
X204525000Y-92625000D02*
X205075000Y-92075000D01*
%TO.N,ENABLE*%
X213325000Y-80725000D02*
X213375000Y-80675000D01*
X211000000Y-83675000D02*
X211000000Y-85100000D01*
X213325000Y-82075000D02*
X213325000Y-80725000D01*
X211000000Y-85100000D02*
X211475000Y-85575000D01*
%TO.N,~{SLEEP}*%
X210350000Y-83675000D02*
X210350000Y-85046187D01*
X212149500Y-82050000D02*
X212725000Y-81474500D01*
X212725000Y-81474500D02*
X212725000Y-80675000D01*
X210350000Y-85046187D02*
X210275787Y-85120400D01*
%TD*%
%TA.AperFunction,Conductor*%
%TO.N,+12V*%
G36*
X230065621Y-58948502D02*
G01*
X230112114Y-59002158D01*
X230123500Y-59054500D01*
X230123500Y-100966071D01*
X230103498Y-101034192D01*
X230049842Y-101080685D01*
X229997614Y-101092071D01*
X175783994Y-101140950D01*
X175715855Y-101121009D01*
X175669314Y-101067396D01*
X175657880Y-101015096D01*
X175647712Y-92250000D01*
X192426496Y-92250000D01*
X192446458Y-92439928D01*
X192505473Y-92621556D01*
X192508776Y-92627278D01*
X192508777Y-92627279D01*
X192511003Y-92631134D01*
X192600960Y-92786944D01*
X192605378Y-92791851D01*
X192605379Y-92791852D01*
X192714461Y-92913000D01*
X192728747Y-92928866D01*
X192883248Y-93041118D01*
X192889276Y-93043802D01*
X192889278Y-93043803D01*
X193043447Y-93112443D01*
X193057712Y-93118794D01*
X193151112Y-93138647D01*
X193238056Y-93157128D01*
X193238061Y-93157128D01*
X193244513Y-93158500D01*
X193435487Y-93158500D01*
X193441939Y-93157128D01*
X193441944Y-93157128D01*
X193536800Y-93136965D01*
X193617319Y-93119850D01*
X193688109Y-93125252D01*
X193744741Y-93168069D01*
X193750661Y-93176797D01*
X193757670Y-93188125D01*
X193757675Y-93188131D01*
X193761522Y-93194348D01*
X193766700Y-93199517D01*
X193808801Y-93241545D01*
X193886697Y-93319305D01*
X193892927Y-93323145D01*
X193892928Y-93323146D01*
X194030090Y-93407694D01*
X194037262Y-93412115D01*
X194083659Y-93427504D01*
X194198611Y-93465632D01*
X194198613Y-93465632D01*
X194205139Y-93467797D01*
X194211975Y-93468497D01*
X194211978Y-93468498D01*
X194255031Y-93472909D01*
X194309600Y-93478500D01*
X195110400Y-93478500D01*
X195113646Y-93478163D01*
X195113650Y-93478163D01*
X195209308Y-93468238D01*
X195209312Y-93468237D01*
X195216166Y-93467526D01*
X195222702Y-93465345D01*
X195222704Y-93465345D01*
X195368704Y-93416635D01*
X195383946Y-93411550D01*
X195534348Y-93318478D01*
X195620784Y-93231891D01*
X195683066Y-93197812D01*
X195753886Y-93202815D01*
X195798975Y-93231736D01*
X195808801Y-93241545D01*
X195886697Y-93319305D01*
X195892927Y-93323145D01*
X195892928Y-93323146D01*
X195976616Y-93374732D01*
X196024109Y-93427504D01*
X196036500Y-93481992D01*
X196036500Y-94366233D01*
X196035973Y-94377416D01*
X196034298Y-94384909D01*
X196034547Y-94392835D01*
X196034547Y-94392836D01*
X196036438Y-94452986D01*
X196036500Y-94456945D01*
X196036500Y-94484856D01*
X196036997Y-94488790D01*
X196036997Y-94488791D01*
X196037005Y-94488856D01*
X196037938Y-94500693D01*
X196039327Y-94544889D01*
X196044605Y-94563056D01*
X196044978Y-94564339D01*
X196048987Y-94583700D01*
X196050330Y-94594327D01*
X196051526Y-94603797D01*
X196054445Y-94611168D01*
X196054445Y-94611170D01*
X196067804Y-94644912D01*
X196071649Y-94656142D01*
X196083982Y-94698593D01*
X196088015Y-94705412D01*
X196088017Y-94705417D01*
X196094293Y-94716028D01*
X196102988Y-94733776D01*
X196110448Y-94752617D01*
X196115110Y-94759033D01*
X196115110Y-94759034D01*
X196136436Y-94788387D01*
X196142952Y-94798307D01*
X196165458Y-94836362D01*
X196179779Y-94850683D01*
X196192619Y-94865716D01*
X196204528Y-94882107D01*
X196210634Y-94887158D01*
X196238605Y-94910298D01*
X196247384Y-94918288D01*
X196946343Y-95617247D01*
X196953887Y-95625537D01*
X196958000Y-95632018D01*
X196963777Y-95637443D01*
X197007667Y-95678658D01*
X197010509Y-95681413D01*
X197030231Y-95701135D01*
X197033355Y-95703558D01*
X197033359Y-95703562D01*
X197033424Y-95703612D01*
X197042445Y-95711317D01*
X197074679Y-95741586D01*
X197081627Y-95745405D01*
X197081629Y-95745407D01*
X197092432Y-95751346D01*
X197108959Y-95762202D01*
X197118698Y-95769757D01*
X197118700Y-95769758D01*
X197124960Y-95774614D01*
X197165540Y-95792174D01*
X197176188Y-95797391D01*
X197214940Y-95818695D01*
X197222616Y-95820666D01*
X197222619Y-95820667D01*
X197234562Y-95823733D01*
X197253267Y-95830137D01*
X197271855Y-95838181D01*
X197279678Y-95839420D01*
X197279688Y-95839423D01*
X197315524Y-95845099D01*
X197327144Y-95847505D01*
X197362289Y-95856528D01*
X197369970Y-95858500D01*
X197390224Y-95858500D01*
X197409934Y-95860051D01*
X197429943Y-95863220D01*
X197437835Y-95862474D01*
X197473961Y-95859059D01*
X197485819Y-95858500D01*
X201865501Y-95858500D01*
X201933622Y-95878502D01*
X201980115Y-95932158D01*
X201991501Y-95984499D01*
X201991501Y-96014884D01*
X201992039Y-96018969D01*
X201992039Y-96018973D01*
X202006084Y-96125662D01*
X202007162Y-96133850D01*
X202068476Y-96281876D01*
X202073502Y-96288426D01*
X202160985Y-96402434D01*
X202166013Y-96408987D01*
X202172563Y-96414013D01*
X202172566Y-96414016D01*
X202229569Y-96457756D01*
X202293125Y-96506524D01*
X202441150Y-96567838D01*
X202546947Y-96581766D01*
X202611873Y-96610488D01*
X202650965Y-96669753D01*
X202656500Y-96706688D01*
X202656500Y-96821976D01*
X202636498Y-96890097D01*
X202624142Y-96906279D01*
X202550960Y-96987556D01*
X202455473Y-97152944D01*
X202396458Y-97334572D01*
X202395768Y-97341133D01*
X202395768Y-97341135D01*
X202384436Y-97448955D01*
X202376496Y-97524500D01*
X202396458Y-97714428D01*
X202455473Y-97896056D01*
X202550960Y-98061444D01*
X202678747Y-98203366D01*
X202833248Y-98315618D01*
X202839276Y-98318302D01*
X202839278Y-98318303D01*
X203001681Y-98390609D01*
X203007712Y-98393294D01*
X203101112Y-98413147D01*
X203188056Y-98431628D01*
X203188061Y-98431628D01*
X203194513Y-98433000D01*
X203385487Y-98433000D01*
X203391939Y-98431628D01*
X203391944Y-98431628D01*
X203478888Y-98413147D01*
X203572288Y-98393294D01*
X203578319Y-98390609D01*
X203740722Y-98318303D01*
X203740724Y-98318302D01*
X203746752Y-98315618D01*
X203901253Y-98203366D01*
X204029040Y-98061444D01*
X204124527Y-97896056D01*
X204183542Y-97714428D01*
X204203504Y-97524500D01*
X204195564Y-97448955D01*
X204184232Y-97341135D01*
X204184232Y-97341133D01*
X204183542Y-97334572D01*
X204124527Y-97152944D01*
X204029040Y-96987556D01*
X203955863Y-96906285D01*
X203925147Y-96842279D01*
X203923500Y-96821976D01*
X203923500Y-96692865D01*
X203943502Y-96624744D01*
X203997158Y-96578251D01*
X204018009Y-96572259D01*
X204017686Y-96571053D01*
X204025662Y-96568916D01*
X204033850Y-96567838D01*
X204137925Y-96524729D01*
X204174248Y-96509684D01*
X204174250Y-96509683D01*
X204181876Y-96506524D01*
X204308987Y-96408987D01*
X204314014Y-96402436D01*
X204314016Y-96402434D01*
X204370790Y-96328444D01*
X204406524Y-96281875D01*
X204467838Y-96133850D01*
X204482668Y-96021206D01*
X204482962Y-96018972D01*
X204482962Y-96018971D01*
X204483500Y-96014885D01*
X204483500Y-96010762D01*
X204483770Y-96006643D01*
X204485629Y-96006765D01*
X204503502Y-95945896D01*
X204557158Y-95899403D01*
X204627432Y-95889299D01*
X204660749Y-95898910D01*
X204811008Y-95965809D01*
X204817712Y-95968794D01*
X204891603Y-95984500D01*
X204998056Y-96007128D01*
X204998061Y-96007128D01*
X205004513Y-96008500D01*
X205195487Y-96008500D01*
X205201942Y-96007128D01*
X205201951Y-96007127D01*
X205262765Y-95994200D01*
X205333556Y-95999601D01*
X205390189Y-96042417D01*
X205408796Y-96078508D01*
X205456049Y-96223938D01*
X205551536Y-96389326D01*
X205679323Y-96531248D01*
X205684664Y-96535128D01*
X205684669Y-96535133D01*
X205720616Y-96561250D01*
X205763969Y-96617472D01*
X205771864Y-96676356D01*
X205761496Y-96775000D01*
X205781458Y-96964928D01*
X205840473Y-97146556D01*
X205935960Y-97311944D01*
X205940378Y-97316851D01*
X205940379Y-97316852D01*
X206059325Y-97448955D01*
X206063747Y-97453866D01*
X206218248Y-97566118D01*
X206224276Y-97568802D01*
X206224278Y-97568803D01*
X206310358Y-97607128D01*
X206392712Y-97643794D01*
X206486113Y-97663647D01*
X206573056Y-97682128D01*
X206573061Y-97682128D01*
X206579513Y-97683500D01*
X206770487Y-97683500D01*
X206776939Y-97682128D01*
X206776944Y-97682128D01*
X206863887Y-97663647D01*
X206957288Y-97643794D01*
X207039642Y-97607128D01*
X207125722Y-97568803D01*
X207125724Y-97568802D01*
X207131752Y-97566118D01*
X207286253Y-97453866D01*
X207290675Y-97448955D01*
X207409621Y-97316852D01*
X207409622Y-97316851D01*
X207414040Y-97311944D01*
X207509527Y-97146556D01*
X207568542Y-96964928D01*
X207585907Y-96799706D01*
X207612920Y-96734050D01*
X207622122Y-96723782D01*
X207800499Y-96545405D01*
X207862811Y-96511379D01*
X207889594Y-96508500D01*
X207997832Y-96508500D01*
X208046050Y-96518091D01*
X208166150Y-96567838D01*
X208174338Y-96568916D01*
X208281021Y-96582961D01*
X208285115Y-96583500D01*
X208962417Y-96583500D01*
X209639884Y-96583499D01*
X209643969Y-96582961D01*
X209643973Y-96582961D01*
X209750663Y-96568916D01*
X209750665Y-96568916D01*
X209758850Y-96567838D01*
X209878950Y-96518091D01*
X209927168Y-96508500D01*
X210235406Y-96508500D01*
X210303527Y-96528502D01*
X210324501Y-96545405D01*
X210427878Y-96648782D01*
X210461904Y-96711094D01*
X210464092Y-96724703D01*
X210481458Y-96889928D01*
X210540473Y-97071556D01*
X210543776Y-97077278D01*
X210543777Y-97077279D01*
X210548931Y-97086206D01*
X210635960Y-97236944D01*
X210640378Y-97241851D01*
X210640379Y-97241852D01*
X210729774Y-97341135D01*
X210763747Y-97378866D01*
X210918248Y-97491118D01*
X210924276Y-97493802D01*
X210924278Y-97493803D01*
X211081843Y-97563955D01*
X211092712Y-97568794D01*
X211186112Y-97588647D01*
X211273056Y-97607128D01*
X211273061Y-97607128D01*
X211279513Y-97608500D01*
X211470487Y-97608500D01*
X211476939Y-97607128D01*
X211476944Y-97607128D01*
X211563888Y-97588647D01*
X211657288Y-97568794D01*
X211668157Y-97563955D01*
X211825722Y-97493803D01*
X211825724Y-97493802D01*
X211831752Y-97491118D01*
X211986253Y-97378866D01*
X212020226Y-97341135D01*
X212109621Y-97241852D01*
X212109622Y-97241851D01*
X212114040Y-97236944D01*
X212201069Y-97086206D01*
X212206223Y-97077279D01*
X212206224Y-97077278D01*
X212209527Y-97071556D01*
X212268519Y-96890000D01*
X219566496Y-96890000D01*
X219567186Y-96896565D01*
X219584918Y-97065271D01*
X219586458Y-97079928D01*
X219645473Y-97261556D01*
X219740960Y-97426944D01*
X219745378Y-97431851D01*
X219745379Y-97431852D01*
X219828800Y-97524500D01*
X219868747Y-97568866D01*
X219967843Y-97640864D01*
X219973765Y-97645166D01*
X220023248Y-97681118D01*
X220029276Y-97683802D01*
X220029278Y-97683803D01*
X220191681Y-97756109D01*
X220197712Y-97758794D01*
X220291113Y-97778647D01*
X220378056Y-97797128D01*
X220378061Y-97797128D01*
X220384513Y-97798500D01*
X220575487Y-97798500D01*
X220581939Y-97797128D01*
X220581944Y-97797128D01*
X220668887Y-97778647D01*
X220762288Y-97758794D01*
X220768319Y-97756109D01*
X220930722Y-97683803D01*
X220930724Y-97683802D01*
X220936752Y-97681118D01*
X220986236Y-97645166D01*
X220992157Y-97640864D01*
X221091253Y-97568866D01*
X221131200Y-97524500D01*
X221214621Y-97431852D01*
X221214622Y-97431851D01*
X221219040Y-97426944D01*
X221314527Y-97261556D01*
X221373542Y-97079928D01*
X221375083Y-97065271D01*
X221392814Y-96896565D01*
X221393504Y-96890000D01*
X221388488Y-96842279D01*
X221374232Y-96706635D01*
X221374232Y-96706633D01*
X221373542Y-96700072D01*
X221314527Y-96518444D01*
X221309694Y-96510072D01*
X221251332Y-96408987D01*
X221219040Y-96353056D01*
X221154949Y-96281875D01*
X221095675Y-96216045D01*
X221095674Y-96216044D01*
X221091253Y-96211134D01*
X220936752Y-96098882D01*
X220930724Y-96096198D01*
X220930722Y-96096197D01*
X220768319Y-96023891D01*
X220768318Y-96023891D01*
X220762288Y-96021206D01*
X220660645Y-95999601D01*
X220581944Y-95982872D01*
X220581939Y-95982872D01*
X220575487Y-95981500D01*
X220384513Y-95981500D01*
X220378061Y-95982872D01*
X220378056Y-95982872D01*
X220299355Y-95999601D01*
X220197712Y-96021206D01*
X220191682Y-96023891D01*
X220191681Y-96023891D01*
X220029278Y-96096197D01*
X220029276Y-96096198D01*
X220023248Y-96098882D01*
X219868747Y-96211134D01*
X219864326Y-96216044D01*
X219864325Y-96216045D01*
X219805052Y-96281875D01*
X219740960Y-96353056D01*
X219708668Y-96408987D01*
X219650307Y-96510072D01*
X219645473Y-96518444D01*
X219586458Y-96700072D01*
X219585768Y-96706633D01*
X219585768Y-96706635D01*
X219571512Y-96842279D01*
X219566496Y-96890000D01*
X212268519Y-96890000D01*
X212268542Y-96889928D01*
X212278025Y-96799707D01*
X212287814Y-96706565D01*
X212288504Y-96700000D01*
X212276260Y-96583500D01*
X212269232Y-96516635D01*
X212269232Y-96516633D01*
X212268542Y-96510072D01*
X212209527Y-96328444D01*
X212114040Y-96163056D01*
X212109620Y-96158148D01*
X212105741Y-96152808D01*
X212107080Y-96151835D01*
X212079950Y-96095304D01*
X212088713Y-96024851D01*
X212106250Y-95997562D01*
X212105741Y-95997192D01*
X212109620Y-95991852D01*
X212114040Y-95986944D01*
X212195399Y-95846027D01*
X212206223Y-95827279D01*
X212206224Y-95827278D01*
X212209527Y-95821556D01*
X212268542Y-95639928D01*
X212269374Y-95632018D01*
X212287814Y-95456565D01*
X212288504Y-95450000D01*
X212268542Y-95260072D01*
X212226279Y-95130000D01*
X224096496Y-95130000D01*
X224116458Y-95319928D01*
X224175473Y-95501556D01*
X224270960Y-95666944D01*
X224275378Y-95671851D01*
X224275379Y-95671852D01*
X224363533Y-95769757D01*
X224398747Y-95808866D01*
X224553248Y-95921118D01*
X224559276Y-95923802D01*
X224559278Y-95923803D01*
X224721681Y-95996109D01*
X224727712Y-95998794D01*
X224803414Y-96014885D01*
X224908056Y-96037128D01*
X224908061Y-96037128D01*
X224914513Y-96038500D01*
X225105487Y-96038500D01*
X225111939Y-96037128D01*
X225111944Y-96037128D01*
X225216586Y-96014885D01*
X225292288Y-95998794D01*
X225298319Y-95996109D01*
X225460722Y-95923803D01*
X225460724Y-95923802D01*
X225466752Y-95921118D01*
X225621253Y-95808866D01*
X225656467Y-95769757D01*
X225744621Y-95671852D01*
X225744622Y-95671851D01*
X225749040Y-95666944D01*
X225844527Y-95501556D01*
X225903542Y-95319928D01*
X225923504Y-95130000D01*
X225917484Y-95072721D01*
X225904232Y-94946635D01*
X225904232Y-94946633D01*
X225903542Y-94940072D01*
X225844527Y-94758444D01*
X225830834Y-94734726D01*
X225784423Y-94654341D01*
X225749040Y-94593056D01*
X225727177Y-94568774D01*
X225625675Y-94456045D01*
X225625674Y-94456044D01*
X225621253Y-94451134D01*
X225466752Y-94338882D01*
X225460724Y-94336198D01*
X225460722Y-94336197D01*
X225298319Y-94263891D01*
X225298318Y-94263891D01*
X225292288Y-94261206D01*
X225198888Y-94241353D01*
X225111944Y-94222872D01*
X225111939Y-94222872D01*
X225105487Y-94221500D01*
X224914513Y-94221500D01*
X224908061Y-94222872D01*
X224908056Y-94222872D01*
X224821112Y-94241353D01*
X224727712Y-94261206D01*
X224721682Y-94263891D01*
X224721681Y-94263891D01*
X224559278Y-94336197D01*
X224559276Y-94336198D01*
X224553248Y-94338882D01*
X224398747Y-94451134D01*
X224394326Y-94456044D01*
X224394325Y-94456045D01*
X224292824Y-94568774D01*
X224270960Y-94593056D01*
X224235577Y-94654341D01*
X224189167Y-94734726D01*
X224175473Y-94758444D01*
X224116458Y-94940072D01*
X224115768Y-94946633D01*
X224115768Y-94946635D01*
X224102516Y-95072721D01*
X224096496Y-95130000D01*
X212226279Y-95130000D01*
X212209527Y-95078444D01*
X212114040Y-94913056D01*
X212109621Y-94908148D01*
X212007809Y-94795074D01*
X211977091Y-94731067D01*
X211985856Y-94660613D01*
X212027384Y-94608828D01*
X212097138Y-94558148D01*
X212136753Y-94529366D01*
X212201961Y-94456945D01*
X212260121Y-94392352D01*
X212260122Y-94392351D01*
X212264540Y-94387444D01*
X212360027Y-94222056D01*
X212419042Y-94040428D01*
X212439004Y-93850500D01*
X212419042Y-93660572D01*
X212360027Y-93478944D01*
X212264540Y-93313556D01*
X212197204Y-93238771D01*
X212141175Y-93176545D01*
X212141174Y-93176544D01*
X212136753Y-93171634D01*
X212060439Y-93116188D01*
X212017085Y-93059965D01*
X212008500Y-93014252D01*
X212008500Y-92032397D01*
X212028502Y-91964276D01*
X212082158Y-91917783D01*
X212147668Y-91907087D01*
X212148058Y-91907128D01*
X212154513Y-91908500D01*
X212258986Y-91908500D01*
X212327107Y-91928502D01*
X212373600Y-91982158D01*
X212381903Y-92006799D01*
X212433237Y-92234585D01*
X212435179Y-92239367D01*
X212435180Y-92239371D01*
X212439496Y-92250000D01*
X212522837Y-92455244D01*
X212647274Y-92658306D01*
X212803204Y-92838317D01*
X212986442Y-92990444D01*
X212990894Y-92993046D01*
X212990899Y-92993049D01*
X213158724Y-93091118D01*
X213192065Y-93110601D01*
X213414552Y-93195560D01*
X213419618Y-93196591D01*
X213419619Y-93196591D01*
X213434001Y-93199517D01*
X213647928Y-93243041D01*
X213781284Y-93247931D01*
X213880760Y-93251579D01*
X213880764Y-93251579D01*
X213885924Y-93251768D01*
X213891044Y-93251112D01*
X213891046Y-93251112D01*
X214117023Y-93222164D01*
X214117024Y-93222164D01*
X214122151Y-93221507D01*
X214155909Y-93211379D01*
X214345316Y-93154554D01*
X214345317Y-93154553D01*
X214350262Y-93153070D01*
X214564133Y-93048295D01*
X214568336Y-93045297D01*
X214568341Y-93045294D01*
X214753816Y-92912996D01*
X214753818Y-92912994D01*
X214758020Y-92909997D01*
X214926716Y-92741889D01*
X214984979Y-92660807D01*
X215040972Y-92617160D01*
X215111676Y-92610714D01*
X215174640Y-92643516D01*
X215186582Y-92657176D01*
X215187274Y-92658306D01*
X215343204Y-92838317D01*
X215526442Y-92990444D01*
X215530894Y-92993046D01*
X215530899Y-92993049D01*
X215698724Y-93091118D01*
X215732065Y-93110601D01*
X215954552Y-93195560D01*
X215959618Y-93196591D01*
X215959619Y-93196591D01*
X215974001Y-93199517D01*
X216187928Y-93243041D01*
X216321284Y-93247931D01*
X216420760Y-93251579D01*
X216420764Y-93251579D01*
X216425924Y-93251768D01*
X216431044Y-93251112D01*
X216431046Y-93251112D01*
X216657023Y-93222164D01*
X216657024Y-93222164D01*
X216662151Y-93221507D01*
X216695909Y-93211379D01*
X216885316Y-93154554D01*
X216885317Y-93154553D01*
X216890262Y-93153070D01*
X217104133Y-93048295D01*
X217108336Y-93045297D01*
X217108341Y-93045294D01*
X217293816Y-92912996D01*
X217293818Y-92912994D01*
X217298020Y-92909997D01*
X217466716Y-92741889D01*
X217524979Y-92660807D01*
X217580972Y-92617160D01*
X217651676Y-92610714D01*
X217714640Y-92643516D01*
X217726582Y-92657176D01*
X217727274Y-92658306D01*
X217883204Y-92838317D01*
X218066442Y-92990444D01*
X218070894Y-92993046D01*
X218070899Y-92993049D01*
X218238724Y-93091118D01*
X218272065Y-93110601D01*
X218494552Y-93195560D01*
X218499618Y-93196591D01*
X218499619Y-93196591D01*
X218514001Y-93199517D01*
X218727928Y-93243041D01*
X218861284Y-93247931D01*
X218960760Y-93251579D01*
X218960764Y-93251579D01*
X218965924Y-93251768D01*
X218971044Y-93251112D01*
X218971046Y-93251112D01*
X219197023Y-93222164D01*
X219197024Y-93222164D01*
X219202151Y-93221507D01*
X219235909Y-93211379D01*
X219425316Y-93154554D01*
X219425317Y-93154553D01*
X219430262Y-93153070D01*
X219644133Y-93048295D01*
X219648336Y-93045297D01*
X219648341Y-93045294D01*
X219833816Y-92912996D01*
X219833818Y-92912994D01*
X219838020Y-92909997D01*
X220006716Y-92741889D01*
X220064979Y-92660807D01*
X220120972Y-92617160D01*
X220191676Y-92610714D01*
X220254640Y-92643516D01*
X220266582Y-92657176D01*
X220267274Y-92658306D01*
X220423204Y-92838317D01*
X220606442Y-92990444D01*
X220610894Y-92993046D01*
X220610899Y-92993049D01*
X220778724Y-93091118D01*
X220812065Y-93110601D01*
X221034552Y-93195560D01*
X221039618Y-93196591D01*
X221039619Y-93196591D01*
X221054001Y-93199517D01*
X221267928Y-93243041D01*
X221401284Y-93247931D01*
X221500760Y-93251579D01*
X221500764Y-93251579D01*
X221505924Y-93251768D01*
X221511044Y-93251112D01*
X221511046Y-93251112D01*
X221737023Y-93222164D01*
X221737024Y-93222164D01*
X221742151Y-93221507D01*
X221775909Y-93211379D01*
X221965316Y-93154554D01*
X221965317Y-93154553D01*
X221970262Y-93153070D01*
X222184133Y-93048295D01*
X222188336Y-93045297D01*
X222188341Y-93045294D01*
X222373816Y-92912996D01*
X222373818Y-92912994D01*
X222378020Y-92909997D01*
X222546716Y-92741889D01*
X222604979Y-92660807D01*
X222660972Y-92617160D01*
X222731676Y-92610714D01*
X222794640Y-92643516D01*
X222806582Y-92657176D01*
X222807274Y-92658306D01*
X222963204Y-92838317D01*
X223146442Y-92990444D01*
X223150894Y-92993046D01*
X223150899Y-92993049D01*
X223318724Y-93091118D01*
X223352065Y-93110601D01*
X223574552Y-93195560D01*
X223579618Y-93196591D01*
X223579619Y-93196591D01*
X223594001Y-93199517D01*
X223807928Y-93243041D01*
X223941284Y-93247931D01*
X224040760Y-93251579D01*
X224040764Y-93251579D01*
X224045924Y-93251768D01*
X224051044Y-93251112D01*
X224051046Y-93251112D01*
X224277023Y-93222164D01*
X224277024Y-93222164D01*
X224282151Y-93221507D01*
X224315909Y-93211379D01*
X224505316Y-93154554D01*
X224505317Y-93154553D01*
X224510262Y-93153070D01*
X224724133Y-93048295D01*
X224728336Y-93045297D01*
X224728341Y-93045294D01*
X224913810Y-92913000D01*
X224918020Y-92909997D01*
X224920601Y-92907425D01*
X224985135Y-92878913D01*
X225055278Y-92889886D01*
X225108355Y-92937039D01*
X225119502Y-92959610D01*
X225129585Y-92986505D01*
X225216939Y-93103061D01*
X225333495Y-93190415D01*
X225469884Y-93241545D01*
X225532066Y-93248300D01*
X227507934Y-93248300D01*
X227570116Y-93241545D01*
X227706505Y-93190415D01*
X227823061Y-93103061D01*
X227910415Y-92986505D01*
X227961545Y-92850116D01*
X227968300Y-92787934D01*
X227968300Y-90812066D01*
X227961545Y-90749884D01*
X227910415Y-90613495D01*
X227823061Y-90496939D01*
X227706505Y-90409585D01*
X227570116Y-90358455D01*
X227507934Y-90351700D01*
X225532066Y-90351700D01*
X225469884Y-90358455D01*
X225333495Y-90409585D01*
X225216939Y-90496939D01*
X225129585Y-90613495D01*
X225126433Y-90621903D01*
X225118218Y-90643816D01*
X225075576Y-90700580D01*
X225009014Y-90725280D01*
X224939666Y-90710072D01*
X224922144Y-90698468D01*
X224788278Y-90592747D01*
X224788273Y-90592744D01*
X224784224Y-90589546D01*
X224779708Y-90587053D01*
X224779705Y-90587051D01*
X224580250Y-90476946D01*
X224580246Y-90476944D01*
X224575726Y-90474449D01*
X224570857Y-90472725D01*
X224570853Y-90472723D01*
X224356105Y-90396676D01*
X224356101Y-90396675D01*
X224351230Y-90394950D01*
X224346140Y-90394043D01*
X224346135Y-90394042D01*
X224218814Y-90371364D01*
X224116764Y-90353186D01*
X224025355Y-90352069D01*
X223883795Y-90350339D01*
X223883793Y-90350339D01*
X223878625Y-90350276D01*
X223643209Y-90386300D01*
X223416838Y-90460289D01*
X223357616Y-90491118D01*
X223244740Y-90549878D01*
X223205590Y-90570258D01*
X223201457Y-90573361D01*
X223201454Y-90573363D01*
X223019375Y-90710072D01*
X223015140Y-90713252D01*
X222850602Y-90885431D01*
X222825723Y-90921902D01*
X222815186Y-90937349D01*
X222760274Y-90982351D01*
X222689749Y-90990522D01*
X222626002Y-90959267D01*
X222605306Y-90934784D01*
X222594217Y-90917642D01*
X222594212Y-90917636D01*
X222591406Y-90913298D01*
X222549144Y-90866852D01*
X222528472Y-90844134D01*
X222431124Y-90737150D01*
X222427073Y-90733951D01*
X222427069Y-90733947D01*
X222248278Y-90592747D01*
X222248273Y-90592744D01*
X222244224Y-90589546D01*
X222239708Y-90587053D01*
X222239705Y-90587051D01*
X222040250Y-90476946D01*
X222040246Y-90476944D01*
X222035726Y-90474449D01*
X222030857Y-90472725D01*
X222030853Y-90472723D01*
X221816105Y-90396676D01*
X221816101Y-90396675D01*
X221811230Y-90394950D01*
X221806140Y-90394043D01*
X221806135Y-90394042D01*
X221678814Y-90371364D01*
X221576764Y-90353186D01*
X221485355Y-90352069D01*
X221343795Y-90350339D01*
X221343793Y-90350339D01*
X221338625Y-90350276D01*
X221103209Y-90386300D01*
X220876838Y-90460289D01*
X220817616Y-90491118D01*
X220704740Y-90549878D01*
X220665590Y-90570258D01*
X220661457Y-90573361D01*
X220661454Y-90573363D01*
X220479375Y-90710072D01*
X220475140Y-90713252D01*
X220310602Y-90885431D01*
X220285723Y-90921902D01*
X220275186Y-90937349D01*
X220220274Y-90982351D01*
X220149749Y-90990522D01*
X220086002Y-90959267D01*
X220065306Y-90934784D01*
X220054217Y-90917642D01*
X220054212Y-90917636D01*
X220051406Y-90913298D01*
X220009144Y-90866852D01*
X219988472Y-90844134D01*
X219891124Y-90737150D01*
X219887073Y-90733951D01*
X219887069Y-90733947D01*
X219708278Y-90592747D01*
X219708273Y-90592744D01*
X219704224Y-90589546D01*
X219699708Y-90587053D01*
X219699705Y-90587051D01*
X219500250Y-90476946D01*
X219500246Y-90476944D01*
X219495726Y-90474449D01*
X219490857Y-90472725D01*
X219490853Y-90472723D01*
X219276105Y-90396676D01*
X219276101Y-90396675D01*
X219271230Y-90394950D01*
X219266140Y-90394043D01*
X219266135Y-90394042D01*
X219138814Y-90371364D01*
X219036764Y-90353186D01*
X218945355Y-90352069D01*
X218803795Y-90350339D01*
X218803793Y-90350339D01*
X218798625Y-90350276D01*
X218563209Y-90386300D01*
X218336838Y-90460289D01*
X218277616Y-90491118D01*
X218164740Y-90549878D01*
X218125590Y-90570258D01*
X218121457Y-90573361D01*
X218121454Y-90573363D01*
X217939375Y-90710072D01*
X217935140Y-90713252D01*
X217770602Y-90885431D01*
X217745723Y-90921902D01*
X217735186Y-90937349D01*
X217680274Y-90982351D01*
X217609749Y-90990522D01*
X217546002Y-90959267D01*
X217525306Y-90934784D01*
X217514217Y-90917642D01*
X217514212Y-90917636D01*
X217511406Y-90913298D01*
X217469144Y-90866852D01*
X217448472Y-90844134D01*
X217351124Y-90737150D01*
X217347073Y-90733951D01*
X217347069Y-90733947D01*
X217168278Y-90592747D01*
X217168273Y-90592744D01*
X217164224Y-90589546D01*
X217159708Y-90587053D01*
X217159705Y-90587051D01*
X216960250Y-90476946D01*
X216960246Y-90476944D01*
X216955726Y-90474449D01*
X216950857Y-90472725D01*
X216950853Y-90472723D01*
X216736105Y-90396676D01*
X216736101Y-90396675D01*
X216731230Y-90394950D01*
X216726140Y-90394043D01*
X216726135Y-90394042D01*
X216598814Y-90371364D01*
X216496764Y-90353186D01*
X216405355Y-90352069D01*
X216263795Y-90350339D01*
X216263793Y-90350339D01*
X216258625Y-90350276D01*
X216023209Y-90386300D01*
X215796838Y-90460289D01*
X215737616Y-90491118D01*
X215624740Y-90549878D01*
X215585590Y-90570258D01*
X215581457Y-90573361D01*
X215581454Y-90573363D01*
X215399375Y-90710072D01*
X215395140Y-90713252D01*
X215230602Y-90885431D01*
X215205723Y-90921902D01*
X215195186Y-90937349D01*
X215140274Y-90982351D01*
X215069749Y-90990522D01*
X215006002Y-90959267D01*
X214985306Y-90934784D01*
X214974217Y-90917642D01*
X214974212Y-90917636D01*
X214971406Y-90913298D01*
X214929144Y-90866852D01*
X214908472Y-90844134D01*
X214811124Y-90737150D01*
X214807073Y-90733951D01*
X214807069Y-90733947D01*
X214628278Y-90592747D01*
X214628273Y-90592744D01*
X214624224Y-90589546D01*
X214619708Y-90587053D01*
X214619705Y-90587051D01*
X214420250Y-90476946D01*
X214420246Y-90476944D01*
X214415726Y-90474449D01*
X214410857Y-90472725D01*
X214410853Y-90472723D01*
X214196105Y-90396676D01*
X214196101Y-90396675D01*
X214191230Y-90394950D01*
X214186140Y-90394043D01*
X214186135Y-90394042D01*
X214058814Y-90371364D01*
X213956764Y-90353186D01*
X213888132Y-90352347D01*
X213762996Y-90350818D01*
X213695125Y-90329985D01*
X213649291Y-90275765D01*
X213640047Y-90205373D01*
X213641034Y-90200705D01*
X213642838Y-90196350D01*
X213658500Y-90077385D01*
X213658499Y-88722616D01*
X213657023Y-88711399D01*
X213648537Y-88646944D01*
X213643226Y-88606599D01*
X213654166Y-88536452D01*
X213674512Y-88505844D01*
X213677845Y-88502143D01*
X213714040Y-88461944D01*
X213772361Y-88360930D01*
X213806223Y-88302279D01*
X213806224Y-88302278D01*
X213809527Y-88296556D01*
X213868542Y-88114928D01*
X213869872Y-88102279D01*
X213887814Y-87931565D01*
X213888504Y-87925000D01*
X213877833Y-87823468D01*
X213869232Y-87741635D01*
X213869232Y-87741633D01*
X213868542Y-87735072D01*
X213809527Y-87553444D01*
X213803440Y-87542900D01*
X213750192Y-87450673D01*
X213714040Y-87388056D01*
X213705386Y-87378444D01*
X213590675Y-87251045D01*
X213590674Y-87251044D01*
X213586253Y-87246134D01*
X213445841Y-87144118D01*
X213437094Y-87137763D01*
X213437093Y-87137762D01*
X213431752Y-87133882D01*
X213425724Y-87131198D01*
X213425722Y-87131197D01*
X213263319Y-87058891D01*
X213263318Y-87058891D01*
X213257288Y-87056206D01*
X213163887Y-87036353D01*
X213076944Y-87017872D01*
X213076939Y-87017872D01*
X213070487Y-87016500D01*
X212879513Y-87016500D01*
X212873061Y-87017872D01*
X212873056Y-87017872D01*
X212786113Y-87036353D01*
X212692712Y-87056206D01*
X212686682Y-87058891D01*
X212686681Y-87058891D01*
X212524278Y-87131197D01*
X212524276Y-87131198D01*
X212518248Y-87133882D01*
X212512907Y-87137762D01*
X212512906Y-87137763D01*
X212504159Y-87144118D01*
X212363747Y-87246134D01*
X212359326Y-87251044D01*
X212359325Y-87251045D01*
X212244615Y-87378444D01*
X212235960Y-87388056D01*
X212199808Y-87450673D01*
X212146561Y-87542900D01*
X212140473Y-87553444D01*
X212081458Y-87735072D01*
X212080768Y-87741633D01*
X212080768Y-87741635D01*
X212072167Y-87823468D01*
X212061496Y-87925000D01*
X212062186Y-87931565D01*
X212073337Y-88037661D01*
X212060565Y-88107499D01*
X212012063Y-88159346D01*
X211943230Y-88176740D01*
X211916007Y-88172626D01*
X211908850Y-88169662D01*
X211900666Y-88168585D01*
X211900664Y-88168584D01*
X211793972Y-88154538D01*
X211793971Y-88154538D01*
X211789885Y-88154000D01*
X211650017Y-88154000D01*
X211510116Y-88154001D01*
X211506031Y-88154539D01*
X211506027Y-88154539D01*
X211399337Y-88168584D01*
X211399335Y-88168584D01*
X211391150Y-88169662D01*
X211373219Y-88177089D01*
X211302630Y-88184679D01*
X211276782Y-88177090D01*
X211271737Y-88175000D01*
X211266480Y-88172822D01*
X211266477Y-88172821D01*
X211258850Y-88169662D01*
X211180492Y-88159346D01*
X211143972Y-88154538D01*
X211143971Y-88154538D01*
X211139885Y-88154000D01*
X211000017Y-88154000D01*
X210860116Y-88154001D01*
X210856031Y-88154539D01*
X210856027Y-88154539D01*
X210749337Y-88168584D01*
X210749335Y-88168584D01*
X210741150Y-88169662D01*
X210723219Y-88177089D01*
X210652630Y-88184679D01*
X210626784Y-88177091D01*
X210624994Y-88176349D01*
X210569716Y-88131801D01*
X210547296Y-88064437D01*
X210564097Y-87996942D01*
X210581223Y-87967279D01*
X210581224Y-87967278D01*
X210584527Y-87961556D01*
X210643542Y-87779928D01*
X210648257Y-87735072D01*
X210662814Y-87596565D01*
X210663504Y-87590000D01*
X210661048Y-87566635D01*
X210644232Y-87406635D01*
X210644232Y-87406633D01*
X210643542Y-87400072D01*
X210584527Y-87218444D01*
X210579074Y-87208998D01*
X210540824Y-87142749D01*
X210489040Y-87053056D01*
X210482808Y-87046134D01*
X210365675Y-86916045D01*
X210365674Y-86916044D01*
X210361253Y-86911134D01*
X210243073Y-86825271D01*
X210212094Y-86802763D01*
X210212093Y-86802762D01*
X210206752Y-86798882D01*
X210200724Y-86796198D01*
X210200722Y-86796197D01*
X210038319Y-86723891D01*
X210038318Y-86723891D01*
X210032288Y-86721206D01*
X209938887Y-86701353D01*
X209851944Y-86682872D01*
X209851939Y-86682872D01*
X209845487Y-86681500D01*
X209654513Y-86681500D01*
X209648061Y-86682872D01*
X209648056Y-86682872D01*
X209561112Y-86701353D01*
X209467712Y-86721206D01*
X209461682Y-86723891D01*
X209461681Y-86723891D01*
X209299278Y-86796197D01*
X209299276Y-86796198D01*
X209293248Y-86798882D01*
X209287907Y-86802762D01*
X209287906Y-86802763D01*
X209268999Y-86816500D01*
X209267111Y-86817872D01*
X209250963Y-86829604D01*
X209184095Y-86853462D01*
X209125655Y-86842775D01*
X209032288Y-86801206D01*
X208938888Y-86781353D01*
X208851944Y-86762872D01*
X208851939Y-86762872D01*
X208845487Y-86761500D01*
X208654513Y-86761500D01*
X208648061Y-86762872D01*
X208648056Y-86762872D01*
X208561112Y-86781353D01*
X208467712Y-86801206D01*
X208461682Y-86803891D01*
X208461681Y-86803891D01*
X208299278Y-86876197D01*
X208299276Y-86876198D01*
X208293248Y-86878882D01*
X208287907Y-86882762D01*
X208287906Y-86882763D01*
X208248857Y-86911134D01*
X208138747Y-86991134D01*
X208134326Y-86996044D01*
X208134325Y-86996045D01*
X208038023Y-87103000D01*
X208010960Y-87133056D01*
X208007659Y-87138774D01*
X208003776Y-87144118D01*
X208002726Y-87143355D01*
X207956436Y-87187493D01*
X207898698Y-87201500D01*
X207754013Y-87201500D01*
X207747561Y-87202872D01*
X207747556Y-87202872D01*
X207669231Y-87219521D01*
X207567212Y-87241206D01*
X207561182Y-87243891D01*
X207561181Y-87243891D01*
X207398778Y-87316197D01*
X207398776Y-87316198D01*
X207392748Y-87318882D01*
X207387407Y-87322762D01*
X207387406Y-87322763D01*
X207353055Y-87347721D01*
X207238247Y-87431134D01*
X207233826Y-87436044D01*
X207233825Y-87436045D01*
X207122460Y-87559729D01*
X207110460Y-87573056D01*
X207063791Y-87653889D01*
X207018945Y-87731565D01*
X207014973Y-87738444D01*
X206955958Y-87920072D01*
X206955268Y-87926633D01*
X206955268Y-87926635D01*
X206936686Y-88103435D01*
X206935996Y-88110000D01*
X206936686Y-88116565D01*
X206952518Y-88267195D01*
X206955958Y-88299928D01*
X207014973Y-88481556D01*
X207110460Y-88646944D01*
X207114878Y-88651851D01*
X207114879Y-88651852D01*
X207201829Y-88748420D01*
X207232547Y-88812427D01*
X207223782Y-88882881D01*
X207178319Y-88937412D01*
X207110592Y-88958707D01*
X207056944Y-88947837D01*
X206913319Y-88883891D01*
X206913318Y-88883891D01*
X206907288Y-88881206D01*
X206813887Y-88861353D01*
X206726944Y-88842872D01*
X206726939Y-88842872D01*
X206720487Y-88841500D01*
X206529513Y-88841500D01*
X206523061Y-88842872D01*
X206523056Y-88842872D01*
X206364540Y-88876566D01*
X206293749Y-88871164D01*
X206239691Y-88831651D01*
X206235978Y-88825652D01*
X206110803Y-88700695D01*
X206104572Y-88696854D01*
X205966468Y-88611725D01*
X205966466Y-88611724D01*
X205960238Y-88607885D01*
X205799754Y-88554655D01*
X205798889Y-88554368D01*
X205798887Y-88554368D01*
X205792361Y-88552203D01*
X205785525Y-88551503D01*
X205785522Y-88551502D01*
X205737246Y-88546556D01*
X205687900Y-88541500D01*
X204912100Y-88541500D01*
X204908854Y-88541837D01*
X204908850Y-88541837D01*
X204813192Y-88551762D01*
X204813188Y-88551763D01*
X204806334Y-88552474D01*
X204799798Y-88554655D01*
X204799796Y-88554655D01*
X204724371Y-88579819D01*
X204638554Y-88608450D01*
X204488152Y-88701522D01*
X204363195Y-88826697D01*
X204360594Y-88830916D01*
X204303470Y-88871417D01*
X204232547Y-88874649D01*
X204171135Y-88839024D01*
X204164578Y-88831470D01*
X204160978Y-88825652D01*
X204128141Y-88792872D01*
X204076311Y-88741132D01*
X204042232Y-88678849D01*
X204047235Y-88608029D01*
X204089732Y-88551156D01*
X204114080Y-88536852D01*
X204186008Y-88504828D01*
X204186010Y-88504827D01*
X204192038Y-88502143D01*
X204212497Y-88487279D01*
X204255333Y-88456156D01*
X204346539Y-88389891D01*
X204380173Y-88352537D01*
X204469907Y-88252877D01*
X204469908Y-88252876D01*
X204474326Y-88247969D01*
X204550939Y-88115271D01*
X204566509Y-88088304D01*
X204566510Y-88088303D01*
X204569813Y-88082581D01*
X204628828Y-87900953D01*
X204631977Y-87870998D01*
X204648100Y-87717590D01*
X204648790Y-87711025D01*
X204641121Y-87638056D01*
X204629518Y-87527660D01*
X204629518Y-87527658D01*
X204628828Y-87521097D01*
X204614945Y-87478370D01*
X204605946Y-87450673D01*
X204603919Y-87379705D01*
X204640581Y-87318907D01*
X204674530Y-87296630D01*
X204770722Y-87253803D01*
X204770724Y-87253802D01*
X204776752Y-87251118D01*
X204788957Y-87242251D01*
X204886858Y-87171121D01*
X204931253Y-87138866D01*
X204993102Y-87070176D01*
X205054621Y-87001852D01*
X205054622Y-87001851D01*
X205059040Y-86996944D01*
X205127203Y-86878882D01*
X205151223Y-86837279D01*
X205151224Y-86837278D01*
X205154527Y-86831556D01*
X205213542Y-86649928D01*
X205233504Y-86460000D01*
X205231768Y-86443483D01*
X205214232Y-86276635D01*
X205214232Y-86276633D01*
X205213542Y-86270072D01*
X205154527Y-86088444D01*
X205147649Y-86076530D01*
X205099735Y-85993542D01*
X205059040Y-85923056D01*
X205051858Y-85915079D01*
X204935675Y-85786045D01*
X204935674Y-85786044D01*
X204931253Y-85781134D01*
X204807357Y-85691118D01*
X204782094Y-85672763D01*
X204782093Y-85672762D01*
X204776752Y-85668882D01*
X204770724Y-85666198D01*
X204770722Y-85666197D01*
X204608319Y-85593891D01*
X204608318Y-85593891D01*
X204602288Y-85591206D01*
X204508887Y-85571353D01*
X204421944Y-85552872D01*
X204421939Y-85552872D01*
X204415487Y-85551500D01*
X204224513Y-85551500D01*
X204218061Y-85552872D01*
X204218056Y-85552872D01*
X204131113Y-85571353D01*
X204037712Y-85591206D01*
X204031682Y-85593891D01*
X204031681Y-85593891D01*
X204003525Y-85606427D01*
X203933158Y-85615861D01*
X203868861Y-85585755D01*
X203863258Y-85580493D01*
X203778484Y-85495866D01*
X203778479Y-85495862D01*
X203773303Y-85490695D01*
X203769084Y-85488094D01*
X203728583Y-85430970D01*
X203725351Y-85360047D01*
X203760976Y-85298635D01*
X203768530Y-85292078D01*
X203774348Y-85288478D01*
X203785528Y-85277279D01*
X203894134Y-85168483D01*
X203899305Y-85163303D01*
X203921704Y-85126965D01*
X203988275Y-85018968D01*
X203988276Y-85018966D01*
X203992115Y-85012738D01*
X204022722Y-84920461D01*
X204045632Y-84851389D01*
X204045632Y-84851387D01*
X204047797Y-84844861D01*
X204050750Y-84816045D01*
X204054317Y-84781226D01*
X204058500Y-84740400D01*
X204058500Y-83989600D01*
X204053468Y-83941104D01*
X204048238Y-83890692D01*
X204048237Y-83890688D01*
X204047526Y-83883834D01*
X204041624Y-83866142D01*
X203993868Y-83723002D01*
X203991550Y-83716054D01*
X203898478Y-83565652D01*
X203773303Y-83440695D01*
X203765380Y-83435811D01*
X203631593Y-83353343D01*
X203584099Y-83300570D01*
X203572676Y-83230499D01*
X203588590Y-83183083D01*
X203661223Y-83057279D01*
X203661224Y-83057278D01*
X203664527Y-83051556D01*
X203723542Y-82869928D01*
X203724947Y-82856565D01*
X203742814Y-82686565D01*
X203743504Y-82680000D01*
X203733801Y-82587680D01*
X203724232Y-82496635D01*
X203724232Y-82496633D01*
X203723542Y-82490072D01*
X203664527Y-82308444D01*
X203659455Y-82299658D01*
X203609711Y-82213500D01*
X203569040Y-82143056D01*
X203535876Y-82106223D01*
X203445675Y-82006045D01*
X203445674Y-82006044D01*
X203441253Y-82001134D01*
X203286752Y-81888882D01*
X203280724Y-81886198D01*
X203280722Y-81886197D01*
X203118319Y-81813891D01*
X203118318Y-81813891D01*
X203112288Y-81811206D01*
X203018888Y-81791353D01*
X202931944Y-81772872D01*
X202931939Y-81772872D01*
X202925487Y-81771500D01*
X202734513Y-81771500D01*
X202728061Y-81772872D01*
X202728056Y-81772872D01*
X202641113Y-81791353D01*
X202547712Y-81811206D01*
X202541682Y-81813891D01*
X202541681Y-81813891D01*
X202379278Y-81886197D01*
X202379276Y-81886198D01*
X202373248Y-81888882D01*
X202218747Y-82001134D01*
X202214326Y-82006044D01*
X202214325Y-82006045D01*
X202124125Y-82106223D01*
X202090960Y-82143056D01*
X202050289Y-82213500D01*
X202000546Y-82299658D01*
X201995473Y-82308444D01*
X201936458Y-82490072D01*
X201935768Y-82496633D01*
X201935768Y-82496635D01*
X201926199Y-82587680D01*
X201916496Y-82680000D01*
X201917186Y-82686565D01*
X201935054Y-82856565D01*
X201936458Y-82869928D01*
X201995473Y-83051556D01*
X201998776Y-83057278D01*
X201998777Y-83057279D01*
X202081871Y-83201202D01*
X202098609Y-83270197D01*
X202075389Y-83337289D01*
X202039056Y-83371345D01*
X201925652Y-83441522D01*
X201800695Y-83566697D01*
X201796855Y-83572927D01*
X201796854Y-83572928D01*
X201719458Y-83698488D01*
X201707885Y-83717262D01*
X201690720Y-83769012D01*
X201654424Y-83878444D01*
X201652203Y-83885139D01*
X201641500Y-83989600D01*
X201641500Y-84740400D01*
X201641837Y-84743646D01*
X201641837Y-84743650D01*
X201649349Y-84816045D01*
X201652474Y-84846166D01*
X201654655Y-84852702D01*
X201654655Y-84852704D01*
X201692351Y-84965692D01*
X201708450Y-85013946D01*
X201801522Y-85164348D01*
X201926697Y-85289305D01*
X201930916Y-85291906D01*
X201971417Y-85349030D01*
X201974649Y-85419953D01*
X201939024Y-85481365D01*
X201931470Y-85487922D01*
X201925652Y-85491522D01*
X201800695Y-85616697D01*
X201796855Y-85622927D01*
X201796854Y-85622928D01*
X201714065Y-85757237D01*
X201707885Y-85767262D01*
X201694662Y-85807128D01*
X201657839Y-85918148D01*
X201652203Y-85935139D01*
X201641500Y-86039600D01*
X201641500Y-86790400D01*
X201641837Y-86793646D01*
X201641837Y-86793650D01*
X201650922Y-86881206D01*
X201652474Y-86896166D01*
X201654655Y-86902702D01*
X201654655Y-86902704D01*
X201674693Y-86962764D01*
X201708450Y-87063946D01*
X201801522Y-87214348D01*
X201926697Y-87339305D01*
X201932927Y-87343145D01*
X201932928Y-87343146D01*
X202055428Y-87418656D01*
X202077262Y-87432115D01*
X202079414Y-87432829D01*
X202131143Y-87478370D01*
X202150607Y-87546646D01*
X202130069Y-87614607D01*
X202118253Y-87629957D01*
X202110960Y-87638056D01*
X202015473Y-87803444D01*
X201956458Y-87985072D01*
X201955768Y-87991633D01*
X201955768Y-87991635D01*
X201938141Y-88159346D01*
X201936496Y-88175000D01*
X201937186Y-88181565D01*
X201955156Y-88352537D01*
X201956458Y-88364928D01*
X202015473Y-88546556D01*
X202110960Y-88711944D01*
X202182593Y-88791500D01*
X202195029Y-88805312D01*
X202225746Y-88869319D01*
X202216982Y-88939773D01*
X202208654Y-88955735D01*
X202195385Y-88977262D01*
X202193079Y-88984213D01*
X202193079Y-88984214D01*
X202144318Y-89131226D01*
X202139703Y-89145139D01*
X202139003Y-89151975D01*
X202139002Y-89151978D01*
X202136008Y-89181206D01*
X202129000Y-89249600D01*
X202129000Y-90300400D01*
X202129337Y-90303646D01*
X202129337Y-90303650D01*
X202137913Y-90386300D01*
X202139974Y-90406166D01*
X202142155Y-90412702D01*
X202142155Y-90412704D01*
X202168316Y-90491118D01*
X202195950Y-90573946D01*
X202289022Y-90724348D01*
X202414197Y-90849305D01*
X202531617Y-90921684D01*
X202579109Y-90974455D01*
X202591500Y-91028943D01*
X202591500Y-91151870D01*
X202571498Y-91219991D01*
X202517842Y-91266484D01*
X202481945Y-91276792D01*
X202466940Y-91278767D01*
X202449338Y-91281084D01*
X202449337Y-91281084D01*
X202441150Y-91282162D01*
X202404179Y-91297476D01*
X202300752Y-91340316D01*
X202300750Y-91340317D01*
X202293124Y-91343476D01*
X202196331Y-91417749D01*
X202130113Y-91443349D01*
X202068379Y-91432893D01*
X202061509Y-91429834D01*
X201979252Y-91393211D01*
X201958319Y-91383891D01*
X201958318Y-91383891D01*
X201952288Y-91381206D01*
X201858887Y-91361353D01*
X201771944Y-91342872D01*
X201771939Y-91342872D01*
X201765487Y-91341500D01*
X201574513Y-91341500D01*
X201568061Y-91342872D01*
X201568056Y-91342872D01*
X201461146Y-91365597D01*
X201387712Y-91381206D01*
X201381679Y-91383892D01*
X201381676Y-91383893D01*
X201360748Y-91393211D01*
X201290381Y-91402645D01*
X201226084Y-91372538D01*
X201188271Y-91312449D01*
X201183500Y-91278104D01*
X201183500Y-91017160D01*
X201201047Y-90953021D01*
X201235108Y-90895427D01*
X201235110Y-90895423D01*
X201239145Y-90888601D01*
X201246890Y-90861944D01*
X201256528Y-90828769D01*
X201285562Y-90728831D01*
X201286299Y-90719475D01*
X201288307Y-90693958D01*
X201288307Y-90693950D01*
X201288500Y-90691502D01*
X201288500Y-88908498D01*
X201287919Y-88901118D01*
X201286067Y-88877579D01*
X201286066Y-88877574D01*
X201285562Y-88871169D01*
X201255030Y-88766077D01*
X201241357Y-88719012D01*
X201241356Y-88719010D01*
X201239145Y-88711399D01*
X201197645Y-88641226D01*
X201158491Y-88575020D01*
X201158489Y-88575017D01*
X201154453Y-88568193D01*
X201036807Y-88450547D01*
X201029983Y-88446511D01*
X201029980Y-88446509D01*
X200900427Y-88369892D01*
X200900428Y-88369892D01*
X200893601Y-88365855D01*
X200885990Y-88363644D01*
X200885988Y-88363643D01*
X200805594Y-88340287D01*
X200733831Y-88319438D01*
X200727426Y-88318934D01*
X200727421Y-88318933D01*
X200698958Y-88316693D01*
X200698950Y-88316693D01*
X200696502Y-88316500D01*
X200263498Y-88316500D01*
X200261050Y-88316693D01*
X200261042Y-88316693D01*
X200232579Y-88318933D01*
X200232574Y-88318934D01*
X200226169Y-88319438D01*
X200219993Y-88321232D01*
X200219989Y-88321233D01*
X200112238Y-88352537D01*
X200041242Y-88352334D01*
X199981626Y-88313780D01*
X199952318Y-88249115D01*
X199962623Y-88178870D01*
X199967967Y-88168540D01*
X200006223Y-88102279D01*
X200006224Y-88102278D01*
X200009527Y-88096556D01*
X200068542Y-87914928D01*
X200078673Y-87818542D01*
X200087814Y-87731565D01*
X200088504Y-87725000D01*
X200078678Y-87631512D01*
X200069232Y-87541635D01*
X200069232Y-87541633D01*
X200068542Y-87535072D01*
X200009527Y-87353444D01*
X200003582Y-87343146D01*
X199946276Y-87243891D01*
X199914040Y-87188056D01*
X199882476Y-87153000D01*
X199790675Y-87051045D01*
X199790674Y-87051044D01*
X199786253Y-87046134D01*
X199671503Y-86962763D01*
X199637094Y-86937763D01*
X199637093Y-86937762D01*
X199631752Y-86933882D01*
X199625724Y-86931198D01*
X199625722Y-86931197D01*
X199463319Y-86858891D01*
X199463318Y-86858891D01*
X199457288Y-86856206D01*
X199341320Y-86831556D01*
X199276944Y-86817872D01*
X199276939Y-86817872D01*
X199270487Y-86816500D01*
X199079513Y-86816500D01*
X199073061Y-86817872D01*
X199073056Y-86817872D01*
X199008680Y-86831556D01*
X198892712Y-86856206D01*
X198886682Y-86858891D01*
X198886681Y-86858891D01*
X198724278Y-86931197D01*
X198724276Y-86931198D01*
X198718248Y-86933882D01*
X198712905Y-86937764D01*
X198656858Y-86978485D01*
X198589990Y-87002344D01*
X198520839Y-86986265D01*
X198508734Y-86978485D01*
X198487096Y-86962764D01*
X198487091Y-86962761D01*
X198481752Y-86958882D01*
X198475722Y-86956197D01*
X198313319Y-86883891D01*
X198313318Y-86883891D01*
X198307288Y-86881206D01*
X198202305Y-86858891D01*
X198126944Y-86842872D01*
X198126939Y-86842872D01*
X198120487Y-86841500D01*
X197929513Y-86841500D01*
X197923061Y-86842872D01*
X197923056Y-86842872D01*
X197847695Y-86858891D01*
X197742712Y-86881206D01*
X197736682Y-86883891D01*
X197736681Y-86883891D01*
X197574278Y-86956197D01*
X197574276Y-86956198D01*
X197568248Y-86958882D01*
X197562907Y-86962762D01*
X197562906Y-86962763D01*
X197523857Y-86991134D01*
X197413747Y-87071134D01*
X197409326Y-87076044D01*
X197409325Y-87076045D01*
X197303322Y-87193774D01*
X197285960Y-87213056D01*
X197246191Y-87281938D01*
X197222621Y-87322763D01*
X197190473Y-87378444D01*
X197131458Y-87560072D01*
X197130768Y-87566633D01*
X197130768Y-87566635D01*
X197121459Y-87655204D01*
X197111496Y-87750000D01*
X197112186Y-87756565D01*
X197128141Y-87908365D01*
X197131458Y-87939928D01*
X197190473Y-88121556D01*
X197224769Y-88180958D01*
X197241506Y-88249951D01*
X197218286Y-88317043D01*
X197162479Y-88360930D01*
X197091804Y-88367679D01*
X197080496Y-88364953D01*
X197075987Y-88363643D01*
X196923831Y-88319438D01*
X196917426Y-88318934D01*
X196917421Y-88318933D01*
X196888958Y-88316693D01*
X196888950Y-88316693D01*
X196886502Y-88316500D01*
X196453498Y-88316500D01*
X196451050Y-88316693D01*
X196451042Y-88316693D01*
X196422579Y-88318933D01*
X196422574Y-88318934D01*
X196416169Y-88319438D01*
X196344406Y-88340287D01*
X196264012Y-88363643D01*
X196264010Y-88363644D01*
X196256399Y-88365855D01*
X196249572Y-88369892D01*
X196249573Y-88369892D01*
X196120020Y-88446509D01*
X196120017Y-88446511D01*
X196113193Y-88450547D01*
X195995547Y-88568193D01*
X195991511Y-88575017D01*
X195991509Y-88575020D01*
X195952355Y-88641226D01*
X195910855Y-88711399D01*
X195908644Y-88719010D01*
X195908643Y-88719012D01*
X195894970Y-88766077D01*
X195864438Y-88871169D01*
X195863934Y-88877574D01*
X195863933Y-88877579D01*
X195862081Y-88901118D01*
X195861500Y-88908498D01*
X195861500Y-90691502D01*
X195861693Y-90693950D01*
X195861693Y-90693958D01*
X195863702Y-90719475D01*
X195864438Y-90728831D01*
X195893472Y-90828769D01*
X195903111Y-90861944D01*
X195910855Y-90888601D01*
X195985378Y-91014612D01*
X196002837Y-91083426D01*
X195980321Y-91150757D01*
X195943229Y-91185892D01*
X195885652Y-91221522D01*
X195819527Y-91287763D01*
X195799216Y-91308109D01*
X195736934Y-91342188D01*
X195666114Y-91337185D01*
X195621025Y-91308264D01*
X195538483Y-91225866D01*
X195533303Y-91220695D01*
X195505614Y-91203627D01*
X195388968Y-91131725D01*
X195388966Y-91131724D01*
X195382738Y-91127885D01*
X195261068Y-91087529D01*
X195221389Y-91074368D01*
X195221387Y-91074368D01*
X195214861Y-91072203D01*
X195208025Y-91071503D01*
X195208022Y-91071502D01*
X195164969Y-91067091D01*
X195110400Y-91061500D01*
X194309600Y-91061500D01*
X194306354Y-91061837D01*
X194306350Y-91061837D01*
X194210692Y-91071762D01*
X194210688Y-91071763D01*
X194203834Y-91072474D01*
X194197298Y-91074655D01*
X194197296Y-91074655D01*
X194132311Y-91096336D01*
X194036054Y-91128450D01*
X193885652Y-91221522D01*
X193880479Y-91226704D01*
X193857616Y-91249607D01*
X193765220Y-91342164D01*
X193761468Y-91345923D01*
X193760695Y-91346697D01*
X193759919Y-91345923D01*
X193707615Y-91383011D01*
X193636692Y-91386248D01*
X193628164Y-91383822D01*
X193622288Y-91381206D01*
X193596627Y-91375752D01*
X193441944Y-91342872D01*
X193441939Y-91342872D01*
X193435487Y-91341500D01*
X193244513Y-91341500D01*
X193238061Y-91342872D01*
X193238056Y-91342872D01*
X193151113Y-91361353D01*
X193057712Y-91381206D01*
X193051682Y-91383891D01*
X193051681Y-91383891D01*
X192889278Y-91456197D01*
X192889276Y-91456198D01*
X192883248Y-91458882D01*
X192877907Y-91462762D01*
X192877906Y-91462763D01*
X192840655Y-91489828D01*
X192728747Y-91571134D01*
X192724326Y-91576044D01*
X192724325Y-91576045D01*
X192645280Y-91663834D01*
X192600960Y-91713056D01*
X192505473Y-91878444D01*
X192446458Y-92060072D01*
X192445768Y-92066633D01*
X192445768Y-92066635D01*
X192432810Y-92189928D01*
X192426496Y-92250000D01*
X175647712Y-92250000D01*
X175639870Y-85490000D01*
X176386496Y-85490000D01*
X176387186Y-85496565D01*
X176402541Y-85642656D01*
X176406458Y-85679928D01*
X176465473Y-85861556D01*
X176468776Y-85867278D01*
X176468777Y-85867279D01*
X176478761Y-85884572D01*
X176560960Y-86026944D01*
X176565378Y-86031851D01*
X176565379Y-86031852D01*
X176669467Y-86147453D01*
X176688747Y-86168866D01*
X176763760Y-86223366D01*
X176837078Y-86276635D01*
X176843248Y-86281118D01*
X176849276Y-86283802D01*
X176849278Y-86283803D01*
X177011681Y-86356109D01*
X177017712Y-86358794D01*
X177111113Y-86378647D01*
X177198056Y-86397128D01*
X177198061Y-86397128D01*
X177204513Y-86398500D01*
X177395487Y-86398500D01*
X177401939Y-86397128D01*
X177401944Y-86397128D01*
X177488887Y-86378647D01*
X177582288Y-86358794D01*
X177588319Y-86356109D01*
X177750722Y-86283803D01*
X177750724Y-86283802D01*
X177756752Y-86281118D01*
X177806006Y-86245333D01*
X177872872Y-86221474D01*
X177942024Y-86237553D01*
X177990127Y-86289456D01*
X177990950Y-86288946D01*
X177994799Y-86295166D01*
X177994800Y-86295168D01*
X178025582Y-86344911D01*
X178084022Y-86439348D01*
X178209197Y-86564305D01*
X178215427Y-86568145D01*
X178215428Y-86568146D01*
X178352590Y-86652694D01*
X178359762Y-86657115D01*
X178397036Y-86669478D01*
X178521111Y-86710632D01*
X178521113Y-86710632D01*
X178527639Y-86712797D01*
X178534475Y-86713497D01*
X178534478Y-86713498D01*
X178577531Y-86717909D01*
X178632100Y-86723500D01*
X179807900Y-86723500D01*
X179811146Y-86723163D01*
X179811150Y-86723163D01*
X179906808Y-86713238D01*
X179906812Y-86713237D01*
X179913666Y-86712526D01*
X179920202Y-86710345D01*
X179920204Y-86710345D01*
X180067107Y-86661334D01*
X180081446Y-86656550D01*
X180231848Y-86563478D01*
X180356805Y-86438303D01*
X180366041Y-86423319D01*
X180445775Y-86293968D01*
X180445776Y-86293966D01*
X180449615Y-86287738D01*
X180479564Y-86197444D01*
X180503132Y-86126389D01*
X180503132Y-86126387D01*
X180505297Y-86119861D01*
X180509896Y-86074980D01*
X180514900Y-86026135D01*
X180516000Y-86015400D01*
X180516000Y-85064600D01*
X180511391Y-85020176D01*
X180505738Y-84965692D01*
X180505737Y-84965688D01*
X180505026Y-84958834D01*
X180496324Y-84932749D01*
X180451368Y-84798002D01*
X180449050Y-84791054D01*
X180355978Y-84640652D01*
X180230803Y-84515695D01*
X180224572Y-84511854D01*
X180086468Y-84426725D01*
X180086466Y-84426724D01*
X180080238Y-84422885D01*
X179919754Y-84369655D01*
X179918889Y-84369368D01*
X179918887Y-84369368D01*
X179912361Y-84367203D01*
X179905525Y-84366503D01*
X179905522Y-84366502D01*
X179862469Y-84362091D01*
X179807900Y-84356500D01*
X178632100Y-84356500D01*
X178628854Y-84356837D01*
X178628850Y-84356837D01*
X178533192Y-84366762D01*
X178533188Y-84366763D01*
X178526334Y-84367474D01*
X178519798Y-84369655D01*
X178519796Y-84369655D01*
X178431974Y-84398955D01*
X178358554Y-84423450D01*
X178208152Y-84516522D01*
X178083195Y-84641697D01*
X178037003Y-84716635D01*
X178029210Y-84729277D01*
X177976438Y-84776770D01*
X177906366Y-84788194D01*
X177847889Y-84765097D01*
X177762094Y-84702763D01*
X177762093Y-84702762D01*
X177756752Y-84698882D01*
X177750724Y-84696198D01*
X177750722Y-84696197D01*
X177588319Y-84623891D01*
X177588318Y-84623891D01*
X177582288Y-84621206D01*
X177473861Y-84598159D01*
X177401944Y-84582872D01*
X177401939Y-84582872D01*
X177395487Y-84581500D01*
X177204513Y-84581500D01*
X177198061Y-84582872D01*
X177198056Y-84582872D01*
X177126139Y-84598159D01*
X177017712Y-84621206D01*
X177011682Y-84623891D01*
X177011681Y-84623891D01*
X176849278Y-84696197D01*
X176849276Y-84696198D01*
X176843248Y-84698882D01*
X176688747Y-84811134D01*
X176684326Y-84816044D01*
X176684325Y-84816045D01*
X176587163Y-84923955D01*
X176560960Y-84953056D01*
X176465473Y-85118444D01*
X176406458Y-85300072D01*
X176405768Y-85306633D01*
X176405768Y-85306635D01*
X176396118Y-85398450D01*
X176386496Y-85490000D01*
X175639870Y-85490000D01*
X175636979Y-82998134D01*
X178791500Y-82998134D01*
X178798255Y-83060316D01*
X178849385Y-83196705D01*
X178936739Y-83313261D01*
X179053295Y-83400615D01*
X179189684Y-83451745D01*
X179251866Y-83458500D01*
X181048134Y-83458500D01*
X181110316Y-83451745D01*
X181246705Y-83400615D01*
X181363261Y-83313261D01*
X181450615Y-83196705D01*
X181455722Y-83183083D01*
X181494598Y-83079382D01*
X181537240Y-83022618D01*
X181603802Y-82997918D01*
X181673150Y-83013126D01*
X181707817Y-83041114D01*
X181736250Y-83073938D01*
X181908126Y-83216632D01*
X181968385Y-83251844D01*
X181994070Y-83266853D01*
X182042794Y-83318491D01*
X182056500Y-83375641D01*
X182056500Y-84230500D01*
X182036498Y-84298621D01*
X181982842Y-84345114D01*
X181930500Y-84356500D01*
X181507100Y-84356500D01*
X181503854Y-84356837D01*
X181503850Y-84356837D01*
X181408192Y-84366762D01*
X181408188Y-84366763D01*
X181401334Y-84367474D01*
X181394798Y-84369655D01*
X181394796Y-84369655D01*
X181306974Y-84398955D01*
X181233554Y-84423450D01*
X181083152Y-84516522D01*
X180958195Y-84641697D01*
X180954355Y-84647927D01*
X180954354Y-84647928D01*
X180872188Y-84781226D01*
X180865385Y-84792262D01*
X180849781Y-84839308D01*
X180819692Y-84930024D01*
X180809703Y-84960139D01*
X180799000Y-85064600D01*
X180799000Y-86015400D01*
X180799337Y-86018646D01*
X180799337Y-86018650D01*
X180808717Y-86109050D01*
X180809974Y-86121166D01*
X180812155Y-86127702D01*
X180812155Y-86127704D01*
X180852608Y-86248955D01*
X180865950Y-86288946D01*
X180959022Y-86439348D01*
X181084197Y-86564305D01*
X181090427Y-86568145D01*
X181090428Y-86568146D01*
X181227590Y-86652694D01*
X181234762Y-86657115D01*
X181272036Y-86669478D01*
X181396111Y-86710632D01*
X181396113Y-86710632D01*
X181402639Y-86712797D01*
X181409475Y-86713497D01*
X181409478Y-86713498D01*
X181452531Y-86717909D01*
X181507100Y-86723500D01*
X182682900Y-86723500D01*
X182686146Y-86723163D01*
X182686150Y-86723163D01*
X182781808Y-86713238D01*
X182781812Y-86713237D01*
X182788666Y-86712526D01*
X182795202Y-86710345D01*
X182795204Y-86710345D01*
X182942107Y-86661334D01*
X182956446Y-86656550D01*
X183106848Y-86563478D01*
X183231805Y-86438303D01*
X183241041Y-86423319D01*
X183320775Y-86293968D01*
X183320776Y-86293966D01*
X183324615Y-86287738D01*
X183354564Y-86197444D01*
X183378132Y-86126389D01*
X183378132Y-86126387D01*
X183380297Y-86119861D01*
X183384896Y-86074980D01*
X183389900Y-86026135D01*
X183391000Y-86015400D01*
X183391000Y-85064600D01*
X183386391Y-85020176D01*
X183380738Y-84965692D01*
X183380737Y-84965688D01*
X183380026Y-84958834D01*
X183371324Y-84932749D01*
X183329976Y-84808816D01*
X183323500Y-84768940D01*
X183323500Y-83380427D01*
X183343502Y-83312306D01*
X183384618Y-83272550D01*
X183387994Y-83270896D01*
X183569860Y-83141173D01*
X183651560Y-83059758D01*
X183713932Y-83025842D01*
X183784739Y-83031030D01*
X183841500Y-83073676D01*
X183866194Y-83140240D01*
X183866500Y-83149009D01*
X183866500Y-85562550D01*
X183846498Y-85630671D01*
X183835941Y-85643771D01*
X183836011Y-85643825D01*
X183831155Y-85650085D01*
X183825547Y-85655693D01*
X183821511Y-85662517D01*
X183821509Y-85662520D01*
X183763199Y-85761118D01*
X183740855Y-85798899D01*
X183738644Y-85806510D01*
X183738643Y-85806512D01*
X183728866Y-85840166D01*
X183694438Y-85958669D01*
X183693934Y-85965074D01*
X183693933Y-85965079D01*
X183691923Y-85990619D01*
X183691500Y-85995998D01*
X183691500Y-87153000D01*
X183671498Y-87221121D01*
X183617842Y-87267614D01*
X183565500Y-87279000D01*
X183333498Y-87279000D01*
X183331050Y-87279193D01*
X183331042Y-87279193D01*
X183302579Y-87281433D01*
X183302574Y-87281434D01*
X183296169Y-87281938D01*
X183196231Y-87310972D01*
X183144012Y-87326143D01*
X183144010Y-87326144D01*
X183136399Y-87328355D01*
X183129572Y-87332392D01*
X183129573Y-87332392D01*
X183000020Y-87409009D01*
X183000017Y-87409011D01*
X182993193Y-87413047D01*
X182875547Y-87530693D01*
X182871511Y-87537517D01*
X182871509Y-87537520D01*
X182847112Y-87578774D01*
X182790855Y-87673899D01*
X182744438Y-87833669D01*
X182741500Y-87870998D01*
X182741500Y-89179002D01*
X182741693Y-89181450D01*
X182741693Y-89181458D01*
X182743794Y-89208148D01*
X182744438Y-89216331D01*
X182747784Y-89227848D01*
X182747583Y-89298842D01*
X182709031Y-89358460D01*
X182644368Y-89387771D01*
X182574122Y-89377468D01*
X182552727Y-89364939D01*
X182412094Y-89262763D01*
X182412093Y-89262762D01*
X182406752Y-89258882D01*
X182400724Y-89256198D01*
X182400722Y-89256197D01*
X182238319Y-89183891D01*
X182238318Y-89183891D01*
X182232288Y-89181206D01*
X182131741Y-89159834D01*
X182051944Y-89142872D01*
X182051939Y-89142872D01*
X182045487Y-89141500D01*
X181854513Y-89141500D01*
X181848061Y-89142872D01*
X181848056Y-89142872D01*
X181768259Y-89159834D01*
X181667712Y-89181206D01*
X181661682Y-89183891D01*
X181661681Y-89183891D01*
X181499278Y-89256197D01*
X181499276Y-89256198D01*
X181493248Y-89258882D01*
X181338747Y-89371134D01*
X181334326Y-89376044D01*
X181334325Y-89376045D01*
X181216298Y-89507128D01*
X181210960Y-89513056D01*
X181166299Y-89590411D01*
X181137097Y-89640991D01*
X181115473Y-89678444D01*
X181056458Y-89860072D01*
X181036496Y-90050000D01*
X181037186Y-90056565D01*
X181055021Y-90226252D01*
X181056458Y-90239928D01*
X181115473Y-90421556D01*
X181118776Y-90427278D01*
X181118777Y-90427279D01*
X181139215Y-90462679D01*
X181210960Y-90586944D01*
X181215378Y-90591851D01*
X181215379Y-90591852D01*
X181313278Y-90700580D01*
X181338747Y-90728866D01*
X181423263Y-90790271D01*
X181457965Y-90815483D01*
X181493248Y-90841118D01*
X181499276Y-90843802D01*
X181499278Y-90843803D01*
X181661681Y-90916109D01*
X181667712Y-90918794D01*
X181742939Y-90934784D01*
X181848056Y-90957128D01*
X181848061Y-90957128D01*
X181854513Y-90958500D01*
X182045487Y-90958500D01*
X182051939Y-90957128D01*
X182051944Y-90957128D01*
X182157061Y-90934784D01*
X182232288Y-90918794D01*
X182238319Y-90916109D01*
X182400722Y-90843803D01*
X182400724Y-90843802D01*
X182406752Y-90841118D01*
X182442036Y-90815483D01*
X182476737Y-90790271D01*
X182561253Y-90728866D01*
X182586722Y-90700580D01*
X182684621Y-90591852D01*
X182684622Y-90591851D01*
X182689040Y-90586944D01*
X182760785Y-90462679D01*
X182781223Y-90427279D01*
X182781224Y-90427278D01*
X182784527Y-90421556D01*
X182843542Y-90239928D01*
X182844980Y-90226252D01*
X182862814Y-90056565D01*
X182863504Y-90050000D01*
X182843542Y-89860072D01*
X182821246Y-89791452D01*
X182819218Y-89720488D01*
X182855880Y-89659689D01*
X182919592Y-89628364D01*
X182990126Y-89636456D01*
X183005211Y-89644061D01*
X183136399Y-89721645D01*
X183144010Y-89723856D01*
X183144012Y-89723857D01*
X183193200Y-89738147D01*
X183296169Y-89768062D01*
X183302574Y-89768566D01*
X183302579Y-89768567D01*
X183331042Y-89770807D01*
X183331050Y-89770807D01*
X183333498Y-89771000D01*
X183766502Y-89771000D01*
X183768950Y-89770807D01*
X183768958Y-89770807D01*
X183797421Y-89768567D01*
X183797426Y-89768566D01*
X183803831Y-89768062D01*
X183906800Y-89738147D01*
X183955988Y-89723857D01*
X183955990Y-89723856D01*
X183963601Y-89721645D01*
X184000201Y-89700000D01*
X184099980Y-89640991D01*
X184099983Y-89640989D01*
X184106807Y-89636953D01*
X184224453Y-89519307D01*
X184228489Y-89512483D01*
X184228491Y-89512480D01*
X184305108Y-89382927D01*
X184309145Y-89376101D01*
X184311357Y-89368488D01*
X184311358Y-89368486D01*
X184345970Y-89249348D01*
X184384183Y-89189512D01*
X184448679Y-89159834D01*
X184466967Y-89158500D01*
X184533033Y-89158500D01*
X184601154Y-89178502D01*
X184647647Y-89232158D01*
X184654030Y-89249348D01*
X184688642Y-89368486D01*
X184688643Y-89368488D01*
X184690855Y-89376101D01*
X184694892Y-89382927D01*
X184773953Y-89516612D01*
X184791500Y-89580751D01*
X184791500Y-89622476D01*
X184771498Y-89690597D01*
X184759142Y-89706779D01*
X184685960Y-89788056D01*
X184590473Y-89953444D01*
X184531458Y-90135072D01*
X184530768Y-90141633D01*
X184530768Y-90141635D01*
X184521352Y-90231226D01*
X184511496Y-90325000D01*
X184512186Y-90331565D01*
X184528972Y-90491272D01*
X184531458Y-90514928D01*
X184590473Y-90696556D01*
X184593776Y-90702278D01*
X184593777Y-90702279D01*
X184602316Y-90717069D01*
X184685960Y-90861944D01*
X184690378Y-90866851D01*
X184690379Y-90866852D01*
X184809325Y-90998955D01*
X184813747Y-91003866D01*
X184891628Y-91060450D01*
X184951385Y-91103866D01*
X184968248Y-91116118D01*
X184974276Y-91118802D01*
X184974278Y-91118803D01*
X185124112Y-91185513D01*
X185142712Y-91193794D01*
X185201106Y-91206206D01*
X185323056Y-91232128D01*
X185323061Y-91232128D01*
X185329513Y-91233500D01*
X185520487Y-91233500D01*
X185526939Y-91232128D01*
X185526944Y-91232128D01*
X185648894Y-91206206D01*
X185707288Y-91193794D01*
X185725888Y-91185513D01*
X185875722Y-91118803D01*
X185875724Y-91118802D01*
X185881752Y-91116118D01*
X185898616Y-91103866D01*
X185958372Y-91060450D01*
X186036253Y-91003866D01*
X186040675Y-90998955D01*
X186159621Y-90866852D01*
X186159622Y-90866851D01*
X186164040Y-90861944D01*
X186247684Y-90717069D01*
X186256223Y-90702279D01*
X186256224Y-90702278D01*
X186259527Y-90696556D01*
X186307186Y-90549878D01*
X186347260Y-90491272D01*
X186412656Y-90463635D01*
X186482613Y-90475742D01*
X186534919Y-90523748D01*
X186552329Y-90575643D01*
X186556458Y-90614928D01*
X186615473Y-90796556D01*
X186618776Y-90802278D01*
X186618777Y-90802279D01*
X186682874Y-90913298D01*
X186710960Y-90961944D01*
X186715378Y-90966851D01*
X186715379Y-90966852D01*
X186810739Y-91072760D01*
X186838747Y-91103866D01*
X186898727Y-91147444D01*
X186976056Y-91203627D01*
X186993248Y-91216118D01*
X186999276Y-91218802D01*
X186999278Y-91218803D01*
X187144591Y-91283500D01*
X187167712Y-91293794D01*
X187261112Y-91313647D01*
X187348056Y-91332128D01*
X187348061Y-91332128D01*
X187354513Y-91333500D01*
X187545487Y-91333500D01*
X187551939Y-91332128D01*
X187551944Y-91332128D01*
X187638888Y-91313647D01*
X187732288Y-91293794D01*
X187755409Y-91283500D01*
X187900722Y-91218803D01*
X187900724Y-91218802D01*
X187906752Y-91216118D01*
X187923945Y-91203627D01*
X188001273Y-91147444D01*
X188061253Y-91103866D01*
X188089261Y-91072760D01*
X188184621Y-90966852D01*
X188184622Y-90966851D01*
X188189040Y-90961944D01*
X188217126Y-90913298D01*
X188281223Y-90802279D01*
X188281224Y-90802278D01*
X188284527Y-90796556D01*
X188343542Y-90614928D01*
X188345968Y-90591852D01*
X188362814Y-90431565D01*
X188363504Y-90425000D01*
X188361553Y-90406433D01*
X188344232Y-90241635D01*
X188344232Y-90241633D01*
X188343542Y-90235072D01*
X188284527Y-90053444D01*
X188189040Y-89888056D01*
X188115863Y-89806785D01*
X188085147Y-89742779D01*
X188083500Y-89722476D01*
X188083500Y-89488478D01*
X188101047Y-89424339D01*
X188155108Y-89332927D01*
X188159145Y-89326101D01*
X188161357Y-89318488D01*
X188161358Y-89318486D01*
X188195970Y-89199348D01*
X188234183Y-89139512D01*
X188298679Y-89109834D01*
X188316967Y-89108500D01*
X188383033Y-89108500D01*
X188451154Y-89128502D01*
X188497647Y-89182158D01*
X188504030Y-89199348D01*
X188538642Y-89318486D01*
X188538643Y-89318488D01*
X188540855Y-89326101D01*
X188544892Y-89332927D01*
X188621509Y-89462480D01*
X188621511Y-89462483D01*
X188625547Y-89469307D01*
X188743193Y-89586953D01*
X188750017Y-89590989D01*
X188750020Y-89590991D01*
X188803259Y-89622476D01*
X188886399Y-89671645D01*
X188894010Y-89673856D01*
X188894012Y-89673857D01*
X188931435Y-89684729D01*
X189046169Y-89718062D01*
X189052574Y-89718566D01*
X189052579Y-89718567D01*
X189081042Y-89720807D01*
X189081050Y-89720807D01*
X189083498Y-89721000D01*
X189516502Y-89721000D01*
X189518417Y-89720849D01*
X189587197Y-89738147D01*
X189635757Y-89789939D01*
X189648593Y-89859904D01*
X189636496Y-89975000D01*
X189637186Y-89981565D01*
X189647687Y-90081472D01*
X189656458Y-90164928D01*
X189715473Y-90346556D01*
X189810960Y-90511944D01*
X189815378Y-90516851D01*
X189815379Y-90516852D01*
X189931664Y-90646000D01*
X189938747Y-90653866D01*
X190034318Y-90723303D01*
X190081717Y-90757740D01*
X190093248Y-90766118D01*
X190099276Y-90768802D01*
X190099278Y-90768803D01*
X190261681Y-90841109D01*
X190267712Y-90843794D01*
X190353101Y-90861944D01*
X190448056Y-90882128D01*
X190448061Y-90882128D01*
X190454513Y-90883500D01*
X190645487Y-90883500D01*
X190651939Y-90882128D01*
X190651944Y-90882128D01*
X190746899Y-90861944D01*
X190832288Y-90843794D01*
X190838319Y-90841109D01*
X191000722Y-90768803D01*
X191000724Y-90768802D01*
X191006752Y-90766118D01*
X191018284Y-90757740D01*
X191065682Y-90723303D01*
X191161253Y-90653866D01*
X191168336Y-90646000D01*
X191284621Y-90516852D01*
X191284622Y-90516851D01*
X191289040Y-90511944D01*
X191384527Y-90346556D01*
X191443542Y-90164928D01*
X191452314Y-90081472D01*
X191462814Y-89981565D01*
X191463504Y-89975000D01*
X191450765Y-89853794D01*
X191444232Y-89791635D01*
X191444232Y-89791633D01*
X191443542Y-89785072D01*
X191384527Y-89603444D01*
X191377003Y-89590411D01*
X191339189Y-89524916D01*
X191289040Y-89438056D01*
X191249195Y-89393803D01*
X191165675Y-89301045D01*
X191165674Y-89301044D01*
X191161253Y-89296134D01*
X191046906Y-89213056D01*
X191012094Y-89187763D01*
X191012093Y-89187762D01*
X191006752Y-89183882D01*
X191000724Y-89181198D01*
X191000722Y-89181197D01*
X190838319Y-89108891D01*
X190838318Y-89108891D01*
X190832288Y-89106206D01*
X190738887Y-89086353D01*
X190651944Y-89067872D01*
X190651939Y-89067872D01*
X190645487Y-89066500D01*
X190454513Y-89066500D01*
X190448061Y-89067872D01*
X190448056Y-89067872D01*
X190293373Y-89100752D01*
X190267712Y-89106206D01*
X190267507Y-89105242D01*
X190202464Y-89107097D01*
X190141667Y-89070432D01*
X190110345Y-89006719D01*
X190108500Y-88985238D01*
X190108500Y-87820998D01*
X190107500Y-87808291D01*
X190106067Y-87790079D01*
X190106066Y-87790074D01*
X190105562Y-87783669D01*
X190067858Y-87653889D01*
X190061357Y-87631512D01*
X190061356Y-87631510D01*
X190059145Y-87623899D01*
X190032458Y-87578774D01*
X189978491Y-87487520D01*
X189978489Y-87487517D01*
X189974453Y-87480693D01*
X189856807Y-87363047D01*
X189849983Y-87359011D01*
X189849980Y-87359009D01*
X189720427Y-87282392D01*
X189720428Y-87282392D01*
X189713601Y-87278355D01*
X189705990Y-87276144D01*
X189705988Y-87276143D01*
X189646973Y-87258998D01*
X189553831Y-87231938D01*
X189547426Y-87231434D01*
X189547421Y-87231433D01*
X189518958Y-87229193D01*
X189518950Y-87229193D01*
X189516502Y-87229000D01*
X189284500Y-87229000D01*
X189216379Y-87208998D01*
X189169886Y-87155342D01*
X189158500Y-87103000D01*
X189158500Y-85945998D01*
X189158184Y-85941978D01*
X189156067Y-85915079D01*
X189156066Y-85915074D01*
X189155562Y-85908669D01*
X189111895Y-85758365D01*
X189111357Y-85756512D01*
X189111356Y-85756510D01*
X189109145Y-85748899D01*
X189072678Y-85687237D01*
X189028491Y-85612520D01*
X189028489Y-85612517D01*
X189024453Y-85605693D01*
X189018845Y-85600085D01*
X189013989Y-85593825D01*
X189015496Y-85592656D01*
X188986379Y-85539333D01*
X188983500Y-85512550D01*
X188983500Y-84759287D01*
X189003502Y-84691166D01*
X189057158Y-84644673D01*
X189127432Y-84634569D01*
X189192012Y-84664063D01*
X189218619Y-84696287D01*
X189270960Y-84786944D01*
X189275378Y-84791851D01*
X189275379Y-84791852D01*
X189391664Y-84921000D01*
X189398747Y-84928866D01*
X189553248Y-85041118D01*
X189559276Y-85043802D01*
X189559278Y-85043803D01*
X189721681Y-85116109D01*
X189727712Y-85118794D01*
X189821112Y-85138647D01*
X189908056Y-85157128D01*
X189908061Y-85157128D01*
X189914513Y-85158500D01*
X190105487Y-85158500D01*
X190111939Y-85157128D01*
X190111944Y-85157128D01*
X190247547Y-85128304D01*
X190318338Y-85133706D01*
X190374970Y-85176523D01*
X190393577Y-85212613D01*
X190435473Y-85341556D01*
X190530960Y-85506944D01*
X190535378Y-85511851D01*
X190535379Y-85511852D01*
X190589862Y-85572361D01*
X190658747Y-85648866D01*
X190692467Y-85673365D01*
X190774948Y-85733291D01*
X190813248Y-85761118D01*
X190819276Y-85763802D01*
X190819278Y-85763803D01*
X190981681Y-85836109D01*
X190987712Y-85838794D01*
X191065230Y-85855271D01*
X191168056Y-85877128D01*
X191168061Y-85877128D01*
X191174513Y-85878500D01*
X191365487Y-85878500D01*
X191371939Y-85877128D01*
X191371944Y-85877128D01*
X191474770Y-85855271D01*
X191552288Y-85838794D01*
X191586165Y-85823711D01*
X191656532Y-85814277D01*
X191720829Y-85844383D01*
X191744558Y-85872515D01*
X191756522Y-85891848D01*
X191881697Y-86016805D01*
X191885916Y-86019406D01*
X191926417Y-86076530D01*
X191929649Y-86147453D01*
X191894024Y-86208865D01*
X191886470Y-86215422D01*
X191880652Y-86219022D01*
X191755695Y-86344197D01*
X191751855Y-86350427D01*
X191751854Y-86350428D01*
X191684313Y-86460000D01*
X191662885Y-86494762D01*
X191660581Y-86501709D01*
X191610502Y-86652694D01*
X191607203Y-86662639D01*
X191606503Y-86669475D01*
X191606502Y-86669478D01*
X191605130Y-86682872D01*
X191596500Y-86767100D01*
X191596500Y-87542900D01*
X191596837Y-87546146D01*
X191596837Y-87546150D01*
X191605534Y-87629964D01*
X191607474Y-87648666D01*
X191609655Y-87655202D01*
X191609655Y-87655204D01*
X191639523Y-87744729D01*
X191663450Y-87816446D01*
X191756522Y-87966848D01*
X191761704Y-87972021D01*
X191823451Y-88033661D01*
X191881697Y-88091805D01*
X191887925Y-88095644D01*
X191887930Y-88095648D01*
X191929148Y-88121055D01*
X191976641Y-88173827D01*
X191988063Y-88243899D01*
X191982864Y-88267250D01*
X191936458Y-88410072D01*
X191935768Y-88416633D01*
X191935768Y-88416635D01*
X191919839Y-88568193D01*
X191916496Y-88600000D01*
X191917186Y-88606565D01*
X191929005Y-88719012D01*
X191936458Y-88789928D01*
X191995473Y-88971556D01*
X191998776Y-88977278D01*
X191998777Y-88977279D01*
X192012593Y-89001209D01*
X192090960Y-89136944D01*
X192095378Y-89141851D01*
X192095379Y-89141852D01*
X192138292Y-89189512D01*
X192218747Y-89278866D01*
X192273279Y-89318486D01*
X192342101Y-89368488D01*
X192373248Y-89391118D01*
X192379276Y-89393802D01*
X192379278Y-89393803D01*
X192514504Y-89454009D01*
X192547712Y-89468794D01*
X192640317Y-89488478D01*
X192728056Y-89507128D01*
X192728061Y-89507128D01*
X192734513Y-89508500D01*
X192925487Y-89508500D01*
X192931939Y-89507128D01*
X192931944Y-89507128D01*
X193019683Y-89488478D01*
X193112288Y-89468794D01*
X193147398Y-89453162D01*
X193217765Y-89443728D01*
X193282062Y-89473834D01*
X193319876Y-89533923D01*
X193323957Y-89581439D01*
X193323014Y-89590411D01*
X193311496Y-89700000D01*
X193312186Y-89706565D01*
X193327661Y-89853798D01*
X193331458Y-89889928D01*
X193390473Y-90071556D01*
X193485960Y-90236944D01*
X193490378Y-90241851D01*
X193490379Y-90241852D01*
X193609325Y-90373955D01*
X193613747Y-90378866D01*
X193641883Y-90399308D01*
X193742930Y-90472723D01*
X193768248Y-90491118D01*
X193774276Y-90493802D01*
X193774278Y-90493803D01*
X193936681Y-90566109D01*
X193942712Y-90568794D01*
X194028101Y-90586944D01*
X194123056Y-90607128D01*
X194123061Y-90607128D01*
X194129513Y-90608500D01*
X194320487Y-90608500D01*
X194326939Y-90607128D01*
X194326944Y-90607128D01*
X194421899Y-90586944D01*
X194507288Y-90568794D01*
X194513319Y-90566109D01*
X194675722Y-90493803D01*
X194675724Y-90493802D01*
X194681752Y-90491118D01*
X194707071Y-90472723D01*
X194808117Y-90399308D01*
X194836253Y-90378866D01*
X194840675Y-90373955D01*
X194959621Y-90241852D01*
X194959622Y-90241851D01*
X194964040Y-90236944D01*
X195059527Y-90071556D01*
X195118542Y-89889928D01*
X195122340Y-89853798D01*
X195137814Y-89706565D01*
X195138504Y-89700000D01*
X195126986Y-89590411D01*
X195119232Y-89516635D01*
X195119232Y-89516633D01*
X195118542Y-89510072D01*
X195059527Y-89328444D01*
X195048876Y-89309995D01*
X195003936Y-89232158D01*
X194964040Y-89163056D01*
X194954066Y-89151978D01*
X194840675Y-89026045D01*
X194840674Y-89026044D01*
X194836253Y-89021134D01*
X194681752Y-88908882D01*
X194675724Y-88906198D01*
X194675722Y-88906197D01*
X194513319Y-88833891D01*
X194513318Y-88833891D01*
X194507288Y-88831206D01*
X194413887Y-88811353D01*
X194326944Y-88792872D01*
X194326939Y-88792872D01*
X194320487Y-88791500D01*
X194129513Y-88791500D01*
X194123061Y-88792872D01*
X194123056Y-88792872D01*
X194036113Y-88811353D01*
X193942712Y-88831206D01*
X193936682Y-88833891D01*
X193936681Y-88833891D01*
X193907602Y-88846838D01*
X193837235Y-88856272D01*
X193772938Y-88826166D01*
X193735124Y-88766077D01*
X193731043Y-88718561D01*
X193742814Y-88606565D01*
X193743504Y-88600000D01*
X193740161Y-88568193D01*
X193724232Y-88416635D01*
X193724232Y-88416633D01*
X193723542Y-88410072D01*
X193677118Y-88267195D01*
X193675090Y-88196228D01*
X193711753Y-88135430D01*
X193730647Y-88121115D01*
X193730744Y-88121055D01*
X193779348Y-88090978D01*
X193904305Y-87965803D01*
X193928449Y-87926635D01*
X193993275Y-87821468D01*
X193993276Y-87821466D01*
X193997115Y-87815238D01*
X194052797Y-87647361D01*
X194053751Y-87638056D01*
X194061068Y-87566635D01*
X194063500Y-87542900D01*
X194063500Y-86767100D01*
X194063163Y-86763850D01*
X194053238Y-86668192D01*
X194053237Y-86668188D01*
X194052526Y-86661334D01*
X194049838Y-86653275D01*
X193998868Y-86500502D01*
X193996550Y-86493554D01*
X193903478Y-86343152D01*
X193778303Y-86218195D01*
X193774084Y-86215594D01*
X193733583Y-86158470D01*
X193730351Y-86087547D01*
X193765976Y-86026135D01*
X193773530Y-86019578D01*
X193779348Y-86015978D01*
X193904305Y-85890803D01*
X193911889Y-85878500D01*
X193993275Y-85746468D01*
X193993276Y-85746466D01*
X193997115Y-85740238D01*
X194028675Y-85645087D01*
X194050632Y-85578889D01*
X194050632Y-85578887D01*
X194052797Y-85572361D01*
X194054935Y-85551500D01*
X194058997Y-85511852D01*
X194063500Y-85467900D01*
X194063500Y-84692100D01*
X194058579Y-84644673D01*
X194053238Y-84593192D01*
X194053237Y-84593188D01*
X194052526Y-84586334D01*
X194027678Y-84511854D01*
X193998868Y-84425502D01*
X193996550Y-84418554D01*
X193903478Y-84268152D01*
X193778303Y-84143195D01*
X193772072Y-84139354D01*
X193633968Y-84054225D01*
X193633966Y-84054224D01*
X193627738Y-84050385D01*
X193569915Y-84031206D01*
X193565239Y-84029655D01*
X193506879Y-83989224D01*
X193479643Y-83923660D01*
X193492177Y-83853778D01*
X193496444Y-83845941D01*
X193579145Y-83706101D01*
X193625562Y-83546331D01*
X193626102Y-83539479D01*
X193628307Y-83511458D01*
X193628307Y-83511450D01*
X193628500Y-83509002D01*
X193628500Y-82200998D01*
X193628307Y-82198542D01*
X193626067Y-82170079D01*
X193626066Y-82170074D01*
X193625562Y-82163669D01*
X193621014Y-82148015D01*
X193621218Y-82077018D01*
X193659774Y-82017403D01*
X193724439Y-81988095D01*
X193794684Y-81998401D01*
X193831030Y-82023692D01*
X193856512Y-82049130D01*
X193856517Y-82049134D01*
X193861697Y-82054305D01*
X193867927Y-82058145D01*
X193867928Y-82058146D01*
X194005090Y-82142694D01*
X194012262Y-82147115D01*
X194092005Y-82173564D01*
X194173611Y-82200632D01*
X194173613Y-82200632D01*
X194180139Y-82202797D01*
X194186975Y-82203497D01*
X194186978Y-82203498D01*
X194230031Y-82207909D01*
X194284600Y-82213500D01*
X195060400Y-82213500D01*
X195063646Y-82213163D01*
X195063650Y-82213163D01*
X195159308Y-82203238D01*
X195159312Y-82203237D01*
X195166166Y-82202526D01*
X195172702Y-82200345D01*
X195172704Y-82200345D01*
X195313282Y-82153444D01*
X195333946Y-82146550D01*
X195484348Y-82053478D01*
X195609305Y-81928303D01*
X195611906Y-81924084D01*
X195669030Y-81883583D01*
X195739953Y-81880351D01*
X195801365Y-81915976D01*
X195807922Y-81923530D01*
X195811522Y-81929348D01*
X195883434Y-82001134D01*
X195886545Y-82004240D01*
X195920624Y-82066522D01*
X195915621Y-82137342D01*
X195911261Y-82146604D01*
X195911461Y-82146693D01*
X195908777Y-82152721D01*
X195905473Y-82158444D01*
X195846458Y-82340072D01*
X195845768Y-82346633D01*
X195845768Y-82346635D01*
X195841413Y-82388069D01*
X195826496Y-82530000D01*
X195827186Y-82536565D01*
X195845243Y-82708365D01*
X195846458Y-82719928D01*
X195905473Y-82901556D01*
X196000960Y-83066944D01*
X196005378Y-83071851D01*
X196005379Y-83071852D01*
X196117797Y-83196705D01*
X196128747Y-83208866D01*
X196134089Y-83212747D01*
X196134091Y-83212749D01*
X196187901Y-83251844D01*
X196231255Y-83308066D01*
X196237330Y-83378803D01*
X196204199Y-83441594D01*
X196177986Y-83462228D01*
X196113193Y-83500547D01*
X195995547Y-83618193D01*
X195991511Y-83625017D01*
X195991509Y-83625020D01*
X195943558Y-83706101D01*
X195910855Y-83761399D01*
X195864438Y-83921169D01*
X195863934Y-83927574D01*
X195863933Y-83927579D01*
X195863165Y-83937337D01*
X195861500Y-83958498D01*
X195861500Y-85741502D01*
X195861693Y-85743950D01*
X195861693Y-85743958D01*
X195863838Y-85771206D01*
X195864438Y-85778831D01*
X195886646Y-85855271D01*
X195907953Y-85928611D01*
X195910855Y-85938601D01*
X195914892Y-85945427D01*
X195991509Y-86074980D01*
X195991511Y-86074983D01*
X195995547Y-86081807D01*
X196113193Y-86199453D01*
X196120016Y-86203488D01*
X196120020Y-86203491D01*
X196203612Y-86252927D01*
X196256399Y-86284145D01*
X196264010Y-86286356D01*
X196264012Y-86286357D01*
X196294368Y-86295176D01*
X196416169Y-86330562D01*
X196422574Y-86331066D01*
X196422579Y-86331067D01*
X196451042Y-86333307D01*
X196451050Y-86333307D01*
X196453498Y-86333500D01*
X196886502Y-86333500D01*
X196888950Y-86333307D01*
X196888958Y-86333307D01*
X196917421Y-86331067D01*
X196917426Y-86331066D01*
X196923831Y-86330562D01*
X197045632Y-86295176D01*
X197075988Y-86286357D01*
X197075990Y-86286356D01*
X197083601Y-86284145D01*
X197226807Y-86199453D01*
X197229747Y-86196513D01*
X197294271Y-86171179D01*
X197363894Y-86185080D01*
X197382640Y-86197129D01*
X197390323Y-86203089D01*
X197519779Y-86279648D01*
X197534210Y-86285893D01*
X197668605Y-86324939D01*
X197682706Y-86324899D01*
X197686000Y-86317630D01*
X197686000Y-86311878D01*
X198194000Y-86311878D01*
X198197973Y-86325409D01*
X198205871Y-86326544D01*
X198345790Y-86285893D01*
X198360221Y-86279648D01*
X198489676Y-86203090D01*
X198497364Y-86197126D01*
X198563449Y-86171179D01*
X198633072Y-86185080D01*
X198649158Y-86195418D01*
X198653193Y-86199453D01*
X198660021Y-86203491D01*
X198660024Y-86203493D01*
X198717616Y-86237553D01*
X198796399Y-86284145D01*
X198804010Y-86286356D01*
X198804012Y-86286357D01*
X198834368Y-86295176D01*
X198956169Y-86330562D01*
X198962574Y-86331066D01*
X198962579Y-86331067D01*
X198991042Y-86333307D01*
X198991050Y-86333307D01*
X198993498Y-86333500D01*
X199426502Y-86333500D01*
X199428950Y-86333307D01*
X199428958Y-86333307D01*
X199457421Y-86331067D01*
X199457426Y-86331066D01*
X199463831Y-86330562D01*
X199585632Y-86295176D01*
X199615988Y-86286357D01*
X199615990Y-86286356D01*
X199623601Y-86284145D01*
X199766807Y-86199453D01*
X199769489Y-86196771D01*
X199833861Y-86171498D01*
X199903484Y-86185400D01*
X199919312Y-86195572D01*
X199923193Y-86199453D01*
X200066399Y-86284145D01*
X200074010Y-86286356D01*
X200074012Y-86286357D01*
X200104368Y-86295176D01*
X200226169Y-86330562D01*
X200232574Y-86331066D01*
X200232579Y-86331067D01*
X200261042Y-86333307D01*
X200261050Y-86333307D01*
X200263498Y-86333500D01*
X200696502Y-86333500D01*
X200698950Y-86333307D01*
X200698958Y-86333307D01*
X200727421Y-86331067D01*
X200727426Y-86331066D01*
X200733831Y-86330562D01*
X200855632Y-86295176D01*
X200885988Y-86286357D01*
X200885990Y-86286356D01*
X200893601Y-86284145D01*
X200946388Y-86252927D01*
X201029980Y-86203491D01*
X201029984Y-86203488D01*
X201036807Y-86199453D01*
X201154453Y-86081807D01*
X201158489Y-86074983D01*
X201158491Y-86074980D01*
X201235108Y-85945427D01*
X201239145Y-85938601D01*
X201242048Y-85928611D01*
X201263354Y-85855271D01*
X201285562Y-85778831D01*
X201286163Y-85771206D01*
X201288307Y-85743958D01*
X201288307Y-85743950D01*
X201288500Y-85741502D01*
X201288500Y-83958498D01*
X201286835Y-83937337D01*
X201286067Y-83927579D01*
X201286066Y-83927574D01*
X201285562Y-83921169D01*
X201239145Y-83761399D01*
X201154453Y-83618193D01*
X201156613Y-83616915D01*
X201135186Y-83562342D01*
X201149087Y-83492719D01*
X201167056Y-83466891D01*
X201234621Y-83391852D01*
X201234622Y-83391851D01*
X201239040Y-83386944D01*
X201278561Y-83318491D01*
X201331223Y-83227279D01*
X201331224Y-83227278D01*
X201334527Y-83221556D01*
X201393542Y-83039928D01*
X201395023Y-83025842D01*
X201412814Y-82856565D01*
X201413504Y-82850000D01*
X201409294Y-82809943D01*
X201394232Y-82666635D01*
X201394232Y-82666633D01*
X201393542Y-82660072D01*
X201334527Y-82478444D01*
X201239040Y-82313056D01*
X201229735Y-82302721D01*
X201115675Y-82176045D01*
X201115674Y-82176044D01*
X201111253Y-82171134D01*
X200956752Y-82058882D01*
X200950724Y-82056198D01*
X200950722Y-82056197D01*
X200788319Y-81983891D01*
X200788318Y-81983891D01*
X200782288Y-81981206D01*
X200688887Y-81961353D01*
X200601944Y-81942872D01*
X200601939Y-81942872D01*
X200595487Y-81941500D01*
X200404513Y-81941500D01*
X200398061Y-81942872D01*
X200398056Y-81942872D01*
X200222313Y-81980228D01*
X200151522Y-81974826D01*
X200094890Y-81932009D01*
X200070396Y-81865372D01*
X200076283Y-81818044D01*
X200077633Y-81813891D01*
X200093542Y-81764928D01*
X200099452Y-81708703D01*
X200112814Y-81581565D01*
X200113504Y-81575000D01*
X200102815Y-81473303D01*
X200094232Y-81391635D01*
X200094232Y-81391633D01*
X200093542Y-81385072D01*
X200034527Y-81203444D01*
X200010247Y-81161389D01*
X199963623Y-81080635D01*
X199939040Y-81038056D01*
X199811253Y-80896134D01*
X199656752Y-80783882D01*
X199650724Y-80781198D01*
X199650722Y-80781197D01*
X199488319Y-80708891D01*
X199488318Y-80708891D01*
X199482288Y-80706206D01*
X199366362Y-80681565D01*
X199301944Y-80667872D01*
X199301939Y-80667872D01*
X199295487Y-80666500D01*
X199104513Y-80666500D01*
X199098061Y-80667872D01*
X199098056Y-80667872D01*
X199033638Y-80681565D01*
X198917712Y-80706206D01*
X198911682Y-80708891D01*
X198911681Y-80708891D01*
X198749278Y-80781197D01*
X198749276Y-80781198D01*
X198743248Y-80783882D01*
X198588747Y-80896134D01*
X198460960Y-81038056D01*
X198436377Y-81080635D01*
X198389754Y-81161389D01*
X198365473Y-81203444D01*
X198306458Y-81385072D01*
X198305768Y-81391633D01*
X198305768Y-81391635D01*
X198297185Y-81473303D01*
X198286496Y-81575000D01*
X198287186Y-81581565D01*
X198300549Y-81708703D01*
X198306458Y-81764928D01*
X198365473Y-81946556D01*
X198368776Y-81952278D01*
X198368777Y-81952279D01*
X198419788Y-82040632D01*
X198460960Y-82111944D01*
X198465378Y-82116851D01*
X198465379Y-82116852D01*
X198544136Y-82204320D01*
X198574853Y-82268328D01*
X198576500Y-82288631D01*
X198576500Y-83327357D01*
X198556498Y-83395478D01*
X198502842Y-83441971D01*
X198432568Y-83452075D01*
X198386361Y-83435811D01*
X198360221Y-83420352D01*
X198345790Y-83414107D01*
X198211395Y-83375061D01*
X198197294Y-83375101D01*
X198194000Y-83382370D01*
X198194000Y-86311878D01*
X197686000Y-86311878D01*
X197686000Y-83388122D01*
X197682027Y-83374591D01*
X197674129Y-83373456D01*
X197534210Y-83414107D01*
X197519779Y-83420352D01*
X197390324Y-83496910D01*
X197382636Y-83502874D01*
X197316551Y-83528821D01*
X197246928Y-83514920D01*
X197230836Y-83504576D01*
X197226807Y-83500547D01*
X197223512Y-83498598D01*
X197183020Y-83442514D01*
X197179178Y-83371622D01*
X197214274Y-83309906D01*
X197227753Y-83298594D01*
X197304736Y-83242663D01*
X197345909Y-83212749D01*
X197345911Y-83212747D01*
X197351253Y-83208866D01*
X197362203Y-83196705D01*
X197474621Y-83071852D01*
X197474622Y-83071851D01*
X197479040Y-83066944D01*
X197574527Y-82901556D01*
X197633542Y-82719928D01*
X197634758Y-82708365D01*
X197652814Y-82536565D01*
X197653504Y-82530000D01*
X197638587Y-82388069D01*
X197634232Y-82346635D01*
X197634232Y-82346633D01*
X197633542Y-82340072D01*
X197600177Y-82237386D01*
X197576568Y-82164725D01*
X197576567Y-82164724D01*
X197574527Y-82158444D01*
X197572107Y-82154252D01*
X197562757Y-82084536D01*
X197592862Y-82020238D01*
X197598126Y-82014632D01*
X197608841Y-82003899D01*
X197684305Y-81928303D01*
X197718800Y-81872342D01*
X197773275Y-81783968D01*
X197773276Y-81783966D01*
X197777115Y-81777738D01*
X197819280Y-81650615D01*
X197830632Y-81616389D01*
X197830632Y-81616387D01*
X197832797Y-81609861D01*
X197833569Y-81602332D01*
X197843172Y-81508598D01*
X197843500Y-81505400D01*
X197843500Y-80575000D01*
X202811496Y-80575000D01*
X202812186Y-80581565D01*
X202829706Y-80748255D01*
X202831458Y-80764928D01*
X202890473Y-80946556D01*
X202893776Y-80952278D01*
X202893777Y-80952279D01*
X202919082Y-80996109D01*
X202985960Y-81111944D01*
X202990378Y-81116851D01*
X202990379Y-81116852D01*
X203078362Y-81214567D01*
X203113747Y-81253866D01*
X203268248Y-81366118D01*
X203274276Y-81368802D01*
X203274278Y-81368803D01*
X203436681Y-81441109D01*
X203442712Y-81443794D01*
X203521731Y-81460590D01*
X203623056Y-81482128D01*
X203623061Y-81482128D01*
X203629513Y-81483500D01*
X203820487Y-81483500D01*
X203826939Y-81482128D01*
X203826944Y-81482128D01*
X204000829Y-81445167D01*
X204000830Y-81445167D01*
X204007288Y-81443794D01*
X204012688Y-81441390D01*
X204083400Y-81439371D01*
X204144197Y-81476034D01*
X204170891Y-81521355D01*
X204203450Y-81618946D01*
X204296522Y-81769348D01*
X204301704Y-81774521D01*
X204337079Y-81809834D01*
X204421697Y-81894305D01*
X204427927Y-81898145D01*
X204427928Y-81898146D01*
X204562676Y-81981206D01*
X204572262Y-81987115D01*
X204623893Y-82004240D01*
X204733611Y-82040632D01*
X204733613Y-82040632D01*
X204740139Y-82042797D01*
X204746975Y-82043497D01*
X204746978Y-82043498D01*
X204790031Y-82047909D01*
X204844600Y-82053500D01*
X206995400Y-82053500D01*
X206998646Y-82053163D01*
X206998650Y-82053163D01*
X207096386Y-82043022D01*
X207166208Y-82055887D01*
X207217990Y-82104458D01*
X207231341Y-82138817D01*
X207231458Y-82139928D01*
X207233500Y-82146212D01*
X207233500Y-82146213D01*
X207252029Y-82203238D01*
X207290473Y-82321556D01*
X207293776Y-82327278D01*
X207293777Y-82327279D01*
X207298276Y-82335072D01*
X207385960Y-82486944D01*
X207390378Y-82491851D01*
X207390379Y-82491852D01*
X207493561Y-82606447D01*
X207513747Y-82628866D01*
X207662543Y-82736973D01*
X207705897Y-82793195D01*
X207711972Y-82863932D01*
X207710284Y-82871113D01*
X207707162Y-82878650D01*
X207706085Y-82886834D01*
X207706084Y-82886836D01*
X207693912Y-82979292D01*
X207691500Y-82997615D01*
X207691501Y-84352384D01*
X207692039Y-84356469D01*
X207692039Y-84356473D01*
X207706084Y-84463163D01*
X207707162Y-84471350D01*
X207730811Y-84528444D01*
X207761625Y-84602835D01*
X207768476Y-84619376D01*
X207773502Y-84625926D01*
X207860985Y-84739934D01*
X207866013Y-84746487D01*
X207872563Y-84751513D01*
X207872566Y-84751516D01*
X207925133Y-84791852D01*
X207993125Y-84844024D01*
X208141150Y-84905338D01*
X208149338Y-84906416D01*
X208256021Y-84920461D01*
X208260115Y-84921000D01*
X208399983Y-84921000D01*
X208539884Y-84920999D01*
X208543969Y-84920461D01*
X208543973Y-84920461D01*
X208650663Y-84906416D01*
X208650665Y-84906416D01*
X208658850Y-84905338D01*
X208676781Y-84897911D01*
X208747370Y-84890321D01*
X208773218Y-84897910D01*
X208776661Y-84899337D01*
X208783520Y-84902178D01*
X208783523Y-84902179D01*
X208791150Y-84905338D01*
X208799338Y-84906416D01*
X208906021Y-84920461D01*
X208910115Y-84921000D01*
X209049983Y-84921000D01*
X209189884Y-84920999D01*
X209227492Y-84916048D01*
X209297640Y-84926988D01*
X209350738Y-84974116D01*
X209369928Y-85042470D01*
X209369247Y-85054140D01*
X209362283Y-85120400D01*
X209362973Y-85126965D01*
X209380241Y-85291258D01*
X209382245Y-85310328D01*
X209441260Y-85491956D01*
X209536747Y-85657344D01*
X209541165Y-85662251D01*
X209541166Y-85662252D01*
X209651696Y-85785008D01*
X209664534Y-85799266D01*
X209763630Y-85871264D01*
X209799078Y-85897018D01*
X209819035Y-85911518D01*
X209825063Y-85914202D01*
X209825065Y-85914203D01*
X209947336Y-85968641D01*
X209993499Y-85989194D01*
X210086899Y-86009047D01*
X210173843Y-86027528D01*
X210173848Y-86027528D01*
X210180300Y-86028900D01*
X210371274Y-86028900D01*
X210377726Y-86027528D01*
X210377731Y-86027528D01*
X210558075Y-85989194D01*
X210558378Y-85990619D01*
X210621757Y-85988805D01*
X210682557Y-86025465D01*
X210698848Y-86047665D01*
X210735960Y-86111944D01*
X210740378Y-86116851D01*
X210740379Y-86116852D01*
X210790709Y-86172749D01*
X210863747Y-86253866D01*
X210920594Y-86295168D01*
X210996653Y-86350428D01*
X211018248Y-86366118D01*
X211024276Y-86368802D01*
X211024278Y-86368803D01*
X211180379Y-86438303D01*
X211192712Y-86443794D01*
X211268955Y-86460000D01*
X211373056Y-86482128D01*
X211373061Y-86482128D01*
X211379513Y-86483500D01*
X211570487Y-86483500D01*
X211576939Y-86482128D01*
X211576944Y-86482128D01*
X211681045Y-86460000D01*
X211757288Y-86443794D01*
X211769621Y-86438303D01*
X211925722Y-86368803D01*
X211925724Y-86368802D01*
X211931752Y-86366118D01*
X211953348Y-86350428D01*
X212029406Y-86295168D01*
X212086253Y-86253866D01*
X212159291Y-86172749D01*
X212209621Y-86116852D01*
X212209622Y-86116851D01*
X212214040Y-86111944D01*
X212284910Y-85989194D01*
X212306223Y-85952279D01*
X212306224Y-85952278D01*
X212309527Y-85946556D01*
X212368542Y-85764928D01*
X212369351Y-85757237D01*
X212387814Y-85581565D01*
X212388504Y-85575000D01*
X212377584Y-85471098D01*
X212369232Y-85391635D01*
X212369232Y-85391633D01*
X212368542Y-85385072D01*
X212309527Y-85203444D01*
X212289942Y-85169521D01*
X212255577Y-85109999D01*
X212238839Y-85041003D01*
X212262060Y-84973911D01*
X212317867Y-84930024D01*
X212364695Y-84920999D01*
X212439884Y-84920999D01*
X212443969Y-84920461D01*
X212443973Y-84920461D01*
X212550663Y-84906416D01*
X212550665Y-84906416D01*
X212558850Y-84905338D01*
X212576781Y-84897911D01*
X212647370Y-84890321D01*
X212673218Y-84897910D01*
X212676661Y-84899337D01*
X212683520Y-84902178D01*
X212683523Y-84902179D01*
X212691150Y-84905338D01*
X212699338Y-84906416D01*
X212806021Y-84920461D01*
X212810115Y-84921000D01*
X212949983Y-84921000D01*
X213089884Y-84920999D01*
X213093969Y-84920461D01*
X213093973Y-84920461D01*
X213200663Y-84906416D01*
X213200665Y-84906416D01*
X213208850Y-84905338D01*
X213221737Y-84900000D01*
X217836496Y-84900000D01*
X217837186Y-84906565D01*
X217852697Y-85054140D01*
X217856458Y-85089928D01*
X217915473Y-85271556D01*
X218010960Y-85436944D01*
X218015378Y-85441851D01*
X218015379Y-85441852D01*
X218134325Y-85573955D01*
X218138747Y-85578866D01*
X218189666Y-85615861D01*
X218267985Y-85672763D01*
X218293248Y-85691118D01*
X218299276Y-85693802D01*
X218299278Y-85693803D01*
X218461681Y-85766109D01*
X218467712Y-85768794D01*
X218548871Y-85786045D01*
X218648056Y-85807128D01*
X218648061Y-85807128D01*
X218654513Y-85808500D01*
X218845487Y-85808500D01*
X218851939Y-85807128D01*
X218851944Y-85807128D01*
X218951129Y-85786045D01*
X219032288Y-85768794D01*
X219038319Y-85766109D01*
X219200722Y-85693803D01*
X219200724Y-85693802D01*
X219206752Y-85691118D01*
X219232016Y-85672763D01*
X219310334Y-85615861D01*
X219361253Y-85578866D01*
X219365675Y-85573955D01*
X219484621Y-85441852D01*
X219484622Y-85441851D01*
X219489040Y-85436944D01*
X219584527Y-85271556D01*
X219643542Y-85089928D01*
X219647304Y-85054140D01*
X219662814Y-84906565D01*
X219663504Y-84900000D01*
X219659300Y-84860000D01*
X223236681Y-84860000D01*
X223255928Y-85104557D01*
X223257082Y-85109364D01*
X223257083Y-85109370D01*
X223281177Y-85209729D01*
X223313195Y-85343092D01*
X223315088Y-85347663D01*
X223315089Y-85347665D01*
X223320218Y-85360047D01*
X223407073Y-85569732D01*
X223467832Y-85668882D01*
X223530536Y-85771206D01*
X223535248Y-85778896D01*
X223538463Y-85782660D01*
X223538465Y-85782663D01*
X223648519Y-85911518D01*
X223694567Y-85965433D01*
X223698323Y-85968641D01*
X223868876Y-86114308D01*
X223881104Y-86124752D01*
X223885327Y-86127340D01*
X223885330Y-86127342D01*
X223885921Y-86127704D01*
X224090268Y-86252927D01*
X224232587Y-86311878D01*
X224312335Y-86344911D01*
X224312337Y-86344912D01*
X224316908Y-86346805D01*
X224366846Y-86358794D01*
X224550630Y-86402917D01*
X224550636Y-86402918D01*
X224555443Y-86404072D01*
X224800000Y-86423319D01*
X225044557Y-86404072D01*
X225049364Y-86402918D01*
X225049370Y-86402917D01*
X225233154Y-86358794D01*
X225283092Y-86346805D01*
X225287663Y-86344912D01*
X225287665Y-86344911D01*
X225367413Y-86311878D01*
X225509732Y-86252927D01*
X225714079Y-86127704D01*
X225714670Y-86127342D01*
X225714673Y-86127340D01*
X225718896Y-86124752D01*
X225731125Y-86114308D01*
X225901677Y-85968641D01*
X225905433Y-85965433D01*
X225951481Y-85911518D01*
X226061535Y-85782663D01*
X226061537Y-85782660D01*
X226064752Y-85778896D01*
X226069465Y-85771206D01*
X226132168Y-85668882D01*
X226192927Y-85569732D01*
X226279782Y-85360047D01*
X226284911Y-85347665D01*
X226284912Y-85347663D01*
X226286805Y-85343092D01*
X226318823Y-85209729D01*
X226342917Y-85109370D01*
X226342918Y-85109364D01*
X226344072Y-85104557D01*
X226363319Y-84860000D01*
X226344072Y-84615443D01*
X226341046Y-84602835D01*
X226296803Y-84418554D01*
X226286805Y-84376908D01*
X226282603Y-84366762D01*
X226239185Y-84261944D01*
X226192927Y-84150268D01*
X226094240Y-83989224D01*
X226067342Y-83945330D01*
X226067340Y-83945327D01*
X226064752Y-83941104D01*
X226053201Y-83927579D01*
X225908641Y-83758323D01*
X225905433Y-83754567D01*
X225869889Y-83724209D01*
X225824931Y-83685811D01*
X225786122Y-83626360D01*
X225785616Y-83555365D01*
X225824931Y-83494189D01*
X225901677Y-83428641D01*
X225905433Y-83425433D01*
X225909773Y-83420352D01*
X226061535Y-83242663D01*
X226061537Y-83242660D01*
X226064752Y-83238896D01*
X226078396Y-83216632D01*
X226126869Y-83137529D01*
X226192927Y-83029732D01*
X226286805Y-82803092D01*
X226329812Y-82623955D01*
X226342917Y-82569370D01*
X226342918Y-82569364D01*
X226344072Y-82564557D01*
X226363319Y-82320000D01*
X226344072Y-82075443D01*
X226341931Y-82066522D01*
X226300585Y-81894305D01*
X226286805Y-81836908D01*
X226192927Y-81610268D01*
X226090912Y-81443794D01*
X226067342Y-81405330D01*
X226067340Y-81405327D01*
X226064752Y-81401104D01*
X226051060Y-81385072D01*
X225908641Y-81218323D01*
X225905433Y-81214567D01*
X225901677Y-81211359D01*
X225824931Y-81145811D01*
X225786122Y-81086360D01*
X225785616Y-81015365D01*
X225824931Y-80954189D01*
X225901677Y-80888641D01*
X225905433Y-80885433D01*
X225927892Y-80859137D01*
X226061535Y-80702663D01*
X226061537Y-80702660D01*
X226064752Y-80698896D01*
X226075373Y-80681565D01*
X226144698Y-80568435D01*
X226192927Y-80489732D01*
X226272461Y-80297721D01*
X226284911Y-80267665D01*
X226284912Y-80267663D01*
X226286805Y-80263092D01*
X226311989Y-80158192D01*
X226342917Y-80029370D01*
X226342918Y-80029364D01*
X226344072Y-80024557D01*
X226363319Y-79780000D01*
X226344072Y-79535443D01*
X226341316Y-79523960D01*
X226287960Y-79301720D01*
X226286805Y-79296908D01*
X226192927Y-79070268D01*
X226093570Y-78908131D01*
X226067342Y-78865330D01*
X226067340Y-78865327D01*
X226064752Y-78861104D01*
X226061509Y-78857306D01*
X225908641Y-78678323D01*
X225905433Y-78674567D01*
X225824931Y-78605811D01*
X225786122Y-78546360D01*
X225785616Y-78475365D01*
X225824931Y-78414189D01*
X225901677Y-78348641D01*
X225905433Y-78345433D01*
X225908641Y-78341677D01*
X226061535Y-78162663D01*
X226061537Y-78162660D01*
X226064752Y-78158896D01*
X226069780Y-78150692D01*
X226126040Y-78058882D01*
X226192927Y-77949732D01*
X226252864Y-77805033D01*
X226284911Y-77727665D01*
X226284912Y-77727663D01*
X226286805Y-77723092D01*
X226315017Y-77605581D01*
X226342917Y-77489370D01*
X226342918Y-77489364D01*
X226344072Y-77484557D01*
X226363319Y-77240000D01*
X226344072Y-76995443D01*
X226286805Y-76756908D01*
X226280152Y-76740845D01*
X226225332Y-76608500D01*
X226192927Y-76530268D01*
X226084168Y-76352788D01*
X226065630Y-76284255D01*
X226087087Y-76216578D01*
X226116035Y-76186128D01*
X226147804Y-76162318D01*
X226213261Y-76113261D01*
X226300615Y-75996705D01*
X226351745Y-75860316D01*
X226358500Y-75798134D01*
X226358500Y-73601866D01*
X226351745Y-73539684D01*
X226300615Y-73403295D01*
X226213261Y-73286739D01*
X226096705Y-73199385D01*
X225960316Y-73148255D01*
X225898134Y-73141500D01*
X223701866Y-73141500D01*
X223639684Y-73148255D01*
X223503295Y-73199385D01*
X223386739Y-73286739D01*
X223299385Y-73403295D01*
X223248255Y-73539684D01*
X223241500Y-73601866D01*
X223241500Y-75798134D01*
X223248255Y-75860316D01*
X223299385Y-75996705D01*
X223386739Y-76113261D01*
X223452196Y-76162318D01*
X223483965Y-76186128D01*
X223526479Y-76242988D01*
X223531504Y-76313806D01*
X223515832Y-76352788D01*
X223407073Y-76530268D01*
X223374668Y-76608500D01*
X223319849Y-76740845D01*
X223313195Y-76756908D01*
X223255928Y-76995443D01*
X223236681Y-77240000D01*
X223255928Y-77484557D01*
X223257082Y-77489364D01*
X223257083Y-77489370D01*
X223284983Y-77605581D01*
X223313195Y-77723092D01*
X223315088Y-77727663D01*
X223315089Y-77727665D01*
X223347136Y-77805033D01*
X223407073Y-77949732D01*
X223473960Y-78058882D01*
X223530221Y-78150692D01*
X223535248Y-78158896D01*
X223538463Y-78162660D01*
X223538465Y-78162663D01*
X223691359Y-78341677D01*
X223694567Y-78345433D01*
X223698323Y-78348641D01*
X223775069Y-78414189D01*
X223813878Y-78473640D01*
X223814384Y-78544635D01*
X223775069Y-78605811D01*
X223694567Y-78674567D01*
X223691359Y-78678323D01*
X223538492Y-78857306D01*
X223535248Y-78861104D01*
X223532660Y-78865327D01*
X223532658Y-78865330D01*
X223506430Y-78908131D01*
X223407073Y-79070268D01*
X223313195Y-79296908D01*
X223312040Y-79301720D01*
X223258685Y-79523960D01*
X223255928Y-79535443D01*
X223236681Y-79780000D01*
X223255928Y-80024557D01*
X223257082Y-80029364D01*
X223257083Y-80029370D01*
X223288011Y-80158192D01*
X223313195Y-80263092D01*
X223315088Y-80267663D01*
X223315089Y-80267665D01*
X223327539Y-80297721D01*
X223407073Y-80489732D01*
X223455302Y-80568435D01*
X223524628Y-80681565D01*
X223535248Y-80698896D01*
X223538463Y-80702660D01*
X223538465Y-80702663D01*
X223672108Y-80859137D01*
X223694567Y-80885433D01*
X223698323Y-80888641D01*
X223775069Y-80954189D01*
X223813878Y-81013640D01*
X223814384Y-81084635D01*
X223775069Y-81145811D01*
X223698323Y-81211359D01*
X223694567Y-81214567D01*
X223691359Y-81218323D01*
X223548941Y-81385072D01*
X223535248Y-81401104D01*
X223532660Y-81405327D01*
X223532658Y-81405330D01*
X223509088Y-81443794D01*
X223407073Y-81610268D01*
X223313195Y-81836908D01*
X223299415Y-81894305D01*
X223258070Y-82066522D01*
X223255928Y-82075443D01*
X223236681Y-82320000D01*
X223255928Y-82564557D01*
X223257082Y-82569364D01*
X223257083Y-82569370D01*
X223270188Y-82623955D01*
X223313195Y-82803092D01*
X223407073Y-83029732D01*
X223473131Y-83137529D01*
X223521605Y-83216632D01*
X223535248Y-83238896D01*
X223538463Y-83242660D01*
X223538465Y-83242663D01*
X223690227Y-83420352D01*
X223694567Y-83425433D01*
X223698323Y-83428641D01*
X223775069Y-83494189D01*
X223813878Y-83553640D01*
X223814384Y-83624635D01*
X223775069Y-83685811D01*
X223730111Y-83724209D01*
X223694567Y-83754567D01*
X223691359Y-83758323D01*
X223546800Y-83927579D01*
X223535248Y-83941104D01*
X223532660Y-83945327D01*
X223532658Y-83945330D01*
X223505760Y-83989224D01*
X223407073Y-84150268D01*
X223360815Y-84261944D01*
X223317398Y-84366762D01*
X223313195Y-84376908D01*
X223303197Y-84418554D01*
X223258955Y-84602835D01*
X223255928Y-84615443D01*
X223236681Y-84860000D01*
X219659300Y-84860000D01*
X219652784Y-84798002D01*
X219644232Y-84716635D01*
X219644232Y-84716633D01*
X219643542Y-84710072D01*
X219584527Y-84528444D01*
X219577167Y-84515695D01*
X219525093Y-84425502D01*
X219489040Y-84363056D01*
X219483441Y-84356837D01*
X219365675Y-84226045D01*
X219365674Y-84226044D01*
X219361253Y-84221134D01*
X219206752Y-84108882D01*
X219200724Y-84106198D01*
X219200722Y-84106197D01*
X219038319Y-84033891D01*
X219038318Y-84033891D01*
X219032288Y-84031206D01*
X218938887Y-84011353D01*
X218851944Y-83992872D01*
X218851939Y-83992872D01*
X218845487Y-83991500D01*
X218654513Y-83991500D01*
X218648061Y-83992872D01*
X218648056Y-83992872D01*
X218561113Y-84011353D01*
X218467712Y-84031206D01*
X218461682Y-84033891D01*
X218461681Y-84033891D01*
X218299278Y-84106197D01*
X218299276Y-84106198D01*
X218293248Y-84108882D01*
X218138747Y-84221134D01*
X218134326Y-84226044D01*
X218134325Y-84226045D01*
X218016560Y-84356837D01*
X218010960Y-84363056D01*
X217974907Y-84425502D01*
X217922834Y-84515695D01*
X217915473Y-84528444D01*
X217856458Y-84710072D01*
X217855768Y-84716633D01*
X217855768Y-84716635D01*
X217847216Y-84798002D01*
X217836496Y-84900000D01*
X213221737Y-84900000D01*
X213306404Y-84864930D01*
X213349248Y-84847184D01*
X213349250Y-84847183D01*
X213356876Y-84844024D01*
X213364698Y-84838022D01*
X213477436Y-84751514D01*
X213477437Y-84751513D01*
X213483987Y-84746487D01*
X213489014Y-84739936D01*
X213489016Y-84739934D01*
X213562090Y-84644702D01*
X213619428Y-84602835D01*
X213688248Y-84598159D01*
X213746919Y-84610630D01*
X213848056Y-84632128D01*
X213848061Y-84632128D01*
X213854513Y-84633500D01*
X214045487Y-84633500D01*
X214051939Y-84632128D01*
X214051944Y-84632128D01*
X214138888Y-84613647D01*
X214232288Y-84593794D01*
X214249044Y-84586334D01*
X214400722Y-84518803D01*
X214400724Y-84518802D01*
X214406752Y-84516118D01*
X214561253Y-84403866D01*
X214592850Y-84368774D01*
X214684621Y-84266852D01*
X214684622Y-84266851D01*
X214689040Y-84261944D01*
X214784527Y-84096556D01*
X214843542Y-83914928D01*
X214844648Y-83904411D01*
X214862814Y-83731565D01*
X214863504Y-83725000D01*
X214852996Y-83625020D01*
X214844233Y-83541642D01*
X214844232Y-83541638D01*
X214843542Y-83535072D01*
X214840236Y-83524897D01*
X214840168Y-83522520D01*
X214840128Y-83522332D01*
X214840162Y-83522325D01*
X214838207Y-83453930D01*
X214874868Y-83393131D01*
X214908819Y-83370851D01*
X215025722Y-83318803D01*
X215025724Y-83318802D01*
X215031752Y-83316118D01*
X215186253Y-83203866D01*
X215192701Y-83196705D01*
X215309621Y-83066852D01*
X215309622Y-83066851D01*
X215314040Y-83061944D01*
X215409527Y-82896556D01*
X215468542Y-82714928D01*
X215474968Y-82653794D01*
X215487814Y-82531565D01*
X215488504Y-82525000D01*
X215470321Y-82352000D01*
X215469232Y-82341635D01*
X215469232Y-82341633D01*
X215468542Y-82335072D01*
X215409527Y-82153444D01*
X215403530Y-82143056D01*
X215354931Y-82058882D01*
X215314040Y-81988056D01*
X215256946Y-81924646D01*
X215190675Y-81851045D01*
X215190674Y-81851044D01*
X215186253Y-81846134D01*
X215180908Y-81842251D01*
X215180904Y-81842247D01*
X215171841Y-81835662D01*
X215128488Y-81779439D01*
X215122414Y-81708703D01*
X215155547Y-81645912D01*
X215170339Y-81632903D01*
X215174292Y-81629940D01*
X215240799Y-81605097D01*
X215315966Y-81623511D01*
X215420090Y-81687694D01*
X215427262Y-81692115D01*
X215456296Y-81701745D01*
X215588611Y-81745632D01*
X215588613Y-81745632D01*
X215595139Y-81747797D01*
X215601975Y-81748497D01*
X215601978Y-81748498D01*
X215645031Y-81752909D01*
X215699600Y-81758500D01*
X216700400Y-81758500D01*
X216703646Y-81758163D01*
X216703650Y-81758163D01*
X216799308Y-81748238D01*
X216799312Y-81748237D01*
X216806166Y-81747526D01*
X216812702Y-81745345D01*
X216812704Y-81745345D01*
X216944806Y-81701272D01*
X216973946Y-81691550D01*
X217124348Y-81598478D01*
X217249305Y-81473303D01*
X217253146Y-81467072D01*
X217338275Y-81328968D01*
X217338276Y-81328966D01*
X217342115Y-81322738D01*
X217397797Y-81154861D01*
X217398725Y-81145811D01*
X217403434Y-81099848D01*
X217408500Y-81050400D01*
X217408500Y-80249600D01*
X217407100Y-80236109D01*
X217398238Y-80150692D01*
X217398237Y-80150688D01*
X217397526Y-80143834D01*
X217394079Y-80133500D01*
X217348249Y-79996134D01*
X217341550Y-79976054D01*
X217248478Y-79825652D01*
X217161891Y-79739216D01*
X217127812Y-79676934D01*
X217132815Y-79606114D01*
X217161736Y-79561025D01*
X217244134Y-79478483D01*
X217249305Y-79473303D01*
X217296353Y-79396978D01*
X217338275Y-79328968D01*
X217338276Y-79328966D01*
X217342115Y-79322738D01*
X217397797Y-79154861D01*
X217408500Y-79050400D01*
X217408500Y-78249600D01*
X217407853Y-78243365D01*
X217398238Y-78150692D01*
X217398237Y-78150688D01*
X217397526Y-78143834D01*
X217385572Y-78108002D01*
X217343868Y-77983002D01*
X217341550Y-77976054D01*
X217248478Y-77825652D01*
X217123303Y-77700695D01*
X217117072Y-77696854D01*
X216978968Y-77611725D01*
X216978966Y-77611724D01*
X216972738Y-77607885D01*
X216812257Y-77554656D01*
X216811389Y-77554368D01*
X216811387Y-77554368D01*
X216804861Y-77552203D01*
X216798025Y-77551503D01*
X216798022Y-77551502D01*
X216754969Y-77547091D01*
X216700400Y-77541500D01*
X215699600Y-77541500D01*
X215696354Y-77541837D01*
X215696350Y-77541837D01*
X215600692Y-77551762D01*
X215600688Y-77551763D01*
X215593834Y-77552474D01*
X215587293Y-77554656D01*
X215587294Y-77554656D01*
X215574378Y-77558965D01*
X215503428Y-77561551D01*
X215442344Y-77525368D01*
X215410518Y-77461904D01*
X215408500Y-77439442D01*
X215408500Y-76865676D01*
X215409726Y-76848140D01*
X215412748Y-76826639D01*
X215412748Y-76826636D01*
X215413299Y-76822717D01*
X215413616Y-76800000D01*
X215409285Y-76761388D01*
X215408500Y-76747343D01*
X215408500Y-76590067D01*
X215428502Y-76521946D01*
X215482158Y-76475453D01*
X215552432Y-76465349D01*
X215600616Y-76482807D01*
X215608743Y-76487816D01*
X215621924Y-76493963D01*
X215776210Y-76545138D01*
X215789586Y-76548005D01*
X215883938Y-76557672D01*
X215890354Y-76558000D01*
X216077885Y-76558000D01*
X216093124Y-76553525D01*
X216094329Y-76552135D01*
X216096000Y-76544452D01*
X216096000Y-76539884D01*
X216604000Y-76539884D01*
X216608475Y-76555123D01*
X216609865Y-76556328D01*
X216617548Y-76557999D01*
X216809595Y-76557999D01*
X216816114Y-76557662D01*
X216911706Y-76547743D01*
X216925100Y-76544851D01*
X217079284Y-76493412D01*
X217092462Y-76487239D01*
X217230307Y-76401937D01*
X217241708Y-76392901D01*
X217356239Y-76278171D01*
X217365251Y-76266760D01*
X217450316Y-76128757D01*
X217456463Y-76115576D01*
X217507638Y-75961290D01*
X217510505Y-75947914D01*
X217520172Y-75853562D01*
X217520334Y-75850400D01*
X218304000Y-75850400D01*
X218304337Y-75853646D01*
X218304337Y-75853650D01*
X218314118Y-75947914D01*
X218314974Y-75956166D01*
X218370950Y-76123946D01*
X218464022Y-76274348D01*
X218589197Y-76399305D01*
X218595427Y-76403145D01*
X218595428Y-76403146D01*
X218732788Y-76487816D01*
X218739762Y-76492115D01*
X218819505Y-76518564D01*
X218901111Y-76545632D01*
X218901113Y-76545632D01*
X218907639Y-76547797D01*
X218914475Y-76548497D01*
X218914478Y-76548498D01*
X218957531Y-76552909D01*
X219012100Y-76558500D01*
X219937900Y-76558500D01*
X219941146Y-76558163D01*
X219941150Y-76558163D01*
X220036808Y-76548238D01*
X220036812Y-76548237D01*
X220043666Y-76547526D01*
X220050202Y-76545345D01*
X220050204Y-76545345D01*
X220182306Y-76501272D01*
X220211446Y-76491550D01*
X220361848Y-76398478D01*
X220486805Y-76273303D01*
X220528222Y-76206112D01*
X220575775Y-76128968D01*
X220575776Y-76128966D01*
X220579615Y-76122738D01*
X220635297Y-75954861D01*
X220646000Y-75850400D01*
X220646000Y-75627094D01*
X220666002Y-75558973D01*
X220682905Y-75537999D01*
X220750499Y-75470405D01*
X220812811Y-75436379D01*
X220839594Y-75433500D01*
X220895487Y-75433500D01*
X220901939Y-75432128D01*
X220901944Y-75432128D01*
X221006680Y-75409865D01*
X221082288Y-75393794D01*
X221088319Y-75391109D01*
X221250722Y-75318803D01*
X221250724Y-75318802D01*
X221256752Y-75316118D01*
X221411253Y-75203866D01*
X221442850Y-75168774D01*
X221534621Y-75066852D01*
X221534622Y-75066851D01*
X221539040Y-75061944D01*
X221634527Y-74896556D01*
X221693542Y-74714928D01*
X221695304Y-74698170D01*
X221712814Y-74531565D01*
X221713504Y-74525000D01*
X221705243Y-74446402D01*
X221694232Y-74341635D01*
X221694232Y-74341633D01*
X221693542Y-74335072D01*
X221634527Y-74153444D01*
X221539040Y-73988056D01*
X221465791Y-73906704D01*
X221415675Y-73851045D01*
X221415674Y-73851044D01*
X221411253Y-73846134D01*
X221301837Y-73766638D01*
X221262094Y-73737763D01*
X221262093Y-73737762D01*
X221256752Y-73733882D01*
X221250724Y-73731198D01*
X221250722Y-73731197D01*
X221088319Y-73658891D01*
X221088318Y-73658891D01*
X221082288Y-73656206D01*
X220988887Y-73636353D01*
X220901944Y-73617872D01*
X220901939Y-73617872D01*
X220895487Y-73616500D01*
X220704513Y-73616500D01*
X220698061Y-73617872D01*
X220698056Y-73617872D01*
X220611113Y-73636353D01*
X220517712Y-73656206D01*
X220511682Y-73658891D01*
X220511681Y-73658891D01*
X220349278Y-73731197D01*
X220349276Y-73731198D01*
X220343248Y-73733882D01*
X220337907Y-73737762D01*
X220337906Y-73737763D01*
X220283959Y-73776958D01*
X220217091Y-73800817D01*
X220170231Y-73794615D01*
X220048889Y-73754368D01*
X220048887Y-73754368D01*
X220042361Y-73752203D01*
X220035525Y-73751503D01*
X220035522Y-73751502D01*
X219992469Y-73747091D01*
X219937900Y-73741500D01*
X219012100Y-73741500D01*
X219008854Y-73741837D01*
X219008850Y-73741837D01*
X218913192Y-73751762D01*
X218913188Y-73751763D01*
X218906334Y-73752474D01*
X218899798Y-73754655D01*
X218899796Y-73754655D01*
X218780022Y-73794615D01*
X218738554Y-73808450D01*
X218588152Y-73901522D01*
X218463195Y-74026697D01*
X218459355Y-74032927D01*
X218459354Y-74032928D01*
X218381193Y-74159729D01*
X218370385Y-74177262D01*
X218348276Y-74243919D01*
X218317509Y-74336680D01*
X218314703Y-74345139D01*
X218304000Y-74449600D01*
X218304000Y-75850400D01*
X217520334Y-75850400D01*
X217520500Y-75847146D01*
X217520500Y-75422115D01*
X217516025Y-75406876D01*
X217514635Y-75405671D01*
X217506952Y-75404000D01*
X216622115Y-75404000D01*
X216606876Y-75408475D01*
X216605671Y-75409865D01*
X216604000Y-75417548D01*
X216604000Y-76539884D01*
X216096000Y-76539884D01*
X216096000Y-75422115D01*
X216091525Y-75406876D01*
X216090135Y-75405671D01*
X216082452Y-75404000D01*
X215241021Y-75404000D01*
X215172900Y-75383998D01*
X215158508Y-75373224D01*
X215133635Y-75351671D01*
X215125952Y-75350000D01*
X214884500Y-75350000D01*
X214816379Y-75329998D01*
X214769886Y-75276342D01*
X214758500Y-75224000D01*
X214758500Y-75026000D01*
X214778502Y-74957879D01*
X214832158Y-74911386D01*
X214884500Y-74900000D01*
X215125303Y-74900000D01*
X215153123Y-74896000D01*
X216077885Y-74896000D01*
X216093124Y-74891525D01*
X216094329Y-74890135D01*
X216096000Y-74882452D01*
X216096000Y-74877885D01*
X216604000Y-74877885D01*
X216608475Y-74893124D01*
X216609865Y-74894329D01*
X216617548Y-74896000D01*
X217502384Y-74896000D01*
X217517623Y-74891525D01*
X217518828Y-74890135D01*
X217520499Y-74882452D01*
X217520499Y-74452905D01*
X217520162Y-74446386D01*
X217510243Y-74350794D01*
X217507351Y-74337400D01*
X217455912Y-74183216D01*
X217449739Y-74170038D01*
X217364437Y-74032193D01*
X217355401Y-74020792D01*
X217240671Y-73906261D01*
X217229260Y-73897249D01*
X217091257Y-73812184D01*
X217078076Y-73806037D01*
X216923790Y-73754862D01*
X216910414Y-73751995D01*
X216816062Y-73742328D01*
X216809645Y-73742000D01*
X216622115Y-73742000D01*
X216606876Y-73746475D01*
X216605671Y-73747865D01*
X216604000Y-73755548D01*
X216604000Y-74877885D01*
X216096000Y-74877885D01*
X216096000Y-73760116D01*
X216091525Y-73744877D01*
X216090135Y-73743672D01*
X216082452Y-73742001D01*
X215890388Y-73742001D01*
X215887915Y-73742129D01*
X215887378Y-73742001D01*
X215887138Y-73742001D01*
X215887138Y-73741944D01*
X215818851Y-73725676D01*
X215769647Y-73674496D01*
X215756091Y-73629469D01*
X215746654Y-73539684D01*
X215743542Y-73510072D01*
X215741502Y-73503792D01*
X215741500Y-73503785D01*
X215732092Y-73474831D01*
X215730065Y-73403863D01*
X215766727Y-73343065D01*
X215812048Y-73316372D01*
X215879493Y-73293870D01*
X215879495Y-73293869D01*
X215886446Y-73291550D01*
X216036848Y-73198478D01*
X216068089Y-73167183D01*
X216156634Y-73078483D01*
X216161805Y-73073303D01*
X216208786Y-72997086D01*
X216250775Y-72928968D01*
X216250776Y-72928966D01*
X216254615Y-72922738D01*
X216306392Y-72766635D01*
X216308132Y-72761389D01*
X216308132Y-72761387D01*
X216310297Y-72754861D01*
X216321000Y-72650400D01*
X216321000Y-71249600D01*
X216320663Y-71246350D01*
X216310738Y-71150692D01*
X216310737Y-71150688D01*
X216310026Y-71143834D01*
X216304023Y-71125839D01*
X216256368Y-70983002D01*
X216254050Y-70976054D01*
X216160978Y-70825652D01*
X216035803Y-70700695D01*
X216014824Y-70687763D01*
X215891468Y-70611725D01*
X215891466Y-70611724D01*
X215885238Y-70607885D01*
X215805495Y-70581436D01*
X215723889Y-70554368D01*
X215723887Y-70554368D01*
X215717361Y-70552203D01*
X215710525Y-70551503D01*
X215710522Y-70551502D01*
X215667469Y-70547091D01*
X215612900Y-70541500D01*
X214687100Y-70541500D01*
X214683854Y-70541837D01*
X214683850Y-70541837D01*
X214588192Y-70551762D01*
X214588188Y-70551763D01*
X214581334Y-70552474D01*
X214574798Y-70554655D01*
X214574796Y-70554655D01*
X214463580Y-70591760D01*
X214413554Y-70608450D01*
X214263152Y-70701522D01*
X214138195Y-70826697D01*
X214134355Y-70832927D01*
X214134354Y-70832928D01*
X214051385Y-70967529D01*
X214045385Y-70977262D01*
X214043081Y-70984209D01*
X214003533Y-71103444D01*
X213989703Y-71145139D01*
X213989002Y-71151977D01*
X213989002Y-71151979D01*
X213984225Y-71198606D01*
X213957384Y-71264333D01*
X213899269Y-71305116D01*
X213896979Y-71305796D01*
X213891203Y-71306526D01*
X213883829Y-71309445D01*
X213883827Y-71309446D01*
X213850097Y-71322800D01*
X213838869Y-71326645D01*
X213796407Y-71338982D01*
X213789584Y-71343017D01*
X213789582Y-71343018D01*
X213778972Y-71349293D01*
X213761224Y-71357988D01*
X213742383Y-71365448D01*
X213735967Y-71370110D01*
X213735966Y-71370110D01*
X213706613Y-71391436D01*
X213696693Y-71397952D01*
X213665465Y-71416420D01*
X213665462Y-71416422D01*
X213658638Y-71420458D01*
X213644317Y-71434779D01*
X213629284Y-71447619D01*
X213612893Y-71459528D01*
X213586516Y-71491413D01*
X213584712Y-71493593D01*
X213576722Y-71502373D01*
X213411095Y-71668000D01*
X213348783Y-71702026D01*
X213277968Y-71696961D01*
X213221132Y-71654414D01*
X213196321Y-71587894D01*
X213196000Y-71578905D01*
X213196000Y-71249600D01*
X213195663Y-71246350D01*
X213185738Y-71150692D01*
X213185737Y-71150688D01*
X213185026Y-71143834D01*
X213179023Y-71125839D01*
X213131368Y-70983002D01*
X213129050Y-70976054D01*
X213035978Y-70825652D01*
X212910803Y-70700695D01*
X212828121Y-70649729D01*
X212780628Y-70596957D01*
X212769204Y-70526885D01*
X212786976Y-70476355D01*
X212800774Y-70453970D01*
X212800775Y-70453967D01*
X212804615Y-70447738D01*
X212860297Y-70279861D01*
X212871000Y-70175400D01*
X212871000Y-68774600D01*
X212862133Y-68689137D01*
X212860738Y-68675692D01*
X212860737Y-68675688D01*
X212860026Y-68668834D01*
X212841664Y-68613795D01*
X212806368Y-68508002D01*
X212804050Y-68501054D01*
X212710978Y-68350652D01*
X212688535Y-68328248D01*
X212660344Y-68300106D01*
X212626265Y-68237823D01*
X212631268Y-68167003D01*
X212673765Y-68110131D01*
X212709483Y-68091410D01*
X212843946Y-68046550D01*
X212994348Y-67953478D01*
X213119305Y-67828303D01*
X213212115Y-67677738D01*
X213267797Y-67509861D01*
X213278500Y-67405400D01*
X213278500Y-66479600D01*
X213267526Y-66373834D01*
X213211550Y-66206054D01*
X213118478Y-66055652D01*
X212993303Y-65930695D01*
X212842738Y-65837885D01*
X212733040Y-65801500D01*
X212681389Y-65784368D01*
X212681387Y-65784368D01*
X212674861Y-65782203D01*
X212668025Y-65781503D01*
X212668022Y-65781502D01*
X212624969Y-65777091D01*
X212570400Y-65771500D01*
X210269600Y-65771500D01*
X210266354Y-65771837D01*
X210266350Y-65771837D01*
X210170692Y-65781762D01*
X210170688Y-65781763D01*
X210163834Y-65782474D01*
X210157298Y-65784655D01*
X210157296Y-65784655D01*
X210126217Y-65795024D01*
X210086341Y-65801500D01*
X208797154Y-65801500D01*
X208639434Y-65816548D01*
X208436466Y-65876092D01*
X208431139Y-65878836D01*
X208431138Y-65878836D01*
X208253751Y-65970196D01*
X208253748Y-65970198D01*
X208248420Y-65972942D01*
X208082080Y-66103604D01*
X208078148Y-66108135D01*
X208078145Y-66108138D01*
X207998584Y-66199824D01*
X207943448Y-66263363D01*
X207940448Y-66268549D01*
X207940445Y-66268553D01*
X207883321Y-66367296D01*
X207837527Y-66446454D01*
X207768139Y-66646271D01*
X207767278Y-66652206D01*
X207767278Y-66652208D01*
X207747391Y-66789370D01*
X207737787Y-66855604D01*
X207747567Y-67066899D01*
X207748971Y-67072724D01*
X207748971Y-67072725D01*
X207792647Y-67253951D01*
X207797125Y-67272534D01*
X207884674Y-67465087D01*
X208007054Y-67637611D01*
X208159850Y-67783881D01*
X208164882Y-67787130D01*
X208164892Y-67787138D01*
X208239249Y-67835150D01*
X208285627Y-67888905D01*
X208295580Y-67959201D01*
X208265948Y-68023718D01*
X208206139Y-68061973D01*
X208170901Y-68067001D01*
X208115405Y-68067001D01*
X208108886Y-68067338D01*
X208013294Y-68077257D01*
X207999900Y-68080149D01*
X207845716Y-68131588D01*
X207832538Y-68137761D01*
X207694693Y-68223063D01*
X207683292Y-68232099D01*
X207568761Y-68346829D01*
X207559749Y-68358240D01*
X207474684Y-68496243D01*
X207468537Y-68509424D01*
X207417362Y-68663710D01*
X207414495Y-68677086D01*
X207404828Y-68771438D01*
X207404500Y-68777855D01*
X207404500Y-69202885D01*
X207408975Y-69218124D01*
X207410365Y-69219329D01*
X207418048Y-69221000D01*
X208703000Y-69221000D01*
X208771121Y-69241002D01*
X208817614Y-69294658D01*
X208829000Y-69347000D01*
X208829000Y-70864884D01*
X208833475Y-70880123D01*
X208834865Y-70881328D01*
X208842548Y-70882999D01*
X209034595Y-70882999D01*
X209041114Y-70882662D01*
X209136706Y-70872743D01*
X209150100Y-70869851D01*
X209304284Y-70818412D01*
X209317462Y-70812239D01*
X209455307Y-70726937D01*
X209466708Y-70717901D01*
X209581239Y-70603171D01*
X209590251Y-70591760D01*
X209675316Y-70453757D01*
X209681463Y-70440576D01*
X209732638Y-70286290D01*
X209735505Y-70272914D01*
X209745462Y-70175731D01*
X209772303Y-70110004D01*
X209830418Y-70069221D01*
X209901355Y-70066333D01*
X209922052Y-70073465D01*
X209967712Y-70093794D01*
X210043974Y-70110004D01*
X210148056Y-70132128D01*
X210148061Y-70132128D01*
X210154513Y-70133500D01*
X210345487Y-70133500D01*
X210351943Y-70132128D01*
X210351950Y-70132127D01*
X210383723Y-70125373D01*
X210454514Y-70130774D01*
X210511147Y-70173590D01*
X210535248Y-70235616D01*
X210539252Y-70274206D01*
X210539974Y-70281166D01*
X210542157Y-70287708D01*
X210542157Y-70287710D01*
X210591811Y-70436541D01*
X210594396Y-70507491D01*
X210558213Y-70568575D01*
X210498485Y-70599665D01*
X210467712Y-70606206D01*
X210461682Y-70608891D01*
X210461681Y-70608891D01*
X210299278Y-70681197D01*
X210299276Y-70681198D01*
X210293248Y-70683882D01*
X210287907Y-70687762D01*
X210287906Y-70687763D01*
X210274273Y-70697668D01*
X210138747Y-70796134D01*
X210134326Y-70801044D01*
X210134325Y-70801045D01*
X210060533Y-70883000D01*
X210010960Y-70938056D01*
X209915473Y-71103444D01*
X209856458Y-71285072D01*
X209855768Y-71291633D01*
X209855768Y-71291635D01*
X209841639Y-71426069D01*
X209836496Y-71475000D01*
X209837186Y-71481565D01*
X209854146Y-71642926D01*
X209856458Y-71664928D01*
X209915473Y-71846556D01*
X210010960Y-72011944D01*
X210015378Y-72016851D01*
X210015379Y-72016852D01*
X210128128Y-72142073D01*
X210158846Y-72206080D01*
X210150081Y-72276534D01*
X210128128Y-72310693D01*
X210047582Y-72400149D01*
X210035960Y-72413056D01*
X209940473Y-72578444D01*
X209881458Y-72760072D01*
X209861496Y-72950000D01*
X209862186Y-72956565D01*
X209876362Y-73091438D01*
X209881458Y-73139928D01*
X209940473Y-73321556D01*
X210035960Y-73486944D01*
X210109137Y-73568215D01*
X210139853Y-73632221D01*
X210141500Y-73652524D01*
X210141500Y-73965500D01*
X210121498Y-74033621D01*
X210067842Y-74080114D01*
X210015500Y-74091500D01*
X209851866Y-74091500D01*
X209789684Y-74098255D01*
X209653295Y-74149385D01*
X209536739Y-74236739D01*
X209449385Y-74353295D01*
X209446233Y-74361703D01*
X209428791Y-74408229D01*
X209386149Y-74464993D01*
X209314767Y-74489937D01*
X209279867Y-74491034D01*
X209267013Y-74491438D01*
X209263055Y-74491500D01*
X209235144Y-74491500D01*
X209231210Y-74491997D01*
X209231209Y-74491997D01*
X209231144Y-74492005D01*
X209219307Y-74492938D01*
X209187049Y-74493952D01*
X209183030Y-74494078D01*
X209175111Y-74494327D01*
X209155657Y-74499979D01*
X209136300Y-74503987D01*
X209124070Y-74505532D01*
X209124069Y-74505532D01*
X209116203Y-74506526D01*
X209108832Y-74509445D01*
X209108830Y-74509445D01*
X209075088Y-74522804D01*
X209063858Y-74526649D01*
X209029017Y-74536771D01*
X209029016Y-74536771D01*
X209021407Y-74538982D01*
X209014588Y-74543015D01*
X209014583Y-74543017D01*
X209003972Y-74549293D01*
X208986224Y-74557988D01*
X208967383Y-74565448D01*
X208960967Y-74570110D01*
X208960966Y-74570110D01*
X208931613Y-74591436D01*
X208921693Y-74597952D01*
X208890465Y-74616420D01*
X208890462Y-74616422D01*
X208883638Y-74620458D01*
X208869314Y-74634782D01*
X208854287Y-74647617D01*
X208837893Y-74659528D01*
X208812435Y-74690301D01*
X208797783Y-74704953D01*
X208792982Y-74708000D01*
X208749250Y-74754570D01*
X208746355Y-74757653D01*
X208743600Y-74760495D01*
X208723865Y-74780230D01*
X208721385Y-74783427D01*
X208713682Y-74792447D01*
X208683414Y-74824679D01*
X208679595Y-74831625D01*
X208679593Y-74831628D01*
X208673652Y-74842434D01*
X208662801Y-74858953D01*
X208650386Y-74874959D01*
X208647241Y-74882228D01*
X208647238Y-74882232D01*
X208632826Y-74915537D01*
X208627604Y-74926197D01*
X208613365Y-74952098D01*
X208577011Y-74993334D01*
X208538747Y-75021134D01*
X208534326Y-75026044D01*
X208534325Y-75026045D01*
X208491831Y-75073240D01*
X208410960Y-75163056D01*
X208315473Y-75328444D01*
X208256458Y-75510072D01*
X208236496Y-75700000D01*
X208237186Y-75706565D01*
X208252640Y-75853598D01*
X208256458Y-75889928D01*
X208315473Y-76071556D01*
X208410960Y-76236944D01*
X208415378Y-76241851D01*
X208415379Y-76241852D01*
X208515266Y-76352788D01*
X208538747Y-76378866D01*
X208693248Y-76491118D01*
X208699276Y-76493802D01*
X208699278Y-76493803D01*
X208842709Y-76557662D01*
X208867712Y-76568794D01*
X208961112Y-76588647D01*
X209048056Y-76607128D01*
X209048061Y-76607128D01*
X209054513Y-76608500D01*
X209245487Y-76608500D01*
X209251942Y-76607128D01*
X209252332Y-76607087D01*
X209322170Y-76619860D01*
X209374016Y-76668363D01*
X209391500Y-76732397D01*
X209391500Y-76740845D01*
X209390506Y-76756637D01*
X209386463Y-76788640D01*
X209389416Y-76818757D01*
X209390899Y-76833882D01*
X209391500Y-76846177D01*
X209391500Y-77840845D01*
X209390506Y-77856637D01*
X209386463Y-77888640D01*
X209387151Y-77895653D01*
X209390899Y-77933882D01*
X209391500Y-77946177D01*
X209391500Y-78940845D01*
X209390506Y-78956637D01*
X209386463Y-78988640D01*
X209387819Y-79002468D01*
X209390899Y-79033882D01*
X209391500Y-79046177D01*
X209391500Y-79648134D01*
X209397660Y-79704834D01*
X209397784Y-79705978D01*
X209385256Y-79775860D01*
X209336936Y-79827876D01*
X209268164Y-79845511D01*
X209221273Y-79834693D01*
X209163323Y-79808892D01*
X209163315Y-79808889D01*
X209157288Y-79806206D01*
X209057193Y-79784930D01*
X208976944Y-79767872D01*
X208976939Y-79767872D01*
X208970487Y-79766500D01*
X208779513Y-79766500D01*
X208773061Y-79767872D01*
X208773056Y-79767872D01*
X208692807Y-79784930D01*
X208592712Y-79806206D01*
X208586682Y-79808891D01*
X208586681Y-79808891D01*
X208424278Y-79881197D01*
X208424276Y-79881198D01*
X208418248Y-79883882D01*
X208412907Y-79887762D01*
X208412906Y-79887763D01*
X208394625Y-79901045D01*
X208263747Y-79996134D01*
X208259326Y-80001044D01*
X208259325Y-80001045D01*
X208151649Y-80120632D01*
X208135960Y-80138056D01*
X208079349Y-80236109D01*
X208045303Y-80295079D01*
X208040473Y-80303444D01*
X207981458Y-80485072D01*
X207961496Y-80675000D01*
X207962186Y-80681565D01*
X207980587Y-80856638D01*
X207981458Y-80864928D01*
X207994985Y-80906560D01*
X207997013Y-80977526D01*
X207960351Y-81038324D01*
X207901350Y-81068741D01*
X207855698Y-81078445D01*
X207784907Y-81073044D01*
X207728274Y-81030228D01*
X207703780Y-80963590D01*
X207703500Y-80955199D01*
X207703500Y-79494600D01*
X207701828Y-79478483D01*
X207693238Y-79395692D01*
X207693237Y-79395688D01*
X207692526Y-79388834D01*
X207686243Y-79370000D01*
X207638868Y-79228002D01*
X207636550Y-79221054D01*
X207543478Y-79070652D01*
X207418303Y-78945695D01*
X207348387Y-78902598D01*
X207273968Y-78856725D01*
X207273966Y-78856724D01*
X207267738Y-78852885D01*
X207107254Y-78799655D01*
X207106389Y-78799368D01*
X207106387Y-78799368D01*
X207099861Y-78797203D01*
X207093025Y-78796503D01*
X207093022Y-78796502D01*
X207049969Y-78792091D01*
X206995400Y-78786500D01*
X206679500Y-78786500D01*
X206611379Y-78766498D01*
X206564886Y-78712842D01*
X206553500Y-78660500D01*
X206553500Y-78622980D01*
X206570381Y-78559980D01*
X206641223Y-78437279D01*
X206641224Y-78437278D01*
X206644527Y-78431556D01*
X206703542Y-78249928D01*
X206707795Y-78209469D01*
X206722814Y-78066565D01*
X206723504Y-78060000D01*
X206713356Y-77963446D01*
X206704232Y-77876635D01*
X206704232Y-77876633D01*
X206703542Y-77870072D01*
X206644527Y-77688444D01*
X206638194Y-77677474D01*
X206567118Y-77554368D01*
X206549040Y-77523056D01*
X206514376Y-77484557D01*
X206425675Y-77386045D01*
X206425674Y-77386044D01*
X206421253Y-77381134D01*
X206266752Y-77268882D01*
X206260724Y-77266198D01*
X206260722Y-77266197D01*
X206098319Y-77193891D01*
X206098318Y-77193891D01*
X206092288Y-77191206D01*
X205998888Y-77171353D01*
X205911944Y-77152872D01*
X205911939Y-77152872D01*
X205905487Y-77151500D01*
X205714513Y-77151500D01*
X205708061Y-77152872D01*
X205708056Y-77152872D01*
X205621113Y-77171353D01*
X205527712Y-77191206D01*
X205521682Y-77193891D01*
X205521681Y-77193891D01*
X205359278Y-77266197D01*
X205359276Y-77266198D01*
X205353248Y-77268882D01*
X205198747Y-77381134D01*
X205194326Y-77386044D01*
X205194325Y-77386045D01*
X205105625Y-77484557D01*
X205070960Y-77523056D01*
X205052882Y-77554368D01*
X204981807Y-77677474D01*
X204975473Y-77688444D01*
X204916458Y-77870072D01*
X204915768Y-77876633D01*
X204915768Y-77876635D01*
X204906644Y-77963446D01*
X204896496Y-78060000D01*
X204897186Y-78066565D01*
X204912206Y-78209469D01*
X204916458Y-78249928D01*
X204975473Y-78431556D01*
X204978776Y-78437278D01*
X204978777Y-78437279D01*
X205070960Y-78596944D01*
X205068446Y-78598396D01*
X205088039Y-78653301D01*
X205071962Y-78722453D01*
X205021051Y-78771936D01*
X204962245Y-78786500D01*
X204844600Y-78786500D01*
X204841354Y-78786837D01*
X204841350Y-78786837D01*
X204745692Y-78796762D01*
X204745688Y-78796763D01*
X204738834Y-78797474D01*
X204732298Y-78799655D01*
X204732296Y-78799655D01*
X204600194Y-78843728D01*
X204571054Y-78853450D01*
X204420652Y-78946522D01*
X204295695Y-79071697D01*
X204202885Y-79222262D01*
X204147203Y-79390139D01*
X204136500Y-79494600D01*
X204136500Y-79578073D01*
X204116498Y-79646194D01*
X204062842Y-79692687D01*
X203992568Y-79702791D01*
X203984303Y-79701320D01*
X203826944Y-79667872D01*
X203826939Y-79667872D01*
X203820487Y-79666500D01*
X203629513Y-79666500D01*
X203623061Y-79667872D01*
X203623056Y-79667872D01*
X203536113Y-79686353D01*
X203442712Y-79706206D01*
X203436682Y-79708891D01*
X203436681Y-79708891D01*
X203274278Y-79781197D01*
X203274276Y-79781198D01*
X203268248Y-79783882D01*
X203113747Y-79896134D01*
X203109326Y-79901044D01*
X203109325Y-79901045D01*
X202991686Y-80031697D01*
X202985960Y-80038056D01*
X202931050Y-80133163D01*
X202922330Y-80148267D01*
X202890473Y-80203444D01*
X202831458Y-80385072D01*
X202830768Y-80391633D01*
X202830768Y-80391635D01*
X202820948Y-80485072D01*
X202811496Y-80575000D01*
X197843500Y-80575000D01*
X197843500Y-80454600D01*
X197832526Y-80348834D01*
X197825732Y-80328468D01*
X197778868Y-80188002D01*
X197776550Y-80181054D01*
X197683478Y-80030652D01*
X197558303Y-79905695D01*
X197551053Y-79901226D01*
X197413968Y-79816725D01*
X197413966Y-79816724D01*
X197407738Y-79812885D01*
X197308592Y-79780000D01*
X197246389Y-79759368D01*
X197246387Y-79759368D01*
X197239861Y-79757203D01*
X197233025Y-79756503D01*
X197233022Y-79756502D01*
X197189969Y-79752091D01*
X197135400Y-79746500D01*
X196359600Y-79746500D01*
X196356354Y-79746837D01*
X196356350Y-79746837D01*
X196260692Y-79756762D01*
X196260688Y-79756763D01*
X196253834Y-79757474D01*
X196247298Y-79759655D01*
X196247296Y-79759655D01*
X196164159Y-79787392D01*
X196086054Y-79813450D01*
X195935652Y-79906522D01*
X195810695Y-80031697D01*
X195808094Y-80035916D01*
X195750970Y-80076417D01*
X195680047Y-80079649D01*
X195618635Y-80044024D01*
X195612078Y-80036470D01*
X195608478Y-80030652D01*
X195483303Y-79905695D01*
X195476053Y-79901226D01*
X195338968Y-79816725D01*
X195338966Y-79816724D01*
X195332738Y-79812885D01*
X195233592Y-79780000D01*
X195171389Y-79759368D01*
X195171387Y-79759368D01*
X195164861Y-79757203D01*
X195158025Y-79756503D01*
X195158022Y-79756502D01*
X195114969Y-79752091D01*
X195060400Y-79746500D01*
X194284600Y-79746500D01*
X194281354Y-79746837D01*
X194281350Y-79746837D01*
X194185692Y-79756762D01*
X194185688Y-79756763D01*
X194178834Y-79757474D01*
X194172298Y-79759655D01*
X194172296Y-79759655D01*
X194089159Y-79787392D01*
X194011054Y-79813450D01*
X193860652Y-79906522D01*
X193735695Y-80031697D01*
X193731853Y-80037929D01*
X193731852Y-80037931D01*
X193694037Y-80099277D01*
X193641265Y-80146770D01*
X193571193Y-80158192D01*
X193535530Y-80148267D01*
X193458323Y-80113892D01*
X193458315Y-80113889D01*
X193452288Y-80111206D01*
X193358887Y-80091353D01*
X193271944Y-80072872D01*
X193271939Y-80072872D01*
X193265487Y-80071500D01*
X193074513Y-80071500D01*
X193068061Y-80072872D01*
X193068056Y-80072872D01*
X192981113Y-80091353D01*
X192887712Y-80111206D01*
X192881682Y-80113891D01*
X192881681Y-80113891D01*
X192777310Y-80160360D01*
X192706943Y-80169794D01*
X192642646Y-80139688D01*
X192617612Y-80109399D01*
X192544453Y-79985693D01*
X192426807Y-79868047D01*
X192419983Y-79864011D01*
X192419980Y-79864009D01*
X192312340Y-79800351D01*
X192283601Y-79783355D01*
X192275990Y-79781144D01*
X192275988Y-79781143D01*
X192201036Y-79759368D01*
X192123831Y-79736938D01*
X192117426Y-79736434D01*
X192117421Y-79736433D01*
X192088958Y-79734193D01*
X192088950Y-79734193D01*
X192086502Y-79734000D01*
X191653498Y-79734000D01*
X191651050Y-79734193D01*
X191651042Y-79734193D01*
X191622579Y-79736433D01*
X191622574Y-79736434D01*
X191616169Y-79736938D01*
X191538964Y-79759368D01*
X191464012Y-79781143D01*
X191464010Y-79781144D01*
X191456399Y-79783355D01*
X191427660Y-79800351D01*
X191320020Y-79864009D01*
X191320017Y-79864011D01*
X191313193Y-79868047D01*
X191195547Y-79985693D01*
X191191511Y-79992517D01*
X191191509Y-79992520D01*
X191149665Y-80063275D01*
X191110855Y-80128899D01*
X191108644Y-80136510D01*
X191108643Y-80136512D01*
X191098974Y-80169794D01*
X191064438Y-80288669D01*
X191063934Y-80295074D01*
X191063933Y-80295079D01*
X191063275Y-80303444D01*
X191061500Y-80325998D01*
X191061500Y-81483000D01*
X191041498Y-81551121D01*
X190987842Y-81597614D01*
X190935500Y-81609000D01*
X190703498Y-81609000D01*
X190701050Y-81609193D01*
X190701042Y-81609193D01*
X190672579Y-81611433D01*
X190672574Y-81611434D01*
X190666169Y-81611938D01*
X190594027Y-81632897D01*
X190514012Y-81656143D01*
X190514010Y-81656144D01*
X190506399Y-81658355D01*
X190477589Y-81675393D01*
X190370020Y-81739009D01*
X190370017Y-81739011D01*
X190363193Y-81743047D01*
X190245547Y-81860693D01*
X190241511Y-81867517D01*
X190241509Y-81867520D01*
X190197758Y-81941500D01*
X190160855Y-82003899D01*
X190158644Y-82011510D01*
X190158643Y-82011512D01*
X190147957Y-82048296D01*
X190114438Y-82163669D01*
X190113934Y-82170074D01*
X190113933Y-82170079D01*
X190111693Y-82198542D01*
X190111500Y-82200998D01*
X190111500Y-83200405D01*
X190091498Y-83268526D01*
X190074595Y-83289500D01*
X190059500Y-83304595D01*
X189997188Y-83338621D01*
X189970405Y-83341500D01*
X189914513Y-83341500D01*
X189908061Y-83342872D01*
X189908056Y-83342872D01*
X189821113Y-83361353D01*
X189727712Y-83381206D01*
X189721682Y-83383891D01*
X189721681Y-83383891D01*
X189559278Y-83456197D01*
X189559276Y-83456198D01*
X189553248Y-83458882D01*
X189547907Y-83462762D01*
X189547906Y-83462763D01*
X189535140Y-83472038D01*
X189398747Y-83571134D01*
X189394326Y-83576044D01*
X189394325Y-83576045D01*
X189350575Y-83624635D01*
X189270960Y-83713056D01*
X189267659Y-83718774D01*
X189218619Y-83803713D01*
X189167236Y-83852706D01*
X189097523Y-83866142D01*
X189031612Y-83839756D01*
X188990430Y-83781923D01*
X188983500Y-83740713D01*
X188983500Y-82758768D01*
X188984027Y-82747584D01*
X188985702Y-82740091D01*
X188985453Y-82732165D01*
X188986199Y-82724274D01*
X188989099Y-82724548D01*
X188998680Y-82680217D01*
X189035139Y-82606447D01*
X189035140Y-82606445D01*
X189037430Y-82601811D01*
X189041724Y-82587680D01*
X189100865Y-82393023D01*
X189100865Y-82393021D01*
X189102370Y-82388069D01*
X189131529Y-82166590D01*
X189132126Y-82142152D01*
X189133074Y-82103365D01*
X189133074Y-82103361D01*
X189133156Y-82100000D01*
X189114852Y-81877361D01*
X189060431Y-81660702D01*
X188971354Y-81455840D01*
X188913310Y-81366118D01*
X188852822Y-81272617D01*
X188852820Y-81272614D01*
X188850014Y-81268277D01*
X188699670Y-81103051D01*
X188695619Y-81099852D01*
X188695615Y-81099848D01*
X188528414Y-80967800D01*
X188528410Y-80967798D01*
X188524359Y-80964598D01*
X188328789Y-80856638D01*
X188323920Y-80854914D01*
X188323916Y-80854912D01*
X188123087Y-80783795D01*
X188123083Y-80783794D01*
X188118212Y-80782069D01*
X188113119Y-80781162D01*
X188113116Y-80781161D01*
X187903373Y-80743800D01*
X187903367Y-80743799D01*
X187898284Y-80742894D01*
X187824452Y-80741992D01*
X187680081Y-80740228D01*
X187680079Y-80740228D01*
X187674911Y-80740165D01*
X187454091Y-80773955D01*
X187241756Y-80843357D01*
X187212926Y-80858365D01*
X187130939Y-80901045D01*
X187043607Y-80946507D01*
X187039474Y-80949610D01*
X187039471Y-80949612D01*
X186898777Y-81055248D01*
X186864965Y-81080635D01*
X186861393Y-81084373D01*
X186753729Y-81197037D01*
X186710629Y-81242138D01*
X186603201Y-81399621D01*
X186548293Y-81444621D01*
X186477768Y-81452792D01*
X186414021Y-81421538D01*
X186393324Y-81397054D01*
X186312822Y-81272617D01*
X186312820Y-81272614D01*
X186310014Y-81268277D01*
X186159670Y-81103051D01*
X186155619Y-81099852D01*
X186155615Y-81099848D01*
X185988414Y-80967800D01*
X185988410Y-80967798D01*
X185984359Y-80964598D01*
X185788789Y-80856638D01*
X185783920Y-80854914D01*
X185783916Y-80854912D01*
X185583087Y-80783795D01*
X185583083Y-80783794D01*
X185578212Y-80782069D01*
X185573119Y-80781162D01*
X185573116Y-80781161D01*
X185363373Y-80743800D01*
X185363367Y-80743799D01*
X185358284Y-80742894D01*
X185284452Y-80741992D01*
X185140081Y-80740228D01*
X185140079Y-80740228D01*
X185134911Y-80740165D01*
X184914091Y-80773955D01*
X184701756Y-80843357D01*
X184672926Y-80858365D01*
X184590939Y-80901045D01*
X184503607Y-80946507D01*
X184499474Y-80949610D01*
X184499471Y-80949612D01*
X184358777Y-81055248D01*
X184324965Y-81080635D01*
X184321393Y-81084373D01*
X184213729Y-81197037D01*
X184170629Y-81242138D01*
X184063201Y-81399621D01*
X184008293Y-81444621D01*
X183937768Y-81452792D01*
X183874021Y-81421538D01*
X183853324Y-81397054D01*
X183772822Y-81272617D01*
X183772820Y-81272614D01*
X183770014Y-81268277D01*
X183619670Y-81103051D01*
X183615619Y-81099852D01*
X183615615Y-81099848D01*
X183448414Y-80967800D01*
X183448410Y-80967798D01*
X183444359Y-80964598D01*
X183248789Y-80856638D01*
X183243920Y-80854914D01*
X183243916Y-80854912D01*
X183043087Y-80783795D01*
X183043083Y-80783794D01*
X183038212Y-80782069D01*
X183033119Y-80781162D01*
X183033116Y-80781161D01*
X182823373Y-80743800D01*
X182823367Y-80743799D01*
X182818284Y-80742894D01*
X182744452Y-80741992D01*
X182600081Y-80740228D01*
X182600079Y-80740228D01*
X182594911Y-80740165D01*
X182374091Y-80773955D01*
X182161756Y-80843357D01*
X182132926Y-80858365D01*
X182050939Y-80901045D01*
X181963607Y-80946507D01*
X181959474Y-80949610D01*
X181959471Y-80949612D01*
X181818777Y-81055248D01*
X181784965Y-81080635D01*
X181720569Y-81148022D01*
X181704283Y-81165064D01*
X181642759Y-81200494D01*
X181571846Y-81197037D01*
X181514060Y-81155791D01*
X181495207Y-81122243D01*
X181453767Y-81011703D01*
X181450615Y-81003295D01*
X181363261Y-80886739D01*
X181246705Y-80799385D01*
X181110316Y-80748255D01*
X181048134Y-80741500D01*
X179251866Y-80741500D01*
X179189684Y-80748255D01*
X179053295Y-80799385D01*
X178936739Y-80886739D01*
X178849385Y-81003295D01*
X178798255Y-81139684D01*
X178791500Y-81201866D01*
X178791500Y-82998134D01*
X175636979Y-82998134D01*
X175633006Y-79573223D01*
X175652929Y-79505079D01*
X175706531Y-79458524D01*
X175776793Y-79448339D01*
X175841408Y-79477757D01*
X175852632Y-79488756D01*
X175888747Y-79528866D01*
X176043248Y-79641118D01*
X176049276Y-79643802D01*
X176049278Y-79643803D01*
X176198670Y-79710316D01*
X176217712Y-79718794D01*
X176311113Y-79738647D01*
X176398056Y-79757128D01*
X176398061Y-79757128D01*
X176404513Y-79758500D01*
X176595487Y-79758500D01*
X176601939Y-79757128D01*
X176601944Y-79757128D01*
X176688887Y-79738647D01*
X176782288Y-79718794D01*
X176789551Y-79715560D01*
X176804047Y-79709107D01*
X176874415Y-79699673D01*
X176938711Y-79729780D01*
X176962438Y-79757910D01*
X177019022Y-79849348D01*
X177144197Y-79974305D01*
X177150427Y-79978145D01*
X177150428Y-79978146D01*
X177287590Y-80062694D01*
X177294762Y-80067115D01*
X177312119Y-80072872D01*
X177456111Y-80120632D01*
X177456113Y-80120632D01*
X177462639Y-80122797D01*
X177469475Y-80123497D01*
X177469478Y-80123498D01*
X177512531Y-80127909D01*
X177567100Y-80133500D01*
X178342900Y-80133500D01*
X178346146Y-80133163D01*
X178346150Y-80133163D01*
X178441808Y-80123238D01*
X178441812Y-80123237D01*
X178448666Y-80122526D01*
X178455202Y-80120345D01*
X178455204Y-80120345D01*
X178601609Y-80071500D01*
X178616446Y-80066550D01*
X178766848Y-79973478D01*
X178891805Y-79848303D01*
X178894406Y-79844084D01*
X178951530Y-79803583D01*
X179022453Y-79800351D01*
X179083865Y-79835976D01*
X179090422Y-79843530D01*
X179094022Y-79849348D01*
X179219197Y-79974305D01*
X179225427Y-79978145D01*
X179225428Y-79978146D01*
X179362590Y-80062694D01*
X179369762Y-80067115D01*
X179387119Y-80072872D01*
X179531111Y-80120632D01*
X179531113Y-80120632D01*
X179537639Y-80122797D01*
X179544475Y-80123497D01*
X179544478Y-80123498D01*
X179587531Y-80127909D01*
X179642100Y-80133500D01*
X180417900Y-80133500D01*
X180421146Y-80133163D01*
X180421150Y-80133163D01*
X180516808Y-80123238D01*
X180516812Y-80123237D01*
X180523666Y-80122526D01*
X180530202Y-80120345D01*
X180530204Y-80120345D01*
X180676609Y-80071500D01*
X180691446Y-80066550D01*
X180752113Y-80029008D01*
X180820565Y-80010170D01*
X180888335Y-80031331D01*
X180902728Y-80042517D01*
X180904325Y-80043955D01*
X180908747Y-80048866D01*
X180914089Y-80052747D01*
X180914091Y-80052749D01*
X181045560Y-80148267D01*
X181063248Y-80161118D01*
X181069276Y-80163802D01*
X181069278Y-80163803D01*
X181215449Y-80228882D01*
X181237712Y-80238794D01*
X181329386Y-80258280D01*
X181418056Y-80277128D01*
X181418061Y-80277128D01*
X181424513Y-80278500D01*
X181615487Y-80278500D01*
X181621939Y-80277128D01*
X181621944Y-80277128D01*
X181710614Y-80258280D01*
X181802288Y-80238794D01*
X181824551Y-80228882D01*
X181970722Y-80163803D01*
X181970724Y-80163802D01*
X181976752Y-80161118D01*
X182021098Y-80128899D01*
X182093332Y-80076417D01*
X182131253Y-80048866D01*
X182153141Y-80024557D01*
X182254621Y-79911852D01*
X182254622Y-79911851D01*
X182259040Y-79906944D01*
X182335178Y-79775070D01*
X182351223Y-79747279D01*
X182351224Y-79747278D01*
X182354527Y-79741556D01*
X182413542Y-79559928D01*
X182416116Y-79535443D01*
X182432814Y-79376565D01*
X182433504Y-79370000D01*
X182428537Y-79322738D01*
X182414232Y-79186635D01*
X182414232Y-79186633D01*
X182413542Y-79180072D01*
X182403128Y-79148022D01*
X182378894Y-79073436D01*
X182376867Y-79002468D01*
X182413529Y-78941671D01*
X182477241Y-78910345D01*
X182498727Y-78908500D01*
X184078134Y-78908500D01*
X184140316Y-78901745D01*
X184276705Y-78850615D01*
X184393261Y-78763261D01*
X184480615Y-78646705D01*
X184531745Y-78510316D01*
X184538500Y-78448134D01*
X184538500Y-76651866D01*
X184531745Y-76589684D01*
X184480615Y-76453295D01*
X184393261Y-76336739D01*
X184276705Y-76249385D01*
X184228266Y-76231226D01*
X184158203Y-76204960D01*
X184101439Y-76162318D01*
X184076739Y-76095756D01*
X184091947Y-76026408D01*
X184113493Y-75997727D01*
X184150058Y-75961290D01*
X184218096Y-75893489D01*
X184236617Y-75867715D01*
X184345435Y-75716277D01*
X184348453Y-75712077D01*
X184357667Y-75693435D01*
X184445136Y-75516453D01*
X184445137Y-75516451D01*
X184447430Y-75511811D01*
X184506886Y-75316118D01*
X184510865Y-75303023D01*
X184510865Y-75303021D01*
X184512370Y-75298069D01*
X184541529Y-75076590D01*
X184543156Y-75010000D01*
X184537573Y-74942095D01*
X204137001Y-74942095D01*
X204137338Y-74948614D01*
X204147257Y-75044206D01*
X204150149Y-75057600D01*
X204201588Y-75211784D01*
X204207761Y-75224962D01*
X204293063Y-75362807D01*
X204302099Y-75374208D01*
X204416829Y-75488739D01*
X204428240Y-75497751D01*
X204566243Y-75582816D01*
X204579424Y-75588963D01*
X204733710Y-75640138D01*
X204747086Y-75643005D01*
X204841438Y-75652672D01*
X204847854Y-75653000D01*
X205647885Y-75653000D01*
X205663124Y-75648525D01*
X205664329Y-75647135D01*
X205666000Y-75639452D01*
X205666000Y-75634884D01*
X206174000Y-75634884D01*
X206178475Y-75650123D01*
X206179865Y-75651328D01*
X206187548Y-75652999D01*
X206992095Y-75652999D01*
X206998614Y-75652662D01*
X207094206Y-75642743D01*
X207107600Y-75639851D01*
X207261784Y-75588412D01*
X207274962Y-75582239D01*
X207412807Y-75496937D01*
X207424208Y-75487901D01*
X207538739Y-75373171D01*
X207547751Y-75361760D01*
X207632816Y-75223757D01*
X207638963Y-75210576D01*
X207690138Y-75056290D01*
X207693005Y-75042914D01*
X207702672Y-74948562D01*
X207703000Y-74942146D01*
X207703000Y-74292115D01*
X207698525Y-74276876D01*
X207697135Y-74275671D01*
X207689452Y-74274000D01*
X206192115Y-74274000D01*
X206176876Y-74278475D01*
X206175671Y-74279865D01*
X206174000Y-74287548D01*
X206174000Y-75634884D01*
X205666000Y-75634884D01*
X205666000Y-74292115D01*
X205661525Y-74276876D01*
X205660135Y-74275671D01*
X205652452Y-74274000D01*
X204155116Y-74274000D01*
X204139877Y-74278475D01*
X204138672Y-74279865D01*
X204137001Y-74287548D01*
X204137001Y-74942095D01*
X184537573Y-74942095D01*
X184524852Y-74787361D01*
X184470431Y-74570702D01*
X184381354Y-74365840D01*
X184302480Y-74243919D01*
X184262822Y-74182617D01*
X184262820Y-74182614D01*
X184260014Y-74178277D01*
X184109670Y-74013051D01*
X184105619Y-74009852D01*
X184105615Y-74009848D01*
X183938414Y-73877800D01*
X183938410Y-73877798D01*
X183934359Y-73874598D01*
X183892569Y-73851529D01*
X183842598Y-73801097D01*
X183831279Y-73747885D01*
X204137000Y-73747885D01*
X204141475Y-73763124D01*
X204142865Y-73764329D01*
X204150548Y-73766000D01*
X205647885Y-73766000D01*
X205663124Y-73761525D01*
X205664329Y-73760135D01*
X205666000Y-73752452D01*
X205666000Y-73747885D01*
X206174000Y-73747885D01*
X206178475Y-73763124D01*
X206179865Y-73764329D01*
X206187548Y-73766000D01*
X207684884Y-73766000D01*
X207700123Y-73761525D01*
X207701328Y-73760135D01*
X207702999Y-73752452D01*
X207702999Y-73097905D01*
X207702662Y-73091386D01*
X207692743Y-72995794D01*
X207689851Y-72982400D01*
X207638412Y-72828216D01*
X207632239Y-72815038D01*
X207546937Y-72677193D01*
X207537901Y-72665792D01*
X207423171Y-72551261D01*
X207411760Y-72542249D01*
X207273757Y-72457184D01*
X207260576Y-72451037D01*
X207106290Y-72399862D01*
X207092914Y-72396995D01*
X206998562Y-72387328D01*
X206992145Y-72387000D01*
X206192115Y-72387000D01*
X206176876Y-72391475D01*
X206175671Y-72392865D01*
X206174000Y-72400548D01*
X206174000Y-73747885D01*
X205666000Y-73747885D01*
X205666000Y-72405116D01*
X205661525Y-72389877D01*
X205660135Y-72388672D01*
X205652452Y-72387001D01*
X204847905Y-72387001D01*
X204841386Y-72387338D01*
X204745794Y-72397257D01*
X204732400Y-72400149D01*
X204578216Y-72451588D01*
X204565038Y-72457761D01*
X204427193Y-72543063D01*
X204415792Y-72552099D01*
X204301261Y-72666829D01*
X204292249Y-72678240D01*
X204207184Y-72816243D01*
X204201037Y-72829424D01*
X204149862Y-72983710D01*
X204146995Y-72997086D01*
X204137328Y-73091438D01*
X204137000Y-73097855D01*
X204137000Y-73747885D01*
X183831279Y-73747885D01*
X183827826Y-73731654D01*
X183852942Y-73665248D01*
X183880294Y-73638641D01*
X184055328Y-73513792D01*
X184063200Y-73507139D01*
X184214052Y-73356812D01*
X184220730Y-73348965D01*
X184345003Y-73176020D01*
X184350313Y-73167183D01*
X184444670Y-72976267D01*
X184448469Y-72966672D01*
X184510377Y-72762910D01*
X184512555Y-72752837D01*
X184513986Y-72741962D01*
X184511775Y-72727778D01*
X184498617Y-72724000D01*
X181863225Y-72724000D01*
X181849694Y-72727973D01*
X181848257Y-72737966D01*
X181878565Y-72872446D01*
X181881645Y-72882275D01*
X181961770Y-73079603D01*
X181966413Y-73088794D01*
X182077694Y-73270388D01*
X182083777Y-73278699D01*
X182223213Y-73439667D01*
X182230580Y-73446883D01*
X182394434Y-73582916D01*
X182402881Y-73588831D01*
X182471969Y-73629203D01*
X182520693Y-73680842D01*
X182533764Y-73750625D01*
X182507033Y-73816396D01*
X182466584Y-73849752D01*
X182453607Y-73856507D01*
X182449474Y-73859610D01*
X182449471Y-73859612D01*
X182279100Y-73987530D01*
X182274965Y-73990635D01*
X182120629Y-74152138D01*
X182117715Y-74156410D01*
X182117714Y-74156411D01*
X182102798Y-74178277D01*
X181994743Y-74336680D01*
X181979003Y-74370590D01*
X181904281Y-74531565D01*
X181900688Y-74539305D01*
X181840989Y-74754570D01*
X181817251Y-74976695D01*
X181817548Y-74981848D01*
X181817548Y-74981851D01*
X181823011Y-75076590D01*
X181830110Y-75199715D01*
X181831247Y-75204761D01*
X181831248Y-75204767D01*
X181847379Y-75276342D01*
X181879222Y-75417639D01*
X181963266Y-75624616D01*
X181978897Y-75650123D01*
X182069598Y-75798134D01*
X182079987Y-75815088D01*
X182226250Y-75983938D01*
X182232095Y-75988791D01*
X182234981Y-75991187D01*
X182274616Y-76050090D01*
X182276113Y-76121071D01*
X182238997Y-76181593D01*
X182198724Y-76206112D01*
X182083295Y-76249385D01*
X181966739Y-76336739D01*
X181879385Y-76453295D01*
X181828255Y-76589684D01*
X181821500Y-76651866D01*
X181821500Y-78349692D01*
X181801498Y-78417813D01*
X181747842Y-78464306D01*
X181677568Y-78474410D01*
X181669303Y-78472939D01*
X181621944Y-78462872D01*
X181621939Y-78462872D01*
X181615487Y-78461500D01*
X181559595Y-78461500D01*
X181491474Y-78441498D01*
X181475862Y-78428916D01*
X181475539Y-78429283D01*
X181472574Y-78426669D01*
X181469770Y-78423865D01*
X181466573Y-78421385D01*
X181457551Y-78413680D01*
X181431100Y-78388841D01*
X181425321Y-78383414D01*
X181418375Y-78379595D01*
X181418372Y-78379593D01*
X181407566Y-78373652D01*
X181391047Y-78362801D01*
X181390583Y-78362441D01*
X181375041Y-78350386D01*
X181367772Y-78347241D01*
X181367768Y-78347238D01*
X181334463Y-78332826D01*
X181323813Y-78327609D01*
X181285060Y-78306305D01*
X181265437Y-78301267D01*
X181246734Y-78294863D01*
X181235420Y-78289967D01*
X181235419Y-78289967D01*
X181228145Y-78286819D01*
X181220322Y-78285580D01*
X181220312Y-78285577D01*
X181190639Y-78280877D01*
X181126486Y-78250464D01*
X181090828Y-78196305D01*
X181084068Y-78176041D01*
X181059050Y-78101054D01*
X180965978Y-77950652D01*
X180840803Y-77825695D01*
X180832341Y-77820479D01*
X180696468Y-77736725D01*
X180696466Y-77736724D01*
X180690238Y-77732885D01*
X180593188Y-77700695D01*
X180528889Y-77679368D01*
X180528887Y-77679368D01*
X180522361Y-77677203D01*
X180515525Y-77676503D01*
X180515522Y-77676502D01*
X180472469Y-77672091D01*
X180417900Y-77666500D01*
X179642100Y-77666500D01*
X179638854Y-77666837D01*
X179638850Y-77666837D01*
X179543192Y-77676762D01*
X179543188Y-77676763D01*
X179536334Y-77677474D01*
X179529798Y-77679655D01*
X179529796Y-77679655D01*
X179478245Y-77696854D01*
X179368554Y-77733450D01*
X179218152Y-77826522D01*
X179093195Y-77951697D01*
X179090594Y-77955916D01*
X179033470Y-77996417D01*
X178962547Y-77999649D01*
X178901135Y-77964024D01*
X178894578Y-77956470D01*
X178890978Y-77950652D01*
X178765803Y-77825695D01*
X178757341Y-77820479D01*
X178621468Y-77736725D01*
X178621466Y-77736724D01*
X178615238Y-77732885D01*
X178518188Y-77700695D01*
X178453889Y-77679368D01*
X178453887Y-77679368D01*
X178447361Y-77677203D01*
X178440525Y-77676503D01*
X178440522Y-77676502D01*
X178397469Y-77672091D01*
X178342900Y-77666500D01*
X177567100Y-77666500D01*
X177563854Y-77666837D01*
X177563850Y-77666837D01*
X177468192Y-77676762D01*
X177468188Y-77676763D01*
X177461334Y-77677474D01*
X177454798Y-77679655D01*
X177454796Y-77679655D01*
X177403245Y-77696854D01*
X177293554Y-77733450D01*
X177143152Y-77826522D01*
X177018195Y-77951697D01*
X177010951Y-77963448D01*
X176958183Y-78010941D01*
X176888112Y-78022367D01*
X176852442Y-78012440D01*
X176788327Y-77983894D01*
X176788321Y-77983892D01*
X176782288Y-77981206D01*
X176667844Y-77956880D01*
X176601944Y-77942872D01*
X176601939Y-77942872D01*
X176595487Y-77941500D01*
X176404513Y-77941500D01*
X176398061Y-77942872D01*
X176398056Y-77942872D01*
X176332156Y-77956880D01*
X176217712Y-77981206D01*
X176211682Y-77983891D01*
X176211681Y-77983891D01*
X176049278Y-78056197D01*
X176049276Y-78056198D01*
X176043248Y-78058882D01*
X175888747Y-78171134D01*
X175850963Y-78213097D01*
X175790519Y-78250335D01*
X175719535Y-78248983D01*
X175660551Y-78209469D01*
X175632293Y-78144339D01*
X175631329Y-78128931D01*
X175631299Y-78102262D01*
X175621779Y-69896695D01*
X181817251Y-69896695D01*
X181817548Y-69901848D01*
X181817548Y-69901851D01*
X181829550Y-70110004D01*
X181830110Y-70119715D01*
X181831247Y-70124761D01*
X181831248Y-70124767D01*
X181844074Y-70181677D01*
X181879222Y-70337639D01*
X181963266Y-70544616D01*
X182079987Y-70735088D01*
X182226250Y-70903938D01*
X182398126Y-71046632D01*
X182471955Y-71089774D01*
X182520679Y-71141412D01*
X182533750Y-71211195D01*
X182507019Y-71276967D01*
X182466562Y-71310327D01*
X182458457Y-71314546D01*
X182449738Y-71320036D01*
X182279433Y-71447905D01*
X182271726Y-71454748D01*
X182124590Y-71608717D01*
X182118104Y-71616727D01*
X181998098Y-71792649D01*
X181993000Y-71801623D01*
X181903338Y-71994783D01*
X181899775Y-72004470D01*
X181844389Y-72204183D01*
X181845912Y-72212607D01*
X181858292Y-72216000D01*
X184498344Y-72216000D01*
X184511875Y-72212027D01*
X184513180Y-72202947D01*
X184471214Y-72035875D01*
X184467894Y-72026124D01*
X184382972Y-71830814D01*
X184378105Y-71821739D01*
X184262426Y-71642926D01*
X184256136Y-71634757D01*
X184112806Y-71477240D01*
X184105273Y-71470215D01*
X183938139Y-71338222D01*
X183929556Y-71332520D01*
X183892602Y-71312120D01*
X183842631Y-71261687D01*
X183827859Y-71192245D01*
X183852975Y-71125839D01*
X183880327Y-71099232D01*
X183903797Y-71082491D01*
X184059860Y-70971173D01*
X184218096Y-70813489D01*
X184277594Y-70730689D01*
X184345435Y-70636277D01*
X184348453Y-70632077D01*
X184352410Y-70624072D01*
X184445136Y-70436453D01*
X184445137Y-70436451D01*
X184447430Y-70431811D01*
X184512370Y-70218069D01*
X184518423Y-70172095D01*
X207404501Y-70172095D01*
X207404838Y-70178614D01*
X207414757Y-70274206D01*
X207417649Y-70287600D01*
X207469088Y-70441784D01*
X207475261Y-70454962D01*
X207560563Y-70592807D01*
X207569599Y-70604208D01*
X207684329Y-70718739D01*
X207695740Y-70727751D01*
X207833743Y-70812816D01*
X207846924Y-70818963D01*
X208001210Y-70870138D01*
X208014586Y-70873005D01*
X208108938Y-70882672D01*
X208115354Y-70883000D01*
X208302885Y-70883000D01*
X208318124Y-70878525D01*
X208319329Y-70877135D01*
X208321000Y-70869452D01*
X208321000Y-69747115D01*
X208316525Y-69731876D01*
X208315135Y-69730671D01*
X208307452Y-69729000D01*
X207422616Y-69729000D01*
X207407377Y-69733475D01*
X207406172Y-69734865D01*
X207404501Y-69742548D01*
X207404501Y-70172095D01*
X184518423Y-70172095D01*
X184541529Y-69996590D01*
X184543156Y-69930000D01*
X184524852Y-69707361D01*
X184470431Y-69490702D01*
X184381354Y-69285840D01*
X184260014Y-69098277D01*
X184109670Y-68933051D01*
X184105619Y-68929852D01*
X184105615Y-68929848D01*
X183938414Y-68797800D01*
X183938410Y-68797798D01*
X183934359Y-68794598D01*
X183738789Y-68686638D01*
X183733920Y-68684914D01*
X183733916Y-68684912D01*
X183533087Y-68613795D01*
X183533083Y-68613794D01*
X183528212Y-68612069D01*
X183523119Y-68611162D01*
X183523116Y-68611161D01*
X183313373Y-68573800D01*
X183313367Y-68573799D01*
X183308284Y-68572894D01*
X183234452Y-68571992D01*
X183090081Y-68570228D01*
X183090079Y-68570228D01*
X183084911Y-68570165D01*
X182864091Y-68603955D01*
X182651756Y-68673357D01*
X182453607Y-68776507D01*
X182449474Y-68779610D01*
X182449471Y-68779612D01*
X182375111Y-68835443D01*
X182274965Y-68910635D01*
X182120629Y-69072138D01*
X181994743Y-69256680D01*
X181900688Y-69459305D01*
X181840989Y-69674570D01*
X181817251Y-69896695D01*
X175621779Y-69896695D01*
X175616571Y-65407095D01*
X213622001Y-65407095D01*
X213622338Y-65413614D01*
X213632257Y-65509206D01*
X213635149Y-65522600D01*
X213686588Y-65676784D01*
X213692761Y-65689962D01*
X213778063Y-65827807D01*
X213787099Y-65839208D01*
X213901829Y-65953739D01*
X213913240Y-65962751D01*
X214051243Y-66047816D01*
X214064424Y-66053963D01*
X214218710Y-66105138D01*
X214232086Y-66108005D01*
X214326438Y-66117672D01*
X214332854Y-66118000D01*
X214507885Y-66118000D01*
X214523124Y-66113525D01*
X214524329Y-66112135D01*
X214526000Y-66104452D01*
X214526000Y-66099884D01*
X215034000Y-66099884D01*
X215038475Y-66115123D01*
X215039865Y-66116328D01*
X215047548Y-66117999D01*
X215227095Y-66117999D01*
X215233614Y-66117662D01*
X215329206Y-66107743D01*
X215342600Y-66104851D01*
X215496784Y-66053412D01*
X215509962Y-66047239D01*
X215647807Y-65961937D01*
X215659208Y-65952901D01*
X215773739Y-65838171D01*
X215782751Y-65826760D01*
X215867816Y-65688757D01*
X215873963Y-65675576D01*
X215925138Y-65521290D01*
X215928005Y-65507914D01*
X215937672Y-65413562D01*
X215937834Y-65410400D01*
X218071500Y-65410400D01*
X218071837Y-65413646D01*
X218071837Y-65413650D01*
X218081752Y-65509206D01*
X218082474Y-65516166D01*
X218084655Y-65522702D01*
X218084655Y-65522704D01*
X218105190Y-65584255D01*
X218138450Y-65683946D01*
X218231522Y-65834348D01*
X218356697Y-65959305D01*
X218362927Y-65963145D01*
X218362928Y-65963146D01*
X218500288Y-66047816D01*
X218507262Y-66052115D01*
X218536703Y-66061880D01*
X218668611Y-66105632D01*
X218668613Y-66105632D01*
X218675139Y-66107797D01*
X218681975Y-66108497D01*
X218681978Y-66108498D01*
X218725031Y-66112909D01*
X218779600Y-66118500D01*
X219680400Y-66118500D01*
X219683646Y-66118163D01*
X219683650Y-66118163D01*
X219779308Y-66108238D01*
X219779312Y-66108237D01*
X219786166Y-66107526D01*
X219792702Y-66105345D01*
X219792704Y-66105345D01*
X219941651Y-66055652D01*
X219953946Y-66051550D01*
X220104348Y-65958478D01*
X220229305Y-65833303D01*
X220233338Y-65826760D01*
X220318275Y-65688968D01*
X220318276Y-65688966D01*
X220322115Y-65682738D01*
X220377797Y-65514861D01*
X220388500Y-65410400D01*
X220388500Y-65234500D01*
X220408502Y-65166379D01*
X220462158Y-65119886D01*
X220514500Y-65108500D01*
X223041502Y-65108500D01*
X223109623Y-65128502D01*
X223156116Y-65182158D01*
X223159484Y-65190270D01*
X223199385Y-65296705D01*
X223286739Y-65413261D01*
X223377013Y-65480918D01*
X223383965Y-65486128D01*
X223426479Y-65542988D01*
X223431504Y-65613806D01*
X223415832Y-65652788D01*
X223307073Y-65830268D01*
X223263333Y-65935866D01*
X223217012Y-66047694D01*
X223213195Y-66056908D01*
X223201043Y-66107526D01*
X223162384Y-66268553D01*
X223155928Y-66295443D01*
X223136681Y-66540000D01*
X223155928Y-66784557D01*
X223157082Y-66789364D01*
X223157083Y-66789370D01*
X223193351Y-66940437D01*
X223213195Y-67023092D01*
X223215088Y-67027663D01*
X223215089Y-67027665D01*
X223233754Y-67072725D01*
X223307073Y-67249732D01*
X223390262Y-67385485D01*
X223404426Y-67408598D01*
X223435248Y-67458896D01*
X223438463Y-67462660D01*
X223438465Y-67462663D01*
X223484352Y-67516389D01*
X223594567Y-67645433D01*
X223598323Y-67648641D01*
X223675069Y-67714189D01*
X223713878Y-67773640D01*
X223714384Y-67844635D01*
X223675069Y-67905811D01*
X223594567Y-67974567D01*
X223591359Y-67978323D01*
X223459350Y-68132885D01*
X223435248Y-68161104D01*
X223432660Y-68165327D01*
X223432658Y-68165330D01*
X223390778Y-68233673D01*
X223307073Y-68370268D01*
X223213195Y-68596908D01*
X223193946Y-68677086D01*
X223169332Y-68779612D01*
X223155928Y-68835443D01*
X223136681Y-69080000D01*
X223155928Y-69324557D01*
X223213195Y-69563092D01*
X223307073Y-69789732D01*
X223435248Y-69998896D01*
X223438463Y-70002660D01*
X223438465Y-70002663D01*
X223498937Y-70073466D01*
X223594567Y-70185433D01*
X223598323Y-70188641D01*
X223772776Y-70337639D01*
X223781104Y-70344752D01*
X223785327Y-70347340D01*
X223785330Y-70347342D01*
X223854515Y-70389738D01*
X223990268Y-70472927D01*
X224120533Y-70526885D01*
X224212335Y-70564911D01*
X224212337Y-70564912D01*
X224216908Y-70566805D01*
X224299563Y-70586649D01*
X224450630Y-70622917D01*
X224450636Y-70622918D01*
X224455443Y-70624072D01*
X224700000Y-70643319D01*
X224944557Y-70624072D01*
X224949364Y-70622918D01*
X224949370Y-70622917D01*
X225100437Y-70586649D01*
X225183092Y-70566805D01*
X225187663Y-70564912D01*
X225187665Y-70564911D01*
X225279467Y-70526885D01*
X225409732Y-70472927D01*
X225545485Y-70389738D01*
X225614670Y-70347342D01*
X225614673Y-70347340D01*
X225618896Y-70344752D01*
X225627225Y-70337639D01*
X225801677Y-70188641D01*
X225805433Y-70185433D01*
X225901063Y-70073466D01*
X225961535Y-70002663D01*
X225961537Y-70002660D01*
X225964752Y-69998896D01*
X226092927Y-69789732D01*
X226186805Y-69563092D01*
X226244072Y-69324557D01*
X226263319Y-69080000D01*
X226244072Y-68835443D01*
X226230669Y-68779612D01*
X226206054Y-68677086D01*
X226186805Y-68596908D01*
X226092927Y-68370268D01*
X226009222Y-68233673D01*
X225967342Y-68165330D01*
X225967340Y-68165327D01*
X225964752Y-68161104D01*
X225940651Y-68132885D01*
X225808641Y-67978323D01*
X225805433Y-67974567D01*
X225724931Y-67905811D01*
X225686122Y-67846360D01*
X225685616Y-67775365D01*
X225724931Y-67714189D01*
X225801677Y-67648641D01*
X225805433Y-67645433D01*
X225915648Y-67516389D01*
X225961535Y-67462663D01*
X225961537Y-67462660D01*
X225964752Y-67458896D01*
X225995575Y-67408598D01*
X226009738Y-67385485D01*
X226092927Y-67249732D01*
X226166246Y-67072725D01*
X226184911Y-67027665D01*
X226184912Y-67027663D01*
X226186805Y-67023092D01*
X226206649Y-66940437D01*
X226242917Y-66789370D01*
X226242918Y-66789364D01*
X226244072Y-66784557D01*
X226263319Y-66540000D01*
X226244072Y-66295443D01*
X226237617Y-66268553D01*
X226198957Y-66107526D01*
X226186805Y-66056908D01*
X226182989Y-66047694D01*
X226136667Y-65935866D01*
X226092927Y-65830268D01*
X225984168Y-65652788D01*
X225965630Y-65584255D01*
X225987087Y-65516578D01*
X226016035Y-65486128D01*
X226022987Y-65480918D01*
X226113261Y-65413261D01*
X226200615Y-65296705D01*
X226251745Y-65160316D01*
X226258500Y-65098134D01*
X226258500Y-62901866D01*
X226251745Y-62839684D01*
X226200615Y-62703295D01*
X226113261Y-62586739D01*
X225996705Y-62499385D01*
X225860316Y-62448255D01*
X225798134Y-62441500D01*
X223601866Y-62441500D01*
X223539684Y-62448255D01*
X223403295Y-62499385D01*
X223286739Y-62586739D01*
X223199385Y-62703295D01*
X223196233Y-62711703D01*
X223159484Y-62809730D01*
X223116842Y-62866494D01*
X223050281Y-62891194D01*
X223041502Y-62891500D01*
X220514500Y-62891500D01*
X220446379Y-62871498D01*
X220399886Y-62817842D01*
X220388500Y-62765500D01*
X220388500Y-62409600D01*
X220388163Y-62406350D01*
X220378238Y-62310692D01*
X220378237Y-62310688D01*
X220377526Y-62303834D01*
X220321550Y-62136054D01*
X220228478Y-61985652D01*
X220103303Y-61860695D01*
X220097072Y-61856854D01*
X219958968Y-61771725D01*
X219958966Y-61771724D01*
X219952738Y-61767885D01*
X219872995Y-61741436D01*
X219791389Y-61714368D01*
X219791387Y-61714368D01*
X219784861Y-61712203D01*
X219778025Y-61711503D01*
X219778022Y-61711502D01*
X219734969Y-61707091D01*
X219680400Y-61701500D01*
X218779600Y-61701500D01*
X218776354Y-61701837D01*
X218776350Y-61701837D01*
X218680692Y-61711762D01*
X218680688Y-61711763D01*
X218673834Y-61712474D01*
X218667298Y-61714655D01*
X218667296Y-61714655D01*
X218650928Y-61720116D01*
X218506054Y-61768450D01*
X218355652Y-61861522D01*
X218230695Y-61986697D01*
X218137885Y-62137262D01*
X218082203Y-62305139D01*
X218071500Y-62409600D01*
X218071500Y-65410400D01*
X215937834Y-65410400D01*
X215938000Y-65407146D01*
X215938000Y-64182115D01*
X215933525Y-64166876D01*
X215932135Y-64165671D01*
X215924452Y-64164000D01*
X215052115Y-64164000D01*
X215036876Y-64168475D01*
X215035671Y-64169865D01*
X215034000Y-64177548D01*
X215034000Y-66099884D01*
X214526000Y-66099884D01*
X214526000Y-64182115D01*
X214521525Y-64166876D01*
X214520135Y-64165671D01*
X214512452Y-64164000D01*
X213640116Y-64164000D01*
X213624877Y-64168475D01*
X213623672Y-64169865D01*
X213622001Y-64177548D01*
X213622001Y-65407095D01*
X175616571Y-65407095D01*
X175615260Y-64277095D01*
X209562001Y-64277095D01*
X209562338Y-64283614D01*
X209572257Y-64379206D01*
X209575149Y-64392600D01*
X209626588Y-64546784D01*
X209632761Y-64559962D01*
X209718063Y-64697807D01*
X209727099Y-64709208D01*
X209841829Y-64823739D01*
X209853240Y-64832751D01*
X209991243Y-64917816D01*
X210004424Y-64923963D01*
X210158710Y-64975138D01*
X210172086Y-64978005D01*
X210266438Y-64987672D01*
X210272854Y-64988000D01*
X211147885Y-64988000D01*
X211163124Y-64983525D01*
X211164329Y-64982135D01*
X211166000Y-64974452D01*
X211166000Y-64969884D01*
X211674000Y-64969884D01*
X211678475Y-64985123D01*
X211679865Y-64986328D01*
X211687548Y-64987999D01*
X212567095Y-64987999D01*
X212573614Y-64987662D01*
X212669206Y-64977743D01*
X212682600Y-64974851D01*
X212836784Y-64923412D01*
X212849962Y-64917239D01*
X212987807Y-64831937D01*
X212999208Y-64822901D01*
X213113739Y-64708171D01*
X213122751Y-64696760D01*
X213207816Y-64558757D01*
X213213963Y-64545576D01*
X213265138Y-64391290D01*
X213268005Y-64377914D01*
X213277672Y-64283562D01*
X213278000Y-64277146D01*
X213278000Y-64089615D01*
X213273525Y-64074376D01*
X213272135Y-64073171D01*
X213264452Y-64071500D01*
X211692115Y-64071500D01*
X211676876Y-64075975D01*
X211675671Y-64077365D01*
X211674000Y-64085048D01*
X211674000Y-64969884D01*
X211166000Y-64969884D01*
X211166000Y-64089615D01*
X211161525Y-64074376D01*
X211160135Y-64073171D01*
X211152452Y-64071500D01*
X209580116Y-64071500D01*
X209564877Y-64075975D01*
X209563672Y-64077365D01*
X209562001Y-64085048D01*
X209562001Y-64277095D01*
X175615260Y-64277095D01*
X175614518Y-63637885D01*
X213622000Y-63637885D01*
X213626475Y-63653124D01*
X213627865Y-63654329D01*
X213635548Y-63656000D01*
X214507885Y-63656000D01*
X214523124Y-63651525D01*
X214524329Y-63650135D01*
X214526000Y-63642452D01*
X214526000Y-63637885D01*
X215034000Y-63637885D01*
X215038475Y-63653124D01*
X215039865Y-63654329D01*
X215047548Y-63656000D01*
X215919884Y-63656000D01*
X215935123Y-63651525D01*
X215936328Y-63650135D01*
X215937999Y-63642452D01*
X215937999Y-62412905D01*
X215937662Y-62406386D01*
X215927743Y-62310794D01*
X215924851Y-62297400D01*
X215873412Y-62143216D01*
X215867239Y-62130038D01*
X215781937Y-61992193D01*
X215772901Y-61980792D01*
X215658171Y-61866261D01*
X215646760Y-61857249D01*
X215508757Y-61772184D01*
X215495576Y-61766037D01*
X215341290Y-61714862D01*
X215327914Y-61711995D01*
X215233562Y-61702328D01*
X215227145Y-61702000D01*
X215052115Y-61702000D01*
X215036876Y-61706475D01*
X215035671Y-61707865D01*
X215034000Y-61715548D01*
X215034000Y-63637885D01*
X214526000Y-63637885D01*
X214526000Y-61720116D01*
X214521525Y-61704877D01*
X214520135Y-61703672D01*
X214512452Y-61702001D01*
X214332905Y-61702001D01*
X214326386Y-61702338D01*
X214230794Y-61712257D01*
X214217400Y-61715149D01*
X214063216Y-61766588D01*
X214050038Y-61772761D01*
X213912193Y-61858063D01*
X213900792Y-61867099D01*
X213786261Y-61981829D01*
X213777249Y-61993240D01*
X213692184Y-62131243D01*
X213686037Y-62144424D01*
X213634862Y-62298710D01*
X213631995Y-62312086D01*
X213622328Y-62406438D01*
X213622000Y-62412855D01*
X213622000Y-63637885D01*
X175614518Y-63637885D01*
X175614411Y-63545385D01*
X209562000Y-63545385D01*
X209566475Y-63560624D01*
X209567865Y-63561829D01*
X209575548Y-63563500D01*
X211147885Y-63563500D01*
X211163124Y-63559025D01*
X211164329Y-63557635D01*
X211166000Y-63549952D01*
X211166000Y-63545385D01*
X211674000Y-63545385D01*
X211678475Y-63560624D01*
X211679865Y-63561829D01*
X211687548Y-63563500D01*
X213259884Y-63563500D01*
X213275123Y-63559025D01*
X213276328Y-63557635D01*
X213277999Y-63549952D01*
X213277999Y-63357905D01*
X213277662Y-63351386D01*
X213267743Y-63255794D01*
X213264851Y-63242400D01*
X213213412Y-63088216D01*
X213207239Y-63075038D01*
X213121937Y-62937193D01*
X213112901Y-62925792D01*
X212998171Y-62811261D01*
X212986760Y-62802249D01*
X212848757Y-62717184D01*
X212835576Y-62711037D01*
X212681290Y-62659862D01*
X212667914Y-62656995D01*
X212573562Y-62647328D01*
X212567145Y-62647000D01*
X211692115Y-62647000D01*
X211676876Y-62651475D01*
X211675671Y-62652865D01*
X211674000Y-62660548D01*
X211674000Y-63545385D01*
X211166000Y-63545385D01*
X211166000Y-62665116D01*
X211161525Y-62649877D01*
X211160135Y-62648672D01*
X211152452Y-62647001D01*
X210272905Y-62647001D01*
X210266386Y-62647338D01*
X210170794Y-62657257D01*
X210157400Y-62660149D01*
X210003216Y-62711588D01*
X209990038Y-62717761D01*
X209852193Y-62803063D01*
X209840792Y-62812099D01*
X209726261Y-62926829D01*
X209717249Y-62938240D01*
X209632184Y-63076243D01*
X209626037Y-63089424D01*
X209574862Y-63243710D01*
X209571995Y-63257086D01*
X209562328Y-63351438D01*
X209562000Y-63357855D01*
X209562000Y-63545385D01*
X175614411Y-63545385D01*
X175609201Y-59054645D01*
X175629124Y-58986502D01*
X175682726Y-58939947D01*
X175735201Y-58928500D01*
X229997500Y-58928500D01*
X230065621Y-58948502D01*
G37*
%TD.AperFunction*%
%TD*%
M02*
