%TF.GenerationSoftware,KiCad,Pcbnew,6.0.11-2627ca5db0~126~ubuntu22.04.1*%
%TF.CreationDate,2023-03-03T15:01:49-05:00*%
%TF.ProjectId,lin-valve-control,6c696e2d-7661-46c7-9665-2d636f6e7472,1.0*%
%TF.SameCoordinates,Original*%
%TF.FileFunction,Paste,Bot*%
%TF.FilePolarity,Positive*%
%FSLAX46Y46*%
G04 Gerber Fmt 4.6, Leading zero omitted, Abs format (unit mm)*
G04 Created by KiCad (PCBNEW 6.0.11-2627ca5db0~126~ubuntu22.04.1) date 2023-03-03 15:01:49*
%MOMM*%
%LPD*%
G01*
G04 APERTURE LIST*
G04 Aperture macros list*
%AMRoundRect*
0 Rectangle with rounded corners*
0 $1 Rounding radius*
0 $2 $3 $4 $5 $6 $7 $8 $9 X,Y pos of 4 corners*
0 Add a 4 corners polygon primitive as box body*
4,1,4,$2,$3,$4,$5,$6,$7,$8,$9,$2,$3,0*
0 Add four circle primitives for the rounded corners*
1,1,$1+$1,$2,$3*
1,1,$1+$1,$4,$5*
1,1,$1+$1,$6,$7*
1,1,$1+$1,$8,$9*
0 Add four rect primitives between the rounded corners*
20,1,$1+$1,$2,$3,$4,$5,0*
20,1,$1+$1,$4,$5,$6,$7,0*
20,1,$1+$1,$6,$7,$8,$9,0*
20,1,$1+$1,$8,$9,$2,$3,0*%
G04 Aperture macros list end*
%ADD10C,1.879600*%
%ADD11R,1.879600X1.879600*%
%ADD12RoundRect,0.250000X-0.350000X-0.450000X0.350000X-0.450000X0.350000X0.450000X-0.350000X0.450000X0*%
%ADD13RoundRect,0.250000X-0.450000X0.350000X-0.450000X-0.350000X0.450000X-0.350000X0.450000X0.350000X0*%
%ADD14RoundRect,0.250000X0.350000X0.450000X-0.350000X0.450000X-0.350000X-0.450000X0.350000X-0.450000X0*%
%ADD15RoundRect,0.250000X0.475000X-0.337500X0.475000X0.337500X-0.475000X0.337500X-0.475000X-0.337500X0*%
%ADD16RoundRect,0.250000X0.450000X-0.350000X0.450000X0.350000X-0.450000X0.350000X-0.450000X-0.350000X0*%
%ADD17R,0.900000X1.200000*%
%ADD18RoundRect,0.250000X-0.475000X0.337500X-0.475000X-0.337500X0.475000X-0.337500X0.475000X0.337500X0*%
G04 APERTURE END LIST*
D10*
%TO.C,J1*%
X213820000Y-91800000D03*
X216360000Y-91800000D03*
X218900000Y-91800000D03*
X221440000Y-91800000D03*
X223980000Y-91800000D03*
D11*
X226520000Y-91800000D03*
%TD*%
D12*
%TO.C,R6*%
X217870000Y-95090000D03*
X219870000Y-95090000D03*
%TD*%
D13*
%TO.C,R11*%
X209025000Y-71525000D03*
X209025000Y-73525000D03*
%TD*%
D12*
%TO.C,R3*%
X195650000Y-89750000D03*
X197650000Y-89750000D03*
%TD*%
%TO.C,R7*%
X182400000Y-84725000D03*
X184400000Y-84725000D03*
%TD*%
D14*
%TO.C,R4*%
X201425000Y-89750000D03*
X199425000Y-89750000D03*
%TD*%
D15*
%TO.C,C2*%
X221775000Y-68750000D03*
X221775000Y-66675000D03*
%TD*%
D12*
%TO.C,R8*%
X186375000Y-84775000D03*
X188375000Y-84775000D03*
%TD*%
%TO.C,R9*%
X182300000Y-88450000D03*
X184300000Y-88450000D03*
%TD*%
%TO.C,R17*%
X205250000Y-80100000D03*
X207250000Y-80100000D03*
%TD*%
D16*
%TO.C,R5*%
X202720000Y-86370000D03*
X202720000Y-84370000D03*
%TD*%
D13*
%TO.C,R15*%
X209050000Y-90475000D03*
X209050000Y-92475000D03*
%TD*%
D12*
%TO.C,R14*%
X220225000Y-82425000D03*
X222225000Y-82425000D03*
%TD*%
%TO.C,R12*%
X203975000Y-93800000D03*
X205975000Y-93800000D03*
%TD*%
D14*
%TO.C,R10*%
X190525000Y-88425000D03*
X188525000Y-88425000D03*
%TD*%
D17*
%TO.C,D2*%
X216090000Y-95040000D03*
X212790000Y-95040000D03*
%TD*%
D18*
%TO.C,C12*%
X209075000Y-94675000D03*
X209075000Y-96750000D03*
%TD*%
D12*
%TO.C,R13*%
X220225000Y-84975000D03*
X222225000Y-84975000D03*
%TD*%
M02*
