M48
; DRILL file {KiCad 6.0.11-2627ca5db0~126~ubuntu22.04.1} date Fri 03 Mar 2023 12:15:40 PM EST
; FORMAT={-:-/ absolute / inch / decimal}
; #@! TF.CreationDate,2023-03-03T12:15:40-05:00
; #@! TF.GenerationSoftware,Kicad,Pcbnew,6.0.11-2627ca5db0~126~ubuntu22.04.1
; #@! TF.FileFunction,Plated,1,4,PTH
FMAT,2
INCH
; #@! TA.AperFunction,Plated,PTH,ComponentDrill
T1C0.0118
; #@! TA.AperFunction,Plated,PTH,ViaDrill
T2C0.0157
; #@! TA.AperFunction,Plated,PTH,ComponentDrill
T3C0.0394
; #@! TA.AperFunction,Plated,PTH,ComponentDrill
T4C0.0400
; #@! TA.AperFunction,Plated,PTH,ComponentDrill
T5C0.0433
%
G90
G05
T1
X8.2756Y-3.0236
X8.2756Y-3.0669
X8.2756Y-3.1102
X8.3189Y-3.0236
X8.3189Y-3.0669
X8.3189Y-3.1102
X8.3622Y-3.0236
X8.3622Y-3.0669
X8.3622Y-3.1102
X8.4055Y-3.0236
X8.4055Y-3.0669
X8.4055Y-3.1102
X8.4488Y-3.0236
X8.4488Y-3.0669
X8.4488Y-3.1102
T2
X6.9488Y-3.1043
X6.9803Y-3.3657
X7.1465Y-3.1248
X7.1634Y-3.5453
X7.3002Y-3.5561
X7.3799Y-3.56
X7.4807Y-3.3169
X7.502Y-3.5423
X7.5303Y-3.3453
X7.5917Y-3.4882
X7.6051Y-3.1882
X7.6118Y-3.6319
X7.6467Y-3.5315
X7.7457Y-3.2492
X7.7746Y-3.688
X7.7963Y-3.4547
X7.8415Y-3.4537
X7.8425Y-3.2116
X7.8937Y-3.2618
X7.8957Y-3.622
X7.9398Y-3.6319
X7.9506Y-3.698
X7.9854Y-3.2551
X7.9862Y-3.4715
X8.0035Y-3.8395
X8.0207Y-3.1722
X8.0211Y-3.4532
X8.0441Y-3.4039
X8.0738Y-3.625
X8.0748Y-3.7441
X8.1028Y-3.0732
X8.1189Y-3.6339
X8.1217Y-3.7737
X8.1348Y-3.5335
X8.1368Y-3.81
X8.1677Y-3.5618
X8.1713Y-3.6201
X8.1742Y-3.685
X8.1831Y-3.4689
X8.1939Y-3.2264
X8.2185Y-3.4516
X8.2224Y-2.6343
X8.2234Y-3.1762
X8.2343Y-2.9803
X8.2519Y-3.2303
X8.2579Y-3.4484
X8.2776Y-2.7254
X8.2786Y-3.3512
X8.2933Y-3.6742
X8.2937Y-3.7205
X8.2972Y-2.814
X8.2982Y-2.872
X8.3081Y-3.2303
X8.3219Y-3.7579
X8.3219Y-3.8071
X8.3258Y-3.3691
X8.3278Y-3.6949
X8.3435Y-2.9045
X8.3523Y-3.2303
X8.3563Y-3.5827
X8.3848Y-3.4616
X8.3986Y-3.2313
X8.4232Y-3.2963
X8.4478Y-3.249
X8.4587Y-2.9016
X8.6122Y-3.3425
X8.6929Y-2.9341
X8.8587Y-3.7453
T3
X7.0925Y-3.2323
X7.1925Y-3.2323
X7.2118Y-2.7531
X7.2118Y-2.8531
X7.2118Y-2.9531
X7.2118Y-3.0531
X7.2925Y-3.2323
X7.3925Y-3.2323
T4
X8.4181Y-3.6142
X8.5181Y-3.6142
X8.6181Y-3.6142
X8.7181Y-3.6142
X8.8181Y-3.6142
X8.9181Y-3.6142
T5
X8.8465Y-2.5197
X8.8465Y-2.6197
X8.8465Y-2.7197
X8.8504Y-2.9409
X8.8504Y-3.0409
X8.8504Y-3.1409
X8.8504Y-3.2409
X8.8504Y-3.3409
T0
M30
