%TF.GenerationSoftware,KiCad,Pcbnew,6.0.11-2627ca5db0~126~ubuntu22.04.1*%
%TF.CreationDate,2023-03-03T12:17:20-05:00*%
%TF.ProjectId,lin-valve-control,6c696e2d-7661-46c7-9665-2d636f6e7472,1.0*%
%TF.SameCoordinates,Original*%
%TF.FileFunction,Legend,Top*%
%TF.FilePolarity,Positive*%
%FSLAX46Y46*%
G04 Gerber Fmt 4.6, Leading zero omitted, Abs format (unit mm)*
G04 Created by KiCad (PCBNEW 6.0.11-2627ca5db0~126~ubuntu22.04.1) date 2023-03-03 12:17:20*
%MOMM*%
%LPD*%
G01*
G04 APERTURE LIST*
%ADD10C,0.150000*%
%ADD11C,0.127000*%
%ADD12C,0.101600*%
%ADD13C,0.066040*%
%ADD14C,0.120000*%
%ADD15C,0.010000*%
G04 APERTURE END LIST*
D10*
X178151428Y-93455714D02*
X178389523Y-94122380D01*
X178627619Y-93455714D01*
X179532380Y-94122380D02*
X178960952Y-94122380D01*
X179246666Y-94122380D02*
X179246666Y-93122380D01*
X179151428Y-93265238D01*
X179056190Y-93360476D01*
X178960952Y-93408095D01*
X179960952Y-94027142D02*
X180008571Y-94074761D01*
X179960952Y-94122380D01*
X179913333Y-94074761D01*
X179960952Y-94027142D01*
X179960952Y-94122380D01*
X180627619Y-93122380D02*
X180722857Y-93122380D01*
X180818095Y-93170000D01*
X180865714Y-93217619D01*
X180913333Y-93312857D01*
X180960952Y-93503333D01*
X180960952Y-93741428D01*
X180913333Y-93931904D01*
X180865714Y-94027142D01*
X180818095Y-94074761D01*
X180722857Y-94122380D01*
X180627619Y-94122380D01*
X180532380Y-94074761D01*
X180484761Y-94027142D01*
X180437142Y-93931904D01*
X180389523Y-93741428D01*
X180389523Y-93503333D01*
X180437142Y-93312857D01*
X180484761Y-93217619D01*
X180532380Y-93170000D01*
X180627619Y-93122380D01*
X178109047Y-98083333D02*
X178061428Y-98035714D01*
X177966190Y-97892857D01*
X177918571Y-97797619D01*
X177870952Y-97654761D01*
X177823333Y-97416666D01*
X177823333Y-97226190D01*
X177870952Y-96988095D01*
X177918571Y-96845238D01*
X177966190Y-96750000D01*
X178061428Y-96607142D01*
X178109047Y-96559523D01*
X178918571Y-97654761D02*
X178823333Y-97702380D01*
X178632857Y-97702380D01*
X178537619Y-97654761D01*
X178490000Y-97607142D01*
X178442380Y-97511904D01*
X178442380Y-97226190D01*
X178490000Y-97130952D01*
X178537619Y-97083333D01*
X178632857Y-97035714D01*
X178823333Y-97035714D01*
X178918571Y-97083333D01*
X179251904Y-98083333D02*
X179299523Y-98035714D01*
X179394761Y-97892857D01*
X179442380Y-97797619D01*
X179490000Y-97654761D01*
X179537619Y-97416666D01*
X179537619Y-97226190D01*
X179490000Y-96988095D01*
X179442380Y-96845238D01*
X179394761Y-96750000D01*
X179299523Y-96607142D01*
X179251904Y-96559523D01*
X180728095Y-96797619D02*
X180775714Y-96750000D01*
X180870952Y-96702380D01*
X181109047Y-96702380D01*
X181204285Y-96750000D01*
X181251904Y-96797619D01*
X181299523Y-96892857D01*
X181299523Y-96988095D01*
X181251904Y-97130952D01*
X180680476Y-97702380D01*
X181299523Y-97702380D01*
X181918571Y-96702380D02*
X182013809Y-96702380D01*
X182109047Y-96750000D01*
X182156666Y-96797619D01*
X182204285Y-96892857D01*
X182251904Y-97083333D01*
X182251904Y-97321428D01*
X182204285Y-97511904D01*
X182156666Y-97607142D01*
X182109047Y-97654761D01*
X182013809Y-97702380D01*
X181918571Y-97702380D01*
X181823333Y-97654761D01*
X181775714Y-97607142D01*
X181728095Y-97511904D01*
X181680476Y-97321428D01*
X181680476Y-97083333D01*
X181728095Y-96892857D01*
X181775714Y-96797619D01*
X181823333Y-96750000D01*
X181918571Y-96702380D01*
X182632857Y-96797619D02*
X182680476Y-96750000D01*
X182775714Y-96702380D01*
X183013809Y-96702380D01*
X183109047Y-96750000D01*
X183156666Y-96797619D01*
X183204285Y-96892857D01*
X183204285Y-96988095D01*
X183156666Y-97130952D01*
X182585238Y-97702380D01*
X183204285Y-97702380D01*
X183537619Y-96702380D02*
X184156666Y-96702380D01*
X183823333Y-97083333D01*
X183966190Y-97083333D01*
X184061428Y-97130952D01*
X184109047Y-97178571D01*
X184156666Y-97273809D01*
X184156666Y-97511904D01*
X184109047Y-97607142D01*
X184061428Y-97654761D01*
X183966190Y-97702380D01*
X183680476Y-97702380D01*
X183585238Y-97654761D01*
X183537619Y-97607142D01*
X185870952Y-96750000D02*
X185775714Y-96702380D01*
X185632857Y-96702380D01*
X185490000Y-96750000D01*
X185394761Y-96845238D01*
X185347142Y-96940476D01*
X185299523Y-97130952D01*
X185299523Y-97273809D01*
X185347142Y-97464285D01*
X185394761Y-97559523D01*
X185490000Y-97654761D01*
X185632857Y-97702380D01*
X185728095Y-97702380D01*
X185870952Y-97654761D01*
X185918571Y-97607142D01*
X185918571Y-97273809D01*
X185728095Y-97273809D01*
X186775714Y-97702380D02*
X186775714Y-97178571D01*
X186728095Y-97083333D01*
X186632857Y-97035714D01*
X186442380Y-97035714D01*
X186347142Y-97083333D01*
X186775714Y-97654761D02*
X186680476Y-97702380D01*
X186442380Y-97702380D01*
X186347142Y-97654761D01*
X186299523Y-97559523D01*
X186299523Y-97464285D01*
X186347142Y-97369047D01*
X186442380Y-97321428D01*
X186680476Y-97321428D01*
X186775714Y-97273809D01*
X187156666Y-97035714D02*
X187394761Y-97702380D01*
X187632857Y-97035714D01*
X188013809Y-97702380D02*
X188013809Y-97035714D01*
X188013809Y-96702380D02*
X187966190Y-96750000D01*
X188013809Y-96797619D01*
X188061428Y-96750000D01*
X188013809Y-96702380D01*
X188013809Y-96797619D01*
X188490000Y-97035714D02*
X188490000Y-97702380D01*
X188490000Y-97130952D02*
X188537619Y-97083333D01*
X188632857Y-97035714D01*
X188775714Y-97035714D01*
X188870952Y-97083333D01*
X188918571Y-97178571D01*
X188918571Y-97702380D01*
X190156666Y-97702380D02*
X190156666Y-96702380D01*
X190156666Y-97178571D02*
X190728095Y-97178571D01*
X190728095Y-97702380D02*
X190728095Y-96702380D01*
X191632857Y-97035714D02*
X191632857Y-97702380D01*
X191204285Y-97035714D02*
X191204285Y-97559523D01*
X191251904Y-97654761D01*
X191347142Y-97702380D01*
X191490000Y-97702380D01*
X191585238Y-97654761D01*
X191632857Y-97607142D01*
X192109047Y-97702380D02*
X192109047Y-97035714D01*
X192109047Y-97226190D02*
X192156666Y-97130952D01*
X192204285Y-97083333D01*
X192299523Y-97035714D01*
X192394761Y-97035714D01*
X192870952Y-97702380D02*
X192775714Y-97654761D01*
X192728095Y-97559523D01*
X192728095Y-96702380D01*
X193251904Y-97702380D02*
X193251904Y-96702380D01*
X193251904Y-97083333D02*
X193347142Y-97035714D01*
X193537619Y-97035714D01*
X193632857Y-97083333D01*
X193680476Y-97130952D01*
X193728095Y-97226190D01*
X193728095Y-97511904D01*
X193680476Y-97607142D01*
X193632857Y-97654761D01*
X193537619Y-97702380D01*
X193347142Y-97702380D01*
X193251904Y-97654761D01*
X194585238Y-97035714D02*
X194585238Y-97702380D01*
X194156666Y-97035714D02*
X194156666Y-97559523D01*
X194204285Y-97654761D01*
X194299523Y-97702380D01*
X194442380Y-97702380D01*
X194537619Y-97654761D01*
X194585238Y-97607142D01*
X194918571Y-97035714D02*
X195299523Y-97035714D01*
X195061428Y-96702380D02*
X195061428Y-97559523D01*
X195109047Y-97654761D01*
X195204285Y-97702380D01*
X195299523Y-97702380D01*
X178121904Y-96042380D02*
X177645714Y-96042380D01*
X177645714Y-95042380D01*
X178455238Y-96042380D02*
X178455238Y-95042380D01*
X178931428Y-96042380D02*
X178931428Y-95042380D01*
X179502857Y-96042380D01*
X179502857Y-95042380D01*
X180312380Y-95518571D02*
X180455238Y-95566190D01*
X180502857Y-95613809D01*
X180550476Y-95709047D01*
X180550476Y-95851904D01*
X180502857Y-95947142D01*
X180455238Y-95994761D01*
X180360000Y-96042380D01*
X179979047Y-96042380D01*
X179979047Y-95042380D01*
X180312380Y-95042380D01*
X180407619Y-95090000D01*
X180455238Y-95137619D01*
X180502857Y-95232857D01*
X180502857Y-95328095D01*
X180455238Y-95423333D01*
X180407619Y-95470952D01*
X180312380Y-95518571D01*
X179979047Y-95518571D01*
X181407619Y-95375714D02*
X181407619Y-96042380D01*
X180979047Y-95375714D02*
X180979047Y-95899523D01*
X181026666Y-95994761D01*
X181121904Y-96042380D01*
X181264761Y-96042380D01*
X181360000Y-95994761D01*
X181407619Y-95947142D01*
X181836190Y-95994761D02*
X181931428Y-96042380D01*
X182121904Y-96042380D01*
X182217142Y-95994761D01*
X182264761Y-95899523D01*
X182264761Y-95851904D01*
X182217142Y-95756666D01*
X182121904Y-95709047D01*
X181979047Y-95709047D01*
X181883809Y-95661428D01*
X181836190Y-95566190D01*
X181836190Y-95518571D01*
X181883809Y-95423333D01*
X181979047Y-95375714D01*
X182121904Y-95375714D01*
X182217142Y-95423333D01*
X183312380Y-95042380D02*
X183645714Y-96042380D01*
X183979047Y-95042380D01*
X184740952Y-96042380D02*
X184740952Y-95518571D01*
X184693333Y-95423333D01*
X184598095Y-95375714D01*
X184407619Y-95375714D01*
X184312380Y-95423333D01*
X184740952Y-95994761D02*
X184645714Y-96042380D01*
X184407619Y-96042380D01*
X184312380Y-95994761D01*
X184264761Y-95899523D01*
X184264761Y-95804285D01*
X184312380Y-95709047D01*
X184407619Y-95661428D01*
X184645714Y-95661428D01*
X184740952Y-95613809D01*
X185360000Y-96042380D02*
X185264761Y-95994761D01*
X185217142Y-95899523D01*
X185217142Y-95042380D01*
X185645714Y-95375714D02*
X185883809Y-96042380D01*
X186121904Y-95375714D01*
X186883809Y-95994761D02*
X186788571Y-96042380D01*
X186598095Y-96042380D01*
X186502857Y-95994761D01*
X186455238Y-95899523D01*
X186455238Y-95518571D01*
X186502857Y-95423333D01*
X186598095Y-95375714D01*
X186788571Y-95375714D01*
X186883809Y-95423333D01*
X186931428Y-95518571D01*
X186931428Y-95613809D01*
X186455238Y-95709047D01*
X188693333Y-95947142D02*
X188645714Y-95994761D01*
X188502857Y-96042380D01*
X188407619Y-96042380D01*
X188264761Y-95994761D01*
X188169523Y-95899523D01*
X188121904Y-95804285D01*
X188074285Y-95613809D01*
X188074285Y-95470952D01*
X188121904Y-95280476D01*
X188169523Y-95185238D01*
X188264761Y-95090000D01*
X188407619Y-95042380D01*
X188502857Y-95042380D01*
X188645714Y-95090000D01*
X188693333Y-95137619D01*
X189264761Y-96042380D02*
X189169523Y-95994761D01*
X189121904Y-95947142D01*
X189074285Y-95851904D01*
X189074285Y-95566190D01*
X189121904Y-95470952D01*
X189169523Y-95423333D01*
X189264761Y-95375714D01*
X189407619Y-95375714D01*
X189502857Y-95423333D01*
X189550476Y-95470952D01*
X189598095Y-95566190D01*
X189598095Y-95851904D01*
X189550476Y-95947142D01*
X189502857Y-95994761D01*
X189407619Y-96042380D01*
X189264761Y-96042380D01*
X190026666Y-95375714D02*
X190026666Y-96042380D01*
X190026666Y-95470952D02*
X190074285Y-95423333D01*
X190169523Y-95375714D01*
X190312380Y-95375714D01*
X190407619Y-95423333D01*
X190455238Y-95518571D01*
X190455238Y-96042380D01*
X190788571Y-95375714D02*
X191169523Y-95375714D01*
X190931428Y-95042380D02*
X190931428Y-95899523D01*
X190979047Y-95994761D01*
X191074285Y-96042380D01*
X191169523Y-96042380D01*
X191502857Y-96042380D02*
X191502857Y-95375714D01*
X191502857Y-95566190D02*
X191550476Y-95470952D01*
X191598095Y-95423333D01*
X191693333Y-95375714D01*
X191788571Y-95375714D01*
X192264761Y-96042380D02*
X192169523Y-95994761D01*
X192121904Y-95947142D01*
X192074285Y-95851904D01*
X192074285Y-95566190D01*
X192121904Y-95470952D01*
X192169523Y-95423333D01*
X192264761Y-95375714D01*
X192407619Y-95375714D01*
X192502857Y-95423333D01*
X192550476Y-95470952D01*
X192598095Y-95566190D01*
X192598095Y-95851904D01*
X192550476Y-95947142D01*
X192502857Y-95994761D01*
X192407619Y-96042380D01*
X192264761Y-96042380D01*
X193169523Y-96042380D02*
X193074285Y-95994761D01*
X193026666Y-95899523D01*
X193026666Y-95042380D01*
X193693333Y-96042380D02*
X193598095Y-95994761D01*
X193550476Y-95899523D01*
X193550476Y-95042380D01*
X194455238Y-95994761D02*
X194360000Y-96042380D01*
X194169523Y-96042380D01*
X194074285Y-95994761D01*
X194026666Y-95899523D01*
X194026666Y-95518571D01*
X194074285Y-95423333D01*
X194169523Y-95375714D01*
X194360000Y-95375714D01*
X194455238Y-95423333D01*
X194502857Y-95518571D01*
X194502857Y-95613809D01*
X194026666Y-95709047D01*
X194931428Y-96042380D02*
X194931428Y-95375714D01*
X194931428Y-95566190D02*
X194979047Y-95470952D01*
X195026666Y-95423333D01*
X195121904Y-95375714D01*
X195217142Y-95375714D01*
X220027380Y-70509523D02*
X220027380Y-70985714D01*
X219027380Y-70985714D01*
X220027380Y-70176190D02*
X219027380Y-70176190D01*
X220027380Y-69700000D02*
X219027380Y-69700000D01*
X220027380Y-69128571D01*
X219027380Y-69128571D01*
X219503571Y-68319047D02*
X219551190Y-68176190D01*
X219598809Y-68128571D01*
X219694047Y-68080952D01*
X219836904Y-68080952D01*
X219932142Y-68128571D01*
X219979761Y-68176190D01*
X220027380Y-68271428D01*
X220027380Y-68652380D01*
X219027380Y-68652380D01*
X219027380Y-68319047D01*
X219075000Y-68223809D01*
X219122619Y-68176190D01*
X219217857Y-68128571D01*
X219313095Y-68128571D01*
X219408333Y-68176190D01*
X219455952Y-68223809D01*
X219503571Y-68319047D01*
X219503571Y-68652380D01*
X219360714Y-67223809D02*
X220027380Y-67223809D01*
X219360714Y-67652380D02*
X219884523Y-67652380D01*
X219979761Y-67604761D01*
X220027380Y-67509523D01*
X220027380Y-67366666D01*
X219979761Y-67271428D01*
X219932142Y-67223809D01*
X219979761Y-66795238D02*
X220027380Y-66700000D01*
X220027380Y-66509523D01*
X219979761Y-66414285D01*
X219884523Y-66366666D01*
X219836904Y-66366666D01*
X219741666Y-66414285D01*
X219694047Y-66509523D01*
X219694047Y-66652380D01*
X219646428Y-66747619D01*
X219551190Y-66795238D01*
X219503571Y-66795238D01*
X219408333Y-66747619D01*
X219360714Y-66652380D01*
X219360714Y-66509523D01*
X219408333Y-66414285D01*
X219027380Y-80682142D02*
X220027380Y-80348809D01*
X219027380Y-80015476D01*
X220027380Y-79253571D02*
X219503571Y-79253571D01*
X219408333Y-79301190D01*
X219360714Y-79396428D01*
X219360714Y-79586904D01*
X219408333Y-79682142D01*
X219979761Y-79253571D02*
X220027380Y-79348809D01*
X220027380Y-79586904D01*
X219979761Y-79682142D01*
X219884523Y-79729761D01*
X219789285Y-79729761D01*
X219694047Y-79682142D01*
X219646428Y-79586904D01*
X219646428Y-79348809D01*
X219598809Y-79253571D01*
X220027380Y-78634523D02*
X219979761Y-78729761D01*
X219884523Y-78777380D01*
X219027380Y-78777380D01*
X219360714Y-78348809D02*
X220027380Y-78110714D01*
X219360714Y-77872619D01*
X219979761Y-77110714D02*
X220027380Y-77205952D01*
X220027380Y-77396428D01*
X219979761Y-77491666D01*
X219884523Y-77539285D01*
X219503571Y-77539285D01*
X219408333Y-77491666D01*
X219360714Y-77396428D01*
X219360714Y-77205952D01*
X219408333Y-77110714D01*
X219503571Y-77063095D01*
X219598809Y-77063095D01*
X219694047Y-77539285D01*
X181488095Y-85202380D02*
X181488095Y-84202380D01*
X181916666Y-84297619D02*
X181964285Y-84250000D01*
X182059523Y-84202380D01*
X182297619Y-84202380D01*
X182392857Y-84250000D01*
X182440476Y-84297619D01*
X182488095Y-84392857D01*
X182488095Y-84488095D01*
X182440476Y-84630952D01*
X181869047Y-85202380D01*
X182488095Y-85202380D01*
X183488095Y-85107142D02*
X183440476Y-85154761D01*
X183297619Y-85202380D01*
X183202380Y-85202380D01*
X183059523Y-85154761D01*
X182964285Y-85059523D01*
X182916666Y-84964285D01*
X182869047Y-84773809D01*
X182869047Y-84630952D01*
X182916666Y-84440476D01*
X182964285Y-84345238D01*
X183059523Y-84250000D01*
X183202380Y-84202380D01*
X183297619Y-84202380D01*
X183440476Y-84250000D01*
X183488095Y-84297619D01*
X185154761Y-85202380D02*
X184678571Y-85202380D01*
X184678571Y-84202380D01*
X186059523Y-85107142D02*
X186011904Y-85154761D01*
X185869047Y-85202380D01*
X185773809Y-85202380D01*
X185630952Y-85154761D01*
X185535714Y-85059523D01*
X185488095Y-84964285D01*
X185440476Y-84773809D01*
X185440476Y-84630952D01*
X185488095Y-84440476D01*
X185535714Y-84345238D01*
X185630952Y-84250000D01*
X185773809Y-84202380D01*
X185869047Y-84202380D01*
X186011904Y-84250000D01*
X186059523Y-84297619D01*
X186488095Y-85202380D02*
X186488095Y-84202380D01*
X186726190Y-84202380D01*
X186869047Y-84250000D01*
X186964285Y-84345238D01*
X187011904Y-84440476D01*
X187059523Y-84630952D01*
X187059523Y-84773809D01*
X187011904Y-84964285D01*
X186964285Y-85059523D01*
X186869047Y-85154761D01*
X186726190Y-85202380D01*
X186488095Y-85202380D01*
D11*
%TO.C,J1*%
X227364523Y-96123333D02*
X228271666Y-96123333D01*
X228453095Y-96183809D01*
X228574047Y-96304761D01*
X228634523Y-96486190D01*
X228634523Y-96607142D01*
X228634523Y-94853333D02*
X228634523Y-95579047D01*
X228634523Y-95216190D02*
X227364523Y-95216190D01*
X227545952Y-95337142D01*
X227666904Y-95458095D01*
X227727380Y-95579047D01*
D12*
X221894761Y-88654523D02*
X221894761Y-89682619D01*
X221955238Y-89803571D01*
X222015714Y-89864047D01*
X222136666Y-89924523D01*
X222378571Y-89924523D01*
X222499523Y-89864047D01*
X222560000Y-89803571D01*
X222620476Y-89682619D01*
X222620476Y-88654523D01*
X223225238Y-89924523D02*
X223225238Y-88654523D01*
X223709047Y-88654523D01*
X223830000Y-88715000D01*
X223890476Y-88775476D01*
X223950952Y-88896428D01*
X223950952Y-89077857D01*
X223890476Y-89198809D01*
X223830000Y-89259285D01*
X223709047Y-89319761D01*
X223225238Y-89319761D01*
X224495238Y-89924523D02*
X224495238Y-88654523D01*
X224797619Y-88654523D01*
X224979047Y-88715000D01*
X225100000Y-88835952D01*
X225160476Y-88956904D01*
X225220952Y-89198809D01*
X225220952Y-89380238D01*
X225160476Y-89622142D01*
X225100000Y-89743095D01*
X224979047Y-89864047D01*
X224797619Y-89924523D01*
X224495238Y-89924523D01*
X225765238Y-89924523D02*
X225765238Y-88654523D01*
D10*
X213294600Y-95609904D02*
X213246980Y-95705142D01*
X213246980Y-95848000D01*
X213294600Y-95990857D01*
X213389838Y-96086095D01*
X213485076Y-96133714D01*
X213675552Y-96181333D01*
X213818409Y-96181333D01*
X214008885Y-96133714D01*
X214104123Y-96086095D01*
X214199361Y-95990857D01*
X214246980Y-95848000D01*
X214246980Y-95752761D01*
X214199361Y-95609904D01*
X214151742Y-95562285D01*
X213818409Y-95562285D01*
X213818409Y-95752761D01*
X214246980Y-95133714D02*
X213246980Y-95133714D01*
X214246980Y-94562285D01*
X213246980Y-94562285D01*
X214246980Y-94086095D02*
X213246980Y-94086095D01*
X213246980Y-93848000D01*
X213294600Y-93705142D01*
X213389838Y-93609904D01*
X213485076Y-93562285D01*
X213675552Y-93514666D01*
X213818409Y-93514666D01*
X214008885Y-93562285D01*
X214104123Y-93609904D01*
X214199361Y-93705142D01*
X214246980Y-93848000D01*
X214246980Y-94086095D01*
X220917780Y-96160704D02*
X220917780Y-95589276D01*
X221917780Y-95874990D02*
X220917780Y-95874990D01*
X220917780Y-95351180D02*
X221917780Y-94684514D01*
X220917780Y-94684514D02*
X221917780Y-95351180D01*
X221917780Y-94303561D02*
X220917780Y-94303561D01*
X220917780Y-94065466D01*
X220965400Y-93922609D01*
X221060638Y-93827371D01*
X221155876Y-93779752D01*
X221346352Y-93732133D01*
X221489209Y-93732133D01*
X221679685Y-93779752D01*
X221774923Y-93827371D01*
X221870161Y-93922609D01*
X221917780Y-94065466D01*
X221917780Y-94303561D01*
X224457780Y-95616266D02*
X223981590Y-95949600D01*
X224457780Y-96187695D02*
X223457780Y-96187695D01*
X223457780Y-95806742D01*
X223505400Y-95711504D01*
X223553019Y-95663885D01*
X223648257Y-95616266D01*
X223791114Y-95616266D01*
X223886352Y-95663885D01*
X223933971Y-95711504D01*
X223981590Y-95806742D01*
X223981590Y-96187695D01*
X223457780Y-95282933D02*
X224457780Y-94616266D01*
X223457780Y-94616266D02*
X224457780Y-95282933D01*
X224457780Y-94235314D02*
X223457780Y-94235314D01*
X223457780Y-93997219D01*
X223505400Y-93854361D01*
X223600638Y-93759123D01*
X223695876Y-93711504D01*
X223886352Y-93663885D01*
X224029209Y-93663885D01*
X224219685Y-93711504D01*
X224314923Y-93759123D01*
X224410161Y-93854361D01*
X224457780Y-93997219D01*
X224457780Y-94235314D01*
D12*
X228535000Y-93027619D02*
X228474523Y-93148571D01*
X228474523Y-93330000D01*
X228535000Y-93511428D01*
X228655952Y-93632380D01*
X228776904Y-93692857D01*
X229018809Y-93753333D01*
X229200238Y-93753333D01*
X229442142Y-93692857D01*
X229563095Y-93632380D01*
X229684047Y-93511428D01*
X229744523Y-93330000D01*
X229744523Y-93209047D01*
X229684047Y-93027619D01*
X229623571Y-92967142D01*
X229200238Y-92967142D01*
X229200238Y-93209047D01*
X229744523Y-91697142D02*
X229139761Y-92120476D01*
X229744523Y-92422857D02*
X228474523Y-92422857D01*
X228474523Y-91939047D01*
X228535000Y-91818095D01*
X228595476Y-91757619D01*
X228716428Y-91697142D01*
X228897857Y-91697142D01*
X229018809Y-91757619D01*
X229079285Y-91818095D01*
X229139761Y-91939047D01*
X229139761Y-92422857D01*
X229744523Y-91152857D02*
X228474523Y-91152857D01*
X229744523Y-90427142D01*
X228474523Y-90427142D01*
X211609285Y-94008333D02*
X211669761Y-93826904D01*
X211730238Y-93766428D01*
X211851190Y-93705952D01*
X212032619Y-93705952D01*
X212153571Y-93766428D01*
X212214047Y-93826904D01*
X212274523Y-93947857D01*
X212274523Y-94431666D01*
X211004523Y-94431666D01*
X211004523Y-94008333D01*
X211065000Y-93887380D01*
X211125476Y-93826904D01*
X211246428Y-93766428D01*
X211367380Y-93766428D01*
X211488333Y-93826904D01*
X211548809Y-93887380D01*
X211609285Y-94008333D01*
X211609285Y-94431666D01*
X212274523Y-92556904D02*
X212274523Y-93161666D01*
X211004523Y-93161666D01*
X212274523Y-92133571D02*
X211004523Y-92133571D01*
X212274523Y-91407857D02*
X211548809Y-91952142D01*
X211004523Y-91407857D02*
X211730238Y-92133571D01*
D10*
X218276180Y-96181333D02*
X219276180Y-95848000D01*
X218276180Y-95514666D01*
X219180942Y-94609904D02*
X219228561Y-94657523D01*
X219276180Y-94800380D01*
X219276180Y-94895619D01*
X219228561Y-95038476D01*
X219133323Y-95133714D01*
X219038085Y-95181333D01*
X218847609Y-95228952D01*
X218704752Y-95228952D01*
X218514276Y-95181333D01*
X218419038Y-95133714D01*
X218323800Y-95038476D01*
X218276180Y-94895619D01*
X218276180Y-94800380D01*
X218323800Y-94657523D01*
X218371419Y-94609904D01*
X219180942Y-93609904D02*
X219228561Y-93657523D01*
X219276180Y-93800380D01*
X219276180Y-93895619D01*
X219228561Y-94038476D01*
X219133323Y-94133714D01*
X219038085Y-94181333D01*
X218847609Y-94228952D01*
X218704752Y-94228952D01*
X218514276Y-94181333D01*
X218419038Y-94133714D01*
X218323800Y-94038476D01*
X218276180Y-93895619D01*
X218276180Y-93800380D01*
X218323800Y-93657523D01*
X218371419Y-93609904D01*
X216717142Y-95294019D02*
X216764761Y-95341638D01*
X216812380Y-95484495D01*
X216812380Y-95579733D01*
X216764761Y-95722590D01*
X216669523Y-95817828D01*
X216574285Y-95865447D01*
X216383809Y-95913066D01*
X216240952Y-95913066D01*
X216050476Y-95865447D01*
X215955238Y-95817828D01*
X215860000Y-95722590D01*
X215812380Y-95579733D01*
X215812380Y-95484495D01*
X215860000Y-95341638D01*
X215907619Y-95294019D01*
X215812380Y-95008304D02*
X215812380Y-94436876D01*
X216812380Y-94722590D02*
X215812380Y-94722590D01*
X216764761Y-94151161D02*
X216812380Y-94008304D01*
X216812380Y-93770209D01*
X216764761Y-93674971D01*
X216717142Y-93627352D01*
X216621904Y-93579733D01*
X216526666Y-93579733D01*
X216431428Y-93627352D01*
X216383809Y-93674971D01*
X216336190Y-93770209D01*
X216288571Y-93960685D01*
X216240952Y-94055923D01*
X216193333Y-94103542D01*
X216098095Y-94151161D01*
X216002857Y-94151161D01*
X215907619Y-94103542D01*
X215860000Y-94055923D01*
X215812380Y-93960685D01*
X215812380Y-93722590D01*
X215860000Y-93579733D01*
X226972380Y-96016257D02*
X225972380Y-96016257D01*
X225972380Y-95778161D01*
X226020000Y-95635304D01*
X226115238Y-95540066D01*
X226210476Y-95492447D01*
X226400952Y-95444828D01*
X226543809Y-95444828D01*
X226734285Y-95492447D01*
X226829523Y-95540066D01*
X226924761Y-95635304D01*
X226972380Y-95778161D01*
X226972380Y-96016257D01*
X225972380Y-95159114D02*
X225972380Y-94587685D01*
X226972380Y-94873400D02*
X225972380Y-94873400D01*
X226972380Y-93682923D02*
X226496190Y-94016257D01*
X226972380Y-94254352D02*
X225972380Y-94254352D01*
X225972380Y-93873400D01*
X226020000Y-93778161D01*
X226067619Y-93730542D01*
X226162857Y-93682923D01*
X226305714Y-93682923D01*
X226400952Y-93730542D01*
X226448571Y-93778161D01*
X226496190Y-93873400D01*
X226496190Y-94254352D01*
%TO.C,U5*%
X213677380Y-86986904D02*
X214486904Y-86986904D01*
X214582142Y-86939285D01*
X214629761Y-86891666D01*
X214677380Y-86796428D01*
X214677380Y-86605952D01*
X214629761Y-86510714D01*
X214582142Y-86463095D01*
X214486904Y-86415476D01*
X213677380Y-86415476D01*
X213677380Y-85463095D02*
X213677380Y-85939285D01*
X214153571Y-85986904D01*
X214105952Y-85939285D01*
X214058333Y-85844047D01*
X214058333Y-85605952D01*
X214105952Y-85510714D01*
X214153571Y-85463095D01*
X214248809Y-85415476D01*
X214486904Y-85415476D01*
X214582142Y-85463095D01*
X214629761Y-85510714D01*
X214677380Y-85605952D01*
X214677380Y-85844047D01*
X214629761Y-85939285D01*
X214582142Y-85986904D01*
X214072619Y-82975000D02*
X213834523Y-82975000D01*
X213929761Y-82736904D02*
X213834523Y-82975000D01*
X213929761Y-83213095D01*
X213644047Y-82832142D02*
X213834523Y-82975000D01*
X213644047Y-83117857D01*
%TO.C,C8*%
X204873333Y-72117142D02*
X204825714Y-72164761D01*
X204682857Y-72212380D01*
X204587619Y-72212380D01*
X204444761Y-72164761D01*
X204349523Y-72069523D01*
X204301904Y-71974285D01*
X204254285Y-71783809D01*
X204254285Y-71640952D01*
X204301904Y-71450476D01*
X204349523Y-71355238D01*
X204444761Y-71260000D01*
X204587619Y-71212380D01*
X204682857Y-71212380D01*
X204825714Y-71260000D01*
X204873333Y-71307619D01*
X205444761Y-71640952D02*
X205349523Y-71593333D01*
X205301904Y-71545714D01*
X205254285Y-71450476D01*
X205254285Y-71402857D01*
X205301904Y-71307619D01*
X205349523Y-71260000D01*
X205444761Y-71212380D01*
X205635238Y-71212380D01*
X205730476Y-71260000D01*
X205778095Y-71307619D01*
X205825714Y-71402857D01*
X205825714Y-71450476D01*
X205778095Y-71545714D01*
X205730476Y-71593333D01*
X205635238Y-71640952D01*
X205444761Y-71640952D01*
X205349523Y-71688571D01*
X205301904Y-71736190D01*
X205254285Y-71831428D01*
X205254285Y-72021904D01*
X205301904Y-72117142D01*
X205349523Y-72164761D01*
X205444761Y-72212380D01*
X205635238Y-72212380D01*
X205730476Y-72164761D01*
X205778095Y-72117142D01*
X205825714Y-72021904D01*
X205825714Y-71831428D01*
X205778095Y-71736190D01*
X205730476Y-71688571D01*
X205635238Y-71640952D01*
%TO.C,U4*%
X194038095Y-82292380D02*
X194038095Y-83101904D01*
X194085714Y-83197142D01*
X194133333Y-83244761D01*
X194228571Y-83292380D01*
X194419047Y-83292380D01*
X194514285Y-83244761D01*
X194561904Y-83197142D01*
X194609523Y-83101904D01*
X194609523Y-82292380D01*
X195514285Y-82625714D02*
X195514285Y-83292380D01*
X195276190Y-82244761D02*
X195038095Y-82959047D01*
X195657142Y-82959047D01*
%TO.C,U3*%
X181618095Y-66142380D02*
X181618095Y-66951904D01*
X181665714Y-67047142D01*
X181713333Y-67094761D01*
X181808571Y-67142380D01*
X181999047Y-67142380D01*
X182094285Y-67094761D01*
X182141904Y-67047142D01*
X182189523Y-66951904D01*
X182189523Y-66142380D01*
X182570476Y-66142380D02*
X183189523Y-66142380D01*
X182856190Y-66523333D01*
X182999047Y-66523333D01*
X183094285Y-66570952D01*
X183141904Y-66618571D01*
X183189523Y-66713809D01*
X183189523Y-66951904D01*
X183141904Y-67047142D01*
X183094285Y-67094761D01*
X182999047Y-67142380D01*
X182713333Y-67142380D01*
X182618095Y-67094761D01*
X182570476Y-67047142D01*
X185124642Y-66457180D02*
X185457976Y-67457180D01*
X185791309Y-66457180D01*
X186267500Y-67457180D02*
X186172261Y-67409561D01*
X186124642Y-67361942D01*
X186077023Y-67266704D01*
X186077023Y-66980990D01*
X186124642Y-66885752D01*
X186172261Y-66838133D01*
X186267500Y-66790514D01*
X186410357Y-66790514D01*
X186505595Y-66838133D01*
X186553214Y-66885752D01*
X186600833Y-66980990D01*
X186600833Y-67266704D01*
X186553214Y-67361942D01*
X186505595Y-67409561D01*
X186410357Y-67457180D01*
X186267500Y-67457180D01*
X187172261Y-67457180D02*
X187077023Y-67409561D01*
X187029404Y-67314323D01*
X187029404Y-66457180D01*
X187410357Y-66790514D02*
X187791309Y-66790514D01*
X187553214Y-66457180D02*
X187553214Y-67314323D01*
X187600833Y-67409561D01*
X187696071Y-67457180D01*
X187791309Y-67457180D01*
X188553214Y-67457180D02*
X188553214Y-66933371D01*
X188505595Y-66838133D01*
X188410357Y-66790514D01*
X188219880Y-66790514D01*
X188124642Y-66838133D01*
X188553214Y-67409561D02*
X188457976Y-67457180D01*
X188219880Y-67457180D01*
X188124642Y-67409561D01*
X188077023Y-67314323D01*
X188077023Y-67219085D01*
X188124642Y-67123847D01*
X188219880Y-67076228D01*
X188457976Y-67076228D01*
X188553214Y-67028609D01*
X189457976Y-66790514D02*
X189457976Y-67600038D01*
X189410357Y-67695276D01*
X189362738Y-67742895D01*
X189267500Y-67790514D01*
X189124642Y-67790514D01*
X189029404Y-67742895D01*
X189457976Y-67409561D02*
X189362738Y-67457180D01*
X189172261Y-67457180D01*
X189077023Y-67409561D01*
X189029404Y-67361942D01*
X188981785Y-67266704D01*
X188981785Y-66980990D01*
X189029404Y-66885752D01*
X189077023Y-66838133D01*
X189172261Y-66790514D01*
X189362738Y-66790514D01*
X189457976Y-66838133D01*
X190315119Y-67409561D02*
X190219880Y-67457180D01*
X190029404Y-67457180D01*
X189934166Y-67409561D01*
X189886547Y-67314323D01*
X189886547Y-66933371D01*
X189934166Y-66838133D01*
X190029404Y-66790514D01*
X190219880Y-66790514D01*
X190315119Y-66838133D01*
X190362738Y-66933371D01*
X190362738Y-67028609D01*
X189886547Y-67123847D01*
X192124642Y-67457180D02*
X191791309Y-66980990D01*
X191553214Y-67457180D02*
X191553214Y-66457180D01*
X191934166Y-66457180D01*
X192029404Y-66504800D01*
X192077023Y-66552419D01*
X192124642Y-66647657D01*
X192124642Y-66790514D01*
X192077023Y-66885752D01*
X192029404Y-66933371D01*
X191934166Y-66980990D01*
X191553214Y-66980990D01*
X192934166Y-67409561D02*
X192838928Y-67457180D01*
X192648452Y-67457180D01*
X192553214Y-67409561D01*
X192505595Y-67314323D01*
X192505595Y-66933371D01*
X192553214Y-66838133D01*
X192648452Y-66790514D01*
X192838928Y-66790514D01*
X192934166Y-66838133D01*
X192981785Y-66933371D01*
X192981785Y-67028609D01*
X192505595Y-67123847D01*
X193838928Y-66790514D02*
X193838928Y-67600038D01*
X193791309Y-67695276D01*
X193743690Y-67742895D01*
X193648452Y-67790514D01*
X193505595Y-67790514D01*
X193410357Y-67742895D01*
X193838928Y-67409561D02*
X193743690Y-67457180D01*
X193553214Y-67457180D01*
X193457976Y-67409561D01*
X193410357Y-67361942D01*
X193362738Y-67266704D01*
X193362738Y-66980990D01*
X193410357Y-66885752D01*
X193457976Y-66838133D01*
X193553214Y-66790514D01*
X193743690Y-66790514D01*
X193838928Y-66838133D01*
X194743690Y-66790514D02*
X194743690Y-67457180D01*
X194315119Y-66790514D02*
X194315119Y-67314323D01*
X194362738Y-67409561D01*
X194457976Y-67457180D01*
X194600833Y-67457180D01*
X194696071Y-67409561D01*
X194743690Y-67361942D01*
X195362738Y-67457180D02*
X195267500Y-67409561D01*
X195219880Y-67314323D01*
X195219880Y-66457180D01*
X196172261Y-67457180D02*
X196172261Y-66933371D01*
X196124642Y-66838133D01*
X196029404Y-66790514D01*
X195838928Y-66790514D01*
X195743690Y-66838133D01*
X196172261Y-67409561D02*
X196077023Y-67457180D01*
X195838928Y-67457180D01*
X195743690Y-67409561D01*
X195696071Y-67314323D01*
X195696071Y-67219085D01*
X195743690Y-67123847D01*
X195838928Y-67076228D01*
X196077023Y-67076228D01*
X196172261Y-67028609D01*
X196505595Y-66790514D02*
X196886547Y-66790514D01*
X196648452Y-66457180D02*
X196648452Y-67314323D01*
X196696071Y-67409561D01*
X196791309Y-67457180D01*
X196886547Y-67457180D01*
X197362738Y-67457180D02*
X197267500Y-67409561D01*
X197219880Y-67361942D01*
X197172261Y-67266704D01*
X197172261Y-66980990D01*
X197219880Y-66885752D01*
X197267500Y-66838133D01*
X197362738Y-66790514D01*
X197505595Y-66790514D01*
X197600833Y-66838133D01*
X197648452Y-66885752D01*
X197696071Y-66980990D01*
X197696071Y-67266704D01*
X197648452Y-67361942D01*
X197600833Y-67409561D01*
X197505595Y-67457180D01*
X197362738Y-67457180D01*
X198124642Y-67457180D02*
X198124642Y-66790514D01*
X198124642Y-66980990D02*
X198172261Y-66885752D01*
X198219880Y-66838133D01*
X198315119Y-66790514D01*
X198410357Y-66790514D01*
X180005804Y-69651171D02*
X180339138Y-69651171D01*
X180481995Y-70174980D02*
X180005804Y-70174980D01*
X180005804Y-69174980D01*
X180481995Y-69174980D01*
X180910566Y-70174980D02*
X180910566Y-69174980D01*
X181481995Y-70174980D01*
X181481995Y-69174980D01*
X179524795Y-74480400D02*
X179429557Y-74432780D01*
X179286700Y-74432780D01*
X179143842Y-74480400D01*
X179048604Y-74575638D01*
X179000985Y-74670876D01*
X178953366Y-74861352D01*
X178953366Y-75004209D01*
X179000985Y-75194685D01*
X179048604Y-75289923D01*
X179143842Y-75385161D01*
X179286700Y-75432780D01*
X179381938Y-75432780D01*
X179524795Y-75385161D01*
X179572414Y-75337542D01*
X179572414Y-75004209D01*
X179381938Y-75004209D01*
X180000985Y-75432780D02*
X180000985Y-74432780D01*
X180572414Y-75432780D01*
X180572414Y-74432780D01*
X181048604Y-75432780D02*
X181048604Y-74432780D01*
X181286700Y-74432780D01*
X181429557Y-74480400D01*
X181524795Y-74575638D01*
X181572414Y-74670876D01*
X181620033Y-74861352D01*
X181620033Y-75004209D01*
X181572414Y-75194685D01*
X181524795Y-75289923D01*
X181429557Y-75385161D01*
X181286700Y-75432780D01*
X181048604Y-75432780D01*
X178656190Y-76927380D02*
X178989523Y-77927380D01*
X179322857Y-76927380D01*
X179799047Y-77927380D02*
X179703809Y-77879761D01*
X179656190Y-77832142D01*
X179608571Y-77736904D01*
X179608571Y-77451190D01*
X179656190Y-77355952D01*
X179703809Y-77308333D01*
X179799047Y-77260714D01*
X179941904Y-77260714D01*
X180037142Y-77308333D01*
X180084761Y-77355952D01*
X180132380Y-77451190D01*
X180132380Y-77736904D01*
X180084761Y-77832142D01*
X180037142Y-77879761D01*
X179941904Y-77927380D01*
X179799047Y-77927380D01*
X180989523Y-77260714D02*
X180989523Y-77927380D01*
X180560952Y-77260714D02*
X180560952Y-77784523D01*
X180608571Y-77879761D01*
X180703809Y-77927380D01*
X180846666Y-77927380D01*
X180941904Y-77879761D01*
X180989523Y-77832142D01*
X181322857Y-77260714D02*
X181703809Y-77260714D01*
X181465714Y-76927380D02*
X181465714Y-77784523D01*
X181513333Y-77879761D01*
X181608571Y-77927380D01*
X181703809Y-77927380D01*
X179556190Y-71677380D02*
X179889523Y-72677380D01*
X180222857Y-71677380D01*
X180556190Y-72677380D02*
X180556190Y-72010714D01*
X180556190Y-71677380D02*
X180508571Y-71725000D01*
X180556190Y-71772619D01*
X180603809Y-71725000D01*
X180556190Y-71677380D01*
X180556190Y-71772619D01*
X181032380Y-72010714D02*
X181032380Y-72677380D01*
X181032380Y-72105952D02*
X181080000Y-72058333D01*
X181175238Y-72010714D01*
X181318095Y-72010714D01*
X181413333Y-72058333D01*
X181460952Y-72153571D01*
X181460952Y-72677380D01*
%TO.C,F1*%
X216671666Y-66488571D02*
X216338333Y-66488571D01*
X216338333Y-67012380D02*
X216338333Y-66012380D01*
X216814523Y-66012380D01*
X217719285Y-67012380D02*
X217147857Y-67012380D01*
X217433571Y-67012380D02*
X217433571Y-66012380D01*
X217338333Y-66155238D01*
X217243095Y-66250476D01*
X217147857Y-66298095D01*
%TO.C,D1*%
X205222380Y-85378095D02*
X204222380Y-85378095D01*
X204222380Y-85140000D01*
X204270000Y-84997142D01*
X204365238Y-84901904D01*
X204460476Y-84854285D01*
X204650952Y-84806666D01*
X204793809Y-84806666D01*
X204984285Y-84854285D01*
X205079523Y-84901904D01*
X205174761Y-84997142D01*
X205222380Y-85140000D01*
X205222380Y-85378095D01*
X205222380Y-83854285D02*
X205222380Y-84425714D01*
X205222380Y-84140000D02*
X204222380Y-84140000D01*
X204365238Y-84235238D01*
X204460476Y-84330476D01*
X204508095Y-84425714D01*
%TO.C,C7*%
X199063333Y-80697142D02*
X199015714Y-80744761D01*
X198872857Y-80792380D01*
X198777619Y-80792380D01*
X198634761Y-80744761D01*
X198539523Y-80649523D01*
X198491904Y-80554285D01*
X198444285Y-80363809D01*
X198444285Y-80220952D01*
X198491904Y-80030476D01*
X198539523Y-79935238D01*
X198634761Y-79840000D01*
X198777619Y-79792380D01*
X198872857Y-79792380D01*
X199015714Y-79840000D01*
X199063333Y-79887619D01*
X199396666Y-79792380D02*
X200063333Y-79792380D01*
X199634761Y-80792380D01*
%TO.C,C6*%
X195057142Y-85196666D02*
X195104761Y-85244285D01*
X195152380Y-85387142D01*
X195152380Y-85482380D01*
X195104761Y-85625238D01*
X195009523Y-85720476D01*
X194914285Y-85768095D01*
X194723809Y-85815714D01*
X194580952Y-85815714D01*
X194390476Y-85768095D01*
X194295238Y-85720476D01*
X194200000Y-85625238D01*
X194152380Y-85482380D01*
X194152380Y-85387142D01*
X194200000Y-85244285D01*
X194247619Y-85196666D01*
X194152380Y-84339523D02*
X194152380Y-84530000D01*
X194200000Y-84625238D01*
X194247619Y-84672857D01*
X194390476Y-84768095D01*
X194580952Y-84815714D01*
X194961904Y-84815714D01*
X195057142Y-84768095D01*
X195104761Y-84720476D01*
X195152380Y-84625238D01*
X195152380Y-84434761D01*
X195104761Y-84339523D01*
X195057142Y-84291904D01*
X194961904Y-84244285D01*
X194723809Y-84244285D01*
X194628571Y-84291904D01*
X194580952Y-84339523D01*
X194533333Y-84434761D01*
X194533333Y-84625238D01*
X194580952Y-84720476D01*
X194628571Y-84768095D01*
X194723809Y-84815714D01*
%TO.C,C5*%
X180490833Y-87647142D02*
X180443214Y-87694761D01*
X180300357Y-87742380D01*
X180205119Y-87742380D01*
X180062261Y-87694761D01*
X179967023Y-87599523D01*
X179919404Y-87504285D01*
X179871785Y-87313809D01*
X179871785Y-87170952D01*
X179919404Y-86980476D01*
X179967023Y-86885238D01*
X180062261Y-86790000D01*
X180205119Y-86742380D01*
X180300357Y-86742380D01*
X180443214Y-86790000D01*
X180490833Y-86837619D01*
X181395595Y-86742380D02*
X180919404Y-86742380D01*
X180871785Y-87218571D01*
X180919404Y-87170952D01*
X181014642Y-87123333D01*
X181252738Y-87123333D01*
X181347976Y-87170952D01*
X181395595Y-87218571D01*
X181443214Y-87313809D01*
X181443214Y-87551904D01*
X181395595Y-87647142D01*
X181347976Y-87694761D01*
X181252738Y-87742380D01*
X181014642Y-87742380D01*
X180919404Y-87694761D01*
X180871785Y-87647142D01*
%TO.C,C4*%
X177033333Y-76957142D02*
X176985714Y-77004761D01*
X176842857Y-77052380D01*
X176747619Y-77052380D01*
X176604761Y-77004761D01*
X176509523Y-76909523D01*
X176461904Y-76814285D01*
X176414285Y-76623809D01*
X176414285Y-76480952D01*
X176461904Y-76290476D01*
X176509523Y-76195238D01*
X176604761Y-76100000D01*
X176747619Y-76052380D01*
X176842857Y-76052380D01*
X176985714Y-76100000D01*
X177033333Y-76147619D01*
X177890476Y-76385714D02*
X177890476Y-77052380D01*
X177652380Y-76004761D02*
X177414285Y-76719047D01*
X178033333Y-76719047D01*
%TO.C,C3*%
X214323333Y-67587142D02*
X214275714Y-67634761D01*
X214132857Y-67682380D01*
X214037619Y-67682380D01*
X213894761Y-67634761D01*
X213799523Y-67539523D01*
X213751904Y-67444285D01*
X213704285Y-67253809D01*
X213704285Y-67110952D01*
X213751904Y-66920476D01*
X213799523Y-66825238D01*
X213894761Y-66730000D01*
X214037619Y-66682380D01*
X214132857Y-66682380D01*
X214275714Y-66730000D01*
X214323333Y-66777619D01*
X214656666Y-66682380D02*
X215275714Y-66682380D01*
X214942380Y-67063333D01*
X215085238Y-67063333D01*
X215180476Y-67110952D01*
X215228095Y-67158571D01*
X215275714Y-67253809D01*
X215275714Y-67491904D01*
X215228095Y-67587142D01*
X215180476Y-67634761D01*
X215085238Y-67682380D01*
X214799523Y-67682380D01*
X214704285Y-67634761D01*
X214656666Y-67587142D01*
%TO.C,R16*%
X217002380Y-83717857D02*
X216526190Y-84051190D01*
X217002380Y-84289285D02*
X216002380Y-84289285D01*
X216002380Y-83908333D01*
X216050000Y-83813095D01*
X216097619Y-83765476D01*
X216192857Y-83717857D01*
X216335714Y-83717857D01*
X216430952Y-83765476D01*
X216478571Y-83813095D01*
X216526190Y-83908333D01*
X216526190Y-84289285D01*
X217002380Y-82765476D02*
X217002380Y-83336904D01*
X217002380Y-83051190D02*
X216002380Y-83051190D01*
X216145238Y-83146428D01*
X216240476Y-83241666D01*
X216288095Y-83336904D01*
X216002380Y-81908333D02*
X216002380Y-82098809D01*
X216050000Y-82194047D01*
X216097619Y-82241666D01*
X216240476Y-82336904D01*
X216430952Y-82384523D01*
X216811904Y-82384523D01*
X216907142Y-82336904D01*
X216954761Y-82289285D01*
X217002380Y-82194047D01*
X217002380Y-82003571D01*
X216954761Y-81908333D01*
X216907142Y-81860714D01*
X216811904Y-81813095D01*
X216573809Y-81813095D01*
X216478571Y-81860714D01*
X216430952Y-81908333D01*
X216383333Y-82003571D01*
X216383333Y-82194047D01*
X216430952Y-82289285D01*
X216478571Y-82336904D01*
X216573809Y-82384523D01*
%TO.C,J2*%
X176791666Y-81552380D02*
X176791666Y-82266666D01*
X176744047Y-82409523D01*
X176648809Y-82504761D01*
X176505952Y-82552380D01*
X176410714Y-82552380D01*
X177220238Y-81647619D02*
X177267857Y-81600000D01*
X177363095Y-81552380D01*
X177601190Y-81552380D01*
X177696428Y-81600000D01*
X177744047Y-81647619D01*
X177791666Y-81742857D01*
X177791666Y-81838095D01*
X177744047Y-81980952D01*
X177172619Y-82552380D01*
X177791666Y-82552380D01*
%TO.C,U1*%
X194627380Y-88086904D02*
X195436904Y-88086904D01*
X195532142Y-88039285D01*
X195579761Y-87991666D01*
X195627380Y-87896428D01*
X195627380Y-87705952D01*
X195579761Y-87610714D01*
X195532142Y-87563095D01*
X195436904Y-87515476D01*
X194627380Y-87515476D01*
X195627380Y-86515476D02*
X195627380Y-87086904D01*
X195627380Y-86801190D02*
X194627380Y-86801190D01*
X194770238Y-86896428D01*
X194865476Y-86991666D01*
X194913095Y-87086904D01*
X194822380Y-90320000D02*
X195060476Y-90320000D01*
X194965238Y-90558095D02*
X195060476Y-90320000D01*
X194965238Y-90081904D01*
X195250952Y-90462857D02*
X195060476Y-90320000D01*
X195250952Y-90177142D01*
%TO.C,Q1*%
X191572619Y-87395238D02*
X191525000Y-87490476D01*
X191429761Y-87585714D01*
X191286904Y-87728571D01*
X191239285Y-87823809D01*
X191239285Y-87919047D01*
X191477380Y-87871428D02*
X191429761Y-87966666D01*
X191334523Y-88061904D01*
X191144047Y-88109523D01*
X190810714Y-88109523D01*
X190620238Y-88061904D01*
X190525000Y-87966666D01*
X190477380Y-87871428D01*
X190477380Y-87680952D01*
X190525000Y-87585714D01*
X190620238Y-87490476D01*
X190810714Y-87442857D01*
X191144047Y-87442857D01*
X191334523Y-87490476D01*
X191429761Y-87585714D01*
X191477380Y-87680952D01*
X191477380Y-87871428D01*
X191477380Y-86490476D02*
X191477380Y-87061904D01*
X191477380Y-86776190D02*
X190477380Y-86776190D01*
X190620238Y-86871428D01*
X190715476Y-86966666D01*
X190763095Y-87061904D01*
%TO.C,C9*%
X218708333Y-73307142D02*
X218660714Y-73354761D01*
X218517857Y-73402380D01*
X218422619Y-73402380D01*
X218279761Y-73354761D01*
X218184523Y-73259523D01*
X218136904Y-73164285D01*
X218089285Y-72973809D01*
X218089285Y-72830952D01*
X218136904Y-72640476D01*
X218184523Y-72545238D01*
X218279761Y-72450000D01*
X218422619Y-72402380D01*
X218517857Y-72402380D01*
X218660714Y-72450000D01*
X218708333Y-72497619D01*
X219184523Y-73402380D02*
X219375000Y-73402380D01*
X219470238Y-73354761D01*
X219517857Y-73307142D01*
X219613095Y-73164285D01*
X219660714Y-72973809D01*
X219660714Y-72592857D01*
X219613095Y-72497619D01*
X219565476Y-72450000D01*
X219470238Y-72402380D01*
X219279761Y-72402380D01*
X219184523Y-72450000D01*
X219136904Y-72497619D01*
X219089285Y-72592857D01*
X219089285Y-72830952D01*
X219136904Y-72926190D01*
X219184523Y-72973809D01*
X219279761Y-73021428D01*
X219470238Y-73021428D01*
X219565476Y-72973809D01*
X219613095Y-72926190D01*
X219660714Y-72830952D01*
%TO.C,C10*%
X213982142Y-70107142D02*
X213934523Y-70154761D01*
X213791666Y-70202380D01*
X213696428Y-70202380D01*
X213553571Y-70154761D01*
X213458333Y-70059523D01*
X213410714Y-69964285D01*
X213363095Y-69773809D01*
X213363095Y-69630952D01*
X213410714Y-69440476D01*
X213458333Y-69345238D01*
X213553571Y-69250000D01*
X213696428Y-69202380D01*
X213791666Y-69202380D01*
X213934523Y-69250000D01*
X213982142Y-69297619D01*
X214934523Y-70202380D02*
X214363095Y-70202380D01*
X214648809Y-70202380D02*
X214648809Y-69202380D01*
X214553571Y-69345238D01*
X214458333Y-69440476D01*
X214363095Y-69488095D01*
X215553571Y-69202380D02*
X215648809Y-69202380D01*
X215744047Y-69250000D01*
X215791666Y-69297619D01*
X215839285Y-69392857D01*
X215886904Y-69583333D01*
X215886904Y-69821428D01*
X215839285Y-70011904D01*
X215791666Y-70107142D01*
X215744047Y-70154761D01*
X215648809Y-70202380D01*
X215553571Y-70202380D01*
X215458333Y-70154761D01*
X215410714Y-70107142D01*
X215363095Y-70011904D01*
X215315476Y-69821428D01*
X215315476Y-69583333D01*
X215363095Y-69392857D01*
X215410714Y-69297619D01*
X215458333Y-69250000D01*
X215553571Y-69202380D01*
%TO.C,U2*%
X207288095Y-97302380D02*
X207288095Y-98111904D01*
X207335714Y-98207142D01*
X207383333Y-98254761D01*
X207478571Y-98302380D01*
X207669047Y-98302380D01*
X207764285Y-98254761D01*
X207811904Y-98207142D01*
X207859523Y-98111904D01*
X207859523Y-97302380D01*
X208288095Y-97397619D02*
X208335714Y-97350000D01*
X208430952Y-97302380D01*
X208669047Y-97302380D01*
X208764285Y-97350000D01*
X208811904Y-97397619D01*
X208859523Y-97492857D01*
X208859523Y-97588095D01*
X208811904Y-97730952D01*
X208240476Y-98302380D01*
X208859523Y-98302380D01*
X202025000Y-90877380D02*
X202025000Y-91115476D01*
X201786904Y-91020238D02*
X202025000Y-91115476D01*
X202263095Y-91020238D01*
X201882142Y-91305952D02*
X202025000Y-91115476D01*
X202167857Y-91305952D01*
%TO.C,R1*%
X195303333Y-94632380D02*
X194970000Y-94156190D01*
X194731904Y-94632380D02*
X194731904Y-93632380D01*
X195112857Y-93632380D01*
X195208095Y-93680000D01*
X195255714Y-93727619D01*
X195303333Y-93822857D01*
X195303333Y-93965714D01*
X195255714Y-94060952D01*
X195208095Y-94108571D01*
X195112857Y-94156190D01*
X194731904Y-94156190D01*
X196255714Y-94632380D02*
X195684285Y-94632380D01*
X195970000Y-94632380D02*
X195970000Y-93632380D01*
X195874761Y-93775238D01*
X195779523Y-93870476D01*
X195684285Y-93918095D01*
%TO.C,C1*%
X204708333Y-88207142D02*
X204660714Y-88254761D01*
X204517857Y-88302380D01*
X204422619Y-88302380D01*
X204279761Y-88254761D01*
X204184523Y-88159523D01*
X204136904Y-88064285D01*
X204089285Y-87873809D01*
X204089285Y-87730952D01*
X204136904Y-87540476D01*
X204184523Y-87445238D01*
X204279761Y-87350000D01*
X204422619Y-87302380D01*
X204517857Y-87302380D01*
X204660714Y-87350000D01*
X204708333Y-87397619D01*
X205660714Y-88302380D02*
X205089285Y-88302380D01*
X205375000Y-88302380D02*
X205375000Y-87302380D01*
X205279761Y-87445238D01*
X205184523Y-87540476D01*
X205089285Y-87588095D01*
%TO.C,C11*%
X205032142Y-69607142D02*
X204984523Y-69654761D01*
X204841666Y-69702380D01*
X204746428Y-69702380D01*
X204603571Y-69654761D01*
X204508333Y-69559523D01*
X204460714Y-69464285D01*
X204413095Y-69273809D01*
X204413095Y-69130952D01*
X204460714Y-68940476D01*
X204508333Y-68845238D01*
X204603571Y-68750000D01*
X204746428Y-68702380D01*
X204841666Y-68702380D01*
X204984523Y-68750000D01*
X205032142Y-68797619D01*
X205984523Y-69702380D02*
X205413095Y-69702380D01*
X205698809Y-69702380D02*
X205698809Y-68702380D01*
X205603571Y-68845238D01*
X205508333Y-68940476D01*
X205413095Y-68988095D01*
X206936904Y-69702380D02*
X206365476Y-69702380D01*
X206651190Y-69702380D02*
X206651190Y-68702380D01*
X206555952Y-68845238D01*
X206460714Y-68940476D01*
X206365476Y-68988095D01*
%TO.C,J3*%
X228522380Y-66873333D02*
X229236666Y-66873333D01*
X229379523Y-66920952D01*
X229474761Y-67016190D01*
X229522380Y-67159047D01*
X229522380Y-67254285D01*
X228522380Y-66492380D02*
X228522380Y-65873333D01*
X228903333Y-66206666D01*
X228903333Y-66063809D01*
X228950952Y-65968571D01*
X228998571Y-65920952D01*
X229093809Y-65873333D01*
X229331904Y-65873333D01*
X229427142Y-65920952D01*
X229474761Y-65968571D01*
X229522380Y-66063809D01*
X229522380Y-66349523D01*
X229474761Y-66444761D01*
X229427142Y-66492380D01*
%TO.C,J4*%
X228622380Y-80113333D02*
X229336666Y-80113333D01*
X229479523Y-80160952D01*
X229574761Y-80256190D01*
X229622380Y-80399047D01*
X229622380Y-80494285D01*
X228955714Y-79208571D02*
X229622380Y-79208571D01*
X228574761Y-79446666D02*
X229289047Y-79684761D01*
X229289047Y-79065714D01*
%TO.C,Q2*%
X182647619Y-87682738D02*
X182600000Y-87777976D01*
X182504761Y-87873214D01*
X182361904Y-88016071D01*
X182314285Y-88111309D01*
X182314285Y-88206547D01*
X182552380Y-88158928D02*
X182504761Y-88254166D01*
X182409523Y-88349404D01*
X182219047Y-88397023D01*
X181885714Y-88397023D01*
X181695238Y-88349404D01*
X181600000Y-88254166D01*
X181552380Y-88158928D01*
X181552380Y-87968452D01*
X181600000Y-87873214D01*
X181695238Y-87777976D01*
X181885714Y-87730357D01*
X182219047Y-87730357D01*
X182409523Y-87777976D01*
X182504761Y-87873214D01*
X182552380Y-87968452D01*
X182552380Y-88158928D01*
X181647619Y-87349404D02*
X181600000Y-87301785D01*
X181552380Y-87206547D01*
X181552380Y-86968452D01*
X181600000Y-86873214D01*
X181647619Y-86825595D01*
X181742857Y-86777976D01*
X181838095Y-86777976D01*
X181980952Y-86825595D01*
X182552380Y-87397023D01*
X182552380Y-86777976D01*
%TO.C,R2*%
X199423333Y-96682380D02*
X199090000Y-96206190D01*
X198851904Y-96682380D02*
X198851904Y-95682380D01*
X199232857Y-95682380D01*
X199328095Y-95730000D01*
X199375714Y-95777619D01*
X199423333Y-95872857D01*
X199423333Y-96015714D01*
X199375714Y-96110952D01*
X199328095Y-96158571D01*
X199232857Y-96206190D01*
X198851904Y-96206190D01*
X199804285Y-95777619D02*
X199851904Y-95730000D01*
X199947142Y-95682380D01*
X200185238Y-95682380D01*
X200280476Y-95730000D01*
X200328095Y-95777619D01*
X200375714Y-95872857D01*
X200375714Y-95968095D01*
X200328095Y-96110952D01*
X199756666Y-96682380D01*
X200375714Y-96682380D01*
%TO.C,U6*%
X208302380Y-78661904D02*
X209111904Y-78661904D01*
X209207142Y-78614285D01*
X209254761Y-78566666D01*
X209302380Y-78471428D01*
X209302380Y-78280952D01*
X209254761Y-78185714D01*
X209207142Y-78138095D01*
X209111904Y-78090476D01*
X208302380Y-78090476D01*
X208302380Y-77185714D02*
X208302380Y-77376190D01*
X208350000Y-77471428D01*
X208397619Y-77519047D01*
X208540476Y-77614285D01*
X208730952Y-77661904D01*
X209111904Y-77661904D01*
X209207142Y-77614285D01*
X209254761Y-77566666D01*
X209302380Y-77471428D01*
X209302380Y-77280952D01*
X209254761Y-77185714D01*
X209207142Y-77138095D01*
X209111904Y-77090476D01*
X208873809Y-77090476D01*
X208778571Y-77138095D01*
X208730952Y-77185714D01*
X208683333Y-77280952D01*
X208683333Y-77471428D01*
X208730952Y-77566666D01*
X208778571Y-77614285D01*
X208873809Y-77661904D01*
X209027380Y-81400000D02*
X209265476Y-81400000D01*
X209170238Y-81638095D02*
X209265476Y-81400000D01*
X209170238Y-81161904D01*
X209455952Y-81542857D02*
X209265476Y-81400000D01*
X209455952Y-81257142D01*
D13*
%TO.C,J1*%
X226774000Y-91546000D02*
X226266000Y-91546000D01*
X219154000Y-91546000D02*
X219154000Y-92054000D01*
X224234000Y-91546000D02*
X223726000Y-91546000D01*
X221694000Y-91546000D02*
X221186000Y-91546000D01*
X216106000Y-91546000D02*
X216106000Y-92054000D01*
X216614000Y-91546000D02*
X216106000Y-91546000D01*
X221694000Y-92054000D02*
X221186000Y-92054000D01*
X213566000Y-91546000D02*
X213566000Y-92054000D01*
X224234000Y-92054000D02*
X223726000Y-92054000D01*
X223726000Y-91546000D02*
X223726000Y-92054000D01*
X214074000Y-91546000D02*
X213566000Y-91546000D01*
X226266000Y-91546000D02*
X226266000Y-92054000D01*
X214074000Y-91546000D02*
X214074000Y-92054000D01*
X224234000Y-91546000D02*
X224234000Y-92054000D01*
X226774000Y-91546000D02*
X226774000Y-92054000D01*
X216614000Y-91546000D02*
X216614000Y-92054000D01*
X221186000Y-91546000D02*
X221186000Y-92054000D01*
X214074000Y-92054000D02*
X213566000Y-92054000D01*
X226774000Y-92054000D02*
X226266000Y-92054000D01*
X216614000Y-92054000D02*
X216106000Y-92054000D01*
X221694000Y-91546000D02*
X221694000Y-92054000D01*
D14*
X227815400Y-93146200D02*
X212550000Y-93146200D01*
X212550000Y-93146200D02*
X212550000Y-90453800D01*
X212550000Y-90453800D02*
X227815400Y-90453800D01*
X227815400Y-90453800D02*
X227815400Y-93146200D01*
%TO.C,U5*%
X213410000Y-86537500D02*
X213410000Y-82937500D01*
X207940000Y-86537500D02*
X207940000Y-84337500D01*
X207940000Y-86537500D02*
X207940000Y-88737500D01*
X213410000Y-86537500D02*
X213410000Y-88737500D01*
%TO.C,C8*%
X208180000Y-72635000D02*
X203660000Y-72635000D01*
X203660000Y-72635000D02*
X203660000Y-80870000D01*
X208180000Y-80870000D02*
X208180000Y-72635000D01*
%TO.C,U4*%
X190310000Y-81917500D02*
X190310000Y-81267500D01*
X193430000Y-81917500D02*
X193430000Y-81267500D01*
X190310000Y-81917500D02*
X190310000Y-83592500D01*
X193430000Y-81917500D02*
X193430000Y-82567500D01*
%TO.C,U3*%
X184510000Y-77550000D02*
X184510000Y-78880000D01*
X181850000Y-76280000D02*
X181850000Y-68600000D01*
X184510000Y-78880000D02*
X183180000Y-78880000D01*
X184510000Y-68600000D02*
X181850000Y-68600000D01*
X184510000Y-76280000D02*
X181850000Y-76280000D01*
X184510000Y-76280000D02*
X184510000Y-68600000D01*
%TO.C,F1*%
X218391252Y-62200000D02*
X215618748Y-62200000D01*
X218391252Y-65620000D02*
X215618748Y-65620000D01*
%TO.C,D1*%
X203810000Y-87250000D02*
X203810000Y-84390000D01*
X201890000Y-84390000D02*
X201890000Y-87250000D01*
X201890000Y-87250000D02*
X203810000Y-87250000D01*
%TO.C,C7*%
X195448748Y-80245000D02*
X195971252Y-80245000D01*
X195448748Y-81715000D02*
X195971252Y-81715000D01*
%TO.C,C6*%
X193565000Y-85856248D02*
X193565000Y-86378752D01*
X192095000Y-85856248D02*
X192095000Y-86378752D01*
%TO.C,C5*%
X183142500Y-84605000D02*
X179057500Y-84605000D01*
X179057500Y-86475000D02*
X183142500Y-86475000D01*
X183142500Y-86475000D02*
X183142500Y-84605000D01*
%TO.C,C4*%
X179253752Y-79635000D02*
X178731248Y-79635000D01*
X179253752Y-78165000D02*
X178731248Y-78165000D01*
%TO.C,C3*%
X212780000Y-64668748D02*
X212780000Y-66091252D01*
X210060000Y-64668748D02*
X210060000Y-66091252D01*
%TO.C,R16*%
X216935000Y-79877064D02*
X216935000Y-79422936D01*
X215465000Y-79877064D02*
X215465000Y-79422936D01*
%TO.C,J2*%
X181420000Y-83430000D02*
X189100000Y-83430000D01*
X181420000Y-83430000D02*
X181420000Y-80770000D01*
X178820000Y-83430000D02*
X178820000Y-82100000D01*
X181420000Y-80770000D02*
X189100000Y-80770000D01*
X189100000Y-83430000D02*
X189100000Y-80770000D01*
X180150000Y-83430000D02*
X178820000Y-83430000D01*
%TO.C,U1*%
X196015000Y-87325000D02*
X196015000Y-85375000D01*
X201135000Y-87325000D02*
X201135000Y-85375000D01*
X196015000Y-87325000D02*
X196015000Y-90775000D01*
X201135000Y-87325000D02*
X201135000Y-89275000D01*
%TO.C,Q1*%
X189910000Y-87537500D02*
X189910000Y-88187500D01*
X189910000Y-87537500D02*
X189910000Y-86887500D01*
X186790000Y-87537500D02*
X186790000Y-89212500D01*
X186790000Y-87537500D02*
X186790000Y-86887500D01*
%TO.C,C9*%
X217201248Y-76060000D02*
X218623752Y-76060000D01*
X217201248Y-74240000D02*
X218623752Y-74240000D01*
%TO.C,C10*%
X214298752Y-71040000D02*
X212876248Y-71040000D01*
X214298752Y-72860000D02*
X212876248Y-72860000D01*
%TO.C,U2*%
X206100000Y-91315000D02*
X208300000Y-91315000D01*
X206100000Y-96535000D02*
X208300000Y-96535000D01*
X206100000Y-91315000D02*
X202500000Y-91315000D01*
X206100000Y-96535000D02*
X203900000Y-96535000D01*
%TO.C,R1*%
X195482936Y-91535000D02*
X195937064Y-91535000D01*
X195482936Y-93005000D02*
X195937064Y-93005000D01*
%TO.C,C1*%
X204523752Y-89040000D02*
X204001248Y-89040000D01*
X204523752Y-90510000D02*
X204001248Y-90510000D01*
%TO.C,C11*%
X209426248Y-70385000D02*
X210848752Y-70385000D01*
X209426248Y-68565000D02*
X210848752Y-68565000D01*
%TO.C,J3*%
X221090000Y-62140000D02*
X221090000Y-62540000D01*
X221330000Y-62380000D02*
X221330000Y-70700000D01*
X228070000Y-62380000D02*
X221330000Y-62380000D01*
X226950000Y-62380000D02*
X226950000Y-70700000D01*
X221730000Y-62140000D02*
X221090000Y-62140000D01*
X228070000Y-62380000D02*
X228070000Y-70700000D01*
X228070000Y-70700000D02*
X221330000Y-70700000D01*
X221850000Y-62380000D02*
X221850000Y-70700000D01*
%TO.C,J4*%
X228170000Y-73080000D02*
X228170000Y-86480000D01*
X228170000Y-86480000D02*
X221430000Y-86480000D01*
X228170000Y-73080000D02*
X221430000Y-73080000D01*
X221950000Y-73080000D02*
X221950000Y-86480000D01*
X221830000Y-72840000D02*
X221190000Y-72840000D01*
X221430000Y-73080000D02*
X221430000Y-86480000D01*
X227050000Y-73080000D02*
X227050000Y-86480000D01*
X221190000Y-72840000D02*
X221190000Y-73240000D01*
%TO.C,Q2*%
X186060000Y-87587500D02*
X186060000Y-88237500D01*
X182940000Y-87587500D02*
X182940000Y-89262500D01*
X186060000Y-87587500D02*
X186060000Y-86937500D01*
X182940000Y-87587500D02*
X182940000Y-86937500D01*
%TO.C,R2*%
X199447936Y-93040000D02*
X199902064Y-93040000D01*
X199447936Y-94510000D02*
X199902064Y-94510000D01*
%TO.C,REF\u002A\u002A*%
G36*
X206700807Y-67306782D02*
G01*
X206724161Y-67316988D01*
X206779902Y-67361134D01*
X206827569Y-67424967D01*
X206857048Y-67493087D01*
X206861846Y-67526670D01*
X206845760Y-67573556D01*
X206810475Y-67598365D01*
X206772644Y-67613387D01*
X206755321Y-67616155D01*
X206746886Y-67596066D01*
X206730230Y-67552351D01*
X206722923Y-67532598D01*
X206681948Y-67464271D01*
X206622622Y-67430191D01*
X206546552Y-67431239D01*
X206540918Y-67432581D01*
X206500305Y-67451836D01*
X206470448Y-67489375D01*
X206450055Y-67549809D01*
X206437836Y-67637751D01*
X206432500Y-67757813D01*
X206432000Y-67821698D01*
X206431752Y-67922403D01*
X206430126Y-67991054D01*
X206425801Y-68034673D01*
X206417454Y-68060282D01*
X206403765Y-68074903D01*
X206383411Y-68085558D01*
X206382234Y-68086095D01*
X206343038Y-68102667D01*
X206323619Y-68108769D01*
X206320635Y-68090319D01*
X206318081Y-68039323D01*
X206316140Y-67962308D01*
X206314997Y-67865805D01*
X206314769Y-67795184D01*
X206315932Y-67658525D01*
X206320479Y-67554851D01*
X206329999Y-67478108D01*
X206346081Y-67422246D01*
X206370313Y-67381212D01*
X206404286Y-67348954D01*
X206437833Y-67326440D01*
X206518499Y-67296476D01*
X206612381Y-67289718D01*
X206700807Y-67306782D01*
G37*
D15*
X206700807Y-67306782D02*
X206724161Y-67316988D01*
X206779902Y-67361134D01*
X206827569Y-67424967D01*
X206857048Y-67493087D01*
X206861846Y-67526670D01*
X206845760Y-67573556D01*
X206810475Y-67598365D01*
X206772644Y-67613387D01*
X206755321Y-67616155D01*
X206746886Y-67596066D01*
X206730230Y-67552351D01*
X206722923Y-67532598D01*
X206681948Y-67464271D01*
X206622622Y-67430191D01*
X206546552Y-67431239D01*
X206540918Y-67432581D01*
X206500305Y-67451836D01*
X206470448Y-67489375D01*
X206450055Y-67549809D01*
X206437836Y-67637751D01*
X206432500Y-67757813D01*
X206432000Y-67821698D01*
X206431752Y-67922403D01*
X206430126Y-67991054D01*
X206425801Y-68034673D01*
X206417454Y-68060282D01*
X206403765Y-68074903D01*
X206383411Y-68085558D01*
X206382234Y-68086095D01*
X206343038Y-68102667D01*
X206323619Y-68108769D01*
X206320635Y-68090319D01*
X206318081Y-68039323D01*
X206316140Y-67962308D01*
X206314997Y-67865805D01*
X206314769Y-67795184D01*
X206315932Y-67658525D01*
X206320479Y-67554851D01*
X206329999Y-67478108D01*
X206346081Y-67422246D01*
X206370313Y-67381212D01*
X206404286Y-67348954D01*
X206437833Y-67326440D01*
X206518499Y-67296476D01*
X206612381Y-67289718D01*
X206700807Y-67306782D01*
G36*
X201401664Y-67265089D02*
G01*
X201464367Y-67301358D01*
X201507961Y-67337358D01*
X201539845Y-67375075D01*
X201561810Y-67421199D01*
X201575649Y-67482421D01*
X201583153Y-67565431D01*
X201586117Y-67676919D01*
X201586461Y-67757062D01*
X201586461Y-68052065D01*
X201420385Y-68126515D01*
X201410615Y-67803402D01*
X201406579Y-67682729D01*
X201402344Y-67595141D01*
X201397097Y-67534650D01*
X201390025Y-67495268D01*
X201380311Y-67471007D01*
X201367144Y-67455880D01*
X201362919Y-67452606D01*
X201298909Y-67427034D01*
X201234208Y-67437153D01*
X201195692Y-67464000D01*
X201180025Y-67483024D01*
X201169180Y-67507988D01*
X201162288Y-67545834D01*
X201158479Y-67603502D01*
X201156883Y-67687935D01*
X201156615Y-67775928D01*
X201156563Y-67886323D01*
X201154672Y-67964463D01*
X201148345Y-68017165D01*
X201134983Y-68051242D01*
X201111985Y-68073511D01*
X201076754Y-68090787D01*
X201029697Y-68108738D01*
X200978303Y-68128278D01*
X200984421Y-67781485D01*
X200986884Y-67656468D01*
X200989767Y-67564082D01*
X200993898Y-67497881D01*
X201000107Y-67451420D01*
X201009226Y-67418256D01*
X201022083Y-67391944D01*
X201037584Y-67368729D01*
X201112371Y-67294569D01*
X201203628Y-67251684D01*
X201302883Y-67241412D01*
X201401664Y-67265089D01*
G37*
X201401664Y-67265089D02*
X201464367Y-67301358D01*
X201507961Y-67337358D01*
X201539845Y-67375075D01*
X201561810Y-67421199D01*
X201575649Y-67482421D01*
X201583153Y-67565431D01*
X201586117Y-67676919D01*
X201586461Y-67757062D01*
X201586461Y-68052065D01*
X201420385Y-68126515D01*
X201410615Y-67803402D01*
X201406579Y-67682729D01*
X201402344Y-67595141D01*
X201397097Y-67534650D01*
X201390025Y-67495268D01*
X201380311Y-67471007D01*
X201367144Y-67455880D01*
X201362919Y-67452606D01*
X201298909Y-67427034D01*
X201234208Y-67437153D01*
X201195692Y-67464000D01*
X201180025Y-67483024D01*
X201169180Y-67507988D01*
X201162288Y-67545834D01*
X201158479Y-67603502D01*
X201156883Y-67687935D01*
X201156615Y-67775928D01*
X201156563Y-67886323D01*
X201154672Y-67964463D01*
X201148345Y-68017165D01*
X201134983Y-68051242D01*
X201111985Y-68073511D01*
X201076754Y-68090787D01*
X201029697Y-68108738D01*
X200978303Y-68128278D01*
X200984421Y-67781485D01*
X200986884Y-67656468D01*
X200989767Y-67564082D01*
X200993898Y-67497881D01*
X201000107Y-67451420D01*
X201009226Y-67418256D01*
X201022083Y-67391944D01*
X201037584Y-67368729D01*
X201112371Y-67294569D01*
X201203628Y-67251684D01*
X201302883Y-67241412D01*
X201401664Y-67265089D01*
G36*
X204186362Y-67483577D02*
G01*
X204216528Y-67414269D01*
X204263629Y-67360211D01*
X204300312Y-67332505D01*
X204366990Y-67302572D01*
X204444272Y-67288678D01*
X204516110Y-67292397D01*
X204556308Y-67307400D01*
X204572082Y-67311670D01*
X204582550Y-67295750D01*
X204589856Y-67253089D01*
X204595385Y-67188106D01*
X204601437Y-67115732D01*
X204609844Y-67072187D01*
X204625141Y-67047287D01*
X204651864Y-67030845D01*
X204668654Y-67023564D01*
X204732154Y-66996963D01*
X204732081Y-67450289D01*
X204731833Y-67596320D01*
X204730872Y-67708655D01*
X204728794Y-67792678D01*
X204725193Y-67853769D01*
X204719665Y-67897309D01*
X204711804Y-67928679D01*
X204701207Y-67953262D01*
X204693182Y-67967294D01*
X204626728Y-68043388D01*
X204542470Y-68091084D01*
X204449249Y-68108199D01*
X204355900Y-68092546D01*
X204300312Y-68064418D01*
X204241957Y-68015760D01*
X204202186Y-67956333D01*
X204178190Y-67878507D01*
X204167161Y-67774652D01*
X204165599Y-67698462D01*
X204165809Y-67692986D01*
X204302308Y-67692986D01*
X204303141Y-67780355D01*
X204306961Y-67838192D01*
X204315746Y-67876029D01*
X204331474Y-67903398D01*
X204350266Y-67924042D01*
X204413375Y-67963890D01*
X204481137Y-67967295D01*
X204545179Y-67934025D01*
X204550164Y-67929517D01*
X204571439Y-67906067D01*
X204584779Y-67878166D01*
X204592001Y-67836641D01*
X204594923Y-67772316D01*
X204595385Y-67701200D01*
X204594383Y-67611858D01*
X204590238Y-67552258D01*
X204581236Y-67513089D01*
X204565667Y-67485040D01*
X204552902Y-67470144D01*
X204493600Y-67432575D01*
X204425301Y-67428057D01*
X204360110Y-67456753D01*
X204347528Y-67467406D01*
X204326111Y-67491063D01*
X204312744Y-67519251D01*
X204305566Y-67561245D01*
X204302719Y-67626319D01*
X204302308Y-67692986D01*
X204165809Y-67692986D01*
X204170322Y-67575765D01*
X204186362Y-67483577D01*
G37*
X204186362Y-67483577D02*
X204216528Y-67414269D01*
X204263629Y-67360211D01*
X204300312Y-67332505D01*
X204366990Y-67302572D01*
X204444272Y-67288678D01*
X204516110Y-67292397D01*
X204556308Y-67307400D01*
X204572082Y-67311670D01*
X204582550Y-67295750D01*
X204589856Y-67253089D01*
X204595385Y-67188106D01*
X204601437Y-67115732D01*
X204609844Y-67072187D01*
X204625141Y-67047287D01*
X204651864Y-67030845D01*
X204668654Y-67023564D01*
X204732154Y-66996963D01*
X204732081Y-67450289D01*
X204731833Y-67596320D01*
X204730872Y-67708655D01*
X204728794Y-67792678D01*
X204725193Y-67853769D01*
X204719665Y-67897309D01*
X204711804Y-67928679D01*
X204701207Y-67953262D01*
X204693182Y-67967294D01*
X204626728Y-68043388D01*
X204542470Y-68091084D01*
X204449249Y-68108199D01*
X204355900Y-68092546D01*
X204300312Y-68064418D01*
X204241957Y-68015760D01*
X204202186Y-67956333D01*
X204178190Y-67878507D01*
X204167161Y-67774652D01*
X204165599Y-67698462D01*
X204165809Y-67692986D01*
X204302308Y-67692986D01*
X204303141Y-67780355D01*
X204306961Y-67838192D01*
X204315746Y-67876029D01*
X204331474Y-67903398D01*
X204350266Y-67924042D01*
X204413375Y-67963890D01*
X204481137Y-67967295D01*
X204545179Y-67934025D01*
X204550164Y-67929517D01*
X204571439Y-67906067D01*
X204584779Y-67878166D01*
X204592001Y-67836641D01*
X204594923Y-67772316D01*
X204595385Y-67701200D01*
X204594383Y-67611858D01*
X204590238Y-67552258D01*
X204581236Y-67513089D01*
X204565667Y-67485040D01*
X204552902Y-67470144D01*
X204493600Y-67432575D01*
X204425301Y-67428057D01*
X204360110Y-67456753D01*
X204347528Y-67467406D01*
X204326111Y-67491063D01*
X204312744Y-67519251D01*
X204305566Y-67561245D01*
X204302719Y-67626319D01*
X204302308Y-67692986D01*
X204165809Y-67692986D01*
X204170322Y-67575765D01*
X204186362Y-67483577D01*
G36*
X206991032Y-67490710D02*
G01*
X207009460Y-67425167D01*
X207039360Y-67376912D01*
X207083080Y-67338767D01*
X207102141Y-67326440D01*
X207188726Y-67294336D01*
X207283522Y-67292316D01*
X207375224Y-67317838D01*
X207452528Y-67368361D01*
X207489814Y-67413590D01*
X207519353Y-67495663D01*
X207521699Y-67560607D01*
X207516385Y-67647445D01*
X207316115Y-67735103D01*
X207218739Y-67779887D01*
X207155113Y-67815913D01*
X207122029Y-67847117D01*
X207116280Y-67877436D01*
X207134658Y-67910805D01*
X207154923Y-67932923D01*
X207213889Y-67968393D01*
X207278024Y-67970879D01*
X207336926Y-67943235D01*
X207380197Y-67888320D01*
X207387936Y-67868928D01*
X207425006Y-67808364D01*
X207467654Y-67782552D01*
X207526154Y-67760471D01*
X207526154Y-67844184D01*
X207520982Y-67901150D01*
X207500723Y-67949189D01*
X207458262Y-68004346D01*
X207451951Y-68011514D01*
X207404720Y-68060585D01*
X207364121Y-68086920D01*
X207313328Y-68099035D01*
X207271220Y-68103003D01*
X207195902Y-68103991D01*
X207142286Y-68091466D01*
X207108838Y-68072869D01*
X207056268Y-68031975D01*
X207019879Y-67987748D01*
X206996850Y-67932126D01*
X206984359Y-67857047D01*
X206979587Y-67754449D01*
X206979206Y-67702376D01*
X206980501Y-67639948D01*
X207098471Y-67639948D01*
X207099839Y-67673438D01*
X207103249Y-67678923D01*
X207125753Y-67671472D01*
X207174182Y-67651753D01*
X207238908Y-67623718D01*
X207252443Y-67617692D01*
X207334244Y-67576096D01*
X207379312Y-67539538D01*
X207389217Y-67505296D01*
X207365526Y-67470648D01*
X207345960Y-67455339D01*
X207275360Y-67424721D01*
X207209280Y-67429780D01*
X207153959Y-67467151D01*
X207115636Y-67533473D01*
X207103349Y-67586116D01*
X207098471Y-67639948D01*
X206980501Y-67639948D01*
X206981730Y-67580720D01*
X206991032Y-67490710D01*
G37*
X206991032Y-67490710D02*
X207009460Y-67425167D01*
X207039360Y-67376912D01*
X207083080Y-67338767D01*
X207102141Y-67326440D01*
X207188726Y-67294336D01*
X207283522Y-67292316D01*
X207375224Y-67317838D01*
X207452528Y-67368361D01*
X207489814Y-67413590D01*
X207519353Y-67495663D01*
X207521699Y-67560607D01*
X207516385Y-67647445D01*
X207316115Y-67735103D01*
X207218739Y-67779887D01*
X207155113Y-67815913D01*
X207122029Y-67847117D01*
X207116280Y-67877436D01*
X207134658Y-67910805D01*
X207154923Y-67932923D01*
X207213889Y-67968393D01*
X207278024Y-67970879D01*
X207336926Y-67943235D01*
X207380197Y-67888320D01*
X207387936Y-67868928D01*
X207425006Y-67808364D01*
X207467654Y-67782552D01*
X207526154Y-67760471D01*
X207526154Y-67844184D01*
X207520982Y-67901150D01*
X207500723Y-67949189D01*
X207458262Y-68004346D01*
X207451951Y-68011514D01*
X207404720Y-68060585D01*
X207364121Y-68086920D01*
X207313328Y-68099035D01*
X207271220Y-68103003D01*
X207195902Y-68103991D01*
X207142286Y-68091466D01*
X207108838Y-68072869D01*
X207056268Y-68031975D01*
X207019879Y-67987748D01*
X206996850Y-67932126D01*
X206984359Y-67857047D01*
X206979587Y-67754449D01*
X206979206Y-67702376D01*
X206980501Y-67639948D01*
X207098471Y-67639948D01*
X207099839Y-67673438D01*
X207103249Y-67678923D01*
X207125753Y-67671472D01*
X207174182Y-67651753D01*
X207238908Y-67623718D01*
X207252443Y-67617692D01*
X207334244Y-67576096D01*
X207379312Y-67539538D01*
X207389217Y-67505296D01*
X207365526Y-67470648D01*
X207345960Y-67455339D01*
X207275360Y-67424721D01*
X207209280Y-67429780D01*
X207153959Y-67467151D01*
X207115636Y-67533473D01*
X207103349Y-67586116D01*
X207098471Y-67639948D01*
X206980501Y-67639948D01*
X206981730Y-67580720D01*
X206991032Y-67490710D01*
G36*
X200264778Y-67411055D02*
G01*
X200310421Y-67345215D01*
X200392802Y-67278681D01*
X200483546Y-67245676D01*
X200576185Y-67243573D01*
X200664254Y-67269745D01*
X200741286Y-67321567D01*
X200800816Y-67396412D01*
X200836378Y-67491654D01*
X200843571Y-67561756D01*
X200842754Y-67591009D01*
X200835914Y-67613407D01*
X200817112Y-67633474D01*
X200780408Y-67655733D01*
X200719862Y-67684709D01*
X200629534Y-67724927D01*
X200629077Y-67725129D01*
X200545933Y-67763210D01*
X200477753Y-67797025D01*
X200431505Y-67822933D01*
X200414158Y-67837295D01*
X200414154Y-67837411D01*
X200429443Y-67868685D01*
X200465196Y-67903157D01*
X200506242Y-67927990D01*
X200527037Y-67932923D01*
X200583770Y-67915862D01*
X200632627Y-67873133D01*
X200656465Y-67826155D01*
X200679397Y-67791522D01*
X200724318Y-67752081D01*
X200777123Y-67718009D01*
X200823710Y-67699480D01*
X200833452Y-67698462D01*
X200844418Y-67715215D01*
X200845079Y-67758039D01*
X200837020Y-67815781D01*
X200821827Y-67877289D01*
X200801086Y-67931409D01*
X200800038Y-67933510D01*
X200737621Y-68020660D01*
X200656726Y-68079939D01*
X200564856Y-68109034D01*
X200469513Y-68105634D01*
X200378198Y-68067428D01*
X200374138Y-68064741D01*
X200302306Y-67999642D01*
X200255073Y-67914705D01*
X200228934Y-67803021D01*
X200225426Y-67771643D01*
X200219213Y-67623536D01*
X200226661Y-67554468D01*
X200414154Y-67554468D01*
X200416590Y-67597552D01*
X200429914Y-67610126D01*
X200463132Y-67600719D01*
X200515494Y-67578483D01*
X200574024Y-67550610D01*
X200575479Y-67549872D01*
X200625089Y-67523777D01*
X200645000Y-67506363D01*
X200640090Y-67488107D01*
X200619416Y-67464120D01*
X200566819Y-67429406D01*
X200510177Y-67426856D01*
X200459369Y-67452119D01*
X200424276Y-67500847D01*
X200414154Y-67554468D01*
X200226661Y-67554468D01*
X200231992Y-67505036D01*
X200264778Y-67411055D01*
G37*
X200264778Y-67411055D02*
X200310421Y-67345215D01*
X200392802Y-67278681D01*
X200483546Y-67245676D01*
X200576185Y-67243573D01*
X200664254Y-67269745D01*
X200741286Y-67321567D01*
X200800816Y-67396412D01*
X200836378Y-67491654D01*
X200843571Y-67561756D01*
X200842754Y-67591009D01*
X200835914Y-67613407D01*
X200817112Y-67633474D01*
X200780408Y-67655733D01*
X200719862Y-67684709D01*
X200629534Y-67724927D01*
X200629077Y-67725129D01*
X200545933Y-67763210D01*
X200477753Y-67797025D01*
X200431505Y-67822933D01*
X200414158Y-67837295D01*
X200414154Y-67837411D01*
X200429443Y-67868685D01*
X200465196Y-67903157D01*
X200506242Y-67927990D01*
X200527037Y-67932923D01*
X200583770Y-67915862D01*
X200632627Y-67873133D01*
X200656465Y-67826155D01*
X200679397Y-67791522D01*
X200724318Y-67752081D01*
X200777123Y-67718009D01*
X200823710Y-67699480D01*
X200833452Y-67698462D01*
X200844418Y-67715215D01*
X200845079Y-67758039D01*
X200837020Y-67815781D01*
X200821827Y-67877289D01*
X200801086Y-67931409D01*
X200800038Y-67933510D01*
X200737621Y-68020660D01*
X200656726Y-68079939D01*
X200564856Y-68109034D01*
X200469513Y-68105634D01*
X200378198Y-68067428D01*
X200374138Y-68064741D01*
X200302306Y-67999642D01*
X200255073Y-67914705D01*
X200228934Y-67803021D01*
X200225426Y-67771643D01*
X200219213Y-67623536D01*
X200226661Y-67554468D01*
X200414154Y-67554468D01*
X200416590Y-67597552D01*
X200429914Y-67610126D01*
X200463132Y-67600719D01*
X200515494Y-67578483D01*
X200574024Y-67550610D01*
X200575479Y-67549872D01*
X200625089Y-67523777D01*
X200645000Y-67506363D01*
X200640090Y-67488107D01*
X200619416Y-67464120D01*
X200566819Y-67429406D01*
X200510177Y-67426856D01*
X200459369Y-67452119D01*
X200424276Y-67500847D01*
X200414154Y-67554468D01*
X200226661Y-67554468D01*
X200231992Y-67505036D01*
X200264778Y-67411055D01*
G36*
X202289846Y-67162120D02*
G01*
X202295572Y-67241980D01*
X202302149Y-67289039D01*
X202311262Y-67309566D01*
X202324598Y-67309829D01*
X202328923Y-67307378D01*
X202386444Y-67289636D01*
X202461268Y-67290672D01*
X202537339Y-67308910D01*
X202584918Y-67332505D01*
X202633702Y-67370198D01*
X202669364Y-67412855D01*
X202693845Y-67467057D01*
X202709087Y-67539384D01*
X202717030Y-67636419D01*
X202719616Y-67764742D01*
X202719662Y-67789358D01*
X202719692Y-68065870D01*
X202658161Y-68087320D01*
X202614459Y-68101912D01*
X202590482Y-68108706D01*
X202589777Y-68108769D01*
X202587415Y-68090345D01*
X202585406Y-68039526D01*
X202583901Y-67962993D01*
X202583053Y-67867430D01*
X202582923Y-67809329D01*
X202582651Y-67694771D01*
X202581252Y-67612667D01*
X202577849Y-67556393D01*
X202571567Y-67519326D01*
X202561529Y-67494844D01*
X202546861Y-67476325D01*
X202537702Y-67467406D01*
X202474789Y-67431466D01*
X202406136Y-67428775D01*
X202343848Y-67459170D01*
X202332329Y-67470144D01*
X202315433Y-67490779D01*
X202303714Y-67515256D01*
X202296233Y-67550647D01*
X202292054Y-67604026D01*
X202290237Y-67682466D01*
X202289846Y-67790617D01*
X202289846Y-68065870D01*
X202228315Y-68087320D01*
X202184613Y-68101912D01*
X202160636Y-68108706D01*
X202159930Y-68108769D01*
X202158126Y-68090069D01*
X202156500Y-68037322D01*
X202155117Y-67955557D01*
X202154042Y-67849805D01*
X202153340Y-67725094D01*
X202153077Y-67586455D01*
X202153077Y-67051806D01*
X202280077Y-66998236D01*
X202289846Y-67162120D01*
G37*
X202289846Y-67162120D02*
X202295572Y-67241980D01*
X202302149Y-67289039D01*
X202311262Y-67309566D01*
X202324598Y-67309829D01*
X202328923Y-67307378D01*
X202386444Y-67289636D01*
X202461268Y-67290672D01*
X202537339Y-67308910D01*
X202584918Y-67332505D01*
X202633702Y-67370198D01*
X202669364Y-67412855D01*
X202693845Y-67467057D01*
X202709087Y-67539384D01*
X202717030Y-67636419D01*
X202719616Y-67764742D01*
X202719662Y-67789358D01*
X202719692Y-68065870D01*
X202658161Y-68087320D01*
X202614459Y-68101912D01*
X202590482Y-68108706D01*
X202589777Y-68108769D01*
X202587415Y-68090345D01*
X202585406Y-68039526D01*
X202583901Y-67962993D01*
X202583053Y-67867430D01*
X202582923Y-67809329D01*
X202582651Y-67694771D01*
X202581252Y-67612667D01*
X202577849Y-67556393D01*
X202571567Y-67519326D01*
X202561529Y-67494844D01*
X202546861Y-67476325D01*
X202537702Y-67467406D01*
X202474789Y-67431466D01*
X202406136Y-67428775D01*
X202343848Y-67459170D01*
X202332329Y-67470144D01*
X202315433Y-67490779D01*
X202303714Y-67515256D01*
X202296233Y-67550647D01*
X202292054Y-67604026D01*
X202290237Y-67682466D01*
X202289846Y-67790617D01*
X202289846Y-68065870D01*
X202228315Y-68087320D01*
X202184613Y-68101912D01*
X202160636Y-68108706D01*
X202159930Y-68108769D01*
X202158126Y-68090069D01*
X202156500Y-68037322D01*
X202155117Y-67955557D01*
X202154042Y-67849805D01*
X202153340Y-67725094D01*
X202153077Y-67586455D01*
X202153077Y-67051806D01*
X202280077Y-66998236D01*
X202289846Y-67162120D01*
G36*
X203269878Y-60957776D02*
G01*
X203375612Y-60958355D01*
X203452132Y-60959922D01*
X203504372Y-60962972D01*
X203537263Y-60967996D01*
X203555737Y-60975489D01*
X203564727Y-60985944D01*
X203569163Y-60999853D01*
X203569594Y-61001654D01*
X203576333Y-61034145D01*
X203588808Y-61098252D01*
X203605719Y-61187151D01*
X203625771Y-61294019D01*
X203647664Y-61412033D01*
X203648429Y-61416178D01*
X203670359Y-61531831D01*
X203690877Y-61634014D01*
X203708659Y-61716598D01*
X203722381Y-61773456D01*
X203730718Y-61798458D01*
X203731116Y-61798901D01*
X203755677Y-61811110D01*
X203806315Y-61831456D01*
X203872095Y-61855545D01*
X203872461Y-61855674D01*
X203955317Y-61886818D01*
X204053000Y-61926491D01*
X204145077Y-61966381D01*
X204149434Y-61968353D01*
X204299407Y-62036420D01*
X204631498Y-61809639D01*
X204733374Y-61740504D01*
X204825657Y-61678697D01*
X204903003Y-61627733D01*
X204960064Y-61591127D01*
X204991495Y-61572394D01*
X204994479Y-61571004D01*
X205017321Y-61577190D01*
X205059982Y-61607035D01*
X205124128Y-61661947D01*
X205211421Y-61743334D01*
X205300535Y-61829922D01*
X205386441Y-61915247D01*
X205463327Y-61993108D01*
X205526564Y-62058697D01*
X205571523Y-62107205D01*
X205593576Y-62133825D01*
X205594396Y-62135195D01*
X205596834Y-62153463D01*
X205587650Y-62183295D01*
X205564574Y-62228721D01*
X205525337Y-62293770D01*
X205467670Y-62382470D01*
X205390795Y-62496657D01*
X205322570Y-62597162D01*
X205261582Y-62687303D01*
X205211356Y-62761849D01*
X205175416Y-62815565D01*
X205157287Y-62843218D01*
X205156146Y-62845095D01*
X205158359Y-62871590D01*
X205175138Y-62923086D01*
X205203142Y-62989851D01*
X205213122Y-63011172D01*
X205256672Y-63106159D01*
X205303134Y-63213937D01*
X205340877Y-63307192D01*
X205368073Y-63376406D01*
X205389675Y-63429006D01*
X205402158Y-63456497D01*
X205403709Y-63458616D01*
X205426668Y-63462124D01*
X205480786Y-63471738D01*
X205558868Y-63486089D01*
X205653719Y-63503807D01*
X205758143Y-63523525D01*
X205864944Y-63543874D01*
X205966926Y-63563486D01*
X206056894Y-63580991D01*
X206127653Y-63595022D01*
X206172006Y-63604209D01*
X206182885Y-63606807D01*
X206194122Y-63613218D01*
X206202605Y-63627697D01*
X206208714Y-63655133D01*
X206212832Y-63700411D01*
X206215341Y-63768420D01*
X206216621Y-63864047D01*
X206217054Y-63992180D01*
X206217077Y-64044701D01*
X206217077Y-64471845D01*
X206114500Y-64492091D01*
X206057431Y-64503070D01*
X205972269Y-64519095D01*
X205869372Y-64538233D01*
X205759096Y-64558551D01*
X205728615Y-64564132D01*
X205626855Y-64583917D01*
X205538205Y-64603373D01*
X205470108Y-64620697D01*
X205430004Y-64634088D01*
X205423323Y-64638079D01*
X205406919Y-64666342D01*
X205383399Y-64721109D01*
X205357316Y-64791588D01*
X205352142Y-64806769D01*
X205317956Y-64900896D01*
X205275523Y-65007101D01*
X205233997Y-65102473D01*
X205233792Y-65102916D01*
X205164640Y-65252525D01*
X205619512Y-65921617D01*
X205327500Y-66214116D01*
X205239180Y-66301170D01*
X205158625Y-66377909D01*
X205090360Y-66440237D01*
X205038908Y-66484056D01*
X205008794Y-66505270D01*
X205004474Y-66506616D01*
X204979111Y-66496016D01*
X204927358Y-66466547D01*
X204854868Y-66421705D01*
X204767294Y-66364984D01*
X204672612Y-66301462D01*
X204576516Y-66236668D01*
X204490837Y-66180287D01*
X204421016Y-66135788D01*
X204372494Y-66106639D01*
X204350782Y-66096308D01*
X204324293Y-66105050D01*
X204274062Y-66128087D01*
X204210451Y-66160631D01*
X204203708Y-66164249D01*
X204118046Y-66207210D01*
X204059306Y-66228279D01*
X204022772Y-66228503D01*
X204003731Y-66208928D01*
X204003620Y-66208654D01*
X203994102Y-66185472D01*
X203971403Y-66130441D01*
X203937282Y-66047822D01*
X203893500Y-65941872D01*
X203841816Y-65816852D01*
X203783992Y-65677020D01*
X203727991Y-65541637D01*
X203666447Y-65392234D01*
X203609939Y-65253832D01*
X203560161Y-65130673D01*
X203518806Y-65027002D01*
X203487568Y-64947059D01*
X203468141Y-64895088D01*
X203462154Y-64875692D01*
X203477168Y-64853443D01*
X203516439Y-64817982D01*
X203568807Y-64778887D01*
X203717941Y-64655245D01*
X203834511Y-64513522D01*
X203917118Y-64356704D01*
X203964366Y-64187775D01*
X203974857Y-64009722D01*
X203967231Y-63927539D01*
X203925682Y-63757031D01*
X203854123Y-63606459D01*
X203756995Y-63477309D01*
X203638734Y-63371064D01*
X203503780Y-63289210D01*
X203356571Y-63233232D01*
X203201544Y-63204615D01*
X203043139Y-63204844D01*
X202885794Y-63235405D01*
X202733946Y-63297782D01*
X202592035Y-63393460D01*
X202532803Y-63447572D01*
X202419203Y-63586520D01*
X202340106Y-63738361D01*
X202294986Y-63898667D01*
X202283316Y-64063012D01*
X202304569Y-64226971D01*
X202358220Y-64386118D01*
X202443740Y-64536025D01*
X202560605Y-64672267D01*
X202691193Y-64778887D01*
X202745588Y-64819642D01*
X202784014Y-64854718D01*
X202797846Y-64875726D01*
X202790603Y-64898635D01*
X202770005Y-64953365D01*
X202737746Y-65035672D01*
X202695521Y-65141315D01*
X202645023Y-65266050D01*
X202587948Y-65405636D01*
X202531854Y-65541670D01*
X202469967Y-65691201D01*
X202412644Y-65829767D01*
X202361644Y-65953107D01*
X202318727Y-66056964D01*
X202285653Y-66137080D01*
X202264181Y-66189195D01*
X202256225Y-66208654D01*
X202237429Y-66228423D01*
X202201074Y-66228365D01*
X202142479Y-66207441D01*
X202056968Y-66164613D01*
X202056292Y-66164249D01*
X201991907Y-66131012D01*
X201939861Y-66106802D01*
X201910512Y-66096404D01*
X201909217Y-66096308D01*
X201887124Y-66106855D01*
X201838348Y-66136184D01*
X201768331Y-66180827D01*
X201682514Y-66237314D01*
X201587388Y-66301462D01*
X201490540Y-66366411D01*
X201403253Y-66422896D01*
X201331181Y-66467421D01*
X201279977Y-66496490D01*
X201255526Y-66506616D01*
X201233010Y-66493307D01*
X201187742Y-66456112D01*
X201124244Y-66399128D01*
X201047039Y-66326449D01*
X200960651Y-66242171D01*
X200932399Y-66214016D01*
X200640287Y-65921416D01*
X200862631Y-65595104D01*
X200930202Y-65494897D01*
X200989507Y-65404963D01*
X201037217Y-65330510D01*
X201070007Y-65276751D01*
X201084548Y-65248894D01*
X201084974Y-65246912D01*
X201077308Y-65220655D01*
X201056689Y-65167837D01*
X201026685Y-65097310D01*
X201005625Y-65050093D01*
X200966248Y-64959694D01*
X200929165Y-64868366D01*
X200900415Y-64791200D01*
X200892605Y-64767692D01*
X200870417Y-64704916D01*
X200848727Y-64656411D01*
X200836813Y-64638079D01*
X200810523Y-64626859D01*
X200753142Y-64610954D01*
X200672118Y-64592167D01*
X200574895Y-64572299D01*
X200531385Y-64564132D01*
X200420896Y-64543829D01*
X200314916Y-64524170D01*
X200223801Y-64507088D01*
X200157908Y-64494518D01*
X200145500Y-64492091D01*
X200042923Y-64471845D01*
X200042923Y-64044701D01*
X200043153Y-63904246D01*
X200044099Y-63797979D01*
X200046141Y-63721013D01*
X200049662Y-63668460D01*
X200055043Y-63635433D01*
X200062666Y-63617045D01*
X200072912Y-63608408D01*
X200077115Y-63606807D01*
X200102470Y-63601127D01*
X200158484Y-63589795D01*
X200237964Y-63574179D01*
X200333712Y-63555647D01*
X200438533Y-63535569D01*
X200545232Y-63515312D01*
X200646613Y-63496246D01*
X200735479Y-63479739D01*
X200804637Y-63467159D01*
X200846889Y-63459875D01*
X200856290Y-63458616D01*
X200864807Y-63441763D01*
X200883660Y-63396870D01*
X200909324Y-63332430D01*
X200919123Y-63307192D01*
X200958648Y-63209686D01*
X201005192Y-63101959D01*
X201046877Y-63011172D01*
X201077550Y-62941753D01*
X201097956Y-62884710D01*
X201104768Y-62849777D01*
X201103682Y-62845095D01*
X201089285Y-62822991D01*
X201056412Y-62773831D01*
X201008590Y-62702848D01*
X200949348Y-62615278D01*
X200882215Y-62516357D01*
X200868941Y-62496830D01*
X200791046Y-62381140D01*
X200733787Y-62293044D01*
X200694881Y-62228486D01*
X200672044Y-62183411D01*
X200662994Y-62153763D01*
X200665448Y-62135485D01*
X200665511Y-62135369D01*
X200684827Y-62111361D01*
X200727551Y-62064947D01*
X200789051Y-62000937D01*
X200864698Y-61924145D01*
X200949861Y-61839382D01*
X200959465Y-61829922D01*
X201066790Y-61725989D01*
X201149615Y-61649675D01*
X201209605Y-61599571D01*
X201248423Y-61574270D01*
X201265520Y-61571004D01*
X201290473Y-61585250D01*
X201342255Y-61618156D01*
X201415520Y-61666208D01*
X201504920Y-61725890D01*
X201605111Y-61793688D01*
X201628501Y-61809639D01*
X201960593Y-62036420D01*
X202110565Y-61968353D01*
X202201770Y-61928685D01*
X202299669Y-61888791D01*
X202383831Y-61856983D01*
X202387538Y-61855674D01*
X202453369Y-61831576D01*
X202504116Y-61811200D01*
X202528842Y-61798936D01*
X202528884Y-61798901D01*
X202536729Y-61776734D01*
X202550066Y-61722217D01*
X202567570Y-61641480D01*
X202587917Y-61540650D01*
X202609782Y-61425856D01*
X202611571Y-61416178D01*
X202633504Y-61297904D01*
X202653640Y-61190542D01*
X202670680Y-61100917D01*
X202683328Y-61035851D01*
X202690284Y-61002168D01*
X202690406Y-61001654D01*
X202694639Y-60987325D01*
X202702871Y-60976507D01*
X202720033Y-60968706D01*
X202751058Y-60963429D01*
X202800878Y-60960182D01*
X202874424Y-60958472D01*
X202976629Y-60957807D01*
X203112425Y-60957693D01*
X203130000Y-60957692D01*
X203269878Y-60957776D01*
G37*
X203269878Y-60957776D02*
X203375612Y-60958355D01*
X203452132Y-60959922D01*
X203504372Y-60962972D01*
X203537263Y-60967996D01*
X203555737Y-60975489D01*
X203564727Y-60985944D01*
X203569163Y-60999853D01*
X203569594Y-61001654D01*
X203576333Y-61034145D01*
X203588808Y-61098252D01*
X203605719Y-61187151D01*
X203625771Y-61294019D01*
X203647664Y-61412033D01*
X203648429Y-61416178D01*
X203670359Y-61531831D01*
X203690877Y-61634014D01*
X203708659Y-61716598D01*
X203722381Y-61773456D01*
X203730718Y-61798458D01*
X203731116Y-61798901D01*
X203755677Y-61811110D01*
X203806315Y-61831456D01*
X203872095Y-61855545D01*
X203872461Y-61855674D01*
X203955317Y-61886818D01*
X204053000Y-61926491D01*
X204145077Y-61966381D01*
X204149434Y-61968353D01*
X204299407Y-62036420D01*
X204631498Y-61809639D01*
X204733374Y-61740504D01*
X204825657Y-61678697D01*
X204903003Y-61627733D01*
X204960064Y-61591127D01*
X204991495Y-61572394D01*
X204994479Y-61571004D01*
X205017321Y-61577190D01*
X205059982Y-61607035D01*
X205124128Y-61661947D01*
X205211421Y-61743334D01*
X205300535Y-61829922D01*
X205386441Y-61915247D01*
X205463327Y-61993108D01*
X205526564Y-62058697D01*
X205571523Y-62107205D01*
X205593576Y-62133825D01*
X205594396Y-62135195D01*
X205596834Y-62153463D01*
X205587650Y-62183295D01*
X205564574Y-62228721D01*
X205525337Y-62293770D01*
X205467670Y-62382470D01*
X205390795Y-62496657D01*
X205322570Y-62597162D01*
X205261582Y-62687303D01*
X205211356Y-62761849D01*
X205175416Y-62815565D01*
X205157287Y-62843218D01*
X205156146Y-62845095D01*
X205158359Y-62871590D01*
X205175138Y-62923086D01*
X205203142Y-62989851D01*
X205213122Y-63011172D01*
X205256672Y-63106159D01*
X205303134Y-63213937D01*
X205340877Y-63307192D01*
X205368073Y-63376406D01*
X205389675Y-63429006D01*
X205402158Y-63456497D01*
X205403709Y-63458616D01*
X205426668Y-63462124D01*
X205480786Y-63471738D01*
X205558868Y-63486089D01*
X205653719Y-63503807D01*
X205758143Y-63523525D01*
X205864944Y-63543874D01*
X205966926Y-63563486D01*
X206056894Y-63580991D01*
X206127653Y-63595022D01*
X206172006Y-63604209D01*
X206182885Y-63606807D01*
X206194122Y-63613218D01*
X206202605Y-63627697D01*
X206208714Y-63655133D01*
X206212832Y-63700411D01*
X206215341Y-63768420D01*
X206216621Y-63864047D01*
X206217054Y-63992180D01*
X206217077Y-64044701D01*
X206217077Y-64471845D01*
X206114500Y-64492091D01*
X206057431Y-64503070D01*
X205972269Y-64519095D01*
X205869372Y-64538233D01*
X205759096Y-64558551D01*
X205728615Y-64564132D01*
X205626855Y-64583917D01*
X205538205Y-64603373D01*
X205470108Y-64620697D01*
X205430004Y-64634088D01*
X205423323Y-64638079D01*
X205406919Y-64666342D01*
X205383399Y-64721109D01*
X205357316Y-64791588D01*
X205352142Y-64806769D01*
X205317956Y-64900896D01*
X205275523Y-65007101D01*
X205233997Y-65102473D01*
X205233792Y-65102916D01*
X205164640Y-65252525D01*
X205619512Y-65921617D01*
X205327500Y-66214116D01*
X205239180Y-66301170D01*
X205158625Y-66377909D01*
X205090360Y-66440237D01*
X205038908Y-66484056D01*
X205008794Y-66505270D01*
X205004474Y-66506616D01*
X204979111Y-66496016D01*
X204927358Y-66466547D01*
X204854868Y-66421705D01*
X204767294Y-66364984D01*
X204672612Y-66301462D01*
X204576516Y-66236668D01*
X204490837Y-66180287D01*
X204421016Y-66135788D01*
X204372494Y-66106639D01*
X204350782Y-66096308D01*
X204324293Y-66105050D01*
X204274062Y-66128087D01*
X204210451Y-66160631D01*
X204203708Y-66164249D01*
X204118046Y-66207210D01*
X204059306Y-66228279D01*
X204022772Y-66228503D01*
X204003731Y-66208928D01*
X204003620Y-66208654D01*
X203994102Y-66185472D01*
X203971403Y-66130441D01*
X203937282Y-66047822D01*
X203893500Y-65941872D01*
X203841816Y-65816852D01*
X203783992Y-65677020D01*
X203727991Y-65541637D01*
X203666447Y-65392234D01*
X203609939Y-65253832D01*
X203560161Y-65130673D01*
X203518806Y-65027002D01*
X203487568Y-64947059D01*
X203468141Y-64895088D01*
X203462154Y-64875692D01*
X203477168Y-64853443D01*
X203516439Y-64817982D01*
X203568807Y-64778887D01*
X203717941Y-64655245D01*
X203834511Y-64513522D01*
X203917118Y-64356704D01*
X203964366Y-64187775D01*
X203974857Y-64009722D01*
X203967231Y-63927539D01*
X203925682Y-63757031D01*
X203854123Y-63606459D01*
X203756995Y-63477309D01*
X203638734Y-63371064D01*
X203503780Y-63289210D01*
X203356571Y-63233232D01*
X203201544Y-63204615D01*
X203043139Y-63204844D01*
X202885794Y-63235405D01*
X202733946Y-63297782D01*
X202592035Y-63393460D01*
X202532803Y-63447572D01*
X202419203Y-63586520D01*
X202340106Y-63738361D01*
X202294986Y-63898667D01*
X202283316Y-64063012D01*
X202304569Y-64226971D01*
X202358220Y-64386118D01*
X202443740Y-64536025D01*
X202560605Y-64672267D01*
X202691193Y-64778887D01*
X202745588Y-64819642D01*
X202784014Y-64854718D01*
X202797846Y-64875726D01*
X202790603Y-64898635D01*
X202770005Y-64953365D01*
X202737746Y-65035672D01*
X202695521Y-65141315D01*
X202645023Y-65266050D01*
X202587948Y-65405636D01*
X202531854Y-65541670D01*
X202469967Y-65691201D01*
X202412644Y-65829767D01*
X202361644Y-65953107D01*
X202318727Y-66056964D01*
X202285653Y-66137080D01*
X202264181Y-66189195D01*
X202256225Y-66208654D01*
X202237429Y-66228423D01*
X202201074Y-66228365D01*
X202142479Y-66207441D01*
X202056968Y-66164613D01*
X202056292Y-66164249D01*
X201991907Y-66131012D01*
X201939861Y-66106802D01*
X201910512Y-66096404D01*
X201909217Y-66096308D01*
X201887124Y-66106855D01*
X201838348Y-66136184D01*
X201768331Y-66180827D01*
X201682514Y-66237314D01*
X201587388Y-66301462D01*
X201490540Y-66366411D01*
X201403253Y-66422896D01*
X201331181Y-66467421D01*
X201279977Y-66496490D01*
X201255526Y-66506616D01*
X201233010Y-66493307D01*
X201187742Y-66456112D01*
X201124244Y-66399128D01*
X201047039Y-66326449D01*
X200960651Y-66242171D01*
X200932399Y-66214016D01*
X200640287Y-65921416D01*
X200862631Y-65595104D01*
X200930202Y-65494897D01*
X200989507Y-65404963D01*
X201037217Y-65330510D01*
X201070007Y-65276751D01*
X201084548Y-65248894D01*
X201084974Y-65246912D01*
X201077308Y-65220655D01*
X201056689Y-65167837D01*
X201026685Y-65097310D01*
X201005625Y-65050093D01*
X200966248Y-64959694D01*
X200929165Y-64868366D01*
X200900415Y-64791200D01*
X200892605Y-64767692D01*
X200870417Y-64704916D01*
X200848727Y-64656411D01*
X200836813Y-64638079D01*
X200810523Y-64626859D01*
X200753142Y-64610954D01*
X200672118Y-64592167D01*
X200574895Y-64572299D01*
X200531385Y-64564132D01*
X200420896Y-64543829D01*
X200314916Y-64524170D01*
X200223801Y-64507088D01*
X200157908Y-64494518D01*
X200145500Y-64492091D01*
X200042923Y-64471845D01*
X200042923Y-64044701D01*
X200043153Y-63904246D01*
X200044099Y-63797979D01*
X200046141Y-63721013D01*
X200049662Y-63668460D01*
X200055043Y-63635433D01*
X200062666Y-63617045D01*
X200072912Y-63608408D01*
X200077115Y-63606807D01*
X200102470Y-63601127D01*
X200158484Y-63589795D01*
X200237964Y-63574179D01*
X200333712Y-63555647D01*
X200438533Y-63535569D01*
X200545232Y-63515312D01*
X200646613Y-63496246D01*
X200735479Y-63479739D01*
X200804637Y-63467159D01*
X200846889Y-63459875D01*
X200856290Y-63458616D01*
X200864807Y-63441763D01*
X200883660Y-63396870D01*
X200909324Y-63332430D01*
X200919123Y-63307192D01*
X200958648Y-63209686D01*
X201005192Y-63101959D01*
X201046877Y-63011172D01*
X201077550Y-62941753D01*
X201097956Y-62884710D01*
X201104768Y-62849777D01*
X201103682Y-62845095D01*
X201089285Y-62822991D01*
X201056412Y-62773831D01*
X201008590Y-62702848D01*
X200949348Y-62615278D01*
X200882215Y-62516357D01*
X200868941Y-62496830D01*
X200791046Y-62381140D01*
X200733787Y-62293044D01*
X200694881Y-62228486D01*
X200672044Y-62183411D01*
X200662994Y-62153763D01*
X200665448Y-62135485D01*
X200665511Y-62135369D01*
X200684827Y-62111361D01*
X200727551Y-62064947D01*
X200789051Y-62000937D01*
X200864698Y-61924145D01*
X200949861Y-61839382D01*
X200959465Y-61829922D01*
X201066790Y-61725989D01*
X201149615Y-61649675D01*
X201209605Y-61599571D01*
X201248423Y-61574270D01*
X201265520Y-61571004D01*
X201290473Y-61585250D01*
X201342255Y-61618156D01*
X201415520Y-61666208D01*
X201504920Y-61725890D01*
X201605111Y-61793688D01*
X201628501Y-61809639D01*
X201960593Y-62036420D01*
X202110565Y-61968353D01*
X202201770Y-61928685D01*
X202299669Y-61888791D01*
X202383831Y-61856983D01*
X202387538Y-61855674D01*
X202453369Y-61831576D01*
X202504116Y-61811200D01*
X202528842Y-61798936D01*
X202528884Y-61798901D01*
X202536729Y-61776734D01*
X202550066Y-61722217D01*
X202567570Y-61641480D01*
X202587917Y-61540650D01*
X202609782Y-61425856D01*
X202611571Y-61416178D01*
X202633504Y-61297904D01*
X202653640Y-61190542D01*
X202670680Y-61100917D01*
X202683328Y-61035851D01*
X202690284Y-61002168D01*
X202690406Y-61001654D01*
X202694639Y-60987325D01*
X202702871Y-60976507D01*
X202720033Y-60968706D01*
X202751058Y-60963429D01*
X202800878Y-60960182D01*
X202874424Y-60958472D01*
X202976629Y-60957807D01*
X203112425Y-60957693D01*
X203130000Y-60957692D01*
X203269878Y-60957776D01*
G36*
X203183501Y-67296303D02*
G01*
X203260060Y-67324733D01*
X203260936Y-67325279D01*
X203308285Y-67360127D01*
X203343241Y-67400852D01*
X203367825Y-67453925D01*
X203384062Y-67525814D01*
X203393975Y-67622992D01*
X203399586Y-67751928D01*
X203400077Y-67770298D01*
X203407141Y-68047287D01*
X203347695Y-68078028D01*
X203304681Y-68098802D01*
X203278710Y-68108646D01*
X203277509Y-68108769D01*
X203273014Y-68090606D01*
X203269444Y-68041612D01*
X203267248Y-67970031D01*
X203266769Y-67912068D01*
X203266758Y-67818170D01*
X203262466Y-67759203D01*
X203247503Y-67731079D01*
X203215482Y-67729706D01*
X203160014Y-67750998D01*
X203076269Y-67790136D01*
X203014689Y-67822643D01*
X202983017Y-67850845D01*
X202973706Y-67881582D01*
X202973692Y-67883104D01*
X202989057Y-67936054D01*
X203034547Y-67964660D01*
X203104166Y-67968803D01*
X203154313Y-67968084D01*
X203180754Y-67982527D01*
X203197243Y-68017218D01*
X203206733Y-68061416D01*
X203193057Y-68086493D01*
X203187907Y-68090082D01*
X203139425Y-68104496D01*
X203071531Y-68106537D01*
X203001612Y-68096983D01*
X202952068Y-68079522D01*
X202883570Y-68021364D01*
X202844634Y-67940408D01*
X202836923Y-67877160D01*
X202842807Y-67820111D01*
X202864101Y-67773542D01*
X202906265Y-67732181D01*
X202974759Y-67690755D01*
X203075044Y-67643993D01*
X203081154Y-67641350D01*
X203171490Y-67599617D01*
X203227235Y-67565391D01*
X203251129Y-67534635D01*
X203245913Y-67503311D01*
X203214328Y-67467383D01*
X203204883Y-67459116D01*
X203141617Y-67427058D01*
X203076064Y-67428407D01*
X203018972Y-67459838D01*
X202981093Y-67518024D01*
X202977574Y-67529446D01*
X202943300Y-67584837D01*
X202899809Y-67611518D01*
X202836923Y-67637960D01*
X202836923Y-67569548D01*
X202856052Y-67470110D01*
X202912831Y-67378902D01*
X202942378Y-67348389D01*
X203009542Y-67309228D01*
X203094956Y-67291500D01*
X203183501Y-67296303D01*
G37*
X203183501Y-67296303D02*
X203260060Y-67324733D01*
X203260936Y-67325279D01*
X203308285Y-67360127D01*
X203343241Y-67400852D01*
X203367825Y-67453925D01*
X203384062Y-67525814D01*
X203393975Y-67622992D01*
X203399586Y-67751928D01*
X203400077Y-67770298D01*
X203407141Y-68047287D01*
X203347695Y-68078028D01*
X203304681Y-68098802D01*
X203278710Y-68108646D01*
X203277509Y-68108769D01*
X203273014Y-68090606D01*
X203269444Y-68041612D01*
X203267248Y-67970031D01*
X203266769Y-67912068D01*
X203266758Y-67818170D01*
X203262466Y-67759203D01*
X203247503Y-67731079D01*
X203215482Y-67729706D01*
X203160014Y-67750998D01*
X203076269Y-67790136D01*
X203014689Y-67822643D01*
X202983017Y-67850845D01*
X202973706Y-67881582D01*
X202973692Y-67883104D01*
X202989057Y-67936054D01*
X203034547Y-67964660D01*
X203104166Y-67968803D01*
X203154313Y-67968084D01*
X203180754Y-67982527D01*
X203197243Y-68017218D01*
X203206733Y-68061416D01*
X203193057Y-68086493D01*
X203187907Y-68090082D01*
X203139425Y-68104496D01*
X203071531Y-68106537D01*
X203001612Y-68096983D01*
X202952068Y-68079522D01*
X202883570Y-68021364D01*
X202844634Y-67940408D01*
X202836923Y-67877160D01*
X202842807Y-67820111D01*
X202864101Y-67773542D01*
X202906265Y-67732181D01*
X202974759Y-67690755D01*
X203075044Y-67643993D01*
X203081154Y-67641350D01*
X203171490Y-67599617D01*
X203227235Y-67565391D01*
X203251129Y-67534635D01*
X203245913Y-67503311D01*
X203214328Y-67467383D01*
X203204883Y-67459116D01*
X203141617Y-67427058D01*
X203076064Y-67428407D01*
X203018972Y-67459838D01*
X202981093Y-67518024D01*
X202977574Y-67529446D01*
X202943300Y-67584837D01*
X202899809Y-67611518D01*
X202836923Y-67637960D01*
X202836923Y-67569548D01*
X202856052Y-67470110D01*
X202912831Y-67378902D01*
X202942378Y-67348389D01*
X203009542Y-67309228D01*
X203094956Y-67291500D01*
X203183501Y-67296303D01*
G36*
X203843362Y-67294670D02*
G01*
X203932117Y-67327421D01*
X204004022Y-67385350D01*
X204032144Y-67426128D01*
X204062802Y-67500954D01*
X204062165Y-67555058D01*
X204029987Y-67591446D01*
X204018081Y-67597633D01*
X203966675Y-67616925D01*
X203940422Y-67611982D01*
X203931530Y-67579587D01*
X203931077Y-67561692D01*
X203914797Y-67495859D01*
X203872365Y-67449807D01*
X203813388Y-67427564D01*
X203747475Y-67433161D01*
X203693895Y-67462229D01*
X203675798Y-67478810D01*
X203662971Y-67498925D01*
X203654306Y-67529332D01*
X203648696Y-67576788D01*
X203645035Y-67648050D01*
X203642215Y-67749875D01*
X203641484Y-67782115D01*
X203638820Y-67892410D01*
X203635792Y-67970036D01*
X203631250Y-68021396D01*
X203624046Y-68052890D01*
X203613033Y-68070920D01*
X203597060Y-68081888D01*
X203586834Y-68086733D01*
X203543406Y-68103301D01*
X203517842Y-68108769D01*
X203509395Y-68090507D01*
X203504239Y-68035296D01*
X203502346Y-67942499D01*
X203503689Y-67811478D01*
X203504107Y-67791269D01*
X203507058Y-67671733D01*
X203510548Y-67584449D01*
X203515514Y-67522591D01*
X203522893Y-67479336D01*
X203533624Y-67447860D01*
X203548645Y-67421339D01*
X203556502Y-67409975D01*
X203601553Y-67359692D01*
X203651940Y-67320581D01*
X203658108Y-67317167D01*
X203748458Y-67290212D01*
X203843362Y-67294670D01*
G37*
X203843362Y-67294670D02*
X203932117Y-67327421D01*
X204004022Y-67385350D01*
X204032144Y-67426128D01*
X204062802Y-67500954D01*
X204062165Y-67555058D01*
X204029987Y-67591446D01*
X204018081Y-67597633D01*
X203966675Y-67616925D01*
X203940422Y-67611982D01*
X203931530Y-67579587D01*
X203931077Y-67561692D01*
X203914797Y-67495859D01*
X203872365Y-67449807D01*
X203813388Y-67427564D01*
X203747475Y-67433161D01*
X203693895Y-67462229D01*
X203675798Y-67478810D01*
X203662971Y-67498925D01*
X203654306Y-67529332D01*
X203648696Y-67576788D01*
X203645035Y-67648050D01*
X203642215Y-67749875D01*
X203641484Y-67782115D01*
X203638820Y-67892410D01*
X203635792Y-67970036D01*
X203631250Y-68021396D01*
X203624046Y-68052890D01*
X203613033Y-68070920D01*
X203597060Y-68081888D01*
X203586834Y-68086733D01*
X203543406Y-68103301D01*
X203517842Y-68108769D01*
X203509395Y-68090507D01*
X203504239Y-68035296D01*
X203502346Y-67942499D01*
X203503689Y-67811478D01*
X203504107Y-67791269D01*
X203507058Y-67671733D01*
X203510548Y-67584449D01*
X203515514Y-67522591D01*
X203522893Y-67479336D01*
X203533624Y-67447860D01*
X203548645Y-67421339D01*
X203556502Y-67409975D01*
X203601553Y-67359692D01*
X203651940Y-67320581D01*
X203658108Y-67317167D01*
X203748458Y-67290212D01*
X203843362Y-67294670D01*
G36*
X206017333Y-67303528D02*
G01*
X206073590Y-67329117D01*
X206117747Y-67360124D01*
X206150101Y-67394795D01*
X206172438Y-67439520D01*
X206186546Y-67500692D01*
X206194211Y-67584701D01*
X206197220Y-67697940D01*
X206197538Y-67772509D01*
X206197538Y-68063420D01*
X206147773Y-68086095D01*
X206108576Y-68102667D01*
X206089157Y-68108769D01*
X206085442Y-68090610D01*
X206082495Y-68041648D01*
X206080691Y-67970153D01*
X206080308Y-67913385D01*
X206078661Y-67831371D01*
X206074222Y-67766309D01*
X206067740Y-67726467D01*
X206062590Y-67718000D01*
X206027977Y-67726646D01*
X205973640Y-67748823D01*
X205910722Y-67778886D01*
X205850368Y-67811192D01*
X205803721Y-67840098D01*
X205781926Y-67859961D01*
X205781839Y-67860175D01*
X205783714Y-67896935D01*
X205800525Y-67932026D01*
X205830039Y-67960528D01*
X205873116Y-67970061D01*
X205909932Y-67968950D01*
X205962074Y-67968133D01*
X205989444Y-67980349D01*
X206005882Y-68012624D01*
X206007955Y-68018710D01*
X206015081Y-68064739D01*
X205996024Y-68092687D01*
X205946353Y-68106007D01*
X205892697Y-68108470D01*
X205796142Y-68090210D01*
X205746159Y-68064131D01*
X205684429Y-68002868D01*
X205651690Y-67927670D01*
X205648753Y-67848211D01*
X205676424Y-67774167D01*
X205718047Y-67727769D01*
X205759604Y-67701793D01*
X205824922Y-67668907D01*
X205901038Y-67635557D01*
X205913726Y-67630461D01*
X205997333Y-67593565D01*
X206045530Y-67561046D01*
X206061030Y-67528718D01*
X206046550Y-67492394D01*
X206021692Y-67464000D01*
X205962939Y-67429039D01*
X205898293Y-67426417D01*
X205839008Y-67453358D01*
X205796339Y-67507088D01*
X205790739Y-67520950D01*
X205758133Y-67571936D01*
X205710530Y-67609787D01*
X205650461Y-67640850D01*
X205650461Y-67552768D01*
X205653997Y-67498951D01*
X205669156Y-67456534D01*
X205702768Y-67411279D01*
X205735035Y-67376420D01*
X205785209Y-67327062D01*
X205824193Y-67300547D01*
X205866064Y-67289911D01*
X205913460Y-67288154D01*
X206017333Y-67303528D01*
G37*
X206017333Y-67303528D02*
X206073590Y-67329117D01*
X206117747Y-67360124D01*
X206150101Y-67394795D01*
X206172438Y-67439520D01*
X206186546Y-67500692D01*
X206194211Y-67584701D01*
X206197220Y-67697940D01*
X206197538Y-67772509D01*
X206197538Y-68063420D01*
X206147773Y-68086095D01*
X206108576Y-68102667D01*
X206089157Y-68108769D01*
X206085442Y-68090610D01*
X206082495Y-68041648D01*
X206080691Y-67970153D01*
X206080308Y-67913385D01*
X206078661Y-67831371D01*
X206074222Y-67766309D01*
X206067740Y-67726467D01*
X206062590Y-67718000D01*
X206027977Y-67726646D01*
X205973640Y-67748823D01*
X205910722Y-67778886D01*
X205850368Y-67811192D01*
X205803721Y-67840098D01*
X205781926Y-67859961D01*
X205781839Y-67860175D01*
X205783714Y-67896935D01*
X205800525Y-67932026D01*
X205830039Y-67960528D01*
X205873116Y-67970061D01*
X205909932Y-67968950D01*
X205962074Y-67968133D01*
X205989444Y-67980349D01*
X206005882Y-68012624D01*
X206007955Y-68018710D01*
X206015081Y-68064739D01*
X205996024Y-68092687D01*
X205946353Y-68106007D01*
X205892697Y-68108470D01*
X205796142Y-68090210D01*
X205746159Y-68064131D01*
X205684429Y-68002868D01*
X205651690Y-67927670D01*
X205648753Y-67848211D01*
X205676424Y-67774167D01*
X205718047Y-67727769D01*
X205759604Y-67701793D01*
X205824922Y-67668907D01*
X205901038Y-67635557D01*
X205913726Y-67630461D01*
X205997333Y-67593565D01*
X206045530Y-67561046D01*
X206061030Y-67528718D01*
X206046550Y-67492394D01*
X206021692Y-67464000D01*
X205962939Y-67429039D01*
X205898293Y-67426417D01*
X205839008Y-67453358D01*
X205796339Y-67507088D01*
X205790739Y-67520950D01*
X205758133Y-67571936D01*
X205710530Y-67609787D01*
X205650461Y-67640850D01*
X205650461Y-67552768D01*
X205653997Y-67498951D01*
X205669156Y-67456534D01*
X205702768Y-67411279D01*
X205735035Y-67376420D01*
X205785209Y-67327062D01*
X205824193Y-67300547D01*
X205866064Y-67289911D01*
X205913460Y-67288154D01*
X206017333Y-67303528D01*
G36*
X205525929Y-67306662D02*
G01*
X205528911Y-67358068D01*
X205531247Y-67436192D01*
X205532749Y-67534857D01*
X205533231Y-67638343D01*
X205533231Y-67988533D01*
X205471401Y-68050363D01*
X205428793Y-68088462D01*
X205391390Y-68103895D01*
X205340270Y-68102918D01*
X205319978Y-68100433D01*
X205256554Y-68093200D01*
X205204095Y-68089055D01*
X205191308Y-68088672D01*
X205148199Y-68091176D01*
X205086544Y-68097462D01*
X205062638Y-68100433D01*
X205003922Y-68105028D01*
X204964464Y-68095046D01*
X204925338Y-68064228D01*
X204911215Y-68050363D01*
X204849385Y-67988533D01*
X204849385Y-67333503D01*
X204899150Y-67310829D01*
X204942002Y-67294034D01*
X204967073Y-67288154D01*
X204973501Y-67306736D01*
X204979509Y-67358655D01*
X204984697Y-67438172D01*
X204988664Y-67539546D01*
X204990577Y-67625192D01*
X204995923Y-67962231D01*
X205042560Y-67968825D01*
X205084976Y-67964214D01*
X205105760Y-67949287D01*
X205111570Y-67921377D01*
X205116530Y-67861925D01*
X205120246Y-67778466D01*
X205122324Y-67678532D01*
X205122624Y-67627104D01*
X205122923Y-67331054D01*
X205184454Y-67309604D01*
X205228004Y-67295020D01*
X205251694Y-67288219D01*
X205252377Y-67288154D01*
X205254754Y-67306642D01*
X205257366Y-67357906D01*
X205259995Y-67435649D01*
X205262421Y-67533574D01*
X205264115Y-67625192D01*
X205269461Y-67962231D01*
X205386692Y-67962231D01*
X205392072Y-67654746D01*
X205397451Y-67347261D01*
X205454601Y-67317707D01*
X205496797Y-67297413D01*
X205521770Y-67288204D01*
X205522491Y-67288154D01*
X205525929Y-67306662D01*
G37*
X205525929Y-67306662D02*
X205528911Y-67358068D01*
X205531247Y-67436192D01*
X205532749Y-67534857D01*
X205533231Y-67638343D01*
X205533231Y-67988533D01*
X205471401Y-68050363D01*
X205428793Y-68088462D01*
X205391390Y-68103895D01*
X205340270Y-68102918D01*
X205319978Y-68100433D01*
X205256554Y-68093200D01*
X205204095Y-68089055D01*
X205191308Y-68088672D01*
X205148199Y-68091176D01*
X205086544Y-68097462D01*
X205062638Y-68100433D01*
X205003922Y-68105028D01*
X204964464Y-68095046D01*
X204925338Y-68064228D01*
X204911215Y-68050363D01*
X204849385Y-67988533D01*
X204849385Y-67333503D01*
X204899150Y-67310829D01*
X204942002Y-67294034D01*
X204967073Y-67288154D01*
X204973501Y-67306736D01*
X204979509Y-67358655D01*
X204984697Y-67438172D01*
X204988664Y-67539546D01*
X204990577Y-67625192D01*
X204995923Y-67962231D01*
X205042560Y-67968825D01*
X205084976Y-67964214D01*
X205105760Y-67949287D01*
X205111570Y-67921377D01*
X205116530Y-67861925D01*
X205120246Y-67778466D01*
X205122324Y-67678532D01*
X205122624Y-67627104D01*
X205122923Y-67331054D01*
X205184454Y-67309604D01*
X205228004Y-67295020D01*
X205251694Y-67288219D01*
X205252377Y-67288154D01*
X205254754Y-67306642D01*
X205257366Y-67357906D01*
X205259995Y-67435649D01*
X205262421Y-67533574D01*
X205264115Y-67625192D01*
X205269461Y-67962231D01*
X205386692Y-67962231D01*
X205392072Y-67654746D01*
X205397451Y-67347261D01*
X205454601Y-67317707D01*
X205496797Y-67297413D01*
X205521770Y-67288204D01*
X205522491Y-67288154D01*
X205525929Y-67306662D01*
G36*
X198737629Y-67507906D02*
G01*
X198744322Y-67459163D01*
X198755960Y-67423288D01*
X198773853Y-67391548D01*
X198777808Y-67385648D01*
X198844267Y-67306104D01*
X198916685Y-67259929D01*
X199004849Y-67241599D01*
X199034787Y-67240703D01*
X199146886Y-67257256D01*
X199238464Y-67305409D01*
X199306049Y-67382905D01*
X199330057Y-67432727D01*
X199348738Y-67507533D01*
X199358301Y-67602052D01*
X199359208Y-67705210D01*
X199351921Y-67805935D01*
X199336903Y-67893153D01*
X199314615Y-67955791D01*
X199307765Y-67966579D01*
X199226632Y-68047105D01*
X199130266Y-68095336D01*
X199025701Y-68109450D01*
X198919968Y-68087629D01*
X198890543Y-68074547D01*
X198833241Y-68034231D01*
X198782950Y-67980775D01*
X198778197Y-67973995D01*
X198758878Y-67941321D01*
X198746108Y-67906394D01*
X198738564Y-67860414D01*
X198734924Y-67794584D01*
X198733865Y-67700105D01*
X198733846Y-67678923D01*
X198733894Y-67672182D01*
X198929231Y-67672182D01*
X198930368Y-67761349D01*
X198934841Y-67820520D01*
X198944246Y-67858741D01*
X198960176Y-67885053D01*
X198968308Y-67893846D01*
X199015058Y-67927261D01*
X199060447Y-67925737D01*
X199106340Y-67896752D01*
X199133712Y-67865809D01*
X199149923Y-67820643D01*
X199159026Y-67749420D01*
X199159651Y-67741114D01*
X199161204Y-67612037D01*
X199144965Y-67516172D01*
X199111152Y-67454107D01*
X199059984Y-67426432D01*
X199041720Y-67424923D01*
X198993760Y-67432513D01*
X198960953Y-67458808D01*
X198940895Y-67509095D01*
X198931178Y-67588664D01*
X198929231Y-67672182D01*
X198733894Y-67672182D01*
X198734574Y-67578249D01*
X198737629Y-67507906D01*
G37*
X198737629Y-67507906D02*
X198744322Y-67459163D01*
X198755960Y-67423288D01*
X198773853Y-67391548D01*
X198777808Y-67385648D01*
X198844267Y-67306104D01*
X198916685Y-67259929D01*
X199004849Y-67241599D01*
X199034787Y-67240703D01*
X199146886Y-67257256D01*
X199238464Y-67305409D01*
X199306049Y-67382905D01*
X199330057Y-67432727D01*
X199348738Y-67507533D01*
X199358301Y-67602052D01*
X199359208Y-67705210D01*
X199351921Y-67805935D01*
X199336903Y-67893153D01*
X199314615Y-67955791D01*
X199307765Y-67966579D01*
X199226632Y-68047105D01*
X199130266Y-68095336D01*
X199025701Y-68109450D01*
X198919968Y-68087629D01*
X198890543Y-68074547D01*
X198833241Y-68034231D01*
X198782950Y-67980775D01*
X198778197Y-67973995D01*
X198758878Y-67941321D01*
X198746108Y-67906394D01*
X198738564Y-67860414D01*
X198734924Y-67794584D01*
X198733865Y-67700105D01*
X198733846Y-67678923D01*
X198733894Y-67672182D01*
X198929231Y-67672182D01*
X198930368Y-67761349D01*
X198934841Y-67820520D01*
X198944246Y-67858741D01*
X198960176Y-67885053D01*
X198968308Y-67893846D01*
X199015058Y-67927261D01*
X199060447Y-67925737D01*
X199106340Y-67896752D01*
X199133712Y-67865809D01*
X199149923Y-67820643D01*
X199159026Y-67749420D01*
X199159651Y-67741114D01*
X199161204Y-67612037D01*
X199144965Y-67516172D01*
X199111152Y-67454107D01*
X199059984Y-67426432D01*
X199041720Y-67424923D01*
X198993760Y-67432513D01*
X198960953Y-67458808D01*
X198940895Y-67509095D01*
X198931178Y-67588664D01*
X198929231Y-67672182D01*
X198733894Y-67672182D01*
X198734574Y-67578249D01*
X198737629Y-67507906D01*
G36*
X199486873Y-67564679D02*
G01*
X199490606Y-67500905D01*
X199495907Y-67455582D01*
X199503258Y-67423555D01*
X199513143Y-67399668D01*
X199526046Y-67378764D01*
X199531579Y-67370898D01*
X199604969Y-67296595D01*
X199697760Y-67254467D01*
X199805096Y-67242722D01*
X199898886Y-67254505D01*
X199973539Y-67291727D01*
X200039431Y-67360261D01*
X200057577Y-67385648D01*
X200077345Y-67418866D01*
X200090172Y-67454945D01*
X200097510Y-67503098D01*
X200100813Y-67572536D01*
X200101538Y-67664206D01*
X200098263Y-67789830D01*
X200086877Y-67884154D01*
X200065041Y-67954523D01*
X200030419Y-68008286D01*
X199980670Y-68052788D01*
X199977014Y-68055423D01*
X199927985Y-68082377D01*
X199868945Y-68095712D01*
X199793859Y-68099000D01*
X199671795Y-68099000D01*
X199671744Y-68217497D01*
X199670608Y-68283492D01*
X199663686Y-68322202D01*
X199645598Y-68345419D01*
X199610962Y-68364933D01*
X199602645Y-68368920D01*
X199563720Y-68387603D01*
X199533583Y-68399403D01*
X199511174Y-68400422D01*
X199495433Y-68386761D01*
X199485302Y-68354522D01*
X199479723Y-68299804D01*
X199477635Y-68218711D01*
X199477981Y-68107344D01*
X199479700Y-67961802D01*
X199480237Y-67918269D01*
X199482172Y-67768205D01*
X199483904Y-67670042D01*
X199671692Y-67670042D01*
X199672748Y-67753364D01*
X199677438Y-67807880D01*
X199688051Y-67843837D01*
X199706872Y-67871482D01*
X199719650Y-67884965D01*
X199771890Y-67924417D01*
X199818142Y-67927628D01*
X199865867Y-67895049D01*
X199867077Y-67893846D01*
X199886494Y-67868668D01*
X199898307Y-67834447D01*
X199904265Y-67781748D01*
X199906120Y-67701131D01*
X199906154Y-67683271D01*
X199901670Y-67572175D01*
X199887074Y-67495161D01*
X199860650Y-67448147D01*
X199820683Y-67427050D01*
X199797584Y-67424923D01*
X199742762Y-67434900D01*
X199705158Y-67467752D01*
X199682523Y-67527857D01*
X199672606Y-67619598D01*
X199671692Y-67670042D01*
X199483904Y-67670042D01*
X199484222Y-67652060D01*
X199486873Y-67564679D01*
G37*
X199486873Y-67564679D02*
X199490606Y-67500905D01*
X199495907Y-67455582D01*
X199503258Y-67423555D01*
X199513143Y-67399668D01*
X199526046Y-67378764D01*
X199531579Y-67370898D01*
X199604969Y-67296595D01*
X199697760Y-67254467D01*
X199805096Y-67242722D01*
X199898886Y-67254505D01*
X199973539Y-67291727D01*
X200039431Y-67360261D01*
X200057577Y-67385648D01*
X200077345Y-67418866D01*
X200090172Y-67454945D01*
X200097510Y-67503098D01*
X200100813Y-67572536D01*
X200101538Y-67664206D01*
X200098263Y-67789830D01*
X200086877Y-67884154D01*
X200065041Y-67954523D01*
X200030419Y-68008286D01*
X199980670Y-68052788D01*
X199977014Y-68055423D01*
X199927985Y-68082377D01*
X199868945Y-68095712D01*
X199793859Y-68099000D01*
X199671795Y-68099000D01*
X199671744Y-68217497D01*
X199670608Y-68283492D01*
X199663686Y-68322202D01*
X199645598Y-68345419D01*
X199610962Y-68364933D01*
X199602645Y-68368920D01*
X199563720Y-68387603D01*
X199533583Y-68399403D01*
X199511174Y-68400422D01*
X199495433Y-68386761D01*
X199485302Y-68354522D01*
X199479723Y-68299804D01*
X199477635Y-68218711D01*
X199477981Y-68107344D01*
X199479700Y-67961802D01*
X199480237Y-67918269D01*
X199482172Y-67768205D01*
X199483904Y-67670042D01*
X199671692Y-67670042D01*
X199672748Y-67753364D01*
X199677438Y-67807880D01*
X199688051Y-67843837D01*
X199706872Y-67871482D01*
X199719650Y-67884965D01*
X199771890Y-67924417D01*
X199818142Y-67927628D01*
X199865867Y-67895049D01*
X199867077Y-67893846D01*
X199886494Y-67868668D01*
X199898307Y-67834447D01*
X199904265Y-67781748D01*
X199906120Y-67701131D01*
X199906154Y-67683271D01*
X199901670Y-67572175D01*
X199887074Y-67495161D01*
X199860650Y-67448147D01*
X199820683Y-67427050D01*
X199797584Y-67424923D01*
X199742762Y-67434900D01*
X199705158Y-67467752D01*
X199682523Y-67527857D01*
X199672606Y-67619598D01*
X199671692Y-67670042D01*
X199483904Y-67670042D01*
X199484222Y-67652060D01*
X199486873Y-67564679D01*
D10*
%TO.C,U6*%
X209575000Y-81275000D02*
X209575000Y-75650000D01*
X215125000Y-80150000D02*
X215125000Y-75650000D01*
%TD*%
M02*
