%TF.GenerationSoftware,KiCad,Pcbnew,6.0.11-2627ca5db0~126~ubuntu22.04.1*%
%TF.CreationDate,2023-02-18T02:58:51-05:00*%
%TF.ProjectId,lin-valve-control,6c696e2d-7661-46c7-9665-2d636f6e7472,1.0*%
%TF.SameCoordinates,Original*%
%TF.FileFunction,Paste,Top*%
%TF.FilePolarity,Positive*%
%FSLAX46Y46*%
G04 Gerber Fmt 4.6, Leading zero omitted, Abs format (unit mm)*
G04 Created by KiCad (PCBNEW 6.0.11-2627ca5db0~126~ubuntu22.04.1) date 2023-02-18 02:58:51*
%MOMM*%
%LPD*%
G01*
G04 APERTURE LIST*
G04 Aperture macros list*
%AMRoundRect*
0 Rectangle with rounded corners*
0 $1 Rounding radius*
0 $2 $3 $4 $5 $6 $7 $8 $9 X,Y pos of 4 corners*
0 Add a 4 corners polygon primitive as box body*
4,1,4,$2,$3,$4,$5,$6,$7,$8,$9,$2,$3,0*
0 Add four circle primitives for the rounded corners*
1,1,$1+$1,$2,$3*
1,1,$1+$1,$4,$5*
1,1,$1+$1,$6,$7*
1,1,$1+$1,$8,$9*
0 Add four rect primitives between the rounded corners*
20,1,$1+$1,$2,$3,$4,$5,0*
20,1,$1+$1,$4,$5,$6,$7,0*
20,1,$1+$1,$6,$7,$8,$9,0*
20,1,$1+$1,$8,$9,$2,$3,0*%
G04 Aperture macros list end*
%ADD10RoundRect,0.250000X0.450000X-0.350000X0.450000X0.350000X-0.450000X0.350000X-0.450000X-0.350000X0*%
%ADD11RoundRect,0.250000X0.350000X0.450000X-0.350000X0.450000X-0.350000X-0.450000X0.350000X-0.450000X0*%
%ADD12RoundRect,0.250000X-0.475000X0.337500X-0.475000X-0.337500X0.475000X-0.337500X0.475000X0.337500X0*%
%ADD13RoundRect,0.250000X1.450000X-0.400000X1.450000X0.400000X-1.450000X0.400000X-1.450000X-0.400000X0*%
%ADD14R,3.500000X1.800000*%
%ADD15RoundRect,0.250000X0.337500X0.475000X-0.337500X0.475000X-0.337500X-0.475000X0.337500X-0.475000X0*%
%ADD16RoundRect,0.250000X0.875000X1.025000X-0.875000X1.025000X-0.875000X-1.025000X0.875000X-1.025000X0*%
%ADD17RoundRect,0.250000X0.425000X-0.537500X0.425000X0.537500X-0.425000X0.537500X-0.425000X-0.537500X0*%
%ADD18RoundRect,0.150000X0.150000X-0.825000X0.150000X0.825000X-0.150000X0.825000X-0.150000X-0.825000X0*%
%ADD19RoundRect,0.150000X0.150000X-0.587500X0.150000X0.587500X-0.150000X0.587500X-0.150000X-0.587500X0*%
%ADD20RoundRect,0.250000X-0.412500X-0.650000X0.412500X-0.650000X0.412500X0.650000X-0.412500X0.650000X0*%
%ADD21RoundRect,0.250000X-0.337500X-0.475000X0.337500X-0.475000X0.337500X0.475000X-0.337500X0.475000X0*%
%ADD22RoundRect,0.250000X0.412500X0.650000X-0.412500X0.650000X-0.412500X-0.650000X0.412500X-0.650000X0*%
%ADD23RoundRect,0.100000X-0.637500X-0.100000X0.637500X-0.100000X0.637500X0.100000X-0.637500X0.100000X0*%
%ADD24RoundRect,0.250000X0.412500X1.100000X-0.412500X1.100000X-0.412500X-1.100000X0.412500X-1.100000X0*%
%ADD25RoundRect,0.250000X-0.350000X-0.450000X0.350000X-0.450000X0.350000X0.450000X-0.350000X0.450000X0*%
%ADD26R,1.100000X0.400000*%
%ADD27R,2.590800X5.003800*%
%ADD28R,1.200000X0.900000*%
%ADD29RoundRect,0.242500X-0.242500X-0.402500X0.242500X-0.402500X0.242500X0.402500X-0.242500X0.402500X0*%
%ADD30RoundRect,0.150000X-0.650000X-0.150000X0.650000X-0.150000X0.650000X0.150000X-0.650000X0.150000X0*%
%ADD31RoundRect,0.250000X0.325000X0.450000X-0.325000X0.450000X-0.325000X-0.450000X0.325000X-0.450000X0*%
%ADD32R,0.812800X0.254000*%
%ADD33R,1.752600X2.489200*%
%ADD34R,1.879600X1.879600*%
%ADD35C,1.879600*%
%ADD36R,0.800000X0.250000*%
%ADD37R,0.850000X0.850000*%
%ADD38R,0.250000X0.800000*%
%ADD39R,0.800000X0.850000*%
%ADD40R,0.450000X1.050000*%
%ADD41RoundRect,0.100000X-0.100000X0.637500X-0.100000X-0.637500X0.100000X-0.637500X0.100000X0.637500X0*%
G04 APERTURE END LIST*
D10*
%TO.C,R23*%
X216200000Y-80650000D03*
X216200000Y-78650000D03*
%TD*%
D11*
%TO.C,R12*%
X207000000Y-73900000D03*
X205000000Y-73900000D03*
%TD*%
D12*
%TO.C,C10*%
X178350000Y-68262500D03*
X178350000Y-70337500D03*
%TD*%
D10*
%TO.C,R5*%
X218925000Y-97850000D03*
X218925000Y-95850000D03*
%TD*%
D13*
%TO.C,F1*%
X218700000Y-64700000D03*
X218700000Y-60250000D03*
%TD*%
D14*
%TO.C,D2*%
X197800000Y-64500000D03*
X202800000Y-64500000D03*
%TD*%
D15*
%TO.C,C11*%
X180625000Y-76400000D03*
X178550000Y-76400000D03*
%TD*%
%TO.C,C5*%
X200200000Y-68900000D03*
X198125000Y-68900000D03*
%TD*%
D16*
%TO.C,C12*%
X214300000Y-61700000D03*
X207900000Y-61700000D03*
%TD*%
D17*
%TO.C,C9*%
X178350000Y-65787500D03*
X178350000Y-62912500D03*
%TD*%
D18*
%TO.C,U1*%
X196670000Y-89800000D03*
X197940000Y-89800000D03*
X199210000Y-89800000D03*
X200480000Y-89800000D03*
X200480000Y-84850000D03*
X199210000Y-84850000D03*
X197940000Y-84850000D03*
X196670000Y-84850000D03*
%TD*%
D19*
%TO.C,Q1*%
X187400000Y-88475000D03*
X189300000Y-88475000D03*
X188350000Y-86600000D03*
%TD*%
D20*
%TO.C,C13*%
X216350000Y-75150000D03*
X219475000Y-75150000D03*
%TD*%
D21*
%TO.C,C3*%
X183637500Y-78975000D03*
X185712500Y-78975000D03*
%TD*%
D22*
%TO.C,C14*%
X215150000Y-71950000D03*
X212025000Y-71950000D03*
%TD*%
D23*
%TO.C,U2*%
X203237500Y-91975000D03*
X203237500Y-92625000D03*
X203237500Y-93275000D03*
X203237500Y-93925000D03*
X203237500Y-94575000D03*
X203237500Y-95225000D03*
X203237500Y-95875000D03*
X208962500Y-95875000D03*
X208962500Y-95225000D03*
X208962500Y-94575000D03*
X208962500Y-93925000D03*
X208962500Y-93275000D03*
X208962500Y-92625000D03*
X208962500Y-91975000D03*
%TD*%
D15*
%TO.C,C6*%
X193437500Y-73900000D03*
X191362500Y-73900000D03*
%TD*%
D24*
%TO.C,C4*%
X214525000Y-66000000D03*
X211400000Y-66000000D03*
%TD*%
D25*
%TO.C,R1*%
X193325000Y-93250000D03*
X195325000Y-93250000D03*
%TD*%
D15*
%TO.C,C1*%
X205300000Y-89775000D03*
X203225000Y-89775000D03*
%TD*%
D26*
%TO.C,U3*%
X185750000Y-92175000D03*
X185750000Y-92825000D03*
X185750000Y-93475000D03*
X185750000Y-94125000D03*
X190050000Y-94125000D03*
X190050000Y-93475000D03*
X190050000Y-92825000D03*
X190050000Y-92175000D03*
%TD*%
D25*
%TO.C,R16*%
X194400000Y-77500000D03*
X196400000Y-77500000D03*
%TD*%
D27*
%TO.C,L1*%
X193100000Y-65700000D03*
X181695400Y-65700000D03*
%TD*%
D10*
%TO.C,R10*%
X188975000Y-78900000D03*
X188975000Y-76900000D03*
%TD*%
D20*
%TO.C,C15*%
X208575000Y-69475000D03*
X211700000Y-69475000D03*
%TD*%
D28*
%TO.C,D1*%
X216400000Y-97875000D03*
X216400000Y-94575000D03*
%TD*%
D29*
%TO.C,U5*%
X198600000Y-72400000D03*
X198600000Y-74000000D03*
X199800000Y-74000000D03*
X199800000Y-72400000D03*
D30*
X196550000Y-71295000D03*
X196550000Y-72565000D03*
X196550000Y-73835000D03*
X196550000Y-75105000D03*
X201850000Y-75105000D03*
X201850000Y-73835000D03*
X201850000Y-72565000D03*
X201850000Y-71295000D03*
%TD*%
D31*
%TO.C,D3*%
X217950000Y-86800000D03*
X215900000Y-86800000D03*
%TD*%
D32*
%TO.C,U4*%
X183252200Y-74849999D03*
X183252200Y-75350001D03*
X183252200Y-75850000D03*
X183252200Y-76349999D03*
X183252200Y-76850001D03*
X186147800Y-76850001D03*
X186147800Y-76349999D03*
X186147800Y-75850000D03*
X186147800Y-75350001D03*
X186147800Y-74849999D03*
D33*
X184700000Y-75850000D03*
%TD*%
D19*
%TO.C,Q2*%
X183550000Y-88525000D03*
X185450000Y-88525000D03*
X184500000Y-86650000D03*
%TD*%
D25*
%TO.C,R14*%
X202000000Y-77200000D03*
X204000000Y-77200000D03*
%TD*%
%TO.C,R2*%
X198675000Y-93775000D03*
X200675000Y-93775000D03*
%TD*%
D34*
%TO.C,J1*%
X226520000Y-91800000D03*
D35*
X223980000Y-91800000D03*
X221440000Y-91800000D03*
X218900000Y-91800000D03*
X216360000Y-91800000D03*
X213820000Y-91800000D03*
%TD*%
D36*
%TO.C,U7*%
X211850000Y-76575000D03*
X211850000Y-79225000D03*
D37*
X212950000Y-77350000D03*
X212950000Y-78450000D03*
D36*
X212950000Y-76575000D03*
D38*
X213725000Y-77350000D03*
X211075000Y-77350000D03*
D39*
X211850000Y-78450000D03*
D38*
X213725000Y-78450000D03*
D37*
X211850000Y-77350000D03*
D36*
X212950000Y-79225000D03*
D38*
X211075000Y-78450000D03*
D40*
X210125000Y-80675000D03*
X210775000Y-80675000D03*
X211425000Y-80675000D03*
X212075000Y-80675000D03*
X212725000Y-80675000D03*
X213375000Y-80675000D03*
X214025000Y-80675000D03*
X214675000Y-80675000D03*
X214675000Y-75125000D03*
X214025000Y-75125000D03*
X213375000Y-75125000D03*
X212725000Y-75125000D03*
X212075000Y-75125000D03*
X211425000Y-75125000D03*
X210775000Y-75125000D03*
X210125000Y-75125000D03*
%TD*%
D41*
%TO.C,U6*%
X212950000Y-83675000D03*
X212300000Y-83675000D03*
X211650000Y-83675000D03*
X211000000Y-83675000D03*
X210350000Y-83675000D03*
X209700000Y-83675000D03*
X209050000Y-83675000D03*
X208400000Y-83675000D03*
X208400000Y-89400000D03*
X209050000Y-89400000D03*
X209700000Y-89400000D03*
X210350000Y-89400000D03*
X211000000Y-89400000D03*
X211650000Y-89400000D03*
X212300000Y-89400000D03*
X212950000Y-89400000D03*
%TD*%
M02*
