%TF.GenerationSoftware,KiCad,Pcbnew,6.0.11-2627ca5db0~126~ubuntu22.04.1*%
%TF.CreationDate,2023-02-15T01:04:20-05:00*%
%TF.ProjectId,lin-valve-control,6c696e2d-7661-46c7-9665-2d636f6e7472,1.0*%
%TF.SameCoordinates,Original*%
%TF.FileFunction,Legend,Top*%
%TF.FilePolarity,Positive*%
%FSLAX46Y46*%
G04 Gerber Fmt 4.6, Leading zero omitted, Abs format (unit mm)*
G04 Created by KiCad (PCBNEW 6.0.11-2627ca5db0~126~ubuntu22.04.1) date 2023-02-15 01:04:20*
%MOMM*%
%LPD*%
G01*
G04 APERTURE LIST*
%ADD10C,0.150000*%
%ADD11C,0.127000*%
%ADD12C,0.254000*%
%ADD13C,0.120000*%
%ADD14C,0.203200*%
%ADD15C,0.398780*%
%ADD16C,0.010000*%
G04 APERTURE END LIST*
D10*
X192700000Y-68252142D02*
X192652380Y-68299761D01*
X192509523Y-68347380D01*
X192414285Y-68347380D01*
X192271428Y-68299761D01*
X192176190Y-68204523D01*
X192128571Y-68109285D01*
X192080952Y-67918809D01*
X192080952Y-67775952D01*
X192128571Y-67585476D01*
X192176190Y-67490238D01*
X192271428Y-67395000D01*
X192414285Y-67347380D01*
X192509523Y-67347380D01*
X192652380Y-67395000D01*
X192700000Y-67442619D01*
X193271428Y-68347380D02*
X193176190Y-68299761D01*
X193128571Y-68252142D01*
X193080952Y-68156904D01*
X193080952Y-67871190D01*
X193128571Y-67775952D01*
X193176190Y-67728333D01*
X193271428Y-67680714D01*
X193414285Y-67680714D01*
X193509523Y-67728333D01*
X193557142Y-67775952D01*
X193604761Y-67871190D01*
X193604761Y-68156904D01*
X193557142Y-68252142D01*
X193509523Y-68299761D01*
X193414285Y-68347380D01*
X193271428Y-68347380D01*
X194176190Y-68347380D02*
X194080952Y-68299761D01*
X194033333Y-68252142D01*
X193985714Y-68156904D01*
X193985714Y-67871190D01*
X194033333Y-67775952D01*
X194080952Y-67728333D01*
X194176190Y-67680714D01*
X194319047Y-67680714D01*
X194414285Y-67728333D01*
X194461904Y-67775952D01*
X194509523Y-67871190D01*
X194509523Y-68156904D01*
X194461904Y-68252142D01*
X194414285Y-68299761D01*
X194319047Y-68347380D01*
X194176190Y-68347380D01*
X195080952Y-68347380D02*
X194985714Y-68299761D01*
X194938095Y-68204523D01*
X194938095Y-67347380D01*
X195461904Y-68347380D02*
X195461904Y-67680714D01*
X195461904Y-67347380D02*
X195414285Y-67395000D01*
X195461904Y-67442619D01*
X195509523Y-67395000D01*
X195461904Y-67347380D01*
X195461904Y-67442619D01*
X195938095Y-67680714D02*
X195938095Y-68347380D01*
X195938095Y-67775952D02*
X195985714Y-67728333D01*
X196080952Y-67680714D01*
X196223809Y-67680714D01*
X196319047Y-67728333D01*
X196366666Y-67823571D01*
X196366666Y-68347380D01*
X197271428Y-67680714D02*
X197271428Y-68490238D01*
X197223809Y-68585476D01*
X197176190Y-68633095D01*
X197080952Y-68680714D01*
X196938095Y-68680714D01*
X196842857Y-68633095D01*
X197271428Y-68299761D02*
X197176190Y-68347380D01*
X196985714Y-68347380D01*
X196890476Y-68299761D01*
X196842857Y-68252142D01*
X196795238Y-68156904D01*
X196795238Y-67871190D01*
X196842857Y-67775952D01*
X196890476Y-67728333D01*
X196985714Y-67680714D01*
X197176190Y-67680714D01*
X197271428Y-67728333D01*
X192866666Y-69957380D02*
X192866666Y-68957380D01*
X193247619Y-68957380D01*
X193342857Y-69005000D01*
X193390476Y-69052619D01*
X193438095Y-69147857D01*
X193438095Y-69290714D01*
X193390476Y-69385952D01*
X193342857Y-69433571D01*
X193247619Y-69481190D01*
X192866666Y-69481190D01*
X194295238Y-69290714D02*
X194295238Y-69957380D01*
X193866666Y-69290714D02*
X193866666Y-69814523D01*
X193914285Y-69909761D01*
X194009523Y-69957380D01*
X194152380Y-69957380D01*
X194247619Y-69909761D01*
X194295238Y-69862142D01*
X194771428Y-69957380D02*
X194771428Y-69290714D01*
X194771428Y-69385952D02*
X194819047Y-69338333D01*
X194914285Y-69290714D01*
X195057142Y-69290714D01*
X195152380Y-69338333D01*
X195200000Y-69433571D01*
X195200000Y-69957380D01*
X195200000Y-69433571D02*
X195247619Y-69338333D01*
X195342857Y-69290714D01*
X195485714Y-69290714D01*
X195580952Y-69338333D01*
X195628571Y-69433571D01*
X195628571Y-69957380D01*
X196104761Y-69290714D02*
X196104761Y-70290714D01*
X196104761Y-69338333D02*
X196200000Y-69290714D01*
X196390476Y-69290714D01*
X196485714Y-69338333D01*
X196533333Y-69385952D01*
X196580952Y-69481190D01*
X196580952Y-69766904D01*
X196533333Y-69862142D01*
X196485714Y-69909761D01*
X196390476Y-69957380D01*
X196200000Y-69957380D01*
X196104761Y-69909761D01*
X154655523Y-71572380D02*
X154179333Y-71572380D01*
X154179333Y-70572380D01*
X154988857Y-71572380D02*
X154988857Y-70572380D01*
X155465047Y-71572380D02*
X155465047Y-70572380D01*
X156036476Y-71572380D01*
X156036476Y-70572380D01*
X156846000Y-71048571D02*
X156988857Y-71096190D01*
X157036476Y-71143809D01*
X157084095Y-71239047D01*
X157084095Y-71381904D01*
X157036476Y-71477142D01*
X156988857Y-71524761D01*
X156893619Y-71572380D01*
X156512666Y-71572380D01*
X156512666Y-70572380D01*
X156846000Y-70572380D01*
X156941238Y-70620000D01*
X156988857Y-70667619D01*
X157036476Y-70762857D01*
X157036476Y-70858095D01*
X156988857Y-70953333D01*
X156941238Y-71000952D01*
X156846000Y-71048571D01*
X156512666Y-71048571D01*
X157941238Y-70905714D02*
X157941238Y-71572380D01*
X157512666Y-70905714D02*
X157512666Y-71429523D01*
X157560285Y-71524761D01*
X157655523Y-71572380D01*
X157798380Y-71572380D01*
X157893619Y-71524761D01*
X157941238Y-71477142D01*
X158369809Y-71524761D02*
X158465047Y-71572380D01*
X158655523Y-71572380D01*
X158750761Y-71524761D01*
X158798380Y-71429523D01*
X158798380Y-71381904D01*
X158750761Y-71286666D01*
X158655523Y-71239047D01*
X158512666Y-71239047D01*
X158417428Y-71191428D01*
X158369809Y-71096190D01*
X158369809Y-71048571D01*
X158417428Y-70953333D01*
X158512666Y-70905714D01*
X158655523Y-70905714D01*
X158750761Y-70953333D01*
X159846000Y-70572380D02*
X160179333Y-71572380D01*
X160512666Y-70572380D01*
X161274571Y-71572380D02*
X161274571Y-71048571D01*
X161226952Y-70953333D01*
X161131714Y-70905714D01*
X160941238Y-70905714D01*
X160846000Y-70953333D01*
X161274571Y-71524761D02*
X161179333Y-71572380D01*
X160941238Y-71572380D01*
X160846000Y-71524761D01*
X160798380Y-71429523D01*
X160798380Y-71334285D01*
X160846000Y-71239047D01*
X160941238Y-71191428D01*
X161179333Y-71191428D01*
X161274571Y-71143809D01*
X161893619Y-71572380D02*
X161798380Y-71524761D01*
X161750761Y-71429523D01*
X161750761Y-70572380D01*
X162179333Y-70905714D02*
X162417428Y-71572380D01*
X162655523Y-70905714D01*
X163417428Y-71524761D02*
X163322190Y-71572380D01*
X163131714Y-71572380D01*
X163036476Y-71524761D01*
X162988857Y-71429523D01*
X162988857Y-71048571D01*
X163036476Y-70953333D01*
X163131714Y-70905714D01*
X163322190Y-70905714D01*
X163417428Y-70953333D01*
X163465047Y-71048571D01*
X163465047Y-71143809D01*
X162988857Y-71239047D01*
X165226952Y-71477142D02*
X165179333Y-71524761D01*
X165036476Y-71572380D01*
X164941238Y-71572380D01*
X164798380Y-71524761D01*
X164703142Y-71429523D01*
X164655523Y-71334285D01*
X164607904Y-71143809D01*
X164607904Y-71000952D01*
X164655523Y-70810476D01*
X164703142Y-70715238D01*
X164798380Y-70620000D01*
X164941238Y-70572380D01*
X165036476Y-70572380D01*
X165179333Y-70620000D01*
X165226952Y-70667619D01*
X165798380Y-71572380D02*
X165703142Y-71524761D01*
X165655523Y-71477142D01*
X165607904Y-71381904D01*
X165607904Y-71096190D01*
X165655523Y-71000952D01*
X165703142Y-70953333D01*
X165798380Y-70905714D01*
X165941238Y-70905714D01*
X166036476Y-70953333D01*
X166084095Y-71000952D01*
X166131714Y-71096190D01*
X166131714Y-71381904D01*
X166084095Y-71477142D01*
X166036476Y-71524761D01*
X165941238Y-71572380D01*
X165798380Y-71572380D01*
X166560285Y-70905714D02*
X166560285Y-71572380D01*
X166560285Y-71000952D02*
X166607904Y-70953333D01*
X166703142Y-70905714D01*
X166846000Y-70905714D01*
X166941238Y-70953333D01*
X166988857Y-71048571D01*
X166988857Y-71572380D01*
X167322190Y-70905714D02*
X167703142Y-70905714D01*
X167465047Y-70572380D02*
X167465047Y-71429523D01*
X167512666Y-71524761D01*
X167607904Y-71572380D01*
X167703142Y-71572380D01*
X168036476Y-71572380D02*
X168036476Y-70905714D01*
X168036476Y-71096190D02*
X168084095Y-71000952D01*
X168131714Y-70953333D01*
X168226952Y-70905714D01*
X168322190Y-70905714D01*
X168798380Y-71572380D02*
X168703142Y-71524761D01*
X168655523Y-71477142D01*
X168607904Y-71381904D01*
X168607904Y-71096190D01*
X168655523Y-71000952D01*
X168703142Y-70953333D01*
X168798380Y-70905714D01*
X168941238Y-70905714D01*
X169036476Y-70953333D01*
X169084095Y-71000952D01*
X169131714Y-71096190D01*
X169131714Y-71381904D01*
X169084095Y-71477142D01*
X169036476Y-71524761D01*
X168941238Y-71572380D01*
X168798380Y-71572380D01*
X169703142Y-71572380D02*
X169607904Y-71524761D01*
X169560285Y-71429523D01*
X169560285Y-70572380D01*
X170226952Y-71572380D02*
X170131714Y-71524761D01*
X170084095Y-71429523D01*
X170084095Y-70572380D01*
X170988857Y-71524761D02*
X170893619Y-71572380D01*
X170703142Y-71572380D01*
X170607904Y-71524761D01*
X170560285Y-71429523D01*
X170560285Y-71048571D01*
X170607904Y-70953333D01*
X170703142Y-70905714D01*
X170893619Y-70905714D01*
X170988857Y-70953333D01*
X171036476Y-71048571D01*
X171036476Y-71143809D01*
X170560285Y-71239047D01*
X171465047Y-71572380D02*
X171465047Y-70905714D01*
X171465047Y-71096190D02*
X171512666Y-71000952D01*
X171560285Y-70953333D01*
X171655523Y-70905714D01*
X171750761Y-70905714D01*
X172750761Y-70905714D02*
X172988857Y-71572380D01*
X173226952Y-70905714D01*
X174131714Y-71572380D02*
X173560285Y-71572380D01*
X173846000Y-71572380D02*
X173846000Y-70572380D01*
X173750761Y-70715238D01*
X173655523Y-70810476D01*
X173560285Y-70858095D01*
X174560285Y-71477142D02*
X174607904Y-71524761D01*
X174560285Y-71572380D01*
X174512666Y-71524761D01*
X174560285Y-71477142D01*
X174560285Y-71572380D01*
X175226952Y-70572380D02*
X175322190Y-70572380D01*
X175417428Y-70620000D01*
X175465047Y-70667619D01*
X175512666Y-70762857D01*
X175560285Y-70953333D01*
X175560285Y-71191428D01*
X175512666Y-71381904D01*
X175465047Y-71477142D01*
X175417428Y-71524761D01*
X175322190Y-71572380D01*
X175226952Y-71572380D01*
X175131714Y-71524761D01*
X175084095Y-71477142D01*
X175036476Y-71381904D01*
X174988857Y-71191428D01*
X174988857Y-70953333D01*
X175036476Y-70762857D01*
X175084095Y-70667619D01*
X175131714Y-70620000D01*
X175226952Y-70572380D01*
X178190476Y-68252380D02*
X177714285Y-68252380D01*
X177714285Y-67252380D01*
X178523809Y-68252380D02*
X178523809Y-67252380D01*
X179000000Y-68252380D02*
X179000000Y-67252380D01*
X179571428Y-68252380D01*
X179571428Y-67252380D01*
X180380952Y-67728571D02*
X180523809Y-67776190D01*
X180571428Y-67823809D01*
X180619047Y-67919047D01*
X180619047Y-68061904D01*
X180571428Y-68157142D01*
X180523809Y-68204761D01*
X180428571Y-68252380D01*
X180047619Y-68252380D01*
X180047619Y-67252380D01*
X180380952Y-67252380D01*
X180476190Y-67300000D01*
X180523809Y-67347619D01*
X180571428Y-67442857D01*
X180571428Y-67538095D01*
X180523809Y-67633333D01*
X180476190Y-67680952D01*
X180380952Y-67728571D01*
X180047619Y-67728571D01*
X181476190Y-67585714D02*
X181476190Y-68252380D01*
X181047619Y-67585714D02*
X181047619Y-68109523D01*
X181095238Y-68204761D01*
X181190476Y-68252380D01*
X181333333Y-68252380D01*
X181428571Y-68204761D01*
X181476190Y-68157142D01*
X181904761Y-68204761D02*
X182000000Y-68252380D01*
X182190476Y-68252380D01*
X182285714Y-68204761D01*
X182333333Y-68109523D01*
X182333333Y-68061904D01*
X182285714Y-67966666D01*
X182190476Y-67919047D01*
X182047619Y-67919047D01*
X181952380Y-67871428D01*
X181904761Y-67776190D01*
X181904761Y-67728571D01*
X181952380Y-67633333D01*
X182047619Y-67585714D01*
X182190476Y-67585714D01*
X182285714Y-67633333D01*
X209510380Y-92376285D02*
X210510380Y-92042952D01*
X209510380Y-91709619D01*
X210510380Y-90947714D02*
X209986571Y-90947714D01*
X209891333Y-90995333D01*
X209843714Y-91090571D01*
X209843714Y-91281047D01*
X209891333Y-91376285D01*
X210462761Y-90947714D02*
X210510380Y-91042952D01*
X210510380Y-91281047D01*
X210462761Y-91376285D01*
X210367523Y-91423904D01*
X210272285Y-91423904D01*
X210177047Y-91376285D01*
X210129428Y-91281047D01*
X210129428Y-91042952D01*
X210081809Y-90947714D01*
X210510380Y-90328666D02*
X210462761Y-90423904D01*
X210367523Y-90471523D01*
X209510380Y-90471523D01*
X209843714Y-90042952D02*
X210510380Y-89804857D01*
X209843714Y-89566761D01*
X210462761Y-88804857D02*
X210510380Y-88900095D01*
X210510380Y-89090571D01*
X210462761Y-89185809D01*
X210367523Y-89233428D01*
X209986571Y-89233428D01*
X209891333Y-89185809D01*
X209843714Y-89090571D01*
X209843714Y-88900095D01*
X209891333Y-88804857D01*
X209986571Y-88757238D01*
X210081809Y-88757238D01*
X210177047Y-89233428D01*
X210510380Y-87042952D02*
X210510380Y-87614380D01*
X210510380Y-87328666D02*
X209510380Y-87328666D01*
X209653238Y-87423904D01*
X209748476Y-87519142D01*
X209796095Y-87614380D01*
X209852380Y-76314285D02*
X210852380Y-75980952D01*
X209852380Y-75647619D01*
X210852380Y-74885714D02*
X210328571Y-74885714D01*
X210233333Y-74933333D01*
X210185714Y-75028571D01*
X210185714Y-75219047D01*
X210233333Y-75314285D01*
X210804761Y-74885714D02*
X210852380Y-74980952D01*
X210852380Y-75219047D01*
X210804761Y-75314285D01*
X210709523Y-75361904D01*
X210614285Y-75361904D01*
X210519047Y-75314285D01*
X210471428Y-75219047D01*
X210471428Y-74980952D01*
X210423809Y-74885714D01*
X210852380Y-74266666D02*
X210804761Y-74361904D01*
X210709523Y-74409523D01*
X209852380Y-74409523D01*
X210185714Y-73980952D02*
X210852380Y-73742857D01*
X210185714Y-73504761D01*
X210804761Y-72742857D02*
X210852380Y-72838095D01*
X210852380Y-73028571D01*
X210804761Y-73123809D01*
X210709523Y-73171428D01*
X210328571Y-73171428D01*
X210233333Y-73123809D01*
X210185714Y-73028571D01*
X210185714Y-72838095D01*
X210233333Y-72742857D01*
X210328571Y-72695238D01*
X210423809Y-72695238D01*
X210519047Y-73171428D01*
X209947619Y-71552380D02*
X209900000Y-71504761D01*
X209852380Y-71409523D01*
X209852380Y-71171428D01*
X209900000Y-71076190D01*
X209947619Y-71028571D01*
X210042857Y-70980952D01*
X210138095Y-70980952D01*
X210280952Y-71028571D01*
X210852380Y-71600000D01*
X210852380Y-70980952D01*
X166766666Y-67957142D02*
X166719047Y-68004761D01*
X166576190Y-68052380D01*
X166480952Y-68052380D01*
X166338095Y-68004761D01*
X166242857Y-67909523D01*
X166195238Y-67814285D01*
X166147619Y-67623809D01*
X166147619Y-67480952D01*
X166195238Y-67290476D01*
X166242857Y-67195238D01*
X166338095Y-67100000D01*
X166480952Y-67052380D01*
X166576190Y-67052380D01*
X166719047Y-67100000D01*
X166766666Y-67147619D01*
X167338095Y-68052380D02*
X167242857Y-68004761D01*
X167195238Y-67957142D01*
X167147619Y-67861904D01*
X167147619Y-67576190D01*
X167195238Y-67480952D01*
X167242857Y-67433333D01*
X167338095Y-67385714D01*
X167480952Y-67385714D01*
X167576190Y-67433333D01*
X167623809Y-67480952D01*
X167671428Y-67576190D01*
X167671428Y-67861904D01*
X167623809Y-67957142D01*
X167576190Y-68004761D01*
X167480952Y-68052380D01*
X167338095Y-68052380D01*
X168242857Y-68052380D02*
X168147619Y-68004761D01*
X168100000Y-67957142D01*
X168052380Y-67861904D01*
X168052380Y-67576190D01*
X168100000Y-67480952D01*
X168147619Y-67433333D01*
X168242857Y-67385714D01*
X168385714Y-67385714D01*
X168480952Y-67433333D01*
X168528571Y-67480952D01*
X168576190Y-67576190D01*
X168576190Y-67861904D01*
X168528571Y-67957142D01*
X168480952Y-68004761D01*
X168385714Y-68052380D01*
X168242857Y-68052380D01*
X169147619Y-68052380D02*
X169052380Y-68004761D01*
X169004761Y-67909523D01*
X169004761Y-67052380D01*
X169957142Y-68052380D02*
X169957142Y-67528571D01*
X169909523Y-67433333D01*
X169814285Y-67385714D01*
X169623809Y-67385714D01*
X169528571Y-67433333D01*
X169957142Y-68004761D02*
X169861904Y-68052380D01*
X169623809Y-68052380D01*
X169528571Y-68004761D01*
X169480952Y-67909523D01*
X169480952Y-67814285D01*
X169528571Y-67719047D01*
X169623809Y-67671428D01*
X169861904Y-67671428D01*
X169957142Y-67623809D01*
X170433333Y-67385714D02*
X170433333Y-68052380D01*
X170433333Y-67480952D02*
X170480952Y-67433333D01*
X170576190Y-67385714D01*
X170719047Y-67385714D01*
X170814285Y-67433333D01*
X170861904Y-67528571D01*
X170861904Y-68052380D01*
X171195238Y-67385714D02*
X171576190Y-67385714D01*
X171338095Y-67052380D02*
X171338095Y-67909523D01*
X171385714Y-68004761D01*
X171480952Y-68052380D01*
X171576190Y-68052380D01*
X172671428Y-68052380D02*
X172671428Y-67052380D01*
X173242857Y-68052380D01*
X173242857Y-67052380D01*
X173576190Y-67052380D02*
X174147619Y-67052380D01*
X173861904Y-68052380D02*
X173861904Y-67052380D01*
X175052380Y-67957142D02*
X175004761Y-68004761D01*
X174861904Y-68052380D01*
X174766666Y-68052380D01*
X174623809Y-68004761D01*
X174528571Y-67909523D01*
X174480952Y-67814285D01*
X174433333Y-67623809D01*
X174433333Y-67480952D01*
X174480952Y-67290476D01*
X174528571Y-67195238D01*
X174623809Y-67100000D01*
X174766666Y-67052380D01*
X174861904Y-67052380D01*
X175004761Y-67100000D01*
X175052380Y-67147619D01*
X154433047Y-74239333D02*
X154385428Y-74191714D01*
X154290190Y-74048857D01*
X154242571Y-73953619D01*
X154194952Y-73810761D01*
X154147333Y-73572666D01*
X154147333Y-73382190D01*
X154194952Y-73144095D01*
X154242571Y-73001238D01*
X154290190Y-72906000D01*
X154385428Y-72763142D01*
X154433047Y-72715523D01*
X155242571Y-73810761D02*
X155147333Y-73858380D01*
X154956857Y-73858380D01*
X154861619Y-73810761D01*
X154814000Y-73763142D01*
X154766380Y-73667904D01*
X154766380Y-73382190D01*
X154814000Y-73286952D01*
X154861619Y-73239333D01*
X154956857Y-73191714D01*
X155147333Y-73191714D01*
X155242571Y-73239333D01*
X155575904Y-74239333D02*
X155623523Y-74191714D01*
X155718761Y-74048857D01*
X155766380Y-73953619D01*
X155814000Y-73810761D01*
X155861619Y-73572666D01*
X155861619Y-73382190D01*
X155814000Y-73144095D01*
X155766380Y-73001238D01*
X155718761Y-72906000D01*
X155623523Y-72763142D01*
X155575904Y-72715523D01*
X157052095Y-72953619D02*
X157099714Y-72906000D01*
X157194952Y-72858380D01*
X157433047Y-72858380D01*
X157528285Y-72906000D01*
X157575904Y-72953619D01*
X157623523Y-73048857D01*
X157623523Y-73144095D01*
X157575904Y-73286952D01*
X157004476Y-73858380D01*
X157623523Y-73858380D01*
X158242571Y-72858380D02*
X158337809Y-72858380D01*
X158433047Y-72906000D01*
X158480666Y-72953619D01*
X158528285Y-73048857D01*
X158575904Y-73239333D01*
X158575904Y-73477428D01*
X158528285Y-73667904D01*
X158480666Y-73763142D01*
X158433047Y-73810761D01*
X158337809Y-73858380D01*
X158242571Y-73858380D01*
X158147333Y-73810761D01*
X158099714Y-73763142D01*
X158052095Y-73667904D01*
X158004476Y-73477428D01*
X158004476Y-73239333D01*
X158052095Y-73048857D01*
X158099714Y-72953619D01*
X158147333Y-72906000D01*
X158242571Y-72858380D01*
X158956857Y-72953619D02*
X159004476Y-72906000D01*
X159099714Y-72858380D01*
X159337809Y-72858380D01*
X159433047Y-72906000D01*
X159480666Y-72953619D01*
X159528285Y-73048857D01*
X159528285Y-73144095D01*
X159480666Y-73286952D01*
X158909238Y-73858380D01*
X159528285Y-73858380D01*
X159861619Y-72858380D02*
X160480666Y-72858380D01*
X160147333Y-73239333D01*
X160290190Y-73239333D01*
X160385428Y-73286952D01*
X160433047Y-73334571D01*
X160480666Y-73429809D01*
X160480666Y-73667904D01*
X160433047Y-73763142D01*
X160385428Y-73810761D01*
X160290190Y-73858380D01*
X160004476Y-73858380D01*
X159909238Y-73810761D01*
X159861619Y-73763142D01*
X162194952Y-72906000D02*
X162099714Y-72858380D01*
X161956857Y-72858380D01*
X161814000Y-72906000D01*
X161718761Y-73001238D01*
X161671142Y-73096476D01*
X161623523Y-73286952D01*
X161623523Y-73429809D01*
X161671142Y-73620285D01*
X161718761Y-73715523D01*
X161814000Y-73810761D01*
X161956857Y-73858380D01*
X162052095Y-73858380D01*
X162194952Y-73810761D01*
X162242571Y-73763142D01*
X162242571Y-73429809D01*
X162052095Y-73429809D01*
X163099714Y-73858380D02*
X163099714Y-73334571D01*
X163052095Y-73239333D01*
X162956857Y-73191714D01*
X162766380Y-73191714D01*
X162671142Y-73239333D01*
X163099714Y-73810761D02*
X163004476Y-73858380D01*
X162766380Y-73858380D01*
X162671142Y-73810761D01*
X162623523Y-73715523D01*
X162623523Y-73620285D01*
X162671142Y-73525047D01*
X162766380Y-73477428D01*
X163004476Y-73477428D01*
X163099714Y-73429809D01*
X163480666Y-73191714D02*
X163718761Y-73858380D01*
X163956857Y-73191714D01*
X164337809Y-73858380D02*
X164337809Y-73191714D01*
X164337809Y-72858380D02*
X164290190Y-72906000D01*
X164337809Y-72953619D01*
X164385428Y-72906000D01*
X164337809Y-72858380D01*
X164337809Y-72953619D01*
X164814000Y-73191714D02*
X164814000Y-73858380D01*
X164814000Y-73286952D02*
X164861619Y-73239333D01*
X164956857Y-73191714D01*
X165099714Y-73191714D01*
X165194952Y-73239333D01*
X165242571Y-73334571D01*
X165242571Y-73858380D01*
X166480666Y-73858380D02*
X166480666Y-72858380D01*
X166480666Y-73334571D02*
X167052095Y-73334571D01*
X167052095Y-73858380D02*
X167052095Y-72858380D01*
X167956857Y-73191714D02*
X167956857Y-73858380D01*
X167528285Y-73191714D02*
X167528285Y-73715523D01*
X167575904Y-73810761D01*
X167671142Y-73858380D01*
X167814000Y-73858380D01*
X167909238Y-73810761D01*
X167956857Y-73763142D01*
X168433047Y-73858380D02*
X168433047Y-73191714D01*
X168433047Y-73382190D02*
X168480666Y-73286952D01*
X168528285Y-73239333D01*
X168623523Y-73191714D01*
X168718761Y-73191714D01*
X169194952Y-73858380D02*
X169099714Y-73810761D01*
X169052095Y-73715523D01*
X169052095Y-72858380D01*
X169575904Y-73858380D02*
X169575904Y-72858380D01*
X169575904Y-73239333D02*
X169671142Y-73191714D01*
X169861619Y-73191714D01*
X169956857Y-73239333D01*
X170004476Y-73286952D01*
X170052095Y-73382190D01*
X170052095Y-73667904D01*
X170004476Y-73763142D01*
X169956857Y-73810761D01*
X169861619Y-73858380D01*
X169671142Y-73858380D01*
X169575904Y-73810761D01*
X170909238Y-73191714D02*
X170909238Y-73858380D01*
X170480666Y-73191714D02*
X170480666Y-73715523D01*
X170528285Y-73810761D01*
X170623523Y-73858380D01*
X170766380Y-73858380D01*
X170861619Y-73810761D01*
X170909238Y-73763142D01*
X171242571Y-73191714D02*
X171623523Y-73191714D01*
X171385428Y-72858380D02*
X171385428Y-73715523D01*
X171433047Y-73810761D01*
X171528285Y-73858380D01*
X171623523Y-73858380D01*
X199000000Y-68452142D02*
X198952380Y-68499761D01*
X198809523Y-68547380D01*
X198714285Y-68547380D01*
X198571428Y-68499761D01*
X198476190Y-68404523D01*
X198428571Y-68309285D01*
X198380952Y-68118809D01*
X198380952Y-67975952D01*
X198428571Y-67785476D01*
X198476190Y-67690238D01*
X198571428Y-67595000D01*
X198714285Y-67547380D01*
X198809523Y-67547380D01*
X198952380Y-67595000D01*
X199000000Y-67642619D01*
X199571428Y-68547380D02*
X199476190Y-68499761D01*
X199428571Y-68452142D01*
X199380952Y-68356904D01*
X199380952Y-68071190D01*
X199428571Y-67975952D01*
X199476190Y-67928333D01*
X199571428Y-67880714D01*
X199714285Y-67880714D01*
X199809523Y-67928333D01*
X199857142Y-67975952D01*
X199904761Y-68071190D01*
X199904761Y-68356904D01*
X199857142Y-68452142D01*
X199809523Y-68499761D01*
X199714285Y-68547380D01*
X199571428Y-68547380D01*
X200476190Y-68547380D02*
X200380952Y-68499761D01*
X200333333Y-68452142D01*
X200285714Y-68356904D01*
X200285714Y-68071190D01*
X200333333Y-67975952D01*
X200380952Y-67928333D01*
X200476190Y-67880714D01*
X200619047Y-67880714D01*
X200714285Y-67928333D01*
X200761904Y-67975952D01*
X200809523Y-68071190D01*
X200809523Y-68356904D01*
X200761904Y-68452142D01*
X200714285Y-68499761D01*
X200619047Y-68547380D01*
X200476190Y-68547380D01*
X201380952Y-68547380D02*
X201285714Y-68499761D01*
X201238095Y-68404523D01*
X201238095Y-67547380D01*
X201761904Y-68547380D02*
X201761904Y-67880714D01*
X201761904Y-67547380D02*
X201714285Y-67595000D01*
X201761904Y-67642619D01*
X201809523Y-67595000D01*
X201761904Y-67547380D01*
X201761904Y-67642619D01*
X202238095Y-67880714D02*
X202238095Y-68547380D01*
X202238095Y-67975952D02*
X202285714Y-67928333D01*
X202380952Y-67880714D01*
X202523809Y-67880714D01*
X202619047Y-67928333D01*
X202666666Y-68023571D01*
X202666666Y-68547380D01*
X203571428Y-67880714D02*
X203571428Y-68690238D01*
X203523809Y-68785476D01*
X203476190Y-68833095D01*
X203380952Y-68880714D01*
X203238095Y-68880714D01*
X203142857Y-68833095D01*
X203571428Y-68499761D02*
X203476190Y-68547380D01*
X203285714Y-68547380D01*
X203190476Y-68499761D01*
X203142857Y-68452142D01*
X203095238Y-68356904D01*
X203095238Y-68071190D01*
X203142857Y-67975952D01*
X203190476Y-67928333D01*
X203285714Y-67880714D01*
X203476190Y-67880714D01*
X203571428Y-67928333D01*
X200238095Y-69633571D02*
X199904761Y-69633571D01*
X199904761Y-70157380D02*
X199904761Y-69157380D01*
X200380952Y-69157380D01*
X201190476Y-70157380D02*
X201190476Y-69633571D01*
X201142857Y-69538333D01*
X201047619Y-69490714D01*
X200857142Y-69490714D01*
X200761904Y-69538333D01*
X201190476Y-70109761D02*
X201095238Y-70157380D01*
X200857142Y-70157380D01*
X200761904Y-70109761D01*
X200714285Y-70014523D01*
X200714285Y-69919285D01*
X200761904Y-69824047D01*
X200857142Y-69776428D01*
X201095238Y-69776428D01*
X201190476Y-69728809D01*
X201666666Y-69490714D02*
X201666666Y-70157380D01*
X201666666Y-69585952D02*
X201714285Y-69538333D01*
X201809523Y-69490714D01*
X201952380Y-69490714D01*
X202047619Y-69538333D01*
X202095238Y-69633571D01*
X202095238Y-70157380D01*
X156100000Y-67492571D02*
X155766666Y-67492571D01*
X155766666Y-68016380D02*
X155766666Y-67016380D01*
X156242857Y-67016380D01*
X156766666Y-68016380D02*
X156671428Y-67968761D01*
X156623809Y-67873523D01*
X156623809Y-67016380D01*
X157290476Y-68016380D02*
X157195238Y-67968761D01*
X157147619Y-67921142D01*
X157100000Y-67825904D01*
X157100000Y-67540190D01*
X157147619Y-67444952D01*
X157195238Y-67397333D01*
X157290476Y-67349714D01*
X157433333Y-67349714D01*
X157528571Y-67397333D01*
X157576190Y-67444952D01*
X157623809Y-67540190D01*
X157623809Y-67825904D01*
X157576190Y-67921142D01*
X157528571Y-67968761D01*
X157433333Y-68016380D01*
X157290476Y-68016380D01*
X157957142Y-67349714D02*
X158147619Y-68016380D01*
X158338095Y-67540190D01*
X158528571Y-68016380D01*
X158719047Y-67349714D01*
X159814285Y-67968761D02*
X159957142Y-68016380D01*
X160195238Y-68016380D01*
X160290476Y-67968761D01*
X160338095Y-67921142D01*
X160385714Y-67825904D01*
X160385714Y-67730666D01*
X160338095Y-67635428D01*
X160290476Y-67587809D01*
X160195238Y-67540190D01*
X160004761Y-67492571D01*
X159909523Y-67444952D01*
X159861904Y-67397333D01*
X159814285Y-67302095D01*
X159814285Y-67206857D01*
X159861904Y-67111619D01*
X159909523Y-67064000D01*
X160004761Y-67016380D01*
X160242857Y-67016380D01*
X160385714Y-67064000D01*
X161195238Y-67968761D02*
X161100000Y-68016380D01*
X160909523Y-68016380D01*
X160814285Y-67968761D01*
X160766666Y-67873523D01*
X160766666Y-67492571D01*
X160814285Y-67397333D01*
X160909523Y-67349714D01*
X161100000Y-67349714D01*
X161195238Y-67397333D01*
X161242857Y-67492571D01*
X161242857Y-67587809D01*
X160766666Y-67683047D01*
X161671428Y-67349714D02*
X161671428Y-68016380D01*
X161671428Y-67444952D02*
X161719047Y-67397333D01*
X161814285Y-67349714D01*
X161957142Y-67349714D01*
X162052380Y-67397333D01*
X162100000Y-67492571D01*
X162100000Y-68016380D01*
X162528571Y-67968761D02*
X162623809Y-68016380D01*
X162814285Y-68016380D01*
X162909523Y-67968761D01*
X162957142Y-67873523D01*
X162957142Y-67825904D01*
X162909523Y-67730666D01*
X162814285Y-67683047D01*
X162671428Y-67683047D01*
X162576190Y-67635428D01*
X162528571Y-67540190D01*
X162528571Y-67492571D01*
X162576190Y-67397333D01*
X162671428Y-67349714D01*
X162814285Y-67349714D01*
X162909523Y-67397333D01*
X163528571Y-68016380D02*
X163433333Y-67968761D01*
X163385714Y-67921142D01*
X163338095Y-67825904D01*
X163338095Y-67540190D01*
X163385714Y-67444952D01*
X163433333Y-67397333D01*
X163528571Y-67349714D01*
X163671428Y-67349714D01*
X163766666Y-67397333D01*
X163814285Y-67444952D01*
X163861904Y-67540190D01*
X163861904Y-67825904D01*
X163814285Y-67921142D01*
X163766666Y-67968761D01*
X163671428Y-68016380D01*
X163528571Y-68016380D01*
X164290476Y-68016380D02*
X164290476Y-67349714D01*
X164290476Y-67540190D02*
X164338095Y-67444952D01*
X164385714Y-67397333D01*
X164480952Y-67349714D01*
X164576190Y-67349714D01*
%TO.C,R15*%
X182457142Y-79002380D02*
X182123809Y-78526190D01*
X181885714Y-79002380D02*
X181885714Y-78002380D01*
X182266666Y-78002380D01*
X182361904Y-78050000D01*
X182409523Y-78097619D01*
X182457142Y-78192857D01*
X182457142Y-78335714D01*
X182409523Y-78430952D01*
X182361904Y-78478571D01*
X182266666Y-78526190D01*
X181885714Y-78526190D01*
X183409523Y-79002380D02*
X182838095Y-79002380D01*
X183123809Y-79002380D02*
X183123809Y-78002380D01*
X183028571Y-78145238D01*
X182933333Y-78240476D01*
X182838095Y-78288095D01*
X184314285Y-78002380D02*
X183838095Y-78002380D01*
X183790476Y-78478571D01*
X183838095Y-78430952D01*
X183933333Y-78383333D01*
X184171428Y-78383333D01*
X184266666Y-78430952D01*
X184314285Y-78478571D01*
X184361904Y-78573809D01*
X184361904Y-78811904D01*
X184314285Y-78907142D01*
X184266666Y-78954761D01*
X184171428Y-79002380D01*
X183933333Y-79002380D01*
X183838095Y-78954761D01*
X183790476Y-78907142D01*
%TO.C,R14*%
X172952380Y-95542857D02*
X172476190Y-95876190D01*
X172952380Y-96114285D02*
X171952380Y-96114285D01*
X171952380Y-95733333D01*
X172000000Y-95638095D01*
X172047619Y-95590476D01*
X172142857Y-95542857D01*
X172285714Y-95542857D01*
X172380952Y-95590476D01*
X172428571Y-95638095D01*
X172476190Y-95733333D01*
X172476190Y-96114285D01*
X172952380Y-94590476D02*
X172952380Y-95161904D01*
X172952380Y-94876190D02*
X171952380Y-94876190D01*
X172095238Y-94971428D01*
X172190476Y-95066666D01*
X172238095Y-95161904D01*
X172285714Y-93733333D02*
X172952380Y-93733333D01*
X171904761Y-93971428D02*
X172619047Y-94209523D01*
X172619047Y-93590476D01*
%TO.C,Q6*%
X212747619Y-60295238D02*
X212700000Y-60390476D01*
X212604761Y-60485714D01*
X212461904Y-60628571D01*
X212414285Y-60723809D01*
X212414285Y-60819047D01*
X212652380Y-60771428D02*
X212604761Y-60866666D01*
X212509523Y-60961904D01*
X212319047Y-61009523D01*
X211985714Y-61009523D01*
X211795238Y-60961904D01*
X211700000Y-60866666D01*
X211652380Y-60771428D01*
X211652380Y-60580952D01*
X211700000Y-60485714D01*
X211795238Y-60390476D01*
X211985714Y-60342857D01*
X212319047Y-60342857D01*
X212509523Y-60390476D01*
X212604761Y-60485714D01*
X212652380Y-60580952D01*
X212652380Y-60771428D01*
X211652380Y-59485714D02*
X211652380Y-59676190D01*
X211700000Y-59771428D01*
X211747619Y-59819047D01*
X211890476Y-59914285D01*
X212080952Y-59961904D01*
X212461904Y-59961904D01*
X212557142Y-59914285D01*
X212604761Y-59866666D01*
X212652380Y-59771428D01*
X212652380Y-59580952D01*
X212604761Y-59485714D01*
X212557142Y-59438095D01*
X212461904Y-59390476D01*
X212223809Y-59390476D01*
X212128571Y-59438095D01*
X212080952Y-59485714D01*
X212033333Y-59580952D01*
X212033333Y-59771428D01*
X212080952Y-59866666D01*
X212128571Y-59914285D01*
X212223809Y-59961904D01*
%TO.C,Q5*%
X185247619Y-61195238D02*
X185200000Y-61290476D01*
X185104761Y-61385714D01*
X184961904Y-61528571D01*
X184914285Y-61623809D01*
X184914285Y-61719047D01*
X185152380Y-61671428D02*
X185104761Y-61766666D01*
X185009523Y-61861904D01*
X184819047Y-61909523D01*
X184485714Y-61909523D01*
X184295238Y-61861904D01*
X184200000Y-61766666D01*
X184152380Y-61671428D01*
X184152380Y-61480952D01*
X184200000Y-61385714D01*
X184295238Y-61290476D01*
X184485714Y-61242857D01*
X184819047Y-61242857D01*
X185009523Y-61290476D01*
X185104761Y-61385714D01*
X185152380Y-61480952D01*
X185152380Y-61671428D01*
X184152380Y-60338095D02*
X184152380Y-60814285D01*
X184628571Y-60861904D01*
X184580952Y-60814285D01*
X184533333Y-60719047D01*
X184533333Y-60480952D01*
X184580952Y-60385714D01*
X184628571Y-60338095D01*
X184723809Y-60290476D01*
X184961904Y-60290476D01*
X185057142Y-60338095D01*
X185104761Y-60385714D01*
X185152380Y-60480952D01*
X185152380Y-60719047D01*
X185104761Y-60814285D01*
X185057142Y-60861904D01*
%TO.C,J1*%
X198166666Y-58752380D02*
X198166666Y-59466666D01*
X198119047Y-59609523D01*
X198023809Y-59704761D01*
X197880952Y-59752380D01*
X197785714Y-59752380D01*
X199166666Y-59752380D02*
X198595238Y-59752380D01*
X198880952Y-59752380D02*
X198880952Y-58752380D01*
X198785714Y-58895238D01*
X198690476Y-58990476D01*
X198595238Y-59038095D01*
%TO.C,J2*%
X166052380Y-61833333D02*
X166766666Y-61833333D01*
X166909523Y-61880952D01*
X167004761Y-61976190D01*
X167052380Y-62119047D01*
X167052380Y-62214285D01*
X166147619Y-61404761D02*
X166100000Y-61357142D01*
X166052380Y-61261904D01*
X166052380Y-61023809D01*
X166100000Y-60928571D01*
X166147619Y-60880952D01*
X166242857Y-60833333D01*
X166338095Y-60833333D01*
X166480952Y-60880952D01*
X167052380Y-61452380D01*
X167052380Y-60833333D01*
D11*
%TO.C,J7*%
X216126140Y-99718211D02*
X216126140Y-100153640D01*
X216097111Y-100240725D01*
X216039054Y-100298782D01*
X215951968Y-100327811D01*
X215893911Y-100327811D01*
X216358368Y-99718211D02*
X216764768Y-99718211D01*
X216503511Y-100327811D01*
D12*
X223437711Y-93825411D02*
X221761311Y-93825411D01*
X221761311Y-93426268D01*
X221841140Y-93186782D01*
X222000797Y-93027125D01*
X222160454Y-92947297D01*
X222479768Y-92867468D01*
X222719254Y-92867468D01*
X223038568Y-92947297D01*
X223198225Y-93027125D01*
X223357882Y-93186782D01*
X223437711Y-93426268D01*
X223437711Y-93825411D01*
X223437711Y-92149011D02*
X221761311Y-92149011D01*
X223437711Y-91350725D02*
X221761311Y-91350725D01*
X223437711Y-90392782D01*
X221761311Y-90392782D01*
X222799082Y-89594497D02*
X222799082Y-88317240D01*
X221761311Y-86720668D02*
X221761311Y-87518954D01*
X222559597Y-87598782D01*
X222479768Y-87518954D01*
X222399940Y-87359297D01*
X222399940Y-86960154D01*
X222479768Y-86800497D01*
X222559597Y-86720668D01*
X222719254Y-86640840D01*
X223118397Y-86640840D01*
X223278054Y-86720668D01*
X223357882Y-86800497D01*
X223437711Y-86960154D01*
X223437711Y-87359297D01*
X223357882Y-87518954D01*
X223278054Y-87598782D01*
D10*
%TO.C,U2*%
X204216095Y-82404380D02*
X204216095Y-83213904D01*
X204263714Y-83309142D01*
X204311333Y-83356761D01*
X204406571Y-83404380D01*
X204597047Y-83404380D01*
X204692285Y-83356761D01*
X204739904Y-83309142D01*
X204787523Y-83213904D01*
X204787523Y-82404380D01*
X205216095Y-82499619D02*
X205263714Y-82452000D01*
X205358952Y-82404380D01*
X205597047Y-82404380D01*
X205692285Y-82452000D01*
X205739904Y-82499619D01*
X205787523Y-82594857D01*
X205787523Y-82690095D01*
X205739904Y-82832952D01*
X205168476Y-83404380D01*
X205787523Y-83404380D01*
X208000000Y-83047619D02*
X208000000Y-82809523D01*
X208238095Y-82904761D02*
X208000000Y-82809523D01*
X207761904Y-82904761D01*
X208142857Y-82619047D02*
X208000000Y-82809523D01*
X207857142Y-82619047D01*
%TO.C,R8*%
X205133333Y-76132380D02*
X204800000Y-75656190D01*
X204561904Y-76132380D02*
X204561904Y-75132380D01*
X204942857Y-75132380D01*
X205038095Y-75180000D01*
X205085714Y-75227619D01*
X205133333Y-75322857D01*
X205133333Y-75465714D01*
X205085714Y-75560952D01*
X205038095Y-75608571D01*
X204942857Y-75656190D01*
X204561904Y-75656190D01*
X205704761Y-75560952D02*
X205609523Y-75513333D01*
X205561904Y-75465714D01*
X205514285Y-75370476D01*
X205514285Y-75322857D01*
X205561904Y-75227619D01*
X205609523Y-75180000D01*
X205704761Y-75132380D01*
X205895238Y-75132380D01*
X205990476Y-75180000D01*
X206038095Y-75227619D01*
X206085714Y-75322857D01*
X206085714Y-75370476D01*
X206038095Y-75465714D01*
X205990476Y-75513333D01*
X205895238Y-75560952D01*
X205704761Y-75560952D01*
X205609523Y-75608571D01*
X205561904Y-75656190D01*
X205514285Y-75751428D01*
X205514285Y-75941904D01*
X205561904Y-76037142D01*
X205609523Y-76084761D01*
X205704761Y-76132380D01*
X205895238Y-76132380D01*
X205990476Y-76084761D01*
X206038095Y-76037142D01*
X206085714Y-75941904D01*
X206085714Y-75751428D01*
X206038095Y-75656190D01*
X205990476Y-75608571D01*
X205895238Y-75560952D01*
%TO.C,J5*%
X155252380Y-61633333D02*
X155966666Y-61633333D01*
X156109523Y-61680952D01*
X156204761Y-61776190D01*
X156252380Y-61919047D01*
X156252380Y-62014285D01*
X155252380Y-60680952D02*
X155252380Y-61157142D01*
X155728571Y-61204761D01*
X155680952Y-61157142D01*
X155633333Y-61061904D01*
X155633333Y-60823809D01*
X155680952Y-60728571D01*
X155728571Y-60680952D01*
X155823809Y-60633333D01*
X156061904Y-60633333D01*
X156157142Y-60680952D01*
X156204761Y-60728571D01*
X156252380Y-60823809D01*
X156252380Y-61061904D01*
X156204761Y-61157142D01*
X156157142Y-61204761D01*
%TO.C,U3*%
X187568380Y-75437904D02*
X188377904Y-75437904D01*
X188473142Y-75390285D01*
X188520761Y-75342666D01*
X188568380Y-75247428D01*
X188568380Y-75056952D01*
X188520761Y-74961714D01*
X188473142Y-74914095D01*
X188377904Y-74866476D01*
X187568380Y-74866476D01*
X187568380Y-74485523D02*
X187568380Y-73866476D01*
X187949333Y-74199809D01*
X187949333Y-74056952D01*
X187996952Y-73961714D01*
X188044571Y-73914095D01*
X188139809Y-73866476D01*
X188377904Y-73866476D01*
X188473142Y-73914095D01*
X188520761Y-73961714D01*
X188568380Y-74056952D01*
X188568380Y-74342666D01*
X188520761Y-74437904D01*
X188473142Y-74485523D01*
X188552380Y-78800000D02*
X188790476Y-78800000D01*
X188695238Y-79038095D02*
X188790476Y-78800000D01*
X188695238Y-78561904D01*
X188980952Y-78942857D02*
X188790476Y-78800000D01*
X188980952Y-78657142D01*
%TO.C,J4*%
X174052380Y-62333333D02*
X174766666Y-62333333D01*
X174909523Y-62380952D01*
X175004761Y-62476190D01*
X175052380Y-62619047D01*
X175052380Y-62714285D01*
X174385714Y-61428571D02*
X175052380Y-61428571D01*
X174004761Y-61666666D02*
X174719047Y-61904761D01*
X174719047Y-61285714D01*
D11*
%TO.C,J3*%
X201182251Y-96119360D02*
X201617680Y-96119360D01*
X201704765Y-96148388D01*
X201762822Y-96206445D01*
X201791851Y-96293531D01*
X201791851Y-96351588D01*
X201182251Y-95887131D02*
X201182251Y-95509760D01*
X201414480Y-95712960D01*
X201414480Y-95625874D01*
X201443508Y-95567817D01*
X201472537Y-95538788D01*
X201530594Y-95509760D01*
X201675737Y-95509760D01*
X201733794Y-95538788D01*
X201762822Y-95567817D01*
X201791851Y-95625874D01*
X201791851Y-95800045D01*
X201762822Y-95858102D01*
X201733794Y-95887131D01*
D10*
%TO.C,R5*%
X205133333Y-88032380D02*
X204800000Y-87556190D01*
X204561904Y-88032380D02*
X204561904Y-87032380D01*
X204942857Y-87032380D01*
X205038095Y-87080000D01*
X205085714Y-87127619D01*
X205133333Y-87222857D01*
X205133333Y-87365714D01*
X205085714Y-87460952D01*
X205038095Y-87508571D01*
X204942857Y-87556190D01*
X204561904Y-87556190D01*
X206038095Y-87032380D02*
X205561904Y-87032380D01*
X205514285Y-87508571D01*
X205561904Y-87460952D01*
X205657142Y-87413333D01*
X205895238Y-87413333D01*
X205990476Y-87460952D01*
X206038095Y-87508571D01*
X206085714Y-87603809D01*
X206085714Y-87841904D01*
X206038095Y-87937142D01*
X205990476Y-87984761D01*
X205895238Y-88032380D01*
X205657142Y-88032380D01*
X205561904Y-87984761D01*
X205514285Y-87937142D01*
D11*
%TO.C,J6*%
X216085420Y-79930171D02*
X216085420Y-80365600D01*
X216056391Y-80452685D01*
X215998334Y-80510742D01*
X215911248Y-80539771D01*
X215853191Y-80539771D01*
X216636962Y-79930171D02*
X216520848Y-79930171D01*
X216462791Y-79959200D01*
X216433762Y-79988228D01*
X216375705Y-80075314D01*
X216346677Y-80191428D01*
X216346677Y-80423657D01*
X216375705Y-80481714D01*
X216404734Y-80510742D01*
X216462791Y-80539771D01*
X216578905Y-80539771D01*
X216636962Y-80510742D01*
X216665991Y-80481714D01*
X216695020Y-80423657D01*
X216695020Y-80278514D01*
X216665991Y-80220457D01*
X216636962Y-80191428D01*
X216578905Y-80162400D01*
X216462791Y-80162400D01*
X216404734Y-80191428D01*
X216375705Y-80220457D01*
X216346677Y-80278514D01*
D12*
X223396991Y-74037371D02*
X221720591Y-74037371D01*
X221720591Y-73638228D01*
X221800420Y-73398742D01*
X221960077Y-73239085D01*
X222119734Y-73159257D01*
X222439048Y-73079428D01*
X222678534Y-73079428D01*
X222997848Y-73159257D01*
X223157505Y-73239085D01*
X223317162Y-73398742D01*
X223396991Y-73638228D01*
X223396991Y-74037371D01*
X223396991Y-72360971D02*
X221720591Y-72360971D01*
X223396991Y-71562685D02*
X221720591Y-71562685D01*
X223396991Y-70604742D01*
X221720591Y-70604742D01*
X222758362Y-69806457D02*
X222758362Y-68529200D01*
X221720591Y-66932628D02*
X221720591Y-67730914D01*
X222518877Y-67810742D01*
X222439048Y-67730914D01*
X222359220Y-67571257D01*
X222359220Y-67172114D01*
X222439048Y-67012457D01*
X222518877Y-66932628D01*
X222678534Y-66852800D01*
X223077677Y-66852800D01*
X223237334Y-66932628D01*
X223317162Y-67012457D01*
X223396991Y-67172114D01*
X223396991Y-67571257D01*
X223317162Y-67730914D01*
X223237334Y-67810742D01*
D10*
%TO.C,U1*%
X199350380Y-91195904D02*
X200159904Y-91195904D01*
X200255142Y-91148285D01*
X200302761Y-91100666D01*
X200350380Y-91005428D01*
X200350380Y-90814952D01*
X200302761Y-90719714D01*
X200255142Y-90672095D01*
X200159904Y-90624476D01*
X199350380Y-90624476D01*
X200350380Y-89624476D02*
X200350380Y-90195904D01*
X200350380Y-89910190D02*
X199350380Y-89910190D01*
X199493238Y-90005428D01*
X199588476Y-90100666D01*
X199636095Y-90195904D01*
X196127619Y-80518000D02*
X195889523Y-80518000D01*
X195984761Y-80279904D02*
X195889523Y-80518000D01*
X195984761Y-80756095D01*
X195699047Y-80375142D02*
X195889523Y-80518000D01*
X195699047Y-80660857D01*
X159805619Y-89172095D02*
X158996095Y-89172095D01*
X158900857Y-89219714D01*
X158853238Y-89267333D01*
X158805619Y-89362571D01*
X158805619Y-89553047D01*
X158853238Y-89648285D01*
X158900857Y-89695904D01*
X158996095Y-89743523D01*
X159805619Y-89743523D01*
X158853238Y-90172095D02*
X158805619Y-90314952D01*
X158805619Y-90553047D01*
X158853238Y-90648285D01*
X158900857Y-90695904D01*
X158996095Y-90743523D01*
X159091333Y-90743523D01*
X159186571Y-90695904D01*
X159234190Y-90648285D01*
X159281809Y-90553047D01*
X159329428Y-90362571D01*
X159377047Y-90267333D01*
X159424666Y-90219714D01*
X159519904Y-90172095D01*
X159615142Y-90172095D01*
X159710380Y-90219714D01*
X159758000Y-90267333D01*
X159805619Y-90362571D01*
X159805619Y-90600666D01*
X159758000Y-90743523D01*
X159329428Y-91505428D02*
X159281809Y-91648285D01*
X159234190Y-91695904D01*
X159138952Y-91743523D01*
X158996095Y-91743523D01*
X158900857Y-91695904D01*
X158853238Y-91648285D01*
X158805619Y-91553047D01*
X158805619Y-91172095D01*
X159805619Y-91172095D01*
X159805619Y-91505428D01*
X159758000Y-91600666D01*
X159710380Y-91648285D01*
X159615142Y-91695904D01*
X159519904Y-91695904D01*
X159424666Y-91648285D01*
X159377047Y-91600666D01*
X159329428Y-91505428D01*
X159329428Y-91172095D01*
D13*
%TO.C,R15*%
X182872936Y-79465000D02*
X183327064Y-79465000D01*
X182872936Y-80935000D02*
X183327064Y-80935000D01*
%TO.C,R14*%
X174265000Y-94727064D02*
X174265000Y-94272936D01*
X175735000Y-94727064D02*
X175735000Y-94272936D01*
%TO.C,Q6*%
X204125000Y-65595000D02*
X204125000Y-67095000D01*
X204395000Y-67095000D02*
X204395000Y-69925000D01*
X210755000Y-67095000D02*
X210755000Y-68195000D01*
X211025000Y-65595000D02*
X211025000Y-67095000D01*
X204125000Y-67095000D02*
X204395000Y-67095000D01*
X211025000Y-67095000D02*
X210755000Y-67095000D01*
%TO.C,Q5*%
X184925000Y-65495000D02*
X184925000Y-66995000D01*
X185195000Y-66995000D02*
X185195000Y-69825000D01*
X191555000Y-66995000D02*
X191555000Y-68095000D01*
X191825000Y-65495000D02*
X191825000Y-66995000D01*
X184925000Y-66995000D02*
X185195000Y-66995000D01*
X191825000Y-66995000D02*
X191555000Y-66995000D01*
%TO.C,J1*%
X192565000Y-59930000D02*
X203426000Y-59930000D01*
X192325000Y-66910000D02*
X192725000Y-66910000D01*
X203426000Y-59930000D02*
X203426000Y-66670000D01*
X192565000Y-66150000D02*
X203426000Y-66150000D01*
X192325000Y-66270000D02*
X192325000Y-66910000D01*
X192565000Y-61050000D02*
X203426000Y-61050000D01*
X192565000Y-66670000D02*
X203426000Y-66670000D01*
X192565000Y-59930000D02*
X192565000Y-66670000D01*
%TO.C,J2*%
X167680000Y-59730000D02*
X167680000Y-66470000D01*
X167680000Y-59730000D02*
X173460000Y-59730000D01*
X167680000Y-65950000D02*
X173460000Y-65950000D01*
X167440000Y-66710000D02*
X167840000Y-66710000D01*
X167680000Y-66470000D02*
X173460000Y-66470000D01*
X167440000Y-66070000D02*
X167440000Y-66710000D01*
X167680000Y-60850000D02*
X173460000Y-60850000D01*
X173460000Y-59730000D02*
X173460000Y-66470000D01*
D14*
%TO.C,J7*%
X229301120Y-81400820D02*
X229301120Y-79902220D01*
X211300140Y-81400820D02*
X211300140Y-84900940D01*
X211300140Y-92399020D02*
X213799500Y-92399020D01*
X211300140Y-95899140D02*
X213799500Y-95899140D01*
X228201300Y-99399260D02*
X228201300Y-81400820D01*
X211300140Y-99399260D02*
X228201300Y-99399260D01*
X230299340Y-81400820D02*
X229301120Y-81400820D01*
X211300140Y-84900940D02*
X213799500Y-84900940D01*
X213799500Y-84900940D02*
X213799500Y-88401060D01*
X228201300Y-81400820D02*
X211300140Y-81400820D01*
X211300140Y-88401060D02*
X213799500Y-88401060D01*
X230299340Y-100897860D02*
X230299340Y-81400820D01*
X211300140Y-95899140D02*
X211300140Y-99399260D01*
X229301120Y-99399260D02*
X229301120Y-100897860D01*
X228300360Y-99399260D02*
X229301120Y-99399260D01*
X213799500Y-92399020D02*
X213799500Y-95899140D01*
X211300140Y-88401060D02*
X211300140Y-92399020D01*
X229301120Y-100897860D02*
X230299340Y-100897860D01*
X228201300Y-79902220D02*
X228201300Y-81400820D01*
X229301120Y-79902220D02*
X228201300Y-79902220D01*
%TO.C,G\u002A\u002A\u002A*%
G36*
X171582926Y-79239382D02*
G01*
X171662984Y-79244692D01*
X171728435Y-79259344D01*
X171773583Y-79281691D01*
X171789040Y-79298980D01*
X171803326Y-79349071D01*
X171801165Y-79404603D01*
X171783818Y-79451998D01*
X171773617Y-79464939D01*
X171753758Y-79487385D01*
X171752339Y-79505444D01*
X171768885Y-79532915D01*
X171771157Y-79536203D01*
X171799616Y-79578505D01*
X171810723Y-79601892D01*
X171804421Y-79611965D01*
X171780654Y-79614329D01*
X171770377Y-79614372D01*
X171734131Y-79609925D01*
X171710974Y-79591083D01*
X171694719Y-79561862D01*
X171672768Y-79525896D01*
X171646802Y-79511234D01*
X171624427Y-79509352D01*
X171594028Y-79512255D01*
X171581560Y-79527033D01*
X171579176Y-79561862D01*
X171576373Y-79597373D01*
X171563763Y-79611910D01*
X171541668Y-79614372D01*
X171504161Y-79614372D01*
X171504161Y-79436062D01*
X171579176Y-79436062D01*
X171641410Y-79431449D01*
X171692159Y-79420895D01*
X171720099Y-79400580D01*
X171728771Y-79366141D01*
X171710707Y-79338558D01*
X171668960Y-79321065D01*
X171641410Y-79317201D01*
X171579176Y-79312588D01*
X171579176Y-79436062D01*
X171504161Y-79436062D01*
X171504161Y-79239298D01*
X171582926Y-79239382D01*
G37*
G36*
X162007291Y-76703799D02*
G01*
X162007291Y-76995332D01*
X161928526Y-76918548D01*
X161811440Y-76821664D01*
X161681670Y-76748848D01*
X161602212Y-76717343D01*
X161524915Y-76698369D01*
X161427541Y-76686239D01*
X161319255Y-76681078D01*
X161209224Y-76683013D01*
X161106615Y-76692170D01*
X161020594Y-76708677D01*
X161018395Y-76709279D01*
X160855015Y-76769453D01*
X160707789Y-76854588D01*
X160578140Y-76963503D01*
X160467492Y-77095016D01*
X160382972Y-77236404D01*
X160326558Y-77375438D01*
X160285603Y-77532842D01*
X160261375Y-77700551D01*
X160255139Y-77870498D01*
X160263411Y-77997939D01*
X160279682Y-78118552D01*
X160299901Y-78219465D01*
X160326948Y-78310965D01*
X160363705Y-78403341D01*
X160396811Y-78474148D01*
X160481610Y-78616510D01*
X160587152Y-78741663D01*
X160709695Y-78845808D01*
X160837061Y-78921162D01*
X161000639Y-78984163D01*
X161172670Y-79019830D01*
X161328374Y-79029257D01*
X161492786Y-79016131D01*
X161643422Y-78976996D01*
X161779321Y-78912219D01*
X161899524Y-78822165D01*
X161918438Y-78804261D01*
X162007291Y-78717318D01*
X162007291Y-79839417D01*
X161643470Y-79836895D01*
X161538304Y-79835959D01*
X161439948Y-79834697D01*
X161353427Y-79833204D01*
X161283765Y-79831575D01*
X161235989Y-79829904D01*
X161219636Y-79828896D01*
X160983625Y-79792912D01*
X160755498Y-79729747D01*
X160537529Y-79641092D01*
X160331993Y-79528640D01*
X160141163Y-79394082D01*
X159967314Y-79239109D01*
X159812721Y-79065415D01*
X159679656Y-78874691D01*
X159570394Y-78668628D01*
X159529722Y-78571667D01*
X159456148Y-78345017D01*
X159408703Y-78115307D01*
X159388059Y-77887035D01*
X159394813Y-77665450D01*
X159432223Y-77416365D01*
X159495922Y-77181670D01*
X159586157Y-76960853D01*
X159703172Y-76753400D01*
X159847215Y-76558800D01*
X160008394Y-76386251D01*
X160190980Y-76229173D01*
X160386481Y-76098139D01*
X160597162Y-75991901D01*
X160825285Y-75909212D01*
X160922969Y-75882185D01*
X161084610Y-75841129D01*
X165555490Y-75841129D01*
X165989752Y-75841134D01*
X166395038Y-75841152D01*
X166772378Y-75841189D01*
X167122802Y-75841253D01*
X167447340Y-75841348D01*
X167747021Y-75841482D01*
X168022877Y-75841661D01*
X168275937Y-75841891D01*
X168507230Y-75842178D01*
X168717787Y-75842529D01*
X168908638Y-75842950D01*
X169080812Y-75843447D01*
X169235340Y-75844027D01*
X169373252Y-75844696D01*
X169495577Y-75845460D01*
X169603346Y-75846326D01*
X169697588Y-75847299D01*
X169779333Y-75848387D01*
X169849612Y-75849595D01*
X169909455Y-75850930D01*
X169959891Y-75852398D01*
X170001950Y-75854005D01*
X170036662Y-75855758D01*
X170065057Y-75857663D01*
X170088166Y-75859726D01*
X170107018Y-75861954D01*
X170122643Y-75864352D01*
X170136071Y-75866928D01*
X170146394Y-75869230D01*
X170390182Y-75940710D01*
X170618118Y-76036870D01*
X170829036Y-76156817D01*
X171021769Y-76299660D01*
X171195155Y-76464507D01*
X171348026Y-76650466D01*
X171479218Y-76856644D01*
X171509072Y-76912366D01*
X171602832Y-77119078D01*
X171669674Y-77326236D01*
X171711057Y-77539903D01*
X171728438Y-77766142D01*
X171729205Y-77828342D01*
X171715742Y-78077691D01*
X171675174Y-78314284D01*
X171607234Y-78538788D01*
X171511655Y-78751867D01*
X171388170Y-78954187D01*
X171236512Y-79146412D01*
X171171718Y-79216659D01*
X171002147Y-79376215D01*
X170823121Y-79510464D01*
X170631019Y-79621419D01*
X170422220Y-79711093D01*
X170193102Y-79781500D01*
X170126875Y-79797563D01*
X169981361Y-79831027D01*
X166376902Y-79835520D01*
X162772442Y-79840013D01*
X162772442Y-76711301D01*
X162895374Y-76711301D01*
X163725130Y-78998735D01*
X164477280Y-78999251D01*
X164692341Y-78305365D01*
X164735389Y-78166884D01*
X164775969Y-78037143D01*
X164813180Y-77918965D01*
X164846122Y-77815169D01*
X164873895Y-77728576D01*
X164895599Y-77662007D01*
X164910335Y-77618282D01*
X164917203Y-77600224D01*
X164917361Y-77599999D01*
X164923577Y-77611589D01*
X164937613Y-77649213D01*
X164958593Y-77710189D01*
X164985640Y-77791832D01*
X165017879Y-77891458D01*
X165054432Y-78006384D01*
X165094425Y-78133926D01*
X165136981Y-78271401D01*
X165143886Y-78293867D01*
X165360451Y-78999216D01*
X165735617Y-78999233D01*
X166110782Y-78999251D01*
X167048284Y-78999251D01*
X167798431Y-78999251D01*
X167948461Y-78999251D01*
X168698609Y-78999251D01*
X168698609Y-77859027D01*
X168856181Y-77859027D01*
X168857635Y-77979195D01*
X168862997Y-78076975D01*
X168873834Y-78159893D01*
X168891712Y-78235475D01*
X168918199Y-78311249D01*
X168954860Y-78394739D01*
X168977476Y-78441688D01*
X169065599Y-78587855D01*
X169176493Y-78714835D01*
X169308720Y-78821173D01*
X169411858Y-78881859D01*
X169549856Y-78945204D01*
X169681307Y-78988481D01*
X169816104Y-79013951D01*
X169964140Y-79023872D01*
X170033871Y-79023928D01*
X170176399Y-79021756D01*
X170180455Y-78719796D01*
X170184510Y-78417835D01*
X170051883Y-78411494D01*
X169944652Y-78398740D01*
X169858358Y-78370185D01*
X169786989Y-78323226D01*
X169742064Y-78277265D01*
X169678367Y-78181024D01*
X169634149Y-78070596D01*
X169609244Y-77951406D01*
X169603488Y-77828878D01*
X169616715Y-77708435D01*
X169648760Y-77595503D01*
X169699459Y-77495504D01*
X169768346Y-77414134D01*
X169841235Y-77358135D01*
X169915976Y-77323634D01*
X170002273Y-77307074D01*
X170067932Y-77304247D01*
X170184510Y-77303917D01*
X170180455Y-76992606D01*
X170176399Y-76681295D01*
X169988863Y-76683705D01*
X169839533Y-76691311D01*
X169708376Y-76711516D01*
X169585373Y-76746636D01*
X169460508Y-76798988D01*
X169433753Y-76812067D01*
X169313178Y-76885725D01*
X169197548Y-76981417D01*
X169094290Y-77091819D01*
X169010836Y-77209611D01*
X168987152Y-77252256D01*
X168939948Y-77350517D01*
X168905130Y-77440094D01*
X168881022Y-77528755D01*
X168865946Y-77624265D01*
X168858227Y-77734388D01*
X168856181Y-77859027D01*
X168698609Y-77859027D01*
X168698609Y-76703799D01*
X167948461Y-76703799D01*
X167948461Y-78999251D01*
X167798431Y-78999251D01*
X167798431Y-76703799D01*
X167048284Y-76703799D01*
X167048284Y-78999251D01*
X166110782Y-78999251D01*
X166527023Y-77861221D01*
X166591574Y-77684615D01*
X166653062Y-77516164D01*
X166710716Y-77357989D01*
X166763767Y-77212213D01*
X166811445Y-77080958D01*
X166852980Y-76966347D01*
X166887603Y-76870501D01*
X166914545Y-76795542D01*
X166933035Y-76743593D01*
X166942304Y-76716776D01*
X166943263Y-76713495D01*
X166928939Y-76710809D01*
X166888684Y-76708409D01*
X166826570Y-76706402D01*
X166746672Y-76704898D01*
X166653064Y-76704004D01*
X166578532Y-76703799D01*
X166213801Y-76703799D01*
X165998876Y-77435193D01*
X165956515Y-77579055D01*
X165916245Y-77715256D01*
X165878941Y-77840870D01*
X165845481Y-77952972D01*
X165816741Y-78048635D01*
X165793597Y-78124935D01*
X165776926Y-78178946D01*
X165767604Y-78207743D01*
X165766608Y-78210451D01*
X165763282Y-78217952D01*
X165759698Y-78222263D01*
X165755321Y-78221697D01*
X165749618Y-78214566D01*
X165742054Y-78199183D01*
X165732097Y-78173862D01*
X165719212Y-78136913D01*
X165702865Y-78086651D01*
X165682523Y-78021388D01*
X165657652Y-77939437D01*
X165627718Y-77839109D01*
X165592187Y-77718719D01*
X165550525Y-77576579D01*
X165502199Y-77411001D01*
X165446675Y-77220298D01*
X165383419Y-77002782D01*
X165370647Y-76958850D01*
X165298679Y-76711301D01*
X164936726Y-76707286D01*
X164574774Y-76703270D01*
X164537377Y-76827309D01*
X164525252Y-76868194D01*
X164505922Y-76934214D01*
X164480462Y-77021664D01*
X164449947Y-77126836D01*
X164415451Y-77246027D01*
X164378047Y-77375529D01*
X164338812Y-77511636D01*
X164316551Y-77588974D01*
X164278145Y-77721985D01*
X164242035Y-77846096D01*
X164209107Y-77958333D01*
X164180245Y-78055722D01*
X164156335Y-78135288D01*
X164138262Y-78194058D01*
X164126911Y-78229058D01*
X164123420Y-78237845D01*
X164117471Y-78226073D01*
X164103963Y-78188097D01*
X164083710Y-78126525D01*
X164057525Y-78043967D01*
X164026223Y-77943032D01*
X163990616Y-77826329D01*
X163951519Y-77696469D01*
X163909745Y-77556059D01*
X163891021Y-77492609D01*
X163848175Y-77347399D01*
X163807657Y-77210728D01*
X163770294Y-77085332D01*
X163736909Y-76973950D01*
X163708327Y-76879317D01*
X163685372Y-76804171D01*
X163668869Y-76751249D01*
X163659643Y-76723287D01*
X163658171Y-76719700D01*
X163642160Y-76714084D01*
X163601265Y-76710030D01*
X163534308Y-76707498D01*
X163440112Y-76706453D01*
X163317500Y-76706855D01*
X163271696Y-76707287D01*
X162895374Y-76711301D01*
X162772442Y-76711301D01*
X162772442Y-76703799D01*
X162007291Y-76703799D01*
G37*
G36*
X171287086Y-79320373D02*
G01*
X171307090Y-79273287D01*
X171366521Y-79187007D01*
X171442916Y-79122262D01*
X171531391Y-79080177D01*
X171627064Y-79061873D01*
X171725048Y-79068474D01*
X171820461Y-79101102D01*
X171883968Y-79140685D01*
X171919993Y-79176134D01*
X171957824Y-79225430D01*
X171977983Y-79257987D01*
X172002940Y-79308785D01*
X172016162Y-79355048D01*
X172020965Y-79410859D01*
X172021265Y-79441838D01*
X172007488Y-79549644D01*
X171967371Y-79643377D01*
X171901774Y-79721638D01*
X171812163Y-79782713D01*
X171752542Y-79803869D01*
X171679398Y-79816437D01*
X171605112Y-79819368D01*
X171542065Y-79811617D01*
X171526665Y-79806854D01*
X171434270Y-79757565D01*
X171360250Y-79689214D01*
X171306562Y-79606558D01*
X171275167Y-79514360D01*
X171268742Y-79427166D01*
X171353818Y-79427166D01*
X171361501Y-79511297D01*
X171392607Y-79588886D01*
X171418505Y-79624550D01*
X171490139Y-79686036D01*
X171572306Y-79722502D01*
X171659596Y-79732556D01*
X171746597Y-79714809D01*
X171755737Y-79711175D01*
X171832318Y-79664988D01*
X171889521Y-79601805D01*
X171926025Y-79527113D01*
X171940508Y-79446397D01*
X171931650Y-79365142D01*
X171898128Y-79288834D01*
X171867028Y-79249177D01*
X171793061Y-79190566D01*
X171710559Y-79158464D01*
X171624560Y-79152620D01*
X171540104Y-79172784D01*
X171462231Y-79218706D01*
X171409545Y-79271934D01*
X171369763Y-79344657D01*
X171353818Y-79427166D01*
X171268742Y-79427166D01*
X171268021Y-79417378D01*
X171287086Y-79320373D01*
G37*
G36*
X161623633Y-77298774D02*
G01*
X161718957Y-77330127D01*
X161805410Y-77385635D01*
X161827999Y-77404954D01*
X161905264Y-77490213D01*
X161959881Y-77588069D01*
X161992882Y-77701521D01*
X162005301Y-77833570D01*
X162003747Y-77914929D01*
X161998827Y-77986743D01*
X161990958Y-78040195D01*
X161977155Y-78086929D01*
X161954437Y-78138588D01*
X161938039Y-78171401D01*
X161873703Y-78273580D01*
X161796879Y-78349567D01*
X161704500Y-78401396D01*
X161593499Y-78431097D01*
X161535996Y-78437838D01*
X161474013Y-78437389D01*
X161410149Y-78429041D01*
X161391110Y-78424500D01*
X161276422Y-78378197D01*
X161182205Y-78310176D01*
X161108927Y-78221085D01*
X161057055Y-78111571D01*
X161027056Y-77982281D01*
X161020433Y-77910969D01*
X161022726Y-77766644D01*
X161046410Y-77641678D01*
X161092391Y-77533506D01*
X161161575Y-77439559D01*
X161200406Y-77401342D01*
X161285340Y-77340186D01*
X161379281Y-77303587D01*
X161488467Y-77289294D01*
X161512194Y-77288914D01*
X161623633Y-77298774D01*
G37*
D13*
%TO.C,U2*%
X204978000Y-82262000D02*
X208628000Y-82262000D01*
X204978000Y-76742000D02*
X207178000Y-76742000D01*
X204978000Y-76742000D02*
X202778000Y-76742000D01*
X204978000Y-82262000D02*
X202778000Y-82262000D01*
%TO.C,R8*%
X206827064Y-74760000D02*
X203772936Y-74760000D01*
X206827064Y-72040000D02*
X203772936Y-72040000D01*
%TO.C,J5*%
X157130000Y-59622000D02*
X165450000Y-59622000D01*
X165450000Y-59622000D02*
X165450000Y-66362000D01*
X156890000Y-66602000D02*
X157290000Y-66602000D01*
X157130000Y-66362000D02*
X165450000Y-66362000D01*
X156890000Y-65962000D02*
X156890000Y-66602000D01*
X157130000Y-59622000D02*
X157130000Y-66362000D01*
X157130000Y-65842000D02*
X165450000Y-65842000D01*
X157130000Y-60742000D02*
X165450000Y-60742000D01*
%TO.C,U3*%
X194076000Y-74676000D02*
X194076000Y-72726000D01*
X188956000Y-74676000D02*
X188956000Y-78126000D01*
X194076000Y-74676000D02*
X194076000Y-76626000D01*
X188956000Y-74676000D02*
X188956000Y-72726000D01*
%TO.C,J4*%
X175340000Y-66710000D02*
X175740000Y-66710000D01*
X175580000Y-65950000D02*
X183900000Y-65950000D01*
X175580000Y-66470000D02*
X183900000Y-66470000D01*
X175580000Y-59730000D02*
X175580000Y-66470000D01*
X175580000Y-60850000D02*
X183900000Y-60850000D01*
X175340000Y-66070000D02*
X175340000Y-66710000D01*
X183900000Y-59730000D02*
X183900000Y-66470000D01*
X175580000Y-59730000D02*
X183900000Y-59730000D01*
D12*
%TO.C,J3*%
X208198820Y-95375140D02*
X208198820Y-97026140D01*
X207446980Y-95375140D02*
X208198820Y-95375140D01*
X202199340Y-95375140D02*
X202951180Y-95375140D01*
X202199340Y-97026140D02*
X202199340Y-95375140D01*
X203700480Y-99627100D02*
X206697680Y-99627100D01*
D15*
X202839420Y-94727440D02*
G75*
G03*
X202839420Y-94727440I-139700J0D01*
G01*
D13*
%TO.C,R5*%
X206827064Y-83940000D02*
X203772936Y-83940000D01*
X206827064Y-86660000D02*
X203772936Y-86660000D01*
D14*
%TO.C,J6*%
X228160580Y-79611220D02*
X228160580Y-61612780D01*
X229260400Y-60114180D02*
X228160580Y-60114180D01*
X229260400Y-61612780D02*
X229260400Y-60114180D01*
X211259420Y-68613020D02*
X211259420Y-72610980D01*
X211259420Y-72610980D02*
X213758780Y-72610980D01*
X213758780Y-72610980D02*
X213758780Y-76111100D01*
X228160580Y-61612780D02*
X211259420Y-61612780D01*
X211259420Y-79611220D02*
X228160580Y-79611220D01*
X211259420Y-61612780D02*
X211259420Y-65112900D01*
X211259420Y-68613020D02*
X213758780Y-68613020D01*
X230258620Y-61612780D02*
X229260400Y-61612780D01*
X229260400Y-79611220D02*
X229260400Y-81109820D01*
X228160580Y-60114180D02*
X228160580Y-61612780D01*
X228259640Y-79611220D02*
X229260400Y-79611220D01*
X213758780Y-65112900D02*
X213758780Y-68613020D01*
X211259420Y-76111100D02*
X211259420Y-79611220D01*
X230258620Y-81109820D02*
X230258620Y-61612780D01*
X229260400Y-81109820D02*
X230258620Y-81109820D01*
X211259420Y-76111100D02*
X213758780Y-76111100D01*
X211259420Y-65112900D02*
X213758780Y-65112900D01*
%TO.C,REF\u002A\u002A*%
G36*
X182295807Y-76661782D02*
G01*
X182319161Y-76671988D01*
X182374902Y-76716134D01*
X182422569Y-76779967D01*
X182452048Y-76848087D01*
X182456846Y-76881670D01*
X182440760Y-76928556D01*
X182405475Y-76953365D01*
X182367644Y-76968387D01*
X182350321Y-76971155D01*
X182341886Y-76951066D01*
X182325230Y-76907351D01*
X182317923Y-76887598D01*
X182276948Y-76819271D01*
X182217622Y-76785191D01*
X182141552Y-76786239D01*
X182135918Y-76787581D01*
X182095305Y-76806836D01*
X182065448Y-76844375D01*
X182045055Y-76904809D01*
X182032836Y-76992751D01*
X182027500Y-77112813D01*
X182027000Y-77176698D01*
X182026752Y-77277403D01*
X182025126Y-77346054D01*
X182020801Y-77389673D01*
X182012454Y-77415282D01*
X181998765Y-77429903D01*
X181978411Y-77440558D01*
X181977234Y-77441095D01*
X181938038Y-77457667D01*
X181918619Y-77463769D01*
X181915635Y-77445319D01*
X181913081Y-77394323D01*
X181911140Y-77317308D01*
X181909997Y-77220805D01*
X181909769Y-77150184D01*
X181910932Y-77013525D01*
X181915479Y-76909851D01*
X181924999Y-76833108D01*
X181941081Y-76777246D01*
X181965313Y-76736212D01*
X181999286Y-76703954D01*
X182032833Y-76681440D01*
X182113499Y-76651476D01*
X182207381Y-76644718D01*
X182295807Y-76661782D01*
G37*
D16*
X182295807Y-76661782D02*
X182319161Y-76671988D01*
X182374902Y-76716134D01*
X182422569Y-76779967D01*
X182452048Y-76848087D01*
X182456846Y-76881670D01*
X182440760Y-76928556D01*
X182405475Y-76953365D01*
X182367644Y-76968387D01*
X182350321Y-76971155D01*
X182341886Y-76951066D01*
X182325230Y-76907351D01*
X182317923Y-76887598D01*
X182276948Y-76819271D01*
X182217622Y-76785191D01*
X182141552Y-76786239D01*
X182135918Y-76787581D01*
X182095305Y-76806836D01*
X182065448Y-76844375D01*
X182045055Y-76904809D01*
X182032836Y-76992751D01*
X182027500Y-77112813D01*
X182027000Y-77176698D01*
X182026752Y-77277403D01*
X182025126Y-77346054D01*
X182020801Y-77389673D01*
X182012454Y-77415282D01*
X181998765Y-77429903D01*
X181978411Y-77440558D01*
X181977234Y-77441095D01*
X181938038Y-77457667D01*
X181918619Y-77463769D01*
X181915635Y-77445319D01*
X181913081Y-77394323D01*
X181911140Y-77317308D01*
X181909997Y-77220805D01*
X181909769Y-77150184D01*
X181910932Y-77013525D01*
X181915479Y-76909851D01*
X181924999Y-76833108D01*
X181941081Y-76777246D01*
X181965313Y-76736212D01*
X181999286Y-76703954D01*
X182032833Y-76681440D01*
X182113499Y-76651476D01*
X182207381Y-76644718D01*
X182295807Y-76661782D01*
G36*
X176996664Y-76620089D02*
G01*
X177059367Y-76656358D01*
X177102961Y-76692358D01*
X177134845Y-76730075D01*
X177156810Y-76776199D01*
X177170649Y-76837421D01*
X177178153Y-76920431D01*
X177181117Y-77031919D01*
X177181461Y-77112062D01*
X177181461Y-77407065D01*
X177015385Y-77481515D01*
X177005615Y-77158402D01*
X177001579Y-77037729D01*
X176997344Y-76950141D01*
X176992097Y-76889650D01*
X176985025Y-76850268D01*
X176975311Y-76826007D01*
X176962144Y-76810880D01*
X176957919Y-76807606D01*
X176893909Y-76782034D01*
X176829208Y-76792153D01*
X176790692Y-76819000D01*
X176775025Y-76838024D01*
X176764180Y-76862988D01*
X176757288Y-76900834D01*
X176753479Y-76958502D01*
X176751883Y-77042935D01*
X176751615Y-77130928D01*
X176751563Y-77241323D01*
X176749672Y-77319463D01*
X176743345Y-77372165D01*
X176729983Y-77406242D01*
X176706985Y-77428511D01*
X176671754Y-77445787D01*
X176624697Y-77463738D01*
X176573303Y-77483278D01*
X176579421Y-77136485D01*
X176581884Y-77011468D01*
X176584767Y-76919082D01*
X176588898Y-76852881D01*
X176595107Y-76806420D01*
X176604226Y-76773256D01*
X176617083Y-76746944D01*
X176632584Y-76723729D01*
X176707371Y-76649569D01*
X176798628Y-76606684D01*
X176897883Y-76596412D01*
X176996664Y-76620089D01*
G37*
X176996664Y-76620089D02*
X177059367Y-76656358D01*
X177102961Y-76692358D01*
X177134845Y-76730075D01*
X177156810Y-76776199D01*
X177170649Y-76837421D01*
X177178153Y-76920431D01*
X177181117Y-77031919D01*
X177181461Y-77112062D01*
X177181461Y-77407065D01*
X177015385Y-77481515D01*
X177005615Y-77158402D01*
X177001579Y-77037729D01*
X176997344Y-76950141D01*
X176992097Y-76889650D01*
X176985025Y-76850268D01*
X176975311Y-76826007D01*
X176962144Y-76810880D01*
X176957919Y-76807606D01*
X176893909Y-76782034D01*
X176829208Y-76792153D01*
X176790692Y-76819000D01*
X176775025Y-76838024D01*
X176764180Y-76862988D01*
X176757288Y-76900834D01*
X176753479Y-76958502D01*
X176751883Y-77042935D01*
X176751615Y-77130928D01*
X176751563Y-77241323D01*
X176749672Y-77319463D01*
X176743345Y-77372165D01*
X176729983Y-77406242D01*
X176706985Y-77428511D01*
X176671754Y-77445787D01*
X176624697Y-77463738D01*
X176573303Y-77483278D01*
X176579421Y-77136485D01*
X176581884Y-77011468D01*
X176584767Y-76919082D01*
X176588898Y-76852881D01*
X176595107Y-76806420D01*
X176604226Y-76773256D01*
X176617083Y-76746944D01*
X176632584Y-76723729D01*
X176707371Y-76649569D01*
X176798628Y-76606684D01*
X176897883Y-76596412D01*
X176996664Y-76620089D01*
G36*
X179781362Y-76838577D02*
G01*
X179811528Y-76769269D01*
X179858629Y-76715211D01*
X179895312Y-76687505D01*
X179961990Y-76657572D01*
X180039272Y-76643678D01*
X180111110Y-76647397D01*
X180151308Y-76662400D01*
X180167082Y-76666670D01*
X180177550Y-76650750D01*
X180184856Y-76608089D01*
X180190385Y-76543106D01*
X180196437Y-76470732D01*
X180204844Y-76427187D01*
X180220141Y-76402287D01*
X180246864Y-76385845D01*
X180263654Y-76378564D01*
X180327154Y-76351963D01*
X180327081Y-76805289D01*
X180326833Y-76951320D01*
X180325872Y-77063655D01*
X180323794Y-77147678D01*
X180320193Y-77208769D01*
X180314665Y-77252309D01*
X180306804Y-77283679D01*
X180296207Y-77308262D01*
X180288182Y-77322294D01*
X180221728Y-77398388D01*
X180137470Y-77446084D01*
X180044249Y-77463199D01*
X179950900Y-77447546D01*
X179895312Y-77419418D01*
X179836957Y-77370760D01*
X179797186Y-77311333D01*
X179773190Y-77233507D01*
X179762161Y-77129652D01*
X179760599Y-77053462D01*
X179760809Y-77047986D01*
X179897308Y-77047986D01*
X179898141Y-77135355D01*
X179901961Y-77193192D01*
X179910746Y-77231029D01*
X179926474Y-77258398D01*
X179945266Y-77279042D01*
X180008375Y-77318890D01*
X180076137Y-77322295D01*
X180140179Y-77289025D01*
X180145164Y-77284517D01*
X180166439Y-77261067D01*
X180179779Y-77233166D01*
X180187001Y-77191641D01*
X180189923Y-77127316D01*
X180190385Y-77056200D01*
X180189383Y-76966858D01*
X180185238Y-76907258D01*
X180176236Y-76868089D01*
X180160667Y-76840040D01*
X180147902Y-76825144D01*
X180088600Y-76787575D01*
X180020301Y-76783057D01*
X179955110Y-76811753D01*
X179942528Y-76822406D01*
X179921111Y-76846063D01*
X179907744Y-76874251D01*
X179900566Y-76916245D01*
X179897719Y-76981319D01*
X179897308Y-77047986D01*
X179760809Y-77047986D01*
X179765322Y-76930765D01*
X179781362Y-76838577D01*
G37*
X179781362Y-76838577D02*
X179811528Y-76769269D01*
X179858629Y-76715211D01*
X179895312Y-76687505D01*
X179961990Y-76657572D01*
X180039272Y-76643678D01*
X180111110Y-76647397D01*
X180151308Y-76662400D01*
X180167082Y-76666670D01*
X180177550Y-76650750D01*
X180184856Y-76608089D01*
X180190385Y-76543106D01*
X180196437Y-76470732D01*
X180204844Y-76427187D01*
X180220141Y-76402287D01*
X180246864Y-76385845D01*
X180263654Y-76378564D01*
X180327154Y-76351963D01*
X180327081Y-76805289D01*
X180326833Y-76951320D01*
X180325872Y-77063655D01*
X180323794Y-77147678D01*
X180320193Y-77208769D01*
X180314665Y-77252309D01*
X180306804Y-77283679D01*
X180296207Y-77308262D01*
X180288182Y-77322294D01*
X180221728Y-77398388D01*
X180137470Y-77446084D01*
X180044249Y-77463199D01*
X179950900Y-77447546D01*
X179895312Y-77419418D01*
X179836957Y-77370760D01*
X179797186Y-77311333D01*
X179773190Y-77233507D01*
X179762161Y-77129652D01*
X179760599Y-77053462D01*
X179760809Y-77047986D01*
X179897308Y-77047986D01*
X179898141Y-77135355D01*
X179901961Y-77193192D01*
X179910746Y-77231029D01*
X179926474Y-77258398D01*
X179945266Y-77279042D01*
X180008375Y-77318890D01*
X180076137Y-77322295D01*
X180140179Y-77289025D01*
X180145164Y-77284517D01*
X180166439Y-77261067D01*
X180179779Y-77233166D01*
X180187001Y-77191641D01*
X180189923Y-77127316D01*
X180190385Y-77056200D01*
X180189383Y-76966858D01*
X180185238Y-76907258D01*
X180176236Y-76868089D01*
X180160667Y-76840040D01*
X180147902Y-76825144D01*
X180088600Y-76787575D01*
X180020301Y-76783057D01*
X179955110Y-76811753D01*
X179942528Y-76822406D01*
X179921111Y-76846063D01*
X179907744Y-76874251D01*
X179900566Y-76916245D01*
X179897719Y-76981319D01*
X179897308Y-77047986D01*
X179760809Y-77047986D01*
X179765322Y-76930765D01*
X179781362Y-76838577D01*
G36*
X182586032Y-76845710D02*
G01*
X182604460Y-76780167D01*
X182634360Y-76731912D01*
X182678080Y-76693767D01*
X182697141Y-76681440D01*
X182783726Y-76649336D01*
X182878522Y-76647316D01*
X182970224Y-76672838D01*
X183047528Y-76723361D01*
X183084814Y-76768590D01*
X183114353Y-76850663D01*
X183116699Y-76915607D01*
X183111385Y-77002445D01*
X182911115Y-77090103D01*
X182813739Y-77134887D01*
X182750113Y-77170913D01*
X182717029Y-77202117D01*
X182711280Y-77232436D01*
X182729658Y-77265805D01*
X182749923Y-77287923D01*
X182808889Y-77323393D01*
X182873024Y-77325879D01*
X182931926Y-77298235D01*
X182975197Y-77243320D01*
X182982936Y-77223928D01*
X183020006Y-77163364D01*
X183062654Y-77137552D01*
X183121154Y-77115471D01*
X183121154Y-77199184D01*
X183115982Y-77256150D01*
X183095723Y-77304189D01*
X183053262Y-77359346D01*
X183046951Y-77366514D01*
X182999720Y-77415585D01*
X182959121Y-77441920D01*
X182908328Y-77454035D01*
X182866220Y-77458003D01*
X182790902Y-77458991D01*
X182737286Y-77446466D01*
X182703838Y-77427869D01*
X182651268Y-77386975D01*
X182614879Y-77342748D01*
X182591850Y-77287126D01*
X182579359Y-77212047D01*
X182574587Y-77109449D01*
X182574206Y-77057376D01*
X182575501Y-76994948D01*
X182693471Y-76994948D01*
X182694839Y-77028438D01*
X182698249Y-77033923D01*
X182720753Y-77026472D01*
X182769182Y-77006753D01*
X182833908Y-76978718D01*
X182847443Y-76972692D01*
X182929244Y-76931096D01*
X182974312Y-76894538D01*
X182984217Y-76860296D01*
X182960526Y-76825648D01*
X182940960Y-76810339D01*
X182870360Y-76779721D01*
X182804280Y-76784780D01*
X182748959Y-76822151D01*
X182710636Y-76888473D01*
X182698349Y-76941116D01*
X182693471Y-76994948D01*
X182575501Y-76994948D01*
X182576730Y-76935720D01*
X182586032Y-76845710D01*
G37*
X182586032Y-76845710D02*
X182604460Y-76780167D01*
X182634360Y-76731912D01*
X182678080Y-76693767D01*
X182697141Y-76681440D01*
X182783726Y-76649336D01*
X182878522Y-76647316D01*
X182970224Y-76672838D01*
X183047528Y-76723361D01*
X183084814Y-76768590D01*
X183114353Y-76850663D01*
X183116699Y-76915607D01*
X183111385Y-77002445D01*
X182911115Y-77090103D01*
X182813739Y-77134887D01*
X182750113Y-77170913D01*
X182717029Y-77202117D01*
X182711280Y-77232436D01*
X182729658Y-77265805D01*
X182749923Y-77287923D01*
X182808889Y-77323393D01*
X182873024Y-77325879D01*
X182931926Y-77298235D01*
X182975197Y-77243320D01*
X182982936Y-77223928D01*
X183020006Y-77163364D01*
X183062654Y-77137552D01*
X183121154Y-77115471D01*
X183121154Y-77199184D01*
X183115982Y-77256150D01*
X183095723Y-77304189D01*
X183053262Y-77359346D01*
X183046951Y-77366514D01*
X182999720Y-77415585D01*
X182959121Y-77441920D01*
X182908328Y-77454035D01*
X182866220Y-77458003D01*
X182790902Y-77458991D01*
X182737286Y-77446466D01*
X182703838Y-77427869D01*
X182651268Y-77386975D01*
X182614879Y-77342748D01*
X182591850Y-77287126D01*
X182579359Y-77212047D01*
X182574587Y-77109449D01*
X182574206Y-77057376D01*
X182575501Y-76994948D01*
X182693471Y-76994948D01*
X182694839Y-77028438D01*
X182698249Y-77033923D01*
X182720753Y-77026472D01*
X182769182Y-77006753D01*
X182833908Y-76978718D01*
X182847443Y-76972692D01*
X182929244Y-76931096D01*
X182974312Y-76894538D01*
X182984217Y-76860296D01*
X182960526Y-76825648D01*
X182940960Y-76810339D01*
X182870360Y-76779721D01*
X182804280Y-76784780D01*
X182748959Y-76822151D01*
X182710636Y-76888473D01*
X182698349Y-76941116D01*
X182693471Y-76994948D01*
X182575501Y-76994948D01*
X182576730Y-76935720D01*
X182586032Y-76845710D01*
G36*
X175859778Y-76766055D02*
G01*
X175905421Y-76700215D01*
X175987802Y-76633681D01*
X176078546Y-76600676D01*
X176171185Y-76598573D01*
X176259254Y-76624745D01*
X176336286Y-76676567D01*
X176395816Y-76751412D01*
X176431378Y-76846654D01*
X176438571Y-76916756D01*
X176437754Y-76946009D01*
X176430914Y-76968407D01*
X176412112Y-76988474D01*
X176375408Y-77010733D01*
X176314862Y-77039709D01*
X176224534Y-77079927D01*
X176224077Y-77080129D01*
X176140933Y-77118210D01*
X176072753Y-77152025D01*
X176026505Y-77177933D01*
X176009158Y-77192295D01*
X176009154Y-77192411D01*
X176024443Y-77223685D01*
X176060196Y-77258157D01*
X176101242Y-77282990D01*
X176122037Y-77287923D01*
X176178770Y-77270862D01*
X176227627Y-77228133D01*
X176251465Y-77181155D01*
X176274397Y-77146522D01*
X176319318Y-77107081D01*
X176372123Y-77073009D01*
X176418710Y-77054480D01*
X176428452Y-77053462D01*
X176439418Y-77070215D01*
X176440079Y-77113039D01*
X176432020Y-77170781D01*
X176416827Y-77232289D01*
X176396086Y-77286409D01*
X176395038Y-77288510D01*
X176332621Y-77375660D01*
X176251726Y-77434939D01*
X176159856Y-77464034D01*
X176064513Y-77460634D01*
X175973198Y-77422428D01*
X175969138Y-77419741D01*
X175897306Y-77354642D01*
X175850073Y-77269705D01*
X175823934Y-77158021D01*
X175820426Y-77126643D01*
X175814213Y-76978536D01*
X175821661Y-76909468D01*
X176009154Y-76909468D01*
X176011590Y-76952552D01*
X176024914Y-76965126D01*
X176058132Y-76955719D01*
X176110494Y-76933483D01*
X176169024Y-76905610D01*
X176170479Y-76904872D01*
X176220089Y-76878777D01*
X176240000Y-76861363D01*
X176235090Y-76843107D01*
X176214416Y-76819120D01*
X176161819Y-76784406D01*
X176105177Y-76781856D01*
X176054369Y-76807119D01*
X176019276Y-76855847D01*
X176009154Y-76909468D01*
X175821661Y-76909468D01*
X175826992Y-76860036D01*
X175859778Y-76766055D01*
G37*
X175859778Y-76766055D02*
X175905421Y-76700215D01*
X175987802Y-76633681D01*
X176078546Y-76600676D01*
X176171185Y-76598573D01*
X176259254Y-76624745D01*
X176336286Y-76676567D01*
X176395816Y-76751412D01*
X176431378Y-76846654D01*
X176438571Y-76916756D01*
X176437754Y-76946009D01*
X176430914Y-76968407D01*
X176412112Y-76988474D01*
X176375408Y-77010733D01*
X176314862Y-77039709D01*
X176224534Y-77079927D01*
X176224077Y-77080129D01*
X176140933Y-77118210D01*
X176072753Y-77152025D01*
X176026505Y-77177933D01*
X176009158Y-77192295D01*
X176009154Y-77192411D01*
X176024443Y-77223685D01*
X176060196Y-77258157D01*
X176101242Y-77282990D01*
X176122037Y-77287923D01*
X176178770Y-77270862D01*
X176227627Y-77228133D01*
X176251465Y-77181155D01*
X176274397Y-77146522D01*
X176319318Y-77107081D01*
X176372123Y-77073009D01*
X176418710Y-77054480D01*
X176428452Y-77053462D01*
X176439418Y-77070215D01*
X176440079Y-77113039D01*
X176432020Y-77170781D01*
X176416827Y-77232289D01*
X176396086Y-77286409D01*
X176395038Y-77288510D01*
X176332621Y-77375660D01*
X176251726Y-77434939D01*
X176159856Y-77464034D01*
X176064513Y-77460634D01*
X175973198Y-77422428D01*
X175969138Y-77419741D01*
X175897306Y-77354642D01*
X175850073Y-77269705D01*
X175823934Y-77158021D01*
X175820426Y-77126643D01*
X175814213Y-76978536D01*
X175821661Y-76909468D01*
X176009154Y-76909468D01*
X176011590Y-76952552D01*
X176024914Y-76965126D01*
X176058132Y-76955719D01*
X176110494Y-76933483D01*
X176169024Y-76905610D01*
X176170479Y-76904872D01*
X176220089Y-76878777D01*
X176240000Y-76861363D01*
X176235090Y-76843107D01*
X176214416Y-76819120D01*
X176161819Y-76784406D01*
X176105177Y-76781856D01*
X176054369Y-76807119D01*
X176019276Y-76855847D01*
X176009154Y-76909468D01*
X175821661Y-76909468D01*
X175826992Y-76860036D01*
X175859778Y-76766055D01*
G36*
X177884846Y-76517120D02*
G01*
X177890572Y-76596980D01*
X177897149Y-76644039D01*
X177906262Y-76664566D01*
X177919598Y-76664829D01*
X177923923Y-76662378D01*
X177981444Y-76644636D01*
X178056268Y-76645672D01*
X178132339Y-76663910D01*
X178179918Y-76687505D01*
X178228702Y-76725198D01*
X178264364Y-76767855D01*
X178288845Y-76822057D01*
X178304087Y-76894384D01*
X178312030Y-76991419D01*
X178314616Y-77119742D01*
X178314662Y-77144358D01*
X178314692Y-77420870D01*
X178253161Y-77442320D01*
X178209459Y-77456912D01*
X178185482Y-77463706D01*
X178184777Y-77463769D01*
X178182415Y-77445345D01*
X178180406Y-77394526D01*
X178178901Y-77317993D01*
X178178053Y-77222430D01*
X178177923Y-77164329D01*
X178177651Y-77049771D01*
X178176252Y-76967667D01*
X178172849Y-76911393D01*
X178166567Y-76874326D01*
X178156529Y-76849844D01*
X178141861Y-76831325D01*
X178132702Y-76822406D01*
X178069789Y-76786466D01*
X178001136Y-76783775D01*
X177938848Y-76814170D01*
X177927329Y-76825144D01*
X177910433Y-76845779D01*
X177898714Y-76870256D01*
X177891233Y-76905647D01*
X177887054Y-76959026D01*
X177885237Y-77037466D01*
X177884846Y-77145617D01*
X177884846Y-77420870D01*
X177823315Y-77442320D01*
X177779613Y-77456912D01*
X177755636Y-77463706D01*
X177754930Y-77463769D01*
X177753126Y-77445069D01*
X177751500Y-77392322D01*
X177750117Y-77310557D01*
X177749042Y-77204805D01*
X177748340Y-77080094D01*
X177748077Y-76941455D01*
X177748077Y-76406806D01*
X177875077Y-76353236D01*
X177884846Y-76517120D01*
G37*
X177884846Y-76517120D02*
X177890572Y-76596980D01*
X177897149Y-76644039D01*
X177906262Y-76664566D01*
X177919598Y-76664829D01*
X177923923Y-76662378D01*
X177981444Y-76644636D01*
X178056268Y-76645672D01*
X178132339Y-76663910D01*
X178179918Y-76687505D01*
X178228702Y-76725198D01*
X178264364Y-76767855D01*
X178288845Y-76822057D01*
X178304087Y-76894384D01*
X178312030Y-76991419D01*
X178314616Y-77119742D01*
X178314662Y-77144358D01*
X178314692Y-77420870D01*
X178253161Y-77442320D01*
X178209459Y-77456912D01*
X178185482Y-77463706D01*
X178184777Y-77463769D01*
X178182415Y-77445345D01*
X178180406Y-77394526D01*
X178178901Y-77317993D01*
X178178053Y-77222430D01*
X178177923Y-77164329D01*
X178177651Y-77049771D01*
X178176252Y-76967667D01*
X178172849Y-76911393D01*
X178166567Y-76874326D01*
X178156529Y-76849844D01*
X178141861Y-76831325D01*
X178132702Y-76822406D01*
X178069789Y-76786466D01*
X178001136Y-76783775D01*
X177938848Y-76814170D01*
X177927329Y-76825144D01*
X177910433Y-76845779D01*
X177898714Y-76870256D01*
X177891233Y-76905647D01*
X177887054Y-76959026D01*
X177885237Y-77037466D01*
X177884846Y-77145617D01*
X177884846Y-77420870D01*
X177823315Y-77442320D01*
X177779613Y-77456912D01*
X177755636Y-77463706D01*
X177754930Y-77463769D01*
X177753126Y-77445069D01*
X177751500Y-77392322D01*
X177750117Y-77310557D01*
X177749042Y-77204805D01*
X177748340Y-77080094D01*
X177748077Y-76941455D01*
X177748077Y-76406806D01*
X177875077Y-76353236D01*
X177884846Y-76517120D01*
G36*
X178864878Y-70312776D02*
G01*
X178970612Y-70313355D01*
X179047132Y-70314922D01*
X179099372Y-70317972D01*
X179132263Y-70322996D01*
X179150737Y-70330489D01*
X179159727Y-70340944D01*
X179164163Y-70354853D01*
X179164594Y-70356654D01*
X179171333Y-70389145D01*
X179183808Y-70453252D01*
X179200719Y-70542151D01*
X179220771Y-70649019D01*
X179242664Y-70767033D01*
X179243429Y-70771178D01*
X179265359Y-70886831D01*
X179285877Y-70989014D01*
X179303659Y-71071598D01*
X179317381Y-71128456D01*
X179325718Y-71153458D01*
X179326116Y-71153901D01*
X179350677Y-71166110D01*
X179401315Y-71186456D01*
X179467095Y-71210545D01*
X179467461Y-71210674D01*
X179550317Y-71241818D01*
X179648000Y-71281491D01*
X179740077Y-71321381D01*
X179744434Y-71323353D01*
X179894407Y-71391420D01*
X180226498Y-71164639D01*
X180328374Y-71095504D01*
X180420657Y-71033697D01*
X180498003Y-70982733D01*
X180555064Y-70946127D01*
X180586495Y-70927394D01*
X180589479Y-70926004D01*
X180612321Y-70932190D01*
X180654982Y-70962035D01*
X180719128Y-71016947D01*
X180806421Y-71098334D01*
X180895535Y-71184922D01*
X180981441Y-71270247D01*
X181058327Y-71348108D01*
X181121564Y-71413697D01*
X181166523Y-71462205D01*
X181188576Y-71488825D01*
X181189396Y-71490195D01*
X181191834Y-71508463D01*
X181182650Y-71538295D01*
X181159574Y-71583721D01*
X181120337Y-71648770D01*
X181062670Y-71737470D01*
X180985795Y-71851657D01*
X180917570Y-71952162D01*
X180856582Y-72042303D01*
X180806356Y-72116849D01*
X180770416Y-72170565D01*
X180752287Y-72198218D01*
X180751146Y-72200095D01*
X180753359Y-72226590D01*
X180770138Y-72278086D01*
X180798142Y-72344851D01*
X180808122Y-72366172D01*
X180851672Y-72461159D01*
X180898134Y-72568937D01*
X180935877Y-72662192D01*
X180963073Y-72731406D01*
X180984675Y-72784006D01*
X180997158Y-72811497D01*
X180998709Y-72813616D01*
X181021668Y-72817124D01*
X181075786Y-72826738D01*
X181153868Y-72841089D01*
X181248719Y-72858807D01*
X181353143Y-72878525D01*
X181459944Y-72898874D01*
X181561926Y-72918486D01*
X181651894Y-72935991D01*
X181722653Y-72950022D01*
X181767006Y-72959209D01*
X181777885Y-72961807D01*
X181789122Y-72968218D01*
X181797605Y-72982697D01*
X181803714Y-73010133D01*
X181807832Y-73055411D01*
X181810341Y-73123420D01*
X181811621Y-73219047D01*
X181812054Y-73347180D01*
X181812077Y-73399701D01*
X181812077Y-73826845D01*
X181709500Y-73847091D01*
X181652431Y-73858070D01*
X181567269Y-73874095D01*
X181464372Y-73893233D01*
X181354096Y-73913551D01*
X181323615Y-73919132D01*
X181221855Y-73938917D01*
X181133205Y-73958373D01*
X181065108Y-73975697D01*
X181025004Y-73989088D01*
X181018323Y-73993079D01*
X181001919Y-74021342D01*
X180978399Y-74076109D01*
X180952316Y-74146588D01*
X180947142Y-74161769D01*
X180912956Y-74255896D01*
X180870523Y-74362101D01*
X180828997Y-74457473D01*
X180828792Y-74457916D01*
X180759640Y-74607525D01*
X181214512Y-75276617D01*
X180922500Y-75569116D01*
X180834180Y-75656170D01*
X180753625Y-75732909D01*
X180685360Y-75795237D01*
X180633908Y-75839056D01*
X180603794Y-75860270D01*
X180599474Y-75861616D01*
X180574111Y-75851016D01*
X180522358Y-75821547D01*
X180449868Y-75776705D01*
X180362294Y-75719984D01*
X180267612Y-75656462D01*
X180171516Y-75591668D01*
X180085837Y-75535287D01*
X180016016Y-75490788D01*
X179967494Y-75461639D01*
X179945782Y-75451308D01*
X179919293Y-75460050D01*
X179869062Y-75483087D01*
X179805451Y-75515631D01*
X179798708Y-75519249D01*
X179713046Y-75562210D01*
X179654306Y-75583279D01*
X179617772Y-75583503D01*
X179598731Y-75563928D01*
X179598620Y-75563654D01*
X179589102Y-75540472D01*
X179566403Y-75485441D01*
X179532282Y-75402822D01*
X179488500Y-75296872D01*
X179436816Y-75171852D01*
X179378992Y-75032020D01*
X179322991Y-74896637D01*
X179261447Y-74747234D01*
X179204939Y-74608832D01*
X179155161Y-74485673D01*
X179113806Y-74382002D01*
X179082568Y-74302059D01*
X179063141Y-74250088D01*
X179057154Y-74230692D01*
X179072168Y-74208443D01*
X179111439Y-74172982D01*
X179163807Y-74133887D01*
X179312941Y-74010245D01*
X179429511Y-73868522D01*
X179512118Y-73711704D01*
X179559366Y-73542775D01*
X179569857Y-73364722D01*
X179562231Y-73282539D01*
X179520682Y-73112031D01*
X179449123Y-72961459D01*
X179351995Y-72832309D01*
X179233734Y-72726064D01*
X179098780Y-72644210D01*
X178951571Y-72588232D01*
X178796544Y-72559615D01*
X178638139Y-72559844D01*
X178480794Y-72590405D01*
X178328946Y-72652782D01*
X178187035Y-72748460D01*
X178127803Y-72802572D01*
X178014203Y-72941520D01*
X177935106Y-73093361D01*
X177889986Y-73253667D01*
X177878316Y-73418012D01*
X177899569Y-73581971D01*
X177953220Y-73741118D01*
X178038740Y-73891025D01*
X178155605Y-74027267D01*
X178286193Y-74133887D01*
X178340588Y-74174642D01*
X178379014Y-74209718D01*
X178392846Y-74230726D01*
X178385603Y-74253635D01*
X178365005Y-74308365D01*
X178332746Y-74390672D01*
X178290521Y-74496315D01*
X178240023Y-74621050D01*
X178182948Y-74760636D01*
X178126854Y-74896670D01*
X178064967Y-75046201D01*
X178007644Y-75184767D01*
X177956644Y-75308107D01*
X177913727Y-75411964D01*
X177880653Y-75492080D01*
X177859181Y-75544195D01*
X177851225Y-75563654D01*
X177832429Y-75583423D01*
X177796074Y-75583365D01*
X177737479Y-75562441D01*
X177651968Y-75519613D01*
X177651292Y-75519249D01*
X177586907Y-75486012D01*
X177534861Y-75461802D01*
X177505512Y-75451404D01*
X177504217Y-75451308D01*
X177482124Y-75461855D01*
X177433348Y-75491184D01*
X177363331Y-75535827D01*
X177277514Y-75592314D01*
X177182388Y-75656462D01*
X177085540Y-75721411D01*
X176998253Y-75777896D01*
X176926181Y-75822421D01*
X176874977Y-75851490D01*
X176850526Y-75861616D01*
X176828010Y-75848307D01*
X176782742Y-75811112D01*
X176719244Y-75754128D01*
X176642039Y-75681449D01*
X176555651Y-75597171D01*
X176527399Y-75569016D01*
X176235287Y-75276416D01*
X176457631Y-74950104D01*
X176525202Y-74849897D01*
X176584507Y-74759963D01*
X176632217Y-74685510D01*
X176665007Y-74631751D01*
X176679548Y-74603894D01*
X176679974Y-74601912D01*
X176672308Y-74575655D01*
X176651689Y-74522837D01*
X176621685Y-74452310D01*
X176600625Y-74405093D01*
X176561248Y-74314694D01*
X176524165Y-74223366D01*
X176495415Y-74146200D01*
X176487605Y-74122692D01*
X176465417Y-74059916D01*
X176443727Y-74011411D01*
X176431813Y-73993079D01*
X176405523Y-73981859D01*
X176348142Y-73965954D01*
X176267118Y-73947167D01*
X176169895Y-73927299D01*
X176126385Y-73919132D01*
X176015896Y-73898829D01*
X175909916Y-73879170D01*
X175818801Y-73862088D01*
X175752908Y-73849518D01*
X175740500Y-73847091D01*
X175637923Y-73826845D01*
X175637923Y-73399701D01*
X175638153Y-73259246D01*
X175639099Y-73152979D01*
X175641141Y-73076013D01*
X175644662Y-73023460D01*
X175650043Y-72990433D01*
X175657666Y-72972045D01*
X175667912Y-72963408D01*
X175672115Y-72961807D01*
X175697470Y-72956127D01*
X175753484Y-72944795D01*
X175832964Y-72929179D01*
X175928712Y-72910647D01*
X176033533Y-72890569D01*
X176140232Y-72870312D01*
X176241613Y-72851246D01*
X176330479Y-72834739D01*
X176399637Y-72822159D01*
X176441889Y-72814875D01*
X176451290Y-72813616D01*
X176459807Y-72796763D01*
X176478660Y-72751870D01*
X176504324Y-72687430D01*
X176514123Y-72662192D01*
X176553648Y-72564686D01*
X176600192Y-72456959D01*
X176641877Y-72366172D01*
X176672550Y-72296753D01*
X176692956Y-72239710D01*
X176699768Y-72204777D01*
X176698682Y-72200095D01*
X176684285Y-72177991D01*
X176651412Y-72128831D01*
X176603590Y-72057848D01*
X176544348Y-71970278D01*
X176477215Y-71871357D01*
X176463941Y-71851830D01*
X176386046Y-71736140D01*
X176328787Y-71648044D01*
X176289881Y-71583486D01*
X176267044Y-71538411D01*
X176257994Y-71508763D01*
X176260448Y-71490485D01*
X176260511Y-71490369D01*
X176279827Y-71466361D01*
X176322551Y-71419947D01*
X176384051Y-71355937D01*
X176459698Y-71279145D01*
X176544861Y-71194382D01*
X176554465Y-71184922D01*
X176661790Y-71080989D01*
X176744615Y-71004675D01*
X176804605Y-70954571D01*
X176843423Y-70929270D01*
X176860520Y-70926004D01*
X176885473Y-70940250D01*
X176937255Y-70973156D01*
X177010520Y-71021208D01*
X177099920Y-71080890D01*
X177200111Y-71148688D01*
X177223501Y-71164639D01*
X177555593Y-71391420D01*
X177705565Y-71323353D01*
X177796770Y-71283685D01*
X177894669Y-71243791D01*
X177978831Y-71211983D01*
X177982538Y-71210674D01*
X178048369Y-71186576D01*
X178099116Y-71166200D01*
X178123842Y-71153936D01*
X178123884Y-71153901D01*
X178131729Y-71131734D01*
X178145066Y-71077217D01*
X178162570Y-70996480D01*
X178182917Y-70895650D01*
X178204782Y-70780856D01*
X178206571Y-70771178D01*
X178228504Y-70652904D01*
X178248640Y-70545542D01*
X178265680Y-70455917D01*
X178278328Y-70390851D01*
X178285284Y-70357168D01*
X178285406Y-70356654D01*
X178289639Y-70342325D01*
X178297871Y-70331507D01*
X178315033Y-70323706D01*
X178346058Y-70318429D01*
X178395878Y-70315182D01*
X178469424Y-70313472D01*
X178571629Y-70312807D01*
X178707425Y-70312693D01*
X178725000Y-70312692D01*
X178864878Y-70312776D01*
G37*
X178864878Y-70312776D02*
X178970612Y-70313355D01*
X179047132Y-70314922D01*
X179099372Y-70317972D01*
X179132263Y-70322996D01*
X179150737Y-70330489D01*
X179159727Y-70340944D01*
X179164163Y-70354853D01*
X179164594Y-70356654D01*
X179171333Y-70389145D01*
X179183808Y-70453252D01*
X179200719Y-70542151D01*
X179220771Y-70649019D01*
X179242664Y-70767033D01*
X179243429Y-70771178D01*
X179265359Y-70886831D01*
X179285877Y-70989014D01*
X179303659Y-71071598D01*
X179317381Y-71128456D01*
X179325718Y-71153458D01*
X179326116Y-71153901D01*
X179350677Y-71166110D01*
X179401315Y-71186456D01*
X179467095Y-71210545D01*
X179467461Y-71210674D01*
X179550317Y-71241818D01*
X179648000Y-71281491D01*
X179740077Y-71321381D01*
X179744434Y-71323353D01*
X179894407Y-71391420D01*
X180226498Y-71164639D01*
X180328374Y-71095504D01*
X180420657Y-71033697D01*
X180498003Y-70982733D01*
X180555064Y-70946127D01*
X180586495Y-70927394D01*
X180589479Y-70926004D01*
X180612321Y-70932190D01*
X180654982Y-70962035D01*
X180719128Y-71016947D01*
X180806421Y-71098334D01*
X180895535Y-71184922D01*
X180981441Y-71270247D01*
X181058327Y-71348108D01*
X181121564Y-71413697D01*
X181166523Y-71462205D01*
X181188576Y-71488825D01*
X181189396Y-71490195D01*
X181191834Y-71508463D01*
X181182650Y-71538295D01*
X181159574Y-71583721D01*
X181120337Y-71648770D01*
X181062670Y-71737470D01*
X180985795Y-71851657D01*
X180917570Y-71952162D01*
X180856582Y-72042303D01*
X180806356Y-72116849D01*
X180770416Y-72170565D01*
X180752287Y-72198218D01*
X180751146Y-72200095D01*
X180753359Y-72226590D01*
X180770138Y-72278086D01*
X180798142Y-72344851D01*
X180808122Y-72366172D01*
X180851672Y-72461159D01*
X180898134Y-72568937D01*
X180935877Y-72662192D01*
X180963073Y-72731406D01*
X180984675Y-72784006D01*
X180997158Y-72811497D01*
X180998709Y-72813616D01*
X181021668Y-72817124D01*
X181075786Y-72826738D01*
X181153868Y-72841089D01*
X181248719Y-72858807D01*
X181353143Y-72878525D01*
X181459944Y-72898874D01*
X181561926Y-72918486D01*
X181651894Y-72935991D01*
X181722653Y-72950022D01*
X181767006Y-72959209D01*
X181777885Y-72961807D01*
X181789122Y-72968218D01*
X181797605Y-72982697D01*
X181803714Y-73010133D01*
X181807832Y-73055411D01*
X181810341Y-73123420D01*
X181811621Y-73219047D01*
X181812054Y-73347180D01*
X181812077Y-73399701D01*
X181812077Y-73826845D01*
X181709500Y-73847091D01*
X181652431Y-73858070D01*
X181567269Y-73874095D01*
X181464372Y-73893233D01*
X181354096Y-73913551D01*
X181323615Y-73919132D01*
X181221855Y-73938917D01*
X181133205Y-73958373D01*
X181065108Y-73975697D01*
X181025004Y-73989088D01*
X181018323Y-73993079D01*
X181001919Y-74021342D01*
X180978399Y-74076109D01*
X180952316Y-74146588D01*
X180947142Y-74161769D01*
X180912956Y-74255896D01*
X180870523Y-74362101D01*
X180828997Y-74457473D01*
X180828792Y-74457916D01*
X180759640Y-74607525D01*
X181214512Y-75276617D01*
X180922500Y-75569116D01*
X180834180Y-75656170D01*
X180753625Y-75732909D01*
X180685360Y-75795237D01*
X180633908Y-75839056D01*
X180603794Y-75860270D01*
X180599474Y-75861616D01*
X180574111Y-75851016D01*
X180522358Y-75821547D01*
X180449868Y-75776705D01*
X180362294Y-75719984D01*
X180267612Y-75656462D01*
X180171516Y-75591668D01*
X180085837Y-75535287D01*
X180016016Y-75490788D01*
X179967494Y-75461639D01*
X179945782Y-75451308D01*
X179919293Y-75460050D01*
X179869062Y-75483087D01*
X179805451Y-75515631D01*
X179798708Y-75519249D01*
X179713046Y-75562210D01*
X179654306Y-75583279D01*
X179617772Y-75583503D01*
X179598731Y-75563928D01*
X179598620Y-75563654D01*
X179589102Y-75540472D01*
X179566403Y-75485441D01*
X179532282Y-75402822D01*
X179488500Y-75296872D01*
X179436816Y-75171852D01*
X179378992Y-75032020D01*
X179322991Y-74896637D01*
X179261447Y-74747234D01*
X179204939Y-74608832D01*
X179155161Y-74485673D01*
X179113806Y-74382002D01*
X179082568Y-74302059D01*
X179063141Y-74250088D01*
X179057154Y-74230692D01*
X179072168Y-74208443D01*
X179111439Y-74172982D01*
X179163807Y-74133887D01*
X179312941Y-74010245D01*
X179429511Y-73868522D01*
X179512118Y-73711704D01*
X179559366Y-73542775D01*
X179569857Y-73364722D01*
X179562231Y-73282539D01*
X179520682Y-73112031D01*
X179449123Y-72961459D01*
X179351995Y-72832309D01*
X179233734Y-72726064D01*
X179098780Y-72644210D01*
X178951571Y-72588232D01*
X178796544Y-72559615D01*
X178638139Y-72559844D01*
X178480794Y-72590405D01*
X178328946Y-72652782D01*
X178187035Y-72748460D01*
X178127803Y-72802572D01*
X178014203Y-72941520D01*
X177935106Y-73093361D01*
X177889986Y-73253667D01*
X177878316Y-73418012D01*
X177899569Y-73581971D01*
X177953220Y-73741118D01*
X178038740Y-73891025D01*
X178155605Y-74027267D01*
X178286193Y-74133887D01*
X178340588Y-74174642D01*
X178379014Y-74209718D01*
X178392846Y-74230726D01*
X178385603Y-74253635D01*
X178365005Y-74308365D01*
X178332746Y-74390672D01*
X178290521Y-74496315D01*
X178240023Y-74621050D01*
X178182948Y-74760636D01*
X178126854Y-74896670D01*
X178064967Y-75046201D01*
X178007644Y-75184767D01*
X177956644Y-75308107D01*
X177913727Y-75411964D01*
X177880653Y-75492080D01*
X177859181Y-75544195D01*
X177851225Y-75563654D01*
X177832429Y-75583423D01*
X177796074Y-75583365D01*
X177737479Y-75562441D01*
X177651968Y-75519613D01*
X177651292Y-75519249D01*
X177586907Y-75486012D01*
X177534861Y-75461802D01*
X177505512Y-75451404D01*
X177504217Y-75451308D01*
X177482124Y-75461855D01*
X177433348Y-75491184D01*
X177363331Y-75535827D01*
X177277514Y-75592314D01*
X177182388Y-75656462D01*
X177085540Y-75721411D01*
X176998253Y-75777896D01*
X176926181Y-75822421D01*
X176874977Y-75851490D01*
X176850526Y-75861616D01*
X176828010Y-75848307D01*
X176782742Y-75811112D01*
X176719244Y-75754128D01*
X176642039Y-75681449D01*
X176555651Y-75597171D01*
X176527399Y-75569016D01*
X176235287Y-75276416D01*
X176457631Y-74950104D01*
X176525202Y-74849897D01*
X176584507Y-74759963D01*
X176632217Y-74685510D01*
X176665007Y-74631751D01*
X176679548Y-74603894D01*
X176679974Y-74601912D01*
X176672308Y-74575655D01*
X176651689Y-74522837D01*
X176621685Y-74452310D01*
X176600625Y-74405093D01*
X176561248Y-74314694D01*
X176524165Y-74223366D01*
X176495415Y-74146200D01*
X176487605Y-74122692D01*
X176465417Y-74059916D01*
X176443727Y-74011411D01*
X176431813Y-73993079D01*
X176405523Y-73981859D01*
X176348142Y-73965954D01*
X176267118Y-73947167D01*
X176169895Y-73927299D01*
X176126385Y-73919132D01*
X176015896Y-73898829D01*
X175909916Y-73879170D01*
X175818801Y-73862088D01*
X175752908Y-73849518D01*
X175740500Y-73847091D01*
X175637923Y-73826845D01*
X175637923Y-73399701D01*
X175638153Y-73259246D01*
X175639099Y-73152979D01*
X175641141Y-73076013D01*
X175644662Y-73023460D01*
X175650043Y-72990433D01*
X175657666Y-72972045D01*
X175667912Y-72963408D01*
X175672115Y-72961807D01*
X175697470Y-72956127D01*
X175753484Y-72944795D01*
X175832964Y-72929179D01*
X175928712Y-72910647D01*
X176033533Y-72890569D01*
X176140232Y-72870312D01*
X176241613Y-72851246D01*
X176330479Y-72834739D01*
X176399637Y-72822159D01*
X176441889Y-72814875D01*
X176451290Y-72813616D01*
X176459807Y-72796763D01*
X176478660Y-72751870D01*
X176504324Y-72687430D01*
X176514123Y-72662192D01*
X176553648Y-72564686D01*
X176600192Y-72456959D01*
X176641877Y-72366172D01*
X176672550Y-72296753D01*
X176692956Y-72239710D01*
X176699768Y-72204777D01*
X176698682Y-72200095D01*
X176684285Y-72177991D01*
X176651412Y-72128831D01*
X176603590Y-72057848D01*
X176544348Y-71970278D01*
X176477215Y-71871357D01*
X176463941Y-71851830D01*
X176386046Y-71736140D01*
X176328787Y-71648044D01*
X176289881Y-71583486D01*
X176267044Y-71538411D01*
X176257994Y-71508763D01*
X176260448Y-71490485D01*
X176260511Y-71490369D01*
X176279827Y-71466361D01*
X176322551Y-71419947D01*
X176384051Y-71355937D01*
X176459698Y-71279145D01*
X176544861Y-71194382D01*
X176554465Y-71184922D01*
X176661790Y-71080989D01*
X176744615Y-71004675D01*
X176804605Y-70954571D01*
X176843423Y-70929270D01*
X176860520Y-70926004D01*
X176885473Y-70940250D01*
X176937255Y-70973156D01*
X177010520Y-71021208D01*
X177099920Y-71080890D01*
X177200111Y-71148688D01*
X177223501Y-71164639D01*
X177555593Y-71391420D01*
X177705565Y-71323353D01*
X177796770Y-71283685D01*
X177894669Y-71243791D01*
X177978831Y-71211983D01*
X177982538Y-71210674D01*
X178048369Y-71186576D01*
X178099116Y-71166200D01*
X178123842Y-71153936D01*
X178123884Y-71153901D01*
X178131729Y-71131734D01*
X178145066Y-71077217D01*
X178162570Y-70996480D01*
X178182917Y-70895650D01*
X178204782Y-70780856D01*
X178206571Y-70771178D01*
X178228504Y-70652904D01*
X178248640Y-70545542D01*
X178265680Y-70455917D01*
X178278328Y-70390851D01*
X178285284Y-70357168D01*
X178285406Y-70356654D01*
X178289639Y-70342325D01*
X178297871Y-70331507D01*
X178315033Y-70323706D01*
X178346058Y-70318429D01*
X178395878Y-70315182D01*
X178469424Y-70313472D01*
X178571629Y-70312807D01*
X178707425Y-70312693D01*
X178725000Y-70312692D01*
X178864878Y-70312776D01*
G36*
X178778501Y-76651303D02*
G01*
X178855060Y-76679733D01*
X178855936Y-76680279D01*
X178903285Y-76715127D01*
X178938241Y-76755852D01*
X178962825Y-76808925D01*
X178979062Y-76880814D01*
X178988975Y-76977992D01*
X178994586Y-77106928D01*
X178995077Y-77125298D01*
X179002141Y-77402287D01*
X178942695Y-77433028D01*
X178899681Y-77453802D01*
X178873710Y-77463646D01*
X178872509Y-77463769D01*
X178868014Y-77445606D01*
X178864444Y-77396612D01*
X178862248Y-77325031D01*
X178861769Y-77267068D01*
X178861758Y-77173170D01*
X178857466Y-77114203D01*
X178842503Y-77086079D01*
X178810482Y-77084706D01*
X178755014Y-77105998D01*
X178671269Y-77145136D01*
X178609689Y-77177643D01*
X178578017Y-77205845D01*
X178568706Y-77236582D01*
X178568692Y-77238104D01*
X178584057Y-77291054D01*
X178629547Y-77319660D01*
X178699166Y-77323803D01*
X178749313Y-77323084D01*
X178775754Y-77337527D01*
X178792243Y-77372218D01*
X178801733Y-77416416D01*
X178788057Y-77441493D01*
X178782907Y-77445082D01*
X178734425Y-77459496D01*
X178666531Y-77461537D01*
X178596612Y-77451983D01*
X178547068Y-77434522D01*
X178478570Y-77376364D01*
X178439634Y-77295408D01*
X178431923Y-77232160D01*
X178437807Y-77175111D01*
X178459101Y-77128542D01*
X178501265Y-77087181D01*
X178569759Y-77045755D01*
X178670044Y-76998993D01*
X178676154Y-76996350D01*
X178766490Y-76954617D01*
X178822235Y-76920391D01*
X178846129Y-76889635D01*
X178840913Y-76858311D01*
X178809328Y-76822383D01*
X178799883Y-76814116D01*
X178736617Y-76782058D01*
X178671064Y-76783407D01*
X178613972Y-76814838D01*
X178576093Y-76873024D01*
X178572574Y-76884446D01*
X178538300Y-76939837D01*
X178494809Y-76966518D01*
X178431923Y-76992960D01*
X178431923Y-76924548D01*
X178451052Y-76825110D01*
X178507831Y-76733902D01*
X178537378Y-76703389D01*
X178604542Y-76664228D01*
X178689956Y-76646500D01*
X178778501Y-76651303D01*
G37*
X178778501Y-76651303D02*
X178855060Y-76679733D01*
X178855936Y-76680279D01*
X178903285Y-76715127D01*
X178938241Y-76755852D01*
X178962825Y-76808925D01*
X178979062Y-76880814D01*
X178988975Y-76977992D01*
X178994586Y-77106928D01*
X178995077Y-77125298D01*
X179002141Y-77402287D01*
X178942695Y-77433028D01*
X178899681Y-77453802D01*
X178873710Y-77463646D01*
X178872509Y-77463769D01*
X178868014Y-77445606D01*
X178864444Y-77396612D01*
X178862248Y-77325031D01*
X178861769Y-77267068D01*
X178861758Y-77173170D01*
X178857466Y-77114203D01*
X178842503Y-77086079D01*
X178810482Y-77084706D01*
X178755014Y-77105998D01*
X178671269Y-77145136D01*
X178609689Y-77177643D01*
X178578017Y-77205845D01*
X178568706Y-77236582D01*
X178568692Y-77238104D01*
X178584057Y-77291054D01*
X178629547Y-77319660D01*
X178699166Y-77323803D01*
X178749313Y-77323084D01*
X178775754Y-77337527D01*
X178792243Y-77372218D01*
X178801733Y-77416416D01*
X178788057Y-77441493D01*
X178782907Y-77445082D01*
X178734425Y-77459496D01*
X178666531Y-77461537D01*
X178596612Y-77451983D01*
X178547068Y-77434522D01*
X178478570Y-77376364D01*
X178439634Y-77295408D01*
X178431923Y-77232160D01*
X178437807Y-77175111D01*
X178459101Y-77128542D01*
X178501265Y-77087181D01*
X178569759Y-77045755D01*
X178670044Y-76998993D01*
X178676154Y-76996350D01*
X178766490Y-76954617D01*
X178822235Y-76920391D01*
X178846129Y-76889635D01*
X178840913Y-76858311D01*
X178809328Y-76822383D01*
X178799883Y-76814116D01*
X178736617Y-76782058D01*
X178671064Y-76783407D01*
X178613972Y-76814838D01*
X178576093Y-76873024D01*
X178572574Y-76884446D01*
X178538300Y-76939837D01*
X178494809Y-76966518D01*
X178431923Y-76992960D01*
X178431923Y-76924548D01*
X178451052Y-76825110D01*
X178507831Y-76733902D01*
X178537378Y-76703389D01*
X178604542Y-76664228D01*
X178689956Y-76646500D01*
X178778501Y-76651303D01*
G36*
X179438362Y-76649670D02*
G01*
X179527117Y-76682421D01*
X179599022Y-76740350D01*
X179627144Y-76781128D01*
X179657802Y-76855954D01*
X179657165Y-76910058D01*
X179624987Y-76946446D01*
X179613081Y-76952633D01*
X179561675Y-76971925D01*
X179535422Y-76966982D01*
X179526530Y-76934587D01*
X179526077Y-76916692D01*
X179509797Y-76850859D01*
X179467365Y-76804807D01*
X179408388Y-76782564D01*
X179342475Y-76788161D01*
X179288895Y-76817229D01*
X179270798Y-76833810D01*
X179257971Y-76853925D01*
X179249306Y-76884332D01*
X179243696Y-76931788D01*
X179240035Y-77003050D01*
X179237215Y-77104875D01*
X179236484Y-77137115D01*
X179233820Y-77247410D01*
X179230792Y-77325036D01*
X179226250Y-77376396D01*
X179219046Y-77407890D01*
X179208033Y-77425920D01*
X179192060Y-77436888D01*
X179181834Y-77441733D01*
X179138406Y-77458301D01*
X179112842Y-77463769D01*
X179104395Y-77445507D01*
X179099239Y-77390296D01*
X179097346Y-77297499D01*
X179098689Y-77166478D01*
X179099107Y-77146269D01*
X179102058Y-77026733D01*
X179105548Y-76939449D01*
X179110514Y-76877591D01*
X179117893Y-76834336D01*
X179128624Y-76802860D01*
X179143645Y-76776339D01*
X179151502Y-76764975D01*
X179196553Y-76714692D01*
X179246940Y-76675581D01*
X179253108Y-76672167D01*
X179343458Y-76645212D01*
X179438362Y-76649670D01*
G37*
X179438362Y-76649670D02*
X179527117Y-76682421D01*
X179599022Y-76740350D01*
X179627144Y-76781128D01*
X179657802Y-76855954D01*
X179657165Y-76910058D01*
X179624987Y-76946446D01*
X179613081Y-76952633D01*
X179561675Y-76971925D01*
X179535422Y-76966982D01*
X179526530Y-76934587D01*
X179526077Y-76916692D01*
X179509797Y-76850859D01*
X179467365Y-76804807D01*
X179408388Y-76782564D01*
X179342475Y-76788161D01*
X179288895Y-76817229D01*
X179270798Y-76833810D01*
X179257971Y-76853925D01*
X179249306Y-76884332D01*
X179243696Y-76931788D01*
X179240035Y-77003050D01*
X179237215Y-77104875D01*
X179236484Y-77137115D01*
X179233820Y-77247410D01*
X179230792Y-77325036D01*
X179226250Y-77376396D01*
X179219046Y-77407890D01*
X179208033Y-77425920D01*
X179192060Y-77436888D01*
X179181834Y-77441733D01*
X179138406Y-77458301D01*
X179112842Y-77463769D01*
X179104395Y-77445507D01*
X179099239Y-77390296D01*
X179097346Y-77297499D01*
X179098689Y-77166478D01*
X179099107Y-77146269D01*
X179102058Y-77026733D01*
X179105548Y-76939449D01*
X179110514Y-76877591D01*
X179117893Y-76834336D01*
X179128624Y-76802860D01*
X179143645Y-76776339D01*
X179151502Y-76764975D01*
X179196553Y-76714692D01*
X179246940Y-76675581D01*
X179253108Y-76672167D01*
X179343458Y-76645212D01*
X179438362Y-76649670D01*
G36*
X181612333Y-76658528D02*
G01*
X181668590Y-76684117D01*
X181712747Y-76715124D01*
X181745101Y-76749795D01*
X181767438Y-76794520D01*
X181781546Y-76855692D01*
X181789211Y-76939701D01*
X181792220Y-77052940D01*
X181792538Y-77127509D01*
X181792538Y-77418420D01*
X181742773Y-77441095D01*
X181703576Y-77457667D01*
X181684157Y-77463769D01*
X181680442Y-77445610D01*
X181677495Y-77396648D01*
X181675691Y-77325153D01*
X181675308Y-77268385D01*
X181673661Y-77186371D01*
X181669222Y-77121309D01*
X181662740Y-77081467D01*
X181657590Y-77073000D01*
X181622977Y-77081646D01*
X181568640Y-77103823D01*
X181505722Y-77133886D01*
X181445368Y-77166192D01*
X181398721Y-77195098D01*
X181376926Y-77214961D01*
X181376839Y-77215175D01*
X181378714Y-77251935D01*
X181395525Y-77287026D01*
X181425039Y-77315528D01*
X181468116Y-77325061D01*
X181504932Y-77323950D01*
X181557074Y-77323133D01*
X181584444Y-77335349D01*
X181600882Y-77367624D01*
X181602955Y-77373710D01*
X181610081Y-77419739D01*
X181591024Y-77447687D01*
X181541353Y-77461007D01*
X181487697Y-77463470D01*
X181391142Y-77445210D01*
X181341159Y-77419131D01*
X181279429Y-77357868D01*
X181246690Y-77282670D01*
X181243753Y-77203211D01*
X181271424Y-77129167D01*
X181313047Y-77082769D01*
X181354604Y-77056793D01*
X181419922Y-77023907D01*
X181496038Y-76990557D01*
X181508726Y-76985461D01*
X181592333Y-76948565D01*
X181640530Y-76916046D01*
X181656030Y-76883718D01*
X181641550Y-76847394D01*
X181616692Y-76819000D01*
X181557939Y-76784039D01*
X181493293Y-76781417D01*
X181434008Y-76808358D01*
X181391339Y-76862088D01*
X181385739Y-76875950D01*
X181353133Y-76926936D01*
X181305530Y-76964787D01*
X181245461Y-76995850D01*
X181245461Y-76907768D01*
X181248997Y-76853951D01*
X181264156Y-76811534D01*
X181297768Y-76766279D01*
X181330035Y-76731420D01*
X181380209Y-76682062D01*
X181419193Y-76655547D01*
X181461064Y-76644911D01*
X181508460Y-76643154D01*
X181612333Y-76658528D01*
G37*
X181612333Y-76658528D02*
X181668590Y-76684117D01*
X181712747Y-76715124D01*
X181745101Y-76749795D01*
X181767438Y-76794520D01*
X181781546Y-76855692D01*
X181789211Y-76939701D01*
X181792220Y-77052940D01*
X181792538Y-77127509D01*
X181792538Y-77418420D01*
X181742773Y-77441095D01*
X181703576Y-77457667D01*
X181684157Y-77463769D01*
X181680442Y-77445610D01*
X181677495Y-77396648D01*
X181675691Y-77325153D01*
X181675308Y-77268385D01*
X181673661Y-77186371D01*
X181669222Y-77121309D01*
X181662740Y-77081467D01*
X181657590Y-77073000D01*
X181622977Y-77081646D01*
X181568640Y-77103823D01*
X181505722Y-77133886D01*
X181445368Y-77166192D01*
X181398721Y-77195098D01*
X181376926Y-77214961D01*
X181376839Y-77215175D01*
X181378714Y-77251935D01*
X181395525Y-77287026D01*
X181425039Y-77315528D01*
X181468116Y-77325061D01*
X181504932Y-77323950D01*
X181557074Y-77323133D01*
X181584444Y-77335349D01*
X181600882Y-77367624D01*
X181602955Y-77373710D01*
X181610081Y-77419739D01*
X181591024Y-77447687D01*
X181541353Y-77461007D01*
X181487697Y-77463470D01*
X181391142Y-77445210D01*
X181341159Y-77419131D01*
X181279429Y-77357868D01*
X181246690Y-77282670D01*
X181243753Y-77203211D01*
X181271424Y-77129167D01*
X181313047Y-77082769D01*
X181354604Y-77056793D01*
X181419922Y-77023907D01*
X181496038Y-76990557D01*
X181508726Y-76985461D01*
X181592333Y-76948565D01*
X181640530Y-76916046D01*
X181656030Y-76883718D01*
X181641550Y-76847394D01*
X181616692Y-76819000D01*
X181557939Y-76784039D01*
X181493293Y-76781417D01*
X181434008Y-76808358D01*
X181391339Y-76862088D01*
X181385739Y-76875950D01*
X181353133Y-76926936D01*
X181305530Y-76964787D01*
X181245461Y-76995850D01*
X181245461Y-76907768D01*
X181248997Y-76853951D01*
X181264156Y-76811534D01*
X181297768Y-76766279D01*
X181330035Y-76731420D01*
X181380209Y-76682062D01*
X181419193Y-76655547D01*
X181461064Y-76644911D01*
X181508460Y-76643154D01*
X181612333Y-76658528D01*
G36*
X181120929Y-76661662D02*
G01*
X181123911Y-76713068D01*
X181126247Y-76791192D01*
X181127749Y-76889857D01*
X181128231Y-76993343D01*
X181128231Y-77343533D01*
X181066401Y-77405363D01*
X181023793Y-77443462D01*
X180986390Y-77458895D01*
X180935270Y-77457918D01*
X180914978Y-77455433D01*
X180851554Y-77448200D01*
X180799095Y-77444055D01*
X180786308Y-77443672D01*
X180743199Y-77446176D01*
X180681544Y-77452462D01*
X180657638Y-77455433D01*
X180598922Y-77460028D01*
X180559464Y-77450046D01*
X180520338Y-77419228D01*
X180506215Y-77405363D01*
X180444385Y-77343533D01*
X180444385Y-76688503D01*
X180494150Y-76665829D01*
X180537002Y-76649034D01*
X180562073Y-76643154D01*
X180568501Y-76661736D01*
X180574509Y-76713655D01*
X180579697Y-76793172D01*
X180583664Y-76894546D01*
X180585577Y-76980192D01*
X180590923Y-77317231D01*
X180637560Y-77323825D01*
X180679976Y-77319214D01*
X180700760Y-77304287D01*
X180706570Y-77276377D01*
X180711530Y-77216925D01*
X180715246Y-77133466D01*
X180717324Y-77033532D01*
X180717624Y-76982104D01*
X180717923Y-76686054D01*
X180779454Y-76664604D01*
X180823004Y-76650020D01*
X180846694Y-76643219D01*
X180847377Y-76643154D01*
X180849754Y-76661642D01*
X180852366Y-76712906D01*
X180854995Y-76790649D01*
X180857421Y-76888574D01*
X180859115Y-76980192D01*
X180864461Y-77317231D01*
X180981692Y-77317231D01*
X180987072Y-77009746D01*
X180992451Y-76702261D01*
X181049601Y-76672707D01*
X181091797Y-76652413D01*
X181116770Y-76643204D01*
X181117491Y-76643154D01*
X181120929Y-76661662D01*
G37*
X181120929Y-76661662D02*
X181123911Y-76713068D01*
X181126247Y-76791192D01*
X181127749Y-76889857D01*
X181128231Y-76993343D01*
X181128231Y-77343533D01*
X181066401Y-77405363D01*
X181023793Y-77443462D01*
X180986390Y-77458895D01*
X180935270Y-77457918D01*
X180914978Y-77455433D01*
X180851554Y-77448200D01*
X180799095Y-77444055D01*
X180786308Y-77443672D01*
X180743199Y-77446176D01*
X180681544Y-77452462D01*
X180657638Y-77455433D01*
X180598922Y-77460028D01*
X180559464Y-77450046D01*
X180520338Y-77419228D01*
X180506215Y-77405363D01*
X180444385Y-77343533D01*
X180444385Y-76688503D01*
X180494150Y-76665829D01*
X180537002Y-76649034D01*
X180562073Y-76643154D01*
X180568501Y-76661736D01*
X180574509Y-76713655D01*
X180579697Y-76793172D01*
X180583664Y-76894546D01*
X180585577Y-76980192D01*
X180590923Y-77317231D01*
X180637560Y-77323825D01*
X180679976Y-77319214D01*
X180700760Y-77304287D01*
X180706570Y-77276377D01*
X180711530Y-77216925D01*
X180715246Y-77133466D01*
X180717324Y-77033532D01*
X180717624Y-76982104D01*
X180717923Y-76686054D01*
X180779454Y-76664604D01*
X180823004Y-76650020D01*
X180846694Y-76643219D01*
X180847377Y-76643154D01*
X180849754Y-76661642D01*
X180852366Y-76712906D01*
X180854995Y-76790649D01*
X180857421Y-76888574D01*
X180859115Y-76980192D01*
X180864461Y-77317231D01*
X180981692Y-77317231D01*
X180987072Y-77009746D01*
X180992451Y-76702261D01*
X181049601Y-76672707D01*
X181091797Y-76652413D01*
X181116770Y-76643204D01*
X181117491Y-76643154D01*
X181120929Y-76661662D01*
G36*
X174332629Y-76862906D02*
G01*
X174339322Y-76814163D01*
X174350960Y-76778288D01*
X174368853Y-76746548D01*
X174372808Y-76740648D01*
X174439267Y-76661104D01*
X174511685Y-76614929D01*
X174599849Y-76596599D01*
X174629787Y-76595703D01*
X174741886Y-76612256D01*
X174833464Y-76660409D01*
X174901049Y-76737905D01*
X174925057Y-76787727D01*
X174943738Y-76862533D01*
X174953301Y-76957052D01*
X174954208Y-77060210D01*
X174946921Y-77160935D01*
X174931903Y-77248153D01*
X174909615Y-77310791D01*
X174902765Y-77321579D01*
X174821632Y-77402105D01*
X174725266Y-77450336D01*
X174620701Y-77464450D01*
X174514968Y-77442629D01*
X174485543Y-77429547D01*
X174428241Y-77389231D01*
X174377950Y-77335775D01*
X174373197Y-77328995D01*
X174353878Y-77296321D01*
X174341108Y-77261394D01*
X174333564Y-77215414D01*
X174329924Y-77149584D01*
X174328865Y-77055105D01*
X174328846Y-77033923D01*
X174328894Y-77027182D01*
X174524231Y-77027182D01*
X174525368Y-77116349D01*
X174529841Y-77175520D01*
X174539246Y-77213741D01*
X174555176Y-77240053D01*
X174563308Y-77248846D01*
X174610058Y-77282261D01*
X174655447Y-77280737D01*
X174701340Y-77251752D01*
X174728712Y-77220809D01*
X174744923Y-77175643D01*
X174754026Y-77104420D01*
X174754651Y-77096114D01*
X174756204Y-76967037D01*
X174739965Y-76871172D01*
X174706152Y-76809107D01*
X174654984Y-76781432D01*
X174636720Y-76779923D01*
X174588760Y-76787513D01*
X174555953Y-76813808D01*
X174535895Y-76864095D01*
X174526178Y-76943664D01*
X174524231Y-77027182D01*
X174328894Y-77027182D01*
X174329574Y-76933249D01*
X174332629Y-76862906D01*
G37*
X174332629Y-76862906D02*
X174339322Y-76814163D01*
X174350960Y-76778288D01*
X174368853Y-76746548D01*
X174372808Y-76740648D01*
X174439267Y-76661104D01*
X174511685Y-76614929D01*
X174599849Y-76596599D01*
X174629787Y-76595703D01*
X174741886Y-76612256D01*
X174833464Y-76660409D01*
X174901049Y-76737905D01*
X174925057Y-76787727D01*
X174943738Y-76862533D01*
X174953301Y-76957052D01*
X174954208Y-77060210D01*
X174946921Y-77160935D01*
X174931903Y-77248153D01*
X174909615Y-77310791D01*
X174902765Y-77321579D01*
X174821632Y-77402105D01*
X174725266Y-77450336D01*
X174620701Y-77464450D01*
X174514968Y-77442629D01*
X174485543Y-77429547D01*
X174428241Y-77389231D01*
X174377950Y-77335775D01*
X174373197Y-77328995D01*
X174353878Y-77296321D01*
X174341108Y-77261394D01*
X174333564Y-77215414D01*
X174329924Y-77149584D01*
X174328865Y-77055105D01*
X174328846Y-77033923D01*
X174328894Y-77027182D01*
X174524231Y-77027182D01*
X174525368Y-77116349D01*
X174529841Y-77175520D01*
X174539246Y-77213741D01*
X174555176Y-77240053D01*
X174563308Y-77248846D01*
X174610058Y-77282261D01*
X174655447Y-77280737D01*
X174701340Y-77251752D01*
X174728712Y-77220809D01*
X174744923Y-77175643D01*
X174754026Y-77104420D01*
X174754651Y-77096114D01*
X174756204Y-76967037D01*
X174739965Y-76871172D01*
X174706152Y-76809107D01*
X174654984Y-76781432D01*
X174636720Y-76779923D01*
X174588760Y-76787513D01*
X174555953Y-76813808D01*
X174535895Y-76864095D01*
X174526178Y-76943664D01*
X174524231Y-77027182D01*
X174328894Y-77027182D01*
X174329574Y-76933249D01*
X174332629Y-76862906D01*
G36*
X175081873Y-76919679D02*
G01*
X175085606Y-76855905D01*
X175090907Y-76810582D01*
X175098258Y-76778555D01*
X175108143Y-76754668D01*
X175121046Y-76733764D01*
X175126579Y-76725898D01*
X175199969Y-76651595D01*
X175292760Y-76609467D01*
X175400096Y-76597722D01*
X175493886Y-76609505D01*
X175568539Y-76646727D01*
X175634431Y-76715261D01*
X175652577Y-76740648D01*
X175672345Y-76773866D01*
X175685172Y-76809945D01*
X175692510Y-76858098D01*
X175695813Y-76927536D01*
X175696538Y-77019206D01*
X175693263Y-77144830D01*
X175681877Y-77239154D01*
X175660041Y-77309523D01*
X175625419Y-77363286D01*
X175575670Y-77407788D01*
X175572014Y-77410423D01*
X175522985Y-77437377D01*
X175463945Y-77450712D01*
X175388859Y-77454000D01*
X175266795Y-77454000D01*
X175266744Y-77572497D01*
X175265608Y-77638492D01*
X175258686Y-77677202D01*
X175240598Y-77700419D01*
X175205962Y-77719933D01*
X175197645Y-77723920D01*
X175158720Y-77742603D01*
X175128583Y-77754403D01*
X175106174Y-77755422D01*
X175090433Y-77741761D01*
X175080302Y-77709522D01*
X175074723Y-77654804D01*
X175072635Y-77573711D01*
X175072981Y-77462344D01*
X175074700Y-77316802D01*
X175075237Y-77273269D01*
X175077172Y-77123205D01*
X175078904Y-77025042D01*
X175266692Y-77025042D01*
X175267748Y-77108364D01*
X175272438Y-77162880D01*
X175283051Y-77198837D01*
X175301872Y-77226482D01*
X175314650Y-77239965D01*
X175366890Y-77279417D01*
X175413142Y-77282628D01*
X175460867Y-77250049D01*
X175462077Y-77248846D01*
X175481494Y-77223668D01*
X175493307Y-77189447D01*
X175499265Y-77136748D01*
X175501120Y-77056131D01*
X175501154Y-77038271D01*
X175496670Y-76927175D01*
X175482074Y-76850161D01*
X175455650Y-76803147D01*
X175415683Y-76782050D01*
X175392584Y-76779923D01*
X175337762Y-76789900D01*
X175300158Y-76822752D01*
X175277523Y-76882857D01*
X175267606Y-76974598D01*
X175266692Y-77025042D01*
X175078904Y-77025042D01*
X175079222Y-77007060D01*
X175081873Y-76919679D01*
G37*
X175081873Y-76919679D02*
X175085606Y-76855905D01*
X175090907Y-76810582D01*
X175098258Y-76778555D01*
X175108143Y-76754668D01*
X175121046Y-76733764D01*
X175126579Y-76725898D01*
X175199969Y-76651595D01*
X175292760Y-76609467D01*
X175400096Y-76597722D01*
X175493886Y-76609505D01*
X175568539Y-76646727D01*
X175634431Y-76715261D01*
X175652577Y-76740648D01*
X175672345Y-76773866D01*
X175685172Y-76809945D01*
X175692510Y-76858098D01*
X175695813Y-76927536D01*
X175696538Y-77019206D01*
X175693263Y-77144830D01*
X175681877Y-77239154D01*
X175660041Y-77309523D01*
X175625419Y-77363286D01*
X175575670Y-77407788D01*
X175572014Y-77410423D01*
X175522985Y-77437377D01*
X175463945Y-77450712D01*
X175388859Y-77454000D01*
X175266795Y-77454000D01*
X175266744Y-77572497D01*
X175265608Y-77638492D01*
X175258686Y-77677202D01*
X175240598Y-77700419D01*
X175205962Y-77719933D01*
X175197645Y-77723920D01*
X175158720Y-77742603D01*
X175128583Y-77754403D01*
X175106174Y-77755422D01*
X175090433Y-77741761D01*
X175080302Y-77709522D01*
X175074723Y-77654804D01*
X175072635Y-77573711D01*
X175072981Y-77462344D01*
X175074700Y-77316802D01*
X175075237Y-77273269D01*
X175077172Y-77123205D01*
X175078904Y-77025042D01*
X175266692Y-77025042D01*
X175267748Y-77108364D01*
X175272438Y-77162880D01*
X175283051Y-77198837D01*
X175301872Y-77226482D01*
X175314650Y-77239965D01*
X175366890Y-77279417D01*
X175413142Y-77282628D01*
X175460867Y-77250049D01*
X175462077Y-77248846D01*
X175481494Y-77223668D01*
X175493307Y-77189447D01*
X175499265Y-77136748D01*
X175501120Y-77056131D01*
X175501154Y-77038271D01*
X175496670Y-76927175D01*
X175482074Y-76850161D01*
X175455650Y-76803147D01*
X175415683Y-76782050D01*
X175392584Y-76779923D01*
X175337762Y-76789900D01*
X175300158Y-76822752D01*
X175277523Y-76882857D01*
X175267606Y-76974598D01*
X175266692Y-77025042D01*
X175078904Y-77025042D01*
X175079222Y-77007060D01*
X175081873Y-76919679D01*
D13*
%TO.C,U1*%
X155318000Y-99454000D02*
X155318000Y-94374000D01*
X196088000Y-96784000D02*
X157988000Y-96784000D01*
X163198000Y-94374000D02*
X152778000Y-94374000D01*
X193548000Y-84084000D02*
X196088000Y-84084000D01*
X152778000Y-86494000D02*
X163198000Y-86494000D01*
X152778000Y-94374000D02*
X152778000Y-86494000D01*
X196088000Y-96784000D02*
X196088000Y-99454000D01*
X163198000Y-86494000D02*
X163198000Y-94374000D01*
X196088000Y-84084000D02*
X196088000Y-81414000D01*
X157988000Y-84084000D02*
X157988000Y-81414000D01*
X198758000Y-81414000D02*
X196088000Y-81414000D01*
X155318000Y-99454000D02*
X198758000Y-99454000D01*
X193548000Y-84084000D02*
X157988000Y-84084000D01*
X198758000Y-99454000D02*
X198758000Y-81414000D01*
X193548000Y-81414000D02*
X155318000Y-81414000D01*
X193548000Y-84084000D02*
X193548000Y-81414000D01*
X155318000Y-81414000D02*
X155318000Y-86494000D01*
X157988000Y-96784000D02*
X157988000Y-99454000D01*
%TD*%
M02*
