%TF.GenerationSoftware,KiCad,Pcbnew,6.0.11-2627ca5db0~126~ubuntu22.04.1*%
%TF.CreationDate,2023-02-15T02:16:28-05:00*%
%TF.ProjectId,lin-valve-control,6c696e2d-7661-46c7-9665-2d636f6e7472,1.0*%
%TF.SameCoordinates,Original*%
%TF.FileFunction,Legend,Bot*%
%TF.FilePolarity,Positive*%
%FSLAX46Y46*%
G04 Gerber Fmt 4.6, Leading zero omitted, Abs format (unit mm)*
G04 Created by KiCad (PCBNEW 6.0.11-2627ca5db0~126~ubuntu22.04.1) date 2023-02-15 02:16:28*
%MOMM*%
%LPD*%
G01*
G04 APERTURE LIST*
%ADD10C,0.150000*%
%ADD11C,0.120000*%
G04 APERTURE END LIST*
D10*
%TO.C,R19*%
X205342857Y-61252380D02*
X205676190Y-60776190D01*
X205914285Y-61252380D02*
X205914285Y-60252380D01*
X205533333Y-60252380D01*
X205438095Y-60300000D01*
X205390476Y-60347619D01*
X205342857Y-60442857D01*
X205342857Y-60585714D01*
X205390476Y-60680952D01*
X205438095Y-60728571D01*
X205533333Y-60776190D01*
X205914285Y-60776190D01*
X204390476Y-61252380D02*
X204961904Y-61252380D01*
X204676190Y-61252380D02*
X204676190Y-60252380D01*
X204771428Y-60395238D01*
X204866666Y-60490476D01*
X204961904Y-60538095D01*
X203914285Y-61252380D02*
X203723809Y-61252380D01*
X203628571Y-61204761D01*
X203580952Y-61157142D01*
X203485714Y-61014285D01*
X203438095Y-60823809D01*
X203438095Y-60442857D01*
X203485714Y-60347619D01*
X203533333Y-60300000D01*
X203628571Y-60252380D01*
X203819047Y-60252380D01*
X203914285Y-60300000D01*
X203961904Y-60347619D01*
X204009523Y-60442857D01*
X204009523Y-60680952D01*
X203961904Y-60776190D01*
X203914285Y-60823809D01*
X203819047Y-60871428D01*
X203628571Y-60871428D01*
X203533333Y-60823809D01*
X203485714Y-60776190D01*
X203438095Y-60680952D01*
%TO.C,R18*%
X192242857Y-61252380D02*
X192576190Y-60776190D01*
X192814285Y-61252380D02*
X192814285Y-60252380D01*
X192433333Y-60252380D01*
X192338095Y-60300000D01*
X192290476Y-60347619D01*
X192242857Y-60442857D01*
X192242857Y-60585714D01*
X192290476Y-60680952D01*
X192338095Y-60728571D01*
X192433333Y-60776190D01*
X192814285Y-60776190D01*
X191290476Y-61252380D02*
X191861904Y-61252380D01*
X191576190Y-61252380D02*
X191576190Y-60252380D01*
X191671428Y-60395238D01*
X191766666Y-60490476D01*
X191861904Y-60538095D01*
X190719047Y-60680952D02*
X190814285Y-60633333D01*
X190861904Y-60585714D01*
X190909523Y-60490476D01*
X190909523Y-60442857D01*
X190861904Y-60347619D01*
X190814285Y-60300000D01*
X190719047Y-60252380D01*
X190528571Y-60252380D01*
X190433333Y-60300000D01*
X190385714Y-60347619D01*
X190338095Y-60442857D01*
X190338095Y-60490476D01*
X190385714Y-60585714D01*
X190433333Y-60633333D01*
X190528571Y-60680952D01*
X190719047Y-60680952D01*
X190814285Y-60728571D01*
X190861904Y-60776190D01*
X190909523Y-60871428D01*
X190909523Y-61061904D01*
X190861904Y-61157142D01*
X190814285Y-61204761D01*
X190719047Y-61252380D01*
X190528571Y-61252380D01*
X190433333Y-61204761D01*
X190385714Y-61157142D01*
X190338095Y-61061904D01*
X190338095Y-60871428D01*
X190385714Y-60776190D01*
X190433333Y-60728571D01*
X190528571Y-60680952D01*
%TO.C,R17*%
X208142857Y-65502380D02*
X208476190Y-65026190D01*
X208714285Y-65502380D02*
X208714285Y-64502380D01*
X208333333Y-64502380D01*
X208238095Y-64550000D01*
X208190476Y-64597619D01*
X208142857Y-64692857D01*
X208142857Y-64835714D01*
X208190476Y-64930952D01*
X208238095Y-64978571D01*
X208333333Y-65026190D01*
X208714285Y-65026190D01*
X207190476Y-65502380D02*
X207761904Y-65502380D01*
X207476190Y-65502380D02*
X207476190Y-64502380D01*
X207571428Y-64645238D01*
X207666666Y-64740476D01*
X207761904Y-64788095D01*
X206857142Y-64502380D02*
X206190476Y-64502380D01*
X206619047Y-65502380D01*
%TO.C,R16*%
X188942857Y-65302380D02*
X189276190Y-64826190D01*
X189514285Y-65302380D02*
X189514285Y-64302380D01*
X189133333Y-64302380D01*
X189038095Y-64350000D01*
X188990476Y-64397619D01*
X188942857Y-64492857D01*
X188942857Y-64635714D01*
X188990476Y-64730952D01*
X189038095Y-64778571D01*
X189133333Y-64826190D01*
X189514285Y-64826190D01*
X187990476Y-65302380D02*
X188561904Y-65302380D01*
X188276190Y-65302380D02*
X188276190Y-64302380D01*
X188371428Y-64445238D01*
X188466666Y-64540476D01*
X188561904Y-64588095D01*
X187133333Y-64302380D02*
X187323809Y-64302380D01*
X187419047Y-64350000D01*
X187466666Y-64397619D01*
X187561904Y-64540476D01*
X187609523Y-64730952D01*
X187609523Y-65111904D01*
X187561904Y-65207142D01*
X187514285Y-65254761D01*
X187419047Y-65302380D01*
X187228571Y-65302380D01*
X187133333Y-65254761D01*
X187085714Y-65207142D01*
X187038095Y-65111904D01*
X187038095Y-64873809D01*
X187085714Y-64778571D01*
X187133333Y-64730952D01*
X187228571Y-64683333D01*
X187419047Y-64683333D01*
X187514285Y-64730952D01*
X187561904Y-64778571D01*
X187609523Y-64873809D01*
%TO.C,Q4*%
X205695238Y-73247619D02*
X205790476Y-73200000D01*
X205885714Y-73104761D01*
X206028571Y-72961904D01*
X206123809Y-72914285D01*
X206219047Y-72914285D01*
X206171428Y-73152380D02*
X206266666Y-73104761D01*
X206361904Y-73009523D01*
X206409523Y-72819047D01*
X206409523Y-72485714D01*
X206361904Y-72295238D01*
X206266666Y-72200000D01*
X206171428Y-72152380D01*
X205980952Y-72152380D01*
X205885714Y-72200000D01*
X205790476Y-72295238D01*
X205742857Y-72485714D01*
X205742857Y-72819047D01*
X205790476Y-73009523D01*
X205885714Y-73104761D01*
X205980952Y-73152380D01*
X206171428Y-73152380D01*
X204885714Y-72485714D02*
X204885714Y-73152380D01*
X205123809Y-72104761D02*
X205361904Y-72819047D01*
X204742857Y-72819047D01*
%TO.C,Q3*%
X184147619Y-70604761D02*
X184100000Y-70509523D01*
X184004761Y-70414285D01*
X183861904Y-70271428D01*
X183814285Y-70176190D01*
X183814285Y-70080952D01*
X184052380Y-70128571D02*
X184004761Y-70033333D01*
X183909523Y-69938095D01*
X183719047Y-69890476D01*
X183385714Y-69890476D01*
X183195238Y-69938095D01*
X183100000Y-70033333D01*
X183052380Y-70128571D01*
X183052380Y-70319047D01*
X183100000Y-70414285D01*
X183195238Y-70509523D01*
X183385714Y-70557142D01*
X183719047Y-70557142D01*
X183909523Y-70509523D01*
X184004761Y-70414285D01*
X184052380Y-70319047D01*
X184052380Y-70128571D01*
X183052380Y-70890476D02*
X183052380Y-71509523D01*
X183433333Y-71176190D01*
X183433333Y-71319047D01*
X183480952Y-71414285D01*
X183528571Y-71461904D01*
X183623809Y-71509523D01*
X183861904Y-71509523D01*
X183957142Y-71461904D01*
X184004761Y-71414285D01*
X184052380Y-71319047D01*
X184052380Y-71033333D01*
X184004761Y-70938095D01*
X183957142Y-70890476D01*
%TO.C,D2*%
X197352380Y-66661904D02*
X196352380Y-66661904D01*
X196352380Y-66900000D01*
X196400000Y-67042857D01*
X196495238Y-67138095D01*
X196590476Y-67185714D01*
X196780952Y-67233333D01*
X196923809Y-67233333D01*
X197114285Y-67185714D01*
X197209523Y-67138095D01*
X197304761Y-67042857D01*
X197352380Y-66900000D01*
X197352380Y-66661904D01*
X196447619Y-67614285D02*
X196400000Y-67661904D01*
X196352380Y-67757142D01*
X196352380Y-67995238D01*
X196400000Y-68090476D01*
X196447619Y-68138095D01*
X196542857Y-68185714D01*
X196638095Y-68185714D01*
X196780952Y-68138095D01*
X197352380Y-67566666D01*
X197352380Y-68185714D01*
%TO.C,D1*%
X192452380Y-66731904D02*
X191452380Y-66731904D01*
X191452380Y-66970000D01*
X191500000Y-67112857D01*
X191595238Y-67208095D01*
X191690476Y-67255714D01*
X191880952Y-67303333D01*
X192023809Y-67303333D01*
X192214285Y-67255714D01*
X192309523Y-67208095D01*
X192404761Y-67112857D01*
X192452380Y-66970000D01*
X192452380Y-66731904D01*
X192452380Y-68255714D02*
X192452380Y-67684285D01*
X192452380Y-67970000D02*
X191452380Y-67970000D01*
X191595238Y-67874761D01*
X191690476Y-67779523D01*
X191738095Y-67684285D01*
%TO.C,R1*%
X182134166Y-91256380D02*
X182467500Y-90780190D01*
X182705595Y-91256380D02*
X182705595Y-90256380D01*
X182324642Y-90256380D01*
X182229404Y-90304000D01*
X182181785Y-90351619D01*
X182134166Y-90446857D01*
X182134166Y-90589714D01*
X182181785Y-90684952D01*
X182229404Y-90732571D01*
X182324642Y-90780190D01*
X182705595Y-90780190D01*
X181181785Y-91256380D02*
X181753214Y-91256380D01*
X181467500Y-91256380D02*
X181467500Y-90256380D01*
X181562738Y-90399238D01*
X181657976Y-90494476D01*
X181753214Y-90542095D01*
%TO.C,R4*%
X177152380Y-88733333D02*
X176676190Y-88400000D01*
X177152380Y-88161904D02*
X176152380Y-88161904D01*
X176152380Y-88542857D01*
X176200000Y-88638095D01*
X176247619Y-88685714D01*
X176342857Y-88733333D01*
X176485714Y-88733333D01*
X176580952Y-88685714D01*
X176628571Y-88638095D01*
X176676190Y-88542857D01*
X176676190Y-88161904D01*
X176485714Y-89590476D02*
X177152380Y-89590476D01*
X176104761Y-89352380D02*
X176819047Y-89114285D01*
X176819047Y-89733333D01*
%TO.C,R13*%
X205942857Y-89852380D02*
X206276190Y-89376190D01*
X206514285Y-89852380D02*
X206514285Y-88852380D01*
X206133333Y-88852380D01*
X206038095Y-88900000D01*
X205990476Y-88947619D01*
X205942857Y-89042857D01*
X205942857Y-89185714D01*
X205990476Y-89280952D01*
X206038095Y-89328571D01*
X206133333Y-89376190D01*
X206514285Y-89376190D01*
X204990476Y-89852380D02*
X205561904Y-89852380D01*
X205276190Y-89852380D02*
X205276190Y-88852380D01*
X205371428Y-88995238D01*
X205466666Y-89090476D01*
X205561904Y-89138095D01*
X204657142Y-88852380D02*
X204038095Y-88852380D01*
X204371428Y-89233333D01*
X204228571Y-89233333D01*
X204133333Y-89280952D01*
X204085714Y-89328571D01*
X204038095Y-89423809D01*
X204038095Y-89661904D01*
X204085714Y-89757142D01*
X204133333Y-89804761D01*
X204228571Y-89852380D01*
X204514285Y-89852380D01*
X204609523Y-89804761D01*
X204657142Y-89757142D01*
%TO.C,R3*%
X165452380Y-94533333D02*
X164976190Y-94200000D01*
X165452380Y-93961904D02*
X164452380Y-93961904D01*
X164452380Y-94342857D01*
X164500000Y-94438095D01*
X164547619Y-94485714D01*
X164642857Y-94533333D01*
X164785714Y-94533333D01*
X164880952Y-94485714D01*
X164928571Y-94438095D01*
X164976190Y-94342857D01*
X164976190Y-93961904D01*
X164452380Y-94866666D02*
X164452380Y-95485714D01*
X164833333Y-95152380D01*
X164833333Y-95295238D01*
X164880952Y-95390476D01*
X164928571Y-95438095D01*
X165023809Y-95485714D01*
X165261904Y-95485714D01*
X165357142Y-95438095D01*
X165404761Y-95390476D01*
X165452380Y-95295238D01*
X165452380Y-95009523D01*
X165404761Y-94914285D01*
X165357142Y-94866666D01*
%TO.C,R10*%
X169352380Y-90757142D02*
X168876190Y-90423809D01*
X169352380Y-90185714D02*
X168352380Y-90185714D01*
X168352380Y-90566666D01*
X168400000Y-90661904D01*
X168447619Y-90709523D01*
X168542857Y-90757142D01*
X168685714Y-90757142D01*
X168780952Y-90709523D01*
X168828571Y-90661904D01*
X168876190Y-90566666D01*
X168876190Y-90185714D01*
X169352380Y-91709523D02*
X169352380Y-91138095D01*
X169352380Y-91423809D02*
X168352380Y-91423809D01*
X168495238Y-91328571D01*
X168590476Y-91233333D01*
X168638095Y-91138095D01*
X168352380Y-92328571D02*
X168352380Y-92423809D01*
X168400000Y-92519047D01*
X168447619Y-92566666D01*
X168542857Y-92614285D01*
X168733333Y-92661904D01*
X168971428Y-92661904D01*
X169161904Y-92614285D01*
X169257142Y-92566666D01*
X169304761Y-92519047D01*
X169352380Y-92423809D01*
X169352380Y-92328571D01*
X169304761Y-92233333D01*
X169257142Y-92185714D01*
X169161904Y-92138095D01*
X168971428Y-92090476D01*
X168733333Y-92090476D01*
X168542857Y-92138095D01*
X168447619Y-92185714D01*
X168400000Y-92233333D01*
X168352380Y-92328571D01*
%TO.C,C1*%
X200657142Y-76433333D02*
X200704761Y-76385714D01*
X200752380Y-76242857D01*
X200752380Y-76147619D01*
X200704761Y-76004761D01*
X200609523Y-75909523D01*
X200514285Y-75861904D01*
X200323809Y-75814285D01*
X200180952Y-75814285D01*
X199990476Y-75861904D01*
X199895238Y-75909523D01*
X199800000Y-76004761D01*
X199752380Y-76147619D01*
X199752380Y-76242857D01*
X199800000Y-76385714D01*
X199847619Y-76433333D01*
X200752380Y-77385714D02*
X200752380Y-76814285D01*
X200752380Y-77100000D02*
X199752380Y-77100000D01*
X199895238Y-77004761D01*
X199990476Y-76909523D01*
X200038095Y-76814285D01*
%TO.C,R9*%
X171502380Y-85933333D02*
X171026190Y-85600000D01*
X171502380Y-85361904D02*
X170502380Y-85361904D01*
X170502380Y-85742857D01*
X170550000Y-85838095D01*
X170597619Y-85885714D01*
X170692857Y-85933333D01*
X170835714Y-85933333D01*
X170930952Y-85885714D01*
X170978571Y-85838095D01*
X171026190Y-85742857D01*
X171026190Y-85361904D01*
X171502380Y-86409523D02*
X171502380Y-86600000D01*
X171454761Y-86695238D01*
X171407142Y-86742857D01*
X171264285Y-86838095D01*
X171073809Y-86885714D01*
X170692857Y-86885714D01*
X170597619Y-86838095D01*
X170550000Y-86790476D01*
X170502380Y-86695238D01*
X170502380Y-86504761D01*
X170550000Y-86409523D01*
X170597619Y-86361904D01*
X170692857Y-86314285D01*
X170930952Y-86314285D01*
X171026190Y-86361904D01*
X171073809Y-86409523D01*
X171121428Y-86504761D01*
X171121428Y-86695238D01*
X171073809Y-86790476D01*
X171026190Y-86838095D01*
X170930952Y-86885714D01*
%TO.C,C3*%
X195857142Y-80108333D02*
X195904761Y-80060714D01*
X195952380Y-79917857D01*
X195952380Y-79822619D01*
X195904761Y-79679761D01*
X195809523Y-79584523D01*
X195714285Y-79536904D01*
X195523809Y-79489285D01*
X195380952Y-79489285D01*
X195190476Y-79536904D01*
X195095238Y-79584523D01*
X195000000Y-79679761D01*
X194952380Y-79822619D01*
X194952380Y-79917857D01*
X195000000Y-80060714D01*
X195047619Y-80108333D01*
X194952380Y-80441666D02*
X194952380Y-81060714D01*
X195333333Y-80727380D01*
X195333333Y-80870238D01*
X195380952Y-80965476D01*
X195428571Y-81013095D01*
X195523809Y-81060714D01*
X195761904Y-81060714D01*
X195857142Y-81013095D01*
X195904761Y-80965476D01*
X195952380Y-80870238D01*
X195952380Y-80584523D01*
X195904761Y-80489285D01*
X195857142Y-80441666D01*
%TO.C,R11*%
X205442857Y-99702380D02*
X205776190Y-99226190D01*
X206014285Y-99702380D02*
X206014285Y-98702380D01*
X205633333Y-98702380D01*
X205538095Y-98750000D01*
X205490476Y-98797619D01*
X205442857Y-98892857D01*
X205442857Y-99035714D01*
X205490476Y-99130952D01*
X205538095Y-99178571D01*
X205633333Y-99226190D01*
X206014285Y-99226190D01*
X204490476Y-99702380D02*
X205061904Y-99702380D01*
X204776190Y-99702380D02*
X204776190Y-98702380D01*
X204871428Y-98845238D01*
X204966666Y-98940476D01*
X205061904Y-98988095D01*
X203538095Y-99702380D02*
X204109523Y-99702380D01*
X203823809Y-99702380D02*
X203823809Y-98702380D01*
X203919047Y-98845238D01*
X204014285Y-98940476D01*
X204109523Y-98988095D01*
%TO.C,R6*%
X196902380Y-85933333D02*
X196426190Y-85600000D01*
X196902380Y-85361904D02*
X195902380Y-85361904D01*
X195902380Y-85742857D01*
X195950000Y-85838095D01*
X195997619Y-85885714D01*
X196092857Y-85933333D01*
X196235714Y-85933333D01*
X196330952Y-85885714D01*
X196378571Y-85838095D01*
X196426190Y-85742857D01*
X196426190Y-85361904D01*
X195902380Y-86790476D02*
X195902380Y-86600000D01*
X195950000Y-86504761D01*
X195997619Y-86457142D01*
X196140476Y-86361904D01*
X196330952Y-86314285D01*
X196711904Y-86314285D01*
X196807142Y-86361904D01*
X196854761Y-86409523D01*
X196902380Y-86504761D01*
X196902380Y-86695238D01*
X196854761Y-86790476D01*
X196807142Y-86838095D01*
X196711904Y-86885714D01*
X196473809Y-86885714D01*
X196378571Y-86838095D01*
X196330952Y-86790476D01*
X196283333Y-86695238D01*
X196283333Y-86504761D01*
X196330952Y-86409523D01*
X196378571Y-86361904D01*
X196473809Y-86314285D01*
%TO.C,R7*%
X179352380Y-88633333D02*
X178876190Y-88300000D01*
X179352380Y-88061904D02*
X178352380Y-88061904D01*
X178352380Y-88442857D01*
X178400000Y-88538095D01*
X178447619Y-88585714D01*
X178542857Y-88633333D01*
X178685714Y-88633333D01*
X178780952Y-88585714D01*
X178828571Y-88538095D01*
X178876190Y-88442857D01*
X178876190Y-88061904D01*
X178352380Y-88966666D02*
X178352380Y-89633333D01*
X179352380Y-89204761D01*
%TO.C,C2*%
X181829166Y-65577142D02*
X181876785Y-65624761D01*
X182019642Y-65672380D01*
X182114880Y-65672380D01*
X182257738Y-65624761D01*
X182352976Y-65529523D01*
X182400595Y-65434285D01*
X182448214Y-65243809D01*
X182448214Y-65100952D01*
X182400595Y-64910476D01*
X182352976Y-64815238D01*
X182257738Y-64720000D01*
X182114880Y-64672380D01*
X182019642Y-64672380D01*
X181876785Y-64720000D01*
X181829166Y-64767619D01*
X181448214Y-64767619D02*
X181400595Y-64720000D01*
X181305357Y-64672380D01*
X181067261Y-64672380D01*
X180972023Y-64720000D01*
X180924404Y-64767619D01*
X180876785Y-64862857D01*
X180876785Y-64958095D01*
X180924404Y-65100952D01*
X181495833Y-65672380D01*
X180876785Y-65672380D01*
%TO.C,Q1*%
X183895238Y-94247619D02*
X183990476Y-94200000D01*
X184085714Y-94104761D01*
X184228571Y-93961904D01*
X184323809Y-93914285D01*
X184419047Y-93914285D01*
X184371428Y-94152380D02*
X184466666Y-94104761D01*
X184561904Y-94009523D01*
X184609523Y-93819047D01*
X184609523Y-93485714D01*
X184561904Y-93295238D01*
X184466666Y-93200000D01*
X184371428Y-93152380D01*
X184180952Y-93152380D01*
X184085714Y-93200000D01*
X183990476Y-93295238D01*
X183942857Y-93485714D01*
X183942857Y-93819047D01*
X183990476Y-94009523D01*
X184085714Y-94104761D01*
X184180952Y-94152380D01*
X184371428Y-94152380D01*
X182990476Y-94152380D02*
X183561904Y-94152380D01*
X183276190Y-94152380D02*
X183276190Y-93152380D01*
X183371428Y-93295238D01*
X183466666Y-93390476D01*
X183561904Y-93438095D01*
%TO.C,Q2*%
X177795238Y-97147619D02*
X177890476Y-97100000D01*
X177985714Y-97004761D01*
X178128571Y-96861904D01*
X178223809Y-96814285D01*
X178319047Y-96814285D01*
X178271428Y-97052380D02*
X178366666Y-97004761D01*
X178461904Y-96909523D01*
X178509523Y-96719047D01*
X178509523Y-96385714D01*
X178461904Y-96195238D01*
X178366666Y-96100000D01*
X178271428Y-96052380D01*
X178080952Y-96052380D01*
X177985714Y-96100000D01*
X177890476Y-96195238D01*
X177842857Y-96385714D01*
X177842857Y-96719047D01*
X177890476Y-96909523D01*
X177985714Y-97004761D01*
X178080952Y-97052380D01*
X178271428Y-97052380D01*
X177461904Y-96147619D02*
X177414285Y-96100000D01*
X177319047Y-96052380D01*
X177080952Y-96052380D01*
X176985714Y-96100000D01*
X176938095Y-96147619D01*
X176890476Y-96242857D01*
X176890476Y-96338095D01*
X176938095Y-96480952D01*
X177509523Y-97052380D01*
X176890476Y-97052380D01*
%TO.C,R12*%
X172952380Y-90757142D02*
X172476190Y-90423809D01*
X172952380Y-90185714D02*
X171952380Y-90185714D01*
X171952380Y-90566666D01*
X172000000Y-90661904D01*
X172047619Y-90709523D01*
X172142857Y-90757142D01*
X172285714Y-90757142D01*
X172380952Y-90709523D01*
X172428571Y-90661904D01*
X172476190Y-90566666D01*
X172476190Y-90185714D01*
X172952380Y-91709523D02*
X172952380Y-91138095D01*
X172952380Y-91423809D02*
X171952380Y-91423809D01*
X172095238Y-91328571D01*
X172190476Y-91233333D01*
X172238095Y-91138095D01*
X172047619Y-92090476D02*
X172000000Y-92138095D01*
X171952380Y-92233333D01*
X171952380Y-92471428D01*
X172000000Y-92566666D01*
X172047619Y-92614285D01*
X172142857Y-92661904D01*
X172238095Y-92661904D01*
X172380952Y-92614285D01*
X172952380Y-92042857D01*
X172952380Y-92661904D01*
%TO.C,R2*%
X190852380Y-85706269D02*
X190376190Y-85372936D01*
X190852380Y-85134840D02*
X189852380Y-85134840D01*
X189852380Y-85515793D01*
X189900000Y-85611031D01*
X189947619Y-85658650D01*
X190042857Y-85706269D01*
X190185714Y-85706269D01*
X190280952Y-85658650D01*
X190328571Y-85611031D01*
X190376190Y-85515793D01*
X190376190Y-85134840D01*
X189947619Y-86087221D02*
X189900000Y-86134840D01*
X189852380Y-86230078D01*
X189852380Y-86468174D01*
X189900000Y-86563412D01*
X189947619Y-86611031D01*
X190042857Y-86658650D01*
X190138095Y-86658650D01*
X190280952Y-86611031D01*
X190852380Y-86039602D01*
X190852380Y-86658650D01*
D11*
%TO.C,R19*%
X200172936Y-61435000D02*
X200627064Y-61435000D01*
X200172936Y-59965000D02*
X200627064Y-59965000D01*
%TO.C,R18*%
X195172936Y-61435000D02*
X195627064Y-61435000D01*
X195172936Y-59965000D02*
X195627064Y-59965000D01*
%TO.C,R17*%
X207727064Y-65965000D02*
X207272936Y-65965000D01*
X207727064Y-67435000D02*
X207272936Y-67435000D01*
%TO.C,R16*%
X188527064Y-65765000D02*
X188072936Y-65765000D01*
X188527064Y-67235000D02*
X188072936Y-67235000D01*
%TO.C,Q4*%
X205362500Y-71360000D02*
X206012500Y-71360000D01*
X205362500Y-68240000D02*
X206012500Y-68240000D01*
X205362500Y-71360000D02*
X203687500Y-71360000D01*
X205362500Y-68240000D02*
X204712500Y-68240000D01*
%TO.C,Q3*%
X187810000Y-69862500D02*
X187810000Y-69212500D01*
X184690000Y-69862500D02*
X184690000Y-69212500D01*
X187810000Y-69862500D02*
X187810000Y-71537500D01*
X184690000Y-69862500D02*
X184690000Y-70512500D01*
%TO.C,D2*%
X200460000Y-67470000D02*
X199800000Y-67470000D01*
X198140000Y-68880000D02*
X198140000Y-67470000D01*
X198800000Y-67470000D02*
X198140000Y-67470000D01*
X200460000Y-67470000D02*
X200460000Y-69500000D01*
%TO.C,D1*%
X195460000Y-67470000D02*
X194800000Y-67470000D01*
X193140000Y-68880000D02*
X193140000Y-67470000D01*
X193800000Y-67470000D02*
X193140000Y-67470000D01*
X195460000Y-67470000D02*
X195460000Y-69500000D01*
%TO.C,R1*%
X181740436Y-89889000D02*
X182194564Y-89889000D01*
X181740436Y-88419000D02*
X182194564Y-88419000D01*
%TO.C,R4*%
X177735000Y-92072936D02*
X177735000Y-92527064D01*
X176265000Y-92072936D02*
X176265000Y-92527064D01*
%TO.C,R13*%
X205172936Y-91935000D02*
X205627064Y-91935000D01*
X205172936Y-90465000D02*
X205627064Y-90465000D01*
%TO.C,R3*%
X167635000Y-94927064D02*
X167635000Y-94472936D01*
X166165000Y-94927064D02*
X166165000Y-94472936D01*
%TO.C,R10*%
X168965000Y-94472936D02*
X168965000Y-94927064D01*
X170435000Y-94472936D02*
X170435000Y-94927064D01*
%TO.C,C1*%
X203310000Y-78211252D02*
X203310000Y-76788748D01*
X201490000Y-78211252D02*
X201490000Y-76788748D01*
%TO.C,R9*%
X170135000Y-86327064D02*
X170135000Y-85872936D01*
X168665000Y-86327064D02*
X168665000Y-85872936D01*
%TO.C,C3*%
X198810000Y-81326248D02*
X198810000Y-82748752D01*
X196990000Y-81326248D02*
X196990000Y-82748752D01*
%TO.C,R11*%
X204572936Y-98335000D02*
X205027064Y-98335000D01*
X204572936Y-96865000D02*
X205027064Y-96865000D01*
%TO.C,R6*%
X195535000Y-86327064D02*
X195535000Y-85872936D01*
X194065000Y-86327064D02*
X194065000Y-85872936D01*
%TO.C,R7*%
X180335000Y-92072936D02*
X180335000Y-92527064D01*
X178865000Y-92072936D02*
X178865000Y-92527064D01*
%TO.C,C2*%
X181923752Y-66165000D02*
X181401248Y-66165000D01*
X181923752Y-67635000D02*
X181401248Y-67635000D01*
%TO.C,Q1*%
X180637500Y-96560000D02*
X181287500Y-96560000D01*
X180637500Y-93440000D02*
X179987500Y-93440000D01*
X180637500Y-96560000D02*
X179987500Y-96560000D01*
X180637500Y-93440000D02*
X182312500Y-93440000D01*
%TO.C,Q2*%
X176062500Y-93440000D02*
X176712500Y-93440000D01*
X176062500Y-96560000D02*
X174387500Y-96560000D01*
X176062500Y-96560000D02*
X176712500Y-96560000D01*
X176062500Y-93440000D02*
X175412500Y-93440000D01*
%TO.C,R12*%
X172635000Y-94572936D02*
X172635000Y-95027064D01*
X171165000Y-94572936D02*
X171165000Y-95027064D01*
%TO.C,R2*%
X193035000Y-86327064D02*
X193035000Y-85872936D01*
X191565000Y-86327064D02*
X191565000Y-85872936D01*
%TD*%
M02*
