%TF.GenerationSoftware,KiCad,Pcbnew,6.0.11-2627ca5db0~126~ubuntu22.04.1*%
%TF.CreationDate,2023-02-15T02:16:28-05:00*%
%TF.ProjectId,lin-valve-control,6c696e2d-7661-46c7-9665-2d636f6e7472,1.0*%
%TF.SameCoordinates,Original*%
%TF.FileFunction,Legend,Top*%
%TF.FilePolarity,Positive*%
%FSLAX46Y46*%
G04 Gerber Fmt 4.6, Leading zero omitted, Abs format (unit mm)*
G04 Created by KiCad (PCBNEW 6.0.11-2627ca5db0~126~ubuntu22.04.1) date 2023-02-15 02:16:28*
%MOMM*%
%LPD*%
G01*
G04 APERTURE LIST*
%ADD10C,0.150000*%
%ADD11C,0.127000*%
%ADD12C,0.254000*%
%ADD13C,0.120000*%
%ADD14C,0.203200*%
%ADD15C,0.398780*%
%ADD16C,0.010000*%
G04 APERTURE END LIST*
D10*
X157652380Y-79761904D02*
X156652380Y-79761904D01*
X156747619Y-79333333D02*
X156700000Y-79285714D01*
X156652380Y-79190476D01*
X156652380Y-78952380D01*
X156700000Y-78857142D01*
X156747619Y-78809523D01*
X156842857Y-78761904D01*
X156938095Y-78761904D01*
X157080952Y-78809523D01*
X157652380Y-79380952D01*
X157652380Y-78761904D01*
X157557142Y-77761904D02*
X157604761Y-77809523D01*
X157652380Y-77952380D01*
X157652380Y-78047619D01*
X157604761Y-78190476D01*
X157509523Y-78285714D01*
X157414285Y-78333333D01*
X157223809Y-78380952D01*
X157080952Y-78380952D01*
X156890476Y-78333333D01*
X156795238Y-78285714D01*
X156700000Y-78190476D01*
X156652380Y-78047619D01*
X156652380Y-77952380D01*
X156700000Y-77809523D01*
X156747619Y-77761904D01*
X157652380Y-76095238D02*
X157652380Y-76571428D01*
X156652380Y-76571428D01*
X157557142Y-75190476D02*
X157604761Y-75238095D01*
X157652380Y-75380952D01*
X157652380Y-75476190D01*
X157604761Y-75619047D01*
X157509523Y-75714285D01*
X157414285Y-75761904D01*
X157223809Y-75809523D01*
X157080952Y-75809523D01*
X156890476Y-75761904D01*
X156795238Y-75714285D01*
X156700000Y-75619047D01*
X156652380Y-75476190D01*
X156652380Y-75380952D01*
X156700000Y-75238095D01*
X156747619Y-75190476D01*
X157652380Y-74761904D02*
X156652380Y-74761904D01*
X156652380Y-74523809D01*
X156700000Y-74380952D01*
X156795238Y-74285714D01*
X156890476Y-74238095D01*
X157080952Y-74190476D01*
X157223809Y-74190476D01*
X157414285Y-74238095D01*
X157509523Y-74285714D01*
X157604761Y-74380952D01*
X157652380Y-74523809D01*
X157652380Y-74761904D01*
X192700000Y-68252142D02*
X192652380Y-68299761D01*
X192509523Y-68347380D01*
X192414285Y-68347380D01*
X192271428Y-68299761D01*
X192176190Y-68204523D01*
X192128571Y-68109285D01*
X192080952Y-67918809D01*
X192080952Y-67775952D01*
X192128571Y-67585476D01*
X192176190Y-67490238D01*
X192271428Y-67395000D01*
X192414285Y-67347380D01*
X192509523Y-67347380D01*
X192652380Y-67395000D01*
X192700000Y-67442619D01*
X193271428Y-68347380D02*
X193176190Y-68299761D01*
X193128571Y-68252142D01*
X193080952Y-68156904D01*
X193080952Y-67871190D01*
X193128571Y-67775952D01*
X193176190Y-67728333D01*
X193271428Y-67680714D01*
X193414285Y-67680714D01*
X193509523Y-67728333D01*
X193557142Y-67775952D01*
X193604761Y-67871190D01*
X193604761Y-68156904D01*
X193557142Y-68252142D01*
X193509523Y-68299761D01*
X193414285Y-68347380D01*
X193271428Y-68347380D01*
X194176190Y-68347380D02*
X194080952Y-68299761D01*
X194033333Y-68252142D01*
X193985714Y-68156904D01*
X193985714Y-67871190D01*
X194033333Y-67775952D01*
X194080952Y-67728333D01*
X194176190Y-67680714D01*
X194319047Y-67680714D01*
X194414285Y-67728333D01*
X194461904Y-67775952D01*
X194509523Y-67871190D01*
X194509523Y-68156904D01*
X194461904Y-68252142D01*
X194414285Y-68299761D01*
X194319047Y-68347380D01*
X194176190Y-68347380D01*
X195080952Y-68347380D02*
X194985714Y-68299761D01*
X194938095Y-68204523D01*
X194938095Y-67347380D01*
X195461904Y-68347380D02*
X195461904Y-67680714D01*
X195461904Y-67347380D02*
X195414285Y-67395000D01*
X195461904Y-67442619D01*
X195509523Y-67395000D01*
X195461904Y-67347380D01*
X195461904Y-67442619D01*
X195938095Y-67680714D02*
X195938095Y-68347380D01*
X195938095Y-67775952D02*
X195985714Y-67728333D01*
X196080952Y-67680714D01*
X196223809Y-67680714D01*
X196319047Y-67728333D01*
X196366666Y-67823571D01*
X196366666Y-68347380D01*
X197271428Y-67680714D02*
X197271428Y-68490238D01*
X197223809Y-68585476D01*
X197176190Y-68633095D01*
X197080952Y-68680714D01*
X196938095Y-68680714D01*
X196842857Y-68633095D01*
X197271428Y-68299761D02*
X197176190Y-68347380D01*
X196985714Y-68347380D01*
X196890476Y-68299761D01*
X196842857Y-68252142D01*
X196795238Y-68156904D01*
X196795238Y-67871190D01*
X196842857Y-67775952D01*
X196890476Y-67728333D01*
X196985714Y-67680714D01*
X197176190Y-67680714D01*
X197271428Y-67728333D01*
X192866666Y-69957380D02*
X192866666Y-68957380D01*
X193247619Y-68957380D01*
X193342857Y-69005000D01*
X193390476Y-69052619D01*
X193438095Y-69147857D01*
X193438095Y-69290714D01*
X193390476Y-69385952D01*
X193342857Y-69433571D01*
X193247619Y-69481190D01*
X192866666Y-69481190D01*
X194295238Y-69290714D02*
X194295238Y-69957380D01*
X193866666Y-69290714D02*
X193866666Y-69814523D01*
X193914285Y-69909761D01*
X194009523Y-69957380D01*
X194152380Y-69957380D01*
X194247619Y-69909761D01*
X194295238Y-69862142D01*
X194771428Y-69957380D02*
X194771428Y-69290714D01*
X194771428Y-69385952D02*
X194819047Y-69338333D01*
X194914285Y-69290714D01*
X195057142Y-69290714D01*
X195152380Y-69338333D01*
X195200000Y-69433571D01*
X195200000Y-69957380D01*
X195200000Y-69433571D02*
X195247619Y-69338333D01*
X195342857Y-69290714D01*
X195485714Y-69290714D01*
X195580952Y-69338333D01*
X195628571Y-69433571D01*
X195628571Y-69957380D01*
X196104761Y-69290714D02*
X196104761Y-70290714D01*
X196104761Y-69338333D02*
X196200000Y-69290714D01*
X196390476Y-69290714D01*
X196485714Y-69338333D01*
X196533333Y-69385952D01*
X196580952Y-69481190D01*
X196580952Y-69766904D01*
X196533333Y-69862142D01*
X196485714Y-69909761D01*
X196390476Y-69957380D01*
X196200000Y-69957380D01*
X196104761Y-69909761D01*
X157409523Y-70852380D02*
X156933333Y-70852380D01*
X156933333Y-69852380D01*
X157742857Y-70852380D02*
X157742857Y-69852380D01*
X158219047Y-70852380D02*
X158219047Y-69852380D01*
X158790476Y-70852380D01*
X158790476Y-69852380D01*
X159600000Y-70328571D02*
X159742857Y-70376190D01*
X159790476Y-70423809D01*
X159838095Y-70519047D01*
X159838095Y-70661904D01*
X159790476Y-70757142D01*
X159742857Y-70804761D01*
X159647619Y-70852380D01*
X159266666Y-70852380D01*
X159266666Y-69852380D01*
X159600000Y-69852380D01*
X159695238Y-69900000D01*
X159742857Y-69947619D01*
X159790476Y-70042857D01*
X159790476Y-70138095D01*
X159742857Y-70233333D01*
X159695238Y-70280952D01*
X159600000Y-70328571D01*
X159266666Y-70328571D01*
X160695238Y-70185714D02*
X160695238Y-70852380D01*
X160266666Y-70185714D02*
X160266666Y-70709523D01*
X160314285Y-70804761D01*
X160409523Y-70852380D01*
X160552380Y-70852380D01*
X160647619Y-70804761D01*
X160695238Y-70757142D01*
X161123809Y-70804761D02*
X161219047Y-70852380D01*
X161409523Y-70852380D01*
X161504761Y-70804761D01*
X161552380Y-70709523D01*
X161552380Y-70661904D01*
X161504761Y-70566666D01*
X161409523Y-70519047D01*
X161266666Y-70519047D01*
X161171428Y-70471428D01*
X161123809Y-70376190D01*
X161123809Y-70328571D01*
X161171428Y-70233333D01*
X161266666Y-70185714D01*
X161409523Y-70185714D01*
X161504761Y-70233333D01*
X162600000Y-69852380D02*
X162933333Y-70852380D01*
X163266666Y-69852380D01*
X164028571Y-70852380D02*
X164028571Y-70328571D01*
X163980952Y-70233333D01*
X163885714Y-70185714D01*
X163695238Y-70185714D01*
X163600000Y-70233333D01*
X164028571Y-70804761D02*
X163933333Y-70852380D01*
X163695238Y-70852380D01*
X163600000Y-70804761D01*
X163552380Y-70709523D01*
X163552380Y-70614285D01*
X163600000Y-70519047D01*
X163695238Y-70471428D01*
X163933333Y-70471428D01*
X164028571Y-70423809D01*
X164647619Y-70852380D02*
X164552380Y-70804761D01*
X164504761Y-70709523D01*
X164504761Y-69852380D01*
X164933333Y-70185714D02*
X165171428Y-70852380D01*
X165409523Y-70185714D01*
X166171428Y-70804761D02*
X166076190Y-70852380D01*
X165885714Y-70852380D01*
X165790476Y-70804761D01*
X165742857Y-70709523D01*
X165742857Y-70328571D01*
X165790476Y-70233333D01*
X165885714Y-70185714D01*
X166076190Y-70185714D01*
X166171428Y-70233333D01*
X166219047Y-70328571D01*
X166219047Y-70423809D01*
X165742857Y-70519047D01*
X167980952Y-70757142D02*
X167933333Y-70804761D01*
X167790476Y-70852380D01*
X167695238Y-70852380D01*
X167552380Y-70804761D01*
X167457142Y-70709523D01*
X167409523Y-70614285D01*
X167361904Y-70423809D01*
X167361904Y-70280952D01*
X167409523Y-70090476D01*
X167457142Y-69995238D01*
X167552380Y-69900000D01*
X167695238Y-69852380D01*
X167790476Y-69852380D01*
X167933333Y-69900000D01*
X167980952Y-69947619D01*
X168552380Y-70852380D02*
X168457142Y-70804761D01*
X168409523Y-70757142D01*
X168361904Y-70661904D01*
X168361904Y-70376190D01*
X168409523Y-70280952D01*
X168457142Y-70233333D01*
X168552380Y-70185714D01*
X168695238Y-70185714D01*
X168790476Y-70233333D01*
X168838095Y-70280952D01*
X168885714Y-70376190D01*
X168885714Y-70661904D01*
X168838095Y-70757142D01*
X168790476Y-70804761D01*
X168695238Y-70852380D01*
X168552380Y-70852380D01*
X169314285Y-70185714D02*
X169314285Y-70852380D01*
X169314285Y-70280952D02*
X169361904Y-70233333D01*
X169457142Y-70185714D01*
X169600000Y-70185714D01*
X169695238Y-70233333D01*
X169742857Y-70328571D01*
X169742857Y-70852380D01*
X170076190Y-70185714D02*
X170457142Y-70185714D01*
X170219047Y-69852380D02*
X170219047Y-70709523D01*
X170266666Y-70804761D01*
X170361904Y-70852380D01*
X170457142Y-70852380D01*
X170790476Y-70852380D02*
X170790476Y-70185714D01*
X170790476Y-70376190D02*
X170838095Y-70280952D01*
X170885714Y-70233333D01*
X170980952Y-70185714D01*
X171076190Y-70185714D01*
X171552380Y-70852380D02*
X171457142Y-70804761D01*
X171409523Y-70757142D01*
X171361904Y-70661904D01*
X171361904Y-70376190D01*
X171409523Y-70280952D01*
X171457142Y-70233333D01*
X171552380Y-70185714D01*
X171695238Y-70185714D01*
X171790476Y-70233333D01*
X171838095Y-70280952D01*
X171885714Y-70376190D01*
X171885714Y-70661904D01*
X171838095Y-70757142D01*
X171790476Y-70804761D01*
X171695238Y-70852380D01*
X171552380Y-70852380D01*
X172457142Y-70852380D02*
X172361904Y-70804761D01*
X172314285Y-70709523D01*
X172314285Y-69852380D01*
X172980952Y-70852380D02*
X172885714Y-70804761D01*
X172838095Y-70709523D01*
X172838095Y-69852380D01*
X173742857Y-70804761D02*
X173647619Y-70852380D01*
X173457142Y-70852380D01*
X173361904Y-70804761D01*
X173314285Y-70709523D01*
X173314285Y-70328571D01*
X173361904Y-70233333D01*
X173457142Y-70185714D01*
X173647619Y-70185714D01*
X173742857Y-70233333D01*
X173790476Y-70328571D01*
X173790476Y-70423809D01*
X173314285Y-70519047D01*
X174219047Y-70852380D02*
X174219047Y-70185714D01*
X174219047Y-70376190D02*
X174266666Y-70280952D01*
X174314285Y-70233333D01*
X174409523Y-70185714D01*
X174504761Y-70185714D01*
X175504761Y-70185714D02*
X175742857Y-70852380D01*
X175980952Y-70185714D01*
X176885714Y-70852380D02*
X176314285Y-70852380D01*
X176600000Y-70852380D02*
X176600000Y-69852380D01*
X176504761Y-69995238D01*
X176409523Y-70090476D01*
X176314285Y-70138095D01*
X177314285Y-70757142D02*
X177361904Y-70804761D01*
X177314285Y-70852380D01*
X177266666Y-70804761D01*
X177314285Y-70757142D01*
X177314285Y-70852380D01*
X177980952Y-69852380D02*
X178076190Y-69852380D01*
X178171428Y-69900000D01*
X178219047Y-69947619D01*
X178266666Y-70042857D01*
X178314285Y-70233333D01*
X178314285Y-70471428D01*
X178266666Y-70661904D01*
X178219047Y-70757142D01*
X178171428Y-70804761D01*
X178076190Y-70852380D01*
X177980952Y-70852380D01*
X177885714Y-70804761D01*
X177838095Y-70757142D01*
X177790476Y-70661904D01*
X177742857Y-70471428D01*
X177742857Y-70233333D01*
X177790476Y-70042857D01*
X177838095Y-69947619D01*
X177885714Y-69900000D01*
X177980952Y-69852380D01*
X178190476Y-68252380D02*
X177714285Y-68252380D01*
X177714285Y-67252380D01*
X178523809Y-68252380D02*
X178523809Y-67252380D01*
X179000000Y-68252380D02*
X179000000Y-67252380D01*
X179571428Y-68252380D01*
X179571428Y-67252380D01*
X180380952Y-67728571D02*
X180523809Y-67776190D01*
X180571428Y-67823809D01*
X180619047Y-67919047D01*
X180619047Y-68061904D01*
X180571428Y-68157142D01*
X180523809Y-68204761D01*
X180428571Y-68252380D01*
X180047619Y-68252380D01*
X180047619Y-67252380D01*
X180380952Y-67252380D01*
X180476190Y-67300000D01*
X180523809Y-67347619D01*
X180571428Y-67442857D01*
X180571428Y-67538095D01*
X180523809Y-67633333D01*
X180476190Y-67680952D01*
X180380952Y-67728571D01*
X180047619Y-67728571D01*
X181476190Y-67585714D02*
X181476190Y-68252380D01*
X181047619Y-67585714D02*
X181047619Y-68109523D01*
X181095238Y-68204761D01*
X181190476Y-68252380D01*
X181333333Y-68252380D01*
X181428571Y-68204761D01*
X181476190Y-68157142D01*
X181904761Y-68204761D02*
X182000000Y-68252380D01*
X182190476Y-68252380D01*
X182285714Y-68204761D01*
X182333333Y-68109523D01*
X182333333Y-68061904D01*
X182285714Y-67966666D01*
X182190476Y-67919047D01*
X182047619Y-67919047D01*
X181952380Y-67871428D01*
X181904761Y-67776190D01*
X181904761Y-67728571D01*
X181952380Y-67633333D01*
X182047619Y-67585714D01*
X182190476Y-67585714D01*
X182285714Y-67633333D01*
X209510380Y-92376285D02*
X210510380Y-92042952D01*
X209510380Y-91709619D01*
X210510380Y-90947714D02*
X209986571Y-90947714D01*
X209891333Y-90995333D01*
X209843714Y-91090571D01*
X209843714Y-91281047D01*
X209891333Y-91376285D01*
X210462761Y-90947714D02*
X210510380Y-91042952D01*
X210510380Y-91281047D01*
X210462761Y-91376285D01*
X210367523Y-91423904D01*
X210272285Y-91423904D01*
X210177047Y-91376285D01*
X210129428Y-91281047D01*
X210129428Y-91042952D01*
X210081809Y-90947714D01*
X210510380Y-90328666D02*
X210462761Y-90423904D01*
X210367523Y-90471523D01*
X209510380Y-90471523D01*
X209843714Y-90042952D02*
X210510380Y-89804857D01*
X209843714Y-89566761D01*
X210462761Y-88804857D02*
X210510380Y-88900095D01*
X210510380Y-89090571D01*
X210462761Y-89185809D01*
X210367523Y-89233428D01*
X209986571Y-89233428D01*
X209891333Y-89185809D01*
X209843714Y-89090571D01*
X209843714Y-88900095D01*
X209891333Y-88804857D01*
X209986571Y-88757238D01*
X210081809Y-88757238D01*
X210177047Y-89233428D01*
X210510380Y-87042952D02*
X210510380Y-87614380D01*
X210510380Y-87328666D02*
X209510380Y-87328666D01*
X209653238Y-87423904D01*
X209748476Y-87519142D01*
X209796095Y-87614380D01*
X209852380Y-76314285D02*
X210852380Y-75980952D01*
X209852380Y-75647619D01*
X210852380Y-74885714D02*
X210328571Y-74885714D01*
X210233333Y-74933333D01*
X210185714Y-75028571D01*
X210185714Y-75219047D01*
X210233333Y-75314285D01*
X210804761Y-74885714D02*
X210852380Y-74980952D01*
X210852380Y-75219047D01*
X210804761Y-75314285D01*
X210709523Y-75361904D01*
X210614285Y-75361904D01*
X210519047Y-75314285D01*
X210471428Y-75219047D01*
X210471428Y-74980952D01*
X210423809Y-74885714D01*
X210852380Y-74266666D02*
X210804761Y-74361904D01*
X210709523Y-74409523D01*
X209852380Y-74409523D01*
X210185714Y-73980952D02*
X210852380Y-73742857D01*
X210185714Y-73504761D01*
X210804761Y-72742857D02*
X210852380Y-72838095D01*
X210852380Y-73028571D01*
X210804761Y-73123809D01*
X210709523Y-73171428D01*
X210328571Y-73171428D01*
X210233333Y-73123809D01*
X210185714Y-73028571D01*
X210185714Y-72838095D01*
X210233333Y-72742857D01*
X210328571Y-72695238D01*
X210423809Y-72695238D01*
X210519047Y-73171428D01*
X209947619Y-71552380D02*
X209900000Y-71504761D01*
X209852380Y-71409523D01*
X209852380Y-71171428D01*
X209900000Y-71076190D01*
X209947619Y-71028571D01*
X210042857Y-70980952D01*
X210138095Y-70980952D01*
X210280952Y-71028571D01*
X210852380Y-71600000D01*
X210852380Y-70980952D01*
X166766666Y-67957142D02*
X166719047Y-68004761D01*
X166576190Y-68052380D01*
X166480952Y-68052380D01*
X166338095Y-68004761D01*
X166242857Y-67909523D01*
X166195238Y-67814285D01*
X166147619Y-67623809D01*
X166147619Y-67480952D01*
X166195238Y-67290476D01*
X166242857Y-67195238D01*
X166338095Y-67100000D01*
X166480952Y-67052380D01*
X166576190Y-67052380D01*
X166719047Y-67100000D01*
X166766666Y-67147619D01*
X167338095Y-68052380D02*
X167242857Y-68004761D01*
X167195238Y-67957142D01*
X167147619Y-67861904D01*
X167147619Y-67576190D01*
X167195238Y-67480952D01*
X167242857Y-67433333D01*
X167338095Y-67385714D01*
X167480952Y-67385714D01*
X167576190Y-67433333D01*
X167623809Y-67480952D01*
X167671428Y-67576190D01*
X167671428Y-67861904D01*
X167623809Y-67957142D01*
X167576190Y-68004761D01*
X167480952Y-68052380D01*
X167338095Y-68052380D01*
X168242857Y-68052380D02*
X168147619Y-68004761D01*
X168100000Y-67957142D01*
X168052380Y-67861904D01*
X168052380Y-67576190D01*
X168100000Y-67480952D01*
X168147619Y-67433333D01*
X168242857Y-67385714D01*
X168385714Y-67385714D01*
X168480952Y-67433333D01*
X168528571Y-67480952D01*
X168576190Y-67576190D01*
X168576190Y-67861904D01*
X168528571Y-67957142D01*
X168480952Y-68004761D01*
X168385714Y-68052380D01*
X168242857Y-68052380D01*
X169147619Y-68052380D02*
X169052380Y-68004761D01*
X169004761Y-67909523D01*
X169004761Y-67052380D01*
X169957142Y-68052380D02*
X169957142Y-67528571D01*
X169909523Y-67433333D01*
X169814285Y-67385714D01*
X169623809Y-67385714D01*
X169528571Y-67433333D01*
X169957142Y-68004761D02*
X169861904Y-68052380D01*
X169623809Y-68052380D01*
X169528571Y-68004761D01*
X169480952Y-67909523D01*
X169480952Y-67814285D01*
X169528571Y-67719047D01*
X169623809Y-67671428D01*
X169861904Y-67671428D01*
X169957142Y-67623809D01*
X170433333Y-67385714D02*
X170433333Y-68052380D01*
X170433333Y-67480952D02*
X170480952Y-67433333D01*
X170576190Y-67385714D01*
X170719047Y-67385714D01*
X170814285Y-67433333D01*
X170861904Y-67528571D01*
X170861904Y-68052380D01*
X171195238Y-67385714D02*
X171576190Y-67385714D01*
X171338095Y-67052380D02*
X171338095Y-67909523D01*
X171385714Y-68004761D01*
X171480952Y-68052380D01*
X171576190Y-68052380D01*
X172671428Y-68052380D02*
X172671428Y-67052380D01*
X173242857Y-68052380D01*
X173242857Y-67052380D01*
X173576190Y-67052380D02*
X174147619Y-67052380D01*
X173861904Y-68052380D02*
X173861904Y-67052380D01*
X175052380Y-67957142D02*
X175004761Y-68004761D01*
X174861904Y-68052380D01*
X174766666Y-68052380D01*
X174623809Y-68004761D01*
X174528571Y-67909523D01*
X174480952Y-67814285D01*
X174433333Y-67623809D01*
X174433333Y-67480952D01*
X174480952Y-67290476D01*
X174528571Y-67195238D01*
X174623809Y-67100000D01*
X174766666Y-67052380D01*
X174861904Y-67052380D01*
X175004761Y-67100000D01*
X175052380Y-67147619D01*
X158619047Y-73333333D02*
X158571428Y-73285714D01*
X158476190Y-73142857D01*
X158428571Y-73047619D01*
X158380952Y-72904761D01*
X158333333Y-72666666D01*
X158333333Y-72476190D01*
X158380952Y-72238095D01*
X158428571Y-72095238D01*
X158476190Y-72000000D01*
X158571428Y-71857142D01*
X158619047Y-71809523D01*
X159428571Y-72904761D02*
X159333333Y-72952380D01*
X159142857Y-72952380D01*
X159047619Y-72904761D01*
X159000000Y-72857142D01*
X158952380Y-72761904D01*
X158952380Y-72476190D01*
X159000000Y-72380952D01*
X159047619Y-72333333D01*
X159142857Y-72285714D01*
X159333333Y-72285714D01*
X159428571Y-72333333D01*
X159761904Y-73333333D02*
X159809523Y-73285714D01*
X159904761Y-73142857D01*
X159952380Y-73047619D01*
X160000000Y-72904761D01*
X160047619Y-72666666D01*
X160047619Y-72476190D01*
X160000000Y-72238095D01*
X159952380Y-72095238D01*
X159904761Y-72000000D01*
X159809523Y-71857142D01*
X159761904Y-71809523D01*
X161238095Y-72047619D02*
X161285714Y-72000000D01*
X161380952Y-71952380D01*
X161619047Y-71952380D01*
X161714285Y-72000000D01*
X161761904Y-72047619D01*
X161809523Y-72142857D01*
X161809523Y-72238095D01*
X161761904Y-72380952D01*
X161190476Y-72952380D01*
X161809523Y-72952380D01*
X162428571Y-71952380D02*
X162523809Y-71952380D01*
X162619047Y-72000000D01*
X162666666Y-72047619D01*
X162714285Y-72142857D01*
X162761904Y-72333333D01*
X162761904Y-72571428D01*
X162714285Y-72761904D01*
X162666666Y-72857142D01*
X162619047Y-72904761D01*
X162523809Y-72952380D01*
X162428571Y-72952380D01*
X162333333Y-72904761D01*
X162285714Y-72857142D01*
X162238095Y-72761904D01*
X162190476Y-72571428D01*
X162190476Y-72333333D01*
X162238095Y-72142857D01*
X162285714Y-72047619D01*
X162333333Y-72000000D01*
X162428571Y-71952380D01*
X163142857Y-72047619D02*
X163190476Y-72000000D01*
X163285714Y-71952380D01*
X163523809Y-71952380D01*
X163619047Y-72000000D01*
X163666666Y-72047619D01*
X163714285Y-72142857D01*
X163714285Y-72238095D01*
X163666666Y-72380952D01*
X163095238Y-72952380D01*
X163714285Y-72952380D01*
X164047619Y-71952380D02*
X164666666Y-71952380D01*
X164333333Y-72333333D01*
X164476190Y-72333333D01*
X164571428Y-72380952D01*
X164619047Y-72428571D01*
X164666666Y-72523809D01*
X164666666Y-72761904D01*
X164619047Y-72857142D01*
X164571428Y-72904761D01*
X164476190Y-72952380D01*
X164190476Y-72952380D01*
X164095238Y-72904761D01*
X164047619Y-72857142D01*
X166380952Y-72000000D02*
X166285714Y-71952380D01*
X166142857Y-71952380D01*
X166000000Y-72000000D01*
X165904761Y-72095238D01*
X165857142Y-72190476D01*
X165809523Y-72380952D01*
X165809523Y-72523809D01*
X165857142Y-72714285D01*
X165904761Y-72809523D01*
X166000000Y-72904761D01*
X166142857Y-72952380D01*
X166238095Y-72952380D01*
X166380952Y-72904761D01*
X166428571Y-72857142D01*
X166428571Y-72523809D01*
X166238095Y-72523809D01*
X167285714Y-72952380D02*
X167285714Y-72428571D01*
X167238095Y-72333333D01*
X167142857Y-72285714D01*
X166952380Y-72285714D01*
X166857142Y-72333333D01*
X167285714Y-72904761D02*
X167190476Y-72952380D01*
X166952380Y-72952380D01*
X166857142Y-72904761D01*
X166809523Y-72809523D01*
X166809523Y-72714285D01*
X166857142Y-72619047D01*
X166952380Y-72571428D01*
X167190476Y-72571428D01*
X167285714Y-72523809D01*
X167666666Y-72285714D02*
X167904761Y-72952380D01*
X168142857Y-72285714D01*
X168523809Y-72952380D02*
X168523809Y-72285714D01*
X168523809Y-71952380D02*
X168476190Y-72000000D01*
X168523809Y-72047619D01*
X168571428Y-72000000D01*
X168523809Y-71952380D01*
X168523809Y-72047619D01*
X169000000Y-72285714D02*
X169000000Y-72952380D01*
X169000000Y-72380952D02*
X169047619Y-72333333D01*
X169142857Y-72285714D01*
X169285714Y-72285714D01*
X169380952Y-72333333D01*
X169428571Y-72428571D01*
X169428571Y-72952380D01*
X170666666Y-72952380D02*
X170666666Y-71952380D01*
X170666666Y-72428571D02*
X171238095Y-72428571D01*
X171238095Y-72952380D02*
X171238095Y-71952380D01*
X172142857Y-72285714D02*
X172142857Y-72952380D01*
X171714285Y-72285714D02*
X171714285Y-72809523D01*
X171761904Y-72904761D01*
X171857142Y-72952380D01*
X172000000Y-72952380D01*
X172095238Y-72904761D01*
X172142857Y-72857142D01*
X172619047Y-72952380D02*
X172619047Y-72285714D01*
X172619047Y-72476190D02*
X172666666Y-72380952D01*
X172714285Y-72333333D01*
X172809523Y-72285714D01*
X172904761Y-72285714D01*
X173380952Y-72952380D02*
X173285714Y-72904761D01*
X173238095Y-72809523D01*
X173238095Y-71952380D01*
X173761904Y-72952380D02*
X173761904Y-71952380D01*
X173761904Y-72333333D02*
X173857142Y-72285714D01*
X174047619Y-72285714D01*
X174142857Y-72333333D01*
X174190476Y-72380952D01*
X174238095Y-72476190D01*
X174238095Y-72761904D01*
X174190476Y-72857142D01*
X174142857Y-72904761D01*
X174047619Y-72952380D01*
X173857142Y-72952380D01*
X173761904Y-72904761D01*
X175095238Y-72285714D02*
X175095238Y-72952380D01*
X174666666Y-72285714D02*
X174666666Y-72809523D01*
X174714285Y-72904761D01*
X174809523Y-72952380D01*
X174952380Y-72952380D01*
X175047619Y-72904761D01*
X175095238Y-72857142D01*
X175428571Y-72285714D02*
X175809523Y-72285714D01*
X175571428Y-71952380D02*
X175571428Y-72809523D01*
X175619047Y-72904761D01*
X175714285Y-72952380D01*
X175809523Y-72952380D01*
X199000000Y-68452142D02*
X198952380Y-68499761D01*
X198809523Y-68547380D01*
X198714285Y-68547380D01*
X198571428Y-68499761D01*
X198476190Y-68404523D01*
X198428571Y-68309285D01*
X198380952Y-68118809D01*
X198380952Y-67975952D01*
X198428571Y-67785476D01*
X198476190Y-67690238D01*
X198571428Y-67595000D01*
X198714285Y-67547380D01*
X198809523Y-67547380D01*
X198952380Y-67595000D01*
X199000000Y-67642619D01*
X199571428Y-68547380D02*
X199476190Y-68499761D01*
X199428571Y-68452142D01*
X199380952Y-68356904D01*
X199380952Y-68071190D01*
X199428571Y-67975952D01*
X199476190Y-67928333D01*
X199571428Y-67880714D01*
X199714285Y-67880714D01*
X199809523Y-67928333D01*
X199857142Y-67975952D01*
X199904761Y-68071190D01*
X199904761Y-68356904D01*
X199857142Y-68452142D01*
X199809523Y-68499761D01*
X199714285Y-68547380D01*
X199571428Y-68547380D01*
X200476190Y-68547380D02*
X200380952Y-68499761D01*
X200333333Y-68452142D01*
X200285714Y-68356904D01*
X200285714Y-68071190D01*
X200333333Y-67975952D01*
X200380952Y-67928333D01*
X200476190Y-67880714D01*
X200619047Y-67880714D01*
X200714285Y-67928333D01*
X200761904Y-67975952D01*
X200809523Y-68071190D01*
X200809523Y-68356904D01*
X200761904Y-68452142D01*
X200714285Y-68499761D01*
X200619047Y-68547380D01*
X200476190Y-68547380D01*
X201380952Y-68547380D02*
X201285714Y-68499761D01*
X201238095Y-68404523D01*
X201238095Y-67547380D01*
X201761904Y-68547380D02*
X201761904Y-67880714D01*
X201761904Y-67547380D02*
X201714285Y-67595000D01*
X201761904Y-67642619D01*
X201809523Y-67595000D01*
X201761904Y-67547380D01*
X201761904Y-67642619D01*
X202238095Y-67880714D02*
X202238095Y-68547380D01*
X202238095Y-67975952D02*
X202285714Y-67928333D01*
X202380952Y-67880714D01*
X202523809Y-67880714D01*
X202619047Y-67928333D01*
X202666666Y-68023571D01*
X202666666Y-68547380D01*
X203571428Y-67880714D02*
X203571428Y-68690238D01*
X203523809Y-68785476D01*
X203476190Y-68833095D01*
X203380952Y-68880714D01*
X203238095Y-68880714D01*
X203142857Y-68833095D01*
X203571428Y-68499761D02*
X203476190Y-68547380D01*
X203285714Y-68547380D01*
X203190476Y-68499761D01*
X203142857Y-68452142D01*
X203095238Y-68356904D01*
X203095238Y-68071190D01*
X203142857Y-67975952D01*
X203190476Y-67928333D01*
X203285714Y-67880714D01*
X203476190Y-67880714D01*
X203571428Y-67928333D01*
X200238095Y-69633571D02*
X199904761Y-69633571D01*
X199904761Y-70157380D02*
X199904761Y-69157380D01*
X200380952Y-69157380D01*
X201190476Y-70157380D02*
X201190476Y-69633571D01*
X201142857Y-69538333D01*
X201047619Y-69490714D01*
X200857142Y-69490714D01*
X200761904Y-69538333D01*
X201190476Y-70109761D02*
X201095238Y-70157380D01*
X200857142Y-70157380D01*
X200761904Y-70109761D01*
X200714285Y-70014523D01*
X200714285Y-69919285D01*
X200761904Y-69824047D01*
X200857142Y-69776428D01*
X201095238Y-69776428D01*
X201190476Y-69728809D01*
X201666666Y-69490714D02*
X201666666Y-70157380D01*
X201666666Y-69585952D02*
X201714285Y-69538333D01*
X201809523Y-69490714D01*
X201952380Y-69490714D01*
X202047619Y-69538333D01*
X202095238Y-69633571D01*
X202095238Y-70157380D01*
X156100000Y-67492571D02*
X155766666Y-67492571D01*
X155766666Y-68016380D02*
X155766666Y-67016380D01*
X156242857Y-67016380D01*
X156766666Y-68016380D02*
X156671428Y-67968761D01*
X156623809Y-67873523D01*
X156623809Y-67016380D01*
X157290476Y-68016380D02*
X157195238Y-67968761D01*
X157147619Y-67921142D01*
X157100000Y-67825904D01*
X157100000Y-67540190D01*
X157147619Y-67444952D01*
X157195238Y-67397333D01*
X157290476Y-67349714D01*
X157433333Y-67349714D01*
X157528571Y-67397333D01*
X157576190Y-67444952D01*
X157623809Y-67540190D01*
X157623809Y-67825904D01*
X157576190Y-67921142D01*
X157528571Y-67968761D01*
X157433333Y-68016380D01*
X157290476Y-68016380D01*
X157957142Y-67349714D02*
X158147619Y-68016380D01*
X158338095Y-67540190D01*
X158528571Y-68016380D01*
X158719047Y-67349714D01*
X159814285Y-67968761D02*
X159957142Y-68016380D01*
X160195238Y-68016380D01*
X160290476Y-67968761D01*
X160338095Y-67921142D01*
X160385714Y-67825904D01*
X160385714Y-67730666D01*
X160338095Y-67635428D01*
X160290476Y-67587809D01*
X160195238Y-67540190D01*
X160004761Y-67492571D01*
X159909523Y-67444952D01*
X159861904Y-67397333D01*
X159814285Y-67302095D01*
X159814285Y-67206857D01*
X159861904Y-67111619D01*
X159909523Y-67064000D01*
X160004761Y-67016380D01*
X160242857Y-67016380D01*
X160385714Y-67064000D01*
X161195238Y-67968761D02*
X161100000Y-68016380D01*
X160909523Y-68016380D01*
X160814285Y-67968761D01*
X160766666Y-67873523D01*
X160766666Y-67492571D01*
X160814285Y-67397333D01*
X160909523Y-67349714D01*
X161100000Y-67349714D01*
X161195238Y-67397333D01*
X161242857Y-67492571D01*
X161242857Y-67587809D01*
X160766666Y-67683047D01*
X161671428Y-67349714D02*
X161671428Y-68016380D01*
X161671428Y-67444952D02*
X161719047Y-67397333D01*
X161814285Y-67349714D01*
X161957142Y-67349714D01*
X162052380Y-67397333D01*
X162100000Y-67492571D01*
X162100000Y-68016380D01*
X162528571Y-67968761D02*
X162623809Y-68016380D01*
X162814285Y-68016380D01*
X162909523Y-67968761D01*
X162957142Y-67873523D01*
X162957142Y-67825904D01*
X162909523Y-67730666D01*
X162814285Y-67683047D01*
X162671428Y-67683047D01*
X162576190Y-67635428D01*
X162528571Y-67540190D01*
X162528571Y-67492571D01*
X162576190Y-67397333D01*
X162671428Y-67349714D01*
X162814285Y-67349714D01*
X162909523Y-67397333D01*
X163528571Y-68016380D02*
X163433333Y-67968761D01*
X163385714Y-67921142D01*
X163338095Y-67825904D01*
X163338095Y-67540190D01*
X163385714Y-67444952D01*
X163433333Y-67397333D01*
X163528571Y-67349714D01*
X163671428Y-67349714D01*
X163766666Y-67397333D01*
X163814285Y-67444952D01*
X163861904Y-67540190D01*
X163861904Y-67825904D01*
X163814285Y-67921142D01*
X163766666Y-67968761D01*
X163671428Y-68016380D01*
X163528571Y-68016380D01*
X164290476Y-68016380D02*
X164290476Y-67349714D01*
X164290476Y-67540190D02*
X164338095Y-67444952D01*
X164385714Y-67397333D01*
X164480952Y-67349714D01*
X164576190Y-67349714D01*
%TO.C,J8*%
X153566666Y-80752380D02*
X153566666Y-81466666D01*
X153519047Y-81609523D01*
X153423809Y-81704761D01*
X153280952Y-81752380D01*
X153185714Y-81752380D01*
X154185714Y-81180952D02*
X154090476Y-81133333D01*
X154042857Y-81085714D01*
X153995238Y-80990476D01*
X153995238Y-80942857D01*
X154042857Y-80847619D01*
X154090476Y-80800000D01*
X154185714Y-80752380D01*
X154376190Y-80752380D01*
X154471428Y-80800000D01*
X154519047Y-80847619D01*
X154566666Y-80942857D01*
X154566666Y-80990476D01*
X154519047Y-81085714D01*
X154471428Y-81133333D01*
X154376190Y-81180952D01*
X154185714Y-81180952D01*
X154090476Y-81228571D01*
X154042857Y-81276190D01*
X153995238Y-81371428D01*
X153995238Y-81561904D01*
X154042857Y-81657142D01*
X154090476Y-81704761D01*
X154185714Y-81752380D01*
X154376190Y-81752380D01*
X154471428Y-81704761D01*
X154519047Y-81657142D01*
X154566666Y-81561904D01*
X154566666Y-81371428D01*
X154519047Y-81276190D01*
X154471428Y-81228571D01*
X154376190Y-81180952D01*
%TO.C,R15*%
X182457142Y-79002380D02*
X182123809Y-78526190D01*
X181885714Y-79002380D02*
X181885714Y-78002380D01*
X182266666Y-78002380D01*
X182361904Y-78050000D01*
X182409523Y-78097619D01*
X182457142Y-78192857D01*
X182457142Y-78335714D01*
X182409523Y-78430952D01*
X182361904Y-78478571D01*
X182266666Y-78526190D01*
X181885714Y-78526190D01*
X183409523Y-79002380D02*
X182838095Y-79002380D01*
X183123809Y-79002380D02*
X183123809Y-78002380D01*
X183028571Y-78145238D01*
X182933333Y-78240476D01*
X182838095Y-78288095D01*
X184314285Y-78002380D02*
X183838095Y-78002380D01*
X183790476Y-78478571D01*
X183838095Y-78430952D01*
X183933333Y-78383333D01*
X184171428Y-78383333D01*
X184266666Y-78430952D01*
X184314285Y-78478571D01*
X184361904Y-78573809D01*
X184361904Y-78811904D01*
X184314285Y-78907142D01*
X184266666Y-78954761D01*
X184171428Y-79002380D01*
X183933333Y-79002380D01*
X183838095Y-78954761D01*
X183790476Y-78907142D01*
%TO.C,R14*%
X172952380Y-95542857D02*
X172476190Y-95876190D01*
X172952380Y-96114285D02*
X171952380Y-96114285D01*
X171952380Y-95733333D01*
X172000000Y-95638095D01*
X172047619Y-95590476D01*
X172142857Y-95542857D01*
X172285714Y-95542857D01*
X172380952Y-95590476D01*
X172428571Y-95638095D01*
X172476190Y-95733333D01*
X172476190Y-96114285D01*
X172952380Y-94590476D02*
X172952380Y-95161904D01*
X172952380Y-94876190D02*
X171952380Y-94876190D01*
X172095238Y-94971428D01*
X172190476Y-95066666D01*
X172238095Y-95161904D01*
X172285714Y-93733333D02*
X172952380Y-93733333D01*
X171904761Y-93971428D02*
X172619047Y-94209523D01*
X172619047Y-93590476D01*
%TO.C,Q6*%
X212747619Y-60295238D02*
X212700000Y-60390476D01*
X212604761Y-60485714D01*
X212461904Y-60628571D01*
X212414285Y-60723809D01*
X212414285Y-60819047D01*
X212652380Y-60771428D02*
X212604761Y-60866666D01*
X212509523Y-60961904D01*
X212319047Y-61009523D01*
X211985714Y-61009523D01*
X211795238Y-60961904D01*
X211700000Y-60866666D01*
X211652380Y-60771428D01*
X211652380Y-60580952D01*
X211700000Y-60485714D01*
X211795238Y-60390476D01*
X211985714Y-60342857D01*
X212319047Y-60342857D01*
X212509523Y-60390476D01*
X212604761Y-60485714D01*
X212652380Y-60580952D01*
X212652380Y-60771428D01*
X211652380Y-59485714D02*
X211652380Y-59676190D01*
X211700000Y-59771428D01*
X211747619Y-59819047D01*
X211890476Y-59914285D01*
X212080952Y-59961904D01*
X212461904Y-59961904D01*
X212557142Y-59914285D01*
X212604761Y-59866666D01*
X212652380Y-59771428D01*
X212652380Y-59580952D01*
X212604761Y-59485714D01*
X212557142Y-59438095D01*
X212461904Y-59390476D01*
X212223809Y-59390476D01*
X212128571Y-59438095D01*
X212080952Y-59485714D01*
X212033333Y-59580952D01*
X212033333Y-59771428D01*
X212080952Y-59866666D01*
X212128571Y-59914285D01*
X212223809Y-59961904D01*
%TO.C,Q5*%
X185247619Y-61195238D02*
X185200000Y-61290476D01*
X185104761Y-61385714D01*
X184961904Y-61528571D01*
X184914285Y-61623809D01*
X184914285Y-61719047D01*
X185152380Y-61671428D02*
X185104761Y-61766666D01*
X185009523Y-61861904D01*
X184819047Y-61909523D01*
X184485714Y-61909523D01*
X184295238Y-61861904D01*
X184200000Y-61766666D01*
X184152380Y-61671428D01*
X184152380Y-61480952D01*
X184200000Y-61385714D01*
X184295238Y-61290476D01*
X184485714Y-61242857D01*
X184819047Y-61242857D01*
X185009523Y-61290476D01*
X185104761Y-61385714D01*
X185152380Y-61480952D01*
X185152380Y-61671428D01*
X184152380Y-60338095D02*
X184152380Y-60814285D01*
X184628571Y-60861904D01*
X184580952Y-60814285D01*
X184533333Y-60719047D01*
X184533333Y-60480952D01*
X184580952Y-60385714D01*
X184628571Y-60338095D01*
X184723809Y-60290476D01*
X184961904Y-60290476D01*
X185057142Y-60338095D01*
X185104761Y-60385714D01*
X185152380Y-60480952D01*
X185152380Y-60719047D01*
X185104761Y-60814285D01*
X185057142Y-60861904D01*
%TO.C,J1*%
X198166666Y-58752380D02*
X198166666Y-59466666D01*
X198119047Y-59609523D01*
X198023809Y-59704761D01*
X197880952Y-59752380D01*
X197785714Y-59752380D01*
X199166666Y-59752380D02*
X198595238Y-59752380D01*
X198880952Y-59752380D02*
X198880952Y-58752380D01*
X198785714Y-58895238D01*
X198690476Y-58990476D01*
X198595238Y-59038095D01*
%TO.C,J2*%
X166052380Y-61833333D02*
X166766666Y-61833333D01*
X166909523Y-61880952D01*
X167004761Y-61976190D01*
X167052380Y-62119047D01*
X167052380Y-62214285D01*
X166147619Y-61404761D02*
X166100000Y-61357142D01*
X166052380Y-61261904D01*
X166052380Y-61023809D01*
X166100000Y-60928571D01*
X166147619Y-60880952D01*
X166242857Y-60833333D01*
X166338095Y-60833333D01*
X166480952Y-60880952D01*
X167052380Y-61452380D01*
X167052380Y-60833333D01*
D11*
%TO.C,J7*%
X216126140Y-99718211D02*
X216126140Y-100153640D01*
X216097111Y-100240725D01*
X216039054Y-100298782D01*
X215951968Y-100327811D01*
X215893911Y-100327811D01*
X216358368Y-99718211D02*
X216764768Y-99718211D01*
X216503511Y-100327811D01*
D12*
X223437711Y-93825411D02*
X221761311Y-93825411D01*
X221761311Y-93426268D01*
X221841140Y-93186782D01*
X222000797Y-93027125D01*
X222160454Y-92947297D01*
X222479768Y-92867468D01*
X222719254Y-92867468D01*
X223038568Y-92947297D01*
X223198225Y-93027125D01*
X223357882Y-93186782D01*
X223437711Y-93426268D01*
X223437711Y-93825411D01*
X223437711Y-92149011D02*
X221761311Y-92149011D01*
X223437711Y-91350725D02*
X221761311Y-91350725D01*
X223437711Y-90392782D01*
X221761311Y-90392782D01*
X222799082Y-89594497D02*
X222799082Y-88317240D01*
X221761311Y-86720668D02*
X221761311Y-87518954D01*
X222559597Y-87598782D01*
X222479768Y-87518954D01*
X222399940Y-87359297D01*
X222399940Y-86960154D01*
X222479768Y-86800497D01*
X222559597Y-86720668D01*
X222719254Y-86640840D01*
X223118397Y-86640840D01*
X223278054Y-86720668D01*
X223357882Y-86800497D01*
X223437711Y-86960154D01*
X223437711Y-87359297D01*
X223357882Y-87518954D01*
X223278054Y-87598782D01*
D10*
%TO.C,U2*%
X204216095Y-82404380D02*
X204216095Y-83213904D01*
X204263714Y-83309142D01*
X204311333Y-83356761D01*
X204406571Y-83404380D01*
X204597047Y-83404380D01*
X204692285Y-83356761D01*
X204739904Y-83309142D01*
X204787523Y-83213904D01*
X204787523Y-82404380D01*
X205216095Y-82499619D02*
X205263714Y-82452000D01*
X205358952Y-82404380D01*
X205597047Y-82404380D01*
X205692285Y-82452000D01*
X205739904Y-82499619D01*
X205787523Y-82594857D01*
X205787523Y-82690095D01*
X205739904Y-82832952D01*
X205168476Y-83404380D01*
X205787523Y-83404380D01*
X208000000Y-83047619D02*
X208000000Y-82809523D01*
X208238095Y-82904761D02*
X208000000Y-82809523D01*
X207761904Y-82904761D01*
X208142857Y-82619047D02*
X208000000Y-82809523D01*
X207857142Y-82619047D01*
%TO.C,R8*%
X205133333Y-76132380D02*
X204800000Y-75656190D01*
X204561904Y-76132380D02*
X204561904Y-75132380D01*
X204942857Y-75132380D01*
X205038095Y-75180000D01*
X205085714Y-75227619D01*
X205133333Y-75322857D01*
X205133333Y-75465714D01*
X205085714Y-75560952D01*
X205038095Y-75608571D01*
X204942857Y-75656190D01*
X204561904Y-75656190D01*
X205704761Y-75560952D02*
X205609523Y-75513333D01*
X205561904Y-75465714D01*
X205514285Y-75370476D01*
X205514285Y-75322857D01*
X205561904Y-75227619D01*
X205609523Y-75180000D01*
X205704761Y-75132380D01*
X205895238Y-75132380D01*
X205990476Y-75180000D01*
X206038095Y-75227619D01*
X206085714Y-75322857D01*
X206085714Y-75370476D01*
X206038095Y-75465714D01*
X205990476Y-75513333D01*
X205895238Y-75560952D01*
X205704761Y-75560952D01*
X205609523Y-75608571D01*
X205561904Y-75656190D01*
X205514285Y-75751428D01*
X205514285Y-75941904D01*
X205561904Y-76037142D01*
X205609523Y-76084761D01*
X205704761Y-76132380D01*
X205895238Y-76132380D01*
X205990476Y-76084761D01*
X206038095Y-76037142D01*
X206085714Y-75941904D01*
X206085714Y-75751428D01*
X206038095Y-75656190D01*
X205990476Y-75608571D01*
X205895238Y-75560952D01*
%TO.C,J5*%
X155252380Y-61633333D02*
X155966666Y-61633333D01*
X156109523Y-61680952D01*
X156204761Y-61776190D01*
X156252380Y-61919047D01*
X156252380Y-62014285D01*
X155252380Y-60680952D02*
X155252380Y-61157142D01*
X155728571Y-61204761D01*
X155680952Y-61157142D01*
X155633333Y-61061904D01*
X155633333Y-60823809D01*
X155680952Y-60728571D01*
X155728571Y-60680952D01*
X155823809Y-60633333D01*
X156061904Y-60633333D01*
X156157142Y-60680952D01*
X156204761Y-60728571D01*
X156252380Y-60823809D01*
X156252380Y-61061904D01*
X156204761Y-61157142D01*
X156157142Y-61204761D01*
%TO.C,U3*%
X187568380Y-75437904D02*
X188377904Y-75437904D01*
X188473142Y-75390285D01*
X188520761Y-75342666D01*
X188568380Y-75247428D01*
X188568380Y-75056952D01*
X188520761Y-74961714D01*
X188473142Y-74914095D01*
X188377904Y-74866476D01*
X187568380Y-74866476D01*
X187568380Y-74485523D02*
X187568380Y-73866476D01*
X187949333Y-74199809D01*
X187949333Y-74056952D01*
X187996952Y-73961714D01*
X188044571Y-73914095D01*
X188139809Y-73866476D01*
X188377904Y-73866476D01*
X188473142Y-73914095D01*
X188520761Y-73961714D01*
X188568380Y-74056952D01*
X188568380Y-74342666D01*
X188520761Y-74437904D01*
X188473142Y-74485523D01*
X188552380Y-78800000D02*
X188790476Y-78800000D01*
X188695238Y-79038095D02*
X188790476Y-78800000D01*
X188695238Y-78561904D01*
X188980952Y-78942857D02*
X188790476Y-78800000D01*
X188980952Y-78657142D01*
%TO.C,J4*%
X174052380Y-62333333D02*
X174766666Y-62333333D01*
X174909523Y-62380952D01*
X175004761Y-62476190D01*
X175052380Y-62619047D01*
X175052380Y-62714285D01*
X174385714Y-61428571D02*
X175052380Y-61428571D01*
X174004761Y-61666666D02*
X174719047Y-61904761D01*
X174719047Y-61285714D01*
D11*
%TO.C,J3*%
X201182251Y-96119360D02*
X201617680Y-96119360D01*
X201704765Y-96148388D01*
X201762822Y-96206445D01*
X201791851Y-96293531D01*
X201791851Y-96351588D01*
X201182251Y-95887131D02*
X201182251Y-95509760D01*
X201414480Y-95712960D01*
X201414480Y-95625874D01*
X201443508Y-95567817D01*
X201472537Y-95538788D01*
X201530594Y-95509760D01*
X201675737Y-95509760D01*
X201733794Y-95538788D01*
X201762822Y-95567817D01*
X201791851Y-95625874D01*
X201791851Y-95800045D01*
X201762822Y-95858102D01*
X201733794Y-95887131D01*
D10*
%TO.C,R5*%
X205133333Y-88032380D02*
X204800000Y-87556190D01*
X204561904Y-88032380D02*
X204561904Y-87032380D01*
X204942857Y-87032380D01*
X205038095Y-87080000D01*
X205085714Y-87127619D01*
X205133333Y-87222857D01*
X205133333Y-87365714D01*
X205085714Y-87460952D01*
X205038095Y-87508571D01*
X204942857Y-87556190D01*
X204561904Y-87556190D01*
X206038095Y-87032380D02*
X205561904Y-87032380D01*
X205514285Y-87508571D01*
X205561904Y-87460952D01*
X205657142Y-87413333D01*
X205895238Y-87413333D01*
X205990476Y-87460952D01*
X206038095Y-87508571D01*
X206085714Y-87603809D01*
X206085714Y-87841904D01*
X206038095Y-87937142D01*
X205990476Y-87984761D01*
X205895238Y-88032380D01*
X205657142Y-88032380D01*
X205561904Y-87984761D01*
X205514285Y-87937142D01*
D11*
%TO.C,J6*%
X216085420Y-79930171D02*
X216085420Y-80365600D01*
X216056391Y-80452685D01*
X215998334Y-80510742D01*
X215911248Y-80539771D01*
X215853191Y-80539771D01*
X216636962Y-79930171D02*
X216520848Y-79930171D01*
X216462791Y-79959200D01*
X216433762Y-79988228D01*
X216375705Y-80075314D01*
X216346677Y-80191428D01*
X216346677Y-80423657D01*
X216375705Y-80481714D01*
X216404734Y-80510742D01*
X216462791Y-80539771D01*
X216578905Y-80539771D01*
X216636962Y-80510742D01*
X216665991Y-80481714D01*
X216695020Y-80423657D01*
X216695020Y-80278514D01*
X216665991Y-80220457D01*
X216636962Y-80191428D01*
X216578905Y-80162400D01*
X216462791Y-80162400D01*
X216404734Y-80191428D01*
X216375705Y-80220457D01*
X216346677Y-80278514D01*
D12*
X223396991Y-74037371D02*
X221720591Y-74037371D01*
X221720591Y-73638228D01*
X221800420Y-73398742D01*
X221960077Y-73239085D01*
X222119734Y-73159257D01*
X222439048Y-73079428D01*
X222678534Y-73079428D01*
X222997848Y-73159257D01*
X223157505Y-73239085D01*
X223317162Y-73398742D01*
X223396991Y-73638228D01*
X223396991Y-74037371D01*
X223396991Y-72360971D02*
X221720591Y-72360971D01*
X223396991Y-71562685D02*
X221720591Y-71562685D01*
X223396991Y-70604742D01*
X221720591Y-70604742D01*
X222758362Y-69806457D02*
X222758362Y-68529200D01*
X221720591Y-66932628D02*
X221720591Y-67730914D01*
X222518877Y-67810742D01*
X222439048Y-67730914D01*
X222359220Y-67571257D01*
X222359220Y-67172114D01*
X222439048Y-67012457D01*
X222518877Y-66932628D01*
X222678534Y-66852800D01*
X223077677Y-66852800D01*
X223237334Y-66932628D01*
X223317162Y-67012457D01*
X223396991Y-67172114D01*
X223396991Y-67571257D01*
X223317162Y-67730914D01*
X223237334Y-67810742D01*
D10*
%TO.C,U1*%
X199350380Y-91195904D02*
X200159904Y-91195904D01*
X200255142Y-91148285D01*
X200302761Y-91100666D01*
X200350380Y-91005428D01*
X200350380Y-90814952D01*
X200302761Y-90719714D01*
X200255142Y-90672095D01*
X200159904Y-90624476D01*
X199350380Y-90624476D01*
X200350380Y-89624476D02*
X200350380Y-90195904D01*
X200350380Y-89910190D02*
X199350380Y-89910190D01*
X199493238Y-90005428D01*
X199588476Y-90100666D01*
X199636095Y-90195904D01*
X196127619Y-80518000D02*
X195889523Y-80518000D01*
X195984761Y-80279904D02*
X195889523Y-80518000D01*
X195984761Y-80756095D01*
X195699047Y-80375142D02*
X195889523Y-80518000D01*
X195699047Y-80660857D01*
X159805619Y-89172095D02*
X158996095Y-89172095D01*
X158900857Y-89219714D01*
X158853238Y-89267333D01*
X158805619Y-89362571D01*
X158805619Y-89553047D01*
X158853238Y-89648285D01*
X158900857Y-89695904D01*
X158996095Y-89743523D01*
X159805619Y-89743523D01*
X158853238Y-90172095D02*
X158805619Y-90314952D01*
X158805619Y-90553047D01*
X158853238Y-90648285D01*
X158900857Y-90695904D01*
X158996095Y-90743523D01*
X159091333Y-90743523D01*
X159186571Y-90695904D01*
X159234190Y-90648285D01*
X159281809Y-90553047D01*
X159329428Y-90362571D01*
X159377047Y-90267333D01*
X159424666Y-90219714D01*
X159519904Y-90172095D01*
X159615142Y-90172095D01*
X159710380Y-90219714D01*
X159758000Y-90267333D01*
X159805619Y-90362571D01*
X159805619Y-90600666D01*
X159758000Y-90743523D01*
X159329428Y-91505428D02*
X159281809Y-91648285D01*
X159234190Y-91695904D01*
X159138952Y-91743523D01*
X158996095Y-91743523D01*
X158900857Y-91695904D01*
X158853238Y-91648285D01*
X158805619Y-91553047D01*
X158805619Y-91172095D01*
X159805619Y-91172095D01*
X159805619Y-91505428D01*
X159758000Y-91600666D01*
X159710380Y-91648285D01*
X159615142Y-91695904D01*
X159519904Y-91695904D01*
X159424666Y-91648285D01*
X159377047Y-91600666D01*
X159329428Y-91505428D01*
X159329428Y-91172095D01*
D13*
%TO.C,J8*%
X156230000Y-72270000D02*
X156230000Y-79950000D01*
X153570000Y-71000000D02*
X153570000Y-69670000D01*
X153570000Y-79950000D02*
X156230000Y-79950000D01*
X153570000Y-72270000D02*
X156230000Y-72270000D01*
X153570000Y-69670000D02*
X154900000Y-69670000D01*
X153570000Y-72270000D02*
X153570000Y-79950000D01*
%TO.C,R15*%
X182872936Y-79465000D02*
X183327064Y-79465000D01*
X182872936Y-80935000D02*
X183327064Y-80935000D01*
%TO.C,R14*%
X174265000Y-94727064D02*
X174265000Y-94272936D01*
X175735000Y-94727064D02*
X175735000Y-94272936D01*
%TO.C,Q6*%
X204125000Y-65595000D02*
X204125000Y-67095000D01*
X204395000Y-67095000D02*
X204395000Y-69925000D01*
X210755000Y-67095000D02*
X210755000Y-68195000D01*
X211025000Y-65595000D02*
X211025000Y-67095000D01*
X204125000Y-67095000D02*
X204395000Y-67095000D01*
X211025000Y-67095000D02*
X210755000Y-67095000D01*
%TO.C,Q5*%
X184925000Y-65495000D02*
X184925000Y-66995000D01*
X185195000Y-66995000D02*
X185195000Y-69825000D01*
X191555000Y-66995000D02*
X191555000Y-68095000D01*
X191825000Y-65495000D02*
X191825000Y-66995000D01*
X184925000Y-66995000D02*
X185195000Y-66995000D01*
X191825000Y-66995000D02*
X191555000Y-66995000D01*
%TO.C,J1*%
X192565000Y-59930000D02*
X203426000Y-59930000D01*
X192325000Y-66910000D02*
X192725000Y-66910000D01*
X203426000Y-59930000D02*
X203426000Y-66670000D01*
X192565000Y-66150000D02*
X203426000Y-66150000D01*
X192325000Y-66270000D02*
X192325000Y-66910000D01*
X192565000Y-61050000D02*
X203426000Y-61050000D01*
X192565000Y-66670000D02*
X203426000Y-66670000D01*
X192565000Y-59930000D02*
X192565000Y-66670000D01*
%TO.C,J2*%
X167680000Y-59730000D02*
X167680000Y-66470000D01*
X167680000Y-59730000D02*
X173460000Y-59730000D01*
X167680000Y-65950000D02*
X173460000Y-65950000D01*
X167440000Y-66710000D02*
X167840000Y-66710000D01*
X167680000Y-66470000D02*
X173460000Y-66470000D01*
X167440000Y-66070000D02*
X167440000Y-66710000D01*
X167680000Y-60850000D02*
X173460000Y-60850000D01*
X173460000Y-59730000D02*
X173460000Y-66470000D01*
D14*
%TO.C,J7*%
X229301120Y-81400820D02*
X229301120Y-79902220D01*
X211300140Y-81400820D02*
X211300140Y-84900940D01*
X211300140Y-92399020D02*
X213799500Y-92399020D01*
X211300140Y-95899140D02*
X213799500Y-95899140D01*
X228201300Y-99399260D02*
X228201300Y-81400820D01*
X211300140Y-99399260D02*
X228201300Y-99399260D01*
X230299340Y-81400820D02*
X229301120Y-81400820D01*
X211300140Y-84900940D02*
X213799500Y-84900940D01*
X213799500Y-84900940D02*
X213799500Y-88401060D01*
X228201300Y-81400820D02*
X211300140Y-81400820D01*
X211300140Y-88401060D02*
X213799500Y-88401060D01*
X230299340Y-100897860D02*
X230299340Y-81400820D01*
X211300140Y-95899140D02*
X211300140Y-99399260D01*
X229301120Y-99399260D02*
X229301120Y-100897860D01*
X228300360Y-99399260D02*
X229301120Y-99399260D01*
X213799500Y-92399020D02*
X213799500Y-95899140D01*
X211300140Y-88401060D02*
X211300140Y-92399020D01*
X229301120Y-100897860D02*
X230299340Y-100897860D01*
X228201300Y-79902220D02*
X228201300Y-81400820D01*
X229301120Y-79902220D02*
X228201300Y-79902220D01*
%TO.C,G\u002A\u002A\u002A*%
G36*
X171582926Y-79239382D02*
G01*
X171662984Y-79244692D01*
X171728435Y-79259344D01*
X171773583Y-79281691D01*
X171789040Y-79298980D01*
X171803326Y-79349071D01*
X171801165Y-79404603D01*
X171783818Y-79451998D01*
X171773617Y-79464939D01*
X171753758Y-79487385D01*
X171752339Y-79505444D01*
X171768885Y-79532915D01*
X171771157Y-79536203D01*
X171799616Y-79578505D01*
X171810723Y-79601892D01*
X171804421Y-79611965D01*
X171780654Y-79614329D01*
X171770377Y-79614372D01*
X171734131Y-79609925D01*
X171710974Y-79591083D01*
X171694719Y-79561862D01*
X171672768Y-79525896D01*
X171646802Y-79511234D01*
X171624427Y-79509352D01*
X171594028Y-79512255D01*
X171581560Y-79527033D01*
X171579176Y-79561862D01*
X171576373Y-79597373D01*
X171563763Y-79611910D01*
X171541668Y-79614372D01*
X171504161Y-79614372D01*
X171504161Y-79436062D01*
X171579176Y-79436062D01*
X171641410Y-79431449D01*
X171692159Y-79420895D01*
X171720099Y-79400580D01*
X171728771Y-79366141D01*
X171710707Y-79338558D01*
X171668960Y-79321065D01*
X171641410Y-79317201D01*
X171579176Y-79312588D01*
X171579176Y-79436062D01*
X171504161Y-79436062D01*
X171504161Y-79239298D01*
X171582926Y-79239382D01*
G37*
G36*
X162007291Y-76703799D02*
G01*
X162007291Y-76995332D01*
X161928526Y-76918548D01*
X161811440Y-76821664D01*
X161681670Y-76748848D01*
X161602212Y-76717343D01*
X161524915Y-76698369D01*
X161427541Y-76686239D01*
X161319255Y-76681078D01*
X161209224Y-76683013D01*
X161106615Y-76692170D01*
X161020594Y-76708677D01*
X161018395Y-76709279D01*
X160855015Y-76769453D01*
X160707789Y-76854588D01*
X160578140Y-76963503D01*
X160467492Y-77095016D01*
X160382972Y-77236404D01*
X160326558Y-77375438D01*
X160285603Y-77532842D01*
X160261375Y-77700551D01*
X160255139Y-77870498D01*
X160263411Y-77997939D01*
X160279682Y-78118552D01*
X160299901Y-78219465D01*
X160326948Y-78310965D01*
X160363705Y-78403341D01*
X160396811Y-78474148D01*
X160481610Y-78616510D01*
X160587152Y-78741663D01*
X160709695Y-78845808D01*
X160837061Y-78921162D01*
X161000639Y-78984163D01*
X161172670Y-79019830D01*
X161328374Y-79029257D01*
X161492786Y-79016131D01*
X161643422Y-78976996D01*
X161779321Y-78912219D01*
X161899524Y-78822165D01*
X161918438Y-78804261D01*
X162007291Y-78717318D01*
X162007291Y-79839417D01*
X161643470Y-79836895D01*
X161538304Y-79835959D01*
X161439948Y-79834697D01*
X161353427Y-79833204D01*
X161283765Y-79831575D01*
X161235989Y-79829904D01*
X161219636Y-79828896D01*
X160983625Y-79792912D01*
X160755498Y-79729747D01*
X160537529Y-79641092D01*
X160331993Y-79528640D01*
X160141163Y-79394082D01*
X159967314Y-79239109D01*
X159812721Y-79065415D01*
X159679656Y-78874691D01*
X159570394Y-78668628D01*
X159529722Y-78571667D01*
X159456148Y-78345017D01*
X159408703Y-78115307D01*
X159388059Y-77887035D01*
X159394813Y-77665450D01*
X159432223Y-77416365D01*
X159495922Y-77181670D01*
X159586157Y-76960853D01*
X159703172Y-76753400D01*
X159847215Y-76558800D01*
X160008394Y-76386251D01*
X160190980Y-76229173D01*
X160386481Y-76098139D01*
X160597162Y-75991901D01*
X160825285Y-75909212D01*
X160922969Y-75882185D01*
X161084610Y-75841129D01*
X165555490Y-75841129D01*
X165989752Y-75841134D01*
X166395038Y-75841152D01*
X166772378Y-75841189D01*
X167122802Y-75841253D01*
X167447340Y-75841348D01*
X167747021Y-75841482D01*
X168022877Y-75841661D01*
X168275937Y-75841891D01*
X168507230Y-75842178D01*
X168717787Y-75842529D01*
X168908638Y-75842950D01*
X169080812Y-75843447D01*
X169235340Y-75844027D01*
X169373252Y-75844696D01*
X169495577Y-75845460D01*
X169603346Y-75846326D01*
X169697588Y-75847299D01*
X169779333Y-75848387D01*
X169849612Y-75849595D01*
X169909455Y-75850930D01*
X169959891Y-75852398D01*
X170001950Y-75854005D01*
X170036662Y-75855758D01*
X170065057Y-75857663D01*
X170088166Y-75859726D01*
X170107018Y-75861954D01*
X170122643Y-75864352D01*
X170136071Y-75866928D01*
X170146394Y-75869230D01*
X170390182Y-75940710D01*
X170618118Y-76036870D01*
X170829036Y-76156817D01*
X171021769Y-76299660D01*
X171195155Y-76464507D01*
X171348026Y-76650466D01*
X171479218Y-76856644D01*
X171509072Y-76912366D01*
X171602832Y-77119078D01*
X171669674Y-77326236D01*
X171711057Y-77539903D01*
X171728438Y-77766142D01*
X171729205Y-77828342D01*
X171715742Y-78077691D01*
X171675174Y-78314284D01*
X171607234Y-78538788D01*
X171511655Y-78751867D01*
X171388170Y-78954187D01*
X171236512Y-79146412D01*
X171171718Y-79216659D01*
X171002147Y-79376215D01*
X170823121Y-79510464D01*
X170631019Y-79621419D01*
X170422220Y-79711093D01*
X170193102Y-79781500D01*
X170126875Y-79797563D01*
X169981361Y-79831027D01*
X166376902Y-79835520D01*
X162772442Y-79840013D01*
X162772442Y-76711301D01*
X162895374Y-76711301D01*
X163725130Y-78998735D01*
X164477280Y-78999251D01*
X164692341Y-78305365D01*
X164735389Y-78166884D01*
X164775969Y-78037143D01*
X164813180Y-77918965D01*
X164846122Y-77815169D01*
X164873895Y-77728576D01*
X164895599Y-77662007D01*
X164910335Y-77618282D01*
X164917203Y-77600224D01*
X164917361Y-77599999D01*
X164923577Y-77611589D01*
X164937613Y-77649213D01*
X164958593Y-77710189D01*
X164985640Y-77791832D01*
X165017879Y-77891458D01*
X165054432Y-78006384D01*
X165094425Y-78133926D01*
X165136981Y-78271401D01*
X165143886Y-78293867D01*
X165360451Y-78999216D01*
X165735617Y-78999233D01*
X166110782Y-78999251D01*
X167048284Y-78999251D01*
X167798431Y-78999251D01*
X167948461Y-78999251D01*
X168698609Y-78999251D01*
X168698609Y-77859027D01*
X168856181Y-77859027D01*
X168857635Y-77979195D01*
X168862997Y-78076975D01*
X168873834Y-78159893D01*
X168891712Y-78235475D01*
X168918199Y-78311249D01*
X168954860Y-78394739D01*
X168977476Y-78441688D01*
X169065599Y-78587855D01*
X169176493Y-78714835D01*
X169308720Y-78821173D01*
X169411858Y-78881859D01*
X169549856Y-78945204D01*
X169681307Y-78988481D01*
X169816104Y-79013951D01*
X169964140Y-79023872D01*
X170033871Y-79023928D01*
X170176399Y-79021756D01*
X170180455Y-78719796D01*
X170184510Y-78417835D01*
X170051883Y-78411494D01*
X169944652Y-78398740D01*
X169858358Y-78370185D01*
X169786989Y-78323226D01*
X169742064Y-78277265D01*
X169678367Y-78181024D01*
X169634149Y-78070596D01*
X169609244Y-77951406D01*
X169603488Y-77828878D01*
X169616715Y-77708435D01*
X169648760Y-77595503D01*
X169699459Y-77495504D01*
X169768346Y-77414134D01*
X169841235Y-77358135D01*
X169915976Y-77323634D01*
X170002273Y-77307074D01*
X170067932Y-77304247D01*
X170184510Y-77303917D01*
X170180455Y-76992606D01*
X170176399Y-76681295D01*
X169988863Y-76683705D01*
X169839533Y-76691311D01*
X169708376Y-76711516D01*
X169585373Y-76746636D01*
X169460508Y-76798988D01*
X169433753Y-76812067D01*
X169313178Y-76885725D01*
X169197548Y-76981417D01*
X169094290Y-77091819D01*
X169010836Y-77209611D01*
X168987152Y-77252256D01*
X168939948Y-77350517D01*
X168905130Y-77440094D01*
X168881022Y-77528755D01*
X168865946Y-77624265D01*
X168858227Y-77734388D01*
X168856181Y-77859027D01*
X168698609Y-77859027D01*
X168698609Y-76703799D01*
X167948461Y-76703799D01*
X167948461Y-78999251D01*
X167798431Y-78999251D01*
X167798431Y-76703799D01*
X167048284Y-76703799D01*
X167048284Y-78999251D01*
X166110782Y-78999251D01*
X166527023Y-77861221D01*
X166591574Y-77684615D01*
X166653062Y-77516164D01*
X166710716Y-77357989D01*
X166763767Y-77212213D01*
X166811445Y-77080958D01*
X166852980Y-76966347D01*
X166887603Y-76870501D01*
X166914545Y-76795542D01*
X166933035Y-76743593D01*
X166942304Y-76716776D01*
X166943263Y-76713495D01*
X166928939Y-76710809D01*
X166888684Y-76708409D01*
X166826570Y-76706402D01*
X166746672Y-76704898D01*
X166653064Y-76704004D01*
X166578532Y-76703799D01*
X166213801Y-76703799D01*
X165998876Y-77435193D01*
X165956515Y-77579055D01*
X165916245Y-77715256D01*
X165878941Y-77840870D01*
X165845481Y-77952972D01*
X165816741Y-78048635D01*
X165793597Y-78124935D01*
X165776926Y-78178946D01*
X165767604Y-78207743D01*
X165766608Y-78210451D01*
X165763282Y-78217952D01*
X165759698Y-78222263D01*
X165755321Y-78221697D01*
X165749618Y-78214566D01*
X165742054Y-78199183D01*
X165732097Y-78173862D01*
X165719212Y-78136913D01*
X165702865Y-78086651D01*
X165682523Y-78021388D01*
X165657652Y-77939437D01*
X165627718Y-77839109D01*
X165592187Y-77718719D01*
X165550525Y-77576579D01*
X165502199Y-77411001D01*
X165446675Y-77220298D01*
X165383419Y-77002782D01*
X165370647Y-76958850D01*
X165298679Y-76711301D01*
X164936726Y-76707286D01*
X164574774Y-76703270D01*
X164537377Y-76827309D01*
X164525252Y-76868194D01*
X164505922Y-76934214D01*
X164480462Y-77021664D01*
X164449947Y-77126836D01*
X164415451Y-77246027D01*
X164378047Y-77375529D01*
X164338812Y-77511636D01*
X164316551Y-77588974D01*
X164278145Y-77721985D01*
X164242035Y-77846096D01*
X164209107Y-77958333D01*
X164180245Y-78055722D01*
X164156335Y-78135288D01*
X164138262Y-78194058D01*
X164126911Y-78229058D01*
X164123420Y-78237845D01*
X164117471Y-78226073D01*
X164103963Y-78188097D01*
X164083710Y-78126525D01*
X164057525Y-78043967D01*
X164026223Y-77943032D01*
X163990616Y-77826329D01*
X163951519Y-77696469D01*
X163909745Y-77556059D01*
X163891021Y-77492609D01*
X163848175Y-77347399D01*
X163807657Y-77210728D01*
X163770294Y-77085332D01*
X163736909Y-76973950D01*
X163708327Y-76879317D01*
X163685372Y-76804171D01*
X163668869Y-76751249D01*
X163659643Y-76723287D01*
X163658171Y-76719700D01*
X163642160Y-76714084D01*
X163601265Y-76710030D01*
X163534308Y-76707498D01*
X163440112Y-76706453D01*
X163317500Y-76706855D01*
X163271696Y-76707287D01*
X162895374Y-76711301D01*
X162772442Y-76711301D01*
X162772442Y-76703799D01*
X162007291Y-76703799D01*
G37*
G36*
X171287086Y-79320373D02*
G01*
X171307090Y-79273287D01*
X171366521Y-79187007D01*
X171442916Y-79122262D01*
X171531391Y-79080177D01*
X171627064Y-79061873D01*
X171725048Y-79068474D01*
X171820461Y-79101102D01*
X171883968Y-79140685D01*
X171919993Y-79176134D01*
X171957824Y-79225430D01*
X171977983Y-79257987D01*
X172002940Y-79308785D01*
X172016162Y-79355048D01*
X172020965Y-79410859D01*
X172021265Y-79441838D01*
X172007488Y-79549644D01*
X171967371Y-79643377D01*
X171901774Y-79721638D01*
X171812163Y-79782713D01*
X171752542Y-79803869D01*
X171679398Y-79816437D01*
X171605112Y-79819368D01*
X171542065Y-79811617D01*
X171526665Y-79806854D01*
X171434270Y-79757565D01*
X171360250Y-79689214D01*
X171306562Y-79606558D01*
X171275167Y-79514360D01*
X171268742Y-79427166D01*
X171353818Y-79427166D01*
X171361501Y-79511297D01*
X171392607Y-79588886D01*
X171418505Y-79624550D01*
X171490139Y-79686036D01*
X171572306Y-79722502D01*
X171659596Y-79732556D01*
X171746597Y-79714809D01*
X171755737Y-79711175D01*
X171832318Y-79664988D01*
X171889521Y-79601805D01*
X171926025Y-79527113D01*
X171940508Y-79446397D01*
X171931650Y-79365142D01*
X171898128Y-79288834D01*
X171867028Y-79249177D01*
X171793061Y-79190566D01*
X171710559Y-79158464D01*
X171624560Y-79152620D01*
X171540104Y-79172784D01*
X171462231Y-79218706D01*
X171409545Y-79271934D01*
X171369763Y-79344657D01*
X171353818Y-79427166D01*
X171268742Y-79427166D01*
X171268021Y-79417378D01*
X171287086Y-79320373D01*
G37*
G36*
X161623633Y-77298774D02*
G01*
X161718957Y-77330127D01*
X161805410Y-77385635D01*
X161827999Y-77404954D01*
X161905264Y-77490213D01*
X161959881Y-77588069D01*
X161992882Y-77701521D01*
X162005301Y-77833570D01*
X162003747Y-77914929D01*
X161998827Y-77986743D01*
X161990958Y-78040195D01*
X161977155Y-78086929D01*
X161954437Y-78138588D01*
X161938039Y-78171401D01*
X161873703Y-78273580D01*
X161796879Y-78349567D01*
X161704500Y-78401396D01*
X161593499Y-78431097D01*
X161535996Y-78437838D01*
X161474013Y-78437389D01*
X161410149Y-78429041D01*
X161391110Y-78424500D01*
X161276422Y-78378197D01*
X161182205Y-78310176D01*
X161108927Y-78221085D01*
X161057055Y-78111571D01*
X161027056Y-77982281D01*
X161020433Y-77910969D01*
X161022726Y-77766644D01*
X161046410Y-77641678D01*
X161092391Y-77533506D01*
X161161575Y-77439559D01*
X161200406Y-77401342D01*
X161285340Y-77340186D01*
X161379281Y-77303587D01*
X161488467Y-77289294D01*
X161512194Y-77288914D01*
X161623633Y-77298774D01*
G37*
D13*
%TO.C,U2*%
X204978000Y-82262000D02*
X208628000Y-82262000D01*
X204978000Y-76742000D02*
X207178000Y-76742000D01*
X204978000Y-76742000D02*
X202778000Y-76742000D01*
X204978000Y-82262000D02*
X202778000Y-82262000D01*
%TO.C,R8*%
X206827064Y-74760000D02*
X203772936Y-74760000D01*
X206827064Y-72040000D02*
X203772936Y-72040000D01*
%TO.C,J5*%
X157130000Y-59622000D02*
X165450000Y-59622000D01*
X165450000Y-59622000D02*
X165450000Y-66362000D01*
X156890000Y-66602000D02*
X157290000Y-66602000D01*
X157130000Y-66362000D02*
X165450000Y-66362000D01*
X156890000Y-65962000D02*
X156890000Y-66602000D01*
X157130000Y-59622000D02*
X157130000Y-66362000D01*
X157130000Y-65842000D02*
X165450000Y-65842000D01*
X157130000Y-60742000D02*
X165450000Y-60742000D01*
%TO.C,U3*%
X194076000Y-74676000D02*
X194076000Y-72726000D01*
X188956000Y-74676000D02*
X188956000Y-78126000D01*
X194076000Y-74676000D02*
X194076000Y-76626000D01*
X188956000Y-74676000D02*
X188956000Y-72726000D01*
%TO.C,J4*%
X175340000Y-66710000D02*
X175740000Y-66710000D01*
X175580000Y-65950000D02*
X183900000Y-65950000D01*
X175580000Y-66470000D02*
X183900000Y-66470000D01*
X175580000Y-59730000D02*
X175580000Y-66470000D01*
X175580000Y-60850000D02*
X183900000Y-60850000D01*
X175340000Y-66070000D02*
X175340000Y-66710000D01*
X183900000Y-59730000D02*
X183900000Y-66470000D01*
X175580000Y-59730000D02*
X183900000Y-59730000D01*
D12*
%TO.C,J3*%
X208198820Y-95375140D02*
X208198820Y-97026140D01*
X207446980Y-95375140D02*
X208198820Y-95375140D01*
X202199340Y-95375140D02*
X202951180Y-95375140D01*
X202199340Y-97026140D02*
X202199340Y-95375140D01*
X203700480Y-99627100D02*
X206697680Y-99627100D01*
D15*
X202839420Y-94727440D02*
G75*
G03*
X202839420Y-94727440I-139700J0D01*
G01*
D13*
%TO.C,R5*%
X206827064Y-83940000D02*
X203772936Y-83940000D01*
X206827064Y-86660000D02*
X203772936Y-86660000D01*
D14*
%TO.C,J6*%
X228160580Y-79611220D02*
X228160580Y-61612780D01*
X229260400Y-60114180D02*
X228160580Y-60114180D01*
X229260400Y-61612780D02*
X229260400Y-60114180D01*
X211259420Y-68613020D02*
X211259420Y-72610980D01*
X211259420Y-72610980D02*
X213758780Y-72610980D01*
X213758780Y-72610980D02*
X213758780Y-76111100D01*
X228160580Y-61612780D02*
X211259420Y-61612780D01*
X211259420Y-79611220D02*
X228160580Y-79611220D01*
X211259420Y-61612780D02*
X211259420Y-65112900D01*
X211259420Y-68613020D02*
X213758780Y-68613020D01*
X230258620Y-61612780D02*
X229260400Y-61612780D01*
X229260400Y-79611220D02*
X229260400Y-81109820D01*
X228160580Y-60114180D02*
X228160580Y-61612780D01*
X228259640Y-79611220D02*
X229260400Y-79611220D01*
X213758780Y-65112900D02*
X213758780Y-68613020D01*
X211259420Y-76111100D02*
X211259420Y-79611220D01*
X230258620Y-81109820D02*
X230258620Y-61612780D01*
X229260400Y-81109820D02*
X230258620Y-81109820D01*
X211259420Y-76111100D02*
X213758780Y-76111100D01*
X211259420Y-65112900D02*
X213758780Y-65112900D01*
%TO.C,REF\u002A\u002A*%
G36*
X184470807Y-76536782D02*
G01*
X184494161Y-76546988D01*
X184549902Y-76591134D01*
X184597569Y-76654967D01*
X184627048Y-76723087D01*
X184631846Y-76756670D01*
X184615760Y-76803556D01*
X184580475Y-76828365D01*
X184542644Y-76843387D01*
X184525321Y-76846155D01*
X184516886Y-76826066D01*
X184500230Y-76782351D01*
X184492923Y-76762598D01*
X184451948Y-76694271D01*
X184392622Y-76660191D01*
X184316552Y-76661239D01*
X184310918Y-76662581D01*
X184270305Y-76681836D01*
X184240448Y-76719375D01*
X184220055Y-76779809D01*
X184207836Y-76867751D01*
X184202500Y-76987813D01*
X184202000Y-77051698D01*
X184201752Y-77152403D01*
X184200126Y-77221054D01*
X184195801Y-77264673D01*
X184187454Y-77290282D01*
X184173765Y-77304903D01*
X184153411Y-77315558D01*
X184152234Y-77316095D01*
X184113038Y-77332667D01*
X184093619Y-77338769D01*
X184090635Y-77320319D01*
X184088081Y-77269323D01*
X184086140Y-77192308D01*
X184084997Y-77095805D01*
X184084769Y-77025184D01*
X184085932Y-76888525D01*
X184090479Y-76784851D01*
X184099999Y-76708108D01*
X184116081Y-76652246D01*
X184140313Y-76611212D01*
X184174286Y-76578954D01*
X184207833Y-76556440D01*
X184288499Y-76526476D01*
X184382381Y-76519718D01*
X184470807Y-76536782D01*
G37*
D16*
X184470807Y-76536782D02*
X184494161Y-76546988D01*
X184549902Y-76591134D01*
X184597569Y-76654967D01*
X184627048Y-76723087D01*
X184631846Y-76756670D01*
X184615760Y-76803556D01*
X184580475Y-76828365D01*
X184542644Y-76843387D01*
X184525321Y-76846155D01*
X184516886Y-76826066D01*
X184500230Y-76782351D01*
X184492923Y-76762598D01*
X184451948Y-76694271D01*
X184392622Y-76660191D01*
X184316552Y-76661239D01*
X184310918Y-76662581D01*
X184270305Y-76681836D01*
X184240448Y-76719375D01*
X184220055Y-76779809D01*
X184207836Y-76867751D01*
X184202500Y-76987813D01*
X184202000Y-77051698D01*
X184201752Y-77152403D01*
X184200126Y-77221054D01*
X184195801Y-77264673D01*
X184187454Y-77290282D01*
X184173765Y-77304903D01*
X184153411Y-77315558D01*
X184152234Y-77316095D01*
X184113038Y-77332667D01*
X184093619Y-77338769D01*
X184090635Y-77320319D01*
X184088081Y-77269323D01*
X184086140Y-77192308D01*
X184084997Y-77095805D01*
X184084769Y-77025184D01*
X184085932Y-76888525D01*
X184090479Y-76784851D01*
X184099999Y-76708108D01*
X184116081Y-76652246D01*
X184140313Y-76611212D01*
X184174286Y-76578954D01*
X184207833Y-76556440D01*
X184288499Y-76526476D01*
X184382381Y-76519718D01*
X184470807Y-76536782D01*
G36*
X179171664Y-76495089D02*
G01*
X179234367Y-76531358D01*
X179277961Y-76567358D01*
X179309845Y-76605075D01*
X179331810Y-76651199D01*
X179345649Y-76712421D01*
X179353153Y-76795431D01*
X179356117Y-76906919D01*
X179356461Y-76987062D01*
X179356461Y-77282065D01*
X179190385Y-77356515D01*
X179180615Y-77033402D01*
X179176579Y-76912729D01*
X179172344Y-76825141D01*
X179167097Y-76764650D01*
X179160025Y-76725268D01*
X179150311Y-76701007D01*
X179137144Y-76685880D01*
X179132919Y-76682606D01*
X179068909Y-76657034D01*
X179004208Y-76667153D01*
X178965692Y-76694000D01*
X178950025Y-76713024D01*
X178939180Y-76737988D01*
X178932288Y-76775834D01*
X178928479Y-76833502D01*
X178926883Y-76917935D01*
X178926615Y-77005928D01*
X178926563Y-77116323D01*
X178924672Y-77194463D01*
X178918345Y-77247165D01*
X178904983Y-77281242D01*
X178881985Y-77303511D01*
X178846754Y-77320787D01*
X178799697Y-77338738D01*
X178748303Y-77358278D01*
X178754421Y-77011485D01*
X178756884Y-76886468D01*
X178759767Y-76794082D01*
X178763898Y-76727881D01*
X178770107Y-76681420D01*
X178779226Y-76648256D01*
X178792083Y-76621944D01*
X178807584Y-76598729D01*
X178882371Y-76524569D01*
X178973628Y-76481684D01*
X179072883Y-76471412D01*
X179171664Y-76495089D01*
G37*
X179171664Y-76495089D02*
X179234367Y-76531358D01*
X179277961Y-76567358D01*
X179309845Y-76605075D01*
X179331810Y-76651199D01*
X179345649Y-76712421D01*
X179353153Y-76795431D01*
X179356117Y-76906919D01*
X179356461Y-76987062D01*
X179356461Y-77282065D01*
X179190385Y-77356515D01*
X179180615Y-77033402D01*
X179176579Y-76912729D01*
X179172344Y-76825141D01*
X179167097Y-76764650D01*
X179160025Y-76725268D01*
X179150311Y-76701007D01*
X179137144Y-76685880D01*
X179132919Y-76682606D01*
X179068909Y-76657034D01*
X179004208Y-76667153D01*
X178965692Y-76694000D01*
X178950025Y-76713024D01*
X178939180Y-76737988D01*
X178932288Y-76775834D01*
X178928479Y-76833502D01*
X178926883Y-76917935D01*
X178926615Y-77005928D01*
X178926563Y-77116323D01*
X178924672Y-77194463D01*
X178918345Y-77247165D01*
X178904983Y-77281242D01*
X178881985Y-77303511D01*
X178846754Y-77320787D01*
X178799697Y-77338738D01*
X178748303Y-77358278D01*
X178754421Y-77011485D01*
X178756884Y-76886468D01*
X178759767Y-76794082D01*
X178763898Y-76727881D01*
X178770107Y-76681420D01*
X178779226Y-76648256D01*
X178792083Y-76621944D01*
X178807584Y-76598729D01*
X178882371Y-76524569D01*
X178973628Y-76481684D01*
X179072883Y-76471412D01*
X179171664Y-76495089D01*
G36*
X181956362Y-76713577D02*
G01*
X181986528Y-76644269D01*
X182033629Y-76590211D01*
X182070312Y-76562505D01*
X182136990Y-76532572D01*
X182214272Y-76518678D01*
X182286110Y-76522397D01*
X182326308Y-76537400D01*
X182342082Y-76541670D01*
X182352550Y-76525750D01*
X182359856Y-76483089D01*
X182365385Y-76418106D01*
X182371437Y-76345732D01*
X182379844Y-76302187D01*
X182395141Y-76277287D01*
X182421864Y-76260845D01*
X182438654Y-76253564D01*
X182502154Y-76226963D01*
X182502081Y-76680289D01*
X182501833Y-76826320D01*
X182500872Y-76938655D01*
X182498794Y-77022678D01*
X182495193Y-77083769D01*
X182489665Y-77127309D01*
X182481804Y-77158679D01*
X182471207Y-77183262D01*
X182463182Y-77197294D01*
X182396728Y-77273388D01*
X182312470Y-77321084D01*
X182219249Y-77338199D01*
X182125900Y-77322546D01*
X182070312Y-77294418D01*
X182011957Y-77245760D01*
X181972186Y-77186333D01*
X181948190Y-77108507D01*
X181937161Y-77004652D01*
X181935599Y-76928462D01*
X181935809Y-76922986D01*
X182072308Y-76922986D01*
X182073141Y-77010355D01*
X182076961Y-77068192D01*
X182085746Y-77106029D01*
X182101474Y-77133398D01*
X182120266Y-77154042D01*
X182183375Y-77193890D01*
X182251137Y-77197295D01*
X182315179Y-77164025D01*
X182320164Y-77159517D01*
X182341439Y-77136067D01*
X182354779Y-77108166D01*
X182362001Y-77066641D01*
X182364923Y-77002316D01*
X182365385Y-76931200D01*
X182364383Y-76841858D01*
X182360238Y-76782258D01*
X182351236Y-76743089D01*
X182335667Y-76715040D01*
X182322902Y-76700144D01*
X182263600Y-76662575D01*
X182195301Y-76658057D01*
X182130110Y-76686753D01*
X182117528Y-76697406D01*
X182096111Y-76721063D01*
X182082744Y-76749251D01*
X182075566Y-76791245D01*
X182072719Y-76856319D01*
X182072308Y-76922986D01*
X181935809Y-76922986D01*
X181940322Y-76805765D01*
X181956362Y-76713577D01*
G37*
X181956362Y-76713577D02*
X181986528Y-76644269D01*
X182033629Y-76590211D01*
X182070312Y-76562505D01*
X182136990Y-76532572D01*
X182214272Y-76518678D01*
X182286110Y-76522397D01*
X182326308Y-76537400D01*
X182342082Y-76541670D01*
X182352550Y-76525750D01*
X182359856Y-76483089D01*
X182365385Y-76418106D01*
X182371437Y-76345732D01*
X182379844Y-76302187D01*
X182395141Y-76277287D01*
X182421864Y-76260845D01*
X182438654Y-76253564D01*
X182502154Y-76226963D01*
X182502081Y-76680289D01*
X182501833Y-76826320D01*
X182500872Y-76938655D01*
X182498794Y-77022678D01*
X182495193Y-77083769D01*
X182489665Y-77127309D01*
X182481804Y-77158679D01*
X182471207Y-77183262D01*
X182463182Y-77197294D01*
X182396728Y-77273388D01*
X182312470Y-77321084D01*
X182219249Y-77338199D01*
X182125900Y-77322546D01*
X182070312Y-77294418D01*
X182011957Y-77245760D01*
X181972186Y-77186333D01*
X181948190Y-77108507D01*
X181937161Y-77004652D01*
X181935599Y-76928462D01*
X181935809Y-76922986D01*
X182072308Y-76922986D01*
X182073141Y-77010355D01*
X182076961Y-77068192D01*
X182085746Y-77106029D01*
X182101474Y-77133398D01*
X182120266Y-77154042D01*
X182183375Y-77193890D01*
X182251137Y-77197295D01*
X182315179Y-77164025D01*
X182320164Y-77159517D01*
X182341439Y-77136067D01*
X182354779Y-77108166D01*
X182362001Y-77066641D01*
X182364923Y-77002316D01*
X182365385Y-76931200D01*
X182364383Y-76841858D01*
X182360238Y-76782258D01*
X182351236Y-76743089D01*
X182335667Y-76715040D01*
X182322902Y-76700144D01*
X182263600Y-76662575D01*
X182195301Y-76658057D01*
X182130110Y-76686753D01*
X182117528Y-76697406D01*
X182096111Y-76721063D01*
X182082744Y-76749251D01*
X182075566Y-76791245D01*
X182072719Y-76856319D01*
X182072308Y-76922986D01*
X181935809Y-76922986D01*
X181940322Y-76805765D01*
X181956362Y-76713577D01*
G36*
X184761032Y-76720710D02*
G01*
X184779460Y-76655167D01*
X184809360Y-76606912D01*
X184853080Y-76568767D01*
X184872141Y-76556440D01*
X184958726Y-76524336D01*
X185053522Y-76522316D01*
X185145224Y-76547838D01*
X185222528Y-76598361D01*
X185259814Y-76643590D01*
X185289353Y-76725663D01*
X185291699Y-76790607D01*
X185286385Y-76877445D01*
X185086115Y-76965103D01*
X184988739Y-77009887D01*
X184925113Y-77045913D01*
X184892029Y-77077117D01*
X184886280Y-77107436D01*
X184904658Y-77140805D01*
X184924923Y-77162923D01*
X184983889Y-77198393D01*
X185048024Y-77200879D01*
X185106926Y-77173235D01*
X185150197Y-77118320D01*
X185157936Y-77098928D01*
X185195006Y-77038364D01*
X185237654Y-77012552D01*
X185296154Y-76990471D01*
X185296154Y-77074184D01*
X185290982Y-77131150D01*
X185270723Y-77179189D01*
X185228262Y-77234346D01*
X185221951Y-77241514D01*
X185174720Y-77290585D01*
X185134121Y-77316920D01*
X185083328Y-77329035D01*
X185041220Y-77333003D01*
X184965902Y-77333991D01*
X184912286Y-77321466D01*
X184878838Y-77302869D01*
X184826268Y-77261975D01*
X184789879Y-77217748D01*
X184766850Y-77162126D01*
X184754359Y-77087047D01*
X184749587Y-76984449D01*
X184749206Y-76932376D01*
X184750501Y-76869948D01*
X184868471Y-76869948D01*
X184869839Y-76903438D01*
X184873249Y-76908923D01*
X184895753Y-76901472D01*
X184944182Y-76881753D01*
X185008908Y-76853718D01*
X185022443Y-76847692D01*
X185104244Y-76806096D01*
X185149312Y-76769538D01*
X185159217Y-76735296D01*
X185135526Y-76700648D01*
X185115960Y-76685339D01*
X185045360Y-76654721D01*
X184979280Y-76659780D01*
X184923959Y-76697151D01*
X184885636Y-76763473D01*
X184873349Y-76816116D01*
X184868471Y-76869948D01*
X184750501Y-76869948D01*
X184751730Y-76810720D01*
X184761032Y-76720710D01*
G37*
X184761032Y-76720710D02*
X184779460Y-76655167D01*
X184809360Y-76606912D01*
X184853080Y-76568767D01*
X184872141Y-76556440D01*
X184958726Y-76524336D01*
X185053522Y-76522316D01*
X185145224Y-76547838D01*
X185222528Y-76598361D01*
X185259814Y-76643590D01*
X185289353Y-76725663D01*
X185291699Y-76790607D01*
X185286385Y-76877445D01*
X185086115Y-76965103D01*
X184988739Y-77009887D01*
X184925113Y-77045913D01*
X184892029Y-77077117D01*
X184886280Y-77107436D01*
X184904658Y-77140805D01*
X184924923Y-77162923D01*
X184983889Y-77198393D01*
X185048024Y-77200879D01*
X185106926Y-77173235D01*
X185150197Y-77118320D01*
X185157936Y-77098928D01*
X185195006Y-77038364D01*
X185237654Y-77012552D01*
X185296154Y-76990471D01*
X185296154Y-77074184D01*
X185290982Y-77131150D01*
X185270723Y-77179189D01*
X185228262Y-77234346D01*
X185221951Y-77241514D01*
X185174720Y-77290585D01*
X185134121Y-77316920D01*
X185083328Y-77329035D01*
X185041220Y-77333003D01*
X184965902Y-77333991D01*
X184912286Y-77321466D01*
X184878838Y-77302869D01*
X184826268Y-77261975D01*
X184789879Y-77217748D01*
X184766850Y-77162126D01*
X184754359Y-77087047D01*
X184749587Y-76984449D01*
X184749206Y-76932376D01*
X184750501Y-76869948D01*
X184868471Y-76869948D01*
X184869839Y-76903438D01*
X184873249Y-76908923D01*
X184895753Y-76901472D01*
X184944182Y-76881753D01*
X185008908Y-76853718D01*
X185022443Y-76847692D01*
X185104244Y-76806096D01*
X185149312Y-76769538D01*
X185159217Y-76735296D01*
X185135526Y-76700648D01*
X185115960Y-76685339D01*
X185045360Y-76654721D01*
X184979280Y-76659780D01*
X184923959Y-76697151D01*
X184885636Y-76763473D01*
X184873349Y-76816116D01*
X184868471Y-76869948D01*
X184750501Y-76869948D01*
X184751730Y-76810720D01*
X184761032Y-76720710D01*
G36*
X178034778Y-76641055D02*
G01*
X178080421Y-76575215D01*
X178162802Y-76508681D01*
X178253546Y-76475676D01*
X178346185Y-76473573D01*
X178434254Y-76499745D01*
X178511286Y-76551567D01*
X178570816Y-76626412D01*
X178606378Y-76721654D01*
X178613571Y-76791756D01*
X178612754Y-76821009D01*
X178605914Y-76843407D01*
X178587112Y-76863474D01*
X178550408Y-76885733D01*
X178489862Y-76914709D01*
X178399534Y-76954927D01*
X178399077Y-76955129D01*
X178315933Y-76993210D01*
X178247753Y-77027025D01*
X178201505Y-77052933D01*
X178184158Y-77067295D01*
X178184154Y-77067411D01*
X178199443Y-77098685D01*
X178235196Y-77133157D01*
X178276242Y-77157990D01*
X178297037Y-77162923D01*
X178353770Y-77145862D01*
X178402627Y-77103133D01*
X178426465Y-77056155D01*
X178449397Y-77021522D01*
X178494318Y-76982081D01*
X178547123Y-76948009D01*
X178593710Y-76929480D01*
X178603452Y-76928462D01*
X178614418Y-76945215D01*
X178615079Y-76988039D01*
X178607020Y-77045781D01*
X178591827Y-77107289D01*
X178571086Y-77161409D01*
X178570038Y-77163510D01*
X178507621Y-77250660D01*
X178426726Y-77309939D01*
X178334856Y-77339034D01*
X178239513Y-77335634D01*
X178148198Y-77297428D01*
X178144138Y-77294741D01*
X178072306Y-77229642D01*
X178025073Y-77144705D01*
X177998934Y-77033021D01*
X177995426Y-77001643D01*
X177989213Y-76853536D01*
X177996661Y-76784468D01*
X178184154Y-76784468D01*
X178186590Y-76827552D01*
X178199914Y-76840126D01*
X178233132Y-76830719D01*
X178285494Y-76808483D01*
X178344024Y-76780610D01*
X178345479Y-76779872D01*
X178395089Y-76753777D01*
X178415000Y-76736363D01*
X178410090Y-76718107D01*
X178389416Y-76694120D01*
X178336819Y-76659406D01*
X178280177Y-76656856D01*
X178229369Y-76682119D01*
X178194276Y-76730847D01*
X178184154Y-76784468D01*
X177996661Y-76784468D01*
X178001992Y-76735036D01*
X178034778Y-76641055D01*
G37*
X178034778Y-76641055D02*
X178080421Y-76575215D01*
X178162802Y-76508681D01*
X178253546Y-76475676D01*
X178346185Y-76473573D01*
X178434254Y-76499745D01*
X178511286Y-76551567D01*
X178570816Y-76626412D01*
X178606378Y-76721654D01*
X178613571Y-76791756D01*
X178612754Y-76821009D01*
X178605914Y-76843407D01*
X178587112Y-76863474D01*
X178550408Y-76885733D01*
X178489862Y-76914709D01*
X178399534Y-76954927D01*
X178399077Y-76955129D01*
X178315933Y-76993210D01*
X178247753Y-77027025D01*
X178201505Y-77052933D01*
X178184158Y-77067295D01*
X178184154Y-77067411D01*
X178199443Y-77098685D01*
X178235196Y-77133157D01*
X178276242Y-77157990D01*
X178297037Y-77162923D01*
X178353770Y-77145862D01*
X178402627Y-77103133D01*
X178426465Y-77056155D01*
X178449397Y-77021522D01*
X178494318Y-76982081D01*
X178547123Y-76948009D01*
X178593710Y-76929480D01*
X178603452Y-76928462D01*
X178614418Y-76945215D01*
X178615079Y-76988039D01*
X178607020Y-77045781D01*
X178591827Y-77107289D01*
X178571086Y-77161409D01*
X178570038Y-77163510D01*
X178507621Y-77250660D01*
X178426726Y-77309939D01*
X178334856Y-77339034D01*
X178239513Y-77335634D01*
X178148198Y-77297428D01*
X178144138Y-77294741D01*
X178072306Y-77229642D01*
X178025073Y-77144705D01*
X177998934Y-77033021D01*
X177995426Y-77001643D01*
X177989213Y-76853536D01*
X177996661Y-76784468D01*
X178184154Y-76784468D01*
X178186590Y-76827552D01*
X178199914Y-76840126D01*
X178233132Y-76830719D01*
X178285494Y-76808483D01*
X178344024Y-76780610D01*
X178345479Y-76779872D01*
X178395089Y-76753777D01*
X178415000Y-76736363D01*
X178410090Y-76718107D01*
X178389416Y-76694120D01*
X178336819Y-76659406D01*
X178280177Y-76656856D01*
X178229369Y-76682119D01*
X178194276Y-76730847D01*
X178184154Y-76784468D01*
X177996661Y-76784468D01*
X178001992Y-76735036D01*
X178034778Y-76641055D01*
G36*
X180059846Y-76392120D02*
G01*
X180065572Y-76471980D01*
X180072149Y-76519039D01*
X180081262Y-76539566D01*
X180094598Y-76539829D01*
X180098923Y-76537378D01*
X180156444Y-76519636D01*
X180231268Y-76520672D01*
X180307339Y-76538910D01*
X180354918Y-76562505D01*
X180403702Y-76600198D01*
X180439364Y-76642855D01*
X180463845Y-76697057D01*
X180479087Y-76769384D01*
X180487030Y-76866419D01*
X180489616Y-76994742D01*
X180489662Y-77019358D01*
X180489692Y-77295870D01*
X180428161Y-77317320D01*
X180384459Y-77331912D01*
X180360482Y-77338706D01*
X180359777Y-77338769D01*
X180357415Y-77320345D01*
X180355406Y-77269526D01*
X180353901Y-77192993D01*
X180353053Y-77097430D01*
X180352923Y-77039329D01*
X180352651Y-76924771D01*
X180351252Y-76842667D01*
X180347849Y-76786393D01*
X180341567Y-76749326D01*
X180331529Y-76724844D01*
X180316861Y-76706325D01*
X180307702Y-76697406D01*
X180244789Y-76661466D01*
X180176136Y-76658775D01*
X180113848Y-76689170D01*
X180102329Y-76700144D01*
X180085433Y-76720779D01*
X180073714Y-76745256D01*
X180066233Y-76780647D01*
X180062054Y-76834026D01*
X180060237Y-76912466D01*
X180059846Y-77020617D01*
X180059846Y-77295870D01*
X179998315Y-77317320D01*
X179954613Y-77331912D01*
X179930636Y-77338706D01*
X179929930Y-77338769D01*
X179928126Y-77320069D01*
X179926500Y-77267322D01*
X179925117Y-77185557D01*
X179924042Y-77079805D01*
X179923340Y-76955094D01*
X179923077Y-76816455D01*
X179923077Y-76281806D01*
X180050077Y-76228236D01*
X180059846Y-76392120D01*
G37*
X180059846Y-76392120D02*
X180065572Y-76471980D01*
X180072149Y-76519039D01*
X180081262Y-76539566D01*
X180094598Y-76539829D01*
X180098923Y-76537378D01*
X180156444Y-76519636D01*
X180231268Y-76520672D01*
X180307339Y-76538910D01*
X180354918Y-76562505D01*
X180403702Y-76600198D01*
X180439364Y-76642855D01*
X180463845Y-76697057D01*
X180479087Y-76769384D01*
X180487030Y-76866419D01*
X180489616Y-76994742D01*
X180489662Y-77019358D01*
X180489692Y-77295870D01*
X180428161Y-77317320D01*
X180384459Y-77331912D01*
X180360482Y-77338706D01*
X180359777Y-77338769D01*
X180357415Y-77320345D01*
X180355406Y-77269526D01*
X180353901Y-77192993D01*
X180353053Y-77097430D01*
X180352923Y-77039329D01*
X180352651Y-76924771D01*
X180351252Y-76842667D01*
X180347849Y-76786393D01*
X180341567Y-76749326D01*
X180331529Y-76724844D01*
X180316861Y-76706325D01*
X180307702Y-76697406D01*
X180244789Y-76661466D01*
X180176136Y-76658775D01*
X180113848Y-76689170D01*
X180102329Y-76700144D01*
X180085433Y-76720779D01*
X180073714Y-76745256D01*
X180066233Y-76780647D01*
X180062054Y-76834026D01*
X180060237Y-76912466D01*
X180059846Y-77020617D01*
X180059846Y-77295870D01*
X179998315Y-77317320D01*
X179954613Y-77331912D01*
X179930636Y-77338706D01*
X179929930Y-77338769D01*
X179928126Y-77320069D01*
X179926500Y-77267322D01*
X179925117Y-77185557D01*
X179924042Y-77079805D01*
X179923340Y-76955094D01*
X179923077Y-76816455D01*
X179923077Y-76281806D01*
X180050077Y-76228236D01*
X180059846Y-76392120D01*
G36*
X181039878Y-70187776D02*
G01*
X181145612Y-70188355D01*
X181222132Y-70189922D01*
X181274372Y-70192972D01*
X181307263Y-70197996D01*
X181325737Y-70205489D01*
X181334727Y-70215944D01*
X181339163Y-70229853D01*
X181339594Y-70231654D01*
X181346333Y-70264145D01*
X181358808Y-70328252D01*
X181375719Y-70417151D01*
X181395771Y-70524019D01*
X181417664Y-70642033D01*
X181418429Y-70646178D01*
X181440359Y-70761831D01*
X181460877Y-70864014D01*
X181478659Y-70946598D01*
X181492381Y-71003456D01*
X181500718Y-71028458D01*
X181501116Y-71028901D01*
X181525677Y-71041110D01*
X181576315Y-71061456D01*
X181642095Y-71085545D01*
X181642461Y-71085674D01*
X181725317Y-71116818D01*
X181823000Y-71156491D01*
X181915077Y-71196381D01*
X181919434Y-71198353D01*
X182069407Y-71266420D01*
X182401498Y-71039639D01*
X182503374Y-70970504D01*
X182595657Y-70908697D01*
X182673003Y-70857733D01*
X182730064Y-70821127D01*
X182761495Y-70802394D01*
X182764479Y-70801004D01*
X182787321Y-70807190D01*
X182829982Y-70837035D01*
X182894128Y-70891947D01*
X182981421Y-70973334D01*
X183070535Y-71059922D01*
X183156441Y-71145247D01*
X183233327Y-71223108D01*
X183296564Y-71288697D01*
X183341523Y-71337205D01*
X183363576Y-71363825D01*
X183364396Y-71365195D01*
X183366834Y-71383463D01*
X183357650Y-71413295D01*
X183334574Y-71458721D01*
X183295337Y-71523770D01*
X183237670Y-71612470D01*
X183160795Y-71726657D01*
X183092570Y-71827162D01*
X183031582Y-71917303D01*
X182981356Y-71991849D01*
X182945416Y-72045565D01*
X182927287Y-72073218D01*
X182926146Y-72075095D01*
X182928359Y-72101590D01*
X182945138Y-72153086D01*
X182973142Y-72219851D01*
X182983122Y-72241172D01*
X183026672Y-72336159D01*
X183073134Y-72443937D01*
X183110877Y-72537192D01*
X183138073Y-72606406D01*
X183159675Y-72659006D01*
X183172158Y-72686497D01*
X183173709Y-72688616D01*
X183196668Y-72692124D01*
X183250786Y-72701738D01*
X183328868Y-72716089D01*
X183423719Y-72733807D01*
X183528143Y-72753525D01*
X183634944Y-72773874D01*
X183736926Y-72793486D01*
X183826894Y-72810991D01*
X183897653Y-72825022D01*
X183942006Y-72834209D01*
X183952885Y-72836807D01*
X183964122Y-72843218D01*
X183972605Y-72857697D01*
X183978714Y-72885133D01*
X183982832Y-72930411D01*
X183985341Y-72998420D01*
X183986621Y-73094047D01*
X183987054Y-73222180D01*
X183987077Y-73274701D01*
X183987077Y-73701845D01*
X183884500Y-73722091D01*
X183827431Y-73733070D01*
X183742269Y-73749095D01*
X183639372Y-73768233D01*
X183529096Y-73788551D01*
X183498615Y-73794132D01*
X183396855Y-73813917D01*
X183308205Y-73833373D01*
X183240108Y-73850697D01*
X183200004Y-73864088D01*
X183193323Y-73868079D01*
X183176919Y-73896342D01*
X183153399Y-73951109D01*
X183127316Y-74021588D01*
X183122142Y-74036769D01*
X183087956Y-74130896D01*
X183045523Y-74237101D01*
X183003997Y-74332473D01*
X183003792Y-74332916D01*
X182934640Y-74482525D01*
X183389512Y-75151617D01*
X183097500Y-75444116D01*
X183009180Y-75531170D01*
X182928625Y-75607909D01*
X182860360Y-75670237D01*
X182808908Y-75714056D01*
X182778794Y-75735270D01*
X182774474Y-75736616D01*
X182749111Y-75726016D01*
X182697358Y-75696547D01*
X182624868Y-75651705D01*
X182537294Y-75594984D01*
X182442612Y-75531462D01*
X182346516Y-75466668D01*
X182260837Y-75410287D01*
X182191016Y-75365788D01*
X182142494Y-75336639D01*
X182120782Y-75326308D01*
X182094293Y-75335050D01*
X182044062Y-75358087D01*
X181980451Y-75390631D01*
X181973708Y-75394249D01*
X181888046Y-75437210D01*
X181829306Y-75458279D01*
X181792772Y-75458503D01*
X181773731Y-75438928D01*
X181773620Y-75438654D01*
X181764102Y-75415472D01*
X181741403Y-75360441D01*
X181707282Y-75277822D01*
X181663500Y-75171872D01*
X181611816Y-75046852D01*
X181553992Y-74907020D01*
X181497991Y-74771637D01*
X181436447Y-74622234D01*
X181379939Y-74483832D01*
X181330161Y-74360673D01*
X181288806Y-74257002D01*
X181257568Y-74177059D01*
X181238141Y-74125088D01*
X181232154Y-74105692D01*
X181247168Y-74083443D01*
X181286439Y-74047982D01*
X181338807Y-74008887D01*
X181487941Y-73885245D01*
X181604511Y-73743522D01*
X181687118Y-73586704D01*
X181734366Y-73417775D01*
X181744857Y-73239722D01*
X181737231Y-73157539D01*
X181695682Y-72987031D01*
X181624123Y-72836459D01*
X181526995Y-72707309D01*
X181408734Y-72601064D01*
X181273780Y-72519210D01*
X181126571Y-72463232D01*
X180971544Y-72434615D01*
X180813139Y-72434844D01*
X180655794Y-72465405D01*
X180503946Y-72527782D01*
X180362035Y-72623460D01*
X180302803Y-72677572D01*
X180189203Y-72816520D01*
X180110106Y-72968361D01*
X180064986Y-73128667D01*
X180053316Y-73293012D01*
X180074569Y-73456971D01*
X180128220Y-73616118D01*
X180213740Y-73766025D01*
X180330605Y-73902267D01*
X180461193Y-74008887D01*
X180515588Y-74049642D01*
X180554014Y-74084718D01*
X180567846Y-74105726D01*
X180560603Y-74128635D01*
X180540005Y-74183365D01*
X180507746Y-74265672D01*
X180465521Y-74371315D01*
X180415023Y-74496050D01*
X180357948Y-74635636D01*
X180301854Y-74771670D01*
X180239967Y-74921201D01*
X180182644Y-75059767D01*
X180131644Y-75183107D01*
X180088727Y-75286964D01*
X180055653Y-75367080D01*
X180034181Y-75419195D01*
X180026225Y-75438654D01*
X180007429Y-75458423D01*
X179971074Y-75458365D01*
X179912479Y-75437441D01*
X179826968Y-75394613D01*
X179826292Y-75394249D01*
X179761907Y-75361012D01*
X179709861Y-75336802D01*
X179680512Y-75326404D01*
X179679217Y-75326308D01*
X179657124Y-75336855D01*
X179608348Y-75366184D01*
X179538331Y-75410827D01*
X179452514Y-75467314D01*
X179357388Y-75531462D01*
X179260540Y-75596411D01*
X179173253Y-75652896D01*
X179101181Y-75697421D01*
X179049977Y-75726490D01*
X179025526Y-75736616D01*
X179003010Y-75723307D01*
X178957742Y-75686112D01*
X178894244Y-75629128D01*
X178817039Y-75556449D01*
X178730651Y-75472171D01*
X178702399Y-75444016D01*
X178410287Y-75151416D01*
X178632631Y-74825104D01*
X178700202Y-74724897D01*
X178759507Y-74634963D01*
X178807217Y-74560510D01*
X178840007Y-74506751D01*
X178854548Y-74478894D01*
X178854974Y-74476912D01*
X178847308Y-74450655D01*
X178826689Y-74397837D01*
X178796685Y-74327310D01*
X178775625Y-74280093D01*
X178736248Y-74189694D01*
X178699165Y-74098366D01*
X178670415Y-74021200D01*
X178662605Y-73997692D01*
X178640417Y-73934916D01*
X178618727Y-73886411D01*
X178606813Y-73868079D01*
X178580523Y-73856859D01*
X178523142Y-73840954D01*
X178442118Y-73822167D01*
X178344895Y-73802299D01*
X178301385Y-73794132D01*
X178190896Y-73773829D01*
X178084916Y-73754170D01*
X177993801Y-73737088D01*
X177927908Y-73724518D01*
X177915500Y-73722091D01*
X177812923Y-73701845D01*
X177812923Y-73274701D01*
X177813153Y-73134246D01*
X177814099Y-73027979D01*
X177816141Y-72951013D01*
X177819662Y-72898460D01*
X177825043Y-72865433D01*
X177832666Y-72847045D01*
X177842912Y-72838408D01*
X177847115Y-72836807D01*
X177872470Y-72831127D01*
X177928484Y-72819795D01*
X178007964Y-72804179D01*
X178103712Y-72785647D01*
X178208533Y-72765569D01*
X178315232Y-72745312D01*
X178416613Y-72726246D01*
X178505479Y-72709739D01*
X178574637Y-72697159D01*
X178616889Y-72689875D01*
X178626290Y-72688616D01*
X178634807Y-72671763D01*
X178653660Y-72626870D01*
X178679324Y-72562430D01*
X178689123Y-72537192D01*
X178728648Y-72439686D01*
X178775192Y-72331959D01*
X178816877Y-72241172D01*
X178847550Y-72171753D01*
X178867956Y-72114710D01*
X178874768Y-72079777D01*
X178873682Y-72075095D01*
X178859285Y-72052991D01*
X178826412Y-72003831D01*
X178778590Y-71932848D01*
X178719348Y-71845278D01*
X178652215Y-71746357D01*
X178638941Y-71726830D01*
X178561046Y-71611140D01*
X178503787Y-71523044D01*
X178464881Y-71458486D01*
X178442044Y-71413411D01*
X178432994Y-71383763D01*
X178435448Y-71365485D01*
X178435511Y-71365369D01*
X178454827Y-71341361D01*
X178497551Y-71294947D01*
X178559051Y-71230937D01*
X178634698Y-71154145D01*
X178719861Y-71069382D01*
X178729465Y-71059922D01*
X178836790Y-70955989D01*
X178919615Y-70879675D01*
X178979605Y-70829571D01*
X179018423Y-70804270D01*
X179035520Y-70801004D01*
X179060473Y-70815250D01*
X179112255Y-70848156D01*
X179185520Y-70896208D01*
X179274920Y-70955890D01*
X179375111Y-71023688D01*
X179398501Y-71039639D01*
X179730593Y-71266420D01*
X179880565Y-71198353D01*
X179971770Y-71158685D01*
X180069669Y-71118791D01*
X180153831Y-71086983D01*
X180157538Y-71085674D01*
X180223369Y-71061576D01*
X180274116Y-71041200D01*
X180298842Y-71028936D01*
X180298884Y-71028901D01*
X180306729Y-71006734D01*
X180320066Y-70952217D01*
X180337570Y-70871480D01*
X180357917Y-70770650D01*
X180379782Y-70655856D01*
X180381571Y-70646178D01*
X180403504Y-70527904D01*
X180423640Y-70420542D01*
X180440680Y-70330917D01*
X180453328Y-70265851D01*
X180460284Y-70232168D01*
X180460406Y-70231654D01*
X180464639Y-70217325D01*
X180472871Y-70206507D01*
X180490033Y-70198706D01*
X180521058Y-70193429D01*
X180570878Y-70190182D01*
X180644424Y-70188472D01*
X180746629Y-70187807D01*
X180882425Y-70187693D01*
X180900000Y-70187692D01*
X181039878Y-70187776D01*
G37*
X181039878Y-70187776D02*
X181145612Y-70188355D01*
X181222132Y-70189922D01*
X181274372Y-70192972D01*
X181307263Y-70197996D01*
X181325737Y-70205489D01*
X181334727Y-70215944D01*
X181339163Y-70229853D01*
X181339594Y-70231654D01*
X181346333Y-70264145D01*
X181358808Y-70328252D01*
X181375719Y-70417151D01*
X181395771Y-70524019D01*
X181417664Y-70642033D01*
X181418429Y-70646178D01*
X181440359Y-70761831D01*
X181460877Y-70864014D01*
X181478659Y-70946598D01*
X181492381Y-71003456D01*
X181500718Y-71028458D01*
X181501116Y-71028901D01*
X181525677Y-71041110D01*
X181576315Y-71061456D01*
X181642095Y-71085545D01*
X181642461Y-71085674D01*
X181725317Y-71116818D01*
X181823000Y-71156491D01*
X181915077Y-71196381D01*
X181919434Y-71198353D01*
X182069407Y-71266420D01*
X182401498Y-71039639D01*
X182503374Y-70970504D01*
X182595657Y-70908697D01*
X182673003Y-70857733D01*
X182730064Y-70821127D01*
X182761495Y-70802394D01*
X182764479Y-70801004D01*
X182787321Y-70807190D01*
X182829982Y-70837035D01*
X182894128Y-70891947D01*
X182981421Y-70973334D01*
X183070535Y-71059922D01*
X183156441Y-71145247D01*
X183233327Y-71223108D01*
X183296564Y-71288697D01*
X183341523Y-71337205D01*
X183363576Y-71363825D01*
X183364396Y-71365195D01*
X183366834Y-71383463D01*
X183357650Y-71413295D01*
X183334574Y-71458721D01*
X183295337Y-71523770D01*
X183237670Y-71612470D01*
X183160795Y-71726657D01*
X183092570Y-71827162D01*
X183031582Y-71917303D01*
X182981356Y-71991849D01*
X182945416Y-72045565D01*
X182927287Y-72073218D01*
X182926146Y-72075095D01*
X182928359Y-72101590D01*
X182945138Y-72153086D01*
X182973142Y-72219851D01*
X182983122Y-72241172D01*
X183026672Y-72336159D01*
X183073134Y-72443937D01*
X183110877Y-72537192D01*
X183138073Y-72606406D01*
X183159675Y-72659006D01*
X183172158Y-72686497D01*
X183173709Y-72688616D01*
X183196668Y-72692124D01*
X183250786Y-72701738D01*
X183328868Y-72716089D01*
X183423719Y-72733807D01*
X183528143Y-72753525D01*
X183634944Y-72773874D01*
X183736926Y-72793486D01*
X183826894Y-72810991D01*
X183897653Y-72825022D01*
X183942006Y-72834209D01*
X183952885Y-72836807D01*
X183964122Y-72843218D01*
X183972605Y-72857697D01*
X183978714Y-72885133D01*
X183982832Y-72930411D01*
X183985341Y-72998420D01*
X183986621Y-73094047D01*
X183987054Y-73222180D01*
X183987077Y-73274701D01*
X183987077Y-73701845D01*
X183884500Y-73722091D01*
X183827431Y-73733070D01*
X183742269Y-73749095D01*
X183639372Y-73768233D01*
X183529096Y-73788551D01*
X183498615Y-73794132D01*
X183396855Y-73813917D01*
X183308205Y-73833373D01*
X183240108Y-73850697D01*
X183200004Y-73864088D01*
X183193323Y-73868079D01*
X183176919Y-73896342D01*
X183153399Y-73951109D01*
X183127316Y-74021588D01*
X183122142Y-74036769D01*
X183087956Y-74130896D01*
X183045523Y-74237101D01*
X183003997Y-74332473D01*
X183003792Y-74332916D01*
X182934640Y-74482525D01*
X183389512Y-75151617D01*
X183097500Y-75444116D01*
X183009180Y-75531170D01*
X182928625Y-75607909D01*
X182860360Y-75670237D01*
X182808908Y-75714056D01*
X182778794Y-75735270D01*
X182774474Y-75736616D01*
X182749111Y-75726016D01*
X182697358Y-75696547D01*
X182624868Y-75651705D01*
X182537294Y-75594984D01*
X182442612Y-75531462D01*
X182346516Y-75466668D01*
X182260837Y-75410287D01*
X182191016Y-75365788D01*
X182142494Y-75336639D01*
X182120782Y-75326308D01*
X182094293Y-75335050D01*
X182044062Y-75358087D01*
X181980451Y-75390631D01*
X181973708Y-75394249D01*
X181888046Y-75437210D01*
X181829306Y-75458279D01*
X181792772Y-75458503D01*
X181773731Y-75438928D01*
X181773620Y-75438654D01*
X181764102Y-75415472D01*
X181741403Y-75360441D01*
X181707282Y-75277822D01*
X181663500Y-75171872D01*
X181611816Y-75046852D01*
X181553992Y-74907020D01*
X181497991Y-74771637D01*
X181436447Y-74622234D01*
X181379939Y-74483832D01*
X181330161Y-74360673D01*
X181288806Y-74257002D01*
X181257568Y-74177059D01*
X181238141Y-74125088D01*
X181232154Y-74105692D01*
X181247168Y-74083443D01*
X181286439Y-74047982D01*
X181338807Y-74008887D01*
X181487941Y-73885245D01*
X181604511Y-73743522D01*
X181687118Y-73586704D01*
X181734366Y-73417775D01*
X181744857Y-73239722D01*
X181737231Y-73157539D01*
X181695682Y-72987031D01*
X181624123Y-72836459D01*
X181526995Y-72707309D01*
X181408734Y-72601064D01*
X181273780Y-72519210D01*
X181126571Y-72463232D01*
X180971544Y-72434615D01*
X180813139Y-72434844D01*
X180655794Y-72465405D01*
X180503946Y-72527782D01*
X180362035Y-72623460D01*
X180302803Y-72677572D01*
X180189203Y-72816520D01*
X180110106Y-72968361D01*
X180064986Y-73128667D01*
X180053316Y-73293012D01*
X180074569Y-73456971D01*
X180128220Y-73616118D01*
X180213740Y-73766025D01*
X180330605Y-73902267D01*
X180461193Y-74008887D01*
X180515588Y-74049642D01*
X180554014Y-74084718D01*
X180567846Y-74105726D01*
X180560603Y-74128635D01*
X180540005Y-74183365D01*
X180507746Y-74265672D01*
X180465521Y-74371315D01*
X180415023Y-74496050D01*
X180357948Y-74635636D01*
X180301854Y-74771670D01*
X180239967Y-74921201D01*
X180182644Y-75059767D01*
X180131644Y-75183107D01*
X180088727Y-75286964D01*
X180055653Y-75367080D01*
X180034181Y-75419195D01*
X180026225Y-75438654D01*
X180007429Y-75458423D01*
X179971074Y-75458365D01*
X179912479Y-75437441D01*
X179826968Y-75394613D01*
X179826292Y-75394249D01*
X179761907Y-75361012D01*
X179709861Y-75336802D01*
X179680512Y-75326404D01*
X179679217Y-75326308D01*
X179657124Y-75336855D01*
X179608348Y-75366184D01*
X179538331Y-75410827D01*
X179452514Y-75467314D01*
X179357388Y-75531462D01*
X179260540Y-75596411D01*
X179173253Y-75652896D01*
X179101181Y-75697421D01*
X179049977Y-75726490D01*
X179025526Y-75736616D01*
X179003010Y-75723307D01*
X178957742Y-75686112D01*
X178894244Y-75629128D01*
X178817039Y-75556449D01*
X178730651Y-75472171D01*
X178702399Y-75444016D01*
X178410287Y-75151416D01*
X178632631Y-74825104D01*
X178700202Y-74724897D01*
X178759507Y-74634963D01*
X178807217Y-74560510D01*
X178840007Y-74506751D01*
X178854548Y-74478894D01*
X178854974Y-74476912D01*
X178847308Y-74450655D01*
X178826689Y-74397837D01*
X178796685Y-74327310D01*
X178775625Y-74280093D01*
X178736248Y-74189694D01*
X178699165Y-74098366D01*
X178670415Y-74021200D01*
X178662605Y-73997692D01*
X178640417Y-73934916D01*
X178618727Y-73886411D01*
X178606813Y-73868079D01*
X178580523Y-73856859D01*
X178523142Y-73840954D01*
X178442118Y-73822167D01*
X178344895Y-73802299D01*
X178301385Y-73794132D01*
X178190896Y-73773829D01*
X178084916Y-73754170D01*
X177993801Y-73737088D01*
X177927908Y-73724518D01*
X177915500Y-73722091D01*
X177812923Y-73701845D01*
X177812923Y-73274701D01*
X177813153Y-73134246D01*
X177814099Y-73027979D01*
X177816141Y-72951013D01*
X177819662Y-72898460D01*
X177825043Y-72865433D01*
X177832666Y-72847045D01*
X177842912Y-72838408D01*
X177847115Y-72836807D01*
X177872470Y-72831127D01*
X177928484Y-72819795D01*
X178007964Y-72804179D01*
X178103712Y-72785647D01*
X178208533Y-72765569D01*
X178315232Y-72745312D01*
X178416613Y-72726246D01*
X178505479Y-72709739D01*
X178574637Y-72697159D01*
X178616889Y-72689875D01*
X178626290Y-72688616D01*
X178634807Y-72671763D01*
X178653660Y-72626870D01*
X178679324Y-72562430D01*
X178689123Y-72537192D01*
X178728648Y-72439686D01*
X178775192Y-72331959D01*
X178816877Y-72241172D01*
X178847550Y-72171753D01*
X178867956Y-72114710D01*
X178874768Y-72079777D01*
X178873682Y-72075095D01*
X178859285Y-72052991D01*
X178826412Y-72003831D01*
X178778590Y-71932848D01*
X178719348Y-71845278D01*
X178652215Y-71746357D01*
X178638941Y-71726830D01*
X178561046Y-71611140D01*
X178503787Y-71523044D01*
X178464881Y-71458486D01*
X178442044Y-71413411D01*
X178432994Y-71383763D01*
X178435448Y-71365485D01*
X178435511Y-71365369D01*
X178454827Y-71341361D01*
X178497551Y-71294947D01*
X178559051Y-71230937D01*
X178634698Y-71154145D01*
X178719861Y-71069382D01*
X178729465Y-71059922D01*
X178836790Y-70955989D01*
X178919615Y-70879675D01*
X178979605Y-70829571D01*
X179018423Y-70804270D01*
X179035520Y-70801004D01*
X179060473Y-70815250D01*
X179112255Y-70848156D01*
X179185520Y-70896208D01*
X179274920Y-70955890D01*
X179375111Y-71023688D01*
X179398501Y-71039639D01*
X179730593Y-71266420D01*
X179880565Y-71198353D01*
X179971770Y-71158685D01*
X180069669Y-71118791D01*
X180153831Y-71086983D01*
X180157538Y-71085674D01*
X180223369Y-71061576D01*
X180274116Y-71041200D01*
X180298842Y-71028936D01*
X180298884Y-71028901D01*
X180306729Y-71006734D01*
X180320066Y-70952217D01*
X180337570Y-70871480D01*
X180357917Y-70770650D01*
X180379782Y-70655856D01*
X180381571Y-70646178D01*
X180403504Y-70527904D01*
X180423640Y-70420542D01*
X180440680Y-70330917D01*
X180453328Y-70265851D01*
X180460284Y-70232168D01*
X180460406Y-70231654D01*
X180464639Y-70217325D01*
X180472871Y-70206507D01*
X180490033Y-70198706D01*
X180521058Y-70193429D01*
X180570878Y-70190182D01*
X180644424Y-70188472D01*
X180746629Y-70187807D01*
X180882425Y-70187693D01*
X180900000Y-70187692D01*
X181039878Y-70187776D01*
G36*
X180953501Y-76526303D02*
G01*
X181030060Y-76554733D01*
X181030936Y-76555279D01*
X181078285Y-76590127D01*
X181113241Y-76630852D01*
X181137825Y-76683925D01*
X181154062Y-76755814D01*
X181163975Y-76852992D01*
X181169586Y-76981928D01*
X181170077Y-77000298D01*
X181177141Y-77277287D01*
X181117695Y-77308028D01*
X181074681Y-77328802D01*
X181048710Y-77338646D01*
X181047509Y-77338769D01*
X181043014Y-77320606D01*
X181039444Y-77271612D01*
X181037248Y-77200031D01*
X181036769Y-77142068D01*
X181036758Y-77048170D01*
X181032466Y-76989203D01*
X181017503Y-76961079D01*
X180985482Y-76959706D01*
X180930014Y-76980998D01*
X180846269Y-77020136D01*
X180784689Y-77052643D01*
X180753017Y-77080845D01*
X180743706Y-77111582D01*
X180743692Y-77113104D01*
X180759057Y-77166054D01*
X180804547Y-77194660D01*
X180874166Y-77198803D01*
X180924313Y-77198084D01*
X180950754Y-77212527D01*
X180967243Y-77247218D01*
X180976733Y-77291416D01*
X180963057Y-77316493D01*
X180957907Y-77320082D01*
X180909425Y-77334496D01*
X180841531Y-77336537D01*
X180771612Y-77326983D01*
X180722068Y-77309522D01*
X180653570Y-77251364D01*
X180614634Y-77170408D01*
X180606923Y-77107160D01*
X180612807Y-77050111D01*
X180634101Y-77003542D01*
X180676265Y-76962181D01*
X180744759Y-76920755D01*
X180845044Y-76873993D01*
X180851154Y-76871350D01*
X180941490Y-76829617D01*
X180997235Y-76795391D01*
X181021129Y-76764635D01*
X181015913Y-76733311D01*
X180984328Y-76697383D01*
X180974883Y-76689116D01*
X180911617Y-76657058D01*
X180846064Y-76658407D01*
X180788972Y-76689838D01*
X180751093Y-76748024D01*
X180747574Y-76759446D01*
X180713300Y-76814837D01*
X180669809Y-76841518D01*
X180606923Y-76867960D01*
X180606923Y-76799548D01*
X180626052Y-76700110D01*
X180682831Y-76608902D01*
X180712378Y-76578389D01*
X180779542Y-76539228D01*
X180864956Y-76521500D01*
X180953501Y-76526303D01*
G37*
X180953501Y-76526303D02*
X181030060Y-76554733D01*
X181030936Y-76555279D01*
X181078285Y-76590127D01*
X181113241Y-76630852D01*
X181137825Y-76683925D01*
X181154062Y-76755814D01*
X181163975Y-76852992D01*
X181169586Y-76981928D01*
X181170077Y-77000298D01*
X181177141Y-77277287D01*
X181117695Y-77308028D01*
X181074681Y-77328802D01*
X181048710Y-77338646D01*
X181047509Y-77338769D01*
X181043014Y-77320606D01*
X181039444Y-77271612D01*
X181037248Y-77200031D01*
X181036769Y-77142068D01*
X181036758Y-77048170D01*
X181032466Y-76989203D01*
X181017503Y-76961079D01*
X180985482Y-76959706D01*
X180930014Y-76980998D01*
X180846269Y-77020136D01*
X180784689Y-77052643D01*
X180753017Y-77080845D01*
X180743706Y-77111582D01*
X180743692Y-77113104D01*
X180759057Y-77166054D01*
X180804547Y-77194660D01*
X180874166Y-77198803D01*
X180924313Y-77198084D01*
X180950754Y-77212527D01*
X180967243Y-77247218D01*
X180976733Y-77291416D01*
X180963057Y-77316493D01*
X180957907Y-77320082D01*
X180909425Y-77334496D01*
X180841531Y-77336537D01*
X180771612Y-77326983D01*
X180722068Y-77309522D01*
X180653570Y-77251364D01*
X180614634Y-77170408D01*
X180606923Y-77107160D01*
X180612807Y-77050111D01*
X180634101Y-77003542D01*
X180676265Y-76962181D01*
X180744759Y-76920755D01*
X180845044Y-76873993D01*
X180851154Y-76871350D01*
X180941490Y-76829617D01*
X180997235Y-76795391D01*
X181021129Y-76764635D01*
X181015913Y-76733311D01*
X180984328Y-76697383D01*
X180974883Y-76689116D01*
X180911617Y-76657058D01*
X180846064Y-76658407D01*
X180788972Y-76689838D01*
X180751093Y-76748024D01*
X180747574Y-76759446D01*
X180713300Y-76814837D01*
X180669809Y-76841518D01*
X180606923Y-76867960D01*
X180606923Y-76799548D01*
X180626052Y-76700110D01*
X180682831Y-76608902D01*
X180712378Y-76578389D01*
X180779542Y-76539228D01*
X180864956Y-76521500D01*
X180953501Y-76526303D01*
G36*
X181613362Y-76524670D02*
G01*
X181702117Y-76557421D01*
X181774022Y-76615350D01*
X181802144Y-76656128D01*
X181832802Y-76730954D01*
X181832165Y-76785058D01*
X181799987Y-76821446D01*
X181788081Y-76827633D01*
X181736675Y-76846925D01*
X181710422Y-76841982D01*
X181701530Y-76809587D01*
X181701077Y-76791692D01*
X181684797Y-76725859D01*
X181642365Y-76679807D01*
X181583388Y-76657564D01*
X181517475Y-76663161D01*
X181463895Y-76692229D01*
X181445798Y-76708810D01*
X181432971Y-76728925D01*
X181424306Y-76759332D01*
X181418696Y-76806788D01*
X181415035Y-76878050D01*
X181412215Y-76979875D01*
X181411484Y-77012115D01*
X181408820Y-77122410D01*
X181405792Y-77200036D01*
X181401250Y-77251396D01*
X181394046Y-77282890D01*
X181383033Y-77300920D01*
X181367060Y-77311888D01*
X181356834Y-77316733D01*
X181313406Y-77333301D01*
X181287842Y-77338769D01*
X181279395Y-77320507D01*
X181274239Y-77265296D01*
X181272346Y-77172499D01*
X181273689Y-77041478D01*
X181274107Y-77021269D01*
X181277058Y-76901733D01*
X181280548Y-76814449D01*
X181285514Y-76752591D01*
X181292893Y-76709336D01*
X181303624Y-76677860D01*
X181318645Y-76651339D01*
X181326502Y-76639975D01*
X181371553Y-76589692D01*
X181421940Y-76550581D01*
X181428108Y-76547167D01*
X181518458Y-76520212D01*
X181613362Y-76524670D01*
G37*
X181613362Y-76524670D02*
X181702117Y-76557421D01*
X181774022Y-76615350D01*
X181802144Y-76656128D01*
X181832802Y-76730954D01*
X181832165Y-76785058D01*
X181799987Y-76821446D01*
X181788081Y-76827633D01*
X181736675Y-76846925D01*
X181710422Y-76841982D01*
X181701530Y-76809587D01*
X181701077Y-76791692D01*
X181684797Y-76725859D01*
X181642365Y-76679807D01*
X181583388Y-76657564D01*
X181517475Y-76663161D01*
X181463895Y-76692229D01*
X181445798Y-76708810D01*
X181432971Y-76728925D01*
X181424306Y-76759332D01*
X181418696Y-76806788D01*
X181415035Y-76878050D01*
X181412215Y-76979875D01*
X181411484Y-77012115D01*
X181408820Y-77122410D01*
X181405792Y-77200036D01*
X181401250Y-77251396D01*
X181394046Y-77282890D01*
X181383033Y-77300920D01*
X181367060Y-77311888D01*
X181356834Y-77316733D01*
X181313406Y-77333301D01*
X181287842Y-77338769D01*
X181279395Y-77320507D01*
X181274239Y-77265296D01*
X181272346Y-77172499D01*
X181273689Y-77041478D01*
X181274107Y-77021269D01*
X181277058Y-76901733D01*
X181280548Y-76814449D01*
X181285514Y-76752591D01*
X181292893Y-76709336D01*
X181303624Y-76677860D01*
X181318645Y-76651339D01*
X181326502Y-76639975D01*
X181371553Y-76589692D01*
X181421940Y-76550581D01*
X181428108Y-76547167D01*
X181518458Y-76520212D01*
X181613362Y-76524670D01*
G36*
X183787333Y-76533528D02*
G01*
X183843590Y-76559117D01*
X183887747Y-76590124D01*
X183920101Y-76624795D01*
X183942438Y-76669520D01*
X183956546Y-76730692D01*
X183964211Y-76814701D01*
X183967220Y-76927940D01*
X183967538Y-77002509D01*
X183967538Y-77293420D01*
X183917773Y-77316095D01*
X183878576Y-77332667D01*
X183859157Y-77338769D01*
X183855442Y-77320610D01*
X183852495Y-77271648D01*
X183850691Y-77200153D01*
X183850308Y-77143385D01*
X183848661Y-77061371D01*
X183844222Y-76996309D01*
X183837740Y-76956467D01*
X183832590Y-76948000D01*
X183797977Y-76956646D01*
X183743640Y-76978823D01*
X183680722Y-77008886D01*
X183620368Y-77041192D01*
X183573721Y-77070098D01*
X183551926Y-77089961D01*
X183551839Y-77090175D01*
X183553714Y-77126935D01*
X183570525Y-77162026D01*
X183600039Y-77190528D01*
X183643116Y-77200061D01*
X183679932Y-77198950D01*
X183732074Y-77198133D01*
X183759444Y-77210349D01*
X183775882Y-77242624D01*
X183777955Y-77248710D01*
X183785081Y-77294739D01*
X183766024Y-77322687D01*
X183716353Y-77336007D01*
X183662697Y-77338470D01*
X183566142Y-77320210D01*
X183516159Y-77294131D01*
X183454429Y-77232868D01*
X183421690Y-77157670D01*
X183418753Y-77078211D01*
X183446424Y-77004167D01*
X183488047Y-76957769D01*
X183529604Y-76931793D01*
X183594922Y-76898907D01*
X183671038Y-76865557D01*
X183683726Y-76860461D01*
X183767333Y-76823565D01*
X183815530Y-76791046D01*
X183831030Y-76758718D01*
X183816550Y-76722394D01*
X183791692Y-76694000D01*
X183732939Y-76659039D01*
X183668293Y-76656417D01*
X183609008Y-76683358D01*
X183566339Y-76737088D01*
X183560739Y-76750950D01*
X183528133Y-76801936D01*
X183480530Y-76839787D01*
X183420461Y-76870850D01*
X183420461Y-76782768D01*
X183423997Y-76728951D01*
X183439156Y-76686534D01*
X183472768Y-76641279D01*
X183505035Y-76606420D01*
X183555209Y-76557062D01*
X183594193Y-76530547D01*
X183636064Y-76519911D01*
X183683460Y-76518154D01*
X183787333Y-76533528D01*
G37*
X183787333Y-76533528D02*
X183843590Y-76559117D01*
X183887747Y-76590124D01*
X183920101Y-76624795D01*
X183942438Y-76669520D01*
X183956546Y-76730692D01*
X183964211Y-76814701D01*
X183967220Y-76927940D01*
X183967538Y-77002509D01*
X183967538Y-77293420D01*
X183917773Y-77316095D01*
X183878576Y-77332667D01*
X183859157Y-77338769D01*
X183855442Y-77320610D01*
X183852495Y-77271648D01*
X183850691Y-77200153D01*
X183850308Y-77143385D01*
X183848661Y-77061371D01*
X183844222Y-76996309D01*
X183837740Y-76956467D01*
X183832590Y-76948000D01*
X183797977Y-76956646D01*
X183743640Y-76978823D01*
X183680722Y-77008886D01*
X183620368Y-77041192D01*
X183573721Y-77070098D01*
X183551926Y-77089961D01*
X183551839Y-77090175D01*
X183553714Y-77126935D01*
X183570525Y-77162026D01*
X183600039Y-77190528D01*
X183643116Y-77200061D01*
X183679932Y-77198950D01*
X183732074Y-77198133D01*
X183759444Y-77210349D01*
X183775882Y-77242624D01*
X183777955Y-77248710D01*
X183785081Y-77294739D01*
X183766024Y-77322687D01*
X183716353Y-77336007D01*
X183662697Y-77338470D01*
X183566142Y-77320210D01*
X183516159Y-77294131D01*
X183454429Y-77232868D01*
X183421690Y-77157670D01*
X183418753Y-77078211D01*
X183446424Y-77004167D01*
X183488047Y-76957769D01*
X183529604Y-76931793D01*
X183594922Y-76898907D01*
X183671038Y-76865557D01*
X183683726Y-76860461D01*
X183767333Y-76823565D01*
X183815530Y-76791046D01*
X183831030Y-76758718D01*
X183816550Y-76722394D01*
X183791692Y-76694000D01*
X183732939Y-76659039D01*
X183668293Y-76656417D01*
X183609008Y-76683358D01*
X183566339Y-76737088D01*
X183560739Y-76750950D01*
X183528133Y-76801936D01*
X183480530Y-76839787D01*
X183420461Y-76870850D01*
X183420461Y-76782768D01*
X183423997Y-76728951D01*
X183439156Y-76686534D01*
X183472768Y-76641279D01*
X183505035Y-76606420D01*
X183555209Y-76557062D01*
X183594193Y-76530547D01*
X183636064Y-76519911D01*
X183683460Y-76518154D01*
X183787333Y-76533528D01*
G36*
X183295929Y-76536662D02*
G01*
X183298911Y-76588068D01*
X183301247Y-76666192D01*
X183302749Y-76764857D01*
X183303231Y-76868343D01*
X183303231Y-77218533D01*
X183241401Y-77280363D01*
X183198793Y-77318462D01*
X183161390Y-77333895D01*
X183110270Y-77332918D01*
X183089978Y-77330433D01*
X183026554Y-77323200D01*
X182974095Y-77319055D01*
X182961308Y-77318672D01*
X182918199Y-77321176D01*
X182856544Y-77327462D01*
X182832638Y-77330433D01*
X182773922Y-77335028D01*
X182734464Y-77325046D01*
X182695338Y-77294228D01*
X182681215Y-77280363D01*
X182619385Y-77218533D01*
X182619385Y-76563503D01*
X182669150Y-76540829D01*
X182712002Y-76524034D01*
X182737073Y-76518154D01*
X182743501Y-76536736D01*
X182749509Y-76588655D01*
X182754697Y-76668172D01*
X182758664Y-76769546D01*
X182760577Y-76855192D01*
X182765923Y-77192231D01*
X182812560Y-77198825D01*
X182854976Y-77194214D01*
X182875760Y-77179287D01*
X182881570Y-77151377D01*
X182886530Y-77091925D01*
X182890246Y-77008466D01*
X182892324Y-76908532D01*
X182892624Y-76857104D01*
X182892923Y-76561054D01*
X182954454Y-76539604D01*
X182998004Y-76525020D01*
X183021694Y-76518219D01*
X183022377Y-76518154D01*
X183024754Y-76536642D01*
X183027366Y-76587906D01*
X183029995Y-76665649D01*
X183032421Y-76763574D01*
X183034115Y-76855192D01*
X183039461Y-77192231D01*
X183156692Y-77192231D01*
X183162072Y-76884746D01*
X183167451Y-76577261D01*
X183224601Y-76547707D01*
X183266797Y-76527413D01*
X183291770Y-76518204D01*
X183292491Y-76518154D01*
X183295929Y-76536662D01*
G37*
X183295929Y-76536662D02*
X183298911Y-76588068D01*
X183301247Y-76666192D01*
X183302749Y-76764857D01*
X183303231Y-76868343D01*
X183303231Y-77218533D01*
X183241401Y-77280363D01*
X183198793Y-77318462D01*
X183161390Y-77333895D01*
X183110270Y-77332918D01*
X183089978Y-77330433D01*
X183026554Y-77323200D01*
X182974095Y-77319055D01*
X182961308Y-77318672D01*
X182918199Y-77321176D01*
X182856544Y-77327462D01*
X182832638Y-77330433D01*
X182773922Y-77335028D01*
X182734464Y-77325046D01*
X182695338Y-77294228D01*
X182681215Y-77280363D01*
X182619385Y-77218533D01*
X182619385Y-76563503D01*
X182669150Y-76540829D01*
X182712002Y-76524034D01*
X182737073Y-76518154D01*
X182743501Y-76536736D01*
X182749509Y-76588655D01*
X182754697Y-76668172D01*
X182758664Y-76769546D01*
X182760577Y-76855192D01*
X182765923Y-77192231D01*
X182812560Y-77198825D01*
X182854976Y-77194214D01*
X182875760Y-77179287D01*
X182881570Y-77151377D01*
X182886530Y-77091925D01*
X182890246Y-77008466D01*
X182892324Y-76908532D01*
X182892624Y-76857104D01*
X182892923Y-76561054D01*
X182954454Y-76539604D01*
X182998004Y-76525020D01*
X183021694Y-76518219D01*
X183022377Y-76518154D01*
X183024754Y-76536642D01*
X183027366Y-76587906D01*
X183029995Y-76665649D01*
X183032421Y-76763574D01*
X183034115Y-76855192D01*
X183039461Y-77192231D01*
X183156692Y-77192231D01*
X183162072Y-76884746D01*
X183167451Y-76577261D01*
X183224601Y-76547707D01*
X183266797Y-76527413D01*
X183291770Y-76518204D01*
X183292491Y-76518154D01*
X183295929Y-76536662D01*
G36*
X176507629Y-76737906D02*
G01*
X176514322Y-76689163D01*
X176525960Y-76653288D01*
X176543853Y-76621548D01*
X176547808Y-76615648D01*
X176614267Y-76536104D01*
X176686685Y-76489929D01*
X176774849Y-76471599D01*
X176804787Y-76470703D01*
X176916886Y-76487256D01*
X177008464Y-76535409D01*
X177076049Y-76612905D01*
X177100057Y-76662727D01*
X177118738Y-76737533D01*
X177128301Y-76832052D01*
X177129208Y-76935210D01*
X177121921Y-77035935D01*
X177106903Y-77123153D01*
X177084615Y-77185791D01*
X177077765Y-77196579D01*
X176996632Y-77277105D01*
X176900266Y-77325336D01*
X176795701Y-77339450D01*
X176689968Y-77317629D01*
X176660543Y-77304547D01*
X176603241Y-77264231D01*
X176552950Y-77210775D01*
X176548197Y-77203995D01*
X176528878Y-77171321D01*
X176516108Y-77136394D01*
X176508564Y-77090414D01*
X176504924Y-77024584D01*
X176503865Y-76930105D01*
X176503846Y-76908923D01*
X176503894Y-76902182D01*
X176699231Y-76902182D01*
X176700368Y-76991349D01*
X176704841Y-77050520D01*
X176714246Y-77088741D01*
X176730176Y-77115053D01*
X176738308Y-77123846D01*
X176785058Y-77157261D01*
X176830447Y-77155737D01*
X176876340Y-77126752D01*
X176903712Y-77095809D01*
X176919923Y-77050643D01*
X176929026Y-76979420D01*
X176929651Y-76971114D01*
X176931204Y-76842037D01*
X176914965Y-76746172D01*
X176881152Y-76684107D01*
X176829984Y-76656432D01*
X176811720Y-76654923D01*
X176763760Y-76662513D01*
X176730953Y-76688808D01*
X176710895Y-76739095D01*
X176701178Y-76818664D01*
X176699231Y-76902182D01*
X176503894Y-76902182D01*
X176504574Y-76808249D01*
X176507629Y-76737906D01*
G37*
X176507629Y-76737906D02*
X176514322Y-76689163D01*
X176525960Y-76653288D01*
X176543853Y-76621548D01*
X176547808Y-76615648D01*
X176614267Y-76536104D01*
X176686685Y-76489929D01*
X176774849Y-76471599D01*
X176804787Y-76470703D01*
X176916886Y-76487256D01*
X177008464Y-76535409D01*
X177076049Y-76612905D01*
X177100057Y-76662727D01*
X177118738Y-76737533D01*
X177128301Y-76832052D01*
X177129208Y-76935210D01*
X177121921Y-77035935D01*
X177106903Y-77123153D01*
X177084615Y-77185791D01*
X177077765Y-77196579D01*
X176996632Y-77277105D01*
X176900266Y-77325336D01*
X176795701Y-77339450D01*
X176689968Y-77317629D01*
X176660543Y-77304547D01*
X176603241Y-77264231D01*
X176552950Y-77210775D01*
X176548197Y-77203995D01*
X176528878Y-77171321D01*
X176516108Y-77136394D01*
X176508564Y-77090414D01*
X176504924Y-77024584D01*
X176503865Y-76930105D01*
X176503846Y-76908923D01*
X176503894Y-76902182D01*
X176699231Y-76902182D01*
X176700368Y-76991349D01*
X176704841Y-77050520D01*
X176714246Y-77088741D01*
X176730176Y-77115053D01*
X176738308Y-77123846D01*
X176785058Y-77157261D01*
X176830447Y-77155737D01*
X176876340Y-77126752D01*
X176903712Y-77095809D01*
X176919923Y-77050643D01*
X176929026Y-76979420D01*
X176929651Y-76971114D01*
X176931204Y-76842037D01*
X176914965Y-76746172D01*
X176881152Y-76684107D01*
X176829984Y-76656432D01*
X176811720Y-76654923D01*
X176763760Y-76662513D01*
X176730953Y-76688808D01*
X176710895Y-76739095D01*
X176701178Y-76818664D01*
X176699231Y-76902182D01*
X176503894Y-76902182D01*
X176504574Y-76808249D01*
X176507629Y-76737906D01*
G36*
X177256873Y-76794679D02*
G01*
X177260606Y-76730905D01*
X177265907Y-76685582D01*
X177273258Y-76653555D01*
X177283143Y-76629668D01*
X177296046Y-76608764D01*
X177301579Y-76600898D01*
X177374969Y-76526595D01*
X177467760Y-76484467D01*
X177575096Y-76472722D01*
X177668886Y-76484505D01*
X177743539Y-76521727D01*
X177809431Y-76590261D01*
X177827577Y-76615648D01*
X177847345Y-76648866D01*
X177860172Y-76684945D01*
X177867510Y-76733098D01*
X177870813Y-76802536D01*
X177871538Y-76894206D01*
X177868263Y-77019830D01*
X177856877Y-77114154D01*
X177835041Y-77184523D01*
X177800419Y-77238286D01*
X177750670Y-77282788D01*
X177747014Y-77285423D01*
X177697985Y-77312377D01*
X177638945Y-77325712D01*
X177563859Y-77329000D01*
X177441795Y-77329000D01*
X177441744Y-77447497D01*
X177440608Y-77513492D01*
X177433686Y-77552202D01*
X177415598Y-77575419D01*
X177380962Y-77594933D01*
X177372645Y-77598920D01*
X177333720Y-77617603D01*
X177303583Y-77629403D01*
X177281174Y-77630422D01*
X177265433Y-77616761D01*
X177255302Y-77584522D01*
X177249723Y-77529804D01*
X177247635Y-77448711D01*
X177247981Y-77337344D01*
X177249700Y-77191802D01*
X177250237Y-77148269D01*
X177252172Y-76998205D01*
X177253904Y-76900042D01*
X177441692Y-76900042D01*
X177442748Y-76983364D01*
X177447438Y-77037880D01*
X177458051Y-77073837D01*
X177476872Y-77101482D01*
X177489650Y-77114965D01*
X177541890Y-77154417D01*
X177588142Y-77157628D01*
X177635867Y-77125049D01*
X177637077Y-77123846D01*
X177656494Y-77098668D01*
X177668307Y-77064447D01*
X177674265Y-77011748D01*
X177676120Y-76931131D01*
X177676154Y-76913271D01*
X177671670Y-76802175D01*
X177657074Y-76725161D01*
X177630650Y-76678147D01*
X177590683Y-76657050D01*
X177567584Y-76654923D01*
X177512762Y-76664900D01*
X177475158Y-76697752D01*
X177452523Y-76757857D01*
X177442606Y-76849598D01*
X177441692Y-76900042D01*
X177253904Y-76900042D01*
X177254222Y-76882060D01*
X177256873Y-76794679D01*
G37*
X177256873Y-76794679D02*
X177260606Y-76730905D01*
X177265907Y-76685582D01*
X177273258Y-76653555D01*
X177283143Y-76629668D01*
X177296046Y-76608764D01*
X177301579Y-76600898D01*
X177374969Y-76526595D01*
X177467760Y-76484467D01*
X177575096Y-76472722D01*
X177668886Y-76484505D01*
X177743539Y-76521727D01*
X177809431Y-76590261D01*
X177827577Y-76615648D01*
X177847345Y-76648866D01*
X177860172Y-76684945D01*
X177867510Y-76733098D01*
X177870813Y-76802536D01*
X177871538Y-76894206D01*
X177868263Y-77019830D01*
X177856877Y-77114154D01*
X177835041Y-77184523D01*
X177800419Y-77238286D01*
X177750670Y-77282788D01*
X177747014Y-77285423D01*
X177697985Y-77312377D01*
X177638945Y-77325712D01*
X177563859Y-77329000D01*
X177441795Y-77329000D01*
X177441744Y-77447497D01*
X177440608Y-77513492D01*
X177433686Y-77552202D01*
X177415598Y-77575419D01*
X177380962Y-77594933D01*
X177372645Y-77598920D01*
X177333720Y-77617603D01*
X177303583Y-77629403D01*
X177281174Y-77630422D01*
X177265433Y-77616761D01*
X177255302Y-77584522D01*
X177249723Y-77529804D01*
X177247635Y-77448711D01*
X177247981Y-77337344D01*
X177249700Y-77191802D01*
X177250237Y-77148269D01*
X177252172Y-76998205D01*
X177253904Y-76900042D01*
X177441692Y-76900042D01*
X177442748Y-76983364D01*
X177447438Y-77037880D01*
X177458051Y-77073837D01*
X177476872Y-77101482D01*
X177489650Y-77114965D01*
X177541890Y-77154417D01*
X177588142Y-77157628D01*
X177635867Y-77125049D01*
X177637077Y-77123846D01*
X177656494Y-77098668D01*
X177668307Y-77064447D01*
X177674265Y-77011748D01*
X177676120Y-76931131D01*
X177676154Y-76913271D01*
X177671670Y-76802175D01*
X177657074Y-76725161D01*
X177630650Y-76678147D01*
X177590683Y-76657050D01*
X177567584Y-76654923D01*
X177512762Y-76664900D01*
X177475158Y-76697752D01*
X177452523Y-76757857D01*
X177442606Y-76849598D01*
X177441692Y-76900042D01*
X177253904Y-76900042D01*
X177254222Y-76882060D01*
X177256873Y-76794679D01*
D13*
%TO.C,U1*%
X155318000Y-99454000D02*
X155318000Y-94374000D01*
X196088000Y-96784000D02*
X157988000Y-96784000D01*
X163198000Y-94374000D02*
X152778000Y-94374000D01*
X193548000Y-84084000D02*
X196088000Y-84084000D01*
X152778000Y-86494000D02*
X163198000Y-86494000D01*
X152778000Y-94374000D02*
X152778000Y-86494000D01*
X196088000Y-96784000D02*
X196088000Y-99454000D01*
X163198000Y-86494000D02*
X163198000Y-94374000D01*
X196088000Y-84084000D02*
X196088000Y-81414000D01*
X157988000Y-84084000D02*
X157988000Y-81414000D01*
X198758000Y-81414000D02*
X196088000Y-81414000D01*
X155318000Y-99454000D02*
X198758000Y-99454000D01*
X193548000Y-84084000D02*
X157988000Y-84084000D01*
X198758000Y-99454000D02*
X198758000Y-81414000D01*
X193548000Y-81414000D02*
X155318000Y-81414000D01*
X193548000Y-84084000D02*
X193548000Y-81414000D01*
X155318000Y-81414000D02*
X155318000Y-86494000D01*
X157988000Y-96784000D02*
X157988000Y-99454000D01*
%TD*%
M02*
