M48
; DRILL file {KiCad 6.0.11-2627ca5db0~126~ubuntu22.04.1} date Wed 15 Feb 2023 02:16:25 AM EST
; FORMAT={-:-/ absolute / inch / decimal}
; #@! TF.CreationDate,2023-02-15T02:16:25-05:00
; #@! TF.GenerationSoftware,Kicad,Pcbnew,6.0.11-2627ca5db0~126~ubuntu22.04.1
; #@! TF.FileFunction,Plated,1,4,PTH
FMAT,2
INCH
; #@! TA.AperFunction,Plated,PTH,ComponentDrill
T1C0.0079
; #@! TA.AperFunction,Plated,PTH,ViaDrill
T2C0.0157
; #@! TA.AperFunction,Plated,PTH,ComponentDrill
T3C0.0394
; #@! TA.AperFunction,Plated,PTH,ComponentDrill
T4C0.0433
; #@! TA.AperFunction,Plated,PTH,ComponentDrill
T5C0.0551
%
G90
G05
T1
X8.0405Y-3.0709
X8.0405Y-3.13
X8.0405Y-3.1891
X8.0995Y-3.0709
X8.0995Y-3.13
X8.0995Y-3.1891
T2
X6.25Y-2.9193
X6.45Y-2.71
X6.6202Y-3.6602
X6.6654Y-2.7165
X6.68Y-3.56
X6.75Y-3.59
X6.76Y-3.16
X6.78Y-2.99
X6.82Y-3.12
X6.83Y-3.71
X6.8622Y-3.626
X6.87Y-3.4095
X6.87Y-3.56
X6.8898Y-3.5079
X7.0137Y-3.4154
X7.0865Y-3.4076
X7.1211Y-3.3514
X7.1575Y-3.6339
X7.22Y-3.75
X7.27Y-3.51
X7.32Y-3.01
X7.3258Y-3.1594
X7.3307Y-2.7874
X7.372Y-2.6988
X7.3887Y-3.4351
X7.4Y-3.01
X7.5108Y-2.6299
X7.56Y-3.12
X7.561Y-2.7224
X7.689Y-2.8425
X7.76Y-3.05
X7.7736Y-2.7303
X7.83Y-3.03
X7.8386Y-3.7874
X7.87Y-3.21
X7.88Y-3.1664
X7.89Y-3.24
X7.9Y-3.11
X7.9Y-3.79
X7.94Y-2.89
X7.9734Y-2.7835
X7.99Y-3.45
X8.01Y-3.67
X8.09Y-3.67
X8.1339Y-2.7067
X8.14Y-3.68
X8.2008Y-3.5039
X8.23Y-3.27
X8.25Y-3.02
X8.2707Y-2.627
X8.28Y-3.18
X8.28Y-3.26
X8.29Y-3.08
X8.31Y-2.97
X8.35Y-3.16
X8.39Y-3.25
T3
X6.0984Y-2.7953
X6.0984Y-2.8953
X6.0984Y-2.9953
X6.0984Y-3.0953
X6.27Y-3.2604
X6.27Y-3.8604
X6.37Y-3.2604
X6.37Y-3.8604
X6.47Y-3.2604
X6.47Y-3.8604
X6.57Y-3.2604
X6.57Y-3.8604
X6.67Y-3.2604
X6.67Y-3.8604
X6.77Y-3.2604
X6.77Y-3.8604
X6.87Y-3.2604
X6.87Y-3.8604
X6.97Y-3.2604
X6.97Y-3.8604
X7.07Y-3.2604
X7.07Y-3.8604
X7.17Y-3.2604
X7.17Y-3.8604
X7.27Y-3.2604
X7.27Y-3.8604
X7.37Y-3.2604
X7.37Y-3.8604
X7.47Y-3.2604
X7.47Y-3.8604
X7.57Y-3.2604
X7.57Y-3.8604
X7.67Y-3.2604
X7.67Y-3.8604
T4
X6.25Y-2.48
X6.35Y-2.48
X6.45Y-2.48
X6.6654Y-2.4843
X6.7654Y-2.4843
X6.9764Y-2.4843
X7.0764Y-2.4843
X7.1764Y-2.4843
X7.6451Y-2.4921
X7.7451Y-2.4921
X7.8451Y-2.4921
X7.9451Y-2.4921
T5
X8.4748Y-2.5832
X8.4748Y-2.9768
X8.4764Y-3.3623
X8.4764Y-3.7559
X8.5732Y-2.4926
X8.5732Y-2.78
X8.5732Y-3.0674
X8.5748Y-3.2717
X8.5748Y-3.5591
X8.5748Y-3.8465
X8.9551Y-2.5832
X8.9551Y-2.9768
X8.9567Y-3.3623
X8.9567Y-3.7559
T0
M30
