M48
; DRILL file {KiCad (6.0.10)} date Sat Feb  4 03:47:26 2023
; FORMAT={-:-/ absolute / inch / decimal}
; #@! TF.CreationDate,2023-02-04T03:47:26-05:00
; #@! TF.GenerationSoftware,Kicad,Pcbnew,(6.0.10)
; #@! TF.FileFunction,Plated,1,4,PTH
FMAT,2
INCH
; #@! TA.AperFunction,Plated,PTH,ComponentDrill
T1C0.0079
; #@! TA.AperFunction,Plated,PTH,ViaDrill
T2C0.0157
; #@! TA.AperFunction,Plated,PTH,ComponentDrill
T3C0.0394
; #@! TA.AperFunction,Plated,PTH,ComponentDrill
T4C0.0433
; #@! TA.AperFunction,Plated,PTH,ComponentDrill
T5C0.0551
%
G90
G05
T1
X8.0405Y-3.0709
X8.0405Y-3.13
X8.0405Y-3.1891
X8.0995Y-3.0709
X8.0995Y-3.13
X8.0995Y-3.1891
T2
X6.37Y-3.63
X6.45Y-2.71
X6.68Y-3.56
X6.68Y-3.67
X6.7733Y-2.7067
X6.83Y-3.71
X6.87Y-3.43
X6.87Y-3.56
X7.03Y-3.37
X7.22Y-3.75
X7.27Y-3.51
X7.3887Y-3.4351
X7.4Y-3.01
X7.56Y-3.12
X7.66Y-2.75
X7.76Y-3.05
X7.83Y-3.03
X7.87Y-3.21
X7.88Y-3.1664
X7.89Y-3.24
X7.9Y-3.11
X7.9Y-3.79
X7.94Y-2.89
X7.99Y-3.45
X8.01Y-3.67
X8.09Y-3.67
X8.14Y-3.68
X8.23Y-3.27
X8.25Y-3.02
X8.28Y-3.18
X8.28Y-3.26
X8.29Y-3.08
X8.31Y-2.97
X8.35Y-3.16
X8.39Y-3.25
T3
X6.27Y-3.2604
X6.27Y-3.8604
X6.37Y-3.2604
X6.37Y-3.8604
X6.47Y-3.2604
X6.47Y-3.8604
X6.57Y-3.2604
X6.57Y-3.8604
X6.67Y-3.2604
X6.67Y-3.8604
X6.77Y-3.2604
X6.77Y-3.8604
X6.87Y-3.2604
X6.87Y-3.8604
X6.97Y-3.2604
X6.97Y-3.8604
X7.07Y-3.2604
X7.07Y-3.8604
X7.17Y-3.2604
X7.17Y-3.8604
X7.27Y-3.2604
X7.27Y-3.8604
X7.37Y-3.2604
X7.37Y-3.8604
X7.47Y-3.2604
X7.47Y-3.8604
X7.57Y-3.2604
X7.57Y-3.8604
X7.67Y-3.2604
X7.67Y-3.8604
T4
X6.25Y-2.48
X6.35Y-2.48
X6.45Y-2.48
X6.7733Y-2.48
X6.8733Y-2.48
X7.23Y-2.49
X7.33Y-2.49
X7.43Y-2.49
T5
X8.4748Y-2.5832
X8.4748Y-2.9768
X8.4748Y-3.3632
X8.4748Y-3.7568
X8.5732Y-2.4926
X8.5732Y-2.78
X8.5732Y-3.0674
X8.5732Y-3.2726
X8.5732Y-3.56
X8.5732Y-3.8474
X8.9551Y-2.5832
X8.9551Y-2.9768
X8.9551Y-3.3632
X8.9551Y-3.7568
T0
M30
