%TF.GenerationSoftware,KiCad,Pcbnew,6.0.11-2627ca5db0~126~ubuntu22.04.1*%
%TF.CreationDate,2023-03-03T15:01:48-05:00*%
%TF.ProjectId,lin-valve-control,6c696e2d-7661-46c7-9665-2d636f6e7472,1.0*%
%TF.SameCoordinates,Original*%
%TF.FileFunction,Copper,L2,Inr*%
%TF.FilePolarity,Positive*%
%FSLAX46Y46*%
G04 Gerber Fmt 4.6, Leading zero omitted, Abs format (unit mm)*
G04 Created by KiCad (PCBNEW 6.0.11-2627ca5db0~126~ubuntu22.04.1) date 2023-03-03 15:01:48*
%MOMM*%
%LPD*%
G01*
G04 APERTURE LIST*
%TA.AperFunction,ComponentPad*%
%ADD10R,1.700000X1.700000*%
%TD*%
%TA.AperFunction,ComponentPad*%
%ADD11O,1.700000X1.700000*%
%TD*%
%TA.AperFunction,ComponentPad*%
%ADD12R,2.100000X2.100000*%
%TD*%
%TA.AperFunction,ComponentPad*%
%ADD13C,2.100000*%
%TD*%
%TA.AperFunction,ComponentPad*%
%ADD14C,1.879600*%
%TD*%
%TA.AperFunction,ComponentPad*%
%ADD15R,1.879600X1.879600*%
%TD*%
%TA.AperFunction,ComponentPad*%
%ADD16C,0.600000*%
%TD*%
%TA.AperFunction,ViaPad*%
%ADD17C,0.800000*%
%TD*%
%TA.AperFunction,Conductor*%
%ADD18C,0.250000*%
%TD*%
%TA.AperFunction,Conductor*%
%ADD19C,0.200000*%
%TD*%
G04 APERTURE END LIST*
D10*
%TO.N,GND*%
%TO.C,J2*%
X180150000Y-82100000D03*
D11*
%TO.N,+5V*%
X182690000Y-82100000D03*
%TO.N,SDA5V*%
X185230000Y-82100000D03*
%TO.N,SCL5V*%
X187770000Y-82100000D03*
%TD*%
D10*
%TO.N,+5V*%
%TO.C,U3*%
X183180000Y-77550000D03*
D11*
%TO.N,GND*%
X183180000Y-75010000D03*
%TO.N,+12V*%
X183180000Y-72470000D03*
%TO.N,unconnected-(U3-Pad4)*%
X183180000Y-69930000D03*
%TD*%
D12*
%TO.N,+BATT*%
%TO.C,J3*%
X224700000Y-64000000D03*
D13*
%TO.N,GND*%
X224700000Y-66540000D03*
%TO.N,LIN*%
X224700000Y-69080000D03*
%TD*%
D12*
%TO.N,VALVE+*%
%TO.C,J4*%
X224800000Y-74700000D03*
D13*
%TO.N,VALVE-*%
X224800000Y-77240000D03*
%TO.N,GND*%
X224800000Y-79780000D03*
%TO.N,~{VALVE_OPEN}*%
X224800000Y-82320000D03*
%TO.N,~{VALVE_CLOSED}*%
X224800000Y-84860000D03*
%TD*%
D14*
%TO.N,GND*%
%TO.C,J1*%
X213820000Y-91800000D03*
%TO.N,unconnected-(J1-Pad5)*%
X216360000Y-91800000D03*
%TO.N,Net-(JP1-Pad1)*%
X218900000Y-91800000D03*
%TO.N,Net-(J1-Pad3)*%
X221440000Y-91800000D03*
%TO.N,UPDI*%
X223980000Y-91800000D03*
D15*
%TO.N,unconnected-(J1-Pad1)*%
X226520000Y-91800000D03*
%TD*%
D16*
%TO.N,GND*%
%TO.C,U6*%
X214600000Y-77900000D03*
X210200000Y-77900000D03*
X213500000Y-76800000D03*
X210200000Y-79000000D03*
X212400000Y-76800000D03*
X210200000Y-76800000D03*
X214600000Y-76800000D03*
X212400000Y-79000000D03*
X211300000Y-76800000D03*
X213500000Y-79000000D03*
X211300000Y-77900000D03*
X211300000Y-79000000D03*
X213500000Y-77900000D03*
X214600000Y-79000000D03*
X212400000Y-77900000D03*
%TD*%
D17*
%TO.N,Net-(JP1-Pad1)*%
X220480000Y-96890000D03*
%TO.N,UPDI*%
X210660000Y-94500500D03*
%TO.N,GND*%
X176500000Y-78850000D03*
X190010000Y-84250000D03*
X205810000Y-78060000D03*
X192830000Y-88600000D03*
X204320000Y-86460000D03*
X177300000Y-85490000D03*
X207550000Y-91950000D03*
X208125000Y-81950000D03*
X200500000Y-82850000D03*
X208850000Y-66910000D03*
X220800000Y-74525000D03*
X213950000Y-83725000D03*
X196740000Y-82530000D03*
X206625000Y-89750000D03*
%TO.N,+5V*%
X193170000Y-80980000D03*
X181520000Y-79370000D03*
%TO.N,LIN*%
X199200000Y-81575000D03*
%TO.N,TXD*%
X203290000Y-97524500D03*
X200550000Y-92000000D03*
%TO.N,~{LIN_SLP}*%
X198025000Y-87750000D03*
X201670000Y-92250000D03*
%TO.N,~{LIN_WAKE}*%
X199175000Y-87725000D03*
X201945288Y-93929965D03*
%TO.N,SCL*%
X206290576Y-95852382D03*
X187450000Y-90425000D03*
X211375000Y-95450000D03*
X211525500Y-93850500D03*
%TO.N,SDA*%
X211375000Y-96700000D03*
X206675000Y-96775000D03*
X185425000Y-90325000D03*
X212250000Y-91000000D03*
%TO.N,Net-(R5-Pad1)*%
X203735286Y-87711025D03*
X206220000Y-92300000D03*
%TO.N,Net-(C11-Pad2)*%
X211925000Y-73775000D03*
X210250000Y-69225000D03*
%TO.N,VPROPI*%
X210650320Y-93325320D03*
%TO.N,Net-(D1-Pad2)*%
X202830000Y-82680000D03*
%TO.N,Net-(R11-Pad2)*%
X209150000Y-75700000D03*
X209599500Y-82050000D03*
%TO.N,+3V3*%
X194225000Y-89700000D03*
X197475000Y-93675000D03*
X193340000Y-92250000D03*
X203725000Y-80575000D03*
X210750000Y-71475000D03*
X218750000Y-84900000D03*
X212975000Y-87925000D03*
X202850000Y-88175000D03*
X205100000Y-95100000D03*
X181950000Y-90050000D03*
X225010000Y-95130000D03*
X190550000Y-89975000D03*
X191270000Y-84970000D03*
%TO.N,VALVE+*%
X214575000Y-82525000D03*
%TO.N,VALVE-*%
X214850000Y-73700000D03*
%TO.N,~{VALVE_OPEN}*%
X208750000Y-87670000D03*
%TO.N,~{VALVE_CLOSED}*%
X207849500Y-88110000D03*
%TO.N,Net-(R15-Pad1)*%
X210775000Y-72950000D03*
X207460000Y-90470000D03*
%TO.N,~{I2C_INT}*%
X207625000Y-93600000D03*
%TO.N,~{FAULT}*%
X209750000Y-87590000D03*
X208875000Y-80675000D03*
%TO.N,PHASE*%
X205075000Y-92075000D03*
X211025000Y-82050000D03*
%TO.N,ENABLE*%
X213325000Y-82075000D03*
X211475000Y-85575000D03*
%TO.N,~{SLEEP}*%
X212149500Y-82050000D03*
X210275787Y-85120400D03*
%TD*%
D18*
%TO.N,Net-(JP1-Pad1)*%
X218900000Y-95310000D02*
X220480000Y-96890000D01*
X218900000Y-91800000D02*
X218900000Y-95310000D01*
%TO.N,LIN*%
X199200000Y-81575000D02*
X211695000Y-69080000D01*
X211695000Y-69080000D02*
X224700000Y-69080000D01*
%TO.N,~{LIN_WAKE}*%
X199175000Y-92665000D02*
X199175000Y-87725000D01*
X200439965Y-93929965D02*
X199175000Y-92665000D01*
X201945288Y-93929965D02*
X200439965Y-93929965D01*
%TO.N,SCL*%
X202500000Y-95825000D02*
X192805000Y-95825000D01*
X211525500Y-95299500D02*
X211375000Y-95450000D01*
X206290576Y-95852382D02*
X202527382Y-95852382D01*
X202527382Y-95852382D02*
X202500000Y-95825000D01*
X187450000Y-90470000D02*
X187450000Y-90425000D01*
X192805000Y-95825000D02*
X187450000Y-90470000D01*
X211525500Y-93850500D02*
X211525500Y-95299500D01*
%TO.N,SDA*%
X211375000Y-96700000D02*
X212250000Y-95825000D01*
X206650000Y-96800000D02*
X191820000Y-96800000D01*
X185425000Y-90405000D02*
X185425000Y-90325000D01*
X206675000Y-96775000D02*
X206650000Y-96800000D01*
X212250000Y-95825000D02*
X212250000Y-91000000D01*
X191820000Y-96800000D02*
X185425000Y-90405000D01*
%TO.N,Net-(R5-Pad1)*%
X205900000Y-89960000D02*
X203680000Y-87740000D01*
X205900000Y-91980000D02*
X205900000Y-89960000D01*
X206220000Y-92300000D02*
X205900000Y-91980000D01*
X203708975Y-87711025D02*
X203735286Y-87711025D01*
X203680000Y-87740000D02*
X203708975Y-87711025D01*
%TO.N,Net-(R11-Pad2)*%
X209150000Y-79550000D02*
X209150000Y-75700000D01*
X209599500Y-82050000D02*
X209599500Y-79999500D01*
X209599500Y-79999500D02*
X209150000Y-79550000D01*
D19*
%TO.N,VALVE+*%
X222400000Y-74700000D02*
X224800000Y-74700000D01*
X214575000Y-82525000D02*
X222400000Y-74700000D01*
D18*
%TO.N,~{VALVE_OPEN}*%
X223680000Y-82320000D02*
X224800000Y-82320000D01*
%TO.N,Net-(R15-Pad1)*%
X207125000Y-76600000D02*
X207125000Y-88515000D01*
X207125000Y-88515000D02*
X207460000Y-88850000D01*
X207460000Y-88850000D02*
X207460000Y-90470000D01*
X210775000Y-72950000D02*
X207125000Y-76600000D01*
%TO.N,~{FAULT}*%
X208875000Y-86715000D02*
X209750000Y-87590000D01*
X208875000Y-80675000D02*
X208875000Y-86715000D01*
%TO.N,ENABLE*%
X211475000Y-83805000D02*
X213205000Y-82075000D01*
X213205000Y-82075000D02*
X213325000Y-82075000D01*
X213149805Y-82075000D02*
X213325000Y-82075000D01*
X211475000Y-85575000D02*
X211475000Y-83805000D01*
%TO.N,~{SLEEP}*%
X210275787Y-85120400D02*
X210275787Y-83923713D01*
X210275787Y-83923713D02*
X212149500Y-82050000D01*
%TD*%
%TA.AperFunction,Conductor*%
%TO.N,+5V*%
G36*
X182068822Y-75810002D02*
G01*
X182095938Y-75833503D01*
X182222860Y-75980025D01*
X182226250Y-75983938D01*
X182230225Y-75987238D01*
X182230231Y-75987244D01*
X182235425Y-75991556D01*
X182275059Y-76050460D01*
X182276555Y-76121441D01*
X182239439Y-76181962D01*
X182199168Y-76206480D01*
X182091946Y-76246676D01*
X182076351Y-76255214D01*
X181974276Y-76331715D01*
X181961715Y-76344276D01*
X181885214Y-76446351D01*
X181876676Y-76461946D01*
X181831522Y-76582394D01*
X181827895Y-76597649D01*
X181822369Y-76648514D01*
X181822000Y-76655328D01*
X181822000Y-77277885D01*
X181826475Y-77293124D01*
X181827865Y-77294329D01*
X181835548Y-77296000D01*
X184519884Y-77296000D01*
X184535123Y-77291525D01*
X184536328Y-77290135D01*
X184537999Y-77282452D01*
X184537999Y-76655331D01*
X184537629Y-76648510D01*
X184532105Y-76597648D01*
X184528479Y-76582396D01*
X184483324Y-76461946D01*
X184474786Y-76446351D01*
X184398285Y-76344276D01*
X184385724Y-76331715D01*
X184283649Y-76255214D01*
X184268054Y-76246676D01*
X184157813Y-76205348D01*
X184101049Y-76162706D01*
X184076349Y-76096145D01*
X184091557Y-76026796D01*
X184113104Y-75998115D01*
X184214430Y-75897144D01*
X184214440Y-75897132D01*
X184218096Y-75893489D01*
X184254754Y-75842474D01*
X184310749Y-75798826D01*
X184357077Y-75790000D01*
X195433573Y-75790000D01*
X195501694Y-75810002D01*
X195548187Y-75863658D01*
X195559572Y-75916426D01*
X195534143Y-83430606D01*
X195527197Y-85483435D01*
X195520425Y-87484426D01*
X195500193Y-87552479D01*
X195446380Y-87598790D01*
X195394426Y-87610000D01*
X175865044Y-87610000D01*
X175796923Y-87589998D01*
X175750430Y-87536342D01*
X175739048Y-87484959D01*
X175723858Y-85490000D01*
X176386496Y-85490000D01*
X176406458Y-85679928D01*
X176465473Y-85861556D01*
X176468776Y-85867278D01*
X176468777Y-85867279D01*
X176502686Y-85926010D01*
X176560960Y-86026944D01*
X176688747Y-86168866D01*
X176843248Y-86281118D01*
X176849276Y-86283802D01*
X176849278Y-86283803D01*
X177011681Y-86356109D01*
X177017712Y-86358794D01*
X177111113Y-86378647D01*
X177198056Y-86397128D01*
X177198061Y-86397128D01*
X177204513Y-86398500D01*
X177395487Y-86398500D01*
X177401939Y-86397128D01*
X177401944Y-86397128D01*
X177488887Y-86378647D01*
X177582288Y-86358794D01*
X177588319Y-86356109D01*
X177750722Y-86283803D01*
X177750724Y-86283802D01*
X177756752Y-86281118D01*
X177911253Y-86168866D01*
X178039040Y-86026944D01*
X178097314Y-85926010D01*
X178131223Y-85867279D01*
X178131224Y-85867278D01*
X178134527Y-85861556D01*
X178193542Y-85679928D01*
X178213504Y-85490000D01*
X178193542Y-85300072D01*
X178134527Y-85118444D01*
X178039040Y-84953056D01*
X178012838Y-84923955D01*
X177915675Y-84816045D01*
X177915674Y-84816044D01*
X177911253Y-84811134D01*
X177756752Y-84698882D01*
X177750724Y-84696198D01*
X177750722Y-84696197D01*
X177588319Y-84623891D01*
X177588318Y-84623891D01*
X177582288Y-84621206D01*
X177475202Y-84598444D01*
X177401944Y-84582872D01*
X177401939Y-84582872D01*
X177395487Y-84581500D01*
X177204513Y-84581500D01*
X177198061Y-84582872D01*
X177198056Y-84582872D01*
X177124798Y-84598444D01*
X177017712Y-84621206D01*
X177011682Y-84623891D01*
X177011681Y-84623891D01*
X176849278Y-84696197D01*
X176849276Y-84696198D01*
X176843248Y-84698882D01*
X176688747Y-84811134D01*
X176684326Y-84816044D01*
X176684325Y-84816045D01*
X176587163Y-84923955D01*
X176560960Y-84953056D01*
X176465473Y-85118444D01*
X176406458Y-85300072D01*
X176386496Y-85490000D01*
X175723858Y-85490000D01*
X175714416Y-84250000D01*
X189096496Y-84250000D01*
X189116458Y-84439928D01*
X189175473Y-84621556D01*
X189270960Y-84786944D01*
X189275378Y-84791851D01*
X189275379Y-84791852D01*
X189394325Y-84923955D01*
X189398747Y-84928866D01*
X189553248Y-85041118D01*
X189559276Y-85043802D01*
X189559278Y-85043803D01*
X189721681Y-85116109D01*
X189727712Y-85118794D01*
X189821112Y-85138647D01*
X189908056Y-85157128D01*
X189908061Y-85157128D01*
X189914513Y-85158500D01*
X190105487Y-85158500D01*
X190111939Y-85157128D01*
X190111944Y-85157128D01*
X190247547Y-85128304D01*
X190318338Y-85133706D01*
X190374970Y-85176523D01*
X190393577Y-85212613D01*
X190435473Y-85341556D01*
X190530960Y-85506944D01*
X190658747Y-85648866D01*
X190813248Y-85761118D01*
X190819276Y-85763802D01*
X190819278Y-85763803D01*
X190981681Y-85836109D01*
X190987712Y-85838794D01*
X191065230Y-85855271D01*
X191168056Y-85877128D01*
X191168061Y-85877128D01*
X191174513Y-85878500D01*
X191365487Y-85878500D01*
X191371939Y-85877128D01*
X191371944Y-85877128D01*
X191474770Y-85855271D01*
X191552288Y-85838794D01*
X191558319Y-85836109D01*
X191720722Y-85763803D01*
X191720724Y-85763802D01*
X191726752Y-85761118D01*
X191881253Y-85648866D01*
X192009040Y-85506944D01*
X192104527Y-85341556D01*
X192163542Y-85159928D01*
X192183504Y-84970000D01*
X192163542Y-84780072D01*
X192104527Y-84598444D01*
X192095537Y-84582872D01*
X192016632Y-84446206D01*
X192009040Y-84433056D01*
X191881253Y-84291134D01*
X191726752Y-84178882D01*
X191720724Y-84176198D01*
X191720722Y-84176197D01*
X191558319Y-84103891D01*
X191558318Y-84103891D01*
X191552288Y-84101206D01*
X191458888Y-84081353D01*
X191371944Y-84062872D01*
X191371939Y-84062872D01*
X191365487Y-84061500D01*
X191174513Y-84061500D01*
X191168061Y-84062872D01*
X191168056Y-84062872D01*
X191032453Y-84091696D01*
X190961662Y-84086294D01*
X190905030Y-84043477D01*
X190886423Y-84007386D01*
X190846568Y-83884726D01*
X190844527Y-83878444D01*
X190749040Y-83713056D01*
X190621253Y-83571134D01*
X190466752Y-83458882D01*
X190460724Y-83456198D01*
X190460722Y-83456197D01*
X190298319Y-83383891D01*
X190298318Y-83383891D01*
X190292288Y-83381206D01*
X190198887Y-83361353D01*
X190111944Y-83342872D01*
X190111939Y-83342872D01*
X190105487Y-83341500D01*
X189914513Y-83341500D01*
X189908061Y-83342872D01*
X189908056Y-83342872D01*
X189821113Y-83361353D01*
X189727712Y-83381206D01*
X189721682Y-83383891D01*
X189721681Y-83383891D01*
X189559278Y-83456197D01*
X189559276Y-83456198D01*
X189553248Y-83458882D01*
X189398747Y-83571134D01*
X189270960Y-83713056D01*
X189175473Y-83878444D01*
X189116458Y-84060072D01*
X189096496Y-84250000D01*
X175714416Y-84250000D01*
X175704884Y-82998134D01*
X178791500Y-82998134D01*
X178798255Y-83060316D01*
X178849385Y-83196705D01*
X178936739Y-83313261D01*
X179053295Y-83400615D01*
X179189684Y-83451745D01*
X179251866Y-83458500D01*
X181048134Y-83458500D01*
X181110316Y-83451745D01*
X181246705Y-83400615D01*
X181363261Y-83313261D01*
X181450615Y-83196705D01*
X181494798Y-83078848D01*
X181537440Y-83022084D01*
X181604001Y-82997384D01*
X181673350Y-83012592D01*
X181708017Y-83040580D01*
X181733218Y-83069673D01*
X181740580Y-83076883D01*
X181904434Y-83212916D01*
X181912881Y-83218831D01*
X182096756Y-83326279D01*
X182106042Y-83330729D01*
X182305001Y-83406703D01*
X182314899Y-83409579D01*
X182418250Y-83430606D01*
X182432299Y-83429410D01*
X182436000Y-83419065D01*
X182436000Y-83418517D01*
X182944000Y-83418517D01*
X182948064Y-83432359D01*
X182961478Y-83434393D01*
X182968184Y-83433534D01*
X182978262Y-83431392D01*
X183182255Y-83370191D01*
X183191842Y-83366433D01*
X183383095Y-83272739D01*
X183391945Y-83267464D01*
X183565328Y-83143792D01*
X183573200Y-83137139D01*
X183724052Y-82986812D01*
X183730730Y-82978965D01*
X183858022Y-82801819D01*
X183859279Y-82802722D01*
X183906373Y-82759362D01*
X183976311Y-82747145D01*
X184041751Y-82774678D01*
X184069579Y-82806511D01*
X184129987Y-82905088D01*
X184276250Y-83073938D01*
X184448126Y-83216632D01*
X184641000Y-83329338D01*
X184849692Y-83409030D01*
X184854760Y-83410061D01*
X184854763Y-83410062D01*
X184949862Y-83429410D01*
X185068597Y-83453567D01*
X185073772Y-83453757D01*
X185073774Y-83453757D01*
X185286673Y-83461564D01*
X185286677Y-83461564D01*
X185291837Y-83461753D01*
X185296957Y-83461097D01*
X185296959Y-83461097D01*
X185508288Y-83434025D01*
X185508289Y-83434025D01*
X185513416Y-83433368D01*
X185518366Y-83431883D01*
X185722429Y-83370661D01*
X185722434Y-83370659D01*
X185727384Y-83369174D01*
X185927994Y-83270896D01*
X186109860Y-83141173D01*
X186268096Y-82983489D01*
X186398453Y-82802077D01*
X186399776Y-82803028D01*
X186446645Y-82759857D01*
X186516580Y-82747625D01*
X186582026Y-82775144D01*
X186609875Y-82806994D01*
X186669987Y-82905088D01*
X186816250Y-83073938D01*
X186988126Y-83216632D01*
X187181000Y-83329338D01*
X187389692Y-83409030D01*
X187394760Y-83410061D01*
X187394763Y-83410062D01*
X187489862Y-83429410D01*
X187608597Y-83453567D01*
X187613772Y-83453757D01*
X187613774Y-83453757D01*
X187826673Y-83461564D01*
X187826677Y-83461564D01*
X187831837Y-83461753D01*
X187836957Y-83461097D01*
X187836959Y-83461097D01*
X188048288Y-83434025D01*
X188048289Y-83434025D01*
X188053416Y-83433368D01*
X188058366Y-83431883D01*
X188262429Y-83370661D01*
X188262434Y-83370659D01*
X188267384Y-83369174D01*
X188467994Y-83270896D01*
X188649860Y-83141173D01*
X188808096Y-82983489D01*
X188938453Y-82802077D01*
X188951995Y-82774678D01*
X189035136Y-82606453D01*
X189035137Y-82606451D01*
X189037430Y-82601811D01*
X189102370Y-82388069D01*
X189131529Y-82166590D01*
X189133156Y-82100000D01*
X189114852Y-81877361D01*
X189060431Y-81660702D01*
X188971354Y-81455840D01*
X188850014Y-81268277D01*
X188699670Y-81103051D01*
X188695619Y-81099852D01*
X188695615Y-81099848D01*
X188528414Y-80967800D01*
X188528410Y-80967798D01*
X188524359Y-80964598D01*
X188488028Y-80944542D01*
X188472136Y-80935769D01*
X188328789Y-80856638D01*
X188323920Y-80854914D01*
X188323916Y-80854912D01*
X188123087Y-80783795D01*
X188123083Y-80783794D01*
X188118212Y-80782069D01*
X188113119Y-80781162D01*
X188113116Y-80781161D01*
X187903373Y-80743800D01*
X187903367Y-80743799D01*
X187898284Y-80742894D01*
X187824452Y-80741992D01*
X187680081Y-80740228D01*
X187680079Y-80740228D01*
X187674911Y-80740165D01*
X187454091Y-80773955D01*
X187241756Y-80843357D01*
X187043607Y-80946507D01*
X187039474Y-80949610D01*
X187039471Y-80949612D01*
X186869100Y-81077530D01*
X186864965Y-81080635D01*
X186710629Y-81242138D01*
X186603201Y-81399621D01*
X186548293Y-81444621D01*
X186477768Y-81452792D01*
X186414021Y-81421538D01*
X186393324Y-81397054D01*
X186312822Y-81272617D01*
X186312820Y-81272614D01*
X186310014Y-81268277D01*
X186159670Y-81103051D01*
X186155619Y-81099852D01*
X186155615Y-81099848D01*
X185988414Y-80967800D01*
X185988410Y-80967798D01*
X185984359Y-80964598D01*
X185948028Y-80944542D01*
X185932136Y-80935769D01*
X185788789Y-80856638D01*
X185783920Y-80854914D01*
X185783916Y-80854912D01*
X185583087Y-80783795D01*
X185583083Y-80783794D01*
X185578212Y-80782069D01*
X185573119Y-80781162D01*
X185573116Y-80781161D01*
X185363373Y-80743800D01*
X185363367Y-80743799D01*
X185358284Y-80742894D01*
X185284452Y-80741992D01*
X185140081Y-80740228D01*
X185140079Y-80740228D01*
X185134911Y-80740165D01*
X184914091Y-80773955D01*
X184701756Y-80843357D01*
X184503607Y-80946507D01*
X184499474Y-80949610D01*
X184499471Y-80949612D01*
X184329100Y-81077530D01*
X184324965Y-81080635D01*
X184170629Y-81242138D01*
X184063204Y-81399618D01*
X184062898Y-81400066D01*
X184007987Y-81445069D01*
X183937462Y-81453240D01*
X183873715Y-81421986D01*
X183853018Y-81397502D01*
X183772426Y-81272926D01*
X183766136Y-81264757D01*
X183622806Y-81107240D01*
X183615273Y-81100215D01*
X183448139Y-80968222D01*
X183439552Y-80962517D01*
X183253117Y-80859599D01*
X183243705Y-80855369D01*
X183042959Y-80784280D01*
X183032988Y-80781646D01*
X182961837Y-80768972D01*
X182948540Y-80770432D01*
X182944000Y-80784989D01*
X182944000Y-83418517D01*
X182436000Y-83418517D01*
X182436000Y-80783102D01*
X182432082Y-80769758D01*
X182417806Y-80767771D01*
X182379324Y-80773660D01*
X182369288Y-80776051D01*
X182166868Y-80842212D01*
X182157359Y-80846209D01*
X181968463Y-80944542D01*
X181959738Y-80950036D01*
X181789433Y-81077905D01*
X181781726Y-81084748D01*
X181704478Y-81165584D01*
X181642954Y-81201014D01*
X181572042Y-81197557D01*
X181514255Y-81156311D01*
X181495402Y-81122763D01*
X181453767Y-81011703D01*
X181450615Y-81003295D01*
X181363261Y-80886739D01*
X181246705Y-80799385D01*
X181110316Y-80748255D01*
X181048134Y-80741500D01*
X179251866Y-80741500D01*
X179189684Y-80748255D01*
X179053295Y-80799385D01*
X178936739Y-80886739D01*
X178849385Y-81003295D01*
X178798255Y-81139684D01*
X178791500Y-81201866D01*
X178791500Y-82998134D01*
X175704884Y-82998134D01*
X175679187Y-79623204D01*
X175698669Y-79554933D01*
X175751970Y-79508033D01*
X175822165Y-79497395D01*
X175887816Y-79527832D01*
X175888747Y-79528866D01*
X175894089Y-79532747D01*
X175894091Y-79532749D01*
X176037906Y-79637237D01*
X176043248Y-79641118D01*
X176049276Y-79643802D01*
X176049278Y-79643803D01*
X176211681Y-79716109D01*
X176217712Y-79718794D01*
X176311113Y-79738647D01*
X176398056Y-79757128D01*
X176398061Y-79757128D01*
X176404513Y-79758500D01*
X176595487Y-79758500D01*
X176601939Y-79757128D01*
X176601944Y-79757128D01*
X176688887Y-79738647D01*
X176782288Y-79718794D01*
X176788319Y-79716109D01*
X176950722Y-79643803D01*
X176950724Y-79643802D01*
X176956752Y-79641118D01*
X176981409Y-79623204D01*
X177075375Y-79554933D01*
X177111253Y-79528866D01*
X177239040Y-79386944D01*
X177334527Y-79221556D01*
X177393542Y-79039928D01*
X177408025Y-78902135D01*
X177412814Y-78856565D01*
X177413504Y-78850000D01*
X177393542Y-78660072D01*
X177334527Y-78478444D01*
X177315027Y-78444669D01*
X181822001Y-78444669D01*
X181822371Y-78451490D01*
X181827895Y-78502352D01*
X181831521Y-78517604D01*
X181876676Y-78638054D01*
X181885214Y-78653649D01*
X181961715Y-78755724D01*
X181974276Y-78768285D01*
X182076351Y-78844786D01*
X182091946Y-78853324D01*
X182212394Y-78898478D01*
X182227649Y-78902105D01*
X182278514Y-78907631D01*
X182285328Y-78908000D01*
X182907885Y-78908000D01*
X182923124Y-78903525D01*
X182924329Y-78902135D01*
X182926000Y-78894452D01*
X182926000Y-78889884D01*
X183434000Y-78889884D01*
X183438475Y-78905123D01*
X183439865Y-78906328D01*
X183447548Y-78907999D01*
X184074669Y-78907999D01*
X184081490Y-78907629D01*
X184132352Y-78902105D01*
X184147604Y-78898479D01*
X184268054Y-78853324D01*
X184283649Y-78844786D01*
X184385724Y-78768285D01*
X184398285Y-78755724D01*
X184474786Y-78653649D01*
X184483324Y-78638054D01*
X184528478Y-78517606D01*
X184532105Y-78502351D01*
X184537631Y-78451486D01*
X184538000Y-78444672D01*
X184538000Y-77822115D01*
X184533525Y-77806876D01*
X184532135Y-77805671D01*
X184524452Y-77804000D01*
X183452115Y-77804000D01*
X183436876Y-77808475D01*
X183435671Y-77809865D01*
X183434000Y-77817548D01*
X183434000Y-78889884D01*
X182926000Y-78889884D01*
X182926000Y-77822115D01*
X182921525Y-77806876D01*
X182920135Y-77805671D01*
X182912452Y-77804000D01*
X181840116Y-77804000D01*
X181824877Y-77808475D01*
X181823672Y-77809865D01*
X181822001Y-77817548D01*
X181822001Y-78444669D01*
X177315027Y-78444669D01*
X177239040Y-78313056D01*
X177111253Y-78171134D01*
X176956752Y-78058882D01*
X176950724Y-78056198D01*
X176950722Y-78056197D01*
X176788319Y-77983891D01*
X176788318Y-77983891D01*
X176782288Y-77981206D01*
X176688887Y-77961353D01*
X176601944Y-77942872D01*
X176601939Y-77942872D01*
X176595487Y-77941500D01*
X176404513Y-77941500D01*
X176398061Y-77942872D01*
X176398056Y-77942872D01*
X176311113Y-77961353D01*
X176217712Y-77981206D01*
X176211682Y-77983891D01*
X176211681Y-77983891D01*
X176049278Y-78056197D01*
X176049276Y-78056198D01*
X176043248Y-78058882D01*
X175888747Y-78171134D01*
X175884325Y-78176045D01*
X175879423Y-78180459D01*
X175877808Y-78178666D01*
X175826707Y-78210155D01*
X175755723Y-78208810D01*
X175696735Y-78169302D01*
X175668470Y-78104174D01*
X175667509Y-78089567D01*
X175666705Y-77983891D01*
X175656150Y-76597648D01*
X175650967Y-75916959D01*
X175670449Y-75848688D01*
X175723750Y-75801788D01*
X175776963Y-75790000D01*
X182000701Y-75790000D01*
X182068822Y-75810002D01*
G37*
%TD.AperFunction*%
%TD*%
M02*
