%TF.GenerationSoftware,KiCad,Pcbnew,6.0.11-2627ca5db0~126~ubuntu22.04.1*%
%TF.CreationDate,2023-03-03T12:17:20-05:00*%
%TF.ProjectId,lin-valve-control,6c696e2d-7661-46c7-9665-2d636f6e7472,1.0*%
%TF.SameCoordinates,Original*%
%TF.FileFunction,Legend,Bot*%
%TF.FilePolarity,Positive*%
%FSLAX46Y46*%
G04 Gerber Fmt 4.6, Leading zero omitted, Abs format (unit mm)*
G04 Created by KiCad (PCBNEW 6.0.11-2627ca5db0~126~ubuntu22.04.1) date 2023-03-03 12:17:20*
%MOMM*%
%LPD*%
G01*
G04 APERTURE LIST*
%ADD10C,0.150000*%
%ADD11C,0.120000*%
G04 APERTURE END LIST*
D10*
%TO.C,R5*%
X205032380Y-84333333D02*
X204556190Y-84000000D01*
X205032380Y-83761904D02*
X204032380Y-83761904D01*
X204032380Y-84142857D01*
X204080000Y-84238095D01*
X204127619Y-84285714D01*
X204222857Y-84333333D01*
X204365714Y-84333333D01*
X204460952Y-84285714D01*
X204508571Y-84238095D01*
X204556190Y-84142857D01*
X204556190Y-83761904D01*
X204032380Y-85238095D02*
X204032380Y-84761904D01*
X204508571Y-84714285D01*
X204460952Y-84761904D01*
X204413333Y-84857142D01*
X204413333Y-85095238D01*
X204460952Y-85190476D01*
X204508571Y-85238095D01*
X204603809Y-85285714D01*
X204841904Y-85285714D01*
X204937142Y-85238095D01*
X204984761Y-85190476D01*
X205032380Y-85095238D01*
X205032380Y-84857142D01*
X204984761Y-84761904D01*
X204937142Y-84714285D01*
%TO.C,R6*%
X218516666Y-97452380D02*
X218850000Y-96976190D01*
X219088095Y-97452380D02*
X219088095Y-96452380D01*
X218707142Y-96452380D01*
X218611904Y-96500000D01*
X218564285Y-96547619D01*
X218516666Y-96642857D01*
X218516666Y-96785714D01*
X218564285Y-96880952D01*
X218611904Y-96928571D01*
X218707142Y-96976190D01*
X219088095Y-96976190D01*
X217659523Y-96452380D02*
X217850000Y-96452380D01*
X217945238Y-96500000D01*
X217992857Y-96547619D01*
X218088095Y-96690476D01*
X218135714Y-96880952D01*
X218135714Y-97261904D01*
X218088095Y-97357142D01*
X218040476Y-97404761D01*
X217945238Y-97452380D01*
X217754761Y-97452380D01*
X217659523Y-97404761D01*
X217611904Y-97357142D01*
X217564285Y-97261904D01*
X217564285Y-97023809D01*
X217611904Y-96928571D01*
X217659523Y-96880952D01*
X217754761Y-96833333D01*
X217945238Y-96833333D01*
X218040476Y-96880952D01*
X218088095Y-96928571D01*
X218135714Y-97023809D01*
%TO.C,JP1*%
X223463333Y-96682380D02*
X223463333Y-97396666D01*
X223510952Y-97539523D01*
X223606190Y-97634761D01*
X223749047Y-97682380D01*
X223844285Y-97682380D01*
X222987142Y-97682380D02*
X222987142Y-96682380D01*
X222606190Y-96682380D01*
X222510952Y-96730000D01*
X222463333Y-96777619D01*
X222415714Y-96872857D01*
X222415714Y-97015714D01*
X222463333Y-97110952D01*
X222510952Y-97158571D01*
X222606190Y-97206190D01*
X222987142Y-97206190D01*
X221463333Y-97682380D02*
X222034761Y-97682380D01*
X221749047Y-97682380D02*
X221749047Y-96682380D01*
X221844285Y-96825238D01*
X221939523Y-96920476D01*
X222034761Y-96968095D01*
%TO.C,D2*%
X214998095Y-97592380D02*
X214998095Y-96592380D01*
X214760000Y-96592380D01*
X214617142Y-96640000D01*
X214521904Y-96735238D01*
X214474285Y-96830476D01*
X214426666Y-97020952D01*
X214426666Y-97163809D01*
X214474285Y-97354285D01*
X214521904Y-97449523D01*
X214617142Y-97544761D01*
X214760000Y-97592380D01*
X214998095Y-97592380D01*
X214045714Y-96687619D02*
X213998095Y-96640000D01*
X213902857Y-96592380D01*
X213664761Y-96592380D01*
X213569523Y-96640000D01*
X213521904Y-96687619D01*
X213474285Y-96782857D01*
X213474285Y-96878095D01*
X213521904Y-97020952D01*
X214093333Y-97592380D01*
X213474285Y-97592380D01*
%TO.C,R11*%
X207827380Y-71882142D02*
X207351190Y-71548809D01*
X207827380Y-71310714D02*
X206827380Y-71310714D01*
X206827380Y-71691666D01*
X206875000Y-71786904D01*
X206922619Y-71834523D01*
X207017857Y-71882142D01*
X207160714Y-71882142D01*
X207255952Y-71834523D01*
X207303571Y-71786904D01*
X207351190Y-71691666D01*
X207351190Y-71310714D01*
X207827380Y-72834523D02*
X207827380Y-72263095D01*
X207827380Y-72548809D02*
X206827380Y-72548809D01*
X206970238Y-72453571D01*
X207065476Y-72358333D01*
X207113095Y-72263095D01*
X207827380Y-73786904D02*
X207827380Y-73215476D01*
X207827380Y-73501190D02*
X206827380Y-73501190D01*
X206970238Y-73405952D01*
X207065476Y-73310714D01*
X207113095Y-73215476D01*
%TO.C,R3*%
X196916666Y-88402380D02*
X197250000Y-87926190D01*
X197488095Y-88402380D02*
X197488095Y-87402380D01*
X197107142Y-87402380D01*
X197011904Y-87450000D01*
X196964285Y-87497619D01*
X196916666Y-87592857D01*
X196916666Y-87735714D01*
X196964285Y-87830952D01*
X197011904Y-87878571D01*
X197107142Y-87926190D01*
X197488095Y-87926190D01*
X196583333Y-87402380D02*
X195964285Y-87402380D01*
X196297619Y-87783333D01*
X196154761Y-87783333D01*
X196059523Y-87830952D01*
X196011904Y-87878571D01*
X195964285Y-87973809D01*
X195964285Y-88211904D01*
X196011904Y-88307142D01*
X196059523Y-88354761D01*
X196154761Y-88402380D01*
X196440476Y-88402380D01*
X196535714Y-88354761D01*
X196583333Y-88307142D01*
%TO.C,R7*%
X183566666Y-86827380D02*
X183900000Y-86351190D01*
X184138095Y-86827380D02*
X184138095Y-85827380D01*
X183757142Y-85827380D01*
X183661904Y-85875000D01*
X183614285Y-85922619D01*
X183566666Y-86017857D01*
X183566666Y-86160714D01*
X183614285Y-86255952D01*
X183661904Y-86303571D01*
X183757142Y-86351190D01*
X184138095Y-86351190D01*
X183233333Y-85827380D02*
X182566666Y-85827380D01*
X182995238Y-86827380D01*
%TO.C,R4*%
X200916666Y-88477380D02*
X201250000Y-88001190D01*
X201488095Y-88477380D02*
X201488095Y-87477380D01*
X201107142Y-87477380D01*
X201011904Y-87525000D01*
X200964285Y-87572619D01*
X200916666Y-87667857D01*
X200916666Y-87810714D01*
X200964285Y-87905952D01*
X201011904Y-87953571D01*
X201107142Y-88001190D01*
X201488095Y-88001190D01*
X200059523Y-87810714D02*
X200059523Y-88477380D01*
X200297619Y-87429761D02*
X200535714Y-88144047D01*
X199916666Y-88144047D01*
%TO.C,C2*%
X220082142Y-67908333D02*
X220129761Y-67860714D01*
X220177380Y-67717857D01*
X220177380Y-67622619D01*
X220129761Y-67479761D01*
X220034523Y-67384523D01*
X219939285Y-67336904D01*
X219748809Y-67289285D01*
X219605952Y-67289285D01*
X219415476Y-67336904D01*
X219320238Y-67384523D01*
X219225000Y-67479761D01*
X219177380Y-67622619D01*
X219177380Y-67717857D01*
X219225000Y-67860714D01*
X219272619Y-67908333D01*
X219272619Y-68289285D02*
X219225000Y-68336904D01*
X219177380Y-68432142D01*
X219177380Y-68670238D01*
X219225000Y-68765476D01*
X219272619Y-68813095D01*
X219367857Y-68860714D01*
X219463095Y-68860714D01*
X219605952Y-68813095D01*
X220177380Y-68241666D01*
X220177380Y-68860714D01*
%TO.C,R8*%
X187541666Y-86877380D02*
X187875000Y-86401190D01*
X188113095Y-86877380D02*
X188113095Y-85877380D01*
X187732142Y-85877380D01*
X187636904Y-85925000D01*
X187589285Y-85972619D01*
X187541666Y-86067857D01*
X187541666Y-86210714D01*
X187589285Y-86305952D01*
X187636904Y-86353571D01*
X187732142Y-86401190D01*
X188113095Y-86401190D01*
X186970238Y-86305952D02*
X187065476Y-86258333D01*
X187113095Y-86210714D01*
X187160714Y-86115476D01*
X187160714Y-86067857D01*
X187113095Y-85972619D01*
X187065476Y-85925000D01*
X186970238Y-85877380D01*
X186779761Y-85877380D01*
X186684523Y-85925000D01*
X186636904Y-85972619D01*
X186589285Y-86067857D01*
X186589285Y-86115476D01*
X186636904Y-86210714D01*
X186684523Y-86258333D01*
X186779761Y-86305952D01*
X186970238Y-86305952D01*
X187065476Y-86353571D01*
X187113095Y-86401190D01*
X187160714Y-86496428D01*
X187160714Y-86686904D01*
X187113095Y-86782142D01*
X187065476Y-86829761D01*
X186970238Y-86877380D01*
X186779761Y-86877380D01*
X186684523Y-86829761D01*
X186636904Y-86782142D01*
X186589285Y-86686904D01*
X186589285Y-86496428D01*
X186636904Y-86401190D01*
X186684523Y-86353571D01*
X186779761Y-86305952D01*
%TO.C,R9*%
X183466666Y-90552380D02*
X183800000Y-90076190D01*
X184038095Y-90552380D02*
X184038095Y-89552380D01*
X183657142Y-89552380D01*
X183561904Y-89600000D01*
X183514285Y-89647619D01*
X183466666Y-89742857D01*
X183466666Y-89885714D01*
X183514285Y-89980952D01*
X183561904Y-90028571D01*
X183657142Y-90076190D01*
X184038095Y-90076190D01*
X182990476Y-90552380D02*
X182800000Y-90552380D01*
X182704761Y-90504761D01*
X182657142Y-90457142D01*
X182561904Y-90314285D01*
X182514285Y-90123809D01*
X182514285Y-89742857D01*
X182561904Y-89647619D01*
X182609523Y-89600000D01*
X182704761Y-89552380D01*
X182895238Y-89552380D01*
X182990476Y-89600000D01*
X183038095Y-89647619D01*
X183085714Y-89742857D01*
X183085714Y-89980952D01*
X183038095Y-90076190D01*
X182990476Y-90123809D01*
X182895238Y-90171428D01*
X182704761Y-90171428D01*
X182609523Y-90123809D01*
X182561904Y-90076190D01*
X182514285Y-89980952D01*
%TO.C,R17*%
X206417857Y-82602380D02*
X206751190Y-82126190D01*
X206989285Y-82602380D02*
X206989285Y-81602380D01*
X206608333Y-81602380D01*
X206513095Y-81650000D01*
X206465476Y-81697619D01*
X206417857Y-81792857D01*
X206417857Y-81935714D01*
X206465476Y-82030952D01*
X206513095Y-82078571D01*
X206608333Y-82126190D01*
X206989285Y-82126190D01*
X205465476Y-82602380D02*
X206036904Y-82602380D01*
X205751190Y-82602380D02*
X205751190Y-81602380D01*
X205846428Y-81745238D01*
X205941666Y-81840476D01*
X206036904Y-81888095D01*
X205132142Y-81602380D02*
X204465476Y-81602380D01*
X204894047Y-82602380D01*
%TO.C,R15*%
X211402380Y-90357142D02*
X210926190Y-90023809D01*
X211402380Y-89785714D02*
X210402380Y-89785714D01*
X210402380Y-90166666D01*
X210450000Y-90261904D01*
X210497619Y-90309523D01*
X210592857Y-90357142D01*
X210735714Y-90357142D01*
X210830952Y-90309523D01*
X210878571Y-90261904D01*
X210926190Y-90166666D01*
X210926190Y-89785714D01*
X211402380Y-91309523D02*
X211402380Y-90738095D01*
X211402380Y-91023809D02*
X210402380Y-91023809D01*
X210545238Y-90928571D01*
X210640476Y-90833333D01*
X210688095Y-90738095D01*
X210402380Y-92214285D02*
X210402380Y-91738095D01*
X210878571Y-91690476D01*
X210830952Y-91738095D01*
X210783333Y-91833333D01*
X210783333Y-92071428D01*
X210830952Y-92166666D01*
X210878571Y-92214285D01*
X210973809Y-92261904D01*
X211211904Y-92261904D01*
X211307142Y-92214285D01*
X211354761Y-92166666D01*
X211402380Y-92071428D01*
X211402380Y-91833333D01*
X211354761Y-91738095D01*
X211307142Y-91690476D01*
%TO.C,R14*%
X221742857Y-81377380D02*
X222076190Y-80901190D01*
X222314285Y-81377380D02*
X222314285Y-80377380D01*
X221933333Y-80377380D01*
X221838095Y-80425000D01*
X221790476Y-80472619D01*
X221742857Y-80567857D01*
X221742857Y-80710714D01*
X221790476Y-80805952D01*
X221838095Y-80853571D01*
X221933333Y-80901190D01*
X222314285Y-80901190D01*
X220790476Y-81377380D02*
X221361904Y-81377380D01*
X221076190Y-81377380D02*
X221076190Y-80377380D01*
X221171428Y-80520238D01*
X221266666Y-80615476D01*
X221361904Y-80663095D01*
X219933333Y-80710714D02*
X219933333Y-81377380D01*
X220171428Y-80329761D02*
X220409523Y-81044047D01*
X219790476Y-81044047D01*
%TO.C,R12*%
X205067857Y-96527380D02*
X205401190Y-96051190D01*
X205639285Y-96527380D02*
X205639285Y-95527380D01*
X205258333Y-95527380D01*
X205163095Y-95575000D01*
X205115476Y-95622619D01*
X205067857Y-95717857D01*
X205067857Y-95860714D01*
X205115476Y-95955952D01*
X205163095Y-96003571D01*
X205258333Y-96051190D01*
X205639285Y-96051190D01*
X204115476Y-96527380D02*
X204686904Y-96527380D01*
X204401190Y-96527380D02*
X204401190Y-95527380D01*
X204496428Y-95670238D01*
X204591666Y-95765476D01*
X204686904Y-95813095D01*
X203734523Y-95622619D02*
X203686904Y-95575000D01*
X203591666Y-95527380D01*
X203353571Y-95527380D01*
X203258333Y-95575000D01*
X203210714Y-95622619D01*
X203163095Y-95717857D01*
X203163095Y-95813095D01*
X203210714Y-95955952D01*
X203782142Y-96527380D01*
X203163095Y-96527380D01*
%TO.C,R10*%
X190167857Y-87227380D02*
X190501190Y-86751190D01*
X190739285Y-87227380D02*
X190739285Y-86227380D01*
X190358333Y-86227380D01*
X190263095Y-86275000D01*
X190215476Y-86322619D01*
X190167857Y-86417857D01*
X190167857Y-86560714D01*
X190215476Y-86655952D01*
X190263095Y-86703571D01*
X190358333Y-86751190D01*
X190739285Y-86751190D01*
X189215476Y-87227380D02*
X189786904Y-87227380D01*
X189501190Y-87227380D02*
X189501190Y-86227380D01*
X189596428Y-86370238D01*
X189691666Y-86465476D01*
X189786904Y-86513095D01*
X188596428Y-86227380D02*
X188501190Y-86227380D01*
X188405952Y-86275000D01*
X188358333Y-86322619D01*
X188310714Y-86417857D01*
X188263095Y-86608333D01*
X188263095Y-86846428D01*
X188310714Y-87036904D01*
X188358333Y-87132142D01*
X188405952Y-87179761D01*
X188501190Y-87227380D01*
X188596428Y-87227380D01*
X188691666Y-87179761D01*
X188739285Y-87132142D01*
X188786904Y-87036904D01*
X188834523Y-86846428D01*
X188834523Y-86608333D01*
X188786904Y-86417857D01*
X188739285Y-86322619D01*
X188691666Y-86275000D01*
X188596428Y-86227380D01*
%TO.C,C12*%
X211232142Y-96257142D02*
X211279761Y-96209523D01*
X211327380Y-96066666D01*
X211327380Y-95971428D01*
X211279761Y-95828571D01*
X211184523Y-95733333D01*
X211089285Y-95685714D01*
X210898809Y-95638095D01*
X210755952Y-95638095D01*
X210565476Y-95685714D01*
X210470238Y-95733333D01*
X210375000Y-95828571D01*
X210327380Y-95971428D01*
X210327380Y-96066666D01*
X210375000Y-96209523D01*
X210422619Y-96257142D01*
X211327380Y-97209523D02*
X211327380Y-96638095D01*
X211327380Y-96923809D02*
X210327380Y-96923809D01*
X210470238Y-96828571D01*
X210565476Y-96733333D01*
X210613095Y-96638095D01*
X210422619Y-97590476D02*
X210375000Y-97638095D01*
X210327380Y-97733333D01*
X210327380Y-97971428D01*
X210375000Y-98066666D01*
X210422619Y-98114285D01*
X210517857Y-98161904D01*
X210613095Y-98161904D01*
X210755952Y-98114285D01*
X211327380Y-97542857D01*
X211327380Y-98161904D01*
%TO.C,R13*%
X221992857Y-87152380D02*
X222326190Y-86676190D01*
X222564285Y-87152380D02*
X222564285Y-86152380D01*
X222183333Y-86152380D01*
X222088095Y-86200000D01*
X222040476Y-86247619D01*
X221992857Y-86342857D01*
X221992857Y-86485714D01*
X222040476Y-86580952D01*
X222088095Y-86628571D01*
X222183333Y-86676190D01*
X222564285Y-86676190D01*
X221040476Y-87152380D02*
X221611904Y-87152380D01*
X221326190Y-87152380D02*
X221326190Y-86152380D01*
X221421428Y-86295238D01*
X221516666Y-86390476D01*
X221611904Y-86438095D01*
X220707142Y-86152380D02*
X220088095Y-86152380D01*
X220421428Y-86533333D01*
X220278571Y-86533333D01*
X220183333Y-86580952D01*
X220135714Y-86628571D01*
X220088095Y-86723809D01*
X220088095Y-86961904D01*
X220135714Y-87057142D01*
X220183333Y-87104761D01*
X220278571Y-87152380D01*
X220564285Y-87152380D01*
X220659523Y-87104761D01*
X220707142Y-87057142D01*
D11*
%TO.C,R5*%
X203455000Y-85597064D02*
X203455000Y-85142936D01*
X201985000Y-85597064D02*
X201985000Y-85142936D01*
%TO.C,R6*%
X218642936Y-94355000D02*
X219097064Y-94355000D01*
X218642936Y-95825000D02*
X219097064Y-95825000D01*
%TO.C,JP1*%
X224080000Y-96130000D02*
X224080000Y-94130000D01*
X221280000Y-94130000D02*
X221280000Y-96130000D01*
X221280000Y-96130000D02*
X224080000Y-96130000D01*
X224080000Y-94130000D02*
X221280000Y-94130000D01*
%TO.C,D2*%
X216690000Y-94040000D02*
X216690000Y-96040000D01*
X216690000Y-94040000D02*
X212790000Y-94040000D01*
X216690000Y-96040000D02*
X212790000Y-96040000D01*
%TO.C,R11*%
X208290000Y-72297936D02*
X208290000Y-72752064D01*
X209760000Y-72297936D02*
X209760000Y-72752064D01*
%TO.C,R3*%
X196422936Y-89015000D02*
X196877064Y-89015000D01*
X196422936Y-90485000D02*
X196877064Y-90485000D01*
%TO.C,R7*%
X183172936Y-83990000D02*
X183627064Y-83990000D01*
X183172936Y-85460000D02*
X183627064Y-85460000D01*
%TO.C,R4*%
X200652064Y-89015000D02*
X200197936Y-89015000D01*
X200652064Y-90485000D02*
X200197936Y-90485000D01*
%TO.C,C2*%
X222510000Y-67973752D02*
X222510000Y-67451248D01*
X221040000Y-67973752D02*
X221040000Y-67451248D01*
%TO.C,R8*%
X187147936Y-85510000D02*
X187602064Y-85510000D01*
X187147936Y-84040000D02*
X187602064Y-84040000D01*
%TO.C,R9*%
X183072936Y-87715000D02*
X183527064Y-87715000D01*
X183072936Y-89185000D02*
X183527064Y-89185000D01*
%TO.C,R17*%
X206022936Y-80835000D02*
X206477064Y-80835000D01*
X206022936Y-79365000D02*
X206477064Y-79365000D01*
%TO.C,R15*%
X208315000Y-91247936D02*
X208315000Y-91702064D01*
X209785000Y-91247936D02*
X209785000Y-91702064D01*
%TO.C,R14*%
X220997936Y-83160000D02*
X221452064Y-83160000D01*
X220997936Y-81690000D02*
X221452064Y-81690000D01*
%TO.C,R12*%
X204747936Y-93065000D02*
X205202064Y-93065000D01*
X204747936Y-94535000D02*
X205202064Y-94535000D01*
%TO.C,R10*%
X189752064Y-89160000D02*
X189297936Y-89160000D01*
X189752064Y-87690000D02*
X189297936Y-87690000D01*
%TO.C,C12*%
X208340000Y-95451248D02*
X208340000Y-95973752D01*
X209810000Y-95451248D02*
X209810000Y-95973752D01*
%TO.C,R13*%
X220997936Y-84240000D02*
X221452064Y-84240000D01*
X220997936Y-85710000D02*
X221452064Y-85710000D01*
%TD*%
M02*
