%TF.GenerationSoftware,KiCad,Pcbnew,6.0.11-2627ca5db0~126~ubuntu22.04.1*%
%TF.CreationDate,2023-03-03T14:57:14-05:00*%
%TF.ProjectId,lin-peltier-control,6c696e2d-7065-46c7-9469-65722d636f6e,1.0*%
%TF.SameCoordinates,Original*%
%TF.FileFunction,Copper,L1,Top*%
%TF.FilePolarity,Positive*%
%FSLAX46Y46*%
G04 Gerber Fmt 4.6, Leading zero omitted, Abs format (unit mm)*
G04 Created by KiCad (PCBNEW 6.0.11-2627ca5db0~126~ubuntu22.04.1) date 2023-03-03 14:57:14*
%MOMM*%
%LPD*%
G01*
G04 APERTURE LIST*
G04 Aperture macros list*
%AMRoundRect*
0 Rectangle with rounded corners*
0 $1 Rounding radius*
0 $2 $3 $4 $5 $6 $7 $8 $9 X,Y pos of 4 corners*
0 Add a 4 corners polygon primitive as box body*
4,1,4,$2,$3,$4,$5,$6,$7,$8,$9,$2,$3,0*
0 Add four circle primitives for the rounded corners*
1,1,$1+$1,$2,$3*
1,1,$1+$1,$4,$5*
1,1,$1+$1,$6,$7*
1,1,$1+$1,$8,$9*
0 Add four rect primitives between the rounded corners*
20,1,$1+$1,$2,$3,$4,$5,0*
20,1,$1+$1,$4,$5,$6,$7,0*
20,1,$1+$1,$6,$7,$8,$9,0*
20,1,$1+$1,$8,$9,$2,$3,0*%
G04 Aperture macros list end*
%TA.AperFunction,SMDPad,CuDef*%
%ADD10RoundRect,0.249999X-1.425001X0.450001X-1.425001X-0.450001X1.425001X-0.450001X1.425001X0.450001X0*%
%TD*%
%TA.AperFunction,ComponentPad*%
%ADD11C,1.600000*%
%TD*%
%TA.AperFunction,SMDPad,CuDef*%
%ADD12RoundRect,0.250000X0.450000X-0.350000X0.450000X0.350000X-0.450000X0.350000X-0.450000X-0.350000X0*%
%TD*%
%TA.AperFunction,ComponentPad*%
%ADD13R,1.700000X1.700000*%
%TD*%
%TA.AperFunction,ComponentPad*%
%ADD14O,1.700000X1.700000*%
%TD*%
%TA.AperFunction,SMDPad,CuDef*%
%ADD15RoundRect,0.150000X0.150000X-0.825000X0.150000X0.825000X-0.150000X0.825000X-0.150000X-0.825000X0*%
%TD*%
%TA.AperFunction,SMDPad,CuDef*%
%ADD16RoundRect,0.150000X0.150000X-0.587500X0.150000X0.587500X-0.150000X0.587500X-0.150000X-0.587500X0*%
%TD*%
%TA.AperFunction,SMDPad,CuDef*%
%ADD17RoundRect,0.100000X-0.637500X-0.100000X0.637500X-0.100000X0.637500X0.100000X-0.637500X0.100000X0*%
%TD*%
%TA.AperFunction,SMDPad,CuDef*%
%ADD18RoundRect,0.250000X-0.412500X-1.100000X0.412500X-1.100000X0.412500X1.100000X-0.412500X1.100000X0*%
%TD*%
%TA.AperFunction,SMDPad,CuDef*%
%ADD19RoundRect,0.250000X-0.350000X-0.450000X0.350000X-0.450000X0.350000X0.450000X-0.350000X0.450000X0*%
%TD*%
%TA.AperFunction,SMDPad,CuDef*%
%ADD20RoundRect,0.250000X0.337500X0.475000X-0.337500X0.475000X-0.337500X-0.475000X0.337500X-0.475000X0*%
%TD*%
%TA.AperFunction,SMDPad,CuDef*%
%ADD21RoundRect,0.250000X-0.475000X0.337500X-0.475000X-0.337500X0.475000X-0.337500X0.475000X0.337500X0*%
%TD*%
%TA.AperFunction,SMDPad,CuDef*%
%ADD22RoundRect,0.125000X0.537500X0.125000X-0.537500X0.125000X-0.537500X-0.125000X0.537500X-0.125000X0*%
%TD*%
%TA.AperFunction,ComponentPad*%
%ADD23R,2.100000X2.100000*%
%TD*%
%TA.AperFunction,ComponentPad*%
%ADD24C,2.100000*%
%TD*%
%TA.AperFunction,SMDPad,CuDef*%
%ADD25RoundRect,0.250000X0.450000X-0.325000X0.450000X0.325000X-0.450000X0.325000X-0.450000X-0.325000X0*%
%TD*%
%TA.AperFunction,SMDPad,CuDef*%
%ADD26RoundRect,0.250000X-0.337500X-0.475000X0.337500X-0.475000X0.337500X0.475000X-0.337500X0.475000X0*%
%TD*%
%TA.AperFunction,SMDPad,CuDef*%
%ADD27RoundRect,0.250000X0.537500X0.425000X-0.537500X0.425000X-0.537500X-0.425000X0.537500X-0.425000X0*%
%TD*%
%TA.AperFunction,SMDPad,CuDef*%
%ADD28RoundRect,0.150000X-0.587500X-0.150000X0.587500X-0.150000X0.587500X0.150000X-0.587500X0.150000X0*%
%TD*%
%TA.AperFunction,SMDPad,CuDef*%
%ADD29R,2.200000X1.200000*%
%TD*%
%TA.AperFunction,SMDPad,CuDef*%
%ADD30R,6.400000X5.800000*%
%TD*%
%TA.AperFunction,ComponentPad*%
%ADD31R,1.879600X1.879600*%
%TD*%
%TA.AperFunction,ComponentPad*%
%ADD32C,1.879600*%
%TD*%
%TA.AperFunction,ViaPad*%
%ADD33C,0.800000*%
%TD*%
%TA.AperFunction,Conductor*%
%ADD34C,0.250000*%
%TD*%
%TA.AperFunction,Conductor*%
%ADD35C,1.800000*%
%TD*%
G04 APERTURE END LIST*
D10*
%TO.P,R11,1*%
%TO.N,PELTIER+*%
X217540000Y-74060000D03*
%TO.P,R11,2*%
%TO.N,Net-(D4-Pad3)*%
X217540000Y-80160000D03*
%TD*%
D11*
%TO.P,F1,1*%
%TO.N,+BATT*%
X218200000Y-63950000D03*
%TO.P,F1,2*%
%TO.N,+12V*%
X208200000Y-63950000D03*
%TD*%
D12*
%TO.P,R21,1*%
%TO.N,+12V*%
X215980000Y-88010000D03*
%TO.P,R21,2*%
%TO.N,Net-(Q3-Pad3)*%
X215980000Y-86010000D03*
%TD*%
D13*
%TO.P,J2,1,Pin_1*%
%TO.N,GND*%
X180150000Y-82100000D03*
D14*
%TO.P,J2,2,Pin_2*%
%TO.N,+5V*%
X182690000Y-82100000D03*
%TO.P,J2,3,Pin_3*%
%TO.N,SDA5V*%
X185230000Y-82100000D03*
%TO.P,J2,4,Pin_4*%
%TO.N,SCL5V*%
X187770000Y-82100000D03*
%TD*%
D15*
%TO.P,U1,1,RXD*%
%TO.N,RXD*%
X196670000Y-89800000D03*
%TO.P,U1,2,~{SLP}*%
%TO.N,~{LIN_SLP}*%
X197940000Y-89800000D03*
%TO.P,U1,3,~{WAKE}*%
%TO.N,~{LIN_WAKE}*%
X199210000Y-89800000D03*
%TO.P,U1,4,TXD*%
%TO.N,TXD*%
X200480000Y-89800000D03*
%TO.P,U1,5,GND*%
%TO.N,GND*%
X200480000Y-84850000D03*
%TO.P,U1,6,LIN*%
%TO.N,LIN*%
X199210000Y-84850000D03*
%TO.P,U1,7,VBAT*%
%TO.N,+12V*%
X197940000Y-84850000D03*
%TO.P,U1,8,INH*%
%TO.N,unconnected-(U1-Pad8)*%
X196670000Y-84850000D03*
%TD*%
D16*
%TO.P,Q1,1,G*%
%TO.N,SCL*%
X187400000Y-88475000D03*
%TO.P,Q1,2,S*%
X189300000Y-88475000D03*
%TO.P,Q1,3,D*%
%TO.N,SCL5V*%
X188350000Y-86600000D03*
%TD*%
D17*
%TO.P,U2,1,VCC*%
%TO.N,+3V3*%
X203237500Y-91975000D03*
%TO.P,U2,2,PA4*%
%TO.N,~{LIN_SLP}*%
X203237500Y-92625000D03*
%TO.P,U2,3,PA5*%
%TO.N,~{LIN_WAKE}*%
X203237500Y-93275000D03*
%TO.P,U2,4,PA6*%
%TO.N,unconnected-(U2-Pad4)*%
X203237500Y-93925000D03*
%TO.P,U2,5,PA7*%
%TO.N,Net-(R5-Pad1)*%
X203237500Y-94575000D03*
%TO.P,U2,6,PB3*%
%TO.N,RXD*%
X203237500Y-95225000D03*
%TO.P,U2,7,PB2*%
%TO.N,TXD*%
X203237500Y-95875000D03*
%TO.P,U2,8,PB1*%
%TO.N,SDA*%
X208962500Y-95875000D03*
%TO.P,U2,9,PB0*%
%TO.N,SCL*%
X208962500Y-95225000D03*
%TO.P,U2,10,~{RESET}/PA0*%
%TO.N,UPDI*%
X208962500Y-94575000D03*
%TO.P,U2,11,PA1*%
%TO.N,PELTIER_EN*%
X208962500Y-93925000D03*
%TO.P,U2,12,PA2*%
%TO.N,unconnected-(U2-Pad12)*%
X208962500Y-93275000D03*
%TO.P,U2,13,PA3*%
%TO.N,~{RESET}*%
X208962500Y-92625000D03*
%TO.P,U2,14,GND*%
%TO.N,GND*%
X208962500Y-91975000D03*
%TD*%
D18*
%TO.P,C4,1*%
%TO.N,+12V*%
X209007500Y-68440000D03*
%TO.P,C4,2*%
%TO.N,GND*%
X212132500Y-68440000D03*
%TD*%
D19*
%TO.P,R1,1*%
%TO.N,+3V3*%
X194650000Y-92220000D03*
%TO.P,R1,2*%
%TO.N,RXD*%
X196650000Y-92220000D03*
%TD*%
D20*
%TO.P,C1,1*%
%TO.N,GND*%
X205300000Y-89775000D03*
%TO.P,C1,2*%
%TO.N,+3V3*%
X203225000Y-89775000D03*
%TD*%
D12*
%TO.P,R5,1*%
%TO.N,Net-(R5-Pad1)*%
X204025000Y-85350000D03*
%TO.P,R5,2*%
%TO.N,Net-(D1-Pad2)*%
X204025000Y-83350000D03*
%TD*%
D21*
%TO.P,C6,1*%
%TO.N,+3V3*%
X193220000Y-85960000D03*
%TO.P,C6,2*%
%TO.N,GND*%
X193220000Y-88035000D03*
%TD*%
D19*
%TO.P,R19,1*%
%TO.N,+3V3*%
X209400000Y-89675000D03*
%TO.P,R19,2*%
%TO.N,PELTIER_EN*%
X211400000Y-89675000D03*
%TD*%
D22*
%TO.P,U5,1,IN+*%
%TO.N,Net-(D4-Pad3)*%
X214460000Y-78080000D03*
%TO.P,U5,2,IN-*%
%TO.N,PELTIER+*%
X214460000Y-77430000D03*
%TO.P,U5,3,GND*%
%TO.N,GND*%
X214460000Y-76780000D03*
%TO.P,U5,4,VS*%
%TO.N,+3V3*%
X214460000Y-76130000D03*
%TO.P,U5,5,SCL*%
%TO.N,SCL*%
X212185000Y-76130000D03*
%TO.P,U5,6,SDA*%
%TO.N,SDA*%
X212185000Y-76780000D03*
%TO.P,U5,7,A0*%
%TO.N,SCL*%
X212185000Y-77430000D03*
%TO.P,U5,8,A1*%
X212185000Y-78080000D03*
%TD*%
D23*
%TO.P,J4,1,Pin_1*%
%TO.N,PELTIER+*%
X224700000Y-75125000D03*
D24*
%TO.P,J4,2,Pin_2*%
%TO.N,GND*%
X224700000Y-77665000D03*
%TD*%
D20*
%TO.P,C7,1*%
%TO.N,+5V*%
X182460000Y-75950000D03*
%TO.P,C7,2*%
%TO.N,GND*%
X180385000Y-75950000D03*
%TD*%
D13*
%TO.P,U3,1,Vout*%
%TO.N,+5V*%
X188132300Y-77922600D03*
D14*
%TO.P,U3,2,GND*%
%TO.N,GND*%
X188132300Y-75382600D03*
%TO.P,U3,3,Vin*%
%TO.N,+12V*%
X188132300Y-72842600D03*
%TO.P,U3,4,EN*%
%TO.N,unconnected-(U3-Pad4)*%
X188132300Y-70302600D03*
%TD*%
D25*
%TO.P,D1,1,K*%
%TO.N,GND*%
X206450000Y-85350000D03*
%TO.P,D1,2,A*%
%TO.N,Net-(D1-Pad2)*%
X206450000Y-83300000D03*
%TD*%
D16*
%TO.P,U4,1,GND*%
%TO.N,GND*%
X191400000Y-83305000D03*
%TO.P,U4,2,VO*%
%TO.N,+3V3*%
X193300000Y-83305000D03*
%TO.P,U4,3,VI*%
%TO.N,+5V*%
X192350000Y-81430000D03*
%TD*%
D26*
%TO.P,C3,1*%
%TO.N,+5V*%
X195350000Y-81480000D03*
%TO.P,C3,2*%
%TO.N,GND*%
X197425000Y-81480000D03*
%TD*%
D27*
%TO.P,C5,1*%
%TO.N,+5V*%
X182445000Y-78520000D03*
%TO.P,C5,2*%
%TO.N,GND*%
X179570000Y-78520000D03*
%TD*%
D28*
%TO.P,Q3,1,G*%
%TO.N,Net-(Q3-Pad1)*%
X213875000Y-82050000D03*
%TO.P,Q3,2,S*%
%TO.N,GND*%
X213875000Y-83950000D03*
%TO.P,Q3,3,D*%
%TO.N,Net-(Q3-Pad3)*%
X215750000Y-83000000D03*
%TD*%
D29*
%TO.P,Q4,1,G*%
%TO.N,Net-(Q3-Pad3)*%
X218975000Y-82970000D03*
D30*
%TO.P,Q4,2,D*%
%TO.N,Net-(D4-Pad3)*%
X225275000Y-85250000D03*
D29*
%TO.P,Q4,3,S*%
%TO.N,+12V*%
X218975000Y-87530000D03*
%TD*%
D23*
%TO.P,J3,1,Pin_1*%
%TO.N,+BATT*%
X224700000Y-64000000D03*
D24*
%TO.P,J3,2,Pin_2*%
%TO.N,GND*%
X224700000Y-66540000D03*
%TO.P,J3,3,Pin_3*%
%TO.N,LIN*%
X224700000Y-69080000D03*
%TD*%
D12*
%TO.P,R20,1*%
%TO.N,PELTIER_EN*%
X211525000Y-84025000D03*
%TO.P,R20,2*%
%TO.N,Net-(Q3-Pad1)*%
X211525000Y-82025000D03*
%TD*%
D16*
%TO.P,Q2,1,G*%
%TO.N,SDA*%
X183550000Y-88525000D03*
%TO.P,Q2,2,S*%
X185450000Y-88525000D03*
%TO.P,Q2,3,D*%
%TO.N,SDA5V*%
X184500000Y-86650000D03*
%TD*%
D19*
%TO.P,R2,1*%
%TO.N,+3V3*%
X198675000Y-93775000D03*
%TO.P,R2,2*%
%TO.N,TXD*%
X200675000Y-93775000D03*
%TD*%
D31*
%TO.P,J1,1,DTR*%
%TO.N,unconnected-(J1-Pad1)*%
X226520000Y-91800000D03*
D32*
%TO.P,J1,2,RXD*%
%TO.N,UPDI*%
X223980000Y-91800000D03*
%TO.P,J1,3,TXD*%
%TO.N,Net-(R6-Pad2)*%
X221440000Y-91800000D03*
%TO.P,J1,4,VCC*%
%TO.N,Net-(JP1-Pad1)*%
X218900000Y-91800000D03*
%TO.P,J1,5,CTS*%
%TO.N,unconnected-(J1-Pad5)*%
X216360000Y-91800000D03*
%TO.P,J1,6,GND*%
%TO.N,GND*%
X213820000Y-91800000D03*
%TD*%
D33*
%TO.N,Net-(JP1-Pad1)*%
X219820000Y-96520000D03*
%TO.N,GND*%
X178880000Y-75760000D03*
X177940000Y-78460000D03*
X194820000Y-87920000D03*
X207550000Y-91950000D03*
X213850000Y-85300000D03*
X190110000Y-83280000D03*
X216280000Y-76660000D03*
X200500000Y-82850000D03*
X198070000Y-79180000D03*
X214070000Y-67690000D03*
X207600000Y-86525000D03*
X206500000Y-90050000D03*
%TO.N,+5V*%
X185090000Y-78830000D03*
X193750000Y-81480000D03*
%TO.N,Net-(D4-Pad3)*%
X221430000Y-83970000D03*
%TO.N,LIN*%
X199200000Y-81575000D03*
%TO.N,TXD*%
X205540000Y-94940000D03*
X200675000Y-91925000D03*
%TO.N,~{LIN_SLP}*%
X197950000Y-91675000D03*
X205075000Y-92075000D03*
%TO.N,~{LIN_WAKE}*%
X204925000Y-93300000D03*
X199225000Y-91625000D03*
%TO.N,SCL*%
X206290576Y-95852382D03*
X187450000Y-90425000D03*
X209730000Y-78010000D03*
X209730000Y-76120000D03*
%TO.N,SDA*%
X210710000Y-76854500D03*
X206675000Y-96775000D03*
X185425000Y-90325000D03*
%TO.N,+12V*%
X218920000Y-89500000D03*
%TO.N,UPDI*%
X210360000Y-94650000D03*
%TO.N,+3V3*%
X194225000Y-89700000D03*
X197475000Y-93675000D03*
X214940000Y-74660000D03*
X208025000Y-89600000D03*
X193220000Y-84730000D03*
X202850000Y-88175000D03*
X193350000Y-92170000D03*
X181950000Y-90050000D03*
X225090000Y-95120000D03*
X190550000Y-89975000D03*
%TO.N,Net-(R5-Pad1)*%
X206050000Y-93590000D03*
X203700000Y-86825000D03*
%TD*%
D34*
%TO.N,GND*%
X208987500Y-91975000D02*
X207575000Y-91975000D01*
X179070000Y-75950000D02*
X178880000Y-75760000D01*
X179570000Y-78520000D02*
X178000000Y-78520000D01*
X213875000Y-83950000D02*
X213875000Y-85275000D01*
X212132500Y-68440000D02*
X213320000Y-68440000D01*
X200480000Y-84850000D02*
X200480000Y-82870000D01*
X180385000Y-75950000D02*
X179070000Y-75950000D01*
X194705000Y-88035000D02*
X194820000Y-87920000D01*
X206225000Y-89775000D02*
X205300000Y-89775000D01*
X190135000Y-83305000D02*
X190110000Y-83280000D01*
X207575000Y-91975000D02*
X207550000Y-91950000D01*
X213875000Y-85275000D02*
X213850000Y-85300000D01*
X206500000Y-90050000D02*
X206225000Y-89775000D01*
X197425000Y-81480000D02*
X197425000Y-79825000D01*
X197425000Y-79825000D02*
X198070000Y-79180000D01*
X193220000Y-88035000D02*
X194705000Y-88035000D01*
X206450000Y-85350000D02*
X206450000Y-85375000D01*
X216160000Y-76780000D02*
X216280000Y-76660000D01*
X213320000Y-68440000D02*
X214070000Y-67690000D01*
X200480000Y-82870000D02*
X200500000Y-82850000D01*
X206450000Y-85375000D02*
X207600000Y-86525000D01*
X178000000Y-78520000D02*
X177940000Y-78460000D01*
X191400000Y-83305000D02*
X190135000Y-83305000D01*
X214460000Y-76780000D02*
X216160000Y-76780000D01*
%TO.N,+5V*%
X188132300Y-77922600D02*
X185997400Y-77922600D01*
X182755000Y-78830000D02*
X182445000Y-78520000D01*
X182460000Y-75950000D02*
X182460000Y-78505000D01*
X182460000Y-78505000D02*
X182445000Y-78520000D01*
X185997400Y-77922600D02*
X185090000Y-78830000D01*
X195350000Y-81480000D02*
X192400000Y-81480000D01*
X185090000Y-78830000D02*
X182755000Y-78830000D01*
X192400000Y-81480000D02*
X192350000Y-81430000D01*
%TO.N,Net-(D4-Pad3)*%
X217540000Y-78760000D02*
X217540000Y-80160000D01*
X214460000Y-78080000D02*
X216860000Y-78080000D01*
D35*
X220560000Y-80160000D02*
X217540000Y-80160000D01*
X225275000Y-84875000D02*
X220560000Y-80160000D01*
D34*
X216860000Y-78080000D02*
X217540000Y-78760000D01*
X225275000Y-85250000D02*
X223995000Y-83970000D01*
X223995000Y-83970000D02*
X221430000Y-83970000D01*
X225275000Y-85250000D02*
X225275000Y-84875000D01*
%TO.N,LIN*%
X199210000Y-84850000D02*
X199210000Y-81585000D01*
X199210000Y-81585000D02*
X199200000Y-81575000D01*
%TO.N,TXD*%
X200550000Y-91800000D02*
X200550000Y-89870000D01*
X200675000Y-91925000D02*
X200675000Y-93775000D01*
X205540000Y-94940000D02*
X204605000Y-95875000D01*
X200550000Y-91800000D02*
X200675000Y-91925000D01*
X200550000Y-89870000D02*
X200480000Y-89800000D01*
X204605000Y-95875000D02*
X203262500Y-95875000D01*
%TO.N,RXD*%
X196670000Y-93130000D02*
X196670000Y-89800000D01*
X197450000Y-95225000D02*
X196670000Y-94445000D01*
X203262500Y-95225000D02*
X197450000Y-95225000D01*
X196670000Y-94445000D02*
X196670000Y-93130000D01*
%TO.N,~{LIN_SLP}*%
X197950000Y-91675000D02*
X197940000Y-91665000D01*
X197940000Y-91665000D02*
X197940000Y-89800000D01*
X203262500Y-92625000D02*
X204525000Y-92625000D01*
X204525000Y-92625000D02*
X205075000Y-92075000D01*
X205075000Y-92075000D02*
X205325305Y-92075000D01*
%TO.N,~{LIN_WAKE}*%
X199225000Y-91625000D02*
X199225000Y-89815000D01*
X203237500Y-93275000D02*
X204900000Y-93275000D01*
X199225000Y-89815000D02*
X199210000Y-89800000D01*
X204900000Y-93275000D02*
X204925000Y-93300000D01*
%TO.N,SCL*%
X212185000Y-76130000D02*
X209740000Y-76130000D01*
X187450000Y-88525000D02*
X187400000Y-88475000D01*
X209800000Y-78080000D02*
X209730000Y-78010000D01*
X212185000Y-77430000D02*
X212185000Y-78080000D01*
X187400000Y-88475000D02*
X189300000Y-88475000D01*
X209740000Y-76130000D02*
X209730000Y-76120000D01*
X208987500Y-95225000D02*
X206917958Y-95225000D01*
X206917958Y-95225000D02*
X206290576Y-95852382D01*
X187450000Y-90425000D02*
X187450000Y-88525000D01*
X212185000Y-78080000D02*
X209800000Y-78080000D01*
%TO.N,SDA*%
X185425000Y-88550000D02*
X185450000Y-88525000D01*
X210784500Y-76780000D02*
X210710000Y-76854500D01*
X208987500Y-95875000D02*
X207575000Y-95875000D01*
X207575000Y-95875000D02*
X206675000Y-96775000D01*
X212185000Y-76780000D02*
X210784500Y-76780000D01*
X185450000Y-88525000D02*
X183550000Y-88525000D01*
X185425000Y-90325000D02*
X185425000Y-88550000D01*
%TO.N,+12V*%
X215980000Y-88010000D02*
X216460000Y-87530000D01*
X216460000Y-87530000D02*
X218975000Y-87530000D01*
%TO.N,UPDI*%
X210360000Y-94650000D02*
X210285000Y-94575000D01*
%TO.N,unconnected-(J1-Pad5)*%
X216400000Y-91840000D02*
X216360000Y-91800000D01*
%TO.N,UPDI*%
X210285000Y-94575000D02*
X208962500Y-94575000D01*
%TO.N,+BATT*%
X218275000Y-64000000D02*
X218150000Y-63875000D01*
D35*
X218200000Y-63950000D02*
X218200000Y-63925000D01*
X218250000Y-64000000D02*
X218200000Y-63950000D01*
X224700000Y-64000000D02*
X218250000Y-64000000D01*
D34*
X218275000Y-64000000D02*
X218200000Y-63925000D01*
%TO.N,+3V3*%
X198675000Y-93775000D02*
X197575000Y-93775000D01*
X203225000Y-89775000D02*
X203225000Y-91937500D01*
X214460000Y-76130000D02*
X214460000Y-75140000D01*
X193400000Y-92220000D02*
X193350000Y-92170000D01*
X203225000Y-89775000D02*
X203225000Y-88550000D01*
X203225000Y-91937500D02*
X203262500Y-91975000D01*
X203225000Y-88550000D02*
X202850000Y-88175000D01*
X197575000Y-93775000D02*
X197475000Y-93675000D01*
X193220000Y-83385000D02*
X193300000Y-83305000D01*
X208100000Y-89675000D02*
X208025000Y-89600000D01*
X194650000Y-92220000D02*
X193400000Y-92220000D01*
X193220000Y-85960000D02*
X193220000Y-83385000D01*
X209400000Y-89675000D02*
X208100000Y-89675000D01*
X214460000Y-75140000D02*
X214940000Y-74660000D01*
%TO.N,SCL5V*%
X188350000Y-86600000D02*
X188350000Y-82680000D01*
X188350000Y-82680000D02*
X187770000Y-82100000D01*
%TO.N,SDA5V*%
X184500000Y-82830000D02*
X185230000Y-82100000D01*
X184500000Y-86650000D02*
X184500000Y-82830000D01*
%TO.N,Net-(R5-Pad1)*%
X203237500Y-94575000D02*
X204879695Y-94575000D01*
X204025000Y-86500000D02*
X203700000Y-86825000D01*
X205900000Y-93590000D02*
X206050000Y-93590000D01*
X205275000Y-94215000D02*
X205900000Y-93590000D01*
X204879695Y-94575000D02*
X205239695Y-94215000D01*
X205239695Y-94215000D02*
X205275000Y-94215000D01*
X204025000Y-85350000D02*
X204025000Y-86500000D01*
%TO.N,Net-(D1-Pad2)*%
X204025000Y-83350000D02*
X206400000Y-83350000D01*
X206400000Y-83350000D02*
X206450000Y-83300000D01*
D35*
%TO.N,PELTIER+*%
X223635000Y-74060000D02*
X224700000Y-75125000D01*
X217540000Y-74060000D02*
X223635000Y-74060000D01*
D34*
X216940000Y-77430000D02*
X217540000Y-76830000D01*
X214460000Y-77430000D02*
X216940000Y-77430000D01*
X217540000Y-76830000D02*
X217540000Y-74060000D01*
%TO.N,Net-(Q3-Pad1)*%
X213850000Y-82025000D02*
X213875000Y-82050000D01*
X211525000Y-82025000D02*
X213850000Y-82025000D01*
%TO.N,Net-(Q3-Pad3)*%
X215980000Y-83230000D02*
X215750000Y-83000000D01*
X215780000Y-82970000D02*
X218975000Y-82970000D01*
X215980000Y-86010000D02*
X215980000Y-83230000D01*
X215750000Y-83000000D02*
X215780000Y-82970000D01*
%TO.N,PELTIER_EN*%
X211400000Y-84150000D02*
X211525000Y-84025000D01*
X211400000Y-89675000D02*
X211400000Y-84150000D01*
X211425000Y-93100000D02*
X211425000Y-89700000D01*
X211425000Y-89700000D02*
X211400000Y-89675000D01*
X210600000Y-93925000D02*
X211425000Y-93100000D01*
X208962500Y-93925000D02*
X210600000Y-93925000D01*
%TD*%
%TA.AperFunction,Conductor*%
%TO.N,+12V*%
G36*
X230043621Y-61818502D02*
G01*
X230090114Y-61872158D01*
X230101500Y-61924500D01*
X230101500Y-98235028D01*
X230081498Y-98303149D01*
X230027842Y-98349642D01*
X229975409Y-98361028D01*
X215532331Y-98350613D01*
X175794408Y-98321958D01*
X175726303Y-98301907D01*
X175679849Y-98248218D01*
X175668500Y-98195958D01*
X175668500Y-92170000D01*
X192436496Y-92170000D01*
X192437186Y-92176565D01*
X192452511Y-92322370D01*
X192456458Y-92359928D01*
X192515473Y-92541556D01*
X192518776Y-92547278D01*
X192518777Y-92547279D01*
X192539689Y-92583500D01*
X192610960Y-92706944D01*
X192615378Y-92711851D01*
X192615379Y-92711852D01*
X192729249Y-92838317D01*
X192738747Y-92848866D01*
X192893248Y-92961118D01*
X192899276Y-92963802D01*
X192899278Y-92963803D01*
X193035245Y-93024339D01*
X193067712Y-93038794D01*
X193150951Y-93056487D01*
X193248056Y-93077128D01*
X193248061Y-93077128D01*
X193254513Y-93078500D01*
X193445487Y-93078500D01*
X193451939Y-93077128D01*
X193451944Y-93077128D01*
X193549049Y-93056487D01*
X193619840Y-93061889D01*
X193676472Y-93104706D01*
X193682389Y-93113429D01*
X193701522Y-93144348D01*
X193826697Y-93269305D01*
X193832927Y-93273145D01*
X193832928Y-93273146D01*
X193970090Y-93357694D01*
X193977262Y-93362115D01*
X194012531Y-93373813D01*
X194138611Y-93415632D01*
X194138613Y-93415632D01*
X194145139Y-93417797D01*
X194151975Y-93418497D01*
X194151978Y-93418498D01*
X194195031Y-93422909D01*
X194249600Y-93428500D01*
X195050400Y-93428500D01*
X195053646Y-93428163D01*
X195053650Y-93428163D01*
X195149308Y-93418238D01*
X195149312Y-93418237D01*
X195156166Y-93417526D01*
X195162702Y-93415345D01*
X195162704Y-93415345D01*
X195294806Y-93371272D01*
X195323946Y-93361550D01*
X195474348Y-93268478D01*
X195560784Y-93181891D01*
X195623066Y-93147812D01*
X195693886Y-93152815D01*
X195738975Y-93181736D01*
X195805286Y-93247931D01*
X195826697Y-93269305D01*
X195832927Y-93273145D01*
X195832928Y-93273146D01*
X195976616Y-93361717D01*
X196024109Y-93414490D01*
X196036500Y-93468977D01*
X196036500Y-94366233D01*
X196035973Y-94377416D01*
X196034298Y-94384909D01*
X196034547Y-94392835D01*
X196034547Y-94392836D01*
X196036438Y-94452986D01*
X196036500Y-94456945D01*
X196036500Y-94484856D01*
X196036997Y-94488790D01*
X196036997Y-94488791D01*
X196037005Y-94488856D01*
X196037938Y-94500693D01*
X196039327Y-94544889D01*
X196044978Y-94564339D01*
X196048987Y-94583700D01*
X196050330Y-94594327D01*
X196051526Y-94603797D01*
X196054445Y-94611168D01*
X196054445Y-94611170D01*
X196067804Y-94644912D01*
X196071649Y-94656142D01*
X196083982Y-94698593D01*
X196088015Y-94705412D01*
X196088017Y-94705417D01*
X196094293Y-94716028D01*
X196102988Y-94733776D01*
X196110448Y-94752617D01*
X196115110Y-94759033D01*
X196115110Y-94759034D01*
X196136436Y-94788387D01*
X196142952Y-94798307D01*
X196165458Y-94836362D01*
X196179779Y-94850683D01*
X196192619Y-94865716D01*
X196204528Y-94882107D01*
X196210634Y-94887158D01*
X196238605Y-94910298D01*
X196247384Y-94918288D01*
X196946343Y-95617247D01*
X196953887Y-95625537D01*
X196958000Y-95632018D01*
X196963777Y-95637443D01*
X197007667Y-95678658D01*
X197010509Y-95681413D01*
X197030231Y-95701135D01*
X197033355Y-95703558D01*
X197033359Y-95703562D01*
X197033424Y-95703612D01*
X197042445Y-95711317D01*
X197074679Y-95741586D01*
X197081627Y-95745405D01*
X197081629Y-95745407D01*
X197092432Y-95751346D01*
X197108959Y-95762202D01*
X197118698Y-95769757D01*
X197118700Y-95769758D01*
X197124960Y-95774614D01*
X197165540Y-95792174D01*
X197176188Y-95797391D01*
X197214940Y-95818695D01*
X197222616Y-95820666D01*
X197222619Y-95820667D01*
X197234562Y-95823733D01*
X197253267Y-95830137D01*
X197271855Y-95838181D01*
X197279678Y-95839420D01*
X197279688Y-95839423D01*
X197315524Y-95845099D01*
X197327144Y-95847505D01*
X197362289Y-95856528D01*
X197369970Y-95858500D01*
X197390224Y-95858500D01*
X197409934Y-95860051D01*
X197429943Y-95863220D01*
X197437835Y-95862474D01*
X197473961Y-95859059D01*
X197485819Y-95858500D01*
X201865501Y-95858500D01*
X201933622Y-95878502D01*
X201980115Y-95932158D01*
X201991501Y-95984499D01*
X201991501Y-96014884D01*
X202007162Y-96133850D01*
X202068476Y-96281876D01*
X202073502Y-96288426D01*
X202160985Y-96402434D01*
X202166013Y-96408987D01*
X202172563Y-96414013D01*
X202172566Y-96414016D01*
X202220383Y-96450707D01*
X202293125Y-96506524D01*
X202441150Y-96567838D01*
X202449338Y-96568916D01*
X202556021Y-96582961D01*
X202560115Y-96583500D01*
X203237417Y-96583500D01*
X203914884Y-96583499D01*
X203918969Y-96582961D01*
X203918973Y-96582961D01*
X204025663Y-96568916D01*
X204025665Y-96568916D01*
X204033850Y-96567838D01*
X204153950Y-96518091D01*
X204202168Y-96508500D01*
X204526233Y-96508500D01*
X204537416Y-96509027D01*
X204544909Y-96510702D01*
X204552835Y-96510453D01*
X204552836Y-96510453D01*
X204612986Y-96508562D01*
X204616945Y-96508500D01*
X204644856Y-96508500D01*
X204648791Y-96508003D01*
X204648856Y-96507995D01*
X204660693Y-96507062D01*
X204692951Y-96506048D01*
X204696970Y-96505922D01*
X204704889Y-96505673D01*
X204724343Y-96500021D01*
X204743700Y-96496013D01*
X204755930Y-96494468D01*
X204755931Y-96494468D01*
X204763797Y-96493474D01*
X204771168Y-96490555D01*
X204771170Y-96490555D01*
X204804912Y-96477196D01*
X204816142Y-96473351D01*
X204850983Y-96463229D01*
X204850984Y-96463229D01*
X204858593Y-96461018D01*
X204865412Y-96456985D01*
X204865417Y-96456983D01*
X204876028Y-96450707D01*
X204893776Y-96442012D01*
X204912617Y-96434552D01*
X204948387Y-96408564D01*
X204958307Y-96402048D01*
X204989535Y-96383580D01*
X204989538Y-96383578D01*
X204996362Y-96379542D01*
X205010683Y-96365221D01*
X205025717Y-96352380D01*
X205035694Y-96345131D01*
X205042107Y-96340472D01*
X205070298Y-96306395D01*
X205078288Y-96297616D01*
X205236086Y-96139818D01*
X205298398Y-96105792D01*
X205369213Y-96110857D01*
X205426049Y-96153404D01*
X205445014Y-96189976D01*
X205456049Y-96223938D01*
X205551536Y-96389326D01*
X205555954Y-96394233D01*
X205555955Y-96394234D01*
X205616088Y-96461018D01*
X205679323Y-96531248D01*
X205684664Y-96535128D01*
X205684669Y-96535133D01*
X205720616Y-96561250D01*
X205763969Y-96617472D01*
X205771864Y-96676356D01*
X205761496Y-96775000D01*
X205781458Y-96964928D01*
X205840473Y-97146556D01*
X205935960Y-97311944D01*
X206063747Y-97453866D01*
X206218248Y-97566118D01*
X206224276Y-97568802D01*
X206224278Y-97568803D01*
X206386681Y-97641109D01*
X206392712Y-97643794D01*
X206486113Y-97663647D01*
X206573056Y-97682128D01*
X206573061Y-97682128D01*
X206579513Y-97683500D01*
X206770487Y-97683500D01*
X206776939Y-97682128D01*
X206776944Y-97682128D01*
X206863887Y-97663647D01*
X206957288Y-97643794D01*
X206963319Y-97641109D01*
X207125722Y-97568803D01*
X207125724Y-97568802D01*
X207131752Y-97566118D01*
X207286253Y-97453866D01*
X207414040Y-97311944D01*
X207509527Y-97146556D01*
X207568542Y-96964928D01*
X207585907Y-96799706D01*
X207612920Y-96734050D01*
X207622122Y-96723782D01*
X207800499Y-96545405D01*
X207862811Y-96511379D01*
X207889594Y-96508500D01*
X207997832Y-96508500D01*
X208046050Y-96518091D01*
X208166150Y-96567838D01*
X208174338Y-96568916D01*
X208281021Y-96582961D01*
X208285115Y-96583500D01*
X208962417Y-96583500D01*
X209639884Y-96583499D01*
X209643969Y-96582961D01*
X209643973Y-96582961D01*
X209750663Y-96568916D01*
X209750665Y-96568916D01*
X209758850Y-96567838D01*
X209847187Y-96531248D01*
X209874343Y-96520000D01*
X218906496Y-96520000D01*
X218907186Y-96526565D01*
X218916741Y-96617472D01*
X218926458Y-96709928D01*
X218985473Y-96891556D01*
X219080960Y-97056944D01*
X219208747Y-97198866D01*
X219307843Y-97270864D01*
X219356515Y-97306226D01*
X219363248Y-97311118D01*
X219369276Y-97313802D01*
X219369278Y-97313803D01*
X219531681Y-97386109D01*
X219537712Y-97388794D01*
X219631112Y-97408647D01*
X219718056Y-97427128D01*
X219718061Y-97427128D01*
X219724513Y-97428500D01*
X219915487Y-97428500D01*
X219921939Y-97427128D01*
X219921944Y-97427128D01*
X220008888Y-97408647D01*
X220102288Y-97388794D01*
X220108319Y-97386109D01*
X220270722Y-97313803D01*
X220270724Y-97313802D01*
X220276752Y-97311118D01*
X220283486Y-97306226D01*
X220332157Y-97270864D01*
X220431253Y-97198866D01*
X220559040Y-97056944D01*
X220654527Y-96891556D01*
X220713542Y-96709928D01*
X220723260Y-96617472D01*
X220732814Y-96526565D01*
X220733504Y-96520000D01*
X220721148Y-96402436D01*
X220714232Y-96336635D01*
X220714232Y-96336633D01*
X220713542Y-96330072D01*
X220654527Y-96148444D01*
X220559040Y-95983056D01*
X220496685Y-95913803D01*
X220435675Y-95846045D01*
X220435674Y-95846044D01*
X220431253Y-95841134D01*
X220322613Y-95762202D01*
X220282094Y-95732763D01*
X220282093Y-95732762D01*
X220276752Y-95728882D01*
X220270724Y-95726198D01*
X220270722Y-95726197D01*
X220108319Y-95653891D01*
X220108318Y-95653891D01*
X220102288Y-95651206D01*
X220006262Y-95630795D01*
X219921944Y-95612872D01*
X219921939Y-95612872D01*
X219915487Y-95611500D01*
X219724513Y-95611500D01*
X219718061Y-95612872D01*
X219718056Y-95612872D01*
X219633738Y-95630795D01*
X219537712Y-95651206D01*
X219531682Y-95653891D01*
X219531681Y-95653891D01*
X219369278Y-95726197D01*
X219369276Y-95726198D01*
X219363248Y-95728882D01*
X219357907Y-95732762D01*
X219357906Y-95732763D01*
X219317387Y-95762202D01*
X219208747Y-95841134D01*
X219204326Y-95846044D01*
X219204325Y-95846045D01*
X219143316Y-95913803D01*
X219080960Y-95983056D01*
X218985473Y-96148444D01*
X218926458Y-96330072D01*
X218925768Y-96336633D01*
X218925768Y-96336635D01*
X218918852Y-96402436D01*
X218906496Y-96520000D01*
X209874343Y-96520000D01*
X209899248Y-96509684D01*
X209899250Y-96509683D01*
X209906876Y-96506524D01*
X209913430Y-96501495D01*
X210027436Y-96414014D01*
X210027437Y-96414013D01*
X210033987Y-96408987D01*
X210039014Y-96402436D01*
X210039016Y-96402434D01*
X210119445Y-96297616D01*
X210131524Y-96281875D01*
X210192838Y-96133850D01*
X210208500Y-96014885D01*
X210208499Y-95735116D01*
X210204352Y-95703612D01*
X210204001Y-95700944D01*
X210214941Y-95630795D01*
X210262071Y-95577698D01*
X210328923Y-95558500D01*
X210455487Y-95558500D01*
X210461939Y-95557128D01*
X210461944Y-95557128D01*
X210549781Y-95538457D01*
X210642288Y-95518794D01*
X210703466Y-95491556D01*
X210810722Y-95443803D01*
X210810724Y-95443802D01*
X210816752Y-95441118D01*
X210971253Y-95328866D01*
X211099040Y-95186944D01*
X211137690Y-95120000D01*
X224176496Y-95120000D01*
X224196458Y-95309928D01*
X224255473Y-95491556D01*
X224350960Y-95656944D01*
X224355378Y-95661851D01*
X224355379Y-95661852D01*
X224452537Y-95769757D01*
X224478747Y-95798866D01*
X224633248Y-95911118D01*
X224639276Y-95913802D01*
X224639278Y-95913803D01*
X224794824Y-95983056D01*
X224807712Y-95988794D01*
X224901112Y-96008647D01*
X224988056Y-96027128D01*
X224988061Y-96027128D01*
X224994513Y-96028500D01*
X225185487Y-96028500D01*
X225191939Y-96027128D01*
X225191944Y-96027128D01*
X225278887Y-96008647D01*
X225372288Y-95988794D01*
X225385176Y-95983056D01*
X225540722Y-95913803D01*
X225540724Y-95913802D01*
X225546752Y-95911118D01*
X225701253Y-95798866D01*
X225727463Y-95769757D01*
X225824621Y-95661852D01*
X225824622Y-95661851D01*
X225829040Y-95656944D01*
X225924527Y-95491556D01*
X225983542Y-95309928D01*
X226003504Y-95120000D01*
X225983542Y-94930072D01*
X225924527Y-94748444D01*
X225829040Y-94583056D01*
X225740621Y-94484856D01*
X225705675Y-94446045D01*
X225705674Y-94446044D01*
X225701253Y-94441134D01*
X225546752Y-94328882D01*
X225540724Y-94326198D01*
X225540722Y-94326197D01*
X225378319Y-94253891D01*
X225378318Y-94253891D01*
X225372288Y-94251206D01*
X225278888Y-94231353D01*
X225191944Y-94212872D01*
X225191939Y-94212872D01*
X225185487Y-94211500D01*
X224994513Y-94211500D01*
X224988061Y-94212872D01*
X224988056Y-94212872D01*
X224901112Y-94231353D01*
X224807712Y-94251206D01*
X224801682Y-94253891D01*
X224801681Y-94253891D01*
X224639278Y-94326197D01*
X224639276Y-94326198D01*
X224633248Y-94328882D01*
X224478747Y-94441134D01*
X224474326Y-94446044D01*
X224474325Y-94446045D01*
X224439380Y-94484856D01*
X224350960Y-94583056D01*
X224255473Y-94748444D01*
X224196458Y-94930072D01*
X224176496Y-95120000D01*
X211137690Y-95120000D01*
X211194527Y-95021556D01*
X211253542Y-94839928D01*
X211254635Y-94829535D01*
X211272814Y-94656565D01*
X211273504Y-94650000D01*
X211267408Y-94591997D01*
X211254232Y-94466635D01*
X211254232Y-94466633D01*
X211253542Y-94460072D01*
X211205618Y-94312578D01*
X211203590Y-94241612D01*
X211236356Y-94184548D01*
X211817247Y-93603657D01*
X211825537Y-93596113D01*
X211832018Y-93592000D01*
X211878659Y-93542332D01*
X211881413Y-93539491D01*
X211901134Y-93519770D01*
X211903612Y-93516575D01*
X211911318Y-93507553D01*
X211936158Y-93481101D01*
X211941586Y-93475321D01*
X211951346Y-93457568D01*
X211962199Y-93441045D01*
X211969753Y-93431306D01*
X211974613Y-93425041D01*
X211992176Y-93384457D01*
X211997383Y-93373827D01*
X212018695Y-93335060D01*
X212020666Y-93327383D01*
X212020668Y-93327378D01*
X212023732Y-93315442D01*
X212030138Y-93296730D01*
X212032402Y-93291500D01*
X212038181Y-93278145D01*
X212039421Y-93270317D01*
X212039423Y-93270310D01*
X212045099Y-93234476D01*
X212047505Y-93222856D01*
X212056528Y-93187711D01*
X212056528Y-93187710D01*
X212058500Y-93180030D01*
X212058500Y-93159776D01*
X212060051Y-93140065D01*
X212061980Y-93127886D01*
X212063220Y-93120057D01*
X212059059Y-93076038D01*
X212058500Y-93064181D01*
X212058500Y-91764494D01*
X212367170Y-91764494D01*
X212367467Y-91769646D01*
X212367467Y-91769650D01*
X212377866Y-91950000D01*
X212380879Y-92002255D01*
X212382016Y-92007301D01*
X212382017Y-92007307D01*
X212407686Y-92121206D01*
X212433237Y-92234585D01*
X212435179Y-92239367D01*
X212435180Y-92239371D01*
X212508040Y-92418803D01*
X212522837Y-92455244D01*
X212647274Y-92658306D01*
X212803204Y-92838317D01*
X212986442Y-92990444D01*
X212990894Y-92993046D01*
X212990899Y-92993049D01*
X213134783Y-93077128D01*
X213192065Y-93110601D01*
X213414552Y-93195560D01*
X213419618Y-93196591D01*
X213419619Y-93196591D01*
X213469390Y-93206717D01*
X213647928Y-93243041D01*
X213781284Y-93247931D01*
X213880760Y-93251579D01*
X213880764Y-93251579D01*
X213885924Y-93251768D01*
X213891044Y-93251112D01*
X213891046Y-93251112D01*
X214117023Y-93222164D01*
X214117024Y-93222164D01*
X214122151Y-93221507D01*
X214127101Y-93220022D01*
X214345316Y-93154554D01*
X214345317Y-93154553D01*
X214350262Y-93153070D01*
X214564133Y-93048295D01*
X214568336Y-93045297D01*
X214568341Y-93045294D01*
X214753816Y-92912996D01*
X214753818Y-92912994D01*
X214758020Y-92909997D01*
X214926716Y-92741889D01*
X214984979Y-92660807D01*
X215040972Y-92617160D01*
X215111676Y-92610714D01*
X215174640Y-92643516D01*
X215186582Y-92657176D01*
X215187274Y-92658306D01*
X215343204Y-92838317D01*
X215526442Y-92990444D01*
X215530894Y-92993046D01*
X215530899Y-92993049D01*
X215674783Y-93077128D01*
X215732065Y-93110601D01*
X215954552Y-93195560D01*
X215959618Y-93196591D01*
X215959619Y-93196591D01*
X216009390Y-93206717D01*
X216187928Y-93243041D01*
X216321284Y-93247931D01*
X216420760Y-93251579D01*
X216420764Y-93251579D01*
X216425924Y-93251768D01*
X216431044Y-93251112D01*
X216431046Y-93251112D01*
X216657023Y-93222164D01*
X216657024Y-93222164D01*
X216662151Y-93221507D01*
X216667101Y-93220022D01*
X216885316Y-93154554D01*
X216885317Y-93154553D01*
X216890262Y-93153070D01*
X217104133Y-93048295D01*
X217108336Y-93045297D01*
X217108341Y-93045294D01*
X217293816Y-92912996D01*
X217293818Y-92912994D01*
X217298020Y-92909997D01*
X217466716Y-92741889D01*
X217524979Y-92660807D01*
X217580972Y-92617160D01*
X217651676Y-92610714D01*
X217714640Y-92643516D01*
X217726582Y-92657176D01*
X217727274Y-92658306D01*
X217883204Y-92838317D01*
X218066442Y-92990444D01*
X218070894Y-92993046D01*
X218070899Y-92993049D01*
X218214783Y-93077128D01*
X218272065Y-93110601D01*
X218494552Y-93195560D01*
X218499618Y-93196591D01*
X218499619Y-93196591D01*
X218549390Y-93206717D01*
X218727928Y-93243041D01*
X218861284Y-93247931D01*
X218960760Y-93251579D01*
X218960764Y-93251579D01*
X218965924Y-93251768D01*
X218971044Y-93251112D01*
X218971046Y-93251112D01*
X219197023Y-93222164D01*
X219197024Y-93222164D01*
X219202151Y-93221507D01*
X219207101Y-93220022D01*
X219425316Y-93154554D01*
X219425317Y-93154553D01*
X219430262Y-93153070D01*
X219644133Y-93048295D01*
X219648336Y-93045297D01*
X219648341Y-93045294D01*
X219833816Y-92912996D01*
X219833818Y-92912994D01*
X219838020Y-92909997D01*
X220006716Y-92741889D01*
X220064979Y-92660807D01*
X220120972Y-92617160D01*
X220191676Y-92610714D01*
X220254640Y-92643516D01*
X220266582Y-92657176D01*
X220267274Y-92658306D01*
X220423204Y-92838317D01*
X220606442Y-92990444D01*
X220610894Y-92993046D01*
X220610899Y-92993049D01*
X220754783Y-93077128D01*
X220812065Y-93110601D01*
X221034552Y-93195560D01*
X221039618Y-93196591D01*
X221039619Y-93196591D01*
X221089390Y-93206717D01*
X221267928Y-93243041D01*
X221401284Y-93247931D01*
X221500760Y-93251579D01*
X221500764Y-93251579D01*
X221505924Y-93251768D01*
X221511044Y-93251112D01*
X221511046Y-93251112D01*
X221737023Y-93222164D01*
X221737024Y-93222164D01*
X221742151Y-93221507D01*
X221747101Y-93220022D01*
X221965316Y-93154554D01*
X221965317Y-93154553D01*
X221970262Y-93153070D01*
X222184133Y-93048295D01*
X222188336Y-93045297D01*
X222188341Y-93045294D01*
X222373816Y-92912996D01*
X222373818Y-92912994D01*
X222378020Y-92909997D01*
X222546716Y-92741889D01*
X222604979Y-92660807D01*
X222660972Y-92617160D01*
X222731676Y-92610714D01*
X222794640Y-92643516D01*
X222806582Y-92657176D01*
X222807274Y-92658306D01*
X222963204Y-92838317D01*
X223146442Y-92990444D01*
X223150894Y-92993046D01*
X223150899Y-92993049D01*
X223294783Y-93077128D01*
X223352065Y-93110601D01*
X223574552Y-93195560D01*
X223579618Y-93196591D01*
X223579619Y-93196591D01*
X223629390Y-93206717D01*
X223807928Y-93243041D01*
X223941284Y-93247931D01*
X224040760Y-93251579D01*
X224040764Y-93251579D01*
X224045924Y-93251768D01*
X224051044Y-93251112D01*
X224051046Y-93251112D01*
X224277023Y-93222164D01*
X224277024Y-93222164D01*
X224282151Y-93221507D01*
X224287101Y-93220022D01*
X224505316Y-93154554D01*
X224505317Y-93154553D01*
X224510262Y-93153070D01*
X224724133Y-93048295D01*
X224728336Y-93045297D01*
X224728341Y-93045294D01*
X224913810Y-92913000D01*
X224918020Y-92909997D01*
X224920601Y-92907425D01*
X224985135Y-92878913D01*
X225055278Y-92889886D01*
X225108355Y-92937039D01*
X225119502Y-92959610D01*
X225129585Y-92986505D01*
X225216939Y-93103061D01*
X225333495Y-93190415D01*
X225469884Y-93241545D01*
X225532066Y-93248300D01*
X227507934Y-93248300D01*
X227570116Y-93241545D01*
X227706505Y-93190415D01*
X227823061Y-93103061D01*
X227910415Y-92986505D01*
X227961545Y-92850116D01*
X227968300Y-92787934D01*
X227968300Y-90812066D01*
X227961545Y-90749884D01*
X227910415Y-90613495D01*
X227823061Y-90496939D01*
X227706505Y-90409585D01*
X227570116Y-90358455D01*
X227507934Y-90351700D01*
X225532066Y-90351700D01*
X225469884Y-90358455D01*
X225333495Y-90409585D01*
X225216939Y-90496939D01*
X225129585Y-90613495D01*
X225126433Y-90621903D01*
X225118218Y-90643816D01*
X225075576Y-90700580D01*
X225009014Y-90725280D01*
X224939666Y-90710072D01*
X224922144Y-90698468D01*
X224788278Y-90592747D01*
X224788273Y-90592744D01*
X224784224Y-90589546D01*
X224779708Y-90587053D01*
X224779705Y-90587051D01*
X224580250Y-90476946D01*
X224580246Y-90476944D01*
X224575726Y-90474449D01*
X224570857Y-90472725D01*
X224570853Y-90472723D01*
X224356105Y-90396676D01*
X224356101Y-90396675D01*
X224351230Y-90394950D01*
X224346140Y-90394043D01*
X224346135Y-90394042D01*
X224218814Y-90371364D01*
X224116764Y-90353186D01*
X224025355Y-90352069D01*
X223883795Y-90350339D01*
X223883793Y-90350339D01*
X223878625Y-90350276D01*
X223643209Y-90386300D01*
X223416838Y-90460289D01*
X223357616Y-90491118D01*
X223244740Y-90549878D01*
X223205590Y-90570258D01*
X223201457Y-90573361D01*
X223201454Y-90573363D01*
X223019375Y-90710072D01*
X223015140Y-90713252D01*
X222992303Y-90737150D01*
X222865019Y-90870345D01*
X222850602Y-90885431D01*
X222816936Y-90934784D01*
X222815186Y-90937349D01*
X222760274Y-90982351D01*
X222689749Y-90990522D01*
X222626002Y-90959267D01*
X222605306Y-90934784D01*
X222594217Y-90917642D01*
X222594212Y-90917636D01*
X222591406Y-90913298D01*
X222576603Y-90897029D01*
X222528472Y-90844134D01*
X222431124Y-90737150D01*
X222427073Y-90733951D01*
X222427069Y-90733947D01*
X222248278Y-90592747D01*
X222248273Y-90592744D01*
X222244224Y-90589546D01*
X222239708Y-90587053D01*
X222239705Y-90587051D01*
X222040250Y-90476946D01*
X222040246Y-90476944D01*
X222035726Y-90474449D01*
X222030857Y-90472725D01*
X222030853Y-90472723D01*
X221816105Y-90396676D01*
X221816101Y-90396675D01*
X221811230Y-90394950D01*
X221806140Y-90394043D01*
X221806135Y-90394042D01*
X221678814Y-90371364D01*
X221576764Y-90353186D01*
X221485355Y-90352069D01*
X221343795Y-90350339D01*
X221343793Y-90350339D01*
X221338625Y-90350276D01*
X221103209Y-90386300D01*
X220876838Y-90460289D01*
X220817616Y-90491118D01*
X220704740Y-90549878D01*
X220665590Y-90570258D01*
X220661457Y-90573361D01*
X220661454Y-90573363D01*
X220479375Y-90710072D01*
X220475140Y-90713252D01*
X220452303Y-90737150D01*
X220325019Y-90870345D01*
X220310602Y-90885431D01*
X220276936Y-90934784D01*
X220275186Y-90937349D01*
X220220274Y-90982351D01*
X220149749Y-90990522D01*
X220086002Y-90959267D01*
X220065306Y-90934784D01*
X220054217Y-90917642D01*
X220054212Y-90917636D01*
X220051406Y-90913298D01*
X220036603Y-90897029D01*
X219988472Y-90844134D01*
X219891124Y-90737150D01*
X219887073Y-90733951D01*
X219887069Y-90733947D01*
X219708278Y-90592747D01*
X219708273Y-90592744D01*
X219704224Y-90589546D01*
X219699708Y-90587053D01*
X219699705Y-90587051D01*
X219500250Y-90476946D01*
X219500246Y-90476944D01*
X219495726Y-90474449D01*
X219490857Y-90472725D01*
X219490853Y-90472723D01*
X219276105Y-90396676D01*
X219276101Y-90396675D01*
X219271230Y-90394950D01*
X219266140Y-90394043D01*
X219266135Y-90394042D01*
X219138814Y-90371364D01*
X219036764Y-90353186D01*
X218945355Y-90352069D01*
X218803795Y-90350339D01*
X218803793Y-90350339D01*
X218798625Y-90350276D01*
X218563209Y-90386300D01*
X218336838Y-90460289D01*
X218277616Y-90491118D01*
X218164740Y-90549878D01*
X218125590Y-90570258D01*
X218121457Y-90573361D01*
X218121454Y-90573363D01*
X217939375Y-90710072D01*
X217935140Y-90713252D01*
X217912303Y-90737150D01*
X217785019Y-90870345D01*
X217770602Y-90885431D01*
X217736936Y-90934784D01*
X217735186Y-90937349D01*
X217680274Y-90982351D01*
X217609749Y-90990522D01*
X217546002Y-90959267D01*
X217525306Y-90934784D01*
X217514217Y-90917642D01*
X217514212Y-90917636D01*
X217511406Y-90913298D01*
X217496603Y-90897029D01*
X217448472Y-90844134D01*
X217351124Y-90737150D01*
X217347073Y-90733951D01*
X217347069Y-90733947D01*
X217168278Y-90592747D01*
X217168273Y-90592744D01*
X217164224Y-90589546D01*
X217159708Y-90587053D01*
X217159705Y-90587051D01*
X216960250Y-90476946D01*
X216960246Y-90476944D01*
X216955726Y-90474449D01*
X216950857Y-90472725D01*
X216950853Y-90472723D01*
X216736105Y-90396676D01*
X216736101Y-90396675D01*
X216731230Y-90394950D01*
X216726140Y-90394043D01*
X216726135Y-90394042D01*
X216598814Y-90371364D01*
X216496764Y-90353186D01*
X216405355Y-90352069D01*
X216263795Y-90350339D01*
X216263793Y-90350339D01*
X216258625Y-90350276D01*
X216023209Y-90386300D01*
X215796838Y-90460289D01*
X215737616Y-90491118D01*
X215624740Y-90549878D01*
X215585590Y-90570258D01*
X215581457Y-90573361D01*
X215581454Y-90573363D01*
X215399375Y-90710072D01*
X215395140Y-90713252D01*
X215372303Y-90737150D01*
X215245019Y-90870345D01*
X215230602Y-90885431D01*
X215196936Y-90934784D01*
X215195186Y-90937349D01*
X215140274Y-90982351D01*
X215069749Y-90990522D01*
X215006002Y-90959267D01*
X214985306Y-90934784D01*
X214974217Y-90917642D01*
X214974212Y-90917636D01*
X214971406Y-90913298D01*
X214956603Y-90897029D01*
X214908472Y-90844134D01*
X214811124Y-90737150D01*
X214807073Y-90733951D01*
X214807069Y-90733947D01*
X214628278Y-90592747D01*
X214628273Y-90592744D01*
X214624224Y-90589546D01*
X214619708Y-90587053D01*
X214619705Y-90587051D01*
X214420250Y-90476946D01*
X214420246Y-90476944D01*
X214415726Y-90474449D01*
X214410857Y-90472725D01*
X214410853Y-90472723D01*
X214196105Y-90396676D01*
X214196101Y-90396675D01*
X214191230Y-90394950D01*
X214186140Y-90394043D01*
X214186135Y-90394042D01*
X214058814Y-90371364D01*
X213956764Y-90353186D01*
X213865355Y-90352069D01*
X213723795Y-90350339D01*
X213723793Y-90350339D01*
X213718625Y-90350276D01*
X213483209Y-90386300D01*
X213256838Y-90460289D01*
X213197616Y-90491118D01*
X213084740Y-90549878D01*
X213045590Y-90570258D01*
X213041457Y-90573361D01*
X213041454Y-90573363D01*
X212859375Y-90710072D01*
X212855140Y-90713252D01*
X212832303Y-90737150D01*
X212705019Y-90870345D01*
X212690602Y-90885431D01*
X212687691Y-90889699D01*
X212687687Y-90889704D01*
X212583203Y-91042872D01*
X212556394Y-91082172D01*
X212523521Y-91152992D01*
X212461231Y-91287185D01*
X212456122Y-91298191D01*
X212392477Y-91527685D01*
X212391928Y-91532819D01*
X212391928Y-91532821D01*
X212388856Y-91561572D01*
X212367170Y-91764494D01*
X212058500Y-91764494D01*
X212058500Y-90896311D01*
X212078502Y-90828190D01*
X212118196Y-90789167D01*
X212224348Y-90723478D01*
X212349305Y-90598303D01*
X212353146Y-90592072D01*
X212438275Y-90453968D01*
X212438276Y-90453966D01*
X212442115Y-90447738D01*
X212472347Y-90356590D01*
X212495632Y-90286389D01*
X212495632Y-90286387D01*
X212497797Y-90279861D01*
X212500647Y-90252051D01*
X212508172Y-90178598D01*
X212508500Y-90175400D01*
X212508500Y-89174600D01*
X212506052Y-89151002D01*
X212498238Y-89075692D01*
X212498237Y-89075688D01*
X212497526Y-89068834D01*
X212494838Y-89060775D01*
X212444162Y-88908882D01*
X212441550Y-88901054D01*
X212348478Y-88750652D01*
X212303975Y-88706226D01*
X212228483Y-88630866D01*
X212223303Y-88625695D01*
X212191566Y-88606132D01*
X212093384Y-88545611D01*
X212045890Y-88492838D01*
X212033500Y-88438351D01*
X212033500Y-88407095D01*
X214772001Y-88407095D01*
X214772338Y-88413614D01*
X214782257Y-88509206D01*
X214785149Y-88522600D01*
X214836588Y-88676784D01*
X214842761Y-88689962D01*
X214928063Y-88827807D01*
X214937099Y-88839208D01*
X215051829Y-88953739D01*
X215063240Y-88962751D01*
X215201243Y-89047816D01*
X215214424Y-89053963D01*
X215368710Y-89105138D01*
X215382086Y-89108005D01*
X215476438Y-89117672D01*
X215482854Y-89118000D01*
X215707885Y-89118000D01*
X215723124Y-89113525D01*
X215724329Y-89112135D01*
X215726000Y-89104452D01*
X215726000Y-88282115D01*
X215721525Y-88266876D01*
X215720135Y-88265671D01*
X215712452Y-88264000D01*
X214790116Y-88264000D01*
X214774877Y-88268475D01*
X214773672Y-88269865D01*
X214772001Y-88277548D01*
X214772001Y-88407095D01*
X212033500Y-88407095D01*
X212033500Y-85244542D01*
X212053502Y-85176421D01*
X212107158Y-85129928D01*
X212128678Y-85122784D01*
X212131166Y-85122526D01*
X212298946Y-85066550D01*
X212449348Y-84973478D01*
X212574305Y-84848303D01*
X212579321Y-84840166D01*
X212663275Y-84703968D01*
X212663276Y-84703966D01*
X212667115Y-84697738D01*
X212674409Y-84675746D01*
X212714838Y-84617387D01*
X212780402Y-84590149D01*
X212850283Y-84602681D01*
X212871228Y-84615853D01*
X212875084Y-84618844D01*
X212880693Y-84624453D01*
X212959454Y-84671032D01*
X213004680Y-84697779D01*
X213053132Y-84749672D01*
X213065837Y-84819523D01*
X213049659Y-84869232D01*
X213019366Y-84921702D01*
X213015473Y-84928444D01*
X212956458Y-85110072D01*
X212955768Y-85116633D01*
X212955768Y-85116635D01*
X212949058Y-85180479D01*
X212936496Y-85300000D01*
X212956458Y-85489928D01*
X213015473Y-85671556D01*
X213110960Y-85836944D01*
X213115378Y-85841851D01*
X213115379Y-85841852D01*
X213224049Y-85962542D01*
X213238747Y-85978866D01*
X213300794Y-86023946D01*
X213380433Y-86081807D01*
X213393248Y-86091118D01*
X213399276Y-86093802D01*
X213399278Y-86093803D01*
X213561681Y-86166109D01*
X213567712Y-86168794D01*
X213645837Y-86185400D01*
X213748056Y-86207128D01*
X213748061Y-86207128D01*
X213754513Y-86208500D01*
X213945487Y-86208500D01*
X213951939Y-86207128D01*
X213951944Y-86207128D01*
X214054163Y-86185400D01*
X214132288Y-86168794D01*
X214138319Y-86166109D01*
X214300722Y-86093803D01*
X214300724Y-86093802D01*
X214306752Y-86091118D01*
X214319568Y-86081807D01*
X214399206Y-86023946D01*
X214461253Y-85978866D01*
X214479439Y-85958669D01*
X214551864Y-85878232D01*
X214612310Y-85840992D01*
X214683293Y-85842344D01*
X214742278Y-85881857D01*
X214770536Y-85946988D01*
X214771500Y-85962542D01*
X214771500Y-86410400D01*
X214771837Y-86413646D01*
X214771837Y-86413650D01*
X214779263Y-86485214D01*
X214782474Y-86516166D01*
X214784655Y-86522702D01*
X214784655Y-86522704D01*
X214815280Y-86614498D01*
X214838450Y-86683946D01*
X214931522Y-86834348D01*
X214936704Y-86839521D01*
X215018463Y-86921138D01*
X215052542Y-86983421D01*
X215047539Y-87054241D01*
X215018618Y-87099329D01*
X214936261Y-87181829D01*
X214927249Y-87193240D01*
X214842184Y-87331243D01*
X214836037Y-87344424D01*
X214784862Y-87498710D01*
X214781995Y-87512086D01*
X214772328Y-87606438D01*
X214772000Y-87612855D01*
X214772000Y-87737885D01*
X214776475Y-87753124D01*
X214777865Y-87754329D01*
X214785548Y-87756000D01*
X216108000Y-87756000D01*
X216176121Y-87776002D01*
X216222614Y-87829658D01*
X216234000Y-87882000D01*
X216234000Y-89099884D01*
X216238475Y-89115123D01*
X216239865Y-89116328D01*
X216247548Y-89117999D01*
X216477095Y-89117999D01*
X216483614Y-89117662D01*
X216579206Y-89107743D01*
X216592600Y-89104851D01*
X216746784Y-89053412D01*
X216759962Y-89047239D01*
X216897807Y-88961937D01*
X216909208Y-88952901D01*
X217023739Y-88838171D01*
X217032751Y-88826760D01*
X217117816Y-88688757D01*
X217123963Y-88675576D01*
X217175138Y-88521290D01*
X217178005Y-88507914D01*
X217187193Y-88418243D01*
X217214034Y-88352516D01*
X217272150Y-88311734D01*
X217343087Y-88308846D01*
X217404326Y-88344768D01*
X217423057Y-88370577D01*
X217430212Y-88383646D01*
X217506715Y-88485724D01*
X217519276Y-88498285D01*
X217621351Y-88574786D01*
X217636946Y-88583324D01*
X217757394Y-88628478D01*
X217772649Y-88632105D01*
X217823514Y-88637631D01*
X217830328Y-88638000D01*
X218702885Y-88638000D01*
X218718124Y-88633525D01*
X218719329Y-88632135D01*
X218721000Y-88624452D01*
X218721000Y-88619884D01*
X219229000Y-88619884D01*
X219233475Y-88635123D01*
X219234865Y-88636328D01*
X219242548Y-88637999D01*
X220119669Y-88637999D01*
X220126490Y-88637629D01*
X220177352Y-88632105D01*
X220192604Y-88628479D01*
X220313054Y-88583324D01*
X220328649Y-88574786D01*
X220430724Y-88498285D01*
X220443285Y-88485724D01*
X220519786Y-88383649D01*
X220528324Y-88368054D01*
X220573478Y-88247606D01*
X220577105Y-88232351D01*
X220582631Y-88181486D01*
X220583000Y-88174672D01*
X220583000Y-87802115D01*
X220578525Y-87786876D01*
X220577135Y-87785671D01*
X220569452Y-87784000D01*
X219247115Y-87784000D01*
X219231876Y-87788475D01*
X219230671Y-87789865D01*
X219229000Y-87797548D01*
X219229000Y-88619884D01*
X218721000Y-88619884D01*
X218721000Y-87257885D01*
X219229000Y-87257885D01*
X219233475Y-87273124D01*
X219234865Y-87274329D01*
X219242548Y-87276000D01*
X220564884Y-87276000D01*
X220580123Y-87271525D01*
X220581328Y-87270135D01*
X220582999Y-87262452D01*
X220582999Y-86885331D01*
X220582629Y-86878510D01*
X220577105Y-86827648D01*
X220573479Y-86812396D01*
X220528324Y-86691946D01*
X220519786Y-86676351D01*
X220443285Y-86574276D01*
X220430724Y-86561715D01*
X220328649Y-86485214D01*
X220313054Y-86476676D01*
X220192606Y-86431522D01*
X220177351Y-86427895D01*
X220126486Y-86422369D01*
X220119672Y-86422000D01*
X219247115Y-86422000D01*
X219231876Y-86426475D01*
X219230671Y-86427865D01*
X219229000Y-86435548D01*
X219229000Y-87257885D01*
X218721000Y-87257885D01*
X218721000Y-86440116D01*
X218716525Y-86424877D01*
X218715135Y-86423672D01*
X218707452Y-86422001D01*
X217830331Y-86422001D01*
X217823510Y-86422371D01*
X217772648Y-86427895D01*
X217757396Y-86431521D01*
X217636946Y-86476676D01*
X217621351Y-86485214D01*
X217519276Y-86561715D01*
X217506715Y-86574276D01*
X217430214Y-86676351D01*
X217421676Y-86691946D01*
X217376522Y-86812394D01*
X217372895Y-86827649D01*
X217367369Y-86878514D01*
X217367000Y-86885328D01*
X217367000Y-87297538D01*
X217346998Y-87365659D01*
X217293342Y-87412152D01*
X217223068Y-87422256D01*
X217158488Y-87392762D01*
X217129014Y-87348674D01*
X217126517Y-87349844D01*
X217117239Y-87330038D01*
X217031937Y-87192193D01*
X217022901Y-87180792D01*
X216941538Y-87099570D01*
X216907459Y-87037287D01*
X216912462Y-86966467D01*
X216941383Y-86921380D01*
X217024130Y-86838488D01*
X217024134Y-86838483D01*
X217029305Y-86833303D01*
X217038470Y-86818435D01*
X217118275Y-86688968D01*
X217118276Y-86688966D01*
X217122115Y-86682738D01*
X217158090Y-86574276D01*
X217175632Y-86521389D01*
X217175632Y-86521387D01*
X217177797Y-86514861D01*
X217188500Y-86410400D01*
X217188500Y-85609600D01*
X217186397Y-85589333D01*
X217178238Y-85510692D01*
X217178237Y-85510688D01*
X217177526Y-85503834D01*
X217165451Y-85467639D01*
X217123868Y-85343002D01*
X217121550Y-85336054D01*
X217028478Y-85185652D01*
X216903303Y-85060695D01*
X216852211Y-85029201D01*
X216758968Y-84971725D01*
X216758966Y-84971724D01*
X216752738Y-84967885D01*
X216699832Y-84950337D01*
X216641473Y-84909906D01*
X216614236Y-84844342D01*
X216613500Y-84830744D01*
X216613500Y-83823682D01*
X216633502Y-83755561D01*
X216675360Y-83715229D01*
X216737484Y-83678489D01*
X216737489Y-83678485D01*
X216744307Y-83674453D01*
X216778355Y-83640405D01*
X216840667Y-83606379D01*
X216867450Y-83603500D01*
X217257130Y-83603500D01*
X217325251Y-83623502D01*
X217371744Y-83677158D01*
X217375112Y-83685270D01*
X217424385Y-83816705D01*
X217511739Y-83933261D01*
X217628295Y-84020615D01*
X217764684Y-84071745D01*
X217826866Y-84078500D01*
X220123134Y-84078500D01*
X220185316Y-84071745D01*
X220321705Y-84020615D01*
X220329537Y-84014745D01*
X220330287Y-84014465D01*
X220336760Y-84010921D01*
X220337272Y-84011855D01*
X220396041Y-83989897D01*
X220465424Y-84004949D01*
X220515655Y-84055122D01*
X220530412Y-84102400D01*
X220530635Y-84104521D01*
X220535256Y-84148488D01*
X220536458Y-84159928D01*
X220595473Y-84341556D01*
X220598776Y-84347278D01*
X220598777Y-84347279D01*
X220625686Y-84393886D01*
X220690960Y-84506944D01*
X220695378Y-84511851D01*
X220695379Y-84511852D01*
X220736866Y-84557928D01*
X220818747Y-84648866D01*
X220973248Y-84761118D01*
X220979276Y-84763802D01*
X220979278Y-84763803D01*
X221141681Y-84836109D01*
X221147712Y-84838794D01*
X221241112Y-84858647D01*
X221328056Y-84877128D01*
X221328061Y-84877128D01*
X221334513Y-84878500D01*
X221440500Y-84878500D01*
X221508621Y-84898502D01*
X221555114Y-84952158D01*
X221566500Y-85004500D01*
X221566500Y-88198134D01*
X221573255Y-88260316D01*
X221624385Y-88396705D01*
X221711739Y-88513261D01*
X221828295Y-88600615D01*
X221964684Y-88651745D01*
X222026866Y-88658500D01*
X228523134Y-88658500D01*
X228585316Y-88651745D01*
X228721705Y-88600615D01*
X228838261Y-88513261D01*
X228925615Y-88396705D01*
X228976745Y-88260316D01*
X228983500Y-88198134D01*
X228983500Y-82301866D01*
X228976745Y-82239684D01*
X228925615Y-82103295D01*
X228838261Y-81986739D01*
X228721705Y-81899385D01*
X228585316Y-81848255D01*
X228523134Y-81841500D01*
X224285610Y-81841500D01*
X224217489Y-81821498D01*
X224196515Y-81804595D01*
X221594636Y-79202716D01*
X221588565Y-79196201D01*
X221549007Y-79150614D01*
X221549005Y-79150612D01*
X221545507Y-79146581D01*
X221541381Y-79143198D01*
X221541377Y-79143194D01*
X221498093Y-79107704D01*
X221461360Y-79077584D01*
X221460108Y-79076543D01*
X221376855Y-79006314D01*
X221372257Y-79003611D01*
X221368537Y-79000977D01*
X221364784Y-78998398D01*
X221360667Y-78995022D01*
X221356043Y-78992390D01*
X221356036Y-78992385D01*
X221266102Y-78941192D01*
X221264629Y-78940340D01*
X221209601Y-78907991D01*
X221175400Y-78887885D01*
X221175397Y-78887884D01*
X221170793Y-78885177D01*
X221165796Y-78883284D01*
X221161639Y-78881292D01*
X221157571Y-78879412D01*
X221152934Y-78876773D01*
X221050666Y-78839652D01*
X221049016Y-78839040D01*
X220991679Y-78817317D01*
X220947266Y-78800490D01*
X220942026Y-78799467D01*
X220937665Y-78798224D01*
X220933261Y-78797036D01*
X220928247Y-78795216D01*
X220922998Y-78794267D01*
X220922995Y-78794266D01*
X220821226Y-78775863D01*
X220819498Y-78775538D01*
X220717904Y-78755698D01*
X220717896Y-78755697D01*
X220712667Y-78754676D01*
X220707337Y-78754551D01*
X220702027Y-78753974D01*
X220702068Y-78753597D01*
X220701290Y-78753518D01*
X220701248Y-78753890D01*
X220697120Y-78753422D01*
X220693031Y-78752682D01*
X220688877Y-78752486D01*
X220688876Y-78752486D01*
X220669456Y-78751570D01*
X220669449Y-78751570D01*
X220667968Y-78751500D01*
X220579369Y-78751500D01*
X220576401Y-78751465D01*
X220573493Y-78751396D01*
X220473702Y-78749045D01*
X220467411Y-78749968D01*
X220466077Y-78750164D01*
X220447780Y-78751500D01*
X218291756Y-78751500D01*
X218223635Y-78731498D01*
X218177142Y-78677842D01*
X218171701Y-78659809D01*
X218170672Y-78660108D01*
X218170586Y-78659809D01*
X218165022Y-78640658D01*
X218161014Y-78621306D01*
X218159467Y-78609063D01*
X218158474Y-78601203D01*
X218155556Y-78593832D01*
X218142200Y-78560097D01*
X218138355Y-78548870D01*
X218136134Y-78541226D01*
X218126018Y-78506407D01*
X218121984Y-78499585D01*
X218121981Y-78499579D01*
X218115706Y-78488968D01*
X218107010Y-78471218D01*
X218102472Y-78459756D01*
X218102469Y-78459751D01*
X218099552Y-78452383D01*
X218073573Y-78416625D01*
X218067057Y-78406707D01*
X218052182Y-78381556D01*
X218044542Y-78368637D01*
X218030218Y-78354313D01*
X218017376Y-78339278D01*
X218005472Y-78322893D01*
X217971406Y-78294711D01*
X217962627Y-78286722D01*
X217560000Y-77884095D01*
X217525974Y-77821783D01*
X217531039Y-77750968D01*
X217560000Y-77705905D01*
X217932253Y-77333652D01*
X217940538Y-77326112D01*
X217947018Y-77322000D01*
X217993659Y-77272332D01*
X217996413Y-77269491D01*
X218016134Y-77249770D01*
X218018612Y-77246575D01*
X218026318Y-77237553D01*
X218051158Y-77211101D01*
X218056586Y-77205321D01*
X218062732Y-77194142D01*
X218066346Y-77187568D01*
X218077199Y-77171045D01*
X218078356Y-77169553D01*
X218089613Y-77155041D01*
X218107176Y-77114457D01*
X218112383Y-77103827D01*
X218133695Y-77065060D01*
X218135666Y-77057383D01*
X218135668Y-77057378D01*
X218138732Y-77045442D01*
X218145138Y-77026730D01*
X218146188Y-77024305D01*
X218153181Y-77008145D01*
X218154421Y-77000317D01*
X218154423Y-77000310D01*
X218160099Y-76964476D01*
X218162505Y-76952856D01*
X218171528Y-76917711D01*
X218171528Y-76917710D01*
X218173500Y-76910030D01*
X218173500Y-76889776D01*
X218175051Y-76870065D01*
X218176980Y-76857886D01*
X218178220Y-76850057D01*
X218174059Y-76806038D01*
X218173500Y-76794181D01*
X218173500Y-75594500D01*
X218193502Y-75526379D01*
X218247158Y-75479886D01*
X218299500Y-75468500D01*
X222999390Y-75468500D01*
X223067511Y-75488502D01*
X223088485Y-75505405D01*
X223104595Y-75521515D01*
X223138621Y-75583827D01*
X223141500Y-75610610D01*
X223141500Y-76223134D01*
X223148255Y-76285316D01*
X223199385Y-76421705D01*
X223286739Y-76538261D01*
X223340713Y-76578712D01*
X223383965Y-76611128D01*
X223426479Y-76667988D01*
X223431504Y-76738806D01*
X223415832Y-76777788D01*
X223402916Y-76798866D01*
X223307073Y-76955268D01*
X223264777Y-77057378D01*
X223217695Y-77171045D01*
X223213195Y-77181908D01*
X223203387Y-77222763D01*
X223157470Y-77414022D01*
X223155928Y-77420443D01*
X223136681Y-77665000D01*
X223155928Y-77909557D01*
X223157082Y-77914364D01*
X223157083Y-77914370D01*
X223168972Y-77963891D01*
X223213195Y-78148092D01*
X223215088Y-78152663D01*
X223215089Y-78152665D01*
X223231948Y-78193365D01*
X223307073Y-78374732D01*
X223382152Y-78497251D01*
X223418215Y-78556100D01*
X223435248Y-78583896D01*
X223438463Y-78587660D01*
X223438465Y-78587663D01*
X223580910Y-78754443D01*
X223594567Y-78770433D01*
X223598323Y-78773641D01*
X223772042Y-78922012D01*
X223781104Y-78929752D01*
X223785327Y-78932340D01*
X223785330Y-78932342D01*
X223816595Y-78951501D01*
X223990268Y-79057927D01*
X224132165Y-79116703D01*
X224212335Y-79149911D01*
X224212337Y-79149912D01*
X224216908Y-79151805D01*
X224299563Y-79171649D01*
X224450630Y-79207917D01*
X224450636Y-79207918D01*
X224455443Y-79209072D01*
X224700000Y-79228319D01*
X224944557Y-79209072D01*
X224949364Y-79207918D01*
X224949370Y-79207917D01*
X225100437Y-79171649D01*
X225183092Y-79151805D01*
X225187663Y-79149912D01*
X225187665Y-79149911D01*
X225267835Y-79116703D01*
X225409732Y-79057927D01*
X225583405Y-78951501D01*
X225614670Y-78932342D01*
X225614673Y-78932340D01*
X225618896Y-78929752D01*
X225627959Y-78922012D01*
X225801677Y-78773641D01*
X225805433Y-78770433D01*
X225819090Y-78754443D01*
X225961535Y-78587663D01*
X225961537Y-78587660D01*
X225964752Y-78583896D01*
X225981786Y-78556100D01*
X226017848Y-78497251D01*
X226092927Y-78374732D01*
X226168052Y-78193365D01*
X226184911Y-78152665D01*
X226184912Y-78152663D01*
X226186805Y-78148092D01*
X226231028Y-77963891D01*
X226242917Y-77914370D01*
X226242918Y-77914364D01*
X226244072Y-77909557D01*
X226263319Y-77665000D01*
X226244072Y-77420443D01*
X226242531Y-77414022D01*
X226196613Y-77222763D01*
X226186805Y-77181908D01*
X226182306Y-77171045D01*
X226135223Y-77057378D01*
X226092927Y-76955268D01*
X225997084Y-76798866D01*
X225984168Y-76777788D01*
X225965630Y-76709255D01*
X225987087Y-76641578D01*
X226016035Y-76611128D01*
X226059287Y-76578712D01*
X226113261Y-76538261D01*
X226200615Y-76421705D01*
X226251745Y-76285316D01*
X226258500Y-76223134D01*
X226258500Y-74026866D01*
X226258055Y-74022765D01*
X226255777Y-74001803D01*
X226251745Y-73964684D01*
X226200615Y-73828295D01*
X226113261Y-73711739D01*
X225996705Y-73624385D01*
X225860316Y-73573255D01*
X225798134Y-73566500D01*
X225185610Y-73566500D01*
X225117489Y-73546498D01*
X225096515Y-73529595D01*
X224669629Y-73102709D01*
X224663559Y-73096194D01*
X224624011Y-73050619D01*
X224620507Y-73046581D01*
X224616381Y-73043198D01*
X224616376Y-73043193D01*
X224570912Y-73005916D01*
X224536360Y-72977584D01*
X224535108Y-72976543D01*
X224451855Y-72906314D01*
X224447257Y-72903611D01*
X224443537Y-72900977D01*
X224439784Y-72898398D01*
X224435667Y-72895022D01*
X224431043Y-72892390D01*
X224431036Y-72892385D01*
X224341102Y-72841192D01*
X224339629Y-72840340D01*
X224284601Y-72807991D01*
X224250400Y-72787885D01*
X224250397Y-72787884D01*
X224245793Y-72785177D01*
X224240796Y-72783284D01*
X224236639Y-72781292D01*
X224232571Y-72779412D01*
X224227934Y-72776773D01*
X224125666Y-72739652D01*
X224124016Y-72739040D01*
X224087821Y-72725327D01*
X224022266Y-72700490D01*
X224017026Y-72699467D01*
X224012665Y-72698224D01*
X224008261Y-72697036D01*
X224003247Y-72695216D01*
X223997998Y-72694267D01*
X223997995Y-72694266D01*
X223896226Y-72675863D01*
X223894498Y-72675538D01*
X223792904Y-72655698D01*
X223792896Y-72655697D01*
X223787667Y-72654676D01*
X223782337Y-72654551D01*
X223777027Y-72653974D01*
X223777068Y-72653597D01*
X223776290Y-72653518D01*
X223776248Y-72653890D01*
X223772120Y-72653422D01*
X223768031Y-72652682D01*
X223763877Y-72652486D01*
X223763876Y-72652486D01*
X223744456Y-72651570D01*
X223744449Y-72651570D01*
X223742968Y-72651500D01*
X223654369Y-72651500D01*
X223651401Y-72651465D01*
X223648493Y-72651396D01*
X223548702Y-72649045D01*
X223542411Y-72649968D01*
X223541077Y-72650164D01*
X223522780Y-72651500D01*
X217479988Y-72651500D01*
X217301825Y-72666617D01*
X217296661Y-72667957D01*
X217296657Y-72667958D01*
X217075625Y-72725327D01*
X217075620Y-72725329D01*
X217070460Y-72726668D01*
X217065594Y-72728860D01*
X216934564Y-72787885D01*
X216852520Y-72824843D01*
X216848093Y-72827823D01*
X216848083Y-72827829D01*
X216844829Y-72830020D01*
X216774461Y-72851501D01*
X216064600Y-72851501D01*
X215958833Y-72862474D01*
X215952286Y-72864658D01*
X215952287Y-72864658D01*
X215797998Y-72916133D01*
X215797996Y-72916134D01*
X215791054Y-72918450D01*
X215640651Y-73011521D01*
X215515694Y-73136697D01*
X215422885Y-73287261D01*
X215367203Y-73455138D01*
X215356500Y-73559599D01*
X215356500Y-73664136D01*
X215336498Y-73732257D01*
X215282842Y-73778750D01*
X215212568Y-73788854D01*
X215204303Y-73787383D01*
X215041944Y-73752872D01*
X215041939Y-73752872D01*
X215035487Y-73751500D01*
X214844513Y-73751500D01*
X214838061Y-73752872D01*
X214838056Y-73752872D01*
X214751113Y-73771353D01*
X214657712Y-73791206D01*
X214651682Y-73793891D01*
X214651681Y-73793891D01*
X214489278Y-73866197D01*
X214489276Y-73866198D01*
X214483248Y-73868882D01*
X214477907Y-73872762D01*
X214477906Y-73872763D01*
X214427843Y-73909136D01*
X214328747Y-73981134D01*
X214324326Y-73986044D01*
X214324325Y-73986045D01*
X214277682Y-74037848D01*
X214200960Y-74123056D01*
X214105473Y-74288444D01*
X214046458Y-74470072D01*
X214045768Y-74476633D01*
X214045768Y-74476635D01*
X214029093Y-74635292D01*
X214002080Y-74700949D01*
X213992878Y-74711217D01*
X213983865Y-74720230D01*
X213981385Y-74723427D01*
X213973682Y-74732447D01*
X213943414Y-74764679D01*
X213939595Y-74771625D01*
X213939593Y-74771628D01*
X213933652Y-74782434D01*
X213922801Y-74798953D01*
X213910386Y-74814959D01*
X213907241Y-74822228D01*
X213907238Y-74822232D01*
X213892826Y-74855537D01*
X213887609Y-74866187D01*
X213866305Y-74904940D01*
X213864334Y-74912615D01*
X213864334Y-74912616D01*
X213861267Y-74924562D01*
X213854863Y-74943266D01*
X213854848Y-74943302D01*
X213846819Y-74961855D01*
X213845580Y-74969678D01*
X213845577Y-74969688D01*
X213839901Y-75005524D01*
X213837495Y-75017144D01*
X213826500Y-75059970D01*
X213826500Y-75080224D01*
X213824949Y-75099934D01*
X213821780Y-75119943D01*
X213822526Y-75127835D01*
X213825941Y-75163961D01*
X213826500Y-75175819D01*
X213826500Y-75278593D01*
X213806498Y-75346714D01*
X213752842Y-75393207D01*
X213735653Y-75399590D01*
X213676519Y-75416770D01*
X213676516Y-75416771D01*
X213668907Y-75418982D01*
X213653885Y-75427866D01*
X213537957Y-75496424D01*
X213537953Y-75496427D01*
X213531137Y-75500458D01*
X213417958Y-75613637D01*
X213417550Y-75613229D01*
X213364502Y-75651538D01*
X213293610Y-75655388D01*
X213231890Y-75620300D01*
X213229031Y-75617001D01*
X213227042Y-75613637D01*
X213113863Y-75500458D01*
X213107047Y-75496427D01*
X213107043Y-75496424D01*
X212991115Y-75427866D01*
X212976093Y-75418982D01*
X212968483Y-75416771D01*
X212828572Y-75376122D01*
X212828569Y-75376121D01*
X212822389Y-75374326D01*
X212809738Y-75373330D01*
X212788938Y-75371693D01*
X212788925Y-75371692D01*
X212786479Y-75371500D01*
X212185365Y-75371500D01*
X211583522Y-75371501D01*
X211575734Y-75372114D01*
X211554026Y-75373821D01*
X211554023Y-75373822D01*
X211547611Y-75374326D01*
X211478173Y-75394500D01*
X211401521Y-75416770D01*
X211393907Y-75418982D01*
X211337217Y-75452508D01*
X211292499Y-75478954D01*
X211228360Y-75496500D01*
X210447204Y-75496500D01*
X210379083Y-75476498D01*
X210353568Y-75454811D01*
X210345668Y-75446037D01*
X210345666Y-75446036D01*
X210341253Y-75441134D01*
X210277067Y-75394500D01*
X210192094Y-75332763D01*
X210192093Y-75332762D01*
X210186752Y-75328882D01*
X210180724Y-75326198D01*
X210180722Y-75326197D01*
X210018319Y-75253891D01*
X210018318Y-75253891D01*
X210012288Y-75251206D01*
X209918887Y-75231353D01*
X209831944Y-75212872D01*
X209831939Y-75212872D01*
X209825487Y-75211500D01*
X209634513Y-75211500D01*
X209628061Y-75212872D01*
X209628056Y-75212872D01*
X209541113Y-75231353D01*
X209447712Y-75251206D01*
X209441682Y-75253891D01*
X209441681Y-75253891D01*
X209279278Y-75326197D01*
X209279276Y-75326198D01*
X209273248Y-75328882D01*
X209118747Y-75441134D01*
X209114326Y-75446044D01*
X209114325Y-75446045D01*
X209005285Y-75567147D01*
X208990960Y-75583056D01*
X208895473Y-75748444D01*
X208836458Y-75930072D01*
X208816496Y-76120000D01*
X208817186Y-76126565D01*
X208833046Y-76277460D01*
X208836458Y-76309928D01*
X208895473Y-76491556D01*
X208898776Y-76497278D01*
X208898777Y-76497279D01*
X208929861Y-76551118D01*
X208990960Y-76656944D01*
X208995378Y-76661851D01*
X208995379Y-76661852D01*
X209051149Y-76723791D01*
X209118747Y-76798866D01*
X209155949Y-76825895D01*
X209247034Y-76892072D01*
X209273248Y-76911118D01*
X209279276Y-76913802D01*
X209279278Y-76913803D01*
X209360338Y-76949893D01*
X209414434Y-76995873D01*
X209435083Y-77063801D01*
X209415731Y-77132109D01*
X209360338Y-77180107D01*
X209279278Y-77216197D01*
X209279276Y-77216198D01*
X209273248Y-77218882D01*
X209118747Y-77331134D01*
X209114326Y-77336044D01*
X209114325Y-77336045D01*
X209005302Y-77457128D01*
X208990960Y-77473056D01*
X208974904Y-77500866D01*
X208908133Y-77616517D01*
X208895473Y-77638444D01*
X208836458Y-77820072D01*
X208816496Y-78010000D01*
X208817186Y-78016565D01*
X208832179Y-78159211D01*
X208836458Y-78199928D01*
X208895473Y-78381556D01*
X208898776Y-78387278D01*
X208898777Y-78387279D01*
X208901943Y-78392763D01*
X208990960Y-78546944D01*
X208995378Y-78551851D01*
X208995379Y-78551852D01*
X209077778Y-78643365D01*
X209118747Y-78688866D01*
X209208360Y-78753974D01*
X209265125Y-78795216D01*
X209273248Y-78801118D01*
X209279276Y-78803802D01*
X209279278Y-78803803D01*
X209439085Y-78874953D01*
X209447712Y-78878794D01*
X209541112Y-78898647D01*
X209628056Y-78917128D01*
X209628061Y-78917128D01*
X209634513Y-78918500D01*
X209825487Y-78918500D01*
X209831939Y-78917128D01*
X209831944Y-78917128D01*
X209918887Y-78898647D01*
X210012288Y-78878794D01*
X210020915Y-78874953D01*
X210180722Y-78803803D01*
X210180724Y-78803802D01*
X210186752Y-78801118D01*
X210194876Y-78795216D01*
X210274226Y-78737564D01*
X210341093Y-78713706D01*
X210348287Y-78713500D01*
X211228360Y-78713500D01*
X211292499Y-78731046D01*
X211393907Y-78791018D01*
X211401517Y-78793229D01*
X211541428Y-78833878D01*
X211541431Y-78833879D01*
X211547611Y-78835674D01*
X211560262Y-78836670D01*
X211581062Y-78838307D01*
X211581075Y-78838308D01*
X211583521Y-78838500D01*
X212184635Y-78838500D01*
X212786478Y-78838499D01*
X212794266Y-78837886D01*
X212815974Y-78836179D01*
X212815977Y-78836178D01*
X212822389Y-78835674D01*
X212951290Y-78798224D01*
X212968483Y-78793229D01*
X212976093Y-78791018D01*
X213038874Y-78753890D01*
X213107043Y-78713576D01*
X213107047Y-78713573D01*
X213113863Y-78709542D01*
X213227042Y-78596363D01*
X213227450Y-78596771D01*
X213280498Y-78558462D01*
X213351390Y-78554612D01*
X213413110Y-78589700D01*
X213415969Y-78592999D01*
X213417958Y-78596363D01*
X213531137Y-78709542D01*
X213537953Y-78713573D01*
X213537957Y-78713576D01*
X213606126Y-78753890D01*
X213668907Y-78791018D01*
X213676517Y-78793229D01*
X213816428Y-78833878D01*
X213816431Y-78833879D01*
X213822611Y-78835674D01*
X213835262Y-78836670D01*
X213856062Y-78838307D01*
X213856075Y-78838308D01*
X213858521Y-78838500D01*
X214459635Y-78838500D01*
X215061478Y-78838499D01*
X215069266Y-78837886D01*
X215090974Y-78836179D01*
X215090977Y-78836178D01*
X215097389Y-78835674D01*
X215226290Y-78798224D01*
X215243483Y-78793229D01*
X215251093Y-78791018D01*
X215352501Y-78731046D01*
X215416640Y-78713500D01*
X215934936Y-78713500D01*
X216003057Y-78733502D01*
X216049550Y-78787158D01*
X216059654Y-78857432D01*
X216030160Y-78922012D01*
X215970434Y-78960396D01*
X215964632Y-78961872D01*
X215958833Y-78962474D01*
X215952291Y-78964657D01*
X215952289Y-78964657D01*
X215797998Y-79016133D01*
X215797996Y-79016134D01*
X215791054Y-79018450D01*
X215640651Y-79111521D01*
X215515694Y-79236697D01*
X215492425Y-79274447D01*
X215434760Y-79367997D01*
X215422885Y-79387261D01*
X215404099Y-79443900D01*
X215370238Y-79545989D01*
X215367203Y-79555138D01*
X215356500Y-79659599D01*
X215356501Y-80660400D01*
X215367474Y-80766167D01*
X215370754Y-80775998D01*
X215417630Y-80916500D01*
X215423450Y-80933946D01*
X215516521Y-81084349D01*
X215641697Y-81209306D01*
X215792261Y-81302115D01*
X215872004Y-81328564D01*
X215953610Y-81355632D01*
X215953612Y-81355632D01*
X215960138Y-81357797D01*
X215966974Y-81358497D01*
X215966977Y-81358498D01*
X216010030Y-81362909D01*
X216064599Y-81368500D01*
X216782440Y-81368500D01*
X216844772Y-81384998D01*
X216947066Y-81443227D01*
X217171753Y-81524784D01*
X217177002Y-81525733D01*
X217177005Y-81525734D01*
X217402885Y-81566580D01*
X217402893Y-81566581D01*
X217406969Y-81567318D01*
X217425359Y-81568185D01*
X217430544Y-81568430D01*
X217430551Y-81568430D01*
X217432032Y-81568500D01*
X219924390Y-81568500D01*
X219992511Y-81588502D01*
X220013485Y-81605405D01*
X220054485Y-81646405D01*
X220088511Y-81708717D01*
X220083446Y-81779532D01*
X220040899Y-81836368D01*
X219974379Y-81861179D01*
X219965390Y-81861500D01*
X217826866Y-81861500D01*
X217764684Y-81868255D01*
X217628295Y-81919385D01*
X217511739Y-82006739D01*
X217424385Y-82123295D01*
X217421233Y-82131703D01*
X217375112Y-82254730D01*
X217332470Y-82311494D01*
X217265909Y-82336194D01*
X217257130Y-82336500D01*
X216797296Y-82336500D01*
X216733157Y-82318953D01*
X216732855Y-82318774D01*
X216601101Y-82240855D01*
X216593490Y-82238644D01*
X216593488Y-82238643D01*
X216541269Y-82223472D01*
X216441331Y-82194438D01*
X216434926Y-82193934D01*
X216434921Y-82193933D01*
X216406458Y-82191693D01*
X216406450Y-82191693D01*
X216404002Y-82191500D01*
X215247000Y-82191500D01*
X215178879Y-82171498D01*
X215132386Y-82117842D01*
X215121000Y-82065500D01*
X215121000Y-81833498D01*
X215119784Y-81818044D01*
X215118567Y-81802579D01*
X215118566Y-81802574D01*
X215118062Y-81796169D01*
X215089028Y-81696231D01*
X215073857Y-81644012D01*
X215073856Y-81644010D01*
X215071645Y-81636399D01*
X215030354Y-81566580D01*
X214990991Y-81500020D01*
X214990989Y-81500017D01*
X214986953Y-81493193D01*
X214869307Y-81375547D01*
X214862483Y-81371511D01*
X214862480Y-81371509D01*
X214749036Y-81304419D01*
X214726101Y-81290855D01*
X214718490Y-81288644D01*
X214718488Y-81288643D01*
X214648386Y-81268277D01*
X214566331Y-81244438D01*
X214559926Y-81243934D01*
X214559921Y-81243933D01*
X214531458Y-81241693D01*
X214531450Y-81241693D01*
X214529002Y-81241500D01*
X213220998Y-81241500D01*
X213218550Y-81241693D01*
X213218542Y-81241693D01*
X213190079Y-81243933D01*
X213190074Y-81243934D01*
X213183669Y-81244438D01*
X213101614Y-81268277D01*
X213031512Y-81288643D01*
X213031510Y-81288644D01*
X213023899Y-81290855D01*
X213000964Y-81304419D01*
X212883388Y-81373953D01*
X212819249Y-81391500D01*
X212761781Y-81391500D01*
X212693660Y-81371498D01*
X212654637Y-81331803D01*
X212601685Y-81246233D01*
X212573478Y-81200652D01*
X212448303Y-81075695D01*
X212387242Y-81038056D01*
X212303968Y-80986725D01*
X212303966Y-80986724D01*
X212297738Y-80982885D01*
X212212461Y-80954600D01*
X212136389Y-80929368D01*
X212136387Y-80929368D01*
X212129861Y-80927203D01*
X212123025Y-80926503D01*
X212123022Y-80926502D01*
X212079969Y-80922091D01*
X212025400Y-80916500D01*
X211024600Y-80916500D01*
X211021354Y-80916837D01*
X211021350Y-80916837D01*
X210925692Y-80926762D01*
X210925688Y-80926763D01*
X210918834Y-80927474D01*
X210912298Y-80929655D01*
X210912296Y-80929655D01*
X210807560Y-80964598D01*
X210751054Y-80983450D01*
X210600652Y-81076522D01*
X210475695Y-81201697D01*
X210471855Y-81207927D01*
X210471854Y-81207928D01*
X210418249Y-81294892D01*
X210382885Y-81352262D01*
X210369826Y-81391635D01*
X210336141Y-81493193D01*
X210327203Y-81520139D01*
X210316500Y-81624600D01*
X210316500Y-82425400D01*
X210316837Y-82428646D01*
X210316837Y-82428650D01*
X210326473Y-82521517D01*
X210327474Y-82531166D01*
X210329655Y-82537702D01*
X210329655Y-82537704D01*
X210349393Y-82596865D01*
X210383450Y-82698946D01*
X210476522Y-82849348D01*
X210559477Y-82932158D01*
X210563109Y-82935784D01*
X210597188Y-82998066D01*
X210592185Y-83068886D01*
X210563264Y-83113975D01*
X210535787Y-83141500D01*
X210475695Y-83201697D01*
X210471855Y-83207927D01*
X210471854Y-83207928D01*
X210395880Y-83331181D01*
X210382885Y-83352262D01*
X210376593Y-83371233D01*
X210332930Y-83502874D01*
X210327203Y-83520139D01*
X210316500Y-83624600D01*
X210316500Y-84425400D01*
X210316837Y-84428646D01*
X210316837Y-84428650D01*
X210326473Y-84521517D01*
X210327474Y-84531166D01*
X210329655Y-84537702D01*
X210329655Y-84537704D01*
X210347152Y-84590149D01*
X210383450Y-84698946D01*
X210476522Y-84849348D01*
X210601697Y-84974305D01*
X210690755Y-85029201D01*
X210706616Y-85038978D01*
X210754109Y-85091750D01*
X210766500Y-85146238D01*
X210766500Y-88438219D01*
X210746498Y-88506340D01*
X210706803Y-88545363D01*
X210575652Y-88626522D01*
X210491204Y-88711118D01*
X210489216Y-88713109D01*
X210426934Y-88747188D01*
X210356114Y-88742185D01*
X210311025Y-88713264D01*
X210228483Y-88630866D01*
X210223303Y-88625695D01*
X210190672Y-88605581D01*
X210078968Y-88536725D01*
X210078966Y-88536724D01*
X210072738Y-88532885D01*
X209956410Y-88494301D01*
X209911389Y-88479368D01*
X209911387Y-88479368D01*
X209904861Y-88477203D01*
X209898025Y-88476503D01*
X209898022Y-88476502D01*
X209854969Y-88472091D01*
X209800400Y-88466500D01*
X208999600Y-88466500D01*
X208996354Y-88466837D01*
X208996350Y-88466837D01*
X208900692Y-88476762D01*
X208900688Y-88476763D01*
X208893834Y-88477474D01*
X208887298Y-88479655D01*
X208887296Y-88479655D01*
X208784029Y-88514108D01*
X208726054Y-88533450D01*
X208575652Y-88626522D01*
X208481967Y-88720371D01*
X208419686Y-88754449D01*
X208348866Y-88749446D01*
X208341545Y-88746458D01*
X208313323Y-88733892D01*
X208313315Y-88733889D01*
X208307288Y-88731206D01*
X208212782Y-88711118D01*
X208126944Y-88692872D01*
X208126939Y-88692872D01*
X208120487Y-88691500D01*
X207929513Y-88691500D01*
X207923061Y-88692872D01*
X207923056Y-88692872D01*
X207837218Y-88711118D01*
X207742712Y-88731206D01*
X207736682Y-88733891D01*
X207736681Y-88733891D01*
X207574278Y-88806197D01*
X207574276Y-88806198D01*
X207568248Y-88808882D01*
X207562907Y-88812762D01*
X207562906Y-88812763D01*
X207541246Y-88828500D01*
X207413747Y-88921134D01*
X207409326Y-88926044D01*
X207409325Y-88926045D01*
X207356028Y-88985238D01*
X207285960Y-89063056D01*
X207190473Y-89228444D01*
X207188431Y-89234729D01*
X207186967Y-89238017D01*
X207140987Y-89292112D01*
X207073060Y-89312762D01*
X207004752Y-89293410D01*
X206997800Y-89288705D01*
X206978843Y-89274932D01*
X206956752Y-89258882D01*
X206950724Y-89256198D01*
X206950722Y-89256197D01*
X206788319Y-89183891D01*
X206788318Y-89183891D01*
X206782288Y-89181206D01*
X206681741Y-89159834D01*
X206601944Y-89142872D01*
X206601939Y-89142872D01*
X206595487Y-89141500D01*
X206475038Y-89141500D01*
X206406917Y-89121498D01*
X206360424Y-89067842D01*
X206355514Y-89055376D01*
X206331368Y-88983002D01*
X206329050Y-88976054D01*
X206235978Y-88825652D01*
X206110803Y-88700695D01*
X206091436Y-88688757D01*
X205966468Y-88611725D01*
X205966466Y-88611724D01*
X205960238Y-88607885D01*
X205880495Y-88581436D01*
X205798889Y-88554368D01*
X205798887Y-88554368D01*
X205792361Y-88552203D01*
X205785525Y-88551503D01*
X205785522Y-88551502D01*
X205737246Y-88546556D01*
X205687900Y-88541500D01*
X204912100Y-88541500D01*
X204908854Y-88541837D01*
X204908850Y-88541837D01*
X204813192Y-88551762D01*
X204813188Y-88551763D01*
X204806334Y-88552474D01*
X204799798Y-88554655D01*
X204799796Y-88554655D01*
X204682001Y-88593955D01*
X204638554Y-88608450D01*
X204488152Y-88701522D01*
X204363195Y-88826697D01*
X204360594Y-88830916D01*
X204303470Y-88871417D01*
X204232547Y-88874649D01*
X204171135Y-88839024D01*
X204164578Y-88831470D01*
X204160978Y-88825652D01*
X204035803Y-88700695D01*
X203918383Y-88628316D01*
X203870891Y-88575545D01*
X203858500Y-88521057D01*
X203858500Y-88510144D01*
X203857995Y-88506144D01*
X203857062Y-88494301D01*
X203856793Y-88485724D01*
X203855673Y-88450110D01*
X203850022Y-88430658D01*
X203846014Y-88411306D01*
X203844467Y-88399063D01*
X203843474Y-88391203D01*
X203840556Y-88383832D01*
X203827200Y-88350097D01*
X203823355Y-88338870D01*
X203822721Y-88336687D01*
X203811018Y-88296407D01*
X203800707Y-88278972D01*
X203792012Y-88261224D01*
X203784552Y-88242383D01*
X203779893Y-88235970D01*
X203778397Y-88233249D01*
X203763486Y-88175170D01*
X203763504Y-88175000D01*
X203743542Y-87985072D01*
X203713681Y-87893169D01*
X203711654Y-87822201D01*
X203748316Y-87761404D01*
X203807317Y-87730987D01*
X203975822Y-87695169D01*
X203975827Y-87695167D01*
X203982288Y-87693794D01*
X204009874Y-87681512D01*
X204150722Y-87618803D01*
X204150724Y-87618802D01*
X204156752Y-87616118D01*
X204170076Y-87606438D01*
X204264932Y-87537520D01*
X204311253Y-87503866D01*
X204315675Y-87498955D01*
X204434621Y-87366852D01*
X204434622Y-87366851D01*
X204439040Y-87361944D01*
X204499119Y-87257885D01*
X204531223Y-87202279D01*
X204531224Y-87202278D01*
X204534527Y-87196556D01*
X204593542Y-87014928D01*
X204596203Y-86989615D01*
X204612814Y-86831565D01*
X204613504Y-86825000D01*
X204612179Y-86812394D01*
X204610134Y-86792933D01*
X204617852Y-86736594D01*
X204618695Y-86735060D01*
X204623732Y-86715442D01*
X204630138Y-86696730D01*
X204632209Y-86691946D01*
X204638181Y-86678145D01*
X204645097Y-86634481D01*
X204647504Y-86622860D01*
X204656528Y-86587711D01*
X204656528Y-86587710D01*
X204658500Y-86580030D01*
X204658500Y-86559769D01*
X204660051Y-86540058D01*
X204661979Y-86527886D01*
X204663219Y-86520057D01*
X204663219Y-86520056D01*
X204663404Y-86520085D01*
X204684230Y-86456603D01*
X204739318Y-86411817D01*
X204748160Y-86408494D01*
X204792002Y-86393867D01*
X204792004Y-86393866D01*
X204798946Y-86391550D01*
X204838433Y-86367115D01*
X204943120Y-86302332D01*
X204949348Y-86298478D01*
X205074305Y-86173303D01*
X205078740Y-86166109D01*
X205106385Y-86121260D01*
X205137942Y-86070065D01*
X205190713Y-86022573D01*
X205260785Y-86011149D01*
X205325909Y-86039423D01*
X205352345Y-86069878D01*
X205401522Y-86149348D01*
X205526697Y-86274305D01*
X205532927Y-86278145D01*
X205532928Y-86278146D01*
X205651278Y-86351098D01*
X205677262Y-86367115D01*
X205739318Y-86387698D01*
X205838611Y-86420632D01*
X205838613Y-86420632D01*
X205845139Y-86422797D01*
X205851975Y-86423497D01*
X205851978Y-86423498D01*
X205894603Y-86427865D01*
X205949600Y-86433500D01*
X206560406Y-86433500D01*
X206628527Y-86453502D01*
X206649501Y-86470405D01*
X206652878Y-86473782D01*
X206686904Y-86536094D01*
X206689092Y-86549703D01*
X206691675Y-86574276D01*
X206704043Y-86691946D01*
X206706458Y-86714928D01*
X206765473Y-86896556D01*
X206860960Y-87061944D01*
X206865378Y-87066851D01*
X206865379Y-87066852D01*
X206979179Y-87193240D01*
X206988747Y-87203866D01*
X207143248Y-87316118D01*
X207149276Y-87318802D01*
X207149278Y-87318803D01*
X207311681Y-87391109D01*
X207317712Y-87393794D01*
X207389293Y-87409009D01*
X207498056Y-87432128D01*
X207498061Y-87432128D01*
X207504513Y-87433500D01*
X207695487Y-87433500D01*
X207701939Y-87432128D01*
X207701944Y-87432128D01*
X207810707Y-87409009D01*
X207882288Y-87393794D01*
X207888319Y-87391109D01*
X208050722Y-87318803D01*
X208050724Y-87318802D01*
X208056752Y-87316118D01*
X208211253Y-87203866D01*
X208220821Y-87193240D01*
X208334621Y-87066852D01*
X208334622Y-87066851D01*
X208339040Y-87061944D01*
X208434527Y-86896556D01*
X208493542Y-86714928D01*
X208495958Y-86691946D01*
X208512814Y-86531565D01*
X208513504Y-86525000D01*
X208505983Y-86453444D01*
X208494232Y-86341635D01*
X208494232Y-86341633D01*
X208493542Y-86335072D01*
X208434527Y-86153444D01*
X208428567Y-86143120D01*
X208359761Y-86023946D01*
X208339040Y-85988056D01*
X208326344Y-85973955D01*
X208215675Y-85851045D01*
X208215674Y-85851044D01*
X208211253Y-85846134D01*
X208109796Y-85772421D01*
X208062094Y-85737763D01*
X208062093Y-85737762D01*
X208056752Y-85733882D01*
X208050724Y-85731198D01*
X208050722Y-85731197D01*
X207888319Y-85658891D01*
X207888318Y-85658891D01*
X207882288Y-85656206D01*
X207758303Y-85629852D01*
X207695830Y-85596123D01*
X207661508Y-85533974D01*
X207658500Y-85506605D01*
X207658500Y-84974600D01*
X207657803Y-84967885D01*
X207648238Y-84875692D01*
X207648237Y-84875688D01*
X207647526Y-84868834D01*
X207642405Y-84853483D01*
X207593868Y-84708002D01*
X207591550Y-84701054D01*
X207498478Y-84550652D01*
X207373303Y-84425695D01*
X207369084Y-84423094D01*
X207328583Y-84365970D01*
X207325351Y-84295047D01*
X207360976Y-84233635D01*
X207368530Y-84227078D01*
X207374348Y-84223478D01*
X207499305Y-84098303D01*
X207517386Y-84068971D01*
X207588275Y-83953968D01*
X207588276Y-83953966D01*
X207592115Y-83947738D01*
X207635497Y-83816944D01*
X207645632Y-83786389D01*
X207645632Y-83786387D01*
X207647797Y-83779861D01*
X207658500Y-83675400D01*
X207658500Y-82924600D01*
X207657476Y-82914729D01*
X207648238Y-82825692D01*
X207648237Y-82825688D01*
X207647526Y-82818834D01*
X207645032Y-82811357D01*
X207593868Y-82658002D01*
X207591550Y-82651054D01*
X207498478Y-82500652D01*
X207373303Y-82375695D01*
X207367072Y-82371854D01*
X207228968Y-82286725D01*
X207228966Y-82286724D01*
X207222738Y-82282885D01*
X207108192Y-82244892D01*
X207061389Y-82229368D01*
X207061387Y-82229368D01*
X207054861Y-82227203D01*
X207048025Y-82226503D01*
X207048022Y-82226502D01*
X206998087Y-82221386D01*
X206950400Y-82216500D01*
X205949600Y-82216500D01*
X205946354Y-82216837D01*
X205946350Y-82216837D01*
X205850692Y-82226762D01*
X205850688Y-82226763D01*
X205843834Y-82227474D01*
X205837298Y-82229655D01*
X205837296Y-82229655D01*
X205763223Y-82254368D01*
X205676054Y-82283450D01*
X205525652Y-82376522D01*
X205400695Y-82501697D01*
X205396855Y-82507927D01*
X205396854Y-82507928D01*
X205388478Y-82521517D01*
X205341795Y-82597251D01*
X205337059Y-82604934D01*
X205284287Y-82652427D01*
X205214215Y-82663851D01*
X205149091Y-82635577D01*
X205122655Y-82605121D01*
X205077332Y-82531880D01*
X205073478Y-82525652D01*
X204948303Y-82400695D01*
X204921845Y-82384386D01*
X204803968Y-82311725D01*
X204803966Y-82311724D01*
X204797738Y-82307885D01*
X204706847Y-82277738D01*
X204636389Y-82254368D01*
X204636387Y-82254368D01*
X204629861Y-82252203D01*
X204623025Y-82251503D01*
X204623022Y-82251502D01*
X204579969Y-82247091D01*
X204525400Y-82241500D01*
X203524600Y-82241500D01*
X203521354Y-82241837D01*
X203521350Y-82241837D01*
X203425692Y-82251762D01*
X203425688Y-82251763D01*
X203418834Y-82252474D01*
X203412298Y-82254655D01*
X203412296Y-82254655D01*
X203314430Y-82287306D01*
X203251054Y-82308450D01*
X203100652Y-82401522D01*
X202975695Y-82526697D01*
X202971855Y-82532927D01*
X202971854Y-82532928D01*
X202889436Y-82666635D01*
X202882885Y-82677262D01*
X202869246Y-82718384D01*
X202839142Y-82809145D01*
X202827203Y-82845139D01*
X202826503Y-82851975D01*
X202826502Y-82851978D01*
X202823785Y-82878502D01*
X202816500Y-82949600D01*
X202816500Y-83750400D01*
X202816837Y-83753646D01*
X202816837Y-83753650D01*
X202824104Y-83823682D01*
X202827474Y-83856166D01*
X202829655Y-83862702D01*
X202829655Y-83862704D01*
X202861783Y-83959002D01*
X202883450Y-84023946D01*
X202976522Y-84174348D01*
X203062332Y-84260008D01*
X203063109Y-84260784D01*
X203097188Y-84323066D01*
X203092185Y-84393886D01*
X203063264Y-84438975D01*
X203050060Y-84452202D01*
X202975695Y-84526697D01*
X202971855Y-84532927D01*
X202971854Y-84532928D01*
X202900389Y-84648866D01*
X202882885Y-84677262D01*
X202858868Y-84749672D01*
X202831978Y-84830744D01*
X202827203Y-84845139D01*
X202826503Y-84851975D01*
X202826502Y-84851978D01*
X202823925Y-84877128D01*
X202816500Y-84949600D01*
X202816500Y-85750400D01*
X202816837Y-85753646D01*
X202816837Y-85753650D01*
X202826040Y-85842344D01*
X202827474Y-85856166D01*
X202829655Y-85862702D01*
X202829655Y-85862704D01*
X202856625Y-85943542D01*
X202883450Y-86023946D01*
X202963244Y-86152891D01*
X202982082Y-86221343D01*
X202959966Y-86287482D01*
X202960960Y-86288056D01*
X202957659Y-86293774D01*
X202957658Y-86293775D01*
X202874155Y-86438407D01*
X202865473Y-86453444D01*
X202806458Y-86635072D01*
X202805768Y-86641633D01*
X202805768Y-86641635D01*
X202799021Y-86705833D01*
X202786496Y-86825000D01*
X202787186Y-86831565D01*
X202803798Y-86989615D01*
X202806458Y-87014928D01*
X202808498Y-87021206D01*
X202836319Y-87106831D01*
X202838346Y-87177799D01*
X202801684Y-87238596D01*
X202742683Y-87269013D01*
X202574178Y-87304831D01*
X202574173Y-87304833D01*
X202567712Y-87306206D01*
X202561682Y-87308891D01*
X202561681Y-87308891D01*
X202399278Y-87381197D01*
X202399276Y-87381198D01*
X202393248Y-87383882D01*
X202387907Y-87387762D01*
X202387906Y-87387763D01*
X202383301Y-87391109D01*
X202238747Y-87496134D01*
X202234326Y-87501044D01*
X202234325Y-87501045D01*
X202134208Y-87612237D01*
X202110960Y-87638056D01*
X202103881Y-87650317D01*
X202025039Y-87786876D01*
X202015473Y-87803444D01*
X201956458Y-87985072D01*
X201936496Y-88175000D01*
X201937186Y-88181565D01*
X201951866Y-88321233D01*
X201956458Y-88364928D01*
X202015473Y-88546556D01*
X202110960Y-88711944D01*
X202115378Y-88716851D01*
X202115379Y-88716852D01*
X202195029Y-88805312D01*
X202225746Y-88869319D01*
X202216982Y-88939773D01*
X202208654Y-88955735D01*
X202195385Y-88977262D01*
X202193079Y-88984213D01*
X202193079Y-88984214D01*
X202144393Y-89131000D01*
X202139703Y-89145139D01*
X202139003Y-89151975D01*
X202139002Y-89151978D01*
X202136008Y-89181206D01*
X202129000Y-89249600D01*
X202129000Y-90300400D01*
X202129337Y-90303646D01*
X202129337Y-90303650D01*
X202138413Y-90391118D01*
X202139974Y-90406166D01*
X202142155Y-90412702D01*
X202142155Y-90412704D01*
X202168316Y-90491118D01*
X202195950Y-90573946D01*
X202289022Y-90724348D01*
X202414197Y-90849305D01*
X202531617Y-90921684D01*
X202579109Y-90974455D01*
X202591500Y-91028943D01*
X202591500Y-91151870D01*
X202571498Y-91219991D01*
X202517842Y-91266484D01*
X202481945Y-91276792D01*
X202459870Y-91279698D01*
X202449338Y-91281084D01*
X202449337Y-91281084D01*
X202441150Y-91282162D01*
X202367137Y-91312819D01*
X202300752Y-91340316D01*
X202300750Y-91340317D01*
X202293124Y-91343476D01*
X202286574Y-91348502D01*
X202218100Y-91401045D01*
X202166013Y-91441013D01*
X202160987Y-91447563D01*
X202160984Y-91447566D01*
X202123785Y-91496045D01*
X202068476Y-91568125D01*
X202007162Y-91716150D01*
X202006084Y-91724337D01*
X202006084Y-91724338D01*
X202000516Y-91766635D01*
X201991500Y-91835115D01*
X201991501Y-92114884D01*
X201992039Y-92118969D01*
X201992039Y-92118973D01*
X201999621Y-92176565D01*
X202007162Y-92233850D01*
X202014589Y-92251780D01*
X202022179Y-92322370D01*
X202014589Y-92348220D01*
X202010322Y-92358520D01*
X202010321Y-92358523D01*
X202007162Y-92366150D01*
X202006084Y-92374337D01*
X202006084Y-92374338D01*
X201994551Y-92461944D01*
X201991500Y-92485115D01*
X201991501Y-92764884D01*
X201992039Y-92768969D01*
X201992039Y-92768973D01*
X202003644Y-92857128D01*
X202007162Y-92883850D01*
X202014589Y-92901780D01*
X202022179Y-92972370D01*
X202014589Y-92998220D01*
X202010322Y-93008520D01*
X202010321Y-93008523D01*
X202007162Y-93016150D01*
X202006084Y-93024339D01*
X201997736Y-93087747D01*
X201969013Y-93152675D01*
X201909748Y-93191766D01*
X201838757Y-93192611D01*
X201778578Y-93154941D01*
X201753290Y-93111177D01*
X201724319Y-93024339D01*
X201716550Y-93001054D01*
X201623478Y-92850652D01*
X201611122Y-92838317D01*
X201556549Y-92783839D01*
X201498303Y-92725695D01*
X201492072Y-92721854D01*
X201420018Y-92677439D01*
X201372524Y-92624666D01*
X201361101Y-92554595D01*
X201392496Y-92485871D01*
X201414040Y-92461944D01*
X201509527Y-92296556D01*
X201568542Y-92114928D01*
X201588504Y-91925000D01*
X201572176Y-91769650D01*
X201569232Y-91741635D01*
X201569232Y-91741633D01*
X201568542Y-91735072D01*
X201509527Y-91553444D01*
X201484202Y-91509579D01*
X201441711Y-91435984D01*
X201414040Y-91388056D01*
X201405819Y-91378925D01*
X201290675Y-91251045D01*
X201290674Y-91251044D01*
X201286253Y-91246134D01*
X201235437Y-91209214D01*
X201192085Y-91152992D01*
X201183500Y-91107279D01*
X201183500Y-91017160D01*
X201201047Y-90953021D01*
X201235108Y-90895427D01*
X201239145Y-90888601D01*
X201242170Y-90878191D01*
X201259913Y-90817115D01*
X201285562Y-90728831D01*
X201286299Y-90719475D01*
X201288307Y-90693958D01*
X201288307Y-90693950D01*
X201288500Y-90691502D01*
X201288500Y-88908498D01*
X201285562Y-88871169D01*
X201249543Y-88747188D01*
X201241357Y-88719012D01*
X201241356Y-88719010D01*
X201239145Y-88711399D01*
X201195519Y-88637631D01*
X201158491Y-88575020D01*
X201158489Y-88575017D01*
X201154453Y-88568193D01*
X201036807Y-88450547D01*
X201029983Y-88446511D01*
X201029980Y-88446509D01*
X200900427Y-88369892D01*
X200900428Y-88369892D01*
X200893601Y-88365855D01*
X200885990Y-88363644D01*
X200885988Y-88363643D01*
X200800717Y-88338870D01*
X200733831Y-88319438D01*
X200727426Y-88318934D01*
X200727421Y-88318933D01*
X200698958Y-88316693D01*
X200698950Y-88316693D01*
X200696502Y-88316500D01*
X200263498Y-88316500D01*
X200261050Y-88316693D01*
X200261042Y-88316693D01*
X200232579Y-88318933D01*
X200232574Y-88318934D01*
X200226169Y-88319438D01*
X200159283Y-88338870D01*
X200074012Y-88363643D01*
X200074010Y-88363644D01*
X200066399Y-88365855D01*
X199923193Y-88450547D01*
X199920511Y-88453229D01*
X199856139Y-88478502D01*
X199786516Y-88464600D01*
X199770688Y-88454428D01*
X199766807Y-88450547D01*
X199623601Y-88365855D01*
X199615990Y-88363644D01*
X199615988Y-88363643D01*
X199530717Y-88338870D01*
X199463831Y-88319438D01*
X199457426Y-88318934D01*
X199457421Y-88318933D01*
X199428958Y-88316693D01*
X199428950Y-88316693D01*
X199426502Y-88316500D01*
X198993498Y-88316500D01*
X198991050Y-88316693D01*
X198991042Y-88316693D01*
X198962579Y-88318933D01*
X198962574Y-88318934D01*
X198956169Y-88319438D01*
X198889283Y-88338870D01*
X198804012Y-88363643D01*
X198804010Y-88363644D01*
X198796399Y-88365855D01*
X198653193Y-88450547D01*
X198650511Y-88453229D01*
X198586139Y-88478502D01*
X198516516Y-88464600D01*
X198500688Y-88454428D01*
X198496807Y-88450547D01*
X198353601Y-88365855D01*
X198345990Y-88363644D01*
X198345988Y-88363643D01*
X198260717Y-88338870D01*
X198193831Y-88319438D01*
X198187426Y-88318934D01*
X198187421Y-88318933D01*
X198158958Y-88316693D01*
X198158950Y-88316693D01*
X198156502Y-88316500D01*
X197723498Y-88316500D01*
X197721050Y-88316693D01*
X197721042Y-88316693D01*
X197692579Y-88318933D01*
X197692574Y-88318934D01*
X197686169Y-88319438D01*
X197619283Y-88338870D01*
X197534012Y-88363643D01*
X197534010Y-88363644D01*
X197526399Y-88365855D01*
X197383193Y-88450547D01*
X197380511Y-88453229D01*
X197316139Y-88478502D01*
X197246516Y-88464600D01*
X197230688Y-88454428D01*
X197226807Y-88450547D01*
X197083601Y-88365855D01*
X197075990Y-88363644D01*
X197075988Y-88363643D01*
X196990717Y-88338870D01*
X196923831Y-88319438D01*
X196917426Y-88318934D01*
X196917421Y-88318933D01*
X196888958Y-88316693D01*
X196888950Y-88316693D01*
X196886502Y-88316500D01*
X196453498Y-88316500D01*
X196451050Y-88316693D01*
X196451042Y-88316693D01*
X196422579Y-88318933D01*
X196422574Y-88318934D01*
X196416169Y-88319438D01*
X196349283Y-88338870D01*
X196264012Y-88363643D01*
X196264010Y-88363644D01*
X196256399Y-88365855D01*
X196249572Y-88369892D01*
X196249573Y-88369892D01*
X196120020Y-88446509D01*
X196120017Y-88446511D01*
X196113193Y-88450547D01*
X195995547Y-88568193D01*
X195991511Y-88575017D01*
X195991509Y-88575020D01*
X195954481Y-88637631D01*
X195910855Y-88711399D01*
X195908644Y-88719010D01*
X195908643Y-88719012D01*
X195900457Y-88747188D01*
X195864438Y-88871169D01*
X195861500Y-88908498D01*
X195861500Y-90691502D01*
X195861693Y-90693950D01*
X195861693Y-90693958D01*
X195863702Y-90719475D01*
X195864438Y-90728831D01*
X195890087Y-90817115D01*
X195907831Y-90878191D01*
X195910855Y-90888601D01*
X195947656Y-90950827D01*
X195965114Y-91019641D01*
X195942597Y-91086973D01*
X195905504Y-91122108D01*
X195825652Y-91171522D01*
X195746268Y-91251045D01*
X195739216Y-91258109D01*
X195676934Y-91292188D01*
X195606114Y-91287185D01*
X195561025Y-91258264D01*
X195478483Y-91175866D01*
X195473303Y-91170695D01*
X195467072Y-91166854D01*
X195328968Y-91081725D01*
X195328966Y-91081724D01*
X195322738Y-91077885D01*
X195242995Y-91051436D01*
X195161389Y-91024368D01*
X195161387Y-91024368D01*
X195154861Y-91022203D01*
X195148025Y-91021503D01*
X195148022Y-91021502D01*
X195104969Y-91017091D01*
X195050400Y-91011500D01*
X194249600Y-91011500D01*
X194246354Y-91011837D01*
X194246350Y-91011837D01*
X194150692Y-91021762D01*
X194150688Y-91021763D01*
X194143834Y-91022474D01*
X194137298Y-91024655D01*
X194137296Y-91024655D01*
X194025645Y-91061905D01*
X193976054Y-91078450D01*
X193825652Y-91171522D01*
X193746268Y-91251045D01*
X193733391Y-91263944D01*
X193671109Y-91298023D01*
X193618021Y-91298173D01*
X193451944Y-91262872D01*
X193451939Y-91262872D01*
X193445487Y-91261500D01*
X193254513Y-91261500D01*
X193248061Y-91262872D01*
X193248056Y-91262872D01*
X193182570Y-91276792D01*
X193067712Y-91301206D01*
X193061682Y-91303891D01*
X193061681Y-91303891D01*
X192899278Y-91376197D01*
X192899276Y-91376198D01*
X192893248Y-91378882D01*
X192738747Y-91491134D01*
X192734326Y-91496044D01*
X192734325Y-91496045D01*
X192675323Y-91561574D01*
X192610960Y-91633056D01*
X192515473Y-91798444D01*
X192456458Y-91980072D01*
X192455768Y-91986633D01*
X192455768Y-91986635D01*
X192447171Y-92068435D01*
X192436496Y-92170000D01*
X175668500Y-92170000D01*
X175668500Y-82998134D01*
X178791500Y-82998134D01*
X178798255Y-83060316D01*
X178849385Y-83196705D01*
X178936739Y-83313261D01*
X179053295Y-83400615D01*
X179189684Y-83451745D01*
X179251866Y-83458500D01*
X181048134Y-83458500D01*
X181110316Y-83451745D01*
X181246705Y-83400615D01*
X181363261Y-83313261D01*
X181450615Y-83196705D01*
X181458303Y-83176197D01*
X181494598Y-83079382D01*
X181537240Y-83022618D01*
X181603802Y-82997918D01*
X181673150Y-83013126D01*
X181707817Y-83041114D01*
X181736250Y-83073938D01*
X181908126Y-83216632D01*
X182101000Y-83329338D01*
X182105825Y-83331180D01*
X182105826Y-83331181D01*
X182176605Y-83358209D01*
X182309692Y-83409030D01*
X182314760Y-83410061D01*
X182314763Y-83410062D01*
X182422017Y-83431883D01*
X182528597Y-83453567D01*
X182533772Y-83453757D01*
X182533774Y-83453757D01*
X182746673Y-83461564D01*
X182746677Y-83461564D01*
X182751837Y-83461753D01*
X182756957Y-83461097D01*
X182756959Y-83461097D01*
X182968288Y-83434025D01*
X182968289Y-83434025D01*
X182973416Y-83433368D01*
X182978366Y-83431883D01*
X183182429Y-83370661D01*
X183182434Y-83370659D01*
X183187384Y-83369174D01*
X183387994Y-83270896D01*
X183569860Y-83141173D01*
X183596912Y-83114216D01*
X183651560Y-83059758D01*
X183713932Y-83025842D01*
X183784739Y-83031030D01*
X183841500Y-83073676D01*
X183866194Y-83140240D01*
X183866500Y-83149009D01*
X183866500Y-85562550D01*
X183846498Y-85630671D01*
X183835941Y-85643771D01*
X183836011Y-85643825D01*
X183831155Y-85650085D01*
X183825547Y-85655693D01*
X183821511Y-85662517D01*
X183821509Y-85662520D01*
X183774462Y-85742073D01*
X183740855Y-85798899D01*
X183694438Y-85958669D01*
X183693934Y-85965074D01*
X183693933Y-85965079D01*
X183692511Y-85983148D01*
X183691500Y-85995998D01*
X183691500Y-87153000D01*
X183671498Y-87221121D01*
X183617842Y-87267614D01*
X183565500Y-87279000D01*
X183333498Y-87279000D01*
X183331050Y-87279193D01*
X183331042Y-87279193D01*
X183302579Y-87281433D01*
X183302574Y-87281434D01*
X183296169Y-87281938D01*
X183217370Y-87304831D01*
X183144012Y-87326143D01*
X183144010Y-87326144D01*
X183136399Y-87328355D01*
X183129572Y-87332392D01*
X183129573Y-87332392D01*
X183000020Y-87409009D01*
X183000017Y-87409011D01*
X182993193Y-87413047D01*
X182875547Y-87530693D01*
X182871511Y-87537517D01*
X182871509Y-87537520D01*
X182861332Y-87554729D01*
X182790855Y-87673899D01*
X182788644Y-87681510D01*
X182788643Y-87681512D01*
X182776359Y-87723794D01*
X182744438Y-87833669D01*
X182741500Y-87870998D01*
X182741500Y-89179002D01*
X182741693Y-89181450D01*
X182741693Y-89181458D01*
X182742190Y-89187763D01*
X182744438Y-89216331D01*
X182747784Y-89227848D01*
X182747583Y-89298842D01*
X182709031Y-89358460D01*
X182644368Y-89387771D01*
X182574122Y-89377468D01*
X182552727Y-89364939D01*
X182412094Y-89262763D01*
X182412093Y-89262762D01*
X182406752Y-89258882D01*
X182400724Y-89256198D01*
X182400722Y-89256197D01*
X182238319Y-89183891D01*
X182238318Y-89183891D01*
X182232288Y-89181206D01*
X182131741Y-89159834D01*
X182051944Y-89142872D01*
X182051939Y-89142872D01*
X182045487Y-89141500D01*
X181854513Y-89141500D01*
X181848061Y-89142872D01*
X181848056Y-89142872D01*
X181768259Y-89159834D01*
X181667712Y-89181206D01*
X181661682Y-89183891D01*
X181661681Y-89183891D01*
X181499278Y-89256197D01*
X181499276Y-89256198D01*
X181493248Y-89258882D01*
X181338747Y-89371134D01*
X181334326Y-89376044D01*
X181334325Y-89376045D01*
X181219300Y-89503794D01*
X181210960Y-89513056D01*
X181165964Y-89590991D01*
X181137097Y-89640991D01*
X181115473Y-89678444D01*
X181056458Y-89860072D01*
X181036496Y-90050000D01*
X181037186Y-90056565D01*
X181055021Y-90226252D01*
X181056458Y-90239928D01*
X181115473Y-90421556D01*
X181118776Y-90427278D01*
X181118777Y-90427279D01*
X181139215Y-90462679D01*
X181210960Y-90586944D01*
X181215378Y-90591851D01*
X181215379Y-90591852D01*
X181313278Y-90700580D01*
X181338747Y-90728866D01*
X181421744Y-90789167D01*
X181466526Y-90821703D01*
X181493248Y-90841118D01*
X181499276Y-90843802D01*
X181499278Y-90843803D01*
X181661681Y-90916109D01*
X181667712Y-90918794D01*
X181742939Y-90934784D01*
X181848056Y-90957128D01*
X181848061Y-90957128D01*
X181854513Y-90958500D01*
X182045487Y-90958500D01*
X182051939Y-90957128D01*
X182051944Y-90957128D01*
X182157061Y-90934784D01*
X182232288Y-90918794D01*
X182238319Y-90916109D01*
X182400722Y-90843803D01*
X182400724Y-90843802D01*
X182406752Y-90841118D01*
X182433475Y-90821703D01*
X182478256Y-90789167D01*
X182561253Y-90728866D01*
X182586722Y-90700580D01*
X182684621Y-90591852D01*
X182684622Y-90591851D01*
X182689040Y-90586944D01*
X182760785Y-90462679D01*
X182781223Y-90427279D01*
X182781224Y-90427278D01*
X182784527Y-90421556D01*
X182843542Y-90239928D01*
X182844980Y-90226252D01*
X182862814Y-90056565D01*
X182863504Y-90050000D01*
X182843542Y-89860072D01*
X182821246Y-89791452D01*
X182819218Y-89720488D01*
X182855880Y-89659689D01*
X182919592Y-89628364D01*
X182990126Y-89636456D01*
X183005211Y-89644061D01*
X183136399Y-89721645D01*
X183144010Y-89723856D01*
X183144012Y-89723857D01*
X183193200Y-89738147D01*
X183296169Y-89768062D01*
X183302574Y-89768566D01*
X183302579Y-89768567D01*
X183331042Y-89770807D01*
X183331050Y-89770807D01*
X183333498Y-89771000D01*
X183766502Y-89771000D01*
X183768950Y-89770807D01*
X183768958Y-89770807D01*
X183797421Y-89768567D01*
X183797426Y-89768566D01*
X183803831Y-89768062D01*
X183906800Y-89738147D01*
X183955988Y-89723857D01*
X183955990Y-89723856D01*
X183963601Y-89721645D01*
X184000201Y-89700000D01*
X184099980Y-89640991D01*
X184099983Y-89640989D01*
X184106807Y-89636953D01*
X184224453Y-89519307D01*
X184228489Y-89512483D01*
X184228491Y-89512480D01*
X184305108Y-89382927D01*
X184309145Y-89376101D01*
X184311357Y-89368488D01*
X184311358Y-89368486D01*
X184345970Y-89249348D01*
X184384183Y-89189512D01*
X184448679Y-89159834D01*
X184466967Y-89158500D01*
X184533033Y-89158500D01*
X184601154Y-89178502D01*
X184647647Y-89232158D01*
X184654030Y-89249348D01*
X184688642Y-89368486D01*
X184688643Y-89368488D01*
X184690855Y-89376101D01*
X184694892Y-89382927D01*
X184773953Y-89516612D01*
X184791500Y-89580751D01*
X184791500Y-89622476D01*
X184771498Y-89690597D01*
X184759142Y-89706779D01*
X184685960Y-89788056D01*
X184590473Y-89953444D01*
X184531458Y-90135072D01*
X184530768Y-90141633D01*
X184530768Y-90141635D01*
X184521352Y-90231226D01*
X184511496Y-90325000D01*
X184512186Y-90331565D01*
X184528972Y-90491272D01*
X184531458Y-90514928D01*
X184590473Y-90696556D01*
X184593776Y-90702278D01*
X184593777Y-90702279D01*
X184608906Y-90728483D01*
X184685960Y-90861944D01*
X184690378Y-90866851D01*
X184690379Y-90866852D01*
X184809325Y-90998955D01*
X184813747Y-91003866D01*
X184865546Y-91041500D01*
X184951385Y-91103866D01*
X184968248Y-91116118D01*
X184974276Y-91118802D01*
X184974278Y-91118803D01*
X185104327Y-91176704D01*
X185142712Y-91193794D01*
X185201106Y-91206206D01*
X185323056Y-91232128D01*
X185323061Y-91232128D01*
X185329513Y-91233500D01*
X185520487Y-91233500D01*
X185526939Y-91232128D01*
X185526944Y-91232128D01*
X185648894Y-91206206D01*
X185707288Y-91193794D01*
X185745673Y-91176704D01*
X185875722Y-91118803D01*
X185875724Y-91118802D01*
X185881752Y-91116118D01*
X185898616Y-91103866D01*
X185984454Y-91041500D01*
X186036253Y-91003866D01*
X186040675Y-90998955D01*
X186159621Y-90866852D01*
X186159622Y-90866851D01*
X186164040Y-90861944D01*
X186241094Y-90728483D01*
X186256223Y-90702279D01*
X186256224Y-90702278D01*
X186259527Y-90696556D01*
X186307186Y-90549878D01*
X186347260Y-90491272D01*
X186412656Y-90463635D01*
X186482613Y-90475742D01*
X186534919Y-90523748D01*
X186552329Y-90575643D01*
X186555185Y-90602812D01*
X186556458Y-90614928D01*
X186615473Y-90796556D01*
X186618776Y-90802278D01*
X186618777Y-90802279D01*
X186695279Y-90934784D01*
X186710960Y-90961944D01*
X186715378Y-90966851D01*
X186715379Y-90966852D01*
X186818344Y-91081206D01*
X186838747Y-91103866D01*
X186924955Y-91166500D01*
X186976056Y-91203627D01*
X186993248Y-91216118D01*
X186999276Y-91218802D01*
X186999278Y-91218803D01*
X187154166Y-91287763D01*
X187167712Y-91293794D01*
X187261112Y-91313647D01*
X187348056Y-91332128D01*
X187348061Y-91332128D01*
X187354513Y-91333500D01*
X187545487Y-91333500D01*
X187551939Y-91332128D01*
X187551944Y-91332128D01*
X187638888Y-91313647D01*
X187732288Y-91293794D01*
X187745834Y-91287763D01*
X187900722Y-91218803D01*
X187900724Y-91218802D01*
X187906752Y-91216118D01*
X187923945Y-91203627D01*
X187975045Y-91166500D01*
X188061253Y-91103866D01*
X188081656Y-91081206D01*
X188184621Y-90966852D01*
X188184622Y-90966851D01*
X188189040Y-90961944D01*
X188204721Y-90934784D01*
X188281223Y-90802279D01*
X188281224Y-90802278D01*
X188284527Y-90796556D01*
X188343542Y-90614928D01*
X188344816Y-90602812D01*
X188362814Y-90431565D01*
X188363504Y-90425000D01*
X188361553Y-90406433D01*
X188344232Y-90241635D01*
X188344232Y-90241633D01*
X188343542Y-90235072D01*
X188284527Y-90053444D01*
X188189040Y-89888056D01*
X188115863Y-89806785D01*
X188085147Y-89742779D01*
X188083500Y-89722476D01*
X188083500Y-89488478D01*
X188101047Y-89424339D01*
X188155108Y-89332927D01*
X188159145Y-89326101D01*
X188161357Y-89318488D01*
X188161358Y-89318486D01*
X188195970Y-89199348D01*
X188234183Y-89139512D01*
X188298679Y-89109834D01*
X188316967Y-89108500D01*
X188383033Y-89108500D01*
X188451154Y-89128502D01*
X188497647Y-89182158D01*
X188504030Y-89199348D01*
X188538642Y-89318486D01*
X188538643Y-89318488D01*
X188540855Y-89326101D01*
X188544892Y-89332927D01*
X188621509Y-89462480D01*
X188621511Y-89462483D01*
X188625547Y-89469307D01*
X188743193Y-89586953D01*
X188750017Y-89590989D01*
X188750020Y-89590991D01*
X188803259Y-89622476D01*
X188886399Y-89671645D01*
X188894010Y-89673856D01*
X188894012Y-89673857D01*
X188931435Y-89684729D01*
X189046169Y-89718062D01*
X189052574Y-89718566D01*
X189052579Y-89718567D01*
X189081042Y-89720807D01*
X189081050Y-89720807D01*
X189083498Y-89721000D01*
X189516502Y-89721000D01*
X189518417Y-89720849D01*
X189587197Y-89738147D01*
X189635757Y-89789939D01*
X189648593Y-89859904D01*
X189636496Y-89975000D01*
X189656458Y-90164928D01*
X189715473Y-90346556D01*
X189718776Y-90352278D01*
X189718777Y-90352279D01*
X189774588Y-90448946D01*
X189810960Y-90511944D01*
X189815378Y-90516851D01*
X189815379Y-90516852D01*
X189897778Y-90608365D01*
X189938747Y-90653866D01*
X190034318Y-90723303D01*
X190081717Y-90757740D01*
X190093248Y-90766118D01*
X190099276Y-90768802D01*
X190099278Y-90768803D01*
X190255646Y-90838422D01*
X190267712Y-90843794D01*
X190353101Y-90861944D01*
X190448056Y-90882128D01*
X190448061Y-90882128D01*
X190454513Y-90883500D01*
X190645487Y-90883500D01*
X190651939Y-90882128D01*
X190651944Y-90882128D01*
X190746899Y-90861944D01*
X190832288Y-90843794D01*
X190844354Y-90838422D01*
X191000722Y-90768803D01*
X191000724Y-90768802D01*
X191006752Y-90766118D01*
X191018284Y-90757740D01*
X191065682Y-90723303D01*
X191161253Y-90653866D01*
X191202222Y-90608365D01*
X191284621Y-90516852D01*
X191284622Y-90516851D01*
X191289040Y-90511944D01*
X191325412Y-90448946D01*
X191381223Y-90352279D01*
X191381224Y-90352278D01*
X191384527Y-90346556D01*
X191443542Y-90164928D01*
X191463504Y-89975000D01*
X191450765Y-89853794D01*
X191444232Y-89791635D01*
X191444232Y-89791633D01*
X191443542Y-89785072D01*
X191384527Y-89603444D01*
X191374264Y-89585667D01*
X191339189Y-89524916D01*
X191289040Y-89438056D01*
X191234487Y-89377468D01*
X191165675Y-89301045D01*
X191165674Y-89301044D01*
X191161253Y-89296134D01*
X191051414Y-89216331D01*
X191012094Y-89187763D01*
X191012093Y-89187762D01*
X191006752Y-89183882D01*
X191000724Y-89181198D01*
X191000722Y-89181197D01*
X190838319Y-89108891D01*
X190838318Y-89108891D01*
X190832288Y-89106206D01*
X190738887Y-89086353D01*
X190651944Y-89067872D01*
X190651939Y-89067872D01*
X190645487Y-89066500D01*
X190454513Y-89066500D01*
X190448061Y-89067872D01*
X190448056Y-89067872D01*
X190293373Y-89100752D01*
X190267712Y-89106206D01*
X190267507Y-89105242D01*
X190202464Y-89107097D01*
X190141667Y-89070432D01*
X190110345Y-89006719D01*
X190108500Y-88985238D01*
X190108500Y-87820998D01*
X190107613Y-87809729D01*
X190106067Y-87790079D01*
X190106066Y-87790074D01*
X190105562Y-87783669D01*
X190066820Y-87650317D01*
X190061357Y-87631512D01*
X190061356Y-87631510D01*
X190059145Y-87623899D01*
X190018238Y-87554729D01*
X189978491Y-87487520D01*
X189978489Y-87487517D01*
X189974453Y-87480693D01*
X189856807Y-87363047D01*
X189849983Y-87359011D01*
X189849980Y-87359009D01*
X189720427Y-87282392D01*
X189720428Y-87282392D01*
X189713601Y-87278355D01*
X189705990Y-87276144D01*
X189705988Y-87276143D01*
X189643142Y-87257885D01*
X189553831Y-87231938D01*
X189547426Y-87231434D01*
X189547421Y-87231433D01*
X189518958Y-87229193D01*
X189518950Y-87229193D01*
X189516502Y-87229000D01*
X189284500Y-87229000D01*
X189216379Y-87208998D01*
X189169886Y-87155342D01*
X189158500Y-87103000D01*
X189158500Y-85945998D01*
X189155562Y-85908669D01*
X189109145Y-85748899D01*
X189066789Y-85677279D01*
X189028491Y-85612520D01*
X189028489Y-85612517D01*
X189024453Y-85605693D01*
X189018845Y-85600085D01*
X189013989Y-85593825D01*
X189015496Y-85592656D01*
X188986379Y-85539333D01*
X188983500Y-85512550D01*
X188983500Y-83548489D01*
X189003502Y-83480368D01*
X189057158Y-83433875D01*
X189127432Y-83423771D01*
X189192012Y-83453265D01*
X189229333Y-83509553D01*
X189275473Y-83651556D01*
X189278776Y-83657278D01*
X189278777Y-83657279D01*
X189289239Y-83675400D01*
X189370960Y-83816944D01*
X189375378Y-83821851D01*
X189375379Y-83821852D01*
X189469227Y-83926081D01*
X189498747Y-83958866D01*
X189653248Y-84071118D01*
X189659276Y-84073802D01*
X189659278Y-84073803D01*
X189783359Y-84129047D01*
X189827712Y-84148794D01*
X189909629Y-84166206D01*
X190008056Y-84187128D01*
X190008061Y-84187128D01*
X190014513Y-84188500D01*
X190205487Y-84188500D01*
X190211939Y-84187128D01*
X190211944Y-84187128D01*
X190310371Y-84166206D01*
X190392288Y-84148794D01*
X190483071Y-84108375D01*
X190553437Y-84098941D01*
X190617734Y-84129047D01*
X190642771Y-84159341D01*
X190725547Y-84299307D01*
X190843193Y-84416953D01*
X190850017Y-84420989D01*
X190850020Y-84420991D01*
X190957589Y-84484607D01*
X190986399Y-84501645D01*
X190994010Y-84503856D01*
X190994012Y-84503857D01*
X191004638Y-84506944D01*
X191146169Y-84548062D01*
X191152574Y-84548566D01*
X191152579Y-84548567D01*
X191181042Y-84550807D01*
X191181050Y-84550807D01*
X191183498Y-84551000D01*
X191616502Y-84551000D01*
X191618950Y-84550807D01*
X191618958Y-84550807D01*
X191647421Y-84548567D01*
X191647426Y-84548566D01*
X191653831Y-84548062D01*
X191795362Y-84506944D01*
X191805988Y-84503857D01*
X191805990Y-84503856D01*
X191813601Y-84501645D01*
X191842411Y-84484607D01*
X191949980Y-84420991D01*
X191949983Y-84420989D01*
X191956807Y-84416953D01*
X192074453Y-84299307D01*
X192078489Y-84292483D01*
X192078491Y-84292480D01*
X192155108Y-84162927D01*
X192159145Y-84156101D01*
X192164579Y-84137399D01*
X192181797Y-84078131D01*
X192205562Y-83996331D01*
X192206069Y-83989897D01*
X192208307Y-83961458D01*
X192208307Y-83961450D01*
X192208500Y-83959002D01*
X192208500Y-82802000D01*
X192228502Y-82733879D01*
X192282158Y-82687386D01*
X192334500Y-82676000D01*
X192365500Y-82676000D01*
X192433621Y-82696002D01*
X192480114Y-82749658D01*
X192491500Y-82802000D01*
X192491500Y-83959002D01*
X192491693Y-83961450D01*
X192491693Y-83961458D01*
X192493932Y-83989897D01*
X192494438Y-83996331D01*
X192496232Y-84002507D01*
X192496233Y-84002511D01*
X192514795Y-84066403D01*
X192514592Y-84137399D01*
X192489181Y-84182751D01*
X192489259Y-84182808D01*
X192488779Y-84183469D01*
X192487439Y-84185860D01*
X192485379Y-84188148D01*
X192480960Y-84193056D01*
X192461791Y-84226258D01*
X192400230Y-84332885D01*
X192385473Y-84358444D01*
X192326458Y-84540072D01*
X192325768Y-84546633D01*
X192325768Y-84546635D01*
X192309760Y-84698946D01*
X192306496Y-84730000D01*
X192307186Y-84736565D01*
X192325130Y-84907297D01*
X192312358Y-84977135D01*
X192278085Y-85019212D01*
X192276875Y-85020171D01*
X192270652Y-85024022D01*
X192145695Y-85149197D01*
X192141855Y-85155427D01*
X192141854Y-85155428D01*
X192122580Y-85186697D01*
X192052885Y-85299762D01*
X191997203Y-85467639D01*
X191996503Y-85474475D01*
X191996502Y-85474478D01*
X191992792Y-85510692D01*
X191986500Y-85572100D01*
X191986500Y-86347900D01*
X191986837Y-86351146D01*
X191986837Y-86351150D01*
X191995891Y-86438407D01*
X191997474Y-86453666D01*
X191999655Y-86460202D01*
X191999655Y-86460204D01*
X192020068Y-86521389D01*
X192053450Y-86621446D01*
X192146522Y-86771848D01*
X192271697Y-86896805D01*
X192275916Y-86899406D01*
X192316417Y-86956530D01*
X192319649Y-87027453D01*
X192284024Y-87088865D01*
X192276470Y-87095422D01*
X192270652Y-87099022D01*
X192265479Y-87104204D01*
X192227243Y-87142507D01*
X192145695Y-87224197D01*
X192141855Y-87230427D01*
X192141854Y-87230428D01*
X192071586Y-87344424D01*
X192052885Y-87374762D01*
X192046117Y-87395166D01*
X192011774Y-87498710D01*
X191997203Y-87542639D01*
X191986500Y-87647100D01*
X191986500Y-88422900D01*
X191986837Y-88426146D01*
X191986837Y-88426150D01*
X191996709Y-88521290D01*
X191997474Y-88528666D01*
X191999655Y-88535202D01*
X191999655Y-88535204D01*
X192038821Y-88652598D01*
X192053450Y-88696446D01*
X192146522Y-88846848D01*
X192151704Y-88852021D01*
X192177307Y-88877579D01*
X192271697Y-88971805D01*
X192277927Y-88975645D01*
X192277928Y-88975646D01*
X192411771Y-89058148D01*
X192422262Y-89064615D01*
X192502005Y-89091064D01*
X192583611Y-89118132D01*
X192583613Y-89118132D01*
X192590139Y-89120297D01*
X192596975Y-89120997D01*
X192596978Y-89120998D01*
X192640031Y-89125409D01*
X192694600Y-89131000D01*
X193286229Y-89131000D01*
X193354350Y-89151002D01*
X193400843Y-89204658D01*
X193410947Y-89274932D01*
X193395349Y-89319998D01*
X193390473Y-89328444D01*
X193331458Y-89510072D01*
X193330768Y-89516633D01*
X193330768Y-89516635D01*
X193322953Y-89590991D01*
X193311496Y-89700000D01*
X193312186Y-89706565D01*
X193327661Y-89853798D01*
X193331458Y-89889928D01*
X193390473Y-90071556D01*
X193485960Y-90236944D01*
X193490378Y-90241851D01*
X193490379Y-90241852D01*
X193597926Y-90361295D01*
X193613747Y-90378866D01*
X193660321Y-90412704D01*
X193753919Y-90480707D01*
X193768248Y-90491118D01*
X193774276Y-90493802D01*
X193774278Y-90493803D01*
X193936681Y-90566109D01*
X193942712Y-90568794D01*
X194028101Y-90586944D01*
X194123056Y-90607128D01*
X194123061Y-90607128D01*
X194129513Y-90608500D01*
X194320487Y-90608500D01*
X194326939Y-90607128D01*
X194326944Y-90607128D01*
X194421899Y-90586944D01*
X194507288Y-90568794D01*
X194513319Y-90566109D01*
X194675722Y-90493803D01*
X194675724Y-90493802D01*
X194681752Y-90491118D01*
X194696082Y-90480707D01*
X194789679Y-90412704D01*
X194836253Y-90378866D01*
X194852074Y-90361295D01*
X194959621Y-90241852D01*
X194959622Y-90241851D01*
X194964040Y-90236944D01*
X195059527Y-90071556D01*
X195118542Y-89889928D01*
X195122340Y-89853798D01*
X195137814Y-89706565D01*
X195138504Y-89700000D01*
X195127047Y-89590991D01*
X195119232Y-89516635D01*
X195119232Y-89516633D01*
X195118542Y-89510072D01*
X195059527Y-89328444D01*
X194964040Y-89163056D01*
X194954066Y-89151978D01*
X194849426Y-89035764D01*
X194818708Y-88971757D01*
X194827473Y-88901303D01*
X194872936Y-88846772D01*
X194916865Y-88828207D01*
X194918747Y-88827807D01*
X195102288Y-88788794D01*
X195109197Y-88785718D01*
X195270722Y-88713803D01*
X195270724Y-88713802D01*
X195276752Y-88711118D01*
X195282828Y-88706704D01*
X195349682Y-88658131D01*
X195431253Y-88598866D01*
X195458871Y-88568193D01*
X195554621Y-88461852D01*
X195554622Y-88461851D01*
X195559040Y-88456944D01*
X195654527Y-88291556D01*
X195713542Y-88109928D01*
X195733504Y-87920000D01*
X195723099Y-87820998D01*
X195714232Y-87736635D01*
X195714232Y-87736633D01*
X195713542Y-87730072D01*
X195654527Y-87548444D01*
X195651176Y-87542639D01*
X195576355Y-87413047D01*
X195559040Y-87383056D01*
X195528083Y-87348674D01*
X195435675Y-87246045D01*
X195435674Y-87246044D01*
X195431253Y-87241134D01*
X195313171Y-87155342D01*
X195282094Y-87132763D01*
X195282091Y-87132761D01*
X195276752Y-87128882D01*
X195270724Y-87126198D01*
X195270722Y-87126197D01*
X195108319Y-87053891D01*
X195108318Y-87053891D01*
X195102288Y-87051206D01*
X194990540Y-87027453D01*
X194921944Y-87012872D01*
X194921939Y-87012872D01*
X194915487Y-87011500D01*
X194724513Y-87011500D01*
X194718061Y-87012872D01*
X194718056Y-87012872D01*
X194649460Y-87027453D01*
X194537712Y-87051206D01*
X194531682Y-87053891D01*
X194531681Y-87053891D01*
X194369278Y-87126197D01*
X194369276Y-87126198D01*
X194363248Y-87128882D01*
X194355193Y-87134734D01*
X194353358Y-87135389D01*
X194352189Y-87136064D01*
X194352066Y-87135850D01*
X194288325Y-87158590D01*
X194219174Y-87142507D01*
X194192119Y-87121969D01*
X194173484Y-87103367D01*
X194168303Y-87098195D01*
X194164084Y-87095594D01*
X194123583Y-87038470D01*
X194120351Y-86967547D01*
X194155976Y-86906135D01*
X194163530Y-86899578D01*
X194169348Y-86895978D01*
X194294305Y-86770803D01*
X194302553Y-86757422D01*
X194383275Y-86626468D01*
X194383276Y-86626466D01*
X194387115Y-86620238D01*
X194442797Y-86452361D01*
X194444730Y-86433500D01*
X194451531Y-86367115D01*
X194453500Y-86347900D01*
X194453500Y-85741502D01*
X195861500Y-85741502D01*
X195864438Y-85778831D01*
X195872480Y-85806512D01*
X195894370Y-85881857D01*
X195910855Y-85938601D01*
X195914892Y-85945427D01*
X195991509Y-86074980D01*
X195991511Y-86074983D01*
X195995547Y-86081807D01*
X196113193Y-86199453D01*
X196120016Y-86203488D01*
X196120020Y-86203491D01*
X196227589Y-86267107D01*
X196256399Y-86284145D01*
X196264010Y-86286356D01*
X196264012Y-86286357D01*
X196287756Y-86293255D01*
X196416169Y-86330562D01*
X196422574Y-86331066D01*
X196422579Y-86331067D01*
X196451042Y-86333307D01*
X196451050Y-86333307D01*
X196453498Y-86333500D01*
X196886502Y-86333500D01*
X196888950Y-86333307D01*
X196888958Y-86333307D01*
X196917421Y-86331067D01*
X196917426Y-86331066D01*
X196923831Y-86330562D01*
X197052244Y-86293255D01*
X197075988Y-86286357D01*
X197075990Y-86286356D01*
X197083601Y-86284145D01*
X197226807Y-86199453D01*
X197229747Y-86196513D01*
X197294271Y-86171179D01*
X197363894Y-86185080D01*
X197382640Y-86197129D01*
X197390323Y-86203089D01*
X197519779Y-86279648D01*
X197534210Y-86285893D01*
X197668605Y-86324939D01*
X197682706Y-86324899D01*
X197686000Y-86317630D01*
X197686000Y-83388122D01*
X197682027Y-83374591D01*
X197674129Y-83373456D01*
X197534210Y-83414107D01*
X197519779Y-83420352D01*
X197390324Y-83496910D01*
X197382636Y-83502874D01*
X197316551Y-83528821D01*
X197246928Y-83514920D01*
X197230842Y-83504582D01*
X197226807Y-83500547D01*
X197189721Y-83478614D01*
X197090427Y-83419892D01*
X197090428Y-83419892D01*
X197083601Y-83415855D01*
X197075990Y-83413644D01*
X197075988Y-83413643D01*
X196988142Y-83388122D01*
X196923831Y-83369438D01*
X196917426Y-83368934D01*
X196917421Y-83368933D01*
X196888958Y-83366693D01*
X196888950Y-83366693D01*
X196886502Y-83366500D01*
X196453498Y-83366500D01*
X196451050Y-83366693D01*
X196451042Y-83366693D01*
X196422579Y-83368933D01*
X196422574Y-83368934D01*
X196416169Y-83369438D01*
X196351858Y-83388122D01*
X196264012Y-83413643D01*
X196264010Y-83413644D01*
X196256399Y-83415855D01*
X196249572Y-83419892D01*
X196249573Y-83419892D01*
X196120020Y-83496509D01*
X196120017Y-83496511D01*
X196113193Y-83500547D01*
X195995547Y-83618193D01*
X195991511Y-83625017D01*
X195991509Y-83625020D01*
X195938160Y-83715229D01*
X195910855Y-83761399D01*
X195864438Y-83921169D01*
X195863934Y-83927574D01*
X195863933Y-83927579D01*
X195861693Y-83956042D01*
X195861500Y-83958498D01*
X195861500Y-85741502D01*
X194453500Y-85741502D01*
X194453500Y-85572100D01*
X194453163Y-85568850D01*
X194443238Y-85473192D01*
X194443237Y-85473188D01*
X194442526Y-85466334D01*
X194386550Y-85298554D01*
X194293478Y-85148152D01*
X194265622Y-85120344D01*
X194173482Y-85028365D01*
X194168303Y-85023195D01*
X194162083Y-85019361D01*
X194121023Y-84961447D01*
X194114868Y-84907313D01*
X194132814Y-84736565D01*
X194133504Y-84730000D01*
X194130240Y-84698946D01*
X194114232Y-84546635D01*
X194114232Y-84546633D01*
X194113542Y-84540072D01*
X194054527Y-84358444D01*
X194034509Y-84323772D01*
X194017771Y-84254777D01*
X194035175Y-84196632D01*
X194055109Y-84162926D01*
X194055110Y-84162924D01*
X194059145Y-84156101D01*
X194064579Y-84137399D01*
X194081797Y-84078131D01*
X194105562Y-83996331D01*
X194106069Y-83989897D01*
X194108307Y-83961458D01*
X194108307Y-83961450D01*
X194108500Y-83959002D01*
X194108500Y-82650998D01*
X194108307Y-82648542D01*
X194106067Y-82620079D01*
X194106066Y-82620074D01*
X194105562Y-82613669D01*
X194103079Y-82605121D01*
X194059697Y-82455796D01*
X194059900Y-82384800D01*
X194098454Y-82325184D01*
X194129446Y-82305537D01*
X194191984Y-82277694D01*
X194262351Y-82268260D01*
X194326648Y-82298367D01*
X194350376Y-82326498D01*
X194386455Y-82384800D01*
X194414022Y-82429348D01*
X194539197Y-82554305D01*
X194545427Y-82558145D01*
X194545428Y-82558146D01*
X194682590Y-82642694D01*
X194689762Y-82647115D01*
X194740220Y-82663851D01*
X194851111Y-82700632D01*
X194851113Y-82700632D01*
X194857639Y-82702797D01*
X194864475Y-82703497D01*
X194864478Y-82703498D01*
X194907531Y-82707909D01*
X194962100Y-82713500D01*
X195737900Y-82713500D01*
X195741146Y-82713163D01*
X195741150Y-82713163D01*
X195836808Y-82703238D01*
X195836812Y-82703237D01*
X195843666Y-82702526D01*
X195850202Y-82700345D01*
X195850204Y-82700345D01*
X195990710Y-82653468D01*
X196011446Y-82646550D01*
X196161848Y-82553478D01*
X196286805Y-82428303D01*
X196289406Y-82424084D01*
X196346530Y-82383583D01*
X196417453Y-82380351D01*
X196478865Y-82415976D01*
X196485422Y-82423530D01*
X196489022Y-82429348D01*
X196614197Y-82554305D01*
X196620427Y-82558145D01*
X196620428Y-82558146D01*
X196757590Y-82642694D01*
X196764762Y-82647115D01*
X196815220Y-82663851D01*
X196926111Y-82700632D01*
X196926113Y-82700632D01*
X196932639Y-82702797D01*
X196939475Y-82703497D01*
X196939478Y-82703498D01*
X196982531Y-82707909D01*
X197037100Y-82713500D01*
X197812900Y-82713500D01*
X197816146Y-82713163D01*
X197816150Y-82713163D01*
X197911808Y-82703238D01*
X197911812Y-82703237D01*
X197918666Y-82702526D01*
X197925202Y-82700345D01*
X197925204Y-82700345D01*
X198065710Y-82653468D01*
X198086446Y-82646550D01*
X198236848Y-82553478D01*
X198328121Y-82462046D01*
X198361327Y-82428782D01*
X198423610Y-82394703D01*
X198494430Y-82399706D01*
X198551302Y-82442203D01*
X198576171Y-82508702D01*
X198576500Y-82517800D01*
X198576500Y-83327357D01*
X198556498Y-83395478D01*
X198502842Y-83441971D01*
X198432568Y-83452075D01*
X198386361Y-83435811D01*
X198360221Y-83420352D01*
X198345790Y-83414107D01*
X198211395Y-83375061D01*
X198197294Y-83375101D01*
X198194000Y-83382370D01*
X198194000Y-86311878D01*
X198197973Y-86325409D01*
X198205871Y-86326544D01*
X198345790Y-86285893D01*
X198360221Y-86279648D01*
X198489676Y-86203090D01*
X198497364Y-86197126D01*
X198563449Y-86171179D01*
X198633072Y-86185080D01*
X198649158Y-86195418D01*
X198653193Y-86199453D01*
X198660021Y-86203491D01*
X198660024Y-86203493D01*
X198687922Y-86219992D01*
X198796399Y-86284145D01*
X198804010Y-86286356D01*
X198804012Y-86286357D01*
X198827756Y-86293255D01*
X198956169Y-86330562D01*
X198962574Y-86331066D01*
X198962579Y-86331067D01*
X198991042Y-86333307D01*
X198991050Y-86333307D01*
X198993498Y-86333500D01*
X199426502Y-86333500D01*
X199428950Y-86333307D01*
X199428958Y-86333307D01*
X199457421Y-86331067D01*
X199457426Y-86331066D01*
X199463831Y-86330562D01*
X199592244Y-86293255D01*
X199615988Y-86286357D01*
X199615990Y-86286356D01*
X199623601Y-86284145D01*
X199766807Y-86199453D01*
X199769489Y-86196771D01*
X199833861Y-86171498D01*
X199903484Y-86185400D01*
X199919312Y-86195572D01*
X199923193Y-86199453D01*
X200066399Y-86284145D01*
X200074010Y-86286356D01*
X200074012Y-86286357D01*
X200097756Y-86293255D01*
X200226169Y-86330562D01*
X200232574Y-86331066D01*
X200232579Y-86331067D01*
X200261042Y-86333307D01*
X200261050Y-86333307D01*
X200263498Y-86333500D01*
X200696502Y-86333500D01*
X200698950Y-86333307D01*
X200698958Y-86333307D01*
X200727421Y-86331067D01*
X200727426Y-86331066D01*
X200733831Y-86330562D01*
X200862244Y-86293255D01*
X200885988Y-86286357D01*
X200885990Y-86286356D01*
X200893601Y-86284145D01*
X200922411Y-86267107D01*
X201029980Y-86203491D01*
X201029984Y-86203488D01*
X201036807Y-86199453D01*
X201154453Y-86081807D01*
X201158489Y-86074983D01*
X201158491Y-86074980D01*
X201235108Y-85945427D01*
X201239145Y-85938601D01*
X201255631Y-85881857D01*
X201277520Y-85806512D01*
X201285562Y-85778831D01*
X201288500Y-85741502D01*
X201288500Y-83958498D01*
X201288307Y-83956042D01*
X201286067Y-83927579D01*
X201286066Y-83927574D01*
X201285562Y-83921169D01*
X201239145Y-83761399D01*
X201154453Y-83618193D01*
X201156613Y-83616915D01*
X201135186Y-83562342D01*
X201149087Y-83492719D01*
X201167056Y-83466891D01*
X201234621Y-83391852D01*
X201234622Y-83391851D01*
X201239040Y-83386944D01*
X201305687Y-83271509D01*
X201331223Y-83227279D01*
X201331224Y-83227278D01*
X201334527Y-83221556D01*
X201393542Y-83039928D01*
X201395023Y-83025842D01*
X201412814Y-82856565D01*
X201413504Y-82850000D01*
X201399275Y-82714616D01*
X201394232Y-82666635D01*
X201394232Y-82666633D01*
X201393542Y-82660072D01*
X201334527Y-82478444D01*
X201239040Y-82313056D01*
X201232310Y-82305581D01*
X201115675Y-82176045D01*
X201115674Y-82176044D01*
X201111253Y-82171134D01*
X200956752Y-82058882D01*
X200950724Y-82056198D01*
X200950722Y-82056197D01*
X200788319Y-81983891D01*
X200788318Y-81983891D01*
X200782288Y-81981206D01*
X200688887Y-81961353D01*
X200601944Y-81942872D01*
X200601939Y-81942872D01*
X200595487Y-81941500D01*
X200404513Y-81941500D01*
X200398061Y-81942872D01*
X200398056Y-81942872D01*
X200222313Y-81980228D01*
X200151522Y-81974826D01*
X200094890Y-81932009D01*
X200070396Y-81865372D01*
X200076283Y-81818044D01*
X200091503Y-81771203D01*
X200093542Y-81764928D01*
X200104497Y-81660702D01*
X200112814Y-81581565D01*
X200113504Y-81575000D01*
X200099654Y-81443227D01*
X200094232Y-81391635D01*
X200094232Y-81391633D01*
X200093542Y-81385072D01*
X200034527Y-81203444D01*
X200029929Y-81195479D01*
X199942341Y-81043774D01*
X199939040Y-81038056D01*
X199892822Y-80986725D01*
X199815675Y-80901045D01*
X199815674Y-80901044D01*
X199811253Y-80896134D01*
X199656752Y-80783882D01*
X199650724Y-80781198D01*
X199650722Y-80781197D01*
X199488319Y-80708891D01*
X199488318Y-80708891D01*
X199482288Y-80706206D01*
X199388888Y-80686353D01*
X199301944Y-80667872D01*
X199301939Y-80667872D01*
X199295487Y-80666500D01*
X199104513Y-80666500D01*
X199098061Y-80667872D01*
X199098056Y-80667872D01*
X199011112Y-80686353D01*
X198917712Y-80706206D01*
X198911682Y-80708891D01*
X198911681Y-80708891D01*
X198749278Y-80781197D01*
X198749276Y-80781198D01*
X198743248Y-80783882D01*
X198737907Y-80787762D01*
X198737906Y-80787763D01*
X198677237Y-80831842D01*
X198610369Y-80855700D01*
X198541218Y-80839620D01*
X198491738Y-80788706D01*
X198483652Y-80769782D01*
X198477396Y-80751029D01*
X198454050Y-80681054D01*
X198360978Y-80530652D01*
X198235803Y-80405695D01*
X198118383Y-80333316D01*
X198070891Y-80280545D01*
X198058500Y-80226057D01*
X198058500Y-80212502D01*
X198078502Y-80144381D01*
X198132158Y-80097888D01*
X198165545Y-80088772D01*
X198165487Y-80088500D01*
X198171940Y-80087128D01*
X198171943Y-80087128D01*
X198234513Y-80073828D01*
X198352288Y-80048794D01*
X198358319Y-80046109D01*
X198520722Y-79973803D01*
X198520724Y-79973802D01*
X198526752Y-79971118D01*
X198681253Y-79858866D01*
X198685675Y-79853955D01*
X198804621Y-79721852D01*
X198804622Y-79721851D01*
X198809040Y-79716944D01*
X198886373Y-79582999D01*
X198901223Y-79557279D01*
X198901224Y-79557278D01*
X198904527Y-79551556D01*
X198963542Y-79369928D01*
X198968875Y-79319193D01*
X198982814Y-79186565D01*
X198983504Y-79180000D01*
X198976307Y-79111521D01*
X198964232Y-78996635D01*
X198964232Y-78996633D01*
X198963542Y-78990072D01*
X198904527Y-78808444D01*
X198900298Y-78801118D01*
X198816632Y-78656206D01*
X198809040Y-78643056D01*
X198797067Y-78629758D01*
X198685675Y-78506045D01*
X198685674Y-78506044D01*
X198681253Y-78501134D01*
X198558311Y-78411811D01*
X198532094Y-78392763D01*
X198532093Y-78392762D01*
X198526752Y-78388882D01*
X198520724Y-78386198D01*
X198520722Y-78386197D01*
X198358319Y-78313891D01*
X198358318Y-78313891D01*
X198352288Y-78311206D01*
X198256888Y-78290928D01*
X198171944Y-78272872D01*
X198171939Y-78272872D01*
X198165487Y-78271500D01*
X197974513Y-78271500D01*
X197968061Y-78272872D01*
X197968056Y-78272872D01*
X197883112Y-78290928D01*
X197787712Y-78311206D01*
X197781682Y-78313891D01*
X197781681Y-78313891D01*
X197619278Y-78386197D01*
X197619276Y-78386198D01*
X197613248Y-78388882D01*
X197607907Y-78392762D01*
X197607906Y-78392763D01*
X197581689Y-78411811D01*
X197458747Y-78501134D01*
X197454326Y-78506044D01*
X197454325Y-78506045D01*
X197342934Y-78629758D01*
X197330960Y-78643056D01*
X197323368Y-78656206D01*
X197239703Y-78801118D01*
X197235473Y-78808444D01*
X197176458Y-78990072D01*
X197175768Y-78996633D01*
X197175768Y-78996635D01*
X197172660Y-79026206D01*
X197159659Y-79149911D01*
X197159093Y-79155292D01*
X197132080Y-79220949D01*
X197122878Y-79231217D01*
X197032747Y-79321348D01*
X197024461Y-79328888D01*
X197017982Y-79333000D01*
X197012557Y-79338777D01*
X196971357Y-79382651D01*
X196968602Y-79385493D01*
X196948865Y-79405230D01*
X196946385Y-79408427D01*
X196938682Y-79417447D01*
X196908414Y-79449679D01*
X196904595Y-79456625D01*
X196904593Y-79456628D01*
X196898652Y-79467434D01*
X196887801Y-79483953D01*
X196875386Y-79499959D01*
X196872241Y-79507228D01*
X196872238Y-79507232D01*
X196857826Y-79540537D01*
X196852609Y-79551187D01*
X196831305Y-79589940D01*
X196829334Y-79597615D01*
X196829334Y-79597616D01*
X196826267Y-79609562D01*
X196819863Y-79628266D01*
X196817696Y-79633275D01*
X196811819Y-79646855D01*
X196810580Y-79654678D01*
X196810577Y-79654688D01*
X196804901Y-79690524D01*
X196802495Y-79702144D01*
X196797435Y-79721852D01*
X196791500Y-79744970D01*
X196791500Y-79765224D01*
X196789949Y-79784934D01*
X196786780Y-79804943D01*
X196787526Y-79812835D01*
X196790941Y-79848961D01*
X196791500Y-79860819D01*
X196791500Y-80225954D01*
X196771498Y-80294075D01*
X196731803Y-80333098D01*
X196613152Y-80406522D01*
X196488195Y-80531697D01*
X196485594Y-80535916D01*
X196428470Y-80576417D01*
X196357547Y-80579649D01*
X196296135Y-80544024D01*
X196289578Y-80536470D01*
X196285978Y-80530652D01*
X196160803Y-80405695D01*
X196043385Y-80333317D01*
X196016468Y-80316725D01*
X196016466Y-80316724D01*
X196010238Y-80312885D01*
X195930495Y-80286436D01*
X195848889Y-80259368D01*
X195848887Y-80259368D01*
X195842361Y-80257203D01*
X195835525Y-80256503D01*
X195835522Y-80256502D01*
X195792469Y-80252091D01*
X195737900Y-80246500D01*
X194962100Y-80246500D01*
X194958854Y-80246837D01*
X194958850Y-80246837D01*
X194863192Y-80256762D01*
X194863188Y-80256763D01*
X194856334Y-80257474D01*
X194849798Y-80259655D01*
X194849796Y-80259655D01*
X194787182Y-80280545D01*
X194688554Y-80313450D01*
X194538152Y-80406522D01*
X194413195Y-80531697D01*
X194409355Y-80537927D01*
X194409354Y-80537928D01*
X194350542Y-80633338D01*
X194297769Y-80680832D01*
X194227698Y-80692255D01*
X194192035Y-80682329D01*
X194032288Y-80611206D01*
X193938888Y-80591353D01*
X193851944Y-80572872D01*
X193851939Y-80572872D01*
X193845487Y-80571500D01*
X193654513Y-80571500D01*
X193648061Y-80572872D01*
X193648056Y-80572872D01*
X193561112Y-80591353D01*
X193467712Y-80611206D01*
X193461682Y-80613891D01*
X193461681Y-80613891D01*
X193343519Y-80666500D01*
X193293248Y-80688882D01*
X193292349Y-80686862D01*
X193233320Y-80701181D01*
X193166228Y-80677960D01*
X193122341Y-80622152D01*
X193118319Y-80610476D01*
X193111357Y-80586513D01*
X193111357Y-80586512D01*
X193109145Y-80578899D01*
X193083494Y-80535525D01*
X193028491Y-80442520D01*
X193028489Y-80442517D01*
X193024453Y-80435693D01*
X192906807Y-80318047D01*
X192899983Y-80314011D01*
X192899980Y-80314009D01*
X192786398Y-80246837D01*
X192763601Y-80233355D01*
X192755990Y-80231144D01*
X192755988Y-80231143D01*
X192691824Y-80212502D01*
X192603831Y-80186938D01*
X192597426Y-80186434D01*
X192597421Y-80186433D01*
X192568958Y-80184193D01*
X192568950Y-80184193D01*
X192566502Y-80184000D01*
X192133498Y-80184000D01*
X192131050Y-80184193D01*
X192131042Y-80184193D01*
X192102579Y-80186433D01*
X192102574Y-80186434D01*
X192096169Y-80186938D01*
X192008176Y-80212502D01*
X191944012Y-80231143D01*
X191944010Y-80231144D01*
X191936399Y-80233355D01*
X191913602Y-80246837D01*
X191800020Y-80314009D01*
X191800017Y-80314011D01*
X191793193Y-80318047D01*
X191675547Y-80435693D01*
X191671511Y-80442517D01*
X191671509Y-80442520D01*
X191616506Y-80535525D01*
X191590855Y-80578899D01*
X191544438Y-80738669D01*
X191543934Y-80745074D01*
X191543933Y-80745079D01*
X191541722Y-80773173D01*
X191541500Y-80775998D01*
X191541500Y-81933000D01*
X191521498Y-82001121D01*
X191467842Y-82047614D01*
X191415500Y-82059000D01*
X191183498Y-82059000D01*
X191181050Y-82059193D01*
X191181042Y-82059193D01*
X191152579Y-82061433D01*
X191152574Y-82061434D01*
X191146169Y-82061938D01*
X191046231Y-82090972D01*
X190994012Y-82106143D01*
X190994010Y-82106144D01*
X190986399Y-82108355D01*
X190961137Y-82123295D01*
X190850020Y-82189009D01*
X190850017Y-82189011D01*
X190843193Y-82193047D01*
X190725547Y-82310693D01*
X190674110Y-82397668D01*
X190666179Y-82411079D01*
X190614286Y-82459531D01*
X190544436Y-82472236D01*
X190506477Y-82462046D01*
X190398319Y-82413891D01*
X190398318Y-82413891D01*
X190392288Y-82411206D01*
X190283438Y-82388069D01*
X190211944Y-82372872D01*
X190211939Y-82372872D01*
X190205487Y-82371500D01*
X190014513Y-82371500D01*
X190008061Y-82372872D01*
X190008056Y-82372872D01*
X189936562Y-82388069D01*
X189827712Y-82411206D01*
X189821682Y-82413891D01*
X189821681Y-82413891D01*
X189659278Y-82486197D01*
X189659276Y-82486198D01*
X189653248Y-82488882D01*
X189647907Y-82492762D01*
X189647906Y-82492763D01*
X189625968Y-82508702D01*
X189498747Y-82601134D01*
X189494326Y-82606044D01*
X189494325Y-82606045D01*
X189387625Y-82724548D01*
X189370960Y-82743056D01*
X189323250Y-82825692D01*
X189306606Y-82854521D01*
X189275473Y-82908444D01*
X189261055Y-82952817D01*
X189229333Y-83050447D01*
X189189259Y-83109053D01*
X189123863Y-83136690D01*
X189053906Y-83124583D01*
X189001600Y-83076577D01*
X188983500Y-83011511D01*
X188983500Y-82758768D01*
X188984027Y-82747584D01*
X188985702Y-82740091D01*
X188985453Y-82732165D01*
X188986199Y-82724274D01*
X188989099Y-82724548D01*
X188998680Y-82680217D01*
X189035139Y-82606447D01*
X189035140Y-82606445D01*
X189037430Y-82601811D01*
X189041724Y-82587680D01*
X189100865Y-82393023D01*
X189100865Y-82393021D01*
X189102370Y-82388069D01*
X189131529Y-82166590D01*
X189131611Y-82163240D01*
X189133074Y-82103365D01*
X189133074Y-82103361D01*
X189133156Y-82100000D01*
X189114852Y-81877361D01*
X189060431Y-81660702D01*
X188971354Y-81455840D01*
X188891111Y-81331803D01*
X188852822Y-81272617D01*
X188852820Y-81272614D01*
X188850014Y-81268277D01*
X188699670Y-81103051D01*
X188695619Y-81099852D01*
X188695615Y-81099848D01*
X188528414Y-80967800D01*
X188528410Y-80967798D01*
X188524359Y-80964598D01*
X188328789Y-80856638D01*
X188323920Y-80854914D01*
X188323916Y-80854912D01*
X188123087Y-80783795D01*
X188123083Y-80783794D01*
X188118212Y-80782069D01*
X188113119Y-80781162D01*
X188113116Y-80781161D01*
X187903373Y-80743800D01*
X187903367Y-80743799D01*
X187898284Y-80742894D01*
X187824452Y-80741992D01*
X187680081Y-80740228D01*
X187680079Y-80740228D01*
X187674911Y-80740165D01*
X187454091Y-80773955D01*
X187241756Y-80843357D01*
X187211443Y-80859137D01*
X187076531Y-80929368D01*
X187043607Y-80946507D01*
X187039474Y-80949610D01*
X187039471Y-80949612D01*
X186914059Y-81043774D01*
X186864965Y-81080635D01*
X186861393Y-81084373D01*
X186746947Y-81204134D01*
X186710629Y-81242138D01*
X186603201Y-81399621D01*
X186548293Y-81444621D01*
X186477768Y-81452792D01*
X186414021Y-81421538D01*
X186393324Y-81397054D01*
X186312822Y-81272617D01*
X186312820Y-81272614D01*
X186310014Y-81268277D01*
X186159670Y-81103051D01*
X186155619Y-81099852D01*
X186155615Y-81099848D01*
X185988414Y-80967800D01*
X185988410Y-80967798D01*
X185984359Y-80964598D01*
X185788789Y-80856638D01*
X185783920Y-80854914D01*
X185783916Y-80854912D01*
X185583087Y-80783795D01*
X185583083Y-80783794D01*
X185578212Y-80782069D01*
X185573119Y-80781162D01*
X185573116Y-80781161D01*
X185363373Y-80743800D01*
X185363367Y-80743799D01*
X185358284Y-80742894D01*
X185284452Y-80741992D01*
X185140081Y-80740228D01*
X185140079Y-80740228D01*
X185134911Y-80740165D01*
X184914091Y-80773955D01*
X184701756Y-80843357D01*
X184671443Y-80859137D01*
X184536531Y-80929368D01*
X184503607Y-80946507D01*
X184499474Y-80949610D01*
X184499471Y-80949612D01*
X184374059Y-81043774D01*
X184324965Y-81080635D01*
X184321393Y-81084373D01*
X184206947Y-81204134D01*
X184170629Y-81242138D01*
X184063201Y-81399621D01*
X184008293Y-81444621D01*
X183937768Y-81452792D01*
X183874021Y-81421538D01*
X183853324Y-81397054D01*
X183772822Y-81272617D01*
X183772820Y-81272614D01*
X183770014Y-81268277D01*
X183619670Y-81103051D01*
X183615619Y-81099852D01*
X183615615Y-81099848D01*
X183448414Y-80967800D01*
X183448410Y-80967798D01*
X183444359Y-80964598D01*
X183248789Y-80856638D01*
X183243920Y-80854914D01*
X183243916Y-80854912D01*
X183043087Y-80783795D01*
X183043083Y-80783794D01*
X183038212Y-80782069D01*
X183033119Y-80781162D01*
X183033116Y-80781161D01*
X182823373Y-80743800D01*
X182823367Y-80743799D01*
X182818284Y-80742894D01*
X182744452Y-80741992D01*
X182600081Y-80740228D01*
X182600079Y-80740228D01*
X182594911Y-80740165D01*
X182374091Y-80773955D01*
X182161756Y-80843357D01*
X182131443Y-80859137D01*
X181996531Y-80929368D01*
X181963607Y-80946507D01*
X181959474Y-80949610D01*
X181959471Y-80949612D01*
X181834059Y-81043774D01*
X181784965Y-81080635D01*
X181728537Y-81139684D01*
X181704283Y-81165064D01*
X181642759Y-81200494D01*
X181571846Y-81197037D01*
X181514060Y-81155791D01*
X181495207Y-81122243D01*
X181453767Y-81011703D01*
X181450615Y-81003295D01*
X181363261Y-80886739D01*
X181246705Y-80799385D01*
X181110316Y-80748255D01*
X181048134Y-80741500D01*
X179251866Y-80741500D01*
X179189684Y-80748255D01*
X179053295Y-80799385D01*
X178936739Y-80886739D01*
X178849385Y-81003295D01*
X178798255Y-81139684D01*
X178791500Y-81201866D01*
X178791500Y-82998134D01*
X175668500Y-82998134D01*
X175668500Y-78460000D01*
X177026496Y-78460000D01*
X177027186Y-78466565D01*
X177045484Y-78640658D01*
X177046458Y-78649928D01*
X177105473Y-78831556D01*
X177108776Y-78837278D01*
X177108777Y-78837279D01*
X177130528Y-78874953D01*
X177200960Y-78996944D01*
X177205378Y-79001851D01*
X177205379Y-79001852D01*
X177300657Y-79107669D01*
X177328747Y-79138866D01*
X177483248Y-79251118D01*
X177489276Y-79253802D01*
X177489278Y-79253803D01*
X177640988Y-79321348D01*
X177657712Y-79328794D01*
X177751113Y-79348647D01*
X177838056Y-79367128D01*
X177838061Y-79367128D01*
X177844513Y-79368500D01*
X178035487Y-79368500D01*
X178041939Y-79367128D01*
X178041944Y-79367128D01*
X178128887Y-79348647D01*
X178222288Y-79328794D01*
X178243852Y-79319193D01*
X178314219Y-79309759D01*
X178378516Y-79339865D01*
X178402244Y-79367996D01*
X178434022Y-79419348D01*
X178559197Y-79544305D01*
X178565427Y-79548145D01*
X178565428Y-79548146D01*
X178702590Y-79632694D01*
X178709762Y-79637115D01*
X178762743Y-79654688D01*
X178871111Y-79690632D01*
X178871113Y-79690632D01*
X178877639Y-79692797D01*
X178884475Y-79693497D01*
X178884478Y-79693498D01*
X178927531Y-79697909D01*
X178982100Y-79703500D01*
X180157900Y-79703500D01*
X180161146Y-79703163D01*
X180161150Y-79703163D01*
X180256808Y-79693238D01*
X180256812Y-79693237D01*
X180263666Y-79692526D01*
X180270202Y-79690345D01*
X180270204Y-79690345D01*
X180422364Y-79639580D01*
X180431446Y-79636550D01*
X180581848Y-79543478D01*
X180706805Y-79418303D01*
X180712898Y-79408419D01*
X180795775Y-79273968D01*
X180795776Y-79273966D01*
X180799615Y-79267738D01*
X180830894Y-79173435D01*
X180853132Y-79106389D01*
X180853132Y-79106387D01*
X180855297Y-79099861D01*
X180857691Y-79076502D01*
X180862814Y-79026491D01*
X180866000Y-78995400D01*
X180866000Y-78044600D01*
X180857626Y-77963891D01*
X180855738Y-77945692D01*
X180855737Y-77945688D01*
X180855026Y-77938834D01*
X180848283Y-77918621D01*
X180801368Y-77778002D01*
X180799050Y-77771054D01*
X180705978Y-77620652D01*
X180580803Y-77495695D01*
X180573500Y-77491193D01*
X180498924Y-77445224D01*
X180452747Y-77416760D01*
X180405254Y-77363988D01*
X180393830Y-77293916D01*
X180422104Y-77228792D01*
X180481098Y-77189293D01*
X180518863Y-77183500D01*
X180772900Y-77183500D01*
X180776146Y-77183163D01*
X180776150Y-77183163D01*
X180871808Y-77173238D01*
X180871812Y-77173237D01*
X180878666Y-77172526D01*
X180885202Y-77170345D01*
X180885204Y-77170345D01*
X181039498Y-77118868D01*
X181046446Y-77116550D01*
X181196848Y-77023478D01*
X181321805Y-76898303D01*
X181324406Y-76894084D01*
X181381530Y-76853583D01*
X181452453Y-76850351D01*
X181513865Y-76885976D01*
X181520422Y-76893530D01*
X181524022Y-76899348D01*
X181649197Y-77024305D01*
X181655427Y-77028145D01*
X181655428Y-77028146D01*
X181667899Y-77035833D01*
X181766617Y-77096684D01*
X181814109Y-77149455D01*
X181826500Y-77203943D01*
X181826500Y-77231606D01*
X181806498Y-77299727D01*
X181752842Y-77346220D01*
X181740378Y-77351129D01*
X181583554Y-77403450D01*
X181433152Y-77496522D01*
X181308195Y-77621697D01*
X181304355Y-77627927D01*
X181304354Y-77627928D01*
X181278464Y-77669930D01*
X181215385Y-77772262D01*
X181207843Y-77795000D01*
X181163473Y-77928774D01*
X181159703Y-77940139D01*
X181149000Y-78044600D01*
X181149000Y-78995400D01*
X181149337Y-78998646D01*
X181149337Y-78998650D01*
X181157532Y-79077627D01*
X181159974Y-79101166D01*
X181162155Y-79107702D01*
X181162155Y-79107704D01*
X181177254Y-79152960D01*
X181215950Y-79268946D01*
X181309022Y-79419348D01*
X181434197Y-79544305D01*
X181440427Y-79548145D01*
X181440428Y-79548146D01*
X181577590Y-79632694D01*
X181584762Y-79637115D01*
X181637743Y-79654688D01*
X181746111Y-79690632D01*
X181746113Y-79690632D01*
X181752639Y-79692797D01*
X181759475Y-79693497D01*
X181759478Y-79693498D01*
X181802531Y-79697909D01*
X181857100Y-79703500D01*
X183032900Y-79703500D01*
X183036146Y-79703163D01*
X183036150Y-79703163D01*
X183131808Y-79693238D01*
X183131812Y-79693237D01*
X183138666Y-79692526D01*
X183145202Y-79690345D01*
X183145204Y-79690345D01*
X183297364Y-79639580D01*
X183306446Y-79636550D01*
X183456848Y-79543478D01*
X183499770Y-79500482D01*
X183562051Y-79466403D01*
X183588942Y-79463500D01*
X184381800Y-79463500D01*
X184449921Y-79483502D01*
X184469147Y-79499843D01*
X184469420Y-79499540D01*
X184474332Y-79503963D01*
X184478747Y-79508866D01*
X184500329Y-79524546D01*
X184617343Y-79609562D01*
X184633248Y-79621118D01*
X184639276Y-79623802D01*
X184639278Y-79623803D01*
X184794242Y-79692797D01*
X184807712Y-79698794D01*
X184893101Y-79716944D01*
X184988056Y-79737128D01*
X184988061Y-79737128D01*
X184994513Y-79738500D01*
X185185487Y-79738500D01*
X185191939Y-79737128D01*
X185191944Y-79737128D01*
X185286899Y-79716944D01*
X185372288Y-79698794D01*
X185385758Y-79692797D01*
X185540722Y-79623803D01*
X185540724Y-79623802D01*
X185546752Y-79621118D01*
X185562658Y-79609562D01*
X185651146Y-79545271D01*
X185701253Y-79508866D01*
X185709650Y-79499540D01*
X185824621Y-79371852D01*
X185824622Y-79371851D01*
X185829040Y-79366944D01*
X185912022Y-79223215D01*
X185921223Y-79207279D01*
X185921224Y-79207278D01*
X185924527Y-79201556D01*
X185983542Y-79019928D01*
X185985501Y-79001295D01*
X185998231Y-78880166D01*
X186000907Y-78854706D01*
X186027920Y-78789050D01*
X186037122Y-78778782D01*
X186222899Y-78593005D01*
X186285211Y-78558979D01*
X186311994Y-78556100D01*
X186647800Y-78556100D01*
X186715921Y-78576102D01*
X186762414Y-78629758D01*
X186773800Y-78682100D01*
X186773800Y-78820734D01*
X186780555Y-78882916D01*
X186831685Y-79019305D01*
X186919039Y-79135861D01*
X187035595Y-79223215D01*
X187171984Y-79274345D01*
X187234166Y-79281100D01*
X189030434Y-79281100D01*
X189092616Y-79274345D01*
X189229005Y-79223215D01*
X189345561Y-79135861D01*
X189432915Y-79019305D01*
X189484045Y-78882916D01*
X189490800Y-78820734D01*
X189490800Y-77024466D01*
X189484045Y-76962284D01*
X189432915Y-76825895D01*
X189345561Y-76709339D01*
X189229005Y-76621985D01*
X189200044Y-76611128D01*
X189110503Y-76577560D01*
X189053739Y-76534918D01*
X189029039Y-76468356D01*
X189044247Y-76399008D01*
X189065793Y-76370327D01*
X189083551Y-76352631D01*
X189170396Y-76266089D01*
X189203718Y-76219717D01*
X189297735Y-76088877D01*
X189300753Y-76084677D01*
X189331208Y-76023057D01*
X189397436Y-75889053D01*
X189397437Y-75889051D01*
X189399730Y-75884411D01*
X189464670Y-75670669D01*
X189493829Y-75449190D01*
X189495456Y-75382600D01*
X189477152Y-75159961D01*
X189422731Y-74943302D01*
X189333654Y-74738440D01*
X189212314Y-74550877D01*
X189061970Y-74385651D01*
X189057919Y-74382452D01*
X189057915Y-74382448D01*
X188890714Y-74250400D01*
X188890710Y-74250398D01*
X188886659Y-74247198D01*
X188844869Y-74224129D01*
X188794898Y-74173697D01*
X188780126Y-74104254D01*
X188805242Y-74037848D01*
X188832594Y-74011241D01*
X189007628Y-73886392D01*
X189015500Y-73879739D01*
X189166352Y-73729412D01*
X189173030Y-73721565D01*
X189297303Y-73548620D01*
X189302613Y-73539783D01*
X189396970Y-73348867D01*
X189400769Y-73339272D01*
X189462677Y-73135510D01*
X189464855Y-73125437D01*
X189466286Y-73114562D01*
X189464075Y-73100378D01*
X189450917Y-73096600D01*
X186815525Y-73096600D01*
X186801994Y-73100573D01*
X186800557Y-73110566D01*
X186830865Y-73245046D01*
X186833945Y-73254875D01*
X186914070Y-73452203D01*
X186918713Y-73461394D01*
X187029994Y-73642988D01*
X187036077Y-73651299D01*
X187175513Y-73812267D01*
X187182880Y-73819483D01*
X187346734Y-73955516D01*
X187355181Y-73961431D01*
X187424269Y-74001803D01*
X187472993Y-74053442D01*
X187486064Y-74123225D01*
X187459333Y-74188996D01*
X187418884Y-74222352D01*
X187405907Y-74229107D01*
X187401774Y-74232210D01*
X187401771Y-74232212D01*
X187231400Y-74360130D01*
X187227265Y-74363235D01*
X187072929Y-74524738D01*
X186947043Y-74709280D01*
X186931303Y-74743190D01*
X186861350Y-74893891D01*
X186852988Y-74911905D01*
X186793289Y-75127170D01*
X186769551Y-75349295D01*
X186769848Y-75354448D01*
X186769848Y-75354451D01*
X186775129Y-75446037D01*
X186782410Y-75572315D01*
X186783547Y-75577361D01*
X186783548Y-75577367D01*
X186803419Y-75665539D01*
X186831522Y-75790239D01*
X186915566Y-75997216D01*
X187032287Y-76187688D01*
X187178550Y-76356538D01*
X187182530Y-76359842D01*
X187187281Y-76363787D01*
X187226916Y-76422690D01*
X187228413Y-76493671D01*
X187191297Y-76554193D01*
X187151025Y-76578712D01*
X187130547Y-76586389D01*
X187035595Y-76621985D01*
X186919039Y-76709339D01*
X186831685Y-76825895D01*
X186780555Y-76962284D01*
X186773800Y-77024466D01*
X186773800Y-77163100D01*
X186753798Y-77231221D01*
X186700142Y-77277714D01*
X186647800Y-77289100D01*
X186076163Y-77289100D01*
X186064979Y-77288573D01*
X186057491Y-77286899D01*
X186049568Y-77287148D01*
X185989433Y-77289038D01*
X185985475Y-77289100D01*
X185957544Y-77289100D01*
X185953629Y-77289595D01*
X185953625Y-77289595D01*
X185953567Y-77289603D01*
X185953538Y-77289606D01*
X185941696Y-77290539D01*
X185897510Y-77291927D01*
X185880144Y-77296972D01*
X185878058Y-77297578D01*
X185858706Y-77301586D01*
X185846468Y-77303132D01*
X185846466Y-77303133D01*
X185838603Y-77304126D01*
X185797486Y-77320406D01*
X185786285Y-77324241D01*
X185743806Y-77336582D01*
X185736987Y-77340615D01*
X185736982Y-77340617D01*
X185726371Y-77346893D01*
X185708621Y-77355590D01*
X185689783Y-77363048D01*
X185683367Y-77367709D01*
X185683366Y-77367710D01*
X185654025Y-77389028D01*
X185644101Y-77395547D01*
X185612860Y-77414022D01*
X185612855Y-77414026D01*
X185606037Y-77418058D01*
X185591713Y-77432382D01*
X185576681Y-77445221D01*
X185560293Y-77457128D01*
X185542386Y-77478774D01*
X185532112Y-77491193D01*
X185524122Y-77499973D01*
X185139500Y-77884595D01*
X185077188Y-77918621D01*
X185050405Y-77921500D01*
X184994513Y-77921500D01*
X184988061Y-77922872D01*
X184988056Y-77922872D01*
X184912963Y-77938834D01*
X184807712Y-77961206D01*
X184801682Y-77963891D01*
X184801681Y-77963891D01*
X184639278Y-78036197D01*
X184639276Y-78036198D01*
X184633248Y-78038882D01*
X184627907Y-78042762D01*
X184627906Y-78042763D01*
X184517687Y-78122842D01*
X184478747Y-78151134D01*
X184474332Y-78156037D01*
X184469420Y-78160460D01*
X184468295Y-78159211D01*
X184414986Y-78192051D01*
X184381800Y-78196500D01*
X183867000Y-78196500D01*
X183798879Y-78176498D01*
X183752386Y-78122842D01*
X183741000Y-78070500D01*
X183741000Y-78044600D01*
X183732626Y-77963891D01*
X183730738Y-77945692D01*
X183730737Y-77945688D01*
X183730026Y-77938834D01*
X183723283Y-77918621D01*
X183676368Y-77778002D01*
X183674050Y-77771054D01*
X183580978Y-77620652D01*
X183455803Y-77495695D01*
X183449572Y-77491854D01*
X183311468Y-77406725D01*
X183311466Y-77406724D01*
X183305238Y-77402885D01*
X183199188Y-77367710D01*
X183179833Y-77361290D01*
X183121473Y-77320859D01*
X183094236Y-77255295D01*
X183093500Y-77241697D01*
X183093500Y-77204046D01*
X183113502Y-77135925D01*
X183153197Y-77096902D01*
X183265620Y-77027332D01*
X183271848Y-77023478D01*
X183396805Y-76898303D01*
X183426363Y-76850351D01*
X183485775Y-76753968D01*
X183485776Y-76753966D01*
X183489615Y-76747738D01*
X183521626Y-76651226D01*
X183543132Y-76586389D01*
X183543132Y-76586387D01*
X183545297Y-76579861D01*
X183556000Y-76475400D01*
X183556000Y-75424600D01*
X183552249Y-75388444D01*
X183545738Y-75325692D01*
X183545737Y-75325688D01*
X183545026Y-75318834D01*
X183534907Y-75288502D01*
X183491368Y-75158002D01*
X183489050Y-75151054D01*
X183395978Y-75000652D01*
X183270803Y-74875695D01*
X183238101Y-74855537D01*
X183126468Y-74786725D01*
X183126466Y-74786724D01*
X183120238Y-74782885D01*
X182973131Y-74734092D01*
X182958889Y-74729368D01*
X182958887Y-74729368D01*
X182952361Y-74727203D01*
X182945525Y-74726503D01*
X182945522Y-74726502D01*
X182902469Y-74722091D01*
X182847900Y-74716500D01*
X182072100Y-74716500D01*
X182068854Y-74716837D01*
X182068850Y-74716837D01*
X181973192Y-74726762D01*
X181973188Y-74726763D01*
X181966334Y-74727474D01*
X181959798Y-74729655D01*
X181959796Y-74729655D01*
X181872139Y-74758900D01*
X181798554Y-74783450D01*
X181648152Y-74876522D01*
X181523195Y-75001697D01*
X181520594Y-75005916D01*
X181463470Y-75046417D01*
X181392547Y-75049649D01*
X181331135Y-75014024D01*
X181324578Y-75006470D01*
X181320978Y-75000652D01*
X181195803Y-74875695D01*
X181163101Y-74855537D01*
X181051468Y-74786725D01*
X181051466Y-74786724D01*
X181045238Y-74782885D01*
X180898131Y-74734092D01*
X180883889Y-74729368D01*
X180883887Y-74729368D01*
X180877361Y-74727203D01*
X180870525Y-74726503D01*
X180870522Y-74726502D01*
X180827469Y-74722091D01*
X180772900Y-74716500D01*
X179997100Y-74716500D01*
X179993854Y-74716837D01*
X179993850Y-74716837D01*
X179898192Y-74726762D01*
X179898188Y-74726763D01*
X179891334Y-74727474D01*
X179884798Y-74729655D01*
X179884796Y-74729655D01*
X179797139Y-74758900D01*
X179723554Y-74783450D01*
X179573152Y-74876522D01*
X179567979Y-74881704D01*
X179567974Y-74881708D01*
X179496093Y-74953715D01*
X179433811Y-74987795D01*
X179362991Y-74982792D01*
X179343920Y-74973817D01*
X179342091Y-74972761D01*
X179336752Y-74968882D01*
X179330722Y-74966197D01*
X179168319Y-74893891D01*
X179168318Y-74893891D01*
X179162288Y-74891206D01*
X179068887Y-74871353D01*
X178981944Y-74852872D01*
X178981939Y-74852872D01*
X178975487Y-74851500D01*
X178784513Y-74851500D01*
X178778061Y-74852872D01*
X178778056Y-74852872D01*
X178691113Y-74871353D01*
X178597712Y-74891206D01*
X178591682Y-74893891D01*
X178591681Y-74893891D01*
X178429278Y-74966197D01*
X178429276Y-74966198D01*
X178423248Y-74968882D01*
X178417907Y-74972762D01*
X178417906Y-74972763D01*
X178378082Y-75001697D01*
X178268747Y-75081134D01*
X178264326Y-75086044D01*
X178264325Y-75086045D01*
X178165193Y-75196143D01*
X178140960Y-75223056D01*
X178122152Y-75255632D01*
X178053916Y-75373821D01*
X178045473Y-75388444D01*
X177986458Y-75570072D01*
X177985768Y-75576633D01*
X177985768Y-75576635D01*
X177982469Y-75608028D01*
X177966496Y-75760000D01*
X177967186Y-75766565D01*
X177981748Y-75905111D01*
X177986458Y-75949928D01*
X178045473Y-76131556D01*
X178140960Y-76296944D01*
X178145378Y-76301851D01*
X178145379Y-76301852D01*
X178253295Y-76421705D01*
X178268747Y-76438866D01*
X178314604Y-76472183D01*
X178395670Y-76531081D01*
X178423248Y-76551118D01*
X178429276Y-76553802D01*
X178429278Y-76553803D01*
X178590668Y-76625658D01*
X178597712Y-76628794D01*
X178680565Y-76646405D01*
X178778056Y-76667128D01*
X178778061Y-76667128D01*
X178784513Y-76668500D01*
X178975487Y-76668500D01*
X178981939Y-76667128D01*
X178981944Y-76667128D01*
X179079435Y-76646405D01*
X179162288Y-76628794D01*
X179168315Y-76626111D01*
X179168323Y-76626108D01*
X179169171Y-76625730D01*
X179169705Y-76625658D01*
X179174600Y-76624068D01*
X179174891Y-76624963D01*
X179239538Y-76616297D01*
X179303834Y-76646405D01*
X179339940Y-76700961D01*
X179352567Y-76738806D01*
X179355950Y-76748946D01*
X179449022Y-76899348D01*
X179574197Y-77024305D01*
X179580427Y-77028145D01*
X179580428Y-77028146D01*
X179592899Y-77035833D01*
X179691616Y-77096683D01*
X179702253Y-77103240D01*
X179749746Y-77156012D01*
X179761170Y-77226084D01*
X179732896Y-77291208D01*
X179673902Y-77330707D01*
X179636137Y-77336500D01*
X178982100Y-77336500D01*
X178978854Y-77336837D01*
X178978850Y-77336837D01*
X178883192Y-77346762D01*
X178883188Y-77346763D01*
X178876334Y-77347474D01*
X178869798Y-77349655D01*
X178869796Y-77349655D01*
X178751782Y-77389028D01*
X178708554Y-77403450D01*
X178558152Y-77496522D01*
X178552979Y-77501704D01*
X178450609Y-77604252D01*
X178388326Y-77638331D01*
X178317506Y-77633328D01*
X178310187Y-77630341D01*
X178302414Y-77626880D01*
X178222288Y-77591206D01*
X178128887Y-77571353D01*
X178041944Y-77552872D01*
X178041939Y-77552872D01*
X178035487Y-77551500D01*
X177844513Y-77551500D01*
X177838061Y-77552872D01*
X177838056Y-77552872D01*
X177751113Y-77571353D01*
X177657712Y-77591206D01*
X177651682Y-77593891D01*
X177651681Y-77593891D01*
X177489278Y-77666197D01*
X177489276Y-77666198D01*
X177483248Y-77668882D01*
X177328747Y-77781134D01*
X177324326Y-77786044D01*
X177324325Y-77786045D01*
X177213115Y-77909557D01*
X177200960Y-77923056D01*
X177105473Y-78088444D01*
X177046458Y-78270072D01*
X177045768Y-78276633D01*
X177045768Y-78276635D01*
X177035938Y-78370161D01*
X177026496Y-78460000D01*
X175668500Y-78460000D01*
X175668500Y-70269295D01*
X186769551Y-70269295D01*
X186769848Y-70274448D01*
X186769848Y-70274451D01*
X186775311Y-70369190D01*
X186782410Y-70492315D01*
X186783547Y-70497361D01*
X186783548Y-70497367D01*
X186803419Y-70585539D01*
X186831522Y-70710239D01*
X186915566Y-70917216D01*
X187032287Y-71107688D01*
X187178550Y-71276538D01*
X187350426Y-71419232D01*
X187424255Y-71462374D01*
X187472979Y-71514012D01*
X187486050Y-71583795D01*
X187459319Y-71649567D01*
X187418862Y-71682927D01*
X187410757Y-71687146D01*
X187402038Y-71692636D01*
X187231733Y-71820505D01*
X187224026Y-71827348D01*
X187076890Y-71981317D01*
X187070404Y-71989327D01*
X186950398Y-72165249D01*
X186945300Y-72174223D01*
X186855638Y-72367383D01*
X186852075Y-72377070D01*
X186796689Y-72576783D01*
X186798212Y-72585207D01*
X186810592Y-72588600D01*
X189450644Y-72588600D01*
X189464175Y-72584627D01*
X189465480Y-72575547D01*
X189423514Y-72408475D01*
X189420194Y-72398724D01*
X189335272Y-72203414D01*
X189330405Y-72194339D01*
X189214726Y-72015526D01*
X189208436Y-72007357D01*
X189065106Y-71849840D01*
X189057573Y-71842815D01*
X188890439Y-71710822D01*
X188881856Y-71705120D01*
X188844902Y-71684720D01*
X188794931Y-71634287D01*
X188780159Y-71564845D01*
X188805275Y-71498439D01*
X188832627Y-71471832D01*
X188856097Y-71455091D01*
X189012160Y-71343773D01*
X189170396Y-71186089D01*
X189229894Y-71103289D01*
X189297735Y-71008877D01*
X189300753Y-71004677D01*
X189399730Y-70804411D01*
X189448792Y-70642931D01*
X189463165Y-70595623D01*
X189463165Y-70595621D01*
X189464670Y-70590669D01*
X189493829Y-70369190D01*
X189495456Y-70302600D01*
X189477152Y-70079961D01*
X189422731Y-69863302D01*
X189333654Y-69658440D01*
X189287499Y-69587095D01*
X207837001Y-69587095D01*
X207837338Y-69593614D01*
X207847257Y-69689206D01*
X207850149Y-69702600D01*
X207901588Y-69856784D01*
X207907761Y-69869962D01*
X207993063Y-70007807D01*
X208002099Y-70019208D01*
X208116829Y-70133739D01*
X208128240Y-70142751D01*
X208266243Y-70227816D01*
X208279424Y-70233963D01*
X208433710Y-70285138D01*
X208447086Y-70288005D01*
X208541438Y-70297672D01*
X208547854Y-70298000D01*
X208735385Y-70298000D01*
X208750624Y-70293525D01*
X208751829Y-70292135D01*
X208753500Y-70284452D01*
X208753500Y-70279884D01*
X209261500Y-70279884D01*
X209265975Y-70295123D01*
X209267365Y-70296328D01*
X209275048Y-70297999D01*
X209467095Y-70297999D01*
X209473614Y-70297662D01*
X209569206Y-70287743D01*
X209582600Y-70284851D01*
X209736784Y-70233412D01*
X209749962Y-70227239D01*
X209887807Y-70141937D01*
X209899208Y-70132901D01*
X210013739Y-70018171D01*
X210022751Y-70006760D01*
X210107816Y-69868757D01*
X210113963Y-69855576D01*
X210165138Y-69701290D01*
X210168005Y-69687914D01*
X210177672Y-69593562D01*
X210177834Y-69590400D01*
X210961500Y-69590400D01*
X210961837Y-69593646D01*
X210961837Y-69593650D01*
X210971752Y-69689206D01*
X210972474Y-69696166D01*
X211028450Y-69863946D01*
X211121522Y-70014348D01*
X211246697Y-70139305D01*
X211252927Y-70143145D01*
X211252928Y-70143146D01*
X211390288Y-70227816D01*
X211397262Y-70232115D01*
X211477005Y-70258564D01*
X211558611Y-70285632D01*
X211558613Y-70285632D01*
X211565139Y-70287797D01*
X211571975Y-70288497D01*
X211571978Y-70288498D01*
X211615031Y-70292909D01*
X211669600Y-70298500D01*
X212595400Y-70298500D01*
X212598646Y-70298163D01*
X212598650Y-70298163D01*
X212694308Y-70288238D01*
X212694312Y-70288237D01*
X212701166Y-70287526D01*
X212707702Y-70285345D01*
X212707704Y-70285345D01*
X212839806Y-70241272D01*
X212868946Y-70231550D01*
X213019348Y-70138478D01*
X213144305Y-70013303D01*
X213237115Y-69862738D01*
X213292797Y-69694861D01*
X213303500Y-69590400D01*
X213303500Y-69195716D01*
X213323502Y-69127595D01*
X213377158Y-69081102D01*
X213409786Y-69071268D01*
X213411970Y-69070922D01*
X213419889Y-69070673D01*
X213439343Y-69065021D01*
X213458700Y-69061013D01*
X213470930Y-69059468D01*
X213470931Y-69059468D01*
X213478797Y-69058474D01*
X213486168Y-69055555D01*
X213486170Y-69055555D01*
X213519912Y-69042196D01*
X213531142Y-69038351D01*
X213565983Y-69028229D01*
X213565984Y-69028229D01*
X213573593Y-69026018D01*
X213580412Y-69021985D01*
X213580417Y-69021983D01*
X213591028Y-69015707D01*
X213608776Y-69007012D01*
X213627617Y-68999552D01*
X213660347Y-68975773D01*
X213663387Y-68973564D01*
X213673307Y-68967048D01*
X213704535Y-68948580D01*
X213704538Y-68948578D01*
X213711362Y-68944542D01*
X213725683Y-68930221D01*
X213740717Y-68917380D01*
X213750694Y-68910131D01*
X213757107Y-68905472D01*
X213785298Y-68871395D01*
X213793288Y-68862616D01*
X214020499Y-68635405D01*
X214082811Y-68601379D01*
X214109594Y-68598500D01*
X214165487Y-68598500D01*
X214171939Y-68597128D01*
X214171944Y-68597128D01*
X214258887Y-68578647D01*
X214352288Y-68558794D01*
X214358319Y-68556109D01*
X214520722Y-68483803D01*
X214520724Y-68483802D01*
X214526752Y-68481118D01*
X214681253Y-68368866D01*
X214809040Y-68226944D01*
X214904527Y-68061556D01*
X214963542Y-67879928D01*
X214967252Y-67844635D01*
X214982814Y-67696565D01*
X214983504Y-67690000D01*
X214963542Y-67500072D01*
X214904527Y-67318444D01*
X214809040Y-67153056D01*
X214681253Y-67011134D01*
X214526752Y-66898882D01*
X214520724Y-66896198D01*
X214520722Y-66896197D01*
X214358319Y-66823891D01*
X214358318Y-66823891D01*
X214352288Y-66821206D01*
X214258887Y-66801353D01*
X214171944Y-66782872D01*
X214171939Y-66782872D01*
X214165487Y-66781500D01*
X213974513Y-66781500D01*
X213968061Y-66782872D01*
X213968056Y-66782872D01*
X213881113Y-66801353D01*
X213787712Y-66821206D01*
X213781682Y-66823891D01*
X213781681Y-66823891D01*
X213619278Y-66896197D01*
X213619276Y-66896198D01*
X213613248Y-66898882D01*
X213458747Y-67011134D01*
X213437593Y-67034628D01*
X213377150Y-67071866D01*
X213306166Y-67070515D01*
X213247181Y-67031001D01*
X213237352Y-67015557D01*
X213236550Y-67016054D01*
X213147332Y-66871880D01*
X213143478Y-66865652D01*
X213018303Y-66740695D01*
X213012072Y-66736854D01*
X212873968Y-66651725D01*
X212873966Y-66651724D01*
X212867738Y-66647885D01*
X212787995Y-66621436D01*
X212706389Y-66594368D01*
X212706387Y-66594368D01*
X212699861Y-66592203D01*
X212693025Y-66591503D01*
X212693022Y-66591502D01*
X212649969Y-66587091D01*
X212595400Y-66581500D01*
X211669600Y-66581500D01*
X211666354Y-66581837D01*
X211666350Y-66581837D01*
X211570692Y-66591762D01*
X211570688Y-66591763D01*
X211563834Y-66592474D01*
X211557298Y-66594655D01*
X211557296Y-66594655D01*
X211540928Y-66600116D01*
X211396054Y-66648450D01*
X211245652Y-66741522D01*
X211120695Y-66866697D01*
X211116855Y-66872927D01*
X211116854Y-66872928D01*
X211098464Y-66902763D01*
X211027885Y-67017262D01*
X210972203Y-67185139D01*
X210961500Y-67289600D01*
X210961500Y-69590400D01*
X210177834Y-69590400D01*
X210178000Y-69587146D01*
X210178000Y-68712115D01*
X210173525Y-68696876D01*
X210172135Y-68695671D01*
X210164452Y-68694000D01*
X209279615Y-68694000D01*
X209264376Y-68698475D01*
X209263171Y-68699865D01*
X209261500Y-68707548D01*
X209261500Y-70279884D01*
X208753500Y-70279884D01*
X208753500Y-68712115D01*
X208749025Y-68696876D01*
X208747635Y-68695671D01*
X208739952Y-68694000D01*
X207855116Y-68694000D01*
X207839877Y-68698475D01*
X207838672Y-68699865D01*
X207837001Y-68707548D01*
X207837001Y-69587095D01*
X189287499Y-69587095D01*
X189212314Y-69470877D01*
X189061970Y-69305651D01*
X189057919Y-69302452D01*
X189057915Y-69302448D01*
X188890714Y-69170400D01*
X188890710Y-69170398D01*
X188886659Y-69167198D01*
X188691089Y-69059238D01*
X188686220Y-69057514D01*
X188686216Y-69057512D01*
X188485387Y-68986395D01*
X188485383Y-68986394D01*
X188480512Y-68984669D01*
X188475419Y-68983762D01*
X188475416Y-68983761D01*
X188265673Y-68946400D01*
X188265667Y-68946399D01*
X188260584Y-68945494D01*
X188186752Y-68944592D01*
X188042381Y-68942828D01*
X188042379Y-68942828D01*
X188037211Y-68942765D01*
X187816391Y-68976555D01*
X187604056Y-69045957D01*
X187405907Y-69149107D01*
X187401774Y-69152210D01*
X187401771Y-69152212D01*
X187231400Y-69280130D01*
X187227265Y-69283235D01*
X187072929Y-69444738D01*
X186947043Y-69629280D01*
X186915996Y-69696166D01*
X186870606Y-69793951D01*
X186852988Y-69831905D01*
X186793289Y-70047170D01*
X186769551Y-70269295D01*
X175668500Y-70269295D01*
X175668500Y-68167885D01*
X207837000Y-68167885D01*
X207841475Y-68183124D01*
X207842865Y-68184329D01*
X207850548Y-68186000D01*
X208735385Y-68186000D01*
X208750624Y-68181525D01*
X208751829Y-68180135D01*
X208753500Y-68172452D01*
X208753500Y-68167885D01*
X209261500Y-68167885D01*
X209265975Y-68183124D01*
X209267365Y-68184329D01*
X209275048Y-68186000D01*
X210159884Y-68186000D01*
X210175123Y-68181525D01*
X210176328Y-68180135D01*
X210177999Y-68172452D01*
X210177999Y-67292905D01*
X210177662Y-67286386D01*
X210167743Y-67190794D01*
X210164851Y-67177400D01*
X210113412Y-67023216D01*
X210107239Y-67010038D01*
X210021937Y-66872193D01*
X210012901Y-66860792D01*
X209898171Y-66746261D01*
X209886760Y-66737249D01*
X209748757Y-66652184D01*
X209735576Y-66646037D01*
X209581290Y-66594862D01*
X209567914Y-66591995D01*
X209473562Y-66582328D01*
X209467145Y-66582000D01*
X209279615Y-66582000D01*
X209264376Y-66586475D01*
X209263171Y-66587865D01*
X209261500Y-66595548D01*
X209261500Y-68167885D01*
X208753500Y-68167885D01*
X208753500Y-66600116D01*
X208749025Y-66584877D01*
X208747635Y-66583672D01*
X208739952Y-66582001D01*
X208547905Y-66582001D01*
X208541386Y-66582338D01*
X208445794Y-66592257D01*
X208432400Y-66595149D01*
X208278216Y-66646588D01*
X208265038Y-66652761D01*
X208127193Y-66738063D01*
X208115792Y-66747099D01*
X208001261Y-66861829D01*
X207992249Y-66873240D01*
X207907184Y-67011243D01*
X207901037Y-67024424D01*
X207849862Y-67178710D01*
X207846995Y-67192086D01*
X207837328Y-67286438D01*
X207837000Y-67292855D01*
X207837000Y-68167885D01*
X175668500Y-68167885D01*
X175668500Y-65036062D01*
X207478493Y-65036062D01*
X207487789Y-65048077D01*
X207538994Y-65083931D01*
X207548489Y-65089414D01*
X207745947Y-65181490D01*
X207756239Y-65185236D01*
X207966688Y-65241625D01*
X207977481Y-65243528D01*
X208194525Y-65262517D01*
X208205475Y-65262517D01*
X208422519Y-65243528D01*
X208433312Y-65241625D01*
X208643761Y-65185236D01*
X208654053Y-65181490D01*
X208851511Y-65089414D01*
X208861006Y-65083931D01*
X208913048Y-65047491D01*
X208921424Y-65037012D01*
X208914356Y-65023566D01*
X208212812Y-64322022D01*
X208198868Y-64314408D01*
X208197035Y-64314539D01*
X208190420Y-64318790D01*
X207484923Y-65024287D01*
X207478493Y-65036062D01*
X175668500Y-65036062D01*
X175668500Y-63955475D01*
X206887483Y-63955475D01*
X206906472Y-64172519D01*
X206908375Y-64183312D01*
X206964764Y-64393761D01*
X206968510Y-64404053D01*
X207060586Y-64601511D01*
X207066069Y-64611006D01*
X207102509Y-64663048D01*
X207112988Y-64671424D01*
X207126434Y-64664356D01*
X207827978Y-63962812D01*
X207834356Y-63951132D01*
X208564408Y-63951132D01*
X208564539Y-63952965D01*
X208568790Y-63959580D01*
X209274287Y-64665077D01*
X209286062Y-64671507D01*
X209298077Y-64662211D01*
X209333931Y-64611006D01*
X209339414Y-64601511D01*
X209431490Y-64404053D01*
X209435236Y-64393761D01*
X209491625Y-64183312D01*
X209493528Y-64172519D01*
X209511269Y-63969737D01*
X216786546Y-63969737D01*
X216787072Y-63975051D01*
X216797254Y-64077979D01*
X216797415Y-64079730D01*
X216806617Y-64188175D01*
X216807959Y-64193345D01*
X216808725Y-64197826D01*
X216809554Y-64202298D01*
X216810079Y-64207607D01*
X216811491Y-64212749D01*
X216838874Y-64312501D01*
X216839322Y-64314180D01*
X216866668Y-64419540D01*
X216868862Y-64424409D01*
X216870384Y-64428732D01*
X216871942Y-64432966D01*
X216873354Y-64438111D01*
X216875614Y-64442946D01*
X216919415Y-64536664D01*
X216920147Y-64538259D01*
X216964843Y-64637480D01*
X216967823Y-64641907D01*
X216970037Y-64645885D01*
X216972304Y-64649827D01*
X216974562Y-64654658D01*
X216977601Y-64659038D01*
X216977604Y-64659044D01*
X217036554Y-64744018D01*
X217037548Y-64745472D01*
X217098334Y-64835762D01*
X217102020Y-64839626D01*
X217105360Y-64843780D01*
X217105115Y-64843977D01*
X217105616Y-64844591D01*
X217105858Y-64844399D01*
X217108441Y-64847644D01*
X217110809Y-64851057D01*
X217113602Y-64854127D01*
X217113604Y-64854129D01*
X217126689Y-64868510D01*
X217126701Y-64868522D01*
X217127695Y-64869615D01*
X217190337Y-64932257D01*
X217192371Y-64934338D01*
X217229055Y-64972793D01*
X217233036Y-64977168D01*
X217264493Y-65013419D01*
X217268619Y-65016802D01*
X217268623Y-65016806D01*
X217306047Y-65047491D01*
X217348640Y-65082416D01*
X217349892Y-65083457D01*
X217433145Y-65153686D01*
X217437743Y-65156389D01*
X217441463Y-65159023D01*
X217445216Y-65161602D01*
X217449333Y-65164978D01*
X217453957Y-65167610D01*
X217453964Y-65167615D01*
X217543898Y-65218808D01*
X217545371Y-65219660D01*
X217582735Y-65241625D01*
X217634600Y-65272115D01*
X217634603Y-65272116D01*
X217639207Y-65274823D01*
X217644204Y-65276716D01*
X217648361Y-65278708D01*
X217652429Y-65280588D01*
X217657066Y-65283227D01*
X217724477Y-65307696D01*
X217759334Y-65320348D01*
X217760984Y-65320960D01*
X217862734Y-65359510D01*
X217867974Y-65360533D01*
X217872335Y-65361776D01*
X217876739Y-65362964D01*
X217881753Y-65364784D01*
X217887002Y-65365733D01*
X217887005Y-65365734D01*
X217988774Y-65384137D01*
X217990502Y-65384462D01*
X218092096Y-65404302D01*
X218092104Y-65404303D01*
X218097333Y-65405324D01*
X218102663Y-65405449D01*
X218107973Y-65406026D01*
X218107932Y-65406403D01*
X218108710Y-65406482D01*
X218108752Y-65406110D01*
X218112880Y-65406578D01*
X218116969Y-65407318D01*
X218121123Y-65407514D01*
X218121124Y-65407514D01*
X218140544Y-65408430D01*
X218140551Y-65408430D01*
X218142032Y-65408500D01*
X218230631Y-65408500D01*
X218233600Y-65408535D01*
X218336298Y-65410955D01*
X218343922Y-65409836D01*
X218362219Y-65408500D01*
X223238411Y-65408500D01*
X223306532Y-65428502D01*
X223313963Y-65433664D01*
X223379586Y-65482846D01*
X223383965Y-65486128D01*
X223426479Y-65542988D01*
X223431504Y-65613807D01*
X223415832Y-65652788D01*
X223307073Y-65830268D01*
X223213195Y-66056908D01*
X223155928Y-66295443D01*
X223136681Y-66540000D01*
X223155928Y-66784557D01*
X223157082Y-66789364D01*
X223157083Y-66789370D01*
X223165371Y-66823891D01*
X223213195Y-67023092D01*
X223215088Y-67027663D01*
X223215089Y-67027665D01*
X223232838Y-67070515D01*
X223307073Y-67249732D01*
X223435248Y-67458896D01*
X223594567Y-67645433D01*
X223598323Y-67648641D01*
X223675069Y-67714189D01*
X223713878Y-67773640D01*
X223714384Y-67844635D01*
X223675069Y-67905811D01*
X223594567Y-67974567D01*
X223435248Y-68161104D01*
X223432660Y-68165327D01*
X223432658Y-68165330D01*
X223428294Y-68172452D01*
X223307073Y-68370268D01*
X223213195Y-68596908D01*
X223155928Y-68835443D01*
X223136681Y-69080000D01*
X223155928Y-69324557D01*
X223213195Y-69563092D01*
X223215088Y-69567663D01*
X223215089Y-69567665D01*
X223238839Y-69625001D01*
X223307073Y-69789732D01*
X223435248Y-69998896D01*
X223438463Y-70002660D01*
X223438465Y-70002663D01*
X223557755Y-70142332D01*
X223594567Y-70185433D01*
X223598323Y-70188641D01*
X223735691Y-70305965D01*
X223781104Y-70344752D01*
X223785327Y-70347340D01*
X223785330Y-70347342D01*
X223820983Y-70369190D01*
X223990268Y-70472927D01*
X224134967Y-70532864D01*
X224212335Y-70564911D01*
X224212337Y-70564912D01*
X224216908Y-70566805D01*
X224294941Y-70585539D01*
X224450630Y-70622917D01*
X224450636Y-70622918D01*
X224455443Y-70624072D01*
X224700000Y-70643319D01*
X224944557Y-70624072D01*
X224949364Y-70622918D01*
X224949370Y-70622917D01*
X225105059Y-70585539D01*
X225183092Y-70566805D01*
X225187663Y-70564912D01*
X225187665Y-70564911D01*
X225265033Y-70532864D01*
X225409732Y-70472927D01*
X225579017Y-70369190D01*
X225614670Y-70347342D01*
X225614673Y-70347340D01*
X225618896Y-70344752D01*
X225664310Y-70305965D01*
X225801677Y-70188641D01*
X225805433Y-70185433D01*
X225842245Y-70142332D01*
X225961535Y-70002663D01*
X225961537Y-70002660D01*
X225964752Y-69998896D01*
X226092927Y-69789732D01*
X226161161Y-69625001D01*
X226184911Y-69567665D01*
X226184912Y-69567663D01*
X226186805Y-69563092D01*
X226244072Y-69324557D01*
X226263319Y-69080000D01*
X226244072Y-68835443D01*
X226186805Y-68596908D01*
X226092927Y-68370268D01*
X225971706Y-68172452D01*
X225967342Y-68165330D01*
X225967340Y-68165327D01*
X225964752Y-68161104D01*
X225805433Y-67974567D01*
X225724931Y-67905811D01*
X225686122Y-67846360D01*
X225685616Y-67775365D01*
X225724931Y-67714189D01*
X225801677Y-67648641D01*
X225805433Y-67645433D01*
X225964752Y-67458896D01*
X226092927Y-67249732D01*
X226167162Y-67070515D01*
X226184911Y-67027665D01*
X226184912Y-67027663D01*
X226186805Y-67023092D01*
X226234629Y-66823891D01*
X226242917Y-66789370D01*
X226242918Y-66789364D01*
X226244072Y-66784557D01*
X226263319Y-66540000D01*
X226244072Y-66295443D01*
X226186805Y-66056908D01*
X226092927Y-65830268D01*
X225984168Y-65652788D01*
X225965630Y-65584255D01*
X225987087Y-65516578D01*
X226016035Y-65486128D01*
X226022987Y-65480918D01*
X226113261Y-65413261D01*
X226200615Y-65296705D01*
X226251745Y-65160316D01*
X226258500Y-65098134D01*
X226258500Y-62901866D01*
X226251745Y-62839684D01*
X226200615Y-62703295D01*
X226113261Y-62586739D01*
X225996705Y-62499385D01*
X225860316Y-62448255D01*
X225798134Y-62441500D01*
X223601866Y-62441500D01*
X223539684Y-62448255D01*
X223403295Y-62499385D01*
X223343253Y-62544384D01*
X223313976Y-62566326D01*
X223247470Y-62591174D01*
X223238411Y-62591500D01*
X218674396Y-62591500D01*
X218637032Y-62585832D01*
X218508651Y-62545968D01*
X218508645Y-62545967D01*
X218503548Y-62544384D01*
X218376117Y-62527494D01*
X218271873Y-62513677D01*
X218271869Y-62513677D01*
X218266589Y-62512977D01*
X218261260Y-62513177D01*
X218261259Y-62513177D01*
X218163491Y-62516848D01*
X218027726Y-62521945D01*
X217940816Y-62540181D01*
X217799016Y-62569933D01*
X217799013Y-62569934D01*
X217793789Y-62571030D01*
X217571467Y-62658829D01*
X217367117Y-62782832D01*
X217363087Y-62786329D01*
X217226005Y-62905283D01*
X217186581Y-62939493D01*
X217183198Y-62943619D01*
X217183194Y-62943623D01*
X217081103Y-63068133D01*
X217035022Y-63124333D01*
X216916773Y-63332066D01*
X216835216Y-63556753D01*
X216834267Y-63562002D01*
X216834266Y-63562005D01*
X216830025Y-63585461D01*
X216804288Y-63727789D01*
X216803428Y-63731302D01*
X216803395Y-63731762D01*
X216802701Y-63733235D01*
X216803284Y-63733341D01*
X216792682Y-63791969D01*
X216791500Y-63817032D01*
X216791500Y-63895319D01*
X216791185Y-63904218D01*
X216787734Y-63952965D01*
X216786546Y-63969737D01*
X209511269Y-63969737D01*
X209512517Y-63955475D01*
X209512517Y-63944525D01*
X209493528Y-63727481D01*
X209491625Y-63716688D01*
X209435236Y-63506239D01*
X209431490Y-63495947D01*
X209339414Y-63298489D01*
X209333931Y-63288994D01*
X209297491Y-63236952D01*
X209287012Y-63228576D01*
X209273566Y-63235644D01*
X208572022Y-63937188D01*
X208564408Y-63951132D01*
X207834356Y-63951132D01*
X207835592Y-63948868D01*
X207835461Y-63947035D01*
X207831210Y-63940420D01*
X207125713Y-63234923D01*
X207113938Y-63228493D01*
X207101923Y-63237789D01*
X207066069Y-63288994D01*
X207060586Y-63298489D01*
X206968510Y-63495947D01*
X206964764Y-63506239D01*
X206908375Y-63716688D01*
X206906472Y-63727481D01*
X206887483Y-63944525D01*
X206887483Y-63955475D01*
X175668500Y-63955475D01*
X175668500Y-62862988D01*
X207478576Y-62862988D01*
X207485644Y-62876434D01*
X208187188Y-63577978D01*
X208201132Y-63585592D01*
X208202965Y-63585461D01*
X208209580Y-63581210D01*
X208915077Y-62875713D01*
X208921507Y-62863938D01*
X208912211Y-62851923D01*
X208861006Y-62816069D01*
X208851511Y-62810586D01*
X208654053Y-62718510D01*
X208643761Y-62714764D01*
X208433312Y-62658375D01*
X208422519Y-62656472D01*
X208205475Y-62637483D01*
X208194525Y-62637483D01*
X207977481Y-62656472D01*
X207966688Y-62658375D01*
X207756239Y-62714764D01*
X207745947Y-62718510D01*
X207548489Y-62810586D01*
X207538994Y-62816069D01*
X207486952Y-62852509D01*
X207478576Y-62862988D01*
X175668500Y-62862988D01*
X175668500Y-61924500D01*
X175688502Y-61856379D01*
X175742158Y-61809886D01*
X175794500Y-61798500D01*
X229975500Y-61798500D01*
X230043621Y-61818502D01*
G37*
%TD.AperFunction*%
%TD*%
M02*
