M48
; DRILL file {KiCad 6.0.11-2627ca5db0~126~ubuntu22.04.1} date Fri 03 Mar 2023 02:57:04 PM EST
; FORMAT={-:-/ absolute / inch / decimal}
; #@! TF.CreationDate,2023-03-03T14:57:04-05:00
; #@! TF.GenerationSoftware,Kicad,Pcbnew,6.0.11-2627ca5db0~126~ubuntu22.04.1
; #@! TF.FileFunction,Plated,1,4,PTH
FMAT,2
INCH
; #@! TA.AperFunction,Plated,PTH,ViaDrill
T1C0.0157
; #@! TA.AperFunction,Plated,PTH,ComponentDrill
T2C0.0315
; #@! TA.AperFunction,Plated,PTH,ComponentDrill
T3C0.0394
; #@! TA.AperFunction,Plated,PTH,ComponentDrill
T4C0.0400
; #@! TA.AperFunction,Plated,PTH,ComponentDrill
T5C0.0433
%
G90
G05
T1
X7.0055Y-3.089
X7.0425Y-2.9827
X7.1634Y-3.5453
X7.287Y-3.1035
X7.3002Y-3.5561
X7.3799Y-3.56
X7.4846Y-3.2787
X7.502Y-3.5423
X7.6071Y-3.3358
X7.6122Y-3.6287
X7.628Y-3.2079
X7.6467Y-3.5315
X7.6701Y-3.4614
X7.7746Y-3.688
X7.7933Y-3.6093
X7.798Y-3.1173
X7.8425Y-3.2116
X7.8435Y-3.6073
X7.8937Y-3.2618
X7.9006Y-3.6191
X7.9862Y-3.4715
X8.0197Y-3.4183
X8.0679Y-3.6732
X8.0738Y-3.625
X8.0921Y-3.7378
X8.1122Y-3.6846
X8.1217Y-3.7737
X8.1299Y-3.5453
X8.1368Y-3.81
X8.1713Y-3.6201
X8.1732Y-3.4065
X8.19Y-3.5276
X8.2571Y-2.9969
X8.2571Y-3.0713
X8.2819Y-3.7264
X8.2957Y-3.0258
X8.4193Y-3.3583
X8.428Y-2.665
X8.4622Y-2.9394
X8.515Y-3.0181
X8.6189Y-3.5236
X8.6543Y-3.8
X8.7177Y-3.3059
X8.8618Y-3.7449
T2
X8.1969Y-2.5177
X8.5906Y-2.5177
T3
X7.0925Y-3.2323
X7.1925Y-3.2323
X7.2925Y-3.2323
X7.3925Y-3.2323
X7.4068Y-2.7678
X7.4068Y-2.8678
X7.4068Y-2.9678
X7.4068Y-3.0678
T4
X8.4181Y-3.6142
X8.5181Y-3.6142
X8.6181Y-3.6142
X8.7181Y-3.6142
X8.8181Y-3.6142
X8.9181Y-3.6142
T5
X8.8465Y-2.5197
X8.8465Y-2.6197
X8.8465Y-2.7197
X8.8465Y-2.9577
X8.8465Y-3.0577
T0
M30
