%TF.GenerationSoftware,KiCad,Pcbnew,6.0.11-2627ca5db0~126~ubuntu22.04.1*%
%TF.CreationDate,2023-03-03T14:57:15-05:00*%
%TF.ProjectId,lin-peltier-control,6c696e2d-7065-46c7-9469-65722d636f6e,1.0*%
%TF.SameCoordinates,Original*%
%TF.FileFunction,Soldermask,Bot*%
%TF.FilePolarity,Negative*%
%FSLAX46Y46*%
G04 Gerber Fmt 4.6, Leading zero omitted, Abs format (unit mm)*
G04 Created by KiCad (PCBNEW 6.0.11-2627ca5db0~126~ubuntu22.04.1) date 2023-03-03 14:57:15*
%MOMM*%
%LPD*%
G01*
G04 APERTURE LIST*
G04 Aperture macros list*
%AMRoundRect*
0 Rectangle with rounded corners*
0 $1 Rounding radius*
0 $2 $3 $4 $5 $6 $7 $8 $9 X,Y pos of 4 corners*
0 Add a 4 corners polygon primitive as box body*
4,1,4,$2,$3,$4,$5,$6,$7,$8,$9,$2,$3,0*
0 Add four circle primitives for the rounded corners*
1,1,$1+$1,$2,$3*
1,1,$1+$1,$4,$5*
1,1,$1+$1,$6,$7*
1,1,$1+$1,$8,$9*
0 Add four rect primitives between the rounded corners*
20,1,$1+$1,$2,$3,$4,$5,0*
20,1,$1+$1,$4,$5,$6,$7,0*
20,1,$1+$1,$6,$7,$8,$9,0*
20,1,$1+$1,$8,$9,$2,$3,0*%
%AMFreePoly0*
4,1,6,1.000000,0.000000,0.500000,-0.750000,-0.500000,-0.750000,-0.500000,0.750000,0.500000,0.750000,1.000000,0.000000,1.000000,0.000000,$1*%
%AMFreePoly1*
4,1,6,0.500000,-0.750000,-0.650000,-0.750000,-0.150000,0.000000,-0.650000,0.750000,0.500000,0.750000,0.500000,-0.750000,0.500000,-0.750000,$1*%
G04 Aperture macros list end*
%ADD10C,1.600000*%
%ADD11R,1.700000X1.700000*%
%ADD12O,1.700000X1.700000*%
%ADD13R,2.100000X2.100000*%
%ADD14C,2.100000*%
%ADD15R,1.879600X1.879600*%
%ADD16C,1.879600*%
%ADD17RoundRect,0.250000X-0.350000X-0.450000X0.350000X-0.450000X0.350000X0.450000X-0.350000X0.450000X0*%
%ADD18RoundRect,0.250000X0.350000X0.450000X-0.350000X0.450000X-0.350000X-0.450000X0.350000X-0.450000X0*%
%ADD19RoundRect,0.250000X0.475000X-0.337500X0.475000X0.337500X-0.475000X0.337500X-0.475000X-0.337500X0*%
%ADD20R,0.450000X0.700000*%
%ADD21FreePoly0,0.000000*%
%ADD22FreePoly1,0.000000*%
%ADD23R,0.900000X1.200000*%
G04 APERTURE END LIST*
D10*
%TO.C,F1*%
X218200000Y-63950000D03*
X208200000Y-63950000D03*
%TD*%
D11*
%TO.C,J2*%
X180150000Y-82100000D03*
D12*
X182690000Y-82100000D03*
X185230000Y-82100000D03*
X187770000Y-82100000D03*
%TD*%
D13*
%TO.C,J4*%
X224700000Y-75125000D03*
D14*
X224700000Y-77665000D03*
%TD*%
D11*
%TO.C,U3*%
X188132300Y-77922600D03*
D12*
X188132300Y-75382600D03*
X188132300Y-72842600D03*
X188132300Y-70302600D03*
%TD*%
D13*
%TO.C,J3*%
X224700000Y-64000000D03*
D14*
X224700000Y-66540000D03*
X224700000Y-69080000D03*
%TD*%
D15*
%TO.C,J1*%
X226520000Y-91800000D03*
D16*
X223980000Y-91800000D03*
X221440000Y-91800000D03*
X218900000Y-91800000D03*
X216360000Y-91800000D03*
X213820000Y-91800000D03*
%TD*%
D17*
%TO.C,R6*%
X216550000Y-95090000D03*
X218550000Y-95090000D03*
%TD*%
%TO.C,R3*%
X195650000Y-89750000D03*
X197650000Y-89750000D03*
%TD*%
%TO.C,R7*%
X182400000Y-84725000D03*
X184400000Y-84725000D03*
%TD*%
D18*
%TO.C,R4*%
X201425000Y-89750000D03*
X199425000Y-89750000D03*
%TD*%
D19*
%TO.C,C2*%
X221775000Y-68750000D03*
X221775000Y-66675000D03*
%TD*%
D17*
%TO.C,R8*%
X186375000Y-84775000D03*
X188375000Y-84775000D03*
%TD*%
%TO.C,R9*%
X182300000Y-88450000D03*
X184300000Y-88450000D03*
%TD*%
D20*
%TO.C,D4*%
X221460000Y-89060000D03*
X220160000Y-89060000D03*
X220810000Y-87060000D03*
%TD*%
D21*
%TO.C,JP1*%
X221400000Y-95060000D03*
D22*
X222850000Y-95060000D03*
%TD*%
D18*
%TO.C,R10*%
X190525000Y-88425000D03*
X188525000Y-88425000D03*
%TD*%
D23*
%TO.C,D2*%
X214700000Y-94840000D03*
X211400000Y-94840000D03*
%TD*%
D18*
%TO.C,R22*%
X220680000Y-85270000D03*
X218680000Y-85270000D03*
%TD*%
M02*
