%TF.GenerationSoftware,KiCad,Pcbnew,6.0.11-2627ca5db0~126~ubuntu22.04.1*%
%TF.CreationDate,2023-03-03T14:57:14-05:00*%
%TF.ProjectId,lin-peltier-control,6c696e2d-7065-46c7-9469-65722d636f6e,1.0*%
%TF.SameCoordinates,Original*%
%TF.FileFunction,Copper,L4,Bot*%
%TF.FilePolarity,Positive*%
%FSLAX46Y46*%
G04 Gerber Fmt 4.6, Leading zero omitted, Abs format (unit mm)*
G04 Created by KiCad (PCBNEW 6.0.11-2627ca5db0~126~ubuntu22.04.1) date 2023-03-03 14:57:14*
%MOMM*%
%LPD*%
G01*
G04 APERTURE LIST*
G04 Aperture macros list*
%AMRoundRect*
0 Rectangle with rounded corners*
0 $1 Rounding radius*
0 $2 $3 $4 $5 $6 $7 $8 $9 X,Y pos of 4 corners*
0 Add a 4 corners polygon primitive as box body*
4,1,4,$2,$3,$4,$5,$6,$7,$8,$9,$2,$3,0*
0 Add four circle primitives for the rounded corners*
1,1,$1+$1,$2,$3*
1,1,$1+$1,$4,$5*
1,1,$1+$1,$6,$7*
1,1,$1+$1,$8,$9*
0 Add four rect primitives between the rounded corners*
20,1,$1+$1,$2,$3,$4,$5,0*
20,1,$1+$1,$4,$5,$6,$7,0*
20,1,$1+$1,$6,$7,$8,$9,0*
20,1,$1+$1,$8,$9,$2,$3,0*%
%AMFreePoly0*
4,1,6,1.000000,0.000000,0.500000,-0.750000,-0.500000,-0.750000,-0.500000,0.750000,0.500000,0.750000,1.000000,0.000000,1.000000,0.000000,$1*%
%AMFreePoly1*
4,1,6,0.500000,-0.750000,-0.650000,-0.750000,-0.150000,0.000000,-0.650000,0.750000,0.500000,0.750000,0.500000,-0.750000,0.500000,-0.750000,$1*%
G04 Aperture macros list end*
%TA.AperFunction,ComponentPad*%
%ADD10C,1.600000*%
%TD*%
%TA.AperFunction,ComponentPad*%
%ADD11R,1.700000X1.700000*%
%TD*%
%TA.AperFunction,ComponentPad*%
%ADD12O,1.700000X1.700000*%
%TD*%
%TA.AperFunction,ComponentPad*%
%ADD13R,2.100000X2.100000*%
%TD*%
%TA.AperFunction,ComponentPad*%
%ADD14C,2.100000*%
%TD*%
%TA.AperFunction,ComponentPad*%
%ADD15R,1.879600X1.879600*%
%TD*%
%TA.AperFunction,ComponentPad*%
%ADD16C,1.879600*%
%TD*%
%TA.AperFunction,SMDPad,CuDef*%
%ADD17RoundRect,0.250000X-0.350000X-0.450000X0.350000X-0.450000X0.350000X0.450000X-0.350000X0.450000X0*%
%TD*%
%TA.AperFunction,SMDPad,CuDef*%
%ADD18RoundRect,0.250000X0.350000X0.450000X-0.350000X0.450000X-0.350000X-0.450000X0.350000X-0.450000X0*%
%TD*%
%TA.AperFunction,SMDPad,CuDef*%
%ADD19RoundRect,0.250000X0.475000X-0.337500X0.475000X0.337500X-0.475000X0.337500X-0.475000X-0.337500X0*%
%TD*%
%TA.AperFunction,SMDPad,CuDef*%
%ADD20R,0.450000X0.700000*%
%TD*%
%TA.AperFunction,SMDPad,CuDef*%
%ADD21FreePoly0,0.000000*%
%TD*%
%TA.AperFunction,SMDPad,CuDef*%
%ADD22FreePoly1,0.000000*%
%TD*%
%TA.AperFunction,SMDPad,CuDef*%
%ADD23R,0.900000X1.200000*%
%TD*%
%TA.AperFunction,ViaPad*%
%ADD24C,0.800000*%
%TD*%
%TA.AperFunction,Conductor*%
%ADD25C,0.250000*%
%TD*%
G04 APERTURE END LIST*
D10*
%TO.P,F1,1*%
%TO.N,+BATT*%
X218200000Y-63950000D03*
%TO.P,F1,2*%
%TO.N,+12V*%
X208200000Y-63950000D03*
%TD*%
D11*
%TO.P,J2,1,Pin_1*%
%TO.N,GND*%
X180150000Y-82100000D03*
D12*
%TO.P,J2,2,Pin_2*%
%TO.N,+5V*%
X182690000Y-82100000D03*
%TO.P,J2,3,Pin_3*%
%TO.N,SDA5V*%
X185230000Y-82100000D03*
%TO.P,J2,4,Pin_4*%
%TO.N,SCL5V*%
X187770000Y-82100000D03*
%TD*%
D13*
%TO.P,J4,1,Pin_1*%
%TO.N,PELTIER+*%
X224700000Y-75125000D03*
D14*
%TO.P,J4,2,Pin_2*%
%TO.N,GND*%
X224700000Y-77665000D03*
%TD*%
D11*
%TO.P,U3,1,Vout*%
%TO.N,+5V*%
X188132300Y-77922600D03*
D12*
%TO.P,U3,2,GND*%
%TO.N,GND*%
X188132300Y-75382600D03*
%TO.P,U3,3,Vin*%
%TO.N,+12V*%
X188132300Y-72842600D03*
%TO.P,U3,4,EN*%
%TO.N,unconnected-(U3-Pad4)*%
X188132300Y-70302600D03*
%TD*%
D13*
%TO.P,J3,1,Pin_1*%
%TO.N,+BATT*%
X224700000Y-64000000D03*
D14*
%TO.P,J3,2,Pin_2*%
%TO.N,GND*%
X224700000Y-66540000D03*
%TO.P,J3,3,Pin_3*%
%TO.N,LIN*%
X224700000Y-69080000D03*
%TD*%
D15*
%TO.P,J1,1,DTR*%
%TO.N,unconnected-(J1-Pad1)*%
X226520000Y-91800000D03*
D16*
%TO.P,J1,2,RXD*%
%TO.N,UPDI*%
X223980000Y-91800000D03*
%TO.P,J1,3,TXD*%
%TO.N,Net-(R6-Pad2)*%
X221440000Y-91800000D03*
%TO.P,J1,4,VCC*%
%TO.N,Net-(JP1-Pad1)*%
X218900000Y-91800000D03*
%TO.P,J1,5,CTS*%
%TO.N,unconnected-(J1-Pad5)*%
X216360000Y-91800000D03*
%TO.P,J1,6,GND*%
%TO.N,GND*%
X213820000Y-91800000D03*
%TD*%
D17*
%TO.P,R6,1*%
%TO.N,Net-(D2-Pad1)*%
X216550000Y-95090000D03*
%TO.P,R6,2*%
%TO.N,Net-(R6-Pad2)*%
X218550000Y-95090000D03*
%TD*%
%TO.P,R3,1*%
%TO.N,+3V3*%
X195650000Y-89750000D03*
%TO.P,R3,2*%
%TO.N,~{LIN_SLP}*%
X197650000Y-89750000D03*
%TD*%
%TO.P,R7,1*%
%TO.N,+5V*%
X182400000Y-84725000D03*
%TO.P,R7,2*%
%TO.N,SDA5V*%
X184400000Y-84725000D03*
%TD*%
D18*
%TO.P,R4,1*%
%TO.N,+3V3*%
X201425000Y-89750000D03*
%TO.P,R4,2*%
%TO.N,~{LIN_WAKE}*%
X199425000Y-89750000D03*
%TD*%
D19*
%TO.P,C2,1*%
%TO.N,LIN*%
X221775000Y-68750000D03*
%TO.P,C2,2*%
%TO.N,GND*%
X221775000Y-66675000D03*
%TD*%
D17*
%TO.P,R8,1*%
%TO.N,+5V*%
X186375000Y-84775000D03*
%TO.P,R8,2*%
%TO.N,SCL5V*%
X188375000Y-84775000D03*
%TD*%
%TO.P,R9,1*%
%TO.N,+3V3*%
X182300000Y-88450000D03*
%TO.P,R9,2*%
%TO.N,SDA*%
X184300000Y-88450000D03*
%TD*%
D20*
%TO.P,D4,1*%
%TO.N,GND*%
X221460000Y-89060000D03*
%TO.P,D4,2*%
%TO.N,+12V*%
X220160000Y-89060000D03*
%TO.P,D4,3*%
%TO.N,Net-(D4-Pad3)*%
X220810000Y-87060000D03*
%TD*%
D21*
%TO.P,JP1,1,A*%
%TO.N,Net-(JP1-Pad1)*%
X221400000Y-95060000D03*
D22*
%TO.P,JP1,2,B*%
%TO.N,+3V3*%
X222850000Y-95060000D03*
%TD*%
D18*
%TO.P,R10,1*%
%TO.N,+3V3*%
X190525000Y-88425000D03*
%TO.P,R10,2*%
%TO.N,SCL*%
X188525000Y-88425000D03*
%TD*%
D23*
%TO.P,D2,1,K*%
%TO.N,Net-(D2-Pad1)*%
X214700000Y-94840000D03*
%TO.P,D2,2,A*%
%TO.N,UPDI*%
X211400000Y-94840000D03*
%TD*%
D18*
%TO.P,R22,1*%
%TO.N,Net-(D4-Pad3)*%
X220680000Y-85270000D03*
%TO.P,R22,2*%
%TO.N,GND*%
X218680000Y-85270000D03*
%TD*%
D24*
%TO.N,Net-(JP1-Pad1)*%
X219820000Y-96520000D03*
%TO.N,GND*%
X178880000Y-75760000D03*
X177940000Y-78460000D03*
X194820000Y-87920000D03*
X207550000Y-91950000D03*
X213850000Y-85300000D03*
X190110000Y-83280000D03*
X216280000Y-76660000D03*
X200500000Y-82850000D03*
X198070000Y-79180000D03*
X214070000Y-67690000D03*
X207600000Y-86525000D03*
X206500000Y-90050000D03*
%TO.N,+5V*%
X185090000Y-78830000D03*
X193750000Y-81480000D03*
%TO.N,Net-(D4-Pad3)*%
X221430000Y-83970000D03*
%TO.N,LIN*%
X199200000Y-81575000D03*
%TO.N,TXD*%
X205540000Y-94940000D03*
X200675000Y-91925000D03*
%TO.N,~{LIN_SLP}*%
X197950000Y-91675000D03*
X205075000Y-92075000D03*
%TO.N,~{LIN_WAKE}*%
X204925000Y-93300000D03*
X199225000Y-91625000D03*
%TO.N,SCL*%
X206290576Y-95852382D03*
X187450000Y-90425000D03*
X209730000Y-78010000D03*
X209730000Y-76120000D03*
%TO.N,SDA*%
X210710000Y-76854500D03*
X206675000Y-96775000D03*
X185425000Y-90325000D03*
%TO.N,+12V*%
X218920000Y-89500000D03*
%TO.N,UPDI*%
X210360000Y-94650000D03*
%TO.N,+3V3*%
X194225000Y-89700000D03*
X197475000Y-93675000D03*
X214940000Y-74660000D03*
X208025000Y-89600000D03*
X193220000Y-84730000D03*
X202850000Y-88175000D03*
X193350000Y-92170000D03*
X181950000Y-90050000D03*
X225090000Y-95120000D03*
X190550000Y-89975000D03*
%TO.N,Net-(R5-Pad1)*%
X206050000Y-93590000D03*
X203700000Y-86825000D03*
%TD*%
D25*
%TO.N,Net-(JP1-Pad1)*%
X219820000Y-96520000D02*
X219940000Y-96520000D01*
X219940000Y-96520000D02*
X221400000Y-95060000D01*
%TO.N,Net-(R6-Pad2)*%
X218550000Y-95090000D02*
X218550000Y-94690000D01*
X218550000Y-94690000D02*
X221440000Y-91800000D01*
%TO.N,GND*%
X221775000Y-66675000D02*
X221910000Y-66540000D01*
X221910000Y-66540000D02*
X224700000Y-66540000D01*
%TO.N,+5V*%
X185900000Y-86150000D02*
X183000000Y-86150000D01*
X186375000Y-84775000D02*
X186375000Y-85675000D01*
X183000000Y-86150000D02*
X182400000Y-85550000D01*
X186375000Y-85675000D02*
X185900000Y-86150000D01*
X182400000Y-85550000D02*
X182400000Y-84725000D01*
X182400000Y-84725000D02*
X182690000Y-84435000D01*
X182690000Y-84435000D02*
X182690000Y-82100000D01*
%TO.N,Net-(D4-Pad3)*%
X220680000Y-85270000D02*
X220680000Y-84720000D01*
X220680000Y-84720000D02*
X221430000Y-83970000D01*
X220810000Y-85400000D02*
X220680000Y-85270000D01*
X220810000Y-87060000D02*
X220810000Y-85400000D01*
%TO.N,LIN*%
X222105000Y-69080000D02*
X224700000Y-69080000D01*
X221775000Y-68750000D02*
X222105000Y-69080000D01*
%TO.N,~{LIN_SLP}*%
X197950000Y-90050000D02*
X197650000Y-89750000D01*
X197950000Y-91675000D02*
X197950000Y-90050000D01*
%TO.N,~{LIN_WAKE}*%
X199425000Y-91425000D02*
X199425000Y-89750000D01*
X199225000Y-91625000D02*
X199425000Y-91425000D01*
%TO.N,SCL*%
X188525000Y-88425000D02*
X188525000Y-89350000D01*
X188525000Y-89350000D02*
X187450000Y-90425000D01*
%TO.N,SDA*%
X184300000Y-88450000D02*
X184300000Y-89200000D01*
X184300000Y-89200000D02*
X185425000Y-90325000D01*
%TO.N,+12V*%
X219360000Y-89060000D02*
X218920000Y-89500000D01*
X220160000Y-89060000D02*
X219360000Y-89060000D01*
%TO.N,UPDI*%
X210550000Y-94840000D02*
X210360000Y-94650000D01*
X211400000Y-94840000D02*
X210550000Y-94840000D01*
%TO.N,Net-(JP1-Pad1)*%
X221400000Y-95060000D02*
X221440000Y-95020000D01*
%TO.N,+3V3*%
X182300000Y-89700000D02*
X181950000Y-90050000D01*
X201425000Y-89750000D02*
X201425000Y-89600000D01*
X190525000Y-88425000D02*
X190525000Y-89950000D01*
X201425000Y-89600000D02*
X202850000Y-88175000D01*
X222850000Y-95060000D02*
X225030000Y-95060000D01*
X194275000Y-89750000D02*
X194225000Y-89700000D01*
X195650000Y-89750000D02*
X194275000Y-89750000D01*
X182300000Y-88450000D02*
X182300000Y-89700000D01*
X190525000Y-89950000D02*
X190550000Y-89975000D01*
X225030000Y-95060000D02*
X225090000Y-95120000D01*
%TO.N,SCL5V*%
X188375000Y-84775000D02*
X188375000Y-82705000D01*
X188375000Y-82705000D02*
X187770000Y-82100000D01*
%TO.N,SDA5V*%
X184400000Y-84725000D02*
X184400000Y-82930000D01*
X184400000Y-82930000D02*
X185230000Y-82100000D01*
%TO.N,Net-(R6-Pad2)*%
X218550000Y-95090000D02*
X218900000Y-94740000D01*
%TO.N,Net-(D2-Pad1)*%
X214700000Y-94840000D02*
X216300000Y-94840000D01*
X216300000Y-94840000D02*
X216550000Y-95090000D01*
%TD*%
%TA.AperFunction,Conductor*%
%TO.N,GND*%
G36*
X230043621Y-61818502D02*
G01*
X230090114Y-61872158D01*
X230101500Y-61924500D01*
X230101500Y-98235028D01*
X230081498Y-98303149D01*
X230027842Y-98349642D01*
X229975409Y-98361028D01*
X215532331Y-98350613D01*
X175794408Y-98321958D01*
X175726303Y-98301907D01*
X175679849Y-98248218D01*
X175668500Y-98195958D01*
X175668500Y-92170000D01*
X192436496Y-92170000D01*
X192437186Y-92176565D01*
X192450130Y-92299716D01*
X192456458Y-92359928D01*
X192515473Y-92541556D01*
X192610960Y-92706944D01*
X192615378Y-92711851D01*
X192615379Y-92711852D01*
X192686742Y-92791109D01*
X192738747Y-92848866D01*
X192893248Y-92961118D01*
X192899276Y-92963802D01*
X192899278Y-92963803D01*
X193061681Y-93036109D01*
X193067712Y-93038794D01*
X193161113Y-93058647D01*
X193248056Y-93077128D01*
X193248061Y-93077128D01*
X193254513Y-93078500D01*
X193445487Y-93078500D01*
X193451939Y-93077128D01*
X193451944Y-93077128D01*
X193538888Y-93058647D01*
X193632288Y-93038794D01*
X193638319Y-93036109D01*
X193800722Y-92963803D01*
X193800724Y-92963802D01*
X193806752Y-92961118D01*
X193961253Y-92848866D01*
X194013258Y-92791109D01*
X194084621Y-92711852D01*
X194084622Y-92711851D01*
X194089040Y-92706944D01*
X194184527Y-92541556D01*
X194243542Y-92359928D01*
X194249871Y-92299716D01*
X194262814Y-92176565D01*
X194263504Y-92170000D01*
X194246397Y-92007237D01*
X194244232Y-91986635D01*
X194244232Y-91986633D01*
X194243542Y-91980072D01*
X194184527Y-91798444D01*
X194179895Y-91790420D01*
X194092341Y-91638774D01*
X194089040Y-91633056D01*
X193989763Y-91522797D01*
X193965675Y-91496045D01*
X193965674Y-91496044D01*
X193961253Y-91491134D01*
X193806752Y-91378882D01*
X193800724Y-91376198D01*
X193800722Y-91376197D01*
X193638319Y-91303891D01*
X193638318Y-91303891D01*
X193632288Y-91301206D01*
X193538154Y-91281197D01*
X193451944Y-91262872D01*
X193451939Y-91262872D01*
X193445487Y-91261500D01*
X193254513Y-91261500D01*
X193248061Y-91262872D01*
X193248056Y-91262872D01*
X193161846Y-91281197D01*
X193067712Y-91301206D01*
X193061682Y-91303891D01*
X193061681Y-91303891D01*
X192899278Y-91376197D01*
X192899276Y-91376198D01*
X192893248Y-91378882D01*
X192738747Y-91491134D01*
X192734326Y-91496044D01*
X192734325Y-91496045D01*
X192710238Y-91522797D01*
X192610960Y-91633056D01*
X192607659Y-91638774D01*
X192520106Y-91790420D01*
X192515473Y-91798444D01*
X192456458Y-91980072D01*
X192455768Y-91986633D01*
X192455768Y-91986635D01*
X192453603Y-92007237D01*
X192436496Y-92170000D01*
X175668500Y-92170000D01*
X175668500Y-90050000D01*
X181036496Y-90050000D01*
X181037186Y-90056565D01*
X181055021Y-90226252D01*
X181056458Y-90239928D01*
X181115473Y-90421556D01*
X181118776Y-90427278D01*
X181118777Y-90427279D01*
X181139215Y-90462679D01*
X181210960Y-90586944D01*
X181215378Y-90591851D01*
X181215379Y-90591852D01*
X181313278Y-90700580D01*
X181338747Y-90728866D01*
X181410696Y-90781140D01*
X181457965Y-90815483D01*
X181493248Y-90841118D01*
X181499276Y-90843802D01*
X181499278Y-90843803D01*
X181661681Y-90916109D01*
X181667712Y-90918794D01*
X181742939Y-90934784D01*
X181848056Y-90957128D01*
X181848061Y-90957128D01*
X181854513Y-90958500D01*
X182045487Y-90958500D01*
X182051939Y-90957128D01*
X182051944Y-90957128D01*
X182157061Y-90934784D01*
X182232288Y-90918794D01*
X182238319Y-90916109D01*
X182400722Y-90843803D01*
X182400724Y-90843802D01*
X182406752Y-90841118D01*
X182442036Y-90815483D01*
X182489304Y-90781140D01*
X182561253Y-90728866D01*
X182586722Y-90700580D01*
X182684621Y-90591852D01*
X182684622Y-90591851D01*
X182689040Y-90586944D01*
X182760785Y-90462679D01*
X182781223Y-90427279D01*
X182781224Y-90427278D01*
X182784527Y-90421556D01*
X182843542Y-90239928D01*
X182844980Y-90226252D01*
X182862814Y-90056565D01*
X182863504Y-90050000D01*
X182862336Y-90038884D01*
X182877230Y-89965011D01*
X182893695Y-89935060D01*
X182898733Y-89915437D01*
X182905137Y-89896734D01*
X182910033Y-89885420D01*
X182910033Y-89885419D01*
X182913181Y-89878145D01*
X182914420Y-89870322D01*
X182914423Y-89870312D01*
X182920099Y-89834476D01*
X182922505Y-89822856D01*
X182931528Y-89787711D01*
X182931528Y-89787710D01*
X182933500Y-89780030D01*
X182933500Y-89759776D01*
X182935051Y-89740065D01*
X182936980Y-89727886D01*
X182938220Y-89720057D01*
X182936077Y-89697390D01*
X182949579Y-89627691D01*
X182995215Y-89578388D01*
X183010600Y-89568868D01*
X183124348Y-89498478D01*
X183210784Y-89411891D01*
X183273066Y-89377812D01*
X183343886Y-89382815D01*
X183388975Y-89411736D01*
X183430090Y-89452779D01*
X183476697Y-89499305D01*
X183482927Y-89503145D01*
X183482928Y-89503146D01*
X183605835Y-89578907D01*
X183627262Y-89592115D01*
X183795139Y-89647797D01*
X183801975Y-89648497D01*
X183801978Y-89648498D01*
X183813801Y-89649709D01*
X183879528Y-89676550D01*
X183890054Y-89685958D01*
X184477878Y-90273782D01*
X184511904Y-90336094D01*
X184514092Y-90349703D01*
X184518753Y-90394042D01*
X184528548Y-90487237D01*
X184531458Y-90514928D01*
X184590473Y-90696556D01*
X184593776Y-90702278D01*
X184593777Y-90702279D01*
X184606292Y-90723955D01*
X184685960Y-90861944D01*
X184690378Y-90866851D01*
X184690379Y-90866852D01*
X184799242Y-90987757D01*
X184813747Y-91003866D01*
X184870816Y-91045329D01*
X184951385Y-91103866D01*
X184968248Y-91116118D01*
X184974276Y-91118802D01*
X184974278Y-91118803D01*
X185136681Y-91191109D01*
X185142712Y-91193794D01*
X185229479Y-91212237D01*
X185323056Y-91232128D01*
X185323061Y-91232128D01*
X185329513Y-91233500D01*
X185520487Y-91233500D01*
X185526939Y-91232128D01*
X185526944Y-91232128D01*
X185620521Y-91212237D01*
X185707288Y-91193794D01*
X185713319Y-91191109D01*
X185875722Y-91118803D01*
X185875724Y-91118802D01*
X185881752Y-91116118D01*
X185898616Y-91103866D01*
X185979184Y-91045329D01*
X186036253Y-91003866D01*
X186050758Y-90987757D01*
X186159621Y-90866852D01*
X186159622Y-90866851D01*
X186164040Y-90861944D01*
X186243708Y-90723955D01*
X186256223Y-90702279D01*
X186256224Y-90702278D01*
X186259527Y-90696556D01*
X186307186Y-90549878D01*
X186347260Y-90491272D01*
X186412656Y-90463635D01*
X186482613Y-90475742D01*
X186534919Y-90523748D01*
X186552329Y-90575643D01*
X186556458Y-90614928D01*
X186615473Y-90796556D01*
X186618776Y-90802278D01*
X186618777Y-90802279D01*
X186701542Y-90945632D01*
X186710960Y-90961944D01*
X186715378Y-90966851D01*
X186715379Y-90966852D01*
X186786040Y-91045329D01*
X186838747Y-91103866D01*
X186993248Y-91216118D01*
X186999276Y-91218802D01*
X186999278Y-91218803D01*
X187145449Y-91283882D01*
X187167712Y-91293794D01*
X187242680Y-91309729D01*
X187348056Y-91332128D01*
X187348061Y-91332128D01*
X187354513Y-91333500D01*
X187545487Y-91333500D01*
X187551939Y-91332128D01*
X187551944Y-91332128D01*
X187657320Y-91309729D01*
X187732288Y-91293794D01*
X187754551Y-91283882D01*
X187900722Y-91218803D01*
X187900724Y-91218802D01*
X187906752Y-91216118D01*
X188061253Y-91103866D01*
X188113960Y-91045329D01*
X188184621Y-90966852D01*
X188184622Y-90966851D01*
X188189040Y-90961944D01*
X188198458Y-90945632D01*
X188281223Y-90802279D01*
X188281224Y-90802278D01*
X188284527Y-90796556D01*
X188343542Y-90614928D01*
X188345968Y-90591852D01*
X188355943Y-90496939D01*
X188360907Y-90449706D01*
X188387920Y-90384050D01*
X188397122Y-90373782D01*
X188917247Y-89853657D01*
X188925537Y-89846113D01*
X188932018Y-89842000D01*
X188939084Y-89834476D01*
X188978658Y-89792333D01*
X188981413Y-89789491D01*
X189001135Y-89769769D01*
X189003612Y-89766576D01*
X189011317Y-89757555D01*
X189036159Y-89731100D01*
X189041586Y-89725321D01*
X189045407Y-89718371D01*
X189051346Y-89707568D01*
X189062202Y-89691041D01*
X189069757Y-89681302D01*
X189069758Y-89681300D01*
X189074614Y-89675040D01*
X189079544Y-89663649D01*
X189086146Y-89648391D01*
X189131557Y-89593816D01*
X189161907Y-89578907D01*
X189191998Y-89568868D01*
X189198946Y-89566550D01*
X189349348Y-89473478D01*
X189435784Y-89386891D01*
X189498066Y-89352812D01*
X189568886Y-89357815D01*
X189613975Y-89386736D01*
X189690218Y-89462846D01*
X189724297Y-89525128D01*
X189719294Y-89595948D01*
X189718071Y-89598943D01*
X189715473Y-89603444D01*
X189656458Y-89785072D01*
X189655768Y-89791633D01*
X189655768Y-89791635D01*
X189643436Y-89908971D01*
X189636496Y-89975000D01*
X189637186Y-89981565D01*
X189654033Y-90141852D01*
X189656458Y-90164928D01*
X189715473Y-90346556D01*
X189718776Y-90352278D01*
X189718777Y-90352279D01*
X189789312Y-90474449D01*
X189810960Y-90511944D01*
X189815378Y-90516851D01*
X189815379Y-90516852D01*
X189912408Y-90624614D01*
X189938747Y-90653866D01*
X190025629Y-90716990D01*
X190081717Y-90757740D01*
X190093248Y-90766118D01*
X190099276Y-90768802D01*
X190099278Y-90768803D01*
X190261681Y-90841109D01*
X190267712Y-90843794D01*
X190353101Y-90861944D01*
X190448056Y-90882128D01*
X190448061Y-90882128D01*
X190454513Y-90883500D01*
X190645487Y-90883500D01*
X190651939Y-90882128D01*
X190651944Y-90882128D01*
X190746899Y-90861944D01*
X190832288Y-90843794D01*
X190838319Y-90841109D01*
X191000722Y-90768803D01*
X191000724Y-90768802D01*
X191006752Y-90766118D01*
X191018284Y-90757740D01*
X191074371Y-90716990D01*
X191161253Y-90653866D01*
X191187592Y-90624614D01*
X191284621Y-90516852D01*
X191284622Y-90516851D01*
X191289040Y-90511944D01*
X191310688Y-90474449D01*
X191381223Y-90352279D01*
X191381224Y-90352278D01*
X191384527Y-90346556D01*
X191443542Y-90164928D01*
X191445968Y-90141852D01*
X191462814Y-89981565D01*
X191463504Y-89975000D01*
X191456564Y-89908971D01*
X191444232Y-89791635D01*
X191444232Y-89791633D01*
X191443542Y-89785072D01*
X191415900Y-89700000D01*
X193311496Y-89700000D01*
X193312186Y-89706565D01*
X193330220Y-89878145D01*
X193331458Y-89889928D01*
X193390473Y-90071556D01*
X193485960Y-90236944D01*
X193490378Y-90241851D01*
X193490379Y-90241852D01*
X193609169Y-90373782D01*
X193613747Y-90378866D01*
X193651690Y-90406433D01*
X193749381Y-90477410D01*
X193768248Y-90491118D01*
X193774276Y-90493802D01*
X193774278Y-90493803D01*
X193932097Y-90564068D01*
X193942712Y-90568794D01*
X194028101Y-90586944D01*
X194123056Y-90607128D01*
X194123061Y-90607128D01*
X194129513Y-90608500D01*
X194320487Y-90608500D01*
X194326939Y-90607128D01*
X194326944Y-90607128D01*
X194421899Y-90586944D01*
X194507288Y-90568794D01*
X194513320Y-90566108D01*
X194519600Y-90564068D01*
X194520498Y-90566832D01*
X194578304Y-90559120D01*
X194642581Y-90589269D01*
X194666248Y-90617346D01*
X194701522Y-90674348D01*
X194826697Y-90799305D01*
X194832927Y-90803145D01*
X194832928Y-90803146D01*
X194970090Y-90887694D01*
X194977262Y-90892115D01*
X195016242Y-90905044D01*
X195138611Y-90945632D01*
X195138613Y-90945632D01*
X195145139Y-90947797D01*
X195151975Y-90948497D01*
X195151978Y-90948498D01*
X195195031Y-90952909D01*
X195249600Y-90958500D01*
X196050400Y-90958500D01*
X196053646Y-90958163D01*
X196053650Y-90958163D01*
X196149308Y-90948238D01*
X196149312Y-90948237D01*
X196156166Y-90947526D01*
X196162702Y-90945345D01*
X196162704Y-90945345D01*
X196294806Y-90901272D01*
X196323946Y-90891550D01*
X196474348Y-90798478D01*
X196560784Y-90711891D01*
X196623066Y-90677812D01*
X196693886Y-90682815D01*
X196738975Y-90711736D01*
X196768263Y-90740973D01*
X196826697Y-90799305D01*
X196832927Y-90803145D01*
X196832928Y-90803146D01*
X196970090Y-90887694D01*
X196977262Y-90892115D01*
X197049602Y-90916109D01*
X197145139Y-90947797D01*
X197144289Y-90950360D01*
X197195990Y-90978400D01*
X197230193Y-91040615D01*
X197225331Y-91111444D01*
X197211288Y-91137691D01*
X197210960Y-91138056D01*
X197207658Y-91143775D01*
X197207656Y-91143778D01*
X197121111Y-91293679D01*
X197115473Y-91303444D01*
X197056458Y-91485072D01*
X197036496Y-91675000D01*
X197037186Y-91681565D01*
X197049946Y-91802966D01*
X197056458Y-91864928D01*
X197115473Y-92046556D01*
X197210960Y-92211944D01*
X197215378Y-92216851D01*
X197215379Y-92216852D01*
X197258667Y-92264928D01*
X197338747Y-92353866D01*
X197493248Y-92466118D01*
X197499276Y-92468802D01*
X197499278Y-92468803D01*
X197558491Y-92495166D01*
X197621534Y-92523234D01*
X197627818Y-92526032D01*
X197681913Y-92572012D01*
X197702563Y-92639939D01*
X197683211Y-92708247D01*
X197630000Y-92755249D01*
X197570487Y-92765258D01*
X197570487Y-92766500D01*
X197379513Y-92766500D01*
X197373061Y-92767872D01*
X197373056Y-92767872D01*
X197294750Y-92784517D01*
X197192712Y-92806206D01*
X197186682Y-92808891D01*
X197186681Y-92808891D01*
X197024278Y-92881197D01*
X197024276Y-92881198D01*
X197018248Y-92883882D01*
X196863747Y-92996134D01*
X196859326Y-93001044D01*
X196859325Y-93001045D01*
X196755248Y-93116635D01*
X196735960Y-93138056D01*
X196702165Y-93196590D01*
X196672524Y-93247931D01*
X196640473Y-93303444D01*
X196581458Y-93485072D01*
X196561496Y-93675000D01*
X196562186Y-93681565D01*
X196579033Y-93841852D01*
X196581458Y-93864928D01*
X196640473Y-94046556D01*
X196643776Y-94052278D01*
X196643777Y-94052279D01*
X196711047Y-94168794D01*
X196735960Y-94211944D01*
X196740378Y-94216851D01*
X196740379Y-94216852D01*
X196820231Y-94305537D01*
X196863747Y-94353866D01*
X196939321Y-94408774D01*
X197001286Y-94453794D01*
X197018248Y-94466118D01*
X197024276Y-94468802D01*
X197024278Y-94468803D01*
X197108420Y-94506265D01*
X197192712Y-94543794D01*
X197281756Y-94562721D01*
X197373056Y-94582128D01*
X197373061Y-94582128D01*
X197379513Y-94583500D01*
X197570487Y-94583500D01*
X197576939Y-94582128D01*
X197576944Y-94582128D01*
X197668244Y-94562721D01*
X197757288Y-94543794D01*
X197841580Y-94506265D01*
X197925722Y-94468803D01*
X197925724Y-94468802D01*
X197931752Y-94466118D01*
X197948715Y-94453794D01*
X198010679Y-94408774D01*
X198086253Y-94353866D01*
X198129769Y-94305537D01*
X198209621Y-94216852D01*
X198209622Y-94216851D01*
X198214040Y-94211944D01*
X198238953Y-94168794D01*
X198306223Y-94052279D01*
X198306224Y-94052278D01*
X198309527Y-94046556D01*
X198368542Y-93864928D01*
X198370968Y-93841852D01*
X198387814Y-93681565D01*
X198388504Y-93675000D01*
X198368542Y-93485072D01*
X198309527Y-93303444D01*
X198307539Y-93300000D01*
X204011496Y-93300000D01*
X204031458Y-93489928D01*
X204090473Y-93671556D01*
X204185960Y-93836944D01*
X204190378Y-93841851D01*
X204190379Y-93841852D01*
X204309325Y-93973955D01*
X204313747Y-93978866D01*
X204468248Y-94091118D01*
X204474276Y-94093802D01*
X204474278Y-94093803D01*
X204634788Y-94165266D01*
X204642712Y-94168794D01*
X204739117Y-94189286D01*
X204801589Y-94223013D01*
X204835911Y-94285163D01*
X204831183Y-94356002D01*
X204809071Y-94392671D01*
X204809259Y-94392808D01*
X204807669Y-94394997D01*
X204806558Y-94396839D01*
X204800960Y-94403056D01*
X204778976Y-94441134D01*
X204718913Y-94545166D01*
X204705473Y-94568444D01*
X204646458Y-94750072D01*
X204645768Y-94756633D01*
X204645768Y-94756635D01*
X204632614Y-94881791D01*
X204626496Y-94940000D01*
X204627186Y-94946565D01*
X204645415Y-95120000D01*
X204646458Y-95129928D01*
X204705473Y-95311556D01*
X204708776Y-95317278D01*
X204708777Y-95317279D01*
X204715467Y-95328866D01*
X204800960Y-95476944D01*
X204805378Y-95481851D01*
X204805379Y-95481852D01*
X204814094Y-95491531D01*
X204928747Y-95618866D01*
X205083248Y-95731118D01*
X205089276Y-95733802D01*
X205089278Y-95733803D01*
X205251681Y-95806109D01*
X205257712Y-95808794D01*
X205265795Y-95810512D01*
X205285568Y-95814715D01*
X205348042Y-95848442D01*
X205382364Y-95910591D01*
X205384682Y-95924784D01*
X205387440Y-95951026D01*
X205395583Y-96028500D01*
X205397034Y-96042310D01*
X205456049Y-96223938D01*
X205551536Y-96389326D01*
X205679323Y-96531248D01*
X205684664Y-96535128D01*
X205684669Y-96535133D01*
X205720616Y-96561250D01*
X205763969Y-96617472D01*
X205771864Y-96676356D01*
X205761496Y-96775000D01*
X205781458Y-96964928D01*
X205840473Y-97146556D01*
X205935960Y-97311944D01*
X206063747Y-97453866D01*
X206218248Y-97566118D01*
X206224276Y-97568802D01*
X206224278Y-97568803D01*
X206386681Y-97641109D01*
X206392712Y-97643794D01*
X206486113Y-97663647D01*
X206573056Y-97682128D01*
X206573061Y-97682128D01*
X206579513Y-97683500D01*
X206770487Y-97683500D01*
X206776939Y-97682128D01*
X206776944Y-97682128D01*
X206863887Y-97663647D01*
X206957288Y-97643794D01*
X206963319Y-97641109D01*
X207125722Y-97568803D01*
X207125724Y-97568802D01*
X207131752Y-97566118D01*
X207286253Y-97453866D01*
X207414040Y-97311944D01*
X207509527Y-97146556D01*
X207568542Y-96964928D01*
X207588504Y-96775000D01*
X207580975Y-96703364D01*
X207569232Y-96591635D01*
X207569232Y-96591633D01*
X207568542Y-96585072D01*
X207509527Y-96403444D01*
X207414040Y-96238056D01*
X207286253Y-96096134D01*
X207280912Y-96092254D01*
X207280907Y-96092249D01*
X207244960Y-96066132D01*
X207201607Y-96009910D01*
X207193712Y-95951026D01*
X207193978Y-95948500D01*
X207204080Y-95852382D01*
X207184118Y-95662454D01*
X207125103Y-95480826D01*
X207119561Y-95471226D01*
X207087890Y-95416372D01*
X207029616Y-95315438D01*
X207018746Y-95303365D01*
X206906251Y-95178427D01*
X206906250Y-95178426D01*
X206901829Y-95173516D01*
X206747328Y-95061264D01*
X206741300Y-95058580D01*
X206741298Y-95058579D01*
X206578895Y-94986273D01*
X206578894Y-94986273D01*
X206572864Y-94983588D01*
X206545008Y-94977667D01*
X206482534Y-94943940D01*
X206448212Y-94881791D01*
X206445893Y-94867590D01*
X206434232Y-94756635D01*
X206434232Y-94756633D01*
X206433542Y-94750072D01*
X206401026Y-94650000D01*
X209446496Y-94650000D01*
X209466458Y-94839928D01*
X209525473Y-95021556D01*
X209620960Y-95186944D01*
X209625378Y-95191851D01*
X209625379Y-95191852D01*
X209725786Y-95303365D01*
X209748747Y-95328866D01*
X209903248Y-95441118D01*
X209909276Y-95443802D01*
X209909278Y-95443803D01*
X210002932Y-95485500D01*
X210077712Y-95518794D01*
X210167325Y-95537842D01*
X210258056Y-95557128D01*
X210258061Y-95557128D01*
X210264513Y-95558500D01*
X210363995Y-95558500D01*
X210432116Y-95578502D01*
X210478609Y-95632158D01*
X210481977Y-95640270D01*
X210499385Y-95686705D01*
X210586739Y-95803261D01*
X210703295Y-95890615D01*
X210839684Y-95941745D01*
X210901866Y-95948500D01*
X211898134Y-95948500D01*
X211960316Y-95941745D01*
X212096705Y-95890615D01*
X212213261Y-95803261D01*
X212300615Y-95686705D01*
X212351745Y-95550316D01*
X212358500Y-95488134D01*
X213741500Y-95488134D01*
X213748255Y-95550316D01*
X213799385Y-95686705D01*
X213886739Y-95803261D01*
X214003295Y-95890615D01*
X214139684Y-95941745D01*
X214201866Y-95948500D01*
X215198134Y-95948500D01*
X215260316Y-95941745D01*
X215396705Y-95890615D01*
X215397303Y-95892211D01*
X215456399Y-95879287D01*
X215522947Y-95904025D01*
X215554692Y-95938672D01*
X215601522Y-96014348D01*
X215726697Y-96139305D01*
X215732927Y-96143145D01*
X215732928Y-96143146D01*
X215870090Y-96227694D01*
X215877262Y-96232115D01*
X215895174Y-96238056D01*
X216038611Y-96285632D01*
X216038613Y-96285632D01*
X216045139Y-96287797D01*
X216051975Y-96288497D01*
X216051978Y-96288498D01*
X216095031Y-96292909D01*
X216149600Y-96298500D01*
X216950400Y-96298500D01*
X216953646Y-96298163D01*
X216953650Y-96298163D01*
X217049308Y-96288238D01*
X217049312Y-96288237D01*
X217056166Y-96287526D01*
X217062702Y-96285345D01*
X217062704Y-96285345D01*
X217204445Y-96238056D01*
X217223946Y-96231550D01*
X217374348Y-96138478D01*
X217460784Y-96051891D01*
X217523066Y-96017812D01*
X217593886Y-96022815D01*
X217638976Y-96051736D01*
X217726697Y-96139305D01*
X217732927Y-96143145D01*
X217732928Y-96143146D01*
X217870090Y-96227694D01*
X217877262Y-96232115D01*
X217895174Y-96238056D01*
X218038611Y-96285632D01*
X218038613Y-96285632D01*
X218045139Y-96287797D01*
X218051975Y-96288497D01*
X218051978Y-96288498D01*
X218095031Y-96292909D01*
X218149600Y-96298500D01*
X218789839Y-96298500D01*
X218857960Y-96318502D01*
X218904453Y-96372158D01*
X218915149Y-96437670D01*
X218906496Y-96520000D01*
X218907186Y-96526565D01*
X218923187Y-96678803D01*
X218926458Y-96709928D01*
X218985473Y-96891556D01*
X219080960Y-97056944D01*
X219208747Y-97198866D01*
X219307843Y-97270864D01*
X219356515Y-97306226D01*
X219363248Y-97311118D01*
X219369276Y-97313802D01*
X219369278Y-97313803D01*
X219531681Y-97386109D01*
X219537712Y-97388794D01*
X219631112Y-97408647D01*
X219718056Y-97427128D01*
X219718061Y-97427128D01*
X219724513Y-97428500D01*
X219915487Y-97428500D01*
X219921939Y-97427128D01*
X219921944Y-97427128D01*
X220008888Y-97408647D01*
X220102288Y-97388794D01*
X220108319Y-97386109D01*
X220270722Y-97313803D01*
X220270724Y-97313802D01*
X220276752Y-97311118D01*
X220283486Y-97306226D01*
X220332157Y-97270864D01*
X220431253Y-97198866D01*
X220559040Y-97056944D01*
X220654527Y-96891556D01*
X220713542Y-96709928D01*
X220716813Y-96678802D01*
X220743825Y-96613145D01*
X220753028Y-96602876D01*
X220995270Y-96360634D01*
X221057582Y-96326608D01*
X221084365Y-96323729D01*
X221900000Y-96323729D01*
X221901964Y-96323605D01*
X221901968Y-96323605D01*
X221958080Y-96320066D01*
X221958084Y-96320065D01*
X221964557Y-96319657D01*
X222010232Y-96307075D01*
X222061624Y-96303833D01*
X222200000Y-96323729D01*
X223350000Y-96323729D01*
X223381986Y-96321441D01*
X223416373Y-96318982D01*
X223416374Y-96318982D01*
X223423111Y-96318500D01*
X223525288Y-96288498D01*
X223554765Y-96279843D01*
X223554767Y-96279842D01*
X223563411Y-96277304D01*
X223632119Y-96233148D01*
X223678841Y-96203122D01*
X223678844Y-96203120D01*
X223686421Y-96198250D01*
X223734169Y-96143146D01*
X223776274Y-96094555D01*
X223776276Y-96094552D01*
X223782176Y-96087743D01*
X223802925Y-96042310D01*
X223815694Y-96014348D01*
X223842919Y-95954734D01*
X223852138Y-95890615D01*
X223863088Y-95814461D01*
X223863088Y-95814455D01*
X223863729Y-95810000D01*
X223863729Y-95809549D01*
X223888180Y-95743992D01*
X223945016Y-95701445D01*
X223989049Y-95693500D01*
X224327777Y-95693500D01*
X224395898Y-95713502D01*
X224421412Y-95735189D01*
X224478747Y-95798866D01*
X224527880Y-95834563D01*
X224589437Y-95879287D01*
X224633248Y-95911118D01*
X224639276Y-95913802D01*
X224639278Y-95913803D01*
X224801681Y-95986109D01*
X224807712Y-95988794D01*
X224898633Y-96008120D01*
X224988056Y-96027128D01*
X224988061Y-96027128D01*
X224994513Y-96028500D01*
X225185487Y-96028500D01*
X225191939Y-96027128D01*
X225191944Y-96027128D01*
X225281367Y-96008120D01*
X225372288Y-95988794D01*
X225378319Y-95986109D01*
X225540722Y-95913803D01*
X225540724Y-95913802D01*
X225546752Y-95911118D01*
X225590564Y-95879287D01*
X225652120Y-95834563D01*
X225701253Y-95798866D01*
X225809814Y-95678297D01*
X225824621Y-95661852D01*
X225824622Y-95661851D01*
X225829040Y-95656944D01*
X225924527Y-95491556D01*
X225983542Y-95309928D01*
X226003504Y-95120000D01*
X225997331Y-95061264D01*
X225984232Y-94936635D01*
X225984232Y-94936633D01*
X225983542Y-94930072D01*
X225924527Y-94748444D01*
X225829040Y-94583056D01*
X225821543Y-94574729D01*
X225705675Y-94446045D01*
X225705674Y-94446044D01*
X225701253Y-94441134D01*
X225584079Y-94356002D01*
X225552094Y-94332763D01*
X225552093Y-94332762D01*
X225546752Y-94328882D01*
X225540724Y-94326198D01*
X225540722Y-94326197D01*
X225378319Y-94253891D01*
X225378318Y-94253891D01*
X225372288Y-94251206D01*
X225274432Y-94230406D01*
X225191944Y-94212872D01*
X225191939Y-94212872D01*
X225185487Y-94211500D01*
X224994513Y-94211500D01*
X224988061Y-94212872D01*
X224988056Y-94212872D01*
X224905568Y-94230406D01*
X224807712Y-94251206D01*
X224801682Y-94253891D01*
X224801681Y-94253891D01*
X224639278Y-94326197D01*
X224639276Y-94326198D01*
X224633248Y-94328882D01*
X224627907Y-94332762D01*
X224627906Y-94332763D01*
X224532010Y-94402436D01*
X224465142Y-94426294D01*
X224457949Y-94426500D01*
X223989371Y-94426500D01*
X223921250Y-94406498D01*
X223874757Y-94352842D01*
X223863692Y-94309488D01*
X223863410Y-94305537D01*
X223858500Y-94236889D01*
X223824538Y-94121226D01*
X223819843Y-94105235D01*
X223819842Y-94105233D01*
X223817304Y-94096589D01*
X223784706Y-94045866D01*
X223743122Y-93981159D01*
X223743120Y-93981156D01*
X223738250Y-93973579D01*
X223731440Y-93967678D01*
X223634555Y-93883726D01*
X223634552Y-93883724D01*
X223627743Y-93877824D01*
X223613585Y-93871358D01*
X223548975Y-93841852D01*
X223494734Y-93817081D01*
X223485561Y-93815762D01*
X223469900Y-93813510D01*
X223350000Y-93796271D01*
X222200000Y-93796271D01*
X222197487Y-93796472D01*
X222197486Y-93796472D01*
X222125353Y-93802240D01*
X222125350Y-93802241D01*
X222118355Y-93802800D01*
X222111657Y-93804890D01*
X222111655Y-93804890D01*
X222091019Y-93811328D01*
X222035562Y-93815762D01*
X221959945Y-93804890D01*
X221900000Y-93796271D01*
X220900000Y-93796271D01*
X220891024Y-93796913D01*
X220833627Y-93801018D01*
X220833626Y-93801018D01*
X220826889Y-93801500D01*
X220756249Y-93822242D01*
X220695235Y-93840157D01*
X220695233Y-93840158D01*
X220686589Y-93842696D01*
X220679011Y-93847566D01*
X220679009Y-93847567D01*
X220571650Y-93916563D01*
X220541738Y-93925346D01*
X220536739Y-93948328D01*
X220521375Y-93970456D01*
X220518669Y-93973579D01*
X220473726Y-94025445D01*
X220473724Y-94025448D01*
X220467824Y-94032257D01*
X220464080Y-94040454D01*
X220464080Y-94040455D01*
X220463593Y-94041522D01*
X220407081Y-94165266D01*
X220386271Y-94310000D01*
X220386271Y-95125634D01*
X220366269Y-95193755D01*
X220349366Y-95214730D01*
X219989499Y-95574596D01*
X219927187Y-95608621D01*
X219900404Y-95611500D01*
X219784500Y-95611500D01*
X219716379Y-95591498D01*
X219669886Y-95537842D01*
X219658500Y-95485500D01*
X219658500Y-94589600D01*
X219654145Y-94547625D01*
X219667010Y-94477804D01*
X219690377Y-94445527D01*
X220337056Y-93798848D01*
X220388902Y-93770537D01*
X220408304Y-93728053D01*
X220414434Y-93721470D01*
X220909203Y-93226701D01*
X220971515Y-93192675D01*
X221032474Y-93194766D01*
X221034552Y-93195560D01*
X221267928Y-93243041D01*
X221401284Y-93247931D01*
X221500760Y-93251579D01*
X221500764Y-93251579D01*
X221505924Y-93251768D01*
X221511044Y-93251112D01*
X221511046Y-93251112D01*
X221737023Y-93222164D01*
X221737024Y-93222164D01*
X221742151Y-93221507D01*
X221748741Y-93219530D01*
X221965316Y-93154554D01*
X221965317Y-93154553D01*
X221970262Y-93153070D01*
X222184133Y-93048295D01*
X222188336Y-93045297D01*
X222188341Y-93045294D01*
X222373816Y-92912996D01*
X222373818Y-92912994D01*
X222378020Y-92909997D01*
X222546716Y-92741889D01*
X222604979Y-92660807D01*
X222660972Y-92617160D01*
X222731676Y-92610714D01*
X222794640Y-92643516D01*
X222806582Y-92657176D01*
X222807274Y-92658306D01*
X222963204Y-92838317D01*
X223146442Y-92990444D01*
X223150894Y-92993046D01*
X223150899Y-92993049D01*
X223249333Y-93050569D01*
X223352065Y-93110601D01*
X223574552Y-93195560D01*
X223579618Y-93196591D01*
X223579619Y-93196591D01*
X223633956Y-93207646D01*
X223807928Y-93243041D01*
X223941284Y-93247931D01*
X224040760Y-93251579D01*
X224040764Y-93251579D01*
X224045924Y-93251768D01*
X224051044Y-93251112D01*
X224051046Y-93251112D01*
X224277023Y-93222164D01*
X224277024Y-93222164D01*
X224282151Y-93221507D01*
X224288741Y-93219530D01*
X224505316Y-93154554D01*
X224505317Y-93154553D01*
X224510262Y-93153070D01*
X224724133Y-93048295D01*
X224728336Y-93045297D01*
X224728341Y-93045294D01*
X224913810Y-92913000D01*
X224918020Y-92909997D01*
X224920601Y-92907425D01*
X224985135Y-92878913D01*
X225055278Y-92889886D01*
X225108355Y-92937039D01*
X225119502Y-92959610D01*
X225129585Y-92986505D01*
X225216939Y-93103061D01*
X225333495Y-93190415D01*
X225469884Y-93241545D01*
X225532066Y-93248300D01*
X227507934Y-93248300D01*
X227570116Y-93241545D01*
X227706505Y-93190415D01*
X227823061Y-93103061D01*
X227910415Y-92986505D01*
X227961545Y-92850116D01*
X227968300Y-92787934D01*
X227968300Y-90812066D01*
X227961545Y-90749884D01*
X227910415Y-90613495D01*
X227823061Y-90496939D01*
X227706505Y-90409585D01*
X227570116Y-90358455D01*
X227507934Y-90351700D01*
X225532066Y-90351700D01*
X225469884Y-90358455D01*
X225333495Y-90409585D01*
X225216939Y-90496939D01*
X225129585Y-90613495D01*
X225126433Y-90621903D01*
X225118218Y-90643816D01*
X225075576Y-90700580D01*
X225009014Y-90725280D01*
X224939666Y-90710072D01*
X224922144Y-90698468D01*
X224788278Y-90592747D01*
X224788273Y-90592744D01*
X224784224Y-90589546D01*
X224779708Y-90587053D01*
X224779705Y-90587051D01*
X224580250Y-90476946D01*
X224580246Y-90476944D01*
X224575726Y-90474449D01*
X224570857Y-90472725D01*
X224570853Y-90472723D01*
X224356105Y-90396676D01*
X224356101Y-90396675D01*
X224351230Y-90394950D01*
X224346140Y-90394043D01*
X224346135Y-90394042D01*
X224204388Y-90368794D01*
X224116764Y-90353186D01*
X224025355Y-90352069D01*
X223883795Y-90350339D01*
X223883793Y-90350339D01*
X223878625Y-90350276D01*
X223643209Y-90386300D01*
X223416838Y-90460289D01*
X223357616Y-90491118D01*
X223244740Y-90549878D01*
X223205590Y-90570258D01*
X223201457Y-90573361D01*
X223201454Y-90573363D01*
X223019375Y-90710072D01*
X223015140Y-90713252D01*
X222850602Y-90885431D01*
X222820880Y-90929002D01*
X222815186Y-90937349D01*
X222760274Y-90982351D01*
X222689749Y-90990522D01*
X222626002Y-90959267D01*
X222605306Y-90934784D01*
X222594217Y-90917642D01*
X222594212Y-90917636D01*
X222591406Y-90913298D01*
X222583896Y-90905044D01*
X222529411Y-90845166D01*
X222431124Y-90737150D01*
X222427073Y-90733951D01*
X222427069Y-90733947D01*
X222248278Y-90592747D01*
X222248273Y-90592744D01*
X222244224Y-90589546D01*
X222239708Y-90587053D01*
X222239705Y-90587051D01*
X222040250Y-90476946D01*
X222040246Y-90476944D01*
X222035726Y-90474449D01*
X222030857Y-90472725D01*
X222030853Y-90472723D01*
X221816105Y-90396676D01*
X221816101Y-90396675D01*
X221811230Y-90394950D01*
X221806140Y-90394043D01*
X221806135Y-90394042D01*
X221664388Y-90368794D01*
X221576764Y-90353186D01*
X221485355Y-90352069D01*
X221343795Y-90350339D01*
X221343793Y-90350339D01*
X221338625Y-90350276D01*
X221103209Y-90386300D01*
X220876838Y-90460289D01*
X220817616Y-90491118D01*
X220704740Y-90549878D01*
X220665590Y-90570258D01*
X220661457Y-90573361D01*
X220661454Y-90573363D01*
X220479375Y-90710072D01*
X220475140Y-90713252D01*
X220310602Y-90885431D01*
X220280880Y-90929002D01*
X220275186Y-90937349D01*
X220220274Y-90982351D01*
X220149749Y-90990522D01*
X220086002Y-90959267D01*
X220065306Y-90934784D01*
X220054217Y-90917642D01*
X220054212Y-90917636D01*
X220051406Y-90913298D01*
X220043896Y-90905044D01*
X219989411Y-90845166D01*
X219891124Y-90737150D01*
X219887073Y-90733951D01*
X219887069Y-90733947D01*
X219708278Y-90592747D01*
X219708273Y-90592744D01*
X219704224Y-90589546D01*
X219699708Y-90587053D01*
X219699705Y-90587051D01*
X219500250Y-90476946D01*
X219500246Y-90476944D01*
X219495726Y-90474449D01*
X219490853Y-90472723D01*
X219490850Y-90472722D01*
X219471842Y-90465991D01*
X219414305Y-90424397D01*
X219388389Y-90358300D01*
X219402323Y-90288684D01*
X219439840Y-90245282D01*
X219477503Y-90217918D01*
X219531253Y-90178866D01*
X219641373Y-90056565D01*
X219654621Y-90041852D01*
X219654622Y-90041851D01*
X219659040Y-90036944D01*
X219696171Y-89972631D01*
X219747552Y-89923639D01*
X219817265Y-89910202D01*
X219823189Y-89911184D01*
X219824684Y-89911745D01*
X219866872Y-89916328D01*
X219878867Y-89917631D01*
X219886866Y-89918500D01*
X220433134Y-89918500D01*
X220495316Y-89911745D01*
X220631705Y-89860615D01*
X220639483Y-89854786D01*
X220734852Y-89783311D01*
X220801359Y-89758463D01*
X220870741Y-89773516D01*
X220885982Y-89783311D01*
X220981351Y-89854786D01*
X220996946Y-89863324D01*
X221117394Y-89908478D01*
X221132649Y-89912105D01*
X221183514Y-89917631D01*
X221190328Y-89918000D01*
X221216885Y-89918000D01*
X221232124Y-89913525D01*
X221233329Y-89912135D01*
X221235000Y-89904452D01*
X221235000Y-89899884D01*
X221685000Y-89899884D01*
X221689475Y-89915123D01*
X221690865Y-89916328D01*
X221698548Y-89917999D01*
X221729669Y-89917999D01*
X221736490Y-89917629D01*
X221787352Y-89912105D01*
X221802604Y-89908479D01*
X221923054Y-89863324D01*
X221938649Y-89854786D01*
X222040724Y-89778285D01*
X222053285Y-89765724D01*
X222129786Y-89663649D01*
X222138324Y-89648054D01*
X222183478Y-89527606D01*
X222187105Y-89512351D01*
X222192631Y-89461486D01*
X222193000Y-89454672D01*
X222193000Y-89303115D01*
X222188525Y-89287876D01*
X222187135Y-89286671D01*
X222179452Y-89285000D01*
X221703115Y-89285000D01*
X221687876Y-89289475D01*
X221686671Y-89290865D01*
X221685000Y-89298548D01*
X221685000Y-89899884D01*
X221235000Y-89899884D01*
X221235000Y-88816885D01*
X221685000Y-88816885D01*
X221689475Y-88832124D01*
X221690865Y-88833329D01*
X221698548Y-88835000D01*
X222174884Y-88835000D01*
X222190123Y-88830525D01*
X222191328Y-88829135D01*
X222192999Y-88821452D01*
X222192999Y-88665331D01*
X222192629Y-88658510D01*
X222187105Y-88607648D01*
X222183479Y-88592396D01*
X222138324Y-88471946D01*
X222129786Y-88456351D01*
X222053285Y-88354276D01*
X222040724Y-88341715D01*
X221938649Y-88265214D01*
X221923054Y-88256676D01*
X221802606Y-88211522D01*
X221787351Y-88207895D01*
X221736486Y-88202369D01*
X221729672Y-88202000D01*
X221703115Y-88202000D01*
X221687876Y-88206475D01*
X221686671Y-88207865D01*
X221685000Y-88215548D01*
X221685000Y-88816885D01*
X221235000Y-88816885D01*
X221235000Y-88220116D01*
X221230525Y-88204877D01*
X221229135Y-88203672D01*
X221221452Y-88202001D01*
X221190331Y-88202001D01*
X221183510Y-88202371D01*
X221132648Y-88207895D01*
X221117396Y-88211521D01*
X220996946Y-88256676D01*
X220981351Y-88265214D01*
X220885982Y-88336689D01*
X220819475Y-88361537D01*
X220750093Y-88346484D01*
X220734852Y-88336689D01*
X220638892Y-88264771D01*
X220638890Y-88264770D01*
X220631705Y-88259385D01*
X220495316Y-88208255D01*
X220433134Y-88201500D01*
X219886866Y-88201500D01*
X219824684Y-88208255D01*
X219688295Y-88259385D01*
X219571739Y-88346739D01*
X219549759Y-88376067D01*
X219492900Y-88418580D01*
X219448934Y-88426500D01*
X219438767Y-88426500D01*
X219427584Y-88425973D01*
X219420091Y-88424298D01*
X219412165Y-88424547D01*
X219412164Y-88424547D01*
X219352001Y-88426438D01*
X219348043Y-88426500D01*
X219320144Y-88426500D01*
X219316154Y-88427004D01*
X219304320Y-88427936D01*
X219260111Y-88429326D01*
X219252497Y-88431538D01*
X219252492Y-88431539D01*
X219240659Y-88434977D01*
X219221296Y-88438988D01*
X219201203Y-88441526D01*
X219193836Y-88444443D01*
X219193831Y-88444444D01*
X219160092Y-88457802D01*
X219148865Y-88461646D01*
X219106407Y-88473982D01*
X219099581Y-88478019D01*
X219088972Y-88484293D01*
X219071224Y-88492988D01*
X219052383Y-88500448D01*
X219045967Y-88505110D01*
X219045966Y-88505110D01*
X219016613Y-88526436D01*
X219006692Y-88532952D01*
X218968638Y-88555458D01*
X218963026Y-88561070D01*
X218957886Y-88565057D01*
X218891801Y-88591006D01*
X218880656Y-88591500D01*
X218824513Y-88591500D01*
X218818061Y-88592872D01*
X218818056Y-88592872D01*
X218758267Y-88605581D01*
X218637712Y-88631206D01*
X218631682Y-88633891D01*
X218631681Y-88633891D01*
X218469278Y-88706197D01*
X218469276Y-88706198D01*
X218463248Y-88708882D01*
X218308747Y-88821134D01*
X218304326Y-88826044D01*
X218304325Y-88826045D01*
X218192356Y-88950400D01*
X218180960Y-88963056D01*
X218085473Y-89128444D01*
X218026458Y-89310072D01*
X218025768Y-89316633D01*
X218025768Y-89316635D01*
X218015272Y-89416500D01*
X218006496Y-89500000D01*
X218007186Y-89506565D01*
X218024377Y-89670125D01*
X218026458Y-89689928D01*
X218085473Y-89871556D01*
X218088776Y-89877278D01*
X218088777Y-89877279D01*
X218112363Y-89918131D01*
X218180960Y-90036944D01*
X218185378Y-90041851D01*
X218185379Y-90041852D01*
X218198627Y-90056565D01*
X218308747Y-90178866D01*
X218384993Y-90234262D01*
X218428346Y-90290483D01*
X218434421Y-90361219D01*
X218401290Y-90424011D01*
X218350077Y-90455962D01*
X218336838Y-90460289D01*
X218277616Y-90491118D01*
X218164740Y-90549878D01*
X218125590Y-90570258D01*
X218121457Y-90573361D01*
X218121454Y-90573363D01*
X217939375Y-90710072D01*
X217935140Y-90713252D01*
X217770602Y-90885431D01*
X217740880Y-90929002D01*
X217735186Y-90937349D01*
X217680274Y-90982351D01*
X217609749Y-90990522D01*
X217546002Y-90959267D01*
X217525306Y-90934784D01*
X217514217Y-90917642D01*
X217514212Y-90917636D01*
X217511406Y-90913298D01*
X217503896Y-90905044D01*
X217449411Y-90845166D01*
X217351124Y-90737150D01*
X217347073Y-90733951D01*
X217347069Y-90733947D01*
X217168278Y-90592747D01*
X217168273Y-90592744D01*
X217164224Y-90589546D01*
X217159708Y-90587053D01*
X217159705Y-90587051D01*
X216960250Y-90476946D01*
X216960246Y-90476944D01*
X216955726Y-90474449D01*
X216950857Y-90472725D01*
X216950853Y-90472723D01*
X216736105Y-90396676D01*
X216736101Y-90396675D01*
X216731230Y-90394950D01*
X216726140Y-90394043D01*
X216726135Y-90394042D01*
X216584388Y-90368794D01*
X216496764Y-90353186D01*
X216405355Y-90352069D01*
X216263795Y-90350339D01*
X216263793Y-90350339D01*
X216258625Y-90350276D01*
X216023209Y-90386300D01*
X215796838Y-90460289D01*
X215737616Y-90491118D01*
X215624740Y-90549878D01*
X215585590Y-90570258D01*
X215581457Y-90573361D01*
X215581454Y-90573363D01*
X215399375Y-90710072D01*
X215395140Y-90713252D01*
X215230602Y-90885431D01*
X215188064Y-90947790D01*
X215133155Y-90992790D01*
X215062631Y-91000961D01*
X215010940Y-90976588D01*
X215008940Y-90976307D01*
X214997755Y-90981456D01*
X214192021Y-91787189D01*
X214184408Y-91801132D01*
X214184539Y-91802966D01*
X214188790Y-91809580D01*
X214994826Y-92615615D01*
X215008096Y-92622861D01*
X215070005Y-92599078D01*
X215139523Y-92613490D01*
X215181899Y-92650245D01*
X215184574Y-92653899D01*
X215187274Y-92658306D01*
X215343204Y-92838317D01*
X215526442Y-92990444D01*
X215530894Y-92993046D01*
X215530899Y-92993049D01*
X215629333Y-93050569D01*
X215732065Y-93110601D01*
X215954552Y-93195560D01*
X215959618Y-93196591D01*
X215959619Y-93196591D01*
X216013956Y-93207646D01*
X216187928Y-93243041D01*
X216321284Y-93247931D01*
X216420760Y-93251579D01*
X216420764Y-93251579D01*
X216425924Y-93251768D01*
X216431044Y-93251112D01*
X216431046Y-93251112D01*
X216657023Y-93222164D01*
X216657024Y-93222164D01*
X216662151Y-93221507D01*
X216668741Y-93219530D01*
X216885316Y-93154554D01*
X216885317Y-93154553D01*
X216890262Y-93153070D01*
X217104133Y-93048295D01*
X217108336Y-93045297D01*
X217108341Y-93045294D01*
X217293816Y-92912996D01*
X217293818Y-92912994D01*
X217298020Y-92909997D01*
X217466716Y-92741889D01*
X217524979Y-92660807D01*
X217580972Y-92617160D01*
X217651676Y-92610714D01*
X217714640Y-92643516D01*
X217726582Y-92657176D01*
X217727274Y-92658306D01*
X217883204Y-92838317D01*
X218066442Y-92990444D01*
X218070894Y-92993046D01*
X218070899Y-92993049D01*
X218169333Y-93050569D01*
X218272065Y-93110601D01*
X218494552Y-93195560D01*
X218499618Y-93196591D01*
X218499619Y-93196591D01*
X218553956Y-93207646D01*
X218727928Y-93243041D01*
X218774457Y-93244747D01*
X218798962Y-93245646D01*
X218866304Y-93268131D01*
X218910799Y-93323454D01*
X218918321Y-93394051D01*
X218883439Y-93460656D01*
X218499500Y-93844595D01*
X218437188Y-93878621D01*
X218410405Y-93881500D01*
X218149600Y-93881500D01*
X218146354Y-93881837D01*
X218146350Y-93881837D01*
X218050692Y-93891762D01*
X218050688Y-93891763D01*
X218043834Y-93892474D01*
X218037298Y-93894655D01*
X218037296Y-93894655D01*
X217956083Y-93921750D01*
X217876054Y-93948450D01*
X217725652Y-94041522D01*
X217720479Y-94046704D01*
X217639216Y-94128109D01*
X217576934Y-94162188D01*
X217506114Y-94157185D01*
X217461025Y-94128264D01*
X217378483Y-94045866D01*
X217373303Y-94040695D01*
X217337220Y-94018453D01*
X217228968Y-93951725D01*
X217228966Y-93951724D01*
X217222738Y-93947885D01*
X217062254Y-93894655D01*
X217061389Y-93894368D01*
X217061387Y-93894368D01*
X217054861Y-93892203D01*
X217048025Y-93891503D01*
X217048022Y-93891502D01*
X217004969Y-93887091D01*
X216950400Y-93881500D01*
X216149600Y-93881500D01*
X216146354Y-93881837D01*
X216146350Y-93881837D01*
X216050692Y-93891762D01*
X216050688Y-93891763D01*
X216043834Y-93892474D01*
X216037298Y-93894655D01*
X216037296Y-93894655D01*
X215956083Y-93921750D01*
X215876054Y-93948450D01*
X215766685Y-94016130D01*
X215762931Y-94018453D01*
X215694479Y-94037291D01*
X215626710Y-94016130D01*
X215595804Y-93986876D01*
X215513261Y-93876739D01*
X215396705Y-93789385D01*
X215260316Y-93738255D01*
X215198134Y-93731500D01*
X214201866Y-93731500D01*
X214139684Y-93738255D01*
X214003295Y-93789385D01*
X213886739Y-93876739D01*
X213799385Y-93993295D01*
X213748255Y-94129684D01*
X213741500Y-94191866D01*
X213741500Y-95488134D01*
X212358500Y-95488134D01*
X212358500Y-94191866D01*
X212351745Y-94129684D01*
X212300615Y-93993295D01*
X212213261Y-93876739D01*
X212096705Y-93789385D01*
X211960316Y-93738255D01*
X211898134Y-93731500D01*
X210901866Y-93731500D01*
X210839684Y-93738255D01*
X210832288Y-93741027D01*
X210832282Y-93741029D01*
X210726879Y-93780543D01*
X210656072Y-93785726D01*
X210646863Y-93783243D01*
X210642288Y-93781206D01*
X210635841Y-93779836D01*
X210635839Y-93779835D01*
X210461944Y-93742872D01*
X210461939Y-93742872D01*
X210455487Y-93741500D01*
X210264513Y-93741500D01*
X210258061Y-93742872D01*
X210258056Y-93742872D01*
X210171112Y-93761353D01*
X210077712Y-93781206D01*
X210071682Y-93783891D01*
X210071681Y-93783891D01*
X209909278Y-93856197D01*
X209909276Y-93856198D01*
X209903248Y-93858882D01*
X209897907Y-93862762D01*
X209897906Y-93862763D01*
X209886076Y-93871358D01*
X209748747Y-93971134D01*
X209744326Y-93976044D01*
X209744325Y-93976045D01*
X209644208Y-94087237D01*
X209620960Y-94113056D01*
X209525473Y-94278444D01*
X209466458Y-94460072D01*
X209465768Y-94466633D01*
X209465768Y-94466635D01*
X209453532Y-94583056D01*
X209446496Y-94650000D01*
X206401026Y-94650000D01*
X206374527Y-94568444D01*
X206376243Y-94567886D01*
X206367979Y-94506265D01*
X206398083Y-94441967D01*
X206441273Y-94410271D01*
X206500719Y-94383805D01*
X206500726Y-94383801D01*
X206506752Y-94381118D01*
X206545671Y-94352842D01*
X206638822Y-94285163D01*
X206661253Y-94268866D01*
X206677154Y-94251206D01*
X206784621Y-94131852D01*
X206784622Y-94131851D01*
X206789040Y-94126944D01*
X206861348Y-94001703D01*
X206881223Y-93967279D01*
X206881224Y-93967278D01*
X206884527Y-93961556D01*
X206943542Y-93779928D01*
X206947631Y-93741029D01*
X206962814Y-93596565D01*
X206963504Y-93590000D01*
X206943542Y-93400072D01*
X206884527Y-93218444D01*
X206871633Y-93196110D01*
X206792341Y-93058774D01*
X206789040Y-93053056D01*
X206776199Y-93038794D01*
X206732717Y-92990503D01*
X212994326Y-92990503D01*
X212999607Y-92997558D01*
X213187821Y-93107541D01*
X213197108Y-93111991D01*
X213409861Y-93193233D01*
X213419763Y-93196110D01*
X213642911Y-93241510D01*
X213653163Y-93242733D01*
X213880738Y-93251077D01*
X213891024Y-93250610D01*
X214116915Y-93221673D01*
X214127001Y-93219530D01*
X214345128Y-93154088D01*
X214354723Y-93150328D01*
X214559237Y-93050137D01*
X214568083Y-93044863D01*
X214633631Y-92998108D01*
X214642032Y-92987408D01*
X214635045Y-92974256D01*
X213832811Y-92172021D01*
X213818868Y-92164408D01*
X213817034Y-92164539D01*
X213810420Y-92168790D01*
X213001083Y-92978128D01*
X212994326Y-92990503D01*
X206732717Y-92990503D01*
X206665675Y-92916045D01*
X206665674Y-92916044D01*
X206661253Y-92911134D01*
X206506752Y-92798882D01*
X206500724Y-92796198D01*
X206500722Y-92796197D01*
X206338319Y-92723891D01*
X206338318Y-92723891D01*
X206332288Y-92721206D01*
X206238290Y-92701226D01*
X206151944Y-92682872D01*
X206151939Y-92682872D01*
X206145487Y-92681500D01*
X205992120Y-92681500D01*
X205923999Y-92661498D01*
X205877506Y-92607842D01*
X205867402Y-92537568D01*
X205883001Y-92492500D01*
X205906223Y-92452279D01*
X205906224Y-92452278D01*
X205909527Y-92446556D01*
X205968542Y-92264928D01*
X205988504Y-92075000D01*
X205968542Y-91885072D01*
X205931043Y-91769662D01*
X212367969Y-91769662D01*
X212381078Y-91997017D01*
X212382514Y-92007237D01*
X212432580Y-92229393D01*
X212435659Y-92239221D01*
X212521338Y-92450223D01*
X212525991Y-92459434D01*
X212621153Y-92614723D01*
X212631611Y-92624185D01*
X212640387Y-92620402D01*
X213447979Y-91812811D01*
X213455592Y-91798868D01*
X213455461Y-91797034D01*
X213451210Y-91790420D01*
X212645220Y-90984431D01*
X212633688Y-90978134D01*
X212621406Y-90987757D01*
X212559747Y-91078146D01*
X212554654Y-91087110D01*
X212458768Y-91293679D01*
X212455211Y-91303347D01*
X212394352Y-91522797D01*
X212392421Y-91532916D01*
X212368221Y-91759373D01*
X212367969Y-91769662D01*
X205931043Y-91769662D01*
X205909527Y-91703444D01*
X205814040Y-91538056D01*
X205772243Y-91491635D01*
X205690675Y-91401045D01*
X205690674Y-91401044D01*
X205686253Y-91396134D01*
X205558543Y-91303347D01*
X205537094Y-91287763D01*
X205537093Y-91287762D01*
X205531752Y-91283882D01*
X205525724Y-91281198D01*
X205525722Y-91281197D01*
X205363319Y-91208891D01*
X205363318Y-91208891D01*
X205357288Y-91206206D01*
X205263887Y-91186353D01*
X205176944Y-91167872D01*
X205176939Y-91167872D01*
X205170487Y-91166500D01*
X204979513Y-91166500D01*
X204973061Y-91167872D01*
X204973056Y-91167872D01*
X204886113Y-91186353D01*
X204792712Y-91206206D01*
X204786682Y-91208891D01*
X204786681Y-91208891D01*
X204624278Y-91281197D01*
X204624276Y-91281198D01*
X204618248Y-91283882D01*
X204612907Y-91287762D01*
X204612906Y-91287763D01*
X204591457Y-91303347D01*
X204463747Y-91396134D01*
X204459326Y-91401044D01*
X204459325Y-91401045D01*
X204377758Y-91491635D01*
X204335960Y-91538056D01*
X204240473Y-91703444D01*
X204181458Y-91885072D01*
X204161496Y-92075000D01*
X204181458Y-92264928D01*
X204240473Y-92446556D01*
X204266196Y-92491109D01*
X204284743Y-92523234D01*
X204301480Y-92592229D01*
X204278259Y-92659321D01*
X204269259Y-92670543D01*
X204225806Y-92718803D01*
X204185960Y-92763056D01*
X204135696Y-92850116D01*
X204097632Y-92916045D01*
X204090473Y-92928444D01*
X204031458Y-93110072D01*
X204030768Y-93116633D01*
X204030768Y-93116635D01*
X204012186Y-93293435D01*
X204011496Y-93300000D01*
X198307539Y-93300000D01*
X198277477Y-93247931D01*
X198247835Y-93196590D01*
X198214040Y-93138056D01*
X198194753Y-93116635D01*
X198090675Y-93001045D01*
X198090674Y-93001044D01*
X198086253Y-92996134D01*
X197931752Y-92883882D01*
X197925724Y-92881198D01*
X197925722Y-92881197D01*
X197829411Y-92838317D01*
X197797182Y-92823968D01*
X197743087Y-92777988D01*
X197722437Y-92710061D01*
X197741789Y-92641753D01*
X197795000Y-92594751D01*
X197854513Y-92584742D01*
X197854513Y-92583500D01*
X198045487Y-92583500D01*
X198051939Y-92582128D01*
X198051944Y-92582128D01*
X198138888Y-92563647D01*
X198232288Y-92543794D01*
X198255409Y-92533500D01*
X198400722Y-92468803D01*
X198400724Y-92468802D01*
X198406752Y-92466118D01*
X198547849Y-92363605D01*
X198614715Y-92339747D01*
X198683867Y-92355827D01*
X198695970Y-92363605D01*
X198721012Y-92381799D01*
X198768248Y-92416118D01*
X198774276Y-92418802D01*
X198774278Y-92418803D01*
X198871175Y-92461944D01*
X198942712Y-92493794D01*
X199036112Y-92513647D01*
X199123056Y-92532128D01*
X199123061Y-92532128D01*
X199129513Y-92533500D01*
X199320487Y-92533500D01*
X199326939Y-92532128D01*
X199326944Y-92532128D01*
X199413887Y-92513647D01*
X199507288Y-92493794D01*
X199578825Y-92461944D01*
X199675722Y-92418803D01*
X199675724Y-92418802D01*
X199681752Y-92416118D01*
X199728988Y-92381799D01*
X199795856Y-92357940D01*
X199865007Y-92374021D01*
X199912168Y-92420735D01*
X199935960Y-92461944D01*
X199940378Y-92466851D01*
X199940379Y-92466852D01*
X200044174Y-92582128D01*
X200063747Y-92603866D01*
X200127582Y-92650245D01*
X200207415Y-92708247D01*
X200218248Y-92716118D01*
X200224276Y-92718802D01*
X200224278Y-92718803D01*
X200357211Y-92777988D01*
X200392712Y-92793794D01*
X200486112Y-92813647D01*
X200573056Y-92832128D01*
X200573061Y-92832128D01*
X200579513Y-92833500D01*
X200770487Y-92833500D01*
X200776939Y-92832128D01*
X200776944Y-92832128D01*
X200863887Y-92813647D01*
X200957288Y-92793794D01*
X200992789Y-92777988D01*
X201125722Y-92718803D01*
X201125724Y-92718802D01*
X201131752Y-92716118D01*
X201142586Y-92708247D01*
X201222418Y-92650245D01*
X201286253Y-92603866D01*
X201305826Y-92582128D01*
X201409621Y-92466852D01*
X201409622Y-92466851D01*
X201414040Y-92461944D01*
X201509527Y-92296556D01*
X201568542Y-92114928D01*
X201588504Y-91925000D01*
X201582190Y-91864928D01*
X201569232Y-91741635D01*
X201569232Y-91741633D01*
X201568542Y-91735072D01*
X201509527Y-91553444D01*
X201414040Y-91388056D01*
X201320242Y-91283882D01*
X201290675Y-91251045D01*
X201290674Y-91251044D01*
X201286253Y-91246134D01*
X201266976Y-91232128D01*
X201204086Y-91186436D01*
X201160732Y-91130214D01*
X201154657Y-91059477D01*
X201187789Y-90996686D01*
X201249609Y-90961774D01*
X201278147Y-90958500D01*
X201825400Y-90958500D01*
X201828646Y-90958163D01*
X201828650Y-90958163D01*
X201924308Y-90948238D01*
X201924312Y-90948237D01*
X201931166Y-90947526D01*
X201937702Y-90945345D01*
X201937704Y-90945345D01*
X202069806Y-90901272D01*
X202098946Y-90891550D01*
X202249348Y-90798478D01*
X202374305Y-90673303D01*
X202386286Y-90653866D01*
X202411917Y-90612285D01*
X212997081Y-90612285D01*
X213003825Y-90624614D01*
X213807189Y-91427979D01*
X213821132Y-91435592D01*
X213822966Y-91435461D01*
X213829580Y-91431210D01*
X214637331Y-90623458D01*
X214644348Y-90610607D01*
X214636574Y-90599937D01*
X214628004Y-90593169D01*
X214619417Y-90587464D01*
X214420055Y-90477410D01*
X214410643Y-90473180D01*
X214195971Y-90397160D01*
X214186014Y-90394530D01*
X213961805Y-90354591D01*
X213951554Y-90353622D01*
X213723830Y-90350840D01*
X213713546Y-90351560D01*
X213488437Y-90386006D01*
X213478410Y-90388395D01*
X213261951Y-90459144D01*
X213252442Y-90463141D01*
X213050451Y-90568292D01*
X213041716Y-90573793D01*
X213005535Y-90600958D01*
X212997081Y-90612285D01*
X202411917Y-90612285D01*
X202463275Y-90528968D01*
X202463276Y-90528966D01*
X202467115Y-90522738D01*
X202504646Y-90409585D01*
X202520632Y-90361389D01*
X202520632Y-90361387D01*
X202522797Y-90354861D01*
X202533500Y-90250400D01*
X202533500Y-89600000D01*
X207111496Y-89600000D01*
X207112186Y-89606565D01*
X207130763Y-89783311D01*
X207131458Y-89789928D01*
X207190473Y-89971556D01*
X207285960Y-90136944D01*
X207290378Y-90141851D01*
X207290379Y-90141852D01*
X207395615Y-90258728D01*
X207413747Y-90278866D01*
X207455325Y-90309074D01*
X207561617Y-90386300D01*
X207568248Y-90391118D01*
X207574276Y-90393802D01*
X207574278Y-90393803D01*
X207736416Y-90465991D01*
X207742712Y-90468794D01*
X207829479Y-90487237D01*
X207923056Y-90507128D01*
X207923061Y-90507128D01*
X207929513Y-90508500D01*
X208120487Y-90508500D01*
X208126939Y-90507128D01*
X208126944Y-90507128D01*
X208220521Y-90487237D01*
X208307288Y-90468794D01*
X208313584Y-90465991D01*
X208475722Y-90393803D01*
X208475724Y-90393802D01*
X208481752Y-90391118D01*
X208488384Y-90386300D01*
X208594675Y-90309074D01*
X208636253Y-90278866D01*
X208654385Y-90258728D01*
X208759621Y-90141852D01*
X208759622Y-90141851D01*
X208764040Y-90136944D01*
X208859527Y-89971556D01*
X208918542Y-89789928D01*
X208919238Y-89783311D01*
X208937814Y-89606565D01*
X208938504Y-89600000D01*
X208928684Y-89506565D01*
X208919232Y-89416635D01*
X208919232Y-89416633D01*
X208918542Y-89410072D01*
X208859527Y-89228444D01*
X208764040Y-89063056D01*
X208750504Y-89048022D01*
X208640675Y-88926045D01*
X208640674Y-88926044D01*
X208636253Y-88921134D01*
X208499053Y-88821452D01*
X208487094Y-88812763D01*
X208487093Y-88812762D01*
X208481752Y-88808882D01*
X208475724Y-88806198D01*
X208475722Y-88806197D01*
X208313319Y-88733891D01*
X208313318Y-88733891D01*
X208307288Y-88731206D01*
X208213887Y-88711353D01*
X208126944Y-88692872D01*
X208126939Y-88692872D01*
X208120487Y-88691500D01*
X207929513Y-88691500D01*
X207923061Y-88692872D01*
X207923056Y-88692872D01*
X207836112Y-88711353D01*
X207742712Y-88731206D01*
X207736682Y-88733891D01*
X207736681Y-88733891D01*
X207574278Y-88806197D01*
X207574276Y-88806198D01*
X207568248Y-88808882D01*
X207562907Y-88812762D01*
X207562906Y-88812763D01*
X207550947Y-88821452D01*
X207413747Y-88921134D01*
X207409326Y-88926044D01*
X207409325Y-88926045D01*
X207299497Y-89048022D01*
X207285960Y-89063056D01*
X207190473Y-89228444D01*
X207131458Y-89410072D01*
X207130768Y-89416633D01*
X207130768Y-89416635D01*
X207121316Y-89506565D01*
X207111496Y-89600000D01*
X202533500Y-89600000D01*
X202533500Y-89439594D01*
X202553502Y-89371473D01*
X202570405Y-89350499D01*
X202800499Y-89120405D01*
X202862811Y-89086379D01*
X202889594Y-89083500D01*
X202945487Y-89083500D01*
X202951939Y-89082128D01*
X202951944Y-89082128D01*
X203049510Y-89061389D01*
X203132288Y-89043794D01*
X203138319Y-89041109D01*
X203300722Y-88968803D01*
X203300724Y-88968802D01*
X203306752Y-88966118D01*
X203461253Y-88853866D01*
X203482269Y-88830525D01*
X203584621Y-88716852D01*
X203584622Y-88716851D01*
X203589040Y-88711944D01*
X203650449Y-88605581D01*
X203681223Y-88552279D01*
X203681224Y-88552278D01*
X203684527Y-88546556D01*
X203743542Y-88364928D01*
X203760491Y-88203672D01*
X203762814Y-88181565D01*
X203763504Y-88175000D01*
X203743542Y-87985072D01*
X203730960Y-87946350D01*
X203713681Y-87893169D01*
X203711654Y-87822201D01*
X203748316Y-87761404D01*
X203807317Y-87730987D01*
X203975822Y-87695169D01*
X203975827Y-87695167D01*
X203982288Y-87693794D01*
X203988319Y-87691109D01*
X204150722Y-87618803D01*
X204150724Y-87618802D01*
X204156752Y-87616118D01*
X204166653Y-87608925D01*
X204212157Y-87575864D01*
X204311253Y-87503866D01*
X204398738Y-87406704D01*
X204434621Y-87366852D01*
X204434622Y-87366851D01*
X204439040Y-87361944D01*
X204515583Y-87229368D01*
X204531223Y-87202279D01*
X204531224Y-87202278D01*
X204534527Y-87196556D01*
X204593542Y-87014928D01*
X204613504Y-86825000D01*
X204609374Y-86785702D01*
X204594232Y-86641635D01*
X204594232Y-86641633D01*
X204593542Y-86635072D01*
X204534527Y-86453444D01*
X204511415Y-86413412D01*
X204458601Y-86321937D01*
X204439040Y-86288056D01*
X204388012Y-86231383D01*
X204315675Y-86151045D01*
X204315674Y-86151044D01*
X204311253Y-86146134D01*
X204156752Y-86033882D01*
X204150724Y-86031198D01*
X204150722Y-86031197D01*
X203988319Y-85958891D01*
X203988318Y-85958891D01*
X203982288Y-85956206D01*
X203874501Y-85933295D01*
X203801944Y-85917872D01*
X203801939Y-85917872D01*
X203795487Y-85916500D01*
X203604513Y-85916500D01*
X203598061Y-85917872D01*
X203598056Y-85917872D01*
X203525499Y-85933295D01*
X203417712Y-85956206D01*
X203411682Y-85958891D01*
X203411681Y-85958891D01*
X203249278Y-86031197D01*
X203249276Y-86031198D01*
X203243248Y-86033882D01*
X203088747Y-86146134D01*
X203084326Y-86151044D01*
X203084325Y-86151045D01*
X203011989Y-86231383D01*
X202960960Y-86288056D01*
X202941399Y-86321937D01*
X202888586Y-86413412D01*
X202865473Y-86453444D01*
X202806458Y-86635072D01*
X202805768Y-86641633D01*
X202805768Y-86641635D01*
X202790626Y-86785702D01*
X202786496Y-86825000D01*
X202806458Y-87014928D01*
X202808498Y-87021206D01*
X202836319Y-87106831D01*
X202838346Y-87177799D01*
X202801684Y-87238596D01*
X202742683Y-87269013D01*
X202574178Y-87304831D01*
X202574173Y-87304833D01*
X202567712Y-87306206D01*
X202561682Y-87308891D01*
X202561681Y-87308891D01*
X202399278Y-87381197D01*
X202399276Y-87381198D01*
X202393248Y-87383882D01*
X202387907Y-87387762D01*
X202387906Y-87387763D01*
X202374273Y-87397668D01*
X202238747Y-87496134D01*
X202234326Y-87501044D01*
X202234325Y-87501045D01*
X202134208Y-87612237D01*
X202110960Y-87638056D01*
X202080330Y-87691109D01*
X202037045Y-87766081D01*
X202015473Y-87803444D01*
X201956458Y-87985072D01*
X201955768Y-87991633D01*
X201955768Y-87991635D01*
X201939093Y-88150292D01*
X201912080Y-88215949D01*
X201902878Y-88226217D01*
X201624500Y-88504595D01*
X201562188Y-88538621D01*
X201535405Y-88541500D01*
X201024600Y-88541500D01*
X201021354Y-88541837D01*
X201021350Y-88541837D01*
X200925692Y-88551762D01*
X200925688Y-88551763D01*
X200918834Y-88552474D01*
X200912298Y-88554655D01*
X200912296Y-88554655D01*
X200797747Y-88592872D01*
X200751054Y-88608450D01*
X200600652Y-88701522D01*
X200595479Y-88706704D01*
X200514216Y-88788109D01*
X200451934Y-88822188D01*
X200381114Y-88817185D01*
X200336025Y-88788264D01*
X200253483Y-88705866D01*
X200248303Y-88700695D01*
X200233386Y-88691500D01*
X200103968Y-88611725D01*
X200103966Y-88611724D01*
X200097738Y-88607885D01*
X199937254Y-88554655D01*
X199936389Y-88554368D01*
X199936387Y-88554368D01*
X199929861Y-88552203D01*
X199923025Y-88551503D01*
X199923022Y-88551502D01*
X199874746Y-88546556D01*
X199825400Y-88541500D01*
X199024600Y-88541500D01*
X199021354Y-88541837D01*
X199021350Y-88541837D01*
X198925692Y-88551762D01*
X198925688Y-88551763D01*
X198918834Y-88552474D01*
X198912298Y-88554655D01*
X198912296Y-88554655D01*
X198797747Y-88592872D01*
X198751054Y-88608450D01*
X198744822Y-88612306D01*
X198744823Y-88612306D01*
X198603945Y-88699484D01*
X198535493Y-88718322D01*
X198471527Y-88699600D01*
X198364927Y-88633891D01*
X198328968Y-88611725D01*
X198328966Y-88611724D01*
X198322738Y-88607885D01*
X198162254Y-88554655D01*
X198161389Y-88554368D01*
X198161387Y-88554368D01*
X198154861Y-88552203D01*
X198148025Y-88551503D01*
X198148022Y-88551502D01*
X198099746Y-88546556D01*
X198050400Y-88541500D01*
X197249600Y-88541500D01*
X197246354Y-88541837D01*
X197246350Y-88541837D01*
X197150692Y-88551762D01*
X197150688Y-88551763D01*
X197143834Y-88552474D01*
X197137298Y-88554655D01*
X197137296Y-88554655D01*
X197022747Y-88592872D01*
X196976054Y-88608450D01*
X196825652Y-88701522D01*
X196820479Y-88706704D01*
X196739216Y-88788109D01*
X196676934Y-88822188D01*
X196606114Y-88817185D01*
X196561025Y-88788264D01*
X196478483Y-88705866D01*
X196473303Y-88700695D01*
X196458386Y-88691500D01*
X196328968Y-88611725D01*
X196328966Y-88611724D01*
X196322738Y-88607885D01*
X196162254Y-88554655D01*
X196161389Y-88554368D01*
X196161387Y-88554368D01*
X196154861Y-88552203D01*
X196148025Y-88551503D01*
X196148022Y-88551502D01*
X196099746Y-88546556D01*
X196050400Y-88541500D01*
X195249600Y-88541500D01*
X195246354Y-88541837D01*
X195246350Y-88541837D01*
X195150692Y-88551762D01*
X195150688Y-88551763D01*
X195143834Y-88552474D01*
X195137298Y-88554655D01*
X195137296Y-88554655D01*
X195022747Y-88592872D01*
X194976054Y-88608450D01*
X194825652Y-88701522D01*
X194700695Y-88826697D01*
X194698714Y-88824720D01*
X194651280Y-88858332D01*
X194580357Y-88861545D01*
X194559099Y-88854273D01*
X194513323Y-88833892D01*
X194513315Y-88833889D01*
X194507288Y-88831206D01*
X194413887Y-88811353D01*
X194326944Y-88792872D01*
X194326939Y-88792872D01*
X194320487Y-88791500D01*
X194129513Y-88791500D01*
X194123061Y-88792872D01*
X194123056Y-88792872D01*
X194036113Y-88811353D01*
X193942712Y-88831206D01*
X193936682Y-88833891D01*
X193936681Y-88833891D01*
X193774278Y-88906197D01*
X193774276Y-88906198D01*
X193768248Y-88908882D01*
X193762907Y-88912762D01*
X193762906Y-88912763D01*
X193750008Y-88922134D01*
X193613747Y-89021134D01*
X193609326Y-89026044D01*
X193609325Y-89026045D01*
X193592109Y-89045166D01*
X193485960Y-89163056D01*
X193444097Y-89235564D01*
X193416329Y-89283661D01*
X193390473Y-89328444D01*
X193331458Y-89510072D01*
X193330768Y-89516633D01*
X193330768Y-89516635D01*
X193326753Y-89554834D01*
X193311496Y-89700000D01*
X191415900Y-89700000D01*
X191384527Y-89603444D01*
X191379317Y-89594419D01*
X191372394Y-89582429D01*
X191355656Y-89513434D01*
X191378876Y-89446342D01*
X191392340Y-89430411D01*
X191451514Y-89371134D01*
X191474305Y-89348303D01*
X191497871Y-89310072D01*
X191563275Y-89203968D01*
X191563276Y-89203966D01*
X191567115Y-89197738D01*
X191622797Y-89029861D01*
X191633500Y-88925400D01*
X191633500Y-87924600D01*
X191632166Y-87911745D01*
X191623238Y-87825692D01*
X191623237Y-87825688D01*
X191622526Y-87818834D01*
X191619489Y-87809729D01*
X191568868Y-87658002D01*
X191566550Y-87651054D01*
X191473478Y-87500652D01*
X191348303Y-87375695D01*
X191316719Y-87356226D01*
X191203968Y-87286725D01*
X191203966Y-87286724D01*
X191197738Y-87282885D01*
X191103121Y-87251502D01*
X191036389Y-87229368D01*
X191036387Y-87229368D01*
X191029861Y-87227203D01*
X191023025Y-87226503D01*
X191023022Y-87226502D01*
X190979969Y-87222091D01*
X190925400Y-87216500D01*
X190124600Y-87216500D01*
X190121354Y-87216837D01*
X190121350Y-87216837D01*
X190025692Y-87226762D01*
X190025688Y-87226763D01*
X190018834Y-87227474D01*
X190012298Y-87229655D01*
X190012296Y-87229655D01*
X189946034Y-87251762D01*
X189851054Y-87283450D01*
X189700652Y-87376522D01*
X189695479Y-87381704D01*
X189614216Y-87463109D01*
X189551934Y-87497188D01*
X189481114Y-87492185D01*
X189436025Y-87463264D01*
X189353483Y-87380866D01*
X189348303Y-87375695D01*
X189316719Y-87356226D01*
X189203968Y-87286725D01*
X189203966Y-87286724D01*
X189197738Y-87282885D01*
X189103121Y-87251502D01*
X189036389Y-87229368D01*
X189036387Y-87229368D01*
X189029861Y-87227203D01*
X189023025Y-87226503D01*
X189023022Y-87226502D01*
X188979969Y-87222091D01*
X188925400Y-87216500D01*
X188124600Y-87216500D01*
X188121354Y-87216837D01*
X188121350Y-87216837D01*
X188025692Y-87226762D01*
X188025688Y-87226763D01*
X188018834Y-87227474D01*
X188012298Y-87229655D01*
X188012296Y-87229655D01*
X187946034Y-87251762D01*
X187851054Y-87283450D01*
X187700652Y-87376522D01*
X187575695Y-87501697D01*
X187571855Y-87507927D01*
X187571854Y-87507928D01*
X187503510Y-87618803D01*
X187482885Y-87652262D01*
X187456773Y-87730987D01*
X187434639Y-87797721D01*
X187427203Y-87820139D01*
X187426503Y-87826975D01*
X187426502Y-87826978D01*
X187423941Y-87851978D01*
X187416500Y-87924600D01*
X187416500Y-88925400D01*
X187416837Y-88928646D01*
X187416837Y-88928650D01*
X187420725Y-88966118D01*
X187427474Y-89031166D01*
X187429655Y-89037702D01*
X187429655Y-89037704D01*
X187458019Y-89122721D01*
X187483450Y-89198946D01*
X187487304Y-89205174D01*
X187487305Y-89205176D01*
X187500403Y-89226342D01*
X187540462Y-89291075D01*
X187544364Y-89297381D01*
X187563202Y-89365832D01*
X187542041Y-89433602D01*
X187526315Y-89452779D01*
X187499499Y-89479595D01*
X187437187Y-89513621D01*
X187410404Y-89516500D01*
X187354513Y-89516500D01*
X187348061Y-89517872D01*
X187348056Y-89517872D01*
X187261112Y-89536353D01*
X187167712Y-89556206D01*
X187161682Y-89558891D01*
X187161681Y-89558891D01*
X186999278Y-89631197D01*
X186999276Y-89631198D01*
X186993248Y-89633882D01*
X186987907Y-89637762D01*
X186987906Y-89637763D01*
X186974096Y-89647797D01*
X186838747Y-89746134D01*
X186834326Y-89751044D01*
X186834325Y-89751045D01*
X186720664Y-89877279D01*
X186710960Y-89888056D01*
X186666531Y-89965009D01*
X186622166Y-90041852D01*
X186615473Y-90053444D01*
X186590990Y-90128794D01*
X186567814Y-90200122D01*
X186527740Y-90258728D01*
X186462344Y-90286365D01*
X186392387Y-90274258D01*
X186340081Y-90226252D01*
X186322671Y-90174357D01*
X186319232Y-90141635D01*
X186319232Y-90141633D01*
X186318542Y-90135072D01*
X186259527Y-89953444D01*
X186252921Y-89942001D01*
X186219067Y-89883365D01*
X186164040Y-89788056D01*
X186156814Y-89780030D01*
X186040675Y-89651045D01*
X186040674Y-89651044D01*
X186036253Y-89646134D01*
X185929906Y-89568868D01*
X185887094Y-89537763D01*
X185887093Y-89537762D01*
X185881752Y-89533882D01*
X185875724Y-89531198D01*
X185875722Y-89531197D01*
X185713319Y-89458891D01*
X185713318Y-89458891D01*
X185707288Y-89456206D01*
X185585933Y-89430411D01*
X185526944Y-89417872D01*
X185526939Y-89417872D01*
X185520487Y-89416500D01*
X185464595Y-89416500D01*
X185396474Y-89396498D01*
X185375500Y-89379595D01*
X185364596Y-89368691D01*
X185330570Y-89306379D01*
X185335635Y-89235564D01*
X185338659Y-89228344D01*
X185342115Y-89222738D01*
X185397797Y-89054861D01*
X185398791Y-89045166D01*
X185406617Y-88968774D01*
X185408500Y-88950400D01*
X185408500Y-87949600D01*
X185405906Y-87924600D01*
X185398238Y-87850692D01*
X185398237Y-87850688D01*
X185397526Y-87843834D01*
X185391903Y-87826978D01*
X185343868Y-87683002D01*
X185341550Y-87676054D01*
X185248478Y-87525652D01*
X185123303Y-87400695D01*
X185102324Y-87387763D01*
X184978968Y-87311725D01*
X184978966Y-87311724D01*
X184972738Y-87307885D01*
X184855542Y-87269013D01*
X184811389Y-87254368D01*
X184811387Y-87254368D01*
X184804861Y-87252203D01*
X184798025Y-87251503D01*
X184798022Y-87251502D01*
X184754969Y-87247091D01*
X184700400Y-87241500D01*
X183899600Y-87241500D01*
X183896354Y-87241837D01*
X183896350Y-87241837D01*
X183800692Y-87251762D01*
X183800688Y-87251763D01*
X183793834Y-87252474D01*
X183787298Y-87254655D01*
X183787296Y-87254655D01*
X183689430Y-87287306D01*
X183626054Y-87308450D01*
X183475652Y-87401522D01*
X183470479Y-87406704D01*
X183389216Y-87488109D01*
X183326934Y-87522188D01*
X183256114Y-87517185D01*
X183211025Y-87488264D01*
X183128483Y-87405866D01*
X183123303Y-87400695D01*
X183102324Y-87387763D01*
X182978968Y-87311725D01*
X182978966Y-87311724D01*
X182972738Y-87307885D01*
X182855542Y-87269013D01*
X182811389Y-87254368D01*
X182811387Y-87254368D01*
X182804861Y-87252203D01*
X182798025Y-87251503D01*
X182798022Y-87251502D01*
X182754969Y-87247091D01*
X182700400Y-87241500D01*
X181899600Y-87241500D01*
X181896354Y-87241837D01*
X181896350Y-87241837D01*
X181800692Y-87251762D01*
X181800688Y-87251763D01*
X181793834Y-87252474D01*
X181787298Y-87254655D01*
X181787296Y-87254655D01*
X181689430Y-87287306D01*
X181626054Y-87308450D01*
X181475652Y-87401522D01*
X181350695Y-87526697D01*
X181346855Y-87532927D01*
X181346854Y-87532928D01*
X181270557Y-87656705D01*
X181257885Y-87677262D01*
X181255581Y-87684209D01*
X181216033Y-87803444D01*
X181202203Y-87845139D01*
X181191500Y-87949600D01*
X181191500Y-88950400D01*
X181191837Y-88953646D01*
X181191837Y-88953650D01*
X181201333Y-89045166D01*
X181202474Y-89056166D01*
X181204655Y-89062702D01*
X181204655Y-89062704D01*
X181226588Y-89128444D01*
X181258450Y-89223946D01*
X181294048Y-89281472D01*
X181295403Y-89283661D01*
X181314241Y-89352113D01*
X181293080Y-89419882D01*
X181281899Y-89434270D01*
X181210960Y-89513056D01*
X181115473Y-89678444D01*
X181056458Y-89860072D01*
X181055768Y-89866633D01*
X181055768Y-89866635D01*
X181044379Y-89975000D01*
X181036496Y-90050000D01*
X175668500Y-90050000D01*
X175668500Y-82994669D01*
X178792001Y-82994669D01*
X178792371Y-83001490D01*
X178797895Y-83052352D01*
X178801521Y-83067604D01*
X178846676Y-83188054D01*
X178855214Y-83203649D01*
X178931715Y-83305724D01*
X178944276Y-83318285D01*
X179046351Y-83394786D01*
X179061946Y-83403324D01*
X179182394Y-83448478D01*
X179197649Y-83452105D01*
X179248514Y-83457631D01*
X179255328Y-83458000D01*
X179877885Y-83458000D01*
X179893124Y-83453525D01*
X179894329Y-83452135D01*
X179896000Y-83444452D01*
X179896000Y-83439884D01*
X180404000Y-83439884D01*
X180408475Y-83455123D01*
X180409865Y-83456328D01*
X180417548Y-83457999D01*
X181044669Y-83457999D01*
X181051490Y-83457629D01*
X181102352Y-83452105D01*
X181117604Y-83448479D01*
X181238054Y-83403324D01*
X181253649Y-83394786D01*
X181355724Y-83318285D01*
X181368285Y-83305724D01*
X181444786Y-83203649D01*
X181453324Y-83188054D01*
X181494225Y-83078952D01*
X181536867Y-83022188D01*
X181603428Y-82997488D01*
X181672777Y-83012696D01*
X181707444Y-83040684D01*
X181732865Y-83070031D01*
X181732869Y-83070035D01*
X181736250Y-83073938D01*
X181908126Y-83216632D01*
X181994070Y-83266853D01*
X182042794Y-83318491D01*
X182056500Y-83375641D01*
X182056500Y-83396993D01*
X182036498Y-83465114D01*
X181982842Y-83511607D01*
X181943505Y-83522320D01*
X181927811Y-83523949D01*
X181893834Y-83527474D01*
X181887298Y-83529655D01*
X181887296Y-83529655D01*
X181849440Y-83542285D01*
X181726054Y-83583450D01*
X181575652Y-83676522D01*
X181450695Y-83801697D01*
X181446855Y-83807927D01*
X181446854Y-83807928D01*
X181366133Y-83938882D01*
X181357885Y-83952262D01*
X181355581Y-83959209D01*
X181318172Y-84071995D01*
X181302203Y-84120139D01*
X181291500Y-84224600D01*
X181291500Y-85225400D01*
X181291837Y-85228646D01*
X181291837Y-85228650D01*
X181297020Y-85278598D01*
X181302474Y-85331166D01*
X181358450Y-85498946D01*
X181451522Y-85649348D01*
X181576697Y-85774305D01*
X181582927Y-85778145D01*
X181582928Y-85778146D01*
X181657812Y-85824305D01*
X181727262Y-85867115D01*
X181841482Y-85905000D01*
X181894391Y-85942429D01*
X181895458Y-85941362D01*
X181909779Y-85955683D01*
X181922619Y-85970716D01*
X181934528Y-85987107D01*
X181957736Y-86006306D01*
X181968605Y-86015298D01*
X181977384Y-86023288D01*
X182496343Y-86542247D01*
X182503887Y-86550537D01*
X182508000Y-86557018D01*
X182513777Y-86562443D01*
X182557667Y-86603658D01*
X182560509Y-86606413D01*
X182580230Y-86626134D01*
X182583425Y-86628612D01*
X182592447Y-86636318D01*
X182624679Y-86666586D01*
X182631628Y-86670406D01*
X182642432Y-86676346D01*
X182658956Y-86687199D01*
X182674959Y-86699613D01*
X182715543Y-86717176D01*
X182726173Y-86722383D01*
X182764940Y-86743695D01*
X182772617Y-86745666D01*
X182772622Y-86745668D01*
X182784558Y-86748732D01*
X182803266Y-86755137D01*
X182821855Y-86763181D01*
X182829683Y-86764421D01*
X182829690Y-86764423D01*
X182865524Y-86770099D01*
X182877144Y-86772505D01*
X182908959Y-86780673D01*
X182919970Y-86783500D01*
X182940224Y-86783500D01*
X182959934Y-86785051D01*
X182979943Y-86788220D01*
X182987835Y-86787474D01*
X183006580Y-86785702D01*
X183023962Y-86784059D01*
X183035819Y-86783500D01*
X185821233Y-86783500D01*
X185832416Y-86784027D01*
X185839909Y-86785702D01*
X185847835Y-86785453D01*
X185847836Y-86785453D01*
X185907986Y-86783562D01*
X185911945Y-86783500D01*
X185939856Y-86783500D01*
X185943791Y-86783003D01*
X185943856Y-86782995D01*
X185955693Y-86782062D01*
X185987951Y-86781048D01*
X185991970Y-86780922D01*
X185999889Y-86780673D01*
X186019343Y-86775021D01*
X186038700Y-86771013D01*
X186050930Y-86769468D01*
X186050931Y-86769468D01*
X186058797Y-86768474D01*
X186066168Y-86765555D01*
X186066170Y-86765555D01*
X186099912Y-86752196D01*
X186111142Y-86748351D01*
X186145983Y-86738229D01*
X186145984Y-86738229D01*
X186153593Y-86736018D01*
X186160412Y-86731985D01*
X186160417Y-86731983D01*
X186171028Y-86725707D01*
X186188776Y-86717012D01*
X186207617Y-86709552D01*
X186227987Y-86694753D01*
X186243387Y-86683564D01*
X186253307Y-86677048D01*
X186284535Y-86658580D01*
X186284538Y-86658578D01*
X186291362Y-86654542D01*
X186305683Y-86640221D01*
X186320717Y-86627380D01*
X186322432Y-86626134D01*
X186337107Y-86615472D01*
X186365298Y-86581395D01*
X186373288Y-86572616D01*
X186767247Y-86178657D01*
X186775537Y-86171113D01*
X186782018Y-86167000D01*
X186828659Y-86117332D01*
X186831413Y-86114491D01*
X186851134Y-86094770D01*
X186853612Y-86091575D01*
X186861318Y-86082553D01*
X186886158Y-86056101D01*
X186891586Y-86050321D01*
X186899574Y-86035791D01*
X186901346Y-86032568D01*
X186912199Y-86016045D01*
X186919753Y-86006306D01*
X186924613Y-86000041D01*
X186927763Y-85992761D01*
X186930177Y-85988680D01*
X186982070Y-85940227D01*
X186998755Y-85933295D01*
X187048946Y-85916550D01*
X187199348Y-85823478D01*
X187285784Y-85736891D01*
X187348066Y-85702812D01*
X187418886Y-85707815D01*
X187463975Y-85736736D01*
X187501610Y-85774305D01*
X187551697Y-85824305D01*
X187557927Y-85828145D01*
X187557928Y-85828146D01*
X187695090Y-85912694D01*
X187702262Y-85917115D01*
X187771943Y-85940227D01*
X187863611Y-85970632D01*
X187863613Y-85970632D01*
X187870139Y-85972797D01*
X187876975Y-85973497D01*
X187876978Y-85973498D01*
X187920031Y-85977909D01*
X187974600Y-85983500D01*
X188775400Y-85983500D01*
X188778646Y-85983163D01*
X188778650Y-85983163D01*
X188874308Y-85973238D01*
X188874312Y-85973237D01*
X188881166Y-85972526D01*
X188887702Y-85970345D01*
X188887704Y-85970345D01*
X189019806Y-85926272D01*
X189048946Y-85916550D01*
X189199348Y-85823478D01*
X189255633Y-85767095D01*
X217572001Y-85767095D01*
X217572338Y-85773614D01*
X217582257Y-85869206D01*
X217585149Y-85882600D01*
X217636588Y-86036784D01*
X217642761Y-86049962D01*
X217728063Y-86187807D01*
X217737099Y-86199208D01*
X217851829Y-86313739D01*
X217863240Y-86322751D01*
X218001243Y-86407816D01*
X218014424Y-86413963D01*
X218168710Y-86465138D01*
X218182086Y-86468005D01*
X218276438Y-86477672D01*
X218282854Y-86478000D01*
X218407885Y-86478000D01*
X218423124Y-86473525D01*
X218424329Y-86472135D01*
X218426000Y-86464452D01*
X218426000Y-86459884D01*
X218934000Y-86459884D01*
X218938475Y-86475123D01*
X218939865Y-86476328D01*
X218947548Y-86477999D01*
X219077095Y-86477999D01*
X219083614Y-86477662D01*
X219179206Y-86467743D01*
X219192600Y-86464851D01*
X219346784Y-86413412D01*
X219359962Y-86407239D01*
X219497807Y-86321937D01*
X219509208Y-86312901D01*
X219590430Y-86231538D01*
X219652713Y-86197459D01*
X219723533Y-86202462D01*
X219768620Y-86231383D01*
X219851512Y-86314130D01*
X219851517Y-86314134D01*
X219856697Y-86319305D01*
X219862927Y-86323145D01*
X219862928Y-86323146D01*
X220000288Y-86407816D01*
X220007262Y-86412115D01*
X220014209Y-86414419D01*
X220020844Y-86417513D01*
X220020175Y-86418948D01*
X220071474Y-86454486D01*
X220098711Y-86520050D01*
X220091430Y-86577877D01*
X220086029Y-86592285D01*
X220083255Y-86599684D01*
X220076500Y-86661866D01*
X220076500Y-87458134D01*
X220083255Y-87520316D01*
X220134385Y-87656705D01*
X220221739Y-87773261D01*
X220338295Y-87860615D01*
X220474684Y-87911745D01*
X220536866Y-87918500D01*
X221083134Y-87918500D01*
X221145316Y-87911745D01*
X221281705Y-87860615D01*
X221398261Y-87773261D01*
X221485615Y-87656705D01*
X221536745Y-87520316D01*
X221543500Y-87458134D01*
X221543500Y-86661866D01*
X221536745Y-86599684D01*
X221491128Y-86478000D01*
X221488764Y-86471694D01*
X221488763Y-86471692D01*
X221485615Y-86463295D01*
X221484629Y-86461980D01*
X221470249Y-86396224D01*
X221494987Y-86329676D01*
X221506765Y-86316057D01*
X221624134Y-86198483D01*
X221629305Y-86193303D01*
X221642184Y-86172409D01*
X221718275Y-86048968D01*
X221718276Y-86048966D01*
X221722115Y-86042738D01*
X221756116Y-85940227D01*
X221775632Y-85881389D01*
X221775632Y-85881387D01*
X221777797Y-85874861D01*
X221788500Y-85770400D01*
X221788500Y-84886688D01*
X221808502Y-84818567D01*
X221863251Y-84771582D01*
X221880715Y-84763806D01*
X221880716Y-84763805D01*
X221886752Y-84761118D01*
X222041253Y-84648866D01*
X222133302Y-84546635D01*
X222164621Y-84511852D01*
X222164622Y-84511851D01*
X222169040Y-84506944D01*
X222264527Y-84341556D01*
X222323542Y-84159928D01*
X222326398Y-84132761D01*
X222342814Y-83976565D01*
X222343504Y-83970000D01*
X222332352Y-83863891D01*
X222324232Y-83786635D01*
X222324232Y-83786633D01*
X222323542Y-83780072D01*
X222264527Y-83598444D01*
X222258097Y-83587306D01*
X222220577Y-83522320D01*
X222169040Y-83433056D01*
X222117344Y-83375641D01*
X222045675Y-83296045D01*
X222045674Y-83296044D01*
X222041253Y-83291134D01*
X221886752Y-83178882D01*
X221880724Y-83176198D01*
X221880722Y-83176197D01*
X221718319Y-83103891D01*
X221718318Y-83103891D01*
X221712288Y-83101206D01*
X221607592Y-83078952D01*
X221531944Y-83062872D01*
X221531939Y-83062872D01*
X221525487Y-83061500D01*
X221334513Y-83061500D01*
X221328061Y-83062872D01*
X221328056Y-83062872D01*
X221252408Y-83078952D01*
X221147712Y-83101206D01*
X221141682Y-83103891D01*
X221141681Y-83103891D01*
X220979278Y-83176197D01*
X220979276Y-83176198D01*
X220973248Y-83178882D01*
X220818747Y-83291134D01*
X220814326Y-83296044D01*
X220814325Y-83296045D01*
X220742657Y-83375641D01*
X220690960Y-83433056D01*
X220639423Y-83522320D01*
X220601904Y-83587306D01*
X220595473Y-83598444D01*
X220536458Y-83780072D01*
X220535768Y-83786633D01*
X220535768Y-83786635D01*
X220519093Y-83945292D01*
X220492080Y-84010949D01*
X220482878Y-84021217D01*
X220479500Y-84024595D01*
X220417188Y-84058621D01*
X220390405Y-84061500D01*
X220279600Y-84061500D01*
X220276354Y-84061837D01*
X220276350Y-84061837D01*
X220180692Y-84071762D01*
X220180688Y-84071763D01*
X220173834Y-84072474D01*
X220167298Y-84074655D01*
X220167296Y-84074655D01*
X220150928Y-84080116D01*
X220006054Y-84128450D01*
X219855652Y-84221522D01*
X219850479Y-84226704D01*
X219768862Y-84308463D01*
X219706579Y-84342542D01*
X219635759Y-84337539D01*
X219590671Y-84308618D01*
X219508171Y-84226261D01*
X219496760Y-84217249D01*
X219358757Y-84132184D01*
X219345576Y-84126037D01*
X219191290Y-84074862D01*
X219177914Y-84071995D01*
X219083562Y-84062328D01*
X219077145Y-84062000D01*
X218952115Y-84062000D01*
X218936876Y-84066475D01*
X218935671Y-84067865D01*
X218934000Y-84075548D01*
X218934000Y-86459884D01*
X218426000Y-86459884D01*
X218426000Y-85542115D01*
X218421525Y-85526876D01*
X218420135Y-85525671D01*
X218412452Y-85524000D01*
X217590116Y-85524000D01*
X217574877Y-85528475D01*
X217573672Y-85529865D01*
X217572001Y-85537548D01*
X217572001Y-85767095D01*
X189255633Y-85767095D01*
X189324305Y-85698303D01*
X189351293Y-85654521D01*
X189413275Y-85553968D01*
X189413276Y-85553966D01*
X189417115Y-85547738D01*
X189463177Y-85408866D01*
X189470632Y-85386389D01*
X189470632Y-85386387D01*
X189472797Y-85379861D01*
X189483500Y-85275400D01*
X189483500Y-84730000D01*
X192306496Y-84730000D01*
X192326458Y-84919928D01*
X192385473Y-85101556D01*
X192480960Y-85266944D01*
X192485378Y-85271851D01*
X192485379Y-85271852D01*
X192576473Y-85373022D01*
X192608747Y-85408866D01*
X192763248Y-85521118D01*
X192769276Y-85523802D01*
X192769278Y-85523803D01*
X192931681Y-85596109D01*
X192937712Y-85598794D01*
X193031112Y-85618647D01*
X193118056Y-85637128D01*
X193118061Y-85637128D01*
X193124513Y-85638500D01*
X193315487Y-85638500D01*
X193321939Y-85637128D01*
X193321944Y-85637128D01*
X193408888Y-85618647D01*
X193502288Y-85598794D01*
X193508319Y-85596109D01*
X193670722Y-85523803D01*
X193670724Y-85523802D01*
X193676752Y-85521118D01*
X193831253Y-85408866D01*
X193863527Y-85373022D01*
X193954621Y-85271852D01*
X193954622Y-85271851D01*
X193959040Y-85266944D01*
X194054527Y-85101556D01*
X194088212Y-84997885D01*
X217572000Y-84997885D01*
X217576475Y-85013124D01*
X217577865Y-85014329D01*
X217585548Y-85016000D01*
X218407885Y-85016000D01*
X218423124Y-85011525D01*
X218424329Y-85010135D01*
X218426000Y-85002452D01*
X218426000Y-84080116D01*
X218421525Y-84064877D01*
X218420135Y-84063672D01*
X218412452Y-84062001D01*
X218282905Y-84062001D01*
X218276386Y-84062338D01*
X218180794Y-84072257D01*
X218167400Y-84075149D01*
X218013216Y-84126588D01*
X218000038Y-84132761D01*
X217862193Y-84218063D01*
X217850792Y-84227099D01*
X217736261Y-84341829D01*
X217727249Y-84353240D01*
X217642184Y-84491243D01*
X217636037Y-84504424D01*
X217584862Y-84658710D01*
X217581995Y-84672086D01*
X217572328Y-84766438D01*
X217572000Y-84772855D01*
X217572000Y-84997885D01*
X194088212Y-84997885D01*
X194113542Y-84919928D01*
X194133504Y-84730000D01*
X194124977Y-84648866D01*
X194114232Y-84546635D01*
X194114232Y-84546633D01*
X194113542Y-84540072D01*
X194054527Y-84358444D01*
X194042458Y-84337539D01*
X194008005Y-84277866D01*
X193959040Y-84193056D01*
X193943406Y-84175692D01*
X193835675Y-84056045D01*
X193835674Y-84056044D01*
X193831253Y-84051134D01*
X193676752Y-83938882D01*
X193670724Y-83936198D01*
X193670722Y-83936197D01*
X193508319Y-83863891D01*
X193508318Y-83863891D01*
X193502288Y-83861206D01*
X193408888Y-83841353D01*
X193321944Y-83822872D01*
X193321939Y-83822872D01*
X193315487Y-83821500D01*
X193124513Y-83821500D01*
X193118061Y-83822872D01*
X193118056Y-83822872D01*
X193031112Y-83841353D01*
X192937712Y-83861206D01*
X192931682Y-83863891D01*
X192931681Y-83863891D01*
X192769278Y-83936197D01*
X192769276Y-83936198D01*
X192763248Y-83938882D01*
X192608747Y-84051134D01*
X192604326Y-84056044D01*
X192604325Y-84056045D01*
X192496595Y-84175692D01*
X192480960Y-84193056D01*
X192431995Y-84277866D01*
X192397543Y-84337539D01*
X192385473Y-84358444D01*
X192326458Y-84540072D01*
X192325768Y-84546633D01*
X192325768Y-84546635D01*
X192315023Y-84648866D01*
X192306496Y-84730000D01*
X189483500Y-84730000D01*
X189483500Y-84274600D01*
X189478646Y-84227817D01*
X189473238Y-84175692D01*
X189473237Y-84175688D01*
X189472526Y-84168834D01*
X189458280Y-84126132D01*
X189418868Y-84008002D01*
X189416550Y-84001054D01*
X189323478Y-83850652D01*
X189198303Y-83725695D01*
X189123329Y-83679480D01*
X189068384Y-83645611D01*
X189020890Y-83592838D01*
X189008500Y-83538351D01*
X189008500Y-82783767D01*
X189009027Y-82772584D01*
X189010702Y-82765091D01*
X189008562Y-82697014D01*
X189008500Y-82693055D01*
X189008500Y-82689783D01*
X189021543Y-82633956D01*
X189035136Y-82606452D01*
X189037430Y-82601811D01*
X189102370Y-82388069D01*
X189131529Y-82166590D01*
X189133156Y-82100000D01*
X189114852Y-81877361D01*
X189060431Y-81660702D01*
X188981859Y-81480000D01*
X192836496Y-81480000D01*
X192856458Y-81669928D01*
X192915473Y-81851556D01*
X192918776Y-81857278D01*
X192918777Y-81857279D01*
X192933351Y-81882522D01*
X193010960Y-82016944D01*
X193138747Y-82158866D01*
X193293248Y-82271118D01*
X193299276Y-82273802D01*
X193299278Y-82273803D01*
X193461681Y-82346109D01*
X193467712Y-82348794D01*
X193549215Y-82366118D01*
X193648056Y-82387128D01*
X193648061Y-82387128D01*
X193654513Y-82388500D01*
X193845487Y-82388500D01*
X193851939Y-82387128D01*
X193851944Y-82387128D01*
X193950785Y-82366118D01*
X194032288Y-82348794D01*
X194038319Y-82346109D01*
X194200722Y-82273803D01*
X194200724Y-82273802D01*
X194206752Y-82271118D01*
X194361253Y-82158866D01*
X194489040Y-82016944D01*
X194566649Y-81882522D01*
X194581223Y-81857279D01*
X194581224Y-81857278D01*
X194584527Y-81851556D01*
X194643542Y-81669928D01*
X194653519Y-81575000D01*
X198286496Y-81575000D01*
X198287186Y-81581565D01*
X198295504Y-81660702D01*
X198306458Y-81764928D01*
X198365473Y-81946556D01*
X198460960Y-82111944D01*
X198588747Y-82253866D01*
X198616188Y-82273803D01*
X198734642Y-82359865D01*
X198743248Y-82366118D01*
X198749276Y-82368802D01*
X198749278Y-82368803D01*
X198911681Y-82441109D01*
X198917712Y-82443794D01*
X199011112Y-82463647D01*
X199098056Y-82482128D01*
X199098061Y-82482128D01*
X199104513Y-82483500D01*
X199295487Y-82483500D01*
X199301939Y-82482128D01*
X199301944Y-82482128D01*
X199388888Y-82463647D01*
X199482288Y-82443794D01*
X199488319Y-82441109D01*
X199650722Y-82368803D01*
X199650724Y-82368802D01*
X199656752Y-82366118D01*
X199665359Y-82359865D01*
X199783812Y-82273803D01*
X199811253Y-82253866D01*
X199939040Y-82111944D01*
X200034527Y-81946556D01*
X200093542Y-81764928D01*
X200104497Y-81660702D01*
X200112814Y-81581565D01*
X200113504Y-81575000D01*
X200095071Y-81399618D01*
X200094232Y-81391635D01*
X200094232Y-81391633D01*
X200093542Y-81385072D01*
X200034527Y-81203444D01*
X200031060Y-81197438D01*
X199942341Y-81043774D01*
X199939040Y-81038056D01*
X199915531Y-81011946D01*
X199815675Y-80901045D01*
X199815674Y-80901044D01*
X199811253Y-80896134D01*
X199675153Y-80797251D01*
X199662094Y-80787763D01*
X199662093Y-80787762D01*
X199656752Y-80783882D01*
X199650724Y-80781198D01*
X199650722Y-80781197D01*
X199488319Y-80708891D01*
X199488318Y-80708891D01*
X199482288Y-80706206D01*
X199388154Y-80686197D01*
X199301944Y-80667872D01*
X199301939Y-80667872D01*
X199295487Y-80666500D01*
X199104513Y-80666500D01*
X199098061Y-80667872D01*
X199098056Y-80667872D01*
X199011846Y-80686197D01*
X198917712Y-80706206D01*
X198911682Y-80708891D01*
X198911681Y-80708891D01*
X198749278Y-80781197D01*
X198749276Y-80781198D01*
X198743248Y-80783882D01*
X198737907Y-80787762D01*
X198737906Y-80787763D01*
X198724847Y-80797251D01*
X198588747Y-80896134D01*
X198584326Y-80901044D01*
X198584325Y-80901045D01*
X198484470Y-81011946D01*
X198460960Y-81038056D01*
X198457659Y-81043774D01*
X198368941Y-81197438D01*
X198365473Y-81203444D01*
X198306458Y-81385072D01*
X198305768Y-81391633D01*
X198305768Y-81391635D01*
X198304929Y-81399618D01*
X198286496Y-81575000D01*
X194653519Y-81575000D01*
X194663504Y-81480000D01*
X194657900Y-81426680D01*
X194644232Y-81296635D01*
X194644232Y-81296633D01*
X194643542Y-81290072D01*
X194584527Y-81108444D01*
X194568472Y-81080635D01*
X194501477Y-80964598D01*
X194489040Y-80943056D01*
X194433809Y-80881715D01*
X194365675Y-80806045D01*
X194365674Y-80806044D01*
X194361253Y-80801134D01*
X194234292Y-80708891D01*
X194212094Y-80692763D01*
X194212093Y-80692762D01*
X194206752Y-80688882D01*
X194200724Y-80686198D01*
X194200722Y-80686197D01*
X194038319Y-80613891D01*
X194038318Y-80613891D01*
X194032288Y-80611206D01*
X193938888Y-80591353D01*
X193851944Y-80572872D01*
X193851939Y-80572872D01*
X193845487Y-80571500D01*
X193654513Y-80571500D01*
X193648061Y-80572872D01*
X193648056Y-80572872D01*
X193561112Y-80591353D01*
X193467712Y-80611206D01*
X193461682Y-80613891D01*
X193461681Y-80613891D01*
X193299278Y-80686197D01*
X193299276Y-80686198D01*
X193293248Y-80688882D01*
X193287907Y-80692762D01*
X193287906Y-80692763D01*
X193265708Y-80708891D01*
X193138747Y-80801134D01*
X193134326Y-80806044D01*
X193134325Y-80806045D01*
X193066192Y-80881715D01*
X193010960Y-80943056D01*
X192998523Y-80964598D01*
X192931529Y-81080635D01*
X192915473Y-81108444D01*
X192856458Y-81290072D01*
X192855768Y-81296633D01*
X192855768Y-81296635D01*
X192842100Y-81426680D01*
X192836496Y-81480000D01*
X188981859Y-81480000D01*
X188971354Y-81455840D01*
X188864114Y-81290072D01*
X188852822Y-81272617D01*
X188852820Y-81272614D01*
X188850014Y-81268277D01*
X188699670Y-81103051D01*
X188695619Y-81099852D01*
X188695615Y-81099848D01*
X188528414Y-80967800D01*
X188528410Y-80967798D01*
X188524359Y-80964598D01*
X188328789Y-80856638D01*
X188323920Y-80854914D01*
X188323916Y-80854912D01*
X188123087Y-80783795D01*
X188123083Y-80783794D01*
X188118212Y-80782069D01*
X188113119Y-80781162D01*
X188113116Y-80781161D01*
X187903373Y-80743800D01*
X187903367Y-80743799D01*
X187898284Y-80742894D01*
X187824452Y-80741992D01*
X187680081Y-80740228D01*
X187680079Y-80740228D01*
X187674911Y-80740165D01*
X187454091Y-80773955D01*
X187241756Y-80843357D01*
X187211443Y-80859137D01*
X187130939Y-80901045D01*
X187043607Y-80946507D01*
X187039474Y-80949610D01*
X187039471Y-80949612D01*
X186914059Y-81043774D01*
X186864965Y-81080635D01*
X186710629Y-81242138D01*
X186603201Y-81399621D01*
X186548293Y-81444621D01*
X186477768Y-81452792D01*
X186414021Y-81421538D01*
X186393324Y-81397054D01*
X186312822Y-81272617D01*
X186312820Y-81272614D01*
X186310014Y-81268277D01*
X186159670Y-81103051D01*
X186155619Y-81099852D01*
X186155615Y-81099848D01*
X185988414Y-80967800D01*
X185988410Y-80967798D01*
X185984359Y-80964598D01*
X185788789Y-80856638D01*
X185783920Y-80854914D01*
X185783916Y-80854912D01*
X185583087Y-80783795D01*
X185583083Y-80783794D01*
X185578212Y-80782069D01*
X185573119Y-80781162D01*
X185573116Y-80781161D01*
X185363373Y-80743800D01*
X185363367Y-80743799D01*
X185358284Y-80742894D01*
X185284452Y-80741992D01*
X185140081Y-80740228D01*
X185140079Y-80740228D01*
X185134911Y-80740165D01*
X184914091Y-80773955D01*
X184701756Y-80843357D01*
X184671443Y-80859137D01*
X184590939Y-80901045D01*
X184503607Y-80946507D01*
X184499474Y-80949610D01*
X184499471Y-80949612D01*
X184374059Y-81043774D01*
X184324965Y-81080635D01*
X184170629Y-81242138D01*
X184063201Y-81399621D01*
X184008293Y-81444621D01*
X183937768Y-81452792D01*
X183874021Y-81421538D01*
X183853324Y-81397054D01*
X183772822Y-81272617D01*
X183772820Y-81272614D01*
X183770014Y-81268277D01*
X183619670Y-81103051D01*
X183615619Y-81099852D01*
X183615615Y-81099848D01*
X183448414Y-80967800D01*
X183448410Y-80967798D01*
X183444359Y-80964598D01*
X183248789Y-80856638D01*
X183243920Y-80854914D01*
X183243916Y-80854912D01*
X183043087Y-80783795D01*
X183043083Y-80783794D01*
X183038212Y-80782069D01*
X183033119Y-80781162D01*
X183033116Y-80781161D01*
X182823373Y-80743800D01*
X182823367Y-80743799D01*
X182818284Y-80742894D01*
X182744452Y-80741992D01*
X182600081Y-80740228D01*
X182600079Y-80740228D01*
X182594911Y-80740165D01*
X182374091Y-80773955D01*
X182161756Y-80843357D01*
X182131443Y-80859137D01*
X182050939Y-80901045D01*
X181963607Y-80946507D01*
X181959474Y-80949610D01*
X181959471Y-80949612D01*
X181834059Y-81043774D01*
X181784965Y-81080635D01*
X181781393Y-81084373D01*
X181703898Y-81165466D01*
X181642374Y-81200895D01*
X181571462Y-81197438D01*
X181513676Y-81156192D01*
X181494823Y-81122644D01*
X181453324Y-81011946D01*
X181444786Y-80996351D01*
X181368285Y-80894276D01*
X181355724Y-80881715D01*
X181253649Y-80805214D01*
X181238054Y-80796676D01*
X181117606Y-80751522D01*
X181102351Y-80747895D01*
X181051486Y-80742369D01*
X181044672Y-80742000D01*
X180422115Y-80742000D01*
X180406876Y-80746475D01*
X180405671Y-80747865D01*
X180404000Y-80755548D01*
X180404000Y-83439884D01*
X179896000Y-83439884D01*
X179896000Y-82372115D01*
X179891525Y-82356876D01*
X179890135Y-82355671D01*
X179882452Y-82354000D01*
X178810116Y-82354000D01*
X178794877Y-82358475D01*
X178793672Y-82359865D01*
X178792001Y-82367548D01*
X178792001Y-82994669D01*
X175668500Y-82994669D01*
X175668500Y-81827885D01*
X178792000Y-81827885D01*
X178796475Y-81843124D01*
X178797865Y-81844329D01*
X178805548Y-81846000D01*
X179877885Y-81846000D01*
X179893124Y-81841525D01*
X179894329Y-81840135D01*
X179896000Y-81832452D01*
X179896000Y-80760116D01*
X179891525Y-80744877D01*
X179890135Y-80743672D01*
X179882452Y-80742001D01*
X179255331Y-80742001D01*
X179248510Y-80742371D01*
X179197648Y-80747895D01*
X179182396Y-80751521D01*
X179061946Y-80796676D01*
X179046351Y-80805214D01*
X178944276Y-80881715D01*
X178931715Y-80894276D01*
X178855214Y-80996351D01*
X178846676Y-81011946D01*
X178801522Y-81132394D01*
X178797895Y-81147649D01*
X178792369Y-81198514D01*
X178792000Y-81205328D01*
X178792000Y-81827885D01*
X175668500Y-81827885D01*
X175668500Y-78830000D01*
X184176496Y-78830000D01*
X184196458Y-79019928D01*
X184255473Y-79201556D01*
X184258776Y-79207278D01*
X184258777Y-79207279D01*
X184264868Y-79217829D01*
X184350960Y-79366944D01*
X184478747Y-79508866D01*
X184633248Y-79621118D01*
X184639276Y-79623802D01*
X184639278Y-79623803D01*
X184801681Y-79696109D01*
X184807712Y-79698794D01*
X184901112Y-79718647D01*
X184988056Y-79737128D01*
X184988061Y-79737128D01*
X184994513Y-79738500D01*
X185185487Y-79738500D01*
X185191939Y-79737128D01*
X185191944Y-79737128D01*
X185278888Y-79718647D01*
X185372288Y-79698794D01*
X185378319Y-79696109D01*
X185540722Y-79623803D01*
X185540724Y-79623802D01*
X185546752Y-79621118D01*
X185701253Y-79508866D01*
X185829040Y-79366944D01*
X185915132Y-79217829D01*
X185921223Y-79207279D01*
X185921224Y-79207278D01*
X185924527Y-79201556D01*
X185983542Y-79019928D01*
X186003504Y-78830000D01*
X186002530Y-78820734D01*
X186773800Y-78820734D01*
X186780555Y-78882916D01*
X186831685Y-79019305D01*
X186919039Y-79135861D01*
X187035595Y-79223215D01*
X187171984Y-79274345D01*
X187234166Y-79281100D01*
X189030434Y-79281100D01*
X189092616Y-79274345D01*
X189229005Y-79223215D01*
X189345561Y-79135861D01*
X189432915Y-79019305D01*
X189464883Y-78934030D01*
X223795800Y-78934030D01*
X223801527Y-78941680D01*
X223986272Y-79054893D01*
X223995067Y-79059375D01*
X224212490Y-79149434D01*
X224221875Y-79152483D01*
X224450708Y-79207422D01*
X224460455Y-79208965D01*
X224695070Y-79227430D01*
X224704930Y-79227430D01*
X224939545Y-79208965D01*
X224949292Y-79207422D01*
X225178125Y-79152483D01*
X225187510Y-79149434D01*
X225404933Y-79059375D01*
X225413728Y-79054893D01*
X225594805Y-78943928D01*
X225604267Y-78933470D01*
X225600484Y-78924694D01*
X224712812Y-78037022D01*
X224698868Y-78029408D01*
X224697035Y-78029539D01*
X224690420Y-78033790D01*
X223802560Y-78921650D01*
X223795800Y-78934030D01*
X189464883Y-78934030D01*
X189484045Y-78882916D01*
X189490800Y-78820734D01*
X189490800Y-78010000D01*
X208816496Y-78010000D01*
X208817186Y-78016565D01*
X208831330Y-78151134D01*
X208836458Y-78199928D01*
X208895473Y-78381556D01*
X208990960Y-78546944D01*
X208995378Y-78551851D01*
X208995379Y-78551852D01*
X209005843Y-78563473D01*
X209118747Y-78688866D01*
X209273248Y-78801118D01*
X209279276Y-78803802D01*
X209279278Y-78803803D01*
X209439325Y-78875060D01*
X209447712Y-78878794D01*
X209541112Y-78898647D01*
X209628056Y-78917128D01*
X209628061Y-78917128D01*
X209634513Y-78918500D01*
X209825487Y-78918500D01*
X209831939Y-78917128D01*
X209831944Y-78917128D01*
X209918887Y-78898647D01*
X210012288Y-78878794D01*
X210020675Y-78875060D01*
X210180722Y-78803803D01*
X210180724Y-78803802D01*
X210186752Y-78801118D01*
X210341253Y-78688866D01*
X210454157Y-78563473D01*
X210464621Y-78551852D01*
X210464622Y-78551851D01*
X210469040Y-78546944D01*
X210564527Y-78381556D01*
X210623542Y-78199928D01*
X210628671Y-78151134D01*
X210642814Y-78016565D01*
X210643504Y-78010000D01*
X210638376Y-77961206D01*
X210632171Y-77902170D01*
X210644943Y-77832332D01*
X210693445Y-77780485D01*
X210757481Y-77763000D01*
X210805487Y-77763000D01*
X210811939Y-77761628D01*
X210811944Y-77761628D01*
X210898887Y-77743147D01*
X210992288Y-77723294D01*
X210998319Y-77720609D01*
X211112147Y-77669930D01*
X223137570Y-77669930D01*
X223156035Y-77904545D01*
X223157578Y-77914292D01*
X223212517Y-78143125D01*
X223215566Y-78152510D01*
X223305625Y-78369933D01*
X223310107Y-78378728D01*
X223421072Y-78559805D01*
X223431530Y-78569267D01*
X223440306Y-78565484D01*
X224610905Y-77394885D01*
X224673217Y-77360859D01*
X224744032Y-77365924D01*
X224789095Y-77394885D01*
X225956650Y-78562440D01*
X225969030Y-78569200D01*
X225976680Y-78563473D01*
X226089893Y-78378728D01*
X226094375Y-78369933D01*
X226184434Y-78152510D01*
X226187483Y-78143125D01*
X226242422Y-77914292D01*
X226243965Y-77904545D01*
X226262430Y-77669930D01*
X226262430Y-77660070D01*
X226243965Y-77425455D01*
X226242422Y-77415708D01*
X226187483Y-77186875D01*
X226184434Y-77177490D01*
X226094375Y-76960067D01*
X226089893Y-76951272D01*
X225983766Y-76778090D01*
X225965227Y-76709557D01*
X225986683Y-76641880D01*
X226015633Y-76611429D01*
X226106081Y-76543642D01*
X226113261Y-76538261D01*
X226200615Y-76421705D01*
X226251745Y-76285316D01*
X226258500Y-76223134D01*
X226258500Y-74026866D01*
X226251745Y-73964684D01*
X226200615Y-73828295D01*
X226113261Y-73711739D01*
X225996705Y-73624385D01*
X225860316Y-73573255D01*
X225798134Y-73566500D01*
X223601866Y-73566500D01*
X223539684Y-73573255D01*
X223403295Y-73624385D01*
X223286739Y-73711739D01*
X223199385Y-73828295D01*
X223148255Y-73964684D01*
X223141500Y-74026866D01*
X223141500Y-76223134D01*
X223148255Y-76285316D01*
X223199385Y-76421705D01*
X223286739Y-76538261D01*
X223293919Y-76543642D01*
X223384367Y-76611429D01*
X223426882Y-76668288D01*
X223431908Y-76739107D01*
X223416234Y-76778090D01*
X223310107Y-76951272D01*
X223305625Y-76960067D01*
X223215566Y-77177490D01*
X223212517Y-77186875D01*
X223157578Y-77415708D01*
X223156035Y-77425455D01*
X223137570Y-77660070D01*
X223137570Y-77669930D01*
X211112147Y-77669930D01*
X211160722Y-77648303D01*
X211160724Y-77648302D01*
X211166752Y-77645618D01*
X211321253Y-77533366D01*
X211375556Y-77473056D01*
X211444621Y-77396352D01*
X211444622Y-77396351D01*
X211449040Y-77391444D01*
X211544527Y-77226056D01*
X211603542Y-77044428D01*
X211623504Y-76854500D01*
X211607682Y-76703958D01*
X211604232Y-76671135D01*
X211604232Y-76671133D01*
X211603542Y-76664572D01*
X211544527Y-76482944D01*
X211449040Y-76317556D01*
X211436263Y-76303365D01*
X211325675Y-76180545D01*
X211325674Y-76180544D01*
X211321253Y-76175634D01*
X211166752Y-76063382D01*
X211160724Y-76060698D01*
X211160722Y-76060697D01*
X210998319Y-75988391D01*
X210998318Y-75988391D01*
X210992288Y-75985706D01*
X210898887Y-75965853D01*
X210811944Y-75947372D01*
X210811939Y-75947372D01*
X210805487Y-75946000D01*
X210720261Y-75946000D01*
X210652140Y-75925998D01*
X210605647Y-75872342D01*
X210600428Y-75858936D01*
X210566569Y-75754729D01*
X210564527Y-75748444D01*
X210469040Y-75583056D01*
X210454699Y-75567128D01*
X210345675Y-75446045D01*
X210345674Y-75446044D01*
X210341253Y-75441134D01*
X210200494Y-75338866D01*
X210192094Y-75332763D01*
X210192093Y-75332762D01*
X210186752Y-75328882D01*
X210180724Y-75326198D01*
X210180722Y-75326197D01*
X210018319Y-75253891D01*
X210018318Y-75253891D01*
X210012288Y-75251206D01*
X209918887Y-75231353D01*
X209831944Y-75212872D01*
X209831939Y-75212872D01*
X209825487Y-75211500D01*
X209634513Y-75211500D01*
X209628061Y-75212872D01*
X209628056Y-75212872D01*
X209541113Y-75231353D01*
X209447712Y-75251206D01*
X209441682Y-75253891D01*
X209441681Y-75253891D01*
X209279278Y-75326197D01*
X209279276Y-75326198D01*
X209273248Y-75328882D01*
X209267907Y-75332762D01*
X209267906Y-75332763D01*
X209259506Y-75338866D01*
X209118747Y-75441134D01*
X209114326Y-75446044D01*
X209114325Y-75446045D01*
X209005302Y-75567128D01*
X208990960Y-75583056D01*
X208895473Y-75748444D01*
X208836458Y-75930072D01*
X208816496Y-76120000D01*
X208817186Y-76126565D01*
X208833046Y-76277460D01*
X208836458Y-76309928D01*
X208895473Y-76491556D01*
X208990960Y-76656944D01*
X208995378Y-76661851D01*
X208995379Y-76661852D01*
X209064940Y-76739107D01*
X209118747Y-76798866D01*
X209273248Y-76911118D01*
X209279276Y-76913802D01*
X209279278Y-76913803D01*
X209360338Y-76949893D01*
X209414434Y-76995873D01*
X209435083Y-77063801D01*
X209415731Y-77132109D01*
X209360338Y-77180107D01*
X209279278Y-77216197D01*
X209279276Y-77216198D01*
X209273248Y-77218882D01*
X209118747Y-77331134D01*
X209114326Y-77336044D01*
X209114325Y-77336045D01*
X209060025Y-77396352D01*
X208990960Y-77473056D01*
X208895473Y-77638444D01*
X208836458Y-77820072D01*
X208816496Y-78010000D01*
X189490800Y-78010000D01*
X189490800Y-77024466D01*
X189484045Y-76962284D01*
X189432915Y-76825895D01*
X189345561Y-76709339D01*
X189229005Y-76621985D01*
X189109987Y-76577367D01*
X189053223Y-76534725D01*
X189028523Y-76468164D01*
X189043730Y-76398815D01*
X189065277Y-76370135D01*
X189166352Y-76269412D01*
X189173030Y-76261565D01*
X189297303Y-76088620D01*
X189302613Y-76079783D01*
X189396970Y-75888867D01*
X189400769Y-75879272D01*
X189462677Y-75675510D01*
X189464855Y-75665437D01*
X189466286Y-75654562D01*
X189464075Y-75640378D01*
X189450917Y-75636600D01*
X186815525Y-75636600D01*
X186801994Y-75640573D01*
X186800557Y-75650566D01*
X186830865Y-75785046D01*
X186833945Y-75794875D01*
X186914070Y-75992203D01*
X186918713Y-76001394D01*
X187029994Y-76182988D01*
X187036077Y-76191299D01*
X187175513Y-76352267D01*
X187182877Y-76359479D01*
X187187822Y-76363585D01*
X187227456Y-76422489D01*
X187228953Y-76493470D01*
X187191837Y-76553992D01*
X187151564Y-76578510D01*
X187044005Y-76618832D01*
X187044004Y-76618833D01*
X187035595Y-76621985D01*
X186919039Y-76709339D01*
X186831685Y-76825895D01*
X186780555Y-76962284D01*
X186773800Y-77024466D01*
X186773800Y-78820734D01*
X186002530Y-78820734D01*
X185989079Y-78692749D01*
X185984232Y-78646635D01*
X185984232Y-78646633D01*
X185983542Y-78640072D01*
X185924527Y-78458444D01*
X185829040Y-78293056D01*
X185701253Y-78151134D01*
X185546752Y-78038882D01*
X185540724Y-78036198D01*
X185540722Y-78036197D01*
X185378319Y-77963891D01*
X185378318Y-77963891D01*
X185372288Y-77961206D01*
X185278888Y-77941353D01*
X185191944Y-77922872D01*
X185191939Y-77922872D01*
X185185487Y-77921500D01*
X184994513Y-77921500D01*
X184988061Y-77922872D01*
X184988056Y-77922872D01*
X184901112Y-77941353D01*
X184807712Y-77961206D01*
X184801682Y-77963891D01*
X184801681Y-77963891D01*
X184639278Y-78036197D01*
X184639276Y-78036198D01*
X184633248Y-78038882D01*
X184478747Y-78151134D01*
X184350960Y-78293056D01*
X184255473Y-78458444D01*
X184196458Y-78640072D01*
X184195768Y-78646633D01*
X184195768Y-78646635D01*
X184190921Y-78692749D01*
X184176496Y-78830000D01*
X175668500Y-78830000D01*
X175668500Y-72809295D01*
X186769551Y-72809295D01*
X186769848Y-72814448D01*
X186769848Y-72814451D01*
X186775311Y-72909190D01*
X186782410Y-73032315D01*
X186783547Y-73037361D01*
X186783548Y-73037367D01*
X186803419Y-73125539D01*
X186831522Y-73250239D01*
X186915566Y-73457216D01*
X186918265Y-73461620D01*
X186986675Y-73573255D01*
X187032287Y-73647688D01*
X187178550Y-73816538D01*
X187350426Y-73959232D01*
X187359756Y-73964684D01*
X187424255Y-74002374D01*
X187472979Y-74054012D01*
X187486050Y-74123795D01*
X187459319Y-74189567D01*
X187418862Y-74222927D01*
X187410757Y-74227146D01*
X187402038Y-74232636D01*
X187231733Y-74360505D01*
X187224026Y-74367348D01*
X187076890Y-74521317D01*
X187070404Y-74529327D01*
X186950398Y-74705249D01*
X186945300Y-74714223D01*
X186855638Y-74907383D01*
X186852075Y-74917070D01*
X186796689Y-75116783D01*
X186798212Y-75125207D01*
X186810592Y-75128600D01*
X189450644Y-75128600D01*
X189464175Y-75124627D01*
X189465480Y-75115547D01*
X189423514Y-74948475D01*
X189420194Y-74938724D01*
X189335272Y-74743414D01*
X189330405Y-74734339D01*
X189282313Y-74660000D01*
X214026496Y-74660000D01*
X214046458Y-74849928D01*
X214105473Y-75031556D01*
X214200960Y-75196944D01*
X214205378Y-75201851D01*
X214205379Y-75201852D01*
X214248582Y-75249834D01*
X214328747Y-75338866D01*
X214427843Y-75410864D01*
X214476266Y-75446045D01*
X214483248Y-75451118D01*
X214489276Y-75453802D01*
X214489278Y-75453803D01*
X214651681Y-75526109D01*
X214657712Y-75528794D01*
X214751113Y-75548647D01*
X214838056Y-75567128D01*
X214838061Y-75567128D01*
X214844513Y-75568500D01*
X215035487Y-75568500D01*
X215041939Y-75567128D01*
X215041944Y-75567128D01*
X215128887Y-75548647D01*
X215222288Y-75528794D01*
X215228319Y-75526109D01*
X215390722Y-75453803D01*
X215390724Y-75453802D01*
X215396752Y-75451118D01*
X215403735Y-75446045D01*
X215452157Y-75410864D01*
X215551253Y-75338866D01*
X215631418Y-75249834D01*
X215674621Y-75201852D01*
X215674622Y-75201851D01*
X215679040Y-75196944D01*
X215774527Y-75031556D01*
X215833542Y-74849928D01*
X215853504Y-74660000D01*
X215852814Y-74653435D01*
X215834232Y-74476635D01*
X215834232Y-74476633D01*
X215833542Y-74470072D01*
X215774527Y-74288444D01*
X215679040Y-74123056D01*
X215551253Y-73981134D01*
X215396752Y-73868882D01*
X215390724Y-73866198D01*
X215390722Y-73866197D01*
X215228319Y-73793891D01*
X215228318Y-73793891D01*
X215222288Y-73791206D01*
X215128887Y-73771353D01*
X215041944Y-73752872D01*
X215041939Y-73752872D01*
X215035487Y-73751500D01*
X214844513Y-73751500D01*
X214838061Y-73752872D01*
X214838056Y-73752872D01*
X214751113Y-73771353D01*
X214657712Y-73791206D01*
X214651682Y-73793891D01*
X214651681Y-73793891D01*
X214489278Y-73866197D01*
X214489276Y-73866198D01*
X214483248Y-73868882D01*
X214328747Y-73981134D01*
X214200960Y-74123056D01*
X214105473Y-74288444D01*
X214046458Y-74470072D01*
X214045768Y-74476633D01*
X214045768Y-74476635D01*
X214027186Y-74653435D01*
X214026496Y-74660000D01*
X189282313Y-74660000D01*
X189214726Y-74555526D01*
X189208436Y-74547357D01*
X189065106Y-74389840D01*
X189057573Y-74382815D01*
X188890439Y-74250822D01*
X188881856Y-74245120D01*
X188844902Y-74224720D01*
X188794931Y-74174287D01*
X188780159Y-74104845D01*
X188805275Y-74038439D01*
X188832627Y-74011832D01*
X188881108Y-73977251D01*
X189012160Y-73883773D01*
X189170396Y-73726089D01*
X189180708Y-73711739D01*
X189297735Y-73548877D01*
X189300753Y-73544677D01*
X189399730Y-73344411D01*
X189464670Y-73130669D01*
X189493829Y-72909190D01*
X189495456Y-72842600D01*
X189477152Y-72619961D01*
X189422731Y-72403302D01*
X189333654Y-72198440D01*
X189212314Y-72010877D01*
X189061970Y-71845651D01*
X189057919Y-71842452D01*
X189057915Y-71842448D01*
X188890714Y-71710400D01*
X188890710Y-71710398D01*
X188886659Y-71707198D01*
X188845353Y-71684396D01*
X188795384Y-71633964D01*
X188780612Y-71564521D01*
X188805728Y-71498116D01*
X188833080Y-71471509D01*
X188876903Y-71440250D01*
X189012160Y-71343773D01*
X189170396Y-71186089D01*
X189229894Y-71103289D01*
X189297735Y-71008877D01*
X189300753Y-71004677D01*
X189399730Y-70804411D01*
X189448792Y-70642931D01*
X189463165Y-70595623D01*
X189463165Y-70595621D01*
X189464670Y-70590669D01*
X189493829Y-70369190D01*
X189495456Y-70302600D01*
X189477152Y-70079961D01*
X189422731Y-69863302D01*
X189333654Y-69658440D01*
X189212314Y-69470877D01*
X189061970Y-69305651D01*
X189057919Y-69302452D01*
X189057915Y-69302448D01*
X188890714Y-69170400D01*
X188890710Y-69170398D01*
X188886659Y-69167198D01*
X188833586Y-69137900D01*
X220541500Y-69137900D01*
X220552474Y-69243666D01*
X220608450Y-69411446D01*
X220701522Y-69561848D01*
X220826697Y-69686805D01*
X220977262Y-69779615D01*
X220993983Y-69785161D01*
X221138611Y-69833132D01*
X221138613Y-69833132D01*
X221145139Y-69835297D01*
X221151975Y-69835997D01*
X221151978Y-69835998D01*
X221195031Y-69840409D01*
X221249600Y-69846000D01*
X222300400Y-69846000D01*
X222303646Y-69845663D01*
X222303650Y-69845663D01*
X222399308Y-69835738D01*
X222399312Y-69835737D01*
X222406166Y-69835026D01*
X222412702Y-69832845D01*
X222412704Y-69832845D01*
X222555629Y-69785161D01*
X222573946Y-69779050D01*
X222649402Y-69732356D01*
X222715705Y-69713500D01*
X223191454Y-69713500D01*
X223259575Y-69733502D01*
X223303721Y-69782297D01*
X223305177Y-69785154D01*
X223307073Y-69789732D01*
X223309662Y-69793956D01*
X223309662Y-69793957D01*
X223335976Y-69836897D01*
X223435248Y-69998896D01*
X223438463Y-70002660D01*
X223438465Y-70002663D01*
X223591359Y-70181677D01*
X223594567Y-70185433D01*
X223598323Y-70188641D01*
X223735691Y-70305965D01*
X223781104Y-70344752D01*
X223785327Y-70347340D01*
X223785330Y-70347342D01*
X223820983Y-70369190D01*
X223990268Y-70472927D01*
X224134967Y-70532864D01*
X224212335Y-70564911D01*
X224212337Y-70564912D01*
X224216908Y-70566805D01*
X224294941Y-70585539D01*
X224450630Y-70622917D01*
X224450636Y-70622918D01*
X224455443Y-70624072D01*
X224700000Y-70643319D01*
X224944557Y-70624072D01*
X224949364Y-70622918D01*
X224949370Y-70622917D01*
X225105059Y-70585539D01*
X225183092Y-70566805D01*
X225187663Y-70564912D01*
X225187665Y-70564911D01*
X225265033Y-70532864D01*
X225409732Y-70472927D01*
X225579017Y-70369190D01*
X225614670Y-70347342D01*
X225614673Y-70347340D01*
X225618896Y-70344752D01*
X225664310Y-70305965D01*
X225801677Y-70188641D01*
X225805433Y-70185433D01*
X225808641Y-70181677D01*
X225961535Y-70002663D01*
X225961537Y-70002660D01*
X225964752Y-69998896D01*
X226092927Y-69789732D01*
X226186805Y-69563092D01*
X226244072Y-69324557D01*
X226263319Y-69080000D01*
X226244072Y-68835443D01*
X226186805Y-68596908D01*
X226092927Y-68370268D01*
X225964752Y-68161104D01*
X225805433Y-67974567D01*
X225618896Y-67815248D01*
X225616549Y-67813810D01*
X225603185Y-67802395D01*
X224712812Y-66912022D01*
X224698868Y-66904408D01*
X224697035Y-66904539D01*
X224690420Y-66908790D01*
X223796815Y-67802395D01*
X223783451Y-67813810D01*
X223781104Y-67815248D01*
X223594567Y-67974567D01*
X223435248Y-68161104D01*
X223432660Y-68165327D01*
X223432658Y-68165330D01*
X223372689Y-68263192D01*
X223307073Y-68370268D01*
X223305180Y-68374839D01*
X223303721Y-68377703D01*
X223254973Y-68429318D01*
X223191454Y-68446500D01*
X223130860Y-68446500D01*
X223062739Y-68426498D01*
X223016246Y-68372842D01*
X223005533Y-68333504D01*
X222998238Y-68263192D01*
X222998237Y-68263188D01*
X222997526Y-68256334D01*
X222941550Y-68088554D01*
X222848478Y-67938152D01*
X222723303Y-67813195D01*
X222718765Y-67810398D01*
X222678176Y-67753147D01*
X222674946Y-67682224D01*
X222710572Y-67620813D01*
X222719068Y-67613438D01*
X222729207Y-67605402D01*
X222843739Y-67490671D01*
X222852751Y-67479260D01*
X222937816Y-67341257D01*
X222943963Y-67328076D01*
X222995138Y-67173790D01*
X222998005Y-67160414D01*
X223001219Y-67129048D01*
X223028060Y-67063321D01*
X223086175Y-67022539D01*
X223157113Y-67019651D01*
X223218352Y-67055573D01*
X223242972Y-67093673D01*
X223305625Y-67244933D01*
X223310107Y-67253728D01*
X223421072Y-67434805D01*
X223431530Y-67444267D01*
X223440306Y-67440484D01*
X224610905Y-66269885D01*
X224673217Y-66235859D01*
X224744032Y-66240924D01*
X224789095Y-66269885D01*
X225956650Y-67437440D01*
X225969030Y-67444200D01*
X225976680Y-67438473D01*
X226089893Y-67253728D01*
X226094375Y-67244933D01*
X226184434Y-67027510D01*
X226187483Y-67018125D01*
X226242422Y-66789292D01*
X226243965Y-66779545D01*
X226262430Y-66544930D01*
X226262430Y-66535070D01*
X226243965Y-66300455D01*
X226242422Y-66290708D01*
X226187483Y-66061875D01*
X226184434Y-66052490D01*
X226094375Y-65835067D01*
X226089893Y-65826272D01*
X225983766Y-65653090D01*
X225965227Y-65584557D01*
X225986683Y-65516880D01*
X226015633Y-65486429D01*
X226106081Y-65418642D01*
X226113261Y-65413261D01*
X226200615Y-65296705D01*
X226251745Y-65160316D01*
X226258500Y-65098134D01*
X226258500Y-62901866D01*
X226251745Y-62839684D01*
X226200615Y-62703295D01*
X226113261Y-62586739D01*
X225996705Y-62499385D01*
X225860316Y-62448255D01*
X225798134Y-62441500D01*
X223601866Y-62441500D01*
X223539684Y-62448255D01*
X223403295Y-62499385D01*
X223286739Y-62586739D01*
X223199385Y-62703295D01*
X223148255Y-62839684D01*
X223141500Y-62901866D01*
X223141500Y-65098134D01*
X223148255Y-65160316D01*
X223199385Y-65296705D01*
X223286739Y-65413261D01*
X223293919Y-65418642D01*
X223384367Y-65486429D01*
X223426882Y-65543288D01*
X223431908Y-65614107D01*
X223416234Y-65653090D01*
X223310107Y-65826272D01*
X223305625Y-65835067D01*
X223215566Y-66052490D01*
X223212517Y-66061875D01*
X223208399Y-66079027D01*
X223173047Y-66140596D01*
X223110021Y-66173279D01*
X223039330Y-66166699D01*
X222983418Y-66122945D01*
X222966356Y-66089488D01*
X222943413Y-66020718D01*
X222937239Y-66007538D01*
X222851937Y-65869693D01*
X222842901Y-65858292D01*
X222728171Y-65743761D01*
X222716760Y-65734749D01*
X222578757Y-65649684D01*
X222565576Y-65643537D01*
X222411290Y-65592362D01*
X222397914Y-65589495D01*
X222303562Y-65579828D01*
X222297145Y-65579500D01*
X222047115Y-65579500D01*
X222031876Y-65583975D01*
X222030671Y-65585365D01*
X222029000Y-65593048D01*
X222029000Y-66803000D01*
X222008998Y-66871121D01*
X221955342Y-66917614D01*
X221903000Y-66929000D01*
X220560116Y-66929000D01*
X220544877Y-66933475D01*
X220543672Y-66934865D01*
X220542001Y-66942548D01*
X220542001Y-67059595D01*
X220542338Y-67066114D01*
X220552257Y-67161706D01*
X220555149Y-67175100D01*
X220606588Y-67329284D01*
X220612761Y-67342462D01*
X220698063Y-67480307D01*
X220707099Y-67491708D01*
X220821828Y-67606238D01*
X220830762Y-67613294D01*
X220871823Y-67671212D01*
X220875053Y-67742135D01*
X220839426Y-67803546D01*
X220831593Y-67810346D01*
X220825652Y-67814022D01*
X220700695Y-67939197D01*
X220696855Y-67945427D01*
X220696854Y-67945428D01*
X220678893Y-67974567D01*
X220607885Y-68089762D01*
X220552203Y-68257639D01*
X220541500Y-68362100D01*
X220541500Y-69137900D01*
X188833586Y-69137900D01*
X188691089Y-69059238D01*
X188686220Y-69057514D01*
X188686216Y-69057512D01*
X188485387Y-68986395D01*
X188485383Y-68986394D01*
X188480512Y-68984669D01*
X188475419Y-68983762D01*
X188475416Y-68983761D01*
X188265673Y-68946400D01*
X188265667Y-68946399D01*
X188260584Y-68945494D01*
X188186752Y-68944592D01*
X188042381Y-68942828D01*
X188042379Y-68942828D01*
X188037211Y-68942765D01*
X187816391Y-68976555D01*
X187604056Y-69045957D01*
X187405907Y-69149107D01*
X187401774Y-69152210D01*
X187401771Y-69152212D01*
X187377547Y-69170400D01*
X187227265Y-69283235D01*
X187223693Y-69286973D01*
X187104744Y-69411446D01*
X187072929Y-69444738D01*
X186947043Y-69629280D01*
X186931303Y-69663190D01*
X186870606Y-69793951D01*
X186852988Y-69831905D01*
X186793289Y-70047170D01*
X186769551Y-70269295D01*
X186769848Y-70274448D01*
X186769848Y-70274451D01*
X186775311Y-70369190D01*
X186782410Y-70492315D01*
X186783547Y-70497361D01*
X186783548Y-70497367D01*
X186803419Y-70585539D01*
X186831522Y-70710239D01*
X186915566Y-70917216D01*
X187032287Y-71107688D01*
X187178550Y-71276538D01*
X187350426Y-71419232D01*
X187420895Y-71460411D01*
X187423745Y-71462076D01*
X187472469Y-71513714D01*
X187485540Y-71583497D01*
X187458809Y-71649269D01*
X187418355Y-71682627D01*
X187405907Y-71689107D01*
X187401774Y-71692210D01*
X187401771Y-71692212D01*
X187377547Y-71710400D01*
X187227265Y-71823235D01*
X187072929Y-71984738D01*
X186947043Y-72169280D01*
X186852988Y-72371905D01*
X186793289Y-72587170D01*
X186769551Y-72809295D01*
X175668500Y-72809295D01*
X175668500Y-66402885D01*
X220542000Y-66402885D01*
X220546475Y-66418124D01*
X220547865Y-66419329D01*
X220555548Y-66421000D01*
X221502885Y-66421000D01*
X221518124Y-66416525D01*
X221519329Y-66415135D01*
X221521000Y-66407452D01*
X221521000Y-65597616D01*
X221516525Y-65582377D01*
X221515135Y-65581172D01*
X221507452Y-65579501D01*
X221252905Y-65579501D01*
X221246386Y-65579838D01*
X221150794Y-65589757D01*
X221137400Y-65592649D01*
X220983216Y-65644088D01*
X220970038Y-65650261D01*
X220832193Y-65735563D01*
X220820792Y-65744599D01*
X220706261Y-65859329D01*
X220697249Y-65870740D01*
X220612184Y-66008743D01*
X220606037Y-66021924D01*
X220554862Y-66176210D01*
X220551995Y-66189586D01*
X220542328Y-66283938D01*
X220542000Y-66290355D01*
X220542000Y-66402885D01*
X175668500Y-66402885D01*
X175668500Y-63950000D01*
X206886502Y-63950000D01*
X206906457Y-64178087D01*
X206965716Y-64399243D01*
X206968039Y-64404224D01*
X206968039Y-64404225D01*
X207060151Y-64601762D01*
X207060154Y-64601767D01*
X207062477Y-64606749D01*
X207193802Y-64794300D01*
X207355700Y-64956198D01*
X207360208Y-64959355D01*
X207360211Y-64959357D01*
X207438389Y-65014098D01*
X207543251Y-65087523D01*
X207548233Y-65089846D01*
X207548238Y-65089849D01*
X207699357Y-65160316D01*
X207750757Y-65184284D01*
X207756065Y-65185706D01*
X207756067Y-65185707D01*
X207966598Y-65242119D01*
X207966600Y-65242119D01*
X207971913Y-65243543D01*
X208200000Y-65263498D01*
X208428087Y-65243543D01*
X208433400Y-65242119D01*
X208433402Y-65242119D01*
X208643933Y-65185707D01*
X208643935Y-65185706D01*
X208649243Y-65184284D01*
X208700643Y-65160316D01*
X208851762Y-65089849D01*
X208851767Y-65089846D01*
X208856749Y-65087523D01*
X208961611Y-65014098D01*
X209039789Y-64959357D01*
X209039792Y-64959355D01*
X209044300Y-64956198D01*
X209206198Y-64794300D01*
X209337523Y-64606749D01*
X209339846Y-64601767D01*
X209339849Y-64601762D01*
X209431961Y-64404225D01*
X209431961Y-64404224D01*
X209434284Y-64399243D01*
X209493543Y-64178087D01*
X209513498Y-63950000D01*
X216886502Y-63950000D01*
X216906457Y-64178087D01*
X216965716Y-64399243D01*
X216968039Y-64404224D01*
X216968039Y-64404225D01*
X217060151Y-64601762D01*
X217060154Y-64601767D01*
X217062477Y-64606749D01*
X217193802Y-64794300D01*
X217355700Y-64956198D01*
X217360208Y-64959355D01*
X217360211Y-64959357D01*
X217438389Y-65014098D01*
X217543251Y-65087523D01*
X217548233Y-65089846D01*
X217548238Y-65089849D01*
X217699357Y-65160316D01*
X217750757Y-65184284D01*
X217756065Y-65185706D01*
X217756067Y-65185707D01*
X217966598Y-65242119D01*
X217966600Y-65242119D01*
X217971913Y-65243543D01*
X218200000Y-65263498D01*
X218428087Y-65243543D01*
X218433400Y-65242119D01*
X218433402Y-65242119D01*
X218643933Y-65185707D01*
X218643935Y-65185706D01*
X218649243Y-65184284D01*
X218700643Y-65160316D01*
X218851762Y-65089849D01*
X218851767Y-65089846D01*
X218856749Y-65087523D01*
X218961611Y-65014098D01*
X219039789Y-64959357D01*
X219039792Y-64959355D01*
X219044300Y-64956198D01*
X219206198Y-64794300D01*
X219337523Y-64606749D01*
X219339846Y-64601767D01*
X219339849Y-64601762D01*
X219431961Y-64404225D01*
X219431961Y-64404224D01*
X219434284Y-64399243D01*
X219493543Y-64178087D01*
X219513498Y-63950000D01*
X219493543Y-63721913D01*
X219434284Y-63500757D01*
X219431961Y-63495775D01*
X219339849Y-63298238D01*
X219339846Y-63298233D01*
X219337523Y-63293251D01*
X219206198Y-63105700D01*
X219044300Y-62943802D01*
X219039792Y-62940645D01*
X219039789Y-62940643D01*
X218906824Y-62847540D01*
X218856749Y-62812477D01*
X218851767Y-62810154D01*
X218851762Y-62810151D01*
X218654225Y-62718039D01*
X218654224Y-62718039D01*
X218649243Y-62715716D01*
X218643935Y-62714294D01*
X218643933Y-62714293D01*
X218433402Y-62657881D01*
X218433400Y-62657881D01*
X218428087Y-62656457D01*
X218200000Y-62636502D01*
X217971913Y-62656457D01*
X217966600Y-62657881D01*
X217966598Y-62657881D01*
X217756067Y-62714293D01*
X217756065Y-62714294D01*
X217750757Y-62715716D01*
X217745776Y-62718039D01*
X217745775Y-62718039D01*
X217548238Y-62810151D01*
X217548233Y-62810154D01*
X217543251Y-62812477D01*
X217493176Y-62847540D01*
X217360211Y-62940643D01*
X217360208Y-62940645D01*
X217355700Y-62943802D01*
X217193802Y-63105700D01*
X217062477Y-63293251D01*
X217060154Y-63298233D01*
X217060151Y-63298238D01*
X216968039Y-63495775D01*
X216965716Y-63500757D01*
X216906457Y-63721913D01*
X216886502Y-63950000D01*
X209513498Y-63950000D01*
X209493543Y-63721913D01*
X209434284Y-63500757D01*
X209431961Y-63495775D01*
X209339849Y-63298238D01*
X209339846Y-63298233D01*
X209337523Y-63293251D01*
X209206198Y-63105700D01*
X209044300Y-62943802D01*
X209039792Y-62940645D01*
X209039789Y-62940643D01*
X208906824Y-62847540D01*
X208856749Y-62812477D01*
X208851767Y-62810154D01*
X208851762Y-62810151D01*
X208654225Y-62718039D01*
X208654224Y-62718039D01*
X208649243Y-62715716D01*
X208643935Y-62714294D01*
X208643933Y-62714293D01*
X208433402Y-62657881D01*
X208433400Y-62657881D01*
X208428087Y-62656457D01*
X208200000Y-62636502D01*
X207971913Y-62656457D01*
X207966600Y-62657881D01*
X207966598Y-62657881D01*
X207756067Y-62714293D01*
X207756065Y-62714294D01*
X207750757Y-62715716D01*
X207745776Y-62718039D01*
X207745775Y-62718039D01*
X207548238Y-62810151D01*
X207548233Y-62810154D01*
X207543251Y-62812477D01*
X207493176Y-62847540D01*
X207360211Y-62940643D01*
X207360208Y-62940645D01*
X207355700Y-62943802D01*
X207193802Y-63105700D01*
X207062477Y-63293251D01*
X207060154Y-63298233D01*
X207060151Y-63298238D01*
X206968039Y-63495775D01*
X206965716Y-63500757D01*
X206906457Y-63721913D01*
X206886502Y-63950000D01*
X175668500Y-63950000D01*
X175668500Y-61924500D01*
X175688502Y-61856379D01*
X175742158Y-61809886D01*
X175794500Y-61798500D01*
X229975500Y-61798500D01*
X230043621Y-61818502D01*
G37*
%TD.AperFunction*%
%TD*%
M02*
