%TF.GenerationSoftware,KiCad,Pcbnew,6.0.11-2627ca5db0~126~ubuntu22.04.1*%
%TF.CreationDate,2023-03-02T17:30:21-05:00*%
%TF.ProjectId,lin-peltier-control,6c696e2d-7065-46c7-9469-65722d636f6e,1.0*%
%TF.SameCoordinates,Original*%
%TF.FileFunction,Legend,Top*%
%TF.FilePolarity,Positive*%
%FSLAX46Y46*%
G04 Gerber Fmt 4.6, Leading zero omitted, Abs format (unit mm)*
G04 Created by KiCad (PCBNEW 6.0.11-2627ca5db0~126~ubuntu22.04.1) date 2023-03-02 17:30:21*
%MOMM*%
%LPD*%
G01*
G04 APERTURE LIST*
%ADD10C,0.150000*%
%ADD11C,0.127000*%
%ADD12C,0.101600*%
%ADD13C,0.120000*%
%ADD14C,0.066040*%
%ADD15C,0.010000*%
G04 APERTURE END LIST*
D10*
X182811428Y-93055714D02*
X183049523Y-93722380D01*
X183287619Y-93055714D01*
X184192380Y-93722380D02*
X183620952Y-93722380D01*
X183906666Y-93722380D02*
X183906666Y-92722380D01*
X183811428Y-92865238D01*
X183716190Y-92960476D01*
X183620952Y-93008095D01*
X184620952Y-93627142D02*
X184668571Y-93674761D01*
X184620952Y-93722380D01*
X184573333Y-93674761D01*
X184620952Y-93627142D01*
X184620952Y-93722380D01*
X185287619Y-92722380D02*
X185382857Y-92722380D01*
X185478095Y-92770000D01*
X185525714Y-92817619D01*
X185573333Y-92912857D01*
X185620952Y-93103333D01*
X185620952Y-93341428D01*
X185573333Y-93531904D01*
X185525714Y-93627142D01*
X185478095Y-93674761D01*
X185382857Y-93722380D01*
X185287619Y-93722380D01*
X185192380Y-93674761D01*
X185144761Y-93627142D01*
X185097142Y-93531904D01*
X185049523Y-93341428D01*
X185049523Y-93103333D01*
X185097142Y-92912857D01*
X185144761Y-92817619D01*
X185192380Y-92770000D01*
X185287619Y-92722380D01*
X176871904Y-95672380D02*
X176395714Y-95672380D01*
X176395714Y-94672380D01*
X177205238Y-95672380D02*
X177205238Y-94672380D01*
X177681428Y-95672380D02*
X177681428Y-94672380D01*
X178252857Y-95672380D01*
X178252857Y-94672380D01*
X179062380Y-95148571D02*
X179205238Y-95196190D01*
X179252857Y-95243809D01*
X179300476Y-95339047D01*
X179300476Y-95481904D01*
X179252857Y-95577142D01*
X179205238Y-95624761D01*
X179110000Y-95672380D01*
X178729047Y-95672380D01*
X178729047Y-94672380D01*
X179062380Y-94672380D01*
X179157619Y-94720000D01*
X179205238Y-94767619D01*
X179252857Y-94862857D01*
X179252857Y-94958095D01*
X179205238Y-95053333D01*
X179157619Y-95100952D01*
X179062380Y-95148571D01*
X178729047Y-95148571D01*
X180157619Y-95005714D02*
X180157619Y-95672380D01*
X179729047Y-95005714D02*
X179729047Y-95529523D01*
X179776666Y-95624761D01*
X179871904Y-95672380D01*
X180014761Y-95672380D01*
X180110000Y-95624761D01*
X180157619Y-95577142D01*
X180586190Y-95624761D02*
X180681428Y-95672380D01*
X180871904Y-95672380D01*
X180967142Y-95624761D01*
X181014761Y-95529523D01*
X181014761Y-95481904D01*
X180967142Y-95386666D01*
X180871904Y-95339047D01*
X180729047Y-95339047D01*
X180633809Y-95291428D01*
X180586190Y-95196190D01*
X180586190Y-95148571D01*
X180633809Y-95053333D01*
X180729047Y-95005714D01*
X180871904Y-95005714D01*
X180967142Y-95053333D01*
X182205238Y-95672380D02*
X182205238Y-94672380D01*
X182586190Y-94672380D01*
X182681428Y-94720000D01*
X182729047Y-94767619D01*
X182776666Y-94862857D01*
X182776666Y-95005714D01*
X182729047Y-95100952D01*
X182681428Y-95148571D01*
X182586190Y-95196190D01*
X182205238Y-95196190D01*
X183586190Y-95624761D02*
X183490952Y-95672380D01*
X183300476Y-95672380D01*
X183205238Y-95624761D01*
X183157619Y-95529523D01*
X183157619Y-95148571D01*
X183205238Y-95053333D01*
X183300476Y-95005714D01*
X183490952Y-95005714D01*
X183586190Y-95053333D01*
X183633809Y-95148571D01*
X183633809Y-95243809D01*
X183157619Y-95339047D01*
X184205238Y-95672380D02*
X184110000Y-95624761D01*
X184062380Y-95529523D01*
X184062380Y-94672380D01*
X184443333Y-95005714D02*
X184824285Y-95005714D01*
X184586190Y-94672380D02*
X184586190Y-95529523D01*
X184633809Y-95624761D01*
X184729047Y-95672380D01*
X184824285Y-95672380D01*
X185157619Y-95672380D02*
X185157619Y-95005714D01*
X185157619Y-94672380D02*
X185110000Y-94720000D01*
X185157619Y-94767619D01*
X185205238Y-94720000D01*
X185157619Y-94672380D01*
X185157619Y-94767619D01*
X186014761Y-95624761D02*
X185919523Y-95672380D01*
X185729047Y-95672380D01*
X185633809Y-95624761D01*
X185586190Y-95529523D01*
X185586190Y-95148571D01*
X185633809Y-95053333D01*
X185729047Y-95005714D01*
X185919523Y-95005714D01*
X186014761Y-95053333D01*
X186062380Y-95148571D01*
X186062380Y-95243809D01*
X185586190Y-95339047D01*
X186490952Y-95672380D02*
X186490952Y-95005714D01*
X186490952Y-95196190D02*
X186538571Y-95100952D01*
X186586190Y-95053333D01*
X186681428Y-95005714D01*
X186776666Y-95005714D01*
X188443333Y-95577142D02*
X188395714Y-95624761D01*
X188252857Y-95672380D01*
X188157619Y-95672380D01*
X188014761Y-95624761D01*
X187919523Y-95529523D01*
X187871904Y-95434285D01*
X187824285Y-95243809D01*
X187824285Y-95100952D01*
X187871904Y-94910476D01*
X187919523Y-94815238D01*
X188014761Y-94720000D01*
X188157619Y-94672380D01*
X188252857Y-94672380D01*
X188395714Y-94720000D01*
X188443333Y-94767619D01*
X189014761Y-95672380D02*
X188919523Y-95624761D01*
X188871904Y-95577142D01*
X188824285Y-95481904D01*
X188824285Y-95196190D01*
X188871904Y-95100952D01*
X188919523Y-95053333D01*
X189014761Y-95005714D01*
X189157619Y-95005714D01*
X189252857Y-95053333D01*
X189300476Y-95100952D01*
X189348095Y-95196190D01*
X189348095Y-95481904D01*
X189300476Y-95577142D01*
X189252857Y-95624761D01*
X189157619Y-95672380D01*
X189014761Y-95672380D01*
X189776666Y-95005714D02*
X189776666Y-95672380D01*
X189776666Y-95100952D02*
X189824285Y-95053333D01*
X189919523Y-95005714D01*
X190062380Y-95005714D01*
X190157619Y-95053333D01*
X190205238Y-95148571D01*
X190205238Y-95672380D01*
X190538571Y-95005714D02*
X190919523Y-95005714D01*
X190681428Y-94672380D02*
X190681428Y-95529523D01*
X190729047Y-95624761D01*
X190824285Y-95672380D01*
X190919523Y-95672380D01*
X191252857Y-95672380D02*
X191252857Y-95005714D01*
X191252857Y-95196190D02*
X191300476Y-95100952D01*
X191348095Y-95053333D01*
X191443333Y-95005714D01*
X191538571Y-95005714D01*
X192014761Y-95672380D02*
X191919523Y-95624761D01*
X191871904Y-95577142D01*
X191824285Y-95481904D01*
X191824285Y-95196190D01*
X191871904Y-95100952D01*
X191919523Y-95053333D01*
X192014761Y-95005714D01*
X192157619Y-95005714D01*
X192252857Y-95053333D01*
X192300476Y-95100952D01*
X192348095Y-95196190D01*
X192348095Y-95481904D01*
X192300476Y-95577142D01*
X192252857Y-95624761D01*
X192157619Y-95672380D01*
X192014761Y-95672380D01*
X192919523Y-95672380D02*
X192824285Y-95624761D01*
X192776666Y-95529523D01*
X192776666Y-94672380D01*
X193443333Y-95672380D02*
X193348095Y-95624761D01*
X193300476Y-95529523D01*
X193300476Y-94672380D01*
X194205238Y-95624761D02*
X194110000Y-95672380D01*
X193919523Y-95672380D01*
X193824285Y-95624761D01*
X193776666Y-95529523D01*
X193776666Y-95148571D01*
X193824285Y-95053333D01*
X193919523Y-95005714D01*
X194110000Y-95005714D01*
X194205238Y-95053333D01*
X194252857Y-95148571D01*
X194252857Y-95243809D01*
X193776666Y-95339047D01*
X194681428Y-95672380D02*
X194681428Y-95005714D01*
X194681428Y-95196190D02*
X194729047Y-95100952D01*
X194776666Y-95053333D01*
X194871904Y-95005714D01*
X194967142Y-95005714D01*
X220442380Y-68639523D02*
X220442380Y-69115714D01*
X219442380Y-69115714D01*
X220442380Y-68306190D02*
X219442380Y-68306190D01*
X220442380Y-67830000D02*
X219442380Y-67830000D01*
X220442380Y-67258571D01*
X219442380Y-67258571D01*
X219918571Y-66449047D02*
X219966190Y-66306190D01*
X220013809Y-66258571D01*
X220109047Y-66210952D01*
X220251904Y-66210952D01*
X220347142Y-66258571D01*
X220394761Y-66306190D01*
X220442380Y-66401428D01*
X220442380Y-66782380D01*
X219442380Y-66782380D01*
X219442380Y-66449047D01*
X219490000Y-66353809D01*
X219537619Y-66306190D01*
X219632857Y-66258571D01*
X219728095Y-66258571D01*
X219823333Y-66306190D01*
X219870952Y-66353809D01*
X219918571Y-66449047D01*
X219918571Y-66782380D01*
X219775714Y-65353809D02*
X220442380Y-65353809D01*
X219775714Y-65782380D02*
X220299523Y-65782380D01*
X220394761Y-65734761D01*
X220442380Y-65639523D01*
X220442380Y-65496666D01*
X220394761Y-65401428D01*
X220347142Y-65353809D01*
X220394761Y-64925238D02*
X220442380Y-64830000D01*
X220442380Y-64639523D01*
X220394761Y-64544285D01*
X220299523Y-64496666D01*
X220251904Y-64496666D01*
X220156666Y-64544285D01*
X220109047Y-64639523D01*
X220109047Y-64782380D01*
X220061428Y-64877619D01*
X219966190Y-64925238D01*
X219918571Y-64925238D01*
X219823333Y-64877619D01*
X219775714Y-64782380D01*
X219775714Y-64639523D01*
X219823333Y-64544285D01*
X181488095Y-85202380D02*
X181488095Y-84202380D01*
X181916666Y-84297619D02*
X181964285Y-84250000D01*
X182059523Y-84202380D01*
X182297619Y-84202380D01*
X182392857Y-84250000D01*
X182440476Y-84297619D01*
X182488095Y-84392857D01*
X182488095Y-84488095D01*
X182440476Y-84630952D01*
X181869047Y-85202380D01*
X182488095Y-85202380D01*
X183488095Y-85107142D02*
X183440476Y-85154761D01*
X183297619Y-85202380D01*
X183202380Y-85202380D01*
X183059523Y-85154761D01*
X182964285Y-85059523D01*
X182916666Y-84964285D01*
X182869047Y-84773809D01*
X182869047Y-84630952D01*
X182916666Y-84440476D01*
X182964285Y-84345238D01*
X183059523Y-84250000D01*
X183202380Y-84202380D01*
X183297619Y-84202380D01*
X183440476Y-84250000D01*
X183488095Y-84297619D01*
X185154761Y-85202380D02*
X184678571Y-85202380D01*
X184678571Y-84202380D01*
X186059523Y-85107142D02*
X186011904Y-85154761D01*
X185869047Y-85202380D01*
X185773809Y-85202380D01*
X185630952Y-85154761D01*
X185535714Y-85059523D01*
X185488095Y-84964285D01*
X185440476Y-84773809D01*
X185440476Y-84630952D01*
X185488095Y-84440476D01*
X185535714Y-84345238D01*
X185630952Y-84250000D01*
X185773809Y-84202380D01*
X185869047Y-84202380D01*
X186011904Y-84250000D01*
X186059523Y-84297619D01*
X186488095Y-85202380D02*
X186488095Y-84202380D01*
X186726190Y-84202380D01*
X186869047Y-84250000D01*
X186964285Y-84345238D01*
X187011904Y-84440476D01*
X187059523Y-84630952D01*
X187059523Y-84773809D01*
X187011904Y-84964285D01*
X186964285Y-85059523D01*
X186869047Y-85154761D01*
X186726190Y-85202380D01*
X186488095Y-85202380D01*
X176539047Y-98043333D02*
X176491428Y-97995714D01*
X176396190Y-97852857D01*
X176348571Y-97757619D01*
X176300952Y-97614761D01*
X176253333Y-97376666D01*
X176253333Y-97186190D01*
X176300952Y-96948095D01*
X176348571Y-96805238D01*
X176396190Y-96710000D01*
X176491428Y-96567142D01*
X176539047Y-96519523D01*
X177348571Y-97614761D02*
X177253333Y-97662380D01*
X177062857Y-97662380D01*
X176967619Y-97614761D01*
X176920000Y-97567142D01*
X176872380Y-97471904D01*
X176872380Y-97186190D01*
X176920000Y-97090952D01*
X176967619Y-97043333D01*
X177062857Y-96995714D01*
X177253333Y-96995714D01*
X177348571Y-97043333D01*
X177681904Y-98043333D02*
X177729523Y-97995714D01*
X177824761Y-97852857D01*
X177872380Y-97757619D01*
X177920000Y-97614761D01*
X177967619Y-97376666D01*
X177967619Y-97186190D01*
X177920000Y-96948095D01*
X177872380Y-96805238D01*
X177824761Y-96710000D01*
X177729523Y-96567142D01*
X177681904Y-96519523D01*
X179158095Y-96757619D02*
X179205714Y-96710000D01*
X179300952Y-96662380D01*
X179539047Y-96662380D01*
X179634285Y-96710000D01*
X179681904Y-96757619D01*
X179729523Y-96852857D01*
X179729523Y-96948095D01*
X179681904Y-97090952D01*
X179110476Y-97662380D01*
X179729523Y-97662380D01*
X180348571Y-96662380D02*
X180443809Y-96662380D01*
X180539047Y-96710000D01*
X180586666Y-96757619D01*
X180634285Y-96852857D01*
X180681904Y-97043333D01*
X180681904Y-97281428D01*
X180634285Y-97471904D01*
X180586666Y-97567142D01*
X180539047Y-97614761D01*
X180443809Y-97662380D01*
X180348571Y-97662380D01*
X180253333Y-97614761D01*
X180205714Y-97567142D01*
X180158095Y-97471904D01*
X180110476Y-97281428D01*
X180110476Y-97043333D01*
X180158095Y-96852857D01*
X180205714Y-96757619D01*
X180253333Y-96710000D01*
X180348571Y-96662380D01*
X181062857Y-96757619D02*
X181110476Y-96710000D01*
X181205714Y-96662380D01*
X181443809Y-96662380D01*
X181539047Y-96710000D01*
X181586666Y-96757619D01*
X181634285Y-96852857D01*
X181634285Y-96948095D01*
X181586666Y-97090952D01*
X181015238Y-97662380D01*
X181634285Y-97662380D01*
X181967619Y-96662380D02*
X182586666Y-96662380D01*
X182253333Y-97043333D01*
X182396190Y-97043333D01*
X182491428Y-97090952D01*
X182539047Y-97138571D01*
X182586666Y-97233809D01*
X182586666Y-97471904D01*
X182539047Y-97567142D01*
X182491428Y-97614761D01*
X182396190Y-97662380D01*
X182110476Y-97662380D01*
X182015238Y-97614761D01*
X181967619Y-97567142D01*
X184300952Y-96710000D02*
X184205714Y-96662380D01*
X184062857Y-96662380D01*
X183920000Y-96710000D01*
X183824761Y-96805238D01*
X183777142Y-96900476D01*
X183729523Y-97090952D01*
X183729523Y-97233809D01*
X183777142Y-97424285D01*
X183824761Y-97519523D01*
X183920000Y-97614761D01*
X184062857Y-97662380D01*
X184158095Y-97662380D01*
X184300952Y-97614761D01*
X184348571Y-97567142D01*
X184348571Y-97233809D01*
X184158095Y-97233809D01*
X185205714Y-97662380D02*
X185205714Y-97138571D01*
X185158095Y-97043333D01*
X185062857Y-96995714D01*
X184872380Y-96995714D01*
X184777142Y-97043333D01*
X185205714Y-97614761D02*
X185110476Y-97662380D01*
X184872380Y-97662380D01*
X184777142Y-97614761D01*
X184729523Y-97519523D01*
X184729523Y-97424285D01*
X184777142Y-97329047D01*
X184872380Y-97281428D01*
X185110476Y-97281428D01*
X185205714Y-97233809D01*
X185586666Y-96995714D02*
X185824761Y-97662380D01*
X186062857Y-96995714D01*
X186443809Y-97662380D02*
X186443809Y-96995714D01*
X186443809Y-96662380D02*
X186396190Y-96710000D01*
X186443809Y-96757619D01*
X186491428Y-96710000D01*
X186443809Y-96662380D01*
X186443809Y-96757619D01*
X186920000Y-96995714D02*
X186920000Y-97662380D01*
X186920000Y-97090952D02*
X186967619Y-97043333D01*
X187062857Y-96995714D01*
X187205714Y-96995714D01*
X187300952Y-97043333D01*
X187348571Y-97138571D01*
X187348571Y-97662380D01*
X188586666Y-97662380D02*
X188586666Y-96662380D01*
X188586666Y-97138571D02*
X189158095Y-97138571D01*
X189158095Y-97662380D02*
X189158095Y-96662380D01*
X190062857Y-96995714D02*
X190062857Y-97662380D01*
X189634285Y-96995714D02*
X189634285Y-97519523D01*
X189681904Y-97614761D01*
X189777142Y-97662380D01*
X189920000Y-97662380D01*
X190015238Y-97614761D01*
X190062857Y-97567142D01*
X190539047Y-97662380D02*
X190539047Y-96995714D01*
X190539047Y-97186190D02*
X190586666Y-97090952D01*
X190634285Y-97043333D01*
X190729523Y-96995714D01*
X190824761Y-96995714D01*
X191300952Y-97662380D02*
X191205714Y-97614761D01*
X191158095Y-97519523D01*
X191158095Y-96662380D01*
X191681904Y-97662380D02*
X191681904Y-96662380D01*
X191681904Y-97043333D02*
X191777142Y-96995714D01*
X191967619Y-96995714D01*
X192062857Y-97043333D01*
X192110476Y-97090952D01*
X192158095Y-97186190D01*
X192158095Y-97471904D01*
X192110476Y-97567142D01*
X192062857Y-97614761D01*
X191967619Y-97662380D01*
X191777142Y-97662380D01*
X191681904Y-97614761D01*
X193015238Y-96995714D02*
X193015238Y-97662380D01*
X192586666Y-96995714D02*
X192586666Y-97519523D01*
X192634285Y-97614761D01*
X192729523Y-97662380D01*
X192872380Y-97662380D01*
X192967619Y-97614761D01*
X193015238Y-97567142D01*
X193348571Y-96995714D02*
X193729523Y-96995714D01*
X193491428Y-96662380D02*
X193491428Y-97519523D01*
X193539047Y-97614761D01*
X193634285Y-97662380D01*
X193729523Y-97662380D01*
D11*
%TO.C,J1*%
X227754523Y-95623333D02*
X228661666Y-95623333D01*
X228843095Y-95683809D01*
X228964047Y-95804761D01*
X229024523Y-95986190D01*
X229024523Y-96107142D01*
X229024523Y-94353333D02*
X229024523Y-95079047D01*
X229024523Y-94716190D02*
X227754523Y-94716190D01*
X227935952Y-94837142D01*
X228056904Y-94958095D01*
X228117380Y-95079047D01*
D12*
X220044761Y-88964523D02*
X220044761Y-89992619D01*
X220105238Y-90113571D01*
X220165714Y-90174047D01*
X220286666Y-90234523D01*
X220528571Y-90234523D01*
X220649523Y-90174047D01*
X220710000Y-90113571D01*
X220770476Y-89992619D01*
X220770476Y-88964523D01*
X221375238Y-90234523D02*
X221375238Y-88964523D01*
X221859047Y-88964523D01*
X221980000Y-89025000D01*
X222040476Y-89085476D01*
X222100952Y-89206428D01*
X222100952Y-89387857D01*
X222040476Y-89508809D01*
X221980000Y-89569285D01*
X221859047Y-89629761D01*
X221375238Y-89629761D01*
X222645238Y-90234523D02*
X222645238Y-88964523D01*
X222947619Y-88964523D01*
X223129047Y-89025000D01*
X223250000Y-89145952D01*
X223310476Y-89266904D01*
X223370952Y-89508809D01*
X223370952Y-89690238D01*
X223310476Y-89932142D01*
X223250000Y-90053095D01*
X223129047Y-90174047D01*
X222947619Y-90234523D01*
X222645238Y-90234523D01*
X223915238Y-90234523D02*
X223915238Y-88964523D01*
D10*
X226972380Y-96016257D02*
X225972380Y-96016257D01*
X225972380Y-95778161D01*
X226020000Y-95635304D01*
X226115238Y-95540066D01*
X226210476Y-95492447D01*
X226400952Y-95444828D01*
X226543809Y-95444828D01*
X226734285Y-95492447D01*
X226829523Y-95540066D01*
X226924761Y-95635304D01*
X226972380Y-95778161D01*
X226972380Y-96016257D01*
X225972380Y-95159114D02*
X225972380Y-94587685D01*
X226972380Y-94873400D02*
X225972380Y-94873400D01*
X226972380Y-93682923D02*
X226496190Y-94016257D01*
X226972380Y-94254352D02*
X225972380Y-94254352D01*
X225972380Y-93873400D01*
X226020000Y-93778161D01*
X226067619Y-93730542D01*
X226162857Y-93682923D01*
X226305714Y-93682923D01*
X226400952Y-93730542D01*
X226448571Y-93778161D01*
X226496190Y-93873400D01*
X226496190Y-94254352D01*
X216717142Y-95294019D02*
X216764761Y-95341638D01*
X216812380Y-95484495D01*
X216812380Y-95579733D01*
X216764761Y-95722590D01*
X216669523Y-95817828D01*
X216574285Y-95865447D01*
X216383809Y-95913066D01*
X216240952Y-95913066D01*
X216050476Y-95865447D01*
X215955238Y-95817828D01*
X215860000Y-95722590D01*
X215812380Y-95579733D01*
X215812380Y-95484495D01*
X215860000Y-95341638D01*
X215907619Y-95294019D01*
X215812380Y-95008304D02*
X215812380Y-94436876D01*
X216812380Y-94722590D02*
X215812380Y-94722590D01*
X216764761Y-94151161D02*
X216812380Y-94008304D01*
X216812380Y-93770209D01*
X216764761Y-93674971D01*
X216717142Y-93627352D01*
X216621904Y-93579733D01*
X216526666Y-93579733D01*
X216431428Y-93627352D01*
X216383809Y-93674971D01*
X216336190Y-93770209D01*
X216288571Y-93960685D01*
X216240952Y-94055923D01*
X216193333Y-94103542D01*
X216098095Y-94151161D01*
X216002857Y-94151161D01*
X215907619Y-94103542D01*
X215860000Y-94055923D01*
X215812380Y-93960685D01*
X215812380Y-93722590D01*
X215860000Y-93579733D01*
X218276180Y-96181333D02*
X219276180Y-95848000D01*
X218276180Y-95514666D01*
X219180942Y-94609904D02*
X219228561Y-94657523D01*
X219276180Y-94800380D01*
X219276180Y-94895619D01*
X219228561Y-95038476D01*
X219133323Y-95133714D01*
X219038085Y-95181333D01*
X218847609Y-95228952D01*
X218704752Y-95228952D01*
X218514276Y-95181333D01*
X218419038Y-95133714D01*
X218323800Y-95038476D01*
X218276180Y-94895619D01*
X218276180Y-94800380D01*
X218323800Y-94657523D01*
X218371419Y-94609904D01*
X219180942Y-93609904D02*
X219228561Y-93657523D01*
X219276180Y-93800380D01*
X219276180Y-93895619D01*
X219228561Y-94038476D01*
X219133323Y-94133714D01*
X219038085Y-94181333D01*
X218847609Y-94228952D01*
X218704752Y-94228952D01*
X218514276Y-94181333D01*
X218419038Y-94133714D01*
X218323800Y-94038476D01*
X218276180Y-93895619D01*
X218276180Y-93800380D01*
X218323800Y-93657523D01*
X218371419Y-93609904D01*
D12*
X211509285Y-93478333D02*
X211569761Y-93296904D01*
X211630238Y-93236428D01*
X211751190Y-93175952D01*
X211932619Y-93175952D01*
X212053571Y-93236428D01*
X212114047Y-93296904D01*
X212174523Y-93417857D01*
X212174523Y-93901666D01*
X210904523Y-93901666D01*
X210904523Y-93478333D01*
X210965000Y-93357380D01*
X211025476Y-93296904D01*
X211146428Y-93236428D01*
X211267380Y-93236428D01*
X211388333Y-93296904D01*
X211448809Y-93357380D01*
X211509285Y-93478333D01*
X211509285Y-93901666D01*
X212174523Y-92026904D02*
X212174523Y-92631666D01*
X210904523Y-92631666D01*
X212174523Y-91603571D02*
X210904523Y-91603571D01*
X212174523Y-90877857D02*
X211448809Y-91422142D01*
X210904523Y-90877857D02*
X211630238Y-91603571D01*
X228315000Y-92887619D02*
X228254523Y-93008571D01*
X228254523Y-93190000D01*
X228315000Y-93371428D01*
X228435952Y-93492380D01*
X228556904Y-93552857D01*
X228798809Y-93613333D01*
X228980238Y-93613333D01*
X229222142Y-93552857D01*
X229343095Y-93492380D01*
X229464047Y-93371428D01*
X229524523Y-93190000D01*
X229524523Y-93069047D01*
X229464047Y-92887619D01*
X229403571Y-92827142D01*
X228980238Y-92827142D01*
X228980238Y-93069047D01*
X229524523Y-91557142D02*
X228919761Y-91980476D01*
X229524523Y-92282857D02*
X228254523Y-92282857D01*
X228254523Y-91799047D01*
X228315000Y-91678095D01*
X228375476Y-91617619D01*
X228496428Y-91557142D01*
X228677857Y-91557142D01*
X228798809Y-91617619D01*
X228859285Y-91678095D01*
X228919761Y-91799047D01*
X228919761Y-92282857D01*
X229524523Y-91012857D02*
X228254523Y-91012857D01*
X229524523Y-90287142D01*
X228254523Y-90287142D01*
D10*
X224457780Y-95616266D02*
X223981590Y-95949600D01*
X224457780Y-96187695D02*
X223457780Y-96187695D01*
X223457780Y-95806742D01*
X223505400Y-95711504D01*
X223553019Y-95663885D01*
X223648257Y-95616266D01*
X223791114Y-95616266D01*
X223886352Y-95663885D01*
X223933971Y-95711504D01*
X223981590Y-95806742D01*
X223981590Y-96187695D01*
X223457780Y-95282933D02*
X224457780Y-94616266D01*
X223457780Y-94616266D02*
X224457780Y-95282933D01*
X224457780Y-94235314D02*
X223457780Y-94235314D01*
X223457780Y-93997219D01*
X223505400Y-93854361D01*
X223600638Y-93759123D01*
X223695876Y-93711504D01*
X223886352Y-93663885D01*
X224029209Y-93663885D01*
X224219685Y-93711504D01*
X224314923Y-93759123D01*
X224410161Y-93854361D01*
X224457780Y-93997219D01*
X224457780Y-94235314D01*
X220917780Y-96160704D02*
X220917780Y-95589276D01*
X221917780Y-95874990D02*
X220917780Y-95874990D01*
X220917780Y-95351180D02*
X221917780Y-94684514D01*
X220917780Y-94684514D02*
X221917780Y-95351180D01*
X221917780Y-94303561D02*
X220917780Y-94303561D01*
X220917780Y-94065466D01*
X220965400Y-93922609D01*
X221060638Y-93827371D01*
X221155876Y-93779752D01*
X221346352Y-93732133D01*
X221489209Y-93732133D01*
X221679685Y-93779752D01*
X221774923Y-93827371D01*
X221870161Y-93922609D01*
X221917780Y-94065466D01*
X221917780Y-94303561D01*
X213294600Y-95609904D02*
X213246980Y-95705142D01*
X213246980Y-95848000D01*
X213294600Y-95990857D01*
X213389838Y-96086095D01*
X213485076Y-96133714D01*
X213675552Y-96181333D01*
X213818409Y-96181333D01*
X214008885Y-96133714D01*
X214104123Y-96086095D01*
X214199361Y-95990857D01*
X214246980Y-95848000D01*
X214246980Y-95752761D01*
X214199361Y-95609904D01*
X214151742Y-95562285D01*
X213818409Y-95562285D01*
X213818409Y-95752761D01*
X214246980Y-95133714D02*
X213246980Y-95133714D01*
X214246980Y-94562285D01*
X213246980Y-94562285D01*
X214246980Y-94086095D02*
X213246980Y-94086095D01*
X213246980Y-93848000D01*
X213294600Y-93705142D01*
X213389838Y-93609904D01*
X213485076Y-93562285D01*
X213675552Y-93514666D01*
X213818409Y-93514666D01*
X214008885Y-93562285D01*
X214104123Y-93609904D01*
X214199361Y-93705142D01*
X214246980Y-93848000D01*
X214246980Y-94086095D01*
%TO.C,Q4*%
X223079761Y-81297619D02*
X222984523Y-81250000D01*
X222889285Y-81154761D01*
X222746428Y-81011904D01*
X222651190Y-80964285D01*
X222555952Y-80964285D01*
X222603571Y-81202380D02*
X222508333Y-81154761D01*
X222413095Y-81059523D01*
X222365476Y-80869047D01*
X222365476Y-80535714D01*
X222413095Y-80345238D01*
X222508333Y-80250000D01*
X222603571Y-80202380D01*
X222794047Y-80202380D01*
X222889285Y-80250000D01*
X222984523Y-80345238D01*
X223032142Y-80535714D01*
X223032142Y-80869047D01*
X222984523Y-81059523D01*
X222889285Y-81154761D01*
X222794047Y-81202380D01*
X222603571Y-81202380D01*
X223889285Y-80535714D02*
X223889285Y-81202380D01*
X223651190Y-80154761D02*
X223413095Y-80869047D01*
X224032142Y-80869047D01*
%TO.C,U5*%
X212898095Y-73962380D02*
X212898095Y-74771904D01*
X212945714Y-74867142D01*
X212993333Y-74914761D01*
X213088571Y-74962380D01*
X213279047Y-74962380D01*
X213374285Y-74914761D01*
X213421904Y-74867142D01*
X213469523Y-74771904D01*
X213469523Y-73962380D01*
X214421904Y-73962380D02*
X213945714Y-73962380D01*
X213898095Y-74438571D01*
X213945714Y-74390952D01*
X214040952Y-74343333D01*
X214279047Y-74343333D01*
X214374285Y-74390952D01*
X214421904Y-74438571D01*
X214469523Y-74533809D01*
X214469523Y-74771904D01*
X214421904Y-74867142D01*
X214374285Y-74914761D01*
X214279047Y-74962380D01*
X214040952Y-74962380D01*
X213945714Y-74914761D01*
X213898095Y-74867142D01*
X214960000Y-79447619D02*
X214960000Y-79209523D01*
X215198095Y-79304761D02*
X214960000Y-79209523D01*
X214721904Y-79304761D01*
X215102857Y-79019047D02*
X214960000Y-79209523D01*
X214817142Y-79019047D01*
%TO.C,U4*%
X190278095Y-84632380D02*
X190278095Y-85441904D01*
X190325714Y-85537142D01*
X190373333Y-85584761D01*
X190468571Y-85632380D01*
X190659047Y-85632380D01*
X190754285Y-85584761D01*
X190801904Y-85537142D01*
X190849523Y-85441904D01*
X190849523Y-84632380D01*
X191754285Y-84965714D02*
X191754285Y-85632380D01*
X191516190Y-84584761D02*
X191278095Y-85299047D01*
X191897142Y-85299047D01*
%TO.C,U3*%
X187398095Y-66812380D02*
X187398095Y-67621904D01*
X187445714Y-67717142D01*
X187493333Y-67764761D01*
X187588571Y-67812380D01*
X187779047Y-67812380D01*
X187874285Y-67764761D01*
X187921904Y-67717142D01*
X187969523Y-67621904D01*
X187969523Y-66812380D01*
X188350476Y-66812380D02*
X188969523Y-66812380D01*
X188636190Y-67193333D01*
X188779047Y-67193333D01*
X188874285Y-67240952D01*
X188921904Y-67288571D01*
X188969523Y-67383809D01*
X188969523Y-67621904D01*
X188921904Y-67717142D01*
X188874285Y-67764761D01*
X188779047Y-67812380D01*
X188493333Y-67812380D01*
X188398095Y-67764761D01*
X188350476Y-67717142D01*
X190076942Y-66829780D02*
X190410276Y-67829780D01*
X190743609Y-66829780D01*
X191219800Y-67829780D02*
X191124561Y-67782161D01*
X191076942Y-67734542D01*
X191029323Y-67639304D01*
X191029323Y-67353590D01*
X191076942Y-67258352D01*
X191124561Y-67210733D01*
X191219800Y-67163114D01*
X191362657Y-67163114D01*
X191457895Y-67210733D01*
X191505514Y-67258352D01*
X191553133Y-67353590D01*
X191553133Y-67639304D01*
X191505514Y-67734542D01*
X191457895Y-67782161D01*
X191362657Y-67829780D01*
X191219800Y-67829780D01*
X192124561Y-67829780D02*
X192029323Y-67782161D01*
X191981704Y-67686923D01*
X191981704Y-66829780D01*
X192362657Y-67163114D02*
X192743609Y-67163114D01*
X192505514Y-66829780D02*
X192505514Y-67686923D01*
X192553133Y-67782161D01*
X192648371Y-67829780D01*
X192743609Y-67829780D01*
X193505514Y-67829780D02*
X193505514Y-67305971D01*
X193457895Y-67210733D01*
X193362657Y-67163114D01*
X193172180Y-67163114D01*
X193076942Y-67210733D01*
X193505514Y-67782161D02*
X193410276Y-67829780D01*
X193172180Y-67829780D01*
X193076942Y-67782161D01*
X193029323Y-67686923D01*
X193029323Y-67591685D01*
X193076942Y-67496447D01*
X193172180Y-67448828D01*
X193410276Y-67448828D01*
X193505514Y-67401209D01*
X194410276Y-67163114D02*
X194410276Y-67972638D01*
X194362657Y-68067876D01*
X194315038Y-68115495D01*
X194219800Y-68163114D01*
X194076942Y-68163114D01*
X193981704Y-68115495D01*
X194410276Y-67782161D02*
X194315038Y-67829780D01*
X194124561Y-67829780D01*
X194029323Y-67782161D01*
X193981704Y-67734542D01*
X193934085Y-67639304D01*
X193934085Y-67353590D01*
X193981704Y-67258352D01*
X194029323Y-67210733D01*
X194124561Y-67163114D01*
X194315038Y-67163114D01*
X194410276Y-67210733D01*
X195267419Y-67782161D02*
X195172180Y-67829780D01*
X194981704Y-67829780D01*
X194886466Y-67782161D01*
X194838847Y-67686923D01*
X194838847Y-67305971D01*
X194886466Y-67210733D01*
X194981704Y-67163114D01*
X195172180Y-67163114D01*
X195267419Y-67210733D01*
X195315038Y-67305971D01*
X195315038Y-67401209D01*
X194838847Y-67496447D01*
X197076942Y-67829780D02*
X196743609Y-67353590D01*
X196505514Y-67829780D02*
X196505514Y-66829780D01*
X196886466Y-66829780D01*
X196981704Y-66877400D01*
X197029323Y-66925019D01*
X197076942Y-67020257D01*
X197076942Y-67163114D01*
X197029323Y-67258352D01*
X196981704Y-67305971D01*
X196886466Y-67353590D01*
X196505514Y-67353590D01*
X197886466Y-67782161D02*
X197791228Y-67829780D01*
X197600752Y-67829780D01*
X197505514Y-67782161D01*
X197457895Y-67686923D01*
X197457895Y-67305971D01*
X197505514Y-67210733D01*
X197600752Y-67163114D01*
X197791228Y-67163114D01*
X197886466Y-67210733D01*
X197934085Y-67305971D01*
X197934085Y-67401209D01*
X197457895Y-67496447D01*
X198791228Y-67163114D02*
X198791228Y-67972638D01*
X198743609Y-68067876D01*
X198695990Y-68115495D01*
X198600752Y-68163114D01*
X198457895Y-68163114D01*
X198362657Y-68115495D01*
X198791228Y-67782161D02*
X198695990Y-67829780D01*
X198505514Y-67829780D01*
X198410276Y-67782161D01*
X198362657Y-67734542D01*
X198315038Y-67639304D01*
X198315038Y-67353590D01*
X198362657Y-67258352D01*
X198410276Y-67210733D01*
X198505514Y-67163114D01*
X198695990Y-67163114D01*
X198791228Y-67210733D01*
X199695990Y-67163114D02*
X199695990Y-67829780D01*
X199267419Y-67163114D02*
X199267419Y-67686923D01*
X199315038Y-67782161D01*
X199410276Y-67829780D01*
X199553133Y-67829780D01*
X199648371Y-67782161D01*
X199695990Y-67734542D01*
X200315038Y-67829780D02*
X200219800Y-67782161D01*
X200172180Y-67686923D01*
X200172180Y-66829780D01*
X201124561Y-67829780D02*
X201124561Y-67305971D01*
X201076942Y-67210733D01*
X200981704Y-67163114D01*
X200791228Y-67163114D01*
X200695990Y-67210733D01*
X201124561Y-67782161D02*
X201029323Y-67829780D01*
X200791228Y-67829780D01*
X200695990Y-67782161D01*
X200648371Y-67686923D01*
X200648371Y-67591685D01*
X200695990Y-67496447D01*
X200791228Y-67448828D01*
X201029323Y-67448828D01*
X201124561Y-67401209D01*
X201457895Y-67163114D02*
X201838847Y-67163114D01*
X201600752Y-66829780D02*
X201600752Y-67686923D01*
X201648371Y-67782161D01*
X201743609Y-67829780D01*
X201838847Y-67829780D01*
X202315038Y-67829780D02*
X202219800Y-67782161D01*
X202172180Y-67734542D01*
X202124561Y-67639304D01*
X202124561Y-67353590D01*
X202172180Y-67258352D01*
X202219800Y-67210733D01*
X202315038Y-67163114D01*
X202457895Y-67163114D01*
X202553133Y-67210733D01*
X202600752Y-67258352D01*
X202648371Y-67353590D01*
X202648371Y-67639304D01*
X202600752Y-67734542D01*
X202553133Y-67782161D01*
X202457895Y-67829780D01*
X202315038Y-67829780D01*
X203076942Y-67829780D02*
X203076942Y-67163114D01*
X203076942Y-67353590D02*
X203124561Y-67258352D01*
X203172180Y-67210733D01*
X203267419Y-67163114D01*
X203362657Y-67163114D01*
X184508490Y-72049980D02*
X184841823Y-73049980D01*
X185175157Y-72049980D01*
X185508490Y-73049980D02*
X185508490Y-72383314D01*
X185508490Y-72049980D02*
X185460871Y-72097600D01*
X185508490Y-72145219D01*
X185556109Y-72097600D01*
X185508490Y-72049980D01*
X185508490Y-72145219D01*
X185984680Y-72383314D02*
X185984680Y-73049980D01*
X185984680Y-72478552D02*
X186032300Y-72430933D01*
X186127538Y-72383314D01*
X186270395Y-72383314D01*
X186365633Y-72430933D01*
X186413252Y-72526171D01*
X186413252Y-73049980D01*
X183608490Y-77299980D02*
X183941823Y-78299980D01*
X184275157Y-77299980D01*
X184751347Y-78299980D02*
X184656109Y-78252361D01*
X184608490Y-78204742D01*
X184560871Y-78109504D01*
X184560871Y-77823790D01*
X184608490Y-77728552D01*
X184656109Y-77680933D01*
X184751347Y-77633314D01*
X184894204Y-77633314D01*
X184989442Y-77680933D01*
X185037061Y-77728552D01*
X185084680Y-77823790D01*
X185084680Y-78109504D01*
X185037061Y-78204742D01*
X184989442Y-78252361D01*
X184894204Y-78299980D01*
X184751347Y-78299980D01*
X185941823Y-77633314D02*
X185941823Y-78299980D01*
X185513252Y-77633314D02*
X185513252Y-78157123D01*
X185560871Y-78252361D01*
X185656109Y-78299980D01*
X185798966Y-78299980D01*
X185894204Y-78252361D01*
X185941823Y-78204742D01*
X186275157Y-77633314D02*
X186656109Y-77633314D01*
X186418014Y-77299980D02*
X186418014Y-78157123D01*
X186465633Y-78252361D01*
X186560871Y-78299980D01*
X186656109Y-78299980D01*
X184477095Y-74853000D02*
X184381857Y-74805380D01*
X184239000Y-74805380D01*
X184096142Y-74853000D01*
X184000904Y-74948238D01*
X183953285Y-75043476D01*
X183905666Y-75233952D01*
X183905666Y-75376809D01*
X183953285Y-75567285D01*
X184000904Y-75662523D01*
X184096142Y-75757761D01*
X184239000Y-75805380D01*
X184334238Y-75805380D01*
X184477095Y-75757761D01*
X184524714Y-75710142D01*
X184524714Y-75376809D01*
X184334238Y-75376809D01*
X184953285Y-75805380D02*
X184953285Y-74805380D01*
X185524714Y-75805380D01*
X185524714Y-74805380D01*
X186000904Y-75805380D02*
X186000904Y-74805380D01*
X186239000Y-74805380D01*
X186381857Y-74853000D01*
X186477095Y-74948238D01*
X186524714Y-75043476D01*
X186572333Y-75233952D01*
X186572333Y-75376809D01*
X186524714Y-75567285D01*
X186477095Y-75662523D01*
X186381857Y-75757761D01*
X186239000Y-75805380D01*
X186000904Y-75805380D01*
X184958104Y-70023771D02*
X185291438Y-70023771D01*
X185434295Y-70547580D02*
X184958104Y-70547580D01*
X184958104Y-69547580D01*
X185434295Y-69547580D01*
X185862866Y-70547580D02*
X185862866Y-69547580D01*
X186434295Y-70547580D01*
X186434295Y-69547580D01*
%TO.C,R11*%
X216857142Y-72412380D02*
X216523809Y-71936190D01*
X216285714Y-72412380D02*
X216285714Y-71412380D01*
X216666666Y-71412380D01*
X216761904Y-71460000D01*
X216809523Y-71507619D01*
X216857142Y-71602857D01*
X216857142Y-71745714D01*
X216809523Y-71840952D01*
X216761904Y-71888571D01*
X216666666Y-71936190D01*
X216285714Y-71936190D01*
X217809523Y-72412380D02*
X217238095Y-72412380D01*
X217523809Y-72412380D02*
X217523809Y-71412380D01*
X217428571Y-71555238D01*
X217333333Y-71650476D01*
X217238095Y-71698095D01*
X218761904Y-72412380D02*
X218190476Y-72412380D01*
X218476190Y-72412380D02*
X218476190Y-71412380D01*
X218380952Y-71555238D01*
X218285714Y-71650476D01*
X218190476Y-71698095D01*
%TO.C,C7*%
X177213333Y-76367142D02*
X177165714Y-76414761D01*
X177022857Y-76462380D01*
X176927619Y-76462380D01*
X176784761Y-76414761D01*
X176689523Y-76319523D01*
X176641904Y-76224285D01*
X176594285Y-76033809D01*
X176594285Y-75890952D01*
X176641904Y-75700476D01*
X176689523Y-75605238D01*
X176784761Y-75510000D01*
X176927619Y-75462380D01*
X177022857Y-75462380D01*
X177165714Y-75510000D01*
X177213333Y-75557619D01*
X177546666Y-75462380D02*
X178213333Y-75462380D01*
X177784761Y-76462380D01*
%TO.C,C6*%
X192393333Y-90187142D02*
X192345714Y-90234761D01*
X192202857Y-90282380D01*
X192107619Y-90282380D01*
X191964761Y-90234761D01*
X191869523Y-90139523D01*
X191821904Y-90044285D01*
X191774285Y-89853809D01*
X191774285Y-89710952D01*
X191821904Y-89520476D01*
X191869523Y-89425238D01*
X191964761Y-89330000D01*
X192107619Y-89282380D01*
X192202857Y-89282380D01*
X192345714Y-89330000D01*
X192393333Y-89377619D01*
X193250476Y-89282380D02*
X193060000Y-89282380D01*
X192964761Y-89330000D01*
X192917142Y-89377619D01*
X192821904Y-89520476D01*
X192774285Y-89710952D01*
X192774285Y-90091904D01*
X192821904Y-90187142D01*
X192869523Y-90234761D01*
X192964761Y-90282380D01*
X193155238Y-90282380D01*
X193250476Y-90234761D01*
X193298095Y-90187142D01*
X193345714Y-90091904D01*
X193345714Y-89853809D01*
X193298095Y-89758571D01*
X193250476Y-89710952D01*
X193155238Y-89663333D01*
X192964761Y-89663333D01*
X192869523Y-89710952D01*
X192821904Y-89758571D01*
X192774285Y-89853809D01*
%TO.C,C5*%
X176713333Y-78877142D02*
X176665714Y-78924761D01*
X176522857Y-78972380D01*
X176427619Y-78972380D01*
X176284761Y-78924761D01*
X176189523Y-78829523D01*
X176141904Y-78734285D01*
X176094285Y-78543809D01*
X176094285Y-78400952D01*
X176141904Y-78210476D01*
X176189523Y-78115238D01*
X176284761Y-78020000D01*
X176427619Y-77972380D01*
X176522857Y-77972380D01*
X176665714Y-78020000D01*
X176713333Y-78067619D01*
X177618095Y-77972380D02*
X177141904Y-77972380D01*
X177094285Y-78448571D01*
X177141904Y-78400952D01*
X177237142Y-78353333D01*
X177475238Y-78353333D01*
X177570476Y-78400952D01*
X177618095Y-78448571D01*
X177665714Y-78543809D01*
X177665714Y-78781904D01*
X177618095Y-78877142D01*
X177570476Y-78924761D01*
X177475238Y-78972380D01*
X177237142Y-78972380D01*
X177141904Y-78924761D01*
X177094285Y-78877142D01*
%TO.C,C3*%
X196220833Y-80157142D02*
X196173214Y-80204761D01*
X196030357Y-80252380D01*
X195935119Y-80252380D01*
X195792261Y-80204761D01*
X195697023Y-80109523D01*
X195649404Y-80014285D01*
X195601785Y-79823809D01*
X195601785Y-79680952D01*
X195649404Y-79490476D01*
X195697023Y-79395238D01*
X195792261Y-79300000D01*
X195935119Y-79252380D01*
X196030357Y-79252380D01*
X196173214Y-79300000D01*
X196220833Y-79347619D01*
X196554166Y-79252380D02*
X197173214Y-79252380D01*
X196839880Y-79633333D01*
X196982738Y-79633333D01*
X197077976Y-79680952D01*
X197125595Y-79728571D01*
X197173214Y-79823809D01*
X197173214Y-80061904D01*
X197125595Y-80157142D01*
X197077976Y-80204761D01*
X196982738Y-80252380D01*
X196697023Y-80252380D01*
X196601785Y-80204761D01*
X196554166Y-80157142D01*
%TO.C,F1*%
X216226666Y-66878571D02*
X215893333Y-66878571D01*
X215893333Y-67402380D02*
X215893333Y-66402380D01*
X216369523Y-66402380D01*
X217274285Y-67402380D02*
X216702857Y-67402380D01*
X216988571Y-67402380D02*
X216988571Y-66402380D01*
X216893333Y-66545238D01*
X216798095Y-66640476D01*
X216702857Y-66688095D01*
%TO.C,R21*%
X214242380Y-88092857D02*
X213766190Y-88426190D01*
X214242380Y-88664285D02*
X213242380Y-88664285D01*
X213242380Y-88283333D01*
X213290000Y-88188095D01*
X213337619Y-88140476D01*
X213432857Y-88092857D01*
X213575714Y-88092857D01*
X213670952Y-88140476D01*
X213718571Y-88188095D01*
X213766190Y-88283333D01*
X213766190Y-88664285D01*
X213337619Y-87711904D02*
X213290000Y-87664285D01*
X213242380Y-87569047D01*
X213242380Y-87330952D01*
X213290000Y-87235714D01*
X213337619Y-87188095D01*
X213432857Y-87140476D01*
X213528095Y-87140476D01*
X213670952Y-87188095D01*
X214242380Y-87759523D01*
X214242380Y-87140476D01*
X214242380Y-86188095D02*
X214242380Y-86759523D01*
X214242380Y-86473809D02*
X213242380Y-86473809D01*
X213385238Y-86569047D01*
X213480476Y-86664285D01*
X213528095Y-86759523D01*
%TO.C,J2*%
X176791666Y-81552380D02*
X176791666Y-82266666D01*
X176744047Y-82409523D01*
X176648809Y-82504761D01*
X176505952Y-82552380D01*
X176410714Y-82552380D01*
X177220238Y-81647619D02*
X177267857Y-81600000D01*
X177363095Y-81552380D01*
X177601190Y-81552380D01*
X177696428Y-81600000D01*
X177744047Y-81647619D01*
X177791666Y-81742857D01*
X177791666Y-81838095D01*
X177744047Y-81980952D01*
X177172619Y-82552380D01*
X177791666Y-82552380D01*
%TO.C,U1*%
X194602380Y-86471904D02*
X195411904Y-86471904D01*
X195507142Y-86424285D01*
X195554761Y-86376666D01*
X195602380Y-86281428D01*
X195602380Y-86090952D01*
X195554761Y-85995714D01*
X195507142Y-85948095D01*
X195411904Y-85900476D01*
X194602380Y-85900476D01*
X195602380Y-84900476D02*
X195602380Y-85471904D01*
X195602380Y-85186190D02*
X194602380Y-85186190D01*
X194745238Y-85281428D01*
X194840476Y-85376666D01*
X194888095Y-85471904D01*
X195002380Y-90050000D02*
X195240476Y-90050000D01*
X195145238Y-90288095D02*
X195240476Y-90050000D01*
X195145238Y-89811904D01*
X195430952Y-90192857D02*
X195240476Y-90050000D01*
X195430952Y-89907142D01*
%TO.C,Q1*%
X191572619Y-87395238D02*
X191525000Y-87490476D01*
X191429761Y-87585714D01*
X191286904Y-87728571D01*
X191239285Y-87823809D01*
X191239285Y-87919047D01*
X191477380Y-87871428D02*
X191429761Y-87966666D01*
X191334523Y-88061904D01*
X191144047Y-88109523D01*
X190810714Y-88109523D01*
X190620238Y-88061904D01*
X190525000Y-87966666D01*
X190477380Y-87871428D01*
X190477380Y-87680952D01*
X190525000Y-87585714D01*
X190620238Y-87490476D01*
X190810714Y-87442857D01*
X191144047Y-87442857D01*
X191334523Y-87490476D01*
X191429761Y-87585714D01*
X191477380Y-87680952D01*
X191477380Y-87871428D01*
X191477380Y-86490476D02*
X191477380Y-87061904D01*
X191477380Y-86776190D02*
X190477380Y-86776190D01*
X190620238Y-86871428D01*
X190715476Y-86966666D01*
X190763095Y-87061904D01*
%TO.C,U2*%
X208688095Y-96977380D02*
X208688095Y-97786904D01*
X208735714Y-97882142D01*
X208783333Y-97929761D01*
X208878571Y-97977380D01*
X209069047Y-97977380D01*
X209164285Y-97929761D01*
X209211904Y-97882142D01*
X209259523Y-97786904D01*
X209259523Y-96977380D01*
X209688095Y-97072619D02*
X209735714Y-97025000D01*
X209830952Y-96977380D01*
X210069047Y-96977380D01*
X210164285Y-97025000D01*
X210211904Y-97072619D01*
X210259523Y-97167857D01*
X210259523Y-97263095D01*
X210211904Y-97405952D01*
X209640476Y-97977380D01*
X210259523Y-97977380D01*
X202025000Y-90877380D02*
X202025000Y-91115476D01*
X201786904Y-91020238D02*
X202025000Y-91115476D01*
X202263095Y-91020238D01*
X201882142Y-91305952D02*
X202025000Y-91115476D01*
X202167857Y-91305952D01*
%TO.C,C4*%
X210513333Y-71527142D02*
X210465714Y-71574761D01*
X210322857Y-71622380D01*
X210227619Y-71622380D01*
X210084761Y-71574761D01*
X209989523Y-71479523D01*
X209941904Y-71384285D01*
X209894285Y-71193809D01*
X209894285Y-71050952D01*
X209941904Y-70860476D01*
X209989523Y-70765238D01*
X210084761Y-70670000D01*
X210227619Y-70622380D01*
X210322857Y-70622380D01*
X210465714Y-70670000D01*
X210513333Y-70717619D01*
X211370476Y-70955714D02*
X211370476Y-71622380D01*
X211132380Y-70574761D02*
X210894285Y-71289047D01*
X211513333Y-71289047D01*
%TO.C,R1*%
X195368333Y-94422380D02*
X195035000Y-93946190D01*
X194796904Y-94422380D02*
X194796904Y-93422380D01*
X195177857Y-93422380D01*
X195273095Y-93470000D01*
X195320714Y-93517619D01*
X195368333Y-93612857D01*
X195368333Y-93755714D01*
X195320714Y-93850952D01*
X195273095Y-93898571D01*
X195177857Y-93946190D01*
X194796904Y-93946190D01*
X196320714Y-94422380D02*
X195749285Y-94422380D01*
X196035000Y-94422380D02*
X196035000Y-93422380D01*
X195939761Y-93565238D01*
X195844523Y-93660476D01*
X195749285Y-93708095D01*
%TO.C,C1*%
X204708333Y-88207142D02*
X204660714Y-88254761D01*
X204517857Y-88302380D01*
X204422619Y-88302380D01*
X204279761Y-88254761D01*
X204184523Y-88159523D01*
X204136904Y-88064285D01*
X204089285Y-87873809D01*
X204089285Y-87730952D01*
X204136904Y-87540476D01*
X204184523Y-87445238D01*
X204279761Y-87350000D01*
X204422619Y-87302380D01*
X204517857Y-87302380D01*
X204660714Y-87350000D01*
X204708333Y-87397619D01*
X205660714Y-88302380D02*
X205089285Y-88302380D01*
X205375000Y-88302380D02*
X205375000Y-87302380D01*
X205279761Y-87445238D01*
X205184523Y-87540476D01*
X205089285Y-87588095D01*
%TO.C,R5*%
X202927380Y-86316666D02*
X202451190Y-86650000D01*
X202927380Y-86888095D02*
X201927380Y-86888095D01*
X201927380Y-86507142D01*
X201975000Y-86411904D01*
X202022619Y-86364285D01*
X202117857Y-86316666D01*
X202260714Y-86316666D01*
X202355952Y-86364285D01*
X202403571Y-86411904D01*
X202451190Y-86507142D01*
X202451190Y-86888095D01*
X201927380Y-85411904D02*
X201927380Y-85888095D01*
X202403571Y-85935714D01*
X202355952Y-85888095D01*
X202308333Y-85792857D01*
X202308333Y-85554761D01*
X202355952Y-85459523D01*
X202403571Y-85411904D01*
X202498809Y-85364285D01*
X202736904Y-85364285D01*
X202832142Y-85411904D01*
X202879761Y-85459523D01*
X202927380Y-85554761D01*
X202927380Y-85792857D01*
X202879761Y-85888095D01*
X202832142Y-85935714D01*
%TO.C,R19*%
X209757142Y-88477380D02*
X209423809Y-88001190D01*
X209185714Y-88477380D02*
X209185714Y-87477380D01*
X209566666Y-87477380D01*
X209661904Y-87525000D01*
X209709523Y-87572619D01*
X209757142Y-87667857D01*
X209757142Y-87810714D01*
X209709523Y-87905952D01*
X209661904Y-87953571D01*
X209566666Y-88001190D01*
X209185714Y-88001190D01*
X210709523Y-88477380D02*
X210138095Y-88477380D01*
X210423809Y-88477380D02*
X210423809Y-87477380D01*
X210328571Y-87620238D01*
X210233333Y-87715476D01*
X210138095Y-87763095D01*
X211185714Y-88477380D02*
X211376190Y-88477380D01*
X211471428Y-88429761D01*
X211519047Y-88382142D01*
X211614285Y-88239285D01*
X211661904Y-88048809D01*
X211661904Y-87667857D01*
X211614285Y-87572619D01*
X211566666Y-87525000D01*
X211471428Y-87477380D01*
X211280952Y-87477380D01*
X211185714Y-87525000D01*
X211138095Y-87572619D01*
X211090476Y-87667857D01*
X211090476Y-87905952D01*
X211138095Y-88001190D01*
X211185714Y-88048809D01*
X211280952Y-88096428D01*
X211471428Y-88096428D01*
X211566666Y-88048809D01*
X211614285Y-88001190D01*
X211661904Y-87905952D01*
%TO.C,J4*%
X228522380Y-76728333D02*
X229236666Y-76728333D01*
X229379523Y-76775952D01*
X229474761Y-76871190D01*
X229522380Y-77014047D01*
X229522380Y-77109285D01*
X228855714Y-75823571D02*
X229522380Y-75823571D01*
X228474761Y-76061666D02*
X229189047Y-76299761D01*
X229189047Y-75680714D01*
X220712380Y-79180476D02*
X219712380Y-79180476D01*
X219712380Y-78799523D01*
X219760000Y-78704285D01*
X219807619Y-78656666D01*
X219902857Y-78609047D01*
X220045714Y-78609047D01*
X220140952Y-78656666D01*
X220188571Y-78704285D01*
X220236190Y-78799523D01*
X220236190Y-79180476D01*
X220188571Y-78180476D02*
X220188571Y-77847142D01*
X220712380Y-77704285D02*
X220712380Y-78180476D01*
X219712380Y-78180476D01*
X219712380Y-77704285D01*
X220712380Y-76799523D02*
X220712380Y-77275714D01*
X219712380Y-77275714D01*
X219712380Y-76609047D02*
X219712380Y-76037619D01*
X220712380Y-76323333D02*
X219712380Y-76323333D01*
X220712380Y-75704285D02*
X219712380Y-75704285D01*
X220188571Y-75228095D02*
X220188571Y-74894761D01*
X220712380Y-74751904D02*
X220712380Y-75228095D01*
X219712380Y-75228095D01*
X219712380Y-74751904D01*
X220712380Y-73751904D02*
X220236190Y-74085238D01*
X220712380Y-74323333D02*
X219712380Y-74323333D01*
X219712380Y-73942380D01*
X219760000Y-73847142D01*
X219807619Y-73799523D01*
X219902857Y-73751904D01*
X220045714Y-73751904D01*
X220140952Y-73799523D01*
X220188571Y-73847142D01*
X220236190Y-73942380D01*
X220236190Y-74323333D01*
%TO.C,D1*%
X208927380Y-85738095D02*
X207927380Y-85738095D01*
X207927380Y-85500000D01*
X207975000Y-85357142D01*
X208070238Y-85261904D01*
X208165476Y-85214285D01*
X208355952Y-85166666D01*
X208498809Y-85166666D01*
X208689285Y-85214285D01*
X208784523Y-85261904D01*
X208879761Y-85357142D01*
X208927380Y-85500000D01*
X208927380Y-85738095D01*
X208927380Y-84214285D02*
X208927380Y-84785714D01*
X208927380Y-84500000D02*
X207927380Y-84500000D01*
X208070238Y-84595238D01*
X208165476Y-84690476D01*
X208213095Y-84785714D01*
%TO.C,Q3*%
X213604761Y-80972619D02*
X213509523Y-80925000D01*
X213414285Y-80829761D01*
X213271428Y-80686904D01*
X213176190Y-80639285D01*
X213080952Y-80639285D01*
X213128571Y-80877380D02*
X213033333Y-80829761D01*
X212938095Y-80734523D01*
X212890476Y-80544047D01*
X212890476Y-80210714D01*
X212938095Y-80020238D01*
X213033333Y-79925000D01*
X213128571Y-79877380D01*
X213319047Y-79877380D01*
X213414285Y-79925000D01*
X213509523Y-80020238D01*
X213557142Y-80210714D01*
X213557142Y-80544047D01*
X213509523Y-80734523D01*
X213414285Y-80829761D01*
X213319047Y-80877380D01*
X213128571Y-80877380D01*
X213890476Y-79877380D02*
X214509523Y-79877380D01*
X214176190Y-80258333D01*
X214319047Y-80258333D01*
X214414285Y-80305952D01*
X214461904Y-80353571D01*
X214509523Y-80448809D01*
X214509523Y-80686904D01*
X214461904Y-80782142D01*
X214414285Y-80829761D01*
X214319047Y-80877380D01*
X214033333Y-80877380D01*
X213938095Y-80829761D01*
X213890476Y-80782142D01*
%TO.C,J3*%
X228522380Y-66873333D02*
X229236666Y-66873333D01*
X229379523Y-66920952D01*
X229474761Y-67016190D01*
X229522380Y-67159047D01*
X229522380Y-67254285D01*
X228522380Y-66492380D02*
X228522380Y-65873333D01*
X228903333Y-66206666D01*
X228903333Y-66063809D01*
X228950952Y-65968571D01*
X228998571Y-65920952D01*
X229093809Y-65873333D01*
X229331904Y-65873333D01*
X229427142Y-65920952D01*
X229474761Y-65968571D01*
X229522380Y-66063809D01*
X229522380Y-66349523D01*
X229474761Y-66444761D01*
X229427142Y-66492380D01*
%TO.C,R20*%
X210327380Y-83667857D02*
X209851190Y-84001190D01*
X210327380Y-84239285D02*
X209327380Y-84239285D01*
X209327380Y-83858333D01*
X209375000Y-83763095D01*
X209422619Y-83715476D01*
X209517857Y-83667857D01*
X209660714Y-83667857D01*
X209755952Y-83715476D01*
X209803571Y-83763095D01*
X209851190Y-83858333D01*
X209851190Y-84239285D01*
X209422619Y-83286904D02*
X209375000Y-83239285D01*
X209327380Y-83144047D01*
X209327380Y-82905952D01*
X209375000Y-82810714D01*
X209422619Y-82763095D01*
X209517857Y-82715476D01*
X209613095Y-82715476D01*
X209755952Y-82763095D01*
X210327380Y-83334523D01*
X210327380Y-82715476D01*
X209327380Y-82096428D02*
X209327380Y-82001190D01*
X209375000Y-81905952D01*
X209422619Y-81858333D01*
X209517857Y-81810714D01*
X209708333Y-81763095D01*
X209946428Y-81763095D01*
X210136904Y-81810714D01*
X210232142Y-81858333D01*
X210279761Y-81905952D01*
X210327380Y-82001190D01*
X210327380Y-82096428D01*
X210279761Y-82191666D01*
X210232142Y-82239285D01*
X210136904Y-82286904D01*
X209946428Y-82334523D01*
X209708333Y-82334523D01*
X209517857Y-82286904D01*
X209422619Y-82239285D01*
X209375000Y-82191666D01*
X209327380Y-82096428D01*
%TO.C,Q2*%
X182647619Y-87682738D02*
X182600000Y-87777976D01*
X182504761Y-87873214D01*
X182361904Y-88016071D01*
X182314285Y-88111309D01*
X182314285Y-88206547D01*
X182552380Y-88158928D02*
X182504761Y-88254166D01*
X182409523Y-88349404D01*
X182219047Y-88397023D01*
X181885714Y-88397023D01*
X181695238Y-88349404D01*
X181600000Y-88254166D01*
X181552380Y-88158928D01*
X181552380Y-87968452D01*
X181600000Y-87873214D01*
X181695238Y-87777976D01*
X181885714Y-87730357D01*
X182219047Y-87730357D01*
X182409523Y-87777976D01*
X182504761Y-87873214D01*
X182552380Y-87968452D01*
X182552380Y-88158928D01*
X181647619Y-87349404D02*
X181600000Y-87301785D01*
X181552380Y-87206547D01*
X181552380Y-86968452D01*
X181600000Y-86873214D01*
X181647619Y-86825595D01*
X181742857Y-86777976D01*
X181838095Y-86777976D01*
X181980952Y-86825595D01*
X182552380Y-87397023D01*
X182552380Y-86777976D01*
%TO.C,R2*%
X199033333Y-96177380D02*
X198700000Y-95701190D01*
X198461904Y-96177380D02*
X198461904Y-95177380D01*
X198842857Y-95177380D01*
X198938095Y-95225000D01*
X198985714Y-95272619D01*
X199033333Y-95367857D01*
X199033333Y-95510714D01*
X198985714Y-95605952D01*
X198938095Y-95653571D01*
X198842857Y-95701190D01*
X198461904Y-95701190D01*
X199414285Y-95272619D02*
X199461904Y-95225000D01*
X199557142Y-95177380D01*
X199795238Y-95177380D01*
X199890476Y-95225000D01*
X199938095Y-95272619D01*
X199985714Y-95367857D01*
X199985714Y-95463095D01*
X199938095Y-95605952D01*
X199366666Y-96177380D01*
X199985714Y-96177380D01*
D13*
%TO.C,J1*%
X227815400Y-93146200D02*
X212550000Y-93146200D01*
X212550000Y-93146200D02*
X212550000Y-90453800D01*
X212550000Y-90453800D02*
X227815400Y-90453800D01*
X227815400Y-90453800D02*
X227815400Y-93146200D01*
D14*
X221694000Y-91546000D02*
X221694000Y-92054000D01*
X216614000Y-92054000D02*
X216106000Y-92054000D01*
X226774000Y-92054000D02*
X226266000Y-92054000D01*
X214074000Y-92054000D02*
X213566000Y-92054000D01*
X221186000Y-91546000D02*
X221186000Y-92054000D01*
X216614000Y-91546000D02*
X216614000Y-92054000D01*
X226774000Y-91546000D02*
X226774000Y-92054000D01*
X224234000Y-91546000D02*
X224234000Y-92054000D01*
X214074000Y-91546000D02*
X214074000Y-92054000D01*
X226266000Y-91546000D02*
X226266000Y-92054000D01*
X214074000Y-91546000D02*
X213566000Y-91546000D01*
X223726000Y-91546000D02*
X223726000Y-92054000D01*
X224234000Y-92054000D02*
X223726000Y-92054000D01*
X213566000Y-91546000D02*
X213566000Y-92054000D01*
X221694000Y-92054000D02*
X221186000Y-92054000D01*
X216614000Y-91546000D02*
X216106000Y-91546000D01*
X216106000Y-91546000D02*
X216106000Y-92054000D01*
X221694000Y-91546000D02*
X221186000Y-91546000D01*
X224234000Y-91546000D02*
X223726000Y-91546000D01*
X219154000Y-91546000D02*
X219154000Y-92054000D01*
X226774000Y-91546000D02*
X226266000Y-91546000D01*
D13*
%TO.C,Q4*%
X220705000Y-81800000D02*
X220705000Y-82070000D01*
X220705000Y-88430000D02*
X219605000Y-88430000D01*
X220705000Y-82070000D02*
X217875000Y-82070000D01*
X222205000Y-81800000D02*
X220705000Y-81800000D01*
X220705000Y-88700000D02*
X220705000Y-88430000D01*
X222205000Y-88700000D02*
X220705000Y-88700000D01*
%TO.C,U5*%
X213322500Y-75545000D02*
X212522500Y-75545000D01*
X213322500Y-75545000D02*
X214122500Y-75545000D01*
X213322500Y-78665000D02*
X215122500Y-78665000D01*
X213322500Y-78665000D02*
X212522500Y-78665000D01*
%TO.C,U4*%
X190790000Y-82367500D02*
X190790000Y-81717500D01*
X193910000Y-82367500D02*
X193910000Y-81717500D01*
X190790000Y-82367500D02*
X190790000Y-84042500D01*
X193910000Y-82367500D02*
X193910000Y-83017500D01*
%TO.C,U3*%
X189462300Y-76652600D02*
X189462300Y-68972600D01*
X189462300Y-76652600D02*
X186802300Y-76652600D01*
X189462300Y-68972600D02*
X186802300Y-68972600D01*
X189462300Y-79252600D02*
X188132300Y-79252600D01*
X186802300Y-76652600D02*
X186802300Y-68972600D01*
X189462300Y-77922600D02*
X189462300Y-79252600D01*
%TO.C,R11*%
X219250000Y-74932936D02*
X219250000Y-79287064D01*
X215830000Y-74932936D02*
X215830000Y-79287064D01*
%TO.C,C7*%
X181683752Y-76685000D02*
X181161248Y-76685000D01*
X181683752Y-75215000D02*
X181161248Y-75215000D01*
%TO.C,C6*%
X193955000Y-86736248D02*
X193955000Y-87258752D01*
X192485000Y-86736248D02*
X192485000Y-87258752D01*
%TO.C,C5*%
X183492500Y-77585000D02*
X179407500Y-77585000D01*
X179407500Y-79455000D02*
X183492500Y-79455000D01*
X183492500Y-79455000D02*
X183492500Y-77585000D01*
%TO.C,C3*%
X196126248Y-80745000D02*
X196648752Y-80745000D01*
X196126248Y-82215000D02*
X196648752Y-82215000D01*
%TO.C,F1*%
X218820000Y-65820000D02*
X218820000Y-64875000D01*
X218820000Y-65820000D02*
X207580000Y-65820000D01*
X218820000Y-63025000D02*
X218820000Y-62080000D01*
X218820000Y-62080000D02*
X207580000Y-62080000D01*
X207580000Y-65820000D02*
X207580000Y-64875000D01*
X207580000Y-63025000D02*
X207580000Y-62080000D01*
%TO.C,R21*%
X215245000Y-87237064D02*
X215245000Y-86782936D01*
X216715000Y-87237064D02*
X216715000Y-86782936D01*
%TO.C,J2*%
X181420000Y-83430000D02*
X189100000Y-83430000D01*
X181420000Y-83430000D02*
X181420000Y-80770000D01*
X178820000Y-83430000D02*
X178820000Y-82100000D01*
X181420000Y-80770000D02*
X189100000Y-80770000D01*
X189100000Y-83430000D02*
X189100000Y-80770000D01*
X180150000Y-83430000D02*
X178820000Y-83430000D01*
%TO.C,U1*%
X196015000Y-87325000D02*
X196015000Y-85375000D01*
X201135000Y-87325000D02*
X201135000Y-85375000D01*
X196015000Y-87325000D02*
X196015000Y-90775000D01*
X201135000Y-87325000D02*
X201135000Y-89275000D01*
%TO.C,Q1*%
X189910000Y-87537500D02*
X189910000Y-88187500D01*
X189910000Y-87537500D02*
X189910000Y-86887500D01*
X186790000Y-87537500D02*
X186790000Y-89212500D01*
X186790000Y-87537500D02*
X186790000Y-86887500D01*
%TO.C,U2*%
X206100000Y-91315000D02*
X208300000Y-91315000D01*
X206100000Y-96535000D02*
X208300000Y-96535000D01*
X206100000Y-91315000D02*
X202500000Y-91315000D01*
X206100000Y-96535000D02*
X203900000Y-96535000D01*
%TO.C,C4*%
X209858748Y-69800000D02*
X211281252Y-69800000D01*
X209858748Y-67080000D02*
X211281252Y-67080000D01*
%TO.C,R1*%
X195422936Y-91485000D02*
X195877064Y-91485000D01*
X195422936Y-92955000D02*
X195877064Y-92955000D01*
%TO.C,C1*%
X204523752Y-89040000D02*
X204001248Y-89040000D01*
X204523752Y-90510000D02*
X204001248Y-90510000D01*
%TO.C,R5*%
X204760000Y-84577064D02*
X204760000Y-84122936D01*
X203290000Y-84577064D02*
X203290000Y-84122936D01*
%TO.C,R19*%
X210172936Y-90410000D02*
X210627064Y-90410000D01*
X210172936Y-88940000D02*
X210627064Y-88940000D01*
%TO.C,J4*%
X226950000Y-73505000D02*
X226950000Y-79285000D01*
X228070000Y-73505000D02*
X228070000Y-79285000D01*
X221330000Y-73505000D02*
X221330000Y-79285000D01*
X221730000Y-73265000D02*
X221090000Y-73265000D01*
X221090000Y-73265000D02*
X221090000Y-73665000D01*
X228070000Y-73505000D02*
X221330000Y-73505000D01*
X228070000Y-79285000D02*
X221330000Y-79285000D01*
X221850000Y-73505000D02*
X221850000Y-79285000D01*
%TO.C,D1*%
X205490000Y-83325000D02*
X205490000Y-86185000D01*
X205490000Y-86185000D02*
X207410000Y-86185000D01*
X207410000Y-86185000D02*
X207410000Y-83325000D01*
%TO.C,Q3*%
X214812500Y-84560000D02*
X214162500Y-84560000D01*
X214812500Y-81440000D02*
X213137500Y-81440000D01*
X214812500Y-84560000D02*
X215462500Y-84560000D01*
X214812500Y-81440000D02*
X215462500Y-81440000D01*
%TO.C,J3*%
X221090000Y-62140000D02*
X221090000Y-62540000D01*
X221330000Y-62380000D02*
X221330000Y-70700000D01*
X228070000Y-62380000D02*
X221330000Y-62380000D01*
X226950000Y-62380000D02*
X226950000Y-70700000D01*
X221730000Y-62140000D02*
X221090000Y-62140000D01*
X228070000Y-62380000D02*
X228070000Y-70700000D01*
X228070000Y-70700000D02*
X221330000Y-70700000D01*
X221850000Y-62380000D02*
X221850000Y-70700000D01*
%TO.C,R20*%
X212260000Y-83252064D02*
X212260000Y-82797936D01*
X210790000Y-83252064D02*
X210790000Y-82797936D01*
%TO.C,Q2*%
X186060000Y-87587500D02*
X186060000Y-88237500D01*
X182940000Y-87587500D02*
X182940000Y-89262500D01*
X186060000Y-87587500D02*
X186060000Y-86937500D01*
X182940000Y-87587500D02*
X182940000Y-86937500D01*
%TO.C,R2*%
X199447936Y-93040000D02*
X199902064Y-93040000D01*
X199447936Y-94510000D02*
X199902064Y-94510000D01*
%TO.C,REF\u002A\u002A*%
G36*
X183580807Y-70616782D02*
G01*
X183604161Y-70626988D01*
X183659902Y-70671134D01*
X183707569Y-70734967D01*
X183737048Y-70803087D01*
X183741846Y-70836670D01*
X183725760Y-70883556D01*
X183690475Y-70908365D01*
X183652644Y-70923387D01*
X183635321Y-70926155D01*
X183626886Y-70906066D01*
X183610230Y-70862351D01*
X183602923Y-70842598D01*
X183561948Y-70774271D01*
X183502622Y-70740191D01*
X183426552Y-70741239D01*
X183420918Y-70742581D01*
X183380305Y-70761836D01*
X183350448Y-70799375D01*
X183330055Y-70859809D01*
X183317836Y-70947751D01*
X183312500Y-71067813D01*
X183312000Y-71131698D01*
X183311752Y-71232403D01*
X183310126Y-71301054D01*
X183305801Y-71344673D01*
X183297454Y-71370282D01*
X183283765Y-71384903D01*
X183263411Y-71395558D01*
X183262234Y-71396095D01*
X183223038Y-71412667D01*
X183203619Y-71418769D01*
X183200635Y-71400319D01*
X183198081Y-71349323D01*
X183196140Y-71272308D01*
X183194997Y-71175805D01*
X183194769Y-71105184D01*
X183195932Y-70968525D01*
X183200479Y-70864851D01*
X183209999Y-70788108D01*
X183226081Y-70732246D01*
X183250313Y-70691212D01*
X183284286Y-70658954D01*
X183317833Y-70636440D01*
X183398499Y-70606476D01*
X183492381Y-70599718D01*
X183580807Y-70616782D01*
G37*
D15*
X183580807Y-70616782D02*
X183604161Y-70626988D01*
X183659902Y-70671134D01*
X183707569Y-70734967D01*
X183737048Y-70803087D01*
X183741846Y-70836670D01*
X183725760Y-70883556D01*
X183690475Y-70908365D01*
X183652644Y-70923387D01*
X183635321Y-70926155D01*
X183626886Y-70906066D01*
X183610230Y-70862351D01*
X183602923Y-70842598D01*
X183561948Y-70774271D01*
X183502622Y-70740191D01*
X183426552Y-70741239D01*
X183420918Y-70742581D01*
X183380305Y-70761836D01*
X183350448Y-70799375D01*
X183330055Y-70859809D01*
X183317836Y-70947751D01*
X183312500Y-71067813D01*
X183312000Y-71131698D01*
X183311752Y-71232403D01*
X183310126Y-71301054D01*
X183305801Y-71344673D01*
X183297454Y-71370282D01*
X183283765Y-71384903D01*
X183263411Y-71395558D01*
X183262234Y-71396095D01*
X183223038Y-71412667D01*
X183203619Y-71418769D01*
X183200635Y-71400319D01*
X183198081Y-71349323D01*
X183196140Y-71272308D01*
X183194997Y-71175805D01*
X183194769Y-71105184D01*
X183195932Y-70968525D01*
X183200479Y-70864851D01*
X183209999Y-70788108D01*
X183226081Y-70732246D01*
X183250313Y-70691212D01*
X183284286Y-70658954D01*
X183317833Y-70636440D01*
X183398499Y-70606476D01*
X183492381Y-70599718D01*
X183580807Y-70616782D01*
G36*
X178281664Y-70575089D02*
G01*
X178344367Y-70611358D01*
X178387961Y-70647358D01*
X178419845Y-70685075D01*
X178441810Y-70731199D01*
X178455649Y-70792421D01*
X178463153Y-70875431D01*
X178466117Y-70986919D01*
X178466461Y-71067062D01*
X178466461Y-71362065D01*
X178300385Y-71436515D01*
X178290615Y-71113402D01*
X178286579Y-70992729D01*
X178282344Y-70905141D01*
X178277097Y-70844650D01*
X178270025Y-70805268D01*
X178260311Y-70781007D01*
X178247144Y-70765880D01*
X178242919Y-70762606D01*
X178178909Y-70737034D01*
X178114208Y-70747153D01*
X178075692Y-70774000D01*
X178060025Y-70793024D01*
X178049180Y-70817988D01*
X178042288Y-70855834D01*
X178038479Y-70913502D01*
X178036883Y-70997935D01*
X178036615Y-71085928D01*
X178036563Y-71196323D01*
X178034672Y-71274463D01*
X178028345Y-71327165D01*
X178014983Y-71361242D01*
X177991985Y-71383511D01*
X177956754Y-71400787D01*
X177909697Y-71418738D01*
X177858303Y-71438278D01*
X177864421Y-71091485D01*
X177866884Y-70966468D01*
X177869767Y-70874082D01*
X177873898Y-70807881D01*
X177880107Y-70761420D01*
X177889226Y-70728256D01*
X177902083Y-70701944D01*
X177917584Y-70678729D01*
X177992371Y-70604569D01*
X178083628Y-70561684D01*
X178182883Y-70551412D01*
X178281664Y-70575089D01*
G37*
X178281664Y-70575089D02*
X178344367Y-70611358D01*
X178387961Y-70647358D01*
X178419845Y-70685075D01*
X178441810Y-70731199D01*
X178455649Y-70792421D01*
X178463153Y-70875431D01*
X178466117Y-70986919D01*
X178466461Y-71067062D01*
X178466461Y-71362065D01*
X178300385Y-71436515D01*
X178290615Y-71113402D01*
X178286579Y-70992729D01*
X178282344Y-70905141D01*
X178277097Y-70844650D01*
X178270025Y-70805268D01*
X178260311Y-70781007D01*
X178247144Y-70765880D01*
X178242919Y-70762606D01*
X178178909Y-70737034D01*
X178114208Y-70747153D01*
X178075692Y-70774000D01*
X178060025Y-70793024D01*
X178049180Y-70817988D01*
X178042288Y-70855834D01*
X178038479Y-70913502D01*
X178036883Y-70997935D01*
X178036615Y-71085928D01*
X178036563Y-71196323D01*
X178034672Y-71274463D01*
X178028345Y-71327165D01*
X178014983Y-71361242D01*
X177991985Y-71383511D01*
X177956754Y-71400787D01*
X177909697Y-71418738D01*
X177858303Y-71438278D01*
X177864421Y-71091485D01*
X177866884Y-70966468D01*
X177869767Y-70874082D01*
X177873898Y-70807881D01*
X177880107Y-70761420D01*
X177889226Y-70728256D01*
X177902083Y-70701944D01*
X177917584Y-70678729D01*
X177992371Y-70604569D01*
X178083628Y-70561684D01*
X178182883Y-70551412D01*
X178281664Y-70575089D01*
G36*
X181066362Y-70793577D02*
G01*
X181096528Y-70724269D01*
X181143629Y-70670211D01*
X181180312Y-70642505D01*
X181246990Y-70612572D01*
X181324272Y-70598678D01*
X181396110Y-70602397D01*
X181436308Y-70617400D01*
X181452082Y-70621670D01*
X181462550Y-70605750D01*
X181469856Y-70563089D01*
X181475385Y-70498106D01*
X181481437Y-70425732D01*
X181489844Y-70382187D01*
X181505141Y-70357287D01*
X181531864Y-70340845D01*
X181548654Y-70333564D01*
X181612154Y-70306963D01*
X181612081Y-70760289D01*
X181611833Y-70906320D01*
X181610872Y-71018655D01*
X181608794Y-71102678D01*
X181605193Y-71163769D01*
X181599665Y-71207309D01*
X181591804Y-71238679D01*
X181581207Y-71263262D01*
X181573182Y-71277294D01*
X181506728Y-71353388D01*
X181422470Y-71401084D01*
X181329249Y-71418199D01*
X181235900Y-71402546D01*
X181180312Y-71374418D01*
X181121957Y-71325760D01*
X181082186Y-71266333D01*
X181058190Y-71188507D01*
X181047161Y-71084652D01*
X181045599Y-71008462D01*
X181045809Y-71002986D01*
X181182308Y-71002986D01*
X181183141Y-71090355D01*
X181186961Y-71148192D01*
X181195746Y-71186029D01*
X181211474Y-71213398D01*
X181230266Y-71234042D01*
X181293375Y-71273890D01*
X181361137Y-71277295D01*
X181425179Y-71244025D01*
X181430164Y-71239517D01*
X181451439Y-71216067D01*
X181464779Y-71188166D01*
X181472001Y-71146641D01*
X181474923Y-71082316D01*
X181475385Y-71011200D01*
X181474383Y-70921858D01*
X181470238Y-70862258D01*
X181461236Y-70823089D01*
X181445667Y-70795040D01*
X181432902Y-70780144D01*
X181373600Y-70742575D01*
X181305301Y-70738057D01*
X181240110Y-70766753D01*
X181227528Y-70777406D01*
X181206111Y-70801063D01*
X181192744Y-70829251D01*
X181185566Y-70871245D01*
X181182719Y-70936319D01*
X181182308Y-71002986D01*
X181045809Y-71002986D01*
X181050322Y-70885765D01*
X181066362Y-70793577D01*
G37*
X181066362Y-70793577D02*
X181096528Y-70724269D01*
X181143629Y-70670211D01*
X181180312Y-70642505D01*
X181246990Y-70612572D01*
X181324272Y-70598678D01*
X181396110Y-70602397D01*
X181436308Y-70617400D01*
X181452082Y-70621670D01*
X181462550Y-70605750D01*
X181469856Y-70563089D01*
X181475385Y-70498106D01*
X181481437Y-70425732D01*
X181489844Y-70382187D01*
X181505141Y-70357287D01*
X181531864Y-70340845D01*
X181548654Y-70333564D01*
X181612154Y-70306963D01*
X181612081Y-70760289D01*
X181611833Y-70906320D01*
X181610872Y-71018655D01*
X181608794Y-71102678D01*
X181605193Y-71163769D01*
X181599665Y-71207309D01*
X181591804Y-71238679D01*
X181581207Y-71263262D01*
X181573182Y-71277294D01*
X181506728Y-71353388D01*
X181422470Y-71401084D01*
X181329249Y-71418199D01*
X181235900Y-71402546D01*
X181180312Y-71374418D01*
X181121957Y-71325760D01*
X181082186Y-71266333D01*
X181058190Y-71188507D01*
X181047161Y-71084652D01*
X181045599Y-71008462D01*
X181045809Y-71002986D01*
X181182308Y-71002986D01*
X181183141Y-71090355D01*
X181186961Y-71148192D01*
X181195746Y-71186029D01*
X181211474Y-71213398D01*
X181230266Y-71234042D01*
X181293375Y-71273890D01*
X181361137Y-71277295D01*
X181425179Y-71244025D01*
X181430164Y-71239517D01*
X181451439Y-71216067D01*
X181464779Y-71188166D01*
X181472001Y-71146641D01*
X181474923Y-71082316D01*
X181475385Y-71011200D01*
X181474383Y-70921858D01*
X181470238Y-70862258D01*
X181461236Y-70823089D01*
X181445667Y-70795040D01*
X181432902Y-70780144D01*
X181373600Y-70742575D01*
X181305301Y-70738057D01*
X181240110Y-70766753D01*
X181227528Y-70777406D01*
X181206111Y-70801063D01*
X181192744Y-70829251D01*
X181185566Y-70871245D01*
X181182719Y-70936319D01*
X181182308Y-71002986D01*
X181045809Y-71002986D01*
X181050322Y-70885765D01*
X181066362Y-70793577D01*
G36*
X183871032Y-70800710D02*
G01*
X183889460Y-70735167D01*
X183919360Y-70686912D01*
X183963080Y-70648767D01*
X183982141Y-70636440D01*
X184068726Y-70604336D01*
X184163522Y-70602316D01*
X184255224Y-70627838D01*
X184332528Y-70678361D01*
X184369814Y-70723590D01*
X184399353Y-70805663D01*
X184401699Y-70870607D01*
X184396385Y-70957445D01*
X184196115Y-71045103D01*
X184098739Y-71089887D01*
X184035113Y-71125913D01*
X184002029Y-71157117D01*
X183996280Y-71187436D01*
X184014658Y-71220805D01*
X184034923Y-71242923D01*
X184093889Y-71278393D01*
X184158024Y-71280879D01*
X184216926Y-71253235D01*
X184260197Y-71198320D01*
X184267936Y-71178928D01*
X184305006Y-71118364D01*
X184347654Y-71092552D01*
X184406154Y-71070471D01*
X184406154Y-71154184D01*
X184400982Y-71211150D01*
X184380723Y-71259189D01*
X184338262Y-71314346D01*
X184331951Y-71321514D01*
X184284720Y-71370585D01*
X184244121Y-71396920D01*
X184193328Y-71409035D01*
X184151220Y-71413003D01*
X184075902Y-71413991D01*
X184022286Y-71401466D01*
X183988838Y-71382869D01*
X183936268Y-71341975D01*
X183899879Y-71297748D01*
X183876850Y-71242126D01*
X183864359Y-71167047D01*
X183859587Y-71064449D01*
X183859206Y-71012376D01*
X183860501Y-70949948D01*
X183978471Y-70949948D01*
X183979839Y-70983438D01*
X183983249Y-70988923D01*
X184005753Y-70981472D01*
X184054182Y-70961753D01*
X184118908Y-70933718D01*
X184132443Y-70927692D01*
X184214244Y-70886096D01*
X184259312Y-70849538D01*
X184269217Y-70815296D01*
X184245526Y-70780648D01*
X184225960Y-70765339D01*
X184155360Y-70734721D01*
X184089280Y-70739780D01*
X184033959Y-70777151D01*
X183995636Y-70843473D01*
X183983349Y-70896116D01*
X183978471Y-70949948D01*
X183860501Y-70949948D01*
X183861730Y-70890720D01*
X183871032Y-70800710D01*
G37*
X183871032Y-70800710D02*
X183889460Y-70735167D01*
X183919360Y-70686912D01*
X183963080Y-70648767D01*
X183982141Y-70636440D01*
X184068726Y-70604336D01*
X184163522Y-70602316D01*
X184255224Y-70627838D01*
X184332528Y-70678361D01*
X184369814Y-70723590D01*
X184399353Y-70805663D01*
X184401699Y-70870607D01*
X184396385Y-70957445D01*
X184196115Y-71045103D01*
X184098739Y-71089887D01*
X184035113Y-71125913D01*
X184002029Y-71157117D01*
X183996280Y-71187436D01*
X184014658Y-71220805D01*
X184034923Y-71242923D01*
X184093889Y-71278393D01*
X184158024Y-71280879D01*
X184216926Y-71253235D01*
X184260197Y-71198320D01*
X184267936Y-71178928D01*
X184305006Y-71118364D01*
X184347654Y-71092552D01*
X184406154Y-71070471D01*
X184406154Y-71154184D01*
X184400982Y-71211150D01*
X184380723Y-71259189D01*
X184338262Y-71314346D01*
X184331951Y-71321514D01*
X184284720Y-71370585D01*
X184244121Y-71396920D01*
X184193328Y-71409035D01*
X184151220Y-71413003D01*
X184075902Y-71413991D01*
X184022286Y-71401466D01*
X183988838Y-71382869D01*
X183936268Y-71341975D01*
X183899879Y-71297748D01*
X183876850Y-71242126D01*
X183864359Y-71167047D01*
X183859587Y-71064449D01*
X183859206Y-71012376D01*
X183860501Y-70949948D01*
X183978471Y-70949948D01*
X183979839Y-70983438D01*
X183983249Y-70988923D01*
X184005753Y-70981472D01*
X184054182Y-70961753D01*
X184118908Y-70933718D01*
X184132443Y-70927692D01*
X184214244Y-70886096D01*
X184259312Y-70849538D01*
X184269217Y-70815296D01*
X184245526Y-70780648D01*
X184225960Y-70765339D01*
X184155360Y-70734721D01*
X184089280Y-70739780D01*
X184033959Y-70777151D01*
X183995636Y-70843473D01*
X183983349Y-70896116D01*
X183978471Y-70949948D01*
X183860501Y-70949948D01*
X183861730Y-70890720D01*
X183871032Y-70800710D01*
G36*
X177144778Y-70721055D02*
G01*
X177190421Y-70655215D01*
X177272802Y-70588681D01*
X177363546Y-70555676D01*
X177456185Y-70553573D01*
X177544254Y-70579745D01*
X177621286Y-70631567D01*
X177680816Y-70706412D01*
X177716378Y-70801654D01*
X177723571Y-70871756D01*
X177722754Y-70901009D01*
X177715914Y-70923407D01*
X177697112Y-70943474D01*
X177660408Y-70965733D01*
X177599862Y-70994709D01*
X177509534Y-71034927D01*
X177509077Y-71035129D01*
X177425933Y-71073210D01*
X177357753Y-71107025D01*
X177311505Y-71132933D01*
X177294158Y-71147295D01*
X177294154Y-71147411D01*
X177309443Y-71178685D01*
X177345196Y-71213157D01*
X177386242Y-71237990D01*
X177407037Y-71242923D01*
X177463770Y-71225862D01*
X177512627Y-71183133D01*
X177536465Y-71136155D01*
X177559397Y-71101522D01*
X177604318Y-71062081D01*
X177657123Y-71028009D01*
X177703710Y-71009480D01*
X177713452Y-71008462D01*
X177724418Y-71025215D01*
X177725079Y-71068039D01*
X177717020Y-71125781D01*
X177701827Y-71187289D01*
X177681086Y-71241409D01*
X177680038Y-71243510D01*
X177617621Y-71330660D01*
X177536726Y-71389939D01*
X177444856Y-71419034D01*
X177349513Y-71415634D01*
X177258198Y-71377428D01*
X177254138Y-71374741D01*
X177182306Y-71309642D01*
X177135073Y-71224705D01*
X177108934Y-71113021D01*
X177105426Y-71081643D01*
X177099213Y-70933536D01*
X177106661Y-70864468D01*
X177294154Y-70864468D01*
X177296590Y-70907552D01*
X177309914Y-70920126D01*
X177343132Y-70910719D01*
X177395494Y-70888483D01*
X177454024Y-70860610D01*
X177455479Y-70859872D01*
X177505089Y-70833777D01*
X177525000Y-70816363D01*
X177520090Y-70798107D01*
X177499416Y-70774120D01*
X177446819Y-70739406D01*
X177390177Y-70736856D01*
X177339369Y-70762119D01*
X177304276Y-70810847D01*
X177294154Y-70864468D01*
X177106661Y-70864468D01*
X177111992Y-70815036D01*
X177144778Y-70721055D01*
G37*
X177144778Y-70721055D02*
X177190421Y-70655215D01*
X177272802Y-70588681D01*
X177363546Y-70555676D01*
X177456185Y-70553573D01*
X177544254Y-70579745D01*
X177621286Y-70631567D01*
X177680816Y-70706412D01*
X177716378Y-70801654D01*
X177723571Y-70871756D01*
X177722754Y-70901009D01*
X177715914Y-70923407D01*
X177697112Y-70943474D01*
X177660408Y-70965733D01*
X177599862Y-70994709D01*
X177509534Y-71034927D01*
X177509077Y-71035129D01*
X177425933Y-71073210D01*
X177357753Y-71107025D01*
X177311505Y-71132933D01*
X177294158Y-71147295D01*
X177294154Y-71147411D01*
X177309443Y-71178685D01*
X177345196Y-71213157D01*
X177386242Y-71237990D01*
X177407037Y-71242923D01*
X177463770Y-71225862D01*
X177512627Y-71183133D01*
X177536465Y-71136155D01*
X177559397Y-71101522D01*
X177604318Y-71062081D01*
X177657123Y-71028009D01*
X177703710Y-71009480D01*
X177713452Y-71008462D01*
X177724418Y-71025215D01*
X177725079Y-71068039D01*
X177717020Y-71125781D01*
X177701827Y-71187289D01*
X177681086Y-71241409D01*
X177680038Y-71243510D01*
X177617621Y-71330660D01*
X177536726Y-71389939D01*
X177444856Y-71419034D01*
X177349513Y-71415634D01*
X177258198Y-71377428D01*
X177254138Y-71374741D01*
X177182306Y-71309642D01*
X177135073Y-71224705D01*
X177108934Y-71113021D01*
X177105426Y-71081643D01*
X177099213Y-70933536D01*
X177106661Y-70864468D01*
X177294154Y-70864468D01*
X177296590Y-70907552D01*
X177309914Y-70920126D01*
X177343132Y-70910719D01*
X177395494Y-70888483D01*
X177454024Y-70860610D01*
X177455479Y-70859872D01*
X177505089Y-70833777D01*
X177525000Y-70816363D01*
X177520090Y-70798107D01*
X177499416Y-70774120D01*
X177446819Y-70739406D01*
X177390177Y-70736856D01*
X177339369Y-70762119D01*
X177304276Y-70810847D01*
X177294154Y-70864468D01*
X177106661Y-70864468D01*
X177111992Y-70815036D01*
X177144778Y-70721055D01*
G36*
X179169846Y-70472120D02*
G01*
X179175572Y-70551980D01*
X179182149Y-70599039D01*
X179191262Y-70619566D01*
X179204598Y-70619829D01*
X179208923Y-70617378D01*
X179266444Y-70599636D01*
X179341268Y-70600672D01*
X179417339Y-70618910D01*
X179464918Y-70642505D01*
X179513702Y-70680198D01*
X179549364Y-70722855D01*
X179573845Y-70777057D01*
X179589087Y-70849384D01*
X179597030Y-70946419D01*
X179599616Y-71074742D01*
X179599662Y-71099358D01*
X179599692Y-71375870D01*
X179538161Y-71397320D01*
X179494459Y-71411912D01*
X179470482Y-71418706D01*
X179469777Y-71418769D01*
X179467415Y-71400345D01*
X179465406Y-71349526D01*
X179463901Y-71272993D01*
X179463053Y-71177430D01*
X179462923Y-71119329D01*
X179462651Y-71004771D01*
X179461252Y-70922667D01*
X179457849Y-70866393D01*
X179451567Y-70829326D01*
X179441529Y-70804844D01*
X179426861Y-70786325D01*
X179417702Y-70777406D01*
X179354789Y-70741466D01*
X179286136Y-70738775D01*
X179223848Y-70769170D01*
X179212329Y-70780144D01*
X179195433Y-70800779D01*
X179183714Y-70825256D01*
X179176233Y-70860647D01*
X179172054Y-70914026D01*
X179170237Y-70992466D01*
X179169846Y-71100617D01*
X179169846Y-71375870D01*
X179108315Y-71397320D01*
X179064613Y-71411912D01*
X179040636Y-71418706D01*
X179039930Y-71418769D01*
X179038126Y-71400069D01*
X179036500Y-71347322D01*
X179035117Y-71265557D01*
X179034042Y-71159805D01*
X179033340Y-71035094D01*
X179033077Y-70896455D01*
X179033077Y-70361806D01*
X179160077Y-70308236D01*
X179169846Y-70472120D01*
G37*
X179169846Y-70472120D02*
X179175572Y-70551980D01*
X179182149Y-70599039D01*
X179191262Y-70619566D01*
X179204598Y-70619829D01*
X179208923Y-70617378D01*
X179266444Y-70599636D01*
X179341268Y-70600672D01*
X179417339Y-70618910D01*
X179464918Y-70642505D01*
X179513702Y-70680198D01*
X179549364Y-70722855D01*
X179573845Y-70777057D01*
X179589087Y-70849384D01*
X179597030Y-70946419D01*
X179599616Y-71074742D01*
X179599662Y-71099358D01*
X179599692Y-71375870D01*
X179538161Y-71397320D01*
X179494459Y-71411912D01*
X179470482Y-71418706D01*
X179469777Y-71418769D01*
X179467415Y-71400345D01*
X179465406Y-71349526D01*
X179463901Y-71272993D01*
X179463053Y-71177430D01*
X179462923Y-71119329D01*
X179462651Y-71004771D01*
X179461252Y-70922667D01*
X179457849Y-70866393D01*
X179451567Y-70829326D01*
X179441529Y-70804844D01*
X179426861Y-70786325D01*
X179417702Y-70777406D01*
X179354789Y-70741466D01*
X179286136Y-70738775D01*
X179223848Y-70769170D01*
X179212329Y-70780144D01*
X179195433Y-70800779D01*
X179183714Y-70825256D01*
X179176233Y-70860647D01*
X179172054Y-70914026D01*
X179170237Y-70992466D01*
X179169846Y-71100617D01*
X179169846Y-71375870D01*
X179108315Y-71397320D01*
X179064613Y-71411912D01*
X179040636Y-71418706D01*
X179039930Y-71418769D01*
X179038126Y-71400069D01*
X179036500Y-71347322D01*
X179035117Y-71265557D01*
X179034042Y-71159805D01*
X179033340Y-71035094D01*
X179033077Y-70896455D01*
X179033077Y-70361806D01*
X179160077Y-70308236D01*
X179169846Y-70472120D01*
G36*
X180149878Y-64267776D02*
G01*
X180255612Y-64268355D01*
X180332132Y-64269922D01*
X180384372Y-64272972D01*
X180417263Y-64277996D01*
X180435737Y-64285489D01*
X180444727Y-64295944D01*
X180449163Y-64309853D01*
X180449594Y-64311654D01*
X180456333Y-64344145D01*
X180468808Y-64408252D01*
X180485719Y-64497151D01*
X180505771Y-64604019D01*
X180527664Y-64722033D01*
X180528429Y-64726178D01*
X180550359Y-64841831D01*
X180570877Y-64944014D01*
X180588659Y-65026598D01*
X180602381Y-65083456D01*
X180610718Y-65108458D01*
X180611116Y-65108901D01*
X180635677Y-65121110D01*
X180686315Y-65141456D01*
X180752095Y-65165545D01*
X180752461Y-65165674D01*
X180835317Y-65196818D01*
X180933000Y-65236491D01*
X181025077Y-65276381D01*
X181029434Y-65278353D01*
X181179407Y-65346420D01*
X181511498Y-65119639D01*
X181613374Y-65050504D01*
X181705657Y-64988697D01*
X181783003Y-64937733D01*
X181840064Y-64901127D01*
X181871495Y-64882394D01*
X181874479Y-64881004D01*
X181897321Y-64887190D01*
X181939982Y-64917035D01*
X182004128Y-64971947D01*
X182091421Y-65053334D01*
X182180535Y-65139922D01*
X182266441Y-65225247D01*
X182343327Y-65303108D01*
X182406564Y-65368697D01*
X182451523Y-65417205D01*
X182473576Y-65443825D01*
X182474396Y-65445195D01*
X182476834Y-65463463D01*
X182467650Y-65493295D01*
X182444574Y-65538721D01*
X182405337Y-65603770D01*
X182347670Y-65692470D01*
X182270795Y-65806657D01*
X182202570Y-65907162D01*
X182141582Y-65997303D01*
X182091356Y-66071849D01*
X182055416Y-66125565D01*
X182037287Y-66153218D01*
X182036146Y-66155095D01*
X182038359Y-66181590D01*
X182055138Y-66233086D01*
X182083142Y-66299851D01*
X182093122Y-66321172D01*
X182136672Y-66416159D01*
X182183134Y-66523937D01*
X182220877Y-66617192D01*
X182248073Y-66686406D01*
X182269675Y-66739006D01*
X182282158Y-66766497D01*
X182283709Y-66768616D01*
X182306668Y-66772124D01*
X182360786Y-66781738D01*
X182438868Y-66796089D01*
X182533719Y-66813807D01*
X182638143Y-66833525D01*
X182744944Y-66853874D01*
X182846926Y-66873486D01*
X182936894Y-66890991D01*
X183007653Y-66905022D01*
X183052006Y-66914209D01*
X183062885Y-66916807D01*
X183074122Y-66923218D01*
X183082605Y-66937697D01*
X183088714Y-66965133D01*
X183092832Y-67010411D01*
X183095341Y-67078420D01*
X183096621Y-67174047D01*
X183097054Y-67302180D01*
X183097077Y-67354701D01*
X183097077Y-67781845D01*
X182994500Y-67802091D01*
X182937431Y-67813070D01*
X182852269Y-67829095D01*
X182749372Y-67848233D01*
X182639096Y-67868551D01*
X182608615Y-67874132D01*
X182506855Y-67893917D01*
X182418205Y-67913373D01*
X182350108Y-67930697D01*
X182310004Y-67944088D01*
X182303323Y-67948079D01*
X182286919Y-67976342D01*
X182263399Y-68031109D01*
X182237316Y-68101588D01*
X182232142Y-68116769D01*
X182197956Y-68210896D01*
X182155523Y-68317101D01*
X182113997Y-68412473D01*
X182113792Y-68412916D01*
X182044640Y-68562525D01*
X182499512Y-69231617D01*
X182207500Y-69524116D01*
X182119180Y-69611170D01*
X182038625Y-69687909D01*
X181970360Y-69750237D01*
X181918908Y-69794056D01*
X181888794Y-69815270D01*
X181884474Y-69816616D01*
X181859111Y-69806016D01*
X181807358Y-69776547D01*
X181734868Y-69731705D01*
X181647294Y-69674984D01*
X181552612Y-69611462D01*
X181456516Y-69546668D01*
X181370837Y-69490287D01*
X181301016Y-69445788D01*
X181252494Y-69416639D01*
X181230782Y-69406308D01*
X181204293Y-69415050D01*
X181154062Y-69438087D01*
X181090451Y-69470631D01*
X181083708Y-69474249D01*
X180998046Y-69517210D01*
X180939306Y-69538279D01*
X180902772Y-69538503D01*
X180883731Y-69518928D01*
X180883620Y-69518654D01*
X180874102Y-69495472D01*
X180851403Y-69440441D01*
X180817282Y-69357822D01*
X180773500Y-69251872D01*
X180721816Y-69126852D01*
X180663992Y-68987020D01*
X180607991Y-68851637D01*
X180546447Y-68702234D01*
X180489939Y-68563832D01*
X180440161Y-68440673D01*
X180398806Y-68337002D01*
X180367568Y-68257059D01*
X180348141Y-68205088D01*
X180342154Y-68185692D01*
X180357168Y-68163443D01*
X180396439Y-68127982D01*
X180448807Y-68088887D01*
X180597941Y-67965245D01*
X180714511Y-67823522D01*
X180797118Y-67666704D01*
X180844366Y-67497775D01*
X180854857Y-67319722D01*
X180847231Y-67237539D01*
X180805682Y-67067031D01*
X180734123Y-66916459D01*
X180636995Y-66787309D01*
X180518734Y-66681064D01*
X180383780Y-66599210D01*
X180236571Y-66543232D01*
X180081544Y-66514615D01*
X179923139Y-66514844D01*
X179765794Y-66545405D01*
X179613946Y-66607782D01*
X179472035Y-66703460D01*
X179412803Y-66757572D01*
X179299203Y-66896520D01*
X179220106Y-67048361D01*
X179174986Y-67208667D01*
X179163316Y-67373012D01*
X179184569Y-67536971D01*
X179238220Y-67696118D01*
X179323740Y-67846025D01*
X179440605Y-67982267D01*
X179571193Y-68088887D01*
X179625588Y-68129642D01*
X179664014Y-68164718D01*
X179677846Y-68185726D01*
X179670603Y-68208635D01*
X179650005Y-68263365D01*
X179617746Y-68345672D01*
X179575521Y-68451315D01*
X179525023Y-68576050D01*
X179467948Y-68715636D01*
X179411854Y-68851670D01*
X179349967Y-69001201D01*
X179292644Y-69139767D01*
X179241644Y-69263107D01*
X179198727Y-69366964D01*
X179165653Y-69447080D01*
X179144181Y-69499195D01*
X179136225Y-69518654D01*
X179117429Y-69538423D01*
X179081074Y-69538365D01*
X179022479Y-69517441D01*
X178936968Y-69474613D01*
X178936292Y-69474249D01*
X178871907Y-69441012D01*
X178819861Y-69416802D01*
X178790512Y-69406404D01*
X178789217Y-69406308D01*
X178767124Y-69416855D01*
X178718348Y-69446184D01*
X178648331Y-69490827D01*
X178562514Y-69547314D01*
X178467388Y-69611462D01*
X178370540Y-69676411D01*
X178283253Y-69732896D01*
X178211181Y-69777421D01*
X178159977Y-69806490D01*
X178135526Y-69816616D01*
X178113010Y-69803307D01*
X178067742Y-69766112D01*
X178004244Y-69709128D01*
X177927039Y-69636449D01*
X177840651Y-69552171D01*
X177812399Y-69524016D01*
X177520287Y-69231416D01*
X177742631Y-68905104D01*
X177810202Y-68804897D01*
X177869507Y-68714963D01*
X177917217Y-68640510D01*
X177950007Y-68586751D01*
X177964548Y-68558894D01*
X177964974Y-68556912D01*
X177957308Y-68530655D01*
X177936689Y-68477837D01*
X177906685Y-68407310D01*
X177885625Y-68360093D01*
X177846248Y-68269694D01*
X177809165Y-68178366D01*
X177780415Y-68101200D01*
X177772605Y-68077692D01*
X177750417Y-68014916D01*
X177728727Y-67966411D01*
X177716813Y-67948079D01*
X177690523Y-67936859D01*
X177633142Y-67920954D01*
X177552118Y-67902167D01*
X177454895Y-67882299D01*
X177411385Y-67874132D01*
X177300896Y-67853829D01*
X177194916Y-67834170D01*
X177103801Y-67817088D01*
X177037908Y-67804518D01*
X177025500Y-67802091D01*
X176922923Y-67781845D01*
X176922923Y-67354701D01*
X176923153Y-67214246D01*
X176924099Y-67107979D01*
X176926141Y-67031013D01*
X176929662Y-66978460D01*
X176935043Y-66945433D01*
X176942666Y-66927045D01*
X176952912Y-66918408D01*
X176957115Y-66916807D01*
X176982470Y-66911127D01*
X177038484Y-66899795D01*
X177117964Y-66884179D01*
X177213712Y-66865647D01*
X177318533Y-66845569D01*
X177425232Y-66825312D01*
X177526613Y-66806246D01*
X177615479Y-66789739D01*
X177684637Y-66777159D01*
X177726889Y-66769875D01*
X177736290Y-66768616D01*
X177744807Y-66751763D01*
X177763660Y-66706870D01*
X177789324Y-66642430D01*
X177799123Y-66617192D01*
X177838648Y-66519686D01*
X177885192Y-66411959D01*
X177926877Y-66321172D01*
X177957550Y-66251753D01*
X177977956Y-66194710D01*
X177984768Y-66159777D01*
X177983682Y-66155095D01*
X177969285Y-66132991D01*
X177936412Y-66083831D01*
X177888590Y-66012848D01*
X177829348Y-65925278D01*
X177762215Y-65826357D01*
X177748941Y-65806830D01*
X177671046Y-65691140D01*
X177613787Y-65603044D01*
X177574881Y-65538486D01*
X177552044Y-65493411D01*
X177542994Y-65463763D01*
X177545448Y-65445485D01*
X177545511Y-65445369D01*
X177564827Y-65421361D01*
X177607551Y-65374947D01*
X177669051Y-65310937D01*
X177744698Y-65234145D01*
X177829861Y-65149382D01*
X177839465Y-65139922D01*
X177946790Y-65035989D01*
X178029615Y-64959675D01*
X178089605Y-64909571D01*
X178128423Y-64884270D01*
X178145520Y-64881004D01*
X178170473Y-64895250D01*
X178222255Y-64928156D01*
X178295520Y-64976208D01*
X178384920Y-65035890D01*
X178485111Y-65103688D01*
X178508501Y-65119639D01*
X178840593Y-65346420D01*
X178990565Y-65278353D01*
X179081770Y-65238685D01*
X179179669Y-65198791D01*
X179263831Y-65166983D01*
X179267538Y-65165674D01*
X179333369Y-65141576D01*
X179384116Y-65121200D01*
X179408842Y-65108936D01*
X179408884Y-65108901D01*
X179416729Y-65086734D01*
X179430066Y-65032217D01*
X179447570Y-64951480D01*
X179467917Y-64850650D01*
X179489782Y-64735856D01*
X179491571Y-64726178D01*
X179513504Y-64607904D01*
X179533640Y-64500542D01*
X179550680Y-64410917D01*
X179563328Y-64345851D01*
X179570284Y-64312168D01*
X179570406Y-64311654D01*
X179574639Y-64297325D01*
X179582871Y-64286507D01*
X179600033Y-64278706D01*
X179631058Y-64273429D01*
X179680878Y-64270182D01*
X179754424Y-64268472D01*
X179856629Y-64267807D01*
X179992425Y-64267693D01*
X180010000Y-64267692D01*
X180149878Y-64267776D01*
G37*
X180149878Y-64267776D02*
X180255612Y-64268355D01*
X180332132Y-64269922D01*
X180384372Y-64272972D01*
X180417263Y-64277996D01*
X180435737Y-64285489D01*
X180444727Y-64295944D01*
X180449163Y-64309853D01*
X180449594Y-64311654D01*
X180456333Y-64344145D01*
X180468808Y-64408252D01*
X180485719Y-64497151D01*
X180505771Y-64604019D01*
X180527664Y-64722033D01*
X180528429Y-64726178D01*
X180550359Y-64841831D01*
X180570877Y-64944014D01*
X180588659Y-65026598D01*
X180602381Y-65083456D01*
X180610718Y-65108458D01*
X180611116Y-65108901D01*
X180635677Y-65121110D01*
X180686315Y-65141456D01*
X180752095Y-65165545D01*
X180752461Y-65165674D01*
X180835317Y-65196818D01*
X180933000Y-65236491D01*
X181025077Y-65276381D01*
X181029434Y-65278353D01*
X181179407Y-65346420D01*
X181511498Y-65119639D01*
X181613374Y-65050504D01*
X181705657Y-64988697D01*
X181783003Y-64937733D01*
X181840064Y-64901127D01*
X181871495Y-64882394D01*
X181874479Y-64881004D01*
X181897321Y-64887190D01*
X181939982Y-64917035D01*
X182004128Y-64971947D01*
X182091421Y-65053334D01*
X182180535Y-65139922D01*
X182266441Y-65225247D01*
X182343327Y-65303108D01*
X182406564Y-65368697D01*
X182451523Y-65417205D01*
X182473576Y-65443825D01*
X182474396Y-65445195D01*
X182476834Y-65463463D01*
X182467650Y-65493295D01*
X182444574Y-65538721D01*
X182405337Y-65603770D01*
X182347670Y-65692470D01*
X182270795Y-65806657D01*
X182202570Y-65907162D01*
X182141582Y-65997303D01*
X182091356Y-66071849D01*
X182055416Y-66125565D01*
X182037287Y-66153218D01*
X182036146Y-66155095D01*
X182038359Y-66181590D01*
X182055138Y-66233086D01*
X182083142Y-66299851D01*
X182093122Y-66321172D01*
X182136672Y-66416159D01*
X182183134Y-66523937D01*
X182220877Y-66617192D01*
X182248073Y-66686406D01*
X182269675Y-66739006D01*
X182282158Y-66766497D01*
X182283709Y-66768616D01*
X182306668Y-66772124D01*
X182360786Y-66781738D01*
X182438868Y-66796089D01*
X182533719Y-66813807D01*
X182638143Y-66833525D01*
X182744944Y-66853874D01*
X182846926Y-66873486D01*
X182936894Y-66890991D01*
X183007653Y-66905022D01*
X183052006Y-66914209D01*
X183062885Y-66916807D01*
X183074122Y-66923218D01*
X183082605Y-66937697D01*
X183088714Y-66965133D01*
X183092832Y-67010411D01*
X183095341Y-67078420D01*
X183096621Y-67174047D01*
X183097054Y-67302180D01*
X183097077Y-67354701D01*
X183097077Y-67781845D01*
X182994500Y-67802091D01*
X182937431Y-67813070D01*
X182852269Y-67829095D01*
X182749372Y-67848233D01*
X182639096Y-67868551D01*
X182608615Y-67874132D01*
X182506855Y-67893917D01*
X182418205Y-67913373D01*
X182350108Y-67930697D01*
X182310004Y-67944088D01*
X182303323Y-67948079D01*
X182286919Y-67976342D01*
X182263399Y-68031109D01*
X182237316Y-68101588D01*
X182232142Y-68116769D01*
X182197956Y-68210896D01*
X182155523Y-68317101D01*
X182113997Y-68412473D01*
X182113792Y-68412916D01*
X182044640Y-68562525D01*
X182499512Y-69231617D01*
X182207500Y-69524116D01*
X182119180Y-69611170D01*
X182038625Y-69687909D01*
X181970360Y-69750237D01*
X181918908Y-69794056D01*
X181888794Y-69815270D01*
X181884474Y-69816616D01*
X181859111Y-69806016D01*
X181807358Y-69776547D01*
X181734868Y-69731705D01*
X181647294Y-69674984D01*
X181552612Y-69611462D01*
X181456516Y-69546668D01*
X181370837Y-69490287D01*
X181301016Y-69445788D01*
X181252494Y-69416639D01*
X181230782Y-69406308D01*
X181204293Y-69415050D01*
X181154062Y-69438087D01*
X181090451Y-69470631D01*
X181083708Y-69474249D01*
X180998046Y-69517210D01*
X180939306Y-69538279D01*
X180902772Y-69538503D01*
X180883731Y-69518928D01*
X180883620Y-69518654D01*
X180874102Y-69495472D01*
X180851403Y-69440441D01*
X180817282Y-69357822D01*
X180773500Y-69251872D01*
X180721816Y-69126852D01*
X180663992Y-68987020D01*
X180607991Y-68851637D01*
X180546447Y-68702234D01*
X180489939Y-68563832D01*
X180440161Y-68440673D01*
X180398806Y-68337002D01*
X180367568Y-68257059D01*
X180348141Y-68205088D01*
X180342154Y-68185692D01*
X180357168Y-68163443D01*
X180396439Y-68127982D01*
X180448807Y-68088887D01*
X180597941Y-67965245D01*
X180714511Y-67823522D01*
X180797118Y-67666704D01*
X180844366Y-67497775D01*
X180854857Y-67319722D01*
X180847231Y-67237539D01*
X180805682Y-67067031D01*
X180734123Y-66916459D01*
X180636995Y-66787309D01*
X180518734Y-66681064D01*
X180383780Y-66599210D01*
X180236571Y-66543232D01*
X180081544Y-66514615D01*
X179923139Y-66514844D01*
X179765794Y-66545405D01*
X179613946Y-66607782D01*
X179472035Y-66703460D01*
X179412803Y-66757572D01*
X179299203Y-66896520D01*
X179220106Y-67048361D01*
X179174986Y-67208667D01*
X179163316Y-67373012D01*
X179184569Y-67536971D01*
X179238220Y-67696118D01*
X179323740Y-67846025D01*
X179440605Y-67982267D01*
X179571193Y-68088887D01*
X179625588Y-68129642D01*
X179664014Y-68164718D01*
X179677846Y-68185726D01*
X179670603Y-68208635D01*
X179650005Y-68263365D01*
X179617746Y-68345672D01*
X179575521Y-68451315D01*
X179525023Y-68576050D01*
X179467948Y-68715636D01*
X179411854Y-68851670D01*
X179349967Y-69001201D01*
X179292644Y-69139767D01*
X179241644Y-69263107D01*
X179198727Y-69366964D01*
X179165653Y-69447080D01*
X179144181Y-69499195D01*
X179136225Y-69518654D01*
X179117429Y-69538423D01*
X179081074Y-69538365D01*
X179022479Y-69517441D01*
X178936968Y-69474613D01*
X178936292Y-69474249D01*
X178871907Y-69441012D01*
X178819861Y-69416802D01*
X178790512Y-69406404D01*
X178789217Y-69406308D01*
X178767124Y-69416855D01*
X178718348Y-69446184D01*
X178648331Y-69490827D01*
X178562514Y-69547314D01*
X178467388Y-69611462D01*
X178370540Y-69676411D01*
X178283253Y-69732896D01*
X178211181Y-69777421D01*
X178159977Y-69806490D01*
X178135526Y-69816616D01*
X178113010Y-69803307D01*
X178067742Y-69766112D01*
X178004244Y-69709128D01*
X177927039Y-69636449D01*
X177840651Y-69552171D01*
X177812399Y-69524016D01*
X177520287Y-69231416D01*
X177742631Y-68905104D01*
X177810202Y-68804897D01*
X177869507Y-68714963D01*
X177917217Y-68640510D01*
X177950007Y-68586751D01*
X177964548Y-68558894D01*
X177964974Y-68556912D01*
X177957308Y-68530655D01*
X177936689Y-68477837D01*
X177906685Y-68407310D01*
X177885625Y-68360093D01*
X177846248Y-68269694D01*
X177809165Y-68178366D01*
X177780415Y-68101200D01*
X177772605Y-68077692D01*
X177750417Y-68014916D01*
X177728727Y-67966411D01*
X177716813Y-67948079D01*
X177690523Y-67936859D01*
X177633142Y-67920954D01*
X177552118Y-67902167D01*
X177454895Y-67882299D01*
X177411385Y-67874132D01*
X177300896Y-67853829D01*
X177194916Y-67834170D01*
X177103801Y-67817088D01*
X177037908Y-67804518D01*
X177025500Y-67802091D01*
X176922923Y-67781845D01*
X176922923Y-67354701D01*
X176923153Y-67214246D01*
X176924099Y-67107979D01*
X176926141Y-67031013D01*
X176929662Y-66978460D01*
X176935043Y-66945433D01*
X176942666Y-66927045D01*
X176952912Y-66918408D01*
X176957115Y-66916807D01*
X176982470Y-66911127D01*
X177038484Y-66899795D01*
X177117964Y-66884179D01*
X177213712Y-66865647D01*
X177318533Y-66845569D01*
X177425232Y-66825312D01*
X177526613Y-66806246D01*
X177615479Y-66789739D01*
X177684637Y-66777159D01*
X177726889Y-66769875D01*
X177736290Y-66768616D01*
X177744807Y-66751763D01*
X177763660Y-66706870D01*
X177789324Y-66642430D01*
X177799123Y-66617192D01*
X177838648Y-66519686D01*
X177885192Y-66411959D01*
X177926877Y-66321172D01*
X177957550Y-66251753D01*
X177977956Y-66194710D01*
X177984768Y-66159777D01*
X177983682Y-66155095D01*
X177969285Y-66132991D01*
X177936412Y-66083831D01*
X177888590Y-66012848D01*
X177829348Y-65925278D01*
X177762215Y-65826357D01*
X177748941Y-65806830D01*
X177671046Y-65691140D01*
X177613787Y-65603044D01*
X177574881Y-65538486D01*
X177552044Y-65493411D01*
X177542994Y-65463763D01*
X177545448Y-65445485D01*
X177545511Y-65445369D01*
X177564827Y-65421361D01*
X177607551Y-65374947D01*
X177669051Y-65310937D01*
X177744698Y-65234145D01*
X177829861Y-65149382D01*
X177839465Y-65139922D01*
X177946790Y-65035989D01*
X178029615Y-64959675D01*
X178089605Y-64909571D01*
X178128423Y-64884270D01*
X178145520Y-64881004D01*
X178170473Y-64895250D01*
X178222255Y-64928156D01*
X178295520Y-64976208D01*
X178384920Y-65035890D01*
X178485111Y-65103688D01*
X178508501Y-65119639D01*
X178840593Y-65346420D01*
X178990565Y-65278353D01*
X179081770Y-65238685D01*
X179179669Y-65198791D01*
X179263831Y-65166983D01*
X179267538Y-65165674D01*
X179333369Y-65141576D01*
X179384116Y-65121200D01*
X179408842Y-65108936D01*
X179408884Y-65108901D01*
X179416729Y-65086734D01*
X179430066Y-65032217D01*
X179447570Y-64951480D01*
X179467917Y-64850650D01*
X179489782Y-64735856D01*
X179491571Y-64726178D01*
X179513504Y-64607904D01*
X179533640Y-64500542D01*
X179550680Y-64410917D01*
X179563328Y-64345851D01*
X179570284Y-64312168D01*
X179570406Y-64311654D01*
X179574639Y-64297325D01*
X179582871Y-64286507D01*
X179600033Y-64278706D01*
X179631058Y-64273429D01*
X179680878Y-64270182D01*
X179754424Y-64268472D01*
X179856629Y-64267807D01*
X179992425Y-64267693D01*
X180010000Y-64267692D01*
X180149878Y-64267776D01*
G36*
X180063501Y-70606303D02*
G01*
X180140060Y-70634733D01*
X180140936Y-70635279D01*
X180188285Y-70670127D01*
X180223241Y-70710852D01*
X180247825Y-70763925D01*
X180264062Y-70835814D01*
X180273975Y-70932992D01*
X180279586Y-71061928D01*
X180280077Y-71080298D01*
X180287141Y-71357287D01*
X180227695Y-71388028D01*
X180184681Y-71408802D01*
X180158710Y-71418646D01*
X180157509Y-71418769D01*
X180153014Y-71400606D01*
X180149444Y-71351612D01*
X180147248Y-71280031D01*
X180146769Y-71222068D01*
X180146758Y-71128170D01*
X180142466Y-71069203D01*
X180127503Y-71041079D01*
X180095482Y-71039706D01*
X180040014Y-71060998D01*
X179956269Y-71100136D01*
X179894689Y-71132643D01*
X179863017Y-71160845D01*
X179853706Y-71191582D01*
X179853692Y-71193104D01*
X179869057Y-71246054D01*
X179914547Y-71274660D01*
X179984166Y-71278803D01*
X180034313Y-71278084D01*
X180060754Y-71292527D01*
X180077243Y-71327218D01*
X180086733Y-71371416D01*
X180073057Y-71396493D01*
X180067907Y-71400082D01*
X180019425Y-71414496D01*
X179951531Y-71416537D01*
X179881612Y-71406983D01*
X179832068Y-71389522D01*
X179763570Y-71331364D01*
X179724634Y-71250408D01*
X179716923Y-71187160D01*
X179722807Y-71130111D01*
X179744101Y-71083542D01*
X179786265Y-71042181D01*
X179854759Y-71000755D01*
X179955044Y-70953993D01*
X179961154Y-70951350D01*
X180051490Y-70909617D01*
X180107235Y-70875391D01*
X180131129Y-70844635D01*
X180125913Y-70813311D01*
X180094328Y-70777383D01*
X180084883Y-70769116D01*
X180021617Y-70737058D01*
X179956064Y-70738407D01*
X179898972Y-70769838D01*
X179861093Y-70828024D01*
X179857574Y-70839446D01*
X179823300Y-70894837D01*
X179779809Y-70921518D01*
X179716923Y-70947960D01*
X179716923Y-70879548D01*
X179736052Y-70780110D01*
X179792831Y-70688902D01*
X179822378Y-70658389D01*
X179889542Y-70619228D01*
X179974956Y-70601500D01*
X180063501Y-70606303D01*
G37*
X180063501Y-70606303D02*
X180140060Y-70634733D01*
X180140936Y-70635279D01*
X180188285Y-70670127D01*
X180223241Y-70710852D01*
X180247825Y-70763925D01*
X180264062Y-70835814D01*
X180273975Y-70932992D01*
X180279586Y-71061928D01*
X180280077Y-71080298D01*
X180287141Y-71357287D01*
X180227695Y-71388028D01*
X180184681Y-71408802D01*
X180158710Y-71418646D01*
X180157509Y-71418769D01*
X180153014Y-71400606D01*
X180149444Y-71351612D01*
X180147248Y-71280031D01*
X180146769Y-71222068D01*
X180146758Y-71128170D01*
X180142466Y-71069203D01*
X180127503Y-71041079D01*
X180095482Y-71039706D01*
X180040014Y-71060998D01*
X179956269Y-71100136D01*
X179894689Y-71132643D01*
X179863017Y-71160845D01*
X179853706Y-71191582D01*
X179853692Y-71193104D01*
X179869057Y-71246054D01*
X179914547Y-71274660D01*
X179984166Y-71278803D01*
X180034313Y-71278084D01*
X180060754Y-71292527D01*
X180077243Y-71327218D01*
X180086733Y-71371416D01*
X180073057Y-71396493D01*
X180067907Y-71400082D01*
X180019425Y-71414496D01*
X179951531Y-71416537D01*
X179881612Y-71406983D01*
X179832068Y-71389522D01*
X179763570Y-71331364D01*
X179724634Y-71250408D01*
X179716923Y-71187160D01*
X179722807Y-71130111D01*
X179744101Y-71083542D01*
X179786265Y-71042181D01*
X179854759Y-71000755D01*
X179955044Y-70953993D01*
X179961154Y-70951350D01*
X180051490Y-70909617D01*
X180107235Y-70875391D01*
X180131129Y-70844635D01*
X180125913Y-70813311D01*
X180094328Y-70777383D01*
X180084883Y-70769116D01*
X180021617Y-70737058D01*
X179956064Y-70738407D01*
X179898972Y-70769838D01*
X179861093Y-70828024D01*
X179857574Y-70839446D01*
X179823300Y-70894837D01*
X179779809Y-70921518D01*
X179716923Y-70947960D01*
X179716923Y-70879548D01*
X179736052Y-70780110D01*
X179792831Y-70688902D01*
X179822378Y-70658389D01*
X179889542Y-70619228D01*
X179974956Y-70601500D01*
X180063501Y-70606303D01*
G36*
X180723362Y-70604670D02*
G01*
X180812117Y-70637421D01*
X180884022Y-70695350D01*
X180912144Y-70736128D01*
X180942802Y-70810954D01*
X180942165Y-70865058D01*
X180909987Y-70901446D01*
X180898081Y-70907633D01*
X180846675Y-70926925D01*
X180820422Y-70921982D01*
X180811530Y-70889587D01*
X180811077Y-70871692D01*
X180794797Y-70805859D01*
X180752365Y-70759807D01*
X180693388Y-70737564D01*
X180627475Y-70743161D01*
X180573895Y-70772229D01*
X180555798Y-70788810D01*
X180542971Y-70808925D01*
X180534306Y-70839332D01*
X180528696Y-70886788D01*
X180525035Y-70958050D01*
X180522215Y-71059875D01*
X180521484Y-71092115D01*
X180518820Y-71202410D01*
X180515792Y-71280036D01*
X180511250Y-71331396D01*
X180504046Y-71362890D01*
X180493033Y-71380920D01*
X180477060Y-71391888D01*
X180466834Y-71396733D01*
X180423406Y-71413301D01*
X180397842Y-71418769D01*
X180389395Y-71400507D01*
X180384239Y-71345296D01*
X180382346Y-71252499D01*
X180383689Y-71121478D01*
X180384107Y-71101269D01*
X180387058Y-70981733D01*
X180390548Y-70894449D01*
X180395514Y-70832591D01*
X180402893Y-70789336D01*
X180413624Y-70757860D01*
X180428645Y-70731339D01*
X180436502Y-70719975D01*
X180481553Y-70669692D01*
X180531940Y-70630581D01*
X180538108Y-70627167D01*
X180628458Y-70600212D01*
X180723362Y-70604670D01*
G37*
X180723362Y-70604670D02*
X180812117Y-70637421D01*
X180884022Y-70695350D01*
X180912144Y-70736128D01*
X180942802Y-70810954D01*
X180942165Y-70865058D01*
X180909987Y-70901446D01*
X180898081Y-70907633D01*
X180846675Y-70926925D01*
X180820422Y-70921982D01*
X180811530Y-70889587D01*
X180811077Y-70871692D01*
X180794797Y-70805859D01*
X180752365Y-70759807D01*
X180693388Y-70737564D01*
X180627475Y-70743161D01*
X180573895Y-70772229D01*
X180555798Y-70788810D01*
X180542971Y-70808925D01*
X180534306Y-70839332D01*
X180528696Y-70886788D01*
X180525035Y-70958050D01*
X180522215Y-71059875D01*
X180521484Y-71092115D01*
X180518820Y-71202410D01*
X180515792Y-71280036D01*
X180511250Y-71331396D01*
X180504046Y-71362890D01*
X180493033Y-71380920D01*
X180477060Y-71391888D01*
X180466834Y-71396733D01*
X180423406Y-71413301D01*
X180397842Y-71418769D01*
X180389395Y-71400507D01*
X180384239Y-71345296D01*
X180382346Y-71252499D01*
X180383689Y-71121478D01*
X180384107Y-71101269D01*
X180387058Y-70981733D01*
X180390548Y-70894449D01*
X180395514Y-70832591D01*
X180402893Y-70789336D01*
X180413624Y-70757860D01*
X180428645Y-70731339D01*
X180436502Y-70719975D01*
X180481553Y-70669692D01*
X180531940Y-70630581D01*
X180538108Y-70627167D01*
X180628458Y-70600212D01*
X180723362Y-70604670D01*
G36*
X182897333Y-70613528D02*
G01*
X182953590Y-70639117D01*
X182997747Y-70670124D01*
X183030101Y-70704795D01*
X183052438Y-70749520D01*
X183066546Y-70810692D01*
X183074211Y-70894701D01*
X183077220Y-71007940D01*
X183077538Y-71082509D01*
X183077538Y-71373420D01*
X183027773Y-71396095D01*
X182988576Y-71412667D01*
X182969157Y-71418769D01*
X182965442Y-71400610D01*
X182962495Y-71351648D01*
X182960691Y-71280153D01*
X182960308Y-71223385D01*
X182958661Y-71141371D01*
X182954222Y-71076309D01*
X182947740Y-71036467D01*
X182942590Y-71028000D01*
X182907977Y-71036646D01*
X182853640Y-71058823D01*
X182790722Y-71088886D01*
X182730368Y-71121192D01*
X182683721Y-71150098D01*
X182661926Y-71169961D01*
X182661839Y-71170175D01*
X182663714Y-71206935D01*
X182680525Y-71242026D01*
X182710039Y-71270528D01*
X182753116Y-71280061D01*
X182789932Y-71278950D01*
X182842074Y-71278133D01*
X182869444Y-71290349D01*
X182885882Y-71322624D01*
X182887955Y-71328710D01*
X182895081Y-71374739D01*
X182876024Y-71402687D01*
X182826353Y-71416007D01*
X182772697Y-71418470D01*
X182676142Y-71400210D01*
X182626159Y-71374131D01*
X182564429Y-71312868D01*
X182531690Y-71237670D01*
X182528753Y-71158211D01*
X182556424Y-71084167D01*
X182598047Y-71037769D01*
X182639604Y-71011793D01*
X182704922Y-70978907D01*
X182781038Y-70945557D01*
X182793726Y-70940461D01*
X182877333Y-70903565D01*
X182925530Y-70871046D01*
X182941030Y-70838718D01*
X182926550Y-70802394D01*
X182901692Y-70774000D01*
X182842939Y-70739039D01*
X182778293Y-70736417D01*
X182719008Y-70763358D01*
X182676339Y-70817088D01*
X182670739Y-70830950D01*
X182638133Y-70881936D01*
X182590530Y-70919787D01*
X182530461Y-70950850D01*
X182530461Y-70862768D01*
X182533997Y-70808951D01*
X182549156Y-70766534D01*
X182582768Y-70721279D01*
X182615035Y-70686420D01*
X182665209Y-70637062D01*
X182704193Y-70610547D01*
X182746064Y-70599911D01*
X182793460Y-70598154D01*
X182897333Y-70613528D01*
G37*
X182897333Y-70613528D02*
X182953590Y-70639117D01*
X182997747Y-70670124D01*
X183030101Y-70704795D01*
X183052438Y-70749520D01*
X183066546Y-70810692D01*
X183074211Y-70894701D01*
X183077220Y-71007940D01*
X183077538Y-71082509D01*
X183077538Y-71373420D01*
X183027773Y-71396095D01*
X182988576Y-71412667D01*
X182969157Y-71418769D01*
X182965442Y-71400610D01*
X182962495Y-71351648D01*
X182960691Y-71280153D01*
X182960308Y-71223385D01*
X182958661Y-71141371D01*
X182954222Y-71076309D01*
X182947740Y-71036467D01*
X182942590Y-71028000D01*
X182907977Y-71036646D01*
X182853640Y-71058823D01*
X182790722Y-71088886D01*
X182730368Y-71121192D01*
X182683721Y-71150098D01*
X182661926Y-71169961D01*
X182661839Y-71170175D01*
X182663714Y-71206935D01*
X182680525Y-71242026D01*
X182710039Y-71270528D01*
X182753116Y-71280061D01*
X182789932Y-71278950D01*
X182842074Y-71278133D01*
X182869444Y-71290349D01*
X182885882Y-71322624D01*
X182887955Y-71328710D01*
X182895081Y-71374739D01*
X182876024Y-71402687D01*
X182826353Y-71416007D01*
X182772697Y-71418470D01*
X182676142Y-71400210D01*
X182626159Y-71374131D01*
X182564429Y-71312868D01*
X182531690Y-71237670D01*
X182528753Y-71158211D01*
X182556424Y-71084167D01*
X182598047Y-71037769D01*
X182639604Y-71011793D01*
X182704922Y-70978907D01*
X182781038Y-70945557D01*
X182793726Y-70940461D01*
X182877333Y-70903565D01*
X182925530Y-70871046D01*
X182941030Y-70838718D01*
X182926550Y-70802394D01*
X182901692Y-70774000D01*
X182842939Y-70739039D01*
X182778293Y-70736417D01*
X182719008Y-70763358D01*
X182676339Y-70817088D01*
X182670739Y-70830950D01*
X182638133Y-70881936D01*
X182590530Y-70919787D01*
X182530461Y-70950850D01*
X182530461Y-70862768D01*
X182533997Y-70808951D01*
X182549156Y-70766534D01*
X182582768Y-70721279D01*
X182615035Y-70686420D01*
X182665209Y-70637062D01*
X182704193Y-70610547D01*
X182746064Y-70599911D01*
X182793460Y-70598154D01*
X182897333Y-70613528D01*
G36*
X182405929Y-70616662D02*
G01*
X182408911Y-70668068D01*
X182411247Y-70746192D01*
X182412749Y-70844857D01*
X182413231Y-70948343D01*
X182413231Y-71298533D01*
X182351401Y-71360363D01*
X182308793Y-71398462D01*
X182271390Y-71413895D01*
X182220270Y-71412918D01*
X182199978Y-71410433D01*
X182136554Y-71403200D01*
X182084095Y-71399055D01*
X182071308Y-71398672D01*
X182028199Y-71401176D01*
X181966544Y-71407462D01*
X181942638Y-71410433D01*
X181883922Y-71415028D01*
X181844464Y-71405046D01*
X181805338Y-71374228D01*
X181791215Y-71360363D01*
X181729385Y-71298533D01*
X181729385Y-70643503D01*
X181779150Y-70620829D01*
X181822002Y-70604034D01*
X181847073Y-70598154D01*
X181853501Y-70616736D01*
X181859509Y-70668655D01*
X181864697Y-70748172D01*
X181868664Y-70849546D01*
X181870577Y-70935192D01*
X181875923Y-71272231D01*
X181922560Y-71278825D01*
X181964976Y-71274214D01*
X181985760Y-71259287D01*
X181991570Y-71231377D01*
X181996530Y-71171925D01*
X182000246Y-71088466D01*
X182002324Y-70988532D01*
X182002624Y-70937104D01*
X182002923Y-70641054D01*
X182064454Y-70619604D01*
X182108004Y-70605020D01*
X182131694Y-70598219D01*
X182132377Y-70598154D01*
X182134754Y-70616642D01*
X182137366Y-70667906D01*
X182139995Y-70745649D01*
X182142421Y-70843574D01*
X182144115Y-70935192D01*
X182149461Y-71272231D01*
X182266692Y-71272231D01*
X182272072Y-70964746D01*
X182277451Y-70657261D01*
X182334601Y-70627707D01*
X182376797Y-70607413D01*
X182401770Y-70598204D01*
X182402491Y-70598154D01*
X182405929Y-70616662D01*
G37*
X182405929Y-70616662D02*
X182408911Y-70668068D01*
X182411247Y-70746192D01*
X182412749Y-70844857D01*
X182413231Y-70948343D01*
X182413231Y-71298533D01*
X182351401Y-71360363D01*
X182308793Y-71398462D01*
X182271390Y-71413895D01*
X182220270Y-71412918D01*
X182199978Y-71410433D01*
X182136554Y-71403200D01*
X182084095Y-71399055D01*
X182071308Y-71398672D01*
X182028199Y-71401176D01*
X181966544Y-71407462D01*
X181942638Y-71410433D01*
X181883922Y-71415028D01*
X181844464Y-71405046D01*
X181805338Y-71374228D01*
X181791215Y-71360363D01*
X181729385Y-71298533D01*
X181729385Y-70643503D01*
X181779150Y-70620829D01*
X181822002Y-70604034D01*
X181847073Y-70598154D01*
X181853501Y-70616736D01*
X181859509Y-70668655D01*
X181864697Y-70748172D01*
X181868664Y-70849546D01*
X181870577Y-70935192D01*
X181875923Y-71272231D01*
X181922560Y-71278825D01*
X181964976Y-71274214D01*
X181985760Y-71259287D01*
X181991570Y-71231377D01*
X181996530Y-71171925D01*
X182000246Y-71088466D01*
X182002324Y-70988532D01*
X182002624Y-70937104D01*
X182002923Y-70641054D01*
X182064454Y-70619604D01*
X182108004Y-70605020D01*
X182131694Y-70598219D01*
X182132377Y-70598154D01*
X182134754Y-70616642D01*
X182137366Y-70667906D01*
X182139995Y-70745649D01*
X182142421Y-70843574D01*
X182144115Y-70935192D01*
X182149461Y-71272231D01*
X182266692Y-71272231D01*
X182272072Y-70964746D01*
X182277451Y-70657261D01*
X182334601Y-70627707D01*
X182376797Y-70607413D01*
X182401770Y-70598204D01*
X182402491Y-70598154D01*
X182405929Y-70616662D01*
G36*
X175617629Y-70817906D02*
G01*
X175624322Y-70769163D01*
X175635960Y-70733288D01*
X175653853Y-70701548D01*
X175657808Y-70695648D01*
X175724267Y-70616104D01*
X175796685Y-70569929D01*
X175884849Y-70551599D01*
X175914787Y-70550703D01*
X176026886Y-70567256D01*
X176118464Y-70615409D01*
X176186049Y-70692905D01*
X176210057Y-70742727D01*
X176228738Y-70817533D01*
X176238301Y-70912052D01*
X176239208Y-71015210D01*
X176231921Y-71115935D01*
X176216903Y-71203153D01*
X176194615Y-71265791D01*
X176187765Y-71276579D01*
X176106632Y-71357105D01*
X176010266Y-71405336D01*
X175905701Y-71419450D01*
X175799968Y-71397629D01*
X175770543Y-71384547D01*
X175713241Y-71344231D01*
X175662950Y-71290775D01*
X175658197Y-71283995D01*
X175638878Y-71251321D01*
X175626108Y-71216394D01*
X175618564Y-71170414D01*
X175614924Y-71104584D01*
X175613865Y-71010105D01*
X175613846Y-70988923D01*
X175613894Y-70982182D01*
X175809231Y-70982182D01*
X175810368Y-71071349D01*
X175814841Y-71130520D01*
X175824246Y-71168741D01*
X175840176Y-71195053D01*
X175848308Y-71203846D01*
X175895058Y-71237261D01*
X175940447Y-71235737D01*
X175986340Y-71206752D01*
X176013712Y-71175809D01*
X176029923Y-71130643D01*
X176039026Y-71059420D01*
X176039651Y-71051114D01*
X176041204Y-70922037D01*
X176024965Y-70826172D01*
X175991152Y-70764107D01*
X175939984Y-70736432D01*
X175921720Y-70734923D01*
X175873760Y-70742513D01*
X175840953Y-70768808D01*
X175820895Y-70819095D01*
X175811178Y-70898664D01*
X175809231Y-70982182D01*
X175613894Y-70982182D01*
X175614574Y-70888249D01*
X175617629Y-70817906D01*
G37*
X175617629Y-70817906D02*
X175624322Y-70769163D01*
X175635960Y-70733288D01*
X175653853Y-70701548D01*
X175657808Y-70695648D01*
X175724267Y-70616104D01*
X175796685Y-70569929D01*
X175884849Y-70551599D01*
X175914787Y-70550703D01*
X176026886Y-70567256D01*
X176118464Y-70615409D01*
X176186049Y-70692905D01*
X176210057Y-70742727D01*
X176228738Y-70817533D01*
X176238301Y-70912052D01*
X176239208Y-71015210D01*
X176231921Y-71115935D01*
X176216903Y-71203153D01*
X176194615Y-71265791D01*
X176187765Y-71276579D01*
X176106632Y-71357105D01*
X176010266Y-71405336D01*
X175905701Y-71419450D01*
X175799968Y-71397629D01*
X175770543Y-71384547D01*
X175713241Y-71344231D01*
X175662950Y-71290775D01*
X175658197Y-71283995D01*
X175638878Y-71251321D01*
X175626108Y-71216394D01*
X175618564Y-71170414D01*
X175614924Y-71104584D01*
X175613865Y-71010105D01*
X175613846Y-70988923D01*
X175613894Y-70982182D01*
X175809231Y-70982182D01*
X175810368Y-71071349D01*
X175814841Y-71130520D01*
X175824246Y-71168741D01*
X175840176Y-71195053D01*
X175848308Y-71203846D01*
X175895058Y-71237261D01*
X175940447Y-71235737D01*
X175986340Y-71206752D01*
X176013712Y-71175809D01*
X176029923Y-71130643D01*
X176039026Y-71059420D01*
X176039651Y-71051114D01*
X176041204Y-70922037D01*
X176024965Y-70826172D01*
X175991152Y-70764107D01*
X175939984Y-70736432D01*
X175921720Y-70734923D01*
X175873760Y-70742513D01*
X175840953Y-70768808D01*
X175820895Y-70819095D01*
X175811178Y-70898664D01*
X175809231Y-70982182D01*
X175613894Y-70982182D01*
X175614574Y-70888249D01*
X175617629Y-70817906D01*
G36*
X176366873Y-70874679D02*
G01*
X176370606Y-70810905D01*
X176375907Y-70765582D01*
X176383258Y-70733555D01*
X176393143Y-70709668D01*
X176406046Y-70688764D01*
X176411579Y-70680898D01*
X176484969Y-70606595D01*
X176577760Y-70564467D01*
X176685096Y-70552722D01*
X176778886Y-70564505D01*
X176853539Y-70601727D01*
X176919431Y-70670261D01*
X176937577Y-70695648D01*
X176957345Y-70728866D01*
X176970172Y-70764945D01*
X176977510Y-70813098D01*
X176980813Y-70882536D01*
X176981538Y-70974206D01*
X176978263Y-71099830D01*
X176966877Y-71194154D01*
X176945041Y-71264523D01*
X176910419Y-71318286D01*
X176860670Y-71362788D01*
X176857014Y-71365423D01*
X176807985Y-71392377D01*
X176748945Y-71405712D01*
X176673859Y-71409000D01*
X176551795Y-71409000D01*
X176551744Y-71527497D01*
X176550608Y-71593492D01*
X176543686Y-71632202D01*
X176525598Y-71655419D01*
X176490962Y-71674933D01*
X176482645Y-71678920D01*
X176443720Y-71697603D01*
X176413583Y-71709403D01*
X176391174Y-71710422D01*
X176375433Y-71696761D01*
X176365302Y-71664522D01*
X176359723Y-71609804D01*
X176357635Y-71528711D01*
X176357981Y-71417344D01*
X176359700Y-71271802D01*
X176360237Y-71228269D01*
X176362172Y-71078205D01*
X176363904Y-70980042D01*
X176551692Y-70980042D01*
X176552748Y-71063364D01*
X176557438Y-71117880D01*
X176568051Y-71153837D01*
X176586872Y-71181482D01*
X176599650Y-71194965D01*
X176651890Y-71234417D01*
X176698142Y-71237628D01*
X176745867Y-71205049D01*
X176747077Y-71203846D01*
X176766494Y-71178668D01*
X176778307Y-71144447D01*
X176784265Y-71091748D01*
X176786120Y-71011131D01*
X176786154Y-70993271D01*
X176781670Y-70882175D01*
X176767074Y-70805161D01*
X176740650Y-70758147D01*
X176700683Y-70737050D01*
X176677584Y-70734923D01*
X176622762Y-70744900D01*
X176585158Y-70777752D01*
X176562523Y-70837857D01*
X176552606Y-70929598D01*
X176551692Y-70980042D01*
X176363904Y-70980042D01*
X176364222Y-70962060D01*
X176366873Y-70874679D01*
G37*
X176366873Y-70874679D02*
X176370606Y-70810905D01*
X176375907Y-70765582D01*
X176383258Y-70733555D01*
X176393143Y-70709668D01*
X176406046Y-70688764D01*
X176411579Y-70680898D01*
X176484969Y-70606595D01*
X176577760Y-70564467D01*
X176685096Y-70552722D01*
X176778886Y-70564505D01*
X176853539Y-70601727D01*
X176919431Y-70670261D01*
X176937577Y-70695648D01*
X176957345Y-70728866D01*
X176970172Y-70764945D01*
X176977510Y-70813098D01*
X176980813Y-70882536D01*
X176981538Y-70974206D01*
X176978263Y-71099830D01*
X176966877Y-71194154D01*
X176945041Y-71264523D01*
X176910419Y-71318286D01*
X176860670Y-71362788D01*
X176857014Y-71365423D01*
X176807985Y-71392377D01*
X176748945Y-71405712D01*
X176673859Y-71409000D01*
X176551795Y-71409000D01*
X176551744Y-71527497D01*
X176550608Y-71593492D01*
X176543686Y-71632202D01*
X176525598Y-71655419D01*
X176490962Y-71674933D01*
X176482645Y-71678920D01*
X176443720Y-71697603D01*
X176413583Y-71709403D01*
X176391174Y-71710422D01*
X176375433Y-71696761D01*
X176365302Y-71664522D01*
X176359723Y-71609804D01*
X176357635Y-71528711D01*
X176357981Y-71417344D01*
X176359700Y-71271802D01*
X176360237Y-71228269D01*
X176362172Y-71078205D01*
X176363904Y-70980042D01*
X176551692Y-70980042D01*
X176552748Y-71063364D01*
X176557438Y-71117880D01*
X176568051Y-71153837D01*
X176586872Y-71181482D01*
X176599650Y-71194965D01*
X176651890Y-71234417D01*
X176698142Y-71237628D01*
X176745867Y-71205049D01*
X176747077Y-71203846D01*
X176766494Y-71178668D01*
X176778307Y-71144447D01*
X176784265Y-71091748D01*
X176786120Y-71011131D01*
X176786154Y-70993271D01*
X176781670Y-70882175D01*
X176767074Y-70805161D01*
X176740650Y-70758147D01*
X176700683Y-70737050D01*
X176677584Y-70734923D01*
X176622762Y-70744900D01*
X176585158Y-70777752D01*
X176562523Y-70837857D01*
X176552606Y-70929598D01*
X176551692Y-70980042D01*
X176363904Y-70980042D01*
X176364222Y-70962060D01*
X176366873Y-70874679D01*
%TD*%
M02*
