%TF.GenerationSoftware,KiCad,Pcbnew,6.0.11-2627ca5db0~126~ubuntu22.04.1*%
%TF.CreationDate,2023-02-20T15:02:37-05:00*%
%TF.ProjectId,lin-peltier-control,6c696e2d-7065-46c7-9469-65722d636f6e,1.0*%
%TF.SameCoordinates,Original*%
%TF.FileFunction,Soldermask,Bot*%
%TF.FilePolarity,Negative*%
%FSLAX46Y46*%
G04 Gerber Fmt 4.6, Leading zero omitted, Abs format (unit mm)*
G04 Created by KiCad (PCBNEW 6.0.11-2627ca5db0~126~ubuntu22.04.1) date 2023-02-20 15:02:37*
%MOMM*%
%LPD*%
G01*
G04 APERTURE LIST*
G04 Aperture macros list*
%AMRoundRect*
0 Rectangle with rounded corners*
0 $1 Rounding radius*
0 $2 $3 $4 $5 $6 $7 $8 $9 X,Y pos of 4 corners*
0 Add a 4 corners polygon primitive as box body*
4,1,4,$2,$3,$4,$5,$6,$7,$8,$9,$2,$3,0*
0 Add four circle primitives for the rounded corners*
1,1,$1+$1,$2,$3*
1,1,$1+$1,$4,$5*
1,1,$1+$1,$6,$7*
1,1,$1+$1,$8,$9*
0 Add four rect primitives between the rounded corners*
20,1,$1+$1,$2,$3,$4,$5,0*
20,1,$1+$1,$4,$5,$6,$7,0*
20,1,$1+$1,$6,$7,$8,$9,0*
20,1,$1+$1,$8,$9,$2,$3,0*%
%AMFreePoly0*
4,1,6,1.000000,0.000000,0.500000,-0.750000,-0.500000,-0.750000,-0.500000,0.750000,0.500000,0.750000,1.000000,0.000000,1.000000,0.000000,$1*%
%AMFreePoly1*
4,1,6,0.500000,-0.750000,-0.650000,-0.750000,-0.150000,0.000000,-0.650000,0.750000,0.500000,0.750000,0.500000,-0.750000,0.500000,-0.750000,$1*%
G04 Aperture macros list end*
%ADD10R,2.100000X2.100000*%
%ADD11C,2.100000*%
%ADD12C,1.600000*%
%ADD13R,1.700000X1.700000*%
%ADD14O,1.700000X1.700000*%
%ADD15R,1.879600X1.879600*%
%ADD16C,1.879600*%
%ADD17RoundRect,0.250000X-0.350000X-0.450000X0.350000X-0.450000X0.350000X0.450000X-0.350000X0.450000X0*%
%ADD18RoundRect,0.250000X-0.450000X0.350000X-0.450000X-0.350000X0.450000X-0.350000X0.450000X0.350000X0*%
%ADD19FreePoly0,90.000000*%
%ADD20FreePoly1,90.000000*%
%ADD21RoundRect,0.250000X0.350000X0.450000X-0.350000X0.450000X-0.350000X-0.450000X0.350000X-0.450000X0*%
%ADD22RoundRect,0.250000X0.475000X-0.337500X0.475000X0.337500X-0.475000X0.337500X-0.475000X-0.337500X0*%
%ADD23RoundRect,0.250000X0.450000X-0.350000X0.450000X0.350000X-0.450000X0.350000X-0.450000X-0.350000X0*%
%ADD24RoundRect,0.250000X0.337500X0.475000X-0.337500X0.475000X-0.337500X-0.475000X0.337500X-0.475000X0*%
%ADD25RoundRect,0.250000X-0.337500X-0.475000X0.337500X-0.475000X0.337500X0.475000X-0.337500X0.475000X0*%
G04 APERTURE END LIST*
D10*
%TO.C,J3*%
X224700000Y-64000000D03*
D11*
X224700000Y-66540000D03*
X224700000Y-69080000D03*
%TD*%
D12*
%TO.C,F1*%
X218200000Y-63950000D03*
X208200000Y-63950000D03*
%TD*%
D13*
%TO.C,J2*%
X180150000Y-82100000D03*
D14*
X182690000Y-82100000D03*
X185230000Y-82100000D03*
X187770000Y-82100000D03*
%TD*%
D10*
%TO.C,J4*%
X224700000Y-75125000D03*
D11*
X224700000Y-77665000D03*
%TD*%
D15*
%TO.C,J1*%
X226520000Y-91800000D03*
D16*
X223980000Y-91800000D03*
X221440000Y-91800000D03*
X218900000Y-91800000D03*
X216360000Y-91800000D03*
X213820000Y-91800000D03*
%TD*%
D17*
%TO.C,R3*%
X195650000Y-89750000D03*
X197650000Y-89750000D03*
%TD*%
D18*
%TO.C,R18*%
X196550000Y-75350000D03*
X196550000Y-77350000D03*
%TD*%
D19*
%TO.C,JP2*%
X194075000Y-97725000D03*
D20*
X194075000Y-96275000D03*
%TD*%
D17*
%TO.C,R7*%
X182400000Y-84725000D03*
X184400000Y-84725000D03*
%TD*%
D19*
%TO.C,JP5*%
X186350000Y-97875000D03*
D20*
X186350000Y-96425000D03*
%TD*%
D21*
%TO.C,R4*%
X201425000Y-89750000D03*
X199425000Y-89750000D03*
%TD*%
D22*
%TO.C,C2*%
X221775000Y-68750000D03*
X221775000Y-66675000D03*
%TD*%
D18*
%TO.C,R14*%
X201900000Y-73900000D03*
X201900000Y-75900000D03*
%TD*%
D17*
%TO.C,R8*%
X186375000Y-84775000D03*
X188375000Y-84775000D03*
%TD*%
%TO.C,R9*%
X182300000Y-88450000D03*
X184300000Y-88450000D03*
%TD*%
D23*
%TO.C,R12*%
X188950000Y-78825000D03*
X188950000Y-76825000D03*
%TD*%
D18*
%TO.C,R16*%
X191300000Y-73900000D03*
X191300000Y-75900000D03*
%TD*%
D21*
%TO.C,R10*%
X190525000Y-88425000D03*
X188525000Y-88425000D03*
%TD*%
D24*
%TO.C,C7*%
X185750000Y-76575000D03*
X183675000Y-76575000D03*
%TD*%
D25*
%TO.C,C8*%
X183600000Y-74325000D03*
X185675000Y-74325000D03*
%TD*%
D18*
%TO.C,R22*%
X222100000Y-75100000D03*
X222100000Y-77100000D03*
%TD*%
D19*
%TO.C,JP4*%
X188825000Y-97825000D03*
D20*
X188825000Y-96375000D03*
%TD*%
D19*
%TO.C,JP3*%
X191425000Y-97775000D03*
D20*
X191425000Y-96325000D03*
%TD*%
M02*
