%TF.GenerationSoftware,KiCad,Pcbnew,6.0.11-2627ca5db0~126~ubuntu22.04.1*%
%TF.CreationDate,2023-03-03T14:57:15-05:00*%
%TF.ProjectId,lin-peltier-control,6c696e2d-7065-46c7-9469-65722d636f6e,1.0*%
%TF.SameCoordinates,Original*%
%TF.FileFunction,Legend,Bot*%
%TF.FilePolarity,Positive*%
%FSLAX46Y46*%
G04 Gerber Fmt 4.6, Leading zero omitted, Abs format (unit mm)*
G04 Created by KiCad (PCBNEW 6.0.11-2627ca5db0~126~ubuntu22.04.1) date 2023-03-03 14:57:15*
%MOMM*%
%LPD*%
G01*
G04 APERTURE LIST*
%ADD10C,0.150000*%
%ADD11C,0.120000*%
G04 APERTURE END LIST*
D10*
%TO.C,R6*%
X216666666Y-97492380D02*
X217000000Y-97016190D01*
X217238095Y-97492380D02*
X217238095Y-96492380D01*
X216857142Y-96492380D01*
X216761904Y-96540000D01*
X216714285Y-96587619D01*
X216666666Y-96682857D01*
X216666666Y-96825714D01*
X216714285Y-96920952D01*
X216761904Y-96968571D01*
X216857142Y-97016190D01*
X217238095Y-97016190D01*
X215809523Y-96492380D02*
X216000000Y-96492380D01*
X216095238Y-96540000D01*
X216142857Y-96587619D01*
X216238095Y-96730476D01*
X216285714Y-96920952D01*
X216285714Y-97301904D01*
X216238095Y-97397142D01*
X216190476Y-97444761D01*
X216095238Y-97492380D01*
X215904761Y-97492380D01*
X215809523Y-97444761D01*
X215761904Y-97397142D01*
X215714285Y-97301904D01*
X215714285Y-97063809D01*
X215761904Y-96968571D01*
X215809523Y-96920952D01*
X215904761Y-96873333D01*
X216095238Y-96873333D01*
X216190476Y-96920952D01*
X216238095Y-96968571D01*
X216285714Y-97063809D01*
%TO.C,R3*%
X196916666Y-88402380D02*
X197250000Y-87926190D01*
X197488095Y-88402380D02*
X197488095Y-87402380D01*
X197107142Y-87402380D01*
X197011904Y-87450000D01*
X196964285Y-87497619D01*
X196916666Y-87592857D01*
X196916666Y-87735714D01*
X196964285Y-87830952D01*
X197011904Y-87878571D01*
X197107142Y-87926190D01*
X197488095Y-87926190D01*
X196583333Y-87402380D02*
X195964285Y-87402380D01*
X196297619Y-87783333D01*
X196154761Y-87783333D01*
X196059523Y-87830952D01*
X196011904Y-87878571D01*
X195964285Y-87973809D01*
X195964285Y-88211904D01*
X196011904Y-88307142D01*
X196059523Y-88354761D01*
X196154761Y-88402380D01*
X196440476Y-88402380D01*
X196535714Y-88354761D01*
X196583333Y-88307142D01*
%TO.C,R7*%
X183566666Y-86827380D02*
X183900000Y-86351190D01*
X184138095Y-86827380D02*
X184138095Y-85827380D01*
X183757142Y-85827380D01*
X183661904Y-85875000D01*
X183614285Y-85922619D01*
X183566666Y-86017857D01*
X183566666Y-86160714D01*
X183614285Y-86255952D01*
X183661904Y-86303571D01*
X183757142Y-86351190D01*
X184138095Y-86351190D01*
X183233333Y-85827380D02*
X182566666Y-85827380D01*
X182995238Y-86827380D01*
%TO.C,R4*%
X200916666Y-88477380D02*
X201250000Y-88001190D01*
X201488095Y-88477380D02*
X201488095Y-87477380D01*
X201107142Y-87477380D01*
X201011904Y-87525000D01*
X200964285Y-87572619D01*
X200916666Y-87667857D01*
X200916666Y-87810714D01*
X200964285Y-87905952D01*
X201011904Y-87953571D01*
X201107142Y-88001190D01*
X201488095Y-88001190D01*
X200059523Y-87810714D02*
X200059523Y-88477380D01*
X200297619Y-87429761D02*
X200535714Y-88144047D01*
X199916666Y-88144047D01*
%TO.C,C2*%
X220332142Y-67008333D02*
X220379761Y-66960714D01*
X220427380Y-66817857D01*
X220427380Y-66722619D01*
X220379761Y-66579761D01*
X220284523Y-66484523D01*
X220189285Y-66436904D01*
X219998809Y-66389285D01*
X219855952Y-66389285D01*
X219665476Y-66436904D01*
X219570238Y-66484523D01*
X219475000Y-66579761D01*
X219427380Y-66722619D01*
X219427380Y-66817857D01*
X219475000Y-66960714D01*
X219522619Y-67008333D01*
X219522619Y-67389285D02*
X219475000Y-67436904D01*
X219427380Y-67532142D01*
X219427380Y-67770238D01*
X219475000Y-67865476D01*
X219522619Y-67913095D01*
X219617857Y-67960714D01*
X219713095Y-67960714D01*
X219855952Y-67913095D01*
X220427380Y-67341666D01*
X220427380Y-67960714D01*
%TO.C,R8*%
X187541666Y-86877380D02*
X187875000Y-86401190D01*
X188113095Y-86877380D02*
X188113095Y-85877380D01*
X187732142Y-85877380D01*
X187636904Y-85925000D01*
X187589285Y-85972619D01*
X187541666Y-86067857D01*
X187541666Y-86210714D01*
X187589285Y-86305952D01*
X187636904Y-86353571D01*
X187732142Y-86401190D01*
X188113095Y-86401190D01*
X186970238Y-86305952D02*
X187065476Y-86258333D01*
X187113095Y-86210714D01*
X187160714Y-86115476D01*
X187160714Y-86067857D01*
X187113095Y-85972619D01*
X187065476Y-85925000D01*
X186970238Y-85877380D01*
X186779761Y-85877380D01*
X186684523Y-85925000D01*
X186636904Y-85972619D01*
X186589285Y-86067857D01*
X186589285Y-86115476D01*
X186636904Y-86210714D01*
X186684523Y-86258333D01*
X186779761Y-86305952D01*
X186970238Y-86305952D01*
X187065476Y-86353571D01*
X187113095Y-86401190D01*
X187160714Y-86496428D01*
X187160714Y-86686904D01*
X187113095Y-86782142D01*
X187065476Y-86829761D01*
X186970238Y-86877380D01*
X186779761Y-86877380D01*
X186684523Y-86829761D01*
X186636904Y-86782142D01*
X186589285Y-86686904D01*
X186589285Y-86496428D01*
X186636904Y-86401190D01*
X186684523Y-86353571D01*
X186779761Y-86305952D01*
%TO.C,R9*%
X183466666Y-90552380D02*
X183800000Y-90076190D01*
X184038095Y-90552380D02*
X184038095Y-89552380D01*
X183657142Y-89552380D01*
X183561904Y-89600000D01*
X183514285Y-89647619D01*
X183466666Y-89742857D01*
X183466666Y-89885714D01*
X183514285Y-89980952D01*
X183561904Y-90028571D01*
X183657142Y-90076190D01*
X184038095Y-90076190D01*
X182990476Y-90552380D02*
X182800000Y-90552380D01*
X182704761Y-90504761D01*
X182657142Y-90457142D01*
X182561904Y-90314285D01*
X182514285Y-90123809D01*
X182514285Y-89742857D01*
X182561904Y-89647619D01*
X182609523Y-89600000D01*
X182704761Y-89552380D01*
X182895238Y-89552380D01*
X182990476Y-89600000D01*
X183038095Y-89647619D01*
X183085714Y-89742857D01*
X183085714Y-89980952D01*
X183038095Y-90076190D01*
X182990476Y-90123809D01*
X182895238Y-90171428D01*
X182704761Y-90171428D01*
X182609523Y-90123809D01*
X182561904Y-90076190D01*
X182514285Y-89980952D01*
%TO.C,D4*%
X223212380Y-87371904D02*
X222212380Y-87371904D01*
X222212380Y-87610000D01*
X222260000Y-87752857D01*
X222355238Y-87848095D01*
X222450476Y-87895714D01*
X222640952Y-87943333D01*
X222783809Y-87943333D01*
X222974285Y-87895714D01*
X223069523Y-87848095D01*
X223164761Y-87752857D01*
X223212380Y-87610000D01*
X223212380Y-87371904D01*
X222545714Y-88800476D02*
X223212380Y-88800476D01*
X222164761Y-88562380D02*
X222879047Y-88324285D01*
X222879047Y-88943333D01*
%TO.C,JP1*%
X223003333Y-96582380D02*
X223003333Y-97296666D01*
X223050952Y-97439523D01*
X223146190Y-97534761D01*
X223289047Y-97582380D01*
X223384285Y-97582380D01*
X222527142Y-97582380D02*
X222527142Y-96582380D01*
X222146190Y-96582380D01*
X222050952Y-96630000D01*
X222003333Y-96677619D01*
X221955714Y-96772857D01*
X221955714Y-96915714D01*
X222003333Y-97010952D01*
X222050952Y-97058571D01*
X222146190Y-97106190D01*
X222527142Y-97106190D01*
X221003333Y-97582380D02*
X221574761Y-97582380D01*
X221289047Y-97582380D02*
X221289047Y-96582380D01*
X221384285Y-96725238D01*
X221479523Y-96820476D01*
X221574761Y-96868095D01*
%TO.C,R10*%
X190167857Y-87227380D02*
X190501190Y-86751190D01*
X190739285Y-87227380D02*
X190739285Y-86227380D01*
X190358333Y-86227380D01*
X190263095Y-86275000D01*
X190215476Y-86322619D01*
X190167857Y-86417857D01*
X190167857Y-86560714D01*
X190215476Y-86655952D01*
X190263095Y-86703571D01*
X190358333Y-86751190D01*
X190739285Y-86751190D01*
X189215476Y-87227380D02*
X189786904Y-87227380D01*
X189501190Y-87227380D02*
X189501190Y-86227380D01*
X189596428Y-86370238D01*
X189691666Y-86465476D01*
X189786904Y-86513095D01*
X188596428Y-86227380D02*
X188501190Y-86227380D01*
X188405952Y-86275000D01*
X188358333Y-86322619D01*
X188310714Y-86417857D01*
X188263095Y-86608333D01*
X188263095Y-86846428D01*
X188310714Y-87036904D01*
X188358333Y-87132142D01*
X188405952Y-87179761D01*
X188501190Y-87227380D01*
X188596428Y-87227380D01*
X188691666Y-87179761D01*
X188739285Y-87132142D01*
X188786904Y-87036904D01*
X188834523Y-86846428D01*
X188834523Y-86608333D01*
X188786904Y-86417857D01*
X188739285Y-86322619D01*
X188691666Y-86275000D01*
X188596428Y-86227380D01*
%TO.C,D2*%
X212828095Y-97222380D02*
X212828095Y-96222380D01*
X212590000Y-96222380D01*
X212447142Y-96270000D01*
X212351904Y-96365238D01*
X212304285Y-96460476D01*
X212256666Y-96650952D01*
X212256666Y-96793809D01*
X212304285Y-96984285D01*
X212351904Y-97079523D01*
X212447142Y-97174761D01*
X212590000Y-97222380D01*
X212828095Y-97222380D01*
X211875714Y-96317619D02*
X211828095Y-96270000D01*
X211732857Y-96222380D01*
X211494761Y-96222380D01*
X211399523Y-96270000D01*
X211351904Y-96317619D01*
X211304285Y-96412857D01*
X211304285Y-96508095D01*
X211351904Y-96650952D01*
X211923333Y-97222380D01*
X211304285Y-97222380D01*
%TO.C,R22*%
X220322857Y-84072380D02*
X220656190Y-83596190D01*
X220894285Y-84072380D02*
X220894285Y-83072380D01*
X220513333Y-83072380D01*
X220418095Y-83120000D01*
X220370476Y-83167619D01*
X220322857Y-83262857D01*
X220322857Y-83405714D01*
X220370476Y-83500952D01*
X220418095Y-83548571D01*
X220513333Y-83596190D01*
X220894285Y-83596190D01*
X219941904Y-83167619D02*
X219894285Y-83120000D01*
X219799047Y-83072380D01*
X219560952Y-83072380D01*
X219465714Y-83120000D01*
X219418095Y-83167619D01*
X219370476Y-83262857D01*
X219370476Y-83358095D01*
X219418095Y-83500952D01*
X219989523Y-84072380D01*
X219370476Y-84072380D01*
X218989523Y-83167619D02*
X218941904Y-83120000D01*
X218846666Y-83072380D01*
X218608571Y-83072380D01*
X218513333Y-83120000D01*
X218465714Y-83167619D01*
X218418095Y-83262857D01*
X218418095Y-83358095D01*
X218465714Y-83500952D01*
X219037142Y-84072380D01*
X218418095Y-84072380D01*
D11*
%TO.C,R6*%
X217322936Y-94355000D02*
X217777064Y-94355000D01*
X217322936Y-95825000D02*
X217777064Y-95825000D01*
%TO.C,R3*%
X196422936Y-89015000D02*
X196877064Y-89015000D01*
X196422936Y-90485000D02*
X196877064Y-90485000D01*
%TO.C,R7*%
X183172936Y-83990000D02*
X183627064Y-83990000D01*
X183172936Y-85460000D02*
X183627064Y-85460000D01*
%TO.C,R4*%
X200652064Y-89015000D02*
X200197936Y-89015000D01*
X200652064Y-90485000D02*
X200197936Y-90485000D01*
%TO.C,C2*%
X222510000Y-67973752D02*
X222510000Y-67451248D01*
X221040000Y-67973752D02*
X221040000Y-67451248D01*
%TO.C,R8*%
X187147936Y-85510000D02*
X187602064Y-85510000D01*
X187147936Y-84040000D02*
X187602064Y-84040000D01*
%TO.C,R9*%
X183072936Y-87715000D02*
X183527064Y-87715000D01*
X183072936Y-89185000D02*
X183527064Y-89185000D01*
%TO.C,D4*%
X220310000Y-87330000D02*
X219650000Y-87330000D01*
X219650000Y-88740000D02*
X219650000Y-87330000D01*
X221970000Y-87330000D02*
X221310000Y-87330000D01*
X221970000Y-87330000D02*
X221970000Y-89360000D01*
%TO.C,JP1*%
X223525000Y-96060000D02*
X223525000Y-94060000D01*
X220725000Y-94060000D02*
X220725000Y-96060000D01*
X220725000Y-96060000D02*
X223525000Y-96060000D01*
X223525000Y-94060000D02*
X220725000Y-94060000D01*
%TO.C,R10*%
X189752064Y-89160000D02*
X189297936Y-89160000D01*
X189752064Y-87690000D02*
X189297936Y-87690000D01*
%TO.C,D2*%
X215300000Y-93840000D02*
X215300000Y-95840000D01*
X215300000Y-93840000D02*
X211400000Y-93840000D01*
X215300000Y-95840000D02*
X211400000Y-95840000D01*
%TO.C,R22*%
X219907064Y-84535000D02*
X219452936Y-84535000D01*
X219907064Y-86005000D02*
X219452936Y-86005000D01*
%TD*%
M02*
