%TF.GenerationSoftware,KiCad,Pcbnew,6.0.11-2627ca5db0~126~ubuntu22.04.1*%
%TF.CreationDate,2023-03-02T17:30:21-05:00*%
%TF.ProjectId,lin-peltier-control,6c696e2d-7065-46c7-9469-65722d636f6e,1.0*%
%TF.SameCoordinates,Original*%
%TF.FileFunction,Copper,L3,Inr*%
%TF.FilePolarity,Positive*%
%FSLAX46Y46*%
G04 Gerber Fmt 4.6, Leading zero omitted, Abs format (unit mm)*
G04 Created by KiCad (PCBNEW 6.0.11-2627ca5db0~126~ubuntu22.04.1) date 2023-03-02 17:30:21*
%MOMM*%
%LPD*%
G01*
G04 APERTURE LIST*
%TA.AperFunction,ComponentPad*%
%ADD10C,1.879600*%
%TD*%
%TA.AperFunction,ComponentPad*%
%ADD11R,1.879600X1.879600*%
%TD*%
%TA.AperFunction,ComponentPad*%
%ADD12O,1.700000X1.700000*%
%TD*%
%TA.AperFunction,ComponentPad*%
%ADD13R,1.700000X1.700000*%
%TD*%
%TA.AperFunction,ComponentPad*%
%ADD14C,1.600000*%
%TD*%
%TA.AperFunction,ComponentPad*%
%ADD15R,2.100000X2.100000*%
%TD*%
%TA.AperFunction,ComponentPad*%
%ADD16C,2.100000*%
%TD*%
%TA.AperFunction,ViaPad*%
%ADD17C,0.800000*%
%TD*%
%TA.AperFunction,Conductor*%
%ADD18C,0.250000*%
%TD*%
G04 APERTURE END LIST*
D10*
%TO.N,unconnected-(J1-Pad6)*%
%TO.C,J1*%
X213820000Y-91800000D03*
%TO.N,UPDI*%
X216360000Y-91800000D03*
%TO.N,Net-(J1-Pad4)*%
X218900000Y-91800000D03*
%TO.N,Net-(J1-Pad3)*%
X221440000Y-91800000D03*
%TO.N,unconnected-(J1-Pad2)*%
X223980000Y-91800000D03*
D11*
%TO.N,GND*%
X226520000Y-91800000D03*
%TD*%
D12*
%TO.N,unconnected-(U3-Pad4)*%
%TO.C,U3*%
X188132300Y-70302600D03*
%TO.N,+12V*%
X188132300Y-72842600D03*
%TO.N,GND*%
X188132300Y-75382600D03*
D13*
%TO.N,+5V*%
X188132300Y-77922600D03*
%TD*%
D14*
%TO.N,+BATT*%
%TO.C,F1*%
X218200000Y-63950000D03*
%TO.N,+12V*%
X208200000Y-63950000D03*
%TD*%
D13*
%TO.N,GND*%
%TO.C,J2*%
X180150000Y-82100000D03*
D12*
%TO.N,+5V*%
X182690000Y-82100000D03*
%TO.N,SDA5V*%
X185230000Y-82100000D03*
%TO.N,SCL5V*%
X187770000Y-82100000D03*
%TD*%
D15*
%TO.N,PELTIER+*%
%TO.C,J4*%
X224700000Y-75125000D03*
D16*
%TO.N,GND*%
X224700000Y-77665000D03*
%TD*%
D15*
%TO.N,+BATT*%
%TO.C,J3*%
X224700000Y-64000000D03*
D16*
%TO.N,GND*%
X224700000Y-66540000D03*
%TO.N,LIN*%
X224700000Y-69080000D03*
%TD*%
D17*
%TO.N,+3V3*%
X225090000Y-95120000D03*
%TO.N,UPDI*%
X210360000Y-94650000D03*
%TO.N,+12V*%
X218920000Y-89500000D03*
%TO.N,Net-(D4-Pad3)*%
X221430000Y-83970000D03*
%TO.N,GND*%
X198070000Y-79180000D03*
%TO.N,+5V*%
X193750000Y-81480000D03*
%TO.N,+3V3*%
X193220000Y-84730000D03*
%TO.N,GND*%
X190110000Y-83280000D03*
X194820000Y-87920000D03*
X178880000Y-75760000D03*
X177940000Y-78460000D03*
%TO.N,+5V*%
X185090000Y-78830000D03*
%TO.N,TXD*%
X200675000Y-91925000D03*
%TO.N,GND*%
X214070000Y-67690000D03*
%TO.N,SCL*%
X209730000Y-78010000D03*
%TO.N,SDA*%
X210710000Y-76854500D03*
%TO.N,SCL*%
X209730000Y-76120000D03*
%TO.N,+3V3*%
X214940000Y-74660000D03*
%TO.N,GND*%
X216280000Y-76660000D03*
X207550000Y-91950000D03*
X213850000Y-85300000D03*
X200500000Y-82850000D03*
X207600000Y-86525000D03*
X206500000Y-90050000D03*
%TO.N,LIN*%
X199200000Y-81575000D03*
%TO.N,TXD*%
X205540000Y-94940000D03*
%TO.N,~{LIN_SLP}*%
X197950000Y-91675000D03*
X205075000Y-92075000D03*
%TO.N,~{LIN_WAKE}*%
X204925000Y-93300000D03*
X199225000Y-91625000D03*
%TO.N,SDA*%
X206675000Y-96775000D03*
X185425000Y-90325000D03*
%TO.N,SCL*%
X206290576Y-95852382D03*
X187450000Y-90425000D03*
%TO.N,+3V3*%
X194225000Y-89700000D03*
X197475000Y-93675000D03*
X208025000Y-89600000D03*
X202850000Y-88175000D03*
X193350000Y-92170000D03*
X181950000Y-90050000D03*
X190550000Y-89975000D03*
%TO.N,Net-(R5-Pad1)*%
X206050000Y-93590000D03*
X203700000Y-86825000D03*
%TD*%
D18*
%TO.N,TXD*%
X205540000Y-94940000D02*
X203690000Y-94940000D01*
X203690000Y-94940000D02*
X200675000Y-91925000D01*
%TO.N,SCL*%
X209730000Y-76120000D02*
X209730000Y-78010000D01*
X209730000Y-78010000D02*
X209730000Y-92390000D01*
X209730000Y-92390000D02*
X206290576Y-95829424D01*
X206290576Y-95829424D02*
X206290576Y-95852382D01*
%TO.N,SDA*%
X206675000Y-96775000D02*
X210710000Y-92740000D01*
X210710000Y-92740000D02*
X210710000Y-76854500D01*
%TD*%
%TA.AperFunction,Conductor*%
%TO.N,+3V3*%
G36*
X230043621Y-61818502D02*
G01*
X230090114Y-61872158D01*
X230101500Y-61924500D01*
X230101500Y-98235028D01*
X230081498Y-98303149D01*
X230027842Y-98349642D01*
X229975409Y-98361028D01*
X215532331Y-98350613D01*
X175794408Y-98321958D01*
X175726303Y-98301907D01*
X175679849Y-98248218D01*
X175668500Y-98195958D01*
X175668500Y-91675000D01*
X197036496Y-91675000D01*
X197037186Y-91681565D01*
X197043500Y-91741635D01*
X197056458Y-91864928D01*
X197115473Y-92046556D01*
X197118776Y-92052278D01*
X197118777Y-92052279D01*
X197135685Y-92081565D01*
X197210960Y-92211944D01*
X197215378Y-92216851D01*
X197215379Y-92216852D01*
X197258667Y-92264928D01*
X197338747Y-92353866D01*
X197424429Y-92416118D01*
X197471693Y-92450457D01*
X197493248Y-92466118D01*
X197499276Y-92468802D01*
X197499278Y-92468803D01*
X197644591Y-92533500D01*
X197667712Y-92543794D01*
X197761112Y-92563647D01*
X197848056Y-92582128D01*
X197848061Y-92582128D01*
X197854513Y-92583500D01*
X198045487Y-92583500D01*
X198051939Y-92582128D01*
X198051944Y-92582128D01*
X198138888Y-92563647D01*
X198232288Y-92543794D01*
X198255409Y-92533500D01*
X198400722Y-92468803D01*
X198400724Y-92468802D01*
X198406752Y-92466118D01*
X198428308Y-92450457D01*
X198475571Y-92416118D01*
X198547849Y-92363605D01*
X198614715Y-92339747D01*
X198683867Y-92355827D01*
X198695970Y-92363605D01*
X198721012Y-92381799D01*
X198768248Y-92416118D01*
X198774276Y-92418802D01*
X198774278Y-92418803D01*
X198936681Y-92491109D01*
X198942712Y-92493794D01*
X199036112Y-92513647D01*
X199123056Y-92532128D01*
X199123061Y-92532128D01*
X199129513Y-92533500D01*
X199320487Y-92533500D01*
X199326939Y-92532128D01*
X199326944Y-92532128D01*
X199413887Y-92513647D01*
X199507288Y-92493794D01*
X199513319Y-92491109D01*
X199675722Y-92418803D01*
X199675724Y-92418802D01*
X199681752Y-92416118D01*
X199728988Y-92381799D01*
X199795856Y-92357940D01*
X199865007Y-92374021D01*
X199912168Y-92420735D01*
X199935960Y-92461944D01*
X199940378Y-92466851D01*
X199940379Y-92466852D01*
X199991146Y-92523234D01*
X200063747Y-92603866D01*
X200218248Y-92716118D01*
X200224276Y-92718802D01*
X200224278Y-92718803D01*
X200386681Y-92791109D01*
X200392712Y-92793794D01*
X200478839Y-92812101D01*
X200573056Y-92832128D01*
X200573061Y-92832128D01*
X200579513Y-92833500D01*
X200635406Y-92833500D01*
X200703527Y-92853502D01*
X200724501Y-92870405D01*
X201962243Y-94108148D01*
X203186348Y-95332253D01*
X203193888Y-95340539D01*
X203198000Y-95347018D01*
X203203777Y-95352443D01*
X203247651Y-95393643D01*
X203250493Y-95396398D01*
X203270230Y-95416135D01*
X203273427Y-95418615D01*
X203282447Y-95426318D01*
X203314679Y-95456586D01*
X203321625Y-95460405D01*
X203321628Y-95460407D01*
X203332434Y-95466348D01*
X203348953Y-95477199D01*
X203364959Y-95489614D01*
X203372228Y-95492759D01*
X203372232Y-95492762D01*
X203405537Y-95507174D01*
X203416187Y-95512391D01*
X203454940Y-95533695D01*
X203462615Y-95535666D01*
X203462616Y-95535666D01*
X203474562Y-95538733D01*
X203493267Y-95545137D01*
X203511855Y-95553181D01*
X203519678Y-95554420D01*
X203519688Y-95554423D01*
X203555524Y-95560099D01*
X203567144Y-95562505D01*
X203602289Y-95571528D01*
X203609970Y-95573500D01*
X203630224Y-95573500D01*
X203649934Y-95575051D01*
X203669943Y-95578220D01*
X203677835Y-95577474D01*
X203713961Y-95574059D01*
X203725819Y-95573500D01*
X204831800Y-95573500D01*
X204899921Y-95593502D01*
X204919147Y-95609843D01*
X204919420Y-95609540D01*
X204924332Y-95613963D01*
X204928747Y-95618866D01*
X205083248Y-95731118D01*
X205089276Y-95733802D01*
X205089278Y-95733803D01*
X205251681Y-95806109D01*
X205257712Y-95808794D01*
X205285568Y-95814715D01*
X205348042Y-95848442D01*
X205382364Y-95910591D01*
X205384682Y-95924784D01*
X205397034Y-96042310D01*
X205456049Y-96223938D01*
X205551536Y-96389326D01*
X205679323Y-96531248D01*
X205684664Y-96535128D01*
X205684669Y-96535133D01*
X205720616Y-96561250D01*
X205763969Y-96617472D01*
X205771864Y-96676356D01*
X205761496Y-96775000D01*
X205781458Y-96964928D01*
X205840473Y-97146556D01*
X205935960Y-97311944D01*
X206063747Y-97453866D01*
X206218248Y-97566118D01*
X206224276Y-97568802D01*
X206224278Y-97568803D01*
X206386681Y-97641109D01*
X206392712Y-97643794D01*
X206486113Y-97663647D01*
X206573056Y-97682128D01*
X206573061Y-97682128D01*
X206579513Y-97683500D01*
X206770487Y-97683500D01*
X206776939Y-97682128D01*
X206776944Y-97682128D01*
X206863887Y-97663647D01*
X206957288Y-97643794D01*
X206963319Y-97641109D01*
X207125722Y-97568803D01*
X207125724Y-97568802D01*
X207131752Y-97566118D01*
X207286253Y-97453866D01*
X207414040Y-97311944D01*
X207509527Y-97146556D01*
X207568542Y-96964928D01*
X207585907Y-96799706D01*
X207612920Y-96734050D01*
X207622122Y-96723782D01*
X209335745Y-95010159D01*
X209398057Y-94976133D01*
X209468872Y-94981198D01*
X209525708Y-95023745D01*
X209533958Y-95036253D01*
X209620960Y-95186944D01*
X209748747Y-95328866D01*
X209903248Y-95441118D01*
X209909276Y-95443802D01*
X209909278Y-95443803D01*
X210071681Y-95516109D01*
X210077712Y-95518794D01*
X210157088Y-95535666D01*
X210258056Y-95557128D01*
X210258061Y-95557128D01*
X210264513Y-95558500D01*
X210455487Y-95558500D01*
X210461939Y-95557128D01*
X210461944Y-95557128D01*
X210562912Y-95535666D01*
X210642288Y-95518794D01*
X210648319Y-95516109D01*
X210810722Y-95443803D01*
X210810724Y-95443802D01*
X210816752Y-95441118D01*
X210971253Y-95328866D01*
X211099040Y-95186944D01*
X211194527Y-95021556D01*
X211253542Y-94839928D01*
X211273504Y-94650000D01*
X211253542Y-94460072D01*
X211194527Y-94278444D01*
X211188679Y-94268314D01*
X211102341Y-94118774D01*
X211099040Y-94113056D01*
X210971253Y-93971134D01*
X210816752Y-93858882D01*
X210810719Y-93856196D01*
X210810714Y-93856193D01*
X210756083Y-93831869D01*
X210701987Y-93785889D01*
X210681338Y-93717962D01*
X210700691Y-93649654D01*
X210718237Y-93627668D01*
X211102253Y-93243652D01*
X211110539Y-93236112D01*
X211117018Y-93232000D01*
X211163644Y-93182348D01*
X211166398Y-93179507D01*
X211186135Y-93159770D01*
X211188615Y-93156573D01*
X211196320Y-93147551D01*
X211221159Y-93121100D01*
X211226586Y-93115321D01*
X211230405Y-93108375D01*
X211230407Y-93108372D01*
X211236348Y-93097566D01*
X211247199Y-93081047D01*
X211254758Y-93071301D01*
X211259614Y-93065041D01*
X211262759Y-93057772D01*
X211262762Y-93057768D01*
X211277174Y-93024463D01*
X211282391Y-93013813D01*
X211303695Y-92975060D01*
X211308733Y-92955437D01*
X211315137Y-92936734D01*
X211320033Y-92925420D01*
X211320033Y-92925419D01*
X211323181Y-92918145D01*
X211324420Y-92910322D01*
X211324423Y-92910312D01*
X211330099Y-92874476D01*
X211332505Y-92862856D01*
X211341528Y-92827711D01*
X211341528Y-92827710D01*
X211343500Y-92820030D01*
X211343500Y-92799776D01*
X211345051Y-92780065D01*
X211346980Y-92767886D01*
X211348220Y-92760057D01*
X211344059Y-92716038D01*
X211343500Y-92704181D01*
X211343500Y-91764494D01*
X212367170Y-91764494D01*
X212367467Y-91769646D01*
X212367467Y-91769650D01*
X212377866Y-91950000D01*
X212380879Y-92002255D01*
X212382016Y-92007301D01*
X212382017Y-92007307D01*
X212392152Y-92052279D01*
X212433237Y-92234585D01*
X212435179Y-92239367D01*
X212435180Y-92239371D01*
X212508040Y-92418803D01*
X212522837Y-92455244D01*
X212647274Y-92658306D01*
X212803204Y-92838317D01*
X212986442Y-92990444D01*
X212990894Y-92993046D01*
X212990899Y-92993049D01*
X213154899Y-93088883D01*
X213192065Y-93110601D01*
X213414552Y-93195560D01*
X213419618Y-93196591D01*
X213419619Y-93196591D01*
X213473956Y-93207646D01*
X213647928Y-93243041D01*
X213781284Y-93247931D01*
X213880760Y-93251579D01*
X213880764Y-93251579D01*
X213885924Y-93251768D01*
X213891044Y-93251112D01*
X213891046Y-93251112D01*
X214117023Y-93222164D01*
X214117024Y-93222164D01*
X214122151Y-93221507D01*
X214127101Y-93220022D01*
X214345316Y-93154554D01*
X214345317Y-93154553D01*
X214350262Y-93153070D01*
X214564133Y-93048295D01*
X214568336Y-93045297D01*
X214568341Y-93045294D01*
X214753816Y-92912996D01*
X214753818Y-92912994D01*
X214758020Y-92909997D01*
X214926716Y-92741889D01*
X214984979Y-92660807D01*
X215040972Y-92617160D01*
X215111676Y-92610714D01*
X215174640Y-92643516D01*
X215186582Y-92657176D01*
X215187274Y-92658306D01*
X215343204Y-92838317D01*
X215526442Y-92990444D01*
X215530894Y-92993046D01*
X215530899Y-92993049D01*
X215694899Y-93088883D01*
X215732065Y-93110601D01*
X215954552Y-93195560D01*
X215959618Y-93196591D01*
X215959619Y-93196591D01*
X216013956Y-93207646D01*
X216187928Y-93243041D01*
X216321284Y-93247931D01*
X216420760Y-93251579D01*
X216420764Y-93251579D01*
X216425924Y-93251768D01*
X216431044Y-93251112D01*
X216431046Y-93251112D01*
X216657023Y-93222164D01*
X216657024Y-93222164D01*
X216662151Y-93221507D01*
X216667101Y-93220022D01*
X216885316Y-93154554D01*
X216885317Y-93154553D01*
X216890262Y-93153070D01*
X217104133Y-93048295D01*
X217108336Y-93045297D01*
X217108341Y-93045294D01*
X217293816Y-92912996D01*
X217293818Y-92912994D01*
X217298020Y-92909997D01*
X217466716Y-92741889D01*
X217524979Y-92660807D01*
X217580972Y-92617160D01*
X217651676Y-92610714D01*
X217714640Y-92643516D01*
X217726582Y-92657176D01*
X217727274Y-92658306D01*
X217883204Y-92838317D01*
X218066442Y-92990444D01*
X218070894Y-92993046D01*
X218070899Y-92993049D01*
X218234899Y-93088883D01*
X218272065Y-93110601D01*
X218494552Y-93195560D01*
X218499618Y-93196591D01*
X218499619Y-93196591D01*
X218553956Y-93207646D01*
X218727928Y-93243041D01*
X218861284Y-93247931D01*
X218960760Y-93251579D01*
X218960764Y-93251579D01*
X218965924Y-93251768D01*
X218971044Y-93251112D01*
X218971046Y-93251112D01*
X219197023Y-93222164D01*
X219197024Y-93222164D01*
X219202151Y-93221507D01*
X219207101Y-93220022D01*
X219425316Y-93154554D01*
X219425317Y-93154553D01*
X219430262Y-93153070D01*
X219644133Y-93048295D01*
X219648336Y-93045297D01*
X219648341Y-93045294D01*
X219833816Y-92912996D01*
X219833818Y-92912994D01*
X219838020Y-92909997D01*
X220006716Y-92741889D01*
X220064979Y-92660807D01*
X220120972Y-92617160D01*
X220191676Y-92610714D01*
X220254640Y-92643516D01*
X220266582Y-92657176D01*
X220267274Y-92658306D01*
X220423204Y-92838317D01*
X220606442Y-92990444D01*
X220610894Y-92993046D01*
X220610899Y-92993049D01*
X220774899Y-93088883D01*
X220812065Y-93110601D01*
X221034552Y-93195560D01*
X221039618Y-93196591D01*
X221039619Y-93196591D01*
X221093956Y-93207646D01*
X221267928Y-93243041D01*
X221401284Y-93247931D01*
X221500760Y-93251579D01*
X221500764Y-93251579D01*
X221505924Y-93251768D01*
X221511044Y-93251112D01*
X221511046Y-93251112D01*
X221737023Y-93222164D01*
X221737024Y-93222164D01*
X221742151Y-93221507D01*
X221747101Y-93220022D01*
X221965316Y-93154554D01*
X221965317Y-93154553D01*
X221970262Y-93153070D01*
X222184133Y-93048295D01*
X222188336Y-93045297D01*
X222188341Y-93045294D01*
X222373816Y-92912996D01*
X222373818Y-92912994D01*
X222378020Y-92909997D01*
X222546716Y-92741889D01*
X222604979Y-92660807D01*
X222660972Y-92617160D01*
X222731676Y-92610714D01*
X222794640Y-92643516D01*
X222806582Y-92657176D01*
X222807274Y-92658306D01*
X222963204Y-92838317D01*
X223146442Y-92990444D01*
X223150894Y-92993046D01*
X223150899Y-92993049D01*
X223314899Y-93088883D01*
X223352065Y-93110601D01*
X223574552Y-93195560D01*
X223579618Y-93196591D01*
X223579619Y-93196591D01*
X223633956Y-93207646D01*
X223807928Y-93243041D01*
X223941284Y-93247931D01*
X224040760Y-93251579D01*
X224040764Y-93251579D01*
X224045924Y-93251768D01*
X224051044Y-93251112D01*
X224051046Y-93251112D01*
X224277023Y-93222164D01*
X224277024Y-93222164D01*
X224282151Y-93221507D01*
X224287101Y-93220022D01*
X224505316Y-93154554D01*
X224505317Y-93154553D01*
X224510262Y-93153070D01*
X224724133Y-93048295D01*
X224728336Y-93045297D01*
X224728341Y-93045294D01*
X224913810Y-92913000D01*
X224918020Y-92909997D01*
X224920601Y-92907425D01*
X224985135Y-92878913D01*
X225055278Y-92889886D01*
X225108355Y-92937039D01*
X225119502Y-92959610D01*
X225129585Y-92986505D01*
X225216939Y-93103061D01*
X225333495Y-93190415D01*
X225469884Y-93241545D01*
X225532066Y-93248300D01*
X227507934Y-93248300D01*
X227570116Y-93241545D01*
X227706505Y-93190415D01*
X227823061Y-93103061D01*
X227910415Y-92986505D01*
X227961545Y-92850116D01*
X227968300Y-92787934D01*
X227968300Y-90812066D01*
X227961545Y-90749884D01*
X227910415Y-90613495D01*
X227823061Y-90496939D01*
X227706505Y-90409585D01*
X227570116Y-90358455D01*
X227507934Y-90351700D01*
X225532066Y-90351700D01*
X225469884Y-90358455D01*
X225333495Y-90409585D01*
X225216939Y-90496939D01*
X225129585Y-90613495D01*
X225126433Y-90621903D01*
X225118218Y-90643816D01*
X225075576Y-90700580D01*
X225009014Y-90725280D01*
X224939666Y-90710072D01*
X224922144Y-90698468D01*
X224788278Y-90592747D01*
X224788273Y-90592744D01*
X224784224Y-90589546D01*
X224779708Y-90587053D01*
X224779705Y-90587051D01*
X224580250Y-90476946D01*
X224580246Y-90476944D01*
X224575726Y-90474449D01*
X224570857Y-90472725D01*
X224570853Y-90472723D01*
X224356105Y-90396676D01*
X224356101Y-90396675D01*
X224351230Y-90394950D01*
X224346140Y-90394043D01*
X224346135Y-90394042D01*
X224204388Y-90368794D01*
X224116764Y-90353186D01*
X224025355Y-90352069D01*
X223883795Y-90350339D01*
X223883793Y-90350339D01*
X223878625Y-90350276D01*
X223643209Y-90386300D01*
X223416838Y-90460289D01*
X223392953Y-90472723D01*
X223244740Y-90549878D01*
X223205590Y-90570258D01*
X223201457Y-90573361D01*
X223201454Y-90573363D01*
X223019375Y-90710072D01*
X223015140Y-90713252D01*
X223011568Y-90716990D01*
X222896155Y-90837763D01*
X222850602Y-90885431D01*
X222816936Y-90934784D01*
X222815186Y-90937349D01*
X222760274Y-90982351D01*
X222689749Y-90990522D01*
X222626002Y-90959267D01*
X222605306Y-90934784D01*
X222594217Y-90917642D01*
X222594212Y-90917636D01*
X222591406Y-90913298D01*
X222562197Y-90881197D01*
X222531700Y-90847682D01*
X222431124Y-90737150D01*
X222427073Y-90733951D01*
X222427069Y-90733947D01*
X222248278Y-90592747D01*
X222248273Y-90592744D01*
X222244224Y-90589546D01*
X222239708Y-90587053D01*
X222239705Y-90587051D01*
X222040250Y-90476946D01*
X222040246Y-90476944D01*
X222035726Y-90474449D01*
X222030857Y-90472725D01*
X222030853Y-90472723D01*
X221816105Y-90396676D01*
X221816101Y-90396675D01*
X221811230Y-90394950D01*
X221806140Y-90394043D01*
X221806135Y-90394042D01*
X221664388Y-90368794D01*
X221576764Y-90353186D01*
X221485355Y-90352069D01*
X221343795Y-90350339D01*
X221343793Y-90350339D01*
X221338625Y-90350276D01*
X221103209Y-90386300D01*
X220876838Y-90460289D01*
X220852953Y-90472723D01*
X220704740Y-90549878D01*
X220665590Y-90570258D01*
X220661457Y-90573361D01*
X220661454Y-90573363D01*
X220479375Y-90710072D01*
X220475140Y-90713252D01*
X220471568Y-90716990D01*
X220356155Y-90837763D01*
X220310602Y-90885431D01*
X220276936Y-90934784D01*
X220275186Y-90937349D01*
X220220274Y-90982351D01*
X220149749Y-90990522D01*
X220086002Y-90959267D01*
X220065306Y-90934784D01*
X220054217Y-90917642D01*
X220054212Y-90917636D01*
X220051406Y-90913298D01*
X220022197Y-90881197D01*
X219991700Y-90847682D01*
X219891124Y-90737150D01*
X219887073Y-90733951D01*
X219887069Y-90733947D01*
X219708278Y-90592747D01*
X219708273Y-90592744D01*
X219704224Y-90589546D01*
X219699708Y-90587053D01*
X219699705Y-90587051D01*
X219500250Y-90476946D01*
X219500246Y-90476944D01*
X219495726Y-90474449D01*
X219490853Y-90472723D01*
X219490850Y-90472722D01*
X219471842Y-90465991D01*
X219414305Y-90424397D01*
X219388389Y-90358300D01*
X219402323Y-90288684D01*
X219439840Y-90245282D01*
X219477503Y-90217918D01*
X219531253Y-90178866D01*
X219641373Y-90056565D01*
X219654621Y-90041852D01*
X219654622Y-90041851D01*
X219659040Y-90036944D01*
X219717314Y-89936010D01*
X219751223Y-89877279D01*
X219751224Y-89877278D01*
X219754527Y-89871556D01*
X219813542Y-89689928D01*
X219833504Y-89500000D01*
X219813542Y-89310072D01*
X219754527Y-89128444D01*
X219659040Y-88963056D01*
X219531253Y-88821134D01*
X219376752Y-88708882D01*
X219370724Y-88706198D01*
X219370722Y-88706197D01*
X219208319Y-88633891D01*
X219208318Y-88633891D01*
X219202288Y-88631206D01*
X219108887Y-88611353D01*
X219021944Y-88592872D01*
X219021939Y-88592872D01*
X219015487Y-88591500D01*
X218824513Y-88591500D01*
X218818061Y-88592872D01*
X218818056Y-88592872D01*
X218731113Y-88611353D01*
X218637712Y-88631206D01*
X218631682Y-88633891D01*
X218631681Y-88633891D01*
X218469278Y-88706197D01*
X218469276Y-88706198D01*
X218463248Y-88708882D01*
X218308747Y-88821134D01*
X218180960Y-88963056D01*
X218085473Y-89128444D01*
X218026458Y-89310072D01*
X218006496Y-89500000D01*
X218026458Y-89689928D01*
X218085473Y-89871556D01*
X218088776Y-89877278D01*
X218088777Y-89877279D01*
X218122686Y-89936010D01*
X218180960Y-90036944D01*
X218185378Y-90041851D01*
X218185379Y-90041852D01*
X218198627Y-90056565D01*
X218308747Y-90178866D01*
X218384993Y-90234262D01*
X218428346Y-90290483D01*
X218434421Y-90361219D01*
X218401290Y-90424011D01*
X218350077Y-90455962D01*
X218336838Y-90460289D01*
X218312953Y-90472723D01*
X218164740Y-90549878D01*
X218125590Y-90570258D01*
X218121457Y-90573361D01*
X218121454Y-90573363D01*
X217939375Y-90710072D01*
X217935140Y-90713252D01*
X217931568Y-90716990D01*
X217816155Y-90837763D01*
X217770602Y-90885431D01*
X217736936Y-90934784D01*
X217735186Y-90937349D01*
X217680274Y-90982351D01*
X217609749Y-90990522D01*
X217546002Y-90959267D01*
X217525306Y-90934784D01*
X217514217Y-90917642D01*
X217514212Y-90917636D01*
X217511406Y-90913298D01*
X217482197Y-90881197D01*
X217451700Y-90847682D01*
X217351124Y-90737150D01*
X217347073Y-90733951D01*
X217347069Y-90733947D01*
X217168278Y-90592747D01*
X217168273Y-90592744D01*
X217164224Y-90589546D01*
X217159708Y-90587053D01*
X217159705Y-90587051D01*
X216960250Y-90476946D01*
X216960246Y-90476944D01*
X216955726Y-90474449D01*
X216950857Y-90472725D01*
X216950853Y-90472723D01*
X216736105Y-90396676D01*
X216736101Y-90396675D01*
X216731230Y-90394950D01*
X216726140Y-90394043D01*
X216726135Y-90394042D01*
X216584388Y-90368794D01*
X216496764Y-90353186D01*
X216405355Y-90352069D01*
X216263795Y-90350339D01*
X216263793Y-90350339D01*
X216258625Y-90350276D01*
X216023209Y-90386300D01*
X215796838Y-90460289D01*
X215772953Y-90472723D01*
X215624740Y-90549878D01*
X215585590Y-90570258D01*
X215581457Y-90573361D01*
X215581454Y-90573363D01*
X215399375Y-90710072D01*
X215395140Y-90713252D01*
X215391568Y-90716990D01*
X215276155Y-90837763D01*
X215230602Y-90885431D01*
X215196936Y-90934784D01*
X215195186Y-90937349D01*
X215140274Y-90982351D01*
X215069749Y-90990522D01*
X215006002Y-90959267D01*
X214985306Y-90934784D01*
X214974217Y-90917642D01*
X214974212Y-90917636D01*
X214971406Y-90913298D01*
X214942197Y-90881197D01*
X214911700Y-90847682D01*
X214811124Y-90737150D01*
X214807073Y-90733951D01*
X214807069Y-90733947D01*
X214628278Y-90592747D01*
X214628273Y-90592744D01*
X214624224Y-90589546D01*
X214619708Y-90587053D01*
X214619705Y-90587051D01*
X214420250Y-90476946D01*
X214420246Y-90476944D01*
X214415726Y-90474449D01*
X214410857Y-90472725D01*
X214410853Y-90472723D01*
X214196105Y-90396676D01*
X214196101Y-90396675D01*
X214191230Y-90394950D01*
X214186140Y-90394043D01*
X214186135Y-90394042D01*
X214044388Y-90368794D01*
X213956764Y-90353186D01*
X213865355Y-90352069D01*
X213723795Y-90350339D01*
X213723793Y-90350339D01*
X213718625Y-90350276D01*
X213483209Y-90386300D01*
X213256838Y-90460289D01*
X213232953Y-90472723D01*
X213084740Y-90549878D01*
X213045590Y-90570258D01*
X213041457Y-90573361D01*
X213041454Y-90573363D01*
X212859375Y-90710072D01*
X212855140Y-90713252D01*
X212851568Y-90716990D01*
X212736155Y-90837763D01*
X212690602Y-90885431D01*
X212687691Y-90889699D01*
X212687687Y-90889704D01*
X212640234Y-90959267D01*
X212556394Y-91082172D01*
X212522033Y-91156197D01*
X212466402Y-91276045D01*
X212456122Y-91298191D01*
X212392477Y-91527685D01*
X212391928Y-91532819D01*
X212391928Y-91532821D01*
X212387664Y-91572721D01*
X212367170Y-91764494D01*
X211343500Y-91764494D01*
X211343500Y-85300000D01*
X212936496Y-85300000D01*
X212956458Y-85489928D01*
X213015473Y-85671556D01*
X213110960Y-85836944D01*
X213115378Y-85841851D01*
X213115379Y-85841852D01*
X213218344Y-85956206D01*
X213238747Y-85978866D01*
X213393248Y-86091118D01*
X213399276Y-86093802D01*
X213399278Y-86093803D01*
X213561681Y-86166109D01*
X213567712Y-86168794D01*
X213661112Y-86188647D01*
X213748056Y-86207128D01*
X213748061Y-86207128D01*
X213754513Y-86208500D01*
X213945487Y-86208500D01*
X213951939Y-86207128D01*
X213951944Y-86207128D01*
X214038887Y-86188647D01*
X214132288Y-86168794D01*
X214138319Y-86166109D01*
X214300722Y-86093803D01*
X214300724Y-86093802D01*
X214306752Y-86091118D01*
X214461253Y-85978866D01*
X214481656Y-85956206D01*
X214584621Y-85841852D01*
X214584622Y-85841851D01*
X214589040Y-85836944D01*
X214684527Y-85671556D01*
X214743542Y-85489928D01*
X214763504Y-85300000D01*
X214743542Y-85110072D01*
X214684527Y-84928444D01*
X214589040Y-84763056D01*
X214461253Y-84621134D01*
X214306752Y-84508882D01*
X214300724Y-84506198D01*
X214300722Y-84506197D01*
X214138319Y-84433891D01*
X214138318Y-84433891D01*
X214132288Y-84431206D01*
X214038887Y-84411353D01*
X213951944Y-84392872D01*
X213951939Y-84392872D01*
X213945487Y-84391500D01*
X213754513Y-84391500D01*
X213748061Y-84392872D01*
X213748056Y-84392872D01*
X213661113Y-84411353D01*
X213567712Y-84431206D01*
X213561682Y-84433891D01*
X213561681Y-84433891D01*
X213399278Y-84506197D01*
X213399276Y-84506198D01*
X213393248Y-84508882D01*
X213238747Y-84621134D01*
X213110960Y-84763056D01*
X213015473Y-84928444D01*
X212956458Y-85110072D01*
X212936496Y-85300000D01*
X211343500Y-85300000D01*
X211343500Y-83970000D01*
X220516496Y-83970000D01*
X220517186Y-83976565D01*
X220535006Y-84146109D01*
X220536458Y-84159928D01*
X220595473Y-84341556D01*
X220690960Y-84506944D01*
X220818747Y-84648866D01*
X220973248Y-84761118D01*
X220979276Y-84763802D01*
X220979278Y-84763803D01*
X221141681Y-84836109D01*
X221147712Y-84838794D01*
X221241112Y-84858647D01*
X221328056Y-84877128D01*
X221328061Y-84877128D01*
X221334513Y-84878500D01*
X221525487Y-84878500D01*
X221531939Y-84877128D01*
X221531944Y-84877128D01*
X221618888Y-84858647D01*
X221712288Y-84838794D01*
X221718319Y-84836109D01*
X221880722Y-84763803D01*
X221880724Y-84763802D01*
X221886752Y-84761118D01*
X222041253Y-84648866D01*
X222169040Y-84506944D01*
X222264527Y-84341556D01*
X222323542Y-84159928D01*
X222324995Y-84146109D01*
X222342814Y-83976565D01*
X222343504Y-83970000D01*
X222327933Y-83821852D01*
X222324232Y-83786635D01*
X222324232Y-83786633D01*
X222323542Y-83780072D01*
X222264527Y-83598444D01*
X222169040Y-83433056D01*
X222134981Y-83395229D01*
X222045675Y-83296045D01*
X222045674Y-83296044D01*
X222041253Y-83291134D01*
X221886752Y-83178882D01*
X221880724Y-83176198D01*
X221880722Y-83176197D01*
X221718319Y-83103891D01*
X221718318Y-83103891D01*
X221712288Y-83101206D01*
X221609615Y-83079382D01*
X221531944Y-83062872D01*
X221531939Y-83062872D01*
X221525487Y-83061500D01*
X221334513Y-83061500D01*
X221328061Y-83062872D01*
X221328056Y-83062872D01*
X221250385Y-83079382D01*
X221147712Y-83101206D01*
X221141682Y-83103891D01*
X221141681Y-83103891D01*
X220979278Y-83176197D01*
X220979276Y-83176198D01*
X220973248Y-83178882D01*
X220818747Y-83291134D01*
X220814326Y-83296044D01*
X220814325Y-83296045D01*
X220725020Y-83395229D01*
X220690960Y-83433056D01*
X220595473Y-83598444D01*
X220536458Y-83780072D01*
X220535768Y-83786633D01*
X220535768Y-83786635D01*
X220532067Y-83821852D01*
X220516496Y-83970000D01*
X211343500Y-83970000D01*
X211343500Y-77665000D01*
X223136681Y-77665000D01*
X223155928Y-77909557D01*
X223157082Y-77914364D01*
X223157083Y-77914370D01*
X223168972Y-77963891D01*
X223213195Y-78148092D01*
X223307073Y-78374732D01*
X223435248Y-78583896D01*
X223438463Y-78587660D01*
X223438465Y-78587663D01*
X223591359Y-78766677D01*
X223594567Y-78770433D01*
X223598323Y-78773641D01*
X223734930Y-78890315D01*
X223781104Y-78929752D01*
X223785327Y-78932340D01*
X223785330Y-78932342D01*
X223854515Y-78974738D01*
X223990268Y-79057927D01*
X224134967Y-79117864D01*
X224212335Y-79149911D01*
X224212337Y-79149912D01*
X224216908Y-79151805D01*
X224299563Y-79171649D01*
X224450630Y-79207917D01*
X224450636Y-79207918D01*
X224455443Y-79209072D01*
X224700000Y-79228319D01*
X224944557Y-79209072D01*
X224949364Y-79207918D01*
X224949370Y-79207917D01*
X225100437Y-79171649D01*
X225183092Y-79151805D01*
X225187663Y-79149912D01*
X225187665Y-79149911D01*
X225265033Y-79117864D01*
X225409732Y-79057927D01*
X225545485Y-78974738D01*
X225614670Y-78932342D01*
X225614673Y-78932340D01*
X225618896Y-78929752D01*
X225665071Y-78890315D01*
X225801677Y-78773641D01*
X225805433Y-78770433D01*
X225808641Y-78766677D01*
X225961535Y-78587663D01*
X225961537Y-78587660D01*
X225964752Y-78583896D01*
X226092927Y-78374732D01*
X226186805Y-78148092D01*
X226231028Y-77963891D01*
X226242917Y-77914370D01*
X226242918Y-77914364D01*
X226244072Y-77909557D01*
X226263319Y-77665000D01*
X226244072Y-77420443D01*
X226238288Y-77396347D01*
X226187960Y-77186720D01*
X226186805Y-77181908D01*
X226092927Y-76955268D01*
X225984168Y-76777788D01*
X225965630Y-76709255D01*
X225987087Y-76641578D01*
X226016035Y-76611128D01*
X226059287Y-76578712D01*
X226113261Y-76538261D01*
X226200615Y-76421705D01*
X226251745Y-76285316D01*
X226258500Y-76223134D01*
X226258500Y-74026866D01*
X226251745Y-73964684D01*
X226200615Y-73828295D01*
X226113261Y-73711739D01*
X225996705Y-73624385D01*
X225860316Y-73573255D01*
X225798134Y-73566500D01*
X223601866Y-73566500D01*
X223539684Y-73573255D01*
X223403295Y-73624385D01*
X223286739Y-73711739D01*
X223199385Y-73828295D01*
X223148255Y-73964684D01*
X223141500Y-74026866D01*
X223141500Y-76223134D01*
X223148255Y-76285316D01*
X223199385Y-76421705D01*
X223286739Y-76538261D01*
X223340713Y-76578712D01*
X223383965Y-76611128D01*
X223426479Y-76667988D01*
X223431504Y-76738806D01*
X223415832Y-76777788D01*
X223307073Y-76955268D01*
X223213195Y-77181908D01*
X223212040Y-77186720D01*
X223161713Y-77396347D01*
X223155928Y-77420443D01*
X223136681Y-77665000D01*
X211343500Y-77665000D01*
X211343500Y-77557024D01*
X211363502Y-77488903D01*
X211375858Y-77472721D01*
X211449040Y-77391444D01*
X211544527Y-77226056D01*
X211603542Y-77044428D01*
X211604294Y-77037279D01*
X211622814Y-76861065D01*
X211623504Y-76854500D01*
X211603542Y-76664572D01*
X211602056Y-76660000D01*
X215366496Y-76660000D01*
X215386458Y-76849928D01*
X215445473Y-77031556D01*
X215448776Y-77037278D01*
X215448777Y-77037279D01*
X215452905Y-77044428D01*
X215540960Y-77196944D01*
X215545378Y-77201851D01*
X215545379Y-77201852D01*
X215640483Y-77307476D01*
X215668747Y-77338866D01*
X215823248Y-77451118D01*
X215829276Y-77453802D01*
X215829278Y-77453803D01*
X215991681Y-77526109D01*
X215997712Y-77528794D01*
X216091112Y-77548647D01*
X216178056Y-77567128D01*
X216178061Y-77567128D01*
X216184513Y-77568500D01*
X216375487Y-77568500D01*
X216381939Y-77567128D01*
X216381944Y-77567128D01*
X216468887Y-77548647D01*
X216562288Y-77528794D01*
X216568319Y-77526109D01*
X216730722Y-77453803D01*
X216730724Y-77453802D01*
X216736752Y-77451118D01*
X216891253Y-77338866D01*
X216919517Y-77307476D01*
X217014621Y-77201852D01*
X217014622Y-77201851D01*
X217019040Y-77196944D01*
X217107095Y-77044428D01*
X217111223Y-77037279D01*
X217111224Y-77037278D01*
X217114527Y-77031556D01*
X217173542Y-76849928D01*
X217193504Y-76660000D01*
X217176402Y-76497279D01*
X217174232Y-76476635D01*
X217174232Y-76476633D01*
X217173542Y-76470072D01*
X217114527Y-76288444D01*
X217108186Y-76277460D01*
X217056355Y-76187688D01*
X217019040Y-76123056D01*
X216984484Y-76084677D01*
X216895675Y-75986045D01*
X216895674Y-75986044D01*
X216891253Y-75981134D01*
X216736752Y-75868882D01*
X216730724Y-75866198D01*
X216730722Y-75866197D01*
X216568319Y-75793891D01*
X216568318Y-75793891D01*
X216562288Y-75791206D01*
X216446362Y-75766565D01*
X216381944Y-75752872D01*
X216381939Y-75752872D01*
X216375487Y-75751500D01*
X216184513Y-75751500D01*
X216178061Y-75752872D01*
X216178056Y-75752872D01*
X216113638Y-75766565D01*
X215997712Y-75791206D01*
X215991682Y-75793891D01*
X215991681Y-75793891D01*
X215829278Y-75866197D01*
X215829276Y-75866198D01*
X215823248Y-75868882D01*
X215668747Y-75981134D01*
X215664326Y-75986044D01*
X215664325Y-75986045D01*
X215575517Y-76084677D01*
X215540960Y-76123056D01*
X215503645Y-76187688D01*
X215451815Y-76277460D01*
X215445473Y-76288444D01*
X215386458Y-76470072D01*
X215385768Y-76476633D01*
X215385768Y-76476635D01*
X215383598Y-76497279D01*
X215366496Y-76660000D01*
X211602056Y-76660000D01*
X211544527Y-76482944D01*
X211540885Y-76476635D01*
X211479507Y-76370327D01*
X211449040Y-76317556D01*
X211436263Y-76303365D01*
X211325675Y-76180545D01*
X211325674Y-76180544D01*
X211321253Y-76175634D01*
X211166752Y-76063382D01*
X211160724Y-76060698D01*
X211160722Y-76060697D01*
X210998319Y-75988391D01*
X210998318Y-75988391D01*
X210992288Y-75985706D01*
X210898887Y-75965853D01*
X210811944Y-75947372D01*
X210811939Y-75947372D01*
X210805487Y-75946000D01*
X210720261Y-75946000D01*
X210652140Y-75925998D01*
X210605647Y-75872342D01*
X210600428Y-75858936D01*
X210577976Y-75789834D01*
X210564527Y-75748444D01*
X210469040Y-75583056D01*
X210454716Y-75567147D01*
X210345675Y-75446045D01*
X210345674Y-75446044D01*
X210341253Y-75441134D01*
X210186752Y-75328882D01*
X210180724Y-75326198D01*
X210180722Y-75326197D01*
X210018319Y-75253891D01*
X210018318Y-75253891D01*
X210012288Y-75251206D01*
X209918887Y-75231353D01*
X209831944Y-75212872D01*
X209831939Y-75212872D01*
X209825487Y-75211500D01*
X209634513Y-75211500D01*
X209628061Y-75212872D01*
X209628056Y-75212872D01*
X209541113Y-75231353D01*
X209447712Y-75251206D01*
X209441682Y-75253891D01*
X209441681Y-75253891D01*
X209279278Y-75326197D01*
X209279276Y-75326198D01*
X209273248Y-75328882D01*
X209118747Y-75441134D01*
X209114326Y-75446044D01*
X209114325Y-75446045D01*
X209005285Y-75567147D01*
X208990960Y-75583056D01*
X208895473Y-75748444D01*
X208836458Y-75930072D01*
X208816496Y-76120000D01*
X208817186Y-76126565D01*
X208834861Y-76294729D01*
X208836458Y-76309928D01*
X208895473Y-76491556D01*
X208898776Y-76497278D01*
X208898777Y-76497279D01*
X208929861Y-76551118D01*
X208990960Y-76656944D01*
X209064137Y-76738215D01*
X209094853Y-76802221D01*
X209096500Y-76822524D01*
X209096500Y-77307476D01*
X209076498Y-77375597D01*
X209064142Y-77391779D01*
X208990960Y-77473056D01*
X208895473Y-77638444D01*
X208836458Y-77820072D01*
X208816496Y-78010000D01*
X208817186Y-78016565D01*
X208831491Y-78152665D01*
X208836458Y-78199928D01*
X208895473Y-78381556D01*
X208898776Y-78387278D01*
X208898777Y-78387279D01*
X208901943Y-78392763D01*
X208990960Y-78546944D01*
X209064137Y-78628215D01*
X209094853Y-78692221D01*
X209096500Y-78712524D01*
X209096500Y-92075406D01*
X209076498Y-92143527D01*
X209059595Y-92164501D01*
X207044896Y-94179199D01*
X206982586Y-94213224D01*
X206911771Y-94208159D01*
X206854935Y-94165612D01*
X206830124Y-94099092D01*
X206846683Y-94027104D01*
X206874533Y-93978866D01*
X206884527Y-93961556D01*
X206943542Y-93779928D01*
X206963504Y-93590000D01*
X206943542Y-93400072D01*
X206884527Y-93218444D01*
X206868345Y-93190415D01*
X206809725Y-93088883D01*
X206789040Y-93053056D01*
X206721549Y-92978099D01*
X206665675Y-92916045D01*
X206665674Y-92916044D01*
X206661253Y-92911134D01*
X206535860Y-92820030D01*
X206512094Y-92802763D01*
X206512093Y-92802762D01*
X206506752Y-92798882D01*
X206500724Y-92796198D01*
X206500722Y-92796197D01*
X206338319Y-92723891D01*
X206338318Y-92723891D01*
X206332288Y-92721206D01*
X206238887Y-92701353D01*
X206151944Y-92682872D01*
X206151939Y-92682872D01*
X206145487Y-92681500D01*
X205992120Y-92681500D01*
X205923999Y-92661498D01*
X205877506Y-92607842D01*
X205867402Y-92537568D01*
X205883001Y-92492500D01*
X205906223Y-92452279D01*
X205906224Y-92452278D01*
X205909527Y-92446556D01*
X205968542Y-92264928D01*
X205988504Y-92075000D01*
X205975366Y-91950000D01*
X206636496Y-91950000D01*
X206637186Y-91956565D01*
X206649677Y-92075406D01*
X206656458Y-92139928D01*
X206715473Y-92321556D01*
X206718776Y-92327278D01*
X206718777Y-92327279D01*
X206731292Y-92348955D01*
X206810960Y-92486944D01*
X206815378Y-92491851D01*
X206815379Y-92491852D01*
X206896664Y-92582128D01*
X206938747Y-92628866D01*
X206983661Y-92661498D01*
X207065842Y-92721206D01*
X207093248Y-92741118D01*
X207099276Y-92743802D01*
X207099278Y-92743803D01*
X207252679Y-92812101D01*
X207267712Y-92818794D01*
X207359560Y-92838317D01*
X207448056Y-92857128D01*
X207448061Y-92857128D01*
X207454513Y-92858500D01*
X207645487Y-92858500D01*
X207651939Y-92857128D01*
X207651944Y-92857128D01*
X207740440Y-92838317D01*
X207832288Y-92818794D01*
X207847321Y-92812101D01*
X208000722Y-92743803D01*
X208000724Y-92743802D01*
X208006752Y-92741118D01*
X208034159Y-92721206D01*
X208116339Y-92661498D01*
X208161253Y-92628866D01*
X208203336Y-92582128D01*
X208284621Y-92491852D01*
X208284622Y-92491851D01*
X208289040Y-92486944D01*
X208368708Y-92348955D01*
X208381223Y-92327279D01*
X208381224Y-92327278D01*
X208384527Y-92321556D01*
X208443542Y-92139928D01*
X208450324Y-92075406D01*
X208462814Y-91956565D01*
X208463504Y-91950000D01*
X208443542Y-91760072D01*
X208384527Y-91578444D01*
X208358187Y-91532821D01*
X208334408Y-91491635D01*
X208289040Y-91413056D01*
X208273804Y-91396134D01*
X208165675Y-91276045D01*
X208165674Y-91276044D01*
X208161253Y-91271134D01*
X208052417Y-91192060D01*
X208012094Y-91162763D01*
X208012093Y-91162762D01*
X208006752Y-91158882D01*
X208000724Y-91156198D01*
X208000722Y-91156197D01*
X207838319Y-91083891D01*
X207838318Y-91083891D01*
X207832288Y-91081206D01*
X207727305Y-91058891D01*
X207651944Y-91042872D01*
X207651939Y-91042872D01*
X207645487Y-91041500D01*
X207454513Y-91041500D01*
X207448061Y-91042872D01*
X207448056Y-91042872D01*
X207372695Y-91058891D01*
X207267712Y-91081206D01*
X207261682Y-91083891D01*
X207261681Y-91083891D01*
X207099278Y-91156197D01*
X207099276Y-91156198D01*
X207093248Y-91158882D01*
X207087907Y-91162762D01*
X207087906Y-91162763D01*
X207047583Y-91192060D01*
X206938747Y-91271134D01*
X206934326Y-91276044D01*
X206934325Y-91276045D01*
X206826197Y-91396134D01*
X206810960Y-91413056D01*
X206765592Y-91491635D01*
X206741814Y-91532821D01*
X206715473Y-91578444D01*
X206656458Y-91760072D01*
X206636496Y-91950000D01*
X205975366Y-91950000D01*
X205972739Y-91925000D01*
X205969232Y-91891635D01*
X205969232Y-91891633D01*
X205968542Y-91885072D01*
X205909527Y-91703444D01*
X205814040Y-91538056D01*
X205809327Y-91532821D01*
X205690675Y-91401045D01*
X205690674Y-91401044D01*
X205686253Y-91396134D01*
X205558677Y-91303444D01*
X205537094Y-91287763D01*
X205537093Y-91287762D01*
X205531752Y-91283882D01*
X205525724Y-91281198D01*
X205525722Y-91281197D01*
X205363319Y-91208891D01*
X205363318Y-91208891D01*
X205357288Y-91206206D01*
X205263887Y-91186353D01*
X205176944Y-91167872D01*
X205176939Y-91167872D01*
X205170487Y-91166500D01*
X204979513Y-91166500D01*
X204973061Y-91167872D01*
X204973056Y-91167872D01*
X204886113Y-91186353D01*
X204792712Y-91206206D01*
X204786682Y-91208891D01*
X204786681Y-91208891D01*
X204624278Y-91281197D01*
X204624276Y-91281198D01*
X204618248Y-91283882D01*
X204612907Y-91287762D01*
X204612906Y-91287763D01*
X204591323Y-91303444D01*
X204463747Y-91396134D01*
X204459326Y-91401044D01*
X204459325Y-91401045D01*
X204340674Y-91532821D01*
X204335960Y-91538056D01*
X204240473Y-91703444D01*
X204181458Y-91885072D01*
X204180768Y-91891633D01*
X204180768Y-91891635D01*
X204177261Y-91925000D01*
X204161496Y-92075000D01*
X204181458Y-92264928D01*
X204240473Y-92446556D01*
X204260490Y-92481226D01*
X204284743Y-92523234D01*
X204301480Y-92592229D01*
X204278259Y-92659321D01*
X204269259Y-92670543D01*
X204209208Y-92737237D01*
X204185960Y-92763056D01*
X204135696Y-92850116D01*
X204097632Y-92916045D01*
X204090473Y-92928444D01*
X204031458Y-93110072D01*
X204030768Y-93116633D01*
X204030768Y-93116635D01*
X204020669Y-93212721D01*
X204011496Y-93300000D01*
X204031458Y-93489928D01*
X204090473Y-93671556D01*
X204185960Y-93836944D01*
X204190378Y-93841851D01*
X204190379Y-93841852D01*
X204292502Y-93955271D01*
X204313747Y-93978866D01*
X204380141Y-94027104D01*
X204450969Y-94078564D01*
X204494323Y-94134786D01*
X204500398Y-94205523D01*
X204467266Y-94268314D01*
X204405446Y-94303226D01*
X204376908Y-94306500D01*
X204004594Y-94306500D01*
X203936473Y-94286498D01*
X203915499Y-94269595D01*
X201622122Y-91976217D01*
X201588096Y-91913905D01*
X201585907Y-91900292D01*
X201569232Y-91741635D01*
X201569232Y-91741633D01*
X201568542Y-91735072D01*
X201509527Y-91553444D01*
X201414040Y-91388056D01*
X201320242Y-91283882D01*
X201290675Y-91251045D01*
X201290674Y-91251044D01*
X201286253Y-91246134D01*
X201171503Y-91162763D01*
X201137094Y-91137763D01*
X201137093Y-91137762D01*
X201131752Y-91133882D01*
X201125724Y-91131198D01*
X201125722Y-91131197D01*
X200963319Y-91058891D01*
X200963318Y-91058891D01*
X200957288Y-91056206D01*
X200863887Y-91036353D01*
X200776944Y-91017872D01*
X200776939Y-91017872D01*
X200770487Y-91016500D01*
X200579513Y-91016500D01*
X200573061Y-91017872D01*
X200573056Y-91017872D01*
X200486112Y-91036353D01*
X200392712Y-91056206D01*
X200386682Y-91058891D01*
X200386681Y-91058891D01*
X200224278Y-91131197D01*
X200224276Y-91131198D01*
X200218248Y-91133882D01*
X200212907Y-91137762D01*
X200212906Y-91137763D01*
X200171012Y-91168201D01*
X200104144Y-91192060D01*
X200034993Y-91175979D01*
X199987832Y-91129265D01*
X199981792Y-91118803D01*
X199964040Y-91088056D01*
X199847388Y-90958500D01*
X199840675Y-90951045D01*
X199840674Y-90951044D01*
X199836253Y-90946134D01*
X199695407Y-90843803D01*
X199687094Y-90837763D01*
X199687093Y-90837762D01*
X199681752Y-90833882D01*
X199675724Y-90831198D01*
X199675722Y-90831197D01*
X199513319Y-90758891D01*
X199513318Y-90758891D01*
X199507288Y-90756206D01*
X199413887Y-90736353D01*
X199326944Y-90717872D01*
X199326939Y-90717872D01*
X199320487Y-90716500D01*
X199129513Y-90716500D01*
X199123061Y-90717872D01*
X199123056Y-90717872D01*
X199036113Y-90736353D01*
X198942712Y-90756206D01*
X198936682Y-90758891D01*
X198936681Y-90758891D01*
X198774278Y-90831197D01*
X198774276Y-90831198D01*
X198768248Y-90833882D01*
X198762907Y-90837762D01*
X198762906Y-90837763D01*
X198754593Y-90843803D01*
X198694088Y-90887763D01*
X198627152Y-90936395D01*
X198560285Y-90960253D01*
X198491133Y-90944173D01*
X198479030Y-90936395D01*
X198412094Y-90887763D01*
X198412093Y-90887762D01*
X198406752Y-90883882D01*
X198400724Y-90881198D01*
X198400722Y-90881197D01*
X198238319Y-90808891D01*
X198238318Y-90808891D01*
X198232288Y-90806206D01*
X198138888Y-90786353D01*
X198051944Y-90767872D01*
X198051939Y-90767872D01*
X198045487Y-90766500D01*
X197854513Y-90766500D01*
X197848061Y-90767872D01*
X197848056Y-90767872D01*
X197761112Y-90786353D01*
X197667712Y-90806206D01*
X197661682Y-90808891D01*
X197661681Y-90808891D01*
X197499278Y-90881197D01*
X197499276Y-90881198D01*
X197493248Y-90883882D01*
X197487907Y-90887762D01*
X197487906Y-90887763D01*
X197445196Y-90918794D01*
X197338747Y-90996134D01*
X197334326Y-91001044D01*
X197334325Y-91001045D01*
X197234208Y-91112237D01*
X197210960Y-91138056D01*
X197165891Y-91216118D01*
X197122595Y-91291109D01*
X197115473Y-91303444D01*
X197056458Y-91485072D01*
X197036496Y-91675000D01*
X175668500Y-91675000D01*
X175668500Y-90325000D01*
X184511496Y-90325000D01*
X184512186Y-90331565D01*
X184528972Y-90491272D01*
X184531458Y-90514928D01*
X184590473Y-90696556D01*
X184593776Y-90702278D01*
X184593777Y-90702279D01*
X184602780Y-90717872D01*
X184685960Y-90861944D01*
X184690378Y-90866851D01*
X184690379Y-90866852D01*
X184737148Y-90918794D01*
X184813747Y-91003866D01*
X184833025Y-91017872D01*
X184951385Y-91103866D01*
X184968248Y-91116118D01*
X184974276Y-91118802D01*
X184974278Y-91118803D01*
X185136681Y-91191109D01*
X185142712Y-91193794D01*
X185229479Y-91212237D01*
X185323056Y-91232128D01*
X185323061Y-91232128D01*
X185329513Y-91233500D01*
X185520487Y-91233500D01*
X185526939Y-91232128D01*
X185526944Y-91232128D01*
X185620521Y-91212237D01*
X185707288Y-91193794D01*
X185713319Y-91191109D01*
X185875722Y-91118803D01*
X185875724Y-91118802D01*
X185881752Y-91116118D01*
X185898616Y-91103866D01*
X186016975Y-91017872D01*
X186036253Y-91003866D01*
X186112852Y-90918794D01*
X186159621Y-90866852D01*
X186159622Y-90866851D01*
X186164040Y-90861944D01*
X186247220Y-90717872D01*
X186256223Y-90702279D01*
X186256224Y-90702278D01*
X186259527Y-90696556D01*
X186307186Y-90549878D01*
X186347260Y-90491272D01*
X186412656Y-90463635D01*
X186482613Y-90475742D01*
X186534919Y-90523748D01*
X186552329Y-90575643D01*
X186556458Y-90614928D01*
X186615473Y-90796556D01*
X186618776Y-90802278D01*
X186618777Y-90802279D01*
X186682874Y-90913298D01*
X186710960Y-90961944D01*
X186715378Y-90966851D01*
X186715379Y-90966852D01*
X186818344Y-91081206D01*
X186838747Y-91103866D01*
X186993248Y-91216118D01*
X186999276Y-91218802D01*
X186999278Y-91218803D01*
X187145449Y-91283882D01*
X187167712Y-91293794D01*
X187242680Y-91309729D01*
X187348056Y-91332128D01*
X187348061Y-91332128D01*
X187354513Y-91333500D01*
X187545487Y-91333500D01*
X187551939Y-91332128D01*
X187551944Y-91332128D01*
X187657320Y-91309729D01*
X187732288Y-91293794D01*
X187754551Y-91283882D01*
X187900722Y-91218803D01*
X187900724Y-91218802D01*
X187906752Y-91216118D01*
X188061253Y-91103866D01*
X188081656Y-91081206D01*
X188184621Y-90966852D01*
X188184622Y-90966851D01*
X188189040Y-90961944D01*
X188217126Y-90913298D01*
X188281223Y-90802279D01*
X188281224Y-90802278D01*
X188284527Y-90796556D01*
X188343542Y-90614928D01*
X188345968Y-90591852D01*
X188362814Y-90431565D01*
X188363504Y-90425000D01*
X188357597Y-90368794D01*
X188344232Y-90241635D01*
X188344232Y-90241633D01*
X188343542Y-90235072D01*
X188284527Y-90053444D01*
X188282539Y-90050000D01*
X205586496Y-90050000D01*
X205587186Y-90056565D01*
X205605021Y-90226252D01*
X205606458Y-90239928D01*
X205665473Y-90421556D01*
X205668776Y-90427278D01*
X205668777Y-90427279D01*
X205689215Y-90462679D01*
X205760960Y-90586944D01*
X205765378Y-90591851D01*
X205765379Y-90591852D01*
X205878054Y-90716990D01*
X205888747Y-90728866D01*
X205930073Y-90758891D01*
X206033289Y-90833882D01*
X206043248Y-90841118D01*
X206049276Y-90843802D01*
X206049278Y-90843803D01*
X206211681Y-90916109D01*
X206217712Y-90918794D01*
X206292939Y-90934784D01*
X206398056Y-90957128D01*
X206398061Y-90957128D01*
X206404513Y-90958500D01*
X206595487Y-90958500D01*
X206601939Y-90957128D01*
X206601944Y-90957128D01*
X206707061Y-90934784D01*
X206782288Y-90918794D01*
X206788319Y-90916109D01*
X206950722Y-90843803D01*
X206950724Y-90843802D01*
X206956752Y-90841118D01*
X206966712Y-90833882D01*
X207069927Y-90758891D01*
X207111253Y-90728866D01*
X207121946Y-90716990D01*
X207234621Y-90591852D01*
X207234622Y-90591851D01*
X207239040Y-90586944D01*
X207310785Y-90462679D01*
X207331223Y-90427279D01*
X207331224Y-90427278D01*
X207334527Y-90421556D01*
X207393542Y-90239928D01*
X207394980Y-90226252D01*
X207412814Y-90056565D01*
X207413504Y-90050000D01*
X207396483Y-89888056D01*
X207394232Y-89866635D01*
X207394232Y-89866633D01*
X207393542Y-89860072D01*
X207334527Y-89678444D01*
X207239040Y-89513056D01*
X207233196Y-89506565D01*
X207115675Y-89376045D01*
X207115674Y-89376044D01*
X207111253Y-89371134D01*
X206956752Y-89258882D01*
X206950724Y-89256198D01*
X206950722Y-89256197D01*
X206788319Y-89183891D01*
X206788318Y-89183891D01*
X206782288Y-89181206D01*
X206688888Y-89161353D01*
X206601944Y-89142872D01*
X206601939Y-89142872D01*
X206595487Y-89141500D01*
X206404513Y-89141500D01*
X206398061Y-89142872D01*
X206398056Y-89142872D01*
X206311112Y-89161353D01*
X206217712Y-89181206D01*
X206211682Y-89183891D01*
X206211681Y-89183891D01*
X206049278Y-89256197D01*
X206049276Y-89256198D01*
X206043248Y-89258882D01*
X205888747Y-89371134D01*
X205884326Y-89376044D01*
X205884325Y-89376045D01*
X205766805Y-89506565D01*
X205760960Y-89513056D01*
X205665473Y-89678444D01*
X205606458Y-89860072D01*
X205605768Y-89866633D01*
X205605768Y-89866635D01*
X205603517Y-89888056D01*
X205586496Y-90050000D01*
X188282539Y-90050000D01*
X188277835Y-90041852D01*
X188247314Y-89988990D01*
X188189040Y-89888056D01*
X188179337Y-89877279D01*
X188065675Y-89751045D01*
X188065674Y-89751044D01*
X188061253Y-89746134D01*
X187930375Y-89651045D01*
X187912094Y-89637763D01*
X187912093Y-89637762D01*
X187906752Y-89633882D01*
X187900724Y-89631198D01*
X187900722Y-89631197D01*
X187738319Y-89558891D01*
X187738318Y-89558891D01*
X187732288Y-89556206D01*
X187638887Y-89536353D01*
X187551944Y-89517872D01*
X187551939Y-89517872D01*
X187545487Y-89516500D01*
X187354513Y-89516500D01*
X187348061Y-89517872D01*
X187348056Y-89517872D01*
X187261112Y-89536353D01*
X187167712Y-89556206D01*
X187161682Y-89558891D01*
X187161681Y-89558891D01*
X186999278Y-89631197D01*
X186999276Y-89631198D01*
X186993248Y-89633882D01*
X186987907Y-89637762D01*
X186987906Y-89637763D01*
X186969625Y-89651045D01*
X186838747Y-89746134D01*
X186834326Y-89751044D01*
X186834325Y-89751045D01*
X186720664Y-89877279D01*
X186710960Y-89888056D01*
X186652686Y-89988990D01*
X186622166Y-90041852D01*
X186615473Y-90053444D01*
X186613431Y-90059729D01*
X186567814Y-90200122D01*
X186527740Y-90258728D01*
X186462344Y-90286365D01*
X186392387Y-90274258D01*
X186340081Y-90226252D01*
X186322671Y-90174357D01*
X186319232Y-90141635D01*
X186319232Y-90141633D01*
X186318542Y-90135072D01*
X186259527Y-89953444D01*
X186164040Y-89788056D01*
X186036253Y-89646134D01*
X185881752Y-89533882D01*
X185875724Y-89531198D01*
X185875722Y-89531197D01*
X185713319Y-89458891D01*
X185713318Y-89458891D01*
X185707288Y-89456206D01*
X185613888Y-89436353D01*
X185526944Y-89417872D01*
X185526939Y-89417872D01*
X185520487Y-89416500D01*
X185329513Y-89416500D01*
X185323061Y-89417872D01*
X185323056Y-89417872D01*
X185236112Y-89436353D01*
X185142712Y-89456206D01*
X185136682Y-89458891D01*
X185136681Y-89458891D01*
X184974278Y-89531197D01*
X184974276Y-89531198D01*
X184968248Y-89533882D01*
X184813747Y-89646134D01*
X184685960Y-89788056D01*
X184590473Y-89953444D01*
X184531458Y-90135072D01*
X184530768Y-90141633D01*
X184530768Y-90141635D01*
X184521127Y-90233365D01*
X184511496Y-90325000D01*
X175668500Y-90325000D01*
X175668500Y-87920000D01*
X193906496Y-87920000D01*
X193926458Y-88109928D01*
X193985473Y-88291556D01*
X194080960Y-88456944D01*
X194208747Y-88598866D01*
X194363248Y-88711118D01*
X194369276Y-88713802D01*
X194369278Y-88713803D01*
X194531681Y-88786109D01*
X194537712Y-88788794D01*
X194631113Y-88808647D01*
X194718056Y-88827128D01*
X194718061Y-88827128D01*
X194724513Y-88828500D01*
X194915487Y-88828500D01*
X194921939Y-88827128D01*
X194921944Y-88827128D01*
X195008888Y-88808647D01*
X195102288Y-88788794D01*
X195108319Y-88786109D01*
X195270722Y-88713803D01*
X195270724Y-88713802D01*
X195276752Y-88711118D01*
X195431253Y-88598866D01*
X195559040Y-88456944D01*
X195654527Y-88291556D01*
X195713542Y-88109928D01*
X195733504Y-87920000D01*
X195713542Y-87730072D01*
X195654527Y-87548444D01*
X195625955Y-87498955D01*
X195587372Y-87432128D01*
X195559040Y-87383056D01*
X195501187Y-87318803D01*
X195435675Y-87246045D01*
X195435674Y-87246044D01*
X195431253Y-87241134D01*
X195276752Y-87128882D01*
X195270724Y-87126198D01*
X195270722Y-87126197D01*
X195108319Y-87053891D01*
X195108318Y-87053891D01*
X195102288Y-87051206D01*
X195008888Y-87031353D01*
X194921944Y-87012872D01*
X194921939Y-87012872D01*
X194915487Y-87011500D01*
X194724513Y-87011500D01*
X194718061Y-87012872D01*
X194718056Y-87012872D01*
X194631112Y-87031353D01*
X194537712Y-87051206D01*
X194531682Y-87053891D01*
X194531681Y-87053891D01*
X194369278Y-87126197D01*
X194369276Y-87126198D01*
X194363248Y-87128882D01*
X194208747Y-87241134D01*
X194204326Y-87246044D01*
X194204325Y-87246045D01*
X194138814Y-87318803D01*
X194080960Y-87383056D01*
X194052628Y-87432128D01*
X194014046Y-87498955D01*
X193985473Y-87548444D01*
X193926458Y-87730072D01*
X193906496Y-87920000D01*
X175668500Y-87920000D01*
X175668500Y-86825000D01*
X202786496Y-86825000D01*
X202806458Y-87014928D01*
X202865473Y-87196556D01*
X202868776Y-87202278D01*
X202868777Y-87202279D01*
X202902686Y-87261010D01*
X202960960Y-87361944D01*
X203088747Y-87503866D01*
X203243248Y-87616118D01*
X203249276Y-87618802D01*
X203249278Y-87618803D01*
X203411681Y-87691109D01*
X203417712Y-87693794D01*
X203511113Y-87713647D01*
X203598056Y-87732128D01*
X203598061Y-87732128D01*
X203604513Y-87733500D01*
X203795487Y-87733500D01*
X203801939Y-87732128D01*
X203801944Y-87732128D01*
X203888887Y-87713647D01*
X203982288Y-87693794D01*
X203988319Y-87691109D01*
X204150722Y-87618803D01*
X204150724Y-87618802D01*
X204156752Y-87616118D01*
X204311253Y-87503866D01*
X204439040Y-87361944D01*
X204497314Y-87261010D01*
X204531223Y-87202279D01*
X204531224Y-87202278D01*
X204534527Y-87196556D01*
X204593542Y-87014928D01*
X204613504Y-86825000D01*
X204593542Y-86635072D01*
X204557777Y-86525000D01*
X206686496Y-86525000D01*
X206706458Y-86714928D01*
X206765473Y-86896556D01*
X206860960Y-87061944D01*
X206865378Y-87066851D01*
X206865379Y-87066852D01*
X206976506Y-87190271D01*
X206988747Y-87203866D01*
X207143248Y-87316118D01*
X207149276Y-87318802D01*
X207149278Y-87318803D01*
X207311681Y-87391109D01*
X207317712Y-87393794D01*
X207411113Y-87413647D01*
X207498056Y-87432128D01*
X207498061Y-87432128D01*
X207504513Y-87433500D01*
X207695487Y-87433500D01*
X207701939Y-87432128D01*
X207701944Y-87432128D01*
X207788887Y-87413647D01*
X207882288Y-87393794D01*
X207888319Y-87391109D01*
X208050722Y-87318803D01*
X208050724Y-87318802D01*
X208056752Y-87316118D01*
X208211253Y-87203866D01*
X208223494Y-87190271D01*
X208334621Y-87066852D01*
X208334622Y-87066851D01*
X208339040Y-87061944D01*
X208434527Y-86896556D01*
X208493542Y-86714928D01*
X208513504Y-86525000D01*
X208493542Y-86335072D01*
X208434527Y-86153444D01*
X208339040Y-85988056D01*
X208326344Y-85973955D01*
X208215675Y-85851045D01*
X208215674Y-85851044D01*
X208211253Y-85846134D01*
X208056752Y-85733882D01*
X208050724Y-85731198D01*
X208050722Y-85731197D01*
X207888319Y-85658891D01*
X207888318Y-85658891D01*
X207882288Y-85656206D01*
X207788887Y-85636353D01*
X207701944Y-85617872D01*
X207701939Y-85617872D01*
X207695487Y-85616500D01*
X207504513Y-85616500D01*
X207498061Y-85617872D01*
X207498056Y-85617872D01*
X207411113Y-85636353D01*
X207317712Y-85656206D01*
X207311682Y-85658891D01*
X207311681Y-85658891D01*
X207149278Y-85731197D01*
X207149276Y-85731198D01*
X207143248Y-85733882D01*
X206988747Y-85846134D01*
X206984326Y-85851044D01*
X206984325Y-85851045D01*
X206873657Y-85973955D01*
X206860960Y-85988056D01*
X206765473Y-86153444D01*
X206706458Y-86335072D01*
X206686496Y-86525000D01*
X204557777Y-86525000D01*
X204534527Y-86453444D01*
X204439040Y-86288056D01*
X204332892Y-86170166D01*
X204315675Y-86151045D01*
X204315674Y-86151044D01*
X204311253Y-86146134D01*
X204156752Y-86033882D01*
X204150724Y-86031198D01*
X204150722Y-86031197D01*
X203988319Y-85958891D01*
X203988318Y-85958891D01*
X203982288Y-85956206D01*
X203888887Y-85936353D01*
X203801944Y-85917872D01*
X203801939Y-85917872D01*
X203795487Y-85916500D01*
X203604513Y-85916500D01*
X203598061Y-85917872D01*
X203598056Y-85917872D01*
X203511112Y-85936353D01*
X203417712Y-85956206D01*
X203411682Y-85958891D01*
X203411681Y-85958891D01*
X203249278Y-86031197D01*
X203249276Y-86031198D01*
X203243248Y-86033882D01*
X203088747Y-86146134D01*
X203084326Y-86151044D01*
X203084325Y-86151045D01*
X203067109Y-86170166D01*
X202960960Y-86288056D01*
X202865473Y-86453444D01*
X202806458Y-86635072D01*
X202786496Y-86825000D01*
X175668500Y-86825000D01*
X175668500Y-82998134D01*
X178791500Y-82998134D01*
X178798255Y-83060316D01*
X178849385Y-83196705D01*
X178936739Y-83313261D01*
X179053295Y-83400615D01*
X179189684Y-83451745D01*
X179251866Y-83458500D01*
X181048134Y-83458500D01*
X181110316Y-83451745D01*
X181246705Y-83400615D01*
X181363261Y-83313261D01*
X181450615Y-83196705D01*
X181472799Y-83137529D01*
X181494598Y-83079382D01*
X181537240Y-83022618D01*
X181603802Y-82997918D01*
X181673150Y-83013126D01*
X181707817Y-83041114D01*
X181736250Y-83073938D01*
X181908126Y-83216632D01*
X182101000Y-83329338D01*
X182309692Y-83409030D01*
X182314760Y-83410061D01*
X182314763Y-83410062D01*
X182403659Y-83428148D01*
X182528597Y-83453567D01*
X182533772Y-83453757D01*
X182533774Y-83453757D01*
X182746673Y-83461564D01*
X182746677Y-83461564D01*
X182751837Y-83461753D01*
X182756957Y-83461097D01*
X182756959Y-83461097D01*
X182968288Y-83434025D01*
X182968289Y-83434025D01*
X182973416Y-83433368D01*
X182990815Y-83428148D01*
X183182429Y-83370661D01*
X183182434Y-83370659D01*
X183187384Y-83369174D01*
X183387994Y-83270896D01*
X183569860Y-83141173D01*
X183728096Y-82983489D01*
X183858453Y-82802077D01*
X183859776Y-82803028D01*
X183906645Y-82759857D01*
X183976580Y-82747625D01*
X184042026Y-82775144D01*
X184069875Y-82806994D01*
X184129987Y-82905088D01*
X184276250Y-83073938D01*
X184448126Y-83216632D01*
X184641000Y-83329338D01*
X184849692Y-83409030D01*
X184854760Y-83410061D01*
X184854763Y-83410062D01*
X184943659Y-83428148D01*
X185068597Y-83453567D01*
X185073772Y-83453757D01*
X185073774Y-83453757D01*
X185286673Y-83461564D01*
X185286677Y-83461564D01*
X185291837Y-83461753D01*
X185296957Y-83461097D01*
X185296959Y-83461097D01*
X185508288Y-83434025D01*
X185508289Y-83434025D01*
X185513416Y-83433368D01*
X185530815Y-83428148D01*
X185722429Y-83370661D01*
X185722434Y-83370659D01*
X185727384Y-83369174D01*
X185927994Y-83270896D01*
X186109860Y-83141173D01*
X186268096Y-82983489D01*
X186398453Y-82802077D01*
X186399776Y-82803028D01*
X186446645Y-82759857D01*
X186516580Y-82747625D01*
X186582026Y-82775144D01*
X186609875Y-82806994D01*
X186669987Y-82905088D01*
X186816250Y-83073938D01*
X186988126Y-83216632D01*
X187181000Y-83329338D01*
X187389692Y-83409030D01*
X187394760Y-83410061D01*
X187394763Y-83410062D01*
X187483659Y-83428148D01*
X187608597Y-83453567D01*
X187613772Y-83453757D01*
X187613774Y-83453757D01*
X187826673Y-83461564D01*
X187826677Y-83461564D01*
X187831837Y-83461753D01*
X187836957Y-83461097D01*
X187836959Y-83461097D01*
X188048288Y-83434025D01*
X188048289Y-83434025D01*
X188053416Y-83433368D01*
X188070815Y-83428148D01*
X188262429Y-83370661D01*
X188262434Y-83370659D01*
X188267384Y-83369174D01*
X188449410Y-83280000D01*
X189196496Y-83280000D01*
X189197186Y-83286565D01*
X189214637Y-83452598D01*
X189216458Y-83469928D01*
X189275473Y-83651556D01*
X189370960Y-83816944D01*
X189498747Y-83958866D01*
X189653248Y-84071118D01*
X189659276Y-84073802D01*
X189659278Y-84073803D01*
X189821681Y-84146109D01*
X189827712Y-84148794D01*
X189909629Y-84166206D01*
X190008056Y-84187128D01*
X190008061Y-84187128D01*
X190014513Y-84188500D01*
X190205487Y-84188500D01*
X190211939Y-84187128D01*
X190211944Y-84187128D01*
X190310371Y-84166206D01*
X190392288Y-84148794D01*
X190398319Y-84146109D01*
X190560722Y-84073803D01*
X190560724Y-84073802D01*
X190566752Y-84071118D01*
X190721253Y-83958866D01*
X190849040Y-83816944D01*
X190944527Y-83651556D01*
X191003542Y-83469928D01*
X191005364Y-83452598D01*
X191022814Y-83286565D01*
X191023504Y-83280000D01*
X191016701Y-83215271D01*
X191004232Y-83096635D01*
X191004232Y-83096633D01*
X191003542Y-83090072D01*
X190944527Y-82908444D01*
X190849040Y-82743056D01*
X190721253Y-82601134D01*
X190566752Y-82488882D01*
X190560724Y-82486198D01*
X190560722Y-82486197D01*
X190398319Y-82413891D01*
X190398318Y-82413891D01*
X190392288Y-82411206D01*
X190298888Y-82391353D01*
X190211944Y-82372872D01*
X190211939Y-82372872D01*
X190205487Y-82371500D01*
X190014513Y-82371500D01*
X190008061Y-82372872D01*
X190008056Y-82372872D01*
X189921112Y-82391353D01*
X189827712Y-82411206D01*
X189821682Y-82413891D01*
X189821681Y-82413891D01*
X189659278Y-82486197D01*
X189659276Y-82486198D01*
X189653248Y-82488882D01*
X189498747Y-82601134D01*
X189370960Y-82743056D01*
X189275473Y-82908444D01*
X189216458Y-83090072D01*
X189215768Y-83096633D01*
X189215768Y-83096635D01*
X189203299Y-83215271D01*
X189196496Y-83280000D01*
X188449410Y-83280000D01*
X188467994Y-83270896D01*
X188649860Y-83141173D01*
X188808096Y-82983489D01*
X188938453Y-82802077D01*
X188959320Y-82759857D01*
X189035136Y-82606453D01*
X189035137Y-82606451D01*
X189037430Y-82601811D01*
X189094525Y-82413891D01*
X189100865Y-82393023D01*
X189100865Y-82393021D01*
X189102370Y-82388069D01*
X189131529Y-82166590D01*
X189133156Y-82100000D01*
X189114852Y-81877361D01*
X189060431Y-81660702D01*
X188981859Y-81480000D01*
X192836496Y-81480000D01*
X192856458Y-81669928D01*
X192915473Y-81851556D01*
X192918776Y-81857278D01*
X192918777Y-81857279D01*
X192933351Y-81882522D01*
X193010960Y-82016944D01*
X193015378Y-82021851D01*
X193015379Y-82021852D01*
X193082724Y-82096646D01*
X193138747Y-82158866D01*
X193293248Y-82271118D01*
X193299276Y-82273802D01*
X193299278Y-82273803D01*
X193461681Y-82346109D01*
X193467712Y-82348794D01*
X193549215Y-82366118D01*
X193648056Y-82387128D01*
X193648061Y-82387128D01*
X193654513Y-82388500D01*
X193845487Y-82388500D01*
X193851939Y-82387128D01*
X193851944Y-82387128D01*
X193950785Y-82366118D01*
X194032288Y-82348794D01*
X194038319Y-82346109D01*
X194200722Y-82273803D01*
X194200724Y-82273802D01*
X194206752Y-82271118D01*
X194361253Y-82158866D01*
X194417276Y-82096646D01*
X194484621Y-82021852D01*
X194484622Y-82021851D01*
X194489040Y-82016944D01*
X194566649Y-81882522D01*
X194581223Y-81857279D01*
X194581224Y-81857278D01*
X194584527Y-81851556D01*
X194643542Y-81669928D01*
X194653519Y-81575000D01*
X198286496Y-81575000D01*
X198287186Y-81581565D01*
X198295504Y-81660702D01*
X198306458Y-81764928D01*
X198365473Y-81946556D01*
X198368776Y-81952278D01*
X198368777Y-81952279D01*
X198385478Y-81981206D01*
X198460960Y-82111944D01*
X198465378Y-82116851D01*
X198465379Y-82116852D01*
X198513151Y-82169908D01*
X198588747Y-82253866D01*
X198670215Y-82313056D01*
X198719404Y-82348794D01*
X198743248Y-82366118D01*
X198749276Y-82368802D01*
X198749278Y-82368803D01*
X198850548Y-82413891D01*
X198917712Y-82443794D01*
X199011112Y-82463647D01*
X199098056Y-82482128D01*
X199098061Y-82482128D01*
X199104513Y-82483500D01*
X199295487Y-82483500D01*
X199301939Y-82482128D01*
X199301944Y-82482128D01*
X199477687Y-82444772D01*
X199548478Y-82450174D01*
X199605110Y-82492991D01*
X199629604Y-82559628D01*
X199623717Y-82606954D01*
X199606458Y-82660072D01*
X199586496Y-82850000D01*
X199587186Y-82856565D01*
X199604639Y-83022618D01*
X199606458Y-83039928D01*
X199665473Y-83221556D01*
X199668776Y-83227278D01*
X199668777Y-83227279D01*
X199695274Y-83273173D01*
X199760960Y-83386944D01*
X199765378Y-83391851D01*
X199765379Y-83391852D01*
X199828148Y-83461564D01*
X199888747Y-83528866D01*
X200043248Y-83641118D01*
X200049276Y-83643802D01*
X200049278Y-83643803D01*
X200066692Y-83651556D01*
X200217712Y-83718794D01*
X200311113Y-83738647D01*
X200398056Y-83757128D01*
X200398061Y-83757128D01*
X200404513Y-83758500D01*
X200595487Y-83758500D01*
X200601939Y-83757128D01*
X200601944Y-83757128D01*
X200688887Y-83738647D01*
X200782288Y-83718794D01*
X200933308Y-83651556D01*
X200950722Y-83643803D01*
X200950724Y-83643802D01*
X200956752Y-83641118D01*
X201111253Y-83528866D01*
X201171852Y-83461564D01*
X201234621Y-83391852D01*
X201234622Y-83391851D01*
X201239040Y-83386944D01*
X201304726Y-83273173D01*
X201331223Y-83227279D01*
X201331224Y-83227278D01*
X201334527Y-83221556D01*
X201393542Y-83039928D01*
X201395362Y-83022618D01*
X201412814Y-82856565D01*
X201413504Y-82850000D01*
X201393542Y-82660072D01*
X201334527Y-82478444D01*
X201315087Y-82444772D01*
X201282349Y-82388069D01*
X201239040Y-82313056D01*
X201203697Y-82273803D01*
X201115675Y-82176045D01*
X201115674Y-82176044D01*
X201111253Y-82171134D01*
X200956752Y-82058882D01*
X200950724Y-82056198D01*
X200950722Y-82056197D01*
X200788319Y-81983891D01*
X200788318Y-81983891D01*
X200782288Y-81981206D01*
X200688887Y-81961353D01*
X200601944Y-81942872D01*
X200601939Y-81942872D01*
X200595487Y-81941500D01*
X200404513Y-81941500D01*
X200398061Y-81942872D01*
X200398056Y-81942872D01*
X200222313Y-81980228D01*
X200151522Y-81974826D01*
X200094890Y-81932009D01*
X200070396Y-81865372D01*
X200076283Y-81818044D01*
X200091503Y-81771203D01*
X200093542Y-81764928D01*
X200104497Y-81660702D01*
X200112814Y-81581565D01*
X200113504Y-81575000D01*
X200095071Y-81399618D01*
X200094232Y-81391635D01*
X200094232Y-81391633D01*
X200093542Y-81385072D01*
X200034527Y-81203444D01*
X200007015Y-81155791D01*
X199942341Y-81043774D01*
X199939040Y-81038056D01*
X199811253Y-80896134D01*
X199656752Y-80783882D01*
X199650724Y-80781198D01*
X199650722Y-80781197D01*
X199488319Y-80708891D01*
X199488318Y-80708891D01*
X199482288Y-80706206D01*
X199388154Y-80686197D01*
X199301944Y-80667872D01*
X199301939Y-80667872D01*
X199295487Y-80666500D01*
X199104513Y-80666500D01*
X199098061Y-80667872D01*
X199098056Y-80667872D01*
X199011846Y-80686197D01*
X198917712Y-80706206D01*
X198911682Y-80708891D01*
X198911681Y-80708891D01*
X198749278Y-80781197D01*
X198749276Y-80781198D01*
X198743248Y-80783882D01*
X198588747Y-80896134D01*
X198460960Y-81038056D01*
X198457659Y-81043774D01*
X198392986Y-81155791D01*
X198365473Y-81203444D01*
X198306458Y-81385072D01*
X198305768Y-81391633D01*
X198305768Y-81391635D01*
X198304929Y-81399618D01*
X198286496Y-81575000D01*
X194653519Y-81575000D01*
X194663504Y-81480000D01*
X194657900Y-81426680D01*
X194644232Y-81296635D01*
X194644232Y-81296633D01*
X194643542Y-81290072D01*
X194584527Y-81108444D01*
X194568472Y-81080635D01*
X194501477Y-80964598D01*
X194489040Y-80943056D01*
X194361253Y-80801134D01*
X194234292Y-80708891D01*
X194212094Y-80692763D01*
X194212093Y-80692762D01*
X194206752Y-80688882D01*
X194200724Y-80686198D01*
X194200722Y-80686197D01*
X194038319Y-80613891D01*
X194038318Y-80613891D01*
X194032288Y-80611206D01*
X193938888Y-80591353D01*
X193851944Y-80572872D01*
X193851939Y-80572872D01*
X193845487Y-80571500D01*
X193654513Y-80571500D01*
X193648061Y-80572872D01*
X193648056Y-80572872D01*
X193561112Y-80591353D01*
X193467712Y-80611206D01*
X193461682Y-80613891D01*
X193461681Y-80613891D01*
X193299278Y-80686197D01*
X193299276Y-80686198D01*
X193293248Y-80688882D01*
X193287907Y-80692762D01*
X193287906Y-80692763D01*
X193265708Y-80708891D01*
X193138747Y-80801134D01*
X193010960Y-80943056D01*
X192998523Y-80964598D01*
X192931529Y-81080635D01*
X192915473Y-81108444D01*
X192856458Y-81290072D01*
X192855768Y-81296633D01*
X192855768Y-81296635D01*
X192842100Y-81426680D01*
X192836496Y-81480000D01*
X188981859Y-81480000D01*
X188971354Y-81455840D01*
X188864114Y-81290072D01*
X188852822Y-81272617D01*
X188852820Y-81272614D01*
X188850014Y-81268277D01*
X188699670Y-81103051D01*
X188695619Y-81099852D01*
X188695615Y-81099848D01*
X188528414Y-80967800D01*
X188528410Y-80967798D01*
X188524359Y-80964598D01*
X188328789Y-80856638D01*
X188323920Y-80854914D01*
X188323916Y-80854912D01*
X188123087Y-80783795D01*
X188123083Y-80783794D01*
X188118212Y-80782069D01*
X188113119Y-80781162D01*
X188113116Y-80781161D01*
X187903373Y-80743800D01*
X187903367Y-80743799D01*
X187898284Y-80742894D01*
X187824452Y-80741992D01*
X187680081Y-80740228D01*
X187680079Y-80740228D01*
X187674911Y-80740165D01*
X187454091Y-80773955D01*
X187241756Y-80843357D01*
X187211443Y-80859137D01*
X187130939Y-80901045D01*
X187043607Y-80946507D01*
X187039474Y-80949610D01*
X187039471Y-80949612D01*
X186914059Y-81043774D01*
X186864965Y-81080635D01*
X186861393Y-81084373D01*
X186753729Y-81197037D01*
X186710629Y-81242138D01*
X186603201Y-81399621D01*
X186548293Y-81444621D01*
X186477768Y-81452792D01*
X186414021Y-81421538D01*
X186393324Y-81397054D01*
X186312822Y-81272617D01*
X186312820Y-81272614D01*
X186310014Y-81268277D01*
X186159670Y-81103051D01*
X186155619Y-81099852D01*
X186155615Y-81099848D01*
X185988414Y-80967800D01*
X185988410Y-80967798D01*
X185984359Y-80964598D01*
X185788789Y-80856638D01*
X185783920Y-80854914D01*
X185783916Y-80854912D01*
X185583087Y-80783795D01*
X185583083Y-80783794D01*
X185578212Y-80782069D01*
X185573119Y-80781162D01*
X185573116Y-80781161D01*
X185363373Y-80743800D01*
X185363367Y-80743799D01*
X185358284Y-80742894D01*
X185284452Y-80741992D01*
X185140081Y-80740228D01*
X185140079Y-80740228D01*
X185134911Y-80740165D01*
X184914091Y-80773955D01*
X184701756Y-80843357D01*
X184671443Y-80859137D01*
X184590939Y-80901045D01*
X184503607Y-80946507D01*
X184499474Y-80949610D01*
X184499471Y-80949612D01*
X184374059Y-81043774D01*
X184324965Y-81080635D01*
X184321393Y-81084373D01*
X184213729Y-81197037D01*
X184170629Y-81242138D01*
X184063201Y-81399621D01*
X184008293Y-81444621D01*
X183937768Y-81452792D01*
X183874021Y-81421538D01*
X183853324Y-81397054D01*
X183772822Y-81272617D01*
X183772820Y-81272614D01*
X183770014Y-81268277D01*
X183619670Y-81103051D01*
X183615619Y-81099852D01*
X183615615Y-81099848D01*
X183448414Y-80967800D01*
X183448410Y-80967798D01*
X183444359Y-80964598D01*
X183248789Y-80856638D01*
X183243920Y-80854914D01*
X183243916Y-80854912D01*
X183043087Y-80783795D01*
X183043083Y-80783794D01*
X183038212Y-80782069D01*
X183033119Y-80781162D01*
X183033116Y-80781161D01*
X182823373Y-80743800D01*
X182823367Y-80743799D01*
X182818284Y-80742894D01*
X182744452Y-80741992D01*
X182600081Y-80740228D01*
X182600079Y-80740228D01*
X182594911Y-80740165D01*
X182374091Y-80773955D01*
X182161756Y-80843357D01*
X182131443Y-80859137D01*
X182050939Y-80901045D01*
X181963607Y-80946507D01*
X181959474Y-80949610D01*
X181959471Y-80949612D01*
X181834059Y-81043774D01*
X181784965Y-81080635D01*
X181728537Y-81139684D01*
X181704283Y-81165064D01*
X181642759Y-81200494D01*
X181571846Y-81197037D01*
X181514060Y-81155791D01*
X181495207Y-81122243D01*
X181453767Y-81011703D01*
X181450615Y-81003295D01*
X181363261Y-80886739D01*
X181246705Y-80799385D01*
X181110316Y-80748255D01*
X181048134Y-80741500D01*
X179251866Y-80741500D01*
X179189684Y-80748255D01*
X179053295Y-80799385D01*
X178936739Y-80886739D01*
X178849385Y-81003295D01*
X178798255Y-81139684D01*
X178791500Y-81201866D01*
X178791500Y-82998134D01*
X175668500Y-82998134D01*
X175668500Y-78460000D01*
X177026496Y-78460000D01*
X177027186Y-78466565D01*
X177044176Y-78628213D01*
X177046458Y-78649928D01*
X177105473Y-78831556D01*
X177200960Y-78996944D01*
X177205378Y-79001851D01*
X177205379Y-79001852D01*
X177227564Y-79026491D01*
X177328747Y-79138866D01*
X177483248Y-79251118D01*
X177489276Y-79253802D01*
X177489278Y-79253803D01*
X177651681Y-79326109D01*
X177657712Y-79328794D01*
X177751113Y-79348647D01*
X177838056Y-79367128D01*
X177838061Y-79367128D01*
X177844513Y-79368500D01*
X178035487Y-79368500D01*
X178041939Y-79367128D01*
X178041944Y-79367128D01*
X178128887Y-79348647D01*
X178222288Y-79328794D01*
X178228319Y-79326109D01*
X178390722Y-79253803D01*
X178390724Y-79253802D01*
X178396752Y-79251118D01*
X178551253Y-79138866D01*
X178652436Y-79026491D01*
X178674621Y-79001852D01*
X178674622Y-79001851D01*
X178679040Y-78996944D01*
X178774527Y-78831556D01*
X178775033Y-78830000D01*
X184176496Y-78830000D01*
X184196458Y-79019928D01*
X184255473Y-79201556D01*
X184258776Y-79207278D01*
X184258777Y-79207279D01*
X184259812Y-79209072D01*
X184350960Y-79366944D01*
X184355378Y-79371851D01*
X184355379Y-79371852D01*
X184474325Y-79503955D01*
X184478747Y-79508866D01*
X184633248Y-79621118D01*
X184639276Y-79623802D01*
X184639278Y-79623803D01*
X184801681Y-79696109D01*
X184807712Y-79698794D01*
X184893101Y-79716944D01*
X184988056Y-79737128D01*
X184988061Y-79737128D01*
X184994513Y-79738500D01*
X185185487Y-79738500D01*
X185191939Y-79737128D01*
X185191944Y-79737128D01*
X185286899Y-79716944D01*
X185372288Y-79698794D01*
X185378319Y-79696109D01*
X185540722Y-79623803D01*
X185540724Y-79623802D01*
X185546752Y-79621118D01*
X185701253Y-79508866D01*
X185705675Y-79503955D01*
X185824621Y-79371852D01*
X185824622Y-79371851D01*
X185829040Y-79366944D01*
X185920188Y-79209072D01*
X185921223Y-79207279D01*
X185921224Y-79207278D01*
X185924527Y-79201556D01*
X185983542Y-79019928D01*
X186003504Y-78830000D01*
X185983542Y-78640072D01*
X185924527Y-78458444D01*
X185829040Y-78293056D01*
X185814255Y-78276635D01*
X185705675Y-78156045D01*
X185705674Y-78156044D01*
X185701253Y-78151134D01*
X185546752Y-78038882D01*
X185540724Y-78036198D01*
X185540722Y-78036197D01*
X185378319Y-77963891D01*
X185378318Y-77963891D01*
X185372288Y-77961206D01*
X185278888Y-77941353D01*
X185191944Y-77922872D01*
X185191939Y-77922872D01*
X185185487Y-77921500D01*
X184994513Y-77921500D01*
X184988061Y-77922872D01*
X184988056Y-77922872D01*
X184901112Y-77941353D01*
X184807712Y-77961206D01*
X184801682Y-77963891D01*
X184801681Y-77963891D01*
X184639278Y-78036197D01*
X184639276Y-78036198D01*
X184633248Y-78038882D01*
X184478747Y-78151134D01*
X184474326Y-78156044D01*
X184474325Y-78156045D01*
X184365746Y-78276635D01*
X184350960Y-78293056D01*
X184255473Y-78458444D01*
X184196458Y-78640072D01*
X184176496Y-78830000D01*
X178775033Y-78830000D01*
X178833542Y-78649928D01*
X178835825Y-78628213D01*
X178852814Y-78466565D01*
X178853504Y-78460000D01*
X178833542Y-78270072D01*
X178774527Y-78088444D01*
X178679040Y-77923056D01*
X178666886Y-77909557D01*
X178555675Y-77786045D01*
X178555674Y-77786044D01*
X178551253Y-77781134D01*
X178396752Y-77668882D01*
X178390724Y-77666198D01*
X178390722Y-77666197D01*
X178228319Y-77593891D01*
X178228318Y-77593891D01*
X178222288Y-77591206D01*
X178128887Y-77571353D01*
X178041944Y-77552872D01*
X178041939Y-77552872D01*
X178035487Y-77551500D01*
X177844513Y-77551500D01*
X177838061Y-77552872D01*
X177838056Y-77552872D01*
X177751113Y-77571353D01*
X177657712Y-77591206D01*
X177651682Y-77593891D01*
X177651681Y-77593891D01*
X177489278Y-77666197D01*
X177489276Y-77666198D01*
X177483248Y-77668882D01*
X177328747Y-77781134D01*
X177324326Y-77786044D01*
X177324325Y-77786045D01*
X177213115Y-77909557D01*
X177200960Y-77923056D01*
X177105473Y-78088444D01*
X177046458Y-78270072D01*
X177026496Y-78460000D01*
X175668500Y-78460000D01*
X175668500Y-75760000D01*
X177966496Y-75760000D01*
X177986458Y-75949928D01*
X178045473Y-76131556D01*
X178140960Y-76296944D01*
X178145378Y-76301851D01*
X178145379Y-76301852D01*
X178253295Y-76421705D01*
X178268747Y-76438866D01*
X178341268Y-76491556D01*
X178395670Y-76531081D01*
X178423248Y-76551118D01*
X178429276Y-76553802D01*
X178429278Y-76553803D01*
X178591681Y-76626109D01*
X178597712Y-76628794D01*
X178691112Y-76648647D01*
X178778056Y-76667128D01*
X178778061Y-76667128D01*
X178784513Y-76668500D01*
X178975487Y-76668500D01*
X178981939Y-76667128D01*
X178981944Y-76667128D01*
X179068888Y-76648647D01*
X179162288Y-76628794D01*
X179168319Y-76626109D01*
X179330722Y-76553803D01*
X179330724Y-76553802D01*
X179336752Y-76551118D01*
X179364331Y-76531081D01*
X179418732Y-76491556D01*
X179491253Y-76438866D01*
X179506705Y-76421705D01*
X179614621Y-76301852D01*
X179614622Y-76301851D01*
X179619040Y-76296944D01*
X179714527Y-76131556D01*
X179773542Y-75949928D01*
X179793504Y-75760000D01*
X179773542Y-75570072D01*
X179714527Y-75388444D01*
X179691925Y-75349295D01*
X186769551Y-75349295D01*
X186769848Y-75354448D01*
X186769848Y-75354451D01*
X186775129Y-75446045D01*
X186782410Y-75572315D01*
X186783547Y-75577361D01*
X186783548Y-75577367D01*
X186786119Y-75588774D01*
X186831522Y-75790239D01*
X186869761Y-75884411D01*
X186911983Y-75988391D01*
X186915566Y-75997216D01*
X186918265Y-76001620D01*
X187027910Y-76180545D01*
X187032287Y-76187688D01*
X187178550Y-76356538D01*
X187182530Y-76359842D01*
X187187281Y-76363787D01*
X187226916Y-76422690D01*
X187228413Y-76493671D01*
X187191297Y-76554193D01*
X187151024Y-76578712D01*
X187035595Y-76621985D01*
X186919039Y-76709339D01*
X186831685Y-76825895D01*
X186780555Y-76962284D01*
X186773800Y-77024466D01*
X186773800Y-78820734D01*
X186780555Y-78882916D01*
X186831685Y-79019305D01*
X186919039Y-79135861D01*
X187035595Y-79223215D01*
X187171984Y-79274345D01*
X187234166Y-79281100D01*
X189030434Y-79281100D01*
X189092616Y-79274345D01*
X189229005Y-79223215D01*
X189286667Y-79180000D01*
X197156496Y-79180000D01*
X197157186Y-79186565D01*
X197166502Y-79275198D01*
X197176458Y-79369928D01*
X197235473Y-79551556D01*
X197330960Y-79716944D01*
X197458747Y-79858866D01*
X197613248Y-79971118D01*
X197619276Y-79973802D01*
X197619278Y-79973803D01*
X197781681Y-80046109D01*
X197787712Y-80048794D01*
X197881112Y-80068647D01*
X197968056Y-80087128D01*
X197968061Y-80087128D01*
X197974513Y-80088500D01*
X198165487Y-80088500D01*
X198171939Y-80087128D01*
X198171944Y-80087128D01*
X198258888Y-80068647D01*
X198352288Y-80048794D01*
X198358319Y-80046109D01*
X198520722Y-79973803D01*
X198520724Y-79973802D01*
X198526752Y-79971118D01*
X198681253Y-79858866D01*
X198809040Y-79716944D01*
X198904527Y-79551556D01*
X198963542Y-79369928D01*
X198973499Y-79275198D01*
X198982814Y-79186565D01*
X198983504Y-79180000D01*
X198966680Y-79019928D01*
X198964232Y-78996635D01*
X198964232Y-78996633D01*
X198963542Y-78990072D01*
X198904527Y-78808444D01*
X198884434Y-78773641D01*
X198816632Y-78656206D01*
X198809040Y-78643056D01*
X198800701Y-78633794D01*
X198685675Y-78506045D01*
X198685674Y-78506044D01*
X198681253Y-78501134D01*
X198526752Y-78388882D01*
X198520724Y-78386198D01*
X198520722Y-78386197D01*
X198358319Y-78313891D01*
X198358318Y-78313891D01*
X198352288Y-78311206D01*
X198258887Y-78291353D01*
X198171944Y-78272872D01*
X198171939Y-78272872D01*
X198165487Y-78271500D01*
X197974513Y-78271500D01*
X197968061Y-78272872D01*
X197968056Y-78272872D01*
X197881113Y-78291353D01*
X197787712Y-78311206D01*
X197781682Y-78313891D01*
X197781681Y-78313891D01*
X197619278Y-78386197D01*
X197619276Y-78386198D01*
X197613248Y-78388882D01*
X197458747Y-78501134D01*
X197454326Y-78506044D01*
X197454325Y-78506045D01*
X197339300Y-78633794D01*
X197330960Y-78643056D01*
X197323368Y-78656206D01*
X197255567Y-78773641D01*
X197235473Y-78808444D01*
X197176458Y-78990072D01*
X197175768Y-78996633D01*
X197175768Y-78996635D01*
X197173320Y-79019928D01*
X197156496Y-79180000D01*
X189286667Y-79180000D01*
X189345561Y-79135861D01*
X189432915Y-79019305D01*
X189484045Y-78882916D01*
X189490800Y-78820734D01*
X189490800Y-77024466D01*
X189484045Y-76962284D01*
X189432915Y-76825895D01*
X189345561Y-76709339D01*
X189229005Y-76621985D01*
X189200044Y-76611128D01*
X189110503Y-76577560D01*
X189053739Y-76534918D01*
X189029039Y-76468356D01*
X189044247Y-76399008D01*
X189065793Y-76370327D01*
X189118749Y-76317556D01*
X189170396Y-76266089D01*
X189203718Y-76219717D01*
X189297735Y-76088877D01*
X189300753Y-76084677D01*
X189309360Y-76067263D01*
X189397436Y-75889053D01*
X189397437Y-75889051D01*
X189399730Y-75884411D01*
X189464670Y-75670669D01*
X189493829Y-75449190D01*
X189495456Y-75382600D01*
X189477152Y-75159961D01*
X189422731Y-74943302D01*
X189333654Y-74738440D01*
X189212314Y-74550877D01*
X189061970Y-74385651D01*
X189057919Y-74382452D01*
X189057915Y-74382448D01*
X188890714Y-74250400D01*
X188890710Y-74250398D01*
X188886659Y-74247198D01*
X188845353Y-74224396D01*
X188795384Y-74173964D01*
X188780612Y-74104521D01*
X188805728Y-74038116D01*
X188833080Y-74011509D01*
X188876903Y-73980250D01*
X189012160Y-73883773D01*
X189170396Y-73726089D01*
X189180708Y-73711739D01*
X189297735Y-73548877D01*
X189300753Y-73544677D01*
X189399730Y-73344411D01*
X189464670Y-73130669D01*
X189493829Y-72909190D01*
X189495456Y-72842600D01*
X189477152Y-72619961D01*
X189422731Y-72403302D01*
X189333654Y-72198440D01*
X189212314Y-72010877D01*
X189061970Y-71845651D01*
X189057919Y-71842452D01*
X189057915Y-71842448D01*
X188890714Y-71710400D01*
X188890710Y-71710398D01*
X188886659Y-71707198D01*
X188845353Y-71684396D01*
X188795384Y-71633964D01*
X188780612Y-71564521D01*
X188805728Y-71498116D01*
X188833080Y-71471509D01*
X188876903Y-71440250D01*
X189012160Y-71343773D01*
X189170396Y-71186089D01*
X189229894Y-71103289D01*
X189297735Y-71008877D01*
X189300753Y-71004677D01*
X189399730Y-70804411D01*
X189448792Y-70642931D01*
X189463165Y-70595623D01*
X189463165Y-70595621D01*
X189464670Y-70590669D01*
X189493829Y-70369190D01*
X189495456Y-70302600D01*
X189477152Y-70079961D01*
X189422731Y-69863302D01*
X189333654Y-69658440D01*
X189212314Y-69470877D01*
X189061970Y-69305651D01*
X189057919Y-69302452D01*
X189057915Y-69302448D01*
X188890714Y-69170400D01*
X188890710Y-69170398D01*
X188886659Y-69167198D01*
X188728699Y-69080000D01*
X223136681Y-69080000D01*
X223155928Y-69324557D01*
X223213195Y-69563092D01*
X223307073Y-69789732D01*
X223435248Y-69998896D01*
X223438463Y-70002660D01*
X223438465Y-70002663D01*
X223591359Y-70181677D01*
X223594567Y-70185433D01*
X223598323Y-70188641D01*
X223735691Y-70305965D01*
X223781104Y-70344752D01*
X223785327Y-70347340D01*
X223785330Y-70347342D01*
X223820983Y-70369190D01*
X223990268Y-70472927D01*
X224134967Y-70532864D01*
X224212335Y-70564911D01*
X224212337Y-70564912D01*
X224216908Y-70566805D01*
X224294941Y-70585539D01*
X224450630Y-70622917D01*
X224450636Y-70622918D01*
X224455443Y-70624072D01*
X224700000Y-70643319D01*
X224944557Y-70624072D01*
X224949364Y-70622918D01*
X224949370Y-70622917D01*
X225105059Y-70585539D01*
X225183092Y-70566805D01*
X225187663Y-70564912D01*
X225187665Y-70564911D01*
X225265033Y-70532864D01*
X225409732Y-70472927D01*
X225579017Y-70369190D01*
X225614670Y-70347342D01*
X225614673Y-70347340D01*
X225618896Y-70344752D01*
X225664310Y-70305965D01*
X225801677Y-70188641D01*
X225805433Y-70185433D01*
X225808641Y-70181677D01*
X225961535Y-70002663D01*
X225961537Y-70002660D01*
X225964752Y-69998896D01*
X226092927Y-69789732D01*
X226186805Y-69563092D01*
X226244072Y-69324557D01*
X226263319Y-69080000D01*
X226244072Y-68835443D01*
X226186805Y-68596908D01*
X226092927Y-68370268D01*
X225964752Y-68161104D01*
X225805433Y-67974567D01*
X225724931Y-67905811D01*
X225686122Y-67846360D01*
X225685616Y-67775365D01*
X225724931Y-67714189D01*
X225801677Y-67648641D01*
X225805433Y-67645433D01*
X225964752Y-67458896D01*
X226092927Y-67249732D01*
X226186805Y-67023092D01*
X226234629Y-66823891D01*
X226242917Y-66789370D01*
X226242918Y-66789364D01*
X226244072Y-66784557D01*
X226263319Y-66540000D01*
X226244072Y-66295443D01*
X226186805Y-66056908D01*
X226092927Y-65830268D01*
X225984168Y-65652788D01*
X225965630Y-65584255D01*
X225987087Y-65516578D01*
X226016035Y-65486128D01*
X226022987Y-65480918D01*
X226113261Y-65413261D01*
X226200615Y-65296705D01*
X226251745Y-65160316D01*
X226258500Y-65098134D01*
X226258500Y-62901866D01*
X226251745Y-62839684D01*
X226200615Y-62703295D01*
X226113261Y-62586739D01*
X225996705Y-62499385D01*
X225860316Y-62448255D01*
X225798134Y-62441500D01*
X223601866Y-62441500D01*
X223539684Y-62448255D01*
X223403295Y-62499385D01*
X223286739Y-62586739D01*
X223199385Y-62703295D01*
X223148255Y-62839684D01*
X223141500Y-62901866D01*
X223141500Y-65098134D01*
X223148255Y-65160316D01*
X223199385Y-65296705D01*
X223286739Y-65413261D01*
X223377013Y-65480918D01*
X223383965Y-65486128D01*
X223426479Y-65542988D01*
X223431504Y-65613806D01*
X223415832Y-65652788D01*
X223307073Y-65830268D01*
X223213195Y-66056908D01*
X223155928Y-66295443D01*
X223136681Y-66540000D01*
X223155928Y-66784557D01*
X223157082Y-66789364D01*
X223157083Y-66789370D01*
X223165371Y-66823891D01*
X223213195Y-67023092D01*
X223307073Y-67249732D01*
X223435248Y-67458896D01*
X223594567Y-67645433D01*
X223598323Y-67648641D01*
X223675069Y-67714189D01*
X223713878Y-67773640D01*
X223714384Y-67844635D01*
X223675069Y-67905811D01*
X223594567Y-67974567D01*
X223435248Y-68161104D01*
X223307073Y-68370268D01*
X223213195Y-68596908D01*
X223155928Y-68835443D01*
X223136681Y-69080000D01*
X188728699Y-69080000D01*
X188691089Y-69059238D01*
X188686220Y-69057514D01*
X188686216Y-69057512D01*
X188485387Y-68986395D01*
X188485383Y-68986394D01*
X188480512Y-68984669D01*
X188475419Y-68983762D01*
X188475416Y-68983761D01*
X188265673Y-68946400D01*
X188265667Y-68946399D01*
X188260584Y-68945494D01*
X188186752Y-68944592D01*
X188042381Y-68942828D01*
X188042379Y-68942828D01*
X188037211Y-68942765D01*
X187816391Y-68976555D01*
X187604056Y-69045957D01*
X187405907Y-69149107D01*
X187401774Y-69152210D01*
X187401771Y-69152212D01*
X187377547Y-69170400D01*
X187227265Y-69283235D01*
X187072929Y-69444738D01*
X186947043Y-69629280D01*
X186931303Y-69663190D01*
X186870606Y-69793951D01*
X186852988Y-69831905D01*
X186793289Y-70047170D01*
X186769551Y-70269295D01*
X186769848Y-70274448D01*
X186769848Y-70274451D01*
X186775311Y-70369190D01*
X186782410Y-70492315D01*
X186783547Y-70497361D01*
X186783548Y-70497367D01*
X186803419Y-70585539D01*
X186831522Y-70710239D01*
X186915566Y-70917216D01*
X187032287Y-71107688D01*
X187178550Y-71276538D01*
X187350426Y-71419232D01*
X187420895Y-71460411D01*
X187423745Y-71462076D01*
X187472469Y-71513714D01*
X187485540Y-71583497D01*
X187458809Y-71649269D01*
X187418355Y-71682627D01*
X187405907Y-71689107D01*
X187401774Y-71692210D01*
X187401771Y-71692212D01*
X187377547Y-71710400D01*
X187227265Y-71823235D01*
X187072929Y-71984738D01*
X186947043Y-72169280D01*
X186852988Y-72371905D01*
X186793289Y-72587170D01*
X186769551Y-72809295D01*
X186769848Y-72814448D01*
X186769848Y-72814451D01*
X186775311Y-72909190D01*
X186782410Y-73032315D01*
X186783547Y-73037361D01*
X186783548Y-73037367D01*
X186803419Y-73125539D01*
X186831522Y-73250239D01*
X186915566Y-73457216D01*
X186918265Y-73461620D01*
X186986675Y-73573255D01*
X187032287Y-73647688D01*
X187178550Y-73816538D01*
X187350426Y-73959232D01*
X187359756Y-73964684D01*
X187423745Y-74002076D01*
X187472469Y-74053714D01*
X187485540Y-74123497D01*
X187458809Y-74189269D01*
X187418355Y-74222627D01*
X187405907Y-74229107D01*
X187401774Y-74232210D01*
X187401771Y-74232212D01*
X187377547Y-74250400D01*
X187227265Y-74363235D01*
X187072929Y-74524738D01*
X186947043Y-74709280D01*
X186931303Y-74743190D01*
X186861350Y-74893891D01*
X186852988Y-74911905D01*
X186793289Y-75127170D01*
X186769551Y-75349295D01*
X179691925Y-75349295D01*
X179682380Y-75332763D01*
X179677314Y-75323990D01*
X179619040Y-75223056D01*
X179491253Y-75081134D01*
X179336752Y-74968882D01*
X179330724Y-74966198D01*
X179330722Y-74966197D01*
X179168319Y-74893891D01*
X179168318Y-74893891D01*
X179162288Y-74891206D01*
X179068887Y-74871353D01*
X178981944Y-74852872D01*
X178981939Y-74852872D01*
X178975487Y-74851500D01*
X178784513Y-74851500D01*
X178778061Y-74852872D01*
X178778056Y-74852872D01*
X178691113Y-74871353D01*
X178597712Y-74891206D01*
X178591682Y-74893891D01*
X178591681Y-74893891D01*
X178429278Y-74966197D01*
X178429276Y-74966198D01*
X178423248Y-74968882D01*
X178268747Y-75081134D01*
X178140960Y-75223056D01*
X178082686Y-75323990D01*
X178077621Y-75332763D01*
X178045473Y-75388444D01*
X177986458Y-75570072D01*
X177966496Y-75760000D01*
X175668500Y-75760000D01*
X175668500Y-67690000D01*
X213156496Y-67690000D01*
X213157186Y-67696565D01*
X213172749Y-67844635D01*
X213176458Y-67879928D01*
X213235473Y-68061556D01*
X213330960Y-68226944D01*
X213458747Y-68368866D01*
X213613248Y-68481118D01*
X213619276Y-68483802D01*
X213619278Y-68483803D01*
X213781681Y-68556109D01*
X213787712Y-68558794D01*
X213881113Y-68578647D01*
X213968056Y-68597128D01*
X213968061Y-68597128D01*
X213974513Y-68598500D01*
X214165487Y-68598500D01*
X214171939Y-68597128D01*
X214171944Y-68597128D01*
X214258887Y-68578647D01*
X214352288Y-68558794D01*
X214358319Y-68556109D01*
X214520722Y-68483803D01*
X214520724Y-68483802D01*
X214526752Y-68481118D01*
X214681253Y-68368866D01*
X214809040Y-68226944D01*
X214904527Y-68061556D01*
X214963542Y-67879928D01*
X214967252Y-67844635D01*
X214982814Y-67696565D01*
X214983504Y-67690000D01*
X214963542Y-67500072D01*
X214904527Y-67318444D01*
X214809040Y-67153056D01*
X214681253Y-67011134D01*
X214526752Y-66898882D01*
X214520724Y-66896198D01*
X214520722Y-66896197D01*
X214358319Y-66823891D01*
X214358318Y-66823891D01*
X214352288Y-66821206D01*
X214258887Y-66801353D01*
X214171944Y-66782872D01*
X214171939Y-66782872D01*
X214165487Y-66781500D01*
X213974513Y-66781500D01*
X213968061Y-66782872D01*
X213968056Y-66782872D01*
X213881113Y-66801353D01*
X213787712Y-66821206D01*
X213781682Y-66823891D01*
X213781681Y-66823891D01*
X213619278Y-66896197D01*
X213619276Y-66896198D01*
X213613248Y-66898882D01*
X213458747Y-67011134D01*
X213330960Y-67153056D01*
X213235473Y-67318444D01*
X213176458Y-67500072D01*
X213156496Y-67690000D01*
X175668500Y-67690000D01*
X175668500Y-63950000D01*
X206886502Y-63950000D01*
X206906457Y-64178087D01*
X206965716Y-64399243D01*
X206968039Y-64404224D01*
X206968039Y-64404225D01*
X207060151Y-64601762D01*
X207060154Y-64601767D01*
X207062477Y-64606749D01*
X207193802Y-64794300D01*
X207355700Y-64956198D01*
X207360208Y-64959355D01*
X207360211Y-64959357D01*
X207438389Y-65014098D01*
X207543251Y-65087523D01*
X207548233Y-65089846D01*
X207548238Y-65089849D01*
X207699357Y-65160316D01*
X207750757Y-65184284D01*
X207756065Y-65185706D01*
X207756067Y-65185707D01*
X207966598Y-65242119D01*
X207966600Y-65242119D01*
X207971913Y-65243543D01*
X208200000Y-65263498D01*
X208428087Y-65243543D01*
X208433400Y-65242119D01*
X208433402Y-65242119D01*
X208643933Y-65185707D01*
X208643935Y-65185706D01*
X208649243Y-65184284D01*
X208700643Y-65160316D01*
X208851762Y-65089849D01*
X208851767Y-65089846D01*
X208856749Y-65087523D01*
X208961611Y-65014098D01*
X209039789Y-64959357D01*
X209039792Y-64959355D01*
X209044300Y-64956198D01*
X209206198Y-64794300D01*
X209337523Y-64606749D01*
X209339846Y-64601767D01*
X209339849Y-64601762D01*
X209431961Y-64404225D01*
X209431961Y-64404224D01*
X209434284Y-64399243D01*
X209493543Y-64178087D01*
X209513498Y-63950000D01*
X216886502Y-63950000D01*
X216906457Y-64178087D01*
X216965716Y-64399243D01*
X216968039Y-64404224D01*
X216968039Y-64404225D01*
X217060151Y-64601762D01*
X217060154Y-64601767D01*
X217062477Y-64606749D01*
X217193802Y-64794300D01*
X217355700Y-64956198D01*
X217360208Y-64959355D01*
X217360211Y-64959357D01*
X217438389Y-65014098D01*
X217543251Y-65087523D01*
X217548233Y-65089846D01*
X217548238Y-65089849D01*
X217699357Y-65160316D01*
X217750757Y-65184284D01*
X217756065Y-65185706D01*
X217756067Y-65185707D01*
X217966598Y-65242119D01*
X217966600Y-65242119D01*
X217971913Y-65243543D01*
X218200000Y-65263498D01*
X218428087Y-65243543D01*
X218433400Y-65242119D01*
X218433402Y-65242119D01*
X218643933Y-65185707D01*
X218643935Y-65185706D01*
X218649243Y-65184284D01*
X218700643Y-65160316D01*
X218851762Y-65089849D01*
X218851767Y-65089846D01*
X218856749Y-65087523D01*
X218961611Y-65014098D01*
X219039789Y-64959357D01*
X219039792Y-64959355D01*
X219044300Y-64956198D01*
X219206198Y-64794300D01*
X219337523Y-64606749D01*
X219339846Y-64601767D01*
X219339849Y-64601762D01*
X219431961Y-64404225D01*
X219431961Y-64404224D01*
X219434284Y-64399243D01*
X219493543Y-64178087D01*
X219513498Y-63950000D01*
X219493543Y-63721913D01*
X219434284Y-63500757D01*
X219431961Y-63495775D01*
X219339849Y-63298238D01*
X219339846Y-63298233D01*
X219337523Y-63293251D01*
X219206198Y-63105700D01*
X219044300Y-62943802D01*
X219039792Y-62940645D01*
X219039789Y-62940643D01*
X218906824Y-62847540D01*
X218856749Y-62812477D01*
X218851767Y-62810154D01*
X218851762Y-62810151D01*
X218654225Y-62718039D01*
X218654224Y-62718039D01*
X218649243Y-62715716D01*
X218643935Y-62714294D01*
X218643933Y-62714293D01*
X218433402Y-62657881D01*
X218433400Y-62657881D01*
X218428087Y-62656457D01*
X218200000Y-62636502D01*
X217971913Y-62656457D01*
X217966600Y-62657881D01*
X217966598Y-62657881D01*
X217756067Y-62714293D01*
X217756065Y-62714294D01*
X217750757Y-62715716D01*
X217745776Y-62718039D01*
X217745775Y-62718039D01*
X217548238Y-62810151D01*
X217548233Y-62810154D01*
X217543251Y-62812477D01*
X217493176Y-62847540D01*
X217360211Y-62940643D01*
X217360208Y-62940645D01*
X217355700Y-62943802D01*
X217193802Y-63105700D01*
X217062477Y-63293251D01*
X217060154Y-63298233D01*
X217060151Y-63298238D01*
X216968039Y-63495775D01*
X216965716Y-63500757D01*
X216906457Y-63721913D01*
X216886502Y-63950000D01*
X209513498Y-63950000D01*
X209493543Y-63721913D01*
X209434284Y-63500757D01*
X209431961Y-63495775D01*
X209339849Y-63298238D01*
X209339846Y-63298233D01*
X209337523Y-63293251D01*
X209206198Y-63105700D01*
X209044300Y-62943802D01*
X209039792Y-62940645D01*
X209039789Y-62940643D01*
X208906824Y-62847540D01*
X208856749Y-62812477D01*
X208851767Y-62810154D01*
X208851762Y-62810151D01*
X208654225Y-62718039D01*
X208654224Y-62718039D01*
X208649243Y-62715716D01*
X208643935Y-62714294D01*
X208643933Y-62714293D01*
X208433402Y-62657881D01*
X208433400Y-62657881D01*
X208428087Y-62656457D01*
X208200000Y-62636502D01*
X207971913Y-62656457D01*
X207966600Y-62657881D01*
X207966598Y-62657881D01*
X207756067Y-62714293D01*
X207756065Y-62714294D01*
X207750757Y-62715716D01*
X207745776Y-62718039D01*
X207745775Y-62718039D01*
X207548238Y-62810151D01*
X207548233Y-62810154D01*
X207543251Y-62812477D01*
X207493176Y-62847540D01*
X207360211Y-62940643D01*
X207360208Y-62940645D01*
X207355700Y-62943802D01*
X207193802Y-63105700D01*
X207062477Y-63293251D01*
X207060154Y-63298233D01*
X207060151Y-63298238D01*
X206968039Y-63495775D01*
X206965716Y-63500757D01*
X206906457Y-63721913D01*
X206886502Y-63950000D01*
X175668500Y-63950000D01*
X175668500Y-61924500D01*
X175688502Y-61856379D01*
X175742158Y-61809886D01*
X175794500Y-61798500D01*
X229975500Y-61798500D01*
X230043621Y-61818502D01*
G37*
%TD.AperFunction*%
%TD*%
M02*
