%TF.GenerationSoftware,KiCad,Pcbnew,(6.0.10)*%
%TF.CreationDate,2023-02-04T03:27:03-05:00*%
%TF.ProjectId,lin-master,6c696e2d-6d61-4737-9465-722e6b696361,1.0*%
%TF.SameCoordinates,Original*%
%TF.FileFunction,Copper,L2,Bot*%
%TF.FilePolarity,Positive*%
%FSLAX46Y46*%
G04 Gerber Fmt 4.6, Leading zero omitted, Abs format (unit mm)*
G04 Created by KiCad (PCBNEW (6.0.10)) date 2023-02-04 03:27:03*
%MOMM*%
%LPD*%
G01*
G04 APERTURE LIST*
G04 Aperture macros list*
%AMRoundRect*
0 Rectangle with rounded corners*
0 $1 Rounding radius*
0 $2 $3 $4 $5 $6 $7 $8 $9 X,Y pos of 4 corners*
0 Add a 4 corners polygon primitive as box body*
4,1,4,$2,$3,$4,$5,$6,$7,$8,$9,$2,$3,0*
0 Add four circle primitives for the rounded corners*
1,1,$1+$1,$2,$3*
1,1,$1+$1,$4,$5*
1,1,$1+$1,$6,$7*
1,1,$1+$1,$8,$9*
0 Add four rect primitives between the rounded corners*
20,1,$1+$1,$2,$3,$4,$5,0*
20,1,$1+$1,$4,$5,$6,$7,0*
20,1,$1+$1,$6,$7,$8,$9,0*
20,1,$1+$1,$8,$9,$2,$3,0*%
G04 Aperture macros list end*
%TA.AperFunction,SMDPad,CuDef*%
%ADD10RoundRect,0.250000X-0.450000X0.350000X-0.450000X-0.350000X0.450000X-0.350000X0.450000X0.350000X0*%
%TD*%
%TA.AperFunction,ComponentPad*%
%ADD11R,2.100000X2.100000*%
%TD*%
%TA.AperFunction,ComponentPad*%
%ADD12C,2.100000*%
%TD*%
%TA.AperFunction,ComponentPad*%
%ADD13O,1.600000X1.600000*%
%TD*%
%TA.AperFunction,ComponentPad*%
%ADD14R,1.600000X1.600000*%
%TD*%
%TA.AperFunction,SMDPad,CuDef*%
%ADD15RoundRect,0.250000X0.450000X-0.350000X0.450000X0.350000X-0.450000X0.350000X-0.450000X-0.350000X0*%
%TD*%
%TA.AperFunction,ViaPad*%
%ADD16C,0.800000*%
%TD*%
%TA.AperFunction,Conductor*%
%ADD17C,0.250000*%
%TD*%
G04 APERTURE END LIST*
D10*
%TO.P,R6,1*%
%TO.N,+5V*%
X128524000Y-96790000D03*
%TO.P,R6,2*%
%TO.N,SCL5*%
X128524000Y-98790000D03*
%TD*%
%TO.P,R5,1*%
%TO.N,+5V*%
X125984000Y-96774000D03*
%TO.P,R5,2*%
%TO.N,SDA5*%
X125984000Y-98774000D03*
%TD*%
D11*
%TO.P,J2,1,Pin_1*%
%TO.N,+12V*%
X120707500Y-78486000D03*
D12*
%TO.P,J2,2,Pin_2*%
%TO.N,GND*%
X123247500Y-78486000D03*
%TO.P,J2,3,Pin_3*%
%TO.N,LIN*%
X125787500Y-78486000D03*
%TD*%
D13*
%TO.P,U1,30,VIN*%
%TO.N,+12V*%
X143764000Y-101346000D03*
%TO.P,U1,29,GND*%
%TO.N,GND*%
X141224000Y-101346000D03*
%TO.P,U1,28,~{RESET}*%
%TO.N,unconnected-(U1-Pad28)*%
X138684000Y-101346000D03*
%TO.P,U1,27,+5V*%
%TO.N,+5V*%
X136144000Y-101346000D03*
%TO.P,U1,26,A7*%
%TO.N,unconnected-(U1-Pad26)*%
X133604000Y-101346000D03*
%TO.P,U1,25,A6*%
%TO.N,unconnected-(U1-Pad25)*%
X131064000Y-101346000D03*
%TO.P,U1,24,A5*%
%TO.N,SCL5*%
X128524000Y-101346000D03*
%TO.P,U1,23,A4*%
%TO.N,SDA5*%
X125984000Y-101346000D03*
%TO.P,U1,22,A3*%
%TO.N,unconnected-(U1-Pad22)*%
X123444000Y-101346000D03*
%TO.P,U1,21,A2*%
%TO.N,unconnected-(U1-Pad21)*%
X120904000Y-101346000D03*
%TO.P,U1,20,A1*%
%TO.N,unconnected-(U1-Pad20)*%
X118364000Y-101346000D03*
%TO.P,U1,19,A0*%
%TO.N,unconnected-(U1-Pad19)*%
X115824000Y-101346000D03*
%TO.P,U1,18,AREF*%
%TO.N,unconnected-(U1-Pad18)*%
X113284000Y-101346000D03*
%TO.P,U1,17,3V3*%
%TO.N,+3V3*%
X110744000Y-101346000D03*
%TO.P,U1,16,D13*%
%TO.N,unconnected-(U1-Pad16)*%
X108204000Y-101346000D03*
%TO.P,U1,15,D12*%
%TO.N,unconnected-(U1-Pad15)*%
X108204000Y-86106000D03*
%TO.P,U1,14,D11*%
%TO.N,unconnected-(U1-Pad14)*%
X110744000Y-86106000D03*
%TO.P,U1,13,D10*%
%TO.N,unconnected-(U1-Pad13)*%
X113284000Y-86106000D03*
%TO.P,U1,12,D9*%
%TO.N,unconnected-(U1-Pad12)*%
X115824000Y-86106000D03*
%TO.P,U1,11,D8*%
%TO.N,unconnected-(U1-Pad11)*%
X118364000Y-86106000D03*
%TO.P,U1,10,D7*%
%TO.N,unconnected-(U1-Pad10)*%
X120904000Y-86106000D03*
%TO.P,U1,9,D6*%
%TO.N,unconnected-(U1-Pad9)*%
X123444000Y-86106000D03*
%TO.P,U1,8,D5*%
%TO.N,unconnected-(U1-Pad8)*%
X125984000Y-86106000D03*
%TO.P,U1,7,D4*%
%TO.N,unconnected-(U1-Pad7)*%
X128524000Y-86106000D03*
%TO.P,U1,6,D3*%
%TO.N,~{LIN_WAKE}*%
X131064000Y-86106000D03*
%TO.P,U1,5,D2*%
%TO.N,~{LIN_SLP}*%
X133604000Y-86106000D03*
%TO.P,U1,4,GND*%
%TO.N,GND*%
X136144000Y-86106000D03*
%TO.P,U1,3,~{RESET}*%
%TO.N,unconnected-(U1-Pad3)*%
X138684000Y-86106000D03*
%TO.P,U1,2,D0/RX*%
%TO.N,RXD*%
X141224000Y-86106000D03*
D14*
%TO.P,U1,1,D1/TX*%
%TO.N,TXD*%
X143764000Y-86106000D03*
%TD*%
D15*
%TO.P,R4,1*%
%TO.N,+5V*%
X131064000Y-90646000D03*
%TO.P,R4,2*%
%TO.N,~{LIN_WAKE}*%
X131064000Y-88646000D03*
%TD*%
%TO.P,R3,1*%
%TO.N,+5V*%
X133604000Y-90646000D03*
%TO.P,R3,2*%
%TO.N,~{LIN_SLP}*%
X133604000Y-88646000D03*
%TD*%
%TO.P,R2,1*%
%TO.N,+5V*%
X143764000Y-90646000D03*
%TO.P,R2,2*%
%TO.N,TXD*%
X143764000Y-88646000D03*
%TD*%
%TO.P,R1,1*%
%TO.N,+5V*%
X141224000Y-90678000D03*
%TO.P,R1,2*%
%TO.N,RXD*%
X141224000Y-88678000D03*
%TD*%
D16*
%TO.N,+5V*%
X128778000Y-90678000D03*
%TO.N,GND*%
X116078000Y-78232000D03*
%TO.N,SCL5*%
X113792000Y-83820000D03*
X123444000Y-89916000D03*
%TO.N,+5V*%
X131572000Y-96774000D03*
%TO.N,LIN*%
X132080000Y-80264000D03*
X137160000Y-78994000D03*
%TO.N,GND*%
X130302000Y-82042000D03*
X143764000Y-77978000D03*
%TO.N,~{LIN_SLP}*%
X141224000Y-83820000D03*
X138176000Y-83820000D03*
%TO.N,~{LIN_WAKE}*%
X139192000Y-83058000D03*
X142748000Y-83058000D03*
%TD*%
D17*
%TO.N,SCL5*%
X122153380Y-88625380D02*
X123444000Y-89916000D01*
X122153380Y-85069380D02*
X122153380Y-88625380D01*
X120904000Y-83820000D02*
X122153380Y-85069380D01*
X113792000Y-83820000D02*
X120904000Y-83820000D01*
%TO.N,+5V*%
X125984000Y-96774000D02*
X128508000Y-96774000D01*
X128508000Y-96774000D02*
X128524000Y-96790000D01*
X128810000Y-90646000D02*
X128778000Y-90678000D01*
X131064000Y-90646000D02*
X128810000Y-90646000D01*
X137160000Y-90678000D02*
X133636000Y-90678000D01*
X141224000Y-90678000D02*
X137160000Y-90678000D01*
X131556000Y-96790000D02*
X131572000Y-96774000D01*
X128524000Y-96790000D02*
X131556000Y-96790000D01*
%TO.N,SDA5*%
X125984000Y-98774000D02*
X125984000Y-101346000D01*
%TO.N,SCL5*%
X128524000Y-98790000D02*
X128524000Y-101346000D01*
%TO.N,+5V*%
X133604000Y-90646000D02*
X131064000Y-90646000D01*
X133636000Y-90678000D02*
X133604000Y-90646000D01*
X141256000Y-90646000D02*
X141224000Y-90678000D01*
X143764000Y-90646000D02*
X141256000Y-90646000D01*
%TO.N,TXD*%
X143764000Y-88646000D02*
X143764000Y-86106000D01*
%TO.N,RXD*%
X141224000Y-88678000D02*
X141224000Y-86106000D01*
%TO.N,~{LIN_SLP}*%
X133604000Y-88646000D02*
X133604000Y-86106000D01*
%TO.N,~{LIN_WAKE}*%
X131064000Y-88646000D02*
X131064000Y-86106000D01*
%TO.N,LIN*%
X137160000Y-78994000D02*
X135890000Y-80264000D01*
X135890000Y-80264000D02*
X132080000Y-80264000D01*
%TO.N,~{LIN_SLP}*%
X138176000Y-83820000D02*
X141224000Y-83820000D01*
%TO.N,~{LIN_WAKE}*%
X139192000Y-83058000D02*
X142748000Y-83058000D01*
%TD*%
%TA.AperFunction,Conductor*%
%TO.N,GND*%
G36*
X147261621Y-74950502D02*
G01*
X147308114Y-75004158D01*
X147319500Y-75056500D01*
X147319500Y-102235500D01*
X147299498Y-102303621D01*
X147245842Y-102350114D01*
X147193500Y-102361500D01*
X144892366Y-102361500D01*
X144824245Y-102341498D01*
X144777752Y-102287842D01*
X144767648Y-102217568D01*
X144789153Y-102163229D01*
X144898366Y-102007257D01*
X144901523Y-102002749D01*
X144903846Y-101997767D01*
X144903849Y-101997762D01*
X144995961Y-101800225D01*
X144995961Y-101800224D01*
X144998284Y-101795243D01*
X145053651Y-101588614D01*
X145056119Y-101579402D01*
X145056119Y-101579400D01*
X145057543Y-101574087D01*
X145077498Y-101346000D01*
X145057543Y-101117913D01*
X144998284Y-100896757D01*
X144903966Y-100694489D01*
X144903849Y-100694238D01*
X144903846Y-100694233D01*
X144901523Y-100689251D01*
X144770198Y-100501700D01*
X144608300Y-100339802D01*
X144603792Y-100336645D01*
X144603789Y-100336643D01*
X144451228Y-100229819D01*
X144420749Y-100208477D01*
X144415767Y-100206154D01*
X144415762Y-100206151D01*
X144218225Y-100114039D01*
X144218224Y-100114039D01*
X144213243Y-100111716D01*
X144207935Y-100110294D01*
X144207933Y-100110293D01*
X143997402Y-100053881D01*
X143997400Y-100053881D01*
X143992087Y-100052457D01*
X143764000Y-100032502D01*
X143535913Y-100052457D01*
X143530600Y-100053881D01*
X143530598Y-100053881D01*
X143320067Y-100110293D01*
X143320065Y-100110294D01*
X143314757Y-100111716D01*
X143309776Y-100114039D01*
X143309775Y-100114039D01*
X143112238Y-100206151D01*
X143112233Y-100206154D01*
X143107251Y-100208477D01*
X143076772Y-100229819D01*
X142924211Y-100336643D01*
X142924208Y-100336645D01*
X142919700Y-100339802D01*
X142757802Y-100501700D01*
X142626477Y-100689251D01*
X142624154Y-100694233D01*
X142624151Y-100694238D01*
X142607919Y-100729049D01*
X142561002Y-100782334D01*
X142492725Y-100801795D01*
X142424765Y-100781253D01*
X142379529Y-100729049D01*
X142363414Y-100694489D01*
X142357931Y-100684993D01*
X142232972Y-100506533D01*
X142225916Y-100498125D01*
X142071875Y-100344084D01*
X142063467Y-100337028D01*
X141885007Y-100212069D01*
X141875511Y-100206586D01*
X141678053Y-100114510D01*
X141667761Y-100110764D01*
X141495497Y-100064606D01*
X141481401Y-100064942D01*
X141478000Y-100072884D01*
X141478000Y-101474000D01*
X141457998Y-101542121D01*
X141404342Y-101588614D01*
X141352000Y-101600000D01*
X141096000Y-101600000D01*
X141027879Y-101579998D01*
X140981386Y-101526342D01*
X140970000Y-101474000D01*
X140970000Y-100078033D01*
X140966027Y-100064502D01*
X140957478Y-100063273D01*
X140780239Y-100110764D01*
X140769947Y-100114510D01*
X140572489Y-100206586D01*
X140562993Y-100212069D01*
X140384533Y-100337028D01*
X140376125Y-100344084D01*
X140222084Y-100498125D01*
X140215028Y-100506533D01*
X140090069Y-100684993D01*
X140084586Y-100694489D01*
X140068471Y-100729049D01*
X140021554Y-100782334D01*
X139953277Y-100801795D01*
X139885317Y-100781253D01*
X139840081Y-100729049D01*
X139823849Y-100694238D01*
X139823846Y-100694233D01*
X139821523Y-100689251D01*
X139690198Y-100501700D01*
X139528300Y-100339802D01*
X139523792Y-100336645D01*
X139523789Y-100336643D01*
X139371228Y-100229819D01*
X139340749Y-100208477D01*
X139335767Y-100206154D01*
X139335762Y-100206151D01*
X139138225Y-100114039D01*
X139138224Y-100114039D01*
X139133243Y-100111716D01*
X139127935Y-100110294D01*
X139127933Y-100110293D01*
X138917402Y-100053881D01*
X138917400Y-100053881D01*
X138912087Y-100052457D01*
X138684000Y-100032502D01*
X138455913Y-100052457D01*
X138450600Y-100053881D01*
X138450598Y-100053881D01*
X138240067Y-100110293D01*
X138240065Y-100110294D01*
X138234757Y-100111716D01*
X138229776Y-100114039D01*
X138229775Y-100114039D01*
X138032238Y-100206151D01*
X138032233Y-100206154D01*
X138027251Y-100208477D01*
X137996772Y-100229819D01*
X137844211Y-100336643D01*
X137844208Y-100336645D01*
X137839700Y-100339802D01*
X137677802Y-100501700D01*
X137546477Y-100689251D01*
X137544154Y-100694233D01*
X137544151Y-100694238D01*
X137528195Y-100728457D01*
X137481278Y-100781742D01*
X137413001Y-100801203D01*
X137345041Y-100780661D01*
X137299805Y-100728457D01*
X137283849Y-100694238D01*
X137283846Y-100694233D01*
X137281523Y-100689251D01*
X137150198Y-100501700D01*
X136988300Y-100339802D01*
X136983792Y-100336645D01*
X136983789Y-100336643D01*
X136831228Y-100229819D01*
X136800749Y-100208477D01*
X136795767Y-100206154D01*
X136795762Y-100206151D01*
X136598225Y-100114039D01*
X136598224Y-100114039D01*
X136593243Y-100111716D01*
X136587935Y-100110294D01*
X136587933Y-100110293D01*
X136377402Y-100053881D01*
X136377400Y-100053881D01*
X136372087Y-100052457D01*
X136144000Y-100032502D01*
X135915913Y-100052457D01*
X135910600Y-100053881D01*
X135910598Y-100053881D01*
X135700067Y-100110293D01*
X135700065Y-100110294D01*
X135694757Y-100111716D01*
X135689776Y-100114039D01*
X135689775Y-100114039D01*
X135492238Y-100206151D01*
X135492233Y-100206154D01*
X135487251Y-100208477D01*
X135456772Y-100229819D01*
X135304211Y-100336643D01*
X135304208Y-100336645D01*
X135299700Y-100339802D01*
X135137802Y-100501700D01*
X135006477Y-100689251D01*
X135004154Y-100694233D01*
X135004151Y-100694238D01*
X134988195Y-100728457D01*
X134941278Y-100781742D01*
X134873001Y-100801203D01*
X134805041Y-100780661D01*
X134759805Y-100728457D01*
X134743849Y-100694238D01*
X134743846Y-100694233D01*
X134741523Y-100689251D01*
X134610198Y-100501700D01*
X134448300Y-100339802D01*
X134443792Y-100336645D01*
X134443789Y-100336643D01*
X134291228Y-100229819D01*
X134260749Y-100208477D01*
X134255767Y-100206154D01*
X134255762Y-100206151D01*
X134058225Y-100114039D01*
X134058224Y-100114039D01*
X134053243Y-100111716D01*
X134047935Y-100110294D01*
X134047933Y-100110293D01*
X133837402Y-100053881D01*
X133837400Y-100053881D01*
X133832087Y-100052457D01*
X133604000Y-100032502D01*
X133375913Y-100052457D01*
X133370600Y-100053881D01*
X133370598Y-100053881D01*
X133160067Y-100110293D01*
X133160065Y-100110294D01*
X133154757Y-100111716D01*
X133149776Y-100114039D01*
X133149775Y-100114039D01*
X132952238Y-100206151D01*
X132952233Y-100206154D01*
X132947251Y-100208477D01*
X132916772Y-100229819D01*
X132764211Y-100336643D01*
X132764208Y-100336645D01*
X132759700Y-100339802D01*
X132597802Y-100501700D01*
X132466477Y-100689251D01*
X132464154Y-100694233D01*
X132464151Y-100694238D01*
X132448195Y-100728457D01*
X132401278Y-100781742D01*
X132333001Y-100801203D01*
X132265041Y-100780661D01*
X132219805Y-100728457D01*
X132203849Y-100694238D01*
X132203846Y-100694233D01*
X132201523Y-100689251D01*
X132070198Y-100501700D01*
X131908300Y-100339802D01*
X131903792Y-100336645D01*
X131903789Y-100336643D01*
X131751228Y-100229819D01*
X131720749Y-100208477D01*
X131715767Y-100206154D01*
X131715762Y-100206151D01*
X131518225Y-100114039D01*
X131518224Y-100114039D01*
X131513243Y-100111716D01*
X131507935Y-100110294D01*
X131507933Y-100110293D01*
X131297402Y-100053881D01*
X131297400Y-100053881D01*
X131292087Y-100052457D01*
X131064000Y-100032502D01*
X130835913Y-100052457D01*
X130830600Y-100053881D01*
X130830598Y-100053881D01*
X130620067Y-100110293D01*
X130620065Y-100110294D01*
X130614757Y-100111716D01*
X130609776Y-100114039D01*
X130609775Y-100114039D01*
X130412238Y-100206151D01*
X130412233Y-100206154D01*
X130407251Y-100208477D01*
X130376772Y-100229819D01*
X130224211Y-100336643D01*
X130224208Y-100336645D01*
X130219700Y-100339802D01*
X130057802Y-100501700D01*
X129926477Y-100689251D01*
X129924154Y-100694233D01*
X129924151Y-100694238D01*
X129908195Y-100728457D01*
X129861278Y-100781742D01*
X129793001Y-100801203D01*
X129725041Y-100780661D01*
X129679805Y-100728457D01*
X129663849Y-100694238D01*
X129663846Y-100694233D01*
X129661523Y-100689251D01*
X129530198Y-100501700D01*
X129368300Y-100339802D01*
X129363792Y-100336645D01*
X129363789Y-100336643D01*
X129211229Y-100229819D01*
X129166901Y-100174362D01*
X129157500Y-100126606D01*
X129157500Y-99969197D01*
X129177502Y-99901076D01*
X129231158Y-99854583D01*
X129243623Y-99849674D01*
X129291002Y-99833867D01*
X129291004Y-99833866D01*
X129297946Y-99831550D01*
X129320058Y-99817867D01*
X129442120Y-99742332D01*
X129448348Y-99738478D01*
X129573305Y-99613303D01*
X129579975Y-99602483D01*
X129662275Y-99468968D01*
X129662276Y-99468966D01*
X129666115Y-99462738D01*
X129721797Y-99294861D01*
X129723437Y-99278861D01*
X129732172Y-99193598D01*
X129732500Y-99190400D01*
X129732500Y-98389600D01*
X129721526Y-98283834D01*
X129716624Y-98269139D01*
X129667868Y-98123002D01*
X129665550Y-98116054D01*
X129572478Y-97965652D01*
X129485891Y-97879216D01*
X129451812Y-97816934D01*
X129456815Y-97746114D01*
X129485736Y-97701025D01*
X129568134Y-97618483D01*
X129573305Y-97613303D01*
X129579975Y-97602483D01*
X129653389Y-97483384D01*
X129706162Y-97435890D01*
X129760649Y-97423500D01*
X130880797Y-97423500D01*
X130948918Y-97443502D01*
X130959790Y-97451804D01*
X130960747Y-97452866D01*
X131115248Y-97565118D01*
X131121276Y-97567802D01*
X131121278Y-97567803D01*
X131283681Y-97640109D01*
X131289712Y-97642794D01*
X131383113Y-97662647D01*
X131470056Y-97681128D01*
X131470061Y-97681128D01*
X131476513Y-97682500D01*
X131667487Y-97682500D01*
X131673939Y-97681128D01*
X131673944Y-97681128D01*
X131760887Y-97662647D01*
X131854288Y-97642794D01*
X131860319Y-97640109D01*
X132022722Y-97567803D01*
X132022724Y-97567802D01*
X132028752Y-97565118D01*
X132183253Y-97452866D01*
X132311040Y-97310944D01*
X132369314Y-97210010D01*
X132403223Y-97151279D01*
X132403224Y-97151278D01*
X132406527Y-97145556D01*
X132465542Y-96963928D01*
X132485504Y-96774000D01*
X132465542Y-96584072D01*
X132406527Y-96402444D01*
X132311040Y-96237056D01*
X132202090Y-96116054D01*
X132187675Y-96100045D01*
X132187674Y-96100044D01*
X132183253Y-96095134D01*
X132028752Y-95982882D01*
X132022724Y-95980198D01*
X132022722Y-95980197D01*
X131860319Y-95907891D01*
X131860318Y-95907891D01*
X131854288Y-95905206D01*
X131760888Y-95885353D01*
X131673944Y-95866872D01*
X131673939Y-95866872D01*
X131667487Y-95865500D01*
X131476513Y-95865500D01*
X131470061Y-95866872D01*
X131470056Y-95866872D01*
X131383112Y-95885353D01*
X131289712Y-95905206D01*
X131283682Y-95907891D01*
X131283681Y-95907891D01*
X131121278Y-95980197D01*
X131121276Y-95980198D01*
X131115248Y-95982882D01*
X130960747Y-96095134D01*
X130943029Y-96114812D01*
X130882586Y-96152050D01*
X130849395Y-96156500D01*
X129760781Y-96156500D01*
X129692660Y-96136498D01*
X129653637Y-96096803D01*
X129576332Y-95971880D01*
X129572478Y-95965652D01*
X129447303Y-95840695D01*
X129422688Y-95825522D01*
X129302968Y-95751725D01*
X129302966Y-95751724D01*
X129296738Y-95747885D01*
X129136254Y-95694655D01*
X129135389Y-95694368D01*
X129135387Y-95694368D01*
X129128861Y-95692203D01*
X129122025Y-95691503D01*
X129122022Y-95691502D01*
X129078969Y-95687091D01*
X129024400Y-95681500D01*
X128023600Y-95681500D01*
X128020354Y-95681837D01*
X128020350Y-95681837D01*
X127924692Y-95691762D01*
X127924688Y-95691763D01*
X127917834Y-95692474D01*
X127911298Y-95694655D01*
X127911296Y-95694655D01*
X127799705Y-95731885D01*
X127750054Y-95748450D01*
X127599652Y-95841522D01*
X127474695Y-95966697D01*
X127470855Y-95972927D01*
X127470854Y-95972928D01*
X127404474Y-96080616D01*
X127351702Y-96128109D01*
X127297214Y-96140500D01*
X127220781Y-96140500D01*
X127152660Y-96120498D01*
X127113637Y-96080803D01*
X127036332Y-95955880D01*
X127032478Y-95949652D01*
X126907303Y-95824695D01*
X126789867Y-95752306D01*
X126762968Y-95735725D01*
X126762966Y-95735724D01*
X126756738Y-95731885D01*
X126676995Y-95705436D01*
X126595389Y-95678368D01*
X126595387Y-95678368D01*
X126588861Y-95676203D01*
X126582025Y-95675503D01*
X126582022Y-95675502D01*
X126538969Y-95671091D01*
X126484400Y-95665500D01*
X125483600Y-95665500D01*
X125480354Y-95665837D01*
X125480350Y-95665837D01*
X125384692Y-95675762D01*
X125384688Y-95675763D01*
X125377834Y-95676474D01*
X125371298Y-95678655D01*
X125371296Y-95678655D01*
X125329876Y-95692474D01*
X125210054Y-95732450D01*
X125059652Y-95825522D01*
X124934695Y-95950697D01*
X124930855Y-95956927D01*
X124930854Y-95956928D01*
X124912464Y-95986763D01*
X124841885Y-96101262D01*
X124786203Y-96269139D01*
X124775500Y-96373600D01*
X124775500Y-97174400D01*
X124786474Y-97280166D01*
X124788655Y-97286702D01*
X124788655Y-97286704D01*
X124796742Y-97310944D01*
X124842450Y-97447946D01*
X124935522Y-97598348D01*
X125018447Y-97681128D01*
X125022109Y-97684784D01*
X125056188Y-97747066D01*
X125051185Y-97817886D01*
X125022264Y-97862975D01*
X124946940Y-97938431D01*
X124934695Y-97950697D01*
X124930855Y-97956927D01*
X124930854Y-97956928D01*
X124920992Y-97972928D01*
X124841885Y-98101262D01*
X124786203Y-98269139D01*
X124785503Y-98275975D01*
X124785502Y-98275978D01*
X124783995Y-98290692D01*
X124775500Y-98373600D01*
X124775500Y-99174400D01*
X124786474Y-99280166D01*
X124788655Y-99286702D01*
X124788655Y-99286704D01*
X124807769Y-99343995D01*
X124842450Y-99447946D01*
X124935522Y-99598348D01*
X125060697Y-99723305D01*
X125066927Y-99727145D01*
X125066928Y-99727146D01*
X125086654Y-99739305D01*
X125211262Y-99816115D01*
X125259501Y-99832115D01*
X125264168Y-99833663D01*
X125322527Y-99874094D01*
X125349764Y-99939658D01*
X125350500Y-99953256D01*
X125350500Y-100126606D01*
X125330498Y-100194727D01*
X125296771Y-100229819D01*
X125144211Y-100336643D01*
X125144208Y-100336645D01*
X125139700Y-100339802D01*
X124977802Y-100501700D01*
X124846477Y-100689251D01*
X124844154Y-100694233D01*
X124844151Y-100694238D01*
X124828195Y-100728457D01*
X124781278Y-100781742D01*
X124713001Y-100801203D01*
X124645041Y-100780661D01*
X124599805Y-100728457D01*
X124583849Y-100694238D01*
X124583846Y-100694233D01*
X124581523Y-100689251D01*
X124450198Y-100501700D01*
X124288300Y-100339802D01*
X124283792Y-100336645D01*
X124283789Y-100336643D01*
X124131228Y-100229819D01*
X124100749Y-100208477D01*
X124095767Y-100206154D01*
X124095762Y-100206151D01*
X123898225Y-100114039D01*
X123898224Y-100114039D01*
X123893243Y-100111716D01*
X123887935Y-100110294D01*
X123887933Y-100110293D01*
X123677402Y-100053881D01*
X123677400Y-100053881D01*
X123672087Y-100052457D01*
X123444000Y-100032502D01*
X123215913Y-100052457D01*
X123210600Y-100053881D01*
X123210598Y-100053881D01*
X123000067Y-100110293D01*
X123000065Y-100110294D01*
X122994757Y-100111716D01*
X122989776Y-100114039D01*
X122989775Y-100114039D01*
X122792238Y-100206151D01*
X122792233Y-100206154D01*
X122787251Y-100208477D01*
X122756772Y-100229819D01*
X122604211Y-100336643D01*
X122604208Y-100336645D01*
X122599700Y-100339802D01*
X122437802Y-100501700D01*
X122306477Y-100689251D01*
X122304154Y-100694233D01*
X122304151Y-100694238D01*
X122288195Y-100728457D01*
X122241278Y-100781742D01*
X122173001Y-100801203D01*
X122105041Y-100780661D01*
X122059805Y-100728457D01*
X122043849Y-100694238D01*
X122043846Y-100694233D01*
X122041523Y-100689251D01*
X121910198Y-100501700D01*
X121748300Y-100339802D01*
X121743792Y-100336645D01*
X121743789Y-100336643D01*
X121591228Y-100229819D01*
X121560749Y-100208477D01*
X121555767Y-100206154D01*
X121555762Y-100206151D01*
X121358225Y-100114039D01*
X121358224Y-100114039D01*
X121353243Y-100111716D01*
X121347935Y-100110294D01*
X121347933Y-100110293D01*
X121137402Y-100053881D01*
X121137400Y-100053881D01*
X121132087Y-100052457D01*
X120904000Y-100032502D01*
X120675913Y-100052457D01*
X120670600Y-100053881D01*
X120670598Y-100053881D01*
X120460067Y-100110293D01*
X120460065Y-100110294D01*
X120454757Y-100111716D01*
X120449776Y-100114039D01*
X120449775Y-100114039D01*
X120252238Y-100206151D01*
X120252233Y-100206154D01*
X120247251Y-100208477D01*
X120216772Y-100229819D01*
X120064211Y-100336643D01*
X120064208Y-100336645D01*
X120059700Y-100339802D01*
X119897802Y-100501700D01*
X119766477Y-100689251D01*
X119764154Y-100694233D01*
X119764151Y-100694238D01*
X119748195Y-100728457D01*
X119701278Y-100781742D01*
X119633001Y-100801203D01*
X119565041Y-100780661D01*
X119519805Y-100728457D01*
X119503849Y-100694238D01*
X119503846Y-100694233D01*
X119501523Y-100689251D01*
X119370198Y-100501700D01*
X119208300Y-100339802D01*
X119203792Y-100336645D01*
X119203789Y-100336643D01*
X119051228Y-100229819D01*
X119020749Y-100208477D01*
X119015767Y-100206154D01*
X119015762Y-100206151D01*
X118818225Y-100114039D01*
X118818224Y-100114039D01*
X118813243Y-100111716D01*
X118807935Y-100110294D01*
X118807933Y-100110293D01*
X118597402Y-100053881D01*
X118597400Y-100053881D01*
X118592087Y-100052457D01*
X118364000Y-100032502D01*
X118135913Y-100052457D01*
X118130600Y-100053881D01*
X118130598Y-100053881D01*
X117920067Y-100110293D01*
X117920065Y-100110294D01*
X117914757Y-100111716D01*
X117909776Y-100114039D01*
X117909775Y-100114039D01*
X117712238Y-100206151D01*
X117712233Y-100206154D01*
X117707251Y-100208477D01*
X117676772Y-100229819D01*
X117524211Y-100336643D01*
X117524208Y-100336645D01*
X117519700Y-100339802D01*
X117357802Y-100501700D01*
X117226477Y-100689251D01*
X117224154Y-100694233D01*
X117224151Y-100694238D01*
X117208195Y-100728457D01*
X117161278Y-100781742D01*
X117093001Y-100801203D01*
X117025041Y-100780661D01*
X116979805Y-100728457D01*
X116963849Y-100694238D01*
X116963846Y-100694233D01*
X116961523Y-100689251D01*
X116830198Y-100501700D01*
X116668300Y-100339802D01*
X116663792Y-100336645D01*
X116663789Y-100336643D01*
X116511228Y-100229819D01*
X116480749Y-100208477D01*
X116475767Y-100206154D01*
X116475762Y-100206151D01*
X116278225Y-100114039D01*
X116278224Y-100114039D01*
X116273243Y-100111716D01*
X116267935Y-100110294D01*
X116267933Y-100110293D01*
X116057402Y-100053881D01*
X116057400Y-100053881D01*
X116052087Y-100052457D01*
X115824000Y-100032502D01*
X115595913Y-100052457D01*
X115590600Y-100053881D01*
X115590598Y-100053881D01*
X115380067Y-100110293D01*
X115380065Y-100110294D01*
X115374757Y-100111716D01*
X115369776Y-100114039D01*
X115369775Y-100114039D01*
X115172238Y-100206151D01*
X115172233Y-100206154D01*
X115167251Y-100208477D01*
X115136772Y-100229819D01*
X114984211Y-100336643D01*
X114984208Y-100336645D01*
X114979700Y-100339802D01*
X114817802Y-100501700D01*
X114686477Y-100689251D01*
X114684154Y-100694233D01*
X114684151Y-100694238D01*
X114668195Y-100728457D01*
X114621278Y-100781742D01*
X114553001Y-100801203D01*
X114485041Y-100780661D01*
X114439805Y-100728457D01*
X114423849Y-100694238D01*
X114423846Y-100694233D01*
X114421523Y-100689251D01*
X114290198Y-100501700D01*
X114128300Y-100339802D01*
X114123792Y-100336645D01*
X114123789Y-100336643D01*
X113971228Y-100229819D01*
X113940749Y-100208477D01*
X113935767Y-100206154D01*
X113935762Y-100206151D01*
X113738225Y-100114039D01*
X113738224Y-100114039D01*
X113733243Y-100111716D01*
X113727935Y-100110294D01*
X113727933Y-100110293D01*
X113517402Y-100053881D01*
X113517400Y-100053881D01*
X113512087Y-100052457D01*
X113284000Y-100032502D01*
X113055913Y-100052457D01*
X113050600Y-100053881D01*
X113050598Y-100053881D01*
X112840067Y-100110293D01*
X112840065Y-100110294D01*
X112834757Y-100111716D01*
X112829776Y-100114039D01*
X112829775Y-100114039D01*
X112632238Y-100206151D01*
X112632233Y-100206154D01*
X112627251Y-100208477D01*
X112596772Y-100229819D01*
X112444211Y-100336643D01*
X112444208Y-100336645D01*
X112439700Y-100339802D01*
X112277802Y-100501700D01*
X112146477Y-100689251D01*
X112144154Y-100694233D01*
X112144151Y-100694238D01*
X112128195Y-100728457D01*
X112081278Y-100781742D01*
X112013001Y-100801203D01*
X111945041Y-100780661D01*
X111899805Y-100728457D01*
X111883849Y-100694238D01*
X111883846Y-100694233D01*
X111881523Y-100689251D01*
X111750198Y-100501700D01*
X111588300Y-100339802D01*
X111583792Y-100336645D01*
X111583789Y-100336643D01*
X111431228Y-100229819D01*
X111400749Y-100208477D01*
X111395767Y-100206154D01*
X111395762Y-100206151D01*
X111198225Y-100114039D01*
X111198224Y-100114039D01*
X111193243Y-100111716D01*
X111187935Y-100110294D01*
X111187933Y-100110293D01*
X110977402Y-100053881D01*
X110977400Y-100053881D01*
X110972087Y-100052457D01*
X110744000Y-100032502D01*
X110515913Y-100052457D01*
X110510600Y-100053881D01*
X110510598Y-100053881D01*
X110300067Y-100110293D01*
X110300065Y-100110294D01*
X110294757Y-100111716D01*
X110289776Y-100114039D01*
X110289775Y-100114039D01*
X110092238Y-100206151D01*
X110092233Y-100206154D01*
X110087251Y-100208477D01*
X110056772Y-100229819D01*
X109904211Y-100336643D01*
X109904208Y-100336645D01*
X109899700Y-100339802D01*
X109737802Y-100501700D01*
X109606477Y-100689251D01*
X109604154Y-100694233D01*
X109604151Y-100694238D01*
X109588195Y-100728457D01*
X109541278Y-100781742D01*
X109473001Y-100801203D01*
X109405041Y-100780661D01*
X109359805Y-100728457D01*
X109343849Y-100694238D01*
X109343846Y-100694233D01*
X109341523Y-100689251D01*
X109210198Y-100501700D01*
X109048300Y-100339802D01*
X109043792Y-100336645D01*
X109043789Y-100336643D01*
X108891228Y-100229819D01*
X108860749Y-100208477D01*
X108855767Y-100206154D01*
X108855762Y-100206151D01*
X108658225Y-100114039D01*
X108658224Y-100114039D01*
X108653243Y-100111716D01*
X108647935Y-100110294D01*
X108647933Y-100110293D01*
X108437402Y-100053881D01*
X108437400Y-100053881D01*
X108432087Y-100052457D01*
X108204000Y-100032502D01*
X107975913Y-100052457D01*
X107970600Y-100053881D01*
X107970598Y-100053881D01*
X107760067Y-100110293D01*
X107760065Y-100110294D01*
X107754757Y-100111716D01*
X107749776Y-100114039D01*
X107749775Y-100114039D01*
X107552238Y-100206151D01*
X107552233Y-100206154D01*
X107547251Y-100208477D01*
X107516772Y-100229819D01*
X107364211Y-100336643D01*
X107364208Y-100336645D01*
X107359700Y-100339802D01*
X107197802Y-100501700D01*
X107066477Y-100689251D01*
X107064154Y-100694233D01*
X107064151Y-100694238D01*
X107064034Y-100694489D01*
X106969716Y-100896757D01*
X106910457Y-101117913D01*
X106890502Y-101346000D01*
X106910457Y-101574087D01*
X106911881Y-101579400D01*
X106911881Y-101579402D01*
X106914350Y-101588614D01*
X106969716Y-101795243D01*
X106972039Y-101800224D01*
X106972039Y-101800225D01*
X107064151Y-101997762D01*
X107064154Y-101997767D01*
X107066477Y-102002749D01*
X107069634Y-102007257D01*
X107178847Y-102163229D01*
X107201535Y-102230503D01*
X107184250Y-102299363D01*
X107132481Y-102347948D01*
X107075634Y-102361500D01*
X102234500Y-102361500D01*
X102166379Y-102341498D01*
X102119886Y-102287842D01*
X102108500Y-102235500D01*
X102108500Y-86106000D01*
X106890502Y-86106000D01*
X106910457Y-86334087D01*
X106969716Y-86555243D01*
X106972039Y-86560224D01*
X106972039Y-86560225D01*
X107064151Y-86757762D01*
X107064154Y-86757767D01*
X107066477Y-86762749D01*
X107197802Y-86950300D01*
X107359700Y-87112198D01*
X107364208Y-87115355D01*
X107364211Y-87115357D01*
X107405542Y-87144297D01*
X107547251Y-87243523D01*
X107552233Y-87245846D01*
X107552238Y-87245849D01*
X107745928Y-87336167D01*
X107754757Y-87340284D01*
X107760065Y-87341706D01*
X107760067Y-87341707D01*
X107970598Y-87398119D01*
X107970600Y-87398119D01*
X107975913Y-87399543D01*
X108204000Y-87419498D01*
X108432087Y-87399543D01*
X108437400Y-87398119D01*
X108437402Y-87398119D01*
X108647933Y-87341707D01*
X108647935Y-87341706D01*
X108653243Y-87340284D01*
X108662072Y-87336167D01*
X108855762Y-87245849D01*
X108855767Y-87245846D01*
X108860749Y-87243523D01*
X109002458Y-87144297D01*
X109043789Y-87115357D01*
X109043792Y-87115355D01*
X109048300Y-87112198D01*
X109210198Y-86950300D01*
X109341523Y-86762749D01*
X109343846Y-86757767D01*
X109343849Y-86757762D01*
X109359805Y-86723543D01*
X109406722Y-86670258D01*
X109474999Y-86650797D01*
X109542959Y-86671339D01*
X109588195Y-86723543D01*
X109604151Y-86757762D01*
X109604154Y-86757767D01*
X109606477Y-86762749D01*
X109737802Y-86950300D01*
X109899700Y-87112198D01*
X109904208Y-87115355D01*
X109904211Y-87115357D01*
X109945542Y-87144297D01*
X110087251Y-87243523D01*
X110092233Y-87245846D01*
X110092238Y-87245849D01*
X110285928Y-87336167D01*
X110294757Y-87340284D01*
X110300065Y-87341706D01*
X110300067Y-87341707D01*
X110510598Y-87398119D01*
X110510600Y-87398119D01*
X110515913Y-87399543D01*
X110744000Y-87419498D01*
X110972087Y-87399543D01*
X110977400Y-87398119D01*
X110977402Y-87398119D01*
X111187933Y-87341707D01*
X111187935Y-87341706D01*
X111193243Y-87340284D01*
X111202072Y-87336167D01*
X111395762Y-87245849D01*
X111395767Y-87245846D01*
X111400749Y-87243523D01*
X111542458Y-87144297D01*
X111583789Y-87115357D01*
X111583792Y-87115355D01*
X111588300Y-87112198D01*
X111750198Y-86950300D01*
X111881523Y-86762749D01*
X111883846Y-86757767D01*
X111883849Y-86757762D01*
X111899805Y-86723543D01*
X111946722Y-86670258D01*
X112014999Y-86650797D01*
X112082959Y-86671339D01*
X112128195Y-86723543D01*
X112144151Y-86757762D01*
X112144154Y-86757767D01*
X112146477Y-86762749D01*
X112277802Y-86950300D01*
X112439700Y-87112198D01*
X112444208Y-87115355D01*
X112444211Y-87115357D01*
X112485542Y-87144297D01*
X112627251Y-87243523D01*
X112632233Y-87245846D01*
X112632238Y-87245849D01*
X112825928Y-87336167D01*
X112834757Y-87340284D01*
X112840065Y-87341706D01*
X112840067Y-87341707D01*
X113050598Y-87398119D01*
X113050600Y-87398119D01*
X113055913Y-87399543D01*
X113284000Y-87419498D01*
X113512087Y-87399543D01*
X113517400Y-87398119D01*
X113517402Y-87398119D01*
X113727933Y-87341707D01*
X113727935Y-87341706D01*
X113733243Y-87340284D01*
X113742072Y-87336167D01*
X113935762Y-87245849D01*
X113935767Y-87245846D01*
X113940749Y-87243523D01*
X114082458Y-87144297D01*
X114123789Y-87115357D01*
X114123792Y-87115355D01*
X114128300Y-87112198D01*
X114290198Y-86950300D01*
X114421523Y-86762749D01*
X114423846Y-86757767D01*
X114423849Y-86757762D01*
X114439805Y-86723543D01*
X114486722Y-86670258D01*
X114554999Y-86650797D01*
X114622959Y-86671339D01*
X114668195Y-86723543D01*
X114684151Y-86757762D01*
X114684154Y-86757767D01*
X114686477Y-86762749D01*
X114817802Y-86950300D01*
X114979700Y-87112198D01*
X114984208Y-87115355D01*
X114984211Y-87115357D01*
X115025542Y-87144297D01*
X115167251Y-87243523D01*
X115172233Y-87245846D01*
X115172238Y-87245849D01*
X115365928Y-87336167D01*
X115374757Y-87340284D01*
X115380065Y-87341706D01*
X115380067Y-87341707D01*
X115590598Y-87398119D01*
X115590600Y-87398119D01*
X115595913Y-87399543D01*
X115824000Y-87419498D01*
X116052087Y-87399543D01*
X116057400Y-87398119D01*
X116057402Y-87398119D01*
X116267933Y-87341707D01*
X116267935Y-87341706D01*
X116273243Y-87340284D01*
X116282072Y-87336167D01*
X116475762Y-87245849D01*
X116475767Y-87245846D01*
X116480749Y-87243523D01*
X116622458Y-87144297D01*
X116663789Y-87115357D01*
X116663792Y-87115355D01*
X116668300Y-87112198D01*
X116830198Y-86950300D01*
X116961523Y-86762749D01*
X116963846Y-86757767D01*
X116963849Y-86757762D01*
X116979805Y-86723543D01*
X117026722Y-86670258D01*
X117094999Y-86650797D01*
X117162959Y-86671339D01*
X117208195Y-86723543D01*
X117224151Y-86757762D01*
X117224154Y-86757767D01*
X117226477Y-86762749D01*
X117357802Y-86950300D01*
X117519700Y-87112198D01*
X117524208Y-87115355D01*
X117524211Y-87115357D01*
X117565542Y-87144297D01*
X117707251Y-87243523D01*
X117712233Y-87245846D01*
X117712238Y-87245849D01*
X117905928Y-87336167D01*
X117914757Y-87340284D01*
X117920065Y-87341706D01*
X117920067Y-87341707D01*
X118130598Y-87398119D01*
X118130600Y-87398119D01*
X118135913Y-87399543D01*
X118364000Y-87419498D01*
X118592087Y-87399543D01*
X118597400Y-87398119D01*
X118597402Y-87398119D01*
X118807933Y-87341707D01*
X118807935Y-87341706D01*
X118813243Y-87340284D01*
X118822072Y-87336167D01*
X119015762Y-87245849D01*
X119015767Y-87245846D01*
X119020749Y-87243523D01*
X119162458Y-87144297D01*
X119203789Y-87115357D01*
X119203792Y-87115355D01*
X119208300Y-87112198D01*
X119370198Y-86950300D01*
X119501523Y-86762749D01*
X119503846Y-86757767D01*
X119503849Y-86757762D01*
X119519805Y-86723543D01*
X119566722Y-86670258D01*
X119634999Y-86650797D01*
X119702959Y-86671339D01*
X119748195Y-86723543D01*
X119764151Y-86757762D01*
X119764154Y-86757767D01*
X119766477Y-86762749D01*
X119897802Y-86950300D01*
X120059700Y-87112198D01*
X120064208Y-87115355D01*
X120064211Y-87115357D01*
X120105542Y-87144297D01*
X120247251Y-87243523D01*
X120252233Y-87245846D01*
X120252238Y-87245849D01*
X120445928Y-87336167D01*
X120454757Y-87340284D01*
X120460065Y-87341706D01*
X120460067Y-87341707D01*
X120670598Y-87398119D01*
X120670600Y-87398119D01*
X120675913Y-87399543D01*
X120904000Y-87419498D01*
X121132087Y-87399543D01*
X121137400Y-87398119D01*
X121137402Y-87398119D01*
X121227537Y-87373967D01*
X121353243Y-87340284D01*
X121353303Y-87340508D01*
X121421642Y-87336167D01*
X121483682Y-87370686D01*
X121517210Y-87433267D01*
X121519880Y-87459070D01*
X121519880Y-88546613D01*
X121519353Y-88557796D01*
X121517678Y-88565289D01*
X121517927Y-88573215D01*
X121517927Y-88573216D01*
X121519818Y-88633366D01*
X121519880Y-88637325D01*
X121519880Y-88665236D01*
X121520377Y-88669170D01*
X121520377Y-88669171D01*
X121520385Y-88669236D01*
X121521318Y-88681073D01*
X121522707Y-88725269D01*
X121528358Y-88744719D01*
X121532367Y-88764080D01*
X121534906Y-88784177D01*
X121537825Y-88791548D01*
X121537825Y-88791550D01*
X121551184Y-88825292D01*
X121555029Y-88836522D01*
X121567362Y-88878973D01*
X121571395Y-88885792D01*
X121571397Y-88885797D01*
X121577673Y-88896408D01*
X121586368Y-88914156D01*
X121593828Y-88932997D01*
X121598490Y-88939413D01*
X121598490Y-88939414D01*
X121619816Y-88968767D01*
X121626332Y-88978687D01*
X121644184Y-89008872D01*
X121648838Y-89016742D01*
X121663159Y-89031063D01*
X121675999Y-89046096D01*
X121687908Y-89062487D01*
X121711072Y-89081650D01*
X121721985Y-89090678D01*
X121730764Y-89098668D01*
X122496878Y-89864782D01*
X122530904Y-89927094D01*
X122533092Y-89940703D01*
X122537118Y-89979002D01*
X122542700Y-90032110D01*
X122550458Y-90105928D01*
X122609473Y-90287556D01*
X122704960Y-90452944D01*
X122709378Y-90457851D01*
X122709379Y-90457852D01*
X122736589Y-90488072D01*
X122832747Y-90594866D01*
X122931843Y-90666864D01*
X122956207Y-90684565D01*
X122987248Y-90707118D01*
X122993276Y-90709802D01*
X122993278Y-90709803D01*
X123155681Y-90782109D01*
X123161712Y-90784794D01*
X123255112Y-90804647D01*
X123342056Y-90823128D01*
X123342061Y-90823128D01*
X123348513Y-90824500D01*
X123539487Y-90824500D01*
X123545939Y-90823128D01*
X123545944Y-90823128D01*
X123632888Y-90804647D01*
X123726288Y-90784794D01*
X123732319Y-90782109D01*
X123894722Y-90709803D01*
X123894724Y-90709802D01*
X123900752Y-90707118D01*
X123931794Y-90684565D01*
X123956157Y-90666864D01*
X124055253Y-90594866D01*
X124151411Y-90488072D01*
X124178621Y-90457852D01*
X124178622Y-90457851D01*
X124183040Y-90452944D01*
X124278527Y-90287556D01*
X124337542Y-90105928D01*
X124345301Y-90032110D01*
X124356814Y-89922565D01*
X124357504Y-89916000D01*
X124350951Y-89853652D01*
X124338232Y-89732635D01*
X124338232Y-89732633D01*
X124337542Y-89726072D01*
X124278527Y-89544444D01*
X124257210Y-89507521D01*
X124186341Y-89384774D01*
X124183040Y-89379056D01*
X124157543Y-89350738D01*
X124059675Y-89242045D01*
X124059674Y-89242044D01*
X124055253Y-89237134D01*
X123900752Y-89124882D01*
X123894724Y-89122198D01*
X123894722Y-89122197D01*
X123732319Y-89049891D01*
X123732318Y-89049891D01*
X123726288Y-89047206D01*
X123632887Y-89027353D01*
X123545944Y-89008872D01*
X123545939Y-89008872D01*
X123539487Y-89007500D01*
X123483595Y-89007500D01*
X123415474Y-88987498D01*
X123394500Y-88970595D01*
X122823785Y-88399880D01*
X122789759Y-88337568D01*
X122786880Y-88310785D01*
X122786880Y-87441130D01*
X122806882Y-87373009D01*
X122860538Y-87326516D01*
X122930812Y-87316412D01*
X122966129Y-87326935D01*
X122994757Y-87340284D01*
X123000065Y-87341706D01*
X123000067Y-87341707D01*
X123210598Y-87398119D01*
X123210600Y-87398119D01*
X123215913Y-87399543D01*
X123444000Y-87419498D01*
X123672087Y-87399543D01*
X123677400Y-87398119D01*
X123677402Y-87398119D01*
X123887933Y-87341707D01*
X123887935Y-87341706D01*
X123893243Y-87340284D01*
X123902072Y-87336167D01*
X124095762Y-87245849D01*
X124095767Y-87245846D01*
X124100749Y-87243523D01*
X124242458Y-87144297D01*
X124283789Y-87115357D01*
X124283792Y-87115355D01*
X124288300Y-87112198D01*
X124450198Y-86950300D01*
X124581523Y-86762749D01*
X124583846Y-86757767D01*
X124583849Y-86757762D01*
X124599805Y-86723543D01*
X124646722Y-86670258D01*
X124714999Y-86650797D01*
X124782959Y-86671339D01*
X124828195Y-86723543D01*
X124844151Y-86757762D01*
X124844154Y-86757767D01*
X124846477Y-86762749D01*
X124977802Y-86950300D01*
X125139700Y-87112198D01*
X125144208Y-87115355D01*
X125144211Y-87115357D01*
X125185542Y-87144297D01*
X125327251Y-87243523D01*
X125332233Y-87245846D01*
X125332238Y-87245849D01*
X125525928Y-87336167D01*
X125534757Y-87340284D01*
X125540065Y-87341706D01*
X125540067Y-87341707D01*
X125750598Y-87398119D01*
X125750600Y-87398119D01*
X125755913Y-87399543D01*
X125984000Y-87419498D01*
X126212087Y-87399543D01*
X126217400Y-87398119D01*
X126217402Y-87398119D01*
X126427933Y-87341707D01*
X126427935Y-87341706D01*
X126433243Y-87340284D01*
X126442072Y-87336167D01*
X126635762Y-87245849D01*
X126635767Y-87245846D01*
X126640749Y-87243523D01*
X126782458Y-87144297D01*
X126823789Y-87115357D01*
X126823792Y-87115355D01*
X126828300Y-87112198D01*
X126990198Y-86950300D01*
X127121523Y-86762749D01*
X127123846Y-86757767D01*
X127123849Y-86757762D01*
X127139805Y-86723543D01*
X127186722Y-86670258D01*
X127254999Y-86650797D01*
X127322959Y-86671339D01*
X127368195Y-86723543D01*
X127384151Y-86757762D01*
X127384154Y-86757767D01*
X127386477Y-86762749D01*
X127517802Y-86950300D01*
X127679700Y-87112198D01*
X127684208Y-87115355D01*
X127684211Y-87115357D01*
X127725542Y-87144297D01*
X127867251Y-87243523D01*
X127872233Y-87245846D01*
X127872238Y-87245849D01*
X128065928Y-87336167D01*
X128074757Y-87340284D01*
X128080065Y-87341706D01*
X128080067Y-87341707D01*
X128290598Y-87398119D01*
X128290600Y-87398119D01*
X128295913Y-87399543D01*
X128524000Y-87419498D01*
X128752087Y-87399543D01*
X128757400Y-87398119D01*
X128757402Y-87398119D01*
X128967933Y-87341707D01*
X128967935Y-87341706D01*
X128973243Y-87340284D01*
X128982072Y-87336167D01*
X129175762Y-87245849D01*
X129175767Y-87245846D01*
X129180749Y-87243523D01*
X129322458Y-87144297D01*
X129363789Y-87115357D01*
X129363792Y-87115355D01*
X129368300Y-87112198D01*
X129530198Y-86950300D01*
X129661523Y-86762749D01*
X129663846Y-86757767D01*
X129663849Y-86757762D01*
X129679805Y-86723543D01*
X129726722Y-86670258D01*
X129794999Y-86650797D01*
X129862959Y-86671339D01*
X129908195Y-86723543D01*
X129924151Y-86757762D01*
X129924154Y-86757767D01*
X129926477Y-86762749D01*
X130057802Y-86950300D01*
X130219700Y-87112198D01*
X130224208Y-87115355D01*
X130224211Y-87115357D01*
X130376771Y-87222181D01*
X130421099Y-87277638D01*
X130430500Y-87325394D01*
X130430500Y-87466803D01*
X130410498Y-87534924D01*
X130356842Y-87581417D01*
X130344377Y-87586326D01*
X130296998Y-87602133D01*
X130296996Y-87602134D01*
X130290054Y-87604450D01*
X130283830Y-87608301D01*
X130283829Y-87608302D01*
X130228285Y-87642674D01*
X130139652Y-87697522D01*
X130014695Y-87822697D01*
X129921885Y-87973262D01*
X129919581Y-87980209D01*
X129883981Y-88087541D01*
X129866203Y-88141139D01*
X129855500Y-88245600D01*
X129855500Y-89046400D01*
X129855837Y-89049646D01*
X129855837Y-89049650D01*
X129864046Y-89128763D01*
X129866474Y-89152166D01*
X129868655Y-89158702D01*
X129868655Y-89158704D01*
X129877150Y-89184166D01*
X129922450Y-89319946D01*
X130015522Y-89470348D01*
X130020704Y-89475521D01*
X130102109Y-89556784D01*
X130136188Y-89619066D01*
X130131185Y-89689886D01*
X130102264Y-89734975D01*
X130070320Y-89766975D01*
X130014695Y-89822697D01*
X130010855Y-89828927D01*
X130010854Y-89828928D01*
X129934611Y-89952616D01*
X129881838Y-90000110D01*
X129827351Y-90012500D01*
X129448590Y-90012500D01*
X129380469Y-89992498D01*
X129374529Y-89988436D01*
X129240094Y-89890763D01*
X129240093Y-89890762D01*
X129234752Y-89886882D01*
X129228724Y-89884198D01*
X129228722Y-89884197D01*
X129066319Y-89811891D01*
X129066318Y-89811891D01*
X129060288Y-89809206D01*
X128966887Y-89789353D01*
X128879944Y-89770872D01*
X128879939Y-89770872D01*
X128873487Y-89769500D01*
X128682513Y-89769500D01*
X128676061Y-89770872D01*
X128676056Y-89770872D01*
X128589113Y-89789353D01*
X128495712Y-89809206D01*
X128489682Y-89811891D01*
X128489681Y-89811891D01*
X128327278Y-89884197D01*
X128327276Y-89884198D01*
X128321248Y-89886882D01*
X128315907Y-89890762D01*
X128315906Y-89890763D01*
X128281171Y-89916000D01*
X128166747Y-89999134D01*
X128162326Y-90004044D01*
X128162325Y-90004045D01*
X128064937Y-90112206D01*
X128038960Y-90141056D01*
X127943473Y-90306444D01*
X127884458Y-90488072D01*
X127883768Y-90494633D01*
X127883768Y-90494635D01*
X127865186Y-90671435D01*
X127864496Y-90678000D01*
X127865186Y-90684565D01*
X127879894Y-90824500D01*
X127884458Y-90867928D01*
X127943473Y-91049556D01*
X128038960Y-91214944D01*
X128043378Y-91219851D01*
X128043379Y-91219852D01*
X128115096Y-91299502D01*
X128166747Y-91356866D01*
X128321248Y-91469118D01*
X128327276Y-91471802D01*
X128327278Y-91471803D01*
X128489681Y-91544109D01*
X128495712Y-91546794D01*
X128589113Y-91566647D01*
X128676056Y-91585128D01*
X128676061Y-91585128D01*
X128682513Y-91586500D01*
X128873487Y-91586500D01*
X128879939Y-91585128D01*
X128879944Y-91585128D01*
X128966887Y-91566647D01*
X129060288Y-91546794D01*
X129066319Y-91544109D01*
X129228722Y-91471803D01*
X129228724Y-91471802D01*
X129234752Y-91469118D01*
X129389253Y-91356866D01*
X129405163Y-91339197D01*
X129421377Y-91321189D01*
X129481823Y-91283950D01*
X129515013Y-91279500D01*
X129827219Y-91279500D01*
X129895340Y-91299502D01*
X129934363Y-91339197D01*
X130015522Y-91470348D01*
X130140697Y-91595305D01*
X130146927Y-91599145D01*
X130146928Y-91599146D01*
X130284090Y-91683694D01*
X130291262Y-91688115D01*
X130371005Y-91714564D01*
X130452611Y-91741632D01*
X130452613Y-91741632D01*
X130459139Y-91743797D01*
X130465975Y-91744497D01*
X130465978Y-91744498D01*
X130509031Y-91748909D01*
X130563600Y-91754500D01*
X131564400Y-91754500D01*
X131567646Y-91754163D01*
X131567650Y-91754163D01*
X131663308Y-91744238D01*
X131663312Y-91744237D01*
X131670166Y-91743526D01*
X131676702Y-91741345D01*
X131676704Y-91741345D01*
X131808806Y-91697272D01*
X131837946Y-91687550D01*
X131988348Y-91594478D01*
X132113305Y-91469303D01*
X132117146Y-91463072D01*
X132193389Y-91339384D01*
X132246162Y-91291890D01*
X132300649Y-91279500D01*
X132367219Y-91279500D01*
X132435340Y-91299502D01*
X132474363Y-91339197D01*
X132555522Y-91470348D01*
X132680697Y-91595305D01*
X132686927Y-91599145D01*
X132686928Y-91599146D01*
X132824090Y-91683694D01*
X132831262Y-91688115D01*
X132911005Y-91714564D01*
X132992611Y-91741632D01*
X132992613Y-91741632D01*
X132999139Y-91743797D01*
X133005975Y-91744497D01*
X133005978Y-91744498D01*
X133049031Y-91748909D01*
X133103600Y-91754500D01*
X134104400Y-91754500D01*
X134107646Y-91754163D01*
X134107650Y-91754163D01*
X134203308Y-91744238D01*
X134203312Y-91744237D01*
X134210166Y-91743526D01*
X134216702Y-91741345D01*
X134216704Y-91741345D01*
X134348806Y-91697272D01*
X134377946Y-91687550D01*
X134528348Y-91594478D01*
X134653305Y-91469303D01*
X134713664Y-91371383D01*
X134766435Y-91323891D01*
X134820923Y-91311500D01*
X139987219Y-91311500D01*
X140055340Y-91331502D01*
X140094363Y-91371197D01*
X140175522Y-91502348D01*
X140300697Y-91627305D01*
X140306927Y-91631145D01*
X140306928Y-91631146D01*
X140444090Y-91715694D01*
X140451262Y-91720115D01*
X140523991Y-91744238D01*
X140612611Y-91773632D01*
X140612613Y-91773632D01*
X140619139Y-91775797D01*
X140625975Y-91776497D01*
X140625978Y-91776498D01*
X140669031Y-91780909D01*
X140723600Y-91786500D01*
X141724400Y-91786500D01*
X141727646Y-91786163D01*
X141727650Y-91786163D01*
X141823308Y-91776238D01*
X141823312Y-91776237D01*
X141830166Y-91775526D01*
X141836702Y-91773345D01*
X141836704Y-91773345D01*
X141968806Y-91729272D01*
X141997946Y-91719550D01*
X142148348Y-91626478D01*
X142273305Y-91501303D01*
X142293144Y-91469118D01*
X142362272Y-91356973D01*
X142362273Y-91356971D01*
X142366115Y-91350738D01*
X142366301Y-91350176D01*
X142411388Y-91298967D01*
X142478669Y-91279500D01*
X142527219Y-91279500D01*
X142595340Y-91299502D01*
X142634363Y-91339197D01*
X142715522Y-91470348D01*
X142840697Y-91595305D01*
X142846927Y-91599145D01*
X142846928Y-91599146D01*
X142984090Y-91683694D01*
X142991262Y-91688115D01*
X143071005Y-91714564D01*
X143152611Y-91741632D01*
X143152613Y-91741632D01*
X143159139Y-91743797D01*
X143165975Y-91744497D01*
X143165978Y-91744498D01*
X143209031Y-91748909D01*
X143263600Y-91754500D01*
X144264400Y-91754500D01*
X144267646Y-91754163D01*
X144267650Y-91754163D01*
X144363308Y-91744238D01*
X144363312Y-91744237D01*
X144370166Y-91743526D01*
X144376702Y-91741345D01*
X144376704Y-91741345D01*
X144508806Y-91697272D01*
X144537946Y-91687550D01*
X144688348Y-91594478D01*
X144813305Y-91469303D01*
X144817146Y-91463072D01*
X144902275Y-91324968D01*
X144902276Y-91324966D01*
X144906115Y-91318738D01*
X144961797Y-91150861D01*
X144972500Y-91046400D01*
X144972500Y-90245600D01*
X144972163Y-90242350D01*
X144962238Y-90146692D01*
X144962237Y-90146688D01*
X144961526Y-90139834D01*
X144948025Y-90099365D01*
X144907868Y-89979002D01*
X144905550Y-89972054D01*
X144812478Y-89821652D01*
X144725891Y-89735216D01*
X144691812Y-89672934D01*
X144696815Y-89602114D01*
X144725736Y-89557025D01*
X144808134Y-89474483D01*
X144813305Y-89469303D01*
X144906115Y-89318738D01*
X144961797Y-89150861D01*
X144972500Y-89046400D01*
X144972500Y-88245600D01*
X144972163Y-88242350D01*
X144962238Y-88146692D01*
X144962237Y-88146688D01*
X144961526Y-88139834D01*
X144948262Y-88100075D01*
X144907868Y-87979002D01*
X144905550Y-87972054D01*
X144812478Y-87821652D01*
X144687303Y-87696695D01*
X144599663Y-87642672D01*
X144552171Y-87589902D01*
X144540747Y-87519831D01*
X144569021Y-87454707D01*
X144628015Y-87415207D01*
X144652170Y-87410151D01*
X144658097Y-87409507D01*
X144674316Y-87407745D01*
X144810705Y-87356615D01*
X144927261Y-87269261D01*
X145014615Y-87152705D01*
X145065745Y-87016316D01*
X145072500Y-86954134D01*
X145072500Y-85257866D01*
X145065745Y-85195684D01*
X145014615Y-85059295D01*
X144927261Y-84942739D01*
X144810705Y-84855385D01*
X144674316Y-84804255D01*
X144612134Y-84797500D01*
X142915866Y-84797500D01*
X142853684Y-84804255D01*
X142717295Y-84855385D01*
X142600739Y-84942739D01*
X142513385Y-85059295D01*
X142462255Y-85195684D01*
X142461083Y-85206474D01*
X142460197Y-85208606D01*
X142459575Y-85211222D01*
X142459152Y-85211121D01*
X142433845Y-85272035D01*
X142375483Y-85312463D01*
X142304529Y-85314922D01*
X142243510Y-85278629D01*
X142236511Y-85269969D01*
X142233354Y-85266207D01*
X142230198Y-85261700D01*
X142068300Y-85099802D01*
X142063792Y-85096645D01*
X142063789Y-85096643D01*
X141985611Y-85041902D01*
X141880749Y-84968477D01*
X141875767Y-84966154D01*
X141875762Y-84966151D01*
X141678225Y-84874039D01*
X141678224Y-84874039D01*
X141673243Y-84871716D01*
X141667935Y-84870294D01*
X141667933Y-84870293D01*
X141661266Y-84868507D01*
X141656217Y-84867154D01*
X141595595Y-84830203D01*
X141564573Y-84766342D01*
X141573001Y-84695848D01*
X141618203Y-84641101D01*
X141637579Y-84630340D01*
X141674722Y-84613803D01*
X141674724Y-84613802D01*
X141680752Y-84611118D01*
X141701434Y-84596092D01*
X141736157Y-84570864D01*
X141835253Y-84498866D01*
X141963040Y-84356944D01*
X142058527Y-84191556D01*
X142117542Y-84009928D01*
X142118232Y-84003365D01*
X142123326Y-83954899D01*
X142150340Y-83889242D01*
X142208562Y-83848613D01*
X142279507Y-83845910D01*
X142299881Y-83852962D01*
X142465712Y-83926794D01*
X142559112Y-83946647D01*
X142646056Y-83965128D01*
X142646061Y-83965128D01*
X142652513Y-83966500D01*
X142843487Y-83966500D01*
X142849939Y-83965128D01*
X142849944Y-83965128D01*
X142936887Y-83946647D01*
X143030288Y-83926794D01*
X143114632Y-83889242D01*
X143198722Y-83851803D01*
X143198724Y-83851802D01*
X143204752Y-83849118D01*
X143235794Y-83826565D01*
X143260157Y-83808864D01*
X143359253Y-83736866D01*
X143455411Y-83630072D01*
X143482621Y-83599852D01*
X143482622Y-83599851D01*
X143487040Y-83594944D01*
X143582527Y-83429556D01*
X143641542Y-83247928D01*
X143644604Y-83218801D01*
X143660814Y-83064565D01*
X143661504Y-83058000D01*
X143650280Y-82951206D01*
X143642232Y-82874635D01*
X143642232Y-82874633D01*
X143641542Y-82868072D01*
X143582527Y-82686444D01*
X143487040Y-82521056D01*
X143359253Y-82379134D01*
X143204752Y-82266882D01*
X143198724Y-82264198D01*
X143198722Y-82264197D01*
X143036319Y-82191891D01*
X143036318Y-82191891D01*
X143030288Y-82189206D01*
X142936888Y-82169353D01*
X142849944Y-82150872D01*
X142849939Y-82150872D01*
X142843487Y-82149500D01*
X142652513Y-82149500D01*
X142646061Y-82150872D01*
X142646056Y-82150872D01*
X142559112Y-82169353D01*
X142465712Y-82189206D01*
X142459682Y-82191891D01*
X142459681Y-82191891D01*
X142297278Y-82264197D01*
X142297276Y-82264198D01*
X142291248Y-82266882D01*
X142136747Y-82379134D01*
X142132332Y-82384037D01*
X142127420Y-82388460D01*
X142126295Y-82387211D01*
X142072986Y-82420051D01*
X142039800Y-82424500D01*
X139900200Y-82424500D01*
X139832079Y-82404498D01*
X139812853Y-82388157D01*
X139812580Y-82388460D01*
X139807668Y-82384037D01*
X139803253Y-82379134D01*
X139648752Y-82266882D01*
X139642724Y-82264198D01*
X139642722Y-82264197D01*
X139480319Y-82191891D01*
X139480318Y-82191891D01*
X139474288Y-82189206D01*
X139380888Y-82169353D01*
X139293944Y-82150872D01*
X139293939Y-82150872D01*
X139287487Y-82149500D01*
X139096513Y-82149500D01*
X139090061Y-82150872D01*
X139090056Y-82150872D01*
X139003112Y-82169353D01*
X138909712Y-82189206D01*
X138903682Y-82191891D01*
X138903681Y-82191891D01*
X138741278Y-82264197D01*
X138741276Y-82264198D01*
X138735248Y-82266882D01*
X138580747Y-82379134D01*
X138452960Y-82521056D01*
X138357473Y-82686444D01*
X138355432Y-82692726D01*
X138312636Y-82824437D01*
X138272562Y-82883042D01*
X138207165Y-82910679D01*
X138192803Y-82911500D01*
X138080513Y-82911500D01*
X138074061Y-82912872D01*
X138074056Y-82912872D01*
X137987112Y-82931353D01*
X137893712Y-82951206D01*
X137887682Y-82953891D01*
X137887681Y-82953891D01*
X137725278Y-83026197D01*
X137725276Y-83026198D01*
X137719248Y-83028882D01*
X137713907Y-83032762D01*
X137713906Y-83032763D01*
X137679171Y-83058000D01*
X137564747Y-83141134D01*
X137560326Y-83146044D01*
X137560325Y-83146045D01*
X137451203Y-83267238D01*
X137436960Y-83283056D01*
X137341473Y-83448444D01*
X137282458Y-83630072D01*
X137281768Y-83636633D01*
X137281768Y-83636635D01*
X137263186Y-83813435D01*
X137262496Y-83820000D01*
X137263186Y-83826565D01*
X137277894Y-83966500D01*
X137282458Y-84009928D01*
X137341473Y-84191556D01*
X137436960Y-84356944D01*
X137564747Y-84498866D01*
X137663843Y-84570864D01*
X137698567Y-84596092D01*
X137719248Y-84611118D01*
X137725276Y-84613802D01*
X137725278Y-84613803D01*
X137884842Y-84684845D01*
X137893712Y-84688794D01*
X138029082Y-84717568D01*
X138091553Y-84751295D01*
X138125875Y-84813445D01*
X138121147Y-84884284D01*
X138078872Y-84941321D01*
X138056133Y-84955009D01*
X138032238Y-84966151D01*
X138032233Y-84966154D01*
X138027251Y-84968477D01*
X137922389Y-85041902D01*
X137844211Y-85096643D01*
X137844208Y-85096645D01*
X137839700Y-85099802D01*
X137677802Y-85261700D01*
X137546477Y-85449251D01*
X137544154Y-85454233D01*
X137544151Y-85454238D01*
X137527919Y-85489049D01*
X137481002Y-85542334D01*
X137412725Y-85561795D01*
X137344765Y-85541253D01*
X137299529Y-85489049D01*
X137283414Y-85454489D01*
X137277931Y-85444993D01*
X137152972Y-85266533D01*
X137145916Y-85258125D01*
X136991875Y-85104084D01*
X136983467Y-85097028D01*
X136805007Y-84972069D01*
X136795511Y-84966586D01*
X136598053Y-84874510D01*
X136587761Y-84870764D01*
X136415497Y-84824606D01*
X136401401Y-84824942D01*
X136398000Y-84832884D01*
X136398000Y-87373967D01*
X136401973Y-87387498D01*
X136410522Y-87388727D01*
X136587761Y-87341236D01*
X136598053Y-87337490D01*
X136795511Y-87245414D01*
X136805007Y-87239931D01*
X136983467Y-87114972D01*
X136991875Y-87107916D01*
X137145916Y-86953875D01*
X137152972Y-86945467D01*
X137277931Y-86767007D01*
X137283414Y-86757511D01*
X137299529Y-86722951D01*
X137346446Y-86669666D01*
X137414723Y-86650205D01*
X137482683Y-86670747D01*
X137527919Y-86722951D01*
X137544151Y-86757762D01*
X137544154Y-86757767D01*
X137546477Y-86762749D01*
X137677802Y-86950300D01*
X137839700Y-87112198D01*
X137844208Y-87115355D01*
X137844211Y-87115357D01*
X137885542Y-87144297D01*
X138027251Y-87243523D01*
X138032233Y-87245846D01*
X138032238Y-87245849D01*
X138225928Y-87336167D01*
X138234757Y-87340284D01*
X138240065Y-87341706D01*
X138240067Y-87341707D01*
X138450598Y-87398119D01*
X138450600Y-87398119D01*
X138455913Y-87399543D01*
X138684000Y-87419498D01*
X138912087Y-87399543D01*
X138917400Y-87398119D01*
X138917402Y-87398119D01*
X139127933Y-87341707D01*
X139127935Y-87341706D01*
X139133243Y-87340284D01*
X139142072Y-87336167D01*
X139335762Y-87245849D01*
X139335767Y-87245846D01*
X139340749Y-87243523D01*
X139482458Y-87144297D01*
X139523789Y-87115357D01*
X139523792Y-87115355D01*
X139528300Y-87112198D01*
X139690198Y-86950300D01*
X139821523Y-86762749D01*
X139823846Y-86757767D01*
X139823849Y-86757762D01*
X139839805Y-86723543D01*
X139886722Y-86670258D01*
X139954999Y-86650797D01*
X140022959Y-86671339D01*
X140068195Y-86723543D01*
X140084151Y-86757762D01*
X140084154Y-86757767D01*
X140086477Y-86762749D01*
X140217802Y-86950300D01*
X140379700Y-87112198D01*
X140384208Y-87115355D01*
X140384211Y-87115357D01*
X140536771Y-87222181D01*
X140581099Y-87277638D01*
X140590500Y-87325394D01*
X140590500Y-87498803D01*
X140570498Y-87566924D01*
X140516842Y-87613417D01*
X140504377Y-87618326D01*
X140456998Y-87634133D01*
X140456996Y-87634134D01*
X140450054Y-87636450D01*
X140443830Y-87640301D01*
X140443829Y-87640302D01*
X140357591Y-87693668D01*
X140299652Y-87729522D01*
X140174695Y-87854697D01*
X140081885Y-88005262D01*
X140026203Y-88173139D01*
X140015500Y-88277600D01*
X140015500Y-89078400D01*
X140015837Y-89081646D01*
X140015837Y-89081650D01*
X140023696Y-89157389D01*
X140026474Y-89184166D01*
X140028655Y-89190702D01*
X140028655Y-89190704D01*
X140045784Y-89242045D01*
X140082450Y-89351946D01*
X140175522Y-89502348D01*
X140230295Y-89557025D01*
X140262109Y-89588784D01*
X140296188Y-89651066D01*
X140291185Y-89721886D01*
X140262264Y-89766975D01*
X140258374Y-89770872D01*
X140174695Y-89854697D01*
X140170855Y-89860927D01*
X140170854Y-89860928D01*
X140094611Y-89984616D01*
X140041838Y-90032110D01*
X139987351Y-90044500D01*
X134858666Y-90044500D01*
X134790545Y-90024498D01*
X134746101Y-89973706D01*
X134745550Y-89972054D01*
X134652478Y-89821652D01*
X134565891Y-89735216D01*
X134531812Y-89672934D01*
X134536815Y-89602114D01*
X134565736Y-89557025D01*
X134648134Y-89474483D01*
X134653305Y-89469303D01*
X134746115Y-89318738D01*
X134801797Y-89150861D01*
X134812500Y-89046400D01*
X134812500Y-88245600D01*
X134812163Y-88242350D01*
X134802238Y-88146692D01*
X134802237Y-88146688D01*
X134801526Y-88139834D01*
X134788262Y-88100075D01*
X134747868Y-87979002D01*
X134745550Y-87972054D01*
X134652478Y-87821652D01*
X134527303Y-87696695D01*
X134429568Y-87636450D01*
X134382968Y-87607725D01*
X134382966Y-87607724D01*
X134376738Y-87603885D01*
X134323832Y-87586337D01*
X134265473Y-87545906D01*
X134238236Y-87480342D01*
X134237500Y-87466744D01*
X134237500Y-87325394D01*
X134257502Y-87257273D01*
X134291229Y-87222181D01*
X134443789Y-87115357D01*
X134443792Y-87115355D01*
X134448300Y-87112198D01*
X134610198Y-86950300D01*
X134741523Y-86762749D01*
X134743846Y-86757767D01*
X134743849Y-86757762D01*
X134760081Y-86722951D01*
X134806998Y-86669666D01*
X134875275Y-86650205D01*
X134943235Y-86670747D01*
X134988471Y-86722951D01*
X135004586Y-86757511D01*
X135010069Y-86767007D01*
X135135028Y-86945467D01*
X135142084Y-86953875D01*
X135296125Y-87107916D01*
X135304533Y-87114972D01*
X135482993Y-87239931D01*
X135492489Y-87245414D01*
X135689947Y-87337490D01*
X135700239Y-87341236D01*
X135872503Y-87387394D01*
X135886599Y-87387058D01*
X135890000Y-87379116D01*
X135890000Y-84838033D01*
X135886027Y-84824502D01*
X135877478Y-84823273D01*
X135700239Y-84870764D01*
X135689947Y-84874510D01*
X135492489Y-84966586D01*
X135482993Y-84972069D01*
X135304533Y-85097028D01*
X135296125Y-85104084D01*
X135142084Y-85258125D01*
X135135028Y-85266533D01*
X135010069Y-85444993D01*
X135004586Y-85454489D01*
X134988471Y-85489049D01*
X134941554Y-85542334D01*
X134873277Y-85561795D01*
X134805317Y-85541253D01*
X134760081Y-85489049D01*
X134743849Y-85454238D01*
X134743846Y-85454233D01*
X134741523Y-85449251D01*
X134610198Y-85261700D01*
X134448300Y-85099802D01*
X134443792Y-85096645D01*
X134443789Y-85096643D01*
X134365611Y-85041902D01*
X134260749Y-84968477D01*
X134255767Y-84966154D01*
X134255762Y-84966151D01*
X134058225Y-84874039D01*
X134058224Y-84874039D01*
X134053243Y-84871716D01*
X134047935Y-84870294D01*
X134047933Y-84870293D01*
X133837402Y-84813881D01*
X133837400Y-84813881D01*
X133832087Y-84812457D01*
X133604000Y-84792502D01*
X133375913Y-84812457D01*
X133370600Y-84813881D01*
X133370598Y-84813881D01*
X133160067Y-84870293D01*
X133160065Y-84870294D01*
X133154757Y-84871716D01*
X133149776Y-84874039D01*
X133149775Y-84874039D01*
X132952238Y-84966151D01*
X132952233Y-84966154D01*
X132947251Y-84968477D01*
X132842389Y-85041902D01*
X132764211Y-85096643D01*
X132764208Y-85096645D01*
X132759700Y-85099802D01*
X132597802Y-85261700D01*
X132466477Y-85449251D01*
X132464154Y-85454233D01*
X132464151Y-85454238D01*
X132448195Y-85488457D01*
X132401278Y-85541742D01*
X132333001Y-85561203D01*
X132265041Y-85540661D01*
X132219805Y-85488457D01*
X132203849Y-85454238D01*
X132203846Y-85454233D01*
X132201523Y-85449251D01*
X132070198Y-85261700D01*
X131908300Y-85099802D01*
X131903792Y-85096645D01*
X131903789Y-85096643D01*
X131825611Y-85041902D01*
X131720749Y-84968477D01*
X131715767Y-84966154D01*
X131715762Y-84966151D01*
X131518225Y-84874039D01*
X131518224Y-84874039D01*
X131513243Y-84871716D01*
X131507935Y-84870294D01*
X131507933Y-84870293D01*
X131297402Y-84813881D01*
X131297400Y-84813881D01*
X131292087Y-84812457D01*
X131064000Y-84792502D01*
X130835913Y-84812457D01*
X130830600Y-84813881D01*
X130830598Y-84813881D01*
X130620067Y-84870293D01*
X130620065Y-84870294D01*
X130614757Y-84871716D01*
X130609776Y-84874039D01*
X130609775Y-84874039D01*
X130412238Y-84966151D01*
X130412233Y-84966154D01*
X130407251Y-84968477D01*
X130302389Y-85041902D01*
X130224211Y-85096643D01*
X130224208Y-85096645D01*
X130219700Y-85099802D01*
X130057802Y-85261700D01*
X129926477Y-85449251D01*
X129924154Y-85454233D01*
X129924151Y-85454238D01*
X129908195Y-85488457D01*
X129861278Y-85541742D01*
X129793001Y-85561203D01*
X129725041Y-85540661D01*
X129679805Y-85488457D01*
X129663849Y-85454238D01*
X129663846Y-85454233D01*
X129661523Y-85449251D01*
X129530198Y-85261700D01*
X129368300Y-85099802D01*
X129363792Y-85096645D01*
X129363789Y-85096643D01*
X129285611Y-85041902D01*
X129180749Y-84968477D01*
X129175767Y-84966154D01*
X129175762Y-84966151D01*
X128978225Y-84874039D01*
X128978224Y-84874039D01*
X128973243Y-84871716D01*
X128967935Y-84870294D01*
X128967933Y-84870293D01*
X128757402Y-84813881D01*
X128757400Y-84813881D01*
X128752087Y-84812457D01*
X128524000Y-84792502D01*
X128295913Y-84812457D01*
X128290600Y-84813881D01*
X128290598Y-84813881D01*
X128080067Y-84870293D01*
X128080065Y-84870294D01*
X128074757Y-84871716D01*
X128069776Y-84874039D01*
X128069775Y-84874039D01*
X127872238Y-84966151D01*
X127872233Y-84966154D01*
X127867251Y-84968477D01*
X127762389Y-85041902D01*
X127684211Y-85096643D01*
X127684208Y-85096645D01*
X127679700Y-85099802D01*
X127517802Y-85261700D01*
X127386477Y-85449251D01*
X127384154Y-85454233D01*
X127384151Y-85454238D01*
X127368195Y-85488457D01*
X127321278Y-85541742D01*
X127253001Y-85561203D01*
X127185041Y-85540661D01*
X127139805Y-85488457D01*
X127123849Y-85454238D01*
X127123846Y-85454233D01*
X127121523Y-85449251D01*
X126990198Y-85261700D01*
X126828300Y-85099802D01*
X126823792Y-85096645D01*
X126823789Y-85096643D01*
X126745611Y-85041902D01*
X126640749Y-84968477D01*
X126635767Y-84966154D01*
X126635762Y-84966151D01*
X126438225Y-84874039D01*
X126438224Y-84874039D01*
X126433243Y-84871716D01*
X126427935Y-84870294D01*
X126427933Y-84870293D01*
X126217402Y-84813881D01*
X126217400Y-84813881D01*
X126212087Y-84812457D01*
X125984000Y-84792502D01*
X125755913Y-84812457D01*
X125750600Y-84813881D01*
X125750598Y-84813881D01*
X125540067Y-84870293D01*
X125540065Y-84870294D01*
X125534757Y-84871716D01*
X125529776Y-84874039D01*
X125529775Y-84874039D01*
X125332238Y-84966151D01*
X125332233Y-84966154D01*
X125327251Y-84968477D01*
X125222389Y-85041902D01*
X125144211Y-85096643D01*
X125144208Y-85096645D01*
X125139700Y-85099802D01*
X124977802Y-85261700D01*
X124846477Y-85449251D01*
X124844154Y-85454233D01*
X124844151Y-85454238D01*
X124828195Y-85488457D01*
X124781278Y-85541742D01*
X124713001Y-85561203D01*
X124645041Y-85540661D01*
X124599805Y-85488457D01*
X124583849Y-85454238D01*
X124583846Y-85454233D01*
X124581523Y-85449251D01*
X124450198Y-85261700D01*
X124288300Y-85099802D01*
X124283792Y-85096645D01*
X124283789Y-85096643D01*
X124205611Y-85041902D01*
X124100749Y-84968477D01*
X124095767Y-84966154D01*
X124095762Y-84966151D01*
X123898225Y-84874039D01*
X123898224Y-84874039D01*
X123893243Y-84871716D01*
X123887935Y-84870294D01*
X123887933Y-84870293D01*
X123677402Y-84813881D01*
X123677400Y-84813881D01*
X123672087Y-84812457D01*
X123444000Y-84792502D01*
X123215913Y-84812457D01*
X123210600Y-84813881D01*
X123210598Y-84813881D01*
X123000067Y-84870293D01*
X123000065Y-84870294D01*
X122994757Y-84871716D01*
X122917408Y-84907784D01*
X122847217Y-84918445D01*
X122782405Y-84889465D01*
X122743162Y-84828741D01*
X122741611Y-84823401D01*
X122741608Y-84823395D01*
X122739398Y-84815787D01*
X122734219Y-84807029D01*
X122729087Y-84798352D01*
X122720392Y-84780604D01*
X122712932Y-84761763D01*
X122686944Y-84725993D01*
X122680428Y-84716073D01*
X122661960Y-84684845D01*
X122661958Y-84684842D01*
X122657922Y-84678018D01*
X122643601Y-84663697D01*
X122630760Y-84648663D01*
X122623511Y-84638686D01*
X122618852Y-84632273D01*
X122584775Y-84604082D01*
X122575996Y-84596092D01*
X121407652Y-83427747D01*
X121400112Y-83419461D01*
X121396000Y-83412982D01*
X121346348Y-83366356D01*
X121343507Y-83363602D01*
X121323770Y-83343865D01*
X121320573Y-83341385D01*
X121311551Y-83333680D01*
X121285100Y-83308841D01*
X121279321Y-83303414D01*
X121272375Y-83299595D01*
X121272372Y-83299593D01*
X121261566Y-83293652D01*
X121245047Y-83282801D01*
X121239048Y-83278148D01*
X121229041Y-83270386D01*
X121221772Y-83267241D01*
X121221768Y-83267238D01*
X121188463Y-83252826D01*
X121177813Y-83247609D01*
X121139060Y-83226305D01*
X121119437Y-83221267D01*
X121100734Y-83214863D01*
X121089420Y-83209967D01*
X121089419Y-83209967D01*
X121082145Y-83206819D01*
X121074322Y-83205580D01*
X121074312Y-83205577D01*
X121038476Y-83199901D01*
X121026856Y-83197495D01*
X120991711Y-83188472D01*
X120991710Y-83188472D01*
X120984030Y-83186500D01*
X120963776Y-83186500D01*
X120944065Y-83184949D01*
X120931886Y-83183020D01*
X120924057Y-83181780D01*
X120916165Y-83182526D01*
X120880039Y-83185941D01*
X120868181Y-83186500D01*
X114500200Y-83186500D01*
X114432079Y-83166498D01*
X114412853Y-83150157D01*
X114412580Y-83150460D01*
X114407668Y-83146037D01*
X114403253Y-83141134D01*
X114297865Y-83064565D01*
X114254094Y-83032763D01*
X114254093Y-83032762D01*
X114248752Y-83028882D01*
X114242724Y-83026198D01*
X114242722Y-83026197D01*
X114080319Y-82953891D01*
X114080318Y-82953891D01*
X114074288Y-82951206D01*
X113980888Y-82931353D01*
X113893944Y-82912872D01*
X113893939Y-82912872D01*
X113887487Y-82911500D01*
X113696513Y-82911500D01*
X113690061Y-82912872D01*
X113690056Y-82912872D01*
X113603112Y-82931353D01*
X113509712Y-82951206D01*
X113503682Y-82953891D01*
X113503681Y-82953891D01*
X113341278Y-83026197D01*
X113341276Y-83026198D01*
X113335248Y-83028882D01*
X113329907Y-83032762D01*
X113329906Y-83032763D01*
X113295171Y-83058000D01*
X113180747Y-83141134D01*
X113176326Y-83146044D01*
X113176325Y-83146045D01*
X113067203Y-83267238D01*
X113052960Y-83283056D01*
X112957473Y-83448444D01*
X112898458Y-83630072D01*
X112897768Y-83636633D01*
X112897768Y-83636635D01*
X112879186Y-83813435D01*
X112878496Y-83820000D01*
X112879186Y-83826565D01*
X112893894Y-83966500D01*
X112898458Y-84009928D01*
X112957473Y-84191556D01*
X113052960Y-84356944D01*
X113180747Y-84498866D01*
X113279922Y-84570921D01*
X113323275Y-84627144D01*
X113329350Y-84697880D01*
X113296218Y-84760672D01*
X113234398Y-84795583D01*
X113216846Y-84798377D01*
X113150191Y-84804209D01*
X113061394Y-84811977D01*
X113061389Y-84811978D01*
X113055913Y-84812457D01*
X113050600Y-84813881D01*
X113050598Y-84813881D01*
X112840067Y-84870293D01*
X112840065Y-84870294D01*
X112834757Y-84871716D01*
X112829776Y-84874039D01*
X112829775Y-84874039D01*
X112632238Y-84966151D01*
X112632233Y-84966154D01*
X112627251Y-84968477D01*
X112522389Y-85041902D01*
X112444211Y-85096643D01*
X112444208Y-85096645D01*
X112439700Y-85099802D01*
X112277802Y-85261700D01*
X112146477Y-85449251D01*
X112144154Y-85454233D01*
X112144151Y-85454238D01*
X112128195Y-85488457D01*
X112081278Y-85541742D01*
X112013001Y-85561203D01*
X111945041Y-85540661D01*
X111899805Y-85488457D01*
X111883849Y-85454238D01*
X111883846Y-85454233D01*
X111881523Y-85449251D01*
X111750198Y-85261700D01*
X111588300Y-85099802D01*
X111583792Y-85096645D01*
X111583789Y-85096643D01*
X111505611Y-85041902D01*
X111400749Y-84968477D01*
X111395767Y-84966154D01*
X111395762Y-84966151D01*
X111198225Y-84874039D01*
X111198224Y-84874039D01*
X111193243Y-84871716D01*
X111187935Y-84870294D01*
X111187933Y-84870293D01*
X110977402Y-84813881D01*
X110977400Y-84813881D01*
X110972087Y-84812457D01*
X110744000Y-84792502D01*
X110515913Y-84812457D01*
X110510600Y-84813881D01*
X110510598Y-84813881D01*
X110300067Y-84870293D01*
X110300065Y-84870294D01*
X110294757Y-84871716D01*
X110289776Y-84874039D01*
X110289775Y-84874039D01*
X110092238Y-84966151D01*
X110092233Y-84966154D01*
X110087251Y-84968477D01*
X109982389Y-85041902D01*
X109904211Y-85096643D01*
X109904208Y-85096645D01*
X109899700Y-85099802D01*
X109737802Y-85261700D01*
X109606477Y-85449251D01*
X109604154Y-85454233D01*
X109604151Y-85454238D01*
X109588195Y-85488457D01*
X109541278Y-85541742D01*
X109473001Y-85561203D01*
X109405041Y-85540661D01*
X109359805Y-85488457D01*
X109343849Y-85454238D01*
X109343846Y-85454233D01*
X109341523Y-85449251D01*
X109210198Y-85261700D01*
X109048300Y-85099802D01*
X109043792Y-85096645D01*
X109043789Y-85096643D01*
X108965611Y-85041902D01*
X108860749Y-84968477D01*
X108855767Y-84966154D01*
X108855762Y-84966151D01*
X108658225Y-84874039D01*
X108658224Y-84874039D01*
X108653243Y-84871716D01*
X108647935Y-84870294D01*
X108647933Y-84870293D01*
X108437402Y-84813881D01*
X108437400Y-84813881D01*
X108432087Y-84812457D01*
X108204000Y-84792502D01*
X107975913Y-84812457D01*
X107970600Y-84813881D01*
X107970598Y-84813881D01*
X107760067Y-84870293D01*
X107760065Y-84870294D01*
X107754757Y-84871716D01*
X107749776Y-84874039D01*
X107749775Y-84874039D01*
X107552238Y-84966151D01*
X107552233Y-84966154D01*
X107547251Y-84968477D01*
X107442389Y-85041902D01*
X107364211Y-85096643D01*
X107364208Y-85096645D01*
X107359700Y-85099802D01*
X107197802Y-85261700D01*
X107066477Y-85449251D01*
X107064154Y-85454233D01*
X107064151Y-85454238D01*
X107064034Y-85454489D01*
X106969716Y-85656757D01*
X106910457Y-85877913D01*
X106890502Y-86106000D01*
X102108500Y-86106000D01*
X102108500Y-80264000D01*
X131166496Y-80264000D01*
X131186458Y-80453928D01*
X131245473Y-80635556D01*
X131340960Y-80800944D01*
X131345378Y-80805851D01*
X131345379Y-80805852D01*
X131427452Y-80897003D01*
X131468747Y-80942866D01*
X131623248Y-81055118D01*
X131629276Y-81057802D01*
X131629278Y-81057803D01*
X131791681Y-81130109D01*
X131797712Y-81132794D01*
X131891112Y-81152647D01*
X131978056Y-81171128D01*
X131978061Y-81171128D01*
X131984513Y-81172500D01*
X132175487Y-81172500D01*
X132181939Y-81171128D01*
X132181944Y-81171128D01*
X132268888Y-81152647D01*
X132362288Y-81132794D01*
X132368319Y-81130109D01*
X132530722Y-81057803D01*
X132530724Y-81057802D01*
X132536752Y-81055118D01*
X132691253Y-80942866D01*
X132695668Y-80937963D01*
X132700580Y-80933540D01*
X132701705Y-80934789D01*
X132755014Y-80901949D01*
X132788200Y-80897500D01*
X135811233Y-80897500D01*
X135822416Y-80898027D01*
X135829909Y-80899702D01*
X135837835Y-80899453D01*
X135837836Y-80899453D01*
X135897986Y-80897562D01*
X135901945Y-80897500D01*
X135929856Y-80897500D01*
X135933791Y-80897003D01*
X135933856Y-80896995D01*
X135945693Y-80896062D01*
X135977951Y-80895048D01*
X135981970Y-80894922D01*
X135989889Y-80894673D01*
X136009343Y-80889021D01*
X136028700Y-80885013D01*
X136040930Y-80883468D01*
X136040931Y-80883468D01*
X136048797Y-80882474D01*
X136056168Y-80879555D01*
X136056170Y-80879555D01*
X136089912Y-80866196D01*
X136101142Y-80862351D01*
X136135983Y-80852229D01*
X136135984Y-80852229D01*
X136143593Y-80850018D01*
X136150412Y-80845985D01*
X136150417Y-80845983D01*
X136161028Y-80839707D01*
X136178776Y-80831012D01*
X136197617Y-80823552D01*
X136233387Y-80797564D01*
X136243307Y-80791048D01*
X136274535Y-80772580D01*
X136274538Y-80772578D01*
X136281362Y-80768542D01*
X136295683Y-80754221D01*
X136310717Y-80741380D01*
X136320694Y-80734131D01*
X136327107Y-80729472D01*
X136355298Y-80695395D01*
X136363288Y-80686616D01*
X137110499Y-79939405D01*
X137172811Y-79905379D01*
X137199594Y-79902500D01*
X137255487Y-79902500D01*
X137261939Y-79901128D01*
X137261944Y-79901128D01*
X137359576Y-79880375D01*
X137442288Y-79862794D01*
X137606032Y-79789891D01*
X137610722Y-79787803D01*
X137610724Y-79787802D01*
X137616752Y-79785118D01*
X137659456Y-79754092D01*
X137703422Y-79722148D01*
X137771253Y-79672866D01*
X137802232Y-79638460D01*
X137894621Y-79535852D01*
X137894622Y-79535851D01*
X137899040Y-79530944D01*
X137994527Y-79365556D01*
X138053542Y-79183928D01*
X138073504Y-78994000D01*
X138053542Y-78804072D01*
X137994527Y-78622444D01*
X137899040Y-78457056D01*
X137771253Y-78315134D01*
X137616752Y-78202882D01*
X137610724Y-78200198D01*
X137610722Y-78200197D01*
X137448319Y-78127891D01*
X137448318Y-78127891D01*
X137442288Y-78125206D01*
X137348887Y-78105353D01*
X137261944Y-78086872D01*
X137261939Y-78086872D01*
X137255487Y-78085500D01*
X137064513Y-78085500D01*
X137058061Y-78086872D01*
X137058056Y-78086872D01*
X136971113Y-78105353D01*
X136877712Y-78125206D01*
X136871682Y-78127891D01*
X136871681Y-78127891D01*
X136709278Y-78200197D01*
X136709276Y-78200198D01*
X136703248Y-78202882D01*
X136548747Y-78315134D01*
X136420960Y-78457056D01*
X136325473Y-78622444D01*
X136266458Y-78804072D01*
X136265768Y-78810633D01*
X136265768Y-78810635D01*
X136249093Y-78969292D01*
X136222080Y-79034949D01*
X136212878Y-79045217D01*
X135664500Y-79593595D01*
X135602188Y-79627621D01*
X135575405Y-79630500D01*
X132788200Y-79630500D01*
X132720079Y-79610498D01*
X132700853Y-79594157D01*
X132700580Y-79594460D01*
X132695668Y-79590037D01*
X132691253Y-79585134D01*
X132669671Y-79569454D01*
X132542094Y-79476763D01*
X132542093Y-79476762D01*
X132536752Y-79472882D01*
X132530724Y-79470198D01*
X132530722Y-79470197D01*
X132368319Y-79397891D01*
X132368318Y-79397891D01*
X132362288Y-79395206D01*
X132249721Y-79371279D01*
X132181944Y-79356872D01*
X132181939Y-79356872D01*
X132175487Y-79355500D01*
X131984513Y-79355500D01*
X131978061Y-79356872D01*
X131978056Y-79356872D01*
X131910279Y-79371279D01*
X131797712Y-79395206D01*
X131791682Y-79397891D01*
X131791681Y-79397891D01*
X131629278Y-79470197D01*
X131629276Y-79470198D01*
X131623248Y-79472882D01*
X131468747Y-79585134D01*
X131464326Y-79590044D01*
X131464325Y-79590045D01*
X131386257Y-79676749D01*
X131340960Y-79727056D01*
X131245473Y-79892444D01*
X131186458Y-80074072D01*
X131166496Y-80264000D01*
X102108500Y-80264000D01*
X102108500Y-79584134D01*
X119149000Y-79584134D01*
X119155755Y-79646316D01*
X119206885Y-79782705D01*
X119294239Y-79899261D01*
X119410795Y-79986615D01*
X119547184Y-80037745D01*
X119609366Y-80044500D01*
X121805634Y-80044500D01*
X121867816Y-80037745D01*
X122004205Y-79986615D01*
X122120761Y-79899261D01*
X122193930Y-79801633D01*
X122250788Y-79759118D01*
X122321607Y-79754092D01*
X122360590Y-79769766D01*
X122533772Y-79875893D01*
X122542567Y-79880375D01*
X122759990Y-79970434D01*
X122769375Y-79973483D01*
X122998208Y-80028422D01*
X123007955Y-80029965D01*
X123242570Y-80048430D01*
X123252430Y-80048430D01*
X123487045Y-80029965D01*
X123496792Y-80028422D01*
X123725625Y-79973483D01*
X123735010Y-79970434D01*
X123952433Y-79880375D01*
X123961228Y-79875893D01*
X124142305Y-79764928D01*
X124151767Y-79754470D01*
X124147984Y-79745694D01*
X122977385Y-78575095D01*
X122943359Y-78512783D01*
X122945194Y-78487132D01*
X123611908Y-78487132D01*
X123612039Y-78488965D01*
X123616290Y-78495580D01*
X124509895Y-79389185D01*
X124521310Y-79402549D01*
X124522748Y-79404896D01*
X124682067Y-79591433D01*
X124685823Y-79594641D01*
X124862682Y-79745694D01*
X124868604Y-79750752D01*
X124872827Y-79753340D01*
X124872830Y-79753342D01*
X124929066Y-79787803D01*
X125077768Y-79878927D01*
X125222467Y-79938864D01*
X125299835Y-79970911D01*
X125299837Y-79970912D01*
X125304408Y-79972805D01*
X125339497Y-79981229D01*
X125538130Y-80028917D01*
X125538136Y-80028918D01*
X125542943Y-80030072D01*
X125787500Y-80049319D01*
X126032057Y-80030072D01*
X126036864Y-80028918D01*
X126036870Y-80028917D01*
X126235503Y-79981229D01*
X126270592Y-79972805D01*
X126275163Y-79970912D01*
X126275165Y-79970911D01*
X126352533Y-79938864D01*
X126497232Y-79878927D01*
X126645934Y-79787803D01*
X126702170Y-79753342D01*
X126702173Y-79753340D01*
X126706396Y-79750752D01*
X126712319Y-79745694D01*
X126889177Y-79594641D01*
X126892933Y-79591433D01*
X127052252Y-79404896D01*
X127072853Y-79371279D01*
X127097238Y-79331485D01*
X127180427Y-79195732D01*
X127257391Y-79009925D01*
X127272411Y-78973665D01*
X127272412Y-78973663D01*
X127274305Y-78969092D01*
X127331572Y-78730557D01*
X127350819Y-78486000D01*
X127331572Y-78241443D01*
X127322315Y-78202882D01*
X127275460Y-78007720D01*
X127274305Y-78002908D01*
X127180427Y-77776268D01*
X127052252Y-77567104D01*
X126892933Y-77380567D01*
X126820011Y-77318285D01*
X126710163Y-77224465D01*
X126710160Y-77224463D01*
X126706396Y-77221248D01*
X126702173Y-77218660D01*
X126702170Y-77218658D01*
X126623365Y-77170367D01*
X126497232Y-77093073D01*
X126352533Y-77033136D01*
X126275165Y-77001089D01*
X126275163Y-77001088D01*
X126270592Y-76999195D01*
X126187937Y-76979351D01*
X126036870Y-76943083D01*
X126036864Y-76943082D01*
X126032057Y-76941928D01*
X125787500Y-76922681D01*
X125542943Y-76941928D01*
X125538136Y-76943082D01*
X125538130Y-76943083D01*
X125387063Y-76979351D01*
X125304408Y-76999195D01*
X125299837Y-77001088D01*
X125299835Y-77001089D01*
X125222467Y-77033136D01*
X125077768Y-77093073D01*
X124951635Y-77170367D01*
X124872830Y-77218658D01*
X124872827Y-77218660D01*
X124868604Y-77221248D01*
X124864840Y-77224463D01*
X124864837Y-77224465D01*
X124754989Y-77318285D01*
X124682067Y-77380567D01*
X124522748Y-77567104D01*
X124521310Y-77569451D01*
X124509895Y-77582815D01*
X123619522Y-78473188D01*
X123611908Y-78487132D01*
X122945194Y-78487132D01*
X122948424Y-78441968D01*
X122977385Y-78396905D01*
X124144940Y-77229350D01*
X124151700Y-77216970D01*
X124145973Y-77209320D01*
X123961228Y-77096107D01*
X123952433Y-77091625D01*
X123735010Y-77001566D01*
X123725625Y-76998517D01*
X123496792Y-76943578D01*
X123487045Y-76942035D01*
X123252430Y-76923570D01*
X123242570Y-76923570D01*
X123007955Y-76942035D01*
X122998208Y-76943578D01*
X122769375Y-76998517D01*
X122759990Y-77001566D01*
X122542567Y-77091625D01*
X122533772Y-77096107D01*
X122360590Y-77202234D01*
X122292057Y-77220773D01*
X122224380Y-77199317D01*
X122193929Y-77170367D01*
X122137939Y-77095659D01*
X122120761Y-77072739D01*
X122004205Y-76985385D01*
X121867816Y-76934255D01*
X121805634Y-76927500D01*
X119609366Y-76927500D01*
X119547184Y-76934255D01*
X119410795Y-76985385D01*
X119294239Y-77072739D01*
X119206885Y-77189295D01*
X119155755Y-77325684D01*
X119149000Y-77387866D01*
X119149000Y-79584134D01*
X102108500Y-79584134D01*
X102108500Y-75056500D01*
X102128502Y-74988379D01*
X102182158Y-74941886D01*
X102234500Y-74930500D01*
X147193500Y-74930500D01*
X147261621Y-74950502D01*
G37*
%TD.AperFunction*%
%TD*%
M02*
