M48
; DRILL file {KiCad (6.0.10)} date Sat Feb  4 03:27:01 2023
; FORMAT={-:-/ absolute / inch / decimal}
; #@! TF.CreationDate,2023-02-04T03:27:01-05:00
; #@! TF.GenerationSoftware,Kicad,Pcbnew,(6.0.10)
; #@! TF.FileFunction,Plated,1,2,PTH
FMAT,2
INCH
; #@! TA.AperFunction,Plated,PTH,ViaDrill
T1C0.0157
; #@! TA.AperFunction,Plated,PTH,ComponentDrill
T2C0.0394
; #@! TA.AperFunction,Plated,PTH,ComponentDrill
T3C0.0433
%
G90
G05
T1
X4.48Y-3.3
X4.57Y-3.08
X4.86Y-3.54
X5.07Y-3.57
X5.13Y-3.23
X5.18Y-3.81
X5.2Y-3.16
X5.4Y-3.11
X5.44Y-3.3
X5.48Y-3.27
X5.56Y-3.3
X5.62Y-3.27
X5.66Y-3.07
T2
X4.26Y-3.39
X4.26Y-3.99
X4.36Y-3.39
X4.36Y-3.99
X4.46Y-3.39
X4.46Y-3.99
X4.56Y-3.39
X4.56Y-3.99
X4.66Y-3.39
X4.66Y-3.99
X4.76Y-3.39
X4.76Y-3.99
X4.86Y-3.39
X4.86Y-3.99
X4.96Y-3.39
X4.96Y-3.99
X5.06Y-3.39
X5.06Y-3.99
X5.16Y-3.39
X5.16Y-3.99
X5.26Y-3.39
X5.26Y-3.99
X5.36Y-3.39
X5.36Y-3.99
X5.46Y-3.39
X5.46Y-3.99
X5.56Y-3.39
X5.56Y-3.99
X5.66Y-3.39
X5.66Y-3.99
T3
X4.7523Y-3.09
X4.8523Y-3.09
X4.9523Y-3.09
T0
M30
