%TF.GenerationSoftware,KiCad,Pcbnew,6.0.2+dfsg-1*%
%TF.CreationDate,2023-02-05T15:53:52-05:00*%
%TF.ProjectId,lin-master,6c696e2d-6d61-4737-9465-722e6b696361,1.0*%
%TF.SameCoordinates,Original*%
%TF.FileFunction,Legend,Top*%
%TF.FilePolarity,Positive*%
%FSLAX46Y46*%
G04 Gerber Fmt 4.6, Leading zero omitted, Abs format (unit mm)*
G04 Created by KiCad (PCBNEW 6.0.2+dfsg-1) date 2023-02-05 15:53:52*
%MOMM*%
%LPD*%
G01*
G04 APERTURE LIST*
%ADD10C,0.150000*%
%ADD11C,0.127000*%
%ADD12C,0.254000*%
%ADD13C,0.398780*%
%ADD14C,0.120000*%
G04 APERTURE END LIST*
D10*
X103104761Y-84152380D02*
X102628571Y-84152380D01*
X102628571Y-83152380D01*
X103438095Y-84152380D02*
X103438095Y-83152380D01*
X103914285Y-84152380D02*
X103914285Y-83152380D01*
X104485714Y-84152380D01*
X104485714Y-83152380D01*
X105295238Y-83628571D02*
X105438095Y-83676190D01*
X105485714Y-83723809D01*
X105533333Y-83819047D01*
X105533333Y-83961904D01*
X105485714Y-84057142D01*
X105438095Y-84104761D01*
X105342857Y-84152380D01*
X104961904Y-84152380D01*
X104961904Y-83152380D01*
X105295238Y-83152380D01*
X105390476Y-83200000D01*
X105438095Y-83247619D01*
X105485714Y-83342857D01*
X105485714Y-83438095D01*
X105438095Y-83533333D01*
X105390476Y-83580952D01*
X105295238Y-83628571D01*
X104961904Y-83628571D01*
X106390476Y-83485714D02*
X106390476Y-84152380D01*
X105961904Y-83485714D02*
X105961904Y-84009523D01*
X106009523Y-84104761D01*
X106104761Y-84152380D01*
X106247619Y-84152380D01*
X106342857Y-84104761D01*
X106390476Y-84057142D01*
X106819047Y-84104761D02*
X106914285Y-84152380D01*
X107104761Y-84152380D01*
X107200000Y-84104761D01*
X107247619Y-84009523D01*
X107247619Y-83961904D01*
X107200000Y-83866666D01*
X107104761Y-83819047D01*
X106961904Y-83819047D01*
X106866666Y-83771428D01*
X106819047Y-83676190D01*
X106819047Y-83628571D01*
X106866666Y-83533333D01*
X106961904Y-83485714D01*
X107104761Y-83485714D01*
X107200000Y-83533333D01*
X108438095Y-84152380D02*
X108438095Y-83152380D01*
X108771428Y-83866666D01*
X109104761Y-83152380D01*
X109104761Y-84152380D01*
X110009523Y-84152380D02*
X110009523Y-83628571D01*
X109961904Y-83533333D01*
X109866666Y-83485714D01*
X109676190Y-83485714D01*
X109580952Y-83533333D01*
X110009523Y-84104761D02*
X109914285Y-84152380D01*
X109676190Y-84152380D01*
X109580952Y-84104761D01*
X109533333Y-84009523D01*
X109533333Y-83914285D01*
X109580952Y-83819047D01*
X109676190Y-83771428D01*
X109914285Y-83771428D01*
X110009523Y-83723809D01*
X110438095Y-84104761D02*
X110533333Y-84152380D01*
X110723809Y-84152380D01*
X110819047Y-84104761D01*
X110866666Y-84009523D01*
X110866666Y-83961904D01*
X110819047Y-83866666D01*
X110723809Y-83819047D01*
X110580952Y-83819047D01*
X110485714Y-83771428D01*
X110438095Y-83676190D01*
X110438095Y-83628571D01*
X110485714Y-83533333D01*
X110580952Y-83485714D01*
X110723809Y-83485714D01*
X110819047Y-83533333D01*
X111152380Y-83485714D02*
X111533333Y-83485714D01*
X111295238Y-83152380D02*
X111295238Y-84009523D01*
X111342857Y-84104761D01*
X111438095Y-84152380D01*
X111533333Y-84152380D01*
X112247619Y-84104761D02*
X112152380Y-84152380D01*
X111961904Y-84152380D01*
X111866666Y-84104761D01*
X111819047Y-84009523D01*
X111819047Y-83628571D01*
X111866666Y-83533333D01*
X111961904Y-83485714D01*
X112152380Y-83485714D01*
X112247619Y-83533333D01*
X112295238Y-83628571D01*
X112295238Y-83723809D01*
X111819047Y-83819047D01*
X112723809Y-84152380D02*
X112723809Y-83485714D01*
X112723809Y-83676190D02*
X112771428Y-83580952D01*
X112819047Y-83533333D01*
X112914285Y-83485714D01*
X113009523Y-83485714D01*
X114009523Y-83485714D02*
X114247619Y-84152380D01*
X114485714Y-83485714D01*
X115390476Y-84152380D02*
X114819047Y-84152380D01*
X115104761Y-84152380D02*
X115104761Y-83152380D01*
X115009523Y-83295238D01*
X114914285Y-83390476D01*
X114819047Y-83438095D01*
X115819047Y-84057142D02*
X115866666Y-84104761D01*
X115819047Y-84152380D01*
X115771428Y-84104761D01*
X115819047Y-84057142D01*
X115819047Y-84152380D01*
X116485714Y-83152380D02*
X116580952Y-83152380D01*
X116676190Y-83200000D01*
X116723809Y-83247619D01*
X116771428Y-83342857D01*
X116819047Y-83533333D01*
X116819047Y-83771428D01*
X116771428Y-83961904D01*
X116723809Y-84057142D01*
X116676190Y-84104761D01*
X116580952Y-84152380D01*
X116485714Y-84152380D01*
X116390476Y-84104761D01*
X116342857Y-84057142D01*
X116295238Y-83961904D01*
X116247619Y-83771428D01*
X116247619Y-83533333D01*
X116295238Y-83342857D01*
X116342857Y-83247619D01*
X116390476Y-83200000D01*
X116485714Y-83152380D01*
X119419047Y-84533333D02*
X119371428Y-84485714D01*
X119276190Y-84342857D01*
X119228571Y-84247619D01*
X119180952Y-84104761D01*
X119133333Y-83866666D01*
X119133333Y-83676190D01*
X119180952Y-83438095D01*
X119228571Y-83295238D01*
X119276190Y-83200000D01*
X119371428Y-83057142D01*
X119419047Y-83009523D01*
X120228571Y-84104761D02*
X120133333Y-84152380D01*
X119942857Y-84152380D01*
X119847619Y-84104761D01*
X119800000Y-84057142D01*
X119752380Y-83961904D01*
X119752380Y-83676190D01*
X119800000Y-83580952D01*
X119847619Y-83533333D01*
X119942857Y-83485714D01*
X120133333Y-83485714D01*
X120228571Y-83533333D01*
X120561904Y-84533333D02*
X120609523Y-84485714D01*
X120704761Y-84342857D01*
X120752380Y-84247619D01*
X120800000Y-84104761D01*
X120847619Y-83866666D01*
X120847619Y-83676190D01*
X120800000Y-83438095D01*
X120752380Y-83295238D01*
X120704761Y-83200000D01*
X120609523Y-83057142D01*
X120561904Y-83009523D01*
X122038095Y-83247619D02*
X122085714Y-83200000D01*
X122180952Y-83152380D01*
X122419047Y-83152380D01*
X122514285Y-83200000D01*
X122561904Y-83247619D01*
X122609523Y-83342857D01*
X122609523Y-83438095D01*
X122561904Y-83580952D01*
X121990476Y-84152380D01*
X122609523Y-84152380D01*
X123228571Y-83152380D02*
X123323809Y-83152380D01*
X123419047Y-83200000D01*
X123466666Y-83247619D01*
X123514285Y-83342857D01*
X123561904Y-83533333D01*
X123561904Y-83771428D01*
X123514285Y-83961904D01*
X123466666Y-84057142D01*
X123419047Y-84104761D01*
X123323809Y-84152380D01*
X123228571Y-84152380D01*
X123133333Y-84104761D01*
X123085714Y-84057142D01*
X123038095Y-83961904D01*
X122990476Y-83771428D01*
X122990476Y-83533333D01*
X123038095Y-83342857D01*
X123085714Y-83247619D01*
X123133333Y-83200000D01*
X123228571Y-83152380D01*
X123942857Y-83247619D02*
X123990476Y-83200000D01*
X124085714Y-83152380D01*
X124323809Y-83152380D01*
X124419047Y-83200000D01*
X124466666Y-83247619D01*
X124514285Y-83342857D01*
X124514285Y-83438095D01*
X124466666Y-83580952D01*
X123895238Y-84152380D01*
X124514285Y-84152380D01*
X124847619Y-83152380D02*
X125466666Y-83152380D01*
X125133333Y-83533333D01*
X125276190Y-83533333D01*
X125371428Y-83580952D01*
X125419047Y-83628571D01*
X125466666Y-83723809D01*
X125466666Y-83961904D01*
X125419047Y-84057142D01*
X125371428Y-84104761D01*
X125276190Y-84152380D01*
X124990476Y-84152380D01*
X124895238Y-84104761D01*
X124847619Y-84057142D01*
X127180952Y-83200000D02*
X127085714Y-83152380D01*
X126942857Y-83152380D01*
X126800000Y-83200000D01*
X126704761Y-83295238D01*
X126657142Y-83390476D01*
X126609523Y-83580952D01*
X126609523Y-83723809D01*
X126657142Y-83914285D01*
X126704761Y-84009523D01*
X126800000Y-84104761D01*
X126942857Y-84152380D01*
X127038095Y-84152380D01*
X127180952Y-84104761D01*
X127228571Y-84057142D01*
X127228571Y-83723809D01*
X127038095Y-83723809D01*
X128085714Y-84152380D02*
X128085714Y-83628571D01*
X128038095Y-83533333D01*
X127942857Y-83485714D01*
X127752380Y-83485714D01*
X127657142Y-83533333D01*
X128085714Y-84104761D02*
X127990476Y-84152380D01*
X127752380Y-84152380D01*
X127657142Y-84104761D01*
X127609523Y-84009523D01*
X127609523Y-83914285D01*
X127657142Y-83819047D01*
X127752380Y-83771428D01*
X127990476Y-83771428D01*
X128085714Y-83723809D01*
X128466666Y-83485714D02*
X128704761Y-84152380D01*
X128942857Y-83485714D01*
X129323809Y-84152380D02*
X129323809Y-83485714D01*
X129323809Y-83152380D02*
X129276190Y-83200000D01*
X129323809Y-83247619D01*
X129371428Y-83200000D01*
X129323809Y-83152380D01*
X129323809Y-83247619D01*
X129800000Y-83485714D02*
X129800000Y-84152380D01*
X129800000Y-83580952D02*
X129847619Y-83533333D01*
X129942857Y-83485714D01*
X130085714Y-83485714D01*
X130180952Y-83533333D01*
X130228571Y-83628571D01*
X130228571Y-84152380D01*
X131466666Y-84152380D02*
X131466666Y-83152380D01*
X131466666Y-83628571D02*
X132038095Y-83628571D01*
X132038095Y-84152380D02*
X132038095Y-83152380D01*
X132942857Y-83485714D02*
X132942857Y-84152380D01*
X132514285Y-83485714D02*
X132514285Y-84009523D01*
X132561904Y-84104761D01*
X132657142Y-84152380D01*
X132800000Y-84152380D01*
X132895238Y-84104761D01*
X132942857Y-84057142D01*
X133419047Y-84152380D02*
X133419047Y-83485714D01*
X133419047Y-83676190D02*
X133466666Y-83580952D01*
X133514285Y-83533333D01*
X133609523Y-83485714D01*
X133704761Y-83485714D01*
X134180952Y-84152380D02*
X134085714Y-84104761D01*
X134038095Y-84009523D01*
X134038095Y-83152380D01*
X134561904Y-84152380D02*
X134561904Y-83152380D01*
X134561904Y-83533333D02*
X134657142Y-83485714D01*
X134847619Y-83485714D01*
X134942857Y-83533333D01*
X134990476Y-83580952D01*
X135038095Y-83676190D01*
X135038095Y-83961904D01*
X134990476Y-84057142D01*
X134942857Y-84104761D01*
X134847619Y-84152380D01*
X134657142Y-84152380D01*
X134561904Y-84104761D01*
X135895238Y-83485714D02*
X135895238Y-84152380D01*
X135466666Y-83485714D02*
X135466666Y-84009523D01*
X135514285Y-84104761D01*
X135609523Y-84152380D01*
X135752380Y-84152380D01*
X135847619Y-84104761D01*
X135895238Y-84057142D01*
X136228571Y-83485714D02*
X136609523Y-83485714D01*
X136371428Y-83152380D02*
X136371428Y-84009523D01*
X136419047Y-84104761D01*
X136514285Y-84152380D01*
X136609523Y-84152380D01*
D11*
%TO.C,J2*%
X109349171Y-78914200D02*
X109784600Y-78914200D01*
X109871685Y-78943228D01*
X109929742Y-79001285D01*
X109958771Y-79088371D01*
X109958771Y-79146428D01*
X109407228Y-78652942D02*
X109378200Y-78623914D01*
X109349171Y-78565857D01*
X109349171Y-78420714D01*
X109378200Y-78362657D01*
X109407228Y-78333628D01*
X109465285Y-78304600D01*
X109523342Y-78304600D01*
X109610428Y-78333628D01*
X109958771Y-78681971D01*
X109958771Y-78304600D01*
D10*
%TO.C,R10*%
X116152380Y-94242857D02*
X115676190Y-94576190D01*
X116152380Y-94814285D02*
X115152380Y-94814285D01*
X115152380Y-94433333D01*
X115200000Y-94338095D01*
X115247619Y-94290476D01*
X115342857Y-94242857D01*
X115485714Y-94242857D01*
X115580952Y-94290476D01*
X115628571Y-94338095D01*
X115676190Y-94433333D01*
X115676190Y-94814285D01*
X116152380Y-93290476D02*
X116152380Y-93861904D01*
X116152380Y-93576190D02*
X115152380Y-93576190D01*
X115295238Y-93671428D01*
X115390476Y-93766666D01*
X115438095Y-93861904D01*
X115152380Y-92671428D02*
X115152380Y-92576190D01*
X115200000Y-92480952D01*
X115247619Y-92433333D01*
X115342857Y-92385714D01*
X115533333Y-92338095D01*
X115771428Y-92338095D01*
X115961904Y-92385714D01*
X116057142Y-92433333D01*
X116104761Y-92480952D01*
X116152380Y-92576190D01*
X116152380Y-92671428D01*
X116104761Y-92766666D01*
X116057142Y-92814285D01*
X115961904Y-92861904D01*
X115771428Y-92909523D01*
X115533333Y-92909523D01*
X115342857Y-92861904D01*
X115247619Y-92814285D01*
X115200000Y-92766666D01*
X115152380Y-92671428D01*
%TO.C,R9*%
X118952380Y-93966666D02*
X118476190Y-94300000D01*
X118952380Y-94538095D02*
X117952380Y-94538095D01*
X117952380Y-94157142D01*
X118000000Y-94061904D01*
X118047619Y-94014285D01*
X118142857Y-93966666D01*
X118285714Y-93966666D01*
X118380952Y-94014285D01*
X118428571Y-94061904D01*
X118476190Y-94157142D01*
X118476190Y-94538095D01*
X118952380Y-93490476D02*
X118952380Y-93300000D01*
X118904761Y-93204761D01*
X118857142Y-93157142D01*
X118714285Y-93061904D01*
X118523809Y-93014285D01*
X118142857Y-93014285D01*
X118047619Y-93061904D01*
X118000000Y-93109523D01*
X117952380Y-93204761D01*
X117952380Y-93395238D01*
X118000000Y-93490476D01*
X118047619Y-93538095D01*
X118142857Y-93585714D01*
X118380952Y-93585714D01*
X118476190Y-93538095D01*
X118523809Y-93490476D01*
X118571428Y-93395238D01*
X118571428Y-93204761D01*
X118523809Y-93109523D01*
X118476190Y-93061904D01*
X118380952Y-93014285D01*
%TO.C,R8*%
X121552380Y-93766666D02*
X121076190Y-94100000D01*
X121552380Y-94338095D02*
X120552380Y-94338095D01*
X120552380Y-93957142D01*
X120600000Y-93861904D01*
X120647619Y-93814285D01*
X120742857Y-93766666D01*
X120885714Y-93766666D01*
X120980952Y-93814285D01*
X121028571Y-93861904D01*
X121076190Y-93957142D01*
X121076190Y-94338095D01*
X120980952Y-93195238D02*
X120933333Y-93290476D01*
X120885714Y-93338095D01*
X120790476Y-93385714D01*
X120742857Y-93385714D01*
X120647619Y-93338095D01*
X120600000Y-93290476D01*
X120552380Y-93195238D01*
X120552380Y-93004761D01*
X120600000Y-92909523D01*
X120647619Y-92861904D01*
X120742857Y-92814285D01*
X120790476Y-92814285D01*
X120885714Y-92861904D01*
X120933333Y-92909523D01*
X120980952Y-93004761D01*
X120980952Y-93195238D01*
X121028571Y-93290476D01*
X121076190Y-93338095D01*
X121171428Y-93385714D01*
X121361904Y-93385714D01*
X121457142Y-93338095D01*
X121504761Y-93290476D01*
X121552380Y-93195238D01*
X121552380Y-93004761D01*
X121504761Y-92909523D01*
X121457142Y-92861904D01*
X121361904Y-92814285D01*
X121171428Y-92814285D01*
X121076190Y-92861904D01*
X121028571Y-92909523D01*
X120980952Y-93004761D01*
D11*
%TO.C,J3*%
X117654251Y-78933040D02*
X118089680Y-78933040D01*
X118176765Y-78962068D01*
X118234822Y-79020125D01*
X118263851Y-79107211D01*
X118263851Y-79165268D01*
X117654251Y-78700811D02*
X117654251Y-78323440D01*
X117886480Y-78526640D01*
X117886480Y-78439554D01*
X117915508Y-78381497D01*
X117944537Y-78352468D01*
X118002594Y-78323440D01*
X118147737Y-78323440D01*
X118205794Y-78352468D01*
X118234822Y-78381497D01*
X118263851Y-78439554D01*
X118263851Y-78613725D01*
X118234822Y-78671782D01*
X118205794Y-78700811D01*
D10*
%TO.C,J1*%
X128444666Y-75398380D02*
X128444666Y-76112666D01*
X128397047Y-76255523D01*
X128301809Y-76350761D01*
X128158952Y-76398380D01*
X128063714Y-76398380D01*
X129444666Y-76398380D02*
X128873238Y-76398380D01*
X129158952Y-76398380D02*
X129158952Y-75398380D01*
X129063714Y-75541238D01*
X128968476Y-75636476D01*
X128873238Y-75684095D01*
%TO.C,C1*%
X128881142Y-79922666D02*
X128928761Y-79970285D01*
X128976380Y-80113142D01*
X128976380Y-80208380D01*
X128928761Y-80351238D01*
X128833523Y-80446476D01*
X128738285Y-80494095D01*
X128547809Y-80541714D01*
X128404952Y-80541714D01*
X128214476Y-80494095D01*
X128119238Y-80446476D01*
X128024000Y-80351238D01*
X127976380Y-80208380D01*
X127976380Y-80113142D01*
X128024000Y-79970285D01*
X128071619Y-79922666D01*
X128976380Y-78970285D02*
X128976380Y-79541714D01*
X128976380Y-79256000D02*
X127976380Y-79256000D01*
X128119238Y-79351238D01*
X128214476Y-79446476D01*
X128262095Y-79541714D01*
%TO.C,R7*%
X133199333Y-80588380D02*
X132866000Y-80112190D01*
X132627904Y-80588380D02*
X132627904Y-79588380D01*
X133008857Y-79588380D01*
X133104095Y-79636000D01*
X133151714Y-79683619D01*
X133199333Y-79778857D01*
X133199333Y-79921714D01*
X133151714Y-80016952D01*
X133104095Y-80064571D01*
X133008857Y-80112190D01*
X132627904Y-80112190D01*
X133532666Y-79588380D02*
X134199333Y-79588380D01*
X133770761Y-80588380D01*
%TO.C,U2*%
X138038380Y-79247904D02*
X138847904Y-79247904D01*
X138943142Y-79200285D01*
X138990761Y-79152666D01*
X139038380Y-79057428D01*
X139038380Y-78866952D01*
X138990761Y-78771714D01*
X138943142Y-78724095D01*
X138847904Y-78676476D01*
X138038380Y-78676476D01*
X138133619Y-78247904D02*
X138086000Y-78200285D01*
X138038380Y-78105047D01*
X138038380Y-77866952D01*
X138086000Y-77771714D01*
X138133619Y-77724095D01*
X138228857Y-77676476D01*
X138324095Y-77676476D01*
X138466952Y-77724095D01*
X139038380Y-78295523D01*
X139038380Y-77676476D01*
X138644380Y-81788000D02*
X138882476Y-81788000D01*
X138787238Y-82026095D02*
X138882476Y-81788000D01*
X138787238Y-81549904D01*
X139072952Y-81930857D02*
X138882476Y-81788000D01*
X139072952Y-81645142D01*
%TO.C,U1*%
X102576380Y-87629904D02*
X103385904Y-87629904D01*
X103481142Y-87582285D01*
X103528761Y-87534666D01*
X103576380Y-87439428D01*
X103576380Y-87248952D01*
X103528761Y-87153714D01*
X103481142Y-87106095D01*
X103385904Y-87058476D01*
X102576380Y-87058476D01*
X103576380Y-86058476D02*
X103576380Y-86629904D01*
X103576380Y-86344190D02*
X102576380Y-86344190D01*
X102719238Y-86439428D01*
X102814476Y-86534666D01*
X102862095Y-86629904D01*
X145581619Y-83566000D02*
X145343523Y-83566000D01*
X145438761Y-83327904D02*
X145343523Y-83566000D01*
X145438761Y-83804095D01*
X145153047Y-83423142D02*
X145343523Y-83566000D01*
X145153047Y-83708857D01*
X108751619Y-92464095D02*
X107942095Y-92464095D01*
X107846857Y-92511714D01*
X107799238Y-92559333D01*
X107751619Y-92654571D01*
X107751619Y-92845047D01*
X107799238Y-92940285D01*
X107846857Y-92987904D01*
X107942095Y-93035523D01*
X108751619Y-93035523D01*
X107799238Y-93464095D02*
X107751619Y-93606952D01*
X107751619Y-93845047D01*
X107799238Y-93940285D01*
X107846857Y-93987904D01*
X107942095Y-94035523D01*
X108037333Y-94035523D01*
X108132571Y-93987904D01*
X108180190Y-93940285D01*
X108227809Y-93845047D01*
X108275428Y-93654571D01*
X108323047Y-93559333D01*
X108370666Y-93511714D01*
X108465904Y-93464095D01*
X108561142Y-93464095D01*
X108656380Y-93511714D01*
X108704000Y-93559333D01*
X108751619Y-93654571D01*
X108751619Y-93892666D01*
X108704000Y-94035523D01*
X108275428Y-94797428D02*
X108227809Y-94940285D01*
X108180190Y-94987904D01*
X108084952Y-95035523D01*
X107942095Y-95035523D01*
X107846857Y-94987904D01*
X107799238Y-94940285D01*
X107751619Y-94845047D01*
X107751619Y-94464095D01*
X108751619Y-94464095D01*
X108751619Y-94797428D01*
X108704000Y-94892666D01*
X108656380Y-94940285D01*
X108561142Y-94987904D01*
X108465904Y-94987904D01*
X108370666Y-94940285D01*
X108323047Y-94892666D01*
X108275428Y-94797428D01*
X108275428Y-94464095D01*
%TO.C,D1*%
X131849904Y-76398380D02*
X131849904Y-75398380D01*
X132088000Y-75398380D01*
X132230857Y-75446000D01*
X132326095Y-75541238D01*
X132373714Y-75636476D01*
X132421333Y-75826952D01*
X132421333Y-75969809D01*
X132373714Y-76160285D01*
X132326095Y-76255523D01*
X132230857Y-76350761D01*
X132088000Y-76398380D01*
X131849904Y-76398380D01*
X133373714Y-76398380D02*
X132802285Y-76398380D01*
X133088000Y-76398380D02*
X133088000Y-75398380D01*
X132992761Y-75541238D01*
X132897523Y-75636476D01*
X132802285Y-75684095D01*
D12*
%TO.C,J2*%
X107498600Y-75000060D02*
X104501400Y-75000060D01*
X108999740Y-77601020D02*
X108999740Y-79252020D01*
X103752100Y-79252020D02*
X103000260Y-79252020D01*
X103000260Y-79252020D02*
X103000260Y-77601020D01*
X108999740Y-79252020D02*
X108247900Y-79252020D01*
D13*
X108639060Y-79899720D02*
G75*
G03*
X108639060Y-79899720I-139700J0D01*
G01*
D14*
%TO.C,R10*%
X116435000Y-90127064D02*
X116435000Y-89672936D01*
X114965000Y-90127064D02*
X114965000Y-89672936D01*
%TO.C,R9*%
X117665000Y-90127064D02*
X117665000Y-89672936D01*
X119135000Y-90127064D02*
X119135000Y-89672936D01*
%TO.C,R8*%
X120265000Y-90127064D02*
X120265000Y-89672936D01*
X121735000Y-90127064D02*
X121735000Y-89672936D01*
D12*
%TO.C,J3*%
X117304820Y-77619860D02*
X117304820Y-79270860D01*
X117304820Y-79270860D02*
X116552980Y-79270860D01*
X111305340Y-79270860D02*
X111305340Y-77619860D01*
X115803680Y-75018900D02*
X112806480Y-75018900D01*
X112057180Y-79270860D02*
X111305340Y-79270860D01*
D13*
X116944140Y-79918560D02*
G75*
G03*
X116944140Y-79918560I-139700J0D01*
G01*
D14*
%TO.C,J1*%
X119087500Y-81336000D02*
X127407500Y-81336000D01*
X118847500Y-82096000D02*
X119247500Y-82096000D01*
X118847500Y-81456000D02*
X118847500Y-82096000D01*
X119087500Y-75116000D02*
X119087500Y-81856000D01*
X119087500Y-75116000D02*
X127407500Y-75116000D01*
X127407500Y-75116000D02*
X127407500Y-81856000D01*
X119087500Y-76236000D02*
X127407500Y-76236000D01*
X119087500Y-81856000D02*
X127407500Y-81856000D01*
%TO.C,C1*%
X129567000Y-79262248D02*
X129567000Y-79784752D01*
X131037000Y-79262248D02*
X131037000Y-79784752D01*
%TO.C,R7*%
X133593064Y-77751000D02*
X133138936Y-77751000D01*
X133593064Y-79221000D02*
X133138936Y-79221000D01*
%TO.C,U2*%
X144546000Y-78486000D02*
X144546000Y-76536000D01*
X144546000Y-78486000D02*
X144546000Y-80436000D01*
X139426000Y-78486000D02*
X139426000Y-76536000D01*
X139426000Y-78486000D02*
X139426000Y-81936000D01*
%TO.C,U1*%
X145034000Y-100076000D02*
X106934000Y-100076000D01*
X147704000Y-102746000D02*
X147704000Y-84706000D01*
X142494000Y-87376000D02*
X106934000Y-87376000D01*
X101724000Y-97666000D02*
X101724000Y-89786000D01*
X101724000Y-89786000D02*
X112144000Y-89786000D01*
X104264000Y-84706000D02*
X104264000Y-89786000D01*
X112144000Y-97666000D02*
X101724000Y-97666000D01*
X106934000Y-100076000D02*
X106934000Y-102746000D01*
X104264000Y-102746000D02*
X147704000Y-102746000D01*
X112144000Y-89786000D02*
X112144000Y-97666000D01*
X145034000Y-87376000D02*
X145034000Y-84706000D01*
X106934000Y-87376000D02*
X106934000Y-84706000D01*
X147704000Y-84706000D02*
X145034000Y-84706000D01*
X142494000Y-87376000D02*
X142494000Y-84706000D01*
X104264000Y-102746000D02*
X104264000Y-97666000D01*
X142494000Y-84706000D02*
X104264000Y-84706000D01*
X142494000Y-87376000D02*
X145034000Y-87376000D01*
X145034000Y-100076000D02*
X145034000Y-102746000D01*
%TO.C,D1*%
X134020000Y-76946000D02*
X137920000Y-76946000D01*
X134020000Y-74946000D02*
X134020000Y-76946000D01*
X134020000Y-74946000D02*
X137920000Y-74946000D01*
%TD*%
M02*
