%TF.GenerationSoftware,KiCad,Pcbnew,6.0.2+dfsg-1*%
%TF.CreationDate,2023-02-05T14:32:19-05:00*%
%TF.ProjectId,lin-master,6c696e2d-6d61-4737-9465-722e6b696361,1.0*%
%TF.SameCoordinates,Original*%
%TF.FileFunction,Soldermask,Bot*%
%TF.FilePolarity,Negative*%
%FSLAX46Y46*%
G04 Gerber Fmt 4.6, Leading zero omitted, Abs format (unit mm)*
G04 Created by KiCad (PCBNEW 6.0.2+dfsg-1) date 2023-02-05 14:32:19*
%MOMM*%
%LPD*%
G01*
G04 APERTURE LIST*
G04 Aperture macros list*
%AMRoundRect*
0 Rectangle with rounded corners*
0 $1 Rounding radius*
0 $2 $3 $4 $5 $6 $7 $8 $9 X,Y pos of 4 corners*
0 Add a 4 corners polygon primitive as box body*
4,1,4,$2,$3,$4,$5,$6,$7,$8,$9,$2,$3,0*
0 Add four circle primitives for the rounded corners*
1,1,$1+$1,$2,$3*
1,1,$1+$1,$4,$5*
1,1,$1+$1,$6,$7*
1,1,$1+$1,$8,$9*
0 Add four rect primitives between the rounded corners*
20,1,$1+$1,$2,$3,$4,$5,0*
20,1,$1+$1,$4,$5,$6,$7,0*
20,1,$1+$1,$6,$7,$8,$9,0*
20,1,$1+$1,$8,$9,$2,$3,0*%
%AMFreePoly0*
4,1,6,1.000000,0.000000,0.500000,-0.750000,-0.500000,-0.750000,-0.500000,0.750000,0.500000,0.750000,1.000000,0.000000,1.000000,0.000000,$1*%
%AMFreePoly1*
4,1,6,0.500000,-0.750000,-0.650000,-0.750000,-0.150000,0.000000,-0.650000,0.750000,0.500000,0.750000,0.500000,-0.750000,0.500000,-0.750000,$1*%
G04 Aperture macros list end*
%ADD10RoundRect,0.250000X-0.350000X-0.450000X0.350000X-0.450000X0.350000X0.450000X-0.350000X0.450000X0*%
%ADD11RoundRect,0.150000X-0.587500X-0.150000X0.587500X-0.150000X0.587500X0.150000X-0.587500X0.150000X0*%
%ADD12FreePoly0,90.000000*%
%ADD13FreePoly1,90.000000*%
%ADD14R,2.100000X2.100000*%
%ADD15C,2.100000*%
%ADD16R,1.600000X1.600000*%
%ADD17O,1.600000X1.600000*%
%ADD18RoundRect,0.250000X0.450000X-0.350000X0.450000X0.350000X-0.450000X0.350000X-0.450000X-0.350000X0*%
%ADD19RoundRect,0.250000X-0.450000X0.350000X-0.450000X-0.350000X0.450000X-0.350000X0.450000X0.350000X0*%
G04 APERTURE END LIST*
D10*
%TO.C,R12*%
X107400000Y-94100000D03*
X109400000Y-94100000D03*
%TD*%
%TO.C,R11*%
X107400000Y-96200000D03*
X109400000Y-96200000D03*
%TD*%
D11*
%TO.C,Q2*%
X111425000Y-97950000D03*
X111425000Y-96050000D03*
X113300000Y-97000000D03*
%TD*%
%TO.C,Q1*%
X111362500Y-94350000D03*
X111362500Y-92450000D03*
X113237500Y-93400000D03*
%TD*%
D12*
%TO.C,JP3*%
X115700000Y-90225000D03*
D13*
X115700000Y-88775000D03*
%TD*%
D12*
%TO.C,JP2*%
X118400000Y-90225000D03*
D13*
X118400000Y-88775000D03*
%TD*%
D12*
%TO.C,JP1*%
X121000000Y-90250000D03*
D13*
X121000000Y-88800000D03*
%TD*%
D14*
%TO.C,J1*%
X120707500Y-78486000D03*
D15*
X123247500Y-78486000D03*
X125787500Y-78486000D03*
%TD*%
D16*
%TO.C,U1*%
X143764000Y-86106000D03*
D17*
X141224000Y-86106000D03*
X138684000Y-86106000D03*
X136144000Y-86106000D03*
X133604000Y-86106000D03*
X131064000Y-86106000D03*
X128524000Y-86106000D03*
X125984000Y-86106000D03*
X123444000Y-86106000D03*
X120904000Y-86106000D03*
X118364000Y-86106000D03*
X115824000Y-86106000D03*
X113284000Y-86106000D03*
X110744000Y-86106000D03*
X108204000Y-86106000D03*
X108204000Y-101346000D03*
X110744000Y-101346000D03*
X113284000Y-101346000D03*
X115824000Y-101346000D03*
X118364000Y-101346000D03*
X120904000Y-101346000D03*
X123444000Y-101346000D03*
X125984000Y-101346000D03*
X128524000Y-101346000D03*
X131064000Y-101346000D03*
X133604000Y-101346000D03*
X136144000Y-101346000D03*
X138684000Y-101346000D03*
X141224000Y-101346000D03*
X143764000Y-101346000D03*
%TD*%
D18*
%TO.C,R1*%
X141224000Y-90678000D03*
X141224000Y-88678000D03*
%TD*%
%TO.C,R4*%
X131064000Y-90646000D03*
X131064000Y-88646000D03*
%TD*%
D19*
%TO.C,R6*%
X128524000Y-96790000D03*
X128524000Y-98790000D03*
%TD*%
%TO.C,R5*%
X125984000Y-96774000D03*
X125984000Y-98774000D03*
%TD*%
D18*
%TO.C,R3*%
X133604000Y-90646000D03*
X133604000Y-88646000D03*
%TD*%
%TO.C,R2*%
X143764000Y-90646000D03*
X143764000Y-88646000D03*
%TD*%
M02*
