%TF.GenerationSoftware,KiCad,Pcbnew,6.0.2+dfsg-1*%
%TF.CreationDate,2023-02-05T14:32:18-05:00*%
%TF.ProjectId,lin-master,6c696e2d-6d61-4737-9465-722e6b696361,1.0*%
%TF.SameCoordinates,Original*%
%TF.FileFunction,Copper,L2,Bot*%
%TF.FilePolarity,Positive*%
%FSLAX46Y46*%
G04 Gerber Fmt 4.6, Leading zero omitted, Abs format (unit mm)*
G04 Created by KiCad (PCBNEW 6.0.2+dfsg-1) date 2023-02-05 14:32:18*
%MOMM*%
%LPD*%
G01*
G04 APERTURE LIST*
G04 Aperture macros list*
%AMRoundRect*
0 Rectangle with rounded corners*
0 $1 Rounding radius*
0 $2 $3 $4 $5 $6 $7 $8 $9 X,Y pos of 4 corners*
0 Add a 4 corners polygon primitive as box body*
4,1,4,$2,$3,$4,$5,$6,$7,$8,$9,$2,$3,0*
0 Add four circle primitives for the rounded corners*
1,1,$1+$1,$2,$3*
1,1,$1+$1,$4,$5*
1,1,$1+$1,$6,$7*
1,1,$1+$1,$8,$9*
0 Add four rect primitives between the rounded corners*
20,1,$1+$1,$2,$3,$4,$5,0*
20,1,$1+$1,$4,$5,$6,$7,0*
20,1,$1+$1,$6,$7,$8,$9,0*
20,1,$1+$1,$8,$9,$2,$3,0*%
%AMFreePoly0*
4,1,6,1.000000,0.000000,0.500000,-0.750000,-0.500000,-0.750000,-0.500000,0.750000,0.500000,0.750000,1.000000,0.000000,1.000000,0.000000,$1*%
%AMFreePoly1*
4,1,6,0.500000,-0.750000,-0.650000,-0.750000,-0.150000,0.000000,-0.650000,0.750000,0.500000,0.750000,0.500000,-0.750000,0.500000,-0.750000,$1*%
G04 Aperture macros list end*
%TA.AperFunction,SMDPad,CuDef*%
%ADD10RoundRect,0.250000X-0.350000X-0.450000X0.350000X-0.450000X0.350000X0.450000X-0.350000X0.450000X0*%
%TD*%
%TA.AperFunction,SMDPad,CuDef*%
%ADD11RoundRect,0.150000X-0.587500X-0.150000X0.587500X-0.150000X0.587500X0.150000X-0.587500X0.150000X0*%
%TD*%
%TA.AperFunction,SMDPad,CuDef*%
%ADD12FreePoly0,90.000000*%
%TD*%
%TA.AperFunction,SMDPad,CuDef*%
%ADD13FreePoly1,90.000000*%
%TD*%
%TA.AperFunction,ComponentPad*%
%ADD14R,2.100000X2.100000*%
%TD*%
%TA.AperFunction,ComponentPad*%
%ADD15C,2.100000*%
%TD*%
%TA.AperFunction,ComponentPad*%
%ADD16R,1.600000X1.600000*%
%TD*%
%TA.AperFunction,ComponentPad*%
%ADD17O,1.600000X1.600000*%
%TD*%
%TA.AperFunction,SMDPad,CuDef*%
%ADD18RoundRect,0.250000X0.450000X-0.350000X0.450000X0.350000X-0.450000X0.350000X-0.450000X-0.350000X0*%
%TD*%
%TA.AperFunction,SMDPad,CuDef*%
%ADD19RoundRect,0.250000X-0.450000X0.350000X-0.450000X-0.350000X0.450000X-0.350000X0.450000X0.350000X0*%
%TD*%
%TA.AperFunction,ViaPad*%
%ADD20C,0.800000*%
%TD*%
%TA.AperFunction,Conductor*%
%ADD21C,0.250000*%
%TD*%
G04 APERTURE END LIST*
D10*
%TO.P,R12,1*%
%TO.N,+3V3*%
X107400000Y-94100000D03*
%TO.P,R12,2*%
%TO.N,SCL3V*%
X109400000Y-94100000D03*
%TD*%
%TO.P,R11,1*%
%TO.N,+3V3*%
X107400000Y-96200000D03*
%TO.P,R11,2*%
%TO.N,SDA3V*%
X109400000Y-96200000D03*
%TD*%
D11*
%TO.P,Q2,1,G*%
%TO.N,SDA3V*%
X111425000Y-97950000D03*
%TO.P,Q2,2,S*%
X111425000Y-96050000D03*
%TO.P,Q2,3,D*%
%TO.N,SDA5V*%
X113300000Y-97000000D03*
%TD*%
%TO.P,Q1,1,G*%
%TO.N,SCL3V*%
X111362500Y-94350000D03*
%TO.P,Q1,2,S*%
X111362500Y-92450000D03*
%TO.P,Q1,3,D*%
%TO.N,SCL5V*%
X113237500Y-93400000D03*
%TD*%
D12*
%TO.P,JP3,1,A*%
%TO.N,GND*%
X115700000Y-90225000D03*
D13*
%TO.P,JP3,2,B*%
%TO.N,A2*%
X115700000Y-88775000D03*
%TD*%
D12*
%TO.P,JP2,1,A*%
%TO.N,GND*%
X118400000Y-90225000D03*
D13*
%TO.P,JP2,2,B*%
%TO.N,A1*%
X118400000Y-88775000D03*
%TD*%
D12*
%TO.P,JP1,1,A*%
%TO.N,GND*%
X121000000Y-90250000D03*
D13*
%TO.P,JP1,2,B*%
%TO.N,A0*%
X121000000Y-88800000D03*
%TD*%
D14*
%TO.P,J1,1,Pin_1*%
%TO.N,+12V*%
X120707500Y-78486000D03*
D15*
%TO.P,J1,2,Pin_2*%
%TO.N,GND*%
X123247500Y-78486000D03*
%TO.P,J1,3,Pin_3*%
%TO.N,LIN*%
X125787500Y-78486000D03*
%TD*%
D16*
%TO.P,U1,1,D1/TX*%
%TO.N,TXD*%
X143764000Y-86106000D03*
D17*
%TO.P,U1,2,D0/RX*%
%TO.N,RXD*%
X141224000Y-86106000D03*
%TO.P,U1,3,~{RESET}*%
%TO.N,unconnected-(U1-Pad3)*%
X138684000Y-86106000D03*
%TO.P,U1,4,GND*%
%TO.N,GND*%
X136144000Y-86106000D03*
%TO.P,U1,5,D2*%
%TO.N,~{LIN_SLP}*%
X133604000Y-86106000D03*
%TO.P,U1,6,D3*%
%TO.N,~{LIN_WAKE}*%
X131064000Y-86106000D03*
%TO.P,U1,7,D4*%
%TO.N,unconnected-(U1-Pad7)*%
X128524000Y-86106000D03*
%TO.P,U1,8,D5*%
%TO.N,unconnected-(U1-Pad8)*%
X125984000Y-86106000D03*
%TO.P,U1,9,D6*%
%TO.N,unconnected-(U1-Pad9)*%
X123444000Y-86106000D03*
%TO.P,U1,10,D7*%
%TO.N,A0*%
X120904000Y-86106000D03*
%TO.P,U1,11,D8*%
%TO.N,A1*%
X118364000Y-86106000D03*
%TO.P,U1,12,D9*%
%TO.N,A2*%
X115824000Y-86106000D03*
%TO.P,U1,13,D10*%
%TO.N,unconnected-(U1-Pad13)*%
X113284000Y-86106000D03*
%TO.P,U1,14,D11*%
%TO.N,unconnected-(U1-Pad14)*%
X110744000Y-86106000D03*
%TO.P,U1,15,D12*%
%TO.N,unconnected-(U1-Pad15)*%
X108204000Y-86106000D03*
%TO.P,U1,16,D13*%
%TO.N,unconnected-(U1-Pad16)*%
X108204000Y-101346000D03*
%TO.P,U1,17,3V3*%
%TO.N,+3V3*%
X110744000Y-101346000D03*
%TO.P,U1,18,AREF*%
%TO.N,unconnected-(U1-Pad18)*%
X113284000Y-101346000D03*
%TO.P,U1,19,A0*%
%TO.N,unconnected-(U1-Pad19)*%
X115824000Y-101346000D03*
%TO.P,U1,20,A1*%
%TO.N,unconnected-(U1-Pad20)*%
X118364000Y-101346000D03*
%TO.P,U1,21,A2*%
%TO.N,unconnected-(U1-Pad21)*%
X120904000Y-101346000D03*
%TO.P,U1,22,A3*%
%TO.N,unconnected-(U1-Pad22)*%
X123444000Y-101346000D03*
%TO.P,U1,23,A4*%
%TO.N,SDA5V*%
X125984000Y-101346000D03*
%TO.P,U1,24,A5*%
%TO.N,SCL5V*%
X128524000Y-101346000D03*
%TO.P,U1,25,A6*%
%TO.N,unconnected-(U1-Pad25)*%
X131064000Y-101346000D03*
%TO.P,U1,26,A7*%
%TO.N,unconnected-(U1-Pad26)*%
X133604000Y-101346000D03*
%TO.P,U1,27,+5V*%
%TO.N,+5V*%
X136144000Y-101346000D03*
%TO.P,U1,28,~{RESET}*%
%TO.N,unconnected-(U1-Pad28)*%
X138684000Y-101346000D03*
%TO.P,U1,29,GND*%
%TO.N,GND*%
X141224000Y-101346000D03*
%TO.P,U1,30,VIN*%
%TO.N,+12V*%
X143764000Y-101346000D03*
%TD*%
D18*
%TO.P,R1,1*%
%TO.N,+5V*%
X141224000Y-90678000D03*
%TO.P,R1,2*%
%TO.N,RXD*%
X141224000Y-88678000D03*
%TD*%
%TO.P,R4,1*%
%TO.N,+5V*%
X131064000Y-90646000D03*
%TO.P,R4,2*%
%TO.N,~{LIN_WAKE}*%
X131064000Y-88646000D03*
%TD*%
D19*
%TO.P,R6,1*%
%TO.N,+5V*%
X128524000Y-96790000D03*
%TO.P,R6,2*%
%TO.N,SCL5V*%
X128524000Y-98790000D03*
%TD*%
%TO.P,R5,1*%
%TO.N,+5V*%
X125984000Y-96774000D03*
%TO.P,R5,2*%
%TO.N,SDA5V*%
X125984000Y-98774000D03*
%TD*%
D18*
%TO.P,R3,1*%
%TO.N,+5V*%
X133604000Y-90646000D03*
%TO.P,R3,2*%
%TO.N,~{LIN_SLP}*%
X133604000Y-88646000D03*
%TD*%
%TO.P,R2,1*%
%TO.N,+5V*%
X143764000Y-90646000D03*
%TO.P,R2,2*%
%TO.N,TXD*%
X143764000Y-88646000D03*
%TD*%
D20*
%TO.N,+3V3*%
X108900000Y-90200000D03*
X117800000Y-81700000D03*
X113800000Y-88300000D03*
%TO.N,SDA3V*%
X113300000Y-81800000D03*
X114300000Y-94900000D03*
X113800000Y-89700000D03*
%TO.N,SCL3V*%
X111600000Y-79800000D03*
%TO.N,SCL5V*%
X120600000Y-97800000D03*
%TO.N,LIN*%
X137160000Y-78994000D03*
X132080000Y-80264000D03*
%TO.N,GND*%
X116078000Y-78232000D03*
X143764000Y-77978000D03*
X130302000Y-82042000D03*
%TO.N,+5V*%
X131572000Y-96774000D03*
X128778000Y-90678000D03*
%TO.N,~{LIN_SLP}*%
X138176000Y-83820000D03*
X141224000Y-83820000D03*
%TO.N,~{LIN_WAKE}*%
X142748000Y-83058000D03*
X139192000Y-83058000D03*
%TD*%
D21*
%TO.N,SDA3V*%
X111425000Y-96050000D02*
X109550000Y-96050000D01*
X109550000Y-96050000D02*
X109400000Y-96200000D01*
%TO.N,SCL3V*%
X111362500Y-94350000D02*
X109650000Y-94350000D01*
X109650000Y-94350000D02*
X109400000Y-94100000D01*
%TO.N,+3V3*%
X107400000Y-91700000D02*
X108900000Y-90200000D01*
X107400000Y-94100000D02*
X107400000Y-91700000D01*
X107400000Y-96200000D02*
X107400000Y-94100000D01*
X107400000Y-96200000D02*
X110744000Y-99544000D01*
X110744000Y-99544000D02*
X110744000Y-101346000D01*
X114408511Y-87691489D02*
X113800000Y-88300000D01*
X114408511Y-85091489D02*
X114408511Y-87691489D01*
X117800000Y-81700000D02*
X114408511Y-85091489D01*
%TO.N,SDA3V*%
X111868511Y-87768511D02*
X111868511Y-83231489D01*
X113800000Y-89700000D02*
X111868511Y-87768511D01*
X111868511Y-83231489D02*
X113300000Y-81800000D01*
X113150000Y-96050000D02*
X114300000Y-94900000D01*
X111425000Y-96050000D02*
X113150000Y-96050000D01*
X111425000Y-97950000D02*
X111425000Y-96050000D01*
%TO.N,SCL3V*%
X109500000Y-81900000D02*
X111600000Y-79800000D01*
X109500000Y-84100000D02*
X109500000Y-81900000D01*
X111362500Y-89662500D02*
X109600000Y-87900000D01*
X111362500Y-92450000D02*
X111362500Y-89662500D01*
X109600000Y-87900000D02*
X109500000Y-87800000D01*
X109500000Y-87800000D02*
X109500000Y-84100000D01*
X111362500Y-92450000D02*
X111362500Y-92337500D01*
X111362500Y-92337500D02*
X111500000Y-92200000D01*
X111362500Y-94350000D02*
X111362500Y-92450000D01*
%TO.N,SCL5V*%
X113237500Y-93400000D02*
X116200000Y-93400000D01*
X116200000Y-93400000D02*
X120600000Y-97800000D01*
%TO.N,SDA5V*%
X113300000Y-97000000D02*
X118000000Y-97000000D01*
X118000000Y-97000000D02*
X119774000Y-98774000D01*
X119774000Y-98774000D02*
X125984000Y-98774000D01*
%TO.N,A0*%
X121000000Y-88800000D02*
X120904000Y-88704000D01*
X120904000Y-88704000D02*
X120904000Y-86106000D01*
%TO.N,A1*%
X118400000Y-88775000D02*
X118364000Y-88739000D01*
X118364000Y-88739000D02*
X118364000Y-86106000D01*
%TO.N,A2*%
X115700000Y-88775000D02*
X115824000Y-88651000D01*
X115824000Y-88651000D02*
X115824000Y-86106000D01*
%TO.N,LIN*%
X137160000Y-78994000D02*
X135890000Y-80264000D01*
X135890000Y-80264000D02*
X132080000Y-80264000D01*
%TO.N,SCL5V*%
X128524000Y-98790000D02*
X128524000Y-101346000D01*
%TO.N,SDA5V*%
X125984000Y-98774000D02*
X125984000Y-101346000D01*
%TO.N,+5V*%
X143764000Y-90646000D02*
X141256000Y-90646000D01*
X125984000Y-96774000D02*
X128508000Y-96774000D01*
X131556000Y-96790000D02*
X131572000Y-96774000D01*
X128524000Y-96790000D02*
X131556000Y-96790000D01*
X137160000Y-90678000D02*
X133636000Y-90678000D01*
X128810000Y-90646000D02*
X128778000Y-90678000D01*
X141256000Y-90646000D02*
X141224000Y-90678000D01*
X128508000Y-96774000D02*
X128524000Y-96790000D01*
X133636000Y-90678000D02*
X133604000Y-90646000D01*
X131064000Y-90646000D02*
X128810000Y-90646000D01*
X133604000Y-90646000D02*
X131064000Y-90646000D01*
X141224000Y-90678000D02*
X137160000Y-90678000D01*
%TO.N,RXD*%
X141224000Y-88678000D02*
X141224000Y-86106000D01*
%TO.N,TXD*%
X143764000Y-88646000D02*
X143764000Y-86106000D01*
%TO.N,~{LIN_SLP}*%
X133604000Y-88646000D02*
X133604000Y-86106000D01*
X138176000Y-83820000D02*
X141224000Y-83820000D01*
%TO.N,~{LIN_WAKE}*%
X131064000Y-88646000D02*
X131064000Y-86106000D01*
X139192000Y-83058000D02*
X142748000Y-83058000D01*
%TD*%
%TA.AperFunction,Conductor*%
%TO.N,GND*%
G36*
X147262121Y-74950002D02*
G01*
X147308614Y-75003658D01*
X147320000Y-75056000D01*
X147320000Y-102236000D01*
X147299998Y-102304121D01*
X147246342Y-102350614D01*
X147194000Y-102362000D01*
X144892016Y-102362000D01*
X144823895Y-102341998D01*
X144777402Y-102288342D01*
X144767298Y-102218068D01*
X144788803Y-102163729D01*
X144898366Y-102007257D01*
X144901523Y-102002749D01*
X144903846Y-101997767D01*
X144903849Y-101997762D01*
X144995961Y-101800225D01*
X144995961Y-101800224D01*
X144998284Y-101795243D01*
X145053651Y-101588614D01*
X145056119Y-101579402D01*
X145056119Y-101579400D01*
X145057543Y-101574087D01*
X145077498Y-101346000D01*
X145057543Y-101117913D01*
X144998284Y-100896757D01*
X144903966Y-100694489D01*
X144903849Y-100694238D01*
X144903846Y-100694233D01*
X144901523Y-100689251D01*
X144770198Y-100501700D01*
X144608300Y-100339802D01*
X144603792Y-100336645D01*
X144603789Y-100336643D01*
X144451228Y-100229819D01*
X144420749Y-100208477D01*
X144415767Y-100206154D01*
X144415762Y-100206151D01*
X144218225Y-100114039D01*
X144218224Y-100114039D01*
X144213243Y-100111716D01*
X144207935Y-100110294D01*
X144207933Y-100110293D01*
X143997402Y-100053881D01*
X143997400Y-100053881D01*
X143992087Y-100052457D01*
X143764000Y-100032502D01*
X143535913Y-100052457D01*
X143530600Y-100053881D01*
X143530598Y-100053881D01*
X143320067Y-100110293D01*
X143320065Y-100110294D01*
X143314757Y-100111716D01*
X143309776Y-100114039D01*
X143309775Y-100114039D01*
X143112238Y-100206151D01*
X143112233Y-100206154D01*
X143107251Y-100208477D01*
X143076772Y-100229819D01*
X142924211Y-100336643D01*
X142924208Y-100336645D01*
X142919700Y-100339802D01*
X142757802Y-100501700D01*
X142626477Y-100689251D01*
X142624154Y-100694233D01*
X142624151Y-100694238D01*
X142607919Y-100729049D01*
X142561002Y-100782334D01*
X142492725Y-100801795D01*
X142424765Y-100781253D01*
X142379529Y-100729049D01*
X142363414Y-100694489D01*
X142357931Y-100684993D01*
X142232972Y-100506533D01*
X142225916Y-100498125D01*
X142071875Y-100344084D01*
X142063467Y-100337028D01*
X141885007Y-100212069D01*
X141875511Y-100206586D01*
X141678053Y-100114510D01*
X141667761Y-100110764D01*
X141495497Y-100064606D01*
X141481401Y-100064942D01*
X141478000Y-100072884D01*
X141478000Y-101474000D01*
X141457998Y-101542121D01*
X141404342Y-101588614D01*
X141352000Y-101600000D01*
X141096000Y-101600000D01*
X141027879Y-101579998D01*
X140981386Y-101526342D01*
X140970000Y-101474000D01*
X140970000Y-100078033D01*
X140966027Y-100064502D01*
X140957478Y-100063273D01*
X140780239Y-100110764D01*
X140769947Y-100114510D01*
X140572489Y-100206586D01*
X140562993Y-100212069D01*
X140384533Y-100337028D01*
X140376125Y-100344084D01*
X140222084Y-100498125D01*
X140215028Y-100506533D01*
X140090069Y-100684993D01*
X140084586Y-100694489D01*
X140068471Y-100729049D01*
X140021554Y-100782334D01*
X139953277Y-100801795D01*
X139885317Y-100781253D01*
X139840081Y-100729049D01*
X139823849Y-100694238D01*
X139823846Y-100694233D01*
X139821523Y-100689251D01*
X139690198Y-100501700D01*
X139528300Y-100339802D01*
X139523792Y-100336645D01*
X139523789Y-100336643D01*
X139371228Y-100229819D01*
X139340749Y-100208477D01*
X139335767Y-100206154D01*
X139335762Y-100206151D01*
X139138225Y-100114039D01*
X139138224Y-100114039D01*
X139133243Y-100111716D01*
X139127935Y-100110294D01*
X139127933Y-100110293D01*
X138917402Y-100053881D01*
X138917400Y-100053881D01*
X138912087Y-100052457D01*
X138684000Y-100032502D01*
X138455913Y-100052457D01*
X138450600Y-100053881D01*
X138450598Y-100053881D01*
X138240067Y-100110293D01*
X138240065Y-100110294D01*
X138234757Y-100111716D01*
X138229776Y-100114039D01*
X138229775Y-100114039D01*
X138032238Y-100206151D01*
X138032233Y-100206154D01*
X138027251Y-100208477D01*
X137996772Y-100229819D01*
X137844211Y-100336643D01*
X137844208Y-100336645D01*
X137839700Y-100339802D01*
X137677802Y-100501700D01*
X137546477Y-100689251D01*
X137544154Y-100694233D01*
X137544151Y-100694238D01*
X137528195Y-100728457D01*
X137481278Y-100781742D01*
X137413001Y-100801203D01*
X137345041Y-100780661D01*
X137299805Y-100728457D01*
X137283849Y-100694238D01*
X137283846Y-100694233D01*
X137281523Y-100689251D01*
X137150198Y-100501700D01*
X136988300Y-100339802D01*
X136983792Y-100336645D01*
X136983789Y-100336643D01*
X136831228Y-100229819D01*
X136800749Y-100208477D01*
X136795767Y-100206154D01*
X136795762Y-100206151D01*
X136598225Y-100114039D01*
X136598224Y-100114039D01*
X136593243Y-100111716D01*
X136587935Y-100110294D01*
X136587933Y-100110293D01*
X136377402Y-100053881D01*
X136377400Y-100053881D01*
X136372087Y-100052457D01*
X136144000Y-100032502D01*
X135915913Y-100052457D01*
X135910600Y-100053881D01*
X135910598Y-100053881D01*
X135700067Y-100110293D01*
X135700065Y-100110294D01*
X135694757Y-100111716D01*
X135689776Y-100114039D01*
X135689775Y-100114039D01*
X135492238Y-100206151D01*
X135492233Y-100206154D01*
X135487251Y-100208477D01*
X135456772Y-100229819D01*
X135304211Y-100336643D01*
X135304208Y-100336645D01*
X135299700Y-100339802D01*
X135137802Y-100501700D01*
X135006477Y-100689251D01*
X135004154Y-100694233D01*
X135004151Y-100694238D01*
X134988195Y-100728457D01*
X134941278Y-100781742D01*
X134873001Y-100801203D01*
X134805041Y-100780661D01*
X134759805Y-100728457D01*
X134743849Y-100694238D01*
X134743846Y-100694233D01*
X134741523Y-100689251D01*
X134610198Y-100501700D01*
X134448300Y-100339802D01*
X134443792Y-100336645D01*
X134443789Y-100336643D01*
X134291228Y-100229819D01*
X134260749Y-100208477D01*
X134255767Y-100206154D01*
X134255762Y-100206151D01*
X134058225Y-100114039D01*
X134058224Y-100114039D01*
X134053243Y-100111716D01*
X134047935Y-100110294D01*
X134047933Y-100110293D01*
X133837402Y-100053881D01*
X133837400Y-100053881D01*
X133832087Y-100052457D01*
X133604000Y-100032502D01*
X133375913Y-100052457D01*
X133370600Y-100053881D01*
X133370598Y-100053881D01*
X133160067Y-100110293D01*
X133160065Y-100110294D01*
X133154757Y-100111716D01*
X133149776Y-100114039D01*
X133149775Y-100114039D01*
X132952238Y-100206151D01*
X132952233Y-100206154D01*
X132947251Y-100208477D01*
X132916772Y-100229819D01*
X132764211Y-100336643D01*
X132764208Y-100336645D01*
X132759700Y-100339802D01*
X132597802Y-100501700D01*
X132466477Y-100689251D01*
X132464154Y-100694233D01*
X132464151Y-100694238D01*
X132448195Y-100728457D01*
X132401278Y-100781742D01*
X132333001Y-100801203D01*
X132265041Y-100780661D01*
X132219805Y-100728457D01*
X132203849Y-100694238D01*
X132203846Y-100694233D01*
X132201523Y-100689251D01*
X132070198Y-100501700D01*
X131908300Y-100339802D01*
X131903792Y-100336645D01*
X131903789Y-100336643D01*
X131751228Y-100229819D01*
X131720749Y-100208477D01*
X131715767Y-100206154D01*
X131715762Y-100206151D01*
X131518225Y-100114039D01*
X131518224Y-100114039D01*
X131513243Y-100111716D01*
X131507935Y-100110294D01*
X131507933Y-100110293D01*
X131297402Y-100053881D01*
X131297400Y-100053881D01*
X131292087Y-100052457D01*
X131064000Y-100032502D01*
X130835913Y-100052457D01*
X130830600Y-100053881D01*
X130830598Y-100053881D01*
X130620067Y-100110293D01*
X130620065Y-100110294D01*
X130614757Y-100111716D01*
X130609776Y-100114039D01*
X130609775Y-100114039D01*
X130412238Y-100206151D01*
X130412233Y-100206154D01*
X130407251Y-100208477D01*
X130376772Y-100229819D01*
X130224211Y-100336643D01*
X130224208Y-100336645D01*
X130219700Y-100339802D01*
X130057802Y-100501700D01*
X129926477Y-100689251D01*
X129924154Y-100694233D01*
X129924151Y-100694238D01*
X129908195Y-100728457D01*
X129861278Y-100781742D01*
X129793001Y-100801203D01*
X129725041Y-100780661D01*
X129679805Y-100728457D01*
X129663849Y-100694238D01*
X129663846Y-100694233D01*
X129661523Y-100689251D01*
X129530198Y-100501700D01*
X129368300Y-100339802D01*
X129363792Y-100336645D01*
X129363789Y-100336643D01*
X129211229Y-100229819D01*
X129166901Y-100174362D01*
X129157500Y-100126606D01*
X129157500Y-99969197D01*
X129177502Y-99901076D01*
X129231158Y-99854583D01*
X129243623Y-99849674D01*
X129291002Y-99833867D01*
X129291004Y-99833866D01*
X129297946Y-99831550D01*
X129320058Y-99817867D01*
X129442120Y-99742332D01*
X129448348Y-99738478D01*
X129573305Y-99613303D01*
X129577146Y-99607072D01*
X129662275Y-99468968D01*
X129662276Y-99468966D01*
X129666115Y-99462738D01*
X129706436Y-99341174D01*
X129719632Y-99301389D01*
X129719632Y-99301387D01*
X129721797Y-99294861D01*
X129723437Y-99278861D01*
X129728684Y-99227643D01*
X129732500Y-99190400D01*
X129732500Y-98389600D01*
X129730511Y-98370427D01*
X129722238Y-98290692D01*
X129722237Y-98290688D01*
X129721526Y-98283834D01*
X129665550Y-98116054D01*
X129572478Y-97965652D01*
X129485891Y-97879216D01*
X129451812Y-97816934D01*
X129456815Y-97746114D01*
X129485736Y-97701025D01*
X129568134Y-97618483D01*
X129573305Y-97613303D01*
X129577146Y-97607072D01*
X129653389Y-97483384D01*
X129706162Y-97435890D01*
X129760649Y-97423500D01*
X130880797Y-97423500D01*
X130948918Y-97443502D01*
X130959790Y-97451804D01*
X130960747Y-97452866D01*
X131115248Y-97565118D01*
X131121276Y-97567802D01*
X131121278Y-97567803D01*
X131283681Y-97640109D01*
X131289712Y-97642794D01*
X131383113Y-97662647D01*
X131470056Y-97681128D01*
X131470061Y-97681128D01*
X131476513Y-97682500D01*
X131667487Y-97682500D01*
X131673939Y-97681128D01*
X131673944Y-97681128D01*
X131760887Y-97662647D01*
X131854288Y-97642794D01*
X131860319Y-97640109D01*
X132022722Y-97567803D01*
X132022724Y-97567802D01*
X132028752Y-97565118D01*
X132183253Y-97452866D01*
X132200934Y-97433229D01*
X132306621Y-97315852D01*
X132306622Y-97315851D01*
X132311040Y-97310944D01*
X132381651Y-97188642D01*
X132403223Y-97151279D01*
X132403224Y-97151278D01*
X132406527Y-97145556D01*
X132465542Y-96963928D01*
X132469126Y-96929834D01*
X132484814Y-96780565D01*
X132485504Y-96774000D01*
X132478110Y-96703650D01*
X132466232Y-96590635D01*
X132466232Y-96590633D01*
X132465542Y-96584072D01*
X132406527Y-96402444D01*
X132374227Y-96346498D01*
X132338339Y-96284340D01*
X132311040Y-96237056D01*
X132273564Y-96195434D01*
X132187675Y-96100045D01*
X132187674Y-96100044D01*
X132183253Y-96095134D01*
X132028752Y-95982882D01*
X132022724Y-95980198D01*
X132022722Y-95980197D01*
X131860319Y-95907891D01*
X131860318Y-95907891D01*
X131854288Y-95905206D01*
X131760888Y-95885353D01*
X131673944Y-95866872D01*
X131673939Y-95866872D01*
X131667487Y-95865500D01*
X131476513Y-95865500D01*
X131470061Y-95866872D01*
X131470056Y-95866872D01*
X131383112Y-95885353D01*
X131289712Y-95905206D01*
X131283682Y-95907891D01*
X131283681Y-95907891D01*
X131121278Y-95980197D01*
X131121276Y-95980198D01*
X131115248Y-95982882D01*
X130960747Y-96095134D01*
X130943029Y-96114812D01*
X130882586Y-96152050D01*
X130849395Y-96156500D01*
X129760781Y-96156500D01*
X129692660Y-96136498D01*
X129653637Y-96096803D01*
X129631256Y-96060635D01*
X129572478Y-95965652D01*
X129447303Y-95840695D01*
X129422688Y-95825522D01*
X129302968Y-95751725D01*
X129302966Y-95751724D01*
X129296738Y-95747885D01*
X129216995Y-95721436D01*
X129135389Y-95694368D01*
X129135387Y-95694368D01*
X129128861Y-95692203D01*
X129122025Y-95691503D01*
X129122022Y-95691502D01*
X129078969Y-95687091D01*
X129024400Y-95681500D01*
X128023600Y-95681500D01*
X128020354Y-95681837D01*
X128020350Y-95681837D01*
X127924692Y-95691762D01*
X127924688Y-95691763D01*
X127917834Y-95692474D01*
X127911298Y-95694655D01*
X127911296Y-95694655D01*
X127799705Y-95731885D01*
X127750054Y-95748450D01*
X127599652Y-95841522D01*
X127474695Y-95966697D01*
X127470855Y-95972927D01*
X127470854Y-95972928D01*
X127404474Y-96080616D01*
X127351702Y-96128109D01*
X127297214Y-96140500D01*
X127220781Y-96140500D01*
X127152660Y-96120498D01*
X127113637Y-96080803D01*
X127036332Y-95955880D01*
X127032478Y-95949652D01*
X126907303Y-95824695D01*
X126818841Y-95770166D01*
X126762968Y-95735725D01*
X126762966Y-95735724D01*
X126756738Y-95731885D01*
X126659401Y-95699600D01*
X126595389Y-95678368D01*
X126595387Y-95678368D01*
X126588861Y-95676203D01*
X126582025Y-95675503D01*
X126582022Y-95675502D01*
X126538969Y-95671091D01*
X126484400Y-95665500D01*
X125483600Y-95665500D01*
X125480354Y-95665837D01*
X125480350Y-95665837D01*
X125384692Y-95675762D01*
X125384688Y-95675763D01*
X125377834Y-95676474D01*
X125371298Y-95678655D01*
X125371296Y-95678655D01*
X125239194Y-95722728D01*
X125210054Y-95732450D01*
X125059652Y-95825522D01*
X124934695Y-95950697D01*
X124930855Y-95956927D01*
X124930854Y-95956928D01*
X124912464Y-95986763D01*
X124841885Y-96101262D01*
X124786203Y-96269139D01*
X124785503Y-96275975D01*
X124785502Y-96275978D01*
X124781091Y-96319031D01*
X124775500Y-96373600D01*
X124775500Y-97174400D01*
X124775837Y-97177646D01*
X124775837Y-97177650D01*
X124784699Y-97263056D01*
X124786474Y-97280166D01*
X124788655Y-97286702D01*
X124788655Y-97286704D01*
X124825719Y-97397797D01*
X124842450Y-97447946D01*
X124935522Y-97598348D01*
X124940704Y-97603521D01*
X124944261Y-97607072D01*
X125018447Y-97681128D01*
X125022109Y-97684784D01*
X125056188Y-97747066D01*
X125051185Y-97817886D01*
X125022264Y-97862975D01*
X124991773Y-97893519D01*
X124934695Y-97950697D01*
X124930855Y-97956927D01*
X124930854Y-97956928D01*
X124854611Y-98080616D01*
X124801838Y-98128110D01*
X124747351Y-98140500D01*
X121616428Y-98140500D01*
X121548307Y-98120498D01*
X121501814Y-98066842D01*
X121491710Y-97996568D01*
X121492104Y-97994352D01*
X121493542Y-97989928D01*
X121496094Y-97965652D01*
X121512814Y-97806565D01*
X121513504Y-97800000D01*
X121508786Y-97755108D01*
X121494232Y-97616635D01*
X121494232Y-97616633D01*
X121493542Y-97610072D01*
X121434527Y-97428444D01*
X121429589Y-97419890D01*
X121348918Y-97280166D01*
X121339040Y-97263056D01*
X121272038Y-97188642D01*
X121215675Y-97126045D01*
X121215674Y-97126044D01*
X121211253Y-97121134D01*
X121056752Y-97008882D01*
X121050724Y-97006198D01*
X121050722Y-97006197D01*
X120888319Y-96933891D01*
X120888318Y-96933891D01*
X120882288Y-96931206D01*
X120788887Y-96911353D01*
X120701944Y-96892872D01*
X120701939Y-96892872D01*
X120695487Y-96891500D01*
X120639594Y-96891500D01*
X120571473Y-96871498D01*
X120550499Y-96854595D01*
X118636980Y-94941075D01*
X116703652Y-93007747D01*
X116696112Y-92999461D01*
X116692000Y-92992982D01*
X116642348Y-92946356D01*
X116639507Y-92943602D01*
X116619770Y-92923865D01*
X116616573Y-92921385D01*
X116607551Y-92913680D01*
X116594583Y-92901502D01*
X116575321Y-92883414D01*
X116568375Y-92879595D01*
X116568372Y-92879593D01*
X116557566Y-92873652D01*
X116541047Y-92862801D01*
X116540583Y-92862441D01*
X116525041Y-92850386D01*
X116517772Y-92847241D01*
X116517768Y-92847238D01*
X116484463Y-92832826D01*
X116473813Y-92827609D01*
X116435060Y-92806305D01*
X116415437Y-92801267D01*
X116396734Y-92794863D01*
X116385420Y-92789967D01*
X116385419Y-92789967D01*
X116378145Y-92786819D01*
X116370322Y-92785580D01*
X116370312Y-92785577D01*
X116334476Y-92779901D01*
X116322856Y-92777495D01*
X116287711Y-92768472D01*
X116287710Y-92768472D01*
X116280030Y-92766500D01*
X116259776Y-92766500D01*
X116240065Y-92764949D01*
X116227886Y-92763020D01*
X116220057Y-92761780D01*
X116212165Y-92762526D01*
X116176039Y-92765941D01*
X116164181Y-92766500D01*
X114324950Y-92766500D01*
X114256829Y-92746498D01*
X114243729Y-92735941D01*
X114243675Y-92736011D01*
X114237415Y-92731155D01*
X114231807Y-92725547D01*
X114224983Y-92721511D01*
X114224980Y-92721509D01*
X114095427Y-92644892D01*
X114095428Y-92644892D01*
X114088601Y-92640855D01*
X114080990Y-92638644D01*
X114080988Y-92638643D01*
X114028769Y-92623472D01*
X113928831Y-92594438D01*
X113922426Y-92593934D01*
X113922421Y-92593933D01*
X113893958Y-92591693D01*
X113893950Y-92591693D01*
X113891502Y-92591500D01*
X112734500Y-92591500D01*
X112666379Y-92571498D01*
X112619886Y-92517842D01*
X112608500Y-92465500D01*
X112608500Y-92233498D01*
X112605562Y-92196169D01*
X112559145Y-92036399D01*
X112542107Y-92007589D01*
X112478491Y-91900020D01*
X112478489Y-91900017D01*
X112474453Y-91893193D01*
X112356807Y-91775547D01*
X112349983Y-91771511D01*
X112349980Y-91771509D01*
X112220427Y-91694892D01*
X112220428Y-91694892D01*
X112213601Y-91690855D01*
X112205991Y-91688644D01*
X112205986Y-91688642D01*
X112086848Y-91654030D01*
X112027012Y-91615817D01*
X111997334Y-91551321D01*
X111996000Y-91533033D01*
X111996000Y-89741263D01*
X111996527Y-89730079D01*
X111998201Y-89722591D01*
X111996062Y-89654532D01*
X111996000Y-89650575D01*
X111996000Y-89622644D01*
X111995494Y-89618638D01*
X111994561Y-89606792D01*
X111993835Y-89583667D01*
X111993173Y-89562610D01*
X111987522Y-89543158D01*
X111983514Y-89523806D01*
X111981968Y-89511568D01*
X111981967Y-89511566D01*
X111980974Y-89503703D01*
X111964694Y-89462586D01*
X111960859Y-89451385D01*
X111948518Y-89408906D01*
X111944485Y-89402087D01*
X111944483Y-89402082D01*
X111938207Y-89391471D01*
X111929510Y-89373721D01*
X111922052Y-89354883D01*
X111896071Y-89319123D01*
X111889553Y-89309201D01*
X111871078Y-89277960D01*
X111871074Y-89277955D01*
X111867042Y-89271137D01*
X111852718Y-89256813D01*
X111839876Y-89241778D01*
X111827972Y-89225393D01*
X111793906Y-89197211D01*
X111785127Y-89189222D01*
X110170405Y-87574500D01*
X110136379Y-87512188D01*
X110133500Y-87485405D01*
X110133500Y-87461028D01*
X110153502Y-87392907D01*
X110207158Y-87346414D01*
X110277432Y-87336310D01*
X110294663Y-87340636D01*
X110294757Y-87340284D01*
X110510598Y-87398119D01*
X110510600Y-87398119D01*
X110515913Y-87399543D01*
X110744000Y-87419498D01*
X110972087Y-87399543D01*
X111076401Y-87371592D01*
X111147376Y-87373282D01*
X111206172Y-87413076D01*
X111234120Y-87478340D01*
X111235011Y-87493299D01*
X111235011Y-87689744D01*
X111234484Y-87700927D01*
X111232809Y-87708420D01*
X111233058Y-87716346D01*
X111233058Y-87716347D01*
X111234949Y-87776497D01*
X111235011Y-87780456D01*
X111235011Y-87808367D01*
X111235508Y-87812301D01*
X111235508Y-87812302D01*
X111235516Y-87812367D01*
X111236449Y-87824204D01*
X111237838Y-87868400D01*
X111241754Y-87881878D01*
X111243489Y-87887850D01*
X111247498Y-87907211D01*
X111250037Y-87927308D01*
X111252956Y-87934679D01*
X111252956Y-87934681D01*
X111266315Y-87968423D01*
X111270160Y-87979653D01*
X111275790Y-87999032D01*
X111282493Y-88022104D01*
X111286526Y-88028923D01*
X111286528Y-88028928D01*
X111292804Y-88039539D01*
X111301499Y-88057287D01*
X111308959Y-88076128D01*
X111313621Y-88082544D01*
X111313621Y-88082545D01*
X111334947Y-88111898D01*
X111341463Y-88121818D01*
X111357061Y-88148192D01*
X111363969Y-88159873D01*
X111378290Y-88174194D01*
X111391130Y-88189227D01*
X111403039Y-88205618D01*
X111409145Y-88210669D01*
X111437116Y-88233809D01*
X111445895Y-88241799D01*
X112852878Y-89648783D01*
X112886904Y-89711095D01*
X112889093Y-89724708D01*
X112902892Y-89855995D01*
X112906458Y-89889928D01*
X112965473Y-90071556D01*
X113060960Y-90236944D01*
X113065378Y-90241851D01*
X113065379Y-90241852D01*
X113073811Y-90251217D01*
X113188747Y-90378866D01*
X113287843Y-90450864D01*
X113330415Y-90481794D01*
X113343248Y-90491118D01*
X113349276Y-90493802D01*
X113349278Y-90493803D01*
X113351147Y-90494635D01*
X113517712Y-90568794D01*
X113611112Y-90588647D01*
X113698056Y-90607128D01*
X113698061Y-90607128D01*
X113704513Y-90608500D01*
X113895487Y-90608500D01*
X113901939Y-90607128D01*
X113901944Y-90607128D01*
X113988888Y-90588647D01*
X114082288Y-90568794D01*
X114248853Y-90494635D01*
X114250722Y-90493803D01*
X114250724Y-90493802D01*
X114256752Y-90491118D01*
X114269586Y-90481794D01*
X114312157Y-90450864D01*
X114411253Y-90378866D01*
X114526189Y-90251217D01*
X114534621Y-90241852D01*
X114534622Y-90241851D01*
X114539040Y-90236944D01*
X114634527Y-90071556D01*
X114657538Y-90000736D01*
X114697612Y-89942131D01*
X114763009Y-89914494D01*
X114808355Y-89918006D01*
X114813569Y-89920282D01*
X114822507Y-89921414D01*
X114822510Y-89921415D01*
X114949693Y-89937524D01*
X114949695Y-89937524D01*
X114958632Y-89938656D01*
X115102996Y-89915418D01*
X115207847Y-89865388D01*
X115230905Y-89854386D01*
X115230908Y-89854384D01*
X115234966Y-89852448D01*
X115630108Y-89589020D01*
X115697883Y-89567876D01*
X115769892Y-89589020D01*
X116162938Y-89851051D01*
X116162944Y-89851055D01*
X116165034Y-89852448D01*
X116167234Y-89853673D01*
X116167235Y-89853674D01*
X116230452Y-89888886D01*
X116230454Y-89888887D01*
X116236589Y-89892304D01*
X116243329Y-89894283D01*
X116328471Y-89919283D01*
X116376889Y-89933500D01*
X116523111Y-89933500D01*
X116531755Y-89930962D01*
X116654765Y-89894843D01*
X116654767Y-89894842D01*
X116663411Y-89892304D01*
X116719909Y-89855995D01*
X116778841Y-89818122D01*
X116778844Y-89818120D01*
X116786421Y-89813250D01*
X116792322Y-89806440D01*
X116876274Y-89709555D01*
X116876276Y-89709552D01*
X116882176Y-89702743D01*
X116936556Y-89583667D01*
X116983049Y-89530012D01*
X117051170Y-89510010D01*
X117119291Y-89530012D01*
X117165784Y-89583668D01*
X117171447Y-89598468D01*
X117186348Y-89646233D01*
X117191348Y-89653733D01*
X117191349Y-89653735D01*
X117267457Y-89767897D01*
X117274366Y-89773683D01*
X117369851Y-89853652D01*
X117379558Y-89861782D01*
X117387813Y-89865386D01*
X117387817Y-89865388D01*
X117505308Y-89916676D01*
X117513569Y-89920282D01*
X117522510Y-89921415D01*
X117522512Y-89921415D01*
X117649693Y-89937524D01*
X117649695Y-89937524D01*
X117658632Y-89938656D01*
X117802996Y-89915418D01*
X117907847Y-89865388D01*
X117930905Y-89854386D01*
X117930908Y-89854384D01*
X117934966Y-89852448D01*
X118330108Y-89589020D01*
X118397883Y-89567876D01*
X118469892Y-89589020D01*
X118862938Y-89851051D01*
X118862944Y-89851055D01*
X118865034Y-89852448D01*
X118867234Y-89853673D01*
X118867235Y-89853674D01*
X118930452Y-89888886D01*
X118930454Y-89888887D01*
X118936589Y-89892304D01*
X118943329Y-89894283D01*
X119028471Y-89919283D01*
X119076889Y-89933500D01*
X119223111Y-89933500D01*
X119231755Y-89930962D01*
X119354765Y-89894843D01*
X119354767Y-89894842D01*
X119363411Y-89892304D01*
X119419909Y-89855995D01*
X119478841Y-89818122D01*
X119478844Y-89818120D01*
X119486421Y-89813250D01*
X119492322Y-89806440D01*
X119576274Y-89709555D01*
X119576276Y-89709552D01*
X119582176Y-89702743D01*
X119585920Y-89694545D01*
X119587860Y-89691526D01*
X119641516Y-89645033D01*
X119711790Y-89634930D01*
X119776371Y-89664423D01*
X119798696Y-89689755D01*
X119867457Y-89792897D01*
X119979558Y-89886782D01*
X119987813Y-89890386D01*
X119987817Y-89890388D01*
X120105308Y-89941676D01*
X120113569Y-89945282D01*
X120122510Y-89946415D01*
X120122512Y-89946415D01*
X120249693Y-89962524D01*
X120249695Y-89962524D01*
X120258632Y-89963656D01*
X120402996Y-89940418D01*
X120499684Y-89894283D01*
X120530905Y-89879386D01*
X120530908Y-89879384D01*
X120534966Y-89877448D01*
X120930108Y-89614020D01*
X120997883Y-89592876D01*
X121069892Y-89614020D01*
X121462938Y-89876051D01*
X121462944Y-89876055D01*
X121465034Y-89877448D01*
X121467234Y-89878673D01*
X121467235Y-89878674D01*
X121530452Y-89913886D01*
X121530454Y-89913887D01*
X121536589Y-89917304D01*
X121543329Y-89919283D01*
X121621142Y-89942131D01*
X121676889Y-89958500D01*
X121823111Y-89958500D01*
X121831755Y-89955962D01*
X121954765Y-89919843D01*
X121954767Y-89919842D01*
X121963411Y-89917304D01*
X122019909Y-89880995D01*
X122078841Y-89843122D01*
X122078844Y-89843120D01*
X122086421Y-89838250D01*
X122142369Y-89773683D01*
X122176274Y-89734555D01*
X122176276Y-89734552D01*
X122182176Y-89727743D01*
X122192593Y-89704934D01*
X122239175Y-89602932D01*
X122242919Y-89594734D01*
X122263729Y-89450000D01*
X122263729Y-88300000D01*
X122258500Y-88226889D01*
X122234952Y-88146692D01*
X122219843Y-88095235D01*
X122219842Y-88095233D01*
X122217304Y-88086589D01*
X122183623Y-88034180D01*
X122143122Y-87971159D01*
X122143120Y-87971156D01*
X122138250Y-87963579D01*
X122104900Y-87934681D01*
X122034555Y-87873726D01*
X122034552Y-87873724D01*
X122027743Y-87867824D01*
X121973001Y-87842824D01*
X121950823Y-87832696D01*
X121894734Y-87807081D01*
X121876109Y-87804403D01*
X121869900Y-87803510D01*
X121750000Y-87786271D01*
X121663500Y-87786271D01*
X121595379Y-87766269D01*
X121548886Y-87712613D01*
X121537500Y-87660271D01*
X121537500Y-87325394D01*
X121557502Y-87257273D01*
X121591229Y-87222181D01*
X121743789Y-87115357D01*
X121743792Y-87115355D01*
X121748300Y-87112198D01*
X121910198Y-86950300D01*
X122041523Y-86762749D01*
X122043846Y-86757767D01*
X122043849Y-86757762D01*
X122059805Y-86723543D01*
X122106722Y-86670258D01*
X122174999Y-86650797D01*
X122242959Y-86671339D01*
X122288195Y-86723543D01*
X122304151Y-86757762D01*
X122304154Y-86757767D01*
X122306477Y-86762749D01*
X122437802Y-86950300D01*
X122599700Y-87112198D01*
X122604208Y-87115355D01*
X122604211Y-87115357D01*
X122645542Y-87144297D01*
X122787251Y-87243523D01*
X122792233Y-87245846D01*
X122792238Y-87245849D01*
X122988765Y-87337490D01*
X122994757Y-87340284D01*
X123000065Y-87341706D01*
X123000067Y-87341707D01*
X123210598Y-87398119D01*
X123210600Y-87398119D01*
X123215913Y-87399543D01*
X123444000Y-87419498D01*
X123672087Y-87399543D01*
X123677400Y-87398119D01*
X123677402Y-87398119D01*
X123887933Y-87341707D01*
X123887935Y-87341706D01*
X123893243Y-87340284D01*
X123899235Y-87337490D01*
X124095762Y-87245849D01*
X124095767Y-87245846D01*
X124100749Y-87243523D01*
X124242458Y-87144297D01*
X124283789Y-87115357D01*
X124283792Y-87115355D01*
X124288300Y-87112198D01*
X124450198Y-86950300D01*
X124581523Y-86762749D01*
X124583846Y-86757767D01*
X124583849Y-86757762D01*
X124599805Y-86723543D01*
X124646722Y-86670258D01*
X124714999Y-86650797D01*
X124782959Y-86671339D01*
X124828195Y-86723543D01*
X124844151Y-86757762D01*
X124844154Y-86757767D01*
X124846477Y-86762749D01*
X124977802Y-86950300D01*
X125139700Y-87112198D01*
X125144208Y-87115355D01*
X125144211Y-87115357D01*
X125185542Y-87144297D01*
X125327251Y-87243523D01*
X125332233Y-87245846D01*
X125332238Y-87245849D01*
X125528765Y-87337490D01*
X125534757Y-87340284D01*
X125540065Y-87341706D01*
X125540067Y-87341707D01*
X125750598Y-87398119D01*
X125750600Y-87398119D01*
X125755913Y-87399543D01*
X125984000Y-87419498D01*
X126212087Y-87399543D01*
X126217400Y-87398119D01*
X126217402Y-87398119D01*
X126427933Y-87341707D01*
X126427935Y-87341706D01*
X126433243Y-87340284D01*
X126439235Y-87337490D01*
X126635762Y-87245849D01*
X126635767Y-87245846D01*
X126640749Y-87243523D01*
X126782458Y-87144297D01*
X126823789Y-87115357D01*
X126823792Y-87115355D01*
X126828300Y-87112198D01*
X126990198Y-86950300D01*
X127121523Y-86762749D01*
X127123846Y-86757767D01*
X127123849Y-86757762D01*
X127139805Y-86723543D01*
X127186722Y-86670258D01*
X127254999Y-86650797D01*
X127322959Y-86671339D01*
X127368195Y-86723543D01*
X127384151Y-86757762D01*
X127384154Y-86757767D01*
X127386477Y-86762749D01*
X127517802Y-86950300D01*
X127679700Y-87112198D01*
X127684208Y-87115355D01*
X127684211Y-87115357D01*
X127725542Y-87144297D01*
X127867251Y-87243523D01*
X127872233Y-87245846D01*
X127872238Y-87245849D01*
X128068765Y-87337490D01*
X128074757Y-87340284D01*
X128080065Y-87341706D01*
X128080067Y-87341707D01*
X128290598Y-87398119D01*
X128290600Y-87398119D01*
X128295913Y-87399543D01*
X128524000Y-87419498D01*
X128752087Y-87399543D01*
X128757400Y-87398119D01*
X128757402Y-87398119D01*
X128967933Y-87341707D01*
X128967935Y-87341706D01*
X128973243Y-87340284D01*
X128979235Y-87337490D01*
X129175762Y-87245849D01*
X129175767Y-87245846D01*
X129180749Y-87243523D01*
X129322458Y-87144297D01*
X129363789Y-87115357D01*
X129363792Y-87115355D01*
X129368300Y-87112198D01*
X129530198Y-86950300D01*
X129661523Y-86762749D01*
X129663846Y-86757767D01*
X129663849Y-86757762D01*
X129679805Y-86723543D01*
X129726722Y-86670258D01*
X129794999Y-86650797D01*
X129862959Y-86671339D01*
X129908195Y-86723543D01*
X129924151Y-86757762D01*
X129924154Y-86757767D01*
X129926477Y-86762749D01*
X130057802Y-86950300D01*
X130219700Y-87112198D01*
X130224208Y-87115355D01*
X130224211Y-87115357D01*
X130376771Y-87222181D01*
X130421099Y-87277638D01*
X130430500Y-87325394D01*
X130430500Y-87466803D01*
X130410498Y-87534924D01*
X130356842Y-87581417D01*
X130344377Y-87586326D01*
X130296998Y-87602133D01*
X130296996Y-87602134D01*
X130290054Y-87604450D01*
X130283830Y-87608301D01*
X130283829Y-87608302D01*
X130228285Y-87642674D01*
X130139652Y-87697522D01*
X130014695Y-87822697D01*
X130010855Y-87828927D01*
X130010854Y-87828928D01*
X129926257Y-87966170D01*
X129921885Y-87973262D01*
X129919581Y-87980209D01*
X129879767Y-88100246D01*
X129866203Y-88141139D01*
X129865503Y-88147975D01*
X129865502Y-88147978D01*
X129861757Y-88184535D01*
X129855500Y-88245600D01*
X129855500Y-89046400D01*
X129866474Y-89152166D01*
X129868655Y-89158702D01*
X129868655Y-89158704D01*
X129893044Y-89231805D01*
X129922450Y-89319946D01*
X130015522Y-89470348D01*
X130078922Y-89533637D01*
X130102109Y-89556784D01*
X130136188Y-89619066D01*
X130131185Y-89689886D01*
X130102264Y-89734975D01*
X130067799Y-89769500D01*
X130014695Y-89822697D01*
X130010855Y-89828927D01*
X130010854Y-89828928D01*
X129934611Y-89952616D01*
X129881838Y-90000110D01*
X129827351Y-90012500D01*
X129448590Y-90012500D01*
X129380469Y-89992498D01*
X129374529Y-89988436D01*
X129240094Y-89890763D01*
X129240093Y-89890762D01*
X129234752Y-89886882D01*
X129228724Y-89884198D01*
X129228722Y-89884197D01*
X129066319Y-89811891D01*
X129066318Y-89811891D01*
X129060288Y-89809206D01*
X128948281Y-89785398D01*
X128879944Y-89770872D01*
X128879939Y-89770872D01*
X128873487Y-89769500D01*
X128682513Y-89769500D01*
X128676061Y-89770872D01*
X128676056Y-89770872D01*
X128607719Y-89785398D01*
X128495712Y-89809206D01*
X128489682Y-89811891D01*
X128489681Y-89811891D01*
X128327278Y-89884197D01*
X128327276Y-89884198D01*
X128321248Y-89886882D01*
X128315907Y-89890762D01*
X128315906Y-89890763D01*
X128287315Y-89911536D01*
X128166747Y-89999134D01*
X128038960Y-90141056D01*
X127943473Y-90306444D01*
X127884458Y-90488072D01*
X127883768Y-90494633D01*
X127883768Y-90494635D01*
X127875082Y-90577279D01*
X127864496Y-90678000D01*
X127884458Y-90867928D01*
X127943473Y-91049556D01*
X128038960Y-91214944D01*
X128043378Y-91219851D01*
X128043379Y-91219852D01*
X128162317Y-91351946D01*
X128166747Y-91356866D01*
X128321248Y-91469118D01*
X128327276Y-91471802D01*
X128327278Y-91471803D01*
X128457291Y-91529688D01*
X128495712Y-91546794D01*
X128583829Y-91565524D01*
X128676056Y-91585128D01*
X128676061Y-91585128D01*
X128682513Y-91586500D01*
X128873487Y-91586500D01*
X128879939Y-91585128D01*
X128879944Y-91585128D01*
X128972171Y-91565524D01*
X129060288Y-91546794D01*
X129098709Y-91529688D01*
X129228722Y-91471803D01*
X129228724Y-91471802D01*
X129234752Y-91469118D01*
X129389253Y-91356866D01*
X129394430Y-91351117D01*
X129421377Y-91321189D01*
X129481823Y-91283950D01*
X129515013Y-91279500D01*
X129827219Y-91279500D01*
X129895340Y-91299502D01*
X129934363Y-91339197D01*
X130015522Y-91470348D01*
X130140697Y-91595305D01*
X130146927Y-91599145D01*
X130146928Y-91599146D01*
X130284090Y-91683694D01*
X130291262Y-91688115D01*
X130371005Y-91714564D01*
X130452611Y-91741632D01*
X130452613Y-91741632D01*
X130459139Y-91743797D01*
X130465975Y-91744497D01*
X130465978Y-91744498D01*
X130509031Y-91748909D01*
X130563600Y-91754500D01*
X131564400Y-91754500D01*
X131567646Y-91754163D01*
X131567650Y-91754163D01*
X131663308Y-91744238D01*
X131663312Y-91744237D01*
X131670166Y-91743526D01*
X131676702Y-91741345D01*
X131676704Y-91741345D01*
X131828040Y-91690855D01*
X131837946Y-91687550D01*
X131988348Y-91594478D01*
X132113305Y-91469303D01*
X132120273Y-91457999D01*
X132193389Y-91339384D01*
X132246162Y-91291890D01*
X132300649Y-91279500D01*
X132367219Y-91279500D01*
X132435340Y-91299502D01*
X132474363Y-91339197D01*
X132555522Y-91470348D01*
X132680697Y-91595305D01*
X132686927Y-91599145D01*
X132686928Y-91599146D01*
X132824090Y-91683694D01*
X132831262Y-91688115D01*
X132911005Y-91714564D01*
X132992611Y-91741632D01*
X132992613Y-91741632D01*
X132999139Y-91743797D01*
X133005975Y-91744497D01*
X133005978Y-91744498D01*
X133049031Y-91748909D01*
X133103600Y-91754500D01*
X134104400Y-91754500D01*
X134107646Y-91754163D01*
X134107650Y-91754163D01*
X134203308Y-91744238D01*
X134203312Y-91744237D01*
X134210166Y-91743526D01*
X134216702Y-91741345D01*
X134216704Y-91741345D01*
X134368040Y-91690855D01*
X134377946Y-91687550D01*
X134528348Y-91594478D01*
X134653305Y-91469303D01*
X134713664Y-91371383D01*
X134766435Y-91323891D01*
X134820923Y-91311500D01*
X139987219Y-91311500D01*
X140055340Y-91331502D01*
X140094363Y-91371197D01*
X140175522Y-91502348D01*
X140300697Y-91627305D01*
X140306927Y-91631145D01*
X140306928Y-91631146D01*
X140444090Y-91715694D01*
X140451262Y-91720115D01*
X140523991Y-91744238D01*
X140612611Y-91773632D01*
X140612613Y-91773632D01*
X140619139Y-91775797D01*
X140625975Y-91776497D01*
X140625978Y-91776498D01*
X140669031Y-91780909D01*
X140723600Y-91786500D01*
X141724400Y-91786500D01*
X141727646Y-91786163D01*
X141727650Y-91786163D01*
X141823308Y-91776238D01*
X141823312Y-91776237D01*
X141830166Y-91775526D01*
X141836702Y-91773345D01*
X141836704Y-91773345D01*
X141984725Y-91723961D01*
X141997946Y-91719550D01*
X142148348Y-91626478D01*
X142273305Y-91501303D01*
X142293144Y-91469118D01*
X142362272Y-91356973D01*
X142362273Y-91356971D01*
X142366115Y-91350738D01*
X142366301Y-91350176D01*
X142411388Y-91298967D01*
X142478669Y-91279500D01*
X142527219Y-91279500D01*
X142595340Y-91299502D01*
X142634363Y-91339197D01*
X142715522Y-91470348D01*
X142840697Y-91595305D01*
X142846927Y-91599145D01*
X142846928Y-91599146D01*
X142984090Y-91683694D01*
X142991262Y-91688115D01*
X143071005Y-91714564D01*
X143152611Y-91741632D01*
X143152613Y-91741632D01*
X143159139Y-91743797D01*
X143165975Y-91744497D01*
X143165978Y-91744498D01*
X143209031Y-91748909D01*
X143263600Y-91754500D01*
X144264400Y-91754500D01*
X144267646Y-91754163D01*
X144267650Y-91754163D01*
X144363308Y-91744238D01*
X144363312Y-91744237D01*
X144370166Y-91743526D01*
X144376702Y-91741345D01*
X144376704Y-91741345D01*
X144528040Y-91690855D01*
X144537946Y-91687550D01*
X144688348Y-91594478D01*
X144813305Y-91469303D01*
X144820273Y-91457999D01*
X144902275Y-91324968D01*
X144902276Y-91324966D01*
X144906115Y-91318738D01*
X144961797Y-91150861D01*
X144972500Y-91046400D01*
X144972500Y-90245600D01*
X144972111Y-90241852D01*
X144962238Y-90146692D01*
X144962237Y-90146688D01*
X144961526Y-90139834D01*
X144905550Y-89972054D01*
X144812478Y-89821652D01*
X144725891Y-89735216D01*
X144691812Y-89672934D01*
X144696815Y-89602114D01*
X144725736Y-89557025D01*
X144808134Y-89474483D01*
X144813305Y-89469303D01*
X144848157Y-89412763D01*
X144902275Y-89324968D01*
X144902276Y-89324966D01*
X144906115Y-89318738D01*
X144961797Y-89150861D01*
X144972500Y-89046400D01*
X144972500Y-88245600D01*
X144971258Y-88233627D01*
X144962238Y-88146692D01*
X144962237Y-88146688D01*
X144961526Y-88139834D01*
X144955516Y-88121818D01*
X144907868Y-87979002D01*
X144905550Y-87972054D01*
X144812478Y-87821652D01*
X144776589Y-87785825D01*
X144692483Y-87701866D01*
X144687303Y-87696695D01*
X144676027Y-87689744D01*
X144667335Y-87684387D01*
X144599663Y-87642672D01*
X144552171Y-87589902D01*
X144540747Y-87519831D01*
X144569021Y-87454707D01*
X144628015Y-87415207D01*
X144652170Y-87410151D01*
X144658097Y-87409507D01*
X144674316Y-87407745D01*
X144810705Y-87356615D01*
X144927261Y-87269261D01*
X145014615Y-87152705D01*
X145065745Y-87016316D01*
X145072500Y-86954134D01*
X145072500Y-85257866D01*
X145065745Y-85195684D01*
X145014615Y-85059295D01*
X144927261Y-84942739D01*
X144810705Y-84855385D01*
X144674316Y-84804255D01*
X144612134Y-84797500D01*
X142915866Y-84797500D01*
X142853684Y-84804255D01*
X142717295Y-84855385D01*
X142600739Y-84942739D01*
X142513385Y-85059295D01*
X142462255Y-85195684D01*
X142461083Y-85206474D01*
X142460197Y-85208606D01*
X142459575Y-85211222D01*
X142459152Y-85211121D01*
X142433845Y-85272035D01*
X142375483Y-85312463D01*
X142304529Y-85314922D01*
X142243510Y-85278629D01*
X142236511Y-85269969D01*
X142233354Y-85266207D01*
X142230198Y-85261700D01*
X142068300Y-85099802D01*
X142063792Y-85096645D01*
X142063789Y-85096643D01*
X141985611Y-85041902D01*
X141880749Y-84968477D01*
X141875767Y-84966154D01*
X141875762Y-84966151D01*
X141678225Y-84874039D01*
X141678224Y-84874039D01*
X141673243Y-84871716D01*
X141667935Y-84870294D01*
X141667933Y-84870293D01*
X141661266Y-84868507D01*
X141656217Y-84867154D01*
X141595595Y-84830203D01*
X141564573Y-84766342D01*
X141573001Y-84695848D01*
X141618203Y-84641101D01*
X141637579Y-84630340D01*
X141674722Y-84613803D01*
X141674724Y-84613802D01*
X141680752Y-84611118D01*
X141712796Y-84587837D01*
X141736157Y-84570864D01*
X141835253Y-84498866D01*
X141963040Y-84356944D01*
X142058527Y-84191556D01*
X142117542Y-84009928D01*
X142118232Y-84003365D01*
X142123326Y-83954899D01*
X142150340Y-83889242D01*
X142208562Y-83848613D01*
X142279507Y-83845910D01*
X142299881Y-83852962D01*
X142465712Y-83926794D01*
X142559112Y-83946647D01*
X142646056Y-83965128D01*
X142646061Y-83965128D01*
X142652513Y-83966500D01*
X142843487Y-83966500D01*
X142849939Y-83965128D01*
X142849944Y-83965128D01*
X142936887Y-83946647D01*
X143030288Y-83926794D01*
X143114632Y-83889242D01*
X143198722Y-83851803D01*
X143198724Y-83851802D01*
X143204752Y-83849118D01*
X143235794Y-83826565D01*
X143260157Y-83808864D01*
X143359253Y-83736866D01*
X143455411Y-83630072D01*
X143482621Y-83599852D01*
X143482622Y-83599851D01*
X143487040Y-83594944D01*
X143582527Y-83429556D01*
X143641542Y-83247928D01*
X143644549Y-83219324D01*
X143660814Y-83064565D01*
X143661504Y-83058000D01*
X143657095Y-83016051D01*
X143642232Y-82874635D01*
X143642232Y-82874633D01*
X143641542Y-82868072D01*
X143582527Y-82686444D01*
X143487040Y-82521056D01*
X143359253Y-82379134D01*
X143204752Y-82266882D01*
X143198724Y-82264198D01*
X143198722Y-82264197D01*
X143036319Y-82191891D01*
X143036318Y-82191891D01*
X143030288Y-82189206D01*
X142936888Y-82169353D01*
X142849944Y-82150872D01*
X142849939Y-82150872D01*
X142843487Y-82149500D01*
X142652513Y-82149500D01*
X142646061Y-82150872D01*
X142646056Y-82150872D01*
X142559112Y-82169353D01*
X142465712Y-82189206D01*
X142459682Y-82191891D01*
X142459681Y-82191891D01*
X142297278Y-82264197D01*
X142297276Y-82264198D01*
X142291248Y-82266882D01*
X142136747Y-82379134D01*
X142132332Y-82384037D01*
X142127420Y-82388460D01*
X142126295Y-82387211D01*
X142072986Y-82420051D01*
X142039800Y-82424500D01*
X139900200Y-82424500D01*
X139832079Y-82404498D01*
X139812853Y-82388157D01*
X139812580Y-82388460D01*
X139807668Y-82384037D01*
X139803253Y-82379134D01*
X139648752Y-82266882D01*
X139642724Y-82264198D01*
X139642722Y-82264197D01*
X139480319Y-82191891D01*
X139480318Y-82191891D01*
X139474288Y-82189206D01*
X139380888Y-82169353D01*
X139293944Y-82150872D01*
X139293939Y-82150872D01*
X139287487Y-82149500D01*
X139096513Y-82149500D01*
X139090061Y-82150872D01*
X139090056Y-82150872D01*
X139003112Y-82169353D01*
X138909712Y-82189206D01*
X138903682Y-82191891D01*
X138903681Y-82191891D01*
X138741278Y-82264197D01*
X138741276Y-82264198D01*
X138735248Y-82266882D01*
X138580747Y-82379134D01*
X138452960Y-82521056D01*
X138357473Y-82686444D01*
X138338315Y-82745405D01*
X138312636Y-82824437D01*
X138272562Y-82883042D01*
X138207165Y-82910679D01*
X138192803Y-82911500D01*
X138080513Y-82911500D01*
X138074061Y-82912872D01*
X138074056Y-82912872D01*
X137987112Y-82931353D01*
X137893712Y-82951206D01*
X137887682Y-82953891D01*
X137887681Y-82953891D01*
X137725278Y-83026197D01*
X137725276Y-83026198D01*
X137719248Y-83028882D01*
X137713907Y-83032762D01*
X137713906Y-83032763D01*
X137685579Y-83053344D01*
X137564747Y-83141134D01*
X137560326Y-83146044D01*
X137560325Y-83146045D01*
X137451140Y-83267308D01*
X137436960Y-83283056D01*
X137341473Y-83448444D01*
X137282458Y-83630072D01*
X137281768Y-83636633D01*
X137281768Y-83636635D01*
X137263186Y-83813435D01*
X137262496Y-83820000D01*
X137263186Y-83826565D01*
X137277894Y-83966500D01*
X137282458Y-84009928D01*
X137341473Y-84191556D01*
X137436960Y-84356944D01*
X137564747Y-84498866D01*
X137663843Y-84570864D01*
X137687205Y-84587837D01*
X137719248Y-84611118D01*
X137725276Y-84613802D01*
X137725278Y-84613803D01*
X137862523Y-84674908D01*
X137893712Y-84688794D01*
X138029082Y-84717568D01*
X138091553Y-84751295D01*
X138125875Y-84813445D01*
X138121147Y-84884284D01*
X138078872Y-84941321D01*
X138056133Y-84955009D01*
X138032238Y-84966151D01*
X138032233Y-84966154D01*
X138027251Y-84968477D01*
X137922389Y-85041902D01*
X137844211Y-85096643D01*
X137844208Y-85096645D01*
X137839700Y-85099802D01*
X137677802Y-85261700D01*
X137546477Y-85449251D01*
X137544154Y-85454233D01*
X137544151Y-85454238D01*
X137527919Y-85489049D01*
X137481002Y-85542334D01*
X137412725Y-85561795D01*
X137344765Y-85541253D01*
X137299529Y-85489049D01*
X137283414Y-85454489D01*
X137277931Y-85444993D01*
X137152972Y-85266533D01*
X137145916Y-85258125D01*
X136991875Y-85104084D01*
X136983467Y-85097028D01*
X136805007Y-84972069D01*
X136795511Y-84966586D01*
X136598053Y-84874510D01*
X136587761Y-84870764D01*
X136415497Y-84824606D01*
X136401401Y-84824942D01*
X136398000Y-84832884D01*
X136398000Y-87373967D01*
X136401973Y-87387498D01*
X136410522Y-87388727D01*
X136587761Y-87341236D01*
X136598053Y-87337490D01*
X136795511Y-87245414D01*
X136805007Y-87239931D01*
X136983467Y-87114972D01*
X136991875Y-87107916D01*
X137145916Y-86953875D01*
X137152972Y-86945467D01*
X137277931Y-86767007D01*
X137283414Y-86757511D01*
X137299529Y-86722951D01*
X137346446Y-86669666D01*
X137414723Y-86650205D01*
X137482683Y-86670747D01*
X137527919Y-86722951D01*
X137544151Y-86757762D01*
X137544154Y-86757767D01*
X137546477Y-86762749D01*
X137677802Y-86950300D01*
X137839700Y-87112198D01*
X137844208Y-87115355D01*
X137844211Y-87115357D01*
X137885542Y-87144297D01*
X138027251Y-87243523D01*
X138032233Y-87245846D01*
X138032238Y-87245849D01*
X138228765Y-87337490D01*
X138234757Y-87340284D01*
X138240065Y-87341706D01*
X138240067Y-87341707D01*
X138450598Y-87398119D01*
X138450600Y-87398119D01*
X138455913Y-87399543D01*
X138684000Y-87419498D01*
X138912087Y-87399543D01*
X138917400Y-87398119D01*
X138917402Y-87398119D01*
X139127933Y-87341707D01*
X139127935Y-87341706D01*
X139133243Y-87340284D01*
X139139235Y-87337490D01*
X139335762Y-87245849D01*
X139335767Y-87245846D01*
X139340749Y-87243523D01*
X139482458Y-87144297D01*
X139523789Y-87115357D01*
X139523792Y-87115355D01*
X139528300Y-87112198D01*
X139690198Y-86950300D01*
X139821523Y-86762749D01*
X139823846Y-86757767D01*
X139823849Y-86757762D01*
X139839805Y-86723543D01*
X139886722Y-86670258D01*
X139954999Y-86650797D01*
X140022959Y-86671339D01*
X140068195Y-86723543D01*
X140084151Y-86757762D01*
X140084154Y-86757767D01*
X140086477Y-86762749D01*
X140217802Y-86950300D01*
X140379700Y-87112198D01*
X140384208Y-87115355D01*
X140384211Y-87115357D01*
X140536771Y-87222181D01*
X140581099Y-87277638D01*
X140590500Y-87325394D01*
X140590500Y-87498803D01*
X140570498Y-87566924D01*
X140516842Y-87613417D01*
X140504377Y-87618326D01*
X140456998Y-87634133D01*
X140456996Y-87634134D01*
X140450054Y-87636450D01*
X140443830Y-87640301D01*
X140443829Y-87640302D01*
X140357591Y-87693668D01*
X140299652Y-87729522D01*
X140174695Y-87854697D01*
X140170855Y-87860927D01*
X140170854Y-87860928D01*
X140097671Y-87979653D01*
X140081885Y-88005262D01*
X140065716Y-88054010D01*
X140032868Y-88153046D01*
X140026203Y-88173139D01*
X140025503Y-88179975D01*
X140025502Y-88179978D01*
X140022358Y-88210669D01*
X140015500Y-88277600D01*
X140015500Y-89078400D01*
X140015837Y-89081646D01*
X140015837Y-89081650D01*
X140023696Y-89157389D01*
X140026474Y-89184166D01*
X140028655Y-89190702D01*
X140028655Y-89190704D01*
X140062741Y-89292872D01*
X140082450Y-89351946D01*
X140175522Y-89502348D01*
X140230295Y-89557025D01*
X140262109Y-89588784D01*
X140296188Y-89651066D01*
X140291185Y-89721886D01*
X140262264Y-89766975D01*
X140258374Y-89770872D01*
X140174695Y-89854697D01*
X140170855Y-89860927D01*
X140170854Y-89860928D01*
X140094611Y-89984616D01*
X140041838Y-90032110D01*
X139987351Y-90044500D01*
X134858666Y-90044500D01*
X134790545Y-90024498D01*
X134746101Y-89973706D01*
X134745550Y-89972054D01*
X134652478Y-89821652D01*
X134565891Y-89735216D01*
X134531812Y-89672934D01*
X134536815Y-89602114D01*
X134565736Y-89557025D01*
X134648134Y-89474483D01*
X134653305Y-89469303D01*
X134688157Y-89412763D01*
X134742275Y-89324968D01*
X134742276Y-89324966D01*
X134746115Y-89318738D01*
X134801797Y-89150861D01*
X134812500Y-89046400D01*
X134812500Y-88245600D01*
X134811258Y-88233627D01*
X134802238Y-88146692D01*
X134802237Y-88146688D01*
X134801526Y-88139834D01*
X134795516Y-88121818D01*
X134747868Y-87979002D01*
X134745550Y-87972054D01*
X134652478Y-87821652D01*
X134616589Y-87785825D01*
X134532483Y-87701866D01*
X134527303Y-87696695D01*
X134521072Y-87692854D01*
X134382968Y-87607725D01*
X134382966Y-87607724D01*
X134376738Y-87603885D01*
X134323832Y-87586337D01*
X134265473Y-87545906D01*
X134238236Y-87480342D01*
X134237500Y-87466744D01*
X134237500Y-87325394D01*
X134257502Y-87257273D01*
X134291229Y-87222181D01*
X134443789Y-87115357D01*
X134443792Y-87115355D01*
X134448300Y-87112198D01*
X134610198Y-86950300D01*
X134741523Y-86762749D01*
X134743846Y-86757767D01*
X134743849Y-86757762D01*
X134760081Y-86722951D01*
X134806998Y-86669666D01*
X134875275Y-86650205D01*
X134943235Y-86670747D01*
X134988471Y-86722951D01*
X135004586Y-86757511D01*
X135010069Y-86767007D01*
X135135028Y-86945467D01*
X135142084Y-86953875D01*
X135296125Y-87107916D01*
X135304533Y-87114972D01*
X135482993Y-87239931D01*
X135492489Y-87245414D01*
X135689947Y-87337490D01*
X135700239Y-87341236D01*
X135872503Y-87387394D01*
X135886599Y-87387058D01*
X135890000Y-87379116D01*
X135890000Y-84838033D01*
X135886027Y-84824502D01*
X135877478Y-84823273D01*
X135700239Y-84870764D01*
X135689947Y-84874510D01*
X135492489Y-84966586D01*
X135482993Y-84972069D01*
X135304533Y-85097028D01*
X135296125Y-85104084D01*
X135142084Y-85258125D01*
X135135028Y-85266533D01*
X135010069Y-85444993D01*
X135004586Y-85454489D01*
X134988471Y-85489049D01*
X134941554Y-85542334D01*
X134873277Y-85561795D01*
X134805317Y-85541253D01*
X134760081Y-85489049D01*
X134743849Y-85454238D01*
X134743846Y-85454233D01*
X134741523Y-85449251D01*
X134610198Y-85261700D01*
X134448300Y-85099802D01*
X134443792Y-85096645D01*
X134443789Y-85096643D01*
X134365611Y-85041902D01*
X134260749Y-84968477D01*
X134255767Y-84966154D01*
X134255762Y-84966151D01*
X134058225Y-84874039D01*
X134058224Y-84874039D01*
X134053243Y-84871716D01*
X134047935Y-84870294D01*
X134047933Y-84870293D01*
X133837402Y-84813881D01*
X133837400Y-84813881D01*
X133832087Y-84812457D01*
X133604000Y-84792502D01*
X133375913Y-84812457D01*
X133370600Y-84813881D01*
X133370598Y-84813881D01*
X133160067Y-84870293D01*
X133160065Y-84870294D01*
X133154757Y-84871716D01*
X133149776Y-84874039D01*
X133149775Y-84874039D01*
X132952238Y-84966151D01*
X132952233Y-84966154D01*
X132947251Y-84968477D01*
X132842389Y-85041902D01*
X132764211Y-85096643D01*
X132764208Y-85096645D01*
X132759700Y-85099802D01*
X132597802Y-85261700D01*
X132466477Y-85449251D01*
X132464154Y-85454233D01*
X132464151Y-85454238D01*
X132448195Y-85488457D01*
X132401278Y-85541742D01*
X132333001Y-85561203D01*
X132265041Y-85540661D01*
X132219805Y-85488457D01*
X132203849Y-85454238D01*
X132203846Y-85454233D01*
X132201523Y-85449251D01*
X132070198Y-85261700D01*
X131908300Y-85099802D01*
X131903792Y-85096645D01*
X131903789Y-85096643D01*
X131825611Y-85041902D01*
X131720749Y-84968477D01*
X131715767Y-84966154D01*
X131715762Y-84966151D01*
X131518225Y-84874039D01*
X131518224Y-84874039D01*
X131513243Y-84871716D01*
X131507935Y-84870294D01*
X131507933Y-84870293D01*
X131297402Y-84813881D01*
X131297400Y-84813881D01*
X131292087Y-84812457D01*
X131064000Y-84792502D01*
X130835913Y-84812457D01*
X130830600Y-84813881D01*
X130830598Y-84813881D01*
X130620067Y-84870293D01*
X130620065Y-84870294D01*
X130614757Y-84871716D01*
X130609776Y-84874039D01*
X130609775Y-84874039D01*
X130412238Y-84966151D01*
X130412233Y-84966154D01*
X130407251Y-84968477D01*
X130302389Y-85041902D01*
X130224211Y-85096643D01*
X130224208Y-85096645D01*
X130219700Y-85099802D01*
X130057802Y-85261700D01*
X129926477Y-85449251D01*
X129924154Y-85454233D01*
X129924151Y-85454238D01*
X129908195Y-85488457D01*
X129861278Y-85541742D01*
X129793001Y-85561203D01*
X129725041Y-85540661D01*
X129679805Y-85488457D01*
X129663849Y-85454238D01*
X129663846Y-85454233D01*
X129661523Y-85449251D01*
X129530198Y-85261700D01*
X129368300Y-85099802D01*
X129363792Y-85096645D01*
X129363789Y-85096643D01*
X129285611Y-85041902D01*
X129180749Y-84968477D01*
X129175767Y-84966154D01*
X129175762Y-84966151D01*
X128978225Y-84874039D01*
X128978224Y-84874039D01*
X128973243Y-84871716D01*
X128967935Y-84870294D01*
X128967933Y-84870293D01*
X128757402Y-84813881D01*
X128757400Y-84813881D01*
X128752087Y-84812457D01*
X128524000Y-84792502D01*
X128295913Y-84812457D01*
X128290600Y-84813881D01*
X128290598Y-84813881D01*
X128080067Y-84870293D01*
X128080065Y-84870294D01*
X128074757Y-84871716D01*
X128069776Y-84874039D01*
X128069775Y-84874039D01*
X127872238Y-84966151D01*
X127872233Y-84966154D01*
X127867251Y-84968477D01*
X127762389Y-85041902D01*
X127684211Y-85096643D01*
X127684208Y-85096645D01*
X127679700Y-85099802D01*
X127517802Y-85261700D01*
X127386477Y-85449251D01*
X127384154Y-85454233D01*
X127384151Y-85454238D01*
X127368195Y-85488457D01*
X127321278Y-85541742D01*
X127253001Y-85561203D01*
X127185041Y-85540661D01*
X127139805Y-85488457D01*
X127123849Y-85454238D01*
X127123846Y-85454233D01*
X127121523Y-85449251D01*
X126990198Y-85261700D01*
X126828300Y-85099802D01*
X126823792Y-85096645D01*
X126823789Y-85096643D01*
X126745611Y-85041902D01*
X126640749Y-84968477D01*
X126635767Y-84966154D01*
X126635762Y-84966151D01*
X126438225Y-84874039D01*
X126438224Y-84874039D01*
X126433243Y-84871716D01*
X126427935Y-84870294D01*
X126427933Y-84870293D01*
X126217402Y-84813881D01*
X126217400Y-84813881D01*
X126212087Y-84812457D01*
X125984000Y-84792502D01*
X125755913Y-84812457D01*
X125750600Y-84813881D01*
X125750598Y-84813881D01*
X125540067Y-84870293D01*
X125540065Y-84870294D01*
X125534757Y-84871716D01*
X125529776Y-84874039D01*
X125529775Y-84874039D01*
X125332238Y-84966151D01*
X125332233Y-84966154D01*
X125327251Y-84968477D01*
X125222389Y-85041902D01*
X125144211Y-85096643D01*
X125144208Y-85096645D01*
X125139700Y-85099802D01*
X124977802Y-85261700D01*
X124846477Y-85449251D01*
X124844154Y-85454233D01*
X124844151Y-85454238D01*
X124828195Y-85488457D01*
X124781278Y-85541742D01*
X124713001Y-85561203D01*
X124645041Y-85540661D01*
X124599805Y-85488457D01*
X124583849Y-85454238D01*
X124583846Y-85454233D01*
X124581523Y-85449251D01*
X124450198Y-85261700D01*
X124288300Y-85099802D01*
X124283792Y-85096645D01*
X124283789Y-85096643D01*
X124205611Y-85041902D01*
X124100749Y-84968477D01*
X124095767Y-84966154D01*
X124095762Y-84966151D01*
X123898225Y-84874039D01*
X123898224Y-84874039D01*
X123893243Y-84871716D01*
X123887935Y-84870294D01*
X123887933Y-84870293D01*
X123677402Y-84813881D01*
X123677400Y-84813881D01*
X123672087Y-84812457D01*
X123444000Y-84792502D01*
X123215913Y-84812457D01*
X123210600Y-84813881D01*
X123210598Y-84813881D01*
X123000067Y-84870293D01*
X123000065Y-84870294D01*
X122994757Y-84871716D01*
X122989776Y-84874039D01*
X122989775Y-84874039D01*
X122792238Y-84966151D01*
X122792233Y-84966154D01*
X122787251Y-84968477D01*
X122682389Y-85041902D01*
X122604211Y-85096643D01*
X122604208Y-85096645D01*
X122599700Y-85099802D01*
X122437802Y-85261700D01*
X122306477Y-85449251D01*
X122304154Y-85454233D01*
X122304151Y-85454238D01*
X122288195Y-85488457D01*
X122241278Y-85541742D01*
X122173001Y-85561203D01*
X122105041Y-85540661D01*
X122059805Y-85488457D01*
X122043849Y-85454238D01*
X122043846Y-85454233D01*
X122041523Y-85449251D01*
X121910198Y-85261700D01*
X121748300Y-85099802D01*
X121743792Y-85096645D01*
X121743789Y-85096643D01*
X121665611Y-85041902D01*
X121560749Y-84968477D01*
X121555767Y-84966154D01*
X121555762Y-84966151D01*
X121358225Y-84874039D01*
X121358224Y-84874039D01*
X121353243Y-84871716D01*
X121347935Y-84870294D01*
X121347933Y-84870293D01*
X121137402Y-84813881D01*
X121137400Y-84813881D01*
X121132087Y-84812457D01*
X120904000Y-84792502D01*
X120675913Y-84812457D01*
X120670600Y-84813881D01*
X120670598Y-84813881D01*
X120460067Y-84870293D01*
X120460065Y-84870294D01*
X120454757Y-84871716D01*
X120449776Y-84874039D01*
X120449775Y-84874039D01*
X120252238Y-84966151D01*
X120252233Y-84966154D01*
X120247251Y-84968477D01*
X120142389Y-85041902D01*
X120064211Y-85096643D01*
X120064208Y-85096645D01*
X120059700Y-85099802D01*
X119897802Y-85261700D01*
X119766477Y-85449251D01*
X119764154Y-85454233D01*
X119764151Y-85454238D01*
X119748195Y-85488457D01*
X119701278Y-85541742D01*
X119633001Y-85561203D01*
X119565041Y-85540661D01*
X119519805Y-85488457D01*
X119503849Y-85454238D01*
X119503846Y-85454233D01*
X119501523Y-85449251D01*
X119370198Y-85261700D01*
X119208300Y-85099802D01*
X119203792Y-85096645D01*
X119203789Y-85096643D01*
X119125611Y-85041902D01*
X119020749Y-84968477D01*
X119015767Y-84966154D01*
X119015762Y-84966151D01*
X118818225Y-84874039D01*
X118818224Y-84874039D01*
X118813243Y-84871716D01*
X118807935Y-84870294D01*
X118807933Y-84870293D01*
X118597402Y-84813881D01*
X118597400Y-84813881D01*
X118592087Y-84812457D01*
X118364000Y-84792502D01*
X118135913Y-84812457D01*
X118130600Y-84813881D01*
X118130598Y-84813881D01*
X117920067Y-84870293D01*
X117920065Y-84870294D01*
X117914757Y-84871716D01*
X117909776Y-84874039D01*
X117909775Y-84874039D01*
X117712238Y-84966151D01*
X117712233Y-84966154D01*
X117707251Y-84968477D01*
X117602389Y-85041902D01*
X117524211Y-85096643D01*
X117524208Y-85096645D01*
X117519700Y-85099802D01*
X117357802Y-85261700D01*
X117226477Y-85449251D01*
X117224154Y-85454233D01*
X117224151Y-85454238D01*
X117208195Y-85488457D01*
X117161278Y-85541742D01*
X117093001Y-85561203D01*
X117025041Y-85540661D01*
X116979805Y-85488457D01*
X116963849Y-85454238D01*
X116963846Y-85454233D01*
X116961523Y-85449251D01*
X116830198Y-85261700D01*
X116668300Y-85099802D01*
X116663792Y-85096645D01*
X116663789Y-85096643D01*
X116585611Y-85041902D01*
X116480749Y-84968477D01*
X116475767Y-84966154D01*
X116475762Y-84966151D01*
X116278225Y-84874039D01*
X116278224Y-84874039D01*
X116273243Y-84871716D01*
X116267935Y-84870294D01*
X116267933Y-84870293D01*
X116057402Y-84813881D01*
X116057400Y-84813881D01*
X116052087Y-84812457D01*
X115890328Y-84798305D01*
X115824210Y-84772442D01*
X115782571Y-84714938D01*
X115778630Y-84644051D01*
X115812215Y-84583689D01*
X116759270Y-83636635D01*
X117750500Y-82645405D01*
X117812812Y-82611379D01*
X117839595Y-82608500D01*
X117895487Y-82608500D01*
X117901939Y-82607128D01*
X117901944Y-82607128D01*
X117995521Y-82587237D01*
X118082288Y-82568794D01*
X118189510Y-82521056D01*
X118250722Y-82493803D01*
X118250724Y-82493802D01*
X118256752Y-82491118D01*
X118273616Y-82478866D01*
X118354567Y-82420051D01*
X118411253Y-82378866D01*
X118539040Y-82236944D01*
X118634527Y-82071556D01*
X118693542Y-81889928D01*
X118694592Y-81879943D01*
X118712814Y-81706565D01*
X118713504Y-81700000D01*
X118704052Y-81610072D01*
X118694232Y-81516635D01*
X118694232Y-81516633D01*
X118693542Y-81510072D01*
X118634527Y-81328444D01*
X118539040Y-81163056D01*
X118513028Y-81134166D01*
X118415675Y-81026045D01*
X118415674Y-81026044D01*
X118411253Y-81021134D01*
X118256752Y-80908882D01*
X118250724Y-80906198D01*
X118250722Y-80906197D01*
X118088319Y-80833891D01*
X118088318Y-80833891D01*
X118082288Y-80831206D01*
X117988888Y-80811353D01*
X117901944Y-80792872D01*
X117901939Y-80792872D01*
X117895487Y-80791500D01*
X117704513Y-80791500D01*
X117698061Y-80792872D01*
X117698056Y-80792872D01*
X117611112Y-80811353D01*
X117517712Y-80831206D01*
X117511682Y-80833891D01*
X117511681Y-80833891D01*
X117349278Y-80906197D01*
X117349276Y-80906198D01*
X117343248Y-80908882D01*
X117188747Y-81021134D01*
X117184326Y-81026044D01*
X117184325Y-81026045D01*
X117086973Y-81134166D01*
X117060960Y-81163056D01*
X116965473Y-81328444D01*
X116906458Y-81510072D01*
X116890911Y-81657999D01*
X116889093Y-81675293D01*
X116862080Y-81740950D01*
X116852878Y-81751218D01*
X115432382Y-83171713D01*
X114016258Y-84587837D01*
X114007972Y-84595377D01*
X114001493Y-84599489D01*
X113996068Y-84605266D01*
X113954868Y-84649140D01*
X113952113Y-84651982D01*
X113932376Y-84671719D01*
X113929896Y-84674916D01*
X113922193Y-84683936D01*
X113891925Y-84716168D01*
X113888106Y-84723114D01*
X113888104Y-84723117D01*
X113882163Y-84733923D01*
X113871312Y-84750442D01*
X113858897Y-84766448D01*
X113855752Y-84773716D01*
X113855750Y-84773719D01*
X113848216Y-84791131D01*
X113802806Y-84845707D01*
X113735099Y-84867068D01*
X113699970Y-84862801D01*
X113512087Y-84812457D01*
X113284000Y-84792502D01*
X113055913Y-84812457D01*
X113050600Y-84813881D01*
X113050598Y-84813881D01*
X112840067Y-84870293D01*
X112840065Y-84870294D01*
X112834757Y-84871716D01*
X112829776Y-84874039D01*
X112829775Y-84874039D01*
X112792988Y-84891193D01*
X112693987Y-84937358D01*
X112681261Y-84943292D01*
X112611069Y-84953953D01*
X112546256Y-84924973D01*
X112507400Y-84865553D01*
X112502011Y-84829097D01*
X112502011Y-83546083D01*
X112522013Y-83477962D01*
X112538916Y-83456988D01*
X113250499Y-82745405D01*
X113312811Y-82711379D01*
X113339594Y-82708500D01*
X113395487Y-82708500D01*
X113401939Y-82707128D01*
X113401944Y-82707128D01*
X113488888Y-82688647D01*
X113582288Y-82668794D01*
X113711245Y-82611379D01*
X113750722Y-82593803D01*
X113750724Y-82593802D01*
X113756752Y-82591118D01*
X113911253Y-82478866D01*
X113992928Y-82388157D01*
X114034621Y-82341852D01*
X114034622Y-82341851D01*
X114039040Y-82336944D01*
X114134527Y-82171556D01*
X114193542Y-81989928D01*
X114203393Y-81896206D01*
X114212814Y-81806565D01*
X114213504Y-81800000D01*
X114210497Y-81771389D01*
X114194232Y-81616635D01*
X114194232Y-81616633D01*
X114193542Y-81610072D01*
X114134527Y-81428444D01*
X114039040Y-81263056D01*
X113911253Y-81121134D01*
X113780375Y-81026045D01*
X113762094Y-81012763D01*
X113762093Y-81012762D01*
X113756752Y-81008882D01*
X113750724Y-81006198D01*
X113750722Y-81006197D01*
X113588319Y-80933891D01*
X113588318Y-80933891D01*
X113582288Y-80931206D01*
X113488888Y-80911353D01*
X113401944Y-80892872D01*
X113401939Y-80892872D01*
X113395487Y-80891500D01*
X113204513Y-80891500D01*
X113198061Y-80892872D01*
X113198056Y-80892872D01*
X113111112Y-80911353D01*
X113017712Y-80931206D01*
X113011682Y-80933891D01*
X113011681Y-80933891D01*
X112849278Y-81006197D01*
X112849276Y-81006198D01*
X112843248Y-81008882D01*
X112837907Y-81012762D01*
X112837906Y-81012763D01*
X112819625Y-81026045D01*
X112688747Y-81121134D01*
X112560960Y-81263056D01*
X112465473Y-81428444D01*
X112406458Y-81610072D01*
X112405768Y-81616633D01*
X112405768Y-81616635D01*
X112389093Y-81775292D01*
X112362080Y-81840949D01*
X112352878Y-81851217D01*
X111476258Y-82727837D01*
X111467972Y-82735377D01*
X111461493Y-82739489D01*
X111456068Y-82745266D01*
X111414868Y-82789140D01*
X111412113Y-82791982D01*
X111392376Y-82811719D01*
X111389896Y-82814916D01*
X111382193Y-82823936D01*
X111351925Y-82856168D01*
X111348106Y-82863114D01*
X111348104Y-82863117D01*
X111342163Y-82873923D01*
X111331312Y-82890442D01*
X111318897Y-82906448D01*
X111315752Y-82913717D01*
X111315749Y-82913721D01*
X111301337Y-82947026D01*
X111296120Y-82957676D01*
X111274816Y-82996429D01*
X111272845Y-83004104D01*
X111272845Y-83004105D01*
X111269778Y-83016051D01*
X111263374Y-83034755D01*
X111255330Y-83053344D01*
X111254091Y-83061167D01*
X111254088Y-83061177D01*
X111248412Y-83097013D01*
X111246006Y-83108633D01*
X111235011Y-83151459D01*
X111235011Y-83171713D01*
X111233460Y-83191423D01*
X111230291Y-83211432D01*
X111231037Y-83219324D01*
X111234452Y-83255450D01*
X111235011Y-83267308D01*
X111235011Y-84718701D01*
X111215009Y-84786822D01*
X111161353Y-84833315D01*
X111091079Y-84843419D01*
X111076407Y-84840410D01*
X110972087Y-84812457D01*
X110744000Y-84792502D01*
X110515913Y-84812457D01*
X110510600Y-84813881D01*
X110510598Y-84813881D01*
X110294757Y-84871716D01*
X110294271Y-84869903D01*
X110231738Y-84873876D01*
X110169699Y-84839356D01*
X110136170Y-84776775D01*
X110133500Y-84750972D01*
X110133500Y-82214594D01*
X110153502Y-82146473D01*
X110170405Y-82125499D01*
X111550499Y-80745405D01*
X111612811Y-80711379D01*
X111639594Y-80708500D01*
X111695487Y-80708500D01*
X111701939Y-80707128D01*
X111701944Y-80707128D01*
X111788888Y-80688647D01*
X111882288Y-80668794D01*
X111944088Y-80641279D01*
X112050722Y-80593803D01*
X112050724Y-80593802D01*
X112056752Y-80591118D01*
X112211253Y-80478866D01*
X112339040Y-80336944D01*
X112381154Y-80264000D01*
X131166496Y-80264000D01*
X131186458Y-80453928D01*
X131245473Y-80635556D01*
X131340960Y-80800944D01*
X131345378Y-80805851D01*
X131345379Y-80805852D01*
X131427452Y-80897003D01*
X131468747Y-80942866D01*
X131623248Y-81055118D01*
X131629276Y-81057802D01*
X131629278Y-81057803D01*
X131771523Y-81121134D01*
X131797712Y-81132794D01*
X131891112Y-81152647D01*
X131978056Y-81171128D01*
X131978061Y-81171128D01*
X131984513Y-81172500D01*
X132175487Y-81172500D01*
X132181939Y-81171128D01*
X132181944Y-81171128D01*
X132268888Y-81152647D01*
X132362288Y-81132794D01*
X132388477Y-81121134D01*
X132530722Y-81057803D01*
X132530724Y-81057802D01*
X132536752Y-81055118D01*
X132576768Y-81026045D01*
X132669671Y-80958546D01*
X132691253Y-80942866D01*
X132695668Y-80937963D01*
X132700580Y-80933540D01*
X132701705Y-80934789D01*
X132755014Y-80901949D01*
X132788200Y-80897500D01*
X135811233Y-80897500D01*
X135822416Y-80898027D01*
X135829909Y-80899702D01*
X135837835Y-80899453D01*
X135837836Y-80899453D01*
X135897986Y-80897562D01*
X135901945Y-80897500D01*
X135929856Y-80897500D01*
X135933791Y-80897003D01*
X135933856Y-80896995D01*
X135945693Y-80896062D01*
X135977951Y-80895048D01*
X135981970Y-80894922D01*
X135989889Y-80894673D01*
X136009343Y-80889021D01*
X136028700Y-80885013D01*
X136040930Y-80883468D01*
X136040931Y-80883468D01*
X136048797Y-80882474D01*
X136056168Y-80879555D01*
X136056170Y-80879555D01*
X136089912Y-80866196D01*
X136101142Y-80862351D01*
X136135983Y-80852229D01*
X136135984Y-80852229D01*
X136143593Y-80850018D01*
X136150412Y-80845985D01*
X136150417Y-80845983D01*
X136161028Y-80839707D01*
X136178776Y-80831012D01*
X136197617Y-80823552D01*
X136233387Y-80797564D01*
X136243307Y-80791048D01*
X136274535Y-80772580D01*
X136274538Y-80772578D01*
X136281362Y-80768542D01*
X136295683Y-80754221D01*
X136310717Y-80741380D01*
X136320694Y-80734131D01*
X136327107Y-80729472D01*
X136355298Y-80695395D01*
X136363288Y-80686616D01*
X137110499Y-79939405D01*
X137172811Y-79905379D01*
X137199594Y-79902500D01*
X137255487Y-79902500D01*
X137261939Y-79901128D01*
X137261944Y-79901128D01*
X137359576Y-79880375D01*
X137442288Y-79862794D01*
X137448319Y-79860109D01*
X137610722Y-79787803D01*
X137610724Y-79787802D01*
X137616752Y-79785118D01*
X137630277Y-79775292D01*
X137703422Y-79722148D01*
X137771253Y-79672866D01*
X137802232Y-79638460D01*
X137894621Y-79535852D01*
X137894622Y-79535851D01*
X137899040Y-79530944D01*
X137994527Y-79365556D01*
X138053542Y-79183928D01*
X138073504Y-78994000D01*
X138053542Y-78804072D01*
X137994527Y-78622444D01*
X137899040Y-78457056D01*
X137771253Y-78315134D01*
X137616752Y-78202882D01*
X137610724Y-78200198D01*
X137610722Y-78200197D01*
X137448319Y-78127891D01*
X137448318Y-78127891D01*
X137442288Y-78125206D01*
X137348887Y-78105353D01*
X137261944Y-78086872D01*
X137261939Y-78086872D01*
X137255487Y-78085500D01*
X137064513Y-78085500D01*
X137058061Y-78086872D01*
X137058056Y-78086872D01*
X136971113Y-78105353D01*
X136877712Y-78125206D01*
X136871682Y-78127891D01*
X136871681Y-78127891D01*
X136709278Y-78200197D01*
X136709276Y-78200198D01*
X136703248Y-78202882D01*
X136548747Y-78315134D01*
X136420960Y-78457056D01*
X136325473Y-78622444D01*
X136266458Y-78804072D01*
X136265768Y-78810633D01*
X136265768Y-78810635D01*
X136249093Y-78969292D01*
X136222080Y-79034949D01*
X136212878Y-79045217D01*
X135664500Y-79593595D01*
X135602188Y-79627621D01*
X135575405Y-79630500D01*
X132788200Y-79630500D01*
X132720079Y-79610498D01*
X132700853Y-79594157D01*
X132700580Y-79594460D01*
X132695668Y-79590037D01*
X132691253Y-79585134D01*
X132669671Y-79569454D01*
X132542094Y-79476763D01*
X132542093Y-79476762D01*
X132536752Y-79472882D01*
X132530724Y-79470198D01*
X132530722Y-79470197D01*
X132368319Y-79397891D01*
X132368318Y-79397891D01*
X132362288Y-79395206D01*
X132249721Y-79371279D01*
X132181944Y-79356872D01*
X132181939Y-79356872D01*
X132175487Y-79355500D01*
X131984513Y-79355500D01*
X131978061Y-79356872D01*
X131978056Y-79356872D01*
X131910279Y-79371279D01*
X131797712Y-79395206D01*
X131791682Y-79397891D01*
X131791681Y-79397891D01*
X131629278Y-79470197D01*
X131629276Y-79470198D01*
X131623248Y-79472882D01*
X131468747Y-79585134D01*
X131464326Y-79590044D01*
X131464325Y-79590045D01*
X131386257Y-79676749D01*
X131340960Y-79727056D01*
X131245473Y-79892444D01*
X131186458Y-80074072D01*
X131166496Y-80264000D01*
X112381154Y-80264000D01*
X112434527Y-80171556D01*
X112493542Y-79989928D01*
X112495271Y-79973483D01*
X112512814Y-79806565D01*
X112513504Y-79800000D01*
X112498129Y-79653715D01*
X112494232Y-79616635D01*
X112494232Y-79616633D01*
X112493542Y-79610072D01*
X112485114Y-79584134D01*
X119149000Y-79584134D01*
X119155755Y-79646316D01*
X119206885Y-79782705D01*
X119294239Y-79899261D01*
X119410795Y-79986615D01*
X119547184Y-80037745D01*
X119609366Y-80044500D01*
X121805634Y-80044500D01*
X121867816Y-80037745D01*
X122004205Y-79986615D01*
X122120761Y-79899261D01*
X122193930Y-79801633D01*
X122250788Y-79759118D01*
X122321607Y-79754092D01*
X122360590Y-79769766D01*
X122533772Y-79875893D01*
X122542567Y-79880375D01*
X122759990Y-79970434D01*
X122769375Y-79973483D01*
X122998208Y-80028422D01*
X123007955Y-80029965D01*
X123242570Y-80048430D01*
X123252430Y-80048430D01*
X123487045Y-80029965D01*
X123496792Y-80028422D01*
X123725625Y-79973483D01*
X123735010Y-79970434D01*
X123952433Y-79880375D01*
X123961228Y-79875893D01*
X124142305Y-79764928D01*
X124151767Y-79754470D01*
X124147984Y-79745694D01*
X122977385Y-78575095D01*
X122943359Y-78512783D01*
X122945194Y-78487132D01*
X123611908Y-78487132D01*
X123612039Y-78488965D01*
X123616290Y-78495580D01*
X124509895Y-79389185D01*
X124521310Y-79402549D01*
X124522748Y-79404896D01*
X124682067Y-79591433D01*
X124685823Y-79594641D01*
X124862682Y-79745694D01*
X124868604Y-79750752D01*
X124872827Y-79753340D01*
X124872830Y-79753342D01*
X124929066Y-79787803D01*
X125077768Y-79878927D01*
X125222467Y-79938864D01*
X125299835Y-79970911D01*
X125299837Y-79970912D01*
X125304408Y-79972805D01*
X125339497Y-79981229D01*
X125538130Y-80028917D01*
X125538136Y-80028918D01*
X125542943Y-80030072D01*
X125787500Y-80049319D01*
X126032057Y-80030072D01*
X126036864Y-80028918D01*
X126036870Y-80028917D01*
X126235503Y-79981229D01*
X126270592Y-79972805D01*
X126275163Y-79970912D01*
X126275165Y-79970911D01*
X126352533Y-79938864D01*
X126497232Y-79878927D01*
X126645934Y-79787803D01*
X126702170Y-79753342D01*
X126702173Y-79753340D01*
X126706396Y-79750752D01*
X126712319Y-79745694D01*
X126889177Y-79594641D01*
X126892933Y-79591433D01*
X127052252Y-79404896D01*
X127072853Y-79371279D01*
X127139171Y-79263056D01*
X127180427Y-79195732D01*
X127258936Y-79006197D01*
X127272411Y-78973665D01*
X127272412Y-78973663D01*
X127274305Y-78969092D01*
X127331572Y-78730557D01*
X127350819Y-78486000D01*
X127331572Y-78241443D01*
X127322315Y-78202882D01*
X127275460Y-78007720D01*
X127274305Y-78002908D01*
X127180427Y-77776268D01*
X127052252Y-77567104D01*
X126892933Y-77380567D01*
X126820011Y-77318285D01*
X126710163Y-77224465D01*
X126710160Y-77224463D01*
X126706396Y-77221248D01*
X126702173Y-77218660D01*
X126702170Y-77218658D01*
X126623365Y-77170367D01*
X126497232Y-77093073D01*
X126352533Y-77033136D01*
X126275165Y-77001089D01*
X126275163Y-77001088D01*
X126270592Y-76999195D01*
X126187937Y-76979351D01*
X126036870Y-76943083D01*
X126036864Y-76943082D01*
X126032057Y-76941928D01*
X125787500Y-76922681D01*
X125542943Y-76941928D01*
X125538136Y-76943082D01*
X125538130Y-76943083D01*
X125387063Y-76979351D01*
X125304408Y-76999195D01*
X125299837Y-77001088D01*
X125299835Y-77001089D01*
X125222467Y-77033136D01*
X125077768Y-77093073D01*
X124951635Y-77170367D01*
X124872830Y-77218658D01*
X124872827Y-77218660D01*
X124868604Y-77221248D01*
X124864840Y-77224463D01*
X124864837Y-77224465D01*
X124754989Y-77318285D01*
X124682067Y-77380567D01*
X124522748Y-77567104D01*
X124521310Y-77569451D01*
X124509895Y-77582815D01*
X123619522Y-78473188D01*
X123611908Y-78487132D01*
X122945194Y-78487132D01*
X122948424Y-78441968D01*
X122977385Y-78396905D01*
X124144940Y-77229350D01*
X124151700Y-77216970D01*
X124145973Y-77209320D01*
X123961228Y-77096107D01*
X123952433Y-77091625D01*
X123735010Y-77001566D01*
X123725625Y-76998517D01*
X123496792Y-76943578D01*
X123487045Y-76942035D01*
X123252430Y-76923570D01*
X123242570Y-76923570D01*
X123007955Y-76942035D01*
X122998208Y-76943578D01*
X122769375Y-76998517D01*
X122759990Y-77001566D01*
X122542567Y-77091625D01*
X122533772Y-77096107D01*
X122360590Y-77202234D01*
X122292057Y-77220773D01*
X122224380Y-77199317D01*
X122193929Y-77170367D01*
X122137939Y-77095659D01*
X122120761Y-77072739D01*
X122004205Y-76985385D01*
X121867816Y-76934255D01*
X121805634Y-76927500D01*
X119609366Y-76927500D01*
X119547184Y-76934255D01*
X119410795Y-76985385D01*
X119294239Y-77072739D01*
X119206885Y-77189295D01*
X119155755Y-77325684D01*
X119149000Y-77387866D01*
X119149000Y-79584134D01*
X112485114Y-79584134D01*
X112434527Y-79428444D01*
X112423107Y-79408663D01*
X112342341Y-79268774D01*
X112339040Y-79263056D01*
X112211253Y-79121134D01*
X112056752Y-79008882D01*
X112050724Y-79006198D01*
X112050722Y-79006197D01*
X111888319Y-78933891D01*
X111888318Y-78933891D01*
X111882288Y-78931206D01*
X111788888Y-78911353D01*
X111701944Y-78892872D01*
X111701939Y-78892872D01*
X111695487Y-78891500D01*
X111504513Y-78891500D01*
X111498061Y-78892872D01*
X111498056Y-78892872D01*
X111411112Y-78911353D01*
X111317712Y-78931206D01*
X111311682Y-78933891D01*
X111311681Y-78933891D01*
X111149278Y-79006197D01*
X111149276Y-79006198D01*
X111143248Y-79008882D01*
X110988747Y-79121134D01*
X110860960Y-79263056D01*
X110857659Y-79268774D01*
X110776894Y-79408663D01*
X110765473Y-79428444D01*
X110706458Y-79610072D01*
X110705768Y-79616633D01*
X110705768Y-79616635D01*
X110701871Y-79653715D01*
X110689198Y-79774297D01*
X110689093Y-79775292D01*
X110662080Y-79840949D01*
X110652878Y-79851217D01*
X109107747Y-81396348D01*
X109099461Y-81403888D01*
X109092982Y-81408000D01*
X109087557Y-81413777D01*
X109046357Y-81457651D01*
X109043602Y-81460493D01*
X109023865Y-81480230D01*
X109021385Y-81483427D01*
X109013682Y-81492447D01*
X108983414Y-81524679D01*
X108979595Y-81531625D01*
X108979593Y-81531628D01*
X108973652Y-81542434D01*
X108962801Y-81558953D01*
X108950386Y-81574959D01*
X108947241Y-81582228D01*
X108947238Y-81582232D01*
X108932826Y-81615537D01*
X108927609Y-81626187D01*
X108906305Y-81664940D01*
X108904334Y-81672615D01*
X108904334Y-81672616D01*
X108901267Y-81684562D01*
X108894863Y-81703266D01*
X108893436Y-81706565D01*
X108886819Y-81721855D01*
X108885580Y-81729678D01*
X108885577Y-81729688D01*
X108879901Y-81765524D01*
X108877495Y-81777144D01*
X108866500Y-81819970D01*
X108866500Y-81840224D01*
X108864949Y-81859934D01*
X108861780Y-81879943D01*
X108862526Y-81887835D01*
X108865941Y-81923961D01*
X108866500Y-81935819D01*
X108866500Y-84773379D01*
X108846498Y-84841500D01*
X108792842Y-84887993D01*
X108722568Y-84898097D01*
X108687249Y-84887573D01*
X108658230Y-84874041D01*
X108658225Y-84874039D01*
X108653243Y-84871716D01*
X108647935Y-84870294D01*
X108647933Y-84870293D01*
X108437402Y-84813881D01*
X108437400Y-84813881D01*
X108432087Y-84812457D01*
X108204000Y-84792502D01*
X107975913Y-84812457D01*
X107970600Y-84813881D01*
X107970598Y-84813881D01*
X107760067Y-84870293D01*
X107760065Y-84870294D01*
X107754757Y-84871716D01*
X107749776Y-84874039D01*
X107749775Y-84874039D01*
X107552238Y-84966151D01*
X107552233Y-84966154D01*
X107547251Y-84968477D01*
X107442389Y-85041902D01*
X107364211Y-85096643D01*
X107364208Y-85096645D01*
X107359700Y-85099802D01*
X107197802Y-85261700D01*
X107066477Y-85449251D01*
X107064154Y-85454233D01*
X107064151Y-85454238D01*
X107064034Y-85454489D01*
X106969716Y-85656757D01*
X106910457Y-85877913D01*
X106890502Y-86106000D01*
X106910457Y-86334087D01*
X106969716Y-86555243D01*
X106972039Y-86560224D01*
X106972039Y-86560225D01*
X107064151Y-86757762D01*
X107064154Y-86757767D01*
X107066477Y-86762749D01*
X107197802Y-86950300D01*
X107359700Y-87112198D01*
X107364208Y-87115355D01*
X107364211Y-87115357D01*
X107405542Y-87144297D01*
X107547251Y-87243523D01*
X107552233Y-87245846D01*
X107552238Y-87245849D01*
X107748765Y-87337490D01*
X107754757Y-87340284D01*
X107760065Y-87341706D01*
X107760067Y-87341707D01*
X107970598Y-87398119D01*
X107970600Y-87398119D01*
X107975913Y-87399543D01*
X108204000Y-87419498D01*
X108432087Y-87399543D01*
X108437400Y-87398119D01*
X108437402Y-87398119D01*
X108647933Y-87341707D01*
X108647935Y-87341706D01*
X108653243Y-87340284D01*
X108658225Y-87337961D01*
X108658230Y-87337959D01*
X108687249Y-87324427D01*
X108757441Y-87313765D01*
X108822254Y-87342744D01*
X108861110Y-87402164D01*
X108866500Y-87438621D01*
X108866500Y-87721233D01*
X108865973Y-87732416D01*
X108864298Y-87739909D01*
X108864547Y-87747835D01*
X108864547Y-87747836D01*
X108866438Y-87807986D01*
X108866500Y-87811945D01*
X108866500Y-87839856D01*
X108866997Y-87843790D01*
X108866997Y-87843791D01*
X108867005Y-87843856D01*
X108867938Y-87855693D01*
X108869327Y-87899889D01*
X108874978Y-87919339D01*
X108878987Y-87938700D01*
X108881526Y-87958797D01*
X108884445Y-87966168D01*
X108884445Y-87966170D01*
X108897804Y-87999912D01*
X108901649Y-88011142D01*
X108902623Y-88014494D01*
X108913982Y-88053593D01*
X108918015Y-88060412D01*
X108918017Y-88060417D01*
X108924293Y-88071028D01*
X108932988Y-88088776D01*
X108940448Y-88107617D01*
X108945110Y-88114033D01*
X108945110Y-88114034D01*
X108966436Y-88143387D01*
X108972952Y-88153307D01*
X108989453Y-88181208D01*
X108995458Y-88191362D01*
X109009779Y-88205683D01*
X109022619Y-88220716D01*
X109034528Y-88237107D01*
X109048683Y-88248817D01*
X109068605Y-88265298D01*
X109077384Y-88273288D01*
X110692095Y-89887999D01*
X110726121Y-89950311D01*
X110729000Y-89977094D01*
X110729000Y-91533033D01*
X110708998Y-91601154D01*
X110655342Y-91647647D01*
X110638152Y-91654030D01*
X110519014Y-91688642D01*
X110519009Y-91688644D01*
X110511399Y-91690855D01*
X110504572Y-91694892D01*
X110504573Y-91694892D01*
X110375020Y-91771509D01*
X110375017Y-91771511D01*
X110368193Y-91775547D01*
X110250547Y-91893193D01*
X110246511Y-91900017D01*
X110246509Y-91900020D01*
X110182893Y-92007589D01*
X110165855Y-92036399D01*
X110119438Y-92196169D01*
X110116500Y-92233498D01*
X110116500Y-92666502D01*
X110119438Y-92703831D01*
X110121232Y-92710007D01*
X110121233Y-92710011D01*
X110139213Y-92771899D01*
X110139010Y-92842895D01*
X110100456Y-92902511D01*
X110035791Y-92931819D01*
X109978549Y-92926644D01*
X109911389Y-92904368D01*
X109911387Y-92904368D01*
X109904861Y-92902203D01*
X109898025Y-92901503D01*
X109898022Y-92901502D01*
X109854969Y-92897091D01*
X109800400Y-92891500D01*
X108999600Y-92891500D01*
X108996354Y-92891837D01*
X108996350Y-92891837D01*
X108900692Y-92901762D01*
X108900688Y-92901763D01*
X108893834Y-92902474D01*
X108887298Y-92904655D01*
X108887296Y-92904655D01*
X108770559Y-92943602D01*
X108726054Y-92958450D01*
X108575652Y-93051522D01*
X108570479Y-93056704D01*
X108489216Y-93138109D01*
X108426934Y-93172188D01*
X108356114Y-93167185D01*
X108311025Y-93138264D01*
X108228483Y-93055866D01*
X108223303Y-93050695D01*
X108120875Y-92987557D01*
X108093384Y-92970611D01*
X108045890Y-92917838D01*
X108033500Y-92863351D01*
X108033500Y-92014594D01*
X108053502Y-91946473D01*
X108070405Y-91925499D01*
X108850499Y-91145405D01*
X108912811Y-91111379D01*
X108939594Y-91108500D01*
X108995487Y-91108500D01*
X109001939Y-91107128D01*
X109001944Y-91107128D01*
X109088887Y-91088647D01*
X109182288Y-91068794D01*
X109188319Y-91066109D01*
X109350722Y-90993803D01*
X109350724Y-90993802D01*
X109356752Y-90991118D01*
X109511253Y-90878866D01*
X109639040Y-90736944D01*
X109713197Y-90608500D01*
X109731223Y-90577279D01*
X109731224Y-90577278D01*
X109734527Y-90571556D01*
X109793542Y-90389928D01*
X109802317Y-90306444D01*
X109812814Y-90206565D01*
X109813504Y-90200000D01*
X109799344Y-90065271D01*
X109794232Y-90016635D01*
X109794232Y-90016633D01*
X109793542Y-90010072D01*
X109734527Y-89828444D01*
X109717345Y-89798683D01*
X109680702Y-89735216D01*
X109639040Y-89663056D01*
X109630648Y-89653735D01*
X109515675Y-89526045D01*
X109515674Y-89526044D01*
X109511253Y-89521134D01*
X109407144Y-89445494D01*
X109362094Y-89412763D01*
X109362093Y-89412762D01*
X109356752Y-89408882D01*
X109350724Y-89406198D01*
X109350722Y-89406197D01*
X109188319Y-89333891D01*
X109188318Y-89333891D01*
X109182288Y-89331206D01*
X109078763Y-89309201D01*
X109001944Y-89292872D01*
X109001939Y-89292872D01*
X108995487Y-89291500D01*
X108804513Y-89291500D01*
X108798061Y-89292872D01*
X108798056Y-89292872D01*
X108721237Y-89309201D01*
X108617712Y-89331206D01*
X108611682Y-89333891D01*
X108611681Y-89333891D01*
X108449278Y-89406197D01*
X108449276Y-89406198D01*
X108443248Y-89408882D01*
X108437907Y-89412762D01*
X108437906Y-89412763D01*
X108392856Y-89445494D01*
X108288747Y-89521134D01*
X108284326Y-89526044D01*
X108284325Y-89526045D01*
X108169353Y-89653735D01*
X108160960Y-89663056D01*
X108119298Y-89735216D01*
X108082656Y-89798683D01*
X108065473Y-89828444D01*
X108006458Y-90010072D01*
X108005768Y-90016633D01*
X108005768Y-90016635D01*
X107989093Y-90175292D01*
X107962080Y-90240949D01*
X107952878Y-90251217D01*
X107007747Y-91196348D01*
X106999461Y-91203888D01*
X106992982Y-91208000D01*
X106987557Y-91213777D01*
X106946357Y-91257651D01*
X106943602Y-91260493D01*
X106923865Y-91280230D01*
X106921385Y-91283427D01*
X106913682Y-91292447D01*
X106883414Y-91324679D01*
X106879595Y-91331625D01*
X106879593Y-91331628D01*
X106873652Y-91342434D01*
X106862801Y-91358953D01*
X106850386Y-91374959D01*
X106847241Y-91382228D01*
X106847238Y-91382232D01*
X106832826Y-91415537D01*
X106827609Y-91426187D01*
X106806305Y-91464940D01*
X106804334Y-91472615D01*
X106804334Y-91472616D01*
X106801267Y-91484562D01*
X106794863Y-91503266D01*
X106786819Y-91521855D01*
X106785580Y-91529678D01*
X106785577Y-91529688D01*
X106779901Y-91565524D01*
X106777495Y-91577144D01*
X106772055Y-91598332D01*
X106766500Y-91619970D01*
X106766500Y-91640224D01*
X106764949Y-91659934D01*
X106761780Y-91679943D01*
X106765160Y-91715694D01*
X106765941Y-91723961D01*
X106766500Y-91735819D01*
X106766500Y-92863219D01*
X106746498Y-92931340D01*
X106706803Y-92970363D01*
X106575652Y-93051522D01*
X106450695Y-93176697D01*
X106446855Y-93182927D01*
X106446854Y-93182928D01*
X106400271Y-93258500D01*
X106357885Y-93327262D01*
X106355581Y-93334209D01*
X106307236Y-93479966D01*
X106302203Y-93495139D01*
X106301503Y-93501975D01*
X106301502Y-93501978D01*
X106298994Y-93526459D01*
X106291500Y-93599600D01*
X106291500Y-94600400D01*
X106302474Y-94706166D01*
X106304655Y-94712702D01*
X106304655Y-94712704D01*
X106319096Y-94755988D01*
X106358450Y-94873946D01*
X106451522Y-95024348D01*
X106456704Y-95029521D01*
X106456708Y-95029526D01*
X106488108Y-95060871D01*
X106522188Y-95123153D01*
X106517185Y-95193973D01*
X106488265Y-95239061D01*
X106475443Y-95251906D01*
X106450695Y-95276697D01*
X106446855Y-95282927D01*
X106446854Y-95282928D01*
X106383313Y-95386011D01*
X106357885Y-95427262D01*
X106355581Y-95434209D01*
X106306313Y-95582749D01*
X106302203Y-95595139D01*
X106291500Y-95699600D01*
X106291500Y-96700400D01*
X106291837Y-96703646D01*
X106291837Y-96703650D01*
X106299818Y-96780565D01*
X106302474Y-96806166D01*
X106304655Y-96812702D01*
X106304655Y-96812704D01*
X106330944Y-96891500D01*
X106358450Y-96973946D01*
X106451522Y-97124348D01*
X106576697Y-97249305D01*
X106582927Y-97253145D01*
X106582928Y-97253146D01*
X106684656Y-97315852D01*
X106727262Y-97342115D01*
X106771621Y-97356828D01*
X106888611Y-97395632D01*
X106888613Y-97395632D01*
X106895139Y-97397797D01*
X106901975Y-97398497D01*
X106901978Y-97398498D01*
X106945031Y-97402909D01*
X106999600Y-97408500D01*
X107660406Y-97408500D01*
X107728527Y-97428502D01*
X107749501Y-97445405D01*
X110073595Y-99769499D01*
X110107621Y-99831811D01*
X110110500Y-99858594D01*
X110110500Y-100126606D01*
X110090498Y-100194727D01*
X110056771Y-100229819D01*
X109904211Y-100336643D01*
X109904208Y-100336645D01*
X109899700Y-100339802D01*
X109737802Y-100501700D01*
X109606477Y-100689251D01*
X109604154Y-100694233D01*
X109604151Y-100694238D01*
X109588195Y-100728457D01*
X109541278Y-100781742D01*
X109473001Y-100801203D01*
X109405041Y-100780661D01*
X109359805Y-100728457D01*
X109343849Y-100694238D01*
X109343846Y-100694233D01*
X109341523Y-100689251D01*
X109210198Y-100501700D01*
X109048300Y-100339802D01*
X109043792Y-100336645D01*
X109043789Y-100336643D01*
X108891228Y-100229819D01*
X108860749Y-100208477D01*
X108855767Y-100206154D01*
X108855762Y-100206151D01*
X108658225Y-100114039D01*
X108658224Y-100114039D01*
X108653243Y-100111716D01*
X108647935Y-100110294D01*
X108647933Y-100110293D01*
X108437402Y-100053881D01*
X108437400Y-100053881D01*
X108432087Y-100052457D01*
X108204000Y-100032502D01*
X107975913Y-100052457D01*
X107970600Y-100053881D01*
X107970598Y-100053881D01*
X107760067Y-100110293D01*
X107760065Y-100110294D01*
X107754757Y-100111716D01*
X107749776Y-100114039D01*
X107749775Y-100114039D01*
X107552238Y-100206151D01*
X107552233Y-100206154D01*
X107547251Y-100208477D01*
X107516772Y-100229819D01*
X107364211Y-100336643D01*
X107364208Y-100336645D01*
X107359700Y-100339802D01*
X107197802Y-100501700D01*
X107066477Y-100689251D01*
X107064154Y-100694233D01*
X107064151Y-100694238D01*
X107064034Y-100694489D01*
X106969716Y-100896757D01*
X106910457Y-101117913D01*
X106890502Y-101346000D01*
X106910457Y-101574087D01*
X106911881Y-101579400D01*
X106911881Y-101579402D01*
X106914350Y-101588614D01*
X106969716Y-101795243D01*
X106972039Y-101800224D01*
X106972039Y-101800225D01*
X107064151Y-101997762D01*
X107064154Y-101997767D01*
X107066477Y-102002749D01*
X107069634Y-102007257D01*
X107179197Y-102163729D01*
X107201885Y-102231003D01*
X107184600Y-102299863D01*
X107132831Y-102348448D01*
X107075984Y-102362000D01*
X102234000Y-102362000D01*
X102165879Y-102341998D01*
X102119386Y-102288342D01*
X102108000Y-102236000D01*
X102108000Y-75056000D01*
X102128002Y-74987879D01*
X102181658Y-74941386D01*
X102234000Y-74930000D01*
X147194000Y-74930000D01*
X147262121Y-74950002D01*
G37*
%TD.AperFunction*%
%TD*%
M02*
