%TF.GenerationSoftware,KiCad,Pcbnew,6.0.2+dfsg-1*%
%TF.CreationDate,2023-02-05T14:32:18-05:00*%
%TF.ProjectId,lin-master,6c696e2d-6d61-4737-9465-722e6b696361,1.0*%
%TF.SameCoordinates,Original*%
%TF.FileFunction,Copper,L1,Top*%
%TF.FilePolarity,Positive*%
%FSLAX46Y46*%
G04 Gerber Fmt 4.6, Leading zero omitted, Abs format (unit mm)*
G04 Created by KiCad (PCBNEW 6.0.2+dfsg-1) date 2023-02-05 14:32:18*
%MOMM*%
%LPD*%
G01*
G04 APERTURE LIST*
G04 Aperture macros list*
%AMRoundRect*
0 Rectangle with rounded corners*
0 $1 Rounding radius*
0 $2 $3 $4 $5 $6 $7 $8 $9 X,Y pos of 4 corners*
0 Add a 4 corners polygon primitive as box body*
4,1,4,$2,$3,$4,$5,$6,$7,$8,$9,$2,$3,0*
0 Add four circle primitives for the rounded corners*
1,1,$1+$1,$2,$3*
1,1,$1+$1,$4,$5*
1,1,$1+$1,$6,$7*
1,1,$1+$1,$8,$9*
0 Add four rect primitives between the rounded corners*
20,1,$1+$1,$2,$3,$4,$5,0*
20,1,$1+$1,$4,$5,$6,$7,0*
20,1,$1+$1,$6,$7,$8,$9,0*
20,1,$1+$1,$8,$9,$2,$3,0*%
G04 Aperture macros list end*
%TA.AperFunction,SMDPad,CuDef*%
%ADD10RoundRect,0.250000X0.450000X-0.350000X0.450000X0.350000X-0.450000X0.350000X-0.450000X-0.350000X0*%
%TD*%
%TA.AperFunction,SMDPad,CuDef*%
%ADD11R,0.599440X1.348740*%
%TD*%
%TA.AperFunction,SMDPad,CuDef*%
%ADD12R,1.198880X1.998980*%
%TD*%
%TA.AperFunction,ComponentPad*%
%ADD13R,2.100000X2.100000*%
%TD*%
%TA.AperFunction,ComponentPad*%
%ADD14C,2.100000*%
%TD*%
%TA.AperFunction,SMDPad,CuDef*%
%ADD15RoundRect,0.250000X-0.475000X0.337500X-0.475000X-0.337500X0.475000X-0.337500X0.475000X0.337500X0*%
%TD*%
%TA.AperFunction,SMDPad,CuDef*%
%ADD16RoundRect,0.250000X0.350000X0.450000X-0.350000X0.450000X-0.350000X-0.450000X0.350000X-0.450000X0*%
%TD*%
%TA.AperFunction,SMDPad,CuDef*%
%ADD17RoundRect,0.150000X0.150000X-0.825000X0.150000X0.825000X-0.150000X0.825000X-0.150000X-0.825000X0*%
%TD*%
%TA.AperFunction,ComponentPad*%
%ADD18R,1.600000X1.600000*%
%TD*%
%TA.AperFunction,ComponentPad*%
%ADD19O,1.600000X1.600000*%
%TD*%
%TA.AperFunction,SMDPad,CuDef*%
%ADD20R,0.900000X1.200000*%
%TD*%
%TA.AperFunction,ViaPad*%
%ADD21C,0.800000*%
%TD*%
%TA.AperFunction,Conductor*%
%ADD22C,0.250000*%
%TD*%
G04 APERTURE END LIST*
D10*
%TO.P,R10,2*%
%TO.N,A2*%
X115700000Y-88900000D03*
%TO.P,R10,1*%
%TO.N,+5V*%
X115700000Y-90900000D03*
%TD*%
%TO.P,R9,1*%
%TO.N,+5V*%
X118400000Y-90900000D03*
%TO.P,R9,2*%
%TO.N,A1*%
X118400000Y-88900000D03*
%TD*%
%TO.P,R8,1*%
%TO.N,+5V*%
X121000000Y-90900000D03*
%TO.P,R8,2*%
%TO.N,A0*%
X121000000Y-88900000D03*
%TD*%
D11*
%TO.P,J2,1,GND*%
%TO.N,GND*%
X115803680Y-79618840D03*
%TO.P,J2,2,VCC*%
%TO.N,+3V3*%
X114802920Y-79618840D03*
%TO.P,J2,3,SDA*%
%TO.N,SDA3V*%
X113807240Y-79618840D03*
%TO.P,J2,4,SCL*%
%TO.N,SCL3V*%
X112806480Y-79618840D03*
D12*
%TO.P,J2,NC1*%
%TO.N,N/C*%
X111506000Y-75946000D03*
%TO.P,J2,NC2*%
X117104160Y-75946000D03*
%TD*%
D13*
%TO.P,J1,1,Pin_1*%
%TO.N,+12V*%
X120707500Y-78486000D03*
D14*
%TO.P,J1,2,Pin_2*%
%TO.N,GND*%
X123247500Y-78486000D03*
%TO.P,J1,3,Pin_3*%
%TO.N,LIN*%
X125787500Y-78486000D03*
%TD*%
D15*
%TO.P,C1,1*%
%TO.N,LIN*%
X130302000Y-78486000D03*
%TO.P,C1,2*%
%TO.N,GND*%
X130302000Y-80561000D03*
%TD*%
D16*
%TO.P,R7,1*%
%TO.N,Net-(D1-Pad1)*%
X134366000Y-78486000D03*
%TO.P,R7,2*%
%TO.N,LIN*%
X132366000Y-78486000D03*
%TD*%
D17*
%TO.P,U2,1,RXD*%
%TO.N,RXD*%
X140081000Y-80961000D03*
%TO.P,U2,2,~{SLP}*%
%TO.N,~{LIN_SLP}*%
X141351000Y-80961000D03*
%TO.P,U2,3,~{WAKE}*%
%TO.N,~{LIN_WAKE}*%
X142621000Y-80961000D03*
%TO.P,U2,4,TXD*%
%TO.N,TXD*%
X143891000Y-80961000D03*
%TO.P,U2,5,GND*%
%TO.N,GND*%
X143891000Y-76011000D03*
%TO.P,U2,6,LIN*%
%TO.N,LIN*%
X142621000Y-76011000D03*
%TO.P,U2,7,VBAT*%
%TO.N,+12V*%
X141351000Y-76011000D03*
%TO.P,U2,8,INH*%
%TO.N,Net-(D1-Pad2)*%
X140081000Y-76011000D03*
%TD*%
D18*
%TO.P,U1,1,D1/TX*%
%TO.N,TXD*%
X143764000Y-86106000D03*
D19*
%TO.P,U1,2,D0/RX*%
%TO.N,RXD*%
X141224000Y-86106000D03*
%TO.P,U1,3,~{RESET}*%
%TO.N,unconnected-(U1-Pad3)*%
X138684000Y-86106000D03*
%TO.P,U1,4,GND*%
%TO.N,GND*%
X136144000Y-86106000D03*
%TO.P,U1,5,D2*%
%TO.N,~{LIN_SLP}*%
X133604000Y-86106000D03*
%TO.P,U1,6,D3*%
%TO.N,~{LIN_WAKE}*%
X131064000Y-86106000D03*
%TO.P,U1,7,D4*%
%TO.N,unconnected-(U1-Pad7)*%
X128524000Y-86106000D03*
%TO.P,U1,8,D5*%
%TO.N,unconnected-(U1-Pad8)*%
X125984000Y-86106000D03*
%TO.P,U1,9,D6*%
%TO.N,unconnected-(U1-Pad9)*%
X123444000Y-86106000D03*
%TO.P,U1,10,D7*%
%TO.N,A0*%
X120904000Y-86106000D03*
%TO.P,U1,11,D8*%
%TO.N,A1*%
X118364000Y-86106000D03*
%TO.P,U1,12,D9*%
%TO.N,A2*%
X115824000Y-86106000D03*
%TO.P,U1,13,D10*%
%TO.N,unconnected-(U1-Pad13)*%
X113284000Y-86106000D03*
%TO.P,U1,14,D11*%
%TO.N,unconnected-(U1-Pad14)*%
X110744000Y-86106000D03*
%TO.P,U1,15,D12*%
%TO.N,unconnected-(U1-Pad15)*%
X108204000Y-86106000D03*
%TO.P,U1,16,D13*%
%TO.N,unconnected-(U1-Pad16)*%
X108204000Y-101346000D03*
%TO.P,U1,17,3V3*%
%TO.N,+3V3*%
X110744000Y-101346000D03*
%TO.P,U1,18,AREF*%
%TO.N,unconnected-(U1-Pad18)*%
X113284000Y-101346000D03*
%TO.P,U1,19,A0*%
%TO.N,unconnected-(U1-Pad19)*%
X115824000Y-101346000D03*
%TO.P,U1,20,A1*%
%TO.N,unconnected-(U1-Pad20)*%
X118364000Y-101346000D03*
%TO.P,U1,21,A2*%
%TO.N,unconnected-(U1-Pad21)*%
X120904000Y-101346000D03*
%TO.P,U1,22,A3*%
%TO.N,unconnected-(U1-Pad22)*%
X123444000Y-101346000D03*
%TO.P,U1,23,A4*%
%TO.N,SDA5V*%
X125984000Y-101346000D03*
%TO.P,U1,24,A5*%
%TO.N,SCL5V*%
X128524000Y-101346000D03*
%TO.P,U1,25,A6*%
%TO.N,unconnected-(U1-Pad25)*%
X131064000Y-101346000D03*
%TO.P,U1,26,A7*%
%TO.N,unconnected-(U1-Pad26)*%
X133604000Y-101346000D03*
%TO.P,U1,27,+5V*%
%TO.N,+5V*%
X136144000Y-101346000D03*
%TO.P,U1,28,~{RESET}*%
%TO.N,unconnected-(U1-Pad28)*%
X138684000Y-101346000D03*
%TO.P,U1,29,GND*%
%TO.N,GND*%
X141224000Y-101346000D03*
%TO.P,U1,30,VIN*%
%TO.N,+12V*%
X143764000Y-101346000D03*
%TD*%
D20*
%TO.P,D1,1,K*%
%TO.N,Net-(D1-Pad1)*%
X134620000Y-75946000D03*
%TO.P,D1,2,A*%
%TO.N,Net-(D1-Pad2)*%
X137920000Y-75946000D03*
%TD*%
D21*
%TO.N,+3V3*%
X108900000Y-90200000D03*
X117800000Y-81700000D03*
X113800000Y-88300000D03*
%TO.N,SDA3V*%
X113300000Y-81800000D03*
X114300000Y-94900000D03*
X113800000Y-89700000D03*
%TO.N,SCL3V*%
X111600000Y-79800000D03*
%TO.N,SCL5V*%
X120600000Y-97800000D03*
%TO.N,LIN*%
X137160000Y-78994000D03*
X132080000Y-80264000D03*
%TO.N,GND*%
X116078000Y-78232000D03*
X143764000Y-77978000D03*
X130302000Y-82042000D03*
%TO.N,+5V*%
X131572000Y-96774000D03*
X128778000Y-90678000D03*
%TO.N,~{LIN_SLP}*%
X138176000Y-83820000D03*
X141224000Y-83820000D03*
%TO.N,~{LIN_WAKE}*%
X142748000Y-83058000D03*
X139192000Y-83058000D03*
%TD*%
D22*
%TO.N,+3V3*%
X113800000Y-88300000D02*
X110800000Y-88300000D01*
X110800000Y-88300000D02*
X109000000Y-90100000D01*
X115959710Y-81700000D02*
X117800000Y-81700000D01*
X114802920Y-80543210D02*
X115959710Y-81700000D01*
X114802920Y-79618840D02*
X114802920Y-80543210D01*
%TO.N,SDA3V*%
X113800000Y-89700000D02*
X112600000Y-90900000D01*
X112600000Y-90900000D02*
X112600000Y-93200000D01*
X112600000Y-93200000D02*
X114300000Y-94900000D01*
X113300000Y-81800000D02*
X113807240Y-81292760D01*
X113807240Y-81292760D02*
X113807240Y-79618840D01*
%TO.N,SCL3V*%
X112806480Y-79618840D02*
X111781160Y-79618840D01*
X111781160Y-79618840D02*
X111600000Y-79800000D01*
%TO.N,SCL5V*%
X120600000Y-97800000D02*
X126600000Y-97800000D01*
X128600000Y-99800000D02*
X128524000Y-99876000D01*
X126600000Y-97800000D02*
X128600000Y-99800000D01*
X128524000Y-99876000D02*
X128524000Y-101346000D01*
%TO.N,+5V*%
X121000000Y-90900000D02*
X128556000Y-90900000D01*
X128556000Y-90900000D02*
X128778000Y-90678000D01*
X118400000Y-90900000D02*
X121000000Y-90900000D01*
X115700000Y-90900000D02*
X118400000Y-90900000D01*
%TO.N,A2*%
X115824000Y-86106000D02*
X115824000Y-88776000D01*
X115824000Y-88776000D02*
X115700000Y-88900000D01*
%TO.N,A1*%
X118364000Y-86106000D02*
X118364000Y-88864000D01*
X118364000Y-88864000D02*
X118400000Y-88900000D01*
%TO.N,A0*%
X120904000Y-86106000D02*
X120904000Y-88804000D01*
X120904000Y-88804000D02*
X121000000Y-88900000D01*
%TO.N,LIN*%
X132080000Y-80264000D02*
X132366000Y-79978000D01*
X137668000Y-78486000D02*
X137160000Y-78994000D01*
X142621000Y-77597000D02*
X141732000Y-78486000D01*
X142621000Y-76011000D02*
X142621000Y-77597000D01*
X132366000Y-79978000D02*
X132366000Y-78486000D01*
X141732000Y-78486000D02*
X137668000Y-78486000D01*
X130302000Y-78486000D02*
X125787500Y-78486000D01*
X132366000Y-78486000D02*
X130302000Y-78486000D01*
%TO.N,GND*%
X115803680Y-78506320D02*
X116078000Y-78232000D01*
X115803680Y-79618840D02*
X115803680Y-78506320D01*
X143891000Y-76011000D02*
X143891000Y-77851000D01*
X143891000Y-77851000D02*
X143764000Y-77978000D01*
X130302000Y-80561000D02*
X130302000Y-82042000D01*
%TO.N,Net-(D1-Pad1)*%
X134620000Y-78232000D02*
X134366000Y-78486000D01*
X134620000Y-75946000D02*
X134620000Y-78232000D01*
%TO.N,Net-(D1-Pad2)*%
X140081000Y-76011000D02*
X137985000Y-76011000D01*
X137985000Y-76011000D02*
X137920000Y-75946000D01*
%TO.N,+5V*%
X131572000Y-96774000D02*
X136144000Y-101346000D01*
X131572000Y-93472000D02*
X128778000Y-90678000D01*
X131572000Y-96774000D02*
X131572000Y-93472000D01*
%TO.N,RXD*%
X141224000Y-86106000D02*
X140081000Y-84963000D01*
X140081000Y-84963000D02*
X140081000Y-80961000D01*
%TO.N,TXD*%
X143891000Y-85979000D02*
X143891000Y-80961000D01*
X143764000Y-86106000D02*
X143891000Y-85979000D01*
%TO.N,~{LIN_SLP}*%
X133604000Y-84074000D02*
X133858000Y-83820000D01*
X133604000Y-86106000D02*
X133604000Y-84074000D01*
X141224000Y-83820000D02*
X141351000Y-83693000D01*
X141351000Y-83693000D02*
X141351000Y-80961000D01*
X133858000Y-83820000D02*
X138176000Y-83820000D01*
%TO.N,~{LIN_WAKE}*%
X131826000Y-83058000D02*
X139192000Y-83058000D01*
X142748000Y-83058000D02*
X142621000Y-82931000D01*
X131572000Y-83312000D02*
X131826000Y-83058000D01*
X131064000Y-86106000D02*
X131064000Y-83820000D01*
X142621000Y-82931000D02*
X142621000Y-80961000D01*
X131064000Y-83820000D02*
X131572000Y-83312000D01*
%TD*%
%TA.AperFunction,Conductor*%
%TO.N,+12V*%
G36*
X110340181Y-74950002D02*
G01*
X110386674Y-75003658D01*
X110398060Y-75056000D01*
X110398060Y-76993624D01*
X110404815Y-77055806D01*
X110455945Y-77192195D01*
X110543299Y-77308751D01*
X110659855Y-77396105D01*
X110796244Y-77447235D01*
X110858426Y-77453990D01*
X112153574Y-77453990D01*
X112215756Y-77447235D01*
X112352145Y-77396105D01*
X112468701Y-77308751D01*
X112556055Y-77192195D01*
X112607185Y-77055806D01*
X112613940Y-76993624D01*
X112613940Y-75056000D01*
X112633942Y-74987879D01*
X112687598Y-74941386D01*
X112739940Y-74930000D01*
X115870220Y-74930000D01*
X115938341Y-74950002D01*
X115984834Y-75003658D01*
X115996220Y-75056000D01*
X115996220Y-76993624D01*
X116002975Y-77055806D01*
X116021952Y-77106427D01*
X116043036Y-77162668D01*
X116048219Y-77233475D01*
X116014298Y-77295844D01*
X115951251Y-77330145D01*
X115795712Y-77363206D01*
X115789682Y-77365891D01*
X115789681Y-77365891D01*
X115627278Y-77438197D01*
X115627276Y-77438198D01*
X115621248Y-77440882D01*
X115615907Y-77444762D01*
X115615906Y-77444763D01*
X115612504Y-77447235D01*
X115466747Y-77553134D01*
X115462326Y-77558044D01*
X115462325Y-77558045D01*
X115393541Y-77634438D01*
X115338960Y-77695056D01*
X115292072Y-77776268D01*
X115247229Y-77853939D01*
X115243473Y-77860444D01*
X115184458Y-78042072D01*
X115183768Y-78048633D01*
X115183768Y-78048635D01*
X115175720Y-78125206D01*
X115164496Y-78232000D01*
X115171307Y-78296801D01*
X115158535Y-78366637D01*
X115110033Y-78418484D01*
X115045997Y-78435970D01*
X114455066Y-78435970D01*
X114451669Y-78436339D01*
X114400734Y-78441872D01*
X114400732Y-78441872D01*
X114392884Y-78442725D01*
X114385489Y-78445497D01*
X114385486Y-78445498D01*
X114349308Y-78459060D01*
X114278501Y-78464243D01*
X114260852Y-78459060D01*
X114224674Y-78445498D01*
X114224671Y-78445497D01*
X114217276Y-78442725D01*
X114209428Y-78441872D01*
X114209426Y-78441872D01*
X114158491Y-78436339D01*
X114155094Y-78435970D01*
X113459386Y-78435970D01*
X113455989Y-78436339D01*
X113405054Y-78441872D01*
X113405052Y-78441872D01*
X113397204Y-78442725D01*
X113351087Y-78460013D01*
X113280283Y-78465196D01*
X113262641Y-78460016D01*
X113216516Y-78442725D01*
X113208668Y-78441872D01*
X113208666Y-78441872D01*
X113157731Y-78436339D01*
X113154334Y-78435970D01*
X112458626Y-78435970D01*
X112396444Y-78442725D01*
X112260055Y-78493855D01*
X112143499Y-78581209D01*
X112056145Y-78697765D01*
X112005015Y-78834154D01*
X112004954Y-78834720D01*
X111971347Y-78893544D01*
X111908392Y-78926364D01*
X111857786Y-78925998D01*
X111701944Y-78892872D01*
X111701939Y-78892872D01*
X111695487Y-78891500D01*
X111504513Y-78891500D01*
X111498061Y-78892872D01*
X111498056Y-78892872D01*
X111413404Y-78910866D01*
X111317712Y-78931206D01*
X111311682Y-78933891D01*
X111311681Y-78933891D01*
X111149278Y-79006197D01*
X111149276Y-79006198D01*
X111143248Y-79008882D01*
X111137907Y-79012762D01*
X111137906Y-79012763D01*
X111112439Y-79031266D01*
X110988747Y-79121134D01*
X110984326Y-79126044D01*
X110984325Y-79126045D01*
X110911826Y-79206564D01*
X110860960Y-79263056D01*
X110857659Y-79268774D01*
X110776894Y-79408663D01*
X110765473Y-79428444D01*
X110706458Y-79610072D01*
X110705768Y-79616633D01*
X110705768Y-79616635D01*
X110693938Y-79729193D01*
X110686496Y-79800000D01*
X110687186Y-79806565D01*
X110701440Y-79942181D01*
X110706458Y-79989928D01*
X110765473Y-80171556D01*
X110860960Y-80336944D01*
X110865378Y-80341851D01*
X110865379Y-80341852D01*
X110927573Y-80410925D01*
X110988747Y-80478866D01*
X111143248Y-80591118D01*
X111149276Y-80593802D01*
X111149278Y-80593803D01*
X111255912Y-80641279D01*
X111317712Y-80668794D01*
X111411112Y-80688647D01*
X111498056Y-80707128D01*
X111498061Y-80707128D01*
X111504513Y-80708500D01*
X111695487Y-80708500D01*
X111701939Y-80707128D01*
X111701944Y-80707128D01*
X111788888Y-80688647D01*
X111882288Y-80668794D01*
X111993690Y-80619195D01*
X112064057Y-80609761D01*
X112128354Y-80639868D01*
X112134034Y-80645207D01*
X112138118Y-80649291D01*
X112143499Y-80656471D01*
X112260055Y-80743825D01*
X112396444Y-80794955D01*
X112458626Y-80801710D01*
X112740608Y-80801710D01*
X112808729Y-80821712D01*
X112855222Y-80875368D01*
X112865326Y-80945642D01*
X112835832Y-81010222D01*
X112814669Y-81029646D01*
X112688747Y-81121134D01*
X112684326Y-81126044D01*
X112684325Y-81126045D01*
X112593004Y-81227468D01*
X112560960Y-81263056D01*
X112515025Y-81342618D01*
X112469557Y-81421371D01*
X112465473Y-81428444D01*
X112406458Y-81610072D01*
X112405768Y-81616633D01*
X112405768Y-81616635D01*
X112404987Y-81624064D01*
X112386496Y-81800000D01*
X112387186Y-81806565D01*
X112396608Y-81896206D01*
X112406458Y-81989928D01*
X112465473Y-82171556D01*
X112560960Y-82336944D01*
X112565378Y-82341851D01*
X112565379Y-82341852D01*
X112667978Y-82455800D01*
X112688747Y-82478866D01*
X112843248Y-82591118D01*
X112849276Y-82593802D01*
X112849278Y-82593803D01*
X113011681Y-82666109D01*
X113017712Y-82668794D01*
X113111112Y-82688647D01*
X113198056Y-82707128D01*
X113198061Y-82707128D01*
X113204513Y-82708500D01*
X113395487Y-82708500D01*
X113401939Y-82707128D01*
X113401944Y-82707128D01*
X113488888Y-82688647D01*
X113582288Y-82668794D01*
X113588319Y-82666109D01*
X113750722Y-82593803D01*
X113750724Y-82593802D01*
X113756752Y-82591118D01*
X113911253Y-82478866D01*
X113932022Y-82455800D01*
X114034621Y-82341852D01*
X114034622Y-82341851D01*
X114039040Y-82336944D01*
X114134527Y-82171556D01*
X114193542Y-81989928D01*
X114210780Y-81825914D01*
X114237793Y-81760258D01*
X114244240Y-81752832D01*
X114260898Y-81735093D01*
X114263653Y-81732251D01*
X114283375Y-81712529D01*
X114285859Y-81709327D01*
X114293557Y-81700315D01*
X114318401Y-81673858D01*
X114323826Y-81668081D01*
X114333587Y-81650326D01*
X114344438Y-81633807D01*
X114356854Y-81617801D01*
X114360985Y-81608254D01*
X114374414Y-81577223D01*
X114379631Y-81566573D01*
X114400935Y-81527820D01*
X114405973Y-81508197D01*
X114412377Y-81489494D01*
X114417273Y-81478180D01*
X114417273Y-81478179D01*
X114420421Y-81470905D01*
X114421660Y-81463082D01*
X114421663Y-81463072D01*
X114427339Y-81427236D01*
X114429745Y-81415616D01*
X114438768Y-81380471D01*
X114438768Y-81380470D01*
X114440740Y-81372790D01*
X114440740Y-81364860D01*
X114440798Y-81364401D01*
X114469179Y-81299324D01*
X114528238Y-81259921D01*
X114599224Y-81258703D01*
X114654900Y-81291095D01*
X115456058Y-82092253D01*
X115463598Y-82100539D01*
X115467710Y-82107018D01*
X115473487Y-82112443D01*
X115517361Y-82153643D01*
X115520203Y-82156398D01*
X115539940Y-82176135D01*
X115543137Y-82178615D01*
X115552157Y-82186318D01*
X115584389Y-82216586D01*
X115591335Y-82220405D01*
X115591338Y-82220407D01*
X115602144Y-82226348D01*
X115618663Y-82237199D01*
X115634669Y-82249614D01*
X115641938Y-82252759D01*
X115641942Y-82252762D01*
X115675247Y-82267174D01*
X115685897Y-82272391D01*
X115724650Y-82293695D01*
X115732325Y-82295666D01*
X115732326Y-82295666D01*
X115744272Y-82298733D01*
X115762976Y-82305137D01*
X115763136Y-82305206D01*
X115781565Y-82313181D01*
X115789388Y-82314420D01*
X115789398Y-82314423D01*
X115825234Y-82320099D01*
X115836854Y-82322505D01*
X115870823Y-82331226D01*
X115879680Y-82333500D01*
X115899934Y-82333500D01*
X115919644Y-82335051D01*
X115939653Y-82338220D01*
X115947545Y-82337474D01*
X115983671Y-82334059D01*
X115995529Y-82333500D01*
X117091800Y-82333500D01*
X117159921Y-82353502D01*
X117179147Y-82369843D01*
X117179420Y-82369540D01*
X117184332Y-82373963D01*
X117188747Y-82378866D01*
X117200233Y-82387211D01*
X117326385Y-82478866D01*
X117343248Y-82491118D01*
X117349276Y-82493802D01*
X117349278Y-82493803D01*
X117495858Y-82559064D01*
X117517712Y-82568794D01*
X117604479Y-82587237D01*
X117698056Y-82607128D01*
X117698061Y-82607128D01*
X117704513Y-82608500D01*
X117895487Y-82608500D01*
X117901939Y-82607128D01*
X117901944Y-82607128D01*
X117995521Y-82587237D01*
X118082288Y-82568794D01*
X118104142Y-82559064D01*
X118250722Y-82493803D01*
X118250724Y-82493802D01*
X118256752Y-82491118D01*
X118273616Y-82478866D01*
X118332967Y-82435744D01*
X118411253Y-82378866D01*
X118447851Y-82338220D01*
X118534621Y-82241852D01*
X118534622Y-82241851D01*
X118539040Y-82236944D01*
X118634527Y-82071556D01*
X118693542Y-81889928D01*
X118697218Y-81854958D01*
X118712814Y-81706565D01*
X118713504Y-81700000D01*
X118710149Y-81668081D01*
X118694232Y-81516635D01*
X118694232Y-81516633D01*
X118693542Y-81510072D01*
X118634527Y-81328444D01*
X118539040Y-81163056D01*
X118513028Y-81134166D01*
X118415675Y-81026045D01*
X118415674Y-81026044D01*
X118411253Y-81021134D01*
X118256752Y-80908882D01*
X118250724Y-80906198D01*
X118250722Y-80906197D01*
X118088319Y-80833891D01*
X118088318Y-80833891D01*
X118082288Y-80831206D01*
X117988888Y-80811353D01*
X117901944Y-80792872D01*
X117901939Y-80792872D01*
X117895487Y-80791500D01*
X117704513Y-80791500D01*
X117698061Y-80792872D01*
X117698056Y-80792872D01*
X117611112Y-80811353D01*
X117517712Y-80831206D01*
X117511682Y-80833891D01*
X117511681Y-80833891D01*
X117349278Y-80906197D01*
X117349276Y-80906198D01*
X117343248Y-80908882D01*
X117337907Y-80912762D01*
X117337906Y-80912763D01*
X117297841Y-80941872D01*
X117188747Y-81021134D01*
X117184332Y-81026037D01*
X117179420Y-81030460D01*
X117178295Y-81029211D01*
X117124986Y-81062051D01*
X117091800Y-81066500D01*
X116274304Y-81066500D01*
X116206183Y-81046498D01*
X116185209Y-81029595D01*
X116159798Y-81004184D01*
X116125772Y-80941872D01*
X116130837Y-80871057D01*
X116173384Y-80814221D01*
X116213836Y-80795276D01*
X116213716Y-80794955D01*
X116350105Y-80743825D01*
X116466661Y-80656471D01*
X116554015Y-80539915D01*
X116605145Y-80403526D01*
X116611900Y-80341344D01*
X116611900Y-79580669D01*
X119149501Y-79580669D01*
X119149871Y-79587490D01*
X119155395Y-79638352D01*
X119159021Y-79653604D01*
X119204176Y-79774054D01*
X119212714Y-79789649D01*
X119289215Y-79891724D01*
X119301776Y-79904285D01*
X119403851Y-79980786D01*
X119419446Y-79989324D01*
X119539894Y-80034478D01*
X119555149Y-80038105D01*
X119606014Y-80043631D01*
X119612828Y-80044000D01*
X120435385Y-80044000D01*
X120450624Y-80039525D01*
X120451829Y-80038135D01*
X120453500Y-80030452D01*
X120453500Y-78758115D01*
X120449025Y-78742876D01*
X120447635Y-78741671D01*
X120439952Y-78740000D01*
X119167616Y-78740000D01*
X119152377Y-78744475D01*
X119151172Y-78745865D01*
X119149501Y-78753548D01*
X119149501Y-79580669D01*
X116611900Y-79580669D01*
X116611900Y-79031266D01*
X116631902Y-78963145D01*
X116663838Y-78929331D01*
X116689253Y-78910866D01*
X116785411Y-78804072D01*
X116812621Y-78773852D01*
X116812622Y-78773851D01*
X116817040Y-78768944D01*
X116912527Y-78603556D01*
X116971542Y-78421928D01*
X116980992Y-78332022D01*
X116990814Y-78238565D01*
X116990814Y-78238564D01*
X116991504Y-78232000D01*
X116989600Y-78213885D01*
X119149500Y-78213885D01*
X119153975Y-78229124D01*
X119155365Y-78230329D01*
X119163048Y-78232000D01*
X120435385Y-78232000D01*
X120450624Y-78227525D01*
X120451829Y-78226135D01*
X120453500Y-78218452D01*
X120453500Y-76946116D01*
X120449025Y-76930877D01*
X120447635Y-76929672D01*
X120439952Y-76928001D01*
X119612831Y-76928001D01*
X119606010Y-76928371D01*
X119555148Y-76933895D01*
X119539896Y-76937521D01*
X119419446Y-76982676D01*
X119403851Y-76991214D01*
X119301776Y-77067715D01*
X119289215Y-77080276D01*
X119212714Y-77182351D01*
X119204176Y-77197946D01*
X119159022Y-77318394D01*
X119155395Y-77333649D01*
X119149869Y-77384514D01*
X119149500Y-77391328D01*
X119149500Y-78213885D01*
X116989600Y-78213885D01*
X116980280Y-78125206D01*
X116972232Y-78048635D01*
X116972232Y-78048633D01*
X116971542Y-78042072D01*
X116912527Y-77860444D01*
X116908772Y-77853939D01*
X116863928Y-77776268D01*
X116817040Y-77695056D01*
X116789346Y-77664298D01*
X116758630Y-77600293D01*
X116767393Y-77529840D01*
X116812856Y-77475308D01*
X116882983Y-77453990D01*
X117751734Y-77453990D01*
X117813916Y-77447235D01*
X117950305Y-77396105D01*
X118066861Y-77308751D01*
X118154215Y-77192195D01*
X118205345Y-77055806D01*
X118212100Y-76993624D01*
X118212100Y-75056000D01*
X118232102Y-74987879D01*
X118285758Y-74941386D01*
X118338100Y-74930000D01*
X133601052Y-74930000D01*
X133669173Y-74950002D01*
X133715666Y-75003658D01*
X133725770Y-75073932D01*
X133719034Y-75100229D01*
X133671029Y-75228282D01*
X133671027Y-75228288D01*
X133668255Y-75235684D01*
X133661500Y-75297866D01*
X133661500Y-76594134D01*
X133668255Y-76656316D01*
X133719385Y-76792705D01*
X133806739Y-76909261D01*
X133923295Y-76996615D01*
X133923951Y-76996861D01*
X133971157Y-77044175D01*
X133986500Y-77104433D01*
X133986500Y-77161729D01*
X133966498Y-77229850D01*
X133912842Y-77276343D01*
X133873506Y-77287055D01*
X133859834Y-77288474D01*
X133853298Y-77290655D01*
X133853296Y-77290655D01*
X133734931Y-77330145D01*
X133692054Y-77344450D01*
X133541652Y-77437522D01*
X133478900Y-77500384D01*
X133455216Y-77524109D01*
X133392934Y-77558188D01*
X133322114Y-77553185D01*
X133277025Y-77524264D01*
X133194483Y-77441866D01*
X133189303Y-77436695D01*
X133183072Y-77432854D01*
X133044968Y-77347725D01*
X133044966Y-77347724D01*
X133038738Y-77343885D01*
X132911165Y-77301571D01*
X132877389Y-77290368D01*
X132877387Y-77290368D01*
X132870861Y-77288203D01*
X132864025Y-77287503D01*
X132864022Y-77287502D01*
X132820969Y-77283091D01*
X132766400Y-77277500D01*
X131965600Y-77277500D01*
X131962354Y-77277837D01*
X131962350Y-77277837D01*
X131866692Y-77287762D01*
X131866688Y-77287763D01*
X131859834Y-77288474D01*
X131853298Y-77290655D01*
X131853296Y-77290655D01*
X131734931Y-77330145D01*
X131692054Y-77344450D01*
X131541652Y-77437522D01*
X131430174Y-77549195D01*
X131429413Y-77549957D01*
X131367131Y-77584036D01*
X131296311Y-77579033D01*
X131262471Y-77557332D01*
X131261229Y-77558904D01*
X131255483Y-77554366D01*
X131250303Y-77549195D01*
X131244072Y-77545354D01*
X131105968Y-77460225D01*
X131105966Y-77460224D01*
X131099738Y-77456385D01*
X130939254Y-77403155D01*
X130938389Y-77402868D01*
X130938387Y-77402868D01*
X130931861Y-77400703D01*
X130925025Y-77400003D01*
X130925022Y-77400002D01*
X130881969Y-77395591D01*
X130827400Y-77390000D01*
X129776600Y-77390000D01*
X129773354Y-77390337D01*
X129773350Y-77390337D01*
X129677692Y-77400262D01*
X129677688Y-77400263D01*
X129670834Y-77400974D01*
X129664298Y-77403155D01*
X129664296Y-77403155D01*
X129550538Y-77441108D01*
X129503054Y-77456950D01*
X129352652Y-77550022D01*
X129227695Y-77675197D01*
X129223855Y-77681427D01*
X129223854Y-77681428D01*
X129218479Y-77690148D01*
X129161988Y-77781794D01*
X129155317Y-77792616D01*
X129102545Y-77840109D01*
X129048057Y-77852500D01*
X127296046Y-77852500D01*
X127227925Y-77832498D01*
X127183779Y-77783703D01*
X127182323Y-77780846D01*
X127180427Y-77776268D01*
X127126358Y-77688035D01*
X127054842Y-77571330D01*
X127054840Y-77571327D01*
X127052252Y-77567104D01*
X127045249Y-77558904D01*
X126896141Y-77384323D01*
X126892933Y-77380567D01*
X126866658Y-77358126D01*
X126710163Y-77224465D01*
X126710160Y-77224463D01*
X126706396Y-77221248D01*
X126702173Y-77218660D01*
X126702170Y-77218658D01*
X126609269Y-77161729D01*
X126497232Y-77093073D01*
X126321568Y-77020310D01*
X126275165Y-77001089D01*
X126275163Y-77001088D01*
X126270592Y-76999195D01*
X126187937Y-76979351D01*
X126036870Y-76943083D01*
X126036864Y-76943082D01*
X126032057Y-76941928D01*
X125787500Y-76922681D01*
X125542943Y-76941928D01*
X125538136Y-76943082D01*
X125538130Y-76943083D01*
X125387063Y-76979351D01*
X125304408Y-76999195D01*
X125299837Y-77001088D01*
X125299835Y-77001089D01*
X125253432Y-77020310D01*
X125077768Y-77093073D01*
X124965731Y-77161729D01*
X124872830Y-77218658D01*
X124872827Y-77218660D01*
X124868604Y-77221248D01*
X124864840Y-77224463D01*
X124864837Y-77224465D01*
X124708342Y-77358126D01*
X124682067Y-77380567D01*
X124678859Y-77384323D01*
X124613311Y-77461069D01*
X124553860Y-77499878D01*
X124482865Y-77500384D01*
X124421689Y-77461069D01*
X124356141Y-77384323D01*
X124352933Y-77380567D01*
X124326658Y-77358126D01*
X124170163Y-77224465D01*
X124170160Y-77224463D01*
X124166396Y-77221248D01*
X124162173Y-77218660D01*
X124162170Y-77218658D01*
X124069269Y-77161729D01*
X123957232Y-77093073D01*
X123781568Y-77020310D01*
X123735165Y-77001089D01*
X123735163Y-77001088D01*
X123730592Y-76999195D01*
X123647937Y-76979351D01*
X123496870Y-76943083D01*
X123496864Y-76943082D01*
X123492057Y-76941928D01*
X123247500Y-76922681D01*
X123002943Y-76941928D01*
X122998136Y-76943082D01*
X122998130Y-76943083D01*
X122847063Y-76979351D01*
X122764408Y-76999195D01*
X122759837Y-77001088D01*
X122759835Y-77001089D01*
X122713432Y-77020310D01*
X122537768Y-77093073D01*
X122392079Y-77182351D01*
X122359859Y-77202095D01*
X122291326Y-77220633D01*
X122223649Y-77199176D01*
X122193198Y-77170227D01*
X122125781Y-77080272D01*
X122113224Y-77067715D01*
X122011149Y-76991214D01*
X121995554Y-76982676D01*
X121875106Y-76937522D01*
X121859851Y-76933895D01*
X121808986Y-76928369D01*
X121802172Y-76928000D01*
X120979615Y-76928000D01*
X120964376Y-76932475D01*
X120963171Y-76933865D01*
X120961500Y-76941548D01*
X120961500Y-80025884D01*
X120965975Y-80041123D01*
X120967365Y-80042328D01*
X120975048Y-80043999D01*
X121802169Y-80043999D01*
X121808990Y-80043629D01*
X121859852Y-80038105D01*
X121875104Y-80034479D01*
X121995554Y-79989324D01*
X122011149Y-79980786D01*
X122113224Y-79904285D01*
X122125781Y-79891728D01*
X122193198Y-79801773D01*
X122250058Y-79759258D01*
X122320876Y-79754232D01*
X122359859Y-79769905D01*
X122537768Y-79878927D01*
X122682467Y-79938864D01*
X122759835Y-79970911D01*
X122759837Y-79970912D01*
X122764408Y-79972805D01*
X122808394Y-79983365D01*
X122998130Y-80028917D01*
X122998136Y-80028918D01*
X123002943Y-80030072D01*
X123247500Y-80049319D01*
X123492057Y-80030072D01*
X123496864Y-80028918D01*
X123496870Y-80028917D01*
X123686606Y-79983365D01*
X123730592Y-79972805D01*
X123735163Y-79970912D01*
X123735165Y-79970911D01*
X123812533Y-79938864D01*
X123957232Y-79878927D01*
X124096743Y-79793435D01*
X124162170Y-79753342D01*
X124162173Y-79753340D01*
X124166396Y-79750752D01*
X124198206Y-79723584D01*
X124349177Y-79594641D01*
X124352933Y-79591433D01*
X124404596Y-79530944D01*
X124421689Y-79510931D01*
X124481140Y-79472122D01*
X124552135Y-79471616D01*
X124613311Y-79510931D01*
X124630404Y-79530944D01*
X124682067Y-79591433D01*
X124685823Y-79594641D01*
X124836795Y-79723584D01*
X124868604Y-79750752D01*
X124872827Y-79753340D01*
X124872830Y-79753342D01*
X124938257Y-79793435D01*
X125077768Y-79878927D01*
X125222467Y-79938864D01*
X125299835Y-79970911D01*
X125299837Y-79970912D01*
X125304408Y-79972805D01*
X125348394Y-79983365D01*
X125538130Y-80028917D01*
X125538136Y-80028918D01*
X125542943Y-80030072D01*
X125787500Y-80049319D01*
X126032057Y-80030072D01*
X126036864Y-80028918D01*
X126036870Y-80028917D01*
X126226606Y-79983365D01*
X126270592Y-79972805D01*
X126275163Y-79970912D01*
X126275165Y-79970911D01*
X126352533Y-79938864D01*
X126497232Y-79878927D01*
X126636743Y-79793435D01*
X126702170Y-79753342D01*
X126702173Y-79753340D01*
X126706396Y-79750752D01*
X126738206Y-79723584D01*
X126889177Y-79594641D01*
X126892933Y-79591433D01*
X126945288Y-79530134D01*
X127049035Y-79408663D01*
X127049037Y-79408660D01*
X127052252Y-79404896D01*
X127072853Y-79371279D01*
X127177838Y-79199957D01*
X127177838Y-79199956D01*
X127180427Y-79195732D01*
X127182323Y-79191154D01*
X127183779Y-79188297D01*
X127232527Y-79136682D01*
X127296046Y-79119500D01*
X129047954Y-79119500D01*
X129116075Y-79139502D01*
X129155098Y-79179197D01*
X129228522Y-79297848D01*
X129233704Y-79303021D01*
X129257800Y-79327075D01*
X129353697Y-79422805D01*
X129357916Y-79425406D01*
X129398417Y-79482530D01*
X129401649Y-79553453D01*
X129366024Y-79614865D01*
X129358470Y-79621422D01*
X129352652Y-79625022D01*
X129227695Y-79750197D01*
X129223855Y-79756427D01*
X129223854Y-79756428D01*
X129140454Y-79891728D01*
X129134885Y-79900762D01*
X129117214Y-79954039D01*
X129087376Y-80043999D01*
X129079203Y-80068639D01*
X129068500Y-80173100D01*
X129068500Y-80948900D01*
X129068837Y-80952146D01*
X129068837Y-80952150D01*
X129078627Y-81046498D01*
X129079474Y-81054666D01*
X129081655Y-81061202D01*
X129081655Y-81061204D01*
X129103288Y-81126045D01*
X129135450Y-81222446D01*
X129228522Y-81372848D01*
X129353697Y-81497805D01*
X129359925Y-81501644D01*
X129359930Y-81501648D01*
X129410893Y-81533062D01*
X129458386Y-81585834D01*
X129469808Y-81655906D01*
X129464609Y-81679257D01*
X129446931Y-81733665D01*
X129408458Y-81852072D01*
X129388496Y-82042000D01*
X129389186Y-82048565D01*
X129406846Y-82216586D01*
X129408458Y-82231928D01*
X129467473Y-82413556D01*
X129470776Y-82419278D01*
X129470777Y-82419279D01*
X129499929Y-82469772D01*
X129562960Y-82578944D01*
X129567378Y-82583851D01*
X129567379Y-82583852D01*
X129686325Y-82715955D01*
X129690747Y-82720866D01*
X129845248Y-82833118D01*
X129851276Y-82835802D01*
X129851278Y-82835803D01*
X129996151Y-82900304D01*
X130019712Y-82910794D01*
X130113112Y-82930647D01*
X130200056Y-82949128D01*
X130200061Y-82949128D01*
X130206513Y-82950500D01*
X130397487Y-82950500D01*
X130403939Y-82949128D01*
X130403944Y-82949128D01*
X130490888Y-82930647D01*
X130584288Y-82910794D01*
X130607849Y-82900304D01*
X130752722Y-82835803D01*
X130752724Y-82835802D01*
X130758752Y-82833118D01*
X130912481Y-82721427D01*
X130918551Y-82719261D01*
X130932780Y-82699179D01*
X131036621Y-82583852D01*
X131036622Y-82583851D01*
X131041040Y-82578944D01*
X131104071Y-82469772D01*
X131133223Y-82419279D01*
X131133224Y-82419278D01*
X131136527Y-82413556D01*
X131195542Y-82231928D01*
X131197155Y-82216586D01*
X131214814Y-82048565D01*
X131215504Y-82042000D01*
X131195542Y-81852072D01*
X131157069Y-81733665D01*
X131139379Y-81679221D01*
X131137351Y-81608254D01*
X131174014Y-81547456D01*
X131192900Y-81533147D01*
X131251348Y-81496978D01*
X131376305Y-81371803D01*
X131420982Y-81299324D01*
X131465275Y-81227468D01*
X131465276Y-81227466D01*
X131469115Y-81221238D01*
X131493172Y-81148708D01*
X131533602Y-81090348D01*
X131599167Y-81063111D01*
X131664014Y-81073268D01*
X131762802Y-81117251D01*
X131797712Y-81132794D01*
X131891112Y-81152647D01*
X131978056Y-81171128D01*
X131978061Y-81171128D01*
X131984513Y-81172500D01*
X132175487Y-81172500D01*
X132181939Y-81171128D01*
X132181944Y-81171128D01*
X132268888Y-81152647D01*
X132362288Y-81132794D01*
X132388477Y-81121134D01*
X132530722Y-81057803D01*
X132530724Y-81057802D01*
X132536752Y-81055118D01*
X132546814Y-81047808D01*
X132628549Y-80988423D01*
X132691253Y-80942866D01*
X132731614Y-80898041D01*
X132814621Y-80805852D01*
X132814622Y-80805851D01*
X132819040Y-80800944D01*
X132914527Y-80635556D01*
X132973542Y-80453928D01*
X132978840Y-80403526D01*
X132992814Y-80270565D01*
X132993504Y-80264000D01*
X132984289Y-80176317D01*
X132982711Y-80161306D01*
X132983573Y-80128422D01*
X132986099Y-80112476D01*
X132988505Y-80100857D01*
X132997528Y-80065711D01*
X132997528Y-80065710D01*
X132999500Y-80058030D01*
X132999500Y-80037776D01*
X133001051Y-80018065D01*
X133002980Y-80005886D01*
X133004220Y-79998057D01*
X133003395Y-79989324D01*
X133000059Y-79954039D01*
X132999500Y-79942181D01*
X132999500Y-79722781D01*
X133019502Y-79654660D01*
X133059197Y-79615637D01*
X133115705Y-79580669D01*
X133190348Y-79534478D01*
X133276784Y-79447891D01*
X133339066Y-79413812D01*
X133409886Y-79418815D01*
X133454976Y-79447736D01*
X133542697Y-79535305D01*
X133548927Y-79539145D01*
X133548928Y-79539146D01*
X133686903Y-79624195D01*
X133693262Y-79628115D01*
X133724126Y-79638352D01*
X133854611Y-79681632D01*
X133854613Y-79681632D01*
X133861139Y-79683797D01*
X133867975Y-79684497D01*
X133867978Y-79684498D01*
X133911031Y-79688909D01*
X133965600Y-79694500D01*
X134766400Y-79694500D01*
X134769646Y-79694163D01*
X134769650Y-79694163D01*
X134865308Y-79684238D01*
X134865312Y-79684237D01*
X134872166Y-79683526D01*
X134878702Y-79681345D01*
X134878704Y-79681345D01*
X135025079Y-79632510D01*
X135039946Y-79627550D01*
X135190348Y-79534478D01*
X135315305Y-79409303D01*
X135319146Y-79403072D01*
X135404275Y-79264968D01*
X135404276Y-79264966D01*
X135408115Y-79258738D01*
X135454113Y-79120059D01*
X135461632Y-79097389D01*
X135461632Y-79097387D01*
X135463797Y-79090861D01*
X135468141Y-79048469D01*
X135471460Y-79016073D01*
X135474500Y-78986400D01*
X135474500Y-77985600D01*
X135474070Y-77981458D01*
X135464238Y-77886692D01*
X135464237Y-77886688D01*
X135463526Y-77879834D01*
X135458573Y-77864986D01*
X135409868Y-77719002D01*
X135407550Y-77712054D01*
X135314478Y-77561652D01*
X135309296Y-77556479D01*
X135309292Y-77556474D01*
X135290483Y-77537698D01*
X135256403Y-77475416D01*
X135253500Y-77448525D01*
X135253500Y-77104433D01*
X135273502Y-77036312D01*
X135315678Y-76997000D01*
X135316705Y-76996615D01*
X135433261Y-76909261D01*
X135520615Y-76792705D01*
X135571745Y-76656316D01*
X135578500Y-76594134D01*
X135578500Y-75297866D01*
X135571745Y-75235684D01*
X135568973Y-75228288D01*
X135568971Y-75228282D01*
X135520966Y-75100229D01*
X135515783Y-75029422D01*
X135549704Y-74967053D01*
X135611960Y-74932924D01*
X135638948Y-74930000D01*
X136901052Y-74930000D01*
X136969173Y-74950002D01*
X137015666Y-75003658D01*
X137025770Y-75073932D01*
X137019034Y-75100229D01*
X136971029Y-75228282D01*
X136971027Y-75228288D01*
X136968255Y-75235684D01*
X136961500Y-75297866D01*
X136961500Y-76594134D01*
X136968255Y-76656316D01*
X137019385Y-76792705D01*
X137106739Y-76909261D01*
X137223295Y-76996615D01*
X137359684Y-77047745D01*
X137421866Y-77054500D01*
X138418134Y-77054500D01*
X138480316Y-77047745D01*
X138616705Y-76996615D01*
X138733261Y-76909261D01*
X138820615Y-76792705D01*
X138845520Y-76726271D01*
X138888161Y-76669506D01*
X138954722Y-76644806D01*
X138963502Y-76644500D01*
X139146500Y-76644500D01*
X139214621Y-76664502D01*
X139261114Y-76718158D01*
X139272500Y-76770500D01*
X139272500Y-76902502D01*
X139272693Y-76904950D01*
X139272693Y-76904958D01*
X139274536Y-76928369D01*
X139275438Y-76939831D01*
X139290372Y-76991233D01*
X139316241Y-77080276D01*
X139321855Y-77099601D01*
X139325892Y-77106427D01*
X139402509Y-77235980D01*
X139402511Y-77235983D01*
X139406547Y-77242807D01*
X139524193Y-77360453D01*
X139531016Y-77364488D01*
X139531020Y-77364491D01*
X139596398Y-77403155D01*
X139667399Y-77445145D01*
X139675010Y-77447356D01*
X139675012Y-77447357D01*
X139708032Y-77456950D01*
X139827169Y-77491562D01*
X139833574Y-77492066D01*
X139833579Y-77492067D01*
X139862042Y-77494307D01*
X139862050Y-77494307D01*
X139864498Y-77494500D01*
X140297502Y-77494500D01*
X140299950Y-77494307D01*
X140299958Y-77494307D01*
X140328421Y-77492067D01*
X140328426Y-77492066D01*
X140334831Y-77491562D01*
X140453968Y-77456950D01*
X140486988Y-77447357D01*
X140486990Y-77447356D01*
X140494601Y-77445145D01*
X140637807Y-77360453D01*
X140640747Y-77357513D01*
X140705271Y-77332179D01*
X140774894Y-77346080D01*
X140793640Y-77358129D01*
X140801323Y-77364089D01*
X140930779Y-77440648D01*
X140945210Y-77446893D01*
X141079605Y-77485939D01*
X141093706Y-77485899D01*
X141097000Y-77478630D01*
X141097000Y-75883000D01*
X141117002Y-75814879D01*
X141170658Y-75768386D01*
X141223000Y-75757000D01*
X141479000Y-75757000D01*
X141547121Y-75777002D01*
X141593614Y-75830658D01*
X141605000Y-75883000D01*
X141605000Y-77472878D01*
X141609475Y-77488117D01*
X141627476Y-77503715D01*
X141665860Y-77563441D01*
X141665860Y-77634438D01*
X141634059Y-77688035D01*
X141506499Y-77815595D01*
X141444187Y-77849621D01*
X141417404Y-77852500D01*
X137746763Y-77852500D01*
X137735579Y-77851973D01*
X137728091Y-77850299D01*
X137720168Y-77850548D01*
X137660033Y-77852438D01*
X137656075Y-77852500D01*
X137628144Y-77852500D01*
X137624229Y-77852995D01*
X137624225Y-77852995D01*
X137624167Y-77853003D01*
X137624138Y-77853006D01*
X137612296Y-77853939D01*
X137568110Y-77855327D01*
X137550744Y-77860372D01*
X137548658Y-77860978D01*
X137529306Y-77864986D01*
X137517068Y-77866532D01*
X137517066Y-77866533D01*
X137509203Y-77867526D01*
X137468086Y-77883806D01*
X137456885Y-77887641D01*
X137414406Y-77899982D01*
X137407587Y-77904015D01*
X137407582Y-77904017D01*
X137396971Y-77910293D01*
X137379221Y-77918990D01*
X137360383Y-77926448D01*
X137353967Y-77931109D01*
X137353966Y-77931110D01*
X137324625Y-77952428D01*
X137314701Y-77958947D01*
X137283460Y-77977422D01*
X137283455Y-77977426D01*
X137276637Y-77981458D01*
X137262313Y-77995782D01*
X137247281Y-78008621D01*
X137230893Y-78020528D01*
X137225842Y-78026634D01*
X137214936Y-78039817D01*
X137156102Y-78079554D01*
X137117852Y-78085500D01*
X137064513Y-78085500D01*
X137058061Y-78086872D01*
X137058056Y-78086872D01*
X136971113Y-78105353D01*
X136877712Y-78125206D01*
X136871682Y-78127891D01*
X136871681Y-78127891D01*
X136709278Y-78200197D01*
X136709276Y-78200198D01*
X136703248Y-78202882D01*
X136697907Y-78206762D01*
X136697906Y-78206763D01*
X136663171Y-78232000D01*
X136548747Y-78315134D01*
X136544326Y-78320044D01*
X136544325Y-78320045D01*
X136431369Y-78445496D01*
X136420960Y-78457056D01*
X136325473Y-78622444D01*
X136266458Y-78804072D01*
X136265768Y-78810633D01*
X136265768Y-78810635D01*
X136257269Y-78891500D01*
X136246496Y-78994000D01*
X136247186Y-79000565D01*
X136262624Y-79147446D01*
X136266458Y-79183928D01*
X136325473Y-79365556D01*
X136328776Y-79371278D01*
X136328777Y-79371279D01*
X136344792Y-79399017D01*
X136420960Y-79530944D01*
X136425378Y-79535851D01*
X136425379Y-79535852D01*
X136512410Y-79632510D01*
X136548747Y-79672866D01*
X136703248Y-79785118D01*
X136709276Y-79787802D01*
X136709278Y-79787803D01*
X136871681Y-79860109D01*
X136877712Y-79862794D01*
X136958716Y-79880012D01*
X137058056Y-79901128D01*
X137058061Y-79901128D01*
X137064513Y-79902500D01*
X137255487Y-79902500D01*
X137261939Y-79901128D01*
X137261944Y-79901128D01*
X137361284Y-79880012D01*
X137442288Y-79862794D01*
X137448319Y-79860109D01*
X137610722Y-79787803D01*
X137610724Y-79787802D01*
X137616752Y-79785118D01*
X137771253Y-79672866D01*
X137807590Y-79632510D01*
X137894621Y-79535852D01*
X137894622Y-79535851D01*
X137899040Y-79530944D01*
X137975208Y-79399017D01*
X137991223Y-79371279D01*
X137991224Y-79371278D01*
X137994527Y-79365556D01*
X138046187Y-79206564D01*
X138086261Y-79147958D01*
X138151657Y-79120321D01*
X138166020Y-79119500D01*
X141653233Y-79119500D01*
X141664416Y-79120027D01*
X141671909Y-79121702D01*
X141679835Y-79121453D01*
X141679836Y-79121453D01*
X141739986Y-79119562D01*
X141743945Y-79119500D01*
X141771856Y-79119500D01*
X141775791Y-79119003D01*
X141775856Y-79118995D01*
X141787693Y-79118062D01*
X141819951Y-79117048D01*
X141823970Y-79116922D01*
X141831889Y-79116673D01*
X141851343Y-79111021D01*
X141870700Y-79107013D01*
X141882930Y-79105468D01*
X141882931Y-79105468D01*
X141890797Y-79104474D01*
X141898168Y-79101555D01*
X141898170Y-79101555D01*
X141931912Y-79088196D01*
X141943142Y-79084351D01*
X141977983Y-79074229D01*
X141977984Y-79074229D01*
X141985593Y-79072018D01*
X141992412Y-79067985D01*
X141992417Y-79067983D01*
X142003028Y-79061707D01*
X142020776Y-79053012D01*
X142039617Y-79045552D01*
X142075387Y-79019564D01*
X142085307Y-79013048D01*
X142116535Y-78994580D01*
X142116538Y-78994578D01*
X142123362Y-78990542D01*
X142137683Y-78976221D01*
X142152717Y-78963380D01*
X142169107Y-78951472D01*
X142174158Y-78945367D01*
X142174163Y-78945362D01*
X142197299Y-78917396D01*
X142205287Y-78908618D01*
X142752922Y-78360983D01*
X142815234Y-78326957D01*
X142886049Y-78332022D01*
X142942885Y-78374569D01*
X142951136Y-78387078D01*
X143021658Y-78509226D01*
X143021661Y-78509231D01*
X143024960Y-78514944D01*
X143029378Y-78519851D01*
X143029379Y-78519852D01*
X143116600Y-78616721D01*
X143152747Y-78656866D01*
X143220612Y-78706173D01*
X143269471Y-78741671D01*
X143307248Y-78769118D01*
X143313276Y-78771802D01*
X143313278Y-78771803D01*
X143448257Y-78831899D01*
X143481712Y-78846794D01*
X143575113Y-78866647D01*
X143662056Y-78885128D01*
X143662061Y-78885128D01*
X143668513Y-78886500D01*
X143859487Y-78886500D01*
X143865939Y-78885128D01*
X143865944Y-78885128D01*
X143952887Y-78866647D01*
X144046288Y-78846794D01*
X144079743Y-78831899D01*
X144214722Y-78771803D01*
X144214724Y-78771802D01*
X144220752Y-78769118D01*
X144258530Y-78741671D01*
X144307388Y-78706173D01*
X144375253Y-78656866D01*
X144411400Y-78616721D01*
X144498621Y-78519852D01*
X144498622Y-78519851D01*
X144503040Y-78514944D01*
X144598527Y-78349556D01*
X144657542Y-78167928D01*
X144662177Y-78123834D01*
X144676814Y-77984565D01*
X144677504Y-77978000D01*
X144671302Y-77918994D01*
X144658232Y-77794635D01*
X144658232Y-77794633D01*
X144657542Y-77788072D01*
X144598527Y-77606444D01*
X144541381Y-77507464D01*
X144524500Y-77444465D01*
X144524500Y-77335950D01*
X144544502Y-77267829D01*
X144555059Y-77254729D01*
X144554989Y-77254675D01*
X144559845Y-77248415D01*
X144565453Y-77242807D01*
X144569489Y-77235983D01*
X144569491Y-77235980D01*
X144646108Y-77106427D01*
X144650145Y-77099601D01*
X144655760Y-77080276D01*
X144681628Y-76991233D01*
X144696562Y-76939831D01*
X144697465Y-76928369D01*
X144699307Y-76904958D01*
X144699307Y-76904950D01*
X144699500Y-76902502D01*
X144699500Y-75119498D01*
X144696562Y-75082169D01*
X144695326Y-75077915D01*
X144702688Y-75008033D01*
X144747117Y-74952656D01*
X144819200Y-74930000D01*
X147194000Y-74930000D01*
X147262121Y-74950002D01*
X147308614Y-75003658D01*
X147320000Y-75056000D01*
X147320000Y-102236000D01*
X147299998Y-102304121D01*
X147246342Y-102350614D01*
X147194000Y-102362000D01*
X144891406Y-102362000D01*
X144823285Y-102341998D01*
X144776792Y-102288342D01*
X144766688Y-102218068D01*
X144788193Y-102163729D01*
X144897931Y-102007007D01*
X144903414Y-101997511D01*
X144995490Y-101800053D01*
X144999236Y-101789761D01*
X145045394Y-101617497D01*
X145045058Y-101603401D01*
X145037116Y-101600000D01*
X143636000Y-101600000D01*
X143567879Y-101579998D01*
X143521386Y-101526342D01*
X143510000Y-101474000D01*
X143510000Y-101073885D01*
X144018000Y-101073885D01*
X144022475Y-101089124D01*
X144023865Y-101090329D01*
X144031548Y-101092000D01*
X145031967Y-101092000D01*
X145045498Y-101088027D01*
X145046727Y-101079478D01*
X144999236Y-100902239D01*
X144995490Y-100891947D01*
X144903414Y-100694489D01*
X144897931Y-100684993D01*
X144772972Y-100506533D01*
X144765916Y-100498125D01*
X144611875Y-100344084D01*
X144603467Y-100337028D01*
X144425007Y-100212069D01*
X144415511Y-100206586D01*
X144218053Y-100114510D01*
X144207761Y-100110764D01*
X144035497Y-100064606D01*
X144021401Y-100064942D01*
X144018000Y-100072884D01*
X144018000Y-101073885D01*
X143510000Y-101073885D01*
X143510000Y-100078033D01*
X143506027Y-100064502D01*
X143497478Y-100063273D01*
X143320239Y-100110764D01*
X143309947Y-100114510D01*
X143112489Y-100206586D01*
X143102993Y-100212069D01*
X142924533Y-100337028D01*
X142916125Y-100344084D01*
X142762084Y-100498125D01*
X142755028Y-100506533D01*
X142630069Y-100684993D01*
X142624586Y-100694489D01*
X142608471Y-100729049D01*
X142561554Y-100782334D01*
X142493277Y-100801795D01*
X142425317Y-100781253D01*
X142380081Y-100729049D01*
X142363849Y-100694238D01*
X142363846Y-100694233D01*
X142361523Y-100689251D01*
X142230198Y-100501700D01*
X142068300Y-100339802D01*
X142063792Y-100336645D01*
X142063789Y-100336643D01*
X141911228Y-100229819D01*
X141880749Y-100208477D01*
X141875767Y-100206154D01*
X141875762Y-100206151D01*
X141678225Y-100114039D01*
X141678224Y-100114039D01*
X141673243Y-100111716D01*
X141667935Y-100110294D01*
X141667933Y-100110293D01*
X141457402Y-100053881D01*
X141457400Y-100053881D01*
X141452087Y-100052457D01*
X141224000Y-100032502D01*
X140995913Y-100052457D01*
X140990600Y-100053881D01*
X140990598Y-100053881D01*
X140780067Y-100110293D01*
X140780065Y-100110294D01*
X140774757Y-100111716D01*
X140769776Y-100114039D01*
X140769775Y-100114039D01*
X140572238Y-100206151D01*
X140572233Y-100206154D01*
X140567251Y-100208477D01*
X140536772Y-100229819D01*
X140384211Y-100336643D01*
X140384208Y-100336645D01*
X140379700Y-100339802D01*
X140217802Y-100501700D01*
X140086477Y-100689251D01*
X140084154Y-100694233D01*
X140084151Y-100694238D01*
X140068195Y-100728457D01*
X140021278Y-100781742D01*
X139953001Y-100801203D01*
X139885041Y-100780661D01*
X139839805Y-100728457D01*
X139823849Y-100694238D01*
X139823846Y-100694233D01*
X139821523Y-100689251D01*
X139690198Y-100501700D01*
X139528300Y-100339802D01*
X139523792Y-100336645D01*
X139523789Y-100336643D01*
X139371228Y-100229819D01*
X139340749Y-100208477D01*
X139335767Y-100206154D01*
X139335762Y-100206151D01*
X139138225Y-100114039D01*
X139138224Y-100114039D01*
X139133243Y-100111716D01*
X139127935Y-100110294D01*
X139127933Y-100110293D01*
X138917402Y-100053881D01*
X138917400Y-100053881D01*
X138912087Y-100052457D01*
X138684000Y-100032502D01*
X138455913Y-100052457D01*
X138450600Y-100053881D01*
X138450598Y-100053881D01*
X138240067Y-100110293D01*
X138240065Y-100110294D01*
X138234757Y-100111716D01*
X138229776Y-100114039D01*
X138229775Y-100114039D01*
X138032238Y-100206151D01*
X138032233Y-100206154D01*
X138027251Y-100208477D01*
X137996772Y-100229819D01*
X137844211Y-100336643D01*
X137844208Y-100336645D01*
X137839700Y-100339802D01*
X137677802Y-100501700D01*
X137546477Y-100689251D01*
X137544154Y-100694233D01*
X137544151Y-100694238D01*
X137528195Y-100728457D01*
X137481278Y-100781742D01*
X137413001Y-100801203D01*
X137345041Y-100780661D01*
X137299805Y-100728457D01*
X137283849Y-100694238D01*
X137283846Y-100694233D01*
X137281523Y-100689251D01*
X137150198Y-100501700D01*
X136988300Y-100339802D01*
X136983792Y-100336645D01*
X136983789Y-100336643D01*
X136831228Y-100229819D01*
X136800749Y-100208477D01*
X136795767Y-100206154D01*
X136795762Y-100206151D01*
X136598225Y-100114039D01*
X136598224Y-100114039D01*
X136593243Y-100111716D01*
X136587935Y-100110294D01*
X136587933Y-100110293D01*
X136377402Y-100053881D01*
X136377400Y-100053881D01*
X136372087Y-100052457D01*
X136144000Y-100032502D01*
X135915913Y-100052457D01*
X135852458Y-100069460D01*
X135781482Y-100067770D01*
X135730753Y-100036848D01*
X132519122Y-96825217D01*
X132485096Y-96762905D01*
X132482907Y-96749292D01*
X132466232Y-96590635D01*
X132466232Y-96590633D01*
X132465542Y-96584072D01*
X132406527Y-96402444D01*
X132311040Y-96237056D01*
X132237863Y-96155785D01*
X132207147Y-96091779D01*
X132205500Y-96071476D01*
X132205500Y-93550768D01*
X132206027Y-93539585D01*
X132207702Y-93532092D01*
X132207135Y-93514034D01*
X132205562Y-93464002D01*
X132205500Y-93460044D01*
X132205500Y-93432144D01*
X132204996Y-93428153D01*
X132204063Y-93416311D01*
X132202923Y-93380036D01*
X132202674Y-93372111D01*
X132200462Y-93364497D01*
X132200461Y-93364492D01*
X132197023Y-93352659D01*
X132193012Y-93333295D01*
X132191467Y-93321064D01*
X132190474Y-93313203D01*
X132187557Y-93305836D01*
X132187556Y-93305831D01*
X132174198Y-93272092D01*
X132170354Y-93260865D01*
X132160230Y-93226022D01*
X132158018Y-93218407D01*
X132147707Y-93200972D01*
X132139012Y-93183224D01*
X132131552Y-93164383D01*
X132105564Y-93128613D01*
X132099048Y-93118693D01*
X132080580Y-93087465D01*
X132080578Y-93087462D01*
X132076542Y-93080638D01*
X132062221Y-93066317D01*
X132049380Y-93051283D01*
X132042131Y-93041306D01*
X132037472Y-93034893D01*
X132003395Y-93006702D01*
X131994616Y-92998712D01*
X129725122Y-90729217D01*
X129691096Y-90666905D01*
X129688907Y-90653292D01*
X129672232Y-90494635D01*
X129672232Y-90494633D01*
X129671542Y-90488072D01*
X129612527Y-90306444D01*
X129517040Y-90141056D01*
X129464702Y-90082928D01*
X129393675Y-90004045D01*
X129393674Y-90004044D01*
X129389253Y-89999134D01*
X129234752Y-89886882D01*
X129228724Y-89884198D01*
X129228722Y-89884197D01*
X129066319Y-89811891D01*
X129066318Y-89811891D01*
X129060288Y-89809206D01*
X128966887Y-89789353D01*
X128879944Y-89770872D01*
X128879939Y-89770872D01*
X128873487Y-89769500D01*
X128682513Y-89769500D01*
X128676061Y-89770872D01*
X128676056Y-89770872D01*
X128589113Y-89789353D01*
X128495712Y-89809206D01*
X128489682Y-89811891D01*
X128489681Y-89811891D01*
X128327278Y-89884197D01*
X128327276Y-89884198D01*
X128321248Y-89886882D01*
X128166747Y-89999134D01*
X128162326Y-90004044D01*
X128162325Y-90004045D01*
X128091299Y-90082928D01*
X128038960Y-90141056D01*
X128028571Y-90159050D01*
X128002908Y-90203500D01*
X127951526Y-90252493D01*
X127893789Y-90266500D01*
X122236781Y-90266500D01*
X122168660Y-90246498D01*
X122129637Y-90206803D01*
X122052332Y-90081880D01*
X122048478Y-90075652D01*
X121961891Y-89989216D01*
X121927812Y-89926934D01*
X121932815Y-89856114D01*
X121961736Y-89811025D01*
X122044134Y-89728483D01*
X122049305Y-89723303D01*
X122142115Y-89572738D01*
X122197797Y-89404861D01*
X122199902Y-89384322D01*
X122204983Y-89334729D01*
X122208500Y-89300400D01*
X122208500Y-88499600D01*
X122201093Y-88428211D01*
X122198238Y-88400692D01*
X122198237Y-88400688D01*
X122197526Y-88393834D01*
X122141550Y-88226054D01*
X122048478Y-88075652D01*
X121923303Y-87950695D01*
X121917072Y-87946854D01*
X121778968Y-87861725D01*
X121778966Y-87861724D01*
X121772738Y-87857885D01*
X121623832Y-87808495D01*
X121565473Y-87768066D01*
X121538236Y-87702502D01*
X121537500Y-87688903D01*
X121537500Y-87325394D01*
X121557502Y-87257273D01*
X121591229Y-87222181D01*
X121743789Y-87115357D01*
X121743792Y-87115355D01*
X121748300Y-87112198D01*
X121910198Y-86950300D01*
X122041523Y-86762749D01*
X122043846Y-86757767D01*
X122043849Y-86757762D01*
X122059805Y-86723543D01*
X122106722Y-86670258D01*
X122174999Y-86650797D01*
X122242959Y-86671339D01*
X122288195Y-86723543D01*
X122304151Y-86757762D01*
X122304154Y-86757767D01*
X122306477Y-86762749D01*
X122437802Y-86950300D01*
X122599700Y-87112198D01*
X122604208Y-87115355D01*
X122604211Y-87115357D01*
X122645542Y-87144297D01*
X122787251Y-87243523D01*
X122792233Y-87245846D01*
X122792238Y-87245849D01*
X122962825Y-87325394D01*
X122994757Y-87340284D01*
X123000065Y-87341706D01*
X123000067Y-87341707D01*
X123210598Y-87398119D01*
X123210600Y-87398119D01*
X123215913Y-87399543D01*
X123444000Y-87419498D01*
X123672087Y-87399543D01*
X123677400Y-87398119D01*
X123677402Y-87398119D01*
X123887933Y-87341707D01*
X123887935Y-87341706D01*
X123893243Y-87340284D01*
X123925175Y-87325394D01*
X124095762Y-87245849D01*
X124095767Y-87245846D01*
X124100749Y-87243523D01*
X124242458Y-87144297D01*
X124283789Y-87115357D01*
X124283792Y-87115355D01*
X124288300Y-87112198D01*
X124450198Y-86950300D01*
X124581523Y-86762749D01*
X124583846Y-86757767D01*
X124583849Y-86757762D01*
X124599805Y-86723543D01*
X124646722Y-86670258D01*
X124714999Y-86650797D01*
X124782959Y-86671339D01*
X124828195Y-86723543D01*
X124844151Y-86757762D01*
X124844154Y-86757767D01*
X124846477Y-86762749D01*
X124977802Y-86950300D01*
X125139700Y-87112198D01*
X125144208Y-87115355D01*
X125144211Y-87115357D01*
X125185542Y-87144297D01*
X125327251Y-87243523D01*
X125332233Y-87245846D01*
X125332238Y-87245849D01*
X125502825Y-87325394D01*
X125534757Y-87340284D01*
X125540065Y-87341706D01*
X125540067Y-87341707D01*
X125750598Y-87398119D01*
X125750600Y-87398119D01*
X125755913Y-87399543D01*
X125984000Y-87419498D01*
X126212087Y-87399543D01*
X126217400Y-87398119D01*
X126217402Y-87398119D01*
X126427933Y-87341707D01*
X126427935Y-87341706D01*
X126433243Y-87340284D01*
X126465175Y-87325394D01*
X126635762Y-87245849D01*
X126635767Y-87245846D01*
X126640749Y-87243523D01*
X126782458Y-87144297D01*
X126823789Y-87115357D01*
X126823792Y-87115355D01*
X126828300Y-87112198D01*
X126990198Y-86950300D01*
X127121523Y-86762749D01*
X127123846Y-86757767D01*
X127123849Y-86757762D01*
X127139805Y-86723543D01*
X127186722Y-86670258D01*
X127254999Y-86650797D01*
X127322959Y-86671339D01*
X127368195Y-86723543D01*
X127384151Y-86757762D01*
X127384154Y-86757767D01*
X127386477Y-86762749D01*
X127517802Y-86950300D01*
X127679700Y-87112198D01*
X127684208Y-87115355D01*
X127684211Y-87115357D01*
X127725542Y-87144297D01*
X127867251Y-87243523D01*
X127872233Y-87245846D01*
X127872238Y-87245849D01*
X128042825Y-87325394D01*
X128074757Y-87340284D01*
X128080065Y-87341706D01*
X128080067Y-87341707D01*
X128290598Y-87398119D01*
X128290600Y-87398119D01*
X128295913Y-87399543D01*
X128524000Y-87419498D01*
X128752087Y-87399543D01*
X128757400Y-87398119D01*
X128757402Y-87398119D01*
X128967933Y-87341707D01*
X128967935Y-87341706D01*
X128973243Y-87340284D01*
X129005175Y-87325394D01*
X129175762Y-87245849D01*
X129175767Y-87245846D01*
X129180749Y-87243523D01*
X129322458Y-87144297D01*
X129363789Y-87115357D01*
X129363792Y-87115355D01*
X129368300Y-87112198D01*
X129530198Y-86950300D01*
X129661523Y-86762749D01*
X129663846Y-86757767D01*
X129663849Y-86757762D01*
X129679805Y-86723543D01*
X129726722Y-86670258D01*
X129794999Y-86650797D01*
X129862959Y-86671339D01*
X129908195Y-86723543D01*
X129924151Y-86757762D01*
X129924154Y-86757767D01*
X129926477Y-86762749D01*
X130057802Y-86950300D01*
X130219700Y-87112198D01*
X130224208Y-87115355D01*
X130224211Y-87115357D01*
X130265542Y-87144297D01*
X130407251Y-87243523D01*
X130412233Y-87245846D01*
X130412238Y-87245849D01*
X130582825Y-87325394D01*
X130614757Y-87340284D01*
X130620065Y-87341706D01*
X130620067Y-87341707D01*
X130830598Y-87398119D01*
X130830600Y-87398119D01*
X130835913Y-87399543D01*
X131064000Y-87419498D01*
X131292087Y-87399543D01*
X131297400Y-87398119D01*
X131297402Y-87398119D01*
X131507933Y-87341707D01*
X131507935Y-87341706D01*
X131513243Y-87340284D01*
X131545175Y-87325394D01*
X131715762Y-87245849D01*
X131715767Y-87245846D01*
X131720749Y-87243523D01*
X131862458Y-87144297D01*
X131903789Y-87115357D01*
X131903792Y-87115355D01*
X131908300Y-87112198D01*
X132070198Y-86950300D01*
X132201523Y-86762749D01*
X132203846Y-86757767D01*
X132203849Y-86757762D01*
X132219805Y-86723543D01*
X132266722Y-86670258D01*
X132334999Y-86650797D01*
X132402959Y-86671339D01*
X132448195Y-86723543D01*
X132464151Y-86757762D01*
X132464154Y-86757767D01*
X132466477Y-86762749D01*
X132597802Y-86950300D01*
X132759700Y-87112198D01*
X132764208Y-87115355D01*
X132764211Y-87115357D01*
X132805542Y-87144297D01*
X132947251Y-87243523D01*
X132952233Y-87245846D01*
X132952238Y-87245849D01*
X133122825Y-87325394D01*
X133154757Y-87340284D01*
X133160065Y-87341706D01*
X133160067Y-87341707D01*
X133370598Y-87398119D01*
X133370600Y-87398119D01*
X133375913Y-87399543D01*
X133604000Y-87419498D01*
X133832087Y-87399543D01*
X133837400Y-87398119D01*
X133837402Y-87398119D01*
X134047933Y-87341707D01*
X134047935Y-87341706D01*
X134053243Y-87340284D01*
X134085175Y-87325394D01*
X134255762Y-87245849D01*
X134255767Y-87245846D01*
X134260749Y-87243523D01*
X134402458Y-87144297D01*
X134443789Y-87115357D01*
X134443792Y-87115355D01*
X134448300Y-87112198D01*
X134610198Y-86950300D01*
X134741523Y-86762749D01*
X134743846Y-86757767D01*
X134743849Y-86757762D01*
X134759805Y-86723543D01*
X134806722Y-86670258D01*
X134874999Y-86650797D01*
X134942959Y-86671339D01*
X134988195Y-86723543D01*
X135004151Y-86757762D01*
X135004154Y-86757767D01*
X135006477Y-86762749D01*
X135137802Y-86950300D01*
X135299700Y-87112198D01*
X135304208Y-87115355D01*
X135304211Y-87115357D01*
X135345542Y-87144297D01*
X135487251Y-87243523D01*
X135492233Y-87245846D01*
X135492238Y-87245849D01*
X135662825Y-87325394D01*
X135694757Y-87340284D01*
X135700065Y-87341706D01*
X135700067Y-87341707D01*
X135910598Y-87398119D01*
X135910600Y-87398119D01*
X135915913Y-87399543D01*
X136144000Y-87419498D01*
X136372087Y-87399543D01*
X136377400Y-87398119D01*
X136377402Y-87398119D01*
X136587933Y-87341707D01*
X136587935Y-87341706D01*
X136593243Y-87340284D01*
X136625175Y-87325394D01*
X136795762Y-87245849D01*
X136795767Y-87245846D01*
X136800749Y-87243523D01*
X136942458Y-87144297D01*
X136983789Y-87115357D01*
X136983792Y-87115355D01*
X136988300Y-87112198D01*
X137150198Y-86950300D01*
X137281523Y-86762749D01*
X137283846Y-86757767D01*
X137283849Y-86757762D01*
X137299805Y-86723543D01*
X137346722Y-86670258D01*
X137414999Y-86650797D01*
X137482959Y-86671339D01*
X137528195Y-86723543D01*
X137544151Y-86757762D01*
X137544154Y-86757767D01*
X137546477Y-86762749D01*
X137677802Y-86950300D01*
X137839700Y-87112198D01*
X137844208Y-87115355D01*
X137844211Y-87115357D01*
X137885542Y-87144297D01*
X138027251Y-87243523D01*
X138032233Y-87245846D01*
X138032238Y-87245849D01*
X138202825Y-87325394D01*
X138234757Y-87340284D01*
X138240065Y-87341706D01*
X138240067Y-87341707D01*
X138450598Y-87398119D01*
X138450600Y-87398119D01*
X138455913Y-87399543D01*
X138684000Y-87419498D01*
X138912087Y-87399543D01*
X138917400Y-87398119D01*
X138917402Y-87398119D01*
X139127933Y-87341707D01*
X139127935Y-87341706D01*
X139133243Y-87340284D01*
X139165175Y-87325394D01*
X139335762Y-87245849D01*
X139335767Y-87245846D01*
X139340749Y-87243523D01*
X139482458Y-87144297D01*
X139523789Y-87115357D01*
X139523792Y-87115355D01*
X139528300Y-87112198D01*
X139690198Y-86950300D01*
X139821523Y-86762749D01*
X139823846Y-86757767D01*
X139823849Y-86757762D01*
X139839805Y-86723543D01*
X139886722Y-86670258D01*
X139954999Y-86650797D01*
X140022959Y-86671339D01*
X140068195Y-86723543D01*
X140084151Y-86757762D01*
X140084154Y-86757767D01*
X140086477Y-86762749D01*
X140217802Y-86950300D01*
X140379700Y-87112198D01*
X140384208Y-87115355D01*
X140384211Y-87115357D01*
X140425542Y-87144297D01*
X140567251Y-87243523D01*
X140572233Y-87245846D01*
X140572238Y-87245849D01*
X140742825Y-87325394D01*
X140774757Y-87340284D01*
X140780065Y-87341706D01*
X140780067Y-87341707D01*
X140990598Y-87398119D01*
X140990600Y-87398119D01*
X140995913Y-87399543D01*
X141224000Y-87419498D01*
X141452087Y-87399543D01*
X141457400Y-87398119D01*
X141457402Y-87398119D01*
X141667933Y-87341707D01*
X141667935Y-87341706D01*
X141673243Y-87340284D01*
X141705175Y-87325394D01*
X141875762Y-87245849D01*
X141875767Y-87245846D01*
X141880749Y-87243523D01*
X142022458Y-87144297D01*
X142063789Y-87115357D01*
X142063792Y-87115355D01*
X142068300Y-87112198D01*
X142230198Y-86950300D01*
X142233357Y-86945789D01*
X142236892Y-86941576D01*
X142238026Y-86942527D01*
X142288071Y-86902529D01*
X142358690Y-86895224D01*
X142422049Y-86927258D01*
X142458030Y-86988462D01*
X142461082Y-87005517D01*
X142462255Y-87016316D01*
X142513385Y-87152705D01*
X142600739Y-87269261D01*
X142717295Y-87356615D01*
X142853684Y-87407745D01*
X142909560Y-87413815D01*
X142911899Y-87414069D01*
X142915866Y-87414500D01*
X144612134Y-87414500D01*
X144616102Y-87414069D01*
X144618440Y-87413815D01*
X144674316Y-87407745D01*
X144810705Y-87356615D01*
X144927261Y-87269261D01*
X145014615Y-87152705D01*
X145065745Y-87016316D01*
X145072500Y-86954134D01*
X145072500Y-85257866D01*
X145065745Y-85195684D01*
X145014615Y-85059295D01*
X144927261Y-84942739D01*
X144810705Y-84855385D01*
X144674316Y-84804255D01*
X144666463Y-84803402D01*
X144666459Y-84803401D01*
X144647222Y-84801312D01*
X144636893Y-84800190D01*
X144571331Y-84772949D01*
X144530904Y-84714587D01*
X144524500Y-84674927D01*
X144524500Y-82285950D01*
X144544502Y-82217829D01*
X144555059Y-82204729D01*
X144554989Y-82204675D01*
X144559845Y-82198415D01*
X144565453Y-82192807D01*
X144569489Y-82185983D01*
X144569491Y-82185980D01*
X144646108Y-82056427D01*
X144650145Y-82049601D01*
X144696562Y-81889831D01*
X144699018Y-81858635D01*
X144699307Y-81854958D01*
X144699307Y-81854950D01*
X144699500Y-81852502D01*
X144699500Y-80069498D01*
X144698919Y-80062111D01*
X144697067Y-80038579D01*
X144697066Y-80038574D01*
X144696562Y-80032169D01*
X144667528Y-79932231D01*
X144652357Y-79880012D01*
X144652356Y-79880010D01*
X144650145Y-79872399D01*
X144589530Y-79769905D01*
X144569491Y-79736020D01*
X144569489Y-79736017D01*
X144565453Y-79729193D01*
X144447807Y-79611547D01*
X144440983Y-79607511D01*
X144440980Y-79607509D01*
X144311427Y-79530892D01*
X144311428Y-79530892D01*
X144304601Y-79526855D01*
X144296990Y-79524644D01*
X144296988Y-79524643D01*
X144244769Y-79509472D01*
X144144831Y-79480438D01*
X144138426Y-79479934D01*
X144138421Y-79479933D01*
X144109958Y-79477693D01*
X144109950Y-79477693D01*
X144107502Y-79477500D01*
X143674498Y-79477500D01*
X143672050Y-79477693D01*
X143672042Y-79477693D01*
X143643579Y-79479933D01*
X143643574Y-79479934D01*
X143637169Y-79480438D01*
X143537231Y-79509472D01*
X143485012Y-79524643D01*
X143485010Y-79524644D01*
X143477399Y-79526855D01*
X143334193Y-79611547D01*
X143331511Y-79614229D01*
X143267139Y-79639502D01*
X143197516Y-79625600D01*
X143181688Y-79615428D01*
X143177807Y-79611547D01*
X143034601Y-79526855D01*
X143026990Y-79524644D01*
X143026988Y-79524643D01*
X142974769Y-79509472D01*
X142874831Y-79480438D01*
X142868426Y-79479934D01*
X142868421Y-79479933D01*
X142839958Y-79477693D01*
X142839950Y-79477693D01*
X142837502Y-79477500D01*
X142404498Y-79477500D01*
X142402050Y-79477693D01*
X142402042Y-79477693D01*
X142373579Y-79479933D01*
X142373574Y-79479934D01*
X142367169Y-79480438D01*
X142267231Y-79509472D01*
X142215012Y-79524643D01*
X142215010Y-79524644D01*
X142207399Y-79526855D01*
X142064193Y-79611547D01*
X142061511Y-79614229D01*
X141997139Y-79639502D01*
X141927516Y-79625600D01*
X141911688Y-79615428D01*
X141907807Y-79611547D01*
X141764601Y-79526855D01*
X141756990Y-79524644D01*
X141756988Y-79524643D01*
X141704769Y-79509472D01*
X141604831Y-79480438D01*
X141598426Y-79479934D01*
X141598421Y-79479933D01*
X141569958Y-79477693D01*
X141569950Y-79477693D01*
X141567502Y-79477500D01*
X141134498Y-79477500D01*
X141132050Y-79477693D01*
X141132042Y-79477693D01*
X141103579Y-79479933D01*
X141103574Y-79479934D01*
X141097169Y-79480438D01*
X140997231Y-79509472D01*
X140945012Y-79524643D01*
X140945010Y-79524644D01*
X140937399Y-79526855D01*
X140794193Y-79611547D01*
X140791511Y-79614229D01*
X140727139Y-79639502D01*
X140657516Y-79625600D01*
X140641688Y-79615428D01*
X140637807Y-79611547D01*
X140494601Y-79526855D01*
X140486990Y-79524644D01*
X140486988Y-79524643D01*
X140434769Y-79509472D01*
X140334831Y-79480438D01*
X140328426Y-79479934D01*
X140328421Y-79479933D01*
X140299958Y-79477693D01*
X140299950Y-79477693D01*
X140297502Y-79477500D01*
X139864498Y-79477500D01*
X139862050Y-79477693D01*
X139862042Y-79477693D01*
X139833579Y-79479933D01*
X139833574Y-79479934D01*
X139827169Y-79480438D01*
X139727231Y-79509472D01*
X139675012Y-79524643D01*
X139675010Y-79524644D01*
X139667399Y-79526855D01*
X139660572Y-79530892D01*
X139660573Y-79530892D01*
X139531020Y-79607509D01*
X139531017Y-79607511D01*
X139524193Y-79611547D01*
X139406547Y-79729193D01*
X139402511Y-79736017D01*
X139402509Y-79736020D01*
X139382470Y-79769905D01*
X139321855Y-79872399D01*
X139319644Y-79880010D01*
X139319643Y-79880012D01*
X139304472Y-79932231D01*
X139275438Y-80032169D01*
X139274934Y-80038574D01*
X139274933Y-80038579D01*
X139273081Y-80062111D01*
X139272500Y-80069498D01*
X139272500Y-81852502D01*
X139272693Y-81854950D01*
X139272693Y-81854958D01*
X139272983Y-81858635D01*
X139275438Y-81889831D01*
X139277232Y-81896007D01*
X139277233Y-81896011D01*
X139304059Y-81988348D01*
X139303856Y-82059344D01*
X139265302Y-82118960D01*
X139200637Y-82148268D01*
X139183062Y-82149500D01*
X139096513Y-82149500D01*
X139090061Y-82150872D01*
X139090056Y-82150872D01*
X139003112Y-82169353D01*
X138909712Y-82189206D01*
X138903682Y-82191891D01*
X138903681Y-82191891D01*
X138741278Y-82264197D01*
X138741276Y-82264198D01*
X138735248Y-82266882D01*
X138729907Y-82270762D01*
X138729906Y-82270763D01*
X138642787Y-82334059D01*
X138580747Y-82379134D01*
X138576332Y-82384037D01*
X138571420Y-82388460D01*
X138570295Y-82387211D01*
X138516986Y-82420051D01*
X138483800Y-82424500D01*
X131904767Y-82424500D01*
X131893584Y-82423973D01*
X131886091Y-82422298D01*
X131878165Y-82422547D01*
X131878164Y-82422547D01*
X131818014Y-82424438D01*
X131814055Y-82424500D01*
X131786144Y-82424500D01*
X131782210Y-82424997D01*
X131782209Y-82424997D01*
X131782144Y-82425005D01*
X131770307Y-82425938D01*
X131738490Y-82426938D01*
X131734029Y-82427078D01*
X131726110Y-82427327D01*
X131708454Y-82432456D01*
X131706658Y-82432978D01*
X131687306Y-82436986D01*
X131680235Y-82437880D01*
X131667203Y-82439526D01*
X131659834Y-82442443D01*
X131659832Y-82442444D01*
X131626097Y-82455800D01*
X131614869Y-82459645D01*
X131572407Y-82471982D01*
X131565585Y-82476016D01*
X131565579Y-82476019D01*
X131554968Y-82482294D01*
X131537218Y-82490990D01*
X131525756Y-82495528D01*
X131525751Y-82495531D01*
X131518383Y-82498448D01*
X131511968Y-82503109D01*
X131482625Y-82524427D01*
X131472707Y-82530943D01*
X131454019Y-82541995D01*
X131434637Y-82553458D01*
X131420313Y-82567782D01*
X131405281Y-82580621D01*
X131388893Y-82592528D01*
X131376815Y-82607128D01*
X131360712Y-82626593D01*
X131352722Y-82635373D01*
X131115511Y-82872584D01*
X131092147Y-82885342D01*
X131086322Y-82900304D01*
X131075637Y-82912458D01*
X130671747Y-83316348D01*
X130663461Y-83323888D01*
X130656982Y-83328000D01*
X130651557Y-83333777D01*
X130610357Y-83377651D01*
X130607602Y-83380493D01*
X130587865Y-83400230D01*
X130585385Y-83403427D01*
X130577682Y-83412447D01*
X130547414Y-83444679D01*
X130543595Y-83451625D01*
X130543593Y-83451628D01*
X130537652Y-83462434D01*
X130526801Y-83478953D01*
X130514386Y-83494959D01*
X130511241Y-83502228D01*
X130511238Y-83502232D01*
X130496826Y-83535537D01*
X130491609Y-83546187D01*
X130470305Y-83584940D01*
X130468334Y-83592615D01*
X130468334Y-83592616D01*
X130465267Y-83604562D01*
X130458863Y-83623266D01*
X130450819Y-83641855D01*
X130449580Y-83649678D01*
X130449577Y-83649688D01*
X130443901Y-83685524D01*
X130441495Y-83697144D01*
X130430500Y-83739970D01*
X130430500Y-83760224D01*
X130428949Y-83779934D01*
X130425780Y-83799943D01*
X130426526Y-83807835D01*
X130429941Y-83843961D01*
X130430500Y-83855819D01*
X130430500Y-84886606D01*
X130410498Y-84954727D01*
X130376771Y-84989819D01*
X130224211Y-85096643D01*
X130224208Y-85096645D01*
X130219700Y-85099802D01*
X130057802Y-85261700D01*
X129926477Y-85449251D01*
X129924154Y-85454233D01*
X129924151Y-85454238D01*
X129908195Y-85488457D01*
X129861278Y-85541742D01*
X129793001Y-85561203D01*
X129725041Y-85540661D01*
X129679805Y-85488457D01*
X129663849Y-85454238D01*
X129663846Y-85454233D01*
X129661523Y-85449251D01*
X129530198Y-85261700D01*
X129368300Y-85099802D01*
X129363792Y-85096645D01*
X129363789Y-85096643D01*
X129211228Y-84989819D01*
X129180749Y-84968477D01*
X129175767Y-84966154D01*
X129175762Y-84966151D01*
X128978225Y-84874039D01*
X128978224Y-84874039D01*
X128973243Y-84871716D01*
X128967935Y-84870294D01*
X128967933Y-84870293D01*
X128757402Y-84813881D01*
X128757400Y-84813881D01*
X128752087Y-84812457D01*
X128524000Y-84792502D01*
X128295913Y-84812457D01*
X128290600Y-84813881D01*
X128290598Y-84813881D01*
X128080067Y-84870293D01*
X128080065Y-84870294D01*
X128074757Y-84871716D01*
X128069776Y-84874039D01*
X128069775Y-84874039D01*
X127872238Y-84966151D01*
X127872233Y-84966154D01*
X127867251Y-84968477D01*
X127836772Y-84989819D01*
X127684211Y-85096643D01*
X127684208Y-85096645D01*
X127679700Y-85099802D01*
X127517802Y-85261700D01*
X127386477Y-85449251D01*
X127384154Y-85454233D01*
X127384151Y-85454238D01*
X127368195Y-85488457D01*
X127321278Y-85541742D01*
X127253001Y-85561203D01*
X127185041Y-85540661D01*
X127139805Y-85488457D01*
X127123849Y-85454238D01*
X127123846Y-85454233D01*
X127121523Y-85449251D01*
X126990198Y-85261700D01*
X126828300Y-85099802D01*
X126823792Y-85096645D01*
X126823789Y-85096643D01*
X126671228Y-84989819D01*
X126640749Y-84968477D01*
X126635767Y-84966154D01*
X126635762Y-84966151D01*
X126438225Y-84874039D01*
X126438224Y-84874039D01*
X126433243Y-84871716D01*
X126427935Y-84870294D01*
X126427933Y-84870293D01*
X126217402Y-84813881D01*
X126217400Y-84813881D01*
X126212087Y-84812457D01*
X125984000Y-84792502D01*
X125755913Y-84812457D01*
X125750600Y-84813881D01*
X125750598Y-84813881D01*
X125540067Y-84870293D01*
X125540065Y-84870294D01*
X125534757Y-84871716D01*
X125529776Y-84874039D01*
X125529775Y-84874039D01*
X125332238Y-84966151D01*
X125332233Y-84966154D01*
X125327251Y-84968477D01*
X125296772Y-84989819D01*
X125144211Y-85096643D01*
X125144208Y-85096645D01*
X125139700Y-85099802D01*
X124977802Y-85261700D01*
X124846477Y-85449251D01*
X124844154Y-85454233D01*
X124844151Y-85454238D01*
X124828195Y-85488457D01*
X124781278Y-85541742D01*
X124713001Y-85561203D01*
X124645041Y-85540661D01*
X124599805Y-85488457D01*
X124583849Y-85454238D01*
X124583846Y-85454233D01*
X124581523Y-85449251D01*
X124450198Y-85261700D01*
X124288300Y-85099802D01*
X124283792Y-85096645D01*
X124283789Y-85096643D01*
X124131228Y-84989819D01*
X124100749Y-84968477D01*
X124095767Y-84966154D01*
X124095762Y-84966151D01*
X123898225Y-84874039D01*
X123898224Y-84874039D01*
X123893243Y-84871716D01*
X123887935Y-84870294D01*
X123887933Y-84870293D01*
X123677402Y-84813881D01*
X123677400Y-84813881D01*
X123672087Y-84812457D01*
X123444000Y-84792502D01*
X123215913Y-84812457D01*
X123210600Y-84813881D01*
X123210598Y-84813881D01*
X123000067Y-84870293D01*
X123000065Y-84870294D01*
X122994757Y-84871716D01*
X122989776Y-84874039D01*
X122989775Y-84874039D01*
X122792238Y-84966151D01*
X122792233Y-84966154D01*
X122787251Y-84968477D01*
X122756772Y-84989819D01*
X122604211Y-85096643D01*
X122604208Y-85096645D01*
X122599700Y-85099802D01*
X122437802Y-85261700D01*
X122306477Y-85449251D01*
X122304154Y-85454233D01*
X122304151Y-85454238D01*
X122288195Y-85488457D01*
X122241278Y-85541742D01*
X122173001Y-85561203D01*
X122105041Y-85540661D01*
X122059805Y-85488457D01*
X122043849Y-85454238D01*
X122043846Y-85454233D01*
X122041523Y-85449251D01*
X121910198Y-85261700D01*
X121748300Y-85099802D01*
X121743792Y-85096645D01*
X121743789Y-85096643D01*
X121591228Y-84989819D01*
X121560749Y-84968477D01*
X121555767Y-84966154D01*
X121555762Y-84966151D01*
X121358225Y-84874039D01*
X121358224Y-84874039D01*
X121353243Y-84871716D01*
X121347935Y-84870294D01*
X121347933Y-84870293D01*
X121137402Y-84813881D01*
X121137400Y-84813881D01*
X121132087Y-84812457D01*
X120904000Y-84792502D01*
X120675913Y-84812457D01*
X120670600Y-84813881D01*
X120670598Y-84813881D01*
X120460067Y-84870293D01*
X120460065Y-84870294D01*
X120454757Y-84871716D01*
X120449776Y-84874039D01*
X120449775Y-84874039D01*
X120252238Y-84966151D01*
X120252233Y-84966154D01*
X120247251Y-84968477D01*
X120216772Y-84989819D01*
X120064211Y-85096643D01*
X120064208Y-85096645D01*
X120059700Y-85099802D01*
X119897802Y-85261700D01*
X119766477Y-85449251D01*
X119764154Y-85454233D01*
X119764151Y-85454238D01*
X119748195Y-85488457D01*
X119701278Y-85541742D01*
X119633001Y-85561203D01*
X119565041Y-85540661D01*
X119519805Y-85488457D01*
X119503849Y-85454238D01*
X119503846Y-85454233D01*
X119501523Y-85449251D01*
X119370198Y-85261700D01*
X119208300Y-85099802D01*
X119203792Y-85096645D01*
X119203789Y-85096643D01*
X119051228Y-84989819D01*
X119020749Y-84968477D01*
X119015767Y-84966154D01*
X119015762Y-84966151D01*
X118818225Y-84874039D01*
X118818224Y-84874039D01*
X118813243Y-84871716D01*
X118807935Y-84870294D01*
X118807933Y-84870293D01*
X118597402Y-84813881D01*
X118597400Y-84813881D01*
X118592087Y-84812457D01*
X118364000Y-84792502D01*
X118135913Y-84812457D01*
X118130600Y-84813881D01*
X118130598Y-84813881D01*
X117920067Y-84870293D01*
X117920065Y-84870294D01*
X117914757Y-84871716D01*
X117909776Y-84874039D01*
X117909775Y-84874039D01*
X117712238Y-84966151D01*
X117712233Y-84966154D01*
X117707251Y-84968477D01*
X117676772Y-84989819D01*
X117524211Y-85096643D01*
X117524208Y-85096645D01*
X117519700Y-85099802D01*
X117357802Y-85261700D01*
X117226477Y-85449251D01*
X117224154Y-85454233D01*
X117224151Y-85454238D01*
X117208195Y-85488457D01*
X117161278Y-85541742D01*
X117093001Y-85561203D01*
X117025041Y-85540661D01*
X116979805Y-85488457D01*
X116963849Y-85454238D01*
X116963846Y-85454233D01*
X116961523Y-85449251D01*
X116830198Y-85261700D01*
X116668300Y-85099802D01*
X116663792Y-85096645D01*
X116663789Y-85096643D01*
X116511228Y-84989819D01*
X116480749Y-84968477D01*
X116475767Y-84966154D01*
X116475762Y-84966151D01*
X116278225Y-84874039D01*
X116278224Y-84874039D01*
X116273243Y-84871716D01*
X116267935Y-84870294D01*
X116267933Y-84870293D01*
X116057402Y-84813881D01*
X116057400Y-84813881D01*
X116052087Y-84812457D01*
X115824000Y-84792502D01*
X115595913Y-84812457D01*
X115590600Y-84813881D01*
X115590598Y-84813881D01*
X115380067Y-84870293D01*
X115380065Y-84870294D01*
X115374757Y-84871716D01*
X115369776Y-84874039D01*
X115369775Y-84874039D01*
X115172238Y-84966151D01*
X115172233Y-84966154D01*
X115167251Y-84968477D01*
X115136772Y-84989819D01*
X114984211Y-85096643D01*
X114984208Y-85096645D01*
X114979700Y-85099802D01*
X114817802Y-85261700D01*
X114686477Y-85449251D01*
X114684154Y-85454233D01*
X114684151Y-85454238D01*
X114668195Y-85488457D01*
X114621278Y-85541742D01*
X114553001Y-85561203D01*
X114485041Y-85540661D01*
X114439805Y-85488457D01*
X114423849Y-85454238D01*
X114423846Y-85454233D01*
X114421523Y-85449251D01*
X114290198Y-85261700D01*
X114128300Y-85099802D01*
X114123792Y-85096645D01*
X114123789Y-85096643D01*
X113971228Y-84989819D01*
X113940749Y-84968477D01*
X113935767Y-84966154D01*
X113935762Y-84966151D01*
X113738225Y-84874039D01*
X113738224Y-84874039D01*
X113733243Y-84871716D01*
X113727935Y-84870294D01*
X113727933Y-84870293D01*
X113517402Y-84813881D01*
X113517400Y-84813881D01*
X113512087Y-84812457D01*
X113284000Y-84792502D01*
X113055913Y-84812457D01*
X113050600Y-84813881D01*
X113050598Y-84813881D01*
X112840067Y-84870293D01*
X112840065Y-84870294D01*
X112834757Y-84871716D01*
X112829776Y-84874039D01*
X112829775Y-84874039D01*
X112632238Y-84966151D01*
X112632233Y-84966154D01*
X112627251Y-84968477D01*
X112596772Y-84989819D01*
X112444211Y-85096643D01*
X112444208Y-85096645D01*
X112439700Y-85099802D01*
X112277802Y-85261700D01*
X112146477Y-85449251D01*
X112144154Y-85454233D01*
X112144151Y-85454238D01*
X112128195Y-85488457D01*
X112081278Y-85541742D01*
X112013001Y-85561203D01*
X111945041Y-85540661D01*
X111899805Y-85488457D01*
X111883849Y-85454238D01*
X111883846Y-85454233D01*
X111881523Y-85449251D01*
X111750198Y-85261700D01*
X111588300Y-85099802D01*
X111583792Y-85096645D01*
X111583789Y-85096643D01*
X111431228Y-84989819D01*
X111400749Y-84968477D01*
X111395767Y-84966154D01*
X111395762Y-84966151D01*
X111198225Y-84874039D01*
X111198224Y-84874039D01*
X111193243Y-84871716D01*
X111187935Y-84870294D01*
X111187933Y-84870293D01*
X110977402Y-84813881D01*
X110977400Y-84813881D01*
X110972087Y-84812457D01*
X110744000Y-84792502D01*
X110515913Y-84812457D01*
X110510600Y-84813881D01*
X110510598Y-84813881D01*
X110300067Y-84870293D01*
X110300065Y-84870294D01*
X110294757Y-84871716D01*
X110289776Y-84874039D01*
X110289775Y-84874039D01*
X110092238Y-84966151D01*
X110092233Y-84966154D01*
X110087251Y-84968477D01*
X110056772Y-84989819D01*
X109904211Y-85096643D01*
X109904208Y-85096645D01*
X109899700Y-85099802D01*
X109737802Y-85261700D01*
X109606477Y-85449251D01*
X109604154Y-85454233D01*
X109604151Y-85454238D01*
X109588195Y-85488457D01*
X109541278Y-85541742D01*
X109473001Y-85561203D01*
X109405041Y-85540661D01*
X109359805Y-85488457D01*
X109343849Y-85454238D01*
X109343846Y-85454233D01*
X109341523Y-85449251D01*
X109210198Y-85261700D01*
X109048300Y-85099802D01*
X109043792Y-85096645D01*
X109043789Y-85096643D01*
X108891228Y-84989819D01*
X108860749Y-84968477D01*
X108855767Y-84966154D01*
X108855762Y-84966151D01*
X108658225Y-84874039D01*
X108658224Y-84874039D01*
X108653243Y-84871716D01*
X108647935Y-84870294D01*
X108647933Y-84870293D01*
X108437402Y-84813881D01*
X108437400Y-84813881D01*
X108432087Y-84812457D01*
X108204000Y-84792502D01*
X107975913Y-84812457D01*
X107970600Y-84813881D01*
X107970598Y-84813881D01*
X107760067Y-84870293D01*
X107760065Y-84870294D01*
X107754757Y-84871716D01*
X107749776Y-84874039D01*
X107749775Y-84874039D01*
X107552238Y-84966151D01*
X107552233Y-84966154D01*
X107547251Y-84968477D01*
X107516772Y-84989819D01*
X107364211Y-85096643D01*
X107364208Y-85096645D01*
X107359700Y-85099802D01*
X107197802Y-85261700D01*
X107066477Y-85449251D01*
X107064154Y-85454233D01*
X107064151Y-85454238D01*
X107048195Y-85488457D01*
X106969716Y-85656757D01*
X106910457Y-85877913D01*
X106890502Y-86106000D01*
X106910457Y-86334087D01*
X106969716Y-86555243D01*
X106972039Y-86560224D01*
X106972039Y-86560225D01*
X107064151Y-86757762D01*
X107064154Y-86757767D01*
X107066477Y-86762749D01*
X107197802Y-86950300D01*
X107359700Y-87112198D01*
X107364208Y-87115355D01*
X107364211Y-87115357D01*
X107405542Y-87144297D01*
X107547251Y-87243523D01*
X107552233Y-87245846D01*
X107552238Y-87245849D01*
X107722825Y-87325394D01*
X107754757Y-87340284D01*
X107760065Y-87341706D01*
X107760067Y-87341707D01*
X107970598Y-87398119D01*
X107970600Y-87398119D01*
X107975913Y-87399543D01*
X108204000Y-87419498D01*
X108432087Y-87399543D01*
X108437400Y-87398119D01*
X108437402Y-87398119D01*
X108647933Y-87341707D01*
X108647935Y-87341706D01*
X108653243Y-87340284D01*
X108685175Y-87325394D01*
X108855762Y-87245849D01*
X108855767Y-87245846D01*
X108860749Y-87243523D01*
X109002458Y-87144297D01*
X109043789Y-87115357D01*
X109043792Y-87115355D01*
X109048300Y-87112198D01*
X109210198Y-86950300D01*
X109341523Y-86762749D01*
X109343846Y-86757767D01*
X109343849Y-86757762D01*
X109359805Y-86723543D01*
X109406722Y-86670258D01*
X109474999Y-86650797D01*
X109542959Y-86671339D01*
X109588195Y-86723543D01*
X109604151Y-86757762D01*
X109604154Y-86757767D01*
X109606477Y-86762749D01*
X109737802Y-86950300D01*
X109899700Y-87112198D01*
X109904208Y-87115355D01*
X109904211Y-87115357D01*
X109945542Y-87144297D01*
X110087251Y-87243523D01*
X110092233Y-87245846D01*
X110092238Y-87245849D01*
X110262825Y-87325394D01*
X110294757Y-87340284D01*
X110300065Y-87341706D01*
X110300067Y-87341707D01*
X110510598Y-87398119D01*
X110510600Y-87398119D01*
X110515913Y-87399543D01*
X110521389Y-87400022D01*
X110521394Y-87400023D01*
X110619412Y-87408598D01*
X110720551Y-87417447D01*
X110759269Y-87432591D01*
X110777760Y-87419869D01*
X110806058Y-87414069D01*
X110879016Y-87407686D01*
X110972087Y-87399543D01*
X110977400Y-87398119D01*
X110977402Y-87398119D01*
X111187933Y-87341707D01*
X111187935Y-87341706D01*
X111193243Y-87340284D01*
X111225175Y-87325394D01*
X111395762Y-87245849D01*
X111395767Y-87245846D01*
X111400749Y-87243523D01*
X111542458Y-87144297D01*
X111583789Y-87115357D01*
X111583792Y-87115355D01*
X111588300Y-87112198D01*
X111750198Y-86950300D01*
X111881523Y-86762749D01*
X111883846Y-86757767D01*
X111883849Y-86757762D01*
X111899805Y-86723543D01*
X111946722Y-86670258D01*
X112014999Y-86650797D01*
X112082959Y-86671339D01*
X112128195Y-86723543D01*
X112144151Y-86757762D01*
X112144154Y-86757767D01*
X112146477Y-86762749D01*
X112277802Y-86950300D01*
X112439700Y-87112198D01*
X112444208Y-87115355D01*
X112444211Y-87115357D01*
X112485542Y-87144297D01*
X112627251Y-87243523D01*
X112632233Y-87245846D01*
X112632238Y-87245849D01*
X112802825Y-87325394D01*
X112834757Y-87340284D01*
X112840065Y-87341706D01*
X112840067Y-87341707D01*
X113050598Y-87398119D01*
X113050600Y-87398119D01*
X113055913Y-87399543D01*
X113061399Y-87400023D01*
X113061405Y-87400024D01*
X113113552Y-87404587D01*
X113179670Y-87430450D01*
X113221310Y-87487954D01*
X113225250Y-87558841D01*
X113188534Y-87620946D01*
X113188745Y-87621136D01*
X113184328Y-87626042D01*
X113179421Y-87630460D01*
X113178296Y-87629210D01*
X113124986Y-87662051D01*
X113091800Y-87666500D01*
X110878763Y-87666500D01*
X110867579Y-87665973D01*
X110860091Y-87664299D01*
X110820998Y-87665528D01*
X110764276Y-87650791D01*
X110734396Y-87666497D01*
X110713530Y-87668905D01*
X110709276Y-87669039D01*
X110700110Y-87669327D01*
X110682744Y-87674372D01*
X110680658Y-87674978D01*
X110661306Y-87678986D01*
X110649068Y-87680532D01*
X110649066Y-87680533D01*
X110641203Y-87681526D01*
X110600086Y-87697806D01*
X110588885Y-87701641D01*
X110546406Y-87713982D01*
X110539587Y-87718015D01*
X110539582Y-87718017D01*
X110528971Y-87724293D01*
X110511221Y-87732990D01*
X110492383Y-87740448D01*
X110485967Y-87745109D01*
X110485966Y-87745110D01*
X110456625Y-87766428D01*
X110446701Y-87772947D01*
X110415460Y-87791422D01*
X110415455Y-87791426D01*
X110408637Y-87795458D01*
X110394313Y-87809782D01*
X110379281Y-87822621D01*
X110362893Y-87834528D01*
X110343103Y-87858450D01*
X110334712Y-87868593D01*
X110326722Y-87877373D01*
X108949500Y-89254595D01*
X108887188Y-89288621D01*
X108860405Y-89291500D01*
X108804513Y-89291500D01*
X108798061Y-89292872D01*
X108798056Y-89292872D01*
X108711113Y-89311353D01*
X108617712Y-89331206D01*
X108611682Y-89333891D01*
X108611681Y-89333891D01*
X108449278Y-89406197D01*
X108449276Y-89406198D01*
X108443248Y-89408882D01*
X108288747Y-89521134D01*
X108284326Y-89526044D01*
X108284325Y-89526045D01*
X108242283Y-89572738D01*
X108160960Y-89663056D01*
X108065473Y-89828444D01*
X108006458Y-90010072D01*
X108005768Y-90016633D01*
X108005768Y-90016635D01*
X107993207Y-90136148D01*
X107986496Y-90200000D01*
X107987186Y-90206565D01*
X107997684Y-90306444D01*
X108006458Y-90389928D01*
X108065473Y-90571556D01*
X108068776Y-90577278D01*
X108068777Y-90577279D01*
X108086803Y-90608500D01*
X108160960Y-90736944D01*
X108165378Y-90741851D01*
X108165379Y-90741852D01*
X108262884Y-90850142D01*
X108288747Y-90878866D01*
X108443248Y-90991118D01*
X108449276Y-90993802D01*
X108449278Y-90993803D01*
X108611681Y-91066109D01*
X108617712Y-91068794D01*
X108711113Y-91088647D01*
X108798056Y-91107128D01*
X108798061Y-91107128D01*
X108804513Y-91108500D01*
X108995487Y-91108500D01*
X109001939Y-91107128D01*
X109001944Y-91107128D01*
X109088887Y-91088647D01*
X109182288Y-91068794D01*
X109188319Y-91066109D01*
X109350722Y-90993803D01*
X109350724Y-90993802D01*
X109356752Y-90991118D01*
X109511253Y-90878866D01*
X109537116Y-90850142D01*
X109634621Y-90741852D01*
X109634622Y-90741851D01*
X109639040Y-90736944D01*
X109713197Y-90608500D01*
X109731223Y-90577279D01*
X109731224Y-90577278D01*
X109734527Y-90571556D01*
X109793542Y-90389928D01*
X109810907Y-90224706D01*
X109837920Y-90159050D01*
X109847122Y-90148782D01*
X111025499Y-88970405D01*
X111087811Y-88936379D01*
X111114594Y-88933500D01*
X112984653Y-88933500D01*
X113052774Y-88953502D01*
X113099267Y-89007158D01*
X113109371Y-89077432D01*
X113078291Y-89143808D01*
X113060960Y-89163056D01*
X113057659Y-89168774D01*
X112983522Y-89297183D01*
X112965473Y-89328444D01*
X112906458Y-89510072D01*
X112905768Y-89516633D01*
X112905768Y-89516635D01*
X112889093Y-89675292D01*
X112862080Y-89740949D01*
X112852878Y-89751217D01*
X112207747Y-90396348D01*
X112199461Y-90403888D01*
X112192982Y-90408000D01*
X112187557Y-90413777D01*
X112146357Y-90457651D01*
X112143602Y-90460493D01*
X112123865Y-90480230D01*
X112121385Y-90483427D01*
X112113682Y-90492447D01*
X112083414Y-90524679D01*
X112079595Y-90531625D01*
X112079593Y-90531628D01*
X112073652Y-90542434D01*
X112062801Y-90558953D01*
X112050386Y-90574959D01*
X112047241Y-90582228D01*
X112047238Y-90582232D01*
X112032826Y-90615537D01*
X112027609Y-90626187D01*
X112006305Y-90664940D01*
X112004334Y-90672615D01*
X112004334Y-90672616D01*
X112001267Y-90684562D01*
X111994863Y-90703266D01*
X111986819Y-90721855D01*
X111985580Y-90729678D01*
X111985577Y-90729688D01*
X111979901Y-90765524D01*
X111977495Y-90777144D01*
X111966500Y-90819970D01*
X111966500Y-90840224D01*
X111964949Y-90859934D01*
X111961780Y-90879943D01*
X111962526Y-90887835D01*
X111965941Y-90923961D01*
X111966500Y-90935819D01*
X111966500Y-93121233D01*
X111965973Y-93132416D01*
X111964298Y-93139909D01*
X111964547Y-93147835D01*
X111964547Y-93147836D01*
X111966438Y-93207986D01*
X111966500Y-93211945D01*
X111966500Y-93239856D01*
X111966997Y-93243790D01*
X111966997Y-93243791D01*
X111967005Y-93243856D01*
X111967938Y-93255693D01*
X111969327Y-93299889D01*
X111974978Y-93319339D01*
X111978987Y-93338700D01*
X111981526Y-93358797D01*
X111984445Y-93366168D01*
X111984445Y-93366170D01*
X111997804Y-93399912D01*
X112001649Y-93411142D01*
X112008903Y-93436110D01*
X112013982Y-93453593D01*
X112018015Y-93460412D01*
X112018017Y-93460417D01*
X112024293Y-93471028D01*
X112032988Y-93488776D01*
X112040448Y-93507617D01*
X112045110Y-93514033D01*
X112045110Y-93514034D01*
X112066436Y-93543387D01*
X112072952Y-93553307D01*
X112095458Y-93591362D01*
X112109779Y-93605683D01*
X112122619Y-93620716D01*
X112134528Y-93637107D01*
X112140634Y-93642158D01*
X112168605Y-93665298D01*
X112177384Y-93673288D01*
X113352878Y-94848783D01*
X113386904Y-94911095D01*
X113389093Y-94924706D01*
X113406458Y-95089928D01*
X113465473Y-95271556D01*
X113560960Y-95436944D01*
X113688747Y-95578866D01*
X113843248Y-95691118D01*
X113849276Y-95693802D01*
X113849278Y-95693803D01*
X114011681Y-95766109D01*
X114017712Y-95768794D01*
X114111112Y-95788647D01*
X114198056Y-95807128D01*
X114198061Y-95807128D01*
X114204513Y-95808500D01*
X114395487Y-95808500D01*
X114401939Y-95807128D01*
X114401944Y-95807128D01*
X114488888Y-95788647D01*
X114582288Y-95768794D01*
X114588319Y-95766109D01*
X114750722Y-95693803D01*
X114750724Y-95693802D01*
X114756752Y-95691118D01*
X114911253Y-95578866D01*
X115039040Y-95436944D01*
X115134527Y-95271556D01*
X115193542Y-95089928D01*
X115213504Y-94900000D01*
X115193542Y-94710072D01*
X115134527Y-94528444D01*
X115039040Y-94363056D01*
X114911253Y-94221134D01*
X114756752Y-94108882D01*
X114750724Y-94106198D01*
X114750722Y-94106197D01*
X114588319Y-94033891D01*
X114588318Y-94033891D01*
X114582288Y-94031206D01*
X114488887Y-94011353D01*
X114401944Y-93992872D01*
X114401939Y-93992872D01*
X114395487Y-93991500D01*
X114339594Y-93991500D01*
X114271473Y-93971498D01*
X114250499Y-93954595D01*
X113270405Y-92974500D01*
X113236379Y-92912188D01*
X113233500Y-92885405D01*
X113233500Y-91214594D01*
X113253502Y-91146473D01*
X113270405Y-91125499D01*
X113750499Y-90645405D01*
X113812811Y-90611379D01*
X113839594Y-90608500D01*
X113895487Y-90608500D01*
X113901939Y-90607128D01*
X113901944Y-90607128D01*
X113988888Y-90588647D01*
X114082288Y-90568794D01*
X114090201Y-90565271D01*
X114250722Y-90493803D01*
X114250724Y-90493802D01*
X114256752Y-90491118D01*
X114291441Y-90465915D01*
X114358306Y-90442058D01*
X114427457Y-90458138D01*
X114476938Y-90509051D01*
X114491500Y-90567852D01*
X114491500Y-91300400D01*
X114502474Y-91406166D01*
X114558450Y-91573946D01*
X114651522Y-91724348D01*
X114776697Y-91849305D01*
X114782927Y-91853145D01*
X114782928Y-91853146D01*
X114920090Y-91937694D01*
X114927262Y-91942115D01*
X115007005Y-91968564D01*
X115088611Y-91995632D01*
X115088613Y-91995632D01*
X115095139Y-91997797D01*
X115101975Y-91998497D01*
X115101978Y-91998498D01*
X115145031Y-92002909D01*
X115199600Y-92008500D01*
X116200400Y-92008500D01*
X116203646Y-92008163D01*
X116203650Y-92008163D01*
X116299308Y-91998238D01*
X116299312Y-91998237D01*
X116306166Y-91997526D01*
X116312702Y-91995345D01*
X116312704Y-91995345D01*
X116444806Y-91951272D01*
X116473946Y-91941550D01*
X116624348Y-91848478D01*
X116749305Y-91723303D01*
X116753146Y-91717072D01*
X116829389Y-91593384D01*
X116882162Y-91545890D01*
X116936649Y-91533500D01*
X117163219Y-91533500D01*
X117231340Y-91553502D01*
X117270363Y-91593197D01*
X117351522Y-91724348D01*
X117476697Y-91849305D01*
X117482927Y-91853145D01*
X117482928Y-91853146D01*
X117620090Y-91937694D01*
X117627262Y-91942115D01*
X117707005Y-91968564D01*
X117788611Y-91995632D01*
X117788613Y-91995632D01*
X117795139Y-91997797D01*
X117801975Y-91998497D01*
X117801978Y-91998498D01*
X117845031Y-92002909D01*
X117899600Y-92008500D01*
X118900400Y-92008500D01*
X118903646Y-92008163D01*
X118903650Y-92008163D01*
X118999308Y-91998238D01*
X118999312Y-91998237D01*
X119006166Y-91997526D01*
X119012702Y-91995345D01*
X119012704Y-91995345D01*
X119144806Y-91951272D01*
X119173946Y-91941550D01*
X119324348Y-91848478D01*
X119449305Y-91723303D01*
X119453146Y-91717072D01*
X119529389Y-91593384D01*
X119582162Y-91545890D01*
X119636649Y-91533500D01*
X119763219Y-91533500D01*
X119831340Y-91553502D01*
X119870363Y-91593197D01*
X119951522Y-91724348D01*
X120076697Y-91849305D01*
X120082927Y-91853145D01*
X120082928Y-91853146D01*
X120220090Y-91937694D01*
X120227262Y-91942115D01*
X120307005Y-91968564D01*
X120388611Y-91995632D01*
X120388613Y-91995632D01*
X120395139Y-91997797D01*
X120401975Y-91998497D01*
X120401978Y-91998498D01*
X120445031Y-92002909D01*
X120499600Y-92008500D01*
X121500400Y-92008500D01*
X121503646Y-92008163D01*
X121503650Y-92008163D01*
X121599308Y-91998238D01*
X121599312Y-91998237D01*
X121606166Y-91997526D01*
X121612702Y-91995345D01*
X121612704Y-91995345D01*
X121744806Y-91951272D01*
X121773946Y-91941550D01*
X121924348Y-91848478D01*
X122049305Y-91723303D01*
X122053146Y-91717072D01*
X122129389Y-91593384D01*
X122182162Y-91545890D01*
X122236649Y-91533500D01*
X128439070Y-91533500D01*
X128483140Y-91542867D01*
X128483400Y-91542068D01*
X128489680Y-91544108D01*
X128495712Y-91546794D01*
X128589113Y-91566647D01*
X128676056Y-91585128D01*
X128676061Y-91585128D01*
X128682513Y-91586500D01*
X128738406Y-91586500D01*
X128806527Y-91606502D01*
X128827501Y-91623405D01*
X130901595Y-93697499D01*
X130935621Y-93759811D01*
X130938500Y-93786594D01*
X130938500Y-96071476D01*
X130918498Y-96139597D01*
X130906142Y-96155779D01*
X130832960Y-96237056D01*
X130737473Y-96402444D01*
X130678458Y-96584072D01*
X130658496Y-96774000D01*
X130659186Y-96780565D01*
X130674875Y-96929834D01*
X130678458Y-96963928D01*
X130737473Y-97145556D01*
X130740776Y-97151278D01*
X130740777Y-97151279D01*
X130755913Y-97177495D01*
X130832960Y-97310944D01*
X130837378Y-97315851D01*
X130837379Y-97315852D01*
X130906827Y-97392982D01*
X130960747Y-97452866D01*
X131115248Y-97565118D01*
X131121276Y-97567802D01*
X131121278Y-97567803D01*
X131283681Y-97640109D01*
X131289712Y-97642794D01*
X131383113Y-97662647D01*
X131470056Y-97681128D01*
X131470061Y-97681128D01*
X131476513Y-97682500D01*
X131532406Y-97682500D01*
X131600527Y-97702502D01*
X131621501Y-97719405D01*
X133721507Y-99819411D01*
X133755533Y-99881723D01*
X133750468Y-99952538D01*
X133707921Y-100009374D01*
X133641401Y-100034185D01*
X133621430Y-100034026D01*
X133609486Y-100032981D01*
X133609475Y-100032981D01*
X133604000Y-100032502D01*
X133375913Y-100052457D01*
X133370600Y-100053881D01*
X133370598Y-100053881D01*
X133160067Y-100110293D01*
X133160065Y-100110294D01*
X133154757Y-100111716D01*
X133149776Y-100114039D01*
X133149775Y-100114039D01*
X132952238Y-100206151D01*
X132952233Y-100206154D01*
X132947251Y-100208477D01*
X132916772Y-100229819D01*
X132764211Y-100336643D01*
X132764208Y-100336645D01*
X132759700Y-100339802D01*
X132597802Y-100501700D01*
X132466477Y-100689251D01*
X132464154Y-100694233D01*
X132464151Y-100694238D01*
X132448195Y-100728457D01*
X132401278Y-100781742D01*
X132333001Y-100801203D01*
X132265041Y-100780661D01*
X132219805Y-100728457D01*
X132203849Y-100694238D01*
X132203846Y-100694233D01*
X132201523Y-100689251D01*
X132070198Y-100501700D01*
X131908300Y-100339802D01*
X131903792Y-100336645D01*
X131903789Y-100336643D01*
X131751228Y-100229819D01*
X131720749Y-100208477D01*
X131715767Y-100206154D01*
X131715762Y-100206151D01*
X131518225Y-100114039D01*
X131518224Y-100114039D01*
X131513243Y-100111716D01*
X131507935Y-100110294D01*
X131507933Y-100110293D01*
X131297402Y-100053881D01*
X131297400Y-100053881D01*
X131292087Y-100052457D01*
X131064000Y-100032502D01*
X130835913Y-100052457D01*
X130830600Y-100053881D01*
X130830598Y-100053881D01*
X130620067Y-100110293D01*
X130620065Y-100110294D01*
X130614757Y-100111716D01*
X130609776Y-100114039D01*
X130609775Y-100114039D01*
X130412238Y-100206151D01*
X130412233Y-100206154D01*
X130407251Y-100208477D01*
X130376772Y-100229819D01*
X130224211Y-100336643D01*
X130224208Y-100336645D01*
X130219700Y-100339802D01*
X130057802Y-100501700D01*
X129926477Y-100689251D01*
X129924154Y-100694233D01*
X129924151Y-100694238D01*
X129908195Y-100728457D01*
X129861278Y-100781742D01*
X129793001Y-100801203D01*
X129725041Y-100780661D01*
X129679805Y-100728457D01*
X129663849Y-100694238D01*
X129663846Y-100694233D01*
X129661523Y-100689251D01*
X129530198Y-100501700D01*
X129368300Y-100339802D01*
X129363792Y-100336645D01*
X129363789Y-100336643D01*
X129213322Y-100231285D01*
X129168994Y-100175828D01*
X129161685Y-100105208D01*
X129169955Y-100078034D01*
X129171910Y-100073516D01*
X129175281Y-100066352D01*
X129197185Y-100023362D01*
X129197186Y-100023360D01*
X129200785Y-100016296D01*
X129202583Y-100008251D01*
X129209909Y-99985706D01*
X129210032Y-99985421D01*
X129213181Y-99978145D01*
X129221967Y-99922674D01*
X129223451Y-99914899D01*
X129233971Y-99867834D01*
X129235702Y-99860091D01*
X129235443Y-99851856D01*
X129236933Y-99828185D01*
X129236980Y-99827889D01*
X129236980Y-99827886D01*
X129238220Y-99820057D01*
X129232935Y-99764143D01*
X129232438Y-99756246D01*
X129230922Y-99708036D01*
X129230673Y-99700110D01*
X129228375Y-99692201D01*
X129223932Y-99668907D01*
X129223903Y-99668598D01*
X129223903Y-99668597D01*
X129223157Y-99660708D01*
X129204128Y-99607852D01*
X129201688Y-99600342D01*
X129188230Y-99554019D01*
X129188229Y-99554016D01*
X129186018Y-99546407D01*
X129181984Y-99539587D01*
X129181981Y-99539579D01*
X129181823Y-99539312D01*
X129171733Y-99517868D01*
X129171628Y-99517577D01*
X129171624Y-99517569D01*
X129168939Y-99510111D01*
X129137354Y-99463635D01*
X129133145Y-99457004D01*
X129104542Y-99408638D01*
X129098722Y-99402818D01*
X129083606Y-99384547D01*
X129083431Y-99384290D01*
X129078972Y-99377729D01*
X129036837Y-99340582D01*
X129031067Y-99335163D01*
X127103652Y-97407747D01*
X127096112Y-97399461D01*
X127092000Y-97392982D01*
X127042348Y-97346356D01*
X127039507Y-97343602D01*
X127019770Y-97323865D01*
X127016573Y-97321385D01*
X127007551Y-97313680D01*
X126975321Y-97283414D01*
X126968375Y-97279595D01*
X126968372Y-97279593D01*
X126957566Y-97273652D01*
X126941047Y-97262801D01*
X126935048Y-97258148D01*
X126925041Y-97250386D01*
X126917772Y-97247241D01*
X126917768Y-97247238D01*
X126884463Y-97232826D01*
X126873813Y-97227609D01*
X126835060Y-97206305D01*
X126815437Y-97201267D01*
X126796734Y-97194863D01*
X126785420Y-97189967D01*
X126785419Y-97189967D01*
X126778145Y-97186819D01*
X126770322Y-97185580D01*
X126770312Y-97185577D01*
X126734476Y-97179901D01*
X126722856Y-97177495D01*
X126687711Y-97168472D01*
X126687710Y-97168472D01*
X126680030Y-97166500D01*
X126659776Y-97166500D01*
X126640065Y-97164949D01*
X126627886Y-97163020D01*
X126620057Y-97161780D01*
X126612165Y-97162526D01*
X126576039Y-97165941D01*
X126564181Y-97166500D01*
X121308200Y-97166500D01*
X121240079Y-97146498D01*
X121220853Y-97130157D01*
X121220580Y-97130460D01*
X121215668Y-97126037D01*
X121211253Y-97121134D01*
X121056752Y-97008882D01*
X121050724Y-97006198D01*
X121050722Y-97006197D01*
X120888319Y-96933891D01*
X120888318Y-96933891D01*
X120882288Y-96931206D01*
X120788887Y-96911353D01*
X120701944Y-96892872D01*
X120701939Y-96892872D01*
X120695487Y-96891500D01*
X120504513Y-96891500D01*
X120498061Y-96892872D01*
X120498056Y-96892872D01*
X120411112Y-96911353D01*
X120317712Y-96931206D01*
X120311682Y-96933891D01*
X120311681Y-96933891D01*
X120149278Y-97006197D01*
X120149276Y-97006198D01*
X120143248Y-97008882D01*
X119988747Y-97121134D01*
X119984326Y-97126044D01*
X119984325Y-97126045D01*
X119875203Y-97247238D01*
X119860960Y-97263056D01*
X119765473Y-97428444D01*
X119706458Y-97610072D01*
X119705768Y-97616633D01*
X119705768Y-97616635D01*
X119696743Y-97702502D01*
X119686496Y-97800000D01*
X119706458Y-97989928D01*
X119765473Y-98171556D01*
X119860960Y-98336944D01*
X119988747Y-98478866D01*
X120143248Y-98591118D01*
X120149276Y-98593802D01*
X120149278Y-98593803D01*
X120311681Y-98666109D01*
X120317712Y-98668794D01*
X120411112Y-98688647D01*
X120498056Y-98707128D01*
X120498061Y-98707128D01*
X120504513Y-98708500D01*
X120695487Y-98708500D01*
X120701939Y-98707128D01*
X120701944Y-98707128D01*
X120788887Y-98688647D01*
X120882288Y-98668794D01*
X120888319Y-98666109D01*
X121050722Y-98593803D01*
X121050724Y-98593802D01*
X121056752Y-98591118D01*
X121211253Y-98478866D01*
X121215668Y-98473963D01*
X121220580Y-98469540D01*
X121221705Y-98470789D01*
X121275014Y-98437949D01*
X121308200Y-98433500D01*
X126285406Y-98433500D01*
X126353527Y-98453502D01*
X126374501Y-98470405D01*
X127853595Y-99949500D01*
X127887621Y-100011812D01*
X127890500Y-100038595D01*
X127890500Y-100126606D01*
X127870498Y-100194727D01*
X127836771Y-100229819D01*
X127684211Y-100336643D01*
X127684208Y-100336645D01*
X127679700Y-100339802D01*
X127517802Y-100501700D01*
X127386477Y-100689251D01*
X127384154Y-100694233D01*
X127384151Y-100694238D01*
X127368195Y-100728457D01*
X127321278Y-100781742D01*
X127253001Y-100801203D01*
X127185041Y-100780661D01*
X127139805Y-100728457D01*
X127123849Y-100694238D01*
X127123846Y-100694233D01*
X127121523Y-100689251D01*
X126990198Y-100501700D01*
X126828300Y-100339802D01*
X126823792Y-100336645D01*
X126823789Y-100336643D01*
X126671228Y-100229819D01*
X126640749Y-100208477D01*
X126635767Y-100206154D01*
X126635762Y-100206151D01*
X126438225Y-100114039D01*
X126438224Y-100114039D01*
X126433243Y-100111716D01*
X126427935Y-100110294D01*
X126427933Y-100110293D01*
X126217402Y-100053881D01*
X126217400Y-100053881D01*
X126212087Y-100052457D01*
X125984000Y-100032502D01*
X125755913Y-100052457D01*
X125750600Y-100053881D01*
X125750598Y-100053881D01*
X125540067Y-100110293D01*
X125540065Y-100110294D01*
X125534757Y-100111716D01*
X125529776Y-100114039D01*
X125529775Y-100114039D01*
X125332238Y-100206151D01*
X125332233Y-100206154D01*
X125327251Y-100208477D01*
X125296772Y-100229819D01*
X125144211Y-100336643D01*
X125144208Y-100336645D01*
X125139700Y-100339802D01*
X124977802Y-100501700D01*
X124846477Y-100689251D01*
X124844154Y-100694233D01*
X124844151Y-100694238D01*
X124828195Y-100728457D01*
X124781278Y-100781742D01*
X124713001Y-100801203D01*
X124645041Y-100780661D01*
X124599805Y-100728457D01*
X124583849Y-100694238D01*
X124583846Y-100694233D01*
X124581523Y-100689251D01*
X124450198Y-100501700D01*
X124288300Y-100339802D01*
X124283792Y-100336645D01*
X124283789Y-100336643D01*
X124131228Y-100229819D01*
X124100749Y-100208477D01*
X124095767Y-100206154D01*
X124095762Y-100206151D01*
X123898225Y-100114039D01*
X123898224Y-100114039D01*
X123893243Y-100111716D01*
X123887935Y-100110294D01*
X123887933Y-100110293D01*
X123677402Y-100053881D01*
X123677400Y-100053881D01*
X123672087Y-100052457D01*
X123444000Y-100032502D01*
X123215913Y-100052457D01*
X123210600Y-100053881D01*
X123210598Y-100053881D01*
X123000067Y-100110293D01*
X123000065Y-100110294D01*
X122994757Y-100111716D01*
X122989776Y-100114039D01*
X122989775Y-100114039D01*
X122792238Y-100206151D01*
X122792233Y-100206154D01*
X122787251Y-100208477D01*
X122756772Y-100229819D01*
X122604211Y-100336643D01*
X122604208Y-100336645D01*
X122599700Y-100339802D01*
X122437802Y-100501700D01*
X122306477Y-100689251D01*
X122304154Y-100694233D01*
X122304151Y-100694238D01*
X122288195Y-100728457D01*
X122241278Y-100781742D01*
X122173001Y-100801203D01*
X122105041Y-100780661D01*
X122059805Y-100728457D01*
X122043849Y-100694238D01*
X122043846Y-100694233D01*
X122041523Y-100689251D01*
X121910198Y-100501700D01*
X121748300Y-100339802D01*
X121743792Y-100336645D01*
X121743789Y-100336643D01*
X121591228Y-100229819D01*
X121560749Y-100208477D01*
X121555767Y-100206154D01*
X121555762Y-100206151D01*
X121358225Y-100114039D01*
X121358224Y-100114039D01*
X121353243Y-100111716D01*
X121347935Y-100110294D01*
X121347933Y-100110293D01*
X121137402Y-100053881D01*
X121137400Y-100053881D01*
X121132087Y-100052457D01*
X120904000Y-100032502D01*
X120675913Y-100052457D01*
X120670600Y-100053881D01*
X120670598Y-100053881D01*
X120460067Y-100110293D01*
X120460065Y-100110294D01*
X120454757Y-100111716D01*
X120449776Y-100114039D01*
X120449775Y-100114039D01*
X120252238Y-100206151D01*
X120252233Y-100206154D01*
X120247251Y-100208477D01*
X120216772Y-100229819D01*
X120064211Y-100336643D01*
X120064208Y-100336645D01*
X120059700Y-100339802D01*
X119897802Y-100501700D01*
X119766477Y-100689251D01*
X119764154Y-100694233D01*
X119764151Y-100694238D01*
X119748195Y-100728457D01*
X119701278Y-100781742D01*
X119633001Y-100801203D01*
X119565041Y-100780661D01*
X119519805Y-100728457D01*
X119503849Y-100694238D01*
X119503846Y-100694233D01*
X119501523Y-100689251D01*
X119370198Y-100501700D01*
X119208300Y-100339802D01*
X119203792Y-100336645D01*
X119203789Y-100336643D01*
X119051228Y-100229819D01*
X119020749Y-100208477D01*
X119015767Y-100206154D01*
X119015762Y-100206151D01*
X118818225Y-100114039D01*
X118818224Y-100114039D01*
X118813243Y-100111716D01*
X118807935Y-100110294D01*
X118807933Y-100110293D01*
X118597402Y-100053881D01*
X118597400Y-100053881D01*
X118592087Y-100052457D01*
X118364000Y-100032502D01*
X118135913Y-100052457D01*
X118130600Y-100053881D01*
X118130598Y-100053881D01*
X117920067Y-100110293D01*
X117920065Y-100110294D01*
X117914757Y-100111716D01*
X117909776Y-100114039D01*
X117909775Y-100114039D01*
X117712238Y-100206151D01*
X117712233Y-100206154D01*
X117707251Y-100208477D01*
X117676772Y-100229819D01*
X117524211Y-100336643D01*
X117524208Y-100336645D01*
X117519700Y-100339802D01*
X117357802Y-100501700D01*
X117226477Y-100689251D01*
X117224154Y-100694233D01*
X117224151Y-100694238D01*
X117208195Y-100728457D01*
X117161278Y-100781742D01*
X117093001Y-100801203D01*
X117025041Y-100780661D01*
X116979805Y-100728457D01*
X116963849Y-100694238D01*
X116963846Y-100694233D01*
X116961523Y-100689251D01*
X116830198Y-100501700D01*
X116668300Y-100339802D01*
X116663792Y-100336645D01*
X116663789Y-100336643D01*
X116511228Y-100229819D01*
X116480749Y-100208477D01*
X116475767Y-100206154D01*
X116475762Y-100206151D01*
X116278225Y-100114039D01*
X116278224Y-100114039D01*
X116273243Y-100111716D01*
X116267935Y-100110294D01*
X116267933Y-100110293D01*
X116057402Y-100053881D01*
X116057400Y-100053881D01*
X116052087Y-100052457D01*
X115824000Y-100032502D01*
X115595913Y-100052457D01*
X115590600Y-100053881D01*
X115590598Y-100053881D01*
X115380067Y-100110293D01*
X115380065Y-100110294D01*
X115374757Y-100111716D01*
X115369776Y-100114039D01*
X115369775Y-100114039D01*
X115172238Y-100206151D01*
X115172233Y-100206154D01*
X115167251Y-100208477D01*
X115136772Y-100229819D01*
X114984211Y-100336643D01*
X114984208Y-100336645D01*
X114979700Y-100339802D01*
X114817802Y-100501700D01*
X114686477Y-100689251D01*
X114684154Y-100694233D01*
X114684151Y-100694238D01*
X114668195Y-100728457D01*
X114621278Y-100781742D01*
X114553001Y-100801203D01*
X114485041Y-100780661D01*
X114439805Y-100728457D01*
X114423849Y-100694238D01*
X114423846Y-100694233D01*
X114421523Y-100689251D01*
X114290198Y-100501700D01*
X114128300Y-100339802D01*
X114123792Y-100336645D01*
X114123789Y-100336643D01*
X113971228Y-100229819D01*
X113940749Y-100208477D01*
X113935767Y-100206154D01*
X113935762Y-100206151D01*
X113738225Y-100114039D01*
X113738224Y-100114039D01*
X113733243Y-100111716D01*
X113727935Y-100110294D01*
X113727933Y-100110293D01*
X113517402Y-100053881D01*
X113517400Y-100053881D01*
X113512087Y-100052457D01*
X113284000Y-100032502D01*
X113055913Y-100052457D01*
X113050600Y-100053881D01*
X113050598Y-100053881D01*
X112840067Y-100110293D01*
X112840065Y-100110294D01*
X112834757Y-100111716D01*
X112829776Y-100114039D01*
X112829775Y-100114039D01*
X112632238Y-100206151D01*
X112632233Y-100206154D01*
X112627251Y-100208477D01*
X112596772Y-100229819D01*
X112444211Y-100336643D01*
X112444208Y-100336645D01*
X112439700Y-100339802D01*
X112277802Y-100501700D01*
X112146477Y-100689251D01*
X112144154Y-100694233D01*
X112144151Y-100694238D01*
X112128195Y-100728457D01*
X112081278Y-100781742D01*
X112013001Y-100801203D01*
X111945041Y-100780661D01*
X111899805Y-100728457D01*
X111883849Y-100694238D01*
X111883846Y-100694233D01*
X111881523Y-100689251D01*
X111750198Y-100501700D01*
X111588300Y-100339802D01*
X111583792Y-100336645D01*
X111583789Y-100336643D01*
X111431228Y-100229819D01*
X111400749Y-100208477D01*
X111395767Y-100206154D01*
X111395762Y-100206151D01*
X111198225Y-100114039D01*
X111198224Y-100114039D01*
X111193243Y-100111716D01*
X111187935Y-100110294D01*
X111187933Y-100110293D01*
X110977402Y-100053881D01*
X110977400Y-100053881D01*
X110972087Y-100052457D01*
X110744000Y-100032502D01*
X110515913Y-100052457D01*
X110510600Y-100053881D01*
X110510598Y-100053881D01*
X110300067Y-100110293D01*
X110300065Y-100110294D01*
X110294757Y-100111716D01*
X110289776Y-100114039D01*
X110289775Y-100114039D01*
X110092238Y-100206151D01*
X110092233Y-100206154D01*
X110087251Y-100208477D01*
X110056772Y-100229819D01*
X109904211Y-100336643D01*
X109904208Y-100336645D01*
X109899700Y-100339802D01*
X109737802Y-100501700D01*
X109606477Y-100689251D01*
X109604154Y-100694233D01*
X109604151Y-100694238D01*
X109588195Y-100728457D01*
X109541278Y-100781742D01*
X109473001Y-100801203D01*
X109405041Y-100780661D01*
X109359805Y-100728457D01*
X109343849Y-100694238D01*
X109343846Y-100694233D01*
X109341523Y-100689251D01*
X109210198Y-100501700D01*
X109048300Y-100339802D01*
X109043792Y-100336645D01*
X109043789Y-100336643D01*
X108891228Y-100229819D01*
X108860749Y-100208477D01*
X108855767Y-100206154D01*
X108855762Y-100206151D01*
X108658225Y-100114039D01*
X108658224Y-100114039D01*
X108653243Y-100111716D01*
X108647935Y-100110294D01*
X108647933Y-100110293D01*
X108437402Y-100053881D01*
X108437400Y-100053881D01*
X108432087Y-100052457D01*
X108204000Y-100032502D01*
X107975913Y-100052457D01*
X107970600Y-100053881D01*
X107970598Y-100053881D01*
X107760067Y-100110293D01*
X107760065Y-100110294D01*
X107754757Y-100111716D01*
X107749776Y-100114039D01*
X107749775Y-100114039D01*
X107552238Y-100206151D01*
X107552233Y-100206154D01*
X107547251Y-100208477D01*
X107516772Y-100229819D01*
X107364211Y-100336643D01*
X107364208Y-100336645D01*
X107359700Y-100339802D01*
X107197802Y-100501700D01*
X107066477Y-100689251D01*
X107064154Y-100694233D01*
X107064151Y-100694238D01*
X107064034Y-100694489D01*
X106969716Y-100896757D01*
X106910457Y-101117913D01*
X106890502Y-101346000D01*
X106910457Y-101574087D01*
X106969716Y-101795243D01*
X106972039Y-101800224D01*
X106972039Y-101800225D01*
X107064151Y-101997762D01*
X107064154Y-101997767D01*
X107066477Y-102002749D01*
X107069634Y-102007257D01*
X107179197Y-102163729D01*
X107201885Y-102231003D01*
X107184600Y-102299863D01*
X107132831Y-102348448D01*
X107075984Y-102362000D01*
X102234000Y-102362000D01*
X102165879Y-102341998D01*
X102119386Y-102288342D01*
X102108000Y-102236000D01*
X102108000Y-75056000D01*
X102128002Y-74987879D01*
X102181658Y-74941386D01*
X102234000Y-74930000D01*
X110272060Y-74930000D01*
X110340181Y-74950002D01*
G37*
%TD.AperFunction*%
%TD*%
M02*
