%TF.GenerationSoftware,KiCad,Pcbnew,6.0.11-2627ca5db0~126~ubuntu22.04.1*%
%TF.CreationDate,2023-02-18T02:54:49-05:00*%
%TF.ProjectId,lin-coolant-temperature,6c696e2d-636f-46f6-9c61-6e742d74656d,1.0*%
%TF.SameCoordinates,Original*%
%TF.FileFunction,Copper,L3,Inr*%
%TF.FilePolarity,Positive*%
%FSLAX46Y46*%
G04 Gerber Fmt 4.6, Leading zero omitted, Abs format (unit mm)*
G04 Created by KiCad (PCBNEW 6.0.11-2627ca5db0~126~ubuntu22.04.1) date 2023-02-18 02:54:49*
%MOMM*%
%LPD*%
G01*
G04 APERTURE LIST*
%TA.AperFunction,ComponentPad*%
%ADD10R,2.100000X2.100000*%
%TD*%
%TA.AperFunction,ComponentPad*%
%ADD11C,2.100000*%
%TD*%
%TA.AperFunction,ComponentPad*%
%ADD12R,1.700000X1.700000*%
%TD*%
%TA.AperFunction,ComponentPad*%
%ADD13O,1.700000X1.700000*%
%TD*%
%TA.AperFunction,ComponentPad*%
%ADD14C,0.500000*%
%TD*%
%TA.AperFunction,ComponentPad*%
%ADD15R,1.879600X1.879600*%
%TD*%
%TA.AperFunction,ComponentPad*%
%ADD16C,1.879600*%
%TD*%
%TA.AperFunction,ViaPad*%
%ADD17C,0.800000*%
%TD*%
G04 APERTURE END LIST*
D10*
%TO.N,Net-(D5-Pad1)*%
%TO.C,J5*%
X224750000Y-82030000D03*
D11*
%TO.N,GND*%
X224750000Y-84570000D03*
%TD*%
D10*
%TO.N,Net-(D4-Pad1)*%
%TO.C,J4*%
X224750000Y-74075000D03*
D11*
%TO.N,GND*%
X224750000Y-76615000D03*
%TD*%
D12*
%TO.N,GND*%
%TO.C,J2*%
X180150000Y-82100000D03*
D13*
%TO.N,+5V*%
X182690000Y-82100000D03*
%TO.N,SDA5V*%
X185230000Y-82100000D03*
%TO.N,SCL5V*%
X187770000Y-82100000D03*
%TD*%
D14*
%TO.N,GND*%
%TO.C,U5*%
X200150000Y-71850000D03*
X198250000Y-73200000D03*
X198250000Y-74550000D03*
X200150000Y-73200000D03*
X200150000Y-74550000D03*
X198250000Y-71850000D03*
%TD*%
D10*
%TO.N,+BATT*%
%TO.C,J3*%
X224700000Y-64000000D03*
D11*
%TO.N,GND*%
X224700000Y-66540000D03*
%TO.N,LIN*%
X224700000Y-69080000D03*
%TD*%
D15*
%TO.N,GND*%
%TO.C,J1*%
X226520000Y-91800000D03*
D16*
%TO.N,unconnected-(J1-Pad2)*%
X223980000Y-91800000D03*
%TO.N,Net-(J1-Pad3)*%
X221440000Y-91800000D03*
%TO.N,Net-(J1-Pad4)*%
X218900000Y-91800000D03*
%TO.N,UPDI*%
X216360000Y-91800000D03*
%TO.N,unconnected-(J1-Pad6)*%
X213820000Y-91800000D03*
%TD*%
D17*
%TO.N,Net-(U2-Pad5)*%
X204875000Y-94975000D03*
X203700000Y-86825000D03*
%TO.N,GND*%
X207600000Y-86525000D03*
%TO.N,+3V3*%
X217500000Y-85725000D03*
%TO.N,GND*%
X215982713Y-84558738D03*
%TO.N,+3V3*%
X213050000Y-81675000D03*
X216975000Y-78700000D03*
X213125000Y-73775000D03*
%TO.N,GND*%
X216306500Y-76517165D03*
X211450000Y-63225000D03*
X184652903Y-75302969D03*
X203300000Y-61500000D03*
X177100000Y-71300000D03*
X205400000Y-77200000D03*
X176900000Y-62050000D03*
X177125000Y-76350000D03*
X207550000Y-91950000D03*
X183100000Y-94450000D03*
X200500000Y-82850000D03*
X187000000Y-79000000D03*
X206625000Y-89750000D03*
%TO.N,Net-(C5-Pad1)*%
X203435000Y-72565000D03*
X201800000Y-68900000D03*
%TO.N,LIN*%
X199200000Y-81575000D03*
%TO.N,TXD*%
X200800000Y-96575000D03*
X200550000Y-91800000D03*
%TO.N,~{LIN_SLP}*%
X197950000Y-91675000D03*
%TO.N,~{LIN_WAKE}*%
X204925000Y-93300000D03*
X199225000Y-91625000D03*
%TO.N,Net-(C6-Pad2)*%
X189700000Y-73500000D03*
%TO.N,Net-(C7-Pad1)*%
X187200000Y-77875000D03*
X187625000Y-73825500D03*
%TO.N,Net-(C7-Pad2)*%
X181812000Y-76162529D03*
%TO.N,Net-(C8-Pad1)*%
X182075000Y-73725000D03*
%TO.N,Net-(C8-Pad2)*%
X189075000Y-74550000D03*
%TO.N,SDA3V*%
X187300000Y-92450000D03*
X206675000Y-96775000D03*
X185425000Y-90325000D03*
%TO.N,SCL3V*%
X206290576Y-95852382D03*
X187450000Y-90425000D03*
X188918398Y-93779600D03*
%TO.N,+3V3*%
X194225000Y-89700000D03*
X197475000Y-93675000D03*
X192850000Y-77800000D03*
X184750000Y-65600000D03*
X190050000Y-90950000D03*
X202850000Y-88175000D03*
X187809929Y-75950089D03*
X192025000Y-93200000D03*
X224425000Y-94725000D03*
X181950000Y-90050000D03*
X190150000Y-80175000D03*
X190550000Y-89975000D03*
X182225000Y-77625000D03*
%TO.N,Net-(R11-Pad2)*%
X187374999Y-76850001D03*
%TO.N,Net-(R13-Pad2)*%
X203735000Y-73835000D03*
%TO.N,Net-(R17-Pad2)*%
X195000000Y-75200000D03*
%TO.N,~{LIN_SLP}*%
X205075000Y-92075000D03*
%TO.N,Net-(JP2-Pad2)*%
X191362756Y-93948624D03*
%TO.N,Net-(JP3-Pad2)*%
X187887299Y-93487701D03*
%TO.N,Net-(JP4-Pad2)*%
X184175000Y-92899500D03*
%TO.N,Net-(JP5-Pad2)*%
X184049695Y-96425000D03*
X183075000Y-92150000D03*
%TD*%
%TA.AperFunction,Conductor*%
%TO.N,+3V3*%
G36*
X230065621Y-58948502D02*
G01*
X230112114Y-59002158D01*
X230123500Y-59054500D01*
X230123500Y-100966071D01*
X230103498Y-101034192D01*
X230049842Y-101080685D01*
X229997614Y-101092071D01*
X175783994Y-101140950D01*
X175715855Y-101121009D01*
X175669314Y-101067396D01*
X175657880Y-101015096D01*
X175652555Y-96425000D01*
X183136191Y-96425000D01*
X183156153Y-96614928D01*
X183215168Y-96796556D01*
X183310655Y-96961944D01*
X183315073Y-96966851D01*
X183315074Y-96966852D01*
X183434020Y-97098955D01*
X183438442Y-97103866D01*
X183592943Y-97216118D01*
X183598971Y-97218802D01*
X183598973Y-97218803D01*
X183686448Y-97257749D01*
X183767407Y-97293794D01*
X183852796Y-97311944D01*
X183947751Y-97332128D01*
X183947756Y-97332128D01*
X183954208Y-97333500D01*
X184145182Y-97333500D01*
X184151634Y-97332128D01*
X184151639Y-97332128D01*
X184246594Y-97311944D01*
X184331983Y-97293794D01*
X184412942Y-97257749D01*
X184500417Y-97218803D01*
X184500419Y-97218802D01*
X184506447Y-97216118D01*
X184660948Y-97103866D01*
X184665370Y-97098955D01*
X184784316Y-96966852D01*
X184784317Y-96966851D01*
X184788735Y-96961944D01*
X184884222Y-96796556D01*
X184943237Y-96614928D01*
X184947434Y-96575000D01*
X199886496Y-96575000D01*
X199906458Y-96764928D01*
X199965473Y-96946556D01*
X200060960Y-97111944D01*
X200065378Y-97116851D01*
X200065379Y-97116852D01*
X200157176Y-97218803D01*
X200188747Y-97253866D01*
X200343248Y-97366118D01*
X200349276Y-97368802D01*
X200349278Y-97368803D01*
X200511681Y-97441109D01*
X200517712Y-97443794D01*
X200583365Y-97457749D01*
X200698056Y-97482128D01*
X200698061Y-97482128D01*
X200704513Y-97483500D01*
X200895487Y-97483500D01*
X200901939Y-97482128D01*
X200901944Y-97482128D01*
X201016635Y-97457749D01*
X201082288Y-97443794D01*
X201088319Y-97441109D01*
X201250722Y-97368803D01*
X201250724Y-97368802D01*
X201256752Y-97366118D01*
X201411253Y-97253866D01*
X201442824Y-97218803D01*
X201534621Y-97116852D01*
X201534622Y-97116851D01*
X201539040Y-97111944D01*
X201634527Y-96946556D01*
X201693542Y-96764928D01*
X201713504Y-96575000D01*
X201695473Y-96403444D01*
X201694232Y-96391635D01*
X201694232Y-96391633D01*
X201693542Y-96385072D01*
X201634527Y-96203444D01*
X201539040Y-96038056D01*
X201411253Y-95896134D01*
X201308167Y-95821237D01*
X201262094Y-95787763D01*
X201262093Y-95787762D01*
X201256752Y-95783882D01*
X201250724Y-95781198D01*
X201250722Y-95781197D01*
X201088319Y-95708891D01*
X201088318Y-95708891D01*
X201082288Y-95706206D01*
X200988887Y-95686353D01*
X200901944Y-95667872D01*
X200901939Y-95667872D01*
X200895487Y-95666500D01*
X200704513Y-95666500D01*
X200698061Y-95667872D01*
X200698056Y-95667872D01*
X200611113Y-95686353D01*
X200517712Y-95706206D01*
X200511682Y-95708891D01*
X200511681Y-95708891D01*
X200349278Y-95781197D01*
X200349276Y-95781198D01*
X200343248Y-95783882D01*
X200337907Y-95787762D01*
X200337906Y-95787763D01*
X200291833Y-95821237D01*
X200188747Y-95896134D01*
X200060960Y-96038056D01*
X199965473Y-96203444D01*
X199906458Y-96385072D01*
X199905768Y-96391633D01*
X199905768Y-96391635D01*
X199904527Y-96403444D01*
X199886496Y-96575000D01*
X184947434Y-96575000D01*
X184963199Y-96425000D01*
X184943237Y-96235072D01*
X184884222Y-96053444D01*
X184788735Y-95888056D01*
X184783398Y-95882128D01*
X184665370Y-95751045D01*
X184665369Y-95751044D01*
X184660948Y-95746134D01*
X184506447Y-95633882D01*
X184500419Y-95631198D01*
X184500417Y-95631197D01*
X184338014Y-95558891D01*
X184338013Y-95558891D01*
X184331983Y-95556206D01*
X184238583Y-95536353D01*
X184151639Y-95517872D01*
X184151634Y-95517872D01*
X184145182Y-95516500D01*
X183954208Y-95516500D01*
X183947756Y-95517872D01*
X183947751Y-95517872D01*
X183860807Y-95536353D01*
X183767407Y-95556206D01*
X183761377Y-95558891D01*
X183761376Y-95558891D01*
X183598973Y-95631197D01*
X183598971Y-95631198D01*
X183592943Y-95633882D01*
X183438442Y-95746134D01*
X183434021Y-95751044D01*
X183434020Y-95751045D01*
X183315993Y-95882128D01*
X183310655Y-95888056D01*
X183215168Y-96053444D01*
X183156153Y-96235072D01*
X183136191Y-96425000D01*
X175652555Y-96425000D01*
X175647596Y-92150000D01*
X182161496Y-92150000D01*
X182162186Y-92156565D01*
X182180129Y-92327279D01*
X182181458Y-92339928D01*
X182240473Y-92521556D01*
X182335960Y-92686944D01*
X182340378Y-92691851D01*
X182340379Y-92691852D01*
X182454678Y-92818794D01*
X182463747Y-92828866D01*
X182551930Y-92892935D01*
X182612634Y-92937039D01*
X182618248Y-92941118D01*
X182624276Y-92943802D01*
X182624278Y-92943803D01*
X182736329Y-92993691D01*
X182792712Y-93018794D01*
X182874149Y-93036104D01*
X182973056Y-93057128D01*
X182973061Y-93057128D01*
X182979513Y-93058500D01*
X183170487Y-93058500D01*
X183170487Y-93058987D01*
X183236224Y-93071010D01*
X183288070Y-93119512D01*
X183299388Y-93144609D01*
X183340473Y-93271056D01*
X183343776Y-93276778D01*
X183343777Y-93276779D01*
X183397237Y-93369374D01*
X183413975Y-93438369D01*
X183390755Y-93505461D01*
X183334948Y-93549348D01*
X183261921Y-93555621D01*
X183201944Y-93542872D01*
X183201939Y-93542872D01*
X183195487Y-93541500D01*
X183004513Y-93541500D01*
X182998061Y-93542872D01*
X182998056Y-93542872D01*
X182938079Y-93555621D01*
X182817712Y-93581206D01*
X182811682Y-93583891D01*
X182811681Y-93583891D01*
X182649278Y-93656197D01*
X182649276Y-93656198D01*
X182643248Y-93658882D01*
X182488747Y-93771134D01*
X182360960Y-93913056D01*
X182265473Y-94078444D01*
X182206458Y-94260072D01*
X182205768Y-94266633D01*
X182205768Y-94266635D01*
X182200140Y-94320180D01*
X182186496Y-94450000D01*
X182187186Y-94456565D01*
X182204635Y-94622579D01*
X182206458Y-94639928D01*
X182265473Y-94821556D01*
X182360960Y-94986944D01*
X182365378Y-94991851D01*
X182365379Y-94991852D01*
X182386744Y-95015580D01*
X182488747Y-95128866D01*
X182643248Y-95241118D01*
X182649276Y-95243802D01*
X182649278Y-95243803D01*
X182810174Y-95315438D01*
X182817712Y-95318794D01*
X182911113Y-95338647D01*
X182998056Y-95357128D01*
X182998061Y-95357128D01*
X183004513Y-95358500D01*
X183195487Y-95358500D01*
X183201939Y-95357128D01*
X183201944Y-95357128D01*
X183288888Y-95338647D01*
X183382288Y-95318794D01*
X183389826Y-95315438D01*
X183550722Y-95243803D01*
X183550724Y-95243802D01*
X183556752Y-95241118D01*
X183711253Y-95128866D01*
X183813256Y-95015580D01*
X183834621Y-94991852D01*
X183834622Y-94991851D01*
X183839040Y-94986944D01*
X183845936Y-94975000D01*
X203961496Y-94975000D01*
X203962186Y-94981565D01*
X203977152Y-95123955D01*
X203981458Y-95164928D01*
X204040473Y-95346556D01*
X204135960Y-95511944D01*
X204140378Y-95516851D01*
X204140379Y-95516852D01*
X204178231Y-95558891D01*
X204263747Y-95653866D01*
X204418248Y-95766118D01*
X204424276Y-95768802D01*
X204424278Y-95768803D01*
X204586679Y-95841108D01*
X204592712Y-95843794D01*
X204664001Y-95858947D01*
X204773056Y-95882128D01*
X204773061Y-95882128D01*
X204779513Y-95883500D01*
X204970487Y-95883500D01*
X204976939Y-95882128D01*
X204976944Y-95882128D01*
X205085999Y-95858947D01*
X205157288Y-95843794D01*
X205163315Y-95841111D01*
X205163323Y-95841108D01*
X205207952Y-95821237D01*
X205278319Y-95811802D01*
X205342616Y-95841908D01*
X205380430Y-95901996D01*
X205384512Y-95923172D01*
X205395044Y-96023374D01*
X205397034Y-96042310D01*
X205456049Y-96223938D01*
X205551536Y-96389326D01*
X205679323Y-96531248D01*
X205684664Y-96535128D01*
X205684669Y-96535133D01*
X205720616Y-96561250D01*
X205763969Y-96617472D01*
X205771864Y-96676356D01*
X205761496Y-96775000D01*
X205762186Y-96781565D01*
X205780129Y-96952279D01*
X205781458Y-96964928D01*
X205840473Y-97146556D01*
X205935960Y-97311944D01*
X205940378Y-97316851D01*
X205940379Y-97316852D01*
X206054678Y-97443794D01*
X206063747Y-97453866D01*
X206218248Y-97566118D01*
X206224276Y-97568802D01*
X206224278Y-97568803D01*
X206386681Y-97641109D01*
X206392712Y-97643794D01*
X206486113Y-97663647D01*
X206573056Y-97682128D01*
X206573061Y-97682128D01*
X206579513Y-97683500D01*
X206770487Y-97683500D01*
X206776939Y-97682128D01*
X206776944Y-97682128D01*
X206863887Y-97663647D01*
X206957288Y-97643794D01*
X206963319Y-97641109D01*
X207125722Y-97568803D01*
X207125724Y-97568802D01*
X207131752Y-97566118D01*
X207286253Y-97453866D01*
X207295322Y-97443794D01*
X207409621Y-97316852D01*
X207409622Y-97316851D01*
X207414040Y-97311944D01*
X207509527Y-97146556D01*
X207568542Y-96964928D01*
X207569872Y-96952279D01*
X207587814Y-96781565D01*
X207588504Y-96775000D01*
X207572340Y-96621206D01*
X207569232Y-96591635D01*
X207569232Y-96591633D01*
X207568542Y-96585072D01*
X207509527Y-96403444D01*
X207414040Y-96238056D01*
X207405701Y-96228794D01*
X207290675Y-96101045D01*
X207290674Y-96101044D01*
X207286253Y-96096134D01*
X207280912Y-96092254D01*
X207280907Y-96092249D01*
X207244960Y-96066132D01*
X207201607Y-96009910D01*
X207193712Y-95951026D01*
X207199730Y-95893774D01*
X207204080Y-95852382D01*
X207197288Y-95787763D01*
X207184808Y-95669017D01*
X207184808Y-95669015D01*
X207184118Y-95662454D01*
X207125103Y-95480826D01*
X207029616Y-95315438D01*
X206901829Y-95173516D01*
X206747328Y-95061264D01*
X206741300Y-95058580D01*
X206741298Y-95058579D01*
X206578895Y-94986273D01*
X206578894Y-94986273D01*
X206572864Y-94983588D01*
X206479463Y-94963735D01*
X206392520Y-94945254D01*
X206392515Y-94945254D01*
X206386063Y-94943882D01*
X206195089Y-94943882D01*
X206188637Y-94945254D01*
X206188632Y-94945254D01*
X206101689Y-94963735D01*
X206008288Y-94983588D01*
X206002261Y-94986271D01*
X206002253Y-94986274D01*
X205957624Y-95006145D01*
X205887257Y-95015580D01*
X205822960Y-94985474D01*
X205785146Y-94925386D01*
X205781064Y-94904210D01*
X205769232Y-94791635D01*
X205769232Y-94791633D01*
X205768542Y-94785072D01*
X205709527Y-94603444D01*
X205614040Y-94438056D01*
X205509050Y-94321452D01*
X205490675Y-94301045D01*
X205490674Y-94301044D01*
X205486253Y-94296134D01*
X205480909Y-94292251D01*
X205480905Y-94292247D01*
X205433216Y-94257600D01*
X205389861Y-94201378D01*
X205383785Y-94130642D01*
X205416917Y-94067850D01*
X205433215Y-94053728D01*
X205483216Y-94017400D01*
X205536253Y-93978866D01*
X205643949Y-93859257D01*
X205659621Y-93841852D01*
X205659622Y-93841851D01*
X205664040Y-93836944D01*
X205759527Y-93671556D01*
X205818542Y-93489928D01*
X205823648Y-93441352D01*
X205837814Y-93306565D01*
X205838504Y-93300000D01*
X205835396Y-93270433D01*
X205819232Y-93116635D01*
X205819232Y-93116633D01*
X205818542Y-93110072D01*
X205759527Y-92928444D01*
X205715257Y-92851766D01*
X205698520Y-92782771D01*
X205721741Y-92715679D01*
X205730741Y-92704457D01*
X205809621Y-92616852D01*
X205809622Y-92616851D01*
X205814040Y-92611944D01*
X205909527Y-92446556D01*
X205968542Y-92264928D01*
X205973198Y-92220634D01*
X205987814Y-92081565D01*
X205988504Y-92075000D01*
X205975366Y-91950000D01*
X206636496Y-91950000D01*
X206656458Y-92139928D01*
X206715473Y-92321556D01*
X206718776Y-92327278D01*
X206718777Y-92327279D01*
X206726080Y-92339928D01*
X206810960Y-92486944D01*
X206815378Y-92491851D01*
X206815379Y-92491852D01*
X206928207Y-92617160D01*
X206938747Y-92628866D01*
X207093248Y-92741118D01*
X207099276Y-92743802D01*
X207099278Y-92743803D01*
X207256365Y-92813742D01*
X207267712Y-92818794D01*
X207359560Y-92838317D01*
X207448056Y-92857128D01*
X207448061Y-92857128D01*
X207454513Y-92858500D01*
X207645487Y-92858500D01*
X207651939Y-92857128D01*
X207651944Y-92857128D01*
X207740440Y-92838317D01*
X207832288Y-92818794D01*
X207843635Y-92813742D01*
X208000722Y-92743803D01*
X208000724Y-92743802D01*
X208006752Y-92741118D01*
X208161253Y-92628866D01*
X208171793Y-92617160D01*
X208284621Y-92491852D01*
X208284622Y-92491851D01*
X208289040Y-92486944D01*
X208373920Y-92339928D01*
X208381223Y-92327279D01*
X208381224Y-92327278D01*
X208384527Y-92321556D01*
X208443542Y-92139928D01*
X208463504Y-91950000D01*
X208445221Y-91776045D01*
X208444232Y-91766635D01*
X208444232Y-91766633D01*
X208444007Y-91764494D01*
X212367170Y-91764494D01*
X212367467Y-91769646D01*
X212367467Y-91769650D01*
X212377866Y-91950000D01*
X212380879Y-92002255D01*
X212382016Y-92007301D01*
X212382017Y-92007307D01*
X212392152Y-92052279D01*
X212433237Y-92234585D01*
X212435179Y-92239367D01*
X212435180Y-92239371D01*
X212520893Y-92450457D01*
X212522837Y-92455244D01*
X212647274Y-92658306D01*
X212803204Y-92838317D01*
X212986442Y-92990444D01*
X212990894Y-92993046D01*
X212990899Y-92993049D01*
X213155832Y-93089428D01*
X213192065Y-93110601D01*
X213414552Y-93195560D01*
X213419618Y-93196591D01*
X213419619Y-93196591D01*
X213473956Y-93207646D01*
X213647928Y-93243041D01*
X213781284Y-93247931D01*
X213880760Y-93251579D01*
X213880764Y-93251579D01*
X213885924Y-93251768D01*
X213891044Y-93251112D01*
X213891046Y-93251112D01*
X214117023Y-93222164D01*
X214117024Y-93222164D01*
X214122151Y-93221507D01*
X214205200Y-93196591D01*
X214345316Y-93154554D01*
X214345317Y-93154553D01*
X214350262Y-93153070D01*
X214564133Y-93048295D01*
X214568336Y-93045297D01*
X214568341Y-93045294D01*
X214753816Y-92912996D01*
X214753818Y-92912994D01*
X214758020Y-92909997D01*
X214926716Y-92741889D01*
X214984979Y-92660807D01*
X215040972Y-92617160D01*
X215111676Y-92610714D01*
X215174640Y-92643516D01*
X215186582Y-92657176D01*
X215187274Y-92658306D01*
X215343204Y-92838317D01*
X215526442Y-92990444D01*
X215530894Y-92993046D01*
X215530899Y-92993049D01*
X215695832Y-93089428D01*
X215732065Y-93110601D01*
X215954552Y-93195560D01*
X215959618Y-93196591D01*
X215959619Y-93196591D01*
X216013956Y-93207646D01*
X216187928Y-93243041D01*
X216321284Y-93247931D01*
X216420760Y-93251579D01*
X216420764Y-93251579D01*
X216425924Y-93251768D01*
X216431044Y-93251112D01*
X216431046Y-93251112D01*
X216657023Y-93222164D01*
X216657024Y-93222164D01*
X216662151Y-93221507D01*
X216745200Y-93196591D01*
X216885316Y-93154554D01*
X216885317Y-93154553D01*
X216890262Y-93153070D01*
X217104133Y-93048295D01*
X217108336Y-93045297D01*
X217108341Y-93045294D01*
X217293816Y-92912996D01*
X217293818Y-92912994D01*
X217298020Y-92909997D01*
X217466716Y-92741889D01*
X217524979Y-92660807D01*
X217580972Y-92617160D01*
X217651676Y-92610714D01*
X217714640Y-92643516D01*
X217726582Y-92657176D01*
X217727274Y-92658306D01*
X217883204Y-92838317D01*
X218066442Y-92990444D01*
X218070894Y-92993046D01*
X218070899Y-92993049D01*
X218235832Y-93089428D01*
X218272065Y-93110601D01*
X218494552Y-93195560D01*
X218499618Y-93196591D01*
X218499619Y-93196591D01*
X218553956Y-93207646D01*
X218727928Y-93243041D01*
X218861284Y-93247931D01*
X218960760Y-93251579D01*
X218960764Y-93251579D01*
X218965924Y-93251768D01*
X218971044Y-93251112D01*
X218971046Y-93251112D01*
X219197023Y-93222164D01*
X219197024Y-93222164D01*
X219202151Y-93221507D01*
X219285200Y-93196591D01*
X219425316Y-93154554D01*
X219425317Y-93154553D01*
X219430262Y-93153070D01*
X219644133Y-93048295D01*
X219648336Y-93045297D01*
X219648341Y-93045294D01*
X219833816Y-92912996D01*
X219833818Y-92912994D01*
X219838020Y-92909997D01*
X220006716Y-92741889D01*
X220064979Y-92660807D01*
X220120972Y-92617160D01*
X220191676Y-92610714D01*
X220254640Y-92643516D01*
X220266582Y-92657176D01*
X220267274Y-92658306D01*
X220423204Y-92838317D01*
X220606442Y-92990444D01*
X220610894Y-92993046D01*
X220610899Y-92993049D01*
X220775832Y-93089428D01*
X220812065Y-93110601D01*
X221034552Y-93195560D01*
X221039618Y-93196591D01*
X221039619Y-93196591D01*
X221093956Y-93207646D01*
X221267928Y-93243041D01*
X221401284Y-93247931D01*
X221500760Y-93251579D01*
X221500764Y-93251579D01*
X221505924Y-93251768D01*
X221511044Y-93251112D01*
X221511046Y-93251112D01*
X221737023Y-93222164D01*
X221737024Y-93222164D01*
X221742151Y-93221507D01*
X221825200Y-93196591D01*
X221965316Y-93154554D01*
X221965317Y-93154553D01*
X221970262Y-93153070D01*
X222184133Y-93048295D01*
X222188336Y-93045297D01*
X222188341Y-93045294D01*
X222373816Y-92912996D01*
X222373818Y-92912994D01*
X222378020Y-92909997D01*
X222546716Y-92741889D01*
X222604979Y-92660807D01*
X222660972Y-92617160D01*
X222731676Y-92610714D01*
X222794640Y-92643516D01*
X222806582Y-92657176D01*
X222807274Y-92658306D01*
X222963204Y-92838317D01*
X223146442Y-92990444D01*
X223150894Y-92993046D01*
X223150899Y-92993049D01*
X223315832Y-93089428D01*
X223352065Y-93110601D01*
X223574552Y-93195560D01*
X223579618Y-93196591D01*
X223579619Y-93196591D01*
X223633956Y-93207646D01*
X223807928Y-93243041D01*
X223941284Y-93247931D01*
X224040760Y-93251579D01*
X224040764Y-93251579D01*
X224045924Y-93251768D01*
X224051044Y-93251112D01*
X224051046Y-93251112D01*
X224277023Y-93222164D01*
X224277024Y-93222164D01*
X224282151Y-93221507D01*
X224365200Y-93196591D01*
X224505316Y-93154554D01*
X224505317Y-93154553D01*
X224510262Y-93153070D01*
X224724133Y-93048295D01*
X224728336Y-93045297D01*
X224728341Y-93045294D01*
X224913810Y-92913000D01*
X224918020Y-92909997D01*
X224920601Y-92907425D01*
X224985135Y-92878913D01*
X225055278Y-92889886D01*
X225108355Y-92937039D01*
X225119502Y-92959610D01*
X225129585Y-92986505D01*
X225216939Y-93103061D01*
X225333495Y-93190415D01*
X225469884Y-93241545D01*
X225532066Y-93248300D01*
X227507934Y-93248300D01*
X227570116Y-93241545D01*
X227706505Y-93190415D01*
X227823061Y-93103061D01*
X227910415Y-92986505D01*
X227961545Y-92850116D01*
X227968300Y-92787934D01*
X227968300Y-90812066D01*
X227961545Y-90749884D01*
X227910415Y-90613495D01*
X227823061Y-90496939D01*
X227706505Y-90409585D01*
X227570116Y-90358455D01*
X227507934Y-90351700D01*
X225532066Y-90351700D01*
X225469884Y-90358455D01*
X225333495Y-90409585D01*
X225216939Y-90496939D01*
X225129585Y-90613495D01*
X225126433Y-90621903D01*
X225118218Y-90643816D01*
X225075576Y-90700580D01*
X225009014Y-90725280D01*
X224939666Y-90710072D01*
X224922144Y-90698468D01*
X224788278Y-90592747D01*
X224788273Y-90592744D01*
X224784224Y-90589546D01*
X224779708Y-90587053D01*
X224779705Y-90587051D01*
X224580250Y-90476946D01*
X224580246Y-90476944D01*
X224575726Y-90474449D01*
X224570857Y-90472725D01*
X224570853Y-90472723D01*
X224356105Y-90396676D01*
X224356101Y-90396675D01*
X224351230Y-90394950D01*
X224346140Y-90394043D01*
X224346135Y-90394042D01*
X224218814Y-90371364D01*
X224116764Y-90353186D01*
X224025355Y-90352069D01*
X223883795Y-90350339D01*
X223883793Y-90350339D01*
X223878625Y-90350276D01*
X223643209Y-90386300D01*
X223416838Y-90460289D01*
X223392953Y-90472723D01*
X223244740Y-90549878D01*
X223205590Y-90570258D01*
X223201457Y-90573361D01*
X223201454Y-90573363D01*
X223019375Y-90710072D01*
X223015140Y-90713252D01*
X223011568Y-90716990D01*
X222896155Y-90837763D01*
X222850602Y-90885431D01*
X222817545Y-90933891D01*
X222815186Y-90937349D01*
X222760274Y-90982351D01*
X222689749Y-90990522D01*
X222626002Y-90959267D01*
X222605306Y-90934784D01*
X222594217Y-90917642D01*
X222594212Y-90917636D01*
X222591406Y-90913298D01*
X222571572Y-90891500D01*
X222531700Y-90847682D01*
X222431124Y-90737150D01*
X222427073Y-90733951D01*
X222427069Y-90733947D01*
X222248278Y-90592747D01*
X222248273Y-90592744D01*
X222244224Y-90589546D01*
X222239708Y-90587053D01*
X222239705Y-90587051D01*
X222040250Y-90476946D01*
X222040246Y-90476944D01*
X222035726Y-90474449D01*
X222030857Y-90472725D01*
X222030853Y-90472723D01*
X221816105Y-90396676D01*
X221816101Y-90396675D01*
X221811230Y-90394950D01*
X221806140Y-90394043D01*
X221806135Y-90394042D01*
X221678814Y-90371364D01*
X221576764Y-90353186D01*
X221485355Y-90352069D01*
X221343795Y-90350339D01*
X221343793Y-90350339D01*
X221338625Y-90350276D01*
X221103209Y-90386300D01*
X220876838Y-90460289D01*
X220852953Y-90472723D01*
X220704740Y-90549878D01*
X220665590Y-90570258D01*
X220661457Y-90573361D01*
X220661454Y-90573363D01*
X220479375Y-90710072D01*
X220475140Y-90713252D01*
X220471568Y-90716990D01*
X220356155Y-90837763D01*
X220310602Y-90885431D01*
X220277545Y-90933891D01*
X220275186Y-90937349D01*
X220220274Y-90982351D01*
X220149749Y-90990522D01*
X220086002Y-90959267D01*
X220065306Y-90934784D01*
X220054217Y-90917642D01*
X220054212Y-90917636D01*
X220051406Y-90913298D01*
X220031572Y-90891500D01*
X219991700Y-90847682D01*
X219891124Y-90737150D01*
X219887073Y-90733951D01*
X219887069Y-90733947D01*
X219708278Y-90592747D01*
X219708273Y-90592744D01*
X219704224Y-90589546D01*
X219699708Y-90587053D01*
X219699705Y-90587051D01*
X219500250Y-90476946D01*
X219500246Y-90476944D01*
X219495726Y-90474449D01*
X219490857Y-90472725D01*
X219490853Y-90472723D01*
X219276105Y-90396676D01*
X219276101Y-90396675D01*
X219271230Y-90394950D01*
X219266140Y-90394043D01*
X219266135Y-90394042D01*
X219138814Y-90371364D01*
X219036764Y-90353186D01*
X218945355Y-90352069D01*
X218803795Y-90350339D01*
X218803793Y-90350339D01*
X218798625Y-90350276D01*
X218563209Y-90386300D01*
X218336838Y-90460289D01*
X218312953Y-90472723D01*
X218164740Y-90549878D01*
X218125590Y-90570258D01*
X218121457Y-90573361D01*
X218121454Y-90573363D01*
X217939375Y-90710072D01*
X217935140Y-90713252D01*
X217931568Y-90716990D01*
X217816155Y-90837763D01*
X217770602Y-90885431D01*
X217737545Y-90933891D01*
X217735186Y-90937349D01*
X217680274Y-90982351D01*
X217609749Y-90990522D01*
X217546002Y-90959267D01*
X217525306Y-90934784D01*
X217514217Y-90917642D01*
X217514212Y-90917636D01*
X217511406Y-90913298D01*
X217491572Y-90891500D01*
X217451700Y-90847682D01*
X217351124Y-90737150D01*
X217347073Y-90733951D01*
X217347069Y-90733947D01*
X217168278Y-90592747D01*
X217168273Y-90592744D01*
X217164224Y-90589546D01*
X217159708Y-90587053D01*
X217159705Y-90587051D01*
X216960250Y-90476946D01*
X216960246Y-90476944D01*
X216955726Y-90474449D01*
X216950857Y-90472725D01*
X216950853Y-90472723D01*
X216736105Y-90396676D01*
X216736101Y-90396675D01*
X216731230Y-90394950D01*
X216726140Y-90394043D01*
X216726135Y-90394042D01*
X216598814Y-90371364D01*
X216496764Y-90353186D01*
X216405355Y-90352069D01*
X216263795Y-90350339D01*
X216263793Y-90350339D01*
X216258625Y-90350276D01*
X216023209Y-90386300D01*
X215796838Y-90460289D01*
X215772953Y-90472723D01*
X215624740Y-90549878D01*
X215585590Y-90570258D01*
X215581457Y-90573361D01*
X215581454Y-90573363D01*
X215399375Y-90710072D01*
X215395140Y-90713252D01*
X215391568Y-90716990D01*
X215276155Y-90837763D01*
X215230602Y-90885431D01*
X215197545Y-90933891D01*
X215195186Y-90937349D01*
X215140274Y-90982351D01*
X215069749Y-90990522D01*
X215006002Y-90959267D01*
X214985306Y-90934784D01*
X214974217Y-90917642D01*
X214974212Y-90917636D01*
X214971406Y-90913298D01*
X214951572Y-90891500D01*
X214911700Y-90847682D01*
X214811124Y-90737150D01*
X214807073Y-90733951D01*
X214807069Y-90733947D01*
X214628278Y-90592747D01*
X214628273Y-90592744D01*
X214624224Y-90589546D01*
X214619708Y-90587053D01*
X214619705Y-90587051D01*
X214420250Y-90476946D01*
X214420246Y-90476944D01*
X214415726Y-90474449D01*
X214410857Y-90472725D01*
X214410853Y-90472723D01*
X214196105Y-90396676D01*
X214196101Y-90396675D01*
X214191230Y-90394950D01*
X214186140Y-90394043D01*
X214186135Y-90394042D01*
X214058814Y-90371364D01*
X213956764Y-90353186D01*
X213865355Y-90352069D01*
X213723795Y-90350339D01*
X213723793Y-90350339D01*
X213718625Y-90350276D01*
X213483209Y-90386300D01*
X213256838Y-90460289D01*
X213232953Y-90472723D01*
X213084740Y-90549878D01*
X213045590Y-90570258D01*
X213041457Y-90573361D01*
X213041454Y-90573363D01*
X212859375Y-90710072D01*
X212855140Y-90713252D01*
X212851568Y-90716990D01*
X212736155Y-90837763D01*
X212690602Y-90885431D01*
X212687691Y-90889699D01*
X212687687Y-90889704D01*
X212655837Y-90936395D01*
X212556394Y-91082172D01*
X212522033Y-91156197D01*
X212462760Y-91283891D01*
X212456122Y-91298191D01*
X212392477Y-91527685D01*
X212391928Y-91532819D01*
X212391928Y-91532821D01*
X212390758Y-91543774D01*
X212367170Y-91764494D01*
X208444007Y-91764494D01*
X208443542Y-91760072D01*
X208384527Y-91578444D01*
X208365106Y-91544805D01*
X208334408Y-91491635D01*
X208289040Y-91413056D01*
X208273804Y-91396134D01*
X208165675Y-91276045D01*
X208165674Y-91276044D01*
X208161253Y-91271134D01*
X208054804Y-91193794D01*
X208012094Y-91162763D01*
X208012093Y-91162762D01*
X208006752Y-91158882D01*
X208000724Y-91156198D01*
X208000722Y-91156197D01*
X207838319Y-91083891D01*
X207838318Y-91083891D01*
X207832288Y-91081206D01*
X207738887Y-91061353D01*
X207651944Y-91042872D01*
X207651939Y-91042872D01*
X207645487Y-91041500D01*
X207454513Y-91041500D01*
X207448061Y-91042872D01*
X207448056Y-91042872D01*
X207361113Y-91061353D01*
X207267712Y-91081206D01*
X207261682Y-91083891D01*
X207261681Y-91083891D01*
X207099278Y-91156197D01*
X207099276Y-91156198D01*
X207093248Y-91158882D01*
X207087907Y-91162762D01*
X207087906Y-91162763D01*
X207045196Y-91193794D01*
X206938747Y-91271134D01*
X206934326Y-91276044D01*
X206934325Y-91276045D01*
X206826197Y-91396134D01*
X206810960Y-91413056D01*
X206765592Y-91491635D01*
X206734895Y-91544805D01*
X206715473Y-91578444D01*
X206656458Y-91760072D01*
X206655768Y-91766633D01*
X206655768Y-91766635D01*
X206654779Y-91776045D01*
X206636496Y-91950000D01*
X205975366Y-91950000D01*
X205971483Y-91913056D01*
X205969232Y-91891635D01*
X205969232Y-91891633D01*
X205968542Y-91885072D01*
X205909527Y-91703444D01*
X205814040Y-91538056D01*
X205809327Y-91532821D01*
X205690675Y-91401045D01*
X205690674Y-91401044D01*
X205686253Y-91396134D01*
X205558677Y-91303444D01*
X205537094Y-91287763D01*
X205537093Y-91287762D01*
X205531752Y-91283882D01*
X205525724Y-91281198D01*
X205525722Y-91281197D01*
X205363319Y-91208891D01*
X205363318Y-91208891D01*
X205357288Y-91206206D01*
X205263887Y-91186353D01*
X205176944Y-91167872D01*
X205176939Y-91167872D01*
X205170487Y-91166500D01*
X204979513Y-91166500D01*
X204973061Y-91167872D01*
X204973056Y-91167872D01*
X204886113Y-91186353D01*
X204792712Y-91206206D01*
X204786682Y-91208891D01*
X204786681Y-91208891D01*
X204624278Y-91281197D01*
X204624276Y-91281198D01*
X204618248Y-91283882D01*
X204612907Y-91287762D01*
X204612906Y-91287763D01*
X204591323Y-91303444D01*
X204463747Y-91396134D01*
X204459326Y-91401044D01*
X204459325Y-91401045D01*
X204340674Y-91532821D01*
X204335960Y-91538056D01*
X204240473Y-91703444D01*
X204181458Y-91885072D01*
X204180768Y-91891633D01*
X204180768Y-91891635D01*
X204178517Y-91913056D01*
X204161496Y-92075000D01*
X204162186Y-92081565D01*
X204176803Y-92220634D01*
X204181458Y-92264928D01*
X204240473Y-92446556D01*
X204260490Y-92481226D01*
X204284743Y-92523234D01*
X204301480Y-92592229D01*
X204278259Y-92659321D01*
X204269259Y-92670543D01*
X204209208Y-92737237D01*
X204185960Y-92763056D01*
X204135696Y-92850116D01*
X204099390Y-92913000D01*
X204090473Y-92928444D01*
X204031458Y-93110072D01*
X204030768Y-93116633D01*
X204030768Y-93116635D01*
X204014604Y-93270433D01*
X204011496Y-93300000D01*
X204012186Y-93306565D01*
X204026353Y-93441352D01*
X204031458Y-93489928D01*
X204090473Y-93671556D01*
X204185960Y-93836944D01*
X204190378Y-93841851D01*
X204190379Y-93841852D01*
X204206051Y-93859257D01*
X204313747Y-93978866D01*
X204319087Y-93982746D01*
X204319095Y-93982753D01*
X204366784Y-94017400D01*
X204410139Y-94073622D01*
X204416215Y-94144358D01*
X204383083Y-94207150D01*
X204366785Y-94221272D01*
X204263747Y-94296134D01*
X204259326Y-94301044D01*
X204259325Y-94301045D01*
X204240951Y-94321452D01*
X204135960Y-94438056D01*
X204040473Y-94603444D01*
X203981458Y-94785072D01*
X203980768Y-94791633D01*
X203980768Y-94791635D01*
X203978284Y-94815271D01*
X203961496Y-94975000D01*
X183845936Y-94975000D01*
X183934527Y-94821556D01*
X183993542Y-94639928D01*
X183995366Y-94622579D01*
X184012814Y-94456565D01*
X184013504Y-94450000D01*
X183999860Y-94320180D01*
X183994232Y-94266635D01*
X183994232Y-94266633D01*
X183993542Y-94260072D01*
X183934527Y-94078444D01*
X183877763Y-93980126D01*
X183861025Y-93911131D01*
X183884245Y-93844039D01*
X183940052Y-93800152D01*
X184013079Y-93793879D01*
X184073056Y-93806628D01*
X184073061Y-93806628D01*
X184079513Y-93808000D01*
X184270487Y-93808000D01*
X184276939Y-93806628D01*
X184276944Y-93806628D01*
X184373212Y-93786165D01*
X184457288Y-93768294D01*
X184478846Y-93758696D01*
X184625722Y-93693303D01*
X184625724Y-93693302D01*
X184631752Y-93690618D01*
X184650112Y-93677279D01*
X184687157Y-93650364D01*
X184786253Y-93578366D01*
X184914040Y-93436444D01*
X184992816Y-93300000D01*
X185006223Y-93276779D01*
X185006224Y-93276778D01*
X185009527Y-93271056D01*
X185068542Y-93089428D01*
X185071742Y-93058987D01*
X185087814Y-92906065D01*
X185088504Y-92899500D01*
X185082421Y-92841619D01*
X185069232Y-92716135D01*
X185069232Y-92716133D01*
X185068542Y-92709572D01*
X185009527Y-92527944D01*
X184989811Y-92493794D01*
X184964526Y-92450000D01*
X184914040Y-92362556D01*
X184906216Y-92353866D01*
X184790675Y-92225545D01*
X184790674Y-92225544D01*
X184786253Y-92220634D01*
X184631752Y-92108382D01*
X184625724Y-92105698D01*
X184625722Y-92105697D01*
X184463319Y-92033391D01*
X184463318Y-92033391D01*
X184457288Y-92030706D01*
X184347205Y-92007307D01*
X184276944Y-91992372D01*
X184276939Y-91992372D01*
X184270487Y-91991000D01*
X184079513Y-91991000D01*
X184079513Y-91990513D01*
X184013776Y-91978490D01*
X183961930Y-91929988D01*
X183950612Y-91904890D01*
X183939667Y-91871206D01*
X183909527Y-91778444D01*
X183898510Y-91759361D01*
X183840498Y-91658882D01*
X183814040Y-91613056D01*
X183805701Y-91603794D01*
X183690675Y-91476045D01*
X183690674Y-91476044D01*
X183686253Y-91471134D01*
X183531752Y-91358882D01*
X183525724Y-91356198D01*
X183525722Y-91356197D01*
X183363319Y-91283891D01*
X183363318Y-91283891D01*
X183357288Y-91281206D01*
X183263888Y-91261353D01*
X183176944Y-91242872D01*
X183176939Y-91242872D01*
X183170487Y-91241500D01*
X182979513Y-91241500D01*
X182973061Y-91242872D01*
X182973056Y-91242872D01*
X182886112Y-91261353D01*
X182792712Y-91281206D01*
X182786682Y-91283891D01*
X182786681Y-91283891D01*
X182624278Y-91356197D01*
X182624276Y-91356198D01*
X182618248Y-91358882D01*
X182463747Y-91471134D01*
X182459326Y-91476044D01*
X182459325Y-91476045D01*
X182344300Y-91603794D01*
X182335960Y-91613056D01*
X182309502Y-91658882D01*
X182251491Y-91759361D01*
X182240473Y-91778444D01*
X182181458Y-91960072D01*
X182180768Y-91966633D01*
X182180768Y-91966635D01*
X182178207Y-91991000D01*
X182161496Y-92150000D01*
X175647596Y-92150000D01*
X175645479Y-90325000D01*
X184511496Y-90325000D01*
X184512186Y-90331565D01*
X184528972Y-90491272D01*
X184531458Y-90514928D01*
X184590473Y-90696556D01*
X184593776Y-90702278D01*
X184593777Y-90702279D01*
X184602780Y-90717872D01*
X184685960Y-90861944D01*
X184690378Y-90866851D01*
X184690379Y-90866852D01*
X184747088Y-90929834D01*
X184813747Y-91003866D01*
X184860781Y-91038038D01*
X184951385Y-91103866D01*
X184968248Y-91116118D01*
X184974276Y-91118802D01*
X184974278Y-91118803D01*
X185081408Y-91166500D01*
X185142712Y-91193794D01*
X185229479Y-91212237D01*
X185323056Y-91232128D01*
X185323061Y-91232128D01*
X185329513Y-91233500D01*
X185520487Y-91233500D01*
X185526939Y-91232128D01*
X185526944Y-91232128D01*
X185620521Y-91212237D01*
X185707288Y-91193794D01*
X185768592Y-91166500D01*
X185875722Y-91118803D01*
X185875724Y-91118802D01*
X185881752Y-91116118D01*
X185898616Y-91103866D01*
X185989219Y-91038038D01*
X186036253Y-91003866D01*
X186102912Y-90929834D01*
X186159621Y-90866852D01*
X186159622Y-90866851D01*
X186164040Y-90861944D01*
X186247220Y-90717872D01*
X186256223Y-90702279D01*
X186256224Y-90702278D01*
X186259527Y-90696556D01*
X186307186Y-90549878D01*
X186347260Y-90491272D01*
X186412656Y-90463635D01*
X186482613Y-90475742D01*
X186534919Y-90523748D01*
X186552329Y-90575643D01*
X186556458Y-90614928D01*
X186615473Y-90796556D01*
X186618776Y-90802278D01*
X186618777Y-90802279D01*
X186635473Y-90831197D01*
X186710960Y-90961944D01*
X186715378Y-90966851D01*
X186715379Y-90966852D01*
X186818344Y-91081206D01*
X186838747Y-91103866D01*
X186993248Y-91216118D01*
X186999276Y-91218802D01*
X186999278Y-91218803D01*
X187145449Y-91283882D01*
X187167712Y-91293794D01*
X187188963Y-91298311D01*
X187251436Y-91332039D01*
X187285758Y-91394189D01*
X187281030Y-91465028D01*
X187238754Y-91522065D01*
X187188963Y-91544805D01*
X187129642Y-91557414D01*
X187017712Y-91581206D01*
X187011682Y-91583891D01*
X187011681Y-91583891D01*
X186849278Y-91656197D01*
X186849276Y-91656198D01*
X186843248Y-91658882D01*
X186837907Y-91662762D01*
X186837906Y-91662763D01*
X186812028Y-91681565D01*
X186688747Y-91771134D01*
X186684326Y-91776044D01*
X186684325Y-91776045D01*
X186580248Y-91891635D01*
X186560960Y-91913056D01*
X186537440Y-91953794D01*
X186483884Y-92046556D01*
X186465473Y-92078444D01*
X186406458Y-92260072D01*
X186405768Y-92266633D01*
X186405768Y-92266635D01*
X186398084Y-92339747D01*
X186386496Y-92450000D01*
X186387186Y-92456565D01*
X186404483Y-92621134D01*
X186406458Y-92639928D01*
X186465473Y-92821556D01*
X186468776Y-92827278D01*
X186468777Y-92827279D01*
X186486234Y-92857515D01*
X186560960Y-92986944D01*
X186565378Y-92991851D01*
X186565379Y-92991852D01*
X186670357Y-93108442D01*
X186688747Y-93128866D01*
X186843248Y-93241118D01*
X186849283Y-93243805D01*
X186909088Y-93270433D01*
X186963183Y-93316413D01*
X186983832Y-93384340D01*
X186983148Y-93398709D01*
X186981184Y-93417398D01*
X186973795Y-93487701D01*
X186974485Y-93494266D01*
X186992195Y-93662763D01*
X186993757Y-93677629D01*
X187052772Y-93859257D01*
X187056075Y-93864979D01*
X187056076Y-93864980D01*
X187083833Y-93913056D01*
X187148259Y-94024645D01*
X187152677Y-94029552D01*
X187152678Y-94029553D01*
X187243699Y-94130642D01*
X187276046Y-94166567D01*
X187430547Y-94278819D01*
X187436575Y-94281503D01*
X187436577Y-94281504D01*
X187572358Y-94341957D01*
X187605011Y-94356495D01*
X187698412Y-94376348D01*
X187785355Y-94394829D01*
X187785360Y-94394829D01*
X187791812Y-94396201D01*
X187982786Y-94396201D01*
X187989238Y-94394829D01*
X187989243Y-94394829D01*
X188136826Y-94363459D01*
X188207617Y-94368861D01*
X188256658Y-94402394D01*
X188307145Y-94458466D01*
X188461646Y-94570718D01*
X188467674Y-94573402D01*
X188467676Y-94573403D01*
X188597880Y-94631373D01*
X188636110Y-94648394D01*
X188729510Y-94668247D01*
X188816454Y-94686728D01*
X188816459Y-94686728D01*
X188822911Y-94688100D01*
X189013885Y-94688100D01*
X189020337Y-94686728D01*
X189020342Y-94686728D01*
X189107285Y-94668247D01*
X189200686Y-94648394D01*
X189238916Y-94631373D01*
X189369120Y-94573403D01*
X189369122Y-94573402D01*
X189375150Y-94570718D01*
X189529651Y-94458466D01*
X189548028Y-94438056D01*
X189653019Y-94321452D01*
X189653020Y-94321451D01*
X189657438Y-94316544D01*
X189741786Y-94170450D01*
X189749621Y-94156879D01*
X189749622Y-94156878D01*
X189752925Y-94151156D01*
X189811940Y-93969528D01*
X189814137Y-93948624D01*
X190449252Y-93948624D01*
X190449942Y-93955189D01*
X190468383Y-94130642D01*
X190469214Y-94138552D01*
X190528229Y-94320180D01*
X190531532Y-94325902D01*
X190531533Y-94325903D01*
X190549988Y-94357867D01*
X190623716Y-94485568D01*
X190751503Y-94627490D01*
X190906004Y-94739742D01*
X190912032Y-94742426D01*
X190912034Y-94742427D01*
X191007817Y-94785072D01*
X191080468Y-94817418D01*
X191173869Y-94837271D01*
X191260812Y-94855752D01*
X191260817Y-94855752D01*
X191267269Y-94857124D01*
X191458243Y-94857124D01*
X191464695Y-94855752D01*
X191464700Y-94855752D01*
X191551643Y-94837271D01*
X191645044Y-94817418D01*
X191717695Y-94785072D01*
X191813478Y-94742427D01*
X191813480Y-94742426D01*
X191819508Y-94739742D01*
X191974009Y-94627490D01*
X192101796Y-94485568D01*
X192175524Y-94357867D01*
X192193979Y-94325903D01*
X192193980Y-94325902D01*
X192197283Y-94320180D01*
X192256298Y-94138552D01*
X192257130Y-94130642D01*
X192275570Y-93955189D01*
X192276260Y-93948624D01*
X192258495Y-93779600D01*
X192256988Y-93765259D01*
X192256988Y-93765257D01*
X192256298Y-93758696D01*
X192197283Y-93577068D01*
X192101796Y-93411680D01*
X192008142Y-93307666D01*
X191978431Y-93274669D01*
X191978430Y-93274668D01*
X191974009Y-93269758D01*
X191819508Y-93157506D01*
X191813480Y-93154822D01*
X191813478Y-93154821D01*
X191651075Y-93082515D01*
X191651074Y-93082515D01*
X191645044Y-93079830D01*
X191544695Y-93058500D01*
X191464700Y-93041496D01*
X191464695Y-93041496D01*
X191458243Y-93040124D01*
X191267269Y-93040124D01*
X191260817Y-93041496D01*
X191260812Y-93041496D01*
X191180817Y-93058500D01*
X191080468Y-93079830D01*
X191074438Y-93082515D01*
X191074437Y-93082515D01*
X190912034Y-93154821D01*
X190912032Y-93154822D01*
X190906004Y-93157506D01*
X190751503Y-93269758D01*
X190747082Y-93274668D01*
X190747081Y-93274669D01*
X190717371Y-93307666D01*
X190623716Y-93411680D01*
X190528229Y-93577068D01*
X190469214Y-93758696D01*
X190468524Y-93765257D01*
X190468524Y-93765259D01*
X190467017Y-93779600D01*
X190449252Y-93948624D01*
X189814137Y-93948624D01*
X189817275Y-93918774D01*
X189831212Y-93786165D01*
X189831902Y-93779600D01*
X189811940Y-93589672D01*
X189752925Y-93408044D01*
X189747536Y-93398709D01*
X189673085Y-93269758D01*
X189657438Y-93242656D01*
X189638396Y-93221507D01*
X189534073Y-93105645D01*
X189534072Y-93105644D01*
X189529651Y-93100734D01*
X189375150Y-92988482D01*
X189369122Y-92985798D01*
X189369120Y-92985797D01*
X189206717Y-92913491D01*
X189206716Y-92913491D01*
X189200686Y-92910806D01*
X189102266Y-92889886D01*
X189020342Y-92872472D01*
X189020337Y-92872472D01*
X189013885Y-92871100D01*
X188822911Y-92871100D01*
X188816459Y-92872472D01*
X188816454Y-92872472D01*
X188668871Y-92903842D01*
X188598080Y-92898440D01*
X188549038Y-92864906D01*
X188543270Y-92858500D01*
X188498552Y-92808835D01*
X188344051Y-92696583D01*
X188333425Y-92691852D01*
X188278211Y-92667268D01*
X188224116Y-92621288D01*
X188203467Y-92553361D01*
X188204151Y-92538992D01*
X188212814Y-92456565D01*
X188213504Y-92450000D01*
X188201916Y-92339747D01*
X188194232Y-92266635D01*
X188194232Y-92266633D01*
X188193542Y-92260072D01*
X188134527Y-92078444D01*
X188116117Y-92046556D01*
X188062560Y-91953794D01*
X188039040Y-91913056D01*
X188019753Y-91891635D01*
X187915675Y-91776045D01*
X187915674Y-91776044D01*
X187911253Y-91771134D01*
X187787972Y-91681565D01*
X187778936Y-91675000D01*
X197036496Y-91675000D01*
X197037186Y-91681565D01*
X197048029Y-91784726D01*
X197056458Y-91864928D01*
X197115473Y-92046556D01*
X197118776Y-92052278D01*
X197118777Y-92052279D01*
X197135685Y-92081565D01*
X197210960Y-92211944D01*
X197215378Y-92216851D01*
X197215379Y-92216852D01*
X197331850Y-92346206D01*
X197338747Y-92353866D01*
X197419266Y-92412367D01*
X197471693Y-92450457D01*
X197493248Y-92466118D01*
X197499276Y-92468802D01*
X197499278Y-92468803D01*
X197656926Y-92538992D01*
X197667712Y-92543794D01*
X197761112Y-92563647D01*
X197848056Y-92582128D01*
X197848061Y-92582128D01*
X197854513Y-92583500D01*
X198045487Y-92583500D01*
X198051939Y-92582128D01*
X198051944Y-92582128D01*
X198138888Y-92563647D01*
X198232288Y-92543794D01*
X198243074Y-92538992D01*
X198400722Y-92468803D01*
X198400724Y-92468802D01*
X198406752Y-92466118D01*
X198428308Y-92450457D01*
X198480734Y-92412367D01*
X198547849Y-92363605D01*
X198614715Y-92339747D01*
X198683867Y-92355827D01*
X198695970Y-92363605D01*
X198762905Y-92412236D01*
X198768248Y-92416118D01*
X198774276Y-92418802D01*
X198774278Y-92418803D01*
X198936681Y-92491109D01*
X198942712Y-92493794D01*
X199036112Y-92513647D01*
X199123056Y-92532128D01*
X199123061Y-92532128D01*
X199129513Y-92533500D01*
X199320487Y-92533500D01*
X199326939Y-92532128D01*
X199326944Y-92532128D01*
X199413887Y-92513647D01*
X199507288Y-92493794D01*
X199513319Y-92491109D01*
X199675722Y-92418803D01*
X199675724Y-92418802D01*
X199681752Y-92416118D01*
X199711174Y-92394742D01*
X199778040Y-92370883D01*
X199847192Y-92386962D01*
X199878871Y-92412367D01*
X199882249Y-92416118D01*
X199938747Y-92478866D01*
X200093248Y-92591118D01*
X200099276Y-92593802D01*
X200099278Y-92593803D01*
X200261681Y-92666109D01*
X200267712Y-92668794D01*
X200353101Y-92686944D01*
X200448056Y-92707128D01*
X200448061Y-92707128D01*
X200454513Y-92708500D01*
X200645487Y-92708500D01*
X200651939Y-92707128D01*
X200651944Y-92707128D01*
X200746899Y-92686944D01*
X200832288Y-92668794D01*
X200838319Y-92666109D01*
X201000722Y-92593803D01*
X201000724Y-92593802D01*
X201006752Y-92591118D01*
X201161253Y-92478866D01*
X201215334Y-92418803D01*
X201284621Y-92341852D01*
X201284622Y-92341851D01*
X201289040Y-92336944D01*
X201384527Y-92171556D01*
X201443542Y-91989928D01*
X201451021Y-91918774D01*
X201462814Y-91806565D01*
X201463504Y-91800000D01*
X201443542Y-91610072D01*
X201384527Y-91428444D01*
X201289040Y-91263056D01*
X201261193Y-91232128D01*
X201165675Y-91126045D01*
X201165674Y-91126044D01*
X201161253Y-91121134D01*
X201046882Y-91038038D01*
X201012094Y-91012763D01*
X201012093Y-91012762D01*
X201006752Y-91008882D01*
X201000724Y-91006198D01*
X201000722Y-91006197D01*
X200838319Y-90933891D01*
X200838318Y-90933891D01*
X200832288Y-90931206D01*
X200738888Y-90911353D01*
X200651944Y-90892872D01*
X200651939Y-90892872D01*
X200645487Y-90891500D01*
X200454513Y-90891500D01*
X200448061Y-90892872D01*
X200448056Y-90892872D01*
X200361112Y-90911353D01*
X200267712Y-90931206D01*
X200261682Y-90933891D01*
X200261681Y-90933891D01*
X200099278Y-91006197D01*
X200099276Y-91006198D01*
X200093248Y-91008882D01*
X200087905Y-91012764D01*
X200063827Y-91030258D01*
X199996960Y-91054117D01*
X199927808Y-91038038D01*
X199896129Y-91012633D01*
X199840675Y-90951045D01*
X199840674Y-90951044D01*
X199836253Y-90946134D01*
X199681752Y-90833882D01*
X199675724Y-90831198D01*
X199675722Y-90831197D01*
X199513319Y-90758891D01*
X199513318Y-90758891D01*
X199507288Y-90756206D01*
X199413887Y-90736353D01*
X199326944Y-90717872D01*
X199326939Y-90717872D01*
X199320487Y-90716500D01*
X199129513Y-90716500D01*
X199123061Y-90717872D01*
X199123056Y-90717872D01*
X199036113Y-90736353D01*
X198942712Y-90756206D01*
X198936682Y-90758891D01*
X198936681Y-90758891D01*
X198774278Y-90831197D01*
X198774276Y-90831198D01*
X198768248Y-90833882D01*
X198694088Y-90887763D01*
X198627152Y-90936395D01*
X198560285Y-90960253D01*
X198491133Y-90944173D01*
X198479030Y-90936395D01*
X198412094Y-90887763D01*
X198412093Y-90887762D01*
X198406752Y-90883882D01*
X198400724Y-90881198D01*
X198400722Y-90881197D01*
X198238319Y-90808891D01*
X198238318Y-90808891D01*
X198232288Y-90806206D01*
X198138888Y-90786353D01*
X198051944Y-90767872D01*
X198051939Y-90767872D01*
X198045487Y-90766500D01*
X197854513Y-90766500D01*
X197848061Y-90767872D01*
X197848056Y-90767872D01*
X197761112Y-90786353D01*
X197667712Y-90806206D01*
X197661682Y-90808891D01*
X197661681Y-90808891D01*
X197499278Y-90881197D01*
X197499276Y-90881198D01*
X197493248Y-90883882D01*
X197487907Y-90887762D01*
X197487906Y-90887763D01*
X197437843Y-90924136D01*
X197338747Y-90996134D01*
X197334326Y-91001044D01*
X197334325Y-91001045D01*
X197226197Y-91121134D01*
X197210960Y-91138056D01*
X197165891Y-91216118D01*
X197122595Y-91291109D01*
X197115473Y-91303444D01*
X197056458Y-91485072D01*
X197055768Y-91491633D01*
X197055768Y-91491635D01*
X197038472Y-91656197D01*
X197036496Y-91675000D01*
X187778936Y-91675000D01*
X187762094Y-91662763D01*
X187762093Y-91662762D01*
X187756752Y-91658882D01*
X187750724Y-91656198D01*
X187750722Y-91656197D01*
X187588319Y-91583891D01*
X187588318Y-91583891D01*
X187582288Y-91581206D01*
X187561037Y-91576689D01*
X187498564Y-91542961D01*
X187464242Y-91480811D01*
X187468970Y-91409972D01*
X187511246Y-91352935D01*
X187561037Y-91330195D01*
X187620358Y-91317586D01*
X187732288Y-91293794D01*
X187754551Y-91283882D01*
X187900722Y-91218803D01*
X187900724Y-91218802D01*
X187906752Y-91216118D01*
X188061253Y-91103866D01*
X188081656Y-91081206D01*
X188184621Y-90966852D01*
X188184622Y-90966851D01*
X188189040Y-90961944D01*
X188264527Y-90831197D01*
X188281223Y-90802279D01*
X188281224Y-90802278D01*
X188284527Y-90796556D01*
X188343542Y-90614928D01*
X188351018Y-90543803D01*
X188362814Y-90431565D01*
X188363504Y-90425000D01*
X188359354Y-90385518D01*
X188344232Y-90241635D01*
X188344232Y-90241633D01*
X188343542Y-90235072D01*
X188284527Y-90053444D01*
X188189040Y-89888056D01*
X188064734Y-89750000D01*
X205711496Y-89750000D01*
X205731458Y-89939928D01*
X205790473Y-90121556D01*
X205885960Y-90286944D01*
X205890378Y-90291851D01*
X205890379Y-90291852D01*
X205920226Y-90325000D01*
X206013747Y-90428866D01*
X206078266Y-90475742D01*
X206140842Y-90521206D01*
X206168248Y-90541118D01*
X206174276Y-90543802D01*
X206174278Y-90543803D01*
X206336681Y-90616109D01*
X206342712Y-90618794D01*
X206436113Y-90638647D01*
X206523056Y-90657128D01*
X206523061Y-90657128D01*
X206529513Y-90658500D01*
X206720487Y-90658500D01*
X206726939Y-90657128D01*
X206726944Y-90657128D01*
X206813887Y-90638647D01*
X206907288Y-90618794D01*
X206913319Y-90616109D01*
X207075722Y-90543803D01*
X207075724Y-90543802D01*
X207081752Y-90541118D01*
X207109159Y-90521206D01*
X207171734Y-90475742D01*
X207236253Y-90428866D01*
X207329774Y-90325000D01*
X207359621Y-90291852D01*
X207359622Y-90291851D01*
X207364040Y-90286944D01*
X207459527Y-90121556D01*
X207518542Y-89939928D01*
X207538504Y-89750000D01*
X207526300Y-89633882D01*
X207519232Y-89566635D01*
X207519232Y-89566633D01*
X207518542Y-89560072D01*
X207459527Y-89378444D01*
X207364040Y-89213056D01*
X207236253Y-89071134D01*
X207081752Y-88958882D01*
X207075724Y-88956198D01*
X207075722Y-88956197D01*
X206913319Y-88883891D01*
X206913318Y-88883891D01*
X206907288Y-88881206D01*
X206813887Y-88861353D01*
X206726944Y-88842872D01*
X206726939Y-88842872D01*
X206720487Y-88841500D01*
X206529513Y-88841500D01*
X206523061Y-88842872D01*
X206523056Y-88842872D01*
X206436113Y-88861353D01*
X206342712Y-88881206D01*
X206336682Y-88883891D01*
X206336681Y-88883891D01*
X206174278Y-88956197D01*
X206174276Y-88956198D01*
X206168248Y-88958882D01*
X206013747Y-89071134D01*
X205885960Y-89213056D01*
X205790473Y-89378444D01*
X205731458Y-89560072D01*
X205730768Y-89566633D01*
X205730768Y-89566635D01*
X205723700Y-89633882D01*
X205711496Y-89750000D01*
X188064734Y-89750000D01*
X188061253Y-89746134D01*
X187930375Y-89651045D01*
X187912094Y-89637763D01*
X187912093Y-89637762D01*
X187906752Y-89633882D01*
X187900724Y-89631198D01*
X187900722Y-89631197D01*
X187738319Y-89558891D01*
X187738318Y-89558891D01*
X187732288Y-89556206D01*
X187638887Y-89536353D01*
X187551944Y-89517872D01*
X187551939Y-89517872D01*
X187545487Y-89516500D01*
X187354513Y-89516500D01*
X187348061Y-89517872D01*
X187348056Y-89517872D01*
X187261112Y-89536353D01*
X187167712Y-89556206D01*
X187161682Y-89558891D01*
X187161681Y-89558891D01*
X186999278Y-89631197D01*
X186999276Y-89631198D01*
X186993248Y-89633882D01*
X186987907Y-89637762D01*
X186987906Y-89637763D01*
X186969625Y-89651045D01*
X186838747Y-89746134D01*
X186710960Y-89888056D01*
X186615473Y-90053444D01*
X186613431Y-90059729D01*
X186567814Y-90200122D01*
X186527740Y-90258728D01*
X186462344Y-90286365D01*
X186392387Y-90274258D01*
X186340081Y-90226252D01*
X186322671Y-90174357D01*
X186319232Y-90141635D01*
X186319232Y-90141633D01*
X186318542Y-90135072D01*
X186259527Y-89953444D01*
X186164040Y-89788056D01*
X186135686Y-89756565D01*
X186040675Y-89651045D01*
X186040674Y-89651044D01*
X186036253Y-89646134D01*
X185937157Y-89574136D01*
X185887094Y-89537763D01*
X185887093Y-89537762D01*
X185881752Y-89533882D01*
X185875724Y-89531198D01*
X185875722Y-89531197D01*
X185713319Y-89458891D01*
X185713318Y-89458891D01*
X185707288Y-89456206D01*
X185613888Y-89436353D01*
X185526944Y-89417872D01*
X185526939Y-89417872D01*
X185520487Y-89416500D01*
X185329513Y-89416500D01*
X185323061Y-89417872D01*
X185323056Y-89417872D01*
X185236112Y-89436353D01*
X185142712Y-89456206D01*
X185136682Y-89458891D01*
X185136681Y-89458891D01*
X184974278Y-89531197D01*
X184974276Y-89531198D01*
X184968248Y-89533882D01*
X184962907Y-89537762D01*
X184962906Y-89537763D01*
X184912843Y-89574136D01*
X184813747Y-89646134D01*
X184809326Y-89651044D01*
X184809325Y-89651045D01*
X184714315Y-89756565D01*
X184685960Y-89788056D01*
X184590473Y-89953444D01*
X184531458Y-90135072D01*
X184530768Y-90141633D01*
X184530768Y-90141635D01*
X184520948Y-90235072D01*
X184511496Y-90325000D01*
X175645479Y-90325000D01*
X175641631Y-87008365D01*
X175641418Y-86825000D01*
X202786496Y-86825000D01*
X202806458Y-87014928D01*
X202865473Y-87196556D01*
X202960960Y-87361944D01*
X203088747Y-87503866D01*
X203243248Y-87616118D01*
X203249276Y-87618802D01*
X203249278Y-87618803D01*
X203411681Y-87691109D01*
X203417712Y-87693794D01*
X203511113Y-87713647D01*
X203598056Y-87732128D01*
X203598061Y-87732128D01*
X203604513Y-87733500D01*
X203795487Y-87733500D01*
X203801939Y-87732128D01*
X203801944Y-87732128D01*
X203888887Y-87713647D01*
X203982288Y-87693794D01*
X203988319Y-87691109D01*
X204150722Y-87618803D01*
X204150724Y-87618802D01*
X204156752Y-87616118D01*
X204311253Y-87503866D01*
X204439040Y-87361944D01*
X204534527Y-87196556D01*
X204593542Y-87014928D01*
X204613504Y-86825000D01*
X204593542Y-86635072D01*
X204557777Y-86525000D01*
X206686496Y-86525000D01*
X206706458Y-86714928D01*
X206765473Y-86896556D01*
X206860960Y-87061944D01*
X206988747Y-87203866D01*
X207143248Y-87316118D01*
X207149276Y-87318802D01*
X207149278Y-87318803D01*
X207233332Y-87356226D01*
X207317712Y-87393794D01*
X207411113Y-87413647D01*
X207498056Y-87432128D01*
X207498061Y-87432128D01*
X207504513Y-87433500D01*
X207695487Y-87433500D01*
X207701939Y-87432128D01*
X207701944Y-87432128D01*
X207788887Y-87413647D01*
X207882288Y-87393794D01*
X207966668Y-87356226D01*
X208050722Y-87318803D01*
X208050724Y-87318802D01*
X208056752Y-87316118D01*
X208211253Y-87203866D01*
X208339040Y-87061944D01*
X208434527Y-86896556D01*
X208493542Y-86714928D01*
X208513504Y-86525000D01*
X208493542Y-86335072D01*
X208434527Y-86153444D01*
X208339040Y-85988056D01*
X208211253Y-85846134D01*
X208056752Y-85733882D01*
X208050724Y-85731198D01*
X208050722Y-85731197D01*
X207888319Y-85658891D01*
X207888318Y-85658891D01*
X207882288Y-85656206D01*
X207788887Y-85636353D01*
X207701944Y-85617872D01*
X207701939Y-85617872D01*
X207695487Y-85616500D01*
X207504513Y-85616500D01*
X207498061Y-85617872D01*
X207498056Y-85617872D01*
X207411113Y-85636353D01*
X207317712Y-85656206D01*
X207311682Y-85658891D01*
X207311681Y-85658891D01*
X207149278Y-85731197D01*
X207149276Y-85731198D01*
X207143248Y-85733882D01*
X206988747Y-85846134D01*
X206860960Y-85988056D01*
X206765473Y-86153444D01*
X206706458Y-86335072D01*
X206686496Y-86525000D01*
X204557777Y-86525000D01*
X204534527Y-86453444D01*
X204439040Y-86288056D01*
X204311253Y-86146134D01*
X204212157Y-86074136D01*
X204162094Y-86037763D01*
X204162093Y-86037762D01*
X204156752Y-86033882D01*
X204150724Y-86031198D01*
X204150722Y-86031197D01*
X203988319Y-85958891D01*
X203988318Y-85958891D01*
X203982288Y-85956206D01*
X203888887Y-85936353D01*
X203801944Y-85917872D01*
X203801939Y-85917872D01*
X203795487Y-85916500D01*
X203604513Y-85916500D01*
X203598061Y-85917872D01*
X203598056Y-85917872D01*
X203511112Y-85936353D01*
X203417712Y-85956206D01*
X203411682Y-85958891D01*
X203411681Y-85958891D01*
X203249278Y-86031197D01*
X203249276Y-86031198D01*
X203243248Y-86033882D01*
X203237907Y-86037762D01*
X203237906Y-86037763D01*
X203187843Y-86074136D01*
X203088747Y-86146134D01*
X202960960Y-86288056D01*
X202865473Y-86453444D01*
X202806458Y-86635072D01*
X202786496Y-86825000D01*
X175641418Y-86825000D01*
X175638789Y-84558738D01*
X215069209Y-84558738D01*
X215089171Y-84748666D01*
X215148186Y-84930294D01*
X215243673Y-85095682D01*
X215371460Y-85237604D01*
X215525961Y-85349856D01*
X215531989Y-85352540D01*
X215531991Y-85352541D01*
X215694394Y-85424847D01*
X215700425Y-85427532D01*
X215793825Y-85447385D01*
X215880769Y-85465866D01*
X215880774Y-85465866D01*
X215887226Y-85467238D01*
X216078200Y-85467238D01*
X216084652Y-85465866D01*
X216084657Y-85465866D01*
X216171600Y-85447385D01*
X216265001Y-85427532D01*
X216271032Y-85424847D01*
X216433435Y-85352541D01*
X216433437Y-85352540D01*
X216439465Y-85349856D01*
X216593966Y-85237604D01*
X216721753Y-85095682D01*
X216817240Y-84930294D01*
X216876255Y-84748666D01*
X216895033Y-84570000D01*
X223186681Y-84570000D01*
X223205928Y-84814557D01*
X223263195Y-85053092D01*
X223357073Y-85279732D01*
X223485248Y-85488896D01*
X223644567Y-85675433D01*
X223831104Y-85834752D01*
X223835327Y-85837340D01*
X223835330Y-85837342D01*
X223857692Y-85851045D01*
X224040268Y-85962927D01*
X224114739Y-85993774D01*
X224262335Y-86054911D01*
X224262337Y-86054912D01*
X224266908Y-86056805D01*
X224349563Y-86076649D01*
X224500630Y-86112917D01*
X224500636Y-86112918D01*
X224505443Y-86114072D01*
X224750000Y-86133319D01*
X224994557Y-86114072D01*
X224999364Y-86112918D01*
X224999370Y-86112917D01*
X225150437Y-86076649D01*
X225233092Y-86056805D01*
X225237663Y-86054912D01*
X225237665Y-86054911D01*
X225385261Y-85993774D01*
X225459732Y-85962927D01*
X225642308Y-85851045D01*
X225664670Y-85837342D01*
X225664673Y-85837340D01*
X225668896Y-85834752D01*
X225855433Y-85675433D01*
X226014752Y-85488896D01*
X226142927Y-85279732D01*
X226236805Y-85053092D01*
X226294072Y-84814557D01*
X226313319Y-84570000D01*
X226294072Y-84325443D01*
X226262388Y-84193467D01*
X226237960Y-84091720D01*
X226236805Y-84086908D01*
X226142927Y-83860268D01*
X226034168Y-83682788D01*
X226015630Y-83614255D01*
X226037087Y-83546578D01*
X226066035Y-83516128D01*
X226138839Y-83461564D01*
X226163261Y-83443261D01*
X226250615Y-83326705D01*
X226301745Y-83190316D01*
X226308500Y-83128134D01*
X226308500Y-80931866D01*
X226301745Y-80869684D01*
X226250615Y-80733295D01*
X226163261Y-80616739D01*
X226046705Y-80529385D01*
X225910316Y-80478255D01*
X225848134Y-80471500D01*
X223651866Y-80471500D01*
X223589684Y-80478255D01*
X223453295Y-80529385D01*
X223336739Y-80616739D01*
X223249385Y-80733295D01*
X223198255Y-80869684D01*
X223191500Y-80931866D01*
X223191500Y-83128134D01*
X223198255Y-83190316D01*
X223249385Y-83326705D01*
X223336739Y-83443261D01*
X223361161Y-83461564D01*
X223433965Y-83516128D01*
X223476479Y-83572988D01*
X223481504Y-83643806D01*
X223465832Y-83682788D01*
X223357073Y-83860268D01*
X223263195Y-84086908D01*
X223262040Y-84091720D01*
X223237613Y-84193467D01*
X223205928Y-84325443D01*
X223186681Y-84570000D01*
X216895033Y-84570000D01*
X216896217Y-84558738D01*
X216876255Y-84368810D01*
X216817240Y-84187182D01*
X216721753Y-84021794D01*
X216593966Y-83879872D01*
X216439465Y-83767620D01*
X216433437Y-83764936D01*
X216433435Y-83764935D01*
X216271032Y-83692629D01*
X216271031Y-83692629D01*
X216265001Y-83689944D01*
X216171600Y-83670091D01*
X216084657Y-83651610D01*
X216084652Y-83651610D01*
X216078200Y-83650238D01*
X215887226Y-83650238D01*
X215880774Y-83651610D01*
X215880769Y-83651610D01*
X215793825Y-83670091D01*
X215700425Y-83689944D01*
X215694395Y-83692629D01*
X215694394Y-83692629D01*
X215531991Y-83764935D01*
X215531989Y-83764936D01*
X215525961Y-83767620D01*
X215371460Y-83879872D01*
X215243673Y-84021794D01*
X215148186Y-84187182D01*
X215089171Y-84368810D01*
X215069209Y-84558738D01*
X175638789Y-84558738D01*
X175636979Y-82998134D01*
X178791500Y-82998134D01*
X178798255Y-83060316D01*
X178849385Y-83196705D01*
X178936739Y-83313261D01*
X179053295Y-83400615D01*
X179189684Y-83451745D01*
X179251866Y-83458500D01*
X181048134Y-83458500D01*
X181110316Y-83451745D01*
X181246705Y-83400615D01*
X181363261Y-83313261D01*
X181450615Y-83196705D01*
X181477602Y-83124717D01*
X181494598Y-83079382D01*
X181537240Y-83022618D01*
X181603802Y-82997918D01*
X181673150Y-83013126D01*
X181707817Y-83041114D01*
X181736250Y-83073938D01*
X181908126Y-83216632D01*
X182101000Y-83329338D01*
X182309692Y-83409030D01*
X182314760Y-83410061D01*
X182314763Y-83410062D01*
X182422017Y-83431883D01*
X182528597Y-83453567D01*
X182533772Y-83453757D01*
X182533774Y-83453757D01*
X182746673Y-83461564D01*
X182746677Y-83461564D01*
X182751837Y-83461753D01*
X182756957Y-83461097D01*
X182756959Y-83461097D01*
X182968288Y-83434025D01*
X182968289Y-83434025D01*
X182973416Y-83433368D01*
X182978366Y-83431883D01*
X183182429Y-83370661D01*
X183182434Y-83370659D01*
X183187384Y-83369174D01*
X183387994Y-83270896D01*
X183569860Y-83141173D01*
X183728096Y-82983489D01*
X183858453Y-82802077D01*
X183859776Y-82803028D01*
X183906645Y-82759857D01*
X183976580Y-82747625D01*
X184042026Y-82775144D01*
X184069875Y-82806994D01*
X184129987Y-82905088D01*
X184276250Y-83073938D01*
X184448126Y-83216632D01*
X184641000Y-83329338D01*
X184849692Y-83409030D01*
X184854760Y-83410061D01*
X184854763Y-83410062D01*
X184962017Y-83431883D01*
X185068597Y-83453567D01*
X185073772Y-83453757D01*
X185073774Y-83453757D01*
X185286673Y-83461564D01*
X185286677Y-83461564D01*
X185291837Y-83461753D01*
X185296957Y-83461097D01*
X185296959Y-83461097D01*
X185508288Y-83434025D01*
X185508289Y-83434025D01*
X185513416Y-83433368D01*
X185518366Y-83431883D01*
X185722429Y-83370661D01*
X185722434Y-83370659D01*
X185727384Y-83369174D01*
X185927994Y-83270896D01*
X186109860Y-83141173D01*
X186268096Y-82983489D01*
X186398453Y-82802077D01*
X186399776Y-82803028D01*
X186446645Y-82759857D01*
X186516580Y-82747625D01*
X186582026Y-82775144D01*
X186609875Y-82806994D01*
X186669987Y-82905088D01*
X186816250Y-83073938D01*
X186988126Y-83216632D01*
X187181000Y-83329338D01*
X187389692Y-83409030D01*
X187394760Y-83410061D01*
X187394763Y-83410062D01*
X187502017Y-83431883D01*
X187608597Y-83453567D01*
X187613772Y-83453757D01*
X187613774Y-83453757D01*
X187826673Y-83461564D01*
X187826677Y-83461564D01*
X187831837Y-83461753D01*
X187836957Y-83461097D01*
X187836959Y-83461097D01*
X188048288Y-83434025D01*
X188048289Y-83434025D01*
X188053416Y-83433368D01*
X188058366Y-83431883D01*
X188262429Y-83370661D01*
X188262434Y-83370659D01*
X188267384Y-83369174D01*
X188467994Y-83270896D01*
X188649860Y-83141173D01*
X188808096Y-82983489D01*
X188938453Y-82802077D01*
X188959320Y-82759857D01*
X189035136Y-82606453D01*
X189035137Y-82606451D01*
X189037430Y-82601811D01*
X189102370Y-82388069D01*
X189131529Y-82166590D01*
X189133156Y-82100000D01*
X189114852Y-81877361D01*
X189060431Y-81660702D01*
X189023167Y-81575000D01*
X198286496Y-81575000D01*
X198287186Y-81581565D01*
X198295504Y-81660702D01*
X198306458Y-81764928D01*
X198365473Y-81946556D01*
X198368776Y-81952278D01*
X198368777Y-81952279D01*
X198385478Y-81981206D01*
X198460960Y-82111944D01*
X198465378Y-82116851D01*
X198465379Y-82116852D01*
X198513151Y-82169908D01*
X198588747Y-82253866D01*
X198743248Y-82366118D01*
X198749276Y-82368802D01*
X198749278Y-82368803D01*
X198911681Y-82441109D01*
X198917712Y-82443794D01*
X199011112Y-82463647D01*
X199098056Y-82482128D01*
X199098061Y-82482128D01*
X199104513Y-82483500D01*
X199295487Y-82483500D01*
X199301939Y-82482128D01*
X199301944Y-82482128D01*
X199477687Y-82444772D01*
X199548478Y-82450174D01*
X199605110Y-82492991D01*
X199629604Y-82559628D01*
X199623717Y-82606954D01*
X199606458Y-82660072D01*
X199586496Y-82850000D01*
X199587186Y-82856565D01*
X199604639Y-83022618D01*
X199606458Y-83039928D01*
X199665473Y-83221556D01*
X199668776Y-83227278D01*
X199668777Y-83227279D01*
X199695274Y-83273173D01*
X199760960Y-83386944D01*
X199765378Y-83391851D01*
X199765379Y-83391852D01*
X199828148Y-83461564D01*
X199888747Y-83528866D01*
X200043248Y-83641118D01*
X200049276Y-83643802D01*
X200049278Y-83643803D01*
X200158944Y-83692629D01*
X200217712Y-83718794D01*
X200311113Y-83738647D01*
X200398056Y-83757128D01*
X200398061Y-83757128D01*
X200404513Y-83758500D01*
X200595487Y-83758500D01*
X200601939Y-83757128D01*
X200601944Y-83757128D01*
X200688887Y-83738647D01*
X200782288Y-83718794D01*
X200841056Y-83692629D01*
X200950722Y-83643803D01*
X200950724Y-83643802D01*
X200956752Y-83641118D01*
X201111253Y-83528866D01*
X201171852Y-83461564D01*
X201234621Y-83391852D01*
X201234622Y-83391851D01*
X201239040Y-83386944D01*
X201304726Y-83273173D01*
X201331223Y-83227279D01*
X201331224Y-83227278D01*
X201334527Y-83221556D01*
X201393542Y-83039928D01*
X201395362Y-83022618D01*
X201412814Y-82856565D01*
X201413504Y-82850000D01*
X201393542Y-82660072D01*
X201334527Y-82478444D01*
X201315087Y-82444772D01*
X201279387Y-82382939D01*
X201239040Y-82313056D01*
X201189242Y-82257749D01*
X201115675Y-82176045D01*
X201115674Y-82176044D01*
X201111253Y-82171134D01*
X200956752Y-82058882D01*
X200950724Y-82056198D01*
X200950722Y-82056197D01*
X200788319Y-81983891D01*
X200788318Y-81983891D01*
X200782288Y-81981206D01*
X200688887Y-81961353D01*
X200601944Y-81942872D01*
X200601939Y-81942872D01*
X200595487Y-81941500D01*
X200404513Y-81941500D01*
X200398061Y-81942872D01*
X200398056Y-81942872D01*
X200222313Y-81980228D01*
X200151522Y-81974826D01*
X200094890Y-81932009D01*
X200070396Y-81865372D01*
X200076283Y-81818044D01*
X200091503Y-81771203D01*
X200093542Y-81764928D01*
X200104497Y-81660702D01*
X200112814Y-81581565D01*
X200113504Y-81575000D01*
X200095071Y-81399618D01*
X200094232Y-81391635D01*
X200094232Y-81391633D01*
X200093542Y-81385072D01*
X200034527Y-81203444D01*
X200007015Y-81155791D01*
X199942341Y-81043774D01*
X199939040Y-81038056D01*
X199811253Y-80896134D01*
X199656752Y-80783882D01*
X199650724Y-80781198D01*
X199650722Y-80781197D01*
X199488319Y-80708891D01*
X199488318Y-80708891D01*
X199482288Y-80706206D01*
X199388888Y-80686353D01*
X199301944Y-80667872D01*
X199301939Y-80667872D01*
X199295487Y-80666500D01*
X199104513Y-80666500D01*
X199098061Y-80667872D01*
X199098056Y-80667872D01*
X199011112Y-80686353D01*
X198917712Y-80706206D01*
X198911682Y-80708891D01*
X198911681Y-80708891D01*
X198749278Y-80781197D01*
X198749276Y-80781198D01*
X198743248Y-80783882D01*
X198588747Y-80896134D01*
X198460960Y-81038056D01*
X198457659Y-81043774D01*
X198392986Y-81155791D01*
X198365473Y-81203444D01*
X198306458Y-81385072D01*
X198305768Y-81391633D01*
X198305768Y-81391635D01*
X198304929Y-81399618D01*
X198286496Y-81575000D01*
X189023167Y-81575000D01*
X188971354Y-81455840D01*
X188850014Y-81268277D01*
X188699670Y-81103051D01*
X188695619Y-81099852D01*
X188695615Y-81099848D01*
X188528414Y-80967800D01*
X188528410Y-80967798D01*
X188524359Y-80964598D01*
X188328789Y-80856638D01*
X188323920Y-80854914D01*
X188323916Y-80854912D01*
X188123087Y-80783795D01*
X188123083Y-80783794D01*
X188118212Y-80782069D01*
X188113119Y-80781162D01*
X188113116Y-80781161D01*
X187903373Y-80743800D01*
X187903367Y-80743799D01*
X187898284Y-80742894D01*
X187824452Y-80741992D01*
X187680081Y-80740228D01*
X187680079Y-80740228D01*
X187674911Y-80740165D01*
X187454091Y-80773955D01*
X187241756Y-80843357D01*
X187211443Y-80859137D01*
X187078258Y-80928469D01*
X187043607Y-80946507D01*
X187039474Y-80949610D01*
X187039471Y-80949612D01*
X186914059Y-81043774D01*
X186864965Y-81080635D01*
X186861393Y-81084373D01*
X186753729Y-81197037D01*
X186710629Y-81242138D01*
X186603201Y-81399621D01*
X186548293Y-81444621D01*
X186477768Y-81452792D01*
X186414021Y-81421538D01*
X186393324Y-81397054D01*
X186312822Y-81272617D01*
X186312820Y-81272614D01*
X186310014Y-81268277D01*
X186159670Y-81103051D01*
X186155619Y-81099852D01*
X186155615Y-81099848D01*
X185988414Y-80967800D01*
X185988410Y-80967798D01*
X185984359Y-80964598D01*
X185788789Y-80856638D01*
X185783920Y-80854914D01*
X185783916Y-80854912D01*
X185583087Y-80783795D01*
X185583083Y-80783794D01*
X185578212Y-80782069D01*
X185573119Y-80781162D01*
X185573116Y-80781161D01*
X185363373Y-80743800D01*
X185363367Y-80743799D01*
X185358284Y-80742894D01*
X185284452Y-80741992D01*
X185140081Y-80740228D01*
X185140079Y-80740228D01*
X185134911Y-80740165D01*
X184914091Y-80773955D01*
X184701756Y-80843357D01*
X184671443Y-80859137D01*
X184538258Y-80928469D01*
X184503607Y-80946507D01*
X184499474Y-80949610D01*
X184499471Y-80949612D01*
X184374059Y-81043774D01*
X184324965Y-81080635D01*
X184321393Y-81084373D01*
X184213729Y-81197037D01*
X184170629Y-81242138D01*
X184063201Y-81399621D01*
X184008293Y-81444621D01*
X183937768Y-81452792D01*
X183874021Y-81421538D01*
X183853324Y-81397054D01*
X183772822Y-81272617D01*
X183772820Y-81272614D01*
X183770014Y-81268277D01*
X183619670Y-81103051D01*
X183615619Y-81099852D01*
X183615615Y-81099848D01*
X183448414Y-80967800D01*
X183448410Y-80967798D01*
X183444359Y-80964598D01*
X183248789Y-80856638D01*
X183243920Y-80854914D01*
X183243916Y-80854912D01*
X183043087Y-80783795D01*
X183043083Y-80783794D01*
X183038212Y-80782069D01*
X183033119Y-80781162D01*
X183033116Y-80781161D01*
X182823373Y-80743800D01*
X182823367Y-80743799D01*
X182818284Y-80742894D01*
X182744452Y-80741992D01*
X182600081Y-80740228D01*
X182600079Y-80740228D01*
X182594911Y-80740165D01*
X182374091Y-80773955D01*
X182161756Y-80843357D01*
X182131443Y-80859137D01*
X181998258Y-80928469D01*
X181963607Y-80946507D01*
X181959474Y-80949610D01*
X181959471Y-80949612D01*
X181834059Y-81043774D01*
X181784965Y-81080635D01*
X181728537Y-81139684D01*
X181704283Y-81165064D01*
X181642759Y-81200494D01*
X181571846Y-81197037D01*
X181514060Y-81155791D01*
X181495207Y-81122243D01*
X181453767Y-81011703D01*
X181450615Y-81003295D01*
X181363261Y-80886739D01*
X181246705Y-80799385D01*
X181110316Y-80748255D01*
X181048134Y-80741500D01*
X179251866Y-80741500D01*
X179189684Y-80748255D01*
X179053295Y-80799385D01*
X178936739Y-80886739D01*
X178849385Y-81003295D01*
X178798255Y-81139684D01*
X178791500Y-81201866D01*
X178791500Y-82998134D01*
X175636979Y-82998134D01*
X175632340Y-79000000D01*
X186086496Y-79000000D01*
X186106458Y-79189928D01*
X186165473Y-79371556D01*
X186260960Y-79536944D01*
X186388747Y-79678866D01*
X186543248Y-79791118D01*
X186549276Y-79793802D01*
X186549278Y-79793803D01*
X186711681Y-79866109D01*
X186717712Y-79868794D01*
X186811113Y-79888647D01*
X186898056Y-79907128D01*
X186898061Y-79907128D01*
X186904513Y-79908500D01*
X187095487Y-79908500D01*
X187101939Y-79907128D01*
X187101944Y-79907128D01*
X187188887Y-79888647D01*
X187282288Y-79868794D01*
X187288319Y-79866109D01*
X187450722Y-79793803D01*
X187450724Y-79793802D01*
X187456752Y-79791118D01*
X187611253Y-79678866D01*
X187739040Y-79536944D01*
X187834527Y-79371556D01*
X187893542Y-79189928D01*
X187913504Y-79000000D01*
X187893542Y-78810072D01*
X187834527Y-78628444D01*
X187836220Y-78627894D01*
X187827952Y-78566178D01*
X187858853Y-78501000D01*
X187939040Y-78411944D01*
X188034527Y-78246556D01*
X188093542Y-78064928D01*
X188101018Y-77993803D01*
X188112814Y-77881565D01*
X188113504Y-77875000D01*
X188093542Y-77685072D01*
X188050276Y-77551914D01*
X188048248Y-77480947D01*
X188076472Y-77428668D01*
X188109619Y-77391854D01*
X188114039Y-77386945D01*
X188145100Y-77333147D01*
X188206222Y-77227280D01*
X188206223Y-77227279D01*
X188209526Y-77221557D01*
X188216530Y-77200000D01*
X204486496Y-77200000D01*
X204487186Y-77206565D01*
X204505759Y-77383274D01*
X204506458Y-77389928D01*
X204565473Y-77571556D01*
X204660960Y-77736944D01*
X204788747Y-77878866D01*
X204943248Y-77991118D01*
X204949276Y-77993802D01*
X204949278Y-77993803D01*
X205111681Y-78066109D01*
X205117712Y-78068794D01*
X205211112Y-78088647D01*
X205298056Y-78107128D01*
X205298061Y-78107128D01*
X205304513Y-78108500D01*
X205495487Y-78108500D01*
X205501939Y-78107128D01*
X205501944Y-78107128D01*
X205588888Y-78088647D01*
X205682288Y-78068794D01*
X205688319Y-78066109D01*
X205850722Y-77993803D01*
X205850724Y-77993802D01*
X205856752Y-77991118D01*
X206011253Y-77878866D01*
X206139040Y-77736944D01*
X206234527Y-77571556D01*
X206293542Y-77389928D01*
X206294242Y-77383274D01*
X206312814Y-77206565D01*
X206313504Y-77200000D01*
X206302793Y-77098092D01*
X206294232Y-77016635D01*
X206294232Y-77016633D01*
X206293542Y-77010072D01*
X206234527Y-76828444D01*
X206139040Y-76663056D01*
X206130702Y-76653795D01*
X206015675Y-76526045D01*
X206015674Y-76526044D01*
X206011253Y-76521134D01*
X206005790Y-76517165D01*
X215392996Y-76517165D01*
X215393686Y-76523730D01*
X215408931Y-76668774D01*
X215412958Y-76707093D01*
X215471973Y-76888721D01*
X215567460Y-77054109D01*
X215695247Y-77196031D01*
X215849748Y-77308283D01*
X215855776Y-77310967D01*
X215855778Y-77310968D01*
X216018181Y-77383274D01*
X216024212Y-77385959D01*
X216117612Y-77405812D01*
X216204556Y-77424293D01*
X216204561Y-77424293D01*
X216211013Y-77425665D01*
X216401987Y-77425665D01*
X216408439Y-77424293D01*
X216408444Y-77424293D01*
X216495388Y-77405812D01*
X216588788Y-77385959D01*
X216594819Y-77383274D01*
X216757222Y-77310968D01*
X216757224Y-77310967D01*
X216763252Y-77308283D01*
X216917753Y-77196031D01*
X217045540Y-77054109D01*
X217141027Y-76888721D01*
X217200042Y-76707093D01*
X217204070Y-76668774D01*
X217209722Y-76615000D01*
X223186681Y-76615000D01*
X223205928Y-76859557D01*
X223207082Y-76864364D01*
X223207083Y-76864370D01*
X223240556Y-77003794D01*
X223263195Y-77098092D01*
X223265088Y-77102663D01*
X223265089Y-77102665D01*
X223281017Y-77141118D01*
X223357073Y-77324732D01*
X223420765Y-77428668D01*
X223470439Y-77509729D01*
X223485248Y-77533896D01*
X223488463Y-77537660D01*
X223488465Y-77537663D01*
X223619971Y-77691635D01*
X223644567Y-77720433D01*
X223648323Y-77723641D01*
X223824317Y-77873955D01*
X223831104Y-77879752D01*
X223835327Y-77882340D01*
X223835330Y-77882342D01*
X223904515Y-77924738D01*
X224040268Y-78007927D01*
X224162035Y-78058365D01*
X224262335Y-78099911D01*
X224262337Y-78099912D01*
X224266908Y-78101805D01*
X224349563Y-78121649D01*
X224500630Y-78157917D01*
X224500636Y-78157918D01*
X224505443Y-78159072D01*
X224750000Y-78178319D01*
X224994557Y-78159072D01*
X224999364Y-78157918D01*
X224999370Y-78157917D01*
X225150437Y-78121649D01*
X225233092Y-78101805D01*
X225237663Y-78099912D01*
X225237665Y-78099911D01*
X225337965Y-78058365D01*
X225459732Y-78007927D01*
X225595485Y-77924738D01*
X225664670Y-77882342D01*
X225664673Y-77882340D01*
X225668896Y-77879752D01*
X225675684Y-77873955D01*
X225851677Y-77723641D01*
X225855433Y-77720433D01*
X225880029Y-77691635D01*
X226011535Y-77537663D01*
X226011537Y-77537660D01*
X226014752Y-77533896D01*
X226029562Y-77509729D01*
X226079235Y-77428668D01*
X226142927Y-77324732D01*
X226218983Y-77141118D01*
X226234911Y-77102665D01*
X226234912Y-77102663D01*
X226236805Y-77098092D01*
X226259444Y-77003794D01*
X226292917Y-76864370D01*
X226292918Y-76864364D01*
X226294072Y-76859557D01*
X226313319Y-76615000D01*
X226294072Y-76370443D01*
X226288179Y-76345894D01*
X226255576Y-76210097D01*
X226236805Y-76131908D01*
X226211231Y-76070166D01*
X226202864Y-76049967D01*
X226142927Y-75905268D01*
X226034168Y-75727788D01*
X226015630Y-75659255D01*
X226037087Y-75591578D01*
X226066035Y-75561128D01*
X226072987Y-75555918D01*
X226163261Y-75488261D01*
X226250615Y-75371705D01*
X226301745Y-75235316D01*
X226308500Y-75173134D01*
X226308500Y-72976866D01*
X226301745Y-72914684D01*
X226250615Y-72778295D01*
X226163261Y-72661739D01*
X226046705Y-72574385D01*
X225910316Y-72523255D01*
X225848134Y-72516500D01*
X223651866Y-72516500D01*
X223589684Y-72523255D01*
X223453295Y-72574385D01*
X223336739Y-72661739D01*
X223249385Y-72778295D01*
X223198255Y-72914684D01*
X223191500Y-72976866D01*
X223191500Y-75173134D01*
X223198255Y-75235316D01*
X223249385Y-75371705D01*
X223336739Y-75488261D01*
X223427013Y-75555918D01*
X223433965Y-75561128D01*
X223476479Y-75617988D01*
X223481504Y-75688806D01*
X223465832Y-75727788D01*
X223357073Y-75905268D01*
X223297136Y-76049967D01*
X223288770Y-76070166D01*
X223263195Y-76131908D01*
X223244424Y-76210097D01*
X223211822Y-76345894D01*
X223205928Y-76370443D01*
X223186681Y-76615000D01*
X217209722Y-76615000D01*
X217219314Y-76523730D01*
X217220004Y-76517165D01*
X217203353Y-76358735D01*
X217200732Y-76333800D01*
X217200732Y-76333798D01*
X217200042Y-76327237D01*
X217141027Y-76145609D01*
X217130477Y-76127335D01*
X217089405Y-76056198D01*
X217045540Y-75980221D01*
X217010677Y-75941501D01*
X216922175Y-75843210D01*
X216922174Y-75843209D01*
X216917753Y-75838299D01*
X216785006Y-75741852D01*
X216768594Y-75729928D01*
X216768593Y-75729927D01*
X216763252Y-75726047D01*
X216757224Y-75723363D01*
X216757222Y-75723362D01*
X216594819Y-75651056D01*
X216594818Y-75651056D01*
X216588788Y-75648371D01*
X216481589Y-75625585D01*
X216408444Y-75610037D01*
X216408439Y-75610037D01*
X216401987Y-75608665D01*
X216211013Y-75608665D01*
X216204561Y-75610037D01*
X216204556Y-75610037D01*
X216131411Y-75625585D01*
X216024212Y-75648371D01*
X216018182Y-75651056D01*
X216018181Y-75651056D01*
X215855778Y-75723362D01*
X215855776Y-75723363D01*
X215849748Y-75726047D01*
X215844407Y-75729927D01*
X215844406Y-75729928D01*
X215827994Y-75741852D01*
X215695247Y-75838299D01*
X215690826Y-75843209D01*
X215690825Y-75843210D01*
X215602324Y-75941501D01*
X215567460Y-75980221D01*
X215523595Y-76056198D01*
X215482524Y-76127335D01*
X215471973Y-76145609D01*
X215412958Y-76327237D01*
X215412268Y-76333798D01*
X215412268Y-76333800D01*
X215409647Y-76358735D01*
X215392996Y-76517165D01*
X206005790Y-76517165D01*
X205856752Y-76408882D01*
X205850724Y-76406198D01*
X205850722Y-76406197D01*
X205688319Y-76333891D01*
X205688318Y-76333891D01*
X205682288Y-76331206D01*
X205573814Y-76308149D01*
X205501944Y-76292872D01*
X205501939Y-76292872D01*
X205495487Y-76291500D01*
X205304513Y-76291500D01*
X205298061Y-76292872D01*
X205298056Y-76292872D01*
X205226186Y-76308149D01*
X205117712Y-76331206D01*
X205111682Y-76333891D01*
X205111681Y-76333891D01*
X204949278Y-76406197D01*
X204949276Y-76406198D01*
X204943248Y-76408882D01*
X204788747Y-76521134D01*
X204784326Y-76526044D01*
X204784325Y-76526045D01*
X204669299Y-76653795D01*
X204660960Y-76663056D01*
X204565473Y-76828444D01*
X204506458Y-77010072D01*
X204505768Y-77016633D01*
X204505768Y-77016635D01*
X204497207Y-77098092D01*
X204486496Y-77200000D01*
X188216530Y-77200000D01*
X188268541Y-77039929D01*
X188269302Y-77032695D01*
X188287813Y-76856566D01*
X188288503Y-76850001D01*
X188275003Y-76721556D01*
X188269231Y-76666636D01*
X188269231Y-76666634D01*
X188268541Y-76660073D01*
X188209526Y-76478445D01*
X188114039Y-76313057D01*
X188095865Y-76292872D01*
X187990674Y-76176046D01*
X187990673Y-76176045D01*
X187986252Y-76171135D01*
X187847281Y-76070166D01*
X187837093Y-76062764D01*
X187837092Y-76062763D01*
X187831751Y-76058883D01*
X187825723Y-76056199D01*
X187825721Y-76056198D01*
X187663318Y-75983892D01*
X187663317Y-75983892D01*
X187657287Y-75981207D01*
X187563886Y-75961354D01*
X187476943Y-75942873D01*
X187476938Y-75942873D01*
X187470486Y-75941501D01*
X187279512Y-75941501D01*
X187273060Y-75942873D01*
X187273055Y-75942873D01*
X187186112Y-75961354D01*
X187092711Y-75981207D01*
X187086681Y-75983892D01*
X187086680Y-75983892D01*
X186924277Y-76056198D01*
X186924275Y-76056199D01*
X186918247Y-76058883D01*
X186912906Y-76062763D01*
X186912905Y-76062764D01*
X186902717Y-76070166D01*
X186763746Y-76171135D01*
X186759325Y-76176045D01*
X186759324Y-76176046D01*
X186654134Y-76292872D01*
X186635959Y-76313057D01*
X186540472Y-76478445D01*
X186481457Y-76660073D01*
X186480767Y-76666634D01*
X186480767Y-76666636D01*
X186474995Y-76721556D01*
X186461495Y-76850001D01*
X186462185Y-76856566D01*
X186480697Y-77032695D01*
X186481457Y-77039929D01*
X186501841Y-77102665D01*
X186524723Y-77173087D01*
X186526751Y-77244054D01*
X186498527Y-77296333D01*
X186472957Y-77324732D01*
X186460960Y-77338056D01*
X186457658Y-77343775D01*
X186457656Y-77343778D01*
X186375390Y-77486267D01*
X186365473Y-77503444D01*
X186306458Y-77685072D01*
X186286496Y-77875000D01*
X186287186Y-77881565D01*
X186298983Y-77993803D01*
X186306458Y-78064928D01*
X186337174Y-78159460D01*
X186365473Y-78246556D01*
X186363780Y-78247106D01*
X186372048Y-78308822D01*
X186341147Y-78374000D01*
X186260960Y-78463056D01*
X186165473Y-78628444D01*
X186106458Y-78810072D01*
X186086496Y-79000000D01*
X175632340Y-79000000D01*
X175629266Y-76350000D01*
X176211496Y-76350000D01*
X176212186Y-76356565D01*
X176229756Y-76523730D01*
X176231458Y-76539928D01*
X176290473Y-76721556D01*
X176385960Y-76886944D01*
X176390378Y-76891851D01*
X176390379Y-76891852D01*
X176448437Y-76956332D01*
X176513747Y-77028866D01*
X176668248Y-77141118D01*
X176674276Y-77143802D01*
X176674278Y-77143803D01*
X176815245Y-77206565D01*
X176842712Y-77218794D01*
X176936112Y-77238647D01*
X177023056Y-77257128D01*
X177023061Y-77257128D01*
X177029513Y-77258500D01*
X177220487Y-77258500D01*
X177226939Y-77257128D01*
X177226944Y-77257128D01*
X177313888Y-77238647D01*
X177407288Y-77218794D01*
X177434755Y-77206565D01*
X177575722Y-77143803D01*
X177575724Y-77143802D01*
X177581752Y-77141118D01*
X177736253Y-77028866D01*
X177801563Y-76956332D01*
X177859621Y-76891852D01*
X177859622Y-76891851D01*
X177864040Y-76886944D01*
X177959527Y-76721556D01*
X178018542Y-76539928D01*
X178020245Y-76523730D01*
X178037814Y-76356565D01*
X178038504Y-76350000D01*
X178036529Y-76331206D01*
X178019232Y-76166635D01*
X178019232Y-76166633D01*
X178018800Y-76162529D01*
X180898496Y-76162529D01*
X180899186Y-76169094D01*
X180916507Y-76333891D01*
X180918458Y-76352457D01*
X180977473Y-76534085D01*
X181072960Y-76699473D01*
X181077378Y-76704380D01*
X181077379Y-76704381D01*
X181183933Y-76822721D01*
X181200747Y-76841395D01*
X181355248Y-76953647D01*
X181361276Y-76956331D01*
X181361278Y-76956332D01*
X181481981Y-77010072D01*
X181529712Y-77031323D01*
X181623113Y-77051176D01*
X181710056Y-77069657D01*
X181710061Y-77069657D01*
X181716513Y-77071029D01*
X181907487Y-77071029D01*
X181913939Y-77069657D01*
X181913944Y-77069657D01*
X182000887Y-77051176D01*
X182094288Y-77031323D01*
X182142019Y-77010072D01*
X182262722Y-76956332D01*
X182262724Y-76956331D01*
X182268752Y-76953647D01*
X182423253Y-76841395D01*
X182440067Y-76822721D01*
X182546621Y-76704381D01*
X182546622Y-76704380D01*
X182551040Y-76699473D01*
X182646527Y-76534085D01*
X182705542Y-76352457D01*
X182707494Y-76333891D01*
X182724814Y-76169094D01*
X182725504Y-76162529D01*
X182715370Y-76066109D01*
X182706232Y-75979164D01*
X182706232Y-75979162D01*
X182705542Y-75972601D01*
X182646527Y-75790973D01*
X182551040Y-75625585D01*
X182490981Y-75558882D01*
X182427675Y-75488574D01*
X182427674Y-75488573D01*
X182423253Y-75483663D01*
X182302879Y-75396206D01*
X182274094Y-75375292D01*
X182274093Y-75375291D01*
X182268752Y-75371411D01*
X182262724Y-75368727D01*
X182262722Y-75368726D01*
X182115028Y-75302969D01*
X183739399Y-75302969D01*
X183740089Y-75309534D01*
X183755602Y-75457128D01*
X183759361Y-75492897D01*
X183818376Y-75674525D01*
X183913863Y-75839913D01*
X183918281Y-75844820D01*
X183918282Y-75844821D01*
X184037228Y-75976924D01*
X184041650Y-75981835D01*
X184196151Y-76094087D01*
X184202179Y-76096771D01*
X184202181Y-76096772D01*
X184344356Y-76160072D01*
X184370615Y-76171763D01*
X184464016Y-76191616D01*
X184550959Y-76210097D01*
X184550964Y-76210097D01*
X184557416Y-76211469D01*
X184748390Y-76211469D01*
X184754842Y-76210097D01*
X184754847Y-76210097D01*
X184841790Y-76191616D01*
X184935191Y-76171763D01*
X184961450Y-76160072D01*
X185103625Y-76096772D01*
X185103627Y-76096771D01*
X185109655Y-76094087D01*
X185264156Y-75981835D01*
X185268578Y-75976924D01*
X185387524Y-75844821D01*
X185387525Y-75844820D01*
X185391943Y-75839913D01*
X185487430Y-75674525D01*
X185546445Y-75492897D01*
X185550205Y-75457128D01*
X185565717Y-75309534D01*
X185566407Y-75302969D01*
X185564851Y-75288169D01*
X185547135Y-75119604D01*
X185547135Y-75119602D01*
X185546445Y-75113041D01*
X185487430Y-74931413D01*
X185478111Y-74915271D01*
X185427981Y-74828444D01*
X185391943Y-74766025D01*
X185371662Y-74743500D01*
X185268578Y-74629014D01*
X185268577Y-74629013D01*
X185264156Y-74624103D01*
X185162162Y-74550000D01*
X185114997Y-74515732D01*
X185114996Y-74515731D01*
X185109655Y-74511851D01*
X185103627Y-74509167D01*
X185103625Y-74509166D01*
X184941222Y-74436860D01*
X184941221Y-74436860D01*
X184935191Y-74434175D01*
X184834456Y-74412763D01*
X184754847Y-74395841D01*
X184754842Y-74395841D01*
X184748390Y-74394469D01*
X184557416Y-74394469D01*
X184550964Y-74395841D01*
X184550959Y-74395841D01*
X184471350Y-74412763D01*
X184370615Y-74434175D01*
X184364585Y-74436860D01*
X184364584Y-74436860D01*
X184202181Y-74509166D01*
X184202179Y-74509167D01*
X184196151Y-74511851D01*
X184190810Y-74515731D01*
X184190809Y-74515732D01*
X184143644Y-74550000D01*
X184041650Y-74624103D01*
X184037229Y-74629013D01*
X184037228Y-74629014D01*
X183934145Y-74743500D01*
X183913863Y-74766025D01*
X183877825Y-74828444D01*
X183827696Y-74915271D01*
X183818376Y-74931413D01*
X183759361Y-75113041D01*
X183758671Y-75119602D01*
X183758671Y-75119604D01*
X183740955Y-75288169D01*
X183739399Y-75302969D01*
X182115028Y-75302969D01*
X182100319Y-75296420D01*
X182100318Y-75296420D01*
X182094288Y-75293735D01*
X182000887Y-75273882D01*
X181913944Y-75255401D01*
X181913939Y-75255401D01*
X181907487Y-75254029D01*
X181716513Y-75254029D01*
X181710061Y-75255401D01*
X181710056Y-75255401D01*
X181623113Y-75273882D01*
X181529712Y-75293735D01*
X181523682Y-75296420D01*
X181523681Y-75296420D01*
X181361278Y-75368726D01*
X181361276Y-75368727D01*
X181355248Y-75371411D01*
X181349907Y-75375291D01*
X181349906Y-75375292D01*
X181321121Y-75396206D01*
X181200747Y-75483663D01*
X181196326Y-75488573D01*
X181196325Y-75488574D01*
X181133020Y-75558882D01*
X181072960Y-75625585D01*
X180977473Y-75790973D01*
X180918458Y-75972601D01*
X180917768Y-75979162D01*
X180917768Y-75979164D01*
X180908630Y-76066109D01*
X180898496Y-76162529D01*
X178018800Y-76162529D01*
X178018542Y-76160072D01*
X177959527Y-75978444D01*
X177864040Y-75813056D01*
X177849816Y-75797258D01*
X177740675Y-75676045D01*
X177740674Y-75676044D01*
X177736253Y-75671134D01*
X177581752Y-75558882D01*
X177575724Y-75556198D01*
X177575722Y-75556197D01*
X177413319Y-75483891D01*
X177413318Y-75483891D01*
X177407288Y-75481206D01*
X177313888Y-75461353D01*
X177226944Y-75442872D01*
X177226939Y-75442872D01*
X177220487Y-75441500D01*
X177029513Y-75441500D01*
X177023061Y-75442872D01*
X177023056Y-75442872D01*
X176936112Y-75461353D01*
X176842712Y-75481206D01*
X176836682Y-75483891D01*
X176836681Y-75483891D01*
X176674278Y-75556197D01*
X176674276Y-75556198D01*
X176668248Y-75558882D01*
X176513747Y-75671134D01*
X176509326Y-75676044D01*
X176509325Y-75676045D01*
X176400185Y-75797258D01*
X176385960Y-75813056D01*
X176290473Y-75978444D01*
X176231458Y-76160072D01*
X176230768Y-76166633D01*
X176230768Y-76166635D01*
X176213471Y-76331206D01*
X176211496Y-76350000D01*
X175629266Y-76350000D01*
X175626220Y-73725000D01*
X181161496Y-73725000D01*
X181162186Y-73731565D01*
X181177167Y-73874097D01*
X181181458Y-73914928D01*
X181240473Y-74096556D01*
X181335960Y-74261944D01*
X181340378Y-74266851D01*
X181340379Y-74266852D01*
X181440012Y-74377506D01*
X181463747Y-74403866D01*
X181618248Y-74516118D01*
X181624276Y-74518802D01*
X181624278Y-74518803D01*
X181786681Y-74591109D01*
X181792712Y-74593794D01*
X181881831Y-74612737D01*
X181973056Y-74632128D01*
X181973061Y-74632128D01*
X181979513Y-74633500D01*
X182170487Y-74633500D01*
X182176939Y-74632128D01*
X182176944Y-74632128D01*
X182268169Y-74612737D01*
X182357288Y-74593794D01*
X182363319Y-74591109D01*
X182525722Y-74518803D01*
X182525724Y-74518802D01*
X182531752Y-74516118D01*
X182686253Y-74403866D01*
X182709988Y-74377506D01*
X182809621Y-74266852D01*
X182809622Y-74266851D01*
X182814040Y-74261944D01*
X182909527Y-74096556D01*
X182968542Y-73914928D01*
X182972834Y-73874097D01*
X182977942Y-73825500D01*
X186711496Y-73825500D01*
X186731458Y-74015428D01*
X186790473Y-74197056D01*
X186793776Y-74202778D01*
X186793777Y-74202779D01*
X186802122Y-74217232D01*
X186885960Y-74362444D01*
X186890378Y-74367351D01*
X186890379Y-74367352D01*
X187009325Y-74499455D01*
X187013747Y-74504366D01*
X187087657Y-74558065D01*
X187136834Y-74593794D01*
X187168248Y-74616618D01*
X187174276Y-74619302D01*
X187174278Y-74619303D01*
X187289040Y-74670398D01*
X187342712Y-74694294D01*
X187410482Y-74708699D01*
X187523056Y-74732628D01*
X187523061Y-74732628D01*
X187529513Y-74734000D01*
X187720487Y-74734000D01*
X187726939Y-74732628D01*
X187726944Y-74732628D01*
X187839518Y-74708699D01*
X187907288Y-74694294D01*
X187913315Y-74691611D01*
X187913323Y-74691608D01*
X188007394Y-74649725D01*
X188077761Y-74640291D01*
X188142058Y-74670398D01*
X188179871Y-74730487D01*
X188180904Y-74734660D01*
X188181458Y-74739928D01*
X188240473Y-74921556D01*
X188243776Y-74927278D01*
X188243777Y-74927279D01*
X188277686Y-74986010D01*
X188335960Y-75086944D01*
X188340378Y-75091851D01*
X188340379Y-75091852D01*
X188395559Y-75153136D01*
X188463747Y-75228866D01*
X188545370Y-75288169D01*
X188574777Y-75309534D01*
X188618248Y-75341118D01*
X188624276Y-75343802D01*
X188624278Y-75343803D01*
X188741978Y-75396206D01*
X188792712Y-75418794D01*
X188886112Y-75438647D01*
X188973056Y-75457128D01*
X188973061Y-75457128D01*
X188979513Y-75458500D01*
X189170487Y-75458500D01*
X189176939Y-75457128D01*
X189176944Y-75457128D01*
X189263888Y-75438647D01*
X189357288Y-75418794D01*
X189408022Y-75396206D01*
X189525722Y-75343803D01*
X189525724Y-75343802D01*
X189531752Y-75341118D01*
X189575224Y-75309534D01*
X189604630Y-75288169D01*
X189686253Y-75228866D01*
X189712244Y-75200000D01*
X194086496Y-75200000D01*
X194087186Y-75206565D01*
X194104230Y-75368726D01*
X194106458Y-75389928D01*
X194165473Y-75571556D01*
X194260960Y-75736944D01*
X194265378Y-75741851D01*
X194265379Y-75741852D01*
X194356642Y-75843210D01*
X194388747Y-75878866D01*
X194425086Y-75905268D01*
X194536120Y-75985939D01*
X194543248Y-75991118D01*
X194549276Y-75993802D01*
X194549278Y-75993803D01*
X194695451Y-76058883D01*
X194717712Y-76068794D01*
X194811112Y-76088647D01*
X194898056Y-76107128D01*
X194898061Y-76107128D01*
X194904513Y-76108500D01*
X195095487Y-76108500D01*
X195101939Y-76107128D01*
X195101944Y-76107128D01*
X195188888Y-76088647D01*
X195282288Y-76068794D01*
X195304549Y-76058883D01*
X195450722Y-75993803D01*
X195450724Y-75993802D01*
X195456752Y-75991118D01*
X195463881Y-75985939D01*
X195574914Y-75905268D01*
X195611253Y-75878866D01*
X195643358Y-75843210D01*
X195734621Y-75741852D01*
X195734622Y-75741851D01*
X195739040Y-75736944D01*
X195834527Y-75571556D01*
X195893542Y-75389928D01*
X195895771Y-75368726D01*
X195912814Y-75206565D01*
X195913504Y-75200000D01*
X195909089Y-75157990D01*
X195894232Y-75016635D01*
X195894232Y-75016633D01*
X195893542Y-75010072D01*
X195834527Y-74828444D01*
X195739040Y-74663056D01*
X195711193Y-74632128D01*
X195627649Y-74539343D01*
X197486775Y-74539343D01*
X197503381Y-74708699D01*
X197505605Y-74715384D01*
X197505605Y-74715385D01*
X197515927Y-74746414D01*
X197557094Y-74870167D01*
X197560741Y-74876189D01*
X197560742Y-74876191D01*
X197638022Y-75003794D01*
X197645246Y-75015723D01*
X197763455Y-75138132D01*
X197769351Y-75141990D01*
X197868032Y-75206565D01*
X197905846Y-75231310D01*
X197912450Y-75233766D01*
X197912452Y-75233767D01*
X197948844Y-75247301D01*
X198065341Y-75290626D01*
X198234015Y-75313132D01*
X198241026Y-75312494D01*
X198241030Y-75312494D01*
X198396462Y-75298348D01*
X198403483Y-75297709D01*
X198410185Y-75295531D01*
X198410187Y-75295531D01*
X198558623Y-75247301D01*
X198558626Y-75247300D01*
X198565322Y-75245124D01*
X198711490Y-75157990D01*
X198716584Y-75153139D01*
X198716588Y-75153136D01*
X198792100Y-75081226D01*
X198834721Y-75040639D01*
X198928891Y-74898902D01*
X198989319Y-74739825D01*
X199013001Y-74571313D01*
X199013299Y-74550000D01*
X199012104Y-74539343D01*
X199386775Y-74539343D01*
X199403381Y-74708699D01*
X199405605Y-74715384D01*
X199405605Y-74715385D01*
X199415927Y-74746414D01*
X199457094Y-74870167D01*
X199460741Y-74876189D01*
X199460742Y-74876191D01*
X199538022Y-75003794D01*
X199545246Y-75015723D01*
X199663455Y-75138132D01*
X199669351Y-75141990D01*
X199768032Y-75206565D01*
X199805846Y-75231310D01*
X199812450Y-75233766D01*
X199812452Y-75233767D01*
X199848844Y-75247301D01*
X199965341Y-75290626D01*
X200134015Y-75313132D01*
X200141026Y-75312494D01*
X200141030Y-75312494D01*
X200296462Y-75298348D01*
X200303483Y-75297709D01*
X200310185Y-75295531D01*
X200310187Y-75295531D01*
X200458623Y-75247301D01*
X200458626Y-75247300D01*
X200465322Y-75245124D01*
X200611490Y-75157990D01*
X200616584Y-75153139D01*
X200616588Y-75153136D01*
X200692100Y-75081226D01*
X200734721Y-75040639D01*
X200828891Y-74898902D01*
X200889319Y-74739825D01*
X200913001Y-74571313D01*
X200913299Y-74550000D01*
X200894331Y-74380892D01*
X200885916Y-74356726D01*
X200840686Y-74226846D01*
X200838368Y-74220189D01*
X200832383Y-74210610D01*
X200809477Y-74173955D01*
X200748192Y-74075879D01*
X200635686Y-73962584D01*
X200601879Y-73900153D01*
X200607191Y-73829355D01*
X200638200Y-73782554D01*
X200734721Y-73690639D01*
X200740989Y-73681206D01*
X200824990Y-73554773D01*
X200828891Y-73548902D01*
X200889319Y-73389825D01*
X200913001Y-73221313D01*
X200913299Y-73200000D01*
X200894331Y-73030892D01*
X200838368Y-72870189D01*
X200832383Y-72860610D01*
X200804819Y-72816500D01*
X200748192Y-72725879D01*
X200735168Y-72712763D01*
X200635686Y-72612584D01*
X200609919Y-72565000D01*
X202521496Y-72565000D01*
X202522186Y-72571565D01*
X202538154Y-72723489D01*
X202541458Y-72754928D01*
X202600473Y-72936556D01*
X202603776Y-72942278D01*
X202603777Y-72942279D01*
X202612939Y-72958148D01*
X202695960Y-73101944D01*
X202700378Y-73106851D01*
X202700379Y-73106852D01*
X202774654Y-73189343D01*
X202823747Y-73243866D01*
X202875327Y-73281341D01*
X202918680Y-73337564D01*
X202924755Y-73408300D01*
X202910385Y-73446275D01*
X202903778Y-73457719D01*
X202900473Y-73463444D01*
X202841458Y-73645072D01*
X202840768Y-73651633D01*
X202840768Y-73651635D01*
X202836669Y-73690639D01*
X202821496Y-73835000D01*
X202822186Y-73841565D01*
X202840460Y-74015428D01*
X202841458Y-74024928D01*
X202900473Y-74206556D01*
X202995960Y-74371944D01*
X203000378Y-74376851D01*
X203000379Y-74376852D01*
X203080012Y-74465293D01*
X203123747Y-74513866D01*
X203197383Y-74567366D01*
X203259831Y-74612737D01*
X203278248Y-74626118D01*
X203284276Y-74628802D01*
X203284278Y-74628803D01*
X203434456Y-74695666D01*
X203452712Y-74703794D01*
X203546112Y-74723647D01*
X203633056Y-74742128D01*
X203633061Y-74742128D01*
X203639513Y-74743500D01*
X203830487Y-74743500D01*
X203836939Y-74742128D01*
X203836944Y-74742128D01*
X203923888Y-74723647D01*
X204017288Y-74703794D01*
X204035544Y-74695666D01*
X204185722Y-74628803D01*
X204185724Y-74628802D01*
X204191752Y-74626118D01*
X204210170Y-74612737D01*
X204272617Y-74567366D01*
X204346253Y-74513866D01*
X204389988Y-74465293D01*
X204469621Y-74376852D01*
X204469622Y-74376851D01*
X204474040Y-74371944D01*
X204569527Y-74206556D01*
X204628542Y-74024928D01*
X204629541Y-74015428D01*
X204647814Y-73841565D01*
X204648504Y-73835000D01*
X204633331Y-73690639D01*
X204629232Y-73651635D01*
X204629232Y-73651633D01*
X204628542Y-73645072D01*
X204569527Y-73463444D01*
X204559615Y-73446275D01*
X204496850Y-73337564D01*
X204474040Y-73298056D01*
X204404941Y-73221313D01*
X204350675Y-73161045D01*
X204350674Y-73161044D01*
X204346253Y-73156134D01*
X204294672Y-73118658D01*
X204251320Y-73062436D01*
X204245245Y-72991700D01*
X204259615Y-72953725D01*
X204266222Y-72942281D01*
X204266223Y-72942278D01*
X204269527Y-72936556D01*
X204328542Y-72754928D01*
X204331847Y-72723489D01*
X204347814Y-72571565D01*
X204348504Y-72565000D01*
X204344205Y-72524097D01*
X204329232Y-72381635D01*
X204329232Y-72381633D01*
X204328542Y-72375072D01*
X204269527Y-72193444D01*
X204256088Y-72170166D01*
X204177341Y-72033774D01*
X204174040Y-72028056D01*
X204133246Y-71982749D01*
X204050675Y-71891045D01*
X204050674Y-71891044D01*
X204046253Y-71886134D01*
X203891752Y-71773882D01*
X203885724Y-71771198D01*
X203885722Y-71771197D01*
X203723319Y-71698891D01*
X203723318Y-71698891D01*
X203717288Y-71696206D01*
X203623888Y-71676353D01*
X203536944Y-71657872D01*
X203536939Y-71657872D01*
X203530487Y-71656500D01*
X203339513Y-71656500D01*
X203333061Y-71657872D01*
X203333056Y-71657872D01*
X203246113Y-71676353D01*
X203152712Y-71696206D01*
X203146682Y-71698891D01*
X203146681Y-71698891D01*
X202984278Y-71771197D01*
X202984276Y-71771198D01*
X202978248Y-71773882D01*
X202823747Y-71886134D01*
X202819326Y-71891044D01*
X202819325Y-71891045D01*
X202736755Y-71982749D01*
X202695960Y-72028056D01*
X202692659Y-72033774D01*
X202613913Y-72170166D01*
X202600473Y-72193444D01*
X202541458Y-72375072D01*
X202540768Y-72381633D01*
X202540768Y-72381635D01*
X202525795Y-72524097D01*
X202521496Y-72565000D01*
X200609919Y-72565000D01*
X200601879Y-72550153D01*
X200607191Y-72479355D01*
X200638200Y-72432554D01*
X200734721Y-72340639D01*
X200828891Y-72198902D01*
X200889319Y-72039825D01*
X200913001Y-71871313D01*
X200913299Y-71850000D01*
X200894331Y-71680892D01*
X200838368Y-71520189D01*
X200832383Y-71510610D01*
X200810420Y-71475464D01*
X200748192Y-71375879D01*
X200628286Y-71255132D01*
X200612039Y-71244821D01*
X200573406Y-71220304D01*
X200484608Y-71163951D01*
X200324300Y-71106868D01*
X200155329Y-71086720D01*
X200148326Y-71087456D01*
X200148325Y-71087456D01*
X199993101Y-71103770D01*
X199993097Y-71103771D01*
X199986093Y-71104507D01*
X199979422Y-71106778D01*
X199831673Y-71157075D01*
X199831670Y-71157076D01*
X199825003Y-71159346D01*
X199819005Y-71163036D01*
X199819003Y-71163037D01*
X199686065Y-71244821D01*
X199686063Y-71244823D01*
X199680066Y-71248512D01*
X199558486Y-71367573D01*
X199466304Y-71510610D01*
X199408103Y-71670516D01*
X199386775Y-71839343D01*
X199403381Y-72008699D01*
X199405605Y-72015384D01*
X199405605Y-72015385D01*
X199409820Y-72028056D01*
X199457094Y-72170167D01*
X199460741Y-72176189D01*
X199460742Y-72176191D01*
X199474497Y-72198902D01*
X199545246Y-72315723D01*
X199658068Y-72432554D01*
X199663455Y-72438132D01*
X199661338Y-72440176D01*
X199693710Y-72488088D01*
X199695343Y-72559065D01*
X199661820Y-72616380D01*
X199558486Y-72717573D01*
X199554675Y-72723487D01*
X199554673Y-72723489D01*
X199534412Y-72754928D01*
X199466304Y-72860610D01*
X199408103Y-73020516D01*
X199386775Y-73189343D01*
X199403381Y-73358699D01*
X199457094Y-73520167D01*
X199460741Y-73526189D01*
X199460742Y-73526191D01*
X199530961Y-73642135D01*
X199545246Y-73665723D01*
X199603239Y-73725776D01*
X199663455Y-73788132D01*
X199661338Y-73790176D01*
X199693710Y-73838088D01*
X199695343Y-73909065D01*
X199661820Y-73966380D01*
X199558486Y-74067573D01*
X199554675Y-74073487D01*
X199554673Y-74073489D01*
X199536119Y-74102279D01*
X199466304Y-74210610D01*
X199408103Y-74370516D01*
X199386775Y-74539343D01*
X199012104Y-74539343D01*
X198994331Y-74380892D01*
X198985916Y-74356726D01*
X198940686Y-74226846D01*
X198938368Y-74220189D01*
X198932383Y-74210610D01*
X198909477Y-74173955D01*
X198848192Y-74075879D01*
X198735686Y-73962584D01*
X198701879Y-73900153D01*
X198707191Y-73829355D01*
X198738200Y-73782554D01*
X198834721Y-73690639D01*
X198840989Y-73681206D01*
X198924990Y-73554773D01*
X198928891Y-73548902D01*
X198989319Y-73389825D01*
X199013001Y-73221313D01*
X199013299Y-73200000D01*
X198994331Y-73030892D01*
X198938368Y-72870189D01*
X198932383Y-72860610D01*
X198904819Y-72816500D01*
X198848192Y-72725879D01*
X198835168Y-72712763D01*
X198735686Y-72612584D01*
X198701879Y-72550153D01*
X198707191Y-72479355D01*
X198738200Y-72432554D01*
X198834721Y-72340639D01*
X198928891Y-72198902D01*
X198989319Y-72039825D01*
X199013001Y-71871313D01*
X199013299Y-71850000D01*
X198994331Y-71680892D01*
X198938368Y-71520189D01*
X198932383Y-71510610D01*
X198910420Y-71475464D01*
X198848192Y-71375879D01*
X198728286Y-71255132D01*
X198712039Y-71244821D01*
X198673406Y-71220304D01*
X198584608Y-71163951D01*
X198424300Y-71106868D01*
X198255329Y-71086720D01*
X198248326Y-71087456D01*
X198248325Y-71087456D01*
X198093101Y-71103770D01*
X198093097Y-71103771D01*
X198086093Y-71104507D01*
X198079422Y-71106778D01*
X197931673Y-71157075D01*
X197931670Y-71157076D01*
X197925003Y-71159346D01*
X197919005Y-71163036D01*
X197919003Y-71163037D01*
X197786065Y-71244821D01*
X197786063Y-71244823D01*
X197780066Y-71248512D01*
X197658486Y-71367573D01*
X197566304Y-71510610D01*
X197508103Y-71670516D01*
X197486775Y-71839343D01*
X197503381Y-72008699D01*
X197505605Y-72015384D01*
X197505605Y-72015385D01*
X197509820Y-72028056D01*
X197557094Y-72170167D01*
X197560741Y-72176189D01*
X197560742Y-72176191D01*
X197574497Y-72198902D01*
X197645246Y-72315723D01*
X197758068Y-72432554D01*
X197763455Y-72438132D01*
X197761338Y-72440176D01*
X197793710Y-72488088D01*
X197795343Y-72559065D01*
X197761820Y-72616380D01*
X197658486Y-72717573D01*
X197654675Y-72723487D01*
X197654673Y-72723489D01*
X197634412Y-72754928D01*
X197566304Y-72860610D01*
X197508103Y-73020516D01*
X197486775Y-73189343D01*
X197503381Y-73358699D01*
X197557094Y-73520167D01*
X197560741Y-73526189D01*
X197560742Y-73526191D01*
X197630961Y-73642135D01*
X197645246Y-73665723D01*
X197703239Y-73725776D01*
X197763455Y-73788132D01*
X197761338Y-73790176D01*
X197793710Y-73838088D01*
X197795343Y-73909065D01*
X197761820Y-73966380D01*
X197658486Y-74067573D01*
X197654675Y-74073487D01*
X197654673Y-74073489D01*
X197636119Y-74102279D01*
X197566304Y-74210610D01*
X197508103Y-74370516D01*
X197486775Y-74539343D01*
X195627649Y-74539343D01*
X195615675Y-74526045D01*
X195615674Y-74526044D01*
X195611253Y-74521134D01*
X195456752Y-74408882D01*
X195450724Y-74406198D01*
X195450722Y-74406197D01*
X195288319Y-74333891D01*
X195288318Y-74333891D01*
X195282288Y-74331206D01*
X195188887Y-74311353D01*
X195101944Y-74292872D01*
X195101939Y-74292872D01*
X195095487Y-74291500D01*
X194904513Y-74291500D01*
X194898061Y-74292872D01*
X194898056Y-74292872D01*
X194811113Y-74311353D01*
X194717712Y-74331206D01*
X194711682Y-74333891D01*
X194711681Y-74333891D01*
X194549278Y-74406197D01*
X194549276Y-74406198D01*
X194543248Y-74408882D01*
X194388747Y-74521134D01*
X194384326Y-74526044D01*
X194384325Y-74526045D01*
X194288808Y-74632128D01*
X194260960Y-74663056D01*
X194165473Y-74828444D01*
X194106458Y-75010072D01*
X194105768Y-75016633D01*
X194105768Y-75016635D01*
X194090911Y-75157990D01*
X194086496Y-75200000D01*
X189712244Y-75200000D01*
X189754441Y-75153136D01*
X189809621Y-75091852D01*
X189809622Y-75091851D01*
X189814040Y-75086944D01*
X189872314Y-74986010D01*
X189906223Y-74927279D01*
X189906224Y-74927278D01*
X189909527Y-74921556D01*
X189968542Y-74739928D01*
X189969287Y-74732845D01*
X189987814Y-74556565D01*
X189988504Y-74550000D01*
X189979601Y-74465293D01*
X189992373Y-74395455D01*
X190040875Y-74343608D01*
X190053663Y-74337016D01*
X190150719Y-74293805D01*
X190150726Y-74293801D01*
X190156752Y-74291118D01*
X190311253Y-74178866D01*
X190439040Y-74036944D01*
X190513275Y-73908365D01*
X190531223Y-73877279D01*
X190531224Y-73877278D01*
X190534527Y-73871556D01*
X190593542Y-73689928D01*
X190598257Y-73645072D01*
X190612814Y-73506565D01*
X190613504Y-73500000D01*
X190597499Y-73347721D01*
X190594232Y-73316635D01*
X190594232Y-73316633D01*
X190593542Y-73310072D01*
X190534527Y-73128444D01*
X190439040Y-72963056D01*
X190433323Y-72956706D01*
X190315675Y-72826045D01*
X190315674Y-72826044D01*
X190311253Y-72821134D01*
X190156752Y-72708882D01*
X190150724Y-72706198D01*
X190150722Y-72706197D01*
X189988319Y-72633891D01*
X189988318Y-72633891D01*
X189982288Y-72631206D01*
X189888887Y-72611353D01*
X189801944Y-72592872D01*
X189801939Y-72592872D01*
X189795487Y-72591500D01*
X189604513Y-72591500D01*
X189598061Y-72592872D01*
X189598056Y-72592872D01*
X189511113Y-72611353D01*
X189417712Y-72631206D01*
X189411682Y-72633891D01*
X189411681Y-72633891D01*
X189249278Y-72706197D01*
X189249276Y-72706198D01*
X189243248Y-72708882D01*
X189088747Y-72821134D01*
X189084326Y-72826044D01*
X189084325Y-72826045D01*
X188966678Y-72956706D01*
X188960960Y-72963056D01*
X188865473Y-73128444D01*
X188806458Y-73310072D01*
X188805768Y-73316633D01*
X188805768Y-73316635D01*
X188802501Y-73347721D01*
X188786496Y-73500000D01*
X188787186Y-73506565D01*
X188795399Y-73584707D01*
X188782627Y-73654545D01*
X188734125Y-73706392D01*
X188721335Y-73712985D01*
X188692604Y-73725776D01*
X188622237Y-73735209D01*
X188557940Y-73705101D01*
X188520129Y-73645011D01*
X188519096Y-73640839D01*
X188518542Y-73635572D01*
X188459527Y-73453944D01*
X188364040Y-73288556D01*
X188287871Y-73203961D01*
X188240675Y-73151545D01*
X188240674Y-73151544D01*
X188236253Y-73146634D01*
X188081752Y-73034382D01*
X188075724Y-73031698D01*
X188075722Y-73031697D01*
X187913319Y-72959391D01*
X187913318Y-72959391D01*
X187907288Y-72956706D01*
X187799910Y-72933882D01*
X187726944Y-72918372D01*
X187726939Y-72918372D01*
X187720487Y-72917000D01*
X187529513Y-72917000D01*
X187523061Y-72918372D01*
X187523056Y-72918372D01*
X187450090Y-72933882D01*
X187342712Y-72956706D01*
X187336682Y-72959391D01*
X187336681Y-72959391D01*
X187174278Y-73031697D01*
X187174276Y-73031698D01*
X187168248Y-73034382D01*
X187013747Y-73146634D01*
X187009326Y-73151544D01*
X187009325Y-73151545D01*
X186962130Y-73203961D01*
X186885960Y-73288556D01*
X186790473Y-73453944D01*
X186731458Y-73635572D01*
X186730768Y-73642133D01*
X186730768Y-73642135D01*
X186723322Y-73712985D01*
X186711496Y-73825500D01*
X182977942Y-73825500D01*
X182987814Y-73731565D01*
X182988504Y-73725000D01*
X182984818Y-73689928D01*
X182969232Y-73541635D01*
X182969232Y-73541633D01*
X182968542Y-73535072D01*
X182909527Y-73353444D01*
X182814040Y-73188056D01*
X182808902Y-73182349D01*
X182690675Y-73051045D01*
X182690674Y-73051044D01*
X182686253Y-73046134D01*
X182565151Y-72958148D01*
X182537094Y-72937763D01*
X182537093Y-72937762D01*
X182531752Y-72933882D01*
X182525724Y-72931198D01*
X182525722Y-72931197D01*
X182363319Y-72858891D01*
X182363318Y-72858891D01*
X182357288Y-72856206D01*
X182263887Y-72836353D01*
X182176944Y-72817872D01*
X182176939Y-72817872D01*
X182170487Y-72816500D01*
X181979513Y-72816500D01*
X181973061Y-72817872D01*
X181973056Y-72817872D01*
X181886113Y-72836353D01*
X181792712Y-72856206D01*
X181786682Y-72858891D01*
X181786681Y-72858891D01*
X181624278Y-72931197D01*
X181624276Y-72931198D01*
X181618248Y-72933882D01*
X181612907Y-72937762D01*
X181612906Y-72937763D01*
X181584849Y-72958148D01*
X181463747Y-73046134D01*
X181459326Y-73051044D01*
X181459325Y-73051045D01*
X181341099Y-73182349D01*
X181335960Y-73188056D01*
X181240473Y-73353444D01*
X181181458Y-73535072D01*
X181180768Y-73541633D01*
X181180768Y-73541635D01*
X181165182Y-73689928D01*
X181161496Y-73725000D01*
X175626220Y-73725000D01*
X175623407Y-71300000D01*
X176186496Y-71300000D01*
X176206458Y-71489928D01*
X176265473Y-71671556D01*
X176268776Y-71677278D01*
X176268777Y-71677279D01*
X176279705Y-71696206D01*
X176360960Y-71836944D01*
X176365378Y-71841851D01*
X176365379Y-71841852D01*
X176405251Y-71886134D01*
X176488747Y-71978866D01*
X176643248Y-72091118D01*
X176649276Y-72093802D01*
X176649278Y-72093803D01*
X176805785Y-72163484D01*
X176817712Y-72168794D01*
X176906756Y-72187721D01*
X176998056Y-72207128D01*
X176998061Y-72207128D01*
X177004513Y-72208500D01*
X177195487Y-72208500D01*
X177201939Y-72207128D01*
X177201944Y-72207128D01*
X177293244Y-72187721D01*
X177382288Y-72168794D01*
X177394215Y-72163484D01*
X177550722Y-72093803D01*
X177550724Y-72093802D01*
X177556752Y-72091118D01*
X177711253Y-71978866D01*
X177794749Y-71886134D01*
X177834621Y-71841852D01*
X177834622Y-71841851D01*
X177839040Y-71836944D01*
X177920295Y-71696206D01*
X177931223Y-71677279D01*
X177931224Y-71677278D01*
X177934527Y-71671556D01*
X177993542Y-71489928D01*
X178013504Y-71300000D01*
X178008611Y-71253441D01*
X177994232Y-71116635D01*
X177994232Y-71116633D01*
X177993542Y-71110072D01*
X177934527Y-70928444D01*
X177839040Y-70763056D01*
X177731229Y-70643319D01*
X177715675Y-70626045D01*
X177715674Y-70626044D01*
X177711253Y-70621134D01*
X177556752Y-70508882D01*
X177550724Y-70506198D01*
X177550722Y-70506197D01*
X177388319Y-70433891D01*
X177388318Y-70433891D01*
X177382288Y-70431206D01*
X177288887Y-70411353D01*
X177201944Y-70392872D01*
X177201939Y-70392872D01*
X177195487Y-70391500D01*
X177004513Y-70391500D01*
X176998061Y-70392872D01*
X176998056Y-70392872D01*
X176911113Y-70411353D01*
X176817712Y-70431206D01*
X176811682Y-70433891D01*
X176811681Y-70433891D01*
X176649278Y-70506197D01*
X176649276Y-70506198D01*
X176643248Y-70508882D01*
X176488747Y-70621134D01*
X176484326Y-70626044D01*
X176484325Y-70626045D01*
X176468772Y-70643319D01*
X176360960Y-70763056D01*
X176265473Y-70928444D01*
X176206458Y-71110072D01*
X176205768Y-71116633D01*
X176205768Y-71116635D01*
X176191389Y-71253441D01*
X176186496Y-71300000D01*
X175623407Y-71300000D01*
X175620623Y-68900000D01*
X200886496Y-68900000D01*
X200887186Y-68906565D01*
X200905415Y-69080000D01*
X200906458Y-69089928D01*
X200965473Y-69271556D01*
X201060960Y-69436944D01*
X201065378Y-69441851D01*
X201065379Y-69441852D01*
X201184325Y-69573955D01*
X201188747Y-69578866D01*
X201343248Y-69691118D01*
X201349276Y-69693802D01*
X201349278Y-69693803D01*
X201511681Y-69766109D01*
X201517712Y-69768794D01*
X201611113Y-69788647D01*
X201698056Y-69807128D01*
X201698061Y-69807128D01*
X201704513Y-69808500D01*
X201895487Y-69808500D01*
X201901939Y-69807128D01*
X201901944Y-69807128D01*
X201988887Y-69788647D01*
X202082288Y-69768794D01*
X202088319Y-69766109D01*
X202250722Y-69693803D01*
X202250724Y-69693802D01*
X202256752Y-69691118D01*
X202411253Y-69578866D01*
X202415675Y-69573955D01*
X202534621Y-69441852D01*
X202534622Y-69441851D01*
X202539040Y-69436944D01*
X202634527Y-69271556D01*
X202693542Y-69089928D01*
X202694586Y-69080000D01*
X223136681Y-69080000D01*
X223155928Y-69324557D01*
X223213195Y-69563092D01*
X223215088Y-69567663D01*
X223215089Y-69567665D01*
X223219729Y-69578866D01*
X223307073Y-69789732D01*
X223435248Y-69998896D01*
X223594567Y-70185433D01*
X223781104Y-70344752D01*
X223785327Y-70347340D01*
X223785330Y-70347342D01*
X223854515Y-70389738D01*
X223990268Y-70472927D01*
X224086440Y-70512763D01*
X224212335Y-70564911D01*
X224212337Y-70564912D01*
X224216908Y-70566805D01*
X224299563Y-70586649D01*
X224450630Y-70622917D01*
X224450636Y-70622918D01*
X224455443Y-70624072D01*
X224700000Y-70643319D01*
X224944557Y-70624072D01*
X224949364Y-70622918D01*
X224949370Y-70622917D01*
X225100437Y-70586649D01*
X225183092Y-70566805D01*
X225187663Y-70564912D01*
X225187665Y-70564911D01*
X225313560Y-70512763D01*
X225409732Y-70472927D01*
X225545485Y-70389738D01*
X225614670Y-70347342D01*
X225614673Y-70347340D01*
X225618896Y-70344752D01*
X225805433Y-70185433D01*
X225964752Y-69998896D01*
X226092927Y-69789732D01*
X226180271Y-69578866D01*
X226184911Y-69567665D01*
X226184912Y-69567663D01*
X226186805Y-69563092D01*
X226244072Y-69324557D01*
X226263319Y-69080000D01*
X226244072Y-68835443D01*
X226186805Y-68596908D01*
X226092927Y-68370268D01*
X225964752Y-68161104D01*
X225805433Y-67974567D01*
X225724931Y-67905811D01*
X225686122Y-67846360D01*
X225685616Y-67775365D01*
X225724931Y-67714189D01*
X225801677Y-67648641D01*
X225805433Y-67645433D01*
X225964752Y-67458896D01*
X226092927Y-67249732D01*
X226186805Y-67023092D01*
X226244072Y-66784557D01*
X226263319Y-66540000D01*
X226244072Y-66295443D01*
X226186805Y-66056908D01*
X226092927Y-65830268D01*
X225984168Y-65652788D01*
X225965630Y-65584255D01*
X225987087Y-65516578D01*
X226016035Y-65486128D01*
X226022987Y-65480918D01*
X226113261Y-65413261D01*
X226200615Y-65296705D01*
X226251745Y-65160316D01*
X226258500Y-65098134D01*
X226258500Y-62901866D01*
X226251745Y-62839684D01*
X226200615Y-62703295D01*
X226113261Y-62586739D01*
X225996705Y-62499385D01*
X225860316Y-62448255D01*
X225798134Y-62441500D01*
X223601866Y-62441500D01*
X223539684Y-62448255D01*
X223403295Y-62499385D01*
X223286739Y-62586739D01*
X223199385Y-62703295D01*
X223148255Y-62839684D01*
X223141500Y-62901866D01*
X223141500Y-65098134D01*
X223148255Y-65160316D01*
X223199385Y-65296705D01*
X223286739Y-65413261D01*
X223377013Y-65480918D01*
X223383965Y-65486128D01*
X223426479Y-65542988D01*
X223431504Y-65613806D01*
X223415832Y-65652788D01*
X223307073Y-65830268D01*
X223213195Y-66056908D01*
X223155928Y-66295443D01*
X223136681Y-66540000D01*
X223155928Y-66784557D01*
X223213195Y-67023092D01*
X223307073Y-67249732D01*
X223435248Y-67458896D01*
X223594567Y-67645433D01*
X223598323Y-67648641D01*
X223675069Y-67714189D01*
X223713878Y-67773640D01*
X223714384Y-67844635D01*
X223675069Y-67905811D01*
X223594567Y-67974567D01*
X223435248Y-68161104D01*
X223307073Y-68370268D01*
X223213195Y-68596908D01*
X223155928Y-68835443D01*
X223136681Y-69080000D01*
X202694586Y-69080000D01*
X202712814Y-68906565D01*
X202713504Y-68900000D01*
X202712814Y-68893435D01*
X202694232Y-68716635D01*
X202694232Y-68716633D01*
X202693542Y-68710072D01*
X202634527Y-68528444D01*
X202539040Y-68363056D01*
X202411253Y-68221134D01*
X202256752Y-68108882D01*
X202250724Y-68106198D01*
X202250722Y-68106197D01*
X202088319Y-68033891D01*
X202088318Y-68033891D01*
X202082288Y-68031206D01*
X201988888Y-68011353D01*
X201901944Y-67992872D01*
X201901939Y-67992872D01*
X201895487Y-67991500D01*
X201704513Y-67991500D01*
X201698061Y-67992872D01*
X201698056Y-67992872D01*
X201611112Y-68011353D01*
X201517712Y-68031206D01*
X201511682Y-68033891D01*
X201511681Y-68033891D01*
X201349278Y-68106197D01*
X201349276Y-68106198D01*
X201343248Y-68108882D01*
X201188747Y-68221134D01*
X201060960Y-68363056D01*
X200965473Y-68528444D01*
X200906458Y-68710072D01*
X200905768Y-68716633D01*
X200905768Y-68716635D01*
X200887186Y-68893435D01*
X200886496Y-68900000D01*
X175620623Y-68900000D01*
X175614039Y-63225000D01*
X210536496Y-63225000D01*
X210556458Y-63414928D01*
X210615473Y-63596556D01*
X210710960Y-63761944D01*
X210838747Y-63903866D01*
X210993248Y-64016118D01*
X210999276Y-64018802D01*
X210999278Y-64018803D01*
X211161681Y-64091109D01*
X211167712Y-64093794D01*
X211261112Y-64113647D01*
X211348056Y-64132128D01*
X211348061Y-64132128D01*
X211354513Y-64133500D01*
X211545487Y-64133500D01*
X211551939Y-64132128D01*
X211551944Y-64132128D01*
X211638888Y-64113647D01*
X211732288Y-64093794D01*
X211738319Y-64091109D01*
X211900722Y-64018803D01*
X211900724Y-64018802D01*
X211906752Y-64016118D01*
X212061253Y-63903866D01*
X212189040Y-63761944D01*
X212284527Y-63596556D01*
X212343542Y-63414928D01*
X212363504Y-63225000D01*
X212343542Y-63035072D01*
X212284527Y-62853444D01*
X212189040Y-62688056D01*
X212097999Y-62586944D01*
X212065675Y-62551045D01*
X212065674Y-62551044D01*
X212061253Y-62546134D01*
X211906752Y-62433882D01*
X211900724Y-62431198D01*
X211900722Y-62431197D01*
X211738319Y-62358891D01*
X211738318Y-62358891D01*
X211732288Y-62356206D01*
X211638888Y-62336353D01*
X211551944Y-62317872D01*
X211551939Y-62317872D01*
X211545487Y-62316500D01*
X211354513Y-62316500D01*
X211348061Y-62317872D01*
X211348056Y-62317872D01*
X211261112Y-62336353D01*
X211167712Y-62356206D01*
X211161682Y-62358891D01*
X211161681Y-62358891D01*
X210999278Y-62431197D01*
X210999276Y-62431198D01*
X210993248Y-62433882D01*
X210838747Y-62546134D01*
X210834326Y-62551044D01*
X210834325Y-62551045D01*
X210802002Y-62586944D01*
X210710960Y-62688056D01*
X210615473Y-62853444D01*
X210556458Y-63035072D01*
X210536496Y-63225000D01*
X175614039Y-63225000D01*
X175612676Y-62050000D01*
X175986496Y-62050000D01*
X176006458Y-62239928D01*
X176065473Y-62421556D01*
X176160960Y-62586944D01*
X176165378Y-62591851D01*
X176165379Y-62591852D01*
X176257150Y-62693774D01*
X176288747Y-62728866D01*
X176443248Y-62841118D01*
X176449276Y-62843802D01*
X176449278Y-62843803D01*
X176611681Y-62916109D01*
X176617712Y-62918794D01*
X176711112Y-62938647D01*
X176798056Y-62957128D01*
X176798061Y-62957128D01*
X176804513Y-62958500D01*
X176995487Y-62958500D01*
X177001939Y-62957128D01*
X177001944Y-62957128D01*
X177088888Y-62938647D01*
X177182288Y-62918794D01*
X177188319Y-62916109D01*
X177350722Y-62843803D01*
X177350724Y-62843802D01*
X177356752Y-62841118D01*
X177511253Y-62728866D01*
X177542850Y-62693774D01*
X177634621Y-62591852D01*
X177634622Y-62591851D01*
X177639040Y-62586944D01*
X177734527Y-62421556D01*
X177793542Y-62239928D01*
X177813504Y-62050000D01*
X177793542Y-61860072D01*
X177734527Y-61678444D01*
X177639040Y-61513056D01*
X177633196Y-61506565D01*
X177627285Y-61500000D01*
X202386496Y-61500000D01*
X202406458Y-61689928D01*
X202465473Y-61871556D01*
X202560960Y-62036944D01*
X202565378Y-62041851D01*
X202565379Y-62041852D01*
X202578627Y-62056565D01*
X202688747Y-62178866D01*
X202843248Y-62291118D01*
X202849276Y-62293802D01*
X202849278Y-62293803D01*
X202995469Y-62358891D01*
X203017712Y-62368794D01*
X203111112Y-62388647D01*
X203198056Y-62407128D01*
X203198061Y-62407128D01*
X203204513Y-62408500D01*
X203395487Y-62408500D01*
X203401939Y-62407128D01*
X203401944Y-62407128D01*
X203488888Y-62388647D01*
X203582288Y-62368794D01*
X203604531Y-62358891D01*
X203750722Y-62293803D01*
X203750724Y-62293802D01*
X203756752Y-62291118D01*
X203911253Y-62178866D01*
X204021373Y-62056565D01*
X204034621Y-62041852D01*
X204034622Y-62041851D01*
X204039040Y-62036944D01*
X204134527Y-61871556D01*
X204193542Y-61689928D01*
X204213504Y-61500000D01*
X204193542Y-61310072D01*
X204134527Y-61128444D01*
X204039040Y-60963056D01*
X203911253Y-60821134D01*
X203756752Y-60708882D01*
X203750724Y-60706198D01*
X203750722Y-60706197D01*
X203588319Y-60633891D01*
X203588318Y-60633891D01*
X203582288Y-60631206D01*
X203488887Y-60611353D01*
X203401944Y-60592872D01*
X203401939Y-60592872D01*
X203395487Y-60591500D01*
X203204513Y-60591500D01*
X203198061Y-60592872D01*
X203198056Y-60592872D01*
X203111113Y-60611353D01*
X203017712Y-60631206D01*
X203011682Y-60633891D01*
X203011681Y-60633891D01*
X202849278Y-60706197D01*
X202849276Y-60706198D01*
X202843248Y-60708882D01*
X202688747Y-60821134D01*
X202560960Y-60963056D01*
X202465473Y-61128444D01*
X202406458Y-61310072D01*
X202386496Y-61500000D01*
X177627285Y-61500000D01*
X177515675Y-61376045D01*
X177515674Y-61376044D01*
X177511253Y-61371134D01*
X177356752Y-61258882D01*
X177350724Y-61256198D01*
X177350722Y-61256197D01*
X177188319Y-61183891D01*
X177188318Y-61183891D01*
X177182288Y-61181206D01*
X177088887Y-61161353D01*
X177001944Y-61142872D01*
X177001939Y-61142872D01*
X176995487Y-61141500D01*
X176804513Y-61141500D01*
X176798061Y-61142872D01*
X176798056Y-61142872D01*
X176711113Y-61161353D01*
X176617712Y-61181206D01*
X176611682Y-61183891D01*
X176611681Y-61183891D01*
X176449278Y-61256197D01*
X176449276Y-61256198D01*
X176443248Y-61258882D01*
X176288747Y-61371134D01*
X176284326Y-61376044D01*
X176284325Y-61376045D01*
X176166805Y-61506565D01*
X176160960Y-61513056D01*
X176065473Y-61678444D01*
X176006458Y-61860072D01*
X175986496Y-62050000D01*
X175612676Y-62050000D01*
X175609201Y-59054645D01*
X175629124Y-58986502D01*
X175682726Y-58939947D01*
X175735201Y-58928500D01*
X229997500Y-58928500D01*
X230065621Y-58948502D01*
G37*
%TD.AperFunction*%
%TD*%
M02*
