%TF.GenerationSoftware,KiCad,Pcbnew,6.0.11-2627ca5db0~126~ubuntu22.04.1*%
%TF.CreationDate,2023-03-03T22:15:38-05:00*%
%TF.ProjectId,lin-coolant-temperature,6c696e2d-636f-46f6-9c61-6e742d74656d,1.0*%
%TF.SameCoordinates,Original*%
%TF.FileFunction,Legend,Bot*%
%TF.FilePolarity,Positive*%
%FSLAX46Y46*%
G04 Gerber Fmt 4.6, Leading zero omitted, Abs format (unit mm)*
G04 Created by KiCad (PCBNEW 6.0.11-2627ca5db0~126~ubuntu22.04.1) date 2023-03-03 22:15:38*
%MOMM*%
%LPD*%
G01*
G04 APERTURE LIST*
%ADD10C,0.150000*%
%ADD11C,0.120000*%
G04 APERTURE END LIST*
D10*
%TO.C,R6*%
X217696666Y-97182380D02*
X218030000Y-96706190D01*
X218268095Y-97182380D02*
X218268095Y-96182380D01*
X217887142Y-96182380D01*
X217791904Y-96230000D01*
X217744285Y-96277619D01*
X217696666Y-96372857D01*
X217696666Y-96515714D01*
X217744285Y-96610952D01*
X217791904Y-96658571D01*
X217887142Y-96706190D01*
X218268095Y-96706190D01*
X216839523Y-96182380D02*
X217030000Y-96182380D01*
X217125238Y-96230000D01*
X217172857Y-96277619D01*
X217268095Y-96420476D01*
X217315714Y-96610952D01*
X217315714Y-96991904D01*
X217268095Y-97087142D01*
X217220476Y-97134761D01*
X217125238Y-97182380D01*
X216934761Y-97182380D01*
X216839523Y-97134761D01*
X216791904Y-97087142D01*
X216744285Y-96991904D01*
X216744285Y-96753809D01*
X216791904Y-96658571D01*
X216839523Y-96610952D01*
X216934761Y-96563333D01*
X217125238Y-96563333D01*
X217220476Y-96610952D01*
X217268095Y-96658571D01*
X217315714Y-96753809D01*
%TO.C,JP1*%
X222398333Y-96642380D02*
X222398333Y-97356666D01*
X222445952Y-97499523D01*
X222541190Y-97594761D01*
X222684047Y-97642380D01*
X222779285Y-97642380D01*
X221922142Y-97642380D02*
X221922142Y-96642380D01*
X221541190Y-96642380D01*
X221445952Y-96690000D01*
X221398333Y-96737619D01*
X221350714Y-96832857D01*
X221350714Y-96975714D01*
X221398333Y-97070952D01*
X221445952Y-97118571D01*
X221541190Y-97166190D01*
X221922142Y-97166190D01*
X220398333Y-97642380D02*
X220969761Y-97642380D01*
X220684047Y-97642380D02*
X220684047Y-96642380D01*
X220779285Y-96785238D01*
X220874523Y-96880476D01*
X220969761Y-96928095D01*
%TO.C,D2*%
X212958095Y-97522380D02*
X212958095Y-96522380D01*
X212720000Y-96522380D01*
X212577142Y-96570000D01*
X212481904Y-96665238D01*
X212434285Y-96760476D01*
X212386666Y-96950952D01*
X212386666Y-97093809D01*
X212434285Y-97284285D01*
X212481904Y-97379523D01*
X212577142Y-97474761D01*
X212720000Y-97522380D01*
X212958095Y-97522380D01*
X212005714Y-96617619D02*
X211958095Y-96570000D01*
X211862857Y-96522380D01*
X211624761Y-96522380D01*
X211529523Y-96570000D01*
X211481904Y-96617619D01*
X211434285Y-96712857D01*
X211434285Y-96808095D01*
X211481904Y-96950952D01*
X212053333Y-97522380D01*
X211434285Y-97522380D01*
%TO.C,R3*%
X196916666Y-88402380D02*
X197250000Y-87926190D01*
X197488095Y-88402380D02*
X197488095Y-87402380D01*
X197107142Y-87402380D01*
X197011904Y-87450000D01*
X196964285Y-87497619D01*
X196916666Y-87592857D01*
X196916666Y-87735714D01*
X196964285Y-87830952D01*
X197011904Y-87878571D01*
X197107142Y-87926190D01*
X197488095Y-87926190D01*
X196583333Y-87402380D02*
X195964285Y-87402380D01*
X196297619Y-87783333D01*
X196154761Y-87783333D01*
X196059523Y-87830952D01*
X196011904Y-87878571D01*
X195964285Y-87973809D01*
X195964285Y-88211904D01*
X196011904Y-88307142D01*
X196059523Y-88354761D01*
X196154761Y-88402380D01*
X196440476Y-88402380D01*
X196535714Y-88354761D01*
X196583333Y-88307142D01*
%TO.C,R7*%
X183566666Y-86827380D02*
X183900000Y-86351190D01*
X184138095Y-86827380D02*
X184138095Y-85827380D01*
X183757142Y-85827380D01*
X183661904Y-85875000D01*
X183614285Y-85922619D01*
X183566666Y-86017857D01*
X183566666Y-86160714D01*
X183614285Y-86255952D01*
X183661904Y-86303571D01*
X183757142Y-86351190D01*
X184138095Y-86351190D01*
X183233333Y-85827380D02*
X182566666Y-85827380D01*
X182995238Y-86827380D01*
%TO.C,R4*%
X200916666Y-88477380D02*
X201250000Y-88001190D01*
X201488095Y-88477380D02*
X201488095Y-87477380D01*
X201107142Y-87477380D01*
X201011904Y-87525000D01*
X200964285Y-87572619D01*
X200916666Y-87667857D01*
X200916666Y-87810714D01*
X200964285Y-87905952D01*
X201011904Y-87953571D01*
X201107142Y-88001190D01*
X201488095Y-88001190D01*
X200059523Y-87810714D02*
X200059523Y-88477380D01*
X200297619Y-87429761D02*
X200535714Y-88144047D01*
X199916666Y-88144047D01*
%TO.C,C2*%
X220332142Y-67008333D02*
X220379761Y-66960714D01*
X220427380Y-66817857D01*
X220427380Y-66722619D01*
X220379761Y-66579761D01*
X220284523Y-66484523D01*
X220189285Y-66436904D01*
X219998809Y-66389285D01*
X219855952Y-66389285D01*
X219665476Y-66436904D01*
X219570238Y-66484523D01*
X219475000Y-66579761D01*
X219427380Y-66722619D01*
X219427380Y-66817857D01*
X219475000Y-66960714D01*
X219522619Y-67008333D01*
X219522619Y-67389285D02*
X219475000Y-67436904D01*
X219427380Y-67532142D01*
X219427380Y-67770238D01*
X219475000Y-67865476D01*
X219522619Y-67913095D01*
X219617857Y-67960714D01*
X219713095Y-67960714D01*
X219855952Y-67913095D01*
X220427380Y-67341666D01*
X220427380Y-67960714D01*
%TO.C,R8*%
X187541666Y-86877380D02*
X187875000Y-86401190D01*
X188113095Y-86877380D02*
X188113095Y-85877380D01*
X187732142Y-85877380D01*
X187636904Y-85925000D01*
X187589285Y-85972619D01*
X187541666Y-86067857D01*
X187541666Y-86210714D01*
X187589285Y-86305952D01*
X187636904Y-86353571D01*
X187732142Y-86401190D01*
X188113095Y-86401190D01*
X186970238Y-86305952D02*
X187065476Y-86258333D01*
X187113095Y-86210714D01*
X187160714Y-86115476D01*
X187160714Y-86067857D01*
X187113095Y-85972619D01*
X187065476Y-85925000D01*
X186970238Y-85877380D01*
X186779761Y-85877380D01*
X186684523Y-85925000D01*
X186636904Y-85972619D01*
X186589285Y-86067857D01*
X186589285Y-86115476D01*
X186636904Y-86210714D01*
X186684523Y-86258333D01*
X186779761Y-86305952D01*
X186970238Y-86305952D01*
X187065476Y-86353571D01*
X187113095Y-86401190D01*
X187160714Y-86496428D01*
X187160714Y-86686904D01*
X187113095Y-86782142D01*
X187065476Y-86829761D01*
X186970238Y-86877380D01*
X186779761Y-86877380D01*
X186684523Y-86829761D01*
X186636904Y-86782142D01*
X186589285Y-86686904D01*
X186589285Y-86496428D01*
X186636904Y-86401190D01*
X186684523Y-86353571D01*
X186779761Y-86305952D01*
%TO.C,D5*%
X220252380Y-82611904D02*
X219252380Y-82611904D01*
X219252380Y-82850000D01*
X219300000Y-82992857D01*
X219395238Y-83088095D01*
X219490476Y-83135714D01*
X219680952Y-83183333D01*
X219823809Y-83183333D01*
X220014285Y-83135714D01*
X220109523Y-83088095D01*
X220204761Y-82992857D01*
X220252380Y-82850000D01*
X220252380Y-82611904D01*
X219252380Y-84088095D02*
X219252380Y-83611904D01*
X219728571Y-83564285D01*
X219680952Y-83611904D01*
X219633333Y-83707142D01*
X219633333Y-83945238D01*
X219680952Y-84040476D01*
X219728571Y-84088095D01*
X219823809Y-84135714D01*
X220061904Y-84135714D01*
X220157142Y-84088095D01*
X220204761Y-84040476D01*
X220252380Y-83945238D01*
X220252380Y-83707142D01*
X220204761Y-83611904D01*
X220157142Y-83564285D01*
%TO.C,R9*%
X183466666Y-90552380D02*
X183800000Y-90076190D01*
X184038095Y-90552380D02*
X184038095Y-89552380D01*
X183657142Y-89552380D01*
X183561904Y-89600000D01*
X183514285Y-89647619D01*
X183466666Y-89742857D01*
X183466666Y-89885714D01*
X183514285Y-89980952D01*
X183561904Y-90028571D01*
X183657142Y-90076190D01*
X184038095Y-90076190D01*
X182990476Y-90552380D02*
X182800000Y-90552380D01*
X182704761Y-90504761D01*
X182657142Y-90457142D01*
X182561904Y-90314285D01*
X182514285Y-90123809D01*
X182514285Y-89742857D01*
X182561904Y-89647619D01*
X182609523Y-89600000D01*
X182704761Y-89552380D01*
X182895238Y-89552380D01*
X182990476Y-89600000D01*
X183038095Y-89647619D01*
X183085714Y-89742857D01*
X183085714Y-89980952D01*
X183038095Y-90076190D01*
X182990476Y-90123809D01*
X182895238Y-90171428D01*
X182704761Y-90171428D01*
X182609523Y-90123809D01*
X182561904Y-90076190D01*
X182514285Y-89980952D01*
%TO.C,R10*%
X190167857Y-87227380D02*
X190501190Y-86751190D01*
X190739285Y-87227380D02*
X190739285Y-86227380D01*
X190358333Y-86227380D01*
X190263095Y-86275000D01*
X190215476Y-86322619D01*
X190167857Y-86417857D01*
X190167857Y-86560714D01*
X190215476Y-86655952D01*
X190263095Y-86703571D01*
X190358333Y-86751190D01*
X190739285Y-86751190D01*
X189215476Y-87227380D02*
X189786904Y-87227380D01*
X189501190Y-87227380D02*
X189501190Y-86227380D01*
X189596428Y-86370238D01*
X189691666Y-86465476D01*
X189786904Y-86513095D01*
X188596428Y-86227380D02*
X188501190Y-86227380D01*
X188405952Y-86275000D01*
X188358333Y-86322619D01*
X188310714Y-86417857D01*
X188263095Y-86608333D01*
X188263095Y-86846428D01*
X188310714Y-87036904D01*
X188358333Y-87132142D01*
X188405952Y-87179761D01*
X188501190Y-87227380D01*
X188596428Y-87227380D01*
X188691666Y-87179761D01*
X188739285Y-87132142D01*
X188786904Y-87036904D01*
X188834523Y-86846428D01*
X188834523Y-86608333D01*
X188786904Y-86417857D01*
X188739285Y-86322619D01*
X188691666Y-86275000D01*
X188596428Y-86227380D01*
%TO.C,D4*%
X220202380Y-74661904D02*
X219202380Y-74661904D01*
X219202380Y-74900000D01*
X219250000Y-75042857D01*
X219345238Y-75138095D01*
X219440476Y-75185714D01*
X219630952Y-75233333D01*
X219773809Y-75233333D01*
X219964285Y-75185714D01*
X220059523Y-75138095D01*
X220154761Y-75042857D01*
X220202380Y-74900000D01*
X220202380Y-74661904D01*
X219535714Y-76090476D02*
X220202380Y-76090476D01*
X219154761Y-75852380D02*
X219869047Y-75614285D01*
X219869047Y-76233333D01*
D11*
%TO.C,R6*%
X217502936Y-94035000D02*
X217957064Y-94035000D01*
X217502936Y-95505000D02*
X217957064Y-95505000D01*
%TO.C,JP1*%
X222950000Y-95860000D02*
X222950000Y-93860000D01*
X220150000Y-93860000D02*
X220150000Y-95860000D01*
X220150000Y-95860000D02*
X222950000Y-95860000D01*
X222950000Y-93860000D02*
X220150000Y-93860000D01*
%TO.C,D2*%
X215420000Y-93890000D02*
X215420000Y-95890000D01*
X215420000Y-93890000D02*
X211520000Y-93890000D01*
X215420000Y-95890000D02*
X211520000Y-95890000D01*
%TO.C,R3*%
X196422936Y-89015000D02*
X196877064Y-89015000D01*
X196422936Y-90485000D02*
X196877064Y-90485000D01*
%TO.C,R7*%
X183172936Y-83990000D02*
X183627064Y-83990000D01*
X183172936Y-85460000D02*
X183627064Y-85460000D01*
%TO.C,R4*%
X200652064Y-89015000D02*
X200197936Y-89015000D01*
X200652064Y-90485000D02*
X200197936Y-90485000D01*
%TO.C,C2*%
X222510000Y-67973752D02*
X222510000Y-67451248D01*
X221040000Y-67973752D02*
X221040000Y-67451248D01*
%TO.C,R8*%
X187147936Y-85510000D02*
X187602064Y-85510000D01*
X187147936Y-84040000D02*
X187602064Y-84040000D01*
%TO.C,D5*%
X222800000Y-81100000D02*
X222800000Y-85000000D01*
X220800000Y-81100000D02*
X220800000Y-85000000D01*
X220800000Y-81100000D02*
X222800000Y-81100000D01*
%TO.C,R9*%
X183072936Y-87715000D02*
X183527064Y-87715000D01*
X183072936Y-89185000D02*
X183527064Y-89185000D01*
%TO.C,R10*%
X189752064Y-89160000D02*
X189297936Y-89160000D01*
X189752064Y-87690000D02*
X189297936Y-87690000D01*
%TO.C,D4*%
X220750000Y-73150000D02*
X222750000Y-73150000D01*
X222750000Y-73150000D02*
X222750000Y-77050000D01*
X220750000Y-73150000D02*
X220750000Y-77050000D01*
%TD*%
M02*
