%TF.GenerationSoftware,KiCad,Pcbnew,6.0.11-2627ca5db0~126~ubuntu22.04.1*%
%TF.CreationDate,2023-03-03T22:15:38-05:00*%
%TF.ProjectId,lin-coolant-temperature,6c696e2d-636f-46f6-9c61-6e742d74656d,1.0*%
%TF.SameCoordinates,Original*%
%TF.FileFunction,Copper,L3,Inr*%
%TF.FilePolarity,Positive*%
%FSLAX46Y46*%
G04 Gerber Fmt 4.6, Leading zero omitted, Abs format (unit mm)*
G04 Created by KiCad (PCBNEW 6.0.11-2627ca5db0~126~ubuntu22.04.1) date 2023-03-03 22:15:38*
%MOMM*%
%LPD*%
G01*
G04 APERTURE LIST*
%TA.AperFunction,ComponentPad*%
%ADD10R,1.700000X1.700000*%
%TD*%
%TA.AperFunction,ComponentPad*%
%ADD11O,1.700000X1.700000*%
%TD*%
%TA.AperFunction,ComponentPad*%
%ADD12R,1.879600X1.879600*%
%TD*%
%TA.AperFunction,ComponentPad*%
%ADD13C,1.879600*%
%TD*%
%TA.AperFunction,ComponentPad*%
%ADD14R,2.100000X2.100000*%
%TD*%
%TA.AperFunction,ComponentPad*%
%ADD15C,2.100000*%
%TD*%
%TA.AperFunction,ViaPad*%
%ADD16C,0.800000*%
%TD*%
%TA.AperFunction,Conductor*%
%ADD17C,0.250000*%
%TD*%
G04 APERTURE END LIST*
D10*
%TO.N,+5V*%
%TO.C,U3*%
X185600000Y-74790000D03*
D11*
%TO.N,GND*%
X185600000Y-72250000D03*
%TO.N,+12V*%
X185600000Y-69710000D03*
%TO.N,unconnected-(U3-Pad4)*%
X185600000Y-67170000D03*
%TD*%
D12*
%TO.N,unconnected-(J1-Pad1)*%
%TO.C,J1*%
X226520000Y-91800000D03*
D13*
%TO.N,UPDI*%
X223980000Y-91800000D03*
%TO.N,Net-(R6-Pad2)*%
X221440000Y-91800000D03*
%TO.N,Net-(JP1-Pad1)*%
X218900000Y-91800000D03*
%TO.N,unconnected-(J1-Pad5)*%
X216360000Y-91800000D03*
%TO.N,GND*%
X213820000Y-91800000D03*
%TD*%
D10*
%TO.N,GND*%
%TO.C,J2*%
X180150000Y-82100000D03*
D11*
%TO.N,+5V*%
X182690000Y-82100000D03*
%TO.N,SDA5V*%
X185230000Y-82100000D03*
%TO.N,SCL5V*%
X187770000Y-82100000D03*
%TD*%
D14*
%TO.N,Net-(D4-Pad1)*%
%TO.C,J4*%
X224750000Y-74075000D03*
D15*
%TO.N,GND*%
X224750000Y-76615000D03*
%TD*%
D14*
%TO.N,Net-(D5-Pad1)*%
%TO.C,J5*%
X224750000Y-82030000D03*
D15*
%TO.N,GND*%
X224750000Y-84570000D03*
%TD*%
D14*
%TO.N,+BATT*%
%TO.C,J3*%
X224700000Y-64000000D03*
D15*
%TO.N,GND*%
X224700000Y-66540000D03*
%TO.N,LIN*%
X224700000Y-69080000D03*
%TD*%
D16*
%TO.N,GND*%
X194130000Y-86230000D03*
X199900000Y-78110000D03*
%TO.N,+5V*%
X194570000Y-78220000D03*
%TO.N,+3V3*%
X194120000Y-81610000D03*
%TO.N,GND*%
X191410000Y-81710000D03*
X189030000Y-78530000D03*
X177890000Y-78430000D03*
X209500000Y-68280000D03*
%TO.N,+3V3*%
X223880000Y-96860000D03*
%TO.N,Net-(JP1-Pad1)*%
X219610000Y-96670000D03*
%TO.N,UPDI*%
X210320000Y-94680000D03*
%TO.N,GND*%
X216306500Y-76517165D03*
X215982713Y-84558738D03*
X207550000Y-91950000D03*
X200500000Y-82850000D03*
X207600000Y-86525000D03*
X206625000Y-89750000D03*
%TO.N,LIN*%
X199200000Y-81575000D03*
%TO.N,TXD*%
X205680502Y-95003747D03*
X200550000Y-91800000D03*
%TO.N,~{LIN_SLP}*%
X197950000Y-91675000D03*
X205075000Y-92075000D03*
%TO.N,~{LIN_WAKE}*%
X204925000Y-93300000D03*
X199225000Y-91625000D03*
%TO.N,SDA*%
X206675000Y-96775000D03*
X185425000Y-90325000D03*
%TO.N,SCL*%
X206290576Y-95852382D03*
X187450000Y-90425000D03*
%TO.N,+3V3*%
X194225000Y-89700000D03*
X213125000Y-73775000D03*
X213050000Y-81675000D03*
X197475000Y-93675000D03*
X216975000Y-78700000D03*
X202850000Y-88175000D03*
X192025000Y-93200000D03*
X217500000Y-85725000D03*
X181950000Y-90050000D03*
X190550000Y-89975000D03*
%TO.N,Net-(R5-Pad1)*%
X205718792Y-93907371D03*
X203700000Y-86825000D03*
%TD*%
D17*
%TO.N,Net-(JP1-Pad1)*%
X218900000Y-95960000D02*
X219610000Y-96670000D01*
X218900000Y-91800000D02*
X218900000Y-95960000D01*
%TO.N,TXD*%
X205680502Y-95003747D02*
X203753747Y-95003747D01*
X203753747Y-95003747D02*
X200550000Y-91800000D01*
%TD*%
%TA.AperFunction,Conductor*%
%TO.N,+3V3*%
G36*
X230065621Y-58948502D02*
G01*
X230112114Y-59002158D01*
X230123500Y-59054500D01*
X230123500Y-100966071D01*
X230103498Y-101034192D01*
X230049842Y-101080685D01*
X229997614Y-101092071D01*
X175783994Y-101140950D01*
X175715855Y-101121009D01*
X175669314Y-101067396D01*
X175657880Y-101015096D01*
X175647044Y-91675000D01*
X197036496Y-91675000D01*
X197037186Y-91681565D01*
X197051308Y-91815925D01*
X197056458Y-91864928D01*
X197115473Y-92046556D01*
X197210960Y-92211944D01*
X197215378Y-92216851D01*
X197215379Y-92216852D01*
X197258667Y-92264928D01*
X197338747Y-92353866D01*
X197419266Y-92412367D01*
X197471693Y-92450457D01*
X197493248Y-92466118D01*
X197499276Y-92468802D01*
X197499278Y-92468803D01*
X197644591Y-92533500D01*
X197667712Y-92543794D01*
X197761112Y-92563647D01*
X197848056Y-92582128D01*
X197848061Y-92582128D01*
X197854513Y-92583500D01*
X198045487Y-92583500D01*
X198051939Y-92582128D01*
X198051944Y-92582128D01*
X198138888Y-92563647D01*
X198232288Y-92543794D01*
X198255409Y-92533500D01*
X198400722Y-92468803D01*
X198400724Y-92468802D01*
X198406752Y-92466118D01*
X198428308Y-92450457D01*
X198480734Y-92412367D01*
X198547849Y-92363605D01*
X198614715Y-92339747D01*
X198683867Y-92355827D01*
X198695970Y-92363605D01*
X198762905Y-92412236D01*
X198768248Y-92416118D01*
X198774276Y-92418802D01*
X198774278Y-92418803D01*
X198936681Y-92491109D01*
X198942712Y-92493794D01*
X199036112Y-92513647D01*
X199123056Y-92532128D01*
X199123061Y-92532128D01*
X199129513Y-92533500D01*
X199320487Y-92533500D01*
X199326939Y-92532128D01*
X199326944Y-92532128D01*
X199413887Y-92513647D01*
X199507288Y-92493794D01*
X199513319Y-92491109D01*
X199675722Y-92418803D01*
X199675724Y-92418802D01*
X199681752Y-92416118D01*
X199711174Y-92394742D01*
X199778040Y-92370883D01*
X199847192Y-92386962D01*
X199878871Y-92412367D01*
X199882249Y-92416118D01*
X199938747Y-92478866D01*
X200093248Y-92591118D01*
X200099276Y-92593802D01*
X200099278Y-92593803D01*
X200261681Y-92666109D01*
X200267712Y-92668794D01*
X200361113Y-92688647D01*
X200448056Y-92707128D01*
X200448061Y-92707128D01*
X200454513Y-92708500D01*
X200510406Y-92708500D01*
X200578527Y-92728502D01*
X200599501Y-92745405D01*
X203250090Y-95395994D01*
X203257634Y-95404284D01*
X203261747Y-95410765D01*
X203267524Y-95416190D01*
X203311414Y-95457405D01*
X203314256Y-95460160D01*
X203333977Y-95479881D01*
X203337172Y-95482359D01*
X203346194Y-95490065D01*
X203378426Y-95520333D01*
X203385375Y-95524153D01*
X203396179Y-95530093D01*
X203412703Y-95540946D01*
X203428706Y-95553360D01*
X203469290Y-95570923D01*
X203479920Y-95576130D01*
X203518687Y-95597442D01*
X203526364Y-95599413D01*
X203526369Y-95599415D01*
X203538305Y-95602479D01*
X203557013Y-95608884D01*
X203575602Y-95616928D01*
X203583427Y-95618167D01*
X203583429Y-95618168D01*
X203619266Y-95623844D01*
X203630887Y-95626251D01*
X203666036Y-95635275D01*
X203673717Y-95637247D01*
X203693978Y-95637247D01*
X203713687Y-95638798D01*
X203733690Y-95641966D01*
X203741582Y-95641220D01*
X203746809Y-95640726D01*
X203777701Y-95637806D01*
X203789558Y-95637247D01*
X204972302Y-95637247D01*
X205040423Y-95657249D01*
X205059649Y-95673590D01*
X205059922Y-95673287D01*
X205064834Y-95677710D01*
X205069249Y-95682613D01*
X205074588Y-95686492D01*
X205179716Y-95762872D01*
X205223750Y-95794865D01*
X205229776Y-95797548D01*
X205229783Y-95797552D01*
X205311799Y-95834067D01*
X205365895Y-95880047D01*
X205385861Y-95936004D01*
X205392986Y-96003791D01*
X205397034Y-96042310D01*
X205456049Y-96223938D01*
X205459352Y-96229660D01*
X205459353Y-96229661D01*
X205477011Y-96260246D01*
X205551536Y-96389326D01*
X205555954Y-96394233D01*
X205555955Y-96394234D01*
X205627591Y-96473794D01*
X205679323Y-96531248D01*
X205684664Y-96535128D01*
X205684669Y-96535133D01*
X205720616Y-96561250D01*
X205763969Y-96617472D01*
X205771864Y-96676356D01*
X205761496Y-96775000D01*
X205781458Y-96964928D01*
X205840473Y-97146556D01*
X205935960Y-97311944D01*
X206063747Y-97453866D01*
X206218248Y-97566118D01*
X206224276Y-97568802D01*
X206224278Y-97568803D01*
X206386681Y-97641109D01*
X206392712Y-97643794D01*
X206486113Y-97663647D01*
X206573056Y-97682128D01*
X206573061Y-97682128D01*
X206579513Y-97683500D01*
X206770487Y-97683500D01*
X206776939Y-97682128D01*
X206776944Y-97682128D01*
X206863887Y-97663647D01*
X206957288Y-97643794D01*
X206963319Y-97641109D01*
X207125722Y-97568803D01*
X207125724Y-97568802D01*
X207131752Y-97566118D01*
X207286253Y-97453866D01*
X207414040Y-97311944D01*
X207509527Y-97146556D01*
X207568542Y-96964928D01*
X207588504Y-96775000D01*
X207572085Y-96618782D01*
X207569232Y-96591635D01*
X207569232Y-96591633D01*
X207568542Y-96585072D01*
X207509527Y-96403444D01*
X207505869Y-96397107D01*
X207426851Y-96260246D01*
X207414040Y-96238056D01*
X207392014Y-96213593D01*
X207290675Y-96101045D01*
X207290674Y-96101044D01*
X207286253Y-96096134D01*
X207280912Y-96092254D01*
X207280907Y-96092249D01*
X207244960Y-96066132D01*
X207201607Y-96009910D01*
X207193712Y-95951026D01*
X207203390Y-95858947D01*
X207204080Y-95852382D01*
X207202155Y-95834067D01*
X207184808Y-95669017D01*
X207184808Y-95669015D01*
X207184118Y-95662454D01*
X207125103Y-95480826D01*
X207117258Y-95467237D01*
X207032917Y-95321156D01*
X207029616Y-95315438D01*
X206901829Y-95173516D01*
X206747328Y-95061264D01*
X206741302Y-95058581D01*
X206741295Y-95058577D01*
X206659279Y-95022062D01*
X206605183Y-94976082D01*
X206585217Y-94920125D01*
X206574734Y-94820382D01*
X206574734Y-94820380D01*
X206574044Y-94813819D01*
X206530563Y-94680000D01*
X209406496Y-94680000D01*
X209407186Y-94686565D01*
X209421251Y-94820382D01*
X209426458Y-94869928D01*
X209485473Y-95051556D01*
X209488776Y-95057278D01*
X209488777Y-95057279D01*
X209522686Y-95116010D01*
X209580960Y-95216944D01*
X209708747Y-95358866D01*
X209807843Y-95430864D01*
X209848166Y-95460160D01*
X209863248Y-95471118D01*
X209869276Y-95473802D01*
X209869278Y-95473803D01*
X210006438Y-95534870D01*
X210037712Y-95548794D01*
X210131113Y-95568647D01*
X210218056Y-95587128D01*
X210218061Y-95587128D01*
X210224513Y-95588500D01*
X210415487Y-95588500D01*
X210421939Y-95587128D01*
X210421944Y-95587128D01*
X210508887Y-95568647D01*
X210602288Y-95548794D01*
X210633562Y-95534870D01*
X210770722Y-95473803D01*
X210770724Y-95473802D01*
X210776752Y-95471118D01*
X210791835Y-95460160D01*
X210832157Y-95430864D01*
X210931253Y-95358866D01*
X211059040Y-95216944D01*
X211117314Y-95116010D01*
X211151223Y-95057279D01*
X211151224Y-95057278D01*
X211154527Y-95051556D01*
X211213542Y-94869928D01*
X211218750Y-94820382D01*
X211232814Y-94686565D01*
X211233504Y-94680000D01*
X211213542Y-94490072D01*
X211154527Y-94308444D01*
X211140790Y-94284650D01*
X211062341Y-94148774D01*
X211059040Y-94143056D01*
X211014693Y-94093803D01*
X210935675Y-94006045D01*
X210935674Y-94006044D01*
X210931253Y-94001134D01*
X210776752Y-93888882D01*
X210770724Y-93886198D01*
X210770722Y-93886197D01*
X210608319Y-93813891D01*
X210608318Y-93813891D01*
X210602288Y-93811206D01*
X210508888Y-93791353D01*
X210421944Y-93772872D01*
X210421939Y-93772872D01*
X210415487Y-93771500D01*
X210224513Y-93771500D01*
X210218061Y-93772872D01*
X210218056Y-93772872D01*
X210131112Y-93791353D01*
X210037712Y-93811206D01*
X210031682Y-93813891D01*
X210031681Y-93813891D01*
X209869278Y-93886197D01*
X209869276Y-93886198D01*
X209863248Y-93888882D01*
X209708747Y-94001134D01*
X209704326Y-94006044D01*
X209704325Y-94006045D01*
X209625308Y-94093803D01*
X209580960Y-94143056D01*
X209577659Y-94148774D01*
X209499211Y-94284650D01*
X209485473Y-94308444D01*
X209426458Y-94490072D01*
X209406496Y-94680000D01*
X206530563Y-94680000D01*
X206515029Y-94632191D01*
X206468568Y-94551718D01*
X206451830Y-94482724D01*
X206468568Y-94425719D01*
X206550015Y-94284650D01*
X206550016Y-94284649D01*
X206553319Y-94278927D01*
X206612334Y-94097299D01*
X206632296Y-93907371D01*
X206612334Y-93717443D01*
X206553319Y-93535815D01*
X206457832Y-93370427D01*
X206400331Y-93306565D01*
X206334467Y-93233416D01*
X206334466Y-93233415D01*
X206330045Y-93228505D01*
X206175544Y-93116253D01*
X206169516Y-93113569D01*
X206169514Y-93113568D01*
X206007111Y-93041262D01*
X206007110Y-93041262D01*
X206001080Y-93038577D01*
X205850399Y-93006549D01*
X205787927Y-92972821D01*
X205761529Y-92934606D01*
X205759527Y-92928444D01*
X205715257Y-92851766D01*
X205698520Y-92782771D01*
X205721741Y-92715679D01*
X205730741Y-92704457D01*
X205809621Y-92616852D01*
X205809622Y-92616851D01*
X205814040Y-92611944D01*
X205909527Y-92446556D01*
X205968542Y-92264928D01*
X205988504Y-92075000D01*
X205975366Y-91950000D01*
X206636496Y-91950000D01*
X206656458Y-92139928D01*
X206715473Y-92321556D01*
X206718776Y-92327278D01*
X206718777Y-92327279D01*
X206731292Y-92348955D01*
X206810960Y-92486944D01*
X206815378Y-92491851D01*
X206815379Y-92491852D01*
X206928207Y-92617160D01*
X206938747Y-92628866D01*
X206996110Y-92670543D01*
X207075884Y-92728502D01*
X207093248Y-92741118D01*
X207099276Y-92743802D01*
X207099278Y-92743803D01*
X207261681Y-92816109D01*
X207267712Y-92818794D01*
X207359560Y-92838317D01*
X207448056Y-92857128D01*
X207448061Y-92857128D01*
X207454513Y-92858500D01*
X207645487Y-92858500D01*
X207651939Y-92857128D01*
X207651944Y-92857128D01*
X207740440Y-92838317D01*
X207832288Y-92818794D01*
X207838319Y-92816109D01*
X208000722Y-92743803D01*
X208000724Y-92743802D01*
X208006752Y-92741118D01*
X208024117Y-92728502D01*
X208103890Y-92670543D01*
X208161253Y-92628866D01*
X208171793Y-92617160D01*
X208284621Y-92491852D01*
X208284622Y-92491851D01*
X208289040Y-92486944D01*
X208368708Y-92348955D01*
X208381223Y-92327279D01*
X208381224Y-92327278D01*
X208384527Y-92321556D01*
X208443542Y-92139928D01*
X208463504Y-91950000D01*
X208447739Y-91800000D01*
X208444232Y-91766635D01*
X208444232Y-91766633D01*
X208444007Y-91764494D01*
X212367170Y-91764494D01*
X212367467Y-91769646D01*
X212367467Y-91769650D01*
X212377866Y-91950000D01*
X212380879Y-92002255D01*
X212382016Y-92007301D01*
X212382017Y-92007307D01*
X212392152Y-92052279D01*
X212433237Y-92234585D01*
X212435179Y-92239367D01*
X212435180Y-92239371D01*
X212508040Y-92418803D01*
X212522837Y-92455244D01*
X212647274Y-92658306D01*
X212803204Y-92838317D01*
X212986442Y-92990444D01*
X212990894Y-92993046D01*
X212990899Y-92993049D01*
X213179162Y-93103061D01*
X213192065Y-93110601D01*
X213414552Y-93195560D01*
X213419618Y-93196591D01*
X213419619Y-93196591D01*
X213473956Y-93207646D01*
X213647928Y-93243041D01*
X213781284Y-93247931D01*
X213880760Y-93251579D01*
X213880764Y-93251579D01*
X213885924Y-93251768D01*
X213891044Y-93251112D01*
X213891046Y-93251112D01*
X214117023Y-93222164D01*
X214117024Y-93222164D01*
X214122151Y-93221507D01*
X214205200Y-93196591D01*
X214345316Y-93154554D01*
X214345317Y-93154553D01*
X214350262Y-93153070D01*
X214564133Y-93048295D01*
X214568336Y-93045297D01*
X214568341Y-93045294D01*
X214753816Y-92912996D01*
X214753818Y-92912994D01*
X214758020Y-92909997D01*
X214926716Y-92741889D01*
X214984979Y-92660807D01*
X215040972Y-92617160D01*
X215111676Y-92610714D01*
X215174640Y-92643516D01*
X215186582Y-92657176D01*
X215187274Y-92658306D01*
X215343204Y-92838317D01*
X215526442Y-92990444D01*
X215530894Y-92993046D01*
X215530899Y-92993049D01*
X215719162Y-93103061D01*
X215732065Y-93110601D01*
X215954552Y-93195560D01*
X215959618Y-93196591D01*
X215959619Y-93196591D01*
X216013956Y-93207646D01*
X216187928Y-93243041D01*
X216321284Y-93247931D01*
X216420760Y-93251579D01*
X216420764Y-93251579D01*
X216425924Y-93251768D01*
X216431044Y-93251112D01*
X216431046Y-93251112D01*
X216657023Y-93222164D01*
X216657024Y-93222164D01*
X216662151Y-93221507D01*
X216745200Y-93196591D01*
X216885316Y-93154554D01*
X216885317Y-93154553D01*
X216890262Y-93153070D01*
X217104133Y-93048295D01*
X217108336Y-93045297D01*
X217108341Y-93045294D01*
X217293816Y-92912996D01*
X217293818Y-92912994D01*
X217298020Y-92909997D01*
X217466716Y-92741889D01*
X217524979Y-92660807D01*
X217580972Y-92617160D01*
X217651676Y-92610714D01*
X217714640Y-92643516D01*
X217726582Y-92657176D01*
X217727274Y-92658306D01*
X217883204Y-92838317D01*
X218066442Y-92990444D01*
X218070894Y-92993046D01*
X218070899Y-92993049D01*
X218204071Y-93070868D01*
X218252794Y-93122507D01*
X218266500Y-93179656D01*
X218266500Y-95881233D01*
X218265973Y-95892416D01*
X218264298Y-95899909D01*
X218264547Y-95907835D01*
X218264547Y-95907836D01*
X218266438Y-95967986D01*
X218266500Y-95971945D01*
X218266500Y-95999856D01*
X218266997Y-96003790D01*
X218266997Y-96003791D01*
X218267005Y-96003856D01*
X218267938Y-96015693D01*
X218269327Y-96059889D01*
X218274978Y-96079339D01*
X218278987Y-96098700D01*
X218281526Y-96118797D01*
X218284445Y-96126168D01*
X218284445Y-96126170D01*
X218297804Y-96159912D01*
X218301649Y-96171142D01*
X218313982Y-96213593D01*
X218318015Y-96220412D01*
X218318017Y-96220417D01*
X218324293Y-96231028D01*
X218332988Y-96248776D01*
X218340448Y-96267617D01*
X218345110Y-96274033D01*
X218345110Y-96274034D01*
X218366436Y-96303387D01*
X218372952Y-96313307D01*
X218395458Y-96351362D01*
X218409779Y-96365683D01*
X218422619Y-96380716D01*
X218434528Y-96397107D01*
X218468605Y-96425298D01*
X218477384Y-96433288D01*
X218662878Y-96618782D01*
X218696904Y-96681094D01*
X218699092Y-96694703D01*
X218716458Y-96859928D01*
X218775473Y-97041556D01*
X218870960Y-97206944D01*
X218998747Y-97348866D01*
X219097843Y-97420864D01*
X219143267Y-97453866D01*
X219153248Y-97461118D01*
X219159276Y-97463802D01*
X219159278Y-97463803D01*
X219321681Y-97536109D01*
X219327712Y-97538794D01*
X219421112Y-97558647D01*
X219508056Y-97577128D01*
X219508061Y-97577128D01*
X219514513Y-97578500D01*
X219705487Y-97578500D01*
X219711939Y-97577128D01*
X219711944Y-97577128D01*
X219798888Y-97558647D01*
X219892288Y-97538794D01*
X219898319Y-97536109D01*
X220060722Y-97463803D01*
X220060724Y-97463802D01*
X220066752Y-97461118D01*
X220076734Y-97453866D01*
X220122157Y-97420864D01*
X220221253Y-97348866D01*
X220349040Y-97206944D01*
X220444527Y-97041556D01*
X220503542Y-96859928D01*
X220523504Y-96670000D01*
X220503542Y-96480072D01*
X220444527Y-96298444D01*
X220415858Y-96248787D01*
X220395538Y-96213593D01*
X220349040Y-96133056D01*
X220290011Y-96067497D01*
X220225675Y-95996045D01*
X220225674Y-95996044D01*
X220221253Y-95991134D01*
X220086312Y-95893093D01*
X220072094Y-95882763D01*
X220072093Y-95882762D01*
X220066752Y-95878882D01*
X220060724Y-95876198D01*
X220060722Y-95876197D01*
X219898319Y-95803891D01*
X219898318Y-95803891D01*
X219892288Y-95801206D01*
X219798888Y-95781353D01*
X219711944Y-95762872D01*
X219711939Y-95762872D01*
X219705487Y-95761500D01*
X219659500Y-95761500D01*
X219591379Y-95741498D01*
X219544886Y-95687842D01*
X219533500Y-95635500D01*
X219533500Y-93181074D01*
X219553502Y-93112953D01*
X219604066Y-93067924D01*
X219644133Y-93048295D01*
X219648336Y-93045297D01*
X219648341Y-93045294D01*
X219833816Y-92912996D01*
X219833818Y-92912994D01*
X219838020Y-92909997D01*
X220006716Y-92741889D01*
X220064979Y-92660807D01*
X220120972Y-92617160D01*
X220191676Y-92610714D01*
X220254640Y-92643516D01*
X220266582Y-92657176D01*
X220267274Y-92658306D01*
X220423204Y-92838317D01*
X220606442Y-92990444D01*
X220610894Y-92993046D01*
X220610899Y-92993049D01*
X220799162Y-93103061D01*
X220812065Y-93110601D01*
X221034552Y-93195560D01*
X221039618Y-93196591D01*
X221039619Y-93196591D01*
X221093956Y-93207646D01*
X221267928Y-93243041D01*
X221401284Y-93247931D01*
X221500760Y-93251579D01*
X221500764Y-93251579D01*
X221505924Y-93251768D01*
X221511044Y-93251112D01*
X221511046Y-93251112D01*
X221737023Y-93222164D01*
X221737024Y-93222164D01*
X221742151Y-93221507D01*
X221825200Y-93196591D01*
X221965316Y-93154554D01*
X221965317Y-93154553D01*
X221970262Y-93153070D01*
X222184133Y-93048295D01*
X222188336Y-93045297D01*
X222188341Y-93045294D01*
X222373816Y-92912996D01*
X222373818Y-92912994D01*
X222378020Y-92909997D01*
X222546716Y-92741889D01*
X222604979Y-92660807D01*
X222660972Y-92617160D01*
X222731676Y-92610714D01*
X222794640Y-92643516D01*
X222806582Y-92657176D01*
X222807274Y-92658306D01*
X222963204Y-92838317D01*
X223146442Y-92990444D01*
X223150894Y-92993046D01*
X223150899Y-92993049D01*
X223339162Y-93103061D01*
X223352065Y-93110601D01*
X223574552Y-93195560D01*
X223579618Y-93196591D01*
X223579619Y-93196591D01*
X223633956Y-93207646D01*
X223807928Y-93243041D01*
X223941284Y-93247931D01*
X224040760Y-93251579D01*
X224040764Y-93251579D01*
X224045924Y-93251768D01*
X224051044Y-93251112D01*
X224051046Y-93251112D01*
X224277023Y-93222164D01*
X224277024Y-93222164D01*
X224282151Y-93221507D01*
X224365200Y-93196591D01*
X224505316Y-93154554D01*
X224505317Y-93154553D01*
X224510262Y-93153070D01*
X224724133Y-93048295D01*
X224728336Y-93045297D01*
X224728341Y-93045294D01*
X224913810Y-92913000D01*
X224918020Y-92909997D01*
X224920601Y-92907425D01*
X224985135Y-92878913D01*
X225055278Y-92889886D01*
X225108355Y-92937039D01*
X225119502Y-92959610D01*
X225129585Y-92986505D01*
X225216939Y-93103061D01*
X225333495Y-93190415D01*
X225469884Y-93241545D01*
X225532066Y-93248300D01*
X227507934Y-93248300D01*
X227570116Y-93241545D01*
X227706505Y-93190415D01*
X227823061Y-93103061D01*
X227910415Y-92986505D01*
X227961545Y-92850116D01*
X227968300Y-92787934D01*
X227968300Y-90812066D01*
X227961545Y-90749884D01*
X227910415Y-90613495D01*
X227823061Y-90496939D01*
X227706505Y-90409585D01*
X227570116Y-90358455D01*
X227507934Y-90351700D01*
X225532066Y-90351700D01*
X225469884Y-90358455D01*
X225333495Y-90409585D01*
X225216939Y-90496939D01*
X225129585Y-90613495D01*
X225126433Y-90621903D01*
X225118218Y-90643816D01*
X225075576Y-90700580D01*
X225009014Y-90725280D01*
X224939666Y-90710072D01*
X224922144Y-90698468D01*
X224788278Y-90592747D01*
X224788273Y-90592744D01*
X224784224Y-90589546D01*
X224779708Y-90587053D01*
X224779705Y-90587051D01*
X224580250Y-90476946D01*
X224580246Y-90476944D01*
X224575726Y-90474449D01*
X224570857Y-90472725D01*
X224570853Y-90472723D01*
X224356105Y-90396676D01*
X224356101Y-90396675D01*
X224351230Y-90394950D01*
X224346140Y-90394043D01*
X224346135Y-90394042D01*
X224218814Y-90371364D01*
X224116764Y-90353186D01*
X224025355Y-90352069D01*
X223883795Y-90350339D01*
X223883793Y-90350339D01*
X223878625Y-90350276D01*
X223643209Y-90386300D01*
X223416838Y-90460289D01*
X223392953Y-90472723D01*
X223244740Y-90549878D01*
X223205590Y-90570258D01*
X223201457Y-90573361D01*
X223201454Y-90573363D01*
X223019375Y-90710072D01*
X223015140Y-90713252D01*
X223011568Y-90716990D01*
X222896155Y-90837763D01*
X222850602Y-90885431D01*
X222817545Y-90933891D01*
X222815186Y-90937349D01*
X222760274Y-90982351D01*
X222689749Y-90990522D01*
X222626002Y-90959267D01*
X222605306Y-90934784D01*
X222594217Y-90917642D01*
X222594212Y-90917636D01*
X222591406Y-90913298D01*
X222571572Y-90891500D01*
X222531700Y-90847682D01*
X222431124Y-90737150D01*
X222427073Y-90733951D01*
X222427069Y-90733947D01*
X222248278Y-90592747D01*
X222248273Y-90592744D01*
X222244224Y-90589546D01*
X222239708Y-90587053D01*
X222239705Y-90587051D01*
X222040250Y-90476946D01*
X222040246Y-90476944D01*
X222035726Y-90474449D01*
X222030857Y-90472725D01*
X222030853Y-90472723D01*
X221816105Y-90396676D01*
X221816101Y-90396675D01*
X221811230Y-90394950D01*
X221806140Y-90394043D01*
X221806135Y-90394042D01*
X221678814Y-90371364D01*
X221576764Y-90353186D01*
X221485355Y-90352069D01*
X221343795Y-90350339D01*
X221343793Y-90350339D01*
X221338625Y-90350276D01*
X221103209Y-90386300D01*
X220876838Y-90460289D01*
X220852953Y-90472723D01*
X220704740Y-90549878D01*
X220665590Y-90570258D01*
X220661457Y-90573361D01*
X220661454Y-90573363D01*
X220479375Y-90710072D01*
X220475140Y-90713252D01*
X220471568Y-90716990D01*
X220356155Y-90837763D01*
X220310602Y-90885431D01*
X220277545Y-90933891D01*
X220275186Y-90937349D01*
X220220274Y-90982351D01*
X220149749Y-90990522D01*
X220086002Y-90959267D01*
X220065306Y-90934784D01*
X220054217Y-90917642D01*
X220054212Y-90917636D01*
X220051406Y-90913298D01*
X220031572Y-90891500D01*
X219991700Y-90847682D01*
X219891124Y-90737150D01*
X219887073Y-90733951D01*
X219887069Y-90733947D01*
X219708278Y-90592747D01*
X219708273Y-90592744D01*
X219704224Y-90589546D01*
X219699708Y-90587053D01*
X219699705Y-90587051D01*
X219500250Y-90476946D01*
X219500246Y-90476944D01*
X219495726Y-90474449D01*
X219490857Y-90472725D01*
X219490853Y-90472723D01*
X219276105Y-90396676D01*
X219276101Y-90396675D01*
X219271230Y-90394950D01*
X219266140Y-90394043D01*
X219266135Y-90394042D01*
X219138814Y-90371364D01*
X219036764Y-90353186D01*
X218945355Y-90352069D01*
X218803795Y-90350339D01*
X218803793Y-90350339D01*
X218798625Y-90350276D01*
X218563209Y-90386300D01*
X218336838Y-90460289D01*
X218312953Y-90472723D01*
X218164740Y-90549878D01*
X218125590Y-90570258D01*
X218121457Y-90573361D01*
X218121454Y-90573363D01*
X217939375Y-90710072D01*
X217935140Y-90713252D01*
X217931568Y-90716990D01*
X217816155Y-90837763D01*
X217770602Y-90885431D01*
X217737545Y-90933891D01*
X217735186Y-90937349D01*
X217680274Y-90982351D01*
X217609749Y-90990522D01*
X217546002Y-90959267D01*
X217525306Y-90934784D01*
X217514217Y-90917642D01*
X217514212Y-90917636D01*
X217511406Y-90913298D01*
X217491572Y-90891500D01*
X217451700Y-90847682D01*
X217351124Y-90737150D01*
X217347073Y-90733951D01*
X217347069Y-90733947D01*
X217168278Y-90592747D01*
X217168273Y-90592744D01*
X217164224Y-90589546D01*
X217159708Y-90587053D01*
X217159705Y-90587051D01*
X216960250Y-90476946D01*
X216960246Y-90476944D01*
X216955726Y-90474449D01*
X216950857Y-90472725D01*
X216950853Y-90472723D01*
X216736105Y-90396676D01*
X216736101Y-90396675D01*
X216731230Y-90394950D01*
X216726140Y-90394043D01*
X216726135Y-90394042D01*
X216598814Y-90371364D01*
X216496764Y-90353186D01*
X216405355Y-90352069D01*
X216263795Y-90350339D01*
X216263793Y-90350339D01*
X216258625Y-90350276D01*
X216023209Y-90386300D01*
X215796838Y-90460289D01*
X215772953Y-90472723D01*
X215624740Y-90549878D01*
X215585590Y-90570258D01*
X215581457Y-90573361D01*
X215581454Y-90573363D01*
X215399375Y-90710072D01*
X215395140Y-90713252D01*
X215391568Y-90716990D01*
X215276155Y-90837763D01*
X215230602Y-90885431D01*
X215197545Y-90933891D01*
X215195186Y-90937349D01*
X215140274Y-90982351D01*
X215069749Y-90990522D01*
X215006002Y-90959267D01*
X214985306Y-90934784D01*
X214974217Y-90917642D01*
X214974212Y-90917636D01*
X214971406Y-90913298D01*
X214951572Y-90891500D01*
X214911700Y-90847682D01*
X214811124Y-90737150D01*
X214807073Y-90733951D01*
X214807069Y-90733947D01*
X214628278Y-90592747D01*
X214628273Y-90592744D01*
X214624224Y-90589546D01*
X214619708Y-90587053D01*
X214619705Y-90587051D01*
X214420250Y-90476946D01*
X214420246Y-90476944D01*
X214415726Y-90474449D01*
X214410857Y-90472725D01*
X214410853Y-90472723D01*
X214196105Y-90396676D01*
X214196101Y-90396675D01*
X214191230Y-90394950D01*
X214186140Y-90394043D01*
X214186135Y-90394042D01*
X214058814Y-90371364D01*
X213956764Y-90353186D01*
X213865355Y-90352069D01*
X213723795Y-90350339D01*
X213723793Y-90350339D01*
X213718625Y-90350276D01*
X213483209Y-90386300D01*
X213256838Y-90460289D01*
X213232953Y-90472723D01*
X213084740Y-90549878D01*
X213045590Y-90570258D01*
X213041457Y-90573361D01*
X213041454Y-90573363D01*
X212859375Y-90710072D01*
X212855140Y-90713252D01*
X212851568Y-90716990D01*
X212736155Y-90837763D01*
X212690602Y-90885431D01*
X212687691Y-90889699D01*
X212687687Y-90889704D01*
X212655837Y-90936395D01*
X212556394Y-91082172D01*
X212522033Y-91156197D01*
X212466402Y-91276045D01*
X212456122Y-91298191D01*
X212392477Y-91527685D01*
X212367170Y-91764494D01*
X208444007Y-91764494D01*
X208443542Y-91760072D01*
X208384527Y-91578444D01*
X208358187Y-91532821D01*
X208334408Y-91491635D01*
X208289040Y-91413056D01*
X208273804Y-91396134D01*
X208165675Y-91276045D01*
X208165674Y-91276044D01*
X208161253Y-91271134D01*
X208054804Y-91193794D01*
X208012094Y-91162763D01*
X208012093Y-91162762D01*
X208006752Y-91158882D01*
X208000724Y-91156198D01*
X208000722Y-91156197D01*
X207838319Y-91083891D01*
X207838318Y-91083891D01*
X207832288Y-91081206D01*
X207738887Y-91061353D01*
X207651944Y-91042872D01*
X207651939Y-91042872D01*
X207645487Y-91041500D01*
X207454513Y-91041500D01*
X207448061Y-91042872D01*
X207448056Y-91042872D01*
X207361113Y-91061353D01*
X207267712Y-91081206D01*
X207261682Y-91083891D01*
X207261681Y-91083891D01*
X207099278Y-91156197D01*
X207099276Y-91156198D01*
X207093248Y-91158882D01*
X207087907Y-91162762D01*
X207087906Y-91162763D01*
X207045196Y-91193794D01*
X206938747Y-91271134D01*
X206934326Y-91276044D01*
X206934325Y-91276045D01*
X206826197Y-91396134D01*
X206810960Y-91413056D01*
X206765592Y-91491635D01*
X206741814Y-91532821D01*
X206715473Y-91578444D01*
X206656458Y-91760072D01*
X206655768Y-91766633D01*
X206655768Y-91766635D01*
X206652261Y-91800000D01*
X206636496Y-91950000D01*
X205975366Y-91950000D01*
X205968542Y-91885072D01*
X205909527Y-91703444D01*
X205814040Y-91538056D01*
X205809327Y-91532821D01*
X205690675Y-91401045D01*
X205690674Y-91401044D01*
X205686253Y-91396134D01*
X205558677Y-91303444D01*
X205537094Y-91287763D01*
X205537093Y-91287762D01*
X205531752Y-91283882D01*
X205525724Y-91281198D01*
X205525722Y-91281197D01*
X205363319Y-91208891D01*
X205363318Y-91208891D01*
X205357288Y-91206206D01*
X205263887Y-91186353D01*
X205176944Y-91167872D01*
X205176939Y-91167872D01*
X205170487Y-91166500D01*
X204979513Y-91166500D01*
X204973061Y-91167872D01*
X204973056Y-91167872D01*
X204886113Y-91186353D01*
X204792712Y-91206206D01*
X204786682Y-91208891D01*
X204786681Y-91208891D01*
X204624278Y-91281197D01*
X204624276Y-91281198D01*
X204618248Y-91283882D01*
X204612907Y-91287762D01*
X204612906Y-91287763D01*
X204591323Y-91303444D01*
X204463747Y-91396134D01*
X204459326Y-91401044D01*
X204459325Y-91401045D01*
X204340674Y-91532821D01*
X204335960Y-91538056D01*
X204240473Y-91703444D01*
X204181458Y-91885072D01*
X204161496Y-92075000D01*
X204181458Y-92264928D01*
X204240473Y-92446556D01*
X204260490Y-92481226D01*
X204284743Y-92523234D01*
X204301480Y-92592229D01*
X204278259Y-92659321D01*
X204269259Y-92670543D01*
X204209208Y-92737237D01*
X204185960Y-92763056D01*
X204135696Y-92850116D01*
X204099390Y-92913000D01*
X204090473Y-92928444D01*
X204031458Y-93110072D01*
X204030768Y-93116633D01*
X204030768Y-93116635D01*
X204019902Y-93220022D01*
X204011496Y-93300000D01*
X204031458Y-93489928D01*
X204090473Y-93671556D01*
X204185960Y-93836944D01*
X204190378Y-93841851D01*
X204190379Y-93841852D01*
X204249373Y-93907371D01*
X204313747Y-93978866D01*
X204468248Y-94091118D01*
X204474276Y-94093802D01*
X204474278Y-94093803D01*
X204553647Y-94129140D01*
X204607743Y-94175120D01*
X204628392Y-94243047D01*
X204609040Y-94311355D01*
X204555829Y-94358357D01*
X204502398Y-94370247D01*
X204068342Y-94370247D01*
X204000221Y-94350245D01*
X203979247Y-94333342D01*
X201497122Y-91851217D01*
X201463096Y-91788905D01*
X201460907Y-91775292D01*
X201444232Y-91616635D01*
X201444232Y-91616633D01*
X201443542Y-91610072D01*
X201384527Y-91428444D01*
X201289040Y-91263056D01*
X201261193Y-91232128D01*
X201165675Y-91126045D01*
X201165674Y-91126044D01*
X201161253Y-91121134D01*
X201046882Y-91038038D01*
X201012094Y-91012763D01*
X201012093Y-91012762D01*
X201006752Y-91008882D01*
X201000724Y-91006198D01*
X201000722Y-91006197D01*
X200838319Y-90933891D01*
X200838318Y-90933891D01*
X200832288Y-90931206D01*
X200738888Y-90911353D01*
X200651944Y-90892872D01*
X200651939Y-90892872D01*
X200645487Y-90891500D01*
X200454513Y-90891500D01*
X200448061Y-90892872D01*
X200448056Y-90892872D01*
X200361112Y-90911353D01*
X200267712Y-90931206D01*
X200261682Y-90933891D01*
X200261681Y-90933891D01*
X200099278Y-91006197D01*
X200099276Y-91006198D01*
X200093248Y-91008882D01*
X200087905Y-91012764D01*
X200063827Y-91030258D01*
X199996960Y-91054117D01*
X199927808Y-91038038D01*
X199896129Y-91012633D01*
X199840675Y-90951045D01*
X199840674Y-90951044D01*
X199836253Y-90946134D01*
X199681752Y-90833882D01*
X199675724Y-90831198D01*
X199675722Y-90831197D01*
X199513319Y-90758891D01*
X199513318Y-90758891D01*
X199507288Y-90756206D01*
X199413887Y-90736353D01*
X199326944Y-90717872D01*
X199326939Y-90717872D01*
X199320487Y-90716500D01*
X199129513Y-90716500D01*
X199123061Y-90717872D01*
X199123056Y-90717872D01*
X199036113Y-90736353D01*
X198942712Y-90756206D01*
X198936682Y-90758891D01*
X198936681Y-90758891D01*
X198774278Y-90831197D01*
X198774276Y-90831198D01*
X198768248Y-90833882D01*
X198694088Y-90887763D01*
X198627152Y-90936395D01*
X198560285Y-90960253D01*
X198491133Y-90944173D01*
X198479030Y-90936395D01*
X198412094Y-90887763D01*
X198412093Y-90887762D01*
X198406752Y-90883882D01*
X198400724Y-90881198D01*
X198400722Y-90881197D01*
X198238319Y-90808891D01*
X198238318Y-90808891D01*
X198232288Y-90806206D01*
X198138888Y-90786353D01*
X198051944Y-90767872D01*
X198051939Y-90767872D01*
X198045487Y-90766500D01*
X197854513Y-90766500D01*
X197848061Y-90767872D01*
X197848056Y-90767872D01*
X197761112Y-90786353D01*
X197667712Y-90806206D01*
X197661682Y-90808891D01*
X197661681Y-90808891D01*
X197499278Y-90881197D01*
X197499276Y-90881198D01*
X197493248Y-90883882D01*
X197487907Y-90887762D01*
X197487906Y-90887763D01*
X197437843Y-90924136D01*
X197338747Y-90996134D01*
X197334326Y-91001044D01*
X197334325Y-91001045D01*
X197226197Y-91121134D01*
X197210960Y-91138056D01*
X197165891Y-91216118D01*
X197122595Y-91291109D01*
X197115473Y-91303444D01*
X197056458Y-91485072D01*
X197036496Y-91675000D01*
X175647044Y-91675000D01*
X175645478Y-90325000D01*
X184511496Y-90325000D01*
X184512186Y-90331565D01*
X184528972Y-90491272D01*
X184531458Y-90514928D01*
X184590473Y-90696556D01*
X184593776Y-90702278D01*
X184593777Y-90702279D01*
X184602780Y-90717872D01*
X184685960Y-90861944D01*
X184690378Y-90866851D01*
X184690379Y-90866852D01*
X184747088Y-90929834D01*
X184813747Y-91003866D01*
X184860781Y-91038038D01*
X184951385Y-91103866D01*
X184968248Y-91116118D01*
X184974276Y-91118802D01*
X184974278Y-91118803D01*
X185081408Y-91166500D01*
X185142712Y-91193794D01*
X185229479Y-91212237D01*
X185323056Y-91232128D01*
X185323061Y-91232128D01*
X185329513Y-91233500D01*
X185520487Y-91233500D01*
X185526939Y-91232128D01*
X185526944Y-91232128D01*
X185620521Y-91212237D01*
X185707288Y-91193794D01*
X185768592Y-91166500D01*
X185875722Y-91118803D01*
X185875724Y-91118802D01*
X185881752Y-91116118D01*
X185898616Y-91103866D01*
X185989219Y-91038038D01*
X186036253Y-91003866D01*
X186102912Y-90929834D01*
X186159621Y-90866852D01*
X186159622Y-90866851D01*
X186164040Y-90861944D01*
X186247220Y-90717872D01*
X186256223Y-90702279D01*
X186256224Y-90702278D01*
X186259527Y-90696556D01*
X186307186Y-90549878D01*
X186347260Y-90491272D01*
X186412656Y-90463635D01*
X186482613Y-90475742D01*
X186534919Y-90523748D01*
X186552329Y-90575643D01*
X186556458Y-90614928D01*
X186615473Y-90796556D01*
X186618776Y-90802278D01*
X186618777Y-90802279D01*
X186635473Y-90831197D01*
X186710960Y-90961944D01*
X186715378Y-90966851D01*
X186715379Y-90966852D01*
X186818344Y-91081206D01*
X186838747Y-91103866D01*
X186993248Y-91216118D01*
X186999276Y-91218802D01*
X186999278Y-91218803D01*
X187145449Y-91283882D01*
X187167712Y-91293794D01*
X187242680Y-91309729D01*
X187348056Y-91332128D01*
X187348061Y-91332128D01*
X187354513Y-91333500D01*
X187545487Y-91333500D01*
X187551939Y-91332128D01*
X187551944Y-91332128D01*
X187657320Y-91309729D01*
X187732288Y-91293794D01*
X187754551Y-91283882D01*
X187900722Y-91218803D01*
X187900724Y-91218802D01*
X187906752Y-91216118D01*
X188061253Y-91103866D01*
X188081656Y-91081206D01*
X188184621Y-90966852D01*
X188184622Y-90966851D01*
X188189040Y-90961944D01*
X188264527Y-90831197D01*
X188281223Y-90802279D01*
X188281224Y-90802278D01*
X188284527Y-90796556D01*
X188343542Y-90614928D01*
X188351018Y-90543803D01*
X188362814Y-90431565D01*
X188363504Y-90425000D01*
X188359354Y-90385518D01*
X188344232Y-90241635D01*
X188344232Y-90241633D01*
X188343542Y-90235072D01*
X188284527Y-90053444D01*
X188189040Y-89888056D01*
X188064734Y-89750000D01*
X205711496Y-89750000D01*
X205731458Y-89939928D01*
X205790473Y-90121556D01*
X205885960Y-90286944D01*
X205890378Y-90291851D01*
X205890379Y-90291852D01*
X205920226Y-90325000D01*
X206013747Y-90428866D01*
X206078266Y-90475742D01*
X206140842Y-90521206D01*
X206168248Y-90541118D01*
X206174276Y-90543802D01*
X206174278Y-90543803D01*
X206336681Y-90616109D01*
X206342712Y-90618794D01*
X206436113Y-90638647D01*
X206523056Y-90657128D01*
X206523061Y-90657128D01*
X206529513Y-90658500D01*
X206720487Y-90658500D01*
X206726939Y-90657128D01*
X206726944Y-90657128D01*
X206813887Y-90638647D01*
X206907288Y-90618794D01*
X206913319Y-90616109D01*
X207075722Y-90543803D01*
X207075724Y-90543802D01*
X207081752Y-90541118D01*
X207109159Y-90521206D01*
X207171734Y-90475742D01*
X207236253Y-90428866D01*
X207329774Y-90325000D01*
X207359621Y-90291852D01*
X207359622Y-90291851D01*
X207364040Y-90286944D01*
X207459527Y-90121556D01*
X207518542Y-89939928D01*
X207538504Y-89750000D01*
X207526300Y-89633882D01*
X207519232Y-89566635D01*
X207519232Y-89566633D01*
X207518542Y-89560072D01*
X207459527Y-89378444D01*
X207364040Y-89213056D01*
X207236253Y-89071134D01*
X207081752Y-88958882D01*
X207075724Y-88956198D01*
X207075722Y-88956197D01*
X206913319Y-88883891D01*
X206913318Y-88883891D01*
X206907288Y-88881206D01*
X206813887Y-88861353D01*
X206726944Y-88842872D01*
X206726939Y-88842872D01*
X206720487Y-88841500D01*
X206529513Y-88841500D01*
X206523061Y-88842872D01*
X206523056Y-88842872D01*
X206436113Y-88861353D01*
X206342712Y-88881206D01*
X206336682Y-88883891D01*
X206336681Y-88883891D01*
X206174278Y-88956197D01*
X206174276Y-88956198D01*
X206168248Y-88958882D01*
X206013747Y-89071134D01*
X205885960Y-89213056D01*
X205790473Y-89378444D01*
X205731458Y-89560072D01*
X205730768Y-89566633D01*
X205730768Y-89566635D01*
X205723700Y-89633882D01*
X205711496Y-89750000D01*
X188064734Y-89750000D01*
X188061253Y-89746134D01*
X187930375Y-89651045D01*
X187912094Y-89637763D01*
X187912093Y-89637762D01*
X187906752Y-89633882D01*
X187900724Y-89631198D01*
X187900722Y-89631197D01*
X187738319Y-89558891D01*
X187738318Y-89558891D01*
X187732288Y-89556206D01*
X187638887Y-89536353D01*
X187551944Y-89517872D01*
X187551939Y-89517872D01*
X187545487Y-89516500D01*
X187354513Y-89516500D01*
X187348061Y-89517872D01*
X187348056Y-89517872D01*
X187261112Y-89536353D01*
X187167712Y-89556206D01*
X187161682Y-89558891D01*
X187161681Y-89558891D01*
X186999278Y-89631197D01*
X186999276Y-89631198D01*
X186993248Y-89633882D01*
X186987907Y-89637762D01*
X186987906Y-89637763D01*
X186969625Y-89651045D01*
X186838747Y-89746134D01*
X186710960Y-89888056D01*
X186615473Y-90053444D01*
X186613431Y-90059729D01*
X186567814Y-90200122D01*
X186527740Y-90258728D01*
X186462344Y-90286365D01*
X186392387Y-90274258D01*
X186340081Y-90226252D01*
X186322671Y-90174357D01*
X186319232Y-90141635D01*
X186319232Y-90141633D01*
X186318542Y-90135072D01*
X186259527Y-89953444D01*
X186164040Y-89788056D01*
X186135686Y-89756565D01*
X186040675Y-89651045D01*
X186040674Y-89651044D01*
X186036253Y-89646134D01*
X185937157Y-89574136D01*
X185887094Y-89537763D01*
X185887093Y-89537762D01*
X185881752Y-89533882D01*
X185875724Y-89531198D01*
X185875722Y-89531197D01*
X185713319Y-89458891D01*
X185713318Y-89458891D01*
X185707288Y-89456206D01*
X185613888Y-89436353D01*
X185526944Y-89417872D01*
X185526939Y-89417872D01*
X185520487Y-89416500D01*
X185329513Y-89416500D01*
X185323061Y-89417872D01*
X185323056Y-89417872D01*
X185236112Y-89436353D01*
X185142712Y-89456206D01*
X185136682Y-89458891D01*
X185136681Y-89458891D01*
X184974278Y-89531197D01*
X184974276Y-89531198D01*
X184968248Y-89533882D01*
X184962907Y-89537762D01*
X184962906Y-89537763D01*
X184912843Y-89574136D01*
X184813747Y-89646134D01*
X184809326Y-89651044D01*
X184809325Y-89651045D01*
X184714315Y-89756565D01*
X184685960Y-89788056D01*
X184590473Y-89953444D01*
X184531458Y-90135072D01*
X184530768Y-90141633D01*
X184530768Y-90141635D01*
X184520948Y-90235072D01*
X184511496Y-90325000D01*
X175645478Y-90325000D01*
X175641509Y-86903955D01*
X175640727Y-86230000D01*
X193216496Y-86230000D01*
X193217186Y-86236565D01*
X193226880Y-86328794D01*
X193236458Y-86419928D01*
X193295473Y-86601556D01*
X193298776Y-86607278D01*
X193298777Y-86607279D01*
X193318613Y-86641635D01*
X193390960Y-86766944D01*
X193395378Y-86771851D01*
X193395379Y-86771852D01*
X193443234Y-86825000D01*
X193518747Y-86908866D01*
X193673248Y-87021118D01*
X193679276Y-87023802D01*
X193679278Y-87023803D01*
X193841681Y-87096109D01*
X193847712Y-87098794D01*
X193941112Y-87118647D01*
X194028056Y-87137128D01*
X194028061Y-87137128D01*
X194034513Y-87138500D01*
X194225487Y-87138500D01*
X194231939Y-87137128D01*
X194231944Y-87137128D01*
X194318888Y-87118647D01*
X194412288Y-87098794D01*
X194418319Y-87096109D01*
X194580722Y-87023803D01*
X194580724Y-87023802D01*
X194586752Y-87021118D01*
X194741253Y-86908866D01*
X194816766Y-86825000D01*
X202786496Y-86825000D01*
X202787186Y-86831565D01*
X202795311Y-86908866D01*
X202806458Y-87014928D01*
X202865473Y-87196556D01*
X202960960Y-87361944D01*
X203088747Y-87503866D01*
X203243248Y-87616118D01*
X203249276Y-87618802D01*
X203249278Y-87618803D01*
X203411681Y-87691109D01*
X203417712Y-87693794D01*
X203511113Y-87713647D01*
X203598056Y-87732128D01*
X203598061Y-87732128D01*
X203604513Y-87733500D01*
X203795487Y-87733500D01*
X203801939Y-87732128D01*
X203801944Y-87732128D01*
X203888887Y-87713647D01*
X203982288Y-87693794D01*
X203988319Y-87691109D01*
X204150722Y-87618803D01*
X204150724Y-87618802D01*
X204156752Y-87616118D01*
X204311253Y-87503866D01*
X204439040Y-87361944D01*
X204534527Y-87196556D01*
X204593542Y-87014928D01*
X204604690Y-86908866D01*
X204612814Y-86831565D01*
X204613504Y-86825000D01*
X204593542Y-86635072D01*
X204557777Y-86525000D01*
X206686496Y-86525000D01*
X206706458Y-86714928D01*
X206765473Y-86896556D01*
X206860960Y-87061944D01*
X206988747Y-87203866D01*
X207143248Y-87316118D01*
X207149276Y-87318802D01*
X207149278Y-87318803D01*
X207233332Y-87356226D01*
X207317712Y-87393794D01*
X207411113Y-87413647D01*
X207498056Y-87432128D01*
X207498061Y-87432128D01*
X207504513Y-87433500D01*
X207695487Y-87433500D01*
X207701939Y-87432128D01*
X207701944Y-87432128D01*
X207788887Y-87413647D01*
X207882288Y-87393794D01*
X207966668Y-87356226D01*
X208050722Y-87318803D01*
X208050724Y-87318802D01*
X208056752Y-87316118D01*
X208211253Y-87203866D01*
X208339040Y-87061944D01*
X208434527Y-86896556D01*
X208493542Y-86714928D01*
X208513504Y-86525000D01*
X208505382Y-86447721D01*
X208494232Y-86341635D01*
X208494232Y-86341633D01*
X208493542Y-86335072D01*
X208434527Y-86153444D01*
X208339040Y-85988056D01*
X208211253Y-85846134D01*
X208056752Y-85733882D01*
X208050724Y-85731198D01*
X208050722Y-85731197D01*
X207888319Y-85658891D01*
X207888318Y-85658891D01*
X207882288Y-85656206D01*
X207788887Y-85636353D01*
X207701944Y-85617872D01*
X207701939Y-85617872D01*
X207695487Y-85616500D01*
X207504513Y-85616500D01*
X207498061Y-85617872D01*
X207498056Y-85617872D01*
X207411113Y-85636353D01*
X207317712Y-85656206D01*
X207311682Y-85658891D01*
X207311681Y-85658891D01*
X207149278Y-85731197D01*
X207149276Y-85731198D01*
X207143248Y-85733882D01*
X206988747Y-85846134D01*
X206860960Y-85988056D01*
X206765473Y-86153444D01*
X206706458Y-86335072D01*
X206705768Y-86341633D01*
X206705768Y-86341635D01*
X206694618Y-86447721D01*
X206686496Y-86525000D01*
X204557777Y-86525000D01*
X204534527Y-86453444D01*
X204515177Y-86419928D01*
X204442341Y-86293774D01*
X204439040Y-86288056D01*
X204392678Y-86236565D01*
X204315675Y-86151045D01*
X204315674Y-86151044D01*
X204311253Y-86146134D01*
X204212157Y-86074136D01*
X204162094Y-86037763D01*
X204162093Y-86037762D01*
X204156752Y-86033882D01*
X204150724Y-86031198D01*
X204150722Y-86031197D01*
X203988319Y-85958891D01*
X203988318Y-85958891D01*
X203982288Y-85956206D01*
X203888887Y-85936353D01*
X203801944Y-85917872D01*
X203801939Y-85917872D01*
X203795487Y-85916500D01*
X203604513Y-85916500D01*
X203598061Y-85917872D01*
X203598056Y-85917872D01*
X203511112Y-85936353D01*
X203417712Y-85956206D01*
X203411682Y-85958891D01*
X203411681Y-85958891D01*
X203249278Y-86031197D01*
X203249276Y-86031198D01*
X203243248Y-86033882D01*
X203237907Y-86037762D01*
X203237906Y-86037763D01*
X203187843Y-86074136D01*
X203088747Y-86146134D01*
X203084326Y-86151044D01*
X203084325Y-86151045D01*
X203007323Y-86236565D01*
X202960960Y-86288056D01*
X202957659Y-86293774D01*
X202884824Y-86419928D01*
X202865473Y-86453444D01*
X202806458Y-86635072D01*
X202786496Y-86825000D01*
X194816766Y-86825000D01*
X194864621Y-86771852D01*
X194864622Y-86771851D01*
X194869040Y-86766944D01*
X194941387Y-86641635D01*
X194961223Y-86607279D01*
X194961224Y-86607278D01*
X194964527Y-86601556D01*
X195023542Y-86419928D01*
X195033121Y-86328794D01*
X195042814Y-86236565D01*
X195043504Y-86230000D01*
X195034856Y-86147721D01*
X195024232Y-86046635D01*
X195024232Y-86046633D01*
X195023542Y-86040072D01*
X194964527Y-85858444D01*
X194950849Y-85834752D01*
X194927314Y-85793990D01*
X194869040Y-85693056D01*
X194741253Y-85551134D01*
X194586752Y-85438882D01*
X194580724Y-85436198D01*
X194580722Y-85436197D01*
X194418319Y-85363891D01*
X194418318Y-85363891D01*
X194412288Y-85361206D01*
X194318888Y-85341353D01*
X194231944Y-85322872D01*
X194231939Y-85322872D01*
X194225487Y-85321500D01*
X194034513Y-85321500D01*
X194028061Y-85322872D01*
X194028056Y-85322872D01*
X193941112Y-85341353D01*
X193847712Y-85361206D01*
X193841682Y-85363891D01*
X193841681Y-85363891D01*
X193679278Y-85436197D01*
X193679276Y-85436198D01*
X193673248Y-85438882D01*
X193518747Y-85551134D01*
X193390960Y-85693056D01*
X193332686Y-85793990D01*
X193309152Y-85834752D01*
X193295473Y-85858444D01*
X193236458Y-86040072D01*
X193235768Y-86046633D01*
X193235768Y-86046635D01*
X193225144Y-86147721D01*
X193216496Y-86230000D01*
X175640727Y-86230000D01*
X175638788Y-84558738D01*
X215069209Y-84558738D01*
X215089171Y-84748666D01*
X215148186Y-84930294D01*
X215243673Y-85095682D01*
X215371460Y-85237604D01*
X215525961Y-85349856D01*
X215531989Y-85352540D01*
X215531991Y-85352541D01*
X215557484Y-85363891D01*
X215700425Y-85427532D01*
X215772081Y-85442763D01*
X215880769Y-85465866D01*
X215880774Y-85465866D01*
X215887226Y-85467238D01*
X216078200Y-85467238D01*
X216084652Y-85465866D01*
X216084657Y-85465866D01*
X216193345Y-85442763D01*
X216265001Y-85427532D01*
X216407942Y-85363891D01*
X216433435Y-85352541D01*
X216433437Y-85352540D01*
X216439465Y-85349856D01*
X216593966Y-85237604D01*
X216721753Y-85095682D01*
X216817240Y-84930294D01*
X216876255Y-84748666D01*
X216895033Y-84570000D01*
X223186681Y-84570000D01*
X223205928Y-84814557D01*
X223263195Y-85053092D01*
X223357073Y-85279732D01*
X223440262Y-85415485D01*
X223454600Y-85438882D01*
X223485248Y-85488896D01*
X223488463Y-85492660D01*
X223488465Y-85492663D01*
X223542599Y-85556045D01*
X223644567Y-85675433D01*
X223648323Y-85678641D01*
X223671896Y-85698774D01*
X223831104Y-85834752D01*
X223835327Y-85837340D01*
X223835330Y-85837342D01*
X223857692Y-85851045D01*
X224040268Y-85962927D01*
X224114739Y-85993774D01*
X224262335Y-86054911D01*
X224262337Y-86054912D01*
X224266908Y-86056805D01*
X224349563Y-86076649D01*
X224500630Y-86112917D01*
X224500636Y-86112918D01*
X224505443Y-86114072D01*
X224750000Y-86133319D01*
X224994557Y-86114072D01*
X224999364Y-86112918D01*
X224999370Y-86112917D01*
X225150437Y-86076649D01*
X225233092Y-86056805D01*
X225237663Y-86054912D01*
X225237665Y-86054911D01*
X225385261Y-85993774D01*
X225459732Y-85962927D01*
X225642308Y-85851045D01*
X225664670Y-85837342D01*
X225664673Y-85837340D01*
X225668896Y-85834752D01*
X225828105Y-85698774D01*
X225851677Y-85678641D01*
X225855433Y-85675433D01*
X225957401Y-85556045D01*
X226011535Y-85492663D01*
X226011537Y-85492660D01*
X226014752Y-85488896D01*
X226045401Y-85438882D01*
X226059738Y-85415485D01*
X226142927Y-85279732D01*
X226236805Y-85053092D01*
X226294072Y-84814557D01*
X226313319Y-84570000D01*
X226294072Y-84325443D01*
X226262388Y-84193467D01*
X226237960Y-84091720D01*
X226236805Y-84086908D01*
X226142927Y-83860268D01*
X226034168Y-83682788D01*
X226015630Y-83614255D01*
X226037087Y-83546578D01*
X226066035Y-83516128D01*
X226138839Y-83461564D01*
X226163261Y-83443261D01*
X226250615Y-83326705D01*
X226301745Y-83190316D01*
X226308500Y-83128134D01*
X226308500Y-80931866D01*
X226301745Y-80869684D01*
X226250615Y-80733295D01*
X226163261Y-80616739D01*
X226046705Y-80529385D01*
X225910316Y-80478255D01*
X225848134Y-80471500D01*
X223651866Y-80471500D01*
X223589684Y-80478255D01*
X223453295Y-80529385D01*
X223336739Y-80616739D01*
X223249385Y-80733295D01*
X223198255Y-80869684D01*
X223191500Y-80931866D01*
X223191500Y-83128134D01*
X223198255Y-83190316D01*
X223249385Y-83326705D01*
X223336739Y-83443261D01*
X223361161Y-83461564D01*
X223433965Y-83516128D01*
X223476479Y-83572988D01*
X223481504Y-83643806D01*
X223465832Y-83682788D01*
X223357073Y-83860268D01*
X223263195Y-84086908D01*
X223262040Y-84091720D01*
X223237613Y-84193467D01*
X223205928Y-84325443D01*
X223186681Y-84570000D01*
X216895033Y-84570000D01*
X216896217Y-84558738D01*
X216876255Y-84368810D01*
X216817240Y-84187182D01*
X216721753Y-84021794D01*
X216593966Y-83879872D01*
X216439465Y-83767620D01*
X216433437Y-83764936D01*
X216433435Y-83764935D01*
X216271032Y-83692629D01*
X216271031Y-83692629D01*
X216265001Y-83689944D01*
X216171600Y-83670091D01*
X216084657Y-83651610D01*
X216084652Y-83651610D01*
X216078200Y-83650238D01*
X215887226Y-83650238D01*
X215880774Y-83651610D01*
X215880769Y-83651610D01*
X215793825Y-83670091D01*
X215700425Y-83689944D01*
X215694395Y-83692629D01*
X215694394Y-83692629D01*
X215531991Y-83764935D01*
X215531989Y-83764936D01*
X215525961Y-83767620D01*
X215371460Y-83879872D01*
X215243673Y-84021794D01*
X215148186Y-84187182D01*
X215089171Y-84368810D01*
X215069209Y-84558738D01*
X175638788Y-84558738D01*
X175636978Y-82998134D01*
X178791500Y-82998134D01*
X178798255Y-83060316D01*
X178849385Y-83196705D01*
X178936739Y-83313261D01*
X179053295Y-83400615D01*
X179189684Y-83451745D01*
X179251866Y-83458500D01*
X181048134Y-83458500D01*
X181110316Y-83451745D01*
X181246705Y-83400615D01*
X181363261Y-83313261D01*
X181450615Y-83196705D01*
X181477602Y-83124717D01*
X181494598Y-83079382D01*
X181537240Y-83022618D01*
X181603802Y-82997918D01*
X181673150Y-83013126D01*
X181707817Y-83041114D01*
X181736250Y-83073938D01*
X181908126Y-83216632D01*
X182101000Y-83329338D01*
X182309692Y-83409030D01*
X182314760Y-83410061D01*
X182314763Y-83410062D01*
X182422017Y-83431883D01*
X182528597Y-83453567D01*
X182533772Y-83453757D01*
X182533774Y-83453757D01*
X182746673Y-83461564D01*
X182746677Y-83461564D01*
X182751837Y-83461753D01*
X182756957Y-83461097D01*
X182756959Y-83461097D01*
X182968288Y-83434025D01*
X182968289Y-83434025D01*
X182973416Y-83433368D01*
X182978366Y-83431883D01*
X183182429Y-83370661D01*
X183182434Y-83370659D01*
X183187384Y-83369174D01*
X183387994Y-83270896D01*
X183569860Y-83141173D01*
X183728096Y-82983489D01*
X183858453Y-82802077D01*
X183859776Y-82803028D01*
X183906645Y-82759857D01*
X183976580Y-82747625D01*
X184042026Y-82775144D01*
X184069875Y-82806994D01*
X184129987Y-82905088D01*
X184276250Y-83073938D01*
X184448126Y-83216632D01*
X184641000Y-83329338D01*
X184849692Y-83409030D01*
X184854760Y-83410061D01*
X184854763Y-83410062D01*
X184962017Y-83431883D01*
X185068597Y-83453567D01*
X185073772Y-83453757D01*
X185073774Y-83453757D01*
X185286673Y-83461564D01*
X185286677Y-83461564D01*
X185291837Y-83461753D01*
X185296957Y-83461097D01*
X185296959Y-83461097D01*
X185508288Y-83434025D01*
X185508289Y-83434025D01*
X185513416Y-83433368D01*
X185518366Y-83431883D01*
X185722429Y-83370661D01*
X185722434Y-83370659D01*
X185727384Y-83369174D01*
X185927994Y-83270896D01*
X186109860Y-83141173D01*
X186268096Y-82983489D01*
X186398453Y-82802077D01*
X186399776Y-82803028D01*
X186446645Y-82759857D01*
X186516580Y-82747625D01*
X186582026Y-82775144D01*
X186609875Y-82806994D01*
X186669987Y-82905088D01*
X186816250Y-83073938D01*
X186988126Y-83216632D01*
X187181000Y-83329338D01*
X187389692Y-83409030D01*
X187394760Y-83410061D01*
X187394763Y-83410062D01*
X187502017Y-83431883D01*
X187608597Y-83453567D01*
X187613772Y-83453757D01*
X187613774Y-83453757D01*
X187826673Y-83461564D01*
X187826677Y-83461564D01*
X187831837Y-83461753D01*
X187836957Y-83461097D01*
X187836959Y-83461097D01*
X188048288Y-83434025D01*
X188048289Y-83434025D01*
X188053416Y-83433368D01*
X188058366Y-83431883D01*
X188262429Y-83370661D01*
X188262434Y-83370659D01*
X188267384Y-83369174D01*
X188467994Y-83270896D01*
X188649860Y-83141173D01*
X188808096Y-82983489D01*
X188938453Y-82802077D01*
X188959320Y-82759857D01*
X189035136Y-82606453D01*
X189035137Y-82606451D01*
X189037430Y-82601811D01*
X189102370Y-82388069D01*
X189131529Y-82166590D01*
X189133156Y-82100000D01*
X189114852Y-81877361D01*
X189072814Y-81710000D01*
X190496496Y-81710000D01*
X190497186Y-81716565D01*
X190514629Y-81882522D01*
X190516458Y-81899928D01*
X190575473Y-82081556D01*
X190578776Y-82087278D01*
X190578777Y-82087279D01*
X190595851Y-82116852D01*
X190670960Y-82246944D01*
X190675378Y-82251851D01*
X190675379Y-82251852D01*
X190680689Y-82257749D01*
X190798747Y-82388866D01*
X190804469Y-82393023D01*
X190930691Y-82484729D01*
X190953248Y-82501118D01*
X190959276Y-82503802D01*
X190959278Y-82503803D01*
X191084664Y-82559628D01*
X191127712Y-82578794D01*
X191212691Y-82596857D01*
X191308056Y-82617128D01*
X191308061Y-82617128D01*
X191314513Y-82618500D01*
X191505487Y-82618500D01*
X191511939Y-82617128D01*
X191511944Y-82617128D01*
X191607309Y-82596857D01*
X191692288Y-82578794D01*
X191735336Y-82559628D01*
X191860722Y-82503803D01*
X191860724Y-82503802D01*
X191866752Y-82501118D01*
X191889310Y-82484729D01*
X192015531Y-82393023D01*
X192021253Y-82388866D01*
X192139311Y-82257749D01*
X192144621Y-82251852D01*
X192144622Y-82251851D01*
X192149040Y-82246944D01*
X192224149Y-82116852D01*
X192241223Y-82087279D01*
X192241224Y-82087278D01*
X192244527Y-82081556D01*
X192303542Y-81899928D01*
X192305372Y-81882522D01*
X192322814Y-81716565D01*
X192323504Y-81710000D01*
X192317824Y-81655954D01*
X192309315Y-81575000D01*
X198286496Y-81575000D01*
X198287186Y-81581565D01*
X198295504Y-81660702D01*
X198306458Y-81764928D01*
X198365473Y-81946556D01*
X198368776Y-81952278D01*
X198368777Y-81952279D01*
X198385478Y-81981206D01*
X198460960Y-82111944D01*
X198465378Y-82116851D01*
X198465379Y-82116852D01*
X198513151Y-82169908D01*
X198588747Y-82253866D01*
X198743248Y-82366118D01*
X198749276Y-82368802D01*
X198749278Y-82368803D01*
X198911681Y-82441109D01*
X198917712Y-82443794D01*
X199011112Y-82463647D01*
X199098056Y-82482128D01*
X199098061Y-82482128D01*
X199104513Y-82483500D01*
X199295487Y-82483500D01*
X199301939Y-82482128D01*
X199301944Y-82482128D01*
X199477687Y-82444772D01*
X199548478Y-82450174D01*
X199605110Y-82492991D01*
X199629604Y-82559628D01*
X199623717Y-82606954D01*
X199606458Y-82660072D01*
X199586496Y-82850000D01*
X199587186Y-82856565D01*
X199604639Y-83022618D01*
X199606458Y-83039928D01*
X199665473Y-83221556D01*
X199668776Y-83227278D01*
X199668777Y-83227279D01*
X199695274Y-83273173D01*
X199760960Y-83386944D01*
X199765378Y-83391851D01*
X199765379Y-83391852D01*
X199828148Y-83461564D01*
X199888747Y-83528866D01*
X200043248Y-83641118D01*
X200049276Y-83643802D01*
X200049278Y-83643803D01*
X200158944Y-83692629D01*
X200217712Y-83718794D01*
X200311113Y-83738647D01*
X200398056Y-83757128D01*
X200398061Y-83757128D01*
X200404513Y-83758500D01*
X200595487Y-83758500D01*
X200601939Y-83757128D01*
X200601944Y-83757128D01*
X200688887Y-83738647D01*
X200782288Y-83718794D01*
X200841056Y-83692629D01*
X200950722Y-83643803D01*
X200950724Y-83643802D01*
X200956752Y-83641118D01*
X201111253Y-83528866D01*
X201171852Y-83461564D01*
X201234621Y-83391852D01*
X201234622Y-83391851D01*
X201239040Y-83386944D01*
X201304726Y-83273173D01*
X201331223Y-83227279D01*
X201331224Y-83227278D01*
X201334527Y-83221556D01*
X201393542Y-83039928D01*
X201395362Y-83022618D01*
X201412814Y-82856565D01*
X201413504Y-82850000D01*
X201393542Y-82660072D01*
X201334527Y-82478444D01*
X201315087Y-82444772D01*
X201279387Y-82382939D01*
X201239040Y-82313056D01*
X201189242Y-82257749D01*
X201115675Y-82176045D01*
X201115674Y-82176044D01*
X201111253Y-82171134D01*
X200987960Y-82081556D01*
X200962094Y-82062763D01*
X200962093Y-82062762D01*
X200956752Y-82058882D01*
X200950724Y-82056198D01*
X200950722Y-82056197D01*
X200788319Y-81983891D01*
X200788318Y-81983891D01*
X200782288Y-81981206D01*
X200688887Y-81961353D01*
X200601944Y-81942872D01*
X200601939Y-81942872D01*
X200595487Y-81941500D01*
X200404513Y-81941500D01*
X200398061Y-81942872D01*
X200398056Y-81942872D01*
X200222313Y-81980228D01*
X200151522Y-81974826D01*
X200094890Y-81932009D01*
X200070396Y-81865372D01*
X200076283Y-81818044D01*
X200091503Y-81771203D01*
X200093542Y-81764928D01*
X200104497Y-81660702D01*
X200112814Y-81581565D01*
X200113504Y-81575000D01*
X200095071Y-81399618D01*
X200094232Y-81391635D01*
X200094232Y-81391633D01*
X200093542Y-81385072D01*
X200034527Y-81203444D01*
X200016983Y-81173056D01*
X199942341Y-81043774D01*
X199939040Y-81038056D01*
X199932808Y-81031134D01*
X199815675Y-80901045D01*
X199815674Y-80901044D01*
X199811253Y-80896134D01*
X199685503Y-80804771D01*
X199662094Y-80787763D01*
X199662093Y-80787762D01*
X199656752Y-80783882D01*
X199650724Y-80781198D01*
X199650722Y-80781197D01*
X199488319Y-80708891D01*
X199488318Y-80708891D01*
X199482288Y-80706206D01*
X199388888Y-80686353D01*
X199301944Y-80667872D01*
X199301939Y-80667872D01*
X199295487Y-80666500D01*
X199104513Y-80666500D01*
X199098061Y-80667872D01*
X199098056Y-80667872D01*
X199011112Y-80686353D01*
X198917712Y-80706206D01*
X198911682Y-80708891D01*
X198911681Y-80708891D01*
X198749278Y-80781197D01*
X198749276Y-80781198D01*
X198743248Y-80783882D01*
X198737907Y-80787762D01*
X198737906Y-80787763D01*
X198714497Y-80804771D01*
X198588747Y-80896134D01*
X198584326Y-80901044D01*
X198584325Y-80901045D01*
X198467193Y-81031134D01*
X198460960Y-81038056D01*
X198457659Y-81043774D01*
X198383018Y-81173056D01*
X198365473Y-81203444D01*
X198306458Y-81385072D01*
X198305768Y-81391633D01*
X198305768Y-81391635D01*
X198304929Y-81399618D01*
X198286496Y-81575000D01*
X192309315Y-81575000D01*
X192304232Y-81526635D01*
X192304232Y-81526633D01*
X192303542Y-81520072D01*
X192244527Y-81338444D01*
X192149040Y-81173056D01*
X192021253Y-81031134D01*
X191884623Y-80931866D01*
X191872094Y-80922763D01*
X191872093Y-80922762D01*
X191866752Y-80918882D01*
X191860724Y-80916198D01*
X191860722Y-80916197D01*
X191698319Y-80843891D01*
X191698318Y-80843891D01*
X191692288Y-80841206D01*
X191598887Y-80821353D01*
X191511944Y-80802872D01*
X191511939Y-80802872D01*
X191505487Y-80801500D01*
X191314513Y-80801500D01*
X191308061Y-80802872D01*
X191308056Y-80802872D01*
X191221113Y-80821353D01*
X191127712Y-80841206D01*
X191121682Y-80843891D01*
X191121681Y-80843891D01*
X190959278Y-80916197D01*
X190959276Y-80916198D01*
X190953248Y-80918882D01*
X190947907Y-80922762D01*
X190947906Y-80922763D01*
X190935377Y-80931866D01*
X190798747Y-81031134D01*
X190670960Y-81173056D01*
X190575473Y-81338444D01*
X190516458Y-81520072D01*
X190515768Y-81526633D01*
X190515768Y-81526635D01*
X190502176Y-81655954D01*
X190496496Y-81710000D01*
X189072814Y-81710000D01*
X189060431Y-81660702D01*
X188971354Y-81455840D01*
X188850014Y-81268277D01*
X188699670Y-81103051D01*
X188695619Y-81099852D01*
X188695615Y-81099848D01*
X188528414Y-80967800D01*
X188528410Y-80967798D01*
X188524359Y-80964598D01*
X188328789Y-80856638D01*
X188323920Y-80854914D01*
X188323916Y-80854912D01*
X188123087Y-80783795D01*
X188123083Y-80783794D01*
X188118212Y-80782069D01*
X188113119Y-80781162D01*
X188113116Y-80781161D01*
X187903373Y-80743800D01*
X187903367Y-80743799D01*
X187898284Y-80742894D01*
X187824452Y-80741992D01*
X187680081Y-80740228D01*
X187680079Y-80740228D01*
X187674911Y-80740165D01*
X187454091Y-80773955D01*
X187241756Y-80843357D01*
X187211443Y-80859137D01*
X187078258Y-80928469D01*
X187043607Y-80946507D01*
X187039474Y-80949610D01*
X187039471Y-80949612D01*
X186914059Y-81043774D01*
X186864965Y-81080635D01*
X186861393Y-81084373D01*
X186753729Y-81197037D01*
X186710629Y-81242138D01*
X186603201Y-81399621D01*
X186548293Y-81444621D01*
X186477768Y-81452792D01*
X186414021Y-81421538D01*
X186393324Y-81397054D01*
X186312822Y-81272617D01*
X186312820Y-81272614D01*
X186310014Y-81268277D01*
X186159670Y-81103051D01*
X186155619Y-81099852D01*
X186155615Y-81099848D01*
X185988414Y-80967800D01*
X185988410Y-80967798D01*
X185984359Y-80964598D01*
X185788789Y-80856638D01*
X185783920Y-80854914D01*
X185783916Y-80854912D01*
X185583087Y-80783795D01*
X185583083Y-80783794D01*
X185578212Y-80782069D01*
X185573119Y-80781162D01*
X185573116Y-80781161D01*
X185363373Y-80743800D01*
X185363367Y-80743799D01*
X185358284Y-80742894D01*
X185284452Y-80741992D01*
X185140081Y-80740228D01*
X185140079Y-80740228D01*
X185134911Y-80740165D01*
X184914091Y-80773955D01*
X184701756Y-80843357D01*
X184671443Y-80859137D01*
X184538258Y-80928469D01*
X184503607Y-80946507D01*
X184499474Y-80949610D01*
X184499471Y-80949612D01*
X184374059Y-81043774D01*
X184324965Y-81080635D01*
X184321393Y-81084373D01*
X184213729Y-81197037D01*
X184170629Y-81242138D01*
X184063201Y-81399621D01*
X184008293Y-81444621D01*
X183937768Y-81452792D01*
X183874021Y-81421538D01*
X183853324Y-81397054D01*
X183772822Y-81272617D01*
X183772820Y-81272614D01*
X183770014Y-81268277D01*
X183619670Y-81103051D01*
X183615619Y-81099852D01*
X183615615Y-81099848D01*
X183448414Y-80967800D01*
X183448410Y-80967798D01*
X183444359Y-80964598D01*
X183248789Y-80856638D01*
X183243920Y-80854914D01*
X183243916Y-80854912D01*
X183043087Y-80783795D01*
X183043083Y-80783794D01*
X183038212Y-80782069D01*
X183033119Y-80781162D01*
X183033116Y-80781161D01*
X182823373Y-80743800D01*
X182823367Y-80743799D01*
X182818284Y-80742894D01*
X182744452Y-80741992D01*
X182600081Y-80740228D01*
X182600079Y-80740228D01*
X182594911Y-80740165D01*
X182374091Y-80773955D01*
X182161756Y-80843357D01*
X182131443Y-80859137D01*
X181998258Y-80928469D01*
X181963607Y-80946507D01*
X181959474Y-80949610D01*
X181959471Y-80949612D01*
X181834059Y-81043774D01*
X181784965Y-81080635D01*
X181728537Y-81139684D01*
X181704283Y-81165064D01*
X181642759Y-81200494D01*
X181571846Y-81197037D01*
X181514060Y-81155791D01*
X181495207Y-81122243D01*
X181453767Y-81011703D01*
X181450615Y-81003295D01*
X181363261Y-80886739D01*
X181246705Y-80799385D01*
X181110316Y-80748255D01*
X181048134Y-80741500D01*
X179251866Y-80741500D01*
X179189684Y-80748255D01*
X179053295Y-80799385D01*
X178936739Y-80886739D01*
X178849385Y-81003295D01*
X178798255Y-81139684D01*
X178791500Y-81201866D01*
X178791500Y-82998134D01*
X175636978Y-82998134D01*
X175631678Y-78430000D01*
X176976496Y-78430000D01*
X176977186Y-78436565D01*
X176994078Y-78597279D01*
X176996458Y-78619928D01*
X177055473Y-78801556D01*
X177150960Y-78966944D01*
X177155378Y-78971851D01*
X177155379Y-78971852D01*
X177260674Y-79088794D01*
X177278747Y-79108866D01*
X177305771Y-79128500D01*
X177416385Y-79208866D01*
X177433248Y-79221118D01*
X177439276Y-79223802D01*
X177439278Y-79223803D01*
X177601681Y-79296109D01*
X177607712Y-79298794D01*
X177694479Y-79317237D01*
X177788056Y-79337128D01*
X177788061Y-79337128D01*
X177794513Y-79338500D01*
X177985487Y-79338500D01*
X177991939Y-79337128D01*
X177991944Y-79337128D01*
X178085521Y-79317237D01*
X178172288Y-79298794D01*
X178178319Y-79296109D01*
X178340722Y-79223803D01*
X178340724Y-79223802D01*
X178346752Y-79221118D01*
X178363616Y-79208866D01*
X178474229Y-79128500D01*
X178501253Y-79108866D01*
X178519326Y-79088794D01*
X178624621Y-78971852D01*
X178624622Y-78971851D01*
X178629040Y-78966944D01*
X178724527Y-78801556D01*
X178783542Y-78619928D01*
X178785923Y-78597279D01*
X178792994Y-78530000D01*
X188116496Y-78530000D01*
X188117186Y-78536565D01*
X188126608Y-78626206D01*
X188136458Y-78719928D01*
X188195473Y-78901556D01*
X188290960Y-79066944D01*
X188418747Y-79208866D01*
X188573248Y-79321118D01*
X188579276Y-79323802D01*
X188579278Y-79323803D01*
X188741681Y-79396109D01*
X188747712Y-79398794D01*
X188841112Y-79418647D01*
X188928056Y-79437128D01*
X188928061Y-79437128D01*
X188934513Y-79438500D01*
X189125487Y-79438500D01*
X189131939Y-79437128D01*
X189131944Y-79437128D01*
X189218887Y-79418647D01*
X189312288Y-79398794D01*
X189318319Y-79396109D01*
X189480722Y-79323803D01*
X189480724Y-79323802D01*
X189486752Y-79321118D01*
X189641253Y-79208866D01*
X189769040Y-79066944D01*
X189864527Y-78901556D01*
X189923542Y-78719928D01*
X189933393Y-78626206D01*
X189942814Y-78536565D01*
X189943504Y-78530000D01*
X189923542Y-78340072D01*
X189884528Y-78220000D01*
X193656496Y-78220000D01*
X193657186Y-78226565D01*
X193665557Y-78306206D01*
X193676458Y-78409928D01*
X193735473Y-78591556D01*
X193830960Y-78756944D01*
X193835378Y-78761851D01*
X193835379Y-78761852D01*
X193863199Y-78792749D01*
X193958747Y-78898866D01*
X194113248Y-79011118D01*
X194119276Y-79013802D01*
X194119278Y-79013803D01*
X194249659Y-79071852D01*
X194287712Y-79088794D01*
X194381113Y-79108647D01*
X194468056Y-79127128D01*
X194468061Y-79127128D01*
X194474513Y-79128500D01*
X194665487Y-79128500D01*
X194671939Y-79127128D01*
X194671944Y-79127128D01*
X194758887Y-79108647D01*
X194852288Y-79088794D01*
X194890341Y-79071852D01*
X195020722Y-79013803D01*
X195020724Y-79013802D01*
X195026752Y-79011118D01*
X195181253Y-78898866D01*
X195276801Y-78792749D01*
X195304621Y-78761852D01*
X195304622Y-78761851D01*
X195309040Y-78756944D01*
X195404527Y-78591556D01*
X195463542Y-78409928D01*
X195474444Y-78306206D01*
X195482814Y-78226565D01*
X195483504Y-78220000D01*
X195471943Y-78110000D01*
X198986496Y-78110000D01*
X198987186Y-78116565D01*
X198993677Y-78178319D01*
X199006458Y-78299928D01*
X199065473Y-78481556D01*
X199068776Y-78487278D01*
X199068777Y-78487279D01*
X199102686Y-78546010D01*
X199160960Y-78646944D01*
X199165378Y-78651851D01*
X199165379Y-78651852D01*
X199284325Y-78783955D01*
X199288747Y-78788866D01*
X199443248Y-78901118D01*
X199449276Y-78903802D01*
X199449278Y-78903803D01*
X199578253Y-78961226D01*
X199617712Y-78978794D01*
X199711113Y-78998647D01*
X199798056Y-79017128D01*
X199798061Y-79017128D01*
X199804513Y-79018500D01*
X199995487Y-79018500D01*
X200001939Y-79017128D01*
X200001944Y-79017128D01*
X200088888Y-78998647D01*
X200182288Y-78978794D01*
X200221747Y-78961226D01*
X200350722Y-78903803D01*
X200350724Y-78903802D01*
X200356752Y-78901118D01*
X200511253Y-78788866D01*
X200515675Y-78783955D01*
X200634621Y-78651852D01*
X200634622Y-78651851D01*
X200639040Y-78646944D01*
X200697314Y-78546010D01*
X200731223Y-78487279D01*
X200731224Y-78487278D01*
X200734527Y-78481556D01*
X200793542Y-78299928D01*
X200806324Y-78178319D01*
X200812814Y-78116565D01*
X200813504Y-78110000D01*
X200805103Y-78030072D01*
X200794232Y-77926635D01*
X200794232Y-77926633D01*
X200793542Y-77920072D01*
X200734527Y-77738444D01*
X200725981Y-77723641D01*
X200691484Y-77663891D01*
X200639040Y-77573056D01*
X200610298Y-77541134D01*
X200515675Y-77436045D01*
X200515674Y-77436044D01*
X200511253Y-77431134D01*
X200356752Y-77318882D01*
X200350724Y-77316198D01*
X200350722Y-77316197D01*
X200188319Y-77243891D01*
X200188318Y-77243891D01*
X200182288Y-77241206D01*
X200088888Y-77221353D01*
X200001944Y-77202872D01*
X200001939Y-77202872D01*
X199995487Y-77201500D01*
X199804513Y-77201500D01*
X199798061Y-77202872D01*
X199798056Y-77202872D01*
X199711112Y-77221353D01*
X199617712Y-77241206D01*
X199611682Y-77243891D01*
X199611681Y-77243891D01*
X199449278Y-77316197D01*
X199449276Y-77316198D01*
X199443248Y-77318882D01*
X199288747Y-77431134D01*
X199284326Y-77436044D01*
X199284325Y-77436045D01*
X199189703Y-77541134D01*
X199160960Y-77573056D01*
X199108516Y-77663891D01*
X199074020Y-77723641D01*
X199065473Y-77738444D01*
X199006458Y-77920072D01*
X199005768Y-77926633D01*
X199005768Y-77926635D01*
X198994897Y-78030072D01*
X198986496Y-78110000D01*
X195471943Y-78110000D01*
X195466524Y-78058444D01*
X195464232Y-78036635D01*
X195464232Y-78036633D01*
X195463542Y-78030072D01*
X195404527Y-77848444D01*
X195309040Y-77683056D01*
X195205577Y-77568148D01*
X195185675Y-77546045D01*
X195185674Y-77546044D01*
X195181253Y-77541134D01*
X195026752Y-77428882D01*
X195020724Y-77426198D01*
X195020722Y-77426197D01*
X194858319Y-77353891D01*
X194858318Y-77353891D01*
X194852288Y-77351206D01*
X194747587Y-77328951D01*
X194671944Y-77312872D01*
X194671939Y-77312872D01*
X194665487Y-77311500D01*
X194474513Y-77311500D01*
X194468061Y-77312872D01*
X194468056Y-77312872D01*
X194392413Y-77328951D01*
X194287712Y-77351206D01*
X194281682Y-77353891D01*
X194281681Y-77353891D01*
X194119278Y-77426197D01*
X194119276Y-77426198D01*
X194113248Y-77428882D01*
X193958747Y-77541134D01*
X193954326Y-77546044D01*
X193954325Y-77546045D01*
X193934424Y-77568148D01*
X193830960Y-77683056D01*
X193735473Y-77848444D01*
X193676458Y-78030072D01*
X193675768Y-78036633D01*
X193675768Y-78036635D01*
X193673476Y-78058444D01*
X193656496Y-78220000D01*
X189884528Y-78220000D01*
X189864527Y-78158444D01*
X189832768Y-78103435D01*
X189827314Y-78093990D01*
X189769040Y-77993056D01*
X189641253Y-77851134D01*
X189510375Y-77756045D01*
X189492094Y-77742763D01*
X189492093Y-77742762D01*
X189486752Y-77738882D01*
X189480724Y-77736198D01*
X189480722Y-77736197D01*
X189318319Y-77663891D01*
X189318318Y-77663891D01*
X189312288Y-77661206D01*
X189218887Y-77641353D01*
X189131944Y-77622872D01*
X189131939Y-77622872D01*
X189125487Y-77621500D01*
X188934513Y-77621500D01*
X188928061Y-77622872D01*
X188928056Y-77622872D01*
X188841113Y-77641353D01*
X188747712Y-77661206D01*
X188741682Y-77663891D01*
X188741681Y-77663891D01*
X188579278Y-77736197D01*
X188579276Y-77736198D01*
X188573248Y-77738882D01*
X188567907Y-77742762D01*
X188567906Y-77742763D01*
X188549625Y-77756045D01*
X188418747Y-77851134D01*
X188290960Y-77993056D01*
X188232686Y-78093990D01*
X188227233Y-78103435D01*
X188195473Y-78158444D01*
X188136458Y-78340072D01*
X188116496Y-78530000D01*
X178792994Y-78530000D01*
X178802814Y-78436565D01*
X178803504Y-78430000D01*
X178794052Y-78340072D01*
X178784232Y-78246635D01*
X178784232Y-78246633D01*
X178783542Y-78240072D01*
X178724527Y-78058444D01*
X178629040Y-77893056D01*
X178614165Y-77876535D01*
X178505675Y-77756045D01*
X178505674Y-77756044D01*
X178501253Y-77751134D01*
X178346752Y-77638882D01*
X178340724Y-77636198D01*
X178340722Y-77636197D01*
X178178319Y-77563891D01*
X178178318Y-77563891D01*
X178172288Y-77561206D01*
X178061528Y-77537663D01*
X177991944Y-77522872D01*
X177991939Y-77522872D01*
X177985487Y-77521500D01*
X177794513Y-77521500D01*
X177788061Y-77522872D01*
X177788056Y-77522872D01*
X177718472Y-77537663D01*
X177607712Y-77561206D01*
X177601682Y-77563891D01*
X177601681Y-77563891D01*
X177439278Y-77636197D01*
X177439276Y-77636198D01*
X177433248Y-77638882D01*
X177278747Y-77751134D01*
X177274326Y-77756044D01*
X177274325Y-77756045D01*
X177165836Y-77876535D01*
X177150960Y-77893056D01*
X177055473Y-78058444D01*
X176996458Y-78240072D01*
X176995768Y-78246633D01*
X176995768Y-78246635D01*
X176985948Y-78340072D01*
X176976496Y-78430000D01*
X175631678Y-78430000D01*
X175629459Y-76517165D01*
X215392996Y-76517165D01*
X215393686Y-76523730D01*
X215402761Y-76610070D01*
X215412958Y-76707093D01*
X215471973Y-76888721D01*
X215567460Y-77054109D01*
X215695247Y-77196031D01*
X215849748Y-77308283D01*
X215855776Y-77310967D01*
X215855778Y-77310968D01*
X216018181Y-77383274D01*
X216024212Y-77385959D01*
X216117612Y-77405812D01*
X216204556Y-77424293D01*
X216204561Y-77424293D01*
X216211013Y-77425665D01*
X216401987Y-77425665D01*
X216408439Y-77424293D01*
X216408444Y-77424293D01*
X216495388Y-77405812D01*
X216588788Y-77385959D01*
X216594819Y-77383274D01*
X216757222Y-77310968D01*
X216757224Y-77310967D01*
X216763252Y-77308283D01*
X216917753Y-77196031D01*
X217045540Y-77054109D01*
X217141027Y-76888721D01*
X217200042Y-76707093D01*
X217209722Y-76615000D01*
X223186681Y-76615000D01*
X223205928Y-76859557D01*
X223207082Y-76864364D01*
X223207083Y-76864370D01*
X223243351Y-77015437D01*
X223263195Y-77098092D01*
X223357073Y-77324732D01*
X223419896Y-77427251D01*
X223478493Y-77522872D01*
X223485248Y-77533896D01*
X223488463Y-77537660D01*
X223488465Y-77537663D01*
X223561241Y-77622872D01*
X223644567Y-77720433D01*
X223648323Y-77723641D01*
X223793051Y-77847251D01*
X223831104Y-77879752D01*
X223835327Y-77882340D01*
X223835330Y-77882342D01*
X223844805Y-77888148D01*
X224040268Y-78007927D01*
X224109575Y-78036635D01*
X224262335Y-78099911D01*
X224262337Y-78099912D01*
X224266908Y-78101805D01*
X224301043Y-78110000D01*
X224500630Y-78157917D01*
X224500636Y-78157918D01*
X224505443Y-78159072D01*
X224750000Y-78178319D01*
X224994557Y-78159072D01*
X224999364Y-78157918D01*
X224999370Y-78157917D01*
X225198957Y-78110000D01*
X225233092Y-78101805D01*
X225237663Y-78099912D01*
X225237665Y-78099911D01*
X225390425Y-78036635D01*
X225459732Y-78007927D01*
X225655195Y-77888148D01*
X225664670Y-77882342D01*
X225664673Y-77882340D01*
X225668896Y-77879752D01*
X225706950Y-77847251D01*
X225851677Y-77723641D01*
X225855433Y-77720433D01*
X225938759Y-77622872D01*
X226011535Y-77537663D01*
X226011537Y-77537660D01*
X226014752Y-77533896D01*
X226021508Y-77522872D01*
X226080104Y-77427251D01*
X226142927Y-77324732D01*
X226236805Y-77098092D01*
X226256649Y-77015437D01*
X226292917Y-76864370D01*
X226292918Y-76864364D01*
X226294072Y-76859557D01*
X226313319Y-76615000D01*
X226294072Y-76370443D01*
X226283700Y-76327237D01*
X226239371Y-76142598D01*
X226236805Y-76131908D01*
X226142927Y-75905268D01*
X226034168Y-75727788D01*
X226015630Y-75659255D01*
X226037087Y-75591578D01*
X226066035Y-75561128D01*
X226072987Y-75555918D01*
X226163261Y-75488261D01*
X226250615Y-75371705D01*
X226301745Y-75235316D01*
X226308500Y-75173134D01*
X226308500Y-72976866D01*
X226301745Y-72914684D01*
X226250615Y-72778295D01*
X226163261Y-72661739D01*
X226046705Y-72574385D01*
X225910316Y-72523255D01*
X225848134Y-72516500D01*
X223651866Y-72516500D01*
X223589684Y-72523255D01*
X223453295Y-72574385D01*
X223336739Y-72661739D01*
X223249385Y-72778295D01*
X223198255Y-72914684D01*
X223191500Y-72976866D01*
X223191500Y-75173134D01*
X223198255Y-75235316D01*
X223249385Y-75371705D01*
X223336739Y-75488261D01*
X223427013Y-75555918D01*
X223433965Y-75561128D01*
X223476479Y-75617988D01*
X223481504Y-75688806D01*
X223465832Y-75727788D01*
X223357073Y-75905268D01*
X223263195Y-76131908D01*
X223260629Y-76142598D01*
X223216301Y-76327237D01*
X223205928Y-76370443D01*
X223186681Y-76615000D01*
X217209722Y-76615000D01*
X217210240Y-76610070D01*
X217219314Y-76523730D01*
X217220004Y-76517165D01*
X217200042Y-76327237D01*
X217141027Y-76145609D01*
X217130477Y-76127335D01*
X217048841Y-75985939D01*
X217045540Y-75980221D01*
X216917753Y-75838299D01*
X216796655Y-75750316D01*
X216768594Y-75729928D01*
X216768593Y-75729927D01*
X216763252Y-75726047D01*
X216757224Y-75723363D01*
X216757222Y-75723362D01*
X216594819Y-75651056D01*
X216594818Y-75651056D01*
X216588788Y-75648371D01*
X216495388Y-75628518D01*
X216408444Y-75610037D01*
X216408439Y-75610037D01*
X216401987Y-75608665D01*
X216211013Y-75608665D01*
X216204561Y-75610037D01*
X216204556Y-75610037D01*
X216117612Y-75628518D01*
X216024212Y-75648371D01*
X216018182Y-75651056D01*
X216018181Y-75651056D01*
X215855778Y-75723362D01*
X215855776Y-75723363D01*
X215849748Y-75726047D01*
X215844407Y-75729927D01*
X215844406Y-75729928D01*
X215816345Y-75750316D01*
X215695247Y-75838299D01*
X215567460Y-75980221D01*
X215564159Y-75985939D01*
X215482524Y-76127335D01*
X215471973Y-76145609D01*
X215412958Y-76327237D01*
X215392996Y-76517165D01*
X175629459Y-76517165D01*
X175624470Y-72216695D01*
X184237251Y-72216695D01*
X184237548Y-72221848D01*
X184237548Y-72221851D01*
X184243011Y-72316590D01*
X184250110Y-72439715D01*
X184251247Y-72444761D01*
X184251248Y-72444767D01*
X184268937Y-72523255D01*
X184299222Y-72657639D01*
X184383266Y-72864616D01*
X184385965Y-72869020D01*
X184454147Y-72980283D01*
X184499987Y-73055088D01*
X184646250Y-73223938D01*
X184650230Y-73227242D01*
X184654981Y-73231187D01*
X184694616Y-73290090D01*
X184696113Y-73361071D01*
X184658997Y-73421593D01*
X184618724Y-73446112D01*
X184503295Y-73489385D01*
X184386739Y-73576739D01*
X184299385Y-73693295D01*
X184248255Y-73829684D01*
X184241500Y-73891866D01*
X184241500Y-75688134D01*
X184248255Y-75750316D01*
X184299385Y-75886705D01*
X184386739Y-76003261D01*
X184503295Y-76090615D01*
X184639684Y-76141745D01*
X184701866Y-76148500D01*
X186498134Y-76148500D01*
X186560316Y-76141745D01*
X186696705Y-76090615D01*
X186813261Y-76003261D01*
X186900615Y-75886705D01*
X186951745Y-75750316D01*
X186958500Y-75688134D01*
X186958500Y-73891866D01*
X186951745Y-73829684D01*
X186900615Y-73693295D01*
X186813261Y-73576739D01*
X186696705Y-73489385D01*
X186684132Y-73484672D01*
X186578203Y-73444960D01*
X186521439Y-73402318D01*
X186496739Y-73335756D01*
X186511947Y-73266408D01*
X186533493Y-73237727D01*
X186634435Y-73137137D01*
X186638096Y-73133489D01*
X186697594Y-73050689D01*
X186765435Y-72956277D01*
X186768453Y-72952077D01*
X186790591Y-72907285D01*
X186865136Y-72756453D01*
X186865137Y-72756451D01*
X186867430Y-72751811D01*
X186932370Y-72538069D01*
X186961529Y-72316590D01*
X186963156Y-72250000D01*
X186944852Y-72027361D01*
X186890431Y-71810702D01*
X186801354Y-71605840D01*
X186680014Y-71418277D01*
X186529670Y-71253051D01*
X186525619Y-71249852D01*
X186525615Y-71249848D01*
X186358414Y-71117800D01*
X186358410Y-71117798D01*
X186354359Y-71114598D01*
X186313053Y-71091796D01*
X186263084Y-71041364D01*
X186248312Y-70971921D01*
X186273428Y-70905516D01*
X186300780Y-70878909D01*
X186344603Y-70847650D01*
X186479860Y-70751173D01*
X186638096Y-70593489D01*
X186697594Y-70510689D01*
X186765435Y-70416277D01*
X186768453Y-70412077D01*
X186867430Y-70211811D01*
X186932370Y-69998069D01*
X186961529Y-69776590D01*
X186963156Y-69710000D01*
X186944852Y-69487361D01*
X186890431Y-69270702D01*
X186801354Y-69065840D01*
X186761906Y-69004862D01*
X186682822Y-68882617D01*
X186682820Y-68882614D01*
X186680014Y-68878277D01*
X186529670Y-68713051D01*
X186525619Y-68709852D01*
X186525615Y-68709848D01*
X186358414Y-68577800D01*
X186358410Y-68577798D01*
X186354359Y-68574598D01*
X186313053Y-68551796D01*
X186263084Y-68501364D01*
X186248312Y-68431921D01*
X186273428Y-68365516D01*
X186300780Y-68338909D01*
X186344603Y-68307650D01*
X186383367Y-68280000D01*
X208586496Y-68280000D01*
X208587186Y-68286565D01*
X208603226Y-68439174D01*
X208606458Y-68469928D01*
X208665473Y-68651556D01*
X208760960Y-68816944D01*
X208765378Y-68821851D01*
X208765379Y-68821852D01*
X208782059Y-68840377D01*
X208888747Y-68958866D01*
X209043248Y-69071118D01*
X209049276Y-69073802D01*
X209049278Y-69073803D01*
X209052124Y-69075070D01*
X209217712Y-69148794D01*
X209311112Y-69168647D01*
X209398056Y-69187128D01*
X209398061Y-69187128D01*
X209404513Y-69188500D01*
X209595487Y-69188500D01*
X209601939Y-69187128D01*
X209601944Y-69187128D01*
X209688888Y-69168647D01*
X209782288Y-69148794D01*
X209936803Y-69080000D01*
X223136681Y-69080000D01*
X223155928Y-69324557D01*
X223157082Y-69329364D01*
X223157083Y-69329370D01*
X223193351Y-69480437D01*
X223213195Y-69563092D01*
X223307073Y-69789732D01*
X223371303Y-69894547D01*
X223431598Y-69992939D01*
X223435248Y-69998896D01*
X223438463Y-70002660D01*
X223438465Y-70002663D01*
X223591359Y-70181677D01*
X223594567Y-70185433D01*
X223781104Y-70344752D01*
X223785327Y-70347340D01*
X223785330Y-70347342D01*
X223854515Y-70389738D01*
X223990268Y-70472927D01*
X224081433Y-70510689D01*
X224212335Y-70564911D01*
X224212337Y-70564912D01*
X224216908Y-70566805D01*
X224299563Y-70586649D01*
X224450630Y-70622917D01*
X224450636Y-70622918D01*
X224455443Y-70624072D01*
X224700000Y-70643319D01*
X224944557Y-70624072D01*
X224949364Y-70622918D01*
X224949370Y-70622917D01*
X225100437Y-70586649D01*
X225183092Y-70566805D01*
X225187663Y-70564912D01*
X225187665Y-70564911D01*
X225318567Y-70510689D01*
X225409732Y-70472927D01*
X225545485Y-70389738D01*
X225614670Y-70347342D01*
X225614673Y-70347340D01*
X225618896Y-70344752D01*
X225805433Y-70185433D01*
X225808641Y-70181677D01*
X225961535Y-70002663D01*
X225961537Y-70002660D01*
X225964752Y-69998896D01*
X225968403Y-69992939D01*
X226028697Y-69894547D01*
X226092927Y-69789732D01*
X226186805Y-69563092D01*
X226206649Y-69480437D01*
X226242917Y-69329370D01*
X226242918Y-69329364D01*
X226244072Y-69324557D01*
X226263319Y-69080000D01*
X226244072Y-68835443D01*
X226240810Y-68821852D01*
X226187960Y-68601720D01*
X226186805Y-68596908D01*
X226171357Y-68559612D01*
X226121469Y-68439174D01*
X226092927Y-68370268D01*
X225964752Y-68161104D01*
X225904085Y-68090072D01*
X225808641Y-67978323D01*
X225805433Y-67974567D01*
X225801677Y-67971359D01*
X225724931Y-67905811D01*
X225686122Y-67846360D01*
X225685616Y-67775365D01*
X225724931Y-67714189D01*
X225801677Y-67648641D01*
X225805433Y-67645433D01*
X225846585Y-67597251D01*
X225961535Y-67462663D01*
X225961537Y-67462660D01*
X225964752Y-67458896D01*
X225968403Y-67452939D01*
X226028697Y-67354547D01*
X226092927Y-67249732D01*
X226186805Y-67023092D01*
X226206649Y-66940437D01*
X226242917Y-66789370D01*
X226242918Y-66789364D01*
X226244072Y-66784557D01*
X226263319Y-66540000D01*
X226244072Y-66295443D01*
X226213920Y-66169848D01*
X226187960Y-66061720D01*
X226186805Y-66056908D01*
X226171357Y-66019612D01*
X226094820Y-65834839D01*
X226092927Y-65830268D01*
X225984168Y-65652788D01*
X225965630Y-65584255D01*
X225987087Y-65516578D01*
X226016035Y-65486128D01*
X226022987Y-65480918D01*
X226113261Y-65413261D01*
X226200615Y-65296705D01*
X226251745Y-65160316D01*
X226258500Y-65098134D01*
X226258500Y-62901866D01*
X226251745Y-62839684D01*
X226200615Y-62703295D01*
X226113261Y-62586739D01*
X225996705Y-62499385D01*
X225860316Y-62448255D01*
X225798134Y-62441500D01*
X223601866Y-62441500D01*
X223539684Y-62448255D01*
X223403295Y-62499385D01*
X223286739Y-62586739D01*
X223199385Y-62703295D01*
X223148255Y-62839684D01*
X223141500Y-62901866D01*
X223141500Y-65098134D01*
X223148255Y-65160316D01*
X223199385Y-65296705D01*
X223286739Y-65413261D01*
X223377013Y-65480918D01*
X223383965Y-65486128D01*
X223426479Y-65542988D01*
X223431504Y-65613806D01*
X223415832Y-65652788D01*
X223307073Y-65830268D01*
X223305180Y-65834839D01*
X223228644Y-66019612D01*
X223213195Y-66056908D01*
X223212040Y-66061720D01*
X223186081Y-66169848D01*
X223155928Y-66295443D01*
X223136681Y-66540000D01*
X223155928Y-66784557D01*
X223157082Y-66789364D01*
X223157083Y-66789370D01*
X223193351Y-66940437D01*
X223213195Y-67023092D01*
X223307073Y-67249732D01*
X223371303Y-67354547D01*
X223431598Y-67452939D01*
X223435248Y-67458896D01*
X223438463Y-67462660D01*
X223438465Y-67462663D01*
X223553415Y-67597251D01*
X223594567Y-67645433D01*
X223598323Y-67648641D01*
X223675069Y-67714189D01*
X223713878Y-67773640D01*
X223714384Y-67844635D01*
X223675069Y-67905811D01*
X223598323Y-67971359D01*
X223594567Y-67974567D01*
X223591359Y-67978323D01*
X223495916Y-68090072D01*
X223435248Y-68161104D01*
X223307073Y-68370268D01*
X223278531Y-68439174D01*
X223228644Y-68559612D01*
X223213195Y-68596908D01*
X223212040Y-68601720D01*
X223159191Y-68821852D01*
X223155928Y-68835443D01*
X223136681Y-69080000D01*
X209936803Y-69080000D01*
X209947876Y-69075070D01*
X209950722Y-69073803D01*
X209950724Y-69073802D01*
X209956752Y-69071118D01*
X210111253Y-68958866D01*
X210217941Y-68840377D01*
X210234621Y-68821852D01*
X210234622Y-68821851D01*
X210239040Y-68816944D01*
X210334527Y-68651556D01*
X210393542Y-68469928D01*
X210396775Y-68439174D01*
X210412814Y-68286565D01*
X210413504Y-68280000D01*
X210399551Y-68147240D01*
X210394232Y-68096635D01*
X210394232Y-68096633D01*
X210393542Y-68090072D01*
X210334527Y-67908444D01*
X210313531Y-67872077D01*
X210260271Y-67779829D01*
X210239040Y-67743056D01*
X210179071Y-67676453D01*
X210115675Y-67606045D01*
X210115674Y-67606044D01*
X210111253Y-67601134D01*
X209956752Y-67488882D01*
X209950724Y-67486198D01*
X209950722Y-67486197D01*
X209788319Y-67413891D01*
X209788318Y-67413891D01*
X209782288Y-67411206D01*
X209688887Y-67391353D01*
X209601944Y-67372872D01*
X209601939Y-67372872D01*
X209595487Y-67371500D01*
X209404513Y-67371500D01*
X209398061Y-67372872D01*
X209398056Y-67372872D01*
X209311113Y-67391353D01*
X209217712Y-67411206D01*
X209211682Y-67413891D01*
X209211681Y-67413891D01*
X209049278Y-67486197D01*
X209049276Y-67486198D01*
X209043248Y-67488882D01*
X208888747Y-67601134D01*
X208884326Y-67606044D01*
X208884325Y-67606045D01*
X208820930Y-67676453D01*
X208760960Y-67743056D01*
X208739729Y-67779829D01*
X208686470Y-67872077D01*
X208665473Y-67908444D01*
X208606458Y-68090072D01*
X208605768Y-68096633D01*
X208605768Y-68096635D01*
X208600449Y-68147240D01*
X208586496Y-68280000D01*
X186383367Y-68280000D01*
X186479860Y-68211173D01*
X186525864Y-68165330D01*
X186634435Y-68057137D01*
X186638096Y-68053489D01*
X186697594Y-67970689D01*
X186765435Y-67876277D01*
X186768453Y-67872077D01*
X186796540Y-67815248D01*
X186865136Y-67676453D01*
X186865137Y-67676451D01*
X186867430Y-67671811D01*
X186932370Y-67458069D01*
X186961529Y-67236590D01*
X186963156Y-67170000D01*
X186944852Y-66947361D01*
X186890431Y-66730702D01*
X186801354Y-66525840D01*
X186680014Y-66338277D01*
X186529670Y-66173051D01*
X186525619Y-66169852D01*
X186525615Y-66169848D01*
X186358414Y-66037800D01*
X186358410Y-66037798D01*
X186354359Y-66034598D01*
X186158789Y-65926638D01*
X186153920Y-65924914D01*
X186153916Y-65924912D01*
X185953087Y-65853795D01*
X185953083Y-65853794D01*
X185948212Y-65852069D01*
X185943119Y-65851162D01*
X185943116Y-65851161D01*
X185733373Y-65813800D01*
X185733367Y-65813799D01*
X185728284Y-65812894D01*
X185654452Y-65811992D01*
X185510081Y-65810228D01*
X185510079Y-65810228D01*
X185504911Y-65810165D01*
X185284091Y-65843955D01*
X185071756Y-65913357D01*
X184873607Y-66016507D01*
X184869474Y-66019610D01*
X184869471Y-66019612D01*
X184699100Y-66147530D01*
X184694965Y-66150635D01*
X184691393Y-66154373D01*
X184561183Y-66290630D01*
X184540629Y-66312138D01*
X184414743Y-66496680D01*
X184320688Y-66699305D01*
X184260989Y-66914570D01*
X184237251Y-67136695D01*
X184237548Y-67141848D01*
X184237548Y-67141851D01*
X184244012Y-67253951D01*
X184250110Y-67359715D01*
X184251247Y-67364761D01*
X184251248Y-67364767D01*
X184253075Y-67372872D01*
X184299222Y-67577639D01*
X184337461Y-67671811D01*
X184379510Y-67775365D01*
X184383266Y-67784616D01*
X184398821Y-67810000D01*
X184455641Y-67902721D01*
X184499987Y-67975088D01*
X184646250Y-68143938D01*
X184818126Y-68286632D01*
X184888595Y-68327811D01*
X184891445Y-68329476D01*
X184940169Y-68381114D01*
X184953240Y-68450897D01*
X184926509Y-68516669D01*
X184886055Y-68550027D01*
X184873607Y-68556507D01*
X184869474Y-68559610D01*
X184869471Y-68559612D01*
X184755384Y-68645271D01*
X184694965Y-68690635D01*
X184691393Y-68694373D01*
X184561183Y-68830630D01*
X184540629Y-68852138D01*
X184414743Y-69036680D01*
X184397511Y-69073803D01*
X184344908Y-69187128D01*
X184320688Y-69239305D01*
X184260989Y-69454570D01*
X184237251Y-69676695D01*
X184237548Y-69681848D01*
X184237548Y-69681851D01*
X184244012Y-69793951D01*
X184250110Y-69899715D01*
X184251247Y-69904761D01*
X184251248Y-69904767D01*
X184271119Y-69992939D01*
X184299222Y-70117639D01*
X184383266Y-70324616D01*
X184499987Y-70515088D01*
X184646250Y-70683938D01*
X184818126Y-70826632D01*
X184888595Y-70867811D01*
X184891445Y-70869476D01*
X184940169Y-70921114D01*
X184953240Y-70990897D01*
X184926509Y-71056669D01*
X184886055Y-71090027D01*
X184873607Y-71096507D01*
X184869474Y-71099610D01*
X184869471Y-71099612D01*
X184845247Y-71117800D01*
X184694965Y-71230635D01*
X184540629Y-71392138D01*
X184414743Y-71576680D01*
X184320688Y-71779305D01*
X184260989Y-71994570D01*
X184237251Y-72216695D01*
X175624470Y-72216695D01*
X175609201Y-59054645D01*
X175629124Y-58986502D01*
X175682726Y-58939947D01*
X175735201Y-58928500D01*
X229997500Y-58928500D01*
X230065621Y-58948502D01*
G37*
%TD.AperFunction*%
%TD*%
M02*
