%TF.GenerationSoftware,KiCad,Pcbnew,6.0.11-2627ca5db0~126~ubuntu22.04.1*%
%TF.CreationDate,2023-03-03T22:15:38-05:00*%
%TF.ProjectId,lin-coolant-temperature,6c696e2d-636f-46f6-9c61-6e742d74656d,1.0*%
%TF.SameCoordinates,Original*%
%TF.FileFunction,Legend,Top*%
%TF.FilePolarity,Positive*%
%FSLAX46Y46*%
G04 Gerber Fmt 4.6, Leading zero omitted, Abs format (unit mm)*
G04 Created by KiCad (PCBNEW 6.0.11-2627ca5db0~126~ubuntu22.04.1) date 2023-03-03 22:15:38*
%MOMM*%
%LPD*%
G01*
G04 APERTURE LIST*
%ADD10C,0.150000*%
%ADD11C,0.127000*%
%ADD12C,0.101600*%
%ADD13C,0.120000*%
%ADD14C,0.066040*%
%ADD15C,0.010000*%
G04 APERTURE END LIST*
D10*
X182203809Y-104362380D02*
X181727619Y-104362380D01*
X181727619Y-103362380D01*
X182537142Y-104362380D02*
X182537142Y-103362380D01*
X183013333Y-104362380D02*
X183013333Y-103362380D01*
X183584761Y-104362380D01*
X183584761Y-103362380D01*
X184394285Y-103838571D02*
X184537142Y-103886190D01*
X184584761Y-103933809D01*
X184632380Y-104029047D01*
X184632380Y-104171904D01*
X184584761Y-104267142D01*
X184537142Y-104314761D01*
X184441904Y-104362380D01*
X184060952Y-104362380D01*
X184060952Y-103362380D01*
X184394285Y-103362380D01*
X184489523Y-103410000D01*
X184537142Y-103457619D01*
X184584761Y-103552857D01*
X184584761Y-103648095D01*
X184537142Y-103743333D01*
X184489523Y-103790952D01*
X184394285Y-103838571D01*
X184060952Y-103838571D01*
X185489523Y-103695714D02*
X185489523Y-104362380D01*
X185060952Y-103695714D02*
X185060952Y-104219523D01*
X185108571Y-104314761D01*
X185203809Y-104362380D01*
X185346666Y-104362380D01*
X185441904Y-104314761D01*
X185489523Y-104267142D01*
X185918095Y-104314761D02*
X186013333Y-104362380D01*
X186203809Y-104362380D01*
X186299047Y-104314761D01*
X186346666Y-104219523D01*
X186346666Y-104171904D01*
X186299047Y-104076666D01*
X186203809Y-104029047D01*
X186060952Y-104029047D01*
X185965714Y-103981428D01*
X185918095Y-103886190D01*
X185918095Y-103838571D01*
X185965714Y-103743333D01*
X186060952Y-103695714D01*
X186203809Y-103695714D01*
X186299047Y-103743333D01*
X188108571Y-104267142D02*
X188060952Y-104314761D01*
X187918095Y-104362380D01*
X187822857Y-104362380D01*
X187680000Y-104314761D01*
X187584761Y-104219523D01*
X187537142Y-104124285D01*
X187489523Y-103933809D01*
X187489523Y-103790952D01*
X187537142Y-103600476D01*
X187584761Y-103505238D01*
X187680000Y-103410000D01*
X187822857Y-103362380D01*
X187918095Y-103362380D01*
X188060952Y-103410000D01*
X188108571Y-103457619D01*
X188680000Y-104362380D02*
X188584761Y-104314761D01*
X188537142Y-104267142D01*
X188489523Y-104171904D01*
X188489523Y-103886190D01*
X188537142Y-103790952D01*
X188584761Y-103743333D01*
X188680000Y-103695714D01*
X188822857Y-103695714D01*
X188918095Y-103743333D01*
X188965714Y-103790952D01*
X189013333Y-103886190D01*
X189013333Y-104171904D01*
X188965714Y-104267142D01*
X188918095Y-104314761D01*
X188822857Y-104362380D01*
X188680000Y-104362380D01*
X189584761Y-104362380D02*
X189489523Y-104314761D01*
X189441904Y-104267142D01*
X189394285Y-104171904D01*
X189394285Y-103886190D01*
X189441904Y-103790952D01*
X189489523Y-103743333D01*
X189584761Y-103695714D01*
X189727619Y-103695714D01*
X189822857Y-103743333D01*
X189870476Y-103790952D01*
X189918095Y-103886190D01*
X189918095Y-104171904D01*
X189870476Y-104267142D01*
X189822857Y-104314761D01*
X189727619Y-104362380D01*
X189584761Y-104362380D01*
X190489523Y-104362380D02*
X190394285Y-104314761D01*
X190346666Y-104219523D01*
X190346666Y-103362380D01*
X191299047Y-104362380D02*
X191299047Y-103838571D01*
X191251428Y-103743333D01*
X191156190Y-103695714D01*
X190965714Y-103695714D01*
X190870476Y-103743333D01*
X191299047Y-104314761D02*
X191203809Y-104362380D01*
X190965714Y-104362380D01*
X190870476Y-104314761D01*
X190822857Y-104219523D01*
X190822857Y-104124285D01*
X190870476Y-104029047D01*
X190965714Y-103981428D01*
X191203809Y-103981428D01*
X191299047Y-103933809D01*
X191775238Y-103695714D02*
X191775238Y-104362380D01*
X191775238Y-103790952D02*
X191822857Y-103743333D01*
X191918095Y-103695714D01*
X192060952Y-103695714D01*
X192156190Y-103743333D01*
X192203809Y-103838571D01*
X192203809Y-104362380D01*
X192537142Y-103695714D02*
X192918095Y-103695714D01*
X192680000Y-103362380D02*
X192680000Y-104219523D01*
X192727619Y-104314761D01*
X192822857Y-104362380D01*
X192918095Y-104362380D01*
X193870476Y-103362380D02*
X194441904Y-103362380D01*
X194156190Y-104362380D02*
X194156190Y-103362380D01*
X195156190Y-104314761D02*
X195060952Y-104362380D01*
X194870476Y-104362380D01*
X194775238Y-104314761D01*
X194727619Y-104219523D01*
X194727619Y-103838571D01*
X194775238Y-103743333D01*
X194870476Y-103695714D01*
X195060952Y-103695714D01*
X195156190Y-103743333D01*
X195203809Y-103838571D01*
X195203809Y-103933809D01*
X194727619Y-104029047D01*
X195632380Y-104362380D02*
X195632380Y-103695714D01*
X195632380Y-103790952D02*
X195680000Y-103743333D01*
X195775238Y-103695714D01*
X195918095Y-103695714D01*
X196013333Y-103743333D01*
X196060952Y-103838571D01*
X196060952Y-104362380D01*
X196060952Y-103838571D02*
X196108571Y-103743333D01*
X196203809Y-103695714D01*
X196346666Y-103695714D01*
X196441904Y-103743333D01*
X196489523Y-103838571D01*
X196489523Y-104362380D01*
X196965714Y-103695714D02*
X196965714Y-104695714D01*
X196965714Y-103743333D02*
X197060952Y-103695714D01*
X197251428Y-103695714D01*
X197346666Y-103743333D01*
X197394285Y-103790952D01*
X197441904Y-103886190D01*
X197441904Y-104171904D01*
X197394285Y-104267142D01*
X197346666Y-104314761D01*
X197251428Y-104362380D01*
X197060952Y-104362380D01*
X196965714Y-104314761D01*
X198251428Y-104314761D02*
X198156190Y-104362380D01*
X197965714Y-104362380D01*
X197870476Y-104314761D01*
X197822857Y-104219523D01*
X197822857Y-103838571D01*
X197870476Y-103743333D01*
X197965714Y-103695714D01*
X198156190Y-103695714D01*
X198251428Y-103743333D01*
X198299047Y-103838571D01*
X198299047Y-103933809D01*
X197822857Y-104029047D01*
X198727619Y-104362380D02*
X198727619Y-103695714D01*
X198727619Y-103886190D02*
X198775238Y-103790952D01*
X198822857Y-103743333D01*
X198918095Y-103695714D01*
X199013333Y-103695714D01*
X199775238Y-104362380D02*
X199775238Y-103838571D01*
X199727619Y-103743333D01*
X199632380Y-103695714D01*
X199441904Y-103695714D01*
X199346666Y-103743333D01*
X199775238Y-104314761D02*
X199680000Y-104362380D01*
X199441904Y-104362380D01*
X199346666Y-104314761D01*
X199299047Y-104219523D01*
X199299047Y-104124285D01*
X199346666Y-104029047D01*
X199441904Y-103981428D01*
X199680000Y-103981428D01*
X199775238Y-103933809D01*
X200108571Y-103695714D02*
X200489523Y-103695714D01*
X200251428Y-103362380D02*
X200251428Y-104219523D01*
X200299047Y-104314761D01*
X200394285Y-104362380D01*
X200489523Y-104362380D01*
X201251428Y-103695714D02*
X201251428Y-104362380D01*
X200822857Y-103695714D02*
X200822857Y-104219523D01*
X200870476Y-104314761D01*
X200965714Y-104362380D01*
X201108571Y-104362380D01*
X201203809Y-104314761D01*
X201251428Y-104267142D01*
X201727619Y-104362380D02*
X201727619Y-103695714D01*
X201727619Y-103886190D02*
X201775238Y-103790952D01*
X201822857Y-103743333D01*
X201918095Y-103695714D01*
X202013333Y-103695714D01*
X202727619Y-104314761D02*
X202632380Y-104362380D01*
X202441904Y-104362380D01*
X202346666Y-104314761D01*
X202299047Y-104219523D01*
X202299047Y-103838571D01*
X202346666Y-103743333D01*
X202441904Y-103695714D01*
X202632380Y-103695714D01*
X202727619Y-103743333D01*
X202775238Y-103838571D01*
X202775238Y-103933809D01*
X202299047Y-104029047D01*
X203870476Y-103695714D02*
X204108571Y-104362380D01*
X204346666Y-103695714D01*
X205251428Y-104362380D02*
X204680000Y-104362380D01*
X204965714Y-104362380D02*
X204965714Y-103362380D01*
X204870476Y-103505238D01*
X204775238Y-103600476D01*
X204680000Y-103648095D01*
X205680000Y-104267142D02*
X205727619Y-104314761D01*
X205680000Y-104362380D01*
X205632380Y-104314761D01*
X205680000Y-104267142D01*
X205680000Y-104362380D01*
X206346666Y-103362380D02*
X206441904Y-103362380D01*
X206537142Y-103410000D01*
X206584761Y-103457619D01*
X206632380Y-103552857D01*
X206680000Y-103743333D01*
X206680000Y-103981428D01*
X206632380Y-104171904D01*
X206584761Y-104267142D01*
X206537142Y-104314761D01*
X206441904Y-104362380D01*
X206346666Y-104362380D01*
X206251428Y-104314761D01*
X206203809Y-104267142D01*
X206156190Y-104171904D01*
X206108571Y-103981428D01*
X206108571Y-103743333D01*
X206156190Y-103552857D01*
X206203809Y-103457619D01*
X206251428Y-103410000D01*
X206346666Y-103362380D01*
X220027380Y-70509523D02*
X220027380Y-70985714D01*
X219027380Y-70985714D01*
X220027380Y-70176190D02*
X219027380Y-70176190D01*
X220027380Y-69700000D02*
X219027380Y-69700000D01*
X220027380Y-69128571D01*
X219027380Y-69128571D01*
X219503571Y-68319047D02*
X219551190Y-68176190D01*
X219598809Y-68128571D01*
X219694047Y-68080952D01*
X219836904Y-68080952D01*
X219932142Y-68128571D01*
X219979761Y-68176190D01*
X220027380Y-68271428D01*
X220027380Y-68652380D01*
X219027380Y-68652380D01*
X219027380Y-68319047D01*
X219075000Y-68223809D01*
X219122619Y-68176190D01*
X219217857Y-68128571D01*
X219313095Y-68128571D01*
X219408333Y-68176190D01*
X219455952Y-68223809D01*
X219503571Y-68319047D01*
X219503571Y-68652380D01*
X219360714Y-67223809D02*
X220027380Y-67223809D01*
X219360714Y-67652380D02*
X219884523Y-67652380D01*
X219979761Y-67604761D01*
X220027380Y-67509523D01*
X220027380Y-67366666D01*
X219979761Y-67271428D01*
X219932142Y-67223809D01*
X219979761Y-66795238D02*
X220027380Y-66700000D01*
X220027380Y-66509523D01*
X219979761Y-66414285D01*
X219884523Y-66366666D01*
X219836904Y-66366666D01*
X219741666Y-66414285D01*
X219694047Y-66509523D01*
X219694047Y-66652380D01*
X219646428Y-66747619D01*
X219551190Y-66795238D01*
X219503571Y-66795238D01*
X219408333Y-66747619D01*
X219360714Y-66652380D01*
X219360714Y-66509523D01*
X219408333Y-66414285D01*
X181488095Y-85202380D02*
X181488095Y-84202380D01*
X181916666Y-84297619D02*
X181964285Y-84250000D01*
X182059523Y-84202380D01*
X182297619Y-84202380D01*
X182392857Y-84250000D01*
X182440476Y-84297619D01*
X182488095Y-84392857D01*
X182488095Y-84488095D01*
X182440476Y-84630952D01*
X181869047Y-85202380D01*
X182488095Y-85202380D01*
X183488095Y-85107142D02*
X183440476Y-85154761D01*
X183297619Y-85202380D01*
X183202380Y-85202380D01*
X183059523Y-85154761D01*
X182964285Y-85059523D01*
X182916666Y-84964285D01*
X182869047Y-84773809D01*
X182869047Y-84630952D01*
X182916666Y-84440476D01*
X182964285Y-84345238D01*
X183059523Y-84250000D01*
X183202380Y-84202380D01*
X183297619Y-84202380D01*
X183440476Y-84250000D01*
X183488095Y-84297619D01*
X185154761Y-85202380D02*
X184678571Y-85202380D01*
X184678571Y-84202380D01*
X186059523Y-85107142D02*
X186011904Y-85154761D01*
X185869047Y-85202380D01*
X185773809Y-85202380D01*
X185630952Y-85154761D01*
X185535714Y-85059523D01*
X185488095Y-84964285D01*
X185440476Y-84773809D01*
X185440476Y-84630952D01*
X185488095Y-84440476D01*
X185535714Y-84345238D01*
X185630952Y-84250000D01*
X185773809Y-84202380D01*
X185869047Y-84202380D01*
X186011904Y-84250000D01*
X186059523Y-84297619D01*
X186488095Y-85202380D02*
X186488095Y-84202380D01*
X186726190Y-84202380D01*
X186869047Y-84250000D01*
X186964285Y-84345238D01*
X187011904Y-84440476D01*
X187059523Y-84630952D01*
X187059523Y-84773809D01*
X187011904Y-84964285D01*
X186964285Y-85059523D01*
X186869047Y-85154761D01*
X186726190Y-85202380D01*
X186488095Y-85202380D01*
X186329047Y-106343333D02*
X186281428Y-106295714D01*
X186186190Y-106152857D01*
X186138571Y-106057619D01*
X186090952Y-105914761D01*
X186043333Y-105676666D01*
X186043333Y-105486190D01*
X186090952Y-105248095D01*
X186138571Y-105105238D01*
X186186190Y-105010000D01*
X186281428Y-104867142D01*
X186329047Y-104819523D01*
X187138571Y-105914761D02*
X187043333Y-105962380D01*
X186852857Y-105962380D01*
X186757619Y-105914761D01*
X186710000Y-105867142D01*
X186662380Y-105771904D01*
X186662380Y-105486190D01*
X186710000Y-105390952D01*
X186757619Y-105343333D01*
X186852857Y-105295714D01*
X187043333Y-105295714D01*
X187138571Y-105343333D01*
X187471904Y-106343333D02*
X187519523Y-106295714D01*
X187614761Y-106152857D01*
X187662380Y-106057619D01*
X187710000Y-105914761D01*
X187757619Y-105676666D01*
X187757619Y-105486190D01*
X187710000Y-105248095D01*
X187662380Y-105105238D01*
X187614761Y-105010000D01*
X187519523Y-104867142D01*
X187471904Y-104819523D01*
X188948095Y-105057619D02*
X188995714Y-105010000D01*
X189090952Y-104962380D01*
X189329047Y-104962380D01*
X189424285Y-105010000D01*
X189471904Y-105057619D01*
X189519523Y-105152857D01*
X189519523Y-105248095D01*
X189471904Y-105390952D01*
X188900476Y-105962380D01*
X189519523Y-105962380D01*
X190138571Y-104962380D02*
X190233809Y-104962380D01*
X190329047Y-105010000D01*
X190376666Y-105057619D01*
X190424285Y-105152857D01*
X190471904Y-105343333D01*
X190471904Y-105581428D01*
X190424285Y-105771904D01*
X190376666Y-105867142D01*
X190329047Y-105914761D01*
X190233809Y-105962380D01*
X190138571Y-105962380D01*
X190043333Y-105914761D01*
X189995714Y-105867142D01*
X189948095Y-105771904D01*
X189900476Y-105581428D01*
X189900476Y-105343333D01*
X189948095Y-105152857D01*
X189995714Y-105057619D01*
X190043333Y-105010000D01*
X190138571Y-104962380D01*
X190852857Y-105057619D02*
X190900476Y-105010000D01*
X190995714Y-104962380D01*
X191233809Y-104962380D01*
X191329047Y-105010000D01*
X191376666Y-105057619D01*
X191424285Y-105152857D01*
X191424285Y-105248095D01*
X191376666Y-105390952D01*
X190805238Y-105962380D01*
X191424285Y-105962380D01*
X191757619Y-104962380D02*
X192376666Y-104962380D01*
X192043333Y-105343333D01*
X192186190Y-105343333D01*
X192281428Y-105390952D01*
X192329047Y-105438571D01*
X192376666Y-105533809D01*
X192376666Y-105771904D01*
X192329047Y-105867142D01*
X192281428Y-105914761D01*
X192186190Y-105962380D01*
X191900476Y-105962380D01*
X191805238Y-105914761D01*
X191757619Y-105867142D01*
X194090952Y-105010000D02*
X193995714Y-104962380D01*
X193852857Y-104962380D01*
X193710000Y-105010000D01*
X193614761Y-105105238D01*
X193567142Y-105200476D01*
X193519523Y-105390952D01*
X193519523Y-105533809D01*
X193567142Y-105724285D01*
X193614761Y-105819523D01*
X193710000Y-105914761D01*
X193852857Y-105962380D01*
X193948095Y-105962380D01*
X194090952Y-105914761D01*
X194138571Y-105867142D01*
X194138571Y-105533809D01*
X193948095Y-105533809D01*
X194995714Y-105962380D02*
X194995714Y-105438571D01*
X194948095Y-105343333D01*
X194852857Y-105295714D01*
X194662380Y-105295714D01*
X194567142Y-105343333D01*
X194995714Y-105914761D02*
X194900476Y-105962380D01*
X194662380Y-105962380D01*
X194567142Y-105914761D01*
X194519523Y-105819523D01*
X194519523Y-105724285D01*
X194567142Y-105629047D01*
X194662380Y-105581428D01*
X194900476Y-105581428D01*
X194995714Y-105533809D01*
X195376666Y-105295714D02*
X195614761Y-105962380D01*
X195852857Y-105295714D01*
X196233809Y-105962380D02*
X196233809Y-105295714D01*
X196233809Y-104962380D02*
X196186190Y-105010000D01*
X196233809Y-105057619D01*
X196281428Y-105010000D01*
X196233809Y-104962380D01*
X196233809Y-105057619D01*
X196710000Y-105295714D02*
X196710000Y-105962380D01*
X196710000Y-105390952D02*
X196757619Y-105343333D01*
X196852857Y-105295714D01*
X196995714Y-105295714D01*
X197090952Y-105343333D01*
X197138571Y-105438571D01*
X197138571Y-105962380D01*
X198376666Y-105962380D02*
X198376666Y-104962380D01*
X198376666Y-105438571D02*
X198948095Y-105438571D01*
X198948095Y-105962380D02*
X198948095Y-104962380D01*
X199852857Y-105295714D02*
X199852857Y-105962380D01*
X199424285Y-105295714D02*
X199424285Y-105819523D01*
X199471904Y-105914761D01*
X199567142Y-105962380D01*
X199710000Y-105962380D01*
X199805238Y-105914761D01*
X199852857Y-105867142D01*
X200329047Y-105962380D02*
X200329047Y-105295714D01*
X200329047Y-105486190D02*
X200376666Y-105390952D01*
X200424285Y-105343333D01*
X200519523Y-105295714D01*
X200614761Y-105295714D01*
X201090952Y-105962380D02*
X200995714Y-105914761D01*
X200948095Y-105819523D01*
X200948095Y-104962380D01*
X201471904Y-105962380D02*
X201471904Y-104962380D01*
X201471904Y-105343333D02*
X201567142Y-105295714D01*
X201757619Y-105295714D01*
X201852857Y-105343333D01*
X201900476Y-105390952D01*
X201948095Y-105486190D01*
X201948095Y-105771904D01*
X201900476Y-105867142D01*
X201852857Y-105914761D01*
X201757619Y-105962380D01*
X201567142Y-105962380D01*
X201471904Y-105914761D01*
X202805238Y-105295714D02*
X202805238Y-105962380D01*
X202376666Y-105295714D02*
X202376666Y-105819523D01*
X202424285Y-105914761D01*
X202519523Y-105962380D01*
X202662380Y-105962380D01*
X202757619Y-105914761D01*
X202805238Y-105867142D01*
X203138571Y-105295714D02*
X203519523Y-105295714D01*
X203281428Y-104962380D02*
X203281428Y-105819523D01*
X203329047Y-105914761D01*
X203424285Y-105962380D01*
X203519523Y-105962380D01*
%TO.C,U4*%
X189798095Y-78952380D02*
X189798095Y-79761904D01*
X189845714Y-79857142D01*
X189893333Y-79904761D01*
X189988571Y-79952380D01*
X190179047Y-79952380D01*
X190274285Y-79904761D01*
X190321904Y-79857142D01*
X190369523Y-79761904D01*
X190369523Y-78952380D01*
X191274285Y-79285714D02*
X191274285Y-79952380D01*
X191036190Y-78904761D02*
X190798095Y-79619047D01*
X191417142Y-79619047D01*
%TO.C,U3*%
X184648095Y-63812380D02*
X184648095Y-64621904D01*
X184695714Y-64717142D01*
X184743333Y-64764761D01*
X184838571Y-64812380D01*
X185029047Y-64812380D01*
X185124285Y-64764761D01*
X185171904Y-64717142D01*
X185219523Y-64621904D01*
X185219523Y-63812380D01*
X185600476Y-63812380D02*
X186219523Y-63812380D01*
X185886190Y-64193333D01*
X186029047Y-64193333D01*
X186124285Y-64240952D01*
X186171904Y-64288571D01*
X186219523Y-64383809D01*
X186219523Y-64621904D01*
X186171904Y-64717142D01*
X186124285Y-64764761D01*
X186029047Y-64812380D01*
X185743333Y-64812380D01*
X185648095Y-64764761D01*
X185600476Y-64717142D01*
X187544642Y-63697180D02*
X187877976Y-64697180D01*
X188211309Y-63697180D01*
X188687500Y-64697180D02*
X188592261Y-64649561D01*
X188544642Y-64601942D01*
X188497023Y-64506704D01*
X188497023Y-64220990D01*
X188544642Y-64125752D01*
X188592261Y-64078133D01*
X188687500Y-64030514D01*
X188830357Y-64030514D01*
X188925595Y-64078133D01*
X188973214Y-64125752D01*
X189020833Y-64220990D01*
X189020833Y-64506704D01*
X188973214Y-64601942D01*
X188925595Y-64649561D01*
X188830357Y-64697180D01*
X188687500Y-64697180D01*
X189592261Y-64697180D02*
X189497023Y-64649561D01*
X189449404Y-64554323D01*
X189449404Y-63697180D01*
X189830357Y-64030514D02*
X190211309Y-64030514D01*
X189973214Y-63697180D02*
X189973214Y-64554323D01*
X190020833Y-64649561D01*
X190116071Y-64697180D01*
X190211309Y-64697180D01*
X190973214Y-64697180D02*
X190973214Y-64173371D01*
X190925595Y-64078133D01*
X190830357Y-64030514D01*
X190639880Y-64030514D01*
X190544642Y-64078133D01*
X190973214Y-64649561D02*
X190877976Y-64697180D01*
X190639880Y-64697180D01*
X190544642Y-64649561D01*
X190497023Y-64554323D01*
X190497023Y-64459085D01*
X190544642Y-64363847D01*
X190639880Y-64316228D01*
X190877976Y-64316228D01*
X190973214Y-64268609D01*
X191877976Y-64030514D02*
X191877976Y-64840038D01*
X191830357Y-64935276D01*
X191782738Y-64982895D01*
X191687500Y-65030514D01*
X191544642Y-65030514D01*
X191449404Y-64982895D01*
X191877976Y-64649561D02*
X191782738Y-64697180D01*
X191592261Y-64697180D01*
X191497023Y-64649561D01*
X191449404Y-64601942D01*
X191401785Y-64506704D01*
X191401785Y-64220990D01*
X191449404Y-64125752D01*
X191497023Y-64078133D01*
X191592261Y-64030514D01*
X191782738Y-64030514D01*
X191877976Y-64078133D01*
X192735119Y-64649561D02*
X192639880Y-64697180D01*
X192449404Y-64697180D01*
X192354166Y-64649561D01*
X192306547Y-64554323D01*
X192306547Y-64173371D01*
X192354166Y-64078133D01*
X192449404Y-64030514D01*
X192639880Y-64030514D01*
X192735119Y-64078133D01*
X192782738Y-64173371D01*
X192782738Y-64268609D01*
X192306547Y-64363847D01*
X194544642Y-64697180D02*
X194211309Y-64220990D01*
X193973214Y-64697180D02*
X193973214Y-63697180D01*
X194354166Y-63697180D01*
X194449404Y-63744800D01*
X194497023Y-63792419D01*
X194544642Y-63887657D01*
X194544642Y-64030514D01*
X194497023Y-64125752D01*
X194449404Y-64173371D01*
X194354166Y-64220990D01*
X193973214Y-64220990D01*
X195354166Y-64649561D02*
X195258928Y-64697180D01*
X195068452Y-64697180D01*
X194973214Y-64649561D01*
X194925595Y-64554323D01*
X194925595Y-64173371D01*
X194973214Y-64078133D01*
X195068452Y-64030514D01*
X195258928Y-64030514D01*
X195354166Y-64078133D01*
X195401785Y-64173371D01*
X195401785Y-64268609D01*
X194925595Y-64363847D01*
X196258928Y-64030514D02*
X196258928Y-64840038D01*
X196211309Y-64935276D01*
X196163690Y-64982895D01*
X196068452Y-65030514D01*
X195925595Y-65030514D01*
X195830357Y-64982895D01*
X196258928Y-64649561D02*
X196163690Y-64697180D01*
X195973214Y-64697180D01*
X195877976Y-64649561D01*
X195830357Y-64601942D01*
X195782738Y-64506704D01*
X195782738Y-64220990D01*
X195830357Y-64125752D01*
X195877976Y-64078133D01*
X195973214Y-64030514D01*
X196163690Y-64030514D01*
X196258928Y-64078133D01*
X197163690Y-64030514D02*
X197163690Y-64697180D01*
X196735119Y-64030514D02*
X196735119Y-64554323D01*
X196782738Y-64649561D01*
X196877976Y-64697180D01*
X197020833Y-64697180D01*
X197116071Y-64649561D01*
X197163690Y-64601942D01*
X197782738Y-64697180D02*
X197687500Y-64649561D01*
X197639880Y-64554323D01*
X197639880Y-63697180D01*
X198592261Y-64697180D02*
X198592261Y-64173371D01*
X198544642Y-64078133D01*
X198449404Y-64030514D01*
X198258928Y-64030514D01*
X198163690Y-64078133D01*
X198592261Y-64649561D02*
X198497023Y-64697180D01*
X198258928Y-64697180D01*
X198163690Y-64649561D01*
X198116071Y-64554323D01*
X198116071Y-64459085D01*
X198163690Y-64363847D01*
X198258928Y-64316228D01*
X198497023Y-64316228D01*
X198592261Y-64268609D01*
X198925595Y-64030514D02*
X199306547Y-64030514D01*
X199068452Y-63697180D02*
X199068452Y-64554323D01*
X199116071Y-64649561D01*
X199211309Y-64697180D01*
X199306547Y-64697180D01*
X199782738Y-64697180D02*
X199687500Y-64649561D01*
X199639880Y-64601942D01*
X199592261Y-64506704D01*
X199592261Y-64220990D01*
X199639880Y-64125752D01*
X199687500Y-64078133D01*
X199782738Y-64030514D01*
X199925595Y-64030514D01*
X200020833Y-64078133D01*
X200068452Y-64125752D01*
X200116071Y-64220990D01*
X200116071Y-64506704D01*
X200068452Y-64601942D01*
X200020833Y-64649561D01*
X199925595Y-64697180D01*
X199782738Y-64697180D01*
X200544642Y-64697180D02*
X200544642Y-64030514D01*
X200544642Y-64220990D02*
X200592261Y-64125752D01*
X200639880Y-64078133D01*
X200735119Y-64030514D01*
X200830357Y-64030514D01*
X182425804Y-66891171D02*
X182759138Y-66891171D01*
X182901995Y-67414980D02*
X182425804Y-67414980D01*
X182425804Y-66414980D01*
X182901995Y-66414980D01*
X183330566Y-67414980D02*
X183330566Y-66414980D01*
X183901995Y-67414980D01*
X183901995Y-66414980D01*
X181944795Y-71720400D02*
X181849557Y-71672780D01*
X181706700Y-71672780D01*
X181563842Y-71720400D01*
X181468604Y-71815638D01*
X181420985Y-71910876D01*
X181373366Y-72101352D01*
X181373366Y-72244209D01*
X181420985Y-72434685D01*
X181468604Y-72529923D01*
X181563842Y-72625161D01*
X181706700Y-72672780D01*
X181801938Y-72672780D01*
X181944795Y-72625161D01*
X181992414Y-72577542D01*
X181992414Y-72244209D01*
X181801938Y-72244209D01*
X182420985Y-72672780D02*
X182420985Y-71672780D01*
X182992414Y-72672780D01*
X182992414Y-71672780D01*
X183468604Y-72672780D02*
X183468604Y-71672780D01*
X183706700Y-71672780D01*
X183849557Y-71720400D01*
X183944795Y-71815638D01*
X183992414Y-71910876D01*
X184040033Y-72101352D01*
X184040033Y-72244209D01*
X183992414Y-72434685D01*
X183944795Y-72529923D01*
X183849557Y-72625161D01*
X183706700Y-72672780D01*
X183468604Y-72672780D01*
X181076190Y-74167380D02*
X181409523Y-75167380D01*
X181742857Y-74167380D01*
X182219047Y-75167380D02*
X182123809Y-75119761D01*
X182076190Y-75072142D01*
X182028571Y-74976904D01*
X182028571Y-74691190D01*
X182076190Y-74595952D01*
X182123809Y-74548333D01*
X182219047Y-74500714D01*
X182361904Y-74500714D01*
X182457142Y-74548333D01*
X182504761Y-74595952D01*
X182552380Y-74691190D01*
X182552380Y-74976904D01*
X182504761Y-75072142D01*
X182457142Y-75119761D01*
X182361904Y-75167380D01*
X182219047Y-75167380D01*
X183409523Y-74500714D02*
X183409523Y-75167380D01*
X182980952Y-74500714D02*
X182980952Y-75024523D01*
X183028571Y-75119761D01*
X183123809Y-75167380D01*
X183266666Y-75167380D01*
X183361904Y-75119761D01*
X183409523Y-75072142D01*
X183742857Y-74500714D02*
X184123809Y-74500714D01*
X183885714Y-74167380D02*
X183885714Y-75024523D01*
X183933333Y-75119761D01*
X184028571Y-75167380D01*
X184123809Y-75167380D01*
X181976190Y-68917380D02*
X182309523Y-69917380D01*
X182642857Y-68917380D01*
X182976190Y-69917380D02*
X182976190Y-69250714D01*
X182976190Y-68917380D02*
X182928571Y-68965000D01*
X182976190Y-69012619D01*
X183023809Y-68965000D01*
X182976190Y-68917380D01*
X182976190Y-69012619D01*
X183452380Y-69250714D02*
X183452380Y-69917380D01*
X183452380Y-69345952D02*
X183500000Y-69298333D01*
X183595238Y-69250714D01*
X183738095Y-69250714D01*
X183833333Y-69298333D01*
X183880952Y-69393571D01*
X183880952Y-69917380D01*
D11*
%TO.C,J1*%
X228491523Y-91410533D02*
X229398666Y-91410533D01*
X229580095Y-91471009D01*
X229701047Y-91591961D01*
X229761523Y-91773390D01*
X229761523Y-91894342D01*
X229761523Y-90140533D02*
X229761523Y-90866247D01*
X229761523Y-90503390D02*
X228491523Y-90503390D01*
X228672952Y-90624342D01*
X228793904Y-90745295D01*
X228854380Y-90866247D01*
D12*
X218056961Y-88285123D02*
X218056961Y-89313219D01*
X218117438Y-89434171D01*
X218177914Y-89494647D01*
X218298866Y-89555123D01*
X218540771Y-89555123D01*
X218661723Y-89494647D01*
X218722200Y-89434171D01*
X218782676Y-89313219D01*
X218782676Y-88285123D01*
X219387438Y-89555123D02*
X219387438Y-88285123D01*
X219871247Y-88285123D01*
X219992200Y-88345600D01*
X220052676Y-88406076D01*
X220113152Y-88527028D01*
X220113152Y-88708457D01*
X220052676Y-88829409D01*
X219992200Y-88889885D01*
X219871247Y-88950361D01*
X219387438Y-88950361D01*
X220657438Y-89555123D02*
X220657438Y-88285123D01*
X220959819Y-88285123D01*
X221141247Y-88345600D01*
X221262200Y-88466552D01*
X221322676Y-88587504D01*
X221383152Y-88829409D01*
X221383152Y-89010838D01*
X221322676Y-89252742D01*
X221262200Y-89373695D01*
X221141247Y-89494647D01*
X220959819Y-89555123D01*
X220657438Y-89555123D01*
X221927438Y-89555123D02*
X221927438Y-88285123D01*
D10*
X213294600Y-95609904D02*
X213246980Y-95705142D01*
X213246980Y-95848000D01*
X213294600Y-95990857D01*
X213389838Y-96086095D01*
X213485076Y-96133714D01*
X213675552Y-96181333D01*
X213818409Y-96181333D01*
X214008885Y-96133714D01*
X214104123Y-96086095D01*
X214199361Y-95990857D01*
X214246980Y-95848000D01*
X214246980Y-95752761D01*
X214199361Y-95609904D01*
X214151742Y-95562285D01*
X213818409Y-95562285D01*
X213818409Y-95752761D01*
X214246980Y-95133714D02*
X213246980Y-95133714D01*
X214246980Y-94562285D01*
X213246980Y-94562285D01*
X214246980Y-94086095D02*
X213246980Y-94086095D01*
X213246980Y-93848000D01*
X213294600Y-93705142D01*
X213389838Y-93609904D01*
X213485076Y-93562285D01*
X213675552Y-93514666D01*
X213818409Y-93514666D01*
X214008885Y-93562285D01*
X214104123Y-93609904D01*
X214199361Y-93705142D01*
X214246980Y-93848000D01*
X214246980Y-94086095D01*
X220917780Y-96160704D02*
X220917780Y-95589276D01*
X221917780Y-95874990D02*
X220917780Y-95874990D01*
X220917780Y-95351180D02*
X221917780Y-94684514D01*
X220917780Y-94684514D02*
X221917780Y-95351180D01*
X221917780Y-94303561D02*
X220917780Y-94303561D01*
X220917780Y-94065466D01*
X220965400Y-93922609D01*
X221060638Y-93827371D01*
X221155876Y-93779752D01*
X221346352Y-93732133D01*
X221489209Y-93732133D01*
X221679685Y-93779752D01*
X221774923Y-93827371D01*
X221870161Y-93922609D01*
X221917780Y-94065466D01*
X221917780Y-94303561D01*
X224457780Y-95616266D02*
X223981590Y-95949600D01*
X224457780Y-96187695D02*
X223457780Y-96187695D01*
X223457780Y-95806742D01*
X223505400Y-95711504D01*
X223553019Y-95663885D01*
X223648257Y-95616266D01*
X223791114Y-95616266D01*
X223886352Y-95663885D01*
X223933971Y-95711504D01*
X223981590Y-95806742D01*
X223981590Y-96187695D01*
X223457780Y-95282933D02*
X224457780Y-94616266D01*
X223457780Y-94616266D02*
X224457780Y-95282933D01*
X224457780Y-94235314D02*
X223457780Y-94235314D01*
X223457780Y-93997219D01*
X223505400Y-93854361D01*
X223600638Y-93759123D01*
X223695876Y-93711504D01*
X223886352Y-93663885D01*
X224029209Y-93663885D01*
X224219685Y-93711504D01*
X224314923Y-93759123D01*
X224410161Y-93854361D01*
X224457780Y-93997219D01*
X224457780Y-94235314D01*
D12*
X225910400Y-89313219D02*
X225849923Y-89434171D01*
X225849923Y-89615600D01*
X225910400Y-89797028D01*
X226031352Y-89917980D01*
X226152304Y-89978457D01*
X226394209Y-90038933D01*
X226575638Y-90038933D01*
X226817542Y-89978457D01*
X226938495Y-89917980D01*
X227059447Y-89797028D01*
X227119923Y-89615600D01*
X227119923Y-89494647D01*
X227059447Y-89313219D01*
X226998971Y-89252742D01*
X226575638Y-89252742D01*
X226575638Y-89494647D01*
X227119923Y-87982742D02*
X226515161Y-88406076D01*
X227119923Y-88708457D02*
X225849923Y-88708457D01*
X225849923Y-88224647D01*
X225910400Y-88103695D01*
X225970876Y-88043219D01*
X226091828Y-87982742D01*
X226273257Y-87982742D01*
X226394209Y-88043219D01*
X226454685Y-88103695D01*
X226515161Y-88224647D01*
X226515161Y-88708457D01*
X227119923Y-87438457D02*
X225849923Y-87438457D01*
X227119923Y-86712742D01*
X225849923Y-86712742D01*
X213703885Y-89556333D02*
X213764361Y-89374904D01*
X213824838Y-89314428D01*
X213945790Y-89253952D01*
X214127219Y-89253952D01*
X214248171Y-89314428D01*
X214308647Y-89374904D01*
X214369123Y-89495857D01*
X214369123Y-89979666D01*
X213099123Y-89979666D01*
X213099123Y-89556333D01*
X213159600Y-89435380D01*
X213220076Y-89374904D01*
X213341028Y-89314428D01*
X213461980Y-89314428D01*
X213582933Y-89374904D01*
X213643409Y-89435380D01*
X213703885Y-89556333D01*
X213703885Y-89979666D01*
X214369123Y-88104904D02*
X214369123Y-88709666D01*
X213099123Y-88709666D01*
X214369123Y-87681571D02*
X213099123Y-87681571D01*
X214369123Y-86955857D02*
X213643409Y-87500142D01*
X213099123Y-86955857D02*
X213824838Y-87681571D01*
D10*
X218276180Y-96181333D02*
X219276180Y-95848000D01*
X218276180Y-95514666D01*
X219180942Y-94609904D02*
X219228561Y-94657523D01*
X219276180Y-94800380D01*
X219276180Y-94895619D01*
X219228561Y-95038476D01*
X219133323Y-95133714D01*
X219038085Y-95181333D01*
X218847609Y-95228952D01*
X218704752Y-95228952D01*
X218514276Y-95181333D01*
X218419038Y-95133714D01*
X218323800Y-95038476D01*
X218276180Y-94895619D01*
X218276180Y-94800380D01*
X218323800Y-94657523D01*
X218371419Y-94609904D01*
X219180942Y-93609904D02*
X219228561Y-93657523D01*
X219276180Y-93800380D01*
X219276180Y-93895619D01*
X219228561Y-94038476D01*
X219133323Y-94133714D01*
X219038085Y-94181333D01*
X218847609Y-94228952D01*
X218704752Y-94228952D01*
X218514276Y-94181333D01*
X218419038Y-94133714D01*
X218323800Y-94038476D01*
X218276180Y-93895619D01*
X218276180Y-93800380D01*
X218323800Y-93657523D01*
X218371419Y-93609904D01*
X216717142Y-95294019D02*
X216764761Y-95341638D01*
X216812380Y-95484495D01*
X216812380Y-95579733D01*
X216764761Y-95722590D01*
X216669523Y-95817828D01*
X216574285Y-95865447D01*
X216383809Y-95913066D01*
X216240952Y-95913066D01*
X216050476Y-95865447D01*
X215955238Y-95817828D01*
X215860000Y-95722590D01*
X215812380Y-95579733D01*
X215812380Y-95484495D01*
X215860000Y-95341638D01*
X215907619Y-95294019D01*
X215812380Y-95008304D02*
X215812380Y-94436876D01*
X216812380Y-94722590D02*
X215812380Y-94722590D01*
X216764761Y-94151161D02*
X216812380Y-94008304D01*
X216812380Y-93770209D01*
X216764761Y-93674971D01*
X216717142Y-93627352D01*
X216621904Y-93579733D01*
X216526666Y-93579733D01*
X216431428Y-93627352D01*
X216383809Y-93674971D01*
X216336190Y-93770209D01*
X216288571Y-93960685D01*
X216240952Y-94055923D01*
X216193333Y-94103542D01*
X216098095Y-94151161D01*
X216002857Y-94151161D01*
X215907619Y-94103542D01*
X215860000Y-94055923D01*
X215812380Y-93960685D01*
X215812380Y-93722590D01*
X215860000Y-93579733D01*
X226972380Y-96016257D02*
X225972380Y-96016257D01*
X225972380Y-95778161D01*
X226020000Y-95635304D01*
X226115238Y-95540066D01*
X226210476Y-95492447D01*
X226400952Y-95444828D01*
X226543809Y-95444828D01*
X226734285Y-95492447D01*
X226829523Y-95540066D01*
X226924761Y-95635304D01*
X226972380Y-95778161D01*
X226972380Y-96016257D01*
X225972380Y-95159114D02*
X225972380Y-94587685D01*
X226972380Y-94873400D02*
X225972380Y-94873400D01*
X226972380Y-93682923D02*
X226496190Y-94016257D01*
X226972380Y-94254352D02*
X225972380Y-94254352D01*
X225972380Y-93873400D01*
X226020000Y-93778161D01*
X226067619Y-93730542D01*
X226162857Y-93682923D01*
X226305714Y-93682923D01*
X226400952Y-93730542D01*
X226448571Y-93778161D01*
X226496190Y-93873400D01*
X226496190Y-94254352D01*
%TO.C,F1*%
X216561666Y-66618571D02*
X216228333Y-66618571D01*
X216228333Y-67142380D02*
X216228333Y-66142380D01*
X216704523Y-66142380D01*
X217609285Y-67142380D02*
X217037857Y-67142380D01*
X217323571Y-67142380D02*
X217323571Y-66142380D01*
X217228333Y-66285238D01*
X217133095Y-66380476D01*
X217037857Y-66428095D01*
%TO.C,C7*%
X197073333Y-80557142D02*
X197025714Y-80604761D01*
X196882857Y-80652380D01*
X196787619Y-80652380D01*
X196644761Y-80604761D01*
X196549523Y-80509523D01*
X196501904Y-80414285D01*
X196454285Y-80223809D01*
X196454285Y-80080952D01*
X196501904Y-79890476D01*
X196549523Y-79795238D01*
X196644761Y-79700000D01*
X196787619Y-79652380D01*
X196882857Y-79652380D01*
X197025714Y-79700000D01*
X197073333Y-79747619D01*
X197406666Y-79652380D02*
X198073333Y-79652380D01*
X197644761Y-80652380D01*
%TO.C,C6*%
X196123333Y-82587142D02*
X196075714Y-82634761D01*
X195932857Y-82682380D01*
X195837619Y-82682380D01*
X195694761Y-82634761D01*
X195599523Y-82539523D01*
X195551904Y-82444285D01*
X195504285Y-82253809D01*
X195504285Y-82110952D01*
X195551904Y-81920476D01*
X195599523Y-81825238D01*
X195694761Y-81730000D01*
X195837619Y-81682380D01*
X195932857Y-81682380D01*
X196075714Y-81730000D01*
X196123333Y-81777619D01*
X196980476Y-81682380D02*
X196790000Y-81682380D01*
X196694761Y-81730000D01*
X196647142Y-81777619D01*
X196551904Y-81920476D01*
X196504285Y-82110952D01*
X196504285Y-82491904D01*
X196551904Y-82587142D01*
X196599523Y-82634761D01*
X196694761Y-82682380D01*
X196885238Y-82682380D01*
X196980476Y-82634761D01*
X197028095Y-82587142D01*
X197075714Y-82491904D01*
X197075714Y-82253809D01*
X197028095Y-82158571D01*
X196980476Y-82110952D01*
X196885238Y-82063333D01*
X196694761Y-82063333D01*
X196599523Y-82110952D01*
X196551904Y-82158571D01*
X196504285Y-82253809D01*
%TO.C,C5*%
X179903333Y-76607142D02*
X179855714Y-76654761D01*
X179712857Y-76702380D01*
X179617619Y-76702380D01*
X179474761Y-76654761D01*
X179379523Y-76559523D01*
X179331904Y-76464285D01*
X179284285Y-76273809D01*
X179284285Y-76130952D01*
X179331904Y-75940476D01*
X179379523Y-75845238D01*
X179474761Y-75750000D01*
X179617619Y-75702380D01*
X179712857Y-75702380D01*
X179855714Y-75750000D01*
X179903333Y-75797619D01*
X180808095Y-75702380D02*
X180331904Y-75702380D01*
X180284285Y-76178571D01*
X180331904Y-76130952D01*
X180427142Y-76083333D01*
X180665238Y-76083333D01*
X180760476Y-76130952D01*
X180808095Y-76178571D01*
X180855714Y-76273809D01*
X180855714Y-76511904D01*
X180808095Y-76607142D01*
X180760476Y-76654761D01*
X180665238Y-76702380D01*
X180427142Y-76702380D01*
X180331904Y-76654761D01*
X180284285Y-76607142D01*
%TO.C,C4*%
X189373333Y-77877142D02*
X189325714Y-77924761D01*
X189182857Y-77972380D01*
X189087619Y-77972380D01*
X188944761Y-77924761D01*
X188849523Y-77829523D01*
X188801904Y-77734285D01*
X188754285Y-77543809D01*
X188754285Y-77400952D01*
X188801904Y-77210476D01*
X188849523Y-77115238D01*
X188944761Y-77020000D01*
X189087619Y-76972380D01*
X189182857Y-76972380D01*
X189325714Y-77020000D01*
X189373333Y-77067619D01*
X190230476Y-77305714D02*
X190230476Y-77972380D01*
X189992380Y-76924761D02*
X189754285Y-77639047D01*
X190373333Y-77639047D01*
%TO.C,C3*%
X212880833Y-71147142D02*
X212833214Y-71194761D01*
X212690357Y-71242380D01*
X212595119Y-71242380D01*
X212452261Y-71194761D01*
X212357023Y-71099523D01*
X212309404Y-71004285D01*
X212261785Y-70813809D01*
X212261785Y-70670952D01*
X212309404Y-70480476D01*
X212357023Y-70385238D01*
X212452261Y-70290000D01*
X212595119Y-70242380D01*
X212690357Y-70242380D01*
X212833214Y-70290000D01*
X212880833Y-70337619D01*
X213214166Y-70242380D02*
X213833214Y-70242380D01*
X213499880Y-70623333D01*
X213642738Y-70623333D01*
X213737976Y-70670952D01*
X213785595Y-70718571D01*
X213833214Y-70813809D01*
X213833214Y-71051904D01*
X213785595Y-71147142D01*
X213737976Y-71194761D01*
X213642738Y-71242380D01*
X213357023Y-71242380D01*
X213261785Y-71194761D01*
X213214166Y-71147142D01*
%TO.C,J2*%
X176791666Y-81552380D02*
X176791666Y-82266666D01*
X176744047Y-82409523D01*
X176648809Y-82504761D01*
X176505952Y-82552380D01*
X176410714Y-82552380D01*
X177220238Y-81647619D02*
X177267857Y-81600000D01*
X177363095Y-81552380D01*
X177601190Y-81552380D01*
X177696428Y-81600000D01*
X177744047Y-81647619D01*
X177791666Y-81742857D01*
X177791666Y-81838095D01*
X177744047Y-81980952D01*
X177172619Y-82552380D01*
X177791666Y-82552380D01*
%TO.C,U1*%
X194627380Y-88086904D02*
X195436904Y-88086904D01*
X195532142Y-88039285D01*
X195579761Y-87991666D01*
X195627380Y-87896428D01*
X195627380Y-87705952D01*
X195579761Y-87610714D01*
X195532142Y-87563095D01*
X195436904Y-87515476D01*
X194627380Y-87515476D01*
X195627380Y-86515476D02*
X195627380Y-87086904D01*
X195627380Y-86801190D02*
X194627380Y-86801190D01*
X194770238Y-86896428D01*
X194865476Y-86991666D01*
X194913095Y-87086904D01*
X195402380Y-91450000D02*
X195640476Y-91450000D01*
X195545238Y-91688095D02*
X195640476Y-91450000D01*
X195545238Y-91211904D01*
X195830952Y-91592857D02*
X195640476Y-91450000D01*
X195830952Y-91307142D01*
%TO.C,J4*%
X228572380Y-75678333D02*
X229286666Y-75678333D01*
X229429523Y-75725952D01*
X229524761Y-75821190D01*
X229572380Y-75964047D01*
X229572380Y-76059285D01*
X228905714Y-74773571D02*
X229572380Y-74773571D01*
X228524761Y-75011666D02*
X229239047Y-75249761D01*
X229239047Y-74630714D01*
X220832380Y-77725952D02*
X220832380Y-78297380D01*
X220832380Y-78011666D02*
X219832380Y-78011666D01*
X219975238Y-78106904D01*
X220070476Y-78202142D01*
X220118095Y-78297380D01*
X219832380Y-77106904D02*
X219832380Y-77011666D01*
X219880000Y-76916428D01*
X219927619Y-76868809D01*
X220022857Y-76821190D01*
X220213333Y-76773571D01*
X220451428Y-76773571D01*
X220641904Y-76821190D01*
X220737142Y-76868809D01*
X220784761Y-76916428D01*
X220832380Y-77011666D01*
X220832380Y-77106904D01*
X220784761Y-77202142D01*
X220737142Y-77249761D01*
X220641904Y-77297380D01*
X220451428Y-77345000D01*
X220213333Y-77345000D01*
X220022857Y-77297380D01*
X219927619Y-77249761D01*
X219880000Y-77202142D01*
X219832380Y-77106904D01*
X220832380Y-76345000D02*
X219832380Y-76345000D01*
X220451428Y-76249761D02*
X220832380Y-75964047D01*
X220165714Y-75964047D02*
X220546666Y-76345000D01*
X220832380Y-74773571D02*
X219832380Y-74773571D01*
X220832380Y-74202142D01*
X219832380Y-74202142D01*
X219832380Y-73868809D02*
X219832380Y-73297380D01*
X220832380Y-73583095D02*
X219832380Y-73583095D01*
X220737142Y-72392619D02*
X220784761Y-72440238D01*
X220832380Y-72583095D01*
X220832380Y-72678333D01*
X220784761Y-72821190D01*
X220689523Y-72916428D01*
X220594285Y-72964047D01*
X220403809Y-73011666D01*
X220260952Y-73011666D01*
X220070476Y-72964047D01*
X219975238Y-72916428D01*
X219880000Y-72821190D01*
X219832380Y-72678333D01*
X219832380Y-72583095D01*
X219880000Y-72440238D01*
X219927619Y-72392619D01*
X218102380Y-78200000D02*
X218102380Y-77628571D01*
X219102380Y-77914285D02*
X218102380Y-77914285D01*
X219102380Y-77295238D02*
X218102380Y-77295238D01*
X219102380Y-76866666D02*
X218578571Y-76866666D01*
X218483333Y-76914285D01*
X218435714Y-77009523D01*
X218435714Y-77152380D01*
X218483333Y-77247619D01*
X218530952Y-77295238D01*
X219054761Y-76009523D02*
X219102380Y-76104761D01*
X219102380Y-76295238D01*
X219054761Y-76390476D01*
X218959523Y-76438095D01*
X218578571Y-76438095D01*
X218483333Y-76390476D01*
X218435714Y-76295238D01*
X218435714Y-76104761D01*
X218483333Y-76009523D01*
X218578571Y-75961904D01*
X218673809Y-75961904D01*
X218769047Y-76438095D01*
X219102380Y-75533333D02*
X218435714Y-75533333D01*
X218626190Y-75533333D02*
X218530952Y-75485714D01*
X218483333Y-75438095D01*
X218435714Y-75342857D01*
X218435714Y-75247619D01*
X219102380Y-74914285D02*
X218435714Y-74914285D01*
X218530952Y-74914285D02*
X218483333Y-74866666D01*
X218435714Y-74771428D01*
X218435714Y-74628571D01*
X218483333Y-74533333D01*
X218578571Y-74485714D01*
X219102380Y-74485714D01*
X218578571Y-74485714D02*
X218483333Y-74438095D01*
X218435714Y-74342857D01*
X218435714Y-74200000D01*
X218483333Y-74104761D01*
X218578571Y-74057142D01*
X219102380Y-74057142D01*
X218102380Y-72628571D02*
X218102380Y-72533333D01*
X218150000Y-72438095D01*
X218197619Y-72390476D01*
X218292857Y-72342857D01*
X218483333Y-72295238D01*
X218721428Y-72295238D01*
X218911904Y-72342857D01*
X219007142Y-72390476D01*
X219054761Y-72438095D01*
X219102380Y-72533333D01*
X219102380Y-72628571D01*
X219054761Y-72723809D01*
X219007142Y-72771428D01*
X218911904Y-72819047D01*
X218721428Y-72866666D01*
X218483333Y-72866666D01*
X218292857Y-72819047D01*
X218197619Y-72771428D01*
X218150000Y-72723809D01*
X218102380Y-72628571D01*
%TO.C,Q1*%
X191572619Y-87395238D02*
X191525000Y-87490476D01*
X191429761Y-87585714D01*
X191286904Y-87728571D01*
X191239285Y-87823809D01*
X191239285Y-87919047D01*
X191477380Y-87871428D02*
X191429761Y-87966666D01*
X191334523Y-88061904D01*
X191144047Y-88109523D01*
X190810714Y-88109523D01*
X190620238Y-88061904D01*
X190525000Y-87966666D01*
X190477380Y-87871428D01*
X190477380Y-87680952D01*
X190525000Y-87585714D01*
X190620238Y-87490476D01*
X190810714Y-87442857D01*
X191144047Y-87442857D01*
X191334523Y-87490476D01*
X191429761Y-87585714D01*
X191477380Y-87680952D01*
X191477380Y-87871428D01*
X191477380Y-86490476D02*
X191477380Y-87061904D01*
X191477380Y-86776190D02*
X190477380Y-86776190D01*
X190620238Y-86871428D01*
X190715476Y-86966666D01*
X190763095Y-87061904D01*
%TO.C,U7*%
X212727380Y-84961904D02*
X213536904Y-84961904D01*
X213632142Y-84914285D01*
X213679761Y-84866666D01*
X213727380Y-84771428D01*
X213727380Y-84580952D01*
X213679761Y-84485714D01*
X213632142Y-84438095D01*
X213536904Y-84390476D01*
X212727380Y-84390476D01*
X212727380Y-84009523D02*
X212727380Y-83342857D01*
X213727380Y-83771428D01*
X217897619Y-83025000D02*
X217659523Y-83025000D01*
X217754761Y-82786904D02*
X217659523Y-83025000D01*
X217754761Y-83263095D01*
X217469047Y-82882142D02*
X217659523Y-83025000D01*
X217469047Y-83167857D01*
%TO.C,U2*%
X208988095Y-97177380D02*
X208988095Y-97986904D01*
X209035714Y-98082142D01*
X209083333Y-98129761D01*
X209178571Y-98177380D01*
X209369047Y-98177380D01*
X209464285Y-98129761D01*
X209511904Y-98082142D01*
X209559523Y-97986904D01*
X209559523Y-97177380D01*
X209988095Y-97272619D02*
X210035714Y-97225000D01*
X210130952Y-97177380D01*
X210369047Y-97177380D01*
X210464285Y-97225000D01*
X210511904Y-97272619D01*
X210559523Y-97367857D01*
X210559523Y-97463095D01*
X210511904Y-97605952D01*
X209940476Y-98177380D01*
X210559523Y-98177380D01*
X202025000Y-90877380D02*
X202025000Y-91115476D01*
X201786904Y-91020238D02*
X202025000Y-91115476D01*
X202263095Y-91020238D01*
X201882142Y-91305952D02*
X202025000Y-91115476D01*
X202167857Y-91305952D01*
%TO.C,R1*%
X193358333Y-92002380D02*
X193025000Y-91526190D01*
X192786904Y-92002380D02*
X192786904Y-91002380D01*
X193167857Y-91002380D01*
X193263095Y-91050000D01*
X193310714Y-91097619D01*
X193358333Y-91192857D01*
X193358333Y-91335714D01*
X193310714Y-91430952D01*
X193263095Y-91478571D01*
X193167857Y-91526190D01*
X192786904Y-91526190D01*
X194310714Y-92002380D02*
X193739285Y-92002380D01*
X194025000Y-92002380D02*
X194025000Y-91002380D01*
X193929761Y-91145238D01*
X193834523Y-91240476D01*
X193739285Y-91288095D01*
%TO.C,C1*%
X204708333Y-88207142D02*
X204660714Y-88254761D01*
X204517857Y-88302380D01*
X204422619Y-88302380D01*
X204279761Y-88254761D01*
X204184523Y-88159523D01*
X204136904Y-88064285D01*
X204089285Y-87873809D01*
X204089285Y-87730952D01*
X204136904Y-87540476D01*
X204184523Y-87445238D01*
X204279761Y-87350000D01*
X204422619Y-87302380D01*
X204517857Y-87302380D01*
X204660714Y-87350000D01*
X204708333Y-87397619D01*
X205660714Y-88302380D02*
X205089285Y-88302380D01*
X205375000Y-88302380D02*
X205375000Y-87302380D01*
X205279761Y-87445238D01*
X205184523Y-87540476D01*
X205089285Y-87588095D01*
%TO.C,U6*%
X213102380Y-77336904D02*
X213911904Y-77336904D01*
X214007142Y-77289285D01*
X214054761Y-77241666D01*
X214102380Y-77146428D01*
X214102380Y-76955952D01*
X214054761Y-76860714D01*
X214007142Y-76813095D01*
X213911904Y-76765476D01*
X213102380Y-76765476D01*
X213102380Y-75860714D02*
X213102380Y-76051190D01*
X213150000Y-76146428D01*
X213197619Y-76194047D01*
X213340476Y-76289285D01*
X213530952Y-76336904D01*
X213911904Y-76336904D01*
X214007142Y-76289285D01*
X214054761Y-76241666D01*
X214102380Y-76146428D01*
X214102380Y-75955952D01*
X214054761Y-75860714D01*
X214007142Y-75813095D01*
X213911904Y-75765476D01*
X213673809Y-75765476D01*
X213578571Y-75813095D01*
X213530952Y-75860714D01*
X213483333Y-75955952D01*
X213483333Y-76146428D01*
X213530952Y-76241666D01*
X213578571Y-76289285D01*
X213673809Y-76336904D01*
X218022619Y-75250000D02*
X217784523Y-75250000D01*
X217879761Y-75011904D02*
X217784523Y-75250000D01*
X217879761Y-75488095D01*
X217594047Y-75107142D02*
X217784523Y-75250000D01*
X217594047Y-75392857D01*
%TO.C,R5*%
X202827380Y-84516666D02*
X202351190Y-84850000D01*
X202827380Y-85088095D02*
X201827380Y-85088095D01*
X201827380Y-84707142D01*
X201875000Y-84611904D01*
X201922619Y-84564285D01*
X202017857Y-84516666D01*
X202160714Y-84516666D01*
X202255952Y-84564285D01*
X202303571Y-84611904D01*
X202351190Y-84707142D01*
X202351190Y-85088095D01*
X201827380Y-83611904D02*
X201827380Y-84088095D01*
X202303571Y-84135714D01*
X202255952Y-84088095D01*
X202208333Y-83992857D01*
X202208333Y-83754761D01*
X202255952Y-83659523D01*
X202303571Y-83611904D01*
X202398809Y-83564285D01*
X202636904Y-83564285D01*
X202732142Y-83611904D01*
X202779761Y-83659523D01*
X202827380Y-83754761D01*
X202827380Y-83992857D01*
X202779761Y-84088095D01*
X202732142Y-84135714D01*
%TO.C,J5*%
X228572380Y-83633333D02*
X229286666Y-83633333D01*
X229429523Y-83680952D01*
X229524761Y-83776190D01*
X229572380Y-83919047D01*
X229572380Y-84014285D01*
X228572380Y-82680952D02*
X228572380Y-83157142D01*
X229048571Y-83204761D01*
X229000952Y-83157142D01*
X228953333Y-83061904D01*
X228953333Y-82823809D01*
X229000952Y-82728571D01*
X229048571Y-82680952D01*
X229143809Y-82633333D01*
X229381904Y-82633333D01*
X229477142Y-82680952D01*
X229524761Y-82728571D01*
X229572380Y-82823809D01*
X229572380Y-83061904D01*
X229524761Y-83157142D01*
X229477142Y-83204761D01*
X220832380Y-85680952D02*
X220832380Y-86252380D01*
X220832380Y-85966666D02*
X219832380Y-85966666D01*
X219975238Y-86061904D01*
X220070476Y-86157142D01*
X220118095Y-86252380D01*
X219832380Y-85061904D02*
X219832380Y-84966666D01*
X219880000Y-84871428D01*
X219927619Y-84823809D01*
X220022857Y-84776190D01*
X220213333Y-84728571D01*
X220451428Y-84728571D01*
X220641904Y-84776190D01*
X220737142Y-84823809D01*
X220784761Y-84871428D01*
X220832380Y-84966666D01*
X220832380Y-85061904D01*
X220784761Y-85157142D01*
X220737142Y-85204761D01*
X220641904Y-85252380D01*
X220451428Y-85300000D01*
X220213333Y-85300000D01*
X220022857Y-85252380D01*
X219927619Y-85204761D01*
X219880000Y-85157142D01*
X219832380Y-85061904D01*
X220832380Y-84300000D02*
X219832380Y-84300000D01*
X220451428Y-84204761D02*
X220832380Y-83919047D01*
X220165714Y-83919047D02*
X220546666Y-84300000D01*
X220832380Y-82728571D02*
X219832380Y-82728571D01*
X220832380Y-82157142D01*
X219832380Y-82157142D01*
X219832380Y-81823809D02*
X219832380Y-81252380D01*
X220832380Y-81538095D02*
X219832380Y-81538095D01*
X220737142Y-80347619D02*
X220784761Y-80395238D01*
X220832380Y-80538095D01*
X220832380Y-80633333D01*
X220784761Y-80776190D01*
X220689523Y-80871428D01*
X220594285Y-80919047D01*
X220403809Y-80966666D01*
X220260952Y-80966666D01*
X220070476Y-80919047D01*
X219975238Y-80871428D01*
X219880000Y-80776190D01*
X219832380Y-80633333D01*
X219832380Y-80538095D01*
X219880000Y-80395238D01*
X219927619Y-80347619D01*
X218327380Y-86075000D02*
X218327380Y-85503571D01*
X219327380Y-85789285D02*
X218327380Y-85789285D01*
X219327380Y-85170238D02*
X218327380Y-85170238D01*
X219327380Y-84741666D02*
X218803571Y-84741666D01*
X218708333Y-84789285D01*
X218660714Y-84884523D01*
X218660714Y-85027380D01*
X218708333Y-85122619D01*
X218755952Y-85170238D01*
X219279761Y-83884523D02*
X219327380Y-83979761D01*
X219327380Y-84170238D01*
X219279761Y-84265476D01*
X219184523Y-84313095D01*
X218803571Y-84313095D01*
X218708333Y-84265476D01*
X218660714Y-84170238D01*
X218660714Y-83979761D01*
X218708333Y-83884523D01*
X218803571Y-83836904D01*
X218898809Y-83836904D01*
X218994047Y-84313095D01*
X219327380Y-83408333D02*
X218660714Y-83408333D01*
X218851190Y-83408333D02*
X218755952Y-83360714D01*
X218708333Y-83313095D01*
X218660714Y-83217857D01*
X218660714Y-83122619D01*
X219327380Y-82789285D02*
X218660714Y-82789285D01*
X218755952Y-82789285D02*
X218708333Y-82741666D01*
X218660714Y-82646428D01*
X218660714Y-82503571D01*
X218708333Y-82408333D01*
X218803571Y-82360714D01*
X219327380Y-82360714D01*
X218803571Y-82360714D02*
X218708333Y-82313095D01*
X218660714Y-82217857D01*
X218660714Y-82075000D01*
X218708333Y-81979761D01*
X218803571Y-81932142D01*
X219327380Y-81932142D01*
X219327380Y-80170238D02*
X219327380Y-80741666D01*
X219327380Y-80455952D02*
X218327380Y-80455952D01*
X218470238Y-80551190D01*
X218565476Y-80646428D01*
X218613095Y-80741666D01*
%TO.C,D1*%
X208802380Y-84863095D02*
X207802380Y-84863095D01*
X207802380Y-84625000D01*
X207850000Y-84482142D01*
X207945238Y-84386904D01*
X208040476Y-84339285D01*
X208230952Y-84291666D01*
X208373809Y-84291666D01*
X208564285Y-84339285D01*
X208659523Y-84386904D01*
X208754761Y-84482142D01*
X208802380Y-84625000D01*
X208802380Y-84863095D01*
X208802380Y-83339285D02*
X208802380Y-83910714D01*
X208802380Y-83625000D02*
X207802380Y-83625000D01*
X207945238Y-83720238D01*
X208040476Y-83815476D01*
X208088095Y-83910714D01*
%TO.C,R19*%
X214957142Y-72577380D02*
X214623809Y-72101190D01*
X214385714Y-72577380D02*
X214385714Y-71577380D01*
X214766666Y-71577380D01*
X214861904Y-71625000D01*
X214909523Y-71672619D01*
X214957142Y-71767857D01*
X214957142Y-71910714D01*
X214909523Y-72005952D01*
X214861904Y-72053571D01*
X214766666Y-72101190D01*
X214385714Y-72101190D01*
X215909523Y-72577380D02*
X215338095Y-72577380D01*
X215623809Y-72577380D02*
X215623809Y-71577380D01*
X215528571Y-71720238D01*
X215433333Y-71815476D01*
X215338095Y-71863095D01*
X216385714Y-72577380D02*
X216576190Y-72577380D01*
X216671428Y-72529761D01*
X216719047Y-72482142D01*
X216814285Y-72339285D01*
X216861904Y-72148809D01*
X216861904Y-71767857D01*
X216814285Y-71672619D01*
X216766666Y-71625000D01*
X216671428Y-71577380D01*
X216480952Y-71577380D01*
X216385714Y-71625000D01*
X216338095Y-71672619D01*
X216290476Y-71767857D01*
X216290476Y-72005952D01*
X216338095Y-72101190D01*
X216385714Y-72148809D01*
X216480952Y-72196428D01*
X216671428Y-72196428D01*
X216766666Y-72148809D01*
X216814285Y-72101190D01*
X216861904Y-72005952D01*
%TO.C,J3*%
X228522380Y-66873333D02*
X229236666Y-66873333D01*
X229379523Y-66920952D01*
X229474761Y-67016190D01*
X229522380Y-67159047D01*
X229522380Y-67254285D01*
X228522380Y-66492380D02*
X228522380Y-65873333D01*
X228903333Y-66206666D01*
X228903333Y-66063809D01*
X228950952Y-65968571D01*
X228998571Y-65920952D01*
X229093809Y-65873333D01*
X229331904Y-65873333D01*
X229427142Y-65920952D01*
X229474761Y-65968571D01*
X229522380Y-66063809D01*
X229522380Y-66349523D01*
X229474761Y-66444761D01*
X229427142Y-66492380D01*
%TO.C,R20*%
X214832142Y-80502380D02*
X214498809Y-80026190D01*
X214260714Y-80502380D02*
X214260714Y-79502380D01*
X214641666Y-79502380D01*
X214736904Y-79550000D01*
X214784523Y-79597619D01*
X214832142Y-79692857D01*
X214832142Y-79835714D01*
X214784523Y-79930952D01*
X214736904Y-79978571D01*
X214641666Y-80026190D01*
X214260714Y-80026190D01*
X215213095Y-79597619D02*
X215260714Y-79550000D01*
X215355952Y-79502380D01*
X215594047Y-79502380D01*
X215689285Y-79550000D01*
X215736904Y-79597619D01*
X215784523Y-79692857D01*
X215784523Y-79788095D01*
X215736904Y-79930952D01*
X215165476Y-80502380D01*
X215784523Y-80502380D01*
X216403571Y-79502380D02*
X216498809Y-79502380D01*
X216594047Y-79550000D01*
X216641666Y-79597619D01*
X216689285Y-79692857D01*
X216736904Y-79883333D01*
X216736904Y-80121428D01*
X216689285Y-80311904D01*
X216641666Y-80407142D01*
X216594047Y-80454761D01*
X216498809Y-80502380D01*
X216403571Y-80502380D01*
X216308333Y-80454761D01*
X216260714Y-80407142D01*
X216213095Y-80311904D01*
X216165476Y-80121428D01*
X216165476Y-79883333D01*
X216213095Y-79692857D01*
X216260714Y-79597619D01*
X216308333Y-79550000D01*
X216403571Y-79502380D01*
%TO.C,Q2*%
X182647619Y-87682738D02*
X182600000Y-87777976D01*
X182504761Y-87873214D01*
X182361904Y-88016071D01*
X182314285Y-88111309D01*
X182314285Y-88206547D01*
X182552380Y-88158928D02*
X182504761Y-88254166D01*
X182409523Y-88349404D01*
X182219047Y-88397023D01*
X181885714Y-88397023D01*
X181695238Y-88349404D01*
X181600000Y-88254166D01*
X181552380Y-88158928D01*
X181552380Y-87968452D01*
X181600000Y-87873214D01*
X181695238Y-87777976D01*
X181885714Y-87730357D01*
X182219047Y-87730357D01*
X182409523Y-87777976D01*
X182504761Y-87873214D01*
X182552380Y-87968452D01*
X182552380Y-88158928D01*
X181647619Y-87349404D02*
X181600000Y-87301785D01*
X181552380Y-87206547D01*
X181552380Y-86968452D01*
X181600000Y-86873214D01*
X181647619Y-86825595D01*
X181742857Y-86777976D01*
X181838095Y-86777976D01*
X181980952Y-86825595D01*
X182552380Y-87397023D01*
X182552380Y-86777976D01*
%TO.C,R2*%
X199033333Y-96177380D02*
X198700000Y-95701190D01*
X198461904Y-96177380D02*
X198461904Y-95177380D01*
X198842857Y-95177380D01*
X198938095Y-95225000D01*
X198985714Y-95272619D01*
X199033333Y-95367857D01*
X199033333Y-95510714D01*
X198985714Y-95605952D01*
X198938095Y-95653571D01*
X198842857Y-95701190D01*
X198461904Y-95701190D01*
X199414285Y-95272619D02*
X199461904Y-95225000D01*
X199557142Y-95177380D01*
X199795238Y-95177380D01*
X199890476Y-95225000D01*
X199938095Y-95272619D01*
X199985714Y-95367857D01*
X199985714Y-95463095D01*
X199938095Y-95605952D01*
X199366666Y-96177380D01*
X199985714Y-96177380D01*
D13*
%TO.C,U4*%
X191610000Y-79157500D02*
X191610000Y-78507500D01*
X194730000Y-79157500D02*
X194730000Y-78507500D01*
X191610000Y-79157500D02*
X191610000Y-80832500D01*
X194730000Y-79157500D02*
X194730000Y-79807500D01*
%TO.C,U3*%
X186930000Y-74790000D02*
X186930000Y-76120000D01*
X184270000Y-73520000D02*
X184270000Y-65840000D01*
X186930000Y-76120000D02*
X185600000Y-76120000D01*
X186930000Y-65840000D02*
X184270000Y-65840000D01*
X186930000Y-73520000D02*
X184270000Y-73520000D01*
X186930000Y-73520000D02*
X186930000Y-65840000D01*
D14*
%TO.C,J1*%
X226774000Y-91546000D02*
X226266000Y-91546000D01*
X219154000Y-91546000D02*
X219154000Y-92054000D01*
X224234000Y-91546000D02*
X223726000Y-91546000D01*
X221694000Y-91546000D02*
X221186000Y-91546000D01*
X216106000Y-91546000D02*
X216106000Y-92054000D01*
X216614000Y-91546000D02*
X216106000Y-91546000D01*
X221694000Y-92054000D02*
X221186000Y-92054000D01*
X213566000Y-91546000D02*
X213566000Y-92054000D01*
X224234000Y-92054000D02*
X223726000Y-92054000D01*
X223726000Y-91546000D02*
X223726000Y-92054000D01*
X214074000Y-91546000D02*
X213566000Y-91546000D01*
X226266000Y-91546000D02*
X226266000Y-92054000D01*
X214074000Y-91546000D02*
X214074000Y-92054000D01*
X224234000Y-91546000D02*
X224234000Y-92054000D01*
X226774000Y-91546000D02*
X226774000Y-92054000D01*
X216614000Y-91546000D02*
X216614000Y-92054000D01*
X221186000Y-91546000D02*
X221186000Y-92054000D01*
X214074000Y-92054000D02*
X213566000Y-92054000D01*
X226774000Y-92054000D02*
X226266000Y-92054000D01*
X216614000Y-92054000D02*
X216106000Y-92054000D01*
X221694000Y-91546000D02*
X221694000Y-92054000D01*
D13*
X227815400Y-93146200D02*
X212550000Y-93146200D01*
X212550000Y-93146200D02*
X212550000Y-90453800D01*
X212550000Y-90453800D02*
X227815400Y-90453800D01*
X227815400Y-90453800D02*
X227815400Y-93146200D01*
%TO.C,F1*%
X218281252Y-62330000D02*
X215508748Y-62330000D01*
X218281252Y-65750000D02*
X215508748Y-65750000D01*
%TO.C,C7*%
X196936248Y-77485000D02*
X197458752Y-77485000D01*
X196936248Y-78955000D02*
X197458752Y-78955000D01*
%TO.C,C6*%
X194795000Y-83628748D02*
X194795000Y-84151252D01*
X193325000Y-83628748D02*
X193325000Y-84151252D01*
%TO.C,C5*%
X183467500Y-77545000D02*
X179382500Y-77545000D01*
X179382500Y-79415000D02*
X183467500Y-79415000D01*
X183467500Y-79415000D02*
X183467500Y-77545000D01*
%TO.C,C4*%
X185961248Y-77745000D02*
X186483752Y-77745000D01*
X185961248Y-79215000D02*
X186483752Y-79215000D01*
%TO.C,C3*%
X213758752Y-69850000D02*
X212336248Y-69850000D01*
X213758752Y-67130000D02*
X212336248Y-67130000D01*
%TO.C,J2*%
X181420000Y-83430000D02*
X189100000Y-83430000D01*
X181420000Y-83430000D02*
X181420000Y-80770000D01*
X178820000Y-83430000D02*
X178820000Y-82100000D01*
X181420000Y-80770000D02*
X189100000Y-80770000D01*
X189100000Y-83430000D02*
X189100000Y-80770000D01*
X180150000Y-83430000D02*
X178820000Y-83430000D01*
%TO.C,U1*%
X196015000Y-87325000D02*
X196015000Y-85375000D01*
X201135000Y-87325000D02*
X201135000Y-85375000D01*
X196015000Y-87325000D02*
X196015000Y-90775000D01*
X201135000Y-87325000D02*
X201135000Y-89275000D01*
%TO.C,J4*%
X228120000Y-72455000D02*
X221380000Y-72455000D01*
X221780000Y-72215000D02*
X221140000Y-72215000D01*
X227000000Y-72455000D02*
X227000000Y-78235000D01*
X228120000Y-78235000D02*
X221380000Y-78235000D01*
X221140000Y-72215000D02*
X221140000Y-72615000D01*
X228120000Y-72455000D02*
X228120000Y-78235000D01*
X221380000Y-72455000D02*
X221380000Y-78235000D01*
X221900000Y-72455000D02*
X221900000Y-78235000D01*
%TO.C,Q1*%
X189910000Y-87537500D02*
X189910000Y-88187500D01*
X189910000Y-87537500D02*
X189910000Y-86887500D01*
X186790000Y-87537500D02*
X186790000Y-89212500D01*
X186790000Y-87537500D02*
X186790000Y-86887500D01*
%TO.C,U7*%
X214590000Y-83925000D02*
X214590000Y-85325000D01*
X216910000Y-85325000D02*
X216910000Y-83425000D01*
%TO.C,U2*%
X206100000Y-91315000D02*
X208300000Y-91315000D01*
X206100000Y-96535000D02*
X208300000Y-96535000D01*
X206100000Y-91315000D02*
X202500000Y-91315000D01*
X206100000Y-96535000D02*
X203900000Y-96535000D01*
%TO.C,R1*%
X194097936Y-92515000D02*
X194552064Y-92515000D01*
X194097936Y-93985000D02*
X194552064Y-93985000D01*
%TO.C,C1*%
X204523752Y-89040000D02*
X204001248Y-89040000D01*
X204523752Y-90510000D02*
X204001248Y-90510000D01*
%TO.C,U6*%
X217110000Y-77250000D02*
X217110000Y-75350000D01*
X214790000Y-75850000D02*
X214790000Y-77250000D01*
%TO.C,R5*%
X204760000Y-84577064D02*
X204760000Y-84122936D01*
X203290000Y-84577064D02*
X203290000Y-84122936D01*
%TO.C,J5*%
X221780000Y-80170000D02*
X221140000Y-80170000D01*
X228120000Y-80410000D02*
X221380000Y-80410000D01*
X228120000Y-80410000D02*
X228120000Y-86190000D01*
X228120000Y-86190000D02*
X221380000Y-86190000D01*
X227000000Y-80410000D02*
X227000000Y-86190000D01*
X221900000Y-80410000D02*
X221900000Y-86190000D01*
X221380000Y-80410000D02*
X221380000Y-86190000D01*
X221140000Y-80170000D02*
X221140000Y-80570000D01*
%TO.C,D1*%
X205490000Y-83325000D02*
X205490000Y-86185000D01*
X205490000Y-86185000D02*
X207410000Y-86185000D01*
X207410000Y-86185000D02*
X207410000Y-83325000D01*
%TO.C,R19*%
X215372936Y-73040000D02*
X215827064Y-73040000D01*
X215372936Y-74510000D02*
X215827064Y-74510000D01*
%TO.C,J3*%
X221090000Y-62140000D02*
X221090000Y-62540000D01*
X221330000Y-62380000D02*
X221330000Y-70700000D01*
X228070000Y-62380000D02*
X221330000Y-62380000D01*
X226950000Y-62380000D02*
X226950000Y-70700000D01*
X221730000Y-62140000D02*
X221090000Y-62140000D01*
X228070000Y-62380000D02*
X228070000Y-70700000D01*
X228070000Y-70700000D02*
X221330000Y-70700000D01*
X221850000Y-62380000D02*
X221850000Y-70700000D01*
%TO.C,R20*%
X215247936Y-80965000D02*
X215702064Y-80965000D01*
X215247936Y-82435000D02*
X215702064Y-82435000D01*
%TO.C,Q2*%
X186060000Y-87587500D02*
X186060000Y-88237500D01*
X182940000Y-87587500D02*
X182940000Y-89262500D01*
X186060000Y-87587500D02*
X186060000Y-86937500D01*
X182940000Y-87587500D02*
X182940000Y-86937500D01*
%TO.C,R2*%
X199447936Y-93040000D02*
X199902064Y-93040000D01*
X199447936Y-94510000D02*
X199902064Y-94510000D01*
%TO.C,REF\u002A\u002A*%
G36*
X183695807Y-99386782D02*
G01*
X183719161Y-99396988D01*
X183774902Y-99441134D01*
X183822569Y-99504967D01*
X183852048Y-99573087D01*
X183856846Y-99606670D01*
X183840760Y-99653556D01*
X183805475Y-99678365D01*
X183767644Y-99693387D01*
X183750321Y-99696155D01*
X183741886Y-99676066D01*
X183725230Y-99632351D01*
X183717923Y-99612598D01*
X183676948Y-99544271D01*
X183617622Y-99510191D01*
X183541552Y-99511239D01*
X183535918Y-99512581D01*
X183495305Y-99531836D01*
X183465448Y-99569375D01*
X183445055Y-99629809D01*
X183432836Y-99717751D01*
X183427500Y-99837813D01*
X183427000Y-99901698D01*
X183426752Y-100002403D01*
X183425126Y-100071054D01*
X183420801Y-100114673D01*
X183412454Y-100140282D01*
X183398765Y-100154903D01*
X183378411Y-100165558D01*
X183377234Y-100166095D01*
X183338038Y-100182667D01*
X183318619Y-100188769D01*
X183315635Y-100170319D01*
X183313081Y-100119323D01*
X183311140Y-100042308D01*
X183309997Y-99945805D01*
X183309769Y-99875184D01*
X183310932Y-99738525D01*
X183315479Y-99634851D01*
X183324999Y-99558108D01*
X183341081Y-99502246D01*
X183365313Y-99461212D01*
X183399286Y-99428954D01*
X183432833Y-99406440D01*
X183513499Y-99376476D01*
X183607381Y-99369718D01*
X183695807Y-99386782D01*
G37*
D15*
X183695807Y-99386782D02*
X183719161Y-99396988D01*
X183774902Y-99441134D01*
X183822569Y-99504967D01*
X183852048Y-99573087D01*
X183856846Y-99606670D01*
X183840760Y-99653556D01*
X183805475Y-99678365D01*
X183767644Y-99693387D01*
X183750321Y-99696155D01*
X183741886Y-99676066D01*
X183725230Y-99632351D01*
X183717923Y-99612598D01*
X183676948Y-99544271D01*
X183617622Y-99510191D01*
X183541552Y-99511239D01*
X183535918Y-99512581D01*
X183495305Y-99531836D01*
X183465448Y-99569375D01*
X183445055Y-99629809D01*
X183432836Y-99717751D01*
X183427500Y-99837813D01*
X183427000Y-99901698D01*
X183426752Y-100002403D01*
X183425126Y-100071054D01*
X183420801Y-100114673D01*
X183412454Y-100140282D01*
X183398765Y-100154903D01*
X183378411Y-100165558D01*
X183377234Y-100166095D01*
X183338038Y-100182667D01*
X183318619Y-100188769D01*
X183315635Y-100170319D01*
X183313081Y-100119323D01*
X183311140Y-100042308D01*
X183309997Y-99945805D01*
X183309769Y-99875184D01*
X183310932Y-99738525D01*
X183315479Y-99634851D01*
X183324999Y-99558108D01*
X183341081Y-99502246D01*
X183365313Y-99461212D01*
X183399286Y-99428954D01*
X183432833Y-99406440D01*
X183513499Y-99376476D01*
X183607381Y-99369718D01*
X183695807Y-99386782D01*
G36*
X178396664Y-99345089D02*
G01*
X178459367Y-99381358D01*
X178502961Y-99417358D01*
X178534845Y-99455075D01*
X178556810Y-99501199D01*
X178570649Y-99562421D01*
X178578153Y-99645431D01*
X178581117Y-99756919D01*
X178581461Y-99837062D01*
X178581461Y-100132065D01*
X178415385Y-100206515D01*
X178405615Y-99883402D01*
X178401579Y-99762729D01*
X178397344Y-99675141D01*
X178392097Y-99614650D01*
X178385025Y-99575268D01*
X178375311Y-99551007D01*
X178362144Y-99535880D01*
X178357919Y-99532606D01*
X178293909Y-99507034D01*
X178229208Y-99517153D01*
X178190692Y-99544000D01*
X178175025Y-99563024D01*
X178164180Y-99587988D01*
X178157288Y-99625834D01*
X178153479Y-99683502D01*
X178151883Y-99767935D01*
X178151615Y-99855928D01*
X178151563Y-99966323D01*
X178149672Y-100044463D01*
X178143345Y-100097165D01*
X178129983Y-100131242D01*
X178106985Y-100153511D01*
X178071754Y-100170787D01*
X178024697Y-100188738D01*
X177973303Y-100208278D01*
X177979421Y-99861485D01*
X177981884Y-99736468D01*
X177984767Y-99644082D01*
X177988898Y-99577881D01*
X177995107Y-99531420D01*
X178004226Y-99498256D01*
X178017083Y-99471944D01*
X178032584Y-99448729D01*
X178107371Y-99374569D01*
X178198628Y-99331684D01*
X178297883Y-99321412D01*
X178396664Y-99345089D01*
G37*
X178396664Y-99345089D02*
X178459367Y-99381358D01*
X178502961Y-99417358D01*
X178534845Y-99455075D01*
X178556810Y-99501199D01*
X178570649Y-99562421D01*
X178578153Y-99645431D01*
X178581117Y-99756919D01*
X178581461Y-99837062D01*
X178581461Y-100132065D01*
X178415385Y-100206515D01*
X178405615Y-99883402D01*
X178401579Y-99762729D01*
X178397344Y-99675141D01*
X178392097Y-99614650D01*
X178385025Y-99575268D01*
X178375311Y-99551007D01*
X178362144Y-99535880D01*
X178357919Y-99532606D01*
X178293909Y-99507034D01*
X178229208Y-99517153D01*
X178190692Y-99544000D01*
X178175025Y-99563024D01*
X178164180Y-99587988D01*
X178157288Y-99625834D01*
X178153479Y-99683502D01*
X178151883Y-99767935D01*
X178151615Y-99855928D01*
X178151563Y-99966323D01*
X178149672Y-100044463D01*
X178143345Y-100097165D01*
X178129983Y-100131242D01*
X178106985Y-100153511D01*
X178071754Y-100170787D01*
X178024697Y-100188738D01*
X177973303Y-100208278D01*
X177979421Y-99861485D01*
X177981884Y-99736468D01*
X177984767Y-99644082D01*
X177988898Y-99577881D01*
X177995107Y-99531420D01*
X178004226Y-99498256D01*
X178017083Y-99471944D01*
X178032584Y-99448729D01*
X178107371Y-99374569D01*
X178198628Y-99331684D01*
X178297883Y-99321412D01*
X178396664Y-99345089D01*
G36*
X181181362Y-99563577D02*
G01*
X181211528Y-99494269D01*
X181258629Y-99440211D01*
X181295312Y-99412505D01*
X181361990Y-99382572D01*
X181439272Y-99368678D01*
X181511110Y-99372397D01*
X181551308Y-99387400D01*
X181567082Y-99391670D01*
X181577550Y-99375750D01*
X181584856Y-99333089D01*
X181590385Y-99268106D01*
X181596437Y-99195732D01*
X181604844Y-99152187D01*
X181620141Y-99127287D01*
X181646864Y-99110845D01*
X181663654Y-99103564D01*
X181727154Y-99076963D01*
X181727081Y-99530289D01*
X181726833Y-99676320D01*
X181725872Y-99788655D01*
X181723794Y-99872678D01*
X181720193Y-99933769D01*
X181714665Y-99977309D01*
X181706804Y-100008679D01*
X181696207Y-100033262D01*
X181688182Y-100047294D01*
X181621728Y-100123388D01*
X181537470Y-100171084D01*
X181444249Y-100188199D01*
X181350900Y-100172546D01*
X181295312Y-100144418D01*
X181236957Y-100095760D01*
X181197186Y-100036333D01*
X181173190Y-99958507D01*
X181162161Y-99854652D01*
X181160599Y-99778462D01*
X181160809Y-99772986D01*
X181297308Y-99772986D01*
X181298141Y-99860355D01*
X181301961Y-99918192D01*
X181310746Y-99956029D01*
X181326474Y-99983398D01*
X181345266Y-100004042D01*
X181408375Y-100043890D01*
X181476137Y-100047295D01*
X181540179Y-100014025D01*
X181545164Y-100009517D01*
X181566439Y-99986067D01*
X181579779Y-99958166D01*
X181587001Y-99916641D01*
X181589923Y-99852316D01*
X181590385Y-99781200D01*
X181589383Y-99691858D01*
X181585238Y-99632258D01*
X181576236Y-99593089D01*
X181560667Y-99565040D01*
X181547902Y-99550144D01*
X181488600Y-99512575D01*
X181420301Y-99508057D01*
X181355110Y-99536753D01*
X181342528Y-99547406D01*
X181321111Y-99571063D01*
X181307744Y-99599251D01*
X181300566Y-99641245D01*
X181297719Y-99706319D01*
X181297308Y-99772986D01*
X181160809Y-99772986D01*
X181165322Y-99655765D01*
X181181362Y-99563577D01*
G37*
X181181362Y-99563577D02*
X181211528Y-99494269D01*
X181258629Y-99440211D01*
X181295312Y-99412505D01*
X181361990Y-99382572D01*
X181439272Y-99368678D01*
X181511110Y-99372397D01*
X181551308Y-99387400D01*
X181567082Y-99391670D01*
X181577550Y-99375750D01*
X181584856Y-99333089D01*
X181590385Y-99268106D01*
X181596437Y-99195732D01*
X181604844Y-99152187D01*
X181620141Y-99127287D01*
X181646864Y-99110845D01*
X181663654Y-99103564D01*
X181727154Y-99076963D01*
X181727081Y-99530289D01*
X181726833Y-99676320D01*
X181725872Y-99788655D01*
X181723794Y-99872678D01*
X181720193Y-99933769D01*
X181714665Y-99977309D01*
X181706804Y-100008679D01*
X181696207Y-100033262D01*
X181688182Y-100047294D01*
X181621728Y-100123388D01*
X181537470Y-100171084D01*
X181444249Y-100188199D01*
X181350900Y-100172546D01*
X181295312Y-100144418D01*
X181236957Y-100095760D01*
X181197186Y-100036333D01*
X181173190Y-99958507D01*
X181162161Y-99854652D01*
X181160599Y-99778462D01*
X181160809Y-99772986D01*
X181297308Y-99772986D01*
X181298141Y-99860355D01*
X181301961Y-99918192D01*
X181310746Y-99956029D01*
X181326474Y-99983398D01*
X181345266Y-100004042D01*
X181408375Y-100043890D01*
X181476137Y-100047295D01*
X181540179Y-100014025D01*
X181545164Y-100009517D01*
X181566439Y-99986067D01*
X181579779Y-99958166D01*
X181587001Y-99916641D01*
X181589923Y-99852316D01*
X181590385Y-99781200D01*
X181589383Y-99691858D01*
X181585238Y-99632258D01*
X181576236Y-99593089D01*
X181560667Y-99565040D01*
X181547902Y-99550144D01*
X181488600Y-99512575D01*
X181420301Y-99508057D01*
X181355110Y-99536753D01*
X181342528Y-99547406D01*
X181321111Y-99571063D01*
X181307744Y-99599251D01*
X181300566Y-99641245D01*
X181297719Y-99706319D01*
X181297308Y-99772986D01*
X181160809Y-99772986D01*
X181165322Y-99655765D01*
X181181362Y-99563577D01*
G36*
X183986032Y-99570710D02*
G01*
X184004460Y-99505167D01*
X184034360Y-99456912D01*
X184078080Y-99418767D01*
X184097141Y-99406440D01*
X184183726Y-99374336D01*
X184278522Y-99372316D01*
X184370224Y-99397838D01*
X184447528Y-99448361D01*
X184484814Y-99493590D01*
X184514353Y-99575663D01*
X184516699Y-99640607D01*
X184511385Y-99727445D01*
X184311115Y-99815103D01*
X184213739Y-99859887D01*
X184150113Y-99895913D01*
X184117029Y-99927117D01*
X184111280Y-99957436D01*
X184129658Y-99990805D01*
X184149923Y-100012923D01*
X184208889Y-100048393D01*
X184273024Y-100050879D01*
X184331926Y-100023235D01*
X184375197Y-99968320D01*
X184382936Y-99948928D01*
X184420006Y-99888364D01*
X184462654Y-99862552D01*
X184521154Y-99840471D01*
X184521154Y-99924184D01*
X184515982Y-99981150D01*
X184495723Y-100029189D01*
X184453262Y-100084346D01*
X184446951Y-100091514D01*
X184399720Y-100140585D01*
X184359121Y-100166920D01*
X184308328Y-100179035D01*
X184266220Y-100183003D01*
X184190902Y-100183991D01*
X184137286Y-100171466D01*
X184103838Y-100152869D01*
X184051268Y-100111975D01*
X184014879Y-100067748D01*
X183991850Y-100012126D01*
X183979359Y-99937047D01*
X183974587Y-99834449D01*
X183974206Y-99782376D01*
X183975501Y-99719948D01*
X184093471Y-99719948D01*
X184094839Y-99753438D01*
X184098249Y-99758923D01*
X184120753Y-99751472D01*
X184169182Y-99731753D01*
X184233908Y-99703718D01*
X184247443Y-99697692D01*
X184329244Y-99656096D01*
X184374312Y-99619538D01*
X184384217Y-99585296D01*
X184360526Y-99550648D01*
X184340960Y-99535339D01*
X184270360Y-99504721D01*
X184204280Y-99509780D01*
X184148959Y-99547151D01*
X184110636Y-99613473D01*
X184098349Y-99666116D01*
X184093471Y-99719948D01*
X183975501Y-99719948D01*
X183976730Y-99660720D01*
X183986032Y-99570710D01*
G37*
X183986032Y-99570710D02*
X184004460Y-99505167D01*
X184034360Y-99456912D01*
X184078080Y-99418767D01*
X184097141Y-99406440D01*
X184183726Y-99374336D01*
X184278522Y-99372316D01*
X184370224Y-99397838D01*
X184447528Y-99448361D01*
X184484814Y-99493590D01*
X184514353Y-99575663D01*
X184516699Y-99640607D01*
X184511385Y-99727445D01*
X184311115Y-99815103D01*
X184213739Y-99859887D01*
X184150113Y-99895913D01*
X184117029Y-99927117D01*
X184111280Y-99957436D01*
X184129658Y-99990805D01*
X184149923Y-100012923D01*
X184208889Y-100048393D01*
X184273024Y-100050879D01*
X184331926Y-100023235D01*
X184375197Y-99968320D01*
X184382936Y-99948928D01*
X184420006Y-99888364D01*
X184462654Y-99862552D01*
X184521154Y-99840471D01*
X184521154Y-99924184D01*
X184515982Y-99981150D01*
X184495723Y-100029189D01*
X184453262Y-100084346D01*
X184446951Y-100091514D01*
X184399720Y-100140585D01*
X184359121Y-100166920D01*
X184308328Y-100179035D01*
X184266220Y-100183003D01*
X184190902Y-100183991D01*
X184137286Y-100171466D01*
X184103838Y-100152869D01*
X184051268Y-100111975D01*
X184014879Y-100067748D01*
X183991850Y-100012126D01*
X183979359Y-99937047D01*
X183974587Y-99834449D01*
X183974206Y-99782376D01*
X183975501Y-99719948D01*
X184093471Y-99719948D01*
X184094839Y-99753438D01*
X184098249Y-99758923D01*
X184120753Y-99751472D01*
X184169182Y-99731753D01*
X184233908Y-99703718D01*
X184247443Y-99697692D01*
X184329244Y-99656096D01*
X184374312Y-99619538D01*
X184384217Y-99585296D01*
X184360526Y-99550648D01*
X184340960Y-99535339D01*
X184270360Y-99504721D01*
X184204280Y-99509780D01*
X184148959Y-99547151D01*
X184110636Y-99613473D01*
X184098349Y-99666116D01*
X184093471Y-99719948D01*
X183975501Y-99719948D01*
X183976730Y-99660720D01*
X183986032Y-99570710D01*
G36*
X177259778Y-99491055D02*
G01*
X177305421Y-99425215D01*
X177387802Y-99358681D01*
X177478546Y-99325676D01*
X177571185Y-99323573D01*
X177659254Y-99349745D01*
X177736286Y-99401567D01*
X177795816Y-99476412D01*
X177831378Y-99571654D01*
X177838571Y-99641756D01*
X177837754Y-99671009D01*
X177830914Y-99693407D01*
X177812112Y-99713474D01*
X177775408Y-99735733D01*
X177714862Y-99764709D01*
X177624534Y-99804927D01*
X177624077Y-99805129D01*
X177540933Y-99843210D01*
X177472753Y-99877025D01*
X177426505Y-99902933D01*
X177409158Y-99917295D01*
X177409154Y-99917411D01*
X177424443Y-99948685D01*
X177460196Y-99983157D01*
X177501242Y-100007990D01*
X177522037Y-100012923D01*
X177578770Y-99995862D01*
X177627627Y-99953133D01*
X177651465Y-99906155D01*
X177674397Y-99871522D01*
X177719318Y-99832081D01*
X177772123Y-99798009D01*
X177818710Y-99779480D01*
X177828452Y-99778462D01*
X177839418Y-99795215D01*
X177840079Y-99838039D01*
X177832020Y-99895781D01*
X177816827Y-99957289D01*
X177796086Y-100011409D01*
X177795038Y-100013510D01*
X177732621Y-100100660D01*
X177651726Y-100159939D01*
X177559856Y-100189034D01*
X177464513Y-100185634D01*
X177373198Y-100147428D01*
X177369138Y-100144741D01*
X177297306Y-100079642D01*
X177250073Y-99994705D01*
X177223934Y-99883021D01*
X177220426Y-99851643D01*
X177214213Y-99703536D01*
X177221661Y-99634468D01*
X177409154Y-99634468D01*
X177411590Y-99677552D01*
X177424914Y-99690126D01*
X177458132Y-99680719D01*
X177510494Y-99658483D01*
X177569024Y-99630610D01*
X177570479Y-99629872D01*
X177620089Y-99603777D01*
X177640000Y-99586363D01*
X177635090Y-99568107D01*
X177614416Y-99544120D01*
X177561819Y-99509406D01*
X177505177Y-99506856D01*
X177454369Y-99532119D01*
X177419276Y-99580847D01*
X177409154Y-99634468D01*
X177221661Y-99634468D01*
X177226992Y-99585036D01*
X177259778Y-99491055D01*
G37*
X177259778Y-99491055D02*
X177305421Y-99425215D01*
X177387802Y-99358681D01*
X177478546Y-99325676D01*
X177571185Y-99323573D01*
X177659254Y-99349745D01*
X177736286Y-99401567D01*
X177795816Y-99476412D01*
X177831378Y-99571654D01*
X177838571Y-99641756D01*
X177837754Y-99671009D01*
X177830914Y-99693407D01*
X177812112Y-99713474D01*
X177775408Y-99735733D01*
X177714862Y-99764709D01*
X177624534Y-99804927D01*
X177624077Y-99805129D01*
X177540933Y-99843210D01*
X177472753Y-99877025D01*
X177426505Y-99902933D01*
X177409158Y-99917295D01*
X177409154Y-99917411D01*
X177424443Y-99948685D01*
X177460196Y-99983157D01*
X177501242Y-100007990D01*
X177522037Y-100012923D01*
X177578770Y-99995862D01*
X177627627Y-99953133D01*
X177651465Y-99906155D01*
X177674397Y-99871522D01*
X177719318Y-99832081D01*
X177772123Y-99798009D01*
X177818710Y-99779480D01*
X177828452Y-99778462D01*
X177839418Y-99795215D01*
X177840079Y-99838039D01*
X177832020Y-99895781D01*
X177816827Y-99957289D01*
X177796086Y-100011409D01*
X177795038Y-100013510D01*
X177732621Y-100100660D01*
X177651726Y-100159939D01*
X177559856Y-100189034D01*
X177464513Y-100185634D01*
X177373198Y-100147428D01*
X177369138Y-100144741D01*
X177297306Y-100079642D01*
X177250073Y-99994705D01*
X177223934Y-99883021D01*
X177220426Y-99851643D01*
X177214213Y-99703536D01*
X177221661Y-99634468D01*
X177409154Y-99634468D01*
X177411590Y-99677552D01*
X177424914Y-99690126D01*
X177458132Y-99680719D01*
X177510494Y-99658483D01*
X177569024Y-99630610D01*
X177570479Y-99629872D01*
X177620089Y-99603777D01*
X177640000Y-99586363D01*
X177635090Y-99568107D01*
X177614416Y-99544120D01*
X177561819Y-99509406D01*
X177505177Y-99506856D01*
X177454369Y-99532119D01*
X177419276Y-99580847D01*
X177409154Y-99634468D01*
X177221661Y-99634468D01*
X177226992Y-99585036D01*
X177259778Y-99491055D01*
G36*
X179284846Y-99242120D02*
G01*
X179290572Y-99321980D01*
X179297149Y-99369039D01*
X179306262Y-99389566D01*
X179319598Y-99389829D01*
X179323923Y-99387378D01*
X179381444Y-99369636D01*
X179456268Y-99370672D01*
X179532339Y-99388910D01*
X179579918Y-99412505D01*
X179628702Y-99450198D01*
X179664364Y-99492855D01*
X179688845Y-99547057D01*
X179704087Y-99619384D01*
X179712030Y-99716419D01*
X179714616Y-99844742D01*
X179714662Y-99869358D01*
X179714692Y-100145870D01*
X179653161Y-100167320D01*
X179609459Y-100181912D01*
X179585482Y-100188706D01*
X179584777Y-100188769D01*
X179582415Y-100170345D01*
X179580406Y-100119526D01*
X179578901Y-100042993D01*
X179578053Y-99947430D01*
X179577923Y-99889329D01*
X179577651Y-99774771D01*
X179576252Y-99692667D01*
X179572849Y-99636393D01*
X179566567Y-99599326D01*
X179556529Y-99574844D01*
X179541861Y-99556325D01*
X179532702Y-99547406D01*
X179469789Y-99511466D01*
X179401136Y-99508775D01*
X179338848Y-99539170D01*
X179327329Y-99550144D01*
X179310433Y-99570779D01*
X179298714Y-99595256D01*
X179291233Y-99630647D01*
X179287054Y-99684026D01*
X179285237Y-99762466D01*
X179284846Y-99870617D01*
X179284846Y-100145870D01*
X179223315Y-100167320D01*
X179179613Y-100181912D01*
X179155636Y-100188706D01*
X179154930Y-100188769D01*
X179153126Y-100170069D01*
X179151500Y-100117322D01*
X179150117Y-100035557D01*
X179149042Y-99929805D01*
X179148340Y-99805094D01*
X179148077Y-99666455D01*
X179148077Y-99131806D01*
X179275077Y-99078236D01*
X179284846Y-99242120D01*
G37*
X179284846Y-99242120D02*
X179290572Y-99321980D01*
X179297149Y-99369039D01*
X179306262Y-99389566D01*
X179319598Y-99389829D01*
X179323923Y-99387378D01*
X179381444Y-99369636D01*
X179456268Y-99370672D01*
X179532339Y-99388910D01*
X179579918Y-99412505D01*
X179628702Y-99450198D01*
X179664364Y-99492855D01*
X179688845Y-99547057D01*
X179704087Y-99619384D01*
X179712030Y-99716419D01*
X179714616Y-99844742D01*
X179714662Y-99869358D01*
X179714692Y-100145870D01*
X179653161Y-100167320D01*
X179609459Y-100181912D01*
X179585482Y-100188706D01*
X179584777Y-100188769D01*
X179582415Y-100170345D01*
X179580406Y-100119526D01*
X179578901Y-100042993D01*
X179578053Y-99947430D01*
X179577923Y-99889329D01*
X179577651Y-99774771D01*
X179576252Y-99692667D01*
X179572849Y-99636393D01*
X179566567Y-99599326D01*
X179556529Y-99574844D01*
X179541861Y-99556325D01*
X179532702Y-99547406D01*
X179469789Y-99511466D01*
X179401136Y-99508775D01*
X179338848Y-99539170D01*
X179327329Y-99550144D01*
X179310433Y-99570779D01*
X179298714Y-99595256D01*
X179291233Y-99630647D01*
X179287054Y-99684026D01*
X179285237Y-99762466D01*
X179284846Y-99870617D01*
X179284846Y-100145870D01*
X179223315Y-100167320D01*
X179179613Y-100181912D01*
X179155636Y-100188706D01*
X179154930Y-100188769D01*
X179153126Y-100170069D01*
X179151500Y-100117322D01*
X179150117Y-100035557D01*
X179149042Y-99929805D01*
X179148340Y-99805094D01*
X179148077Y-99666455D01*
X179148077Y-99131806D01*
X179275077Y-99078236D01*
X179284846Y-99242120D01*
G36*
X180264878Y-93037776D02*
G01*
X180370612Y-93038355D01*
X180447132Y-93039922D01*
X180499372Y-93042972D01*
X180532263Y-93047996D01*
X180550737Y-93055489D01*
X180559727Y-93065944D01*
X180564163Y-93079853D01*
X180564594Y-93081654D01*
X180571333Y-93114145D01*
X180583808Y-93178252D01*
X180600719Y-93267151D01*
X180620771Y-93374019D01*
X180642664Y-93492033D01*
X180643429Y-93496178D01*
X180665359Y-93611831D01*
X180685877Y-93714014D01*
X180703659Y-93796598D01*
X180717381Y-93853456D01*
X180725718Y-93878458D01*
X180726116Y-93878901D01*
X180750677Y-93891110D01*
X180801315Y-93911456D01*
X180867095Y-93935545D01*
X180867461Y-93935674D01*
X180950317Y-93966818D01*
X181048000Y-94006491D01*
X181140077Y-94046381D01*
X181144434Y-94048353D01*
X181294407Y-94116420D01*
X181626498Y-93889639D01*
X181728374Y-93820504D01*
X181820657Y-93758697D01*
X181898003Y-93707733D01*
X181955064Y-93671127D01*
X181986495Y-93652394D01*
X181989479Y-93651004D01*
X182012321Y-93657190D01*
X182054982Y-93687035D01*
X182119128Y-93741947D01*
X182206421Y-93823334D01*
X182295535Y-93909922D01*
X182381441Y-93995247D01*
X182458327Y-94073108D01*
X182521564Y-94138697D01*
X182566523Y-94187205D01*
X182588576Y-94213825D01*
X182589396Y-94215195D01*
X182591834Y-94233463D01*
X182582650Y-94263295D01*
X182559574Y-94308721D01*
X182520337Y-94373770D01*
X182462670Y-94462470D01*
X182385795Y-94576657D01*
X182317570Y-94677162D01*
X182256582Y-94767303D01*
X182206356Y-94841849D01*
X182170416Y-94895565D01*
X182152287Y-94923218D01*
X182151146Y-94925095D01*
X182153359Y-94951590D01*
X182170138Y-95003086D01*
X182198142Y-95069851D01*
X182208122Y-95091172D01*
X182251672Y-95186159D01*
X182298134Y-95293937D01*
X182335877Y-95387192D01*
X182363073Y-95456406D01*
X182384675Y-95509006D01*
X182397158Y-95536497D01*
X182398709Y-95538616D01*
X182421668Y-95542124D01*
X182475786Y-95551738D01*
X182553868Y-95566089D01*
X182648719Y-95583807D01*
X182753143Y-95603525D01*
X182859944Y-95623874D01*
X182961926Y-95643486D01*
X183051894Y-95660991D01*
X183122653Y-95675022D01*
X183167006Y-95684209D01*
X183177885Y-95686807D01*
X183189122Y-95693218D01*
X183197605Y-95707697D01*
X183203714Y-95735133D01*
X183207832Y-95780411D01*
X183210341Y-95848420D01*
X183211621Y-95944047D01*
X183212054Y-96072180D01*
X183212077Y-96124701D01*
X183212077Y-96551845D01*
X183109500Y-96572091D01*
X183052431Y-96583070D01*
X182967269Y-96599095D01*
X182864372Y-96618233D01*
X182754096Y-96638551D01*
X182723615Y-96644132D01*
X182621855Y-96663917D01*
X182533205Y-96683373D01*
X182465108Y-96700697D01*
X182425004Y-96714088D01*
X182418323Y-96718079D01*
X182401919Y-96746342D01*
X182378399Y-96801109D01*
X182352316Y-96871588D01*
X182347142Y-96886769D01*
X182312956Y-96980896D01*
X182270523Y-97087101D01*
X182228997Y-97182473D01*
X182228792Y-97182916D01*
X182159640Y-97332525D01*
X182614512Y-98001617D01*
X182322500Y-98294116D01*
X182234180Y-98381170D01*
X182153625Y-98457909D01*
X182085360Y-98520237D01*
X182033908Y-98564056D01*
X182003794Y-98585270D01*
X181999474Y-98586616D01*
X181974111Y-98576016D01*
X181922358Y-98546547D01*
X181849868Y-98501705D01*
X181762294Y-98444984D01*
X181667612Y-98381462D01*
X181571516Y-98316668D01*
X181485837Y-98260287D01*
X181416016Y-98215788D01*
X181367494Y-98186639D01*
X181345782Y-98176308D01*
X181319293Y-98185050D01*
X181269062Y-98208087D01*
X181205451Y-98240631D01*
X181198708Y-98244249D01*
X181113046Y-98287210D01*
X181054306Y-98308279D01*
X181017772Y-98308503D01*
X180998731Y-98288928D01*
X180998620Y-98288654D01*
X180989102Y-98265472D01*
X180966403Y-98210441D01*
X180932282Y-98127822D01*
X180888500Y-98021872D01*
X180836816Y-97896852D01*
X180778992Y-97757020D01*
X180722991Y-97621637D01*
X180661447Y-97472234D01*
X180604939Y-97333832D01*
X180555161Y-97210673D01*
X180513806Y-97107002D01*
X180482568Y-97027059D01*
X180463141Y-96975088D01*
X180457154Y-96955692D01*
X180472168Y-96933443D01*
X180511439Y-96897982D01*
X180563807Y-96858887D01*
X180712941Y-96735245D01*
X180829511Y-96593522D01*
X180912118Y-96436704D01*
X180959366Y-96267775D01*
X180969857Y-96089722D01*
X180962231Y-96007539D01*
X180920682Y-95837031D01*
X180849123Y-95686459D01*
X180751995Y-95557309D01*
X180633734Y-95451064D01*
X180498780Y-95369210D01*
X180351571Y-95313232D01*
X180196544Y-95284615D01*
X180038139Y-95284844D01*
X179880794Y-95315405D01*
X179728946Y-95377782D01*
X179587035Y-95473460D01*
X179527803Y-95527572D01*
X179414203Y-95666520D01*
X179335106Y-95818361D01*
X179289986Y-95978667D01*
X179278316Y-96143012D01*
X179299569Y-96306971D01*
X179353220Y-96466118D01*
X179438740Y-96616025D01*
X179555605Y-96752267D01*
X179686193Y-96858887D01*
X179740588Y-96899642D01*
X179779014Y-96934718D01*
X179792846Y-96955726D01*
X179785603Y-96978635D01*
X179765005Y-97033365D01*
X179732746Y-97115672D01*
X179690521Y-97221315D01*
X179640023Y-97346050D01*
X179582948Y-97485636D01*
X179526854Y-97621670D01*
X179464967Y-97771201D01*
X179407644Y-97909767D01*
X179356644Y-98033107D01*
X179313727Y-98136964D01*
X179280653Y-98217080D01*
X179259181Y-98269195D01*
X179251225Y-98288654D01*
X179232429Y-98308423D01*
X179196074Y-98308365D01*
X179137479Y-98287441D01*
X179051968Y-98244613D01*
X179051292Y-98244249D01*
X178986907Y-98211012D01*
X178934861Y-98186802D01*
X178905512Y-98176404D01*
X178904217Y-98176308D01*
X178882124Y-98186855D01*
X178833348Y-98216184D01*
X178763331Y-98260827D01*
X178677514Y-98317314D01*
X178582388Y-98381462D01*
X178485540Y-98446411D01*
X178398253Y-98502896D01*
X178326181Y-98547421D01*
X178274977Y-98576490D01*
X178250526Y-98586616D01*
X178228010Y-98573307D01*
X178182742Y-98536112D01*
X178119244Y-98479128D01*
X178042039Y-98406449D01*
X177955651Y-98322171D01*
X177927399Y-98294016D01*
X177635287Y-98001416D01*
X177857631Y-97675104D01*
X177925202Y-97574897D01*
X177984507Y-97484963D01*
X178032217Y-97410510D01*
X178065007Y-97356751D01*
X178079548Y-97328894D01*
X178079974Y-97326912D01*
X178072308Y-97300655D01*
X178051689Y-97247837D01*
X178021685Y-97177310D01*
X178000625Y-97130093D01*
X177961248Y-97039694D01*
X177924165Y-96948366D01*
X177895415Y-96871200D01*
X177887605Y-96847692D01*
X177865417Y-96784916D01*
X177843727Y-96736411D01*
X177831813Y-96718079D01*
X177805523Y-96706859D01*
X177748142Y-96690954D01*
X177667118Y-96672167D01*
X177569895Y-96652299D01*
X177526385Y-96644132D01*
X177415896Y-96623829D01*
X177309916Y-96604170D01*
X177218801Y-96587088D01*
X177152908Y-96574518D01*
X177140500Y-96572091D01*
X177037923Y-96551845D01*
X177037923Y-96124701D01*
X177038153Y-95984246D01*
X177039099Y-95877979D01*
X177041141Y-95801013D01*
X177044662Y-95748460D01*
X177050043Y-95715433D01*
X177057666Y-95697045D01*
X177067912Y-95688408D01*
X177072115Y-95686807D01*
X177097470Y-95681127D01*
X177153484Y-95669795D01*
X177232964Y-95654179D01*
X177328712Y-95635647D01*
X177433533Y-95615569D01*
X177540232Y-95595312D01*
X177641613Y-95576246D01*
X177730479Y-95559739D01*
X177799637Y-95547159D01*
X177841889Y-95539875D01*
X177851290Y-95538616D01*
X177859807Y-95521763D01*
X177878660Y-95476870D01*
X177904324Y-95412430D01*
X177914123Y-95387192D01*
X177953648Y-95289686D01*
X178000192Y-95181959D01*
X178041877Y-95091172D01*
X178072550Y-95021753D01*
X178092956Y-94964710D01*
X178099768Y-94929777D01*
X178098682Y-94925095D01*
X178084285Y-94902991D01*
X178051412Y-94853831D01*
X178003590Y-94782848D01*
X177944348Y-94695278D01*
X177877215Y-94596357D01*
X177863941Y-94576830D01*
X177786046Y-94461140D01*
X177728787Y-94373044D01*
X177689881Y-94308486D01*
X177667044Y-94263411D01*
X177657994Y-94233763D01*
X177660448Y-94215485D01*
X177660511Y-94215369D01*
X177679827Y-94191361D01*
X177722551Y-94144947D01*
X177784051Y-94080937D01*
X177859698Y-94004145D01*
X177944861Y-93919382D01*
X177954465Y-93909922D01*
X178061790Y-93805989D01*
X178144615Y-93729675D01*
X178204605Y-93679571D01*
X178243423Y-93654270D01*
X178260520Y-93651004D01*
X178285473Y-93665250D01*
X178337255Y-93698156D01*
X178410520Y-93746208D01*
X178499920Y-93805890D01*
X178600111Y-93873688D01*
X178623501Y-93889639D01*
X178955593Y-94116420D01*
X179105565Y-94048353D01*
X179196770Y-94008685D01*
X179294669Y-93968791D01*
X179378831Y-93936983D01*
X179382538Y-93935674D01*
X179448369Y-93911576D01*
X179499116Y-93891200D01*
X179523842Y-93878936D01*
X179523884Y-93878901D01*
X179531729Y-93856734D01*
X179545066Y-93802217D01*
X179562570Y-93721480D01*
X179582917Y-93620650D01*
X179604782Y-93505856D01*
X179606571Y-93496178D01*
X179628504Y-93377904D01*
X179648640Y-93270542D01*
X179665680Y-93180917D01*
X179678328Y-93115851D01*
X179685284Y-93082168D01*
X179685406Y-93081654D01*
X179689639Y-93067325D01*
X179697871Y-93056507D01*
X179715033Y-93048706D01*
X179746058Y-93043429D01*
X179795878Y-93040182D01*
X179869424Y-93038472D01*
X179971629Y-93037807D01*
X180107425Y-93037693D01*
X180125000Y-93037692D01*
X180264878Y-93037776D01*
G37*
X180264878Y-93037776D02*
X180370612Y-93038355D01*
X180447132Y-93039922D01*
X180499372Y-93042972D01*
X180532263Y-93047996D01*
X180550737Y-93055489D01*
X180559727Y-93065944D01*
X180564163Y-93079853D01*
X180564594Y-93081654D01*
X180571333Y-93114145D01*
X180583808Y-93178252D01*
X180600719Y-93267151D01*
X180620771Y-93374019D01*
X180642664Y-93492033D01*
X180643429Y-93496178D01*
X180665359Y-93611831D01*
X180685877Y-93714014D01*
X180703659Y-93796598D01*
X180717381Y-93853456D01*
X180725718Y-93878458D01*
X180726116Y-93878901D01*
X180750677Y-93891110D01*
X180801315Y-93911456D01*
X180867095Y-93935545D01*
X180867461Y-93935674D01*
X180950317Y-93966818D01*
X181048000Y-94006491D01*
X181140077Y-94046381D01*
X181144434Y-94048353D01*
X181294407Y-94116420D01*
X181626498Y-93889639D01*
X181728374Y-93820504D01*
X181820657Y-93758697D01*
X181898003Y-93707733D01*
X181955064Y-93671127D01*
X181986495Y-93652394D01*
X181989479Y-93651004D01*
X182012321Y-93657190D01*
X182054982Y-93687035D01*
X182119128Y-93741947D01*
X182206421Y-93823334D01*
X182295535Y-93909922D01*
X182381441Y-93995247D01*
X182458327Y-94073108D01*
X182521564Y-94138697D01*
X182566523Y-94187205D01*
X182588576Y-94213825D01*
X182589396Y-94215195D01*
X182591834Y-94233463D01*
X182582650Y-94263295D01*
X182559574Y-94308721D01*
X182520337Y-94373770D01*
X182462670Y-94462470D01*
X182385795Y-94576657D01*
X182317570Y-94677162D01*
X182256582Y-94767303D01*
X182206356Y-94841849D01*
X182170416Y-94895565D01*
X182152287Y-94923218D01*
X182151146Y-94925095D01*
X182153359Y-94951590D01*
X182170138Y-95003086D01*
X182198142Y-95069851D01*
X182208122Y-95091172D01*
X182251672Y-95186159D01*
X182298134Y-95293937D01*
X182335877Y-95387192D01*
X182363073Y-95456406D01*
X182384675Y-95509006D01*
X182397158Y-95536497D01*
X182398709Y-95538616D01*
X182421668Y-95542124D01*
X182475786Y-95551738D01*
X182553868Y-95566089D01*
X182648719Y-95583807D01*
X182753143Y-95603525D01*
X182859944Y-95623874D01*
X182961926Y-95643486D01*
X183051894Y-95660991D01*
X183122653Y-95675022D01*
X183167006Y-95684209D01*
X183177885Y-95686807D01*
X183189122Y-95693218D01*
X183197605Y-95707697D01*
X183203714Y-95735133D01*
X183207832Y-95780411D01*
X183210341Y-95848420D01*
X183211621Y-95944047D01*
X183212054Y-96072180D01*
X183212077Y-96124701D01*
X183212077Y-96551845D01*
X183109500Y-96572091D01*
X183052431Y-96583070D01*
X182967269Y-96599095D01*
X182864372Y-96618233D01*
X182754096Y-96638551D01*
X182723615Y-96644132D01*
X182621855Y-96663917D01*
X182533205Y-96683373D01*
X182465108Y-96700697D01*
X182425004Y-96714088D01*
X182418323Y-96718079D01*
X182401919Y-96746342D01*
X182378399Y-96801109D01*
X182352316Y-96871588D01*
X182347142Y-96886769D01*
X182312956Y-96980896D01*
X182270523Y-97087101D01*
X182228997Y-97182473D01*
X182228792Y-97182916D01*
X182159640Y-97332525D01*
X182614512Y-98001617D01*
X182322500Y-98294116D01*
X182234180Y-98381170D01*
X182153625Y-98457909D01*
X182085360Y-98520237D01*
X182033908Y-98564056D01*
X182003794Y-98585270D01*
X181999474Y-98586616D01*
X181974111Y-98576016D01*
X181922358Y-98546547D01*
X181849868Y-98501705D01*
X181762294Y-98444984D01*
X181667612Y-98381462D01*
X181571516Y-98316668D01*
X181485837Y-98260287D01*
X181416016Y-98215788D01*
X181367494Y-98186639D01*
X181345782Y-98176308D01*
X181319293Y-98185050D01*
X181269062Y-98208087D01*
X181205451Y-98240631D01*
X181198708Y-98244249D01*
X181113046Y-98287210D01*
X181054306Y-98308279D01*
X181017772Y-98308503D01*
X180998731Y-98288928D01*
X180998620Y-98288654D01*
X180989102Y-98265472D01*
X180966403Y-98210441D01*
X180932282Y-98127822D01*
X180888500Y-98021872D01*
X180836816Y-97896852D01*
X180778992Y-97757020D01*
X180722991Y-97621637D01*
X180661447Y-97472234D01*
X180604939Y-97333832D01*
X180555161Y-97210673D01*
X180513806Y-97107002D01*
X180482568Y-97027059D01*
X180463141Y-96975088D01*
X180457154Y-96955692D01*
X180472168Y-96933443D01*
X180511439Y-96897982D01*
X180563807Y-96858887D01*
X180712941Y-96735245D01*
X180829511Y-96593522D01*
X180912118Y-96436704D01*
X180959366Y-96267775D01*
X180969857Y-96089722D01*
X180962231Y-96007539D01*
X180920682Y-95837031D01*
X180849123Y-95686459D01*
X180751995Y-95557309D01*
X180633734Y-95451064D01*
X180498780Y-95369210D01*
X180351571Y-95313232D01*
X180196544Y-95284615D01*
X180038139Y-95284844D01*
X179880794Y-95315405D01*
X179728946Y-95377782D01*
X179587035Y-95473460D01*
X179527803Y-95527572D01*
X179414203Y-95666520D01*
X179335106Y-95818361D01*
X179289986Y-95978667D01*
X179278316Y-96143012D01*
X179299569Y-96306971D01*
X179353220Y-96466118D01*
X179438740Y-96616025D01*
X179555605Y-96752267D01*
X179686193Y-96858887D01*
X179740588Y-96899642D01*
X179779014Y-96934718D01*
X179792846Y-96955726D01*
X179785603Y-96978635D01*
X179765005Y-97033365D01*
X179732746Y-97115672D01*
X179690521Y-97221315D01*
X179640023Y-97346050D01*
X179582948Y-97485636D01*
X179526854Y-97621670D01*
X179464967Y-97771201D01*
X179407644Y-97909767D01*
X179356644Y-98033107D01*
X179313727Y-98136964D01*
X179280653Y-98217080D01*
X179259181Y-98269195D01*
X179251225Y-98288654D01*
X179232429Y-98308423D01*
X179196074Y-98308365D01*
X179137479Y-98287441D01*
X179051968Y-98244613D01*
X179051292Y-98244249D01*
X178986907Y-98211012D01*
X178934861Y-98186802D01*
X178905512Y-98176404D01*
X178904217Y-98176308D01*
X178882124Y-98186855D01*
X178833348Y-98216184D01*
X178763331Y-98260827D01*
X178677514Y-98317314D01*
X178582388Y-98381462D01*
X178485540Y-98446411D01*
X178398253Y-98502896D01*
X178326181Y-98547421D01*
X178274977Y-98576490D01*
X178250526Y-98586616D01*
X178228010Y-98573307D01*
X178182742Y-98536112D01*
X178119244Y-98479128D01*
X178042039Y-98406449D01*
X177955651Y-98322171D01*
X177927399Y-98294016D01*
X177635287Y-98001416D01*
X177857631Y-97675104D01*
X177925202Y-97574897D01*
X177984507Y-97484963D01*
X178032217Y-97410510D01*
X178065007Y-97356751D01*
X178079548Y-97328894D01*
X178079974Y-97326912D01*
X178072308Y-97300655D01*
X178051689Y-97247837D01*
X178021685Y-97177310D01*
X178000625Y-97130093D01*
X177961248Y-97039694D01*
X177924165Y-96948366D01*
X177895415Y-96871200D01*
X177887605Y-96847692D01*
X177865417Y-96784916D01*
X177843727Y-96736411D01*
X177831813Y-96718079D01*
X177805523Y-96706859D01*
X177748142Y-96690954D01*
X177667118Y-96672167D01*
X177569895Y-96652299D01*
X177526385Y-96644132D01*
X177415896Y-96623829D01*
X177309916Y-96604170D01*
X177218801Y-96587088D01*
X177152908Y-96574518D01*
X177140500Y-96572091D01*
X177037923Y-96551845D01*
X177037923Y-96124701D01*
X177038153Y-95984246D01*
X177039099Y-95877979D01*
X177041141Y-95801013D01*
X177044662Y-95748460D01*
X177050043Y-95715433D01*
X177057666Y-95697045D01*
X177067912Y-95688408D01*
X177072115Y-95686807D01*
X177097470Y-95681127D01*
X177153484Y-95669795D01*
X177232964Y-95654179D01*
X177328712Y-95635647D01*
X177433533Y-95615569D01*
X177540232Y-95595312D01*
X177641613Y-95576246D01*
X177730479Y-95559739D01*
X177799637Y-95547159D01*
X177841889Y-95539875D01*
X177851290Y-95538616D01*
X177859807Y-95521763D01*
X177878660Y-95476870D01*
X177904324Y-95412430D01*
X177914123Y-95387192D01*
X177953648Y-95289686D01*
X178000192Y-95181959D01*
X178041877Y-95091172D01*
X178072550Y-95021753D01*
X178092956Y-94964710D01*
X178099768Y-94929777D01*
X178098682Y-94925095D01*
X178084285Y-94902991D01*
X178051412Y-94853831D01*
X178003590Y-94782848D01*
X177944348Y-94695278D01*
X177877215Y-94596357D01*
X177863941Y-94576830D01*
X177786046Y-94461140D01*
X177728787Y-94373044D01*
X177689881Y-94308486D01*
X177667044Y-94263411D01*
X177657994Y-94233763D01*
X177660448Y-94215485D01*
X177660511Y-94215369D01*
X177679827Y-94191361D01*
X177722551Y-94144947D01*
X177784051Y-94080937D01*
X177859698Y-94004145D01*
X177944861Y-93919382D01*
X177954465Y-93909922D01*
X178061790Y-93805989D01*
X178144615Y-93729675D01*
X178204605Y-93679571D01*
X178243423Y-93654270D01*
X178260520Y-93651004D01*
X178285473Y-93665250D01*
X178337255Y-93698156D01*
X178410520Y-93746208D01*
X178499920Y-93805890D01*
X178600111Y-93873688D01*
X178623501Y-93889639D01*
X178955593Y-94116420D01*
X179105565Y-94048353D01*
X179196770Y-94008685D01*
X179294669Y-93968791D01*
X179378831Y-93936983D01*
X179382538Y-93935674D01*
X179448369Y-93911576D01*
X179499116Y-93891200D01*
X179523842Y-93878936D01*
X179523884Y-93878901D01*
X179531729Y-93856734D01*
X179545066Y-93802217D01*
X179562570Y-93721480D01*
X179582917Y-93620650D01*
X179604782Y-93505856D01*
X179606571Y-93496178D01*
X179628504Y-93377904D01*
X179648640Y-93270542D01*
X179665680Y-93180917D01*
X179678328Y-93115851D01*
X179685284Y-93082168D01*
X179685406Y-93081654D01*
X179689639Y-93067325D01*
X179697871Y-93056507D01*
X179715033Y-93048706D01*
X179746058Y-93043429D01*
X179795878Y-93040182D01*
X179869424Y-93038472D01*
X179971629Y-93037807D01*
X180107425Y-93037693D01*
X180125000Y-93037692D01*
X180264878Y-93037776D01*
G36*
X180178501Y-99376303D02*
G01*
X180255060Y-99404733D01*
X180255936Y-99405279D01*
X180303285Y-99440127D01*
X180338241Y-99480852D01*
X180362825Y-99533925D01*
X180379062Y-99605814D01*
X180388975Y-99702992D01*
X180394586Y-99831928D01*
X180395077Y-99850298D01*
X180402141Y-100127287D01*
X180342695Y-100158028D01*
X180299681Y-100178802D01*
X180273710Y-100188646D01*
X180272509Y-100188769D01*
X180268014Y-100170606D01*
X180264444Y-100121612D01*
X180262248Y-100050031D01*
X180261769Y-99992068D01*
X180261758Y-99898170D01*
X180257466Y-99839203D01*
X180242503Y-99811079D01*
X180210482Y-99809706D01*
X180155014Y-99830998D01*
X180071269Y-99870136D01*
X180009689Y-99902643D01*
X179978017Y-99930845D01*
X179968706Y-99961582D01*
X179968692Y-99963104D01*
X179984057Y-100016054D01*
X180029547Y-100044660D01*
X180099166Y-100048803D01*
X180149313Y-100048084D01*
X180175754Y-100062527D01*
X180192243Y-100097218D01*
X180201733Y-100141416D01*
X180188057Y-100166493D01*
X180182907Y-100170082D01*
X180134425Y-100184496D01*
X180066531Y-100186537D01*
X179996612Y-100176983D01*
X179947068Y-100159522D01*
X179878570Y-100101364D01*
X179839634Y-100020408D01*
X179831923Y-99957160D01*
X179837807Y-99900111D01*
X179859101Y-99853542D01*
X179901265Y-99812181D01*
X179969759Y-99770755D01*
X180070044Y-99723993D01*
X180076154Y-99721350D01*
X180166490Y-99679617D01*
X180222235Y-99645391D01*
X180246129Y-99614635D01*
X180240913Y-99583311D01*
X180209328Y-99547383D01*
X180199883Y-99539116D01*
X180136617Y-99507058D01*
X180071064Y-99508407D01*
X180013972Y-99539838D01*
X179976093Y-99598024D01*
X179972574Y-99609446D01*
X179938300Y-99664837D01*
X179894809Y-99691518D01*
X179831923Y-99717960D01*
X179831923Y-99649548D01*
X179851052Y-99550110D01*
X179907831Y-99458902D01*
X179937378Y-99428389D01*
X180004542Y-99389228D01*
X180089956Y-99371500D01*
X180178501Y-99376303D01*
G37*
X180178501Y-99376303D02*
X180255060Y-99404733D01*
X180255936Y-99405279D01*
X180303285Y-99440127D01*
X180338241Y-99480852D01*
X180362825Y-99533925D01*
X180379062Y-99605814D01*
X180388975Y-99702992D01*
X180394586Y-99831928D01*
X180395077Y-99850298D01*
X180402141Y-100127287D01*
X180342695Y-100158028D01*
X180299681Y-100178802D01*
X180273710Y-100188646D01*
X180272509Y-100188769D01*
X180268014Y-100170606D01*
X180264444Y-100121612D01*
X180262248Y-100050031D01*
X180261769Y-99992068D01*
X180261758Y-99898170D01*
X180257466Y-99839203D01*
X180242503Y-99811079D01*
X180210482Y-99809706D01*
X180155014Y-99830998D01*
X180071269Y-99870136D01*
X180009689Y-99902643D01*
X179978017Y-99930845D01*
X179968706Y-99961582D01*
X179968692Y-99963104D01*
X179984057Y-100016054D01*
X180029547Y-100044660D01*
X180099166Y-100048803D01*
X180149313Y-100048084D01*
X180175754Y-100062527D01*
X180192243Y-100097218D01*
X180201733Y-100141416D01*
X180188057Y-100166493D01*
X180182907Y-100170082D01*
X180134425Y-100184496D01*
X180066531Y-100186537D01*
X179996612Y-100176983D01*
X179947068Y-100159522D01*
X179878570Y-100101364D01*
X179839634Y-100020408D01*
X179831923Y-99957160D01*
X179837807Y-99900111D01*
X179859101Y-99853542D01*
X179901265Y-99812181D01*
X179969759Y-99770755D01*
X180070044Y-99723993D01*
X180076154Y-99721350D01*
X180166490Y-99679617D01*
X180222235Y-99645391D01*
X180246129Y-99614635D01*
X180240913Y-99583311D01*
X180209328Y-99547383D01*
X180199883Y-99539116D01*
X180136617Y-99507058D01*
X180071064Y-99508407D01*
X180013972Y-99539838D01*
X179976093Y-99598024D01*
X179972574Y-99609446D01*
X179938300Y-99664837D01*
X179894809Y-99691518D01*
X179831923Y-99717960D01*
X179831923Y-99649548D01*
X179851052Y-99550110D01*
X179907831Y-99458902D01*
X179937378Y-99428389D01*
X180004542Y-99389228D01*
X180089956Y-99371500D01*
X180178501Y-99376303D01*
G36*
X180838362Y-99374670D02*
G01*
X180927117Y-99407421D01*
X180999022Y-99465350D01*
X181027144Y-99506128D01*
X181057802Y-99580954D01*
X181057165Y-99635058D01*
X181024987Y-99671446D01*
X181013081Y-99677633D01*
X180961675Y-99696925D01*
X180935422Y-99691982D01*
X180926530Y-99659587D01*
X180926077Y-99641692D01*
X180909797Y-99575859D01*
X180867365Y-99529807D01*
X180808388Y-99507564D01*
X180742475Y-99513161D01*
X180688895Y-99542229D01*
X180670798Y-99558810D01*
X180657971Y-99578925D01*
X180649306Y-99609332D01*
X180643696Y-99656788D01*
X180640035Y-99728050D01*
X180637215Y-99829875D01*
X180636484Y-99862115D01*
X180633820Y-99972410D01*
X180630792Y-100050036D01*
X180626250Y-100101396D01*
X180619046Y-100132890D01*
X180608033Y-100150920D01*
X180592060Y-100161888D01*
X180581834Y-100166733D01*
X180538406Y-100183301D01*
X180512842Y-100188769D01*
X180504395Y-100170507D01*
X180499239Y-100115296D01*
X180497346Y-100022499D01*
X180498689Y-99891478D01*
X180499107Y-99871269D01*
X180502058Y-99751733D01*
X180505548Y-99664449D01*
X180510514Y-99602591D01*
X180517893Y-99559336D01*
X180528624Y-99527860D01*
X180543645Y-99501339D01*
X180551502Y-99489975D01*
X180596553Y-99439692D01*
X180646940Y-99400581D01*
X180653108Y-99397167D01*
X180743458Y-99370212D01*
X180838362Y-99374670D01*
G37*
X180838362Y-99374670D02*
X180927117Y-99407421D01*
X180999022Y-99465350D01*
X181027144Y-99506128D01*
X181057802Y-99580954D01*
X181057165Y-99635058D01*
X181024987Y-99671446D01*
X181013081Y-99677633D01*
X180961675Y-99696925D01*
X180935422Y-99691982D01*
X180926530Y-99659587D01*
X180926077Y-99641692D01*
X180909797Y-99575859D01*
X180867365Y-99529807D01*
X180808388Y-99507564D01*
X180742475Y-99513161D01*
X180688895Y-99542229D01*
X180670798Y-99558810D01*
X180657971Y-99578925D01*
X180649306Y-99609332D01*
X180643696Y-99656788D01*
X180640035Y-99728050D01*
X180637215Y-99829875D01*
X180636484Y-99862115D01*
X180633820Y-99972410D01*
X180630792Y-100050036D01*
X180626250Y-100101396D01*
X180619046Y-100132890D01*
X180608033Y-100150920D01*
X180592060Y-100161888D01*
X180581834Y-100166733D01*
X180538406Y-100183301D01*
X180512842Y-100188769D01*
X180504395Y-100170507D01*
X180499239Y-100115296D01*
X180497346Y-100022499D01*
X180498689Y-99891478D01*
X180499107Y-99871269D01*
X180502058Y-99751733D01*
X180505548Y-99664449D01*
X180510514Y-99602591D01*
X180517893Y-99559336D01*
X180528624Y-99527860D01*
X180543645Y-99501339D01*
X180551502Y-99489975D01*
X180596553Y-99439692D01*
X180646940Y-99400581D01*
X180653108Y-99397167D01*
X180743458Y-99370212D01*
X180838362Y-99374670D01*
G36*
X183012333Y-99383528D02*
G01*
X183068590Y-99409117D01*
X183112747Y-99440124D01*
X183145101Y-99474795D01*
X183167438Y-99519520D01*
X183181546Y-99580692D01*
X183189211Y-99664701D01*
X183192220Y-99777940D01*
X183192538Y-99852509D01*
X183192538Y-100143420D01*
X183142773Y-100166095D01*
X183103576Y-100182667D01*
X183084157Y-100188769D01*
X183080442Y-100170610D01*
X183077495Y-100121648D01*
X183075691Y-100050153D01*
X183075308Y-99993385D01*
X183073661Y-99911371D01*
X183069222Y-99846309D01*
X183062740Y-99806467D01*
X183057590Y-99798000D01*
X183022977Y-99806646D01*
X182968640Y-99828823D01*
X182905722Y-99858886D01*
X182845368Y-99891192D01*
X182798721Y-99920098D01*
X182776926Y-99939961D01*
X182776839Y-99940175D01*
X182778714Y-99976935D01*
X182795525Y-100012026D01*
X182825039Y-100040528D01*
X182868116Y-100050061D01*
X182904932Y-100048950D01*
X182957074Y-100048133D01*
X182984444Y-100060349D01*
X183000882Y-100092624D01*
X183002955Y-100098710D01*
X183010081Y-100144739D01*
X182991024Y-100172687D01*
X182941353Y-100186007D01*
X182887697Y-100188470D01*
X182791142Y-100170210D01*
X182741159Y-100144131D01*
X182679429Y-100082868D01*
X182646690Y-100007670D01*
X182643753Y-99928211D01*
X182671424Y-99854167D01*
X182713047Y-99807769D01*
X182754604Y-99781793D01*
X182819922Y-99748907D01*
X182896038Y-99715557D01*
X182908726Y-99710461D01*
X182992333Y-99673565D01*
X183040530Y-99641046D01*
X183056030Y-99608718D01*
X183041550Y-99572394D01*
X183016692Y-99544000D01*
X182957939Y-99509039D01*
X182893293Y-99506417D01*
X182834008Y-99533358D01*
X182791339Y-99587088D01*
X182785739Y-99600950D01*
X182753133Y-99651936D01*
X182705530Y-99689787D01*
X182645461Y-99720850D01*
X182645461Y-99632768D01*
X182648997Y-99578951D01*
X182664156Y-99536534D01*
X182697768Y-99491279D01*
X182730035Y-99456420D01*
X182780209Y-99407062D01*
X182819193Y-99380547D01*
X182861064Y-99369911D01*
X182908460Y-99368154D01*
X183012333Y-99383528D01*
G37*
X183012333Y-99383528D02*
X183068590Y-99409117D01*
X183112747Y-99440124D01*
X183145101Y-99474795D01*
X183167438Y-99519520D01*
X183181546Y-99580692D01*
X183189211Y-99664701D01*
X183192220Y-99777940D01*
X183192538Y-99852509D01*
X183192538Y-100143420D01*
X183142773Y-100166095D01*
X183103576Y-100182667D01*
X183084157Y-100188769D01*
X183080442Y-100170610D01*
X183077495Y-100121648D01*
X183075691Y-100050153D01*
X183075308Y-99993385D01*
X183073661Y-99911371D01*
X183069222Y-99846309D01*
X183062740Y-99806467D01*
X183057590Y-99798000D01*
X183022977Y-99806646D01*
X182968640Y-99828823D01*
X182905722Y-99858886D01*
X182845368Y-99891192D01*
X182798721Y-99920098D01*
X182776926Y-99939961D01*
X182776839Y-99940175D01*
X182778714Y-99976935D01*
X182795525Y-100012026D01*
X182825039Y-100040528D01*
X182868116Y-100050061D01*
X182904932Y-100048950D01*
X182957074Y-100048133D01*
X182984444Y-100060349D01*
X183000882Y-100092624D01*
X183002955Y-100098710D01*
X183010081Y-100144739D01*
X182991024Y-100172687D01*
X182941353Y-100186007D01*
X182887697Y-100188470D01*
X182791142Y-100170210D01*
X182741159Y-100144131D01*
X182679429Y-100082868D01*
X182646690Y-100007670D01*
X182643753Y-99928211D01*
X182671424Y-99854167D01*
X182713047Y-99807769D01*
X182754604Y-99781793D01*
X182819922Y-99748907D01*
X182896038Y-99715557D01*
X182908726Y-99710461D01*
X182992333Y-99673565D01*
X183040530Y-99641046D01*
X183056030Y-99608718D01*
X183041550Y-99572394D01*
X183016692Y-99544000D01*
X182957939Y-99509039D01*
X182893293Y-99506417D01*
X182834008Y-99533358D01*
X182791339Y-99587088D01*
X182785739Y-99600950D01*
X182753133Y-99651936D01*
X182705530Y-99689787D01*
X182645461Y-99720850D01*
X182645461Y-99632768D01*
X182648997Y-99578951D01*
X182664156Y-99536534D01*
X182697768Y-99491279D01*
X182730035Y-99456420D01*
X182780209Y-99407062D01*
X182819193Y-99380547D01*
X182861064Y-99369911D01*
X182908460Y-99368154D01*
X183012333Y-99383528D01*
G36*
X182520929Y-99386662D02*
G01*
X182523911Y-99438068D01*
X182526247Y-99516192D01*
X182527749Y-99614857D01*
X182528231Y-99718343D01*
X182528231Y-100068533D01*
X182466401Y-100130363D01*
X182423793Y-100168462D01*
X182386390Y-100183895D01*
X182335270Y-100182918D01*
X182314978Y-100180433D01*
X182251554Y-100173200D01*
X182199095Y-100169055D01*
X182186308Y-100168672D01*
X182143199Y-100171176D01*
X182081544Y-100177462D01*
X182057638Y-100180433D01*
X181998922Y-100185028D01*
X181959464Y-100175046D01*
X181920338Y-100144228D01*
X181906215Y-100130363D01*
X181844385Y-100068533D01*
X181844385Y-99413503D01*
X181894150Y-99390829D01*
X181937002Y-99374034D01*
X181962073Y-99368154D01*
X181968501Y-99386736D01*
X181974509Y-99438655D01*
X181979697Y-99518172D01*
X181983664Y-99619546D01*
X181985577Y-99705192D01*
X181990923Y-100042231D01*
X182037560Y-100048825D01*
X182079976Y-100044214D01*
X182100760Y-100029287D01*
X182106570Y-100001377D01*
X182111530Y-99941925D01*
X182115246Y-99858466D01*
X182117324Y-99758532D01*
X182117624Y-99707104D01*
X182117923Y-99411054D01*
X182179454Y-99389604D01*
X182223004Y-99375020D01*
X182246694Y-99368219D01*
X182247377Y-99368154D01*
X182249754Y-99386642D01*
X182252366Y-99437906D01*
X182254995Y-99515649D01*
X182257421Y-99613574D01*
X182259115Y-99705192D01*
X182264461Y-100042231D01*
X182381692Y-100042231D01*
X182387072Y-99734746D01*
X182392451Y-99427261D01*
X182449601Y-99397707D01*
X182491797Y-99377413D01*
X182516770Y-99368204D01*
X182517491Y-99368154D01*
X182520929Y-99386662D01*
G37*
X182520929Y-99386662D02*
X182523911Y-99438068D01*
X182526247Y-99516192D01*
X182527749Y-99614857D01*
X182528231Y-99718343D01*
X182528231Y-100068533D01*
X182466401Y-100130363D01*
X182423793Y-100168462D01*
X182386390Y-100183895D01*
X182335270Y-100182918D01*
X182314978Y-100180433D01*
X182251554Y-100173200D01*
X182199095Y-100169055D01*
X182186308Y-100168672D01*
X182143199Y-100171176D01*
X182081544Y-100177462D01*
X182057638Y-100180433D01*
X181998922Y-100185028D01*
X181959464Y-100175046D01*
X181920338Y-100144228D01*
X181906215Y-100130363D01*
X181844385Y-100068533D01*
X181844385Y-99413503D01*
X181894150Y-99390829D01*
X181937002Y-99374034D01*
X181962073Y-99368154D01*
X181968501Y-99386736D01*
X181974509Y-99438655D01*
X181979697Y-99518172D01*
X181983664Y-99619546D01*
X181985577Y-99705192D01*
X181990923Y-100042231D01*
X182037560Y-100048825D01*
X182079976Y-100044214D01*
X182100760Y-100029287D01*
X182106570Y-100001377D01*
X182111530Y-99941925D01*
X182115246Y-99858466D01*
X182117324Y-99758532D01*
X182117624Y-99707104D01*
X182117923Y-99411054D01*
X182179454Y-99389604D01*
X182223004Y-99375020D01*
X182246694Y-99368219D01*
X182247377Y-99368154D01*
X182249754Y-99386642D01*
X182252366Y-99437906D01*
X182254995Y-99515649D01*
X182257421Y-99613574D01*
X182259115Y-99705192D01*
X182264461Y-100042231D01*
X182381692Y-100042231D01*
X182387072Y-99734746D01*
X182392451Y-99427261D01*
X182449601Y-99397707D01*
X182491797Y-99377413D01*
X182516770Y-99368204D01*
X182517491Y-99368154D01*
X182520929Y-99386662D01*
G36*
X175732629Y-99587906D02*
G01*
X175739322Y-99539163D01*
X175750960Y-99503288D01*
X175768853Y-99471548D01*
X175772808Y-99465648D01*
X175839267Y-99386104D01*
X175911685Y-99339929D01*
X175999849Y-99321599D01*
X176029787Y-99320703D01*
X176141886Y-99337256D01*
X176233464Y-99385409D01*
X176301049Y-99462905D01*
X176325057Y-99512727D01*
X176343738Y-99587533D01*
X176353301Y-99682052D01*
X176354208Y-99785210D01*
X176346921Y-99885935D01*
X176331903Y-99973153D01*
X176309615Y-100035791D01*
X176302765Y-100046579D01*
X176221632Y-100127105D01*
X176125266Y-100175336D01*
X176020701Y-100189450D01*
X175914968Y-100167629D01*
X175885543Y-100154547D01*
X175828241Y-100114231D01*
X175777950Y-100060775D01*
X175773197Y-100053995D01*
X175753878Y-100021321D01*
X175741108Y-99986394D01*
X175733564Y-99940414D01*
X175729924Y-99874584D01*
X175728865Y-99780105D01*
X175728846Y-99758923D01*
X175728894Y-99752182D01*
X175924231Y-99752182D01*
X175925368Y-99841349D01*
X175929841Y-99900520D01*
X175939246Y-99938741D01*
X175955176Y-99965053D01*
X175963308Y-99973846D01*
X176010058Y-100007261D01*
X176055447Y-100005737D01*
X176101340Y-99976752D01*
X176128712Y-99945809D01*
X176144923Y-99900643D01*
X176154026Y-99829420D01*
X176154651Y-99821114D01*
X176156204Y-99692037D01*
X176139965Y-99596172D01*
X176106152Y-99534107D01*
X176054984Y-99506432D01*
X176036720Y-99504923D01*
X175988760Y-99512513D01*
X175955953Y-99538808D01*
X175935895Y-99589095D01*
X175926178Y-99668664D01*
X175924231Y-99752182D01*
X175728894Y-99752182D01*
X175729574Y-99658249D01*
X175732629Y-99587906D01*
G37*
X175732629Y-99587906D02*
X175739322Y-99539163D01*
X175750960Y-99503288D01*
X175768853Y-99471548D01*
X175772808Y-99465648D01*
X175839267Y-99386104D01*
X175911685Y-99339929D01*
X175999849Y-99321599D01*
X176029787Y-99320703D01*
X176141886Y-99337256D01*
X176233464Y-99385409D01*
X176301049Y-99462905D01*
X176325057Y-99512727D01*
X176343738Y-99587533D01*
X176353301Y-99682052D01*
X176354208Y-99785210D01*
X176346921Y-99885935D01*
X176331903Y-99973153D01*
X176309615Y-100035791D01*
X176302765Y-100046579D01*
X176221632Y-100127105D01*
X176125266Y-100175336D01*
X176020701Y-100189450D01*
X175914968Y-100167629D01*
X175885543Y-100154547D01*
X175828241Y-100114231D01*
X175777950Y-100060775D01*
X175773197Y-100053995D01*
X175753878Y-100021321D01*
X175741108Y-99986394D01*
X175733564Y-99940414D01*
X175729924Y-99874584D01*
X175728865Y-99780105D01*
X175728846Y-99758923D01*
X175728894Y-99752182D01*
X175924231Y-99752182D01*
X175925368Y-99841349D01*
X175929841Y-99900520D01*
X175939246Y-99938741D01*
X175955176Y-99965053D01*
X175963308Y-99973846D01*
X176010058Y-100007261D01*
X176055447Y-100005737D01*
X176101340Y-99976752D01*
X176128712Y-99945809D01*
X176144923Y-99900643D01*
X176154026Y-99829420D01*
X176154651Y-99821114D01*
X176156204Y-99692037D01*
X176139965Y-99596172D01*
X176106152Y-99534107D01*
X176054984Y-99506432D01*
X176036720Y-99504923D01*
X175988760Y-99512513D01*
X175955953Y-99538808D01*
X175935895Y-99589095D01*
X175926178Y-99668664D01*
X175924231Y-99752182D01*
X175728894Y-99752182D01*
X175729574Y-99658249D01*
X175732629Y-99587906D01*
G36*
X176481873Y-99644679D02*
G01*
X176485606Y-99580905D01*
X176490907Y-99535582D01*
X176498258Y-99503555D01*
X176508143Y-99479668D01*
X176521046Y-99458764D01*
X176526579Y-99450898D01*
X176599969Y-99376595D01*
X176692760Y-99334467D01*
X176800096Y-99322722D01*
X176893886Y-99334505D01*
X176968539Y-99371727D01*
X177034431Y-99440261D01*
X177052577Y-99465648D01*
X177072345Y-99498866D01*
X177085172Y-99534945D01*
X177092510Y-99583098D01*
X177095813Y-99652536D01*
X177096538Y-99744206D01*
X177093263Y-99869830D01*
X177081877Y-99964154D01*
X177060041Y-100034523D01*
X177025419Y-100088286D01*
X176975670Y-100132788D01*
X176972014Y-100135423D01*
X176922985Y-100162377D01*
X176863945Y-100175712D01*
X176788859Y-100179000D01*
X176666795Y-100179000D01*
X176666744Y-100297497D01*
X176665608Y-100363492D01*
X176658686Y-100402202D01*
X176640598Y-100425419D01*
X176605962Y-100444933D01*
X176597645Y-100448920D01*
X176558720Y-100467603D01*
X176528583Y-100479403D01*
X176506174Y-100480422D01*
X176490433Y-100466761D01*
X176480302Y-100434522D01*
X176474723Y-100379804D01*
X176472635Y-100298711D01*
X176472981Y-100187344D01*
X176474700Y-100041802D01*
X176475237Y-99998269D01*
X176477172Y-99848205D01*
X176478904Y-99750042D01*
X176666692Y-99750042D01*
X176667748Y-99833364D01*
X176672438Y-99887880D01*
X176683051Y-99923837D01*
X176701872Y-99951482D01*
X176714650Y-99964965D01*
X176766890Y-100004417D01*
X176813142Y-100007628D01*
X176860867Y-99975049D01*
X176862077Y-99973846D01*
X176881494Y-99948668D01*
X176893307Y-99914447D01*
X176899265Y-99861748D01*
X176901120Y-99781131D01*
X176901154Y-99763271D01*
X176896670Y-99652175D01*
X176882074Y-99575161D01*
X176855650Y-99528147D01*
X176815683Y-99507050D01*
X176792584Y-99504923D01*
X176737762Y-99514900D01*
X176700158Y-99547752D01*
X176677523Y-99607857D01*
X176667606Y-99699598D01*
X176666692Y-99750042D01*
X176478904Y-99750042D01*
X176479222Y-99732060D01*
X176481873Y-99644679D01*
G37*
X176481873Y-99644679D02*
X176485606Y-99580905D01*
X176490907Y-99535582D01*
X176498258Y-99503555D01*
X176508143Y-99479668D01*
X176521046Y-99458764D01*
X176526579Y-99450898D01*
X176599969Y-99376595D01*
X176692760Y-99334467D01*
X176800096Y-99322722D01*
X176893886Y-99334505D01*
X176968539Y-99371727D01*
X177034431Y-99440261D01*
X177052577Y-99465648D01*
X177072345Y-99498866D01*
X177085172Y-99534945D01*
X177092510Y-99583098D01*
X177095813Y-99652536D01*
X177096538Y-99744206D01*
X177093263Y-99869830D01*
X177081877Y-99964154D01*
X177060041Y-100034523D01*
X177025419Y-100088286D01*
X176975670Y-100132788D01*
X176972014Y-100135423D01*
X176922985Y-100162377D01*
X176863945Y-100175712D01*
X176788859Y-100179000D01*
X176666795Y-100179000D01*
X176666744Y-100297497D01*
X176665608Y-100363492D01*
X176658686Y-100402202D01*
X176640598Y-100425419D01*
X176605962Y-100444933D01*
X176597645Y-100448920D01*
X176558720Y-100467603D01*
X176528583Y-100479403D01*
X176506174Y-100480422D01*
X176490433Y-100466761D01*
X176480302Y-100434522D01*
X176474723Y-100379804D01*
X176472635Y-100298711D01*
X176472981Y-100187344D01*
X176474700Y-100041802D01*
X176475237Y-99998269D01*
X176477172Y-99848205D01*
X176478904Y-99750042D01*
X176666692Y-99750042D01*
X176667748Y-99833364D01*
X176672438Y-99887880D01*
X176683051Y-99923837D01*
X176701872Y-99951482D01*
X176714650Y-99964965D01*
X176766890Y-100004417D01*
X176813142Y-100007628D01*
X176860867Y-99975049D01*
X176862077Y-99973846D01*
X176881494Y-99948668D01*
X176893307Y-99914447D01*
X176899265Y-99861748D01*
X176901120Y-99781131D01*
X176901154Y-99763271D01*
X176896670Y-99652175D01*
X176882074Y-99575161D01*
X176855650Y-99528147D01*
X176815683Y-99507050D01*
X176792584Y-99504923D01*
X176737762Y-99514900D01*
X176700158Y-99547752D01*
X176677523Y-99607857D01*
X176667606Y-99699598D01*
X176666692Y-99750042D01*
X176478904Y-99750042D01*
X176479222Y-99732060D01*
X176481873Y-99644679D01*
%TD*%
M02*
