%TF.GenerationSoftware,KiCad,Pcbnew,6.0.11-2627ca5db0~126~ubuntu22.04.1*%
%TF.CreationDate,2023-03-03T22:15:38-05:00*%
%TF.ProjectId,lin-coolant-temperature,6c696e2d-636f-46f6-9c61-6e742d74656d,1.0*%
%TF.SameCoordinates,Original*%
%TF.FileFunction,Paste,Top*%
%TF.FilePolarity,Positive*%
%FSLAX46Y46*%
G04 Gerber Fmt 4.6, Leading zero omitted, Abs format (unit mm)*
G04 Created by KiCad (PCBNEW 6.0.11-2627ca5db0~126~ubuntu22.04.1) date 2023-03-03 22:15:38*
%MOMM*%
%LPD*%
G01*
G04 APERTURE LIST*
G04 Aperture macros list*
%AMRoundRect*
0 Rectangle with rounded corners*
0 $1 Rounding radius*
0 $2 $3 $4 $5 $6 $7 $8 $9 X,Y pos of 4 corners*
0 Add a 4 corners polygon primitive as box body*
4,1,4,$2,$3,$4,$5,$6,$7,$8,$9,$2,$3,0*
0 Add four circle primitives for the rounded corners*
1,1,$1+$1,$2,$3*
1,1,$1+$1,$4,$5*
1,1,$1+$1,$6,$7*
1,1,$1+$1,$8,$9*
0 Add four rect primitives between the rounded corners*
20,1,$1+$1,$2,$3,$4,$5,0*
20,1,$1+$1,$4,$5,$6,$7,0*
20,1,$1+$1,$6,$7,$8,$9,0*
20,1,$1+$1,$8,$9,$2,$3,0*%
G04 Aperture macros list end*
%ADD10RoundRect,0.150000X0.150000X-0.587500X0.150000X0.587500X-0.150000X0.587500X-0.150000X-0.587500X0*%
%ADD11R,1.879600X1.879600*%
%ADD12C,1.879600*%
%ADD13RoundRect,0.250000X0.400000X1.450000X-0.400000X1.450000X-0.400000X-1.450000X0.400000X-1.450000X0*%
%ADD14RoundRect,0.250000X-0.337500X-0.475000X0.337500X-0.475000X0.337500X0.475000X-0.337500X0.475000X0*%
%ADD15RoundRect,0.250000X-0.475000X0.337500X-0.475000X-0.337500X0.475000X-0.337500X0.475000X0.337500X0*%
%ADD16RoundRect,0.250000X0.537500X0.425000X-0.537500X0.425000X-0.537500X-0.425000X0.537500X-0.425000X0*%
%ADD17RoundRect,0.250000X0.412500X1.100000X-0.412500X1.100000X-0.412500X-1.100000X0.412500X-1.100000X0*%
%ADD18RoundRect,0.150000X0.150000X-0.825000X0.150000X0.825000X-0.150000X0.825000X-0.150000X-0.825000X0*%
%ADD19R,0.400000X0.650000*%
%ADD20RoundRect,0.100000X-0.637500X-0.100000X0.637500X-0.100000X0.637500X0.100000X-0.637500X0.100000X0*%
%ADD21RoundRect,0.250000X-0.350000X-0.450000X0.350000X-0.450000X0.350000X0.450000X-0.350000X0.450000X0*%
%ADD22RoundRect,0.250000X0.337500X0.475000X-0.337500X0.475000X-0.337500X-0.475000X0.337500X-0.475000X0*%
%ADD23RoundRect,0.250000X0.450000X-0.350000X0.450000X0.350000X-0.450000X0.350000X-0.450000X-0.350000X0*%
%ADD24RoundRect,0.250000X0.450000X-0.325000X0.450000X0.325000X-0.450000X0.325000X-0.450000X-0.325000X0*%
G04 APERTURE END LIST*
D10*
%TO.C,U4*%
X192220000Y-80095000D03*
X194120000Y-80095000D03*
X193170000Y-78220000D03*
%TD*%
D11*
%TO.C,J1*%
X226520000Y-91800000D03*
D12*
X223980000Y-91800000D03*
X221440000Y-91800000D03*
X218900000Y-91800000D03*
X216360000Y-91800000D03*
X213820000Y-91800000D03*
%TD*%
D13*
%TO.C,F1*%
X219120000Y-64040000D03*
X214670000Y-64040000D03*
%TD*%
D14*
%TO.C,C7*%
X196160000Y-78220000D03*
X198235000Y-78220000D03*
%TD*%
D15*
%TO.C,C6*%
X194060000Y-82852500D03*
X194060000Y-84927500D03*
%TD*%
D16*
%TO.C,C5*%
X182420000Y-78480000D03*
X179545000Y-78480000D03*
%TD*%
D14*
%TO.C,C4*%
X185185000Y-78480000D03*
X187260000Y-78480000D03*
%TD*%
D17*
%TO.C,C3*%
X214610000Y-68490000D03*
X211485000Y-68490000D03*
%TD*%
D18*
%TO.C,U1*%
X196670000Y-89800000D03*
X197940000Y-89800000D03*
X199210000Y-89800000D03*
X200480000Y-89800000D03*
X200480000Y-84850000D03*
X199210000Y-84850000D03*
X197940000Y-84850000D03*
X196670000Y-84850000D03*
%TD*%
D10*
%TO.C,Q1*%
X187400000Y-88475000D03*
X189300000Y-88475000D03*
X188350000Y-86600000D03*
%TD*%
D19*
%TO.C,U7*%
X216400000Y-83675000D03*
X215750000Y-83675000D03*
X215100000Y-83675000D03*
X215100000Y-85575000D03*
X215750000Y-85575000D03*
X216400000Y-85575000D03*
%TD*%
D20*
%TO.C,U2*%
X203237500Y-91975000D03*
X203237500Y-92625000D03*
X203237500Y-93275000D03*
X203237500Y-93925000D03*
X203237500Y-94575000D03*
X203237500Y-95225000D03*
X203237500Y-95875000D03*
X208962500Y-95875000D03*
X208962500Y-95225000D03*
X208962500Y-94575000D03*
X208962500Y-93925000D03*
X208962500Y-93275000D03*
X208962500Y-92625000D03*
X208962500Y-91975000D03*
%TD*%
D21*
%TO.C,R1*%
X193325000Y-93250000D03*
X195325000Y-93250000D03*
%TD*%
D22*
%TO.C,C1*%
X205300000Y-89775000D03*
X203225000Y-89775000D03*
%TD*%
D19*
%TO.C,U6*%
X216600000Y-75600000D03*
X215950000Y-75600000D03*
X215300000Y-75600000D03*
X215300000Y-77500000D03*
X215950000Y-77500000D03*
X216600000Y-77500000D03*
%TD*%
D23*
%TO.C,R5*%
X204025000Y-85350000D03*
X204025000Y-83350000D03*
%TD*%
D24*
%TO.C,D1*%
X206450000Y-85350000D03*
X206450000Y-83300000D03*
%TD*%
D21*
%TO.C,R19*%
X214600000Y-73775000D03*
X216600000Y-73775000D03*
%TD*%
%TO.C,R20*%
X214475000Y-81700000D03*
X216475000Y-81700000D03*
%TD*%
D10*
%TO.C,Q2*%
X183550000Y-88525000D03*
X185450000Y-88525000D03*
X184500000Y-86650000D03*
%TD*%
D21*
%TO.C,R2*%
X198675000Y-93775000D03*
X200675000Y-93775000D03*
%TD*%
M02*
