%TF.GenerationSoftware,KiCad,Pcbnew,6.0.11-2627ca5db0~126~ubuntu22.04.1*%
%TF.CreationDate,2023-03-03T22:15:38-05:00*%
%TF.ProjectId,lin-coolant-temperature,6c696e2d-636f-46f6-9c61-6e742d74656d,1.0*%
%TF.SameCoordinates,Original*%
%TF.FileFunction,Copper,L1,Top*%
%TF.FilePolarity,Positive*%
%FSLAX46Y46*%
G04 Gerber Fmt 4.6, Leading zero omitted, Abs format (unit mm)*
G04 Created by KiCad (PCBNEW 6.0.11-2627ca5db0~126~ubuntu22.04.1) date 2023-03-03 22:15:38*
%MOMM*%
%LPD*%
G01*
G04 APERTURE LIST*
G04 Aperture macros list*
%AMRoundRect*
0 Rectangle with rounded corners*
0 $1 Rounding radius*
0 $2 $3 $4 $5 $6 $7 $8 $9 X,Y pos of 4 corners*
0 Add a 4 corners polygon primitive as box body*
4,1,4,$2,$3,$4,$5,$6,$7,$8,$9,$2,$3,0*
0 Add four circle primitives for the rounded corners*
1,1,$1+$1,$2,$3*
1,1,$1+$1,$4,$5*
1,1,$1+$1,$6,$7*
1,1,$1+$1,$8,$9*
0 Add four rect primitives between the rounded corners*
20,1,$1+$1,$2,$3,$4,$5,0*
20,1,$1+$1,$4,$5,$6,$7,0*
20,1,$1+$1,$6,$7,$8,$9,0*
20,1,$1+$1,$8,$9,$2,$3,0*%
G04 Aperture macros list end*
%TA.AperFunction,SMDPad,CuDef*%
%ADD10RoundRect,0.150000X0.150000X-0.587500X0.150000X0.587500X-0.150000X0.587500X-0.150000X-0.587500X0*%
%TD*%
%TA.AperFunction,ComponentPad*%
%ADD11R,1.700000X1.700000*%
%TD*%
%TA.AperFunction,ComponentPad*%
%ADD12O,1.700000X1.700000*%
%TD*%
%TA.AperFunction,ComponentPad*%
%ADD13R,1.879600X1.879600*%
%TD*%
%TA.AperFunction,ComponentPad*%
%ADD14C,1.879600*%
%TD*%
%TA.AperFunction,SMDPad,CuDef*%
%ADD15RoundRect,0.250000X0.400000X1.450000X-0.400000X1.450000X-0.400000X-1.450000X0.400000X-1.450000X0*%
%TD*%
%TA.AperFunction,SMDPad,CuDef*%
%ADD16RoundRect,0.250000X-0.337500X-0.475000X0.337500X-0.475000X0.337500X0.475000X-0.337500X0.475000X0*%
%TD*%
%TA.AperFunction,SMDPad,CuDef*%
%ADD17RoundRect,0.250000X-0.475000X0.337500X-0.475000X-0.337500X0.475000X-0.337500X0.475000X0.337500X0*%
%TD*%
%TA.AperFunction,SMDPad,CuDef*%
%ADD18RoundRect,0.250000X0.537500X0.425000X-0.537500X0.425000X-0.537500X-0.425000X0.537500X-0.425000X0*%
%TD*%
%TA.AperFunction,SMDPad,CuDef*%
%ADD19RoundRect,0.250000X0.412500X1.100000X-0.412500X1.100000X-0.412500X-1.100000X0.412500X-1.100000X0*%
%TD*%
%TA.AperFunction,SMDPad,CuDef*%
%ADD20RoundRect,0.150000X0.150000X-0.825000X0.150000X0.825000X-0.150000X0.825000X-0.150000X-0.825000X0*%
%TD*%
%TA.AperFunction,ComponentPad*%
%ADD21R,2.100000X2.100000*%
%TD*%
%TA.AperFunction,ComponentPad*%
%ADD22C,2.100000*%
%TD*%
%TA.AperFunction,SMDPad,CuDef*%
%ADD23R,0.400000X0.650000*%
%TD*%
%TA.AperFunction,SMDPad,CuDef*%
%ADD24RoundRect,0.100000X-0.637500X-0.100000X0.637500X-0.100000X0.637500X0.100000X-0.637500X0.100000X0*%
%TD*%
%TA.AperFunction,SMDPad,CuDef*%
%ADD25RoundRect,0.250000X-0.350000X-0.450000X0.350000X-0.450000X0.350000X0.450000X-0.350000X0.450000X0*%
%TD*%
%TA.AperFunction,SMDPad,CuDef*%
%ADD26RoundRect,0.250000X0.337500X0.475000X-0.337500X0.475000X-0.337500X-0.475000X0.337500X-0.475000X0*%
%TD*%
%TA.AperFunction,SMDPad,CuDef*%
%ADD27RoundRect,0.250000X0.450000X-0.350000X0.450000X0.350000X-0.450000X0.350000X-0.450000X-0.350000X0*%
%TD*%
%TA.AperFunction,SMDPad,CuDef*%
%ADD28RoundRect,0.250000X0.450000X-0.325000X0.450000X0.325000X-0.450000X0.325000X-0.450000X-0.325000X0*%
%TD*%
%TA.AperFunction,ViaPad*%
%ADD29C,0.800000*%
%TD*%
%TA.AperFunction,Conductor*%
%ADD30C,1.200000*%
%TD*%
%TA.AperFunction,Conductor*%
%ADD31C,0.250000*%
%TD*%
G04 APERTURE END LIST*
D10*
%TO.P,U4,1,GND*%
%TO.N,GND*%
X192220000Y-80095000D03*
%TO.P,U4,2,VO*%
%TO.N,+3V3*%
X194120000Y-80095000D03*
%TO.P,U4,3,VI*%
%TO.N,+5V*%
X193170000Y-78220000D03*
%TD*%
D11*
%TO.P,U3,1,Vout*%
%TO.N,+5V*%
X185600000Y-74790000D03*
D12*
%TO.P,U3,2,GND*%
%TO.N,GND*%
X185600000Y-72250000D03*
%TO.P,U3,3,Vin*%
%TO.N,+12V*%
X185600000Y-69710000D03*
%TO.P,U3,4,EN*%
%TO.N,unconnected-(U3-Pad4)*%
X185600000Y-67170000D03*
%TD*%
D13*
%TO.P,J1,1,DTR*%
%TO.N,unconnected-(J1-Pad1)*%
X226520000Y-91800000D03*
D14*
%TO.P,J1,2,RXD*%
%TO.N,UPDI*%
X223980000Y-91800000D03*
%TO.P,J1,3,TXD*%
%TO.N,Net-(R6-Pad2)*%
X221440000Y-91800000D03*
%TO.P,J1,4,VCC*%
%TO.N,Net-(JP1-Pad1)*%
X218900000Y-91800000D03*
%TO.P,J1,5,CTS*%
%TO.N,unconnected-(J1-Pad5)*%
X216360000Y-91800000D03*
%TO.P,J1,6,GND*%
%TO.N,GND*%
X213820000Y-91800000D03*
%TD*%
D15*
%TO.P,F1,1*%
%TO.N,+BATT*%
X219120000Y-64040000D03*
%TO.P,F1,2*%
%TO.N,+12V*%
X214670000Y-64040000D03*
%TD*%
D16*
%TO.P,C7,1*%
%TO.N,+5V*%
X196160000Y-78220000D03*
%TO.P,C7,2*%
%TO.N,GND*%
X198235000Y-78220000D03*
%TD*%
D17*
%TO.P,C6,1*%
%TO.N,+3V3*%
X194060000Y-82852500D03*
%TO.P,C6,2*%
%TO.N,GND*%
X194060000Y-84927500D03*
%TD*%
D18*
%TO.P,C5,1*%
%TO.N,+5V*%
X182420000Y-78480000D03*
%TO.P,C5,2*%
%TO.N,GND*%
X179545000Y-78480000D03*
%TD*%
D16*
%TO.P,C4,1*%
%TO.N,+5V*%
X185185000Y-78480000D03*
%TO.P,C4,2*%
%TO.N,GND*%
X187260000Y-78480000D03*
%TD*%
D19*
%TO.P,C3,1*%
%TO.N,+12V*%
X214610000Y-68490000D03*
%TO.P,C3,2*%
%TO.N,GND*%
X211485000Y-68490000D03*
%TD*%
D11*
%TO.P,J2,1,Pin_1*%
%TO.N,GND*%
X180150000Y-82100000D03*
D12*
%TO.P,J2,2,Pin_2*%
%TO.N,+5V*%
X182690000Y-82100000D03*
%TO.P,J2,3,Pin_3*%
%TO.N,SDA5V*%
X185230000Y-82100000D03*
%TO.P,J2,4,Pin_4*%
%TO.N,SCL5V*%
X187770000Y-82100000D03*
%TD*%
D20*
%TO.P,U1,1,RXD*%
%TO.N,RXD*%
X196670000Y-89800000D03*
%TO.P,U1,2,~{SLP}*%
%TO.N,~{LIN_SLP}*%
X197940000Y-89800000D03*
%TO.P,U1,3,~{WAKE}*%
%TO.N,~{LIN_WAKE}*%
X199210000Y-89800000D03*
%TO.P,U1,4,TXD*%
%TO.N,TXD*%
X200480000Y-89800000D03*
%TO.P,U1,5,GND*%
%TO.N,GND*%
X200480000Y-84850000D03*
%TO.P,U1,6,LIN*%
%TO.N,LIN*%
X199210000Y-84850000D03*
%TO.P,U1,7,VBAT*%
%TO.N,+12V*%
X197940000Y-84850000D03*
%TO.P,U1,8,INH*%
%TO.N,unconnected-(U1-Pad8)*%
X196670000Y-84850000D03*
%TD*%
D21*
%TO.P,J4,1,Pin_1*%
%TO.N,Net-(D4-Pad1)*%
X224750000Y-74075000D03*
D22*
%TO.P,J4,2,Pin_2*%
%TO.N,GND*%
X224750000Y-76615000D03*
%TD*%
D10*
%TO.P,Q1,1,G*%
%TO.N,SCL*%
X187400000Y-88475000D03*
%TO.P,Q1,2,S*%
X189300000Y-88475000D03*
%TO.P,Q1,3,D*%
%TO.N,SCL5V*%
X188350000Y-86600000D03*
%TD*%
D23*
%TO.P,U7,1,+*%
%TO.N,Net-(D5-Pad1)*%
X216400000Y-83675000D03*
%TO.P,U7,2,V-*%
%TO.N,GND*%
X215750000Y-83675000D03*
%TO.P,U7,3,-*%
%TO.N,VTHERM0*%
X215100000Y-83675000D03*
%TO.P,U7,4*%
X215100000Y-85575000D03*
%TO.P,U7,5,~{SHDN}*%
%TO.N,+3V3*%
X215750000Y-85575000D03*
%TO.P,U7,6,V+*%
X216400000Y-85575000D03*
%TD*%
D24*
%TO.P,U2,1,VCC*%
%TO.N,+3V3*%
X203237500Y-91975000D03*
%TO.P,U2,2,PA4*%
%TO.N,~{LIN_SLP}*%
X203237500Y-92625000D03*
%TO.P,U2,3,PA5*%
%TO.N,~{LIN_WAKE}*%
X203237500Y-93275000D03*
%TO.P,U2,4,PA6*%
%TO.N,unconnected-(U2-Pad4)*%
X203237500Y-93925000D03*
%TO.P,U2,5,PA7*%
%TO.N,Net-(R5-Pad1)*%
X203237500Y-94575000D03*
%TO.P,U2,6,PB3*%
%TO.N,RXD*%
X203237500Y-95225000D03*
%TO.P,U2,7,PB2*%
%TO.N,TXD*%
X203237500Y-95875000D03*
%TO.P,U2,8,PB1*%
%TO.N,SDA*%
X208962500Y-95875000D03*
%TO.P,U2,9,PB0*%
%TO.N,SCL*%
X208962500Y-95225000D03*
%TO.P,U2,10,~{RESET}/PA0*%
%TO.N,UPDI*%
X208962500Y-94575000D03*
%TO.P,U2,11,PA1*%
%TO.N,VTHERM0*%
X208962500Y-93925000D03*
%TO.P,U2,12,PA2*%
%TO.N,VTHERM1*%
X208962500Y-93275000D03*
%TO.P,U2,13,PA3*%
%TO.N,~{RESET}*%
X208962500Y-92625000D03*
%TO.P,U2,14,GND*%
%TO.N,GND*%
X208962500Y-91975000D03*
%TD*%
D25*
%TO.P,R1,1*%
%TO.N,+3V3*%
X193325000Y-93250000D03*
%TO.P,R1,2*%
%TO.N,RXD*%
X195325000Y-93250000D03*
%TD*%
D26*
%TO.P,C1,1*%
%TO.N,GND*%
X205300000Y-89775000D03*
%TO.P,C1,2*%
%TO.N,+3V3*%
X203225000Y-89775000D03*
%TD*%
D23*
%TO.P,U6,1,+*%
%TO.N,Net-(D4-Pad1)*%
X216600000Y-75600000D03*
%TO.P,U6,2,V-*%
%TO.N,GND*%
X215950000Y-75600000D03*
%TO.P,U6,3,-*%
%TO.N,VTHERM1*%
X215300000Y-75600000D03*
%TO.P,U6,4*%
X215300000Y-77500000D03*
%TO.P,U6,5,~{SHDN}*%
%TO.N,+3V3*%
X215950000Y-77500000D03*
%TO.P,U6,6,V+*%
X216600000Y-77500000D03*
%TD*%
D27*
%TO.P,R5,1*%
%TO.N,Net-(R5-Pad1)*%
X204025000Y-85350000D03*
%TO.P,R5,2*%
%TO.N,Net-(D1-Pad2)*%
X204025000Y-83350000D03*
%TD*%
D21*
%TO.P,J5,1,Pin_1*%
%TO.N,Net-(D5-Pad1)*%
X224750000Y-82030000D03*
D22*
%TO.P,J5,2,Pin_2*%
%TO.N,GND*%
X224750000Y-84570000D03*
%TD*%
D28*
%TO.P,D1,1,K*%
%TO.N,GND*%
X206450000Y-85350000D03*
%TO.P,D1,2,A*%
%TO.N,Net-(D1-Pad2)*%
X206450000Y-83300000D03*
%TD*%
D25*
%TO.P,R19,1*%
%TO.N,+3V3*%
X214600000Y-73775000D03*
%TO.P,R19,2*%
%TO.N,Net-(D4-Pad1)*%
X216600000Y-73775000D03*
%TD*%
D21*
%TO.P,J3,1,Pin_1*%
%TO.N,+BATT*%
X224700000Y-64000000D03*
D22*
%TO.P,J3,2,Pin_2*%
%TO.N,GND*%
X224700000Y-66540000D03*
%TO.P,J3,3,Pin_3*%
%TO.N,LIN*%
X224700000Y-69080000D03*
%TD*%
D25*
%TO.P,R20,1*%
%TO.N,+3V3*%
X214475000Y-81700000D03*
%TO.P,R20,2*%
%TO.N,Net-(D5-Pad1)*%
X216475000Y-81700000D03*
%TD*%
D10*
%TO.P,Q2,1,G*%
%TO.N,SDA*%
X183550000Y-88525000D03*
%TO.P,Q2,2,S*%
X185450000Y-88525000D03*
%TO.P,Q2,3,D*%
%TO.N,SDA5V*%
X184500000Y-86650000D03*
%TD*%
D25*
%TO.P,R2,1*%
%TO.N,+3V3*%
X198675000Y-93775000D03*
%TO.P,R2,2*%
%TO.N,TXD*%
X200675000Y-93775000D03*
%TD*%
D29*
%TO.N,GND*%
X194130000Y-86230000D03*
X199900000Y-78110000D03*
%TO.N,+5V*%
X194570000Y-78220000D03*
%TO.N,+3V3*%
X194120000Y-81610000D03*
%TO.N,GND*%
X191410000Y-81710000D03*
X189030000Y-78530000D03*
X177890000Y-78430000D03*
X209500000Y-68280000D03*
%TO.N,+3V3*%
X223880000Y-96860000D03*
%TO.N,Net-(JP1-Pad1)*%
X219610000Y-96670000D03*
%TO.N,UPDI*%
X210320000Y-94680000D03*
%TO.N,GND*%
X216306500Y-76517165D03*
X215982713Y-84558738D03*
X207550000Y-91950000D03*
X200500000Y-82850000D03*
X207600000Y-86525000D03*
X206625000Y-89750000D03*
%TO.N,LIN*%
X199200000Y-81575000D03*
%TO.N,TXD*%
X205680502Y-95003747D03*
X200550000Y-91800000D03*
%TO.N,~{LIN_SLP}*%
X197950000Y-91675000D03*
X205075000Y-92075000D03*
%TO.N,~{LIN_WAKE}*%
X204925000Y-93300000D03*
X199225000Y-91625000D03*
%TO.N,SDA*%
X206675000Y-96775000D03*
X185425000Y-90325000D03*
%TO.N,SCL*%
X206290576Y-95852382D03*
X187450000Y-90425000D03*
%TO.N,+3V3*%
X194225000Y-89700000D03*
X213125000Y-73775000D03*
X213050000Y-81675000D03*
X197475000Y-93675000D03*
X216975000Y-78700000D03*
X202850000Y-88175000D03*
X192025000Y-93200000D03*
X217500000Y-85725000D03*
X181950000Y-90050000D03*
X190550000Y-89975000D03*
%TO.N,Net-(R5-Pad1)*%
X205718792Y-93907371D03*
X203700000Y-86825000D03*
%TD*%
D30*
%TO.N,+BATT*%
X224700000Y-64000000D02*
X219160000Y-64000000D01*
D31*
X219160000Y-64000000D02*
X219120000Y-64040000D01*
%TO.N,GND*%
X194060000Y-86160000D02*
X194130000Y-86230000D01*
X194060000Y-84927500D02*
X194060000Y-86160000D01*
X199790000Y-78220000D02*
X199900000Y-78110000D01*
X198235000Y-78220000D02*
X199790000Y-78220000D01*
%TO.N,+5V*%
X193170000Y-78220000D02*
X194570000Y-78220000D01*
X196160000Y-78220000D02*
X194570000Y-78220000D01*
%TO.N,+3V3*%
X194120000Y-80095000D02*
X194120000Y-82792500D01*
X194120000Y-82792500D02*
X194060000Y-82852500D01*
%TO.N,GND*%
X191360000Y-81760000D02*
X191410000Y-81710000D01*
X191360000Y-81770000D02*
X191360000Y-81760000D01*
X192220000Y-80910000D02*
X191360000Y-81770000D01*
X192220000Y-80095000D02*
X192220000Y-80910000D01*
X188980000Y-78480000D02*
X189030000Y-78530000D01*
X187260000Y-78480000D02*
X188980000Y-78480000D01*
%TO.N,+5V*%
X182420000Y-78480000D02*
X182690000Y-78750000D01*
X182690000Y-78750000D02*
X182690000Y-82100000D01*
X182420000Y-78480000D02*
X185185000Y-78480000D01*
%TO.N,GND*%
X177940000Y-78480000D02*
X177890000Y-78430000D01*
X179545000Y-78480000D02*
X177940000Y-78480000D01*
X209710000Y-68490000D02*
X209500000Y-68280000D01*
X211485000Y-68490000D02*
X209710000Y-68490000D01*
%TO.N,UPDI*%
X210320000Y-94680000D02*
X210215000Y-94575000D01*
X210215000Y-94575000D02*
X208962500Y-94575000D01*
%TO.N,TXD*%
X205680502Y-95003747D02*
X205659249Y-95025000D01*
X205659249Y-95025000D02*
X204776041Y-95025000D01*
X204776041Y-95025000D02*
X203926041Y-95875000D01*
X203926041Y-95875000D02*
X203262500Y-95875000D01*
%TO.N,Net-(R5-Pad1)*%
X205051163Y-94575000D02*
X203237500Y-94575000D01*
X205718792Y-93907371D02*
X205051163Y-94575000D01*
%TO.N,GND*%
X208987500Y-91975000D02*
X207575000Y-91975000D01*
X200480000Y-84850000D02*
X200480000Y-82870000D01*
X205300000Y-89775000D02*
X206600000Y-89775000D01*
X207575000Y-91975000D02*
X207550000Y-91950000D01*
X215950000Y-76160665D02*
X216306500Y-76517165D01*
X215750000Y-83675000D02*
X215750000Y-84326025D01*
X206450000Y-85350000D02*
X206450000Y-85375000D01*
X200480000Y-82870000D02*
X200500000Y-82850000D01*
X206450000Y-85375000D02*
X207600000Y-86525000D01*
X215950000Y-75600000D02*
X215950000Y-76160665D01*
X206600000Y-89775000D02*
X206625000Y-89750000D01*
X215750000Y-84326025D02*
X215982713Y-84558738D01*
%TO.N,LIN*%
X199210000Y-84850000D02*
X199210000Y-81585000D01*
X199210000Y-81585000D02*
X199200000Y-81575000D01*
%TO.N,TXD*%
X200550000Y-91800000D02*
X200550000Y-89870000D01*
X200675000Y-91925000D02*
X200675000Y-93775000D01*
X200550000Y-91800000D02*
X200675000Y-91925000D01*
X200550000Y-89870000D02*
X200480000Y-89800000D01*
%TO.N,RXD*%
X196670000Y-93130000D02*
X196670000Y-89800000D01*
X196550000Y-93250000D02*
X196670000Y-93130000D01*
X197450000Y-95225000D02*
X196670000Y-94445000D01*
X203262500Y-95225000D02*
X197450000Y-95225000D01*
X195325000Y-93250000D02*
X196550000Y-93250000D01*
X196670000Y-94445000D02*
X196670000Y-93130000D01*
%TO.N,~{LIN_SLP}*%
X197950000Y-91675000D02*
X197940000Y-91665000D01*
X197940000Y-91665000D02*
X197940000Y-89800000D01*
X203262500Y-92625000D02*
X204525000Y-92625000D01*
X204525000Y-92625000D02*
X205075000Y-92075000D01*
X205075000Y-92075000D02*
X205325305Y-92075000D01*
%TO.N,~{LIN_WAKE}*%
X199225000Y-91625000D02*
X199225000Y-89815000D01*
X203237500Y-93275000D02*
X204900000Y-93275000D01*
X199225000Y-89815000D02*
X199210000Y-89800000D01*
X204900000Y-93275000D02*
X204925000Y-93300000D01*
%TO.N,VTHERM0*%
X210525000Y-93925000D02*
X208962500Y-93925000D01*
X215100000Y-83675000D02*
X215100000Y-85575000D01*
X211775000Y-92675000D02*
X210525000Y-93925000D01*
X211775000Y-90650000D02*
X211775000Y-92675000D01*
X215100000Y-87325000D02*
X211775000Y-90650000D01*
X215100000Y-85575000D02*
X215100000Y-87325000D01*
%TO.N,VTHERM1*%
X215300000Y-78175000D02*
X211175000Y-82300000D01*
X215300000Y-77500000D02*
X215300000Y-78175000D01*
X211175000Y-82300000D02*
X211175000Y-92350000D01*
X211175000Y-92350000D02*
X210250000Y-93275000D01*
X215300000Y-75600000D02*
X215300000Y-77500000D01*
X210250000Y-93275000D02*
X208962500Y-93275000D01*
%TO.N,unconnected-(J1-Pad5)*%
X216400000Y-91840000D02*
X216360000Y-91800000D01*
%TO.N,SDA*%
X185425000Y-88550000D02*
X185450000Y-88525000D01*
X208987500Y-95875000D02*
X207575000Y-95875000D01*
X207575000Y-95875000D02*
X206675000Y-96775000D01*
X185450000Y-88525000D02*
X183550000Y-88525000D01*
X185425000Y-90325000D02*
X185425000Y-88550000D01*
%TO.N,SCL*%
X187450000Y-88525000D02*
X187400000Y-88475000D01*
X187400000Y-88475000D02*
X189300000Y-88475000D01*
X208987500Y-95225000D02*
X206917958Y-95225000D01*
X206917958Y-95225000D02*
X206290576Y-95852382D01*
X187450000Y-90425000D02*
X187450000Y-88525000D01*
%TO.N,+3V3*%
X215950000Y-77500000D02*
X216600000Y-77500000D01*
X216600000Y-78325000D02*
X216975000Y-78700000D01*
X198675000Y-93775000D02*
X197575000Y-93775000D01*
X203225000Y-89775000D02*
X203225000Y-91937500D01*
X192075000Y-93250000D02*
X192025000Y-93200000D01*
X217350000Y-85575000D02*
X217500000Y-85725000D01*
X203225000Y-89775000D02*
X203225000Y-88550000D01*
X214475000Y-81700000D02*
X213075000Y-81700000D01*
X216400000Y-85575000D02*
X217350000Y-85575000D01*
X203225000Y-91937500D02*
X203262500Y-91975000D01*
X216600000Y-77500000D02*
X216600000Y-78325000D01*
X203225000Y-88550000D02*
X202850000Y-88175000D01*
X197575000Y-93775000D02*
X197475000Y-93675000D01*
X213075000Y-81700000D02*
X213050000Y-81675000D01*
X193325000Y-93250000D02*
X192075000Y-93250000D01*
X214600000Y-73775000D02*
X213125000Y-73775000D01*
X215750000Y-85575000D02*
X216400000Y-85575000D01*
%TO.N,SCL5V*%
X188350000Y-86600000D02*
X188350000Y-82680000D01*
X188350000Y-82680000D02*
X187770000Y-82100000D01*
%TO.N,SDA5V*%
X184500000Y-82830000D02*
X185230000Y-82100000D01*
X184500000Y-86650000D02*
X184500000Y-82830000D01*
%TO.N,Net-(D4-Pad1)*%
X216900000Y-74075000D02*
X224750000Y-74075000D01*
X216600000Y-73775000D02*
X216900000Y-74075000D01*
X216600000Y-75600000D02*
X216600000Y-73775000D01*
%TO.N,Net-(D1-Pad2)*%
X204025000Y-83350000D02*
X206400000Y-83350000D01*
X206400000Y-83350000D02*
X206450000Y-83300000D01*
%TO.N,Net-(D5-Pad1)*%
X216400000Y-83675000D02*
X216400000Y-81775000D01*
X216475000Y-81700000D02*
X216805000Y-82030000D01*
X216805000Y-82030000D02*
X224750000Y-82030000D01*
X216400000Y-81775000D02*
X216475000Y-81700000D01*
%TO.N,Net-(R5-Pad1)*%
X204025000Y-86500000D02*
X203700000Y-86825000D01*
X204025000Y-85350000D02*
X204025000Y-86500000D01*
%TD*%
%TA.AperFunction,Conductor*%
%TO.N,+12V*%
G36*
X230065621Y-58948502D02*
G01*
X230112114Y-59002158D01*
X230123500Y-59054500D01*
X230123500Y-100966071D01*
X230103498Y-101034192D01*
X230049842Y-101080685D01*
X229997614Y-101092071D01*
X175783994Y-101140950D01*
X175715855Y-101121009D01*
X175669314Y-101067396D01*
X175657880Y-101015096D01*
X175648814Y-93200000D01*
X191111496Y-93200000D01*
X191112186Y-93206565D01*
X191128893Y-93365519D01*
X191131458Y-93389928D01*
X191190473Y-93571556D01*
X191193776Y-93577278D01*
X191193777Y-93577279D01*
X191227686Y-93636010D01*
X191285960Y-93736944D01*
X191413747Y-93878866D01*
X191568248Y-93991118D01*
X191574276Y-93993802D01*
X191574278Y-93993803D01*
X191724669Y-94060761D01*
X191742712Y-94068794D01*
X191825951Y-94086487D01*
X191923056Y-94107128D01*
X191923061Y-94107128D01*
X191929513Y-94108500D01*
X192120487Y-94108500D01*
X192126939Y-94107128D01*
X192126944Y-94107128D01*
X192224049Y-94086487D01*
X192294840Y-94091889D01*
X192351472Y-94134706D01*
X192357389Y-94143429D01*
X192376522Y-94174348D01*
X192501697Y-94299305D01*
X192507927Y-94303145D01*
X192507928Y-94303146D01*
X192645090Y-94387694D01*
X192652262Y-94392115D01*
X192732005Y-94418564D01*
X192813611Y-94445632D01*
X192813613Y-94445632D01*
X192820139Y-94447797D01*
X192826975Y-94448497D01*
X192826978Y-94448498D01*
X192870031Y-94452909D01*
X192924600Y-94458500D01*
X193725400Y-94458500D01*
X193728646Y-94458163D01*
X193728650Y-94458163D01*
X193824308Y-94448238D01*
X193824312Y-94448237D01*
X193831166Y-94447526D01*
X193837702Y-94445345D01*
X193837704Y-94445345D01*
X193969806Y-94401272D01*
X193998946Y-94391550D01*
X194149348Y-94298478D01*
X194235784Y-94211891D01*
X194298066Y-94177812D01*
X194368886Y-94182815D01*
X194413976Y-94211736D01*
X194501697Y-94299305D01*
X194507927Y-94303145D01*
X194507928Y-94303146D01*
X194645090Y-94387694D01*
X194652262Y-94392115D01*
X194732005Y-94418564D01*
X194813611Y-94445632D01*
X194813613Y-94445632D01*
X194820139Y-94447797D01*
X194826975Y-94448497D01*
X194826978Y-94448498D01*
X194870031Y-94452909D01*
X194924600Y-94458500D01*
X195725400Y-94458500D01*
X195728646Y-94458163D01*
X195728650Y-94458163D01*
X195824308Y-94448238D01*
X195824312Y-94448237D01*
X195831166Y-94447526D01*
X195837701Y-94445346D01*
X195837709Y-94445344D01*
X195874125Y-94433194D01*
X195945074Y-94430608D01*
X196006159Y-94466792D01*
X196038451Y-94533005D01*
X196039078Y-94536963D01*
X196039327Y-94544889D01*
X196041539Y-94552503D01*
X196044978Y-94564339D01*
X196048987Y-94583700D01*
X196050330Y-94594327D01*
X196051526Y-94603797D01*
X196054445Y-94611168D01*
X196054445Y-94611170D01*
X196067804Y-94644912D01*
X196071649Y-94656142D01*
X196081771Y-94690983D01*
X196083982Y-94698593D01*
X196088015Y-94705412D01*
X196088017Y-94705417D01*
X196094293Y-94716028D01*
X196102988Y-94733776D01*
X196110448Y-94752617D01*
X196115110Y-94759033D01*
X196115110Y-94759034D01*
X196136436Y-94788387D01*
X196142952Y-94798307D01*
X196165458Y-94836362D01*
X196179779Y-94850683D01*
X196192619Y-94865716D01*
X196204528Y-94882107D01*
X196210634Y-94887158D01*
X196238605Y-94910298D01*
X196247384Y-94918288D01*
X196946343Y-95617247D01*
X196953887Y-95625537D01*
X196958000Y-95632018D01*
X196963777Y-95637443D01*
X197007667Y-95678658D01*
X197010509Y-95681413D01*
X197030231Y-95701135D01*
X197033355Y-95703558D01*
X197033359Y-95703562D01*
X197033424Y-95703612D01*
X197042445Y-95711317D01*
X197074679Y-95741586D01*
X197081627Y-95745405D01*
X197081629Y-95745407D01*
X197092432Y-95751346D01*
X197108959Y-95762202D01*
X197118698Y-95769757D01*
X197118700Y-95769758D01*
X197124960Y-95774614D01*
X197165540Y-95792174D01*
X197176188Y-95797391D01*
X197188012Y-95803891D01*
X197214940Y-95818695D01*
X197222616Y-95820666D01*
X197222619Y-95820667D01*
X197234562Y-95823733D01*
X197253267Y-95830137D01*
X197271855Y-95838181D01*
X197279678Y-95839420D01*
X197279688Y-95839423D01*
X197315524Y-95845099D01*
X197327144Y-95847505D01*
X197362289Y-95856528D01*
X197369970Y-95858500D01*
X197390224Y-95858500D01*
X197409934Y-95860051D01*
X197429943Y-95863220D01*
X197437835Y-95862474D01*
X197473961Y-95859059D01*
X197485819Y-95858500D01*
X201865501Y-95858500D01*
X201933622Y-95878502D01*
X201980115Y-95932158D01*
X201991501Y-95984499D01*
X201991501Y-96014884D01*
X202007162Y-96133850D01*
X202068476Y-96281876D01*
X202073502Y-96288426D01*
X202160985Y-96402434D01*
X202166013Y-96408987D01*
X202172563Y-96414013D01*
X202172566Y-96414016D01*
X202229569Y-96457756D01*
X202293125Y-96506524D01*
X202441150Y-96567838D01*
X202449338Y-96568916D01*
X202556021Y-96582961D01*
X202560115Y-96583500D01*
X203237417Y-96583500D01*
X203914884Y-96583499D01*
X203918969Y-96582961D01*
X203918973Y-96582961D01*
X204025663Y-96568916D01*
X204025665Y-96568916D01*
X204033850Y-96567838D01*
X204153951Y-96518091D01*
X204174248Y-96509684D01*
X204174250Y-96509683D01*
X204181876Y-96506524D01*
X204212896Y-96482721D01*
X204302436Y-96414014D01*
X204302437Y-96414013D01*
X204308987Y-96408987D01*
X204314014Y-96402436D01*
X204314016Y-96402434D01*
X204354968Y-96349064D01*
X204361970Y-96341328D01*
X204363148Y-96340472D01*
X204391339Y-96306395D01*
X204399329Y-96297616D01*
X204961347Y-95735598D01*
X205023659Y-95701572D01*
X205094474Y-95706637D01*
X205124497Y-95722753D01*
X205223750Y-95794865D01*
X205229776Y-95797548D01*
X205229783Y-95797552D01*
X205311799Y-95834067D01*
X205365895Y-95880047D01*
X205385861Y-95936004D01*
X205394152Y-96014885D01*
X205397034Y-96042310D01*
X205456049Y-96223938D01*
X205551536Y-96389326D01*
X205679323Y-96531248D01*
X205684664Y-96535128D01*
X205684669Y-96535133D01*
X205720616Y-96561250D01*
X205763969Y-96617472D01*
X205771864Y-96676356D01*
X205761496Y-96775000D01*
X205781458Y-96964928D01*
X205840473Y-97146556D01*
X205935960Y-97311944D01*
X206063747Y-97453866D01*
X206218248Y-97566118D01*
X206224276Y-97568802D01*
X206224278Y-97568803D01*
X206386681Y-97641109D01*
X206392712Y-97643794D01*
X206486113Y-97663647D01*
X206573056Y-97682128D01*
X206573061Y-97682128D01*
X206579513Y-97683500D01*
X206770487Y-97683500D01*
X206776939Y-97682128D01*
X206776944Y-97682128D01*
X206863887Y-97663647D01*
X206957288Y-97643794D01*
X206963319Y-97641109D01*
X207125722Y-97568803D01*
X207125724Y-97568802D01*
X207131752Y-97566118D01*
X207286253Y-97453866D01*
X207414040Y-97311944D01*
X207509527Y-97146556D01*
X207568542Y-96964928D01*
X207585907Y-96799706D01*
X207612920Y-96734050D01*
X207622122Y-96723782D01*
X207675904Y-96670000D01*
X218696496Y-96670000D01*
X218697186Y-96676565D01*
X218710129Y-96799707D01*
X218716458Y-96859928D01*
X218775473Y-97041556D01*
X218778776Y-97047278D01*
X218778777Y-97047279D01*
X218783931Y-97056206D01*
X218870960Y-97206944D01*
X218998747Y-97348866D01*
X219071676Y-97401852D01*
X219143267Y-97453866D01*
X219153248Y-97461118D01*
X219159276Y-97463802D01*
X219159278Y-97463803D01*
X219316843Y-97533955D01*
X219327712Y-97538794D01*
X219421112Y-97558647D01*
X219508056Y-97577128D01*
X219508061Y-97577128D01*
X219514513Y-97578500D01*
X219705487Y-97578500D01*
X219711939Y-97577128D01*
X219711944Y-97577128D01*
X219798888Y-97558647D01*
X219892288Y-97538794D01*
X219903157Y-97533955D01*
X220060722Y-97463803D01*
X220060724Y-97463802D01*
X220066752Y-97461118D01*
X220076734Y-97453866D01*
X220148324Y-97401852D01*
X220221253Y-97348866D01*
X220349040Y-97206944D01*
X220436069Y-97056206D01*
X220441223Y-97047279D01*
X220441224Y-97047278D01*
X220444527Y-97041556D01*
X220503519Y-96860000D01*
X222966496Y-96860000D01*
X222967186Y-96866565D01*
X222984918Y-97035271D01*
X222986458Y-97049928D01*
X223045473Y-97231556D01*
X223140960Y-97396944D01*
X223268747Y-97538866D01*
X223423248Y-97651118D01*
X223429276Y-97653802D01*
X223429278Y-97653803D01*
X223591681Y-97726109D01*
X223597712Y-97728794D01*
X223691112Y-97748647D01*
X223778056Y-97767128D01*
X223778061Y-97767128D01*
X223784513Y-97768500D01*
X223975487Y-97768500D01*
X223981939Y-97767128D01*
X223981944Y-97767128D01*
X224068888Y-97748647D01*
X224162288Y-97728794D01*
X224168319Y-97726109D01*
X224330722Y-97653803D01*
X224330724Y-97653802D01*
X224336752Y-97651118D01*
X224491253Y-97538866D01*
X224619040Y-97396944D01*
X224714527Y-97231556D01*
X224773542Y-97049928D01*
X224775083Y-97035271D01*
X224792814Y-96866565D01*
X224793504Y-96860000D01*
X224773542Y-96670072D01*
X224714527Y-96488444D01*
X224709694Y-96480072D01*
X224634056Y-96349064D01*
X224619040Y-96323056D01*
X224604039Y-96306395D01*
X224495675Y-96186045D01*
X224495674Y-96186044D01*
X224491253Y-96181134D01*
X224336752Y-96068882D01*
X224330724Y-96066198D01*
X224330722Y-96066197D01*
X224168319Y-95993891D01*
X224168318Y-95993891D01*
X224162288Y-95991206D01*
X224068888Y-95971353D01*
X223981944Y-95952872D01*
X223981939Y-95952872D01*
X223975487Y-95951500D01*
X223784513Y-95951500D01*
X223778061Y-95952872D01*
X223778056Y-95952872D01*
X223691113Y-95971353D01*
X223597712Y-95991206D01*
X223591682Y-95993891D01*
X223591681Y-95993891D01*
X223429278Y-96066197D01*
X223429276Y-96066198D01*
X223423248Y-96068882D01*
X223268747Y-96181134D01*
X223264326Y-96186044D01*
X223264325Y-96186045D01*
X223155962Y-96306395D01*
X223140960Y-96323056D01*
X223125944Y-96349064D01*
X223050307Y-96480072D01*
X223045473Y-96488444D01*
X222986458Y-96670072D01*
X222966496Y-96860000D01*
X220503519Y-96860000D01*
X220503542Y-96859928D01*
X220509872Y-96799707D01*
X220522814Y-96676565D01*
X220523504Y-96670000D01*
X220514413Y-96583500D01*
X220504232Y-96486635D01*
X220504232Y-96486633D01*
X220503542Y-96480072D01*
X220444527Y-96298444D01*
X220434962Y-96281876D01*
X220352341Y-96138774D01*
X220349040Y-96133056D01*
X220342383Y-96125662D01*
X220225675Y-95996045D01*
X220225674Y-95996044D01*
X220221253Y-95991134D01*
X220066752Y-95878882D01*
X220060724Y-95876198D01*
X220060722Y-95876197D01*
X219898319Y-95803891D01*
X219898318Y-95803891D01*
X219892288Y-95801206D01*
X219798888Y-95781353D01*
X219711944Y-95762872D01*
X219711939Y-95762872D01*
X219705487Y-95761500D01*
X219514513Y-95761500D01*
X219508061Y-95762872D01*
X219508056Y-95762872D01*
X219421113Y-95781353D01*
X219327712Y-95801206D01*
X219321682Y-95803891D01*
X219321681Y-95803891D01*
X219159278Y-95876197D01*
X219159276Y-95876198D01*
X219153248Y-95878882D01*
X218998747Y-95991134D01*
X218994326Y-95996044D01*
X218994325Y-95996045D01*
X218877618Y-96125662D01*
X218870960Y-96133056D01*
X218867659Y-96138774D01*
X218785039Y-96281876D01*
X218775473Y-96298444D01*
X218716458Y-96480072D01*
X218715768Y-96486633D01*
X218715768Y-96486635D01*
X218705587Y-96583500D01*
X218696496Y-96670000D01*
X207675904Y-96670000D01*
X207800499Y-96545405D01*
X207862811Y-96511379D01*
X207889594Y-96508500D01*
X207997832Y-96508500D01*
X208046050Y-96518091D01*
X208166150Y-96567838D01*
X208174338Y-96568916D01*
X208281021Y-96582961D01*
X208285115Y-96583500D01*
X208962417Y-96583500D01*
X209639884Y-96583499D01*
X209643969Y-96582961D01*
X209643973Y-96582961D01*
X209750663Y-96568916D01*
X209750665Y-96568916D01*
X209758850Y-96567838D01*
X209878951Y-96518091D01*
X209899248Y-96509684D01*
X209899250Y-96509683D01*
X209906876Y-96506524D01*
X209937896Y-96482721D01*
X210027436Y-96414014D01*
X210027437Y-96414013D01*
X210033987Y-96408987D01*
X210039014Y-96402436D01*
X210039016Y-96402434D01*
X210095537Y-96328774D01*
X210131524Y-96281875D01*
X210192838Y-96133850D01*
X210204889Y-96042310D01*
X210207962Y-96018972D01*
X210207962Y-96018971D01*
X210208500Y-96014885D01*
X210208499Y-95735116D01*
X210207949Y-95730941D01*
X210207953Y-95730915D01*
X210207691Y-95726913D01*
X210208587Y-95726854D01*
X210218891Y-95660794D01*
X210266021Y-95607697D01*
X210332872Y-95588500D01*
X210415487Y-95588500D01*
X210421939Y-95587128D01*
X210421944Y-95587128D01*
X210508887Y-95568647D01*
X210602288Y-95548794D01*
X210608319Y-95546109D01*
X210770722Y-95473803D01*
X210770724Y-95473802D01*
X210776752Y-95471118D01*
X210931253Y-95358866D01*
X211059040Y-95216944D01*
X211154527Y-95051556D01*
X211213542Y-94869928D01*
X211217788Y-94829535D01*
X211232814Y-94686565D01*
X211233504Y-94680000D01*
X211225384Y-94602744D01*
X211214232Y-94496635D01*
X211214232Y-94496633D01*
X211213542Y-94490072D01*
X211154527Y-94308444D01*
X211152987Y-94305776D01*
X211143729Y-94236703D01*
X211173838Y-94172407D01*
X211179174Y-94166731D01*
X212167253Y-93178652D01*
X212175539Y-93171112D01*
X212182018Y-93167000D01*
X212193706Y-93154554D01*
X212228643Y-93117349D01*
X212231398Y-93114507D01*
X212251135Y-93094770D01*
X212253615Y-93091573D01*
X212261320Y-93082551D01*
X212286159Y-93056100D01*
X212291586Y-93050321D01*
X212295405Y-93043375D01*
X212295407Y-93043372D01*
X212301348Y-93032566D01*
X212312199Y-93016047D01*
X212319758Y-93006301D01*
X212324614Y-93000041D01*
X212327759Y-92992772D01*
X212327762Y-92992768D01*
X212342174Y-92959463D01*
X212347391Y-92948813D01*
X212368695Y-92910060D01*
X212373733Y-92890437D01*
X212380137Y-92871734D01*
X212385033Y-92860420D01*
X212385033Y-92860419D01*
X212388181Y-92853145D01*
X212389420Y-92845322D01*
X212389423Y-92845312D01*
X212395099Y-92809476D01*
X212397505Y-92797856D01*
X212406528Y-92762711D01*
X212406528Y-92762710D01*
X212408500Y-92755030D01*
X212408500Y-92734776D01*
X212410051Y-92715068D01*
X212412486Y-92699692D01*
X212442897Y-92635538D01*
X212503164Y-92598010D01*
X212574154Y-92599022D01*
X212633326Y-92638254D01*
X212644360Y-92653553D01*
X212644569Y-92653894D01*
X212644577Y-92653905D01*
X212647274Y-92658306D01*
X212803204Y-92838317D01*
X212986442Y-92990444D01*
X212990894Y-92993046D01*
X212990899Y-92993049D01*
X213166875Y-93095881D01*
X213192065Y-93110601D01*
X213414552Y-93195560D01*
X213419618Y-93196591D01*
X213419619Y-93196591D01*
X213436375Y-93200000D01*
X213647928Y-93243041D01*
X213781284Y-93247931D01*
X213880760Y-93251579D01*
X213880764Y-93251579D01*
X213885924Y-93251768D01*
X213891044Y-93251112D01*
X213891046Y-93251112D01*
X214117023Y-93222164D01*
X214117024Y-93222164D01*
X214122151Y-93221507D01*
X214205200Y-93196591D01*
X214345316Y-93154554D01*
X214345317Y-93154553D01*
X214350262Y-93153070D01*
X214564133Y-93048295D01*
X214568336Y-93045297D01*
X214568341Y-93045294D01*
X214753816Y-92912996D01*
X214753818Y-92912994D01*
X214758020Y-92909997D01*
X214926716Y-92741889D01*
X214984979Y-92660807D01*
X215040972Y-92617160D01*
X215111676Y-92610714D01*
X215174640Y-92643516D01*
X215186582Y-92657176D01*
X215187274Y-92658306D01*
X215343204Y-92838317D01*
X215526442Y-92990444D01*
X215530894Y-92993046D01*
X215530899Y-92993049D01*
X215706875Y-93095881D01*
X215732065Y-93110601D01*
X215954552Y-93195560D01*
X215959618Y-93196591D01*
X215959619Y-93196591D01*
X215976375Y-93200000D01*
X216187928Y-93243041D01*
X216321284Y-93247931D01*
X216420760Y-93251579D01*
X216420764Y-93251579D01*
X216425924Y-93251768D01*
X216431044Y-93251112D01*
X216431046Y-93251112D01*
X216657023Y-93222164D01*
X216657024Y-93222164D01*
X216662151Y-93221507D01*
X216745200Y-93196591D01*
X216885316Y-93154554D01*
X216885317Y-93154553D01*
X216890262Y-93153070D01*
X217104133Y-93048295D01*
X217108336Y-93045297D01*
X217108341Y-93045294D01*
X217293816Y-92912996D01*
X217293818Y-92912994D01*
X217298020Y-92909997D01*
X217466716Y-92741889D01*
X217524979Y-92660807D01*
X217580972Y-92617160D01*
X217651676Y-92610714D01*
X217714640Y-92643516D01*
X217726582Y-92657176D01*
X217727274Y-92658306D01*
X217883204Y-92838317D01*
X218066442Y-92990444D01*
X218070894Y-92993046D01*
X218070899Y-92993049D01*
X218246875Y-93095881D01*
X218272065Y-93110601D01*
X218494552Y-93195560D01*
X218499618Y-93196591D01*
X218499619Y-93196591D01*
X218516375Y-93200000D01*
X218727928Y-93243041D01*
X218861284Y-93247931D01*
X218960760Y-93251579D01*
X218960764Y-93251579D01*
X218965924Y-93251768D01*
X218971044Y-93251112D01*
X218971046Y-93251112D01*
X219197023Y-93222164D01*
X219197024Y-93222164D01*
X219202151Y-93221507D01*
X219285200Y-93196591D01*
X219425316Y-93154554D01*
X219425317Y-93154553D01*
X219430262Y-93153070D01*
X219644133Y-93048295D01*
X219648336Y-93045297D01*
X219648341Y-93045294D01*
X219833816Y-92912996D01*
X219833818Y-92912994D01*
X219838020Y-92909997D01*
X220006716Y-92741889D01*
X220064979Y-92660807D01*
X220120972Y-92617160D01*
X220191676Y-92610714D01*
X220254640Y-92643516D01*
X220266582Y-92657176D01*
X220267274Y-92658306D01*
X220423204Y-92838317D01*
X220606442Y-92990444D01*
X220610894Y-92993046D01*
X220610899Y-92993049D01*
X220786875Y-93095881D01*
X220812065Y-93110601D01*
X221034552Y-93195560D01*
X221039618Y-93196591D01*
X221039619Y-93196591D01*
X221056375Y-93200000D01*
X221267928Y-93243041D01*
X221401284Y-93247931D01*
X221500760Y-93251579D01*
X221500764Y-93251579D01*
X221505924Y-93251768D01*
X221511044Y-93251112D01*
X221511046Y-93251112D01*
X221737023Y-93222164D01*
X221737024Y-93222164D01*
X221742151Y-93221507D01*
X221825200Y-93196591D01*
X221965316Y-93154554D01*
X221965317Y-93154553D01*
X221970262Y-93153070D01*
X222184133Y-93048295D01*
X222188336Y-93045297D01*
X222188341Y-93045294D01*
X222373816Y-92912996D01*
X222373818Y-92912994D01*
X222378020Y-92909997D01*
X222546716Y-92741889D01*
X222604979Y-92660807D01*
X222660972Y-92617160D01*
X222731676Y-92610714D01*
X222794640Y-92643516D01*
X222806582Y-92657176D01*
X222807274Y-92658306D01*
X222963204Y-92838317D01*
X223146442Y-92990444D01*
X223150894Y-92993046D01*
X223150899Y-92993049D01*
X223326875Y-93095881D01*
X223352065Y-93110601D01*
X223574552Y-93195560D01*
X223579618Y-93196591D01*
X223579619Y-93196591D01*
X223596375Y-93200000D01*
X223807928Y-93243041D01*
X223941284Y-93247931D01*
X224040760Y-93251579D01*
X224040764Y-93251579D01*
X224045924Y-93251768D01*
X224051044Y-93251112D01*
X224051046Y-93251112D01*
X224277023Y-93222164D01*
X224277024Y-93222164D01*
X224282151Y-93221507D01*
X224365200Y-93196591D01*
X224505316Y-93154554D01*
X224505317Y-93154553D01*
X224510262Y-93153070D01*
X224724133Y-93048295D01*
X224728336Y-93045297D01*
X224728341Y-93045294D01*
X224913810Y-92913000D01*
X224918020Y-92909997D01*
X224920601Y-92907425D01*
X224985135Y-92878913D01*
X225055278Y-92889886D01*
X225108355Y-92937039D01*
X225119502Y-92959610D01*
X225129585Y-92986505D01*
X225216939Y-93103061D01*
X225333495Y-93190415D01*
X225469884Y-93241545D01*
X225532066Y-93248300D01*
X227507934Y-93248300D01*
X227570116Y-93241545D01*
X227706505Y-93190415D01*
X227823061Y-93103061D01*
X227910415Y-92986505D01*
X227961545Y-92850116D01*
X227968300Y-92787934D01*
X227968300Y-90812066D01*
X227961545Y-90749884D01*
X227910415Y-90613495D01*
X227823061Y-90496939D01*
X227706505Y-90409585D01*
X227570116Y-90358455D01*
X227507934Y-90351700D01*
X225532066Y-90351700D01*
X225469884Y-90358455D01*
X225333495Y-90409585D01*
X225216939Y-90496939D01*
X225129585Y-90613495D01*
X225126433Y-90621903D01*
X225118218Y-90643816D01*
X225075576Y-90700580D01*
X225009014Y-90725280D01*
X224939666Y-90710072D01*
X224922144Y-90698468D01*
X224788278Y-90592747D01*
X224788273Y-90592744D01*
X224784224Y-90589546D01*
X224779708Y-90587053D01*
X224779705Y-90587051D01*
X224580250Y-90476946D01*
X224580246Y-90476944D01*
X224575726Y-90474449D01*
X224570857Y-90472725D01*
X224570853Y-90472723D01*
X224356105Y-90396676D01*
X224356101Y-90396675D01*
X224351230Y-90394950D01*
X224346140Y-90394043D01*
X224346135Y-90394042D01*
X224218814Y-90371364D01*
X224116764Y-90353186D01*
X224025355Y-90352069D01*
X223883795Y-90350339D01*
X223883793Y-90350339D01*
X223878625Y-90350276D01*
X223643209Y-90386300D01*
X223416838Y-90460289D01*
X223357616Y-90491118D01*
X223244740Y-90549878D01*
X223205590Y-90570258D01*
X223201457Y-90573361D01*
X223201454Y-90573363D01*
X223019375Y-90710072D01*
X223015140Y-90713252D01*
X222850602Y-90885431D01*
X222825723Y-90921902D01*
X222815186Y-90937349D01*
X222760274Y-90982351D01*
X222689749Y-90990522D01*
X222626002Y-90959267D01*
X222605306Y-90934784D01*
X222594217Y-90917642D01*
X222594212Y-90917636D01*
X222591406Y-90913298D01*
X222549144Y-90866852D01*
X222528472Y-90844134D01*
X222431124Y-90737150D01*
X222427073Y-90733951D01*
X222427069Y-90733947D01*
X222248278Y-90592747D01*
X222248273Y-90592744D01*
X222244224Y-90589546D01*
X222239708Y-90587053D01*
X222239705Y-90587051D01*
X222040250Y-90476946D01*
X222040246Y-90476944D01*
X222035726Y-90474449D01*
X222030857Y-90472725D01*
X222030853Y-90472723D01*
X221816105Y-90396676D01*
X221816101Y-90396675D01*
X221811230Y-90394950D01*
X221806140Y-90394043D01*
X221806135Y-90394042D01*
X221678814Y-90371364D01*
X221576764Y-90353186D01*
X221485355Y-90352069D01*
X221343795Y-90350339D01*
X221343793Y-90350339D01*
X221338625Y-90350276D01*
X221103209Y-90386300D01*
X220876838Y-90460289D01*
X220817616Y-90491118D01*
X220704740Y-90549878D01*
X220665590Y-90570258D01*
X220661457Y-90573361D01*
X220661454Y-90573363D01*
X220479375Y-90710072D01*
X220475140Y-90713252D01*
X220310602Y-90885431D01*
X220285723Y-90921902D01*
X220275186Y-90937349D01*
X220220274Y-90982351D01*
X220149749Y-90990522D01*
X220086002Y-90959267D01*
X220065306Y-90934784D01*
X220054217Y-90917642D01*
X220054212Y-90917636D01*
X220051406Y-90913298D01*
X220009144Y-90866852D01*
X219988472Y-90844134D01*
X219891124Y-90737150D01*
X219887073Y-90733951D01*
X219887069Y-90733947D01*
X219708278Y-90592747D01*
X219708273Y-90592744D01*
X219704224Y-90589546D01*
X219699708Y-90587053D01*
X219699705Y-90587051D01*
X219500250Y-90476946D01*
X219500246Y-90476944D01*
X219495726Y-90474449D01*
X219490857Y-90472725D01*
X219490853Y-90472723D01*
X219276105Y-90396676D01*
X219276101Y-90396675D01*
X219271230Y-90394950D01*
X219266140Y-90394043D01*
X219266135Y-90394042D01*
X219138814Y-90371364D01*
X219036764Y-90353186D01*
X218945355Y-90352069D01*
X218803795Y-90350339D01*
X218803793Y-90350339D01*
X218798625Y-90350276D01*
X218563209Y-90386300D01*
X218336838Y-90460289D01*
X218277616Y-90491118D01*
X218164740Y-90549878D01*
X218125590Y-90570258D01*
X218121457Y-90573361D01*
X218121454Y-90573363D01*
X217939375Y-90710072D01*
X217935140Y-90713252D01*
X217770602Y-90885431D01*
X217745723Y-90921902D01*
X217735186Y-90937349D01*
X217680274Y-90982351D01*
X217609749Y-90990522D01*
X217546002Y-90959267D01*
X217525306Y-90934784D01*
X217514217Y-90917642D01*
X217514212Y-90917636D01*
X217511406Y-90913298D01*
X217469144Y-90866852D01*
X217448472Y-90844134D01*
X217351124Y-90737150D01*
X217347073Y-90733951D01*
X217347069Y-90733947D01*
X217168278Y-90592747D01*
X217168273Y-90592744D01*
X217164224Y-90589546D01*
X217159708Y-90587053D01*
X217159705Y-90587051D01*
X216960250Y-90476946D01*
X216960246Y-90476944D01*
X216955726Y-90474449D01*
X216950857Y-90472725D01*
X216950853Y-90472723D01*
X216736105Y-90396676D01*
X216736101Y-90396675D01*
X216731230Y-90394950D01*
X216726140Y-90394043D01*
X216726135Y-90394042D01*
X216598814Y-90371364D01*
X216496764Y-90353186D01*
X216405355Y-90352069D01*
X216263795Y-90350339D01*
X216263793Y-90350339D01*
X216258625Y-90350276D01*
X216023209Y-90386300D01*
X215796838Y-90460289D01*
X215737616Y-90491118D01*
X215624740Y-90549878D01*
X215585590Y-90570258D01*
X215581457Y-90573361D01*
X215581454Y-90573363D01*
X215399375Y-90710072D01*
X215395140Y-90713252D01*
X215230602Y-90885431D01*
X215205723Y-90921902D01*
X215195186Y-90937349D01*
X215140274Y-90982351D01*
X215069749Y-90990522D01*
X215006002Y-90959267D01*
X214985306Y-90934784D01*
X214974217Y-90917642D01*
X214974212Y-90917636D01*
X214971406Y-90913298D01*
X214929144Y-90866852D01*
X214908472Y-90844134D01*
X214811124Y-90737150D01*
X214807073Y-90733951D01*
X214807069Y-90733947D01*
X214628278Y-90592747D01*
X214628273Y-90592744D01*
X214624224Y-90589546D01*
X214619708Y-90587053D01*
X214619705Y-90587051D01*
X214420250Y-90476946D01*
X214420246Y-90476944D01*
X214415726Y-90474449D01*
X214410857Y-90472725D01*
X214410853Y-90472723D01*
X214196105Y-90396676D01*
X214196101Y-90396675D01*
X214191230Y-90394950D01*
X214186140Y-90394043D01*
X214186135Y-90394042D01*
X214058814Y-90371364D01*
X213956764Y-90353186D01*
X213865355Y-90352069D01*
X213723795Y-90350339D01*
X213723793Y-90350339D01*
X213718625Y-90350276D01*
X213483209Y-90386300D01*
X213256838Y-90460289D01*
X213252250Y-90462677D01*
X213252246Y-90462679D01*
X213156532Y-90512505D01*
X213086873Y-90526218D01*
X213020857Y-90500093D01*
X212979446Y-90442425D01*
X212975787Y-90371522D01*
X213009257Y-90311647D01*
X213953654Y-89367251D01*
X215492253Y-87828652D01*
X215500539Y-87821112D01*
X215507018Y-87817000D01*
X215553644Y-87767348D01*
X215556398Y-87764507D01*
X215576135Y-87744770D01*
X215578615Y-87741573D01*
X215586320Y-87732551D01*
X215611159Y-87706100D01*
X215616586Y-87700321D01*
X215620405Y-87693375D01*
X215620407Y-87693372D01*
X215626348Y-87682566D01*
X215637199Y-87666047D01*
X215644758Y-87656301D01*
X215649614Y-87650041D01*
X215652759Y-87642772D01*
X215652762Y-87642768D01*
X215667174Y-87609463D01*
X215672391Y-87598813D01*
X215693695Y-87560060D01*
X215698733Y-87540437D01*
X215705137Y-87521734D01*
X215710033Y-87510420D01*
X215710033Y-87510419D01*
X215713181Y-87503145D01*
X215714420Y-87495322D01*
X215714423Y-87495312D01*
X215720099Y-87459476D01*
X215722505Y-87447856D01*
X215731528Y-87412711D01*
X215731528Y-87412710D01*
X215733500Y-87405030D01*
X215733500Y-87384776D01*
X215735051Y-87365065D01*
X215736980Y-87352886D01*
X215738220Y-87345057D01*
X215734059Y-87301038D01*
X215733500Y-87289181D01*
X215733500Y-86534500D01*
X215753502Y-86466379D01*
X215807158Y-86419886D01*
X215859500Y-86408500D01*
X215998134Y-86408500D01*
X216040792Y-86403866D01*
X216060316Y-86401745D01*
X216060580Y-86404174D01*
X216089420Y-86404174D01*
X216089684Y-86401745D01*
X216109209Y-86403866D01*
X216151866Y-86408500D01*
X216648134Y-86408500D01*
X216710316Y-86401745D01*
X216717717Y-86398970D01*
X216717719Y-86398970D01*
X216763695Y-86381734D01*
X216834502Y-86376550D01*
X216888520Y-86404179D01*
X216888747Y-86403866D01*
X216894089Y-86407747D01*
X216894091Y-86407749D01*
X217033553Y-86509074D01*
X217043248Y-86516118D01*
X217049276Y-86518802D01*
X217049278Y-86518803D01*
X217097018Y-86540058D01*
X217217712Y-86593794D01*
X217281154Y-86607279D01*
X217398056Y-86632128D01*
X217398061Y-86632128D01*
X217404513Y-86633500D01*
X217595487Y-86633500D01*
X217601939Y-86632128D01*
X217601944Y-86632128D01*
X217718846Y-86607279D01*
X217782288Y-86593794D01*
X217902982Y-86540058D01*
X217950722Y-86518803D01*
X217950724Y-86518802D01*
X217956752Y-86516118D01*
X218111253Y-86403866D01*
X218115675Y-86398955D01*
X218234621Y-86266852D01*
X218234622Y-86266851D01*
X218239040Y-86261944D01*
X218334527Y-86096556D01*
X218393542Y-85914928D01*
X218400773Y-85846134D01*
X218412814Y-85731565D01*
X218413504Y-85725000D01*
X218401682Y-85612520D01*
X218394232Y-85541635D01*
X218394232Y-85541633D01*
X218393542Y-85535072D01*
X218334527Y-85353444D01*
X218239040Y-85188056D01*
X218111253Y-85046134D01*
X217956752Y-84933882D01*
X217950724Y-84931198D01*
X217950722Y-84931197D01*
X217788319Y-84858891D01*
X217788318Y-84858891D01*
X217782288Y-84856206D01*
X217688888Y-84836353D01*
X217601944Y-84817872D01*
X217601939Y-84817872D01*
X217595487Y-84816500D01*
X217404513Y-84816500D01*
X217398061Y-84817872D01*
X217398056Y-84817872D01*
X217311112Y-84836353D01*
X217217712Y-84856206D01*
X217211685Y-84858889D01*
X217211677Y-84858892D01*
X217098386Y-84909332D01*
X217028019Y-84918766D01*
X216965229Y-84889365D01*
X216963261Y-84886739D01*
X216926373Y-84859093D01*
X216883860Y-84802234D01*
X216876630Y-84745098D01*
X216895527Y-84565303D01*
X216896217Y-84558738D01*
X216895367Y-84550652D01*
X216889542Y-84495226D01*
X216902314Y-84425388D01*
X216939286Y-84381231D01*
X216956074Y-84368649D01*
X216956081Y-84368642D01*
X216963261Y-84363261D01*
X216968642Y-84356081D01*
X216968645Y-84356078D01*
X217035208Y-84267262D01*
X217050615Y-84246705D01*
X217101745Y-84110316D01*
X217108500Y-84048134D01*
X217108500Y-83301866D01*
X217101745Y-83239684D01*
X217050615Y-83103295D01*
X217048264Y-83100158D01*
X217033500Y-83042450D01*
X217033500Y-82970857D01*
X217053502Y-82902736D01*
X217107158Y-82856243D01*
X217119622Y-82851334D01*
X217141995Y-82843870D01*
X217142002Y-82843867D01*
X217148946Y-82841550D01*
X217299348Y-82748478D01*
X217304521Y-82743296D01*
X217304526Y-82743292D01*
X217347260Y-82700483D01*
X217409542Y-82666403D01*
X217436433Y-82663500D01*
X223065500Y-82663500D01*
X223133621Y-82683502D01*
X223180114Y-82737158D01*
X223191500Y-82789500D01*
X223191500Y-83128134D01*
X223198255Y-83190316D01*
X223249385Y-83326705D01*
X223336739Y-83443261D01*
X223421783Y-83506998D01*
X223433965Y-83516128D01*
X223476479Y-83572988D01*
X223481504Y-83643806D01*
X223465832Y-83682788D01*
X223357073Y-83860268D01*
X223263195Y-84086908D01*
X223243949Y-84167075D01*
X223210224Y-84307550D01*
X223205928Y-84325443D01*
X223186681Y-84570000D01*
X223205928Y-84814557D01*
X223207082Y-84819364D01*
X223207083Y-84819370D01*
X223219272Y-84870139D01*
X223263195Y-85053092D01*
X223357073Y-85279732D01*
X223485248Y-85488896D01*
X223488463Y-85492660D01*
X223488465Y-85492663D01*
X223617525Y-85643771D01*
X223644567Y-85675433D01*
X223648323Y-85678641D01*
X223781134Y-85792073D01*
X223831104Y-85834752D01*
X223835327Y-85837340D01*
X223835330Y-85837342D01*
X223904515Y-85879738D01*
X224040268Y-85962927D01*
X224170806Y-86016998D01*
X224262335Y-86054911D01*
X224262337Y-86054912D01*
X224266908Y-86056805D01*
X224342613Y-86074980D01*
X224500630Y-86112917D01*
X224500636Y-86112918D01*
X224505443Y-86114072D01*
X224750000Y-86133319D01*
X224994557Y-86114072D01*
X224999364Y-86112918D01*
X224999370Y-86112917D01*
X225157387Y-86074980D01*
X225233092Y-86056805D01*
X225237663Y-86054912D01*
X225237665Y-86054911D01*
X225329194Y-86016998D01*
X225459732Y-85962927D01*
X225595485Y-85879738D01*
X225664670Y-85837342D01*
X225664673Y-85837340D01*
X225668896Y-85834752D01*
X225718867Y-85792073D01*
X225851677Y-85678641D01*
X225855433Y-85675433D01*
X225882475Y-85643771D01*
X226011535Y-85492663D01*
X226011537Y-85492660D01*
X226014752Y-85488896D01*
X226142927Y-85279732D01*
X226236805Y-85053092D01*
X226280728Y-84870139D01*
X226292917Y-84819370D01*
X226292918Y-84819364D01*
X226294072Y-84814557D01*
X226313319Y-84570000D01*
X226294072Y-84325443D01*
X226289777Y-84307550D01*
X226256051Y-84167075D01*
X226236805Y-84086908D01*
X226142927Y-83860268D01*
X226034168Y-83682788D01*
X226015630Y-83614255D01*
X226037087Y-83546578D01*
X226066035Y-83516128D01*
X226078217Y-83506998D01*
X226163261Y-83443261D01*
X226250615Y-83326705D01*
X226301745Y-83190316D01*
X226308500Y-83128134D01*
X226308500Y-80931866D01*
X226301745Y-80869684D01*
X226250615Y-80733295D01*
X226163261Y-80616739D01*
X226046705Y-80529385D01*
X225910316Y-80478255D01*
X225848134Y-80471500D01*
X223651866Y-80471500D01*
X223589684Y-80478255D01*
X223453295Y-80529385D01*
X223336739Y-80616739D01*
X223249385Y-80733295D01*
X223198255Y-80869684D01*
X223191500Y-80931866D01*
X223191500Y-81270500D01*
X223171498Y-81338621D01*
X223117842Y-81385114D01*
X223065500Y-81396500D01*
X217709500Y-81396500D01*
X217641379Y-81376498D01*
X217594886Y-81322842D01*
X217583500Y-81270500D01*
X217583500Y-81199600D01*
X217579917Y-81165064D01*
X217573238Y-81100692D01*
X217573237Y-81100688D01*
X217572526Y-81093834D01*
X217568123Y-81080635D01*
X217519142Y-80933822D01*
X217516550Y-80926054D01*
X217423478Y-80775652D01*
X217298303Y-80650695D01*
X217292072Y-80646854D01*
X217153968Y-80561725D01*
X217153966Y-80561724D01*
X217147738Y-80557885D01*
X216987254Y-80504655D01*
X216986389Y-80504368D01*
X216986387Y-80504368D01*
X216979861Y-80502203D01*
X216973025Y-80501503D01*
X216973022Y-80501502D01*
X216929969Y-80497091D01*
X216875400Y-80491500D01*
X216074600Y-80491500D01*
X216071354Y-80491837D01*
X216071350Y-80491837D01*
X215975692Y-80501762D01*
X215975688Y-80501763D01*
X215968834Y-80502474D01*
X215962298Y-80504655D01*
X215962296Y-80504655D01*
X215888172Y-80529385D01*
X215801054Y-80558450D01*
X215650652Y-80651522D01*
X215569022Y-80733295D01*
X215564216Y-80738109D01*
X215501934Y-80772188D01*
X215431114Y-80767185D01*
X215386025Y-80738264D01*
X215303483Y-80655866D01*
X215298303Y-80650695D01*
X215292072Y-80646854D01*
X215153968Y-80561725D01*
X215153966Y-80561724D01*
X215147738Y-80557885D01*
X214987254Y-80504655D01*
X214986389Y-80504368D01*
X214986387Y-80504368D01*
X214979861Y-80502203D01*
X214973025Y-80501503D01*
X214973022Y-80501502D01*
X214929969Y-80497091D01*
X214875400Y-80491500D01*
X214183594Y-80491500D01*
X214115473Y-80471498D01*
X214068980Y-80417842D01*
X214058876Y-80347568D01*
X214088370Y-80282988D01*
X214094499Y-80276405D01*
X214762405Y-79608500D01*
X215692253Y-78678652D01*
X215700539Y-78671112D01*
X215707018Y-78667000D01*
X215753644Y-78617348D01*
X215756398Y-78614507D01*
X215776135Y-78594770D01*
X215778615Y-78591573D01*
X215786321Y-78582550D01*
X215812773Y-78554382D01*
X215873986Y-78518417D01*
X215944926Y-78521256D01*
X216003069Y-78561997D01*
X216013288Y-78579002D01*
X216013981Y-78578592D01*
X216024293Y-78596028D01*
X216032988Y-78613776D01*
X216040448Y-78632617D01*
X216045107Y-78639030D01*
X216046603Y-78641751D01*
X216061514Y-78699830D01*
X216061496Y-78700000D01*
X216062186Y-78706565D01*
X216077177Y-78849193D01*
X216081458Y-78889928D01*
X216140473Y-79071556D01*
X216235960Y-79236944D01*
X216240378Y-79241851D01*
X216240379Y-79241852D01*
X216326166Y-79337128D01*
X216363747Y-79378866D01*
X216445826Y-79438500D01*
X216499348Y-79477386D01*
X216518248Y-79491118D01*
X216524276Y-79493802D01*
X216524278Y-79493803D01*
X216668796Y-79558146D01*
X216692712Y-79568794D01*
X216786112Y-79588647D01*
X216873056Y-79607128D01*
X216873061Y-79607128D01*
X216879513Y-79608500D01*
X217070487Y-79608500D01*
X217076939Y-79607128D01*
X217076944Y-79607128D01*
X217163888Y-79588647D01*
X217257288Y-79568794D01*
X217281204Y-79558146D01*
X217425722Y-79493803D01*
X217425724Y-79493802D01*
X217431752Y-79491118D01*
X217450653Y-79477386D01*
X217504174Y-79438500D01*
X217586253Y-79378866D01*
X217623834Y-79337128D01*
X217709621Y-79241852D01*
X217709622Y-79241851D01*
X217714040Y-79236944D01*
X217809527Y-79071556D01*
X217868542Y-78889928D01*
X217872824Y-78849193D01*
X217887814Y-78706565D01*
X217888504Y-78700000D01*
X217879667Y-78615921D01*
X217869232Y-78516635D01*
X217869232Y-78516633D01*
X217868542Y-78510072D01*
X217809527Y-78328444D01*
X217714040Y-78163056D01*
X217704735Y-78152721D01*
X217590675Y-78026045D01*
X217590674Y-78026044D01*
X217586253Y-78021134D01*
X217431752Y-77908882D01*
X217425724Y-77906198D01*
X217425722Y-77906197D01*
X217383251Y-77887288D01*
X217329155Y-77841308D01*
X217308500Y-77772181D01*
X217308500Y-77126866D01*
X217301745Y-77064684D01*
X217250615Y-76928295D01*
X217233501Y-76905459D01*
X217204411Y-76866645D01*
X217179563Y-76800138D01*
X217185404Y-76752144D01*
X217198002Y-76713371D01*
X217200042Y-76707093D01*
X217210240Y-76610070D01*
X217219314Y-76523730D01*
X217220004Y-76517165D01*
X217200042Y-76327237D01*
X217198002Y-76320960D01*
X217196809Y-76315346D01*
X217202210Y-76244555D01*
X217219229Y-76213583D01*
X217245229Y-76178891D01*
X217250615Y-76171705D01*
X217301745Y-76035316D01*
X217308500Y-75973134D01*
X217308500Y-75226866D01*
X217301745Y-75164684D01*
X217298971Y-75157284D01*
X217298971Y-75157282D01*
X217257336Y-75046222D01*
X217252153Y-74975415D01*
X217286074Y-74913046D01*
X217309015Y-74894849D01*
X217418120Y-74827332D01*
X217424348Y-74823478D01*
X217502209Y-74745482D01*
X217564490Y-74711403D01*
X217591381Y-74708500D01*
X223065500Y-74708500D01*
X223133621Y-74728502D01*
X223180114Y-74782158D01*
X223191500Y-74834500D01*
X223191500Y-75173134D01*
X223198255Y-75235316D01*
X223249385Y-75371705D01*
X223336739Y-75488261D01*
X223427013Y-75555918D01*
X223433965Y-75561128D01*
X223476479Y-75617988D01*
X223481504Y-75688806D01*
X223465832Y-75727788D01*
X223357073Y-75905268D01*
X223263195Y-76131908D01*
X223248158Y-76194541D01*
X223216301Y-76327237D01*
X223205928Y-76370443D01*
X223186681Y-76615000D01*
X223205928Y-76859557D01*
X223207082Y-76864364D01*
X223207083Y-76864370D01*
X223239562Y-76999655D01*
X223263195Y-77098092D01*
X223265088Y-77102663D01*
X223265089Y-77102665D01*
X223275114Y-77126866D01*
X223357073Y-77324732D01*
X223419896Y-77427251D01*
X223478493Y-77522872D01*
X223485248Y-77533896D01*
X223488463Y-77537660D01*
X223488465Y-77537663D01*
X223561241Y-77622872D01*
X223644567Y-77720433D01*
X223648323Y-77723641D01*
X223819355Y-77869717D01*
X223831104Y-77879752D01*
X223835327Y-77882340D01*
X223835330Y-77882342D01*
X223875533Y-77906978D01*
X224040268Y-78007927D01*
X224148410Y-78052721D01*
X224262335Y-78099911D01*
X224262337Y-78099912D01*
X224266908Y-78101805D01*
X224301043Y-78110000D01*
X224500630Y-78157917D01*
X224500636Y-78157918D01*
X224505443Y-78159072D01*
X224750000Y-78178319D01*
X224994557Y-78159072D01*
X224999364Y-78157918D01*
X224999370Y-78157917D01*
X225198957Y-78110000D01*
X225233092Y-78101805D01*
X225237663Y-78099912D01*
X225237665Y-78099911D01*
X225351590Y-78052721D01*
X225459732Y-78007927D01*
X225624467Y-77906978D01*
X225664670Y-77882342D01*
X225664673Y-77882340D01*
X225668896Y-77879752D01*
X225680646Y-77869717D01*
X225851677Y-77723641D01*
X225855433Y-77720433D01*
X225938759Y-77622872D01*
X226011535Y-77537663D01*
X226011537Y-77537660D01*
X226014752Y-77533896D01*
X226021508Y-77522872D01*
X226080104Y-77427251D01*
X226142927Y-77324732D01*
X226224886Y-77126866D01*
X226234911Y-77102665D01*
X226234912Y-77102663D01*
X226236805Y-77098092D01*
X226260438Y-76999655D01*
X226292917Y-76864370D01*
X226292918Y-76864364D01*
X226294072Y-76859557D01*
X226313319Y-76615000D01*
X226294072Y-76370443D01*
X226283700Y-76327237D01*
X226251842Y-76194541D01*
X226236805Y-76131908D01*
X226142927Y-75905268D01*
X226034168Y-75727788D01*
X226015630Y-75659255D01*
X226037087Y-75591578D01*
X226066035Y-75561128D01*
X226072987Y-75555918D01*
X226163261Y-75488261D01*
X226250615Y-75371705D01*
X226301745Y-75235316D01*
X226308500Y-75173134D01*
X226308500Y-72976866D01*
X226301745Y-72914684D01*
X226250615Y-72778295D01*
X226163261Y-72661739D01*
X226046705Y-72574385D01*
X225910316Y-72523255D01*
X225848134Y-72516500D01*
X223651866Y-72516500D01*
X223589684Y-72523255D01*
X223453295Y-72574385D01*
X223336739Y-72661739D01*
X223249385Y-72778295D01*
X223198255Y-72914684D01*
X223191500Y-72976866D01*
X223191500Y-73315500D01*
X223171498Y-73383621D01*
X223117842Y-73430114D01*
X223065500Y-73441500D01*
X217834500Y-73441500D01*
X217766379Y-73421498D01*
X217719886Y-73367842D01*
X217708500Y-73315500D01*
X217708500Y-73274600D01*
X217705302Y-73243774D01*
X217698238Y-73175692D01*
X217698237Y-73175688D01*
X217697526Y-73168834D01*
X217641550Y-73001054D01*
X217548478Y-72850652D01*
X217423303Y-72725695D01*
X217319548Y-72661739D01*
X217278968Y-72636725D01*
X217278966Y-72636724D01*
X217272738Y-72632885D01*
X217192995Y-72606436D01*
X217111389Y-72579368D01*
X217111387Y-72579368D01*
X217104861Y-72577203D01*
X217098025Y-72576503D01*
X217098022Y-72576502D01*
X217054969Y-72572091D01*
X217000400Y-72566500D01*
X216199600Y-72566500D01*
X216196354Y-72566837D01*
X216196350Y-72566837D01*
X216100692Y-72576762D01*
X216100688Y-72576763D01*
X216093834Y-72577474D01*
X216087298Y-72579655D01*
X216087296Y-72579655D01*
X215955194Y-72623728D01*
X215926054Y-72633450D01*
X215775652Y-72726522D01*
X215770479Y-72731704D01*
X215689216Y-72813109D01*
X215626934Y-72847188D01*
X215556114Y-72842185D01*
X215511025Y-72813264D01*
X215428483Y-72730866D01*
X215423303Y-72725695D01*
X215319548Y-72661739D01*
X215278968Y-72636725D01*
X215278966Y-72636724D01*
X215272738Y-72632885D01*
X215192995Y-72606436D01*
X215111389Y-72579368D01*
X215111387Y-72579368D01*
X215104861Y-72577203D01*
X215098025Y-72576503D01*
X215098022Y-72576502D01*
X215054969Y-72572091D01*
X215000400Y-72566500D01*
X214199600Y-72566500D01*
X214196354Y-72566837D01*
X214196350Y-72566837D01*
X214100692Y-72576762D01*
X214100688Y-72576763D01*
X214093834Y-72577474D01*
X214087298Y-72579655D01*
X214087296Y-72579655D01*
X213955194Y-72623728D01*
X213926054Y-72633450D01*
X213775652Y-72726522D01*
X213650695Y-72851697D01*
X213640725Y-72867872D01*
X213629744Y-72885686D01*
X213576972Y-72933179D01*
X213506901Y-72944603D01*
X213471235Y-72934677D01*
X213467871Y-72933179D01*
X213407288Y-72906206D01*
X213310750Y-72885686D01*
X213226944Y-72867872D01*
X213226939Y-72867872D01*
X213220487Y-72866500D01*
X213029513Y-72866500D01*
X213023061Y-72867872D01*
X213023056Y-72867872D01*
X212939250Y-72885686D01*
X212842712Y-72906206D01*
X212836682Y-72908891D01*
X212836681Y-72908891D01*
X212674278Y-72981197D01*
X212674276Y-72981198D01*
X212668248Y-72983882D01*
X212662907Y-72987762D01*
X212662906Y-72987763D01*
X212644613Y-73001054D01*
X212513747Y-73096134D01*
X212509326Y-73101044D01*
X212509325Y-73101045D01*
X212454175Y-73162296D01*
X212385960Y-73238056D01*
X212290473Y-73403444D01*
X212231458Y-73585072D01*
X212211496Y-73775000D01*
X212231458Y-73964928D01*
X212290473Y-74146556D01*
X212385960Y-74311944D01*
X212513747Y-74453866D01*
X212668248Y-74566118D01*
X212674276Y-74568802D01*
X212674278Y-74568803D01*
X212825121Y-74635962D01*
X212842712Y-74643794D01*
X212936113Y-74663647D01*
X213023056Y-74682128D01*
X213023061Y-74682128D01*
X213029513Y-74683500D01*
X213220487Y-74683500D01*
X213226939Y-74682128D01*
X213226944Y-74682128D01*
X213313888Y-74663647D01*
X213407288Y-74643794D01*
X213413315Y-74641111D01*
X213413323Y-74641108D01*
X213471313Y-74615289D01*
X213541680Y-74605855D01*
X213605977Y-74635962D01*
X213629704Y-74664091D01*
X213651522Y-74699348D01*
X213776697Y-74824305D01*
X213782927Y-74828145D01*
X213782928Y-74828146D01*
X213920661Y-74913046D01*
X213927262Y-74917115D01*
X213966242Y-74930044D01*
X214088611Y-74970632D01*
X214088613Y-74970632D01*
X214095139Y-74972797D01*
X214101975Y-74973497D01*
X214101978Y-74973498D01*
X214145031Y-74977909D01*
X214199600Y-74983500D01*
X214484379Y-74983500D01*
X214552500Y-75003502D01*
X214598993Y-75057158D01*
X214609097Y-75127432D01*
X214602363Y-75153725D01*
X214598255Y-75164684D01*
X214591500Y-75226866D01*
X214591500Y-75973134D01*
X214598255Y-76035316D01*
X214649385Y-76171705D01*
X214651736Y-76174842D01*
X214666500Y-76232550D01*
X214666500Y-76867450D01*
X214651736Y-76925158D01*
X214649385Y-76928295D01*
X214598255Y-77064684D01*
X214591500Y-77126866D01*
X214591500Y-77873134D01*
X214591869Y-77876529D01*
X214591869Y-77876533D01*
X214596196Y-77916366D01*
X214583667Y-77986249D01*
X214560028Y-78019068D01*
X210782747Y-81796348D01*
X210774461Y-81803888D01*
X210767982Y-81808000D01*
X210762557Y-81813777D01*
X210721357Y-81857651D01*
X210718602Y-81860493D01*
X210698865Y-81880230D01*
X210696385Y-81883427D01*
X210688682Y-81892447D01*
X210658414Y-81924679D01*
X210654595Y-81931625D01*
X210654593Y-81931628D01*
X210648652Y-81942434D01*
X210637801Y-81958953D01*
X210625386Y-81974959D01*
X210622241Y-81982228D01*
X210622238Y-81982232D01*
X210607826Y-82015537D01*
X210602609Y-82026187D01*
X210581305Y-82064940D01*
X210579334Y-82072615D01*
X210579334Y-82072616D01*
X210576267Y-82084562D01*
X210569863Y-82103266D01*
X210568584Y-82106223D01*
X210561819Y-82121855D01*
X210560580Y-82129678D01*
X210560577Y-82129688D01*
X210554901Y-82165524D01*
X210552495Y-82177144D01*
X210550213Y-82186032D01*
X210541500Y-82219970D01*
X210541500Y-82240224D01*
X210539949Y-82259934D01*
X210536780Y-82279943D01*
X210537526Y-82287835D01*
X210540941Y-82323961D01*
X210541500Y-82335819D01*
X210541500Y-92035406D01*
X210521498Y-92103527D01*
X210504595Y-92124501D01*
X210423488Y-92205608D01*
X210361176Y-92239634D01*
X210290361Y-92234569D01*
X210233525Y-92192022D01*
X210208714Y-92125502D01*
X210208683Y-92114885D01*
X210208500Y-92114885D01*
X210208499Y-91839239D01*
X210208499Y-91835116D01*
X210204741Y-91806565D01*
X210193916Y-91724337D01*
X210193916Y-91724335D01*
X210192838Y-91716150D01*
X210151618Y-91616635D01*
X210134684Y-91575752D01*
X210134683Y-91575750D01*
X210131524Y-91568124D01*
X210056160Y-91469909D01*
X210039014Y-91447564D01*
X210039013Y-91447563D01*
X210033987Y-91441013D01*
X210027436Y-91435986D01*
X210027434Y-91435984D01*
X209970431Y-91392244D01*
X209906875Y-91343476D01*
X209758850Y-91282162D01*
X209712387Y-91276045D01*
X209643972Y-91267038D01*
X209643971Y-91267038D01*
X209639885Y-91266500D01*
X208962583Y-91266500D01*
X208285116Y-91266501D01*
X208281032Y-91267039D01*
X208281026Y-91267039D01*
X208224693Y-91274455D01*
X208154544Y-91263515D01*
X208134187Y-91251469D01*
X208012094Y-91162763D01*
X208012093Y-91162762D01*
X208006752Y-91158882D01*
X208000724Y-91156198D01*
X208000722Y-91156197D01*
X207838319Y-91083891D01*
X207838318Y-91083891D01*
X207832288Y-91081206D01*
X207738887Y-91061353D01*
X207651944Y-91042872D01*
X207651939Y-91042872D01*
X207645487Y-91041500D01*
X207454513Y-91041500D01*
X207448061Y-91042872D01*
X207448056Y-91042872D01*
X207361113Y-91061353D01*
X207267712Y-91081206D01*
X207261682Y-91083891D01*
X207261681Y-91083891D01*
X207099278Y-91156197D01*
X207099276Y-91156198D01*
X207093248Y-91158882D01*
X207087907Y-91162762D01*
X207087906Y-91162763D01*
X207045196Y-91193794D01*
X206938747Y-91271134D01*
X206934326Y-91276044D01*
X206934325Y-91276045D01*
X206826197Y-91396134D01*
X206810960Y-91413056D01*
X206715473Y-91578444D01*
X206656458Y-91760072D01*
X206655768Y-91766633D01*
X206655768Y-91766635D01*
X206648137Y-91839239D01*
X206636496Y-91950000D01*
X206637186Y-91956565D01*
X206654837Y-92124501D01*
X206656458Y-92139928D01*
X206715473Y-92321556D01*
X206718776Y-92327278D01*
X206718777Y-92327279D01*
X206724357Y-92336944D01*
X206810960Y-92486944D01*
X206815378Y-92491851D01*
X206815379Y-92491852D01*
X206928207Y-92617160D01*
X206938747Y-92628866D01*
X206996713Y-92670981D01*
X207067857Y-92722670D01*
X207093248Y-92741118D01*
X207099276Y-92743802D01*
X207099278Y-92743803D01*
X207254943Y-92813109D01*
X207267712Y-92818794D01*
X207342680Y-92834729D01*
X207448056Y-92857128D01*
X207448061Y-92857128D01*
X207454513Y-92858500D01*
X207611314Y-92858500D01*
X207679435Y-92878502D01*
X207725928Y-92932158D01*
X207736032Y-93002432D01*
X207734253Y-93011101D01*
X207732162Y-93016150D01*
X207731085Y-93024334D01*
X207731084Y-93024336D01*
X207719727Y-93110601D01*
X207716500Y-93135115D01*
X207716501Y-93414884D01*
X207732162Y-93533850D01*
X207739589Y-93551780D01*
X207747179Y-93622370D01*
X207739590Y-93648218D01*
X207732162Y-93666150D01*
X207716500Y-93785115D01*
X207716501Y-94064884D01*
X207717039Y-94068969D01*
X207717039Y-94068973D01*
X207730911Y-94174348D01*
X207732162Y-94183850D01*
X207735322Y-94191478D01*
X207739589Y-94201780D01*
X207747179Y-94272370D01*
X207739590Y-94298218D01*
X207738163Y-94301661D01*
X207735354Y-94308444D01*
X207732162Y-94316150D01*
X207716500Y-94435115D01*
X207716500Y-94465500D01*
X207696498Y-94533621D01*
X207642842Y-94580114D01*
X207590500Y-94591500D01*
X206996725Y-94591500D01*
X206985542Y-94590973D01*
X206978049Y-94589298D01*
X206970123Y-94589547D01*
X206970122Y-94589547D01*
X206909972Y-94591438D01*
X206906013Y-94591500D01*
X206878102Y-94591500D01*
X206874168Y-94591997D01*
X206874167Y-94591997D01*
X206874102Y-94592005D01*
X206862265Y-94592938D01*
X206830448Y-94593938D01*
X206825987Y-94594078D01*
X206818068Y-94594327D01*
X206800412Y-94599456D01*
X206798616Y-94599978D01*
X206779264Y-94603986D01*
X206772193Y-94604880D01*
X206759161Y-94606526D01*
X206751792Y-94609443D01*
X206751790Y-94609444D01*
X206718055Y-94622800D01*
X206706827Y-94626645D01*
X206664365Y-94638982D01*
X206657545Y-94643016D01*
X206651547Y-94645611D01*
X206581085Y-94654308D01*
X206517106Y-94623530D01*
X206492389Y-94592978D01*
X206468567Y-94551717D01*
X206451830Y-94482725D01*
X206468568Y-94425719D01*
X206486640Y-94394419D01*
X206532651Y-94314725D01*
X206550015Y-94284650D01*
X206550016Y-94284649D01*
X206553319Y-94278927D01*
X206612334Y-94097299D01*
X206613471Y-94086487D01*
X206631606Y-93913936D01*
X206632296Y-93907371D01*
X206619017Y-93781028D01*
X206613024Y-93724006D01*
X206613024Y-93724004D01*
X206612334Y-93717443D01*
X206553319Y-93535815D01*
X206457832Y-93370427D01*
X206350401Y-93251112D01*
X206334467Y-93233416D01*
X206334466Y-93233415D01*
X206330045Y-93228505D01*
X206175544Y-93116253D01*
X206169516Y-93113569D01*
X206169514Y-93113568D01*
X206007111Y-93041262D01*
X206007110Y-93041262D01*
X206001080Y-93038577D01*
X205850399Y-93006549D01*
X205787927Y-92972821D01*
X205761529Y-92934606D01*
X205759527Y-92928444D01*
X205718353Y-92857128D01*
X205715257Y-92851766D01*
X205698520Y-92782771D01*
X205721741Y-92715679D01*
X205730741Y-92704457D01*
X205809621Y-92616852D01*
X205809622Y-92616851D01*
X205814040Y-92611944D01*
X205909527Y-92446556D01*
X205968542Y-92264928D01*
X205971201Y-92239634D01*
X205987814Y-92081565D01*
X205988504Y-92075000D01*
X205986034Y-92051502D01*
X205969232Y-91891635D01*
X205969232Y-91891633D01*
X205968542Y-91885072D01*
X205909527Y-91703444D01*
X205814040Y-91538056D01*
X205727764Y-91442236D01*
X205690675Y-91401045D01*
X205690674Y-91401044D01*
X205686253Y-91396134D01*
X205531752Y-91283882D01*
X205525724Y-91281198D01*
X205525722Y-91281197D01*
X205454769Y-91249607D01*
X205400673Y-91203627D01*
X205380024Y-91135700D01*
X205399376Y-91067391D01*
X205452587Y-91020390D01*
X205506018Y-91008500D01*
X205687900Y-91008500D01*
X205691146Y-91008163D01*
X205691150Y-91008163D01*
X205786808Y-90998238D01*
X205786812Y-90998237D01*
X205793666Y-90997526D01*
X205800202Y-90995345D01*
X205800204Y-90995345D01*
X205933499Y-90950874D01*
X205961446Y-90941550D01*
X206111848Y-90848478D01*
X206236805Y-90723303D01*
X206240648Y-90717069D01*
X206259436Y-90686590D01*
X206312208Y-90639097D01*
X206382280Y-90627675D01*
X206392889Y-90629459D01*
X206423279Y-90635919D01*
X206523056Y-90657128D01*
X206523061Y-90657128D01*
X206529513Y-90658500D01*
X206720487Y-90658500D01*
X206726939Y-90657128D01*
X206726944Y-90657128D01*
X206813887Y-90638647D01*
X206907288Y-90618794D01*
X206913319Y-90616109D01*
X207075722Y-90543803D01*
X207075724Y-90543802D01*
X207081752Y-90541118D01*
X207109159Y-90521206D01*
X207150571Y-90491118D01*
X207236253Y-90428866D01*
X207329774Y-90325000D01*
X207359621Y-90291852D01*
X207359622Y-90291851D01*
X207364040Y-90286944D01*
X207459527Y-90121556D01*
X207518542Y-89939928D01*
X207538504Y-89750000D01*
X207527047Y-89640991D01*
X207519232Y-89566635D01*
X207519232Y-89566633D01*
X207518542Y-89560072D01*
X207459527Y-89378444D01*
X207364040Y-89213056D01*
X207336220Y-89182158D01*
X207240675Y-89076045D01*
X207240674Y-89076044D01*
X207236253Y-89071134D01*
X207081752Y-88958882D01*
X207075724Y-88956198D01*
X207075722Y-88956197D01*
X206913319Y-88883891D01*
X206913318Y-88883891D01*
X206907288Y-88881206D01*
X206813887Y-88861353D01*
X206726944Y-88842872D01*
X206726939Y-88842872D01*
X206720487Y-88841500D01*
X206529513Y-88841500D01*
X206523061Y-88842872D01*
X206523056Y-88842872D01*
X206364540Y-88876566D01*
X206293749Y-88871164D01*
X206239691Y-88831651D01*
X206235978Y-88825652D01*
X206110803Y-88700695D01*
X205993385Y-88628317D01*
X205966468Y-88611725D01*
X205966466Y-88611724D01*
X205960238Y-88607885D01*
X205880495Y-88581436D01*
X205798889Y-88554368D01*
X205798887Y-88554368D01*
X205792361Y-88552203D01*
X205785525Y-88551503D01*
X205785522Y-88551502D01*
X205737246Y-88546556D01*
X205687900Y-88541500D01*
X204912100Y-88541500D01*
X204908854Y-88541837D01*
X204908850Y-88541837D01*
X204813192Y-88551762D01*
X204813188Y-88551763D01*
X204806334Y-88552474D01*
X204799798Y-88554655D01*
X204799796Y-88554655D01*
X204737182Y-88575545D01*
X204638554Y-88608450D01*
X204488152Y-88701522D01*
X204363195Y-88826697D01*
X204360594Y-88830916D01*
X204303470Y-88871417D01*
X204232547Y-88874649D01*
X204171135Y-88839024D01*
X204164578Y-88831470D01*
X204160978Y-88825652D01*
X204035803Y-88700695D01*
X203918383Y-88628316D01*
X203870891Y-88575545D01*
X203858500Y-88521057D01*
X203858500Y-88510144D01*
X203857995Y-88506144D01*
X203857062Y-88494301D01*
X203856566Y-88478502D01*
X203855673Y-88450110D01*
X203850022Y-88430658D01*
X203846014Y-88411306D01*
X203844467Y-88399063D01*
X203843474Y-88391203D01*
X203835037Y-88369892D01*
X203827200Y-88350097D01*
X203823355Y-88338870D01*
X203822721Y-88336687D01*
X203811018Y-88296407D01*
X203800707Y-88278972D01*
X203792012Y-88261224D01*
X203784552Y-88242383D01*
X203779893Y-88235970D01*
X203778397Y-88233249D01*
X203763486Y-88175170D01*
X203763504Y-88175000D01*
X203743542Y-87985072D01*
X203713681Y-87893169D01*
X203711654Y-87822201D01*
X203748316Y-87761404D01*
X203807317Y-87730987D01*
X203975822Y-87695169D01*
X203975827Y-87695167D01*
X203982288Y-87693794D01*
X204009874Y-87681512D01*
X204150722Y-87618803D01*
X204150724Y-87618802D01*
X204156752Y-87616118D01*
X204180586Y-87598802D01*
X204282049Y-87525084D01*
X204311253Y-87503866D01*
X204332118Y-87480693D01*
X204434621Y-87366852D01*
X204434622Y-87366851D01*
X204439040Y-87361944D01*
X204515684Y-87229193D01*
X204531223Y-87202279D01*
X204531224Y-87202278D01*
X204534527Y-87196556D01*
X204593542Y-87014928D01*
X204604690Y-86908866D01*
X204612814Y-86831565D01*
X204613504Y-86825000D01*
X204612814Y-86818434D01*
X204610134Y-86792933D01*
X204617852Y-86736594D01*
X204618695Y-86735060D01*
X204623732Y-86715442D01*
X204630138Y-86696730D01*
X204635034Y-86685417D01*
X204638181Y-86678145D01*
X204645097Y-86634481D01*
X204647504Y-86622860D01*
X204656528Y-86587711D01*
X204656528Y-86587710D01*
X204658500Y-86580030D01*
X204658500Y-86559769D01*
X204660051Y-86540058D01*
X204661979Y-86527886D01*
X204663219Y-86520057D01*
X204663219Y-86520056D01*
X204663404Y-86520085D01*
X204684230Y-86456603D01*
X204739318Y-86411817D01*
X204748160Y-86408494D01*
X204792002Y-86393867D01*
X204792004Y-86393866D01*
X204798946Y-86391550D01*
X204814809Y-86381734D01*
X204943120Y-86302332D01*
X204949348Y-86298478D01*
X205074305Y-86173303D01*
X205085883Y-86154521D01*
X205106385Y-86121260D01*
X205137942Y-86070065D01*
X205190713Y-86022573D01*
X205260785Y-86011149D01*
X205325909Y-86039423D01*
X205352345Y-86069878D01*
X205401522Y-86149348D01*
X205526697Y-86274305D01*
X205532927Y-86278145D01*
X205532928Y-86278146D01*
X205622729Y-86333500D01*
X205677262Y-86367115D01*
X205705708Y-86376550D01*
X205838611Y-86420632D01*
X205838613Y-86420632D01*
X205845139Y-86422797D01*
X205851975Y-86423497D01*
X205851978Y-86423498D01*
X205895031Y-86427909D01*
X205949600Y-86433500D01*
X206560406Y-86433500D01*
X206628527Y-86453502D01*
X206649501Y-86470405D01*
X206652878Y-86473782D01*
X206686904Y-86536094D01*
X206689092Y-86549703D01*
X206706458Y-86714928D01*
X206765473Y-86896556D01*
X206860960Y-87061944D01*
X206988747Y-87203866D01*
X207074955Y-87266500D01*
X207122494Y-87301039D01*
X207143248Y-87316118D01*
X207149276Y-87318802D01*
X207149278Y-87318803D01*
X207295449Y-87383882D01*
X207317712Y-87393794D01*
X207389293Y-87409009D01*
X207498056Y-87432128D01*
X207498061Y-87432128D01*
X207504513Y-87433500D01*
X207695487Y-87433500D01*
X207701939Y-87432128D01*
X207701944Y-87432128D01*
X207810707Y-87409009D01*
X207882288Y-87393794D01*
X207904551Y-87383882D01*
X208050722Y-87318803D01*
X208050724Y-87318802D01*
X208056752Y-87316118D01*
X208077507Y-87301039D01*
X208125045Y-87266500D01*
X208211253Y-87203866D01*
X208339040Y-87061944D01*
X208434527Y-86896556D01*
X208493542Y-86714928D01*
X208513504Y-86525000D01*
X208503853Y-86433172D01*
X208494232Y-86341635D01*
X208494232Y-86341633D01*
X208493542Y-86335072D01*
X208434527Y-86153444D01*
X208428567Y-86143120D01*
X208372865Y-86046642D01*
X208339040Y-85988056D01*
X208318352Y-85965079D01*
X208215675Y-85851045D01*
X208215674Y-85851044D01*
X208211253Y-85846134D01*
X208109796Y-85772421D01*
X208062094Y-85737763D01*
X208062093Y-85737762D01*
X208056752Y-85733882D01*
X208050724Y-85731198D01*
X208050722Y-85731197D01*
X207888319Y-85658891D01*
X207888318Y-85658891D01*
X207882288Y-85656206D01*
X207758303Y-85629852D01*
X207695830Y-85596123D01*
X207661508Y-85533974D01*
X207658500Y-85506605D01*
X207658500Y-84974600D01*
X207655906Y-84949600D01*
X207648238Y-84875692D01*
X207648237Y-84875688D01*
X207647526Y-84868834D01*
X207644277Y-84859094D01*
X207593868Y-84708002D01*
X207591550Y-84701054D01*
X207498478Y-84550652D01*
X207373303Y-84425695D01*
X207369084Y-84423094D01*
X207328583Y-84365970D01*
X207325351Y-84295047D01*
X207360976Y-84233635D01*
X207368530Y-84227078D01*
X207374348Y-84223478D01*
X207499305Y-84098303D01*
X207545884Y-84022738D01*
X207588275Y-83953968D01*
X207588276Y-83953966D01*
X207592115Y-83947738D01*
X207647797Y-83779861D01*
X207658500Y-83675400D01*
X207658500Y-82924600D01*
X207658163Y-82921350D01*
X207648238Y-82825692D01*
X207648237Y-82825688D01*
X207647526Y-82818834D01*
X207641936Y-82802077D01*
X207593868Y-82658002D01*
X207591550Y-82651054D01*
X207498478Y-82500652D01*
X207373303Y-82375695D01*
X207367072Y-82371854D01*
X207228968Y-82286725D01*
X207228966Y-82286724D01*
X207222738Y-82282885D01*
X207128121Y-82251502D01*
X207061389Y-82229368D01*
X207061387Y-82229368D01*
X207054861Y-82227203D01*
X207048025Y-82226503D01*
X207048022Y-82226502D01*
X206998087Y-82221386D01*
X206950400Y-82216500D01*
X205949600Y-82216500D01*
X205946354Y-82216837D01*
X205946350Y-82216837D01*
X205850692Y-82226762D01*
X205850688Y-82226763D01*
X205843834Y-82227474D01*
X205837298Y-82229655D01*
X205837296Y-82229655D01*
X205771034Y-82251762D01*
X205676054Y-82283450D01*
X205525652Y-82376522D01*
X205400695Y-82501697D01*
X205396855Y-82507927D01*
X205396854Y-82507928D01*
X205388478Y-82521517D01*
X205342033Y-82596865D01*
X205337059Y-82604934D01*
X205284287Y-82652427D01*
X205214215Y-82663851D01*
X205149091Y-82635577D01*
X205122655Y-82605121D01*
X205109276Y-82583500D01*
X205073478Y-82525652D01*
X204948303Y-82400695D01*
X204916135Y-82380866D01*
X204803968Y-82311725D01*
X204803966Y-82311724D01*
X204797738Y-82307885D01*
X204678477Y-82268328D01*
X204636389Y-82254368D01*
X204636387Y-82254368D01*
X204629861Y-82252203D01*
X204623025Y-82251503D01*
X204623022Y-82251502D01*
X204578533Y-82246944D01*
X204525400Y-82241500D01*
X203524600Y-82241500D01*
X203521354Y-82241837D01*
X203521350Y-82241837D01*
X203425692Y-82251762D01*
X203425688Y-82251763D01*
X203418834Y-82252474D01*
X203412298Y-82254655D01*
X203412296Y-82254655D01*
X203280194Y-82298728D01*
X203251054Y-82308450D01*
X203100652Y-82401522D01*
X202975695Y-82526697D01*
X202971855Y-82532927D01*
X202971854Y-82532928D01*
X202889436Y-82666635D01*
X202882885Y-82677262D01*
X202862046Y-82740091D01*
X202829480Y-82838275D01*
X202827203Y-82845139D01*
X202826503Y-82851975D01*
X202826502Y-82851978D01*
X202826065Y-82856243D01*
X202816500Y-82949600D01*
X202816500Y-83750400D01*
X202816837Y-83753646D01*
X202816837Y-83753650D01*
X202826734Y-83849030D01*
X202827474Y-83856166D01*
X202829655Y-83862702D01*
X202829655Y-83862704D01*
X202841581Y-83898450D01*
X202883450Y-84023946D01*
X202976522Y-84174348D01*
X203035913Y-84233635D01*
X203063109Y-84260784D01*
X203097188Y-84323066D01*
X203092185Y-84393886D01*
X203063264Y-84438975D01*
X203061550Y-84440692D01*
X202975695Y-84526697D01*
X202971855Y-84532927D01*
X202971854Y-84532928D01*
X202945964Y-84574930D01*
X202882885Y-84677262D01*
X202856436Y-84757005D01*
X202837347Y-84814557D01*
X202827203Y-84845139D01*
X202826503Y-84851975D01*
X202826502Y-84851978D01*
X202823492Y-84881360D01*
X202816500Y-84949600D01*
X202816500Y-85750400D01*
X202816837Y-85753646D01*
X202816837Y-85753650D01*
X202825955Y-85841523D01*
X202827474Y-85856166D01*
X202829655Y-85862702D01*
X202829655Y-85862704D01*
X202856625Y-85943542D01*
X202883450Y-86023946D01*
X202963244Y-86152891D01*
X202982082Y-86221343D01*
X202959966Y-86287482D01*
X202960960Y-86288056D01*
X202957659Y-86293774D01*
X202957658Y-86293775D01*
X202874155Y-86438407D01*
X202865473Y-86453444D01*
X202806458Y-86635072D01*
X202805768Y-86641633D01*
X202805768Y-86641635D01*
X202799021Y-86705833D01*
X202786496Y-86825000D01*
X202787186Y-86831565D01*
X202795311Y-86908866D01*
X202806458Y-87014928D01*
X202808498Y-87021206D01*
X202836319Y-87106831D01*
X202838346Y-87177799D01*
X202801684Y-87238596D01*
X202742683Y-87269013D01*
X202574178Y-87304831D01*
X202574173Y-87304833D01*
X202567712Y-87306206D01*
X202561682Y-87308891D01*
X202561681Y-87308891D01*
X202399278Y-87381197D01*
X202399276Y-87381198D01*
X202393248Y-87383882D01*
X202387907Y-87387762D01*
X202387906Y-87387763D01*
X202364140Y-87405030D01*
X202238747Y-87496134D01*
X202234326Y-87501044D01*
X202234325Y-87501045D01*
X202134208Y-87612237D01*
X202110960Y-87638056D01*
X202094207Y-87667073D01*
X202036313Y-87767349D01*
X202015473Y-87803444D01*
X201956458Y-87985072D01*
X201936496Y-88175000D01*
X201937186Y-88181565D01*
X201951866Y-88321233D01*
X201956458Y-88364928D01*
X202015473Y-88546556D01*
X202110960Y-88711944D01*
X202182593Y-88791500D01*
X202195029Y-88805312D01*
X202225746Y-88869319D01*
X202216982Y-88939773D01*
X202208654Y-88955735D01*
X202195385Y-88977262D01*
X202193079Y-88984213D01*
X202193079Y-88984214D01*
X202151856Y-89108500D01*
X202139703Y-89145139D01*
X202139003Y-89151975D01*
X202139002Y-89151978D01*
X202136008Y-89181206D01*
X202129000Y-89249600D01*
X202129000Y-90300400D01*
X202129337Y-90303646D01*
X202129337Y-90303650D01*
X202137913Y-90386300D01*
X202139974Y-90406166D01*
X202142155Y-90412702D01*
X202142155Y-90412704D01*
X202168316Y-90491118D01*
X202195950Y-90573946D01*
X202289022Y-90724348D01*
X202414197Y-90849305D01*
X202531617Y-90921684D01*
X202579109Y-90974455D01*
X202591500Y-91028943D01*
X202591500Y-91151870D01*
X202571498Y-91219991D01*
X202517842Y-91266484D01*
X202481945Y-91276792D01*
X202459870Y-91279698D01*
X202449338Y-91281084D01*
X202449337Y-91281084D01*
X202441150Y-91282162D01*
X202367137Y-91312819D01*
X202300752Y-91340316D01*
X202300750Y-91340317D01*
X202293124Y-91343476D01*
X202286574Y-91348502D01*
X202218100Y-91401045D01*
X202166013Y-91441013D01*
X202160987Y-91447563D01*
X202160984Y-91447566D01*
X202143840Y-91469909D01*
X202068476Y-91568125D01*
X202007162Y-91716150D01*
X202006084Y-91724337D01*
X202006084Y-91724338D01*
X202000516Y-91766635D01*
X201991500Y-91835115D01*
X201991501Y-92114884D01*
X201992039Y-92118969D01*
X201992039Y-92118973D01*
X202002399Y-92197668D01*
X202007162Y-92233850D01*
X202010322Y-92241478D01*
X202014589Y-92251780D01*
X202022179Y-92322370D01*
X202014589Y-92348220D01*
X202012140Y-92354133D01*
X202007162Y-92366150D01*
X202006084Y-92374338D01*
X201994163Y-92464891D01*
X201991500Y-92485115D01*
X201991501Y-92764884D01*
X201992039Y-92768969D01*
X201992039Y-92768973D01*
X202005567Y-92871734D01*
X202007162Y-92883850D01*
X202010322Y-92891478D01*
X202014589Y-92901780D01*
X202022179Y-92972370D01*
X202014589Y-92998220D01*
X202011242Y-93006301D01*
X202007162Y-93016150D01*
X202006084Y-93024339D01*
X201997736Y-93087747D01*
X201969013Y-93152675D01*
X201909748Y-93191766D01*
X201838757Y-93192611D01*
X201778578Y-93154941D01*
X201753290Y-93111177D01*
X201724319Y-93024339D01*
X201716550Y-93001054D01*
X201623478Y-92850652D01*
X201611122Y-92838317D01*
X201555364Y-92782657D01*
X201498303Y-92725695D01*
X201492072Y-92721854D01*
X201368384Y-92645611D01*
X201320890Y-92592838D01*
X201308500Y-92538351D01*
X201308500Y-92336999D01*
X201325381Y-92273999D01*
X201334408Y-92258365D01*
X201384527Y-92171556D01*
X201443542Y-91989928D01*
X201463504Y-91800000D01*
X201443542Y-91610072D01*
X201384527Y-91428444D01*
X201289040Y-91263056D01*
X201215863Y-91181785D01*
X201185147Y-91117779D01*
X201183500Y-91097476D01*
X201183500Y-91017160D01*
X201201047Y-90953021D01*
X201235108Y-90895427D01*
X201239145Y-90888601D01*
X201246890Y-90861944D01*
X201256528Y-90828769D01*
X201285562Y-90728831D01*
X201286299Y-90719475D01*
X201288307Y-90693958D01*
X201288307Y-90693950D01*
X201288500Y-90691502D01*
X201288500Y-88908498D01*
X201288307Y-88906042D01*
X201286067Y-88877579D01*
X201286066Y-88877574D01*
X201285562Y-88871169D01*
X201239145Y-88711399D01*
X201222107Y-88682589D01*
X201158491Y-88575020D01*
X201158489Y-88575017D01*
X201154453Y-88568193D01*
X201036807Y-88450547D01*
X201029983Y-88446511D01*
X201029980Y-88446509D01*
X200900427Y-88369892D01*
X200900428Y-88369892D01*
X200893601Y-88365855D01*
X200885990Y-88363644D01*
X200885988Y-88363643D01*
X200800717Y-88338870D01*
X200733831Y-88319438D01*
X200727426Y-88318934D01*
X200727421Y-88318933D01*
X200698958Y-88316693D01*
X200698950Y-88316693D01*
X200696502Y-88316500D01*
X200263498Y-88316500D01*
X200261050Y-88316693D01*
X200261042Y-88316693D01*
X200232579Y-88318933D01*
X200232574Y-88318934D01*
X200226169Y-88319438D01*
X200159283Y-88338870D01*
X200074012Y-88363643D01*
X200074010Y-88363644D01*
X200066399Y-88365855D01*
X199923193Y-88450547D01*
X199920511Y-88453229D01*
X199856139Y-88478502D01*
X199786516Y-88464600D01*
X199770688Y-88454428D01*
X199766807Y-88450547D01*
X199623601Y-88365855D01*
X199615990Y-88363644D01*
X199615988Y-88363643D01*
X199530717Y-88338870D01*
X199463831Y-88319438D01*
X199457426Y-88318934D01*
X199457421Y-88318933D01*
X199428958Y-88316693D01*
X199428950Y-88316693D01*
X199426502Y-88316500D01*
X198993498Y-88316500D01*
X198991050Y-88316693D01*
X198991042Y-88316693D01*
X198962579Y-88318933D01*
X198962574Y-88318934D01*
X198956169Y-88319438D01*
X198889283Y-88338870D01*
X198804012Y-88363643D01*
X198804010Y-88363644D01*
X198796399Y-88365855D01*
X198653193Y-88450547D01*
X198650511Y-88453229D01*
X198586139Y-88478502D01*
X198516516Y-88464600D01*
X198500688Y-88454428D01*
X198496807Y-88450547D01*
X198353601Y-88365855D01*
X198345990Y-88363644D01*
X198345988Y-88363643D01*
X198260717Y-88338870D01*
X198193831Y-88319438D01*
X198187426Y-88318934D01*
X198187421Y-88318933D01*
X198158958Y-88316693D01*
X198158950Y-88316693D01*
X198156502Y-88316500D01*
X197723498Y-88316500D01*
X197721050Y-88316693D01*
X197721042Y-88316693D01*
X197692579Y-88318933D01*
X197692574Y-88318934D01*
X197686169Y-88319438D01*
X197619283Y-88338870D01*
X197534012Y-88363643D01*
X197534010Y-88363644D01*
X197526399Y-88365855D01*
X197383193Y-88450547D01*
X197380511Y-88453229D01*
X197316139Y-88478502D01*
X197246516Y-88464600D01*
X197230688Y-88454428D01*
X197226807Y-88450547D01*
X197083601Y-88365855D01*
X197075990Y-88363644D01*
X197075988Y-88363643D01*
X196990717Y-88338870D01*
X196923831Y-88319438D01*
X196917426Y-88318934D01*
X196917421Y-88318933D01*
X196888958Y-88316693D01*
X196888950Y-88316693D01*
X196886502Y-88316500D01*
X196453498Y-88316500D01*
X196451050Y-88316693D01*
X196451042Y-88316693D01*
X196422579Y-88318933D01*
X196422574Y-88318934D01*
X196416169Y-88319438D01*
X196349283Y-88338870D01*
X196264012Y-88363643D01*
X196264010Y-88363644D01*
X196256399Y-88365855D01*
X196249572Y-88369892D01*
X196249573Y-88369892D01*
X196120020Y-88446509D01*
X196120017Y-88446511D01*
X196113193Y-88450547D01*
X195995547Y-88568193D01*
X195991511Y-88575017D01*
X195991509Y-88575020D01*
X195927893Y-88682589D01*
X195910855Y-88711399D01*
X195864438Y-88871169D01*
X195863934Y-88877574D01*
X195863933Y-88877579D01*
X195861693Y-88906042D01*
X195861500Y-88908498D01*
X195861500Y-90691502D01*
X195861693Y-90693950D01*
X195861693Y-90693958D01*
X195863702Y-90719475D01*
X195864438Y-90728831D01*
X195893472Y-90828769D01*
X195903111Y-90861944D01*
X195910855Y-90888601D01*
X195914892Y-90895427D01*
X195991509Y-91024980D01*
X195991511Y-91024983D01*
X195995547Y-91031807D01*
X196001155Y-91037415D01*
X196006011Y-91043675D01*
X196004504Y-91044844D01*
X196033621Y-91098167D01*
X196036500Y-91124950D01*
X196036500Y-91946200D01*
X196016498Y-92014321D01*
X195962842Y-92060814D01*
X195892568Y-92070918D01*
X195870838Y-92065794D01*
X195829861Y-92052203D01*
X195823025Y-92051503D01*
X195823022Y-92051502D01*
X195779969Y-92047091D01*
X195725400Y-92041500D01*
X194924600Y-92041500D01*
X194921354Y-92041837D01*
X194921350Y-92041837D01*
X194825692Y-92051762D01*
X194825688Y-92051763D01*
X194818834Y-92052474D01*
X194812298Y-92054655D01*
X194812296Y-92054655D01*
X194731638Y-92081565D01*
X194651054Y-92108450D01*
X194500652Y-92201522D01*
X194431090Y-92271206D01*
X194414216Y-92288109D01*
X194351934Y-92322188D01*
X194281114Y-92317185D01*
X194236025Y-92288264D01*
X194153483Y-92205866D01*
X194148303Y-92200695D01*
X194134233Y-92192022D01*
X194003968Y-92111725D01*
X194003966Y-92111724D01*
X193997738Y-92107885D01*
X193898592Y-92075000D01*
X193836389Y-92054368D01*
X193836387Y-92054368D01*
X193829861Y-92052203D01*
X193823025Y-92051503D01*
X193823022Y-92051502D01*
X193779969Y-92047091D01*
X193725400Y-92041500D01*
X192924600Y-92041500D01*
X192921354Y-92041837D01*
X192921350Y-92041837D01*
X192825692Y-92051762D01*
X192825688Y-92051763D01*
X192818834Y-92052474D01*
X192812298Y-92054655D01*
X192812296Y-92054655D01*
X192731638Y-92081565D01*
X192651054Y-92108450D01*
X192500652Y-92201522D01*
X192495479Y-92206704D01*
X192408391Y-92293944D01*
X192346109Y-92328023D01*
X192293021Y-92328173D01*
X192126944Y-92292872D01*
X192126939Y-92292872D01*
X192120487Y-92291500D01*
X191929513Y-92291500D01*
X191923061Y-92292872D01*
X191923056Y-92292872D01*
X191836113Y-92311353D01*
X191742712Y-92331206D01*
X191736682Y-92333891D01*
X191736681Y-92333891D01*
X191574278Y-92406197D01*
X191574276Y-92406198D01*
X191568248Y-92408882D01*
X191562907Y-92412762D01*
X191562906Y-92412763D01*
X191554593Y-92418803D01*
X191413747Y-92521134D01*
X191409326Y-92526044D01*
X191409325Y-92526045D01*
X191294517Y-92653553D01*
X191285960Y-92663056D01*
X191233531Y-92753866D01*
X191197595Y-92816109D01*
X191190473Y-92828444D01*
X191131458Y-93010072D01*
X191130768Y-93016633D01*
X191130768Y-93016635D01*
X191116232Y-93154941D01*
X191111496Y-93200000D01*
X175648814Y-93200000D01*
X175642413Y-87682566D01*
X175636979Y-82998134D01*
X178791500Y-82998134D01*
X178798255Y-83060316D01*
X178849385Y-83196705D01*
X178936739Y-83313261D01*
X179053295Y-83400615D01*
X179189684Y-83451745D01*
X179251866Y-83458500D01*
X181048134Y-83458500D01*
X181110316Y-83451745D01*
X181246705Y-83400615D01*
X181363261Y-83313261D01*
X181450615Y-83196705D01*
X181455955Y-83182460D01*
X181494598Y-83079382D01*
X181537240Y-83022618D01*
X181603802Y-82997918D01*
X181673150Y-83013126D01*
X181707817Y-83041114D01*
X181736250Y-83073938D01*
X181908126Y-83216632D01*
X182101000Y-83329338D01*
X182105825Y-83331180D01*
X182105826Y-83331181D01*
X182145068Y-83346166D01*
X182309692Y-83409030D01*
X182314760Y-83410061D01*
X182314763Y-83410062D01*
X182422017Y-83431883D01*
X182528597Y-83453567D01*
X182533772Y-83453757D01*
X182533774Y-83453757D01*
X182746673Y-83461564D01*
X182746677Y-83461564D01*
X182751837Y-83461753D01*
X182756957Y-83461097D01*
X182756959Y-83461097D01*
X182968288Y-83434025D01*
X182968289Y-83434025D01*
X182973416Y-83433368D01*
X182978366Y-83431883D01*
X183182429Y-83370661D01*
X183182434Y-83370659D01*
X183187384Y-83369174D01*
X183387994Y-83270896D01*
X183569860Y-83141173D01*
X183651560Y-83059758D01*
X183713932Y-83025842D01*
X183784739Y-83031030D01*
X183841500Y-83073676D01*
X183866194Y-83140240D01*
X183866500Y-83149009D01*
X183866500Y-85562550D01*
X183846498Y-85630671D01*
X183835941Y-85643771D01*
X183836011Y-85643825D01*
X183831155Y-85650085D01*
X183825547Y-85655693D01*
X183821511Y-85662517D01*
X183821509Y-85662520D01*
X183774462Y-85742073D01*
X183740855Y-85798899D01*
X183694438Y-85958669D01*
X183691500Y-85995998D01*
X183691500Y-87153000D01*
X183671498Y-87221121D01*
X183617842Y-87267614D01*
X183565500Y-87279000D01*
X183333498Y-87279000D01*
X183331050Y-87279193D01*
X183331042Y-87279193D01*
X183302579Y-87281433D01*
X183302574Y-87281434D01*
X183296169Y-87281938D01*
X183217370Y-87304831D01*
X183144012Y-87326143D01*
X183144010Y-87326144D01*
X183136399Y-87328355D01*
X183129572Y-87332392D01*
X183129573Y-87332392D01*
X183000020Y-87409009D01*
X183000017Y-87409011D01*
X182993193Y-87413047D01*
X182875547Y-87530693D01*
X182871511Y-87537517D01*
X182871509Y-87537520D01*
X182862719Y-87552384D01*
X182790855Y-87673899D01*
X182788644Y-87681510D01*
X182788643Y-87681512D01*
X182783179Y-87700321D01*
X182744438Y-87833669D01*
X182741500Y-87870998D01*
X182741500Y-89179002D01*
X182741693Y-89181450D01*
X182741693Y-89181458D01*
X182743794Y-89208148D01*
X182744438Y-89216331D01*
X182747784Y-89227848D01*
X182747583Y-89298842D01*
X182709031Y-89358460D01*
X182644368Y-89387771D01*
X182574122Y-89377468D01*
X182552727Y-89364939D01*
X182412094Y-89262763D01*
X182412093Y-89262762D01*
X182406752Y-89258882D01*
X182400724Y-89256198D01*
X182400722Y-89256197D01*
X182238319Y-89183891D01*
X182238318Y-89183891D01*
X182232288Y-89181206D01*
X182131741Y-89159834D01*
X182051944Y-89142872D01*
X182051939Y-89142872D01*
X182045487Y-89141500D01*
X181854513Y-89141500D01*
X181848061Y-89142872D01*
X181848056Y-89142872D01*
X181768259Y-89159834D01*
X181667712Y-89181206D01*
X181661682Y-89183891D01*
X181661681Y-89183891D01*
X181499278Y-89256197D01*
X181499276Y-89256198D01*
X181493248Y-89258882D01*
X181338747Y-89371134D01*
X181334326Y-89376044D01*
X181334325Y-89376045D01*
X181219300Y-89503794D01*
X181210960Y-89513056D01*
X181165964Y-89590991D01*
X181137097Y-89640991D01*
X181115473Y-89678444D01*
X181056458Y-89860072D01*
X181036496Y-90050000D01*
X181037186Y-90056565D01*
X181055021Y-90226252D01*
X181056458Y-90239928D01*
X181115473Y-90421556D01*
X181118776Y-90427278D01*
X181118777Y-90427279D01*
X181139215Y-90462679D01*
X181210960Y-90586944D01*
X181215378Y-90591851D01*
X181215379Y-90591852D01*
X181313278Y-90700580D01*
X181338747Y-90728866D01*
X181423263Y-90790271D01*
X181457965Y-90815483D01*
X181493248Y-90841118D01*
X181499276Y-90843802D01*
X181499278Y-90843803D01*
X181661681Y-90916109D01*
X181667712Y-90918794D01*
X181742939Y-90934784D01*
X181848056Y-90957128D01*
X181848061Y-90957128D01*
X181854513Y-90958500D01*
X182045487Y-90958500D01*
X182051939Y-90957128D01*
X182051944Y-90957128D01*
X182157061Y-90934784D01*
X182232288Y-90918794D01*
X182238319Y-90916109D01*
X182400722Y-90843803D01*
X182400724Y-90843802D01*
X182406752Y-90841118D01*
X182442036Y-90815483D01*
X182476737Y-90790271D01*
X182561253Y-90728866D01*
X182586722Y-90700580D01*
X182684621Y-90591852D01*
X182684622Y-90591851D01*
X182689040Y-90586944D01*
X182760785Y-90462679D01*
X182781223Y-90427279D01*
X182781224Y-90427278D01*
X182784527Y-90421556D01*
X182843542Y-90239928D01*
X182844980Y-90226252D01*
X182862814Y-90056565D01*
X182863504Y-90050000D01*
X182843542Y-89860072D01*
X182821246Y-89791452D01*
X182819218Y-89720488D01*
X182855880Y-89659689D01*
X182919592Y-89628364D01*
X182990126Y-89636456D01*
X183005211Y-89644061D01*
X183136399Y-89721645D01*
X183144010Y-89723856D01*
X183144012Y-89723857D01*
X183193200Y-89738147D01*
X183296169Y-89768062D01*
X183302574Y-89768566D01*
X183302579Y-89768567D01*
X183331042Y-89770807D01*
X183331050Y-89770807D01*
X183333498Y-89771000D01*
X183766502Y-89771000D01*
X183768950Y-89770807D01*
X183768958Y-89770807D01*
X183797421Y-89768567D01*
X183797426Y-89768566D01*
X183803831Y-89768062D01*
X183906800Y-89738147D01*
X183955988Y-89723857D01*
X183955990Y-89723856D01*
X183963601Y-89721645D01*
X184000201Y-89700000D01*
X184099980Y-89640991D01*
X184099983Y-89640989D01*
X184106807Y-89636953D01*
X184224453Y-89519307D01*
X184228489Y-89512483D01*
X184228491Y-89512480D01*
X184305108Y-89382927D01*
X184309145Y-89376101D01*
X184311357Y-89368488D01*
X184311358Y-89368486D01*
X184345970Y-89249348D01*
X184384183Y-89189512D01*
X184448679Y-89159834D01*
X184466967Y-89158500D01*
X184533033Y-89158500D01*
X184601154Y-89178502D01*
X184647647Y-89232158D01*
X184654030Y-89249348D01*
X184688642Y-89368486D01*
X184688643Y-89368488D01*
X184690855Y-89376101D01*
X184694892Y-89382927D01*
X184773953Y-89516612D01*
X184791500Y-89580751D01*
X184791500Y-89622476D01*
X184771498Y-89690597D01*
X184759142Y-89706779D01*
X184685960Y-89788056D01*
X184590473Y-89953444D01*
X184531458Y-90135072D01*
X184530768Y-90141633D01*
X184530768Y-90141635D01*
X184521352Y-90231226D01*
X184511496Y-90325000D01*
X184512186Y-90331565D01*
X184528972Y-90491272D01*
X184531458Y-90514928D01*
X184590473Y-90696556D01*
X184593776Y-90702278D01*
X184593777Y-90702279D01*
X184602316Y-90717069D01*
X184685960Y-90861944D01*
X184690378Y-90866851D01*
X184690379Y-90866852D01*
X184809325Y-90998955D01*
X184813747Y-91003866D01*
X184865546Y-91041500D01*
X184951385Y-91103866D01*
X184968248Y-91116118D01*
X184974276Y-91118802D01*
X184974278Y-91118803D01*
X185124112Y-91185513D01*
X185142712Y-91193794D01*
X185201106Y-91206206D01*
X185323056Y-91232128D01*
X185323061Y-91232128D01*
X185329513Y-91233500D01*
X185520487Y-91233500D01*
X185526939Y-91232128D01*
X185526944Y-91232128D01*
X185648894Y-91206206D01*
X185707288Y-91193794D01*
X185725888Y-91185513D01*
X185875722Y-91118803D01*
X185875724Y-91118802D01*
X185881752Y-91116118D01*
X185898616Y-91103866D01*
X185984454Y-91041500D01*
X186036253Y-91003866D01*
X186040675Y-90998955D01*
X186159621Y-90866852D01*
X186159622Y-90866851D01*
X186164040Y-90861944D01*
X186247684Y-90717069D01*
X186256223Y-90702279D01*
X186256224Y-90702278D01*
X186259527Y-90696556D01*
X186307186Y-90549878D01*
X186347260Y-90491272D01*
X186412656Y-90463635D01*
X186482613Y-90475742D01*
X186534919Y-90523748D01*
X186552329Y-90575643D01*
X186556458Y-90614928D01*
X186615473Y-90796556D01*
X186618776Y-90802278D01*
X186618777Y-90802279D01*
X186682358Y-90912404D01*
X186710960Y-90961944D01*
X186715378Y-90966851D01*
X186715379Y-90966852D01*
X186834325Y-91098955D01*
X186838747Y-91103866D01*
X186924955Y-91166500D01*
X186976056Y-91203627D01*
X186993248Y-91216118D01*
X186999276Y-91218802D01*
X186999278Y-91218803D01*
X187140256Y-91281570D01*
X187167712Y-91293794D01*
X187261112Y-91313647D01*
X187348056Y-91332128D01*
X187348061Y-91332128D01*
X187354513Y-91333500D01*
X187545487Y-91333500D01*
X187551939Y-91332128D01*
X187551944Y-91332128D01*
X187638888Y-91313647D01*
X187732288Y-91293794D01*
X187759744Y-91281570D01*
X187900722Y-91218803D01*
X187900724Y-91218802D01*
X187906752Y-91216118D01*
X187923945Y-91203627D01*
X187975045Y-91166500D01*
X188061253Y-91103866D01*
X188065675Y-91098955D01*
X188184621Y-90966852D01*
X188184622Y-90966851D01*
X188189040Y-90961944D01*
X188217642Y-90912404D01*
X188281223Y-90802279D01*
X188281224Y-90802278D01*
X188284527Y-90796556D01*
X188343542Y-90614928D01*
X188345968Y-90591852D01*
X188362814Y-90431565D01*
X188363504Y-90425000D01*
X188361553Y-90406433D01*
X188344232Y-90241635D01*
X188344232Y-90241633D01*
X188343542Y-90235072D01*
X188284527Y-90053444D01*
X188189040Y-89888056D01*
X188115863Y-89806785D01*
X188085147Y-89742779D01*
X188083500Y-89722476D01*
X188083500Y-89488478D01*
X188101047Y-89424339D01*
X188155108Y-89332927D01*
X188159145Y-89326101D01*
X188161357Y-89318488D01*
X188161358Y-89318486D01*
X188195970Y-89199348D01*
X188234183Y-89139512D01*
X188298679Y-89109834D01*
X188316967Y-89108500D01*
X188383033Y-89108500D01*
X188451154Y-89128502D01*
X188497647Y-89182158D01*
X188504030Y-89199348D01*
X188538642Y-89318486D01*
X188538643Y-89318488D01*
X188540855Y-89326101D01*
X188544892Y-89332927D01*
X188621509Y-89462480D01*
X188621511Y-89462483D01*
X188625547Y-89469307D01*
X188743193Y-89586953D01*
X188750017Y-89590989D01*
X188750020Y-89590991D01*
X188803259Y-89622476D01*
X188886399Y-89671645D01*
X188894010Y-89673856D01*
X188894012Y-89673857D01*
X188931435Y-89684729D01*
X189046169Y-89718062D01*
X189052574Y-89718566D01*
X189052579Y-89718567D01*
X189081042Y-89720807D01*
X189081050Y-89720807D01*
X189083498Y-89721000D01*
X189516502Y-89721000D01*
X189518417Y-89720849D01*
X189587197Y-89738147D01*
X189635757Y-89789939D01*
X189648593Y-89859904D01*
X189636496Y-89975000D01*
X189656458Y-90164928D01*
X189715473Y-90346556D01*
X189810960Y-90511944D01*
X189815378Y-90516851D01*
X189815379Y-90516852D01*
X189916772Y-90629460D01*
X189938747Y-90653866D01*
X190034318Y-90723303D01*
X190081717Y-90757740D01*
X190093248Y-90766118D01*
X190099276Y-90768802D01*
X190099278Y-90768803D01*
X190261681Y-90841109D01*
X190267712Y-90843794D01*
X190353101Y-90861944D01*
X190448056Y-90882128D01*
X190448061Y-90882128D01*
X190454513Y-90883500D01*
X190645487Y-90883500D01*
X190651939Y-90882128D01*
X190651944Y-90882128D01*
X190746899Y-90861944D01*
X190832288Y-90843794D01*
X190838319Y-90841109D01*
X191000722Y-90768803D01*
X191000724Y-90768802D01*
X191006752Y-90766118D01*
X191018284Y-90757740D01*
X191065682Y-90723303D01*
X191161253Y-90653866D01*
X191183228Y-90629460D01*
X191284621Y-90516852D01*
X191284622Y-90516851D01*
X191289040Y-90511944D01*
X191384527Y-90346556D01*
X191443542Y-90164928D01*
X191463504Y-89975000D01*
X191450765Y-89853794D01*
X191444232Y-89791635D01*
X191444232Y-89791633D01*
X191443542Y-89785072D01*
X191415900Y-89700000D01*
X193311496Y-89700000D01*
X193312186Y-89706565D01*
X193327661Y-89853798D01*
X193331458Y-89889928D01*
X193390473Y-90071556D01*
X193485960Y-90236944D01*
X193490378Y-90241851D01*
X193490379Y-90241852D01*
X193607134Y-90371522D01*
X193613747Y-90378866D01*
X193677245Y-90425000D01*
X193742930Y-90472723D01*
X193768248Y-90491118D01*
X193774276Y-90493802D01*
X193774278Y-90493803D01*
X193936681Y-90566109D01*
X193942712Y-90568794D01*
X194028101Y-90586944D01*
X194123056Y-90607128D01*
X194123061Y-90607128D01*
X194129513Y-90608500D01*
X194320487Y-90608500D01*
X194326939Y-90607128D01*
X194326944Y-90607128D01*
X194421899Y-90586944D01*
X194507288Y-90568794D01*
X194513319Y-90566109D01*
X194675722Y-90493803D01*
X194675724Y-90493802D01*
X194681752Y-90491118D01*
X194707071Y-90472723D01*
X194772755Y-90425000D01*
X194836253Y-90378866D01*
X194842866Y-90371522D01*
X194959621Y-90241852D01*
X194959622Y-90241851D01*
X194964040Y-90236944D01*
X195059527Y-90071556D01*
X195118542Y-89889928D01*
X195122340Y-89853798D01*
X195137814Y-89706565D01*
X195138504Y-89700000D01*
X195127047Y-89590991D01*
X195119232Y-89516635D01*
X195119232Y-89516633D01*
X195118542Y-89510072D01*
X195059527Y-89328444D01*
X194964040Y-89163056D01*
X194954066Y-89151978D01*
X194840675Y-89026045D01*
X194840674Y-89026044D01*
X194836253Y-89021134D01*
X194681752Y-88908882D01*
X194675724Y-88906198D01*
X194675722Y-88906197D01*
X194513319Y-88833891D01*
X194513318Y-88833891D01*
X194507288Y-88831206D01*
X194413887Y-88811353D01*
X194326944Y-88792872D01*
X194326939Y-88792872D01*
X194320487Y-88791500D01*
X194129513Y-88791500D01*
X194123061Y-88792872D01*
X194123056Y-88792872D01*
X194036113Y-88811353D01*
X193942712Y-88831206D01*
X193936682Y-88833891D01*
X193936681Y-88833891D01*
X193774278Y-88906197D01*
X193774276Y-88906198D01*
X193768248Y-88908882D01*
X193613747Y-89021134D01*
X193609326Y-89026044D01*
X193609325Y-89026045D01*
X193495935Y-89151978D01*
X193485960Y-89163056D01*
X193390473Y-89328444D01*
X193331458Y-89510072D01*
X193330768Y-89516633D01*
X193330768Y-89516635D01*
X193322953Y-89590991D01*
X193311496Y-89700000D01*
X191415900Y-89700000D01*
X191384527Y-89603444D01*
X191374264Y-89585667D01*
X191339189Y-89524916D01*
X191289040Y-89438056D01*
X191269546Y-89416405D01*
X191165675Y-89301045D01*
X191165674Y-89301044D01*
X191161253Y-89296134D01*
X191046906Y-89213056D01*
X191012094Y-89187763D01*
X191012093Y-89187762D01*
X191006752Y-89183882D01*
X191000724Y-89181198D01*
X191000722Y-89181197D01*
X190838319Y-89108891D01*
X190838318Y-89108891D01*
X190832288Y-89106206D01*
X190738887Y-89086353D01*
X190651944Y-89067872D01*
X190651939Y-89067872D01*
X190645487Y-89066500D01*
X190454513Y-89066500D01*
X190448061Y-89067872D01*
X190448056Y-89067872D01*
X190293373Y-89100752D01*
X190267712Y-89106206D01*
X190267507Y-89105242D01*
X190202464Y-89107097D01*
X190141667Y-89070432D01*
X190110345Y-89006719D01*
X190108500Y-88985238D01*
X190108500Y-87820998D01*
X190108307Y-87818542D01*
X190106067Y-87790079D01*
X190106066Y-87790074D01*
X190105562Y-87783669D01*
X190059145Y-87623899D01*
X190009786Y-87540438D01*
X189978491Y-87487520D01*
X189978489Y-87487517D01*
X189974453Y-87480693D01*
X189856807Y-87363047D01*
X189849983Y-87359011D01*
X189849980Y-87359009D01*
X189720427Y-87282392D01*
X189720428Y-87282392D01*
X189713601Y-87278355D01*
X189705990Y-87276144D01*
X189705988Y-87276143D01*
X189646973Y-87258998D01*
X189553831Y-87231938D01*
X189547426Y-87231434D01*
X189547421Y-87231433D01*
X189518958Y-87229193D01*
X189518950Y-87229193D01*
X189516502Y-87229000D01*
X189284500Y-87229000D01*
X189216379Y-87208998D01*
X189169886Y-87155342D01*
X189158500Y-87103000D01*
X189158500Y-85945998D01*
X189155562Y-85908669D01*
X189109145Y-85748899D01*
X189091129Y-85718435D01*
X189028491Y-85612520D01*
X189028489Y-85612517D01*
X189024453Y-85605693D01*
X189018845Y-85600085D01*
X189013989Y-85593825D01*
X189015496Y-85592656D01*
X188986379Y-85539333D01*
X188983500Y-85512550D01*
X188983500Y-82758768D01*
X188984027Y-82747584D01*
X188985702Y-82740091D01*
X188985453Y-82732165D01*
X188986199Y-82724274D01*
X188989099Y-82724548D01*
X188998680Y-82680217D01*
X189035139Y-82606447D01*
X189035140Y-82606445D01*
X189037430Y-82601811D01*
X189041724Y-82587680D01*
X189100865Y-82393023D01*
X189100865Y-82393021D01*
X189102370Y-82388069D01*
X189131529Y-82166590D01*
X189132744Y-82116852D01*
X189133074Y-82103365D01*
X189133074Y-82103361D01*
X189133156Y-82100000D01*
X189114852Y-81877361D01*
X189072814Y-81710000D01*
X190496496Y-81710000D01*
X190497186Y-81716565D01*
X190514629Y-81882522D01*
X190516458Y-81899928D01*
X190575473Y-82081556D01*
X190578776Y-82087278D01*
X190578777Y-82087279D01*
X190594539Y-82114580D01*
X190670960Y-82246944D01*
X190675378Y-82251851D01*
X190675379Y-82251852D01*
X190765819Y-82352296D01*
X190798747Y-82388866D01*
X190823299Y-82406704D01*
X190945487Y-82495479D01*
X190953248Y-82501118D01*
X190959276Y-82503802D01*
X190959278Y-82503803D01*
X191055117Y-82546473D01*
X191127712Y-82578794D01*
X191212729Y-82596865D01*
X191308056Y-82617128D01*
X191308061Y-82617128D01*
X191314513Y-82618500D01*
X191505487Y-82618500D01*
X191511939Y-82617128D01*
X191511944Y-82617128D01*
X191607271Y-82596865D01*
X191692288Y-82578794D01*
X191764883Y-82546473D01*
X191860722Y-82503803D01*
X191860724Y-82503802D01*
X191866752Y-82501118D01*
X191874514Y-82495479D01*
X191996701Y-82406704D01*
X192021253Y-82388866D01*
X192054181Y-82352296D01*
X192144621Y-82251852D01*
X192144622Y-82251851D01*
X192149040Y-82246944D01*
X192225461Y-82114580D01*
X192241223Y-82087279D01*
X192241224Y-82087278D01*
X192244527Y-82081556D01*
X192303542Y-81899928D01*
X192305372Y-81882522D01*
X192319733Y-81745880D01*
X192346746Y-81680224D01*
X192355948Y-81669956D01*
X192612247Y-81413657D01*
X192620537Y-81406113D01*
X192627018Y-81402000D01*
X192673659Y-81352332D01*
X192676413Y-81349491D01*
X192696135Y-81329769D01*
X192698612Y-81326576D01*
X192706317Y-81317555D01*
X192731159Y-81291100D01*
X192736586Y-81285321D01*
X192745956Y-81268277D01*
X192746346Y-81267568D01*
X192757202Y-81251041D01*
X192764757Y-81241302D01*
X192764758Y-81241300D01*
X192769614Y-81235040D01*
X192776008Y-81220264D01*
X192802549Y-81181211D01*
X192894453Y-81089307D01*
X192898489Y-81082483D01*
X192898491Y-81082480D01*
X192975108Y-80952927D01*
X192979145Y-80946101D01*
X192982713Y-80933822D01*
X193001346Y-80869684D01*
X193025562Y-80786331D01*
X193026321Y-80776697D01*
X193028307Y-80751458D01*
X193028307Y-80751450D01*
X193028500Y-80749002D01*
X193028500Y-79592000D01*
X193048502Y-79523879D01*
X193102158Y-79477386D01*
X193154500Y-79466000D01*
X193185500Y-79466000D01*
X193253621Y-79486002D01*
X193300114Y-79539658D01*
X193311500Y-79592000D01*
X193311500Y-80749002D01*
X193311693Y-80751450D01*
X193311693Y-80751458D01*
X193313680Y-80776697D01*
X193314438Y-80786331D01*
X193338654Y-80869684D01*
X193357288Y-80933822D01*
X193360855Y-80946101D01*
X193370639Y-80962644D01*
X193388098Y-81031454D01*
X193371304Y-81089780D01*
X193352562Y-81122243D01*
X193291636Y-81227770D01*
X193285473Y-81238444D01*
X193226458Y-81420072D01*
X193225768Y-81426633D01*
X193225768Y-81426635D01*
X193215948Y-81520072D01*
X193206496Y-81610000D01*
X193207186Y-81616565D01*
X193222622Y-81763433D01*
X193209850Y-81833271D01*
X193163617Y-81883746D01*
X193110652Y-81916522D01*
X193105479Y-81921704D01*
X193084785Y-81942434D01*
X192985695Y-82041697D01*
X192981855Y-82047927D01*
X192981854Y-82047928D01*
X192905909Y-82171134D01*
X192892885Y-82192262D01*
X192872190Y-82254655D01*
X192845270Y-82335819D01*
X192837203Y-82360139D01*
X192836503Y-82366975D01*
X192836502Y-82366978D01*
X192835919Y-82372668D01*
X192826500Y-82464600D01*
X192826500Y-83240400D01*
X192826837Y-83243646D01*
X192826837Y-83243650D01*
X192835455Y-83326705D01*
X192837474Y-83346166D01*
X192839655Y-83352702D01*
X192839655Y-83352704D01*
X192872698Y-83451745D01*
X192893450Y-83513946D01*
X192986522Y-83664348D01*
X193111697Y-83789305D01*
X193115916Y-83791906D01*
X193156417Y-83849030D01*
X193159649Y-83919953D01*
X193124024Y-83981365D01*
X193116470Y-83987922D01*
X193110652Y-83991522D01*
X192985695Y-84116697D01*
X192981855Y-84122927D01*
X192981854Y-84122928D01*
X192896730Y-84261025D01*
X192892885Y-84267262D01*
X192879522Y-84307550D01*
X192848628Y-84400695D01*
X192837203Y-84435139D01*
X192826500Y-84539600D01*
X192826500Y-85315400D01*
X192826837Y-85318646D01*
X192826837Y-85318650D01*
X192829854Y-85347721D01*
X192837474Y-85421166D01*
X192839655Y-85427702D01*
X192839655Y-85427704D01*
X192861327Y-85492663D01*
X192893450Y-85588946D01*
X192986522Y-85739348D01*
X193111697Y-85864305D01*
X193180069Y-85906450D01*
X193227562Y-85959223D01*
X193238984Y-86029294D01*
X193237936Y-86035522D01*
X193236458Y-86040072D01*
X193216496Y-86230000D01*
X193217186Y-86236565D01*
X193235606Y-86411817D01*
X193236458Y-86419928D01*
X193295473Y-86601556D01*
X193298776Y-86607278D01*
X193298777Y-86607279D01*
X193318613Y-86641635D01*
X193390960Y-86766944D01*
X193395378Y-86771851D01*
X193395379Y-86771852D01*
X193443234Y-86825000D01*
X193518747Y-86908866D01*
X193673248Y-87021118D01*
X193679276Y-87023802D01*
X193679278Y-87023803D01*
X193802191Y-87078527D01*
X193847712Y-87098794D01*
X193941112Y-87118647D01*
X194028056Y-87137128D01*
X194028061Y-87137128D01*
X194034513Y-87138500D01*
X194225487Y-87138500D01*
X194231939Y-87137128D01*
X194231944Y-87137128D01*
X194318888Y-87118647D01*
X194412288Y-87098794D01*
X194457809Y-87078527D01*
X194580722Y-87023803D01*
X194580724Y-87023802D01*
X194586752Y-87021118D01*
X194741253Y-86908866D01*
X194816766Y-86825000D01*
X194864621Y-86771852D01*
X194864622Y-86771851D01*
X194869040Y-86766944D01*
X194941387Y-86641635D01*
X194961223Y-86607279D01*
X194961224Y-86607278D01*
X194964527Y-86601556D01*
X195023542Y-86419928D01*
X195024395Y-86411817D01*
X195042814Y-86236565D01*
X195043504Y-86230000D01*
X195039704Y-86193844D01*
X195024233Y-86046642D01*
X195024232Y-86046638D01*
X195023542Y-86040072D01*
X195018303Y-86023946D01*
X195000604Y-85969478D01*
X194998576Y-85898510D01*
X195031263Y-85841525D01*
X195131112Y-85741502D01*
X195861500Y-85741502D01*
X195861693Y-85743950D01*
X195861693Y-85743958D01*
X195861738Y-85744521D01*
X195864438Y-85778831D01*
X195910855Y-85938601D01*
X195914892Y-85945427D01*
X195991509Y-86074980D01*
X195991511Y-86074983D01*
X195995547Y-86081807D01*
X196113193Y-86199453D01*
X196120016Y-86203488D01*
X196120020Y-86203491D01*
X196209191Y-86256226D01*
X196256399Y-86284145D01*
X196264010Y-86286356D01*
X196264012Y-86286357D01*
X196287756Y-86293255D01*
X196416169Y-86330562D01*
X196422574Y-86331066D01*
X196422579Y-86331067D01*
X196451042Y-86333307D01*
X196451050Y-86333307D01*
X196453498Y-86333500D01*
X196886502Y-86333500D01*
X196888950Y-86333307D01*
X196888958Y-86333307D01*
X196917421Y-86331067D01*
X196917426Y-86331066D01*
X196923831Y-86330562D01*
X197052244Y-86293255D01*
X197075988Y-86286357D01*
X197075990Y-86286356D01*
X197083601Y-86284145D01*
X197226807Y-86199453D01*
X197229747Y-86196513D01*
X197294271Y-86171179D01*
X197363894Y-86185080D01*
X197382640Y-86197129D01*
X197390323Y-86203089D01*
X197519779Y-86279648D01*
X197534210Y-86285893D01*
X197668605Y-86324939D01*
X197682706Y-86324899D01*
X197686000Y-86317630D01*
X197686000Y-86311878D01*
X198194000Y-86311878D01*
X198197973Y-86325409D01*
X198205871Y-86326544D01*
X198345790Y-86285893D01*
X198360221Y-86279648D01*
X198489676Y-86203090D01*
X198497364Y-86197126D01*
X198563449Y-86171179D01*
X198633072Y-86185080D01*
X198649158Y-86195418D01*
X198653193Y-86199453D01*
X198796399Y-86284145D01*
X198804010Y-86286356D01*
X198804012Y-86286357D01*
X198827756Y-86293255D01*
X198956169Y-86330562D01*
X198962574Y-86331066D01*
X198962579Y-86331067D01*
X198991042Y-86333307D01*
X198991050Y-86333307D01*
X198993498Y-86333500D01*
X199426502Y-86333500D01*
X199428950Y-86333307D01*
X199428958Y-86333307D01*
X199457421Y-86331067D01*
X199457426Y-86331066D01*
X199463831Y-86330562D01*
X199592244Y-86293255D01*
X199615988Y-86286357D01*
X199615990Y-86286356D01*
X199623601Y-86284145D01*
X199766807Y-86199453D01*
X199769489Y-86196771D01*
X199833861Y-86171498D01*
X199903484Y-86185400D01*
X199919312Y-86195572D01*
X199923193Y-86199453D01*
X200066399Y-86284145D01*
X200074010Y-86286356D01*
X200074012Y-86286357D01*
X200097756Y-86293255D01*
X200226169Y-86330562D01*
X200232574Y-86331066D01*
X200232579Y-86331067D01*
X200261042Y-86333307D01*
X200261050Y-86333307D01*
X200263498Y-86333500D01*
X200696502Y-86333500D01*
X200698950Y-86333307D01*
X200698958Y-86333307D01*
X200727421Y-86331067D01*
X200727426Y-86331066D01*
X200733831Y-86330562D01*
X200862244Y-86293255D01*
X200885988Y-86286357D01*
X200885990Y-86286356D01*
X200893601Y-86284145D01*
X200940809Y-86256226D01*
X201029980Y-86203491D01*
X201029984Y-86203488D01*
X201036807Y-86199453D01*
X201154453Y-86081807D01*
X201158489Y-86074983D01*
X201158491Y-86074980D01*
X201235108Y-85945427D01*
X201239145Y-85938601D01*
X201285562Y-85778831D01*
X201288263Y-85744521D01*
X201288307Y-85743958D01*
X201288307Y-85743950D01*
X201288500Y-85741502D01*
X201288500Y-83958498D01*
X201288307Y-83956042D01*
X201286067Y-83927579D01*
X201286066Y-83927574D01*
X201285562Y-83921169D01*
X201247778Y-83791113D01*
X201241357Y-83769012D01*
X201241356Y-83769010D01*
X201239145Y-83761399D01*
X201154453Y-83618193D01*
X201156613Y-83616915D01*
X201135186Y-83562342D01*
X201149087Y-83492719D01*
X201167056Y-83466891D01*
X201234621Y-83391852D01*
X201234622Y-83391851D01*
X201239040Y-83386944D01*
X201278474Y-83318642D01*
X201331223Y-83227279D01*
X201331224Y-83227278D01*
X201334527Y-83221556D01*
X201393542Y-83039928D01*
X201395023Y-83025842D01*
X201412814Y-82856565D01*
X201413504Y-82850000D01*
X201399275Y-82714616D01*
X201394232Y-82666635D01*
X201394232Y-82666633D01*
X201393542Y-82660072D01*
X201334527Y-82478444D01*
X201328392Y-82467817D01*
X201290116Y-82401522D01*
X201239040Y-82313056D01*
X201232310Y-82305581D01*
X201115675Y-82176045D01*
X201115674Y-82176044D01*
X201111253Y-82171134D01*
X200987960Y-82081556D01*
X200962094Y-82062763D01*
X200962093Y-82062762D01*
X200956752Y-82058882D01*
X200950724Y-82056198D01*
X200950722Y-82056197D01*
X200788319Y-81983891D01*
X200788318Y-81983891D01*
X200782288Y-81981206D01*
X200688887Y-81961353D01*
X200601944Y-81942872D01*
X200601939Y-81942872D01*
X200595487Y-81941500D01*
X200404513Y-81941500D01*
X200398061Y-81942872D01*
X200398056Y-81942872D01*
X200222313Y-81980228D01*
X200151522Y-81974826D01*
X200094890Y-81932009D01*
X200070396Y-81865372D01*
X200076283Y-81818044D01*
X200077670Y-81813777D01*
X200093542Y-81764928D01*
X200104497Y-81660702D01*
X200112814Y-81581565D01*
X200113504Y-81575000D01*
X200097915Y-81426680D01*
X200094232Y-81391635D01*
X200094232Y-81391633D01*
X200093542Y-81385072D01*
X200034527Y-81203444D01*
X200016983Y-81173056D01*
X199971868Y-81094916D01*
X199939040Y-81038056D01*
X199932808Y-81031134D01*
X199815675Y-80901045D01*
X199815674Y-80901044D01*
X199811253Y-80896134D01*
X199685503Y-80804771D01*
X199662094Y-80787763D01*
X199662093Y-80787762D01*
X199656752Y-80783882D01*
X199650724Y-80781198D01*
X199650722Y-80781197D01*
X199488319Y-80708891D01*
X199488318Y-80708891D01*
X199482288Y-80706206D01*
X199388888Y-80686353D01*
X199301944Y-80667872D01*
X199301939Y-80667872D01*
X199295487Y-80666500D01*
X199104513Y-80666500D01*
X199098061Y-80667872D01*
X199098056Y-80667872D01*
X199011112Y-80686353D01*
X198917712Y-80706206D01*
X198911682Y-80708891D01*
X198911681Y-80708891D01*
X198749278Y-80781197D01*
X198749276Y-80781198D01*
X198743248Y-80783882D01*
X198737907Y-80787762D01*
X198737906Y-80787763D01*
X198714497Y-80804771D01*
X198588747Y-80896134D01*
X198584326Y-80901044D01*
X198584325Y-80901045D01*
X198467193Y-81031134D01*
X198460960Y-81038056D01*
X198428132Y-81094916D01*
X198383018Y-81173056D01*
X198365473Y-81203444D01*
X198306458Y-81385072D01*
X198305768Y-81391633D01*
X198305768Y-81391635D01*
X198302085Y-81426680D01*
X198286496Y-81575000D01*
X198287186Y-81581565D01*
X198295504Y-81660702D01*
X198306458Y-81764928D01*
X198365473Y-81946556D01*
X198368776Y-81952278D01*
X198368777Y-81952279D01*
X198387028Y-81983891D01*
X198460960Y-82111944D01*
X198465378Y-82116851D01*
X198465379Y-82116852D01*
X198544136Y-82204320D01*
X198574853Y-82268328D01*
X198576500Y-82288631D01*
X198576500Y-83327357D01*
X198556498Y-83395478D01*
X198502842Y-83441971D01*
X198432568Y-83452075D01*
X198386361Y-83435811D01*
X198360221Y-83420352D01*
X198345790Y-83414107D01*
X198211395Y-83375061D01*
X198197294Y-83375101D01*
X198194000Y-83382370D01*
X198194000Y-86311878D01*
X197686000Y-86311878D01*
X197686000Y-83388122D01*
X197682027Y-83374591D01*
X197674129Y-83373456D01*
X197534210Y-83414107D01*
X197519779Y-83420352D01*
X197390324Y-83496910D01*
X197382636Y-83502874D01*
X197316551Y-83528821D01*
X197246928Y-83514920D01*
X197230842Y-83504582D01*
X197226807Y-83500547D01*
X197189721Y-83478614D01*
X197090427Y-83419892D01*
X197090428Y-83419892D01*
X197083601Y-83415855D01*
X197075990Y-83413644D01*
X197075988Y-83413643D01*
X196988142Y-83388122D01*
X196923831Y-83369438D01*
X196917426Y-83368934D01*
X196917421Y-83368933D01*
X196888958Y-83366693D01*
X196888950Y-83366693D01*
X196886502Y-83366500D01*
X196453498Y-83366500D01*
X196451050Y-83366693D01*
X196451042Y-83366693D01*
X196422579Y-83368933D01*
X196422574Y-83368934D01*
X196416169Y-83369438D01*
X196351858Y-83388122D01*
X196264012Y-83413643D01*
X196264010Y-83413644D01*
X196256399Y-83415855D01*
X196249572Y-83419892D01*
X196249573Y-83419892D01*
X196120020Y-83496509D01*
X196120017Y-83496511D01*
X196113193Y-83500547D01*
X195995547Y-83618193D01*
X195991511Y-83625017D01*
X195991509Y-83625020D01*
X195927893Y-83732589D01*
X195910855Y-83761399D01*
X195908644Y-83769010D01*
X195908643Y-83769012D01*
X195902222Y-83791113D01*
X195864438Y-83921169D01*
X195863934Y-83927574D01*
X195863933Y-83927579D01*
X195861693Y-83956042D01*
X195861500Y-83958498D01*
X195861500Y-85741502D01*
X195131112Y-85741502D01*
X195134305Y-85738303D01*
X195138146Y-85732072D01*
X195223275Y-85593968D01*
X195223276Y-85593966D01*
X195227115Y-85587738D01*
X195282797Y-85419861D01*
X195293500Y-85315400D01*
X195293500Y-84539600D01*
X195282526Y-84433834D01*
X195279283Y-84424112D01*
X195228868Y-84273002D01*
X195226550Y-84266054D01*
X195133478Y-84115652D01*
X195008303Y-83990695D01*
X195004084Y-83988094D01*
X194963583Y-83930970D01*
X194960351Y-83860047D01*
X194995976Y-83798635D01*
X195003530Y-83792078D01*
X195009348Y-83788478D01*
X195134305Y-83663303D01*
X195189976Y-83572988D01*
X195223275Y-83518968D01*
X195223276Y-83518966D01*
X195227115Y-83512738D01*
X195257758Y-83420352D01*
X195280632Y-83351389D01*
X195280632Y-83351387D01*
X195282797Y-83344861D01*
X195284388Y-83329338D01*
X195293172Y-83243598D01*
X195293500Y-83240400D01*
X195293500Y-82464600D01*
X195287406Y-82405866D01*
X195283238Y-82365692D01*
X195283237Y-82365688D01*
X195282526Y-82358834D01*
X195279232Y-82348959D01*
X195228868Y-82198002D01*
X195226550Y-82191054D01*
X195133478Y-82040652D01*
X195072554Y-81979834D01*
X195038555Y-81945894D01*
X195004476Y-81883611D01*
X195007740Y-81817783D01*
X195011501Y-81806208D01*
X195013542Y-81799928D01*
X195017911Y-81758365D01*
X195032814Y-81616565D01*
X195033504Y-81610000D01*
X195024052Y-81520072D01*
X195014232Y-81426635D01*
X195014232Y-81426633D01*
X195013542Y-81420072D01*
X194954527Y-81238444D01*
X194948365Y-81227770D01*
X194887438Y-81122243D01*
X194868696Y-81089780D01*
X194851958Y-81020786D01*
X194869361Y-80962645D01*
X194879145Y-80946101D01*
X194882713Y-80933822D01*
X194901346Y-80869684D01*
X194925562Y-80786331D01*
X194926321Y-80776697D01*
X194928307Y-80751458D01*
X194928307Y-80751450D01*
X194928500Y-80749002D01*
X194928500Y-79440998D01*
X194928307Y-79438542D01*
X194926067Y-79410079D01*
X194926066Y-79410074D01*
X194925562Y-79403669D01*
X194891137Y-79285176D01*
X194881357Y-79251512D01*
X194881356Y-79251510D01*
X194879145Y-79243899D01*
X194872925Y-79233381D01*
X194872095Y-79230110D01*
X194871962Y-79229803D01*
X194872012Y-79229782D01*
X194855466Y-79164566D01*
X194877983Y-79097235D01*
X194930130Y-79054137D01*
X195004143Y-79021184D01*
X195074510Y-79011750D01*
X195138807Y-79041856D01*
X195162536Y-79069988D01*
X195224022Y-79169348D01*
X195349197Y-79294305D01*
X195355427Y-79298145D01*
X195355428Y-79298146D01*
X195492590Y-79382694D01*
X195499762Y-79387115D01*
X195539110Y-79400166D01*
X195661111Y-79440632D01*
X195661113Y-79440632D01*
X195667639Y-79442797D01*
X195674475Y-79443497D01*
X195674478Y-79443498D01*
X195717531Y-79447909D01*
X195772100Y-79453500D01*
X196547900Y-79453500D01*
X196551146Y-79453163D01*
X196551150Y-79453163D01*
X196646808Y-79443238D01*
X196646812Y-79443237D01*
X196653666Y-79442526D01*
X196660202Y-79440345D01*
X196660204Y-79440345D01*
X196792794Y-79396109D01*
X196821446Y-79386550D01*
X196971848Y-79293478D01*
X197096805Y-79168303D01*
X197099406Y-79164084D01*
X197156530Y-79123583D01*
X197227453Y-79120351D01*
X197288865Y-79155976D01*
X197295422Y-79163530D01*
X197299022Y-79169348D01*
X197424197Y-79294305D01*
X197430427Y-79298145D01*
X197430428Y-79298146D01*
X197567590Y-79382694D01*
X197574762Y-79387115D01*
X197614110Y-79400166D01*
X197736111Y-79440632D01*
X197736113Y-79440632D01*
X197742639Y-79442797D01*
X197749475Y-79443497D01*
X197749478Y-79443498D01*
X197792531Y-79447909D01*
X197847100Y-79453500D01*
X198622900Y-79453500D01*
X198626146Y-79453163D01*
X198626150Y-79453163D01*
X198721808Y-79443238D01*
X198721812Y-79443237D01*
X198728666Y-79442526D01*
X198735202Y-79440345D01*
X198735204Y-79440345D01*
X198867794Y-79396109D01*
X198896446Y-79386550D01*
X199046848Y-79293478D01*
X199171805Y-79168303D01*
X199199371Y-79123583D01*
X199260775Y-79023968D01*
X199260776Y-79023966D01*
X199264615Y-79017738D01*
X199277519Y-78978833D01*
X199317950Y-78920474D01*
X199383514Y-78893237D01*
X199448359Y-78903394D01*
X199617712Y-78978794D01*
X199711113Y-78998647D01*
X199798056Y-79017128D01*
X199798061Y-79017128D01*
X199804513Y-79018500D01*
X199995487Y-79018500D01*
X200001939Y-79017128D01*
X200001944Y-79017128D01*
X200088888Y-78998647D01*
X200182288Y-78978794D01*
X200221747Y-78961226D01*
X200350722Y-78903803D01*
X200350724Y-78903802D01*
X200356752Y-78901118D01*
X200363600Y-78896143D01*
X200444157Y-78837614D01*
X200511253Y-78788866D01*
X200591268Y-78700000D01*
X200634621Y-78651852D01*
X200634622Y-78651851D01*
X200639040Y-78646944D01*
X200697314Y-78546010D01*
X200731223Y-78487279D01*
X200731224Y-78487278D01*
X200734527Y-78481556D01*
X200793542Y-78299928D01*
X200806324Y-78178319D01*
X200812814Y-78116565D01*
X200813504Y-78110000D01*
X200802776Y-78007927D01*
X200794232Y-77926635D01*
X200794232Y-77926633D01*
X200793542Y-77920072D01*
X200734527Y-77738444D01*
X200730261Y-77731054D01*
X200691484Y-77663891D01*
X200639040Y-77573056D01*
X200612900Y-77544024D01*
X200515675Y-77436045D01*
X200515674Y-77436044D01*
X200511253Y-77431134D01*
X200356752Y-77318882D01*
X200350724Y-77316198D01*
X200350722Y-77316197D01*
X200188319Y-77243891D01*
X200188318Y-77243891D01*
X200182288Y-77241206D01*
X200088888Y-77221353D01*
X200001944Y-77202872D01*
X200001939Y-77202872D01*
X199995487Y-77201500D01*
X199804513Y-77201500D01*
X199798061Y-77202872D01*
X199798056Y-77202872D01*
X199711112Y-77221353D01*
X199617712Y-77241206D01*
X199611682Y-77243891D01*
X199611681Y-77243891D01*
X199449278Y-77316197D01*
X199449276Y-77316198D01*
X199443248Y-77318882D01*
X199385855Y-77360581D01*
X199385805Y-77360617D01*
X199318938Y-77384475D01*
X199249786Y-77368395D01*
X199204600Y-77324984D01*
X199174832Y-77276880D01*
X199170978Y-77270652D01*
X199045803Y-77145695D01*
X199009746Y-77123469D01*
X198901468Y-77056725D01*
X198901466Y-77056724D01*
X198895238Y-77052885D01*
X198734754Y-76999655D01*
X198733889Y-76999368D01*
X198733887Y-76999368D01*
X198727361Y-76997203D01*
X198720525Y-76996503D01*
X198720522Y-76996502D01*
X198677469Y-76992091D01*
X198622900Y-76986500D01*
X197847100Y-76986500D01*
X197843854Y-76986837D01*
X197843850Y-76986837D01*
X197748192Y-76996762D01*
X197748188Y-76996763D01*
X197741334Y-76997474D01*
X197734798Y-76999655D01*
X197734796Y-76999655D01*
X197663759Y-77023355D01*
X197573554Y-77053450D01*
X197423152Y-77146522D01*
X197298195Y-77271697D01*
X197295594Y-77275916D01*
X197238470Y-77316417D01*
X197167547Y-77319649D01*
X197106135Y-77284024D01*
X197099578Y-77276470D01*
X197095978Y-77270652D01*
X196970803Y-77145695D01*
X196934746Y-77123469D01*
X196826468Y-77056725D01*
X196826466Y-77056724D01*
X196820238Y-77052885D01*
X196659754Y-76999655D01*
X196658889Y-76999368D01*
X196658887Y-76999368D01*
X196652361Y-76997203D01*
X196645525Y-76996503D01*
X196645522Y-76996502D01*
X196602469Y-76992091D01*
X196547900Y-76986500D01*
X195772100Y-76986500D01*
X195768854Y-76986837D01*
X195768850Y-76986837D01*
X195673192Y-76996762D01*
X195673188Y-76996763D01*
X195666334Y-76997474D01*
X195659798Y-76999655D01*
X195659796Y-76999655D01*
X195588759Y-77023355D01*
X195498554Y-77053450D01*
X195348152Y-77146522D01*
X195223195Y-77271697D01*
X195219355Y-77277927D01*
X195219354Y-77277928D01*
X195162696Y-77369844D01*
X195109924Y-77417337D01*
X195039852Y-77428761D01*
X195004188Y-77418835D01*
X194858323Y-77353892D01*
X194858315Y-77353889D01*
X194852288Y-77351206D01*
X194747587Y-77328951D01*
X194671944Y-77312872D01*
X194671939Y-77312872D01*
X194665487Y-77311500D01*
X194474513Y-77311500D01*
X194468061Y-77312872D01*
X194468056Y-77312872D01*
X194392413Y-77328951D01*
X194287712Y-77351206D01*
X194281682Y-77353891D01*
X194281681Y-77353891D01*
X194119278Y-77426197D01*
X194119276Y-77426198D01*
X194113248Y-77428882D01*
X194108386Y-77432415D01*
X194039603Y-77449102D01*
X193972511Y-77425883D01*
X193930677Y-77374171D01*
X193929145Y-77368899D01*
X193920270Y-77353892D01*
X193848491Y-77232520D01*
X193848489Y-77232517D01*
X193844453Y-77225693D01*
X193726807Y-77108047D01*
X193719983Y-77104011D01*
X193719980Y-77104009D01*
X193590427Y-77027392D01*
X193590428Y-77027392D01*
X193583601Y-77023355D01*
X193575990Y-77021144D01*
X193575988Y-77021143D01*
X193491171Y-76996502D01*
X193423831Y-76976938D01*
X193417426Y-76976434D01*
X193417421Y-76976433D01*
X193388958Y-76974193D01*
X193388950Y-76974193D01*
X193386502Y-76974000D01*
X192953498Y-76974000D01*
X192951050Y-76974193D01*
X192951042Y-76974193D01*
X192922579Y-76976433D01*
X192922574Y-76976434D01*
X192916169Y-76976938D01*
X192848829Y-76996502D01*
X192764012Y-77021143D01*
X192764010Y-77021144D01*
X192756399Y-77023355D01*
X192749572Y-77027392D01*
X192749573Y-77027392D01*
X192620020Y-77104009D01*
X192620017Y-77104011D01*
X192613193Y-77108047D01*
X192495547Y-77225693D01*
X192491511Y-77232517D01*
X192491509Y-77232520D01*
X192442023Y-77316197D01*
X192410855Y-77368899D01*
X192364438Y-77528669D01*
X192363934Y-77535074D01*
X192363933Y-77535079D01*
X192363730Y-77537663D01*
X192361500Y-77565998D01*
X192361500Y-78723000D01*
X192341498Y-78791121D01*
X192287842Y-78837614D01*
X192235500Y-78849000D01*
X192003498Y-78849000D01*
X192001050Y-78849193D01*
X192001042Y-78849193D01*
X191972579Y-78851433D01*
X191972574Y-78851434D01*
X191966169Y-78851938D01*
X191866231Y-78880972D01*
X191814012Y-78896143D01*
X191814010Y-78896144D01*
X191806399Y-78898355D01*
X191799572Y-78902392D01*
X191799573Y-78902392D01*
X191670020Y-78979009D01*
X191670017Y-78979011D01*
X191663193Y-78983047D01*
X191545547Y-79100693D01*
X191541511Y-79107517D01*
X191541509Y-79107520D01*
X191479277Y-79212749D01*
X191460855Y-79243899D01*
X191458644Y-79251510D01*
X191458643Y-79251512D01*
X191448863Y-79285176D01*
X191414438Y-79403669D01*
X191413934Y-79410074D01*
X191413933Y-79410079D01*
X191411693Y-79438542D01*
X191411500Y-79440998D01*
X191411500Y-80678852D01*
X191391498Y-80746973D01*
X191337842Y-80793466D01*
X191311701Y-80802098D01*
X191127712Y-80841206D01*
X191121682Y-80843891D01*
X191121681Y-80843891D01*
X190959278Y-80916197D01*
X190959276Y-80916198D01*
X190953248Y-80918882D01*
X190947907Y-80922762D01*
X190947906Y-80922763D01*
X190915784Y-80946101D01*
X190798747Y-81031134D01*
X190794326Y-81036044D01*
X190794325Y-81036045D01*
X190748179Y-81087296D01*
X190670960Y-81173056D01*
X190628613Y-81246403D01*
X190580482Y-81329769D01*
X190575473Y-81338444D01*
X190516458Y-81520072D01*
X190515768Y-81526633D01*
X190515768Y-81526635D01*
X190506316Y-81616565D01*
X190496496Y-81710000D01*
X189072814Y-81710000D01*
X189060431Y-81660702D01*
X188971354Y-81455840D01*
X188904392Y-81352333D01*
X188852822Y-81272617D01*
X188852820Y-81272614D01*
X188850014Y-81268277D01*
X188699670Y-81103051D01*
X188695619Y-81099852D01*
X188695615Y-81099848D01*
X188528414Y-80967800D01*
X188528410Y-80967798D01*
X188524359Y-80964598D01*
X188519831Y-80962098D01*
X188403988Y-80898150D01*
X188328789Y-80856638D01*
X188323920Y-80854914D01*
X188323916Y-80854912D01*
X188123087Y-80783795D01*
X188123083Y-80783794D01*
X188118212Y-80782069D01*
X188113119Y-80781162D01*
X188113116Y-80781161D01*
X187903373Y-80743800D01*
X187903367Y-80743799D01*
X187898284Y-80742894D01*
X187824452Y-80741992D01*
X187680081Y-80740228D01*
X187680079Y-80740228D01*
X187674911Y-80740165D01*
X187454091Y-80773955D01*
X187241756Y-80843357D01*
X187211850Y-80858925D01*
X187067975Y-80933822D01*
X187043607Y-80946507D01*
X187039474Y-80949610D01*
X187039471Y-80949612D01*
X186914059Y-81043774D01*
X186864965Y-81080635D01*
X186861393Y-81084373D01*
X186753729Y-81197037D01*
X186710629Y-81242138D01*
X186603201Y-81399621D01*
X186548293Y-81444621D01*
X186477768Y-81452792D01*
X186414021Y-81421538D01*
X186393324Y-81397054D01*
X186312822Y-81272617D01*
X186312820Y-81272614D01*
X186310014Y-81268277D01*
X186159670Y-81103051D01*
X186155619Y-81099852D01*
X186155615Y-81099848D01*
X185988414Y-80967800D01*
X185988410Y-80967798D01*
X185984359Y-80964598D01*
X185979831Y-80962098D01*
X185863988Y-80898150D01*
X185788789Y-80856638D01*
X185783920Y-80854914D01*
X185783916Y-80854912D01*
X185583087Y-80783795D01*
X185583083Y-80783794D01*
X185578212Y-80782069D01*
X185573119Y-80781162D01*
X185573116Y-80781161D01*
X185363373Y-80743800D01*
X185363367Y-80743799D01*
X185358284Y-80742894D01*
X185284452Y-80741992D01*
X185140081Y-80740228D01*
X185140079Y-80740228D01*
X185134911Y-80740165D01*
X184914091Y-80773955D01*
X184701756Y-80843357D01*
X184671850Y-80858925D01*
X184527975Y-80933822D01*
X184503607Y-80946507D01*
X184499474Y-80949610D01*
X184499471Y-80949612D01*
X184374059Y-81043774D01*
X184324965Y-81080635D01*
X184321393Y-81084373D01*
X184213729Y-81197037D01*
X184170629Y-81242138D01*
X184063201Y-81399621D01*
X184008293Y-81444621D01*
X183937768Y-81452792D01*
X183874021Y-81421538D01*
X183853324Y-81397054D01*
X183772822Y-81272617D01*
X183772820Y-81272614D01*
X183770014Y-81268277D01*
X183619670Y-81103051D01*
X183615619Y-81099852D01*
X183615615Y-81099848D01*
X183448414Y-80967800D01*
X183448410Y-80967798D01*
X183444359Y-80964598D01*
X183439835Y-80962101D01*
X183439831Y-80962098D01*
X183388608Y-80933822D01*
X183338636Y-80883390D01*
X183323500Y-80823513D01*
X183323500Y-79640728D01*
X183343502Y-79572607D01*
X183383194Y-79533586D01*
X183431848Y-79503478D01*
X183556805Y-79378303D01*
X183582186Y-79337128D01*
X183645775Y-79233968D01*
X183645776Y-79233966D01*
X183649615Y-79227738D01*
X183658872Y-79199830D01*
X183699303Y-79141472D01*
X183764867Y-79114236D01*
X183778464Y-79113500D01*
X184009962Y-79113500D01*
X184078083Y-79133502D01*
X184124576Y-79187158D01*
X184129486Y-79199624D01*
X184133865Y-79212749D01*
X184155950Y-79278946D01*
X184249022Y-79429348D01*
X184374197Y-79554305D01*
X184380427Y-79558145D01*
X184380428Y-79558146D01*
X184517590Y-79642694D01*
X184524762Y-79647115D01*
X184573146Y-79663163D01*
X184686111Y-79700632D01*
X184686113Y-79700632D01*
X184692639Y-79702797D01*
X184699475Y-79703497D01*
X184699478Y-79703498D01*
X184742531Y-79707909D01*
X184797100Y-79713500D01*
X185572900Y-79713500D01*
X185576146Y-79713163D01*
X185576150Y-79713163D01*
X185671808Y-79703238D01*
X185671812Y-79703237D01*
X185678666Y-79702526D01*
X185685202Y-79700345D01*
X185685204Y-79700345D01*
X185826400Y-79653238D01*
X185846446Y-79646550D01*
X185996848Y-79553478D01*
X186121805Y-79428303D01*
X186124406Y-79424084D01*
X186181530Y-79383583D01*
X186252453Y-79380351D01*
X186313865Y-79415976D01*
X186320422Y-79423530D01*
X186324022Y-79429348D01*
X186449197Y-79554305D01*
X186455427Y-79558145D01*
X186455428Y-79558146D01*
X186592590Y-79642694D01*
X186599762Y-79647115D01*
X186648146Y-79663163D01*
X186761111Y-79700632D01*
X186761113Y-79700632D01*
X186767639Y-79702797D01*
X186774475Y-79703497D01*
X186774478Y-79703498D01*
X186817531Y-79707909D01*
X186872100Y-79713500D01*
X187647900Y-79713500D01*
X187651146Y-79713163D01*
X187651150Y-79713163D01*
X187746808Y-79703238D01*
X187746812Y-79703237D01*
X187753666Y-79702526D01*
X187760202Y-79700345D01*
X187760204Y-79700345D01*
X187901400Y-79653238D01*
X187921446Y-79646550D01*
X188071848Y-79553478D01*
X188196805Y-79428303D01*
X188208039Y-79410079D01*
X188279403Y-79294305D01*
X188287544Y-79281099D01*
X188340315Y-79233606D01*
X188410387Y-79222182D01*
X188468864Y-79245279D01*
X188544410Y-79300166D01*
X188573248Y-79321118D01*
X188579276Y-79323802D01*
X188579278Y-79323803D01*
X188726655Y-79389419D01*
X188747712Y-79398794D01*
X188828547Y-79415976D01*
X188928056Y-79437128D01*
X188928061Y-79437128D01*
X188934513Y-79438500D01*
X189125487Y-79438500D01*
X189131939Y-79437128D01*
X189131944Y-79437128D01*
X189231453Y-79415976D01*
X189312288Y-79398794D01*
X189333345Y-79389419D01*
X189480722Y-79323803D01*
X189480724Y-79323802D01*
X189486752Y-79321118D01*
X189519491Y-79297332D01*
X189595852Y-79241852D01*
X189641253Y-79208866D01*
X189682443Y-79163120D01*
X189764621Y-79071852D01*
X189764622Y-79071851D01*
X189769040Y-79066944D01*
X189864527Y-78901556D01*
X189923542Y-78719928D01*
X189924947Y-78706565D01*
X189942814Y-78536565D01*
X189943504Y-78530000D01*
X189923542Y-78340072D01*
X189864527Y-78158444D01*
X189832768Y-78103435D01*
X189827314Y-78093990D01*
X189769040Y-77993056D01*
X189693250Y-77908882D01*
X189645675Y-77856045D01*
X189645674Y-77856044D01*
X189641253Y-77851134D01*
X189510375Y-77756045D01*
X189492094Y-77742763D01*
X189492093Y-77742762D01*
X189486752Y-77738882D01*
X189480724Y-77736198D01*
X189480722Y-77736197D01*
X189318319Y-77663891D01*
X189318318Y-77663891D01*
X189312288Y-77661206D01*
X189218887Y-77641353D01*
X189131944Y-77622872D01*
X189131939Y-77622872D01*
X189125487Y-77621500D01*
X188934513Y-77621500D01*
X188928061Y-77622872D01*
X188928056Y-77622872D01*
X188841113Y-77641353D01*
X188747712Y-77661206D01*
X188741682Y-77663891D01*
X188741681Y-77663891D01*
X188579278Y-77736197D01*
X188579276Y-77736198D01*
X188573248Y-77738882D01*
X188567907Y-77742762D01*
X188567906Y-77742763D01*
X188499177Y-77792698D01*
X188432309Y-77816556D01*
X188363158Y-77800476D01*
X188313678Y-77749562D01*
X188305592Y-77730637D01*
X188291369Y-77688004D01*
X188291368Y-77688002D01*
X188289050Y-77681054D01*
X188195978Y-77530652D01*
X188070803Y-77405695D01*
X188023460Y-77376512D01*
X187926468Y-77316725D01*
X187926466Y-77316724D01*
X187920238Y-77312885D01*
X187833224Y-77284024D01*
X187758889Y-77259368D01*
X187758887Y-77259368D01*
X187752361Y-77257203D01*
X187745525Y-77256503D01*
X187745522Y-77256502D01*
X187702469Y-77252091D01*
X187647900Y-77246500D01*
X186872100Y-77246500D01*
X186868854Y-77246837D01*
X186868850Y-77246837D01*
X186773192Y-77256762D01*
X186773188Y-77256763D01*
X186766334Y-77257474D01*
X186759798Y-77259655D01*
X186759796Y-77259655D01*
X186708167Y-77276880D01*
X186598554Y-77313450D01*
X186448152Y-77406522D01*
X186323195Y-77531697D01*
X186320594Y-77535916D01*
X186263470Y-77576417D01*
X186192547Y-77579649D01*
X186131135Y-77544024D01*
X186124578Y-77536470D01*
X186120978Y-77530652D01*
X185995803Y-77405695D01*
X185948460Y-77376512D01*
X185851468Y-77316725D01*
X185851466Y-77316724D01*
X185845238Y-77312885D01*
X185758224Y-77284024D01*
X185683889Y-77259368D01*
X185683887Y-77259368D01*
X185677361Y-77257203D01*
X185670525Y-77256503D01*
X185670522Y-77256502D01*
X185627469Y-77252091D01*
X185572900Y-77246500D01*
X184797100Y-77246500D01*
X184793854Y-77246837D01*
X184793850Y-77246837D01*
X184698192Y-77256762D01*
X184698188Y-77256763D01*
X184691334Y-77257474D01*
X184684798Y-77259655D01*
X184684796Y-77259655D01*
X184633167Y-77276880D01*
X184523554Y-77313450D01*
X184373152Y-77406522D01*
X184248195Y-77531697D01*
X184244355Y-77537927D01*
X184244354Y-77537928D01*
X184179733Y-77642763D01*
X184155385Y-77682262D01*
X184141660Y-77723641D01*
X184129545Y-77760167D01*
X184089114Y-77818527D01*
X184023550Y-77845764D01*
X184009952Y-77846500D01*
X183778357Y-77846500D01*
X183710236Y-77826498D01*
X183663743Y-77772842D01*
X183658834Y-77760378D01*
X183651370Y-77738005D01*
X183651367Y-77737998D01*
X183649050Y-77731054D01*
X183555978Y-77580652D01*
X183510326Y-77535079D01*
X183435983Y-77460866D01*
X183430803Y-77455695D01*
X183390958Y-77431134D01*
X183286468Y-77366725D01*
X183286466Y-77366724D01*
X183280238Y-77362885D01*
X183177930Y-77328951D01*
X183118889Y-77309368D01*
X183118887Y-77309368D01*
X183112361Y-77307203D01*
X183105525Y-77306503D01*
X183105522Y-77306502D01*
X183062469Y-77302091D01*
X183007900Y-77296500D01*
X181832100Y-77296500D01*
X181828854Y-77296837D01*
X181828850Y-77296837D01*
X181733192Y-77306762D01*
X181733188Y-77306763D01*
X181726334Y-77307474D01*
X181719798Y-77309655D01*
X181719796Y-77309655D01*
X181599366Y-77349834D01*
X181558554Y-77363450D01*
X181408152Y-77456522D01*
X181283195Y-77581697D01*
X181279355Y-77587927D01*
X181279354Y-77587928D01*
X181197677Y-77720433D01*
X181190385Y-77732262D01*
X181134703Y-77900139D01*
X181134003Y-77906975D01*
X181134002Y-77906978D01*
X181131988Y-77926635D01*
X181124000Y-78004600D01*
X181124000Y-78955400D01*
X181124337Y-78958646D01*
X181124337Y-78958650D01*
X181134245Y-79054137D01*
X181134974Y-79061166D01*
X181137155Y-79067702D01*
X181137155Y-79067704D01*
X181154720Y-79120351D01*
X181190950Y-79228946D01*
X181284022Y-79379348D01*
X181409197Y-79504305D01*
X181415427Y-79508145D01*
X181415428Y-79508146D01*
X181552590Y-79592694D01*
X181559762Y-79597115D01*
X181594087Y-79608500D01*
X181721111Y-79650632D01*
X181721113Y-79650632D01*
X181727639Y-79652797D01*
X181734475Y-79653497D01*
X181734478Y-79653498D01*
X181777531Y-79657909D01*
X181832100Y-79663500D01*
X181930500Y-79663500D01*
X181998621Y-79683502D01*
X182045114Y-79737158D01*
X182056500Y-79789500D01*
X182056500Y-80821692D01*
X182036498Y-80889813D01*
X181988683Y-80933453D01*
X181963607Y-80946507D01*
X181959474Y-80949610D01*
X181959471Y-80949612D01*
X181834059Y-81043774D01*
X181784965Y-81080635D01*
X181728537Y-81139684D01*
X181704283Y-81165064D01*
X181642759Y-81200494D01*
X181571846Y-81197037D01*
X181514060Y-81155791D01*
X181495207Y-81122243D01*
X181453767Y-81011703D01*
X181450615Y-81003295D01*
X181363261Y-80886739D01*
X181246705Y-80799385D01*
X181110316Y-80748255D01*
X181048134Y-80741500D01*
X179251866Y-80741500D01*
X179189684Y-80748255D01*
X179053295Y-80799385D01*
X178936739Y-80886739D01*
X178849385Y-81003295D01*
X178798255Y-81139684D01*
X178791500Y-81201866D01*
X178791500Y-82998134D01*
X175636979Y-82998134D01*
X175631679Y-78430000D01*
X176976496Y-78430000D01*
X176977186Y-78436565D01*
X176994109Y-78597574D01*
X176996458Y-78619928D01*
X177055473Y-78801556D01*
X177150960Y-78966944D01*
X177155378Y-78971851D01*
X177155379Y-78971852D01*
X177243741Y-79069988D01*
X177278747Y-79108866D01*
X177353421Y-79163120D01*
X177416385Y-79208866D01*
X177433248Y-79221118D01*
X177439276Y-79223802D01*
X177439278Y-79223803D01*
X177601681Y-79296109D01*
X177607712Y-79298794D01*
X177694479Y-79317237D01*
X177788056Y-79337128D01*
X177788061Y-79337128D01*
X177794513Y-79338500D01*
X177985487Y-79338500D01*
X177991939Y-79337128D01*
X177991944Y-79337128D01*
X178085521Y-79317237D01*
X178172288Y-79298794D01*
X178178321Y-79296108D01*
X178178327Y-79296106D01*
X178218306Y-79278307D01*
X178288673Y-79268873D01*
X178352969Y-79298980D01*
X178376694Y-79327106D01*
X178409022Y-79379348D01*
X178534197Y-79504305D01*
X178540427Y-79508145D01*
X178540428Y-79508146D01*
X178677590Y-79592694D01*
X178684762Y-79597115D01*
X178719087Y-79608500D01*
X178846111Y-79650632D01*
X178846113Y-79650632D01*
X178852639Y-79652797D01*
X178859475Y-79653497D01*
X178859478Y-79653498D01*
X178902531Y-79657909D01*
X178957100Y-79663500D01*
X180132900Y-79663500D01*
X180136146Y-79663163D01*
X180136150Y-79663163D01*
X180231808Y-79653238D01*
X180231812Y-79653237D01*
X180238666Y-79652526D01*
X180245202Y-79650345D01*
X180245204Y-79650345D01*
X180377306Y-79606272D01*
X180406446Y-79596550D01*
X180556848Y-79503478D01*
X180681805Y-79378303D01*
X180707186Y-79337128D01*
X180770775Y-79233968D01*
X180770776Y-79233966D01*
X180774615Y-79227738D01*
X180805872Y-79133502D01*
X180828132Y-79066389D01*
X180828132Y-79066387D01*
X180830297Y-79059861D01*
X180841000Y-78955400D01*
X180841000Y-78004600D01*
X180837247Y-77968428D01*
X180830738Y-77905692D01*
X180830737Y-77905688D01*
X180830026Y-77898834D01*
X180822587Y-77876535D01*
X180776662Y-77738882D01*
X180774050Y-77731054D01*
X180680978Y-77580652D01*
X180635326Y-77535079D01*
X180560983Y-77460866D01*
X180555803Y-77455695D01*
X180515958Y-77431134D01*
X180411468Y-77366725D01*
X180411466Y-77366724D01*
X180405238Y-77362885D01*
X180302930Y-77328951D01*
X180243889Y-77309368D01*
X180243887Y-77309368D01*
X180237361Y-77307203D01*
X180230525Y-77306503D01*
X180230522Y-77306502D01*
X180187469Y-77302091D01*
X180132900Y-77296500D01*
X178957100Y-77296500D01*
X178953854Y-77296837D01*
X178953850Y-77296837D01*
X178858192Y-77306762D01*
X178858188Y-77306763D01*
X178851334Y-77307474D01*
X178844798Y-77309655D01*
X178844796Y-77309655D01*
X178724366Y-77349834D01*
X178683554Y-77363450D01*
X178533152Y-77456522D01*
X178527979Y-77461704D01*
X178411006Y-77578881D01*
X178348723Y-77612960D01*
X178277903Y-77607957D01*
X178270584Y-77604970D01*
X178178319Y-77563891D01*
X178178318Y-77563891D01*
X178172288Y-77561206D01*
X178078887Y-77541353D01*
X177991944Y-77522872D01*
X177991939Y-77522872D01*
X177985487Y-77521500D01*
X177794513Y-77521500D01*
X177788061Y-77522872D01*
X177788056Y-77522872D01*
X177701112Y-77541353D01*
X177607712Y-77561206D01*
X177601682Y-77563891D01*
X177601681Y-77563891D01*
X177439278Y-77636197D01*
X177439276Y-77636198D01*
X177433248Y-77638882D01*
X177278747Y-77751134D01*
X177274326Y-77756044D01*
X177274325Y-77756045D01*
X177156154Y-77887288D01*
X177150960Y-77893056D01*
X177055473Y-78058444D01*
X176996458Y-78240072D01*
X176995768Y-78246633D01*
X176995768Y-78246635D01*
X176986509Y-78334729D01*
X176976496Y-78430000D01*
X175631679Y-78430000D01*
X175624471Y-72216695D01*
X184237251Y-72216695D01*
X184237548Y-72221848D01*
X184237548Y-72221851D01*
X184243011Y-72316590D01*
X184250110Y-72439715D01*
X184251247Y-72444761D01*
X184251248Y-72444767D01*
X184268937Y-72523255D01*
X184299222Y-72657639D01*
X184383266Y-72864616D01*
X184426199Y-72934677D01*
X184454147Y-72980283D01*
X184499987Y-73055088D01*
X184646250Y-73223938D01*
X184650230Y-73227242D01*
X184654981Y-73231187D01*
X184694616Y-73290090D01*
X184696113Y-73361071D01*
X184658997Y-73421593D01*
X184618724Y-73446112D01*
X184503295Y-73489385D01*
X184386739Y-73576739D01*
X184299385Y-73693295D01*
X184248255Y-73829684D01*
X184241500Y-73891866D01*
X184241500Y-75688134D01*
X184248255Y-75750316D01*
X184299385Y-75886705D01*
X184386739Y-76003261D01*
X184503295Y-76090615D01*
X184639684Y-76141745D01*
X184701866Y-76148500D01*
X186498134Y-76148500D01*
X186560316Y-76141745D01*
X186696705Y-76090615D01*
X186813261Y-76003261D01*
X186900615Y-75886705D01*
X186951745Y-75750316D01*
X186958500Y-75688134D01*
X186958500Y-73891866D01*
X186951745Y-73829684D01*
X186900615Y-73693295D01*
X186813261Y-73576739D01*
X186696705Y-73489385D01*
X186684132Y-73484672D01*
X186578203Y-73444960D01*
X186521439Y-73402318D01*
X186496739Y-73335756D01*
X186511947Y-73266408D01*
X186533493Y-73237727D01*
X186634435Y-73137137D01*
X186638096Y-73133489D01*
X186697594Y-73050689D01*
X186765435Y-72956277D01*
X186768453Y-72952077D01*
X186790591Y-72907285D01*
X186865136Y-72756453D01*
X186865137Y-72756451D01*
X186867430Y-72751811D01*
X186932370Y-72538069D01*
X186961529Y-72316590D01*
X186963156Y-72250000D01*
X186944852Y-72027361D01*
X186890431Y-71810702D01*
X186801354Y-71605840D01*
X186680014Y-71418277D01*
X186529670Y-71253051D01*
X186525619Y-71249852D01*
X186525615Y-71249848D01*
X186358414Y-71117800D01*
X186358410Y-71117798D01*
X186354359Y-71114598D01*
X186312569Y-71091529D01*
X186262598Y-71041097D01*
X186247826Y-70971654D01*
X186272942Y-70905248D01*
X186300294Y-70878641D01*
X186475328Y-70753792D01*
X186483200Y-70747139D01*
X186634052Y-70596812D01*
X186640730Y-70588965D01*
X186765003Y-70416020D01*
X186770313Y-70407183D01*
X186864670Y-70216267D01*
X186868469Y-70206672D01*
X186930377Y-70002910D01*
X186932555Y-69992837D01*
X186933986Y-69981962D01*
X186931775Y-69967778D01*
X186918617Y-69964000D01*
X184283225Y-69964000D01*
X184269694Y-69967973D01*
X184268257Y-69977966D01*
X184298565Y-70112446D01*
X184301645Y-70122275D01*
X184381770Y-70319603D01*
X184386413Y-70328794D01*
X184497694Y-70510388D01*
X184503777Y-70518699D01*
X184643213Y-70679667D01*
X184650580Y-70686883D01*
X184814434Y-70822916D01*
X184822881Y-70828831D01*
X184891969Y-70869203D01*
X184940693Y-70920842D01*
X184953764Y-70990625D01*
X184927033Y-71056396D01*
X184886584Y-71089752D01*
X184873607Y-71096507D01*
X184869474Y-71099610D01*
X184869471Y-71099612D01*
X184845247Y-71117800D01*
X184694965Y-71230635D01*
X184540629Y-71392138D01*
X184414743Y-71576680D01*
X184320688Y-71779305D01*
X184260989Y-71994570D01*
X184237251Y-72216695D01*
X175624471Y-72216695D01*
X175618577Y-67136695D01*
X184237251Y-67136695D01*
X184237548Y-67141848D01*
X184237548Y-67141851D01*
X184249141Y-67342905D01*
X184250110Y-67359715D01*
X184251247Y-67364761D01*
X184251248Y-67364767D01*
X184253075Y-67372872D01*
X184299222Y-67577639D01*
X184337461Y-67671811D01*
X184379510Y-67775365D01*
X184383266Y-67784616D01*
X184398821Y-67810000D01*
X184455641Y-67902721D01*
X184499987Y-67975088D01*
X184646250Y-68143938D01*
X184818126Y-68286632D01*
X184891955Y-68329774D01*
X184940679Y-68381412D01*
X184953750Y-68451195D01*
X184927019Y-68516967D01*
X184886562Y-68550327D01*
X184878457Y-68554546D01*
X184869738Y-68560036D01*
X184699433Y-68687905D01*
X184691726Y-68694748D01*
X184544590Y-68848717D01*
X184538104Y-68856727D01*
X184418098Y-69032649D01*
X184413000Y-69041623D01*
X184323338Y-69234783D01*
X184319775Y-69244470D01*
X184264389Y-69444183D01*
X184265912Y-69452607D01*
X184278292Y-69456000D01*
X186918344Y-69456000D01*
X186931875Y-69452027D01*
X186933180Y-69442947D01*
X186891214Y-69275875D01*
X186887894Y-69266124D01*
X186802972Y-69070814D01*
X186798105Y-69061739D01*
X186682426Y-68882926D01*
X186676136Y-68874757D01*
X186532806Y-68717240D01*
X186525273Y-68710215D01*
X186358139Y-68578222D01*
X186349556Y-68572520D01*
X186312602Y-68552120D01*
X186262631Y-68501687D01*
X186247859Y-68432245D01*
X186272975Y-68365839D01*
X186300327Y-68339232D01*
X186323797Y-68322491D01*
X186383368Y-68280000D01*
X208586496Y-68280000D01*
X208587186Y-68286565D01*
X208603226Y-68439174D01*
X208606458Y-68469928D01*
X208665473Y-68651556D01*
X208760960Y-68816944D01*
X208765378Y-68821851D01*
X208765379Y-68821852D01*
X208796781Y-68856727D01*
X208888747Y-68958866D01*
X209043248Y-69071118D01*
X209049276Y-69073802D01*
X209049278Y-69073803D01*
X209205826Y-69143502D01*
X209217712Y-69148794D01*
X209311112Y-69168647D01*
X209398056Y-69187128D01*
X209398061Y-69187128D01*
X209404513Y-69188500D01*
X209595487Y-69188500D01*
X209601939Y-69187128D01*
X209601944Y-69187128D01*
X209740660Y-69157642D01*
X209782288Y-69148794D01*
X209788321Y-69146108D01*
X209788324Y-69146107D01*
X209814634Y-69134393D01*
X209865882Y-69123500D01*
X210188000Y-69123500D01*
X210256121Y-69143502D01*
X210302614Y-69197158D01*
X210314000Y-69249500D01*
X210314000Y-69640400D01*
X210314337Y-69643646D01*
X210314337Y-69643650D01*
X210324252Y-69739206D01*
X210324974Y-69746166D01*
X210380950Y-69913946D01*
X210474022Y-70064348D01*
X210599197Y-70189305D01*
X210605427Y-70193145D01*
X210605428Y-70193146D01*
X210742788Y-70277816D01*
X210749762Y-70282115D01*
X210829505Y-70308564D01*
X210911111Y-70335632D01*
X210911113Y-70335632D01*
X210917639Y-70337797D01*
X210924475Y-70338497D01*
X210924478Y-70338498D01*
X210967531Y-70342909D01*
X211022100Y-70348500D01*
X211947900Y-70348500D01*
X211951146Y-70348163D01*
X211951150Y-70348163D01*
X212046808Y-70338238D01*
X212046812Y-70338237D01*
X212053666Y-70337526D01*
X212060202Y-70335345D01*
X212060204Y-70335345D01*
X212192306Y-70291272D01*
X212221446Y-70281550D01*
X212371848Y-70188478D01*
X212496805Y-70063303D01*
X212589615Y-69912738D01*
X212645297Y-69744861D01*
X212656000Y-69640400D01*
X212656000Y-69637095D01*
X213439501Y-69637095D01*
X213439838Y-69643614D01*
X213449757Y-69739206D01*
X213452649Y-69752600D01*
X213504088Y-69906784D01*
X213510261Y-69919962D01*
X213595563Y-70057807D01*
X213604599Y-70069208D01*
X213719329Y-70183739D01*
X213730740Y-70192751D01*
X213868743Y-70277816D01*
X213881924Y-70283963D01*
X214036210Y-70335138D01*
X214049586Y-70338005D01*
X214143938Y-70347672D01*
X214150354Y-70348000D01*
X214337885Y-70348000D01*
X214353124Y-70343525D01*
X214354329Y-70342135D01*
X214356000Y-70334452D01*
X214356000Y-70329884D01*
X214864000Y-70329884D01*
X214868475Y-70345123D01*
X214869865Y-70346328D01*
X214877548Y-70347999D01*
X215069595Y-70347999D01*
X215076114Y-70347662D01*
X215171706Y-70337743D01*
X215185100Y-70334851D01*
X215339284Y-70283412D01*
X215352462Y-70277239D01*
X215490307Y-70191937D01*
X215501708Y-70182901D01*
X215616239Y-70068171D01*
X215625251Y-70056760D01*
X215710316Y-69918757D01*
X215716463Y-69905576D01*
X215767638Y-69751290D01*
X215770505Y-69737914D01*
X215780172Y-69643562D01*
X215780500Y-69637146D01*
X215780500Y-68762115D01*
X215776025Y-68746876D01*
X215774635Y-68745671D01*
X215766952Y-68744000D01*
X214882115Y-68744000D01*
X214866876Y-68748475D01*
X214865671Y-68749865D01*
X214864000Y-68757548D01*
X214864000Y-70329884D01*
X214356000Y-70329884D01*
X214356000Y-68762115D01*
X214351525Y-68746876D01*
X214350135Y-68745671D01*
X214342452Y-68744000D01*
X213457616Y-68744000D01*
X213442377Y-68748475D01*
X213441172Y-68749865D01*
X213439501Y-68757548D01*
X213439501Y-69637095D01*
X212656000Y-69637095D01*
X212656000Y-68217885D01*
X213439500Y-68217885D01*
X213443975Y-68233124D01*
X213445365Y-68234329D01*
X213453048Y-68236000D01*
X214337885Y-68236000D01*
X214353124Y-68231525D01*
X214354329Y-68230135D01*
X214356000Y-68222452D01*
X214356000Y-68217885D01*
X214864000Y-68217885D01*
X214868475Y-68233124D01*
X214869865Y-68234329D01*
X214877548Y-68236000D01*
X215762384Y-68236000D01*
X215777623Y-68231525D01*
X215778828Y-68230135D01*
X215780499Y-68222452D01*
X215780499Y-67342905D01*
X215780162Y-67336386D01*
X215770243Y-67240794D01*
X215767351Y-67227400D01*
X215715912Y-67073216D01*
X215709739Y-67060038D01*
X215624437Y-66922193D01*
X215615401Y-66910792D01*
X215500671Y-66796261D01*
X215489260Y-66787249D01*
X215351257Y-66702184D01*
X215338076Y-66696037D01*
X215183790Y-66644862D01*
X215170414Y-66641995D01*
X215076062Y-66632328D01*
X215069645Y-66632000D01*
X214882115Y-66632000D01*
X214866876Y-66636475D01*
X214865671Y-66637865D01*
X214864000Y-66645548D01*
X214864000Y-68217885D01*
X214356000Y-68217885D01*
X214356000Y-66650116D01*
X214351525Y-66634877D01*
X214350135Y-66633672D01*
X214342452Y-66632001D01*
X214150405Y-66632001D01*
X214143886Y-66632338D01*
X214048294Y-66642257D01*
X214034900Y-66645149D01*
X213880716Y-66696588D01*
X213867538Y-66702761D01*
X213729693Y-66788063D01*
X213718292Y-66797099D01*
X213603761Y-66911829D01*
X213594749Y-66923240D01*
X213509684Y-67061243D01*
X213503537Y-67074424D01*
X213452362Y-67228710D01*
X213449495Y-67242086D01*
X213439828Y-67336438D01*
X213439500Y-67342855D01*
X213439500Y-68217885D01*
X212656000Y-68217885D01*
X212656000Y-67339600D01*
X212655663Y-67336350D01*
X212645738Y-67240692D01*
X212645737Y-67240688D01*
X212645026Y-67233834D01*
X212589050Y-67066054D01*
X212495978Y-66915652D01*
X212370803Y-66790695D01*
X212364572Y-66786854D01*
X212226468Y-66701725D01*
X212226466Y-66701724D01*
X212220238Y-66697885D01*
X212140495Y-66671436D01*
X212058889Y-66644368D01*
X212058887Y-66644368D01*
X212052361Y-66642203D01*
X212045525Y-66641503D01*
X212045522Y-66641502D01*
X212002469Y-66637091D01*
X211947900Y-66631500D01*
X211022100Y-66631500D01*
X211018854Y-66631837D01*
X211018850Y-66631837D01*
X210923192Y-66641762D01*
X210923188Y-66641763D01*
X210916334Y-66642474D01*
X210909798Y-66644655D01*
X210909796Y-66644655D01*
X210893428Y-66650116D01*
X210748554Y-66698450D01*
X210598152Y-66791522D01*
X210473195Y-66916697D01*
X210380385Y-67067262D01*
X210359058Y-67131562D01*
X210346309Y-67170000D01*
X210324703Y-67235139D01*
X210324003Y-67241975D01*
X210324002Y-67241978D01*
X210319591Y-67285031D01*
X210314000Y-67339600D01*
X210314000Y-67501617D01*
X210293998Y-67569738D01*
X210240342Y-67616231D01*
X210170068Y-67626335D01*
X210112523Y-67599386D01*
X210111253Y-67601134D01*
X209962094Y-67492763D01*
X209962093Y-67492762D01*
X209956752Y-67488882D01*
X209950724Y-67486198D01*
X209950722Y-67486197D01*
X209788319Y-67413891D01*
X209788318Y-67413891D01*
X209782288Y-67411206D01*
X209688887Y-67391353D01*
X209601944Y-67372872D01*
X209601939Y-67372872D01*
X209595487Y-67371500D01*
X209404513Y-67371500D01*
X209398061Y-67372872D01*
X209398056Y-67372872D01*
X209311113Y-67391353D01*
X209217712Y-67411206D01*
X209211682Y-67413891D01*
X209211681Y-67413891D01*
X209049278Y-67486197D01*
X209049276Y-67486198D01*
X209043248Y-67488882D01*
X208888747Y-67601134D01*
X208884326Y-67606044D01*
X208884325Y-67606045D01*
X208820930Y-67676453D01*
X208760960Y-67743056D01*
X208739729Y-67779829D01*
X208686470Y-67872077D01*
X208665473Y-67908444D01*
X208606458Y-68090072D01*
X208605768Y-68096633D01*
X208605768Y-68096635D01*
X208587186Y-68273435D01*
X208586496Y-68280000D01*
X186383368Y-68280000D01*
X186479860Y-68211173D01*
X186525864Y-68165330D01*
X186634435Y-68057137D01*
X186638096Y-68053489D01*
X186697594Y-67970689D01*
X186765435Y-67876277D01*
X186768453Y-67872077D01*
X186796540Y-67815248D01*
X186865136Y-67676453D01*
X186865137Y-67676451D01*
X186867430Y-67671811D01*
X186932370Y-67458069D01*
X186961529Y-67236590D01*
X186963156Y-67170000D01*
X186944852Y-66947361D01*
X186890431Y-66730702D01*
X186801354Y-66525840D01*
X186680014Y-66338277D01*
X186529670Y-66173051D01*
X186525619Y-66169852D01*
X186525615Y-66169848D01*
X186358414Y-66037800D01*
X186358410Y-66037798D01*
X186354359Y-66034598D01*
X186158789Y-65926638D01*
X186153920Y-65924914D01*
X186153916Y-65924912D01*
X185953087Y-65853795D01*
X185953083Y-65853794D01*
X185948212Y-65852069D01*
X185943119Y-65851162D01*
X185943116Y-65851161D01*
X185733373Y-65813800D01*
X185733367Y-65813799D01*
X185728284Y-65812894D01*
X185654452Y-65811992D01*
X185510081Y-65810228D01*
X185510079Y-65810228D01*
X185504911Y-65810165D01*
X185284091Y-65843955D01*
X185071756Y-65913357D01*
X184873607Y-66016507D01*
X184869474Y-66019610D01*
X184869471Y-66019612D01*
X184772617Y-66092332D01*
X184694965Y-66150635D01*
X184691393Y-66154373D01*
X184561183Y-66290630D01*
X184540629Y-66312138D01*
X184414743Y-66496680D01*
X184399003Y-66530590D01*
X184343521Y-66650116D01*
X184320688Y-66699305D01*
X184260989Y-66914570D01*
X184237251Y-67136695D01*
X175618577Y-67136695D01*
X175616721Y-65537095D01*
X213512001Y-65537095D01*
X213512338Y-65543614D01*
X213522257Y-65639206D01*
X213525149Y-65652600D01*
X213576588Y-65806784D01*
X213582761Y-65819962D01*
X213668063Y-65957807D01*
X213677099Y-65969208D01*
X213791829Y-66083739D01*
X213803240Y-66092751D01*
X213941243Y-66177816D01*
X213954424Y-66183963D01*
X214108710Y-66235138D01*
X214122086Y-66238005D01*
X214216438Y-66247672D01*
X214222854Y-66248000D01*
X214397885Y-66248000D01*
X214413124Y-66243525D01*
X214414329Y-66242135D01*
X214416000Y-66234452D01*
X214416000Y-66229884D01*
X214924000Y-66229884D01*
X214928475Y-66245123D01*
X214929865Y-66246328D01*
X214937548Y-66247999D01*
X215117095Y-66247999D01*
X215123614Y-66247662D01*
X215219206Y-66237743D01*
X215232600Y-66234851D01*
X215386784Y-66183412D01*
X215399962Y-66177239D01*
X215537807Y-66091937D01*
X215549208Y-66082901D01*
X215663739Y-65968171D01*
X215672751Y-65956760D01*
X215757816Y-65818757D01*
X215763963Y-65805576D01*
X215815138Y-65651290D01*
X215818005Y-65637914D01*
X215827672Y-65543562D01*
X215827834Y-65540400D01*
X217961500Y-65540400D01*
X217961837Y-65543646D01*
X217961837Y-65543650D01*
X217971752Y-65639206D01*
X217972474Y-65646166D01*
X218028450Y-65813946D01*
X218121522Y-65964348D01*
X218246697Y-66089305D01*
X218252927Y-66093145D01*
X218252928Y-66093146D01*
X218390288Y-66177816D01*
X218397262Y-66182115D01*
X218477005Y-66208564D01*
X218558611Y-66235632D01*
X218558613Y-66235632D01*
X218565139Y-66237797D01*
X218571975Y-66238497D01*
X218571978Y-66238498D01*
X218615031Y-66242909D01*
X218669600Y-66248500D01*
X219570400Y-66248500D01*
X219573646Y-66248163D01*
X219573650Y-66248163D01*
X219669308Y-66238238D01*
X219669312Y-66238237D01*
X219676166Y-66237526D01*
X219682702Y-66235345D01*
X219682704Y-66235345D01*
X219814806Y-66191272D01*
X219843946Y-66181550D01*
X219994348Y-66088478D01*
X220119305Y-65963303D01*
X220191882Y-65845562D01*
X220208275Y-65818968D01*
X220208276Y-65818966D01*
X220212115Y-65812738D01*
X220267797Y-65644861D01*
X220278500Y-65540400D01*
X220278500Y-65234500D01*
X220298502Y-65166379D01*
X220352158Y-65119886D01*
X220404500Y-65108500D01*
X223041502Y-65108500D01*
X223109623Y-65128502D01*
X223156116Y-65182158D01*
X223159484Y-65190270D01*
X223199385Y-65296705D01*
X223286739Y-65413261D01*
X223377013Y-65480918D01*
X223383965Y-65486128D01*
X223426479Y-65542988D01*
X223431504Y-65613806D01*
X223415832Y-65652788D01*
X223307073Y-65830268D01*
X223305180Y-65834839D01*
X223228644Y-66019612D01*
X223213195Y-66056908D01*
X223204590Y-66092751D01*
X223167277Y-66248172D01*
X223155928Y-66295443D01*
X223136681Y-66540000D01*
X223155928Y-66784557D01*
X223157082Y-66789364D01*
X223157083Y-66789370D01*
X223188896Y-66921880D01*
X223213195Y-67023092D01*
X223215088Y-67027663D01*
X223215089Y-67027665D01*
X223247136Y-67105033D01*
X223307073Y-67249732D01*
X223364145Y-67342866D01*
X223431598Y-67452939D01*
X223435248Y-67458896D01*
X223438463Y-67462660D01*
X223438465Y-67462663D01*
X223553415Y-67597251D01*
X223594567Y-67645433D01*
X223598323Y-67648641D01*
X223675069Y-67714189D01*
X223713878Y-67773640D01*
X223714384Y-67844635D01*
X223675069Y-67905811D01*
X223598323Y-67971359D01*
X223594567Y-67974567D01*
X223591359Y-67978323D01*
X223495916Y-68090072D01*
X223435248Y-68161104D01*
X223307073Y-68370268D01*
X223213195Y-68596908D01*
X223212040Y-68601720D01*
X223159191Y-68821852D01*
X223155928Y-68835443D01*
X223136681Y-69080000D01*
X223155928Y-69324557D01*
X223157082Y-69329364D01*
X223157083Y-69329370D01*
X223193351Y-69480437D01*
X223213195Y-69563092D01*
X223307073Y-69789732D01*
X223435248Y-69998896D01*
X223438463Y-70002660D01*
X223438465Y-70002663D01*
X223591359Y-70181677D01*
X223594567Y-70185433D01*
X223598323Y-70188641D01*
X223773782Y-70338498D01*
X223781104Y-70344752D01*
X223785327Y-70347340D01*
X223785330Y-70347342D01*
X223787220Y-70348500D01*
X223990268Y-70472927D01*
X224100771Y-70518699D01*
X224212335Y-70564911D01*
X224212337Y-70564912D01*
X224216908Y-70566805D01*
X224299563Y-70586649D01*
X224450630Y-70622917D01*
X224450636Y-70622918D01*
X224455443Y-70624072D01*
X224700000Y-70643319D01*
X224944557Y-70624072D01*
X224949364Y-70622918D01*
X224949370Y-70622917D01*
X225100437Y-70586649D01*
X225183092Y-70566805D01*
X225187663Y-70564912D01*
X225187665Y-70564911D01*
X225299229Y-70518699D01*
X225409732Y-70472927D01*
X225612780Y-70348500D01*
X225614670Y-70347342D01*
X225614673Y-70347340D01*
X225618896Y-70344752D01*
X225626219Y-70338498D01*
X225801677Y-70188641D01*
X225805433Y-70185433D01*
X225808641Y-70181677D01*
X225961535Y-70002663D01*
X225961537Y-70002660D01*
X225964752Y-69998896D01*
X226092927Y-69789732D01*
X226186805Y-69563092D01*
X226206649Y-69480437D01*
X226242917Y-69329370D01*
X226242918Y-69329364D01*
X226244072Y-69324557D01*
X226263319Y-69080000D01*
X226244072Y-68835443D01*
X226240810Y-68821852D01*
X226187960Y-68601720D01*
X226186805Y-68596908D01*
X226092927Y-68370268D01*
X225964752Y-68161104D01*
X225904085Y-68090072D01*
X225808641Y-67978323D01*
X225805433Y-67974567D01*
X225801677Y-67971359D01*
X225724931Y-67905811D01*
X225686122Y-67846360D01*
X225685616Y-67775365D01*
X225724931Y-67714189D01*
X225801677Y-67648641D01*
X225805433Y-67645433D01*
X225846585Y-67597251D01*
X225961535Y-67462663D01*
X225961537Y-67462660D01*
X225964752Y-67458896D01*
X225968403Y-67452939D01*
X226035855Y-67342866D01*
X226092927Y-67249732D01*
X226152864Y-67105033D01*
X226184911Y-67027665D01*
X226184912Y-67027663D01*
X226186805Y-67023092D01*
X226211104Y-66921880D01*
X226242917Y-66789370D01*
X226242918Y-66789364D01*
X226244072Y-66784557D01*
X226263319Y-66540000D01*
X226244072Y-66295443D01*
X226232724Y-66248172D01*
X226195410Y-66092751D01*
X226186805Y-66056908D01*
X226171357Y-66019612D01*
X226094820Y-65834839D01*
X226092927Y-65830268D01*
X225984168Y-65652788D01*
X225965630Y-65584255D01*
X225987087Y-65516578D01*
X226016035Y-65486128D01*
X226022987Y-65480918D01*
X226113261Y-65413261D01*
X226200615Y-65296705D01*
X226251745Y-65160316D01*
X226258500Y-65098134D01*
X226258500Y-62901866D01*
X226251745Y-62839684D01*
X226200615Y-62703295D01*
X226113261Y-62586739D01*
X225996705Y-62499385D01*
X225860316Y-62448255D01*
X225798134Y-62441500D01*
X223601866Y-62441500D01*
X223539684Y-62448255D01*
X223403295Y-62499385D01*
X223286739Y-62586739D01*
X223199385Y-62703295D01*
X223196233Y-62711703D01*
X223159484Y-62809730D01*
X223116842Y-62866494D01*
X223050281Y-62891194D01*
X223041502Y-62891500D01*
X220404500Y-62891500D01*
X220336379Y-62871498D01*
X220289886Y-62817842D01*
X220278500Y-62765500D01*
X220278500Y-62539600D01*
X220278163Y-62536350D01*
X220268238Y-62440692D01*
X220268237Y-62440688D01*
X220267526Y-62433834D01*
X220211550Y-62266054D01*
X220118478Y-62115652D01*
X219993303Y-61990695D01*
X219987072Y-61986854D01*
X219848968Y-61901725D01*
X219848966Y-61901724D01*
X219842738Y-61897885D01*
X219762995Y-61871436D01*
X219681389Y-61844368D01*
X219681387Y-61844368D01*
X219674861Y-61842203D01*
X219668025Y-61841503D01*
X219668022Y-61841502D01*
X219624969Y-61837091D01*
X219570400Y-61831500D01*
X218669600Y-61831500D01*
X218666354Y-61831837D01*
X218666350Y-61831837D01*
X218570692Y-61841762D01*
X218570688Y-61841763D01*
X218563834Y-61842474D01*
X218557298Y-61844655D01*
X218557296Y-61844655D01*
X218540928Y-61850116D01*
X218396054Y-61898450D01*
X218245652Y-61991522D01*
X218120695Y-62116697D01*
X218027885Y-62267262D01*
X217972203Y-62435139D01*
X217971503Y-62441975D01*
X217971502Y-62441978D01*
X217970859Y-62448255D01*
X217961500Y-62539600D01*
X217961500Y-65540400D01*
X215827834Y-65540400D01*
X215828000Y-65537146D01*
X215828000Y-64312115D01*
X215823525Y-64296876D01*
X215822135Y-64295671D01*
X215814452Y-64294000D01*
X214942115Y-64294000D01*
X214926876Y-64298475D01*
X214925671Y-64299865D01*
X214924000Y-64307548D01*
X214924000Y-66229884D01*
X214416000Y-66229884D01*
X214416000Y-64312115D01*
X214411525Y-64296876D01*
X214410135Y-64295671D01*
X214402452Y-64294000D01*
X213530116Y-64294000D01*
X213514877Y-64298475D01*
X213513672Y-64299865D01*
X213512001Y-64307548D01*
X213512001Y-65537095D01*
X175616721Y-65537095D01*
X175614669Y-63767885D01*
X213512000Y-63767885D01*
X213516475Y-63783124D01*
X213517865Y-63784329D01*
X213525548Y-63786000D01*
X214397885Y-63786000D01*
X214413124Y-63781525D01*
X214414329Y-63780135D01*
X214416000Y-63772452D01*
X214416000Y-63767885D01*
X214924000Y-63767885D01*
X214928475Y-63783124D01*
X214929865Y-63784329D01*
X214937548Y-63786000D01*
X215809884Y-63786000D01*
X215825123Y-63781525D01*
X215826328Y-63780135D01*
X215827999Y-63772452D01*
X215827999Y-62542905D01*
X215827662Y-62536386D01*
X215817743Y-62440794D01*
X215814851Y-62427400D01*
X215763412Y-62273216D01*
X215757239Y-62260038D01*
X215671937Y-62122193D01*
X215662901Y-62110792D01*
X215548171Y-61996261D01*
X215536760Y-61987249D01*
X215398757Y-61902184D01*
X215385576Y-61896037D01*
X215231290Y-61844862D01*
X215217914Y-61841995D01*
X215123562Y-61832328D01*
X215117145Y-61832000D01*
X214942115Y-61832000D01*
X214926876Y-61836475D01*
X214925671Y-61837865D01*
X214924000Y-61845548D01*
X214924000Y-63767885D01*
X214416000Y-63767885D01*
X214416000Y-61850116D01*
X214411525Y-61834877D01*
X214410135Y-61833672D01*
X214402452Y-61832001D01*
X214222905Y-61832001D01*
X214216386Y-61832338D01*
X214120794Y-61842257D01*
X214107400Y-61845149D01*
X213953216Y-61896588D01*
X213940038Y-61902761D01*
X213802193Y-61988063D01*
X213790792Y-61997099D01*
X213676261Y-62111829D01*
X213667249Y-62123240D01*
X213582184Y-62261243D01*
X213576037Y-62274424D01*
X213524862Y-62428710D01*
X213521995Y-62442086D01*
X213512328Y-62536438D01*
X213512000Y-62542855D01*
X213512000Y-63767885D01*
X175614669Y-63767885D01*
X175609201Y-59054645D01*
X175629124Y-58986502D01*
X175682726Y-58939947D01*
X175735201Y-58928500D01*
X229997500Y-58928500D01*
X230065621Y-58948502D01*
G37*
%TD.AperFunction*%
%TD*%
M02*
