%TF.GenerationSoftware,KiCad,Pcbnew,(6.0.10)*%
%TF.CreationDate,2023-02-04T03:47:28-05:00*%
%TF.ProjectId,lin-valve-control,6c696e2d-7661-46c7-9665-2d636f6e7472,1.0*%
%TF.SameCoordinates,Original*%
%TF.FileFunction,Copper,L2,Inr*%
%TF.FilePolarity,Positive*%
%FSLAX46Y46*%
G04 Gerber Fmt 4.6, Leading zero omitted, Abs format (unit mm)*
G04 Created by KiCad (PCBNEW (6.0.10)) date 2023-02-04 03:47:28*
%MOMM*%
%LPD*%
G01*
G04 APERTURE LIST*
%TA.AperFunction,ComponentPad*%
%ADD10R,2.100000X2.100000*%
%TD*%
%TA.AperFunction,ComponentPad*%
%ADD11C,2.100000*%
%TD*%
%TA.AperFunction,ComponentPad*%
%ADD12C,2.286000*%
%TD*%
%TA.AperFunction,ComponentPad*%
%ADD13C,0.500000*%
%TD*%
%TA.AperFunction,ComponentPad*%
%ADD14R,1.600000X1.600000*%
%TD*%
%TA.AperFunction,ComponentPad*%
%ADD15O,1.600000X1.600000*%
%TD*%
%TA.AperFunction,ViaPad*%
%ADD16C,0.800000*%
%TD*%
%TA.AperFunction,Conductor*%
%ADD17C,0.250000*%
%TD*%
%TA.AperFunction,Conductor*%
%ADD18C,0.200000*%
%TD*%
G04 APERTURE END LIST*
D10*
%TO.N,+12V*%
%TO.C,J6*%
X183642000Y-63246000D03*
D11*
%TO.N,GND*%
X186182000Y-63246000D03*
%TO.N,LIN*%
X188722000Y-63246000D03*
%TD*%
D10*
%TO.N,+5V*%
%TO.C,J5*%
X158750000Y-62992000D03*
D11*
%TO.N,GND*%
X161290000Y-62992000D03*
%TO.N,FLOW_PULSE*%
X163830000Y-62992000D03*
%TD*%
D12*
%TO.N,VALVE2+*%
%TO.C,J2*%
X217759280Y-63312040D03*
%TO.N,GND*%
X217759280Y-70612000D03*
%TO.N,VALVE2-*%
X217759280Y-77911960D03*
%TO.N,VALVE2_OPEN*%
X215259920Y-65613280D03*
%TO.N,VALVE2_CLOSED*%
X215259920Y-75610720D03*
%TO.N,N/C*%
X227459540Y-75610720D03*
X227459540Y-65613280D03*
%TD*%
D10*
%TO.N,COOLANT_NTC*%
%TO.C,J4*%
X172042000Y-62992000D03*
D11*
%TO.N,GND*%
X174582000Y-62992000D03*
%TD*%
D13*
%TO.N,GND*%
%TO.C,U3*%
X204228000Y-81002000D03*
X204228000Y-79502000D03*
X205728000Y-78002000D03*
X204228000Y-78002000D03*
X205728000Y-81002000D03*
X205728000Y-79502000D03*
%TD*%
D12*
%TO.N,VALVE1+*%
%TO.C,J3*%
X217759280Y-83124040D03*
%TO.N,GND*%
X217759280Y-90424000D03*
%TO.N,VALVE1-*%
X217759280Y-97723960D03*
%TO.N,VALVE1_OPEN*%
X215259920Y-85425280D03*
%TO.N,VALVE1_CLOSED*%
X215259920Y-95422720D03*
%TO.N,N/C*%
X227459540Y-95422720D03*
X227459540Y-85425280D03*
%TD*%
D14*
%TO.N,TXD*%
%TO.C,U1*%
X194818000Y-82814000D03*
D15*
%TO.N,RXD*%
X192278000Y-82814000D03*
%TO.N,unconnected-(U1-Pad3)*%
X189738000Y-82814000D03*
%TO.N,GND*%
X187198000Y-82814000D03*
%TO.N,~{LIN_SLP}*%
X184658000Y-82814000D03*
%TO.N,~{LIN_WAKE}*%
X182118000Y-82814000D03*
%TO.N,VALVE_IN1+*%
X179578000Y-82814000D03*
%TO.N,VALVE_IN1-*%
X177038000Y-82814000D03*
%TO.N,VALVE1_CLOSED*%
X174498000Y-82814000D03*
%TO.N,VALVE1_OPEN*%
X171958000Y-82814000D03*
%TO.N,FLOW_PULSE*%
X169418000Y-82814000D03*
%TO.N,VALVE_IN2+*%
X166878000Y-82814000D03*
%TO.N,VALVE_IN2-*%
X164338000Y-82814000D03*
%TO.N,VALVE2_CLOSED*%
X161798000Y-82814000D03*
%TO.N,VALVE2_OPEN*%
X159258000Y-82814000D03*
%TO.N,~{MOTOR_FAULT}*%
X159258000Y-98054000D03*
%TO.N,+3V3*%
X161798000Y-98054000D03*
%TO.N,+5V*%
X164338000Y-98054000D03*
%TO.N,MOTOR_EN*%
X166878000Y-98054000D03*
%TO.N,unconnected-(U1-Pad20)*%
X169418000Y-98054000D03*
%TO.N,unconnected-(U1-Pad21)*%
X171958000Y-98054000D03*
%TO.N,unconnected-(U1-Pad22)*%
X174498000Y-98054000D03*
%TO.N,SDA5*%
X177038000Y-98054000D03*
%TO.N,SCL5*%
X179578000Y-98054000D03*
%TO.N,unconnected-(U1-Pad25)*%
X182118000Y-98054000D03*
%TO.N,COOLANT_NTC*%
X184658000Y-98054000D03*
%TO.N,+5V*%
X187198000Y-98054000D03*
%TO.N,unconnected-(U1-Pad28)*%
X189738000Y-98054000D03*
%TO.N,GND*%
X192278000Y-98054000D03*
%TO.N,+12V*%
X194818000Y-98054000D03*
%TD*%
D16*
%TO.N,+5V*%
X169672000Y-90424000D03*
%TO.N,GND*%
X201676000Y-73406000D03*
X202946000Y-87630000D03*
X200660000Y-96266000D03*
X194564000Y-69850000D03*
%TO.N,+5V*%
X174498000Y-90424000D03*
X187674000Y-87251500D03*
%TO.N,Net-(C3-Pad1)*%
X200152000Y-80427500D03*
%TO.N,RXD*%
X187960000Y-76454000D03*
%TO.N,~{LIN_WAKE}*%
X192024000Y-79248000D03*
%TO.N,VALVE_IN1+*%
X178562000Y-85598000D03*
X200406000Y-82296000D03*
%TO.N,VALVE_IN1-*%
X199898000Y-81534000D03*
%TO.N,VALVE1_CLOSED*%
X174498000Y-87122000D03*
%TO.N,VALVE_IN2+*%
X198882000Y-76962000D03*
%TO.N,VALVE_IN2-*%
X197104000Y-77470000D03*
%TO.N,FLOW_PULSE*%
X163830000Y-68834000D03*
%TO.N,~{MOTOR_FAULT}*%
X209550000Y-76708000D03*
X161798000Y-92202000D03*
%TO.N,MOTOR_EN*%
X169672000Y-93218000D03*
X209042000Y-83058000D03*
%TO.N,COOLANT_NTC*%
X184658000Y-89154000D03*
X172042000Y-68750000D03*
%TO.N,+12V*%
X200660000Y-78994000D03*
%TO.N,VALVE1-*%
X213106000Y-82550000D03*
X212090000Y-80264000D03*
%TO.N,Net-(R5-Pad1)*%
X210312000Y-82804000D03*
X210312000Y-80772000D03*
%TO.N,Net-(R7-Pad1)*%
X210566000Y-78232000D03*
X211074000Y-75438000D03*
%TO.N,+3V3*%
X203454000Y-93218000D03*
%TO.N,SDA*%
X173482000Y-94234000D03*
X205486000Y-93218000D03*
%TO.N,SCL*%
X206756000Y-93472000D03*
X183388000Y-95250000D03*
%TD*%
D17*
%TO.N,+5V*%
X158750000Y-76962000D02*
X158750000Y-62992000D01*
X163068000Y-81280000D02*
X158750000Y-76962000D01*
X163068000Y-83820000D02*
X163068000Y-81280000D01*
X169672000Y-90424000D02*
X163068000Y-83820000D01*
%TO.N,FLOW_PULSE*%
X163830000Y-72136000D02*
X163830000Y-68834000D01*
X169418000Y-77724000D02*
X163830000Y-72136000D01*
X169418000Y-82814000D02*
X169418000Y-77724000D01*
%TO.N,RXD*%
X192278000Y-80772000D02*
X187960000Y-76454000D01*
X192278000Y-82814000D02*
X192278000Y-80772000D01*
D18*
%TO.N,VALVE_IN1+*%
X179578000Y-84582000D02*
X178562000Y-85598000D01*
X179578000Y-82814000D02*
X179578000Y-84582000D01*
D17*
%TO.N,VALVE1_CLOSED*%
X174498000Y-82814000D02*
X174498000Y-87122000D01*
%TO.N,~{MOTOR_FAULT}*%
X207518000Y-78740000D02*
X209550000Y-76708000D01*
X207518000Y-81788000D02*
X207518000Y-78740000D01*
X197104000Y-92202000D02*
X207518000Y-81788000D01*
X161798000Y-92202000D02*
X197104000Y-92202000D01*
%TO.N,MOTOR_EN*%
X198882000Y-93218000D02*
X169672000Y-93218000D01*
X209042000Y-83058000D02*
X198882000Y-93218000D01*
%TO.N,COOLANT_NTC*%
X180993000Y-85489000D02*
X180993000Y-80663000D01*
X180993000Y-80663000D02*
X172072819Y-71742819D01*
X172072819Y-68780819D02*
X172042000Y-68750000D01*
X184658000Y-89154000D02*
X180993000Y-85489000D01*
X172072819Y-71742819D02*
X172072819Y-68780819D01*
%TD*%
M02*
