%TF.GenerationSoftware,KiCad,Pcbnew,(6.0.10)*%
%TF.CreationDate,2023-02-04T01:48:26-05:00*%
%TF.ProjectId,lin-valve-control,6c696e2d-7661-46c7-9665-2d636f6e7472,rev?*%
%TF.SameCoordinates,Original*%
%TF.FileFunction,Legend,Top*%
%TF.FilePolarity,Positive*%
%FSLAX46Y46*%
G04 Gerber Fmt 4.6, Leading zero omitted, Abs format (unit mm)*
G04 Created by KiCad (PCBNEW (6.0.10)) date 2023-02-04 01:48:26*
%MOMM*%
%LPD*%
G01*
G04 APERTURE LIST*
%ADD10C,0.150000*%
%ADD11C,0.127000*%
%ADD12C,0.254000*%
%ADD13C,0.010000*%
%ADD14C,0.120000*%
%ADD15C,0.398780*%
%ADD16C,0.203200*%
G04 APERTURE END LIST*
D10*
X154433047Y-74239333D02*
X154385428Y-74191714D01*
X154290190Y-74048857D01*
X154242571Y-73953619D01*
X154194952Y-73810761D01*
X154147333Y-73572666D01*
X154147333Y-73382190D01*
X154194952Y-73144095D01*
X154242571Y-73001238D01*
X154290190Y-72906000D01*
X154385428Y-72763142D01*
X154433047Y-72715523D01*
X155242571Y-73810761D02*
X155147333Y-73858380D01*
X154956857Y-73858380D01*
X154861619Y-73810761D01*
X154814000Y-73763142D01*
X154766380Y-73667904D01*
X154766380Y-73382190D01*
X154814000Y-73286952D01*
X154861619Y-73239333D01*
X154956857Y-73191714D01*
X155147333Y-73191714D01*
X155242571Y-73239333D01*
X155575904Y-74239333D02*
X155623523Y-74191714D01*
X155718761Y-74048857D01*
X155766380Y-73953619D01*
X155814000Y-73810761D01*
X155861619Y-73572666D01*
X155861619Y-73382190D01*
X155814000Y-73144095D01*
X155766380Y-73001238D01*
X155718761Y-72906000D01*
X155623523Y-72763142D01*
X155575904Y-72715523D01*
X157052095Y-72953619D02*
X157099714Y-72906000D01*
X157194952Y-72858380D01*
X157433047Y-72858380D01*
X157528285Y-72906000D01*
X157575904Y-72953619D01*
X157623523Y-73048857D01*
X157623523Y-73144095D01*
X157575904Y-73286952D01*
X157004476Y-73858380D01*
X157623523Y-73858380D01*
X158242571Y-72858380D02*
X158337809Y-72858380D01*
X158433047Y-72906000D01*
X158480666Y-72953619D01*
X158528285Y-73048857D01*
X158575904Y-73239333D01*
X158575904Y-73477428D01*
X158528285Y-73667904D01*
X158480666Y-73763142D01*
X158433047Y-73810761D01*
X158337809Y-73858380D01*
X158242571Y-73858380D01*
X158147333Y-73810761D01*
X158099714Y-73763142D01*
X158052095Y-73667904D01*
X158004476Y-73477428D01*
X158004476Y-73239333D01*
X158052095Y-73048857D01*
X158099714Y-72953619D01*
X158147333Y-72906000D01*
X158242571Y-72858380D01*
X158956857Y-72953619D02*
X159004476Y-72906000D01*
X159099714Y-72858380D01*
X159337809Y-72858380D01*
X159433047Y-72906000D01*
X159480666Y-72953619D01*
X159528285Y-73048857D01*
X159528285Y-73144095D01*
X159480666Y-73286952D01*
X158909238Y-73858380D01*
X159528285Y-73858380D01*
X159861619Y-72858380D02*
X160480666Y-72858380D01*
X160147333Y-73239333D01*
X160290190Y-73239333D01*
X160385428Y-73286952D01*
X160433047Y-73334571D01*
X160480666Y-73429809D01*
X160480666Y-73667904D01*
X160433047Y-73763142D01*
X160385428Y-73810761D01*
X160290190Y-73858380D01*
X160004476Y-73858380D01*
X159909238Y-73810761D01*
X159861619Y-73763142D01*
X162194952Y-72906000D02*
X162099714Y-72858380D01*
X161956857Y-72858380D01*
X161814000Y-72906000D01*
X161718761Y-73001238D01*
X161671142Y-73096476D01*
X161623523Y-73286952D01*
X161623523Y-73429809D01*
X161671142Y-73620285D01*
X161718761Y-73715523D01*
X161814000Y-73810761D01*
X161956857Y-73858380D01*
X162052095Y-73858380D01*
X162194952Y-73810761D01*
X162242571Y-73763142D01*
X162242571Y-73429809D01*
X162052095Y-73429809D01*
X163099714Y-73858380D02*
X163099714Y-73334571D01*
X163052095Y-73239333D01*
X162956857Y-73191714D01*
X162766380Y-73191714D01*
X162671142Y-73239333D01*
X163099714Y-73810761D02*
X163004476Y-73858380D01*
X162766380Y-73858380D01*
X162671142Y-73810761D01*
X162623523Y-73715523D01*
X162623523Y-73620285D01*
X162671142Y-73525047D01*
X162766380Y-73477428D01*
X163004476Y-73477428D01*
X163099714Y-73429809D01*
X163480666Y-73191714D02*
X163718761Y-73858380D01*
X163956857Y-73191714D01*
X164337809Y-73858380D02*
X164337809Y-73191714D01*
X164337809Y-72858380D02*
X164290190Y-72906000D01*
X164337809Y-72953619D01*
X164385428Y-72906000D01*
X164337809Y-72858380D01*
X164337809Y-72953619D01*
X164814000Y-73191714D02*
X164814000Y-73858380D01*
X164814000Y-73286952D02*
X164861619Y-73239333D01*
X164956857Y-73191714D01*
X165099714Y-73191714D01*
X165194952Y-73239333D01*
X165242571Y-73334571D01*
X165242571Y-73858380D01*
X166480666Y-73858380D02*
X166480666Y-72858380D01*
X166480666Y-73334571D02*
X167052095Y-73334571D01*
X167052095Y-73858380D02*
X167052095Y-72858380D01*
X167956857Y-73191714D02*
X167956857Y-73858380D01*
X167528285Y-73191714D02*
X167528285Y-73715523D01*
X167575904Y-73810761D01*
X167671142Y-73858380D01*
X167814000Y-73858380D01*
X167909238Y-73810761D01*
X167956857Y-73763142D01*
X168433047Y-73858380D02*
X168433047Y-73191714D01*
X168433047Y-73382190D02*
X168480666Y-73286952D01*
X168528285Y-73239333D01*
X168623523Y-73191714D01*
X168718761Y-73191714D01*
X169194952Y-73858380D02*
X169099714Y-73810761D01*
X169052095Y-73715523D01*
X169052095Y-72858380D01*
X169575904Y-73858380D02*
X169575904Y-72858380D01*
X169575904Y-73239333D02*
X169671142Y-73191714D01*
X169861619Y-73191714D01*
X169956857Y-73239333D01*
X170004476Y-73286952D01*
X170052095Y-73382190D01*
X170052095Y-73667904D01*
X170004476Y-73763142D01*
X169956857Y-73810761D01*
X169861619Y-73858380D01*
X169671142Y-73858380D01*
X169575904Y-73810761D01*
X170909238Y-73191714D02*
X170909238Y-73858380D01*
X170480666Y-73191714D02*
X170480666Y-73715523D01*
X170528285Y-73810761D01*
X170623523Y-73858380D01*
X170766380Y-73858380D01*
X170861619Y-73810761D01*
X170909238Y-73763142D01*
X171242571Y-73191714D02*
X171623523Y-73191714D01*
X171385428Y-72858380D02*
X171385428Y-73715523D01*
X171433047Y-73810761D01*
X171528285Y-73858380D01*
X171623523Y-73858380D01*
X154655523Y-71572380D02*
X154179333Y-71572380D01*
X154179333Y-70572380D01*
X154988857Y-71572380D02*
X154988857Y-70572380D01*
X155465047Y-71572380D02*
X155465047Y-70572380D01*
X156036476Y-71572380D01*
X156036476Y-70572380D01*
X156846000Y-71048571D02*
X156988857Y-71096190D01*
X157036476Y-71143809D01*
X157084095Y-71239047D01*
X157084095Y-71381904D01*
X157036476Y-71477142D01*
X156988857Y-71524761D01*
X156893619Y-71572380D01*
X156512666Y-71572380D01*
X156512666Y-70572380D01*
X156846000Y-70572380D01*
X156941238Y-70620000D01*
X156988857Y-70667619D01*
X157036476Y-70762857D01*
X157036476Y-70858095D01*
X156988857Y-70953333D01*
X156941238Y-71000952D01*
X156846000Y-71048571D01*
X156512666Y-71048571D01*
X157941238Y-70905714D02*
X157941238Y-71572380D01*
X157512666Y-70905714D02*
X157512666Y-71429523D01*
X157560285Y-71524761D01*
X157655523Y-71572380D01*
X157798380Y-71572380D01*
X157893619Y-71524761D01*
X157941238Y-71477142D01*
X158369809Y-71524761D02*
X158465047Y-71572380D01*
X158655523Y-71572380D01*
X158750761Y-71524761D01*
X158798380Y-71429523D01*
X158798380Y-71381904D01*
X158750761Y-71286666D01*
X158655523Y-71239047D01*
X158512666Y-71239047D01*
X158417428Y-71191428D01*
X158369809Y-71096190D01*
X158369809Y-71048571D01*
X158417428Y-70953333D01*
X158512666Y-70905714D01*
X158655523Y-70905714D01*
X158750761Y-70953333D01*
X159846000Y-70572380D02*
X160179333Y-71572380D01*
X160512666Y-70572380D01*
X161274571Y-71572380D02*
X161274571Y-71048571D01*
X161226952Y-70953333D01*
X161131714Y-70905714D01*
X160941238Y-70905714D01*
X160846000Y-70953333D01*
X161274571Y-71524761D02*
X161179333Y-71572380D01*
X160941238Y-71572380D01*
X160846000Y-71524761D01*
X160798380Y-71429523D01*
X160798380Y-71334285D01*
X160846000Y-71239047D01*
X160941238Y-71191428D01*
X161179333Y-71191428D01*
X161274571Y-71143809D01*
X161893619Y-71572380D02*
X161798380Y-71524761D01*
X161750761Y-71429523D01*
X161750761Y-70572380D01*
X162179333Y-70905714D02*
X162417428Y-71572380D01*
X162655523Y-70905714D01*
X163417428Y-71524761D02*
X163322190Y-71572380D01*
X163131714Y-71572380D01*
X163036476Y-71524761D01*
X162988857Y-71429523D01*
X162988857Y-71048571D01*
X163036476Y-70953333D01*
X163131714Y-70905714D01*
X163322190Y-70905714D01*
X163417428Y-70953333D01*
X163465047Y-71048571D01*
X163465047Y-71143809D01*
X162988857Y-71239047D01*
X165226952Y-71477142D02*
X165179333Y-71524761D01*
X165036476Y-71572380D01*
X164941238Y-71572380D01*
X164798380Y-71524761D01*
X164703142Y-71429523D01*
X164655523Y-71334285D01*
X164607904Y-71143809D01*
X164607904Y-71000952D01*
X164655523Y-70810476D01*
X164703142Y-70715238D01*
X164798380Y-70620000D01*
X164941238Y-70572380D01*
X165036476Y-70572380D01*
X165179333Y-70620000D01*
X165226952Y-70667619D01*
X165798380Y-71572380D02*
X165703142Y-71524761D01*
X165655523Y-71477142D01*
X165607904Y-71381904D01*
X165607904Y-71096190D01*
X165655523Y-71000952D01*
X165703142Y-70953333D01*
X165798380Y-70905714D01*
X165941238Y-70905714D01*
X166036476Y-70953333D01*
X166084095Y-71000952D01*
X166131714Y-71096190D01*
X166131714Y-71381904D01*
X166084095Y-71477142D01*
X166036476Y-71524761D01*
X165941238Y-71572380D01*
X165798380Y-71572380D01*
X166560285Y-70905714D02*
X166560285Y-71572380D01*
X166560285Y-71000952D02*
X166607904Y-70953333D01*
X166703142Y-70905714D01*
X166846000Y-70905714D01*
X166941238Y-70953333D01*
X166988857Y-71048571D01*
X166988857Y-71572380D01*
X167322190Y-70905714D02*
X167703142Y-70905714D01*
X167465047Y-70572380D02*
X167465047Y-71429523D01*
X167512666Y-71524761D01*
X167607904Y-71572380D01*
X167703142Y-71572380D01*
X168036476Y-71572380D02*
X168036476Y-70905714D01*
X168036476Y-71096190D02*
X168084095Y-71000952D01*
X168131714Y-70953333D01*
X168226952Y-70905714D01*
X168322190Y-70905714D01*
X168798380Y-71572380D02*
X168703142Y-71524761D01*
X168655523Y-71477142D01*
X168607904Y-71381904D01*
X168607904Y-71096190D01*
X168655523Y-71000952D01*
X168703142Y-70953333D01*
X168798380Y-70905714D01*
X168941238Y-70905714D01*
X169036476Y-70953333D01*
X169084095Y-71000952D01*
X169131714Y-71096190D01*
X169131714Y-71381904D01*
X169084095Y-71477142D01*
X169036476Y-71524761D01*
X168941238Y-71572380D01*
X168798380Y-71572380D01*
X169703142Y-71572380D02*
X169607904Y-71524761D01*
X169560285Y-71429523D01*
X169560285Y-70572380D01*
X170226952Y-71572380D02*
X170131714Y-71524761D01*
X170084095Y-71429523D01*
X170084095Y-70572380D01*
X170988857Y-71524761D02*
X170893619Y-71572380D01*
X170703142Y-71572380D01*
X170607904Y-71524761D01*
X170560285Y-71429523D01*
X170560285Y-71048571D01*
X170607904Y-70953333D01*
X170703142Y-70905714D01*
X170893619Y-70905714D01*
X170988857Y-70953333D01*
X171036476Y-71048571D01*
X171036476Y-71143809D01*
X170560285Y-71239047D01*
X171465047Y-71572380D02*
X171465047Y-70905714D01*
X171465047Y-71096190D02*
X171512666Y-71000952D01*
X171560285Y-70953333D01*
X171655523Y-70905714D01*
X171750761Y-70905714D01*
X172750761Y-70905714D02*
X172988857Y-71572380D01*
X173226952Y-70905714D01*
X174131714Y-71572380D02*
X173560285Y-71572380D01*
X173846000Y-71572380D02*
X173846000Y-70572380D01*
X173750761Y-70715238D01*
X173655523Y-70810476D01*
X173560285Y-70858095D01*
X174560285Y-71477142D02*
X174607904Y-71524761D01*
X174560285Y-71572380D01*
X174512666Y-71524761D01*
X174560285Y-71477142D01*
X174560285Y-71572380D01*
X175226952Y-70572380D02*
X175322190Y-70572380D01*
X175417428Y-70620000D01*
X175465047Y-70667619D01*
X175512666Y-70762857D01*
X175560285Y-70953333D01*
X175560285Y-71191428D01*
X175512666Y-71381904D01*
X175465047Y-71477142D01*
X175417428Y-71524761D01*
X175322190Y-71572380D01*
X175226952Y-71572380D01*
X175131714Y-71524761D01*
X175084095Y-71477142D01*
X175036476Y-71381904D01*
X174988857Y-71191428D01*
X174988857Y-70953333D01*
X175036476Y-70762857D01*
X175084095Y-70667619D01*
X175131714Y-70620000D01*
X175226952Y-70572380D01*
X209510380Y-72818285D02*
X210510380Y-72484952D01*
X209510380Y-72151619D01*
X210510380Y-71389714D02*
X209986571Y-71389714D01*
X209891333Y-71437333D01*
X209843714Y-71532571D01*
X209843714Y-71723047D01*
X209891333Y-71818285D01*
X210462761Y-71389714D02*
X210510380Y-71484952D01*
X210510380Y-71723047D01*
X210462761Y-71818285D01*
X210367523Y-71865904D01*
X210272285Y-71865904D01*
X210177047Y-71818285D01*
X210129428Y-71723047D01*
X210129428Y-71484952D01*
X210081809Y-71389714D01*
X210510380Y-70770666D02*
X210462761Y-70865904D01*
X210367523Y-70913523D01*
X209510380Y-70913523D01*
X209843714Y-70484952D02*
X210510380Y-70246857D01*
X209843714Y-70008761D01*
X210462761Y-69246857D02*
X210510380Y-69342095D01*
X210510380Y-69532571D01*
X210462761Y-69627809D01*
X210367523Y-69675428D01*
X209986571Y-69675428D01*
X209891333Y-69627809D01*
X209843714Y-69532571D01*
X209843714Y-69342095D01*
X209891333Y-69246857D01*
X209986571Y-69199238D01*
X210081809Y-69199238D01*
X210177047Y-69675428D01*
X209605619Y-68056380D02*
X209558000Y-68008761D01*
X209510380Y-67913523D01*
X209510380Y-67675428D01*
X209558000Y-67580190D01*
X209605619Y-67532571D01*
X209700857Y-67484952D01*
X209796095Y-67484952D01*
X209938952Y-67532571D01*
X210510380Y-68104000D01*
X210510380Y-67484952D01*
X209510380Y-92376285D02*
X210510380Y-92042952D01*
X209510380Y-91709619D01*
X210510380Y-90947714D02*
X209986571Y-90947714D01*
X209891333Y-90995333D01*
X209843714Y-91090571D01*
X209843714Y-91281047D01*
X209891333Y-91376285D01*
X210462761Y-90947714D02*
X210510380Y-91042952D01*
X210510380Y-91281047D01*
X210462761Y-91376285D01*
X210367523Y-91423904D01*
X210272285Y-91423904D01*
X210177047Y-91376285D01*
X210129428Y-91281047D01*
X210129428Y-91042952D01*
X210081809Y-90947714D01*
X210510380Y-90328666D02*
X210462761Y-90423904D01*
X210367523Y-90471523D01*
X209510380Y-90471523D01*
X209843714Y-90042952D02*
X210510380Y-89804857D01*
X209843714Y-89566761D01*
X210462761Y-88804857D02*
X210510380Y-88900095D01*
X210510380Y-89090571D01*
X210462761Y-89185809D01*
X210367523Y-89233428D01*
X209986571Y-89233428D01*
X209891333Y-89185809D01*
X209843714Y-89090571D01*
X209843714Y-88900095D01*
X209891333Y-88804857D01*
X209986571Y-88757238D01*
X210081809Y-88757238D01*
X210177047Y-89233428D01*
X210510380Y-87042952D02*
X210510380Y-87614380D01*
X210510380Y-87328666D02*
X209510380Y-87328666D01*
X209653238Y-87423904D01*
X209748476Y-87519142D01*
X209796095Y-87614380D01*
X184118476Y-68016380D02*
X183642285Y-68016380D01*
X183642285Y-67016380D01*
X184451809Y-68016380D02*
X184451809Y-67016380D01*
X184928000Y-68016380D02*
X184928000Y-67016380D01*
X185499428Y-68016380D01*
X185499428Y-67016380D01*
X186308952Y-67492571D02*
X186451809Y-67540190D01*
X186499428Y-67587809D01*
X186547047Y-67683047D01*
X186547047Y-67825904D01*
X186499428Y-67921142D01*
X186451809Y-67968761D01*
X186356571Y-68016380D01*
X185975619Y-68016380D01*
X185975619Y-67016380D01*
X186308952Y-67016380D01*
X186404190Y-67064000D01*
X186451809Y-67111619D01*
X186499428Y-67206857D01*
X186499428Y-67302095D01*
X186451809Y-67397333D01*
X186404190Y-67444952D01*
X186308952Y-67492571D01*
X185975619Y-67492571D01*
X187404190Y-67349714D02*
X187404190Y-68016380D01*
X186975619Y-67349714D02*
X186975619Y-67873523D01*
X187023238Y-67968761D01*
X187118476Y-68016380D01*
X187261333Y-68016380D01*
X187356571Y-67968761D01*
X187404190Y-67921142D01*
X187832761Y-67968761D02*
X187928000Y-68016380D01*
X188118476Y-68016380D01*
X188213714Y-67968761D01*
X188261333Y-67873523D01*
X188261333Y-67825904D01*
X188213714Y-67730666D01*
X188118476Y-67683047D01*
X187975619Y-67683047D01*
X187880380Y-67635428D01*
X187832761Y-67540190D01*
X187832761Y-67492571D01*
X187880380Y-67397333D01*
X187975619Y-67349714D01*
X188118476Y-67349714D01*
X188213714Y-67397333D01*
X169648666Y-67921142D02*
X169601047Y-67968761D01*
X169458190Y-68016380D01*
X169362952Y-68016380D01*
X169220095Y-67968761D01*
X169124857Y-67873523D01*
X169077238Y-67778285D01*
X169029619Y-67587809D01*
X169029619Y-67444952D01*
X169077238Y-67254476D01*
X169124857Y-67159238D01*
X169220095Y-67064000D01*
X169362952Y-67016380D01*
X169458190Y-67016380D01*
X169601047Y-67064000D01*
X169648666Y-67111619D01*
X170220095Y-68016380D02*
X170124857Y-67968761D01*
X170077238Y-67921142D01*
X170029619Y-67825904D01*
X170029619Y-67540190D01*
X170077238Y-67444952D01*
X170124857Y-67397333D01*
X170220095Y-67349714D01*
X170362952Y-67349714D01*
X170458190Y-67397333D01*
X170505809Y-67444952D01*
X170553428Y-67540190D01*
X170553428Y-67825904D01*
X170505809Y-67921142D01*
X170458190Y-67968761D01*
X170362952Y-68016380D01*
X170220095Y-68016380D01*
X171124857Y-68016380D02*
X171029619Y-67968761D01*
X170982000Y-67921142D01*
X170934380Y-67825904D01*
X170934380Y-67540190D01*
X170982000Y-67444952D01*
X171029619Y-67397333D01*
X171124857Y-67349714D01*
X171267714Y-67349714D01*
X171362952Y-67397333D01*
X171410571Y-67444952D01*
X171458190Y-67540190D01*
X171458190Y-67825904D01*
X171410571Y-67921142D01*
X171362952Y-67968761D01*
X171267714Y-68016380D01*
X171124857Y-68016380D01*
X172029619Y-68016380D02*
X171934380Y-67968761D01*
X171886761Y-67873523D01*
X171886761Y-67016380D01*
X172839142Y-68016380D02*
X172839142Y-67492571D01*
X172791523Y-67397333D01*
X172696285Y-67349714D01*
X172505809Y-67349714D01*
X172410571Y-67397333D01*
X172839142Y-67968761D02*
X172743904Y-68016380D01*
X172505809Y-68016380D01*
X172410571Y-67968761D01*
X172362952Y-67873523D01*
X172362952Y-67778285D01*
X172410571Y-67683047D01*
X172505809Y-67635428D01*
X172743904Y-67635428D01*
X172839142Y-67587809D01*
X173315333Y-67349714D02*
X173315333Y-68016380D01*
X173315333Y-67444952D02*
X173362952Y-67397333D01*
X173458190Y-67349714D01*
X173601047Y-67349714D01*
X173696285Y-67397333D01*
X173743904Y-67492571D01*
X173743904Y-68016380D01*
X174077238Y-67349714D02*
X174458190Y-67349714D01*
X174220095Y-67016380D02*
X174220095Y-67873523D01*
X174267714Y-67968761D01*
X174362952Y-68016380D01*
X174458190Y-68016380D01*
X175553428Y-68016380D02*
X175553428Y-67016380D01*
X176124857Y-68016380D01*
X176124857Y-67016380D01*
X176458190Y-67016380D02*
X177029619Y-67016380D01*
X176743904Y-68016380D02*
X176743904Y-67016380D01*
X177934380Y-67921142D02*
X177886761Y-67968761D01*
X177743904Y-68016380D01*
X177648666Y-68016380D01*
X177505809Y-67968761D01*
X177410571Y-67873523D01*
X177362952Y-67778285D01*
X177315333Y-67587809D01*
X177315333Y-67444952D01*
X177362952Y-67254476D01*
X177410571Y-67159238D01*
X177505809Y-67064000D01*
X177648666Y-67016380D01*
X177743904Y-67016380D01*
X177886761Y-67064000D01*
X177934380Y-67111619D01*
X157036000Y-67492571D02*
X156702666Y-67492571D01*
X156702666Y-68016380D02*
X156702666Y-67016380D01*
X157178857Y-67016380D01*
X157702666Y-68016380D02*
X157607428Y-67968761D01*
X157559809Y-67873523D01*
X157559809Y-67016380D01*
X158226476Y-68016380D02*
X158131238Y-67968761D01*
X158083619Y-67921142D01*
X158036000Y-67825904D01*
X158036000Y-67540190D01*
X158083619Y-67444952D01*
X158131238Y-67397333D01*
X158226476Y-67349714D01*
X158369333Y-67349714D01*
X158464571Y-67397333D01*
X158512190Y-67444952D01*
X158559809Y-67540190D01*
X158559809Y-67825904D01*
X158512190Y-67921142D01*
X158464571Y-67968761D01*
X158369333Y-68016380D01*
X158226476Y-68016380D01*
X158893142Y-67349714D02*
X159083619Y-68016380D01*
X159274095Y-67540190D01*
X159464571Y-68016380D01*
X159655047Y-67349714D01*
X160750285Y-67968761D02*
X160893142Y-68016380D01*
X161131238Y-68016380D01*
X161226476Y-67968761D01*
X161274095Y-67921142D01*
X161321714Y-67825904D01*
X161321714Y-67730666D01*
X161274095Y-67635428D01*
X161226476Y-67587809D01*
X161131238Y-67540190D01*
X160940761Y-67492571D01*
X160845523Y-67444952D01*
X160797904Y-67397333D01*
X160750285Y-67302095D01*
X160750285Y-67206857D01*
X160797904Y-67111619D01*
X160845523Y-67064000D01*
X160940761Y-67016380D01*
X161178857Y-67016380D01*
X161321714Y-67064000D01*
X162131238Y-67968761D02*
X162036000Y-68016380D01*
X161845523Y-68016380D01*
X161750285Y-67968761D01*
X161702666Y-67873523D01*
X161702666Y-67492571D01*
X161750285Y-67397333D01*
X161845523Y-67349714D01*
X162036000Y-67349714D01*
X162131238Y-67397333D01*
X162178857Y-67492571D01*
X162178857Y-67587809D01*
X161702666Y-67683047D01*
X162607428Y-67349714D02*
X162607428Y-68016380D01*
X162607428Y-67444952D02*
X162655047Y-67397333D01*
X162750285Y-67349714D01*
X162893142Y-67349714D01*
X162988380Y-67397333D01*
X163036000Y-67492571D01*
X163036000Y-68016380D01*
X163464571Y-67968761D02*
X163559809Y-68016380D01*
X163750285Y-68016380D01*
X163845523Y-67968761D01*
X163893142Y-67873523D01*
X163893142Y-67825904D01*
X163845523Y-67730666D01*
X163750285Y-67683047D01*
X163607428Y-67683047D01*
X163512190Y-67635428D01*
X163464571Y-67540190D01*
X163464571Y-67492571D01*
X163512190Y-67397333D01*
X163607428Y-67349714D01*
X163750285Y-67349714D01*
X163845523Y-67397333D01*
X164464571Y-68016380D02*
X164369333Y-67968761D01*
X164321714Y-67921142D01*
X164274095Y-67825904D01*
X164274095Y-67540190D01*
X164321714Y-67444952D01*
X164369333Y-67397333D01*
X164464571Y-67349714D01*
X164607428Y-67349714D01*
X164702666Y-67397333D01*
X164750285Y-67444952D01*
X164797904Y-67540190D01*
X164797904Y-67825904D01*
X164750285Y-67921142D01*
X164702666Y-67968761D01*
X164607428Y-68016380D01*
X164464571Y-68016380D01*
X165226476Y-68016380D02*
X165226476Y-67349714D01*
X165226476Y-67540190D02*
X165274095Y-67444952D01*
X165321714Y-67397333D01*
X165416952Y-67349714D01*
X165512190Y-67349714D01*
%TO.C,U1*%
X199350380Y-91195904D02*
X200159904Y-91195904D01*
X200255142Y-91148285D01*
X200302761Y-91100666D01*
X200350380Y-91005428D01*
X200350380Y-90814952D01*
X200302761Y-90719714D01*
X200255142Y-90672095D01*
X200159904Y-90624476D01*
X199350380Y-90624476D01*
X200350380Y-89624476D02*
X200350380Y-90195904D01*
X200350380Y-89910190D02*
X199350380Y-89910190D01*
X199493238Y-90005428D01*
X199588476Y-90100666D01*
X199636095Y-90195904D01*
X159805619Y-89172095D02*
X158996095Y-89172095D01*
X158900857Y-89219714D01*
X158853238Y-89267333D01*
X158805619Y-89362571D01*
X158805619Y-89553047D01*
X158853238Y-89648285D01*
X158900857Y-89695904D01*
X158996095Y-89743523D01*
X159805619Y-89743523D01*
X158853238Y-90172095D02*
X158805619Y-90314952D01*
X158805619Y-90553047D01*
X158853238Y-90648285D01*
X158900857Y-90695904D01*
X158996095Y-90743523D01*
X159091333Y-90743523D01*
X159186571Y-90695904D01*
X159234190Y-90648285D01*
X159281809Y-90553047D01*
X159329428Y-90362571D01*
X159377047Y-90267333D01*
X159424666Y-90219714D01*
X159519904Y-90172095D01*
X159615142Y-90172095D01*
X159710380Y-90219714D01*
X159758000Y-90267333D01*
X159805619Y-90362571D01*
X159805619Y-90600666D01*
X159758000Y-90743523D01*
X159329428Y-91505428D02*
X159281809Y-91648285D01*
X159234190Y-91695904D01*
X159138952Y-91743523D01*
X158996095Y-91743523D01*
X158900857Y-91695904D01*
X158853238Y-91648285D01*
X158805619Y-91553047D01*
X158805619Y-91172095D01*
X159805619Y-91172095D01*
X159805619Y-91505428D01*
X159758000Y-91600666D01*
X159710380Y-91648285D01*
X159615142Y-91695904D01*
X159519904Y-91695904D01*
X159424666Y-91648285D01*
X159377047Y-91600666D01*
X159329428Y-91505428D01*
X159329428Y-91172095D01*
X196127619Y-80518000D02*
X195889523Y-80518000D01*
X195984761Y-80279904D02*
X195889523Y-80518000D01*
X195984761Y-80756095D01*
X195699047Y-80375142D02*
X195889523Y-80518000D01*
X195699047Y-80660857D01*
D11*
%TO.C,J1*%
X201205011Y-96088200D02*
X201640440Y-96088200D01*
X201727525Y-96117228D01*
X201785582Y-96175285D01*
X201814611Y-96262371D01*
X201814611Y-96320428D01*
X201814611Y-95478600D02*
X201814611Y-95826942D01*
X201814611Y-95652771D02*
X201205011Y-95652771D01*
X201292097Y-95710828D01*
X201350154Y-95768885D01*
X201379182Y-95826942D01*
D10*
%TO.C,U3*%
X204216095Y-82404380D02*
X204216095Y-83213904D01*
X204263714Y-83309142D01*
X204311333Y-83356761D01*
X204406571Y-83404380D01*
X204597047Y-83404380D01*
X204692285Y-83356761D01*
X204739904Y-83309142D01*
X204787523Y-83213904D01*
X204787523Y-82404380D01*
X205168476Y-82404380D02*
X205787523Y-82404380D01*
X205454190Y-82785333D01*
X205597047Y-82785333D01*
X205692285Y-82832952D01*
X205739904Y-82880571D01*
X205787523Y-82975809D01*
X205787523Y-83213904D01*
X205739904Y-83309142D01*
X205692285Y-83356761D01*
X205597047Y-83404380D01*
X205311333Y-83404380D01*
X205216095Y-83356761D01*
X205168476Y-83309142D01*
X208026000Y-83097619D02*
X208026000Y-82859523D01*
X208264095Y-82954761D02*
X208026000Y-82859523D01*
X207787904Y-82954761D01*
X208168857Y-82669047D02*
X208026000Y-82859523D01*
X207883142Y-82669047D01*
%TO.C,U2*%
X187666380Y-75945904D02*
X188475904Y-75945904D01*
X188571142Y-75898285D01*
X188618761Y-75850666D01*
X188666380Y-75755428D01*
X188666380Y-75564952D01*
X188618761Y-75469714D01*
X188571142Y-75422095D01*
X188475904Y-75374476D01*
X187666380Y-75374476D01*
X187761619Y-74945904D02*
X187714000Y-74898285D01*
X187666380Y-74803047D01*
X187666380Y-74564952D01*
X187714000Y-74469714D01*
X187761619Y-74422095D01*
X187856857Y-74374476D01*
X187952095Y-74374476D01*
X188094952Y-74422095D01*
X188666380Y-74993523D01*
X188666380Y-74374476D01*
X188936380Y-78994000D02*
X189174476Y-78994000D01*
X189079238Y-79232095D02*
X189174476Y-78994000D01*
X189079238Y-78755904D01*
X189364952Y-79136857D02*
X189174476Y-78994000D01*
X189364952Y-78851142D01*
%TO.C,R7*%
X205205333Y-76138380D02*
X204872000Y-75662190D01*
X204633904Y-76138380D02*
X204633904Y-75138380D01*
X205014857Y-75138380D01*
X205110095Y-75186000D01*
X205157714Y-75233619D01*
X205205333Y-75328857D01*
X205205333Y-75471714D01*
X205157714Y-75566952D01*
X205110095Y-75614571D01*
X205014857Y-75662190D01*
X204633904Y-75662190D01*
X205538666Y-75138380D02*
X206205333Y-75138380D01*
X205776761Y-76138380D01*
%TO.C,R5*%
X205179333Y-88076380D02*
X204846000Y-87600190D01*
X204607904Y-88076380D02*
X204607904Y-87076380D01*
X204988857Y-87076380D01*
X205084095Y-87124000D01*
X205131714Y-87171619D01*
X205179333Y-87266857D01*
X205179333Y-87409714D01*
X205131714Y-87504952D01*
X205084095Y-87552571D01*
X204988857Y-87600190D01*
X204607904Y-87600190D01*
X206084095Y-87076380D02*
X205607904Y-87076380D01*
X205560285Y-87552571D01*
X205607904Y-87504952D01*
X205703142Y-87457333D01*
X205941238Y-87457333D01*
X206036476Y-87504952D01*
X206084095Y-87552571D01*
X206131714Y-87647809D01*
X206131714Y-87885904D01*
X206084095Y-87981142D01*
X206036476Y-88028761D01*
X205941238Y-88076380D01*
X205703142Y-88076380D01*
X205607904Y-88028761D01*
X205560285Y-87981142D01*
%TO.C,J5*%
X155114666Y-59904380D02*
X155114666Y-60618666D01*
X155067047Y-60761523D01*
X154971809Y-60856761D01*
X154828952Y-60904380D01*
X154733714Y-60904380D01*
X156067047Y-59904380D02*
X155590857Y-59904380D01*
X155543238Y-60380571D01*
X155590857Y-60332952D01*
X155686095Y-60285333D01*
X155924190Y-60285333D01*
X156019428Y-60332952D01*
X156067047Y-60380571D01*
X156114666Y-60475809D01*
X156114666Y-60713904D01*
X156067047Y-60809142D01*
X156019428Y-60856761D01*
X155924190Y-60904380D01*
X155686095Y-60904380D01*
X155590857Y-60856761D01*
X155543238Y-60809142D01*
%TO.C,J4*%
X168406666Y-59396380D02*
X168406666Y-60110666D01*
X168359047Y-60253523D01*
X168263809Y-60348761D01*
X168120952Y-60396380D01*
X168025714Y-60396380D01*
X169311428Y-59729714D02*
X169311428Y-60396380D01*
X169073333Y-59348761D02*
X168835238Y-60063047D01*
X169454285Y-60063047D01*
D11*
%TO.C,J3*%
X216085420Y-99742171D02*
X216085420Y-100177600D01*
X216056391Y-100264685D01*
X215998334Y-100322742D01*
X215911248Y-100351771D01*
X215853191Y-100351771D01*
X216317648Y-99742171D02*
X216695020Y-99742171D01*
X216491820Y-99974400D01*
X216578905Y-99974400D01*
X216636962Y-100003428D01*
X216665991Y-100032457D01*
X216695020Y-100090514D01*
X216695020Y-100235657D01*
X216665991Y-100293714D01*
X216636962Y-100322742D01*
X216578905Y-100351771D01*
X216404734Y-100351771D01*
X216346677Y-100322742D01*
X216317648Y-100293714D01*
D12*
X223396991Y-93849371D02*
X221720591Y-93849371D01*
X221720591Y-93450228D01*
X221800420Y-93210742D01*
X221960077Y-93051085D01*
X222119734Y-92971257D01*
X222439048Y-92891428D01*
X222678534Y-92891428D01*
X222997848Y-92971257D01*
X223157505Y-93051085D01*
X223317162Y-93210742D01*
X223396991Y-93450228D01*
X223396991Y-93849371D01*
X223396991Y-92172971D02*
X221720591Y-92172971D01*
X223396991Y-91374685D02*
X221720591Y-91374685D01*
X223396991Y-90416742D01*
X221720591Y-90416742D01*
X222758362Y-89618457D02*
X222758362Y-88341200D01*
X221720591Y-86744628D02*
X221720591Y-87542914D01*
X222518877Y-87622742D01*
X222439048Y-87542914D01*
X222359220Y-87383257D01*
X222359220Y-86984114D01*
X222439048Y-86824457D01*
X222518877Y-86744628D01*
X222678534Y-86664800D01*
X223077677Y-86664800D01*
X223237334Y-86744628D01*
X223317162Y-86824457D01*
X223396991Y-86984114D01*
X223396991Y-87383257D01*
X223317162Y-87542914D01*
X223237334Y-87622742D01*
D11*
%TO.C,J2*%
X216085420Y-79930171D02*
X216085420Y-80365600D01*
X216056391Y-80452685D01*
X215998334Y-80510742D01*
X215911248Y-80539771D01*
X215853191Y-80539771D01*
X216346677Y-79988228D02*
X216375705Y-79959200D01*
X216433762Y-79930171D01*
X216578905Y-79930171D01*
X216636962Y-79959200D01*
X216665991Y-79988228D01*
X216695020Y-80046285D01*
X216695020Y-80104342D01*
X216665991Y-80191428D01*
X216317648Y-80539771D01*
X216695020Y-80539771D01*
D12*
X223396991Y-74037371D02*
X221720591Y-74037371D01*
X221720591Y-73638228D01*
X221800420Y-73398742D01*
X221960077Y-73239085D01*
X222119734Y-73159257D01*
X222439048Y-73079428D01*
X222678534Y-73079428D01*
X222997848Y-73159257D01*
X223157505Y-73239085D01*
X223317162Y-73398742D01*
X223396991Y-73638228D01*
X223396991Y-74037371D01*
X223396991Y-72360971D02*
X221720591Y-72360971D01*
X223396991Y-71562685D02*
X221720591Y-71562685D01*
X223396991Y-70604742D01*
X221720591Y-70604742D01*
X222758362Y-69806457D02*
X222758362Y-68529200D01*
X221720591Y-66932628D02*
X221720591Y-67730914D01*
X222518877Y-67810742D01*
X222439048Y-67730914D01*
X222359220Y-67571257D01*
X222359220Y-67172114D01*
X222439048Y-67012457D01*
X222518877Y-66932628D01*
X222678534Y-66852800D01*
X223077677Y-66852800D01*
X223237334Y-66932628D01*
X223317162Y-67012457D01*
X223396991Y-67172114D01*
X223396991Y-67571257D01*
X223317162Y-67730914D01*
X223237334Y-67810742D01*
D10*
%TO.C,C1*%
X193148833Y-66495142D02*
X193101214Y-66542761D01*
X192958357Y-66590380D01*
X192863119Y-66590380D01*
X192720261Y-66542761D01*
X192625023Y-66447523D01*
X192577404Y-66352285D01*
X192529785Y-66161809D01*
X192529785Y-66018952D01*
X192577404Y-65828476D01*
X192625023Y-65733238D01*
X192720261Y-65638000D01*
X192863119Y-65590380D01*
X192958357Y-65590380D01*
X193101214Y-65638000D01*
X193148833Y-65685619D01*
X194101214Y-66590380D02*
X193529785Y-66590380D01*
X193815500Y-66590380D02*
X193815500Y-65590380D01*
X193720261Y-65733238D01*
X193625023Y-65828476D01*
X193529785Y-65876095D01*
%TO.C,J6*%
X180006666Y-59904380D02*
X180006666Y-60618666D01*
X179959047Y-60761523D01*
X179863809Y-60856761D01*
X179720952Y-60904380D01*
X179625714Y-60904380D01*
X180911428Y-59904380D02*
X180720952Y-59904380D01*
X180625714Y-59952000D01*
X180578095Y-59999619D01*
X180482857Y-60142476D01*
X180435238Y-60332952D01*
X180435238Y-60713904D01*
X180482857Y-60809142D01*
X180530476Y-60856761D01*
X180625714Y-60904380D01*
X180816190Y-60904380D01*
X180911428Y-60856761D01*
X180959047Y-60809142D01*
X181006666Y-60713904D01*
X181006666Y-60475809D01*
X180959047Y-60380571D01*
X180911428Y-60332952D01*
X180816190Y-60285333D01*
X180625714Y-60285333D01*
X180530476Y-60332952D01*
X180482857Y-60380571D01*
X180435238Y-60475809D01*
%TO.C,REF\u002A\u002A*%
G36*
X199947664Y-67873089D02*
G01*
X200010367Y-67909358D01*
X200053961Y-67945358D01*
X200085845Y-67983075D01*
X200107810Y-68029199D01*
X200121649Y-68090421D01*
X200129153Y-68173431D01*
X200132117Y-68284919D01*
X200132461Y-68365062D01*
X200132461Y-68660065D01*
X199966385Y-68734515D01*
X199956615Y-68411402D01*
X199952579Y-68290729D01*
X199948344Y-68203141D01*
X199943097Y-68142650D01*
X199936025Y-68103268D01*
X199926311Y-68079007D01*
X199913144Y-68063880D01*
X199908919Y-68060606D01*
X199844909Y-68035034D01*
X199780208Y-68045153D01*
X199741692Y-68072000D01*
X199726025Y-68091024D01*
X199715180Y-68115988D01*
X199708288Y-68153834D01*
X199704479Y-68211502D01*
X199702883Y-68295935D01*
X199702615Y-68383928D01*
X199702563Y-68494323D01*
X199700672Y-68572463D01*
X199694345Y-68625165D01*
X199680983Y-68659242D01*
X199657985Y-68681511D01*
X199622754Y-68698787D01*
X199575697Y-68716738D01*
X199524303Y-68736278D01*
X199530421Y-68389485D01*
X199532884Y-68264468D01*
X199535767Y-68172082D01*
X199539898Y-68105881D01*
X199546107Y-68059420D01*
X199555226Y-68026256D01*
X199568083Y-67999944D01*
X199583584Y-67976729D01*
X199658371Y-67902569D01*
X199749628Y-67859684D01*
X199848883Y-67849412D01*
X199947664Y-67873089D01*
G37*
D13*
X199947664Y-67873089D02*
X200010367Y-67909358D01*
X200053961Y-67945358D01*
X200085845Y-67983075D01*
X200107810Y-68029199D01*
X200121649Y-68090421D01*
X200129153Y-68173431D01*
X200132117Y-68284919D01*
X200132461Y-68365062D01*
X200132461Y-68660065D01*
X199966385Y-68734515D01*
X199956615Y-68411402D01*
X199952579Y-68290729D01*
X199948344Y-68203141D01*
X199943097Y-68142650D01*
X199936025Y-68103268D01*
X199926311Y-68079007D01*
X199913144Y-68063880D01*
X199908919Y-68060606D01*
X199844909Y-68035034D01*
X199780208Y-68045153D01*
X199741692Y-68072000D01*
X199726025Y-68091024D01*
X199715180Y-68115988D01*
X199708288Y-68153834D01*
X199704479Y-68211502D01*
X199702883Y-68295935D01*
X199702615Y-68383928D01*
X199702563Y-68494323D01*
X199700672Y-68572463D01*
X199694345Y-68625165D01*
X199680983Y-68659242D01*
X199657985Y-68681511D01*
X199622754Y-68698787D01*
X199575697Y-68716738D01*
X199524303Y-68736278D01*
X199530421Y-68389485D01*
X199532884Y-68264468D01*
X199535767Y-68172082D01*
X199539898Y-68105881D01*
X199546107Y-68059420D01*
X199555226Y-68026256D01*
X199568083Y-67999944D01*
X199583584Y-67976729D01*
X199658371Y-67902569D01*
X199749628Y-67859684D01*
X199848883Y-67849412D01*
X199947664Y-67873089D01*
G36*
X202732362Y-68091577D02*
G01*
X202762528Y-68022269D01*
X202809629Y-67968211D01*
X202846312Y-67940505D01*
X202912990Y-67910572D01*
X202990272Y-67896678D01*
X203062110Y-67900397D01*
X203102308Y-67915400D01*
X203118082Y-67919670D01*
X203128550Y-67903750D01*
X203135856Y-67861089D01*
X203141385Y-67796106D01*
X203147437Y-67723732D01*
X203155844Y-67680187D01*
X203171141Y-67655287D01*
X203197864Y-67638845D01*
X203214654Y-67631564D01*
X203278154Y-67604963D01*
X203278081Y-68058289D01*
X203277833Y-68204320D01*
X203276872Y-68316655D01*
X203274794Y-68400678D01*
X203271193Y-68461769D01*
X203265665Y-68505309D01*
X203257804Y-68536679D01*
X203247207Y-68561262D01*
X203239182Y-68575294D01*
X203172728Y-68651388D01*
X203088470Y-68699084D01*
X202995249Y-68716199D01*
X202901900Y-68700546D01*
X202846312Y-68672418D01*
X202787957Y-68623760D01*
X202748186Y-68564333D01*
X202724190Y-68486507D01*
X202713161Y-68382652D01*
X202711599Y-68306462D01*
X202711809Y-68300986D01*
X202848308Y-68300986D01*
X202849141Y-68388355D01*
X202852961Y-68446192D01*
X202861746Y-68484029D01*
X202877474Y-68511398D01*
X202896266Y-68532042D01*
X202959375Y-68571890D01*
X203027137Y-68575295D01*
X203091179Y-68542025D01*
X203096164Y-68537517D01*
X203117439Y-68514067D01*
X203130779Y-68486166D01*
X203138001Y-68444641D01*
X203140923Y-68380316D01*
X203141385Y-68309200D01*
X203140383Y-68219858D01*
X203136238Y-68160258D01*
X203127236Y-68121089D01*
X203111667Y-68093040D01*
X203098902Y-68078144D01*
X203039600Y-68040575D01*
X202971301Y-68036057D01*
X202906110Y-68064753D01*
X202893528Y-68075406D01*
X202872111Y-68099063D01*
X202858744Y-68127251D01*
X202851566Y-68169245D01*
X202848719Y-68234319D01*
X202848308Y-68300986D01*
X202711809Y-68300986D01*
X202716322Y-68183765D01*
X202732362Y-68091577D01*
G37*
X202732362Y-68091577D02*
X202762528Y-68022269D01*
X202809629Y-67968211D01*
X202846312Y-67940505D01*
X202912990Y-67910572D01*
X202990272Y-67896678D01*
X203062110Y-67900397D01*
X203102308Y-67915400D01*
X203118082Y-67919670D01*
X203128550Y-67903750D01*
X203135856Y-67861089D01*
X203141385Y-67796106D01*
X203147437Y-67723732D01*
X203155844Y-67680187D01*
X203171141Y-67655287D01*
X203197864Y-67638845D01*
X203214654Y-67631564D01*
X203278154Y-67604963D01*
X203278081Y-68058289D01*
X203277833Y-68204320D01*
X203276872Y-68316655D01*
X203274794Y-68400678D01*
X203271193Y-68461769D01*
X203265665Y-68505309D01*
X203257804Y-68536679D01*
X203247207Y-68561262D01*
X203239182Y-68575294D01*
X203172728Y-68651388D01*
X203088470Y-68699084D01*
X202995249Y-68716199D01*
X202901900Y-68700546D01*
X202846312Y-68672418D01*
X202787957Y-68623760D01*
X202748186Y-68564333D01*
X202724190Y-68486507D01*
X202713161Y-68382652D01*
X202711599Y-68306462D01*
X202711809Y-68300986D01*
X202848308Y-68300986D01*
X202849141Y-68388355D01*
X202852961Y-68446192D01*
X202861746Y-68484029D01*
X202877474Y-68511398D01*
X202896266Y-68532042D01*
X202959375Y-68571890D01*
X203027137Y-68575295D01*
X203091179Y-68542025D01*
X203096164Y-68537517D01*
X203117439Y-68514067D01*
X203130779Y-68486166D01*
X203138001Y-68444641D01*
X203140923Y-68380316D01*
X203141385Y-68309200D01*
X203140383Y-68219858D01*
X203136238Y-68160258D01*
X203127236Y-68121089D01*
X203111667Y-68093040D01*
X203098902Y-68078144D01*
X203039600Y-68040575D01*
X202971301Y-68036057D01*
X202906110Y-68064753D01*
X202893528Y-68075406D01*
X202872111Y-68099063D01*
X202858744Y-68127251D01*
X202851566Y-68169245D01*
X202848719Y-68234319D01*
X202848308Y-68300986D01*
X202711809Y-68300986D01*
X202716322Y-68183765D01*
X202732362Y-68091577D01*
G36*
X200835846Y-67770120D02*
G01*
X200841572Y-67849980D01*
X200848149Y-67897039D01*
X200857262Y-67917566D01*
X200870598Y-67917829D01*
X200874923Y-67915378D01*
X200932444Y-67897636D01*
X201007268Y-67898672D01*
X201083339Y-67916910D01*
X201130918Y-67940505D01*
X201179702Y-67978198D01*
X201215364Y-68020855D01*
X201239845Y-68075057D01*
X201255087Y-68147384D01*
X201263030Y-68244419D01*
X201265616Y-68372742D01*
X201265662Y-68397358D01*
X201265692Y-68673870D01*
X201204161Y-68695320D01*
X201160459Y-68709912D01*
X201136482Y-68716706D01*
X201135777Y-68716769D01*
X201133415Y-68698345D01*
X201131406Y-68647526D01*
X201129901Y-68570993D01*
X201129053Y-68475430D01*
X201128923Y-68417329D01*
X201128651Y-68302771D01*
X201127252Y-68220667D01*
X201123849Y-68164393D01*
X201117567Y-68127326D01*
X201107529Y-68102844D01*
X201092861Y-68084325D01*
X201083702Y-68075406D01*
X201020789Y-68039466D01*
X200952136Y-68036775D01*
X200889848Y-68067170D01*
X200878329Y-68078144D01*
X200861433Y-68098779D01*
X200849714Y-68123256D01*
X200842233Y-68158647D01*
X200838054Y-68212026D01*
X200836237Y-68290466D01*
X200835846Y-68398617D01*
X200835846Y-68673870D01*
X200774315Y-68695320D01*
X200730613Y-68709912D01*
X200706636Y-68716706D01*
X200705930Y-68716769D01*
X200704126Y-68698069D01*
X200702500Y-68645322D01*
X200701117Y-68563557D01*
X200700042Y-68457805D01*
X200699340Y-68333094D01*
X200699077Y-68194455D01*
X200699077Y-67659806D01*
X200826077Y-67606236D01*
X200835846Y-67770120D01*
G37*
X200835846Y-67770120D02*
X200841572Y-67849980D01*
X200848149Y-67897039D01*
X200857262Y-67917566D01*
X200870598Y-67917829D01*
X200874923Y-67915378D01*
X200932444Y-67897636D01*
X201007268Y-67898672D01*
X201083339Y-67916910D01*
X201130918Y-67940505D01*
X201179702Y-67978198D01*
X201215364Y-68020855D01*
X201239845Y-68075057D01*
X201255087Y-68147384D01*
X201263030Y-68244419D01*
X201265616Y-68372742D01*
X201265662Y-68397358D01*
X201265692Y-68673870D01*
X201204161Y-68695320D01*
X201160459Y-68709912D01*
X201136482Y-68716706D01*
X201135777Y-68716769D01*
X201133415Y-68698345D01*
X201131406Y-68647526D01*
X201129901Y-68570993D01*
X201129053Y-68475430D01*
X201128923Y-68417329D01*
X201128651Y-68302771D01*
X201127252Y-68220667D01*
X201123849Y-68164393D01*
X201117567Y-68127326D01*
X201107529Y-68102844D01*
X201092861Y-68084325D01*
X201083702Y-68075406D01*
X201020789Y-68039466D01*
X200952136Y-68036775D01*
X200889848Y-68067170D01*
X200878329Y-68078144D01*
X200861433Y-68098779D01*
X200849714Y-68123256D01*
X200842233Y-68158647D01*
X200838054Y-68212026D01*
X200836237Y-68290466D01*
X200835846Y-68398617D01*
X200835846Y-68673870D01*
X200774315Y-68695320D01*
X200730613Y-68709912D01*
X200706636Y-68716706D01*
X200705930Y-68716769D01*
X200704126Y-68698069D01*
X200702500Y-68645322D01*
X200701117Y-68563557D01*
X200700042Y-68457805D01*
X200699340Y-68333094D01*
X200699077Y-68194455D01*
X200699077Y-67659806D01*
X200826077Y-67606236D01*
X200835846Y-67770120D01*
G36*
X201729501Y-67904303D02*
G01*
X201806060Y-67932733D01*
X201806936Y-67933279D01*
X201854285Y-67968127D01*
X201889241Y-68008852D01*
X201913825Y-68061925D01*
X201930062Y-68133814D01*
X201939975Y-68230992D01*
X201945586Y-68359928D01*
X201946077Y-68378298D01*
X201953141Y-68655287D01*
X201893695Y-68686028D01*
X201850681Y-68706802D01*
X201824710Y-68716646D01*
X201823509Y-68716769D01*
X201819014Y-68698606D01*
X201815444Y-68649612D01*
X201813248Y-68578031D01*
X201812769Y-68520068D01*
X201812758Y-68426170D01*
X201808466Y-68367203D01*
X201793503Y-68339079D01*
X201761482Y-68337706D01*
X201706014Y-68358998D01*
X201622269Y-68398136D01*
X201560689Y-68430643D01*
X201529017Y-68458845D01*
X201519706Y-68489582D01*
X201519692Y-68491104D01*
X201535057Y-68544054D01*
X201580547Y-68572660D01*
X201650166Y-68576803D01*
X201700313Y-68576084D01*
X201726754Y-68590527D01*
X201743243Y-68625218D01*
X201752733Y-68669416D01*
X201739057Y-68694493D01*
X201733907Y-68698082D01*
X201685425Y-68712496D01*
X201617531Y-68714537D01*
X201547612Y-68704983D01*
X201498068Y-68687522D01*
X201429570Y-68629364D01*
X201390634Y-68548408D01*
X201382923Y-68485160D01*
X201388807Y-68428111D01*
X201410101Y-68381542D01*
X201452265Y-68340181D01*
X201520759Y-68298755D01*
X201621044Y-68251993D01*
X201627154Y-68249350D01*
X201717490Y-68207617D01*
X201773235Y-68173391D01*
X201797129Y-68142635D01*
X201791913Y-68111311D01*
X201760328Y-68075383D01*
X201750883Y-68067116D01*
X201687617Y-68035058D01*
X201622064Y-68036407D01*
X201564972Y-68067838D01*
X201527093Y-68126024D01*
X201523574Y-68137446D01*
X201489300Y-68192837D01*
X201445809Y-68219518D01*
X201382923Y-68245960D01*
X201382923Y-68177548D01*
X201402052Y-68078110D01*
X201458831Y-67986902D01*
X201488378Y-67956389D01*
X201555542Y-67917228D01*
X201640956Y-67899500D01*
X201729501Y-67904303D01*
G37*
X201729501Y-67904303D02*
X201806060Y-67932733D01*
X201806936Y-67933279D01*
X201854285Y-67968127D01*
X201889241Y-68008852D01*
X201913825Y-68061925D01*
X201930062Y-68133814D01*
X201939975Y-68230992D01*
X201945586Y-68359928D01*
X201946077Y-68378298D01*
X201953141Y-68655287D01*
X201893695Y-68686028D01*
X201850681Y-68706802D01*
X201824710Y-68716646D01*
X201823509Y-68716769D01*
X201819014Y-68698606D01*
X201815444Y-68649612D01*
X201813248Y-68578031D01*
X201812769Y-68520068D01*
X201812758Y-68426170D01*
X201808466Y-68367203D01*
X201793503Y-68339079D01*
X201761482Y-68337706D01*
X201706014Y-68358998D01*
X201622269Y-68398136D01*
X201560689Y-68430643D01*
X201529017Y-68458845D01*
X201519706Y-68489582D01*
X201519692Y-68491104D01*
X201535057Y-68544054D01*
X201580547Y-68572660D01*
X201650166Y-68576803D01*
X201700313Y-68576084D01*
X201726754Y-68590527D01*
X201743243Y-68625218D01*
X201752733Y-68669416D01*
X201739057Y-68694493D01*
X201733907Y-68698082D01*
X201685425Y-68712496D01*
X201617531Y-68714537D01*
X201547612Y-68704983D01*
X201498068Y-68687522D01*
X201429570Y-68629364D01*
X201390634Y-68548408D01*
X201382923Y-68485160D01*
X201388807Y-68428111D01*
X201410101Y-68381542D01*
X201452265Y-68340181D01*
X201520759Y-68298755D01*
X201621044Y-68251993D01*
X201627154Y-68249350D01*
X201717490Y-68207617D01*
X201773235Y-68173391D01*
X201797129Y-68142635D01*
X201791913Y-68111311D01*
X201760328Y-68075383D01*
X201750883Y-68067116D01*
X201687617Y-68035058D01*
X201622064Y-68036407D01*
X201564972Y-68067838D01*
X201527093Y-68126024D01*
X201523574Y-68137446D01*
X201489300Y-68192837D01*
X201445809Y-68219518D01*
X201382923Y-68245960D01*
X201382923Y-68177548D01*
X201402052Y-68078110D01*
X201458831Y-67986902D01*
X201488378Y-67956389D01*
X201555542Y-67917228D01*
X201640956Y-67899500D01*
X201729501Y-67904303D01*
G36*
X198032873Y-68172679D02*
G01*
X198036606Y-68108905D01*
X198041907Y-68063582D01*
X198049258Y-68031555D01*
X198059143Y-68007668D01*
X198072046Y-67986764D01*
X198077579Y-67978898D01*
X198150969Y-67904595D01*
X198243760Y-67862467D01*
X198351096Y-67850722D01*
X198444886Y-67862505D01*
X198519539Y-67899727D01*
X198585431Y-67968261D01*
X198603577Y-67993648D01*
X198623345Y-68026866D01*
X198636172Y-68062945D01*
X198643510Y-68111098D01*
X198646813Y-68180536D01*
X198647538Y-68272206D01*
X198644263Y-68397830D01*
X198632877Y-68492154D01*
X198611041Y-68562523D01*
X198576419Y-68616286D01*
X198526670Y-68660788D01*
X198523014Y-68663423D01*
X198473985Y-68690377D01*
X198414945Y-68703712D01*
X198339859Y-68707000D01*
X198217795Y-68707000D01*
X198217744Y-68825497D01*
X198216608Y-68891492D01*
X198209686Y-68930202D01*
X198191598Y-68953419D01*
X198156962Y-68972933D01*
X198148645Y-68976920D01*
X198109720Y-68995603D01*
X198079583Y-69007403D01*
X198057174Y-69008422D01*
X198041433Y-68994761D01*
X198031302Y-68962522D01*
X198025723Y-68907804D01*
X198023635Y-68826711D01*
X198023981Y-68715344D01*
X198025700Y-68569802D01*
X198026237Y-68526269D01*
X198028172Y-68376205D01*
X198029904Y-68278042D01*
X198217692Y-68278042D01*
X198218748Y-68361364D01*
X198223438Y-68415880D01*
X198234051Y-68451837D01*
X198252872Y-68479482D01*
X198265650Y-68492965D01*
X198317890Y-68532417D01*
X198364142Y-68535628D01*
X198411867Y-68503049D01*
X198413077Y-68501846D01*
X198432494Y-68476668D01*
X198444307Y-68442447D01*
X198450265Y-68389748D01*
X198452120Y-68309131D01*
X198452154Y-68291271D01*
X198447670Y-68180175D01*
X198433074Y-68103161D01*
X198406650Y-68056147D01*
X198366683Y-68035050D01*
X198343584Y-68032923D01*
X198288762Y-68042900D01*
X198251158Y-68075752D01*
X198228523Y-68135857D01*
X198218606Y-68227598D01*
X198217692Y-68278042D01*
X198029904Y-68278042D01*
X198030222Y-68260060D01*
X198032873Y-68172679D01*
G37*
X198032873Y-68172679D02*
X198036606Y-68108905D01*
X198041907Y-68063582D01*
X198049258Y-68031555D01*
X198059143Y-68007668D01*
X198072046Y-67986764D01*
X198077579Y-67978898D01*
X198150969Y-67904595D01*
X198243760Y-67862467D01*
X198351096Y-67850722D01*
X198444886Y-67862505D01*
X198519539Y-67899727D01*
X198585431Y-67968261D01*
X198603577Y-67993648D01*
X198623345Y-68026866D01*
X198636172Y-68062945D01*
X198643510Y-68111098D01*
X198646813Y-68180536D01*
X198647538Y-68272206D01*
X198644263Y-68397830D01*
X198632877Y-68492154D01*
X198611041Y-68562523D01*
X198576419Y-68616286D01*
X198526670Y-68660788D01*
X198523014Y-68663423D01*
X198473985Y-68690377D01*
X198414945Y-68703712D01*
X198339859Y-68707000D01*
X198217795Y-68707000D01*
X198217744Y-68825497D01*
X198216608Y-68891492D01*
X198209686Y-68930202D01*
X198191598Y-68953419D01*
X198156962Y-68972933D01*
X198148645Y-68976920D01*
X198109720Y-68995603D01*
X198079583Y-69007403D01*
X198057174Y-69008422D01*
X198041433Y-68994761D01*
X198031302Y-68962522D01*
X198025723Y-68907804D01*
X198023635Y-68826711D01*
X198023981Y-68715344D01*
X198025700Y-68569802D01*
X198026237Y-68526269D01*
X198028172Y-68376205D01*
X198029904Y-68278042D01*
X198217692Y-68278042D01*
X198218748Y-68361364D01*
X198223438Y-68415880D01*
X198234051Y-68451837D01*
X198252872Y-68479482D01*
X198265650Y-68492965D01*
X198317890Y-68532417D01*
X198364142Y-68535628D01*
X198411867Y-68503049D01*
X198413077Y-68501846D01*
X198432494Y-68476668D01*
X198444307Y-68442447D01*
X198450265Y-68389748D01*
X198452120Y-68309131D01*
X198452154Y-68291271D01*
X198447670Y-68180175D01*
X198433074Y-68103161D01*
X198406650Y-68056147D01*
X198366683Y-68035050D01*
X198343584Y-68032923D01*
X198288762Y-68042900D01*
X198251158Y-68075752D01*
X198228523Y-68135857D01*
X198218606Y-68227598D01*
X198217692Y-68278042D01*
X198029904Y-68278042D01*
X198030222Y-68260060D01*
X198032873Y-68172679D01*
G36*
X197283629Y-68115906D02*
G01*
X197290322Y-68067163D01*
X197301960Y-68031288D01*
X197319853Y-67999548D01*
X197323808Y-67993648D01*
X197390267Y-67914104D01*
X197462685Y-67867929D01*
X197550849Y-67849599D01*
X197580787Y-67848703D01*
X197692886Y-67865256D01*
X197784464Y-67913409D01*
X197852049Y-67990905D01*
X197876057Y-68040727D01*
X197894738Y-68115533D01*
X197904301Y-68210052D01*
X197905208Y-68313210D01*
X197897921Y-68413935D01*
X197882903Y-68501153D01*
X197860615Y-68563791D01*
X197853765Y-68574579D01*
X197772632Y-68655105D01*
X197676266Y-68703336D01*
X197571701Y-68717450D01*
X197465968Y-68695629D01*
X197436543Y-68682547D01*
X197379241Y-68642231D01*
X197328950Y-68588775D01*
X197324197Y-68581995D01*
X197304878Y-68549321D01*
X197292108Y-68514394D01*
X197284564Y-68468414D01*
X197280924Y-68402584D01*
X197279865Y-68308105D01*
X197279846Y-68286923D01*
X197279894Y-68280182D01*
X197475231Y-68280182D01*
X197476368Y-68369349D01*
X197480841Y-68428520D01*
X197490246Y-68466741D01*
X197506176Y-68493053D01*
X197514308Y-68501846D01*
X197561058Y-68535261D01*
X197606447Y-68533737D01*
X197652340Y-68504752D01*
X197679712Y-68473809D01*
X197695923Y-68428643D01*
X197705026Y-68357420D01*
X197705651Y-68349114D01*
X197707204Y-68220037D01*
X197690965Y-68124172D01*
X197657152Y-68062107D01*
X197605984Y-68034432D01*
X197587720Y-68032923D01*
X197539760Y-68040513D01*
X197506953Y-68066808D01*
X197486895Y-68117095D01*
X197477178Y-68196664D01*
X197475231Y-68280182D01*
X197279894Y-68280182D01*
X197280574Y-68186249D01*
X197283629Y-68115906D01*
G37*
X197283629Y-68115906D02*
X197290322Y-68067163D01*
X197301960Y-68031288D01*
X197319853Y-67999548D01*
X197323808Y-67993648D01*
X197390267Y-67914104D01*
X197462685Y-67867929D01*
X197550849Y-67849599D01*
X197580787Y-67848703D01*
X197692886Y-67865256D01*
X197784464Y-67913409D01*
X197852049Y-67990905D01*
X197876057Y-68040727D01*
X197894738Y-68115533D01*
X197904301Y-68210052D01*
X197905208Y-68313210D01*
X197897921Y-68413935D01*
X197882903Y-68501153D01*
X197860615Y-68563791D01*
X197853765Y-68574579D01*
X197772632Y-68655105D01*
X197676266Y-68703336D01*
X197571701Y-68717450D01*
X197465968Y-68695629D01*
X197436543Y-68682547D01*
X197379241Y-68642231D01*
X197328950Y-68588775D01*
X197324197Y-68581995D01*
X197304878Y-68549321D01*
X197292108Y-68514394D01*
X197284564Y-68468414D01*
X197280924Y-68402584D01*
X197279865Y-68308105D01*
X197279846Y-68286923D01*
X197279894Y-68280182D01*
X197475231Y-68280182D01*
X197476368Y-68369349D01*
X197480841Y-68428520D01*
X197490246Y-68466741D01*
X197506176Y-68493053D01*
X197514308Y-68501846D01*
X197561058Y-68535261D01*
X197606447Y-68533737D01*
X197652340Y-68504752D01*
X197679712Y-68473809D01*
X197695923Y-68428643D01*
X197705026Y-68357420D01*
X197705651Y-68349114D01*
X197707204Y-68220037D01*
X197690965Y-68124172D01*
X197657152Y-68062107D01*
X197605984Y-68034432D01*
X197587720Y-68032923D01*
X197539760Y-68040513D01*
X197506953Y-68066808D01*
X197486895Y-68117095D01*
X197477178Y-68196664D01*
X197475231Y-68280182D01*
X197279894Y-68280182D01*
X197280574Y-68186249D01*
X197283629Y-68115906D01*
G36*
X201815878Y-61565776D02*
G01*
X201921612Y-61566355D01*
X201998132Y-61567922D01*
X202050372Y-61570972D01*
X202083263Y-61575996D01*
X202101737Y-61583489D01*
X202110727Y-61593944D01*
X202115163Y-61607853D01*
X202115594Y-61609654D01*
X202122333Y-61642145D01*
X202134808Y-61706252D01*
X202151719Y-61795151D01*
X202171771Y-61902019D01*
X202193664Y-62020033D01*
X202194429Y-62024178D01*
X202216359Y-62139831D01*
X202236877Y-62242014D01*
X202254659Y-62324598D01*
X202268381Y-62381456D01*
X202276718Y-62406458D01*
X202277116Y-62406901D01*
X202301677Y-62419110D01*
X202352315Y-62439456D01*
X202418095Y-62463545D01*
X202418461Y-62463674D01*
X202501317Y-62494818D01*
X202599000Y-62534491D01*
X202691077Y-62574381D01*
X202695434Y-62576353D01*
X202845407Y-62644420D01*
X203177498Y-62417639D01*
X203279374Y-62348504D01*
X203371657Y-62286697D01*
X203449003Y-62235733D01*
X203506064Y-62199127D01*
X203537495Y-62180394D01*
X203540479Y-62179004D01*
X203563321Y-62185190D01*
X203605982Y-62215035D01*
X203670128Y-62269947D01*
X203757421Y-62351334D01*
X203846535Y-62437922D01*
X203932441Y-62523247D01*
X204009327Y-62601108D01*
X204072564Y-62666697D01*
X204117523Y-62715205D01*
X204139576Y-62741825D01*
X204140396Y-62743195D01*
X204142834Y-62761463D01*
X204133650Y-62791295D01*
X204110574Y-62836721D01*
X204071337Y-62901770D01*
X204013670Y-62990470D01*
X203936795Y-63104657D01*
X203868570Y-63205162D01*
X203807582Y-63295303D01*
X203757356Y-63369849D01*
X203721416Y-63423565D01*
X203703287Y-63451218D01*
X203702146Y-63453095D01*
X203704359Y-63479590D01*
X203721138Y-63531086D01*
X203749142Y-63597851D01*
X203759122Y-63619172D01*
X203802672Y-63714159D01*
X203849134Y-63821937D01*
X203886877Y-63915192D01*
X203914073Y-63984406D01*
X203935675Y-64037006D01*
X203948158Y-64064497D01*
X203949709Y-64066616D01*
X203972668Y-64070124D01*
X204026786Y-64079738D01*
X204104868Y-64094089D01*
X204199719Y-64111807D01*
X204304143Y-64131525D01*
X204410944Y-64151874D01*
X204512926Y-64171486D01*
X204602894Y-64188991D01*
X204673653Y-64203022D01*
X204718006Y-64212209D01*
X204728885Y-64214807D01*
X204740122Y-64221218D01*
X204748605Y-64235697D01*
X204754714Y-64263133D01*
X204758832Y-64308411D01*
X204761341Y-64376420D01*
X204762621Y-64472047D01*
X204763054Y-64600180D01*
X204763077Y-64652701D01*
X204763077Y-65079845D01*
X204660500Y-65100091D01*
X204603431Y-65111070D01*
X204518269Y-65127095D01*
X204415372Y-65146233D01*
X204305096Y-65166551D01*
X204274615Y-65172132D01*
X204172855Y-65191917D01*
X204084205Y-65211373D01*
X204016108Y-65228697D01*
X203976004Y-65242088D01*
X203969323Y-65246079D01*
X203952919Y-65274342D01*
X203929399Y-65329109D01*
X203903316Y-65399588D01*
X203898142Y-65414769D01*
X203863956Y-65508896D01*
X203821523Y-65615101D01*
X203779997Y-65710473D01*
X203779792Y-65710916D01*
X203710640Y-65860525D01*
X204165512Y-66529617D01*
X203873500Y-66822116D01*
X203785180Y-66909170D01*
X203704625Y-66985909D01*
X203636360Y-67048237D01*
X203584908Y-67092056D01*
X203554794Y-67113270D01*
X203550474Y-67114616D01*
X203525111Y-67104016D01*
X203473358Y-67074547D01*
X203400868Y-67029705D01*
X203313294Y-66972984D01*
X203218612Y-66909462D01*
X203122516Y-66844668D01*
X203036837Y-66788287D01*
X202967016Y-66743788D01*
X202918494Y-66714639D01*
X202896782Y-66704308D01*
X202870293Y-66713050D01*
X202820062Y-66736087D01*
X202756451Y-66768631D01*
X202749708Y-66772249D01*
X202664046Y-66815210D01*
X202605306Y-66836279D01*
X202568772Y-66836503D01*
X202549731Y-66816928D01*
X202549620Y-66816654D01*
X202540102Y-66793472D01*
X202517403Y-66738441D01*
X202483282Y-66655822D01*
X202439500Y-66549872D01*
X202387816Y-66424852D01*
X202329992Y-66285020D01*
X202273991Y-66149637D01*
X202212447Y-66000234D01*
X202155939Y-65861832D01*
X202106161Y-65738673D01*
X202064806Y-65635002D01*
X202033568Y-65555059D01*
X202014141Y-65503088D01*
X202008154Y-65483692D01*
X202023168Y-65461443D01*
X202062439Y-65425982D01*
X202114807Y-65386887D01*
X202263941Y-65263245D01*
X202380511Y-65121522D01*
X202463118Y-64964704D01*
X202510366Y-64795775D01*
X202520857Y-64617722D01*
X202513231Y-64535539D01*
X202471682Y-64365031D01*
X202400123Y-64214459D01*
X202302995Y-64085309D01*
X202184734Y-63979064D01*
X202049780Y-63897210D01*
X201902571Y-63841232D01*
X201747544Y-63812615D01*
X201589139Y-63812844D01*
X201431794Y-63843405D01*
X201279946Y-63905782D01*
X201138035Y-64001460D01*
X201078803Y-64055572D01*
X200965203Y-64194520D01*
X200886106Y-64346361D01*
X200840986Y-64506667D01*
X200829316Y-64671012D01*
X200850569Y-64834971D01*
X200904220Y-64994118D01*
X200989740Y-65144025D01*
X201106605Y-65280267D01*
X201237193Y-65386887D01*
X201291588Y-65427642D01*
X201330014Y-65462718D01*
X201343846Y-65483726D01*
X201336603Y-65506635D01*
X201316005Y-65561365D01*
X201283746Y-65643672D01*
X201241521Y-65749315D01*
X201191023Y-65874050D01*
X201133948Y-66013636D01*
X201077854Y-66149670D01*
X201015967Y-66299201D01*
X200958644Y-66437767D01*
X200907644Y-66561107D01*
X200864727Y-66664964D01*
X200831653Y-66745080D01*
X200810181Y-66797195D01*
X200802225Y-66816654D01*
X200783429Y-66836423D01*
X200747074Y-66836365D01*
X200688479Y-66815441D01*
X200602968Y-66772613D01*
X200602292Y-66772249D01*
X200537907Y-66739012D01*
X200485861Y-66714802D01*
X200456512Y-66704404D01*
X200455217Y-66704308D01*
X200433124Y-66714855D01*
X200384348Y-66744184D01*
X200314331Y-66788827D01*
X200228514Y-66845314D01*
X200133388Y-66909462D01*
X200036540Y-66974411D01*
X199949253Y-67030896D01*
X199877181Y-67075421D01*
X199825977Y-67104490D01*
X199801526Y-67114616D01*
X199779010Y-67101307D01*
X199733742Y-67064112D01*
X199670244Y-67007128D01*
X199593039Y-66934449D01*
X199506651Y-66850171D01*
X199478399Y-66822016D01*
X199186287Y-66529416D01*
X199408631Y-66203104D01*
X199476202Y-66102897D01*
X199535507Y-66012963D01*
X199583217Y-65938510D01*
X199616007Y-65884751D01*
X199630548Y-65856894D01*
X199630974Y-65854912D01*
X199623308Y-65828655D01*
X199602689Y-65775837D01*
X199572685Y-65705310D01*
X199551625Y-65658093D01*
X199512248Y-65567694D01*
X199475165Y-65476366D01*
X199446415Y-65399200D01*
X199438605Y-65375692D01*
X199416417Y-65312916D01*
X199394727Y-65264411D01*
X199382813Y-65246079D01*
X199356523Y-65234859D01*
X199299142Y-65218954D01*
X199218118Y-65200167D01*
X199120895Y-65180299D01*
X199077385Y-65172132D01*
X198966896Y-65151829D01*
X198860916Y-65132170D01*
X198769801Y-65115088D01*
X198703908Y-65102518D01*
X198691500Y-65100091D01*
X198588923Y-65079845D01*
X198588923Y-64652701D01*
X198589153Y-64512246D01*
X198590099Y-64405979D01*
X198592141Y-64329013D01*
X198595662Y-64276460D01*
X198601043Y-64243433D01*
X198608666Y-64225045D01*
X198618912Y-64216408D01*
X198623115Y-64214807D01*
X198648470Y-64209127D01*
X198704484Y-64197795D01*
X198783964Y-64182179D01*
X198879712Y-64163647D01*
X198984533Y-64143569D01*
X199091232Y-64123312D01*
X199192613Y-64104246D01*
X199281479Y-64087739D01*
X199350637Y-64075159D01*
X199392889Y-64067875D01*
X199402290Y-64066616D01*
X199410807Y-64049763D01*
X199429660Y-64004870D01*
X199455324Y-63940430D01*
X199465123Y-63915192D01*
X199504648Y-63817686D01*
X199551192Y-63709959D01*
X199592877Y-63619172D01*
X199623550Y-63549753D01*
X199643956Y-63492710D01*
X199650768Y-63457777D01*
X199649682Y-63453095D01*
X199635285Y-63430991D01*
X199602412Y-63381831D01*
X199554590Y-63310848D01*
X199495348Y-63223278D01*
X199428215Y-63124357D01*
X199414941Y-63104830D01*
X199337046Y-62989140D01*
X199279787Y-62901044D01*
X199240881Y-62836486D01*
X199218044Y-62791411D01*
X199208994Y-62761763D01*
X199211448Y-62743485D01*
X199211511Y-62743369D01*
X199230827Y-62719361D01*
X199273551Y-62672947D01*
X199335051Y-62608937D01*
X199410698Y-62532145D01*
X199495861Y-62447382D01*
X199505465Y-62437922D01*
X199612790Y-62333989D01*
X199695615Y-62257675D01*
X199755605Y-62207571D01*
X199794423Y-62182270D01*
X199811520Y-62179004D01*
X199836473Y-62193250D01*
X199888255Y-62226156D01*
X199961520Y-62274208D01*
X200050920Y-62333890D01*
X200151111Y-62401688D01*
X200174501Y-62417639D01*
X200506593Y-62644420D01*
X200656565Y-62576353D01*
X200747770Y-62536685D01*
X200845669Y-62496791D01*
X200929831Y-62464983D01*
X200933538Y-62463674D01*
X200999369Y-62439576D01*
X201050116Y-62419200D01*
X201074842Y-62406936D01*
X201074884Y-62406901D01*
X201082729Y-62384734D01*
X201096066Y-62330217D01*
X201113570Y-62249480D01*
X201133917Y-62148650D01*
X201155782Y-62033856D01*
X201157571Y-62024178D01*
X201179504Y-61905904D01*
X201199640Y-61798542D01*
X201216680Y-61708917D01*
X201229328Y-61643851D01*
X201236284Y-61610168D01*
X201236406Y-61609654D01*
X201240639Y-61595325D01*
X201248871Y-61584507D01*
X201266033Y-61576706D01*
X201297058Y-61571429D01*
X201346878Y-61568182D01*
X201420424Y-61566472D01*
X201522629Y-61565807D01*
X201658425Y-61565693D01*
X201676000Y-61565692D01*
X201815878Y-61565776D01*
G37*
X201815878Y-61565776D02*
X201921612Y-61566355D01*
X201998132Y-61567922D01*
X202050372Y-61570972D01*
X202083263Y-61575996D01*
X202101737Y-61583489D01*
X202110727Y-61593944D01*
X202115163Y-61607853D01*
X202115594Y-61609654D01*
X202122333Y-61642145D01*
X202134808Y-61706252D01*
X202151719Y-61795151D01*
X202171771Y-61902019D01*
X202193664Y-62020033D01*
X202194429Y-62024178D01*
X202216359Y-62139831D01*
X202236877Y-62242014D01*
X202254659Y-62324598D01*
X202268381Y-62381456D01*
X202276718Y-62406458D01*
X202277116Y-62406901D01*
X202301677Y-62419110D01*
X202352315Y-62439456D01*
X202418095Y-62463545D01*
X202418461Y-62463674D01*
X202501317Y-62494818D01*
X202599000Y-62534491D01*
X202691077Y-62574381D01*
X202695434Y-62576353D01*
X202845407Y-62644420D01*
X203177498Y-62417639D01*
X203279374Y-62348504D01*
X203371657Y-62286697D01*
X203449003Y-62235733D01*
X203506064Y-62199127D01*
X203537495Y-62180394D01*
X203540479Y-62179004D01*
X203563321Y-62185190D01*
X203605982Y-62215035D01*
X203670128Y-62269947D01*
X203757421Y-62351334D01*
X203846535Y-62437922D01*
X203932441Y-62523247D01*
X204009327Y-62601108D01*
X204072564Y-62666697D01*
X204117523Y-62715205D01*
X204139576Y-62741825D01*
X204140396Y-62743195D01*
X204142834Y-62761463D01*
X204133650Y-62791295D01*
X204110574Y-62836721D01*
X204071337Y-62901770D01*
X204013670Y-62990470D01*
X203936795Y-63104657D01*
X203868570Y-63205162D01*
X203807582Y-63295303D01*
X203757356Y-63369849D01*
X203721416Y-63423565D01*
X203703287Y-63451218D01*
X203702146Y-63453095D01*
X203704359Y-63479590D01*
X203721138Y-63531086D01*
X203749142Y-63597851D01*
X203759122Y-63619172D01*
X203802672Y-63714159D01*
X203849134Y-63821937D01*
X203886877Y-63915192D01*
X203914073Y-63984406D01*
X203935675Y-64037006D01*
X203948158Y-64064497D01*
X203949709Y-64066616D01*
X203972668Y-64070124D01*
X204026786Y-64079738D01*
X204104868Y-64094089D01*
X204199719Y-64111807D01*
X204304143Y-64131525D01*
X204410944Y-64151874D01*
X204512926Y-64171486D01*
X204602894Y-64188991D01*
X204673653Y-64203022D01*
X204718006Y-64212209D01*
X204728885Y-64214807D01*
X204740122Y-64221218D01*
X204748605Y-64235697D01*
X204754714Y-64263133D01*
X204758832Y-64308411D01*
X204761341Y-64376420D01*
X204762621Y-64472047D01*
X204763054Y-64600180D01*
X204763077Y-64652701D01*
X204763077Y-65079845D01*
X204660500Y-65100091D01*
X204603431Y-65111070D01*
X204518269Y-65127095D01*
X204415372Y-65146233D01*
X204305096Y-65166551D01*
X204274615Y-65172132D01*
X204172855Y-65191917D01*
X204084205Y-65211373D01*
X204016108Y-65228697D01*
X203976004Y-65242088D01*
X203969323Y-65246079D01*
X203952919Y-65274342D01*
X203929399Y-65329109D01*
X203903316Y-65399588D01*
X203898142Y-65414769D01*
X203863956Y-65508896D01*
X203821523Y-65615101D01*
X203779997Y-65710473D01*
X203779792Y-65710916D01*
X203710640Y-65860525D01*
X204165512Y-66529617D01*
X203873500Y-66822116D01*
X203785180Y-66909170D01*
X203704625Y-66985909D01*
X203636360Y-67048237D01*
X203584908Y-67092056D01*
X203554794Y-67113270D01*
X203550474Y-67114616D01*
X203525111Y-67104016D01*
X203473358Y-67074547D01*
X203400868Y-67029705D01*
X203313294Y-66972984D01*
X203218612Y-66909462D01*
X203122516Y-66844668D01*
X203036837Y-66788287D01*
X202967016Y-66743788D01*
X202918494Y-66714639D01*
X202896782Y-66704308D01*
X202870293Y-66713050D01*
X202820062Y-66736087D01*
X202756451Y-66768631D01*
X202749708Y-66772249D01*
X202664046Y-66815210D01*
X202605306Y-66836279D01*
X202568772Y-66836503D01*
X202549731Y-66816928D01*
X202549620Y-66816654D01*
X202540102Y-66793472D01*
X202517403Y-66738441D01*
X202483282Y-66655822D01*
X202439500Y-66549872D01*
X202387816Y-66424852D01*
X202329992Y-66285020D01*
X202273991Y-66149637D01*
X202212447Y-66000234D01*
X202155939Y-65861832D01*
X202106161Y-65738673D01*
X202064806Y-65635002D01*
X202033568Y-65555059D01*
X202014141Y-65503088D01*
X202008154Y-65483692D01*
X202023168Y-65461443D01*
X202062439Y-65425982D01*
X202114807Y-65386887D01*
X202263941Y-65263245D01*
X202380511Y-65121522D01*
X202463118Y-64964704D01*
X202510366Y-64795775D01*
X202520857Y-64617722D01*
X202513231Y-64535539D01*
X202471682Y-64365031D01*
X202400123Y-64214459D01*
X202302995Y-64085309D01*
X202184734Y-63979064D01*
X202049780Y-63897210D01*
X201902571Y-63841232D01*
X201747544Y-63812615D01*
X201589139Y-63812844D01*
X201431794Y-63843405D01*
X201279946Y-63905782D01*
X201138035Y-64001460D01*
X201078803Y-64055572D01*
X200965203Y-64194520D01*
X200886106Y-64346361D01*
X200840986Y-64506667D01*
X200829316Y-64671012D01*
X200850569Y-64834971D01*
X200904220Y-64994118D01*
X200989740Y-65144025D01*
X201106605Y-65280267D01*
X201237193Y-65386887D01*
X201291588Y-65427642D01*
X201330014Y-65462718D01*
X201343846Y-65483726D01*
X201336603Y-65506635D01*
X201316005Y-65561365D01*
X201283746Y-65643672D01*
X201241521Y-65749315D01*
X201191023Y-65874050D01*
X201133948Y-66013636D01*
X201077854Y-66149670D01*
X201015967Y-66299201D01*
X200958644Y-66437767D01*
X200907644Y-66561107D01*
X200864727Y-66664964D01*
X200831653Y-66745080D01*
X200810181Y-66797195D01*
X200802225Y-66816654D01*
X200783429Y-66836423D01*
X200747074Y-66836365D01*
X200688479Y-66815441D01*
X200602968Y-66772613D01*
X200602292Y-66772249D01*
X200537907Y-66739012D01*
X200485861Y-66714802D01*
X200456512Y-66704404D01*
X200455217Y-66704308D01*
X200433124Y-66714855D01*
X200384348Y-66744184D01*
X200314331Y-66788827D01*
X200228514Y-66845314D01*
X200133388Y-66909462D01*
X200036540Y-66974411D01*
X199949253Y-67030896D01*
X199877181Y-67075421D01*
X199825977Y-67104490D01*
X199801526Y-67114616D01*
X199779010Y-67101307D01*
X199733742Y-67064112D01*
X199670244Y-67007128D01*
X199593039Y-66934449D01*
X199506651Y-66850171D01*
X199478399Y-66822016D01*
X199186287Y-66529416D01*
X199408631Y-66203104D01*
X199476202Y-66102897D01*
X199535507Y-66012963D01*
X199583217Y-65938510D01*
X199616007Y-65884751D01*
X199630548Y-65856894D01*
X199630974Y-65854912D01*
X199623308Y-65828655D01*
X199602689Y-65775837D01*
X199572685Y-65705310D01*
X199551625Y-65658093D01*
X199512248Y-65567694D01*
X199475165Y-65476366D01*
X199446415Y-65399200D01*
X199438605Y-65375692D01*
X199416417Y-65312916D01*
X199394727Y-65264411D01*
X199382813Y-65246079D01*
X199356523Y-65234859D01*
X199299142Y-65218954D01*
X199218118Y-65200167D01*
X199120895Y-65180299D01*
X199077385Y-65172132D01*
X198966896Y-65151829D01*
X198860916Y-65132170D01*
X198769801Y-65115088D01*
X198703908Y-65102518D01*
X198691500Y-65100091D01*
X198588923Y-65079845D01*
X198588923Y-64652701D01*
X198589153Y-64512246D01*
X198590099Y-64405979D01*
X198592141Y-64329013D01*
X198595662Y-64276460D01*
X198601043Y-64243433D01*
X198608666Y-64225045D01*
X198618912Y-64216408D01*
X198623115Y-64214807D01*
X198648470Y-64209127D01*
X198704484Y-64197795D01*
X198783964Y-64182179D01*
X198879712Y-64163647D01*
X198984533Y-64143569D01*
X199091232Y-64123312D01*
X199192613Y-64104246D01*
X199281479Y-64087739D01*
X199350637Y-64075159D01*
X199392889Y-64067875D01*
X199402290Y-64066616D01*
X199410807Y-64049763D01*
X199429660Y-64004870D01*
X199455324Y-63940430D01*
X199465123Y-63915192D01*
X199504648Y-63817686D01*
X199551192Y-63709959D01*
X199592877Y-63619172D01*
X199623550Y-63549753D01*
X199643956Y-63492710D01*
X199650768Y-63457777D01*
X199649682Y-63453095D01*
X199635285Y-63430991D01*
X199602412Y-63381831D01*
X199554590Y-63310848D01*
X199495348Y-63223278D01*
X199428215Y-63124357D01*
X199414941Y-63104830D01*
X199337046Y-62989140D01*
X199279787Y-62901044D01*
X199240881Y-62836486D01*
X199218044Y-62791411D01*
X199208994Y-62761763D01*
X199211448Y-62743485D01*
X199211511Y-62743369D01*
X199230827Y-62719361D01*
X199273551Y-62672947D01*
X199335051Y-62608937D01*
X199410698Y-62532145D01*
X199495861Y-62447382D01*
X199505465Y-62437922D01*
X199612790Y-62333989D01*
X199695615Y-62257675D01*
X199755605Y-62207571D01*
X199794423Y-62182270D01*
X199811520Y-62179004D01*
X199836473Y-62193250D01*
X199888255Y-62226156D01*
X199961520Y-62274208D01*
X200050920Y-62333890D01*
X200151111Y-62401688D01*
X200174501Y-62417639D01*
X200506593Y-62644420D01*
X200656565Y-62576353D01*
X200747770Y-62536685D01*
X200845669Y-62496791D01*
X200929831Y-62464983D01*
X200933538Y-62463674D01*
X200999369Y-62439576D01*
X201050116Y-62419200D01*
X201074842Y-62406936D01*
X201074884Y-62406901D01*
X201082729Y-62384734D01*
X201096066Y-62330217D01*
X201113570Y-62249480D01*
X201133917Y-62148650D01*
X201155782Y-62033856D01*
X201157571Y-62024178D01*
X201179504Y-61905904D01*
X201199640Y-61798542D01*
X201216680Y-61708917D01*
X201229328Y-61643851D01*
X201236284Y-61610168D01*
X201236406Y-61609654D01*
X201240639Y-61595325D01*
X201248871Y-61584507D01*
X201266033Y-61576706D01*
X201297058Y-61571429D01*
X201346878Y-61568182D01*
X201420424Y-61566472D01*
X201522629Y-61565807D01*
X201658425Y-61565693D01*
X201676000Y-61565692D01*
X201815878Y-61565776D01*
G36*
X204071929Y-67914662D02*
G01*
X204074911Y-67966068D01*
X204077247Y-68044192D01*
X204078749Y-68142857D01*
X204079231Y-68246343D01*
X204079231Y-68596533D01*
X204017401Y-68658363D01*
X203974793Y-68696462D01*
X203937390Y-68711895D01*
X203886270Y-68710918D01*
X203865978Y-68708433D01*
X203802554Y-68701200D01*
X203750095Y-68697055D01*
X203737308Y-68696672D01*
X203694199Y-68699176D01*
X203632544Y-68705462D01*
X203608638Y-68708433D01*
X203549922Y-68713028D01*
X203510464Y-68703046D01*
X203471338Y-68672228D01*
X203457215Y-68658363D01*
X203395385Y-68596533D01*
X203395385Y-67941503D01*
X203445150Y-67918829D01*
X203488002Y-67902034D01*
X203513073Y-67896154D01*
X203519501Y-67914736D01*
X203525509Y-67966655D01*
X203530697Y-68046172D01*
X203534664Y-68147546D01*
X203536577Y-68233192D01*
X203541923Y-68570231D01*
X203588560Y-68576825D01*
X203630976Y-68572214D01*
X203651760Y-68557287D01*
X203657570Y-68529377D01*
X203662530Y-68469925D01*
X203666246Y-68386466D01*
X203668324Y-68286532D01*
X203668624Y-68235104D01*
X203668923Y-67939054D01*
X203730454Y-67917604D01*
X203774004Y-67903020D01*
X203797694Y-67896219D01*
X203798377Y-67896154D01*
X203800754Y-67914642D01*
X203803366Y-67965906D01*
X203805995Y-68043649D01*
X203808421Y-68141574D01*
X203810115Y-68233192D01*
X203815461Y-68570231D01*
X203932692Y-68570231D01*
X203938072Y-68262746D01*
X203943451Y-67955261D01*
X204000601Y-67925707D01*
X204042797Y-67905413D01*
X204067770Y-67896204D01*
X204068491Y-67896154D01*
X204071929Y-67914662D01*
G37*
X204071929Y-67914662D02*
X204074911Y-67966068D01*
X204077247Y-68044192D01*
X204078749Y-68142857D01*
X204079231Y-68246343D01*
X204079231Y-68596533D01*
X204017401Y-68658363D01*
X203974793Y-68696462D01*
X203937390Y-68711895D01*
X203886270Y-68710918D01*
X203865978Y-68708433D01*
X203802554Y-68701200D01*
X203750095Y-68697055D01*
X203737308Y-68696672D01*
X203694199Y-68699176D01*
X203632544Y-68705462D01*
X203608638Y-68708433D01*
X203549922Y-68713028D01*
X203510464Y-68703046D01*
X203471338Y-68672228D01*
X203457215Y-68658363D01*
X203395385Y-68596533D01*
X203395385Y-67941503D01*
X203445150Y-67918829D01*
X203488002Y-67902034D01*
X203513073Y-67896154D01*
X203519501Y-67914736D01*
X203525509Y-67966655D01*
X203530697Y-68046172D01*
X203534664Y-68147546D01*
X203536577Y-68233192D01*
X203541923Y-68570231D01*
X203588560Y-68576825D01*
X203630976Y-68572214D01*
X203651760Y-68557287D01*
X203657570Y-68529377D01*
X203662530Y-68469925D01*
X203666246Y-68386466D01*
X203668324Y-68286532D01*
X203668624Y-68235104D01*
X203668923Y-67939054D01*
X203730454Y-67917604D01*
X203774004Y-67903020D01*
X203797694Y-67896219D01*
X203798377Y-67896154D01*
X203800754Y-67914642D01*
X203803366Y-67965906D01*
X203805995Y-68043649D01*
X203808421Y-68141574D01*
X203810115Y-68233192D01*
X203815461Y-68570231D01*
X203932692Y-68570231D01*
X203938072Y-68262746D01*
X203943451Y-67955261D01*
X204000601Y-67925707D01*
X204042797Y-67905413D01*
X204067770Y-67896204D01*
X204068491Y-67896154D01*
X204071929Y-67914662D01*
G36*
X204563333Y-67911528D02*
G01*
X204619590Y-67937117D01*
X204663747Y-67968124D01*
X204696101Y-68002795D01*
X204718438Y-68047520D01*
X204732546Y-68108692D01*
X204740211Y-68192701D01*
X204743220Y-68305940D01*
X204743538Y-68380509D01*
X204743538Y-68671420D01*
X204693773Y-68694095D01*
X204654576Y-68710667D01*
X204635157Y-68716769D01*
X204631442Y-68698610D01*
X204628495Y-68649648D01*
X204626691Y-68578153D01*
X204626308Y-68521385D01*
X204624661Y-68439371D01*
X204620222Y-68374309D01*
X204613740Y-68334467D01*
X204608590Y-68326000D01*
X204573977Y-68334646D01*
X204519640Y-68356823D01*
X204456722Y-68386886D01*
X204396368Y-68419192D01*
X204349721Y-68448098D01*
X204327926Y-68467961D01*
X204327839Y-68468175D01*
X204329714Y-68504935D01*
X204346525Y-68540026D01*
X204376039Y-68568528D01*
X204419116Y-68578061D01*
X204455932Y-68576950D01*
X204508074Y-68576133D01*
X204535444Y-68588349D01*
X204551882Y-68620624D01*
X204553955Y-68626710D01*
X204561081Y-68672739D01*
X204542024Y-68700687D01*
X204492353Y-68714007D01*
X204438697Y-68716470D01*
X204342142Y-68698210D01*
X204292159Y-68672131D01*
X204230429Y-68610868D01*
X204197690Y-68535670D01*
X204194753Y-68456211D01*
X204222424Y-68382167D01*
X204264047Y-68335769D01*
X204305604Y-68309793D01*
X204370922Y-68276907D01*
X204447038Y-68243557D01*
X204459726Y-68238461D01*
X204543333Y-68201565D01*
X204591530Y-68169046D01*
X204607030Y-68136718D01*
X204592550Y-68100394D01*
X204567692Y-68072000D01*
X204508939Y-68037039D01*
X204444293Y-68034417D01*
X204385008Y-68061358D01*
X204342339Y-68115088D01*
X204336739Y-68128950D01*
X204304133Y-68179936D01*
X204256530Y-68217787D01*
X204196461Y-68248850D01*
X204196461Y-68160768D01*
X204199997Y-68106951D01*
X204215156Y-68064534D01*
X204248768Y-68019279D01*
X204281035Y-67984420D01*
X204331209Y-67935062D01*
X204370193Y-67908547D01*
X204412064Y-67897911D01*
X204459460Y-67896154D01*
X204563333Y-67911528D01*
G37*
X204563333Y-67911528D02*
X204619590Y-67937117D01*
X204663747Y-67968124D01*
X204696101Y-68002795D01*
X204718438Y-68047520D01*
X204732546Y-68108692D01*
X204740211Y-68192701D01*
X204743220Y-68305940D01*
X204743538Y-68380509D01*
X204743538Y-68671420D01*
X204693773Y-68694095D01*
X204654576Y-68710667D01*
X204635157Y-68716769D01*
X204631442Y-68698610D01*
X204628495Y-68649648D01*
X204626691Y-68578153D01*
X204626308Y-68521385D01*
X204624661Y-68439371D01*
X204620222Y-68374309D01*
X204613740Y-68334467D01*
X204608590Y-68326000D01*
X204573977Y-68334646D01*
X204519640Y-68356823D01*
X204456722Y-68386886D01*
X204396368Y-68419192D01*
X204349721Y-68448098D01*
X204327926Y-68467961D01*
X204327839Y-68468175D01*
X204329714Y-68504935D01*
X204346525Y-68540026D01*
X204376039Y-68568528D01*
X204419116Y-68578061D01*
X204455932Y-68576950D01*
X204508074Y-68576133D01*
X204535444Y-68588349D01*
X204551882Y-68620624D01*
X204553955Y-68626710D01*
X204561081Y-68672739D01*
X204542024Y-68700687D01*
X204492353Y-68714007D01*
X204438697Y-68716470D01*
X204342142Y-68698210D01*
X204292159Y-68672131D01*
X204230429Y-68610868D01*
X204197690Y-68535670D01*
X204194753Y-68456211D01*
X204222424Y-68382167D01*
X204264047Y-68335769D01*
X204305604Y-68309793D01*
X204370922Y-68276907D01*
X204447038Y-68243557D01*
X204459726Y-68238461D01*
X204543333Y-68201565D01*
X204591530Y-68169046D01*
X204607030Y-68136718D01*
X204592550Y-68100394D01*
X204567692Y-68072000D01*
X204508939Y-68037039D01*
X204444293Y-68034417D01*
X204385008Y-68061358D01*
X204342339Y-68115088D01*
X204336739Y-68128950D01*
X204304133Y-68179936D01*
X204256530Y-68217787D01*
X204196461Y-68248850D01*
X204196461Y-68160768D01*
X204199997Y-68106951D01*
X204215156Y-68064534D01*
X204248768Y-68019279D01*
X204281035Y-67984420D01*
X204331209Y-67935062D01*
X204370193Y-67908547D01*
X204412064Y-67897911D01*
X204459460Y-67896154D01*
X204563333Y-67911528D01*
G36*
X198810778Y-68019055D02*
G01*
X198856421Y-67953215D01*
X198938802Y-67886681D01*
X199029546Y-67853676D01*
X199122185Y-67851573D01*
X199210254Y-67877745D01*
X199287286Y-67929567D01*
X199346816Y-68004412D01*
X199382378Y-68099654D01*
X199389571Y-68169756D01*
X199388754Y-68199009D01*
X199381914Y-68221407D01*
X199363112Y-68241474D01*
X199326408Y-68263733D01*
X199265862Y-68292709D01*
X199175534Y-68332927D01*
X199175077Y-68333129D01*
X199091933Y-68371210D01*
X199023753Y-68405025D01*
X198977505Y-68430933D01*
X198960158Y-68445295D01*
X198960154Y-68445411D01*
X198975443Y-68476685D01*
X199011196Y-68511157D01*
X199052242Y-68535990D01*
X199073037Y-68540923D01*
X199129770Y-68523862D01*
X199178627Y-68481133D01*
X199202465Y-68434155D01*
X199225397Y-68399522D01*
X199270318Y-68360081D01*
X199323123Y-68326009D01*
X199369710Y-68307480D01*
X199379452Y-68306462D01*
X199390418Y-68323215D01*
X199391079Y-68366039D01*
X199383020Y-68423781D01*
X199367827Y-68485289D01*
X199347086Y-68539409D01*
X199346038Y-68541510D01*
X199283621Y-68628660D01*
X199202726Y-68687939D01*
X199110856Y-68717034D01*
X199015513Y-68713634D01*
X198924198Y-68675428D01*
X198920138Y-68672741D01*
X198848306Y-68607642D01*
X198801073Y-68522705D01*
X198774934Y-68411021D01*
X198771426Y-68379643D01*
X198765213Y-68231536D01*
X198772661Y-68162468D01*
X198960154Y-68162468D01*
X198962590Y-68205552D01*
X198975914Y-68218126D01*
X199009132Y-68208719D01*
X199061494Y-68186483D01*
X199120024Y-68158610D01*
X199121479Y-68157872D01*
X199171089Y-68131777D01*
X199191000Y-68114363D01*
X199186090Y-68096107D01*
X199165416Y-68072120D01*
X199112819Y-68037406D01*
X199056177Y-68034856D01*
X199005369Y-68060119D01*
X198970276Y-68108847D01*
X198960154Y-68162468D01*
X198772661Y-68162468D01*
X198777992Y-68113036D01*
X198810778Y-68019055D01*
G37*
X198810778Y-68019055D02*
X198856421Y-67953215D01*
X198938802Y-67886681D01*
X199029546Y-67853676D01*
X199122185Y-67851573D01*
X199210254Y-67877745D01*
X199287286Y-67929567D01*
X199346816Y-68004412D01*
X199382378Y-68099654D01*
X199389571Y-68169756D01*
X199388754Y-68199009D01*
X199381914Y-68221407D01*
X199363112Y-68241474D01*
X199326408Y-68263733D01*
X199265862Y-68292709D01*
X199175534Y-68332927D01*
X199175077Y-68333129D01*
X199091933Y-68371210D01*
X199023753Y-68405025D01*
X198977505Y-68430933D01*
X198960158Y-68445295D01*
X198960154Y-68445411D01*
X198975443Y-68476685D01*
X199011196Y-68511157D01*
X199052242Y-68535990D01*
X199073037Y-68540923D01*
X199129770Y-68523862D01*
X199178627Y-68481133D01*
X199202465Y-68434155D01*
X199225397Y-68399522D01*
X199270318Y-68360081D01*
X199323123Y-68326009D01*
X199369710Y-68307480D01*
X199379452Y-68306462D01*
X199390418Y-68323215D01*
X199391079Y-68366039D01*
X199383020Y-68423781D01*
X199367827Y-68485289D01*
X199347086Y-68539409D01*
X199346038Y-68541510D01*
X199283621Y-68628660D01*
X199202726Y-68687939D01*
X199110856Y-68717034D01*
X199015513Y-68713634D01*
X198924198Y-68675428D01*
X198920138Y-68672741D01*
X198848306Y-68607642D01*
X198801073Y-68522705D01*
X198774934Y-68411021D01*
X198771426Y-68379643D01*
X198765213Y-68231536D01*
X198772661Y-68162468D01*
X198960154Y-68162468D01*
X198962590Y-68205552D01*
X198975914Y-68218126D01*
X199009132Y-68208719D01*
X199061494Y-68186483D01*
X199120024Y-68158610D01*
X199121479Y-68157872D01*
X199171089Y-68131777D01*
X199191000Y-68114363D01*
X199186090Y-68096107D01*
X199165416Y-68072120D01*
X199112819Y-68037406D01*
X199056177Y-68034856D01*
X199005369Y-68060119D01*
X198970276Y-68108847D01*
X198960154Y-68162468D01*
X198772661Y-68162468D01*
X198777992Y-68113036D01*
X198810778Y-68019055D01*
G36*
X202389362Y-67902670D02*
G01*
X202478117Y-67935421D01*
X202550022Y-67993350D01*
X202578144Y-68034128D01*
X202608802Y-68108954D01*
X202608165Y-68163058D01*
X202575987Y-68199446D01*
X202564081Y-68205633D01*
X202512675Y-68224925D01*
X202486422Y-68219982D01*
X202477530Y-68187587D01*
X202477077Y-68169692D01*
X202460797Y-68103859D01*
X202418365Y-68057807D01*
X202359388Y-68035564D01*
X202293475Y-68041161D01*
X202239895Y-68070229D01*
X202221798Y-68086810D01*
X202208971Y-68106925D01*
X202200306Y-68137332D01*
X202194696Y-68184788D01*
X202191035Y-68256050D01*
X202188215Y-68357875D01*
X202187484Y-68390115D01*
X202184820Y-68500410D01*
X202181792Y-68578036D01*
X202177250Y-68629396D01*
X202170046Y-68660890D01*
X202159033Y-68678920D01*
X202143060Y-68689888D01*
X202132834Y-68694733D01*
X202089406Y-68711301D01*
X202063842Y-68716769D01*
X202055395Y-68698507D01*
X202050239Y-68643296D01*
X202048346Y-68550499D01*
X202049689Y-68419478D01*
X202050107Y-68399269D01*
X202053058Y-68279733D01*
X202056548Y-68192449D01*
X202061514Y-68130591D01*
X202068893Y-68087336D01*
X202079624Y-68055860D01*
X202094645Y-68029339D01*
X202102502Y-68017975D01*
X202147553Y-67967692D01*
X202197940Y-67928581D01*
X202204108Y-67925167D01*
X202294458Y-67898212D01*
X202389362Y-67902670D01*
G37*
X202389362Y-67902670D02*
X202478117Y-67935421D01*
X202550022Y-67993350D01*
X202578144Y-68034128D01*
X202608802Y-68108954D01*
X202608165Y-68163058D01*
X202575987Y-68199446D01*
X202564081Y-68205633D01*
X202512675Y-68224925D01*
X202486422Y-68219982D01*
X202477530Y-68187587D01*
X202477077Y-68169692D01*
X202460797Y-68103859D01*
X202418365Y-68057807D01*
X202359388Y-68035564D01*
X202293475Y-68041161D01*
X202239895Y-68070229D01*
X202221798Y-68086810D01*
X202208971Y-68106925D01*
X202200306Y-68137332D01*
X202194696Y-68184788D01*
X202191035Y-68256050D01*
X202188215Y-68357875D01*
X202187484Y-68390115D01*
X202184820Y-68500410D01*
X202181792Y-68578036D01*
X202177250Y-68629396D01*
X202170046Y-68660890D01*
X202159033Y-68678920D01*
X202143060Y-68689888D01*
X202132834Y-68694733D01*
X202089406Y-68711301D01*
X202063842Y-68716769D01*
X202055395Y-68698507D01*
X202050239Y-68643296D01*
X202048346Y-68550499D01*
X202049689Y-68419478D01*
X202050107Y-68399269D01*
X202053058Y-68279733D01*
X202056548Y-68192449D01*
X202061514Y-68130591D01*
X202068893Y-68087336D01*
X202079624Y-68055860D01*
X202094645Y-68029339D01*
X202102502Y-68017975D01*
X202147553Y-67967692D01*
X202197940Y-67928581D01*
X202204108Y-67925167D01*
X202294458Y-67898212D01*
X202389362Y-67902670D01*
G36*
X205246807Y-67914782D02*
G01*
X205270161Y-67924988D01*
X205325902Y-67969134D01*
X205373569Y-68032967D01*
X205403048Y-68101087D01*
X205407846Y-68134670D01*
X205391760Y-68181556D01*
X205356475Y-68206365D01*
X205318644Y-68221387D01*
X205301321Y-68224155D01*
X205292886Y-68204066D01*
X205276230Y-68160351D01*
X205268923Y-68140598D01*
X205227948Y-68072271D01*
X205168622Y-68038191D01*
X205092552Y-68039239D01*
X205086918Y-68040581D01*
X205046305Y-68059836D01*
X205016448Y-68097375D01*
X204996055Y-68157809D01*
X204983836Y-68245751D01*
X204978500Y-68365813D01*
X204978000Y-68429698D01*
X204977752Y-68530403D01*
X204976126Y-68599054D01*
X204971801Y-68642673D01*
X204963454Y-68668282D01*
X204949765Y-68682903D01*
X204929411Y-68693558D01*
X204928234Y-68694095D01*
X204889038Y-68710667D01*
X204869619Y-68716769D01*
X204866635Y-68698319D01*
X204864081Y-68647323D01*
X204862140Y-68570308D01*
X204860997Y-68473805D01*
X204860769Y-68403184D01*
X204861932Y-68266525D01*
X204866479Y-68162851D01*
X204875999Y-68086108D01*
X204892081Y-68030246D01*
X204916313Y-67989212D01*
X204950286Y-67956954D01*
X204983833Y-67934440D01*
X205064499Y-67904476D01*
X205158381Y-67897718D01*
X205246807Y-67914782D01*
G37*
X205246807Y-67914782D02*
X205270161Y-67924988D01*
X205325902Y-67969134D01*
X205373569Y-68032967D01*
X205403048Y-68101087D01*
X205407846Y-68134670D01*
X205391760Y-68181556D01*
X205356475Y-68206365D01*
X205318644Y-68221387D01*
X205301321Y-68224155D01*
X205292886Y-68204066D01*
X205276230Y-68160351D01*
X205268923Y-68140598D01*
X205227948Y-68072271D01*
X205168622Y-68038191D01*
X205092552Y-68039239D01*
X205086918Y-68040581D01*
X205046305Y-68059836D01*
X205016448Y-68097375D01*
X204996055Y-68157809D01*
X204983836Y-68245751D01*
X204978500Y-68365813D01*
X204978000Y-68429698D01*
X204977752Y-68530403D01*
X204976126Y-68599054D01*
X204971801Y-68642673D01*
X204963454Y-68668282D01*
X204949765Y-68682903D01*
X204929411Y-68693558D01*
X204928234Y-68694095D01*
X204889038Y-68710667D01*
X204869619Y-68716769D01*
X204866635Y-68698319D01*
X204864081Y-68647323D01*
X204862140Y-68570308D01*
X204860997Y-68473805D01*
X204860769Y-68403184D01*
X204861932Y-68266525D01*
X204866479Y-68162851D01*
X204875999Y-68086108D01*
X204892081Y-68030246D01*
X204916313Y-67989212D01*
X204950286Y-67956954D01*
X204983833Y-67934440D01*
X205064499Y-67904476D01*
X205158381Y-67897718D01*
X205246807Y-67914782D01*
G36*
X205537032Y-68098710D02*
G01*
X205555460Y-68033167D01*
X205585360Y-67984912D01*
X205629080Y-67946767D01*
X205648141Y-67934440D01*
X205734726Y-67902336D01*
X205829522Y-67900316D01*
X205921224Y-67925838D01*
X205998528Y-67976361D01*
X206035814Y-68021590D01*
X206065353Y-68103663D01*
X206067699Y-68168607D01*
X206062385Y-68255445D01*
X205862115Y-68343103D01*
X205764739Y-68387887D01*
X205701113Y-68423913D01*
X205668029Y-68455117D01*
X205662280Y-68485436D01*
X205680658Y-68518805D01*
X205700923Y-68540923D01*
X205759889Y-68576393D01*
X205824024Y-68578879D01*
X205882926Y-68551235D01*
X205926197Y-68496320D01*
X205933936Y-68476928D01*
X205971006Y-68416364D01*
X206013654Y-68390552D01*
X206072154Y-68368471D01*
X206072154Y-68452184D01*
X206066982Y-68509150D01*
X206046723Y-68557189D01*
X206004262Y-68612346D01*
X205997951Y-68619514D01*
X205950720Y-68668585D01*
X205910121Y-68694920D01*
X205859328Y-68707035D01*
X205817220Y-68711003D01*
X205741902Y-68711991D01*
X205688286Y-68699466D01*
X205654838Y-68680869D01*
X205602268Y-68639975D01*
X205565879Y-68595748D01*
X205542850Y-68540126D01*
X205530359Y-68465047D01*
X205525587Y-68362449D01*
X205525206Y-68310376D01*
X205526501Y-68247948D01*
X205644471Y-68247948D01*
X205645839Y-68281438D01*
X205649249Y-68286923D01*
X205671753Y-68279472D01*
X205720182Y-68259753D01*
X205784908Y-68231718D01*
X205798443Y-68225692D01*
X205880244Y-68184096D01*
X205925312Y-68147538D01*
X205935217Y-68113296D01*
X205911526Y-68078648D01*
X205891960Y-68063339D01*
X205821360Y-68032721D01*
X205755280Y-68037780D01*
X205699959Y-68075151D01*
X205661636Y-68141473D01*
X205649349Y-68194116D01*
X205644471Y-68247948D01*
X205526501Y-68247948D01*
X205527730Y-68188720D01*
X205537032Y-68098710D01*
G37*
X205537032Y-68098710D02*
X205555460Y-68033167D01*
X205585360Y-67984912D01*
X205629080Y-67946767D01*
X205648141Y-67934440D01*
X205734726Y-67902336D01*
X205829522Y-67900316D01*
X205921224Y-67925838D01*
X205998528Y-67976361D01*
X206035814Y-68021590D01*
X206065353Y-68103663D01*
X206067699Y-68168607D01*
X206062385Y-68255445D01*
X205862115Y-68343103D01*
X205764739Y-68387887D01*
X205701113Y-68423913D01*
X205668029Y-68455117D01*
X205662280Y-68485436D01*
X205680658Y-68518805D01*
X205700923Y-68540923D01*
X205759889Y-68576393D01*
X205824024Y-68578879D01*
X205882926Y-68551235D01*
X205926197Y-68496320D01*
X205933936Y-68476928D01*
X205971006Y-68416364D01*
X206013654Y-68390552D01*
X206072154Y-68368471D01*
X206072154Y-68452184D01*
X206066982Y-68509150D01*
X206046723Y-68557189D01*
X206004262Y-68612346D01*
X205997951Y-68619514D01*
X205950720Y-68668585D01*
X205910121Y-68694920D01*
X205859328Y-68707035D01*
X205817220Y-68711003D01*
X205741902Y-68711991D01*
X205688286Y-68699466D01*
X205654838Y-68680869D01*
X205602268Y-68639975D01*
X205565879Y-68595748D01*
X205542850Y-68540126D01*
X205530359Y-68465047D01*
X205525587Y-68362449D01*
X205525206Y-68310376D01*
X205526501Y-68247948D01*
X205644471Y-68247948D01*
X205645839Y-68281438D01*
X205649249Y-68286923D01*
X205671753Y-68279472D01*
X205720182Y-68259753D01*
X205784908Y-68231718D01*
X205798443Y-68225692D01*
X205880244Y-68184096D01*
X205925312Y-68147538D01*
X205935217Y-68113296D01*
X205911526Y-68078648D01*
X205891960Y-68063339D01*
X205821360Y-68032721D01*
X205755280Y-68037780D01*
X205699959Y-68075151D01*
X205661636Y-68141473D01*
X205649349Y-68194116D01*
X205644471Y-68247948D01*
X205526501Y-68247948D01*
X205527730Y-68188720D01*
X205537032Y-68098710D01*
%TO.C,G\u002A\u002A\u002A*%
G36*
X162007291Y-76703799D02*
G01*
X162007291Y-76995332D01*
X161928526Y-76918548D01*
X161811440Y-76821664D01*
X161681670Y-76748848D01*
X161602212Y-76717343D01*
X161524915Y-76698369D01*
X161427541Y-76686239D01*
X161319255Y-76681078D01*
X161209224Y-76683013D01*
X161106615Y-76692170D01*
X161020594Y-76708677D01*
X161018395Y-76709279D01*
X160855015Y-76769453D01*
X160707789Y-76854588D01*
X160578140Y-76963503D01*
X160467492Y-77095016D01*
X160382972Y-77236404D01*
X160326558Y-77375438D01*
X160285603Y-77532842D01*
X160261375Y-77700551D01*
X160255139Y-77870498D01*
X160263411Y-77997939D01*
X160279682Y-78118552D01*
X160299901Y-78219465D01*
X160326948Y-78310965D01*
X160363705Y-78403341D01*
X160396811Y-78474148D01*
X160481610Y-78616510D01*
X160587152Y-78741663D01*
X160709695Y-78845808D01*
X160837061Y-78921162D01*
X161000639Y-78984163D01*
X161172670Y-79019830D01*
X161328374Y-79029257D01*
X161492786Y-79016131D01*
X161643422Y-78976996D01*
X161779321Y-78912219D01*
X161899524Y-78822165D01*
X161918438Y-78804261D01*
X162007291Y-78717318D01*
X162007291Y-79839417D01*
X161643470Y-79836895D01*
X161538304Y-79835959D01*
X161439948Y-79834697D01*
X161353427Y-79833204D01*
X161283765Y-79831575D01*
X161235989Y-79829904D01*
X161219636Y-79828896D01*
X160983625Y-79792912D01*
X160755498Y-79729747D01*
X160537529Y-79641092D01*
X160331993Y-79528640D01*
X160141163Y-79394082D01*
X159967314Y-79239109D01*
X159812721Y-79065415D01*
X159679656Y-78874691D01*
X159570394Y-78668628D01*
X159529722Y-78571667D01*
X159456148Y-78345017D01*
X159408703Y-78115307D01*
X159388059Y-77887035D01*
X159394813Y-77665450D01*
X159432223Y-77416365D01*
X159495922Y-77181670D01*
X159586157Y-76960853D01*
X159703172Y-76753400D01*
X159847215Y-76558800D01*
X160008394Y-76386251D01*
X160190980Y-76229173D01*
X160386481Y-76098139D01*
X160597162Y-75991901D01*
X160825285Y-75909212D01*
X160922969Y-75882185D01*
X161084610Y-75841129D01*
X165555490Y-75841129D01*
X165989752Y-75841134D01*
X166395038Y-75841152D01*
X166772378Y-75841189D01*
X167122802Y-75841253D01*
X167447340Y-75841348D01*
X167747021Y-75841482D01*
X168022877Y-75841661D01*
X168275937Y-75841891D01*
X168507230Y-75842178D01*
X168717787Y-75842529D01*
X168908638Y-75842950D01*
X169080812Y-75843447D01*
X169235340Y-75844027D01*
X169373252Y-75844696D01*
X169495577Y-75845460D01*
X169603346Y-75846326D01*
X169697588Y-75847299D01*
X169779333Y-75848387D01*
X169849612Y-75849595D01*
X169909455Y-75850930D01*
X169959891Y-75852398D01*
X170001950Y-75854005D01*
X170036662Y-75855758D01*
X170065057Y-75857663D01*
X170088166Y-75859726D01*
X170107018Y-75861954D01*
X170122643Y-75864352D01*
X170136071Y-75866928D01*
X170146394Y-75869230D01*
X170390182Y-75940710D01*
X170618118Y-76036870D01*
X170829036Y-76156817D01*
X171021769Y-76299660D01*
X171195155Y-76464507D01*
X171348026Y-76650466D01*
X171479218Y-76856644D01*
X171509072Y-76912366D01*
X171602832Y-77119078D01*
X171669674Y-77326236D01*
X171711057Y-77539903D01*
X171728438Y-77766142D01*
X171729205Y-77828342D01*
X171715742Y-78077691D01*
X171675174Y-78314284D01*
X171607234Y-78538788D01*
X171511655Y-78751867D01*
X171388170Y-78954187D01*
X171236512Y-79146412D01*
X171171718Y-79216659D01*
X171002147Y-79376215D01*
X170823121Y-79510464D01*
X170631019Y-79621419D01*
X170422220Y-79711093D01*
X170193102Y-79781500D01*
X170126875Y-79797563D01*
X169981361Y-79831027D01*
X166376902Y-79835520D01*
X162772442Y-79840013D01*
X162772442Y-76711301D01*
X162895374Y-76711301D01*
X163725130Y-78998735D01*
X164477280Y-78999251D01*
X164692341Y-78305365D01*
X164735389Y-78166884D01*
X164775969Y-78037143D01*
X164813180Y-77918965D01*
X164846122Y-77815169D01*
X164873895Y-77728576D01*
X164895599Y-77662007D01*
X164910335Y-77618282D01*
X164917203Y-77600224D01*
X164917361Y-77599999D01*
X164923577Y-77611589D01*
X164937613Y-77649213D01*
X164958593Y-77710189D01*
X164985640Y-77791832D01*
X165017879Y-77891458D01*
X165054432Y-78006384D01*
X165094425Y-78133926D01*
X165136981Y-78271401D01*
X165143886Y-78293867D01*
X165360451Y-78999216D01*
X165735617Y-78999233D01*
X166110782Y-78999251D01*
X167048284Y-78999251D01*
X167798431Y-78999251D01*
X167948461Y-78999251D01*
X168698609Y-78999251D01*
X168698609Y-77859027D01*
X168856181Y-77859027D01*
X168857635Y-77979195D01*
X168862997Y-78076975D01*
X168873834Y-78159893D01*
X168891712Y-78235475D01*
X168918199Y-78311249D01*
X168954860Y-78394739D01*
X168977476Y-78441688D01*
X169065599Y-78587855D01*
X169176493Y-78714835D01*
X169308720Y-78821173D01*
X169411858Y-78881859D01*
X169549856Y-78945204D01*
X169681307Y-78988481D01*
X169816104Y-79013951D01*
X169964140Y-79023872D01*
X170033871Y-79023928D01*
X170176399Y-79021756D01*
X170180455Y-78719796D01*
X170184510Y-78417835D01*
X170051883Y-78411494D01*
X169944652Y-78398740D01*
X169858358Y-78370185D01*
X169786989Y-78323226D01*
X169742064Y-78277265D01*
X169678367Y-78181024D01*
X169634149Y-78070596D01*
X169609244Y-77951406D01*
X169603488Y-77828878D01*
X169616715Y-77708435D01*
X169648760Y-77595503D01*
X169699459Y-77495504D01*
X169768346Y-77414134D01*
X169841235Y-77358135D01*
X169915976Y-77323634D01*
X170002273Y-77307074D01*
X170067932Y-77304247D01*
X170184510Y-77303917D01*
X170180455Y-76992606D01*
X170176399Y-76681295D01*
X169988863Y-76683705D01*
X169839533Y-76691311D01*
X169708376Y-76711516D01*
X169585373Y-76746636D01*
X169460508Y-76798988D01*
X169433753Y-76812067D01*
X169313178Y-76885725D01*
X169197548Y-76981417D01*
X169094290Y-77091819D01*
X169010836Y-77209611D01*
X168987152Y-77252256D01*
X168939948Y-77350517D01*
X168905130Y-77440094D01*
X168881022Y-77528755D01*
X168865946Y-77624265D01*
X168858227Y-77734388D01*
X168856181Y-77859027D01*
X168698609Y-77859027D01*
X168698609Y-76703799D01*
X167948461Y-76703799D01*
X167948461Y-78999251D01*
X167798431Y-78999251D01*
X167798431Y-76703799D01*
X167048284Y-76703799D01*
X167048284Y-78999251D01*
X166110782Y-78999251D01*
X166527023Y-77861221D01*
X166591574Y-77684615D01*
X166653062Y-77516164D01*
X166710716Y-77357989D01*
X166763767Y-77212213D01*
X166811445Y-77080958D01*
X166852980Y-76966347D01*
X166887603Y-76870501D01*
X166914545Y-76795542D01*
X166933035Y-76743593D01*
X166942304Y-76716776D01*
X166943263Y-76713495D01*
X166928939Y-76710809D01*
X166888684Y-76708409D01*
X166826570Y-76706402D01*
X166746672Y-76704898D01*
X166653064Y-76704004D01*
X166578532Y-76703799D01*
X166213801Y-76703799D01*
X165998876Y-77435193D01*
X165956515Y-77579055D01*
X165916245Y-77715256D01*
X165878941Y-77840870D01*
X165845481Y-77952972D01*
X165816741Y-78048635D01*
X165793597Y-78124935D01*
X165776926Y-78178946D01*
X165767604Y-78207743D01*
X165766608Y-78210451D01*
X165763282Y-78217952D01*
X165759698Y-78222263D01*
X165755321Y-78221697D01*
X165749618Y-78214566D01*
X165742054Y-78199183D01*
X165732097Y-78173862D01*
X165719212Y-78136913D01*
X165702865Y-78086651D01*
X165682523Y-78021388D01*
X165657652Y-77939437D01*
X165627718Y-77839109D01*
X165592187Y-77718719D01*
X165550525Y-77576579D01*
X165502199Y-77411001D01*
X165446675Y-77220298D01*
X165383419Y-77002782D01*
X165370647Y-76958850D01*
X165298679Y-76711301D01*
X164936726Y-76707286D01*
X164574774Y-76703270D01*
X164537377Y-76827309D01*
X164525252Y-76868194D01*
X164505922Y-76934214D01*
X164480462Y-77021664D01*
X164449947Y-77126836D01*
X164415451Y-77246027D01*
X164378047Y-77375529D01*
X164338812Y-77511636D01*
X164316551Y-77588974D01*
X164278145Y-77721985D01*
X164242035Y-77846096D01*
X164209107Y-77958333D01*
X164180245Y-78055722D01*
X164156335Y-78135288D01*
X164138262Y-78194058D01*
X164126911Y-78229058D01*
X164123420Y-78237845D01*
X164117471Y-78226073D01*
X164103963Y-78188097D01*
X164083710Y-78126525D01*
X164057525Y-78043967D01*
X164026223Y-77943032D01*
X163990616Y-77826329D01*
X163951519Y-77696469D01*
X163909745Y-77556059D01*
X163891021Y-77492609D01*
X163848175Y-77347399D01*
X163807657Y-77210728D01*
X163770294Y-77085332D01*
X163736909Y-76973950D01*
X163708327Y-76879317D01*
X163685372Y-76804171D01*
X163668869Y-76751249D01*
X163659643Y-76723287D01*
X163658171Y-76719700D01*
X163642160Y-76714084D01*
X163601265Y-76710030D01*
X163534308Y-76707498D01*
X163440112Y-76706453D01*
X163317500Y-76706855D01*
X163271696Y-76707287D01*
X162895374Y-76711301D01*
X162772442Y-76711301D01*
X162772442Y-76703799D01*
X162007291Y-76703799D01*
G37*
G36*
X171582926Y-79239382D02*
G01*
X171662984Y-79244692D01*
X171728435Y-79259344D01*
X171773583Y-79281691D01*
X171789040Y-79298980D01*
X171803326Y-79349071D01*
X171801165Y-79404603D01*
X171783818Y-79451998D01*
X171773617Y-79464939D01*
X171753758Y-79487385D01*
X171752339Y-79505444D01*
X171768885Y-79532915D01*
X171771157Y-79536203D01*
X171799616Y-79578505D01*
X171810723Y-79601892D01*
X171804421Y-79611965D01*
X171780654Y-79614329D01*
X171770377Y-79614372D01*
X171734131Y-79609925D01*
X171710974Y-79591083D01*
X171694719Y-79561862D01*
X171672768Y-79525896D01*
X171646802Y-79511234D01*
X171624427Y-79509352D01*
X171594028Y-79512255D01*
X171581560Y-79527033D01*
X171579176Y-79561862D01*
X171576373Y-79597373D01*
X171563763Y-79611910D01*
X171541668Y-79614372D01*
X171504161Y-79614372D01*
X171504161Y-79436062D01*
X171579176Y-79436062D01*
X171641410Y-79431449D01*
X171692159Y-79420895D01*
X171720099Y-79400580D01*
X171728771Y-79366141D01*
X171710707Y-79338558D01*
X171668960Y-79321065D01*
X171641410Y-79317201D01*
X171579176Y-79312588D01*
X171579176Y-79436062D01*
X171504161Y-79436062D01*
X171504161Y-79239298D01*
X171582926Y-79239382D01*
G37*
G36*
X161623633Y-77298774D02*
G01*
X161718957Y-77330127D01*
X161805410Y-77385635D01*
X161827999Y-77404954D01*
X161905264Y-77490213D01*
X161959881Y-77588069D01*
X161992882Y-77701521D01*
X162005301Y-77833570D01*
X162003747Y-77914929D01*
X161998827Y-77986743D01*
X161990958Y-78040195D01*
X161977155Y-78086929D01*
X161954437Y-78138588D01*
X161938039Y-78171401D01*
X161873703Y-78273580D01*
X161796879Y-78349567D01*
X161704500Y-78401396D01*
X161593499Y-78431097D01*
X161535996Y-78437838D01*
X161474013Y-78437389D01*
X161410149Y-78429041D01*
X161391110Y-78424500D01*
X161276422Y-78378197D01*
X161182205Y-78310176D01*
X161108927Y-78221085D01*
X161057055Y-78111571D01*
X161027056Y-77982281D01*
X161020433Y-77910969D01*
X161022726Y-77766644D01*
X161046410Y-77641678D01*
X161092391Y-77533506D01*
X161161575Y-77439559D01*
X161200406Y-77401342D01*
X161285340Y-77340186D01*
X161379281Y-77303587D01*
X161488467Y-77289294D01*
X161512194Y-77288914D01*
X161623633Y-77298774D01*
G37*
G36*
X171287086Y-79320373D02*
G01*
X171307090Y-79273287D01*
X171366521Y-79187007D01*
X171442916Y-79122262D01*
X171531391Y-79080177D01*
X171627064Y-79061873D01*
X171725048Y-79068474D01*
X171820461Y-79101102D01*
X171883968Y-79140685D01*
X171919993Y-79176134D01*
X171957824Y-79225430D01*
X171977983Y-79257987D01*
X172002940Y-79308785D01*
X172016162Y-79355048D01*
X172020965Y-79410859D01*
X172021265Y-79441838D01*
X172007488Y-79549644D01*
X171967371Y-79643377D01*
X171901774Y-79721638D01*
X171812163Y-79782713D01*
X171752542Y-79803869D01*
X171679398Y-79816437D01*
X171605112Y-79819368D01*
X171542065Y-79811617D01*
X171526665Y-79806854D01*
X171434270Y-79757565D01*
X171360250Y-79689214D01*
X171306562Y-79606558D01*
X171275167Y-79514360D01*
X171268742Y-79427166D01*
X171353818Y-79427166D01*
X171361501Y-79511297D01*
X171392607Y-79588886D01*
X171418505Y-79624550D01*
X171490139Y-79686036D01*
X171572306Y-79722502D01*
X171659596Y-79732556D01*
X171746597Y-79714809D01*
X171755737Y-79711175D01*
X171832318Y-79664988D01*
X171889521Y-79601805D01*
X171926025Y-79527113D01*
X171940508Y-79446397D01*
X171931650Y-79365142D01*
X171898128Y-79288834D01*
X171867028Y-79249177D01*
X171793061Y-79190566D01*
X171710559Y-79158464D01*
X171624560Y-79152620D01*
X171540104Y-79172784D01*
X171462231Y-79218706D01*
X171409545Y-79271934D01*
X171369763Y-79344657D01*
X171353818Y-79427166D01*
X171268742Y-79427166D01*
X171268021Y-79417378D01*
X171287086Y-79320373D01*
G37*
D14*
%TO.C,U1*%
X196088000Y-84084000D02*
X196088000Y-81414000D01*
X152778000Y-94374000D02*
X152778000Y-86494000D01*
X155318000Y-99454000D02*
X198758000Y-99454000D01*
X152778000Y-86494000D02*
X163198000Y-86494000D01*
X163198000Y-94374000D02*
X152778000Y-94374000D01*
X155318000Y-99454000D02*
X155318000Y-94374000D01*
X193548000Y-81414000D02*
X155318000Y-81414000D01*
X157988000Y-84084000D02*
X157988000Y-81414000D01*
X196088000Y-96784000D02*
X157988000Y-96784000D01*
X193548000Y-84084000D02*
X196088000Y-84084000D01*
X157988000Y-96784000D02*
X157988000Y-99454000D01*
X196088000Y-96784000D02*
X196088000Y-99454000D01*
X193548000Y-84084000D02*
X193548000Y-81414000D01*
X198758000Y-99454000D02*
X198758000Y-81414000D01*
X155318000Y-81414000D02*
X155318000Y-86494000D01*
X198758000Y-81414000D02*
X196088000Y-81414000D01*
X163198000Y-86494000D02*
X163198000Y-94374000D01*
X193548000Y-84084000D02*
X157988000Y-84084000D01*
D12*
%TO.C,J1*%
X203723240Y-99595940D02*
X206720440Y-99595940D01*
X202222100Y-96994980D02*
X202222100Y-95343980D01*
X207469740Y-95343980D02*
X208221580Y-95343980D01*
X208221580Y-95343980D02*
X208221580Y-96994980D01*
X202222100Y-95343980D02*
X202973940Y-95343980D01*
D15*
X202862180Y-94696280D02*
G75*
G03*
X202862180Y-94696280I-139700J0D01*
G01*
D14*
%TO.C,U3*%
X204978000Y-82262000D02*
X208628000Y-82262000D01*
X204978000Y-76742000D02*
X202778000Y-76742000D01*
X204978000Y-82262000D02*
X202778000Y-82262000D01*
X204978000Y-76742000D02*
X207178000Y-76742000D01*
%TO.C,U2*%
X194076000Y-74676000D02*
X194076000Y-76626000D01*
X188956000Y-74676000D02*
X188956000Y-78126000D01*
X194076000Y-74676000D02*
X194076000Y-72726000D01*
X188956000Y-74676000D02*
X188956000Y-72726000D01*
%TO.C,R7*%
X206899064Y-72046000D02*
X203844936Y-72046000D01*
X206899064Y-74766000D02*
X203844936Y-74766000D01*
%TO.C,R5*%
X206873064Y-83984000D02*
X203818936Y-83984000D01*
X206873064Y-86704000D02*
X203818936Y-86704000D01*
%TO.C,J5*%
X157130000Y-66362000D02*
X165450000Y-66362000D01*
X165450000Y-59622000D02*
X165450000Y-66362000D01*
X156890000Y-65962000D02*
X156890000Y-66602000D01*
X157130000Y-60742000D02*
X165450000Y-60742000D01*
X156890000Y-66602000D02*
X157290000Y-66602000D01*
X157130000Y-59622000D02*
X157130000Y-66362000D01*
X157130000Y-65842000D02*
X165450000Y-65842000D01*
X157130000Y-59622000D02*
X165450000Y-59622000D01*
%TO.C,J4*%
X170182000Y-66602000D02*
X170582000Y-66602000D01*
X170422000Y-66362000D02*
X176202000Y-66362000D01*
X170422000Y-60742000D02*
X176202000Y-60742000D01*
X170422000Y-59622000D02*
X170422000Y-66362000D01*
X170182000Y-65962000D02*
X170182000Y-66602000D01*
X170422000Y-59622000D02*
X176202000Y-59622000D01*
X170422000Y-65842000D02*
X176202000Y-65842000D01*
X176202000Y-59622000D02*
X176202000Y-66362000D01*
D16*
%TO.C,J3*%
X211259420Y-92422980D02*
X213758780Y-92422980D01*
X211259420Y-88425020D02*
X213758780Y-88425020D01*
X211259420Y-84924900D02*
X213758780Y-84924900D01*
X211259420Y-95923100D02*
X213758780Y-95923100D01*
X213758780Y-92422980D02*
X213758780Y-95923100D01*
X213758780Y-84924900D02*
X213758780Y-88425020D01*
X229260400Y-99423220D02*
X229260400Y-100921820D01*
X228259640Y-99423220D02*
X229260400Y-99423220D01*
X229260400Y-81424780D02*
X229260400Y-79926180D01*
X230258620Y-81424780D02*
X229260400Y-81424780D01*
X228160580Y-99423220D02*
X228160580Y-81424780D01*
X229260400Y-100921820D02*
X230258620Y-100921820D01*
X211259420Y-99423220D02*
X228160580Y-99423220D01*
X211259420Y-95923100D02*
X211259420Y-99423220D01*
X211259420Y-88425020D02*
X211259420Y-92422980D01*
X211259420Y-81424780D02*
X211259420Y-84924900D01*
X228160580Y-81424780D02*
X211259420Y-81424780D01*
X228160580Y-79926180D02*
X228160580Y-81424780D01*
X229260400Y-79926180D02*
X228160580Y-79926180D01*
X230258620Y-100921820D02*
X230258620Y-81424780D01*
%TO.C,J2*%
X230258620Y-81109820D02*
X230258620Y-61612780D01*
X229260400Y-60114180D02*
X228160580Y-60114180D01*
X228160580Y-60114180D02*
X228160580Y-61612780D01*
X228160580Y-61612780D02*
X211259420Y-61612780D01*
X211259420Y-61612780D02*
X211259420Y-65112900D01*
X211259420Y-68613020D02*
X211259420Y-72610980D01*
X211259420Y-76111100D02*
X211259420Y-79611220D01*
X211259420Y-79611220D02*
X228160580Y-79611220D01*
X229260400Y-81109820D02*
X230258620Y-81109820D01*
X228160580Y-79611220D02*
X228160580Y-61612780D01*
X230258620Y-61612780D02*
X229260400Y-61612780D01*
X229260400Y-61612780D02*
X229260400Y-60114180D01*
X228259640Y-79611220D02*
X229260400Y-79611220D01*
X229260400Y-79611220D02*
X229260400Y-81109820D01*
X213758780Y-65112900D02*
X213758780Y-68613020D01*
X213758780Y-72610980D02*
X213758780Y-76111100D01*
X211259420Y-76111100D02*
X213758780Y-76111100D01*
X211259420Y-65112900D02*
X213758780Y-65112900D01*
X211259420Y-68613020D02*
X213758780Y-68613020D01*
X211259420Y-72610980D02*
X213758780Y-72610980D01*
D14*
%TO.C,C1*%
X193054248Y-68553000D02*
X193576752Y-68553000D01*
X193054248Y-67083000D02*
X193576752Y-67083000D01*
%TO.C,J6*%
X182022000Y-66096000D02*
X190342000Y-66096000D01*
X182022000Y-60996000D02*
X190342000Y-60996000D01*
X182022000Y-59876000D02*
X190342000Y-59876000D01*
X182022000Y-66616000D02*
X190342000Y-66616000D01*
X182022000Y-59876000D02*
X182022000Y-66616000D01*
X190342000Y-59876000D02*
X190342000Y-66616000D01*
X181782000Y-66216000D02*
X181782000Y-66856000D01*
X181782000Y-66856000D02*
X182182000Y-66856000D01*
%TD*%
M02*
