M48
; DRILL file {KiCad 6.0.11-2627ca5db0~126~ubuntu22.04.1} date Fri 03 Mar 2023 02:45:37 PM EST
; FORMAT={-:-/ absolute / inch / decimal}
; #@! TF.CreationDate,2023-03-03T14:45:37-05:00
; #@! TF.GenerationSoftware,Kicad,Pcbnew,6.0.11-2627ca5db0~126~ubuntu22.04.1
; #@! TF.FileFunction,Plated,1,4,PTH
FMAT,2
INCH
; #@! TA.AperFunction,Plated,PTH,ViaDrill
T1C0.0157
; #@! TA.AperFunction,Plated,PTH,ComponentDrill
T2C0.0394
; #@! TA.AperFunction,Plated,PTH,ComponentDrill
T3C0.0400
; #@! TA.AperFunction,Plated,PTH,ComponentDrill
T4C0.0433
%
G90
G05
T1
X7.0661Y-2.9067
X7.1476Y-2.9457
X7.1634Y-3.5453
X7.2228Y-3.1291
X7.3002Y-3.5561
X7.3799Y-3.56
X7.4823Y-3.5807
X7.502Y-3.5423
X7.5197Y-3.3224
X7.56Y-3.6693
X7.6102Y-3.4693
X7.6441Y-3.1878
X7.6467Y-3.5315
X7.6732Y-3.3441
X7.7744Y-3.1118
X7.7746Y-3.688
X7.7933Y-3.6093
X7.8425Y-3.2116
X7.8435Y-3.6073
X7.8937Y-3.2618
X7.8957Y-3.6142
X7.9862Y-3.4715
X8.0197Y-3.4183
X8.0679Y-3.6732
X8.0738Y-3.625
X8.0799Y-3.7107
X8.1169Y-3.7242
X8.1217Y-3.7737
X8.1348Y-3.5335
X8.1368Y-3.81
X8.1485Y-2.9056
X8.1713Y-3.6201
X8.1732Y-3.4065
X8.2795Y-3.5492
X8.2957Y-3.7276
X8.3169Y-3.6791
X8.4122Y-2.8665
X8.4242Y-3.1073
X8.4321Y-3.4823
X8.5945Y-2.9783
X8.6014Y-3.3533
X8.6053Y-3.4065
X8.6073Y-3.0295
X8.687Y-3.8043
X8.8673Y-3.7331
T2
X7.0925Y-3.2323
X7.1925Y-3.2323
X7.2925Y-3.2323
X7.3669Y-2.7665
X7.3669Y-2.8665
X7.3669Y-2.9665
X7.3669Y-3.0665
X7.3925Y-3.2323
T3
X8.4181Y-3.6142
X8.5181Y-3.6142
X8.6181Y-3.6142
X8.7181Y-3.6142
X8.8181Y-3.6142
X8.9181Y-3.6142
T4
X8.8465Y-2.5197
X8.8465Y-2.6197
X8.8465Y-2.7197
X8.8474Y-2.8976
X8.8474Y-2.9976
X8.8474Y-3.0976
X8.8474Y-3.2687
X8.8474Y-3.3687
X8.8474Y-3.4687
T0
M30
