%TF.GenerationSoftware,KiCad,Pcbnew,6.0.11-2627ca5db0~126~ubuntu22.04.1*%
%TF.CreationDate,2023-03-03T14:45:42-05:00*%
%TF.ProjectId,lin-flow-sensor,6c696e2d-666c-46f7-972d-73656e736f72,1.0*%
%TF.SameCoordinates,Original*%
%TF.FileFunction,Legend,Top*%
%TF.FilePolarity,Positive*%
%FSLAX46Y46*%
G04 Gerber Fmt 4.6, Leading zero omitted, Abs format (unit mm)*
G04 Created by KiCad (PCBNEW 6.0.11-2627ca5db0~126~ubuntu22.04.1) date 2023-03-03 14:45:42*
%MOMM*%
%LPD*%
G01*
G04 APERTURE LIST*
%ADD10C,0.150000*%
%ADD11C,0.127000*%
%ADD12C,0.101600*%
%ADD13C,0.120000*%
%ADD14C,0.066040*%
%ADD15C,0.010000*%
G04 APERTURE END LIST*
D10*
X178341428Y-91895714D02*
X178579523Y-92562380D01*
X178817619Y-91895714D01*
X179722380Y-92562380D02*
X179150952Y-92562380D01*
X179436666Y-92562380D02*
X179436666Y-91562380D01*
X179341428Y-91705238D01*
X179246190Y-91800476D01*
X179150952Y-91848095D01*
X180150952Y-92467142D02*
X180198571Y-92514761D01*
X180150952Y-92562380D01*
X180103333Y-92514761D01*
X180150952Y-92467142D01*
X180150952Y-92562380D01*
X180817619Y-91562380D02*
X180912857Y-91562380D01*
X181008095Y-91610000D01*
X181055714Y-91657619D01*
X181103333Y-91752857D01*
X181150952Y-91943333D01*
X181150952Y-92181428D01*
X181103333Y-92371904D01*
X181055714Y-92467142D01*
X181008095Y-92514761D01*
X180912857Y-92562380D01*
X180817619Y-92562380D01*
X180722380Y-92514761D01*
X180674761Y-92467142D01*
X180627142Y-92371904D01*
X180579523Y-92181428D01*
X180579523Y-91943333D01*
X180627142Y-91752857D01*
X180674761Y-91657619D01*
X180722380Y-91610000D01*
X180817619Y-91562380D01*
X176358095Y-94322380D02*
X175881904Y-94322380D01*
X175881904Y-93322380D01*
X176691428Y-94322380D02*
X176691428Y-93322380D01*
X177167619Y-94322380D02*
X177167619Y-93322380D01*
X177739047Y-94322380D01*
X177739047Y-93322380D01*
X178548571Y-93798571D02*
X178691428Y-93846190D01*
X178739047Y-93893809D01*
X178786666Y-93989047D01*
X178786666Y-94131904D01*
X178739047Y-94227142D01*
X178691428Y-94274761D01*
X178596190Y-94322380D01*
X178215238Y-94322380D01*
X178215238Y-93322380D01*
X178548571Y-93322380D01*
X178643809Y-93370000D01*
X178691428Y-93417619D01*
X178739047Y-93512857D01*
X178739047Y-93608095D01*
X178691428Y-93703333D01*
X178643809Y-93750952D01*
X178548571Y-93798571D01*
X178215238Y-93798571D01*
X179643809Y-93655714D02*
X179643809Y-94322380D01*
X179215238Y-93655714D02*
X179215238Y-94179523D01*
X179262857Y-94274761D01*
X179358095Y-94322380D01*
X179500952Y-94322380D01*
X179596190Y-94274761D01*
X179643809Y-94227142D01*
X180072380Y-94274761D02*
X180167619Y-94322380D01*
X180358095Y-94322380D01*
X180453333Y-94274761D01*
X180500952Y-94179523D01*
X180500952Y-94131904D01*
X180453333Y-94036666D01*
X180358095Y-93989047D01*
X180215238Y-93989047D01*
X180120000Y-93941428D01*
X180072380Y-93846190D01*
X180072380Y-93798571D01*
X180120000Y-93703333D01*
X180215238Y-93655714D01*
X180358095Y-93655714D01*
X180453333Y-93703333D01*
X182024761Y-93798571D02*
X181691428Y-93798571D01*
X181691428Y-94322380D02*
X181691428Y-93322380D01*
X182167619Y-93322380D01*
X182691428Y-94322380D02*
X182596190Y-94274761D01*
X182548571Y-94179523D01*
X182548571Y-93322380D01*
X183215238Y-94322380D02*
X183120000Y-94274761D01*
X183072380Y-94227142D01*
X183024761Y-94131904D01*
X183024761Y-93846190D01*
X183072380Y-93750952D01*
X183120000Y-93703333D01*
X183215238Y-93655714D01*
X183358095Y-93655714D01*
X183453333Y-93703333D01*
X183500952Y-93750952D01*
X183548571Y-93846190D01*
X183548571Y-94131904D01*
X183500952Y-94227142D01*
X183453333Y-94274761D01*
X183358095Y-94322380D01*
X183215238Y-94322380D01*
X183881904Y-93655714D02*
X184072380Y-94322380D01*
X184262857Y-93846190D01*
X184453333Y-94322380D01*
X184643809Y-93655714D01*
X185739047Y-94274761D02*
X185881904Y-94322380D01*
X186120000Y-94322380D01*
X186215238Y-94274761D01*
X186262857Y-94227142D01*
X186310476Y-94131904D01*
X186310476Y-94036666D01*
X186262857Y-93941428D01*
X186215238Y-93893809D01*
X186120000Y-93846190D01*
X185929523Y-93798571D01*
X185834285Y-93750952D01*
X185786666Y-93703333D01*
X185739047Y-93608095D01*
X185739047Y-93512857D01*
X185786666Y-93417619D01*
X185834285Y-93370000D01*
X185929523Y-93322380D01*
X186167619Y-93322380D01*
X186310476Y-93370000D01*
X187120000Y-94274761D02*
X187024761Y-94322380D01*
X186834285Y-94322380D01*
X186739047Y-94274761D01*
X186691428Y-94179523D01*
X186691428Y-93798571D01*
X186739047Y-93703333D01*
X186834285Y-93655714D01*
X187024761Y-93655714D01*
X187120000Y-93703333D01*
X187167619Y-93798571D01*
X187167619Y-93893809D01*
X186691428Y-93989047D01*
X187596190Y-93655714D02*
X187596190Y-94322380D01*
X187596190Y-93750952D02*
X187643809Y-93703333D01*
X187739047Y-93655714D01*
X187881904Y-93655714D01*
X187977142Y-93703333D01*
X188024761Y-93798571D01*
X188024761Y-94322380D01*
X188453333Y-94274761D02*
X188548571Y-94322380D01*
X188739047Y-94322380D01*
X188834285Y-94274761D01*
X188881904Y-94179523D01*
X188881904Y-94131904D01*
X188834285Y-94036666D01*
X188739047Y-93989047D01*
X188596190Y-93989047D01*
X188500952Y-93941428D01*
X188453333Y-93846190D01*
X188453333Y-93798571D01*
X188500952Y-93703333D01*
X188596190Y-93655714D01*
X188739047Y-93655714D01*
X188834285Y-93703333D01*
X189453333Y-94322380D02*
X189358095Y-94274761D01*
X189310476Y-94227142D01*
X189262857Y-94131904D01*
X189262857Y-93846190D01*
X189310476Y-93750952D01*
X189358095Y-93703333D01*
X189453333Y-93655714D01*
X189596190Y-93655714D01*
X189691428Y-93703333D01*
X189739047Y-93750952D01*
X189786666Y-93846190D01*
X189786666Y-94131904D01*
X189739047Y-94227142D01*
X189691428Y-94274761D01*
X189596190Y-94322380D01*
X189453333Y-94322380D01*
X190215238Y-94322380D02*
X190215238Y-93655714D01*
X190215238Y-93846190D02*
X190262857Y-93750952D01*
X190310476Y-93703333D01*
X190405714Y-93655714D01*
X190500952Y-93655714D01*
X220027380Y-70509523D02*
X220027380Y-70985714D01*
X219027380Y-70985714D01*
X220027380Y-70176190D02*
X219027380Y-70176190D01*
X220027380Y-69700000D02*
X219027380Y-69700000D01*
X220027380Y-69128571D01*
X219027380Y-69128571D01*
X219503571Y-68319047D02*
X219551190Y-68176190D01*
X219598809Y-68128571D01*
X219694047Y-68080952D01*
X219836904Y-68080952D01*
X219932142Y-68128571D01*
X219979761Y-68176190D01*
X220027380Y-68271428D01*
X220027380Y-68652380D01*
X219027380Y-68652380D01*
X219027380Y-68319047D01*
X219075000Y-68223809D01*
X219122619Y-68176190D01*
X219217857Y-68128571D01*
X219313095Y-68128571D01*
X219408333Y-68176190D01*
X219455952Y-68223809D01*
X219503571Y-68319047D01*
X219503571Y-68652380D01*
X219360714Y-67223809D02*
X220027380Y-67223809D01*
X219360714Y-67652380D02*
X219884523Y-67652380D01*
X219979761Y-67604761D01*
X220027380Y-67509523D01*
X220027380Y-67366666D01*
X219979761Y-67271428D01*
X219932142Y-67223809D01*
X219979761Y-66795238D02*
X220027380Y-66700000D01*
X220027380Y-66509523D01*
X219979761Y-66414285D01*
X219884523Y-66366666D01*
X219836904Y-66366666D01*
X219741666Y-66414285D01*
X219694047Y-66509523D01*
X219694047Y-66652380D01*
X219646428Y-66747619D01*
X219551190Y-66795238D01*
X219503571Y-66795238D01*
X219408333Y-66747619D01*
X219360714Y-66652380D01*
X219360714Y-66509523D01*
X219408333Y-66414285D01*
X181488095Y-85202380D02*
X181488095Y-84202380D01*
X181916666Y-84297619D02*
X181964285Y-84250000D01*
X182059523Y-84202380D01*
X182297619Y-84202380D01*
X182392857Y-84250000D01*
X182440476Y-84297619D01*
X182488095Y-84392857D01*
X182488095Y-84488095D01*
X182440476Y-84630952D01*
X181869047Y-85202380D01*
X182488095Y-85202380D01*
X183488095Y-85107142D02*
X183440476Y-85154761D01*
X183297619Y-85202380D01*
X183202380Y-85202380D01*
X183059523Y-85154761D01*
X182964285Y-85059523D01*
X182916666Y-84964285D01*
X182869047Y-84773809D01*
X182869047Y-84630952D01*
X182916666Y-84440476D01*
X182964285Y-84345238D01*
X183059523Y-84250000D01*
X183202380Y-84202380D01*
X183297619Y-84202380D01*
X183440476Y-84250000D01*
X183488095Y-84297619D01*
X185154761Y-85202380D02*
X184678571Y-85202380D01*
X184678571Y-84202380D01*
X186059523Y-85107142D02*
X186011904Y-85154761D01*
X185869047Y-85202380D01*
X185773809Y-85202380D01*
X185630952Y-85154761D01*
X185535714Y-85059523D01*
X185488095Y-84964285D01*
X185440476Y-84773809D01*
X185440476Y-84630952D01*
X185488095Y-84440476D01*
X185535714Y-84345238D01*
X185630952Y-84250000D01*
X185773809Y-84202380D01*
X185869047Y-84202380D01*
X186011904Y-84250000D01*
X186059523Y-84297619D01*
X186488095Y-85202380D02*
X186488095Y-84202380D01*
X186726190Y-84202380D01*
X186869047Y-84250000D01*
X186964285Y-84345238D01*
X187011904Y-84440476D01*
X187059523Y-84630952D01*
X187059523Y-84773809D01*
X187011904Y-84964285D01*
X186964285Y-85059523D01*
X186869047Y-85154761D01*
X186726190Y-85202380D01*
X186488095Y-85202380D01*
X176229047Y-96673333D02*
X176181428Y-96625714D01*
X176086190Y-96482857D01*
X176038571Y-96387619D01*
X175990952Y-96244761D01*
X175943333Y-96006666D01*
X175943333Y-95816190D01*
X175990952Y-95578095D01*
X176038571Y-95435238D01*
X176086190Y-95340000D01*
X176181428Y-95197142D01*
X176229047Y-95149523D01*
X177038571Y-96244761D02*
X176943333Y-96292380D01*
X176752857Y-96292380D01*
X176657619Y-96244761D01*
X176610000Y-96197142D01*
X176562380Y-96101904D01*
X176562380Y-95816190D01*
X176610000Y-95720952D01*
X176657619Y-95673333D01*
X176752857Y-95625714D01*
X176943333Y-95625714D01*
X177038571Y-95673333D01*
X177371904Y-96673333D02*
X177419523Y-96625714D01*
X177514761Y-96482857D01*
X177562380Y-96387619D01*
X177610000Y-96244761D01*
X177657619Y-96006666D01*
X177657619Y-95816190D01*
X177610000Y-95578095D01*
X177562380Y-95435238D01*
X177514761Y-95340000D01*
X177419523Y-95197142D01*
X177371904Y-95149523D01*
X178848095Y-95387619D02*
X178895714Y-95340000D01*
X178990952Y-95292380D01*
X179229047Y-95292380D01*
X179324285Y-95340000D01*
X179371904Y-95387619D01*
X179419523Y-95482857D01*
X179419523Y-95578095D01*
X179371904Y-95720952D01*
X178800476Y-96292380D01*
X179419523Y-96292380D01*
X180038571Y-95292380D02*
X180133809Y-95292380D01*
X180229047Y-95340000D01*
X180276666Y-95387619D01*
X180324285Y-95482857D01*
X180371904Y-95673333D01*
X180371904Y-95911428D01*
X180324285Y-96101904D01*
X180276666Y-96197142D01*
X180229047Y-96244761D01*
X180133809Y-96292380D01*
X180038571Y-96292380D01*
X179943333Y-96244761D01*
X179895714Y-96197142D01*
X179848095Y-96101904D01*
X179800476Y-95911428D01*
X179800476Y-95673333D01*
X179848095Y-95482857D01*
X179895714Y-95387619D01*
X179943333Y-95340000D01*
X180038571Y-95292380D01*
X180752857Y-95387619D02*
X180800476Y-95340000D01*
X180895714Y-95292380D01*
X181133809Y-95292380D01*
X181229047Y-95340000D01*
X181276666Y-95387619D01*
X181324285Y-95482857D01*
X181324285Y-95578095D01*
X181276666Y-95720952D01*
X180705238Y-96292380D01*
X181324285Y-96292380D01*
X181657619Y-95292380D02*
X182276666Y-95292380D01*
X181943333Y-95673333D01*
X182086190Y-95673333D01*
X182181428Y-95720952D01*
X182229047Y-95768571D01*
X182276666Y-95863809D01*
X182276666Y-96101904D01*
X182229047Y-96197142D01*
X182181428Y-96244761D01*
X182086190Y-96292380D01*
X181800476Y-96292380D01*
X181705238Y-96244761D01*
X181657619Y-96197142D01*
X183990952Y-95340000D02*
X183895714Y-95292380D01*
X183752857Y-95292380D01*
X183610000Y-95340000D01*
X183514761Y-95435238D01*
X183467142Y-95530476D01*
X183419523Y-95720952D01*
X183419523Y-95863809D01*
X183467142Y-96054285D01*
X183514761Y-96149523D01*
X183610000Y-96244761D01*
X183752857Y-96292380D01*
X183848095Y-96292380D01*
X183990952Y-96244761D01*
X184038571Y-96197142D01*
X184038571Y-95863809D01*
X183848095Y-95863809D01*
X184895714Y-96292380D02*
X184895714Y-95768571D01*
X184848095Y-95673333D01*
X184752857Y-95625714D01*
X184562380Y-95625714D01*
X184467142Y-95673333D01*
X184895714Y-96244761D02*
X184800476Y-96292380D01*
X184562380Y-96292380D01*
X184467142Y-96244761D01*
X184419523Y-96149523D01*
X184419523Y-96054285D01*
X184467142Y-95959047D01*
X184562380Y-95911428D01*
X184800476Y-95911428D01*
X184895714Y-95863809D01*
X185276666Y-95625714D02*
X185514761Y-96292380D01*
X185752857Y-95625714D01*
X186133809Y-96292380D02*
X186133809Y-95625714D01*
X186133809Y-95292380D02*
X186086190Y-95340000D01*
X186133809Y-95387619D01*
X186181428Y-95340000D01*
X186133809Y-95292380D01*
X186133809Y-95387619D01*
X186610000Y-95625714D02*
X186610000Y-96292380D01*
X186610000Y-95720952D02*
X186657619Y-95673333D01*
X186752857Y-95625714D01*
X186895714Y-95625714D01*
X186990952Y-95673333D01*
X187038571Y-95768571D01*
X187038571Y-96292380D01*
X188276666Y-96292380D02*
X188276666Y-95292380D01*
X188276666Y-95768571D02*
X188848095Y-95768571D01*
X188848095Y-96292380D02*
X188848095Y-95292380D01*
X189752857Y-95625714D02*
X189752857Y-96292380D01*
X189324285Y-95625714D02*
X189324285Y-96149523D01*
X189371904Y-96244761D01*
X189467142Y-96292380D01*
X189610000Y-96292380D01*
X189705238Y-96244761D01*
X189752857Y-96197142D01*
X190229047Y-96292380D02*
X190229047Y-95625714D01*
X190229047Y-95816190D02*
X190276666Y-95720952D01*
X190324285Y-95673333D01*
X190419523Y-95625714D01*
X190514761Y-95625714D01*
X190990952Y-96292380D02*
X190895714Y-96244761D01*
X190848095Y-96149523D01*
X190848095Y-95292380D01*
X191371904Y-96292380D02*
X191371904Y-95292380D01*
X191371904Y-95673333D02*
X191467142Y-95625714D01*
X191657619Y-95625714D01*
X191752857Y-95673333D01*
X191800476Y-95720952D01*
X191848095Y-95816190D01*
X191848095Y-96101904D01*
X191800476Y-96197142D01*
X191752857Y-96244761D01*
X191657619Y-96292380D01*
X191467142Y-96292380D01*
X191371904Y-96244761D01*
X192705238Y-95625714D02*
X192705238Y-96292380D01*
X192276666Y-95625714D02*
X192276666Y-96149523D01*
X192324285Y-96244761D01*
X192419523Y-96292380D01*
X192562380Y-96292380D01*
X192657619Y-96244761D01*
X192705238Y-96197142D01*
X193038571Y-95625714D02*
X193419523Y-95625714D01*
X193181428Y-95292380D02*
X193181428Y-96149523D01*
X193229047Y-96244761D01*
X193324285Y-96292380D01*
X193419523Y-96292380D01*
%TO.C,J5*%
X228547380Y-85898333D02*
X229261666Y-85898333D01*
X229404523Y-85945952D01*
X229499761Y-86041190D01*
X229547380Y-86184047D01*
X229547380Y-86279285D01*
X228547380Y-84945952D02*
X228547380Y-85422142D01*
X229023571Y-85469761D01*
X228975952Y-85422142D01*
X228928333Y-85326904D01*
X228928333Y-85088809D01*
X228975952Y-84993571D01*
X229023571Y-84945952D01*
X229118809Y-84898333D01*
X229356904Y-84898333D01*
X229452142Y-84945952D01*
X229499761Y-84993571D01*
X229547380Y-85088809D01*
X229547380Y-85326904D01*
X229499761Y-85422142D01*
X229452142Y-85469761D01*
X220028571Y-87127380D02*
X220028571Y-87460714D01*
X220552380Y-87460714D02*
X219552380Y-87460714D01*
X219552380Y-86984523D01*
X220552380Y-86460714D02*
X220504761Y-86555952D01*
X220409523Y-86603571D01*
X219552380Y-86603571D01*
X220552380Y-85936904D02*
X220504761Y-86032142D01*
X220457142Y-86079761D01*
X220361904Y-86127380D01*
X220076190Y-86127380D01*
X219980952Y-86079761D01*
X219933333Y-86032142D01*
X219885714Y-85936904D01*
X219885714Y-85794047D01*
X219933333Y-85698809D01*
X219980952Y-85651190D01*
X220076190Y-85603571D01*
X220361904Y-85603571D01*
X220457142Y-85651190D01*
X220504761Y-85698809D01*
X220552380Y-85794047D01*
X220552380Y-85936904D01*
X219885714Y-85270238D02*
X220552380Y-85079761D01*
X220076190Y-84889285D01*
X220552380Y-84698809D01*
X219885714Y-84508333D01*
X219647619Y-83413095D02*
X219600000Y-83365476D01*
X219552380Y-83270238D01*
X219552380Y-83032142D01*
X219600000Y-82936904D01*
X219647619Y-82889285D01*
X219742857Y-82841666D01*
X219838095Y-82841666D01*
X219980952Y-82889285D01*
X220552380Y-83460714D01*
X220552380Y-82841666D01*
D11*
%TO.C,J1*%
X227824523Y-95613333D02*
X228731666Y-95613333D01*
X228913095Y-95673809D01*
X229034047Y-95794761D01*
X229094523Y-95976190D01*
X229094523Y-96097142D01*
X229094523Y-94343333D02*
X229094523Y-95069047D01*
X229094523Y-94706190D02*
X227824523Y-94706190D01*
X228005952Y-94827142D01*
X228126904Y-94948095D01*
X228187380Y-95069047D01*
D12*
X218056961Y-88285123D02*
X218056961Y-89313219D01*
X218117438Y-89434171D01*
X218177914Y-89494647D01*
X218298866Y-89555123D01*
X218540771Y-89555123D01*
X218661723Y-89494647D01*
X218722200Y-89434171D01*
X218782676Y-89313219D01*
X218782676Y-88285123D01*
X219387438Y-89555123D02*
X219387438Y-88285123D01*
X219871247Y-88285123D01*
X219992200Y-88345600D01*
X220052676Y-88406076D01*
X220113152Y-88527028D01*
X220113152Y-88708457D01*
X220052676Y-88829409D01*
X219992200Y-88889885D01*
X219871247Y-88950361D01*
X219387438Y-88950361D01*
X220657438Y-89555123D02*
X220657438Y-88285123D01*
X220959819Y-88285123D01*
X221141247Y-88345600D01*
X221262200Y-88466552D01*
X221322676Y-88587504D01*
X221383152Y-88829409D01*
X221383152Y-89010838D01*
X221322676Y-89252742D01*
X221262200Y-89373695D01*
X221141247Y-89494647D01*
X220959819Y-89555123D01*
X220657438Y-89555123D01*
X221927438Y-89555123D02*
X221927438Y-88285123D01*
D10*
X213294600Y-95609904D02*
X213246980Y-95705142D01*
X213246980Y-95848000D01*
X213294600Y-95990857D01*
X213389838Y-96086095D01*
X213485076Y-96133714D01*
X213675552Y-96181333D01*
X213818409Y-96181333D01*
X214008885Y-96133714D01*
X214104123Y-96086095D01*
X214199361Y-95990857D01*
X214246980Y-95848000D01*
X214246980Y-95752761D01*
X214199361Y-95609904D01*
X214151742Y-95562285D01*
X213818409Y-95562285D01*
X213818409Y-95752761D01*
X214246980Y-95133714D02*
X213246980Y-95133714D01*
X214246980Y-94562285D01*
X213246980Y-94562285D01*
X214246980Y-94086095D02*
X213246980Y-94086095D01*
X213246980Y-93848000D01*
X213294600Y-93705142D01*
X213389838Y-93609904D01*
X213485076Y-93562285D01*
X213675552Y-93514666D01*
X213818409Y-93514666D01*
X214008885Y-93562285D01*
X214104123Y-93609904D01*
X214199361Y-93705142D01*
X214246980Y-93848000D01*
X214246980Y-94086095D01*
X220917780Y-96160704D02*
X220917780Y-95589276D01*
X221917780Y-95874990D02*
X220917780Y-95874990D01*
X220917780Y-95351180D02*
X221917780Y-94684514D01*
X220917780Y-94684514D02*
X221917780Y-95351180D01*
X221917780Y-94303561D02*
X220917780Y-94303561D01*
X220917780Y-94065466D01*
X220965400Y-93922609D01*
X221060638Y-93827371D01*
X221155876Y-93779752D01*
X221346352Y-93732133D01*
X221489209Y-93732133D01*
X221679685Y-93779752D01*
X221774923Y-93827371D01*
X221870161Y-93922609D01*
X221917780Y-94065466D01*
X221917780Y-94303561D01*
X224457780Y-95616266D02*
X223981590Y-95949600D01*
X224457780Y-96187695D02*
X223457780Y-96187695D01*
X223457780Y-95806742D01*
X223505400Y-95711504D01*
X223553019Y-95663885D01*
X223648257Y-95616266D01*
X223791114Y-95616266D01*
X223886352Y-95663885D01*
X223933971Y-95711504D01*
X223981590Y-95806742D01*
X223981590Y-96187695D01*
X223457780Y-95282933D02*
X224457780Y-94616266D01*
X223457780Y-94616266D02*
X224457780Y-95282933D01*
X224457780Y-94235314D02*
X223457780Y-94235314D01*
X223457780Y-93997219D01*
X223505400Y-93854361D01*
X223600638Y-93759123D01*
X223695876Y-93711504D01*
X223886352Y-93663885D01*
X224029209Y-93663885D01*
X224219685Y-93711504D01*
X224314923Y-93759123D01*
X224410161Y-93854361D01*
X224457780Y-93997219D01*
X224457780Y-94235314D01*
D12*
X228405000Y-93097619D02*
X228344523Y-93218571D01*
X228344523Y-93400000D01*
X228405000Y-93581428D01*
X228525952Y-93702380D01*
X228646904Y-93762857D01*
X228888809Y-93823333D01*
X229070238Y-93823333D01*
X229312142Y-93762857D01*
X229433095Y-93702380D01*
X229554047Y-93581428D01*
X229614523Y-93400000D01*
X229614523Y-93279047D01*
X229554047Y-93097619D01*
X229493571Y-93037142D01*
X229070238Y-93037142D01*
X229070238Y-93279047D01*
X229614523Y-91767142D02*
X229009761Y-92190476D01*
X229614523Y-92492857D02*
X228344523Y-92492857D01*
X228344523Y-92009047D01*
X228405000Y-91888095D01*
X228465476Y-91827619D01*
X228586428Y-91767142D01*
X228767857Y-91767142D01*
X228888809Y-91827619D01*
X228949285Y-91888095D01*
X229009761Y-92009047D01*
X229009761Y-92492857D01*
X229614523Y-91222857D02*
X228344523Y-91222857D01*
X229614523Y-90497142D01*
X228344523Y-90497142D01*
X211509285Y-92448333D02*
X211569761Y-92266904D01*
X211630238Y-92206428D01*
X211751190Y-92145952D01*
X211932619Y-92145952D01*
X212053571Y-92206428D01*
X212114047Y-92266904D01*
X212174523Y-92387857D01*
X212174523Y-92871666D01*
X210904523Y-92871666D01*
X210904523Y-92448333D01*
X210965000Y-92327380D01*
X211025476Y-92266904D01*
X211146428Y-92206428D01*
X211267380Y-92206428D01*
X211388333Y-92266904D01*
X211448809Y-92327380D01*
X211509285Y-92448333D01*
X211509285Y-92871666D01*
X212174523Y-90996904D02*
X212174523Y-91601666D01*
X210904523Y-91601666D01*
X212174523Y-90573571D02*
X210904523Y-90573571D01*
X212174523Y-89847857D02*
X211448809Y-90392142D01*
X210904523Y-89847857D02*
X211630238Y-90573571D01*
D10*
X218276180Y-96181333D02*
X219276180Y-95848000D01*
X218276180Y-95514666D01*
X219180942Y-94609904D02*
X219228561Y-94657523D01*
X219276180Y-94800380D01*
X219276180Y-94895619D01*
X219228561Y-95038476D01*
X219133323Y-95133714D01*
X219038085Y-95181333D01*
X218847609Y-95228952D01*
X218704752Y-95228952D01*
X218514276Y-95181333D01*
X218419038Y-95133714D01*
X218323800Y-95038476D01*
X218276180Y-94895619D01*
X218276180Y-94800380D01*
X218323800Y-94657523D01*
X218371419Y-94609904D01*
X219180942Y-93609904D02*
X219228561Y-93657523D01*
X219276180Y-93800380D01*
X219276180Y-93895619D01*
X219228561Y-94038476D01*
X219133323Y-94133714D01*
X219038085Y-94181333D01*
X218847609Y-94228952D01*
X218704752Y-94228952D01*
X218514276Y-94181333D01*
X218419038Y-94133714D01*
X218323800Y-94038476D01*
X218276180Y-93895619D01*
X218276180Y-93800380D01*
X218323800Y-93657523D01*
X218371419Y-93609904D01*
X216717142Y-95294019D02*
X216764761Y-95341638D01*
X216812380Y-95484495D01*
X216812380Y-95579733D01*
X216764761Y-95722590D01*
X216669523Y-95817828D01*
X216574285Y-95865447D01*
X216383809Y-95913066D01*
X216240952Y-95913066D01*
X216050476Y-95865447D01*
X215955238Y-95817828D01*
X215860000Y-95722590D01*
X215812380Y-95579733D01*
X215812380Y-95484495D01*
X215860000Y-95341638D01*
X215907619Y-95294019D01*
X215812380Y-95008304D02*
X215812380Y-94436876D01*
X216812380Y-94722590D02*
X215812380Y-94722590D01*
X216764761Y-94151161D02*
X216812380Y-94008304D01*
X216812380Y-93770209D01*
X216764761Y-93674971D01*
X216717142Y-93627352D01*
X216621904Y-93579733D01*
X216526666Y-93579733D01*
X216431428Y-93627352D01*
X216383809Y-93674971D01*
X216336190Y-93770209D01*
X216288571Y-93960685D01*
X216240952Y-94055923D01*
X216193333Y-94103542D01*
X216098095Y-94151161D01*
X216002857Y-94151161D01*
X215907619Y-94103542D01*
X215860000Y-94055923D01*
X215812380Y-93960685D01*
X215812380Y-93722590D01*
X215860000Y-93579733D01*
X226972380Y-96016257D02*
X225972380Y-96016257D01*
X225972380Y-95778161D01*
X226020000Y-95635304D01*
X226115238Y-95540066D01*
X226210476Y-95492447D01*
X226400952Y-95444828D01*
X226543809Y-95444828D01*
X226734285Y-95492447D01*
X226829523Y-95540066D01*
X226924761Y-95635304D01*
X226972380Y-95778161D01*
X226972380Y-96016257D01*
X225972380Y-95159114D02*
X225972380Y-94587685D01*
X226972380Y-94873400D02*
X225972380Y-94873400D01*
X226972380Y-93682923D02*
X226496190Y-94016257D01*
X226972380Y-94254352D02*
X225972380Y-94254352D01*
X225972380Y-93873400D01*
X226020000Y-93778161D01*
X226067619Y-93730542D01*
X226162857Y-93682923D01*
X226305714Y-93682923D01*
X226400952Y-93730542D01*
X226448571Y-93778161D01*
X226496190Y-93873400D01*
X226496190Y-94254352D01*
%TO.C,J3*%
X228522380Y-66873333D02*
X229236666Y-66873333D01*
X229379523Y-66920952D01*
X229474761Y-67016190D01*
X229522380Y-67159047D01*
X229522380Y-67254285D01*
X228522380Y-66492380D02*
X228522380Y-65873333D01*
X228903333Y-66206666D01*
X228903333Y-66063809D01*
X228950952Y-65968571D01*
X228998571Y-65920952D01*
X229093809Y-65873333D01*
X229331904Y-65873333D01*
X229427142Y-65920952D01*
X229474761Y-65968571D01*
X229522380Y-66063809D01*
X229522380Y-66349523D01*
X229474761Y-66444761D01*
X229427142Y-66492380D01*
%TO.C,U4*%
X189732380Y-82669404D02*
X190541904Y-82669404D01*
X190637142Y-82621785D01*
X190684761Y-82574166D01*
X190732380Y-82478928D01*
X190732380Y-82288452D01*
X190684761Y-82193214D01*
X190637142Y-82145595D01*
X190541904Y-82097976D01*
X189732380Y-82097976D01*
X190065714Y-81193214D02*
X190732380Y-81193214D01*
X189684761Y-81431309D02*
X190399047Y-81669404D01*
X190399047Y-81050357D01*
%TO.C,U3*%
X186308095Y-66892380D02*
X186308095Y-67701904D01*
X186355714Y-67797142D01*
X186403333Y-67844761D01*
X186498571Y-67892380D01*
X186689047Y-67892380D01*
X186784285Y-67844761D01*
X186831904Y-67797142D01*
X186879523Y-67701904D01*
X186879523Y-66892380D01*
X187260476Y-66892380D02*
X187879523Y-66892380D01*
X187546190Y-67273333D01*
X187689047Y-67273333D01*
X187784285Y-67320952D01*
X187831904Y-67368571D01*
X187879523Y-67463809D01*
X187879523Y-67701904D01*
X187831904Y-67797142D01*
X187784285Y-67844761D01*
X187689047Y-67892380D01*
X187403333Y-67892380D01*
X187308095Y-67844761D01*
X187260476Y-67797142D01*
X189063692Y-66797180D02*
X189397026Y-67797180D01*
X189730359Y-66797180D01*
X190206550Y-67797180D02*
X190111311Y-67749561D01*
X190063692Y-67701942D01*
X190016073Y-67606704D01*
X190016073Y-67320990D01*
X190063692Y-67225752D01*
X190111311Y-67178133D01*
X190206550Y-67130514D01*
X190349407Y-67130514D01*
X190444645Y-67178133D01*
X190492264Y-67225752D01*
X190539883Y-67320990D01*
X190539883Y-67606704D01*
X190492264Y-67701942D01*
X190444645Y-67749561D01*
X190349407Y-67797180D01*
X190206550Y-67797180D01*
X191111311Y-67797180D02*
X191016073Y-67749561D01*
X190968454Y-67654323D01*
X190968454Y-66797180D01*
X191349407Y-67130514D02*
X191730359Y-67130514D01*
X191492264Y-66797180D02*
X191492264Y-67654323D01*
X191539883Y-67749561D01*
X191635121Y-67797180D01*
X191730359Y-67797180D01*
X192492264Y-67797180D02*
X192492264Y-67273371D01*
X192444645Y-67178133D01*
X192349407Y-67130514D01*
X192158930Y-67130514D01*
X192063692Y-67178133D01*
X192492264Y-67749561D02*
X192397026Y-67797180D01*
X192158930Y-67797180D01*
X192063692Y-67749561D01*
X192016073Y-67654323D01*
X192016073Y-67559085D01*
X192063692Y-67463847D01*
X192158930Y-67416228D01*
X192397026Y-67416228D01*
X192492264Y-67368609D01*
X193397026Y-67130514D02*
X193397026Y-67940038D01*
X193349407Y-68035276D01*
X193301788Y-68082895D01*
X193206550Y-68130514D01*
X193063692Y-68130514D01*
X192968454Y-68082895D01*
X193397026Y-67749561D02*
X193301788Y-67797180D01*
X193111311Y-67797180D01*
X193016073Y-67749561D01*
X192968454Y-67701942D01*
X192920835Y-67606704D01*
X192920835Y-67320990D01*
X192968454Y-67225752D01*
X193016073Y-67178133D01*
X193111311Y-67130514D01*
X193301788Y-67130514D01*
X193397026Y-67178133D01*
X194254169Y-67749561D02*
X194158930Y-67797180D01*
X193968454Y-67797180D01*
X193873216Y-67749561D01*
X193825597Y-67654323D01*
X193825597Y-67273371D01*
X193873216Y-67178133D01*
X193968454Y-67130514D01*
X194158930Y-67130514D01*
X194254169Y-67178133D01*
X194301788Y-67273371D01*
X194301788Y-67368609D01*
X193825597Y-67463847D01*
X196063692Y-67797180D02*
X195730359Y-67320990D01*
X195492264Y-67797180D02*
X195492264Y-66797180D01*
X195873216Y-66797180D01*
X195968454Y-66844800D01*
X196016073Y-66892419D01*
X196063692Y-66987657D01*
X196063692Y-67130514D01*
X196016073Y-67225752D01*
X195968454Y-67273371D01*
X195873216Y-67320990D01*
X195492264Y-67320990D01*
X196873216Y-67749561D02*
X196777978Y-67797180D01*
X196587502Y-67797180D01*
X196492264Y-67749561D01*
X196444645Y-67654323D01*
X196444645Y-67273371D01*
X196492264Y-67178133D01*
X196587502Y-67130514D01*
X196777978Y-67130514D01*
X196873216Y-67178133D01*
X196920835Y-67273371D01*
X196920835Y-67368609D01*
X196444645Y-67463847D01*
X197777978Y-67130514D02*
X197777978Y-67940038D01*
X197730359Y-68035276D01*
X197682740Y-68082895D01*
X197587502Y-68130514D01*
X197444645Y-68130514D01*
X197349407Y-68082895D01*
X197777978Y-67749561D02*
X197682740Y-67797180D01*
X197492264Y-67797180D01*
X197397026Y-67749561D01*
X197349407Y-67701942D01*
X197301788Y-67606704D01*
X197301788Y-67320990D01*
X197349407Y-67225752D01*
X197397026Y-67178133D01*
X197492264Y-67130514D01*
X197682740Y-67130514D01*
X197777978Y-67178133D01*
X198682740Y-67130514D02*
X198682740Y-67797180D01*
X198254169Y-67130514D02*
X198254169Y-67654323D01*
X198301788Y-67749561D01*
X198397026Y-67797180D01*
X198539883Y-67797180D01*
X198635121Y-67749561D01*
X198682740Y-67701942D01*
X199301788Y-67797180D02*
X199206550Y-67749561D01*
X199158930Y-67654323D01*
X199158930Y-66797180D01*
X200111311Y-67797180D02*
X200111311Y-67273371D01*
X200063692Y-67178133D01*
X199968454Y-67130514D01*
X199777978Y-67130514D01*
X199682740Y-67178133D01*
X200111311Y-67749561D02*
X200016073Y-67797180D01*
X199777978Y-67797180D01*
X199682740Y-67749561D01*
X199635121Y-67654323D01*
X199635121Y-67559085D01*
X199682740Y-67463847D01*
X199777978Y-67416228D01*
X200016073Y-67416228D01*
X200111311Y-67368609D01*
X200444645Y-67130514D02*
X200825597Y-67130514D01*
X200587502Y-66797180D02*
X200587502Y-67654323D01*
X200635121Y-67749561D01*
X200730359Y-67797180D01*
X200825597Y-67797180D01*
X201301788Y-67797180D02*
X201206550Y-67749561D01*
X201158930Y-67701942D01*
X201111311Y-67606704D01*
X201111311Y-67320990D01*
X201158930Y-67225752D01*
X201206550Y-67178133D01*
X201301788Y-67130514D01*
X201444645Y-67130514D01*
X201539883Y-67178133D01*
X201587502Y-67225752D01*
X201635121Y-67320990D01*
X201635121Y-67606704D01*
X201587502Y-67701942D01*
X201539883Y-67749561D01*
X201444645Y-67797180D01*
X201301788Y-67797180D01*
X202063692Y-67797180D02*
X202063692Y-67130514D01*
X202063692Y-67320990D02*
X202111311Y-67225752D01*
X202158930Y-67178133D01*
X202254169Y-67130514D01*
X202349407Y-67130514D01*
X183495240Y-72017380D02*
X183828573Y-73017380D01*
X184161907Y-72017380D01*
X184495240Y-73017380D02*
X184495240Y-72350714D01*
X184495240Y-72017380D02*
X184447621Y-72065000D01*
X184495240Y-72112619D01*
X184542859Y-72065000D01*
X184495240Y-72017380D01*
X184495240Y-72112619D01*
X184971430Y-72350714D02*
X184971430Y-73017380D01*
X184971430Y-72445952D02*
X185019050Y-72398333D01*
X185114288Y-72350714D01*
X185257145Y-72350714D01*
X185352383Y-72398333D01*
X185400002Y-72493571D01*
X185400002Y-73017380D01*
X182595240Y-77267380D02*
X182928573Y-78267380D01*
X183261907Y-77267380D01*
X183738097Y-78267380D02*
X183642859Y-78219761D01*
X183595240Y-78172142D01*
X183547621Y-78076904D01*
X183547621Y-77791190D01*
X183595240Y-77695952D01*
X183642859Y-77648333D01*
X183738097Y-77600714D01*
X183880954Y-77600714D01*
X183976192Y-77648333D01*
X184023811Y-77695952D01*
X184071430Y-77791190D01*
X184071430Y-78076904D01*
X184023811Y-78172142D01*
X183976192Y-78219761D01*
X183880954Y-78267380D01*
X183738097Y-78267380D01*
X184928573Y-77600714D02*
X184928573Y-78267380D01*
X184500002Y-77600714D02*
X184500002Y-78124523D01*
X184547621Y-78219761D01*
X184642859Y-78267380D01*
X184785716Y-78267380D01*
X184880954Y-78219761D01*
X184928573Y-78172142D01*
X185261907Y-77600714D02*
X185642859Y-77600714D01*
X185404764Y-77267380D02*
X185404764Y-78124523D01*
X185452383Y-78219761D01*
X185547621Y-78267380D01*
X185642859Y-78267380D01*
X183463845Y-74820400D02*
X183368607Y-74772780D01*
X183225750Y-74772780D01*
X183082892Y-74820400D01*
X182987654Y-74915638D01*
X182940035Y-75010876D01*
X182892416Y-75201352D01*
X182892416Y-75344209D01*
X182940035Y-75534685D01*
X182987654Y-75629923D01*
X183082892Y-75725161D01*
X183225750Y-75772780D01*
X183320988Y-75772780D01*
X183463845Y-75725161D01*
X183511464Y-75677542D01*
X183511464Y-75344209D01*
X183320988Y-75344209D01*
X183940035Y-75772780D02*
X183940035Y-74772780D01*
X184511464Y-75772780D01*
X184511464Y-74772780D01*
X184987654Y-75772780D02*
X184987654Y-74772780D01*
X185225750Y-74772780D01*
X185368607Y-74820400D01*
X185463845Y-74915638D01*
X185511464Y-75010876D01*
X185559083Y-75201352D01*
X185559083Y-75344209D01*
X185511464Y-75534685D01*
X185463845Y-75629923D01*
X185368607Y-75725161D01*
X185225750Y-75772780D01*
X184987654Y-75772780D01*
X183944854Y-69991171D02*
X184278188Y-69991171D01*
X184421045Y-70514980D02*
X183944854Y-70514980D01*
X183944854Y-69514980D01*
X184421045Y-69514980D01*
X184849616Y-70514980D02*
X184849616Y-69514980D01*
X185421045Y-70514980D01*
X185421045Y-69514980D01*
%TO.C,F1*%
X216846666Y-66708571D02*
X216513333Y-66708571D01*
X216513333Y-67232380D02*
X216513333Y-66232380D01*
X216989523Y-66232380D01*
X217894285Y-67232380D02*
X217322857Y-67232380D01*
X217608571Y-67232380D02*
X217608571Y-66232380D01*
X217513333Y-66375238D01*
X217418095Y-66470476D01*
X217322857Y-66518095D01*
%TO.C,C7*%
X195353333Y-83207142D02*
X195305714Y-83254761D01*
X195162857Y-83302380D01*
X195067619Y-83302380D01*
X194924761Y-83254761D01*
X194829523Y-83159523D01*
X194781904Y-83064285D01*
X194734285Y-82873809D01*
X194734285Y-82730952D01*
X194781904Y-82540476D01*
X194829523Y-82445238D01*
X194924761Y-82350000D01*
X195067619Y-82302380D01*
X195162857Y-82302380D01*
X195305714Y-82350000D01*
X195353333Y-82397619D01*
X195686666Y-82302380D02*
X196353333Y-82302380D01*
X195924761Y-83302380D01*
%TO.C,C6*%
X193053333Y-89407142D02*
X193005714Y-89454761D01*
X192862857Y-89502380D01*
X192767619Y-89502380D01*
X192624761Y-89454761D01*
X192529523Y-89359523D01*
X192481904Y-89264285D01*
X192434285Y-89073809D01*
X192434285Y-88930952D01*
X192481904Y-88740476D01*
X192529523Y-88645238D01*
X192624761Y-88550000D01*
X192767619Y-88502380D01*
X192862857Y-88502380D01*
X193005714Y-88550000D01*
X193053333Y-88597619D01*
X193910476Y-88502380D02*
X193720000Y-88502380D01*
X193624761Y-88550000D01*
X193577142Y-88597619D01*
X193481904Y-88740476D01*
X193434285Y-88930952D01*
X193434285Y-89311904D01*
X193481904Y-89407142D01*
X193529523Y-89454761D01*
X193624761Y-89502380D01*
X193815238Y-89502380D01*
X193910476Y-89454761D01*
X193958095Y-89407142D01*
X194005714Y-89311904D01*
X194005714Y-89073809D01*
X193958095Y-88978571D01*
X193910476Y-88930952D01*
X193815238Y-88883333D01*
X193624761Y-88883333D01*
X193529523Y-88930952D01*
X193481904Y-88978571D01*
X193434285Y-89073809D01*
%TO.C,C5*%
X177677142Y-77226666D02*
X177724761Y-77274285D01*
X177772380Y-77417142D01*
X177772380Y-77512380D01*
X177724761Y-77655238D01*
X177629523Y-77750476D01*
X177534285Y-77798095D01*
X177343809Y-77845714D01*
X177200952Y-77845714D01*
X177010476Y-77798095D01*
X176915238Y-77750476D01*
X176820000Y-77655238D01*
X176772380Y-77512380D01*
X176772380Y-77417142D01*
X176820000Y-77274285D01*
X176867619Y-77226666D01*
X176772380Y-76321904D02*
X176772380Y-76798095D01*
X177248571Y-76845714D01*
X177200952Y-76798095D01*
X177153333Y-76702857D01*
X177153333Y-76464761D01*
X177200952Y-76369523D01*
X177248571Y-76321904D01*
X177343809Y-76274285D01*
X177581904Y-76274285D01*
X177677142Y-76321904D01*
X177724761Y-76369523D01*
X177772380Y-76464761D01*
X177772380Y-76702857D01*
X177724761Y-76798095D01*
X177677142Y-76845714D01*
%TO.C,C4*%
X182127142Y-73216666D02*
X182174761Y-73264285D01*
X182222380Y-73407142D01*
X182222380Y-73502380D01*
X182174761Y-73645238D01*
X182079523Y-73740476D01*
X181984285Y-73788095D01*
X181793809Y-73835714D01*
X181650952Y-73835714D01*
X181460476Y-73788095D01*
X181365238Y-73740476D01*
X181270000Y-73645238D01*
X181222380Y-73502380D01*
X181222380Y-73407142D01*
X181270000Y-73264285D01*
X181317619Y-73216666D01*
X181555714Y-72359523D02*
X182222380Y-72359523D01*
X181174761Y-72597619D02*
X181889047Y-72835714D01*
X181889047Y-72216666D01*
%TO.C,C3*%
X216287142Y-69709166D02*
X216334761Y-69756785D01*
X216382380Y-69899642D01*
X216382380Y-69994880D01*
X216334761Y-70137738D01*
X216239523Y-70232976D01*
X216144285Y-70280595D01*
X215953809Y-70328214D01*
X215810952Y-70328214D01*
X215620476Y-70280595D01*
X215525238Y-70232976D01*
X215430000Y-70137738D01*
X215382380Y-69994880D01*
X215382380Y-69899642D01*
X215430000Y-69756785D01*
X215477619Y-69709166D01*
X215382380Y-69375833D02*
X215382380Y-68756785D01*
X215763333Y-69090119D01*
X215763333Y-68947261D01*
X215810952Y-68852023D01*
X215858571Y-68804404D01*
X215953809Y-68756785D01*
X216191904Y-68756785D01*
X216287142Y-68804404D01*
X216334761Y-68852023D01*
X216382380Y-68947261D01*
X216382380Y-69232976D01*
X216334761Y-69328214D01*
X216287142Y-69375833D01*
%TO.C,J4*%
X228547380Y-76473333D02*
X229261666Y-76473333D01*
X229404523Y-76520952D01*
X229499761Y-76616190D01*
X229547380Y-76759047D01*
X229547380Y-76854285D01*
X228880714Y-75568571D02*
X229547380Y-75568571D01*
X228499761Y-75806666D02*
X229214047Y-76044761D01*
X229214047Y-75425714D01*
X220078571Y-78477380D02*
X220078571Y-78810714D01*
X220602380Y-78810714D02*
X219602380Y-78810714D01*
X219602380Y-78334523D01*
X220602380Y-77810714D02*
X220554761Y-77905952D01*
X220459523Y-77953571D01*
X219602380Y-77953571D01*
X220602380Y-77286904D02*
X220554761Y-77382142D01*
X220507142Y-77429761D01*
X220411904Y-77477380D01*
X220126190Y-77477380D01*
X220030952Y-77429761D01*
X219983333Y-77382142D01*
X219935714Y-77286904D01*
X219935714Y-77144047D01*
X219983333Y-77048809D01*
X220030952Y-77001190D01*
X220126190Y-76953571D01*
X220411904Y-76953571D01*
X220507142Y-77001190D01*
X220554761Y-77048809D01*
X220602380Y-77144047D01*
X220602380Y-77286904D01*
X219935714Y-76620238D02*
X220602380Y-76429761D01*
X220126190Y-76239285D01*
X220602380Y-76048809D01*
X219935714Y-75858333D01*
X220602380Y-74191666D02*
X220602380Y-74763095D01*
X220602380Y-74477380D02*
X219602380Y-74477380D01*
X219745238Y-74572619D01*
X219840476Y-74667857D01*
X219888095Y-74763095D01*
%TO.C,J2*%
X176791666Y-81552380D02*
X176791666Y-82266666D01*
X176744047Y-82409523D01*
X176648809Y-82504761D01*
X176505952Y-82552380D01*
X176410714Y-82552380D01*
X177220238Y-81647619D02*
X177267857Y-81600000D01*
X177363095Y-81552380D01*
X177601190Y-81552380D01*
X177696428Y-81600000D01*
X177744047Y-81647619D01*
X177791666Y-81742857D01*
X177791666Y-81838095D01*
X177744047Y-81980952D01*
X177172619Y-82552380D01*
X177791666Y-82552380D01*
%TO.C,U1*%
X194627380Y-88086904D02*
X195436904Y-88086904D01*
X195532142Y-88039285D01*
X195579761Y-87991666D01*
X195627380Y-87896428D01*
X195627380Y-87705952D01*
X195579761Y-87610714D01*
X195532142Y-87563095D01*
X195436904Y-87515476D01*
X194627380Y-87515476D01*
X195627380Y-86515476D02*
X195627380Y-87086904D01*
X195627380Y-86801190D02*
X194627380Y-86801190D01*
X194770238Y-86896428D01*
X194865476Y-86991666D01*
X194913095Y-87086904D01*
X195402380Y-91450000D02*
X195640476Y-91450000D01*
X195545238Y-91688095D02*
X195640476Y-91450000D01*
X195545238Y-91211904D01*
X195830952Y-91592857D02*
X195640476Y-91450000D01*
X195830952Y-91307142D01*
%TO.C,Q1*%
X191572619Y-87395238D02*
X191525000Y-87490476D01*
X191429761Y-87585714D01*
X191286904Y-87728571D01*
X191239285Y-87823809D01*
X191239285Y-87919047D01*
X191477380Y-87871428D02*
X191429761Y-87966666D01*
X191334523Y-88061904D01*
X191144047Y-88109523D01*
X190810714Y-88109523D01*
X190620238Y-88061904D01*
X190525000Y-87966666D01*
X190477380Y-87871428D01*
X190477380Y-87680952D01*
X190525000Y-87585714D01*
X190620238Y-87490476D01*
X190810714Y-87442857D01*
X191144047Y-87442857D01*
X191334523Y-87490476D01*
X191429761Y-87585714D01*
X191477380Y-87680952D01*
X191477380Y-87871428D01*
X191477380Y-86490476D02*
X191477380Y-87061904D01*
X191477380Y-86776190D02*
X190477380Y-86776190D01*
X190620238Y-86871428D01*
X190715476Y-86966666D01*
X190763095Y-87061904D01*
%TO.C,U2*%
X208988095Y-97177380D02*
X208988095Y-97986904D01*
X209035714Y-98082142D01*
X209083333Y-98129761D01*
X209178571Y-98177380D01*
X209369047Y-98177380D01*
X209464285Y-98129761D01*
X209511904Y-98082142D01*
X209559523Y-97986904D01*
X209559523Y-97177380D01*
X209988095Y-97272619D02*
X210035714Y-97225000D01*
X210130952Y-97177380D01*
X210369047Y-97177380D01*
X210464285Y-97225000D01*
X210511904Y-97272619D01*
X210559523Y-97367857D01*
X210559523Y-97463095D01*
X210511904Y-97605952D01*
X209940476Y-98177380D01*
X210559523Y-98177380D01*
X202025000Y-90877380D02*
X202025000Y-91115476D01*
X201786904Y-91020238D02*
X202025000Y-91115476D01*
X202263095Y-91020238D01*
X201882142Y-91305952D02*
X202025000Y-91115476D01*
X202167857Y-91305952D01*
%TO.C,R1*%
X193358333Y-92002380D02*
X193025000Y-91526190D01*
X192786904Y-92002380D02*
X192786904Y-91002380D01*
X193167857Y-91002380D01*
X193263095Y-91050000D01*
X193310714Y-91097619D01*
X193358333Y-91192857D01*
X193358333Y-91335714D01*
X193310714Y-91430952D01*
X193263095Y-91478571D01*
X193167857Y-91526190D01*
X192786904Y-91526190D01*
X194310714Y-92002380D02*
X193739285Y-92002380D01*
X194025000Y-92002380D02*
X194025000Y-91002380D01*
X193929761Y-91145238D01*
X193834523Y-91240476D01*
X193739285Y-91288095D01*
%TO.C,C1*%
X204095833Y-91812142D02*
X204048214Y-91859761D01*
X203905357Y-91907380D01*
X203810119Y-91907380D01*
X203667261Y-91859761D01*
X203572023Y-91764523D01*
X203524404Y-91669285D01*
X203476785Y-91478809D01*
X203476785Y-91335952D01*
X203524404Y-91145476D01*
X203572023Y-91050238D01*
X203667261Y-90955000D01*
X203810119Y-90907380D01*
X203905357Y-90907380D01*
X204048214Y-90955000D01*
X204095833Y-91002619D01*
X205048214Y-91907380D02*
X204476785Y-91907380D01*
X204762500Y-91907380D02*
X204762500Y-90907380D01*
X204667261Y-91050238D01*
X204572023Y-91145476D01*
X204476785Y-91193095D01*
%TO.C,R5*%
X202827380Y-84516666D02*
X202351190Y-84850000D01*
X202827380Y-85088095D02*
X201827380Y-85088095D01*
X201827380Y-84707142D01*
X201875000Y-84611904D01*
X201922619Y-84564285D01*
X202017857Y-84516666D01*
X202160714Y-84516666D01*
X202255952Y-84564285D01*
X202303571Y-84611904D01*
X202351190Y-84707142D01*
X202351190Y-85088095D01*
X201827380Y-83611904D02*
X201827380Y-84088095D01*
X202303571Y-84135714D01*
X202255952Y-84088095D01*
X202208333Y-83992857D01*
X202208333Y-83754761D01*
X202255952Y-83659523D01*
X202303571Y-83611904D01*
X202398809Y-83564285D01*
X202636904Y-83564285D01*
X202732142Y-83611904D01*
X202779761Y-83659523D01*
X202827380Y-83754761D01*
X202827380Y-83992857D01*
X202779761Y-84088095D01*
X202732142Y-84135714D01*
%TO.C,D1*%
X208802380Y-84863095D02*
X207802380Y-84863095D01*
X207802380Y-84625000D01*
X207850000Y-84482142D01*
X207945238Y-84386904D01*
X208040476Y-84339285D01*
X208230952Y-84291666D01*
X208373809Y-84291666D01*
X208564285Y-84339285D01*
X208659523Y-84386904D01*
X208754761Y-84482142D01*
X208802380Y-84625000D01*
X208802380Y-84863095D01*
X208802380Y-83339285D02*
X208802380Y-83910714D01*
X208802380Y-83625000D02*
X207802380Y-83625000D01*
X207945238Y-83720238D01*
X208040476Y-83815476D01*
X208088095Y-83910714D01*
%TO.C,Q2*%
X182647619Y-87682738D02*
X182600000Y-87777976D01*
X182504761Y-87873214D01*
X182361904Y-88016071D01*
X182314285Y-88111309D01*
X182314285Y-88206547D01*
X182552380Y-88158928D02*
X182504761Y-88254166D01*
X182409523Y-88349404D01*
X182219047Y-88397023D01*
X181885714Y-88397023D01*
X181695238Y-88349404D01*
X181600000Y-88254166D01*
X181552380Y-88158928D01*
X181552380Y-87968452D01*
X181600000Y-87873214D01*
X181695238Y-87777976D01*
X181885714Y-87730357D01*
X182219047Y-87730357D01*
X182409523Y-87777976D01*
X182504761Y-87873214D01*
X182552380Y-87968452D01*
X182552380Y-88158928D01*
X181647619Y-87349404D02*
X181600000Y-87301785D01*
X181552380Y-87206547D01*
X181552380Y-86968452D01*
X181600000Y-86873214D01*
X181647619Y-86825595D01*
X181742857Y-86777976D01*
X181838095Y-86777976D01*
X181980952Y-86825595D01*
X182552380Y-87397023D01*
X182552380Y-86777976D01*
%TO.C,R2*%
X199033333Y-96177380D02*
X198700000Y-95701190D01*
X198461904Y-96177380D02*
X198461904Y-95177380D01*
X198842857Y-95177380D01*
X198938095Y-95225000D01*
X198985714Y-95272619D01*
X199033333Y-95367857D01*
X199033333Y-95510714D01*
X198985714Y-95605952D01*
X198938095Y-95653571D01*
X198842857Y-95701190D01*
X198461904Y-95701190D01*
X199414285Y-95272619D02*
X199461904Y-95225000D01*
X199557142Y-95177380D01*
X199795238Y-95177380D01*
X199890476Y-95225000D01*
X199938095Y-95272619D01*
X199985714Y-95367857D01*
X199985714Y-95463095D01*
X199938095Y-95605952D01*
X199366666Y-96177380D01*
X199985714Y-96177380D01*
%TO.C,U7*%
X214788095Y-83302380D02*
X214788095Y-84111904D01*
X214835714Y-84207142D01*
X214883333Y-84254761D01*
X214978571Y-84302380D01*
X215169047Y-84302380D01*
X215264285Y-84254761D01*
X215311904Y-84207142D01*
X215359523Y-84111904D01*
X215359523Y-83302380D01*
X215740476Y-83302380D02*
X216407142Y-83302380D01*
X215978571Y-84302380D01*
%TO.C,U6*%
X214613095Y-74152380D02*
X214613095Y-74961904D01*
X214660714Y-75057142D01*
X214708333Y-75104761D01*
X214803571Y-75152380D01*
X214994047Y-75152380D01*
X215089285Y-75104761D01*
X215136904Y-75057142D01*
X215184523Y-74961904D01*
X215184523Y-74152380D01*
X216089285Y-74152380D02*
X215898809Y-74152380D01*
X215803571Y-74200000D01*
X215755952Y-74247619D01*
X215660714Y-74390476D01*
X215613095Y-74580952D01*
X215613095Y-74961904D01*
X215660714Y-75057142D01*
X215708333Y-75104761D01*
X215803571Y-75152380D01*
X215994047Y-75152380D01*
X216089285Y-75104761D01*
X216136904Y-75057142D01*
X216184523Y-74961904D01*
X216184523Y-74723809D01*
X216136904Y-74628571D01*
X216089285Y-74580952D01*
X215994047Y-74533333D01*
X215803571Y-74533333D01*
X215708333Y-74580952D01*
X215660714Y-74628571D01*
X215613095Y-74723809D01*
D13*
%TO.C,J5*%
X221115000Y-81165000D02*
X221115000Y-81565000D01*
X221755000Y-81165000D02*
X221115000Y-81165000D01*
X221355000Y-81405000D02*
X221355000Y-89725000D01*
X228095000Y-89725000D02*
X221355000Y-89725000D01*
X228095000Y-81405000D02*
X221355000Y-81405000D01*
X228095000Y-81405000D02*
X228095000Y-89725000D01*
X226975000Y-81405000D02*
X226975000Y-89725000D01*
X221875000Y-81405000D02*
X221875000Y-89725000D01*
D14*
%TO.C,J1*%
X226774000Y-91546000D02*
X226266000Y-91546000D01*
X219154000Y-91546000D02*
X219154000Y-92054000D01*
X224234000Y-91546000D02*
X223726000Y-91546000D01*
X221694000Y-91546000D02*
X221186000Y-91546000D01*
X216106000Y-91546000D02*
X216106000Y-92054000D01*
X216614000Y-91546000D02*
X216106000Y-91546000D01*
X221694000Y-92054000D02*
X221186000Y-92054000D01*
X213566000Y-91546000D02*
X213566000Y-92054000D01*
X224234000Y-92054000D02*
X223726000Y-92054000D01*
X223726000Y-91546000D02*
X223726000Y-92054000D01*
X214074000Y-91546000D02*
X213566000Y-91546000D01*
X226266000Y-91546000D02*
X226266000Y-92054000D01*
X214074000Y-91546000D02*
X214074000Y-92054000D01*
X224234000Y-91546000D02*
X224234000Y-92054000D01*
X226774000Y-91546000D02*
X226774000Y-92054000D01*
X216614000Y-91546000D02*
X216614000Y-92054000D01*
X221186000Y-91546000D02*
X221186000Y-92054000D01*
X214074000Y-92054000D02*
X213566000Y-92054000D01*
X226774000Y-92054000D02*
X226266000Y-92054000D01*
X216614000Y-92054000D02*
X216106000Y-92054000D01*
X221694000Y-91546000D02*
X221694000Y-92054000D01*
D13*
X227815400Y-93146200D02*
X212550000Y-93146200D01*
X212550000Y-93146200D02*
X212550000Y-90453800D01*
X212550000Y-90453800D02*
X227815400Y-90453800D01*
X227815400Y-90453800D02*
X227815400Y-93146200D01*
%TO.C,J3*%
X221090000Y-62140000D02*
X221090000Y-62540000D01*
X221330000Y-62380000D02*
X221330000Y-70700000D01*
X228070000Y-62380000D02*
X221330000Y-62380000D01*
X226950000Y-62380000D02*
X226950000Y-70700000D01*
X221730000Y-62140000D02*
X221090000Y-62140000D01*
X228070000Y-62380000D02*
X228070000Y-70700000D01*
X228070000Y-70700000D02*
X221330000Y-70700000D01*
X221850000Y-62380000D02*
X221850000Y-70700000D01*
%TO.C,U4*%
X191120000Y-81907500D02*
X191120000Y-81257500D01*
X194240000Y-81907500D02*
X194240000Y-81257500D01*
X191120000Y-81907500D02*
X191120000Y-83582500D01*
X194240000Y-81907500D02*
X194240000Y-82557500D01*
%TO.C,U3*%
X188449050Y-76620000D02*
X188449050Y-68940000D01*
X188449050Y-76620000D02*
X185789050Y-76620000D01*
X188449050Y-68940000D02*
X185789050Y-68940000D01*
X188449050Y-79220000D02*
X187119050Y-79220000D01*
X185789050Y-76620000D02*
X185789050Y-68940000D01*
X188449050Y-77890000D02*
X188449050Y-79220000D01*
%TO.C,F1*%
X217181252Y-62320000D02*
X214408748Y-62320000D01*
X217181252Y-65740000D02*
X214408748Y-65740000D01*
%TO.C,C7*%
X196301248Y-80425000D02*
X196823752Y-80425000D01*
X196301248Y-81895000D02*
X196823752Y-81895000D01*
%TO.C,C6*%
X193955000Y-85648748D02*
X193955000Y-86171252D01*
X192485000Y-85648748D02*
X192485000Y-86171252D01*
%TO.C,C5*%
X180405000Y-79587500D02*
X180405000Y-75502500D01*
X178535000Y-75502500D02*
X178535000Y-79587500D01*
X178535000Y-79587500D02*
X180405000Y-79587500D01*
%TO.C,C4*%
X180905000Y-77971252D02*
X180905000Y-77448748D01*
X182375000Y-77971252D02*
X182375000Y-77448748D01*
%TO.C,C3*%
X214990000Y-68831248D02*
X214990000Y-70253752D01*
X212270000Y-68831248D02*
X212270000Y-70253752D01*
%TO.C,J4*%
X228095000Y-80300000D02*
X221355000Y-80300000D01*
X221875000Y-71980000D02*
X221875000Y-80300000D01*
X221115000Y-71740000D02*
X221115000Y-72140000D01*
X221755000Y-71740000D02*
X221115000Y-71740000D01*
X228095000Y-71980000D02*
X221355000Y-71980000D01*
X228095000Y-71980000D02*
X228095000Y-80300000D01*
X226975000Y-71980000D02*
X226975000Y-80300000D01*
X221355000Y-71980000D02*
X221355000Y-80300000D01*
%TO.C,J2*%
X181420000Y-83430000D02*
X189100000Y-83430000D01*
X181420000Y-83430000D02*
X181420000Y-80770000D01*
X178820000Y-83430000D02*
X178820000Y-82100000D01*
X181420000Y-80770000D02*
X189100000Y-80770000D01*
X189100000Y-83430000D02*
X189100000Y-80770000D01*
X180150000Y-83430000D02*
X178820000Y-83430000D01*
%TO.C,U1*%
X196015000Y-87325000D02*
X196015000Y-85375000D01*
X201135000Y-87325000D02*
X201135000Y-85375000D01*
X196015000Y-87325000D02*
X196015000Y-90775000D01*
X201135000Y-87325000D02*
X201135000Y-89275000D01*
%TO.C,Q1*%
X189910000Y-87537500D02*
X189910000Y-88187500D01*
X189910000Y-87537500D02*
X189910000Y-86887500D01*
X186790000Y-87537500D02*
X186790000Y-89212500D01*
X186790000Y-87537500D02*
X186790000Y-86887500D01*
%TO.C,U2*%
X206100000Y-91315000D02*
X208300000Y-91315000D01*
X206100000Y-96535000D02*
X208300000Y-96535000D01*
X206100000Y-91315000D02*
X202500000Y-91315000D01*
X206100000Y-96535000D02*
X203900000Y-96535000D01*
%TO.C,R1*%
X194097936Y-92515000D02*
X194552064Y-92515000D01*
X194097936Y-93985000D02*
X194552064Y-93985000D01*
%TO.C,C1*%
X204523752Y-89040000D02*
X204001248Y-89040000D01*
X204523752Y-90510000D02*
X204001248Y-90510000D01*
%TO.C,R5*%
X204760000Y-84577064D02*
X204760000Y-84122936D01*
X203290000Y-84577064D02*
X203290000Y-84122936D01*
%TO.C,D1*%
X205490000Y-83325000D02*
X205490000Y-86185000D01*
X205490000Y-86185000D02*
X207410000Y-86185000D01*
X207410000Y-86185000D02*
X207410000Y-83325000D01*
%TO.C,Q2*%
X186060000Y-87587500D02*
X186060000Y-88237500D01*
X182940000Y-87587500D02*
X182940000Y-89262500D01*
X186060000Y-87587500D02*
X186060000Y-86937500D01*
X182940000Y-87587500D02*
X182940000Y-86937500D01*
%TO.C,R2*%
X199447936Y-93040000D02*
X199902064Y-93040000D01*
X199447936Y-94510000D02*
X199902064Y-94510000D01*
%TO.C,REF\u002A\u002A*%
G36*
X176336873Y-71014679D02*
G01*
X176340606Y-70950905D01*
X176345907Y-70905582D01*
X176353258Y-70873555D01*
X176363143Y-70849668D01*
X176376046Y-70828764D01*
X176381579Y-70820898D01*
X176454969Y-70746595D01*
X176547760Y-70704467D01*
X176655096Y-70692722D01*
X176748886Y-70704505D01*
X176823539Y-70741727D01*
X176889431Y-70810261D01*
X176907577Y-70835648D01*
X176927345Y-70868866D01*
X176940172Y-70904945D01*
X176947510Y-70953098D01*
X176950813Y-71022536D01*
X176951538Y-71114206D01*
X176948263Y-71239830D01*
X176936877Y-71334154D01*
X176915041Y-71404523D01*
X176880419Y-71458286D01*
X176830670Y-71502788D01*
X176827014Y-71505423D01*
X176777985Y-71532377D01*
X176718945Y-71545712D01*
X176643859Y-71549000D01*
X176521795Y-71549000D01*
X176521744Y-71667497D01*
X176520608Y-71733492D01*
X176513686Y-71772202D01*
X176495598Y-71795419D01*
X176460962Y-71814933D01*
X176452645Y-71818920D01*
X176413720Y-71837603D01*
X176383583Y-71849403D01*
X176361174Y-71850422D01*
X176345433Y-71836761D01*
X176335302Y-71804522D01*
X176329723Y-71749804D01*
X176327635Y-71668711D01*
X176327981Y-71557344D01*
X176329700Y-71411802D01*
X176330237Y-71368269D01*
X176332172Y-71218205D01*
X176333904Y-71120042D01*
X176521692Y-71120042D01*
X176522748Y-71203364D01*
X176527438Y-71257880D01*
X176538051Y-71293837D01*
X176556872Y-71321482D01*
X176569650Y-71334965D01*
X176621890Y-71374417D01*
X176668142Y-71377628D01*
X176715867Y-71345049D01*
X176717077Y-71343846D01*
X176736494Y-71318668D01*
X176748307Y-71284447D01*
X176754265Y-71231748D01*
X176756120Y-71151131D01*
X176756154Y-71133271D01*
X176751670Y-71022175D01*
X176737074Y-70945161D01*
X176710650Y-70898147D01*
X176670683Y-70877050D01*
X176647584Y-70874923D01*
X176592762Y-70884900D01*
X176555158Y-70917752D01*
X176532523Y-70977857D01*
X176522606Y-71069598D01*
X176521692Y-71120042D01*
X176333904Y-71120042D01*
X176334222Y-71102060D01*
X176336873Y-71014679D01*
G37*
D15*
X176336873Y-71014679D02*
X176340606Y-70950905D01*
X176345907Y-70905582D01*
X176353258Y-70873555D01*
X176363143Y-70849668D01*
X176376046Y-70828764D01*
X176381579Y-70820898D01*
X176454969Y-70746595D01*
X176547760Y-70704467D01*
X176655096Y-70692722D01*
X176748886Y-70704505D01*
X176823539Y-70741727D01*
X176889431Y-70810261D01*
X176907577Y-70835648D01*
X176927345Y-70868866D01*
X176940172Y-70904945D01*
X176947510Y-70953098D01*
X176950813Y-71022536D01*
X176951538Y-71114206D01*
X176948263Y-71239830D01*
X176936877Y-71334154D01*
X176915041Y-71404523D01*
X176880419Y-71458286D01*
X176830670Y-71502788D01*
X176827014Y-71505423D01*
X176777985Y-71532377D01*
X176718945Y-71545712D01*
X176643859Y-71549000D01*
X176521795Y-71549000D01*
X176521744Y-71667497D01*
X176520608Y-71733492D01*
X176513686Y-71772202D01*
X176495598Y-71795419D01*
X176460962Y-71814933D01*
X176452645Y-71818920D01*
X176413720Y-71837603D01*
X176383583Y-71849403D01*
X176361174Y-71850422D01*
X176345433Y-71836761D01*
X176335302Y-71804522D01*
X176329723Y-71749804D01*
X176327635Y-71668711D01*
X176327981Y-71557344D01*
X176329700Y-71411802D01*
X176330237Y-71368269D01*
X176332172Y-71218205D01*
X176333904Y-71120042D01*
X176521692Y-71120042D01*
X176522748Y-71203364D01*
X176527438Y-71257880D01*
X176538051Y-71293837D01*
X176556872Y-71321482D01*
X176569650Y-71334965D01*
X176621890Y-71374417D01*
X176668142Y-71377628D01*
X176715867Y-71345049D01*
X176717077Y-71343846D01*
X176736494Y-71318668D01*
X176748307Y-71284447D01*
X176754265Y-71231748D01*
X176756120Y-71151131D01*
X176756154Y-71133271D01*
X176751670Y-71022175D01*
X176737074Y-70945161D01*
X176710650Y-70898147D01*
X176670683Y-70877050D01*
X176647584Y-70874923D01*
X176592762Y-70884900D01*
X176555158Y-70917752D01*
X176532523Y-70977857D01*
X176522606Y-71069598D01*
X176521692Y-71120042D01*
X176333904Y-71120042D01*
X176334222Y-71102060D01*
X176336873Y-71014679D01*
G36*
X175587629Y-70957906D02*
G01*
X175594322Y-70909163D01*
X175605960Y-70873288D01*
X175623853Y-70841548D01*
X175627808Y-70835648D01*
X175694267Y-70756104D01*
X175766685Y-70709929D01*
X175854849Y-70691599D01*
X175884787Y-70690703D01*
X175996886Y-70707256D01*
X176088464Y-70755409D01*
X176156049Y-70832905D01*
X176180057Y-70882727D01*
X176198738Y-70957533D01*
X176208301Y-71052052D01*
X176209208Y-71155210D01*
X176201921Y-71255935D01*
X176186903Y-71343153D01*
X176164615Y-71405791D01*
X176157765Y-71416579D01*
X176076632Y-71497105D01*
X175980266Y-71545336D01*
X175875701Y-71559450D01*
X175769968Y-71537629D01*
X175740543Y-71524547D01*
X175683241Y-71484231D01*
X175632950Y-71430775D01*
X175628197Y-71423995D01*
X175608878Y-71391321D01*
X175596108Y-71356394D01*
X175588564Y-71310414D01*
X175584924Y-71244584D01*
X175583865Y-71150105D01*
X175583846Y-71128923D01*
X175583894Y-71122182D01*
X175779231Y-71122182D01*
X175780368Y-71211349D01*
X175784841Y-71270520D01*
X175794246Y-71308741D01*
X175810176Y-71335053D01*
X175818308Y-71343846D01*
X175865058Y-71377261D01*
X175910447Y-71375737D01*
X175956340Y-71346752D01*
X175983712Y-71315809D01*
X175999923Y-71270643D01*
X176009026Y-71199420D01*
X176009651Y-71191114D01*
X176011204Y-71062037D01*
X175994965Y-70966172D01*
X175961152Y-70904107D01*
X175909984Y-70876432D01*
X175891720Y-70874923D01*
X175843760Y-70882513D01*
X175810953Y-70908808D01*
X175790895Y-70959095D01*
X175781178Y-71038664D01*
X175779231Y-71122182D01*
X175583894Y-71122182D01*
X175584574Y-71028249D01*
X175587629Y-70957906D01*
G37*
X175587629Y-70957906D02*
X175594322Y-70909163D01*
X175605960Y-70873288D01*
X175623853Y-70841548D01*
X175627808Y-70835648D01*
X175694267Y-70756104D01*
X175766685Y-70709929D01*
X175854849Y-70691599D01*
X175884787Y-70690703D01*
X175996886Y-70707256D01*
X176088464Y-70755409D01*
X176156049Y-70832905D01*
X176180057Y-70882727D01*
X176198738Y-70957533D01*
X176208301Y-71052052D01*
X176209208Y-71155210D01*
X176201921Y-71255935D01*
X176186903Y-71343153D01*
X176164615Y-71405791D01*
X176157765Y-71416579D01*
X176076632Y-71497105D01*
X175980266Y-71545336D01*
X175875701Y-71559450D01*
X175769968Y-71537629D01*
X175740543Y-71524547D01*
X175683241Y-71484231D01*
X175632950Y-71430775D01*
X175628197Y-71423995D01*
X175608878Y-71391321D01*
X175596108Y-71356394D01*
X175588564Y-71310414D01*
X175584924Y-71244584D01*
X175583865Y-71150105D01*
X175583846Y-71128923D01*
X175583894Y-71122182D01*
X175779231Y-71122182D01*
X175780368Y-71211349D01*
X175784841Y-71270520D01*
X175794246Y-71308741D01*
X175810176Y-71335053D01*
X175818308Y-71343846D01*
X175865058Y-71377261D01*
X175910447Y-71375737D01*
X175956340Y-71346752D01*
X175983712Y-71315809D01*
X175999923Y-71270643D01*
X176009026Y-71199420D01*
X176009651Y-71191114D01*
X176011204Y-71062037D01*
X175994965Y-70966172D01*
X175961152Y-70904107D01*
X175909984Y-70876432D01*
X175891720Y-70874923D01*
X175843760Y-70882513D01*
X175810953Y-70908808D01*
X175790895Y-70959095D01*
X175781178Y-71038664D01*
X175779231Y-71122182D01*
X175583894Y-71122182D01*
X175584574Y-71028249D01*
X175587629Y-70957906D01*
G36*
X182375929Y-70756662D02*
G01*
X182378911Y-70808068D01*
X182381247Y-70886192D01*
X182382749Y-70984857D01*
X182383231Y-71088343D01*
X182383231Y-71438533D01*
X182321401Y-71500363D01*
X182278793Y-71538462D01*
X182241390Y-71553895D01*
X182190270Y-71552918D01*
X182169978Y-71550433D01*
X182106554Y-71543200D01*
X182054095Y-71539055D01*
X182041308Y-71538672D01*
X181998199Y-71541176D01*
X181936544Y-71547462D01*
X181912638Y-71550433D01*
X181853922Y-71555028D01*
X181814464Y-71545046D01*
X181775338Y-71514228D01*
X181761215Y-71500363D01*
X181699385Y-71438533D01*
X181699385Y-70783503D01*
X181749150Y-70760829D01*
X181792002Y-70744034D01*
X181817073Y-70738154D01*
X181823501Y-70756736D01*
X181829509Y-70808655D01*
X181834697Y-70888172D01*
X181838664Y-70989546D01*
X181840577Y-71075192D01*
X181845923Y-71412231D01*
X181892560Y-71418825D01*
X181934976Y-71414214D01*
X181955760Y-71399287D01*
X181961570Y-71371377D01*
X181966530Y-71311925D01*
X181970246Y-71228466D01*
X181972324Y-71128532D01*
X181972624Y-71077104D01*
X181972923Y-70781054D01*
X182034454Y-70759604D01*
X182078004Y-70745020D01*
X182101694Y-70738219D01*
X182102377Y-70738154D01*
X182104754Y-70756642D01*
X182107366Y-70807906D01*
X182109995Y-70885649D01*
X182112421Y-70983574D01*
X182114115Y-71075192D01*
X182119461Y-71412231D01*
X182236692Y-71412231D01*
X182242072Y-71104746D01*
X182247451Y-70797261D01*
X182304601Y-70767707D01*
X182346797Y-70747413D01*
X182371770Y-70738204D01*
X182372491Y-70738154D01*
X182375929Y-70756662D01*
G37*
X182375929Y-70756662D02*
X182378911Y-70808068D01*
X182381247Y-70886192D01*
X182382749Y-70984857D01*
X182383231Y-71088343D01*
X182383231Y-71438533D01*
X182321401Y-71500363D01*
X182278793Y-71538462D01*
X182241390Y-71553895D01*
X182190270Y-71552918D01*
X182169978Y-71550433D01*
X182106554Y-71543200D01*
X182054095Y-71539055D01*
X182041308Y-71538672D01*
X181998199Y-71541176D01*
X181936544Y-71547462D01*
X181912638Y-71550433D01*
X181853922Y-71555028D01*
X181814464Y-71545046D01*
X181775338Y-71514228D01*
X181761215Y-71500363D01*
X181699385Y-71438533D01*
X181699385Y-70783503D01*
X181749150Y-70760829D01*
X181792002Y-70744034D01*
X181817073Y-70738154D01*
X181823501Y-70756736D01*
X181829509Y-70808655D01*
X181834697Y-70888172D01*
X181838664Y-70989546D01*
X181840577Y-71075192D01*
X181845923Y-71412231D01*
X181892560Y-71418825D01*
X181934976Y-71414214D01*
X181955760Y-71399287D01*
X181961570Y-71371377D01*
X181966530Y-71311925D01*
X181970246Y-71228466D01*
X181972324Y-71128532D01*
X181972624Y-71077104D01*
X181972923Y-70781054D01*
X182034454Y-70759604D01*
X182078004Y-70745020D01*
X182101694Y-70738219D01*
X182102377Y-70738154D01*
X182104754Y-70756642D01*
X182107366Y-70807906D01*
X182109995Y-70885649D01*
X182112421Y-70983574D01*
X182114115Y-71075192D01*
X182119461Y-71412231D01*
X182236692Y-71412231D01*
X182242072Y-71104746D01*
X182247451Y-70797261D01*
X182304601Y-70767707D01*
X182346797Y-70747413D01*
X182371770Y-70738204D01*
X182372491Y-70738154D01*
X182375929Y-70756662D01*
G36*
X182867333Y-70753528D02*
G01*
X182923590Y-70779117D01*
X182967747Y-70810124D01*
X183000101Y-70844795D01*
X183022438Y-70889520D01*
X183036546Y-70950692D01*
X183044211Y-71034701D01*
X183047220Y-71147940D01*
X183047538Y-71222509D01*
X183047538Y-71513420D01*
X182997773Y-71536095D01*
X182958576Y-71552667D01*
X182939157Y-71558769D01*
X182935442Y-71540610D01*
X182932495Y-71491648D01*
X182930691Y-71420153D01*
X182930308Y-71363385D01*
X182928661Y-71281371D01*
X182924222Y-71216309D01*
X182917740Y-71176467D01*
X182912590Y-71168000D01*
X182877977Y-71176646D01*
X182823640Y-71198823D01*
X182760722Y-71228886D01*
X182700368Y-71261192D01*
X182653721Y-71290098D01*
X182631926Y-71309961D01*
X182631839Y-71310175D01*
X182633714Y-71346935D01*
X182650525Y-71382026D01*
X182680039Y-71410528D01*
X182723116Y-71420061D01*
X182759932Y-71418950D01*
X182812074Y-71418133D01*
X182839444Y-71430349D01*
X182855882Y-71462624D01*
X182857955Y-71468710D01*
X182865081Y-71514739D01*
X182846024Y-71542687D01*
X182796353Y-71556007D01*
X182742697Y-71558470D01*
X182646142Y-71540210D01*
X182596159Y-71514131D01*
X182534429Y-71452868D01*
X182501690Y-71377670D01*
X182498753Y-71298211D01*
X182526424Y-71224167D01*
X182568047Y-71177769D01*
X182609604Y-71151793D01*
X182674922Y-71118907D01*
X182751038Y-71085557D01*
X182763726Y-71080461D01*
X182847333Y-71043565D01*
X182895530Y-71011046D01*
X182911030Y-70978718D01*
X182896550Y-70942394D01*
X182871692Y-70914000D01*
X182812939Y-70879039D01*
X182748293Y-70876417D01*
X182689008Y-70903358D01*
X182646339Y-70957088D01*
X182640739Y-70970950D01*
X182608133Y-71021936D01*
X182560530Y-71059787D01*
X182500461Y-71090850D01*
X182500461Y-71002768D01*
X182503997Y-70948951D01*
X182519156Y-70906534D01*
X182552768Y-70861279D01*
X182585035Y-70826420D01*
X182635209Y-70777062D01*
X182674193Y-70750547D01*
X182716064Y-70739911D01*
X182763460Y-70738154D01*
X182867333Y-70753528D01*
G37*
X182867333Y-70753528D02*
X182923590Y-70779117D01*
X182967747Y-70810124D01*
X183000101Y-70844795D01*
X183022438Y-70889520D01*
X183036546Y-70950692D01*
X183044211Y-71034701D01*
X183047220Y-71147940D01*
X183047538Y-71222509D01*
X183047538Y-71513420D01*
X182997773Y-71536095D01*
X182958576Y-71552667D01*
X182939157Y-71558769D01*
X182935442Y-71540610D01*
X182932495Y-71491648D01*
X182930691Y-71420153D01*
X182930308Y-71363385D01*
X182928661Y-71281371D01*
X182924222Y-71216309D01*
X182917740Y-71176467D01*
X182912590Y-71168000D01*
X182877977Y-71176646D01*
X182823640Y-71198823D01*
X182760722Y-71228886D01*
X182700368Y-71261192D01*
X182653721Y-71290098D01*
X182631926Y-71309961D01*
X182631839Y-71310175D01*
X182633714Y-71346935D01*
X182650525Y-71382026D01*
X182680039Y-71410528D01*
X182723116Y-71420061D01*
X182759932Y-71418950D01*
X182812074Y-71418133D01*
X182839444Y-71430349D01*
X182855882Y-71462624D01*
X182857955Y-71468710D01*
X182865081Y-71514739D01*
X182846024Y-71542687D01*
X182796353Y-71556007D01*
X182742697Y-71558470D01*
X182646142Y-71540210D01*
X182596159Y-71514131D01*
X182534429Y-71452868D01*
X182501690Y-71377670D01*
X182498753Y-71298211D01*
X182526424Y-71224167D01*
X182568047Y-71177769D01*
X182609604Y-71151793D01*
X182674922Y-71118907D01*
X182751038Y-71085557D01*
X182763726Y-71080461D01*
X182847333Y-71043565D01*
X182895530Y-71011046D01*
X182911030Y-70978718D01*
X182896550Y-70942394D01*
X182871692Y-70914000D01*
X182812939Y-70879039D01*
X182748293Y-70876417D01*
X182689008Y-70903358D01*
X182646339Y-70957088D01*
X182640739Y-70970950D01*
X182608133Y-71021936D01*
X182560530Y-71059787D01*
X182500461Y-71090850D01*
X182500461Y-71002768D01*
X182503997Y-70948951D01*
X182519156Y-70906534D01*
X182552768Y-70861279D01*
X182585035Y-70826420D01*
X182635209Y-70777062D01*
X182674193Y-70750547D01*
X182716064Y-70739911D01*
X182763460Y-70738154D01*
X182867333Y-70753528D01*
G36*
X180693362Y-70744670D02*
G01*
X180782117Y-70777421D01*
X180854022Y-70835350D01*
X180882144Y-70876128D01*
X180912802Y-70950954D01*
X180912165Y-71005058D01*
X180879987Y-71041446D01*
X180868081Y-71047633D01*
X180816675Y-71066925D01*
X180790422Y-71061982D01*
X180781530Y-71029587D01*
X180781077Y-71011692D01*
X180764797Y-70945859D01*
X180722365Y-70899807D01*
X180663388Y-70877564D01*
X180597475Y-70883161D01*
X180543895Y-70912229D01*
X180525798Y-70928810D01*
X180512971Y-70948925D01*
X180504306Y-70979332D01*
X180498696Y-71026788D01*
X180495035Y-71098050D01*
X180492215Y-71199875D01*
X180491484Y-71232115D01*
X180488820Y-71342410D01*
X180485792Y-71420036D01*
X180481250Y-71471396D01*
X180474046Y-71502890D01*
X180463033Y-71520920D01*
X180447060Y-71531888D01*
X180436834Y-71536733D01*
X180393406Y-71553301D01*
X180367842Y-71558769D01*
X180359395Y-71540507D01*
X180354239Y-71485296D01*
X180352346Y-71392499D01*
X180353689Y-71261478D01*
X180354107Y-71241269D01*
X180357058Y-71121733D01*
X180360548Y-71034449D01*
X180365514Y-70972591D01*
X180372893Y-70929336D01*
X180383624Y-70897860D01*
X180398645Y-70871339D01*
X180406502Y-70859975D01*
X180451553Y-70809692D01*
X180501940Y-70770581D01*
X180508108Y-70767167D01*
X180598458Y-70740212D01*
X180693362Y-70744670D01*
G37*
X180693362Y-70744670D02*
X180782117Y-70777421D01*
X180854022Y-70835350D01*
X180882144Y-70876128D01*
X180912802Y-70950954D01*
X180912165Y-71005058D01*
X180879987Y-71041446D01*
X180868081Y-71047633D01*
X180816675Y-71066925D01*
X180790422Y-71061982D01*
X180781530Y-71029587D01*
X180781077Y-71011692D01*
X180764797Y-70945859D01*
X180722365Y-70899807D01*
X180663388Y-70877564D01*
X180597475Y-70883161D01*
X180543895Y-70912229D01*
X180525798Y-70928810D01*
X180512971Y-70948925D01*
X180504306Y-70979332D01*
X180498696Y-71026788D01*
X180495035Y-71098050D01*
X180492215Y-71199875D01*
X180491484Y-71232115D01*
X180488820Y-71342410D01*
X180485792Y-71420036D01*
X180481250Y-71471396D01*
X180474046Y-71502890D01*
X180463033Y-71520920D01*
X180447060Y-71531888D01*
X180436834Y-71536733D01*
X180393406Y-71553301D01*
X180367842Y-71558769D01*
X180359395Y-71540507D01*
X180354239Y-71485296D01*
X180352346Y-71392499D01*
X180353689Y-71261478D01*
X180354107Y-71241269D01*
X180357058Y-71121733D01*
X180360548Y-71034449D01*
X180365514Y-70972591D01*
X180372893Y-70929336D01*
X180383624Y-70897860D01*
X180398645Y-70871339D01*
X180406502Y-70859975D01*
X180451553Y-70809692D01*
X180501940Y-70770581D01*
X180508108Y-70767167D01*
X180598458Y-70740212D01*
X180693362Y-70744670D01*
G36*
X180033501Y-70746303D02*
G01*
X180110060Y-70774733D01*
X180110936Y-70775279D01*
X180158285Y-70810127D01*
X180193241Y-70850852D01*
X180217825Y-70903925D01*
X180234062Y-70975814D01*
X180243975Y-71072992D01*
X180249586Y-71201928D01*
X180250077Y-71220298D01*
X180257141Y-71497287D01*
X180197695Y-71528028D01*
X180154681Y-71548802D01*
X180128710Y-71558646D01*
X180127509Y-71558769D01*
X180123014Y-71540606D01*
X180119444Y-71491612D01*
X180117248Y-71420031D01*
X180116769Y-71362068D01*
X180116758Y-71268170D01*
X180112466Y-71209203D01*
X180097503Y-71181079D01*
X180065482Y-71179706D01*
X180010014Y-71200998D01*
X179926269Y-71240136D01*
X179864689Y-71272643D01*
X179833017Y-71300845D01*
X179823706Y-71331582D01*
X179823692Y-71333104D01*
X179839057Y-71386054D01*
X179884547Y-71414660D01*
X179954166Y-71418803D01*
X180004313Y-71418084D01*
X180030754Y-71432527D01*
X180047243Y-71467218D01*
X180056733Y-71511416D01*
X180043057Y-71536493D01*
X180037907Y-71540082D01*
X179989425Y-71554496D01*
X179921531Y-71556537D01*
X179851612Y-71546983D01*
X179802068Y-71529522D01*
X179733570Y-71471364D01*
X179694634Y-71390408D01*
X179686923Y-71327160D01*
X179692807Y-71270111D01*
X179714101Y-71223542D01*
X179756265Y-71182181D01*
X179824759Y-71140755D01*
X179925044Y-71093993D01*
X179931154Y-71091350D01*
X180021490Y-71049617D01*
X180077235Y-71015391D01*
X180101129Y-70984635D01*
X180095913Y-70953311D01*
X180064328Y-70917383D01*
X180054883Y-70909116D01*
X179991617Y-70877058D01*
X179926064Y-70878407D01*
X179868972Y-70909838D01*
X179831093Y-70968024D01*
X179827574Y-70979446D01*
X179793300Y-71034837D01*
X179749809Y-71061518D01*
X179686923Y-71087960D01*
X179686923Y-71019548D01*
X179706052Y-70920110D01*
X179762831Y-70828902D01*
X179792378Y-70798389D01*
X179859542Y-70759228D01*
X179944956Y-70741500D01*
X180033501Y-70746303D01*
G37*
X180033501Y-70746303D02*
X180110060Y-70774733D01*
X180110936Y-70775279D01*
X180158285Y-70810127D01*
X180193241Y-70850852D01*
X180217825Y-70903925D01*
X180234062Y-70975814D01*
X180243975Y-71072992D01*
X180249586Y-71201928D01*
X180250077Y-71220298D01*
X180257141Y-71497287D01*
X180197695Y-71528028D01*
X180154681Y-71548802D01*
X180128710Y-71558646D01*
X180127509Y-71558769D01*
X180123014Y-71540606D01*
X180119444Y-71491612D01*
X180117248Y-71420031D01*
X180116769Y-71362068D01*
X180116758Y-71268170D01*
X180112466Y-71209203D01*
X180097503Y-71181079D01*
X180065482Y-71179706D01*
X180010014Y-71200998D01*
X179926269Y-71240136D01*
X179864689Y-71272643D01*
X179833017Y-71300845D01*
X179823706Y-71331582D01*
X179823692Y-71333104D01*
X179839057Y-71386054D01*
X179884547Y-71414660D01*
X179954166Y-71418803D01*
X180004313Y-71418084D01*
X180030754Y-71432527D01*
X180047243Y-71467218D01*
X180056733Y-71511416D01*
X180043057Y-71536493D01*
X180037907Y-71540082D01*
X179989425Y-71554496D01*
X179921531Y-71556537D01*
X179851612Y-71546983D01*
X179802068Y-71529522D01*
X179733570Y-71471364D01*
X179694634Y-71390408D01*
X179686923Y-71327160D01*
X179692807Y-71270111D01*
X179714101Y-71223542D01*
X179756265Y-71182181D01*
X179824759Y-71140755D01*
X179925044Y-71093993D01*
X179931154Y-71091350D01*
X180021490Y-71049617D01*
X180077235Y-71015391D01*
X180101129Y-70984635D01*
X180095913Y-70953311D01*
X180064328Y-70917383D01*
X180054883Y-70909116D01*
X179991617Y-70877058D01*
X179926064Y-70878407D01*
X179868972Y-70909838D01*
X179831093Y-70968024D01*
X179827574Y-70979446D01*
X179793300Y-71034837D01*
X179749809Y-71061518D01*
X179686923Y-71087960D01*
X179686923Y-71019548D01*
X179706052Y-70920110D01*
X179762831Y-70828902D01*
X179792378Y-70798389D01*
X179859542Y-70759228D01*
X179944956Y-70741500D01*
X180033501Y-70746303D01*
G36*
X180119878Y-64407776D02*
G01*
X180225612Y-64408355D01*
X180302132Y-64409922D01*
X180354372Y-64412972D01*
X180387263Y-64417996D01*
X180405737Y-64425489D01*
X180414727Y-64435944D01*
X180419163Y-64449853D01*
X180419594Y-64451654D01*
X180426333Y-64484145D01*
X180438808Y-64548252D01*
X180455719Y-64637151D01*
X180475771Y-64744019D01*
X180497664Y-64862033D01*
X180498429Y-64866178D01*
X180520359Y-64981831D01*
X180540877Y-65084014D01*
X180558659Y-65166598D01*
X180572381Y-65223456D01*
X180580718Y-65248458D01*
X180581116Y-65248901D01*
X180605677Y-65261110D01*
X180656315Y-65281456D01*
X180722095Y-65305545D01*
X180722461Y-65305674D01*
X180805317Y-65336818D01*
X180903000Y-65376491D01*
X180995077Y-65416381D01*
X180999434Y-65418353D01*
X181149407Y-65486420D01*
X181481498Y-65259639D01*
X181583374Y-65190504D01*
X181675657Y-65128697D01*
X181753003Y-65077733D01*
X181810064Y-65041127D01*
X181841495Y-65022394D01*
X181844479Y-65021004D01*
X181867321Y-65027190D01*
X181909982Y-65057035D01*
X181974128Y-65111947D01*
X182061421Y-65193334D01*
X182150535Y-65279922D01*
X182236441Y-65365247D01*
X182313327Y-65443108D01*
X182376564Y-65508697D01*
X182421523Y-65557205D01*
X182443576Y-65583825D01*
X182444396Y-65585195D01*
X182446834Y-65603463D01*
X182437650Y-65633295D01*
X182414574Y-65678721D01*
X182375337Y-65743770D01*
X182317670Y-65832470D01*
X182240795Y-65946657D01*
X182172570Y-66047162D01*
X182111582Y-66137303D01*
X182061356Y-66211849D01*
X182025416Y-66265565D01*
X182007287Y-66293218D01*
X182006146Y-66295095D01*
X182008359Y-66321590D01*
X182025138Y-66373086D01*
X182053142Y-66439851D01*
X182063122Y-66461172D01*
X182106672Y-66556159D01*
X182153134Y-66663937D01*
X182190877Y-66757192D01*
X182218073Y-66826406D01*
X182239675Y-66879006D01*
X182252158Y-66906497D01*
X182253709Y-66908616D01*
X182276668Y-66912124D01*
X182330786Y-66921738D01*
X182408868Y-66936089D01*
X182503719Y-66953807D01*
X182608143Y-66973525D01*
X182714944Y-66993874D01*
X182816926Y-67013486D01*
X182906894Y-67030991D01*
X182977653Y-67045022D01*
X183022006Y-67054209D01*
X183032885Y-67056807D01*
X183044122Y-67063218D01*
X183052605Y-67077697D01*
X183058714Y-67105133D01*
X183062832Y-67150411D01*
X183065341Y-67218420D01*
X183066621Y-67314047D01*
X183067054Y-67442180D01*
X183067077Y-67494701D01*
X183067077Y-67921845D01*
X182964500Y-67942091D01*
X182907431Y-67953070D01*
X182822269Y-67969095D01*
X182719372Y-67988233D01*
X182609096Y-68008551D01*
X182578615Y-68014132D01*
X182476855Y-68033917D01*
X182388205Y-68053373D01*
X182320108Y-68070697D01*
X182280004Y-68084088D01*
X182273323Y-68088079D01*
X182256919Y-68116342D01*
X182233399Y-68171109D01*
X182207316Y-68241588D01*
X182202142Y-68256769D01*
X182167956Y-68350896D01*
X182125523Y-68457101D01*
X182083997Y-68552473D01*
X182083792Y-68552916D01*
X182014640Y-68702525D01*
X182469512Y-69371617D01*
X182177500Y-69664116D01*
X182089180Y-69751170D01*
X182008625Y-69827909D01*
X181940360Y-69890237D01*
X181888908Y-69934056D01*
X181858794Y-69955270D01*
X181854474Y-69956616D01*
X181829111Y-69946016D01*
X181777358Y-69916547D01*
X181704868Y-69871705D01*
X181617294Y-69814984D01*
X181522612Y-69751462D01*
X181426516Y-69686668D01*
X181340837Y-69630287D01*
X181271016Y-69585788D01*
X181222494Y-69556639D01*
X181200782Y-69546308D01*
X181174293Y-69555050D01*
X181124062Y-69578087D01*
X181060451Y-69610631D01*
X181053708Y-69614249D01*
X180968046Y-69657210D01*
X180909306Y-69678279D01*
X180872772Y-69678503D01*
X180853731Y-69658928D01*
X180853620Y-69658654D01*
X180844102Y-69635472D01*
X180821403Y-69580441D01*
X180787282Y-69497822D01*
X180743500Y-69391872D01*
X180691816Y-69266852D01*
X180633992Y-69127020D01*
X180577991Y-68991637D01*
X180516447Y-68842234D01*
X180459939Y-68703832D01*
X180410161Y-68580673D01*
X180368806Y-68477002D01*
X180337568Y-68397059D01*
X180318141Y-68345088D01*
X180312154Y-68325692D01*
X180327168Y-68303443D01*
X180366439Y-68267982D01*
X180418807Y-68228887D01*
X180567941Y-68105245D01*
X180684511Y-67963522D01*
X180767118Y-67806704D01*
X180814366Y-67637775D01*
X180824857Y-67459722D01*
X180817231Y-67377539D01*
X180775682Y-67207031D01*
X180704123Y-67056459D01*
X180606995Y-66927309D01*
X180488734Y-66821064D01*
X180353780Y-66739210D01*
X180206571Y-66683232D01*
X180051544Y-66654615D01*
X179893139Y-66654844D01*
X179735794Y-66685405D01*
X179583946Y-66747782D01*
X179442035Y-66843460D01*
X179382803Y-66897572D01*
X179269203Y-67036520D01*
X179190106Y-67188361D01*
X179144986Y-67348667D01*
X179133316Y-67513012D01*
X179154569Y-67676971D01*
X179208220Y-67836118D01*
X179293740Y-67986025D01*
X179410605Y-68122267D01*
X179541193Y-68228887D01*
X179595588Y-68269642D01*
X179634014Y-68304718D01*
X179647846Y-68325726D01*
X179640603Y-68348635D01*
X179620005Y-68403365D01*
X179587746Y-68485672D01*
X179545521Y-68591315D01*
X179495023Y-68716050D01*
X179437948Y-68855636D01*
X179381854Y-68991670D01*
X179319967Y-69141201D01*
X179262644Y-69279767D01*
X179211644Y-69403107D01*
X179168727Y-69506964D01*
X179135653Y-69587080D01*
X179114181Y-69639195D01*
X179106225Y-69658654D01*
X179087429Y-69678423D01*
X179051074Y-69678365D01*
X178992479Y-69657441D01*
X178906968Y-69614613D01*
X178906292Y-69614249D01*
X178841907Y-69581012D01*
X178789861Y-69556802D01*
X178760512Y-69546404D01*
X178759217Y-69546308D01*
X178737124Y-69556855D01*
X178688348Y-69586184D01*
X178618331Y-69630827D01*
X178532514Y-69687314D01*
X178437388Y-69751462D01*
X178340540Y-69816411D01*
X178253253Y-69872896D01*
X178181181Y-69917421D01*
X178129977Y-69946490D01*
X178105526Y-69956616D01*
X178083010Y-69943307D01*
X178037742Y-69906112D01*
X177974244Y-69849128D01*
X177897039Y-69776449D01*
X177810651Y-69692171D01*
X177782399Y-69664016D01*
X177490287Y-69371416D01*
X177712631Y-69045104D01*
X177780202Y-68944897D01*
X177839507Y-68854963D01*
X177887217Y-68780510D01*
X177920007Y-68726751D01*
X177934548Y-68698894D01*
X177934974Y-68696912D01*
X177927308Y-68670655D01*
X177906689Y-68617837D01*
X177876685Y-68547310D01*
X177855625Y-68500093D01*
X177816248Y-68409694D01*
X177779165Y-68318366D01*
X177750415Y-68241200D01*
X177742605Y-68217692D01*
X177720417Y-68154916D01*
X177698727Y-68106411D01*
X177686813Y-68088079D01*
X177660523Y-68076859D01*
X177603142Y-68060954D01*
X177522118Y-68042167D01*
X177424895Y-68022299D01*
X177381385Y-68014132D01*
X177270896Y-67993829D01*
X177164916Y-67974170D01*
X177073801Y-67957088D01*
X177007908Y-67944518D01*
X176995500Y-67942091D01*
X176892923Y-67921845D01*
X176892923Y-67494701D01*
X176893153Y-67354246D01*
X176894099Y-67247979D01*
X176896141Y-67171013D01*
X176899662Y-67118460D01*
X176905043Y-67085433D01*
X176912666Y-67067045D01*
X176922912Y-67058408D01*
X176927115Y-67056807D01*
X176952470Y-67051127D01*
X177008484Y-67039795D01*
X177087964Y-67024179D01*
X177183712Y-67005647D01*
X177288533Y-66985569D01*
X177395232Y-66965312D01*
X177496613Y-66946246D01*
X177585479Y-66929739D01*
X177654637Y-66917159D01*
X177696889Y-66909875D01*
X177706290Y-66908616D01*
X177714807Y-66891763D01*
X177733660Y-66846870D01*
X177759324Y-66782430D01*
X177769123Y-66757192D01*
X177808648Y-66659686D01*
X177855192Y-66551959D01*
X177896877Y-66461172D01*
X177927550Y-66391753D01*
X177947956Y-66334710D01*
X177954768Y-66299777D01*
X177953682Y-66295095D01*
X177939285Y-66272991D01*
X177906412Y-66223831D01*
X177858590Y-66152848D01*
X177799348Y-66065278D01*
X177732215Y-65966357D01*
X177718941Y-65946830D01*
X177641046Y-65831140D01*
X177583787Y-65743044D01*
X177544881Y-65678486D01*
X177522044Y-65633411D01*
X177512994Y-65603763D01*
X177515448Y-65585485D01*
X177515511Y-65585369D01*
X177534827Y-65561361D01*
X177577551Y-65514947D01*
X177639051Y-65450937D01*
X177714698Y-65374145D01*
X177799861Y-65289382D01*
X177809465Y-65279922D01*
X177916790Y-65175989D01*
X177999615Y-65099675D01*
X178059605Y-65049571D01*
X178098423Y-65024270D01*
X178115520Y-65021004D01*
X178140473Y-65035250D01*
X178192255Y-65068156D01*
X178265520Y-65116208D01*
X178354920Y-65175890D01*
X178455111Y-65243688D01*
X178478501Y-65259639D01*
X178810593Y-65486420D01*
X178960565Y-65418353D01*
X179051770Y-65378685D01*
X179149669Y-65338791D01*
X179233831Y-65306983D01*
X179237538Y-65305674D01*
X179303369Y-65281576D01*
X179354116Y-65261200D01*
X179378842Y-65248936D01*
X179378884Y-65248901D01*
X179386729Y-65226734D01*
X179400066Y-65172217D01*
X179417570Y-65091480D01*
X179437917Y-64990650D01*
X179459782Y-64875856D01*
X179461571Y-64866178D01*
X179483504Y-64747904D01*
X179503640Y-64640542D01*
X179520680Y-64550917D01*
X179533328Y-64485851D01*
X179540284Y-64452168D01*
X179540406Y-64451654D01*
X179544639Y-64437325D01*
X179552871Y-64426507D01*
X179570033Y-64418706D01*
X179601058Y-64413429D01*
X179650878Y-64410182D01*
X179724424Y-64408472D01*
X179826629Y-64407807D01*
X179962425Y-64407693D01*
X179980000Y-64407692D01*
X180119878Y-64407776D01*
G37*
X180119878Y-64407776D02*
X180225612Y-64408355D01*
X180302132Y-64409922D01*
X180354372Y-64412972D01*
X180387263Y-64417996D01*
X180405737Y-64425489D01*
X180414727Y-64435944D01*
X180419163Y-64449853D01*
X180419594Y-64451654D01*
X180426333Y-64484145D01*
X180438808Y-64548252D01*
X180455719Y-64637151D01*
X180475771Y-64744019D01*
X180497664Y-64862033D01*
X180498429Y-64866178D01*
X180520359Y-64981831D01*
X180540877Y-65084014D01*
X180558659Y-65166598D01*
X180572381Y-65223456D01*
X180580718Y-65248458D01*
X180581116Y-65248901D01*
X180605677Y-65261110D01*
X180656315Y-65281456D01*
X180722095Y-65305545D01*
X180722461Y-65305674D01*
X180805317Y-65336818D01*
X180903000Y-65376491D01*
X180995077Y-65416381D01*
X180999434Y-65418353D01*
X181149407Y-65486420D01*
X181481498Y-65259639D01*
X181583374Y-65190504D01*
X181675657Y-65128697D01*
X181753003Y-65077733D01*
X181810064Y-65041127D01*
X181841495Y-65022394D01*
X181844479Y-65021004D01*
X181867321Y-65027190D01*
X181909982Y-65057035D01*
X181974128Y-65111947D01*
X182061421Y-65193334D01*
X182150535Y-65279922D01*
X182236441Y-65365247D01*
X182313327Y-65443108D01*
X182376564Y-65508697D01*
X182421523Y-65557205D01*
X182443576Y-65583825D01*
X182444396Y-65585195D01*
X182446834Y-65603463D01*
X182437650Y-65633295D01*
X182414574Y-65678721D01*
X182375337Y-65743770D01*
X182317670Y-65832470D01*
X182240795Y-65946657D01*
X182172570Y-66047162D01*
X182111582Y-66137303D01*
X182061356Y-66211849D01*
X182025416Y-66265565D01*
X182007287Y-66293218D01*
X182006146Y-66295095D01*
X182008359Y-66321590D01*
X182025138Y-66373086D01*
X182053142Y-66439851D01*
X182063122Y-66461172D01*
X182106672Y-66556159D01*
X182153134Y-66663937D01*
X182190877Y-66757192D01*
X182218073Y-66826406D01*
X182239675Y-66879006D01*
X182252158Y-66906497D01*
X182253709Y-66908616D01*
X182276668Y-66912124D01*
X182330786Y-66921738D01*
X182408868Y-66936089D01*
X182503719Y-66953807D01*
X182608143Y-66973525D01*
X182714944Y-66993874D01*
X182816926Y-67013486D01*
X182906894Y-67030991D01*
X182977653Y-67045022D01*
X183022006Y-67054209D01*
X183032885Y-67056807D01*
X183044122Y-67063218D01*
X183052605Y-67077697D01*
X183058714Y-67105133D01*
X183062832Y-67150411D01*
X183065341Y-67218420D01*
X183066621Y-67314047D01*
X183067054Y-67442180D01*
X183067077Y-67494701D01*
X183067077Y-67921845D01*
X182964500Y-67942091D01*
X182907431Y-67953070D01*
X182822269Y-67969095D01*
X182719372Y-67988233D01*
X182609096Y-68008551D01*
X182578615Y-68014132D01*
X182476855Y-68033917D01*
X182388205Y-68053373D01*
X182320108Y-68070697D01*
X182280004Y-68084088D01*
X182273323Y-68088079D01*
X182256919Y-68116342D01*
X182233399Y-68171109D01*
X182207316Y-68241588D01*
X182202142Y-68256769D01*
X182167956Y-68350896D01*
X182125523Y-68457101D01*
X182083997Y-68552473D01*
X182083792Y-68552916D01*
X182014640Y-68702525D01*
X182469512Y-69371617D01*
X182177500Y-69664116D01*
X182089180Y-69751170D01*
X182008625Y-69827909D01*
X181940360Y-69890237D01*
X181888908Y-69934056D01*
X181858794Y-69955270D01*
X181854474Y-69956616D01*
X181829111Y-69946016D01*
X181777358Y-69916547D01*
X181704868Y-69871705D01*
X181617294Y-69814984D01*
X181522612Y-69751462D01*
X181426516Y-69686668D01*
X181340837Y-69630287D01*
X181271016Y-69585788D01*
X181222494Y-69556639D01*
X181200782Y-69546308D01*
X181174293Y-69555050D01*
X181124062Y-69578087D01*
X181060451Y-69610631D01*
X181053708Y-69614249D01*
X180968046Y-69657210D01*
X180909306Y-69678279D01*
X180872772Y-69678503D01*
X180853731Y-69658928D01*
X180853620Y-69658654D01*
X180844102Y-69635472D01*
X180821403Y-69580441D01*
X180787282Y-69497822D01*
X180743500Y-69391872D01*
X180691816Y-69266852D01*
X180633992Y-69127020D01*
X180577991Y-68991637D01*
X180516447Y-68842234D01*
X180459939Y-68703832D01*
X180410161Y-68580673D01*
X180368806Y-68477002D01*
X180337568Y-68397059D01*
X180318141Y-68345088D01*
X180312154Y-68325692D01*
X180327168Y-68303443D01*
X180366439Y-68267982D01*
X180418807Y-68228887D01*
X180567941Y-68105245D01*
X180684511Y-67963522D01*
X180767118Y-67806704D01*
X180814366Y-67637775D01*
X180824857Y-67459722D01*
X180817231Y-67377539D01*
X180775682Y-67207031D01*
X180704123Y-67056459D01*
X180606995Y-66927309D01*
X180488734Y-66821064D01*
X180353780Y-66739210D01*
X180206571Y-66683232D01*
X180051544Y-66654615D01*
X179893139Y-66654844D01*
X179735794Y-66685405D01*
X179583946Y-66747782D01*
X179442035Y-66843460D01*
X179382803Y-66897572D01*
X179269203Y-67036520D01*
X179190106Y-67188361D01*
X179144986Y-67348667D01*
X179133316Y-67513012D01*
X179154569Y-67676971D01*
X179208220Y-67836118D01*
X179293740Y-67986025D01*
X179410605Y-68122267D01*
X179541193Y-68228887D01*
X179595588Y-68269642D01*
X179634014Y-68304718D01*
X179647846Y-68325726D01*
X179640603Y-68348635D01*
X179620005Y-68403365D01*
X179587746Y-68485672D01*
X179545521Y-68591315D01*
X179495023Y-68716050D01*
X179437948Y-68855636D01*
X179381854Y-68991670D01*
X179319967Y-69141201D01*
X179262644Y-69279767D01*
X179211644Y-69403107D01*
X179168727Y-69506964D01*
X179135653Y-69587080D01*
X179114181Y-69639195D01*
X179106225Y-69658654D01*
X179087429Y-69678423D01*
X179051074Y-69678365D01*
X178992479Y-69657441D01*
X178906968Y-69614613D01*
X178906292Y-69614249D01*
X178841907Y-69581012D01*
X178789861Y-69556802D01*
X178760512Y-69546404D01*
X178759217Y-69546308D01*
X178737124Y-69556855D01*
X178688348Y-69586184D01*
X178618331Y-69630827D01*
X178532514Y-69687314D01*
X178437388Y-69751462D01*
X178340540Y-69816411D01*
X178253253Y-69872896D01*
X178181181Y-69917421D01*
X178129977Y-69946490D01*
X178105526Y-69956616D01*
X178083010Y-69943307D01*
X178037742Y-69906112D01*
X177974244Y-69849128D01*
X177897039Y-69776449D01*
X177810651Y-69692171D01*
X177782399Y-69664016D01*
X177490287Y-69371416D01*
X177712631Y-69045104D01*
X177780202Y-68944897D01*
X177839507Y-68854963D01*
X177887217Y-68780510D01*
X177920007Y-68726751D01*
X177934548Y-68698894D01*
X177934974Y-68696912D01*
X177927308Y-68670655D01*
X177906689Y-68617837D01*
X177876685Y-68547310D01*
X177855625Y-68500093D01*
X177816248Y-68409694D01*
X177779165Y-68318366D01*
X177750415Y-68241200D01*
X177742605Y-68217692D01*
X177720417Y-68154916D01*
X177698727Y-68106411D01*
X177686813Y-68088079D01*
X177660523Y-68076859D01*
X177603142Y-68060954D01*
X177522118Y-68042167D01*
X177424895Y-68022299D01*
X177381385Y-68014132D01*
X177270896Y-67993829D01*
X177164916Y-67974170D01*
X177073801Y-67957088D01*
X177007908Y-67944518D01*
X176995500Y-67942091D01*
X176892923Y-67921845D01*
X176892923Y-67494701D01*
X176893153Y-67354246D01*
X176894099Y-67247979D01*
X176896141Y-67171013D01*
X176899662Y-67118460D01*
X176905043Y-67085433D01*
X176912666Y-67067045D01*
X176922912Y-67058408D01*
X176927115Y-67056807D01*
X176952470Y-67051127D01*
X177008484Y-67039795D01*
X177087964Y-67024179D01*
X177183712Y-67005647D01*
X177288533Y-66985569D01*
X177395232Y-66965312D01*
X177496613Y-66946246D01*
X177585479Y-66929739D01*
X177654637Y-66917159D01*
X177696889Y-66909875D01*
X177706290Y-66908616D01*
X177714807Y-66891763D01*
X177733660Y-66846870D01*
X177759324Y-66782430D01*
X177769123Y-66757192D01*
X177808648Y-66659686D01*
X177855192Y-66551959D01*
X177896877Y-66461172D01*
X177927550Y-66391753D01*
X177947956Y-66334710D01*
X177954768Y-66299777D01*
X177953682Y-66295095D01*
X177939285Y-66272991D01*
X177906412Y-66223831D01*
X177858590Y-66152848D01*
X177799348Y-66065278D01*
X177732215Y-65966357D01*
X177718941Y-65946830D01*
X177641046Y-65831140D01*
X177583787Y-65743044D01*
X177544881Y-65678486D01*
X177522044Y-65633411D01*
X177512994Y-65603763D01*
X177515448Y-65585485D01*
X177515511Y-65585369D01*
X177534827Y-65561361D01*
X177577551Y-65514947D01*
X177639051Y-65450937D01*
X177714698Y-65374145D01*
X177799861Y-65289382D01*
X177809465Y-65279922D01*
X177916790Y-65175989D01*
X177999615Y-65099675D01*
X178059605Y-65049571D01*
X178098423Y-65024270D01*
X178115520Y-65021004D01*
X178140473Y-65035250D01*
X178192255Y-65068156D01*
X178265520Y-65116208D01*
X178354920Y-65175890D01*
X178455111Y-65243688D01*
X178478501Y-65259639D01*
X178810593Y-65486420D01*
X178960565Y-65418353D01*
X179051770Y-65378685D01*
X179149669Y-65338791D01*
X179233831Y-65306983D01*
X179237538Y-65305674D01*
X179303369Y-65281576D01*
X179354116Y-65261200D01*
X179378842Y-65248936D01*
X179378884Y-65248901D01*
X179386729Y-65226734D01*
X179400066Y-65172217D01*
X179417570Y-65091480D01*
X179437917Y-64990650D01*
X179459782Y-64875856D01*
X179461571Y-64866178D01*
X179483504Y-64747904D01*
X179503640Y-64640542D01*
X179520680Y-64550917D01*
X179533328Y-64485851D01*
X179540284Y-64452168D01*
X179540406Y-64451654D01*
X179544639Y-64437325D01*
X179552871Y-64426507D01*
X179570033Y-64418706D01*
X179601058Y-64413429D01*
X179650878Y-64410182D01*
X179724424Y-64408472D01*
X179826629Y-64407807D01*
X179962425Y-64407693D01*
X179980000Y-64407692D01*
X180119878Y-64407776D01*
G36*
X179139846Y-70612120D02*
G01*
X179145572Y-70691980D01*
X179152149Y-70739039D01*
X179161262Y-70759566D01*
X179174598Y-70759829D01*
X179178923Y-70757378D01*
X179236444Y-70739636D01*
X179311268Y-70740672D01*
X179387339Y-70758910D01*
X179434918Y-70782505D01*
X179483702Y-70820198D01*
X179519364Y-70862855D01*
X179543845Y-70917057D01*
X179559087Y-70989384D01*
X179567030Y-71086419D01*
X179569616Y-71214742D01*
X179569662Y-71239358D01*
X179569692Y-71515870D01*
X179508161Y-71537320D01*
X179464459Y-71551912D01*
X179440482Y-71558706D01*
X179439777Y-71558769D01*
X179437415Y-71540345D01*
X179435406Y-71489526D01*
X179433901Y-71412993D01*
X179433053Y-71317430D01*
X179432923Y-71259329D01*
X179432651Y-71144771D01*
X179431252Y-71062667D01*
X179427849Y-71006393D01*
X179421567Y-70969326D01*
X179411529Y-70944844D01*
X179396861Y-70926325D01*
X179387702Y-70917406D01*
X179324789Y-70881466D01*
X179256136Y-70878775D01*
X179193848Y-70909170D01*
X179182329Y-70920144D01*
X179165433Y-70940779D01*
X179153714Y-70965256D01*
X179146233Y-71000647D01*
X179142054Y-71054026D01*
X179140237Y-71132466D01*
X179139846Y-71240617D01*
X179139846Y-71515870D01*
X179078315Y-71537320D01*
X179034613Y-71551912D01*
X179010636Y-71558706D01*
X179009930Y-71558769D01*
X179008126Y-71540069D01*
X179006500Y-71487322D01*
X179005117Y-71405557D01*
X179004042Y-71299805D01*
X179003340Y-71175094D01*
X179003077Y-71036455D01*
X179003077Y-70501806D01*
X179130077Y-70448236D01*
X179139846Y-70612120D01*
G37*
X179139846Y-70612120D02*
X179145572Y-70691980D01*
X179152149Y-70739039D01*
X179161262Y-70759566D01*
X179174598Y-70759829D01*
X179178923Y-70757378D01*
X179236444Y-70739636D01*
X179311268Y-70740672D01*
X179387339Y-70758910D01*
X179434918Y-70782505D01*
X179483702Y-70820198D01*
X179519364Y-70862855D01*
X179543845Y-70917057D01*
X179559087Y-70989384D01*
X179567030Y-71086419D01*
X179569616Y-71214742D01*
X179569662Y-71239358D01*
X179569692Y-71515870D01*
X179508161Y-71537320D01*
X179464459Y-71551912D01*
X179440482Y-71558706D01*
X179439777Y-71558769D01*
X179437415Y-71540345D01*
X179435406Y-71489526D01*
X179433901Y-71412993D01*
X179433053Y-71317430D01*
X179432923Y-71259329D01*
X179432651Y-71144771D01*
X179431252Y-71062667D01*
X179427849Y-71006393D01*
X179421567Y-70969326D01*
X179411529Y-70944844D01*
X179396861Y-70926325D01*
X179387702Y-70917406D01*
X179324789Y-70881466D01*
X179256136Y-70878775D01*
X179193848Y-70909170D01*
X179182329Y-70920144D01*
X179165433Y-70940779D01*
X179153714Y-70965256D01*
X179146233Y-71000647D01*
X179142054Y-71054026D01*
X179140237Y-71132466D01*
X179139846Y-71240617D01*
X179139846Y-71515870D01*
X179078315Y-71537320D01*
X179034613Y-71551912D01*
X179010636Y-71558706D01*
X179009930Y-71558769D01*
X179008126Y-71540069D01*
X179006500Y-71487322D01*
X179005117Y-71405557D01*
X179004042Y-71299805D01*
X179003340Y-71175094D01*
X179003077Y-71036455D01*
X179003077Y-70501806D01*
X179130077Y-70448236D01*
X179139846Y-70612120D01*
G36*
X177114778Y-70861055D02*
G01*
X177160421Y-70795215D01*
X177242802Y-70728681D01*
X177333546Y-70695676D01*
X177426185Y-70693573D01*
X177514254Y-70719745D01*
X177591286Y-70771567D01*
X177650816Y-70846412D01*
X177686378Y-70941654D01*
X177693571Y-71011756D01*
X177692754Y-71041009D01*
X177685914Y-71063407D01*
X177667112Y-71083474D01*
X177630408Y-71105733D01*
X177569862Y-71134709D01*
X177479534Y-71174927D01*
X177479077Y-71175129D01*
X177395933Y-71213210D01*
X177327753Y-71247025D01*
X177281505Y-71272933D01*
X177264158Y-71287295D01*
X177264154Y-71287411D01*
X177279443Y-71318685D01*
X177315196Y-71353157D01*
X177356242Y-71377990D01*
X177377037Y-71382923D01*
X177433770Y-71365862D01*
X177482627Y-71323133D01*
X177506465Y-71276155D01*
X177529397Y-71241522D01*
X177574318Y-71202081D01*
X177627123Y-71168009D01*
X177673710Y-71149480D01*
X177683452Y-71148462D01*
X177694418Y-71165215D01*
X177695079Y-71208039D01*
X177687020Y-71265781D01*
X177671827Y-71327289D01*
X177651086Y-71381409D01*
X177650038Y-71383510D01*
X177587621Y-71470660D01*
X177506726Y-71529939D01*
X177414856Y-71559034D01*
X177319513Y-71555634D01*
X177228198Y-71517428D01*
X177224138Y-71514741D01*
X177152306Y-71449642D01*
X177105073Y-71364705D01*
X177078934Y-71253021D01*
X177075426Y-71221643D01*
X177069213Y-71073536D01*
X177076661Y-71004468D01*
X177264154Y-71004468D01*
X177266590Y-71047552D01*
X177279914Y-71060126D01*
X177313132Y-71050719D01*
X177365494Y-71028483D01*
X177424024Y-71000610D01*
X177425479Y-70999872D01*
X177475089Y-70973777D01*
X177495000Y-70956363D01*
X177490090Y-70938107D01*
X177469416Y-70914120D01*
X177416819Y-70879406D01*
X177360177Y-70876856D01*
X177309369Y-70902119D01*
X177274276Y-70950847D01*
X177264154Y-71004468D01*
X177076661Y-71004468D01*
X177081992Y-70955036D01*
X177114778Y-70861055D01*
G37*
X177114778Y-70861055D02*
X177160421Y-70795215D01*
X177242802Y-70728681D01*
X177333546Y-70695676D01*
X177426185Y-70693573D01*
X177514254Y-70719745D01*
X177591286Y-70771567D01*
X177650816Y-70846412D01*
X177686378Y-70941654D01*
X177693571Y-71011756D01*
X177692754Y-71041009D01*
X177685914Y-71063407D01*
X177667112Y-71083474D01*
X177630408Y-71105733D01*
X177569862Y-71134709D01*
X177479534Y-71174927D01*
X177479077Y-71175129D01*
X177395933Y-71213210D01*
X177327753Y-71247025D01*
X177281505Y-71272933D01*
X177264158Y-71287295D01*
X177264154Y-71287411D01*
X177279443Y-71318685D01*
X177315196Y-71353157D01*
X177356242Y-71377990D01*
X177377037Y-71382923D01*
X177433770Y-71365862D01*
X177482627Y-71323133D01*
X177506465Y-71276155D01*
X177529397Y-71241522D01*
X177574318Y-71202081D01*
X177627123Y-71168009D01*
X177673710Y-71149480D01*
X177683452Y-71148462D01*
X177694418Y-71165215D01*
X177695079Y-71208039D01*
X177687020Y-71265781D01*
X177671827Y-71327289D01*
X177651086Y-71381409D01*
X177650038Y-71383510D01*
X177587621Y-71470660D01*
X177506726Y-71529939D01*
X177414856Y-71559034D01*
X177319513Y-71555634D01*
X177228198Y-71517428D01*
X177224138Y-71514741D01*
X177152306Y-71449642D01*
X177105073Y-71364705D01*
X177078934Y-71253021D01*
X177075426Y-71221643D01*
X177069213Y-71073536D01*
X177076661Y-71004468D01*
X177264154Y-71004468D01*
X177266590Y-71047552D01*
X177279914Y-71060126D01*
X177313132Y-71050719D01*
X177365494Y-71028483D01*
X177424024Y-71000610D01*
X177425479Y-70999872D01*
X177475089Y-70973777D01*
X177495000Y-70956363D01*
X177490090Y-70938107D01*
X177469416Y-70914120D01*
X177416819Y-70879406D01*
X177360177Y-70876856D01*
X177309369Y-70902119D01*
X177274276Y-70950847D01*
X177264154Y-71004468D01*
X177076661Y-71004468D01*
X177081992Y-70955036D01*
X177114778Y-70861055D01*
G36*
X183841032Y-70940710D02*
G01*
X183859460Y-70875167D01*
X183889360Y-70826912D01*
X183933080Y-70788767D01*
X183952141Y-70776440D01*
X184038726Y-70744336D01*
X184133522Y-70742316D01*
X184225224Y-70767838D01*
X184302528Y-70818361D01*
X184339814Y-70863590D01*
X184369353Y-70945663D01*
X184371699Y-71010607D01*
X184366385Y-71097445D01*
X184166115Y-71185103D01*
X184068739Y-71229887D01*
X184005113Y-71265913D01*
X183972029Y-71297117D01*
X183966280Y-71327436D01*
X183984658Y-71360805D01*
X184004923Y-71382923D01*
X184063889Y-71418393D01*
X184128024Y-71420879D01*
X184186926Y-71393235D01*
X184230197Y-71338320D01*
X184237936Y-71318928D01*
X184275006Y-71258364D01*
X184317654Y-71232552D01*
X184376154Y-71210471D01*
X184376154Y-71294184D01*
X184370982Y-71351150D01*
X184350723Y-71399189D01*
X184308262Y-71454346D01*
X184301951Y-71461514D01*
X184254720Y-71510585D01*
X184214121Y-71536920D01*
X184163328Y-71549035D01*
X184121220Y-71553003D01*
X184045902Y-71553991D01*
X183992286Y-71541466D01*
X183958838Y-71522869D01*
X183906268Y-71481975D01*
X183869879Y-71437748D01*
X183846850Y-71382126D01*
X183834359Y-71307047D01*
X183829587Y-71204449D01*
X183829206Y-71152376D01*
X183830501Y-71089948D01*
X183948471Y-71089948D01*
X183949839Y-71123438D01*
X183953249Y-71128923D01*
X183975753Y-71121472D01*
X184024182Y-71101753D01*
X184088908Y-71073718D01*
X184102443Y-71067692D01*
X184184244Y-71026096D01*
X184229312Y-70989538D01*
X184239217Y-70955296D01*
X184215526Y-70920648D01*
X184195960Y-70905339D01*
X184125360Y-70874721D01*
X184059280Y-70879780D01*
X184003959Y-70917151D01*
X183965636Y-70983473D01*
X183953349Y-71036116D01*
X183948471Y-71089948D01*
X183830501Y-71089948D01*
X183831730Y-71030720D01*
X183841032Y-70940710D01*
G37*
X183841032Y-70940710D02*
X183859460Y-70875167D01*
X183889360Y-70826912D01*
X183933080Y-70788767D01*
X183952141Y-70776440D01*
X184038726Y-70744336D01*
X184133522Y-70742316D01*
X184225224Y-70767838D01*
X184302528Y-70818361D01*
X184339814Y-70863590D01*
X184369353Y-70945663D01*
X184371699Y-71010607D01*
X184366385Y-71097445D01*
X184166115Y-71185103D01*
X184068739Y-71229887D01*
X184005113Y-71265913D01*
X183972029Y-71297117D01*
X183966280Y-71327436D01*
X183984658Y-71360805D01*
X184004923Y-71382923D01*
X184063889Y-71418393D01*
X184128024Y-71420879D01*
X184186926Y-71393235D01*
X184230197Y-71338320D01*
X184237936Y-71318928D01*
X184275006Y-71258364D01*
X184317654Y-71232552D01*
X184376154Y-71210471D01*
X184376154Y-71294184D01*
X184370982Y-71351150D01*
X184350723Y-71399189D01*
X184308262Y-71454346D01*
X184301951Y-71461514D01*
X184254720Y-71510585D01*
X184214121Y-71536920D01*
X184163328Y-71549035D01*
X184121220Y-71553003D01*
X184045902Y-71553991D01*
X183992286Y-71541466D01*
X183958838Y-71522869D01*
X183906268Y-71481975D01*
X183869879Y-71437748D01*
X183846850Y-71382126D01*
X183834359Y-71307047D01*
X183829587Y-71204449D01*
X183829206Y-71152376D01*
X183830501Y-71089948D01*
X183948471Y-71089948D01*
X183949839Y-71123438D01*
X183953249Y-71128923D01*
X183975753Y-71121472D01*
X184024182Y-71101753D01*
X184088908Y-71073718D01*
X184102443Y-71067692D01*
X184184244Y-71026096D01*
X184229312Y-70989538D01*
X184239217Y-70955296D01*
X184215526Y-70920648D01*
X184195960Y-70905339D01*
X184125360Y-70874721D01*
X184059280Y-70879780D01*
X184003959Y-70917151D01*
X183965636Y-70983473D01*
X183953349Y-71036116D01*
X183948471Y-71089948D01*
X183830501Y-71089948D01*
X183831730Y-71030720D01*
X183841032Y-70940710D01*
G36*
X181036362Y-70933577D02*
G01*
X181066528Y-70864269D01*
X181113629Y-70810211D01*
X181150312Y-70782505D01*
X181216990Y-70752572D01*
X181294272Y-70738678D01*
X181366110Y-70742397D01*
X181406308Y-70757400D01*
X181422082Y-70761670D01*
X181432550Y-70745750D01*
X181439856Y-70703089D01*
X181445385Y-70638106D01*
X181451437Y-70565732D01*
X181459844Y-70522187D01*
X181475141Y-70497287D01*
X181501864Y-70480845D01*
X181518654Y-70473564D01*
X181582154Y-70446963D01*
X181582081Y-70900289D01*
X181581833Y-71046320D01*
X181580872Y-71158655D01*
X181578794Y-71242678D01*
X181575193Y-71303769D01*
X181569665Y-71347309D01*
X181561804Y-71378679D01*
X181551207Y-71403262D01*
X181543182Y-71417294D01*
X181476728Y-71493388D01*
X181392470Y-71541084D01*
X181299249Y-71558199D01*
X181205900Y-71542546D01*
X181150312Y-71514418D01*
X181091957Y-71465760D01*
X181052186Y-71406333D01*
X181028190Y-71328507D01*
X181017161Y-71224652D01*
X181015599Y-71148462D01*
X181015809Y-71142986D01*
X181152308Y-71142986D01*
X181153141Y-71230355D01*
X181156961Y-71288192D01*
X181165746Y-71326029D01*
X181181474Y-71353398D01*
X181200266Y-71374042D01*
X181263375Y-71413890D01*
X181331137Y-71417295D01*
X181395179Y-71384025D01*
X181400164Y-71379517D01*
X181421439Y-71356067D01*
X181434779Y-71328166D01*
X181442001Y-71286641D01*
X181444923Y-71222316D01*
X181445385Y-71151200D01*
X181444383Y-71061858D01*
X181440238Y-71002258D01*
X181431236Y-70963089D01*
X181415667Y-70935040D01*
X181402902Y-70920144D01*
X181343600Y-70882575D01*
X181275301Y-70878057D01*
X181210110Y-70906753D01*
X181197528Y-70917406D01*
X181176111Y-70941063D01*
X181162744Y-70969251D01*
X181155566Y-71011245D01*
X181152719Y-71076319D01*
X181152308Y-71142986D01*
X181015809Y-71142986D01*
X181020322Y-71025765D01*
X181036362Y-70933577D01*
G37*
X181036362Y-70933577D02*
X181066528Y-70864269D01*
X181113629Y-70810211D01*
X181150312Y-70782505D01*
X181216990Y-70752572D01*
X181294272Y-70738678D01*
X181366110Y-70742397D01*
X181406308Y-70757400D01*
X181422082Y-70761670D01*
X181432550Y-70745750D01*
X181439856Y-70703089D01*
X181445385Y-70638106D01*
X181451437Y-70565732D01*
X181459844Y-70522187D01*
X181475141Y-70497287D01*
X181501864Y-70480845D01*
X181518654Y-70473564D01*
X181582154Y-70446963D01*
X181582081Y-70900289D01*
X181581833Y-71046320D01*
X181580872Y-71158655D01*
X181578794Y-71242678D01*
X181575193Y-71303769D01*
X181569665Y-71347309D01*
X181561804Y-71378679D01*
X181551207Y-71403262D01*
X181543182Y-71417294D01*
X181476728Y-71493388D01*
X181392470Y-71541084D01*
X181299249Y-71558199D01*
X181205900Y-71542546D01*
X181150312Y-71514418D01*
X181091957Y-71465760D01*
X181052186Y-71406333D01*
X181028190Y-71328507D01*
X181017161Y-71224652D01*
X181015599Y-71148462D01*
X181015809Y-71142986D01*
X181152308Y-71142986D01*
X181153141Y-71230355D01*
X181156961Y-71288192D01*
X181165746Y-71326029D01*
X181181474Y-71353398D01*
X181200266Y-71374042D01*
X181263375Y-71413890D01*
X181331137Y-71417295D01*
X181395179Y-71384025D01*
X181400164Y-71379517D01*
X181421439Y-71356067D01*
X181434779Y-71328166D01*
X181442001Y-71286641D01*
X181444923Y-71222316D01*
X181445385Y-71151200D01*
X181444383Y-71061858D01*
X181440238Y-71002258D01*
X181431236Y-70963089D01*
X181415667Y-70935040D01*
X181402902Y-70920144D01*
X181343600Y-70882575D01*
X181275301Y-70878057D01*
X181210110Y-70906753D01*
X181197528Y-70917406D01*
X181176111Y-70941063D01*
X181162744Y-70969251D01*
X181155566Y-71011245D01*
X181152719Y-71076319D01*
X181152308Y-71142986D01*
X181015809Y-71142986D01*
X181020322Y-71025765D01*
X181036362Y-70933577D01*
G36*
X178251664Y-70715089D02*
G01*
X178314367Y-70751358D01*
X178357961Y-70787358D01*
X178389845Y-70825075D01*
X178411810Y-70871199D01*
X178425649Y-70932421D01*
X178433153Y-71015431D01*
X178436117Y-71126919D01*
X178436461Y-71207062D01*
X178436461Y-71502065D01*
X178270385Y-71576515D01*
X178260615Y-71253402D01*
X178256579Y-71132729D01*
X178252344Y-71045141D01*
X178247097Y-70984650D01*
X178240025Y-70945268D01*
X178230311Y-70921007D01*
X178217144Y-70905880D01*
X178212919Y-70902606D01*
X178148909Y-70877034D01*
X178084208Y-70887153D01*
X178045692Y-70914000D01*
X178030025Y-70933024D01*
X178019180Y-70957988D01*
X178012288Y-70995834D01*
X178008479Y-71053502D01*
X178006883Y-71137935D01*
X178006615Y-71225928D01*
X178006563Y-71336323D01*
X178004672Y-71414463D01*
X177998345Y-71467165D01*
X177984983Y-71501242D01*
X177961985Y-71523511D01*
X177926754Y-71540787D01*
X177879697Y-71558738D01*
X177828303Y-71578278D01*
X177834421Y-71231485D01*
X177836884Y-71106468D01*
X177839767Y-71014082D01*
X177843898Y-70947881D01*
X177850107Y-70901420D01*
X177859226Y-70868256D01*
X177872083Y-70841944D01*
X177887584Y-70818729D01*
X177962371Y-70744569D01*
X178053628Y-70701684D01*
X178152883Y-70691412D01*
X178251664Y-70715089D01*
G37*
X178251664Y-70715089D02*
X178314367Y-70751358D01*
X178357961Y-70787358D01*
X178389845Y-70825075D01*
X178411810Y-70871199D01*
X178425649Y-70932421D01*
X178433153Y-71015431D01*
X178436117Y-71126919D01*
X178436461Y-71207062D01*
X178436461Y-71502065D01*
X178270385Y-71576515D01*
X178260615Y-71253402D01*
X178256579Y-71132729D01*
X178252344Y-71045141D01*
X178247097Y-70984650D01*
X178240025Y-70945268D01*
X178230311Y-70921007D01*
X178217144Y-70905880D01*
X178212919Y-70902606D01*
X178148909Y-70877034D01*
X178084208Y-70887153D01*
X178045692Y-70914000D01*
X178030025Y-70933024D01*
X178019180Y-70957988D01*
X178012288Y-70995834D01*
X178008479Y-71053502D01*
X178006883Y-71137935D01*
X178006615Y-71225928D01*
X178006563Y-71336323D01*
X178004672Y-71414463D01*
X177998345Y-71467165D01*
X177984983Y-71501242D01*
X177961985Y-71523511D01*
X177926754Y-71540787D01*
X177879697Y-71558738D01*
X177828303Y-71578278D01*
X177834421Y-71231485D01*
X177836884Y-71106468D01*
X177839767Y-71014082D01*
X177843898Y-70947881D01*
X177850107Y-70901420D01*
X177859226Y-70868256D01*
X177872083Y-70841944D01*
X177887584Y-70818729D01*
X177962371Y-70744569D01*
X178053628Y-70701684D01*
X178152883Y-70691412D01*
X178251664Y-70715089D01*
G36*
X183550807Y-70756782D02*
G01*
X183574161Y-70766988D01*
X183629902Y-70811134D01*
X183677569Y-70874967D01*
X183707048Y-70943087D01*
X183711846Y-70976670D01*
X183695760Y-71023556D01*
X183660475Y-71048365D01*
X183622644Y-71063387D01*
X183605321Y-71066155D01*
X183596886Y-71046066D01*
X183580230Y-71002351D01*
X183572923Y-70982598D01*
X183531948Y-70914271D01*
X183472622Y-70880191D01*
X183396552Y-70881239D01*
X183390918Y-70882581D01*
X183350305Y-70901836D01*
X183320448Y-70939375D01*
X183300055Y-70999809D01*
X183287836Y-71087751D01*
X183282500Y-71207813D01*
X183282000Y-71271698D01*
X183281752Y-71372403D01*
X183280126Y-71441054D01*
X183275801Y-71484673D01*
X183267454Y-71510282D01*
X183253765Y-71524903D01*
X183233411Y-71535558D01*
X183232234Y-71536095D01*
X183193038Y-71552667D01*
X183173619Y-71558769D01*
X183170635Y-71540319D01*
X183168081Y-71489323D01*
X183166140Y-71412308D01*
X183164997Y-71315805D01*
X183164769Y-71245184D01*
X183165932Y-71108525D01*
X183170479Y-71004851D01*
X183179999Y-70928108D01*
X183196081Y-70872246D01*
X183220313Y-70831212D01*
X183254286Y-70798954D01*
X183287833Y-70776440D01*
X183368499Y-70746476D01*
X183462381Y-70739718D01*
X183550807Y-70756782D01*
G37*
X183550807Y-70756782D02*
X183574161Y-70766988D01*
X183629902Y-70811134D01*
X183677569Y-70874967D01*
X183707048Y-70943087D01*
X183711846Y-70976670D01*
X183695760Y-71023556D01*
X183660475Y-71048365D01*
X183622644Y-71063387D01*
X183605321Y-71066155D01*
X183596886Y-71046066D01*
X183580230Y-71002351D01*
X183572923Y-70982598D01*
X183531948Y-70914271D01*
X183472622Y-70880191D01*
X183396552Y-70881239D01*
X183390918Y-70882581D01*
X183350305Y-70901836D01*
X183320448Y-70939375D01*
X183300055Y-70999809D01*
X183287836Y-71087751D01*
X183282500Y-71207813D01*
X183282000Y-71271698D01*
X183281752Y-71372403D01*
X183280126Y-71441054D01*
X183275801Y-71484673D01*
X183267454Y-71510282D01*
X183253765Y-71524903D01*
X183233411Y-71535558D01*
X183232234Y-71536095D01*
X183193038Y-71552667D01*
X183173619Y-71558769D01*
X183170635Y-71540319D01*
X183168081Y-71489323D01*
X183166140Y-71412308D01*
X183164997Y-71315805D01*
X183164769Y-71245184D01*
X183165932Y-71108525D01*
X183170479Y-71004851D01*
X183179999Y-70928108D01*
X183196081Y-70872246D01*
X183220313Y-70831212D01*
X183254286Y-70798954D01*
X183287833Y-70776440D01*
X183368499Y-70746476D01*
X183462381Y-70739718D01*
X183550807Y-70756782D01*
D13*
%TO.C,U7*%
X216200000Y-85290000D02*
X214800000Y-85290000D01*
X214800000Y-87610000D02*
X216700000Y-87610000D01*
%TO.C,U6*%
X216045000Y-75840000D02*
X214645000Y-75840000D01*
X214645000Y-78160000D02*
X216545000Y-78160000D01*
%TD*%
M02*
