%TF.GenerationSoftware,KiCad,Pcbnew,6.0.11-2627ca5db0~126~ubuntu22.04.1*%
%TF.CreationDate,2023-02-18T04:23:51-05:00*%
%TF.ProjectId,lin-flow-sensor,6c696e2d-666c-46f7-972d-73656e736f72,1.0*%
%TF.SameCoordinates,Original*%
%TF.FileFunction,Soldermask,Top*%
%TF.FilePolarity,Negative*%
%FSLAX46Y46*%
G04 Gerber Fmt 4.6, Leading zero omitted, Abs format (unit mm)*
G04 Created by KiCad (PCBNEW 6.0.11-2627ca5db0~126~ubuntu22.04.1) date 2023-02-18 04:23:51*
%MOMM*%
%LPD*%
G01*
G04 APERTURE LIST*
G04 Aperture macros list*
%AMRoundRect*
0 Rectangle with rounded corners*
0 $1 Rounding radius*
0 $2 $3 $4 $5 $6 $7 $8 $9 X,Y pos of 4 corners*
0 Add a 4 corners polygon primitive as box body*
4,1,4,$2,$3,$4,$5,$6,$7,$8,$9,$2,$3,0*
0 Add four circle primitives for the rounded corners*
1,1,$1+$1,$2,$3*
1,1,$1+$1,$4,$5*
1,1,$1+$1,$6,$7*
1,1,$1+$1,$8,$9*
0 Add four rect primitives between the rounded corners*
20,1,$1+$1,$2,$3,$4,$5,0*
20,1,$1+$1,$4,$5,$6,$7,0*
20,1,$1+$1,$6,$7,$8,$9,0*
20,1,$1+$1,$8,$9,$2,$3,0*%
%AMFreePoly0*
4,1,6,1.000000,0.000000,0.500000,-0.750000,-0.500000,-0.750000,-0.500000,0.750000,0.500000,0.750000,1.000000,0.000000,1.000000,0.000000,$1*%
%AMFreePoly1*
4,1,6,0.500000,-0.750000,-0.650000,-0.750000,-0.150000,0.000000,-0.650000,0.750000,0.500000,0.750000,0.500000,-0.750000,0.500000,-0.750000,$1*%
G04 Aperture macros list end*
%ADD10RoundRect,0.250000X0.337500X0.475000X-0.337500X0.475000X-0.337500X-0.475000X0.337500X-0.475000X0*%
%ADD11R,1.500000X0.400000*%
%ADD12R,2.100000X2.100000*%
%ADD13C,2.100000*%
%ADD14RoundRect,0.250000X0.350000X0.450000X-0.350000X0.450000X-0.350000X-0.450000X0.350000X-0.450000X0*%
%ADD15RoundRect,0.250000X-0.475000X0.337500X-0.475000X-0.337500X0.475000X-0.337500X0.475000X0.337500X0*%
%ADD16RoundRect,0.250000X0.450000X-0.350000X0.450000X0.350000X-0.450000X0.350000X-0.450000X-0.350000X0*%
%ADD17RoundRect,0.250000X1.450000X-0.400000X1.450000X0.400000X-1.450000X0.400000X-1.450000X-0.400000X0*%
%ADD18R,3.500000X1.800000*%
%ADD19RoundRect,0.250000X0.425000X-0.537500X0.425000X0.537500X-0.425000X0.537500X-0.425000X-0.537500X0*%
%ADD20R,1.700000X1.700000*%
%ADD21O,1.700000X1.700000*%
%ADD22RoundRect,0.150000X0.150000X-0.825000X0.150000X0.825000X-0.150000X0.825000X-0.150000X-0.825000X0*%
%ADD23RoundRect,0.150000X0.150000X-0.587500X0.150000X0.587500X-0.150000X0.587500X-0.150000X-0.587500X0*%
%ADD24RoundRect,0.250000X-0.337500X-0.475000X0.337500X-0.475000X0.337500X0.475000X-0.337500X0.475000X0*%
%ADD25RoundRect,0.100000X-0.637500X-0.100000X0.637500X-0.100000X0.637500X0.100000X-0.637500X0.100000X0*%
%ADD26RoundRect,0.250000X0.412500X1.100000X-0.412500X1.100000X-0.412500X-1.100000X0.412500X-1.100000X0*%
%ADD27RoundRect,0.250000X-0.350000X-0.450000X0.350000X-0.450000X0.350000X0.450000X-0.350000X0.450000X0*%
%ADD28R,1.100000X0.400000*%
%ADD29R,2.590800X5.003800*%
%ADD30FreePoly0,0.000000*%
%ADD31FreePoly1,0.000000*%
%ADD32RoundRect,0.250000X0.450000X-0.325000X0.450000X0.325000X-0.450000X0.325000X-0.450000X-0.325000X0*%
%ADD33R,1.200000X0.900000*%
%ADD34RoundRect,0.150000X-0.650000X-0.150000X0.650000X-0.150000X0.650000X0.150000X-0.650000X0.150000X0*%
%ADD35R,2.400000X3.200000*%
%ADD36R,0.812800X0.254000*%
%ADD37R,1.752600X2.489200*%
%ADD38R,1.879600X1.879600*%
%ADD39C,1.879600*%
G04 APERTURE END LIST*
D10*
%TO.C,C1*%
X205300000Y-89775000D03*
X203225000Y-89775000D03*
%TD*%
D11*
%TO.C,U7*%
X216830000Y-87100000D03*
X216830000Y-86450000D03*
X216830000Y-85800000D03*
X214170000Y-85800000D03*
X214170000Y-87100000D03*
%TD*%
%TO.C,U6*%
X216675000Y-77650000D03*
X216675000Y-77000000D03*
X216675000Y-76350000D03*
X214015000Y-76350000D03*
X214015000Y-77650000D03*
%TD*%
D12*
%TO.C,J5*%
X224725000Y-83025000D03*
D13*
X224725000Y-85565000D03*
X224725000Y-88105000D03*
%TD*%
%TO.C,J4*%
X224725000Y-78680000D03*
X224725000Y-76140000D03*
D12*
X224725000Y-73600000D03*
%TD*%
D14*
%TO.C,R13*%
X207000000Y-73900000D03*
X205000000Y-73900000D03*
%TD*%
D15*
%TO.C,C10*%
X178350000Y-68262500D03*
X178350000Y-70337500D03*
%TD*%
D16*
%TO.C,R6*%
X218925000Y-97850000D03*
X218925000Y-95850000D03*
%TD*%
D17*
%TO.C,F1*%
X218700000Y-64700000D03*
X218700000Y-60250000D03*
%TD*%
D18*
%TO.C,D3*%
X197800000Y-64500000D03*
X202800000Y-64500000D03*
%TD*%
D10*
%TO.C,C11*%
X180625000Y-76400000D03*
X178550000Y-76400000D03*
%TD*%
%TO.C,C5*%
X200200000Y-68900000D03*
X198125000Y-68900000D03*
%TD*%
D19*
%TO.C,C9*%
X178350000Y-65787500D03*
X178350000Y-62912500D03*
%TD*%
D20*
%TO.C,J2*%
X180150000Y-82100000D03*
D21*
X182690000Y-82100000D03*
X185230000Y-82100000D03*
X187770000Y-82100000D03*
%TD*%
D22*
%TO.C,U1*%
X196670000Y-89800000D03*
X197940000Y-89800000D03*
X199210000Y-89800000D03*
X200480000Y-89800000D03*
X200480000Y-84850000D03*
X199210000Y-84850000D03*
X197940000Y-84850000D03*
X196670000Y-84850000D03*
%TD*%
D23*
%TO.C,Q1*%
X187400000Y-88475000D03*
X189300000Y-88475000D03*
X188350000Y-86600000D03*
%TD*%
D24*
%TO.C,C3*%
X183637500Y-78975000D03*
X185712500Y-78975000D03*
%TD*%
D25*
%TO.C,U2*%
X203237500Y-91975000D03*
X203237500Y-92625000D03*
X203237500Y-93275000D03*
X203237500Y-93925000D03*
X203237500Y-94575000D03*
X203237500Y-95225000D03*
X203237500Y-95875000D03*
X208962500Y-95875000D03*
X208962500Y-95225000D03*
X208962500Y-94575000D03*
X208962500Y-93925000D03*
X208962500Y-93275000D03*
X208962500Y-92625000D03*
X208962500Y-91975000D03*
%TD*%
D10*
%TO.C,C6*%
X193437500Y-73900000D03*
X191362500Y-73900000D03*
%TD*%
D26*
%TO.C,C4*%
X214525000Y-66000000D03*
X211400000Y-66000000D03*
%TD*%
D27*
%TO.C,R1*%
X193325000Y-93250000D03*
X195325000Y-93250000D03*
%TD*%
D16*
%TO.C,R5*%
X204025000Y-85350000D03*
X204025000Y-83350000D03*
%TD*%
D28*
%TO.C,U3*%
X185750000Y-92175000D03*
X185750000Y-92825000D03*
X185750000Y-93475000D03*
X185750000Y-94125000D03*
X190050000Y-94125000D03*
X190050000Y-93475000D03*
X190050000Y-92825000D03*
X190050000Y-92175000D03*
%TD*%
D27*
%TO.C,R17*%
X194400000Y-77500000D03*
X196400000Y-77500000D03*
%TD*%
D29*
%TO.C,L1*%
X193100000Y-65700000D03*
X181695400Y-65700000D03*
%TD*%
D16*
%TO.C,R11*%
X188975000Y-78900000D03*
X188975000Y-76900000D03*
%TD*%
D30*
%TO.C,JP1*%
X221450000Y-95550000D03*
D31*
X222900000Y-95550000D03*
%TD*%
D32*
%TO.C,D1*%
X206450000Y-85350000D03*
X206450000Y-83300000D03*
%TD*%
D33*
%TO.C,D2*%
X216400000Y-97875000D03*
X216400000Y-94575000D03*
%TD*%
D34*
%TO.C,U5*%
X196550000Y-71295000D03*
X196550000Y-72565000D03*
X196550000Y-73835000D03*
X196550000Y-75105000D03*
X201850000Y-75105000D03*
X201850000Y-73835000D03*
X201850000Y-72565000D03*
X201850000Y-71295000D03*
D35*
X199200000Y-73200000D03*
%TD*%
D12*
%TO.C,J3*%
X224700000Y-64000000D03*
D13*
X224700000Y-66540000D03*
X224700000Y-69080000D03*
%TD*%
D36*
%TO.C,U4*%
X183252200Y-74849999D03*
X183252200Y-75350001D03*
X183252200Y-75850000D03*
X183252200Y-76349999D03*
X183252200Y-76850001D03*
X186147800Y-76850001D03*
X186147800Y-76349999D03*
X186147800Y-75850000D03*
X186147800Y-75350001D03*
X186147800Y-74849999D03*
D37*
X184700000Y-75850000D03*
%TD*%
D23*
%TO.C,Q2*%
X183550000Y-88525000D03*
X185450000Y-88525000D03*
X184500000Y-86650000D03*
%TD*%
D27*
%TO.C,R15*%
X202000000Y-77200000D03*
X204000000Y-77200000D03*
%TD*%
%TO.C,R2*%
X198675000Y-93775000D03*
X200675000Y-93775000D03*
%TD*%
D38*
%TO.C,J1*%
X226520000Y-91800000D03*
D39*
X223980000Y-91800000D03*
X221440000Y-91800000D03*
X218900000Y-91800000D03*
X216360000Y-91800000D03*
X213820000Y-91800000D03*
%TD*%
M02*
