%TF.GenerationSoftware,KiCad,Pcbnew,6.0.11-2627ca5db0~126~ubuntu22.04.1*%
%TF.CreationDate,2023-03-03T14:45:41-05:00*%
%TF.ProjectId,lin-flow-sensor,6c696e2d-666c-46f7-972d-73656e736f72,1.0*%
%TF.SameCoordinates,Original*%
%TF.FileFunction,Copper,L1,Top*%
%TF.FilePolarity,Positive*%
%FSLAX46Y46*%
G04 Gerber Fmt 4.6, Leading zero omitted, Abs format (unit mm)*
G04 Created by KiCad (PCBNEW 6.0.11-2627ca5db0~126~ubuntu22.04.1) date 2023-03-03 14:45:41*
%MOMM*%
%LPD*%
G01*
G04 APERTURE LIST*
G04 Aperture macros list*
%AMRoundRect*
0 Rectangle with rounded corners*
0 $1 Rounding radius*
0 $2 $3 $4 $5 $6 $7 $8 $9 X,Y pos of 4 corners*
0 Add a 4 corners polygon primitive as box body*
4,1,4,$2,$3,$4,$5,$6,$7,$8,$9,$2,$3,0*
0 Add four circle primitives for the rounded corners*
1,1,$1+$1,$2,$3*
1,1,$1+$1,$4,$5*
1,1,$1+$1,$6,$7*
1,1,$1+$1,$8,$9*
0 Add four rect primitives between the rounded corners*
20,1,$1+$1,$2,$3,$4,$5,0*
20,1,$1+$1,$4,$5,$6,$7,0*
20,1,$1+$1,$6,$7,$8,$9,0*
20,1,$1+$1,$8,$9,$2,$3,0*%
G04 Aperture macros list end*
%TA.AperFunction,ComponentPad*%
%ADD10R,2.100000X2.100000*%
%TD*%
%TA.AperFunction,ComponentPad*%
%ADD11C,2.100000*%
%TD*%
%TA.AperFunction,ComponentPad*%
%ADD12R,1.879600X1.879600*%
%TD*%
%TA.AperFunction,ComponentPad*%
%ADD13C,1.879600*%
%TD*%
%TA.AperFunction,SMDPad,CuDef*%
%ADD14RoundRect,0.150000X0.150000X-0.587500X0.150000X0.587500X-0.150000X0.587500X-0.150000X-0.587500X0*%
%TD*%
%TA.AperFunction,ComponentPad*%
%ADD15O,1.700000X1.700000*%
%TD*%
%TA.AperFunction,ComponentPad*%
%ADD16R,1.700000X1.700000*%
%TD*%
%TA.AperFunction,SMDPad,CuDef*%
%ADD17RoundRect,0.250000X0.400000X1.450000X-0.400000X1.450000X-0.400000X-1.450000X0.400000X-1.450000X0*%
%TD*%
%TA.AperFunction,SMDPad,CuDef*%
%ADD18RoundRect,0.250000X-0.337500X-0.475000X0.337500X-0.475000X0.337500X0.475000X-0.337500X0.475000X0*%
%TD*%
%TA.AperFunction,SMDPad,CuDef*%
%ADD19RoundRect,0.250000X-0.475000X0.337500X-0.475000X-0.337500X0.475000X-0.337500X0.475000X0.337500X0*%
%TD*%
%TA.AperFunction,SMDPad,CuDef*%
%ADD20RoundRect,0.250000X0.425000X-0.537500X0.425000X0.537500X-0.425000X0.537500X-0.425000X-0.537500X0*%
%TD*%
%TA.AperFunction,SMDPad,CuDef*%
%ADD21RoundRect,0.250000X0.475000X-0.337500X0.475000X0.337500X-0.475000X0.337500X-0.475000X-0.337500X0*%
%TD*%
%TA.AperFunction,SMDPad,CuDef*%
%ADD22RoundRect,0.250000X-1.100000X0.412500X-1.100000X-0.412500X1.100000X-0.412500X1.100000X0.412500X0*%
%TD*%
%TA.AperFunction,SMDPad,CuDef*%
%ADD23RoundRect,0.150000X0.150000X-0.825000X0.150000X0.825000X-0.150000X0.825000X-0.150000X-0.825000X0*%
%TD*%
%TA.AperFunction,SMDPad,CuDef*%
%ADD24RoundRect,0.100000X-0.637500X-0.100000X0.637500X-0.100000X0.637500X0.100000X-0.637500X0.100000X0*%
%TD*%
%TA.AperFunction,SMDPad,CuDef*%
%ADD25RoundRect,0.250000X-0.350000X-0.450000X0.350000X-0.450000X0.350000X0.450000X-0.350000X0.450000X0*%
%TD*%
%TA.AperFunction,SMDPad,CuDef*%
%ADD26RoundRect,0.250000X0.337500X0.475000X-0.337500X0.475000X-0.337500X-0.475000X0.337500X-0.475000X0*%
%TD*%
%TA.AperFunction,SMDPad,CuDef*%
%ADD27RoundRect,0.250000X0.450000X-0.350000X0.450000X0.350000X-0.450000X0.350000X-0.450000X-0.350000X0*%
%TD*%
%TA.AperFunction,SMDPad,CuDef*%
%ADD28RoundRect,0.250000X0.450000X-0.325000X0.450000X0.325000X-0.450000X0.325000X-0.450000X-0.325000X0*%
%TD*%
%TA.AperFunction,SMDPad,CuDef*%
%ADD29R,1.500000X0.400000*%
%TD*%
%TA.AperFunction,ViaPad*%
%ADD30C,0.800000*%
%TD*%
%TA.AperFunction,Conductor*%
%ADD31C,0.250000*%
%TD*%
%TA.AperFunction,Conductor*%
%ADD32C,1.200000*%
%TD*%
G04 APERTURE END LIST*
D10*
%TO.P,J5,1,Pin_1*%
%TO.N,+5V*%
X224725000Y-83025000D03*
D11*
%TO.P,J5,2,Pin_2*%
%TO.N,GND*%
X224725000Y-85565000D03*
%TO.P,J5,3,Pin_3*%
%TO.N,Net-(J5-Pad3)*%
X224725000Y-88105000D03*
%TD*%
D12*
%TO.P,J1,1,DTR*%
%TO.N,unconnected-(J1-Pad1)*%
X226520000Y-91800000D03*
D13*
%TO.P,J1,2,RXD*%
%TO.N,UPDI*%
X223980000Y-91800000D03*
%TO.P,J1,3,TXD*%
%TO.N,Net-(J1-Pad3)*%
X221440000Y-91800000D03*
%TO.P,J1,4,VCC*%
%TO.N,Net-(JP1-Pad1)*%
X218900000Y-91800000D03*
%TO.P,J1,5,CTS*%
%TO.N,unconnected-(J1-Pad5)*%
X216360000Y-91800000D03*
%TO.P,J1,6,GND*%
%TO.N,GND*%
X213820000Y-91800000D03*
%TD*%
D10*
%TO.P,J3,1,Pin_1*%
%TO.N,+BATT*%
X224700000Y-64000000D03*
D11*
%TO.P,J3,2,Pin_2*%
%TO.N,GND*%
X224700000Y-66540000D03*
%TO.P,J3,3,Pin_3*%
%TO.N,LIN*%
X224700000Y-69080000D03*
%TD*%
D14*
%TO.P,U4,1,GND*%
%TO.N,GND*%
X191730000Y-82845000D03*
%TO.P,U4,2,VO*%
%TO.N,+3V3*%
X193630000Y-82845000D03*
%TO.P,U4,3,VI*%
%TO.N,+5V*%
X192680000Y-80970000D03*
%TD*%
D15*
%TO.P,U3,4,EN*%
%TO.N,unconnected-(U3-Pad4)*%
X187119050Y-70270000D03*
%TO.P,U3,3,Vin*%
%TO.N,+12V*%
X187119050Y-72810000D03*
%TO.P,U3,2,GND*%
%TO.N,GND*%
X187119050Y-75350000D03*
D16*
%TO.P,U3,1,Vout*%
%TO.N,+5V*%
X187119050Y-77890000D03*
%TD*%
D17*
%TO.P,F1,1*%
%TO.N,+BATT*%
X218020000Y-64030000D03*
%TO.P,F1,2*%
%TO.N,+12V*%
X213570000Y-64030000D03*
%TD*%
D18*
%TO.P,C7,1*%
%TO.N,+5V*%
X195525000Y-81160000D03*
%TO.P,C7,2*%
%TO.N,GND*%
X197600000Y-81160000D03*
%TD*%
D19*
%TO.P,C6,1*%
%TO.N,+3V3*%
X193220000Y-84872500D03*
%TO.P,C6,2*%
%TO.N,GND*%
X193220000Y-86947500D03*
%TD*%
D20*
%TO.P,C5,1*%
%TO.N,+5V*%
X179470000Y-78540000D03*
%TO.P,C5,2*%
%TO.N,GND*%
X179470000Y-75665000D03*
%TD*%
D21*
%TO.P,C4,1*%
%TO.N,+5V*%
X181640000Y-78747500D03*
%TO.P,C4,2*%
%TO.N,GND*%
X181640000Y-76672500D03*
%TD*%
D22*
%TO.P,C3,1*%
%TO.N,+12V*%
X213630000Y-67980000D03*
%TO.P,C3,2*%
%TO.N,GND*%
X213630000Y-71105000D03*
%TD*%
D10*
%TO.P,J4,1,Pin_1*%
%TO.N,+5V*%
X224725000Y-73600000D03*
D11*
%TO.P,J4,2,Pin_2*%
%TO.N,GND*%
X224725000Y-76140000D03*
%TO.P,J4,3,Pin_3*%
%TO.N,Net-(J4-Pad3)*%
X224725000Y-78680000D03*
%TD*%
D16*
%TO.P,J2,1,Pin_1*%
%TO.N,GND*%
X180150000Y-82100000D03*
D15*
%TO.P,J2,2,Pin_2*%
%TO.N,+5V*%
X182690000Y-82100000D03*
%TO.P,J2,3,Pin_3*%
%TO.N,SDA5V*%
X185230000Y-82100000D03*
%TO.P,J2,4,Pin_4*%
%TO.N,SCL5V*%
X187770000Y-82100000D03*
%TD*%
D23*
%TO.P,U1,1,RXD*%
%TO.N,RXD*%
X196670000Y-89800000D03*
%TO.P,U1,2,~{SLP}*%
%TO.N,~{LIN_SLP}*%
X197940000Y-89800000D03*
%TO.P,U1,3,~{WAKE}*%
%TO.N,~{LIN_WAKE}*%
X199210000Y-89800000D03*
%TO.P,U1,4,TXD*%
%TO.N,TXD*%
X200480000Y-89800000D03*
%TO.P,U1,5,GND*%
%TO.N,GND*%
X200480000Y-84850000D03*
%TO.P,U1,6,LIN*%
%TO.N,LIN*%
X199210000Y-84850000D03*
%TO.P,U1,7,VBAT*%
%TO.N,+12V*%
X197940000Y-84850000D03*
%TO.P,U1,8,INH*%
%TO.N,unconnected-(U1-Pad8)*%
X196670000Y-84850000D03*
%TD*%
D14*
%TO.P,Q1,1,G*%
%TO.N,SCL*%
X187400000Y-88475000D03*
%TO.P,Q1,2,S*%
X189300000Y-88475000D03*
%TO.P,Q1,3,D*%
%TO.N,SCL5V*%
X188350000Y-86600000D03*
%TD*%
D24*
%TO.P,U2,1,VCC*%
%TO.N,+3V3*%
X203237500Y-91975000D03*
%TO.P,U2,2,PA4*%
%TO.N,~{LIN_SLP}*%
X203237500Y-92625000D03*
%TO.P,U2,3,PA5*%
%TO.N,~{LIN_WAKE}*%
X203237500Y-93275000D03*
%TO.P,U2,4,PA6*%
%TO.N,unconnected-(U2-Pad4)*%
X203237500Y-93925000D03*
%TO.P,U2,5,PA7*%
%TO.N,Net-(R5-Pad1)*%
X203237500Y-94575000D03*
%TO.P,U2,6,PB3*%
%TO.N,RXD*%
X203237500Y-95225000D03*
%TO.P,U2,7,PB2*%
%TO.N,TXD*%
X203237500Y-95875000D03*
%TO.P,U2,8,PB1*%
%TO.N,SDA*%
X208962500Y-95875000D03*
%TO.P,U2,9,PB0*%
%TO.N,SCL*%
X208962500Y-95225000D03*
%TO.P,U2,10,~{RESET}/PA0*%
%TO.N,UPDI*%
X208962500Y-94575000D03*
%TO.P,U2,11,PA1*%
%TO.N,~{FLOW_PULSE0}*%
X208962500Y-93925000D03*
%TO.P,U2,12,PA2*%
%TO.N,~{FLOW_PULSE1}*%
X208962500Y-93275000D03*
%TO.P,U2,13,PA3*%
%TO.N,~{RESET}*%
X208962500Y-92625000D03*
%TO.P,U2,14,GND*%
%TO.N,GND*%
X208962500Y-91975000D03*
%TD*%
D25*
%TO.P,R1,1*%
%TO.N,+3V3*%
X193325000Y-93250000D03*
%TO.P,R1,2*%
%TO.N,RXD*%
X195325000Y-93250000D03*
%TD*%
D26*
%TO.P,C1,1*%
%TO.N,GND*%
X205300000Y-89775000D03*
%TO.P,C1,2*%
%TO.N,+3V3*%
X203225000Y-89775000D03*
%TD*%
D27*
%TO.P,R5,1*%
%TO.N,Net-(R5-Pad1)*%
X204025000Y-85350000D03*
%TO.P,R5,2*%
%TO.N,Net-(D1-Pad2)*%
X204025000Y-83350000D03*
%TD*%
D28*
%TO.P,D1,1,K*%
%TO.N,GND*%
X206450000Y-85350000D03*
%TO.P,D1,2,A*%
%TO.N,Net-(D1-Pad2)*%
X206450000Y-83300000D03*
%TD*%
D14*
%TO.P,Q2,1,G*%
%TO.N,SDA*%
X183550000Y-88525000D03*
%TO.P,Q2,2,S*%
X185450000Y-88525000D03*
%TO.P,Q2,3,D*%
%TO.N,SDA5V*%
X184500000Y-86650000D03*
%TD*%
D25*
%TO.P,R2,1*%
%TO.N,+3V3*%
X198675000Y-93775000D03*
%TO.P,R2,2*%
%TO.N,TXD*%
X200675000Y-93775000D03*
%TD*%
D29*
%TO.P,U7,1*%
%TO.N,N/C*%
X216830000Y-87100000D03*
%TO.P,U7,2*%
%TO.N,Net-(J5-Pad3)*%
X216830000Y-86450000D03*
%TO.P,U7,3,GND*%
%TO.N,GND*%
X216830000Y-85800000D03*
%TO.P,U7,4*%
%TO.N,~{FLOW_PULSE1}*%
X214170000Y-85800000D03*
%TO.P,U7,5,VCC*%
%TO.N,+3V3*%
X214170000Y-87100000D03*
%TD*%
%TO.P,U6,1*%
%TO.N,N/C*%
X216675000Y-77650000D03*
%TO.P,U6,2*%
%TO.N,Net-(J4-Pad3)*%
X216675000Y-77000000D03*
%TO.P,U6,3,GND*%
%TO.N,GND*%
X216675000Y-76350000D03*
%TO.P,U6,4*%
%TO.N,~{FLOW_PULSE0}*%
X214015000Y-76350000D03*
%TO.P,U6,5,VCC*%
%TO.N,+3V3*%
X214015000Y-77650000D03*
%TD*%
D30*
%TO.N,GND*%
X197470000Y-79040000D03*
%TO.N,+3V3*%
X194900000Y-84940000D03*
%TO.N,+5V*%
X194160000Y-80970000D03*
X183460000Y-79480000D03*
%TO.N,LIN*%
X206972500Y-73802500D03*
%TO.N,GND*%
X179480000Y-73830000D03*
X181550000Y-74820000D03*
X191000000Y-84390000D03*
X193300000Y-88120000D03*
X213670000Y-72810000D03*
%TO.N,+3V3*%
X225230000Y-94820000D03*
%TO.N,Net-(JP1-Pad1)*%
X220650000Y-96630000D03*
%TO.N,UPDI*%
X210710000Y-94680000D03*
%TO.N,GND*%
X218300000Y-75650000D03*
X207550000Y-91950000D03*
X200500000Y-82850000D03*
X218475000Y-85175000D03*
X207600000Y-86525000D03*
X206625000Y-89750000D03*
%TO.N,LIN*%
X199200000Y-81575000D03*
%TO.N,TXD*%
X206169192Y-94595106D03*
X200550000Y-91800000D03*
%TO.N,~{LIN_SLP}*%
X197950000Y-91675000D03*
X205075000Y-92075000D03*
%TO.N,~{LIN_WAKE}*%
X204925000Y-93300000D03*
X199225000Y-91625000D03*
%TO.N,Net-(R5-Pad1)*%
X205230552Y-94251653D03*
X203700000Y-86825000D03*
%TO.N,SDA*%
X206675000Y-96775000D03*
X185425000Y-90325000D03*
%TO.N,SCL*%
X206290576Y-95852382D03*
X187450000Y-90425000D03*
%TO.N,+3V3*%
X194225000Y-89700000D03*
X197475000Y-93675000D03*
X190050000Y-90950000D03*
X202850000Y-88175000D03*
X192025000Y-93200000D03*
X213975000Y-78925000D03*
X181950000Y-90050000D03*
X214175000Y-88450000D03*
X190550000Y-89975000D03*
%TO.N,Net-(J4-Pad3)*%
X218625000Y-76950000D03*
%TO.N,Net-(J5-Pad3)*%
X218575000Y-86525000D03*
%TO.N,~{FLOW_PULSE0}*%
X211250000Y-93450000D03*
X210300000Y-90150000D03*
%TD*%
D31*
%TO.N,GND*%
X197600000Y-79170000D02*
X197470000Y-79040000D01*
X197600000Y-81160000D02*
X197600000Y-79170000D01*
%TO.N,+3V3*%
X194832500Y-84872500D02*
X194900000Y-84940000D01*
X193220000Y-84872500D02*
X194832500Y-84872500D01*
X193630000Y-82845000D02*
X193630000Y-84462500D01*
X193630000Y-84462500D02*
X193220000Y-84872500D01*
%TO.N,+5V*%
X194160000Y-80970000D02*
X195335000Y-80970000D01*
X192680000Y-80970000D02*
X194160000Y-80970000D01*
X195335000Y-80970000D02*
X195525000Y-81160000D01*
X182727500Y-78747500D02*
X183460000Y-79480000D01*
X181640000Y-78747500D02*
X182727500Y-78747500D01*
%TO.N,GND*%
X179470000Y-73840000D02*
X179480000Y-73830000D01*
X179470000Y-75665000D02*
X179470000Y-73840000D01*
X181640000Y-74910000D02*
X181550000Y-74820000D01*
X181640000Y-76672500D02*
X181640000Y-74910000D01*
%TO.N,+5V*%
X179470000Y-78540000D02*
X181432500Y-78540000D01*
X181432500Y-78540000D02*
X181640000Y-78747500D01*
%TO.N,GND*%
X191730000Y-83660000D02*
X191000000Y-84390000D01*
X191730000Y-82845000D02*
X191730000Y-83660000D01*
X193220000Y-88040000D02*
X193300000Y-88120000D01*
X193220000Y-86947500D02*
X193220000Y-88040000D01*
X213630000Y-72770000D02*
X213670000Y-72810000D01*
X213630000Y-71105000D02*
X213630000Y-72770000D01*
%TO.N,+BATT*%
X218020000Y-64030000D02*
X218050000Y-64000000D01*
D32*
X218050000Y-64000000D02*
X224700000Y-64000000D01*
D31*
%TO.N,UPDI*%
X210710000Y-94680000D02*
X210605000Y-94575000D01*
X210605000Y-94575000D02*
X208962500Y-94575000D01*
%TO.N,TXD*%
X206169192Y-94595106D02*
X204889298Y-95875000D01*
X204889298Y-95875000D02*
X203262500Y-95875000D01*
%TO.N,Net-(R5-Pad1)*%
X205230552Y-94251653D02*
X204907205Y-94575000D01*
X204907205Y-94575000D02*
X203237500Y-94575000D01*
%TO.N,GND*%
X216830000Y-85800000D02*
X217850000Y-85800000D01*
X208987500Y-91975000D02*
X207575000Y-91975000D01*
X216675000Y-76350000D02*
X217600000Y-76350000D01*
X217850000Y-85800000D02*
X218475000Y-85175000D01*
X217600000Y-76350000D02*
X218300000Y-75650000D01*
X200480000Y-84850000D02*
X200480000Y-82870000D01*
X205300000Y-89775000D02*
X206600000Y-89775000D01*
X207575000Y-91975000D02*
X207550000Y-91950000D01*
X206450000Y-85350000D02*
X206450000Y-85375000D01*
X200480000Y-82870000D02*
X200500000Y-82850000D01*
X206450000Y-85375000D02*
X207600000Y-86525000D01*
X206600000Y-89775000D02*
X206625000Y-89750000D01*
%TO.N,LIN*%
X199210000Y-84850000D02*
X199210000Y-81585000D01*
X199210000Y-81585000D02*
X199200000Y-81575000D01*
%TO.N,TXD*%
X200550000Y-91800000D02*
X200550000Y-89870000D01*
X200675000Y-91925000D02*
X200675000Y-93775000D01*
X200550000Y-91800000D02*
X200675000Y-91925000D01*
X200550000Y-89870000D02*
X200480000Y-89800000D01*
%TO.N,RXD*%
X196670000Y-93130000D02*
X196670000Y-89800000D01*
X196550000Y-93250000D02*
X196670000Y-93130000D01*
X197450000Y-95225000D02*
X196670000Y-94445000D01*
X203262500Y-95225000D02*
X197450000Y-95225000D01*
X195325000Y-93250000D02*
X196550000Y-93250000D01*
X196670000Y-94445000D02*
X196670000Y-93130000D01*
%TO.N,~{LIN_SLP}*%
X197950000Y-91675000D02*
X197940000Y-91665000D01*
X197940000Y-91665000D02*
X197940000Y-89800000D01*
X203262500Y-92625000D02*
X204525000Y-92625000D01*
X204525000Y-92625000D02*
X205075000Y-92075000D01*
X205075000Y-92075000D02*
X205325305Y-92075000D01*
%TO.N,~{LIN_WAKE}*%
X199225000Y-91625000D02*
X199225000Y-89815000D01*
X203237500Y-93275000D02*
X204900000Y-93275000D01*
X199225000Y-89815000D02*
X199210000Y-89800000D01*
X204900000Y-93275000D02*
X204925000Y-93300000D01*
%TO.N,Net-(R5-Pad1)*%
X204025000Y-86500000D02*
X203700000Y-86825000D01*
X204025000Y-85350000D02*
X204025000Y-86500000D01*
%TO.N,unconnected-(J1-Pad5)*%
X216400000Y-91840000D02*
X216360000Y-91800000D01*
%TO.N,SDA*%
X185425000Y-88550000D02*
X185450000Y-88525000D01*
X208987500Y-95875000D02*
X207575000Y-95875000D01*
X207575000Y-95875000D02*
X206675000Y-96775000D01*
X185450000Y-88525000D02*
X183550000Y-88525000D01*
X185425000Y-90325000D02*
X185425000Y-88550000D01*
%TO.N,SCL*%
X187450000Y-88525000D02*
X187400000Y-88475000D01*
X187400000Y-88475000D02*
X189300000Y-88475000D01*
X208987500Y-95225000D02*
X206917958Y-95225000D01*
X206917958Y-95225000D02*
X206290576Y-95852382D01*
X187450000Y-90425000D02*
X187450000Y-88525000D01*
%TO.N,+3V3*%
X214170000Y-87100000D02*
X214170000Y-88445000D01*
X198675000Y-93775000D02*
X197575000Y-93775000D01*
X203225000Y-89775000D02*
X203225000Y-91937500D01*
X214015000Y-78885000D02*
X213975000Y-78925000D01*
X214015000Y-77650000D02*
X214015000Y-78885000D01*
X214170000Y-88445000D02*
X214175000Y-88450000D01*
X192075000Y-93250000D02*
X192025000Y-93200000D01*
X203225000Y-89775000D02*
X203225000Y-88550000D01*
X203225000Y-91937500D02*
X203262500Y-91975000D01*
X203225000Y-88550000D02*
X202850000Y-88175000D01*
X197575000Y-93775000D02*
X197475000Y-93675000D01*
X193325000Y-93250000D02*
X192075000Y-93250000D01*
%TO.N,SCL5V*%
X188350000Y-86600000D02*
X188350000Y-82680000D01*
X188350000Y-82680000D02*
X187770000Y-82100000D01*
%TO.N,SDA5V*%
X184500000Y-82830000D02*
X185230000Y-82100000D01*
X184500000Y-86650000D02*
X184500000Y-82830000D01*
%TO.N,Net-(D1-Pad2)*%
X204025000Y-83350000D02*
X206400000Y-83350000D01*
X206400000Y-83350000D02*
X206450000Y-83300000D01*
%TO.N,Net-(J4-Pad3)*%
X218625000Y-76950000D02*
X216725000Y-76950000D01*
X216725000Y-76950000D02*
X216675000Y-77000000D01*
%TO.N,Net-(J5-Pad3)*%
X218575000Y-86525000D02*
X216905000Y-86525000D01*
X216905000Y-86525000D02*
X216830000Y-86450000D01*
%TO.N,~{FLOW_PULSE0}*%
X211900000Y-76350000D02*
X214015000Y-76350000D01*
X210300000Y-90150000D02*
X210300000Y-77950000D01*
X210300000Y-77950000D02*
X211900000Y-76350000D01*
X210775000Y-93925000D02*
X211250000Y-93450000D01*
X208962500Y-93925000D02*
X210775000Y-93925000D01*
%TO.N,~{FLOW_PULSE1}*%
X211225000Y-92250000D02*
X211225000Y-87125000D01*
X211225000Y-87125000D02*
X212550000Y-85800000D01*
X208962500Y-93275000D02*
X210200000Y-93275000D01*
X212550000Y-85800000D02*
X214170000Y-85800000D01*
X210200000Y-93275000D02*
X211225000Y-92250000D01*
%TD*%
%TA.AperFunction,Conductor*%
%TO.N,+12V*%
G36*
X230065621Y-58948502D02*
G01*
X230112114Y-59002158D01*
X230123500Y-59054500D01*
X230123500Y-100966071D01*
X230103498Y-101034192D01*
X230049842Y-101080685D01*
X229997614Y-101092071D01*
X175783994Y-101140950D01*
X175715855Y-101121009D01*
X175669314Y-101067396D01*
X175657880Y-101015096D01*
X175648814Y-93200000D01*
X191111496Y-93200000D01*
X191112186Y-93206565D01*
X191118500Y-93266635D01*
X191131458Y-93389928D01*
X191190473Y-93571556D01*
X191193776Y-93577278D01*
X191193777Y-93577279D01*
X191226159Y-93633365D01*
X191285960Y-93736944D01*
X191290378Y-93741851D01*
X191290379Y-93741852D01*
X191349821Y-93807869D01*
X191413747Y-93878866D01*
X191568248Y-93991118D01*
X191574276Y-93993802D01*
X191574278Y-93993803D01*
X191707808Y-94053254D01*
X191742712Y-94068794D01*
X191825951Y-94086487D01*
X191923056Y-94107128D01*
X191923061Y-94107128D01*
X191929513Y-94108500D01*
X192120487Y-94108500D01*
X192126939Y-94107128D01*
X192126944Y-94107128D01*
X192224049Y-94086487D01*
X192294840Y-94091889D01*
X192351472Y-94134706D01*
X192357389Y-94143429D01*
X192376522Y-94174348D01*
X192501697Y-94299305D01*
X192507927Y-94303145D01*
X192507928Y-94303146D01*
X192645090Y-94387694D01*
X192652262Y-94392115D01*
X192691646Y-94405178D01*
X192813611Y-94445632D01*
X192813613Y-94445632D01*
X192820139Y-94447797D01*
X192826975Y-94448497D01*
X192826978Y-94448498D01*
X192870031Y-94452909D01*
X192924600Y-94458500D01*
X193725400Y-94458500D01*
X193728646Y-94458163D01*
X193728650Y-94458163D01*
X193824308Y-94448238D01*
X193824312Y-94448237D01*
X193831166Y-94447526D01*
X193837702Y-94445345D01*
X193837704Y-94445345D01*
X193976915Y-94398900D01*
X193998946Y-94391550D01*
X194149348Y-94298478D01*
X194235784Y-94211891D01*
X194298066Y-94177812D01*
X194368886Y-94182815D01*
X194413976Y-94211736D01*
X194501697Y-94299305D01*
X194507927Y-94303145D01*
X194507928Y-94303146D01*
X194645090Y-94387694D01*
X194652262Y-94392115D01*
X194691646Y-94405178D01*
X194813611Y-94445632D01*
X194813613Y-94445632D01*
X194820139Y-94447797D01*
X194826975Y-94448497D01*
X194826978Y-94448498D01*
X194870031Y-94452909D01*
X194924600Y-94458500D01*
X195725400Y-94458500D01*
X195728646Y-94458163D01*
X195728650Y-94458163D01*
X195824308Y-94448238D01*
X195824312Y-94448237D01*
X195831166Y-94447526D01*
X195837701Y-94445346D01*
X195837709Y-94445344D01*
X195874125Y-94433194D01*
X195945074Y-94430608D01*
X196006159Y-94466792D01*
X196038451Y-94533005D01*
X196039078Y-94536963D01*
X196039327Y-94544889D01*
X196041539Y-94552503D01*
X196044978Y-94564339D01*
X196048987Y-94583700D01*
X196051526Y-94603797D01*
X196054445Y-94611168D01*
X196054445Y-94611170D01*
X196067804Y-94644912D01*
X196071649Y-94656142D01*
X196081771Y-94690983D01*
X196083982Y-94698593D01*
X196088015Y-94705412D01*
X196088017Y-94705417D01*
X196094293Y-94716028D01*
X196102988Y-94733776D01*
X196110448Y-94752617D01*
X196115110Y-94759033D01*
X196115110Y-94759034D01*
X196136436Y-94788387D01*
X196142952Y-94798307D01*
X196165458Y-94836362D01*
X196179779Y-94850683D01*
X196192619Y-94865716D01*
X196204528Y-94882107D01*
X196210634Y-94887158D01*
X196238605Y-94910298D01*
X196247384Y-94918288D01*
X196946343Y-95617247D01*
X196953887Y-95625537D01*
X196958000Y-95632018D01*
X196963777Y-95637443D01*
X197007667Y-95678658D01*
X197010509Y-95681413D01*
X197030231Y-95701135D01*
X197033355Y-95703558D01*
X197033359Y-95703562D01*
X197033424Y-95703612D01*
X197042445Y-95711317D01*
X197074679Y-95741586D01*
X197081627Y-95745405D01*
X197081629Y-95745407D01*
X197092432Y-95751346D01*
X197108959Y-95762202D01*
X197118698Y-95769757D01*
X197118700Y-95769758D01*
X197124960Y-95774614D01*
X197165540Y-95792174D01*
X197176188Y-95797391D01*
X197214940Y-95818695D01*
X197222616Y-95820666D01*
X197222619Y-95820667D01*
X197234562Y-95823733D01*
X197253267Y-95830137D01*
X197271855Y-95838181D01*
X197279678Y-95839420D01*
X197279688Y-95839423D01*
X197315524Y-95845099D01*
X197327144Y-95847505D01*
X197362289Y-95856528D01*
X197369970Y-95858500D01*
X197390224Y-95858500D01*
X197409934Y-95860051D01*
X197429943Y-95863220D01*
X197437835Y-95862474D01*
X197473961Y-95859059D01*
X197485819Y-95858500D01*
X201865501Y-95858500D01*
X201933622Y-95878502D01*
X201980115Y-95932158D01*
X201991501Y-95984499D01*
X201991501Y-96014884D01*
X201992039Y-96018969D01*
X201992039Y-96018973D01*
X202006084Y-96125662D01*
X202007162Y-96133850D01*
X202010322Y-96141478D01*
X202061374Y-96264729D01*
X202068476Y-96281876D01*
X202073502Y-96288426D01*
X202160985Y-96402434D01*
X202166013Y-96408987D01*
X202172563Y-96414013D01*
X202172566Y-96414016D01*
X202220383Y-96450707D01*
X202293125Y-96506524D01*
X202441150Y-96567838D01*
X202449338Y-96568916D01*
X202556021Y-96582961D01*
X202560115Y-96583500D01*
X203237417Y-96583500D01*
X203914884Y-96583499D01*
X203918969Y-96582961D01*
X203918973Y-96582961D01*
X204025663Y-96568916D01*
X204025665Y-96568916D01*
X204033850Y-96567838D01*
X204153950Y-96518091D01*
X204202168Y-96508500D01*
X204810531Y-96508500D01*
X204821714Y-96509027D01*
X204829207Y-96510702D01*
X204837133Y-96510453D01*
X204837134Y-96510453D01*
X204897284Y-96508562D01*
X204901243Y-96508500D01*
X204929154Y-96508500D01*
X204933089Y-96508003D01*
X204933154Y-96507995D01*
X204944991Y-96507062D01*
X204977249Y-96506048D01*
X204981268Y-96505922D01*
X204989187Y-96505673D01*
X205008641Y-96500021D01*
X205027998Y-96496013D01*
X205040228Y-96494468D01*
X205040229Y-96494468D01*
X205048095Y-96493474D01*
X205055466Y-96490555D01*
X205055468Y-96490555D01*
X205089210Y-96477196D01*
X205100440Y-96473351D01*
X205135281Y-96463229D01*
X205135282Y-96463229D01*
X205142891Y-96461018D01*
X205149710Y-96456985D01*
X205149715Y-96456983D01*
X205160326Y-96450707D01*
X205178074Y-96442012D01*
X205196915Y-96434552D01*
X205232685Y-96408564D01*
X205242605Y-96402048D01*
X205273833Y-96383580D01*
X205273836Y-96383578D01*
X205280660Y-96379542D01*
X205294981Y-96365221D01*
X205310015Y-96352380D01*
X205319992Y-96345131D01*
X205326405Y-96340472D01*
X205331457Y-96334366D01*
X205337239Y-96328936D01*
X205339542Y-96331389D01*
X205385584Y-96300247D01*
X205456561Y-96298579D01*
X205517172Y-96335549D01*
X205533031Y-96357275D01*
X205551536Y-96389326D01*
X205555954Y-96394233D01*
X205555955Y-96394234D01*
X205616088Y-96461018D01*
X205679323Y-96531248D01*
X205684664Y-96535128D01*
X205684669Y-96535133D01*
X205720616Y-96561250D01*
X205763969Y-96617472D01*
X205771864Y-96676356D01*
X205761496Y-96775000D01*
X205781458Y-96964928D01*
X205840473Y-97146556D01*
X205935960Y-97311944D01*
X205940378Y-97316851D01*
X205940379Y-97316852D01*
X206036678Y-97423803D01*
X206063747Y-97453866D01*
X206218248Y-97566118D01*
X206224276Y-97568802D01*
X206224278Y-97568803D01*
X206386681Y-97641109D01*
X206392712Y-97643794D01*
X206486113Y-97663647D01*
X206573056Y-97682128D01*
X206573061Y-97682128D01*
X206579513Y-97683500D01*
X206770487Y-97683500D01*
X206776939Y-97682128D01*
X206776944Y-97682128D01*
X206863887Y-97663647D01*
X206957288Y-97643794D01*
X206963319Y-97641109D01*
X207125722Y-97568803D01*
X207125724Y-97568802D01*
X207131752Y-97566118D01*
X207286253Y-97453866D01*
X207313322Y-97423803D01*
X207409621Y-97316852D01*
X207409622Y-97316851D01*
X207414040Y-97311944D01*
X207509527Y-97146556D01*
X207568542Y-96964928D01*
X207585907Y-96799706D01*
X207612920Y-96734050D01*
X207622122Y-96723782D01*
X207715904Y-96630000D01*
X219736496Y-96630000D01*
X219756458Y-96819928D01*
X219815473Y-97001556D01*
X219910960Y-97166944D01*
X220038747Y-97308866D01*
X220193248Y-97421118D01*
X220199276Y-97423802D01*
X220199278Y-97423803D01*
X220361681Y-97496109D01*
X220367712Y-97498794D01*
X220461113Y-97518647D01*
X220548056Y-97537128D01*
X220548061Y-97537128D01*
X220554513Y-97538500D01*
X220745487Y-97538500D01*
X220751939Y-97537128D01*
X220751944Y-97537128D01*
X220838887Y-97518647D01*
X220932288Y-97498794D01*
X220938319Y-97496109D01*
X221100722Y-97423803D01*
X221100724Y-97423802D01*
X221106752Y-97421118D01*
X221261253Y-97308866D01*
X221389040Y-97166944D01*
X221484527Y-97001556D01*
X221543542Y-96819928D01*
X221563504Y-96630000D01*
X221556971Y-96567838D01*
X221544232Y-96446635D01*
X221544232Y-96446633D01*
X221543542Y-96440072D01*
X221484527Y-96258444D01*
X221389040Y-96093056D01*
X221322336Y-96018973D01*
X221265675Y-95956045D01*
X221265674Y-95956044D01*
X221261253Y-95951134D01*
X221140250Y-95863220D01*
X221112094Y-95842763D01*
X221112093Y-95842762D01*
X221106752Y-95838882D01*
X221100724Y-95836198D01*
X221100722Y-95836197D01*
X220938319Y-95763891D01*
X220938318Y-95763891D01*
X220932288Y-95761206D01*
X220814452Y-95736159D01*
X220751944Y-95722872D01*
X220751939Y-95722872D01*
X220745487Y-95721500D01*
X220554513Y-95721500D01*
X220548061Y-95722872D01*
X220548056Y-95722872D01*
X220485548Y-95736159D01*
X220367712Y-95761206D01*
X220361682Y-95763891D01*
X220361681Y-95763891D01*
X220199278Y-95836197D01*
X220199276Y-95836198D01*
X220193248Y-95838882D01*
X220187907Y-95842762D01*
X220187906Y-95842763D01*
X220159750Y-95863220D01*
X220038747Y-95951134D01*
X220034326Y-95956044D01*
X220034325Y-95956045D01*
X219977665Y-96018973D01*
X219910960Y-96093056D01*
X219815473Y-96258444D01*
X219756458Y-96440072D01*
X219755768Y-96446633D01*
X219755768Y-96446635D01*
X219743029Y-96567838D01*
X219736496Y-96630000D01*
X207715904Y-96630000D01*
X207800499Y-96545405D01*
X207862811Y-96511379D01*
X207889594Y-96508500D01*
X207997832Y-96508500D01*
X208046050Y-96518091D01*
X208166150Y-96567838D01*
X208174338Y-96568916D01*
X208281021Y-96582961D01*
X208285115Y-96583500D01*
X208962417Y-96583500D01*
X209639884Y-96583499D01*
X209643969Y-96582961D01*
X209643973Y-96582961D01*
X209750663Y-96568916D01*
X209750665Y-96568916D01*
X209758850Y-96567838D01*
X209878951Y-96518091D01*
X209899248Y-96509684D01*
X209899250Y-96509683D01*
X209906876Y-96506524D01*
X209913430Y-96501495D01*
X210027436Y-96414014D01*
X210027437Y-96414013D01*
X210033987Y-96408987D01*
X210039014Y-96402436D01*
X210039016Y-96402434D01*
X210093530Y-96331389D01*
X210131524Y-96281875D01*
X210192838Y-96133850D01*
X210208500Y-96014885D01*
X210208499Y-95735116D01*
X210207448Y-95727128D01*
X210198160Y-95656579D01*
X210209100Y-95586431D01*
X210256228Y-95533332D01*
X210324582Y-95514143D01*
X210374329Y-95525027D01*
X210427712Y-95548794D01*
X210521113Y-95568647D01*
X210608056Y-95587128D01*
X210608061Y-95587128D01*
X210614513Y-95588500D01*
X210805487Y-95588500D01*
X210811939Y-95587128D01*
X210811944Y-95587128D01*
X210898887Y-95568647D01*
X210992288Y-95548794D01*
X210998319Y-95546109D01*
X211160722Y-95473803D01*
X211160724Y-95473802D01*
X211166752Y-95471118D01*
X211321253Y-95358866D01*
X211449040Y-95216944D01*
X211544527Y-95051556D01*
X211603542Y-94869928D01*
X211607788Y-94829535D01*
X211608790Y-94820000D01*
X224316496Y-94820000D01*
X224317186Y-94826565D01*
X224325987Y-94910298D01*
X224336458Y-95009928D01*
X224395473Y-95191556D01*
X224398776Y-95197278D01*
X224398777Y-95197279D01*
X224410131Y-95216944D01*
X224490960Y-95356944D01*
X224495378Y-95361851D01*
X224495379Y-95361852D01*
X224614325Y-95493955D01*
X224618747Y-95498866D01*
X224773248Y-95611118D01*
X224779276Y-95613802D01*
X224779278Y-95613803D01*
X224924946Y-95678658D01*
X224947712Y-95688794D01*
X225005772Y-95701135D01*
X225128056Y-95727128D01*
X225128061Y-95727128D01*
X225134513Y-95728500D01*
X225325487Y-95728500D01*
X225331939Y-95727128D01*
X225331944Y-95727128D01*
X225454228Y-95701135D01*
X225512288Y-95688794D01*
X225535054Y-95678658D01*
X225680722Y-95613803D01*
X225680724Y-95613802D01*
X225686752Y-95611118D01*
X225841253Y-95498866D01*
X225845675Y-95493955D01*
X225964621Y-95361852D01*
X225964622Y-95361851D01*
X225969040Y-95356944D01*
X226049869Y-95216944D01*
X226061223Y-95197279D01*
X226061224Y-95197278D01*
X226064527Y-95191556D01*
X226123542Y-95009928D01*
X226134014Y-94910298D01*
X226142814Y-94826565D01*
X226143504Y-94820000D01*
X226123542Y-94630072D01*
X226064527Y-94448444D01*
X226056832Y-94435115D01*
X226027314Y-94383990D01*
X225969040Y-94283056D01*
X225933697Y-94243803D01*
X225845675Y-94146045D01*
X225845674Y-94146044D01*
X225841253Y-94141134D01*
X225686752Y-94028882D01*
X225680724Y-94026198D01*
X225680722Y-94026197D01*
X225518319Y-93953891D01*
X225518318Y-93953891D01*
X225512288Y-93951206D01*
X225418887Y-93931353D01*
X225331944Y-93912872D01*
X225331939Y-93912872D01*
X225325487Y-93911500D01*
X225134513Y-93911500D01*
X225128061Y-93912872D01*
X225128056Y-93912872D01*
X225041112Y-93931353D01*
X224947712Y-93951206D01*
X224941682Y-93953891D01*
X224941681Y-93953891D01*
X224779278Y-94026197D01*
X224779276Y-94026198D01*
X224773248Y-94028882D01*
X224618747Y-94141134D01*
X224614326Y-94146044D01*
X224614325Y-94146045D01*
X224526304Y-94243803D01*
X224490960Y-94283056D01*
X224432686Y-94383990D01*
X224403169Y-94435115D01*
X224395473Y-94448444D01*
X224336458Y-94630072D01*
X224316496Y-94820000D01*
X211608790Y-94820000D01*
X211622814Y-94686565D01*
X211623504Y-94680000D01*
X211613006Y-94580114D01*
X211604232Y-94496635D01*
X211604232Y-94496633D01*
X211603542Y-94490072D01*
X211589718Y-94447526D01*
X211580977Y-94420623D01*
X211578950Y-94349655D01*
X211615612Y-94288857D01*
X211649561Y-94266581D01*
X211706752Y-94241118D01*
X211861253Y-94128866D01*
X211929334Y-94053254D01*
X211984621Y-93991852D01*
X211984622Y-93991851D01*
X211989040Y-93986944D01*
X212084527Y-93821556D01*
X212143542Y-93639928D01*
X212145388Y-93622370D01*
X212162814Y-93456565D01*
X212163504Y-93450000D01*
X212157190Y-93389928D01*
X212144232Y-93266635D01*
X212144232Y-93266633D01*
X212143542Y-93260072D01*
X212084527Y-93078444D01*
X212067121Y-93048295D01*
X212026593Y-92978099D01*
X211989040Y-92913056D01*
X211957928Y-92878502D01*
X211865675Y-92776045D01*
X211865674Y-92776044D01*
X211861253Y-92771134D01*
X211853166Y-92765258D01*
X211837486Y-92753866D01*
X211811483Y-92734974D01*
X211768130Y-92678753D01*
X211762055Y-92608017D01*
X211774714Y-92575085D01*
X211774614Y-92575042D01*
X211775660Y-92572625D01*
X211775664Y-92572615D01*
X211783927Y-92553521D01*
X211792174Y-92534463D01*
X211797391Y-92523813D01*
X211818695Y-92485060D01*
X211823733Y-92465437D01*
X211830137Y-92446734D01*
X211835033Y-92435420D01*
X211835033Y-92435419D01*
X211838181Y-92428145D01*
X211839420Y-92420322D01*
X211839423Y-92420312D01*
X211845099Y-92384476D01*
X211847505Y-92372856D01*
X211856528Y-92337711D01*
X211856528Y-92337710D01*
X211858500Y-92330030D01*
X211858500Y-92309776D01*
X211860051Y-92290065D01*
X211861980Y-92277886D01*
X211863220Y-92270057D01*
X211859059Y-92226038D01*
X211858500Y-92214181D01*
X211858500Y-91764494D01*
X212367170Y-91764494D01*
X212367467Y-91769646D01*
X212367467Y-91769650D01*
X212377647Y-91946200D01*
X212380879Y-92002255D01*
X212382016Y-92007301D01*
X212382017Y-92007307D01*
X212410068Y-92131778D01*
X212433237Y-92234585D01*
X212435179Y-92239367D01*
X212435180Y-92239371D01*
X212511833Y-92428145D01*
X212522837Y-92455244D01*
X212647274Y-92658306D01*
X212803204Y-92838317D01*
X212986442Y-92990444D01*
X212990894Y-92993046D01*
X212990899Y-92993049D01*
X213152955Y-93087747D01*
X213192065Y-93110601D01*
X213414552Y-93195560D01*
X213419618Y-93196591D01*
X213419619Y-93196591D01*
X213436375Y-93200000D01*
X213647928Y-93243041D01*
X213781284Y-93247931D01*
X213880760Y-93251579D01*
X213880764Y-93251579D01*
X213885924Y-93251768D01*
X213891044Y-93251112D01*
X213891046Y-93251112D01*
X214117023Y-93222164D01*
X214117024Y-93222164D01*
X214122151Y-93221507D01*
X214205200Y-93196591D01*
X214345316Y-93154554D01*
X214345317Y-93154553D01*
X214350262Y-93153070D01*
X214564133Y-93048295D01*
X214568336Y-93045297D01*
X214568341Y-93045294D01*
X214753816Y-92912996D01*
X214753818Y-92912994D01*
X214758020Y-92909997D01*
X214926716Y-92741889D01*
X214984979Y-92660807D01*
X215040972Y-92617160D01*
X215111676Y-92610714D01*
X215174640Y-92643516D01*
X215186582Y-92657176D01*
X215187274Y-92658306D01*
X215343204Y-92838317D01*
X215526442Y-92990444D01*
X215530894Y-92993046D01*
X215530899Y-92993049D01*
X215692955Y-93087747D01*
X215732065Y-93110601D01*
X215954552Y-93195560D01*
X215959618Y-93196591D01*
X215959619Y-93196591D01*
X215976375Y-93200000D01*
X216187928Y-93243041D01*
X216321284Y-93247931D01*
X216420760Y-93251579D01*
X216420764Y-93251579D01*
X216425924Y-93251768D01*
X216431044Y-93251112D01*
X216431046Y-93251112D01*
X216657023Y-93222164D01*
X216657024Y-93222164D01*
X216662151Y-93221507D01*
X216745200Y-93196591D01*
X216885316Y-93154554D01*
X216885317Y-93154553D01*
X216890262Y-93153070D01*
X217104133Y-93048295D01*
X217108336Y-93045297D01*
X217108341Y-93045294D01*
X217293816Y-92912996D01*
X217293818Y-92912994D01*
X217298020Y-92909997D01*
X217466716Y-92741889D01*
X217524979Y-92660807D01*
X217580972Y-92617160D01*
X217651676Y-92610714D01*
X217714640Y-92643516D01*
X217726582Y-92657176D01*
X217727274Y-92658306D01*
X217883204Y-92838317D01*
X218066442Y-92990444D01*
X218070894Y-92993046D01*
X218070899Y-92993049D01*
X218232955Y-93087747D01*
X218272065Y-93110601D01*
X218494552Y-93195560D01*
X218499618Y-93196591D01*
X218499619Y-93196591D01*
X218516375Y-93200000D01*
X218727928Y-93243041D01*
X218861284Y-93247931D01*
X218960760Y-93251579D01*
X218960764Y-93251579D01*
X218965924Y-93251768D01*
X218971044Y-93251112D01*
X218971046Y-93251112D01*
X219197023Y-93222164D01*
X219197024Y-93222164D01*
X219202151Y-93221507D01*
X219285200Y-93196591D01*
X219425316Y-93154554D01*
X219425317Y-93154553D01*
X219430262Y-93153070D01*
X219644133Y-93048295D01*
X219648336Y-93045297D01*
X219648341Y-93045294D01*
X219833816Y-92912996D01*
X219833818Y-92912994D01*
X219838020Y-92909997D01*
X220006716Y-92741889D01*
X220064979Y-92660807D01*
X220120972Y-92617160D01*
X220191676Y-92610714D01*
X220254640Y-92643516D01*
X220266582Y-92657176D01*
X220267274Y-92658306D01*
X220423204Y-92838317D01*
X220606442Y-92990444D01*
X220610894Y-92993046D01*
X220610899Y-92993049D01*
X220772955Y-93087747D01*
X220812065Y-93110601D01*
X221034552Y-93195560D01*
X221039618Y-93196591D01*
X221039619Y-93196591D01*
X221056375Y-93200000D01*
X221267928Y-93243041D01*
X221401284Y-93247931D01*
X221500760Y-93251579D01*
X221500764Y-93251579D01*
X221505924Y-93251768D01*
X221511044Y-93251112D01*
X221511046Y-93251112D01*
X221737023Y-93222164D01*
X221737024Y-93222164D01*
X221742151Y-93221507D01*
X221825200Y-93196591D01*
X221965316Y-93154554D01*
X221965317Y-93154553D01*
X221970262Y-93153070D01*
X222184133Y-93048295D01*
X222188336Y-93045297D01*
X222188341Y-93045294D01*
X222373816Y-92912996D01*
X222373818Y-92912994D01*
X222378020Y-92909997D01*
X222546716Y-92741889D01*
X222604979Y-92660807D01*
X222660972Y-92617160D01*
X222731676Y-92610714D01*
X222794640Y-92643516D01*
X222806582Y-92657176D01*
X222807274Y-92658306D01*
X222963204Y-92838317D01*
X223146442Y-92990444D01*
X223150894Y-92993046D01*
X223150899Y-92993049D01*
X223312955Y-93087747D01*
X223352065Y-93110601D01*
X223574552Y-93195560D01*
X223579618Y-93196591D01*
X223579619Y-93196591D01*
X223596375Y-93200000D01*
X223807928Y-93243041D01*
X223941284Y-93247931D01*
X224040760Y-93251579D01*
X224040764Y-93251579D01*
X224045924Y-93251768D01*
X224051044Y-93251112D01*
X224051046Y-93251112D01*
X224277023Y-93222164D01*
X224277024Y-93222164D01*
X224282151Y-93221507D01*
X224365200Y-93196591D01*
X224505316Y-93154554D01*
X224505317Y-93154553D01*
X224510262Y-93153070D01*
X224724133Y-93048295D01*
X224728336Y-93045297D01*
X224728341Y-93045294D01*
X224913810Y-92913000D01*
X224918020Y-92909997D01*
X224920601Y-92907425D01*
X224985135Y-92878913D01*
X225055278Y-92889886D01*
X225108355Y-92937039D01*
X225119502Y-92959610D01*
X225129585Y-92986505D01*
X225216939Y-93103061D01*
X225333495Y-93190415D01*
X225469884Y-93241545D01*
X225532066Y-93248300D01*
X227507934Y-93248300D01*
X227570116Y-93241545D01*
X227706505Y-93190415D01*
X227823061Y-93103061D01*
X227910415Y-92986505D01*
X227961545Y-92850116D01*
X227968300Y-92787934D01*
X227968300Y-90812066D01*
X227961545Y-90749884D01*
X227910415Y-90613495D01*
X227823061Y-90496939D01*
X227706505Y-90409585D01*
X227570116Y-90358455D01*
X227507934Y-90351700D01*
X225532066Y-90351700D01*
X225469884Y-90358455D01*
X225333495Y-90409585D01*
X225216939Y-90496939D01*
X225129585Y-90613495D01*
X225126433Y-90621903D01*
X225118218Y-90643816D01*
X225075576Y-90700580D01*
X225009014Y-90725280D01*
X224939666Y-90710072D01*
X224922144Y-90698468D01*
X224788278Y-90592747D01*
X224788273Y-90592744D01*
X224784224Y-90589546D01*
X224779708Y-90587053D01*
X224779705Y-90587051D01*
X224580250Y-90476946D01*
X224580246Y-90476944D01*
X224575726Y-90474449D01*
X224570857Y-90472725D01*
X224570853Y-90472723D01*
X224356105Y-90396676D01*
X224356101Y-90396675D01*
X224351230Y-90394950D01*
X224346140Y-90394043D01*
X224346135Y-90394042D01*
X224218814Y-90371364D01*
X224116764Y-90353186D01*
X224025355Y-90352069D01*
X223883795Y-90350339D01*
X223883793Y-90350339D01*
X223878625Y-90350276D01*
X223643209Y-90386300D01*
X223416838Y-90460289D01*
X223357616Y-90491118D01*
X223244740Y-90549878D01*
X223205590Y-90570258D01*
X223201457Y-90573361D01*
X223201454Y-90573363D01*
X223019375Y-90710072D01*
X223015140Y-90713252D01*
X222850602Y-90885431D01*
X222825723Y-90921902D01*
X222815186Y-90937349D01*
X222760274Y-90982351D01*
X222689749Y-90990522D01*
X222626002Y-90959267D01*
X222605306Y-90934784D01*
X222594217Y-90917642D01*
X222594212Y-90917636D01*
X222591406Y-90913298D01*
X222549144Y-90866852D01*
X222528472Y-90844134D01*
X222431124Y-90737150D01*
X222427073Y-90733951D01*
X222427069Y-90733947D01*
X222248278Y-90592747D01*
X222248273Y-90592744D01*
X222244224Y-90589546D01*
X222239708Y-90587053D01*
X222239705Y-90587051D01*
X222040250Y-90476946D01*
X222040246Y-90476944D01*
X222035726Y-90474449D01*
X222030857Y-90472725D01*
X222030853Y-90472723D01*
X221816105Y-90396676D01*
X221816101Y-90396675D01*
X221811230Y-90394950D01*
X221806140Y-90394043D01*
X221806135Y-90394042D01*
X221678814Y-90371364D01*
X221576764Y-90353186D01*
X221485355Y-90352069D01*
X221343795Y-90350339D01*
X221343793Y-90350339D01*
X221338625Y-90350276D01*
X221103209Y-90386300D01*
X220876838Y-90460289D01*
X220817616Y-90491118D01*
X220704740Y-90549878D01*
X220665590Y-90570258D01*
X220661457Y-90573361D01*
X220661454Y-90573363D01*
X220479375Y-90710072D01*
X220475140Y-90713252D01*
X220310602Y-90885431D01*
X220285723Y-90921902D01*
X220275186Y-90937349D01*
X220220274Y-90982351D01*
X220149749Y-90990522D01*
X220086002Y-90959267D01*
X220065306Y-90934784D01*
X220054217Y-90917642D01*
X220054212Y-90917636D01*
X220051406Y-90913298D01*
X220009144Y-90866852D01*
X219988472Y-90844134D01*
X219891124Y-90737150D01*
X219887073Y-90733951D01*
X219887069Y-90733947D01*
X219708278Y-90592747D01*
X219708273Y-90592744D01*
X219704224Y-90589546D01*
X219699708Y-90587053D01*
X219699705Y-90587051D01*
X219500250Y-90476946D01*
X219500246Y-90476944D01*
X219495726Y-90474449D01*
X219490857Y-90472725D01*
X219490853Y-90472723D01*
X219276105Y-90396676D01*
X219276101Y-90396675D01*
X219271230Y-90394950D01*
X219266140Y-90394043D01*
X219266135Y-90394042D01*
X219138814Y-90371364D01*
X219036764Y-90353186D01*
X218945355Y-90352069D01*
X218803795Y-90350339D01*
X218803793Y-90350339D01*
X218798625Y-90350276D01*
X218563209Y-90386300D01*
X218336838Y-90460289D01*
X218277616Y-90491118D01*
X218164740Y-90549878D01*
X218125590Y-90570258D01*
X218121457Y-90573361D01*
X218121454Y-90573363D01*
X217939375Y-90710072D01*
X217935140Y-90713252D01*
X217770602Y-90885431D01*
X217745723Y-90921902D01*
X217735186Y-90937349D01*
X217680274Y-90982351D01*
X217609749Y-90990522D01*
X217546002Y-90959267D01*
X217525306Y-90934784D01*
X217514217Y-90917642D01*
X217514212Y-90917636D01*
X217511406Y-90913298D01*
X217469144Y-90866852D01*
X217448472Y-90844134D01*
X217351124Y-90737150D01*
X217347073Y-90733951D01*
X217347069Y-90733947D01*
X217168278Y-90592747D01*
X217168273Y-90592744D01*
X217164224Y-90589546D01*
X217159708Y-90587053D01*
X217159705Y-90587051D01*
X216960250Y-90476946D01*
X216960246Y-90476944D01*
X216955726Y-90474449D01*
X216950857Y-90472725D01*
X216950853Y-90472723D01*
X216736105Y-90396676D01*
X216736101Y-90396675D01*
X216731230Y-90394950D01*
X216726140Y-90394043D01*
X216726135Y-90394042D01*
X216598814Y-90371364D01*
X216496764Y-90353186D01*
X216405355Y-90352069D01*
X216263795Y-90350339D01*
X216263793Y-90350339D01*
X216258625Y-90350276D01*
X216023209Y-90386300D01*
X215796838Y-90460289D01*
X215737616Y-90491118D01*
X215624740Y-90549878D01*
X215585590Y-90570258D01*
X215581457Y-90573361D01*
X215581454Y-90573363D01*
X215399375Y-90710072D01*
X215395140Y-90713252D01*
X215230602Y-90885431D01*
X215205723Y-90921902D01*
X215195186Y-90937349D01*
X215140274Y-90982351D01*
X215069749Y-90990522D01*
X215006002Y-90959267D01*
X214985306Y-90934784D01*
X214974217Y-90917642D01*
X214974212Y-90917636D01*
X214971406Y-90913298D01*
X214929144Y-90866852D01*
X214908472Y-90844134D01*
X214811124Y-90737150D01*
X214807073Y-90733951D01*
X214807069Y-90733947D01*
X214628278Y-90592747D01*
X214628273Y-90592744D01*
X214624224Y-90589546D01*
X214619708Y-90587053D01*
X214619705Y-90587051D01*
X214420250Y-90476946D01*
X214420246Y-90476944D01*
X214415726Y-90474449D01*
X214410857Y-90472725D01*
X214410853Y-90472723D01*
X214196105Y-90396676D01*
X214196101Y-90396675D01*
X214191230Y-90394950D01*
X214186140Y-90394043D01*
X214186135Y-90394042D01*
X214058814Y-90371364D01*
X213956764Y-90353186D01*
X213865355Y-90352069D01*
X213723795Y-90350339D01*
X213723793Y-90350339D01*
X213718625Y-90350276D01*
X213483209Y-90386300D01*
X213256838Y-90460289D01*
X213197616Y-90491118D01*
X213084740Y-90549878D01*
X213045590Y-90570258D01*
X213041457Y-90573361D01*
X213041454Y-90573363D01*
X212859375Y-90710072D01*
X212855140Y-90713252D01*
X212690602Y-90885431D01*
X212687691Y-90889699D01*
X212687687Y-90889704D01*
X212618914Y-90990522D01*
X212556394Y-91082172D01*
X212522033Y-91156197D01*
X212462096Y-91285322D01*
X212456122Y-91298191D01*
X212392477Y-91527685D01*
X212367170Y-91764494D01*
X211858500Y-91764494D01*
X211858500Y-87439595D01*
X211878502Y-87371474D01*
X211895405Y-87350499D01*
X212775501Y-86470404D01*
X212837813Y-86436379D01*
X212864596Y-86433500D01*
X212882222Y-86433500D01*
X212950343Y-86453502D01*
X212996836Y-86507158D01*
X213006940Y-86577432D01*
X212983047Y-86635066D01*
X212969385Y-86653295D01*
X212918255Y-86789684D01*
X212911500Y-86851866D01*
X212911500Y-87348134D01*
X212918255Y-87410316D01*
X212969385Y-87546705D01*
X213056739Y-87663261D01*
X213173295Y-87750615D01*
X213309684Y-87801745D01*
X213314416Y-87802259D01*
X213374853Y-87836784D01*
X213407674Y-87899738D01*
X213401250Y-87970444D01*
X213393181Y-87987151D01*
X213360395Y-88043939D01*
X213340473Y-88078444D01*
X213281458Y-88260072D01*
X213280768Y-88266633D01*
X213280768Y-88266635D01*
X213275218Y-88319438D01*
X213261496Y-88450000D01*
X213262186Y-88456565D01*
X213280238Y-88628317D01*
X213281458Y-88639928D01*
X213340473Y-88821556D01*
X213343776Y-88827278D01*
X213343777Y-88827279D01*
X213350558Y-88839024D01*
X213435960Y-88986944D01*
X213440378Y-88991851D01*
X213440379Y-88991852D01*
X213559325Y-89123955D01*
X213563747Y-89128866D01*
X213647219Y-89189512D01*
X213705916Y-89232158D01*
X213718248Y-89241118D01*
X213724276Y-89243802D01*
X213724278Y-89243803D01*
X213886681Y-89316109D01*
X213892712Y-89318794D01*
X213967680Y-89334729D01*
X214073056Y-89357128D01*
X214073061Y-89357128D01*
X214079513Y-89358500D01*
X214270487Y-89358500D01*
X214276939Y-89357128D01*
X214276944Y-89357128D01*
X214382320Y-89334729D01*
X214457288Y-89318794D01*
X214463319Y-89316109D01*
X214625722Y-89243803D01*
X214625724Y-89243802D01*
X214631752Y-89241118D01*
X214644085Y-89232158D01*
X214702781Y-89189512D01*
X214786253Y-89128866D01*
X214790675Y-89123955D01*
X214909621Y-88991852D01*
X214909622Y-88991851D01*
X214914040Y-88986944D01*
X214999442Y-88839024D01*
X215006223Y-88827279D01*
X215006224Y-88827278D01*
X215009527Y-88821556D01*
X215068542Y-88639928D01*
X215069763Y-88628317D01*
X215087814Y-88456565D01*
X215088504Y-88450000D01*
X215074782Y-88319438D01*
X215069232Y-88266635D01*
X215069232Y-88266633D01*
X215068542Y-88260072D01*
X215018156Y-88105000D01*
X223161681Y-88105000D01*
X223180928Y-88349557D01*
X223182082Y-88354364D01*
X223182083Y-88354370D01*
X223205173Y-88450547D01*
X223238195Y-88588092D01*
X223240088Y-88592663D01*
X223240089Y-88592665D01*
X223247984Y-88611725D01*
X223332073Y-88814732D01*
X223408698Y-88939773D01*
X223440612Y-88991852D01*
X223460248Y-89023896D01*
X223463463Y-89027660D01*
X223463465Y-89027663D01*
X223594820Y-89181458D01*
X223619567Y-89210433D01*
X223623323Y-89213641D01*
X223800469Y-89364939D01*
X223806104Y-89369752D01*
X223810327Y-89372340D01*
X223810330Y-89372342D01*
X223879515Y-89414738D01*
X224015268Y-89497927D01*
X224150142Y-89553794D01*
X224237335Y-89589911D01*
X224237337Y-89589912D01*
X224241908Y-89591805D01*
X224310003Y-89608153D01*
X224475630Y-89647917D01*
X224475636Y-89647918D01*
X224480443Y-89649072D01*
X224725000Y-89668319D01*
X224969557Y-89649072D01*
X224974364Y-89647918D01*
X224974370Y-89647917D01*
X225139997Y-89608153D01*
X225208092Y-89591805D01*
X225212663Y-89589912D01*
X225212665Y-89589911D01*
X225299858Y-89553794D01*
X225434732Y-89497927D01*
X225570485Y-89414738D01*
X225639670Y-89372342D01*
X225639673Y-89372340D01*
X225643896Y-89369752D01*
X225649532Y-89364939D01*
X225826677Y-89213641D01*
X225830433Y-89210433D01*
X225855180Y-89181458D01*
X225986535Y-89027663D01*
X225986537Y-89027660D01*
X225989752Y-89023896D01*
X226009389Y-88991852D01*
X226041302Y-88939773D01*
X226117927Y-88814732D01*
X226202016Y-88611725D01*
X226209911Y-88592665D01*
X226209912Y-88592663D01*
X226211805Y-88588092D01*
X226244827Y-88450547D01*
X226267917Y-88354370D01*
X226267918Y-88354364D01*
X226269072Y-88349557D01*
X226288319Y-88105000D01*
X226269072Y-87860443D01*
X226262645Y-87833669D01*
X226220009Y-87656081D01*
X226211805Y-87621908D01*
X226209017Y-87615176D01*
X226162910Y-87503866D01*
X226117927Y-87395268D01*
X226017839Y-87231938D01*
X225992342Y-87190330D01*
X225992340Y-87190327D01*
X225989752Y-87186104D01*
X225976956Y-87171121D01*
X225833641Y-87003323D01*
X225830433Y-86999567D01*
X225749931Y-86930811D01*
X225711122Y-86871360D01*
X225710616Y-86800365D01*
X225749931Y-86739189D01*
X225826677Y-86673641D01*
X225830433Y-86670433D01*
X225857842Y-86638341D01*
X225986535Y-86487663D01*
X225986537Y-86487660D01*
X225989752Y-86483896D01*
X225998020Y-86470405D01*
X226067585Y-86356883D01*
X226117927Y-86274732D01*
X226202703Y-86070066D01*
X226209911Y-86052665D01*
X226209912Y-86052663D01*
X226211805Y-86048092D01*
X226231735Y-85965079D01*
X226267917Y-85814370D01*
X226267918Y-85814364D01*
X226269072Y-85809557D01*
X226288319Y-85565000D01*
X226269072Y-85320443D01*
X226266939Y-85311556D01*
X226227248Y-85146233D01*
X226211805Y-85081908D01*
X226117927Y-84855268D01*
X226023425Y-84701054D01*
X226009168Y-84677788D01*
X225990630Y-84609255D01*
X226012087Y-84541578D01*
X226041035Y-84511128D01*
X226076431Y-84484600D01*
X226138261Y-84438261D01*
X226225615Y-84321705D01*
X226276745Y-84185316D01*
X226283500Y-84123134D01*
X226283500Y-81926866D01*
X226276745Y-81864684D01*
X226225615Y-81728295D01*
X226138261Y-81611739D01*
X226021705Y-81524385D01*
X225885316Y-81473255D01*
X225823134Y-81466500D01*
X223626866Y-81466500D01*
X223564684Y-81473255D01*
X223428295Y-81524385D01*
X223311739Y-81611739D01*
X223224385Y-81728295D01*
X223173255Y-81864684D01*
X223166500Y-81926866D01*
X223166500Y-84123134D01*
X223173255Y-84185316D01*
X223224385Y-84321705D01*
X223311739Y-84438261D01*
X223373569Y-84484600D01*
X223408965Y-84511128D01*
X223451479Y-84567988D01*
X223456504Y-84638806D01*
X223440832Y-84677788D01*
X223426575Y-84701054D01*
X223332073Y-84855268D01*
X223238195Y-85081908D01*
X223222752Y-85146233D01*
X223183062Y-85311556D01*
X223180928Y-85320443D01*
X223161681Y-85565000D01*
X223180928Y-85809557D01*
X223182082Y-85814364D01*
X223182083Y-85814370D01*
X223218265Y-85965079D01*
X223238195Y-86048092D01*
X223240088Y-86052663D01*
X223240089Y-86052665D01*
X223247297Y-86070066D01*
X223332073Y-86274732D01*
X223382415Y-86356883D01*
X223451981Y-86470405D01*
X223460248Y-86483896D01*
X223463463Y-86487660D01*
X223463465Y-86487663D01*
X223592158Y-86638341D01*
X223619567Y-86670433D01*
X223623323Y-86673641D01*
X223700069Y-86739189D01*
X223738878Y-86798640D01*
X223739384Y-86869635D01*
X223700069Y-86930811D01*
X223619567Y-86999567D01*
X223616359Y-87003323D01*
X223473045Y-87171121D01*
X223460248Y-87186104D01*
X223457660Y-87190327D01*
X223457658Y-87190330D01*
X223432161Y-87231938D01*
X223332073Y-87395268D01*
X223287090Y-87503866D01*
X223240984Y-87615176D01*
X223238195Y-87621908D01*
X223229991Y-87656081D01*
X223187356Y-87833669D01*
X223180928Y-87860443D01*
X223161681Y-88105000D01*
X215018156Y-88105000D01*
X215009527Y-88078444D01*
X214989606Y-88043939D01*
X214956819Y-87987151D01*
X214955612Y-87985060D01*
X214938874Y-87916066D01*
X214962094Y-87848974D01*
X215017901Y-87805087D01*
X215027458Y-87802055D01*
X215030316Y-87801745D01*
X215166705Y-87750615D01*
X215283261Y-87663261D01*
X215370615Y-87546705D01*
X215382018Y-87516288D01*
X215424660Y-87459524D01*
X215491222Y-87434824D01*
X215560570Y-87450032D01*
X215610688Y-87500318D01*
X215617982Y-87516288D01*
X215629385Y-87546705D01*
X215716739Y-87663261D01*
X215833295Y-87750615D01*
X215969684Y-87801745D01*
X216031866Y-87808500D01*
X217628134Y-87808500D01*
X217690316Y-87801745D01*
X217826705Y-87750615D01*
X217943261Y-87663261D01*
X218030615Y-87546705D01*
X218034059Y-87537520D01*
X218055362Y-87480693D01*
X218070252Y-87440972D01*
X218112893Y-87384208D01*
X218179454Y-87359508D01*
X218239483Y-87370095D01*
X218286547Y-87391049D01*
X218292712Y-87393794D01*
X218383290Y-87413047D01*
X218473056Y-87432128D01*
X218473061Y-87432128D01*
X218479513Y-87433500D01*
X218670487Y-87433500D01*
X218676939Y-87432128D01*
X218676944Y-87432128D01*
X218766710Y-87413047D01*
X218857288Y-87393794D01*
X218863319Y-87391109D01*
X219025722Y-87318803D01*
X219025724Y-87318802D01*
X219031752Y-87316118D01*
X219186253Y-87203866D01*
X219314040Y-87061944D01*
X219409527Y-86896556D01*
X219468542Y-86714928D01*
X219472882Y-86673641D01*
X219487814Y-86531565D01*
X219488504Y-86525000D01*
X219476259Y-86408494D01*
X219469232Y-86341635D01*
X219469232Y-86341633D01*
X219468542Y-86335072D01*
X219409527Y-86153444D01*
X219403567Y-86143120D01*
X219334761Y-86023946D01*
X219314040Y-85988056D01*
X219215473Y-85878586D01*
X219184758Y-85814582D01*
X219193521Y-85744129D01*
X219207176Y-85720217D01*
X219209621Y-85716852D01*
X219214040Y-85711944D01*
X219298878Y-85565000D01*
X219306223Y-85552279D01*
X219306224Y-85552278D01*
X219309527Y-85546556D01*
X219368542Y-85364928D01*
X219371096Y-85340634D01*
X219387814Y-85181565D01*
X219388504Y-85175000D01*
X219383767Y-85129928D01*
X219369232Y-84991635D01*
X219369232Y-84991633D01*
X219368542Y-84985072D01*
X219309527Y-84803444D01*
X219214040Y-84638056D01*
X219188108Y-84609255D01*
X219090675Y-84501045D01*
X219090674Y-84501044D01*
X219086253Y-84496134D01*
X218949209Y-84396565D01*
X218937094Y-84387763D01*
X218937093Y-84387762D01*
X218931752Y-84383882D01*
X218925724Y-84381198D01*
X218925722Y-84381197D01*
X218763319Y-84308891D01*
X218763318Y-84308891D01*
X218757288Y-84306206D01*
X218652959Y-84284030D01*
X218576944Y-84267872D01*
X218576939Y-84267872D01*
X218570487Y-84266500D01*
X218379513Y-84266500D01*
X218373061Y-84267872D01*
X218373056Y-84267872D01*
X218297041Y-84284030D01*
X218192712Y-84306206D01*
X218186682Y-84308891D01*
X218186681Y-84308891D01*
X218024278Y-84381197D01*
X218024276Y-84381198D01*
X218018248Y-84383882D01*
X218012907Y-84387762D01*
X218012906Y-84387763D01*
X218000791Y-84396565D01*
X217863747Y-84496134D01*
X217859326Y-84501044D01*
X217859325Y-84501045D01*
X217761893Y-84609255D01*
X217735960Y-84638056D01*
X217640473Y-84803444D01*
X217627575Y-84843140D01*
X217584861Y-84974600D01*
X217581458Y-84985072D01*
X217580767Y-84991644D01*
X217580756Y-84991697D01*
X217547027Y-85054171D01*
X217484878Y-85088492D01*
X217457509Y-85091500D01*
X216031866Y-85091500D01*
X215969684Y-85098255D01*
X215833295Y-85149385D01*
X215716739Y-85236739D01*
X215629385Y-85353295D01*
X215626233Y-85361703D01*
X215617982Y-85383712D01*
X215575340Y-85440476D01*
X215508778Y-85465176D01*
X215439430Y-85449968D01*
X215389312Y-85399682D01*
X215382018Y-85383712D01*
X215373767Y-85361703D01*
X215370615Y-85353295D01*
X215283261Y-85236739D01*
X215166705Y-85149385D01*
X215030316Y-85098255D01*
X214968134Y-85091500D01*
X213371866Y-85091500D01*
X213309684Y-85098255D01*
X213173295Y-85149385D01*
X213170158Y-85151736D01*
X213112450Y-85166500D01*
X212628767Y-85166500D01*
X212617584Y-85165973D01*
X212610091Y-85164298D01*
X212602165Y-85164547D01*
X212602164Y-85164547D01*
X212542001Y-85166438D01*
X212538043Y-85166500D01*
X212510144Y-85166500D01*
X212506154Y-85167004D01*
X212494320Y-85167936D01*
X212450111Y-85169326D01*
X212442497Y-85171538D01*
X212442492Y-85171539D01*
X212430659Y-85174977D01*
X212411296Y-85178988D01*
X212391203Y-85181526D01*
X212383836Y-85184443D01*
X212383831Y-85184444D01*
X212350092Y-85197802D01*
X212338865Y-85201646D01*
X212296407Y-85213982D01*
X212289581Y-85218019D01*
X212278972Y-85224293D01*
X212261224Y-85232988D01*
X212242383Y-85240448D01*
X212235967Y-85245110D01*
X212235966Y-85245110D01*
X212206613Y-85266436D01*
X212196693Y-85272952D01*
X212165465Y-85291420D01*
X212165462Y-85291422D01*
X212158638Y-85295458D01*
X212144317Y-85309779D01*
X212129284Y-85322619D01*
X212112893Y-85334528D01*
X212097368Y-85353295D01*
X212084702Y-85368605D01*
X212076722Y-85377374D01*
X211148593Y-86305502D01*
X211086283Y-86339526D01*
X211015467Y-86334461D01*
X210958632Y-86291914D01*
X210933821Y-86225394D01*
X210933500Y-86216405D01*
X210933500Y-78264594D01*
X210953502Y-78196473D01*
X210970405Y-78175499D01*
X212125499Y-77020405D01*
X212187811Y-76986379D01*
X212214594Y-76983500D01*
X212727222Y-76983500D01*
X212795343Y-77003502D01*
X212841836Y-77057158D01*
X212851940Y-77127432D01*
X212828047Y-77185066D01*
X212814385Y-77203295D01*
X212763255Y-77339684D01*
X212756500Y-77401866D01*
X212756500Y-77898134D01*
X212763255Y-77960316D01*
X212814385Y-78096705D01*
X212901739Y-78213261D01*
X213018295Y-78300615D01*
X213026704Y-78303767D01*
X213026705Y-78303768D01*
X213099490Y-78331054D01*
X213156255Y-78373695D01*
X213180955Y-78440257D01*
X213164380Y-78512036D01*
X213140473Y-78553444D01*
X213081458Y-78735072D01*
X213080768Y-78741633D01*
X213080768Y-78741635D01*
X213068681Y-78856635D01*
X213061496Y-78925000D01*
X213081458Y-79114928D01*
X213140473Y-79296556D01*
X213235960Y-79461944D01*
X213240378Y-79466851D01*
X213240379Y-79466852D01*
X213355467Y-79594670D01*
X213363747Y-79603866D01*
X213518248Y-79716118D01*
X213524276Y-79718802D01*
X213524278Y-79718803D01*
X213681138Y-79788641D01*
X213692712Y-79793794D01*
X213786112Y-79813647D01*
X213873056Y-79832128D01*
X213873061Y-79832128D01*
X213879513Y-79833500D01*
X214070487Y-79833500D01*
X214076939Y-79832128D01*
X214076944Y-79832128D01*
X214163888Y-79813647D01*
X214257288Y-79793794D01*
X214268862Y-79788641D01*
X214425722Y-79718803D01*
X214425724Y-79718802D01*
X214431752Y-79716118D01*
X214586253Y-79603866D01*
X214594533Y-79594670D01*
X214709621Y-79466852D01*
X214709622Y-79466851D01*
X214714040Y-79461944D01*
X214809527Y-79296556D01*
X214868542Y-79114928D01*
X214888504Y-78925000D01*
X214881319Y-78856635D01*
X214869232Y-78741635D01*
X214869232Y-78741633D01*
X214868542Y-78735072D01*
X214850648Y-78680000D01*
X223161681Y-78680000D01*
X223180928Y-78924557D01*
X223182082Y-78929364D01*
X223182083Y-78929370D01*
X223207067Y-79033435D01*
X223238195Y-79163092D01*
X223240088Y-79167663D01*
X223240089Y-79167665D01*
X223249595Y-79190615D01*
X223332073Y-79389732D01*
X223460248Y-79598896D01*
X223463463Y-79602660D01*
X223463465Y-79602663D01*
X223616359Y-79781677D01*
X223619567Y-79785433D01*
X223623323Y-79788641D01*
X223797583Y-79937474D01*
X223806104Y-79944752D01*
X223810327Y-79947340D01*
X223810330Y-79947342D01*
X223831876Y-79960545D01*
X224015268Y-80072927D01*
X224144628Y-80126510D01*
X224237335Y-80164911D01*
X224237337Y-80164912D01*
X224241908Y-80166805D01*
X224299581Y-80180651D01*
X224475630Y-80222917D01*
X224475636Y-80222918D01*
X224480443Y-80224072D01*
X224725000Y-80243319D01*
X224969557Y-80224072D01*
X224974364Y-80222918D01*
X224974370Y-80222917D01*
X225150419Y-80180651D01*
X225208092Y-80166805D01*
X225212663Y-80164912D01*
X225212665Y-80164911D01*
X225305372Y-80126510D01*
X225434732Y-80072927D01*
X225618124Y-79960545D01*
X225639670Y-79947342D01*
X225639673Y-79947340D01*
X225643896Y-79944752D01*
X225652418Y-79937474D01*
X225826677Y-79788641D01*
X225830433Y-79785433D01*
X225833641Y-79781677D01*
X225986535Y-79602663D01*
X225986537Y-79602660D01*
X225989752Y-79598896D01*
X226117927Y-79389732D01*
X226200405Y-79190615D01*
X226209911Y-79167665D01*
X226209912Y-79167663D01*
X226211805Y-79163092D01*
X226242933Y-79033435D01*
X226267917Y-78929370D01*
X226267918Y-78929364D01*
X226269072Y-78924557D01*
X226288319Y-78680000D01*
X226269072Y-78435443D01*
X226260403Y-78399331D01*
X226227235Y-78261180D01*
X226211805Y-78196908D01*
X226204937Y-78180326D01*
X226170299Y-78096705D01*
X226117927Y-77970268D01*
X226030221Y-77827144D01*
X225992342Y-77765330D01*
X225992340Y-77765327D01*
X225989752Y-77761104D01*
X225980039Y-77749731D01*
X225833641Y-77578323D01*
X225830433Y-77574567D01*
X225792828Y-77542449D01*
X225749931Y-77505811D01*
X225711122Y-77446360D01*
X225710616Y-77375365D01*
X225749931Y-77314189D01*
X225826677Y-77248641D01*
X225830433Y-77245433D01*
X225891522Y-77173908D01*
X225986535Y-77062663D01*
X225986537Y-77062660D01*
X225989752Y-77058896D01*
X226117927Y-76849732D01*
X226184222Y-76689684D01*
X226209911Y-76627665D01*
X226209912Y-76627663D01*
X226211805Y-76623092D01*
X226231649Y-76540437D01*
X226267917Y-76389370D01*
X226267918Y-76389364D01*
X226269072Y-76384557D01*
X226288319Y-76140000D01*
X226269072Y-75895443D01*
X226267918Y-75890636D01*
X226267917Y-75890630D01*
X226226097Y-75716438D01*
X226211805Y-75656908D01*
X226207868Y-75647402D01*
X226119820Y-75434839D01*
X226117927Y-75430268D01*
X226009168Y-75252788D01*
X225990630Y-75184255D01*
X226012087Y-75116578D01*
X226041035Y-75086128D01*
X226057348Y-75073902D01*
X226138261Y-75013261D01*
X226225615Y-74896705D01*
X226276745Y-74760316D01*
X226283500Y-74698134D01*
X226283500Y-72501866D01*
X226276745Y-72439684D01*
X226225615Y-72303295D01*
X226138261Y-72186739D01*
X226021705Y-72099385D01*
X225885316Y-72048255D01*
X225823134Y-72041500D01*
X223626866Y-72041500D01*
X223564684Y-72048255D01*
X223428295Y-72099385D01*
X223311739Y-72186739D01*
X223224385Y-72303295D01*
X223173255Y-72439684D01*
X223166500Y-72501866D01*
X223166500Y-74698134D01*
X223173255Y-74760316D01*
X223224385Y-74896705D01*
X223311739Y-75013261D01*
X223392652Y-75073902D01*
X223408965Y-75086128D01*
X223451479Y-75142988D01*
X223456504Y-75213806D01*
X223440832Y-75252788D01*
X223332073Y-75430268D01*
X223330180Y-75434839D01*
X223242133Y-75647402D01*
X223238195Y-75656908D01*
X223223903Y-75716438D01*
X223182083Y-75890630D01*
X223182082Y-75890636D01*
X223180928Y-75895443D01*
X223161681Y-76140000D01*
X223180928Y-76384557D01*
X223182082Y-76389364D01*
X223182083Y-76389370D01*
X223218351Y-76540437D01*
X223238195Y-76623092D01*
X223240088Y-76627663D01*
X223240089Y-76627665D01*
X223265778Y-76689684D01*
X223332073Y-76849732D01*
X223460248Y-77058896D01*
X223463463Y-77062660D01*
X223463465Y-77062663D01*
X223558478Y-77173908D01*
X223619567Y-77245433D01*
X223623323Y-77248641D01*
X223700069Y-77314189D01*
X223738878Y-77373640D01*
X223739384Y-77444635D01*
X223700069Y-77505811D01*
X223657172Y-77542449D01*
X223619567Y-77574567D01*
X223616359Y-77578323D01*
X223469962Y-77749731D01*
X223460248Y-77761104D01*
X223457660Y-77765327D01*
X223457658Y-77765330D01*
X223419779Y-77827144D01*
X223332073Y-77970268D01*
X223279701Y-78096705D01*
X223245064Y-78180326D01*
X223238195Y-78196908D01*
X223222765Y-78261180D01*
X223189598Y-78399331D01*
X223180928Y-78435443D01*
X223161681Y-78680000D01*
X214850648Y-78680000D01*
X214809527Y-78553444D01*
X214799119Y-78535416D01*
X214782380Y-78466423D01*
X214805599Y-78399331D01*
X214861405Y-78355443D01*
X214871892Y-78352117D01*
X214875316Y-78351745D01*
X214882705Y-78348975D01*
X214882709Y-78348974D01*
X215003297Y-78303767D01*
X215011705Y-78300615D01*
X215128261Y-78213261D01*
X215215615Y-78096705D01*
X215219710Y-78085781D01*
X215227018Y-78066288D01*
X215269660Y-78009524D01*
X215336222Y-77984824D01*
X215405570Y-78000032D01*
X215455688Y-78050318D01*
X215462982Y-78066288D01*
X215470290Y-78085781D01*
X215474385Y-78096705D01*
X215561739Y-78213261D01*
X215678295Y-78300615D01*
X215814684Y-78351745D01*
X215876866Y-78358500D01*
X217473134Y-78358500D01*
X217535316Y-78351745D01*
X217671705Y-78300615D01*
X217788261Y-78213261D01*
X217875615Y-78096705D01*
X217926745Y-77960316D01*
X217933500Y-77898134D01*
X217933500Y-77817852D01*
X217953502Y-77749731D01*
X218007158Y-77703238D01*
X218077432Y-77693134D01*
X218133559Y-77715915D01*
X218168248Y-77741118D01*
X218174276Y-77743802D01*
X218174278Y-77743803D01*
X218336681Y-77816109D01*
X218342712Y-77818794D01*
X218436113Y-77838647D01*
X218523056Y-77857128D01*
X218523061Y-77857128D01*
X218529513Y-77858500D01*
X218720487Y-77858500D01*
X218726939Y-77857128D01*
X218726944Y-77857128D01*
X218813888Y-77838647D01*
X218907288Y-77818794D01*
X218913319Y-77816109D01*
X219075722Y-77743803D01*
X219075724Y-77743802D01*
X219081752Y-77741118D01*
X219116440Y-77715916D01*
X219166201Y-77679762D01*
X219236253Y-77628866D01*
X219240675Y-77623955D01*
X219359621Y-77491852D01*
X219359622Y-77491851D01*
X219364040Y-77486944D01*
X219459527Y-77321556D01*
X219518542Y-77139928D01*
X219519856Y-77127432D01*
X219537814Y-76956565D01*
X219538504Y-76950000D01*
X219532683Y-76894615D01*
X219519232Y-76766635D01*
X219519232Y-76766633D01*
X219518542Y-76760072D01*
X219459527Y-76578444D01*
X219364040Y-76413056D01*
X219344337Y-76391173D01*
X219240675Y-76276045D01*
X219240674Y-76276044D01*
X219236253Y-76271134D01*
X219215630Y-76256150D01*
X219184439Y-76233489D01*
X219154858Y-76211997D01*
X219111505Y-76155776D01*
X219105430Y-76085040D01*
X219119801Y-76047062D01*
X219131223Y-76027279D01*
X219131224Y-76027278D01*
X219134527Y-76021556D01*
X219193542Y-75839928D01*
X219198743Y-75790448D01*
X219212814Y-75656565D01*
X219213504Y-75650000D01*
X219198900Y-75511050D01*
X219194232Y-75466635D01*
X219194232Y-75466633D01*
X219193542Y-75460072D01*
X219134527Y-75278444D01*
X219119715Y-75252788D01*
X219053967Y-75138911D01*
X219039040Y-75113056D01*
X219017910Y-75089588D01*
X218915675Y-74976045D01*
X218915674Y-74976044D01*
X218911253Y-74971134D01*
X218756752Y-74858882D01*
X218750724Y-74856198D01*
X218750722Y-74856197D01*
X218588319Y-74783891D01*
X218588318Y-74783891D01*
X218582288Y-74781206D01*
X218484009Y-74760316D01*
X218401944Y-74742872D01*
X218401939Y-74742872D01*
X218395487Y-74741500D01*
X218204513Y-74741500D01*
X218198061Y-74742872D01*
X218198056Y-74742872D01*
X218115991Y-74760316D01*
X218017712Y-74781206D01*
X218011682Y-74783891D01*
X218011681Y-74783891D01*
X217849278Y-74856197D01*
X217849276Y-74856198D01*
X217843248Y-74858882D01*
X217688747Y-74971134D01*
X217684326Y-74976044D01*
X217684325Y-74976045D01*
X217582091Y-75089588D01*
X217560960Y-75113056D01*
X217546033Y-75138911D01*
X217480286Y-75252788D01*
X217465473Y-75278444D01*
X217406458Y-75460072D01*
X217405768Y-75466635D01*
X217405768Y-75466636D01*
X217399248Y-75528671D01*
X217372235Y-75594327D01*
X217314013Y-75634957D01*
X217273938Y-75641500D01*
X215876866Y-75641500D01*
X215814684Y-75648255D01*
X215678295Y-75699385D01*
X215561739Y-75786739D01*
X215474385Y-75903295D01*
X215471233Y-75911703D01*
X215462982Y-75933712D01*
X215420340Y-75990476D01*
X215353778Y-76015176D01*
X215284430Y-75999968D01*
X215234312Y-75949682D01*
X215227018Y-75933712D01*
X215218767Y-75911703D01*
X215215615Y-75903295D01*
X215128261Y-75786739D01*
X215011705Y-75699385D01*
X214875316Y-75648255D01*
X214813134Y-75641500D01*
X213216866Y-75641500D01*
X213154684Y-75648255D01*
X213018295Y-75699385D01*
X213015158Y-75701736D01*
X212957450Y-75716500D01*
X211978768Y-75716500D01*
X211967585Y-75715973D01*
X211960092Y-75714298D01*
X211952166Y-75714547D01*
X211952165Y-75714547D01*
X211892002Y-75716438D01*
X211888044Y-75716500D01*
X211860144Y-75716500D01*
X211856154Y-75717004D01*
X211844320Y-75717936D01*
X211800111Y-75719326D01*
X211792497Y-75721538D01*
X211792492Y-75721539D01*
X211780659Y-75724977D01*
X211761296Y-75728988D01*
X211741203Y-75731526D01*
X211733836Y-75734443D01*
X211733831Y-75734444D01*
X211700092Y-75747802D01*
X211688865Y-75751646D01*
X211681561Y-75753768D01*
X211646407Y-75763982D01*
X211639581Y-75768019D01*
X211628972Y-75774293D01*
X211611224Y-75782988D01*
X211592383Y-75790448D01*
X211585967Y-75795110D01*
X211585966Y-75795110D01*
X211556613Y-75816436D01*
X211546693Y-75822952D01*
X211515465Y-75841420D01*
X211515462Y-75841422D01*
X211508638Y-75845458D01*
X211494317Y-75859779D01*
X211479284Y-75872619D01*
X211462893Y-75884528D01*
X211449782Y-75900377D01*
X211434702Y-75918605D01*
X211426712Y-75927384D01*
X209907747Y-77446348D01*
X209899461Y-77453888D01*
X209892982Y-77458000D01*
X209887557Y-77463777D01*
X209846357Y-77507651D01*
X209843602Y-77510493D01*
X209823865Y-77530230D01*
X209821385Y-77533427D01*
X209813682Y-77542447D01*
X209783414Y-77574679D01*
X209779595Y-77581625D01*
X209779593Y-77581628D01*
X209773652Y-77592434D01*
X209762801Y-77608953D01*
X209750386Y-77624959D01*
X209747241Y-77632228D01*
X209747238Y-77632232D01*
X209732826Y-77665537D01*
X209727609Y-77676187D01*
X209706305Y-77714940D01*
X209704334Y-77722615D01*
X209704334Y-77722616D01*
X209701267Y-77734562D01*
X209694863Y-77753266D01*
X209686819Y-77771855D01*
X209685580Y-77779678D01*
X209685577Y-77779688D01*
X209679901Y-77815524D01*
X209677495Y-77827144D01*
X209669797Y-77857128D01*
X209666500Y-77869970D01*
X209666500Y-77890224D01*
X209664949Y-77909934D01*
X209661780Y-77929943D01*
X209663909Y-77952460D01*
X209665941Y-77973961D01*
X209666500Y-77985819D01*
X209666500Y-89447476D01*
X209646498Y-89515597D01*
X209634142Y-89531779D01*
X209560960Y-89613056D01*
X209516192Y-89690597D01*
X209471176Y-89768567D01*
X209465473Y-89778444D01*
X209406458Y-89960072D01*
X209405768Y-89966633D01*
X209405768Y-89966635D01*
X209390146Y-90115271D01*
X209386496Y-90150000D01*
X209387186Y-90156565D01*
X209399228Y-90271134D01*
X209406458Y-90339928D01*
X209465473Y-90521556D01*
X209560960Y-90686944D01*
X209565378Y-90691851D01*
X209565379Y-90691852D01*
X209672539Y-90810865D01*
X209688747Y-90828866D01*
X209761458Y-90881694D01*
X209816800Y-90921902D01*
X209843248Y-90941118D01*
X209849276Y-90943802D01*
X209849278Y-90943803D01*
X209984183Y-91003866D01*
X210017712Y-91018794D01*
X210111112Y-91038647D01*
X210198056Y-91057128D01*
X210198061Y-91057128D01*
X210204513Y-91058500D01*
X210395487Y-91058500D01*
X210406511Y-91056157D01*
X210439304Y-91049187D01*
X210510095Y-91054590D01*
X210566727Y-91097407D01*
X210591220Y-91164045D01*
X210591500Y-91172434D01*
X210591500Y-91935405D01*
X210571498Y-92003526D01*
X210554595Y-92024500D01*
X210423595Y-92155500D01*
X210361283Y-92189526D01*
X210290468Y-92184461D01*
X210233632Y-92141914D01*
X210208821Y-92075394D01*
X210208500Y-92066406D01*
X210208499Y-91839239D01*
X210208499Y-91835116D01*
X210206351Y-91818794D01*
X210193916Y-91724337D01*
X210193916Y-91724335D01*
X210192838Y-91716150D01*
X210151618Y-91616635D01*
X210134684Y-91575752D01*
X210134683Y-91575750D01*
X210131524Y-91568124D01*
X210064844Y-91481226D01*
X210039014Y-91447564D01*
X210039013Y-91447563D01*
X210033987Y-91441013D01*
X210027436Y-91435986D01*
X210027434Y-91435984D01*
X209970431Y-91392244D01*
X209906875Y-91343476D01*
X209758850Y-91282162D01*
X209712387Y-91276045D01*
X209643972Y-91267038D01*
X209643971Y-91267038D01*
X209639885Y-91266500D01*
X208962583Y-91266500D01*
X208285116Y-91266501D01*
X208281032Y-91267039D01*
X208281026Y-91267039D01*
X208224693Y-91274455D01*
X208154544Y-91263515D01*
X208134187Y-91251469D01*
X208012094Y-91162763D01*
X208012093Y-91162762D01*
X208006752Y-91158882D01*
X208000724Y-91156198D01*
X208000722Y-91156197D01*
X207838319Y-91083891D01*
X207838318Y-91083891D01*
X207832288Y-91081206D01*
X207738887Y-91061353D01*
X207651944Y-91042872D01*
X207651939Y-91042872D01*
X207645487Y-91041500D01*
X207454513Y-91041500D01*
X207448061Y-91042872D01*
X207448056Y-91042872D01*
X207361113Y-91061353D01*
X207267712Y-91081206D01*
X207261682Y-91083891D01*
X207261681Y-91083891D01*
X207099278Y-91156197D01*
X207099276Y-91156198D01*
X207093248Y-91158882D01*
X207087907Y-91162762D01*
X207087906Y-91162763D01*
X207045196Y-91193794D01*
X206938747Y-91271134D01*
X206934326Y-91276044D01*
X206934325Y-91276045D01*
X206826197Y-91396134D01*
X206810960Y-91413056D01*
X206794819Y-91441013D01*
X206741814Y-91532821D01*
X206715473Y-91578444D01*
X206656458Y-91760072D01*
X206655768Y-91766633D01*
X206655768Y-91766635D01*
X206648137Y-91839239D01*
X206636496Y-91950000D01*
X206637186Y-91956565D01*
X206654256Y-92118973D01*
X206656458Y-92139928D01*
X206715473Y-92321556D01*
X206718776Y-92327278D01*
X206718777Y-92327279D01*
X206724357Y-92336944D01*
X206810960Y-92486944D01*
X206815378Y-92491851D01*
X206815379Y-92491852D01*
X206928207Y-92617160D01*
X206938747Y-92628866D01*
X206996713Y-92670981D01*
X207067857Y-92722670D01*
X207093248Y-92741118D01*
X207099276Y-92743802D01*
X207099278Y-92743803D01*
X207254943Y-92813109D01*
X207267712Y-92818794D01*
X207342680Y-92834729D01*
X207448056Y-92857128D01*
X207448061Y-92857128D01*
X207454513Y-92858500D01*
X207611314Y-92858500D01*
X207679435Y-92878502D01*
X207725928Y-92932158D01*
X207736032Y-93002432D01*
X207734253Y-93011101D01*
X207732162Y-93016150D01*
X207731085Y-93024334D01*
X207731084Y-93024336D01*
X207719797Y-93110072D01*
X207716500Y-93135115D01*
X207716501Y-93414884D01*
X207717039Y-93418969D01*
X207717039Y-93418973D01*
X207726380Y-93489928D01*
X207732162Y-93533850D01*
X207735322Y-93541478D01*
X207739589Y-93551780D01*
X207747179Y-93622370D01*
X207739590Y-93648218D01*
X207732162Y-93666150D01*
X207731084Y-93674338D01*
X207724242Y-93726312D01*
X207716500Y-93785115D01*
X207716501Y-94064884D01*
X207717039Y-94068969D01*
X207717039Y-94068973D01*
X207730911Y-94174348D01*
X207732162Y-94183850D01*
X207735322Y-94191478D01*
X207739589Y-94201780D01*
X207747179Y-94272370D01*
X207739590Y-94298218D01*
X207732162Y-94316150D01*
X207716500Y-94435115D01*
X207716500Y-94465500D01*
X207696498Y-94533621D01*
X207642842Y-94580114D01*
X207590500Y-94591500D01*
X207195768Y-94591500D01*
X207127647Y-94571498D01*
X207081154Y-94517842D01*
X207070458Y-94478670D01*
X207063424Y-94411741D01*
X207063424Y-94411739D01*
X207062734Y-94405178D01*
X207003719Y-94223550D01*
X206908232Y-94058162D01*
X206847866Y-93991118D01*
X206784867Y-93921151D01*
X206784866Y-93921150D01*
X206780445Y-93916240D01*
X206625944Y-93803988D01*
X206619916Y-93801304D01*
X206619914Y-93801303D01*
X206457511Y-93728997D01*
X206457510Y-93728997D01*
X206451480Y-93726312D01*
X206358080Y-93706459D01*
X206271136Y-93687978D01*
X206271131Y-93687978D01*
X206264679Y-93686606D01*
X206073705Y-93686606D01*
X206036234Y-93694571D01*
X205965445Y-93689170D01*
X205916404Y-93655638D01*
X205850711Y-93582678D01*
X205819995Y-93518672D01*
X205819039Y-93485200D01*
X205837814Y-93306565D01*
X205838504Y-93300000D01*
X205827994Y-93200000D01*
X205819232Y-93116635D01*
X205819232Y-93116633D01*
X205818542Y-93110072D01*
X205759527Y-92928444D01*
X205718353Y-92857128D01*
X205715257Y-92851766D01*
X205698520Y-92782771D01*
X205721741Y-92715679D01*
X205730741Y-92704457D01*
X205809621Y-92616852D01*
X205809622Y-92616851D01*
X205814040Y-92611944D01*
X205890873Y-92478866D01*
X205906223Y-92452279D01*
X205906224Y-92452278D01*
X205909527Y-92446556D01*
X205968542Y-92264928D01*
X205971809Y-92233850D01*
X205987814Y-92081565D01*
X205988504Y-92075000D01*
X205986034Y-92051502D01*
X205969232Y-91891635D01*
X205969232Y-91891633D01*
X205968542Y-91885072D01*
X205909527Y-91703444D01*
X205814040Y-91538056D01*
X205809327Y-91532821D01*
X205690675Y-91401045D01*
X205690674Y-91401044D01*
X205686253Y-91396134D01*
X205574955Y-91315271D01*
X205537094Y-91287763D01*
X205537093Y-91287762D01*
X205531752Y-91283882D01*
X205525724Y-91281198D01*
X205525722Y-91281197D01*
X205454769Y-91249607D01*
X205400673Y-91203627D01*
X205380024Y-91135700D01*
X205399376Y-91067391D01*
X205452587Y-91020390D01*
X205506018Y-91008500D01*
X205687900Y-91008500D01*
X205691146Y-91008163D01*
X205691150Y-91008163D01*
X205786808Y-90998238D01*
X205786812Y-90998237D01*
X205793666Y-90997526D01*
X205800202Y-90995345D01*
X205800204Y-90995345D01*
X205936118Y-90950000D01*
X205961446Y-90941550D01*
X206111848Y-90848478D01*
X206149396Y-90810865D01*
X206231634Y-90728483D01*
X206236805Y-90723303D01*
X206240648Y-90717069D01*
X206259436Y-90686590D01*
X206312208Y-90639097D01*
X206382280Y-90627675D01*
X206392889Y-90629459D01*
X206423279Y-90635919D01*
X206523056Y-90657128D01*
X206523061Y-90657128D01*
X206529513Y-90658500D01*
X206720487Y-90658500D01*
X206726939Y-90657128D01*
X206726944Y-90657128D01*
X206813887Y-90638647D01*
X206907288Y-90618794D01*
X206913319Y-90616109D01*
X207075722Y-90543803D01*
X207075724Y-90543802D01*
X207081752Y-90541118D01*
X207109159Y-90521206D01*
X207150571Y-90491118D01*
X207236253Y-90428866D01*
X207316333Y-90339928D01*
X207359621Y-90291852D01*
X207359622Y-90291851D01*
X207364040Y-90286944D01*
X207451724Y-90135072D01*
X207456223Y-90127279D01*
X207456224Y-90127278D01*
X207459527Y-90121556D01*
X207518542Y-89939928D01*
X207538504Y-89750000D01*
X207527047Y-89640991D01*
X207519232Y-89566635D01*
X207519232Y-89566633D01*
X207518542Y-89560072D01*
X207459527Y-89378444D01*
X207364040Y-89213056D01*
X207358297Y-89206677D01*
X207240675Y-89076045D01*
X207240674Y-89076044D01*
X207236253Y-89071134D01*
X207081752Y-88958882D01*
X207075724Y-88956198D01*
X207075722Y-88956197D01*
X206913319Y-88883891D01*
X206913318Y-88883891D01*
X206907288Y-88881206D01*
X206813887Y-88861353D01*
X206726944Y-88842872D01*
X206726939Y-88842872D01*
X206720487Y-88841500D01*
X206529513Y-88841500D01*
X206523061Y-88842872D01*
X206523056Y-88842872D01*
X206364540Y-88876566D01*
X206293749Y-88871164D01*
X206239691Y-88831651D01*
X206235978Y-88825652D01*
X206110803Y-88700695D01*
X206104572Y-88696854D01*
X205966468Y-88611725D01*
X205966466Y-88611724D01*
X205960238Y-88607885D01*
X205880495Y-88581436D01*
X205798889Y-88554368D01*
X205798887Y-88554368D01*
X205792361Y-88552203D01*
X205785525Y-88551503D01*
X205785522Y-88551502D01*
X205737246Y-88546556D01*
X205687900Y-88541500D01*
X204912100Y-88541500D01*
X204908854Y-88541837D01*
X204908850Y-88541837D01*
X204813192Y-88551762D01*
X204813188Y-88551763D01*
X204806334Y-88552474D01*
X204799798Y-88554655D01*
X204799796Y-88554655D01*
X204737182Y-88575545D01*
X204638554Y-88608450D01*
X204488152Y-88701522D01*
X204363195Y-88826697D01*
X204360594Y-88830916D01*
X204303470Y-88871417D01*
X204232547Y-88874649D01*
X204171135Y-88839024D01*
X204164578Y-88831470D01*
X204160978Y-88825652D01*
X204035803Y-88700695D01*
X203918383Y-88628316D01*
X203870891Y-88575545D01*
X203858500Y-88521057D01*
X203858500Y-88510144D01*
X203857995Y-88506144D01*
X203857062Y-88494301D01*
X203856566Y-88478502D01*
X203855673Y-88450110D01*
X203850022Y-88430658D01*
X203846014Y-88411306D01*
X203844467Y-88399063D01*
X203843474Y-88391203D01*
X203835037Y-88369892D01*
X203827200Y-88350097D01*
X203823355Y-88338870D01*
X203822721Y-88336687D01*
X203811018Y-88296407D01*
X203800707Y-88278972D01*
X203792012Y-88261224D01*
X203784552Y-88242383D01*
X203779893Y-88235970D01*
X203778397Y-88233249D01*
X203763486Y-88175170D01*
X203763504Y-88175000D01*
X203743542Y-87985072D01*
X203723539Y-87923510D01*
X203713681Y-87893169D01*
X203711654Y-87822201D01*
X203748316Y-87761404D01*
X203807317Y-87730987D01*
X203975822Y-87695169D01*
X203975827Y-87695167D01*
X203982288Y-87693794D01*
X204009874Y-87681512D01*
X204150722Y-87618803D01*
X204150724Y-87618802D01*
X204156752Y-87616118D01*
X204166624Y-87608946D01*
X204263863Y-87538297D01*
X204311253Y-87503866D01*
X204332118Y-87480693D01*
X204434621Y-87366852D01*
X204434622Y-87366851D01*
X204439040Y-87361944D01*
X204515684Y-87229193D01*
X204531223Y-87202279D01*
X204531224Y-87202278D01*
X204534527Y-87196556D01*
X204593542Y-87014928D01*
X204595157Y-86999567D01*
X204612814Y-86831565D01*
X204613504Y-86825000D01*
X204610915Y-86800365D01*
X204610134Y-86792933D01*
X204617852Y-86736594D01*
X204618695Y-86735060D01*
X204623732Y-86715442D01*
X204630138Y-86696730D01*
X204635034Y-86685417D01*
X204638181Y-86678145D01*
X204639998Y-86666677D01*
X204645097Y-86634481D01*
X204647504Y-86622860D01*
X204656528Y-86587711D01*
X204656528Y-86587710D01*
X204658500Y-86580030D01*
X204658500Y-86559769D01*
X204660051Y-86540058D01*
X204661979Y-86527886D01*
X204663219Y-86520057D01*
X204663219Y-86520056D01*
X204663404Y-86520085D01*
X204684230Y-86456603D01*
X204739318Y-86411817D01*
X204748160Y-86408494D01*
X204792002Y-86393867D01*
X204792004Y-86393866D01*
X204798946Y-86391550D01*
X204838433Y-86367115D01*
X204943120Y-86302332D01*
X204949348Y-86298478D01*
X205074305Y-86173303D01*
X205085883Y-86154521D01*
X205096869Y-86136697D01*
X205137942Y-86070065D01*
X205190713Y-86022573D01*
X205260785Y-86011149D01*
X205325909Y-86039423D01*
X205352345Y-86069878D01*
X205401522Y-86149348D01*
X205526697Y-86274305D01*
X205532927Y-86278145D01*
X205532928Y-86278146D01*
X205671010Y-86363261D01*
X205677262Y-86367115D01*
X205739318Y-86387698D01*
X205838611Y-86420632D01*
X205838613Y-86420632D01*
X205845139Y-86422797D01*
X205851975Y-86423497D01*
X205851978Y-86423498D01*
X205895031Y-86427909D01*
X205949600Y-86433500D01*
X206560406Y-86433500D01*
X206628527Y-86453502D01*
X206649501Y-86470405D01*
X206652878Y-86473782D01*
X206686904Y-86536094D01*
X206689092Y-86549703D01*
X206692007Y-86577432D01*
X206702119Y-86673641D01*
X206706458Y-86714928D01*
X206765473Y-86896556D01*
X206860960Y-87061944D01*
X206988747Y-87203866D01*
X207143248Y-87316118D01*
X207149276Y-87318802D01*
X207149278Y-87318803D01*
X207311681Y-87391109D01*
X207317712Y-87393794D01*
X207408290Y-87413047D01*
X207498056Y-87432128D01*
X207498061Y-87432128D01*
X207504513Y-87433500D01*
X207695487Y-87433500D01*
X207701939Y-87432128D01*
X207701944Y-87432128D01*
X207791710Y-87413047D01*
X207882288Y-87393794D01*
X207888319Y-87391109D01*
X208050722Y-87318803D01*
X208050724Y-87318802D01*
X208056752Y-87316118D01*
X208211253Y-87203866D01*
X208339040Y-87061944D01*
X208434527Y-86896556D01*
X208493542Y-86714928D01*
X208497882Y-86673641D01*
X208512814Y-86531565D01*
X208513504Y-86525000D01*
X208501259Y-86408494D01*
X208494232Y-86341635D01*
X208494232Y-86341633D01*
X208493542Y-86335072D01*
X208434527Y-86153444D01*
X208428567Y-86143120D01*
X208359761Y-86023946D01*
X208339040Y-85988056D01*
X208318352Y-85965079D01*
X208215675Y-85851045D01*
X208215674Y-85851044D01*
X208211253Y-85846134D01*
X208109796Y-85772421D01*
X208062094Y-85737763D01*
X208062093Y-85737762D01*
X208056752Y-85733882D01*
X208050724Y-85731198D01*
X208050722Y-85731197D01*
X207888319Y-85658891D01*
X207888318Y-85658891D01*
X207882288Y-85656206D01*
X207758303Y-85629852D01*
X207695830Y-85596123D01*
X207661508Y-85533974D01*
X207658500Y-85506605D01*
X207658500Y-84974600D01*
X207655906Y-84949600D01*
X207648238Y-84875692D01*
X207648237Y-84875688D01*
X207647526Y-84868834D01*
X207641903Y-84851978D01*
X207593868Y-84708002D01*
X207591550Y-84701054D01*
X207498478Y-84550652D01*
X207373303Y-84425695D01*
X207369084Y-84423094D01*
X207328583Y-84365970D01*
X207325351Y-84295047D01*
X207360976Y-84233635D01*
X207368530Y-84227078D01*
X207374348Y-84223478D01*
X207499305Y-84098303D01*
X207522514Y-84060652D01*
X207588275Y-83953968D01*
X207588276Y-83953966D01*
X207592115Y-83947738D01*
X207647797Y-83779861D01*
X207648932Y-83768790D01*
X207653908Y-83720219D01*
X207658500Y-83675400D01*
X207658500Y-82924600D01*
X207658163Y-82921350D01*
X207648238Y-82825692D01*
X207648237Y-82825688D01*
X207647526Y-82818834D01*
X207641936Y-82802077D01*
X207593868Y-82658002D01*
X207591550Y-82651054D01*
X207498478Y-82500652D01*
X207373303Y-82375695D01*
X207367072Y-82371854D01*
X207228968Y-82286725D01*
X207228966Y-82286724D01*
X207222738Y-82282885D01*
X207125368Y-82250589D01*
X207061389Y-82229368D01*
X207061387Y-82229368D01*
X207054861Y-82227203D01*
X207048025Y-82226503D01*
X207048022Y-82226502D01*
X206998087Y-82221386D01*
X206950400Y-82216500D01*
X205949600Y-82216500D01*
X205946354Y-82216837D01*
X205946350Y-82216837D01*
X205850692Y-82226762D01*
X205850688Y-82226763D01*
X205843834Y-82227474D01*
X205837298Y-82229655D01*
X205837296Y-82229655D01*
X205705194Y-82273728D01*
X205676054Y-82283450D01*
X205525652Y-82376522D01*
X205400695Y-82501697D01*
X205396855Y-82507927D01*
X205396854Y-82507928D01*
X205388478Y-82521517D01*
X205342033Y-82596865D01*
X205337059Y-82604934D01*
X205284287Y-82652427D01*
X205214215Y-82663851D01*
X205149091Y-82635577D01*
X205122655Y-82605121D01*
X205077332Y-82531880D01*
X205073478Y-82525652D01*
X204948303Y-82400695D01*
X204936631Y-82393500D01*
X204803968Y-82311725D01*
X204803966Y-82311724D01*
X204797738Y-82307885D01*
X204715419Y-82280581D01*
X204636389Y-82254368D01*
X204636387Y-82254368D01*
X204629861Y-82252203D01*
X204623025Y-82251503D01*
X204623022Y-82251502D01*
X204579969Y-82247091D01*
X204525400Y-82241500D01*
X203524600Y-82241500D01*
X203521354Y-82241837D01*
X203521350Y-82241837D01*
X203425692Y-82251762D01*
X203425688Y-82251763D01*
X203418834Y-82252474D01*
X203412298Y-82254655D01*
X203412296Y-82254655D01*
X203314430Y-82287306D01*
X203251054Y-82308450D01*
X203100652Y-82401522D01*
X202975695Y-82526697D01*
X202971855Y-82532927D01*
X202971854Y-82532928D01*
X202889436Y-82666635D01*
X202882885Y-82677262D01*
X202867292Y-82724274D01*
X202841171Y-82803028D01*
X202827203Y-82845139D01*
X202816500Y-82949600D01*
X202816500Y-83750400D01*
X202816837Y-83753646D01*
X202816837Y-83753650D01*
X202826155Y-83843450D01*
X202827474Y-83856166D01*
X202883450Y-84023946D01*
X202976522Y-84174348D01*
X203035913Y-84233635D01*
X203063109Y-84260784D01*
X203097188Y-84323066D01*
X203092185Y-84393886D01*
X203063264Y-84438975D01*
X203058607Y-84443640D01*
X202975695Y-84526697D01*
X202971855Y-84532927D01*
X202971854Y-84532928D01*
X202964118Y-84545479D01*
X202882885Y-84677262D01*
X202877060Y-84694824D01*
X202841033Y-84803444D01*
X202827203Y-84845139D01*
X202826503Y-84851975D01*
X202826502Y-84851978D01*
X202822091Y-84895031D01*
X202816500Y-84949600D01*
X202816500Y-85750400D01*
X202816837Y-85753646D01*
X202816837Y-85753650D01*
X202826679Y-85848500D01*
X202827474Y-85856166D01*
X202829655Y-85862702D01*
X202829655Y-85862704D01*
X202855428Y-85939953D01*
X202883450Y-86023946D01*
X202963244Y-86152891D01*
X202982082Y-86221343D01*
X202959966Y-86287482D01*
X202960960Y-86288056D01*
X202958733Y-86291914D01*
X202957659Y-86293774D01*
X202957658Y-86293775D01*
X202869023Y-86447296D01*
X202865473Y-86453444D01*
X202806458Y-86635072D01*
X202805768Y-86641633D01*
X202805768Y-86641635D01*
X202789085Y-86800365D01*
X202786496Y-86825000D01*
X202787186Y-86831565D01*
X202804844Y-86999567D01*
X202806458Y-87014928D01*
X202808498Y-87021206D01*
X202836319Y-87106831D01*
X202838346Y-87177799D01*
X202801684Y-87238596D01*
X202742683Y-87269013D01*
X202574178Y-87304831D01*
X202574173Y-87304833D01*
X202567712Y-87306206D01*
X202561682Y-87308891D01*
X202561681Y-87308891D01*
X202399278Y-87381197D01*
X202399276Y-87381198D01*
X202393248Y-87383882D01*
X202387907Y-87387762D01*
X202387906Y-87387763D01*
X202371285Y-87399839D01*
X202238747Y-87496134D01*
X202234326Y-87501044D01*
X202234325Y-87501045D01*
X202134208Y-87612237D01*
X202110960Y-87638056D01*
X202107659Y-87643774D01*
X202038545Y-87763483D01*
X202015473Y-87803444D01*
X201956458Y-87985072D01*
X201936496Y-88175000D01*
X201937186Y-88181565D01*
X201951866Y-88321233D01*
X201956458Y-88364928D01*
X202015473Y-88546556D01*
X202110960Y-88711944D01*
X202115378Y-88716851D01*
X202115379Y-88716852D01*
X202117324Y-88719012D01*
X202182593Y-88791500D01*
X202195029Y-88805312D01*
X202225746Y-88869319D01*
X202216982Y-88939773D01*
X202208654Y-88955735D01*
X202195385Y-88977262D01*
X202193079Y-88984213D01*
X202193079Y-88984214D01*
X202143813Y-89132749D01*
X202139703Y-89145139D01*
X202139003Y-89151975D01*
X202139002Y-89151978D01*
X202136008Y-89181206D01*
X202129000Y-89249600D01*
X202129000Y-90300400D01*
X202129337Y-90303646D01*
X202129337Y-90303650D01*
X202137913Y-90386300D01*
X202139974Y-90406166D01*
X202142155Y-90412702D01*
X202142155Y-90412704D01*
X202168316Y-90491118D01*
X202195950Y-90573946D01*
X202289022Y-90724348D01*
X202414197Y-90849305D01*
X202531617Y-90921684D01*
X202579109Y-90974455D01*
X202591500Y-91028943D01*
X202591500Y-91151870D01*
X202571498Y-91219991D01*
X202517842Y-91266484D01*
X202481945Y-91276792D01*
X202459870Y-91279698D01*
X202449338Y-91281084D01*
X202449337Y-91281084D01*
X202441150Y-91282162D01*
X202390401Y-91303183D01*
X202300752Y-91340316D01*
X202300750Y-91340317D01*
X202293124Y-91343476D01*
X202286574Y-91348502D01*
X202218100Y-91401045D01*
X202166013Y-91441013D01*
X202160987Y-91447563D01*
X202160984Y-91447566D01*
X202117244Y-91504569D01*
X202068476Y-91568125D01*
X202007162Y-91716150D01*
X202006084Y-91724337D01*
X202006084Y-91724338D01*
X202000516Y-91766635D01*
X201991500Y-91835115D01*
X201991501Y-92114884D01*
X201992039Y-92118969D01*
X201992039Y-92118973D01*
X202005355Y-92220125D01*
X202007162Y-92233850D01*
X202010322Y-92241478D01*
X202014589Y-92251780D01*
X202022179Y-92322370D01*
X202014589Y-92348220D01*
X202012140Y-92354133D01*
X202007162Y-92366150D01*
X202006084Y-92374338D01*
X201994091Y-92465438D01*
X201991500Y-92485115D01*
X201991501Y-92764884D01*
X201992039Y-92768969D01*
X201992039Y-92768973D01*
X202003644Y-92857128D01*
X202007162Y-92883850D01*
X202010322Y-92891478D01*
X202014589Y-92901780D01*
X202022179Y-92972370D01*
X202014590Y-92998218D01*
X202007162Y-93016150D01*
X202006084Y-93024339D01*
X201997736Y-93087747D01*
X201969013Y-93152675D01*
X201909748Y-93191766D01*
X201838757Y-93192611D01*
X201778578Y-93154941D01*
X201753290Y-93111177D01*
X201724319Y-93024339D01*
X201716550Y-93001054D01*
X201623478Y-92850652D01*
X201611122Y-92838317D01*
X201543821Y-92771134D01*
X201498303Y-92725695D01*
X201492072Y-92721854D01*
X201368384Y-92645611D01*
X201320890Y-92592838D01*
X201308500Y-92538351D01*
X201308500Y-92336999D01*
X201325381Y-92273999D01*
X201332214Y-92262165D01*
X201384527Y-92171556D01*
X201443542Y-91989928D01*
X201457356Y-91858500D01*
X201462814Y-91806565D01*
X201463504Y-91800000D01*
X201452754Y-91697721D01*
X201444232Y-91616635D01*
X201444232Y-91616633D01*
X201443542Y-91610072D01*
X201384527Y-91428444D01*
X201289040Y-91263056D01*
X201215863Y-91181785D01*
X201185147Y-91117779D01*
X201183500Y-91097476D01*
X201183500Y-91017160D01*
X201201047Y-90953021D01*
X201235108Y-90895427D01*
X201239145Y-90888601D01*
X201246890Y-90861944D01*
X201257926Y-90823955D01*
X201285562Y-90728831D01*
X201286299Y-90719475D01*
X201288307Y-90693958D01*
X201288307Y-90693950D01*
X201288500Y-90691502D01*
X201288500Y-88908498D01*
X201288307Y-88906042D01*
X201286067Y-88877579D01*
X201286066Y-88877574D01*
X201285562Y-88871169D01*
X201239145Y-88711399D01*
X201203559Y-88651226D01*
X201158491Y-88575020D01*
X201158489Y-88575017D01*
X201154453Y-88568193D01*
X201036807Y-88450547D01*
X201029983Y-88446511D01*
X201029980Y-88446509D01*
X200900427Y-88369892D01*
X200900428Y-88369892D01*
X200893601Y-88365855D01*
X200885990Y-88363644D01*
X200885988Y-88363643D01*
X200800717Y-88338870D01*
X200733831Y-88319438D01*
X200727426Y-88318934D01*
X200727421Y-88318933D01*
X200698958Y-88316693D01*
X200698950Y-88316693D01*
X200696502Y-88316500D01*
X200263498Y-88316500D01*
X200261050Y-88316693D01*
X200261042Y-88316693D01*
X200232579Y-88318933D01*
X200232574Y-88318934D01*
X200226169Y-88319438D01*
X200159283Y-88338870D01*
X200074012Y-88363643D01*
X200074010Y-88363644D01*
X200066399Y-88365855D01*
X199923193Y-88450547D01*
X199920511Y-88453229D01*
X199856139Y-88478502D01*
X199786516Y-88464600D01*
X199770688Y-88454428D01*
X199766807Y-88450547D01*
X199623601Y-88365855D01*
X199615990Y-88363644D01*
X199615988Y-88363643D01*
X199530717Y-88338870D01*
X199463831Y-88319438D01*
X199457426Y-88318934D01*
X199457421Y-88318933D01*
X199428958Y-88316693D01*
X199428950Y-88316693D01*
X199426502Y-88316500D01*
X198993498Y-88316500D01*
X198991050Y-88316693D01*
X198991042Y-88316693D01*
X198962579Y-88318933D01*
X198962574Y-88318934D01*
X198956169Y-88319438D01*
X198889283Y-88338870D01*
X198804012Y-88363643D01*
X198804010Y-88363644D01*
X198796399Y-88365855D01*
X198653193Y-88450547D01*
X198650511Y-88453229D01*
X198586139Y-88478502D01*
X198516516Y-88464600D01*
X198500688Y-88454428D01*
X198496807Y-88450547D01*
X198353601Y-88365855D01*
X198345990Y-88363644D01*
X198345988Y-88363643D01*
X198260717Y-88338870D01*
X198193831Y-88319438D01*
X198187426Y-88318934D01*
X198187421Y-88318933D01*
X198158958Y-88316693D01*
X198158950Y-88316693D01*
X198156502Y-88316500D01*
X197723498Y-88316500D01*
X197721050Y-88316693D01*
X197721042Y-88316693D01*
X197692579Y-88318933D01*
X197692574Y-88318934D01*
X197686169Y-88319438D01*
X197619283Y-88338870D01*
X197534012Y-88363643D01*
X197534010Y-88363644D01*
X197526399Y-88365855D01*
X197383193Y-88450547D01*
X197380511Y-88453229D01*
X197316139Y-88478502D01*
X197246516Y-88464600D01*
X197230688Y-88454428D01*
X197226807Y-88450547D01*
X197083601Y-88365855D01*
X197075990Y-88363644D01*
X197075988Y-88363643D01*
X196990717Y-88338870D01*
X196923831Y-88319438D01*
X196917426Y-88318934D01*
X196917421Y-88318933D01*
X196888958Y-88316693D01*
X196888950Y-88316693D01*
X196886502Y-88316500D01*
X196453498Y-88316500D01*
X196451050Y-88316693D01*
X196451042Y-88316693D01*
X196422579Y-88318933D01*
X196422574Y-88318934D01*
X196416169Y-88319438D01*
X196349283Y-88338870D01*
X196264012Y-88363643D01*
X196264010Y-88363644D01*
X196256399Y-88365855D01*
X196249572Y-88369892D01*
X196249573Y-88369892D01*
X196120020Y-88446509D01*
X196120017Y-88446511D01*
X196113193Y-88450547D01*
X195995547Y-88568193D01*
X195991511Y-88575017D01*
X195991509Y-88575020D01*
X195946441Y-88651226D01*
X195910855Y-88711399D01*
X195864438Y-88871169D01*
X195863934Y-88877574D01*
X195863933Y-88877579D01*
X195861693Y-88906042D01*
X195861500Y-88908498D01*
X195861500Y-90691502D01*
X195861693Y-90693950D01*
X195861693Y-90693958D01*
X195863702Y-90719475D01*
X195864438Y-90728831D01*
X195892074Y-90823955D01*
X195903111Y-90861944D01*
X195910855Y-90888601D01*
X195914892Y-90895427D01*
X195991509Y-91024980D01*
X195991511Y-91024983D01*
X195995547Y-91031807D01*
X196001155Y-91037415D01*
X196006011Y-91043675D01*
X196004504Y-91044844D01*
X196033621Y-91098167D01*
X196036500Y-91124950D01*
X196036500Y-91946200D01*
X196016498Y-92014321D01*
X195962842Y-92060814D01*
X195892568Y-92070918D01*
X195870838Y-92065794D01*
X195829861Y-92052203D01*
X195823025Y-92051503D01*
X195823022Y-92051502D01*
X195779969Y-92047091D01*
X195725400Y-92041500D01*
X194924600Y-92041500D01*
X194921354Y-92041837D01*
X194921350Y-92041837D01*
X194825692Y-92051762D01*
X194825688Y-92051763D01*
X194818834Y-92052474D01*
X194812298Y-92054655D01*
X194812296Y-92054655D01*
X194731638Y-92081565D01*
X194651054Y-92108450D01*
X194500652Y-92201522D01*
X194431090Y-92271206D01*
X194414216Y-92288109D01*
X194351934Y-92322188D01*
X194281114Y-92317185D01*
X194236025Y-92288264D01*
X194153483Y-92205866D01*
X194148303Y-92200695D01*
X194121967Y-92184461D01*
X194003968Y-92111725D01*
X194003966Y-92111724D01*
X193997738Y-92107885D01*
X193898592Y-92075000D01*
X193836389Y-92054368D01*
X193836387Y-92054368D01*
X193829861Y-92052203D01*
X193823025Y-92051503D01*
X193823022Y-92051502D01*
X193779969Y-92047091D01*
X193725400Y-92041500D01*
X192924600Y-92041500D01*
X192921354Y-92041837D01*
X192921350Y-92041837D01*
X192825692Y-92051762D01*
X192825688Y-92051763D01*
X192818834Y-92052474D01*
X192812298Y-92054655D01*
X192812296Y-92054655D01*
X192731638Y-92081565D01*
X192651054Y-92108450D01*
X192500652Y-92201522D01*
X192495479Y-92206704D01*
X192408391Y-92293944D01*
X192346109Y-92328023D01*
X192293021Y-92328173D01*
X192126944Y-92292872D01*
X192126939Y-92292872D01*
X192120487Y-92291500D01*
X191929513Y-92291500D01*
X191923061Y-92292872D01*
X191923056Y-92292872D01*
X191836113Y-92311353D01*
X191742712Y-92331206D01*
X191736682Y-92333891D01*
X191736681Y-92333891D01*
X191574278Y-92406197D01*
X191574276Y-92406198D01*
X191568248Y-92408882D01*
X191562907Y-92412762D01*
X191562906Y-92412763D01*
X191554593Y-92418803D01*
X191413747Y-92521134D01*
X191409326Y-92526044D01*
X191409325Y-92526045D01*
X191294200Y-92653905D01*
X191285960Y-92663056D01*
X191237785Y-92746498D01*
X191197595Y-92816109D01*
X191190473Y-92828444D01*
X191131458Y-93010072D01*
X191130768Y-93016633D01*
X191130768Y-93016635D01*
X191116232Y-93154941D01*
X191111496Y-93200000D01*
X175648814Y-93200000D01*
X175642747Y-87970444D01*
X175636979Y-82998134D01*
X178791500Y-82998134D01*
X178798255Y-83060316D01*
X178849385Y-83196705D01*
X178936739Y-83313261D01*
X179053295Y-83400615D01*
X179189684Y-83451745D01*
X179251866Y-83458500D01*
X181048134Y-83458500D01*
X181110316Y-83451745D01*
X181246705Y-83400615D01*
X181363261Y-83313261D01*
X181450615Y-83196705D01*
X181455346Y-83184086D01*
X181494598Y-83079382D01*
X181537240Y-83022618D01*
X181603802Y-82997918D01*
X181673150Y-83013126D01*
X181707817Y-83041114D01*
X181736250Y-83073938D01*
X181908126Y-83216632D01*
X182101000Y-83329338D01*
X182309692Y-83409030D01*
X182314760Y-83410061D01*
X182314763Y-83410062D01*
X182422017Y-83431883D01*
X182528597Y-83453567D01*
X182533772Y-83453757D01*
X182533774Y-83453757D01*
X182746673Y-83461564D01*
X182746677Y-83461564D01*
X182751837Y-83461753D01*
X182756957Y-83461097D01*
X182756959Y-83461097D01*
X182968288Y-83434025D01*
X182968289Y-83434025D01*
X182973416Y-83433368D01*
X182978366Y-83431883D01*
X183182429Y-83370661D01*
X183182434Y-83370659D01*
X183187384Y-83369174D01*
X183387994Y-83270896D01*
X183569860Y-83141173D01*
X183651560Y-83059758D01*
X183713932Y-83025842D01*
X183784739Y-83031030D01*
X183841500Y-83073676D01*
X183866194Y-83140240D01*
X183866500Y-83149009D01*
X183866500Y-85562550D01*
X183846498Y-85630671D01*
X183835941Y-85643771D01*
X183836011Y-85643825D01*
X183831155Y-85650085D01*
X183825547Y-85655693D01*
X183821511Y-85662517D01*
X183821509Y-85662520D01*
X183774462Y-85742073D01*
X183740855Y-85798899D01*
X183738644Y-85806510D01*
X183738643Y-85806512D01*
X183737264Y-85811258D01*
X183694438Y-85958669D01*
X183691500Y-85995998D01*
X183691500Y-87153000D01*
X183671498Y-87221121D01*
X183617842Y-87267614D01*
X183565500Y-87279000D01*
X183333498Y-87279000D01*
X183331050Y-87279193D01*
X183331042Y-87279193D01*
X183302579Y-87281433D01*
X183302574Y-87281434D01*
X183296169Y-87281938D01*
X183217370Y-87304831D01*
X183144012Y-87326143D01*
X183144010Y-87326144D01*
X183136399Y-87328355D01*
X183129572Y-87332392D01*
X183129573Y-87332392D01*
X183000020Y-87409009D01*
X183000017Y-87409011D01*
X182993193Y-87413047D01*
X182875547Y-87530693D01*
X182871511Y-87537517D01*
X182871509Y-87537520D01*
X182829268Y-87608946D01*
X182790855Y-87673899D01*
X182788644Y-87681510D01*
X182788643Y-87681512D01*
X182774270Y-87730987D01*
X182744438Y-87833669D01*
X182743934Y-87840074D01*
X182743933Y-87840079D01*
X182741942Y-87865377D01*
X182741500Y-87870998D01*
X182741500Y-89179002D01*
X182741693Y-89181450D01*
X182741693Y-89181458D01*
X182743794Y-89208148D01*
X182744438Y-89216331D01*
X182747784Y-89227848D01*
X182747583Y-89298842D01*
X182709031Y-89358460D01*
X182644368Y-89387771D01*
X182574122Y-89377468D01*
X182552727Y-89364939D01*
X182412094Y-89262763D01*
X182412093Y-89262762D01*
X182406752Y-89258882D01*
X182400724Y-89256198D01*
X182400722Y-89256197D01*
X182238319Y-89183891D01*
X182238318Y-89183891D01*
X182232288Y-89181206D01*
X182131741Y-89159834D01*
X182051944Y-89142872D01*
X182051939Y-89142872D01*
X182045487Y-89141500D01*
X181854513Y-89141500D01*
X181848061Y-89142872D01*
X181848056Y-89142872D01*
X181768259Y-89159834D01*
X181667712Y-89181206D01*
X181661682Y-89183891D01*
X181661681Y-89183891D01*
X181499278Y-89256197D01*
X181499276Y-89256198D01*
X181493248Y-89258882D01*
X181338747Y-89371134D01*
X181334326Y-89376044D01*
X181334325Y-89376045D01*
X181219300Y-89503794D01*
X181210960Y-89513056D01*
X181166588Y-89589911D01*
X181137097Y-89640991D01*
X181115473Y-89678444D01*
X181056458Y-89860072D01*
X181055768Y-89866633D01*
X181055768Y-89866635D01*
X181045984Y-89959729D01*
X181036496Y-90050000D01*
X181037186Y-90056565D01*
X181055021Y-90226252D01*
X181056458Y-90239928D01*
X181115473Y-90421556D01*
X181118776Y-90427278D01*
X181118777Y-90427279D01*
X181139215Y-90462679D01*
X181210960Y-90586944D01*
X181215378Y-90591851D01*
X181215379Y-90591852D01*
X181313278Y-90700580D01*
X181338747Y-90728866D01*
X181423263Y-90790271D01*
X181476385Y-90828866D01*
X181493248Y-90841118D01*
X181499276Y-90843802D01*
X181499278Y-90843803D01*
X181661681Y-90916109D01*
X181667712Y-90918794D01*
X181742939Y-90934784D01*
X181848056Y-90957128D01*
X181848061Y-90957128D01*
X181854513Y-90958500D01*
X182045487Y-90958500D01*
X182051939Y-90957128D01*
X182051944Y-90957128D01*
X182157061Y-90934784D01*
X182232288Y-90918794D01*
X182238319Y-90916109D01*
X182400722Y-90843803D01*
X182400724Y-90843802D01*
X182406752Y-90841118D01*
X182423616Y-90828866D01*
X182476737Y-90790271D01*
X182561253Y-90728866D01*
X182586722Y-90700580D01*
X182684621Y-90591852D01*
X182684622Y-90591851D01*
X182689040Y-90586944D01*
X182760785Y-90462679D01*
X182781223Y-90427279D01*
X182781224Y-90427278D01*
X182784527Y-90421556D01*
X182843542Y-90239928D01*
X182844980Y-90226252D01*
X182862814Y-90056565D01*
X182863504Y-90050000D01*
X182854016Y-89959729D01*
X182844232Y-89866635D01*
X182844232Y-89866633D01*
X182843542Y-89860072D01*
X182821246Y-89791452D01*
X182819218Y-89720488D01*
X182855880Y-89659689D01*
X182919592Y-89628364D01*
X182990126Y-89636456D01*
X183005211Y-89644061D01*
X183136399Y-89721645D01*
X183144010Y-89723856D01*
X183144012Y-89723857D01*
X183193200Y-89738147D01*
X183296169Y-89768062D01*
X183302574Y-89768566D01*
X183302579Y-89768567D01*
X183331042Y-89770807D01*
X183331050Y-89770807D01*
X183333498Y-89771000D01*
X183766502Y-89771000D01*
X183768950Y-89770807D01*
X183768958Y-89770807D01*
X183797421Y-89768567D01*
X183797426Y-89768566D01*
X183803831Y-89768062D01*
X183906800Y-89738147D01*
X183955988Y-89723857D01*
X183955990Y-89723856D01*
X183963601Y-89721645D01*
X184000201Y-89700000D01*
X184099980Y-89640991D01*
X184099983Y-89640989D01*
X184106807Y-89636953D01*
X184224453Y-89519307D01*
X184228489Y-89512483D01*
X184228491Y-89512480D01*
X184305108Y-89382927D01*
X184309145Y-89376101D01*
X184311357Y-89368488D01*
X184311358Y-89368486D01*
X184345970Y-89249348D01*
X184384183Y-89189512D01*
X184448679Y-89159834D01*
X184466967Y-89158500D01*
X184533033Y-89158500D01*
X184601154Y-89178502D01*
X184647647Y-89232158D01*
X184654030Y-89249348D01*
X184688642Y-89368486D01*
X184688643Y-89368488D01*
X184690855Y-89376101D01*
X184694892Y-89382927D01*
X184773953Y-89516612D01*
X184791500Y-89580751D01*
X184791500Y-89622476D01*
X184771498Y-89690597D01*
X184759142Y-89706779D01*
X184685960Y-89788056D01*
X184590473Y-89953444D01*
X184531458Y-90135072D01*
X184530768Y-90141633D01*
X184530768Y-90141635D01*
X184521352Y-90231226D01*
X184511496Y-90325000D01*
X184512186Y-90331565D01*
X184528972Y-90491272D01*
X184531458Y-90514928D01*
X184590473Y-90696556D01*
X184593776Y-90702278D01*
X184593777Y-90702279D01*
X184602316Y-90717069D01*
X184685960Y-90861944D01*
X184690378Y-90866851D01*
X184690379Y-90866852D01*
X184809325Y-90998955D01*
X184813747Y-91003866D01*
X184865546Y-91041500D01*
X184951385Y-91103866D01*
X184968248Y-91116118D01*
X184974276Y-91118802D01*
X184974278Y-91118803D01*
X185124112Y-91185513D01*
X185142712Y-91193794D01*
X185201106Y-91206206D01*
X185323056Y-91232128D01*
X185323061Y-91232128D01*
X185329513Y-91233500D01*
X185520487Y-91233500D01*
X185526939Y-91232128D01*
X185526944Y-91232128D01*
X185648894Y-91206206D01*
X185707288Y-91193794D01*
X185725888Y-91185513D01*
X185875722Y-91118803D01*
X185875724Y-91118802D01*
X185881752Y-91116118D01*
X185898616Y-91103866D01*
X185984454Y-91041500D01*
X186036253Y-91003866D01*
X186040675Y-90998955D01*
X186159621Y-90866852D01*
X186159622Y-90866851D01*
X186164040Y-90861944D01*
X186247684Y-90717069D01*
X186256223Y-90702279D01*
X186256224Y-90702278D01*
X186259527Y-90696556D01*
X186307186Y-90549878D01*
X186347260Y-90491272D01*
X186412656Y-90463635D01*
X186482613Y-90475742D01*
X186534919Y-90523748D01*
X186552329Y-90575643D01*
X186556458Y-90614928D01*
X186615473Y-90796556D01*
X186618776Y-90802278D01*
X186618777Y-90802279D01*
X186682874Y-90913298D01*
X186710960Y-90961944D01*
X186715378Y-90966851D01*
X186715379Y-90966852D01*
X186834325Y-91098955D01*
X186838747Y-91103866D01*
X186921576Y-91164045D01*
X186976056Y-91203627D01*
X186993248Y-91216118D01*
X186999276Y-91218802D01*
X186999278Y-91218803D01*
X187140256Y-91281570D01*
X187167712Y-91293794D01*
X187261112Y-91313647D01*
X187348056Y-91332128D01*
X187348061Y-91332128D01*
X187354513Y-91333500D01*
X187545487Y-91333500D01*
X187551939Y-91332128D01*
X187551944Y-91332128D01*
X187638888Y-91313647D01*
X187732288Y-91293794D01*
X187759744Y-91281570D01*
X187900722Y-91218803D01*
X187900724Y-91218802D01*
X187906752Y-91216118D01*
X187923945Y-91203627D01*
X187978424Y-91164045D01*
X188061253Y-91103866D01*
X188065675Y-91098955D01*
X188184621Y-90966852D01*
X188184622Y-90966851D01*
X188189040Y-90961944D01*
X188217126Y-90913298D01*
X188281223Y-90802279D01*
X188281224Y-90802278D01*
X188284527Y-90796556D01*
X188343542Y-90614928D01*
X188345968Y-90591852D01*
X188362814Y-90431565D01*
X188363504Y-90425000D01*
X188361553Y-90406433D01*
X188344232Y-90241635D01*
X188344232Y-90241633D01*
X188343542Y-90235072D01*
X188284527Y-90053444D01*
X188189040Y-89888056D01*
X188115863Y-89806785D01*
X188085147Y-89742779D01*
X188083500Y-89722476D01*
X188083500Y-89488478D01*
X188101047Y-89424339D01*
X188155108Y-89332927D01*
X188159145Y-89326101D01*
X188161357Y-89318488D01*
X188161358Y-89318486D01*
X188195970Y-89199348D01*
X188234183Y-89139512D01*
X188298679Y-89109834D01*
X188316967Y-89108500D01*
X188383033Y-89108500D01*
X188451154Y-89128502D01*
X188497647Y-89182158D01*
X188504030Y-89199348D01*
X188538642Y-89318486D01*
X188538643Y-89318488D01*
X188540855Y-89326101D01*
X188544892Y-89332927D01*
X188621509Y-89462480D01*
X188621511Y-89462483D01*
X188625547Y-89469307D01*
X188743193Y-89586953D01*
X188750017Y-89590989D01*
X188750020Y-89590991D01*
X188796999Y-89618774D01*
X188886399Y-89671645D01*
X188894010Y-89673856D01*
X188894012Y-89673857D01*
X188931435Y-89684729D01*
X189046169Y-89718062D01*
X189052574Y-89718566D01*
X189052579Y-89718567D01*
X189081042Y-89720807D01*
X189081050Y-89720807D01*
X189083498Y-89721000D01*
X189516502Y-89721000D01*
X189518417Y-89720849D01*
X189587197Y-89738147D01*
X189635757Y-89789939D01*
X189648593Y-89859904D01*
X189636496Y-89975000D01*
X189637186Y-89981565D01*
X189643779Y-90044297D01*
X189631007Y-90114135D01*
X189592530Y-90159403D01*
X189536486Y-90200122D01*
X189438747Y-90271134D01*
X189434326Y-90276044D01*
X189434325Y-90276045D01*
X189325709Y-90396676D01*
X189310960Y-90413056D01*
X189265891Y-90491118D01*
X189222595Y-90566109D01*
X189215473Y-90578444D01*
X189156458Y-90760072D01*
X189155768Y-90766633D01*
X189155768Y-90766635D01*
X189148819Y-90832749D01*
X189136496Y-90950000D01*
X189137186Y-90956565D01*
X189153548Y-91112237D01*
X189156458Y-91139928D01*
X189215473Y-91321556D01*
X189218776Y-91327278D01*
X189218777Y-91327279D01*
X189231030Y-91348502D01*
X189310960Y-91486944D01*
X189315378Y-91491851D01*
X189315379Y-91491852D01*
X189388194Y-91572721D01*
X189438747Y-91628866D01*
X189593248Y-91741118D01*
X189599276Y-91743802D01*
X189599278Y-91743803D01*
X189740245Y-91806565D01*
X189767712Y-91818794D01*
X189844496Y-91835115D01*
X189948056Y-91857128D01*
X189948061Y-91857128D01*
X189954513Y-91858500D01*
X190145487Y-91858500D01*
X190151939Y-91857128D01*
X190151944Y-91857128D01*
X190255504Y-91835115D01*
X190332288Y-91818794D01*
X190359755Y-91806565D01*
X190500722Y-91743803D01*
X190500724Y-91743802D01*
X190506752Y-91741118D01*
X190661253Y-91628866D01*
X190711806Y-91572721D01*
X190784621Y-91491852D01*
X190784622Y-91491851D01*
X190789040Y-91486944D01*
X190868970Y-91348502D01*
X190881223Y-91327279D01*
X190881224Y-91327278D01*
X190884527Y-91321556D01*
X190943542Y-91139928D01*
X190946453Y-91112237D01*
X190962814Y-90956565D01*
X190963504Y-90950000D01*
X190956221Y-90880703D01*
X190968993Y-90810865D01*
X191007470Y-90765597D01*
X191127233Y-90678583D01*
X191161253Y-90653866D01*
X191183228Y-90629460D01*
X191284621Y-90516852D01*
X191284622Y-90516851D01*
X191289040Y-90511944D01*
X191384527Y-90346556D01*
X191443542Y-90164928D01*
X191448881Y-90114135D01*
X191462814Y-89981565D01*
X191463504Y-89975000D01*
X191450765Y-89853794D01*
X191444232Y-89791635D01*
X191444232Y-89791633D01*
X191443542Y-89785072D01*
X191384527Y-89603444D01*
X191374264Y-89585667D01*
X191339189Y-89524916D01*
X191289040Y-89438056D01*
X191234487Y-89377468D01*
X191165675Y-89301045D01*
X191165674Y-89301044D01*
X191161253Y-89296134D01*
X191043296Y-89210433D01*
X191012094Y-89187763D01*
X191012093Y-89187762D01*
X191006752Y-89183882D01*
X191000724Y-89181198D01*
X191000722Y-89181197D01*
X190838319Y-89108891D01*
X190838318Y-89108891D01*
X190832288Y-89106206D01*
X190738887Y-89086353D01*
X190651944Y-89067872D01*
X190651939Y-89067872D01*
X190645487Y-89066500D01*
X190454513Y-89066500D01*
X190448061Y-89067872D01*
X190448056Y-89067872D01*
X190293373Y-89100752D01*
X190267712Y-89106206D01*
X190267507Y-89105242D01*
X190202464Y-89107097D01*
X190141667Y-89070432D01*
X190110345Y-89006719D01*
X190108500Y-88985238D01*
X190108500Y-87820998D01*
X190107613Y-87809729D01*
X190106067Y-87790079D01*
X190106066Y-87790074D01*
X190105562Y-87783669D01*
X190059145Y-87623899D01*
X190017742Y-87553891D01*
X189978491Y-87487520D01*
X189978489Y-87487517D01*
X189974453Y-87480693D01*
X189856807Y-87363047D01*
X189849983Y-87359011D01*
X189849980Y-87359009D01*
X189720427Y-87282392D01*
X189720428Y-87282392D01*
X189713601Y-87278355D01*
X189705990Y-87276144D01*
X189705988Y-87276143D01*
X189646973Y-87258998D01*
X189553831Y-87231938D01*
X189547426Y-87231434D01*
X189547421Y-87231433D01*
X189518958Y-87229193D01*
X189518950Y-87229193D01*
X189516502Y-87229000D01*
X189284500Y-87229000D01*
X189216379Y-87208998D01*
X189169886Y-87155342D01*
X189158500Y-87103000D01*
X189158500Y-85945998D01*
X189158307Y-85943542D01*
X189156067Y-85915079D01*
X189156066Y-85915074D01*
X189155562Y-85908669D01*
X189109145Y-85748899D01*
X189083908Y-85706226D01*
X189028491Y-85612520D01*
X189028489Y-85612517D01*
X189024453Y-85605693D01*
X189018845Y-85600085D01*
X189013989Y-85593825D01*
X189015496Y-85592656D01*
X188986379Y-85539333D01*
X188983500Y-85512550D01*
X188983500Y-84390000D01*
X190086496Y-84390000D01*
X190087186Y-84396565D01*
X190104775Y-84563911D01*
X190106458Y-84579928D01*
X190165473Y-84761556D01*
X190260960Y-84926944D01*
X190265378Y-84931851D01*
X190265379Y-84931852D01*
X190384325Y-85063955D01*
X190388747Y-85068866D01*
X190472791Y-85129928D01*
X190534796Y-85174977D01*
X190543248Y-85181118D01*
X190549276Y-85183802D01*
X190549278Y-85183803D01*
X190617062Y-85213982D01*
X190717712Y-85258794D01*
X190784320Y-85272952D01*
X190898056Y-85297128D01*
X190898061Y-85297128D01*
X190904513Y-85298500D01*
X191095487Y-85298500D01*
X191101939Y-85297128D01*
X191101944Y-85297128D01*
X191215680Y-85272952D01*
X191282288Y-85258794D01*
X191382938Y-85213982D01*
X191450722Y-85183803D01*
X191450724Y-85183802D01*
X191456752Y-85181118D01*
X191465205Y-85174977D01*
X191527209Y-85129928D01*
X191611253Y-85068866D01*
X191615675Y-85063955D01*
X191734621Y-84931852D01*
X191734622Y-84931851D01*
X191739040Y-84926944D01*
X191751382Y-84905567D01*
X191802764Y-84856575D01*
X191872478Y-84843140D01*
X191938389Y-84869527D01*
X191979570Y-84927359D01*
X191986500Y-84968569D01*
X191986500Y-85260400D01*
X191986837Y-85263646D01*
X191986837Y-85263650D01*
X191996665Y-85358365D01*
X191997474Y-85366166D01*
X191999655Y-85372702D01*
X191999655Y-85372704D01*
X192001217Y-85377385D01*
X192053450Y-85533946D01*
X192146522Y-85684348D01*
X192271697Y-85809305D01*
X192275916Y-85811906D01*
X192316417Y-85869030D01*
X192319649Y-85939953D01*
X192284024Y-86001365D01*
X192276470Y-86007922D01*
X192270652Y-86011522D01*
X192145695Y-86136697D01*
X192141855Y-86142927D01*
X192141854Y-86142928D01*
X192060609Y-86274732D01*
X192052885Y-86287262D01*
X191997203Y-86455139D01*
X191996503Y-86461975D01*
X191996502Y-86461978D01*
X191993871Y-86487663D01*
X191986500Y-86559600D01*
X191986500Y-87335400D01*
X191986837Y-87338646D01*
X191986837Y-87338650D01*
X191996679Y-87433500D01*
X191997474Y-87441166D01*
X191999655Y-87447702D01*
X191999655Y-87447704D01*
X192032685Y-87546705D01*
X192053450Y-87608946D01*
X192146522Y-87759348D01*
X192271697Y-87884305D01*
X192277929Y-87888147D01*
X192277931Y-87888148D01*
X192335297Y-87923510D01*
X192382790Y-87976283D01*
X192394490Y-88043939D01*
X192386496Y-88120000D01*
X192387186Y-88126565D01*
X192404320Y-88289582D01*
X192406458Y-88309928D01*
X192465473Y-88491556D01*
X192468776Y-88497278D01*
X192468777Y-88497279D01*
X192500644Y-88552474D01*
X192560960Y-88656944D01*
X192565378Y-88661851D01*
X192565379Y-88661852D01*
X192605334Y-88706226D01*
X192688747Y-88798866D01*
X192749316Y-88842872D01*
X192836840Y-88906462D01*
X192843248Y-88911118D01*
X192849276Y-88913802D01*
X192849278Y-88913803D01*
X193000714Y-88981226D01*
X193017712Y-88988794D01*
X193102042Y-89006719D01*
X193198056Y-89027128D01*
X193198061Y-89027128D01*
X193204513Y-89028500D01*
X193345408Y-89028500D01*
X193413529Y-89048502D01*
X193460022Y-89102158D01*
X193470126Y-89172432D01*
X193454527Y-89217499D01*
X193432185Y-89256197D01*
X193397595Y-89316109D01*
X193390473Y-89328444D01*
X193331458Y-89510072D01*
X193330768Y-89516633D01*
X193330768Y-89516635D01*
X193322746Y-89592960D01*
X193311496Y-89700000D01*
X193312186Y-89706565D01*
X193327661Y-89853798D01*
X193331458Y-89889928D01*
X193390473Y-90071556D01*
X193485960Y-90236944D01*
X193490378Y-90241851D01*
X193490379Y-90241852D01*
X193609325Y-90373955D01*
X193613747Y-90378866D01*
X193677245Y-90425000D01*
X193742930Y-90472723D01*
X193768248Y-90491118D01*
X193774276Y-90493802D01*
X193774278Y-90493803D01*
X193936681Y-90566109D01*
X193942712Y-90568794D01*
X194017680Y-90584729D01*
X194123056Y-90607128D01*
X194123061Y-90607128D01*
X194129513Y-90608500D01*
X194320487Y-90608500D01*
X194326939Y-90607128D01*
X194326944Y-90607128D01*
X194432320Y-90584729D01*
X194507288Y-90568794D01*
X194513319Y-90566109D01*
X194675722Y-90493803D01*
X194675724Y-90493802D01*
X194681752Y-90491118D01*
X194707071Y-90472723D01*
X194772755Y-90425000D01*
X194836253Y-90378866D01*
X194840675Y-90373955D01*
X194959621Y-90241852D01*
X194959622Y-90241851D01*
X194964040Y-90236944D01*
X195059527Y-90071556D01*
X195118542Y-89889928D01*
X195122340Y-89853798D01*
X195137814Y-89706565D01*
X195138504Y-89700000D01*
X195127254Y-89592960D01*
X195119232Y-89516635D01*
X195119232Y-89516633D01*
X195118542Y-89510072D01*
X195059527Y-89328444D01*
X195052406Y-89316109D01*
X195009109Y-89241118D01*
X194964040Y-89163056D01*
X194954066Y-89151978D01*
X194840675Y-89026045D01*
X194840674Y-89026044D01*
X194836253Y-89021134D01*
X194681752Y-88908882D01*
X194675724Y-88906198D01*
X194675722Y-88906197D01*
X194513319Y-88833891D01*
X194513318Y-88833891D01*
X194507288Y-88831206D01*
X194408280Y-88810161D01*
X194326944Y-88792872D01*
X194326939Y-88792872D01*
X194320487Y-88791500D01*
X194179592Y-88791500D01*
X194111471Y-88771498D01*
X194064978Y-88717842D01*
X194054874Y-88647568D01*
X194070473Y-88602500D01*
X194072126Y-88599638D01*
X194134527Y-88491556D01*
X194193542Y-88309928D01*
X194195681Y-88289582D01*
X194212814Y-88126565D01*
X194213504Y-88120000D01*
X194193542Y-87930072D01*
X194195464Y-87929870D01*
X194200153Y-87868329D01*
X194228830Y-87823892D01*
X194242969Y-87809729D01*
X194294305Y-87758303D01*
X194371452Y-87633148D01*
X194383275Y-87613968D01*
X194383276Y-87613966D01*
X194387115Y-87607738D01*
X194436275Y-87459524D01*
X194440632Y-87446389D01*
X194440632Y-87446387D01*
X194442797Y-87439861D01*
X194443590Y-87432128D01*
X194449945Y-87370095D01*
X194453500Y-87335400D01*
X194453500Y-86559600D01*
X194451790Y-86543117D01*
X194443238Y-86460692D01*
X194443237Y-86460688D01*
X194442526Y-86453834D01*
X194427400Y-86408494D01*
X194388868Y-86293002D01*
X194386550Y-86286054D01*
X194293478Y-86135652D01*
X194168303Y-86010695D01*
X194164084Y-86008094D01*
X194123583Y-85950970D01*
X194120351Y-85880047D01*
X194155976Y-85818635D01*
X194163530Y-85812078D01*
X194169348Y-85808478D01*
X194205342Y-85772421D01*
X194253157Y-85724523D01*
X194315440Y-85690444D01*
X194386260Y-85695447D01*
X194416387Y-85711602D01*
X194443248Y-85731118D01*
X194449276Y-85733802D01*
X194449278Y-85733803D01*
X194609797Y-85805270D01*
X194617712Y-85808794D01*
X194711112Y-85828647D01*
X194798056Y-85847128D01*
X194798061Y-85847128D01*
X194804513Y-85848500D01*
X194995487Y-85848500D01*
X195001939Y-85847128D01*
X195001944Y-85847128D01*
X195088888Y-85828647D01*
X195182288Y-85808794D01*
X195190203Y-85805270D01*
X195350722Y-85733803D01*
X195350724Y-85733802D01*
X195356752Y-85731118D01*
X195511253Y-85618866D01*
X195639040Y-85476944D01*
X195640320Y-85478097D01*
X195689785Y-85439953D01*
X195760521Y-85433876D01*
X195823313Y-85467007D01*
X195858225Y-85528827D01*
X195861500Y-85557367D01*
X195861500Y-85741502D01*
X195861693Y-85743950D01*
X195861693Y-85743958D01*
X195861707Y-85744129D01*
X195864438Y-85778831D01*
X195873365Y-85809557D01*
X195905001Y-85918450D01*
X195910855Y-85938601D01*
X195914892Y-85945427D01*
X195991509Y-86074980D01*
X195991511Y-86074983D01*
X195995547Y-86081807D01*
X196113193Y-86199453D01*
X196120016Y-86203488D01*
X196120020Y-86203491D01*
X196227589Y-86267107D01*
X196256399Y-86284145D01*
X196264010Y-86286356D01*
X196264012Y-86286357D01*
X196305734Y-86298478D01*
X196416169Y-86330562D01*
X196422574Y-86331066D01*
X196422579Y-86331067D01*
X196451042Y-86333307D01*
X196451050Y-86333307D01*
X196453498Y-86333500D01*
X196886502Y-86333500D01*
X196888950Y-86333307D01*
X196888958Y-86333307D01*
X196917421Y-86331067D01*
X196917426Y-86331066D01*
X196923831Y-86330562D01*
X197034266Y-86298478D01*
X197075988Y-86286357D01*
X197075990Y-86286356D01*
X197083601Y-86284145D01*
X197226807Y-86199453D01*
X197229747Y-86196513D01*
X197294271Y-86171179D01*
X197363894Y-86185080D01*
X197382640Y-86197129D01*
X197390323Y-86203089D01*
X197519779Y-86279648D01*
X197534210Y-86285893D01*
X197668605Y-86324939D01*
X197682706Y-86324899D01*
X197686000Y-86317630D01*
X197686000Y-83388122D01*
X197682027Y-83374591D01*
X197674129Y-83373456D01*
X197534210Y-83414107D01*
X197519779Y-83420352D01*
X197390324Y-83496910D01*
X197382636Y-83502874D01*
X197316551Y-83528821D01*
X197246928Y-83514920D01*
X197230842Y-83504582D01*
X197226807Y-83500547D01*
X197194601Y-83481500D01*
X197090427Y-83419892D01*
X197090428Y-83419892D01*
X197083601Y-83415855D01*
X197075990Y-83413644D01*
X197075988Y-83413643D01*
X196988142Y-83388122D01*
X196923831Y-83369438D01*
X196917426Y-83368934D01*
X196917421Y-83368933D01*
X196888958Y-83366693D01*
X196888950Y-83366693D01*
X196886502Y-83366500D01*
X196453498Y-83366500D01*
X196451050Y-83366693D01*
X196451042Y-83366693D01*
X196422579Y-83368933D01*
X196422574Y-83368934D01*
X196416169Y-83369438D01*
X196351858Y-83388122D01*
X196264012Y-83413643D01*
X196264010Y-83413644D01*
X196256399Y-83415855D01*
X196249572Y-83419892D01*
X196249573Y-83419892D01*
X196120020Y-83496509D01*
X196120017Y-83496511D01*
X196113193Y-83500547D01*
X195995547Y-83618193D01*
X195991511Y-83625017D01*
X195991509Y-83625020D01*
X195949472Y-83696101D01*
X195910855Y-83761399D01*
X195908644Y-83769010D01*
X195908643Y-83769012D01*
X195893472Y-83821231D01*
X195864438Y-83921169D01*
X195863934Y-83927574D01*
X195863933Y-83927579D01*
X195861693Y-83956042D01*
X195861500Y-83958498D01*
X195861500Y-84322633D01*
X195841498Y-84390754D01*
X195787842Y-84437247D01*
X195717568Y-84447351D01*
X195652988Y-84417857D01*
X195639239Y-84402877D01*
X195639040Y-84403056D01*
X195515675Y-84266045D01*
X195515674Y-84266044D01*
X195511253Y-84261134D01*
X195391803Y-84174348D01*
X195362094Y-84152763D01*
X195362093Y-84152762D01*
X195356752Y-84148882D01*
X195350724Y-84146198D01*
X195350722Y-84146197D01*
X195188319Y-84073891D01*
X195188318Y-84073891D01*
X195182288Y-84071206D01*
X195088887Y-84051353D01*
X195001944Y-84032872D01*
X195001939Y-84032872D01*
X194995487Y-84031500D01*
X194804513Y-84031500D01*
X194798061Y-84032872D01*
X194798056Y-84032872D01*
X194711113Y-84051353D01*
X194617712Y-84071206D01*
X194469135Y-84137356D01*
X194398770Y-84146790D01*
X194334473Y-84116684D01*
X194310744Y-84088553D01*
X194306796Y-84082173D01*
X194293478Y-84060652D01*
X194290316Y-84057496D01*
X194264117Y-83992773D01*
X194263500Y-83980316D01*
X194263500Y-83932450D01*
X194283502Y-83864329D01*
X194294059Y-83851229D01*
X194293989Y-83851175D01*
X194298845Y-83844915D01*
X194304453Y-83839307D01*
X194308489Y-83832483D01*
X194308491Y-83832480D01*
X194385108Y-83702927D01*
X194389145Y-83696101D01*
X194402143Y-83651363D01*
X194409796Y-83625020D01*
X194435562Y-83536331D01*
X194436154Y-83528821D01*
X194438307Y-83501458D01*
X194438307Y-83501450D01*
X194438500Y-83499002D01*
X194438500Y-82262905D01*
X194458502Y-82194784D01*
X194512158Y-82148291D01*
X194582432Y-82138187D01*
X194647012Y-82167681D01*
X194653518Y-82173732D01*
X194709016Y-82229134D01*
X194709021Y-82229138D01*
X194714197Y-82234305D01*
X194720427Y-82238145D01*
X194720428Y-82238146D01*
X194857590Y-82322694D01*
X194864762Y-82327115D01*
X194909639Y-82342000D01*
X195026111Y-82380632D01*
X195026113Y-82380632D01*
X195032639Y-82382797D01*
X195039475Y-82383497D01*
X195039478Y-82383498D01*
X195082531Y-82387909D01*
X195137100Y-82393500D01*
X195912900Y-82393500D01*
X195916146Y-82393163D01*
X195916150Y-82393163D01*
X196011808Y-82383238D01*
X196011812Y-82383237D01*
X196018666Y-82382526D01*
X196025202Y-82380345D01*
X196025204Y-82380345D01*
X196157306Y-82336272D01*
X196186446Y-82326550D01*
X196336848Y-82233478D01*
X196461805Y-82108303D01*
X196464406Y-82104084D01*
X196521530Y-82063583D01*
X196592453Y-82060351D01*
X196653865Y-82095976D01*
X196660422Y-82103530D01*
X196664022Y-82109348D01*
X196669204Y-82114521D01*
X196718008Y-82163240D01*
X196789197Y-82234305D01*
X196795427Y-82238145D01*
X196795428Y-82238146D01*
X196932590Y-82322694D01*
X196939762Y-82327115D01*
X196984639Y-82342000D01*
X197101111Y-82380632D01*
X197101113Y-82380632D01*
X197107639Y-82382797D01*
X197114475Y-82383497D01*
X197114478Y-82383498D01*
X197157531Y-82387909D01*
X197212100Y-82393500D01*
X197987900Y-82393500D01*
X197991146Y-82393163D01*
X197991150Y-82393163D01*
X198086808Y-82383238D01*
X198086812Y-82383237D01*
X198093666Y-82382526D01*
X198100202Y-82380345D01*
X198100204Y-82380345D01*
X198232306Y-82336272D01*
X198261446Y-82326550D01*
X198384197Y-82250589D01*
X198452649Y-82231751D01*
X198520418Y-82252912D01*
X198565990Y-82307353D01*
X198576500Y-82357733D01*
X198576500Y-83327357D01*
X198556498Y-83395478D01*
X198502842Y-83441971D01*
X198432568Y-83452075D01*
X198386361Y-83435811D01*
X198360221Y-83420352D01*
X198345790Y-83414107D01*
X198211395Y-83375061D01*
X198197294Y-83375101D01*
X198194000Y-83382370D01*
X198194000Y-86311878D01*
X198197973Y-86325409D01*
X198205871Y-86326544D01*
X198345790Y-86285893D01*
X198360221Y-86279648D01*
X198489676Y-86203090D01*
X198497364Y-86197126D01*
X198563449Y-86171179D01*
X198633072Y-86185080D01*
X198649158Y-86195418D01*
X198653193Y-86199453D01*
X198660021Y-86203491D01*
X198660024Y-86203493D01*
X198719730Y-86238803D01*
X198796399Y-86284145D01*
X198804010Y-86286356D01*
X198804012Y-86286357D01*
X198845734Y-86298478D01*
X198956169Y-86330562D01*
X198962574Y-86331066D01*
X198962579Y-86331067D01*
X198991042Y-86333307D01*
X198991050Y-86333307D01*
X198993498Y-86333500D01*
X199426502Y-86333500D01*
X199428950Y-86333307D01*
X199428958Y-86333307D01*
X199457421Y-86331067D01*
X199457426Y-86331066D01*
X199463831Y-86330562D01*
X199574266Y-86298478D01*
X199615988Y-86286357D01*
X199615990Y-86286356D01*
X199623601Y-86284145D01*
X199766807Y-86199453D01*
X199769489Y-86196771D01*
X199833861Y-86171498D01*
X199903484Y-86185400D01*
X199919312Y-86195572D01*
X199923193Y-86199453D01*
X200066399Y-86284145D01*
X200074010Y-86286356D01*
X200074012Y-86286357D01*
X200115734Y-86298478D01*
X200226169Y-86330562D01*
X200232574Y-86331066D01*
X200232579Y-86331067D01*
X200261042Y-86333307D01*
X200261050Y-86333307D01*
X200263498Y-86333500D01*
X200696502Y-86333500D01*
X200698950Y-86333307D01*
X200698958Y-86333307D01*
X200727421Y-86331067D01*
X200727426Y-86331066D01*
X200733831Y-86330562D01*
X200844266Y-86298478D01*
X200885988Y-86286357D01*
X200885990Y-86286356D01*
X200893601Y-86284145D01*
X200922411Y-86267107D01*
X201029980Y-86203491D01*
X201029984Y-86203488D01*
X201036807Y-86199453D01*
X201154453Y-86081807D01*
X201158489Y-86074983D01*
X201158491Y-86074980D01*
X201235108Y-85945427D01*
X201239145Y-85938601D01*
X201245000Y-85918450D01*
X201276635Y-85809557D01*
X201285562Y-85778831D01*
X201288294Y-85744129D01*
X201288307Y-85743958D01*
X201288307Y-85743950D01*
X201288500Y-85741502D01*
X201288500Y-83958498D01*
X201288307Y-83956042D01*
X201286067Y-83927579D01*
X201286066Y-83927574D01*
X201285562Y-83921169D01*
X201256528Y-83821231D01*
X201241357Y-83769012D01*
X201241356Y-83769010D01*
X201239145Y-83761399D01*
X201154453Y-83618193D01*
X201156613Y-83616915D01*
X201135186Y-83562342D01*
X201149087Y-83492719D01*
X201167056Y-83466891D01*
X201234621Y-83391852D01*
X201234622Y-83391851D01*
X201239040Y-83386944D01*
X201304726Y-83273173D01*
X201331223Y-83227279D01*
X201331224Y-83227278D01*
X201334527Y-83221556D01*
X201393542Y-83039928D01*
X201395023Y-83025842D01*
X201412814Y-82856565D01*
X201413504Y-82850000D01*
X201399275Y-82714616D01*
X201394232Y-82666635D01*
X201394232Y-82666633D01*
X201393542Y-82660072D01*
X201334527Y-82478444D01*
X201239040Y-82313056D01*
X201232310Y-82305581D01*
X201115675Y-82176045D01*
X201115674Y-82176044D01*
X201111253Y-82171134D01*
X201007807Y-82095976D01*
X200962094Y-82062763D01*
X200962093Y-82062762D01*
X200956752Y-82058882D01*
X200950724Y-82056198D01*
X200950722Y-82056197D01*
X200788319Y-81983891D01*
X200788318Y-81983891D01*
X200782288Y-81981206D01*
X200677564Y-81958946D01*
X200601944Y-81942872D01*
X200601939Y-81942872D01*
X200595487Y-81941500D01*
X200404513Y-81941500D01*
X200398061Y-81942872D01*
X200398056Y-81942872D01*
X200222313Y-81980228D01*
X200151522Y-81974826D01*
X200094890Y-81932009D01*
X200070396Y-81865372D01*
X200076283Y-81818044D01*
X200091503Y-81771203D01*
X200093542Y-81764928D01*
X200104497Y-81660702D01*
X200112814Y-81581565D01*
X200113504Y-81575000D01*
X200102810Y-81473255D01*
X200094232Y-81391635D01*
X200094232Y-81391633D01*
X200093542Y-81385072D01*
X200034527Y-81203444D01*
X200007015Y-81155791D01*
X199942341Y-81043774D01*
X199939040Y-81038056D01*
X199811253Y-80896134D01*
X199656752Y-80783882D01*
X199650724Y-80781198D01*
X199650722Y-80781197D01*
X199488319Y-80708891D01*
X199488318Y-80708891D01*
X199482288Y-80706206D01*
X199388888Y-80686353D01*
X199301944Y-80667872D01*
X199301939Y-80667872D01*
X199295487Y-80666500D01*
X199104513Y-80666500D01*
X199098061Y-80667872D01*
X199098056Y-80667872D01*
X199011112Y-80686353D01*
X198917712Y-80706206D01*
X198911685Y-80708889D01*
X198911677Y-80708892D01*
X198871543Y-80726761D01*
X198801176Y-80736195D01*
X198736879Y-80706088D01*
X198699066Y-80645999D01*
X198694968Y-80624657D01*
X198685738Y-80535693D01*
X198685737Y-80535690D01*
X198685026Y-80528834D01*
X198629050Y-80361054D01*
X198535978Y-80210652D01*
X198410803Y-80085695D01*
X198293383Y-80013316D01*
X198245891Y-79960545D01*
X198233500Y-79906057D01*
X198233500Y-79568339D01*
X198250381Y-79505339D01*
X198301223Y-79417279D01*
X198301224Y-79417278D01*
X198304527Y-79411556D01*
X198363542Y-79229928D01*
X198371073Y-79158280D01*
X198382814Y-79046565D01*
X198383504Y-79040000D01*
X198372107Y-78931565D01*
X198364232Y-78856635D01*
X198364232Y-78856633D01*
X198363542Y-78850072D01*
X198304527Y-78668444D01*
X198209040Y-78503056D01*
X198143828Y-78430630D01*
X198085675Y-78366045D01*
X198085674Y-78366044D01*
X198081253Y-78361134D01*
X197982157Y-78289136D01*
X197932094Y-78252763D01*
X197932093Y-78252762D01*
X197926752Y-78248882D01*
X197920724Y-78246198D01*
X197920722Y-78246197D01*
X197758319Y-78173891D01*
X197758318Y-78173891D01*
X197752288Y-78171206D01*
X197658888Y-78151353D01*
X197571944Y-78132872D01*
X197571939Y-78132872D01*
X197565487Y-78131500D01*
X197374513Y-78131500D01*
X197368061Y-78132872D01*
X197368056Y-78132872D01*
X197281113Y-78151353D01*
X197187712Y-78171206D01*
X197181682Y-78173891D01*
X197181681Y-78173891D01*
X197019278Y-78246197D01*
X197019276Y-78246198D01*
X197013248Y-78248882D01*
X197007907Y-78252762D01*
X197007906Y-78252763D01*
X196957843Y-78289136D01*
X196858747Y-78361134D01*
X196854326Y-78366044D01*
X196854325Y-78366045D01*
X196796173Y-78430630D01*
X196730960Y-78503056D01*
X196635473Y-78668444D01*
X196576458Y-78850072D01*
X196575768Y-78856633D01*
X196575768Y-78856635D01*
X196567893Y-78931565D01*
X196556496Y-79040000D01*
X196557186Y-79046565D01*
X196568928Y-79158280D01*
X196576458Y-79229928D01*
X196635473Y-79411556D01*
X196730960Y-79576944D01*
X196735378Y-79581851D01*
X196735379Y-79581852D01*
X196835460Y-79693003D01*
X196858747Y-79718866D01*
X196864089Y-79722747D01*
X196864091Y-79722749D01*
X196914561Y-79759417D01*
X196957915Y-79815639D01*
X196966500Y-79861353D01*
X196966500Y-79905954D01*
X196946498Y-79974075D01*
X196906803Y-80013098D01*
X196788152Y-80086522D01*
X196663195Y-80211697D01*
X196660594Y-80215916D01*
X196603470Y-80256417D01*
X196532547Y-80259649D01*
X196471135Y-80224024D01*
X196464578Y-80216470D01*
X196460978Y-80210652D01*
X196335803Y-80085695D01*
X196315090Y-80072927D01*
X196191468Y-79996725D01*
X196191466Y-79996724D01*
X196185238Y-79992885D01*
X196105495Y-79966436D01*
X196023889Y-79939368D01*
X196023887Y-79939368D01*
X196017361Y-79937203D01*
X196010525Y-79936503D01*
X196010522Y-79936502D01*
X195967469Y-79932091D01*
X195912900Y-79926500D01*
X195137100Y-79926500D01*
X195133854Y-79926837D01*
X195133850Y-79926837D01*
X195038192Y-79936762D01*
X195038188Y-79936763D01*
X195031334Y-79937474D01*
X195024798Y-79939655D01*
X195024796Y-79939655D01*
X194962182Y-79960545D01*
X194863554Y-79993450D01*
X194713152Y-80086522D01*
X194680897Y-80118833D01*
X194618617Y-80152912D01*
X194547797Y-80147909D01*
X194540476Y-80144922D01*
X194448319Y-80103891D01*
X194448318Y-80103891D01*
X194442288Y-80101206D01*
X194348888Y-80081353D01*
X194261944Y-80062872D01*
X194261939Y-80062872D01*
X194255487Y-80061500D01*
X194064513Y-80061500D01*
X194058061Y-80062872D01*
X194058056Y-80062872D01*
X193971112Y-80081353D01*
X193877712Y-80101206D01*
X193871682Y-80103891D01*
X193871681Y-80103891D01*
X193709278Y-80176197D01*
X193709276Y-80176198D01*
X193703248Y-80178882D01*
X193697907Y-80182762D01*
X193697906Y-80182763D01*
X193644606Y-80221488D01*
X193577738Y-80245346D01*
X193508587Y-80229266D01*
X193459107Y-80178352D01*
X193449548Y-80154706D01*
X193441356Y-80126510D01*
X193439145Y-80118899D01*
X193405199Y-80061500D01*
X193358491Y-79982520D01*
X193358489Y-79982517D01*
X193354453Y-79975693D01*
X193236807Y-79858047D01*
X193229983Y-79854011D01*
X193229980Y-79854009D01*
X193107673Y-79781677D01*
X193093601Y-79773355D01*
X193085990Y-79771144D01*
X193085988Y-79771143D01*
X193033769Y-79755972D01*
X192933831Y-79726938D01*
X192927426Y-79726434D01*
X192927421Y-79726433D01*
X192898958Y-79724193D01*
X192898950Y-79724193D01*
X192896502Y-79724000D01*
X192463498Y-79724000D01*
X192461050Y-79724193D01*
X192461042Y-79724193D01*
X192432579Y-79726433D01*
X192432574Y-79726434D01*
X192426169Y-79726938D01*
X192326231Y-79755972D01*
X192274012Y-79771143D01*
X192274010Y-79771144D01*
X192266399Y-79773355D01*
X192252327Y-79781677D01*
X192130020Y-79854009D01*
X192130017Y-79854011D01*
X192123193Y-79858047D01*
X192005547Y-79975693D01*
X192001511Y-79982517D01*
X192001509Y-79982520D01*
X191954801Y-80061500D01*
X191920855Y-80118899D01*
X191918644Y-80126510D01*
X191918643Y-80126512D01*
X191907487Y-80164911D01*
X191874438Y-80278669D01*
X191873934Y-80285074D01*
X191873933Y-80285079D01*
X191871693Y-80313542D01*
X191871500Y-80315998D01*
X191871500Y-81473000D01*
X191851498Y-81541121D01*
X191797842Y-81587614D01*
X191745500Y-81599000D01*
X191513498Y-81599000D01*
X191511050Y-81599193D01*
X191511042Y-81599193D01*
X191482579Y-81601433D01*
X191482574Y-81601434D01*
X191476169Y-81601938D01*
X191376231Y-81630972D01*
X191324012Y-81646143D01*
X191324010Y-81646144D01*
X191316399Y-81648355D01*
X191309572Y-81652392D01*
X191309573Y-81652392D01*
X191180020Y-81729009D01*
X191180017Y-81729011D01*
X191173193Y-81733047D01*
X191055547Y-81850693D01*
X191051511Y-81857517D01*
X191051509Y-81857520D01*
X191036723Y-81882522D01*
X190970855Y-81993899D01*
X190924438Y-82153669D01*
X190923934Y-82160074D01*
X190923933Y-82160079D01*
X190921693Y-82188542D01*
X190921500Y-82190998D01*
X190921500Y-83375856D01*
X190901498Y-83443977D01*
X190847842Y-83490470D01*
X190821697Y-83499103D01*
X190803966Y-83502872D01*
X190717712Y-83521206D01*
X190711682Y-83523891D01*
X190711681Y-83523891D01*
X190549278Y-83596197D01*
X190549276Y-83596198D01*
X190543248Y-83598882D01*
X190537907Y-83602762D01*
X190537906Y-83602763D01*
X190518428Y-83616915D01*
X190388747Y-83711134D01*
X190384326Y-83716044D01*
X190384325Y-83716045D01*
X190273340Y-83839307D01*
X190260960Y-83853056D01*
X190165473Y-84018444D01*
X190106458Y-84200072D01*
X190105768Y-84206633D01*
X190105768Y-84206635D01*
X190103998Y-84223478D01*
X190086496Y-84390000D01*
X188983500Y-84390000D01*
X188983500Y-82758768D01*
X188984027Y-82747584D01*
X188985702Y-82740091D01*
X188985453Y-82732165D01*
X188986199Y-82724274D01*
X188989099Y-82724548D01*
X188998680Y-82680217D01*
X189035139Y-82606447D01*
X189035140Y-82606445D01*
X189037430Y-82601811D01*
X189041724Y-82587680D01*
X189100865Y-82393023D01*
X189100865Y-82393021D01*
X189102370Y-82388069D01*
X189131529Y-82166590D01*
X189132953Y-82108303D01*
X189133074Y-82103365D01*
X189133074Y-82103361D01*
X189133156Y-82100000D01*
X189114852Y-81877361D01*
X189060431Y-81660702D01*
X188971354Y-81455840D01*
X188850014Y-81268277D01*
X188699670Y-81103051D01*
X188695619Y-81099852D01*
X188695615Y-81099848D01*
X188528414Y-80967800D01*
X188528410Y-80967798D01*
X188524359Y-80964598D01*
X188328789Y-80856638D01*
X188323920Y-80854914D01*
X188323916Y-80854912D01*
X188123087Y-80783795D01*
X188123083Y-80783794D01*
X188118212Y-80782069D01*
X188113119Y-80781162D01*
X188113116Y-80781161D01*
X187903373Y-80743800D01*
X187903367Y-80743799D01*
X187898284Y-80742894D01*
X187824452Y-80741992D01*
X187680081Y-80740228D01*
X187680079Y-80740228D01*
X187674911Y-80740165D01*
X187454091Y-80773955D01*
X187241756Y-80843357D01*
X187211443Y-80859137D01*
X187130939Y-80901045D01*
X187043607Y-80946507D01*
X187039474Y-80949610D01*
X187039471Y-80949612D01*
X186914059Y-81043774D01*
X186864965Y-81080635D01*
X186861393Y-81084373D01*
X186753729Y-81197037D01*
X186710629Y-81242138D01*
X186603201Y-81399621D01*
X186548293Y-81444621D01*
X186477768Y-81452792D01*
X186414021Y-81421538D01*
X186393324Y-81397054D01*
X186312822Y-81272617D01*
X186312820Y-81272614D01*
X186310014Y-81268277D01*
X186159670Y-81103051D01*
X186155619Y-81099852D01*
X186155615Y-81099848D01*
X185988414Y-80967800D01*
X185988410Y-80967798D01*
X185984359Y-80964598D01*
X185788789Y-80856638D01*
X185783920Y-80854914D01*
X185783916Y-80854912D01*
X185583087Y-80783795D01*
X185583083Y-80783794D01*
X185578212Y-80782069D01*
X185573119Y-80781162D01*
X185573116Y-80781161D01*
X185363373Y-80743800D01*
X185363367Y-80743799D01*
X185358284Y-80742894D01*
X185284452Y-80741992D01*
X185140081Y-80740228D01*
X185140079Y-80740228D01*
X185134911Y-80740165D01*
X184914091Y-80773955D01*
X184701756Y-80843357D01*
X184671443Y-80859137D01*
X184590939Y-80901045D01*
X184503607Y-80946507D01*
X184499474Y-80949610D01*
X184499471Y-80949612D01*
X184374059Y-81043774D01*
X184324965Y-81080635D01*
X184321393Y-81084373D01*
X184213729Y-81197037D01*
X184170629Y-81242138D01*
X184063201Y-81399621D01*
X184008293Y-81444621D01*
X183937768Y-81452792D01*
X183874021Y-81421538D01*
X183853324Y-81397054D01*
X183772822Y-81272617D01*
X183772820Y-81272614D01*
X183770014Y-81268277D01*
X183619670Y-81103051D01*
X183615619Y-81099852D01*
X183615615Y-81099848D01*
X183448414Y-80967800D01*
X183448410Y-80967798D01*
X183444359Y-80964598D01*
X183248789Y-80856638D01*
X183243920Y-80854914D01*
X183243916Y-80854912D01*
X183043087Y-80783795D01*
X183043083Y-80783794D01*
X183038212Y-80782069D01*
X183033119Y-80781162D01*
X183033116Y-80781161D01*
X182823373Y-80743800D01*
X182823367Y-80743799D01*
X182818284Y-80742894D01*
X182744452Y-80741992D01*
X182600081Y-80740228D01*
X182600079Y-80740228D01*
X182594911Y-80740165D01*
X182374091Y-80773955D01*
X182161756Y-80843357D01*
X182131443Y-80859137D01*
X182050939Y-80901045D01*
X181963607Y-80946507D01*
X181959474Y-80949610D01*
X181959471Y-80949612D01*
X181834059Y-81043774D01*
X181784965Y-81080635D01*
X181728537Y-81139684D01*
X181704283Y-81165064D01*
X181642759Y-81200494D01*
X181571846Y-81197037D01*
X181514060Y-81155791D01*
X181495207Y-81122243D01*
X181453767Y-81011703D01*
X181450615Y-81003295D01*
X181363261Y-80886739D01*
X181246705Y-80799385D01*
X181110316Y-80748255D01*
X181048134Y-80741500D01*
X179251866Y-80741500D01*
X179189684Y-80748255D01*
X179053295Y-80799385D01*
X178936739Y-80886739D01*
X178849385Y-81003295D01*
X178798255Y-81139684D01*
X178791500Y-81201866D01*
X178791500Y-82998134D01*
X175636979Y-82998134D01*
X175632489Y-79127900D01*
X178286500Y-79127900D01*
X178297474Y-79233666D01*
X178299655Y-79240202D01*
X178299655Y-79240204D01*
X178316359Y-79290271D01*
X178353450Y-79401446D01*
X178446522Y-79551848D01*
X178571697Y-79676805D01*
X178577927Y-79680645D01*
X178577928Y-79680646D01*
X178715090Y-79765194D01*
X178722262Y-79769615D01*
X178758628Y-79781677D01*
X178883611Y-79823132D01*
X178883613Y-79823132D01*
X178890139Y-79825297D01*
X178896975Y-79825997D01*
X178896978Y-79825998D01*
X178939407Y-79830345D01*
X178994600Y-79836000D01*
X179945400Y-79836000D01*
X179948646Y-79835663D01*
X179948650Y-79835663D01*
X180044308Y-79825738D01*
X180044312Y-79825737D01*
X180051166Y-79825026D01*
X180057702Y-79822845D01*
X180057704Y-79822845D01*
X180206282Y-79773275D01*
X180218946Y-79769050D01*
X180369348Y-79675978D01*
X180437060Y-79608148D01*
X180499343Y-79574069D01*
X180570163Y-79579072D01*
X180615250Y-79607992D01*
X180670720Y-79663365D01*
X180691697Y-79684305D01*
X180697927Y-79688145D01*
X180697928Y-79688146D01*
X180833833Y-79771919D01*
X180842262Y-79777115D01*
X180902675Y-79797153D01*
X181003611Y-79830632D01*
X181003613Y-79830632D01*
X181010139Y-79832797D01*
X181016975Y-79833497D01*
X181016978Y-79833498D01*
X181060031Y-79837909D01*
X181114600Y-79843500D01*
X182165400Y-79843500D01*
X182168646Y-79843163D01*
X182168650Y-79843163D01*
X182264308Y-79833238D01*
X182264312Y-79833237D01*
X182271166Y-79832526D01*
X182277702Y-79830345D01*
X182277704Y-79830345D01*
X182432005Y-79778866D01*
X182432007Y-79778865D01*
X182438946Y-79776550D01*
X182445170Y-79772698D01*
X182450219Y-79770333D01*
X182520391Y-79759547D01*
X182585255Y-79788412D01*
X182619644Y-79839734D01*
X182620747Y-79839243D01*
X182623431Y-79845271D01*
X182625473Y-79851556D01*
X182628776Y-79857278D01*
X182628777Y-79857279D01*
X182631129Y-79861353D01*
X182720960Y-80016944D01*
X182725378Y-80021851D01*
X182725379Y-80021852D01*
X182819615Y-80126512D01*
X182848747Y-80158866D01*
X183003248Y-80271118D01*
X183009276Y-80273802D01*
X183009278Y-80273803D01*
X183109598Y-80318468D01*
X183177712Y-80348794D01*
X183241074Y-80362262D01*
X183358056Y-80387128D01*
X183358061Y-80387128D01*
X183364513Y-80388500D01*
X183555487Y-80388500D01*
X183561939Y-80387128D01*
X183561944Y-80387128D01*
X183678926Y-80362262D01*
X183742288Y-80348794D01*
X183810402Y-80318468D01*
X183910722Y-80273803D01*
X183910724Y-80273802D01*
X183916752Y-80271118D01*
X184071253Y-80158866D01*
X184100385Y-80126512D01*
X184194621Y-80021852D01*
X184194622Y-80021851D01*
X184199040Y-80016944D01*
X184288871Y-79861353D01*
X184291223Y-79857279D01*
X184291224Y-79857278D01*
X184294527Y-79851556D01*
X184353542Y-79669928D01*
X184361002Y-79598955D01*
X184372814Y-79486565D01*
X184373504Y-79480000D01*
X184365248Y-79401446D01*
X184354232Y-79296635D01*
X184354232Y-79296633D01*
X184353542Y-79290072D01*
X184294527Y-79108444D01*
X184199040Y-78943056D01*
X184188694Y-78931565D01*
X184075675Y-78806045D01*
X184075674Y-78806044D01*
X184071253Y-78801134D01*
X183916752Y-78688882D01*
X183910724Y-78686198D01*
X183910722Y-78686197D01*
X183748319Y-78613891D01*
X183748318Y-78613891D01*
X183742288Y-78611206D01*
X183648888Y-78591353D01*
X183561944Y-78572872D01*
X183561939Y-78572872D01*
X183555487Y-78571500D01*
X183499595Y-78571500D01*
X183431474Y-78551498D01*
X183410500Y-78534595D01*
X183231152Y-78355247D01*
X183223612Y-78346961D01*
X183219500Y-78340482D01*
X183169848Y-78293856D01*
X183167007Y-78291102D01*
X183147270Y-78271365D01*
X183144073Y-78268885D01*
X183135051Y-78261180D01*
X183108600Y-78236341D01*
X183102821Y-78230914D01*
X183095875Y-78227095D01*
X183095872Y-78227093D01*
X183085066Y-78221152D01*
X183068547Y-78210301D01*
X183063106Y-78206081D01*
X183052541Y-78197886D01*
X183045272Y-78194741D01*
X183045268Y-78194738D01*
X183011963Y-78180326D01*
X183001313Y-78175109D01*
X182962560Y-78153805D01*
X182942937Y-78148767D01*
X182924234Y-78142363D01*
X182912920Y-78137467D01*
X182912919Y-78137467D01*
X182905645Y-78134319D01*
X182897822Y-78133080D01*
X182897812Y-78133077D01*
X182885935Y-78131196D01*
X182821782Y-78100783D01*
X182798504Y-78073051D01*
X182717332Y-77941880D01*
X182713478Y-77935652D01*
X182588303Y-77810695D01*
X182584084Y-77808094D01*
X182543583Y-77750970D01*
X182540351Y-77680047D01*
X182575976Y-77618635D01*
X182583530Y-77612078D01*
X182589348Y-77608478D01*
X182614283Y-77583500D01*
X182709134Y-77488483D01*
X182714305Y-77483303D01*
X182737077Y-77446360D01*
X182803275Y-77338968D01*
X182803276Y-77338966D01*
X182807115Y-77332738D01*
X182837318Y-77241677D01*
X182860632Y-77171389D01*
X182860632Y-77171387D01*
X182862797Y-77164861D01*
X182864709Y-77146206D01*
X182873172Y-77063598D01*
X182873500Y-77060400D01*
X182873500Y-76284600D01*
X182873163Y-76281350D01*
X182863238Y-76185692D01*
X182863237Y-76185688D01*
X182862526Y-76178834D01*
X182855906Y-76158990D01*
X182808868Y-76018002D01*
X182806550Y-76011054D01*
X182713478Y-75860652D01*
X182698258Y-75845458D01*
X182593483Y-75740866D01*
X182588303Y-75735695D01*
X182579929Y-75730533D01*
X182443968Y-75646725D01*
X182443966Y-75646724D01*
X182437738Y-75642885D01*
X182380051Y-75623751D01*
X182359833Y-75617045D01*
X182301473Y-75576614D01*
X182274236Y-75511050D01*
X182273500Y-75497452D01*
X182273500Y-75417621D01*
X182290381Y-75354621D01*
X182294986Y-75346646D01*
X182312278Y-75316695D01*
X185756301Y-75316695D01*
X185756598Y-75321848D01*
X185756598Y-75321851D01*
X185762061Y-75416590D01*
X185769160Y-75539715D01*
X185770297Y-75544761D01*
X185770298Y-75544767D01*
X185786587Y-75617045D01*
X185818272Y-75757639D01*
X185902316Y-75964616D01*
X185930773Y-76011054D01*
X186015608Y-76149492D01*
X186019037Y-76155088D01*
X186165300Y-76323938D01*
X186169280Y-76327242D01*
X186174031Y-76331187D01*
X186213666Y-76390090D01*
X186215163Y-76461071D01*
X186178047Y-76521593D01*
X186137774Y-76546112D01*
X186022345Y-76589385D01*
X185905789Y-76676739D01*
X185818435Y-76793295D01*
X185767305Y-76929684D01*
X185760550Y-76991866D01*
X185760550Y-78788134D01*
X185767305Y-78850316D01*
X185818435Y-78986705D01*
X185905789Y-79103261D01*
X186022345Y-79190615D01*
X186158734Y-79241745D01*
X186220916Y-79248500D01*
X188017184Y-79248500D01*
X188079366Y-79241745D01*
X188215755Y-79190615D01*
X188332311Y-79103261D01*
X188419665Y-78986705D01*
X188470795Y-78850316D01*
X188477550Y-78788134D01*
X188477550Y-76991866D01*
X188470795Y-76929684D01*
X188419665Y-76793295D01*
X188332311Y-76676739D01*
X188215755Y-76589385D01*
X188171304Y-76572721D01*
X188097253Y-76544960D01*
X188040489Y-76502318D01*
X188015789Y-76435756D01*
X188030997Y-76366408D01*
X188052543Y-76337727D01*
X188070301Y-76320031D01*
X188157146Y-76233489D01*
X188191492Y-76185692D01*
X188284485Y-76056277D01*
X188287503Y-76052077D01*
X188302588Y-76021556D01*
X188384186Y-75856453D01*
X188384187Y-75856451D01*
X188386480Y-75851811D01*
X188422926Y-75731854D01*
X188449915Y-75643023D01*
X188449915Y-75643021D01*
X188451420Y-75638069D01*
X188480579Y-75416590D01*
X188481615Y-75374203D01*
X188482124Y-75353365D01*
X188482124Y-75353361D01*
X188482206Y-75350000D01*
X188463902Y-75127361D01*
X188409481Y-74910702D01*
X188320404Y-74705840D01*
X188273667Y-74633596D01*
X188201872Y-74522617D01*
X188201870Y-74522614D01*
X188199064Y-74518277D01*
X188048720Y-74353051D01*
X188044669Y-74349852D01*
X188044665Y-74349848D01*
X187877464Y-74217800D01*
X187877460Y-74217798D01*
X187873409Y-74214598D01*
X187831619Y-74191529D01*
X187781648Y-74141097D01*
X187766876Y-74071654D01*
X187791992Y-74005248D01*
X187819344Y-73978641D01*
X187994378Y-73853792D01*
X188002250Y-73847139D01*
X188047045Y-73802500D01*
X206058996Y-73802500D01*
X206059686Y-73809065D01*
X206074908Y-73953891D01*
X206078958Y-73992428D01*
X206137973Y-74174056D01*
X206141276Y-74179778D01*
X206141277Y-74179779D01*
X206150935Y-74196507D01*
X206233460Y-74339444D01*
X206237878Y-74344351D01*
X206237879Y-74344352D01*
X206320354Y-74435950D01*
X206361247Y-74481366D01*
X206515748Y-74593618D01*
X206521776Y-74596302D01*
X206521778Y-74596303D01*
X206684181Y-74668609D01*
X206690212Y-74671294D01*
X206783612Y-74691147D01*
X206870556Y-74709628D01*
X206870561Y-74709628D01*
X206877013Y-74711000D01*
X207067987Y-74711000D01*
X207074439Y-74709628D01*
X207074444Y-74709628D01*
X207161388Y-74691147D01*
X207254788Y-74671294D01*
X207260819Y-74668609D01*
X207423222Y-74596303D01*
X207423224Y-74596302D01*
X207429252Y-74593618D01*
X207583753Y-74481366D01*
X207624646Y-74435950D01*
X207707121Y-74344352D01*
X207707122Y-74344351D01*
X207711540Y-74339444D01*
X207794065Y-74196507D01*
X207803723Y-74179779D01*
X207803724Y-74179778D01*
X207807027Y-74174056D01*
X207866042Y-73992428D01*
X207870093Y-73953891D01*
X207885314Y-73809065D01*
X207886004Y-73802500D01*
X207869622Y-73646635D01*
X207866732Y-73619135D01*
X207866732Y-73619133D01*
X207866042Y-73612572D01*
X207807027Y-73430944D01*
X207711540Y-73265556D01*
X207583753Y-73123634D01*
X207429252Y-73011382D01*
X207423224Y-73008698D01*
X207423222Y-73008697D01*
X207260819Y-72936391D01*
X207260818Y-72936391D01*
X207254788Y-72933706D01*
X207161388Y-72913853D01*
X207074444Y-72895372D01*
X207074439Y-72895372D01*
X207067987Y-72894000D01*
X206877013Y-72894000D01*
X206870561Y-72895372D01*
X206870556Y-72895372D01*
X206783613Y-72913853D01*
X206690212Y-72933706D01*
X206684182Y-72936391D01*
X206684181Y-72936391D01*
X206521778Y-73008697D01*
X206521776Y-73008698D01*
X206515748Y-73011382D01*
X206361247Y-73123634D01*
X206233460Y-73265556D01*
X206137973Y-73430944D01*
X206078958Y-73612572D01*
X206078268Y-73619133D01*
X206078268Y-73619135D01*
X206075378Y-73646635D01*
X206058996Y-73802500D01*
X188047045Y-73802500D01*
X188153102Y-73696812D01*
X188159780Y-73688965D01*
X188284053Y-73516020D01*
X188289363Y-73507183D01*
X188383720Y-73316267D01*
X188387519Y-73306672D01*
X188449427Y-73102910D01*
X188451605Y-73092837D01*
X188453036Y-73081962D01*
X188450825Y-73067778D01*
X188437667Y-73064000D01*
X185802275Y-73064000D01*
X185788744Y-73067973D01*
X185787307Y-73077966D01*
X185817615Y-73212446D01*
X185820695Y-73222275D01*
X185900820Y-73419603D01*
X185905463Y-73428794D01*
X186016744Y-73610388D01*
X186022827Y-73618699D01*
X186162263Y-73779667D01*
X186169630Y-73786883D01*
X186333484Y-73922916D01*
X186341931Y-73928831D01*
X186411019Y-73969203D01*
X186459743Y-74020842D01*
X186472814Y-74090625D01*
X186446083Y-74156396D01*
X186405634Y-74189752D01*
X186392657Y-74196507D01*
X186388524Y-74199610D01*
X186388521Y-74199612D01*
X186250989Y-74302874D01*
X186214015Y-74330635D01*
X186210443Y-74334373D01*
X186077951Y-74473018D01*
X186059679Y-74492138D01*
X186056765Y-74496410D01*
X186056764Y-74496411D01*
X185993101Y-74589737D01*
X185933793Y-74676680D01*
X185918499Y-74709628D01*
X185847417Y-74862763D01*
X185839738Y-74879305D01*
X185780039Y-75094570D01*
X185756301Y-75316695D01*
X182312278Y-75316695D01*
X182349175Y-75252788D01*
X182381223Y-75197279D01*
X182381224Y-75197278D01*
X182384527Y-75191556D01*
X182443542Y-75009928D01*
X182446743Y-74979478D01*
X182462814Y-74826565D01*
X182463504Y-74820000D01*
X182455398Y-74742872D01*
X182444232Y-74636635D01*
X182444232Y-74636633D01*
X182443542Y-74630072D01*
X182384527Y-74448444D01*
X182376988Y-74435385D01*
X182292341Y-74288774D01*
X182289040Y-74283056D01*
X182161253Y-74141134D01*
X182006752Y-74028882D01*
X182000724Y-74026198D01*
X182000722Y-74026197D01*
X181838319Y-73953891D01*
X181838318Y-73953891D01*
X181832288Y-73951206D01*
X181738887Y-73931353D01*
X181651944Y-73912872D01*
X181651939Y-73912872D01*
X181645487Y-73911500D01*
X181454513Y-73911500D01*
X181448061Y-73912872D01*
X181448056Y-73912872D01*
X181361113Y-73931353D01*
X181267712Y-73951206D01*
X181261682Y-73953891D01*
X181261681Y-73953891D01*
X181099278Y-74026197D01*
X181099276Y-74026198D01*
X181093248Y-74028882D01*
X180938747Y-74141134D01*
X180810960Y-74283056D01*
X180807659Y-74288774D01*
X180723013Y-74435385D01*
X180715473Y-74448444D01*
X180694024Y-74514457D01*
X180674355Y-74574991D01*
X180634281Y-74633596D01*
X180568884Y-74661233D01*
X180498928Y-74649126D01*
X180465504Y-74625227D01*
X180373483Y-74533366D01*
X180368303Y-74528195D01*
X180303746Y-74488401D01*
X180293770Y-74482252D01*
X180246277Y-74429480D01*
X180234853Y-74359408D01*
X180250767Y-74311992D01*
X180311223Y-74207279D01*
X180311224Y-74207278D01*
X180314527Y-74201556D01*
X180373542Y-74019928D01*
X180375773Y-73998706D01*
X180392814Y-73836565D01*
X180393504Y-73830000D01*
X180373542Y-73640072D01*
X180314527Y-73458444D01*
X180302279Y-73437229D01*
X180222341Y-73298774D01*
X180219040Y-73293056D01*
X180199428Y-73271274D01*
X180095675Y-73156045D01*
X180095674Y-73156044D01*
X180091253Y-73151134D01*
X179936752Y-73038882D01*
X179930724Y-73036198D01*
X179930722Y-73036197D01*
X179768319Y-72963891D01*
X179768318Y-72963891D01*
X179762288Y-72961206D01*
X179668888Y-72941353D01*
X179581944Y-72922872D01*
X179581939Y-72922872D01*
X179575487Y-72921500D01*
X179384513Y-72921500D01*
X179378061Y-72922872D01*
X179378056Y-72922872D01*
X179291112Y-72941353D01*
X179197712Y-72961206D01*
X179191682Y-72963891D01*
X179191681Y-72963891D01*
X179029278Y-73036197D01*
X179029276Y-73036198D01*
X179023248Y-73038882D01*
X178868747Y-73151134D01*
X178864326Y-73156044D01*
X178864325Y-73156045D01*
X178760573Y-73271274D01*
X178740960Y-73293056D01*
X178737659Y-73298774D01*
X178657722Y-73437229D01*
X178645473Y-73458444D01*
X178586458Y-73640072D01*
X178566496Y-73830000D01*
X178567186Y-73836565D01*
X178584228Y-73998706D01*
X178586458Y-74019928D01*
X178645473Y-74201556D01*
X178648776Y-74207278D01*
X178648777Y-74207279D01*
X178703969Y-74302874D01*
X178720707Y-74371869D01*
X178697487Y-74438961D01*
X178661153Y-74473018D01*
X178630256Y-74492138D01*
X178570652Y-74529022D01*
X178445695Y-74654197D01*
X178441855Y-74660427D01*
X178441854Y-74660428D01*
X178385125Y-74752460D01*
X178352885Y-74804762D01*
X178297203Y-74972639D01*
X178296503Y-74979475D01*
X178296502Y-74979478D01*
X178293382Y-75009928D01*
X178286500Y-75077100D01*
X178286500Y-76252900D01*
X178286837Y-76256146D01*
X178286837Y-76256150D01*
X178294623Y-76331187D01*
X178297474Y-76358666D01*
X178299655Y-76365202D01*
X178299655Y-76365204D01*
X178315620Y-76413056D01*
X178353450Y-76526446D01*
X178446522Y-76676848D01*
X178571697Y-76801805D01*
X178577927Y-76805645D01*
X178577928Y-76805646D01*
X178713669Y-76889318D01*
X178722262Y-76894615D01*
X178759249Y-76906883D01*
X178883611Y-76948132D01*
X178883613Y-76948132D01*
X178890139Y-76950297D01*
X178896975Y-76950997D01*
X178896978Y-76950998D01*
X178940031Y-76955409D01*
X178994600Y-76961000D01*
X179945400Y-76961000D01*
X179948646Y-76960663D01*
X179948650Y-76960663D01*
X180044308Y-76950738D01*
X180044312Y-76950737D01*
X180051166Y-76950026D01*
X180057702Y-76947845D01*
X180057704Y-76947845D01*
X180212006Y-76896366D01*
X180212011Y-76896364D01*
X180218946Y-76894050D01*
X180225168Y-76890200D01*
X180227050Y-76889318D01*
X180297222Y-76878534D01*
X180362086Y-76907400D01*
X180401046Y-76966751D01*
X180406500Y-77003419D01*
X180406500Y-77060400D01*
X180406837Y-77063646D01*
X180406837Y-77063650D01*
X180414752Y-77139928D01*
X180417474Y-77166166D01*
X180419656Y-77172706D01*
X180419657Y-77172711D01*
X180419898Y-77173434D01*
X180419915Y-77173908D01*
X180421111Y-77179445D01*
X180420125Y-77179658D01*
X180422482Y-77244383D01*
X180386297Y-77305467D01*
X180322832Y-77337290D01*
X180252237Y-77329750D01*
X180234258Y-77320568D01*
X180223968Y-77314225D01*
X180223966Y-77314224D01*
X180217738Y-77310385D01*
X180057254Y-77257155D01*
X180056389Y-77256868D01*
X180056387Y-77256868D01*
X180049861Y-77254703D01*
X180043025Y-77254003D01*
X180043022Y-77254002D01*
X179999969Y-77249591D01*
X179945400Y-77244000D01*
X178994600Y-77244000D01*
X178991354Y-77244337D01*
X178991350Y-77244337D01*
X178895692Y-77254262D01*
X178895688Y-77254263D01*
X178888834Y-77254974D01*
X178882298Y-77257155D01*
X178882296Y-77257155D01*
X178750194Y-77301228D01*
X178721054Y-77310950D01*
X178570652Y-77404022D01*
X178445695Y-77529197D01*
X178441855Y-77535427D01*
X178441854Y-77535428D01*
X178395112Y-77611258D01*
X178352885Y-77679762D01*
X178328505Y-77753266D01*
X178307742Y-77815866D01*
X178297203Y-77847639D01*
X178296503Y-77854475D01*
X178296502Y-77854478D01*
X178292840Y-77890224D01*
X178286500Y-77952100D01*
X178286500Y-79127900D01*
X175632489Y-79127900D01*
X175622174Y-70236695D01*
X185756301Y-70236695D01*
X185756598Y-70241848D01*
X185756598Y-70241851D01*
X185763614Y-70363532D01*
X185769160Y-70459715D01*
X185770297Y-70464761D01*
X185770298Y-70464767D01*
X185788262Y-70544478D01*
X185818272Y-70677639D01*
X185902316Y-70884616D01*
X186019037Y-71075088D01*
X186165300Y-71243938D01*
X186337176Y-71386632D01*
X186411005Y-71429774D01*
X186459729Y-71481412D01*
X186472800Y-71551195D01*
X186446069Y-71616967D01*
X186405612Y-71650327D01*
X186397507Y-71654546D01*
X186388788Y-71660036D01*
X186218483Y-71787905D01*
X186210776Y-71794748D01*
X186063640Y-71948717D01*
X186057154Y-71956727D01*
X185937148Y-72132649D01*
X185932050Y-72141623D01*
X185842388Y-72334783D01*
X185838825Y-72344470D01*
X185783439Y-72544183D01*
X185784962Y-72552607D01*
X185797342Y-72556000D01*
X188437394Y-72556000D01*
X188450925Y-72552027D01*
X188452230Y-72542947D01*
X188410264Y-72375875D01*
X188406944Y-72366124D01*
X188322022Y-72170814D01*
X188317155Y-72161739D01*
X188201476Y-71982926D01*
X188195186Y-71974757D01*
X188051856Y-71817240D01*
X188044323Y-71810215D01*
X187877189Y-71678222D01*
X187868606Y-71672520D01*
X187831652Y-71652120D01*
X187781681Y-71601687D01*
X187774494Y-71567900D01*
X211771500Y-71567900D01*
X211771837Y-71571146D01*
X211771837Y-71571150D01*
X211781060Y-71660036D01*
X211782474Y-71673666D01*
X211838450Y-71841446D01*
X211931522Y-71991848D01*
X212056697Y-72116805D01*
X212062927Y-72120645D01*
X212062928Y-72120646D01*
X212200090Y-72205194D01*
X212207262Y-72209615D01*
X212287005Y-72236064D01*
X212368611Y-72263132D01*
X212368613Y-72263132D01*
X212375139Y-72265297D01*
X212381975Y-72265997D01*
X212381978Y-72265998D01*
X212425031Y-72270409D01*
X212479600Y-72276000D01*
X212714830Y-72276000D01*
X212782951Y-72296002D01*
X212829444Y-72349658D01*
X212839548Y-72419932D01*
X212834663Y-72440936D01*
X212801518Y-72542947D01*
X212776458Y-72620072D01*
X212756496Y-72810000D01*
X212776458Y-72999928D01*
X212835473Y-73181556D01*
X212930960Y-73346944D01*
X213058747Y-73488866D01*
X213213248Y-73601118D01*
X213219276Y-73603802D01*
X213219278Y-73603803D01*
X213315481Y-73646635D01*
X213387712Y-73678794D01*
X213472480Y-73696812D01*
X213568056Y-73717128D01*
X213568061Y-73717128D01*
X213574513Y-73718500D01*
X213765487Y-73718500D01*
X213771939Y-73717128D01*
X213771944Y-73717128D01*
X213867520Y-73696812D01*
X213952288Y-73678794D01*
X214024519Y-73646635D01*
X214120722Y-73603803D01*
X214120724Y-73603802D01*
X214126752Y-73601118D01*
X214281253Y-73488866D01*
X214409040Y-73346944D01*
X214504527Y-73181556D01*
X214563542Y-72999928D01*
X214583504Y-72810000D01*
X214563542Y-72620072D01*
X214538482Y-72542947D01*
X214505337Y-72440936D01*
X214503309Y-72369969D01*
X214539972Y-72309171D01*
X214603684Y-72277845D01*
X214625170Y-72276000D01*
X214780400Y-72276000D01*
X214783646Y-72275663D01*
X214783650Y-72275663D01*
X214879308Y-72265738D01*
X214879312Y-72265737D01*
X214886166Y-72265026D01*
X214892702Y-72262845D01*
X214892704Y-72262845D01*
X215024806Y-72218772D01*
X215053946Y-72209050D01*
X215204348Y-72115978D01*
X215215536Y-72104771D01*
X215324134Y-71995983D01*
X215329305Y-71990803D01*
X215333146Y-71984572D01*
X215418275Y-71846468D01*
X215418276Y-71846466D01*
X215422115Y-71840238D01*
X215477797Y-71672361D01*
X215479623Y-71654546D01*
X215485038Y-71601687D01*
X215488500Y-71567900D01*
X215488500Y-70642100D01*
X215486670Y-70624460D01*
X215478238Y-70543192D01*
X215478237Y-70543188D01*
X215477526Y-70536334D01*
X215421550Y-70368554D01*
X215328478Y-70218152D01*
X215203303Y-70093195D01*
X215197072Y-70089354D01*
X215058968Y-70004225D01*
X215058966Y-70004224D01*
X215052738Y-70000385D01*
X214892254Y-69947155D01*
X214891389Y-69946868D01*
X214891387Y-69946868D01*
X214884861Y-69944703D01*
X214878025Y-69944003D01*
X214878022Y-69944002D01*
X214834969Y-69939591D01*
X214780400Y-69934000D01*
X212479600Y-69934000D01*
X212476354Y-69934337D01*
X212476350Y-69934337D01*
X212380692Y-69944262D01*
X212380688Y-69944263D01*
X212373834Y-69944974D01*
X212367298Y-69947155D01*
X212367296Y-69947155D01*
X212235194Y-69991228D01*
X212206054Y-70000950D01*
X212055652Y-70094022D01*
X211930695Y-70219197D01*
X211926855Y-70225427D01*
X211926854Y-70225428D01*
X211858333Y-70336590D01*
X211837885Y-70369762D01*
X211782203Y-70537639D01*
X211771500Y-70642100D01*
X211771500Y-71567900D01*
X187774494Y-71567900D01*
X187766909Y-71532245D01*
X187792025Y-71465839D01*
X187819377Y-71439232D01*
X187842847Y-71422491D01*
X187998910Y-71311173D01*
X188157146Y-71153489D01*
X188216644Y-71070689D01*
X188284485Y-70976277D01*
X188287503Y-70972077D01*
X188386480Y-70771811D01*
X188451420Y-70558069D01*
X188480579Y-70336590D01*
X188482206Y-70270000D01*
X188463902Y-70047361D01*
X188409481Y-69830702D01*
X188320404Y-69625840D01*
X188199064Y-69438277D01*
X188048720Y-69273051D01*
X188044669Y-69269852D01*
X188044665Y-69269848D01*
X187877464Y-69137800D01*
X187877460Y-69137798D01*
X187873409Y-69134598D01*
X187677839Y-69026638D01*
X187672970Y-69024914D01*
X187672966Y-69024912D01*
X187472137Y-68953795D01*
X187472133Y-68953794D01*
X187467262Y-68952069D01*
X187462169Y-68951162D01*
X187462166Y-68951161D01*
X187252423Y-68913800D01*
X187252417Y-68913799D01*
X187247334Y-68912894D01*
X187173502Y-68911992D01*
X187029131Y-68910228D01*
X187029129Y-68910228D01*
X187023961Y-68910165D01*
X186803141Y-68943955D01*
X186590806Y-69013357D01*
X186560493Y-69029137D01*
X186463288Y-69079739D01*
X186392657Y-69116507D01*
X186388524Y-69119610D01*
X186388521Y-69119612D01*
X186218150Y-69247530D01*
X186214015Y-69250635D01*
X186059679Y-69412138D01*
X185933793Y-69596680D01*
X185918053Y-69630590D01*
X185844182Y-69789732D01*
X185839738Y-69799305D01*
X185780039Y-70014570D01*
X185756301Y-70236695D01*
X175622174Y-70236695D01*
X175620089Y-68439595D01*
X211772001Y-68439595D01*
X211772338Y-68446114D01*
X211782257Y-68541706D01*
X211785149Y-68555100D01*
X211836588Y-68709284D01*
X211842761Y-68722462D01*
X211928063Y-68860307D01*
X211937099Y-68871708D01*
X212051829Y-68986239D01*
X212063240Y-68995251D01*
X212201243Y-69080316D01*
X212214424Y-69086463D01*
X212368710Y-69137638D01*
X212382086Y-69140505D01*
X212476438Y-69150172D01*
X212482854Y-69150500D01*
X213357885Y-69150500D01*
X213373124Y-69146025D01*
X213374329Y-69144635D01*
X213376000Y-69136952D01*
X213376000Y-69132384D01*
X213884000Y-69132384D01*
X213888475Y-69147623D01*
X213889865Y-69148828D01*
X213897548Y-69150499D01*
X214777095Y-69150499D01*
X214783614Y-69150162D01*
X214879206Y-69140243D01*
X214892600Y-69137351D01*
X215046784Y-69085912D01*
X215059962Y-69079739D01*
X215197807Y-68994437D01*
X215209208Y-68985401D01*
X215323739Y-68870671D01*
X215332751Y-68859260D01*
X215417816Y-68721257D01*
X215423963Y-68708076D01*
X215475138Y-68553790D01*
X215478005Y-68540414D01*
X215487672Y-68446062D01*
X215488000Y-68439646D01*
X215488000Y-68252115D01*
X215483525Y-68236876D01*
X215482135Y-68235671D01*
X215474452Y-68234000D01*
X213902115Y-68234000D01*
X213886876Y-68238475D01*
X213885671Y-68239865D01*
X213884000Y-68247548D01*
X213884000Y-69132384D01*
X213376000Y-69132384D01*
X213376000Y-68252115D01*
X213371525Y-68236876D01*
X213370135Y-68235671D01*
X213362452Y-68234000D01*
X211790116Y-68234000D01*
X211774877Y-68238475D01*
X211773672Y-68239865D01*
X211772001Y-68247548D01*
X211772001Y-68439595D01*
X175620089Y-68439595D01*
X175619240Y-67707885D01*
X211772000Y-67707885D01*
X211776475Y-67723124D01*
X211777865Y-67724329D01*
X211785548Y-67726000D01*
X213357885Y-67726000D01*
X213373124Y-67721525D01*
X213374329Y-67720135D01*
X213376000Y-67712452D01*
X213376000Y-67707885D01*
X213884000Y-67707885D01*
X213888475Y-67723124D01*
X213889865Y-67724329D01*
X213897548Y-67726000D01*
X215469884Y-67726000D01*
X215485123Y-67721525D01*
X215486328Y-67720135D01*
X215487999Y-67712452D01*
X215487999Y-67520405D01*
X215487662Y-67513886D01*
X215477743Y-67418294D01*
X215474851Y-67404900D01*
X215423412Y-67250716D01*
X215417239Y-67237538D01*
X215331937Y-67099693D01*
X215322901Y-67088292D01*
X215208171Y-66973761D01*
X215196760Y-66964749D01*
X215058757Y-66879684D01*
X215045576Y-66873537D01*
X214891290Y-66822362D01*
X214877914Y-66819495D01*
X214783562Y-66809828D01*
X214777145Y-66809500D01*
X213902115Y-66809500D01*
X213886876Y-66813975D01*
X213885671Y-66815365D01*
X213884000Y-66823048D01*
X213884000Y-67707885D01*
X213376000Y-67707885D01*
X213376000Y-66827616D01*
X213371525Y-66812377D01*
X213370135Y-66811172D01*
X213362452Y-66809501D01*
X212482905Y-66809501D01*
X212476386Y-66809838D01*
X212380794Y-66819757D01*
X212367400Y-66822649D01*
X212213216Y-66874088D01*
X212200038Y-66880261D01*
X212062193Y-66965563D01*
X212050792Y-66974599D01*
X211936261Y-67089329D01*
X211927249Y-67100740D01*
X211842184Y-67238743D01*
X211836037Y-67251924D01*
X211784862Y-67406210D01*
X211781995Y-67419586D01*
X211772328Y-67513938D01*
X211772000Y-67520355D01*
X211772000Y-67707885D01*
X175619240Y-67707885D01*
X175616710Y-65527095D01*
X212412001Y-65527095D01*
X212412338Y-65533614D01*
X212422257Y-65629206D01*
X212425149Y-65642600D01*
X212476588Y-65796784D01*
X212482761Y-65809962D01*
X212568063Y-65947807D01*
X212577099Y-65959208D01*
X212691829Y-66073739D01*
X212703240Y-66082751D01*
X212841243Y-66167816D01*
X212854424Y-66173963D01*
X213008710Y-66225138D01*
X213022086Y-66228005D01*
X213116438Y-66237672D01*
X213122854Y-66238000D01*
X213297885Y-66238000D01*
X213313124Y-66233525D01*
X213314329Y-66232135D01*
X213316000Y-66224452D01*
X213316000Y-66219884D01*
X213824000Y-66219884D01*
X213828475Y-66235123D01*
X213829865Y-66236328D01*
X213837548Y-66237999D01*
X214017095Y-66237999D01*
X214023614Y-66237662D01*
X214119206Y-66227743D01*
X214132600Y-66224851D01*
X214286784Y-66173412D01*
X214299962Y-66167239D01*
X214437807Y-66081937D01*
X214449208Y-66072901D01*
X214563739Y-65958171D01*
X214572751Y-65946760D01*
X214657816Y-65808757D01*
X214663963Y-65795576D01*
X214715138Y-65641290D01*
X214718005Y-65627914D01*
X214727672Y-65533562D01*
X214727834Y-65530400D01*
X216861500Y-65530400D01*
X216861837Y-65533646D01*
X216861837Y-65533650D01*
X216871752Y-65629206D01*
X216872474Y-65636166D01*
X216874655Y-65642702D01*
X216874655Y-65642704D01*
X216918728Y-65774806D01*
X216928450Y-65803946D01*
X217021522Y-65954348D01*
X217146697Y-66079305D01*
X217152927Y-66083145D01*
X217152928Y-66083146D01*
X217290288Y-66167816D01*
X217297262Y-66172115D01*
X217377005Y-66198564D01*
X217458611Y-66225632D01*
X217458613Y-66225632D01*
X217465139Y-66227797D01*
X217471975Y-66228497D01*
X217471978Y-66228498D01*
X217515031Y-66232909D01*
X217569600Y-66238500D01*
X218470400Y-66238500D01*
X218473646Y-66238163D01*
X218473650Y-66238163D01*
X218569308Y-66228238D01*
X218569312Y-66228237D01*
X218576166Y-66227526D01*
X218582702Y-66225345D01*
X218582704Y-66225345D01*
X218714806Y-66181272D01*
X218743946Y-66171550D01*
X218894348Y-66078478D01*
X219019305Y-65953303D01*
X219112115Y-65802738D01*
X219167797Y-65634861D01*
X219178500Y-65530400D01*
X219178500Y-65234500D01*
X219198502Y-65166379D01*
X219252158Y-65119886D01*
X219304500Y-65108500D01*
X223041502Y-65108500D01*
X223109623Y-65128502D01*
X223156116Y-65182158D01*
X223159484Y-65190270D01*
X223199385Y-65296705D01*
X223286739Y-65413261D01*
X223377013Y-65480918D01*
X223383965Y-65486128D01*
X223426479Y-65542988D01*
X223431504Y-65613806D01*
X223415832Y-65652788D01*
X223307073Y-65830268D01*
X223213195Y-66056908D01*
X223208017Y-66078478D01*
X223169599Y-66238500D01*
X223155928Y-66295443D01*
X223136681Y-66540000D01*
X223155928Y-66784557D01*
X223157082Y-66789364D01*
X223157083Y-66789370D01*
X223177290Y-66873537D01*
X223213195Y-67023092D01*
X223307073Y-67249732D01*
X223435248Y-67458896D01*
X223438463Y-67462660D01*
X223438465Y-67462663D01*
X223487739Y-67520355D01*
X223594567Y-67645433D01*
X223598323Y-67648641D01*
X223675069Y-67714189D01*
X223713878Y-67773640D01*
X223714384Y-67844635D01*
X223675069Y-67905811D01*
X223594567Y-67974567D01*
X223435248Y-68161104D01*
X223307073Y-68370268D01*
X223247136Y-68514967D01*
X223230513Y-68555100D01*
X223213195Y-68596908D01*
X223212040Y-68601720D01*
X223183342Y-68721257D01*
X223155928Y-68835443D01*
X223136681Y-69080000D01*
X223155928Y-69324557D01*
X223157082Y-69329364D01*
X223157083Y-69329370D01*
X223193351Y-69480437D01*
X223213195Y-69563092D01*
X223307073Y-69789732D01*
X223435248Y-69998896D01*
X223438463Y-70002660D01*
X223438465Y-70002663D01*
X223516494Y-70094022D01*
X223594567Y-70185433D01*
X223598323Y-70188641D01*
X223771548Y-70336590D01*
X223781104Y-70344752D01*
X223785327Y-70347340D01*
X223785330Y-70347342D01*
X223821917Y-70369762D01*
X223990268Y-70472927D01*
X224127561Y-70529796D01*
X224212335Y-70564911D01*
X224212337Y-70564912D01*
X224216908Y-70566805D01*
X224299563Y-70586649D01*
X224450630Y-70622917D01*
X224450636Y-70622918D01*
X224455443Y-70624072D01*
X224700000Y-70643319D01*
X224944557Y-70624072D01*
X224949364Y-70622918D01*
X224949370Y-70622917D01*
X225100437Y-70586649D01*
X225183092Y-70566805D01*
X225187663Y-70564912D01*
X225187665Y-70564911D01*
X225272439Y-70529796D01*
X225409732Y-70472927D01*
X225578083Y-70369762D01*
X225614670Y-70347342D01*
X225614673Y-70347340D01*
X225618896Y-70344752D01*
X225628453Y-70336590D01*
X225801677Y-70188641D01*
X225805433Y-70185433D01*
X225883506Y-70094022D01*
X225961535Y-70002663D01*
X225961537Y-70002660D01*
X225964752Y-69998896D01*
X226092927Y-69789732D01*
X226186805Y-69563092D01*
X226206649Y-69480437D01*
X226242917Y-69329370D01*
X226242918Y-69329364D01*
X226244072Y-69324557D01*
X226263319Y-69080000D01*
X226244072Y-68835443D01*
X226216659Y-68721257D01*
X226187960Y-68601720D01*
X226186805Y-68596908D01*
X226169488Y-68555100D01*
X226152864Y-68514967D01*
X226092927Y-68370268D01*
X225964752Y-68161104D01*
X225805433Y-67974567D01*
X225724931Y-67905811D01*
X225686122Y-67846360D01*
X225685616Y-67775365D01*
X225724931Y-67714189D01*
X225801677Y-67648641D01*
X225805433Y-67645433D01*
X225912261Y-67520355D01*
X225961535Y-67462663D01*
X225961537Y-67462660D01*
X225964752Y-67458896D01*
X226092927Y-67249732D01*
X226186805Y-67023092D01*
X226222710Y-66873537D01*
X226242917Y-66789370D01*
X226242918Y-66789364D01*
X226244072Y-66784557D01*
X226263319Y-66540000D01*
X226244072Y-66295443D01*
X226230402Y-66238500D01*
X226191983Y-66078478D01*
X226186805Y-66056908D01*
X226092927Y-65830268D01*
X225984168Y-65652788D01*
X225965630Y-65584255D01*
X225987087Y-65516578D01*
X226016035Y-65486128D01*
X226022987Y-65480918D01*
X226113261Y-65413261D01*
X226200615Y-65296705D01*
X226251745Y-65160316D01*
X226258500Y-65098134D01*
X226258500Y-62901866D01*
X226251745Y-62839684D01*
X226200615Y-62703295D01*
X226113261Y-62586739D01*
X225996705Y-62499385D01*
X225860316Y-62448255D01*
X225798134Y-62441500D01*
X223601866Y-62441500D01*
X223539684Y-62448255D01*
X223403295Y-62499385D01*
X223286739Y-62586739D01*
X223199385Y-62703295D01*
X223196233Y-62711703D01*
X223159484Y-62809730D01*
X223116842Y-62866494D01*
X223050281Y-62891194D01*
X223041502Y-62891500D01*
X219304500Y-62891500D01*
X219236379Y-62871498D01*
X219189886Y-62817842D01*
X219178500Y-62765500D01*
X219178500Y-62529600D01*
X219170060Y-62448255D01*
X219168238Y-62430692D01*
X219168237Y-62430688D01*
X219167526Y-62423834D01*
X219111550Y-62256054D01*
X219018478Y-62105652D01*
X218893303Y-61980695D01*
X218887072Y-61976854D01*
X218748968Y-61891725D01*
X218748966Y-61891724D01*
X218742738Y-61887885D01*
X218662995Y-61861436D01*
X218581389Y-61834368D01*
X218581387Y-61834368D01*
X218574861Y-61832203D01*
X218568025Y-61831503D01*
X218568022Y-61831502D01*
X218524969Y-61827091D01*
X218470400Y-61821500D01*
X217569600Y-61821500D01*
X217566354Y-61821837D01*
X217566350Y-61821837D01*
X217470692Y-61831762D01*
X217470688Y-61831763D01*
X217463834Y-61832474D01*
X217457298Y-61834655D01*
X217457296Y-61834655D01*
X217440928Y-61840116D01*
X217296054Y-61888450D01*
X217145652Y-61981522D01*
X217020695Y-62106697D01*
X216927885Y-62257262D01*
X216872203Y-62425139D01*
X216871503Y-62431975D01*
X216871502Y-62431978D01*
X216869550Y-62451029D01*
X216861500Y-62529600D01*
X216861500Y-65530400D01*
X214727834Y-65530400D01*
X214728000Y-65527146D01*
X214728000Y-64302115D01*
X214723525Y-64286876D01*
X214722135Y-64285671D01*
X214714452Y-64284000D01*
X213842115Y-64284000D01*
X213826876Y-64288475D01*
X213825671Y-64289865D01*
X213824000Y-64297548D01*
X213824000Y-66219884D01*
X213316000Y-66219884D01*
X213316000Y-64302115D01*
X213311525Y-64286876D01*
X213310135Y-64285671D01*
X213302452Y-64284000D01*
X212430116Y-64284000D01*
X212414877Y-64288475D01*
X212413672Y-64289865D01*
X212412001Y-64297548D01*
X212412001Y-65527095D01*
X175616710Y-65527095D01*
X175614657Y-63757885D01*
X212412000Y-63757885D01*
X212416475Y-63773124D01*
X212417865Y-63774329D01*
X212425548Y-63776000D01*
X213297885Y-63776000D01*
X213313124Y-63771525D01*
X213314329Y-63770135D01*
X213316000Y-63762452D01*
X213316000Y-63757885D01*
X213824000Y-63757885D01*
X213828475Y-63773124D01*
X213829865Y-63774329D01*
X213837548Y-63776000D01*
X214709884Y-63776000D01*
X214725123Y-63771525D01*
X214726328Y-63770135D01*
X214727999Y-63762452D01*
X214727999Y-62532905D01*
X214727662Y-62526386D01*
X214717743Y-62430794D01*
X214714851Y-62417400D01*
X214663412Y-62263216D01*
X214657239Y-62250038D01*
X214571937Y-62112193D01*
X214562901Y-62100792D01*
X214448171Y-61986261D01*
X214436760Y-61977249D01*
X214298757Y-61892184D01*
X214285576Y-61886037D01*
X214131290Y-61834862D01*
X214117914Y-61831995D01*
X214023562Y-61822328D01*
X214017145Y-61822000D01*
X213842115Y-61822000D01*
X213826876Y-61826475D01*
X213825671Y-61827865D01*
X213824000Y-61835548D01*
X213824000Y-63757885D01*
X213316000Y-63757885D01*
X213316000Y-61840116D01*
X213311525Y-61824877D01*
X213310135Y-61823672D01*
X213302452Y-61822001D01*
X213122905Y-61822001D01*
X213116386Y-61822338D01*
X213020794Y-61832257D01*
X213007400Y-61835149D01*
X212853216Y-61886588D01*
X212840038Y-61892761D01*
X212702193Y-61978063D01*
X212690792Y-61987099D01*
X212576261Y-62101829D01*
X212567249Y-62113240D01*
X212482184Y-62251243D01*
X212476037Y-62264424D01*
X212424862Y-62418710D01*
X212421995Y-62432086D01*
X212412328Y-62526438D01*
X212412000Y-62532855D01*
X212412000Y-63757885D01*
X175614657Y-63757885D01*
X175609201Y-59054645D01*
X175629124Y-58986502D01*
X175682726Y-58939947D01*
X175735201Y-58928500D01*
X229997500Y-58928500D01*
X230065621Y-58948502D01*
G37*
%TD.AperFunction*%
%TD*%
M02*
