%TF.GenerationSoftware,KiCad,Pcbnew,6.0.11-2627ca5db0~126~ubuntu22.04.1*%
%TF.CreationDate,2023-03-03T14:45:42-05:00*%
%TF.ProjectId,lin-flow-sensor,6c696e2d-666c-46f7-972d-73656e736f72,1.0*%
%TF.SameCoordinates,Original*%
%TF.FileFunction,Copper,L3,Inr*%
%TF.FilePolarity,Positive*%
%FSLAX46Y46*%
G04 Gerber Fmt 4.6, Leading zero omitted, Abs format (unit mm)*
G04 Created by KiCad (PCBNEW 6.0.11-2627ca5db0~126~ubuntu22.04.1) date 2023-03-03 14:45:42*
%MOMM*%
%LPD*%
G01*
G04 APERTURE LIST*
%TA.AperFunction,ComponentPad*%
%ADD10R,2.100000X2.100000*%
%TD*%
%TA.AperFunction,ComponentPad*%
%ADD11C,2.100000*%
%TD*%
%TA.AperFunction,ComponentPad*%
%ADD12R,1.879600X1.879600*%
%TD*%
%TA.AperFunction,ComponentPad*%
%ADD13C,1.879600*%
%TD*%
%TA.AperFunction,ComponentPad*%
%ADD14O,1.700000X1.700000*%
%TD*%
%TA.AperFunction,ComponentPad*%
%ADD15R,1.700000X1.700000*%
%TD*%
%TA.AperFunction,ViaPad*%
%ADD16C,0.800000*%
%TD*%
%TA.AperFunction,Conductor*%
%ADD17C,0.250000*%
%TD*%
G04 APERTURE END LIST*
D10*
%TO.N,+5V*%
%TO.C,J5*%
X224725000Y-83025000D03*
D11*
%TO.N,GND*%
X224725000Y-85565000D03*
%TO.N,Net-(J5-Pad3)*%
X224725000Y-88105000D03*
%TD*%
D12*
%TO.N,unconnected-(J1-Pad1)*%
%TO.C,J1*%
X226520000Y-91800000D03*
D13*
%TO.N,UPDI*%
X223980000Y-91800000D03*
%TO.N,Net-(J1-Pad3)*%
X221440000Y-91800000D03*
%TO.N,Net-(JP1-Pad1)*%
X218900000Y-91800000D03*
%TO.N,unconnected-(J1-Pad5)*%
X216360000Y-91800000D03*
%TO.N,GND*%
X213820000Y-91800000D03*
%TD*%
D10*
%TO.N,+BATT*%
%TO.C,J3*%
X224700000Y-64000000D03*
D11*
%TO.N,GND*%
X224700000Y-66540000D03*
%TO.N,LIN*%
X224700000Y-69080000D03*
%TD*%
D14*
%TO.N,unconnected-(U3-Pad4)*%
%TO.C,U3*%
X187119050Y-70270000D03*
%TO.N,+12V*%
X187119050Y-72810000D03*
%TO.N,GND*%
X187119050Y-75350000D03*
D15*
%TO.N,+5V*%
X187119050Y-77890000D03*
%TD*%
D10*
%TO.N,+5V*%
%TO.C,J4*%
X224725000Y-73600000D03*
D11*
%TO.N,GND*%
X224725000Y-76140000D03*
%TO.N,Net-(J4-Pad3)*%
X224725000Y-78680000D03*
%TD*%
D15*
%TO.N,GND*%
%TO.C,J2*%
X180150000Y-82100000D03*
D14*
%TO.N,+5V*%
X182690000Y-82100000D03*
%TO.N,SDA5V*%
X185230000Y-82100000D03*
%TO.N,SCL5V*%
X187770000Y-82100000D03*
%TD*%
D16*
%TO.N,GND*%
X197470000Y-79040000D03*
%TO.N,+3V3*%
X194900000Y-84940000D03*
%TO.N,+5V*%
X194160000Y-80970000D03*
X183460000Y-79480000D03*
%TO.N,LIN*%
X206972500Y-73802500D03*
%TO.N,GND*%
X179480000Y-73830000D03*
X181550000Y-74820000D03*
X191000000Y-84390000D03*
X193300000Y-88120000D03*
X213670000Y-72810000D03*
%TO.N,+3V3*%
X225230000Y-94820000D03*
%TO.N,Net-(JP1-Pad1)*%
X220650000Y-96630000D03*
%TO.N,UPDI*%
X210710000Y-94680000D03*
%TO.N,GND*%
X218300000Y-75650000D03*
X207550000Y-91950000D03*
X200500000Y-82850000D03*
X218475000Y-85175000D03*
X207600000Y-86525000D03*
X206625000Y-89750000D03*
%TO.N,LIN*%
X199200000Y-81575000D03*
%TO.N,TXD*%
X206169192Y-94595106D03*
X200550000Y-91800000D03*
%TO.N,~{LIN_SLP}*%
X197950000Y-91675000D03*
X205075000Y-92075000D03*
%TO.N,~{LIN_WAKE}*%
X204925000Y-93300000D03*
X199225000Y-91625000D03*
%TO.N,Net-(R5-Pad1)*%
X205230552Y-94251653D03*
X203700000Y-86825000D03*
%TO.N,SDA*%
X206675000Y-96775000D03*
X185425000Y-90325000D03*
%TO.N,SCL*%
X206290576Y-95852382D03*
X187450000Y-90425000D03*
%TO.N,+3V3*%
X194225000Y-89700000D03*
X197475000Y-93675000D03*
X190050000Y-90950000D03*
X202850000Y-88175000D03*
X192025000Y-93200000D03*
X213975000Y-78925000D03*
X181950000Y-90050000D03*
X214175000Y-88450000D03*
X190550000Y-89975000D03*
%TO.N,Net-(J4-Pad3)*%
X218625000Y-76950000D03*
%TO.N,Net-(J5-Pad3)*%
X218575000Y-86525000D03*
%TO.N,~{FLOW_PULSE0}*%
X211250000Y-93450000D03*
X210300000Y-90150000D03*
%TD*%
D17*
%TO.N,LIN*%
X199200000Y-81575000D02*
X206972500Y-73802500D01*
%TO.N,UPDI*%
X223980000Y-91800000D02*
X221100000Y-94680000D01*
X221100000Y-94680000D02*
X210710000Y-94680000D01*
%TO.N,TXD*%
X206169192Y-94595106D02*
X205787645Y-94976653D01*
X205787645Y-94976653D02*
X203726653Y-94976653D01*
X203726653Y-94976653D02*
X200550000Y-91800000D01*
%TD*%
%TA.AperFunction,Conductor*%
%TO.N,+3V3*%
G36*
X230065621Y-58948502D02*
G01*
X230112114Y-59002158D01*
X230123500Y-59054500D01*
X230123500Y-100966071D01*
X230103498Y-101034192D01*
X230049842Y-101080685D01*
X229997614Y-101092071D01*
X175783994Y-101140950D01*
X175715855Y-101121009D01*
X175669314Y-101067396D01*
X175657880Y-101015096D01*
X175647044Y-91675000D01*
X197036496Y-91675000D01*
X197037186Y-91681565D01*
X197051308Y-91815925D01*
X197056458Y-91864928D01*
X197115473Y-92046556D01*
X197210960Y-92211944D01*
X197215378Y-92216851D01*
X197215379Y-92216852D01*
X197258667Y-92264928D01*
X197338747Y-92353866D01*
X197419266Y-92412367D01*
X197471693Y-92450457D01*
X197493248Y-92466118D01*
X197499276Y-92468802D01*
X197499278Y-92468803D01*
X197644591Y-92533500D01*
X197667712Y-92543794D01*
X197761112Y-92563647D01*
X197848056Y-92582128D01*
X197848061Y-92582128D01*
X197854513Y-92583500D01*
X198045487Y-92583500D01*
X198051939Y-92582128D01*
X198051944Y-92582128D01*
X198138888Y-92563647D01*
X198232288Y-92543794D01*
X198255409Y-92533500D01*
X198400722Y-92468803D01*
X198400724Y-92468802D01*
X198406752Y-92466118D01*
X198428308Y-92450457D01*
X198480734Y-92412367D01*
X198547849Y-92363605D01*
X198614715Y-92339747D01*
X198683867Y-92355827D01*
X198695970Y-92363605D01*
X198762905Y-92412236D01*
X198768248Y-92416118D01*
X198774276Y-92418802D01*
X198774278Y-92418803D01*
X198936681Y-92491109D01*
X198942712Y-92493794D01*
X199036112Y-92513647D01*
X199123056Y-92532128D01*
X199123061Y-92532128D01*
X199129513Y-92533500D01*
X199320487Y-92533500D01*
X199326939Y-92532128D01*
X199326944Y-92532128D01*
X199413887Y-92513647D01*
X199507288Y-92493794D01*
X199513319Y-92491109D01*
X199675722Y-92418803D01*
X199675724Y-92418802D01*
X199681752Y-92416118D01*
X199711174Y-92394742D01*
X199778040Y-92370883D01*
X199847192Y-92386962D01*
X199878871Y-92412367D01*
X199882249Y-92416118D01*
X199938747Y-92478866D01*
X200093248Y-92591118D01*
X200099276Y-92593802D01*
X200099278Y-92593803D01*
X200254166Y-92662763D01*
X200267712Y-92668794D01*
X200361113Y-92688647D01*
X200448056Y-92707128D01*
X200448061Y-92707128D01*
X200454513Y-92708500D01*
X200510406Y-92708500D01*
X200578527Y-92728502D01*
X200599501Y-92745405D01*
X201912257Y-94058162D01*
X203223001Y-95368906D01*
X203230541Y-95377192D01*
X203234653Y-95383671D01*
X203240430Y-95389096D01*
X203284304Y-95430296D01*
X203287146Y-95433051D01*
X203306883Y-95452788D01*
X203310080Y-95455268D01*
X203319100Y-95462971D01*
X203351332Y-95493239D01*
X203358278Y-95497058D01*
X203358281Y-95497060D01*
X203369087Y-95503001D01*
X203385606Y-95513852D01*
X203401612Y-95526267D01*
X203408881Y-95529412D01*
X203408885Y-95529415D01*
X203442190Y-95543827D01*
X203452840Y-95549044D01*
X203491593Y-95570348D01*
X203499268Y-95572319D01*
X203499269Y-95572319D01*
X203511215Y-95575386D01*
X203529920Y-95581790D01*
X203548508Y-95589834D01*
X203556331Y-95591073D01*
X203556341Y-95591076D01*
X203592177Y-95596752D01*
X203603797Y-95599158D01*
X203638942Y-95608181D01*
X203646623Y-95610153D01*
X203666877Y-95610153D01*
X203686587Y-95611704D01*
X203706596Y-95614873D01*
X203714488Y-95614127D01*
X203750614Y-95610712D01*
X203762472Y-95610153D01*
X205262594Y-95610153D01*
X205330715Y-95630155D01*
X205377208Y-95683811D01*
X205387904Y-95749323D01*
X205377072Y-95852382D01*
X205377762Y-95858947D01*
X205393629Y-96009910D01*
X205397034Y-96042310D01*
X205456049Y-96223938D01*
X205551536Y-96389326D01*
X205679323Y-96531248D01*
X205684664Y-96535128D01*
X205684669Y-96535133D01*
X205720616Y-96561250D01*
X205763969Y-96617472D01*
X205771864Y-96676356D01*
X205761496Y-96775000D01*
X205781458Y-96964928D01*
X205840473Y-97146556D01*
X205935960Y-97311944D01*
X205940378Y-97316851D01*
X205940379Y-97316852D01*
X206036678Y-97423803D01*
X206063747Y-97453866D01*
X206218248Y-97566118D01*
X206224276Y-97568802D01*
X206224278Y-97568803D01*
X206386681Y-97641109D01*
X206392712Y-97643794D01*
X206486113Y-97663647D01*
X206573056Y-97682128D01*
X206573061Y-97682128D01*
X206579513Y-97683500D01*
X206770487Y-97683500D01*
X206776939Y-97682128D01*
X206776944Y-97682128D01*
X206863887Y-97663647D01*
X206957288Y-97643794D01*
X206963319Y-97641109D01*
X207125722Y-97568803D01*
X207125724Y-97568802D01*
X207131752Y-97566118D01*
X207286253Y-97453866D01*
X207313322Y-97423803D01*
X207409621Y-97316852D01*
X207409622Y-97316851D01*
X207414040Y-97311944D01*
X207509527Y-97146556D01*
X207568542Y-96964928D01*
X207588504Y-96775000D01*
X207573264Y-96630000D01*
X219736496Y-96630000D01*
X219756458Y-96819928D01*
X219815473Y-97001556D01*
X219910960Y-97166944D01*
X220038747Y-97308866D01*
X220193248Y-97421118D01*
X220199276Y-97423802D01*
X220199278Y-97423803D01*
X220361681Y-97496109D01*
X220367712Y-97498794D01*
X220461113Y-97518647D01*
X220548056Y-97537128D01*
X220548061Y-97537128D01*
X220554513Y-97538500D01*
X220745487Y-97538500D01*
X220751939Y-97537128D01*
X220751944Y-97537128D01*
X220838887Y-97518647D01*
X220932288Y-97498794D01*
X220938319Y-97496109D01*
X221100722Y-97423803D01*
X221100724Y-97423802D01*
X221106752Y-97421118D01*
X221261253Y-97308866D01*
X221389040Y-97166944D01*
X221484527Y-97001556D01*
X221543542Y-96819928D01*
X221563504Y-96630000D01*
X221543542Y-96440072D01*
X221484527Y-96258444D01*
X221389040Y-96093056D01*
X221261253Y-95951134D01*
X221106752Y-95838882D01*
X221100724Y-95836198D01*
X221100722Y-95836197D01*
X220938319Y-95763891D01*
X220938318Y-95763891D01*
X220932288Y-95761206D01*
X220838887Y-95741353D01*
X220751944Y-95722872D01*
X220751939Y-95722872D01*
X220745487Y-95721500D01*
X220554513Y-95721500D01*
X220548061Y-95722872D01*
X220548056Y-95722872D01*
X220461112Y-95741353D01*
X220367712Y-95761206D01*
X220361682Y-95763891D01*
X220361681Y-95763891D01*
X220199278Y-95836197D01*
X220199276Y-95836198D01*
X220193248Y-95838882D01*
X220038747Y-95951134D01*
X219910960Y-96093056D01*
X219815473Y-96258444D01*
X219756458Y-96440072D01*
X219736496Y-96630000D01*
X207573264Y-96630000D01*
X207572574Y-96623435D01*
X207569232Y-96591635D01*
X207569232Y-96591633D01*
X207568542Y-96585072D01*
X207509527Y-96403444D01*
X207414040Y-96238056D01*
X207286253Y-96096134D01*
X207280912Y-96092254D01*
X207280907Y-96092249D01*
X207244960Y-96066132D01*
X207201607Y-96009910D01*
X207193712Y-95951026D01*
X207203390Y-95858947D01*
X207204080Y-95852382D01*
X207184118Y-95662454D01*
X207125103Y-95480826D01*
X207117258Y-95467237D01*
X207087890Y-95416372D01*
X207029616Y-95315438D01*
X206952397Y-95229677D01*
X206921681Y-95165672D01*
X206930445Y-95095218D01*
X206936915Y-95082369D01*
X207000415Y-94972385D01*
X207000416Y-94972384D01*
X207003719Y-94966662D01*
X207062734Y-94785034D01*
X207073773Y-94680000D01*
X209796496Y-94680000D01*
X209797186Y-94686565D01*
X209806846Y-94778471D01*
X209816458Y-94869928D01*
X209875473Y-95051556D01*
X209970960Y-95216944D01*
X209975378Y-95221851D01*
X209975379Y-95221852D01*
X210057452Y-95313003D01*
X210098747Y-95358866D01*
X210253248Y-95471118D01*
X210259276Y-95473802D01*
X210259278Y-95473803D01*
X210416556Y-95543827D01*
X210427712Y-95548794D01*
X210521113Y-95568647D01*
X210608056Y-95587128D01*
X210608061Y-95587128D01*
X210614513Y-95588500D01*
X210805487Y-95588500D01*
X210811939Y-95587128D01*
X210811944Y-95587128D01*
X210898887Y-95568647D01*
X210992288Y-95548794D01*
X211003444Y-95543827D01*
X211160722Y-95473803D01*
X211160724Y-95473802D01*
X211166752Y-95471118D01*
X211195841Y-95449984D01*
X211307434Y-95368906D01*
X211321253Y-95358866D01*
X211325668Y-95353963D01*
X211330580Y-95349540D01*
X211331705Y-95350789D01*
X211385014Y-95317949D01*
X211418200Y-95313500D01*
X221021233Y-95313500D01*
X221032416Y-95314027D01*
X221039909Y-95315702D01*
X221047835Y-95315453D01*
X221047836Y-95315453D01*
X221107986Y-95313562D01*
X221111945Y-95313500D01*
X221139856Y-95313500D01*
X221143791Y-95313003D01*
X221143856Y-95312995D01*
X221155693Y-95312062D01*
X221187951Y-95311048D01*
X221191970Y-95310922D01*
X221199889Y-95310673D01*
X221219343Y-95305021D01*
X221238700Y-95301013D01*
X221250930Y-95299468D01*
X221250931Y-95299468D01*
X221258797Y-95298474D01*
X221266168Y-95295555D01*
X221266170Y-95295555D01*
X221299912Y-95282196D01*
X221311142Y-95278351D01*
X221345983Y-95268229D01*
X221345984Y-95268229D01*
X221353593Y-95266018D01*
X221360412Y-95261985D01*
X221360417Y-95261983D01*
X221371028Y-95255707D01*
X221388776Y-95247012D01*
X221407617Y-95239552D01*
X221443387Y-95213564D01*
X221453307Y-95207048D01*
X221484535Y-95188580D01*
X221484538Y-95188578D01*
X221491362Y-95184542D01*
X221505683Y-95170221D01*
X221520717Y-95157380D01*
X221530694Y-95150131D01*
X221537107Y-95145472D01*
X221565298Y-95111395D01*
X221573288Y-95102616D01*
X223449204Y-93226701D01*
X223511516Y-93192675D01*
X223572476Y-93194767D01*
X223574552Y-93195560D01*
X223807928Y-93243041D01*
X223941284Y-93247931D01*
X224040760Y-93251579D01*
X224040764Y-93251579D01*
X224045924Y-93251768D01*
X224051044Y-93251112D01*
X224051046Y-93251112D01*
X224277023Y-93222164D01*
X224277024Y-93222164D01*
X224282151Y-93221507D01*
X224365203Y-93196590D01*
X224505316Y-93154554D01*
X224505317Y-93154553D01*
X224510262Y-93153070D01*
X224724133Y-93048295D01*
X224728336Y-93045297D01*
X224728341Y-93045294D01*
X224913810Y-92913000D01*
X224918020Y-92909997D01*
X224920601Y-92907425D01*
X224985135Y-92878913D01*
X225055278Y-92889886D01*
X225108355Y-92937039D01*
X225119502Y-92959610D01*
X225129585Y-92986505D01*
X225216939Y-93103061D01*
X225333495Y-93190415D01*
X225469884Y-93241545D01*
X225532066Y-93248300D01*
X227507934Y-93248300D01*
X227570116Y-93241545D01*
X227706505Y-93190415D01*
X227823061Y-93103061D01*
X227910415Y-92986505D01*
X227961545Y-92850116D01*
X227968300Y-92787934D01*
X227968300Y-90812066D01*
X227961545Y-90749884D01*
X227910415Y-90613495D01*
X227823061Y-90496939D01*
X227706505Y-90409585D01*
X227570116Y-90358455D01*
X227507934Y-90351700D01*
X225532066Y-90351700D01*
X225469884Y-90358455D01*
X225333495Y-90409585D01*
X225216939Y-90496939D01*
X225129585Y-90613495D01*
X225126433Y-90621903D01*
X225118218Y-90643816D01*
X225075576Y-90700580D01*
X225009014Y-90725280D01*
X224939666Y-90710072D01*
X224922144Y-90698468D01*
X224788278Y-90592747D01*
X224788273Y-90592744D01*
X224784224Y-90589546D01*
X224779708Y-90587053D01*
X224779705Y-90587051D01*
X224580250Y-90476946D01*
X224580246Y-90476944D01*
X224575726Y-90474449D01*
X224570857Y-90472725D01*
X224570853Y-90472723D01*
X224356105Y-90396676D01*
X224356101Y-90396675D01*
X224351230Y-90394950D01*
X224346140Y-90394043D01*
X224346135Y-90394042D01*
X224218814Y-90371364D01*
X224116764Y-90353186D01*
X224025355Y-90352069D01*
X223883795Y-90350339D01*
X223883793Y-90350339D01*
X223878625Y-90350276D01*
X223643209Y-90386300D01*
X223416838Y-90460289D01*
X223392953Y-90472723D01*
X223244740Y-90549878D01*
X223205590Y-90570258D01*
X223201457Y-90573361D01*
X223201454Y-90573363D01*
X223019375Y-90710072D01*
X223015140Y-90713252D01*
X223011568Y-90716990D01*
X222896155Y-90837763D01*
X222850602Y-90885431D01*
X222817545Y-90933891D01*
X222815186Y-90937349D01*
X222760274Y-90982351D01*
X222689749Y-90990522D01*
X222626002Y-90959267D01*
X222605306Y-90934784D01*
X222594217Y-90917642D01*
X222594212Y-90917636D01*
X222591406Y-90913298D01*
X222571572Y-90891500D01*
X222531700Y-90847682D01*
X222431124Y-90737150D01*
X222427073Y-90733951D01*
X222427069Y-90733947D01*
X222248278Y-90592747D01*
X222248273Y-90592744D01*
X222244224Y-90589546D01*
X222239708Y-90587053D01*
X222239705Y-90587051D01*
X222040250Y-90476946D01*
X222040246Y-90476944D01*
X222035726Y-90474449D01*
X222030857Y-90472725D01*
X222030853Y-90472723D01*
X221816105Y-90396676D01*
X221816101Y-90396675D01*
X221811230Y-90394950D01*
X221806140Y-90394043D01*
X221806135Y-90394042D01*
X221678814Y-90371364D01*
X221576764Y-90353186D01*
X221485355Y-90352069D01*
X221343795Y-90350339D01*
X221343793Y-90350339D01*
X221338625Y-90350276D01*
X221103209Y-90386300D01*
X220876838Y-90460289D01*
X220852953Y-90472723D01*
X220704740Y-90549878D01*
X220665590Y-90570258D01*
X220661457Y-90573361D01*
X220661454Y-90573363D01*
X220479375Y-90710072D01*
X220475140Y-90713252D01*
X220471568Y-90716990D01*
X220356155Y-90837763D01*
X220310602Y-90885431D01*
X220277545Y-90933891D01*
X220275186Y-90937349D01*
X220220274Y-90982351D01*
X220149749Y-90990522D01*
X220086002Y-90959267D01*
X220065306Y-90934784D01*
X220054217Y-90917642D01*
X220054212Y-90917636D01*
X220051406Y-90913298D01*
X220031572Y-90891500D01*
X219991700Y-90847682D01*
X219891124Y-90737150D01*
X219887073Y-90733951D01*
X219887069Y-90733947D01*
X219708278Y-90592747D01*
X219708273Y-90592744D01*
X219704224Y-90589546D01*
X219699708Y-90587053D01*
X219699705Y-90587051D01*
X219500250Y-90476946D01*
X219500246Y-90476944D01*
X219495726Y-90474449D01*
X219490857Y-90472725D01*
X219490853Y-90472723D01*
X219276105Y-90396676D01*
X219276101Y-90396675D01*
X219271230Y-90394950D01*
X219266140Y-90394043D01*
X219266135Y-90394042D01*
X219138814Y-90371364D01*
X219036764Y-90353186D01*
X218945355Y-90352069D01*
X218803795Y-90350339D01*
X218803793Y-90350339D01*
X218798625Y-90350276D01*
X218563209Y-90386300D01*
X218336838Y-90460289D01*
X218312953Y-90472723D01*
X218164740Y-90549878D01*
X218125590Y-90570258D01*
X218121457Y-90573361D01*
X218121454Y-90573363D01*
X217939375Y-90710072D01*
X217935140Y-90713252D01*
X217931568Y-90716990D01*
X217816155Y-90837763D01*
X217770602Y-90885431D01*
X217737545Y-90933891D01*
X217735186Y-90937349D01*
X217680274Y-90982351D01*
X217609749Y-90990522D01*
X217546002Y-90959267D01*
X217525306Y-90934784D01*
X217514217Y-90917642D01*
X217514212Y-90917636D01*
X217511406Y-90913298D01*
X217491572Y-90891500D01*
X217451700Y-90847682D01*
X217351124Y-90737150D01*
X217347073Y-90733951D01*
X217347069Y-90733947D01*
X217168278Y-90592747D01*
X217168273Y-90592744D01*
X217164224Y-90589546D01*
X217159708Y-90587053D01*
X217159705Y-90587051D01*
X216960250Y-90476946D01*
X216960246Y-90476944D01*
X216955726Y-90474449D01*
X216950857Y-90472725D01*
X216950853Y-90472723D01*
X216736105Y-90396676D01*
X216736101Y-90396675D01*
X216731230Y-90394950D01*
X216726140Y-90394043D01*
X216726135Y-90394042D01*
X216598814Y-90371364D01*
X216496764Y-90353186D01*
X216405355Y-90352069D01*
X216263795Y-90350339D01*
X216263793Y-90350339D01*
X216258625Y-90350276D01*
X216023209Y-90386300D01*
X215796838Y-90460289D01*
X215772953Y-90472723D01*
X215624740Y-90549878D01*
X215585590Y-90570258D01*
X215581457Y-90573361D01*
X215581454Y-90573363D01*
X215399375Y-90710072D01*
X215395140Y-90713252D01*
X215391568Y-90716990D01*
X215276155Y-90837763D01*
X215230602Y-90885431D01*
X215197545Y-90933891D01*
X215195186Y-90937349D01*
X215140274Y-90982351D01*
X215069749Y-90990522D01*
X215006002Y-90959267D01*
X214985306Y-90934784D01*
X214974217Y-90917642D01*
X214974212Y-90917636D01*
X214971406Y-90913298D01*
X214951572Y-90891500D01*
X214911700Y-90847682D01*
X214811124Y-90737150D01*
X214807073Y-90733951D01*
X214807069Y-90733947D01*
X214628278Y-90592747D01*
X214628273Y-90592744D01*
X214624224Y-90589546D01*
X214619708Y-90587053D01*
X214619705Y-90587051D01*
X214420250Y-90476946D01*
X214420246Y-90476944D01*
X214415726Y-90474449D01*
X214410857Y-90472725D01*
X214410853Y-90472723D01*
X214196105Y-90396676D01*
X214196101Y-90396675D01*
X214191230Y-90394950D01*
X214186140Y-90394043D01*
X214186135Y-90394042D01*
X214058814Y-90371364D01*
X213956764Y-90353186D01*
X213865355Y-90352069D01*
X213723795Y-90350339D01*
X213723793Y-90350339D01*
X213718625Y-90350276D01*
X213483209Y-90386300D01*
X213256838Y-90460289D01*
X213232953Y-90472723D01*
X213084740Y-90549878D01*
X213045590Y-90570258D01*
X213041457Y-90573361D01*
X213041454Y-90573363D01*
X212859375Y-90710072D01*
X212855140Y-90713252D01*
X212851568Y-90716990D01*
X212736155Y-90837763D01*
X212690602Y-90885431D01*
X212687691Y-90889699D01*
X212687687Y-90889704D01*
X212655837Y-90936395D01*
X212556394Y-91082172D01*
X212522033Y-91156197D01*
X212466402Y-91276045D01*
X212456122Y-91298191D01*
X212392477Y-91527685D01*
X212367170Y-91764494D01*
X212367467Y-91769646D01*
X212367467Y-91769650D01*
X212377866Y-91950000D01*
X212380879Y-92002255D01*
X212382016Y-92007301D01*
X212382017Y-92007307D01*
X212392152Y-92052279D01*
X212433237Y-92234585D01*
X212435179Y-92239367D01*
X212435180Y-92239371D01*
X212508040Y-92418803D01*
X212522837Y-92455244D01*
X212647274Y-92658306D01*
X212803204Y-92838317D01*
X212986442Y-92990444D01*
X212990894Y-92993046D01*
X212990899Y-92993049D01*
X213166875Y-93095881D01*
X213192065Y-93110601D01*
X213414552Y-93195560D01*
X213419618Y-93196591D01*
X213419619Y-93196591D01*
X213473956Y-93207646D01*
X213647928Y-93243041D01*
X213781284Y-93247931D01*
X213880760Y-93251579D01*
X213880764Y-93251579D01*
X213885924Y-93251768D01*
X213891044Y-93251112D01*
X213891046Y-93251112D01*
X214117023Y-93222164D01*
X214117024Y-93222164D01*
X214122151Y-93221507D01*
X214205203Y-93196590D01*
X214345316Y-93154554D01*
X214345317Y-93154553D01*
X214350262Y-93153070D01*
X214564133Y-93048295D01*
X214568336Y-93045297D01*
X214568341Y-93045294D01*
X214753816Y-92912996D01*
X214753818Y-92912994D01*
X214758020Y-92909997D01*
X214926716Y-92741889D01*
X214984979Y-92660807D01*
X215040972Y-92617160D01*
X215111676Y-92610714D01*
X215174640Y-92643516D01*
X215186582Y-92657176D01*
X215187274Y-92658306D01*
X215343204Y-92838317D01*
X215526442Y-92990444D01*
X215530894Y-92993046D01*
X215530899Y-92993049D01*
X215706875Y-93095881D01*
X215732065Y-93110601D01*
X215954552Y-93195560D01*
X215959618Y-93196591D01*
X215959619Y-93196591D01*
X216013956Y-93207646D01*
X216187928Y-93243041D01*
X216321284Y-93247931D01*
X216420760Y-93251579D01*
X216420764Y-93251579D01*
X216425924Y-93251768D01*
X216431044Y-93251112D01*
X216431046Y-93251112D01*
X216657023Y-93222164D01*
X216657024Y-93222164D01*
X216662151Y-93221507D01*
X216745203Y-93196590D01*
X216885316Y-93154554D01*
X216885317Y-93154553D01*
X216890262Y-93153070D01*
X217104133Y-93048295D01*
X217108336Y-93045297D01*
X217108341Y-93045294D01*
X217293816Y-92912996D01*
X217293818Y-92912994D01*
X217298020Y-92909997D01*
X217466716Y-92741889D01*
X217524979Y-92660807D01*
X217580972Y-92617160D01*
X217651676Y-92610714D01*
X217714640Y-92643516D01*
X217726582Y-92657176D01*
X217727274Y-92658306D01*
X217883204Y-92838317D01*
X218066442Y-92990444D01*
X218070894Y-92993046D01*
X218070899Y-92993049D01*
X218246875Y-93095881D01*
X218272065Y-93110601D01*
X218494552Y-93195560D01*
X218499618Y-93196591D01*
X218499619Y-93196591D01*
X218553956Y-93207646D01*
X218727928Y-93243041D01*
X218861284Y-93247931D01*
X218960760Y-93251579D01*
X218960764Y-93251579D01*
X218965924Y-93251768D01*
X218971044Y-93251112D01*
X218971046Y-93251112D01*
X219197023Y-93222164D01*
X219197024Y-93222164D01*
X219202151Y-93221507D01*
X219285203Y-93196590D01*
X219425316Y-93154554D01*
X219425317Y-93154553D01*
X219430262Y-93153070D01*
X219644133Y-93048295D01*
X219648336Y-93045297D01*
X219648341Y-93045294D01*
X219833816Y-92912996D01*
X219833818Y-92912994D01*
X219838020Y-92909997D01*
X220006716Y-92741889D01*
X220064979Y-92660807D01*
X220120972Y-92617160D01*
X220191676Y-92610714D01*
X220254640Y-92643516D01*
X220266582Y-92657176D01*
X220267274Y-92658306D01*
X220423204Y-92838317D01*
X220606442Y-92990444D01*
X220610894Y-92993046D01*
X220610899Y-92993049D01*
X220786875Y-93095881D01*
X220812065Y-93110601D01*
X221034552Y-93195560D01*
X221039618Y-93196591D01*
X221039619Y-93196591D01*
X221093956Y-93207646D01*
X221267928Y-93243041D01*
X221314457Y-93244747D01*
X221338962Y-93245646D01*
X221406304Y-93268131D01*
X221450799Y-93323454D01*
X221458321Y-93394051D01*
X221423439Y-93460656D01*
X220874499Y-94009596D01*
X220812187Y-94043621D01*
X220785404Y-94046500D01*
X212172894Y-94046500D01*
X212104773Y-94026498D01*
X212058280Y-93972842D01*
X212048176Y-93902568D01*
X212063774Y-93857501D01*
X212073218Y-93841143D01*
X212084527Y-93821556D01*
X212143542Y-93639928D01*
X212163504Y-93450000D01*
X212143542Y-93260072D01*
X212084527Y-93078444D01*
X212067121Y-93048295D01*
X212026593Y-92978099D01*
X211989040Y-92913056D01*
X211879439Y-92791331D01*
X211865675Y-92776045D01*
X211865674Y-92776044D01*
X211861253Y-92771134D01*
X211706752Y-92658882D01*
X211700724Y-92656198D01*
X211700722Y-92656197D01*
X211538319Y-92583891D01*
X211538318Y-92583891D01*
X211532288Y-92581206D01*
X211438888Y-92561353D01*
X211351944Y-92542872D01*
X211351939Y-92542872D01*
X211345487Y-92541500D01*
X211154513Y-92541500D01*
X211148061Y-92542872D01*
X211148056Y-92542872D01*
X211061112Y-92561353D01*
X210967712Y-92581206D01*
X210961682Y-92583891D01*
X210961681Y-92583891D01*
X210799278Y-92656197D01*
X210799276Y-92656198D01*
X210793248Y-92658882D01*
X210638747Y-92771134D01*
X210634326Y-92776044D01*
X210634325Y-92776045D01*
X210620562Y-92791331D01*
X210510960Y-92913056D01*
X210473407Y-92978099D01*
X210432880Y-93048295D01*
X210415473Y-93078444D01*
X210356458Y-93260072D01*
X210336496Y-93450000D01*
X210356458Y-93639928D01*
X210358498Y-93646206D01*
X210379023Y-93709377D01*
X210381050Y-93780345D01*
X210344388Y-93841143D01*
X210310439Y-93863419D01*
X210253248Y-93888882D01*
X210247907Y-93892762D01*
X210247906Y-93892763D01*
X210215593Y-93916240D01*
X210098747Y-94001134D01*
X210094326Y-94006044D01*
X210094325Y-94006045D01*
X210039934Y-94066453D01*
X209970960Y-94143056D01*
X209875473Y-94308444D01*
X209816458Y-94490072D01*
X209796496Y-94680000D01*
X207073773Y-94680000D01*
X207082696Y-94595106D01*
X207082006Y-94588541D01*
X207063424Y-94411741D01*
X207063424Y-94411739D01*
X207062734Y-94405178D01*
X207003719Y-94223550D01*
X206908232Y-94058162D01*
X206897732Y-94046500D01*
X206784867Y-93921151D01*
X206784866Y-93921150D01*
X206780445Y-93916240D01*
X206625944Y-93803988D01*
X206619916Y-93801304D01*
X206619914Y-93801303D01*
X206457511Y-93728997D01*
X206457510Y-93728997D01*
X206451480Y-93726312D01*
X206358080Y-93706459D01*
X206271136Y-93687978D01*
X206271131Y-93687978D01*
X206264679Y-93686606D01*
X206073705Y-93686606D01*
X206036234Y-93694571D01*
X205965445Y-93689170D01*
X205916404Y-93655638D01*
X205850711Y-93582678D01*
X205819995Y-93518672D01*
X205819039Y-93485200D01*
X205837814Y-93306565D01*
X205838504Y-93300000D01*
X205837814Y-93293435D01*
X205819232Y-93116635D01*
X205819232Y-93116633D01*
X205818542Y-93110072D01*
X205759527Y-92928444D01*
X205715257Y-92851766D01*
X205698520Y-92782771D01*
X205721741Y-92715679D01*
X205730741Y-92704457D01*
X205809621Y-92616852D01*
X205809622Y-92616851D01*
X205814040Y-92611944D01*
X205909527Y-92446556D01*
X205968542Y-92264928D01*
X205988504Y-92075000D01*
X205975366Y-91950000D01*
X206636496Y-91950000D01*
X206656458Y-92139928D01*
X206715473Y-92321556D01*
X206718776Y-92327278D01*
X206718777Y-92327279D01*
X206731292Y-92348955D01*
X206810960Y-92486944D01*
X206815378Y-92491851D01*
X206815379Y-92491852D01*
X206928207Y-92617160D01*
X206938747Y-92628866D01*
X206996110Y-92670543D01*
X207075884Y-92728502D01*
X207093248Y-92741118D01*
X207099276Y-92743802D01*
X207099278Y-92743803D01*
X207261681Y-92816109D01*
X207267712Y-92818794D01*
X207359560Y-92838317D01*
X207448056Y-92857128D01*
X207448061Y-92857128D01*
X207454513Y-92858500D01*
X207645487Y-92858500D01*
X207651939Y-92857128D01*
X207651944Y-92857128D01*
X207740440Y-92838317D01*
X207832288Y-92818794D01*
X207838319Y-92816109D01*
X208000722Y-92743803D01*
X208000724Y-92743802D01*
X208006752Y-92741118D01*
X208024117Y-92728502D01*
X208103890Y-92670543D01*
X208161253Y-92628866D01*
X208171793Y-92617160D01*
X208284621Y-92491852D01*
X208284622Y-92491851D01*
X208289040Y-92486944D01*
X208368708Y-92348955D01*
X208381223Y-92327279D01*
X208381224Y-92327278D01*
X208384527Y-92321556D01*
X208443542Y-92139928D01*
X208463504Y-91950000D01*
X208447739Y-91800000D01*
X208444232Y-91766635D01*
X208444232Y-91766633D01*
X208443542Y-91760072D01*
X208384527Y-91578444D01*
X208358187Y-91532821D01*
X208334408Y-91491635D01*
X208289040Y-91413056D01*
X208273804Y-91396134D01*
X208165675Y-91276045D01*
X208165674Y-91276044D01*
X208161253Y-91271134D01*
X208054804Y-91193794D01*
X208012094Y-91162763D01*
X208012093Y-91162762D01*
X208006752Y-91158882D01*
X208000724Y-91156198D01*
X208000722Y-91156197D01*
X207838319Y-91083891D01*
X207838318Y-91083891D01*
X207832288Y-91081206D01*
X207738887Y-91061353D01*
X207651944Y-91042872D01*
X207651939Y-91042872D01*
X207645487Y-91041500D01*
X207454513Y-91041500D01*
X207448061Y-91042872D01*
X207448056Y-91042872D01*
X207361113Y-91061353D01*
X207267712Y-91081206D01*
X207261682Y-91083891D01*
X207261681Y-91083891D01*
X207099278Y-91156197D01*
X207099276Y-91156198D01*
X207093248Y-91158882D01*
X207087907Y-91162762D01*
X207087906Y-91162763D01*
X207045196Y-91193794D01*
X206938747Y-91271134D01*
X206934326Y-91276044D01*
X206934325Y-91276045D01*
X206826197Y-91396134D01*
X206810960Y-91413056D01*
X206765592Y-91491635D01*
X206741814Y-91532821D01*
X206715473Y-91578444D01*
X206656458Y-91760072D01*
X206655768Y-91766633D01*
X206655768Y-91766635D01*
X206652261Y-91800000D01*
X206636496Y-91950000D01*
X205975366Y-91950000D01*
X205968542Y-91885072D01*
X205909527Y-91703444D01*
X205814040Y-91538056D01*
X205809327Y-91532821D01*
X205690675Y-91401045D01*
X205690674Y-91401044D01*
X205686253Y-91396134D01*
X205558677Y-91303444D01*
X205537094Y-91287763D01*
X205537093Y-91287762D01*
X205531752Y-91283882D01*
X205525724Y-91281198D01*
X205525722Y-91281197D01*
X205363319Y-91208891D01*
X205363318Y-91208891D01*
X205357288Y-91206206D01*
X205263887Y-91186353D01*
X205176944Y-91167872D01*
X205176939Y-91167872D01*
X205170487Y-91166500D01*
X204979513Y-91166500D01*
X204973061Y-91167872D01*
X204973056Y-91167872D01*
X204886113Y-91186353D01*
X204792712Y-91206206D01*
X204786682Y-91208891D01*
X204786681Y-91208891D01*
X204624278Y-91281197D01*
X204624276Y-91281198D01*
X204618248Y-91283882D01*
X204612907Y-91287762D01*
X204612906Y-91287763D01*
X204591323Y-91303444D01*
X204463747Y-91396134D01*
X204459326Y-91401044D01*
X204459325Y-91401045D01*
X204340674Y-91532821D01*
X204335960Y-91538056D01*
X204240473Y-91703444D01*
X204181458Y-91885072D01*
X204161496Y-92075000D01*
X204181458Y-92264928D01*
X204240473Y-92446556D01*
X204260490Y-92481226D01*
X204284743Y-92523234D01*
X204301480Y-92592229D01*
X204278259Y-92659321D01*
X204269259Y-92670543D01*
X204209208Y-92737237D01*
X204185960Y-92763056D01*
X204135696Y-92850116D01*
X204099390Y-92913000D01*
X204090473Y-92928444D01*
X204031458Y-93110072D01*
X204030768Y-93116633D01*
X204030768Y-93116635D01*
X204012186Y-93293435D01*
X204011496Y-93300000D01*
X204012186Y-93306565D01*
X204028382Y-93460657D01*
X204031458Y-93489928D01*
X204090473Y-93671556D01*
X204185960Y-93836944D01*
X204190378Y-93841851D01*
X204190379Y-93841852D01*
X204304839Y-93968973D01*
X204335557Y-94032980D01*
X204336513Y-94066453D01*
X204319290Y-94230323D01*
X204292277Y-94295980D01*
X204234055Y-94336610D01*
X204193980Y-94343153D01*
X204041247Y-94343153D01*
X203973126Y-94323151D01*
X203952152Y-94306248D01*
X201497122Y-91851217D01*
X201463096Y-91788905D01*
X201460907Y-91775292D01*
X201444232Y-91616635D01*
X201444232Y-91616633D01*
X201443542Y-91610072D01*
X201384527Y-91428444D01*
X201289040Y-91263056D01*
X201261193Y-91232128D01*
X201165675Y-91126045D01*
X201165674Y-91126044D01*
X201161253Y-91121134D01*
X201046882Y-91038038D01*
X201012094Y-91012763D01*
X201012093Y-91012762D01*
X201006752Y-91008882D01*
X201000724Y-91006198D01*
X201000722Y-91006197D01*
X200838319Y-90933891D01*
X200838318Y-90933891D01*
X200832288Y-90931206D01*
X200738888Y-90911353D01*
X200651944Y-90892872D01*
X200651939Y-90892872D01*
X200645487Y-90891500D01*
X200454513Y-90891500D01*
X200448061Y-90892872D01*
X200448056Y-90892872D01*
X200361112Y-90911353D01*
X200267712Y-90931206D01*
X200261682Y-90933891D01*
X200261681Y-90933891D01*
X200099278Y-91006197D01*
X200099276Y-91006198D01*
X200093248Y-91008882D01*
X200079606Y-91018794D01*
X200063827Y-91030258D01*
X199996960Y-91054117D01*
X199927808Y-91038038D01*
X199896129Y-91012633D01*
X199840675Y-90951045D01*
X199840674Y-90951044D01*
X199836253Y-90946134D01*
X199681752Y-90833882D01*
X199675724Y-90831198D01*
X199675722Y-90831197D01*
X199513319Y-90758891D01*
X199513318Y-90758891D01*
X199507288Y-90756206D01*
X199413887Y-90736353D01*
X199326944Y-90717872D01*
X199326939Y-90717872D01*
X199320487Y-90716500D01*
X199129513Y-90716500D01*
X199123061Y-90717872D01*
X199123056Y-90717872D01*
X199036113Y-90736353D01*
X198942712Y-90756206D01*
X198936682Y-90758891D01*
X198936681Y-90758891D01*
X198774278Y-90831197D01*
X198774276Y-90831198D01*
X198768248Y-90833882D01*
X198694088Y-90887763D01*
X198627152Y-90936395D01*
X198560285Y-90960253D01*
X198491133Y-90944173D01*
X198479030Y-90936395D01*
X198412094Y-90887763D01*
X198412093Y-90887762D01*
X198406752Y-90883882D01*
X198400724Y-90881198D01*
X198400722Y-90881197D01*
X198238319Y-90808891D01*
X198238318Y-90808891D01*
X198232288Y-90806206D01*
X198138888Y-90786353D01*
X198051944Y-90767872D01*
X198051939Y-90767872D01*
X198045487Y-90766500D01*
X197854513Y-90766500D01*
X197848061Y-90767872D01*
X197848056Y-90767872D01*
X197761112Y-90786353D01*
X197667712Y-90806206D01*
X197661682Y-90808891D01*
X197661681Y-90808891D01*
X197499278Y-90881197D01*
X197499276Y-90881198D01*
X197493248Y-90883882D01*
X197487907Y-90887762D01*
X197487906Y-90887763D01*
X197437843Y-90924136D01*
X197338747Y-90996134D01*
X197334326Y-91001044D01*
X197334325Y-91001045D01*
X197226197Y-91121134D01*
X197210960Y-91138056D01*
X197165891Y-91216118D01*
X197122595Y-91291109D01*
X197115473Y-91303444D01*
X197056458Y-91485072D01*
X197036496Y-91675000D01*
X175647044Y-91675000D01*
X175645478Y-90325000D01*
X184511496Y-90325000D01*
X184512186Y-90331565D01*
X184528972Y-90491272D01*
X184531458Y-90514928D01*
X184590473Y-90696556D01*
X184593776Y-90702278D01*
X184593777Y-90702279D01*
X184602780Y-90717872D01*
X184685960Y-90861944D01*
X184690378Y-90866851D01*
X184690379Y-90866852D01*
X184758269Y-90942251D01*
X184813747Y-91003866D01*
X184860781Y-91038038D01*
X184951385Y-91103866D01*
X184968248Y-91116118D01*
X184974276Y-91118802D01*
X184974278Y-91118803D01*
X185081408Y-91166500D01*
X185142712Y-91193794D01*
X185229479Y-91212237D01*
X185323056Y-91232128D01*
X185323061Y-91232128D01*
X185329513Y-91233500D01*
X185520487Y-91233500D01*
X185526939Y-91232128D01*
X185526944Y-91232128D01*
X185620521Y-91212237D01*
X185707288Y-91193794D01*
X185768592Y-91166500D01*
X185875722Y-91118803D01*
X185875724Y-91118802D01*
X185881752Y-91116118D01*
X185898616Y-91103866D01*
X185989219Y-91038038D01*
X186036253Y-91003866D01*
X186091731Y-90942251D01*
X186159621Y-90866852D01*
X186159622Y-90866851D01*
X186164040Y-90861944D01*
X186247220Y-90717872D01*
X186256223Y-90702279D01*
X186256224Y-90702278D01*
X186259527Y-90696556D01*
X186307186Y-90549878D01*
X186347260Y-90491272D01*
X186412656Y-90463635D01*
X186482613Y-90475742D01*
X186534919Y-90523748D01*
X186552329Y-90575643D01*
X186556458Y-90614928D01*
X186615473Y-90796556D01*
X186618776Y-90802278D01*
X186618777Y-90802279D01*
X186631292Y-90823955D01*
X186710960Y-90961944D01*
X186715378Y-90966851D01*
X186715379Y-90966852D01*
X186818344Y-91081206D01*
X186838747Y-91103866D01*
X186993248Y-91216118D01*
X186999276Y-91218802D01*
X186999278Y-91218803D01*
X187145449Y-91283882D01*
X187167712Y-91293794D01*
X187242680Y-91309729D01*
X187348056Y-91332128D01*
X187348061Y-91332128D01*
X187354513Y-91333500D01*
X187545487Y-91333500D01*
X187551939Y-91332128D01*
X187551944Y-91332128D01*
X187657320Y-91309729D01*
X187732288Y-91293794D01*
X187754551Y-91283882D01*
X187900722Y-91218803D01*
X187900724Y-91218802D01*
X187906752Y-91216118D01*
X188061253Y-91103866D01*
X188081656Y-91081206D01*
X188184621Y-90966852D01*
X188184622Y-90966851D01*
X188189040Y-90961944D01*
X188268708Y-90823955D01*
X188281223Y-90802279D01*
X188281224Y-90802278D01*
X188284527Y-90796556D01*
X188343542Y-90614928D01*
X188351018Y-90543803D01*
X188362814Y-90431565D01*
X188363504Y-90425000D01*
X188359354Y-90385518D01*
X188344232Y-90241635D01*
X188344232Y-90241633D01*
X188343542Y-90235072D01*
X188284527Y-90053444D01*
X188189040Y-89888056D01*
X188064734Y-89750000D01*
X205711496Y-89750000D01*
X205731458Y-89939928D01*
X205790473Y-90121556D01*
X205885960Y-90286944D01*
X205890378Y-90291851D01*
X205890379Y-90291852D01*
X205933667Y-90339928D01*
X206013747Y-90428866D01*
X206078266Y-90475742D01*
X206140842Y-90521206D01*
X206168248Y-90541118D01*
X206174276Y-90543802D01*
X206174278Y-90543803D01*
X206336681Y-90616109D01*
X206342712Y-90618794D01*
X206436113Y-90638647D01*
X206523056Y-90657128D01*
X206523061Y-90657128D01*
X206529513Y-90658500D01*
X206720487Y-90658500D01*
X206726939Y-90657128D01*
X206726944Y-90657128D01*
X206813887Y-90638647D01*
X206907288Y-90618794D01*
X206913319Y-90616109D01*
X207075722Y-90543803D01*
X207075724Y-90543802D01*
X207081752Y-90541118D01*
X207109159Y-90521206D01*
X207171734Y-90475742D01*
X207236253Y-90428866D01*
X207316333Y-90339928D01*
X207359621Y-90291852D01*
X207359622Y-90291851D01*
X207364040Y-90286944D01*
X207443105Y-90150000D01*
X209386496Y-90150000D01*
X209406458Y-90339928D01*
X209465473Y-90521556D01*
X209560960Y-90686944D01*
X209565378Y-90691851D01*
X209565379Y-90691852D01*
X209670761Y-90808891D01*
X209688747Y-90828866D01*
X209843248Y-90941118D01*
X209849276Y-90943802D01*
X209849278Y-90943803D01*
X209992904Y-91007749D01*
X210017712Y-91018794D01*
X210108247Y-91038038D01*
X210198056Y-91057128D01*
X210198061Y-91057128D01*
X210204513Y-91058500D01*
X210395487Y-91058500D01*
X210401939Y-91057128D01*
X210401944Y-91057128D01*
X210491753Y-91038038D01*
X210582288Y-91018794D01*
X210607096Y-91007749D01*
X210750722Y-90943803D01*
X210750724Y-90943802D01*
X210756752Y-90941118D01*
X210911253Y-90828866D01*
X210929239Y-90808891D01*
X211034621Y-90691852D01*
X211034622Y-90691851D01*
X211039040Y-90686944D01*
X211134527Y-90521556D01*
X211193542Y-90339928D01*
X211213504Y-90150000D01*
X211193542Y-89960072D01*
X211134527Y-89778444D01*
X211039040Y-89613056D01*
X210997243Y-89566635D01*
X210915675Y-89476045D01*
X210915674Y-89476044D01*
X210911253Y-89471134D01*
X210771713Y-89369752D01*
X210762094Y-89362763D01*
X210762093Y-89362762D01*
X210756752Y-89358882D01*
X210750724Y-89356198D01*
X210750722Y-89356197D01*
X210588319Y-89283891D01*
X210588318Y-89283891D01*
X210582288Y-89281206D01*
X210488888Y-89261353D01*
X210401944Y-89242872D01*
X210401939Y-89242872D01*
X210395487Y-89241500D01*
X210204513Y-89241500D01*
X210198061Y-89242872D01*
X210198056Y-89242872D01*
X210111112Y-89261353D01*
X210017712Y-89281206D01*
X210011682Y-89283891D01*
X210011681Y-89283891D01*
X209849278Y-89356197D01*
X209849276Y-89356198D01*
X209843248Y-89358882D01*
X209837907Y-89362762D01*
X209837906Y-89362763D01*
X209828287Y-89369752D01*
X209688747Y-89471134D01*
X209684326Y-89476044D01*
X209684325Y-89476045D01*
X209602758Y-89566635D01*
X209560960Y-89613056D01*
X209465473Y-89778444D01*
X209406458Y-89960072D01*
X209386496Y-90150000D01*
X207443105Y-90150000D01*
X207459527Y-90121556D01*
X207518542Y-89939928D01*
X207538504Y-89750000D01*
X207526300Y-89633882D01*
X207519232Y-89566635D01*
X207519232Y-89566633D01*
X207518542Y-89560072D01*
X207459527Y-89378444D01*
X207364040Y-89213056D01*
X207358297Y-89206677D01*
X207240675Y-89076045D01*
X207240674Y-89076044D01*
X207236253Y-89071134D01*
X207081752Y-88958882D01*
X207075724Y-88956198D01*
X207075722Y-88956197D01*
X206913319Y-88883891D01*
X206913318Y-88883891D01*
X206907288Y-88881206D01*
X206813887Y-88861353D01*
X206726944Y-88842872D01*
X206726939Y-88842872D01*
X206720487Y-88841500D01*
X206529513Y-88841500D01*
X206523061Y-88842872D01*
X206523056Y-88842872D01*
X206436113Y-88861353D01*
X206342712Y-88881206D01*
X206336682Y-88883891D01*
X206336681Y-88883891D01*
X206174278Y-88956197D01*
X206174276Y-88956198D01*
X206168248Y-88958882D01*
X206013747Y-89071134D01*
X206009326Y-89076044D01*
X206009325Y-89076045D01*
X205891704Y-89206677D01*
X205885960Y-89213056D01*
X205790473Y-89378444D01*
X205731458Y-89560072D01*
X205730768Y-89566633D01*
X205730768Y-89566635D01*
X205723700Y-89633882D01*
X205711496Y-89750000D01*
X188064734Y-89750000D01*
X188061253Y-89746134D01*
X187927659Y-89649072D01*
X187912094Y-89637763D01*
X187912093Y-89637762D01*
X187906752Y-89633882D01*
X187900724Y-89631198D01*
X187900722Y-89631197D01*
X187738319Y-89558891D01*
X187738318Y-89558891D01*
X187732288Y-89556206D01*
X187638887Y-89536353D01*
X187551944Y-89517872D01*
X187551939Y-89517872D01*
X187545487Y-89516500D01*
X187354513Y-89516500D01*
X187348061Y-89517872D01*
X187348056Y-89517872D01*
X187261112Y-89536353D01*
X187167712Y-89556206D01*
X187161682Y-89558891D01*
X187161681Y-89558891D01*
X186999278Y-89631197D01*
X186999276Y-89631198D01*
X186993248Y-89633882D01*
X186987907Y-89637762D01*
X186987906Y-89637763D01*
X186972341Y-89649072D01*
X186838747Y-89746134D01*
X186710960Y-89888056D01*
X186615473Y-90053444D01*
X186613431Y-90059729D01*
X186567814Y-90200122D01*
X186527740Y-90258728D01*
X186462344Y-90286365D01*
X186392387Y-90274258D01*
X186340081Y-90226252D01*
X186322671Y-90174357D01*
X186319232Y-90141635D01*
X186319232Y-90141633D01*
X186318542Y-90135072D01*
X186259527Y-89953444D01*
X186164040Y-89788056D01*
X186155386Y-89778444D01*
X186040675Y-89651045D01*
X186040674Y-89651044D01*
X186036253Y-89646134D01*
X185937157Y-89574136D01*
X185887094Y-89537763D01*
X185887093Y-89537762D01*
X185881752Y-89533882D01*
X185875724Y-89531198D01*
X185875722Y-89531197D01*
X185713319Y-89458891D01*
X185713318Y-89458891D01*
X185707288Y-89456206D01*
X185613888Y-89436353D01*
X185526944Y-89417872D01*
X185526939Y-89417872D01*
X185520487Y-89416500D01*
X185329513Y-89416500D01*
X185323061Y-89417872D01*
X185323056Y-89417872D01*
X185236112Y-89436353D01*
X185142712Y-89456206D01*
X185136682Y-89458891D01*
X185136681Y-89458891D01*
X184974278Y-89531197D01*
X184974276Y-89531198D01*
X184968248Y-89533882D01*
X184962907Y-89537762D01*
X184962906Y-89537763D01*
X184912843Y-89574136D01*
X184813747Y-89646134D01*
X184809326Y-89651044D01*
X184809325Y-89651045D01*
X184694615Y-89778444D01*
X184685960Y-89788056D01*
X184590473Y-89953444D01*
X184531458Y-90135072D01*
X184530768Y-90141633D01*
X184530768Y-90141635D01*
X184520948Y-90235072D01*
X184511496Y-90325000D01*
X175645478Y-90325000D01*
X175642920Y-88120000D01*
X192386496Y-88120000D01*
X192406458Y-88309928D01*
X192465473Y-88491556D01*
X192560960Y-88656944D01*
X192688747Y-88798866D01*
X192843248Y-88911118D01*
X192849276Y-88913802D01*
X192849278Y-88913803D01*
X192950528Y-88958882D01*
X193017712Y-88988794D01*
X193111112Y-89008647D01*
X193198056Y-89027128D01*
X193198061Y-89027128D01*
X193204513Y-89028500D01*
X193395487Y-89028500D01*
X193401939Y-89027128D01*
X193401944Y-89027128D01*
X193488887Y-89008647D01*
X193582288Y-88988794D01*
X193649472Y-88958882D01*
X193750722Y-88913803D01*
X193750724Y-88913802D01*
X193756752Y-88911118D01*
X193911253Y-88798866D01*
X194039040Y-88656944D01*
X194134527Y-88491556D01*
X194193542Y-88309928D01*
X194213504Y-88120000D01*
X194211927Y-88105000D01*
X223161681Y-88105000D01*
X223180928Y-88349557D01*
X223238195Y-88588092D01*
X223332073Y-88814732D01*
X223415262Y-88950485D01*
X223438738Y-88988794D01*
X223460248Y-89023896D01*
X223619567Y-89210433D01*
X223623323Y-89213641D01*
X223705575Y-89283891D01*
X223806104Y-89369752D01*
X223810327Y-89372340D01*
X223810330Y-89372342D01*
X223820288Y-89378444D01*
X224015268Y-89497927D01*
X224111440Y-89537763D01*
X224237335Y-89589911D01*
X224237337Y-89589912D01*
X224241908Y-89591805D01*
X224309982Y-89608148D01*
X224475630Y-89647917D01*
X224475636Y-89647918D01*
X224480443Y-89649072D01*
X224725000Y-89668319D01*
X224969557Y-89649072D01*
X224974364Y-89647918D01*
X224974370Y-89647917D01*
X225140018Y-89608148D01*
X225208092Y-89591805D01*
X225212663Y-89589912D01*
X225212665Y-89589911D01*
X225338560Y-89537763D01*
X225434732Y-89497927D01*
X225629712Y-89378444D01*
X225639670Y-89372342D01*
X225639673Y-89372340D01*
X225643896Y-89369752D01*
X225744426Y-89283891D01*
X225826677Y-89213641D01*
X225830433Y-89210433D01*
X225989752Y-89023896D01*
X226011263Y-88988794D01*
X226034738Y-88950485D01*
X226117927Y-88814732D01*
X226211805Y-88588092D01*
X226269072Y-88349557D01*
X226288319Y-88105000D01*
X226269072Y-87860443D01*
X226243693Y-87754729D01*
X226212960Y-87626720D01*
X226211805Y-87621908D01*
X226117927Y-87395268D01*
X226028806Y-87249834D01*
X225992342Y-87190330D01*
X225992340Y-87190327D01*
X225989752Y-87186104D01*
X225883709Y-87061944D01*
X225833641Y-87003323D01*
X225830433Y-86999567D01*
X225749931Y-86930811D01*
X225711122Y-86871360D01*
X225710616Y-86800365D01*
X225749931Y-86739189D01*
X225826677Y-86673641D01*
X225830433Y-86670433D01*
X225855029Y-86641635D01*
X225986535Y-86487663D01*
X225986537Y-86487660D01*
X225989752Y-86483896D01*
X226004562Y-86459729D01*
X226076929Y-86341635D01*
X226117927Y-86274732D01*
X226211805Y-86048092D01*
X226243068Y-85917872D01*
X226267917Y-85814370D01*
X226267918Y-85814364D01*
X226269072Y-85809557D01*
X226288319Y-85565000D01*
X226269072Y-85320443D01*
X226254272Y-85258794D01*
X226212960Y-85086720D01*
X226211805Y-85081908D01*
X226117927Y-84855268D01*
X226009168Y-84677788D01*
X225990630Y-84609255D01*
X226012087Y-84541578D01*
X226041035Y-84511128D01*
X226066222Y-84492251D01*
X226138261Y-84438261D01*
X226225615Y-84321705D01*
X226276745Y-84185316D01*
X226283500Y-84123134D01*
X226283500Y-81926866D01*
X226276745Y-81864684D01*
X226225615Y-81728295D01*
X226138261Y-81611739D01*
X226021705Y-81524385D01*
X225885316Y-81473255D01*
X225823134Y-81466500D01*
X223626866Y-81466500D01*
X223564684Y-81473255D01*
X223428295Y-81524385D01*
X223311739Y-81611739D01*
X223224385Y-81728295D01*
X223173255Y-81864684D01*
X223166500Y-81926866D01*
X223166500Y-84123134D01*
X223173255Y-84185316D01*
X223224385Y-84321705D01*
X223311739Y-84438261D01*
X223383778Y-84492251D01*
X223408965Y-84511128D01*
X223451479Y-84567988D01*
X223456504Y-84638806D01*
X223440832Y-84677788D01*
X223332073Y-84855268D01*
X223238195Y-85081908D01*
X223237040Y-85086720D01*
X223195729Y-85258794D01*
X223180928Y-85320443D01*
X223161681Y-85565000D01*
X223180928Y-85809557D01*
X223182082Y-85814364D01*
X223182083Y-85814370D01*
X223206932Y-85917872D01*
X223238195Y-86048092D01*
X223332073Y-86274732D01*
X223373071Y-86341635D01*
X223445439Y-86459729D01*
X223460248Y-86483896D01*
X223463463Y-86487660D01*
X223463465Y-86487663D01*
X223594971Y-86641635D01*
X223619567Y-86670433D01*
X223623323Y-86673641D01*
X223700069Y-86739189D01*
X223738878Y-86798640D01*
X223739384Y-86869635D01*
X223700069Y-86930811D01*
X223619567Y-86999567D01*
X223616359Y-87003323D01*
X223566292Y-87061944D01*
X223460248Y-87186104D01*
X223457660Y-87190327D01*
X223457658Y-87190330D01*
X223421194Y-87249834D01*
X223332073Y-87395268D01*
X223238195Y-87621908D01*
X223237040Y-87626720D01*
X223206308Y-87754729D01*
X223180928Y-87860443D01*
X223161681Y-88105000D01*
X194211927Y-88105000D01*
X194193542Y-87930072D01*
X194134527Y-87748444D01*
X194039040Y-87583056D01*
X193911253Y-87441134D01*
X193756752Y-87328882D01*
X193750724Y-87326198D01*
X193750722Y-87326197D01*
X193588319Y-87253891D01*
X193588318Y-87253891D01*
X193582288Y-87251206D01*
X193488887Y-87231353D01*
X193401944Y-87212872D01*
X193401939Y-87212872D01*
X193395487Y-87211500D01*
X193204513Y-87211500D01*
X193198061Y-87212872D01*
X193198056Y-87212872D01*
X193111112Y-87231353D01*
X193017712Y-87251206D01*
X193011682Y-87253891D01*
X193011681Y-87253891D01*
X192849278Y-87326197D01*
X192849276Y-87326198D01*
X192843248Y-87328882D01*
X192688747Y-87441134D01*
X192560960Y-87583056D01*
X192465473Y-87748444D01*
X192406458Y-87930072D01*
X192386496Y-88120000D01*
X175642920Y-88120000D01*
X175642619Y-87860443D01*
X175641418Y-86825000D01*
X202786496Y-86825000D01*
X202787186Y-86831565D01*
X202804844Y-86999567D01*
X202806458Y-87014928D01*
X202865473Y-87196556D01*
X202960960Y-87361944D01*
X203088747Y-87503866D01*
X203243248Y-87616118D01*
X203249276Y-87618802D01*
X203249278Y-87618803D01*
X203411681Y-87691109D01*
X203417712Y-87693794D01*
X203511113Y-87713647D01*
X203598056Y-87732128D01*
X203598061Y-87732128D01*
X203604513Y-87733500D01*
X203795487Y-87733500D01*
X203801939Y-87732128D01*
X203801944Y-87732128D01*
X203888887Y-87713647D01*
X203982288Y-87693794D01*
X203988319Y-87691109D01*
X204150722Y-87618803D01*
X204150724Y-87618802D01*
X204156752Y-87616118D01*
X204311253Y-87503866D01*
X204439040Y-87361944D01*
X204534527Y-87196556D01*
X204593542Y-87014928D01*
X204595157Y-86999567D01*
X204612814Y-86831565D01*
X204613504Y-86825000D01*
X204610915Y-86800365D01*
X204594232Y-86641635D01*
X204594232Y-86641633D01*
X204593542Y-86635072D01*
X204557777Y-86525000D01*
X206686496Y-86525000D01*
X206687186Y-86531565D01*
X206702119Y-86673641D01*
X206706458Y-86714928D01*
X206765473Y-86896556D01*
X206860960Y-87061944D01*
X206988747Y-87203866D01*
X207143248Y-87316118D01*
X207149276Y-87318802D01*
X207149278Y-87318803D01*
X207311681Y-87391109D01*
X207317712Y-87393794D01*
X207411113Y-87413647D01*
X207498056Y-87432128D01*
X207498061Y-87432128D01*
X207504513Y-87433500D01*
X207695487Y-87433500D01*
X207701939Y-87432128D01*
X207701944Y-87432128D01*
X207788887Y-87413647D01*
X207882288Y-87393794D01*
X207888319Y-87391109D01*
X208050722Y-87318803D01*
X208050724Y-87318802D01*
X208056752Y-87316118D01*
X208211253Y-87203866D01*
X208339040Y-87061944D01*
X208434527Y-86896556D01*
X208493542Y-86714928D01*
X208497882Y-86673641D01*
X208512814Y-86531565D01*
X208513504Y-86525000D01*
X208493542Y-86335072D01*
X208434527Y-86153444D01*
X208339040Y-85988056D01*
X208246625Y-85885418D01*
X208215675Y-85851045D01*
X208215674Y-85851044D01*
X208211253Y-85846134D01*
X208056752Y-85733882D01*
X208050724Y-85731198D01*
X208050722Y-85731197D01*
X207888319Y-85658891D01*
X207888318Y-85658891D01*
X207882288Y-85656206D01*
X207788887Y-85636353D01*
X207701944Y-85617872D01*
X207701939Y-85617872D01*
X207695487Y-85616500D01*
X207504513Y-85616500D01*
X207498061Y-85617872D01*
X207498056Y-85617872D01*
X207411113Y-85636353D01*
X207317712Y-85656206D01*
X207311682Y-85658891D01*
X207311681Y-85658891D01*
X207149278Y-85731197D01*
X207149276Y-85731198D01*
X207143248Y-85733882D01*
X206988747Y-85846134D01*
X206984326Y-85851044D01*
X206984325Y-85851045D01*
X206953376Y-85885418D01*
X206860960Y-85988056D01*
X206765473Y-86153444D01*
X206706458Y-86335072D01*
X206686496Y-86525000D01*
X204557777Y-86525000D01*
X204534527Y-86453444D01*
X204439040Y-86288056D01*
X204311253Y-86146134D01*
X204212157Y-86074136D01*
X204162094Y-86037763D01*
X204162093Y-86037762D01*
X204156752Y-86033882D01*
X204150724Y-86031198D01*
X204150722Y-86031197D01*
X203988319Y-85958891D01*
X203988318Y-85958891D01*
X203982288Y-85956206D01*
X203888887Y-85936353D01*
X203801944Y-85917872D01*
X203801939Y-85917872D01*
X203795487Y-85916500D01*
X203604513Y-85916500D01*
X203598061Y-85917872D01*
X203598056Y-85917872D01*
X203511112Y-85936353D01*
X203417712Y-85956206D01*
X203411682Y-85958891D01*
X203411681Y-85958891D01*
X203249278Y-86031197D01*
X203249276Y-86031198D01*
X203243248Y-86033882D01*
X203237907Y-86037762D01*
X203237906Y-86037763D01*
X203187843Y-86074136D01*
X203088747Y-86146134D01*
X202960960Y-86288056D01*
X202865473Y-86453444D01*
X202806458Y-86635072D01*
X202805768Y-86641633D01*
X202805768Y-86641635D01*
X202789085Y-86800365D01*
X202786496Y-86825000D01*
X175641418Y-86825000D01*
X175638593Y-84390000D01*
X190086496Y-84390000D01*
X190087186Y-84396565D01*
X190104775Y-84563911D01*
X190106458Y-84579928D01*
X190165473Y-84761556D01*
X190260960Y-84926944D01*
X190265378Y-84931851D01*
X190265379Y-84931852D01*
X190319208Y-84991635D01*
X190388747Y-85068866D01*
X190543248Y-85181118D01*
X190549276Y-85183802D01*
X190549278Y-85183803D01*
X190711681Y-85256109D01*
X190717712Y-85258794D01*
X190811112Y-85278647D01*
X190898056Y-85297128D01*
X190898061Y-85297128D01*
X190904513Y-85298500D01*
X191095487Y-85298500D01*
X191101939Y-85297128D01*
X191101944Y-85297128D01*
X191188887Y-85278647D01*
X191282288Y-85258794D01*
X191288319Y-85256109D01*
X191450722Y-85183803D01*
X191450724Y-85183802D01*
X191456752Y-85181118D01*
X191465173Y-85175000D01*
X217561496Y-85175000D01*
X217562186Y-85181565D01*
X217576277Y-85315630D01*
X217581458Y-85364928D01*
X217640473Y-85546556D01*
X217735960Y-85711944D01*
X217834527Y-85821414D01*
X217865242Y-85885418D01*
X217856479Y-85955871D01*
X217842824Y-85979783D01*
X217840379Y-85983148D01*
X217835960Y-85988056D01*
X217740473Y-86153444D01*
X217681458Y-86335072D01*
X217661496Y-86525000D01*
X217662186Y-86531565D01*
X217677119Y-86673641D01*
X217681458Y-86714928D01*
X217740473Y-86896556D01*
X217835960Y-87061944D01*
X217963747Y-87203866D01*
X218118248Y-87316118D01*
X218124276Y-87318802D01*
X218124278Y-87318803D01*
X218286681Y-87391109D01*
X218292712Y-87393794D01*
X218386113Y-87413647D01*
X218473056Y-87432128D01*
X218473061Y-87432128D01*
X218479513Y-87433500D01*
X218670487Y-87433500D01*
X218676939Y-87432128D01*
X218676944Y-87432128D01*
X218763887Y-87413647D01*
X218857288Y-87393794D01*
X218863319Y-87391109D01*
X219025722Y-87318803D01*
X219025724Y-87318802D01*
X219031752Y-87316118D01*
X219186253Y-87203866D01*
X219314040Y-87061944D01*
X219409527Y-86896556D01*
X219468542Y-86714928D01*
X219472882Y-86673641D01*
X219487814Y-86531565D01*
X219488504Y-86525000D01*
X219468542Y-86335072D01*
X219409527Y-86153444D01*
X219314040Y-85988056D01*
X219215473Y-85878586D01*
X219184758Y-85814582D01*
X219193521Y-85744129D01*
X219207176Y-85720217D01*
X219209621Y-85716852D01*
X219214040Y-85711944D01*
X219309527Y-85546556D01*
X219368542Y-85364928D01*
X219373724Y-85315630D01*
X219387814Y-85181565D01*
X219388504Y-85175000D01*
X219368542Y-84985072D01*
X219309527Y-84803444D01*
X219214040Y-84638056D01*
X219188108Y-84609255D01*
X219090675Y-84501045D01*
X219090674Y-84501044D01*
X219086253Y-84496134D01*
X218931752Y-84383882D01*
X218925724Y-84381198D01*
X218925722Y-84381197D01*
X218763319Y-84308891D01*
X218763318Y-84308891D01*
X218757288Y-84306206D01*
X218663887Y-84286353D01*
X218576944Y-84267872D01*
X218576939Y-84267872D01*
X218570487Y-84266500D01*
X218379513Y-84266500D01*
X218373061Y-84267872D01*
X218373056Y-84267872D01*
X218286113Y-84286353D01*
X218192712Y-84306206D01*
X218186682Y-84308891D01*
X218186681Y-84308891D01*
X218024278Y-84381197D01*
X218024276Y-84381198D01*
X218018248Y-84383882D01*
X217863747Y-84496134D01*
X217859326Y-84501044D01*
X217859325Y-84501045D01*
X217761893Y-84609255D01*
X217735960Y-84638056D01*
X217640473Y-84803444D01*
X217581458Y-84985072D01*
X217561496Y-85175000D01*
X191465173Y-85175000D01*
X191611253Y-85068866D01*
X191680792Y-84991635D01*
X191734621Y-84931852D01*
X191734622Y-84931851D01*
X191739040Y-84926944D01*
X191834527Y-84761556D01*
X191893542Y-84579928D01*
X191895226Y-84563911D01*
X191912814Y-84396565D01*
X191913504Y-84390000D01*
X191893542Y-84200072D01*
X191834527Y-84018444D01*
X191739040Y-83853056D01*
X191653902Y-83758500D01*
X191615675Y-83716045D01*
X191615674Y-83716044D01*
X191611253Y-83711134D01*
X191456752Y-83598882D01*
X191450724Y-83596198D01*
X191450722Y-83596197D01*
X191288319Y-83523891D01*
X191288318Y-83523891D01*
X191282288Y-83521206D01*
X191188888Y-83501353D01*
X191101944Y-83482872D01*
X191101939Y-83482872D01*
X191095487Y-83481500D01*
X190904513Y-83481500D01*
X190898061Y-83482872D01*
X190898056Y-83482872D01*
X190811112Y-83501353D01*
X190717712Y-83521206D01*
X190711682Y-83523891D01*
X190711681Y-83523891D01*
X190549278Y-83596197D01*
X190549276Y-83596198D01*
X190543248Y-83598882D01*
X190388747Y-83711134D01*
X190384326Y-83716044D01*
X190384325Y-83716045D01*
X190346099Y-83758500D01*
X190260960Y-83853056D01*
X190165473Y-84018444D01*
X190106458Y-84200072D01*
X190086496Y-84390000D01*
X175638593Y-84390000D01*
X175636978Y-82998134D01*
X178791500Y-82998134D01*
X178798255Y-83060316D01*
X178849385Y-83196705D01*
X178936739Y-83313261D01*
X179053295Y-83400615D01*
X179189684Y-83451745D01*
X179251866Y-83458500D01*
X181048134Y-83458500D01*
X181110316Y-83451745D01*
X181246705Y-83400615D01*
X181363261Y-83313261D01*
X181450615Y-83196705D01*
X181472799Y-83137529D01*
X181494598Y-83079382D01*
X181537240Y-83022618D01*
X181603802Y-82997918D01*
X181673150Y-83013126D01*
X181707817Y-83041114D01*
X181736250Y-83073938D01*
X181908126Y-83216632D01*
X182101000Y-83329338D01*
X182309692Y-83409030D01*
X182314760Y-83410061D01*
X182314763Y-83410062D01*
X182422017Y-83431883D01*
X182528597Y-83453567D01*
X182533772Y-83453757D01*
X182533774Y-83453757D01*
X182746673Y-83461564D01*
X182746677Y-83461564D01*
X182751837Y-83461753D01*
X182756957Y-83461097D01*
X182756959Y-83461097D01*
X182968288Y-83434025D01*
X182968289Y-83434025D01*
X182973416Y-83433368D01*
X182978366Y-83431883D01*
X183182429Y-83370661D01*
X183182434Y-83370659D01*
X183187384Y-83369174D01*
X183387994Y-83270896D01*
X183569860Y-83141173D01*
X183728096Y-82983489D01*
X183858453Y-82802077D01*
X183859776Y-82803028D01*
X183906645Y-82759857D01*
X183976580Y-82747625D01*
X184042026Y-82775144D01*
X184069875Y-82806994D01*
X184129987Y-82905088D01*
X184276250Y-83073938D01*
X184448126Y-83216632D01*
X184641000Y-83329338D01*
X184849692Y-83409030D01*
X184854760Y-83410061D01*
X184854763Y-83410062D01*
X184962017Y-83431883D01*
X185068597Y-83453567D01*
X185073772Y-83453757D01*
X185073774Y-83453757D01*
X185286673Y-83461564D01*
X185286677Y-83461564D01*
X185291837Y-83461753D01*
X185296957Y-83461097D01*
X185296959Y-83461097D01*
X185508288Y-83434025D01*
X185508289Y-83434025D01*
X185513416Y-83433368D01*
X185518366Y-83431883D01*
X185722429Y-83370661D01*
X185722434Y-83370659D01*
X185727384Y-83369174D01*
X185927994Y-83270896D01*
X186109860Y-83141173D01*
X186268096Y-82983489D01*
X186398453Y-82802077D01*
X186399776Y-82803028D01*
X186446645Y-82759857D01*
X186516580Y-82747625D01*
X186582026Y-82775144D01*
X186609875Y-82806994D01*
X186669987Y-82905088D01*
X186816250Y-83073938D01*
X186988126Y-83216632D01*
X187181000Y-83329338D01*
X187389692Y-83409030D01*
X187394760Y-83410061D01*
X187394763Y-83410062D01*
X187502017Y-83431883D01*
X187608597Y-83453567D01*
X187613772Y-83453757D01*
X187613774Y-83453757D01*
X187826673Y-83461564D01*
X187826677Y-83461564D01*
X187831837Y-83461753D01*
X187836957Y-83461097D01*
X187836959Y-83461097D01*
X188048288Y-83434025D01*
X188048289Y-83434025D01*
X188053416Y-83433368D01*
X188058366Y-83431883D01*
X188262429Y-83370661D01*
X188262434Y-83370659D01*
X188267384Y-83369174D01*
X188467994Y-83270896D01*
X188649860Y-83141173D01*
X188808096Y-82983489D01*
X188938453Y-82802077D01*
X188959320Y-82759857D01*
X189035136Y-82606453D01*
X189035137Y-82606451D01*
X189037430Y-82601811D01*
X189102370Y-82388069D01*
X189131529Y-82166590D01*
X189133156Y-82100000D01*
X189114852Y-81877361D01*
X189060431Y-81660702D01*
X188971354Y-81455840D01*
X188897420Y-81341556D01*
X188852822Y-81272617D01*
X188852820Y-81272614D01*
X188850014Y-81268277D01*
X188699670Y-81103051D01*
X188695619Y-81099852D01*
X188695615Y-81099848D01*
X188531200Y-80970000D01*
X193246496Y-80970000D01*
X193247186Y-80976565D01*
X193263553Y-81132285D01*
X193266458Y-81159928D01*
X193325473Y-81341556D01*
X193420960Y-81506944D01*
X193425378Y-81511851D01*
X193425379Y-81511852D01*
X193544325Y-81643955D01*
X193548747Y-81648866D01*
X193703248Y-81761118D01*
X193709276Y-81763802D01*
X193709278Y-81763803D01*
X193871681Y-81836109D01*
X193877712Y-81838794D01*
X193964705Y-81857285D01*
X194058056Y-81877128D01*
X194058061Y-81877128D01*
X194064513Y-81878500D01*
X194255487Y-81878500D01*
X194261939Y-81877128D01*
X194261944Y-81877128D01*
X194355295Y-81857285D01*
X194442288Y-81838794D01*
X194448319Y-81836109D01*
X194610722Y-81763803D01*
X194610724Y-81763802D01*
X194616752Y-81761118D01*
X194771253Y-81648866D01*
X194775675Y-81643955D01*
X194837762Y-81575000D01*
X198286496Y-81575000D01*
X198287186Y-81581565D01*
X198305650Y-81757237D01*
X198306458Y-81764928D01*
X198365473Y-81946556D01*
X198368776Y-81952278D01*
X198368777Y-81952279D01*
X198385478Y-81981206D01*
X198460960Y-82111944D01*
X198465378Y-82116851D01*
X198465379Y-82116852D01*
X198513151Y-82169908D01*
X198588747Y-82253866D01*
X198743248Y-82366118D01*
X198749276Y-82368802D01*
X198749278Y-82368803D01*
X198911681Y-82441109D01*
X198917712Y-82443794D01*
X199011112Y-82463647D01*
X199098056Y-82482128D01*
X199098061Y-82482128D01*
X199104513Y-82483500D01*
X199295487Y-82483500D01*
X199301939Y-82482128D01*
X199301944Y-82482128D01*
X199477687Y-82444772D01*
X199548478Y-82450174D01*
X199605110Y-82492991D01*
X199629604Y-82559628D01*
X199623717Y-82606954D01*
X199606458Y-82660072D01*
X199586496Y-82850000D01*
X199587186Y-82856565D01*
X199604639Y-83022618D01*
X199606458Y-83039928D01*
X199665473Y-83221556D01*
X199668776Y-83227278D01*
X199668777Y-83227279D01*
X199695274Y-83273173D01*
X199760960Y-83386944D01*
X199765378Y-83391851D01*
X199765379Y-83391852D01*
X199881850Y-83521206D01*
X199888747Y-83528866D01*
X200043248Y-83641118D01*
X200049276Y-83643802D01*
X200049278Y-83643803D01*
X200211681Y-83716109D01*
X200217712Y-83718794D01*
X200311113Y-83738647D01*
X200398056Y-83757128D01*
X200398061Y-83757128D01*
X200404513Y-83758500D01*
X200595487Y-83758500D01*
X200601939Y-83757128D01*
X200601944Y-83757128D01*
X200688887Y-83738647D01*
X200782288Y-83718794D01*
X200788319Y-83716109D01*
X200950722Y-83643803D01*
X200950724Y-83643802D01*
X200956752Y-83641118D01*
X201111253Y-83528866D01*
X201118150Y-83521206D01*
X201234621Y-83391852D01*
X201234622Y-83391851D01*
X201239040Y-83386944D01*
X201304726Y-83273173D01*
X201331223Y-83227279D01*
X201331224Y-83227278D01*
X201334527Y-83221556D01*
X201393542Y-83039928D01*
X201395362Y-83022618D01*
X201412814Y-82856565D01*
X201413504Y-82850000D01*
X201393542Y-82660072D01*
X201334527Y-82478444D01*
X201315087Y-82444772D01*
X201279387Y-82382939D01*
X201239040Y-82313056D01*
X201189242Y-82257749D01*
X201115675Y-82176045D01*
X201115674Y-82176044D01*
X201111253Y-82171134D01*
X200956752Y-82058882D01*
X200950724Y-82056198D01*
X200950722Y-82056197D01*
X200788319Y-81983891D01*
X200788318Y-81983891D01*
X200782288Y-81981206D01*
X200688887Y-81961353D01*
X200601944Y-81942872D01*
X200601939Y-81942872D01*
X200595487Y-81941500D01*
X200404513Y-81941500D01*
X200398061Y-81942872D01*
X200398056Y-81942872D01*
X200222313Y-81980228D01*
X200151522Y-81974826D01*
X200094890Y-81932009D01*
X200070396Y-81865372D01*
X200076283Y-81818044D01*
X200091503Y-81771203D01*
X200093542Y-81764928D01*
X200094351Y-81757237D01*
X200108888Y-81618919D01*
X200110907Y-81599706D01*
X200137920Y-81534050D01*
X200147122Y-81523782D01*
X202990904Y-78680000D01*
X223161681Y-78680000D01*
X223180928Y-78924557D01*
X223182082Y-78929364D01*
X223182083Y-78929370D01*
X223207067Y-79033435D01*
X223238195Y-79163092D01*
X223240088Y-79167663D01*
X223240089Y-79167665D01*
X223249595Y-79190615D01*
X223332073Y-79389732D01*
X223460248Y-79598896D01*
X223463463Y-79602660D01*
X223463465Y-79602663D01*
X223562713Y-79718866D01*
X223619567Y-79785433D01*
X223623323Y-79788641D01*
X223676201Y-79833803D01*
X223806104Y-79944752D01*
X223810327Y-79947340D01*
X223810330Y-79947342D01*
X223812220Y-79948500D01*
X224015268Y-80072927D01*
X224159967Y-80132864D01*
X224237335Y-80164911D01*
X224237337Y-80164912D01*
X224241908Y-80166805D01*
X224308378Y-80182763D01*
X224475630Y-80222917D01*
X224475636Y-80222918D01*
X224480443Y-80224072D01*
X224725000Y-80243319D01*
X224969557Y-80224072D01*
X224974364Y-80222918D01*
X224974370Y-80222917D01*
X225141622Y-80182763D01*
X225208092Y-80166805D01*
X225212663Y-80164912D01*
X225212665Y-80164911D01*
X225290033Y-80132864D01*
X225434732Y-80072927D01*
X225637780Y-79948500D01*
X225639670Y-79947342D01*
X225639673Y-79947340D01*
X225643896Y-79944752D01*
X225773800Y-79833803D01*
X225826677Y-79788641D01*
X225830433Y-79785433D01*
X225887287Y-79718866D01*
X225986535Y-79602663D01*
X225986537Y-79602660D01*
X225989752Y-79598896D01*
X226117927Y-79389732D01*
X226200405Y-79190615D01*
X226209911Y-79167665D01*
X226209912Y-79167663D01*
X226211805Y-79163092D01*
X226242933Y-79033435D01*
X226267917Y-78929370D01*
X226267918Y-78929364D01*
X226269072Y-78924557D01*
X226288319Y-78680000D01*
X226269072Y-78435443D01*
X226211805Y-78196908D01*
X226117927Y-77970268D01*
X225989752Y-77761104D01*
X225974976Y-77743803D01*
X225833641Y-77578323D01*
X225830433Y-77574567D01*
X225749931Y-77505811D01*
X225711122Y-77446360D01*
X225710616Y-77375365D01*
X225749931Y-77314189D01*
X225826677Y-77248641D01*
X225830433Y-77245433D01*
X225989752Y-77058896D01*
X226117927Y-76849732D01*
X226177864Y-76705033D01*
X226209911Y-76627665D01*
X226209912Y-76627663D01*
X226211805Y-76623092D01*
X226231649Y-76540437D01*
X226267917Y-76389370D01*
X226267918Y-76389364D01*
X226269072Y-76384557D01*
X226288319Y-76140000D01*
X226269072Y-75895443D01*
X226259712Y-75856453D01*
X226228663Y-75727128D01*
X226211805Y-75656908D01*
X226191231Y-75607237D01*
X226119820Y-75434839D01*
X226117927Y-75430268D01*
X226009168Y-75252788D01*
X225990630Y-75184255D01*
X226012087Y-75116578D01*
X226041035Y-75086128D01*
X226047987Y-75080918D01*
X226138261Y-75013261D01*
X226225615Y-74896705D01*
X226276745Y-74760316D01*
X226283500Y-74698134D01*
X226283500Y-72501866D01*
X226276745Y-72439684D01*
X226225615Y-72303295D01*
X226138261Y-72186739D01*
X226021705Y-72099385D01*
X225885316Y-72048255D01*
X225823134Y-72041500D01*
X223626866Y-72041500D01*
X223564684Y-72048255D01*
X223428295Y-72099385D01*
X223311739Y-72186739D01*
X223224385Y-72303295D01*
X223173255Y-72439684D01*
X223166500Y-72501866D01*
X223166500Y-74698134D01*
X223173255Y-74760316D01*
X223224385Y-74896705D01*
X223311739Y-75013261D01*
X223402013Y-75080918D01*
X223408965Y-75086128D01*
X223451479Y-75142988D01*
X223456504Y-75213806D01*
X223440832Y-75252788D01*
X223332073Y-75430268D01*
X223330180Y-75434839D01*
X223258770Y-75607237D01*
X223238195Y-75656908D01*
X223221337Y-75727128D01*
X223190289Y-75856453D01*
X223180928Y-75895443D01*
X223161681Y-76140000D01*
X223180928Y-76384557D01*
X223182082Y-76389364D01*
X223182083Y-76389370D01*
X223218351Y-76540437D01*
X223238195Y-76623092D01*
X223240088Y-76627663D01*
X223240089Y-76627665D01*
X223272136Y-76705033D01*
X223332073Y-76849732D01*
X223460248Y-77058896D01*
X223619567Y-77245433D01*
X223623323Y-77248641D01*
X223700069Y-77314189D01*
X223738878Y-77373640D01*
X223739384Y-77444635D01*
X223700069Y-77505811D01*
X223619567Y-77574567D01*
X223616359Y-77578323D01*
X223475025Y-77743803D01*
X223460248Y-77761104D01*
X223332073Y-77970268D01*
X223238195Y-78196908D01*
X223180928Y-78435443D01*
X223161681Y-78680000D01*
X202990904Y-78680000D01*
X206020905Y-75650000D01*
X217386496Y-75650000D01*
X217387186Y-75656565D01*
X217394747Y-75728500D01*
X217406458Y-75839928D01*
X217465473Y-76021556D01*
X217560960Y-76186944D01*
X217688747Y-76328866D01*
X217770142Y-76388003D01*
X217813495Y-76444224D01*
X217819570Y-76514960D01*
X217805199Y-76552938D01*
X217790473Y-76578444D01*
X217731458Y-76760072D01*
X217711496Y-76950000D01*
X217731458Y-77139928D01*
X217790473Y-77321556D01*
X217885960Y-77486944D01*
X217890378Y-77491851D01*
X217890379Y-77491852D01*
X217964856Y-77574567D01*
X218013747Y-77628866D01*
X218168248Y-77741118D01*
X218174276Y-77743802D01*
X218174278Y-77743803D01*
X218222629Y-77765330D01*
X218342712Y-77818794D01*
X218436113Y-77838647D01*
X218523056Y-77857128D01*
X218523061Y-77857128D01*
X218529513Y-77858500D01*
X218720487Y-77858500D01*
X218726939Y-77857128D01*
X218726944Y-77857128D01*
X218813888Y-77838647D01*
X218907288Y-77818794D01*
X219027371Y-77765330D01*
X219075722Y-77743803D01*
X219075724Y-77743802D01*
X219081752Y-77741118D01*
X219236253Y-77628866D01*
X219285144Y-77574567D01*
X219359621Y-77491852D01*
X219359622Y-77491851D01*
X219364040Y-77486944D01*
X219459527Y-77321556D01*
X219518542Y-77139928D01*
X219538504Y-76950000D01*
X219518542Y-76760072D01*
X219459527Y-76578444D01*
X219364040Y-76413056D01*
X219344337Y-76391173D01*
X219240675Y-76276045D01*
X219240674Y-76276044D01*
X219236253Y-76271134D01*
X219154858Y-76211997D01*
X219111505Y-76155776D01*
X219105430Y-76085040D01*
X219119801Y-76047062D01*
X219131223Y-76027279D01*
X219131224Y-76027278D01*
X219134527Y-76021556D01*
X219193542Y-75839928D01*
X219205254Y-75728500D01*
X219212814Y-75656565D01*
X219213504Y-75650000D01*
X219209417Y-75611118D01*
X219194232Y-75466635D01*
X219194232Y-75466633D01*
X219193542Y-75460072D01*
X219134527Y-75278444D01*
X219119715Y-75252788D01*
X219053967Y-75138911D01*
X219039040Y-75113056D01*
X219017910Y-75089588D01*
X218915675Y-74976045D01*
X218915674Y-74976044D01*
X218911253Y-74971134D01*
X218756752Y-74858882D01*
X218750724Y-74856198D01*
X218750722Y-74856197D01*
X218588319Y-74783891D01*
X218588318Y-74783891D01*
X218582288Y-74781206D01*
X218484009Y-74760316D01*
X218401944Y-74742872D01*
X218401939Y-74742872D01*
X218395487Y-74741500D01*
X218204513Y-74741500D01*
X218198061Y-74742872D01*
X218198056Y-74742872D01*
X218115991Y-74760316D01*
X218017712Y-74781206D01*
X218011682Y-74783891D01*
X218011681Y-74783891D01*
X217849278Y-74856197D01*
X217849276Y-74856198D01*
X217843248Y-74858882D01*
X217688747Y-74971134D01*
X217684326Y-74976044D01*
X217684325Y-74976045D01*
X217582091Y-75089588D01*
X217560960Y-75113056D01*
X217546033Y-75138911D01*
X217480286Y-75252788D01*
X217465473Y-75278444D01*
X217406458Y-75460072D01*
X217405768Y-75466633D01*
X217405768Y-75466635D01*
X217390583Y-75611118D01*
X217386496Y-75650000D01*
X206020905Y-75650000D01*
X206923000Y-74747905D01*
X206985312Y-74713879D01*
X207012095Y-74711000D01*
X207067987Y-74711000D01*
X207074439Y-74709628D01*
X207074444Y-74709628D01*
X207161388Y-74691147D01*
X207254788Y-74671294D01*
X207347375Y-74630072D01*
X207423222Y-74596303D01*
X207423224Y-74596302D01*
X207429252Y-74593618D01*
X207583753Y-74481366D01*
X207686779Y-74366944D01*
X207707121Y-74344352D01*
X207707122Y-74344351D01*
X207711540Y-74339444D01*
X207794065Y-74196507D01*
X207803723Y-74179779D01*
X207803724Y-74179778D01*
X207807027Y-74174056D01*
X207866042Y-73992428D01*
X207868455Y-73969476D01*
X207885314Y-73809065D01*
X207886004Y-73802500D01*
X207869622Y-73646635D01*
X207866732Y-73619135D01*
X207866732Y-73619133D01*
X207866042Y-73612572D01*
X207807027Y-73430944D01*
X207711540Y-73265556D01*
X207668396Y-73217639D01*
X207588175Y-73128545D01*
X207588174Y-73128544D01*
X207583753Y-73123634D01*
X207429252Y-73011382D01*
X207423224Y-73008698D01*
X207423222Y-73008697D01*
X207260819Y-72936391D01*
X207260818Y-72936391D01*
X207254788Y-72933706D01*
X207161388Y-72913853D01*
X207074444Y-72895372D01*
X207074439Y-72895372D01*
X207067987Y-72894000D01*
X206877013Y-72894000D01*
X206870561Y-72895372D01*
X206870556Y-72895372D01*
X206783613Y-72913853D01*
X206690212Y-72933706D01*
X206684182Y-72936391D01*
X206684181Y-72936391D01*
X206521778Y-73008697D01*
X206521776Y-73008698D01*
X206515748Y-73011382D01*
X206361247Y-73123634D01*
X206356826Y-73128544D01*
X206356825Y-73128545D01*
X206276605Y-73217639D01*
X206233460Y-73265556D01*
X206137973Y-73430944D01*
X206078958Y-73612572D01*
X206078268Y-73619133D01*
X206078268Y-73619135D01*
X206061593Y-73777793D01*
X206034580Y-73843450D01*
X206025378Y-73853718D01*
X199249500Y-80629595D01*
X199187188Y-80663621D01*
X199160405Y-80666500D01*
X199104513Y-80666500D01*
X199098061Y-80667872D01*
X199098056Y-80667872D01*
X199011112Y-80686353D01*
X198917712Y-80706206D01*
X198911682Y-80708891D01*
X198911681Y-80708891D01*
X198749278Y-80781197D01*
X198749276Y-80781198D01*
X198743248Y-80783882D01*
X198588747Y-80896134D01*
X198460960Y-81038056D01*
X198457659Y-81043774D01*
X198392986Y-81155791D01*
X198365473Y-81203444D01*
X198306458Y-81385072D01*
X198305768Y-81391633D01*
X198305768Y-81391635D01*
X198304929Y-81399618D01*
X198286496Y-81575000D01*
X194837762Y-81575000D01*
X194894621Y-81511852D01*
X194894622Y-81511851D01*
X194899040Y-81506944D01*
X194994527Y-81341556D01*
X195053542Y-81159928D01*
X195056448Y-81132285D01*
X195072814Y-80976565D01*
X195073504Y-80970000D01*
X195066257Y-80901045D01*
X195054232Y-80786635D01*
X195054232Y-80786633D01*
X195053542Y-80780072D01*
X194994527Y-80598444D01*
X194899040Y-80433056D01*
X194771253Y-80291134D01*
X194616752Y-80178882D01*
X194610724Y-80176198D01*
X194610722Y-80176197D01*
X194448319Y-80103891D01*
X194448318Y-80103891D01*
X194442288Y-80101206D01*
X194348888Y-80081353D01*
X194261944Y-80062872D01*
X194261939Y-80062872D01*
X194255487Y-80061500D01*
X194064513Y-80061500D01*
X194058061Y-80062872D01*
X194058056Y-80062872D01*
X193971112Y-80081353D01*
X193877712Y-80101206D01*
X193871682Y-80103891D01*
X193871681Y-80103891D01*
X193709278Y-80176197D01*
X193709276Y-80176198D01*
X193703248Y-80178882D01*
X193548747Y-80291134D01*
X193420960Y-80433056D01*
X193325473Y-80598444D01*
X193266458Y-80780072D01*
X193265768Y-80786633D01*
X193265768Y-80786635D01*
X193253743Y-80901045D01*
X193246496Y-80970000D01*
X188531200Y-80970000D01*
X188528414Y-80967800D01*
X188528410Y-80967798D01*
X188524359Y-80964598D01*
X188328789Y-80856638D01*
X188323920Y-80854914D01*
X188323916Y-80854912D01*
X188123087Y-80783795D01*
X188123083Y-80783794D01*
X188118212Y-80782069D01*
X188113119Y-80781162D01*
X188113116Y-80781161D01*
X187903373Y-80743800D01*
X187903367Y-80743799D01*
X187898284Y-80742894D01*
X187824452Y-80741992D01*
X187680081Y-80740228D01*
X187680079Y-80740228D01*
X187674911Y-80740165D01*
X187454091Y-80773955D01*
X187241756Y-80843357D01*
X187211443Y-80859137D01*
X187130939Y-80901045D01*
X187043607Y-80946507D01*
X187039474Y-80949610D01*
X187039471Y-80949612D01*
X186914059Y-81043774D01*
X186864965Y-81080635D01*
X186861393Y-81084373D01*
X186753729Y-81197037D01*
X186710629Y-81242138D01*
X186603201Y-81399621D01*
X186548293Y-81444621D01*
X186477768Y-81452792D01*
X186414021Y-81421538D01*
X186393324Y-81397054D01*
X186312822Y-81272617D01*
X186312820Y-81272614D01*
X186310014Y-81268277D01*
X186159670Y-81103051D01*
X186155619Y-81099852D01*
X186155615Y-81099848D01*
X185988414Y-80967800D01*
X185988410Y-80967798D01*
X185984359Y-80964598D01*
X185788789Y-80856638D01*
X185783920Y-80854914D01*
X185783916Y-80854912D01*
X185583087Y-80783795D01*
X185583083Y-80783794D01*
X185578212Y-80782069D01*
X185573119Y-80781162D01*
X185573116Y-80781161D01*
X185363373Y-80743800D01*
X185363367Y-80743799D01*
X185358284Y-80742894D01*
X185284452Y-80741992D01*
X185140081Y-80740228D01*
X185140079Y-80740228D01*
X185134911Y-80740165D01*
X184914091Y-80773955D01*
X184701756Y-80843357D01*
X184671443Y-80859137D01*
X184590939Y-80901045D01*
X184503607Y-80946507D01*
X184499474Y-80949610D01*
X184499471Y-80949612D01*
X184374059Y-81043774D01*
X184324965Y-81080635D01*
X184321393Y-81084373D01*
X184213729Y-81197037D01*
X184170629Y-81242138D01*
X184063201Y-81399621D01*
X184008293Y-81444621D01*
X183937768Y-81452792D01*
X183874021Y-81421538D01*
X183853324Y-81397054D01*
X183772822Y-81272617D01*
X183772820Y-81272614D01*
X183770014Y-81268277D01*
X183619670Y-81103051D01*
X183615619Y-81099852D01*
X183615615Y-81099848D01*
X183448414Y-80967800D01*
X183448410Y-80967798D01*
X183444359Y-80964598D01*
X183248789Y-80856638D01*
X183243920Y-80854914D01*
X183243916Y-80854912D01*
X183043087Y-80783795D01*
X183043083Y-80783794D01*
X183038212Y-80782069D01*
X183033119Y-80781162D01*
X183033116Y-80781161D01*
X182823373Y-80743800D01*
X182823367Y-80743799D01*
X182818284Y-80742894D01*
X182744452Y-80741992D01*
X182600081Y-80740228D01*
X182600079Y-80740228D01*
X182594911Y-80740165D01*
X182374091Y-80773955D01*
X182161756Y-80843357D01*
X182131443Y-80859137D01*
X182050939Y-80901045D01*
X181963607Y-80946507D01*
X181959474Y-80949610D01*
X181959471Y-80949612D01*
X181834059Y-81043774D01*
X181784965Y-81080635D01*
X181728537Y-81139684D01*
X181704283Y-81165064D01*
X181642759Y-81200494D01*
X181571846Y-81197037D01*
X181514060Y-81155791D01*
X181495207Y-81122243D01*
X181453767Y-81011703D01*
X181450615Y-81003295D01*
X181363261Y-80886739D01*
X181246705Y-80799385D01*
X181110316Y-80748255D01*
X181048134Y-80741500D01*
X179251866Y-80741500D01*
X179189684Y-80748255D01*
X179053295Y-80799385D01*
X178936739Y-80886739D01*
X178849385Y-81003295D01*
X178798255Y-81139684D01*
X178791500Y-81201866D01*
X178791500Y-82998134D01*
X175636978Y-82998134D01*
X175632897Y-79480000D01*
X182546496Y-79480000D01*
X182566458Y-79669928D01*
X182625473Y-79851556D01*
X182720960Y-80016944D01*
X182848747Y-80158866D01*
X183003248Y-80271118D01*
X183009276Y-80273802D01*
X183009278Y-80273803D01*
X183059235Y-80296045D01*
X183177712Y-80348794D01*
X183271112Y-80368647D01*
X183358056Y-80387128D01*
X183358061Y-80387128D01*
X183364513Y-80388500D01*
X183555487Y-80388500D01*
X183561939Y-80387128D01*
X183561944Y-80387128D01*
X183648888Y-80368647D01*
X183742288Y-80348794D01*
X183860765Y-80296045D01*
X183910722Y-80273803D01*
X183910724Y-80273802D01*
X183916752Y-80271118D01*
X184071253Y-80158866D01*
X184199040Y-80016944D01*
X184294527Y-79851556D01*
X184353542Y-79669928D01*
X184373504Y-79480000D01*
X184353542Y-79290072D01*
X184294527Y-79108444D01*
X184199040Y-78943056D01*
X184182384Y-78924557D01*
X184075675Y-78806045D01*
X184075674Y-78806044D01*
X184071253Y-78801134D01*
X183916752Y-78688882D01*
X183910724Y-78686198D01*
X183910722Y-78686197D01*
X183748319Y-78613891D01*
X183748318Y-78613891D01*
X183742288Y-78611206D01*
X183648888Y-78591353D01*
X183561944Y-78572872D01*
X183561939Y-78572872D01*
X183555487Y-78571500D01*
X183364513Y-78571500D01*
X183358061Y-78572872D01*
X183358056Y-78572872D01*
X183271112Y-78591353D01*
X183177712Y-78611206D01*
X183171682Y-78613891D01*
X183171681Y-78613891D01*
X183009278Y-78686197D01*
X183009276Y-78686198D01*
X183003248Y-78688882D01*
X182848747Y-78801134D01*
X182844326Y-78806044D01*
X182844325Y-78806045D01*
X182737617Y-78924557D01*
X182720960Y-78943056D01*
X182625473Y-79108444D01*
X182566458Y-79290072D01*
X182546496Y-79480000D01*
X175632897Y-79480000D01*
X175627491Y-74820000D01*
X180636496Y-74820000D01*
X180637186Y-74826565D01*
X180652381Y-74971134D01*
X180656458Y-75009928D01*
X180715473Y-75191556D01*
X180718776Y-75197278D01*
X180718777Y-75197279D01*
X180750825Y-75252788D01*
X180810960Y-75356944D01*
X180938747Y-75498866D01*
X181093248Y-75611118D01*
X181099276Y-75613802D01*
X181099278Y-75613803D01*
X181261681Y-75686109D01*
X181267712Y-75688794D01*
X181361113Y-75708647D01*
X181448056Y-75727128D01*
X181448061Y-75727128D01*
X181454513Y-75728500D01*
X181645487Y-75728500D01*
X181651939Y-75727128D01*
X181651944Y-75727128D01*
X181738888Y-75708647D01*
X181832288Y-75688794D01*
X181838319Y-75686109D01*
X182000722Y-75613803D01*
X182000724Y-75613802D01*
X182006752Y-75611118D01*
X182161253Y-75498866D01*
X182289040Y-75356944D01*
X182312278Y-75316695D01*
X185756301Y-75316695D01*
X185756598Y-75321848D01*
X185756598Y-75321851D01*
X185766805Y-75498866D01*
X185769160Y-75539715D01*
X185770297Y-75544761D01*
X185770298Y-75544767D01*
X185785857Y-75613803D01*
X185818272Y-75757639D01*
X185902316Y-75964616D01*
X185905015Y-75969020D01*
X186015608Y-76149492D01*
X186019037Y-76155088D01*
X186165300Y-76323938D01*
X186169280Y-76327242D01*
X186174031Y-76331187D01*
X186213666Y-76390090D01*
X186215163Y-76461071D01*
X186178047Y-76521593D01*
X186137774Y-76546112D01*
X186022345Y-76589385D01*
X185905789Y-76676739D01*
X185818435Y-76793295D01*
X185767305Y-76929684D01*
X185760550Y-76991866D01*
X185760550Y-78788134D01*
X185767305Y-78850316D01*
X185818435Y-78986705D01*
X185905789Y-79103261D01*
X186022345Y-79190615D01*
X186158734Y-79241745D01*
X186220916Y-79248500D01*
X188017184Y-79248500D01*
X188079366Y-79241745D01*
X188215755Y-79190615D01*
X188332311Y-79103261D01*
X188379723Y-79040000D01*
X196556496Y-79040000D01*
X196557186Y-79046565D01*
X196568928Y-79158280D01*
X196576458Y-79229928D01*
X196635473Y-79411556D01*
X196730960Y-79576944D01*
X196735378Y-79581851D01*
X196735379Y-79581852D01*
X196754117Y-79602663D01*
X196858747Y-79718866D01*
X197013248Y-79831118D01*
X197019276Y-79833802D01*
X197019278Y-79833803D01*
X197181681Y-79906109D01*
X197187712Y-79908794D01*
X197281113Y-79928647D01*
X197368056Y-79947128D01*
X197368061Y-79947128D01*
X197374513Y-79948500D01*
X197565487Y-79948500D01*
X197571939Y-79947128D01*
X197571944Y-79947128D01*
X197658887Y-79928647D01*
X197752288Y-79908794D01*
X197758319Y-79906109D01*
X197920722Y-79833803D01*
X197920724Y-79833802D01*
X197926752Y-79831118D01*
X198081253Y-79718866D01*
X198185883Y-79602663D01*
X198204621Y-79581852D01*
X198204622Y-79581851D01*
X198209040Y-79576944D01*
X198304527Y-79411556D01*
X198363542Y-79229928D01*
X198371073Y-79158280D01*
X198382814Y-79046565D01*
X198383504Y-79040000D01*
X198372799Y-78938148D01*
X198364232Y-78856635D01*
X198364232Y-78856633D01*
X198363542Y-78850072D01*
X198304527Y-78668444D01*
X198209040Y-78503056D01*
X198143828Y-78430630D01*
X198085675Y-78366045D01*
X198085674Y-78366044D01*
X198081253Y-78361134D01*
X197926752Y-78248882D01*
X197920724Y-78246198D01*
X197920722Y-78246197D01*
X197758319Y-78173891D01*
X197758318Y-78173891D01*
X197752288Y-78171206D01*
X197658888Y-78151353D01*
X197571944Y-78132872D01*
X197571939Y-78132872D01*
X197565487Y-78131500D01*
X197374513Y-78131500D01*
X197368061Y-78132872D01*
X197368056Y-78132872D01*
X197281113Y-78151353D01*
X197187712Y-78171206D01*
X197181682Y-78173891D01*
X197181681Y-78173891D01*
X197019278Y-78246197D01*
X197019276Y-78246198D01*
X197013248Y-78248882D01*
X196858747Y-78361134D01*
X196854326Y-78366044D01*
X196854325Y-78366045D01*
X196796173Y-78430630D01*
X196730960Y-78503056D01*
X196635473Y-78668444D01*
X196576458Y-78850072D01*
X196575768Y-78856633D01*
X196575768Y-78856635D01*
X196567201Y-78938148D01*
X196556496Y-79040000D01*
X188379723Y-79040000D01*
X188419665Y-78986705D01*
X188470795Y-78850316D01*
X188477550Y-78788134D01*
X188477550Y-76991866D01*
X188470795Y-76929684D01*
X188419665Y-76793295D01*
X188332311Y-76676739D01*
X188215755Y-76589385D01*
X188171304Y-76572721D01*
X188097253Y-76544960D01*
X188040489Y-76502318D01*
X188015789Y-76435756D01*
X188030997Y-76366408D01*
X188052543Y-76337727D01*
X188157146Y-76233489D01*
X188216644Y-76150689D01*
X188284485Y-76056277D01*
X188287503Y-76052077D01*
X188302588Y-76021556D01*
X188384186Y-75856453D01*
X188384187Y-75856451D01*
X188386480Y-75851811D01*
X188445696Y-75656908D01*
X188449915Y-75643023D01*
X188449915Y-75643021D01*
X188451420Y-75638069D01*
X188480579Y-75416590D01*
X188480661Y-75413240D01*
X188482124Y-75353365D01*
X188482124Y-75353361D01*
X188482206Y-75350000D01*
X188463902Y-75127361D01*
X188409481Y-74910702D01*
X188320404Y-74705840D01*
X188275633Y-74636635D01*
X188201872Y-74522617D01*
X188201870Y-74522614D01*
X188199064Y-74518277D01*
X188048720Y-74353051D01*
X188044669Y-74349852D01*
X188044665Y-74349848D01*
X187877464Y-74217800D01*
X187877460Y-74217798D01*
X187873409Y-74214598D01*
X187832103Y-74191796D01*
X187782134Y-74141364D01*
X187767362Y-74071921D01*
X187792478Y-74005516D01*
X187819830Y-73978909D01*
X187863653Y-73947650D01*
X187998910Y-73851173D01*
X188041166Y-73809065D01*
X188153485Y-73697137D01*
X188157146Y-73693489D01*
X188166720Y-73680166D01*
X188284485Y-73516277D01*
X188287503Y-73512077D01*
X188297056Y-73492749D01*
X188384186Y-73316453D01*
X188384187Y-73316451D01*
X188386480Y-73311811D01*
X188427964Y-73175271D01*
X188449915Y-73103023D01*
X188449915Y-73103021D01*
X188451420Y-73098069D01*
X188480579Y-72876590D01*
X188482206Y-72810000D01*
X212756496Y-72810000D01*
X212757186Y-72816565D01*
X212763844Y-72879908D01*
X212776458Y-72999928D01*
X212835473Y-73181556D01*
X212838776Y-73187278D01*
X212838777Y-73187279D01*
X212859069Y-73222425D01*
X212930960Y-73346944D01*
X213058747Y-73488866D01*
X213213248Y-73601118D01*
X213219276Y-73603802D01*
X213219278Y-73603803D01*
X213315481Y-73646635D01*
X213387712Y-73678794D01*
X213474009Y-73697137D01*
X213568056Y-73717128D01*
X213568061Y-73717128D01*
X213574513Y-73718500D01*
X213765487Y-73718500D01*
X213771939Y-73717128D01*
X213771944Y-73717128D01*
X213865991Y-73697137D01*
X213952288Y-73678794D01*
X214024519Y-73646635D01*
X214120722Y-73603803D01*
X214120724Y-73603802D01*
X214126752Y-73601118D01*
X214281253Y-73488866D01*
X214409040Y-73346944D01*
X214480931Y-73222425D01*
X214501223Y-73187279D01*
X214501224Y-73187278D01*
X214504527Y-73181556D01*
X214563542Y-72999928D01*
X214576157Y-72879908D01*
X214582814Y-72816565D01*
X214583504Y-72810000D01*
X214563542Y-72620072D01*
X214504527Y-72438444D01*
X214409040Y-72273056D01*
X214312503Y-72165840D01*
X214285675Y-72136045D01*
X214285674Y-72136044D01*
X214281253Y-72131134D01*
X214126752Y-72018882D01*
X214120724Y-72016198D01*
X214120722Y-72016197D01*
X213958319Y-71943891D01*
X213958318Y-71943891D01*
X213952288Y-71941206D01*
X213858887Y-71921353D01*
X213771944Y-71902872D01*
X213771939Y-71902872D01*
X213765487Y-71901500D01*
X213574513Y-71901500D01*
X213568061Y-71902872D01*
X213568056Y-71902872D01*
X213481112Y-71921353D01*
X213387712Y-71941206D01*
X213381682Y-71943891D01*
X213381681Y-71943891D01*
X213219278Y-72016197D01*
X213219276Y-72016198D01*
X213213248Y-72018882D01*
X213058747Y-72131134D01*
X213054326Y-72136044D01*
X213054325Y-72136045D01*
X213027498Y-72165840D01*
X212930960Y-72273056D01*
X212835473Y-72438444D01*
X212776458Y-72620072D01*
X212756496Y-72810000D01*
X188482206Y-72810000D01*
X188463902Y-72587361D01*
X188409481Y-72370702D01*
X188320404Y-72165840D01*
X188275373Y-72096233D01*
X188201872Y-71982617D01*
X188201870Y-71982614D01*
X188199064Y-71978277D01*
X188048720Y-71813051D01*
X188044669Y-71809852D01*
X188044665Y-71809848D01*
X187877464Y-71677800D01*
X187877460Y-71677798D01*
X187873409Y-71674598D01*
X187832103Y-71651796D01*
X187782134Y-71601364D01*
X187767362Y-71531921D01*
X187792478Y-71465516D01*
X187819830Y-71438909D01*
X187863653Y-71407650D01*
X187998910Y-71311173D01*
X188157146Y-71153489D01*
X188216644Y-71070689D01*
X188284485Y-70976277D01*
X188287503Y-70972077D01*
X188386480Y-70771811D01*
X188451420Y-70558069D01*
X188480579Y-70336590D01*
X188482206Y-70270000D01*
X188463902Y-70047361D01*
X188409481Y-69830702D01*
X188320404Y-69625840D01*
X188199064Y-69438277D01*
X188048720Y-69273051D01*
X188044669Y-69269852D01*
X188044665Y-69269848D01*
X187877464Y-69137800D01*
X187877460Y-69137798D01*
X187873409Y-69134598D01*
X187774504Y-69080000D01*
X223136681Y-69080000D01*
X223155928Y-69324557D01*
X223157082Y-69329364D01*
X223157083Y-69329370D01*
X223193351Y-69480437D01*
X223213195Y-69563092D01*
X223307073Y-69789732D01*
X223435248Y-69998896D01*
X223438463Y-70002660D01*
X223438465Y-70002663D01*
X223476641Y-70047361D01*
X223594567Y-70185433D01*
X223598323Y-70188641D01*
X223771548Y-70336590D01*
X223781104Y-70344752D01*
X223785327Y-70347340D01*
X223785330Y-70347342D01*
X223854515Y-70389738D01*
X223990268Y-70472927D01*
X224134967Y-70532864D01*
X224212335Y-70564911D01*
X224212337Y-70564912D01*
X224216908Y-70566805D01*
X224299563Y-70586649D01*
X224450630Y-70622917D01*
X224450636Y-70622918D01*
X224455443Y-70624072D01*
X224700000Y-70643319D01*
X224944557Y-70624072D01*
X224949364Y-70622918D01*
X224949370Y-70622917D01*
X225100437Y-70586649D01*
X225183092Y-70566805D01*
X225187663Y-70564912D01*
X225187665Y-70564911D01*
X225265033Y-70532864D01*
X225409732Y-70472927D01*
X225545485Y-70389738D01*
X225614670Y-70347342D01*
X225614673Y-70347340D01*
X225618896Y-70344752D01*
X225628453Y-70336590D01*
X225801677Y-70188641D01*
X225805433Y-70185433D01*
X225923359Y-70047361D01*
X225961535Y-70002663D01*
X225961537Y-70002660D01*
X225964752Y-69998896D01*
X226092927Y-69789732D01*
X226186805Y-69563092D01*
X226206649Y-69480437D01*
X226242917Y-69329370D01*
X226242918Y-69329364D01*
X226244072Y-69324557D01*
X226263319Y-69080000D01*
X226244072Y-68835443D01*
X226186805Y-68596908D01*
X226092927Y-68370268D01*
X225964752Y-68161104D01*
X225805433Y-67974567D01*
X225724931Y-67905811D01*
X225686122Y-67846360D01*
X225685616Y-67775365D01*
X225724931Y-67714189D01*
X225801677Y-67648641D01*
X225805433Y-67645433D01*
X225964752Y-67458896D01*
X226092927Y-67249732D01*
X226186805Y-67023092D01*
X226244072Y-66784557D01*
X226263319Y-66540000D01*
X226244072Y-66295443D01*
X226186805Y-66056908D01*
X226092927Y-65830268D01*
X225984168Y-65652788D01*
X225965630Y-65584255D01*
X225987087Y-65516578D01*
X226016035Y-65486128D01*
X226022987Y-65480918D01*
X226113261Y-65413261D01*
X226200615Y-65296705D01*
X226251745Y-65160316D01*
X226258500Y-65098134D01*
X226258500Y-62901866D01*
X226251745Y-62839684D01*
X226200615Y-62703295D01*
X226113261Y-62586739D01*
X225996705Y-62499385D01*
X225860316Y-62448255D01*
X225798134Y-62441500D01*
X223601866Y-62441500D01*
X223539684Y-62448255D01*
X223403295Y-62499385D01*
X223286739Y-62586739D01*
X223199385Y-62703295D01*
X223148255Y-62839684D01*
X223141500Y-62901866D01*
X223141500Y-65098134D01*
X223148255Y-65160316D01*
X223199385Y-65296705D01*
X223286739Y-65413261D01*
X223377013Y-65480918D01*
X223383965Y-65486128D01*
X223426479Y-65542988D01*
X223431504Y-65613806D01*
X223415832Y-65652788D01*
X223307073Y-65830268D01*
X223213195Y-66056908D01*
X223155928Y-66295443D01*
X223136681Y-66540000D01*
X223155928Y-66784557D01*
X223213195Y-67023092D01*
X223307073Y-67249732D01*
X223435248Y-67458896D01*
X223594567Y-67645433D01*
X223598323Y-67648641D01*
X223675069Y-67714189D01*
X223713878Y-67773640D01*
X223714384Y-67844635D01*
X223675069Y-67905811D01*
X223594567Y-67974567D01*
X223435248Y-68161104D01*
X223307073Y-68370268D01*
X223213195Y-68596908D01*
X223155928Y-68835443D01*
X223136681Y-69080000D01*
X187774504Y-69080000D01*
X187677839Y-69026638D01*
X187672970Y-69024914D01*
X187672966Y-69024912D01*
X187472137Y-68953795D01*
X187472133Y-68953794D01*
X187467262Y-68952069D01*
X187462169Y-68951162D01*
X187462166Y-68951161D01*
X187252423Y-68913800D01*
X187252417Y-68913799D01*
X187247334Y-68912894D01*
X187173502Y-68911992D01*
X187029131Y-68910228D01*
X187029129Y-68910228D01*
X187023961Y-68910165D01*
X186803141Y-68943955D01*
X186590806Y-69013357D01*
X186392657Y-69116507D01*
X186388524Y-69119610D01*
X186388521Y-69119612D01*
X186364297Y-69137800D01*
X186214015Y-69250635D01*
X186059679Y-69412138D01*
X185933793Y-69596680D01*
X185918053Y-69630590D01*
X185844182Y-69789732D01*
X185839738Y-69799305D01*
X185780039Y-70014570D01*
X185756301Y-70236695D01*
X185756598Y-70241848D01*
X185756598Y-70241851D01*
X185762061Y-70336590D01*
X185769160Y-70459715D01*
X185770297Y-70464761D01*
X185770298Y-70464767D01*
X185772137Y-70472927D01*
X185818272Y-70677639D01*
X185902316Y-70884616D01*
X186019037Y-71075088D01*
X186165300Y-71243938D01*
X186337176Y-71386632D01*
X186407645Y-71427811D01*
X186410495Y-71429476D01*
X186459219Y-71481114D01*
X186472290Y-71550897D01*
X186445559Y-71616669D01*
X186405105Y-71650027D01*
X186392657Y-71656507D01*
X186388524Y-71659610D01*
X186388521Y-71659612D01*
X186364297Y-71677800D01*
X186214015Y-71790635D01*
X186059679Y-71952138D01*
X185933793Y-72136680D01*
X185839738Y-72339305D01*
X185780039Y-72554570D01*
X185756301Y-72776695D01*
X185756598Y-72781848D01*
X185756598Y-72781851D01*
X185766940Y-72961206D01*
X185769160Y-72999715D01*
X185770297Y-73004761D01*
X185770298Y-73004767D01*
X185778861Y-73042763D01*
X185818272Y-73217639D01*
X185902316Y-73424616D01*
X185905015Y-73429020D01*
X186012122Y-73603803D01*
X186019037Y-73615088D01*
X186165300Y-73783938D01*
X186337176Y-73926632D01*
X186407645Y-73967811D01*
X186410495Y-73969476D01*
X186459219Y-74021114D01*
X186472290Y-74090897D01*
X186445559Y-74156669D01*
X186405105Y-74190027D01*
X186392657Y-74196507D01*
X186388524Y-74199610D01*
X186388521Y-74199612D01*
X186218150Y-74327530D01*
X186214015Y-74330635D01*
X186059679Y-74492138D01*
X185933793Y-74676680D01*
X185918499Y-74709628D01*
X185847417Y-74862763D01*
X185839738Y-74879305D01*
X185780039Y-75094570D01*
X185756301Y-75316695D01*
X182312278Y-75316695D01*
X182349175Y-75252788D01*
X182381223Y-75197279D01*
X182381224Y-75197278D01*
X182384527Y-75191556D01*
X182443542Y-75009928D01*
X182447620Y-74971134D01*
X182462814Y-74826565D01*
X182463504Y-74820000D01*
X182455398Y-74742872D01*
X182444232Y-74636635D01*
X182444232Y-74636633D01*
X182443542Y-74630072D01*
X182384527Y-74448444D01*
X182289040Y-74283056D01*
X182205277Y-74190027D01*
X182165675Y-74146045D01*
X182165674Y-74146044D01*
X182161253Y-74141134D01*
X182062157Y-74069136D01*
X182012094Y-74032763D01*
X182012093Y-74032762D01*
X182006752Y-74028882D01*
X182000724Y-74026198D01*
X182000722Y-74026197D01*
X181838319Y-73953891D01*
X181838318Y-73953891D01*
X181832288Y-73951206D01*
X181728956Y-73929242D01*
X181651944Y-73912872D01*
X181651939Y-73912872D01*
X181645487Y-73911500D01*
X181454513Y-73911500D01*
X181448061Y-73912872D01*
X181448056Y-73912872D01*
X181371044Y-73929242D01*
X181267712Y-73951206D01*
X181261682Y-73953891D01*
X181261681Y-73953891D01*
X181099278Y-74026197D01*
X181099276Y-74026198D01*
X181093248Y-74028882D01*
X181087907Y-74032762D01*
X181087906Y-74032763D01*
X181037843Y-74069136D01*
X180938747Y-74141134D01*
X180934326Y-74146044D01*
X180934325Y-74146045D01*
X180894724Y-74190027D01*
X180810960Y-74283056D01*
X180715473Y-74448444D01*
X180656458Y-74630072D01*
X180655768Y-74636633D01*
X180655768Y-74636635D01*
X180644602Y-74742872D01*
X180636496Y-74820000D01*
X175627491Y-74820000D01*
X175626342Y-73830000D01*
X178566496Y-73830000D01*
X178567186Y-73836565D01*
X178584228Y-73998706D01*
X178586458Y-74019928D01*
X178645473Y-74201556D01*
X178740960Y-74366944D01*
X178868747Y-74508866D01*
X179023248Y-74621118D01*
X179029276Y-74623802D01*
X179029278Y-74623803D01*
X179191681Y-74696109D01*
X179197712Y-74698794D01*
X179291112Y-74718647D01*
X179378056Y-74737128D01*
X179378061Y-74737128D01*
X179384513Y-74738500D01*
X179575487Y-74738500D01*
X179581939Y-74737128D01*
X179581944Y-74737128D01*
X179668888Y-74718647D01*
X179762288Y-74698794D01*
X179768319Y-74696109D01*
X179930722Y-74623803D01*
X179930724Y-74623802D01*
X179936752Y-74621118D01*
X180091253Y-74508866D01*
X180219040Y-74366944D01*
X180314527Y-74201556D01*
X180373542Y-74019928D01*
X180375773Y-73998706D01*
X180392814Y-73836565D01*
X180393504Y-73830000D01*
X180373542Y-73640072D01*
X180314527Y-73458444D01*
X180302279Y-73437229D01*
X180222341Y-73298774D01*
X180219040Y-73293056D01*
X180199428Y-73271274D01*
X180095675Y-73156045D01*
X180095674Y-73156044D01*
X180091253Y-73151134D01*
X179936752Y-73038882D01*
X179930724Y-73036198D01*
X179930722Y-73036197D01*
X179768319Y-72963891D01*
X179768318Y-72963891D01*
X179762288Y-72961206D01*
X179668888Y-72941353D01*
X179581944Y-72922872D01*
X179581939Y-72922872D01*
X179575487Y-72921500D01*
X179384513Y-72921500D01*
X179378061Y-72922872D01*
X179378056Y-72922872D01*
X179291112Y-72941353D01*
X179197712Y-72961206D01*
X179191682Y-72963891D01*
X179191681Y-72963891D01*
X179029278Y-73036197D01*
X179029276Y-73036198D01*
X179023248Y-73038882D01*
X178868747Y-73151134D01*
X178864326Y-73156044D01*
X178864325Y-73156045D01*
X178760573Y-73271274D01*
X178740960Y-73293056D01*
X178737659Y-73298774D01*
X178657722Y-73437229D01*
X178645473Y-73458444D01*
X178586458Y-73640072D01*
X178566496Y-73830000D01*
X175626342Y-73830000D01*
X175609201Y-59054645D01*
X175629124Y-58986502D01*
X175682726Y-58939947D01*
X175735201Y-58928500D01*
X229997500Y-58928500D01*
X230065621Y-58948502D01*
G37*
%TD.AperFunction*%
%TD*%
M02*
