%TF.GenerationSoftware,KiCad,Pcbnew,6.0.11-2627ca5db0~126~ubuntu22.04.1*%
%TF.CreationDate,2023-02-18T04:23:51-05:00*%
%TF.ProjectId,lin-flow-sensor,6c696e2d-666c-46f7-972d-73656e736f72,1.0*%
%TF.SameCoordinates,Original*%
%TF.FileFunction,Copper,L2,Inr*%
%TF.FilePolarity,Positive*%
%FSLAX46Y46*%
G04 Gerber Fmt 4.6, Leading zero omitted, Abs format (unit mm)*
G04 Created by KiCad (PCBNEW 6.0.11-2627ca5db0~126~ubuntu22.04.1) date 2023-02-18 04:23:51*
%MOMM*%
%LPD*%
G01*
G04 APERTURE LIST*
%TA.AperFunction,ComponentPad*%
%ADD10R,2.100000X2.100000*%
%TD*%
%TA.AperFunction,ComponentPad*%
%ADD11C,2.100000*%
%TD*%
%TA.AperFunction,ComponentPad*%
%ADD12R,1.700000X1.700000*%
%TD*%
%TA.AperFunction,ComponentPad*%
%ADD13O,1.700000X1.700000*%
%TD*%
%TA.AperFunction,ComponentPad*%
%ADD14C,0.500000*%
%TD*%
%TA.AperFunction,ComponentPad*%
%ADD15R,1.879600X1.879600*%
%TD*%
%TA.AperFunction,ComponentPad*%
%ADD16C,1.879600*%
%TD*%
%TA.AperFunction,ViaPad*%
%ADD17C,0.800000*%
%TD*%
%TA.AperFunction,Conductor*%
%ADD18C,0.250000*%
%TD*%
G04 APERTURE END LIST*
D10*
%TO.N,+5V*%
%TO.C,J5*%
X224725000Y-83025000D03*
D11*
%TO.N,GND*%
X224725000Y-85565000D03*
%TO.N,Net-(J5-Pad3)*%
X224725000Y-88105000D03*
%TD*%
%TO.N,Net-(J4-Pad3)*%
%TO.C,J4*%
X224725000Y-78680000D03*
%TO.N,GND*%
X224725000Y-76140000D03*
D10*
%TO.N,+5V*%
X224725000Y-73600000D03*
%TD*%
D12*
%TO.N,GND*%
%TO.C,J2*%
X180150000Y-82100000D03*
D13*
%TO.N,+5V*%
X182690000Y-82100000D03*
%TO.N,SDA5V*%
X185230000Y-82100000D03*
%TO.N,SCL5V*%
X187770000Y-82100000D03*
%TD*%
D14*
%TO.N,GND*%
%TO.C,U5*%
X200150000Y-71850000D03*
X198250000Y-73200000D03*
X198250000Y-74550000D03*
X200150000Y-73200000D03*
X200150000Y-74550000D03*
X198250000Y-71850000D03*
%TD*%
D10*
%TO.N,+BATT*%
%TO.C,J3*%
X224700000Y-64000000D03*
D11*
%TO.N,GND*%
X224700000Y-66540000D03*
%TO.N,LIN*%
X224700000Y-69080000D03*
%TD*%
D15*
%TO.N,GND*%
%TO.C,J1*%
X226520000Y-91800000D03*
D16*
%TO.N,unconnected-(J1-Pad2)*%
X223980000Y-91800000D03*
%TO.N,Net-(J1-Pad3)*%
X221440000Y-91800000D03*
%TO.N,Net-(J1-Pad4)*%
X218900000Y-91800000D03*
%TO.N,UPDI*%
X216360000Y-91800000D03*
%TO.N,unconnected-(J1-Pad6)*%
X213820000Y-91800000D03*
%TD*%
D17*
%TO.N,~{FLOW_PULSE0}*%
X210300000Y-90150000D03*
X211250000Y-93450000D03*
%TO.N,+3V3*%
X214175000Y-88450000D03*
X213975000Y-78925000D03*
%TO.N,GND*%
X218475000Y-85175000D03*
%TO.N,Net-(J5-Pad3)*%
X218575000Y-86525000D03*
%TO.N,GND*%
X218300000Y-75650000D03*
%TO.N,Net-(J4-Pad3)*%
X218625000Y-76950000D03*
%TO.N,GND*%
X211450000Y-63225000D03*
X184652903Y-75302969D03*
X203300000Y-61500000D03*
X177100000Y-71300000D03*
X205400000Y-77200000D03*
X176900000Y-62050000D03*
X177125000Y-76350000D03*
X207550000Y-91950000D03*
X183100000Y-94450000D03*
X200500000Y-82850000D03*
X187000000Y-79000000D03*
X207600000Y-86525000D03*
X206625000Y-89750000D03*
%TO.N,Net-(C5-Pad1)*%
X203435000Y-72565000D03*
X201800000Y-68900000D03*
%TO.N,LIN*%
X199200000Y-81575000D03*
%TO.N,TXD*%
X200800000Y-96575000D03*
X200550000Y-91800000D03*
%TO.N,~{LIN_SLP}*%
X197950000Y-91675000D03*
X205075000Y-92075000D03*
%TO.N,~{LIN_WAKE}*%
X204925000Y-93300000D03*
X199225000Y-91625000D03*
%TO.N,Net-(C6-Pad2)*%
X189700000Y-73500000D03*
%TO.N,Net-(C7-Pad1)*%
X187200000Y-77875000D03*
X187625000Y-73825500D03*
%TO.N,Net-(C7-Pad2)*%
X181812000Y-76162529D03*
%TO.N,Net-(C8-Pad1)*%
X182075000Y-73725000D03*
%TO.N,Net-(C8-Pad2)*%
X189075000Y-74550000D03*
%TO.N,SDA3V*%
X187300000Y-92450000D03*
X206675000Y-96775000D03*
X185425000Y-90325000D03*
%TO.N,SCL3V*%
X206290576Y-95852382D03*
X187450000Y-90425000D03*
X188918398Y-93779600D03*
%TO.N,+3V3*%
X194225000Y-89700000D03*
X197475000Y-93675000D03*
X192850000Y-77800000D03*
X184750000Y-65600000D03*
X190050000Y-90950000D03*
X202850000Y-88175000D03*
X187809929Y-75950089D03*
X192025000Y-93200000D03*
X224425000Y-94725000D03*
X181950000Y-90050000D03*
X190150000Y-80175000D03*
X190550000Y-89975000D03*
X182225000Y-77625000D03*
%TO.N,Net-(R5-Pad1)*%
X204875000Y-94975000D03*
X203700000Y-86825000D03*
%TO.N,Net-(R11-Pad2)*%
X187374999Y-76850001D03*
%TO.N,Net-(R13-Pad2)*%
X203735000Y-73835000D03*
%TO.N,Net-(R17-Pad2)*%
X195000000Y-75200000D03*
%TO.N,Net-(JP2-Pad2)*%
X191362756Y-93948624D03*
%TO.N,Net-(JP3-Pad2)*%
X187887299Y-93487701D03*
%TO.N,Net-(JP4-Pad2)*%
X184175000Y-92899500D03*
%TO.N,Net-(JP5-Pad2)*%
X184049695Y-96425000D03*
X183075000Y-92150000D03*
%TD*%
D18*
%TO.N,~{FLOW_PULSE0}*%
X211250000Y-91100000D02*
X210300000Y-90150000D01*
X211250000Y-93450000D02*
X211250000Y-91100000D01*
%TO.N,+5V*%
X226175000Y-81650000D02*
X226675000Y-81150000D01*
X226100000Y-81650000D02*
X226175000Y-81650000D01*
X224725000Y-83025000D02*
X226100000Y-81650000D01*
X226675000Y-81150000D02*
X226675000Y-75550000D01*
X226675000Y-75550000D02*
X224725000Y-73600000D01*
X195450000Y-80900000D02*
X198675000Y-84125000D01*
X183890000Y-80900000D02*
X195450000Y-80900000D01*
X182690000Y-82100000D02*
X183890000Y-80900000D01*
X198675000Y-84125000D02*
X223625000Y-84125000D01*
X223625000Y-84125000D02*
X224725000Y-83025000D01*
%TO.N,Net-(C5-Pad1)*%
X201800000Y-70930000D02*
X203435000Y-72565000D01*
X201800000Y-68900000D02*
X201800000Y-70930000D01*
%TO.N,LIN*%
X199200000Y-81575000D02*
X211695000Y-69080000D01*
X211695000Y-69080000D02*
X224700000Y-69080000D01*
%TO.N,~{LIN_SLP}*%
X200675305Y-90900000D02*
X201825305Y-92050000D01*
X205050000Y-92050000D02*
X205075000Y-92075000D01*
X201825305Y-92050000D02*
X205050000Y-92050000D01*
X198924695Y-90900000D02*
X200675305Y-90900000D01*
X197950000Y-91675000D02*
X198149695Y-91675000D01*
X198149695Y-91675000D02*
X198924695Y-90900000D01*
%TO.N,~{LIN_WAKE}*%
X200875000Y-93275000D02*
X204900000Y-93275000D01*
X199225000Y-91625000D02*
X200875000Y-93275000D01*
X204900000Y-93275000D02*
X204925000Y-93300000D01*
%TO.N,Net-(C7-Pad1)*%
X186649999Y-77324999D02*
X187200000Y-77875000D01*
X187625000Y-73825500D02*
X186649999Y-74800501D01*
X186649999Y-74800501D02*
X186649999Y-77324999D01*
%TO.N,SDA3V*%
X187275000Y-92425000D02*
X185425000Y-90575000D01*
X206150000Y-97300000D02*
X206675000Y-96775000D01*
X185425000Y-90575000D02*
X185425000Y-90325000D01*
X186925000Y-93550000D02*
X190675000Y-97300000D01*
X187300000Y-92450000D02*
X186925000Y-92825000D01*
X190675000Y-97300000D02*
X206150000Y-97300000D01*
X187325000Y-92425000D02*
X187275000Y-92425000D01*
X186925000Y-92825000D02*
X186925000Y-93550000D01*
%TO.N,SCL3V*%
X188918398Y-93818398D02*
X188918398Y-93779600D01*
X202500000Y-95825000D02*
X190925000Y-95825000D01*
X206290576Y-95852382D02*
X202527382Y-95852382D01*
X190925000Y-95825000D02*
X188918398Y-93818398D01*
X202527382Y-95852382D02*
X202500000Y-95825000D01*
X188918398Y-92918398D02*
X187450000Y-91450000D01*
X187450000Y-91450000D02*
X187450000Y-90425000D01*
X188918398Y-93779600D02*
X188918398Y-92918398D01*
%TO.N,Net-(R5-Pad1)*%
X203700000Y-88675000D02*
X203700000Y-86825000D01*
X206050000Y-91025000D02*
X203700000Y-88675000D01*
X204875000Y-94975000D02*
X206050000Y-93800000D01*
X206050000Y-93800000D02*
X206050000Y-91025000D01*
%TO.N,Net-(JP5-Pad2)*%
X184049695Y-93799500D02*
X183075000Y-92824805D01*
X183075000Y-92824805D02*
X183075000Y-92150000D01*
X184049695Y-96425000D02*
X184049695Y-93799500D01*
%TD*%
M02*
