%TF.GenerationSoftware,KiCad,Pcbnew,(6.0.10)*%
%TF.CreationDate,2023-02-04T03:27:03-05:00*%
%TF.ProjectId,lin-master,6c696e2d-6d61-4737-9465-722e6b696361,1.0*%
%TF.SameCoordinates,Original*%
%TF.FileFunction,Legend,Top*%
%TF.FilePolarity,Positive*%
%FSLAX46Y46*%
G04 Gerber Fmt 4.6, Leading zero omitted, Abs format (unit mm)*
G04 Created by KiCad (PCBNEW (6.0.10)) date 2023-02-04 03:27:03*
%MOMM*%
%LPD*%
G01*
G04 APERTURE LIST*
%ADD10C,0.100000*%
%ADD11C,0.150000*%
%ADD12C,0.127000*%
%ADD13C,0.010000*%
%ADD14C,0.120000*%
%ADD15C,0.254000*%
%ADD16C,0.398780*%
G04 APERTURE END LIST*
D10*
X108955535Y-78483857D02*
X108205535Y-78483857D01*
X108955535Y-78055285D01*
X108205535Y-78055285D01*
X108955535Y-77591000D02*
X108919821Y-77662428D01*
X108884107Y-77698142D01*
X108812678Y-77733857D01*
X108598392Y-77733857D01*
X108526964Y-77698142D01*
X108491250Y-77662428D01*
X108455535Y-77591000D01*
X108455535Y-77483857D01*
X108491250Y-77412428D01*
X108526964Y-77376714D01*
X108598392Y-77341000D01*
X108812678Y-77341000D01*
X108884107Y-77376714D01*
X108919821Y-77412428D01*
X108955535Y-77483857D01*
X108955535Y-77591000D01*
X108455535Y-77126714D02*
X108455535Y-76841000D01*
X108205535Y-77019571D02*
X108848392Y-77019571D01*
X108919821Y-76983857D01*
X108955535Y-76912428D01*
X108955535Y-76841000D01*
X108919821Y-76305285D02*
X108955535Y-76376714D01*
X108955535Y-76519571D01*
X108919821Y-76591000D01*
X108848392Y-76626714D01*
X108562678Y-76626714D01*
X108491250Y-76591000D01*
X108455535Y-76519571D01*
X108455535Y-76376714D01*
X108491250Y-76305285D01*
X108562678Y-76269571D01*
X108634107Y-76269571D01*
X108705535Y-76626714D01*
X108884107Y-75948142D02*
X108919821Y-75912428D01*
X108955535Y-75948142D01*
X108919821Y-75983857D01*
X108884107Y-75948142D01*
X108955535Y-75948142D01*
X108491250Y-75948142D02*
X108526964Y-75912428D01*
X108562678Y-75948142D01*
X108526964Y-75983857D01*
X108491250Y-75948142D01*
X108562678Y-75948142D01*
X109413035Y-79126714D02*
X109413035Y-79483857D01*
X109770178Y-79519571D01*
X109734464Y-79483857D01*
X109698750Y-79412428D01*
X109698750Y-79233857D01*
X109734464Y-79162428D01*
X109770178Y-79126714D01*
X109841607Y-79091000D01*
X110020178Y-79091000D01*
X110091607Y-79126714D01*
X110127321Y-79162428D01*
X110163035Y-79233857D01*
X110163035Y-79412428D01*
X110127321Y-79483857D01*
X110091607Y-79519571D01*
X109413035Y-78876714D02*
X110163035Y-78626714D01*
X109413035Y-78376714D01*
X110163035Y-77198142D02*
X110163035Y-77555285D01*
X109413035Y-77555285D01*
X110163035Y-76841000D02*
X110127321Y-76912428D01*
X110091607Y-76948142D01*
X110020178Y-76983857D01*
X109805892Y-76983857D01*
X109734464Y-76948142D01*
X109698750Y-76912428D01*
X109663035Y-76841000D01*
X109663035Y-76733857D01*
X109698750Y-76662428D01*
X109734464Y-76626714D01*
X109805892Y-76591000D01*
X110020178Y-76591000D01*
X110091607Y-76626714D01*
X110127321Y-76662428D01*
X110163035Y-76733857D01*
X110163035Y-76841000D01*
X109663035Y-75948142D02*
X110270178Y-75948142D01*
X110341607Y-75983857D01*
X110377321Y-76019571D01*
X110413035Y-76091000D01*
X110413035Y-76198142D01*
X110377321Y-76269571D01*
X110127321Y-75948142D02*
X110163035Y-76019571D01*
X110163035Y-76162428D01*
X110127321Y-76233857D01*
X110091607Y-76269571D01*
X110020178Y-76305285D01*
X109805892Y-76305285D01*
X109734464Y-76269571D01*
X109698750Y-76233857D01*
X109663035Y-76162428D01*
X109663035Y-76019571D01*
X109698750Y-75948142D01*
X110163035Y-75591000D02*
X109663035Y-75591000D01*
X109413035Y-75591000D02*
X109448750Y-75626714D01*
X109484464Y-75591000D01*
X109448750Y-75555285D01*
X109413035Y-75591000D01*
X109484464Y-75591000D01*
X110127321Y-74912428D02*
X110163035Y-74983857D01*
X110163035Y-75126714D01*
X110127321Y-75198142D01*
X110091607Y-75233857D01*
X110020178Y-75269571D01*
X109805892Y-75269571D01*
X109734464Y-75233857D01*
X109698750Y-75198142D01*
X109663035Y-75126714D01*
X109663035Y-74983857D01*
X109698750Y-74912428D01*
D11*
X102363047Y-83891333D02*
X102315428Y-83843714D01*
X102220190Y-83700857D01*
X102172571Y-83605619D01*
X102124952Y-83462761D01*
X102077333Y-83224666D01*
X102077333Y-83034190D01*
X102124952Y-82796095D01*
X102172571Y-82653238D01*
X102220190Y-82558000D01*
X102315428Y-82415142D01*
X102363047Y-82367523D01*
X103172571Y-83462761D02*
X103077333Y-83510380D01*
X102886857Y-83510380D01*
X102791619Y-83462761D01*
X102744000Y-83415142D01*
X102696380Y-83319904D01*
X102696380Y-83034190D01*
X102744000Y-82938952D01*
X102791619Y-82891333D01*
X102886857Y-82843714D01*
X103077333Y-82843714D01*
X103172571Y-82891333D01*
X103505904Y-83891333D02*
X103553523Y-83843714D01*
X103648761Y-83700857D01*
X103696380Y-83605619D01*
X103744000Y-83462761D01*
X103791619Y-83224666D01*
X103791619Y-83034190D01*
X103744000Y-82796095D01*
X103696380Y-82653238D01*
X103648761Y-82558000D01*
X103553523Y-82415142D01*
X103505904Y-82367523D01*
X104982095Y-82605619D02*
X105029714Y-82558000D01*
X105124952Y-82510380D01*
X105363047Y-82510380D01*
X105458285Y-82558000D01*
X105505904Y-82605619D01*
X105553523Y-82700857D01*
X105553523Y-82796095D01*
X105505904Y-82938952D01*
X104934476Y-83510380D01*
X105553523Y-83510380D01*
X106172571Y-82510380D02*
X106267809Y-82510380D01*
X106363047Y-82558000D01*
X106410666Y-82605619D01*
X106458285Y-82700857D01*
X106505904Y-82891333D01*
X106505904Y-83129428D01*
X106458285Y-83319904D01*
X106410666Y-83415142D01*
X106363047Y-83462761D01*
X106267809Y-83510380D01*
X106172571Y-83510380D01*
X106077333Y-83462761D01*
X106029714Y-83415142D01*
X105982095Y-83319904D01*
X105934476Y-83129428D01*
X105934476Y-82891333D01*
X105982095Y-82700857D01*
X106029714Y-82605619D01*
X106077333Y-82558000D01*
X106172571Y-82510380D01*
X106886857Y-82605619D02*
X106934476Y-82558000D01*
X107029714Y-82510380D01*
X107267809Y-82510380D01*
X107363047Y-82558000D01*
X107410666Y-82605619D01*
X107458285Y-82700857D01*
X107458285Y-82796095D01*
X107410666Y-82938952D01*
X106839238Y-83510380D01*
X107458285Y-83510380D01*
X107791619Y-82510380D02*
X108410666Y-82510380D01*
X108077333Y-82891333D01*
X108220190Y-82891333D01*
X108315428Y-82938952D01*
X108363047Y-82986571D01*
X108410666Y-83081809D01*
X108410666Y-83319904D01*
X108363047Y-83415142D01*
X108315428Y-83462761D01*
X108220190Y-83510380D01*
X107934476Y-83510380D01*
X107839238Y-83462761D01*
X107791619Y-83415142D01*
X110124952Y-82558000D02*
X110029714Y-82510380D01*
X109886857Y-82510380D01*
X109744000Y-82558000D01*
X109648761Y-82653238D01*
X109601142Y-82748476D01*
X109553523Y-82938952D01*
X109553523Y-83081809D01*
X109601142Y-83272285D01*
X109648761Y-83367523D01*
X109744000Y-83462761D01*
X109886857Y-83510380D01*
X109982095Y-83510380D01*
X110124952Y-83462761D01*
X110172571Y-83415142D01*
X110172571Y-83081809D01*
X109982095Y-83081809D01*
X111029714Y-83510380D02*
X111029714Y-82986571D01*
X110982095Y-82891333D01*
X110886857Y-82843714D01*
X110696380Y-82843714D01*
X110601142Y-82891333D01*
X111029714Y-83462761D02*
X110934476Y-83510380D01*
X110696380Y-83510380D01*
X110601142Y-83462761D01*
X110553523Y-83367523D01*
X110553523Y-83272285D01*
X110601142Y-83177047D01*
X110696380Y-83129428D01*
X110934476Y-83129428D01*
X111029714Y-83081809D01*
X111410666Y-82843714D02*
X111648761Y-83510380D01*
X111886857Y-82843714D01*
X112267809Y-83510380D02*
X112267809Y-82843714D01*
X112267809Y-82510380D02*
X112220190Y-82558000D01*
X112267809Y-82605619D01*
X112315428Y-82558000D01*
X112267809Y-82510380D01*
X112267809Y-82605619D01*
X112744000Y-82843714D02*
X112744000Y-83510380D01*
X112744000Y-82938952D02*
X112791619Y-82891333D01*
X112886857Y-82843714D01*
X113029714Y-82843714D01*
X113124952Y-82891333D01*
X113172571Y-82986571D01*
X113172571Y-83510380D01*
X114410666Y-83510380D02*
X114410666Y-82510380D01*
X114410666Y-82986571D02*
X114982095Y-82986571D01*
X114982095Y-83510380D02*
X114982095Y-82510380D01*
X115886857Y-82843714D02*
X115886857Y-83510380D01*
X115458285Y-82843714D02*
X115458285Y-83367523D01*
X115505904Y-83462761D01*
X115601142Y-83510380D01*
X115744000Y-83510380D01*
X115839238Y-83462761D01*
X115886857Y-83415142D01*
X116363047Y-83510380D02*
X116363047Y-82843714D01*
X116363047Y-83034190D02*
X116410666Y-82938952D01*
X116458285Y-82891333D01*
X116553523Y-82843714D01*
X116648761Y-82843714D01*
X117124952Y-83510380D02*
X117029714Y-83462761D01*
X116982095Y-83367523D01*
X116982095Y-82510380D01*
X117505904Y-83510380D02*
X117505904Y-82510380D01*
X117505904Y-82891333D02*
X117601142Y-82843714D01*
X117791619Y-82843714D01*
X117886857Y-82891333D01*
X117934476Y-82938952D01*
X117982095Y-83034190D01*
X117982095Y-83319904D01*
X117934476Y-83415142D01*
X117886857Y-83462761D01*
X117791619Y-83510380D01*
X117601142Y-83510380D01*
X117505904Y-83462761D01*
X118839238Y-82843714D02*
X118839238Y-83510380D01*
X118410666Y-82843714D02*
X118410666Y-83367523D01*
X118458285Y-83462761D01*
X118553523Y-83510380D01*
X118696380Y-83510380D01*
X118791619Y-83462761D01*
X118839238Y-83415142D01*
X119172571Y-82843714D02*
X119553523Y-82843714D01*
X119315428Y-82510380D02*
X119315428Y-83367523D01*
X119363047Y-83462761D01*
X119458285Y-83510380D01*
X119553523Y-83510380D01*
X102878761Y-81732380D02*
X102402571Y-81732380D01*
X102402571Y-80732380D01*
X103212095Y-81732380D02*
X103212095Y-80732380D01*
X103688285Y-81732380D02*
X103688285Y-80732380D01*
X104259714Y-81732380D01*
X104259714Y-80732380D01*
X105069238Y-81208571D02*
X105212095Y-81256190D01*
X105259714Y-81303809D01*
X105307333Y-81399047D01*
X105307333Y-81541904D01*
X105259714Y-81637142D01*
X105212095Y-81684761D01*
X105116857Y-81732380D01*
X104735904Y-81732380D01*
X104735904Y-80732380D01*
X105069238Y-80732380D01*
X105164476Y-80780000D01*
X105212095Y-80827619D01*
X105259714Y-80922857D01*
X105259714Y-81018095D01*
X105212095Y-81113333D01*
X105164476Y-81160952D01*
X105069238Y-81208571D01*
X104735904Y-81208571D01*
X106164476Y-81065714D02*
X106164476Y-81732380D01*
X105735904Y-81065714D02*
X105735904Y-81589523D01*
X105783523Y-81684761D01*
X105878761Y-81732380D01*
X106021619Y-81732380D01*
X106116857Y-81684761D01*
X106164476Y-81637142D01*
X106593047Y-81684761D02*
X106688285Y-81732380D01*
X106878761Y-81732380D01*
X106974000Y-81684761D01*
X107021619Y-81589523D01*
X107021619Y-81541904D01*
X106974000Y-81446666D01*
X106878761Y-81399047D01*
X106735904Y-81399047D01*
X106640666Y-81351428D01*
X106593047Y-81256190D01*
X106593047Y-81208571D01*
X106640666Y-81113333D01*
X106735904Y-81065714D01*
X106878761Y-81065714D01*
X106974000Y-81113333D01*
X108212095Y-81732380D02*
X108212095Y-80732380D01*
X108545428Y-81446666D01*
X108878761Y-80732380D01*
X108878761Y-81732380D01*
X109783523Y-81732380D02*
X109783523Y-81208571D01*
X109735904Y-81113333D01*
X109640666Y-81065714D01*
X109450190Y-81065714D01*
X109354952Y-81113333D01*
X109783523Y-81684761D02*
X109688285Y-81732380D01*
X109450190Y-81732380D01*
X109354952Y-81684761D01*
X109307333Y-81589523D01*
X109307333Y-81494285D01*
X109354952Y-81399047D01*
X109450190Y-81351428D01*
X109688285Y-81351428D01*
X109783523Y-81303809D01*
X110212095Y-81684761D02*
X110307333Y-81732380D01*
X110497809Y-81732380D01*
X110593047Y-81684761D01*
X110640666Y-81589523D01*
X110640666Y-81541904D01*
X110593047Y-81446666D01*
X110497809Y-81399047D01*
X110354952Y-81399047D01*
X110259714Y-81351428D01*
X110212095Y-81256190D01*
X110212095Y-81208571D01*
X110259714Y-81113333D01*
X110354952Y-81065714D01*
X110497809Y-81065714D01*
X110593047Y-81113333D01*
X110926380Y-81065714D02*
X111307333Y-81065714D01*
X111069238Y-80732380D02*
X111069238Y-81589523D01*
X111116857Y-81684761D01*
X111212095Y-81732380D01*
X111307333Y-81732380D01*
X112021619Y-81684761D02*
X111926380Y-81732380D01*
X111735904Y-81732380D01*
X111640666Y-81684761D01*
X111593047Y-81589523D01*
X111593047Y-81208571D01*
X111640666Y-81113333D01*
X111735904Y-81065714D01*
X111926380Y-81065714D01*
X112021619Y-81113333D01*
X112069238Y-81208571D01*
X112069238Y-81303809D01*
X111593047Y-81399047D01*
X112497809Y-81732380D02*
X112497809Y-81065714D01*
X112497809Y-81256190D02*
X112545428Y-81160952D01*
X112593047Y-81113333D01*
X112688285Y-81065714D01*
X112783523Y-81065714D01*
X113783523Y-81065714D02*
X114021619Y-81732380D01*
X114259714Y-81065714D01*
X115164476Y-81732380D02*
X114593047Y-81732380D01*
X114878761Y-81732380D02*
X114878761Y-80732380D01*
X114783523Y-80875238D01*
X114688285Y-80970476D01*
X114593047Y-81018095D01*
X115593047Y-81637142D02*
X115640666Y-81684761D01*
X115593047Y-81732380D01*
X115545428Y-81684761D01*
X115593047Y-81637142D01*
X115593047Y-81732380D01*
X116259714Y-80732380D02*
X116354952Y-80732380D01*
X116450190Y-80780000D01*
X116497809Y-80827619D01*
X116545428Y-80922857D01*
X116593047Y-81113333D01*
X116593047Y-81351428D01*
X116545428Y-81541904D01*
X116497809Y-81637142D01*
X116450190Y-81684761D01*
X116354952Y-81732380D01*
X116259714Y-81732380D01*
X116164476Y-81684761D01*
X116116857Y-81637142D01*
X116069238Y-81541904D01*
X116021619Y-81351428D01*
X116021619Y-81113333D01*
X116069238Y-80922857D01*
X116116857Y-80827619D01*
X116164476Y-80780000D01*
X116259714Y-80732380D01*
%TO.C,J2*%
X128444666Y-75398380D02*
X128444666Y-76112666D01*
X128397047Y-76255523D01*
X128301809Y-76350761D01*
X128158952Y-76398380D01*
X128063714Y-76398380D01*
X128873238Y-75493619D02*
X128920857Y-75446000D01*
X129016095Y-75398380D01*
X129254190Y-75398380D01*
X129349428Y-75446000D01*
X129397047Y-75493619D01*
X129444666Y-75588857D01*
X129444666Y-75684095D01*
X129397047Y-75826952D01*
X128825619Y-76398380D01*
X129444666Y-76398380D01*
%TO.C,U2*%
X138038380Y-79247904D02*
X138847904Y-79247904D01*
X138943142Y-79200285D01*
X138990761Y-79152666D01*
X139038380Y-79057428D01*
X139038380Y-78866952D01*
X138990761Y-78771714D01*
X138943142Y-78724095D01*
X138847904Y-78676476D01*
X138038380Y-78676476D01*
X138133619Y-78247904D02*
X138086000Y-78200285D01*
X138038380Y-78105047D01*
X138038380Y-77866952D01*
X138086000Y-77771714D01*
X138133619Y-77724095D01*
X138228857Y-77676476D01*
X138324095Y-77676476D01*
X138466952Y-77724095D01*
X139038380Y-78295523D01*
X139038380Y-77676476D01*
X138644380Y-81788000D02*
X138882476Y-81788000D01*
X138787238Y-82026095D02*
X138882476Y-81788000D01*
X138787238Y-81549904D01*
X139072952Y-81930857D02*
X138882476Y-81788000D01*
X139072952Y-81645142D01*
%TO.C,U1*%
X102576380Y-87629904D02*
X103385904Y-87629904D01*
X103481142Y-87582285D01*
X103528761Y-87534666D01*
X103576380Y-87439428D01*
X103576380Y-87248952D01*
X103528761Y-87153714D01*
X103481142Y-87106095D01*
X103385904Y-87058476D01*
X102576380Y-87058476D01*
X103576380Y-86058476D02*
X103576380Y-86629904D01*
X103576380Y-86344190D02*
X102576380Y-86344190D01*
X102719238Y-86439428D01*
X102814476Y-86534666D01*
X102862095Y-86629904D01*
X108751619Y-92464095D02*
X107942095Y-92464095D01*
X107846857Y-92511714D01*
X107799238Y-92559333D01*
X107751619Y-92654571D01*
X107751619Y-92845047D01*
X107799238Y-92940285D01*
X107846857Y-92987904D01*
X107942095Y-93035523D01*
X108751619Y-93035523D01*
X107799238Y-93464095D02*
X107751619Y-93606952D01*
X107751619Y-93845047D01*
X107799238Y-93940285D01*
X107846857Y-93987904D01*
X107942095Y-94035523D01*
X108037333Y-94035523D01*
X108132571Y-93987904D01*
X108180190Y-93940285D01*
X108227809Y-93845047D01*
X108275428Y-93654571D01*
X108323047Y-93559333D01*
X108370666Y-93511714D01*
X108465904Y-93464095D01*
X108561142Y-93464095D01*
X108656380Y-93511714D01*
X108704000Y-93559333D01*
X108751619Y-93654571D01*
X108751619Y-93892666D01*
X108704000Y-94035523D01*
X108275428Y-94797428D02*
X108227809Y-94940285D01*
X108180190Y-94987904D01*
X108084952Y-95035523D01*
X107942095Y-95035523D01*
X107846857Y-94987904D01*
X107799238Y-94940285D01*
X107751619Y-94845047D01*
X107751619Y-94464095D01*
X108751619Y-94464095D01*
X108751619Y-94797428D01*
X108704000Y-94892666D01*
X108656380Y-94940285D01*
X108561142Y-94987904D01*
X108465904Y-94987904D01*
X108370666Y-94940285D01*
X108323047Y-94892666D01*
X108275428Y-94797428D01*
X108275428Y-94464095D01*
X145581619Y-83566000D02*
X145343523Y-83566000D01*
X145438761Y-83327904D02*
X145343523Y-83566000D01*
X145438761Y-83804095D01*
X145153047Y-83423142D02*
X145343523Y-83566000D01*
X145153047Y-83708857D01*
%TO.C,R7*%
X133199333Y-80588380D02*
X132866000Y-80112190D01*
X132627904Y-80588380D02*
X132627904Y-79588380D01*
X133008857Y-79588380D01*
X133104095Y-79636000D01*
X133151714Y-79683619D01*
X133199333Y-79778857D01*
X133199333Y-79921714D01*
X133151714Y-80016952D01*
X133104095Y-80064571D01*
X133008857Y-80112190D01*
X132627904Y-80112190D01*
X133532666Y-79588380D02*
X134199333Y-79588380D01*
X133770761Y-80588380D01*
D12*
%TO.C,J1*%
X117654251Y-78933040D02*
X118089680Y-78933040D01*
X118176765Y-78962068D01*
X118234822Y-79020125D01*
X118263851Y-79107211D01*
X118263851Y-79165268D01*
X118263851Y-78323440D02*
X118263851Y-78671782D01*
X118263851Y-78497611D02*
X117654251Y-78497611D01*
X117741337Y-78555668D01*
X117799394Y-78613725D01*
X117828422Y-78671782D01*
D11*
%TO.C,D1*%
X131849904Y-76398380D02*
X131849904Y-75398380D01*
X132088000Y-75398380D01*
X132230857Y-75446000D01*
X132326095Y-75541238D01*
X132373714Y-75636476D01*
X132421333Y-75826952D01*
X132421333Y-75969809D01*
X132373714Y-76160285D01*
X132326095Y-76255523D01*
X132230857Y-76350761D01*
X132088000Y-76398380D01*
X131849904Y-76398380D01*
X133373714Y-76398380D02*
X132802285Y-76398380D01*
X133088000Y-76398380D02*
X133088000Y-75398380D01*
X132992761Y-75541238D01*
X132897523Y-75636476D01*
X132802285Y-75684095D01*
%TO.C,C1*%
X128881142Y-79922666D02*
X128928761Y-79970285D01*
X128976380Y-80113142D01*
X128976380Y-80208380D01*
X128928761Y-80351238D01*
X128833523Y-80446476D01*
X128738285Y-80494095D01*
X128547809Y-80541714D01*
X128404952Y-80541714D01*
X128214476Y-80494095D01*
X128119238Y-80446476D01*
X128024000Y-80351238D01*
X127976380Y-80208380D01*
X127976380Y-80113142D01*
X128024000Y-79970285D01*
X128071619Y-79922666D01*
X128976380Y-78970285D02*
X128976380Y-79541714D01*
X128976380Y-79256000D02*
X127976380Y-79256000D01*
X128119238Y-79351238D01*
X128214476Y-79446476D01*
X128262095Y-79541714D01*
%TO.C,REF\u002A\u002A*%
G36*
X107189833Y-79682663D02*
G01*
X107192048Y-79720850D01*
X107193784Y-79778886D01*
X107194899Y-79852180D01*
X107195257Y-79929055D01*
X107195257Y-80189196D01*
X107149326Y-80235127D01*
X107117675Y-80263429D01*
X107089890Y-80274893D01*
X107051915Y-80274168D01*
X107036840Y-80272321D01*
X106989726Y-80266948D01*
X106950756Y-80263869D01*
X106941257Y-80263585D01*
X106909233Y-80265445D01*
X106863432Y-80270114D01*
X106845674Y-80272321D01*
X106802057Y-80275735D01*
X106772745Y-80268320D01*
X106743680Y-80245427D01*
X106733188Y-80235127D01*
X106687257Y-80189196D01*
X106687257Y-79702602D01*
X106724226Y-79685758D01*
X106756059Y-79673282D01*
X106774683Y-79668914D01*
X106779458Y-79682718D01*
X106783921Y-79721286D01*
X106787775Y-79780356D01*
X106790722Y-79855663D01*
X106792143Y-79919286D01*
X106796114Y-80169657D01*
X106830759Y-80174556D01*
X106862268Y-80171131D01*
X106877708Y-80160041D01*
X106882023Y-80139308D01*
X106885708Y-80095145D01*
X106888469Y-80033146D01*
X106890012Y-79958909D01*
X106890235Y-79920706D01*
X106890457Y-79700783D01*
X106936166Y-79684849D01*
X106968518Y-79674015D01*
X106986115Y-79668962D01*
X106986623Y-79668914D01*
X106988388Y-79682648D01*
X106990329Y-79720730D01*
X106992282Y-79778482D01*
X106994084Y-79851227D01*
X106995343Y-79919286D01*
X106999314Y-80169657D01*
X107086400Y-80169657D01*
X107090396Y-79941240D01*
X107094392Y-79712822D01*
X107136847Y-79690868D01*
X107168192Y-79675793D01*
X107186744Y-79668951D01*
X107187279Y-79668914D01*
X107189833Y-79682663D01*
G37*
D13*
X107189833Y-79682663D02*
X107192048Y-79720850D01*
X107193784Y-79778886D01*
X107194899Y-79852180D01*
X107195257Y-79929055D01*
X107195257Y-80189196D01*
X107149326Y-80235127D01*
X107117675Y-80263429D01*
X107089890Y-80274893D01*
X107051915Y-80274168D01*
X107036840Y-80272321D01*
X106989726Y-80266948D01*
X106950756Y-80263869D01*
X106941257Y-80263585D01*
X106909233Y-80265445D01*
X106863432Y-80270114D01*
X106845674Y-80272321D01*
X106802057Y-80275735D01*
X106772745Y-80268320D01*
X106743680Y-80245427D01*
X106733188Y-80235127D01*
X106687257Y-80189196D01*
X106687257Y-79702602D01*
X106724226Y-79685758D01*
X106756059Y-79673282D01*
X106774683Y-79668914D01*
X106779458Y-79682718D01*
X106783921Y-79721286D01*
X106787775Y-79780356D01*
X106790722Y-79855663D01*
X106792143Y-79919286D01*
X106796114Y-80169657D01*
X106830759Y-80174556D01*
X106862268Y-80171131D01*
X106877708Y-80160041D01*
X106882023Y-80139308D01*
X106885708Y-80095145D01*
X106888469Y-80033146D01*
X106890012Y-79958909D01*
X106890235Y-79920706D01*
X106890457Y-79700783D01*
X106936166Y-79684849D01*
X106968518Y-79674015D01*
X106986115Y-79668962D01*
X106986623Y-79668914D01*
X106988388Y-79682648D01*
X106990329Y-79720730D01*
X106992282Y-79778482D01*
X106994084Y-79851227D01*
X106995343Y-79919286D01*
X106999314Y-80169657D01*
X107086400Y-80169657D01*
X107090396Y-79941240D01*
X107094392Y-79712822D01*
X107136847Y-79690868D01*
X107168192Y-79675793D01*
X107186744Y-79668951D01*
X107187279Y-79668914D01*
X107189833Y-79682663D01*
G36*
X102147096Y-79832159D02*
G01*
X102152068Y-79795949D01*
X102160713Y-79769299D01*
X102174005Y-79745722D01*
X102176943Y-79741338D01*
X102226313Y-79682249D01*
X102280109Y-79647947D01*
X102345602Y-79634331D01*
X102367842Y-79633665D01*
X102451115Y-79645962D01*
X102519145Y-79681733D01*
X102569351Y-79739301D01*
X102587185Y-79776312D01*
X102601063Y-79831882D01*
X102608167Y-79902096D01*
X102608840Y-79978727D01*
X102603427Y-80053552D01*
X102592270Y-80118342D01*
X102575714Y-80164873D01*
X102570626Y-80172887D01*
X102510355Y-80232707D01*
X102438769Y-80268535D01*
X102361092Y-80279020D01*
X102282548Y-80262810D01*
X102260689Y-80253092D01*
X102218122Y-80223143D01*
X102180763Y-80183433D01*
X102177232Y-80178397D01*
X102162881Y-80154124D01*
X102153394Y-80128178D01*
X102147790Y-80094022D01*
X102145086Y-80045119D01*
X102144299Y-79974935D01*
X102144286Y-79959200D01*
X102144322Y-79954192D01*
X102289429Y-79954192D01*
X102290273Y-80020430D01*
X102293596Y-80064386D01*
X102300583Y-80092779D01*
X102312416Y-80112325D01*
X102318457Y-80118857D01*
X102353186Y-80143680D01*
X102386903Y-80142548D01*
X102420995Y-80121016D01*
X102441329Y-80098029D01*
X102453371Y-80064478D01*
X102460134Y-80011569D01*
X102460598Y-80005399D01*
X102461752Y-79909513D01*
X102449688Y-79838299D01*
X102424570Y-79792194D01*
X102386560Y-79771635D01*
X102372992Y-79770514D01*
X102337364Y-79776152D01*
X102312994Y-79795686D01*
X102298093Y-79833042D01*
X102290875Y-79892150D01*
X102289429Y-79954192D01*
X102144322Y-79954192D01*
X102144826Y-79884413D01*
X102147096Y-79832159D01*
G37*
X102147096Y-79832159D02*
X102152068Y-79795949D01*
X102160713Y-79769299D01*
X102174005Y-79745722D01*
X102176943Y-79741338D01*
X102226313Y-79682249D01*
X102280109Y-79647947D01*
X102345602Y-79634331D01*
X102367842Y-79633665D01*
X102451115Y-79645962D01*
X102519145Y-79681733D01*
X102569351Y-79739301D01*
X102587185Y-79776312D01*
X102601063Y-79831882D01*
X102608167Y-79902096D01*
X102608840Y-79978727D01*
X102603427Y-80053552D01*
X102592270Y-80118342D01*
X102575714Y-80164873D01*
X102570626Y-80172887D01*
X102510355Y-80232707D01*
X102438769Y-80268535D01*
X102361092Y-80279020D01*
X102282548Y-80262810D01*
X102260689Y-80253092D01*
X102218122Y-80223143D01*
X102180763Y-80183433D01*
X102177232Y-80178397D01*
X102162881Y-80154124D01*
X102153394Y-80128178D01*
X102147790Y-80094022D01*
X102145086Y-80045119D01*
X102144299Y-79974935D01*
X102144286Y-79959200D01*
X102144322Y-79954192D01*
X102289429Y-79954192D01*
X102290273Y-80020430D01*
X102293596Y-80064386D01*
X102300583Y-80092779D01*
X102312416Y-80112325D01*
X102318457Y-80118857D01*
X102353186Y-80143680D01*
X102386903Y-80142548D01*
X102420995Y-80121016D01*
X102441329Y-80098029D01*
X102453371Y-80064478D01*
X102460134Y-80011569D01*
X102460598Y-80005399D01*
X102461752Y-79909513D01*
X102449688Y-79838299D01*
X102424570Y-79792194D01*
X102386560Y-79771635D01*
X102372992Y-79770514D01*
X102337364Y-79776152D01*
X102312994Y-79795686D01*
X102298093Y-79833042D01*
X102290875Y-79892150D01*
X102289429Y-79954192D01*
X102144322Y-79954192D01*
X102144826Y-79884413D01*
X102147096Y-79832159D01*
G36*
X108278196Y-79819384D02*
G01*
X108291884Y-79770695D01*
X108314096Y-79734849D01*
X108346574Y-79706513D01*
X108360733Y-79697355D01*
X108425053Y-79673507D01*
X108495473Y-79672006D01*
X108563595Y-79690966D01*
X108621021Y-79728497D01*
X108648719Y-79762096D01*
X108670662Y-79823064D01*
X108672405Y-79871308D01*
X108668457Y-79935816D01*
X108519686Y-80000934D01*
X108447349Y-80034202D01*
X108400084Y-80060964D01*
X108375507Y-80084144D01*
X108371237Y-80106667D01*
X108384889Y-80131455D01*
X108399943Y-80147886D01*
X108443746Y-80174235D01*
X108491389Y-80176081D01*
X108535145Y-80155546D01*
X108567289Y-80114752D01*
X108573038Y-80100347D01*
X108600576Y-80055356D01*
X108632258Y-80036182D01*
X108675714Y-80019779D01*
X108675714Y-80081966D01*
X108671872Y-80124283D01*
X108656823Y-80159969D01*
X108625280Y-80200943D01*
X108620592Y-80206267D01*
X108585506Y-80242720D01*
X108555347Y-80262283D01*
X108517615Y-80271283D01*
X108486335Y-80274230D01*
X108430385Y-80274965D01*
X108390555Y-80265660D01*
X108365708Y-80251846D01*
X108326656Y-80221467D01*
X108299625Y-80188613D01*
X108282517Y-80147294D01*
X108273238Y-80091521D01*
X108269693Y-80015305D01*
X108269410Y-79976622D01*
X108270372Y-79930247D01*
X108358007Y-79930247D01*
X108359023Y-79955126D01*
X108361556Y-79959200D01*
X108378274Y-79953665D01*
X108414249Y-79939017D01*
X108462331Y-79918190D01*
X108472386Y-79913714D01*
X108533152Y-79882814D01*
X108566632Y-79855657D01*
X108573990Y-79830220D01*
X108556391Y-79804481D01*
X108541856Y-79793109D01*
X108489410Y-79770364D01*
X108440322Y-79774122D01*
X108399227Y-79801884D01*
X108370758Y-79851152D01*
X108361631Y-79890257D01*
X108358007Y-79930247D01*
X108270372Y-79930247D01*
X108271285Y-79886249D01*
X108278196Y-79819384D01*
G37*
X108278196Y-79819384D02*
X108291884Y-79770695D01*
X108314096Y-79734849D01*
X108346574Y-79706513D01*
X108360733Y-79697355D01*
X108425053Y-79673507D01*
X108495473Y-79672006D01*
X108563595Y-79690966D01*
X108621021Y-79728497D01*
X108648719Y-79762096D01*
X108670662Y-79823064D01*
X108672405Y-79871308D01*
X108668457Y-79935816D01*
X108519686Y-80000934D01*
X108447349Y-80034202D01*
X108400084Y-80060964D01*
X108375507Y-80084144D01*
X108371237Y-80106667D01*
X108384889Y-80131455D01*
X108399943Y-80147886D01*
X108443746Y-80174235D01*
X108491389Y-80176081D01*
X108535145Y-80155546D01*
X108567289Y-80114752D01*
X108573038Y-80100347D01*
X108600576Y-80055356D01*
X108632258Y-80036182D01*
X108675714Y-80019779D01*
X108675714Y-80081966D01*
X108671872Y-80124283D01*
X108656823Y-80159969D01*
X108625280Y-80200943D01*
X108620592Y-80206267D01*
X108585506Y-80242720D01*
X108555347Y-80262283D01*
X108517615Y-80271283D01*
X108486335Y-80274230D01*
X108430385Y-80274965D01*
X108390555Y-80265660D01*
X108365708Y-80251846D01*
X108326656Y-80221467D01*
X108299625Y-80188613D01*
X108282517Y-80147294D01*
X108273238Y-80091521D01*
X108269693Y-80015305D01*
X108269410Y-79976622D01*
X108270372Y-79930247D01*
X108358007Y-79930247D01*
X108359023Y-79955126D01*
X108361556Y-79959200D01*
X108378274Y-79953665D01*
X108414249Y-79939017D01*
X108462331Y-79918190D01*
X108472386Y-79913714D01*
X108533152Y-79882814D01*
X108566632Y-79855657D01*
X108573990Y-79830220D01*
X108556391Y-79804481D01*
X108541856Y-79793109D01*
X108489410Y-79770364D01*
X108440322Y-79774122D01*
X108399227Y-79801884D01*
X108370758Y-79851152D01*
X108361631Y-79890257D01*
X108358007Y-79930247D01*
X108270372Y-79930247D01*
X108271285Y-79886249D01*
X108278196Y-79819384D01*
G36*
X104126093Y-79651780D02*
G01*
X104172672Y-79678723D01*
X104205057Y-79705466D01*
X104228742Y-79733484D01*
X104245059Y-79767748D01*
X104255339Y-79813227D01*
X104260914Y-79874892D01*
X104263116Y-79957711D01*
X104263371Y-80017246D01*
X104263371Y-80236391D01*
X104201686Y-80264044D01*
X104140000Y-80291697D01*
X104132743Y-80051670D01*
X104129744Y-79962028D01*
X104126598Y-79896962D01*
X104122701Y-79852026D01*
X104117447Y-79822770D01*
X104110231Y-79804748D01*
X104100450Y-79793511D01*
X104097312Y-79791079D01*
X104049761Y-79772083D01*
X104001697Y-79779600D01*
X103973086Y-79799543D01*
X103961447Y-79813675D01*
X103953391Y-79832220D01*
X103948271Y-79860334D01*
X103945441Y-79903173D01*
X103944256Y-79965895D01*
X103944057Y-80031261D01*
X103944018Y-80113268D01*
X103942614Y-80171316D01*
X103937914Y-80210465D01*
X103927987Y-80235780D01*
X103910903Y-80252323D01*
X103884732Y-80265156D01*
X103849775Y-80278491D01*
X103811596Y-80293007D01*
X103816141Y-80035389D01*
X103817971Y-79942519D01*
X103820112Y-79873889D01*
X103823181Y-79824711D01*
X103827794Y-79790198D01*
X103834568Y-79765562D01*
X103844119Y-79746016D01*
X103855634Y-79728770D01*
X103911190Y-79673680D01*
X103978980Y-79641822D01*
X104052713Y-79634191D01*
X104126093Y-79651780D01*
G37*
X104126093Y-79651780D02*
X104172672Y-79678723D01*
X104205057Y-79705466D01*
X104228742Y-79733484D01*
X104245059Y-79767748D01*
X104255339Y-79813227D01*
X104260914Y-79874892D01*
X104263116Y-79957711D01*
X104263371Y-80017246D01*
X104263371Y-80236391D01*
X104201686Y-80264044D01*
X104140000Y-80291697D01*
X104132743Y-80051670D01*
X104129744Y-79962028D01*
X104126598Y-79896962D01*
X104122701Y-79852026D01*
X104117447Y-79822770D01*
X104110231Y-79804748D01*
X104100450Y-79793511D01*
X104097312Y-79791079D01*
X104049761Y-79772083D01*
X104001697Y-79779600D01*
X103973086Y-79799543D01*
X103961447Y-79813675D01*
X103953391Y-79832220D01*
X103948271Y-79860334D01*
X103945441Y-79903173D01*
X103944256Y-79965895D01*
X103944057Y-80031261D01*
X103944018Y-80113268D01*
X103942614Y-80171316D01*
X103937914Y-80210465D01*
X103927987Y-80235780D01*
X103910903Y-80252323D01*
X103884732Y-80265156D01*
X103849775Y-80278491D01*
X103811596Y-80293007D01*
X103816141Y-80035389D01*
X103817971Y-79942519D01*
X103820112Y-79873889D01*
X103823181Y-79824711D01*
X103827794Y-79790198D01*
X103834568Y-79765562D01*
X103844119Y-79746016D01*
X103855634Y-79728770D01*
X103911190Y-79673680D01*
X103978980Y-79641822D01*
X104052713Y-79634191D01*
X104126093Y-79651780D01*
G36*
X108062600Y-79682752D02*
G01*
X108079948Y-79690334D01*
X108121356Y-79723128D01*
X108156765Y-79770547D01*
X108178664Y-79821151D01*
X108182229Y-79846098D01*
X108170279Y-79880927D01*
X108144067Y-79899357D01*
X108115964Y-79910516D01*
X108103095Y-79912572D01*
X108096829Y-79897649D01*
X108084456Y-79865175D01*
X108079028Y-79850502D01*
X108048590Y-79799744D01*
X108004520Y-79774427D01*
X107948010Y-79775206D01*
X107943825Y-79776203D01*
X107913655Y-79790507D01*
X107891476Y-79818393D01*
X107876327Y-79863287D01*
X107867250Y-79928615D01*
X107863286Y-80017804D01*
X107862914Y-80065261D01*
X107862730Y-80140071D01*
X107861522Y-80191069D01*
X107858309Y-80223471D01*
X107852109Y-80242495D01*
X107841940Y-80253356D01*
X107826819Y-80261272D01*
X107825946Y-80261670D01*
X107796828Y-80273981D01*
X107782403Y-80278514D01*
X107780186Y-80264809D01*
X107778289Y-80226925D01*
X107776847Y-80169715D01*
X107775998Y-80098027D01*
X107775829Y-80045565D01*
X107776692Y-79944047D01*
X107780070Y-79867032D01*
X107787142Y-79810023D01*
X107799088Y-79768526D01*
X107817090Y-79738043D01*
X107842327Y-79714080D01*
X107867247Y-79697355D01*
X107927171Y-79675097D01*
X107996911Y-79670076D01*
X108062600Y-79682752D01*
G37*
X108062600Y-79682752D02*
X108079948Y-79690334D01*
X108121356Y-79723128D01*
X108156765Y-79770547D01*
X108178664Y-79821151D01*
X108182229Y-79846098D01*
X108170279Y-79880927D01*
X108144067Y-79899357D01*
X108115964Y-79910516D01*
X108103095Y-79912572D01*
X108096829Y-79897649D01*
X108084456Y-79865175D01*
X108079028Y-79850502D01*
X108048590Y-79799744D01*
X108004520Y-79774427D01*
X107948010Y-79775206D01*
X107943825Y-79776203D01*
X107913655Y-79790507D01*
X107891476Y-79818393D01*
X107876327Y-79863287D01*
X107867250Y-79928615D01*
X107863286Y-80017804D01*
X107862914Y-80065261D01*
X107862730Y-80140071D01*
X107861522Y-80191069D01*
X107858309Y-80223471D01*
X107852109Y-80242495D01*
X107841940Y-80253356D01*
X107826819Y-80261272D01*
X107825946Y-80261670D01*
X107796828Y-80273981D01*
X107782403Y-80278514D01*
X107780186Y-80264809D01*
X107778289Y-80226925D01*
X107776847Y-80169715D01*
X107775998Y-80098027D01*
X107775829Y-80045565D01*
X107776692Y-79944047D01*
X107780070Y-79867032D01*
X107787142Y-79810023D01*
X107799088Y-79768526D01*
X107817090Y-79738043D01*
X107842327Y-79714080D01*
X107867247Y-79697355D01*
X107927171Y-79675097D01*
X107996911Y-79670076D01*
X108062600Y-79682752D01*
G36*
X106194726Y-79814086D02*
G01*
X106217135Y-79762600D01*
X106252124Y-79722443D01*
X106279375Y-79701861D01*
X106328907Y-79679625D01*
X106386316Y-79669304D01*
X106439682Y-79672067D01*
X106469543Y-79683212D01*
X106481261Y-79686383D01*
X106489037Y-79674557D01*
X106494465Y-79642866D01*
X106498571Y-79594593D01*
X106503067Y-79540829D01*
X106509313Y-79508482D01*
X106520676Y-79489985D01*
X106540528Y-79477770D01*
X106553000Y-79472362D01*
X106600171Y-79452601D01*
X106600117Y-79789358D01*
X106599933Y-79897837D01*
X106599219Y-79981287D01*
X106597675Y-80043704D01*
X106595001Y-80089085D01*
X106590894Y-80121429D01*
X106585055Y-80144733D01*
X106577182Y-80162995D01*
X106571221Y-80173418D01*
X106521855Y-80229945D01*
X106459264Y-80265377D01*
X106390013Y-80278090D01*
X106320668Y-80266463D01*
X106279375Y-80245568D01*
X106236025Y-80209422D01*
X106206481Y-80165276D01*
X106188655Y-80107462D01*
X106180463Y-80030313D01*
X106179302Y-79973714D01*
X106179458Y-79969647D01*
X106280857Y-79969647D01*
X106281476Y-80034550D01*
X106284314Y-80077514D01*
X106290840Y-80105622D01*
X106302523Y-80125953D01*
X106316483Y-80141288D01*
X106363365Y-80170890D01*
X106413701Y-80173419D01*
X106461276Y-80148705D01*
X106464979Y-80145356D01*
X106480783Y-80127935D01*
X106490693Y-80107209D01*
X106496058Y-80076362D01*
X106498228Y-80028577D01*
X106498571Y-79975748D01*
X106497827Y-79909381D01*
X106494748Y-79865106D01*
X106488061Y-79836009D01*
X106476496Y-79815173D01*
X106467013Y-79804107D01*
X106422960Y-79776198D01*
X106372224Y-79772843D01*
X106323796Y-79794159D01*
X106314450Y-79802073D01*
X106298540Y-79819647D01*
X106288610Y-79840587D01*
X106283278Y-79871782D01*
X106281163Y-79920122D01*
X106280857Y-79969647D01*
X106179458Y-79969647D01*
X106182810Y-79882568D01*
X106194726Y-79814086D01*
G37*
X106194726Y-79814086D02*
X106217135Y-79762600D01*
X106252124Y-79722443D01*
X106279375Y-79701861D01*
X106328907Y-79679625D01*
X106386316Y-79669304D01*
X106439682Y-79672067D01*
X106469543Y-79683212D01*
X106481261Y-79686383D01*
X106489037Y-79674557D01*
X106494465Y-79642866D01*
X106498571Y-79594593D01*
X106503067Y-79540829D01*
X106509313Y-79508482D01*
X106520676Y-79489985D01*
X106540528Y-79477770D01*
X106553000Y-79472362D01*
X106600171Y-79452601D01*
X106600117Y-79789358D01*
X106599933Y-79897837D01*
X106599219Y-79981287D01*
X106597675Y-80043704D01*
X106595001Y-80089085D01*
X106590894Y-80121429D01*
X106585055Y-80144733D01*
X106577182Y-80162995D01*
X106571221Y-80173418D01*
X106521855Y-80229945D01*
X106459264Y-80265377D01*
X106390013Y-80278090D01*
X106320668Y-80266463D01*
X106279375Y-80245568D01*
X106236025Y-80209422D01*
X106206481Y-80165276D01*
X106188655Y-80107462D01*
X106180463Y-80030313D01*
X106179302Y-79973714D01*
X106179458Y-79969647D01*
X106280857Y-79969647D01*
X106281476Y-80034550D01*
X106284314Y-80077514D01*
X106290840Y-80105622D01*
X106302523Y-80125953D01*
X106316483Y-80141288D01*
X106363365Y-80170890D01*
X106413701Y-80173419D01*
X106461276Y-80148705D01*
X106464979Y-80145356D01*
X106480783Y-80127935D01*
X106490693Y-80107209D01*
X106496058Y-80076362D01*
X106498228Y-80028577D01*
X106498571Y-79975748D01*
X106497827Y-79909381D01*
X106494748Y-79865106D01*
X106488061Y-79836009D01*
X106476496Y-79815173D01*
X106467013Y-79804107D01*
X106422960Y-79776198D01*
X106372224Y-79772843D01*
X106323796Y-79794159D01*
X106314450Y-79802073D01*
X106298540Y-79819647D01*
X106288610Y-79840587D01*
X106283278Y-79871782D01*
X106281163Y-79920122D01*
X106280857Y-79969647D01*
X106179458Y-79969647D01*
X106182810Y-79882568D01*
X106194726Y-79814086D01*
G36*
X104785886Y-79575289D02*
G01*
X104790139Y-79634613D01*
X104795025Y-79669572D01*
X104801795Y-79684820D01*
X104811702Y-79685015D01*
X104814914Y-79683195D01*
X104857644Y-79670015D01*
X104913227Y-79670785D01*
X104969737Y-79684333D01*
X105005082Y-79701861D01*
X105041321Y-79729861D01*
X105067813Y-79761549D01*
X105085999Y-79801813D01*
X105097322Y-79855543D01*
X105103222Y-79927626D01*
X105105143Y-80022951D01*
X105105177Y-80041237D01*
X105105200Y-80246646D01*
X105059491Y-80262580D01*
X105027027Y-80273420D01*
X105009215Y-80278468D01*
X105008691Y-80278514D01*
X105006937Y-80264828D01*
X105005444Y-80227076D01*
X105004326Y-80170224D01*
X105003697Y-80099234D01*
X105003600Y-80056073D01*
X105003398Y-79970973D01*
X105002358Y-79909981D01*
X104999831Y-79868177D01*
X104995164Y-79840642D01*
X104987707Y-79822456D01*
X104976811Y-79808698D01*
X104970007Y-79802073D01*
X104923272Y-79775375D01*
X104872272Y-79773375D01*
X104826001Y-79795955D01*
X104817444Y-79804107D01*
X104804893Y-79819436D01*
X104796188Y-79837618D01*
X104790631Y-79863909D01*
X104787526Y-79903562D01*
X104786176Y-79961832D01*
X104785886Y-80042173D01*
X104785886Y-80246646D01*
X104740177Y-80262580D01*
X104707713Y-80273420D01*
X104689901Y-80278468D01*
X104689377Y-80278514D01*
X104688037Y-80264623D01*
X104686828Y-80225439D01*
X104685801Y-80164700D01*
X104685002Y-80086141D01*
X104684481Y-79993498D01*
X104684286Y-79890509D01*
X104684286Y-79493342D01*
X104731457Y-79473444D01*
X104778629Y-79453547D01*
X104785886Y-79575289D01*
G37*
X104785886Y-79575289D02*
X104790139Y-79634613D01*
X104795025Y-79669572D01*
X104801795Y-79684820D01*
X104811702Y-79685015D01*
X104814914Y-79683195D01*
X104857644Y-79670015D01*
X104913227Y-79670785D01*
X104969737Y-79684333D01*
X105005082Y-79701861D01*
X105041321Y-79729861D01*
X105067813Y-79761549D01*
X105085999Y-79801813D01*
X105097322Y-79855543D01*
X105103222Y-79927626D01*
X105105143Y-80022951D01*
X105105177Y-80041237D01*
X105105200Y-80246646D01*
X105059491Y-80262580D01*
X105027027Y-80273420D01*
X105009215Y-80278468D01*
X105008691Y-80278514D01*
X105006937Y-80264828D01*
X105005444Y-80227076D01*
X105004326Y-80170224D01*
X105003697Y-80099234D01*
X105003600Y-80056073D01*
X105003398Y-79970973D01*
X105002358Y-79909981D01*
X104999831Y-79868177D01*
X104995164Y-79840642D01*
X104987707Y-79822456D01*
X104976811Y-79808698D01*
X104970007Y-79802073D01*
X104923272Y-79775375D01*
X104872272Y-79773375D01*
X104826001Y-79795955D01*
X104817444Y-79804107D01*
X104804893Y-79819436D01*
X104796188Y-79837618D01*
X104790631Y-79863909D01*
X104787526Y-79903562D01*
X104786176Y-79961832D01*
X104785886Y-80042173D01*
X104785886Y-80246646D01*
X104740177Y-80262580D01*
X104707713Y-80273420D01*
X104689901Y-80278468D01*
X104689377Y-80278514D01*
X104688037Y-80264623D01*
X104686828Y-80225439D01*
X104685801Y-80164700D01*
X104685002Y-80086141D01*
X104684481Y-79993498D01*
X104684286Y-79890509D01*
X104684286Y-79493342D01*
X104731457Y-79473444D01*
X104778629Y-79453547D01*
X104785886Y-79575289D01*
G36*
X105449744Y-79674968D02*
G01*
X105506616Y-79696087D01*
X105507267Y-79696493D01*
X105542440Y-79722380D01*
X105568407Y-79752633D01*
X105586670Y-79792058D01*
X105598732Y-79845462D01*
X105606096Y-79917651D01*
X105610264Y-80013432D01*
X105610629Y-80027078D01*
X105615876Y-80232842D01*
X105571716Y-80255678D01*
X105539763Y-80271110D01*
X105520470Y-80278423D01*
X105519578Y-80278514D01*
X105516239Y-80265022D01*
X105513587Y-80228626D01*
X105511956Y-80175452D01*
X105511600Y-80132393D01*
X105511592Y-80062641D01*
X105508403Y-80018837D01*
X105497288Y-79997944D01*
X105473501Y-79996925D01*
X105432296Y-80012741D01*
X105370086Y-80041815D01*
X105324341Y-80065963D01*
X105300813Y-80086913D01*
X105293896Y-80109747D01*
X105293886Y-80110877D01*
X105305299Y-80150212D01*
X105339092Y-80171462D01*
X105390809Y-80174539D01*
X105428061Y-80174006D01*
X105447703Y-80184735D01*
X105459952Y-80210505D01*
X105467002Y-80243337D01*
X105456842Y-80261966D01*
X105453017Y-80264632D01*
X105417001Y-80275340D01*
X105366566Y-80276856D01*
X105314626Y-80269759D01*
X105277822Y-80256788D01*
X105226938Y-80213585D01*
X105198014Y-80153446D01*
X105192286Y-80106462D01*
X105196657Y-80064082D01*
X105212475Y-80029488D01*
X105243797Y-79998763D01*
X105294678Y-79967990D01*
X105369176Y-79933252D01*
X105373714Y-79931288D01*
X105440821Y-79900287D01*
X105482232Y-79874862D01*
X105499981Y-79852014D01*
X105496107Y-79828745D01*
X105472643Y-79802056D01*
X105465627Y-79795914D01*
X105418630Y-79772100D01*
X105369933Y-79773103D01*
X105327522Y-79796451D01*
X105299384Y-79839675D01*
X105296769Y-79848160D01*
X105271308Y-79889308D01*
X105239001Y-79909128D01*
X105192286Y-79928770D01*
X105192286Y-79877950D01*
X105206496Y-79804082D01*
X105248675Y-79736327D01*
X105270624Y-79713661D01*
X105320517Y-79684569D01*
X105383967Y-79671400D01*
X105449744Y-79674968D01*
G37*
X105449744Y-79674968D02*
X105506616Y-79696087D01*
X105507267Y-79696493D01*
X105542440Y-79722380D01*
X105568407Y-79752633D01*
X105586670Y-79792058D01*
X105598732Y-79845462D01*
X105606096Y-79917651D01*
X105610264Y-80013432D01*
X105610629Y-80027078D01*
X105615876Y-80232842D01*
X105571716Y-80255678D01*
X105539763Y-80271110D01*
X105520470Y-80278423D01*
X105519578Y-80278514D01*
X105516239Y-80265022D01*
X105513587Y-80228626D01*
X105511956Y-80175452D01*
X105511600Y-80132393D01*
X105511592Y-80062641D01*
X105508403Y-80018837D01*
X105497288Y-79997944D01*
X105473501Y-79996925D01*
X105432296Y-80012741D01*
X105370086Y-80041815D01*
X105324341Y-80065963D01*
X105300813Y-80086913D01*
X105293896Y-80109747D01*
X105293886Y-80110877D01*
X105305299Y-80150212D01*
X105339092Y-80171462D01*
X105390809Y-80174539D01*
X105428061Y-80174006D01*
X105447703Y-80184735D01*
X105459952Y-80210505D01*
X105467002Y-80243337D01*
X105456842Y-80261966D01*
X105453017Y-80264632D01*
X105417001Y-80275340D01*
X105366566Y-80276856D01*
X105314626Y-80269759D01*
X105277822Y-80256788D01*
X105226938Y-80213585D01*
X105198014Y-80153446D01*
X105192286Y-80106462D01*
X105196657Y-80064082D01*
X105212475Y-80029488D01*
X105243797Y-79998763D01*
X105294678Y-79967990D01*
X105369176Y-79933252D01*
X105373714Y-79931288D01*
X105440821Y-79900287D01*
X105482232Y-79874862D01*
X105499981Y-79852014D01*
X105496107Y-79828745D01*
X105472643Y-79802056D01*
X105465627Y-79795914D01*
X105418630Y-79772100D01*
X105369933Y-79773103D01*
X105327522Y-79796451D01*
X105299384Y-79839675D01*
X105296769Y-79848160D01*
X105271308Y-79889308D01*
X105239001Y-79909128D01*
X105192286Y-79928770D01*
X105192286Y-79877950D01*
X105206496Y-79804082D01*
X105248675Y-79736327D01*
X105270624Y-79713661D01*
X105320517Y-79684569D01*
X105383967Y-79671400D01*
X105449744Y-79674968D01*
G36*
X105513910Y-74966348D02*
G01*
X105592454Y-74966778D01*
X105649298Y-74967942D01*
X105688105Y-74970207D01*
X105712538Y-74973940D01*
X105726262Y-74979506D01*
X105732940Y-74987273D01*
X105736236Y-74997605D01*
X105736556Y-74998943D01*
X105741562Y-75023079D01*
X105750829Y-75070701D01*
X105763392Y-75136741D01*
X105778287Y-75216128D01*
X105794551Y-75303796D01*
X105795119Y-75306875D01*
X105811410Y-75392789D01*
X105826652Y-75468696D01*
X105839861Y-75530045D01*
X105850054Y-75572282D01*
X105856248Y-75590855D01*
X105856543Y-75591184D01*
X105874788Y-75600253D01*
X105912405Y-75615367D01*
X105961271Y-75633262D01*
X105961543Y-75633358D01*
X106023093Y-75656493D01*
X106095657Y-75685965D01*
X106164057Y-75715597D01*
X106167294Y-75717062D01*
X106278702Y-75767626D01*
X106525399Y-75599160D01*
X106601077Y-75547803D01*
X106669631Y-75501889D01*
X106727088Y-75464030D01*
X106769476Y-75436837D01*
X106792825Y-75422921D01*
X106795042Y-75421889D01*
X106812010Y-75426484D01*
X106843701Y-75448655D01*
X106891352Y-75489447D01*
X106956198Y-75549905D01*
X107022397Y-75614227D01*
X107086214Y-75677612D01*
X107143329Y-75735451D01*
X107190305Y-75784175D01*
X107223703Y-75820210D01*
X107240085Y-75839984D01*
X107240694Y-75841002D01*
X107242505Y-75854572D01*
X107235683Y-75876733D01*
X107218540Y-75910478D01*
X107189393Y-75958800D01*
X107146555Y-76024692D01*
X107089448Y-76109517D01*
X107038766Y-76184177D01*
X106993461Y-76251140D01*
X106956150Y-76306516D01*
X106929452Y-76346420D01*
X106915985Y-76366962D01*
X106915137Y-76368356D01*
X106916781Y-76388038D01*
X106929245Y-76426293D01*
X106950048Y-76475889D01*
X106957462Y-76491728D01*
X106989814Y-76562290D01*
X107024328Y-76642353D01*
X107052365Y-76711629D01*
X107072568Y-76763045D01*
X107088615Y-76802119D01*
X107097888Y-76822541D01*
X107099041Y-76824114D01*
X107116096Y-76826721D01*
X107156298Y-76833863D01*
X107214302Y-76844523D01*
X107284763Y-76857685D01*
X107362335Y-76872333D01*
X107441672Y-76887449D01*
X107517431Y-76902018D01*
X107584264Y-76915022D01*
X107636828Y-76925445D01*
X107669776Y-76932270D01*
X107677857Y-76934199D01*
X107686205Y-76938962D01*
X107692506Y-76949718D01*
X107697045Y-76970098D01*
X107700104Y-77003734D01*
X107701967Y-77054255D01*
X107702918Y-77125292D01*
X107703240Y-77220476D01*
X107703257Y-77259492D01*
X107703257Y-77576799D01*
X107627057Y-77591839D01*
X107584663Y-77599995D01*
X107521400Y-77611899D01*
X107444962Y-77626116D01*
X107363043Y-77641210D01*
X107340400Y-77645355D01*
X107264806Y-77660053D01*
X107198953Y-77674505D01*
X107148366Y-77687375D01*
X107118574Y-77697322D01*
X107113612Y-77700287D01*
X107101426Y-77721283D01*
X107083953Y-77761967D01*
X107064577Y-77814322D01*
X107060734Y-77825600D01*
X107035339Y-77895523D01*
X107003817Y-77974418D01*
X106972969Y-78045266D01*
X106972817Y-78045595D01*
X106921447Y-78156733D01*
X107090399Y-78405253D01*
X107259352Y-78653772D01*
X107042429Y-78871058D01*
X106976819Y-78935726D01*
X106916979Y-78992733D01*
X106866267Y-79039033D01*
X106828046Y-79071584D01*
X106805675Y-79087343D01*
X106802466Y-79088343D01*
X106783626Y-79080469D01*
X106745180Y-79058578D01*
X106691330Y-79025267D01*
X106626276Y-78983131D01*
X106555940Y-78935943D01*
X106484555Y-78887810D01*
X106420908Y-78845928D01*
X106369041Y-78812871D01*
X106332995Y-78791218D01*
X106316867Y-78783543D01*
X106297189Y-78790037D01*
X106259875Y-78807150D01*
X106212621Y-78831326D01*
X106207612Y-78834013D01*
X106143977Y-78865927D01*
X106100341Y-78881579D01*
X106073202Y-78881745D01*
X106059057Y-78867204D01*
X106058975Y-78867000D01*
X106051905Y-78849779D01*
X106035042Y-78808899D01*
X106009695Y-78747525D01*
X105977171Y-78668819D01*
X105938778Y-78575947D01*
X105895822Y-78472072D01*
X105854222Y-78371502D01*
X105808504Y-78260516D01*
X105766526Y-78157703D01*
X105729548Y-78066215D01*
X105698827Y-77989201D01*
X105675622Y-77929815D01*
X105661190Y-77891209D01*
X105656743Y-77876800D01*
X105667896Y-77860272D01*
X105697069Y-77833930D01*
X105735971Y-77804887D01*
X105846757Y-77713039D01*
X105933351Y-77607759D01*
X105994716Y-77491266D01*
X106029815Y-77365776D01*
X106037608Y-77233507D01*
X106031943Y-77172457D01*
X106001078Y-77045795D01*
X105947920Y-76933941D01*
X105875767Y-76838001D01*
X105787917Y-76759076D01*
X105687665Y-76698270D01*
X105578310Y-76656687D01*
X105463147Y-76635428D01*
X105345475Y-76635599D01*
X105228590Y-76658301D01*
X105115789Y-76704638D01*
X105010369Y-76775713D01*
X104966368Y-76815911D01*
X104881979Y-76919129D01*
X104823222Y-77031925D01*
X104789704Y-77151010D01*
X104781035Y-77273095D01*
X104796823Y-77394893D01*
X104836678Y-77513116D01*
X104900207Y-77624475D01*
X104987021Y-77725684D01*
X105084029Y-77804887D01*
X105124437Y-77835162D01*
X105152982Y-77861219D01*
X105163257Y-77876825D01*
X105157877Y-77893843D01*
X105142575Y-77934500D01*
X105118612Y-77995642D01*
X105087244Y-78074119D01*
X105049732Y-78166780D01*
X105007333Y-78270472D01*
X104965663Y-78371526D01*
X104919690Y-78482607D01*
X104877107Y-78585541D01*
X104839221Y-78677165D01*
X104807340Y-78754316D01*
X104782771Y-78813831D01*
X104766820Y-78852544D01*
X104760910Y-78867000D01*
X104746948Y-78881685D01*
X104719940Y-78881642D01*
X104676413Y-78866099D01*
X104612890Y-78834284D01*
X104612388Y-78834013D01*
X104564560Y-78809323D01*
X104525897Y-78791338D01*
X104504095Y-78783614D01*
X104503133Y-78783543D01*
X104486721Y-78791378D01*
X104450487Y-78813165D01*
X104398474Y-78846328D01*
X104334725Y-78888291D01*
X104264060Y-78935943D01*
X104192116Y-78984191D01*
X104127274Y-79026151D01*
X104073735Y-79059227D01*
X104035697Y-79080821D01*
X104017533Y-79088343D01*
X104000808Y-79078457D01*
X103967180Y-79050826D01*
X103920010Y-79008495D01*
X103862658Y-78954505D01*
X103798484Y-78891899D01*
X103777497Y-78870983D01*
X103560499Y-78653623D01*
X103725668Y-78411220D01*
X103775864Y-78336781D01*
X103819919Y-78269972D01*
X103855362Y-78214665D01*
X103879719Y-78174729D01*
X103890522Y-78154036D01*
X103890838Y-78152563D01*
X103885143Y-78133058D01*
X103869826Y-78093822D01*
X103847537Y-78041430D01*
X103831893Y-78006355D01*
X103802641Y-77939201D01*
X103775094Y-77871358D01*
X103753737Y-77814034D01*
X103747935Y-77796572D01*
X103731452Y-77749938D01*
X103715340Y-77713905D01*
X103706490Y-77700287D01*
X103686960Y-77691952D01*
X103644334Y-77680137D01*
X103584145Y-77666181D01*
X103511922Y-77651422D01*
X103479600Y-77645355D01*
X103397522Y-77630273D01*
X103318795Y-77615669D01*
X103251109Y-77602980D01*
X103202160Y-77593642D01*
X103192943Y-77591839D01*
X103116743Y-77576799D01*
X103116743Y-77259492D01*
X103116914Y-77155154D01*
X103117616Y-77076213D01*
X103119134Y-77019038D01*
X103121749Y-76979999D01*
X103125746Y-76955465D01*
X103131409Y-76941805D01*
X103139020Y-76935389D01*
X103142143Y-76934199D01*
X103160978Y-76929980D01*
X103202588Y-76921562D01*
X103261630Y-76909961D01*
X103332757Y-76896195D01*
X103410625Y-76881280D01*
X103489887Y-76866232D01*
X103565198Y-76852069D01*
X103631213Y-76839806D01*
X103682587Y-76830461D01*
X103713975Y-76825050D01*
X103720959Y-76824114D01*
X103727285Y-76811596D01*
X103741290Y-76778246D01*
X103760355Y-76730377D01*
X103767634Y-76711629D01*
X103796996Y-76639195D01*
X103831571Y-76559170D01*
X103862537Y-76491728D01*
X103885323Y-76440159D01*
X103900482Y-76397785D01*
X103905542Y-76371834D01*
X103904736Y-76368356D01*
X103894041Y-76351936D01*
X103869620Y-76315417D01*
X103834095Y-76262687D01*
X103790087Y-76197635D01*
X103740217Y-76124151D01*
X103730356Y-76109645D01*
X103672492Y-76023704D01*
X103629956Y-75958261D01*
X103601054Y-75910304D01*
X103584090Y-75876820D01*
X103577367Y-75854795D01*
X103579190Y-75841217D01*
X103579236Y-75841131D01*
X103593586Y-75823297D01*
X103625323Y-75788817D01*
X103671010Y-75741268D01*
X103727204Y-75684222D01*
X103790468Y-75621255D01*
X103797602Y-75614227D01*
X103877330Y-75537020D01*
X103938857Y-75480330D01*
X103983421Y-75443110D01*
X104012257Y-75424315D01*
X104024958Y-75421889D01*
X104043494Y-75432471D01*
X104081961Y-75456916D01*
X104136386Y-75492612D01*
X104202798Y-75536947D01*
X104277225Y-75587311D01*
X104294601Y-75599160D01*
X104541297Y-75767626D01*
X104652706Y-75717062D01*
X104720457Y-75687595D01*
X104793183Y-75657959D01*
X104855703Y-75634330D01*
X104858457Y-75633358D01*
X104907360Y-75615457D01*
X104945057Y-75600320D01*
X104963425Y-75591210D01*
X104963456Y-75591184D01*
X104969285Y-75574717D01*
X104979192Y-75534219D01*
X104992195Y-75474242D01*
X105007309Y-75399340D01*
X105023552Y-75314064D01*
X105024881Y-75306875D01*
X105041175Y-75219014D01*
X105056133Y-75139260D01*
X105068791Y-75072681D01*
X105078186Y-75024347D01*
X105083354Y-74999325D01*
X105083444Y-74998943D01*
X105086589Y-74988299D01*
X105092704Y-74980262D01*
X105105453Y-74974467D01*
X105128500Y-74970547D01*
X105165509Y-74968135D01*
X105220144Y-74966865D01*
X105296067Y-74966371D01*
X105396944Y-74966286D01*
X105410000Y-74966286D01*
X105513910Y-74966348D01*
G37*
X105513910Y-74966348D02*
X105592454Y-74966778D01*
X105649298Y-74967942D01*
X105688105Y-74970207D01*
X105712538Y-74973940D01*
X105726262Y-74979506D01*
X105732940Y-74987273D01*
X105736236Y-74997605D01*
X105736556Y-74998943D01*
X105741562Y-75023079D01*
X105750829Y-75070701D01*
X105763392Y-75136741D01*
X105778287Y-75216128D01*
X105794551Y-75303796D01*
X105795119Y-75306875D01*
X105811410Y-75392789D01*
X105826652Y-75468696D01*
X105839861Y-75530045D01*
X105850054Y-75572282D01*
X105856248Y-75590855D01*
X105856543Y-75591184D01*
X105874788Y-75600253D01*
X105912405Y-75615367D01*
X105961271Y-75633262D01*
X105961543Y-75633358D01*
X106023093Y-75656493D01*
X106095657Y-75685965D01*
X106164057Y-75715597D01*
X106167294Y-75717062D01*
X106278702Y-75767626D01*
X106525399Y-75599160D01*
X106601077Y-75547803D01*
X106669631Y-75501889D01*
X106727088Y-75464030D01*
X106769476Y-75436837D01*
X106792825Y-75422921D01*
X106795042Y-75421889D01*
X106812010Y-75426484D01*
X106843701Y-75448655D01*
X106891352Y-75489447D01*
X106956198Y-75549905D01*
X107022397Y-75614227D01*
X107086214Y-75677612D01*
X107143329Y-75735451D01*
X107190305Y-75784175D01*
X107223703Y-75820210D01*
X107240085Y-75839984D01*
X107240694Y-75841002D01*
X107242505Y-75854572D01*
X107235683Y-75876733D01*
X107218540Y-75910478D01*
X107189393Y-75958800D01*
X107146555Y-76024692D01*
X107089448Y-76109517D01*
X107038766Y-76184177D01*
X106993461Y-76251140D01*
X106956150Y-76306516D01*
X106929452Y-76346420D01*
X106915985Y-76366962D01*
X106915137Y-76368356D01*
X106916781Y-76388038D01*
X106929245Y-76426293D01*
X106950048Y-76475889D01*
X106957462Y-76491728D01*
X106989814Y-76562290D01*
X107024328Y-76642353D01*
X107052365Y-76711629D01*
X107072568Y-76763045D01*
X107088615Y-76802119D01*
X107097888Y-76822541D01*
X107099041Y-76824114D01*
X107116096Y-76826721D01*
X107156298Y-76833863D01*
X107214302Y-76844523D01*
X107284763Y-76857685D01*
X107362335Y-76872333D01*
X107441672Y-76887449D01*
X107517431Y-76902018D01*
X107584264Y-76915022D01*
X107636828Y-76925445D01*
X107669776Y-76932270D01*
X107677857Y-76934199D01*
X107686205Y-76938962D01*
X107692506Y-76949718D01*
X107697045Y-76970098D01*
X107700104Y-77003734D01*
X107701967Y-77054255D01*
X107702918Y-77125292D01*
X107703240Y-77220476D01*
X107703257Y-77259492D01*
X107703257Y-77576799D01*
X107627057Y-77591839D01*
X107584663Y-77599995D01*
X107521400Y-77611899D01*
X107444962Y-77626116D01*
X107363043Y-77641210D01*
X107340400Y-77645355D01*
X107264806Y-77660053D01*
X107198953Y-77674505D01*
X107148366Y-77687375D01*
X107118574Y-77697322D01*
X107113612Y-77700287D01*
X107101426Y-77721283D01*
X107083953Y-77761967D01*
X107064577Y-77814322D01*
X107060734Y-77825600D01*
X107035339Y-77895523D01*
X107003817Y-77974418D01*
X106972969Y-78045266D01*
X106972817Y-78045595D01*
X106921447Y-78156733D01*
X107090399Y-78405253D01*
X107259352Y-78653772D01*
X107042429Y-78871058D01*
X106976819Y-78935726D01*
X106916979Y-78992733D01*
X106866267Y-79039033D01*
X106828046Y-79071584D01*
X106805675Y-79087343D01*
X106802466Y-79088343D01*
X106783626Y-79080469D01*
X106745180Y-79058578D01*
X106691330Y-79025267D01*
X106626276Y-78983131D01*
X106555940Y-78935943D01*
X106484555Y-78887810D01*
X106420908Y-78845928D01*
X106369041Y-78812871D01*
X106332995Y-78791218D01*
X106316867Y-78783543D01*
X106297189Y-78790037D01*
X106259875Y-78807150D01*
X106212621Y-78831326D01*
X106207612Y-78834013D01*
X106143977Y-78865927D01*
X106100341Y-78881579D01*
X106073202Y-78881745D01*
X106059057Y-78867204D01*
X106058975Y-78867000D01*
X106051905Y-78849779D01*
X106035042Y-78808899D01*
X106009695Y-78747525D01*
X105977171Y-78668819D01*
X105938778Y-78575947D01*
X105895822Y-78472072D01*
X105854222Y-78371502D01*
X105808504Y-78260516D01*
X105766526Y-78157703D01*
X105729548Y-78066215D01*
X105698827Y-77989201D01*
X105675622Y-77929815D01*
X105661190Y-77891209D01*
X105656743Y-77876800D01*
X105667896Y-77860272D01*
X105697069Y-77833930D01*
X105735971Y-77804887D01*
X105846757Y-77713039D01*
X105933351Y-77607759D01*
X105994716Y-77491266D01*
X106029815Y-77365776D01*
X106037608Y-77233507D01*
X106031943Y-77172457D01*
X106001078Y-77045795D01*
X105947920Y-76933941D01*
X105875767Y-76838001D01*
X105787917Y-76759076D01*
X105687665Y-76698270D01*
X105578310Y-76656687D01*
X105463147Y-76635428D01*
X105345475Y-76635599D01*
X105228590Y-76658301D01*
X105115789Y-76704638D01*
X105010369Y-76775713D01*
X104966368Y-76815911D01*
X104881979Y-76919129D01*
X104823222Y-77031925D01*
X104789704Y-77151010D01*
X104781035Y-77273095D01*
X104796823Y-77394893D01*
X104836678Y-77513116D01*
X104900207Y-77624475D01*
X104987021Y-77725684D01*
X105084029Y-77804887D01*
X105124437Y-77835162D01*
X105152982Y-77861219D01*
X105163257Y-77876825D01*
X105157877Y-77893843D01*
X105142575Y-77934500D01*
X105118612Y-77995642D01*
X105087244Y-78074119D01*
X105049732Y-78166780D01*
X105007333Y-78270472D01*
X104965663Y-78371526D01*
X104919690Y-78482607D01*
X104877107Y-78585541D01*
X104839221Y-78677165D01*
X104807340Y-78754316D01*
X104782771Y-78813831D01*
X104766820Y-78852544D01*
X104760910Y-78867000D01*
X104746948Y-78881685D01*
X104719940Y-78881642D01*
X104676413Y-78866099D01*
X104612890Y-78834284D01*
X104612388Y-78834013D01*
X104564560Y-78809323D01*
X104525897Y-78791338D01*
X104504095Y-78783614D01*
X104503133Y-78783543D01*
X104486721Y-78791378D01*
X104450487Y-78813165D01*
X104398474Y-78846328D01*
X104334725Y-78888291D01*
X104264060Y-78935943D01*
X104192116Y-78984191D01*
X104127274Y-79026151D01*
X104073735Y-79059227D01*
X104035697Y-79080821D01*
X104017533Y-79088343D01*
X104000808Y-79078457D01*
X103967180Y-79050826D01*
X103920010Y-79008495D01*
X103862658Y-78954505D01*
X103798484Y-78891899D01*
X103777497Y-78870983D01*
X103560499Y-78653623D01*
X103725668Y-78411220D01*
X103775864Y-78336781D01*
X103819919Y-78269972D01*
X103855362Y-78214665D01*
X103879719Y-78174729D01*
X103890522Y-78154036D01*
X103890838Y-78152563D01*
X103885143Y-78133058D01*
X103869826Y-78093822D01*
X103847537Y-78041430D01*
X103831893Y-78006355D01*
X103802641Y-77939201D01*
X103775094Y-77871358D01*
X103753737Y-77814034D01*
X103747935Y-77796572D01*
X103731452Y-77749938D01*
X103715340Y-77713905D01*
X103706490Y-77700287D01*
X103686960Y-77691952D01*
X103644334Y-77680137D01*
X103584145Y-77666181D01*
X103511922Y-77651422D01*
X103479600Y-77645355D01*
X103397522Y-77630273D01*
X103318795Y-77615669D01*
X103251109Y-77602980D01*
X103202160Y-77593642D01*
X103192943Y-77591839D01*
X103116743Y-77576799D01*
X103116743Y-77259492D01*
X103116914Y-77155154D01*
X103117616Y-77076213D01*
X103119134Y-77019038D01*
X103121749Y-76979999D01*
X103125746Y-76955465D01*
X103131409Y-76941805D01*
X103139020Y-76935389D01*
X103142143Y-76934199D01*
X103160978Y-76929980D01*
X103202588Y-76921562D01*
X103261630Y-76909961D01*
X103332757Y-76896195D01*
X103410625Y-76881280D01*
X103489887Y-76866232D01*
X103565198Y-76852069D01*
X103631213Y-76839806D01*
X103682587Y-76830461D01*
X103713975Y-76825050D01*
X103720959Y-76824114D01*
X103727285Y-76811596D01*
X103741290Y-76778246D01*
X103760355Y-76730377D01*
X103767634Y-76711629D01*
X103796996Y-76639195D01*
X103831571Y-76559170D01*
X103862537Y-76491728D01*
X103885323Y-76440159D01*
X103900482Y-76397785D01*
X103905542Y-76371834D01*
X103904736Y-76368356D01*
X103894041Y-76351936D01*
X103869620Y-76315417D01*
X103834095Y-76262687D01*
X103790087Y-76197635D01*
X103740217Y-76124151D01*
X103730356Y-76109645D01*
X103672492Y-76023704D01*
X103629956Y-75958261D01*
X103601054Y-75910304D01*
X103584090Y-75876820D01*
X103577367Y-75854795D01*
X103579190Y-75841217D01*
X103579236Y-75841131D01*
X103593586Y-75823297D01*
X103625323Y-75788817D01*
X103671010Y-75741268D01*
X103727204Y-75684222D01*
X103790468Y-75621255D01*
X103797602Y-75614227D01*
X103877330Y-75537020D01*
X103938857Y-75480330D01*
X103983421Y-75443110D01*
X104012257Y-75424315D01*
X104024958Y-75421889D01*
X104043494Y-75432471D01*
X104081961Y-75456916D01*
X104136386Y-75492612D01*
X104202798Y-75536947D01*
X104277225Y-75587311D01*
X104294601Y-75599160D01*
X104541297Y-75767626D01*
X104652706Y-75717062D01*
X104720457Y-75687595D01*
X104793183Y-75657959D01*
X104855703Y-75634330D01*
X104858457Y-75633358D01*
X104907360Y-75615457D01*
X104945057Y-75600320D01*
X104963425Y-75591210D01*
X104963456Y-75591184D01*
X104969285Y-75574717D01*
X104979192Y-75534219D01*
X104992195Y-75474242D01*
X105007309Y-75399340D01*
X105023552Y-75314064D01*
X105024881Y-75306875D01*
X105041175Y-75219014D01*
X105056133Y-75139260D01*
X105068791Y-75072681D01*
X105078186Y-75024347D01*
X105083354Y-74999325D01*
X105083444Y-74998943D01*
X105086589Y-74988299D01*
X105092704Y-74980262D01*
X105105453Y-74974467D01*
X105128500Y-74970547D01*
X105165509Y-74968135D01*
X105220144Y-74966865D01*
X105296067Y-74966371D01*
X105396944Y-74966286D01*
X105410000Y-74966286D01*
X105513910Y-74966348D01*
G36*
X107554876Y-79680335D02*
G01*
X107596667Y-79699344D01*
X107629469Y-79722378D01*
X107653503Y-79748133D01*
X107670097Y-79781358D01*
X107680577Y-79826800D01*
X107686271Y-79889207D01*
X107688507Y-79973327D01*
X107688743Y-80028721D01*
X107688743Y-80244826D01*
X107651774Y-80261670D01*
X107622656Y-80273981D01*
X107608231Y-80278514D01*
X107605472Y-80265025D01*
X107603282Y-80228653D01*
X107601942Y-80175542D01*
X107601657Y-80133372D01*
X107600434Y-80072447D01*
X107597136Y-80024115D01*
X107592321Y-79994518D01*
X107588496Y-79988229D01*
X107562783Y-79994652D01*
X107522418Y-80011125D01*
X107475679Y-80033458D01*
X107430845Y-80057457D01*
X107396193Y-80078930D01*
X107380002Y-80093685D01*
X107379938Y-80093845D01*
X107381330Y-80121152D01*
X107393818Y-80147219D01*
X107415743Y-80168392D01*
X107447743Y-80175474D01*
X107475092Y-80174649D01*
X107513826Y-80174042D01*
X107534158Y-80183116D01*
X107546369Y-80207092D01*
X107547909Y-80211613D01*
X107553203Y-80245806D01*
X107539047Y-80266568D01*
X107502148Y-80276462D01*
X107462289Y-80278292D01*
X107390562Y-80264727D01*
X107353432Y-80245355D01*
X107307576Y-80199845D01*
X107283256Y-80143983D01*
X107281073Y-80084957D01*
X107301629Y-80029953D01*
X107332549Y-79995486D01*
X107363420Y-79976189D01*
X107411942Y-79951759D01*
X107468485Y-79926985D01*
X107477910Y-79923199D01*
X107540019Y-79895791D01*
X107575822Y-79871634D01*
X107587337Y-79847619D01*
X107576580Y-79820635D01*
X107558114Y-79799543D01*
X107514469Y-79773572D01*
X107466446Y-79771624D01*
X107422406Y-79791637D01*
X107390709Y-79831551D01*
X107386549Y-79841848D01*
X107362327Y-79879724D01*
X107326965Y-79907842D01*
X107282343Y-79930917D01*
X107282343Y-79865485D01*
X107284969Y-79825506D01*
X107296230Y-79793997D01*
X107321199Y-79760378D01*
X107345169Y-79734484D01*
X107382441Y-79697817D01*
X107411401Y-79678121D01*
X107442505Y-79670220D01*
X107477713Y-79668914D01*
X107554876Y-79680335D01*
G37*
X107554876Y-79680335D02*
X107596667Y-79699344D01*
X107629469Y-79722378D01*
X107653503Y-79748133D01*
X107670097Y-79781358D01*
X107680577Y-79826800D01*
X107686271Y-79889207D01*
X107688507Y-79973327D01*
X107688743Y-80028721D01*
X107688743Y-80244826D01*
X107651774Y-80261670D01*
X107622656Y-80273981D01*
X107608231Y-80278514D01*
X107605472Y-80265025D01*
X107603282Y-80228653D01*
X107601942Y-80175542D01*
X107601657Y-80133372D01*
X107600434Y-80072447D01*
X107597136Y-80024115D01*
X107592321Y-79994518D01*
X107588496Y-79988229D01*
X107562783Y-79994652D01*
X107522418Y-80011125D01*
X107475679Y-80033458D01*
X107430845Y-80057457D01*
X107396193Y-80078930D01*
X107380002Y-80093685D01*
X107379938Y-80093845D01*
X107381330Y-80121152D01*
X107393818Y-80147219D01*
X107415743Y-80168392D01*
X107447743Y-80175474D01*
X107475092Y-80174649D01*
X107513826Y-80174042D01*
X107534158Y-80183116D01*
X107546369Y-80207092D01*
X107547909Y-80211613D01*
X107553203Y-80245806D01*
X107539047Y-80266568D01*
X107502148Y-80276462D01*
X107462289Y-80278292D01*
X107390562Y-80264727D01*
X107353432Y-80245355D01*
X107307576Y-80199845D01*
X107283256Y-80143983D01*
X107281073Y-80084957D01*
X107301629Y-80029953D01*
X107332549Y-79995486D01*
X107363420Y-79976189D01*
X107411942Y-79951759D01*
X107468485Y-79926985D01*
X107477910Y-79923199D01*
X107540019Y-79895791D01*
X107575822Y-79871634D01*
X107587337Y-79847619D01*
X107576580Y-79820635D01*
X107558114Y-79799543D01*
X107514469Y-79773572D01*
X107466446Y-79771624D01*
X107422406Y-79791637D01*
X107390709Y-79831551D01*
X107386549Y-79841848D01*
X107362327Y-79879724D01*
X107326965Y-79907842D01*
X107282343Y-79930917D01*
X107282343Y-79865485D01*
X107284969Y-79825506D01*
X107296230Y-79793997D01*
X107321199Y-79760378D01*
X107345169Y-79734484D01*
X107382441Y-79697817D01*
X107411401Y-79678121D01*
X107442505Y-79670220D01*
X107477713Y-79668914D01*
X107554876Y-79680335D01*
G36*
X103281550Y-79760212D02*
G01*
X103315456Y-79711302D01*
X103376653Y-79661878D01*
X103444063Y-79637359D01*
X103512880Y-79635797D01*
X103578303Y-79655239D01*
X103635527Y-79693735D01*
X103679749Y-79749335D01*
X103706167Y-79820086D01*
X103711510Y-79872162D01*
X103710903Y-79893893D01*
X103705822Y-79910531D01*
X103691855Y-79925437D01*
X103664589Y-79941973D01*
X103619612Y-79963498D01*
X103552511Y-79993374D01*
X103552171Y-79993524D01*
X103490407Y-80021813D01*
X103439759Y-80046933D01*
X103405404Y-80066179D01*
X103392518Y-80076848D01*
X103392514Y-80076934D01*
X103403872Y-80100166D01*
X103430431Y-80125774D01*
X103460923Y-80144221D01*
X103476370Y-80147886D01*
X103518515Y-80135212D01*
X103554808Y-80103471D01*
X103572517Y-80068572D01*
X103589552Y-80042845D01*
X103622922Y-80013546D01*
X103662149Y-79988235D01*
X103696756Y-79974471D01*
X103703993Y-79973714D01*
X103712139Y-79986160D01*
X103712630Y-80017972D01*
X103706643Y-80060866D01*
X103695357Y-80106558D01*
X103679950Y-80146761D01*
X103679171Y-80148322D01*
X103632804Y-80213062D01*
X103572711Y-80257097D01*
X103504465Y-80278711D01*
X103433638Y-80276185D01*
X103365804Y-80247804D01*
X103362788Y-80245808D01*
X103309427Y-80197448D01*
X103274340Y-80134352D01*
X103254922Y-80051387D01*
X103252316Y-80028078D01*
X103247701Y-79918055D01*
X103253233Y-79866748D01*
X103392514Y-79866748D01*
X103394324Y-79898753D01*
X103404222Y-79908093D01*
X103428898Y-79901105D01*
X103467795Y-79884587D01*
X103511275Y-79863881D01*
X103512356Y-79863333D01*
X103549209Y-79843949D01*
X103564000Y-79831013D01*
X103560353Y-79817451D01*
X103544995Y-79799632D01*
X103505923Y-79773845D01*
X103463846Y-79771950D01*
X103426103Y-79790717D01*
X103400034Y-79826915D01*
X103392514Y-79866748D01*
X103253233Y-79866748D01*
X103257194Y-79830027D01*
X103281550Y-79760212D01*
G37*
X103281550Y-79760212D02*
X103315456Y-79711302D01*
X103376653Y-79661878D01*
X103444063Y-79637359D01*
X103512880Y-79635797D01*
X103578303Y-79655239D01*
X103635527Y-79693735D01*
X103679749Y-79749335D01*
X103706167Y-79820086D01*
X103711510Y-79872162D01*
X103710903Y-79893893D01*
X103705822Y-79910531D01*
X103691855Y-79925437D01*
X103664589Y-79941973D01*
X103619612Y-79963498D01*
X103552511Y-79993374D01*
X103552171Y-79993524D01*
X103490407Y-80021813D01*
X103439759Y-80046933D01*
X103405404Y-80066179D01*
X103392518Y-80076848D01*
X103392514Y-80076934D01*
X103403872Y-80100166D01*
X103430431Y-80125774D01*
X103460923Y-80144221D01*
X103476370Y-80147886D01*
X103518515Y-80135212D01*
X103554808Y-80103471D01*
X103572517Y-80068572D01*
X103589552Y-80042845D01*
X103622922Y-80013546D01*
X103662149Y-79988235D01*
X103696756Y-79974471D01*
X103703993Y-79973714D01*
X103712139Y-79986160D01*
X103712630Y-80017972D01*
X103706643Y-80060866D01*
X103695357Y-80106558D01*
X103679950Y-80146761D01*
X103679171Y-80148322D01*
X103632804Y-80213062D01*
X103572711Y-80257097D01*
X103504465Y-80278711D01*
X103433638Y-80276185D01*
X103365804Y-80247804D01*
X103362788Y-80245808D01*
X103309427Y-80197448D01*
X103274340Y-80134352D01*
X103254922Y-80051387D01*
X103252316Y-80028078D01*
X103247701Y-79918055D01*
X103253233Y-79866748D01*
X103392514Y-79866748D01*
X103394324Y-79898753D01*
X103404222Y-79908093D01*
X103428898Y-79901105D01*
X103467795Y-79884587D01*
X103511275Y-79863881D01*
X103512356Y-79863333D01*
X103549209Y-79843949D01*
X103564000Y-79831013D01*
X103560353Y-79817451D01*
X103544995Y-79799632D01*
X103505923Y-79773845D01*
X103463846Y-79771950D01*
X103426103Y-79790717D01*
X103400034Y-79826915D01*
X103392514Y-79866748D01*
X103253233Y-79866748D01*
X103257194Y-79830027D01*
X103281550Y-79760212D01*
G36*
X105939926Y-79673755D02*
G01*
X106005858Y-79698084D01*
X106059273Y-79741117D01*
X106080164Y-79771409D01*
X106102939Y-79826994D01*
X106102466Y-79867186D01*
X106078562Y-79894217D01*
X106069717Y-79898813D01*
X106031530Y-79913144D01*
X106012028Y-79909472D01*
X106005422Y-79885407D01*
X106005086Y-79872114D01*
X105992992Y-79823210D01*
X105961471Y-79788999D01*
X105917659Y-79772476D01*
X105868695Y-79776634D01*
X105828894Y-79798227D01*
X105815450Y-79810544D01*
X105805921Y-79825487D01*
X105799485Y-79848075D01*
X105795317Y-79883328D01*
X105792597Y-79936266D01*
X105790502Y-80011907D01*
X105789960Y-80035857D01*
X105787981Y-80117790D01*
X105785731Y-80175455D01*
X105782357Y-80213608D01*
X105777006Y-80237004D01*
X105768824Y-80250398D01*
X105756959Y-80258545D01*
X105749362Y-80262144D01*
X105717102Y-80274452D01*
X105698111Y-80278514D01*
X105691836Y-80264948D01*
X105688006Y-80223934D01*
X105686600Y-80154999D01*
X105687598Y-80057669D01*
X105687908Y-80042657D01*
X105690101Y-79953859D01*
X105692693Y-79889019D01*
X105696382Y-79843067D01*
X105701864Y-79810935D01*
X105709835Y-79787553D01*
X105720993Y-79767852D01*
X105726830Y-79759410D01*
X105760296Y-79722057D01*
X105797727Y-79693003D01*
X105802309Y-79690467D01*
X105869426Y-79670443D01*
X105939926Y-79673755D01*
G37*
X105939926Y-79673755D02*
X106005858Y-79698084D01*
X106059273Y-79741117D01*
X106080164Y-79771409D01*
X106102939Y-79826994D01*
X106102466Y-79867186D01*
X106078562Y-79894217D01*
X106069717Y-79898813D01*
X106031530Y-79913144D01*
X106012028Y-79909472D01*
X106005422Y-79885407D01*
X106005086Y-79872114D01*
X105992992Y-79823210D01*
X105961471Y-79788999D01*
X105917659Y-79772476D01*
X105868695Y-79776634D01*
X105828894Y-79798227D01*
X105815450Y-79810544D01*
X105805921Y-79825487D01*
X105799485Y-79848075D01*
X105795317Y-79883328D01*
X105792597Y-79936266D01*
X105790502Y-80011907D01*
X105789960Y-80035857D01*
X105787981Y-80117790D01*
X105785731Y-80175455D01*
X105782357Y-80213608D01*
X105777006Y-80237004D01*
X105768824Y-80250398D01*
X105756959Y-80258545D01*
X105749362Y-80262144D01*
X105717102Y-80274452D01*
X105698111Y-80278514D01*
X105691836Y-80264948D01*
X105688006Y-80223934D01*
X105686600Y-80154999D01*
X105687598Y-80057669D01*
X105687908Y-80042657D01*
X105690101Y-79953859D01*
X105692693Y-79889019D01*
X105696382Y-79843067D01*
X105701864Y-79810935D01*
X105709835Y-79787553D01*
X105720993Y-79767852D01*
X105726830Y-79759410D01*
X105760296Y-79722057D01*
X105797727Y-79693003D01*
X105802309Y-79690467D01*
X105869426Y-79670443D01*
X105939926Y-79673755D01*
G36*
X102703677Y-79874333D02*
G01*
X102706450Y-79826958D01*
X102710388Y-79793290D01*
X102715849Y-79769498D01*
X102723192Y-79751753D01*
X102732777Y-79736224D01*
X102736887Y-79730381D01*
X102791405Y-79675185D01*
X102860336Y-79643890D01*
X102940072Y-79635165D01*
X103009744Y-79643918D01*
X103065201Y-79671568D01*
X103114148Y-79722480D01*
X103127629Y-79741338D01*
X103142314Y-79766015D01*
X103151842Y-79792816D01*
X103157293Y-79828587D01*
X103159747Y-79880169D01*
X103160286Y-79948267D01*
X103157852Y-80041588D01*
X103149394Y-80111657D01*
X103133174Y-80163931D01*
X103107454Y-80203869D01*
X103070497Y-80236929D01*
X103067782Y-80238886D01*
X103031360Y-80258908D01*
X102987502Y-80268815D01*
X102931724Y-80271257D01*
X102841048Y-80271257D01*
X102841010Y-80359283D01*
X102840166Y-80408308D01*
X102835024Y-80437065D01*
X102821587Y-80454311D01*
X102795858Y-80468808D01*
X102789679Y-80471769D01*
X102760764Y-80485648D01*
X102738376Y-80494414D01*
X102721729Y-80495171D01*
X102710036Y-80485023D01*
X102702510Y-80461073D01*
X102698366Y-80420426D01*
X102696815Y-80360186D01*
X102697071Y-80277455D01*
X102698349Y-80169339D01*
X102698748Y-80137000D01*
X102700185Y-80025524D01*
X102701472Y-79952603D01*
X102840971Y-79952603D01*
X102841755Y-80014499D01*
X102845240Y-80054997D01*
X102853124Y-80081708D01*
X102867105Y-80102244D01*
X102876597Y-80112260D01*
X102915404Y-80141567D01*
X102949763Y-80143952D01*
X102985216Y-80119750D01*
X102986114Y-80118857D01*
X103000539Y-80100153D01*
X103009313Y-80074732D01*
X103013739Y-80035584D01*
X103015118Y-79975697D01*
X103015143Y-79962430D01*
X103011812Y-79879901D01*
X103000969Y-79822691D01*
X102981340Y-79787766D01*
X102951650Y-79772094D01*
X102934491Y-79770514D01*
X102893766Y-79777926D01*
X102865832Y-79802330D01*
X102849017Y-79846980D01*
X102841650Y-79915130D01*
X102840971Y-79952603D01*
X102701472Y-79952603D01*
X102701708Y-79939245D01*
X102703677Y-79874333D01*
G37*
X102703677Y-79874333D02*
X102706450Y-79826958D01*
X102710388Y-79793290D01*
X102715849Y-79769498D01*
X102723192Y-79751753D01*
X102732777Y-79736224D01*
X102736887Y-79730381D01*
X102791405Y-79675185D01*
X102860336Y-79643890D01*
X102940072Y-79635165D01*
X103009744Y-79643918D01*
X103065201Y-79671568D01*
X103114148Y-79722480D01*
X103127629Y-79741338D01*
X103142314Y-79766015D01*
X103151842Y-79792816D01*
X103157293Y-79828587D01*
X103159747Y-79880169D01*
X103160286Y-79948267D01*
X103157852Y-80041588D01*
X103149394Y-80111657D01*
X103133174Y-80163931D01*
X103107454Y-80203869D01*
X103070497Y-80236929D01*
X103067782Y-80238886D01*
X103031360Y-80258908D01*
X102987502Y-80268815D01*
X102931724Y-80271257D01*
X102841048Y-80271257D01*
X102841010Y-80359283D01*
X102840166Y-80408308D01*
X102835024Y-80437065D01*
X102821587Y-80454311D01*
X102795858Y-80468808D01*
X102789679Y-80471769D01*
X102760764Y-80485648D01*
X102738376Y-80494414D01*
X102721729Y-80495171D01*
X102710036Y-80485023D01*
X102702510Y-80461073D01*
X102698366Y-80420426D01*
X102696815Y-80360186D01*
X102697071Y-80277455D01*
X102698349Y-80169339D01*
X102698748Y-80137000D01*
X102700185Y-80025524D01*
X102701472Y-79952603D01*
X102840971Y-79952603D01*
X102841755Y-80014499D01*
X102845240Y-80054997D01*
X102853124Y-80081708D01*
X102867105Y-80102244D01*
X102876597Y-80112260D01*
X102915404Y-80141567D01*
X102949763Y-80143952D01*
X102985216Y-80119750D01*
X102986114Y-80118857D01*
X103000539Y-80100153D01*
X103009313Y-80074732D01*
X103013739Y-80035584D01*
X103015118Y-79975697D01*
X103015143Y-79962430D01*
X103011812Y-79879901D01*
X103000969Y-79822691D01*
X102981340Y-79787766D01*
X102951650Y-79772094D01*
X102934491Y-79770514D01*
X102893766Y-79777926D01*
X102865832Y-79802330D01*
X102849017Y-79846980D01*
X102841650Y-79915130D01*
X102840971Y-79952603D01*
X102701472Y-79952603D01*
X102701708Y-79939245D01*
X102703677Y-79874333D01*
D14*
%TO.C,J2*%
X119087500Y-75116000D02*
X127407500Y-75116000D01*
X119087500Y-81336000D02*
X127407500Y-81336000D01*
X119087500Y-75116000D02*
X119087500Y-81856000D01*
X118847500Y-82096000D02*
X119247500Y-82096000D01*
X119087500Y-76236000D02*
X127407500Y-76236000D01*
X118847500Y-81456000D02*
X118847500Y-82096000D01*
X127407500Y-75116000D02*
X127407500Y-81856000D01*
X119087500Y-81856000D02*
X127407500Y-81856000D01*
%TO.C,U2*%
X139426000Y-78486000D02*
X139426000Y-76536000D01*
X144546000Y-78486000D02*
X144546000Y-76536000D01*
X139426000Y-78486000D02*
X139426000Y-81936000D01*
X144546000Y-78486000D02*
X144546000Y-80436000D01*
%TO.C,U1*%
X142494000Y-87376000D02*
X106934000Y-87376000D01*
X112144000Y-89786000D02*
X112144000Y-97666000D01*
X147704000Y-84706000D02*
X145034000Y-84706000D01*
X104264000Y-84706000D02*
X104264000Y-89786000D01*
X147704000Y-102746000D02*
X147704000Y-84706000D01*
X142494000Y-87376000D02*
X142494000Y-84706000D01*
X145034000Y-100076000D02*
X145034000Y-102746000D01*
X106934000Y-100076000D02*
X106934000Y-102746000D01*
X142494000Y-87376000D02*
X145034000Y-87376000D01*
X145034000Y-100076000D02*
X106934000Y-100076000D01*
X106934000Y-87376000D02*
X106934000Y-84706000D01*
X142494000Y-84706000D02*
X104264000Y-84706000D01*
X104264000Y-102746000D02*
X104264000Y-97666000D01*
X112144000Y-97666000D02*
X101724000Y-97666000D01*
X101724000Y-89786000D02*
X112144000Y-89786000D01*
X104264000Y-102746000D02*
X147704000Y-102746000D01*
X101724000Y-97666000D02*
X101724000Y-89786000D01*
X145034000Y-87376000D02*
X145034000Y-84706000D01*
%TO.C,R7*%
X133593064Y-79221000D02*
X133138936Y-79221000D01*
X133593064Y-77751000D02*
X133138936Y-77751000D01*
D15*
%TO.C,J1*%
X115803680Y-75018900D02*
X112806480Y-75018900D01*
X117304820Y-77619860D02*
X117304820Y-79270860D01*
X112057180Y-79270860D02*
X111305340Y-79270860D01*
X111305340Y-79270860D02*
X111305340Y-77619860D01*
X117304820Y-79270860D02*
X116552980Y-79270860D01*
D16*
X116944140Y-79918560D02*
G75*
G03*
X116944140Y-79918560I-139700J0D01*
G01*
D14*
%TO.C,D1*%
X134020000Y-74946000D02*
X137920000Y-74946000D01*
X134020000Y-74946000D02*
X134020000Y-76946000D01*
X134020000Y-76946000D02*
X137920000Y-76946000D01*
%TO.C,C1*%
X131037000Y-79262248D02*
X131037000Y-79784752D01*
X129567000Y-79262248D02*
X129567000Y-79784752D01*
%TD*%
M02*
